<?xml version="1.0" encoding="utf-8"?>
<!-- Generator: Adobe Illustrator 15.0.2, SVG Export Plug-In . SVG Version: 6.00 Build 0)  -->
<!DOCTYPE svg PUBLIC "-//W3C//DTD SVG 1.1//EN" "http://www.w3.org/Graphics/SVG/1.1/DTD/svg11.dtd">
<svg version="1.1" id="Layer_1" xmlns="http://www.w3.org/2000/svg" xmlns:xlink="http://www.w3.org/1999/xlink" x="0px" y="0px"
	 width="24px" height="62.7px" viewBox="0 0 24 62.7" enable-background="new 0 0 24 62.7" xml:space="preserve">
<polygon fill="#B52126" points="13.2,0 12.1,0 11.9,0 10.8,0 10.2,4 11.9,4 12.1,4 13.8,4 "/>
<path fill="#FCF6F6" d="M12,2.2c0,0.7-0.3,1.2-0.7,1.2c-0.4,0-0.7-0.5-0.7-1.2S11,1,11.3,1C11.7,1,12,1.5,12,2.2"/>
<path fill="#231F20" d="M11.7,2.2c0,0.2-0.1,0.3-0.2,0.3c-0.1,0-0.2-0.1-0.2-0.3c0-0.2,0.1-0.3,0.2-0.3C11.6,1.8,11.7,2,11.7,2.2"/>
<rect x="11.1" y="4" fill="#B52126" width="1.8" height="1.1"/>
<rect x="11.1" y="4" fill="#9A1C1F" width="1.8" height="0.2"/>
<rect x="6.7" y="6.1" fill="#E3E4E3" width="10.7" height="1"/>
<rect x="6.7" y="6.4" fill="#A1A6A1" width="10.7" height="0.2"/>
<path fill="#B1B5B0" d="M21.5,14.1c0,1.6-1.3,2.9-2.9,2.9h-13c-1.6,0-2.9-1.3-2.9-2.9V9.9C2.5,8.3,3.9,7,5.5,7h13
	c1.6,0,2.9,1.3,2.9,2.9V14.1z"/>
<path fill="#BDC1BD" d="M20.3,14.1c0,1.6-1.2,2.9-2.6,2.9H6.3c-1.4,0-2.6-1.3-2.6-2.9V9.9C3.7,8.3,4.8,7,6.3,7h11.5
	c1.4,0,2.6,1.3,2.6,2.9V14.1z"/>
<path fill="#CACDCA" d="M19.2,14.1c0,1.6-1,2.9-2.2,2.9H7c-1.2,0-2.2-1.3-2.2-2.9V9.9C4.8,8.3,5.8,7,7,7H17c1.2,0,2.2,1.3,2.2,2.9
	V14.1z"/>
<path fill="#D6D8D6" d="M18.1,14.1c0,1.6-0.8,2.9-1.9,2.9H7.8c-1,0-1.9-1.3-1.9-2.9V9.9C5.9,8.3,6.8,7,7.8,7h8.4
	c1,0,1.9,1.3,1.9,2.9V14.1z"/>
<path fill="#E3E4E3" d="M17,14.1c0,1.6-0.7,2.9-1.5,2.9H8.6c-0.8,0-1.5-1.3-1.5-2.9V9.9C7.1,8.3,7.7,7,8.6,7h6.8
	C16.3,7,17,8.3,17,9.9V14.1z"/>
<rect x="0.7" y="14.1" fill="#E3E4E3" width="22.6" height="47.4"/>
<rect x="1.3" y="14.1" fill="#E7EAE9" width="21.5" height="47.4"/>
<rect x="1.8" y="14.1" fill="#EBEFEF" width="20.4" height="47.4"/>
<rect x="2.4" y="14.1" fill="#EFF4F6" width="19.2" height="47.4"/>
<rect x="2.9" y="14.1" fill="#F3FAFC" width="18.1" height="47.4"/>
<rect y="61.5" fill="#B1B5B0" width="24" height="1.2"/>
<rect x="1.3" y="61.5" fill="#BDC1BD" width="21.4" height="1.2"/>
<rect x="2.6" y="61.5" fill="#CACDCA" width="18.7" height="1.2"/>
<rect x="3.9" y="61.5" fill="#D6D8D6" width="16.1" height="1.2"/>
<rect x="5.3" y="61.5" fill="#E3E4E3" width="13.5" height="1.2"/>
<rect x="0" y="12.9" fill="#B1B5B0" width="24" height="1.2"/>
<rect x="1.3" y="12.9" fill="#BDC1BD" width="21.4" height="1.2"/>
<rect x="2.6" y="12.9" fill="#CACDCA" width="18.7" height="1.2"/>
<rect x="3.9" y="12.9" fill="#D6D8D6" width="16.1" height="1.2"/>
<rect x="5.3" y="12.9" fill="#E3E4E3" width="13.5" height="1.2"/>
<path fill="#E3E4E3" d="M17.9,5.8c0,0.4-0.3,0.7-0.7,0.7H6.8c-0.4,0-0.7-0.3-0.7-0.7c0-0.4,0.3-0.7,0.7-0.7h10.4
	C17.6,5.1,17.9,5.4,17.9,5.8"/>
<g>
	<g>
		<defs>
			<rect id="SVGID_1_" x="0.8" y="19.7" width="19.9" height="21"/>
		</defs>
		<clipPath id="SVGID_2_">
			<use xlink:href="#SVGID_1_"  overflow="visible"/>
		</clipPath>
		<path clip-path="url(#SVGID_2_)" fill="#F3FAFC" d="M1.9,22.3c0.4-0.4,0.9-0.7,1.4-1c0.5-0.3,0.9-0.5,1.4-0.7
			c0.5-0.2,1-0.4,1.5-0.5c0.5-0.1,1-0.2,1.5-0.3c0.5-0.1,1-0.1,1.5-0.1c0,0,0.1,0,0.1,0c0.5,0,1,0,1.4,0.1c0.5,0.1,1,0.2,1.5,0.3
			c0.5,0.1,1.1,0.3,1.6,0.5c0.6,0.2,1.1,0.5,1.6,0.8c0.6,0.3,1.1,0.7,1.6,1.2c0.6,0.5,1.2,1.2,1.7,1.8c1.2,1.7,1.9,3.7,1.9,5.8
			c0-2.2-0.7-4.1-1.9-5.8c-0.5-0.7-1-1.3-1.7-1.8c-0.5-0.4-1-0.8-1.6-1.2c-0.5-0.3-1-0.6-1.6-0.8c-0.5-0.2-1-0.4-1.6-0.5
			c-0.5-0.1-1-0.2-1.5-0.3c-0.5-0.1-0.9-0.1-1.4-0.1c0,0-0.1,0-0.1,0c-0.5,0-1,0-1.5,0.1c-0.5,0.1-1,0.2-1.5,0.3
			c-0.5,0.1-1,0.3-1.5,0.5c-0.5,0.2-1,0.4-1.4,0.7C2.9,21.6,2.4,22,1.9,22.3c-0.4,0.3-0.8,0.7-1.2,1.1v0C1.1,23,1.5,22.7,1.9,22.3"
			/>
		<path clip-path="url(#SVGID_2_)" fill="#F3FAFC" d="M2.8,35.6c0.1,0.1,0.2,0.1,0.3,0.2c0.3,0.3,0.7,0.5,1.1,0.7
			c0.2,0.1,0.4,0.2,0.5,0.3C5,37,5.2,37.1,5.5,37.2c0.2,0.1,0.5,0.2,0.8,0.3c0.2,0.1,0.4,0.1,0.6,0.2c0.3,0.1,0.6,0.1,0.9,0.2
			c0.1,0,0.3,0,0.4,0.1c0.4,0,0.8,0.1,1.1,0.1c0,0,0,0,0,0c0,0,0.1,0,0.1,0l0.1,0c0.4,0,0.9,0,1.3-0.1c0,0,0,0,0,0
			c0.4-0.1,0.9-0.2,1.3-0.3c0.1,0,0.1,0,0.2,0c0.4-0.1,0.8-0.2,1.1-0.4c0.1,0,0.2-0.1,0.3-0.2c0.3-0.1,0.6-0.3,0.9-0.5
			c0.2-0.1,0.4-0.2,0.6-0.4c0.2-0.2,0.4-0.3,0.6-0.5c0.3-0.2,0.5-0.5,0.8-0.7c0.1-0.1,0.2-0.2,0.3-0.4c0.4-0.5,0.7-1,1-1.5
			c0,0,0,0,0,0c0.4-0.9,0.7-1.8,0.7-2.8c0-1.6-0.6-2.9-1.2-3.7c0,0-0.1-0.1-0.1-0.1c-0.4-0.5-0.8-1-1.3-1.4
			c-0.1-0.1-0.2-0.1-0.3-0.2c-0.3-0.3-0.7-0.5-1.1-0.8c-0.2-0.1-0.3-0.2-0.5-0.3c-0.3-0.1-0.5-0.3-0.8-0.4c-0.2-0.1-0.5-0.2-0.7-0.3
			c-0.2-0.1-0.4-0.1-0.6-0.2c-0.3-0.1-0.6-0.1-0.9-0.2c-0.1,0-0.3,0-0.4-0.1c-0.4,0-0.8-0.1-1.1-0.1c0,0-0.1,0-0.1,0l-0.1,0
			c-0.4,0-0.9,0-1.3,0.1c0,0,0,0,0,0c-0.4,0.1-0.9,0.1-1.3,0.3c0,0-0.1,0-0.1,0c-0.4,0.1-0.8,0.2-1.1,0.4c-0.1,0-0.2,0.1-0.3,0.2
			c-0.3,0.1-0.6,0.3-0.9,0.5C4,24,3.8,24.1,3.6,24.2c-0.2,0.2-0.4,0.3-0.7,0.5c-0.3,0.2-0.5,0.5-0.8,0.7c-0.1,0.1-0.2,0.3-0.4,0.4
			c-0.4,0.5-0.7,0.9-1,1.4c0,0,0,0,0,0c0,0.1,0,0.1-0.1,0.2v1.1c0.1-0.3,0.2-0.6,0.4-0.9c0.2-0.5,0.6-0.9,0.9-1.4
			c0.3-0.4,0.7-0.7,1.1-1c0.4-0.3,0.7-0.6,1.1-0.8c0.4-0.2,0.8-0.4,1.2-0.6c0.4-0.2,0.8-0.3,1.2-0.4c0.4-0.1,0.8-0.2,1.3-0.2
			C8.4,23,8.9,23,9.3,23l0.1,0c0.4,0,0.8,0,1.2,0.1c0.4,0.1,0.9,0.1,1.3,0.2c0.4,0.1,0.9,0.3,1.3,0.4c0.5,0.2,0.9,0.4,1.3,0.7
			c0.5,0.3,0.9,0.6,1.3,0.9c0.5,0.4,0.9,0.9,1.3,1.4c0.6,0.8,1.2,2,1.2,3.5c0,0.9-0.2,1.7-0.6,2.5c-0.2,0.5-0.6,1-0.9,1.4
			c-0.3,0.4-0.7,0.7-1.1,1.1c-0.3,0.3-0.7,0.6-1.1,0.8c-0.4,0.2-0.8,0.4-1.2,0.6c-0.4,0.2-0.8,0.3-1.2,0.4c-0.4,0.1-0.9,0.2-1.3,0.3
			c-0.4,0.1-0.8,0.1-1.3,0.1l-0.2,0c-0.4,0-0.7,0-1.1-0.1c-0.5,0-0.9-0.1-1.3-0.2C6.5,37,6,36.9,5.6,36.7c-0.4-0.2-0.9-0.4-1.3-0.6
			c-0.5-0.3-0.9-0.6-1.3-0.9c-0.5-0.4-0.9-0.8-1.3-1.3c-0.5-0.6-0.8-1.2-1-1.9v1c0.2,0.4,0.4,0.8,0.7,1.1c0,0,0,0.1,0.1,0.1
			C1.9,34.7,2.3,35.2,2.8,35.6"/>
		<path clip-path="url(#SVGID_2_)" fill="#FFFFFF" d="M0.8,27.2l-0.1-1v1.2C0.8,27.4,0.8,27.3,0.8,27.2C0.8,27.2,0.8,27.2,0.8,27.2"
			/>
		<path clip-path="url(#SVGID_2_)" fill="#FFFFFF" d="M1.8,38l-0.3-3.8c-0.3-0.4-0.5-0.7-0.7-1.1v4C1.1,37.3,1.4,37.7,1.8,38"/>
		<path clip-path="url(#SVGID_2_)" fill="#1498C3" d="M2.8,35.6c-0.5-0.4-0.9-0.9-1.3-1.4c0,0,0-0.1-0.1-0.1L1.8,38
			c0.5,0.4,1,0.8,1.6,1.1l-0.3-3.3C3,35.8,2.9,35.7,2.8,35.6"/>
		<path clip-path="url(#SVGID_2_)" fill="#1498C3" d="M1.8,25.8c0.1-0.1,0.2-0.3,0.4-0.4l-0.3-3.1c-0.4,0.3-0.8,0.7-1.2,1.1v2.8
			l0.1,1C1.1,26.7,1.4,26.2,1.8,25.8"/>
		<path clip-path="url(#SVGID_2_)" fill="#FFFFFF" d="M4.2,36.6c-0.4-0.2-0.7-0.5-1.1-0.7l0.3,3.3c0.5,0.3,1,0.5,1.6,0.8l-0.3-3
			C4.5,36.8,4.3,36.7,4.2,36.6"/>
		<path clip-path="url(#SVGID_2_)" fill="#FFFFFF" d="M3,24.7c0.2-0.2,0.4-0.3,0.7-0.5l-0.2-2.9c-0.5,0.3-1,0.6-1.4,1l0.3,3.1
			C2.4,25.1,2.7,24.9,3,24.7"/>
		<path clip-path="url(#SVGID_2_)" fill="#B52126" d="M4.1,23.9c0.3-0.2,0.6-0.3,0.9-0.5l-0.2-2.8c-0.5,0.2-1,0.4-1.4,0.7l0.2,2.9
			C3.8,24.1,4,24,4.1,23.9"/>
		<path clip-path="url(#SVGID_2_)" fill="#B52126" d="M5.5,37.2C5.2,37.1,5,37,4.7,36.9l0.3,3c0.5,0.2,1,0.4,1.6,0.5l-0.2-2.9
			C6,37.4,5.8,37.3,5.5,37.2"/>
		<path clip-path="url(#SVGID_2_)" fill="#FFFFFF" d="M5.4,23.3c0.4-0.1,0.7-0.3,1.1-0.4l-0.2-2.7c-0.5,0.1-1,0.3-1.5,0.5l0.2,2.8
			C5.2,23.4,5.3,23.3,5.4,23.3"/>
		<path clip-path="url(#SVGID_2_)" fill="#FFFFFF" d="M6.9,37.7c-0.2,0-0.4-0.1-0.6-0.2l0.2,2.9c0.5,0.1,1,0.2,1.5,0.3l-0.2-2.8
			C7.5,37.8,7.2,37.7,6.9,37.7"/>
		<path clip-path="url(#SVGID_2_)" fill="#1498C3" d="M8.2,37.9c-0.1,0-0.3,0-0.4-0.1L8,40.6c0.4,0,0.9,0.1,1.3,0.1
			c0.1,0,0.1,0,0.2,0l-0.2-2.7C9,37.9,8.6,37.9,8.2,37.9"/>
		<path clip-path="url(#SVGID_2_)" fill="#1498C3" d="M6.7,22.8c0.4-0.1,0.9-0.2,1.3-0.3c0,0,0,0,0,0l-0.2-2.7
			c-0.5,0.1-1,0.2-1.5,0.3l0.2,2.7C6.6,22.9,6.6,22.8,6.7,22.8"/>
		<path clip-path="url(#SVGID_2_)" fill="#FFFFFF" d="M9.5,37.9l-0.1,0c0,0-0.1,0-0.1,0c0,0,0,0,0,0l0.2,2.7c0.5,0,1,0,1.5-0.1
			l-0.2-2.7C10.4,37.9,10,37.9,9.5,37.9"/>
		<path clip-path="url(#SVGID_2_)" fill="#FFFFFF" d="M9.3,22.5L9.3,22.5c0.1,0,0.2,0,0.2,0l-0.2-2.8c-0.5,0-1,0-1.5,0.1L8,22.6
			C8.4,22.5,8.9,22.5,9.3,22.5"/>
		<path clip-path="url(#SVGID_2_)" fill="#B52126" d="M10.6,22.6c0.1,0,0.3,0,0.4,0.1l-0.2-2.8c-0.5-0.1-0.9-0.1-1.4-0.1
			c0,0-0.1,0-0.1,0l0.2,2.8C9.9,22.5,10.2,22.5,10.6,22.6"/>
		<path clip-path="url(#SVGID_2_)" fill="#B52126" d="M12.2,37.6c-0.4,0.1-0.9,0.2-1.3,0.3c0,0,0,0,0,0l0.2,2.7
			c0.5-0.1,1-0.2,1.5-0.3l-0.2-2.7C12.3,37.5,12.2,37.6,12.2,37.6"/>
		<path clip-path="url(#SVGID_2_)" fill="#FFFFFF" d="M12,22.8c0.2,0.1,0.4,0.1,0.6,0.2l-0.2-2.9c-0.5-0.1-1-0.2-1.5-0.3l0.2,2.8
			C11.3,22.7,11.7,22.7,12,22.8"/>
		<path clip-path="url(#SVGID_2_)" fill="#FFFFFF" d="M13.4,37.1c-0.4,0.2-0.7,0.3-1.1,0.4l0.2,2.7c0.5-0.1,1-0.3,1.5-0.5L13.8,37
			C13.7,37,13.5,37.1,13.4,37.1"/>
		<path clip-path="url(#SVGID_2_)" fill="#1498C3" d="M13.3,23.2c0.3,0.1,0.6,0.2,0.8,0.4l-0.3-3c-0.5-0.2-1-0.4-1.6-0.5l0.2,2.9
			C12.8,23.1,13.1,23.1,13.3,23.2"/>
		<path clip-path="url(#SVGID_2_)" fill="#1498C3" d="M14.7,36.5c-0.3,0.2-0.6,0.3-0.9,0.5l0.2,2.8c0.5-0.2,1-0.5,1.4-0.7l-0.2-2.9
			C15,36.3,14.9,36.4,14.7,36.5"/>
		<path clip-path="url(#SVGID_2_)" fill="#FFFFFF" d="M14.7,23.9c0.4,0.2,0.7,0.5,1.1,0.8l-0.3-3.3c-0.5-0.3-1-0.6-1.6-0.8l0.3,3
			C14.3,23.7,14.5,23.8,14.7,23.9"/>
		<path clip-path="url(#SVGID_2_)" fill="#FFFFFF" d="M15.9,35.7c-0.2,0.2-0.4,0.3-0.6,0.5l0.2,2.9c0.5-0.3,1-0.6,1.4-1l-0.3-3.1
			C16.4,35.2,16.1,35.4,15.9,35.7"/>
		<path clip-path="url(#SVGID_2_)" fill="#B52126" d="M18,33c-0.3,0.5-0.6,1-1,1.5c-0.1,0.1-0.2,0.2-0.3,0.4l0.3,3.1
			c0.5-0.4,1-0.9,1.4-1.4L18,33C18,33,18,33,18,33"/>
		<path clip-path="url(#SVGID_2_)" fill="#B52126" d="M16,24.9c0.5,0.4,0.9,0.9,1.3,1.4c0,0,0.1,0.1,0.1,0.1l-0.3-3.9
			c-0.5-0.4-1-0.8-1.6-1.2l0.3,3.3C15.8,24.8,15.9,24.8,16,24.9"/>
		<path clip-path="url(#SVGID_2_)" fill="#FFFFFF" d="M17.1,22.6l0.3,3.9c0.6,0.8,1.2,2.1,1.2,3.7c0,0.9-0.2,1.9-0.7,2.8l0.3,3.6
			c0.5-0.6,1-1.3,1.3-2.1l-0.9-10.2C18.3,23.7,17.7,23.1,17.1,22.6"/>
		<path clip-path="url(#SVGID_2_)" fill="#1498C3" d="M19.6,34.6L19.6,34.6c0.7-1.3,1-2.8,1-4.3c0-2.2-0.7-4.1-1.9-5.8L19.6,34.6z"
			/>
		<path clip-path="url(#SVGID_2_)" fill="#1498C3" d="M1.8,33.9c0.4,0.5,0.8,0.9,1.3,1.3c0.4,0.3,0.8,0.6,1.3,0.9
			c0.4,0.2,0.9,0.5,1.3,0.6C6,36.9,6.5,37,6.9,37.1c0.4,0.1,0.9,0.2,1.3,0.2c0.4,0,0.8,0.1,1.1,0.1l0.2,0c0.5,0,0.9,0,1.3-0.1
			c0.4-0.1,0.8-0.1,1.3-0.3c0.4-0.1,0.8-0.3,1.2-0.4c0.4-0.2,0.8-0.4,1.2-0.6c0.4-0.2,0.8-0.5,1.1-0.8c0.4-0.3,0.7-0.7,1.1-1.1
			c0.4-0.4,0.7-0.9,0.9-1.4c0.4-0.8,0.6-1.7,0.6-2.5c0-1.5-0.7-2.8-1.2-3.5c-0.3-0.5-0.8-0.9-1.3-1.4c-0.4-0.3-0.8-0.7-1.3-0.9
			c-0.4-0.3-0.9-0.5-1.3-0.7c-0.4-0.2-0.9-0.3-1.3-0.4c-0.4-0.1-0.9-0.2-1.3-0.2C10.2,23,9.8,23,9.4,23l-0.1,0c-0.4,0-0.9,0-1.3,0.1
			c-0.4,0.1-0.8,0.1-1.3,0.2c-0.4,0.1-0.8,0.3-1.2,0.4c-0.4,0.2-0.8,0.4-1.2,0.6c-0.4,0.2-0.8,0.5-1.1,0.8c-0.4,0.3-0.8,0.7-1.1,1
			c-0.4,0.4-0.7,0.9-0.9,1.4c-0.2,0.3-0.3,0.6-0.4,0.9V32C1,32.6,1.3,33.3,1.8,33.9"/>
	</g>
</g>
<rect x="5.8" y="45.6" transform="matrix(0.9768 -0.2141 0.2141 0.9768 -9.7793 3.9255)" fill="#7EA885" width="14.8" height="3"/>
</svg>
