<?xml version="1.0" encoding="utf-8"?>
<!-- Generator: Adobe Illustrator 15.0.2, SVG Export Plug-In . SVG Version: 6.00 Build 0)  -->
<!DOCTYPE svg PUBLIC "-//W3C//DTD SVG 1.1//EN" "http://www.w3.org/Graphics/SVG/1.1/DTD/svg11.dtd">
<svg version="1.1" id="Layer_1" xmlns="http://www.w3.org/2000/svg" xmlns:xlink="http://www.w3.org/1999/xlink" x="0px" y="0px"
	 width="38.2px" height="69.5px" viewBox="0 0 38.2 69.5" enable-background="new 0 0 38.2 69.5" xml:space="preserve">
<rect x="2.6" y="3.7" fill="#BEBFBE" width="33" height="22"/>
<path fill="#BEBFBE" d="M38.1,4v21.7h0.1V4.4C38.2,4.3,38.2,4.1,38.1,4"/>
<path fill="#A7A5A6" d="M0.7,3.7C0.3,3.7,0,4,0,4.4v21.3h2.6v-22H0.7z"/>
<path fill="#A7A5A6" d="M37.5,3.7h-2v22h2.6V4C38,3.8,37.7,3.7,37.5,3.7"/>
<rect x="2.6" y="24.3" fill="#9C9A9B" width="33" height="1.4"/>
<g opacity="0.6">
	<g>
		<defs>
			<rect id="SVGID_1_" x="2.6" y="3.9" width="0.3" height="21.8"/>
		</defs>
		<clipPath id="SVGID_2_">
			<use xlink:href="#SVGID_1_"  overflow="visible"/>
		</clipPath>
		<path clip-path="url(#SVGID_2_)" fill="#231F20" d="M2.6,3.9c0,0,0,0.3,0,0.9c0,0.6,0.1,1.4,0.1,2.5c0,2,0.1,4.8,0.1,7.5
			c0,2.7-0.1,5.4-0.1,7.5c0,1-0.1,1.9-0.1,2.5c0,0.6,0,0.9,0,0.9h0L2.6,3.9L2.6,3.9z"/>
	</g>
</g>
<g opacity="0.6">
	<g>
		<defs>
			<rect id="SVGID_3_" x="35.3" y="3.9" width="0.3" height="21.8"/>
		</defs>
		<clipPath id="SVGID_4_">
			<use xlink:href="#SVGID_3_"  overflow="visible"/>
		</clipPath>
		<path clip-path="url(#SVGID_4_)" fill="#231F20" d="M35.5,3.9v21.8h0c0,0,0-0.3,0-0.9c0-0.6-0.1-1.4-0.1-2.5c0-2-0.1-4.8-0.1-7.5
			c0-2.7,0.1-5.4,0.1-7.5c0-1,0.1-1.9,0.1-2.5C35.5,4.2,35.5,3.9,35.5,3.9L35.5,3.9z"/>
	</g>
</g>
<path fill="#E9E9E9" d="M3.8,25c0,0.1-0.1,0.2-0.2,0.2c-0.1,0-0.2-0.1-0.2-0.2c0-0.1,0.1-0.2,0.2-0.2C3.7,24.8,3.8,24.9,3.8,25"/>
<path fill="#7B7979" d="M3.7,24.8c0,0,0.1,0.1,0.1,0.1c0,0.1-0.1,0.2-0.2,0.2c-0.1,0-0.1,0-0.1-0.1c0,0.1,0.1,0.1,0.2,0.1
	c0.1,0,0.2-0.1,0.2-0.2C3.8,24.9,3.8,24.9,3.7,24.8"/>
<path fill="#E9E9E9" d="M6,25c0,0.1-0.1,0.2-0.2,0.2c-0.1,0-0.2-0.1-0.2-0.2c0-0.1,0.1-0.2,0.2-0.2C5.9,24.8,6,24.9,6,25"/>
<path fill="#7B7979" d="M5.9,24.8C6,24.8,6,24.9,6,25c0,0.1-0.1,0.2-0.2,0.2c-0.1,0-0.1,0-0.1-0.1c0,0.1,0.1,0.1,0.2,0.1
	C5.9,25.2,6,25.1,6,25C6,24.9,6,24.9,5.9,24.8"/>
<path fill="#E9E9E9" d="M8.3,25c0,0.1-0.1,0.2-0.2,0.2c-0.1,0-0.2-0.1-0.2-0.2c0-0.1,0.1-0.2,0.2-0.2C8.2,24.8,8.3,24.9,8.3,25"/>
<path fill="#7B7979" d="M8.2,24.8c0,0,0.1,0.1,0.1,0.1c0,0.1-0.1,0.2-0.2,0.2c-0.1,0-0.1,0-0.1-0.1c0,0.1,0.1,0.1,0.2,0.1
	c0.1,0,0.2-0.1,0.2-0.2C8.3,24.9,8.2,24.9,8.2,24.8"/>
<path fill="#E9E9E9" d="M10.5,25c0,0.1-0.1,0.2-0.2,0.2c-0.1,0-0.2-0.1-0.2-0.2c0-0.1,0.1-0.2,0.2-0.2C10.4,24.8,10.5,24.9,10.5,25"
	/>
<path fill="#7B7979" d="M10.4,24.8c0,0,0.1,0.1,0.1,0.1c0,0.1-0.1,0.2-0.2,0.2c-0.1,0-0.1,0-0.1-0.1c0,0.1,0.1,0.1,0.2,0.1
	c0.1,0,0.2-0.1,0.2-0.2C10.5,24.9,10.5,24.9,10.4,24.8"/>
<path fill="#E9E9E9" d="M12.7,25c0,0.1-0.1,0.2-0.2,0.2c-0.1,0-0.2-0.1-0.2-0.2c0-0.1,0.1-0.2,0.2-0.2C12.6,24.8,12.7,24.9,12.7,25"
	/>
<path fill="#7B7979" d="M12.6,24.8c0,0,0.1,0.1,0.1,0.1c0,0.1-0.1,0.2-0.2,0.2c-0.1,0-0.1,0-0.1-0.1c0,0.1,0.1,0.1,0.2,0.1
	c0.1,0,0.2-0.1,0.2-0.2C12.7,24.9,12.7,24.9,12.6,24.8"/>
<path fill="#E9E9E9" d="M15,25c0,0.1-0.1,0.2-0.2,0.2c-0.1,0-0.2-0.1-0.2-0.2c0-0.1,0.1-0.2,0.2-0.2C14.9,24.8,15,24.9,15,25"/>
<path fill="#7B7979" d="M14.9,24.8c0,0,0.1,0.1,0.1,0.1c0,0.1-0.1,0.2-0.2,0.2c-0.1,0-0.1,0-0.1-0.1c0,0.1,0.1,0.1,0.2,0.1
	c0.1,0,0.2-0.1,0.2-0.2C15,24.9,14.9,24.9,14.9,24.8"/>
<path fill="#E9E9E9" d="M17.2,25c0,0.1-0.1,0.2-0.2,0.2c-0.1,0-0.2-0.1-0.2-0.2c0-0.1,0.1-0.2,0.2-0.2C17.1,24.8,17.2,24.9,17.2,25"
	/>
<path fill="#7B7979" d="M17.1,24.8c0,0,0.1,0.1,0.1,0.1c0,0.1-0.1,0.2-0.2,0.2c-0.1,0-0.1,0-0.1-0.1c0,0.1,0.1,0.1,0.2,0.1
	c0.1,0,0.2-0.1,0.2-0.2C17.2,24.9,17.2,24.9,17.1,24.8"/>
<path fill="#E9E9E9" d="M19.4,25c0,0.1-0.1,0.2-0.2,0.2c-0.1,0-0.2-0.1-0.2-0.2c0-0.1,0.1-0.2,0.2-0.2C19.3,24.8,19.4,24.9,19.4,25"
	/>
<path fill="#7B7979" d="M19.3,24.8c0,0,0.1,0.1,0.1,0.1c0,0.1-0.1,0.2-0.2,0.2c-0.1,0-0.1,0-0.1-0.1c0,0.1,0.1,0.1,0.2,0.1
	c0.1,0,0.2-0.1,0.2-0.2C19.4,24.9,19.4,24.9,19.3,24.8"/>
<path fill="#E9E9E9" d="M21.7,25c0,0.1-0.1,0.2-0.2,0.2s-0.2-0.1-0.2-0.2c0-0.1,0.1-0.2,0.2-0.2S21.7,24.9,21.7,25"/>
<path fill="#7B7979" d="M21.6,24.8c0,0,0.1,0.1,0.1,0.1c0,0.1-0.1,0.2-0.2,0.2c-0.1,0-0.1,0-0.1-0.1c0,0.1,0.1,0.1,0.2,0.1
	c0.1,0,0.2-0.1,0.2-0.2C21.7,24.9,21.6,24.9,21.6,24.8"/>
<path fill="#E9E9E9" d="M23.9,25c0,0.1-0.1,0.2-0.2,0.2c-0.1,0-0.2-0.1-0.2-0.2c0-0.1,0.1-0.2,0.2-0.2C23.8,24.8,23.9,24.9,23.9,25"
	/>
<path fill="#7B7979" d="M23.8,24.8c0,0,0.1,0.1,0.1,0.1c0,0.1-0.1,0.2-0.2,0.2c-0.1,0-0.1,0-0.1-0.1c0,0.1,0.1,0.1,0.2,0.1
	c0.1,0,0.2-0.1,0.2-0.2C23.9,24.9,23.9,24.9,23.8,24.8"/>
<path fill="#E9E9E9" d="M26.1,25c0,0.1-0.1,0.2-0.2,0.2c-0.1,0-0.2-0.1-0.2-0.2c0-0.1,0.1-0.2,0.2-0.2C26,24.8,26.1,24.9,26.1,25"/>
<path fill="#7B7979" d="M26,24.8c0,0,0.1,0.1,0.1,0.1c0,0.1-0.1,0.2-0.2,0.2c-0.1,0-0.1,0-0.1-0.1c0,0.1,0.1,0.1,0.2,0.1
	c0.1,0,0.2-0.1,0.2-0.2C26.1,24.9,26.1,24.9,26,24.8"/>
<path fill="#E9E9E9" d="M28.4,25c0,0.1-0.1,0.2-0.2,0.2c-0.1,0-0.2-0.1-0.2-0.2c0-0.1,0.1-0.2,0.2-0.2C28.3,24.8,28.4,24.9,28.4,25"
	/>
<path fill="#7B7979" d="M28.3,24.8c0,0,0.1,0.1,0.1,0.1c0,0.1-0.1,0.2-0.2,0.2c-0.1,0-0.1,0-0.1-0.1c0,0.1,0.1,0.1,0.2,0.1
	c0.1,0,0.2-0.1,0.2-0.2C28.4,24.9,28.3,24.9,28.3,24.8"/>
<path fill="#E9E9E9" d="M30.6,25c0,0.1-0.1,0.2-0.2,0.2c-0.1,0-0.2-0.1-0.2-0.2c0-0.1,0.1-0.2,0.2-0.2C30.5,24.8,30.6,24.9,30.6,25"
	/>
<path fill="#7B7979" d="M30.5,24.8c0,0,0.1,0.1,0.1,0.1c0,0.1-0.1,0.2-0.2,0.2c-0.1,0-0.1,0-0.1-0.1c0,0.1,0.1,0.1,0.2,0.1
	c0.1,0,0.2-0.1,0.2-0.2C30.6,24.9,30.6,24.9,30.5,24.8"/>
<path fill="#E9E9E9" d="M32.8,25c0,0.1-0.1,0.2-0.2,0.2c-0.1,0-0.2-0.1-0.2-0.2c0-0.1,0.1-0.2,0.2-0.2C32.7,24.8,32.8,24.9,32.8,25"
	/>
<path fill="#7B7979" d="M32.7,24.8c0,0,0.1,0.1,0.1,0.1c0,0.1-0.1,0.2-0.2,0.2c-0.1,0-0.1,0-0.1-0.1c0,0.1,0.1,0.1,0.2,0.1
	c0.1,0,0.2-0.1,0.2-0.2C32.8,24.9,32.8,24.9,32.7,24.8"/>
<path fill="#E9E9E9" d="M35.1,25c0,0.1-0.1,0.2-0.2,0.2c-0.1,0-0.2-0.1-0.2-0.2c0-0.1,0.1-0.2,0.2-0.2C35,24.8,35.1,24.9,35.1,25"/>
<path fill="#7B7979" d="M35,24.8c0,0,0.1,0.1,0.1,0.1c0,0.1-0.1,0.2-0.2,0.2c-0.1,0-0.1,0-0.1-0.1c0,0.1,0.1,0.1,0.2,0.1
	c0.1,0,0.2-0.1,0.2-0.2C35.1,24.9,35,24.9,35,24.8"/>
<g opacity="0.4">
	<g>
		<defs>
			<rect id="SVGID_5_" x="2.6" y="3.7" width="33" height="7.7"/>
		</defs>
		<clipPath id="SVGID_6_">
			<use xlink:href="#SVGID_5_"  overflow="visible"/>
		</clipPath>
		<rect x="2.6" y="3.7" clip-path="url(#SVGID_6_)" fill="#E7E6E7" width="33" height="1.5"/>
		<rect x="2.6" y="5.2" clip-path="url(#SVGID_6_)" fill="#D5D4D5" width="33" height="2.3"/>
		<rect x="2.6" y="7.5" clip-path="url(#SVGID_6_)" fill="#A7A5A6" width="33" height="3.9"/>
	</g>
</g>
<polygon fill="#C2494D" points="7,2.5 11.7,2.5 11.7,0 5.1,0 5.1,14.2 7,14.2 "/>
<rect x="4" y="12.9" fill="#4B4748" width="5.3" height="5.3"/>
<rect x="15.8" y="25.7" fill="#7B6343" width="6.5" height="1.4"/>
<g>
	<g>
		<defs>
			<rect id="SVGID_7_" x="15.8" y="25.7" width="6.5" height="0.7"/>
		</defs>
		<clipPath id="SVGID_8_">
			<use xlink:href="#SVGID_7_"  overflow="visible"/>
		</clipPath>
		<polygon clip-path="url(#SVGID_8_)" fill="#7B6343" points="15.8,25.7 15.8,26.4 22.3,25.7 		"/>
	</g>
</g>
<rect x="17.4" y="27.1" fill="#7B6343" width="3.3" height="42.4"/>
<g opacity="0.4">
	<g>
		<defs>
			<rect id="SVGID_9_" x="17.4" y="27.1" width="3.3" height="42.4"/>
		</defs>
		<clipPath id="SVGID_10_">
			<use xlink:href="#SVGID_9_"  overflow="visible"/>
		</clipPath>
		<rect x="17.4" y="27.1" clip-path="url(#SVGID_10_)" fill="#7B6343" width="0.7" height="42.4"/>
		<rect x="20" y="27.1" clip-path="url(#SVGID_10_)" fill="#7B6343" width="0.7" height="42.4"/>
	</g>
</g>
<g>
	<g>
		<defs>
			<rect id="SVGID_11_" x="17.4" y="27.1" width="3.3" height="0.4"/>
		</defs>
		<clipPath id="SVGID_12_">
			<use xlink:href="#SVGID_11_"  overflow="visible"/>
		</clipPath>
		<path clip-path="url(#SVGID_12_)" fill="#7B6343" d="M17.4,27.1c0,0,0.8,0,1.6,0c0.8,0,1.6,0,1.6,0v0c0,0-0.2,0.1-0.5,0.2
			c-0.2,0-0.3,0.1-0.5,0.1c-0.2,0-0.4,0-0.6,0c-0.2,0-0.4,0-0.6,0c-0.2,0-0.4-0.1-0.5-0.1C17.6,27.2,17.4,27.1,17.4,27.1L17.4,27.1z
			"/>
	</g>
</g>
</svg>
