<?xml version="1.0" encoding="utf-8"?>
<!-- Generator: Adobe Illustrator 15.0.2, SVG Export Plug-In . SVG Version: 6.00 Build 0)  -->
<!DOCTYPE svg PUBLIC "-//W3C//DTD SVG 1.1//EN" "http://www.w3.org/Graphics/SVG/1.1/DTD/svg11.dtd">
<svg version="1.1" id="Layer_1" xmlns="http://www.w3.org/2000/svg" xmlns:xlink="http://www.w3.org/1999/xlink" x="0px" y="0px"
	 width="77.1px" height="41.7px" viewBox="0 0 77.1 41.7" enable-background="new 0 0 77.1 41.7" xml:space="preserve">
<path fill="#C78962" d="M77.1,20.8c0-0.2,0-0.4,0-0.6C69,8.1,54.7,0,38.5,0C22.3,0,8.1,8,0.1,20C0,20.2,0,20.5,0,20.8s0,0.6,0.1,0.9
	c8,12,22.2,19.9,38.4,19.9c16.3,0,30.5-8.1,38.6-20.2C77,21.3,77.1,21,77.1,20.8"/>
<path fill="none" stroke="#231F20" stroke-width="0.155" stroke-miterlimit="10" d="M0.1,21.4c8,7.3,22.2,12.2,38.4,12.2
	c16.3,0,30.5-4.9,38.6-12.3"/>
<path fill="none" stroke="#231F20" stroke-width="0.155" stroke-miterlimit="10" d="M77,20.4C69,13.1,54.7,8.1,38.5,8.1
	C22.3,8.1,8.1,13,0.1,20.3"/>
<path fill="#FFFFFF" d="M11.7,8.2v25.2c2.4,1.6,4.9,3.1,7.6,4.2V4C16.6,5.2,14.1,6.6,11.7,8.2"/>
<path fill="#FFFFFF" d="M57.7,4v33.6c2.7-1.2,5.3-2.6,7.6-4.3v-25C63,6.7,60.4,5.2,57.7,4"/>
<g opacity="0.3">
	<g>
		<defs>
			<rect id="SVGID_1_" width="77.1" height="41.7"/>
		</defs>
		<clipPath id="SVGID_2_">
			<use xlink:href="#SVGID_1_"  overflow="visible"/>
		</clipPath>
		<g clip-path="url(#SVGID_2_)">
			<g>
				<defs>
					<rect id="SVGID_3_" y="20.8" width="77.1" height="20.8"/>
				</defs>
				<clipPath id="SVGID_4_">
					<use xlink:href="#SVGID_3_"  overflow="visible"/>
				</clipPath>
				<path clip-path="url(#SVGID_4_)" fill="#C78962" d="M77,21.4c-8,10.9-22.3,18.2-38.6,18.2c-16.2,0-30.4-7.2-38.4-18
					C0,21.4,0,21.1,0,20.8c0,0.3,0,0.6,0.1,0.9c8,12,22.2,20,38.4,20C54.7,41.7,69,33.6,77,21.4c0-0.1,0-0.4,0-0.6
					C77.1,21,77,21.2,77,21.4"/>
			</g>
		</g>
		<g clip-path="url(#SVGID_2_)">
			<g>
				<defs>
					<rect id="SVGID_5_" width="77.1" height="20.8"/>
				</defs>
				<clipPath id="SVGID_6_">
					<use xlink:href="#SVGID_5_"  overflow="visible"/>
				</clipPath>
				<path clip-path="url(#SVGID_6_)" fill="#C78962" d="M38.5,2C54.7,2,69,9.3,77,20.3c0,0.2,0,0.4,0,0.6c0-0.2,0-0.4,0-0.6
					C69,8.1,54.7,0,38.5,0C22.3,0,8.1,8,0.1,20C0,20.2,0,20.5,0,20.8c0-0.3,0-0.5,0.1-0.8C8.1,9.2,22.3,2,38.5,2"/>
			</g>
		</g>
		<g opacity="0.5" clip-path="url(#SVGID_2_)">
			<g>
				<defs>
					<rect id="SVGID_7_" y="20.8" width="77.1" height="18.8"/>
				</defs>
				<clipPath id="SVGID_8_">
					<use xlink:href="#SVGID_7_"  overflow="visible"/>
				</clipPath>
				<path clip-path="url(#SVGID_8_)" fill="#C78962" d="M38.5,39.6c16.3,0,30.5-7.3,38.6-18.2c0-0.2,0-0.4,0-0.6c0,0.1,0,0.2,0,0.3
					c-8,4.8-22.3,8.1-38.6,8.1c-16.2,0-30.4-3.2-38.4-8C0,21.1,0,20.9,0,20.8c0,0.3,0,0.5,0.1,0.8C8.1,32.4,22.3,39.6,38.5,39.6"/>
			</g>
		</g>
		<g opacity="0.5" clip-path="url(#SVGID_2_)">
			<g>
				<defs>
					<rect id="SVGID_9_" y="2" width="77.1" height="18.8"/>
				</defs>
				<clipPath id="SVGID_10_">
					<use xlink:href="#SVGID_9_"  overflow="visible"/>
				</clipPath>
				<path clip-path="url(#SVGID_10_)" fill="#C78962" d="M38.5,12.5c16.3,0,30.5,3.2,38.6,8.1c0,0.1,0,0.2,0,0.3c0-0.2,0-0.4,0-0.6
					C69,9.3,54.7,2,38.5,2C22.3,2,8.1,9.2,0.1,20C0,20.3,0,20.6,0,20.8c0-0.1,0-0.2,0.1-0.4C8.1,15.7,22.3,12.5,38.5,12.5"/>
			</g>
		</g>
	</g>
</g>
<path fill="none" stroke="#FFFFFF" stroke-width="3.091" stroke-linecap="round" stroke-miterlimit="10" d="M52.8,9.5
	c-4.5-0.9-9.3-1.3-14.3-1.3s-9.8,0.5-14.3,1.3"/>
<path fill="none" stroke="#231F20" stroke-width="0.309" stroke-linecap="round" stroke-miterlimit="10" d="M48.4,8.5
	c-3.2-0.4-6.5-0.6-9.9-0.6S31.8,8,28.6,8.5"/>
<path fill="none" stroke="#E9E9E9" stroke-width="0.927" stroke-linecap="round" stroke-miterlimit="10" d="M26,11.2
	c-0.6-0.4-0.8-1.3-0.9-1.9c0-0.5,0.2-1.6,0.6-1.9"/>
<path fill="none" stroke="#E9E9E9" stroke-width="0.927" stroke-linecap="round" stroke-miterlimit="10" d="M28.4,10.7
	c-0.6-0.4-0.8-1.3-0.9-1.9c0-0.5,0.2-1.6,0.6-1.9"/>
<path fill="none" stroke="#E9E9E9" stroke-width="0.927" stroke-linecap="round" stroke-miterlimit="10" d="M30.8,10.6
	c-0.6-0.4-0.9-1.3-0.9-1.9c0-0.5,0.2-1.6,0.6-1.9"/>
<path fill="none" stroke="#E9E9E9" stroke-width="0.927" stroke-linecap="round" stroke-miterlimit="10" d="M33.1,10.2
	c-0.4-0.4-0.6-1.3-0.7-1.9c0-0.5,0.2-1.6,0.5-1.9"/>
<path fill="none" stroke="#E9E9E9" stroke-width="0.927" stroke-linecap="round" stroke-miterlimit="10" d="M35.3,10.2
	c-0.3-0.4-0.4-1.3-0.5-1.9c0-0.5,0.1-1.6,0.3-1.9"/>
<path fill="none" stroke="#E9E9E9" stroke-width="0.927" stroke-linecap="round" stroke-miterlimit="10" d="M51,11.2
	c0.6-0.4,0.8-1.3,0.9-1.9c0-0.5-0.2-1.6-0.6-1.9"/>
<path fill="none" stroke="#E9E9E9" stroke-width="0.927" stroke-linecap="round" stroke-miterlimit="10" d="M48.6,10.7
	c0.6-0.4,0.8-1.3,0.9-1.9c0-0.5-0.2-1.6-0.6-1.9"/>
<path fill="none" stroke="#E9E9E9" stroke-width="0.927" stroke-linecap="round" stroke-miterlimit="10" d="M46.2,10.6
	c0.6-0.4,0.9-1.3,0.9-1.9c0-0.5-0.2-1.6-0.6-1.9"/>
<path fill="none" stroke="#E9E9E9" stroke-width="0.927" stroke-linecap="round" stroke-miterlimit="10" d="M44,10.2
	c0.4-0.4,0.6-1.3,0.7-1.9c0-0.5-0.2-1.6-0.5-1.9"/>
<path fill="none" stroke="#E9E9E9" stroke-width="0.927" stroke-linecap="round" stroke-miterlimit="10" d="M41.7,10.2
	c0.3-0.4,0.4-1.3,0.5-1.9c0-0.5-0.1-1.6-0.3-1.9"/>
<line fill="none" stroke="#E9E9E9" stroke-width="0.927" stroke-linecap="round" stroke-miterlimit="10" x1="37.3" y1="6.4" x2="37.3" y2="10.2"/>
<line fill="none" stroke="#E9E9E9" stroke-width="0.927" stroke-linecap="round" stroke-miterlimit="10" x1="39.7" y1="6.4" x2="39.7" y2="10.2"/>
</svg>
