<?xml version="1.0" encoding="utf-8"?>
<!-- Generator: Adobe Illustrator 15.0.2, SVG Export Plug-In . SVG Version: 6.00 Build 0)  -->
<!DOCTYPE svg PUBLIC "-//W3C//DTD SVG 1.1//EN" "http://www.w3.org/Graphics/SVG/1.1/DTD/svg11.dtd">
<svg version="1.1" id="Layer_1" xmlns="http://www.w3.org/2000/svg" xmlns:xlink="http://www.w3.org/1999/xlink" x="0px" y="0px"
	 width="50.2px" height="60.6px" viewBox="0 0 50.2 60.6" enable-background="new 0 0 50.2 60.6" xml:space="preserve">
<path fill="#C8C7C7" d="M0.9,34c0-0.1,0-0.2,0-0.2c-2.9,6.9,2.7,14.5,2.7,14.5c0.6-0.8,2.3-0.7,2.3-0.7S1.7,45.2,0.9,34"/>
<path fill="#C82257" d="M0.8,33.8C0.8,33.8,0.8,33.8,0.8,33.8c0,0,0,0,0,0.1C0.9,33.9,0.9,33.9,0.8,33.8"/>
<path fill="#A7A5A6" d="M20.3,55.2C5,51.5,1.2,35.8,0.9,34c0.9,11.3,5,13.6,5,13.6c4.7,8.3,16.3,11.3,17.5,11.7
	c1.2,0.4,1.8,1.3,1.8,1.3C25.1,56,20.3,55.2,20.3,55.2"/>
<path fill="#C8C7C7" d="M22.3,15.3v3.4H4.4v3.5h17.8c0,0-0.5,21.3-0.5,25.6c0,4.3-4.2,3.2-4.2,3.2c-6.2-2-7.1-4.5-7.1-6s1.3-3,1.3-3
	c-4.8-1.3-10.4-7.8-10.8-8.3c0,0,0,0.1,0,0.1C1.2,35.8,5,51.5,20.3,55.1c0,0,4.8,0.8,4.8,5.4v-48L22.3,15.3z"/>
<path fill="#A7A5A6" d="M22.2,18.8c0.4,0,0.6,0.4,0.7,0.7c0.1,0.3,0.1,0.7,0.2,1c0,0.3,0,0.7-0.2,1c-0.1,0.3-0.3,0.7-0.7,0.7
	c0.2,0,0.3-0.2,0.3-0.3c0.1-0.1,0.1-0.3,0.2-0.5c0.1-0.3,0.1-0.6,0.1-1c0-0.3,0-0.7-0.1-1c0-0.2-0.1-0.3-0.2-0.5
	C22.5,18.9,22.4,18.8,22.2,18.8"/>
<path fill="#A7A5A6" d="M5.2,20.5c0,1-0.4,1.8-0.9,1.8c-0.5,0-0.9-0.8-0.9-1.8s0.4-1.8,0.9-1.8C4.9,18.8,5.2,19.5,5.2,20.5"/>
<path fill="#C8C7C7" d="M49.3,34c0-0.1,0-0.2,0-0.2c2.9,6.9-2.7,14.5-2.7,14.5c-0.6-0.8-2.3-0.7-2.3-0.7S48.4,45.2,49.3,34"/>
<path fill="#C82257" d="M49.3,33.8C49.3,33.8,49.3,33.8,49.3,33.8c0,0,0,0,0,0.1C49.3,33.9,49.3,33.9,49.3,33.8"/>
<path fill="#9C9A9B" d="M29.9,55.2c15.2-3.7,19-19.4,19.4-21.2c-0.9,11.3-5,13.6-5,13.6c-4.7,8.3-16.3,11.3-17.5,11.7
	s-1.8,1.3-1.8,1.3C25.1,56,29.9,55.2,29.9,55.2"/>
<path fill="#BDBCBC" d="M27.9,15.3v3.4h17.9v3.5H27.9c0,0,0.5,21.3,0.5,25.6c0,4.3,4.2,3.2,4.2,3.2c6.2-2,7.1-4.5,7.1-6
	s-1.3-3-1.3-3c4.8-1.3,10.4-7.8,10.8-8.3c0,0,0,0.1,0,0.1c-0.4,1.8-4.2,17.5-19.4,21.2c0,0-4.8,0.8-4.8,5.4v-48L27.9,15.3z"/>
<path fill="#A7A5A6" d="M28,18.8c-0.2,0-0.3,0.2-0.3,0.3c-0.1,0.1-0.1,0.3-0.2,0.5c-0.1,0.3-0.1,0.7-0.1,1c0,0.3,0,0.7,0.1,1
	c0,0.2,0.1,0.3,0.2,0.5c0.1,0.1,0.2,0.3,0.3,0.3c-0.4,0-0.6-0.4-0.7-0.7c-0.1-0.3-0.1-0.7-0.2-1c0-0.4,0-0.7,0.2-1
	C27.4,19.2,27.6,18.8,28,18.8"/>
<path fill="#A7A5A6" d="M44.9,20.5c0,1,0.4,1.8,0.9,1.8c0.5,0,0.9-0.8,0.9-1.8s-0.4-1.8-0.9-1.8C45.3,18.8,44.9,19.5,44.9,20.5"/>
<path fill="#C8C7C7" d="M25.1,15.9c-4.4,0-7.9-3.6-7.9-7.9c0-4.4,3.6-7.9,7.9-7.9S33,3.6,33,7.9C33,12.3,29.5,15.9,25.1,15.9
	 M25.1,3.9c-2.2,0-4,1.8-4,4c0,2.2,1.8,4,4,4s4-1.8,4-4C29.1,5.7,27.3,3.9,25.1,3.9"/>
<g opacity="0.7">
	<g>
		<defs>
			<rect id="SVGID_1_" x="19.1" y="2" width="12" height="12"/>
		</defs>
		<clipPath id="SVGID_2_">
			<use xlink:href="#SVGID_1_"  overflow="visible"/>
		</clipPath>
		<g clip-path="url(#SVGID_2_)">
			<g>
				<defs>
					<rect id="SVGID_3_" x="19.1" y="7.9" width="12" height="6"/>
				</defs>
				<clipPath id="SVGID_4_">
					<use xlink:href="#SVGID_3_"  overflow="visible"/>
				</clipPath>
				<path clip-path="url(#SVGID_4_)" fill="#A7A5A6" d="M25.1,12c-2.2,0-4-1.8-4-4h-2c0,3.3,2.7,6,6,6c3.3,0,6-2.7,6-6h-2
					C29.1,10.2,27.3,12,25.1,12"/>
			</g>
		</g>
		<g clip-path="url(#SVGID_2_)">
			<g>
				<defs>
					<rect id="SVGID_5_" x="19.1" y="2" width="12" height="6"/>
				</defs>
				<clipPath id="SVGID_6_">
					<use xlink:href="#SVGID_5_"  overflow="visible"/>
				</clipPath>
				<path clip-path="url(#SVGID_6_)" fill="#A7A5A6" d="M25.1,2c-3.3,0-6,2.7-6,6h2c0-2.2,1.8-4,4-4s4,1.8,4,4h2
					C31.1,4.6,28.4,2,25.1,2"/>
			</g>
		</g>
	</g>
</g>
</svg>
