<?xml version="1.0" encoding="utf-8"?>
<!-- Generator: Adobe Illustrator 15.0.2, SVG Export Plug-In . SVG Version: 6.00 Build 0)  -->
<!DOCTYPE svg PUBLIC "-//W3C//DTD SVG 1.1//EN" "http://www.w3.org/Graphics/SVG/1.1/DTD/svg11.dtd">
<svg version="1.1" id="Layer_1" xmlns="http://www.w3.org/2000/svg" xmlns:xlink="http://www.w3.org/1999/xlink" x="0px" y="0px"
	 width="46.4px" height="80.6px" viewBox="0 0 46.4 80.6" enable-background="new 0 0 46.4 80.6" xml:space="preserve">
<path fill="#DEDDDE" d="M29.8,71.1c0,0.4-0.3,0.6-0.7,0.6c-0.4,0-0.6-0.3-0.6-0.7l0.6-9.8c0-0.4,0.3-0.6,0.7-0.6
	c0.4,0,0.6,0.3,0.6,0.7L29.8,71.1z"/>
<path fill="#BDBCBC" d="M32.1,63.6c0,0.1-0.1,0.1-0.2,0.1l-1.5-0.3c-0.1,0-0.1-0.1-0.1-0.1c0-0.1,0.1-0.1,0.2-0.1l1.5,0.3
	C32.1,63.5,32.1,63.5,32.1,63.6"/>
<path fill="#BDBCBC" d="M32.1,63.9c0,0.1-0.1,0.1-0.2,0.1l-1.5-0.3c-0.1,0-0.1-0.1-0.1-0.1c0-0.1,0.1-0.1,0.2-0.1l1.5,0.3
	C32,63.8,32.1,63.8,32.1,63.9"/>
<path fill="#BDBCBC" d="M32,64.2c0,0.1-0.1,0.1-0.2,0.1L30.3,64c-0.1,0-0.1-0.1-0.1-0.1c0-0.1,0.1-0.1,0.2-0.1l1.5,0.3
	C32,64.1,32,64.2,32,64.2"/>
<path fill="#BDBCBC" d="M31.9,64.5c0,0.1-0.1,0.1-0.2,0.1l-1.5-0.3c-0.1,0-0.1-0.1-0.1-0.1c0-0.1,0.1-0.1,0.2-0.1l1.5,0.3
	C31.9,64.4,32,64.5,31.9,64.5"/>
<path fill="#BDBCBC" d="M31.9,64.9c0,0.1-0.1,0.1-0.2,0.1l-1.5-0.3c-0.1,0-0.1-0.1-0.1-0.1c0-0.1,0.1-0.1,0.2-0.1l1.5,0.3
	C31.8,64.7,31.9,64.8,31.9,64.9"/>
<path fill="#BDBCBC" d="M31.8,65.2c0,0.1-0.1,0.1-0.2,0.1L30.1,65c-0.1,0-0.1-0.1-0.1-0.1c0-0.1,0.1-0.1,0.2-0.1l1.5,0.3
	C31.8,65,31.8,65.1,31.8,65.2"/>
<path fill="#BDBCBC" d="M31.7,65.5c0,0.1-0.1,0.1-0.2,0.1l-1.5-0.3c-0.1,0-0.1-0.1-0.1-0.1c0-0.1,0.1-0.1,0.2-0.1l1.5,0.3
	C31.7,65.4,31.8,65.4,31.7,65.5"/>
<path fill="#BDBCBC" d="M31.7,65.8c0,0.1-0.1,0.1-0.2,0.1L30,65.6c-0.1,0-0.1-0.1-0.1-0.1c0-0.1,0.1-0.1,0.2-0.1l1.5,0.3
	C31.6,65.7,31.7,65.7,31.7,65.8"/>
<path fill="#BDBCBC" d="M31.6,66.1c0,0.1-0.1,0.1-0.2,0.1l-1.5-0.3c-0.1,0-0.1-0.1-0.1-0.1c0-0.1,0.1-0.1,0.2-0.1l1.5,0.3
	C31.6,66,31.6,66.1,31.6,66.1"/>
<path fill="#BDBCBC" d="M31.6,66.4c0,0.1-0.1,0.1-0.2,0.1l-1.5-0.3c-0.1,0-0.1-0.1-0.1-0.1c0-0.1,0.1-0.1,0.2-0.1l1.5,0.3
	C31.5,66.3,31.6,66.4,31.6,66.4"/>
<path fill="#BDBCBC" d="M31.5,66.8c0,0.1-0.1,0.1-0.2,0.1l-1.5-0.3c-0.1,0-0.1-0.1-0.1-0.1c0-0.1,0.1-0.1,0.2-0.1l1.5,0.3
	C31.5,66.6,31.5,66.7,31.5,66.8"/>
<path fill="#BDBCBC" d="M31.4,67.1c0,0.1-0.1,0.1-0.2,0.1l-1.5-0.3c-0.1,0-0.1-0.1-0.1-0.1c0-0.1,0.1-0.1,0.2-0.1l1.5,0.3
	C31.4,66.9,31.4,67,31.4,67.1"/>
<path fill="#BDBCBC" d="M31.4,67.4c0,0.1-0.1,0.1-0.2,0.1l-1.5-0.3c-0.1,0-0.1-0.1-0.1-0.1c0-0.1,0.1-0.1,0.2-0.1l1.5,0.3
	C31.3,67.3,31.4,67.3,31.4,67.4"/>
<path fill="#BDBCBC" d="M31.3,67.7c0,0.1-0.1,0.1-0.2,0.1l-1.5-0.3c-0.1,0-0.1-0.1-0.1-0.1c0-0.1,0.1-0.1,0.2-0.1l1.5,0.3
	C31.3,67.6,31.3,67.6,31.3,67.7"/>
<path fill="#BDBCBC" d="M31.2,68c0,0.1-0.1,0.1-0.2,0.1l-1.5-0.3c-0.1,0-0.1-0.1-0.1-0.1c0-0.1,0.1-0.1,0.2-0.1l1.5,0.3
	C31.2,67.9,31.2,68,31.2,68"/>
<path fill="#BDBCBC" d="M31.2,68.3c0,0.1-0.1,0.1-0.2,0.1l-1.5-0.3c-0.1,0-0.1-0.1-0.1-0.1c0-0.1,0.1-0.1,0.2-0.1l1.5,0.3
	C31.1,68.2,31.2,68.3,31.2,68.3"/>
<path fill="#BDBCBC" d="M31.1,68.6c0,0.1-0.1,0.1-0.2,0.1l-1.5-0.3c-0.1,0-0.1-0.1-0.1-0.1c0-0.1,0.1-0.1,0.2-0.1l1.5,0.3
	C31.1,68.5,31.1,68.6,31.1,68.6"/>
<path fill="#BDBCBC" d="M31,69c0,0.1-0.1,0.1-0.2,0.1l-1.5-0.3c-0.1,0-0.1-0.1-0.1-0.1c0-0.1,0.1-0.1,0.2-0.1l1.5,0.3
	C31,68.8,31.1,68.9,31,69"/>
<path fill="#BDBCBC" d="M31,69.3c0,0.1-0.1,0.1-0.2,0.1l-1.5-0.3c-0.1,0-0.1-0.1-0.1-0.1c0-0.1,0.1-0.1,0.2-0.1l1.5,0.3
	C30.9,69.2,31,69.2,31,69.3"/>
<path fill="#BDBCBC" d="M30.9,69.6c0,0.1-0.1,0.1-0.2,0.1l-1.5-0.3c-0.1,0-0.1-0.1-0.1-0.1c0-0.1,0.1-0.1,0.2-0.1l1.5,0.3
	C30.9,69.5,30.9,69.5,30.9,69.6"/>
<path fill="#BDBCBC" d="M30.9,69.9c0,0.1-0.1,0.1-0.2,0.1l-1.5-0.3c-0.1,0-0.1-0.1-0.1-0.1c0-0.1,0.1-0.1,0.2-0.1l1.5,0.3
	C30.8,69.8,30.9,69.8,30.9,69.9"/>
<path fill="#BDBCBC" d="M30.8,70.2c0,0.1-0.1,0.1-0.2,0.1L29.1,70C29,70,29,70,29,69.9s0.1-0.1,0.2-0.1l1.5,0.3
	C30.8,70.1,30.8,70.2,30.8,70.2"/>
<path fill="#BDBCBC" d="M30.7,70.5c0,0.1-0.1,0.1-0.2,0.1L29,70.4c-0.1,0-0.1-0.1-0.1-0.1c0-0.1,0.1-0.1,0.2-0.1l1.5,0.3
	C30.7,70.4,30.7,70.5,30.7,70.5"/>
<path fill="#BDBCBC" d="M30.7,70.9c0,0.1-0.1,0.1-0.2,0.1L29,70.7c-0.1,0-0.1-0.1-0.1-0.1c0-0.1,0.1-0.1,0.2-0.1l1.5,0.3
	C30.6,70.7,30.7,70.8,30.7,70.9"/>
<path fill="#BDBCBC" d="M30.6,71.2c0,0.1-0.1,0.1-0.2,0.1L28.9,71c-0.1,0-0.1-0.1-0.1-0.1c0-0.1,0.1-0.1,0.2-0.1l1.5,0.3
	C30.6,71,30.6,71.1,30.6,71.2"/>
<path fill="#BDBCBC" d="M30.5,71.5c0,0.1-0.1,0.1-0.2,0.1l-1.5-0.3c-0.1,0-0.1-0.1-0.1-0.1c0-0.1,0.1-0.1,0.2-0.1l1.5,0.3
	C30.5,71.4,30.5,71.4,30.5,71.5"/>
<path fill="#BDBCBC" d="M30.3,71.8c0,0.1-0.1,0.1-0.2,0.1l-1.3-0.2c-0.1,0-0.1-0.1-0.1-0.1s0.1-0.1,0.2-0.1l1.3,0.2
	C30.3,71.7,30.3,71.7,30.3,71.8"/>
<path fill="#BDBCBC" d="M30.1,72.1c0,0.1-0.1,0.1-0.2,0.1L29,72c-0.1,0-0.1-0.1-0.1-0.1c0-0.1,0.1-0.1,0.2-0.1l1,0.2
	C30.1,71.9,30.2,72,30.1,72.1"/>
<path fill="#BDBCBC" d="M30.5,63c0-0.1,0.1-0.1,0.2-0.1l1.3,0.2c0.1,0,0.1,0.1,0.1,0.1c0,0.1-0.1,0.1-0.2,0.1l-1.3-0.2
	C30.6,63.1,30.5,63,30.5,63"/>
<path fill="#BDBCBC" d="M30.7,62.7c0-0.1,0.1-0.1,0.2-0.1l1,0.2c0.1,0,0.1,0.1,0.1,0.1S31.9,63,31.8,63l-1-0.2
	C30.8,62.8,30.7,62.8,30.7,62.7"/>
<path fill="#DEDDDE" d="M31.9,63.6c0,0.1-0.1,0.1-0.1,0.1l-1.1-0.2c-0.1,0-0.1-0.1-0.1-0.1c0-0.1,0.1-0.1,0.1-0.1l1.1,0.2
	C31.9,63.4,31.9,63.5,31.9,63.6"/>
<path fill="#DEDDDE" d="M31.8,63.9c0,0.1-0.1,0.1-0.1,0.1l-1.1-0.2c-0.1,0-0.1-0.1-0.1-0.1c0-0.1,0.1-0.1,0.1-0.1l1.1,0.2
	C31.8,63.7,31.9,63.8,31.8,63.9"/>
<path fill="#DEDDDE" d="M31.8,64.2c0,0.1-0.1,0.1-0.1,0.1l-1.1-0.2c-0.1,0-0.1-0.1-0.1-0.1c0-0.1,0.1-0.1,0.1-0.1l1.1,0.2
	C31.8,64.1,31.8,64.1,31.8,64.2"/>
<path fill="#DEDDDE" d="M31.7,64.5c0,0.1-0.1,0.1-0.1,0.1l-1.1-0.2c-0.1,0-0.1-0.1-0.1-0.1c0-0.1,0.1-0.1,0.1-0.1l1.1,0.2
	C31.7,64.4,31.7,64.4,31.7,64.5"/>
<path fill="#DEDDDE" d="M31.6,64.8c0,0.1-0.1,0.1-0.1,0.1l-1.1-0.2c-0.1,0-0.1-0.1-0.1-0.1c0-0.1,0.1-0.1,0.1-0.1l1.1,0.2
	C31.6,64.7,31.7,64.8,31.6,64.8"/>
<path fill="#DEDDDE" d="M31.6,65.1c0,0.1-0.1,0.1-0.1,0.1L30.3,65c-0.1,0-0.1-0.1-0.1-0.1s0.1-0.1,0.1-0.1l1.1,0.2
	C31.6,65,31.6,65.1,31.6,65.1"/>
<path fill="#DEDDDE" d="M31.5,65.4c0,0.1-0.1,0.1-0.1,0.1l-1.1-0.2c-0.1,0-0.1-0.1-0.1-0.1c0-0.1,0.1-0.1,0.1-0.1l1.1,0.2
	C31.5,65.3,31.5,65.4,31.5,65.4"/>
<path fill="#DEDDDE" d="M31.5,65.8c0,0.1-0.1,0.1-0.1,0.1l-1.1-0.2c-0.1,0-0.1-0.1-0.1-0.1c0-0.1,0.1-0.1,0.1-0.1l1.1,0.2
	C31.4,65.6,31.5,65.7,31.5,65.8"/>
<path fill="#DEDDDE" d="M31.4,66.1c0,0.1-0.1,0.1-0.1,0.1L30.1,66c-0.1,0-0.1-0.1-0.1-0.1c0-0.1,0.1-0.1,0.1-0.1l1.1,0.2
	C31.4,66,31.4,66,31.4,66.1"/>
<path fill="#DEDDDE" d="M31.3,66.4c0,0.1-0.1,0.1-0.1,0.1l-1.1-0.2c-0.1,0-0.1-0.1-0.1-0.1c0-0.1,0.1-0.1,0.1-0.1l1.1,0.2
	C31.3,66.3,31.3,66.3,31.3,66.4"/>
<path fill="#DEDDDE" d="M31.3,66.7c0,0.1-0.1,0.1-0.1,0.1L30,66.6c-0.1,0-0.1-0.1-0.1-0.1s0.1-0.1,0.1-0.1l1.1,0.2
	C31.2,66.6,31.3,66.6,31.3,66.7"/>
<path fill="#DEDDDE" d="M31.2,67c0,0.1-0.1,0.1-0.1,0.1l-1.1-0.2c-0.1,0-0.1-0.1-0.1-0.1c0-0.1,0.1-0.1,0.1-0.1l1.1,0.2
	C31.2,66.9,31.2,67,31.2,67"/>
<path fill="#DEDDDE" d="M31.1,67.3c0,0.1-0.1,0.1-0.1,0.1l-1.1-0.2c-0.1,0-0.1-0.1-0.1-0.1c0-0.1,0.1-0.1,0.1-0.1l1.1,0.2
	C31.1,67.2,31.2,67.3,31.1,67.3"/>
<path fill="#DEDDDE" d="M31.1,67.7c0,0.1-0.1,0.1-0.1,0.1l-1.1-0.2c-0.1,0-0.1-0.1-0.1-0.1c0-0.1,0.1-0.1,0.1-0.1l1.1,0.2
	C31.1,67.5,31.1,67.6,31.1,67.7"/>
<path fill="#DEDDDE" d="M31,68c0,0.1-0.1,0.1-0.1,0.1l-1.1-0.2c-0.1,0-0.1-0.1-0.1-0.1c0-0.1,0.1-0.1,0.1-0.1l1.1,0.2
	C31,67.9,31,67.9,31,68"/>
<path fill="#DEDDDE" d="M30.9,68.3c0,0.1-0.1,0.1-0.1,0.1l-1.1-0.2c-0.1,0-0.1-0.1-0.1-0.1s0.1-0.1,0.1-0.1l1.1,0.2
	C30.9,68.2,31,68.2,30.9,68.3"/>
<path fill="#DEDDDE" d="M30.9,68.6c0,0.1-0.1,0.1-0.1,0.1l-1.1-0.2c-0.1,0-0.1-0.1-0.1-0.1c0-0.1,0.1-0.1,0.1-0.1l1.1,0.2
	C30.9,68.5,30.9,68.5,30.9,68.6"/>
<path fill="#DEDDDE" d="M30.8,68.9c0,0.1-0.1,0.1-0.1,0.1l-1.1-0.2c-0.1,0-0.1-0.1-0.1-0.1c0-0.1,0.1-0.1,0.1-0.1l1.1,0.2
	C30.8,68.8,30.8,68.9,30.8,68.9"/>
<path fill="#DEDDDE" d="M30.8,69.2c0,0.1-0.1,0.1-0.1,0.1l-1.1-0.2c-0.1,0-0.1-0.1-0.1-0.1c0-0.1,0.1-0.1,0.1-0.1l1.1,0.2
	C30.7,69.1,30.8,69.2,30.8,69.2"/>
<path fill="#DEDDDE" d="M30.7,69.6c0,0.1-0.1,0.1-0.1,0.1l-1.1-0.2c-0.1,0-0.1-0.1-0.1-0.1s0.1-0.1,0.1-0.1l1.1,0.2
	C30.7,69.4,30.7,69.5,30.7,69.6"/>
<path fill="#DEDDDE" d="M30.6,69.9c0,0.1-0.1,0.1-0.1,0.1l-1.1-0.2c-0.1,0-0.1-0.1-0.1-0.1s0.1-0.1,0.1-0.1l1.1,0.2
	C30.6,69.7,30.6,69.8,30.6,69.9"/>
<path fill="#DEDDDE" d="M30.6,70.2c0,0.1-0.1,0.1-0.1,0.1l-1.1-0.2c-0.1,0-0.1-0.1-0.1-0.1c0-0.1,0.1-0.1,0.1-0.1l1.1,0.2
	C30.5,70.1,30.6,70.1,30.6,70.2"/>
<path fill="#DEDDDE" d="M30.5,70.5c0,0.1-0.1,0.1-0.1,0.1l-1.1-0.2c-0.1,0-0.1-0.1-0.1-0.1c0-0.1,0.1-0.1,0.1-0.1l1.1,0.2
	C30.5,70.4,30.5,70.4,30.5,70.5"/>
<path fill="#DEDDDE" d="M30.4,70.8c0,0.1-0.1,0.1-0.1,0.1l-1.1-0.2c-0.1,0-0.1-0.1-0.1-0.1c0-0.1,0.1-0.1,0.1-0.1l1.1,0.2
	C30.4,70.7,30.4,70.8,30.4,70.8"/>
<path fill="#DEDDDE" d="M30.4,71.1c0,0.1-0.1,0.1-0.1,0.1L29.1,71C29.1,71,29,71,29,70.9c0-0.1,0.1-0.1,0.1-0.1l1.1,0.2
	C30.3,71,30.4,71.1,30.4,71.1"/>
<path fill="#DEDDDE" d="M30.3,71.4c0,0.1-0.1,0.1-0.1,0.1L29,71.3c-0.1,0-0.1-0.1-0.1-0.1c0-0.1,0.1-0.1,0.1-0.1l1.1,0.2
	C30.3,71.3,30.3,71.4,30.3,71.4"/>
<path fill="#DEDDDE" d="M30.1,71.7c0,0.1-0.1,0.1-0.1,0.1l-0.9-0.2c-0.1,0-0.1-0.1-0.1-0.1c0-0.1,0.1-0.1,0.1-0.1l0.9,0.2
	C30.1,71.6,30.2,71.7,30.1,71.7"/>
<path fill="#DEDDDE" d="M30,72c0,0.1-0.1,0.1-0.1,0.1L29.1,72c-0.1,0-0.1-0.1-0.1-0.1c0-0.1,0.1-0.1,0.1-0.1l0.7,0.1
	C30,71.9,30,72,30,72"/>
<path fill="#DEDDDE" d="M30.7,63c0-0.1,0.1-0.1,0.1-0.1l0.9,0.2c0.1,0,0.1,0.1,0.1,0.1c0,0.1-0.1,0.1-0.1,0.1l-0.9-0.2
	C30.8,63.1,30.7,63.1,30.7,63"/>
<path fill="#DEDDDE" d="M30.9,62.7c0-0.1,0.1-0.1,0.1-0.1l0.7,0.1c0.1,0,0.1,0.1,0.1,0.1S31.8,63,31.7,63L31,62.9
	C30.9,62.8,30.9,62.8,30.9,62.7"/>
<path fill="#F4F4F4" d="M31.4,63.5c0,0.1,0,0.1-0.1,0.1l-0.5-0.1c0,0,0-0.1,0-0.1c0-0.1,0-0.1,0.1-0.1l0.5,0.1
	C31.4,63.4,31.5,63.4,31.4,63.5"/>
<path fill="#F4F4F4" d="M31.4,63.8c0,0.1,0,0.1-0.1,0.1l-0.5-0.1c0,0,0-0.1,0-0.1c0-0.1,0-0.1,0.1-0.1l0.5,0.1
	C31.4,63.7,31.4,63.7,31.4,63.8"/>
<path fill="#F4F4F4" d="M31.3,64.1c0,0.1,0,0.1-0.1,0.1l-0.5-0.1c0,0,0-0.1,0-0.1s0-0.1,0.1-0.1l0.5,0.1C31.3,64,31.3,64,31.3,64.1"
	/>
<path fill="#F4F4F4" d="M31.2,64.4c0,0.1,0,0.1-0.1,0.1l-0.5-0.1c0,0,0-0.1,0-0.1c0-0.1,0-0.1,0.1-0.1l0.5,0.1
	C31.2,64.3,31.3,64.4,31.2,64.4"/>
<path fill="#F4F4F4" d="M31.2,64.7c0,0.1,0,0.1-0.1,0.1l-0.5-0.1c0,0,0-0.1,0-0.1c0-0.1,0-0.1,0.1-0.1l0.5,0.1
	C31.2,64.6,31.2,64.7,31.2,64.7"/>
<path fill="#F4F4F4" d="M31.1,65.1c0,0.1,0,0.1-0.1,0.1l-0.5-0.1c0,0,0-0.1,0-0.1c0-0.1,0-0.1,0.1-0.1l0.5,0.1
	C31.1,64.9,31.1,65,31.1,65.1"/>
<path fill="#F4F4F4" d="M31.1,65.4c0,0.1,0,0.1-0.1,0.1l-0.5-0.1c0,0,0-0.1,0-0.1s0-0.1,0.1-0.1l0.5,0.1
	C31.1,65.2,31.1,65.3,31.1,65.4"/>
<path fill="#F4F4F4" d="M31,65.7c0,0.1,0,0.1-0.1,0.1l-0.5-0.1c0,0,0-0.1,0-0.1c0-0.1,0-0.1,0.1-0.1l0.5,0.1
	C31,65.6,31,65.6,31,65.7"/>
<path fill="#F4F4F4" d="M30.9,66c0,0.1,0,0.1-0.1,0.1L30.3,66c0,0,0-0.1,0-0.1c0-0.1,0-0.1,0.1-0.1l0.5,0.1
	C30.9,65.9,30.9,65.9,30.9,66"/>
<path fill="#F4F4F4" d="M30.9,66.3c0,0.1,0,0.1-0.1,0.1l-0.5-0.1c0,0,0-0.1,0-0.1c0-0.1,0-0.1,0.1-0.1l0.5,0.1
	C30.9,66.2,30.9,66.2,30.9,66.3"/>
<path fill="#F4F4F4" d="M30.8,66.6c0,0.1,0,0.1-0.1,0.1l-0.5-0.1c0,0,0-0.1,0-0.1c0-0.1,0-0.1,0.1-0.1l0.5,0.1
	C30.8,66.5,30.8,66.6,30.8,66.6"/>
<path fill="#F4F4F4" d="M30.7,66.9c0,0.1,0,0.1-0.1,0.1L30.1,67c0,0,0-0.1,0-0.1s0-0.1,0.1-0.1l0.5,0.1
	C30.7,66.8,30.7,66.9,30.7,66.9"/>
<path fill="#F4F4F4" d="M30.7,67.3c0,0.1,0,0.1-0.1,0.1l-0.5-0.1c0,0,0-0.1,0-0.1c0-0.1,0-0.1,0.1-0.1l0.5,0.1
	C30.7,67.1,30.7,67.2,30.7,67.3"/>
<path fill="#F4F4F4" d="M30.6,67.6c0,0.1,0,0.1-0.1,0.1L30,67.6c0,0,0-0.1,0-0.1c0-0.1,0-0.1,0.1-0.1l0.5,0.1
	C30.6,67.5,30.6,67.5,30.6,67.6"/>
<path fill="#F4F4F4" d="M30.5,67.9c0,0.1,0,0.1-0.1,0.1l-0.5-0.1c0,0,0-0.1,0-0.1s0-0.1,0.1-0.1l0.5,0.1
	C30.5,67.8,30.6,67.8,30.5,67.9"/>
<path fill="#F4F4F4" d="M30.5,68.2c0,0.1,0,0.1-0.1,0.1l-0.5-0.1c0,0,0-0.1,0-0.1c0-0.1,0-0.1,0.1-0.1l0.5,0.1
	C30.5,68.1,30.5,68.1,30.5,68.2"/>
<path fill="#F4F4F4" d="M30.4,68.5c0,0.1,0,0.1-0.1,0.1l-0.5-0.1c0,0,0-0.1,0-0.1s0-0.1,0.1-0.1l0.5,0.1
	C30.4,68.4,30.4,68.5,30.4,68.5"/>
<path fill="#F4F4F4" d="M30.3,68.8c0,0.1,0,0.1-0.1,0.1l-0.5-0.1c0,0,0-0.1,0-0.1c0-0.1,0-0.1,0.1-0.1l0.5,0.1
	C30.3,68.7,30.4,68.8,30.3,68.8"/>
<path fill="#F4F4F4" d="M30.3,69.2c0,0.1,0,0.1-0.1,0.1l-0.5-0.1c0,0,0-0.1,0-0.1c0-0.1,0-0.1,0.1-0.1l0.5,0.1
	C30.3,69,30.3,69.1,30.3,69.2"/>
<path fill="#F4F4F4" d="M30.2,69.5c0,0.1,0,0.1-0.1,0.1l-0.5-0.1c0,0,0-0.1,0-0.1c0-0.1,0-0.1,0.1-0.1l0.5,0.1
	C30.2,69.4,30.2,69.4,30.2,69.5"/>
<path fill="#F4F4F4" d="M30.2,69.8c0,0.1,0,0.1-0.1,0.1l-0.5-0.1c0,0,0-0.1,0-0.1c0-0.1,0-0.1,0.1-0.1l0.5,0.1
	C30.2,69.7,30.2,69.7,30.2,69.8"/>
<path fill="#F4F4F4" d="M30.1,70.1c0,0.1,0,0.1-0.1,0.1l-0.5-0.1c0,0,0-0.1,0-0.1c0-0.1,0-0.1,0.1-0.1l0.5,0.1
	C30.1,70,30.1,70,30.1,70.1"/>
<path fill="#F4F4F4" d="M30,70.4c0,0.1,0,0.1-0.1,0.1l-0.5-0.1c0,0,0-0.1,0-0.1c0-0.1,0-0.1,0.1-0.1l0.5,0.1
	C30,70.3,30,70.4,30,70.4"/>
<path fill="#F4F4F4" d="M30,70.7c0,0.1,0,0.1-0.1,0.1l-0.5-0.1c0,0,0-0.1,0-0.1c0-0.1,0-0.1,0.1-0.1l0.5,0.1
	C30,70.6,30,70.7,30,70.7"/>
<path fill="#F4F4F4" d="M29.9,71c0,0.1,0,0.1-0.1,0.1l-0.5-0.1c0,0,0-0.1,0-0.1c0-0.1,0-0.1,0.1-0.1l0.5,0.1
	C29.9,70.9,29.9,71,29.9,71"/>
<path fill="#F4F4F4" d="M29.8,71.4c0,0.1,0,0.1-0.1,0.1l-0.5-0.1c0,0,0-0.1,0-0.1c0-0.1,0-0.1,0.1-0.1l0.5,0.1
	C29.8,71.2,29.8,71.3,29.8,71.4"/>
<path fill="#F4F4F4" d="M29.7,71.7c0,0.1,0,0.1-0.1,0.1l-0.5-0.1c0,0,0-0.1,0-0.1c0-0.1,0-0.1,0.1-0.1l0.5,0.1
	C29.7,71.6,29.7,71.6,29.7,71.7"/>
<path fill="#F4F4F4" d="M29.6,72c0,0.1,0,0.1-0.1,0.1L29.2,72c0,0,0-0.1,0-0.1c0-0.1,0-0.1,0.1-0.1l0.4,0.1
	C29.6,71.9,29.6,71.9,29.6,72"/>
<path fill="#F4F4F4" d="M30.9,63c0-0.1,0-0.1,0.1-0.1l0.5,0.1c0,0,0,0.1,0,0.1c0,0.1,0,0.1-0.1,0.1l-0.5-0.1
	C30.9,63.2,30.9,63.1,30.9,63"/>
<path fill="#F4F4F4" d="M31,62.7c0-0.1,0-0.1,0.1-0.1l0.4,0.1c0,0,0,0.1,0,0.1c0,0.1,0,0.1-0.1,0.1L31,62.9C31,62.9,31,62.8,31,62.7
	"/>
<path fill="#BDBCBC" d="M27.4,61.9c0,0.1,0,0.1-0.1,0.2l-1.5,0.3c-0.1,0-0.1,0-0.2-0.1s0-0.1,0.1-0.2l1.5-0.3
	C27.3,61.8,27.4,61.8,27.4,61.9"/>
<path fill="#BDBCBC" d="M27.5,62.3c0,0.1,0,0.1-0.1,0.2l-1.5,0.3c-0.1,0-0.1,0-0.2-0.1c0-0.1,0-0.1,0.1-0.2l1.5-0.3
	C27.4,62.2,27.5,62.2,27.5,62.3"/>
<path fill="#BDBCBC" d="M27.6,62.6c0,0.1,0,0.1-0.1,0.2L26,63.1c-0.1,0-0.1,0-0.2-0.1c0-0.1,0-0.1,0.1-0.2l1.5-0.3
	C27.5,62.5,27.6,62.6,27.6,62.6"/>
<path fill="#BDBCBC" d="M27.7,63c0,0.1,0,0.1-0.1,0.2L26,63.5c-0.1,0-0.1,0-0.2-0.1c0-0.1,0-0.1,0.1-0.2l1.5-0.3
	C27.6,62.9,27.6,62.9,27.7,63"/>
<path fill="#BDBCBC" d="M27.7,63.4c0,0.1,0,0.1-0.1,0.2l-1.5,0.3c-0.1,0-0.1,0-0.2-0.1c0-0.1,0-0.1,0.1-0.2l1.5-0.3
	C27.6,63.2,27.7,63.3,27.7,63.4"/>
<path fill="#BDBCBC" d="M27.8,63.7c0,0.1,0,0.1-0.1,0.2l-1.5,0.3c-0.1,0-0.1,0-0.2-0.1c0-0.1,0-0.1,0.1-0.2l1.5-0.3
	C27.7,63.6,27.8,63.7,27.8,63.7"/>
<path fill="#BDBCBC" d="M27.9,64.1c0,0.1,0,0.1-0.1,0.2l-1.5,0.3c-0.1,0-0.1,0-0.2-0.1c0-0.1,0-0.1,0.1-0.2l1.5-0.3
	C27.8,64,27.9,64,27.9,64.1"/>
<path fill="#BDBCBC" d="M28,64.5c0,0.1,0,0.1-0.1,0.2L26.4,65c-0.1,0-0.1,0-0.2-0.1c0-0.1,0-0.1,0.1-0.2l1.5-0.3
	C27.9,64.3,28,64.4,28,64.5"/>
<path fill="#BDBCBC" d="M28.1,64.8c0,0.1,0,0.1-0.1,0.2l-1.5,0.3c-0.1,0-0.1,0-0.2-0.1c0-0.1,0-0.1,0.1-0.2l1.5-0.3
	C28,64.7,28.1,64.7,28.1,64.8"/>
<path fill="#BDBCBC" d="M28.2,65.2c0,0.1,0,0.1-0.1,0.2l-1.5,0.3c-0.1,0-0.1,0-0.2-0.1s0-0.1,0.1-0.2l1.5-0.3
	C28.1,65.1,28.1,65.1,28.2,65.2"/>
<path fill="#BDBCBC" d="M28.2,65.5c0,0.1,0,0.1-0.1,0.2l-1.5,0.3c-0.1,0-0.1,0-0.2-0.1s0-0.1,0.1-0.2l1.5-0.3
	C28.1,65.4,28.2,65.5,28.2,65.5"/>
<path fill="#BDBCBC" d="M28.3,65.9c0,0.1,0,0.1-0.1,0.2l-1.5,0.3c-0.1,0-0.1,0-0.2-0.1c0-0.1,0-0.1,0.1-0.2l1.5-0.3
	C28.2,65.8,28.3,65.8,28.3,65.9"/>
<path fill="#BDBCBC" d="M28.4,66.3c0,0.1,0,0.1-0.1,0.2l-1.5,0.3c-0.1,0-0.1,0-0.2-0.1c0-0.1,0-0.1,0.1-0.2l1.5-0.3
	C28.3,66.2,28.4,66.2,28.4,66.3"/>
<path fill="#BDBCBC" d="M28.5,66.6c0,0.1,0,0.1-0.1,0.2l-1.5,0.3c-0.1,0-0.1,0-0.2-0.1c0-0.1,0-0.1,0.1-0.2l1.5-0.3
	C28.4,66.5,28.5,66.6,28.5,66.6"/>
<path fill="#BDBCBC" d="M28.6,67c0,0.1,0,0.1-0.1,0.2L27,67.5c-0.1,0-0.1,0-0.2-0.1c0-0.1,0-0.1,0.1-0.2l1.5-0.3
	C28.5,66.9,28.6,66.9,28.6,67"/>
<path fill="#BDBCBC" d="M28.7,67.4c0,0.1,0,0.1-0.1,0.2L27,67.9c-0.1,0-0.1,0-0.2-0.1c0-0.1,0-0.1,0.1-0.2l1.5-0.3
	C28.6,67.2,28.6,67.3,28.7,67.4"/>
<path fill="#BDBCBC" d="M28.7,67.7c0,0.1,0,0.1-0.1,0.2l-1.5,0.3c-0.1,0-0.1,0-0.2-0.1c0-0.1,0-0.1,0.1-0.2l1.5-0.3
	C28.6,67.6,28.7,67.7,28.7,67.7"/>
<path fill="#BDBCBC" d="M28.8,68.1c0,0.1,0,0.1-0.1,0.2l-1.5,0.3c-0.1,0-0.1,0-0.2-0.1c0-0.1,0-0.1,0.1-0.2l1.5-0.3
	C28.7,68,28.8,68,28.8,68.1"/>
<path fill="#BDBCBC" d="M28.9,68.4c0,0.1,0,0.1-0.1,0.2L27.3,69c-0.1,0-0.1,0-0.2-0.1s0-0.1,0.1-0.2l1.5-0.3
	C28.8,68.3,28.9,68.4,28.9,68.4"/>
<path fill="#BDBCBC" d="M29,68.8c0,0.1,0,0.1-0.1,0.2l-1.5,0.3c-0.1,0-0.1,0-0.2-0.1c0-0.1,0-0.1,0.1-0.2l1.5-0.3
	C28.9,68.7,29,68.7,29,68.8"/>
<path fill="#BDBCBC" d="M29.1,69.2c0,0.1,0,0.1-0.1,0.2l-1.5,0.3c-0.1,0-0.1,0-0.2-0.1c0-0.1,0-0.1,0.1-0.2l1.5-0.3
	C29,69.1,29.1,69.1,29.1,69.2"/>
<path fill="#BDBCBC" d="M29.2,69.5c0,0.1,0,0.1-0.1,0.2L27.5,70c-0.1,0-0.1,0-0.2-0.1c0-0.1,0-0.1,0.1-0.2l1.5-0.3
	C29.1,69.4,29.1,69.5,29.2,69.5"/>
<path fill="#BDBCBC" d="M29.2,69.9c0,0.1,0,0.1-0.1,0.2l-1.5,0.3c-0.1,0-0.1,0-0.2-0.1s0-0.1,0.1-0.2l1.5-0.3
	C29.1,69.8,29.2,69.8,29.2,69.9"/>
<path fill="#BDBCBC" d="M29.3,70.3c0,0.1,0,0.1-0.1,0.2l-1.5,0.3c-0.1,0-0.1,0-0.2-0.1c0-0.1,0-0.1,0.1-0.2l1.5-0.3
	C29.2,70.1,29.3,70.2,29.3,70.3"/>
<path fill="#BDBCBC" d="M29.4,70.6c0,0.1,0,0.1-0.1,0.2l-1.5,0.3c-0.1,0-0.1,0-0.2-0.1c0-0.1,0-0.1,0.1-0.2l1.5-0.3
	C29.3,70.5,29.4,70.6,29.4,70.6"/>
<path fill="#BDBCBC" d="M29.5,71c0,0.1,0,0.1-0.1,0.2l-1.5,0.3c-0.1,0-0.1,0-0.2-0.1c0-0.1,0-0.1,0.1-0.2l1.5-0.3
	C29.4,70.9,29.5,70.9,29.5,71"/>
<path fill="#BDBCBC" d="M29.4,71.4c0,0.1,0,0.1-0.1,0.2l-1.2,0.3c-0.1,0-0.1,0-0.2-0.1c0-0.1,0-0.1,0.1-0.2l1.2-0.3
	C29.4,71.3,29.4,71.3,29.4,71.4"/>
<path fill="#BDBCBC" d="M29.4,71.8c0,0.1,0,0.1-0.1,0.2l-1,0.2c-0.1,0-0.1,0-0.2-0.1c0-0.1,0-0.1,0.1-0.2l1-0.2
	C29.3,71.7,29.4,71.7,29.4,71.8"/>
<path fill="#BDBCBC" d="M25.7,61.9c0-0.1,0-0.1,0.1-0.2l1.2-0.3c0.1,0,0.1,0,0.2,0.1c0,0.1,0,0.1-0.1,0.2L25.8,62
	C25.8,62,25.7,62,25.7,61.9"/>
<path fill="#BDBCBC" d="M25.7,61.5c0-0.1,0-0.1,0.1-0.2l1-0.2c0.1,0,0.1,0,0.2,0.1c0,0.1,0,0.1-0.1,0.2l-1,0.2
	C25.8,61.7,25.7,61.6,25.7,61.5"/>
<path fill="#DEDDDE" d="M27.2,62c0,0.1,0,0.1-0.1,0.2L26,62.4c-0.1,0-0.1,0-0.1-0.1c0-0.1,0-0.1,0.1-0.2l1.1-0.3
	C27.1,61.8,27.2,61.9,27.2,62"/>
<path fill="#DEDDDE" d="M27.3,62.3c0,0.1,0,0.1-0.1,0.2l-1.1,0.3c-0.1,0-0.1,0-0.1-0.1c0-0.1,0-0.1,0.1-0.2l1.1-0.3
	C27.2,62.2,27.2,62.3,27.3,62.3"/>
<path fill="#DEDDDE" d="M27.3,62.7c0,0.1,0,0.1-0.1,0.2l-1.1,0.3c-0.1,0-0.1,0-0.1-0.1c0-0.1,0-0.1,0.1-0.2l1.1-0.3
	C27.3,62.6,27.3,62.6,27.3,62.7"/>
<path fill="#DEDDDE" d="M27.4,63.1c0,0.1,0,0.1-0.1,0.2l-1.1,0.3c-0.1,0-0.1,0-0.1-0.1c0-0.1,0-0.1,0.1-0.2l1.1-0.3
	C27.4,62.9,27.4,63,27.4,63.1"/>
<path fill="#DEDDDE" d="M27.5,63.4c0,0.1,0,0.1-0.1,0.2l-1.1,0.3c-0.1,0-0.1,0-0.1-0.1c0-0.1,0-0.1,0.1-0.2l1.1-0.3
	C27.4,63.3,27.5,63.3,27.5,63.4"/>
<path fill="#DEDDDE" d="M27.6,63.8c0,0.1,0,0.1-0.1,0.2l-1.1,0.3c-0.1,0-0.1,0-0.1-0.1s0-0.1,0.1-0.2l1.1-0.3
	C27.5,63.7,27.6,63.7,27.6,63.8"/>
<path fill="#DEDDDE" d="M27.7,64.1c0,0.1,0,0.1-0.1,0.2l-1.1,0.3c-0.1,0-0.1,0-0.1-0.1c0-0.1,0-0.1,0.1-0.2l1.1-0.3
	C27.6,64,27.7,64.1,27.7,64.1"/>
<path fill="#DEDDDE" d="M27.8,64.5c0,0.1,0,0.1-0.1,0.2l-1.1,0.3c-0.1,0-0.1,0-0.1-0.1c0-0.1,0-0.1,0.1-0.2l1.1-0.3
	C27.7,64.4,27.7,64.4,27.8,64.5"/>
<path fill="#DEDDDE" d="M27.8,64.9c0,0.1,0,0.1-0.1,0.2l-1.1,0.3c-0.1,0-0.1,0-0.1-0.1c0-0.1,0-0.1,0.1-0.2l1.1-0.3
	C27.8,64.7,27.8,64.8,27.8,64.9"/>
<path fill="#DEDDDE" d="M27.9,65.2c0,0.1,0,0.1-0.1,0.2l-1.1,0.3c-0.1,0-0.1,0-0.1-0.1c0-0.1,0-0.1,0.1-0.2l1.1-0.3
	C27.9,65.1,27.9,65.2,27.9,65.2"/>
<path fill="#DEDDDE" d="M28,65.6c0,0.1,0,0.1-0.1,0.2L26.8,66c-0.1,0-0.1,0-0.1-0.1c0-0.1,0-0.1,0.1-0.2l1.1-0.3
	C27.9,65.5,28,65.5,28,65.6"/>
<path fill="#DEDDDE" d="M28.1,66c0,0.1,0,0.1-0.1,0.2l-1.1,0.3c-0.1,0-0.1,0-0.1-0.1c0-0.1,0-0.1,0.1-0.2l1.1-0.3
	C28,65.8,28.1,65.9,28.1,66"/>
<path fill="#DEDDDE" d="M28.2,66.3c0,0.1,0,0.1-0.1,0.2L27,66.7c-0.1,0-0.1,0-0.1-0.1c0-0.1,0-0.1,0.1-0.2l1.1-0.3
	C28.1,66.2,28.2,66.3,28.2,66.3"/>
<path fill="#DEDDDE" d="M28.3,66.7c0,0.1,0,0.1-0.1,0.2l-1.1,0.3c-0.1,0-0.1,0-0.1-0.1c0-0.1,0-0.1,0.1-0.2l1.1-0.3
	C28.2,66.6,28.2,66.6,28.3,66.7"/>
<path fill="#DEDDDE" d="M28.3,67c0,0.1,0,0.1-0.1,0.2l-1.1,0.3c-0.1,0-0.1,0-0.1-0.1c0-0.1,0-0.1,0.1-0.2l1.1-0.3
	C28.3,66.9,28.3,67,28.3,67"/>
<path fill="#DEDDDE" d="M28.4,67.4c0,0.1,0,0.1-0.1,0.2l-1.1,0.3c-0.1,0-0.1,0-0.1-0.1c0-0.1,0-0.1,0.1-0.2l1.1-0.3
	C28.4,67.3,28.4,67.3,28.4,67.4"/>
<path fill="#DEDDDE" d="M28.5,67.8c0,0.1,0,0.1-0.1,0.2l-1.1,0.3c-0.1,0-0.1,0-0.1-0.1c0-0.1,0-0.1,0.1-0.2l1.1-0.3
	C28.4,67.7,28.5,67.7,28.5,67.8"/>
<path fill="#DEDDDE" d="M28.6,68.1c0,0.1,0,0.1-0.1,0.2l-1.1,0.3c-0.1,0-0.1,0-0.1-0.1c0-0.1,0-0.1,0.1-0.2l1.1-0.3
	C28.5,68,28.6,68.1,28.6,68.1"/>
<path fill="#DEDDDE" d="M28.7,68.5c0,0.1,0,0.1-0.1,0.2l-1.1,0.3c-0.1,0-0.1,0-0.1-0.1c0-0.1,0-0.1,0.1-0.2l1.1-0.3
	C28.6,68.4,28.7,68.4,28.7,68.5"/>
<path fill="#DEDDDE" d="M28.8,68.9c0,0.1,0,0.1-0.1,0.2l-1.1,0.3c-0.1,0-0.1,0-0.1-0.1c0-0.1,0-0.1,0.1-0.2l1.1-0.3
	C28.7,68.7,28.7,68.8,28.8,68.9"/>
<path fill="#DEDDDE" d="M28.8,69.2c0,0.1,0,0.1-0.1,0.2l-1.1,0.3c-0.1,0-0.1,0-0.1-0.1c0-0.1,0-0.1,0.1-0.2l1.1-0.3
	C28.8,69.1,28.8,69.2,28.8,69.2"/>
<path fill="#DEDDDE" d="M28.9,69.6c0,0.1,0,0.1-0.1,0.2L27.7,70c-0.1,0-0.1,0-0.1-0.1c0-0.1,0-0.1,0.1-0.2l1.1-0.3
	C28.9,69.5,28.9,69.5,28.9,69.6"/>
<path fill="#DEDDDE" d="M29,70c0,0.1,0,0.1-0.1,0.2l-1.1,0.3c-0.1,0-0.1,0-0.1-0.1c0-0.1,0-0.1,0.1-0.2l1.1-0.3
	C28.9,69.8,29,69.9,29,70"/>
<path fill="#DEDDDE" d="M29.1,70.3c0,0.1,0,0.1-0.1,0.2l-1.1,0.3c-0.1,0-0.1,0-0.1-0.1c0-0.1,0-0.1,0.1-0.2l1.1-0.3
	C29,70.2,29.1,70.2,29.1,70.3"/>
<path fill="#DEDDDE" d="M29.2,70.7c0,0.1,0,0.1-0.1,0.2L28,71.1c-0.1,0-0.1,0-0.1-0.1c0-0.1,0-0.1,0.1-0.2l1.1-0.3
	C29.1,70.6,29.2,70.6,29.2,70.7"/>
<path fill="#DEDDDE" d="M29.3,71c0,0.1,0,0.1-0.1,0.2l-1.1,0.3c-0.1,0-0.1,0-0.1-0.1c0-0.1,0-0.1,0.1-0.2l1.1-0.3
	C29.2,70.9,29.2,71,29.3,71"/>
<path fill="#DEDDDE" d="M29.2,71.4c0,0.1,0,0.1-0.1,0.2l-0.9,0.2c-0.1,0-0.1,0-0.1-0.1c0-0.1,0-0.1,0.1-0.2l0.9-0.2
	C29.2,71.3,29.2,71.4,29.2,71.4"/>
<path fill="#DEDDDE" d="M29.2,71.8c0,0.1,0,0.1-0.1,0.2l-0.7,0.2c-0.1,0-0.1,0-0.1-0.1c0-0.1,0-0.1,0.1-0.2l0.7-0.2
	C29.2,71.7,29.2,71.7,29.2,71.8"/>
<path fill="#DEDDDE" d="M25.9,61.9c0-0.1,0-0.1,0.1-0.2l0.9-0.2c0.1,0,0.1,0,0.1,0.1c0,0.1,0,0.1-0.1,0.2L26,62
	C25.9,62,25.9,62,25.9,61.9"/>
<path fill="#DEDDDE" d="M25.9,61.5c0-0.1,0-0.1,0.1-0.2l0.7-0.2c0.1,0,0.1,0,0.1,0.1c0,0.1,0,0.1-0.1,0.2L26,61.6
	C26,61.6,25.9,61.6,25.9,61.5"/>
<path fill="#F4F4F4" d="M26.7,62.1c0,0.1,0,0.1,0,0.1l-0.5,0.1c0,0-0.1,0-0.1-0.1c0-0.1,0-0.1,0-0.1l0.5-0.1
	C26.7,61.9,26.7,62,26.7,62.1"/>
<path fill="#F4F4F4" d="M26.8,62.4c0,0.1,0,0.1,0,0.1l-0.5,0.1c0,0-0.1,0-0.1-0.1c0-0.1,0-0.1,0-0.1l0.5-0.1
	C26.7,62.3,26.8,62.4,26.8,62.4"/>
<path fill="#F4F4F4" d="M26.9,62.8c0,0.1,0,0.1,0,0.1l-0.5,0.1c0,0-0.1,0-0.1-0.1c0-0.1,0-0.1,0-0.1l0.5-0.1
	C26.8,62.7,26.9,62.7,26.9,62.8"/>
<path fill="#F4F4F4" d="M27,63.2c0,0.1,0,0.1,0,0.1l-0.5,0.1c0,0-0.1,0-0.1-0.1c0-0.1,0-0.1,0-0.1l0.5-0.1
	C26.9,63,26.9,63.1,27,63.2"/>
<path fill="#F4F4F4" d="M27,63.5c0,0.1,0,0.1,0,0.1l-0.5,0.1c0,0-0.1,0-0.1-0.1c0-0.1,0-0.1,0-0.1l0.5-0.1C27,63.4,27,63.5,27,63.5"
	/>
<path fill="#F4F4F4" d="M27.1,63.9c0,0.1,0,0.1,0,0.1l-0.5,0.1c0,0-0.1,0-0.1-0.1c0-0.1,0-0.1,0-0.1l0.5-0.1
	C27.1,63.8,27.1,63.8,27.1,63.9"/>
<path fill="#F4F4F4" d="M27.2,64.3c0,0.1,0,0.1,0,0.1l-0.5,0.1c0,0-0.1,0-0.1-0.1c0-0.1,0-0.1,0-0.1l0.5-0.1
	C27.2,64.1,27.2,64.2,27.2,64.3"/>
<path fill="#F4F4F4" d="M27.3,64.6c0,0.1,0,0.1,0,0.1l-0.5,0.1c0,0-0.1,0-0.1-0.1c0-0.1,0-0.1,0-0.1l0.5-0.1
	C27.2,64.5,27.3,64.5,27.3,64.6"/>
<path fill="#F4F4F4" d="M27.4,65c0,0.1,0,0.1,0,0.1l-0.5,0.1c0,0-0.1,0-0.1-0.1c0-0.1,0-0.1,0-0.1l0.5-0.1
	C27.3,64.9,27.4,64.9,27.4,65"/>
<path fill="#F4F4F4" d="M27.5,65.3c0,0.1,0,0.1,0,0.1l-0.5,0.1c0,0-0.1,0-0.1-0.1c0-0.1,0-0.1,0-0.1l0.5-0.1
	C27.4,65.2,27.4,65.3,27.5,65.3"/>
<path fill="#F4F4F4" d="M27.5,65.7c0,0.1,0,0.1,0,0.1L27,66c0,0-0.1,0-0.1-0.1c0-0.1,0-0.1,0-0.1l0.5-0.1
	C27.5,65.6,27.5,65.6,27.5,65.7"/>
<path fill="#F4F4F4" d="M27.6,66.1c0,0.1,0,0.1,0,0.1l-0.5,0.1c0,0-0.1,0-0.1-0.1c0-0.1,0-0.1,0-0.1l0.5-0.1
	C27.6,65.9,27.6,66,27.6,66.1"/>
<path fill="#F4F4F4" d="M27.7,66.4c0,0.1,0,0.1,0,0.1l-0.5,0.1c0,0-0.1,0-0.1-0.1c0-0.1,0-0.1,0-0.1l0.5-0.1
	C27.7,66.3,27.7,66.4,27.7,66.4"/>
<path fill="#F4F4F4" d="M27.8,66.8c0,0.1,0,0.1,0,0.1l-0.5,0.1c0,0-0.1,0-0.1-0.1c0-0.1,0-0.1,0-0.1l0.5-0.1
	C27.7,66.7,27.8,66.7,27.8,66.8"/>
<path fill="#F4F4F4" d="M27.9,67.2c0,0.1,0,0.1,0,0.1l-0.5,0.1c0,0-0.1,0-0.1-0.1c0-0.1,0-0.1,0-0.1l0.5-0.1
	C27.8,67,27.9,67.1,27.9,67.2"/>
<path fill="#F4F4F4" d="M28,67.5c0,0.1,0,0.1,0,0.1l-0.5,0.1c0,0-0.1,0-0.1-0.1c0-0.1,0-0.1,0-0.1l0.5-0.1
	C27.9,67.4,27.9,67.4,28,67.5"/>
<path fill="#F4F4F4" d="M28,67.9c0,0.1,0,0.1,0,0.1l-0.5,0.1c0,0-0.1,0-0.1-0.1c0-0.1,0-0.1,0-0.1l0.5-0.1C28,67.8,28,67.8,28,67.9"
	/>
<path fill="#F4F4F4" d="M28.1,68.2c0,0.1,0,0.1,0,0.1l-0.5,0.1c0,0-0.1,0-0.1-0.1c0-0.1,0-0.1,0-0.1l0.5-0.1
	C28.1,68.1,28.1,68.2,28.1,68.2"/>
<path fill="#F4F4F4" d="M28.2,68.6c0,0.1,0,0.1,0,0.1l-0.5,0.1c0,0-0.1,0-0.1-0.1c0-0.1,0-0.1,0-0.1l0.5-0.1
	C28.2,68.5,28.2,68.5,28.2,68.6"/>
<path fill="#F4F4F4" d="M28.3,69c0,0.1,0,0.1,0,0.1l-0.5,0.1c0,0-0.1,0-0.1-0.1c0-0.1,0-0.1,0-0.1l0.5-0.1
	C28.2,68.8,28.3,68.9,28.3,69"/>
<path fill="#F4F4F4" d="M28.4,69.3c0,0.1,0,0.1,0,0.1l-0.5,0.1c0,0-0.1,0-0.1-0.1c0-0.1,0-0.1,0-0.1l0.5-0.1
	C28.3,69.2,28.4,69.3,28.4,69.3"/>
<path fill="#F4F4F4" d="M28.5,69.7c0,0.1,0,0.1,0,0.1L27.9,70c0,0-0.1,0-0.1-0.1c0-0.1,0-0.1,0-0.1l0.5-0.1
	C28.4,69.6,28.4,69.6,28.5,69.7"/>
<path fill="#F4F4F4" d="M28.5,70.1c0,0.1,0,0.1,0,0.1L28,70.3c0,0-0.1,0-0.1-0.1c0-0.1,0-0.1,0-0.1l0.5-0.1
	C28.5,69.9,28.5,70,28.5,70.1"/>
<path fill="#F4F4F4" d="M28.6,70.4c0,0.1,0,0.1,0,0.1l-0.5,0.1c0,0-0.1,0-0.1-0.1c0-0.1,0-0.1,0-0.1l0.5-0.1
	C28.6,70.3,28.6,70.4,28.6,70.4"/>
<path fill="#F4F4F4" d="M28.7,70.8c0,0.1,0,0.1,0,0.1l-0.5,0.1c0,0-0.1,0-0.1-0.1c0-0.1,0-0.1,0-0.1l0.5-0.1
	C28.7,70.7,28.7,70.7,28.7,70.8"/>
<path fill="#F4F4F4" d="M28.8,71.1c0,0.1,0,0.1,0,0.1l-0.5,0.1c0,0-0.1,0-0.1-0.1c0-0.1,0-0.1,0-0.1l0.5-0.1
	C28.7,71,28.8,71.1,28.8,71.1"/>
<path fill="#F4F4F4" d="M28.8,71.5c0,0.1,0,0.1,0,0.1l-0.4,0.1c0,0-0.1,0-0.1-0.1c0-0.1,0-0.1,0-0.1l0.4-0.1
	C28.8,71.4,28.8,71.5,28.8,71.5"/>
<path fill="#F4F4F4" d="M28.9,71.9c0,0.1,0,0.1,0,0.1l-0.4,0.1c0,0-0.1,0-0.1-0.1c0-0.1,0-0.1,0-0.1l0.4-0.1
	C28.8,71.8,28.9,71.8,28.9,71.9"/>
<path fill="#F4F4F4" d="M26,61.8c0-0.1,0-0.1,0-0.1l0.4-0.1c0,0,0.1,0,0.1,0.1c0,0.1,0,0.1,0,0.1L26.1,62C26.1,62,26.1,61.9,26,61.8
	"/>
<path fill="#F4F4F4" d="M26,61.5c0-0.1,0-0.1,0-0.1l0.4-0.1c0,0,0.1,0,0.1,0.1c0,0.1,0,0.1,0,0.1l-0.4,0.1
	C26.1,61.6,26,61.5,26,61.5"/>
<path fill="#BDBCBC" d="M23.2,14.2c-0.3,0.3-0.8,0.3-1.1,0c-0.3-0.3-0.3-0.8,0-1.1l2.1-2.1c0.3-0.3,0.8-0.3,1.1,0
	c0.3,0.3,0.3,0.8,0,1.1L23.2,14.2z"/>
<path fill="#918F90" d="M22.2,13.3l2.1-2.1c0.3-0.3,0.7-0.4,0.9-0.1c-0.3-0.3-0.8-0.3-1.1,0l-2.1,2.1c-0.3,0.3-0.3,0.8,0,1.1
	C21.9,14,21.9,13.6,22.2,13.3"/>
<path fill="#918F90" d="M25.3,11c0.2,0.2,0.2,0.6-0.1,0.9L23,14.1c-0.3,0.3-0.7,0.4-0.9,0.1c0.3,0.3,0.8,0.3,1.1,0l2.1-2.1
	C25.6,11.8,25.6,11.3,25.3,11"/>
<path fill="#A7A5A6" d="M23,14.1l2.1-2.1c0.3-0.3,0.4-0.7,0.1-0.9c0.2,0.2,0.1,0.6-0.2,0.9L23,14.1c-0.4,0.2-0.8,0.3-0.9,0.1
	C22.3,14.5,22.7,14.4,23,14.1"/>
<path fill="#A7A5A6" d="M22.3,13.4l2.1-2.1c0.3-0.3,0.7-0.4,0.9-0.2c-0.2-0.2-0.6-0.2-0.9,0.1L22.3,13.4c-0.4,0.2-0.4,0.6-0.2,0.9
	C21.9,14,22,13.7,22.3,13.4"/>
<line fill="none" stroke="#231F20" stroke-width="0.203" stroke-miterlimit="10" x1="23.7" y1="11.5" x2="24.8" y2="12.6"/>
<line fill="none" stroke="#FFFFFF" stroke-width="8.100000e-002" stroke-miterlimit="10" x1="23.6" y1="11.6" x2="24.7" y2="12.7"/>
<rect x="11" y="9" transform="matrix(0.7071 0.7071 -0.7071 0.7071 20.9204 -0.8638)" fill="#BDBCBC" width="0.9" height="31.6"/>
<path fill="#BDBCBC" d="M26.3,11.3l-1-1.2l-1.2-1.4l-0.6,0.5l1,1.2c-0.4,0.4-0.5,1.1-0.1,1.5c0.4,0.4,1.1,0.5,1.5,0.1l0.8,1l0.6-0.5
	L26.3,11.3z"/>
<rect x="23.5" y="8.9" transform="matrix(0.764 -0.6452 0.6452 0.764 -0.1951 17.554)" fill="#7B7979" width="0.7" height="0.2"/>
<rect x="26.6" y="12.5" transform="matrix(0.7637 -0.6456 0.6456 0.7637 -1.7951 20.3822)" fill="#7B7979" width="0.7" height="0.2"/>
<rect x="23.6" y="9.1" transform="matrix(0.7634 -0.6459 0.6459 0.7634 -0.2389 17.6642)" fill="#918F90" width="0.7" height="0.1"/>
<rect x="26.5" y="12.5" transform="matrix(0.764 -0.6452 0.6452 0.764 -1.7479 20.278)" fill="#918F90" width="0.7" height="0.1"/>
<path fill="#4F4C4D" d="M27.3,12.5l-0.1-0.1l0,0l-0.8-1l-1-1.2l-1.2-1.4L24,8.8c1.1,1.2,2.2,2.5,3.1,3.8L27.3,12.5z"/>
<path fill="#B2B1B1" d="M28.5,13.9c-1.3-3.2-4.9-6.4-7.3-8.9l-0.4,0.4c2.4,2.4,6.1,5.7,7.2,9c0.7,2.1,1.1,4.3,1.9,6.3
	c0.8,2,2.3,3.6,3.7,5l1-1c-1.4-1.4-2.9-3-3.8-4.9C29.8,17.9,29.2,15.8,28.5,13.9"/>
<path fill="#918F90" d="M41.4,9.1c-2-0.8-4.2-1.2-6.3-1.9c-3.3-1.1-6.6-4.7-9-7.2l-0.4,0.4c2.4,2.4,5.7,6,8.9,7.3
	c2,0.8,4,1.3,5.9,2.2c1.9,0.9,3.5,2.4,4.9,3.8l1-1C45,11.4,43.4,9.9,41.4,9.1"/>
<path fill="#D3D2D2" d="M34.6,7.8c-3.2-1.3-6.4-4.9-8.9-7.3l-0.5,0.5c2.4,2.4,5.7,6,8.7,7.5c1.8,0.9,3.7,1.6,5.5,2.6
	c1.8,1,3.3,2.5,4.8,3.9l1.2-1.1c-1.4-1.4-3-2.9-4.9-3.8C38.6,9.1,36.5,8.5,34.6,7.8"/>
<path fill="#D3D2D2" d="M29.1,13.2c-1.5-3-5.1-6.3-7.5-8.7L21.1,5c2.4,2.4,6,5.7,7.3,8.9c0.8,1.9,1.3,4,2.2,5.9
	c0.9,1.9,2.4,3.5,3.8,4.9l1.1-1.2c-1.4-1.4-2.9-3-3.9-4.8C30.7,17,30,15.1,29.1,13.2"/>
<path fill="#D3D2D2" d="M33.9,8.4c-3-1.5-6.3-5.1-8.7-7.5l-0.7,0.7C27,4,30.3,7.6,33,9.3c1.7,1.1,3.3,2,5,3.2
	c1.6,1.2,3.2,2.6,4.6,4.1l1.6-1.6c-1.4-1.4-3-2.9-4.8-3.9C37.7,10,35.8,9.3,33.9,8.4"/>
<path fill="#EDEDED" d="M30,12.3c-1.8-2.7-5.3-6.1-7.7-8.5l-0.7,0.7c2.4,2.4,6,5.7,7.5,8.7c0.9,1.8,1.6,3.7,2.6,5.5
	c1,1.8,2.5,3.3,3.9,4.8l1.6-1.6c-1.4-1.4-2.9-3-4.1-4.6C32,15.6,31.1,14,30,12.3"/>
<path fill="#BDBCBC" d="M33,9.3C30.3,7.6,27,4,24.5,1.6L24,2.2c2.4,2.4,5.8,5.9,8.3,7.9c1.5,1.2,3,2.4,4.5,3.7
	c1.5,1.3,3,2.8,4.5,4.2l1.4-1.4c-1.4-1.4-3-2.9-4.6-4.1C36.3,11.3,34.7,10.4,33,9.3"/>
<path fill="#F4F4F4" d="M30.8,11.5c-2-2.4-5.5-5.9-7.9-8.3l-0.6,0.6c2.4,2.4,6,5.8,7.7,8.5c1.1,1.7,2,3.3,3.2,5
	c1.2,1.6,2.6,3.2,4.1,4.6l1.4-1.4c-1.4-1.4-2.9-3-4.2-4.5C33.2,14.5,32,13,30.8,11.5"/>
<path fill="#D3D2D2" d="M32.2,10.1c-2.4-2-5.9-5.5-8.3-7.9l-1.1,1.1c2.4,2.4,5.9,5.8,7.9,8.3c1.2,1.5,2.4,3,3.7,4.5
	c1.3,1.5,2.8,3,4.2,4.5l2.5-2.5c-1.4-1.4-3-2.9-4.5-4.2C35.2,12.5,33.7,11.3,32.2,10.1"/>
<rect x="21.1" y="2.3" transform="matrix(0.7072 -0.7071 0.7071 0.7072 5.0864 17.2659)" fill="#D3D2D2" width="4.6" height="0.4"/>
<rect x="21.2" y="2.5" transform="matrix(0.7072 -0.7071 0.7071 0.7072 5.0471 17.3608)" fill="#918F90" width="4.6" height="0.1"/>
<polygon fill="#D3D2D2" points="24.5,1.1 23.5,0.9 23.3,2.4 22,3.4 22,3.6 "/>
<polygon fill="#918F90" points="22,3.6 22,3.6 23.3,2.4 22.8,2.8 "/>
<polygon fill="#918F90" points="23.3,2.4 24.5,1.1 24.5,1.1 23.3,2.3 "/>
<path fill="#D3D2D2" d="M26.7,60.8c0.2,0.2,0.2,0.6,0,0.8c-0.2,0.2-0.6,0.2-0.8,0L0.4,36.1c-0.2-0.2-0.2-0.6,0-0.8
	c0.2-0.2,0.6-0.2,0.8,0L26.7,60.8z"/>
<path fill="#DEDDDE" d="M24,58.9c-0.2,0.2-0.6,0.2-0.8-0.1c-0.2-0.2-0.2-0.6,0.1-0.8l1.8-1.6c0.2-0.2,0.6-0.2,0.8,0.1
	c0.2,0.2,0.2,0.6-0.1,0.8L24,58.9z"/>
<path fill="#656263" d="M1.2,35.7c0,0.2-0.2,0.4-0.4,0.4c-0.2,0-0.4-0.2-0.4-0.4c0-0.2,0.2-0.4,0.4-0.4C1,35.3,1.2,35.5,1.2,35.7"/>
<path fill="#C8C7C7" d="M1,35.7c0,0.1-0.1,0.2-0.2,0.2c-0.1,0-0.2-0.1-0.2-0.2c0-0.1,0.1-0.2,0.2-0.2C0.9,35.5,1,35.6,1,35.7"/>
<path fill="#D3D2D2" d="M31.8,62.4c0.2,0.2,0.2,0.6,0,0.8c-0.2,0.2-0.6,0.2-0.8,0L2.1,34.4c-0.2-0.2-0.2-0.6,0-0.8
	c0.2-0.2,0.6-0.2,0.8,0L31.8,62.4z"/>
<path fill="#656263" d="M2.9,34c0,0.2-0.2,0.4-0.4,0.4c-0.2,0-0.4-0.2-0.4-0.4c0-0.2,0.2-0.4,0.4-0.4C2.7,33.6,2.9,33.8,2.9,34"/>
<path fill="#C8C7C7" d="M2.7,34c0,0.1-0.1,0.2-0.2,0.2S2.3,34.1,2.3,34c0-0.1,0.1-0.2,0.2-0.2S2.7,33.9,2.7,34"/>
<path fill="#656263" d="M24,58.5c0,0.2-0.2,0.4-0.4,0.4c-0.2,0-0.4-0.2-0.4-0.4s0.2-0.4,0.4-0.4C23.8,58.1,24,58.3,24,58.5"/>
<path fill="#C8C7C7" d="M23.8,58.5c0,0.1-0.1,0.2-0.2,0.2s-0.2-0.1-0.2-0.2c0-0.1,0.1-0.2,0.2-0.2S23.8,58.4,23.8,58.5"/>
<path fill="#656263" d="M26.7,61.2c0,0.2-0.2,0.4-0.4,0.4c-0.2,0-0.4-0.2-0.4-0.4c0-0.2,0.2-0.4,0.4-0.4
	C26.5,60.8,26.7,61,26.7,61.2"/>
<path fill="#C8C7C7" d="M26.5,61.2c0,0.1-0.1,0.2-0.2,0.2s-0.2-0.1-0.2-0.2s0.1-0.2,0.2-0.2S26.5,61.1,26.5,61.2"/>
<path fill="#656263" d="M31.8,62.8c0,0.2-0.2,0.4-0.4,0.4c-0.2,0-0.4-0.2-0.4-0.4s0.2-0.4,0.4-0.4C31.6,62.4,31.8,62.6,31.8,62.8"/>
<path fill="#C8C7C7" d="M31.6,62.8c0,0.1-0.1,0.2-0.2,0.2c-0.1,0-0.2-0.1-0.2-0.2s0.1-0.2,0.2-0.2C31.5,62.6,31.6,62.7,31.6,62.8"/>
<path fill="#656263" d="M30.1,61.2c0,0.2-0.2,0.4-0.4,0.4s-0.4-0.2-0.4-0.4c0-0.2,0.2-0.4,0.4-0.4S30.1,61,30.1,61.2"/>
<path fill="#C8C7C7" d="M30,61.2c0,0.1-0.1,0.2-0.2,0.2c-0.1,0-0.2-0.1-0.2-0.2s0.1-0.2,0.2-0.2C29.9,61,30,61.1,30,61.2"/>
<path fill="#656263" d="M25.8,56.9c0,0.2-0.2,0.4-0.4,0.4c-0.2,0-0.4-0.2-0.4-0.4c0-0.2,0.2-0.4,0.4-0.4
	C25.6,56.5,25.8,56.6,25.8,56.9"/>
<path fill="#C8C7C7" d="M25.6,56.9c0,0.1-0.1,0.2-0.2,0.2c-0.1,0-0.2-0.1-0.2-0.2c0-0.1,0.1-0.2,0.2-0.2
	C25.5,56.7,25.6,56.8,25.6,56.9"/>
<path fill="#DEDDDE" d="M28.1,78.4v-5.7c0-0.2,0.1-0.3,0.3-0.3H30c0.2,0,0.3,0.1,0.3,0.3v5.7H28.1z"/>
<path fill="#E7E6E7" d="M30,74.8c0,0.4-0.3,0.4-0.8,0.4s-0.8,0-0.8-0.4v-2.9c0-0.4,0.3-0.8,0.8-0.8s0.8,0.3,0.8,0.8V74.8z"/>
<path fill="#BDBCBC" d="M28.5,74.9c0,0.3,0.4,0.3,0.7,0.3c0.4,0,0.7,0,0.7-0.3H28.5z"/>
<rect x="30.1" y="75.6" fill="#A7A5A6" width="0.2" height="2.8"/>
<rect x="28.1" y="75.6" fill="#A7A5A6" width="0.2" height="2.8"/>
<rect x="29.2" y="75.6" fill="#DEDDDE" width="0.9" height="2.8"/>
<rect x="28.3" y="75.6" fill="#DEDDDE" width="0.3" height="2.8"/>
<rect x="28.6" y="75.6" fill="#F4F4F4" width="0.6" height="2.8"/>
<polygon fill="#A7A5A6" points="30.6,78.4 29.2,78.4 27.8,78.4 16.1,80 16.1,80.6 29.2,80.6 42.4,80.6 42.4,80 "/>
<polygon fill="#C8C7C7" points="30.5,78.4 29.2,78.4 28,78.4 17.5,80 17.5,80.6 29.2,80.6 40.9,80.6 40.9,80 "/>
<polygon fill="#E7E6E7" points="29.9,78.4 29.2,78.4 28.5,78.4 22.5,80 22.5,80.6 29.2,80.6 36,80.6 36,80 "/>
<path fill="#656263" d="M29.6,71.9c0,0.2-0.2,0.4-0.4,0.4c-0.2,0-0.4-0.2-0.4-0.4c0-0.2,0.2-0.4,0.4-0.4
	C29.4,71.5,29.6,71.7,29.6,71.9"/>
<path fill="#C8C7C7" d="M29.4,71.9c0,0.1-0.1,0.2-0.2,0.2S29,72,29,71.9c0-0.1,0.1-0.2,0.2-0.2S29.4,71.8,29.4,71.9"/>
<path fill="#FFFFFF" d="M16.5,80.1h25.1v0c-2.1,0.1-4.2,0.1-6.3,0.1l-6.3,0.1l-6.3-0.1C20.7,80.2,18.6,80.2,16.5,80.1L16.5,80.1z"/>
</svg>
