<?xml version="1.0" encoding="utf-8"?>
<!-- Generator: Adobe Illustrator 15.0.2, SVG Export Plug-In . SVG Version: 6.00 Build 0)  -->
<!DOCTYPE svg PUBLIC "-//W3C//DTD SVG 1.1//EN" "http://www.w3.org/Graphics/SVG/1.1/DTD/svg11.dtd">
<svg version="1.1" id="Layer_1" xmlns="http://www.w3.org/2000/svg" xmlns:xlink="http://www.w3.org/1999/xlink" x="0px" y="0px"
	 width="30.2px" height="57.8px" viewBox="0 0 30.2 57.8" enable-background="new 0 0 30.2 57.8" xml:space="preserve">
<path fill="#D3D2D2" d="M18.7,4.4c0,1.2-1.5,2.1-2.1,2.1h-3.4c-0.6,0-2.1-1-2.1-2.1V2.1C11.1,1,12.6,0,13.2,0h3.4
	c0.6,0,2.1,1,2.1,2.1V4.4z"/>
<rect x="11.1" y="1.8" fill="#868484" width="7.6" height="2"/>
<rect x="0" y="21.6" fill="#231F20" width="30.2" height="35.8"/>
<path fill="#D3D2D2" d="M26.6,3.2c0,0.6-0.4,1-1,1H4.6c-0.6,0-1-0.4-1-1c0-0.6,0.4-1,1-1h20.9C26.1,2.2,26.6,2.7,26.6,3.2"/>
<rect x="0" y="3.2" fill="#9E7E64" width="30.2" height="18.3"/>
<g>
	<g>
		<defs>
			<rect id="SVGID_1_" y="3.2" width="6.4" height="18.3"/>
		</defs>
		<clipPath id="SVGID_2_">
			<use xlink:href="#SVGID_1_"  overflow="visible"/>
		</clipPath>
		<rect x="0" y="3.2" clip-path="url(#SVGID_2_)" fill="#EDE5D7" width="6.4" height="18.3"/>
	</g>
</g>
<g>
	<g>
		<defs>
			<rect id="SVGID_3_" x="23.9" y="3.2" width="6.4" height="18.3"/>
		</defs>
		<clipPath id="SVGID_4_">
			<use xlink:href="#SVGID_3_"  overflow="visible"/>
		</clipPath>
		<rect x="23.9" y="3.2" clip-path="url(#SVGID_4_)" fill="#EDE5D7" width="6.4" height="18.3"/>
	</g>
</g>
<g opacity="0.3">
	<g>
		<defs>
			<rect id="SVGID_5_" x="14.7" y="3.2" width="4.9" height="18.3"/>
		</defs>
		<clipPath id="SVGID_6_">
			<use xlink:href="#SVGID_5_"  overflow="visible"/>
		</clipPath>
		<rect x="14.7" y="3.2" clip-path="url(#SVGID_6_)" fill="#EDE5D7" width="4.9" height="18.3"/>
	</g>
</g>
<g opacity="0.83">
	<g>
		<defs>
			<rect id="SVGID_7_" x="14.7" y="21.6" width="4.9" height="35.8"/>
		</defs>
		<clipPath id="SVGID_8_">
			<use xlink:href="#SVGID_7_"  overflow="visible"/>
		</clipPath>
		<rect x="14.7" y="21.6" clip-path="url(#SVGID_8_)" fill="#D3D2D2" width="4.9" height="35.8"/>
	</g>
</g>
<g opacity="0.5">
	<g>
		<defs>
			<rect id="SVGID_9_" y="21.6" width="6.4" height="35.8"/>
		</defs>
		<clipPath id="SVGID_10_">
			<use xlink:href="#SVGID_9_"  overflow="visible"/>
		</clipPath>
		<rect x="0" y="21.6" clip-path="url(#SVGID_10_)" fill="#D3D2D2" width="6.4" height="35.8"/>
	</g>
</g>
<g opacity="0.5">
	<g>
		<defs>
			<rect id="SVGID_11_" x="23.9" y="21.6" width="6.4" height="35.8"/>
		</defs>
		<clipPath id="SVGID_12_">
			<use xlink:href="#SVGID_11_"  overflow="visible"/>
		</clipPath>
		<rect x="23.9" y="21.6" clip-path="url(#SVGID_12_)" fill="#D3D2D2" width="6.4" height="35.8"/>
	</g>
</g>
<g>
	<g>
		<defs>
			<rect id="SVGID_13_" y="3.2" width="30.2" height="0.4"/>
		</defs>
		<clipPath id="SVGID_14_">
			<use xlink:href="#SVGID_13_"  overflow="visible"/>
		</clipPath>
		<path clip-path="url(#SVGID_14_)" fill="#FAF5DC" d="M0,3.2h30.2v0l-3.8,0.2l-3.8,0.1c-2.5,0.1-5,0.1-7.6,0.1c-2.5,0-5,0-7.6-0.1
			L3.8,3.4L0,3.2L0,3.2z"/>
	</g>
</g>
<g>
	<g>
		<defs>
			<rect id="SVGID_15_" y="21.6" width="30.2" height="0.4"/>
		</defs>
		<clipPath id="SVGID_16_">
			<use xlink:href="#SVGID_15_"  overflow="visible"/>
		</clipPath>
		<path clip-path="url(#SVGID_16_)" fill="#FAF5DC" d="M0,21.6h30.2v0l-3.8,0.2l-3.8,0.1c-2.5,0.1-5,0.1-7.6,0.1c-2.5,0-5,0-7.6-0.1
			l-3.8-0.1L0,21.6L0,21.6z"/>
	</g>
</g>
<path fill="#231F20" d="M0,57.4h30.2v0l-3.8,0.2l-3.8,0.1c-2.5,0.1-5,0.1-7.6,0.1c-2.5,0-5,0-7.6-0.1l-3.8-0.1L0,57.4L0,57.4z"/>
<rect x="15.9" y="24" fill="#FFFFFF" width="4.8" height="25.1"/>
<rect x="10.2" y="24" fill="#A77C39" width="4.8" height="7.6"/>
<rect x="14.2" y="10.3" fill="#231F20" width="1.8" height="5.1"/>
<rect x="12.6" y="12" fill="#231F20" width="5.1" height="1.8"/>
</svg>
