<?xml version="1.0" encoding="utf-8"?>
<!-- Generator: Adobe Illustrator 15.0.2, SVG Export Plug-In . SVG Version: 6.00 Build 0)  -->
<!DOCTYPE svg PUBLIC "-//W3C//DTD SVG 1.1//EN" "http://www.w3.org/Graphics/SVG/1.1/DTD/svg11.dtd">
<svg version="1.1" id="Layer_1" xmlns="http://www.w3.org/2000/svg" xmlns:xlink="http://www.w3.org/1999/xlink" x="0px" y="0px"
	 width="53.9px" height="57.2px" viewBox="0 0 53.9 57.2" enable-background="new 0 0 53.9 57.2" xml:space="preserve">
<path fill="#ECC57C" d="M32.3,51.8c0,3-2.4,5.4-5.4,5.4s-5.4-2.4-5.4-5.4c0-3,2.4-5.4,5.4-5.4S32.3,48.9,32.3,51.8"/>
<g>
	<g>
		<defs>
			<rect id="SVGID_1_" x="21.6" y="46.5" width="10.7" height="7.2"/>
		</defs>
		<clipPath id="SVGID_2_">
			<use xlink:href="#SVGID_1_"  overflow="visible"/>
		</clipPath>
		<path clip-path="url(#SVGID_2_)" fill="#ECC57C" d="M27,50.1c2.3,0,4.3,1.5,5,3.5c0.2-0.6,0.3-1.2,0.3-1.8c0-3-2.4-5.4-5.4-5.4
			s-5.4,2.4-5.4,5.4c0,0.6,0.1,1.3,0.3,1.8C22.7,51.6,24.6,50.1,27,50.1"/>
	</g>
</g>
<g opacity="0.4">
	<g>
		<defs>
			<rect id="SVGID_3_" x="21.6" y="46.5" width="5.4" height="10.7"/>
		</defs>
		<clipPath id="SVGID_4_">
			<use xlink:href="#SVGID_3_"  overflow="visible"/>
		</clipPath>
		<path clip-path="url(#SVGID_4_)" fill="#ECC57C" d="M23,51.8c0-3,1.8-5.4,3.9-5.4c-3,0-5.4,2.4-5.4,5.4c0,3,2.4,5.4,5.4,5.4
			C24.8,57.2,23,54.8,23,51.8"/>
	</g>
</g>
<g opacity="0.4">
	<g>
		<defs>
			<rect id="SVGID_5_" x="27" y="46.5" width="5.4" height="10.7"/>
		</defs>
		<clipPath id="SVGID_6_">
			<use xlink:href="#SVGID_5_"  overflow="visible"/>
		</clipPath>
		<path clip-path="url(#SVGID_6_)" fill="#ECC57C" d="M27,46.5c2.2,0,3.9,2.4,3.9,5.4s-1.8,5.4-3.9,5.4c3,0,5.4-2.4,5.4-5.4
			S29.9,46.5,27,46.5"/>
	</g>
</g>
<g opacity="0.2">
	<g>
		<defs>
			<rect id="SVGID_7_" x="23.1" y="46.5" width="3.9" height="10.7"/>
		</defs>
		<clipPath id="SVGID_8_">
			<use xlink:href="#SVGID_7_"  overflow="visible"/>
		</clipPath>
		<path clip-path="url(#SVGID_8_)" fill="#ECC57C" d="M24.7,51.8c0-3,1-5.4,2.2-5.4c-2.2,0-3.9,2.4-3.9,5.4c0,3,1.8,5.4,3.9,5.4
			C25.7,57.2,24.7,54.8,24.7,51.8"/>
	</g>
</g>
<g opacity="0.2">
	<g>
		<defs>
			<rect id="SVGID_9_" x="27" y="46.5" width="3.9" height="10.7"/>
		</defs>
		<clipPath id="SVGID_10_">
			<use xlink:href="#SVGID_9_"  overflow="visible"/>
		</clipPath>
		<path clip-path="url(#SVGID_10_)" fill="#ECC57C" d="M30.9,51.8c0-3-1.8-5.4-3.9-5.4c1.2,0,2.2,2.4,2.2,5.4c0,3-1,5.4-2.2,5.4
			C29.1,57.2,30.9,54.8,30.9,51.8"/>
	</g>
</g>
<g>
	<g>
		<defs>
			<rect id="SVGID_11_" x="22.7" y="49.1" width="3.2" height="3.2"/>
		</defs>
		<clipPath id="SVGID_12_">
			<use xlink:href="#SVGID_11_"  overflow="visible"/>
		</clipPath>
		<path clip-path="url(#SVGID_12_)" fill="#ECC57C" d="M25.9,50.8c0,0.9-0.7,1.6-1.6,1.6c-0.9,0-1.6-0.7-1.6-1.6s0.7-1.6,1.6-1.6
			C25.2,49.1,25.9,49.9,25.9,50.8"/>
	</g>
</g>
<path fill="#ECC57C" d="M50.8,43.9c0,0-3.9-3.4-5-5.4c0,0-0.5-1.2-1.3-1.2L40.4,17c0,0-2-9.1-9.9-9.1h-2.8h-1.5h-2.8
	c-8.4,0-9.9,9.1-9.9,9.1L9.3,37.4c-0.8,0-1.3,1.2-1.3,1.2c-1,1.9-5,5.4-5,5.4C0.4,45.1,0,50.7,0,50.7h26.2h1.5h26.2
	C53.9,50.7,53.5,45.1,50.8,43.9"/>
<g>
	<g>
		<defs>
			<rect id="SVGID_13_" x="0" y="7.9" width="53.9" height="42.7"/>
		</defs>
		<clipPath id="SVGID_14_">
			<use xlink:href="#SVGID_13_"  overflow="visible"/>
		</clipPath>
		<g opacity="0.5" clip-path="url(#SVGID_14_)">
			<g>
				<defs>
					<rect id="SVGID_15_" x="0" y="7.9" width="23.7" height="42.7"/>
				</defs>
				<clipPath id="SVGID_16_">
					<use xlink:href="#SVGID_15_"  overflow="visible"/>
				</clipPath>
				<path clip-path="url(#SVGID_16_)" fill="#ECC57C" d="M5.5,43.9c0,0,3.5-3.4,4.5-5.4c0,0,0.5-1.2,1.2-1.2L14.8,17
					c0,0,1.4-9.1,8.9-9.1h-0.4c-8.4,0-9.9,9.1-9.9,9.1L9.3,37.4c-0.8,0-1.3,1.2-1.3,1.2c-1,1.9-5,5.4-5,5.4C0.4,45.1,0,50.7,0,50.7
					h2.7C2.7,50.7,3.1,45.1,5.5,43.9"/>
			</g>
		</g>
		<g opacity="0.5" clip-path="url(#SVGID_14_)">
			<g>
				<defs>
					<rect id="SVGID_17_" x="30.2" y="7.9" width="23.7" height="42.7"/>
				</defs>
				<clipPath id="SVGID_18_">
					<use xlink:href="#SVGID_17_"  overflow="visible"/>
				</clipPath>
				<path clip-path="url(#SVGID_18_)" fill="#ECC57C" d="M50.8,43.9c0,0-3.9-3.4-5-5.4c0,0-0.5-1.2-1.3-1.2L40.4,17
					c0,0-2-9.1-9.9-9.1h-0.4c7.1,0,8.9,9.1,8.9,9.1l3.7,20.4c0.7,0,1.2,1.2,1.2,1.2c0.9,1.9,4.5,5.4,4.5,5.4
					c2.4,1.2,2.8,6.8,2.8,6.8h2.7C53.9,50.7,53.5,45.1,50.8,43.9"/>
			</g>
		</g>
		<g opacity="0.3" clip-path="url(#SVGID_14_)">
			<g>
				<defs>
					<rect id="SVGID_19_" x="29.5" y="7.9" width="21.7" height="42.7"/>
				</defs>
				<clipPath id="SVGID_20_">
					<use xlink:href="#SVGID_19_"  overflow="visible"/>
				</clipPath>
				<path clip-path="url(#SVGID_20_)" fill="#ECC57C" d="M48.4,43.9c0,0-3.5-3.4-4.5-5.4c0,0-0.5-1.2-1.2-1.2L39.1,17
					c0,0-1.8-9.1-8.9-9.1h-0.7c5.6,0,7,9.1,7,9.1l2.9,20.4c0.5,0,0.9,1.2,0.9,1.2c0.7,1.9,3.5,5.4,3.5,5.4c1.9,1.2,2.2,6.8,2.2,6.8
					h5.3C51.2,50.7,50.9,45.1,48.4,43.9"/>
			</g>
		</g>
		<g opacity="0.3" clip-path="url(#SVGID_14_)">
			<g>
				<defs>
					<rect id="SVGID_21_" x="2.7" y="7.9" width="21.7" height="42.7"/>
				</defs>
				<clipPath id="SVGID_22_">
					<use xlink:href="#SVGID_21_"  overflow="visible"/>
				</clipPath>
				<path clip-path="url(#SVGID_22_)" fill="#ECC57C" d="M10.2,43.9c0,0,2.8-3.4,3.5-5.4c0,0,0.4-1.2,0.9-1.2L17.5,17
					c0,0,1.1-9.1,7-9.1h-0.7c-7.5,0-8.9,9.1-8.9,9.1l-3.7,20.4c-0.7,0-1.2,1.2-1.2,1.2c-0.9,1.9-4.5,5.4-4.5,5.4
					c-2.4,1.2-2.8,6.8-2.8,6.8H8C8,50.7,8.3,45.1,10.2,43.9"/>
			</g>
		</g>
	</g>
</g>
<circle fill="none" stroke="#ECC57C" stroke-width="1.096" stroke-miterlimit="10" cx="27" cy="4.2" r="3.6"/>
<g>
	<g>
		<defs>
			<rect id="SVGID_23_" x="23.3" y="4.2" width="7.3" height="3.6"/>
		</defs>
		<clipPath id="SVGID_24_">
			<use xlink:href="#SVGID_23_"  overflow="visible"/>
		</clipPath>
		<path clip-path="url(#SVGID_24_)" fill="#ECC57C" d="M27,7.3c-1.7,0-3.1-1.4-3.1-3.1h-0.5c0,2,1.6,3.6,3.6,3.6s3.6-1.6,3.6-3.6H30
			C30,5.9,28.7,7.3,27,7.3"/>
	</g>
</g>
<g>
	<g>
		<defs>
			<rect id="SVGID_25_" x="23.3" y="0.5" width="7.3" height="3.6"/>
		</defs>
		<clipPath id="SVGID_26_">
			<use xlink:href="#SVGID_25_"  overflow="visible"/>
		</clipPath>
		<path clip-path="url(#SVGID_26_)" fill="#ECC57C" d="M27,0.5c-2,0-3.6,1.6-3.6,3.6h0.5c0-1.7,1.4-3.1,3.1-3.1S30,2.5,30,4.2h0.5
			C30.6,2.2,29,0.5,27,0.5"/>
	</g>
</g>
<g>
	<g>
		<defs>
			<rect id="SVGID_27_" x="9.3" y="37.2" width="35.2" height="1.6"/>
		</defs>
		<clipPath id="SVGID_28_">
			<use xlink:href="#SVGID_27_"  overflow="visible"/>
		</clipPath>
		<path clip-path="url(#SVGID_28_)" fill="#ECC57C" d="M9.3,37.3L27,37.2l17.6,0.1v0.2c-2.9,0.5-5.9,0.9-8.8,1
			c-2.9,0.2-5.9,0.3-8.8,0.3l-4.4-0.1c-1.5-0.1-2.9-0.1-4.4-0.2c-2.9-0.2-5.9-0.5-8.8-1.1V37.3z"/>
	</g>
</g>
<g>
	<g>
		<defs>
			<rect id="SVGID_29_" x="3" y="44.3" width="47.9" height="1.1"/>
		</defs>
		<clipPath id="SVGID_30_">
			<use xlink:href="#SVGID_29_"  overflow="visible"/>
		</clipPath>
		<path clip-path="url(#SVGID_30_)" fill="#ECC57C" d="M3,44.3l24-0.1l24,0.1v0.1c-2,0.2-4,0.3-6,0.5l-6,0.3c-4,0.2-8,0.1-12,0.2
			c-4-0.1-8-0.1-12-0.2l-6-0.3c-2-0.2-4-0.2-6-0.5V44.3z"/>
	</g>
</g>
<g>
	<g>
		<defs>
			<rect id="SVGID_31_" x="0" y="50.4" width="53.9" height="0.3"/>
		</defs>
		<clipPath id="SVGID_32_">
			<use xlink:href="#SVGID_31_"  overflow="visible"/>
		</clipPath>
		<polygon clip-path="url(#SVGID_32_)" fill="#ECC57C" points="0,50.7 6.7,50.5 13.5,50.5 27,50.4 40.4,50.5 47.2,50.5 53.9,50.7 
			53.9,50.7 0,50.7 		"/>
	</g>
</g>
<g>
	<g>
		<defs>
			<rect id="SVGID_33_" x="9.9" y="9.4" width="13.4" height="41.3"/>
		</defs>
		<clipPath id="SVGID_34_">
			<use xlink:href="#SVGID_33_"  overflow="visible"/>
		</clipPath>
		<path clip-path="url(#SVGID_34_)" fill="#ECC57C" d="M23.3,9.4c-1.1,0.7-1.7,1.7-2.3,2.8c-0.5,1.1-0.8,2.2-1.1,3.4
			c-0.2,1.2-0.4,2.3-0.5,3.6L19,22.8c-0.6,4.9-1.4,9.9-2.4,14.8l0,0.1c0,0.2-0.1,0.4-0.2,0.5c-0.4,0.5-0.7,1-1.1,1.5
			c-0.4,0.5-0.7,1-1,1.5c-0.3,0.5-0.6,1-0.8,1.6c-0.2,0.5-0.4,1.1-0.5,1.5l-0.5,0.9c0.1-0.1-0.1,0-0.1,0.1c-0.1,0.1-0.1,0.1-0.2,0.2
			c-0.1,0.2-0.3,0.3-0.4,0.6c-0.3,0.4-0.5,0.9-0.7,1.4c-0.4,1-0.6,2.1-0.8,3.2c-0.2-1.1-0.3-2.3-0.2-3.5c0.1-0.6,0.2-1.2,0.4-1.8
			c0.1-0.3,0.2-0.6,0.4-0.9c0.1-0.1,0.2-0.3,0.3-0.4c0.1-0.2,0.2-0.3,0.5-0.5l-0.5,0.9c-0.1-0.9,0.1-1.6,0.2-2.3
			c0.2-0.7,0.4-1.3,0.7-2c0.3-0.6,0.6-1.2,0.9-1.8c0.3-0.6,0.6-1.2,1-1.8l-0.3,0.6c0.5-5,1.3-9.9,2.4-14.8c0.3-1.2,0.5-2.5,0.9-3.7
			c0.3-1.2,0.7-2.5,1.2-3.7c0.5-1.2,1.2-2.4,2-3.4C20.9,10.5,22,9.6,23.3,9.4"/>
	</g>
</g>
<g opacity="0.4">
	<g>
		<defs>
			<rect id="SVGID_35_" x="30.1" y="9.4" width="14.1" height="41.3"/>
		</defs>
		<clipPath id="SVGID_36_">
			<use xlink:href="#SVGID_35_"  overflow="visible"/>
		</clipPath>
		<path clip-path="url(#SVGID_36_)" fill="#ECC57C" d="M30.1,9.4c1.4-0.1,2.8,0.7,3.9,1.7c1.1,1,2,2.2,2.6,3.4
			c0.3,0.6,0.7,1.3,0.9,1.9c0.3,0.7,0.5,1.3,0.7,1.9c0.4,1.2,0.8,2.4,1.1,3.6c1.3,4.9,2.1,9.8,2.4,14.9l-0.6-1.5
			c0.4,0.7,0.7,1.3,1,2c0.3,0.7,0.6,1.3,0.8,2c0.2,0.7,0.4,1.5,0.6,2.3c0.1,0.8,0.3,1.7,0.1,2.8l-1.2-2c0.3,0.2,0.3,0.2,0.4,0.3
			c0.1,0.1,0.1,0.1,0.2,0.2c0.1,0.1,0.2,0.2,0.3,0.3c0.2,0.2,0.3,0.4,0.4,0.6c0.2,0.4,0.3,0.8,0.4,1.1c0.2,0.7,0.2,1.4,0.2,2.1
			c0,0.7-0.1,1.3-0.3,1.9c-0.2,0.6-0.4,1.2-0.6,1.8c-0.5-1.1-1-2.2-1.6-3.1c-0.3-0.4-0.6-0.8-0.9-1.1c-0.1-0.1-0.3-0.2-0.4-0.3
			c-0.1,0-0.1,0-0.2,0c0,0,0,0,0,0c0,0,0,0,0,0c0,0,0,0,0.2,0.1c0.1,0.1,0.3,0,0.3-0.1c0.1-0.1,0-0.2,0-0.3l-1.5-1.6
			c-0.1-0.2-0.3-0.6-0.6-1c-0.3-0.4-0.6-0.9-0.9-1.3c-0.3-0.5-0.7-0.9-1.1-1.3c-0.4-0.4-0.8-0.9-1.1-1.3c-0.2-0.2-0.3-0.5-0.4-0.7
			l-0.2-0.8c-1.2-4.8-2-9.8-2.4-14.7c-0.1-1.2-0.2-2.5-0.2-3.7c0-0.6,0-1.2,0-1.8c0-0.6,0-1.1-0.1-1.7c-0.1-1.1-0.2-2.2-0.5-3.4
			C31.4,11.5,31.1,10.3,30.1,9.4"/>
	</g>
</g>
</svg>
