<?xml version="1.0" encoding="utf-8"?>
<!-- Generator: Adobe Illustrator 15.0.2, SVG Export Plug-In . SVG Version: 6.00 Build 0)  -->
<!DOCTYPE svg PUBLIC "-//W3C//DTD SVG 1.1//EN" "http://www.w3.org/Graphics/SVG/1.1/DTD/svg11.dtd">
<svg version="1.1" id="Layer_1" xmlns="http://www.w3.org/2000/svg" xmlns:xlink="http://www.w3.org/1999/xlink" x="0px" y="0px"
	 width="77.9px" height="27px" viewBox="0 0 77.9 27" enable-background="new 0 0 77.9 27" xml:space="preserve">
<path fill="#D3D2D2" d="M0,13.5v10v3.3c0.2,0.4,0.5,0,0.5,0c0-4.9,2.7-7.4,4.3-7.6c1.3-0.2,2.3-1.1,2.5-1.4C7.5,17.9,7.6,18,7.8,18
	c0.4,0,0.7-0.3,0.7-0.7v0L50,15.8v-2.1v-0.3v-2.1L8.5,9.7v0c0-0.4-0.3-0.7-0.7-0.7c-0.2,0-0.3,0.1-0.5,0.2C7.1,8.9,6.1,8,4.8,7.8
	C3.2,7.6,0.5,5.1,0.5,0.2c0,0-0.4-0.4-0.5,0v3.3V13.5z"/>
<path fill="#BBBABA" d="M8.5,9.7L8.5,9.7c0-0.4-0.3-0.7-0.7-0.7c-0.2,0-0.4,0.1-0.5,0.2C7.1,8.9,6.2,8,4.8,7.8
	C3.3,7.6,0.6,5.1,0.6,0.2c0,0-0.4-0.4-0.5,0v3.3v0.1c0.2-0.3,0.5,0,0.5,0c0,3.7,2.7,5.6,4.3,5.7c1.3,0.1,2.3,0.8,2.5,1.1
	c0.1-0.1,0.3-0.2,0.5-0.2c0.4,0,0.7,0.2,0.7,0.5v0L50,11.8v-0.6L8.5,9.7z"/>
<path fill="#918F90" d="M8.5,16.4c0,0.3-0.3,0.5-0.7,0.5c-0.2,0-0.4-0.1-0.5-0.1c-0.3,0.2-1.2,0.9-2.5,1.1c-1.6,0.2-4.3,2-4.3,5.7
	c0,0-0.4,0.3-0.5,0v0.1v3.3c0.2,0.4,0.5,0,0.5,0c0-4.9,2.7-7.4,4.3-7.6c1.3-0.2,2.3-1.1,2.5-1.4C7.5,17.9,7.7,18,7.8,18
	c0.4,0,0.7-0.3,0.7-0.7v0L50,15.8v-0.6L8.5,16.4L8.5,16.4z"/>
<g opacity="0.5">
	<g>
		<defs>
			<rect id="SVGID_1_" x="0" y="3.4" width="50" height="8.8"/>
		</defs>
		<clipPath id="SVGID_2_">
			<use xlink:href="#SVGID_1_"  overflow="visible"/>
		</clipPath>
		<path clip-path="url(#SVGID_2_)" fill="#F4F4F4" d="M8.5,10.7c0-0.3-0.3-0.5-0.7-0.5c-0.2,0-0.4,0.1-0.5,0.2
			c-0.3-0.2-1.2-0.9-2.5-1.1c-1.6-0.2-4.3-2-4.3-5.7c0,0-0.4-0.3-0.5,0V6v2.2c0.2-0.1,0.5,0,0.5,0c0,1.8,2.7,2.7,4.3,2.8
			c1.3,0.1,2.3,0.4,2.5,0.5c0.1,0,0.3-0.1,0.5-0.1c0.4,0,0.7,0.1,0.7,0.2v0L50,12.1v-0.3L8.5,10.7L8.5,10.7z"/>
	</g>
</g>
<rect x="47.9" y="9.2" fill="#BDBCBC" width="4" height="8.8"/>
<rect x="47.9" y="16.9" fill="#9C9A9B" width="4" height="1.1"/>
<rect x="47.9" y="9.2" fill="#9C9A9B" width="4" height="1.1"/>
<rect x="47.9" y="11.9" fill="#E9E9E9" width="4" height="1.2"/>
<path fill="#2E2A2B" d="M66.3,1.9c-3.7,0-6.6,1.8-8.4,4.5c-1.1,1.2-3.1,2.8-6,2.8v4.4v0.1V18c3,0,5.1,1.7,6.2,2.9
	c0.2,0.3,0.5,0.7,0.8,1c0,0.1,0.1,0.1,0.1,0.1v0c1.8,2,4.3,3.3,7.5,3.3c6.4,0,11.6-5.2,11.6-11.6C77.9,7.1,72.7,1.9,66.3,1.9"/>
<g opacity="0.4">
	<g>
		<defs>
			<rect id="SVGID_3_" x="51.9" y="13.6" width="26" height="11.7"/>
		</defs>
		<clipPath id="SVGID_4_">
			<use xlink:href="#SVGID_3_"  overflow="visible"/>
		</clipPath>
		<path clip-path="url(#SVGID_4_)" fill="#231F20" d="M66.3,22.7c-3.1,0-5.7-1-7.5-2.6v0c0,0,0,0-0.1-0.1c-0.3-0.2-0.5-0.5-0.8-0.8
			C57,18.4,54.9,17,51.9,17v1c3,0,5.1,1.7,6.2,2.9c0.2,0.3,0.5,0.7,0.8,1c0,0.1,0.1,0.1,0.1,0.1v0c1.8,2,4.3,3.3,7.5,3.3
			c6.4,0,11.6-5.2,11.6-11.6c0,0,0,0,0-0.1C77.9,18.6,72.7,22.7,66.3,22.7"/>
	</g>
</g>
<path fill="#E4E4E4" d="M0.3,12.5c0.1,0,0.3,0.1,0.4,0.1c0.1,0,0.3,0.1,0.4,0.1c0.3,0.1,0.6,0.1,0.9,0.1c0.6,0,1.1,0.1,1.7,0.2
	c0.6,0,1.2,0.1,1.8,0.1l1.7,0.1L7,13.4c0.1-0.2,0.2-0.2,0.3-0.3C7.5,13,7.6,13,7.8,13l0,0l0.1,0l0,0L8,13C8,13,8,13,8.1,13
	c0.1,0,0.2,0.1,0.2,0.1c0.1,0.1,0.1,0.1,0.2,0.2l-0.3-0.2c1.6,0,3.2,0,4.8,0c1.6,0,3.2,0.1,4.8,0.1c1.6,0,3.2,0,4.8-0.1l4.8-0.1
	c3.2-0.1,6.5-0.1,9.7,0c3.2,0.1,6.5,0.1,9.7,0.3v0.1c-3.2,0.2-6.5,0.2-9.7,0.3c-3.2,0-6.5,0-9.7,0l-4.8-0.1c-1.6,0-3.2-0.1-4.8-0.1
	c-1.6,0-3.2,0.1-4.8,0.1c-1.6,0.1-3.2,0.1-4.8,0L8,13.6c0,0,0,0,0,0c0,0,0,0,0,0c0,0-0.1,0-0.1,0l-0.1,0l0,0c0,0-0.1,0,0,0l0,0
	c-0.1,0-0.1,0-0.2,0c-0.1,0-0.1,0.1-0.1,0.1l-0.1,0.1l-0.1,0l-1.8-0.1c-0.6-0.1-1.2-0.2-1.8-0.2c-0.6-0.1-1.2-0.2-1.8-0.3
	c-0.3-0.1-0.6-0.1-0.9-0.2c-0.1,0-0.3-0.1-0.4-0.1C0.5,12.7,0.4,12.7,0.3,12.5L0.3,12.5z"/>
<g opacity="0.5">
	<g>
		<defs>
			<rect id="SVGID_5_" x="7.2" y="9.5" width="0.3" height="7.9"/>
		</defs>
		<clipPath id="SVGID_6_">
			<use xlink:href="#SVGID_5_"  overflow="visible"/>
		</clipPath>
		<path clip-path="url(#SVGID_6_)" fill="#9A9898" d="M7.4,9.5c0,0,0.1,0.5,0.1,1.2c0,0.7,0.1,1.7,0.1,2.7c0,1,0,2-0.1,2.7
			c0,0.7-0.1,1.2-0.1,1.2s-0.1-0.5-0.1-1.2c0-0.7-0.1-1.7-0.1-2.7c0-1,0-2,0.1-2.7C7.3,10,7.4,9.5,7.4,9.5"/>
	</g>
</g>
<g opacity="0.5">
	<g>
		<defs>
			<rect id="SVGID_7_" x="8.3" y="9.9" width="0.3" height="7.2"/>
		</defs>
		<clipPath id="SVGID_8_">
			<use xlink:href="#SVGID_7_"  overflow="visible"/>
		</clipPath>
		<path clip-path="url(#SVGID_8_)" fill="#9A9898" d="M8.5,9.9c0,0,0,0.4,0.1,1.1c0,0.7,0.1,1.6,0.1,2.5c0,0.9,0,1.8-0.1,2.5
			c0,0.7-0.1,1.1-0.1,1.1s0-0.4-0.1-1.1c0-0.7-0.1-1.6-0.1-2.5c0-0.9,0-1.8,0.1-2.5C8.4,10.4,8.5,9.9,8.5,9.9"/>
	</g>
</g>
<g opacity="0.5">
	<g>
		<defs>
			<rect id="SVGID_9_" x="0.5" y="2.3" width="0.2" height="21.7"/>
		</defs>
		<clipPath id="SVGID_10_">
			<use xlink:href="#SVGID_9_"  overflow="visible"/>
		</clipPath>
		<path clip-path="url(#SVGID_10_)" fill="#F8F8F8" d="M0.6,2.3c0,0,0,1.4,0,3.4c0,2,0,4.8,0,7.5c0,2.7,0,5.4,0,7.5c0,2,0,3.4,0,3.4
			s0-1.4,0-3.4c0-2,0-4.8,0-7.5c0-2.7,0-5.4,0-7.5C0.6,3.7,0.6,2.3,0.6,2.3"/>
	</g>
</g>
<g opacity="0.3">
	<g>
		<defs>
			<rect id="SVGID_11_" x="53.1" y="6.7" width="20.8" height="5.9"/>
		</defs>
		<clipPath id="SVGID_12_">
			<use xlink:href="#SVGID_11_"  overflow="visible"/>
		</clipPath>
		<path clip-path="url(#SVGID_12_)" fill="#E9E9E9" d="M53.1,12.6c0,0,0.4,0,1-0.1c0.3,0,0.7-0.1,1.1-0.2c0.4-0.1,0.9-0.2,1.4-0.3
			c0.5-0.1,1-0.3,1.6-0.6c0.5-0.3,1-0.7,1.5-1.1c1-0.8,2.2-1.7,3.5-2.4c0.6-0.3,1.3-0.6,2-0.8c0.7-0.2,1.4-0.3,2.1-0.3
			c0.7,0,1.3,0.1,1.9,0.2c0.6,0.1,1.2,0.3,1.7,0.5c0.5,0.2,0.9,0.4,1.3,0.6c0.4,0.2,0.7,0.4,1,0.6c0.5,0.3,0.8,0.5,0.8,0.5l0,0
			c0,0-0.3-0.2-0.9-0.5c-0.3-0.1-0.6-0.4-1-0.5c-0.4-0.2-0.8-0.4-1.3-0.5c-0.5-0.1-1-0.3-1.6-0.4c-0.3,0-0.6-0.1-0.9-0.1
			c-0.3,0-0.6,0-1,0c-0.7,0-1.3,0.1-2,0.2c-0.7,0.1-1.3,0.4-2,0.7c-0.6,0.3-1.3,0.6-1.8,1c-0.6,0.4-1.1,0.8-1.6,1.3
			c-0.5,0.5-0.9,0.9-1.5,1.2c-0.5,0.3-1.1,0.5-1.6,0.6c-0.5,0.2-1,0.2-1.4,0.3c-0.4,0-0.8,0.1-1.1,0.1
			C53.5,12.6,53.1,12.6,53.1,12.6L53.1,12.6z"/>
	</g>
</g>
<g opacity="0.6">
	<g>
		<defs>
			<rect id="SVGID_13_" x="66.6" y="7.8" width="5.9" height="3"/>
		</defs>
		<clipPath id="SVGID_14_">
			<use xlink:href="#SVGID_13_"  overflow="visible"/>
		</clipPath>
		<path clip-path="url(#SVGID_14_)" fill="#E9E9E9" d="M72.5,10.6c-0.2,0.5-1.7,0.3-3.3-0.4c-1.6-0.7-2.8-1.6-2.6-2.1
			c0.2-0.5,1.7-0.3,3.3,0.4C71.5,9.2,72.7,10.2,72.5,10.6"/>
	</g>
</g>
</svg>
