<?xml version="1.0" encoding="utf-8"?>
<!-- Generator: Adobe Illustrator 15.0.2, SVG Export Plug-In . SVG Version: 6.00 Build 0)  -->
<!DOCTYPE svg PUBLIC "-//W3C//DTD SVG 1.1//EN" "http://www.w3.org/Graphics/SVG/1.1/DTD/svg11.dtd">
<svg version="1.1" id="Layer_1" xmlns="http://www.w3.org/2000/svg" xmlns:xlink="http://www.w3.org/1999/xlink" x="0px" y="0px"
	 width="69.5px" height="41.2px" viewBox="0 0 69.5 41.2" enable-background="new 0 0 69.5 41.2" xml:space="preserve">
<path fill="none" stroke="#C8C7C7" stroke-width="0.186" stroke-miterlimit="10" d="M50.9,1c0.9,0.3,1.8,0.2,2.4,1
	C54,3.1,54.4,4.6,54,5.9c-0.6,2.4-3.5,3-4.7,4.9"/>
<path fill="none" stroke="#C8C7C7" stroke-width="0.186" stroke-miterlimit="10" d="M51.4,0.5C54.2,1,57.5,3,55.8,6.3
	C54,9.6,48.6,8.9,45.6,9"/>
<path fill="none" stroke="#C8C7C7" stroke-width="0.186" stroke-miterlimit="10" d="M50.9,0.4c3.1,0,6.4,3,5,6.3
	c-0.7,1.7-1.2,2.6-2.6,3.8c-0.8,0.8-3.2,1.6-4.3,1.4"/>
<path fill="none" stroke="#464A47" stroke-width="1.301" stroke-linecap="round" stroke-miterlimit="10" d="M28.5,29.1
	c0.1-0.5,0.1-1,0.1-1.5c0-7.8-6.3-14.1-14.1-14.1c-6.9,0-12.7,5-13.8,11.6"/>
<path fill="none" stroke="#464A47" stroke-width="1.301" stroke-linecap="round" stroke-miterlimit="10" d="M55.1,13.9
	c-6.5,0-11.9,4.7-13,10.9"/>
<path fill="#C1C0C1" d="M14.5,15.6c6.7,0,12.1,5.4,12.1,12.1c0,6.7-5.4,12.1-12.1,12.1S2.4,34.3,2.4,27.7C2.4,21,7.8,15.6,14.5,15.6
	 M14.5,14.1C7,14.1,0.9,20.2,0.9,27.7c0,7.5,6.1,13.6,13.6,13.6c7.5,0,13.6-6.1,13.6-13.6C28.1,20.2,22,14.1,14.5,14.1"/>
<path fill="#393536" d="M14.5,14.6c7.2,0,13,5.8,13,13c0,7.2-5.8,13-13,13c-7.2,0-13-5.8-13-13C1.5,20.5,7.3,14.6,14.5,14.6
	 M14.5,14.1C7,14.1,0.9,20.2,0.9,27.7c0,7.5,6.1,13.6,13.6,13.6c7.5,0,13.6-6.1,13.6-13.6C28.1,20.2,22,14.1,14.5,14.1"/>
<line fill="none" stroke="#B2B1B1" stroke-width="0.148" stroke-miterlimit="10" x1="13.4" y1="15.2" x2="15.6" y2="40"/>
<line fill="none" stroke="#B2B1B1" stroke-width="0.148" stroke-miterlimit="10" x1="15.6" y1="15.2" x2="13.4" y2="40"/>
<line fill="none" stroke="#B2B1B1" stroke-width="0.148" stroke-miterlimit="10" x1="6.3" y1="18.2" x2="22.7" y2="37"/>
<line fill="none" stroke="#B2B1B1" stroke-width="0.148" stroke-miterlimit="10" x1="8.1" y1="16.9" x2="20.9" y2="38.3"/>
<line fill="none" stroke="#B2B1B1" stroke-width="0.148" stroke-miterlimit="10" x1="2.4" y1="24.8" x2="26.6" y2="30.4"/>
<line fill="none" stroke="#B2B1B1" stroke-width="0.148" stroke-miterlimit="10" x1="3.1" y1="22.7" x2="25.9" y2="32.5"/>
<line fill="none" stroke="#B2B1B1" stroke-width="0.148" stroke-miterlimit="10" x1="3.1" y1="32.5" x2="25.9" y2="22.7"/>
<line fill="none" stroke="#B2B1B1" stroke-width="0.148" stroke-miterlimit="10" x1="2.4" y1="30.4" x2="26.6" y2="24.8"/>
<line fill="none" stroke="#B2B1B1" stroke-width="0.148" stroke-miterlimit="10" x1="8.1" y1="38.3" x2="20.9" y2="16.9"/>
<line fill="none" stroke="#B2B1B1" stroke-width="0.148" stroke-miterlimit="10" x1="6.3" y1="37" x2="22.7" y2="18.2"/>
<g opacity="0.3">
	<g>
		<defs>
			<rect id="SVGID_1_" x="0.9" y="14.1" width="27.2" height="27.2"/>
		</defs>
		<clipPath id="SVGID_2_">
			<use xlink:href="#SVGID_1_"  overflow="visible"/>
		</clipPath>
		<g clip-path="url(#SVGID_2_)">
			<g>
				<defs>
					<rect id="SVGID_3_" x="1.4" y="27.7" width="26.1" height="13"/>
				</defs>
				<clipPath id="SVGID_4_">
					<use xlink:href="#SVGID_3_"  overflow="visible"/>
				</clipPath>
				<path clip-path="url(#SVGID_4_)" fill="#C1C0C1" d="M14.5,40.7c7.2,0,13-5.8,13-13h-0.9c0,6.7-5.4,12.1-12.1,12.1
					c-6.7,0-12.1-5.4-12.1-12.1H1.4C1.4,34.8,7.3,40.7,14.5,40.7"/>
			</g>
		</g>
		<g clip-path="url(#SVGID_2_)">
			<g>
				<defs>
					<rect id="SVGID_5_" x="0.9" y="27.7" width="27.2" height="13.6"/>
				</defs>
				<clipPath id="SVGID_6_">
					<use xlink:href="#SVGID_5_"  overflow="visible"/>
				</clipPath>
				<path clip-path="url(#SVGID_6_)" fill="#393536" d="M14.5,40.7c-7.2,0-13-5.8-13-13H0.9c0,7.5,6.1,13.6,13.6,13.6
					c7.5,0,13.6-6.1,13.6-13.6h-0.6C27.5,34.8,21.7,40.7,14.5,40.7"/>
			</g>
		</g>
		<g clip-path="url(#SVGID_2_)">
			<g>
				<defs>
					<rect id="SVGID_7_" x="1.4" y="14.6" width="26.1" height="13"/>
				</defs>
				<clipPath id="SVGID_8_">
					<use xlink:href="#SVGID_7_"  overflow="visible"/>
				</clipPath>
				<path clip-path="url(#SVGID_8_)" fill="#C1C0C1" d="M2.4,27.7c0-6.7,5.4-12.1,12.1-12.1c6.7,0,12.1,5.4,12.1,12.1h0.9
					c0-7.2-5.8-13-13-13c-7.2,0-13,5.8-13,13H2.4z"/>
			</g>
		</g>
		<g clip-path="url(#SVGID_2_)">
			<g>
				<defs>
					<rect id="SVGID_9_" x="0.9" y="14.1" width="27.2" height="13.6"/>
				</defs>
				<clipPath id="SVGID_10_">
					<use xlink:href="#SVGID_9_"  overflow="visible"/>
				</clipPath>
				<path clip-path="url(#SVGID_10_)" fill="#393536" d="M14.5,14.1C7,14.1,0.9,20.2,0.9,27.7v0h0.6v0c0-7.2,5.8-13,13-13
					c7.2,0,13,5.8,13,13v0h0.6v0C28.1,20.2,22,14.1,14.5,14.1"/>
			</g>
		</g>
	</g>
</g>
<g>
	<g>
		<defs>
			<rect id="SVGID_11_" x="1.7" y="27.4" width="25.6" height="12.9"/>
		</defs>
		<clipPath id="SVGID_12_">
			<use xlink:href="#SVGID_11_"  overflow="visible"/>
		</clipPath>
		<path clip-path="url(#SVGID_12_)" fill="#BDBCBC" d="M27.3,27.4c0,1.7-0.3,3.4-0.9,4.9c-0.6,1.6-1.6,3-2.8,4.2
			c-2.4,2.4-5.7,3.8-9.1,3.8c-3.4,0-6.7-1.4-9.1-3.8c-1.2-1.2-2.1-2.6-2.8-4.2c-0.6-1.6-0.9-3.2-0.9-4.9c0,3.4,1.4,6.6,3.8,9
			c2.4,2.4,5.7,3.7,9,3.7c3.3,0,6.6-1.3,9-3.7C25.8,34,27.3,30.8,27.3,27.4"/>
	</g>
</g>
<g>
	<g>
		<defs>
			<rect id="SVGID_13_" x="1.7" y="14.8" width="25.6" height="12.9"/>
		</defs>
		<clipPath id="SVGID_14_">
			<use xlink:href="#SVGID_13_"  overflow="visible"/>
		</clipPath>
		<path clip-path="url(#SVGID_14_)" fill="#BDBCBC" d="M1.7,27.7c0-1.7,0.3-3.4,0.9-4.9c0.6-1.6,1.6-3,2.8-4.2
			c2.4-2.4,5.7-3.8,9.1-3.8c3.4,0,6.7,1.4,9.1,3.8c1.2,1.2,2.1,2.6,2.8,4.2c0.6,1.6,0.9,3.2,0.9,4.9c0-3.4-1.4-6.6-3.8-9
			c-2.4-2.4-5.7-3.7-9-3.7c-3.3,0-6.6,1.3-9,3.7C3.1,21.1,1.7,24.4,1.7,27.7"/>
	</g>
</g>
<path fill="#C1C0C1" d="M55.9,15.6C62.6,15.6,68,21,68,27.7c0,6.7-5.4,12.1-12.1,12.1c-6.7,0-12.1-5.4-12.1-12.1
	C43.8,21,49.2,15.6,55.9,15.6 M55.9,14.1c-7.5,0-13.6,6.1-13.6,13.6s6.1,13.6,13.6,13.6s13.6-6.1,13.6-13.6S63.4,14.1,55.9,14.1"/>
<path fill="#393536" d="M55.9,14.6c7.2,0,13,5.8,13,13c0,7.2-5.8,13-13,13c-7.2,0-13-5.8-13-13C42.9,20.5,48.7,14.6,55.9,14.6
	 M55.9,14.1c-7.5,0-13.6,6.1-13.6,13.6s6.1,13.6,13.6,13.6s13.6-6.1,13.6-13.6S63.4,14.1,55.9,14.1"/>
<line fill="none" stroke="#B2B1B1" stroke-width="0.148" stroke-miterlimit="10" x1="54.7" y1="15.2" x2="57" y2="40"/>
<line fill="none" stroke="#B2B1B1" stroke-width="0.148" stroke-miterlimit="10" x1="57" y1="15.2" x2="54.7" y2="40"/>
<line fill="none" stroke="#B2B1B1" stroke-width="0.148" stroke-miterlimit="10" x1="47.7" y1="18.2" x2="64" y2="37"/>
<line fill="none" stroke="#B2B1B1" stroke-width="0.148" stroke-miterlimit="10" x1="49.5" y1="16.9" x2="62.2" y2="38.3"/>
<line fill="none" stroke="#B2B1B1" stroke-width="0.148" stroke-miterlimit="10" x1="43.7" y1="24.8" x2="68" y2="30.4"/>
<line fill="none" stroke="#B2B1B1" stroke-width="0.148" stroke-miterlimit="10" x1="44.4" y1="22.7" x2="67.3" y2="32.5"/>
<line fill="none" stroke="#B2B1B1" stroke-width="0.148" stroke-miterlimit="10" x1="44.4" y1="32.5" x2="67.3" y2="22.7"/>
<line fill="none" stroke="#B2B1B1" stroke-width="0.148" stroke-miterlimit="10" x1="43.7" y1="30.4" x2="68" y2="24.8"/>
<line fill="none" stroke="#B2B1B1" stroke-width="0.148" stroke-miterlimit="10" x1="49.5" y1="38.3" x2="62.2" y2="16.9"/>
<line fill="none" stroke="#B2B1B1" stroke-width="0.148" stroke-miterlimit="10" x1="47.7" y1="37" x2="64" y2="18.2"/>
<g opacity="0.3">
	<g>
		<defs>
			<rect id="SVGID_15_" x="42.3" y="14.1" width="27.2" height="27.2"/>
		</defs>
		<clipPath id="SVGID_16_">
			<use xlink:href="#SVGID_15_"  overflow="visible"/>
		</clipPath>
		<g clip-path="url(#SVGID_16_)">
			<g>
				<defs>
					<rect id="SVGID_17_" x="42.8" y="27.7" width="26.1" height="13"/>
				</defs>
				<clipPath id="SVGID_18_">
					<use xlink:href="#SVGID_17_"  overflow="visible"/>
				</clipPath>
				<path clip-path="url(#SVGID_18_)" fill="#C1C0C1" d="M55.8,40.7c7.2,0,13-5.8,13-13H68c0,6.7-5.4,12.1-12.1,12.1
					c-6.7,0-12.1-5.4-12.1-12.1h-0.9C42.8,34.8,48.7,40.7,55.8,40.7"/>
			</g>
		</g>
		<g clip-path="url(#SVGID_16_)">
			<g>
				<defs>
					<rect id="SVGID_19_" x="42.3" y="27.7" width="27.2" height="13.6"/>
				</defs>
				<clipPath id="SVGID_20_">
					<use xlink:href="#SVGID_19_"  overflow="visible"/>
				</clipPath>
				<path clip-path="url(#SVGID_20_)" fill="#393536" d="M55.8,40.7c-7.2,0-13-5.8-13-13h-0.6c0,7.5,6.1,13.6,13.6,13.6
					s13.6-6.1,13.6-13.6h-0.6C68.9,34.8,63,40.7,55.8,40.7"/>
			</g>
		</g>
		<g clip-path="url(#SVGID_16_)">
			<g>
				<defs>
					<rect id="SVGID_21_" x="42.8" y="14.6" width="26.1" height="13"/>
				</defs>
				<clipPath id="SVGID_22_">
					<use xlink:href="#SVGID_21_"  overflow="visible"/>
				</clipPath>
				<path clip-path="url(#SVGID_22_)" fill="#C1C0C1" d="M43.7,27.7c0-6.7,5.4-12.1,12.1-12.1C62.5,15.6,68,21,68,27.7h0.9
					c0-7.2-5.8-13-13-13s-13,5.8-13,13H43.7z"/>
			</g>
		</g>
		<g clip-path="url(#SVGID_16_)">
			<g>
				<defs>
					<rect id="SVGID_23_" x="42.3" y="14.1" width="27.2" height="13.6"/>
				</defs>
				<clipPath id="SVGID_24_">
					<use xlink:href="#SVGID_23_"  overflow="visible"/>
				</clipPath>
				<path clip-path="url(#SVGID_24_)" fill="#393536" d="M55.8,14.1c-7.5,0-13.6,6.1-13.6,13.6h0.6c0-7.2,5.8-13,13-13
					c7.2,0,13,5.8,13,13h0.6C69.4,20.1,63.4,14.1,55.8,14.1"/>
			</g>
		</g>
	</g>
</g>
<g>
	<g>
		<defs>
			<rect id="SVGID_25_" x="43.1" y="27.4" width="25.6" height="12.9"/>
		</defs>
		<clipPath id="SVGID_26_">
			<use xlink:href="#SVGID_25_"  overflow="visible"/>
		</clipPath>
		<path clip-path="url(#SVGID_26_)" fill="#BDBCBC" d="M68.7,27.4c0,1.7-0.3,3.4-0.9,4.9c-0.6,1.6-1.6,3-2.8,4.2
			c-2.4,2.4-5.7,3.8-9.1,3.8c-3.4,0-6.7-1.4-9.1-3.8c-1.2-1.2-2.1-2.6-2.8-4.2c-0.6-1.6-0.9-3.2-0.9-4.9c0,3.4,1.4,6.6,3.8,9
			c2.4,2.4,5.7,3.7,9,3.7c3.3,0,6.6-1.3,9-3.7C67.2,34,68.6,30.8,68.7,27.4"/>
	</g>
</g>
<g>
	<g>
		<defs>
			<rect id="SVGID_27_" x="43.1" y="14.8" width="25.6" height="12.9"/>
		</defs>
		<clipPath id="SVGID_28_">
			<use xlink:href="#SVGID_27_"  overflow="visible"/>
		</clipPath>
		<path clip-path="url(#SVGID_28_)" fill="#BDBCBC" d="M43.1,27.7c0-1.7,0.3-3.4,0.9-4.9c0.6-1.6,1.6-3,2.8-4.2
			c2.4-2.4,5.7-3.8,9.1-3.8c3.4,0,6.7,1.4,9.1,3.8c1.2,1.2,2.1,2.6,2.8,4.2c0.6,1.6,0.9,3.2,0.9,4.9c0-3.4-1.4-6.6-3.8-9
			c-2.4-2.4-5.7-3.7-9-3.7c-3.3,0-6.6,1.3-9,3.7C44.5,21.1,43.1,24.4,43.1,27.7"/>
	</g>
</g>
<path fill="none" stroke="#597F5C" stroke-width="1.115" stroke-miterlimit="10" d="M47.4,6.8l2,5.9c0,0,0.3,1.7,0.9,3
	c0.6,1.3,5.6,12,5.6,12"/>
<g>
	<g>
		<defs>
			<rect id="SVGID_29_" x="47.2" y="7.3" width="8.3" height="20.4"/>
		</defs>
		<clipPath id="SVGID_30_">
			<use xlink:href="#SVGID_29_"  overflow="visible"/>
		</clipPath>
		<path clip-path="url(#SVGID_30_)" fill="#597F5C" d="M47.2,7.3c0.4,1,0.7,1.9,1,2.9c0.3,1,0.7,1.9,1,2.9l0,0v0
			c0.2,1.3,0.6,2.6,1.3,3.8l1.7,3.6c1.1,2.4,2.3,4.8,3.3,7.3l0,0c-1.2-2.4-2.3-4.8-3.5-7.2l-1.7-3.6c-0.6-1.2-1.1-2.5-1.3-3.8l0,0
			c-0.3-1-0.7-1.9-1-2.9C47.8,9.2,47.5,8.3,47.2,7.3L47.2,7.3z"/>
	</g>
</g>
<g>
	<g>
		<defs>
			<rect id="SVGID_31_" x="47.7" y="7" width="8.3" height="20.4"/>
		</defs>
		<clipPath id="SVGID_32_">
			<use xlink:href="#SVGID_31_"  overflow="visible"/>
		</clipPath>
		<path clip-path="url(#SVGID_32_)" fill="#597F5C" d="M47.7,7c0.4,1,0.7,1.9,1,2.9c0.3,1,0.7,1.9,1,2.9l0,0v0
			c0.2,1.3,0.6,2.6,1.3,3.8l1.7,3.6c1.1,2.4,2.3,4.8,3.3,7.3l0,0c-1.2-2.4-2.3-4.8-3.5-7.2l-1.7-3.6c-0.6-1.2-1.1-2.5-1.3-3.8l0,0
			c-0.3-1-0.7-1.9-1-2.9C48.3,9,48,8,47.7,7L47.7,7z"/>
	</g>
</g>
<path fill="#BDBCBC" d="M55.1,27.6c0,0.4,0.3,0.7,0.7,0.7s0.7-0.3,0.7-0.7c0-0.4-0.3-0.7-0.7-0.7S55.1,27.2,55.1,27.6"/>
<path fill="#918F90" d="M55.5,27.6c0,0.2,0.2,0.4,0.4,0.4c0.2,0,0.4-0.2,0.4-0.4c0-0.2-0.2-0.4-0.4-0.4
	C55.6,27.2,55.5,27.4,55.5,27.6"/>
<g>
	<g>
		<defs>
			<rect id="SVGID_33_" x="55.5" y="27.3" width="0.8" height="0.9"/>
		</defs>
		<clipPath id="SVGID_34_">
			<use xlink:href="#SVGID_33_"  overflow="visible"/>
		</clipPath>
		<path clip-path="url(#SVGID_34_)" fill="#D3D2D2" d="M55.5,27.7c0,0.3,0.2,0.5,0.4,0.5c0.2,0,0.4-0.2,0.4-0.5s-0.2-0.5-0.4-0.5
			C55.6,27.3,55.5,27.5,55.5,27.7"/>
	</g>
</g>
<polyline fill="none" stroke="#597F5C" stroke-width="1.115" stroke-linecap="round" stroke-miterlimit="10" points="48.5,11.3 
	32,30.4 27.2,13.5 47.3,8.2 "/>
<line fill="none" stroke="#597F5C" stroke-width="0.743" stroke-linecap="round" stroke-miterlimit="10" x1="26.8" y1="13.8" x2="14.6" y2="27.4"/>
<line fill="none" stroke="#597F5C" stroke-width="1.115" stroke-linecap="round" stroke-miterlimit="10" x1="15.2" y1="27.9" x2="32.1" y2="30.6"/>
<line fill="none" stroke="#597F5C" stroke-width="1.115" stroke-linecap="square" stroke-miterlimit="10" x1="26.4" y1="10.5" x2="27.4" y2="14.1"/>
<path fill="none" stroke="#DEDDDE" stroke-width="1.115" stroke-miterlimit="10" d="M26.3,9.9l-0.9-3.2c0,0-0.3-0.5-1.2-0.5
	c-0.9,0-1-1.4-1-1.4"/>
<g>
	<g>
		<defs>
			<rect id="SVGID_35_" x="23.6" y="5.1" width="2.9" height="4.5"/>
		</defs>
		<clipPath id="SVGID_36_">
			<use xlink:href="#SVGID_35_"  overflow="visible"/>
		</clipPath>
		<path clip-path="url(#SVGID_36_)" fill="#DEDDDE" d="M23.6,5.1C23.8,5.6,24,6.1,24.6,6c0.5,0.1,1,0.3,1.2,0.8
			c0.2,0.5,0.3,0.9,0.4,1.4c0.1,0.5,0.2,0.9,0.3,1.4c-0.2-0.5-0.3-0.9-0.5-1.4c-0.1-0.5-0.3-0.9-0.4-1.4c-0.2-0.4-0.6-0.7-1.1-0.7
			c-0.1,0-0.2,0-0.4-0.1c-0.1,0-0.2-0.1-0.3-0.2C23.7,5.6,23.7,5.3,23.6,5.1"/>
	</g>
</g>
<g>
	<g>
		<defs>
			<rect id="SVGID_37_" x="22.9" y="5.2" width="2.9" height="4.7"/>
		</defs>
		<clipPath id="SVGID_38_">
			<use xlink:href="#SVGID_37_"  overflow="visible"/>
		</clipPath>
		<path clip-path="url(#SVGID_38_)" fill="#918F90" d="M22.9,5.2c0.1,0.5,0.3,1,0.7,1.3c0.2,0.1,0.4,0.2,0.7,0.2l0.4,0.1
			c0.1,0,0.3,0,0.4,0.2c0.2,0.5,0.3,1,0.5,1.5c0.1,0.5,0.2,1,0.3,1.5c-0.2-0.5-0.3-1-0.4-1.5c-0.1-0.5-0.3-1-0.5-1.4
			c-0.1-0.1-0.4-0.1-0.7-0.2c-0.2-0.1-0.5-0.1-0.7-0.3C23.1,6.2,22.9,5.7,22.9,5.2"/>
	</g>
</g>
<line fill="none" stroke="#DEDDDE" stroke-width="0.518" stroke-linecap="round" stroke-miterlimit="10" x1="21.2" y1="5.9" x2="23.2" y2="5.9"/>
<line fill="none" stroke="#597F5C" stroke-width="0.186" stroke-linecap="round" stroke-miterlimit="10" x1="26.8" y1="9.7" x2="25.3" y2="10.1"/>
<path fill="#DEDDDE" d="M24,6c0,0.3-0.3,0.6-0.6,0.6c-0.3,0-0.6-0.3-0.6-0.6s0.3-0.6,0.6-0.6C23.8,5.4,24,5.7,24,6"/>
<path fill="#B2B1B1" d="M23.7,6c0,0.1-0.1,0.3-0.3,0.3c-0.1,0-0.3-0.1-0.3-0.3s0.1-0.3,0.3-0.3C23.6,5.7,23.7,5.9,23.7,6"/>
<path fill="#975F5A" d="M20,2.1h9c0,0,1.2,0,1.1,1.4c0,0,0,0.6-1.1,0.7c-1.2,0-2.3,0.2-3,1c-0.7,0.7-2.7,1-4.2,0.4
	c-1.5-0.6-2.5-1.4-2.6-1.8C19.2,3.3,19,2.3,20,2.1"/>
<g>
	<g>
		<defs>
			<rect id="SVGID_39_" x="27.9" y="7.8" width="19.3" height="5.1"/>
		</defs>
		<clipPath id="SVGID_40_">
			<use xlink:href="#SVGID_39_"  overflow="visible"/>
		</clipPath>
		<path clip-path="url(#SVGID_40_)" fill="#597F5C" d="M47.2,7.8c-3.2,0.9-6.4,1.8-9.6,2.6c-3.2,0.8-6.4,1.7-9.7,2.5
			c3.2-0.9,6.4-1.8,9.6-2.6C40.7,9.5,44,8.6,47.2,7.8"/>
	</g>
</g>
<g>
	<g>
		<defs>
			<rect id="SVGID_41_" x="28.2" y="8.5" width="19.3" height="5.1"/>
		</defs>
		<clipPath id="SVGID_42_">
			<use xlink:href="#SVGID_41_"  overflow="visible"/>
		</clipPath>
		<path clip-path="url(#SVGID_42_)" fill="#597F5C" d="M47.5,8.5c-3.2,0.9-6.4,1.8-9.6,2.6c-3.2,0.8-6.4,1.7-9.7,2.5
			c3.2-0.9,6.4-1.8,9.6-2.6C41.1,10.2,44.3,9.3,47.5,8.5"/>
	</g>
</g>
<g>
	<g>
		<defs>
			<rect id="SVGID_43_" x="32.6" y="11.1" width="15.6" height="18.2"/>
		</defs>
		<clipPath id="SVGID_44_">
			<use xlink:href="#SVGID_43_"  overflow="visible"/>
		</clipPath>
		<path clip-path="url(#SVGID_44_)" fill="#597F5C" d="M48.2,11.1c-2.5,3.1-5.2,6.1-7.7,9.1c-2.6,3-5.2,6-7.9,9
			c2.5-3.1,5.2-6.1,7.7-9.1C43,17.1,45.5,14.1,48.2,11.1"/>
	</g>
</g>
<g>
	<g>
		<defs>
			<rect id="SVGID_45_" x="33" y="11.5" width="15.6" height="18.2"/>
		</defs>
		<clipPath id="SVGID_46_">
			<use xlink:href="#SVGID_45_"  overflow="visible"/>
		</clipPath>
		<path clip-path="url(#SVGID_46_)" fill="#597F5C" d="M48.6,11.5c-2.5,3.1-5.2,6.1-7.7,9.1c-2.6,3-5.2,6-7.9,9
			c2.5-3.1,5.2-6.1,7.7-9.1C43.4,17.5,46,14.5,48.6,11.5"/>
	</g>
</g>
<g>
	<g>
		<defs>
			<rect id="SVGID_47_" x="27.7" y="14.1" width="4.2" height="15.2"/>
		</defs>
		<clipPath id="SVGID_48_">
			<use xlink:href="#SVGID_47_"  overflow="visible"/>
		</clipPath>
		<path clip-path="url(#SVGID_48_)" fill="#597F5C" d="M27.7,14.1c0.8,2.5,1.5,5,2.2,7.6c0.7,2.5,1.4,5.1,2,7.6
			c-0.8-2.5-1.5-5-2.2-7.6C29.1,19.1,28.3,16.6,27.7,14.1"/>
	</g>
</g>
<g>
	<g>
		<defs>
			<rect id="SVGID_49_" x="26.5" y="10.1" width="0.8" height="2.8"/>
		</defs>
		<clipPath id="SVGID_50_">
			<use xlink:href="#SVGID_49_"  overflow="visible"/>
		</clipPath>
		<path clip-path="url(#SVGID_50_)" fill="#597F5C" d="M26.5,10.1c0.2,0.4,0.3,0.9,0.5,1.4c0.1,0.5,0.3,0.9,0.3,1.4
			c-0.2-0.4-0.3-0.9-0.5-1.4C26.8,11.1,26.6,10.6,26.5,10.1"/>
	</g>
</g>
<g>
	<g>
		<defs>
			<rect id="SVGID_51_" x="27.1" y="14.3" width="4.2" height="15.2"/>
		</defs>
		<clipPath id="SVGID_52_">
			<use xlink:href="#SVGID_51_"  overflow="visible"/>
		</clipPath>
		<path clip-path="url(#SVGID_52_)" fill="#597F5C" d="M27.1,14.3c0.8,2.5,1.5,5,2.2,7.6c0.7,2.5,1.4,5.1,2,7.6
			c-0.8-2.5-1.5-5-2.2-7.6C28.4,19.4,27.7,16.9,27.1,14.3"/>
	</g>
</g>
<g>
	<g>
		<defs>
			<rect id="SVGID_53_" x="25.9" y="10.4" width="0.8" height="2.8"/>
		</defs>
		<clipPath id="SVGID_54_">
			<use xlink:href="#SVGID_53_"  overflow="visible"/>
		</clipPath>
		<path clip-path="url(#SVGID_54_)" fill="#597F5C" d="M25.9,10.4c0.2,0.4,0.3,0.9,0.5,1.4c0.1,0.5,0.3,0.9,0.3,1.4
			c-0.2-0.4-0.3-0.9-0.5-1.4C26.1,11.3,26,10.9,25.9,10.4"/>
	</g>
</g>
<line fill="none" stroke="#D3D2D2" stroke-width="0.262" stroke-miterlimit="10" x1="16.5" y1="35.1" x2="32.2" y2="34.6"/>
<line fill="none" stroke="#D3D2D2" stroke-width="0.262" stroke-miterlimit="10" x1="15.8" y1="26.9" x2="32" y2="26.9"/>
<path fill="#4F4C4D" d="M15.8,29.5c0,0,1.1,0.4,1.1,1.3v1.4l-0.5,0.4V33c0,0,0.9,0.2,0.9,0.9s-0.4,1.2-1.1,1.2s-0.8-1.1-0.8-1.7
	c0-0.6,0.4-0.4,0.4-0.4v-0.6v-0.7L15,31.8l-0.3-0.5v-2.9L15.8,29.5z"/>
<path fill="#656263" d="M16.7,27.7c0,1.2-1,2.2-2.2,2.2s-2.2-1-2.2-2.2c0-1.2,1-2.2,2.2-2.2S16.7,26.5,16.7,27.7"/>
<path fill="#4F4C4D" d="M16.4,27.7c0,1-0.8,1.8-1.8,1.8s-1.8-0.8-1.8-1.8c0-1,0.8-1.8,1.8-1.8S16.4,26.7,16.4,27.7"/>
<path fill="none" stroke="#656263" stroke-width="0.262" stroke-miterlimit="10" d="M12.6,27.9c0,0-1.7,0.1-1.7,1.7
	c0,1.6,3.4,3.4,3.4,0"/>
<path fill="#4F4C4D" d="M32,26.6c-2.2,0-4,1.8-4,4c0,2.2,1.8,4,4,4c2.2,0,4-1.8,4-4C36,28.4,34.2,26.6,32,26.6 M29.3,32.5
	c-0.4-0.5-0.6-1.1-0.6-1.8l0.9,0c0,0.5,0.2,0.9,0.4,1.3L29.3,32.5z M33.9,32c0.3-0.4,0.4-0.8,0.4-1.3l0.9,0c0,0.7-0.2,1.3-0.6,1.8
	L33.9,32z M34.6,28.7l-0.7,0.6c-0.3-0.4-0.7-0.7-1.1-0.8l0.3-0.9C33.6,27.8,34.2,28.2,34.6,28.7 M30.9,27.6l0.3,0.9
	c-0.4,0.2-0.8,0.4-1.1,0.8l-0.7-0.6C29.8,28.2,30.3,27.8,30.9,27.6 M31,33.8l0.3-0.9c0.2,0.1,0.4,0.1,0.7,0.1c0.2,0,0.5,0,0.7-0.1
	l0.3,0.9c-0.3,0.1-0.6,0.1-1,0.1C31.6,33.9,31.3,33.8,31,33.8"/>
<path fill="none" stroke="#D3D2D2" stroke-width="0.262" stroke-miterlimit="10" d="M26.7,12.4c-1,0-1.8,0.5-2.3,1.3
	c-0.5,0.8-0.5,1.9-1.1,2.6"/>
<polygon fill="#597F5C" points="21.6,19.3 20.9,18.6 23.3,16.3 23.8,16.8 "/>
<g>
	<g>
		<defs>
			<rect id="SVGID_55_" x="20.9" y="16.3" width="2.6" height="2.5"/>
		</defs>
		<clipPath id="SVGID_56_">
			<use xlink:href="#SVGID_55_"  overflow="visible"/>
		</clipPath>
		
			<rect x="22.1" y="15.9" transform="matrix(0.6931 0.7209 -0.7209 0.6931 19.4835 -10.6389)" clip-path="url(#SVGID_56_)" fill="#597F5C" width="0.3" height="3.3"/>
	</g>
</g>
<line fill="none" stroke="#DEE6DE" stroke-width="1.115" stroke-linecap="round" stroke-miterlimit="10" x1="20.6" y1="18.4" x2="23" y2="16.1"/>
<line fill="none" stroke="#C8C7C7" stroke-width="0.743" stroke-miterlimit="10" x1="32" y1="30.5" x2="38.5" y2="31.3"/>
<path fill="#7B7979" d="M32.6,30.5c0,0.3-0.3,0.6-0.6,0.6s-0.6-0.3-0.6-0.6S31.7,30,32,30S32.6,30.2,32.6,30.5"/>
<circle fill="none" stroke="#C8C7C7" stroke-width="0.262" stroke-miterlimit="10" cx="32" cy="30.5" r="0.6"/>
<path fill="#231F20" d="M40.6,32.2c0,0.4-0.3,0.7-0.7,0.7h-2.1c-0.4,0-0.7-0.3-0.7-0.7v-0.3c0-0.4,0.3-0.7,0.7-0.7h2.1
	c0.4,0,0.7,0.3,0.7,0.7V32.2z"/>
<path fill="none" stroke="#D3D2D2" stroke-width="0.557" stroke-linecap="round" stroke-miterlimit="10" d="M14.3,27.8l-9-12.5
	c0,0-1.4-2.4,1.1-2.4h12.9c0,0,0.9-0.3,0.9-1.2"/>
<rect x="8.8" y="12.8" fill="#D3D2D2" width="6" height="1"/>
<line fill="none" stroke="#D3D2D2" stroke-width="0.262" stroke-miterlimit="10" x1="15.7" y1="12.8" x2="14.3" y2="27.8"/>
<line fill="none" stroke="#D3D2D2" stroke-width="0.262" stroke-miterlimit="10" x1="11.9" y1="14.9" x2="14.3" y2="27.8"/>
<path fill="none" stroke="#D3D2D2" stroke-width="1.115" stroke-miterlimit="10" d="M47.5,6.7c0,0-1-2.3-0.5-3.1
	c0.5-0.9,2.1-2,2.1-2"/>
<g>
	<g>
		<defs>
			<rect id="SVGID_57_" x="46.4" y="1.6" width="2" height="4.9"/>
		</defs>
		<clipPath id="SVGID_58_">
			<use xlink:href="#SVGID_57_"  overflow="visible"/>
		</clipPath>
		<path clip-path="url(#SVGID_58_)" fill="#D3D2D2" d="M48.5,1.6c-0.4,0.3-0.7,0.6-1,1c-0.3,0.3-0.7,0.7-0.8,1.1
			c0,0.5,0,0.9,0.1,1.4c0.1,0.5,0.2,0.9,0.3,1.4c-0.2-0.4-0.3-0.9-0.4-1.4c-0.1-0.5-0.2-0.9-0.2-1.5c0.1-0.5,0.5-0.8,0.9-1.2
			C47.7,2.2,48,1.9,48.5,1.6"/>
	</g>
</g>
<path fill="none" stroke="#423E3F" stroke-width="1.486" stroke-linecap="round" stroke-miterlimit="10" d="M45.3,1.3
	c1.5,0.2,4.5,0,6-0.2c0.9-0.1,0.8-0.3,0-0.4c-1.1-0.1-2.3-0.1-3.4-0.1"/>
<line fill="none" stroke="#597F5C" stroke-width="0.186" stroke-linecap="round" stroke-miterlimit="10" x1="48.1" y1="6.6" x2="46.5" y2="7"/>
</svg>
