<?xml version="1.0" encoding="utf-8"?>
<!-- Generator: Adobe Illustrator 15.0.2, SVG Export Plug-In . SVG Version: 6.00 Build 0)  -->
<!DOCTYPE svg PUBLIC "-//W3C//DTD SVG 1.1//EN" "http://www.w3.org/Graphics/SVG/1.1/DTD/svg11.dtd">
<svg version="1.1" id="Layer_1" xmlns="http://www.w3.org/2000/svg" xmlns:xlink="http://www.w3.org/1999/xlink" x="0px" y="0px"
	 width="52px" height="47.8px" viewBox="0 0 52 47.8" enable-background="new 0 0 52 47.8" xml:space="preserve">
<path fill="#EDE6D8" d="M52,42.1c0,3.2-11.6,5.8-26,5.8c-14.4,0-26-2.6-26-5.8s11.6-5.8,26-5.8C40.4,36.3,52,38.9,52,42.1"/>
<path fill="#DDBF9A" d="M2,39.9c0,2.9,10.8,5.3,24,5.3c13.3,0,24-2.4,24-5.3V19.1c0-2.9-10.8-5.3-24-5.3c-13.3,0-24,2.4-24,5.3V39.9
	z"/>
<path fill="#B69C5B" d="M50,18.8c0,3.4-10.8,6.1-24,6.1S2,22.2,2,18.8s10.8-6.1,24-6.1S50,15.4,50,18.8"/>
<path fill="#9A1C1F" d="M26,35.8c-10.1,0-20.3-1.3-24-3.9v1.2C5.7,35.7,15.9,37,26,37s20.3-1.3,24-3.9v-1.2
	C46.3,34.4,36.1,35.8,26,35.8"/>
<path fill="#E8E5D1" d="M26,35.5c14.6,0,23.7-2.6,24-4.5v-1.2c-0.3,1.9-9.4,4.5-24,4.5c-14.6,0-23.7-2.6-24-4.5V31
	C2.3,32.9,11.4,35.5,26,35.5"/>
<path fill="#E8E5D1" d="M26,35.5c-14.6,0-23.7-2.6-24-4.5v0.8c3.7,2.6,13.9,3.9,24,3.9s20.3-1.3,24-3.9V31
	C49.7,32.9,40.7,35.5,26,35.5"/>
<path fill="#EDE6D8" d="M12.3,23.9v5.3c0,0.7,0.6,1.3,1.3,1.3c0.7,0,1.3-0.6,1.3-1.3v-1.9c0.1,0.1,0.3,0.2,0.5,0.2
	c0.2,0,0.4-0.1,0.6-0.3v9.2c0,0.4,0.3,0.7,0.7,0.7c0.4,0,0.7-0.3,0.7-0.7V24.5C15.5,24.3,13.8,24.1,12.3,23.9"/>
<path fill="#EDE6D8" d="M48.1,18.6c0,3.7-10,6.6-22.4,6.6c-12.4,0-22.4-3-22.4-6.6c0-3.7,10-6.6,22.4-6.6
	C38.1,11.9,48.1,14.9,48.1,18.6"/>
<g>
	<g>
		<defs>
			<rect id="SVGID_1_" x="8.9" y="18.9" width="1.4" height="1.6"/>
		</defs>
		<clipPath id="SVGID_2_">
			<use xlink:href="#SVGID_1_"  overflow="visible"/>
		</clipPath>
		<path clip-path="url(#SVGID_2_)" fill="#EDE6D8" d="M10.3,19.7c0,0.4-0.3,0.8-0.7,0.8c-0.4,0-0.7-0.4-0.7-0.8
			c0-0.4,0.3-0.8,0.7-0.8C10,18.9,10.3,19.3,10.3,19.7"/>
	</g>
</g>
<g>
	<g>
		<defs>
			<rect id="SVGID_3_" x="13.6" y="15.3" width="1.4" height="1.6"/>
		</defs>
		<clipPath id="SVGID_4_">
			<use xlink:href="#SVGID_3_"  overflow="visible"/>
		</clipPath>
		<path clip-path="url(#SVGID_4_)" fill="#EDE6D8" d="M15,16.1c0,0.4-0.3,0.8-0.7,0.8c-0.4,0-0.7-0.4-0.7-0.8s0.3-0.8,0.7-0.8
			C14.7,15.3,15,15.6,15,16.1"/>
	</g>
</g>
<g>
	<g>
		<defs>
			<rect id="SVGID_5_" x="15.5" y="16.9" width="1.4" height="1.6"/>
		</defs>
		<clipPath id="SVGID_6_">
			<use xlink:href="#SVGID_5_"  overflow="visible"/>
		</clipPath>
		<path clip-path="url(#SVGID_6_)" fill="#EDE6D8" d="M16.9,17.7c0,0.4-0.3,0.8-0.7,0.8c-0.4,0-0.7-0.4-0.7-0.8s0.3-0.8,0.7-0.8
			C16.6,16.9,16.9,17.2,16.9,17.7"/>
	</g>
</g>
<g>
	<g>
		<defs>
			<rect id="SVGID_7_" x="28.3" y="15.1" width="1.4" height="1.6"/>
		</defs>
		<clipPath id="SVGID_8_">
			<use xlink:href="#SVGID_7_"  overflow="visible"/>
		</clipPath>
		<path clip-path="url(#SVGID_8_)" fill="#EDE6D8" d="M29.7,15.9c0,0.4-0.3,0.8-0.7,0.8c-0.4,0-0.7-0.4-0.7-0.8s0.3-0.8,0.7-0.8
			C29.4,15.1,29.7,15.4,29.7,15.9"/>
	</g>
</g>
<g>
	<g>
		<defs>
			<rect id="SVGID_9_" x="32.6" y="18.9" width="1.4" height="1.6"/>
		</defs>
		<clipPath id="SVGID_10_">
			<use xlink:href="#SVGID_9_"  overflow="visible"/>
		</clipPath>
		<path clip-path="url(#SVGID_10_)" fill="#EDE6D8" d="M34,19.7c0,0.4-0.3,0.8-0.7,0.8c-0.4,0-0.7-0.4-0.7-0.8
			c0-0.4,0.3-0.8,0.7-0.8C33.7,18.9,34,19.3,34,19.7"/>
	</g>
</g>
<g>
	<g>
		<defs>
			<rect id="SVGID_11_" x="35.6" y="15.5" width="1.4" height="1.6"/>
		</defs>
		<clipPath id="SVGID_12_">
			<use xlink:href="#SVGID_11_"  overflow="visible"/>
		</clipPath>
		<path clip-path="url(#SVGID_12_)" fill="#EDE6D8" d="M37,16.3c0,0.4-0.3,0.8-0.7,0.8s-0.7-0.4-0.7-0.8s0.3-0.8,0.7-0.8
			S37,15.9,37,16.3"/>
	</g>
</g>
<g>
	<g>
		<defs>
			<rect id="SVGID_13_" x="40.3" y="18.1" width="1.4" height="1.6"/>
		</defs>
		<clipPath id="SVGID_14_">
			<use xlink:href="#SVGID_13_"  overflow="visible"/>
		</clipPath>
		<path clip-path="url(#SVGID_14_)" fill="#EDE6D8" d="M41.7,18.9c0,0.4-0.3,0.8-0.7,0.8c-0.4,0-0.7-0.4-0.7-0.8s0.3-0.8,0.7-0.8
			C41.4,18.1,41.7,18.5,41.7,18.9"/>
	</g>
</g>
<g>
	<g>
		<defs>
			<rect id="SVGID_15_" x="25.7" y="22.3" width="0.7" height="0.9"/>
		</defs>
		<clipPath id="SVGID_16_">
			<use xlink:href="#SVGID_15_"  overflow="visible"/>
		</clipPath>
		<path clip-path="url(#SVGID_16_)" fill="#EDE6D8" d="M26.4,22.8c0,0.2-0.2,0.4-0.4,0.4c-0.2,0-0.4-0.2-0.4-0.4
			c0-0.2,0.2-0.4,0.4-0.4C26.3,22.3,26.4,22.5,26.4,22.8"/>
	</g>
</g>
<g>
	<g>
		<defs>
			<rect id="SVGID_17_" x="13.3" y="19.1" width="0.8" height="0.9"/>
		</defs>
		<clipPath id="SVGID_18_">
			<use xlink:href="#SVGID_17_"  overflow="visible"/>
		</clipPath>
		<path clip-path="url(#SVGID_18_)" fill="#EDE6D8" d="M14,19.6c0,0.2-0.2,0.4-0.4,0.4c-0.2,0-0.4-0.2-0.4-0.4
			c0-0.2,0.2-0.4,0.4-0.4C13.8,19.1,14,19.3,14,19.6"/>
	</g>
</g>
<g>
	<g>
		<defs>
			<rect id="SVGID_19_" x="21.3" y="16.7" width="0.7" height="0.9"/>
		</defs>
		<clipPath id="SVGID_20_">
			<use xlink:href="#SVGID_19_"  overflow="visible"/>
		</clipPath>
		<path clip-path="url(#SVGID_20_)" fill="#EDE6D8" d="M22,17.1c0,0.2-0.2,0.4-0.4,0.4c-0.2,0-0.4-0.2-0.4-0.4
			c0-0.2,0.2-0.4,0.4-0.4C21.8,16.7,22,16.9,22,17.1"/>
	</g>
</g>
<g>
	<g>
		<defs>
			<rect id="SVGID_21_" x="39.7" y="14.4" width="0.7" height="0.9"/>
		</defs>
		<clipPath id="SVGID_22_">
			<use xlink:href="#SVGID_21_"  overflow="visible"/>
		</clipPath>
		<path clip-path="url(#SVGID_22_)" fill="#EDE6D8" d="M40.5,14.8c0,0.2-0.2,0.4-0.4,0.4s-0.4-0.2-0.4-0.4s0.2-0.4,0.4-0.4
			S40.5,14.6,40.5,14.8"/>
	</g>
</g>
<g>
	<g>
		<defs>
			<rect id="SVGID_23_" x="43.9" y="17.2" width="0.8" height="0.9"/>
		</defs>
		<clipPath id="SVGID_24_">
			<use xlink:href="#SVGID_23_"  overflow="visible"/>
		</clipPath>
		<path clip-path="url(#SVGID_24_)" fill="#EDE6D8" d="M44.7,17.7c0,0.2-0.2,0.4-0.4,0.4c-0.2,0-0.4-0.2-0.4-0.4s0.2-0.4,0.4-0.4
			C44.5,17.2,44.7,17.4,44.7,17.7"/>
	</g>
</g>
<g>
	<g>
		<defs>
			<rect id="SVGID_25_" x="37.4" y="21.1" width="0.7" height="0.9"/>
		</defs>
		<clipPath id="SVGID_26_">
			<use xlink:href="#SVGID_25_"  overflow="visible"/>
		</clipPath>
		<path clip-path="url(#SVGID_26_)" fill="#EDE6D8" d="M38.2,21.5c0,0.2-0.2,0.4-0.4,0.4s-0.4-0.2-0.4-0.4c0-0.2,0.2-0.4,0.4-0.4
			S38.2,21.3,38.2,21.5"/>
	</g>
</g>
<g>
	<g>
		<defs>
			<rect id="SVGID_27_" x="36.8" y="18.6" width="0.5" height="0.6"/>
		</defs>
		<clipPath id="SVGID_28_">
			<use xlink:href="#SVGID_27_"  overflow="visible"/>
		</clipPath>
		<path clip-path="url(#SVGID_28_)" fill="#EDE6D8" d="M37.3,18.9c0,0.2-0.1,0.3-0.3,0.3c-0.1,0-0.3-0.1-0.3-0.3s0.1-0.3,0.3-0.3
			C37.2,18.6,37.3,18.8,37.3,18.9"/>
	</g>
</g>
<g>
	<g>
		<defs>
			<rect id="SVGID_29_" x="18.1" y="16.9" width="0.5" height="0.6"/>
		</defs>
		<clipPath id="SVGID_30_">
			<use xlink:href="#SVGID_29_"  overflow="visible"/>
		</clipPath>
		<path clip-path="url(#SVGID_30_)" fill="#EDE6D8" d="M18.6,17.2c0,0.2-0.1,0.3-0.3,0.3s-0.3-0.1-0.3-0.3s0.1-0.3,0.3-0.3
			S18.6,17.1,18.6,17.2"/>
	</g>
</g>
<g>
	<g>
		<defs>
			<rect id="SVGID_31_" x="16.6" y="30.1" width="0.5" height="0.6"/>
		</defs>
		<clipPath id="SVGID_32_">
			<use xlink:href="#SVGID_31_"  overflow="visible"/>
		</clipPath>
		<path clip-path="url(#SVGID_32_)" fill="#EDE6D8" d="M17.1,30.4c0,0.2-0.1,0.3-0.3,0.3s-0.3-0.1-0.3-0.3c0-0.2,0.1-0.3,0.3-0.3
			S17.1,30.2,17.1,30.4"/>
	</g>
</g>
<g>
	<g>
		<defs>
			<rect id="SVGID_33_" x="7" y="17.8" width="0.5" height="0.6"/>
		</defs>
		<clipPath id="SVGID_34_">
			<use xlink:href="#SVGID_33_"  overflow="visible"/>
		</clipPath>
		<path clip-path="url(#SVGID_34_)" fill="#EDE6D8" d="M7.5,18.1c0,0.2-0.1,0.3-0.3,0.3S7,18.3,7,18.1s0.1-0.3,0.3-0.3
			S7.5,18,7.5,18.1"/>
	</g>
</g>
<g>
	<g>
		<defs>
			<rect id="SVGID_35_" x="44.9" y="18.6" width="0.5" height="0.6"/>
		</defs>
		<clipPath id="SVGID_36_">
			<use xlink:href="#SVGID_35_"  overflow="visible"/>
		</clipPath>
		<path clip-path="url(#SVGID_36_)" fill="#EDE6D8" d="M45.5,18.9c0,0.2-0.1,0.3-0.3,0.3s-0.3-0.1-0.3-0.3s0.1-0.3,0.3-0.3
			S45.5,18.8,45.5,18.9"/>
	</g>
</g>
<g>
	<g>
		<defs>
			<rect id="SVGID_37_" x="30.8" y="16.2" width="0.8" height="0.9"/>
		</defs>
		<clipPath id="SVGID_38_">
			<use xlink:href="#SVGID_37_"  overflow="visible"/>
		</clipPath>
		<path clip-path="url(#SVGID_38_)" fill="#EDE6D8" d="M31.6,16.7c0,0.2-0.2,0.4-0.4,0.4c-0.2,0-0.4-0.2-0.4-0.4s0.2-0.4,0.4-0.4
			C31.4,16.2,31.6,16.4,31.6,16.7"/>
	</g>
</g>
<g>
	<g>
		<defs>
			<rect id="SVGID_39_" x="12.6" y="25.7" width="0.6" height="0.9"/>
		</defs>
		<clipPath id="SVGID_40_">
			<use xlink:href="#SVGID_39_"  overflow="visible"/>
		</clipPath>
		<path clip-path="url(#SVGID_40_)" fill="#EDE6D8" d="M13.3,26.1c0,0.3-0.1,0.5-0.3,0.5c-0.2,0-0.3-0.2-0.3-0.5
			c0-0.3,0.1-0.5,0.3-0.5C13.1,25.7,13.3,25.9,13.3,26.1"/>
	</g>
</g>
<g>
	<g>
		<defs>
			<rect id="SVGID_41_" x="16.6" y="27.5" width="0.6" height="0.9"/>
		</defs>
		<clipPath id="SVGID_42_">
			<use xlink:href="#SVGID_41_"  overflow="visible"/>
		</clipPath>
		<path clip-path="url(#SVGID_42_)" fill="#EDE6D8" d="M17.2,28c0,0.3-0.1,0.5-0.3,0.5c-0.2,0-0.3-0.2-0.3-0.5
			c0-0.3,0.1-0.5,0.3-0.5C17,27.5,17.2,27.8,17.2,28"/>
	</g>
</g>
<g>
	<g>
		<defs>
			<rect id="SVGID_43_" x="14.5" y="25.2" width="0.6" height="0.9"/>
		</defs>
		<clipPath id="SVGID_44_">
			<use xlink:href="#SVGID_43_"  overflow="visible"/>
		</clipPath>
		<path clip-path="url(#SVGID_44_)" fill="#EDE6D8" d="M15.1,25.7c0,0.3-0.1,0.5-0.3,0.5c-0.2,0-0.3-0.2-0.3-0.5
			c0-0.3,0.1-0.5,0.3-0.5C15,25.2,15.1,25.4,15.1,25.7"/>
	</g>
</g>
<polygon fill="#E9BBBD" points="14.8,8.1 11.8,8.1 11.8,9.1 14.8,10.8 "/>
<polygon fill="#E9BBBD" points="11.8,15.1 14.8,16.8 14.8,15.8 11.8,14.2 "/>
<polygon fill="#E9BBBD" points="14.8,11.8 11.8,10.2 11.8,11.1 14.8,12.8 "/>
<polygon fill="#E9BBBD" points="11.8,12.2 11.8,13.1 14.8,14.8 14.8,13.8 "/>
<polygon fill="#E9BBBD" points="11.8,18.1 14.8,18.1 14.8,17.8 11.8,16.2 "/>
<polygon fill="#C65F6F" points="14.8,10.8 11.8,9.1 11.8,10.2 14.8,11.8 "/>
<polygon fill="#C65F6F" points="14.8,12.8 11.8,11.1 11.8,12.2 14.8,13.8 "/>
<polygon fill="#C65F6F" points="11.8,14.2 14.8,15.8 14.8,14.8 11.8,13.1 "/>
<polygon fill="#C65F6F" points="11.8,16.2 14.8,17.8 14.8,16.8 11.8,15.1 "/>
<path fill="#DD9FA9" d="M14.8,8.1c0,0.2-0.7,0.4-1.5,0.4s-1.5-0.2-1.5-0.4c0-0.2,0.7-0.4,1.5-0.4S14.8,7.9,14.8,8.1"/>
<path fill="#E9BBBD" d="M14.8,18.1c0,0.2-0.7,0.4-1.5,0.4s-1.5-0.2-1.5-0.4c0-0.2,0.7-0.4,1.5-0.4S14.8,17.9,14.8,18.1"/>
<path fill="none" stroke="#231F20" stroke-width="0.283" stroke-linecap="round" stroke-miterlimit="10" d="M13.3,8
	c0.2-0.1,0.1-0.6,0.1-0.8c0-0.3-0.2-0.6-0.2-0.8"/>
<path fill="#EBD467" d="M13,6.2c-1.1-0.4-1.1-1.1-0.9-1.6c0.1-0.3,0.3-0.6,0.6-0.9c0.3-0.3,0.6-0.7,0.7-1.1c0-0.1,0-0.2,0-0.3
	c0.2,0.2,0.3,0.4,0.5,0.7c0.4,0.6,0.5,1.3,0.4,2.2c0,0.5-0.5,1-1,1L13,6.2z"/>
<path fill="#E5952E" d="M13.5,3.2C13.5,3.2,13.6,3.2,13.5,3.2C13.9,3.8,14,4.4,14,5.2c0,0.3-0.3,0.7-0.7,0.7h0l-0.1,0
	c-0.9-0.4-0.8-0.9-0.7-1.2c0.1-0.2,0.3-0.5,0.5-0.7C13.1,3.7,13.4,3.5,13.5,3.2 M12.7,1.3C13,1.6,13.1,2.1,13,2.5
	c-0.2,0.8-1,1.2-1.2,2c-0.3,1,0.3,1.7,1.2,2.1l0.2,0c0,0,0.1,0,0.1,0c0.7,0,1.3-0.7,1.4-1.3c0.1-0.9-0.1-1.6-0.5-2.4
	C14,2.6,13.8,2.2,13.5,2c-0.1-0.1-0.3-0.2-0.4-0.3C13,1.5,12.8,1.4,12.7,1.3"/>
<polygon fill="#E9BBBD" points="39.7,8.1 36.7,8.1 36.7,9.1 39.7,10.8 "/>
<polygon fill="#E9BBBD" points="36.7,15.1 39.7,16.8 39.7,15.8 36.7,14.2 "/>
<polygon fill="#E9BBBD" points="39.7,11.8 36.7,10.2 36.7,11.1 39.7,12.8 "/>
<polygon fill="#E9BBBD" points="36.7,12.2 36.7,13.1 39.7,14.8 39.7,13.8 "/>
<polygon fill="#E9BBBD" points="36.7,18.1 39.7,18.1 39.7,17.8 36.7,16.2 "/>
<polygon fill="#C65F6F" points="39.7,10.8 36.7,9.1 36.7,10.2 39.7,11.8 "/>
<polygon fill="#C65F6F" points="39.7,12.8 36.7,11.1 36.7,12.2 39.7,13.8 "/>
<polygon fill="#C65F6F" points="36.7,14.2 39.7,15.8 39.7,14.8 36.7,13.1 "/>
<polygon fill="#C65F6F" points="36.7,16.2 39.7,17.8 39.7,16.8 36.7,15.1 "/>
<path fill="#DD9FA9" d="M39.7,8.1c0,0.2-0.7,0.4-1.5,0.4c-0.8,0-1.5-0.2-1.5-0.4c0-0.2,0.7-0.4,1.5-0.4C39.1,7.8,39.7,7.9,39.7,8.1"
	/>
<path fill="#E9BBBD" d="M39.7,18.1c0,0.2-0.7,0.4-1.5,0.4c-0.8,0-1.5-0.2-1.5-0.4c0-0.2,0.7-0.4,1.5-0.4
	C39.1,17.8,39.7,17.9,39.7,18.1"/>
<path fill="none" stroke="#231F20" stroke-width="0.283" stroke-linecap="round" stroke-miterlimit="10" d="M38.2,8
	c0.2-0.1,0.1-0.6,0.1-0.8c0-0.3-0.2-0.6-0.2-0.8"/>
<path fill="#EBD467" d="M37.9,6.2c-1.1-0.4-1.1-1.1-0.9-1.6c0.1-0.3,0.3-0.6,0.6-0.9c0.3-0.3,0.6-0.7,0.7-1.1c0-0.1,0-0.2,0-0.3
	c0.2,0.2,0.3,0.4,0.5,0.7c0.4,0.6,0.5,1.3,0.4,2.2c0,0.5-0.5,1-1,1L37.9,6.2z"/>
<path fill="#E5952E" d="M38.4,3.2C38.5,3.2,38.5,3.2,38.4,3.2c0.4,0.7,0.5,1.3,0.4,2.1c0,0.3-0.3,0.7-0.7,0.7h0l-0.1,0
	c-0.9-0.4-0.8-0.9-0.7-1.2c0.1-0.2,0.3-0.5,0.5-0.7C38.1,3.7,38.3,3.5,38.4,3.2 M37.6,1.3c0.3,0.3,0.4,0.8,0.3,1.2
	c-0.2,0.8-1,1.2-1.2,2c-0.3,1,0.3,1.7,1.2,2.1l0.2,0c0,0,0.1,0,0.1,0c0.7,0,1.3-0.7,1.4-1.3c0.1-0.9-0.1-1.6-0.5-2.4
	c-0.2-0.3-0.4-0.7-0.7-0.9c-0.1-0.1-0.3-0.2-0.4-0.3C37.9,1.5,37.7,1.4,37.6,1.3"/>
<polygon fill="#E9BBBD" points="25.1,11.8 22.1,11.8 22.1,12.8 25.1,14.5 "/>
<polygon fill="#E9BBBD" points="22.1,18.8 25.1,20.5 25.1,19.5 22.1,17.9 "/>
<polygon fill="#E9BBBD" points="25.1,15.5 22.1,13.9 22.1,14.8 25.1,16.5 "/>
<polygon fill="#E9BBBD" points="22.1,15.9 22.1,16.8 25.1,18.5 25.1,17.5 "/>
<polygon fill="#E9BBBD" points="22.1,21.8 25.1,21.8 25.1,21.5 22.1,19.9 "/>
<polygon fill="#C65F6F" points="25.1,14.5 22.1,12.8 22.1,13.9 25.1,15.5 "/>
<polygon fill="#C65F6F" points="25.1,16.5 22.1,14.8 22.1,15.9 25.1,17.5 "/>
<polygon fill="#C65F6F" points="22.1,17.9 25.1,19.5 25.1,18.5 22.1,16.8 "/>
<polygon fill="#C65F6F" points="22.1,19.9 25.1,21.5 25.1,20.5 22.1,18.8 "/>
<path fill="#DD9FA9" d="M25.1,11.8c0,0.2-0.7,0.4-1.5,0.4s-1.5-0.2-1.5-0.4s0.7-0.4,1.5-0.4S25.1,11.6,25.1,11.8"/>
<path fill="#E9BBBD" d="M25.1,21.8c0,0.2-0.7,0.4-1.5,0.4s-1.5-0.2-1.5-0.4s0.7-0.4,1.5-0.4S25.1,21.6,25.1,21.8"/>
<path fill="none" stroke="#231F20" stroke-width="0.283" stroke-linecap="round" stroke-miterlimit="10" d="M23.6,11.7
	c0.2-0.1,0.1-0.6,0.1-0.8c0-0.3-0.2-0.6-0.2-0.8"/>
<path fill="#EBD467" d="M23.3,9.9c-1.1-0.4-1.1-1.1-0.9-1.6C22.5,8,22.7,7.8,23,7.5c0.3-0.3,0.6-0.7,0.7-1.1c0-0.1,0-0.2,0-0.3
	c0.2,0.2,0.3,0.4,0.5,0.7c0.4,0.6,0.5,1.3,0.4,2.2c0,0.5-0.5,1-1,1L23.3,9.9z"/>
<path fill="#E5952E" d="M23.8,6.9C23.8,6.9,23.9,6.9,23.8,6.9c0.4,0.7,0.5,1.3,0.4,2.1c0,0.3-0.3,0.7-0.7,0.7h0l-0.1,0
	c-0.9-0.4-0.8-0.9-0.7-1.2C22.8,8.2,23,8,23.3,7.7C23.5,7.5,23.7,7.2,23.8,6.9 M23,5c0.3,0.3,0.4,0.8,0.3,1.2c-0.2,0.8-1,1.2-1.2,2
	c-0.3,1,0.3,1.7,1.2,2.1l0.2,0c0,0,0.1,0,0.1,0c0.7,0,1.3-0.7,1.4-1.3c0.1-0.9-0.1-1.6-0.5-2.4c-0.2-0.3-0.4-0.7-0.7-0.9
	c-0.1-0.1-0.3-0.2-0.4-0.3C23.3,5.3,23.1,5.1,23,5"/>
<polygon fill="#E9BBBD" points="28.4,6 25.8,6 25.8,6.9 28.4,8.3 "/>
<polygon fill="#E9BBBD" points="25.8,12.2 28.4,13.6 28.4,12.8 25.8,11.3 "/>
<polygon fill="#E9BBBD" points="28.4,9.2 25.8,7.8 25.8,8.6 28.4,10.1 "/>
<polygon fill="#E9BBBD" points="25.8,9.5 25.8,10.4 28.4,11.8 28.4,11 "/>
<polygon fill="#E9BBBD" points="25.8,14.8 28.4,14.8 28.4,14.5 25.8,13.1 "/>
<polygon fill="#C65F6F" points="28.4,8.3 25.8,6.9 25.8,7.8 28.4,9.2 "/>
<polygon fill="#C65F6F" points="28.4,10.1 25.8,8.6 25.8,9.5 28.4,11 "/>
<polygon fill="#C65F6F" points="25.8,11.3 28.4,12.8 28.4,11.8 25.8,10.4 "/>
<polygon fill="#C65F6F" points="25.8,13.1 28.4,14.5 28.4,13.6 25.8,12.2 "/>
<path fill="#DD9FA9" d="M28.4,6c0,0.2-0.6,0.3-1.3,0.3S25.8,6.2,25.8,6s0.6-0.3,1.3-0.3S28.4,5.8,28.4,6"/>
<path fill="#E9BBBD" d="M28.4,14.8c0,0.2-0.6,0.3-1.3,0.3s-1.3-0.1-1.3-0.3s0.6-0.3,1.3-0.3S28.4,14.6,28.4,14.8"/>
<path fill="none" stroke="#231F20" stroke-width="0.249" stroke-linecap="round" stroke-miterlimit="10" d="M27.1,5.9
	c0.2,0,0.1-0.6,0.1-0.7C27.1,5,27,4.7,27,4.5"/>
<path fill="#EBD467" d="M26.9,4.3c-1-0.4-0.9-1-0.8-1.4c0.1-0.3,0.3-0.5,0.5-0.8c0.2-0.3,0.5-0.6,0.6-1c0-0.1,0-0.1,0-0.2
	c0.1,0.2,0.3,0.4,0.4,0.6C27.9,2.1,28,2.7,28,3.5c0,0.4-0.5,0.9-0.9,0.9L26.9,4.3z"/>
<path fill="#E5952E" d="M27.3,1.6C27.3,1.7,27.3,1.7,27.3,1.6c0.3,0.6,0.4,1.1,0.4,1.8c0,0.3-0.3,0.6-0.6,0.6h0L27,4
	c-0.8-0.3-0.7-0.8-0.6-1c0.1-0.2,0.2-0.4,0.4-0.7C27,2.1,27.2,1.9,27.3,1.6 M26.6,0c0.3,0.3,0.4,0.7,0.3,1.1
	c-0.2,0.7-0.9,1.1-1.1,1.7c-0.3,0.9,0.2,1.5,1.1,1.8l0.2,0c0,0,0.1,0,0.1,0c0.6,0,1.2-0.6,1.2-1.2c0-0.8-0.1-1.4-0.4-2.1
	c-0.2-0.3-0.4-0.6-0.6-0.8c-0.1-0.1-0.2-0.2-0.4-0.3C26.8,0.2,26.7,0,26.6,0"/>
</svg>
