<?xml version="1.0" encoding="utf-8"?>
<!-- Generator: Adobe Illustrator 15.0.2, SVG Export Plug-In . SVG Version: 6.00 Build 0)  -->
<!DOCTYPE svg PUBLIC "-//W3C//DTD SVG 1.1//EN" "http://www.w3.org/Graphics/SVG/1.1/DTD/svg11.dtd">
<svg version="1.1" id="Layer_1" xmlns="http://www.w3.org/2000/svg" xmlns:xlink="http://www.w3.org/1999/xlink" x="0px" y="0px"
	 width="79.5px" height="50.3px" viewBox="0 0 79.5 50.3" enable-background="new 0 0 79.5 50.3" xml:space="preserve">
<rect y="18.3" fill="#BDBCBC" width="77.4" height="32"/>
<path fill="#231F20" d="M12.8,49.2c-6.3,0-11.3-5.1-11.3-11.3c0-6.3,5.1-11.3,11.3-11.3s11.3,5.1,11.3,11.3
	C24.1,44.1,19,49.2,12.8,49.2"/>
<path fill="#231F20" d="M12.8,27c6,0,10.9,4.9,10.9,10.9s-4.9,10.9-10.9,10.9S1.9,43.8,1.9,37.8S6.8,27,12.8,27 M12.8,26
	C6.2,26,0.9,31.3,0.9,37.8s5.3,11.8,11.8,11.8s11.8-5.3,11.8-11.8S19.3,26,12.8,26"/>
<path fill="#E9E9E9" d="M12.8,26.8c6.1,0,11.1,5,11.1,11.1c0,6.1-5,11.1-11.1,11.1s-11.1-5-11.1-11.1C1.7,31.7,6.6,26.8,12.8,26.8
	 M12.8,26C6.2,26,0.9,31.3,0.9,37.8s5.3,11.8,11.8,11.8s11.8-5.3,11.8-11.8S19.3,26,12.8,26"/>
<path fill="#4F4C4D" d="M21.6,37.8c0-4.9-3.9-8.8-8.8-8.8c-4.9,0-8.8,3.9-8.8,8.8s3.9,8.8,8.8,8.8C17.6,46.7,21.6,42.7,21.6,37.8"/>
<path fill="#656263" d="M19.4,37.8c0-3.7-3-6.6-6.6-6.6c-3.7,0-6.6,3-6.6,6.6s3,6.6,6.6,6.6C16.4,44.4,19.4,41.5,19.4,37.8"/>
<path fill="#D3D2D2" d="M12.8,35.9c1.1,0,2,0.9,2,2c0,1.1-0.9,2-2,2s-2-0.9-2-2C10.8,36.8,11.7,35.9,12.8,35.9 M12.8,35.3
	c-1.4,0-2.5,1.1-2.5,2.5s1.1,2.5,2.5,2.5c1.4,0,2.5-1.1,2.5-2.5S14.1,35.3,12.8,35.3"/>
<path fill="#D3D2D2" d="M14.3,37.8c0-0.9-0.7-1.6-1.6-1.6c-0.9,0-1.6,0.7-1.6,1.6c0,0.9,0.7,1.6,1.6,1.6
	C13.6,39.4,14.3,38.7,14.3,37.8"/>
<path fill="#A7A5A6" d="M12.8,39c-0.8,0-1.5-0.6-1.6-1.4c0,0.1,0,0.1,0,0.2c0,0.9,0.7,1.6,1.6,1.6c0.9,0,1.6-0.7,1.6-1.6
	c0-0.1,0-0.1,0-0.2C14.2,38.4,13.6,39,12.8,39"/>
<path fill="#E9E9E9" d="M13.7,37.1c0-0.3-0.4-0.5-0.9-0.5c-0.5,0-0.9,0.2-0.9,0.5c0,0.3,0.4,0.5,0.9,0.5
	C13.3,37.6,13.7,37.3,13.7,37.1"/>
<path fill="#231F20" d="M64.6,49.2c-6.3,0-11.3-5.1-11.3-11.3c0-6.3,5.1-11.3,11.3-11.3c6.3,0,11.3,5.1,11.3,11.3
	C76,44.1,70.9,49.2,64.6,49.2"/>
<path fill="#231F20" d="M64.6,27c6,0,10.9,4.9,10.9,10.9s-4.9,10.9-10.9,10.9c-6,0-10.9-4.9-10.9-10.9S58.6,27,64.6,27 M64.6,26
	c-6.5,0-11.8,5.3-11.8,11.8s5.3,11.8,11.8,11.8s11.8-5.3,11.8-11.8S71.2,26,64.6,26"/>
<path fill="#E7E6E7" d="M64.6,26.8c6.1,0,11.1,5,11.1,11.1c0,6.1-5,11.1-11.1,11.1c-6.1,0-11.1-5-11.1-11.1
	C53.5,31.7,58.5,26.8,64.6,26.8 M64.6,26c-6.5,0-11.8,5.3-11.8,11.8s5.3,11.8,11.8,11.8s11.8-5.3,11.8-11.8S71.2,26,64.6,26"/>
<path fill="#4F4C4D" d="M73.4,37.8c0-4.9-3.9-8.8-8.8-8.8c-4.9,0-8.8,3.9-8.8,8.8s3.9,8.8,8.8,8.8C69.5,46.7,73.4,42.7,73.4,37.8"/>
<path fill="#656263" d="M71.2,37.8c0-3.7-3-6.6-6.6-6.6c-3.7,0-6.6,3-6.6,6.6s3,6.6,6.6,6.6C68.3,44.4,71.2,41.5,71.2,37.8"/>
<path fill="#D3D2D2" d="M64.6,35.9c1.1,0,2,0.9,2,2c0,1.1-0.9,2-2,2s-2-0.9-2-2C62.7,36.8,63.5,35.9,64.6,35.9 M64.6,35.3
	c-1.4,0-2.5,1.1-2.5,2.5s1.1,2.5,2.5,2.5c1.4,0,2.5-1.1,2.5-2.5S66,35.3,64.6,35.3"/>
<path fill="#D3D2D2" d="M66.2,37.8c0-0.9-0.7-1.6-1.6-1.6c-0.9,0-1.6,0.7-1.6,1.6c0,0.9,0.7,1.6,1.6,1.6
	C65.5,39.4,66.2,38.7,66.2,37.8"/>
<path fill="#A7A5A6" d="M64.6,39c-0.8,0-1.5-0.6-1.6-1.4c0,0.1,0,0.1,0,0.2c0,0.9,0.7,1.6,1.6,1.6c0.9,0,1.6-0.7,1.6-1.6
	c0-0.1,0-0.1,0-0.2C66.1,38.4,65.4,39,64.6,39"/>
<path fill="#E9E9E9" d="M65.5,37.1c0-0.3-0.4-0.5-0.9-0.5s-0.9,0.2-0.9,0.5c0,0.3,0.4,0.5,0.9,0.5S65.5,37.3,65.5,37.1"/>
<rect x="25.6" y="18.4" fill="#5A5758" width="26.2" height="32"/>
<rect x="26" y="18.4" fill="#231F20" width="25.3" height="32"/>
<rect x="26.6" y="18.4" fill="#5A5758" width="24.3" height="32"/>
<rect x="26.6" y="25.3" fill="#231F20" width="18.5" height="13.3"/>
<rect x="26.6" y="26.1" fill="#444142" width="18.2" height="11.7"/>
<rect x="26.6" y="25.5" fill="#5A5758" width="18.2" height="11.5"/>
<rect x="26.6" y="36.8" fill="#CFCECE" width="18.2" height="0.3"/>
<rect x="26.6" y="38.6" fill="#CFCECE" width="24.3" height="0.1"/>
<rect x="45" y="25.3" fill="#231F20" width="5.8" height="13.3"/>
<rect x="45" y="26.1" fill="#444142" width="5.7" height="11.7"/>
<rect x="45" y="25.5" fill="#5A5758" width="5.7" height="11.5"/>
<rect x="45" y="36.8" fill="#CFCECE" width="5.7" height="0.3"/>
<rect x="28" y="20" fill="#393536" width="21.5" height="4.4"/>
<g>
	<g>
		<defs>
			<rect id="SVGID_1_" x="28" y="20" width="21.5" height="4.4"/>
		</defs>
		<clipPath id="SVGID_2_">
			<use xlink:href="#SVGID_1_"  overflow="visible"/>
		</clipPath>
		<polygon clip-path="url(#SVGID_2_)" fill="#393536" points="28,20 28,24.4 28.7,24.4 28.7,21.4 48.8,21.4 48.8,24.4 49.5,24.4 
			49.5,20 		"/>
	</g>
</g>
<g opacity="0.5">
	<g>
		<defs>
			<rect id="SVGID_3_" x="38.3" y="23" width="0.8" height="0.4"/>
		</defs>
		<clipPath id="SVGID_4_">
			<use xlink:href="#SVGID_3_"  overflow="visible"/>
		</clipPath>
		<rect x="38.3" y="23" clip-path="url(#SVGID_4_)" fill="#F0EFEF" width="0.8" height="0.4"/>
	</g>
</g>
<g opacity="0.5">
	<g>
		<defs>
			<rect id="SVGID_5_" x="47.5" y="23" width="0.9" height="0.4"/>
		</defs>
		<clipPath id="SVGID_6_">
			<use xlink:href="#SVGID_5_"  overflow="visible"/>
		</clipPath>
		<rect x="47.5" y="23" clip-path="url(#SVGID_6_)" fill="#F0EFEF" width="0.9" height="0.4"/>
	</g>
</g>
<g opacity="0.5">
	<g>
		<defs>
			<rect id="SVGID_7_" x="43.1" y="23.6" width="0.9" height="0.4"/>
		</defs>
		<clipPath id="SVGID_8_">
			<use xlink:href="#SVGID_7_"  overflow="visible"/>
		</clipPath>
		<rect x="43.1" y="23.6" clip-path="url(#SVGID_8_)" fill="#F0EFEF" width="0.9" height="0.4"/>
	</g>
</g>
<g opacity="0.5">
	<g>
		<defs>
			<rect id="SVGID_9_" x="47.2" y="22" width="0.4" height="0.4"/>
		</defs>
		<clipPath id="SVGID_10_">
			<use xlink:href="#SVGID_9_"  overflow="visible"/>
		</clipPath>
		<rect x="47.2" y="22" clip-path="url(#SVGID_10_)" fill="#F0EFEF" width="0.4" height="0.4"/>
	</g>
</g>
<g opacity="0.5">
	<g>
		<defs>
			<rect id="SVGID_11_" x="39.8" y="22" width="0.2" height="0.2"/>
		</defs>
		<clipPath id="SVGID_12_">
			<use xlink:href="#SVGID_11_"  overflow="visible"/>
		</clipPath>
		<rect x="39.8" y="22" clip-path="url(#SVGID_12_)" fill="#F0EFEF" width="0.2" height="0.2"/>
	</g>
</g>
<g opacity="0.5">
	<g>
		<defs>
			<rect id="SVGID_13_" x="37.4" y="22" width="0.4" height="0.4"/>
		</defs>
		<clipPath id="SVGID_14_">
			<use xlink:href="#SVGID_13_"  overflow="visible"/>
		</clipPath>
		<rect x="37.4" y="22" clip-path="url(#SVGID_14_)" fill="#F0EFEF" width="0.4" height="0.4"/>
	</g>
</g>
<g opacity="0.5">
	<g>
		<defs>
			<rect id="SVGID_15_" x="28.8" y="23.2" width="0.8" height="0.2"/>
		</defs>
		<clipPath id="SVGID_16_">
			<use xlink:href="#SVGID_15_"  overflow="visible"/>
		</clipPath>
		<rect x="28.8" y="23.2" clip-path="url(#SVGID_16_)" fill="#F0EFEF" width="0.8" height="0.2"/>
	</g>
</g>
<g opacity="0.5">
	<g>
		<defs>
			<rect id="SVGID_17_" x="33" y="23.6" width="1.4" height="0.4"/>
		</defs>
		<clipPath id="SVGID_18_">
			<use xlink:href="#SVGID_17_"  overflow="visible"/>
		</clipPath>
		<rect x="33" y="23.6" clip-path="url(#SVGID_18_)" fill="#F0EFEF" width="1.4" height="0.4"/>
	</g>
</g>
<g opacity="0.5">
	<g>
		<defs>
			<rect id="SVGID_19_" x="29.8" y="22" width="0.4" height="0.2"/>
		</defs>
		<clipPath id="SVGID_20_">
			<use xlink:href="#SVGID_19_"  overflow="visible"/>
		</clipPath>
		<rect x="29.8" y="22" clip-path="url(#SVGID_20_)" fill="#F0EFEF" width="0.4" height="0.2"/>
	</g>
</g>
<line fill="none" stroke="#F0EFEF" stroke-width="0.109" stroke-miterlimit="10" x1="33.2" y1="22.9" x2="33" y2="22.2"/>
<line fill="none" stroke="#F0EFEF" stroke-width="0.109" stroke-miterlimit="10" x1="32.2" y1="22.2" x2="32.6" y2="22.9"/>
<line fill="none" stroke="#F0EFEF" stroke-width="0.109" stroke-miterlimit="10" x1="35" y1="22.9" x2="35.3" y2="22.2"/>
<line fill="none" stroke="#F0EFEF" stroke-width="0.109" stroke-miterlimit="10" x1="34.5" y1="22.2" x2="34.3" y2="22.9"/>
<line fill="none" stroke="#F0EFEF" stroke-width="0.109" stroke-miterlimit="10" x1="33.8" y1="22.9" x2="33.8" y2="22.2"/>
<polygon fill="#F0EFEF" points="34.2,22.9 34.2,22.8 33.9,22.8 33.9,22.9 33.7,22.9 33.7,22.8 33.4,22.8 33.4,22.9 33.1,23 
	33.1,22.8 32.7,22.8 32.7,22.9 32.5,23 32.4,22.8 31.8,22.8 31.8,22.9 31.6,23 31.5,22.8 30.2,22.8 30.2,23 34.2,23 34.2,22.9 "/>
<polygon fill="#F0D196" points="35.7,22.9 35.7,22.8 35.1,22.8 35.1,23 34.8,22.9 34.9,22.8 34.5,22.8 34.5,22.8 34.5,23 37.4,23 
	37.4,22.8 36,22.8 35.9,23 "/>
<polygon fill="#F0D196" points="34.5,23 34.2,22.9 34.2,23 34.5,23 34.5,22.8 "/>
<polygon fill="#F0EFEF" points="32.7,22.8 32.4,22.2 32.1,22.2 32.4,22.8 "/>
<polygon fill="#F0EFEF" points="32.5,23 32.7,22.9 32.7,22.8 32.4,22.8 "/>
<polygon fill="#F0EFEF" points="31.3,22.2 31,22.2 31.5,22.8 31.8,22.8 "/>
<polygon fill="#F0EFEF" points="31.8,22.9 31.8,22.8 31.5,22.8 31.6,23 "/>
<polygon fill="#F0EFEF" points="33.4,22.8 33.2,22.2 33,22.2 33.1,22.8 "/>
<polygon fill="#F0EFEF" points="33.1,23 33.4,22.9 33.4,22.8 33.1,22.8 "/>
<polygon fill="#F0D196" points="34.2,22.8 34.5,22.8 34.5,22.8 34.6,22.2 34.3,22.2 34.2,22.8 "/>
<polygon fill="#F0D196" points="34.2,22.8 34.2,22.9 34.2,22.9 34.2,22.8 "/>
<path fill="#F0D196" d="M34.5,22.8L34.5,22.8L34.5,22.8z"/>
<polygon fill="#F0D196" points="34.2,22.8 34.2,22.9 34.5,23 34.5,22.8 34.5,22.8 "/>
<polygon fill="#F0EFEF" points="33.9,22.8 33.9,22.2 33.7,22.2 33.7,22.8 "/>
<rect x="33.7" y="22.8" fill="#F0EFEF" width="0.3" height="0.1"/>
<polygon fill="#F0D196" points="35.7,22.8 36,22.8 36.4,22.2 36.1,22.2 "/>
<polygon fill="#F0D196" points="35.7,22.9 35.9,23 36,22.8 35.7,22.8 "/>
<polygon fill="#F0D196" points="35.1,22.8 35.4,22.2 35.1,22.2 34.9,22.8 "/>
<polygon fill="#F0D196" points="34.8,22.9 35.1,23 35.1,22.8 34.9,22.8 "/>
<polygon fill="#F0EFEF" points="44,23 44,22.9 43.7,22.9 43.7,23 43.5,23 43.5,22.9 43.1,22.9 43.1,23 42.9,23 42.9,22.9 42.5,22.9 
	42.5,23 42.3,23.1 42.2,22.9 41.6,22.9 41.6,22.9 41.4,23.1 41.3,22.9 40,22.9 40,23.1 44,23.1 44,23 "/>
<polygon fill="#F0D196" points="45.5,22.9 45.5,22.9 44.9,22.9 44.9,23 44.6,23 44.6,22.9 44.3,22.9 44.3,22.9 44.3,23.1 47.2,23.1 
	47.2,22.9 45.8,22.9 45.7,23.1 "/>
<polygon fill="#F0D196" points="44.2,23 44,23 44,23.1 44.3,23.1 44.3,22.9 "/>
<polygon fill="#F0EFEF" points="41.9,22.2 42.2,22.9 42.5,22.9 42.2,22.2 "/>
<polygon fill="#F0EFEF" points="42.3,23.1 42.5,23 42.5,22.9 42.2,22.9 "/>
<polygon fill="#F0EFEF" points="41,22.2 40.7,22.2 41.3,22.9 41.6,22.9 "/>
<polygon fill="#F0EFEF" points="41.6,22.9 41.6,22.9 41.3,22.9 41.4,23.1 "/>
<polygon fill="#F0EFEF" points="42.7,22.2 42.9,22.9 43.1,22.9 43,22.2 "/>
<polygon fill="#F0EFEF" points="42.9,23 43.1,23 43.1,22.9 42.9,22.9 "/>
<polygon fill="#F0D196" points="44.1,22.2 44,22.9 44,22.9 44.3,22.9 44.4,22.2 "/>
<polygon fill="#F0D196" points="44,22.9 44,23 44,23 44,22.9 "/>
<path fill="#F0D196" d="M44.3,22.9L44.3,22.9L44.3,22.9z"/>
<polygon fill="#F0D196" points="44,22.9 44,23 44.2,23 44.3,22.9 44.3,22.9 "/>
<polygon fill="#F0EFEF" points="43.4,22.2 43.5,22.9 43.7,22.9 43.7,22.2 "/>
<polygon fill="#F0EFEF" points="43.5,23 43.7,23 43.7,22.9 43.4,22.9 "/>
<polygon fill="#F0D196" points="45.9,22.2 45.5,22.9 45.8,22.9 46.3,22.2 "/>
<polygon fill="#F0D196" points="45.5,22.9 45.7,23.1 45.8,22.9 45.5,22.9 "/>
<polygon fill="#F0D196" points="44.9,22.2 44.6,22.9 44.9,22.9 45.2,22.2 "/>
<polygon fill="#F0D196" points="44.6,23 44.9,23 44.9,22.9 44.6,22.9 "/>
<rect x="31.9" y="23.2" fill="#F0D196" width="2.4" height="0.2"/>
<rect x="34.2" y="23.2" fill="#F0EFEF" width="1.4" height="0.2"/>
<rect x="41.7" y="23.2" fill="#F0D196" width="2.4" height="0.2"/>
<rect x="44" y="23.2" fill="#F0EFEF" width="1.4" height="0.2"/>
<g opacity="0.75">
	<g>
		<defs>
			<rect id="SVGID_21_" x="32.8" y="22" width="1.3" height="2.5"/>
		</defs>
		<clipPath id="SVGID_22_">
			<use xlink:href="#SVGID_21_"  overflow="visible"/>
		</clipPath>
		
			<line clip-path="url(#SVGID_22_)" fill="none" stroke="#000000" stroke-width="0.109" stroke-miterlimit="10" x1="34.1" y1="24.6" x2="32.9" y2="22.1"/>
	</g>
</g>
<line fill="none" stroke="#F0EFEF" stroke-width="0.109" stroke-miterlimit="10" x1="33.9" y1="24.5" x2="32.8" y2="22"/>
<g opacity="0.75">
	<g>
		<defs>
			<rect id="SVGID_23_" x="43.8" y="22.3" width="2" height="2.3"/>
		</defs>
		<clipPath id="SVGID_24_">
			<use xlink:href="#SVGID_23_"  overflow="visible"/>
		</clipPath>
		
			<line clip-path="url(#SVGID_24_)" fill="none" stroke="#000000" stroke-width="0.109" stroke-miterlimit="10" x1="43.8" y1="24.6" x2="45.7" y2="22.3"/>
	</g>
</g>
<line fill="none" stroke="#F0EFEF" stroke-width="0.109" stroke-miterlimit="10" x1="43.7" y1="24.5" x2="45.6" y2="22.2"/>
<rect x="46.2" y="27.1" fill="#231F20" width="0.6" height="1.6"/>
<rect x="47.5" y="27.1" fill="#231F20" width="0.6" height="1.6"/>
<rect x="48.8" y="27.1" fill="#231F20" width="0.6" height="1.6"/>
<rect x="46.4" y="27.9" fill="#A7A5A6" width="0.5" height="0.8"/>
<rect x="46.4" y="27.8" fill="#ECC57C" width="0.5" height="0.1"/>
<rect x="46.4" y="28" fill="#8D8A8B" width="0.4" height="0.7"/>
<rect x="47.6" y="27.1" fill="#A7A5A6" width="0.5" height="0.8"/>
<rect x="47.6" y="27.1" fill="#ECC57C" width="0.5" height="0.1"/>
<rect x="47.7" y="27.2" fill="#8D8A8B" width="0.4" height="0.7"/>
<rect x="48.9" y="27.5" fill="#A7A5A6" width="0.5" height="0.8"/>
<rect x="48.9" y="27.5" fill="#ECC57C" width="0.5" height="0.1"/>
<rect x="49" y="27.6" fill="#8D8A8B" width="0.4" height="0.7"/>
<rect x="46.5" y="29.3" fill="#ECC57C" width="2.7" height="0.8"/>
<line fill="none" stroke="#4F4C4D" stroke-width="0.217" stroke-miterlimit="10" x1="45.3" y1="33" x2="50.6" y2="33"/>
<line fill="none" stroke="#4F4C4D" stroke-width="0.217" stroke-miterlimit="10" x1="45.3" y1="35.4" x2="50.6" y2="35.4"/>
<path fill="#231F20" d="M50.3,34.1c0,0.2-0.1,0.3-0.3,0.3s-0.3-0.1-0.3-0.3s0.1-0.3,0.3-0.3S50.3,34,50.3,34.1"/>
<circle fill="none" stroke="#4F4C4D" stroke-width="0.217" stroke-miterlimit="10" cx="49.9" cy="34.1" r="0.3"/>
<rect x="45.4" y="33.7" fill="none" stroke="#BDBCBC" stroke-width="0.109" stroke-miterlimit="10" width="2.9" height="1.1"/>
<rect x="45.4" y="33.6" fill="#231F20" width="2.9" height="1.1"/>
<rect x="45.4" y="33.6" fill="none" stroke="#4F4C4D" stroke-width="0.109" stroke-miterlimit="10" width="2.9" height="1.1"/>
<line fill="#231F20" x1="46.3" y1="33.7" x2="46.3" y2="34.7"/>
<line fill="none" stroke="#4F4C4D" stroke-width="0.109" stroke-miterlimit="10" x1="46.3" y1="33.7" x2="46.3" y2="34.7"/>
<line fill="#231F20" x1="47.3" y1="33.7" x2="47.3" y2="34.7"/>
<line fill="none" stroke="#4F4C4D" stroke-width="0.109" stroke-miterlimit="10" x1="47.3" y1="33.7" x2="47.3" y2="34.7"/>
<rect x="29.1" y="41.6" fill="#231F20" width="0.9" height="3"/>
<rect x="29.2" y="41.6" fill="#D3D2D2" width="0.7" height="2"/>
<rect x="29.2" y="43.6" fill="#A3A1A1" width="0.7" height="0.3"/>
<rect x="29.4" y="41" fill="#A3A1A1" width="0.3" height="0.3"/>
<rect x="31.6" y="41.6" fill="#231F20" width="0.9" height="3"/>
<rect x="31.7" y="41.6" fill="#D3D2D2" width="0.7" height="2"/>
<rect x="31.7" y="43.6" fill="#A3A1A1" width="0.7" height="0.3"/>
<rect x="31.9" y="41" fill="#A3A1A1" width="0.3" height="0.3"/>
<rect x="34.1" y="41.6" fill="#231F20" width="0.9" height="3"/>
<rect x="34.2" y="41.6" fill="#D3D2D2" width="0.7" height="2"/>
<rect x="34.2" y="43.6" fill="#A3A1A1" width="0.7" height="0.3"/>
<rect x="34.4" y="41" fill="#A3A1A1" width="0.3" height="0.3"/>
<rect x="36.7" y="41.6" fill="#231F20" width="0.9" height="3"/>
<rect x="36.8" y="41.6" fill="#D3D2D2" width="0.7" height="2"/>
<rect x="36.8" y="43.6" fill="#A3A1A1" width="0.7" height="0.3"/>
<rect x="36.9" y="41" fill="#A3A1A1" width="0.3" height="0.3"/>
<rect x="39.2" y="41.6" fill="#231F20" width="0.9" height="3"/>
<rect x="39.3" y="41.6" fill="#D3D2D2" width="0.7" height="2"/>
<rect x="39.3" y="43.6" fill="#A3A1A1" width="0.7" height="0.3"/>
<rect x="39.5" y="41" fill="#A3A1A1" width="0.3" height="0.3"/>
<rect x="41.7" y="41.6" fill="#231F20" width="0.9" height="3"/>
<rect x="41.8" y="41.6" fill="#D3D2D2" width="0.7" height="2"/>
<rect x="41.8" y="43.6" fill="#A3A1A1" width="0.7" height="0.3"/>
<rect x="42" y="41" fill="#A3A1A1" width="0.3" height="0.3"/>
<rect x="47.4" y="41.8" fill="#231F20" width="1.4" height="1.4"/>
<path fill="#D3D2D2" d="M48.5,43h-0.6v-0.6h0.6V43z M48.7,42.1h-1.1v1.1h1.1V42.1z"/>
<rect x="47.4" y="44.7" fill="#ECC57C" width="1.5" height="0.7"/>
<rect x="26.6" y="47.6" fill="#CFCECE" width="24.3" height="0.8"/>
<rect x="26.6" y="48.4" fill="#231F20" width="24.3" height="1.9"/>
<rect x="29.6" y="27.8" fill="#868484" width="12.3" height="1"/>
<rect x="29.6" y="28.8" fill="#231F20" width="12.3" height="5.9"/>
<g>
	<g>
		<defs>
			<rect id="SVGID_25_" x="31.7" y="30.6" width="1.9" height="1.9"/>
		</defs>
		<clipPath id="SVGID_26_">
			<use xlink:href="#SVGID_25_"  overflow="visible"/>
		</clipPath>
		<path clip-path="url(#SVGID_26_)" fill="#231F20" d="M33.6,31.6c0,0.5-0.4,0.9-0.9,0.9s-0.9-0.4-0.9-0.9c0-0.5,0.4-0.9,0.9-0.9
			S33.6,31.1,33.6,31.6"/>
	</g>
</g>
<path fill="#D3D2D2" d="M33,31.6c0,0.2-0.2,0.4-0.4,0.4s-0.4-0.2-0.4-0.4s0.2-0.4,0.4-0.4S33,31.4,33,31.6"/>
<g>
	<g>
		<defs>
			<rect id="SVGID_27_" x="37.7" y="30.6" width="1.9" height="1.9"/>
		</defs>
		<clipPath id="SVGID_28_">
			<use xlink:href="#SVGID_27_"  overflow="visible"/>
		</clipPath>
		<path clip-path="url(#SVGID_28_)" fill="#231F20" d="M39.6,31.6c0,0.5-0.4,0.9-0.9,0.9s-0.9-0.4-0.9-0.9c0-0.5,0.4-0.9,0.9-0.9
			S39.6,31.1,39.6,31.6"/>
	</g>
</g>
<path fill="#D3D2D2" d="M39,31.6c0,0.2-0.2,0.4-0.4,0.4c-0.2,0-0.4-0.2-0.4-0.4s0.2-0.4,0.4-0.4C38.8,31.2,39,31.4,39,31.6"/>
<rect x="41.5" y="27.8" fill="#4F4C4D" width="2.8" height="6.8"/>
<rect x="41.5" y="27.8" fill="#2E2A2B" width="2.8" height="0.4"/>
<rect x="27.3" y="27.8" fill="#4F4C4D" width="2.8" height="6.8"/>
<rect x="27.3" y="27.8" fill="#2E2A2B" width="2.8" height="0.4"/>
<g opacity="0.5">
	<g>
		<defs>
			<rect id="SVGID_29_" x="30.1" y="28.8" width="11.4" height="5.9"/>
		</defs>
		<clipPath id="SVGID_30_">
			<use xlink:href="#SVGID_29_"  overflow="visible"/>
		</clipPath>
		<polygon clip-path="url(#SVGID_30_)" fill="#231F20" points="30.1,28.8 41.5,34.6 41.5,28.8 		"/>
	</g>
</g>
<g opacity="0.5">
	<g>
		<defs>
			<rect id="SVGID_31_" x="36" y="28.8" width="5.5" height="2.8"/>
		</defs>
		<clipPath id="SVGID_32_">
			<use xlink:href="#SVGID_31_"  overflow="visible"/>
		</clipPath>
		<polygon clip-path="url(#SVGID_32_)" fill="#231F20" points="36,28.8 41.5,31.6 41.5,28.8 		"/>
	</g>
</g>
<g opacity="0.3">
	<g>
		<defs>
			<rect id="SVGID_33_" x="28" y="20" width="21.5" height="4.4"/>
		</defs>
		<clipPath id="SVGID_34_">
			<use xlink:href="#SVGID_33_"  overflow="visible"/>
		</clipPath>
		<polygon clip-path="url(#SVGID_34_)" fill="#231F20" points="28,20 49.5,24.4 49.5,20 		"/>
	</g>
</g>
<rect x="0.3" y="8.2" fill="#231F20" width="76.6" height="10.1"/>
<rect x="0.8" y="6.5" fill="#C8C7C7" width="75.7" height="10.9"/>
<rect x="54.4" y="19.2" fill="#9C9A9B" width="20.5" height="5.8"/>
<rect x="61.9" y="19.8" fill="#393536" width="5.4" height="4.6"/>
<g opacity="0.5">
	<g>
		<defs>
			<rect id="SVGID_35_" x="61.9" y="19.8" width="5.4" height="4.6"/>
		</defs>
		<clipPath id="SVGID_36_">
			<use xlink:href="#SVGID_35_"  overflow="visible"/>
		</clipPath>
		<polygon clip-path="url(#SVGID_36_)" fill="#393536" points="61.9,19.8 67.3,24.3 67.3,19.8 		"/>
	</g>
</g>
<g opacity="0.3">
	<g>
		<defs>
			<rect id="SVGID_37_" x="55.7" y="19.7" width="6.2" height="2.5"/>
		</defs>
		<clipPath id="SVGID_38_">
			<use xlink:href="#SVGID_37_"  overflow="visible"/>
		</clipPath>
		<path clip-path="url(#SVGID_38_)" fill="#D3D2D2" d="M55.7,19.7c0,0,4.5,0.8,5.4,2.5H62v-2.5H55.7z"/>
	</g>
</g>
<g opacity="0.3">
	<g>
		<defs>
			<rect id="SVGID_39_" x="67.3" y="19.7" width="6.2" height="2.5"/>
		</defs>
		<clipPath id="SVGID_40_">
			<use xlink:href="#SVGID_39_"  overflow="visible"/>
		</clipPath>
		<path clip-path="url(#SVGID_40_)" fill="#D3D2D2" d="M73.5,19.7c0,0-4.5,0.8-5.4,2.5h-0.8v-2.5H73.5z"/>
	</g>
</g>
<path fill="#868484" d="M55.7,24.3c0,0,4.5-0.7,5.4-2.1H62v2.1H55.7z"/>
<path fill="#868484" d="M73.5,24.3c0,0-4.5-0.7-5.4-2.1h-0.8v2.1H73.5z"/>
<path fill="#D3D2D2" d="M64.6,21.4c0.4,0,0.8,0.3,0.8,0.8s-0.3,0.8-0.8,0.8c-0.4,0-0.8-0.3-0.8-0.8S64.2,21.4,64.6,21.4 M64.6,21.2
	c-0.5,0-1,0.4-1,1c0,0.5,0.4,1,1,1c0.5,0,1-0.4,1-1C65.6,21.6,65.2,21.2,64.6,21.2"/>
<path fill="#D3D2D2" d="M65.2,22.1c0-0.3-0.3-0.6-0.6-0.6c-0.3,0-0.6,0.3-0.6,0.6c0,0.3,0.3,0.6,0.6,0.6
	C65,22.8,65.2,22.5,65.2,22.1"/>
<path fill="#A7A5A6" d="M64.6,22.6c-0.3,0-0.6-0.2-0.6-0.5c0,0,0,0,0,0.1c0,0.3,0.3,0.6,0.6,0.6s0.6-0.3,0.6-0.6c0,0,0,0,0-0.1
	C65.2,22.4,64.9,22.6,64.6,22.6"/>
<path fill="#E9E9E9" d="M65,21.8c0-0.1-0.2-0.2-0.4-0.2c-0.2,0-0.4,0.1-0.4,0.2s0.2,0.2,0.4,0.2C64.8,22,65,21.9,65,21.8"/>
<g>
	<g>
		<defs>
			<rect id="SVGID_41_" x="61.3" y="20.5" width="0.7" height="3.6"/>
		</defs>
		<clipPath id="SVGID_42_">
			<use xlink:href="#SVGID_41_"  overflow="visible"/>
		</clipPath>
		<path clip-path="url(#SVGID_42_)" fill="#CAC9C9" d="M62,24c-0.4,0-0.7-0.8-0.7-1.8c0-1,0.3-1.8,0.7-1.8V24z"/>
	</g>
</g>
<g>
	<g>
		<defs>
			<rect id="SVGID_43_" x="67.3" y="20.5" width="0.7" height="3.6"/>
		</defs>
		<clipPath id="SVGID_44_">
			<use xlink:href="#SVGID_43_"  overflow="visible"/>
		</clipPath>
		<path clip-path="url(#SVGID_44_)" fill="#CAC9C9" d="M67.3,24c0.4,0,0.7-0.8,0.7-1.8c0-1-0.3-1.8-0.7-1.8V24z"/>
	</g>
</g>
<path fill="#EBEBEB" d="M68,21.5c0,0.1-0.1,0.1-0.1,0.1h-6.6c-0.1,0-0.1-0.1-0.1-0.1c0-0.1,0.1-0.1,0.1-0.1h6.6
	C68,21.4,68,21.4,68,21.5"/>
<path fill="#EBEBEB" d="M68,22.2c0,0.1-0.1,0.1-0.1,0.1h-6.6c-0.1,0-0.1-0.1-0.1-0.1c0-0.1,0.1-0.1,0.1-0.1h6.6
	C68,22.1,68,22.2,68,22.2"/>
<path fill="#EBEBEB" d="M68,22.9c0,0.1-0.1,0.1-0.1,0.1h-6.6c-0.1,0-0.1-0.1-0.1-0.1c0-0.1,0.1-0.1,0.1-0.1h6.6
	C68,22.8,68,22.9,68,22.9"/>
<line fill="none" stroke="#807D7E" stroke-width="0.217" stroke-miterlimit="10" x1="55.7" y1="19.7" x2="55.7" y2="24.3"/>
<line fill="none" stroke="#807D7E" stroke-width="0.217" stroke-miterlimit="10" x1="73.5" y1="19.7" x2="73.5" y2="24.3"/>
<rect x="2.5" y="19.4" fill="#9C9A9B" width="20.5" height="5.8"/>
<rect x="10.1" y="20" fill="#393536" width="5.4" height="4.6"/>
<g opacity="0.5">
	<g>
		<defs>
			<rect id="SVGID_45_" x="10.1" y="20" width="5.4" height="4.6"/>
		</defs>
		<clipPath id="SVGID_46_">
			<use xlink:href="#SVGID_45_"  overflow="visible"/>
		</clipPath>
		<polygon clip-path="url(#SVGID_46_)" fill="#393536" points="10.1,20 15.5,24.5 15.5,20 		"/>
	</g>
</g>
<g opacity="0.3">
	<g>
		<defs>
			<rect id="SVGID_47_" x="3.9" y="20" width="6.2" height="2.5"/>
		</defs>
		<clipPath id="SVGID_48_">
			<use xlink:href="#SVGID_47_"  overflow="visible"/>
		</clipPath>
		<path clip-path="url(#SVGID_48_)" fill="#D3D2D2" d="M3.9,20c0,0,4.5,0.8,5.4,2.5h0.8V20H3.9z"/>
	</g>
</g>
<g opacity="0.3">
	<g>
		<defs>
			<rect id="SVGID_49_" x="15.4" y="20" width="6.2" height="2.5"/>
		</defs>
		<clipPath id="SVGID_50_">
			<use xlink:href="#SVGID_49_"  overflow="visible"/>
		</clipPath>
		<path clip-path="url(#SVGID_50_)" fill="#D3D2D2" d="M21.6,20c0,0-4.5,0.8-5.4,2.5h-0.8V20H21.6z"/>
	</g>
</g>
<path fill="#868484" d="M3.9,24.5c0,0,4.5-0.7,5.4-2.1h0.8v2.1H3.9z"/>
<path fill="#868484" d="M21.6,24.5c0,0-4.5-0.7-5.4-2.1h-0.8v2.1H21.6z"/>
<path fill="#D3D2D2" d="M12.8,21.6c0.4,0,0.8,0.3,0.8,0.8s-0.3,0.8-0.8,0.8S12,22.8,12,22.4S12.3,21.6,12.8,21.6 M12.8,21.4
	c-0.5,0-1,0.4-1,1c0,0.5,0.4,1,1,1c0.5,0,1-0.4,1-1C13.7,21.8,13.3,21.4,12.8,21.4"/>
<path fill="#D3D2D2" d="M13.4,22.4c0-0.3-0.3-0.6-0.6-0.6c-0.3,0-0.6,0.3-0.6,0.6s0.3,0.6,0.6,0.6C13.1,23,13.4,22.7,13.4,22.4"/>
<path fill="#A7A5A6" d="M12.8,22.8c-0.3,0-0.6-0.2-0.6-0.5c0,0,0,0,0,0.1c0,0.3,0.3,0.6,0.6,0.6s0.6-0.3,0.6-0.6c0,0,0-0.1,0-0.1
	C13.3,22.6,13.1,22.8,12.8,22.8"/>
<path fill="#E9E9E9" d="M13.1,22.1c0-0.1-0.2-0.2-0.4-0.2c-0.2,0-0.4,0.1-0.4,0.2s0.2,0.2,0.4,0.2C13,22.3,13.1,22.2,13.1,22.1"/>
<g>
	<g>
		<defs>
			<rect id="SVGID_51_" x="9.4" y="20.7" width="0.7" height="3.6"/>
		</defs>
		<clipPath id="SVGID_52_">
			<use xlink:href="#SVGID_51_"  overflow="visible"/>
		</clipPath>
		<path clip-path="url(#SVGID_52_)" fill="#CAC9C9" d="M10.1,24.3c-0.4,0-0.7-0.8-0.7-1.8c0-1,0.3-1.8,0.7-1.8V24.3z"/>
	</g>
</g>
<g>
	<g>
		<defs>
			<rect id="SVGID_53_" x="15.4" y="20.7" width="0.7" height="3.6"/>
		</defs>
		<clipPath id="SVGID_54_">
			<use xlink:href="#SVGID_53_"  overflow="visible"/>
		</clipPath>
		<path clip-path="url(#SVGID_54_)" fill="#CAC9C9" d="M15.4,24.3c0.4,0,0.7-0.8,0.7-1.8c0-1-0.3-1.8-0.7-1.8V24.3z"/>
	</g>
</g>
<path fill="#EBEBEB" d="M16.2,21.7c0,0.1-0.1,0.1-0.1,0.1H9.5c-0.1,0-0.1-0.1-0.1-0.1s0.1-0.1,0.1-0.1h6.6
	C16.1,21.6,16.2,21.7,16.2,21.7"/>
<path fill="#EBEBEB" d="M16.2,22.4c0,0.1-0.1,0.1-0.1,0.1H9.5c-0.1,0-0.1-0.1-0.1-0.1s0.1-0.1,0.1-0.1h6.6
	C16.1,22.3,16.2,22.4,16.2,22.4"/>
<path fill="#EBEBEB" d="M16.2,23.2c0,0.1-0.1,0.1-0.1,0.1H9.5c-0.1,0-0.1-0.1-0.1-0.1c0-0.1,0.1-0.1,0.1-0.1h6.6
	C16.1,23,16.2,23.1,16.2,23.2"/>
<line fill="none" stroke="#807D7E" stroke-width="0.217" stroke-miterlimit="10" x1="3.9" y1="20" x2="3.9" y2="24.5"/>
<line fill="none" stroke="#807D7E" stroke-width="0.217" stroke-miterlimit="10" x1="21.6" y1="20" x2="21.6" y2="24.5"/>
<polygon fill="#231F20" points="11.1,0 11.1,8.2 12.4,8.2 12.4,2.9 66.2,2.9 66.2,8.2 67.4,8.2 67.4,0 "/>
<rect x="12.3" y="1.4" fill="#444142" width="53.9" height="0.8"/>
<rect x="12.3" y="1.2" fill="#656263" width="53.9" height="0.2"/>
<polygon fill="#A7A5A6" points="9.3,13.8 9.3,10.1 9.9,10.1 8.8,10 8.8,14.4 69.7,14.4 69.7,14.3 62.9,13.8 "/>
<polygon fill="#393536" points="8.8,9.5 8.8,10 9.9,10.1 69.2,10.1 69.2,13.8 62.9,13.8 69.7,14.3 69.7,9.5 "/>
<rect x="9.3" y="10.1" fill="#231F20" width="59.9" height="3.8"/>
<g>
	<g>
		<defs>
			<rect id="SVGID_55_" x="9.3" y="10.1" width="59.9" height="3.8"/>
		</defs>
		<clipPath id="SVGID_56_">
			<use xlink:href="#SVGID_55_"  overflow="visible"/>
		</clipPath>
		<polygon clip-path="url(#SVGID_56_)" fill="#231F20" points="9.3,10.1 9.3,13.8 10,13.8 10,11.1 68.5,11.1 68.5,13.8 69.2,13.8 
			69.2,10.1 		"/>
	</g>
</g>
<g opacity="0.4">
	<g>
		<defs>
			<rect id="SVGID_57_" x="18.4" y="10.1" width="50.8" height="3.8"/>
		</defs>
		<clipPath id="SVGID_58_">
			<use xlink:href="#SVGID_57_"  overflow="visible"/>
		</clipPath>
		<polygon clip-path="url(#SVGID_58_)" fill="#231F20" points="18.4,10.1 69.2,13.8 69.2,10.1 		"/>
	</g>
</g>
<rect x="15.8" y="11.2" fill="none" stroke="#BDBCBC" stroke-width="0.109" stroke-miterlimit="10" width="3" height="0.5"/>
<rect x="15.8" y="12.2" fill="none" stroke="#BDBCBC" stroke-width="0.109" stroke-miterlimit="10" width="3" height="0.5"/>
<rect x="15.8" y="13.1" fill="none" stroke="#BDBCBC" stroke-width="0.109" stroke-miterlimit="10" width="3" height="0.5"/>
<rect x="13.9" y="11.2" fill="#B7586A" width="0.9" height="0.5"/>
<rect x="13.9" y="12.2" fill="#B7586A" width="0.9" height="0.5"/>
<rect x="13.9" y="13.2" fill="#B7586A" width="0.9" height="0.5"/>
<line fill="none" stroke="#BDBCBC" stroke-width="0.109" stroke-miterlimit="10" x1="19.2" y1="12.4" x2="65" y2="12.4"/>
<line fill="none" stroke="#BDBCBC" stroke-width="0.217" stroke-miterlimit="10" x1="39.5" y1="12.4" x2="39.5" y2="13.1"/>
<line fill="none" stroke="#BDBCBC" stroke-width="0.251" stroke-miterlimit="10" x1="40" y1="11.5" x2="40" y2="12.4"/>
<line fill="none" stroke="#BDBCBC" stroke-width="0.251" stroke-miterlimit="10" x1="42.2" y1="11.5" x2="42.2" y2="12.4"/>
<line fill="none" stroke="#BDBCBC" stroke-width="0.251" stroke-miterlimit="10" x1="44.5" y1="11.5" x2="44.5" y2="12.4"/>
<line fill="none" stroke="#BDBCBC" stroke-width="0.251" stroke-miterlimit="10" x1="46.8" y1="11.5" x2="46.8" y2="12.4"/>
<line fill="none" stroke="#BDBCBC" stroke-width="0.251" stroke-miterlimit="10" x1="49.1" y1="11.5" x2="49.1" y2="12.4"/>
<line fill="none" stroke="#BDBCBC" stroke-width="0.251" stroke-miterlimit="10" x1="51.4" y1="11.5" x2="51.4" y2="12.4"/>
<line fill="none" stroke="#BDBCBC" stroke-width="0.251" stroke-miterlimit="10" x1="53.7" y1="11.5" x2="53.7" y2="12.4"/>
<line fill="none" stroke="#BDBCBC" stroke-width="0.251" stroke-miterlimit="10" x1="55.9" y1="11.5" x2="55.9" y2="12.4"/>
<line fill="none" stroke="#BDBCBC" stroke-width="0.251" stroke-miterlimit="10" x1="58.2" y1="11.5" x2="58.2" y2="12.4"/>
<line fill="none" stroke="#BDBCBC" stroke-width="0.217" stroke-miterlimit="10" x1="41.3" y1="12.4" x2="41.3" y2="13.1"/>
<line fill="none" stroke="#BDBCBC" stroke-width="0.217" stroke-miterlimit="10" x1="43.2" y1="12.4" x2="43.2" y2="13.1"/>
<line fill="none" stroke="#BDBCBC" stroke-width="0.217" stroke-miterlimit="10" x1="45" y1="12.4" x2="45" y2="13.1"/>
<line fill="none" stroke="#BDBCBC" stroke-width="0.217" stroke-miterlimit="10" x1="46.9" y1="12.4" x2="46.9" y2="13.1"/>
<line fill="none" stroke="#BDBCBC" stroke-width="0.217" stroke-miterlimit="10" x1="48.7" y1="12.4" x2="48.7" y2="13.1"/>
<line fill="none" stroke="#BDBCBC" stroke-width="0.217" stroke-miterlimit="10" x1="50.6" y1="12.4" x2="50.6" y2="13.1"/>
<line fill="none" stroke="#BDBCBC" stroke-width="0.217" stroke-miterlimit="10" x1="52.4" y1="12.4" x2="52.4" y2="13.1"/>
<line fill="none" stroke="#BDBCBC" stroke-width="0.217" stroke-miterlimit="10" x1="54.3" y1="12.4" x2="54.3" y2="13.1"/>
<line fill="none" stroke="#BDBCBC" stroke-width="0.217" stroke-miterlimit="10" x1="56.1" y1="12.4" x2="56.1" y2="13.1"/>
<rect x="63.6" y="10.9" fill="#BDBCBC" width="1.3" height="0.6"/>
<rect x="64" y="11.8" fill="#BDBCBC" width="1" height="0.4"/>
<rect x="64" y="13.1" fill="#BDBCBC" width="1" height="0.2"/>
<rect x="30.7" y="13.3" fill="#BDBCBC" width="4.7" height="0.1"/>
<rect x="30.7" y="11.1" fill="#BDBCBC" width="4.2" height="0.3"/>
<rect x="30.7" y="11.7" fill="#BDBCBC" width="1.6" height="0.1"/>
<line fill="none" stroke="#B14A5D" stroke-width="0.326" stroke-miterlimit="10" x1="49.1" y1="10.2" x2="49.1" y2="13.6"/>
<g opacity="0.3">
	<g>
		<defs>
			<rect id="SVGID_59_" x="63.2" y="15.1" width="1.8" height="1.8"/>
		</defs>
		<clipPath id="SVGID_60_">
			<use xlink:href="#SVGID_59_"  overflow="visible"/>
		</clipPath>
		<path clip-path="url(#SVGID_60_)" fill="#E9E9E9" d="M63.5,15.3c-0.2,0.2-0.3,0.4-0.3,0.7c0,0.5,0.4,0.9,0.9,0.9V16L63.5,15.3z"/>
		<path clip-path="url(#SVGID_60_)" fill="#E9E9E9" d="M65,16h-0.9l0.6,0.7C64.9,16.5,65,16.3,65,16"/>
		<path clip-path="url(#SVGID_60_)" fill="#FFFFFF" d="M64.1,15.1V16H65C65,15.5,64.6,15.1,64.1,15.1"/>
		<path clip-path="url(#SVGID_60_)" fill="#918F90" d="M64.1,16.9c0.2,0,0.5-0.1,0.6-0.3L64.1,16V16.9z"/>
		<path clip-path="url(#SVGID_60_)" fill="#918F90" d="M64.1,15.1c-0.2,0-0.5,0.1-0.6,0.3l0.6,0.7V15.1z"/>
	</g>
</g>
<rect x="63.3" y="15.9" fill="#A82526" width="0.1" height="0.2"/>
<g>
	<g>
		<defs>
			<rect id="SVGID_61_" x="67.3" y="15" width="1.8" height="2"/>
		</defs>
		<clipPath id="SVGID_62_">
			<use xlink:href="#SVGID_61_"  overflow="visible"/>
		</clipPath>
		<path clip-path="url(#SVGID_62_)" fill="#918F90" d="M69.2,16c0,0.5-0.4,1-0.9,1s-0.9-0.4-0.9-1c0-0.5,0.4-1,0.9-1
			S69.2,15.4,69.2,16"/>
	</g>
</g>
<path fill="#E9E9E9" d="M67.6,15.3c-0.2,0.2-0.3,0.4-0.3,0.7c0,0.5,0.4,0.9,0.9,0.9v-0.9L67.6,15.3z"/>
<path fill="#E9E9E9" d="M69.2,15.9h-0.9l0.6,0.7C69.1,16.4,69.2,16.2,69.2,15.9"/>
<path fill="#FFFFFF" d="M68.3,15v0.9h0.9C69.2,15.4,68.8,15,68.3,15"/>
<path fill="#918F90" d="M68.3,16.9c0.2,0,0.5-0.1,0.6-0.3l-0.6-0.7V16.9z"/>
<path fill="#918F90" d="M68.3,15c-0.2,0-0.5,0.1-0.6,0.3l0.6,0.7V15z"/>
<path fill="#D1D0D0" d="M68.9,15.9c0,0.4-0.3,0.7-0.7,0.7c-0.4,0-0.7-0.3-0.7-0.7c0-0.4,0.3-0.7,0.7-0.7
	C68.6,15.3,68.9,15.6,68.9,15.9"/>
<path fill="#918F90" d="M68.3,15.5c0.3,0,0.5,0.2,0.6,0.5c0,0,0,0,0,0C68.8,15.6,68.6,15.4,68.3,15.5c-0.3-0.1-0.6,0.2-0.6,0.5
	c0,0,0,0,0,0C67.7,15.7,68,15.5,68.3,15.5"/>
<path fill="#F2F1F2" d="M68.3,16.4c-0.3,0-0.5-0.2-0.6-0.5c0,0,0,0,0,0C67.7,16.3,67.9,16.5,68.3,16.4c0.3,0.1,0.6-0.2,0.6-0.5
	c0,0,0,0,0,0C68.8,16.2,68.5,16.4,68.3,16.4"/>
<rect x="68.8" y="15.4" transform="matrix(0.6229 0.7823 -0.7823 0.6229 38.0097 -48.0253)" fill="#A82526" width="0.1" height="0.1"/>
<g>
	<g>
		<defs>
			<rect id="SVGID_63_" x="59.3" y="15" width="1.8" height="2"/>
		</defs>
		<clipPath id="SVGID_64_">
			<use xlink:href="#SVGID_63_"  overflow="visible"/>
		</clipPath>
		<path clip-path="url(#SVGID_64_)" fill="#918F90" d="M61.2,16c0,0.5-0.4,1-0.9,1s-0.9-0.4-0.9-1c0-0.5,0.4-1,0.9-1
			S61.2,15.4,61.2,16"/>
	</g>
</g>
<path fill="#E9E9E9" d="M59.6,15.3c-0.2,0.2-0.3,0.4-0.3,0.7c0,0.5,0.4,0.9,0.9,0.9v-0.9L59.6,15.3z"/>
<path fill="#E9E9E9" d="M61.2,15.9h-0.9l0.6,0.7C61.1,16.4,61.2,16.2,61.2,15.9"/>
<path fill="#FFFFFF" d="M60.3,15v0.9h0.9C61.2,15.4,60.8,15,60.3,15"/>
<path fill="#918F90" d="M60.3,16.8c0.2,0,0.5-0.1,0.6-0.3l-0.6-0.7V16.8z"/>
<path fill="#918F90" d="M60.3,15c-0.2,0-0.5,0.1-0.6,0.3l0.6,0.7V15z"/>
<path fill="#D1D0D0" d="M60.9,15.9c0,0.4-0.3,0.7-0.7,0.7c-0.4,0-0.7-0.3-0.7-0.7c0-0.4,0.3-0.7,0.7-0.7
	C60.6,15.3,60.9,15.6,60.9,15.9"/>
<path fill="#918F90" d="M60.3,15.5c0.3,0,0.5,0.2,0.6,0.5c0,0,0,0,0,0C60.8,15.6,60.6,15.4,60.3,15.5c-0.3-0.1-0.6,0.2-0.6,0.5
	c0,0,0,0,0,0C59.7,15.7,60,15.5,60.3,15.5"/>
<path fill="#F2F1F2" d="M60.3,16.4c-0.3,0-0.5-0.2-0.6-0.5c0,0,0,0,0,0C59.7,16.2,59.9,16.5,60.3,16.4c0.3,0.1,0.6-0.2,0.6-0.5
	c0,0,0,0,0,0C60.8,16.2,60.6,16.4,60.3,16.4"/>
<rect x="60.8" y="15.4" transform="matrix(0.6194 0.7851 -0.7851 0.6194 35.2506 -41.8915)" fill="#A82526" width="0.1" height="0.1"/>
<g>
	<g>
		<defs>
			<rect id="SVGID_65_" x="56.7" y="15" width="2" height="1.8"/>
		</defs>
		<clipPath id="SVGID_66_">
			<use xlink:href="#SVGID_65_"  overflow="visible"/>
		</clipPath>
		<path clip-path="url(#SVGID_66_)" fill="#918F90" d="M57.7,15c0.5,0,1,0.4,1,0.9c0,0.5-0.4,0.9-1,0.9c-0.5,0-1-0.4-1-0.9
			C56.7,15.4,57.2,15,57.7,15"/>
	</g>
</g>
<path fill="#E9E9E9" d="M57,16.5c0.2,0.2,0.4,0.3,0.7,0.3c0.5,0,0.9-0.4,0.9-0.9h-0.9L57,16.5z"/>
<path fill="#E9E9E9" d="M57.7,15v0.9l0.7-0.6C58.2,15.1,57.9,15,57.7,15"/>
<path fill="#FFFFFF" d="M56.7,15.9h0.9V15C57.2,15,56.7,15.4,56.7,15.9"/>
<path fill="#918F90" d="M58.6,15.9c0-0.2-0.1-0.5-0.3-0.6l-0.7,0.6H58.6z"/>
<path fill="#918F90" d="M56.7,15.9c0,0.2,0.1,0.5,0.3,0.6l0.7-0.6H56.7z"/>
<path fill="#D1D0D0" d="M57.7,15.2c0.4,0,0.7,0.3,0.7,0.7s-0.3,0.7-0.7,0.7c-0.4,0-0.7-0.3-0.7-0.7S57.3,15.2,57.7,15.2"/>
<path fill="#918F90" d="M57.2,15.9c0-0.3,0.2-0.5,0.5-0.6c0,0,0,0,0,0C57.4,15.3,57.1,15.6,57.2,15.9c-0.1,0.3,0.2,0.6,0.5,0.6
	c0,0,0,0,0,0C57.4,16.4,57.2,16.2,57.2,15.9"/>
<path fill="#F2F1F2" d="M58.1,15.9c0,0.3-0.2,0.5-0.5,0.6c0,0,0,0,0,0C58,16.5,58.2,16.2,58.1,15.9c0.1-0.3-0.2-0.6-0.5-0.6
	c0,0,0,0,0,0C57.9,15.3,58.1,15.6,58.1,15.9"/>
<rect x="57.1" y="15.3" transform="matrix(0.7816 -0.6238 0.6238 0.7816 2.9305 39.002)" fill="#A82526" width="0.1" height="0.1"/>
<path fill="#231F20" d="M11,15.9c0,0.4-0.3,0.7-0.7,0.7s-0.7-0.3-0.7-0.7c0-0.4,0.3-0.7,0.7-0.7S11,15.5,11,15.9"/>
<circle fill="none" stroke="#FFFFFF" stroke-width="0.217" stroke-miterlimit="10" cx="10.3" cy="15.9" r="0.7"/>
<path fill="#231F20" d="M13.1,15.9c0,0.4-0.3,0.7-0.7,0.7s-0.7-0.3-0.7-0.7c0-0.4,0.3-0.7,0.7-0.7S13.1,15.5,13.1,15.9"/>
<circle fill="none" stroke="#FFFFFF" stroke-width="0.217" stroke-miterlimit="10" cx="12.4" cy="15.9" r="0.7"/>
<rect x="1.9" y="12.1" fill="#231F20" width="5.6" height="2.2"/>
<rect x="1.9" y="12.1" fill="none" stroke="#FFFFFF" stroke-width="0.217" stroke-miterlimit="10" width="5.6" height="2.2"/>
<rect x="2.2" y="12.4" fill="#BBBABA" width="5.1" height="1.7"/>
<rect x="2.2" y="12.4" fill="#ECC57C" width="5.1" height="0.3"/>
<rect x="70.4" y="12.1" fill="#231F20" width="5.6" height="2.2"/>
<rect x="70.4" y="12.1" fill="none" stroke="#FFFFFF" stroke-width="0.217" stroke-miterlimit="10" width="5.6" height="2.2"/>
<rect x="70.6" y="12.4" fill="#BBBABA" width="5.1" height="1.7"/>
<rect x="70.6" y="12.4" fill="#ECC57C" width="5.1" height="0.3"/>
<rect x="77.4" y="19.9" fill="#656263" width="1.6" height="6.7"/>
<rect x="79" y="20.2" fill="#231F20" width="0.3" height="6.2"/>
<rect x="77.4" y="26" fill="#373334" width="1.6" height="0.7"/>
<rect x="77.4" y="19.9" fill="#373334" width="1.6" height="0.7"/>
<rect x="77.4" y="21.8" fill="#A09F9F" width="1.6" height="1.1"/>
<rect x="79.3" y="20" fill="#656263" width="0.2" height="6.4"/>
<rect x="79.3" y="25.9" fill="#373334" width="0.2" height="0.6"/>
<rect x="79.3" y="20" fill="#373334" width="0.2" height="0.6"/>
<rect x="79.3" y="21.9" fill="#A09F9F" width="0.2" height="1.1"/>
</svg>
