<?xml version="1.0" encoding="utf-8"?>
<!-- Generator: Adobe Illustrator 15.0.2, SVG Export Plug-In . SVG Version: 6.00 Build 0)  -->
<!DOCTYPE svg PUBLIC "-//W3C//DTD SVG 1.1//EN" "http://www.w3.org/Graphics/SVG/1.1/DTD/svg11.dtd">
<svg version="1.1" id="Layer_1" xmlns="http://www.w3.org/2000/svg" xmlns:xlink="http://www.w3.org/1999/xlink" x="0px" y="0px"
	 width="44px" height="71.9px" viewBox="0 0 44 71.9" enable-background="new 0 0 44 71.9" xml:space="preserve">
<rect x="21" y="42.8" fill="#C8C7C7" width="2.1" height="22.1"/>
<g opacity="0.4">
	<g>
		<defs>
			<rect id="SVGID_1_" x="21.8" y="42.8" width="0.5" height="22.1"/>
		</defs>
		<clipPath id="SVGID_2_">
			<use xlink:href="#SVGID_1_"  overflow="visible"/>
		</clipPath>
		<rect x="21.8" y="42.8" clip-path="url(#SVGID_2_)" fill="#C8C7C7" width="0.5" height="22.1"/>
	</g>
</g>
<path fill="#706D6E" d="M21.3,57L21.3,57L21.3,57C21.3,57,21.3,56.9,21.3,57"/>
<path fill="#706D6E" d="M23.6,65.4L23.6,65.4c0-0.1,0-0.3-0.1-0.4c0-0.1,0-0.1-0.1-0.2l-0.1-0.2c-0.3-0.4-0.8-0.7-1.2-1
	c-0.2-0.1-0.4-0.3-0.5-0.4c-0.1-0.1-0.1-0.1-0.2-0.2c0-0.1-0.1-0.2-0.1-0.2c0,0,0-0.1,0-0.1l0-0.2c0-0.1,0-0.2,0-0.2
	c0-0.2,0.1-0.3,0.3-0.5c0.3-0.3,0.7-0.5,1.2-0.8c0.2-0.2,0.4-0.4,0.6-0.6l0.1-0.2c0-0.1,0-0.1,0.1-0.2c0,0,0-0.1,0-0.1l0-0.1l0-0.2
	c0,0,0,0,0,0v0l0,0l0,0l0-0.1c0-0.1,0-0.1,0-0.2l-0.1-0.2l-0.1-0.2c-0.1-0.2-0.3-0.4-0.6-0.5v1.2h0l0,0l0,0l0,0l0,0c0,0,0,0,0,0l0,0
	c0,0,0,0,0,0l0,0.1l0,0.1c0,0,0,0,0,0.1l0,0.1l-0.1,0.1c-0.1,0.2-0.3,0.3-0.4,0.4c-0.4,0.3-0.9,0.5-1.3,0.9
	c-0.2,0.2-0.3,0.4-0.4,0.7c0,0.1,0,0.2,0,0.4l0,0.2c0,0.1,0,0.1,0.1,0.2c0.2,0.5,0.7,0.8,1.1,1.1c0.4,0.3,0.8,0.5,1,0.8l0.1,0.1
	c0,0,0,0.1,0,0.1c0,0.1,0,0.2,0,0.2l0,0l0,0c0,0,0,0,0,0v0l0,0.1l0,0.1c0,0.1,0,0.1-0.1,0.2c-0.1,0.3-0.4,0.5-0.8,0.7
	c-0.3,0.2-0.8,0.4-1,0.8c-0.3,0.3-0.4,0.7-0.4,1c0,0.1,0,0.1,0.1,0.2c0,0.1,0.1,0.2,0.1,0.2c0,0.1,0.1,0.1,0.1,0.2
	c0.1,0.1,0.1,0.1,0.2,0.2c0.3,0.2,0.5,0.4,0.8,0.5c0.3,0.1,0.5,0.3,0.7,0.4c0.4,0.2,0.6,0.5,0.6,0.7c0,0.1,0,0.2,0.1,0.2
	c0,0.1,0,0.1,0,0.1s0,0,0-0.1c0,0,0-0.1,0-0.2c0-0.2-0.1-0.5-0.5-0.8c-0.3-0.3-0.9-0.6-1.2-1c0,0-0.1-0.1-0.1-0.2
	c0-0.1,0-0.1-0.1-0.2c0-0.1,0-0.1,0-0.2c0-0.1,0-0.1,0-0.2l0-0.1v0c0,0,0,0,0,0v0c0,0,0,0,0,0l0,0l0,0l0-0.1c0-0.1,0-0.1,0-0.2
	c0-0.1,0.1-0.2,0.2-0.3c0.2-0.2,0.5-0.4,0.9-0.6c0.4-0.2,0.8-0.5,1-0.9c0-0.1,0.1-0.2,0.1-0.3l0-0.1L23.6,65.4L23.6,65.4
	C23.6,65.4,23.6,65.4,23.6,65.4L23.6,65.4z"/>
<path fill="#706D6E" d="M21.3,51.4L21.3,51.4L21.3,51.4L21.3,51.4C21.3,51.3,21.3,51.4,21.3,51.4"/>
<path fill="#706D6E" d="M21.2,57L21.2,57C21.2,56.9,21.2,57,21.2,57L21.2,57L21.2,57L21.2,57L21.2,57l0-0.2h0c0,0,0-0.1,0-0.1
	c0.1-0.3,0.5-0.6,0.9-0.8c0.4-0.2,1-0.5,1.3-1c0.2-0.2,0.2-0.5,0.2-0.6c0-0.1,0-0.2,0-0.3c0-0.1-0.1-0.2-0.1-0.3
	c-0.2-0.3-0.4-0.5-0.7-0.7v1.3c0,0.1,0,0.2-0.1,0.3c0,0,0,0.1,0,0.1l-0.1,0.1c-0.2,0.3-0.6,0.5-1.1,0.8c-0.2,0.1-0.5,0.3-0.7,0.5
	c-0.1,0.1-0.2,0.2-0.3,0.3c-0.1,0.1-0.2,0.2-0.2,0.3c-0.1,0.1-0.1,0.2-0.1,0.4l0,0l0,0v0l0,0l0,0.1l0,0.2c0.1,0.3,0.2,0.5,0.4,0.7
	c0.1,0.1,0.3,0.2,0.4,0.3L21.2,57L21.2,57z"/>
<path fill="#706D6E" d="M21.1,51.3L21.1,51.3L21.1,51.3C21.1,51.4,21.1,51.3,21.1,51.3L21.1,51.3L21.1,51.3c0-0.3,0.1-0.5,0.2-0.7
	c0.4-0.4,0.9-0.7,1.3-1c0.4-0.3,0.5-0.6,0.5-0.8c0-0.1,0-0.2,0-0.2c0-0.1,0-0.1,0-0.1s0,0,0,0.1c0,0,0,0.1-0.1,0.2
	c-0.1,0.2-0.3,0.4-0.7,0.7c-0.4,0.2-1,0.4-1.6,0.9c-0.3,0.2-0.5,0.5-0.5,0.9l0,0.1l0,0.1c0,0,0,0.1,0,0.1c0,0,0,0.1,0,0.1l0,0.1
	c0,0.1,0.1,0.2,0.1,0.3c0,0.1,0.1,0.2,0.2,0.2c0.1,0.1,0.3,0.2,0.4,0.3L21.1,51.3L21.1,51.3z"/>
<path fill="#706D6E" d="M21.3,56.9L21.3,56.9c0-0.1,0-0.1,0-0.2h0V56.9z"/>
<polygon fill="#C8C7C7" points="22,64.8 21,64.8 22,71.6 23.1,64.8 "/>
<g opacity="0.4">
	<g>
		<defs>
			<rect id="SVGID_3_" x="21.8" y="64.8" width="0.5" height="6.8"/>
		</defs>
		<clipPath id="SVGID_4_">
			<use xlink:href="#SVGID_3_"  overflow="visible"/>
		</clipPath>
		<polygon clip-path="url(#SVGID_4_)" fill="#C8C7C7" points="22,64.8 21.8,64.8 22,71.6 22.3,64.8 		"/>
	</g>
</g>
<path fill="#AEACAC" d="M25.6,35.5l0.8-0.2c0-0.2-0.1-0.4-0.1-0.6c0-0.3,0-0.6,0.1-0.8l-0.8-0.2c-0.3-0.1-0.4-0.4-0.3-0.7
	c0.1-0.3,0.4-0.4,0.7-0.3l0.8,0.3c0.2-0.4,0.5-0.8,0.9-1.1l-0.5-0.7c-0.2-0.2-0.1-0.6,0.1-0.8c0.2-0.2,0.6-0.1,0.8,0.1l0.5,0.7
	c0.4-0.2,0.9-0.4,1.4-0.4v-0.9c0-0.3,0.2-0.5,0.5-0.5s0.5,0.2,0.5,0.5v0.9c0.5,0.1,0.9,0.2,1.3,0.5l0.5-0.7c0.2-0.2,0.5-0.3,0.8-0.1
	c0.2,0.2,0.3,0.5,0.1,0.8l-0.5,0.7c0.3,0.3,0.6,0.7,0.8,1.1l0.9-0.3c0.3-0.1,0.6,0.1,0.7,0.3c0.1,0.3-0.1,0.6-0.3,0.7l-0.9,0.3
	c0,0.2,0.1,0.5,0.1,0.7c0,0.2,0,0.5-0.1,0.7l0.8,0.3c0.3,0.1,0.4,0.4,0.3,0.7c-0.1,0.3-0.4,0.4-0.7,0.3L34,36.3
	c-0.1,0.2-0.2,0.4-0.3,0.5c1.1,4.4,5.9,22.4,6.4,22.8c0.6,0.5,2.7,5.9,3.6,9.3c0.9,3.4-0.1,2.9-0.1,2.9c-0.9-3.7-4.4-9.9-5-10.1
	C38,61.5,36,59,36,59l-6.6-20.5c-0.3-0.1-0.7-0.2-1-0.4l-0.5,0.6c-0.2,0.2-0.5,0.3-0.8,0.1c-0.2-0.2-0.3-0.5-0.1-0.8l0.5-0.6
	c-0.4-0.3-0.6-0.8-0.9-1.2l-0.7,0.2c-0.3,0.1-0.6-0.1-0.7-0.3C25.1,35.9,25.3,35.6,25.6,35.5"/>
<path fill="#AEACAC" d="M43.7,71c0,0-1.6-7.6-5.6-12.1"/>
<path fill="#706D6E" d="M43.7,71c0,0-0.2-0.8-0.6-2c-0.2-0.6-0.5-1.3-0.7-2c-0.1-0.4-0.3-0.7-0.4-1.1c-0.2-0.4-0.3-0.8-0.5-1.2
	c-0.2-0.4-0.4-0.8-0.5-1.1c-0.2-0.4-0.3-0.8-0.5-1.1c-0.2-0.3-0.4-0.7-0.6-1c-0.2-0.3-0.3-0.6-0.5-0.9c-0.7-1-1.2-1.7-1.2-1.7
	s0.5,0.6,1.3,1.6c0.2,0.2,0.4,0.6,0.6,0.9c0.2,0.3,0.4,0.6,0.6,1c0.2,0.3,0.4,0.7,0.6,1.1c0.2,0.4,0.4,0.8,0.6,1.1
	c0.2,0.4,0.3,0.8,0.5,1.2c0.1,0.4,0.3,0.8,0.4,1.1c0.2,0.8,0.5,1.5,0.6,2.1c0.2,0.6,0.3,1.1,0.4,1.5C43.6,70.8,43.7,71,43.7,71"/>
<path fill="#AEACAC" d="M18.4,35.5l-0.8-0.2c0-0.2,0.1-0.4,0.1-0.6c0-0.3,0-0.6-0.1-0.8l0.8-0.2c0.3-0.1,0.4-0.4,0.3-0.7
	c-0.1-0.3-0.4-0.4-0.7-0.3l-0.8,0.3c-0.2-0.4-0.5-0.8-0.9-1.1l0.5-0.7c0.2-0.2,0.1-0.6-0.1-0.8C16.5,30,16.2,30,16,30.3L15.5,31
	c-0.4-0.2-0.9-0.4-1.4-0.4v-0.9c0-0.3-0.2-0.5-0.5-0.5c-0.3,0-0.5,0.2-0.5,0.5v0.9c-0.5,0.1-0.9,0.2-1.3,0.5l-0.5-0.7
	c-0.2-0.2-0.5-0.3-0.8-0.1c-0.2,0.2-0.3,0.5-0.1,0.8l0.5,0.7c-0.3,0.3-0.6,0.7-0.8,1.1l-0.9-0.3c-0.3-0.1-0.6,0.1-0.7,0.3
	c-0.1,0.3,0.1,0.6,0.3,0.7l0.9,0.3c0,0.2-0.1,0.5-0.1,0.7c0,0.2,0,0.5,0.1,0.7l-0.8,0.3c-0.3,0.1-0.4,0.4-0.4,0.7
	c0.1,0.3,0.4,0.4,0.7,0.3l0.8-0.3c0.1,0.2,0.2,0.4,0.3,0.5c-1.1,4.4-5.9,22.4-6.4,22.8c-0.6,0.5-2.7,5.9-3.6,9.3
	c-0.9,3.4,0.1,2.9,0.1,2.9c0.9-3.7,4.4-9.9,5-10.1C6,61.5,8,59,8,59l6.6-20.5c0.3-0.1,0.7-0.2,1-0.4l0.5,0.6
	c0.2,0.2,0.5,0.3,0.8,0.1c0.2-0.2,0.3-0.5,0.1-0.8l-0.5-0.6c0.4-0.3,0.6-0.8,0.9-1.2l0.7,0.2c0.3,0.1,0.6-0.1,0.7-0.3
	C18.9,35.9,18.7,35.6,18.4,35.5"/>
<rect x="20.2" y="41.5" fill="#B2B1B1" width="3.7" height="1.4"/>
<rect x="19.4" y="40.1" fill="#B2B1B1" width="5.3" height="1.4"/>
<g opacity="0.4">
	<g>
		<defs>
			<rect id="SVGID_5_" x="21.6" y="41.5" width="0.9" height="1.4"/>
		</defs>
		<clipPath id="SVGID_6_">
			<use xlink:href="#SVGID_5_"  overflow="visible"/>
		</clipPath>
		<rect x="21.6" y="41.5" clip-path="url(#SVGID_6_)" fill="#B2B1B1" width="0.9" height="1.4"/>
	</g>
</g>
<g opacity="0.4">
	<g>
		<defs>
			<rect id="SVGID_7_" x="21.4" y="40.1" width="1.3" height="1.4"/>
		</defs>
		<clipPath id="SVGID_8_">
			<use xlink:href="#SVGID_7_"  overflow="visible"/>
		</clipPath>
		<rect x="21.4" y="40.1" clip-path="url(#SVGID_8_)" fill="#B2B1B1" width="1.3" height="1.4"/>
	</g>
</g>
<path fill="#C8C7C7" d="M30.5,32.6l-8.5-0.7l-8.5,0.7c0,0-1.9,0.3-1.9,2.2s1.8,2.9,1.8,2.9l2.1,1.3c0,0,0.4,0.5,0.4,1.2v18.1
	c0,0-0.4,1.6-1.2,2.3c-0.7,0.7-1.3,2-1.3,5.8h17c0-3.8-0.6-5.1-1.3-5.8c-0.7-0.7-1.2-2.3-1.2-2.3V40.1c0-0.7,0.4-1.2,0.4-1.2
	l2.1-1.3c0,0,1.8-1,1.8-2.9S30.5,32.6,30.5,32.6 M26.9,60L26.9,60h-9.6h-0.1h-0.9c0,0,0.7-0.3,0.9-1.1V41.5c0-0.7,0.6-1.4,1.4-1.4
	h6.9c0.8,0,1.4,0.6,1.4,1.4v17.4c0.2,0.8,0.9,1.1,0.9,1.1H26.9z"/>
<g opacity="0.6">
	<g>
		<defs>
			<rect id="SVGID_9_" x="13.6" y="60.5" width="17" height="5.8"/>
		</defs>
		<clipPath id="SVGID_10_">
			<use xlink:href="#SVGID_9_"  overflow="visible"/>
		</clipPath>
		<g opacity="0.4" clip-path="url(#SVGID_10_)">
			<g>
				<defs>
					<rect id="SVGID_11_" x="13.6" y="60.5" width="2.6" height="5.8"/>
				</defs>
				<clipPath id="SVGID_12_">
					<use xlink:href="#SVGID_11_"  overflow="visible"/>
				</clipPath>
				<path clip-path="url(#SVGID_12_)" fill="#868484" d="M14.9,60.5c-0.7,0.7-1.3,2-1.3,5.8h1.5c0-3.8,0.5-5.1,1.1-5.8H14.9z"/>
			</g>
		</g>
		<g opacity="0.4" clip-path="url(#SVGID_10_)">
			<g>
				<defs>
					<rect id="SVGID_13_" x="28" y="60.5" width="2.6" height="5.8"/>
				</defs>
				<clipPath id="SVGID_14_">
					<use xlink:href="#SVGID_13_"  overflow="visible"/>
				</clipPath>
				<path clip-path="url(#SVGID_14_)" fill="#EBEBEB" d="M29.3,60.5H28c0.6,0.7,1,2,1.1,5.8h1.5C30.6,62.5,30.1,61.2,29.3,60.5"/>
			</g>
		</g>
		<g opacity="0.4" clip-path="url(#SVGID_10_)">
			<g>
				<defs>
					<rect id="SVGID_15_" x="26.3" y="60.5" width="2.8" height="5.8"/>
				</defs>
				<clipPath id="SVGID_16_">
					<use xlink:href="#SVGID_15_"  overflow="visible"/>
				</clipPath>
				<path clip-path="url(#SVGID_16_)" fill="#D7D7D7" d="M26.3,60.5c0.4,0.7,0.7,2,0.7,5.8h2.1c0-3.8-0.5-5.1-1.1-5.8H26.3z"/>
			</g>
		</g>
		<g opacity="0.4" clip-path="url(#SVGID_10_)">
			<g>
				<defs>
					<rect id="SVGID_17_" x="15.1" y="60.5" width="2.8" height="5.8"/>
				</defs>
				<clipPath id="SVGID_18_">
					<use xlink:href="#SVGID_17_"  overflow="visible"/>
				</clipPath>
				<path clip-path="url(#SVGID_18_)" fill="#989696" d="M16.2,60.5c-0.6,0.7-1,2-1.1,5.8h2.1c0-3.8,0.3-5.1,0.7-5.8H16.2z"/>
			</g>
		</g>
	</g>
</g>
<path fill="#918F90" d="M11.7,34.7l0,0.4c0,0.1,0,0.3,0.1,0.4c0.1,0.2,0.1,0.5,0.3,0.7c0.2,0.4,0.6,0.8,1,1.1
	c0.4,0.3,0.8,0.5,1.3,0.8l1.3,0.8l0,0l0,0c0.3,0.3,0.4,0.7,0.4,1.1c0,0.4,0,0.8,0,1.2l0,2.4l0,4.8l0,9.7v0l0,0
	c-0.2,0.7-0.5,1.4-0.9,2c-0.2,0.3-0.5,0.5-0.7,0.8c-0.2,0.3-0.3,0.6-0.4,1c-0.1,0.3-0.2,0.7-0.2,1.1c0,0.4-0.1,0.7-0.1,1.1
	c-0.1,0.7-0.1,1.5-0.1,2.2v0l0,0l17,0l-0.1,0.1v0c0-0.7,0-1.5-0.1-2.2c0-0.4-0.1-0.7-0.1-1.1c-0.1-0.4-0.1-0.7-0.2-1.1
	c-0.1-0.3-0.2-0.7-0.4-1c-0.2-0.3-0.5-0.5-0.7-0.8c-0.4-0.6-0.7-1.3-0.9-2l0,0v0l0-9.7l0-4.8l0-2.4c0-0.4,0-0.8,0-1.2
	c0-0.4,0.2-0.8,0.4-1.1l0,0l0,0l1.3-0.8c0.4-0.3,0.9-0.5,1.3-0.8c0.4-0.3,0.7-0.7,1-1.1c0.1-0.2,0.2-0.5,0.3-0.7
	c0.1-0.1,0-0.2,0.1-0.4l0-0.4h0l0,0.4c0,0.1,0,0.3-0.1,0.4c-0.1,0.2-0.1,0.5-0.3,0.7c-0.2,0.4-0.6,0.8-1,1.1
	c-0.4,0.3-0.8,0.5-1.3,0.8l-1.3,0.8l0,0c-0.2,0.3-0.4,0.7-0.4,1.1c0,0.4,0,0.8,0,1.2l0,2.4l0,4.8l0,9.7l0,0c0.2,0.7,0.5,1.4,0.9,2
	c0.2,0.3,0.5,0.5,0.7,0.8c0.2,0.3,0.3,0.7,0.4,1c0.1,0.3,0.2,0.7,0.2,1.1c0,0.4,0.1,0.7,0.1,1.1c0.1,0.7,0.1,1.5,0.1,2.2v0l0,0.1
	h-0.1l-17,0h0l0,0v0c0-0.7,0-1.5,0.1-2.2c0-0.4,0.1-0.7,0.1-1.1c0.1-0.4,0.1-0.7,0.2-1.1c0.1-0.4,0.2-0.7,0.4-1
	c0.2-0.3,0.5-0.6,0.7-0.8c0.4-0.6,0.7-1.3,0.9-2l0,0l0-9.7l0-4.8l0-2.4c0-0.4,0-0.8,0-1.2c0-0.4-0.1-0.8-0.4-1.1l0,0l-1.3-0.8
	c-0.4-0.3-0.9-0.5-1.3-0.8c-0.4-0.3-0.7-0.7-1-1.1c-0.1-0.2-0.2-0.5-0.3-0.7c-0.1-0.1,0-0.2-0.1-0.4L11.7,34.7L11.7,34.7z"/>
<path fill="#918F90" d="M26.9,60l-10.5,0l-0.2,0l0.2-0.1c0.2-0.1,0.4-0.3,0.6-0.4c0.2-0.2,0.2-0.4,0.3-0.6l0,0l0-11.5l0-5.8
	c0-0.5,0.2-1,0.6-1.3c0.4-0.3,0.9-0.3,1.4-0.3l2.9,0l2.9,0c0.5,0,1-0.1,1.4,0.3c0.4,0.3,0.6,0.8,0.6,1.3l0,5.8l0,11.5l0,0
	c0.1,0.2,0.2,0.5,0.3,0.7c0.2,0.2,0.3,0.4,0.6,0.5l0,0h0L26.9,60z M26.9,60l0.9,0l0,0c-0.2-0.1-0.4-0.3-0.6-0.5
	c-0.2-0.2-0.3-0.4-0.3-0.7l0,0l0-11.5l0-5.8c0-0.5-0.2-0.9-0.5-1.2c-0.4-0.3-0.9-0.2-1.3-0.3l-2.9,0l-2.9,0c-0.5,0-1,0-1.4,0.2
	c-0.4,0.3-0.6,0.7-0.5,1.2l0,5.8l0,11.5v0l0,0c-0.1,0.2-0.2,0.5-0.3,0.7c-0.2,0.2-0.4,0.4-0.6,0.5l0-0.1L26.9,60z"/>
<path fill="#B2B1B1" d="M31.1,3.1c-1.7-1-5.7-3.1-9.1-3.1c-3.3,0-7.3,2.1-9.1,3.1c-1.7,1-1.3,2.7-1.3,2.7s0.8,2.4,2.4,5.2
	c1.7,2.8,4,3.3,4.7,3.4c0.7,0,0.5,0.9,0.5,0.9v3.5h2.7h2.7v-3.5c0,0-0.1-0.8,0.5-0.9c0.7,0,3-0.6,4.7-3.4c1.7-2.8,2.4-5.2,2.4-5.2
	S32.9,4.1,31.1,3.1 M28.3,6.3c-0.1,1.4-0.4,4.3-1.8,4.9c0,0-0.3,0.1-0.6-0.4h-3.8h-3.8c-0.3,0.5-0.6,0.4-0.6,0.4
	c-1.4-0.6-1.7-3.6-1.8-4.9c-0.1-1.4,0.5-2.1,0.5-2.1c2-2.3,5.7-2.5,5.7-2.5s3.7,0.2,5.7,2.5C27.8,4.2,28.4,4.9,28.3,6.3"/>
<g>
	<g>
		<defs>
			<rect id="SVGID_19_" x="12" y="0.3" width="20.2" height="5.5"/>
		</defs>
		<clipPath id="SVGID_20_">
			<use xlink:href="#SVGID_19_"  overflow="visible"/>
		</clipPath>
		<path clip-path="url(#SVGID_20_)" fill="#706D6E" d="M32.1,5.8c0,0,0-0.1,0-0.3c0-0.2,0-0.5-0.1-0.8c-0.1-0.3-0.3-0.7-0.6-1
			c-0.2-0.2-0.4-0.3-0.6-0.4c-0.2-0.1-0.5-0.3-0.7-0.4c-0.5-0.3-1.1-0.5-1.7-0.8c-0.6-0.3-1.3-0.5-1.9-0.8c-0.7-0.2-1.4-0.4-2.1-0.6
			c-0.4-0.1-0.7-0.1-1.1-0.2l-1.1-0.1l-1.2,0.1c-0.4,0-0.8,0.1-1.1,0.2c-0.7,0.2-1.5,0.4-2.1,0.6c-0.7,0.2-1.3,0.5-1.9,0.8
			c-0.6,0.3-1.2,0.5-1.7,0.8c-0.3,0.1-0.5,0.3-0.7,0.4c-0.2,0.1-0.4,0.3-0.6,0.4c-0.3,0.3-0.5,0.7-0.6,1C12,5,12,5.3,12,5.5
			c0,0.2,0,0.3,0,0.3s0-0.1,0-0.3C12,5.3,12,5,12,4.7c0.1-0.3,0.3-0.7,0.6-1.1c0.2-0.2,0.4-0.3,0.6-0.5c0.2-0.1,0.5-0.3,0.7-0.4
			c0.5-0.3,1.1-0.6,1.7-0.8c0.6-0.3,1.3-0.6,1.9-0.8c0.7-0.3,1.4-0.5,2.2-0.6c0.4-0.1,0.8-0.2,1.1-0.2l1.2-0.1l1.2,0.1
			c0.4,0.1,0.8,0.1,1.1,0.2c0.7,0.2,1.5,0.4,2.2,0.6c0.7,0.2,1.3,0.5,1.9,0.8c0.6,0.3,1.2,0.6,1.7,0.8c0.3,0.1,0.5,0.3,0.7,0.4
			c0.2,0.2,0.4,0.3,0.6,0.5c0.3,0.3,0.5,0.7,0.6,1.1c0.1,0.3,0.1,0.6,0.1,0.8C32.2,5.7,32.1,5.8,32.1,5.8"/>
	</g>
</g>
<path fill="#706D6E" d="M28.6,6.4c-0.1,1.1-0.3,2.2-0.7,3.2c-0.2,0.5-0.4,1-0.8,1.4c-0.2,0.2-0.4,0.4-0.7,0.5
	c-0.3,0.1-0.6-0.2-0.7-0.5l0.1,0l-7.3,0l0.1,0c-0.1,0.1-0.2,0.3-0.3,0.4c-0.1,0-0.2,0.1-0.3,0.1c-0.1,0-0.2-0.1-0.3-0.1
	c-0.3-0.1-0.5-0.4-0.7-0.7c-0.4-0.5-0.6-1.2-0.8-1.8c-0.2-0.6-0.3-1.3-0.4-1.9c0-0.3-0.1-0.6-0.1-1c0-0.3,0-0.7,0.1-1
	c0.1-0.3,0.2-0.6,0.3-0.9c0.2-0.3,0.4-0.5,0.7-0.7c0.5-0.4,1.1-0.8,1.6-1.1c1.2-0.6,2.5-0.9,3.8-1l0,0l0,0c1.5,0.1,3,0.6,4.3,1.3
	c0.7,0.4,1.3,0.8,1.7,1.4C28.5,4.8,28.6,5.6,28.6,6.4 M28.5,6.4c0-0.4,0-0.8-0.1-1.1c-0.1-0.4-0.2-0.7-0.4-1c-0.5-0.6-1.1-1-1.7-1.4
	c-1.3-0.7-2.8-1.1-4.3-1.3h0c-1.3,0.1-2.6,0.4-3.7,1c-0.6,0.3-1.1,0.6-1.6,1C16.5,3.8,16.2,4,16,4.3c-0.2,0.3-0.3,0.6-0.3,0.9
	c-0.1,0.3-0.1,0.6-0.1,1c0,0.3,0.1,0.6,0.1,1C15.8,7.7,16,8.4,16.2,9c0.2,0.6,0.4,1.2,0.8,1.7c0.2,0.3,0.4,0.5,0.7,0.6
	c0.3,0.2,0.5-0.1,0.7-0.3l0,0h0l7.3,0h0l0,0c0.1,0.2,0.3,0.5,0.6,0.4c0.1-0.1,0.2-0.1,0.3-0.2c0.1-0.1,0.2-0.2,0.3-0.3
	c0.4-0.4,0.6-0.9,0.8-1.4C28.2,8.5,28.4,7.4,28.5,6.4"/>
<rect x="20.2" y="18.8" fill="#B2B1B1" width="3.7" height="1.4"/>
<rect x="19.4" y="20.1" fill="#B2B1B1" width="5.3" height="1.4"/>
<rect x="20.2" y="21.5" fill="#B2B1B1" width="3.7" height="1.4"/>
<rect x="19.4" y="22.9" fill="#B2B1B1" width="5.3" height="1.4"/>
<rect x="20.2" y="24.2" fill="#B2B1B1" width="3.7" height="1.4"/>
<rect x="19.4" y="25.6" fill="#B2B1B1" width="5.3" height="1.4"/>
<g opacity="0.4">
	<g>
		<defs>
			<rect id="SVGID_21_" x="21.6" y="18.8" width="0.9" height="1.4"/>
		</defs>
		<clipPath id="SVGID_22_">
			<use xlink:href="#SVGID_21_"  overflow="visible"/>
		</clipPath>
		<rect x="21.6" y="18.8" clip-path="url(#SVGID_22_)" fill="#B2B1B1" width="0.9" height="1.4"/>
	</g>
</g>
<g opacity="0.4">
	<g>
		<defs>
			<rect id="SVGID_23_" x="21.4" y="20.1" width="1.3" height="1.4"/>
		</defs>
		<clipPath id="SVGID_24_">
			<use xlink:href="#SVGID_23_"  overflow="visible"/>
		</clipPath>
		<rect x="21.4" y="20.1" clip-path="url(#SVGID_24_)" fill="#B2B1B1" width="1.3" height="1.4"/>
	</g>
</g>
<g opacity="0.4">
	<g>
		<defs>
			<rect id="SVGID_25_" x="21.6" y="21.5" width="0.9" height="1.4"/>
		</defs>
		<clipPath id="SVGID_26_">
			<use xlink:href="#SVGID_25_"  overflow="visible"/>
		</clipPath>
		<rect x="21.6" y="21.5" clip-path="url(#SVGID_26_)" fill="#B2B1B1" width="0.9" height="1.4"/>
	</g>
</g>
<g opacity="0.4">
	<g>
		<defs>
			<rect id="SVGID_27_" x="21.4" y="22.9" width="1.3" height="1.4"/>
		</defs>
		<clipPath id="SVGID_28_">
			<use xlink:href="#SVGID_27_"  overflow="visible"/>
		</clipPath>
		<rect x="21.4" y="22.9" clip-path="url(#SVGID_28_)" fill="#B2B1B1" width="1.3" height="1.4"/>
	</g>
</g>
<g opacity="0.4">
	<g>
		<defs>
			<rect id="SVGID_29_" x="21.6" y="24.2" width="0.9" height="1.4"/>
		</defs>
		<clipPath id="SVGID_30_">
			<use xlink:href="#SVGID_29_"  overflow="visible"/>
		</clipPath>
		<rect x="21.6" y="24.2" clip-path="url(#SVGID_30_)" fill="#B2B1B1" width="0.9" height="1.4"/>
	</g>
</g>
<g opacity="0.4">
	<g>
		<defs>
			<rect id="SVGID_31_" x="21.4" y="25.6" width="1.3" height="1.4"/>
		</defs>
		<clipPath id="SVGID_32_">
			<use xlink:href="#SVGID_31_"  overflow="visible"/>
		</clipPath>
		<rect x="21.4" y="25.6" clip-path="url(#SVGID_32_)" fill="#B2B1B1" width="1.3" height="1.4"/>
	</g>
</g>
<path fill="#B2B1B1" d="M24.7,14.4c0,1.6-1.2,2.9-2.7,2.9c-1.5,0-2.7-1.3-2.7-2.9H24.7z"/>
<path fill="#DCDBDB" d="M22.1,17.5c-1.3,0-2.3-1.1-2.5-2.6h0c0,1.6,1.1,2.9,2.5,2.9c1.4,0,2.5-1.3,2.5-2.9h0
	C24.4,16.3,23.4,17.5,22.1,17.5"/>
<path fill="#918F90" d="M23.5,15.8c0,0.6-0.6,1.2-1.4,1.2c-0.8,0-1.4-0.5-1.4-1.2H23.5z"/>
<g>
	<g>
		<defs>
			<rect id="SVGID_33_" x="14.8" y="10.6" width="14.5" height="4.3"/>
		</defs>
		<clipPath id="SVGID_34_">
			<use xlink:href="#SVGID_33_"  overflow="visible"/>
		</clipPath>
		<path clip-path="url(#SVGID_34_)" fill="#706D6E" d="M24.5,14.9c0,0,0-0.1,0-0.3c0-0.1,0-0.2,0.1-0.3c0.1-0.1,0.2-0.3,0.4-0.3
			c0.2,0,0.3,0,0.5-0.1c0.2,0,0.4-0.1,0.5-0.1c0.4-0.1,0.8-0.3,1.1-0.6c0.3-0.2,0.6-0.6,0.9-0.8c0.3-0.3,0.5-0.6,0.7-0.8
			c0.4-0.5,0.6-0.9,0.6-0.9l0,0c0,0-0.2,0.4-0.5,0.9c-0.2,0.3-0.4,0.6-0.7,0.9c-0.2,0.1-0.3,0.3-0.5,0.4c-0.2,0.1-0.3,0.2-0.5,0.4
			c-0.2,0.1-0.4,0.2-0.6,0.3c-0.2,0.1-0.4,0.2-0.5,0.3c-0.2,0.1-0.4,0.2-0.5,0.2c-0.2,0.1-0.4,0.1-0.5,0.1c-0.3,0-0.4,0.3-0.4,0.5
			C24.5,14.8,24.6,14.9,24.5,14.9L24.5,14.9z"/>
		<path clip-path="url(#SVGID_34_)" fill="#706D6E" d="M14.8,10.6c0,0,0.3,0.3,0.6,0.9c0.1,0.1,0.2,0.2,0.3,0.4
			c0.1,0.1,0.2,0.3,0.3,0.5c0.1,0.1,0.3,0.3,0.4,0.4c0.2,0.1,0.3,0.2,0.5,0.4c0.2,0.1,0.4,0.2,0.5,0.3c0.2,0.1,0.4,0.2,0.6,0.2
			c0.2,0.1,0.4,0.1,0.5,0.2c0.2,0.1,0.3,0.1,0.5,0.1c0.1,0,0.3,0.2,0.4,0.3c0.1,0.1,0.1,0.2,0.1,0.3c0,0.2,0,0.3,0,0.3l0,0
			c0,0,0-0.1,0-0.3c0-0.1,0-0.2-0.1-0.3c-0.1-0.1-0.1-0.2-0.3-0.2c-0.1,0-0.3,0-0.5-0.1c-0.2,0-0.4-0.1-0.6-0.2
			c-0.4-0.2-0.8-0.4-1.1-0.6c-0.4-0.2-0.6-0.6-1-0.8c-0.3-0.3-0.5-0.6-0.7-0.8C15,11,14.8,10.6,14.8,10.6L14.8,10.6z"/>
	</g>
</g>
<g opacity="0.5">
	<g>
		<defs>
			<rect id="SVGID_35_" x="20.2" y="18.8" width="3.7" height="0.3"/>
		</defs>
		<clipPath id="SVGID_36_">
			<use xlink:href="#SVGID_35_"  overflow="visible"/>
		</clipPath>
		<path clip-path="url(#SVGID_36_)" fill="#706D6E" d="M20.2,18.8c0,0,0.9,0,1.9,0c0.9,0,1.9,0,1.9,0v0c0,0-0.2,0.1-0.6,0.1
			c-0.2,0-0.4,0.1-0.6,0.1c-0.2,0-0.5,0-0.7,0c-0.2,0-0.5,0-0.7,0c-0.2,0-0.4-0.1-0.6-0.1C20.4,18.9,20.2,18.8,20.2,18.8L20.2,18.8z
			"/>
	</g>
</g>
<g opacity="0.5">
	<g>
		<defs>
			<rect id="SVGID_37_" x="20.2" y="21.5" width="3.7" height="0.3"/>
		</defs>
		<clipPath id="SVGID_38_">
			<use xlink:href="#SVGID_37_"  overflow="visible"/>
		</clipPath>
		<path clip-path="url(#SVGID_38_)" fill="#706D6E" d="M20.2,21.5c0,0,0.9,0,1.9,0c0.9,0,1.9,0,1.9,0v0c0,0-0.2,0.1-0.6,0.1
			c-0.2,0-0.4,0.1-0.6,0.1c-0.2,0-0.5,0-0.7,0c-0.2,0-0.5,0-0.7,0c-0.2,0-0.4-0.1-0.6-0.1C20.4,21.6,20.2,21.5,20.2,21.5L20.2,21.5z
			"/>
	</g>
</g>
<g opacity="0.5">
	<g>
		<defs>
			<rect id="SVGID_39_" x="20.2" y="24.2" width="3.7" height="0.3"/>
		</defs>
		<clipPath id="SVGID_40_">
			<use xlink:href="#SVGID_39_"  overflow="visible"/>
		</clipPath>
		<path clip-path="url(#SVGID_40_)" fill="#706D6E" d="M20.2,24.2c0,0,0.9,0,1.9,0c0.9,0,1.9,0,1.9,0v0c0,0-0.2,0.1-0.6,0.1
			c-0.2,0-0.4,0.1-0.6,0.1s-0.5,0-0.7,0c-0.2,0-0.5,0-0.7,0c-0.2,0-0.4-0.1-0.6-0.1C20.4,24.3,20.2,24.2,20.2,24.2L20.2,24.2z"/>
	</g>
</g>
<g opacity="0.5">
	<g>
		<defs>
			<rect id="SVGID_41_" x="19.4" y="40.2" width="5.3" height="0.3"/>
		</defs>
		<clipPath id="SVGID_42_">
			<use xlink:href="#SVGID_41_"  overflow="visible"/>
		</clipPath>
		<path clip-path="url(#SVGID_42_)" fill="#706D6E" d="M19.4,40.2c0,0,1.3,0,2.7,0c1.3,0,2.7,0,2.7,0v0c0,0-0.3,0.1-0.8,0.2
			c-0.3,0-0.5,0.1-0.9,0.1c-0.3,0-0.6,0-1,0c-0.3,0-0.7,0-1,0c-0.3,0-0.6-0.1-0.9-0.1C19.7,40.3,19.4,40.2,19.4,40.2L19.4,40.2z"/>
	</g>
</g>
<rect x="18.8" y="26.9" fill="#B2B1B1" width="6.6" height="13.2"/>
<g opacity="0.4">
	<g>
		<defs>
			<rect id="SVGID_43_" x="24.5" y="26.9" width="0.9" height="13.2"/>
		</defs>
		<clipPath id="SVGID_44_">
			<use xlink:href="#SVGID_43_"  overflow="visible"/>
		</clipPath>
		<rect x="24.5" y="26.9" clip-path="url(#SVGID_44_)" fill="#EBEBEB" width="0.9" height="13.2"/>
	</g>
</g>
<g opacity="0.4">
	<g>
		<defs>
			<rect id="SVGID_45_" x="18.8" y="26.9" width="0.9" height="13.2"/>
		</defs>
		<clipPath id="SVGID_46_">
			<use xlink:href="#SVGID_45_"  overflow="visible"/>
		</clipPath>
		<rect x="18.8" y="26.9" clip-path="url(#SVGID_46_)" fill="#868484" width="0.9" height="13.2"/>
	</g>
</g>
<g opacity="0.4">
	<g>
		<defs>
			<rect id="SVGID_47_" x="19.7" y="26.9" width="1.1" height="13.2"/>
		</defs>
		<clipPath id="SVGID_48_">
			<use xlink:href="#SVGID_47_"  overflow="visible"/>
		</clipPath>
		<rect x="19.7" y="26.9" clip-path="url(#SVGID_48_)" fill="#989696" width="1.1" height="13.2"/>
	</g>
</g>
<g opacity="0.4">
	<g>
		<defs>
			<rect id="SVGID_49_" x="23.4" y="26.9" width="1.1" height="13.2"/>
		</defs>
		<clipPath id="SVGID_50_">
			<use xlink:href="#SVGID_49_"  overflow="visible"/>
		</clipPath>
		<rect x="23.4" y="26.9" clip-path="url(#SVGID_50_)" fill="#D7D7D7" width="1.1" height="13.2"/>
	</g>
</g>
<path fill="#D7D7D7" d="M13.8,35.8c-0.6,0-1.1-0.5-1.1-1.1s0.5-1.1,1.1-1.1c0.6,0,1.1,0.5,1.1,1.1S14.4,35.8,13.8,35.8"/>
<path fill="#918F90" d="M13.8,33.7c0.6,0,1,0.5,1,1c0,0.6-0.5,1-1,1c-0.6,0-1-0.5-1-1C12.8,34.2,13.2,33.7,13.8,33.7 M13.8,33.6
	c-0.7,0-1.2,0.5-1.2,1.2s0.5,1.2,1.2,1.2s1.2-0.5,1.2-1.2S14.4,33.6,13.8,33.6"/>
<path fill="#A7A5A6" d="M13.8,35.5c-0.5,0-0.9-0.4-1-0.9c0,0,0,0.1,0,0.1c0,0.6,0.4,1,1,1c0.6,0,1-0.5,1-1c0,0,0-0.1,0-0.1
	C14.7,35.1,14.3,35.5,13.8,35.5"/>
<path fill="#EDEDED" d="M14.3,34.3c0,0.2-0.2,0.3-0.5,0.3s-0.5-0.2-0.5-0.3s0.2-0.3,0.5-0.3S14.3,34.1,14.3,34.3"/>
<path fill="#D7D7D7" d="M30.4,35.8c-0.6,0-1.1-0.5-1.1-1.1s0.5-1.1,1.1-1.1c0.6,0,1.1,0.5,1.1,1.1S31,35.8,30.4,35.8"/>
<path fill="#918F90" d="M30.4,33.7c0.6,0,1,0.5,1,1c0,0.6-0.5,1-1,1c-0.6,0-1-0.5-1-1C29.4,34.2,29.8,33.7,30.4,33.7 M30.4,33.6
	c-0.7,0-1.2,0.5-1.2,1.2s0.5,1.2,1.2,1.2c0.7,0,1.2-0.5,1.2-1.2S31,33.6,30.4,33.6"/>
<path fill="#A7A5A6" d="M30.4,35.5c-0.5,0-0.9-0.4-1-0.9c0,0,0,0.1,0,0.1c0,0.6,0.5,1,1,1c0.6,0,1-0.5,1-1c0,0,0-0.1,0-0.1
	C31.3,35.1,30.9,35.5,30.4,35.5"/>
<path fill="#EDEDED" d="M30.9,34.3c0,0.2-0.2,0.3-0.5,0.3c-0.3,0-0.5-0.2-0.5-0.3s0.2-0.3,0.5-0.3C30.7,34,30.9,34.1,30.9,34.3"/>
<g>
	<g>
		<defs>
			<rect id="SVGID_51_" x="16.2" y="60.1" width="11.7" height="0.3"/>
		</defs>
		<clipPath id="SVGID_52_">
			<use xlink:href="#SVGID_51_"  overflow="visible"/>
		</clipPath>
		<path clip-path="url(#SVGID_52_)" fill="#918F90" d="M16.2,60.3c0,0,0.7,0,1.8-0.1c1.1,0,2.6-0.1,4-0.1c1.5,0,2.9,0,4,0.1
			c1.1,0,1.8,0.1,1.8,0.1s-0.7,0-1.8,0.1c-1.1,0-2.6,0-4,0.1c-1.5,0-2.9,0-4-0.1C16.9,60.3,16.2,60.3,16.2,60.3"/>
	</g>
</g>
<path fill="#AEACAC" d="M0.3,71c0,0,1.6-7.6,5.6-12.1"/>
<path fill="#706D6E" d="M0.3,71c0,0,0-0.2,0.1-0.6c0.1-0.4,0.2-0.9,0.4-1.5c0.2-0.6,0.4-1.3,0.6-2.1c0.1-0.4,0.3-0.8,0.4-1.1
	C2,65.4,2.2,65,2.3,64.6c0.2-0.4,0.4-0.8,0.6-1.1c0.2-0.4,0.3-0.8,0.6-1.1c0.2-0.3,0.4-0.7,0.6-1c0.2-0.3,0.4-0.6,0.6-0.9
	c0.8-1,1.3-1.6,1.3-1.6s-0.5,0.7-1.2,1.7c-0.2,0.3-0.3,0.6-0.5,0.9c-0.2,0.3-0.4,0.6-0.6,1c-0.2,0.3-0.4,0.7-0.5,1.1
	c-0.2,0.4-0.4,0.8-0.5,1.1c-0.2,0.4-0.3,0.8-0.5,1.2c-0.1,0.4-0.3,0.8-0.4,1.1c-0.3,0.7-0.5,1.4-0.7,2C0.5,70.2,0.3,71,0.3,71"/>
<path fill="#706D6E" d="M21.3,68.2L21.3,68.2C21.3,68.2,21.3,68.2,21.3,68.2"/>
<path fill="#706D6E" d="M22.8,59.8C22.8,59.8,22.8,59.8,22.8,59.8L22.8,59.8z"/>
</svg>
