<?xml version="1.0" encoding="utf-8"?>
<!-- Generator: Adobe Illustrator 15.0.2, SVG Export Plug-In . SVG Version: 6.00 Build 0)  -->
<!DOCTYPE svg PUBLIC "-//W3C//DTD SVG 1.1//EN" "http://www.w3.org/Graphics/SVG/1.1/DTD/svg11.dtd">
<svg version="1.1" id="Layer_1" xmlns="http://www.w3.org/2000/svg" xmlns:xlink="http://www.w3.org/1999/xlink" x="0px" y="0px"
	 width="72.9px" height="46.9px" viewBox="0 0 72.9 46.9" enable-background="new 0 0 72.9 46.9" xml:space="preserve">
<path fill="#D3D2D2" d="M27.2,25.3c0,0.3-0.3,0.6-0.6,0.6h-3c-0.3,0-0.6-0.3-0.6-0.6v-3.6c0-0.3,0.3-0.6,0.6-0.6h3
	c0.3,0,0.6,0.3,0.6,0.6V25.3z"/>
<path fill="#B2B1B1" d="M27.2,25.3c0,0.3-0.3,0.6-0.6,0.6h-3c-0.3,0-0.6-0.3-0.6-0.6v-3.6c0-0.3,0.3-0.6,0.6-0.6h3
	c0.3,0,0.6,0.3,0.6,0.6V25.3z"/>
<path fill="#BEBDBD" d="M27.2,25.1c0,0.3-0.3,0.6-0.6,0.6h-3c-0.3,0-0.6-0.3-0.6-0.6v-3.4c0-0.3,0.3-0.6,0.6-0.6h3
	c0.3,0,0.6,0.3,0.6,0.6V25.1z"/>
<path fill="#CAC9C9" d="M27.2,25c0,0.3-0.3,0.5-0.6,0.5h-3c-0.3,0-0.6-0.2-0.6-0.5v-3.1c0-0.3,0.3-0.5,0.6-0.5h3
	c0.3,0,0.6,0.2,0.6,0.5V25z"/>
<path fill="#D6D5D6" d="M27.2,24.9c0,0.3-0.3,0.5-0.6,0.5h-3c-0.3,0-0.6-0.2-0.6-0.5V22c0-0.3,0.3-0.5,0.6-0.5h3
	c0.3,0,0.6,0.2,0.6,0.5V24.9z"/>
<path fill="#E2E2E2" d="M27.2,24.8c0,0.2-0.3,0.4-0.6,0.4h-3c-0.3,0-0.6-0.2-0.6-0.4v-2.7c0-0.2,0.3-0.4,0.6-0.4h3
	c0.3,0,0.6,0.2,0.6,0.4V24.8z"/>
<path fill="#444142" d="M23.2,20.8c-1.1,0.2-5.8,0.4-11.5,0.4S1.4,21.1,0.3,20.8C0.1,20.9,0,21.1,0,21.3v4.3c0,0.2,0.1,0.4,0.3,0.5
	c1.1-0.2,5.8-0.4,11.5-0.4s10.3,0.2,11.5,0.4c0.2-0.1,0.3-0.3,0.3-0.5v-4.3C23.5,21.1,23.4,20.9,23.2,20.8 M5.1,24.7
	c-1.5,0-2.7-0.6-2.7-1.3c0-0.7,1.2-1.3,2.7-1.3c1.5,0,2.7,0.6,2.7,1.3C7.8,24.2,6.6,24.7,5.1,24.7"/>
<path fill="#C8C7C7" d="M32.9,40.1c4.2,4.2,10,6.8,16.5,6.8c6.4,0,12.3-2.6,16.5-6.8c4.2-4.2,6.8-10,6.8-16.5
	c0-6.4-2.6-12.3-6.8-16.5L49.3,23.6L32.9,40.1z"/>
<path fill="#BAB9B9" d="M65.8,7.1c-1.1-1.1-8.7,4.5-10.3,4.5c-1.6,0-9.2,6.8-10.3,7.9c-1.1,1.1-7.9,8.7-7.9,10.3
	c0,1.6-5.5,9.2-4.5,10.3c3.2,3.2,9.6,3.1,14.4,3.1s11.2-4,14.4-7.2c3.2-3.2,7.2-9.6,7.2-14.4S69,10.3,65.8,7.1"/>
<path fill="#ACABAB" d="M65.8,7.1C63.7,5,56.7,7.8,53.5,7.8s-10.2,5.4-12.3,7.5s-7.5,9.1-7.5,12.4S30.8,38,32.9,40.1
	c2.1,2.1,9.1-0.7,12.3-0.7s10.2-5.4,12.3-7.5c2.1-2.1,7.5-9.1,7.5-12.4C65.1,16.3,67.9,9.2,65.8,7.1"/>
<path fill="#9F9D9D" d="M65.8,7.1C62.7,4,56.2,4.1,51.4,4.1s-11.2,4-14.4,7.2c-3.2,3.2-7.2,9.6-7.2,14.4c0,4.8-0.1,11.2,3.1,14.4
	c1.1,1.1,8.7-4.5,10.3-4.5s9.2-6.8,10.3-7.9c1.1-1.1,7.9-8.7,7.9-10.3C61.3,15.8,66.9,8.2,65.8,7.1"/>
<path fill="#918F90" d="M49.3,0.3c-6.4,0-12.3,2.6-16.5,6.8c-4.2,4.2-6.8,10-6.8,16.5c0,6.4,2.6,12.3,6.8,16.5l16.5-16.5L65.8,7.1
	C61.6,2.9,55.8,0.3,49.3,0.3"/>
<path fill="#A7A5A6" d="M68,23.4c0,10.2-8.3,18.5-18.5,18.5S31,33.6,31,23.4C31,13.2,39.3,5,49.5,5S68,13.2,68,23.4"/>
<circle fill="none" stroke="#A7A5A6" stroke-width="0.621" stroke-miterlimit="10" cx="49.5" cy="23.4" r="23.1"/>
<g>
	<g>
		<defs>
			<rect id="SVGID_1_" x="26.2" y="0.2" width="46.6" height="46.6"/>
		</defs>
		<clipPath id="SVGID_2_">
			<use xlink:href="#SVGID_1_"  overflow="visible"/>
		</clipPath>
		<g clip-path="url(#SVGID_2_)">
			<g>
				<defs>
					<rect id="SVGID_3_" x="26.2" y="0.2" width="46.6" height="46.6"/>
				</defs>
				<clipPath id="SVGID_4_">
					<use xlink:href="#SVGID_3_"  overflow="visible"/>
				</clipPath>
				<path clip-path="url(#SVGID_4_)" fill="#4F4C4D" d="M66,7c-4.2-4.2-10-6.8-16.5-6.8c-12.9,0-23.3,10.4-23.3,23.3
					c0,6.4,2.6,12.3,6.8,16.5c4.2,4.2,10,6.8,16.5,6.8c12.9,0,23.3-10.4,23.3-23.3C72.8,17,70.2,11.2,66,7"/>
			</g>
		</g>
		<g clip-path="url(#SVGID_2_)">
			<g>
				<defs>
					<rect id="SVGID_5_" x="26.6" y="0.5" width="45.8" height="45.8"/>
				</defs>
				<clipPath id="SVGID_6_">
					<use xlink:href="#SVGID_5_"  overflow="visible"/>
				</clipPath>
				<path clip-path="url(#SVGID_6_)" fill="#7B7979" d="M65.7,7.2c-4.1-4.1-9.9-6.7-16.2-6.7c-12.7,0-22.9,10.3-22.9,22.9
					c0,6.3,2.6,12.1,6.7,16.2c4.1,4.1,9.9,6.7,16.2,6.7c12.7,0,22.9-10.3,22.9-22.9C72.4,17.1,69.8,11.4,65.7,7.2"/>
			</g>
		</g>
		<g clip-path="url(#SVGID_2_)">
			<g>
				<defs>
					<rect id="SVGID_7_" x="27" y="0.9" width="45.1" height="45.1"/>
				</defs>
				<clipPath id="SVGID_8_">
					<use xlink:href="#SVGID_7_"  overflow="visible"/>
				</clipPath>
				<path clip-path="url(#SVGID_8_)" fill="#A7A5A6" d="M65.4,7.5c-4.1-4.1-9.7-6.6-15.9-6.6C37.1,0.9,27,11,27,23.4
					c0,6.2,2.5,11.9,6.6,15.9c4.1,4.1,9.7,6.6,15.9,6.6C61.9,46,72,35.9,72,23.4C72,17.2,69.5,11.6,65.4,7.5"/>
			</g>
		</g>
		<g clip-path="url(#SVGID_2_)">
			<g>
				<defs>
					<rect id="SVGID_9_" x="27.3" y="1.3" width="44.3" height="44.3"/>
				</defs>
				<clipPath id="SVGID_10_">
					<use xlink:href="#SVGID_9_"  overflow="visible"/>
				</clipPath>
				<path clip-path="url(#SVGID_10_)" fill="#D3D2D2" d="M65.2,7.8c-4-4-9.5-6.5-15.7-6.5c-12.2,0-22.2,9.9-22.2,22.2
					c0,6.1,2.5,11.7,6.5,15.7c4,4,9.6,6.5,15.7,6.5c12.2,0,22.2-9.9,22.2-22.2C71.7,17.3,69.2,11.8,65.2,7.8"/>
			</g>
		</g>
		<g clip-path="url(#SVGID_2_)">
			<g>
				<defs>
					<rect id="SVGID_11_" x="27.7" y="1.7" width="43.6" height="43.6"/>
				</defs>
				<clipPath id="SVGID_12_">
					<use xlink:href="#SVGID_11_"  overflow="visible"/>
				</clipPath>
				<path clip-path="url(#SVGID_12_)" fill="#FFFFFF" d="M64.9,8C61,4.1,55.5,1.7,49.5,1.7c-12,0-21.8,9.8-21.8,21.8
					c0,6,2.4,11.5,6.4,15.4c3.9,3.9,9.4,6.4,15.4,6.4c12,0,21.8-9.8,21.8-21.8C71.3,17.4,68.8,12,64.9,8"/>
			</g>
		</g>
	</g>
</g>
<path fill="#444142" d="M28.7,22.2c0,0.3-0.1,0.6-0.3,0.6s-0.3-0.3-0.3-0.6c0-0.3,0.1-0.6,0.3-0.6S28.7,21.9,28.7,22.2"/>
<path fill="#444142" d="M28.7,24.7c0,0.3-0.1,0.6-0.3,0.6s-0.3-0.3-0.3-0.6c0-0.3,0.1-0.6,0.3-0.6S28.7,24.3,28.7,24.7"/>
<path fill="#444142" d="M29.7,23.4c0,0.3-0.1,0.6-0.3,0.6s-0.3-0.3-0.3-0.6s0.1-0.6,0.3-0.6S29.7,23.1,29.7,23.4"/>
<path fill="#2E2A2B" d="M20.4,25.8c1.4,0.1,2.3,0.2,2.8,0.3c0.2-0.1,0.3-0.3,0.3-0.5v-2.1C23.5,24.7,22.2,25.6,20.4,25.8"/>
<path fill="#2E2A2B" d="M23.2,20.8c-0.4,0.1-1.4,0.2-2.8,0.3c1.7,0.2,3,1.2,3,2.4v-2.1C23.5,21.1,23.4,20.9,23.2,20.8"/>
<g>
	<g>
		<defs>
			<rect id="SVGID_13_" x="2.2" y="22.1" width="2.8" height="2.7"/>
		</defs>
		<clipPath id="SVGID_14_">
			<use xlink:href="#SVGID_13_"  overflow="visible"/>
		</clipPath>
		<path clip-path="url(#SVGID_14_)" fill="#2E2A2B" d="M2.3,23.4c0-0.6,1.2-1.2,2.7-1.2v-0.2c-1.6,0-2.8,0.6-2.8,1.4
			c0,0.8,1.2,1.4,2.8,1.4v-0.2C3.6,24.6,2.3,24.1,2.3,23.4"/>
	</g>
</g>
<g>
	<g>
		<defs>
			<rect id="SVGID_15_" x="5" y="22.1" width="2.8" height="2.7"/>
		</defs>
		<clipPath id="SVGID_16_">
			<use xlink:href="#SVGID_15_"  overflow="visible"/>
		</clipPath>
		<path clip-path="url(#SVGID_16_)" fill="#2E2A2B" d="M7.8,23.4c0-0.8-1.2-1.4-2.8-1.4v0.2c1.4,0,2.7,0.5,2.7,1.2S6.5,24.6,5,24.6
			v0.2C6.6,24.8,7.8,24.2,7.8,23.4"/>
	</g>
</g>
<path fill="#E1856C" d="M50.7,8.3c1.6,1,3,2,4.5,3.2c1.6,1.3,2.9,2.8,4.6,3.9c1.4,0.9,2.6,1.5,4.1,2.1c1.3,0.6,2.2,1,1.8,2.4
	c-0.4,1.2-1.2,2-2.1,2.9c-1,1-2.3,0.4-3.5-0.2c-3.1-1.8-5-4.8-7.9-6.8c-1.1-0.8-2.2-1.6-3.3-2.3c-0.9-0.6-2-0.8-1.7-2
	c0.2-0.9,0.7-1.7,1.2-2.5c0.6-0.9,0.8-1.1,1.8-1L50.7,8.3z"/>
<path fill="#ECC57C" d="M47.5,11.5c0.4-0.1,0.9,0,1.2,0.2c0.4,0.2,0.7,0.4,1,0.7c0.3,0.3,0.6,0.5,1,0.7c0.3,0.2,0.7,0.5,1,0.7
	c0.6,0.5,1.2,1.1,1.8,1.7c0.3,0.3,0.5,0.6,0.9,0.8c0.3,0.3,0.7,0.5,1,0.7c0.7,0.5,1.3,1,1.9,1.5c0.6,0.6,1.1,1.1,1.8,1.6
	c0.7,0.5,1.3,0.9,2,1.4c0.7,0.5,1.5,0.6,2.2,1.1l0,0c-0.4-0.2-0.8-0.3-1.2-0.4c-0.4-0.1-0.8-0.3-1.2-0.5c-0.7-0.4-1.4-0.8-2.1-1.3
	c-0.3-0.2-0.7-0.5-1-0.8c-0.3-0.3-0.6-0.6-0.9-0.9c-0.6-0.6-1.2-1.1-1.8-1.6l-1-0.8c-0.3-0.3-0.6-0.6-0.9-0.9
	c-0.6-0.6-1.3-1-1.9-1.5c-0.6-0.5-1.3-0.9-2-1.4c-0.3-0.3-0.6-0.5-1-0.7C48.3,11.7,47.9,11.5,47.5,11.5L47.5,11.5z"/>
<path fill="#ECC57C" d="M64.6,21.6c-0.9-0.1-1.7-0.5-2.4-1c-0.7-0.5-1.4-0.9-2.1-1.4c-0.3-0.3-0.7-0.5-1-0.9c-0.3-0.3-0.6-0.7-0.8-1
	c-0.5-0.7-1.2-1.2-1.9-1.8l-1.9-1.7c-0.6-0.5-1.3-1-2-1.5c-1.4-1-2.8-2-4.1-3l0,0c0.4,0.1,0.8,0.4,1.1,0.6l1.1,0.7
	c0.7,0.5,1.4,0.9,2.1,1.4c0.7,0.5,1.4,1,2,1.6c0.6,0.6,1.2,1.2,1.8,1.8c0.6,0.6,1.2,1.2,1.8,1.8c0.6,0.7,1.2,1.2,1.9,1.7
	c0.7,0.5,1.4,1,2.1,1.5C63,20.9,63.7,21.3,64.6,21.6L64.6,21.6z"/>
<path fill="#ECC57C" d="M49.1,8.7c1.4,0.8,2.7,1.7,4,2.6c1.3,1,2.5,2,3.9,2.8c0.7,0.4,1.3,0.9,1.9,1.4l1.9,1.5
	c0.6,0.5,1.3,0.9,2,1.2c0.7,0.3,1.5,0.5,2.2,1l0,0c-0.7-0.4-1.5-0.5-2.3-0.8c-0.8-0.2-1.5-0.7-2.1-1.2c-0.7-0.5-1.3-1-1.9-1.5
	c-0.6-0.5-1.2-1.1-1.8-1.5c-0.6-0.5-1.2-1-1.9-1.4c-0.7-0.5-1.4-0.9-2-1.3C51.6,10.7,50.3,9.7,49.1,8.7L49.1,8.7z"/>
<path fill="#F8F8F8" d="M38.8,28.3c-2.4,1.2-4.4-1.1-5.5-2.9c-1.5-2.4,0-3.8,1.5-5.6c1.6-1.9,0.3-4.9,2.5-6.9
	c2.5-2.2,4.5,0.1,6.6,1.4c2.3,1.5,5.5,2.2,7.1,4.5c2,2.8,0.3,4.7-1.9,6.3c-2,1.5-2.1,5.6-5.4,5C42.3,29.8,40.3,27.3,38.8,28.3
	C36.6,29.3,38.8,28.3,38.8,28.3"/>
<path fill="#E7E6E7" d="M38.8,28.3c-0.5,0.3-1.2,0.4-1.8,0.4c-0.6-0.1-1.2-0.3-1.7-0.7c-1-0.7-1.8-1.7-2.4-2.8
	c-0.3-0.6-0.5-1.2-0.5-1.9c0-0.7,0.3-1.3,0.7-1.8c0.3-0.5,0.7-1,1.1-1.5c0.2-0.2,0.4-0.4,0.6-0.7c0.1-0.2,0.3-0.5,0.4-0.7
	c0.4-1.1,0.4-2.3,0.7-3.5c0.1-0.6,0.4-1.2,0.8-1.7c0.4-0.5,0.9-0.9,1.4-1.2c0.5-0.3,1.2-0.4,1.8-0.4c0.6,0.1,1.2,0.3,1.7,0.6
	c1.1,0.6,2,1.4,3,2c2.1,1.1,4.5,1.8,6.3,3.6c0.8,0.9,1.6,2.1,1.4,3.5c-0.2,1.4-1.1,2.4-2,3.1c-0.5,0.4-1,0.7-1.3,1.2
	c-0.4,0.4-0.6,0.9-0.9,1.5c-0.3,0.5-0.6,1.1-0.9,1.6c-0.4,0.5-0.8,1-1.5,1.3c-0.6,0.3-1.3,0.3-1.9,0.1c-0.7-0.2-1.2-0.5-1.7-0.9
	c-0.5-0.3-1-0.7-1.5-0.9C40,28.2,39.4,28.1,38.8,28.3L38.8,28.3L38.8,28.3l-0.5,0.3l-0.2,0.1L38,28.8l-0.1,0l0,0l0,0l0,0l0,0h0l0,0
	c0.1,0.1-0.1-0.1-0.1-0.1h0L38.8,28.3L38.8,28.3z M38.8,28.3l-1,0.5h0c0,0-0.1-0.2-0.1-0.1l0,0l0,0l0,0l0,0l0,0l0,0l0.1,0l0.1-0.1
	l0.2-0.1l0.5-0.3l0,0c0.6-0.4,1.3-0.3,1.8,0c0.6,0.2,1.1,0.6,1.6,0.9c0.5,0.3,1,0.6,1.5,0.8c0.6,0.1,1.1,0.1,1.6-0.1
	c1-0.5,1.5-1.6,2.1-2.7c0.3-0.5,0.6-1.1,1-1.6c0.4-0.5,1-0.9,1.4-1.2c0.9-0.8,1.7-1.7,1.9-2.8c0.2-1.1-0.4-2.2-1.2-3
	c-1.6-1.7-4-2.5-6.1-3.7c-1.1-0.6-2-1.4-3-2c-0.5-0.3-1.1-0.6-1.6-0.6c-0.6-0.1-1.2,0.1-1.7,0.4c-1,0.6-1.7,1.6-1.9,2.8
	c-0.2,1.1-0.1,2.4-0.6,3.6c-0.1,0.3-0.2,0.6-0.4,0.9c-0.2,0.3-0.4,0.5-0.6,0.7c-0.4,0.5-0.8,0.9-1.1,1.4c-0.3,0.5-0.6,1-0.6,1.5
	c0,0.5,0.1,1.1,0.4,1.6c0.6,1,1.3,2,2.2,2.7c0.5,0.4,1,0.6,1.6,0.8C37.7,28.6,38.3,28.5,38.8,28.3L38.8,28.3z"/>
<path fill="#EBD467" d="M45,23.1c-1,1.7-3.2,2.2-4.8,1.2c-1.6-1-2-3.2-1-4.8c1-1.7,3.2-2.2,4.8-1.2C45.6,19.3,46,21.5,45,23.1"/>
<g>
	<g>
		<defs>
			<rect id="SVGID_17_" x="39.1" y="18.2" width="5.8" height="4.4"/>
		</defs>
		<clipPath id="SVGID_18_">
			<use xlink:href="#SVGID_17_"  overflow="visible"/>
		</clipPath>
		<path clip-path="url(#SVGID_18_)" fill="#EBD467" d="M39.5,22.6c-0.4-0.6-0.5-1.5-0.3-2.3c0.3-0.8,0.8-1.4,1.6-1.8
			c0.7-0.3,1.6-0.4,2.4-0.2c0.8,0.2,1.4,0.8,1.7,1.6c-0.4-0.6-1.1-1.1-1.8-1.3c-0.7-0.2-1.5-0.1-2.1,0.3c-0.6,0.3-1.2,0.9-1.4,1.5
			C39.2,21.1,39.2,21.9,39.5,22.6"/>
	</g>
</g>
<path fill="#D38792" d="M52.1,39.1c-0.9,1.3-2.6,1.7-4,0.9c-1.3-0.9-1.7-2.6-0.8-4L55,24.1c0.9-1.3,2.6-1.7,4-0.9
	c1.3,0.9,1.7,2.6,0.8,4L52.1,39.1z"/>
<g opacity="0.22">
	<g>
		<defs>
			<rect id="SVGID_19_" x="46.8" y="22.8" width="13.4" height="17.6"/>
		</defs>
		<clipPath id="SVGID_20_">
			<use xlink:href="#SVGID_19_"  overflow="visible"/>
		</clipPath>
		<path clip-path="url(#SVGID_20_)" fill="#D38792" d="M47.9,36.4l7.7-11.9c0.9-1.3,2.4-1.9,3.3-1.3c-1.3-0.9-3.1-0.5-4,0.9L47.3,36
			c-0.9,1.3-0.5,3.1,0.8,4C47.2,39.3,47.1,37.8,47.9,36.4"/>
		<path clip-path="url(#SVGID_20_)" fill="#D38792" d="M58.9,23.3c1,0.6,1.1,2.2,0.2,3.6l-7.7,11.9c-0.9,1.3-2.4,1.9-3.3,1.3
			c1.3,0.9,3.1,0.5,4-0.8l7.7-11.9C60.6,25.9,60.3,24.1,58.9,23.3"/>
	</g>
</g>
<path fill="#72583C" d="M54.6,26c0.3,0.2,0.6,0.4,0.9,0.6c0.3,0.2,0.5,0.4,0.7,0.7c0.2,0.2,0.5,0.5,0.6,0.8c0.2,0.3,0.4,0.6,0.5,0.9
	c-0.3-0.2-0.6-0.4-0.9-0.6c-0.3-0.2-0.5-0.4-0.7-0.7c-0.2-0.2-0.5-0.5-0.6-0.8C54.9,26.6,54.8,26.3,54.6,26"/>
<path fill="#72583C" d="M52.9,28.7c0.3,0.2,0.6,0.4,0.9,0.6c0.3,0.2,0.5,0.4,0.7,0.7c0.2,0.2,0.5,0.5,0.6,0.8
	c0.2,0.3,0.4,0.6,0.5,0.9c-0.3-0.2-0.6-0.4-0.9-0.6c-0.3-0.2-0.5-0.4-0.7-0.7c-0.2-0.2-0.5-0.5-0.6-0.8
	C53.3,29.4,53.1,29.1,52.9,28.7"/>
<path fill="#72583C" d="M51.3,31.2c0.3,0.2,0.6,0.4,0.9,0.6c0.3,0.2,0.5,0.4,0.7,0.7c0.2,0.2,0.5,0.5,0.6,0.8
	c0.2,0.3,0.4,0.6,0.5,0.9c-0.3-0.2-0.6-0.4-0.9-0.6c-0.3-0.2-0.5-0.4-0.7-0.7c-0.2-0.2-0.5-0.5-0.6-0.8
	C51.6,31.9,51.4,31.6,51.3,31.2"/>
<path fill="#72583C" d="M49.4,33.9c0.3,0.2,0.6,0.4,0.9,0.6c0.3,0.2,0.5,0.4,0.7,0.7c0.2,0.2,0.5,0.5,0.6,0.8
	c0.2,0.3,0.4,0.6,0.5,0.9c-0.3-0.2-0.6-0.4-0.9-0.6c-0.3-0.2-0.5-0.4-0.7-0.7c-0.2-0.2-0.5-0.5-0.6-0.8
	C49.8,34.5,49.6,34.2,49.4,33.9"/>
</svg>
