<?xml version="1.0" encoding="utf-8"?>
<!-- Generator: Adobe Illustrator 15.0.2, SVG Export Plug-In . SVG Version: 6.00 Build 0)  -->
<!DOCTYPE svg PUBLIC "-//W3C//DTD SVG 1.1//EN" "http://www.w3.org/Graphics/SVG/1.1/DTD/svg11.dtd">
<svg version="1.1" id="Layer_1" xmlns="http://www.w3.org/2000/svg" xmlns:xlink="http://www.w3.org/1999/xlink" x="0px" y="0px"
	 width="81.1px" height="34.3px" viewBox="0 0 81.1 34.3" enable-background="new 0 0 81.1 34.3" xml:space="preserve">
<path fill="#D3D2D2" d="M1.8,21.2v0.6v0.1v0.6c0.4,0.4,0.4,0.3,0.4,0.3v-0.9v-0.1V21C2.2,21,2.2,20.8,1.8,21.2"/>
<path fill="#D6543B" d="M1.8,21.9v-0.5c-0.3,0.1-0.6,0.3-0.6,0.5c0,0.2,0.2,0.4,0.6,0.5V21.9L1.8,21.9z"/>
<path fill="#A7A5A6" d="M0.5,22.6v3c0,0,0.2,1.8,0.6,1.9C1.6,27.5,2,26.3,2,25.2s-0.7-3.1-0.8-3.1C1,22.1,0.6,21.7,0.5,22.6"/>
<path fill="#231F20" d="M2.5,25.8l1.2,1.5c0,0,0.3-0.3,0.5,0C4.4,27.6,4.5,28,4.5,28H5c0,0,0.4-1,1-0.6C6.6,27.8,8.8,28,8.8,28
	l-3.4-5.4L2.5,25.8z"/>
<path fill="#231F20" d="M3.7,24.8c0,0,13.9,5,17.9,5H57l1.2-0.8c0,0,0.9,2.6,5.4,2.6s11.1-3.4,11.1-3.4l3.9-0.5v-1l-2.9,0.2l0.5-4.7
	l-4.2-5.4h-64L3.7,24.8z"/>
<path fill="#B52126" d="M75.3,13.5c0,0-0.9-1-2.2-2.4c-0.4-0.1-0.9-0.3-1.3-0.7c-0.9-0.9-4.3-6.3-4.3-6.3s-0.1-0.3,0.2-0.5
	c-0.1-0.1-0.1-0.2-0.2-0.4c0,0-1.3-3.2-12-3.2S30.7-0.6,27.3,1.5l-0.9,1.2h1.5c0,0,1.1,0,0.5,0.9s-4.4,6.7-4.4,6.7s-0.9,1.2-2.2,0.5
	c-0.4-0.2-0.9-0.4-1.3-0.5l-0.5,0.6c0,0-0.4,0.7-2.9,0.9c-2.5,0.1-13.1,0.9-14.9,2.6v9.9l2,1.1H5c0.5-3.4,3.8-6,7.8-6s7.3,2.6,7.8,6
	h0c0,0,0.7,2.2,2.9,2.2h33.2c0,0,2.5,0.2,3.8-2.2h0c0.5-3.4,3.6-6,7.5-6c3.8,0,7,2.6,7.5,6h0l1.3-0.6l1.8-0.8
	C78.5,24,79.6,18.9,75.3,13.5"/>
<path fill="none" stroke="#656263" stroke-width="0.593" stroke-miterlimit="10" d="M5.2,25.4c0.5-3.4,3.8-6,7.8-6
	c4,0,7.3,2.6,7.8,6h0c0,0,0.7,2.2,2.9,2.2h33.2c0,0,2.5,0.2,3.8-2.2h0c0.5-3.4,3.6-6,7.5-6c3.8,0,7,2.6,7.5,6h0"/>
<path fill="none" stroke="#D3D2D2" stroke-width="0.445" stroke-miterlimit="10" d="M5.2,25.4c0.5-3.4,3.8-6,7.8-6
	c4,0,7.3,2.6,7.8,6h0c0,0,0.7,2.2,2.9,2.2h33.2c0,0,2.5,0.2,3.8-2.2h0c0.5-3.4,3.6-6,7.5-6c3.8,0,7,2.6,7.5,6h0"/>
<path fill="#DCEFF6" d="M23.9,10.3c0,0,3.9-5.8,4.4-6.7s-0.5-0.9-0.5-0.9h-1.5l-6,7.7c0.4,0.1,0.8,0.3,1.3,0.5
	C23,11.5,23.9,10.3,23.9,10.3"/>
<path fill="none" stroke="#68111E" stroke-width="0.296" stroke-linecap="round" stroke-miterlimit="10" d="M20.4,10.3
	c0.4,0.1,0.8,0.3,1.3,0.5c1.3,0.7,2.2-0.5,2.2-0.5s3.9-5.8,4.4-6.7c0.6-0.9-0.5-0.9-0.5-0.9h-1.5"/>
<path fill="#DCEFF6" d="M67.6,4.1c0,0,3.5,5.3,4.3,6.3c0.4,0.4,0.9,0.6,1.3,0.7c-1.9-2.1-4.4-5.3-5.4-7.4
	C67.5,3.9,67.6,4.1,67.6,4.1"/>
<path fill="none" stroke="#68111E" stroke-width="0.296" stroke-linecap="round" stroke-miterlimit="10" d="M67.8,3.7
	c-0.3,0.2-0.2,0.5-0.2,0.5s3.5,5.3,4.3,6.3c0.4,0.4,0.9,0.6,1.3,0.7"/>
<path fill="#4F4C4D" d="M19.5,28.1c0,3.7-3,5.9-6.7,5.9c-3.7,0-6.7-2.3-6.7-5.9s3-6.7,6.7-6.7C16.5,21.4,19.5,24.4,19.5,28.1"/>
<g opacity="0.4">
	<g>
		<defs>
			<rect id="SVGID_1_" x="8" y="28" width="9.6" height="4.6"/>
		</defs>
		<clipPath id="SVGID_2_">
			<use xlink:href="#SVGID_1_"  overflow="visible"/>
		</clipPath>
		<path clip-path="url(#SVGID_2_)" fill="#959394" d="M8,28.2c0.2,2.5,2.3,4.5,4.8,4.5c2.6,0,4.7-2.1,4.8-4.6
			c-1.1,0.9-2.9,1.5-4.9,1.5C10.8,29.5,9.1,29,8,28.2"/>
	</g>
</g>
<g opacity="0.4">
	<g>
		<defs>
			<rect id="SVGID_3_" x="7.9" y="23" width="9.7" height="6.5"/>
		</defs>
		<clipPath id="SVGID_4_">
			<use xlink:href="#SVGID_3_"  overflow="visible"/>
		</clipPath>
		<path clip-path="url(#SVGID_4_)" fill="#615E5E" d="M12.8,23C10.1,23,8,25.2,8,27.9c0,0.1,0,0.2,0,0.3c1.1,0.8,2.8,1.3,4.7,1.3
			c2,0,3.8-0.6,4.9-1.5c0-0.1,0-0.1,0-0.2C17.6,25.2,15.4,23,12.8,23"/>
	</g>
</g>
<path fill="#F4F4F4" d="M8.8,28c0-2.2,1.8-4,4-4c2.2,0,4,1.8,4,4c0,2.2-1.8,4-4,4C10.6,32,8.8,30.2,8.8,28"/>
<path fill="#DEDDDE" d="M15.5,28.1c0,1.5-1.2,2.7-2.7,2.7c-1.5,0-2.7-1.2-2.7-2.7c0,0,0,0,0,0C10,28,9.9,28,9.9,28c0,0,0,0.1,0,0.1
	c0,1.6,1.3,2.9,2.9,2.9c1.6,0,2.9-1.3,2.9-2.9c0,0,0-0.1,0-0.1C15.6,28,15.5,28,15.5,28.1L15.5,28.1z"/>
<path fill="#BDBCBC" d="M12.8,24.6c-1.8,0-3.3,1.5-3.4,3.3c0.1,0,0.2,0.1,0.3,0.1c0-1.7,1.4-3.1,3.1-3.1c1.7,0,3.1,1.4,3.1,3.1
	c0.1,0,0.2-0.1,0.3-0.1C16.1,26,14.6,24.6,12.8,24.6"/>
<path fill="#DEDDDE" d="M10.1,28.1c0-1.5,1.2-2.6,2.6-2.6c1.5,0,2.6,1.2,2.6,2.6c0,1.5-1.2,2.6-2.6,2.6
	C11.3,30.7,10.1,29.6,10.1,28.1"/>
<circle fill="none" stroke="#656263" stroke-width="7.000000e-002" stroke-miterlimit="10" cx="12.8" cy="28.1" r="2.6"/>
<path fill="#F2F1F2" d="M11,27.9c0-1,0.8-1.8,1.8-1.8c1,0,1.8,0.8,1.8,1.8c0,0,0,0,0,0c0.1,0,0.1,0,0.2,0.1c0,0,0-0.1,0-0.1
	c0-1.1-0.9-2-2-2c-1.1,0-2,0.9-2,2c0,0,0,0,0,0.1C10.8,27.9,10.9,27.9,11,27.9C11,27.9,11,27.9,11,27.9"/>
<path fill="#BDBCBC" d="M12.8,30.3c1.3,0,2.3-1,2.3-2.2c-0.1,0-0.1,0-0.2-0.1c0,1.2-1,2.1-2.1,2.1c-1.2,0-2.1-1-2.1-2.1
	c-0.1,0-0.1,0-0.2,0.1C10.5,29.3,11.5,30.3,12.8,30.3"/>
<path fill="#EBEBEB" d="M11.3,27.8c0,0.1,0,0.2,0,0.3c0,0.8,0.7,1.5,1.5,1.5c0.8,0,1.5-0.7,1.5-1.5c0-0.1,0-0.2,0-0.3
	c-0.3,0.3-0.9,0.4-1.5,0.4C12.2,28.3,11.7,28.1,11.3,27.8"/>
<path fill="#918F90" d="M12.8,26.6c-0.7,0-1.3,0.5-1.5,1.2c0.3,0.3,0.9,0.4,1.5,0.4c0.6,0,1.1-0.2,1.5-0.4
	C14.1,27.1,13.5,26.6,12.8,26.6"/>
<path fill="#322F30" d="M12.8,25.7C12.8,25.7,12.8,25.8,12.8,25.7c-0.1,0.1-0.2,0.1-0.2,0C12.7,25.6,12.7,25.6,12.8,25.7
	C12.8,25.6,12.8,25.6,12.8,25.7"/>
<path fill="#322F30" d="M10.7,26.8c0,0,0.1,0.1,0,0.1c0,0-0.1,0.1-0.1,0c0,0-0.1-0.1,0-0.1C10.6,26.8,10.7,26.8,10.7,26.8"/>
<path fill="#322F30" d="M10.6,29.2c0,0,0.1,0,0.1,0c0,0,0,0.1,0,0.1c0,0-0.1,0-0.1,0S10.6,29.3,10.6,29.2"/>
<path fill="#322F30" d="M12.7,30.5C12.7,30.5,12.7,30.4,12.7,30.5c0.1-0.1,0.2-0.1,0.2,0S12.8,30.6,12.7,30.5
	C12.7,30.6,12.7,30.6,12.7,30.5"/>
<path fill="#322F30" d="M14.8,29.4c0,0-0.1-0.1,0-0.1c0,0,0.1-0.1,0.1,0c0,0,0.1,0.1,0,0.1C14.9,29.4,14.8,29.4,14.8,29.4"/>
<path fill="#322F30" d="M14.9,27c0,0-0.1,0-0.1,0c0,0,0-0.1,0-0.1c0,0,0.1,0,0.1,0C15,26.9,14.9,27,14.9,27"/>
<path fill="#4F4C4D" d="M74.7,28.4c0,3.7-3,5.9-6.7,5.9c-3.7,0-6.7-2.3-6.7-5.9c0-3.7,3-6.7,6.7-6.7C71.7,21.7,74.7,24.7,74.7,28.4"
	/>
<g opacity="0.4">
	<g>
		<defs>
			<rect id="SVGID_5_" x="63.2" y="28.4" width="9.6" height="4.6"/>
		</defs>
		<clipPath id="SVGID_6_">
			<use xlink:href="#SVGID_5_"  overflow="visible"/>
		</clipPath>
		<path clip-path="url(#SVGID_6_)" fill="#959394" d="M63.2,28.5C63.3,31,65.4,33,68,33c2.6,0,4.7-2.1,4.8-4.6
			c-1.1,0.9-2.9,1.5-4.9,1.5C66,29.8,64.3,29.3,63.2,28.5"/>
	</g>
</g>
<g opacity="0.4">
	<g>
		<defs>
			<rect id="SVGID_7_" x="63.1" y="23.4" width="9.7" height="6.5"/>
		</defs>
		<clipPath id="SVGID_8_">
			<use xlink:href="#SVGID_7_"  overflow="visible"/>
		</clipPath>
		<path clip-path="url(#SVGID_8_)" fill="#615E5E" d="M68,23.4c-2.7,0-4.8,2.2-4.8,4.8c0,0.1,0,0.2,0,0.3c1.1,0.8,2.8,1.3,4.7,1.3
			c2,0,3.8-0.6,4.9-1.5c0-0.1,0-0.1,0-0.2C72.8,25.5,70.6,23.4,68,23.4"/>
	</g>
</g>
<path fill="#F4F4F4" d="M64,28.4c0-2.2,1.8-4,4-4s4,1.8,4,4c0,2.2-1.8,4-4,4S64,30.6,64,28.4"/>
<path fill="#DEDDDE" d="M70.7,28.4c0,1.5-1.2,2.7-2.7,2.7c-1.5,0-2.7-1.2-2.7-2.7c0,0,0,0,0,0c-0.1,0-0.2-0.1-0.3-0.1
	c0,0,0,0.1,0,0.1c0,1.6,1.3,2.9,2.9,2.9c1.6,0,2.9-1.3,2.9-2.9c0,0,0-0.1,0-0.1C70.8,28.4,70.7,28.4,70.7,28.4
	C70.7,28.4,70.7,28.4,70.7,28.4"/>
<path fill="#BDBCBC" d="M68,24.9c-1.8,0-3.3,1.5-3.4,3.3c0.1,0,0.2,0.1,0.3,0.1c0-1.7,1.4-3.1,3.1-3.1c1.7,0,3.1,1.4,3.1,3.1
	c0.1,0,0.2-0.1,0.3-0.1C71.3,26.4,69.8,24.9,68,24.9"/>
<path fill="#DEDDDE" d="M65.3,28.5c0-1.5,1.2-2.6,2.6-2.6c1.5,0,2.6,1.2,2.6,2.6c0,1.5-1.2,2.6-2.6,2.6
	C66.5,31.1,65.3,29.9,65.3,28.5"/>
<circle fill="none" stroke="#656263" stroke-width="7.000000e-002" stroke-miterlimit="10" cx="68" cy="28.5" r="2.6"/>
<path fill="#F2F1F2" d="M66.2,28.2c0-1,0.8-1.8,1.8-1.8c1,0,1.8,0.8,1.8,1.8c0,0,0,0,0,0c0.1,0,0.1,0,0.2,0.1c0,0,0-0.1,0-0.1
	c0-1.1-0.9-2-2-2c-1.1,0-2,0.9-2,2c0,0,0,0,0,0.1C66,28.3,66.1,28.3,66.2,28.2C66.2,28.2,66.2,28.2,66.2,28.2"/>
<path fill="#BDBCBC" d="M68,30.7c1.3,0,2.3-1,2.3-2.2c-0.1,0-0.1,0-0.2-0.1c0,1.2-1,2.1-2.1,2.1c-1.2,0-2.1-1-2.1-2.1
	c-0.1,0-0.1,0-0.2,0.1C65.7,29.6,66.7,30.7,68,30.7"/>
<path fill="#EBEBEB" d="M66.5,28.2c0,0.1,0,0.2,0,0.3c0,0.8,0.7,1.5,1.5,1.5s1.5-0.7,1.5-1.5c0-0.1,0-0.2,0-0.3
	c-0.3,0.3-0.9,0.4-1.5,0.4C67.4,28.6,66.9,28.4,66.5,28.2"/>
<path fill="#918F90" d="M68,27c-0.7,0-1.3,0.5-1.5,1.2c0.3,0.3,0.9,0.4,1.5,0.4c0.6,0,1.1-0.2,1.5-0.4C69.3,27.5,68.7,27,68,27"/>
<path fill="#322F30" d="M68,26C68,26.1,68,26.1,68,26c-0.1,0.1-0.2,0.1-0.2,0S67.9,25.9,68,26C68,25.9,68,26,68,26"/>
<path fill="#322F30" d="M65.9,27.2c0,0,0.1,0.1,0,0.1s-0.1,0.1-0.1,0c0,0-0.1-0.1,0-0.1C65.8,27.1,65.9,27.1,65.9,27.2"/>
<path fill="#322F30" d="M65.8,29.6c0,0,0.1,0,0.1,0c0,0,0,0.1,0,0.1c0,0-0.1,0-0.1,0C65.8,29.7,65.8,29.6,65.8,29.6"/>
<path fill="#322F30" d="M67.9,30.9C67.9,30.8,67.9,30.8,67.9,30.9c0.1-0.1,0.2-0.1,0.2,0S68,31,67.9,30.9
	C67.9,31,67.9,30.9,67.9,30.9"/>
<path fill="#322F30" d="M70,29.7c0,0-0.1-0.1,0-0.1c0,0,0.1-0.1,0.1,0c0,0,0.1,0.1,0,0.1C70.1,29.8,70,29.8,70,29.7"/>
<path fill="#322F30" d="M70.1,27.3c0,0-0.1,0-0.1,0c0,0,0-0.1,0-0.1s0.1,0,0.1,0C70.2,27.2,70.1,27.3,70.1,27.3"/>
<g>
	<g>
		<defs>
			<rect id="SVGID_9_" x="4.3" y="13.8" width="68.5" height="2.5"/>
		</defs>
		<clipPath id="SVGID_10_">
			<use xlink:href="#SVGID_9_"  overflow="visible"/>
		</clipPath>
		<path clip-path="url(#SVGID_10_)" fill="#D3D2D2" d="M4.3,16.3c1.5-0.3,2.9-0.5,4.4-0.7c1.5-0.2,3-0.3,4.5-0.5l2.2-0.2
			c0.7-0.1,1.5-0.1,2.2-0.1c0.7,0,1.5,0,2.2,0l2.2,0.1h0c4.2-0.1,8.4-0.1,12.7-0.3l12.7-0.4L60.1,14c4.2-0.1,8.4-0.2,12.7-0.2v0
			c-4.2,0.2-8.4,0.3-12.6,0.4l-12.7,0.3l-12.7,0.2c-4.2,0.1-8.4,0.2-12.7,0.4h0l0,0l-2.2-0.1c-0.7,0-1.5,0-2.2,0
			c-0.7,0-1.5,0-2.2,0.1l-2.2,0.1c-1.5,0.1-3,0.3-4.5,0.4C7.3,16,5.8,16.1,4.3,16.3L4.3,16.3z"/>
	</g>
</g>
<path fill="#D3D2D2" d="M2.2,14.4v5.4c0,0-0.9-0.1-0.9-0.8v-3.4C1.2,15.5,1.1,15.2,2.2,14.4"/>
<rect x="1.2" y="15.6" fill="#F0EFEF" width="0.9" height="0.9"/>
<path fill="#D3D2D2" d="M4.3,24.5v1c0,0,0.1,0.4-2.2,0.4c0,0-2.2,0-2.2-0.7c0-0.8,1.5-1.3,2.9-1.3C4.2,24,4.3,24.5,4.3,24.5"/>
<path fill="#A7A5A6" d="M80.6,22.4v3c0,0-0.2,1.8-0.6,1.9c-0.4,0.1-0.8-1.1-0.8-2.2c0-1.1,0.7-3.1,0.8-3.1
	C80.1,21.9,80.5,21.4,80.6,22.4"/>
<path fill="#D3D2D2" d="M75.5,24.2v1c0,0-0.1,0.4,2.8,0.4c0,0,2.8,0,2.8-0.7c0-0.8-2-1.3-3.8-1.3C75.6,23.8,75.5,24.2,75.5,24.2"/>
<path fill="#DCEFF6" d="M25.2,12.2h21.4l-0.3-7.4c0,0,0-1.8-1.7-1.8H32.4c0,0-1.4-0.1-3.3,3C27.2,9.1,25.2,12.2,25.2,12.2"/>
<path fill="#DCEFF6" d="M48,4.9v5.8c0,0,0,1.4,2.4,1.4h15.3c0,0,2-0.3,0.6-2.7c-1.4-2.4-2.5-4.1-2.5-4.1s-0.6-1.8-3-1.9
	C58.3,3.3,50,3,50,3S48,2.9,48,4.9"/>
<path fill="#918F90" d="M32.3,3.1L32.3,3.1l12.3,0c1.5,0,1.6,1.6,1.6,1.7l0.3,7.2h-21c0.5-0.8,2.2-3.3,3.7-6
	C30.9,3.2,32.2,3.1,32.3,3.1 M32.3,3c-0.2,0-1.5,0.1-3.2,3c-1.9,3.1-3.9,6.2-3.9,6.2h21.4l-0.3-7.4c0,0,0-1.8-1.7-1.8L32.3,3
	C32.4,3,32.3,3,32.3,3"/>
<path fill="#918F90" d="M49.9,3.1L49.9,3.1c0.1,0,8.4,0.3,10.8,0.4c2.3,0.1,2.9,1.7,2.9,1.8c0,0,1.1,1.7,2.5,4.1
	c0.5,0.8,0.6,1.5,0.4,1.9c-0.2,0.5-0.8,0.6-0.8,0.6H50.4c-0.9,0-1.6-0.2-2-0.6c-0.3-0.3-0.3-0.7-0.3-0.7V4.9
	C48.1,3.2,49.5,3.1,49.9,3.1 M49.9,3C49.6,3,48,3.1,48,4.9v5.8c0,0,0,1.4,2.4,1.4h15.3c0,0,2-0.3,0.6-2.7c-1.4-2.4-2.5-4.1-2.5-4.1
	s-0.6-1.8-3-1.9C58.3,3.3,50,3,49.9,3C50,3,49.9,3,49.9,3"/>
<g>
	<g>
		<defs>
			<rect id="SVGID_11_" x="30.1" y="2.2" width="36.7" height="0.3"/>
		</defs>
		<clipPath id="SVGID_12_">
			<use xlink:href="#SVGID_11_"  overflow="visible"/>
		</clipPath>
		
			<line clip-path="url(#SVGID_12_)" fill="none" stroke="#4F4C4D" stroke-width="0.291" stroke-linecap="round" stroke-miterlimit="10" x1="30.3" y1="2.4" x2="66.7" y2="2.4"/>
	</g>
</g>
<g>
	<g>
		<defs>
			<rect id="SVGID_13_" x="17.8" y="1.8" width="12.4" height="19"/>
		</defs>
		<clipPath id="SVGID_14_">
			<use xlink:href="#SVGID_13_"  overflow="visible"/>
		</clipPath>
		
			<path clip-path="url(#SVGID_14_)" fill="none" stroke="#4F4C4D" stroke-width="0.291" stroke-linecap="round" stroke-miterlimit="10" d="
			M26.9,2c0,0,3.1,0,3.1,0.5c0,0.6-12.1,18.2-12.1,18.2"/>
	</g>
</g>
<path fill="none" stroke="#D3D2D2" stroke-width="0.148" stroke-linecap="round" stroke-miterlimit="10" d="M26.8,1.9
	c0,0,3.5-0.1,3.4,0.5S17.9,20.9,17.9,20.9"/>
<g>
	<g>
		<defs>
			<rect id="SVGID_15_" x="23.3" y="2.2" width="25.8" height="25.3"/>
		</defs>
		<clipPath id="SVGID_16_">
			<use xlink:href="#SVGID_15_"  overflow="visible"/>
		</clipPath>
		
			<path clip-path="url(#SVGID_16_)" fill="none" stroke="#656263" stroke-width="0.295" stroke-linecap="round" stroke-miterlimit="10" d="
			M43.2,2.4H45c0,0,2.2,0.2,2.2,2.6v7.2l1.5,2.4c0,0,0.3,0.5,0.3,1.1v8.7c0,0,0.3,2.8-2.4,2.8c-2.7,0-22.8,0.3-22.8,0.3l-0.3-11
			c0,0-0.1-2.5,1-4C25.5,10.9,30,4,30,4s0.7-1.6,3.2-1.6H43.2z"/>
	</g>
</g>
<g opacity="0.5">
	<g>
		<defs>
			<rect id="SVGID_17_" x="27.6" y="3" width="18.7" height="9.2"/>
		</defs>
		<clipPath id="SVGID_18_">
			<use xlink:href="#SVGID_17_"  overflow="visible"/>
		</clipPath>
		<path clip-path="url(#SVGID_18_)" fill="#282324" d="M44.6,3H32.4c0,0-1.4-0.1-3.3,3c-0.5,0.8-1,1.7-1.5,2.4l0.2-0.1
			c0,0,1.4-3.3,4.2-3.3h9.5c0,0,2.5-0.2,2.5,2.5v4.6h1.3V7.2c0,0,0.1-1.2,1.1-1.8l0-0.6C46.3,4.8,46.3,3,44.6,3"/>
	</g>
</g>
<g opacity="0.5">
	<g>
		<defs>
			<rect id="SVGID_19_" x="48" y="3" width="18.8" height="9.2"/>
		</defs>
		<clipPath id="SVGID_20_">
			<use xlink:href="#SVGID_19_"  overflow="visible"/>
		</clipPath>
		<path clip-path="url(#SVGID_20_)" fill="#282324" d="M66.3,9.4c-1.4-2.4-2.5-4.2-2.5-4.2s-0.6-1.8-3-1.9C58.3,3.3,50,3,50,3
			s-2-0.1-2,1.9v0.2c2.4,0,6.2,0.3,6.2,0.3s5-0.3,6.3,2.9c1,2.4,1.4,3.5,1.5,3.9h3.7C65.7,12.2,67.7,11.9,66.3,9.4"/>
	</g>
</g>
<path fill="#89273B" d="M77.6,20.9c0,0.8,0.1,2,0.1,2s0,0.4,0.4,0.4h0.8c0,0,0.3-1.4-0.1-3.2h-1.3C77.5,20.5,77.6,20.7,77.6,20.9"/>
<path fill="#D7573F" d="M76.9,17.6c0,0-0.4,0-0.1,0.7c0.2,0.5,0.5,1.3,0.7,2h1.3c-0.2-0.8-0.5-1.8-1-2.6H76.9z"/>
<path fill="none" stroke="#D3D2D2" stroke-width="0.148" stroke-linecap="round" stroke-miterlimit="10" d="M77.7,17.6h-0.8
	c0,0-0.4,0-0.1,0.7c0.2,0.5,0.5,1.3,0.7,2c0.1,0.3,0.1,0.5,0.1,0.8c0,0.8,0.1,2,0.1,2s0.1,0.4,0.4,0.4h0.8"/>
<path fill="#D3D2D2" d="M42.8,16.3c0,0,0.6-0.4,2.4-0.4h2.3c0,0,1,0.2,0.1,0.7c-0.9,0.5-1.6-0.3-1.6-0.3s-2.4-0.2-3.2,0.2V16.3z"/>
<g>
	<g>
		<defs>
			<rect id="SVGID_21_" x="64.7" y="2.2" width="12.5" height="21.2"/>
		</defs>
		<clipPath id="SVGID_22_">
			<use xlink:href="#SVGID_21_"  overflow="visible"/>
		</clipPath>
		
			<path clip-path="url(#SVGID_22_)" fill="none" stroke="#656263" stroke-width="0.295" stroke-linecap="round" stroke-miterlimit="10" d="
			M64.8,2.4c0,0,0.9,0.2,1.6,1.6c0.6,1.4,4.4,7.7,4.4,7.7s5.5,4.8,6.2,11.7"/>
	</g>
</g>
<line fill="none" stroke="#D3D2D2" stroke-width="0.148" stroke-linecap="round" stroke-miterlimit="10" x1="30.3" y1="2.2" x2="66.7" y2="2.2"/>
</svg>
