<?xml version="1.0" encoding="utf-8"?>
<!-- Generator: Adobe Illustrator 15.0.2, SVG Export Plug-In . SVG Version: 6.00 Build 0)  -->
<!DOCTYPE svg PUBLIC "-//W3C//DTD SVG 1.1//EN" "http://www.w3.org/Graphics/SVG/1.1/DTD/svg11.dtd">
<svg version="1.1" id="Layer_1" xmlns="http://www.w3.org/2000/svg" xmlns:xlink="http://www.w3.org/1999/xlink" x="0px" y="0px"
	 width="51.2px" height="73.4px" viewBox="0 0 51.2 73.4" enable-background="new 0 0 51.2 73.4" xml:space="preserve">
<path fill="#918F90" d="M18.1,51.5v1.8c0,0.6-0.5,1.1-1.1,1.1h-1.5c-0.6,0-1.1-0.5-1.1-1.1v-1.8H18.1z"/>
<path fill="#676465" d="M16.9,51.5v1.8c0,0.6-0.1,1.1-0.3,1.1h-0.5c-0.2,0-0.3-0.5-0.3-1.1v-1.8H16.9z"/>
<path fill="#918F90" d="M14.5,51v-1.8c0-0.6,0.5-1.1,1.1-1.1h1.5c0.6,0,1.1,0.5,1.1,1.1V51H14.5z"/>
<path fill="#676465" d="M15.7,51v-1.8c0-0.6,0.1-1.1,0.3-1.1h0.5c0.2,0,0.3,0.5,0.3,1.1V51H15.7z"/>
<path fill="#676465" d="M28.1,51L28.1,51c0,1.5-1.3,2.8-2.8,2.8H7.4c-1.5,0-2.8-1.3-2.8-2.8H28.1z"/>
<rect x="15.8" y="21.5" fill="#DCDBDB" width="1" height="27.1"/>
<rect x="16.2" y="21.5" fill="#989696" width="0.2" height="27.1"/>
<path fill="#DCDBDB" d="M18.1,14.1c0,0.5-0.4,1-1,1h-1.6c-0.5,0-1-0.4-1-1s0.4-1,1-1h1.6C17.7,13.1,18.1,13.5,18.1,14.1"/>
<g>
	<g>
		<defs>
			<rect id="SVGID_1_" x="14.6" y="13.1" width="3.6" height="1.9"/>
		</defs>
		<clipPath id="SVGID_2_">
			<use xlink:href="#SVGID_1_"  overflow="visible"/>
		</clipPath>
		<g opacity="0.6" clip-path="url(#SVGID_2_)">
			<g>
				<defs>
					<rect id="SVGID_3_" x="17.1" y="13.1" width="1.1" height="1.9"/>
				</defs>
				<clipPath id="SVGID_4_">
					<use xlink:href="#SVGID_3_"  overflow="visible"/>
				</clipPath>
				<path clip-path="url(#SVGID_4_)" fill="#DCDBDB" d="M17.2,13.1h-0.1c0.5,0,0.8,0.4,0.8,1s-0.4,1-0.8,1h0.1c0.5,0,1-0.4,1-1
					S17.7,13.1,17.2,13.1"/>
			</g>
		</g>
		<g opacity="0.6" clip-path="url(#SVGID_2_)">
			<g>
				<defs>
					<rect id="SVGID_5_" x="14.6" y="13.1" width="1.1" height="1.9"/>
				</defs>
				<clipPath id="SVGID_6_">
					<use xlink:href="#SVGID_5_"  overflow="visible"/>
				</clipPath>
				<path clip-path="url(#SVGID_6_)" fill="#DCDBDB" d="M14.8,14.1c0-0.5,0.4-1,0.8-1h-0.1c-0.5,0-1,0.4-1,1s0.4,1,1,1h0.1
					C15.2,15,14.8,14.6,14.8,14.1"/>
			</g>
		</g>
		<g opacity="0.3" clip-path="url(#SVGID_2_)">
			<g>
				<defs>
					<rect id="SVGID_7_" x="14.8" y="13.1" width="1" height="1.9"/>
				</defs>
				<clipPath id="SVGID_8_">
					<use xlink:href="#SVGID_7_"  overflow="visible"/>
				</clipPath>
				<path clip-path="url(#SVGID_8_)" fill="#DCDBDB" d="M15.3,14.1c0-0.5,0.3-1,0.6-1h-0.2c-0.5,0-0.8,0.4-0.8,1s0.4,1,0.8,1h0.2
					C15.5,15,15.3,14.6,15.3,14.1"/>
			</g>
		</g>
		<g opacity="0.3" clip-path="url(#SVGID_2_)">
			<g>
				<defs>
					<rect id="SVGID_9_" x="16.9" y="13.1" width="1" height="1.9"/>
				</defs>
				<clipPath id="SVGID_10_">
					<use xlink:href="#SVGID_9_"  overflow="visible"/>
				</clipPath>
				<path clip-path="url(#SVGID_10_)" fill="#DCDBDB" d="M17.9,14.1c0-0.5-0.4-1-0.8-1h-0.2c0.3,0,0.6,0.4,0.6,1s-0.3,1-0.6,1h0.2
					C17.5,15,17.9,14.6,17.9,14.1"/>
			</g>
		</g>
	</g>
</g>
<rect x="15.8" y="6.1" fill="#DCDBDB" width="1" height="7"/>
<rect x="16.2" y="6.1" fill="#989696" width="0.2" height="7"/>
<path fill="#989696" d="M16.6,14.1c0,0.5-0.1,1-0.1,1h-0.2c-0.1,0-0.1-0.4-0.1-1s0.1-1,0.1-1h0.2C16.6,13.1,16.6,13.5,16.6,14.1"/>
<path fill="#B4B3B3" d="M22.6,13.8H22h-1.2h-9h-1.2h-0.6c-2.8,0-5,2.3-5,5h1.1h2.1h16.2h2.1h1.1C27.7,16.1,25.4,13.8,22.6,13.8"/>
<g>
	<g>
		<defs>
			<rect id="SVGID_11_" x="14.8" y="13.8" width="3.1" height="5"/>
		</defs>
		<clipPath id="SVGID_12_">
			<use xlink:href="#SVGID_11_"  overflow="visible"/>
		</clipPath>
		<rect x="14.8" y="13.8" clip-path="url(#SVGID_12_)" fill="#656263" width="3.1" height="5"/>
	</g>
</g>
<path fill="#706D6E" d="M2.6,21.5v-0.7c0-1,0.8-1.9,1.9-1.9h24.1c1,0,1.9,0.8,1.9,1.9v0.7H2.6z"/>
<path fill="#B4B3B3" d="M3.7,21.5v-0.6c0-0.8,0.8-1.4,1.7-1.4h22.2c0.9,0,1.7,0.6,1.7,1.4v0.6H3.7z"/>
<g opacity="0.6">
	<g>
		<defs>
			<rect id="SVGID_13_" x="2.6" y="18.9" width="2.7" height="2.6"/>
		</defs>
		<clipPath id="SVGID_14_">
			<use xlink:href="#SVGID_13_"  overflow="visible"/>
		</clipPath>
		<path clip-path="url(#SVGID_14_)" fill="#706D6E" d="M5.4,18.9H4.5c-1,0-1.9,0.8-1.9,1.9v0.7h1v-0.7C3.6,19.7,4.4,18.9,5.4,18.9"
			/>
	</g>
</g>
<g opacity="0.6">
	<g>
		<defs>
			<rect id="SVGID_15_" x="27.7" y="18.9" width="2.7" height="2.6"/>
		</defs>
		<clipPath id="SVGID_16_">
			<use xlink:href="#SVGID_15_"  overflow="visible"/>
		</clipPath>
		<path clip-path="url(#SVGID_16_)" fill="#706D6E" d="M28.6,18.9h-0.9c0.9,0,1.7,0.8,1.7,1.9v0.7h1v-0.7
			C30.4,19.7,29.6,18.9,28.6,18.9"/>
	</g>
</g>
<g opacity="0.4">
	<g>
		<defs>
			<rect id="SVGID_17_" x="3.6" y="18.9" width="3.5" height="2.6"/>
		</defs>
		<clipPath id="SVGID_18_">
			<use xlink:href="#SVGID_17_"  overflow="visible"/>
		</clipPath>
		<path clip-path="url(#SVGID_18_)" fill="#706D6E" d="M7.1,18.9H5.4c-0.9,0-1.7,0.8-1.7,1.9v0.7h2v-0.7C5.6,19.7,6.3,18.9,7.1,18.9
			"/>
	</g>
</g>
<g opacity="0.4">
	<g>
		<defs>
			<rect id="SVGID_19_" x="25.9" y="18.9" width="3.5" height="2.6"/>
		</defs>
		<clipPath id="SVGID_20_">
			<use xlink:href="#SVGID_19_"  overflow="visible"/>
		</clipPath>
		<path clip-path="url(#SVGID_20_)" fill="#706D6E" d="M27.7,18.9h-1.7c0.8,0,1.4,0.8,1.4,1.9v0.7h2v-0.7
			C29.4,19.7,28.6,18.9,27.7,18.9"/>
	</g>
</g>
<g opacity="0.6">
	<g>
		<defs>
			<rect id="SVGID_21_" x="5" y="13.8" width="5.7" height="5"/>
		</defs>
		<clipPath id="SVGID_22_">
			<use xlink:href="#SVGID_21_"  overflow="visible"/>
		</clipPath>
		<path clip-path="url(#SVGID_22_)" fill="#706D6E" d="M10.7,13.8h-0.6c-2.8,0-5,2.3-5,5h1.1C6.1,16.1,8.2,13.8,10.7,13.8"/>
	</g>
</g>
<g opacity="0.6">
	<g>
		<defs>
			<rect id="SVGID_23_" x="22" y="13.8" width="5.7" height="5"/>
		</defs>
		<clipPath id="SVGID_24_">
			<use xlink:href="#SVGID_23_"  overflow="visible"/>
		</clipPath>
		<path clip-path="url(#SVGID_24_)" fill="#706D6E" d="M22.6,13.8H22c2.5,0,4.5,2.3,4.5,5h1.1C27.7,16.1,25.4,13.8,22.6,13.8"/>
	</g>
</g>
<g opacity="0.4">
	<g>
		<defs>
			<rect id="SVGID_25_" x="6.1" y="13.8" width="5.7" height="5"/>
		</defs>
		<clipPath id="SVGID_26_">
			<use xlink:href="#SVGID_25_"  overflow="visible"/>
		</clipPath>
		<path clip-path="url(#SVGID_26_)" fill="#706D6E" d="M11.8,13.8h-1.2c-2.5,0-4.5,2.3-4.5,5h2.1C8.2,16.1,9.8,13.8,11.8,13.8"/>
	</g>
</g>
<g opacity="0.4">
	<g>
		<defs>
			<rect id="SVGID_27_" x="20.9" y="13.8" width="5.7" height="5"/>
		</defs>
		<clipPath id="SVGID_28_">
			<use xlink:href="#SVGID_27_"  overflow="visible"/>
		</clipPath>
		<path clip-path="url(#SVGID_28_)" fill="#706D6E" d="M22,13.8h-1.2c2,0,3.6,2.3,3.6,5h2.1C26.6,16.1,24.5,13.8,22,13.8"/>
	</g>
</g>
<g>
	<g>
		<defs>
			<rect id="SVGID_29_" x="14.6" y="18.9" width="3.6" height="2.6"/>
		</defs>
		<clipPath id="SVGID_30_">
			<use xlink:href="#SVGID_29_"  overflow="visible"/>
		</clipPath>
		<rect x="14.6" y="18.9" clip-path="url(#SVGID_30_)" fill="#656263" width="3.6" height="2.6"/>
	</g>
</g>
<path fill="#231F20" d="M16.5,69.4c0,0-4.2,0-6.6,2.9c-0.1,0.1-0.6,1.1-1.7,1.1h-2c1.1,0,1.7-1,1.7-1.1c0,0,1.7-3.3,8.7-3.3"/>
<path fill="#4B4748" d="M16.5,69.4c0,0-4.6,0-7,2.9c-0.1,0.1-0.6,1.1-1.7,1.1h-2c1.1,0,1.7-1,1.7-1.1c0,0,2-3.3,9-3.3"/>
<path fill="#231F20" d="M16.5,69.4c0,0,4.2,0,6.6,2.9c0.1,0.1,0.6,1.1,1.7,1.1h2c-1.1,0-1.7-1-1.7-1.1c0,0-1.7-3.3-8.7-3.3"/>
<path fill="#4B4748" d="M16.5,69.4c0,0,4.6,0,7,2.9c0.1,0.1,0.6,1.1,1.7,1.1h2c-1.1,0-1.7-1-1.7-1.1c0,0-2-3.3-9-3.3"/>
<g opacity="0.5">
	<g>
		<defs>
			<rect id="SVGID_31_" x="9.3" y="33.3" width="1.6" height="34.6"/>
		</defs>
		<clipPath id="SVGID_32_">
			<use xlink:href="#SVGID_31_"  overflow="visible"/>
		</clipPath>
		<rect x="9.3" y="33.3" clip-path="url(#SVGID_32_)" fill="#5A5758" width="1.6" height="34.6"/>
	</g>
</g>
<g opacity="0.5">
	<g>
		<defs>
			<rect id="SVGID_33_" x="22.1" y="33.3" width="1.6" height="34.6"/>
		</defs>
		<clipPath id="SVGID_34_">
			<use xlink:href="#SVGID_33_"  overflow="visible"/>
		</clipPath>
		<rect x="22.1" y="33.3" clip-path="url(#SVGID_34_)" fill="#5A5758" width="1.6" height="34.6"/>
	</g>
</g>
<g opacity="0.3">
	<g>
		<defs>
			<rect id="SVGID_35_" x="4.4" y="21.2" width="24.3" height="47.8"/>
		</defs>
		<clipPath id="SVGID_36_">
			<use xlink:href="#SVGID_35_"  overflow="visible"/>
		</clipPath>
		<path clip-path="url(#SVGID_36_)" fill="#F2F1F2" d="M4.4,21.2v45.6c0,1.2,1,2.2,2.2,2.2h19.9c1.2,0,2.2-1,2.2-2.2V21.2H4.4z"/>
	</g>
</g>
<rect x="8" y="33.3" fill="#7B7979" width="2" height="34.6"/>
<rect x="3.7" y="28.9" fill="#918F90" width="3.8" height="4.4"/>
<rect x="25.5" y="28.9" fill="#D3D2D2" width="3.8" height="4.4"/>
<rect x="27.4" y="57" fill="#D3D2D2" width="1.9" height="4.4"/>
<rect x="7.5" y="28.9" fill="#BDBCBC" width="4.9" height="4.4"/>
<rect x="16.5" y="28.9" fill="#BDBCBC" width="9" height="4.4"/>
<rect x="12.5" y="28.9" fill="#656263" width="4.1" height="4.4"/>
<rect x="29.3" y="32.7" fill="#918F90" width="3.2" height="0.7"/>
<rect x="29.3" y="28.9" fill="#D3D2D2" width="3.2" height="0.7"/>
<rect x="29.3" y="31.8" fill="#BDBCBC" width="3.2" height="0.9"/>
<rect x="29.3" y="29.5" fill="#BDBCBC" width="3.2" height="1.6"/>
<rect x="29.3" y="31.1" fill="#656263" width="3.2" height="0.7"/>
<rect x="29.3" y="60.7" fill="#918F90" width="3.2" height="0.7"/>
<rect x="29.3" y="57" fill="#D3D2D2" width="3.2" height="0.7"/>
<rect x="29.3" y="59.9" fill="#BDBCBC" width="3.2" height="0.9"/>
<rect x="29.3" y="57.6" fill="#BDBCBC" width="3.2" height="1.6"/>
<rect x="29.3" y="59.2" fill="#656263" width="3.2" height="0.7"/>
<path fill="none" stroke="#231F20" stroke-width="4.239" stroke-miterlimit="10" d="M32.5,31.1h2.6c7.8,0,14,6.3,14,14
	c0,7.8-6.3,14-14,14h-2.6"/>
<path fill="#231F20" d="M32.5,28.7H35c1.3,0,2.4,1.1,2.4,2.4c0,1.3-1.1,2.4-2.4,2.4h-2.5V28.7z"/>
<path fill="#7B7979" d="M35,28.7h-0.4c1.3,0,2.4,1.1,2.4,2.4c0,1.3-1.1,2.4-2.4,2.4H35c1.3,0,2.4-1.1,2.4-2.4
	C37.4,29.8,36.3,28.7,35,28.7"/>
<path fill="#7B7979" d="M36,31.1c0,0.8-0.6,1.4-1.4,1.4c-0.8,0-1.4-0.6-1.4-1.4c0-0.8,0.6-1.4,1.4-1.4C35.4,29.7,36,30.3,36,31.1"/>
<path fill="#A5A3A3" d="M34.7,29.7c-0.1,0-0.1,0-0.1,0c0.7,0.1,1.2,0.7,1.2,1.4c0,0.7-0.5,1.3-1.2,1.4c0,0,0.1,0,0.1,0
	c0.8,0,1.4-0.6,1.4-1.4C36,30.3,35.4,29.7,34.7,29.7"/>
<rect x="7.5" y="32.5" fill="#BDBCBC" width="2" height="35.4"/>
<rect x="23" y="33.3" fill="#7B7979" width="2" height="34.6"/>
<rect x="23.5" y="32.5" fill="#BDBCBC" width="2" height="35.4"/>
<path fill="#7B7979" d="M8.4,73.4c-1.1,0-1.2-1.1-1.2-1.3c0-0.2,0-1,1.1-1.4s1.6-2.8,1.6-2.8H8c0,0-0.5,2.4-1.6,2.8
	c-1.1,0.4-1.1,1.3-1.1,1.4c0,0.2,0,1.3,1.2,1.3H8.4z"/>
<path fill="#BDBCBC" d="M8,73.4c-1.1,0-1.2-1.1-1.2-1.3c0-0.2,0-1,1.1-1.4c1.1-0.4,1.6-2.8,1.6-2.8h-2c0,0-0.5,2.4-1.6,2.8
	S4.7,72,4.7,72.1c0,0.2,0,1.3,1.2,1.3H8z"/>
<path fill="#7B7979" d="M24.6,73.4c1.1,0,1.2-1.1,1.2-1.3c0-0.2,0-1-1.1-1.4S23,67.9,23,67.9h2c0,0,0.5,2.4,1.6,2.8
	c1.1,0.4,1.1,1.3,1.1,1.4c0,0.2,0,1.3-1.2,1.3H24.6z"/>
<path fill="#BDBCBC" d="M25.1,73.4c1.1,0,1.2-1.1,1.2-1.3c0-0.2,0-1-1.1-1.4c-1.1-0.4-1.6-2.8-1.6-2.8h2c0,0,0.5,2.4,1.6,2.8
	s1.1,1.3,1.1,1.4c0,0.2,0,1.3-1.2,1.3H25.1z"/>
<g opacity="0.3">
	<g>
		<defs>
			<rect id="SVGID_37_" y="21.9" width="4.4" height="6.2"/>
		</defs>
		<clipPath id="SVGID_38_">
			<use xlink:href="#SVGID_37_"  overflow="visible"/>
		</clipPath>
		<path clip-path="url(#SVGID_38_)" fill="#F2F1F2" d="M4.4,21.9c0,0-3.9,2-4.2,2.7c-0.3,0.7,0,0.9,0.4,0.9c0.4,0,3.9,0.7,3.9,2.6
			V21.9z"/>
	</g>
</g>
<g opacity="0.3">
	<g>
		<defs>
			<rect id="SVGID_39_" x="0.6" y="22.2" width="3.7" height="5.7"/>
		</defs>
		<clipPath id="SVGID_40_">
			<use xlink:href="#SVGID_39_"  overflow="visible"/>
		</clipPath>
		<path clip-path="url(#SVGID_40_)" fill="#F2F1F2" d="M4.4,22.2c0,0-3.4,1.8-3.6,2.5c-0.3,0.6,0,0.8,0.3,0.8c0.3,0,3.3,0.6,3.3,2.4
			V22.2z"/>
	</g>
</g>
<path fill="#5A5758" d="M20.3,3c0,1.7-1.8,3.2-3.9,3.2c-2.2,0-3.9-1.4-3.9-3.2V2.2c0-1.7,1.8-2.2,3.9-2.2c2.2,0,3.9,0.5,3.9,2.2V3z"
	/>
<path fill="#302C2D" d="M13,3V2.2C13,0.5,14.5,0,16.4,0c-2.2,0-3.9,0.5-3.9,2.2V3c0,1.7,1.8,3.2,3.9,3.2C14.5,6.1,13,4.7,13,3"/>
<path fill="#302C2D" d="M16.4,0c1.8,0,3.3,0.5,3.3,2.2V3c0,1.7-1.5,3.2-3.3,3.2c2.2,0,3.9-1.4,3.9-3.2V2.2C20.3,0.5,18.5,0,16.4,0"
	/>
<path fill="#423E3F" d="M14.4,3V2.2c0-1.7,0.9-2.2,2-2.2C14.5,0,13,0.5,13,2.2V3c0,1.7,1.5,3.2,3.3,3.2C15.3,6.1,14.4,4.7,14.4,3"/>
<path fill="#423E3F" d="M19.7,3V2.2c0-1.7-1.5-2.2-3.3-2.2c1.1,0,2,0.5,2,2.2V3c0,1.7-0.9,3.2-2,3.2C18.2,6.1,19.7,4.7,19.7,3"/>
</svg>
