<?xml version="1.0" encoding="utf-8"?>
<!-- Generator: Adobe Illustrator 15.0.2, SVG Export Plug-In . SVG Version: 6.00 Build 0)  -->
<!DOCTYPE svg PUBLIC "-//W3C//DTD SVG 1.1//EN" "http://www.w3.org/Graphics/SVG/1.1/DTD/svg11.dtd">
<svg version="1.1" id="Layer_1" xmlns="http://www.w3.org/2000/svg" xmlns:xlink="http://www.w3.org/1999/xlink" x="0px" y="0px"
	 width="40px" height="75.7px" viewBox="0 0 40 75.7" enable-background="new 0 0 40 75.7" xml:space="preserve">
<rect x="0" fill="#F6F3EC" width="40" height="36.2"/>
<rect x="0" y="37.3" fill="#F6F3EC" width="40" height="36.2"/>
<rect x="0" y="73.5" fill="#EDE6D8" width="40" height="1.1"/>
<rect x="0" y="73.5" fill="#72583C" width="40" height="0.4"/>
<rect y="74.6" fill="#EDE6D8" width="40" height="1.1"/>
<rect y="74.6" fill="#72583C" width="40" height="0.4"/>
<path fill="#BEBFBE" d="M2.5,38.1c0,0.1-0.1,0.3-0.3,0.3c-0.1,0-0.3-0.1-0.3-0.3v-2.8c0-0.1,0.1-0.3,0.3-0.3c0.1,0,0.3,0.1,0.3,0.3
	V38.1z"/>
<path fill="#BEBFBE" d="M4.2,38.1c0,0.1-0.1,0.3-0.3,0.3c-0.1,0-0.3-0.1-0.3-0.3v-2.8c0-0.1,0.1-0.3,0.3-0.3c0.1,0,0.3,0.1,0.3,0.3
	V38.1z"/>
<path fill="#BEBFBE" d="M5.9,38.1c0,0.1-0.1,0.3-0.3,0.3s-0.3-0.1-0.3-0.3v-2.8c0-0.1,0.1-0.3,0.3-0.3s0.3,0.1,0.3,0.3V38.1z"/>
<path fill="#BEBFBE" d="M7.6,38.1c0,0.1-0.1,0.3-0.3,0.3c-0.1,0-0.3-0.1-0.3-0.3v-2.8c0-0.1,0.1-0.3,0.3-0.3c0.1,0,0.3,0.1,0.3,0.3
	V38.1z"/>
<path fill="#BEBFBE" d="M9.3,38.1c0,0.1-0.1,0.3-0.3,0.3c-0.1,0-0.3-0.1-0.3-0.3v-2.8C8.8,35.1,8.9,35,9,35c0.1,0,0.3,0.1,0.3,0.3
	V38.1z"/>
<path fill="#BEBFBE" d="M11,38.1c0,0.1-0.1,0.3-0.3,0.3c-0.1,0-0.3-0.1-0.3-0.3v-2.8c0-0.1,0.1-0.3,0.3-0.3c0.1,0,0.3,0.1,0.3,0.3
	V38.1z"/>
<path fill="#BEBFBE" d="M12.7,38.1c0,0.1-0.1,0.3-0.3,0.3s-0.3-0.1-0.3-0.3v-2.8c0-0.1,0.1-0.3,0.3-0.3s0.3,0.1,0.3,0.3V38.1z"/>
<path fill="#BEBFBE" d="M14.4,38.1c0,0.1-0.1,0.3-0.3,0.3c-0.1,0-0.3-0.1-0.3-0.3v-2.8c0-0.1,0.1-0.3,0.3-0.3c0.1,0,0.3,0.1,0.3,0.3
	V38.1z"/>
<path fill="#BEBFBE" d="M16.1,38.1c0,0.1-0.1,0.3-0.3,0.3c-0.1,0-0.3-0.1-0.3-0.3v-2.8c0-0.1,0.1-0.3,0.3-0.3c0.1,0,0.3,0.1,0.3,0.3
	V38.1z"/>
<path fill="#BEBFBE" d="M17.8,38.1c0,0.1-0.1,0.3-0.3,0.3s-0.3-0.1-0.3-0.3v-2.8c0-0.1,0.1-0.3,0.3-0.3s0.3,0.1,0.3,0.3V38.1z"/>
<path fill="#BEBFBE" d="M19.5,38.1c0,0.1-0.1,0.3-0.3,0.3c-0.1,0-0.3-0.1-0.3-0.3v-2.8c0-0.1,0.1-0.3,0.3-0.3c0.1,0,0.3,0.1,0.3,0.3
	V38.1z"/>
<path fill="#BEBFBE" d="M21.2,38.1c0,0.1-0.1,0.3-0.3,0.3c-0.1,0-0.3-0.1-0.3-0.3v-2.8c0-0.1,0.1-0.3,0.3-0.3c0.1,0,0.3,0.1,0.3,0.3
	V38.1z"/>
<path fill="#BEBFBE" d="M22.9,38.1c0,0.1-0.1,0.3-0.3,0.3c-0.1,0-0.3-0.1-0.3-0.3v-2.8c0-0.1,0.1-0.3,0.3-0.3c0.1,0,0.3,0.1,0.3,0.3
	V38.1z"/>
<path fill="#BEBFBE" d="M24.6,38.1c0,0.1-0.1,0.3-0.3,0.3s-0.3-0.1-0.3-0.3v-2.8c0-0.1,0.1-0.3,0.3-0.3s0.3,0.1,0.3,0.3V38.1z"/>
<path fill="#BEBFBE" d="M26.3,38.1c0,0.1-0.1,0.3-0.3,0.3c-0.1,0-0.3-0.1-0.3-0.3v-2.8c0-0.1,0.1-0.3,0.3-0.3c0.1,0,0.3,0.1,0.3,0.3
	V38.1z"/>
<path fill="#BEBFBE" d="M28,38.1c0,0.1-0.1,0.3-0.3,0.3c-0.1,0-0.3-0.1-0.3-0.3v-2.8c0-0.1,0.1-0.3,0.3-0.3c0.1,0,0.3,0.1,0.3,0.3
	V38.1z"/>
<path fill="#BEBFBE" d="M29.7,38.1c0,0.1-0.1,0.3-0.3,0.3c-0.1,0-0.3-0.1-0.3-0.3v-2.8c0-0.1,0.1-0.3,0.3-0.3c0.1,0,0.3,0.1,0.3,0.3
	V38.1z"/>
<path fill="#BEBFBE" d="M31.4,38.1c0,0.1-0.1,0.3-0.3,0.3s-0.3-0.1-0.3-0.3v-2.8c0-0.1,0.1-0.3,0.3-0.3s0.3,0.1,0.3,0.3V38.1z"/>
<path fill="#BEBFBE" d="M33.2,38.1c0,0.1-0.1,0.3-0.3,0.3c-0.1,0-0.3-0.1-0.3-0.3v-2.8c0-0.1,0.1-0.3,0.3-0.3c0.1,0,0.3,0.1,0.3,0.3
	V38.1z"/>
<path fill="#BEBFBE" d="M34.9,38.1c0,0.1-0.1,0.3-0.3,0.3c-0.1,0-0.3-0.1-0.3-0.3v-2.8c0-0.1,0.1-0.3,0.3-0.3c0.1,0,0.3,0.1,0.3,0.3
	V38.1z"/>
<path fill="#BEBFBE" d="M36.6,38.1c0,0.1-0.1,0.3-0.3,0.3c-0.1,0-0.3-0.1-0.3-0.3v-2.8c0-0.1,0.1-0.3,0.3-0.3c0.1,0,0.3,0.1,0.3,0.3
	V38.1z"/>
<path fill="#BEBFBE" d="M38.3,38.1c0,0.1-0.1,0.3-0.3,0.3c-0.1,0-0.3-0.1-0.3-0.3v-2.8c0-0.1,0.1-0.3,0.3-0.3c0.1,0,0.3,0.1,0.3,0.3
	V38.1z"/>
<path fill="#929493" d="M2.2,38c-0.1,0-0.3-0.1-0.3-0.2v0.3c0,0.1,0.1,0.3,0.3,0.3c0.1,0,0.3-0.1,0.3-0.3v-0.3
	C2.5,37.9,2.3,38,2.2,38"/>
<path fill="#929493" d="M2.2,35c-0.1,0-0.3,0.1-0.3,0.3v0.3c0-0.1,0.1-0.2,0.3-0.2c0.1,0,0.3,0.1,0.3,0.2v-0.3
	C2.5,35.1,2.3,35,2.2,35"/>
<path fill="#929493" d="M3.9,38c-0.1,0-0.3-0.1-0.3-0.2v0.3c0,0.1,0.1,0.3,0.3,0.3c0.1,0,0.3-0.1,0.3-0.3v-0.3
	C4.2,37.9,4.1,38,3.9,38"/>
<path fill="#929493" d="M3.9,35c-0.1,0-0.3,0.1-0.3,0.3v0.3c0-0.1,0.1-0.2,0.3-0.2c0.1,0,0.3,0.1,0.3,0.2v-0.3
	C4.2,35.1,4.1,35,3.9,35"/>
<path fill="#929493" d="M5.6,35c-0.1,0-0.3,0.1-0.3,0.3v0.3c0-0.1,0.1-0.2,0.3-0.2s0.3,0.1,0.3,0.2v-0.3C5.9,35.1,5.8,35,5.6,35"/>
<path fill="#929493" d="M5.6,38c-0.1,0-0.3-0.1-0.3-0.2v0.3c0,0.1,0.1,0.3,0.3,0.3s0.3-0.1,0.3-0.3v-0.3C5.9,37.9,5.8,38,5.6,38"/>
<path fill="#929493" d="M7.3,35c-0.1,0-0.3,0.1-0.3,0.3v0.3c0-0.1,0.1-0.2,0.3-0.2c0.1,0,0.3,0.1,0.3,0.2v-0.3
	C7.6,35.1,7.5,35,7.3,35"/>
<path fill="#929493" d="M7.3,38c-0.1,0-0.3-0.1-0.3-0.2v0.3c0,0.1,0.1,0.3,0.3,0.3c0.1,0,0.3-0.1,0.3-0.3v-0.3
	C7.6,37.9,7.5,38,7.3,38"/>
<path fill="#929493" d="M9,35c-0.1,0-0.3,0.1-0.3,0.3v0.3c0-0.1,0.1-0.2,0.3-0.2c0.1,0,0.3,0.1,0.3,0.2v-0.3C9.3,35.1,9.2,35,9,35"
	/>
<path fill="#929493" d="M9,38c-0.1,0-0.3-0.1-0.3-0.2v0.3c0,0.1,0.1,0.3,0.3,0.3c0.1,0,0.3-0.1,0.3-0.3v-0.3C9.3,37.9,9.2,38,9,38"
	/>
<path fill="#929493" d="M10.7,38c-0.1,0-0.3-0.1-0.3-0.2v0.3c0,0.1,0.1,0.3,0.3,0.3s0.3-0.1,0.3-0.3v-0.3C11,37.9,10.9,38,10.7,38"
	/>
<path fill="#929493" d="M10.7,35c-0.1,0-0.3,0.1-0.3,0.3v0.3c0-0.1,0.1-0.2,0.3-0.2s0.3,0.1,0.3,0.2v-0.3C11,35.1,10.9,35,10.7,35"
	/>
<path fill="#929493" d="M12.4,35c-0.1,0-0.3,0.1-0.3,0.3v0.3c0-0.1,0.1-0.2,0.3-0.2s0.3,0.1,0.3,0.2v-0.3C12.7,35.1,12.6,35,12.4,35
	"/>
<path fill="#929493" d="M12.4,38c-0.1,0-0.3-0.1-0.3-0.2v0.3c0,0.1,0.1,0.3,0.3,0.3s0.3-0.1,0.3-0.3v-0.3C12.7,37.9,12.6,38,12.4,38
	"/>
<path fill="#929493" d="M14.1,35c-0.1,0-0.3,0.1-0.3,0.3v0.3c0-0.1,0.1-0.2,0.3-0.2c0.1,0,0.3,0.1,0.3,0.2v-0.3
	C14.4,35.1,14.3,35,14.1,35"/>
<path fill="#929493" d="M14.1,38c-0.1,0-0.3-0.1-0.3-0.2v0.3c0,0.1,0.1,0.3,0.3,0.3c0.1,0,0.3-0.1,0.3-0.3v-0.3
	C14.4,37.9,14.3,38,14.1,38"/>
<path fill="#929493" d="M15.8,35c-0.1,0-0.3,0.1-0.3,0.3v0.3c0-0.1,0.1-0.2,0.3-0.2c0.1,0,0.3,0.1,0.3,0.2v-0.3
	C16.1,35.1,16,35,15.8,35"/>
<path fill="#929493" d="M15.8,38c-0.1,0-0.3-0.1-0.3-0.2v0.3c0,0.1,0.1,0.3,0.3,0.3c0.1,0,0.3-0.1,0.3-0.3v-0.3
	C16.1,37.9,16,38,15.8,38"/>
<path fill="#929493" d="M17.5,38c-0.1,0-0.3-0.1-0.3-0.2v0.3c0,0.1,0.1,0.3,0.3,0.3s0.3-0.1,0.3-0.3v-0.3C17.8,37.9,17.7,38,17.5,38
	"/>
<path fill="#929493" d="M17.5,35c-0.1,0-0.3,0.1-0.3,0.3v0.3c0-0.1,0.1-0.2,0.3-0.2s0.3,0.1,0.3,0.2v-0.3C17.8,35.1,17.7,35,17.5,35
	"/>
<path fill="#929493" d="M19.3,38c-0.1,0-0.3-0.1-0.3-0.2v0.3c0,0.1,0.1,0.3,0.3,0.3s0.3-0.1,0.3-0.3v-0.3C19.5,37.9,19.4,38,19.3,38
	"/>
<path fill="#929493" d="M19.3,35c-0.1,0-0.3,0.1-0.3,0.3v0.3c0-0.1,0.1-0.2,0.3-0.2s0.3,0.1,0.3,0.2v-0.3C19.5,35.1,19.4,35,19.3,35
	"/>
<path fill="#929493" d="M21,38c-0.1,0-0.3-0.1-0.3-0.2v0.3c0,0.1,0.1,0.3,0.3,0.3c0.1,0,0.3-0.1,0.3-0.3v-0.3
	C21.2,37.9,21.1,38,21,38"/>
<path fill="#929493" d="M21,35c-0.1,0-0.3,0.1-0.3,0.3v0.3c0-0.1,0.1-0.2,0.3-0.2c0.1,0,0.3,0.1,0.3,0.2v-0.3
	C21.2,35.1,21.1,35,21,35"/>
<path fill="#929493" d="M22.7,35c-0.1,0-0.3,0.1-0.3,0.3v0.3c0-0.1,0.1-0.2,0.3-0.2s0.3,0.1,0.3,0.2v-0.3C22.9,35.1,22.8,35,22.7,35
	"/>
<path fill="#929493" d="M22.7,38c-0.1,0-0.3-0.1-0.3-0.2v0.3c0,0.1,0.1,0.3,0.3,0.3s0.3-0.1,0.3-0.3v-0.3C22.9,37.9,22.8,38,22.7,38
	"/>
<path fill="#929493" d="M24.4,35c-0.1,0-0.3,0.1-0.3,0.3v0.3c0-0.1,0.1-0.2,0.3-0.2s0.3,0.1,0.3,0.2v-0.3C24.6,35.1,24.5,35,24.4,35
	"/>
<path fill="#929493" d="M24.4,38c-0.1,0-0.3-0.1-0.3-0.2v0.3c0,0.1,0.1,0.3,0.3,0.3s0.3-0.1,0.3-0.3v-0.3C24.6,37.9,24.5,38,24.4,38
	"/>
<path fill="#929493" d="M26.1,38c-0.1,0-0.3-0.1-0.3-0.2v0.3c0,0.1,0.1,0.3,0.3,0.3s0.3-0.1,0.3-0.3v-0.3C26.3,37.9,26.2,38,26.1,38
	"/>
<path fill="#929493" d="M26.1,35c-0.1,0-0.3,0.1-0.3,0.3v0.3c0-0.1,0.1-0.2,0.3-0.2s0.3,0.1,0.3,0.2v-0.3C26.3,35.1,26.2,35,26.1,35
	"/>
<path fill="#929493" d="M27.8,38c-0.1,0-0.3-0.1-0.3-0.2v0.3c0,0.1,0.1,0.3,0.3,0.3c0.1,0,0.3-0.1,0.3-0.3v-0.3
	C28,37.9,27.9,38,27.8,38"/>
<path fill="#929493" d="M27.8,35c-0.1,0-0.3,0.1-0.3,0.3v0.3c0-0.1,0.1-0.2,0.3-0.2c0.1,0,0.3,0.1,0.3,0.2v-0.3
	C28,35.1,27.9,35,27.8,35"/>
<path fill="#929493" d="M29.5,35c-0.1,0-0.3,0.1-0.3,0.3v0.3c0-0.1,0.1-0.2,0.3-0.2s0.3,0.1,0.3,0.2v-0.3C29.7,35.1,29.6,35,29.5,35
	"/>
<path fill="#929493" d="M29.5,38c-0.1,0-0.3-0.1-0.3-0.2v0.3c0,0.1,0.1,0.3,0.3,0.3s0.3-0.1,0.3-0.3v-0.3C29.7,37.9,29.6,38,29.5,38
	"/>
<path fill="#929493" d="M31.2,35c-0.1,0-0.3,0.1-0.3,0.3v0.3c0-0.1,0.1-0.2,0.3-0.2s0.3,0.1,0.3,0.2v-0.3C31.4,35.1,31.3,35,31.2,35
	"/>
<path fill="#929493" d="M31.2,38c-0.1,0-0.3-0.1-0.3-0.2v0.3c0,0.1,0.1,0.3,0.3,0.3s0.3-0.1,0.3-0.3v-0.3C31.4,37.9,31.3,38,31.2,38
	"/>
<path fill="#929493" d="M32.9,38c-0.1,0-0.3-0.1-0.3-0.2v0.3c0,0.1,0.1,0.3,0.3,0.3c0.1,0,0.3-0.1,0.3-0.3v-0.3
	C33.2,37.9,33,38,32.9,38"/>
<path fill="#929493" d="M32.9,35c-0.1,0-0.3,0.1-0.3,0.3v0.3c0-0.1,0.1-0.2,0.3-0.2c0.1,0,0.3,0.1,0.3,0.2v-0.3
	C33.2,35.1,33,35,32.9,35"/>
<path fill="#929493" d="M34.6,38c-0.1,0-0.3-0.1-0.3-0.2v0.3c0,0.1,0.1,0.3,0.3,0.3s0.3-0.1,0.3-0.3v-0.3C34.9,37.9,34.7,38,34.6,38
	"/>
<path fill="#929493" d="M34.6,35c-0.1,0-0.3,0.1-0.3,0.3v0.3c0-0.1,0.1-0.2,0.3-0.2s0.3,0.1,0.3,0.2v-0.3C34.9,35.1,34.7,35,34.6,35
	"/>
<path fill="#929493" d="M36.3,38c-0.1,0-0.3-0.1-0.3-0.2v0.3c0,0.1,0.1,0.3,0.3,0.3c0.1,0,0.3-0.1,0.3-0.3v-0.3
	C36.6,37.9,36.4,38,36.3,38"/>
<path fill="#929493" d="M36.3,35c-0.1,0-0.3,0.1-0.3,0.3v0.3c0-0.1,0.1-0.2,0.3-0.2c0.1,0,0.3,0.1,0.3,0.2v-0.3
	C36.6,35.1,36.4,35,36.3,35"/>
<path fill="#929493" d="M38,35c-0.1,0-0.3,0.1-0.3,0.3v0.3c0-0.1,0.1-0.2,0.3-0.2s0.3,0.1,0.3,0.2v-0.3C38.3,35.1,38.1,35,38,35"/>
<path fill="#929493" d="M38,38c-0.1,0-0.3-0.1-0.3-0.2v0.3c0,0.1,0.1,0.3,0.3,0.3s0.3-0.1,0.3-0.3v-0.3C38.3,37.9,38.1,38,38,38"/>
<g opacity="0.4">
	<g>
		<defs>
			<rect id="SVGID_1_" x="1.9" y="36.1" width="36.3" height="1.2"/>
		</defs>
		<clipPath id="SVGID_2_">
			<use xlink:href="#SVGID_1_"  overflow="visible"/>
		</clipPath>
		<path clip-path="url(#SVGID_2_)" fill="#BEBFBE" d="M2.5,37.2c0,0.1-0.1,0.1-0.3,0.1c-0.1,0-0.3,0-0.3-0.1v-1
			c0-0.1,0.1-0.1,0.3-0.1c0.1,0,0.3,0,0.3,0.1V37.2z"/>
		<path clip-path="url(#SVGID_2_)" fill="#BEBFBE" d="M4.2,37.2c0,0.1-0.1,0.1-0.3,0.1c-0.1,0-0.3,0-0.3-0.1v-1
			c0-0.1,0.1-0.1,0.3-0.1c0.1,0,0.3,0,0.3,0.1V37.2z"/>
		<path clip-path="url(#SVGID_2_)" fill="#BEBFBE" d="M5.9,37.2c0,0.1-0.1,0.1-0.3,0.1s-0.3,0-0.3-0.1v-1c0-0.1,0.1-0.1,0.3-0.1
			s0.3,0,0.3,0.1V37.2z"/>
		<path clip-path="url(#SVGID_2_)" fill="#BEBFBE" d="M7.6,37.2c0,0.1-0.1,0.1-0.3,0.1c-0.1,0-0.3,0-0.3-0.1v-1
			c0-0.1,0.1-0.1,0.3-0.1c0.1,0,0.3,0,0.3,0.1V37.2z"/>
		<path clip-path="url(#SVGID_2_)" fill="#BEBFBE" d="M9.3,37.2c0,0.1-0.1,0.1-0.3,0.1c-0.1,0-0.3,0-0.3-0.1v-1
			c0-0.1,0.1-0.1,0.3-0.1c0.1,0,0.3,0,0.3,0.1V37.2z"/>
		<path clip-path="url(#SVGID_2_)" fill="#BEBFBE" d="M11,37.2c0,0.1-0.1,0.1-0.3,0.1c-0.1,0-0.3,0-0.3-0.1v-1
			c0-0.1,0.1-0.1,0.3-0.1c0.1,0,0.3,0,0.3,0.1V37.2z"/>
		<path clip-path="url(#SVGID_2_)" fill="#BEBFBE" d="M12.7,37.2c0,0.1-0.1,0.1-0.3,0.1s-0.3,0-0.3-0.1v-1c0-0.1,0.1-0.1,0.3-0.1
			s0.3,0,0.3,0.1V37.2z"/>
		<path clip-path="url(#SVGID_2_)" fill="#BEBFBE" d="M14.4,37.2c0,0.1-0.1,0.1-0.3,0.1c-0.1,0-0.3,0-0.3-0.1v-1
			c0-0.1,0.1-0.1,0.3-0.1c0.1,0,0.3,0,0.3,0.1V37.2z"/>
		<path clip-path="url(#SVGID_2_)" fill="#BEBFBE" d="M16.1,37.2c0,0.1-0.1,0.1-0.3,0.1c-0.1,0-0.3,0-0.3-0.1v-1
			c0-0.1,0.1-0.1,0.3-0.1c0.1,0,0.3,0,0.3,0.1V37.2z"/>
		<path clip-path="url(#SVGID_2_)" fill="#BEBFBE" d="M17.8,37.2c0,0.1-0.1,0.1-0.3,0.1s-0.3,0-0.3-0.1v-1c0-0.1,0.1-0.1,0.3-0.1
			s0.3,0,0.3,0.1V37.2z"/>
		<path clip-path="url(#SVGID_2_)" fill="#BEBFBE" d="M19.5,37.2c0,0.1-0.1,0.1-0.3,0.1c-0.1,0-0.3,0-0.3-0.1v-1
			c0-0.1,0.1-0.1,0.3-0.1c0.1,0,0.3,0,0.3,0.1V37.2z"/>
		<path clip-path="url(#SVGID_2_)" fill="#BEBFBE" d="M21.2,37.2c0,0.1-0.1,0.1-0.3,0.1c-0.1,0-0.3,0-0.3-0.1v-1
			c0-0.1,0.1-0.1,0.3-0.1c0.1,0,0.3,0,0.3,0.1V37.2z"/>
		<path clip-path="url(#SVGID_2_)" fill="#BEBFBE" d="M22.9,37.2c0,0.1-0.1,0.1-0.3,0.1c-0.1,0-0.3,0-0.3-0.1v-1
			c0-0.1,0.1-0.1,0.3-0.1c0.1,0,0.3,0,0.3,0.1V37.2z"/>
		<path clip-path="url(#SVGID_2_)" fill="#BEBFBE" d="M24.6,37.2c0,0.1-0.1,0.1-0.3,0.1s-0.3,0-0.3-0.1v-1c0-0.1,0.1-0.1,0.3-0.1
			s0.3,0,0.3,0.1V37.2z"/>
		<path clip-path="url(#SVGID_2_)" fill="#BEBFBE" d="M26.3,37.2c0,0.1-0.1,0.1-0.3,0.1c-0.1,0-0.3,0-0.3-0.1v-1
			c0-0.1,0.1-0.1,0.3-0.1c0.1,0,0.3,0,0.3,0.1V37.2z"/>
		<path clip-path="url(#SVGID_2_)" fill="#BEBFBE" d="M28,37.2c0,0.1-0.1,0.1-0.3,0.1c-0.1,0-0.3,0-0.3-0.1v-1
			c0-0.1,0.1-0.1,0.3-0.1c0.1,0,0.3,0,0.3,0.1V37.2z"/>
		<path clip-path="url(#SVGID_2_)" fill="#BEBFBE" d="M29.7,37.2c0,0.1-0.1,0.1-0.3,0.1c-0.1,0-0.3,0-0.3-0.1v-1
			c0-0.1,0.1-0.1,0.3-0.1c0.1,0,0.3,0,0.3,0.1V37.2z"/>
		<path clip-path="url(#SVGID_2_)" fill="#BEBFBE" d="M31.4,37.2c0,0.1-0.1,0.1-0.3,0.1s-0.3,0-0.3-0.1v-1c0-0.1,0.1-0.1,0.3-0.1
			s0.3,0,0.3,0.1V37.2z"/>
		<path clip-path="url(#SVGID_2_)" fill="#BEBFBE" d="M33.2,37.2c0,0.1-0.1,0.1-0.3,0.1c-0.1,0-0.3,0-0.3-0.1v-1
			c0-0.1,0.1-0.1,0.3-0.1c0.1,0,0.3,0,0.3,0.1V37.2z"/>
		<path clip-path="url(#SVGID_2_)" fill="#BEBFBE" d="M34.9,37.2c0,0.1-0.1,0.1-0.3,0.1c-0.1,0-0.3,0-0.3-0.1v-1
			c0-0.1,0.1-0.1,0.3-0.1c0.1,0,0.3,0,0.3,0.1V37.2z"/>
		<path clip-path="url(#SVGID_2_)" fill="#BEBFBE" d="M36.6,37.2c0,0.1-0.1,0.1-0.3,0.1c-0.1,0-0.3,0-0.3-0.1v-1
			c0-0.1,0.1-0.1,0.3-0.1c0.1,0,0.3,0,0.3,0.1V37.2z"/>
		<path clip-path="url(#SVGID_2_)" fill="#BEBFBE" d="M38.3,37.2c0,0.1-0.1,0.1-0.3,0.1c-0.1,0-0.3,0-0.3-0.1v-1
			c0-0.1,0.1-0.1,0.3-0.1c0.1,0,0.3,0,0.3,0.1V37.2z"/>
	</g>
</g>
<path fill="#BEBFBE" d="M20.4,1.4c0,0.2-0.2,0.4-0.4,0.4s-0.4-0.2-0.4-0.4c0-0.2,0.2-0.4,0.4-0.4S20.4,1.2,20.4,1.4"/>
<path fill="#464A47" d="M20,1.3c0.2,0,0.3,0.1,0.4,0.3c0,0,0-0.1,0-0.1c0-0.2-0.2-0.4-0.4-0.4s-0.4,0.2-0.4,0.4c0,0,0,0.1,0,0.1
	C19.7,1.4,19.8,1.3,20,1.3"/>
<rect x="1.9" y="39.9" fill="#EEEEEE" width="36.3" height="31.7"/>
<rect x="1.8" y="39.9" fill="#A82526" width="36.3" height="0.6"/>
<g opacity="0.2">
	<g>
		<defs>
			<rect id="SVGID_3_" x="2.3" y="45.4" width="5.3" height="5.4"/>
		</defs>
		<clipPath id="SVGID_4_">
			<use xlink:href="#SVGID_3_"  overflow="visible"/>
		</clipPath>
		
			<rect x="2.4" y="45.5" clip-path="url(#SVGID_4_)" fill="none" stroke="#676A67" stroke-width="0.258" stroke-miterlimit="10" width="5" height="5.1"/>
	</g>
</g>
<g opacity="0.2">
	<g>
		<defs>
			<rect id="SVGID_5_" x="7.3" y="45.4" width="5.3" height="5.4"/>
		</defs>
		<clipPath id="SVGID_6_">
			<use xlink:href="#SVGID_5_"  overflow="visible"/>
		</clipPath>
		
			<rect x="7.4" y="45.5" clip-path="url(#SVGID_6_)" fill="none" stroke="#676A67" stroke-width="0.258" stroke-miterlimit="10" width="5" height="5.1"/>
	</g>
</g>
<rect x="12.5" y="45.5" fill="none" stroke="#676A67" stroke-width="0.258" stroke-miterlimit="10" width="5" height="5.1"/>
<rect x="17.5" y="45.5" fill="none" stroke="#676A67" stroke-width="0.258" stroke-miterlimit="10" width="5" height="5.1"/>
<rect x="22.5" y="45.5" fill="none" stroke="#676A67" stroke-width="0.258" stroke-miterlimit="10" width="5" height="5.1"/>
<rect x="27.5" y="45.5" fill="#DFE8EC" width="5" height="5.1"/>
<rect x="27.5" y="45.5" fill="none" stroke="#676A67" stroke-width="0.258" stroke-miterlimit="10" width="5" height="5.1"/>
<rect x="32.5" y="45.5" fill="#DFE8EC" width="5" height="5.1"/>
<rect x="32.5" y="45.5" fill="none" stroke="#676A67" stroke-width="0.258" stroke-miterlimit="10" width="5" height="5.1"/>
<rect x="2.4" y="50.7" fill="none" stroke="#676A67" stroke-width="0.258" stroke-miterlimit="10" width="5" height="5.1"/>
<rect x="7.4" y="50.7" fill="none" stroke="#676A67" stroke-width="0.258" stroke-miterlimit="10" width="5" height="5.1"/>
<rect x="12.5" y="50.7" fill="none" stroke="#676A67" stroke-width="0.258" stroke-miterlimit="10" width="5" height="5.1"/>
<rect x="17.5" y="50.7" fill="none" stroke="#676A67" stroke-width="0.258" stroke-miterlimit="10" width="5" height="5.1"/>
<rect x="22.5" y="50.7" fill="none" stroke="#676A67" stroke-width="0.258" stroke-miterlimit="10" width="5" height="5.1"/>
<rect x="27.5" y="50.7" fill="#DFE8EC" width="5" height="5.1"/>
<rect x="27.5" y="50.7" fill="none" stroke="#676A67" stroke-width="0.258" stroke-miterlimit="10" width="5" height="5.1"/>
<rect x="32.5" y="50.7" fill="#DFE8EC" width="5" height="5.1"/>
<rect x="32.5" y="50.7" fill="none" stroke="#676A67" stroke-width="0.258" stroke-miterlimit="10" width="5" height="5.1"/>
<rect x="2.4" y="55.8" fill="none" stroke="#676A67" stroke-width="0.258" stroke-miterlimit="10" width="5" height="5.1"/>
<rect x="7.4" y="55.8" fill="none" stroke="#676A67" stroke-width="0.258" stroke-miterlimit="10" width="5" height="5.1"/>
<rect x="12.5" y="55.8" fill="none" stroke="#676A67" stroke-width="0.258" stroke-miterlimit="10" width="5" height="5.1"/>
<rect x="17.5" y="55.8" fill="none" stroke="#676A67" stroke-width="0.258" stroke-miterlimit="10" width="5" height="5.1"/>
<rect x="22.5" y="55.8" fill="none" stroke="#676A67" stroke-width="0.258" stroke-miterlimit="10" width="5" height="5.1"/>
<rect x="27.5" y="55.8" fill="#DFE8EC" width="5" height="5.1"/>
<rect x="27.5" y="55.8" fill="none" stroke="#676A67" stroke-width="0.258" stroke-miterlimit="10" width="5" height="5.1"/>
<rect x="32.5" y="55.8" fill="#DFE8EC" width="5" height="5.1"/>
<rect x="32.5" y="55.8" fill="none" stroke="#676A67" stroke-width="0.258" stroke-miterlimit="10" width="5" height="5.1"/>
<rect x="2.4" y="60.9" fill="none" stroke="#676A67" stroke-width="0.258" stroke-miterlimit="10" width="5" height="5.1"/>
<rect x="7.4" y="60.9" fill="none" stroke="#676A67" stroke-width="0.258" stroke-miterlimit="10" width="5" height="5.1"/>
<rect x="12.5" y="60.9" fill="none" stroke="#676A67" stroke-width="0.258" stroke-miterlimit="10" width="5" height="5.1"/>
<rect x="17.5" y="60.9" fill="none" stroke="#676A67" stroke-width="0.258" stroke-miterlimit="10" width="5" height="5.1"/>
<rect x="22.5" y="60.9" fill="none" stroke="#676A67" stroke-width="0.258" stroke-miterlimit="10" width="5" height="5.1"/>
<rect x="27.5" y="60.9" fill="#DFE8EC" width="5" height="5.1"/>
<rect x="27.5" y="60.9" fill="none" stroke="#676A67" stroke-width="0.258" stroke-miterlimit="10" width="5" height="5.1"/>
<rect x="32.5" y="60.9" fill="#DFE8EC" width="5" height="5.1"/>
<rect x="32.5" y="60.9" fill="none" stroke="#676A67" stroke-width="0.258" stroke-miterlimit="10" width="5" height="5.1"/>
<rect x="2.4" y="66.1" fill="none" stroke="#676A67" stroke-width="0.258" stroke-miterlimit="10" width="5" height="5.1"/>
<rect x="7.4" y="66.1" fill="none" stroke="#676A67" stroke-width="0.258" stroke-miterlimit="10" width="5" height="5.1"/>
<g opacity="0.2">
	<g>
		<defs>
			<rect id="SVGID_7_" x="12.3" y="65.9" width="5.3" height="5.4"/>
		</defs>
		<clipPath id="SVGID_8_">
			<use xlink:href="#SVGID_7_"  overflow="visible"/>
		</clipPath>
		
			<rect x="12.5" y="66.1" clip-path="url(#SVGID_8_)" fill="none" stroke="#676A67" stroke-width="0.258" stroke-miterlimit="10" width="5" height="5.1"/>
	</g>
</g>
<g opacity="0.2">
	<g>
		<defs>
			<rect id="SVGID_9_" x="17.4" y="65.9" width="5.3" height="5.4"/>
		</defs>
		<clipPath id="SVGID_10_">
			<use xlink:href="#SVGID_9_"  overflow="visible"/>
		</clipPath>
		
			<rect x="17.5" y="66.1" clip-path="url(#SVGID_10_)" fill="none" stroke="#676A67" stroke-width="0.258" stroke-miterlimit="10" width="5" height="5.1"/>
	</g>
</g>
<g opacity="0.2">
	<g>
		<defs>
			<rect id="SVGID_11_" x="22.4" y="65.9" width="5.3" height="5.4"/>
		</defs>
		<clipPath id="SVGID_12_">
			<use xlink:href="#SVGID_11_"  overflow="visible"/>
		</clipPath>
		
			<rect x="22.5" y="66.1" clip-path="url(#SVGID_12_)" fill="none" stroke="#676A67" stroke-width="0.258" stroke-miterlimit="10" width="5" height="5.1"/>
	</g>
</g>
<g opacity="0.2">
	<g>
		<defs>
			<rect id="SVGID_13_" x="27.4" y="65.9" width="5.3" height="5.4"/>
		</defs>
		<clipPath id="SVGID_14_">
			<use xlink:href="#SVGID_13_"  overflow="visible"/>
		</clipPath>
		<rect x="27.5" y="66.1" clip-path="url(#SVGID_14_)" fill="#DFE8EC" width="5" height="5.1"/>
		
			<rect x="27.5" y="66.1" clip-path="url(#SVGID_14_)" fill="none" stroke="#676A67" stroke-width="0.258" stroke-miterlimit="10" width="5" height="5.1"/>
	</g>
</g>
<g opacity="0.2">
	<g>
		<defs>
			<rect id="SVGID_15_" x="32.4" y="65.9" width="5.3" height="5.4"/>
		</defs>
		<clipPath id="SVGID_16_">
			<use xlink:href="#SVGID_15_"  overflow="visible"/>
		</clipPath>
		<rect x="32.5" y="66.1" clip-path="url(#SVGID_16_)" fill="#DFE8EC" width="5" height="5.1"/>
		
			<rect x="32.5" y="66.1" clip-path="url(#SVGID_16_)" fill="none" stroke="#676A67" stroke-width="0.258" stroke-miterlimit="10" width="5" height="5.1"/>
	</g>
</g>
<g opacity="0.2">
	<g>
		<defs>
			<rect id="SVGID_17_" x="3.4" y="46.4" width="3" height="0.4"/>
		</defs>
		<clipPath id="SVGID_18_">
			<use xlink:href="#SVGID_17_"  overflow="visible"/>
		</clipPath>
		<rect x="3.4" y="46.4" clip-path="url(#SVGID_18_)" fill="#676A67" width="3" height="0.4"/>
	</g>
</g>
<g opacity="0.2">
	<g>
		<defs>
			<rect id="SVGID_19_" x="4.4" y="48.1" width="1.1" height="1.1"/>
		</defs>
		<clipPath id="SVGID_20_">
			<use xlink:href="#SVGID_19_"  overflow="visible"/>
		</clipPath>
		<rect x="4.4" y="48.1" clip-path="url(#SVGID_20_)" fill="#676A67" width="1.1" height="1.1"/>
	</g>
</g>
<g opacity="0.2">
	<g>
		<defs>
			<rect id="SVGID_21_" x="8.4" y="46.4" width="3" height="0.4"/>
		</defs>
		<clipPath id="SVGID_22_">
			<use xlink:href="#SVGID_21_"  overflow="visible"/>
		</clipPath>
		<rect x="8.4" y="46.4" clip-path="url(#SVGID_22_)" fill="#676A67" width="3" height="0.4"/>
	</g>
</g>
<g opacity="0.2">
	<g>
		<defs>
			<rect id="SVGID_23_" x="9.4" y="48.1" width="1.1" height="1.1"/>
		</defs>
		<clipPath id="SVGID_24_">
			<use xlink:href="#SVGID_23_"  overflow="visible"/>
		</clipPath>
		<rect x="9.4" y="48.1" clip-path="url(#SVGID_24_)" fill="#676A67" width="1.1" height="1.1"/>
	</g>
</g>
<rect x="13.4" y="46.4" fill="#676A67" width="3" height="0.4"/>
<rect x="14.4" y="48.1" fill="#676A67" width="1.1" height="1.1"/>
<rect x="18.5" y="46.4" fill="#676A67" width="3" height="0.4"/>
<rect x="19.5" y="48.1" fill="#676A67" width="1.1" height="1.1"/>
<rect x="23.5" y="46.4" fill="#676A67" width="3" height="0.4"/>
<rect x="24.5" y="48.1" fill="#676A67" width="1.1" height="1.1"/>
<rect x="28.5" y="46.4" fill="#676A67" width="3" height="0.4"/>
<rect x="29.5" y="48.1" fill="#676A67" width="1.1" height="1.1"/>
<rect x="33.5" y="46.4" fill="#676A67" width="3" height="0.4"/>
<rect x="34.5" y="48.1" fill="#676A67" width="1.1" height="1.1"/>
<rect x="3.4" y="51.6" fill="#676A67" width="3" height="0.4"/>
<rect x="4.4" y="53.4" fill="#676A67" width="1.1" height="1.1"/>
<rect x="8.4" y="51.6" fill="#676A67" width="3" height="0.4"/>
<rect x="9.4" y="53.4" fill="#676A67" width="1.1" height="1.1"/>
<rect x="13.4" y="51.6" fill="#676A67" width="3" height="0.4"/>
<rect x="14.4" y="53.4" fill="#676A67" width="1.1" height="1.1"/>
<rect x="18.5" y="51.6" fill="#676A67" width="3" height="0.4"/>
<rect x="19.5" y="53.4" fill="#676A67" width="1.1" height="1.1"/>
<rect x="23.5" y="51.6" fill="#676A67" width="3" height="0.4"/>
<rect x="24.5" y="53.4" fill="#676A67" width="1.1" height="1.1"/>
<rect x="28.5" y="51.6" fill="#676A67" width="3" height="0.4"/>
<rect x="29.5" y="53.4" fill="#676A67" width="1.1" height="1.1"/>
<rect x="33.5" y="51.6" fill="#676A67" width="3" height="0.4"/>
<rect x="34.5" y="53.4" fill="#676A67" width="1.1" height="1.1"/>
<rect x="3.4" y="56.9" fill="#676A67" width="3" height="0.4"/>
<rect x="4.4" y="58.7" fill="#676A67" width="1.1" height="1.1"/>
<rect x="8.4" y="56.9" fill="#676A67" width="3" height="0.4"/>
<rect x="9.4" y="58.7" fill="#676A67" width="1.1" height="1.1"/>
<rect x="13.4" y="56.9" fill="#676A67" width="3" height="0.4"/>
<rect x="14.4" y="58.7" fill="#676A67" width="1.1" height="1.1"/>
<rect x="18.5" y="56.9" fill="#676A67" width="3" height="0.4"/>
<rect x="19.5" y="58.7" fill="#676A67" width="1.1" height="1.1"/>
<rect x="23.5" y="56.9" fill="#676A67" width="3" height="0.4"/>
<rect x="24.5" y="58.7" fill="#676A67" width="1.1" height="1.1"/>
<rect x="28.5" y="56.9" fill="#676A67" width="3" height="0.4"/>
<rect x="29.5" y="58.7" fill="#676A67" width="1.1" height="1.1"/>
<rect x="33.5" y="56.9" fill="#676A67" width="3" height="0.4"/>
<rect x="34.5" y="58.7" fill="#676A67" width="1.1" height="1.1"/>
<rect x="3.4" y="61.9" fill="#676A67" width="3" height="0.4"/>
<rect x="4.4" y="63.7" fill="#676A67" width="1.1" height="1.1"/>
<rect x="8.4" y="61.9" fill="#676A67" width="3" height="0.4"/>
<rect x="9.4" y="63.7" fill="#676A67" width="1.1" height="1.1"/>
<rect x="13.4" y="61.9" fill="#676A67" width="3" height="0.4"/>
<rect x="14.4" y="63.7" fill="#676A67" width="1.1" height="1.1"/>
<rect x="18.5" y="61.9" fill="#676A67" width="3" height="0.4"/>
<rect x="19.5" y="63.7" fill="#676A67" width="1.1" height="1.1"/>
<rect x="23.5" y="61.9" fill="#676A67" width="3" height="0.4"/>
<rect x="24.5" y="63.7" fill="#676A67" width="1.1" height="1.1"/>
<rect x="28.5" y="61.9" fill="#676A67" width="3" height="0.4"/>
<rect x="29.5" y="63.7" fill="#676A67" width="1.1" height="1.1"/>
<rect x="33.5" y="61.9" fill="#676A67" width="3" height="0.4"/>
<rect x="34.5" y="63.7" fill="#676A67" width="1.1" height="1.1"/>
<rect x="3.4" y="67" fill="#676A67" width="3" height="0.4"/>
<rect x="4.4" y="68.7" fill="#676A67" width="1.1" height="1.1"/>
<rect x="8.4" y="67" fill="#676A67" width="3" height="0.4"/>
<rect x="9.4" y="68.7" fill="#676A67" width="1.1" height="1.1"/>
<g opacity="0.2">
	<g>
		<defs>
			<rect id="SVGID_25_" x="13.5" y="67" width="3" height="0.4"/>
		</defs>
		<clipPath id="SVGID_26_">
			<use xlink:href="#SVGID_25_"  overflow="visible"/>
		</clipPath>
		<rect x="13.4" y="67" clip-path="url(#SVGID_26_)" fill="#676A67" width="3" height="0.4"/>
	</g>
</g>
<g opacity="0.2">
	<g>
		<defs>
			<rect id="SVGID_27_" x="14.4" y="68.7" width="1.1" height="1.1"/>
		</defs>
		<clipPath id="SVGID_28_">
			<use xlink:href="#SVGID_27_"  overflow="visible"/>
		</clipPath>
		<rect x="14.4" y="68.7" clip-path="url(#SVGID_28_)" fill="#676A67" width="1.1" height="1.1"/>
	</g>
</g>
<g opacity="0.2">
	<g>
		<defs>
			<rect id="SVGID_29_" x="18.5" y="67" width="3" height="0.4"/>
		</defs>
		<clipPath id="SVGID_30_">
			<use xlink:href="#SVGID_29_"  overflow="visible"/>
		</clipPath>
		<rect x="18.5" y="67" clip-path="url(#SVGID_30_)" fill="#676A67" width="3" height="0.4"/>
	</g>
</g>
<g opacity="0.2">
	<g>
		<defs>
			<rect id="SVGID_31_" x="19.5" y="68.7" width="1.1" height="1.1"/>
		</defs>
		<clipPath id="SVGID_32_">
			<use xlink:href="#SVGID_31_"  overflow="visible"/>
		</clipPath>
		<rect x="19.5" y="68.7" clip-path="url(#SVGID_32_)" fill="#676A67" width="1.1" height="1.1"/>
	</g>
</g>
<g opacity="0.2">
	<g>
		<defs>
			<rect id="SVGID_33_" x="23.5" y="67" width="3" height="0.4"/>
		</defs>
		<clipPath id="SVGID_34_">
			<use xlink:href="#SVGID_33_"  overflow="visible"/>
		</clipPath>
		<rect x="23.5" y="67" clip-path="url(#SVGID_34_)" fill="#676A67" width="3" height="0.4"/>
	</g>
</g>
<g opacity="0.2">
	<g>
		<defs>
			<rect id="SVGID_35_" x="24.5" y="68.7" width="1.1" height="1.1"/>
		</defs>
		<clipPath id="SVGID_36_">
			<use xlink:href="#SVGID_35_"  overflow="visible"/>
		</clipPath>
		<rect x="24.5" y="68.7" clip-path="url(#SVGID_36_)" fill="#676A67" width="1.1" height="1.1"/>
	</g>
</g>
<g opacity="0.2">
	<g>
		<defs>
			<rect id="SVGID_37_" x="28.5" y="67" width="3" height="0.4"/>
		</defs>
		<clipPath id="SVGID_38_">
			<use xlink:href="#SVGID_37_"  overflow="visible"/>
		</clipPath>
		<rect x="28.5" y="67" clip-path="url(#SVGID_38_)" fill="#676A67" width="3" height="0.4"/>
	</g>
</g>
<g opacity="0.2">
	<g>
		<defs>
			<rect id="SVGID_39_" x="29.5" y="68.7" width="1.1" height="1.1"/>
		</defs>
		<clipPath id="SVGID_40_">
			<use xlink:href="#SVGID_39_"  overflow="visible"/>
		</clipPath>
		<rect x="29.5" y="68.7" clip-path="url(#SVGID_40_)" fill="#676A67" width="1.1" height="1.1"/>
	</g>
</g>
<g opacity="0.2">
	<g>
		<defs>
			<rect id="SVGID_41_" x="33.5" y="67" width="3" height="0.4"/>
		</defs>
		<clipPath id="SVGID_42_">
			<use xlink:href="#SVGID_41_"  overflow="visible"/>
		</clipPath>
		<rect x="33.5" y="67" clip-path="url(#SVGID_42_)" fill="#676A67" width="3" height="0.4"/>
	</g>
</g>
<g opacity="0.2">
	<g>
		<defs>
			<rect id="SVGID_43_" x="34.5" y="68.7" width="1.1" height="1.1"/>
		</defs>
		<clipPath id="SVGID_44_">
			<use xlink:href="#SVGID_43_"  overflow="visible"/>
		</clipPath>
		<rect x="34.5" y="68.7" clip-path="url(#SVGID_44_)" fill="#676A67" width="1.1" height="1.1"/>
	</g>
</g>
<rect x="9.4" y="41.6" fill="#676A67" width="21.1" height="2.5"/>
<rect x="1.8" y="3.1" fill="#1498C3" width="36.3" height="28.8"/>
<rect x="33.8" y="32.2" fill="#636B62" width="4.3" height="0.6"/>
<rect x="1.8" y="19.6" fill="#208BB5" width="36.3" height="12.4"/>
<path fill="#EBD467" d="M14.1,19.6c0-3.3,2.7-5.9,5.9-5.9c3.3,0,5.9,2.7,5.9,5.9"/>
<path fill="#EBD467" d="M13.9,20.5c2-0.3,4-0.4,6-0.5c2-0.1,4-0.1,6,0.1l0.1,0c0.3,0,0.4,0.2,0.4,0.5c0,0.2-0.2,0.4-0.5,0.4l-2.8,0
	c-0.9,0-1.9,0.1-2.8,0.2c-1.9,0.2-3.7,0.5-5.6,0.8l0.1-1c0.9,0.3,2,0.1,3.1,0.1c1.1,0,2.4-0.1,3.6,0.5c0.3,0.2,0.5,0.6,0.3,0.9
	c-0.1,0.2-0.2,0.3-0.3,0.3l0,0l-1.6,0.7l-0.8,0.4l-0.3,0.2c-0.1,0-0.2,0.1-0.2,0.1c0-0.1,0.1-0.1,0.1-0.3c0-0.1,0-0.3-0.1-0.3
	c-0.1-0.1-0.1-0.1-0.1-0.1c-0.1-0.1-0.1,0,0,0c0.1,0,0.2,0,0.3,0c0.3,0,0.5,0,0.8,0l1.7,0h0.1c0.3,0,0.5,0.2,0.5,0.5
	c0,0.3-0.2,0.5-0.5,0.5c-1,0.1-1.9,0.2-2.9,0.3c-0.1,0-0.2,0-0.3,0.1c0,0-0.1,0.1,0,0c0,0,0.1-0.1,0-0.2c0,0-0.1-0.1-0.1-0.1
	c0,0,0,0,0,0c0.1,0.1,0.4,0.1,0.6,0.2c0.5,0.1,1,0.2,1.4,0.2c0,0,0.1,0,0.1,0.1c0,0,0,0.1-0.1,0.1c-0.5,0-1,0.1-1.5,0.1
	c-0.3,0-0.5,0-0.8-0.1c0,0-0.1,0-0.2-0.1c0,0-0.1-0.1-0.1-0.2c0-0.1,0-0.3,0-0.3c0.2-0.2,0.2-0.2,0.3-0.2c0.1-0.1,0.3-0.1,0.4-0.2
	c1-0.3,1.9-0.5,2.9-0.7l0.1,1.1c-0.6,0.1-1.2,0.1-1.8,0.2c-0.3,0-0.6,0-0.9,0c-0.2,0-0.3,0-0.5,0c-0.1,0-0.2,0-0.5-0.2
	c-0.1-0.1-0.1-0.1-0.2-0.2c-0.1-0.1-0.2-0.3-0.1-0.4c0-0.4,0.1-0.4,0.2-0.5c0.2-0.3,0.4-0.3,0.5-0.4c0.1-0.1,0.3-0.2,0.4-0.2
	c0.3-0.1,0.5-0.3,0.8-0.4l1.6-0.7L20.8,23c-0.8-0.4-1.8-0.5-2.9-0.5c-1.1,0-2.3,0-3.4-0.4l0,0c-0.3-0.1-0.4-0.4-0.3-0.6
	c0.1-0.2,0.2-0.3,0.4-0.3c1.9-0.1,3.8-0.1,5.7-0.3c1.9-0.1,3.7-0.5,5.6-0.7l0,0.9c-2,0.2-4,0.1-6,0.1c-2-0.1-4-0.2-6-0.5
	C13.9,20.6,13.9,20.6,13.9,20.5C13.9,20.5,13.9,20.5,13.9,20.5"/>
<path fill="#89CBE1" d="M7.1,28.6c0.3-0.2,0.6-0.5,0.9-0.7c0.3-0.3,0.6-0.5,0.9-0.8L9,27l0.1,0.2c0.3,0.6,1.2,0.7,1.9,0.7
	c0.8,0,1.6-0.1,2.4-0.1c0.4,0,0.8-0.1,1.3,0c0.1,0,0.1,0,0.2,0.1c0,0,0.1,0,0.2,0.1c0.1,0.1,0.2,0.2,0.3,0.3
	c0.1,0.2,0.2,0.2,0.4,0.3c0.7,0.2,1.6,0,2.4,0.1c-0.8,0.1-1.6,0.5-2.5,0.3c-0.3,0-0.5-0.2-0.6-0.4c-0.1-0.1-0.2-0.1-0.2-0.2
	c0,0-0.1,0-0.1-0.1c0,0,0,0-0.1,0c-0.3,0-0.8,0.1-1.2,0.1c-0.8,0.1-1.6,0.2-2.5,0.1c-0.4,0-0.9-0.1-1.3-0.3c-0.4-0.2-0.8-0.5-1-0.9
	L9,27.5C8.4,27.7,7.8,28.3,7.1,28.6"/>
<path fill="#89CBE1" d="M24.3,26.1c0.7-0.1,1.3-0.3,1.9-0.5c0.3-0.1,0.8-0.1,1.1,0c0.3,0.1,0.6,0.1,0.9,0.1c1.2,0.1,2.5-0.1,3.9,0
	c-1.3,0.3-2.5,0.7-3.9,0.6c-0.3,0-0.7-0.1-1-0.2c-0.3-0.1-0.6-0.1-0.9-0.1C25.7,26.2,24.9,26.2,24.3,26.1"/>
<path fill="#89CBE1" d="M29,22.1c0.4-0.3,0.8-0.3,1.2-0.4c0.4,0,0.8,0,1.2,0.3c-0.4,0.3-0.8,0.3-1.2,0.4
	C29.8,22.4,29.4,22.4,29,22.1"/>
<path fill="#89CBE1" d="M15,24.5c-1.3-0.1-2.6,0.2-3.9,0.3c-0.7,0-1.3,0-2,0c-0.3,0-0.7-0.1-1-0.2c-0.3-0.1-0.6-0.2-0.9-0.3
	c0.3-0.1,0.7,0,1,0c0.3,0,0.6,0,1,0l2-0.1c0.7,0,1.3-0.1,2-0.1C13.7,24.1,14.4,24.2,15,24.5"/>
<path fill="#89CBE1" d="M4.5,21.6c0.3,0.1,0.6,0.1,0.9,0.1l0.9,0c0.6,0,1.3,0.1,1.9,0.3c-0.6,0.3-1.3,0.4-1.9,0.3
	c-0.3,0-0.7-0.1-1-0.2C5,22.1,4.7,21.9,4.5,21.6"/>
</svg>
