<?xml version="1.0" encoding="utf-8"?>
<!-- Generator: Adobe Illustrator 15.0.2, SVG Export Plug-In . SVG Version: 6.00 Build 0)  -->
<!DOCTYPE svg PUBLIC "-//W3C//DTD SVG 1.1//EN" "http://www.w3.org/Graphics/SVG/1.1/DTD/svg11.dtd">
<svg version="1.1" id="Layer_1" xmlns="http://www.w3.org/2000/svg" xmlns:xlink="http://www.w3.org/1999/xlink" x="0px" y="0px"
	 width="54.5px" height="32.9px" viewBox="0 0 54.5 32.9" enable-background="new 0 0 54.5 32.9" xml:space="preserve">
<path fill="#C8C7C7" d="M14.9,3.6c0,1.1-0.9,2-2,2H6.4c-1.1,0-2-0.9-2-2s0.9-2,2-2h6.5C14,1.5,14.9,2.4,14.9,3.6"/>
<path fill="#D3D2D2" d="M13.9,3.6c0,1.1-0.7,2-1.6,2H7c-0.9,0-1.6-0.9-1.6-2s0.7-2,1.6-2h5.3C13.2,1.5,13.9,2.4,13.9,3.6"/>
<path fill="#DEDDDE" d="M12.9,3.6c0,1.1-0.6,2-1.3,2h-4c-0.7,0-1.3-0.9-1.3-2s0.6-2,1.3-2h4C12.3,1.5,12.9,2.4,12.9,3.6"/>
<path fill="#E9E9E9" d="M11.9,3.6c0,1.1-0.4,2-0.9,2H8.3c-0.5,0-0.9-0.9-0.9-2s0.4-2,0.9-2H11C11.5,1.5,11.9,2.4,11.9,3.6"/>
<path fill="#F4F4F4" d="M10.9,3.6c0,1.1-0.2,2-0.5,2H8.9c-0.3,0-0.5-0.9-0.5-2s0.2-2,0.5-2h1.5C10.7,1.5,10.9,2.4,10.9,3.6"/>
<path fill="#C8C7C7" d="M52.3,29.9c0,1.7-1.3,3-3,3H3c-1.7,0-3-1.3-3-3V5.6c0-1.7,1.3-3,3-3h46.3c1.7,0,3,1.3,3,3V29.9z"/>
<rect x="0" y="10.7" fill="#444142" width="52.3" height="17.6"/>
<path fill="#2E2A2B" d="M43.1,19.5c0,6-4.9,10.9-10.9,10.9c-6,0-10.9-4.9-10.9-10.9c0-6,4.9-10.9,10.9-10.9
	C38.2,8.6,43.1,13.5,43.1,19.5"/>
<path fill="#4F4C4D" d="M40.3,19.5c0,4.5-3.7,8.2-8.2,8.2S24,24,24,19.5s3.7-8.2,8.2-8.2S40.3,15,40.3,19.5"/>
<g>
	<g>
		<defs>
			<rect id="SVGID_1_" x="23.6" y="11" width="17" height="8.5"/>
		</defs>
		<clipPath id="SVGID_2_">
			<use xlink:href="#SVGID_1_"  overflow="visible"/>
		</clipPath>
		<path clip-path="url(#SVGID_2_)" fill="#636B62" d="M32.2,11.8c4.3,0,7.7,3.5,7.7,7.7h0.8c0-4.7-3.8-8.5-8.5-8.5
			c-4.7,0-8.5,3.8-8.5,8.5h0.8C24.4,15.2,27.9,11.8,32.2,11.8"/>
	</g>
</g>
<g>
	<g>
		<defs>
			<rect id="SVGID_3_" x="23.6" y="19.5" width="17" height="8.5"/>
		</defs>
		<clipPath id="SVGID_4_">
			<use xlink:href="#SVGID_3_"  overflow="visible"/>
		</clipPath>
		<path clip-path="url(#SVGID_4_)" fill="#636B62" d="M32.2,28c4.7,0,8.5-3.8,8.5-8.5h-0.8c0,4.3-3.5,7.7-7.7,7.7
			c-4.3,0-7.7-3.5-7.7-7.7h-0.8C23.6,24.2,27.5,28,32.2,28"/>
	</g>
</g>
<path fill="#252A26" d="M37.4,19.5c0,2.9-2.3,5.2-5.2,5.2s-5.2-2.3-5.2-5.2c0-2.9,2.3-5.2,5.2-5.2S37.4,16.6,37.4,19.5"/>
<path fill="#231F20" d="M35.6,19.5c0,1.9-1.5,3.4-3.4,3.4c-1.9,0-3.4-1.5-3.4-3.4c0-1.9,1.5-3.4,3.4-3.4
	C34.1,16.1,35.6,17.6,35.6,19.5"/>
<g>
	<g>
		<defs>
			<rect id="SVGID_5_" x="28.5" y="19.5" width="7.3" height="3.6"/>
		</defs>
		<clipPath id="SVGID_6_">
			<use xlink:href="#SVGID_5_"  overflow="visible"/>
		</clipPath>
		<path clip-path="url(#SVGID_6_)" fill="#636B62" d="M32.2,22.8c-1.8,0-3.3-1.5-3.3-3.3h-0.3c0,2,1.6,3.6,3.6,3.6
			c2,0,3.6-1.6,3.6-3.6h-0.3C35.5,21.3,34,22.8,32.2,22.8"/>
	</g>
</g>
<g>
	<g>
		<defs>
			<rect id="SVGID_7_" x="28.5" y="15.9" width="7.3" height="3.6"/>
		</defs>
		<clipPath id="SVGID_8_">
			<use xlink:href="#SVGID_7_"  overflow="visible"/>
		</clipPath>
		<path clip-path="url(#SVGID_8_)" fill="#636B62" d="M32.2,15.9c-2,0-3.6,1.6-3.6,3.6h0.3c0-1.8,1.5-3.3,3.3-3.3
			c1.8,0,3.3,1.5,3.3,3.3h0.3C35.8,17.5,34.2,15.9,32.2,15.9"/>
	</g>
</g>
<path fill="#B9E0ED" d="M33.6,19.5c0,0.8-0.7,1.5-1.5,1.5s-1.5-0.7-1.5-1.5c0-0.8,0.7-1.5,1.5-1.5S33.6,18.7,33.6,19.5"/>
<path fill="#98B5C3" d="M32.8,19.5c0,0.4-0.3,0.7-0.7,0.7s-0.7-0.3-0.7-0.7s0.3-0.7,0.7-0.7S32.8,19.1,32.8,19.5"/>
<path fill="#FFFFFF" d="M32.2,19c0,0.3-0.2,0.5-0.5,0.5s-0.5-0.2-0.5-0.5s0.2-0.5,0.5-0.5S32.2,18.7,32.2,19"/>
<path fill="#B52126" d="M11.3,10.7c0,1.4-1.1,2.5-2.5,2.5c-1.4,0-2.5-1.1-2.5-2.5c0-1.4,1.1-2.5,2.5-2.5
	C10.2,8.2,11.3,9.3,11.3,10.7"/>
<path fill="#231F20" d="M24,7.9c0,0.7-0.5,1.2-1.2,1.2h-5.9c-0.7,0-1.2-0.5-1.2-1.2s0.5-1.2,1.2-1.2h5.9C23.5,6.7,24,7.2,24,7.9"/>
<g>
	<g>
		<defs>
			<rect id="SVGID_9_" x="0.3" y="3.7" width="51.9" height="29.2"/>
		</defs>
		<clipPath id="SVGID_10_">
			<use xlink:href="#SVGID_9_"  overflow="visible"/>
		</clipPath>
		<path clip-path="url(#SVGID_10_)" fill="#C8C7C7" d="M3,31.9h46.3c1.1,0,2-0.9,2-2V5.6c0-0.5-0.2-1-0.5-1.3l0.9-0.5
			c0.4,0.5,0.6,1.1,0.6,1.8v24.4c0,1.7-1.3,3-3,3H3c-1.2,0-2.2-0.7-2.7-1.7l0.9-0.5C1.5,31.5,2.2,31.9,3,31.9"/>
	</g>
</g>
<g opacity="0.7">
	<g>
		<defs>
			<rect id="SVGID_11_" x="0" y="2.6" width="51.6" height="28.7"/>
		</defs>
		<clipPath id="SVGID_12_">
			<use xlink:href="#SVGID_11_"  overflow="visible"/>
		</clipPath>
		<path clip-path="url(#SVGID_12_)" fill="#C8C7C7" d="M0,5.6c0-1.7,1.3-3,3-3h46.3c1,0,1.8,0.5,2.4,1.2l-0.9,0.5
			c-0.4-0.4-0.9-0.7-1.5-0.7H3c-1.1,0-2,0.9-2,2v24.4c0,0.3,0.1,0.6,0.2,0.8l-0.9,0.5C0.1,30.8,0,30.4,0,29.9V5.6z"/>
	</g>
</g>
<path fill="none" stroke="#E0E0E0" stroke-miterlimit="10" d="M51.9,9.6h0.7c0.8,0,1.4,0.6,1.4,1.4c0,0.8-0.6,1.4-1.4,1.4h-0.7"/>
<path fill="none" stroke="#E0E0E0" stroke-miterlimit="10" d="M26.3,2.6V1.9c0-0.8,0.6-1.4,1.4-1.4"/>
<path fill="none" stroke="#E0E0E0" stroke-miterlimit="10" d="M37.3,2.6V1.9c0-0.8-0.6-1.4-1.4-1.4"/>
</svg>
