<?xml version="1.0" encoding="utf-8"?>
<!-- Generator: Adobe Illustrator 15.0.2, SVG Export Plug-In . SVG Version: 6.00 Build 0)  -->
<!DOCTYPE svg PUBLIC "-//W3C//DTD SVG 1.1//EN" "http://www.w3.org/Graphics/SVG/1.1/DTD/svg11.dtd">
<svg version="1.1" id="Layer_1" xmlns="http://www.w3.org/2000/svg" xmlns:xlink="http://www.w3.org/1999/xlink" x="0px" y="0px"
	 width="72.6px" height="45.4px" viewBox="0 0 72.6 45.4" enable-background="new 0 0 72.6 45.4" xml:space="preserve">
<path fill="#231F20" d="M26.4,42.2c-0.8,0-1.4-0.5-1.6-1.2c0,0.2-0.1,0.3-0.1,0.5c0,0.9,0.8,1.7,1.7,1.7c0.9,0,1.7-0.8,1.7-1.7
	c0-0.2,0-0.3-0.1-0.5C27.8,41.7,27.2,42.2,26.4,42.2"/>
<path fill="#231F20" d="M19.1,43.2c-0.8,0-1.4-0.5-1.6-1.2c0,0.2-0.1,0.3-0.1,0.5c0,0.9,0.8,1.7,1.7,1.7c0.9,0,1.7-0.8,1.7-1.7
	c0-0.2,0-0.3-0.1-0.5C20.5,42.7,19.9,43.2,19.1,43.2"/>
<path fill="#231F20" d="M46.5,42.2c-0.8,0-1.4-0.5-1.6-1.2c0,0.2-0.1,0.3-0.1,0.5c0,0.9,0.8,1.7,1.7,1.7c0.9,0,1.7-0.8,1.7-1.7
	c0-0.2,0-0.3-0.1-0.5C47.9,41.7,47.2,42.2,46.5,42.2"/>
<path fill="#231F20" d="M53.6,43.2c-0.8,0-1.4-0.5-1.6-1.2c0,0.2-0.1,0.3-0.1,0.5c0,0.9,0.8,1.7,1.7,1.7c0.9,0,1.7-0.8,1.7-1.7
	c0-0.2,0-0.3-0.1-0.5C55,42.7,54.3,43.2,53.6,43.2"/>
<path fill="#AB6865" d="M20.9,12.8c3.8,0,6.9,3.1,6.9,6.9s-3.1,6.9-6.9,6.9S14,23.6,14,19.7S17.1,12.8,20.9,12.8 M20.9,5.3
	c-8,0-14.4,6.5-14.4,14.4c0,8,6.5,14.4,14.4,14.4c8,0,14.4-6.5,14.4-14.4C35.4,11.8,28.9,5.3,20.9,5.3"/>
<path fill="#EFEDDF" d="M4.2,39.8c0,1-0.8,1.8-1.8,1.8H1.8c-1,0-1.8-0.8-1.8-1.8v-9.5c0-1,0.8-1.8,1.8-1.8h0.6c1,0,1.8,0.8,1.8,1.8
	V39.8z"/>
<path fill="#D3C5A0" d="M72.6,39.8c0,1-0.8,1.8-1.8,1.8h-0.6c-1,0-1.8-0.8-1.8-1.8v-9.5c0-1,0.8-1.8,1.8-1.8h0.6
	c1,0,1.8,0.8,1.8,1.8V39.8z"/>
<path fill="#E8E5D1" d="M70.1,0H2.4c-1,0-1.8,0.8-1.8,1.8v41.4c0,1,0.8,1.8,1.8,1.8h67.8c1,0,1.8-0.8,1.8-1.8V1.8
	C71.9,0.8,71.1,0,70.1,0 M19.1,44.2c-0.9,0-1.7-0.8-1.7-1.7s0.8-1.7,1.7-1.7s1.7,0.8,1.7,1.7S20,44.2,19.1,44.2 M20.9,23.5
	c-2.1,0-3.7-1.7-3.7-3.7s1.7-3.7,3.7-3.7s3.7,1.7,3.7,3.7S23,23.5,20.9,23.5 M26.4,43.2c-0.9,0-1.7-0.8-1.7-1.7s0.8-1.7,1.7-1.7
	c0.9,0,1.7,0.8,1.7,1.7S27.3,43.2,26.4,43.2 M28,25c-0.4,0-0.8-0.3-0.8-0.8v-8.5v-0.2v0c0-0.4,0.3-0.8,0.8-0.8h16.5
	c0.4,0,0.8,0.3,0.8,0.8v0v0.2v8.5c0,0.4-0.3,0.8-0.8,0.8H28z M46.5,43.2c-0.9,0-1.7-0.8-1.7-1.7s0.8-1.7,1.7-1.7
	c0.9,0,1.7,0.8,1.7,1.7S47.4,43.2,46.5,43.2 M47.5,19.7c0-2.1,1.7-3.7,3.7-3.7s3.7,1.7,3.7,3.7s-1.7,3.7-3.7,3.7
	S47.5,21.8,47.5,19.7 M53.6,44.2c-0.9,0-1.7-0.8-1.7-1.7s0.8-1.7,1.7-1.7c0.9,0,1.7,0.8,1.7,1.7S54.5,44.2,53.6,44.2"/>
<path fill="#EDEADA" d="M61.1,44.9L59,34.5c0,0-0.5-0.9-1.9-0.9H36.2H15.4c-1.5,0-1.9,0.9-1.9,0.9l-2.1,10.4
	c-0.1,0.4,0.6,0.5,0.6,0.5h24.3h24.3C60.5,45.4,61.1,45.3,61.1,44.9 M19.1,44.2c-0.9,0-1.7-0.8-1.7-1.7s0.8-1.7,1.7-1.7
	s1.7,0.8,1.7,1.7S20,44.2,19.1,44.2 M26.4,43.2c-0.9,0-1.7-0.8-1.7-1.7s0.8-1.7,1.7-1.7c0.9,0,1.7,0.8,1.7,1.7S27.3,43.2,26.4,43.2
	 M46.5,43.2c-0.9,0-1.7-0.8-1.7-1.7s0.8-1.7,1.7-1.7c0.9,0,1.7,0.8,1.7,1.7S47.4,43.2,46.5,43.2 M53.6,44.2c-0.9,0-1.7-0.8-1.7-1.7
	s0.8-1.7,1.7-1.7c0.9,0,1.7,0.8,1.7,1.7S54.5,44.2,53.6,44.2"/>
<path fill="#AB6865" d="M51.3,12.8c3.8,0,6.9,3.1,6.9,6.9s-3.1,6.9-6.9,6.9c-3.8,0-6.9-3.1-6.9-6.9S47.4,12.8,51.3,12.8 M51.3,8.3
	c-6.3,0-11.4,5.1-11.4,11.4s5.1,11.4,11.4,11.4S62.7,26,62.7,19.7S57.6,8.3,51.3,8.3"/>
<path fill="#BDBCBC" d="M2.6,41.4c0.8,0,1.5,0.7,1.5,1.5c0,0.8-0.7,1.5-1.5,1.5S1,43.8,1,42.9C1,42.1,1.7,41.4,2.6,41.4"/>
<path fill="#393536" d="M2.6,41.4c0,0,0,0,0.1,0c0.1,0,0.2,0,0.3,0c0.1,0,0.3,0.1,0.4,0.2c0.2,0.1,0.3,0.2,0.4,0.4
	c0.1,0.2,0.2,0.4,0.3,0.7c0,0.3,0,0.5-0.1,0.8c-0.1,0.3-0.3,0.5-0.6,0.7c-0.3,0.2-0.6,0.3-0.9,0.3c-0.3,0-0.6-0.1-0.9-0.3
	c-0.2-0.2-0.4-0.4-0.6-0.7C1,43.3,1,43,1,42.8c0-0.3,0.1-0.5,0.3-0.7c0.1-0.2,0.3-0.3,0.4-0.4c0.2-0.1,0.3-0.2,0.4-0.2
	c0.1,0,0.2,0,0.3,0C2.5,41.4,2.6,41.4,2.6,41.4 M2.6,41.4c0,0,0,0-0.1,0c-0.1,0-0.2,0-0.3,0.1c-0.1,0-0.3,0.1-0.4,0.2
	c-0.1,0.1-0.3,0.2-0.4,0.4c-0.1,0.2-0.2,0.4-0.2,0.7c0,0.3,0,0.5,0.1,0.8C1.4,44,2,44.4,2.6,44.4c0.6,0,1.1-0.4,1.3-0.9
	C4,43.3,4.1,43,4,42.8c0-0.3-0.1-0.5-0.2-0.7c-0.1-0.2-0.3-0.3-0.4-0.4c-0.2-0.1-0.3-0.2-0.4-0.2c-0.1-0.1-0.2,0-0.3-0.1
	C2.6,41.4,2.6,41.4,2.6,41.4"/>
<g opacity="0.5">
	<g>
		<defs>
			<rect id="SVGID_1_" x="1" y="41.4" width="3" height="3.1"/>
		</defs>
		<clipPath id="SVGID_2_">
			<use xlink:href="#SVGID_1_"  overflow="visible"/>
		</clipPath>
		<path clip-path="url(#SVGID_2_)" fill="#BDBCBC" d="M2.6,41.4c-0.8,0-1.5,0.7-1.5,1.5c0,0.8,0.7,1.5,1.5,1.5s1.5-0.7,1.5-1.5
			C4.1,42.1,3.4,41.4,2.6,41.4 M2.6,44.2c-0.7,0-1.3-0.6-1.3-1.3s0.6-1.3,1.3-1.3c0.7,0,1.3,0.6,1.3,1.3S3.3,44.2,2.6,44.2"/>
	</g>
</g>
<path fill="#E9E9E9" d="M2.6,42.1c0.6,0,1.1,0.4,1.2,1c0-0.1,0-0.1,0-0.2c0-0.7-0.6-1.3-1.3-1.3s-1.3,0.6-1.3,1.3c0,0.1,0,0.2,0,0.2
	C1.4,42.5,2,42.1,2.6,42.1"/>
<path fill="#393536" d="M1.6,42.6c0,0,0.1,0,0.3,0c0.1,0,0.2,0,0.3,0c0.1,0,0.2,0.1,0.4,0.1c0.1,0.1,0.2,0.1,0.3,0.2
	c0.1,0,0.2,0.1,0.3,0.2c0.2,0.1,0.3,0.2,0.3,0.2s-0.1,0-0.3,0c-0.1,0-0.2,0-0.3,0s-0.2-0.1-0.4-0.1c-0.1-0.1-0.2-0.1-0.3-0.2
	c-0.1,0-0.2-0.1-0.3-0.2C1.7,42.7,1.6,42.6,1.6,42.6"/>
<path fill="#393536" d="M2.2,43.9c0,0,0-0.1,0-0.3c0-0.1,0-0.2,0-0.3s0.1-0.2,0.1-0.4c0.1-0.1,0.1-0.2,0.2-0.3
	c0-0.1,0.1-0.2,0.2-0.3C2.8,42.1,2.9,42,2.9,42s0,0.1,0,0.3c0,0.1,0,0.2,0,0.3c0,0.1-0.1,0.2-0.1,0.4c-0.1,0.1-0.1,0.2-0.2,0.3
	c0,0.1-0.1,0.2-0.2,0.3C2.3,43.8,2.2,43.9,2.2,43.9"/>
<path fill="#BDBCBC" d="M69.9,41.4c0.8,0,1.5,0.7,1.5,1.5c0,0.8-0.7,1.5-1.5,1.5c-0.8,0-1.5-0.7-1.5-1.5
	C68.4,42.1,69.1,41.4,69.9,41.4"/>
<path fill="#393536" d="M69.9,41.4c0,0,0,0,0.1,0c0.1,0,0.2,0,0.3,0c0.1,0,0.3,0.1,0.4,0.2c0.2,0.1,0.3,0.2,0.4,0.4
	c0.1,0.2,0.2,0.4,0.3,0.7c0,0.3,0,0.5-0.1,0.8c-0.1,0.3-0.3,0.5-0.6,0.7c-0.3,0.2-0.6,0.3-0.9,0.3c-0.3,0-0.6-0.1-0.9-0.3
	c-0.2-0.2-0.4-0.4-0.6-0.7c-0.1-0.3-0.2-0.6-0.1-0.8c0-0.3,0.1-0.5,0.3-0.7c0.1-0.2,0.3-0.3,0.4-0.4c0.2-0.1,0.3-0.2,0.4-0.2
	c0.1,0,0.2,0,0.3,0C69.9,41.4,69.9,41.4,69.9,41.4 M69.9,41.4c0,0,0,0-0.1,0c-0.1,0-0.2,0-0.3,0.1c-0.1,0-0.3,0.1-0.4,0.2
	c-0.1,0.1-0.3,0.2-0.4,0.4c-0.1,0.2-0.2,0.4-0.2,0.7c0,0.3,0,0.5,0.1,0.8c0.2,0.5,0.8,0.9,1.3,0.9c0.6,0,1.1-0.4,1.3-0.9
	c0.1-0.2,0.2-0.5,0.1-0.8c0-0.3-0.1-0.5-0.2-0.7c-0.1-0.2-0.3-0.3-0.4-0.4c-0.2-0.1-0.3-0.2-0.4-0.2c-0.1-0.1-0.2,0-0.3-0.1
	C70,41.4,69.9,41.4,69.9,41.4"/>
<g opacity="0.5">
	<g>
		<defs>
			<rect id="SVGID_3_" x="68.4" y="41.4" width="3" height="3.1"/>
		</defs>
		<clipPath id="SVGID_4_">
			<use xlink:href="#SVGID_3_"  overflow="visible"/>
		</clipPath>
		<path clip-path="url(#SVGID_4_)" fill="#BDBCBC" d="M69.9,41.4c-0.8,0-1.5,0.7-1.5,1.5c0,0.8,0.7,1.5,1.5,1.5
			c0.8,0,1.5-0.7,1.5-1.5C71.5,42.1,70.8,41.4,69.9,41.4 M69.9,44.2c-0.7,0-1.3-0.6-1.3-1.3s0.6-1.3,1.3-1.3c0.7,0,1.3,0.6,1.3,1.3
			S70.7,44.2,69.9,44.2"/>
	</g>
</g>
<path fill="#E9E9E9" d="M69.9,42.1c0.6,0,1.1,0.4,1.2,1c0-0.1,0-0.1,0-0.2c0-0.7-0.6-1.3-1.3-1.3c-0.7,0-1.3,0.6-1.3,1.3
	c0,0.1,0,0.2,0,0.2C68.8,42.5,69.3,42.1,69.9,42.1"/>
<path fill="#393536" d="M69,42.6c0,0,0.1,0,0.3,0c0.1,0,0.2,0,0.3,0c0.1,0,0.2,0.1,0.4,0.1c0.1,0.1,0.2,0.1,0.3,0.2
	c0.1,0,0.2,0.1,0.3,0.2c0.2,0.1,0.3,0.2,0.3,0.2s-0.1,0-0.3,0c-0.1,0-0.2,0-0.3,0c-0.1,0-0.2-0.1-0.4-0.1c-0.1-0.1-0.2-0.1-0.3-0.2
	c-0.1,0-0.2-0.1-0.3-0.2C69.1,42.7,69,42.6,69,42.6"/>
<path fill="#393536" d="M69.6,43.9c0,0,0-0.1,0-0.3c0-0.1,0-0.2,0-0.3c0-0.1,0.1-0.2,0.1-0.4c0.1-0.1,0.1-0.2,0.2-0.3
	c0-0.1,0.1-0.2,0.2-0.3c0.1-0.2,0.2-0.3,0.2-0.3s0,0.1,0,0.3c0,0.1,0,0.2,0,0.3c0,0.1-0.1,0.2-0.1,0.4c-0.1,0.1-0.1,0.2-0.2,0.3
	c-0.1,0.1-0.1,0.2-0.2,0.3C69.7,43.8,69.6,43.9,69.6,43.9"/>
<g>
	<g>
		<defs>
			<rect id="SVGID_5_" x="11.4" y="34.1" width="4" height="11.3"/>
		</defs>
		<clipPath id="SVGID_6_">
			<use xlink:href="#SVGID_5_"  overflow="visible"/>
		</clipPath>
		<path clip-path="url(#SVGID_6_)" fill="#EDEADA" d="M13.5,34.5l-2.1,10.4c-0.1,0.4,0.6,0.5,0.6,0.5h1c0,0-0.6-0.1-0.5-0.5l2-9.4
			c0,0,0.3-0.5,1-0.7l-1.5-0.8C13.6,34.3,13.5,34.5,13.5,34.5"/>
	</g>
</g>
<g>
	<g>
		<defs>
			<rect id="SVGID_7_" x="57.1" y="34.1" width="4" height="11.3"/>
		</defs>
		<clipPath id="SVGID_8_">
			<use xlink:href="#SVGID_7_"  overflow="visible"/>
		</clipPath>
		<path clip-path="url(#SVGID_8_)" fill="#EDEADA" d="M61.1,44.9L59,34.5c0,0-0.1-0.2-0.4-0.4l-1.5,0.8c0.8,0.2,1,0.7,1,0.7l2,9.4
			c0.1,0.4-0.5,0.5-0.5,0.5h1C60.5,45.4,61.1,45.3,61.1,44.9"/>
	</g>
</g>
<g>
	<g>
		<defs>
			<rect id="SVGID_9_" x="13.9" y="34.1" width="44.7" height="0.8"/>
		</defs>
		<clipPath id="SVGID_10_">
			<use xlink:href="#SVGID_9_"  overflow="visible"/>
		</clipPath>
		<path clip-path="url(#SVGID_10_)" fill="#EDEADA" d="M13.9,34.1l1.5,0.7l0,0c0.4-0.1,0.9-0.1,1.3-0.1l1.3,0l2.6,0l5.2,0l10.4,0
			l10.4,0l5.2,0l2.6,0l1.3,0c0.4,0,0.9,0,1.3,0.1l0,0l1.5-0.7l-1.5,0.8l0,0l0,0c-0.8-0.2-1.7,0-2.6-0.1l-2.6,0l-5.2,0l-10.4,0
			l-10.4,0l-5.2,0l-2.6,0c-0.9,0-1.7-0.1-2.6,0.1l0,0l0,0L13.9,34.1z"/>
	</g>
</g>
<path fill="#EFEDDF" d="M66.7,3.6H5.8C4.8,3.6,4,4.4,4,5.4v25.3c0,1,0.8,1.8,1.8,1.8h60.8c1,0,1.8-0.8,1.8-1.8V5.4
	C68.5,4.4,67.7,3.6,66.7,3.6 M21.1,23.5c-2.1,0-3.7-1.7-3.7-3.7S19,16,21.1,16c2.1,0,3.7,1.7,3.7,3.7S23.1,23.5,21.1,23.5
	 M45.2,15.5v0.2v8.5c0,0.4-0.3,0.8-0.8,0.8H28c-0.4,0-0.8-0.3-0.8-0.8v-8.5v-0.2v0c0-0.4,0.3-0.8,0.8-0.8h16.5
	C44.9,14.8,45.2,15.1,45.2,15.5L45.2,15.5z M51.4,23.5c-2.1,0-3.7-1.7-3.7-3.7s1.7-3.7,3.7-3.7s3.7,1.7,3.7,3.7S53.4,23.5,51.4,23.5
	"/>
<g>
	<g>
		<defs>
			<rect id="SVGID_11_" x="4" y="3.6" width="64.4" height="2.2"/>
		</defs>
		<clipPath id="SVGID_12_">
			<use xlink:href="#SVGID_11_"  overflow="visible"/>
		</clipPath>
		<path clip-path="url(#SVGID_12_)" fill="#EFEDDF" d="M66.7,3.6H5.8C4.8,3.6,4,4.4,4,5.4v0.3C4,4.8,4.8,4,5.8,4h60.8
			c1,0,1.8,0.8,1.8,1.8V5.4C68.5,4.4,67.7,3.6,66.7,3.6"/>
	</g>
</g>
<g>
	<g>
		<defs>
			<rect id="SVGID_13_" x="4" y="30.4" width="64.4" height="2.2"/>
		</defs>
		<clipPath id="SVGID_14_">
			<use xlink:href="#SVGID_13_"  overflow="visible"/>
		</clipPath>
		<path clip-path="url(#SVGID_14_)" fill="#EFEDDF" d="M66.7,32.1H5.8c-1,0-1.8-0.8-1.8-1.8v0.4c0,1,0.8,1.8,1.8,1.8h60.8
			c1,0,1.8-0.8,1.8-1.8v-0.4C68.5,31.3,67.7,32.1,66.7,32.1"/>
	</g>
</g>
<path fill="#D3D2D2" d="M24.1,19.7c0,0.4-0.1,0.8-0.2,1.2l-0.7-0.4l-0.5,0.8l0.7,0.4c-0.5,0.6-1.2,1-2,1.1V22h-0.9v0.9
	c-0.8-0.1-1.5-0.5-2-1.1l0.7-0.4l-0.5-0.8L18,20.9c-0.1-0.4-0.2-0.7-0.2-1.2c0-0.2,0-0.4,0.1-0.6c-0.2-0.1-0.4-0.2-0.6-0.3
	c-0.1,0.3-0.1,0.6-0.1,0.9c0,2.1,1.7,3.7,3.7,3.7c2.1,0,3.7-1.7,3.7-3.7c0-0.3,0-0.6-0.1-0.9c-0.2,0.1-0.4,0.2-0.6,0.3
	C24.1,19.3,24.1,19.5,24.1,19.7"/>
<path fill="#918F90" d="M20.9,16c-1.8,0-3.2,1.2-3.6,2.9c0.2,0.1,0.4,0.2,0.6,0.3c0-0.2,0.1-0.4,0.2-0.6l0.7,0.4l0.5-0.8l-0.7-0.4
	c0.5-0.6,1.2-1,2-1.1v0.9h0.9v-0.9c0.8,0.1,1.5,0.5,2,1.1l-0.7,0.4l0.5,0.8l0.7-0.4c0.1,0.2,0.1,0.4,0.2,0.6
	c0.2-0.1,0.4-0.2,0.6-0.3C24.2,17.2,22.7,16,20.9,16"/>
<path fill="#D3D2D2" d="M54.4,19.7c0,0.4-0.1,0.8-0.2,1.2l-0.7-0.4L53,21.2l0.7,0.4c-0.5,0.6-1.2,1-2,1.1l0-0.9h-0.9v0.9
	c-0.8-0.1-1.5-0.5-2-1.1l0.7-0.4l-0.5-0.8l-0.7,0.4c-0.1-0.4-0.2-0.7-0.2-1.2c0-0.2,0-0.4,0.1-0.6c-0.2-0.1-0.4-0.2-0.6-0.3
	c-0.1,0.3-0.1,0.6-0.1,0.9c0,2.1,1.7,3.7,3.7,3.7s3.7-1.7,3.7-3.7c0-0.3,0-0.6-0.1-0.9c-0.2,0.1-0.4,0.2-0.6,0.3
	C54.4,19.3,54.4,19.5,54.4,19.7"/>
<path fill="#918F90" d="M51.3,16c-1.8,0-3.2,1.2-3.6,2.9c0.2,0.1,0.4,0.2,0.6,0.3c0-0.2,0.1-0.4,0.2-0.6l0.7,0.4l0.5-0.8l-0.7-0.4
	c0.5-0.6,1.2-1,2-1.1v0.9h0.9v-0.9c0.8,0.1,1.5,0.5,2,1.1L53,18.2l0.5,0.8l0.7-0.4c0.1,0.2,0.1,0.4,0.2,0.6c0.2-0.1,0.4-0.2,0.6-0.3
	C54.5,17.2,53,16,51.3,16"/>
<path fill="#BDBCBC" d="M2.5,0.5c0.8,0,1.5,0.7,1.5,1.5S3.4,3.6,2.5,3.6C1.7,3.6,1,2.9,1,2.1S1.7,0.5,2.5,0.5"/>
<path fill="#393536" d="M2.5,0.5c0,0,0,0,0.1,0c0.1,0,0.2,0,0.3,0c0.1,0,0.3,0.1,0.4,0.2C3.5,0.9,3.7,1,3.8,1.2
	c0.1,0.2,0.2,0.4,0.3,0.7c0,0.3,0,0.5-0.1,0.8c-0.2,0.5-0.8,1-1.4,1c-0.3,0-0.6-0.1-0.9-0.3C1.4,3.2,1.2,3,1.1,2.7
	C1,2.4,0.9,2.2,1,1.9c0-0.3,0.1-0.5,0.3-0.7C1.4,1,1.5,0.9,1.7,0.8C1.8,0.7,2,0.6,2.1,0.6c0.1,0,0.2,0,0.3,0
	C2.5,0.6,2.5,0.5,2.5,0.5 M2.5,0.5c0,0,0,0-0.1,0c-0.1,0-0.2,0-0.3,0.1C2,0.6,1.9,0.7,1.7,0.8C1.6,0.9,1.4,1.1,1.3,1.2
	C1.2,1.4,1.1,1.6,1.1,1.9c0,0.3,0,0.5,0.1,0.8c0.1,0.2,0.3,0.5,0.5,0.6C2,3.4,2.2,3.5,2.5,3.5c0.3,0,0.6-0.1,0.8-0.2
	c0.2-0.2,0.4-0.4,0.5-0.6C4,2.4,4,2.1,4,1.9c0-0.3-0.1-0.5-0.2-0.7C3.7,1.1,3.5,0.9,3.4,0.8C3.2,0.7,3.1,0.6,2.9,0.6
	c-0.1-0.1-0.2,0-0.3-0.1C2.6,0.6,2.5,0.5,2.5,0.5"/>
<g opacity="0.5">
	<g>
		<defs>
			<rect id="SVGID_15_" x="1" y="0.5" width="3" height="3.1"/>
		</defs>
		<clipPath id="SVGID_16_">
			<use xlink:href="#SVGID_15_"  overflow="visible"/>
		</clipPath>
		<path clip-path="url(#SVGID_16_)" fill="#BDBCBC" d="M2.5,0.6C1.7,0.6,1,1.2,1,2.1s0.7,1.5,1.5,1.5c0.8,0,1.5-0.7,1.5-1.5
			S3.4,0.6,2.5,0.6 M2.5,3.4c-0.7,0-1.3-0.6-1.3-1.3c0-0.7,0.6-1.3,1.3-1.3c0.7,0,1.3,0.6,1.3,1.3C3.8,2.8,3.2,3.4,2.5,3.4"/>
	</g>
</g>
<path fill="#E9E9E9" d="M2.5,1.2c0.6,0,1.1,0.4,1.2,1c0-0.1,0-0.1,0-0.2c0-0.7-0.6-1.3-1.3-1.3C1.8,0.8,1.3,1.3,1.3,2
	c0,0.1,0,0.2,0,0.2C1.4,1.7,1.9,1.2,2.5,1.2"/>
<path fill="#393536" d="M1.6,1.7c0,0,0.1,0,0.3,0c0.1,0,0.2,0,0.3,0c0.1,0,0.2,0.1,0.4,0.1C2.7,1.9,2.8,2,3,2c0.1,0,0.2,0.1,0.3,0.2
	c0.2,0.1,0.3,0.2,0.3,0.2s-0.1,0-0.3,0c-0.1,0-0.2,0-0.3,0c-0.1,0-0.2-0.1-0.4-0.1C2.3,2.2,2.2,2.2,2.1,2.1C2,2.1,1.9,2,1.8,2
	C1.7,1.8,1.6,1.7,1.6,1.7"/>
<path fill="#393536" d="M2.2,3c0,0,0-0.1,0-0.3c0-0.1,0-0.2,0-0.3c0-0.1,0.1-0.2,0.1-0.4c0.1-0.1,0.1-0.2,0.2-0.3
	c0-0.1,0.1-0.2,0.2-0.3c0.1-0.2,0.2-0.3,0.2-0.3s0,0.1,0,0.3c0,0.1,0,0.2,0,0.3c0,0.1-0.1,0.2-0.1,0.4C2.7,2.3,2.6,2.4,2.6,2.5
	C2.5,2.6,2.5,2.7,2.4,2.8C2.3,2.9,2.2,3,2.2,3"/>
<path fill="#BDBCBC" d="M69.9,0.5c0.8,0,1.5,0.7,1.5,1.5s-0.7,1.5-1.5,1.5s-1.5-0.7-1.5-1.5S69.1,0.5,69.9,0.5"/>
<path fill="#393536" d="M69.9,0.5c0,0,0,0,0.1,0c0.1,0,0.2,0,0.3,0c0.1,0,0.3,0.1,0.4,0.2c0.2,0.1,0.3,0.2,0.4,0.4
	c0.1,0.2,0.2,0.4,0.3,0.7c0,0.3,0,0.5-0.1,0.8c-0.2,0.5-0.8,1-1.4,1c-0.3,0-0.6-0.1-0.9-0.3c-0.2-0.2-0.4-0.4-0.6-0.7
	c-0.1-0.3-0.2-0.6-0.1-0.8c0-0.3,0.1-0.5,0.3-0.7c0.1-0.2,0.3-0.3,0.4-0.4c0.2-0.1,0.3-0.2,0.4-0.2c0.1,0,0.2,0,0.3,0
	C69.9,0.6,69.9,0.5,69.9,0.5 M69.9,0.5c0,0,0,0-0.1,0c-0.1,0-0.2,0-0.3,0.1c-0.1,0-0.3,0.1-0.4,0.2c-0.1,0.1-0.3,0.2-0.4,0.4
	c-0.1,0.2-0.2,0.4-0.2,0.7c0,0.3,0,0.5,0.1,0.8c0.1,0.2,0.3,0.5,0.5,0.6c0.2,0.1,0.5,0.2,0.8,0.2c0.3,0,0.6-0.1,0.8-0.2
	c0.2-0.2,0.4-0.4,0.5-0.6c0.1-0.2,0.2-0.5,0.1-0.8c0-0.3-0.1-0.5-0.2-0.7c-0.1-0.2-0.3-0.3-0.4-0.4c-0.2-0.1-0.3-0.2-0.4-0.2
	c-0.1-0.1-0.2,0-0.3-0.1C70,0.6,69.9,0.5,69.9,0.5"/>
<g opacity="0.5">
	<g>
		<defs>
			<rect id="SVGID_17_" x="68.4" y="0.5" width="3" height="3.1"/>
		</defs>
		<clipPath id="SVGID_18_">
			<use xlink:href="#SVGID_17_"  overflow="visible"/>
		</clipPath>
		<path clip-path="url(#SVGID_18_)" fill="#BDBCBC" d="M69.9,0.6c-0.8,0-1.5,0.7-1.5,1.5s0.7,1.5,1.5,1.5s1.5-0.7,1.5-1.5
			S70.8,0.6,69.9,0.6 M69.9,3.4c-0.7,0-1.3-0.6-1.3-1.3c0-0.7,0.6-1.3,1.3-1.3c0.7,0,1.3,0.6,1.3,1.3C71.2,2.8,70.6,3.4,69.9,3.4"/>
	</g>
</g>
<path fill="#E9E9E9" d="M69.9,1.2c0.6,0,1.1,0.4,1.2,1c0-0.1,0-0.1,0-0.2c0-0.7-0.6-1.3-1.3-1.3c-0.7,0-1.3,0.6-1.3,1.3
	c0,0.1,0,0.2,0,0.2C68.8,1.7,69.3,1.2,69.9,1.2"/>
<path fill="#393536" d="M69,1.7c0,0,0.1,0,0.3,0c0.1,0,0.2,0,0.3,0c0.1,0,0.2,0.1,0.4,0.1C70.1,1.9,70.2,2,70.3,2
	c0.1,0,0.2,0.1,0.3,0.2c0.2,0.1,0.3,0.2,0.3,0.2s-0.1,0-0.3,0c-0.1,0-0.2,0-0.3,0c-0.1,0-0.2-0.1-0.4-0.1c-0.1-0.1-0.2-0.1-0.3-0.2
	C69.4,2.1,69.3,2,69.2,2C69.1,1.8,69,1.7,69,1.7"/>
<path fill="#393536" d="M69.6,3c0,0,0-0.1,0-0.3c0-0.1,0-0.2,0-0.3c0-0.1,0.1-0.2,0.1-0.4c0.1-0.1,0.1-0.2,0.2-0.3
	c0-0.1,0.1-0.2,0.2-0.3c0.1-0.2,0.2-0.3,0.2-0.3s0,0.1,0,0.3c0,0.1,0,0.2,0,0.3c0,0.1-0.1,0.2-0.1,0.4C70.1,2.3,70,2.4,70,2.5
	c0,0.1-0.1,0.2-0.2,0.3C69.7,2.9,69.6,3,69.6,3"/>
<g>
	<g>
		<defs>
			<rect id="SVGID_19_" x="15.4" y="13.8" width="41.7" height="1.8"/>
		</defs>
		<clipPath id="SVGID_20_">
			<use xlink:href="#SVGID_19_"  overflow="visible"/>
		</clipPath>
		<path clip-path="url(#SVGID_20_)" fill="#EDEADA" d="M15.4,15.7c0,0,0-0.2,0.1-0.5c0.1-0.3,0.3-0.8,0.8-1.1
			c0.5-0.3,1.3-0.2,2.1-0.2c0.8,0,1.8,0,2.8,0c4.1,0,9.6,0,15,0c5.5,0,10.9,0,15,0c1,0,2,0,2.8,0c0.8,0,1.6-0.1,2.1,0.2
			c0.5,0.3,0.8,0.8,0.8,1.1c0.1,0.3,0.1,0.5,0.1,0.5c0,0,0-0.2-0.1-0.5c-0.1-0.3-0.3-0.8-0.8-1c-0.5-0.3-1.3-0.2-2.1-0.2
			c-0.8,0-1.8,0-2.8,0c-4.1,0-9.6,0-15,0c-5.5,0-10.9,0-15-0.1c-1,0-2,0-2.8,0c-0.8,0-1.6-0.1-2.1,0.2c-0.5,0.3-0.8,0.7-0.8,1
			C15.4,15.5,15.4,15.7,15.4,15.7"/>
	</g>
</g>
<path fill="#F6F5ED" d="M24.4,19.7c0,1.9-1.5,3.5-3.5,3.5c-1.9,0-3.5-1.5-3.5-3.5h-1c0,2.5,2,4.5,4.5,4.5s4.5-2,4.5-4.5H24.4z"/>
<path fill="#C0947A" d="M20.9,16.3c1.9,0,3.5,1.5,3.5,3.5h1c0-2.5-2-4.5-4.5-4.5s-4.5,2-4.5,4.5h1C17.5,17.8,19,16.3,20.9,16.3"/>
<path fill="#F6F5ED" d="M54.7,19.7c0,1.9-1.5,3.5-3.5,3.5c-1.9,0-3.5-1.5-3.5-3.5h-1c0,2.5,2,4.5,4.5,4.5c2.5,0,4.5-2,4.5-4.5H54.7z
	"/>
<path fill="#C0947A" d="M51.3,16.3c1.9,0,3.5,1.5,3.5,3.5h1c0-2.5-2-4.5-4.5-4.5c-2.5,0-4.5,2-4.5,4.5h1
	C47.8,17.8,49.4,16.3,51.3,16.3"/>
<path fill="#A7A5A6" d="M44.5,14.8H28c-0.4,0-0.8,0.3-0.8,0.8v8.7c0,0.4,0.3,0.8,0.8,0.8h16.5c0.4,0,0.8-0.3,0.8-0.8v-8.7
	C45.2,15.1,44.9,14.8,44.5,14.8 M44.4,23.1c0,0.2-0.1,0.3-0.3,0.3H28.3c-0.2,0-0.3-0.1-0.3-0.3V16c0-0.2,0.1-0.3,0.3-0.3h15.8
	c0.2,0,0.3,0.1,0.3,0.3V23.1z"/>
<g opacity="0.4">
	<g>
		<defs>
			<rect id="SVGID_21_" x="27.2" y="14.8" width="18" height="0.9"/>
		</defs>
		<clipPath id="SVGID_22_">
			<use xlink:href="#SVGID_21_"  overflow="visible"/>
		</clipPath>
		<path clip-path="url(#SVGID_22_)" fill="#A7A5A6" d="M44.5,14.8H28c-0.4,0-0.8,0.3-0.8,0.8v0.2h1c0,0,0.1,0,0.1,0h15.8
			c0.1,0,0.1,0,0.1,0h1v-0.2C45.2,15.1,44.9,14.8,44.5,14.8"/>
	</g>
</g>
<path fill="#D3D2D2" d="M28,25h16.5c0.3,0,0.6-0.2,0.7-0.4l-0.8-1.2c-0.1,0.1-0.1,0.1-0.2,0.1H28.3c-0.1,0-0.2,0-0.2-0.1l-0.8,1.2
	C27.4,24.8,27.7,25,28,25"/>
<line fill="none" stroke="#231F20" stroke-width="0.45" stroke-miterlimit="10" x1="29.5" y1="23.4" x2="29.5" y2="24.6"/>
<line fill="none" stroke="#231F20" stroke-width="0.45" stroke-miterlimit="10" x1="31.8" y1="23.4" x2="31.8" y2="24.6"/>
<line fill="none" stroke="#231F20" stroke-width="0.45" stroke-miterlimit="10" x1="34.1" y1="23.4" x2="34.1" y2="24.6"/>
<line fill="none" stroke="#231F20" stroke-width="0.45" stroke-miterlimit="10" x1="36.3" y1="23.4" x2="36.3" y2="24.6"/>
<line fill="none" stroke="#231F20" stroke-width="0.45" stroke-miterlimit="10" x1="38.6" y1="23.4" x2="38.6" y2="24.6"/>
<g opacity="0.4">
	<g>
		<defs>
			<rect id="SVGID_23_" x="14.9" y="24" width="42.9" height="2.1"/>
		</defs>
		<clipPath id="SVGID_24_">
			<use xlink:href="#SVGID_23_"  overflow="visible"/>
		</clipPath>
		
			<path clip-path="url(#SVGID_24_)" fill="none" stroke="#72583C" stroke-width="0.3" stroke-linecap="round" stroke-miterlimit="10" d="
			M15,24.1c0,1,0.8,1.8,1.8,1.8h39c1,0,1.8-0.8,1.8-1.8"/>
	</g>
</g>
<line fill="none" stroke="#231F20" stroke-width="0.45" stroke-miterlimit="10" x1="40.9" y1="23.4" x2="40.9" y2="24.6"/>
<line fill="none" stroke="#231F20" stroke-width="0.45" stroke-miterlimit="10" x1="43.2" y1="23.4" x2="43.2" y2="24.6"/>
<g>
	<g>
		<defs>
			<rect id="SVGID_25_" x="14.9" y="13.3" width="42.6" height="12.5"/>
		</defs>
		<clipPath id="SVGID_26_">
			<use xlink:href="#SVGID_25_"  overflow="visible"/>
		</clipPath>
		<path clip-path="url(#SVGID_26_)" fill="#EDEADA" d="M55.7,13.3h-39c-1,0-1.8,0.8-1.8,1.8V24c0,1,0.8,1.8,1.8,1.8h39
			c1,0,1.8-0.8,1.8-1.8v-8.9C57.5,14.1,56.7,13.3,55.7,13.3 M21.1,23.5c-2.1,0-3.7-1.7-3.7-3.7S19,16,21.1,16c2.1,0,3.7,1.7,3.7,3.7
			S23.1,23.5,21.1,23.5 M45.2,15.5v0.2v8.5c0,0.4-0.3,0.8-0.8,0.8H28c-0.4,0-0.8-0.3-0.8-0.8v-8.5v-0.2v0c0-0.4,0.3-0.8,0.8-0.8
			h16.5C44.9,14.8,45.2,15.1,45.2,15.5L45.2,15.5z M51.4,23.5c-2.1,0-3.7-1.7-3.7-3.7s1.7-3.7,3.7-3.7s3.7,1.7,3.7,3.7
			S53.4,23.5,51.4,23.5"/>
	</g>
</g>
<path fill="#BDBCBC" d="M36.3,36c0.8,0,1.5,0.7,1.5,1.5S37.2,39,36.3,39c-0.8,0-1.5-0.7-1.5-1.5S35.5,36,36.3,36"/>
<path fill="#393536" d="M36.3,36c0,0,0,0,0.1,0c0.1,0,0.2,0,0.3,0c0.1,0,0.3,0.1,0.4,0.2c0.2,0.1,0.3,0.2,0.4,0.4
	c0.1,0.2,0.2,0.4,0.3,0.7c0,0.3,0,0.5-0.1,0.8c-0.2,0.5-0.8,1-1.4,1c-0.3,0-0.6-0.1-0.9-0.3c-0.2-0.2-0.4-0.4-0.6-0.7
	c-0.1-0.3-0.2-0.6-0.1-0.8c0-0.3,0.1-0.5,0.3-0.7c0.1-0.2,0.3-0.3,0.4-0.4c0.2-0.1,0.3-0.2,0.4-0.2c0.1,0,0.2,0,0.3,0
	C36.3,36,36.3,36,36.3,36 M36.3,36c0,0,0,0-0.1,0c-0.1,0-0.2,0-0.3,0.1c-0.1,0-0.3,0.1-0.4,0.2c-0.1,0.1-0.3,0.2-0.4,0.4
	c-0.1,0.2-0.2,0.4-0.2,0.7c0,0.3,0,0.5,0.1,0.8c0.1,0.2,0.3,0.5,0.5,0.6c0.2,0.2,0.5,0.2,0.8,0.2c0.3,0,0.6-0.1,0.8-0.2
	c0.2-0.2,0.4-0.4,0.5-0.6c0.1-0.2,0.2-0.5,0.1-0.8c0-0.3-0.1-0.5-0.2-0.7c-0.1-0.2-0.3-0.3-0.4-0.4c-0.2-0.1-0.3-0.2-0.4-0.2
	c-0.1-0.1-0.2,0-0.3-0.1C36.4,36,36.3,36,36.3,36"/>
<g opacity="0.5">
	<g>
		<defs>
			<rect id="SVGID_27_" x="34.8" y="36" width="3" height="3.1"/>
		</defs>
		<clipPath id="SVGID_28_">
			<use xlink:href="#SVGID_27_"  overflow="visible"/>
		</clipPath>
		<path clip-path="url(#SVGID_28_)" fill="#BDBCBC" d="M36.3,36c-0.8,0-1.5,0.7-1.5,1.5s0.7,1.5,1.5,1.5c0.8,0,1.5-0.7,1.5-1.5
			S37.2,36,36.3,36 M36.3,38.8c-0.7,0-1.3-0.6-1.3-1.3s0.6-1.3,1.3-1.3s1.3,0.6,1.3,1.3S37,38.8,36.3,38.8"/>
	</g>
</g>
<path fill="#E9E9E9" d="M36.3,36.6c0.6,0,1.1,0.4,1.2,1c0-0.1,0-0.1,0-0.2c0-0.7-0.6-1.3-1.3-1.3c-0.7,0-1.3,0.6-1.3,1.3
	c0,0.1,0,0.2,0,0.2C35.2,37.1,35.7,36.6,36.3,36.6"/>
<path fill="#393536" d="M35.4,37.1c0,0,0.1,0,0.3,0c0.1,0,0.2,0,0.3,0c0.1,0,0.2,0.1,0.4,0.1c0.1,0.1,0.2,0.1,0.3,0.2
	c0.1,0,0.2,0.1,0.3,0.2c0.2,0.1,0.3,0.2,0.3,0.2s-0.1,0-0.3,0c-0.1,0-0.2,0-0.3,0c-0.1,0-0.2-0.1-0.4-0.1c-0.1-0.1-0.2-0.1-0.3-0.2
	c-0.1,0-0.2-0.1-0.3-0.2C35.5,37.2,35.4,37.1,35.4,37.1"/>
<path fill="#393536" d="M36,38.4c0,0,0-0.1,0-0.3c0-0.1,0-0.2,0-0.3c0-0.1,0.1-0.2,0.1-0.4c0.1-0.1,0.1-0.2,0.2-0.3
	c0-0.1,0.1-0.2,0.2-0.3c0.1-0.2,0.2-0.3,0.2-0.3s0,0.1,0,0.3c0,0.1,0,0.2,0,0.3c0,0.1-0.1,0.2-0.1,0.4c-0.1,0.1-0.1,0.2-0.2,0.3
	c-0.1,0.1-0.1,0.2-0.2,0.3C36.1,38.3,36,38.4,36,38.4"/>
<rect x="7.4" y="4.9" fill="#918F90" width="57.7" height="8"/>
<rect x="7.4" y="4.7" fill="#FFFFFF" width="57.7" height="8"/>
<rect x="8.8" y="7.4" fill="#231F20" width="3.9" height="3.9"/>
<line fill="none" stroke="#231F20" stroke-width="0.289" stroke-miterlimit="10" x1="13.7" y1="8.2" x2="63.6" y2="8.2"/>
<line fill="none" stroke="#231F20" stroke-width="0.289" stroke-miterlimit="10" x1="13.7" y1="11.2" x2="63.6" y2="11.2"/>
</svg>
