<?xml version="1.0" encoding="utf-8"?>
<!-- Generator: Adobe Illustrator 15.0.2, SVG Export Plug-In . SVG Version: 6.00 Build 0)  -->
<!DOCTYPE svg PUBLIC "-//W3C//DTD SVG 1.1//EN" "http://www.w3.org/Graphics/SVG/1.1/DTD/svg11.dtd">
<svg version="1.1" id="Layer_1" xmlns="http://www.w3.org/2000/svg" xmlns:xlink="http://www.w3.org/1999/xlink" x="0px" y="0px"
	 width="48px" height="69.9px" viewBox="0 0 48 69.9" enable-background="new 0 0 48 69.9" xml:space="preserve">
<path fill="#EDE6D8" d="M2,0C0.9,0,0,0.9,0,2v61c0,1.1,0.9,2,2,2h44c1.1,0,2-0.9,2-2V16.5L31.5,0H2z"/>
<g>
	<g>
		<defs>
			<rect id="SVGID_1_" x="33" y="16.5" width="15" height="5.5"/>
		</defs>
		<clipPath id="SVGID_2_">
			<use xlink:href="#SVGID_1_"  overflow="visible"/>
		</clipPath>
		<polygon clip-path="url(#SVGID_2_)" fill="#F1E6D7" points="33,16.5 48,22 48,16.5 		"/>
	</g>
</g>
<path fill="#F3EFE6" d="M33.5,16.5l14.5,0L31.5,0l0.1,14.6C31.5,15.7,32.4,16.5,33.5,16.5"/>
<rect x="8.3" y="10.5" fill="#231F20" width="2.7" height="1.8"/>
<rect x="10.9" y="10.5" fill="#231F20" width="2.7" height="1.8"/>
<rect x="13.5" y="10.5" fill="#231F20" width="2.7" height="1.8"/>
<rect x="8.3" y="13.8" fill="#231F20" width="2.7" height="1.8"/>
<rect x="10.9" y="13.8" fill="#231F20" width="2.7" height="1.8"/>
<rect x="13.5" y="13.8" fill="#231F20" width="2.7" height="1.8"/>
<rect x="8.3" y="20.5" fill="#231F20" width="2.7" height="1.8"/>
<rect x="10.9" y="20.5" fill="#231F20" width="2.7" height="1.8"/>
<rect x="8.3" y="23.8" fill="#231F20" width="2.7" height="1.8"/>
<rect x="10.9" y="23.8" fill="#231F20" width="2.7" height="1.8"/>
<rect x="13.5" y="23.8" fill="#231F20" width="2.7" height="1.8"/>
<rect x="21.4" y="23.8" fill="#231F20" width="2.7" height="1.8"/>
<rect x="24" y="23.8" fill="#231F20" width="2.7" height="1.8"/>
<rect x="31.8" y="23.8" fill="#231F20" width="2.7" height="1.8"/>
<rect x="34.4" y="23.8" fill="#231F20" width="2.7" height="1.8"/>
<rect x="37" y="23.8" fill="#231F20" width="2.7" height="1.8"/>
<rect x="8.3" y="27.2" fill="#231F20" width="2.7" height="1.8"/>
<rect x="10.9" y="27.2" fill="#231F20" width="2.7" height="1.8"/>
<rect x="18.8" y="27.2" fill="#231F20" width="2.7" height="1.8"/>
<rect x="21.4" y="27.2" fill="#231F20" width="2.7" height="1.8"/>
<rect x="24" y="27.2" fill="#231F20" width="2.7" height="1.8"/>
<rect x="26.6" y="27.2" fill="#231F20" width="2.7" height="1.8"/>
<rect x="29.2" y="27.2" fill="#231F20" width="2.7" height="1.8"/>
<rect x="8.3" y="30.5" fill="#231F20" width="2.7" height="1.8"/>
<rect x="10.9" y="30.5" fill="#231F20" width="2.7" height="1.8"/>
<rect x="13.5" y="30.5" fill="#231F20" width="2.7" height="1.8"/>
<rect x="16.1" y="30.5" fill="#231F20" width="2.7" height="1.8"/>
<rect x="8.3" y="33.8" fill="#231F20" width="2.7" height="1.8"/>
<rect x="10.9" y="33.8" fill="#231F20" width="2.7" height="1.8"/>
<rect x="13.5" y="33.8" fill="#231F20" width="2.7" height="1.8"/>
<rect x="16.1" y="33.8" fill="#231F20" width="2.7" height="1.8"/>
<rect x="18.7" y="33.8" fill="#231F20" width="2.7" height="1.8"/>
<rect x="21.3" y="33.8" fill="#231F20" width="2.7" height="1.8"/>
<rect x="23.9" y="33.8" fill="#231F20" width="2.7" height="1.8"/>
<rect x="31.8" y="33.8" fill="#231F20" width="2.7" height="1.8"/>
<rect x="34.4" y="33.8" fill="#231F20" width="2.7" height="1.8"/>
<rect x="37" y="33.8" fill="#231F20" width="2.7" height="1.8"/>
<rect x="8.3" y="37.2" fill="#231F20" width="2.7" height="1.8"/>
<rect x="10.9" y="37.2" fill="#231F20" width="2.7" height="1.8"/>
<rect x="13.5" y="37.2" fill="#231F20" width="2.7" height="1.8"/>
<rect x="16.1" y="37.2" fill="#231F20" width="2.7" height="1.8"/>
<rect x="18.7" y="37.2" fill="#231F20" width="2.7" height="1.8"/>
<rect x="26.6" y="37.2" fill="#231F20" width="2.7" height="1.8"/>
<rect x="29.2" y="37.2" fill="#231F20" width="2.7" height="1.8"/>
<rect x="31.8" y="37.2" fill="#231F20" width="2.7" height="1.8"/>
<rect x="34.4" y="37.2" fill="#231F20" width="2.7" height="1.8"/>
<rect x="37" y="37.2" fill="#231F20" width="2.7" height="1.8"/>
<rect x="8.3" y="40.5" fill="#231F20" width="2.7" height="1.8"/>
<rect x="10.9" y="40.5" fill="#231F20" width="2.7" height="1.8"/>
<rect x="13.5" y="40.5" fill="#231F20" width="2.7" height="1.8"/>
<rect x="16.1" y="40.5" fill="#231F20" width="2.7" height="1.8"/>
<rect x="24" y="40.5" fill="#231F20" width="2.7" height="1.8"/>
<rect x="26.6" y="40.5" fill="#231F20" width="2.7" height="1.8"/>
<rect x="29.2" y="40.5" fill="#231F20" width="2.7" height="1.8"/>
<rect x="31.8" y="40.5" fill="#231F20" width="2.7" height="1.8"/>
<rect x="34.4" y="40.5" fill="#231F20" width="2.7" height="1.8"/>
<rect x="8.3" y="43.8" fill="#231F20" width="2.7" height="1.8"/>
<rect x="10.9" y="43.8" fill="#231F20" width="2.7" height="1.8"/>
<rect x="13.5" y="43.8" fill="#231F20" width="2.7" height="1.8"/>
<rect x="16.1" y="43.8" fill="#231F20" width="2.7" height="1.8"/>
<rect x="18.7" y="43.8" fill="#231F20" width="2.7" height="1.8"/>
<rect x="21.3" y="43.8" fill="#231F20" width="2.7" height="1.8"/>
<rect x="23.9" y="43.8" fill="#231F20" width="2.7" height="1.8"/>
<rect x="26.5" y="43.8" fill="#231F20" width="2.7" height="1.8"/>
<rect x="34.4" y="43.8" fill="#231F20" width="2.7" height="1.8"/>
<rect x="37" y="43.8" fill="#231F20" width="2.7" height="1.8"/>
<rect x="8.3" y="47.2" fill="#231F20" width="2.7" height="1.8"/>
<rect x="10.9" y="47.2" fill="#231F20" width="2.7" height="1.8"/>
<rect x="13.5" y="47.2" fill="#231F20" width="2.7" height="1.8"/>
<rect x="16.1" y="47.2" fill="#231F20" width="2.7" height="1.8"/>
<rect x="18.7" y="47.2" fill="#231F20" width="2.7" height="1.8"/>
<rect x="21.3" y="47.2" fill="#231F20" width="2.7" height="1.8"/>
<polygon fill="#1498C3" points="36.1,66.8 38.8,69.1 37.9,56.9 32.9,57.3 33.8,69.5 "/>
<g>
	<g>
		<defs>
			<rect id="SVGID_3_" x="35.5" y="57.5" width="3" height="6.9"/>
		</defs>
		<clipPath id="SVGID_4_">
			<use xlink:href="#SVGID_3_"  overflow="visible"/>
		</clipPath>
		<polygon clip-path="url(#SVGID_4_)" fill="#1498C3" points="37.9,57.5 35.5,58.8 38.5,64.4 		"/>
	</g>
</g>
<polygon fill="#1498C3" points="42.8,66.5 41.7,69.9 36,59.1 40.4,56.8 46.2,67.5 "/>
<path fill="#872237" d="M41.9,52.1c1,3.4-1,6.9-4.3,7.8c-3.4,1-6.9-0.9-7.8-4.3s0.9-6.9,4.3-7.8S40.9,48.7,41.9,52.1"/>
<g>
	<g>
		<defs>
			<rect id="SVGID_5_" x="30.5" y="48.5" width="10.1" height="6"/>
		</defs>
		<clipPath id="SVGID_6_">
			<use xlink:href="#SVGID_5_"  overflow="visible"/>
		</clipPath>
		<path clip-path="url(#SVGID_6_)" fill="#872237" d="M34.5,49.2c2.5-0.7,5.1,0.3,6.1,2.3l0,0c-1.1-2.3-3.7-3.6-6.3-2.8
			c-2.5,0.7-4.1,3.2-3.8,5.8l0,0C30.4,52.2,32,49.9,34.5,49.2"/>
	</g>
</g>
<g>
	<g>
		<defs>
			<rect id="SVGID_7_" x="31" y="53.2" width="10.1" height="6"/>
		</defs>
		<clipPath id="SVGID_8_">
			<use xlink:href="#SVGID_7_"  overflow="visible"/>
		</clipPath>
		<path clip-path="url(#SVGID_8_)" fill="#872237" d="M37.2,58.5c-2.5,0.7-5.1-0.3-6.1-2.3l0,0c1.1,2.3,3.7,3.6,6.3,2.8
			c2.5-0.7,4.1-3.2,3.8-5.8l0,0C41.3,55.5,39.7,57.8,37.2,58.5"/>
	</g>
</g>
</svg>
