<?xml version="1.0" encoding="utf-8"?>
<!-- Generator: Adobe Illustrator 15.0.2, SVG Export Plug-In . SVG Version: 6.00 Build 0)  -->
<!DOCTYPE svg PUBLIC "-//W3C//DTD SVG 1.1//EN" "http://www.w3.org/Graphics/SVG/1.1/DTD/svg11.dtd">
<svg version="1.1" id="Layer_1" xmlns="http://www.w3.org/2000/svg" xmlns:xlink="http://www.w3.org/1999/xlink" x="0px" y="0px"
	 width="21.9px" height="80.1px" viewBox="0 0 21.9 80.1" enable-background="new 0 0 21.9 80.1" xml:space="preserve">
<path fill="#666943" d="M19.7,37.6c-1.9-5-5.2-13-5.2-21V2.9H11H7.4v13.7c0,8-3.3,16-5.2,21S0,47.9,0,47.9v26.3c0,4.1,1.3,5,4.2,5.5
	c2.9,0.5,6.7,0.4,6.7,0.4s3.8,0,6.7-0.4c2.9-0.5,4.2-1.4,4.2-5.5V47.9C21.9,47.9,21.6,42.7,19.7,37.6"/>
<g>
	<g>
		<defs>
			<rect id="SVGID_1_" x="1.9" y="2.9" width="18" height="76.4"/>
		</defs>
		<clipPath id="SVGID_2_">
			<use xlink:href="#SVGID_1_"  overflow="visible"/>
		</clipPath>
		<path clip-path="url(#SVGID_2_)" fill="#666943" d="M18.2,37.3c-1.6-5-4.3-12.9-4.3-20.8V2.9H11H8.1v13.6c0,7.9-2.7,15.8-4.3,20.8
			c-1.6,5-1.8,10.1-1.8,10.1v26c0,4,1.1,5,3.5,5.5c2.4,0.5,5.5,0.4,5.5,0.4s3.1,0,5.5-0.4c2.4-0.5,3.5-1.4,3.5-5.5v-26
			C20,47.4,19.7,42.3,18.2,37.3"/>
	</g>
</g>
<g opacity="0.2">
	<g>
		<defs>
			<rect id="SVGID_3_" x="11.8" y="2.9" width="6.2" height="76.4"/>
		</defs>
		<clipPath id="SVGID_4_">
			<use xlink:href="#SVGID_3_"  overflow="visible"/>
		</clipPath>
		<path clip-path="url(#SVGID_4_)" fill="#666943" d="M12.2,16.5c0,7.9,1,15.8,1.6,20.8c0.6,5,0.7,10.1,0.7,10.1v26
			c0,4-0.4,5-1.3,5.5c-0.4,0.2-0.9,0.3-1.3,0.4c0.9-0.1,2.1-0.2,3.2-0.4c2.1-0.5,3.1-1.4,3.1-5.5v-26c0,0-0.2-5.1-1.6-10.1
			c-1.4-5-3.8-12.9-3.8-20.8V2.9h-0.5V16.5z"/>
	</g>
</g>
<g opacity="0.6">
	<g>
		<defs>
			<rect id="SVGID_5_" x="3.8" y="2.9" width="6.7" height="76.4"/>
		</defs>
		<clipPath id="SVGID_6_">
			<use xlink:href="#SVGID_5_"  overflow="visible"/>
		</clipPath>
		<path clip-path="url(#SVGID_6_)" fill="#666943" d="M7.9,73.4v-26c0,0,0.1-5.1,0.7-10.1c0.6-5,1.6-12.9,1.6-20.8V2.9H9.4v13.6
			c0,7.9-2.5,15.8-3.9,20.8c-1.4,5-1.6,10.1-1.6,10.1v26c0,4,0.9,5,3.1,5.5c1.2,0.3,2.6,0.4,3.6,0.4c-0.4,0-1-0.2-1.5-0.4
			C8.2,78.4,7.9,77.5,7.9,73.4"/>
	</g>
</g>
<g>
	<g>
		<defs>
			<rect id="SVGID_7_" y="2.8" width="21.9" height="77.2"/>
		</defs>
		<clipPath id="SVGID_8_">
			<use xlink:href="#SVGID_7_"  overflow="visible"/>
		</clipPath>
		<path clip-path="url(#SVGID_8_)" fill="#666943" d="M19.7,37.5c-1.9-5-5.2-13-5.2-21V2.8H11H7.4v13.7c0,8-3.3,16-5.2,21
			C0.3,42.6,0,47.8,0,47.8V74c0,4.1,1.3,5,4.2,5.5C7.2,80,11,80,11,80s3.8,0,6.7-0.4c2.9-0.5,4.2-1.4,4.2-5.5V47.8
			C21.9,47.8,21.6,42.6,19.7,37.5 M20.9,73.3c0,4-1.2,5-3.8,5.5c-2.7,0.5-6.1,0.4-6.1,0.4s-3.5,0-6.1-0.4C2.1,78.3,1,77.4,1,73.3
			v-26c0,0,0.3-5.1,2-10.1s4.8-12.9,4.8-20.8V2.8H11h3.2v13.6c0,7.9,3,15.8,4.8,20.8c1.7,5,2,10.1,2,10.1V73.3z"/>
	</g>
</g>
<path fill="#B69C5B" d="M14.7,10V2.2c0,0-0.7-1.5-3.7-1.5S7.2,2.2,7.2,2.2V10c0,16.5-3.4,23.2-3.4,23.2l7.1,2.9l7.1-2.9
	C18.1,33.2,14.7,26.5,14.7,10"/>
<path fill="#5E411A" d="M11,30.3l-5.5-2.2c-0.8,3.5-1.6,5.1-1.6,5.1l7.1,2.9l7.1-2.9c0,0-0.8-1.6-1.6-5.1L11,30.3z"/>
<g opacity="0.3">
	<g>
		<defs>
			<rect id="SVGID_9_" x="6.3" y="2.8" width="9.2" height="32.3"/>
		</defs>
		<clipPath id="SVGID_10_">
			<use xlink:href="#SVGID_9_"  overflow="visible"/>
		</clipPath>
		<g opacity="0.4" clip-path="url(#SVGID_10_)">
			<g>
				<defs>
					<rect id="SVGID_11_" x="12.1" y="2.8" width="3.4" height="32.1"/>
				</defs>
				<clipPath id="SVGID_12_">
					<use xlink:href="#SVGID_11_"  overflow="visible"/>
				</clipPath>
				<path clip-path="url(#SVGID_12_)" fill="#E8E5D1" d="M12.6,16.4V2.8h-0.5v13.6c0,6.8,0.7,13.6,1.3,18.6l2.1-0.9
					C14.2,29.2,12.6,22.8,12.6,16.4"/>
			</g>
		</g>
		<g opacity="0.4" clip-path="url(#SVGID_10_)">
			<g>
				<defs>
					<rect id="SVGID_13_" x="6.3" y="2.8" width="3.7" height="32.3"/>
				</defs>
				<clipPath id="SVGID_14_">
					<use xlink:href="#SVGID_13_"  overflow="visible"/>
				</clipPath>
				<path clip-path="url(#SVGID_14_)" fill="#E8E5D1" d="M10.1,2.8H9.3v13.6c0,6.4-1.6,12.9-3,17.7l2.4,1c0.6-5,1.3-11.8,1.3-18.7
					V2.8z"/>
			</g>
		</g>
	</g>
</g>
<g opacity="0.3">
	<g>
		<defs>
			<rect id="SVGID_15_" x="3.8" y="0.7" width="14.2" height="35.4"/>
		</defs>
		<clipPath id="SVGID_16_">
			<use xlink:href="#SVGID_15_"  overflow="visible"/>
		</clipPath>
		<path clip-path="url(#SVGID_16_)" fill="#5E411A" d="M14.7,10V2.2c0,0-0.7-1.5-3.7-1.5c2.5,0,3.1,1.5,3.1,1.5V10
			c0,16.5,2.8,23.2,2.8,23.2L11,36.1l7.1-2.9C18.1,33.2,14.7,26.5,14.7,10"/>
		<path clip-path="url(#SVGID_16_)" fill="#5E411A" d="M7.9,10V2.2c0,0,0.6-1.5,3.1-1.5c-3,0-3.7,1.5-3.7,1.5V10
			c0,16.5-3.4,23.2-3.4,23.2l7.1,2.9l-5.8-2.9C5.1,33.2,7.9,26.5,7.9,10"/>
	</g>
</g>
<path fill="#DBCFAF" d="M15,32.2c0,2.8-1.8,5.1-4.1,5.1c-2.2,0-4.1-2.3-4.1-5.1s1.8-5.1,4.1-5.1C13.2,27.1,15,29.4,15,32.2"/>
<ellipse fill="none" stroke="#5E411A" stroke-width="0.737" stroke-miterlimit="10" cx="11" cy="32.2" rx="4.1" ry="5.1"/>
<path fill="#5E411A" d="M13.4,32.2c0,1.7-1.1,3.1-2.4,3.1c-1.3,0-2.4-1.4-2.4-3.1c0-1.7,1.1-3.1,2.4-3.1
	C12.3,29.1,13.4,30.5,13.4,32.2"/>
<path fill="#B69C5B" d="M15.7,7.5c-0.1-2.8-0.7-6-0.7-6S14,0,11,0c-3,0-4,1.5-4,1.5s-0.6,3.2-0.7,6c-0.1,2.8,1.2,3.4,1.2,3.4H11h3.5
	C14.5,10.9,15.8,10.3,15.7,7.5"/>
<g opacity="0.3">
	<g>
		<defs>
			<rect id="SVGID_17_" x="6.2" width="9.5" height="10.9"/>
		</defs>
		<clipPath id="SVGID_18_">
			<use xlink:href="#SVGID_17_"  overflow="visible"/>
		</clipPath>
		<path clip-path="url(#SVGID_18_)" fill="#5E411A" d="M6.9,1.5c0,0-0.6,3.2-0.7,6c-0.1,2.8,1.2,3.4,1.2,3.4h0.7c0,0-1.1-0.6-1-3.4
			c0.1-2.8,0.6-6,0.6-6S8.5,0,11,0C8,0,6.9,1.5,6.9,1.5"/>
		<path clip-path="url(#SVGID_18_)" fill="#5E411A" d="M15.7,7.5c-0.1-2.8-0.7-6-0.7-6S14,0,11,0c2.4,0,3.3,1.5,3.3,1.5
			s0.5,3.2,0.6,6c0.1,2.8-1,3.4-1,3.4h0.7C14.5,10.9,15.8,10.3,15.7,7.5"/>
	</g>
</g>
<g opacity="0.5">
	<g>
		<defs>
			<rect id="SVGID_19_" x="8.1" y="10.9" width="5.7" height="0.6"/>
		</defs>
		<clipPath id="SVGID_20_">
			<use xlink:href="#SVGID_19_"  overflow="visible"/>
		</clipPath>
		<path clip-path="url(#SVGID_20_)" fill="#5E411A" d="M8.1,10.9c0,0,1.4,0,2.9,0c1.4,0,2.9,0,2.9,0v0.1c0,0-0.1,0-0.2,0.1
			c-0.2,0-0.4,0.1-0.6,0.2c-0.3,0-0.6,0.1-0.9,0.2c-0.3,0-0.7,0-1,0.1c-0.4,0-0.7,0-1-0.1c-0.3,0-0.6-0.1-0.9-0.2
			c-0.3,0-0.5-0.1-0.6-0.2C8.2,11,8.1,10.9,8.1,10.9L8.1,10.9z"/>
	</g>
</g>
<g opacity="0.5">
	<g>
		<defs>
			<rect id="SVGID_21_" x="7.2" y="5.2" width="7.5" height="0.3"/>
		</defs>
		<clipPath id="SVGID_22_">
			<use xlink:href="#SVGID_21_"  overflow="visible"/>
		</clipPath>
		<path clip-path="url(#SVGID_22_)" fill="#5E411A" d="M7.2,5.4c0,0,0.5-0.1,1.2-0.1c0.4,0,0.8-0.1,1.2-0.1c0.4,0,0.9,0,1.4,0
			c0.5,0,0.9,0,1.4,0s0.8,0.1,1.2,0.1c0.7,0.1,1.2,0.1,1.2,0.1v0c0,0-1.9,0-3.7,0C9.1,5.5,7.2,5.5,7.2,5.4L7.2,5.4z"/>
	</g>
</g>
<path fill="#B69C5B" d="M1.4,53.6v19.5c0,0.4,4.3,0.8,9.5,0.8c5.3,0,9.5-0.3,9.5-0.8V53.6H1.4z"/>
<path fill="#DBCFAF" d="M3.2,56.3V69c0,0.3,3.5,0.6,7.8,0.6c4.3,0,7.8-0.3,7.8-0.6V56.3H3.2z"/>
<path fill="none" stroke="#5E411A" stroke-width="0.737" stroke-miterlimit="10" d="M3.2,56.3V69c0,0.3,3.5,0.6,7.8,0.6
	c4.3,0,7.8-0.3,7.8-0.6V56.3H3.2z"/>
<rect x="5.7" y="68" fill="#5E411A" width="10.6" height="2.8"/>
</svg>
