<?xml version="1.0" encoding="utf-8"?>
<!-- Generator: Adobe Illustrator 15.0.2, SVG Export Plug-In . SVG Version: 6.00 Build 0)  -->
<!DOCTYPE svg PUBLIC "-//W3C//DTD SVG 1.1//EN" "http://www.w3.org/Graphics/SVG/1.1/DTD/svg11.dtd">
<svg version="1.1" id="Layer_1" xmlns="http://www.w3.org/2000/svg" xmlns:xlink="http://www.w3.org/1999/xlink" x="0px" y="0px"
	 width="50.8px" height="64.4px" viewBox="0 0 50.8 64.4" enable-background="new 0 0 50.8 64.4" xml:space="preserve">
<path fill="#C82257" d="M37.8,34.1c0,0,13-1.5,12.9,10.3C50.7,56.1,43.9,59.7,39,59.7c-4.9,0-11.9-5.6-11.8-11.2
	C27.3,42.9,27.7,33.5,37.8,34.1"/>
<g>
	<g>
		<defs>
			<rect id="SVGID_1_" x="27.3" y="39.7" width="23.4" height="20"/>
		</defs>
		<clipPath id="SVGID_2_">
			<use xlink:href="#SVGID_1_"  overflow="visible"/>
		</clipPath>
		<path clip-path="url(#SVGID_2_)" fill="#C82257" d="M49.9,39.7c0.2,0.8,0.3,1.8,0.3,2.8C50,54.3,43.3,57.9,38.4,57.9
			c-3.9,0-9.2-3.6-11.1-7.9c1,5.1,7.2,9.7,11.6,9.7c4.9,0,11.7-3.5,11.8-15.3C50.7,42.5,50.4,41,49.9,39.7"/>
	</g>
</g>
<g>
	<g>
		<defs>
			<rect id="SVGID_3_" x="31.5" y="36.8" width="11.4" height="3.1"/>
		</defs>
		<clipPath id="SVGID_4_">
			<use xlink:href="#SVGID_3_"  overflow="visible"/>
		</clipPath>
		<path clip-path="url(#SVGID_4_)" fill="#C82257" d="M42.9,38.4c0,0-3.1-0.4-4.7,0.1c-1.6,0.5-6.8,1.3-6.8,1.3S36.7,34,42.9,38.4"
			/>
	</g>
</g>
<g>
	<g>
		<defs>
			<rect id="SVGID_5_" x="44.3" y="40.4" width="2.8" height="4"/>
		</defs>
		<clipPath id="SVGID_6_">
			<use xlink:href="#SVGID_5_"  overflow="visible"/>
		</clipPath>
		<path clip-path="url(#SVGID_6_)" fill="#C82257" d="M46.9,41.9c0.4,1.1,0.2,2.2-0.5,2.4c-0.7,0.3-1.5-0.4-1.9-1.5
			c-0.4-1.1-0.2-2.2,0.5-2.4C45.6,40.2,46.5,40.8,46.9,41.9"/>
	</g>
</g>
<path fill="none" stroke="#A0A96A" stroke-width="0.915" stroke-miterlimit="10" d="M22.8,5.2c0,0,4.9,14.2,7.2,17.8
	c2.3,3.7,7.2,12.8,7.3,15.7"/>
<path fill="#C82257" d="M10.6,38.8c0,0,13-1.5,12.9,10.3c-0.1,11.8-6.9,15.3-11.8,15.3C6.9,64.4-0.1,58.8,0,53.2
	C0.1,47.6,0.5,38.2,10.6,38.8"/>
<g>
	<g>
		<defs>
			<rect id="SVGID_7_" x="0.1" y="44.4" width="23.4" height="20"/>
		</defs>
		<clipPath id="SVGID_8_">
			<use xlink:href="#SVGID_7_"  overflow="visible"/>
		</clipPath>
		<path clip-path="url(#SVGID_8_)" fill="#C82257" d="M22.7,44.4c0.2,0.8,0.3,1.8,0.3,2.8C22.8,59,16.1,62.5,11.1,62.5
			c-3.9,0-9.2-3.6-11.1-7.9c1,5.1,7.2,9.7,11.6,9.7c4.9,0,11.7-3.5,11.8-15.3C23.5,47.2,23.2,45.6,22.7,44.4"/>
	</g>
</g>
<g>
	<g>
		<defs>
			<rect id="SVGID_9_" x="4.7" y="41.1" width="10.6" height="5"/>
		</defs>
		<clipPath id="SVGID_10_">
			<use xlink:href="#SVGID_9_"  overflow="visible"/>
		</clipPath>
		<path clip-path="url(#SVGID_10_)" fill="#C82257" d="M15.4,41.6c0,0-3.1,0.5-4.5,1.4c-1.4,0.9-6.2,3.1-6.2,3.1S8.2,39,15.4,41.6"
			/>
	</g>
</g>
<g>
	<g>
		<defs>
			<rect id="SVGID_11_" x="11.8" y="46.1" width="3.7" height="4"/>
		</defs>
		<clipPath id="SVGID_12_">
			<use xlink:href="#SVGID_11_"  overflow="visible"/>
		</clipPath>
		<path clip-path="url(#SVGID_12_)" fill="#C82257" d="M15,49c-0.6,1-1.8,1.3-2.6,0.8c-0.8-0.5-0.9-1.7-0.3-2.7
			c0.6-1,1.8-1.3,2.6-0.8C15.6,46.9,15.7,48.1,15,49"/>
	</g>
</g>
<path fill="#A0A96A" d="M9.7,43.6c0,0,0.4-0.6,1.1-1.6c0.4-0.5,0.8-1.2,1.3-1.9c0.5-0.7,1-1.6,1.6-2.4c2.5-3.5,5.6-8.3,7.7-13.6
	c0.3-0.7,0.5-1.3,0.7-2c0.2-0.7,0.5-1.3,0.6-2c0.2-0.7,0.4-1.3,0.5-2c0.1-0.7,0.2-1.3,0.3-2c0.1-1.3,0.1-2.6,0-3.8
	c-0.1-1.2-0.2-2.4-0.4-3.4c-0.1-0.5-0.2-1-0.2-1.5c0-0.5-0.1-0.9-0.2-1.4c-0.1-0.9-0.3-1.6-0.6-2.1c-0.2-0.6-0.6-0.9-0.9-1
	c-0.3-0.1-0.5,0.1-0.5,0.1c0,0,0.1-0.2,0.5-0.2c0.4,0,0.9,0.3,1.2,0.9c0.4,0.5,0.7,1.3,1,2.1c0.3,0.8,0.6,1.8,0.7,2.9
	c0.2,1.1,0.3,2.3,0.4,3.5c0.1,1.2,0.1,2.6,0,4c-0.1,0.7-0.2,1.4-0.3,2.1c-0.1,0.7-0.3,1.4-0.5,2.1c-0.2,0.7-0.4,1.4-0.6,2.1
	c-0.2,0.7-0.5,1.4-0.8,2c-2.2,5.4-5.3,10.3-7.9,13.8c-0.3,0.4-0.6,0.9-0.9,1.3c-0.3,0.4-0.6,0.7-0.9,1.1c-0.6,0.7-1.1,1.2-1.5,1.7
	C10.2,43.1,9.7,43.6,9.7,43.6"/>
<path fill="#5E411A" d="M18.1,2.2c0,0,0-2.9,2.2-2.1C22.4,1,23.6,6,23.6,6S22.1,6.2,18.1,2.2"/>
</svg>
