<?xml version="1.0" encoding="utf-8"?>
<!-- Generator: Adobe Illustrator 15.0.2, SVG Export Plug-In . SVG Version: 6.00 Build 0)  -->
<!DOCTYPE svg PUBLIC "-//W3C//DTD SVG 1.1//EN" "http://www.w3.org/Graphics/SVG/1.1/DTD/svg11.dtd">
<svg version="1.1" id="Layer_1" xmlns="http://www.w3.org/2000/svg" xmlns:xlink="http://www.w3.org/1999/xlink" x="0px" y="0px"
	 width="39.5px" height="79.3px" viewBox="0 0 39.5 79.3" enable-background="new 0 0 39.5 79.3" xml:space="preserve">
<path fill="#DEDDDE" d="M37.9,73.8h-0.5c0,0-0.6,0.1-0.6-0.6c0-0.7,0.2-0.8,0.6-1.4c0.3-0.6,0.6-1.2,0.6-1.7c0-0.5-0.5-1.9-1.5-2.6
	c-1-0.8-4.2-3.3-4.2-3.3s-2-1.3-2-2.9c0,0,0-0.8,0.5-1.3c0,0,0.1-0.3,0.1-0.6v-0.9H19.8H8.6v0.9c0,0.3,0.1,0.6,0.1,0.6
	c0.5,0.5,0.5,1.3,0.5,1.3c0,1.5-2,2.9-2,2.9S4,66.6,3,67.3c-1,0.8-1.5,2.1-1.5,2.6c0,0.5,0.3,1.1,0.6,1.7c0.3,0.6,0.6,0.7,0.6,1.4
	c0,0.7-0.6,0.6-0.6,0.6H1.6C0,73.8,0,75.2,0,75.2v4.1h19.8h19.8v-4.1C39.5,75.2,39.5,73.8,37.9,73.8"/>
<g>
	<g>
		<defs>
			<rect id="SVGID_1_" x="0" y="58.5" width="11.8" height="20.8"/>
		</defs>
		<clipPath id="SVGID_2_">
			<use xlink:href="#SVGID_1_"  overflow="visible"/>
		</clipPath>
		<path clip-path="url(#SVGID_2_)" fill="#DEDDDE" d="M6,73.8h0.4c0,0,0.4,0.1,0.4-0.6c0-0.7-0.2-0.8-0.4-1.4C6.2,71.1,6,70.5,6,70
			c0-0.5,0.4-1.9,1.1-2.6c0.7-0.8,3.2-3.3,3.2-3.3s1.5-1.3,1.5-2.9c0,0,0-0.8-0.4-1.3c0,0-0.1-0.3-0.1-0.6v-0.9H8.6v0.9
			c0,0.3,0.1,0.6,0.1,0.6c0.5,0.5,0.5,1.3,0.5,1.3c0,1.5-2,2.9-2,2.9S4,66.6,3,67.3c-1,0.8-1.5,2.1-1.5,2.6c0,0.5,0.3,1.1,0.6,1.7
			c0.3,0.6,0.6,0.7,0.6,1.4c0,0.7-0.6,0.6-0.6,0.6H1.6C0,73.8,0,75.2,0,75.2v4.1h4.8v-4.1C4.8,75.2,4.8,73.8,6,73.8"/>
	</g>
</g>
<g>
	<g>
		<defs>
			<rect id="SVGID_3_" x="27.7" y="58.5" width="11.8" height="20.8"/>
		</defs>
		<clipPath id="SVGID_4_">
			<use xlink:href="#SVGID_3_"  overflow="visible"/>
		</clipPath>
		<path clip-path="url(#SVGID_4_)" fill="#DEDDDE" d="M37.9,73.8h-0.5c0,0-0.6,0.1-0.6-0.6c0-0.7,0.2-0.8,0.6-1.4
			c0.3-0.6,0.6-1.2,0.6-1.7c0-0.5-0.5-1.9-1.5-2.6c-1-0.8-4.2-3.3-4.2-3.3s-2-1.3-2-2.9c0,0,0-0.8,0.5-1.3c0,0,0.1-0.3,0.1-0.6v-0.9
			h-2.7v0.9c0,0.3-0.1,0.6-0.1,0.6c-0.4,0.5-0.4,1.3-0.4,1.3c0,1.5,1.5,2.9,1.5,2.9s2.5,2.5,3.2,3.3c0.7,0.8,1.1,2.1,1.1,2.6
			c0,0.5-0.2,1.1-0.5,1.7c-0.2,0.6-0.4,0.7-0.4,1.4c0,0.7,0.4,0.6,0.4,0.6h0.4c1.2,0,1.2,1.4,1.2,1.4v4.1h4.8v-4.1
			C39.5,75.2,39.5,73.8,37.9,73.8"/>
	</g>
</g>
<g>
	<g>
		<defs>
			<rect id="SVGID_5_" x="10" y="59" width="19.6" height="1.7"/>
		</defs>
		<clipPath id="SVGID_6_">
			<use xlink:href="#SVGID_5_"  overflow="visible"/>
		</clipPath>
		<path clip-path="url(#SVGID_6_)" fill="#918F90" d="M10,59.1l9.8-0.1c4.9,0,9.8,0.1,9.8,0.1v0.2c0,0-1.2,0.5-3.1,0.8
			c-0.5,0.1-1,0.2-1.5,0.2c-0.5,0.1-1.1,0.2-1.7,0.2c-0.6,0-1.2,0.1-1.8,0.1c-0.6,0-1.2,0-1.8,0c-0.6,0-1.2,0-1.8,0
			c-0.6,0-1.2-0.1-1.8-0.1C15,60.4,14,60.3,13,60.1c-1.8-0.3-3.1-0.8-3.1-0.8V59.1z"/>
	</g>
</g>
<g>
	<g>
		<defs>
			<rect id="SVGID_7_" x="4.2" y="70.3" width="31.4" height="0.7"/>
		</defs>
		<clipPath id="SVGID_8_">
			<use xlink:href="#SVGID_7_"  overflow="visible"/>
		</clipPath>
		<path clip-path="url(#SVGID_8_)" fill="#918F90" d="M4.2,70.9c0,0,0.5-0.1,1.3-0.1c0.9,0,2.1-0.2,3.6-0.2c1.5,0,3.2-0.2,5-0.2
			c1.8,0,3.8,0,5.8-0.1c2,0,3.9,0.1,5.8,0.1c1.8,0,3.6,0.1,5,0.2c1.5,0.1,2.7,0.2,3.6,0.2c0.9,0.1,1.4,0.1,1.4,0.1V71
			c0,0-7.9,0-15.7,0C12,71,4.2,71,4.2,70.9L4.2,70.9z"/>
	</g>
</g>
<g>
	<g>
		<defs>
			<rect id="SVGID_9_" x="4.8" y="73.1" width="30.3" height="0.3"/>
		</defs>
		<clipPath id="SVGID_10_">
			<use xlink:href="#SVGID_9_"  overflow="visible"/>
		</clipPath>
		<path clip-path="url(#SVGID_10_)" fill="#918F90" d="M4.8,73.4c0,0,0.5,0,1.3,0c0.8,0,2-0.1,3.4-0.1c2.8,0,6.6-0.1,10.4-0.1
			c3.8,0,7.6,0.1,10.4,0.1c1.4,0,2.6,0.1,3.4,0.1c0.8,0,1.3,0,1.3,0v0L4.8,73.4L4.8,73.4z"/>
	</g>
</g>
<path fill="#F2F1F2" d="M35.7,72.2c0,0.2-0.2,0.4-0.4,0.4H4.2c-0.2,0-0.4-0.2-0.4-0.4s0.2-0.4,0.4-0.4h31.1
	C35.5,71.9,35.7,72,35.7,72.2"/>
<path fill="#DEDDDE" d="M19.8,59.2H8.7c0,0-6.2-0.5-6.2-7.7c0,0,0.1-4.3,3.1-8c2.9-3.6,11.7-13.8,11.7-13.8s1.2-1.4,1.2-2.7
	c0,0,0-0.5-0.9-0.5l-5.5,1.6c0,0-1.4,0.4-2.3,1.8c-0.9,1.4-1.3,1.9-1.3,1.9S7.6,33,6.7,33s-1.8-0.9-1.8-1.7l0.1-0.8l-1.3,0.1
	c0,0-0.9,0.1-1.3-0.8C1.9,29,1.3,28,1.5,26.5c0.1-1.5,0.4-3.1,0.4-3.7c0-0.6,0-1.8,1.4-2.3s2.6-1.1,4-2.5S20.7,5.4,20.7,5.4l0.7-0.6
	c0,0,0.4-0.3,0.4-1.2V1.9c0,0,0.1-1.9,1.7-1.9C25,0,38.1,0.8,38.1,13.3c0,12.6-0.6,13.5-2.6,20.5c-1.9,7-2.6,9.3,1.4,16
	c0,0,4.1,9.3-7.5,9.3H19.8z"/>
<path fill="#A7A5A6" d="M14.5,15.4c0,0-0.5-2,0.7-2.5c1.2-0.5,2.8-0.2,3.7,0.3c0.9,0.5,4.1,1.3,4.1,1.3s-2.3,0.4-4.5-0.8
	c-2.2-1.2-3.4,0.5-3.4,1.5L14.5,15.4z"/>
<g>
	<g>
		<defs>
			<rect id="SVGID_11_" x="15.2" y="14.5" width="8.1" height="1.8"/>
		</defs>
		<clipPath id="SVGID_12_">
			<use xlink:href="#SVGID_11_"  overflow="visible"/>
		</clipPath>
		<path clip-path="url(#SVGID_12_)" fill="#A7A5A6" d="M15.2,15.4c0.1,0.1,0.2,0.3,0.3,0.4c0.1,0.1,0.3,0.2,0.4,0.2
			c0.1,0,0.2,0.1,0.2,0.1l0.2,0c0.2,0,0.3,0,0.5,0c0.1,0,0.2,0,0.2-0.1l0.2-0.1c0.2,0,0.3-0.1,0.5-0.1l0.4-0.2
			c0.1,0,0.1-0.1,0.2-0.1c0.1,0,0.1-0.1,0.2-0.1l0,0c0.1-0.2,0.3-0.3,0.5-0.4c0.2-0.1,0.4-0.2,0.6-0.3c0.1,0,0.2-0.1,0.3-0.1
			c0.1,0,0.2,0,0.3,0l0.6,0c0.8,0.1,1.6,0.2,2.4,0.3c-0.8,0-1.6,0-2.4,0l-0.6,0c-0.1,0-0.2,0-0.3,0c-0.1,0-0.2,0-0.3,0.1
			c-0.3,0.1-0.7,0.3-0.9,0.6l0,0c-0.1,0.1-0.2,0.2-0.2,0.2c-0.1,0.1-0.1,0.1-0.2,0.2L18,16.1c-0.2,0.1-0.3,0.1-0.5,0.1l-0.3,0
			c-0.1,0-0.2,0-0.3,0c-0.2,0-0.4,0-0.5,0l-0.3,0c-0.1,0-0.2-0.1-0.3-0.1c-0.2-0.1-0.3-0.2-0.4-0.3C15.4,15.7,15.3,15.6,15.2,15.4"
			/>
	</g>
</g>
<path fill="#A7A5A6" d="M24.4,8.3c0,0,1.6-4.6,4.4-5.5l-1.8,4.5C26.9,7.3,25.5,7.3,24.4,8.3"/>
<path fill="#EBEBEB" d="M27.7,9.9c0,0,2.3-4.5,1-7.1l-2.1,4.5C26.7,7.3,27.6,8.4,27.7,9.9"/>
<path fill="#EBEBEB" d="M29.8,52.7c-1.8-2.8-5.4-7-3.5-13.2c1.9-6.2,4.6-11,4.6-11s3.4-6.8,1.8-9.8c-0.3-0.6-0.7-1-1-1.3
	c-0.2,0.8-1.6,6.4-10.3,8.8l-0.1,0.2l0.2,0.4c0,0,1.1,1,0,2.4C20.3,30.5,9.7,42.3,8.8,47.6c-0.9,5.3,3.3,8.9,6.6,9.3
	c3.3,0.4,19.7,0,19.7,0S31.6,55.6,29.8,52.7"/>
<path fill="#A7A5A6" d="M23.6,7.3c0.4-0.5,0.8-1,1.1-1.5C24.9,5.5,25,5.3,25.2,5l0.2-0.4c0.1-0.1,0.2-0.3,0.3-0.4
	c0.2-0.3,0.4-0.5,0.6-0.8c0.2-0.2,0.5-0.5,0.7-0.7c0.2-0.2,0.5-0.4,0.8-0.6C28,2.1,28.1,2,28.3,1.9c0.1-0.1,0.3-0.1,0.5-0.2l0.1,0
	L29,1.7c0.1,0.1,0.2,0.2,0.2,0.2c0.1,0.1,0.1,0.2,0.2,0.2c0.1,0.2,0.2,0.3,0.2,0.5c0.1,0.3,0.2,0.7,0.2,1c0,0.3,0.1,0.7,0,1
	c0,0.3,0,0.7-0.1,1l-0.2,1c-0.1,0.3-0.1,0.7-0.2,1c-0.2,0.6-0.3,1.3-0.5,1.9l-0.1-0.1c0.5,0.3,0.9,0.7,1.2,1.1
	c0.4,0.4,0.7,0.8,1,1.3c0.3,0.5,0.5,1,0.7,1.5c0.1,0.3,0.2,0.5,0.2,0.8c0.1,0.3,0.1,0.5,0.1,0.8c0.1,0.5,0,1.1,0,1.6L32,17.5
	c0,0.3-0.1,0.6-0.2,0.8c-0.2,0.5-0.4,1-0.7,1.5c-0.3,0.5-0.5,1-0.9,1.4c-0.3,0.5-0.7,0.8-1.1,1.2c-0.4,0.4-0.8,0.8-1.2,1.1
	c-0.4,0.3-0.9,0.7-1.4,0.9c-0.5,0.3-1,0.5-1.5,0.7c-0.5,0.2-1,0.4-1.5,0.6l-0.8,0.3l-0.8,0.2c-0.5,0.1-1,0.3-1.6,0.3l-1.6,0.2l0-0.1
	l1.5-0.4c0.5-0.1,1-0.3,1.5-0.5l0.8-0.3l0.7-0.3c0.5-0.2,1-0.4,1.4-0.7c0.5-0.2,0.9-0.5,1.4-0.8c0.4-0.3,0.9-0.6,1.3-0.9
	c0.4-0.3,0.8-0.7,1.2-1c0.3-0.4,0.7-0.8,1-1.2c0.3-0.4,0.6-0.8,0.9-1.3c0.3-0.4,0.5-0.9,0.7-1.4c0.1-0.2,0.2-0.5,0.2-0.7l0.1-0.8
	c0.1-0.5,0.1-1,0.1-1.6c0-0.3,0-0.5-0.1-0.8c0-0.3-0.1-0.5-0.1-0.8c-0.1-0.5-0.3-1-0.5-1.5c-0.5-0.9-1.2-1.8-2.1-2.3l-0.1,0l0-0.1
	C28.9,9,29,8.4,29.2,7.7c0.1-0.3,0.1-0.7,0.1-1l0.1-1c0-0.3,0-0.6,0-1c0-0.2,0-0.3,0-0.5l-0.1-0.5c0-0.2,0-0.3-0.1-0.5l-0.1-0.4
	c0-0.2-0.1-0.3-0.2-0.4c0-0.1-0.2-0.2-0.2-0.3l0.2,0c-0.5,0.1-1,0.5-1.5,0.9c-0.2,0.2-0.5,0.4-0.7,0.6c-0.2,0.2-0.4,0.4-0.6,0.6
	c-0.1,0.1-0.2,0.3-0.3,0.4l-0.3,0.4C25.3,5.5,25.2,5.7,25,6C24.5,6.5,24.1,6.9,23.6,7.3L23.6,7.3z"/>
<path fill="#A7A5A6" d="M10,27.2c-0.1-0.3-0.2-0.7-0.4-0.8c-0.2-0.1-0.5,0-0.7,0.2C8.6,26.8,8.3,27,8,27.2l-0.8,0.6
	c-0.5,0.4-1.1,0.8-1.7,1.2c-0.3,0.1-0.6,0.4-1,0.4c-0.2,0-0.3,0.1-0.5,0.1l-0.6,0l0,0c-0.1,0-0.1,0-0.2,0c0,0-0.1,0.1-0.1,0.2
	c0,0.1,0,0.2,0.1,0.3l0.1,0.3l-0.2-0.2c-0.1-0.1-0.1-0.2-0.2-0.3c0-0.1-0.1-0.3,0-0.4c0.1-0.1,0.2-0.2,0.3-0.2l0,0L4,29.2
	c0.1,0,0.3-0.1,0.4-0.2c0.3-0.1,0.5-0.3,0.8-0.5c0.3-0.2,0.5-0.4,0.8-0.6l0.8-0.6c0.3-0.2,0.5-0.4,0.8-0.6c0.3-0.2,0.5-0.4,0.9-0.5
	C8.7,26.1,8.9,26,9.1,26c0.2,0,0.5,0,0.6,0.2C10,26.5,10,26.9,10,27.2"/>
<path fill="#BDBCBC" d="M5,30.4c0,0,0.3-0.2,0.7-0.5c0.4-0.3,1.1-0.6,1.7-0.9c0.3-0.2,0.6-0.3,0.9-0.5c0.3-0.2,0.5-0.3,0.7-0.5
	c0.2-0.2,0.3-0.3,0.4-0.4c0.1-0.1,0.2-0.2,0.2-0.2s0,0.1-0.1,0.2c-0.1,0.1-0.1,0.4-0.3,0.5c-0.2,0.2-0.4,0.4-0.7,0.6
	c-0.3,0.2-0.6,0.4-0.9,0.6c-0.3,0.2-0.6,0.3-0.9,0.4c-0.3,0.1-0.6,0.2-0.8,0.4c-0.2,0.1-0.4,0.2-0.6,0.3C5.1,30.4,5,30.4,5,30.4"/>
<path fill="#EBEBEB" d="M16.3,68.1c0,0.7-1.6,1.2-3.7,1.2c-2,0-3.7-0.6-3.7-1.2s1.6-1.2,3.7-1.2C14.7,66.9,16.3,67.4,16.3,68.1"/>
<path fill="#C4C3C3" d="M13.9,25.2c0,0,3.3-4.2,5.8-2.8C19.6,22.3,23.5,23.6,13.9,25.2"/>
<g>
	<g>
		<defs>
			<rect id="SVGID_13_" x="9.7" y="44.6" width="11.9" height="9.6"/>
		</defs>
		<clipPath id="SVGID_14_">
			<use xlink:href="#SVGID_13_"  overflow="visible"/>
		</clipPath>
		<path clip-path="url(#SVGID_14_)" fill="#C4C3C3" d="M11.2,44.6c0,0-0.1,0.4-0.1,1c-0.1,0.6-0.2,1.6-0.2,2.7c0,0.5,0,1.1,0.1,1.7
			c0.1,0.6,0.3,1.1,0.6,1.6c0.3,0.4,0.7,0.7,1.2,0.8c0.5,0.1,1.2,0.1,1.8,0c0.3-0.1,0.8-0.1,1.1-0.2c0.3-0.1,0.6-0.2,0.9-0.3
			c0.6-0.3,1.1-0.6,1.6-1c0.2-0.2,0.5-0.4,0.7-0.7c0.2-0.2,0.4-0.5,0.6-0.7c0.2-0.2,0.3-0.5,0.5-0.7c0.2-0.2,0.3-0.5,0.4-0.7
			c0.2-0.5,0.4-0.9,0.6-1.4c0.2-0.4,0.3-0.8,0.4-1.1c0.2-0.6,0.3-1,0.3-1s0.1,0.4,0.1,1c0,0.3,0,0.7-0.1,1.2c-0.1,0.5-0.1,1-0.3,1.6
			c-0.2,0.6-0.4,1.2-0.7,1.8c-0.1,0.3-0.3,0.6-0.6,0.9c-0.2,0.3-0.5,0.6-0.7,0.9c-0.5,0.6-1.2,1.1-1.9,1.4c-0.4,0.2-0.8,0.3-1.2,0.5
			c-0.4,0.1-0.7,0.2-1.1,0.3c-0.9,0.1-1.7,0.1-2.6-0.1c-0.9-0.2-1.7-0.9-2.1-1.7c-0.4-0.8-0.5-1.6-0.6-2.2c0-0.7,0.1-1.3,0.2-1.9
			c0.2-1.1,0.6-2,0.8-2.6C11,44.9,11.2,44.6,11.2,44.6"/>
	</g>
</g>
<path fill="#D3D2D2" d="M9.2,52.1c-0.3-0.7-0.5-1.4-0.6-2.2c0-0.2,0-0.4,0-0.4h0c0-0.6,0-1.2,0.1-1.9c0.9-5.3,11.5-17.2,12.6-18.5
	c1.2-1.4,0-2.4,0-2.4l-0.2-0.4l0.1-0.2c0.8-0.2,1.5-0.5,2.2-0.7l-5.4,1.1c0.3,0.2,0.3,0.4,0.3,0.4c0,1.3-1.2,2.7-1.2,2.7
	S8.4,40,5.4,43.6c-2.9,3.6-3.1,8-3.1,8c0,7.1,6.2,7.7,6.2,7.7h6.5C11.5,57.2,9.9,54.2,9.2,52.1"/>
</svg>
