<?xml version="1.0" encoding="utf-8"?>
<!-- Generator: Adobe Illustrator 15.0.2, SVG Export Plug-In . SVG Version: 6.00 Build 0)  -->
<!DOCTYPE svg PUBLIC "-//W3C//DTD SVG 1.1//EN" "http://www.w3.org/Graphics/SVG/1.1/DTD/svg11.dtd">
<svg version="1.1" id="Layer_1" xmlns="http://www.w3.org/2000/svg" xmlns:xlink="http://www.w3.org/1999/xlink" x="0px" y="0px"
	 width="43.3px" height="62.1px" viewBox="0 0 43.3 62.1" enable-background="new 0 0 43.3 62.1" xml:space="preserve">
<path fill="#8B4D47" d="M43.3,61c0,0.6-0.5,1.1-1.1,1.1H1.1C0.5,62.1,0,61.6,0,61V5.9c0-0.6,0.5-1.1,1.1-1.1h41.1
	c0.6,0,1.1,0.5,1.1,1.1V61z"/>
<path fill="#B07959" d="M43.3,60.4c0,0.6-0.5,1.1-1.1,1.1H1.1C0.5,61.4,0,61,0,60.4V5.2c0-0.6,0.5-1.1,1.1-1.1h41.1
	c0.6,0,1.1,0.5,1.1,1.1V60.4z"/>
<polygon fill="#8B4D47" points="14.9,8.5 21.7,8.3 21.7,4.1 17.9,4.1 "/>
<polygon fill="#8B4D47" points="25.4,4.1 21.7,4.1 21.7,8.3 28.4,8.5 "/>
<polygon fill="#8B4D47" points="40.1,48 40.1,9.9 2.8,9.9 2.3,58.8 29.8,58.3 29.3,58.8 "/>
<g>
	<defs>
		<polygon id="SVGID_1_" points="2.8,9.4 2.8,58.3 29.8,58.3 40.5,47.5 40.5,9.4 		"/>
	</defs>
	<clipPath id="SVGID_2_">
		<use xlink:href="#SVGID_1_"  overflow="visible"/>
	</clipPath>
	<rect x="2.8" y="9.4" clip-path="url(#SVGID_2_)" fill="#F3EFD9" width="37.8" height="48.9"/>
	
		<line clip-path="url(#SVGID_2_)" fill="none" stroke="#EDCFD3" stroke-width="0.388" stroke-miterlimit="10" x1="8.7" y1="9.4" x2="8.7" y2="58.3"/>
	
		<line clip-path="url(#SVGID_2_)" fill="none" stroke="#C0D1DA" stroke-width="0.155" stroke-miterlimit="10" x1="2.8" y1="13.9" x2="40.5" y2="13.9"/>
	
		<line clip-path="url(#SVGID_2_)" fill="none" stroke="#C0D1DA" stroke-width="0.155" stroke-miterlimit="10" x1="2.8" y1="15.8" x2="40.5" y2="15.8"/>
	
		<line clip-path="url(#SVGID_2_)" fill="none" stroke="#C0D1DA" stroke-width="0.155" stroke-miterlimit="10" x1="2.8" y1="17.7" x2="40.5" y2="17.7"/>
	
		<line clip-path="url(#SVGID_2_)" fill="none" stroke="#C0D1DA" stroke-width="0.155" stroke-miterlimit="10" x1="2.8" y1="19.7" x2="40.5" y2="19.7"/>
	
		<line clip-path="url(#SVGID_2_)" fill="none" stroke="#C0D1DA" stroke-width="0.155" stroke-miterlimit="10" x1="2.8" y1="21.6" x2="40.5" y2="21.6"/>
	
		<line clip-path="url(#SVGID_2_)" fill="none" stroke="#C0D1DA" stroke-width="0.155" stroke-miterlimit="10" x1="2.8" y1="23.5" x2="40.5" y2="23.5"/>
	
		<line clip-path="url(#SVGID_2_)" fill="none" stroke="#C0D1DA" stroke-width="0.155" stroke-miterlimit="10" x1="2.8" y1="25.4" x2="40.5" y2="25.4"/>
	
		<line clip-path="url(#SVGID_2_)" fill="none" stroke="#C0D1DA" stroke-width="0.155" stroke-miterlimit="10" x1="2.8" y1="27.3" x2="40.5" y2="27.3"/>
	
		<line clip-path="url(#SVGID_2_)" fill="none" stroke="#C0D1DA" stroke-width="0.155" stroke-miterlimit="10" x1="2.8" y1="29.2" x2="40.5" y2="29.2"/>
	
		<line clip-path="url(#SVGID_2_)" fill="none" stroke="#C0D1DA" stroke-width="0.155" stroke-miterlimit="10" x1="2.8" y1="31.2" x2="40.5" y2="31.2"/>
	
		<line clip-path="url(#SVGID_2_)" fill="none" stroke="#C0D1DA" stroke-width="0.155" stroke-miterlimit="10" x1="2.8" y1="33.1" x2="40.5" y2="33.1"/>
	
		<line clip-path="url(#SVGID_2_)" fill="none" stroke="#C0D1DA" stroke-width="0.155" stroke-miterlimit="10" x1="2.8" y1="35" x2="40.5" y2="35"/>
	
		<line clip-path="url(#SVGID_2_)" fill="none" stroke="#C0D1DA" stroke-width="0.155" stroke-miterlimit="10" x1="2.8" y1="36.9" x2="40.5" y2="36.9"/>
	
		<line clip-path="url(#SVGID_2_)" fill="none" stroke="#C0D1DA" stroke-width="0.155" stroke-miterlimit="10" x1="2.8" y1="38.8" x2="40.5" y2="38.8"/>
	
		<line clip-path="url(#SVGID_2_)" fill="none" stroke="#C0D1DA" stroke-width="0.155" stroke-miterlimit="10" x1="2.8" y1="40.7" x2="40.5" y2="40.7"/>
	
		<line clip-path="url(#SVGID_2_)" fill="none" stroke="#C0D1DA" stroke-width="0.155" stroke-miterlimit="10" x1="2.8" y1="42.7" x2="40.5" y2="42.7"/>
	
		<line clip-path="url(#SVGID_2_)" fill="none" stroke="#C0D1DA" stroke-width="0.155" stroke-miterlimit="10" x1="2.8" y1="44.6" x2="40.5" y2="44.6"/>
	
		<line clip-path="url(#SVGID_2_)" fill="none" stroke="#C0D1DA" stroke-width="0.155" stroke-miterlimit="10" x1="2.8" y1="46.5" x2="40.5" y2="46.5"/>
	
		<line clip-path="url(#SVGID_2_)" fill="none" stroke="#C0D1DA" stroke-width="0.155" stroke-miterlimit="10" x1="2.8" y1="48.4" x2="40.5" y2="48.4"/>
	
		<line clip-path="url(#SVGID_2_)" fill="none" stroke="#C0D1DA" stroke-width="0.155" stroke-miterlimit="10" x1="2.8" y1="50.3" x2="40.5" y2="50.3"/>
	
		<line clip-path="url(#SVGID_2_)" fill="none" stroke="#C0D1DA" stroke-width="0.155" stroke-miterlimit="10" x1="2.8" y1="52.3" x2="40.5" y2="52.3"/>
	
		<line clip-path="url(#SVGID_2_)" fill="none" stroke="#C0D1DA" stroke-width="0.155" stroke-miterlimit="10" x1="2.8" y1="54.2" x2="40.5" y2="54.2"/>
	
		<line clip-path="url(#SVGID_2_)" fill="none" stroke="#C0D1DA" stroke-width="0.155" stroke-miterlimit="10" x1="2.8" y1="56.1" x2="40.5" y2="56.1"/>
</g>
<polygon fill="#F7F4E4" points="29.8,58.3 40.5,47.5 29.8,47.5 "/>
<g>
	<g>
		<defs>
			<rect id="SVGID_3_" x="27.3" y="47.7" width="2.5" height="10.6"/>
		</defs>
		<clipPath id="SVGID_4_">
			<use xlink:href="#SVGID_3_"  overflow="visible"/>
		</clipPath>
		<polygon clip-path="url(#SVGID_4_)" fill="#F7F4E4" points="29.8,47.7 27.3,58.3 29.8,58.3 		"/>
	</g>
</g>
<path fill="#D3D2D2" d="M9.4,11.5V9.8c0-1.2,1-2.2,2.2-2.2h20.1c1.2,0,2.2,1,2.2,2.2v1.7"/>
<rect x="9.4" y="9.9" fill="#E9E9E9" width="24.5" height="1.6"/>
<path fill="#D3D2D2" d="M24.6,2.8c0-2.8-3-2.8-3-2.8s-3,0.1-3,2.8c0,2.8-3.8,4.8-3.8,4.8h6.7h6.7C28.4,7.6,24.6,5.6,24.6,2.8
	 M21.7,3.9c-0.7,0-1.2-0.6-1.2-1.2c0-0.7,0.6-1.2,1.2-1.2c0.7,0,1.2,0.6,1.2,1.2C22.9,3.4,22.3,3.9,21.7,3.9"/>
<g>
	<g>
		<defs>
			<rect id="SVGID_5_" x="19.6" y="2.7" width="4" height="2"/>
		</defs>
		<clipPath id="SVGID_6_">
			<use xlink:href="#SVGID_5_"  overflow="visible"/>
		</clipPath>
		<path clip-path="url(#SVGID_6_)" fill="#D3D2D2" d="M23.3,2.7c0,0.9-0.7,1.6-1.6,1.6c-0.9,0-1.6-0.7-1.6-1.6h-0.4c0,1.1,0.9,2,2,2
			c1.1,0,2-0.9,2-2H23.3z"/>
	</g>
</g>
<g opacity="0.5">
	<g>
		<defs>
			<rect id="SVGID_7_" x="20" y="2.7" width="3.3" height="1.6"/>
		</defs>
		<clipPath id="SVGID_8_">
			<use xlink:href="#SVGID_7_"  overflow="visible"/>
		</clipPath>
		<path clip-path="url(#SVGID_8_)" fill="#D3D2D2" d="M21.7,4.3c0.9,0,1.6-0.7,1.6-1.6h-0.4c0,0.7-0.6,1.2-1.2,1.2
			c-0.7,0-1.2-0.6-1.2-1.2H20C20,3.6,20.8,4.3,21.7,4.3"/>
	</g>
</g>
<g opacity="0.5">
	<g>
		<defs>
			<rect id="SVGID_9_" x="19.6" y="0.7" width="4" height="2"/>
		</defs>
		<clipPath id="SVGID_10_">
			<use xlink:href="#SVGID_9_"  overflow="visible"/>
		</clipPath>
		<path clip-path="url(#SVGID_10_)" fill="#DAD8E0" d="M21.7,0.7c-1.1,0-2,0.9-2,2H20c0-0.9,0.7-1.6,1.6-1.6s1.6,0.7,1.6,1.6h0.4
			C23.7,1.6,22.8,0.7,21.7,0.7"/>
	</g>
</g>
<g>
	<g>
		<defs>
			<rect id="SVGID_11_" x="20" y="1.1" width="3.3" height="1.6"/>
		</defs>
		<clipPath id="SVGID_12_">
			<use xlink:href="#SVGID_11_"  overflow="visible"/>
		</clipPath>
		<path clip-path="url(#SVGID_12_)" fill="#DAD8E0" d="M21.7,1.5c0.7,0,1.2,0.6,1.2,1.2h0.4c0-0.9-0.7-1.6-1.6-1.6S20,1.8,20,2.7
			h0.4C20.4,2,21,1.5,21.7,1.5"/>
	</g>
</g>
</svg>
