<?xml version="1.0" encoding="utf-8"?>
<!-- Generator: Adobe Illustrator 15.0.2, SVG Export Plug-In . SVG Version: 6.00 Build 0)  -->
<!DOCTYPE svg PUBLIC "-//W3C//DTD SVG 1.1//EN" "http://www.w3.org/Graphics/SVG/1.1/DTD/svg11.dtd">
<svg version="1.1" id="Layer_1" xmlns="http://www.w3.org/2000/svg" xmlns:xlink="http://www.w3.org/1999/xlink" x="0px" y="0px"
	 width="33.9px" height="75.2px" viewBox="0 0 33.9 75.2" enable-background="new 0 0 33.9 75.2" xml:space="preserve">
<path fill="none" stroke="#444142" stroke-width="1.196" stroke-miterlimit="10" d="M17.1,18.9c-0.2-1.2,0.5-2.9,0.8-4
	c0.3-1.1,0.5-2.1,0.5-3.3c-0.1-1.9-1.1-4.8-3-5.7C13.7,5.2,11.6,5.3,9.9,5C7.7,4.6,6.4,3.1,5.7,1C5.6,0.8,5.5,0.5,5.4,0.2"/>
<path fill="#444142" d="M33,50.2c-1-4-2-7.4-3-11.4c-1.1-4.3-0.7-8.6-1-13.1c-0.4-5.5-4.6-6.7-8.5-6.8v0H14v0c-4.1,0-8.6,1.1-9,6.8
	c-0.3,4.4,0.1,8.8-1,13.1c-1,4-2,7.4-3,11.4c-1.5,6-1.7,15.8,2.5,20.3c3.6,3.9,9,4.6,13.5,4.6c4.5,0,9.9-0.7,13.5-4.6
	C34.6,66,34.5,56.3,33,50.2"/>
<g>
	<g>
		<defs>
			<rect id="SVGID_1_" x="17" y="18.9" width="17" height="56.3"/>
		</defs>
		<clipPath id="SVGID_2_">
			<use xlink:href="#SVGID_1_"  overflow="visible"/>
		</clipPath>
		<path clip-path="url(#SVGID_2_)" fill="#7B7979" d="M33,50.2c-1-4-2-7.4-3-11.4c-1.1-4.3-0.7-8.6-1-13.1c-0.4-5.5-4.6-6.7-8.5-6.8
			v0h-0.5v0c3.4,0.1,7,1.3,7.3,6.5c0.3,4.2-0.1,8.3,0.9,12.4c0.9,3.8,1.7,7,2.6,10.8c1.3,5.8,1.4,15-2.1,19.3
			c-3.1,3.7-7.7,4.4-11.6,4.4v2.8c4.5,0,9.9-0.7,13.5-4.6C34.6,66,34.5,56.3,33,50.2"/>
	</g>
</g>
<g>
	<g>
		<defs>
			<rect id="SVGID_3_" x="0" y="18.9" width="17" height="56.3"/>
		</defs>
		<clipPath id="SVGID_4_">
			<use xlink:href="#SVGID_3_"  overflow="visible"/>
		</clipPath>
		<path clip-path="url(#SVGID_4_)" fill="#231F20" d="M5.4,68c-3.6-4.3-3.5-13.6-2.1-19.3c0.9-3.8,1.7-7,2.6-10.8
			c1-4.1,0.6-8.2,0.9-12.4c0.3-5.5,4.2-6.5,7.7-6.5v0H14v0c-4.1,0-8.6,1.1-9,6.8c-0.3,4.4,0.1,8.8-1,13.1c-1,4-2,7.4-3,11.4
			c-1.5,6-1.7,15.8,2.5,20.3c3.6,3.9,9,4.6,13.5,4.6v-2.8C13.1,72.4,8.4,71.7,5.4,68"/>
	</g>
</g>
<g>
	<g>
		<defs>
			<rect id="SVGID_5_" x="17" y="31.8" width="13" height="38.7"/>
		</defs>
		<clipPath id="SVGID_6_">
			<use xlink:href="#SVGID_5_"  overflow="visible"/>
		</clipPath>
		<path clip-path="url(#SVGID_6_)" fill="#444142" d="M25.5,31.8c0,0,0.2,0.7,0.5,1.9c0.3,1.2,0.7,3,1,5.1c0.2,1.1,0.3,2.2,0.5,3.4
			c0.2,1.2,0.2,2.5,0.4,3.8c0.2,1.3,0.4,2.7,0.7,4.1c0.1,0.7,0.3,1.4,0.5,2.1c0.2,0.7,0.4,1.4,0.5,2.1c0.2,1.5,0.3,3,0.1,4.4
			c-0.2,1.5-0.5,2.9-1,4.2c-0.5,1.3-1.2,2.5-2,3.6c-0.8,1-1.8,1.9-2.7,2.5c-2,1.2-3.9,1.5-5.2,1.6c-0.6,0-1.1,0-1.5,0
			c-0.3,0-0.5-0.1-0.5-0.1v-0.2c0,0,0.2,0,0.5-0.1c0.3,0,0.8-0.1,1.4-0.3c0.6-0.2,1.3-0.3,2.1-0.7c0.8-0.3,1.6-0.8,2.4-1.4
			c0.8-0.6,1.5-1.4,2.2-2.3c0.7-0.9,1.3-2,1.8-3.2c0.5-1.2,0.9-2.4,1.1-3.8c0.2-1.3,0.4-2.7,0.4-4.1c0-1.4-0.3-2.8-0.6-4.2
			c-0.3-1.4-0.6-2.7-1-4c-0.3-1.3-0.7-2.6-0.9-3.8C26,41.2,25.8,40,25.7,39c-0.2-2.1-0.3-3.9-0.3-5.2c0-1.3,0-2,0-2L25.5,31.8z"/>
	</g>
</g>
<g opacity="0.7">
	<g>
		<defs>
			<rect id="SVGID_7_" x="14.2" y="23.3" width="5.6" height="11.6"/>
		</defs>
		<clipPath id="SVGID_8_">
			<use xlink:href="#SVGID_7_"  overflow="visible"/>
		</clipPath>
		<g clip-path="url(#SVGID_8_)">
			<g>
				<defs>
					<rect id="SVGID_9_" x="14.2" y="23.3" width="2.8" height="11.6"/>
				</defs>
				<clipPath id="SVGID_10_">
					<use xlink:href="#SVGID_9_"  overflow="visible"/>
				</clipPath>
				<path clip-path="url(#SVGID_10_)" fill="#444142" d="M17,23.3c-1.6,0-2.8,2.6-2.8,5.8s1.3,5.8,2.8,5.8V23.3z"/>
			</g>
		</g>
		<g clip-path="url(#SVGID_8_)">
			<g>
				<defs>
					<rect id="SVGID_11_" x="17" y="23.3" width="2.8" height="11.6"/>
				</defs>
				<clipPath id="SVGID_12_">
					<use xlink:href="#SVGID_11_"  overflow="visible"/>
				</clipPath>
				<path clip-path="url(#SVGID_12_)" fill="#444142" d="M19.8,29.1c0-3.2-1.3-5.8-2.8-5.8v11.6C18.5,34.9,19.8,32.3,19.8,29.1"/>
			</g>
		</g>
	</g>
</g>
<path fill="#D3D2D2" d="M18.9,29.1c0,2.4-0.9,4.4-1.9,4.4s-1.9-2-1.9-4.4c0-2.4,0.9-4.4,1.9-4.4S18.9,26.6,18.9,29.1"/>
<g opacity="0.5">
	<g>
		<defs>
			<rect id="SVGID_13_" x="15" y="24.7" width="3.9" height="4.4"/>
		</defs>
		<clipPath id="SVGID_14_">
			<use xlink:href="#SVGID_13_"  overflow="visible"/>
		</clipPath>
		<path clip-path="url(#SVGID_14_)" fill="#D3D2D2" d="M17,25.9c1.1,0,1.9,1.4,1.9,3.2c0-2.4-0.9-4.4-1.9-4.4s-1.9,2-1.9,4.4
			C15,27.3,15.9,25.9,17,25.9"/>
	</g>
</g>
<g opacity="0.5">
	<g>
		<defs>
			<rect id="SVGID_15_" x="15" y="29.1" width="3.9" height="4.4"/>
		</defs>
		<clipPath id="SVGID_16_">
			<use xlink:href="#SVGID_15_"  overflow="visible"/>
		</clipPath>
		<path clip-path="url(#SVGID_16_)" fill="#D3D2D2" d="M17,32.3c-1.1,0-1.9-1.4-1.9-3.2c0,2.4,0.9,4.4,1.9,4.4s1.9-2,1.9-4.4
			C18.9,30.9,18,32.3,17,32.3"/>
	</g>
</g>
<g opacity="0.5">
	<g>
		<defs>
			<rect id="SVGID_17_" x="15.2" y="30.8" width="3.6" height="0.4"/>
		</defs>
		<clipPath id="SVGID_18_">
			<use xlink:href="#SVGID_17_"  overflow="visible"/>
		</clipPath>
		<path clip-path="url(#SVGID_18_)" fill="#D3D2D2" d="M15.3,31.2h3.4c0-0.1,0.1-0.2,0.1-0.4h-3.6C15.2,30.9,15.2,31,15.3,31.2"/>
	</g>
</g>
<g opacity="0.5">
	<g>
		<defs>
			<rect id="SVGID_19_" x="15.5" y="26" width="3" height="0.4"/>
		</defs>
		<clipPath id="SVGID_20_">
			<use xlink:href="#SVGID_19_"  overflow="visible"/>
		</clipPath>
		<path clip-path="url(#SVGID_20_)" fill="#D3D2D2" d="M15.5,26.4h3c0-0.1-0.1-0.3-0.2-0.4h-2.7C15.5,26.1,15.5,26.2,15.5,26.4"/>
	</g>
</g>
<g opacity="0.5">
	<g>
		<defs>
			<rect id="SVGID_21_" x="15.1" y="29.4" width="3.8" height="0.7"/>
		</defs>
		<clipPath id="SVGID_22_">
			<use xlink:href="#SVGID_21_"  overflow="visible"/>
		</clipPath>
		<path clip-path="url(#SVGID_22_)" fill="#D3D2D2" d="M15.1,30.1h3.8c0-0.2,0-0.4,0-0.7h-3.8C15.1,29.7,15.1,29.9,15.1,30.1"/>
	</g>
</g>
<g opacity="0.5">
	<g>
		<defs>
			<rect id="SVGID_23_" x="15.1" y="28" width="3.8" height="0.7"/>
		</defs>
		<clipPath id="SVGID_24_">
			<use xlink:href="#SVGID_23_"  overflow="visible"/>
		</clipPath>
		<path clip-path="url(#SVGID_24_)" fill="#D3D2D2" d="M15.1,28.7h3.8c0-0.2,0-0.5,0-0.7h-3.7C15.1,28.3,15.1,28.5,15.1,28.7"/>
	</g>
</g>
<g opacity="0.5">
	<g>
		<defs>
			<rect id="SVGID_25_" x="16.2" y="33.1" width="1.6" height="0.4"/>
		</defs>
		<clipPath id="SVGID_26_">
			<use xlink:href="#SVGID_25_"  overflow="visible"/>
		</clipPath>
		<path clip-path="url(#SVGID_26_)" fill="#D3D2D2" d="M17,33.5c0.3,0,0.6-0.1,0.8-0.4h-1.6C16.4,33.4,16.7,33.5,17,33.5"/>
	</g>
</g>
<g opacity="0.5">
	<g>
		<defs>
			<rect id="SVGID_27_" x="15.2" y="27" width="3.5" height="0.4"/>
		</defs>
		<clipPath id="SVGID_28_">
			<use xlink:href="#SVGID_27_"  overflow="visible"/>
		</clipPath>
		<path clip-path="url(#SVGID_28_)" fill="#D3D2D2" d="M15.2,27.3h3.5c0-0.1-0.1-0.3-0.1-0.4h-3.4C15.3,27.1,15.2,27.2,15.2,27.3"/>
	</g>
</g>
<g opacity="0.5">
	<g>
		<defs>
			<rect id="SVGID_29_" x="15.8" y="25.2" width="2.3" height="0.3"/>
		</defs>
		<clipPath id="SVGID_30_">
			<use xlink:href="#SVGID_29_"  overflow="visible"/>
		</clipPath>
		<path clip-path="url(#SVGID_30_)" fill="#D3D2D2" d="M16,25.2c-0.1,0.1-0.1,0.2-0.2,0.3h2.3c-0.1-0.1-0.1-0.2-0.2-0.3H16z"/>
	</g>
</g>
<g opacity="0.5">
	<g>
		<defs>
			<rect id="SVGID_31_" x="15.8" y="32.6" width="2.3" height="0.3"/>
		</defs>
		<clipPath id="SVGID_32_">
			<use xlink:href="#SVGID_31_"  overflow="visible"/>
		</clipPath>
		<path clip-path="url(#SVGID_32_)" fill="#D3D2D2" d="M16,32.9h2c0.1-0.1,0.1-0.2,0.2-0.3h-2.3C15.9,32.7,15.9,32.8,16,32.9"/>
	</g>
</g>
<g opacity="0.5">
	<g>
		<defs>
			<rect id="SVGID_33_" x="16.2" y="24.7" width="1.5" height="0.3"/>
		</defs>
		<clipPath id="SVGID_34_">
			<use xlink:href="#SVGID_33_"  overflow="visible"/>
		</clipPath>
		<path clip-path="url(#SVGID_34_)" fill="#D3D2D2" d="M17,24.7c-0.3,0-0.5,0.1-0.7,0.3h1.5C17.5,24.8,17.2,24.7,17,24.7"/>
	</g>
</g>
<g opacity="0.5">
	<g>
		<defs>
			<rect id="SVGID_35_" x="15.4" y="31.7" width="3.1" height="0.4"/>
		</defs>
		<clipPath id="SVGID_36_">
			<use xlink:href="#SVGID_35_"  overflow="visible"/>
		</clipPath>
		<path clip-path="url(#SVGID_36_)" fill="#D3D2D2" d="M15.6,32.2h2.8c0.1-0.1,0.1-0.3,0.2-0.4h-3.1C15.5,31.9,15.5,32,15.6,32.2"/>
	</g>
</g>
<g opacity="0.5">
	<g>
		<defs>
			<rect id="SVGID_37_" x="15" y="28.7" width="0" height="0.7"/>
		</defs>
		<clipPath id="SVGID_38_">
			<use xlink:href="#SVGID_37_"  overflow="visible"/>
		</clipPath>
		<path clip-path="url(#SVGID_38_)" fill="#444142" d="M15.1,28.7L15.1,28.7l0,0.7h0c0-0.1,0-0.2,0-0.3S15,28.9,15.1,28.7"/>
	</g>
</g>
<g opacity="0.5">
	<g>
		<defs>
			<rect id="SVGID_39_" x="18.9" y="28.7" width="0" height="0.7"/>
		</defs>
		<clipPath id="SVGID_40_">
			<use xlink:href="#SVGID_39_"  overflow="visible"/>
		</clipPath>
		<path clip-path="url(#SVGID_40_)" fill="#444142" d="M18.9,29.4L18.9,29.4l0-0.7h0c0,0.1,0,0.2,0,0.3
			C18.9,29.2,18.9,29.3,18.9,29.4"/>
	</g>
</g>
<g opacity="0.5">
	<g>
		<defs>
			<rect id="SVGID_41_" x="15" y="28.7" width="3.9" height="0.7"/>
		</defs>
		<clipPath id="SVGID_42_">
			<use xlink:href="#SVGID_41_"  overflow="visible"/>
		</clipPath>
		<path clip-path="url(#SVGID_42_)" fill="#444142" d="M15,29.1c0,0.1,0,0.2,0,0.3h3.8c0-0.1,0-0.2,0-0.3s0-0.2,0-0.3h-3.8
			C15,28.9,15,29,15,29.1"/>
	</g>
</g>
<g opacity="0.5">
	<g>
		<defs>
			<rect id="SVGID_43_" x="15.1" y="27.3" width="3.7" height="0.7"/>
		</defs>
		<clipPath id="SVGID_44_">
			<use xlink:href="#SVGID_43_"  overflow="visible"/>
		</clipPath>
		<path clip-path="url(#SVGID_44_)" fill="#444142" d="M15.1,28h3.7c0-0.2-0.1-0.5-0.1-0.7h-3.5C15.2,27.6,15.1,27.8,15.1,28"/>
	</g>
</g>
<g opacity="0.5">
	<g>
		<defs>
			<rect id="SVGID_45_" x="15.3" y="26.4" width="3.4" height="0.6"/>
		</defs>
		<clipPath id="SVGID_46_">
			<use xlink:href="#SVGID_45_"  overflow="visible"/>
		</clipPath>
		<path clip-path="url(#SVGID_46_)" fill="#444142" d="M15.3,27h3.4c0-0.2-0.1-0.4-0.2-0.6h-3C15.4,26.6,15.3,26.8,15.3,27"/>
	</g>
</g>
<g opacity="0.5">
	<g>
		<defs>
			<rect id="SVGID_47_" x="15.6" y="25.5" width="2.7" height="0.5"/>
		</defs>
		<clipPath id="SVGID_48_">
			<use xlink:href="#SVGID_47_"  overflow="visible"/>
		</clipPath>
		<path clip-path="url(#SVGID_48_)" fill="#444142" d="M15.6,26h2.7c-0.1-0.2-0.2-0.3-0.2-0.5h-2.3C15.8,25.6,15.7,25.8,15.6,26"/>
	</g>
</g>
<g opacity="0.5">
	<g>
		<defs>
			<rect id="SVGID_49_" x="16" y="25" width="1.9" height="0.2"/>
		</defs>
		<clipPath id="SVGID_50_">
			<use xlink:href="#SVGID_49_"  overflow="visible"/>
		</clipPath>
		<path clip-path="url(#SVGID_50_)" fill="#444142" d="M17.7,25h-1.5c-0.1,0.1-0.1,0.1-0.2,0.2h1.9C17.9,25.2,17.8,25.1,17.7,25"/>
	</g>
</g>
<g opacity="0.5">
	<g>
		<defs>
			<rect id="SVGID_51_" x="15.1" y="30.1" width="3.8" height="0.7"/>
		</defs>
		<clipPath id="SVGID_52_">
			<use xlink:href="#SVGID_51_"  overflow="visible"/>
		</clipPath>
		<path clip-path="url(#SVGID_52_)" fill="#444142" d="M15.2,30.8h3.6c0-0.2,0.1-0.5,0.1-0.7h-3.8C15.1,30.3,15.2,30.6,15.2,30.8"/>
	</g>
</g>
<g opacity="0.5">
	<g>
		<defs>
			<rect id="SVGID_53_" x="15.3" y="31.2" width="3.4" height="0.6"/>
		</defs>
		<clipPath id="SVGID_54_">
			<use xlink:href="#SVGID_53_"  overflow="visible"/>
		</clipPath>
		<path clip-path="url(#SVGID_54_)" fill="#444142" d="M15.4,31.7h3.1c0.1-0.2,0.1-0.4,0.2-0.6h-3.4C15.3,31.4,15.4,31.6,15.4,31.7"
			/>
	</g>
</g>
<g opacity="0.5">
	<g>
		<defs>
			<rect id="SVGID_55_" x="15.6" y="32.2" width="2.8" height="0.5"/>
		</defs>
		<clipPath id="SVGID_56_">
			<use xlink:href="#SVGID_55_"  overflow="visible"/>
		</clipPath>
		<path clip-path="url(#SVGID_56_)" fill="#444142" d="M15.8,32.6h2.3c0.1-0.1,0.2-0.3,0.2-0.5h-2.8C15.7,32.3,15.7,32.5,15.8,32.6"
			/>
	</g>
</g>
<g opacity="0.5">
	<g>
		<defs>
			<rect id="SVGID_57_" x="16" y="32.9" width="2" height="0.2"/>
		</defs>
		<clipPath id="SVGID_58_">
			<use xlink:href="#SVGID_57_"  overflow="visible"/>
		</clipPath>
		<path clip-path="url(#SVGID_58_)" fill="#444142" d="M16.2,33.1h1.6c0.1-0.1,0.1-0.1,0.2-0.2h-2C16,33,16.1,33,16.2,33.1"/>
	</g>
</g>
<g opacity="0.5">
	<g>
		<defs>
			<rect id="SVGID_59_" x="15" y="24.8" width="3.9" height="8.5"/>
		</defs>
		<clipPath id="SVGID_60_">
			<use xlink:href="#SVGID_59_"  overflow="visible"/>
		</clipPath>
		<path clip-path="url(#SVGID_60_)" fill="#D3D2D2" d="M15.3,31.1h3.4c0-0.1,0.1-0.2,0.1-0.4h-3.6C15.2,30.8,15.2,31,15.3,31.1"/>
		<path clip-path="url(#SVGID_60_)" fill="#D3D2D2" d="M15.4,26.5h3c0-0.1-0.1-0.3-0.2-0.4h-2.7C15.5,26.2,15.5,26.3,15.4,26.5"/>
		<path clip-path="url(#SVGID_60_)" fill="#D3D2D2" d="M15.1,30.1h3.8c0-0.2,0-0.4,0-0.6H15C15.1,29.6,15.1,29.8,15.1,30.1"/>
		<path clip-path="url(#SVGID_60_)" fill="#D3D2D2" d="M15,28.8h3.8c0-0.2,0-0.5,0-0.7h-3.7C15.1,28.3,15.1,28.5,15,28.8"/>
		<path clip-path="url(#SVGID_60_)" fill="#D3D2D2" d="M17,33.3c0.3,0,0.6-0.1,0.8-0.4h-1.6C16.4,33.2,16.7,33.3,17,33.3"/>
		<path clip-path="url(#SVGID_60_)" fill="#D3D2D2" d="M15.2,27.4h3.5c0-0.1-0.1-0.2-0.1-0.4h-3.4C15.2,27.2,15.2,27.3,15.2,27.4"/>
		<path clip-path="url(#SVGID_60_)" fill="#D3D2D2" d="M16,25.4c-0.1,0.1-0.1,0.2-0.2,0.3h2.3c-0.1-0.1-0.1-0.2-0.2-0.3H16z"/>
		<path clip-path="url(#SVGID_60_)" fill="#D3D2D2" d="M16,32.7h2c0.1-0.1,0.1-0.2,0.2-0.3h-2.3C15.9,32.6,15.9,32.7,16,32.7"/>
		<path clip-path="url(#SVGID_60_)" fill="#D3D2D2" d="M17,24.8c-0.3,0-0.5,0.1-0.7,0.3h1.5C17.5,25,17.2,24.8,17,24.8"/>
		<path clip-path="url(#SVGID_60_)" fill="#D3D2D2" d="M15.6,32h2.8c0.1-0.1,0.1-0.3,0.2-0.4h-3.1C15.5,31.8,15.5,31.9,15.6,32"/>
		<path clip-path="url(#SVGID_60_)" fill="#444142" d="M18.9,29.4L18.9,29.4l0-0.7h0c0,0.1,0,0.2,0,0.3
			C18.9,29.2,18.9,29.3,18.9,29.4"/>
		<path clip-path="url(#SVGID_60_)" fill="#444142" d="M15,29.1c0,0.1,0,0.2,0,0.3h3.8c0-0.1,0-0.2,0-0.3c0-0.1,0-0.2,0-0.3H15
			C15,28.9,15,29,15,29.1"/>
		<path clip-path="url(#SVGID_60_)" fill="#444142" d="M15.1,28.1h3.7c0-0.2-0.1-0.5-0.1-0.7h-3.5C15.2,27.6,15.1,27.8,15.1,28.1"/>
		<path clip-path="url(#SVGID_60_)" fill="#444142" d="M15.3,27h3.4c0-0.2-0.1-0.4-0.2-0.6h-3C15.4,26.7,15.3,26.8,15.3,27"/>
		<path clip-path="url(#SVGID_60_)" fill="#444142" d="M15.6,26.1h2.7c-0.1-0.2-0.2-0.3-0.2-0.4h-2.3C15.8,25.8,15.7,25.9,15.6,26.1
			"/>
		<path clip-path="url(#SVGID_60_)" fill="#444142" d="M17.7,25.2h-1.5c-0.1,0.1-0.1,0.1-0.2,0.2h1.9C17.8,25.3,17.8,25.2,17.7,25.2
			"/>
		<path clip-path="url(#SVGID_60_)" fill="#444142" d="M15.2,30.7h3.6c0-0.2,0.1-0.4,0.1-0.7h-3.8C15.1,30.3,15.1,30.5,15.2,30.7"/>
		<path clip-path="url(#SVGID_60_)" fill="#444142" d="M15.4,31.6h3.1c0.1-0.2,0.1-0.4,0.2-0.6h-3.4C15.3,31.3,15.4,31.5,15.4,31.6"
			/>
		<path clip-path="url(#SVGID_60_)" fill="#444142" d="M15.8,32.5h2.3c0.1-0.1,0.2-0.3,0.2-0.4h-2.8C15.6,32.2,15.7,32.3,15.8,32.5"
			/>
		<path clip-path="url(#SVGID_60_)" fill="#444142" d="M16.2,33h1.6c0.1-0.1,0.1-0.1,0.2-0.2h-2C16,32.8,16.1,32.9,16.2,33"/>
	</g>
</g>
<line fill="none" stroke="#231F20" stroke-width="0.598" stroke-miterlimit="10" x1="17" y1="18.9" x2="17" y2="23.3"/>
<path fill="none" stroke="#231F20" stroke-width="0.598" stroke-miterlimit="10" d="M5.5,39.1c0,0,3-1.3,11.4-1.3l0-2.9"/>
<path fill="none" stroke="#231F20" stroke-width="0.598" stroke-miterlimit="10" d="M28.4,39.1c0,0-3-1.3-11.4-1.3l0-2.9"/>
<g>
	<g>
		<defs>
			<rect id="SVGID_61_" x="2.3" y="18.9" width="29.4" height="53.6"/>
		</defs>
		<clipPath id="SVGID_62_">
			<use xlink:href="#SVGID_61_"  overflow="visible"/>
		</clipPath>
		<path clip-path="url(#SVGID_62_)" fill="#444142" d="M14.5,18.9L14.5,18.9L14.5,18.9L14.5,18.9c-1.4,0.1-2.8,0.2-4.1,0.8
			C9,20.2,8,21.3,7.5,22.6c-0.6,1.3-0.7,2.7-0.7,4.1c-0.1,1.4-0.1,2.8-0.1,4.2c0,0.7-0.1,1.4-0.1,2.1c-0.1,0.7,0,1.4-0.2,2.1
			c-0.2,1.4-0.4,2.8-0.8,4.2l-2,8.2C3,50.2,2.6,53,2.5,55.8c-0.1,2.8,0.2,5.6,1,8.3c0.4,1.3,1,2.6,1.9,3.7c0.5,0.5,1,1,1.5,1.5
			c0.6,0.4,1.1,0.9,1.7,1.2c2.5,1.4,5.3,1.7,8.1,1.7c1.4,0,2.8-0.1,4.2-0.3c0.7-0.1,1.4-0.3,2-0.5c0.3-0.1,0.7-0.2,1-0.4
			c0.3-0.1,0.7-0.2,1-0.4l0.9-0.5c0.3-0.2,0.6-0.4,0.8-0.6c0.6-0.4,1-0.9,1.5-1.4c0.9-1,1.6-2.3,2-3.6c0.9-2.6,1.2-5.5,1.2-8.3
			c0-2.8-0.3-5.6-1-8.3l-2-8.2c-0.7-2.7-1-5.6-1.1-8.4c0-1.4,0-2.8-0.1-4.2c0-1.4,0-2.8-0.5-4.1c-0.2-0.6-0.6-1.3-1-1.8
			c-0.5-0.5-1-1-1.6-1.3c-1.2-0.7-2.7-0.9-4.1-1l0,0v0v0h0l0,0l0,0c1.4,0.1,2.8,0.2,4.1,0.9c0.6,0.3,1.2,0.7,1.7,1.3
			c0.5,0.5,0.8,1.2,1.1,1.8c0.5,1.4,0.5,2.8,0.6,4.2c0.1,1.4,0.1,2.8,0.1,4.2c0.1,2.8,0.4,5.6,1.2,8.3l2,8.2c0.7,2.7,1,5.6,1,8.4
			c0,2.8-0.3,5.7-1.2,8.4c-0.5,1.3-1.1,2.7-2.1,3.7c-0.5,0.5-1,1.1-1.6,1.4c-0.3,0.2-0.6,0.4-0.9,0.6L25,70.9
			c-0.3,0.2-0.6,0.3-1,0.4c-0.3,0.1-0.7,0.3-1,0.4c-0.7,0.2-1.4,0.4-2.1,0.5c-1.4,0.3-2.8,0.3-4.2,0.3c-2.8,0-5.7-0.4-8.2-1.8
			c-0.6-0.3-1.2-0.8-1.8-1.2c-0.6-0.4-1-1-1.5-1.5c-0.9-1.1-1.5-2.4-1.9-3.8c-0.9-2.7-1.1-5.6-1.1-8.4c0-2.8,0.4-5.7,1.1-8.4
			l1.9-8.2c0.4-1.4,0.6-2.8,0.8-4.1c0.1-0.7,0.1-1.4,0.2-2.1c0-0.7,0.1-1.4,0.1-2.1c0-1.4,0.1-2.8,0.1-4.2c0-1.4,0.1-2.9,0.7-4.2
			c0.6-1.3,1.7-2.4,3-2.9C11.6,19,13,18.9,14.5,18.9L14.5,18.9L14.5,18.9L14.5,18.9z"/>
	</g>
</g>
</svg>
