<?xml version="1.0" encoding="utf-8"?>
<!-- Generator: Adobe Illustrator 15.0.2, SVG Export Plug-In . SVG Version: 6.00 Build 0)  -->
<!DOCTYPE svg PUBLIC "-//W3C//DTD SVG 1.1//EN" "http://www.w3.org/Graphics/SVG/1.1/DTD/svg11.dtd">
<svg version="1.1" id="Layer_1" xmlns="http://www.w3.org/2000/svg" xmlns:xlink="http://www.w3.org/1999/xlink" x="0px" y="0px"
	 width="40.3px" height="60.4px" viewBox="0 0 40.3 60.4" enable-background="new 0 0 40.3 60.4" xml:space="preserve">
<path fill="#BDBCBC" d="M40.3,11.1C40.3,5,37.1,0,33.2,0c-3.9,0-7,5-7,11.1c0,3.2,0.8,5.6,2.2,7.3h0c0,0,0,0,0,0
	c0.4,0.5,0.8,0.9,1.3,1.2c0.2,0.2,0.4,0.4,0.6,0.6c1.5,1.6,1.6,2.3,1.6,2.3c1.4,8-1.3,24.8-2.2,31.3c-0.8,6.5,3.5,6.6,3.5,6.6
	c0,0,4.4-0.1,3.5-6.6c-0.8-6.5-3.5-23.3-2.2-31.3c0,0,0.1-0.8,1.6-2.3c0.2-0.2,0.4-0.4,0.6-0.6c0.5-0.3,0.9-0.7,1.3-1.2c0,0,0,0,0,0
	h0C39.5,16.7,40.3,14.3,40.3,11.1"/>
<polygon fill="#BDBCBC" points="21.1,20 21.1,20 21.1,20 "/>
<polygon fill="#BDBCBC" points="21.1,18.5 21.1,18.5 21.1,18.5 "/>
<path fill="#BDBCBC" d="M21.5,53.8C20.6,47.3,17.9,33,19.3,25c0,0,1.4-0.7,1.5-2.2c0-0.1,0-0.2,0-0.4l-0.2-0.3l0.3-0.2v0l-0.2-0.3
	l0.3-0.2l-0.2-0.3l0.3-0.2v0l-0.2-0.3l0.3-0.2c0,0,0,0,0,0l-0.2-0.3l0.3-0.2l-0.2-0.3l0.3-0.2c0,0,0,0,0,0l-0.2-0.3l0.3-0.2v0
	l-0.2-0.3l0.3-0.2l-0.2-0.3l0.3-0.2v0l-0.2-0.3l0.3-0.2v0l-0.2-0.3l0.3-0.2v0l-0.2-0.2l0.2-0.2v0l-0.2-0.2l0.2-0.2v0l-0.3-0.2
	l0.2-0.2v0l-0.3-0.2l0.2-0.3c0,0,0,0,0,0l-0.3-0.2l0.2-0.3v0l-0.3-0.2l0.2-0.3c0,0,0,0,0,0l-0.3-0.2l0.2-0.3v0l-0.3-0.2l0.2-0.3
	c0,0,0,0,0,0l-0.3-0.2l0.2-0.3c0,0,0,0,0,0l-0.3-0.2L21,12c0,0,0,0,0,0l-0.3-0.2l0.2-0.3c0,0,0,0,0,0l-0.3-0.2l0.2-0.3c0,0,0,0,0,0
	l-0.3-0.2l0.2-0.3c0,0,0,0,0,0l-0.3-0.2l0.2-0.3c0,0,0,0,0,0l-0.3-0.2l0.2-0.3c0,0,0,0,0,0l-0.3-0.2l0.2-0.3c0,0,0,0,0,0l-0.3-0.2
	l0.2-0.3c0,0,0,0,0,0l-0.3-0.2l0.2-0.3c0,0,0,0,0,0l-0.3-0.2l0.2-0.3c0,0,0,0,0,0l-0.3-0.2l0.2-0.3c0,0,0,0,0,0L20,6.9l0.2-0.3
	c0,0,0,0,0,0l-0.3-0.2L20,6.2c0,0,0,0,0,0L19.7,6l0.2-0.3c0,0,0,0,0,0l-0.3-0.2l0.2-0.3c0,0,0,0,0,0L19.4,5l0.2-0.3l0,0l-0.3-0.1
	l0.1-0.3c0,0,0,0,0,0l-0.3-0.1l0.1-0.3c0,0,0,0,0,0l-0.3-0.1l0.1-0.3c0,0,0,0,0,0l-0.3-0.1l0.1-0.3c-0.8-1.7-1.5-2.5-1.8-2.5
	c-0.9,0-0.8,1.5-0.8,1.5l0.2,21c0,1.5,0.1,2.2,0.1,2.2c1.4,8-1.3,22.3-2.2,28.8c-0.8,6.5,3.5,6.6,3.5,6.6S22.3,60.3,21.5,53.8"/>
<path fill="#BDBCBC" d="M20.9,21.4"/>
<path fill="#BDBCBC" d="M7.8,53.8C7,47.3,4.3,30.5,5.6,22.5c0,0,0.4-2.2,1.8-2.2c1,0,1.1-1.9,1.1-1.9s0.1-18-0.5-18H7.8
	c0,0-0.5,6.3-0.5,17.6c0,0-0.1,0.6-0.5,0.6c-0.4,0-0.5-0.6-0.5-0.6S6.1,0.4,5.5,0.4H5.3c0,0-0.4,5.9-0.4,17.6c0,0,0,0,0,0
	c0,0.4-0.3,0.7-0.6,0.7l0,0l0,0c-0.3,0-0.6-0.3-0.6-0.7c0,0,0,0,0,0C3.7,6.3,3.3,0.4,3.3,0.4H3C2.5,0.4,2.2,18,2.2,18
	s-0.1,0.6-0.5,0.6c-0.4,0-0.5-0.6-0.5-0.6C1.2,6.7,0.8,0.4,0.8,0.4H0.5c-0.6,0-0.5,18-0.5,18s0.1,1.9,1.1,1.9c1.5,0,1.8,2.2,1.8,2.2
	c1.4,8-1.3,24.8-2.2,31.3c-0.8,6.5,3.5,6.6,3.5,6.6S8.6,60.3,7.8,53.8"/>
<path fill="#EDEDED" d="M3.3,21.8c0.5,3.1,0.8,6.2,0.9,9.3c0.1,3.1,0,6.2-0.4,9.3c-0.2,1.5-0.5,3.1-0.8,4.6
	c-0.3,1.5-0.5,3.1-0.7,4.6c-0.2,1.5-0.3,3.1-0.1,4.6c0.1,0.8,0.2,1.5,0.4,2.3c0.2,0.7,0.8,1.4,1.6,1.4c-0.4,0-0.8-0.1-1.1-0.4
	c-0.3-0.3-0.5-0.6-0.6-1c-0.3-0.7-0.4-1.5-0.5-2.3c-0.1-1.6,0-3.1,0.1-4.7c0.1-1.5,0.4-3.1,0.6-4.6c0.3-1.5,0.6-3,0.8-4.6
	C3.9,37.2,4.1,34.1,4,31C3.9,27.9,3.7,24.8,3.3,21.8"/>
<path fill="#827F80" d="M5.2,21.8c-0.4,3.1-0.6,6.2-0.7,9.3c-0.1,3.1,0.1,6.2,0.5,9.3c0.2,1.5,0.5,3,0.8,4.6
	c0.3,1.5,0.5,3.1,0.6,4.6c0.1,1.5,0.2,3.1,0.1,4.7c-0.1,0.8-0.2,1.6-0.5,2.3c-0.2,0.4-0.4,0.7-0.6,1c-0.3,0.3-0.7,0.4-1.1,0.4
	c0.8,0,1.4-0.7,1.6-1.4c0.3-0.7,0.4-1.5,0.4-2.3c0.1-1.5,0-3.1-0.1-4.6c-0.2-1.5-0.4-3.1-0.7-4.6c-0.3-1.5-0.6-3-0.8-4.6
	c-0.4-3.1-0.5-6.2-0.4-9.3C4.4,27.9,4.7,24.8,5.2,21.8"/>
<path fill="#EDEDED" d="M32.3,21.8c0.5,3.1,0.8,6.2,0.9,9.3c0.1,3.1,0,6.2-0.4,9.3c-0.2,1.5-0.5,3.1-0.8,4.6
	c-0.3,1.5-0.5,3.1-0.7,4.6c-0.2,1.5-0.3,3.1-0.1,4.6c0.1,0.8,0.2,1.5,0.4,2.3c0.2,0.7,0.8,1.4,1.6,1.4c-0.4,0-0.8-0.1-1.1-0.4
	c-0.3-0.3-0.5-0.6-0.6-1c-0.3-0.7-0.4-1.5-0.5-2.3c-0.1-1.6,0-3.1,0.1-4.7c0.1-1.5,0.4-3.1,0.6-4.6c0.3-1.5,0.6-3,0.8-4.6
	c0.4-3.1,0.5-6.2,0.5-9.3C32.9,27.9,32.7,24.8,32.3,21.8"/>
<path fill="#827F80" d="M34.2,21.8c-0.4,3.1-0.6,6.2-0.7,9.3c-0.1,3.1,0.1,6.2,0.5,9.3c0.2,1.5,0.5,3,0.8,4.6
	c0.3,1.5,0.5,3.1,0.6,4.6c0.1,1.5,0.2,3.1,0.1,4.7c-0.1,0.8-0.2,1.6-0.5,2.3c-0.2,0.4-0.4,0.7-0.6,1c-0.3,0.3-0.7,0.4-1.1,0.4
	c0.8,0,1.4-0.7,1.6-1.4c0.3-0.7,0.4-1.5,0.4-2.3c0.1-1.5,0-3.1-0.1-4.6c-0.2-1.5-0.4-3.1-0.7-4.6c-0.3-1.5-0.6-3-0.8-4.6
	c-0.4-3.1-0.5-6.2-0.4-9.3C33.4,27.9,33.7,24.8,34.2,21.8"/>
<path fill="#EDEDED" d="M17,24.2c0.5,2.9,0.8,5.7,0.9,8.6c0.1,2.9-0.1,5.8-0.6,8.7c-0.5,2.8-1.1,5.7-1.3,8.6
	c-0.1,1.4-0.2,2.9-0.1,4.3c0.1,0.7,0.2,1.4,0.5,2.1c0.3,0.7,0.8,1.3,1.6,1.2c-0.8,0-1.4-0.6-1.6-1.2c-0.3-0.7-0.4-1.4-0.5-2.1
	c-0.2-1.4-0.1-2.9,0-4.3c0.2-2.9,0.8-5.8,1.3-8.6c0.5-2.8,0.7-5.7,0.6-8.6C17.6,30,17.3,27.1,17,24.2"/>
<path fill="#827F80" d="M18.9,24.2c-0.3,2.9-0.6,5.8-0.7,8.6c-0.1,2.9,0.2,5.8,0.6,8.6c0.5,2.8,1,5.7,1.3,8.6c0.1,1.4,0.2,2.9,0,4.3
	c-0.1,0.7-0.2,1.4-0.5,2.1c-0.3,0.7-0.9,1.3-1.6,1.2c0.8,0,1.3-0.6,1.6-1.2c0.3-0.7,0.4-1.4,0.5-2.1c0.1-1.4,0.1-2.9-0.1-4.3
	c-0.2-2.9-0.8-5.7-1.3-8.6c-0.5-2.9-0.6-5.8-0.6-8.7C18.1,30,18.4,27.1,18.9,24.2"/>
<path fill="#B0AEAF" d="M38.9,10.5c0,5.2-2.5,9.5-5.6,9.5c-3.1,0-5.6-4.2-5.6-9.5s2.5-9.5,5.6-9.5C36.4,1.1,38.9,5.3,38.9,10.5"/>
<path fill="#BCBBBB" d="M37.5,9.5c0,4.4-2.1,7.9-4.7,7.9c-2.6,0-4.7-3.5-4.7-7.9s2.1-7.9,4.7-7.9C35.4,1.6,37.5,5.2,37.5,9.5"/>
<path fill="#C8C7C7" d="M36.1,8.5c0,3.5-1.7,6.3-3.8,6.3s-3.8-2.8-3.8-6.3s1.7-6.3,3.8-6.3S36.1,5,36.1,8.5"/>
<path fill="#D4D3D3" d="M34.7,7.5c0,2.6-1.3,4.8-2.8,4.8c-1.6,0-2.8-2.1-2.8-4.8c0-2.6,1.3-4.8,2.8-4.8C33.4,2.7,34.7,4.9,34.7,7.5"
	/>
<path fill="#E0E0E0" d="M33.2,6.5c0,1.8-0.9,3.2-1.9,3.2c-1.1,0-1.9-1.4-1.9-3.2s0.9-3.2,1.9-3.2C32.4,3.3,33.2,4.7,33.2,6.5"/>
<path fill="#A5A3A3" d="M38.6,10.3c0,5.3-2.6,9.6-5.9,9.6c-0.8,0-1.5-0.3-2.2-0.7c0.9,0.8,1.9,1.3,3,1.3c3.2,0,5.9-4.3,5.9-9.6
	c0-4-1.5-7.5-3.7-8.9C37.5,3.7,38.6,6.8,38.6,10.3"/>
<path fill="#D3D2D2" d="M29.2,18.3c-0.6-1.5-1-3.4-1-5.3c0-5.5,2.7-9.9,6.1-9.9c1.6,0,3,0.9,4.1,2.5c-1.1-2.7-3-4.6-5.2-4.6
	c-3.4,0-6.1,4.4-6.1,9.9C27.1,13.8,27.9,16.4,29.2,18.3"/>
<path fill="#E9E9E9" d="M29.4,16.5c-0.7-1.5-1.1-3.2-1.1-5c0-1.7,0.2-3.5,0.8-5.1c0.3-0.8,0.7-1.6,1.3-2.3c0.6-0.7,1.3-1.3,2.2-1.6
	c0.9-0.3,1.9-0.1,2.6,0.5c0.7,0.5,1.3,1.2,1.6,2c-0.5-0.7-1.1-1.3-1.8-1.6c-0.7-0.4-1.5-0.4-2.2-0.2c-0.7,0.3-1.3,0.8-1.8,1.4
	c-0.5,0.6-0.9,1.3-1.1,2.1c-0.6,1.5-0.9,3.1-1,4.8C28.9,13.2,29,14.9,29.4,16.5"/>
</svg>
