<?xml version="1.0" encoding="utf-8"?>
<!-- Generator: Adobe Illustrator 15.0.2, SVG Export Plug-In . SVG Version: 6.00 Build 0)  -->
<!DOCTYPE svg PUBLIC "-//W3C//DTD SVG 1.1//EN" "http://www.w3.org/Graphics/SVG/1.1/DTD/svg11.dtd">
<svg version="1.1" id="Layer_1" xmlns="http://www.w3.org/2000/svg" xmlns:xlink="http://www.w3.org/1999/xlink" x="0px" y="0px"
	 width="28.8px" height="67.6px" viewBox="0 0 28.8 67.6" enable-background="new 0 0 28.8 67.6" xml:space="preserve">
<path fill="#473F65" d="M27.4,4.3c-0.9-3.2-2.4-3.8-5.8-4.1C18.1,0,14.7,0.1,14.4,0c-0.3,0.1-3.7,0-7.2,0.3C3.7,0.5,2.3,1.1,1.3,4.3
	C0.4,7.6,0,26.7,0,32.4s1.6,26.3,2,30.3c0.4,3.9,2.7,4,4.7,4.5c2.1,0.5,7.6,0.4,7.6,0.4s5.6,0.1,7.6-0.4c2.1-0.5,4.3-0.6,4.7-4.5
	c0.4-3.9,2-24.5,2-30.3S28.4,7.6,27.4,4.3"/>
<g opacity="0.3">
	<g>
		<defs>
			<rect id="SVGID_1_" x="0.1" y="0" width="28.8" height="67.6"/>
		</defs>
		<clipPath id="SVGID_2_">
			<use xlink:href="#SVGID_1_"  overflow="visible"/>
		</clipPath>
		<g clip-path="url(#SVGID_2_)">
			<defs>
				<path id="SVGID_3_" d="M27.5,4.3c-0.9-3.2-2.4-3.8-5.8-4.1C18.2,0,14.7,0.1,14.5,0c-0.3,0-3.7-0.1-7.2,0.2
					C3.8,0.5,2.4,1.1,1.4,4.3C0.5,7.6,0.1,26.7,0.1,32.4s1.6,26.3,2,30.3c0.4,3.9,2.7,4,4.7,4.5c2.1,0.5,7.6,0.4,7.6,0.4
					s5.6,0.1,7.6-0.4c2.1-0.5,4.3-0.6,4.7-4.5c0.4-3.9,2-24.5,2-30.3S28.4,7.6,27.5,4.3"/>
			</defs>
			<clipPath id="SVGID_4_">
				<use xlink:href="#SVGID_3_"  overflow="visible"/>
			</clipPath>
			<path clip-path="url(#SVGID_4_)" fill="#386B95" d="M27.5,4.3c-0.9-3.2-2.4-3.8-5.8-4.1C18.2,0,14.7,0.1,14.5,0
				c-0.3,0-3.7,0-7.2,0.2C3.8,0.5,2.4,1.1,1.4,4.3C0.5,7.6,0.1,26.7,0.1,32.4s1.6,26.3,2,30.3c0.4,3.9,2.7,4,4.7,4.5
				c2.1,0.5,7.6,0.4,7.6,0.4s5.6,0.1,7.6-0.4c2.1-0.5,4.3-0.6,4.7-4.5c0.4-3.9,2-24.5,2-30.3S28.4,7.6,27.5,4.3"/>
			<path clip-path="url(#SVGID_4_)" fill="#3C6688" d="M25.3,4.3c-0.9-3.2-2.2-3.8-5.4-4.1C16.7,0,13.6,0.1,13.3,0
				c-0.3,0-3.4,0-6.6,0.2C3.5,0.5,2.2,1.1,1.3,4.3S0.1,26.7,0.1,32.4s1.4,26.3,1.9,30.3c0.4,3.9,2.5,4,4.4,4.5c1.9,0.5,7,0.4,7,0.4
				c0,0,5.1,0.1,7-0.4c1.9-0.5,4-0.6,4.4-4.5c0.4-3.9,1.9-24.5,1.9-30.3S26.2,7.6,25.3,4.3"/>
			<path clip-path="url(#SVGID_4_)" fill="#3F617B" d="M23.1,4.3c-0.8-3.2-2-3.8-4.9-4.1c-2.9-0.3-5.8-0.2-6-0.2h0
				c-0.2,0-3.1,0-6,0.2C3.2,0.5,2,1.1,1.2,4.3C0.4,7.6,0.1,26.7,0.1,32.4s1.3,26.3,1.7,30.3c0.4,3.9,2.3,4,4,4.5
				c1.7,0.5,6.4,0.4,6.4,0.4s4.7,0.1,6.4-0.4c1.7-0.5,3.6-0.6,4-4.5c0.4-3.9,1.7-24.5,1.7-30.3S23.9,7.6,23.1,4.3"/>
			<path clip-path="url(#SVGID_4_)" fill="#435C6E" d="M21,4.3c-0.7-3.2-1.8-3.8-4.5-4.1C13.9,0,11.3,0.1,11,0h0
				c-0.2,0-2.8,0-5.5,0.2C2.9,0.5,1.8,1.1,1.1,4.3c-0.7,3.2-1,22.3-1,28.1s1.2,26.3,1.5,30.3c0.3,3.9,2,4,3.6,4.5
				c1.6,0.5,5.8,0.4,5.8,0.4c0,0,4.2,0.1,5.8-0.4c1.6-0.5,3.3-0.6,3.6-4.5c0.3-3.9,1.5-24.5,1.5-30.3S21.7,7.6,21,4.3"/>
			<path clip-path="url(#SVGID_4_)" fill="#465761" d="M18.8,4.3c-0.6-3.2-1.6-3.8-4-4.1C12.4,0,10.1,0.1,9.9,0h0
				C9.7,0.1,7.4,0,5,0.3C2.6,0.5,1.7,1.1,1,4.3S0.1,26.7,0.1,32.4s1.1,26.3,1.4,30.3c0.3,3.9,1.8,4,3.2,4.5c1.4,0.5,5.2,0.4,5.2,0.4
				c0,0,3.8,0.1,5.2-0.4c1.4-0.5,2.9-0.6,3.2-4.5c0.3-3.9,1.4-24.5,1.4-30.3S19.4,7.6,18.8,4.3"/>
			<path clip-path="url(#SVGID_4_)" fill="#3D4951" d="M14.7,4.3c-0.5-3.2-1.3-3.8-3.1-4.1C9.7,0,7.9,0.1,7.7,0h0
				c-0.1,0-2,0-3.8,0.2C2.1,0.5,1.3,1.1,0.8,4.3S0.1,26.7,0.1,32.4s0.8,26.3,1.1,30.3c0.2,3.9,1.4,4,2.5,4.5c1.1,0.5,4,0.4,4,0.4
				s3,0.1,4-0.4c1.1-0.5,2.3-0.6,2.5-4.5c0.2-3.9,1.1-24.5,1.1-30.3S15.2,7.6,14.7,4.3"/>
			<path clip-path="url(#SVGID_4_)" fill="#353B40" d="M10.5,4.3c-0.4-3.2-0.9-3.8-2.2-4.1S5.7,0.1,5.6,0c-0.1,0-1.4,0-2.7,0.2
				S1,1.1,0.6,4.3S0.1,26.7,0.1,32.4s0.6,26.3,0.8,30.3c0.2,3.9,1,4,1.8,4.5c0.8,0.5,2.9,0.4,2.9,0.4c0,0,2.1,0.1,2.9-0.4
				c0.8-0.5,1.6-0.6,1.8-4.5c0.2-3.9,0.8-24.5,0.8-30.3S10.9,7.6,10.5,4.3"/>
			<path clip-path="url(#SVGID_4_)" fill="#2C2D30" d="M6.4,4.3C6.2,1.1,5.8,0.5,5,0.3C4.2,0,3.4,0.1,3.4,0c-0.1,0-0.9,0-1.6,0.2
				C0.9,0.5,0.6,1.1,0.4,4.3S0.1,26.7,0.1,32.4s0.4,26.3,0.5,30.3c0.1,3.9,0.6,4,1.1,4.5c0.5,0.5,1.7,0.4,1.7,0.4s1.3,0.1,1.7-0.4
				c0.5-0.5,1-0.6,1.1-4.5c0.1-3.9,0.5-24.5,0.5-30.3S6.6,7.6,6.4,4.3"/>
			<path clip-path="url(#SVGID_4_)" fill="#231F20" d="M2.2,4.3C2.2,1.1,2,0.5,1.8,0.3S1.2,0.1,1.2,0c0,0-0.3,0-0.6,0.2
				S0.3,1.1,0.2,4.3S0.1,26.7,0.1,32.4s0.1,26.3,0.2,30.3c0,3.9,0.2,4,0.4,4.5c0.2,0.5,0.6,0.4,0.6,0.4c0,0,0.4,0.1,0.6-0.4
				c0.2-0.5,0.3-0.6,0.4-4.5c0-3.9,0.2-24.5,0.2-30.3S2.3,7.6,2.2,4.3"/>
		</g>
	</g>
</g>
<g opacity="0.3">
	<g>
		<defs>
			<rect id="SVGID_5_" x="21.1" y="0.5" width="7.3" height="66.6"/>
		</defs>
		<clipPath id="SVGID_6_">
			<use xlink:href="#SVGID_5_"  overflow="visible"/>
		</clipPath>
		<path clip-path="url(#SVGID_6_)" fill="#D1D5D7" d="M21.5,67c1.4-0.4,3-0.8,3.7-2.1c0.7-1.2,0.6-2.8,0.7-4.3
			c0.2-3,0.3-6.1,0.4-9.1c0.3-6.1,0.7-12.2,0.8-18.2c0.1-6-0.1-12.1-0.2-18.2c0-3-0.1-6.1-0.4-9.1c-0.1-0.7-0.2-1.4-0.4-2.1
			c-0.2-0.7-0.5-1.3-1-1.8c-0.5-0.5-1.1-0.8-1.9-1c-0.7-0.2-1.5-0.3-2.2-0.5l0-0.1c0.8,0.1,1.5,0.1,2.3,0.3c0.7,0.2,1.5,0.5,2.1,1
			c0.6,0.5,1,1.2,1.2,1.9C27,4.4,27.2,5.2,27.2,6c0.4,3,0.5,6.1,0.7,9.1c0.3,6.1,0.4,12.2,0.4,18.2c-0.2,6.1-0.7,12.2-1.1,18.2
			c-0.2,3-0.5,6.1-0.8,9.1c-0.2,1.5-0.1,3.1-1,4.4c-0.4,0.7-1.1,1.2-1.8,1.4c-0.7,0.3-1.5,0.4-2.2,0.6L21.5,67z"/>
	</g>
</g>
<g opacity="0.3">
	<g>
		<defs>
			<rect id="SVGID_7_" x="0.3" y="0.6" width="7.5" height="66.5"/>
		</defs>
		<clipPath id="SVGID_8_">
			<use xlink:href="#SVGID_7_"  overflow="visible"/>
		</clipPath>
		<path clip-path="url(#SVGID_8_)" fill="#D1D5D7" d="M7.4,67c-0.7-0.2-1.5-0.3-2.2-0.5c-0.7-0.3-1.4-0.7-1.8-1.4
			c-0.9-1.4-0.9-3-1.1-4.5c-0.3-3-0.6-6.1-0.8-9.1c-0.5-6.1-1-12.1-1.2-18.2c0-6.1,0.2-12.2,0.5-18.3C1,12,1.2,9,1.6,5.9
			c0.1-0.8,0.3-1.5,0.6-2.2C2.5,3,2.9,2.3,3.5,1.8C4.1,1.3,4.8,1,5.6,0.8c0.8-0.2,1.5-0.2,2.3-0.3l0,0C6.4,0.8,4.7,0.9,3.6,1.9
			C3,2.4,2.6,3.1,2.4,3.8C2.1,4.5,1.9,5.2,1.8,6C1.4,9,1.3,12,1.2,15.1c-0.2,6.1-0.4,12.2-0.4,18.2c0.2,6.1,0.6,12.1,1.1,18.2
			c0.2,3,0.5,6.1,0.7,9.1c0.2,1.5,0.1,3.1,1,4.4c0.4,0.6,1,1.1,1.7,1.4C5.9,66.7,6.7,66.8,7.4,67L7.4,67z"/>
	</g>
</g>
<path fill="#636B62" d="M24.1,31.6c0,0.5-0.4,0.9-0.9,0.9H5.6c-0.5,0-0.9-0.4-0.9-0.9V19.4c0-0.5,0.4-0.9,0.9-0.9h17.6
	c0.5,0,0.9,0.4,0.9,0.9V31.6z"/>
<path fill="#828B82" d="M23.9,31.5c0,0.5-0.4,0.8-0.8,0.8H5.7c-0.5,0-0.8-0.4-0.8-0.8V19.6c0-0.5,0.4-0.8,0.8-0.8h17.4
	c0.5,0,0.8,0.4,0.8,0.8V31.5z"/>
<path fill="#A1AAA1" d="M23.8,31.3c0,0.5-0.4,0.8-0.8,0.8H5.8c-0.5,0-0.8-0.4-0.8-0.8V19.7c0-0.5,0.4-0.8,0.8-0.8h17.1
	c0.5,0,0.8,0.4,0.8,0.8V31.3z"/>
<path fill="#C0CAC1" d="M23.6,31.2c0,0.4-0.4,0.8-0.8,0.8H6c-0.5,0-0.8-0.4-0.8-0.8V19.8C5.1,19.4,5.5,19,6,19h16.8
	c0.5,0,0.8,0.4,0.8,0.8V31.2z"/>
<path fill="#DFE9E0" d="M23.5,31.1c0,0.4-0.4,0.8-0.8,0.8H6.1c-0.4,0-0.8-0.4-0.8-0.8V20c0-0.4,0.4-0.8,0.8-0.8h16.6
	c0.4,0,0.8,0.4,0.8,0.8V31.1z"/>
<path fill="none" stroke="#231F20" stroke-width="0.204" stroke-miterlimit="10" d="M24,31.6c0,0.5-0.4,0.9-0.9,0.9H5.5
	c-0.5,0-0.9-0.4-0.9-0.9V19.4c0-0.5,0.4-0.9,0.9-0.9h17.6c0.5,0,0.9,0.4,0.9,0.9V31.6z"/>
<g opacity="0.3">
	<g>
		<defs>
			<rect id="SVGID_9_" x="4.1" y="18.6" width="1.2" height="13.9"/>
		</defs>
		<clipPath id="SVGID_10_">
			<use xlink:href="#SVGID_9_"  overflow="visible"/>
		</clipPath>
		<path clip-path="url(#SVGID_10_)" fill="#D3D2D2" d="M5.3,32.5c-0.3,0-0.7-0.1-0.8-0.4c-0.1-0.1-0.1-0.3-0.2-0.5l0-0.5l-0.1-1.9
			c-0.1-1.2-0.1-2.5-0.1-3.7c0-1.2,0-2.5,0.1-3.7l0.1-1.9c0-0.3,0-0.6,0.2-1c0.2-0.3,0.5-0.4,0.8-0.4c-0.3,0-0.6,0.2-0.7,0.5
			c-0.1,0.2,0,0.6,0,0.9l0.1,1.9c0.1,1.2,0.1,2.5,0.1,3.7c0,1.2,0,2.5-0.1,3.7l-0.1,1.9c0,0.3-0.1,0.6,0,0.9
			C4.7,32.2,5,32.4,5.3,32.5"/>
	</g>
</g>
<path fill="#F6F5F7" d="M27.6,21.4c0-4.1-1.2-14.2-1.8-17s-3.1-3.1-5.4-3.3C18.1,0.9,14.3,1,14.3,1c0,0-3.8,0-6.1,0.2
	S3.4,1.6,2.9,4.5c-0.6,2.8-1.8,12.9-1.8,17S0.2,43.6,14.3,44.6C28.4,43.6,27.6,25.5,27.6,21.4 M14.3,39.8L14.3,39.8
	C1.9,38.9,2.7,23.1,2.7,19.5S3.8,7.1,4.3,4.7C4.7,2.2,7,2,9,1.8c2-0.2,5.3-0.2,5.3-0.2c0,0,3.3,0,5.3,0.2c2,0.2,4.2,0.4,4.7,2.9
	C24.9,7.1,26,15.9,26,19.5S26.8,38.9,14.3,39.8"/>
<g>
	<g>
		<defs>
			<rect id="SVGID_11_" x="1.1" y="0.9" width="26.6" height="43.9"/>
		</defs>
		<clipPath id="SVGID_12_">
			<use xlink:href="#SVGID_11_"  overflow="visible"/>
		</clipPath>
		<path clip-path="url(#SVGID_12_)" fill="#7C7F7D" d="M27.6,21.4c-0.1-1.9-0.1-3.7-0.4-5.6c-0.2-1.9-0.4-3.7-0.6-5.6l-0.4-2.8
			l-0.4-2.8c-0.2-0.9-0.5-1.8-1.3-2.3c-0.7-0.5-1.7-0.8-2.6-0.9C21,1.3,20,1.3,19.1,1.2c-0.9,0-1.9-0.1-2.8-0.1
			c-1.9,0-3.7-0.1-5.6,0c-1.9,0.1-3.8,0-5.5,0.7c-0.9,0.3-1.6,1-1.9,1.8C2.9,4.5,2.8,5.5,2.7,6.4C2.3,8.3,2.2,10.1,1.9,12
			c-0.2,1.9-0.4,3.7-0.5,5.6c-0.1,1.9-0.2,3.7-0.2,5.6c0,1.9,0.1,3.7,0.3,5.6c0.2,1.9,0.6,3.7,1.1,5.5c0.5,1.8,1.3,3.5,2.4,5
			c1.1,1.5,2.4,2.8,4.1,3.7c1.6,0.9,3.5,1.4,5.3,1.5h0c0.6-0.1,1.2-0.1,1.8-0.3c0.6-0.1,1.2-0.3,1.8-0.5c0.6-0.2,1.1-0.5,1.7-0.8
			c0.5-0.3,1.1-0.6,1.5-1c0.3-0.2,0.5-0.4,0.7-0.6c0.2-0.2,0.5-0.4,0.7-0.6c0.4-0.4,0.8-0.9,1.2-1.4c0.4-0.5,0.7-1,1-1.6
			c0.3-0.5,0.6-1.1,0.8-1.7c0.9-2.3,1.5-4.7,1.8-7.2C27.6,26.4,27.6,23.9,27.6,21.4 M27.6,21.4c0,2.5,0,5-0.2,7.5
			c-0.3,2.5-0.8,4.9-1.7,7.3c-0.2,0.6-0.5,1.1-0.8,1.7c-0.3,0.6-0.6,1.1-1,1.6c-0.4,0.5-0.7,1-1.2,1.5c-0.2,0.2-0.4,0.5-0.7,0.7
			c-0.2,0.2-0.5,0.4-0.7,0.6c-0.5,0.4-1,0.7-1.6,1c-0.6,0.3-1.1,0.5-1.7,0.8c-0.6,0.2-1.2,0.4-1.8,0.5c-0.6,0.1-1.2,0.2-1.9,0.3l0,0
			l0,0c-1.9-0.1-3.8-0.6-5.4-1.5c-1.7-0.9-3.1-2.2-4.2-3.8c-1.1-1.6-1.8-3.3-2.4-5.1c-0.5-1.8-0.9-3.7-1.1-5.5
			c-0.2-1.9-0.3-3.7-0.3-5.6c0-1.9,0.1-3.7,0.2-5.6c0.2-1.9,0.3-3.7,0.6-5.6l0.3-2.8c0.1-0.9,0.2-1.9,0.4-2.8
			c0.2-0.9,0.2-1.9,0.6-2.8c0.4-0.9,1.1-1.6,2-1.9C6.9,1,8.8,1.1,10.7,1c1.9-0.1,3.7-0.1,5.6-0.1c0.9,0,1.9,0.1,2.8,0.1L20.5,1
			c0.5,0,0.9,0.1,1.4,0.2c0.9,0.2,1.9,0.4,2.7,1l0.5,0.5c0.2,0.2,0.3,0.4,0.4,0.6c0.2,0.2,0.2,0.4,0.3,0.7C25.9,4.2,26,4.4,26,4.6
			l0.4,2.8l0.3,2.8c0.2,1.9,0.4,3.7,0.6,5.6C27.5,17.7,27.5,19.6,27.6,21.4"/>
		<path clip-path="url(#SVGID_12_)" fill="#7C7F7D" d="M14.4,39.8c0,0-0.4,0-1.2-0.1c-0.8-0.1-1.9-0.4-3.2-1
			c-1.3-0.6-2.7-1.7-3.9-3.3c-1.2-1.6-2.1-3.8-2.7-6.2c-0.6-2.4-0.8-5.1-0.8-7.9c0-2.8,0.2-5.8,0.6-8.9c0.1-1.5,0.4-3.1,0.6-4.7
			C3.8,7,4,6.2,4.1,5.4c0.1-0.8,0.3-1.6,0.8-2.3C5.5,2.5,6.2,2.2,7,2c0.8-0.2,1.6-0.3,2.4-0.3c1.6-0.1,3.3-0.2,4.9-0.2
			c1.6,0,3.3,0,4.9,0.1c0.8,0,1.6,0.1,2.4,0.3c0.8,0.2,1.6,0.5,2.2,1.2c0.5,0.7,0.7,1.5,0.8,2.3C24.8,6.2,25,7,25.1,7.8
			c0.2,1.6,0.4,3.1,0.6,4.7c0.3,3.1,0.5,6,0.5,8.9c0,2.8-0.2,5.5-0.8,7.9c-0.6,2.4-1.5,4.5-2.7,6.2c-1.2,1.6-2.6,2.7-3.9,3.3
			c-1.3,0.6-2.4,0.8-3.2,1C14.8,39.8,14.4,39.8,14.4,39.8 M14.4,39.8c0,0,0.4-0.1,1.2-0.1c0.7-0.2,1.9-0.4,3.2-1
			c1.3-0.6,2.7-1.7,3.9-3.3c1.2-1.6,2-3.7,2.6-6.1c0.5-2.4,0.7-5.1,0.8-7.9c0-2.8-0.2-5.8-0.5-8.8C25.2,11,25,9.4,24.8,7.8
			c-0.1-0.8-0.2-1.6-0.4-2.4c-0.1-0.8-0.3-1.6-0.7-2.2c-0.5-0.6-1.2-0.9-2-1.1c-0.8-0.2-1.6-0.3-2.4-0.3c-1.6-0.1-3.3-0.2-4.9-0.2
			c-1.6,0-3.3,0.1-4.9,0.1c-0.8,0-1.6,0.1-2.4,0.3C6.3,2.3,5.5,2.6,5,3.2C4.5,3.9,4.3,4.7,4.2,5.5C4.1,6.3,4,7,3.9,7.8
			C3.7,9.4,3.5,11,3.3,12.5c-0.3,3.1-0.5,6-0.5,8.8c0,2.8,0.2,5.5,0.8,7.9c0.5,2.4,1.4,4.5,2.6,6.1c1.2,1.6,2.6,2.7,3.9,3.3
			c1.3,0.6,2.4,0.9,3.2,1C14,39.8,14.4,39.8,14.4,39.8"/>
	</g>
</g>
<path fill="#E9EAE9" d="M14.3,42.3L14.3,42.3c-13.2-1-12.4-18-12.4-21.8s1.1-13.3,1.6-16C3.7,4,3.8,3.6,4,3.3L3.7,2.7
	C3.3,3.2,3,3.7,2.9,4.5c-0.6,2.8-1.8,12.9-1.8,17S0.2,43.6,14.3,44.6c4.5-0.3,7.4-2.4,9.4-5.1l-0.9-1.6C21,40.2,18.3,42,14.3,42.3"
	/>
<path fill="#F2F2F2" d="M27.6,21.4c0-4.1-1.2-14.2-1.8-17c-0.6-2.8-3.1-3.1-5.4-3.3C18.1,0.9,14.3,1,14.3,1s-3.8,0-6.1,0.2
	C6.5,1.3,4.7,1.5,3.7,2.7L4,3.3c0.9-1.6,2.8-1.8,4.6-2c2.2-0.2,5.7-0.2,5.7-0.2s3.5,0,5.7,0.2c2.2,0.2,4.5,0.5,5,3.1
	c0.5,2.6,1.6,12.1,1.6,16c0,2.7,0.4,11.9-3.9,17.4l0.9,1.6C28,33.6,27.6,24.2,27.6,21.4"/>
<path fill="#F6F5F7" d="M14.4,36.3c-5.1,0-7.2,0.9-7.2,0.9c1.4,3.3,7.2,3,7.2,3s5.8,0.2,7.2-3C21.6,37.2,19.5,36.3,14.4,36.3"/>
<g opacity="0.2">
	<g>
		<defs>
			<rect id="SVGID_13_" x="8.4" y="36.7" width="7.6" height="2.6"/>
		</defs>
		<clipPath id="SVGID_14_">
			<use xlink:href="#SVGID_13_"  overflow="visible"/>
		</clipPath>
		<path clip-path="url(#SVGID_14_)" fill="#5A5758" d="M8.9,36.7c0,0-0.6,0.2-0.5,0.5c0.1,0.3,0.8,2.1,6,2.1c5.1,0-3.2-2.6-3.2-2.6
			H8.9z"/>
	</g>
</g>
<path fill="#DEDFDE" d="M19.4,36.6c-0.9-0.2-2.7-0.4-5-0.4c-2.4,0-4.2,0.2-5,0.4c-0.9,0.2-0.5,0.7-0.5,0.7c1.3,2.2,5.5,2.1,5.5,2.1
	s4.2,0.2,5.5-2.1C19.9,37.3,20.2,36.8,19.4,36.6"/>
<path fill="#E4E4E4" d="M19.4,36.6c-0.8-0.2-2.3-0.3-4.4-0.3c-2,0-3.6,0.2-4.4,0.3c-0.8,0.2-0.4,0.6-0.4,0.6C11.4,39.2,15,39,15,39
	s3.7,0.2,4.8-1.8C19.8,37.2,20.1,36.8,19.4,36.6"/>
<path fill="#E9EAE9" d="M19.4,36.7c-0.6-0.1-1.9-0.3-3.7-0.3s-3,0.1-3.7,0.3s-0.4,0.5-0.4,0.5c0.9,1.6,4,1.5,4,1.5s3.1,0.1,4-1.5
	C19.8,37.2,20,36.8,19.4,36.7"/>
<path fill="#EFEFEF" d="M19.4,36.7c-0.5-0.1-1.6-0.2-3-0.2c-1.4,0-2.5,0.1-3,0.2c-0.5,0.1-0.3,0.4-0.3,0.4c0.8,1.3,3.3,1.2,3.3,1.2
	s2.5,0.1,3.3-1.2C19.7,37.1,19.9,36.9,19.4,36.7"/>
<path fill="#F4F4F4" d="M19.4,36.8c-0.4-0.1-1.2-0.2-2.3-0.2c-1.1,0-1.9,0.1-2.3,0.2c-0.4,0.1-0.2,0.3-0.2,0.3c0.6,1,2.6,1,2.6,1
	s2,0.1,2.6-1C19.7,37.1,19.8,36.9,19.4,36.8"/>
<g>
	<g>
		<defs>
			<rect id="SVGID_15_" x="8.7" y="36.1" width="11.3" height="3.2"/>
		</defs>
		<clipPath id="SVGID_16_">
			<use xlink:href="#SVGID_15_"  overflow="visible"/>
		</clipPath>
		<path clip-path="url(#SVGID_16_)" fill="none" stroke="#7C7F7D" stroke-width="8.500000e-002" stroke-miterlimit="10" d="
			M19.4,36.6c-0.9-0.2-2.7-0.4-5-0.4c-2.4,0-4.2,0.2-5,0.4c-0.9,0.2-0.5,0.7-0.5,0.7c1.3,2.2,5.5,2.1,5.5,2.1s4.2,0.2,5.5-2.1
			C19.9,37.3,20.2,36.8,19.4,36.6z"/>
	</g>
</g>
<path fill="none" stroke="#00587E" stroke-width="0.424" stroke-linecap="round" stroke-miterlimit="10" d="M16.5,38
	c0,0-0.6,0.1-2.1,0.1c-1.5,0-2.1-0.1-2.1-0.1"/>
<g opacity="0.36">
	<g>
		<defs>
			<rect id="SVGID_17_" x="13.7" y="2.7" width="1.1" height="9.2"/>
		</defs>
		<clipPath id="SVGID_18_">
			<use xlink:href="#SVGID_17_"  overflow="visible"/>
		</clipPath>
		<path clip-path="url(#SVGID_18_)" fill="#AAA7B8" d="M14.2,7.3c0-2,0.2-3.7,0.5-4.3c-0.1-0.2-0.2-0.3-0.3-0.3
			c-0.4,0-0.8,2.1-0.8,4.6s0.4,4.6,0.8,4.6c0.1,0,0.2-0.1,0.3-0.3C14.5,11.1,14.2,9.3,14.2,7.3"/>
	</g>
</g>
<path fill="#231F20" d="M14.9,3.8c0,0.1-0.1,0.2-0.2,0.2h-0.5c-0.1,0-0.2-0.1-0.2-0.2s0.1-0.2,0.2-0.2h0.5
	C14.8,3.6,14.9,3.7,14.9,3.8"/>
<path fill="#231F20" d="M14.9,5.6c0,0.1-0.1,0.2-0.2,0.2h-0.5c-0.1,0-0.2-0.1-0.2-0.2s0.1-0.2,0.2-0.2h0.5
	C14.8,5.4,14.9,5.5,14.9,5.6"/>
<path fill="#231F20" d="M14.9,7.3c0,0.1-0.1,0.2-0.2,0.2h-0.5c-0.1,0-0.2-0.1-0.2-0.2s0.1-0.2,0.2-0.2h0.5
	C14.8,7.1,14.9,7.2,14.9,7.3"/>
<path fill="#231F20" d="M14.9,9.1c0,0.1-0.1,0.2-0.2,0.2h-0.5c-0.1,0-0.2-0.1-0.2-0.2s0.1-0.2,0.2-0.2h0.5C14.8,8.9,14.9,9,14.9,9.1
	"/>
<path fill="#231F20" d="M14.9,10.8c0,0.1-0.1,0.2-0.2,0.2h-0.5c-0.1,0-0.2-0.1-0.2-0.2c0-0.1,0.1-0.2,0.2-0.2h0.5
	C14.8,10.6,14.9,10.7,14.9,10.8"/>
<g opacity="0.36">
	<g>
		<defs>
			<rect id="SVGID_19_" x="14.3" y="2.7" width="1" height="9.2"/>
		</defs>
		<clipPath id="SVGID_20_">
			<use xlink:href="#SVGID_19_"  overflow="visible"/>
		</clipPath>
		<path clip-path="url(#SVGID_20_)" fill="#5A5758" d="M14.5,2.7c-0.1,0-0.1,0-0.2,0.1C14.7,3.3,15,5.1,15,7.3
			c0,2.2-0.3,4.1-0.6,4.5c0.1,0.1,0.1,0.1,0.2,0.1c0.4,0,0.8-2.1,0.8-4.6S15,2.7,14.5,2.7"/>
	</g>
</g>
<g opacity="0.5">
	<g>
		<defs>
			<rect id="SVGID_21_" x="5.5" y="20.8" width="17.7" height="9.1"/>
		</defs>
		<clipPath id="SVGID_22_">
			<use xlink:href="#SVGID_21_"  overflow="visible"/>
		</clipPath>
		<rect x="5.5" y="28.5" clip-path="url(#SVGID_22_)" fill="#267070" width="0.9" height="1.3"/>
		<rect x="5.5" y="26.8" clip-path="url(#SVGID_22_)" fill="#267070" width="0.2" height="1.3"/>
		<rect x="5.5" y="24.9" clip-path="url(#SVGID_22_)" fill="#267070" width="0.5" height="1.3"/>
		<rect x="5.5" y="22.9" clip-path="url(#SVGID_22_)" fill="#267070" width="0.7" height="1.4"/>
		<rect x="5.5" y="20.8" clip-path="url(#SVGID_22_)" fill="#267070" width="0.9" height="1.8"/>
		<rect x="22.3" y="28.5" clip-path="url(#SVGID_22_)" fill="#267070" width="0.9" height="1.3"/>
		<rect x="22.9" y="26.8" clip-path="url(#SVGID_22_)" fill="#267070" width="0.2" height="1.3"/>
		<rect x="22.7" y="24.9" clip-path="url(#SVGID_22_)" fill="#267070" width="0.5" height="1.3"/>
		<rect x="22.5" y="22.9" clip-path="url(#SVGID_22_)" fill="#267070" width="0.7" height="1.4"/>
		<rect x="22.3" y="20.8" clip-path="url(#SVGID_22_)" fill="#267070" width="0.9" height="1.8"/>
	</g>
</g>
<g opacity="0.5">
	<g>
		<defs>
			<rect id="SVGID_23_" x="11.5" y="22.3" width="5.8" height="1.4"/>
		</defs>
		<clipPath id="SVGID_24_">
			<use xlink:href="#SVGID_23_"  overflow="visible"/>
		</clipPath>
		<rect x="11.5" y="22.3" clip-path="url(#SVGID_24_)" fill="#267070" width="5.8" height="1.4"/>
	</g>
</g>
<g opacity="0.5">
	<g>
		<defs>
			<rect id="SVGID_25_" x="12.3" y="30.7" width="4.1" height="0.6"/>
		</defs>
		<clipPath id="SVGID_26_">
			<use xlink:href="#SVGID_25_"  overflow="visible"/>
		</clipPath>
		<rect x="12.3" y="30.7" clip-path="url(#SVGID_26_)" fill="#267070" width="4.1" height="0.6"/>
	</g>
</g>
<path fill="#E4E4E4" d="M17.3,48.1c0,0.9-1.3,1.6-2.9,1.6c-1.6,0-2.9-0.7-2.9-1.6c0-0.9,1.3-1.6,2.9-1.6
	C15.9,46.5,17.3,47.2,17.3,48.1"/>
<path fill="#E4E4E4" d="M17.3,52.8c0,0.9-1.3,1.6-2.9,1.6c-1.6,0-2.9-0.7-2.9-1.6c0-0.9,1.3-1.6,2.9-1.6
	C15.9,51.2,17.3,51.9,17.3,52.8"/>
<path fill="#E4E4E4" d="M17.3,57.7c0,0.9-1.3,1.6-2.9,1.6c-1.6,0-2.9-0.7-2.9-1.6s1.3-1.6,2.9-1.6C15.9,56.1,17.3,56.8,17.3,57.7"/>
<path fill="#E4E4E4" d="M17.3,62.5c0,0.9-1.3,1.6-2.9,1.6c-1.6,0-2.9-0.7-2.9-1.6s1.3-1.6,2.9-1.6C15.9,60.9,17.3,61.6,17.3,62.5"/>
<path fill="#E4E4E4" d="M25.1,51.3c0.1,0.9-0.9,1.9-2.4,2.1c-1.4,0.2-2.7,0.1-2.8-0.8c-0.1-0.9,1.4-2.4,2.9-2.6
	C24.2,49.7,25,50.3,25.1,51.3"/>
<path fill="#E4E4E4" d="M24.8,56.1c0.1,0.9-0.9,1.9-2.4,2.1c-1.4,0.2-2.7,0.1-2.8-0.8c-0.1-0.9,1.4-2.4,2.9-2.6S24.6,55.2,24.8,56.1
	"/>
<path fill="#E4E4E4" d="M24.4,61c0.1,0.9-0.9,1.9-2.4,2.1c-1.4,0.2-2.7,0.1-2.8-0.8c-0.1-0.9,1.4-2.4,2.9-2.6
	C23.5,59.4,24.3,60,24.4,61"/>
<path fill="#E4E4E4" d="M25.3,46.7c0.1,0.9-0.9,1.9-2.4,2.1c-1.4,0.2-2.7,0.1-2.8-0.8s1.4-2.4,2.9-2.6
	C24.4,45.1,25.2,45.8,25.3,46.7"/>
<path fill="#C8CAC9" d="M3.6,51.3c-0.1,0.9,0.9,1.9,2.4,2.1c1.4,0.2,2.7,0.1,2.8-0.8c0.1-0.9-1.4-2.4-2.9-2.6
	C4.5,49.7,3.7,50.3,3.6,51.3"/>
<path fill="#C8CAC9" d="M3.9,56.1c-0.1,0.9,0.9,1.9,2.4,2.1c1.4,0.2,2.7,0.1,2.8-0.8s-1.4-2.4-2.9-2.6C4.8,54.6,4.1,55.2,3.9,56.1"
	/>
<path fill="#C8CAC9" d="M4.3,61c-0.1,0.9,0.9,1.9,2.4,2.1c1.4,0.2,2.7,0.1,2.8-0.8S8,59.8,6.6,59.6C5.2,59.4,4.4,60,4.3,61"/>
<path fill="#C8CAC9" d="M3.3,46.7c-0.1,0.9,0.9,1.9,2.4,2.1C7.1,49,8.4,48.9,8.5,48s-1.4-2.4-2.9-2.6C4.2,45.1,3.5,45.8,3.3,46.7"/>
<g opacity="0.3">
	<g>
		<defs>
			<rect id="SVGID_27_" x="2.7" y="44.8" width="19" height="19.7"/>
		</defs>
		<clipPath id="SVGID_28_">
			<use xlink:href="#SVGID_27_"  overflow="visible"/>
		</clipPath>
		<path clip-path="url(#SVGID_28_)" fill="#DAD8E0" d="M3.7,60.9c0,0,0,0.1,0,0.3c0,0.1,0.1,0.2,0.1,0.4c0,0.1,0.1,0.3,0.2,0.4
			c0.1,0.2,0.3,0.3,0.4,0.4c0.1,0.1,0.3,0.3,0.5,0.4c0.2,0.1,0.4,0.2,0.6,0.3c0.2,0.1,0.5,0.1,0.7,0.2c0.2,0,0.5,0,0.7,0
			c0.2,0,0.5,0,0.7,0c0.2,0,0.5,0,0.7-0.1c0.2,0,0.4-0.1,0.5-0.2c0.2-0.1,0.3-0.2,0.4-0.3c0.1-0.1,0.2-0.2,0.2-0.3
			c0.1-0.2,0.1-0.3,0.1-0.3l0,0c0,0,0,0.1-0.1,0.3c0,0.1-0.1,0.2-0.2,0.4c-0.1,0.1-0.2,0.2-0.4,0.3c-0.2,0.1-0.4,0.2-0.6,0.2
			c-0.2,0.1-0.5,0.1-0.7,0.1c-0.3,0-0.5,0-0.7-0.1c-0.2,0-0.5,0-0.7-0.1c-0.5-0.1-1-0.3-1.4-0.5c-0.2-0.1-0.4-0.2-0.6-0.4
			c-0.1-0.2-0.3-0.3-0.4-0.5c-0.1-0.2-0.2-0.3-0.2-0.5c0-0.2-0.1-0.3-0.1-0.4C3.7,61,3.7,60.9,3.7,60.9L3.7,60.9z"/>
		<path clip-path="url(#SVGID_28_)" fill="#DAD8E0" d="M10.8,62.4c0,0,0,0.1,0.1,0.2c0,0.1,0,0.1,0.1,0.2C11,62.9,11,63,11,63
			c0,0.1,0.1,0.2,0.2,0.2c0.1,0.1,0.1,0.2,0.2,0.3c0.1,0.1,0.2,0.2,0.3,0.2c0.1,0.1,0.2,0.1,0.4,0.2c0.2,0.1,0.5,0.1,0.7,0.2
			c0.2,0,0.5,0.1,0.7,0.1c0.4,0.1,0.7,0.1,0.7,0.1v0c0,0-0.3,0-0.7,0c-0.2,0-0.4-0.1-0.7-0.1c-0.2-0.1-0.5-0.2-0.7-0.3
			c-0.2-0.1-0.5-0.3-0.7-0.4c-0.1-0.1-0.2-0.2-0.3-0.2c-0.1-0.1-0.1-0.2-0.2-0.3c-0.1-0.2-0.1-0.4-0.1-0.5
			C10.8,62.5,10.8,62.4,10.8,62.4L10.8,62.4z"/>
		<path clip-path="url(#SVGID_28_)" fill="#DAD8E0" d="M6.2,54.3c0,0-0.1,0-0.3,0c-0.1,0-0.2,0-0.4,0c-0.1,0-0.3,0-0.5,0.1
			c-0.2,0-0.4,0.1-0.5,0.2c-0.2,0.1-0.4,0.2-0.5,0.3l-0.2,0.3l-0.2,0.3c-0.1,0.2-0.1,0.4-0.1,0.7c0,0.3,0.1,0.5,0.2,0.7
			c0.1,0.2,0.2,0.4,0.4,0.5c0.1,0.2,0.3,0.3,0.5,0.4c0.2,0.1,0.3,0.2,0.5,0.3c0.2,0.1,0.3,0.1,0.4,0.2c0.1,0.1,0.3,0.1,0.4,0.1
			c0.2,0.1,0.3,0.1,0.3,0.1l0,0c0,0-0.1,0-0.3,0c-0.1,0-0.2,0-0.4-0.1c-0.1,0-0.3-0.1-0.5-0.2c-0.2-0.1-0.4-0.2-0.5-0.3
			c-0.2-0.1-0.4-0.3-0.5-0.4c-0.2-0.2-0.3-0.4-0.4-0.6c-0.1-0.2-0.1-0.5-0.1-0.7c0-0.2,0.1-0.5,0.2-0.7l0.2-0.3l0.2-0.3
			c0.2-0.2,0.3-0.3,0.5-0.4c0.2-0.1,0.4-0.2,0.6-0.2c0.2-0.1,0.4,0,0.5-0.1c0.2,0,0.3,0,0.4,0C6,54.3,6.2,54.3,6.2,54.3L6.2,54.3z"
			/>
		<path clip-path="url(#SVGID_28_)" fill="#DAD8E0" d="M10.8,52.8c0,0,0,0.1,0.1,0.2c0,0.1,0,0.1,0.1,0.2c0,0.1,0.1,0.1,0.1,0.2
			c0,0.1,0.1,0.2,0.2,0.2c0.1,0.1,0.1,0.2,0.2,0.3c0.1,0.1,0.2,0.2,0.3,0.2c0.1,0.1,0.2,0.1,0.4,0.2c0.2,0.1,0.5,0.1,0.7,0.2
			c0.2,0,0.5,0.1,0.7,0.1c0.4,0.1,0.7,0.1,0.7,0.1v0c0,0-0.3,0-0.7,0c-0.2,0-0.4-0.1-0.7-0.1c-0.2-0.1-0.5-0.2-0.7-0.3
			c-0.2-0.1-0.5-0.3-0.7-0.4c-0.1-0.1-0.2-0.2-0.3-0.2c-0.1-0.1-0.1-0.2-0.2-0.3c-0.1-0.2-0.1-0.4-0.1-0.5
			C10.8,52.9,10.8,52.8,10.8,52.8L10.8,52.8z"/>
		<path clip-path="url(#SVGID_28_)" fill="#DAD8E0" d="M10.8,57.7c0,0,0,0.1,0.1,0.2c0,0.1,0,0.1,0.1,0.2c0,0.1,0.1,0.1,0.1,0.2
			c0,0.1,0.1,0.2,0.2,0.2c0.1,0.1,0.1,0.2,0.2,0.3c0.1,0.1,0.2,0.2,0.3,0.2c0.1,0.1,0.2,0.1,0.4,0.2c0.2,0.1,0.5,0.1,0.7,0.2
			c0.2,0,0.5,0.1,0.7,0.1c0.4,0.1,0.7,0.1,0.7,0.1v0c0,0-0.3,0-0.7,0c-0.2,0-0.4-0.1-0.7-0.1c-0.2-0.1-0.5-0.2-0.7-0.3
			c-0.2-0.1-0.5-0.3-0.7-0.4c-0.1-0.1-0.2-0.2-0.3-0.2c-0.1-0.1-0.1-0.2-0.2-0.3c-0.1-0.2-0.1-0.4-0.1-0.5
			C10.8,57.8,10.8,57.7,10.8,57.7L10.8,57.7z"/>
		<path clip-path="url(#SVGID_28_)" fill="#DAD8E0" d="M20.5,46c0,0,0,0.1-0.1,0.2c0,0.1-0.1,0.1-0.1,0.2c0,0.1-0.1,0.2-0.2,0.3
			c-0.1,0.2-0.3,0.4-0.4,0.7c-0.1,0.1-0.1,0.3-0.1,0.4c0,0.2,0,0.3,0.1,0.4c0.1,0.1,0.1,0.3,0.2,0.4c0.1,0.1,0.2,0.2,0.3,0.3
			c0.2,0.1,0.5,0.2,0.7,0.3c0.2,0.1,0.4,0.1,0.5,0.1c0.1,0,0.2,0,0.2,0v0c0,0-0.1,0-0.2,0c-0.1,0-0.3,0-0.6,0
			c-0.2,0-0.5-0.1-0.8-0.3c-0.1-0.1-0.2-0.2-0.3-0.3c-0.1-0.1-0.2-0.3-0.2-0.5c0-0.1,0-0.3,0-0.5c0-0.2,0-0.3,0.1-0.5
			c0-0.1,0.1-0.3,0.1-0.4c0.1-0.1,0.1-0.2,0.2-0.3c0.1-0.2,0.3-0.3,0.4-0.4C20.5,46.1,20.5,46,20.5,46L20.5,46z"/>
		<path clip-path="url(#SVGID_28_)" fill="#DAD8E0" d="M5.6,44.9c0,0-0.1,0-0.3,0c-0.1,0-0.2,0-0.4,0c-0.1,0-0.3,0-0.5,0.1
			c-0.2,0-0.4,0.1-0.5,0.2c-0.2,0.1-0.4,0.2-0.5,0.3l-0.2,0.3l-0.2,0.3c-0.1,0.1-0.1,0.2-0.1,0.3c0,0.1,0,0.2,0,0.4
			c0,0.3,0.1,0.5,0.2,0.7c0.1,0.2,0.2,0.4,0.4,0.5c0.1,0.2,0.3,0.3,0.5,0.4c0.2,0.1,0.3,0.2,0.5,0.3c0.2,0.1,0.3,0.1,0.4,0.2
			C4.9,49,5,49,5.1,49.1c0.2,0.1,0.3,0.1,0.3,0.1l0,0c0,0-0.1,0-0.3,0c-0.1,0-0.2,0-0.4-0.1c-0.1,0-0.3-0.1-0.5-0.2
			c-0.2-0.1-0.4-0.2-0.5-0.3c-0.2-0.1-0.4-0.3-0.5-0.4C3,48,2.9,47.8,2.8,47.6c-0.1-0.3-0.1-0.5-0.1-0.7c0-0.2,0.1-0.5,0.2-0.7
			L3,45.8l0.2-0.3c0.2-0.2,0.3-0.3,0.5-0.4c0.2-0.1,0.4-0.2,0.6-0.2c0.2-0.1,0.4,0,0.5-0.1c0.2,0,0.3,0,0.4,0
			C5.4,44.9,5.6,44.9,5.6,44.9L5.6,44.9z"/>
		<path clip-path="url(#SVGID_28_)" fill="#DAD8E0" d="M5.8,49.5c0,0-0.1,0-0.3,0c-0.1,0-0.2,0-0.4,0c-0.1,0-0.3,0-0.5,0.1
			c-0.2,0-0.4,0.1-0.5,0.2c-0.2,0.1-0.4,0.2-0.5,0.3l-0.2,0.3l-0.2,0.3c-0.1,0.1-0.1,0.2-0.1,0.3c0,0.1,0,0.2,0,0.4
			c0,0.3,0.1,0.5,0.2,0.7c0.1,0.2,0.2,0.4,0.4,0.5c0.1,0.2,0.3,0.3,0.5,0.4c0.2,0.1,0.3,0.2,0.5,0.3c0.2,0.1,0.3,0.1,0.4,0.2
			c0.1,0.1,0.3,0.1,0.4,0.1c0.2,0.1,0.3,0.1,0.3,0.1l0,0c0,0-0.1,0-0.3,0c-0.1,0-0.2,0-0.4-0.1c-0.1,0-0.3-0.1-0.5-0.2
			c-0.2-0.1-0.4-0.1-0.5-0.3c-0.2-0.1-0.4-0.3-0.5-0.4c-0.2-0.2-0.3-0.4-0.4-0.6C3,51.9,2.9,51.6,3,51.4c0-0.2,0.1-0.5,0.2-0.7
			l0.2-0.3l0.2-0.3c0.2-0.2,0.3-0.3,0.5-0.4c0.2-0.1,0.4-0.2,0.6-0.2c0.2-0.1,0.4,0,0.5-0.1c0.2,0,0.3,0,0.4,0
			C5.7,49.4,5.8,49.4,5.8,49.5L5.8,49.5z"/>
		<path clip-path="url(#SVGID_28_)" fill="#DAD8E0" d="M20.3,50.6c0,0,0,0.1-0.1,0.2c0,0.1-0.1,0.1-0.1,0.2
			c-0.1,0.1-0.1,0.2-0.2,0.3c-0.1,0.2-0.3,0.4-0.4,0.7c-0.1,0.1-0.1,0.3-0.1,0.4c0,0.2,0,0.3,0.1,0.4c0.1,0.1,0.1,0.3,0.2,0.4
			c0.1,0.1,0.2,0.2,0.3,0.3c0.2,0.1,0.5,0.2,0.7,0.3c0.2,0.1,0.4,0.1,0.5,0.1c0.1,0,0.2,0,0.2,0v0c0,0-0.1,0-0.2,0
			c-0.1,0-0.3,0-0.6,0c-0.2,0-0.5-0.1-0.8-0.3c-0.1-0.1-0.2-0.2-0.3-0.3c-0.1-0.1-0.2-0.3-0.2-0.5c0-0.1,0-0.3,0-0.5
			c0-0.2,0-0.3,0.1-0.5c0-0.1,0.1-0.3,0.1-0.4c0.1-0.1,0.1-0.2,0.2-0.3c0.1-0.2,0.3-0.3,0.4-0.4C20.2,50.6,20.3,50.6,20.3,50.6
			L20.3,50.6z"/>
		<path clip-path="url(#SVGID_28_)" fill="#DAD8E0" d="M20,55.5c0,0,0,0.1-0.1,0.2c0,0.1-0.1,0.1-0.1,0.2c0,0.1-0.1,0.2-0.2,0.3
			c-0.1,0.2-0.3,0.4-0.4,0.7C19,56.9,19,57,19,57.2c0,0.2,0,0.3,0.1,0.4c0.1,0.1,0.1,0.3,0.2,0.4c0.1,0.1,0.2,0.2,0.3,0.3
			c0.2,0.1,0.5,0.2,0.7,0.3c0.2,0.1,0.4,0.1,0.5,0.1c0.1,0,0.2,0,0.2,0v0c0,0-0.1,0-0.2,0c-0.1,0-0.3,0-0.6,0
			c-0.2,0-0.5-0.1-0.8-0.3c-0.1-0.1-0.2-0.2-0.3-0.3C19.1,58,19,57.8,19,57.6c0-0.1,0-0.3,0-0.5c0-0.2,0-0.3,0.1-0.5
			c0-0.1,0.1-0.3,0.1-0.4c0.1-0.1,0.1-0.2,0.2-0.3c0.1-0.2,0.3-0.3,0.4-0.4C19.9,55.5,19.9,55.5,20,55.5L20,55.5z"/>
		<path clip-path="url(#SVGID_28_)" fill="#DAD8E0" d="M19.6,60.3c0,0,0,0.1-0.1,0.2c0,0.1-0.1,0.1-0.1,0.2c0,0.1-0.1,0.2-0.2,0.3
			c-0.1,0.2-0.3,0.4-0.4,0.7c-0.1,0.1-0.1,0.3-0.1,0.4c0,0.2,0,0.3,0.1,0.4c0.1,0.1,0.1,0.3,0.2,0.4c0.1,0.1,0.2,0.2,0.3,0.3
			c0.2,0.2,0.5,0.2,0.7,0.3c0.2,0.1,0.4,0.1,0.5,0.1c0.1,0,0.2,0,0.2,0v0c0,0-0.1,0-0.2,0c-0.1,0-0.3,0-0.6,0
			c-0.2,0-0.5-0.1-0.8-0.3c-0.1-0.1-0.2-0.2-0.3-0.3c-0.1-0.1-0.2-0.3-0.2-0.5c0-0.1,0-0.3,0-0.5c0-0.2,0-0.3,0.1-0.5
			c0-0.1,0.1-0.3,0.1-0.4c0.1-0.1,0.1-0.2,0.2-0.3c0.1-0.2,0.3-0.3,0.4-0.4C19.5,60.3,19.6,60.3,19.6,60.3L19.6,60.3z"/>
		<path clip-path="url(#SVGID_28_)" fill="#DAD8E0" d="M10.8,48c0,0,0,0.1,0.1,0.2c0,0.1,0,0.1,0.1,0.2c0,0.1,0.1,0.1,0.1,0.2
			c0,0.1,0.1,0.2,0.2,0.2c0.1,0.1,0.1,0.2,0.2,0.3c0.1,0.1,0.2,0.2,0.3,0.2c0.1,0.1,0.2,0.1,0.4,0.2c0.2,0.1,0.5,0.1,0.7,0.2
			c0.2,0,0.5,0.1,0.7,0.1c0.4,0.1,0.7,0.1,0.7,0.1v0c0,0-0.3,0-0.7,0c-0.2,0-0.4-0.1-0.7-0.1c-0.2-0.1-0.5-0.2-0.7-0.3
			c-0.2-0.1-0.5-0.3-0.7-0.4c-0.1-0.1-0.2-0.2-0.3-0.2c-0.1-0.1-0.1-0.2-0.2-0.3c-0.1-0.2-0.1-0.4-0.1-0.5
			C10.8,48.1,10.8,48,10.8,48L10.8,48z"/>
	</g>
</g>
<g>
	<g>
		<defs>
			<rect id="SVGID_29_" x="3.2" y="45.2" width="22.3" height="19"/>
		</defs>
		<clipPath id="SVGID_30_">
			<use xlink:href="#SVGID_29_"  overflow="visible"/>
		</clipPath>
		<path clip-path="url(#SVGID_30_)" fill="#A39FB2" d="M14.3,49.8c-1.7,0-3-0.7-3-1.7c0-1,1.3-1.7,3-1.7c1.7,0,3,0.7,3,1.7
			C17.3,49.1,16,49.8,14.3,49.8 M14.3,46.6c-1.6,0-2.8,0.7-2.8,1.5c0,0.8,1.3,1.5,2.8,1.5c1.6,0,2.8-0.7,2.8-1.5
			C17.1,47.3,15.9,46.6,14.3,46.6"/>
		<path clip-path="url(#SVGID_30_)" fill="#A39FB2" d="M14.3,54.6c-1.7,0-3-0.7-3-1.7c0-1,1.3-1.7,3-1.7c1.7,0,3,0.7,3,1.7
			C17.3,53.8,16,54.6,14.3,54.6 M14.3,51.4c-1.6,0-2.8,0.7-2.8,1.5s1.3,1.5,2.8,1.5c1.6,0,2.8-0.7,2.8-1.5S15.9,51.4,14.3,51.4"/>
		<path clip-path="url(#SVGID_30_)" fill="#A39FB2" d="M14.3,59.5c-1.7,0-3-0.7-3-1.7s1.3-1.7,3-1.7c1.7,0,3,0.7,3,1.7
			S16,59.5,14.3,59.5 M14.3,56.3c-1.6,0-2.8,0.7-2.8,1.5s1.3,1.5,2.8,1.5c1.6,0,2.8-0.7,2.8-1.5S15.9,56.3,14.3,56.3"/>
		<path clip-path="url(#SVGID_30_)" fill="#A39FB2" d="M14.3,64.2c-1.7,0-3-0.7-3-1.7s1.3-1.7,3-1.7c1.7,0,3,0.7,3,1.7
			S16,64.2,14.3,64.2 M14.3,61c-1.6,0-2.8,0.7-2.8,1.5s1.3,1.5,2.8,1.5c1.6,0,2.8-0.7,2.8-1.5S15.9,61,14.3,61"/>
		<path clip-path="url(#SVGID_30_)" fill="#A39FB2" d="M21.5,53.6c-1.1,0-1.7-0.3-1.8-1c-0.1-0.5,0.3-1.1,0.9-1.7
			c0.6-0.6,1.4-1,2.1-1.1c1.4-0.2,2.3,0.4,2.5,1.5c0.1,0.5-0.2,1-0.6,1.4c-0.5,0.4-1.1,0.7-1.8,0.8C22.3,53.5,21.9,53.6,21.5,53.6
			 M23.2,50c-0.2,0-0.3,0-0.5,0c-0.6,0.1-1.4,0.5-2,1c-0.6,0.5-0.9,1.1-0.8,1.5c0.1,0.7,1,1,2.7,0.7c0.7-0.1,1.3-0.3,1.7-0.7
			c0.4-0.4,0.6-0.8,0.6-1.2C24.8,50.5,24.2,50,23.2,50"/>
		<path clip-path="url(#SVGID_30_)" fill="#A39FB2" d="M21.2,58.4c-1.1,0-1.7-0.3-1.8-1c-0.1-0.5,0.3-1.1,0.9-1.7
			c0.6-0.6,1.4-1,2.1-1.1c1.4-0.2,2.3,0.4,2.5,1.5c0.1,0.5-0.2,1-0.6,1.4c-0.5,0.4-1.1,0.7-1.8,0.8C21.9,58.4,21.5,58.4,21.2,58.4
			 M22.9,54.9c-0.2,0-0.3,0-0.5,0c-0.6,0.1-1.4,0.5-2,1c-0.6,0.5-0.9,1.1-0.8,1.5c0.1,0.7,1,1,2.7,0.7c0.7-0.1,1.3-0.3,1.7-0.7
			c0.4-0.4,0.6-0.8,0.6-1.2C24.5,55.3,23.9,54.9,22.9,54.9"/>
		<path clip-path="url(#SVGID_30_)" fill="#A39FB2" d="M20.9,63.3c-1.1,0-1.7-0.3-1.8-1c-0.1-0.5,0.3-1.1,0.9-1.7
			c0.6-0.6,1.4-1,2.1-1.1c1.4-0.2,2.3,0.4,2.5,1.5c0.1,0.5-0.2,1-0.6,1.4c-0.5,0.4-1.1,0.7-1.8,0.8C21.6,63.2,21.2,63.3,20.9,63.3
			 M22.6,59.7c-0.2,0-0.3,0-0.5,0c-0.6,0.1-1.4,0.5-2,1c-0.6,0.5-0.9,1.1-0.8,1.5c0.1,0.7,1,1,2.7,0.7c0.7-0.1,1.3-0.3,1.7-0.7
			c0.4-0.4,0.6-0.8,0.6-1.2C24.2,60.2,23.5,59.7,22.6,59.7"/>
		<path clip-path="url(#SVGID_30_)" fill="#A39FB2" d="M21.8,49c-1.1,0-1.7-0.3-1.8-1c-0.1-0.5,0.3-1.1,0.9-1.7
			c0.6-0.6,1.4-1,2.1-1.1c1.4-0.2,2.3,0.4,2.5,1.5c0.1,0.5-0.2,1-0.6,1.4c-0.5,0.4-1.1,0.7-1.8,0.8C22.5,49,22.1,49,21.8,49
			 M23.5,45.4c-0.2,0-0.3,0-0.5,0c-0.6,0.1-1.4,0.5-2,1c-0.6,0.5-0.9,1.1-0.8,1.5c0.1,0.7,1,1,2.7,0.7c0.7-0.1,1.3-0.3,1.7-0.7
			c0.4-0.4,0.6-0.8,0.6-1.2C25.1,45.9,24.5,45.4,23.5,45.4"/>
		<path clip-path="url(#SVGID_30_)" fill="#A39FB2" d="M7.1,53.6L7.1,53.6c-0.3,0-0.7,0-1.2-0.1c-0.7-0.1-1.4-0.4-1.8-0.8
			c-0.5-0.4-0.7-0.9-0.6-1.4c0.1-1.1,1.1-1.7,2.5-1.5c0.7,0.1,1.5,0.5,2.1,1.1c0.6,0.6,0.9,1.2,0.9,1.7C8.8,53.2,8.2,53.6,7.1,53.6
			 M5.4,50c-1,0-1.6,0.5-1.7,1.3c-0.1,0.4,0.1,0.8,0.6,1.2c0.4,0.4,1,0.6,1.7,0.7c1.8,0.2,2.6,0,2.7-0.7c0.1-0.4-0.3-1-0.8-1.5
			c-0.6-0.5-1.3-0.9-2-1C5.7,50,5.6,50,5.4,50"/>
		<path clip-path="url(#SVGID_30_)" fill="#A39FB2" d="M7.4,58.4L7.4,58.4c-0.3,0-0.7,0-1.2-0.1c-0.7-0.1-1.4-0.4-1.8-0.8
			c-0.5-0.4-0.7-0.9-0.6-1.4c0.1-1.1,1.1-1.7,2.5-1.5c0.7,0.1,1.5,0.5,2.1,1.1c0.6,0.6,0.9,1.2,0.9,1.7C9.1,58.1,8.5,58.4,7.4,58.4
			 M5.8,54.9c-1,0-1.6,0.5-1.7,1.3C4,56.6,4.2,57,4.6,57.4c0.4,0.4,1,0.6,1.7,0.7c1.8,0.2,2.6,0,2.7-0.7c0.1-0.4-0.3-1-0.8-1.5
			c-0.6-0.5-1.3-0.9-2-1C6.1,54.9,5.9,54.9,5.8,54.9"/>
		<path clip-path="url(#SVGID_30_)" fill="#A39FB2" d="M7.8,63.3L7.8,63.3c-0.3,0-0.7,0-1.2-0.1c-0.7-0.1-1.4-0.4-1.8-0.8
			C4.3,62,4.1,61.5,4.1,61c0.1-1.1,1.1-1.7,2.5-1.5c0.7,0.1,1.5,0.5,2.1,1.1c0.6,0.6,0.9,1.2,0.9,1.7C9.5,62.9,8.9,63.3,7.8,63.3
			 M6.1,59.7c-1,0-1.6,0.5-1.7,1.3c-0.1,0.4,0.1,0.8,0.6,1.2c0.4,0.4,1,0.6,1.7,0.7c1.8,0.2,2.6,0,2.7-0.7c0.1-0.4-0.3-1-0.8-1.5
			c-0.6-0.5-1.3-0.9-2-1C6.4,59.7,6.2,59.7,6.1,59.7"/>
		<path clip-path="url(#SVGID_30_)" fill="#A39FB2" d="M6.8,49L6.8,49c-0.3,0-0.7,0-1.2-0.1c-0.7-0.1-1.4-0.4-1.8-0.8
			c-0.5-0.4-0.7-0.9-0.6-1.4c0.1-1.1,1.1-1.7,2.5-1.5c0.7,0.1,1.5,0.5,2.1,1.1c0.6,0.6,0.9,1.2,0.9,1.7C8.5,48.7,7.9,49,6.8,49
			 M5.2,45.4c-1,0-1.6,0.5-1.7,1.3C3.4,47.2,3.6,47.6,4,48c0.4,0.4,1,0.6,1.7,0.7c1.8,0.2,2.6,0,2.7-0.7c0.1-0.4-0.3-1-0.8-1.5
			c-0.6-0.5-1.3-0.9-2-1C5.5,45.5,5.3,45.4,5.2,45.4"/>
	</g>
</g>
<g opacity="0.7">
	<g>
		<defs>
			<rect id="SVGID_31_" x="3.3" y="45.3" width="22" height="18.8"/>
		</defs>
		<clipPath id="SVGID_32_">
			<use xlink:href="#SVGID_31_"  overflow="visible"/>
		</clipPath>
		<path clip-path="url(#SVGID_32_)" fill="#C8CAC9" d="M3.3,46.7c-0.1,0.9,0.9,1.9,2.4,2.1c1.4,0.2,2.7,0.1,2.8-0.8
			c0.1-0.9-1.4-2.4-2.9-2.6C4.2,45.1,3.4,45.8,3.3,46.7"/>
		<path clip-path="url(#SVGID_32_)" fill="#D6D7D6" d="M8.3,47.6c-0.1,0.8-1.1,0.9-2.3,0.8c-1.2-0.1-2.1-0.9-2-1.7
			c0.1-0.8,0.8-1.3,1.9-1.2C7.1,45.6,8.4,46.8,8.3,47.6"/>
		<path clip-path="url(#SVGID_32_)" fill="#E4E4E4" d="M8,47.3C8,48,7.1,48.2,6.2,48.1c-0.9-0.1-1.6-0.7-1.6-1.4
			c0.1-0.6,0.6-1.1,1.6-1C7.1,45.8,8.1,46.7,8,47.3"/>
		<path clip-path="url(#SVGID_32_)" fill="#F1F2F1" d="M7.8,47c0,0.5-0.6,0.7-1.3,0.7c-0.7,0-1.2-0.5-1.2-1c0-0.5,0.5-0.9,1.2-0.8
			C7.2,45.9,7.8,46.5,7.8,47"/>
		<path clip-path="url(#SVGID_32_)" fill="#FFFFFF" d="M7.6,46.7c0,0.4-0.4,0.6-0.8,0.6c-0.4,0-0.8-0.3-0.8-0.6
			c0-0.4,0.4-0.6,0.8-0.6C7.2,46.1,7.6,46.4,7.6,46.7"/>
		<path clip-path="url(#SVGID_32_)" fill="#E4E4E4" d="M17.2,48c0,0.9-1.3,1.6-2.9,1.6c-1.6,0-2.9-0.7-2.9-1.6
			c0-0.9,1.3-1.6,2.9-1.6C15.9,46.5,17.2,47.2,17.2,48"/>
		<path clip-path="url(#SVGID_32_)" fill="#EBEBEB" d="M17.1,48c0,0.8-1.1,1.4-2.4,1.4c-1.3,0-2.4-0.6-2.4-1.4s1.1-1.4,2.4-1.4
			C16,46.6,17.1,47.2,17.1,48"/>
		<path clip-path="url(#SVGID_32_)" fill="#F1F2F1" d="M16.9,47.9c0,0.7-0.9,1.2-1.9,1.2S13,48.5,13,47.9c0-0.7,0.9-1.2,1.9-1.2
			S16.9,47.2,16.9,47.9"/>
		<path clip-path="url(#SVGID_32_)" fill="#F8F8F8" d="M16.7,47.8c0,0.5-0.6,1-1.4,1c-0.8,0-1.4-0.4-1.4-1c0-0.5,0.6-1,1.4-1
			C16.1,46.8,16.7,47.2,16.7,47.8"/>
		<path clip-path="url(#SVGID_32_)" fill="#FFFFFF" d="M16.6,47.7c0,0.4-0.4,0.8-0.9,0.8c-0.5,0-0.9-0.3-0.9-0.8s0.4-0.8,0.9-0.8
			C16.1,46.9,16.6,47.3,16.6,47.7"/>
		<path clip-path="url(#SVGID_32_)" fill="#E4E4E4" d="M25.3,46.7c0.1,0.9-0.9,1.9-2.4,2.1c-1.4,0.2-2.7,0.1-2.8-0.8
			C20,47,21.5,45.5,23,45.3C24.4,45.1,25.2,45.8,25.3,46.7"/>
		<path clip-path="url(#SVGID_32_)" fill="#EBEBEB" d="M25.1,46.7c0.1,0.8-0.8,1.6-2,1.7s-2.2,0-2.3-0.8c-0.1-0.8,1.2-2,2.3-2.2
			C24.3,45.3,25,45.8,25.1,46.7"/>
		<path clip-path="url(#SVGID_32_)" fill="#F1F2F1" d="M24.8,46.6c0.1,0.7-0.6,1.3-1.6,1.4c-0.9,0.1-1.7-0.1-1.8-0.8
			c-0.1-0.7,0.9-1.6,1.8-1.7C24.2,45.5,24.8,45.9,24.8,46.6"/>
		<path clip-path="url(#SVGID_32_)" fill="#F8F8F8" d="M24.6,46.6c0,0.5-0.5,1-1.2,1c-0.7,0-1.3-0.2-1.3-0.7c0-0.5,0.6-1.1,1.3-1.2
			S24.6,46,24.6,46.6"/>
		<path clip-path="url(#SVGID_32_)" fill="#FFFFFF" d="M24.4,46.5c0,0.4-0.3,0.7-0.8,0.7c-0.4,0-0.8-0.3-0.8-0.7
			c0-0.4,0.3-0.7,0.8-0.7C24,45.8,24.4,46.1,24.4,46.5"/>
		<path clip-path="url(#SVGID_32_)" fill="#E4E4E4" d="M25,51.3c0.1,0.9-0.9,1.9-2.4,2.1s-2.7,0.1-2.8-0.8c-0.1-0.9,1.4-2.4,2.9-2.6
			C24.1,49.7,24.9,50.3,25,51.3"/>
		<path clip-path="url(#SVGID_32_)" fill="#EBEBEB" d="M20.5,52.1c-0.1-0.8,1.2-1.9,2.4-2.1c1.2-0.1,1.9,0.4,2,1.2
			c0.1,0.8-0.8,1.5-2,1.7C21.6,53,20.6,52.9,20.5,52.1"/>
		<path clip-path="url(#SVGID_32_)" fill="#F1F2F1" d="M21.1,51.7c-0.1-0.6,0.9-1.4,1.9-1.5c1-0.1,1.5,0.3,1.6,0.9S24,52.2,23,52.3
			C22,52.4,21.2,52.3,21.1,51.7"/>
		<path clip-path="url(#SVGID_32_)" fill="#F8F8F8" d="M21.8,51.3c0-0.4,0.7-0.9,1.4-1c0.7,0,1.2,0.3,1.2,0.7c0,0.4-0.5,0.8-1.2,0.9
			C22.4,51.9,21.8,51.7,21.8,51.3"/>
		<path clip-path="url(#SVGID_32_)" fill="#FFFFFF" d="M22.4,50.9c0,0.2,0.4,0.4,0.9,0.4c0.5,0,0.9-0.2,0.9-0.4s-0.4-0.4-0.9-0.4
			C22.8,50.4,22.4,50.6,22.4,50.9"/>
		<path clip-path="url(#SVGID_32_)" fill="#E4E4E4" d="M17.2,52.8c0,0.9-1.3,1.6-2.9,1.6c-1.6,0-2.9-0.7-2.9-1.6
			c0-0.9,1.3-1.6,2.9-1.6C15.9,51.2,17.2,51.9,17.2,52.8"/>
		<path clip-path="url(#SVGID_32_)" fill="#EBEBEB" d="M12.1,52.7c0-0.7,1.1-1.3,2.5-1.3c1.4,0,2.5,0.6,2.5,1.3
			c0,0.7-1.1,1.3-2.5,1.3C13.2,54.1,12.1,53.5,12.1,52.7"/>
		<path clip-path="url(#SVGID_32_)" fill="#F1F2F1" d="M12.8,52.6c0-0.6,0.9-1.1,2-1.1c1.1,0,2,0.5,2,1.1c0,0.6-0.9,1.1-2,1.1
			C13.7,53.7,12.8,53.2,12.8,52.6"/>
		<path clip-path="url(#SVGID_32_)" fill="#F8F8F8" d="M13.5,52.5c0-0.5,0.7-0.8,1.5-0.8s1.5,0.4,1.5,0.8c0,0.5-0.7,0.8-1.5,0.8
			S13.5,53,13.5,52.5"/>
		<path clip-path="url(#SVGID_32_)" fill="#FFFFFF" d="M14.3,52.5c0,0.3,0.5,0.6,1,0.6s1-0.3,1-0.6c0-0.3-0.5-0.6-1-0.6
			S14.3,52.1,14.3,52.5"/>
		<path clip-path="url(#SVGID_32_)" fill="#C8CAC9" d="M3.6,51.3c-0.1,0.9,0.9,1.9,2.4,2.1c1.4,0.2,2.7,0.1,2.8-0.8
			c0.1-0.9-1.4-2.4-2.9-2.6C4.5,49.7,3.7,50.3,3.6,51.3"/>
		<path clip-path="url(#SVGID_32_)" fill="#D6D7D6" d="M8.4,52.1c-0.1,0.8-1.1,0.9-2.3,0.7S4,52,4.1,51.2C4.2,50.4,4.9,49.9,6,50
			C7.2,50.2,8.5,51.3,8.4,52.1"/>
		<path clip-path="url(#SVGID_32_)" fill="#E4E4E4" d="M8,51.7c-0.1,0.6-0.8,0.8-1.7,0.7c-0.9-0.1-1.6-0.7-1.5-1.3
			c0.1-0.6,0.6-1.1,1.5-1C7.1,50.2,8,51.1,8,51.7"/>
		<path clip-path="url(#SVGID_32_)" fill="#F1F2F1" d="M7.6,51.3c0,0.5-0.6,0.6-1.2,0.6c-0.6,0-1.1-0.5-1.1-0.9
			c0-0.5,0.4-0.8,1.1-0.7C7,50.3,7.6,50.9,7.6,51.3"/>
		<path clip-path="url(#SVGID_32_)" fill="#FFFFFF" d="M7.2,50.9c0,0.3-0.3,0.5-0.6,0.5c-0.4,0-0.6-0.2-0.6-0.5s0.3-0.5,0.6-0.5
			C6.9,50.4,7.2,50.7,7.2,50.9"/>
		<path clip-path="url(#SVGID_32_)" fill="#C8CAC9" d="M3.9,56.1c-0.1,0.9,0.9,1.9,2.4,2.1c1.4,0.2,2.7,0.1,2.8-0.8
			s-1.4-2.4-2.9-2.6C4.8,54.5,4,55.2,3.9,56.1"/>
		<path clip-path="url(#SVGID_32_)" fill="#D6D7D6" d="M8.7,57c-0.1,0.8-1.1,0.9-2.3,0.8c-1.2-0.1-2-0.9-2-1.7
			c0.1-0.8,0.8-1.4,1.9-1.2C7.6,55,8.8,56.2,8.7,57"/>
		<path clip-path="url(#SVGID_32_)" fill="#E4E4E4" d="M8.4,56.7c-0.1,0.7-0.9,0.9-1.8,0.8c-0.9-0.1-1.6-0.7-1.5-1.4
			s0.6-1.2,1.5-1.1C7.5,55.1,8.5,56,8.4,56.7"/>
		<path clip-path="url(#SVGID_32_)" fill="#F1F2F1" d="M8.1,56.4c0,0.5-0.6,0.8-1.3,0.8c-0.7,0-1.2-0.5-1.1-1.1
			c0-0.5,0.5-0.9,1.1-0.9C7.5,55.2,8.1,55.8,8.1,56.4"/>
		<path clip-path="url(#SVGID_32_)" fill="#FFFFFF" d="M7.7,56c0,0.4-0.3,0.7-0.7,0.7c-0.4,0-0.7-0.3-0.7-0.7s0.3-0.7,0.7-0.7
			C7.4,55.3,7.7,55.6,7.7,56"/>
		<path clip-path="url(#SVGID_32_)" fill="#E4E4E4" d="M17.2,57.7c0,0.9-1.3,1.6-2.9,1.6c-1.6,0-2.9-0.7-2.9-1.6s1.3-1.6,2.9-1.6
			C15.9,56.1,17.2,56.8,17.2,57.7"/>
		<path clip-path="url(#SVGID_32_)" fill="#EBEBEB" d="M16.9,57.6c0,0.7-1.1,1.3-2.4,1.3c-1.3,0-2.4-0.6-2.4-1.3
			c0-0.7,1.1-1.3,2.4-1.3C15.9,56.2,16.9,56.8,16.9,57.6"/>
		<path clip-path="url(#SVGID_32_)" fill="#F1F2F1" d="M16.7,57.4c0,0.6-0.9,1.1-1.9,1.1s-1.9-0.5-1.9-1.1s0.9-1,1.9-1
			S16.7,56.9,16.7,57.4"/>
		<path clip-path="url(#SVGID_32_)" fill="#F8F8F8" d="M16.4,57.3c0,0.4-0.6,0.8-1.4,0.8c-0.8,0-1.4-0.3-1.4-0.8s0.6-0.8,1.4-0.8
			C15.8,56.5,16.4,56.9,16.4,57.3"/>
		<path clip-path="url(#SVGID_32_)" fill="#FFFFFF" d="M16.1,57.2c0,0.3-0.4,0.5-0.9,0.5s-0.9-0.2-0.9-0.5s0.4-0.5,0.9-0.5
			S16.1,56.9,16.1,57.2"/>
		<path clip-path="url(#SVGID_32_)" fill="#E4E4E4" d="M24.7,56.1c0.1,0.9-0.9,1.9-2.4,2.1c-1.4,0.2-2.7,0.1-2.8-0.8
			s1.4-2.4,2.9-2.6C23.8,54.5,24.6,55.2,24.7,56.1"/>
		<path clip-path="url(#SVGID_32_)" fill="#EBEBEB" d="M20.1,57c-0.1-0.8,1.2-2,2.3-2.1s1.8,0.4,1.9,1.2c0.1,0.8-0.8,1.6-2,1.7
			C21.3,57.9,20.2,57.8,20.1,57"/>
		<path clip-path="url(#SVGID_32_)" fill="#F1F2F1" d="M20.7,56.5c-0.1-0.6,0.9-1.5,1.8-1.6c0.9-0.1,1.5,0.4,1.6,1
			c0.1,0.6-0.6,1.2-1.6,1.3S20.8,57.2,20.7,56.5"/>
		<path clip-path="url(#SVGID_32_)" fill="#F8F8F8" d="M21.3,56.1c0-0.5,0.6-1.1,1.3-1.1c0.7,0,1.1,0.3,1.2,0.8c0,0.5-0.5,0.9-1.2,1
			C21.9,56.9,21.3,56.6,21.3,56.1"/>
		<path clip-path="url(#SVGID_32_)" fill="#FFFFFF" d="M21.9,55.7c0,0.4,0.4,0.6,0.8,0.6s0.8-0.3,0.8-0.6s-0.4-0.6-0.8-0.6
			S21.9,55.4,21.9,55.7"/>
		<path clip-path="url(#SVGID_32_)" fill="#E4E4E4" d="M24.4,60.9c0.1,0.9-0.9,1.9-2.4,2.1c-1.4,0.2-2.7,0.1-2.8-0.8
			c-0.1-0.9,1.4-2.4,2.9-2.6C23.5,59.4,24.2,60,24.4,60.9"/>
		<path clip-path="url(#SVGID_32_)" fill="#EBEBEB" d="M19.8,61.8c-0.1-0.8,1.2-2,2.4-2.1c1.2-0.1,1.9,0.4,2,1.2
			c0.1,0.8-0.8,1.5-2,1.7C20.9,62.7,19.9,62.6,19.8,61.8"/>
		<path clip-path="url(#SVGID_32_)" fill="#F1F2F1" d="M20.4,61.4c-0.1-0.6,0.9-1.5,1.9-1.6c1-0.1,1.5,0.4,1.6,1
			c0.1,0.6-0.7,1.2-1.6,1.3C21.3,62.2,20.5,62,20.4,61.4"/>
		<path clip-path="url(#SVGID_32_)" fill="#F8F8F8" d="M21,61c0-0.5,0.6-1,1.4-1.1s1.2,0.3,1.2,0.8c0,0.5-0.5,0.9-1.2,0.9
			S21,61.4,21,61"/>
		<path clip-path="url(#SVGID_32_)" fill="#FFFFFF" d="M21.6,60.6c0,0.3,0.4,0.6,0.8,0.6c0.5,0,0.8-0.3,0.8-0.6S22.9,60,22.5,60
			C22,60,21.6,60.3,21.6,60.6"/>
		<path clip-path="url(#SVGID_32_)" fill="#E4E4E4" d="M17.2,62.4c0,0.9-1.3,1.6-2.9,1.6c-1.6,0-2.9-0.7-2.9-1.6s1.3-1.6,2.9-1.6
			C15.9,60.8,17.2,61.6,17.2,62.4"/>
		<path clip-path="url(#SVGID_32_)" fill="#EBEBEB" d="M12.1,62.3c0-0.7,1.1-1.3,2.4-1.3s2.4,0.6,2.4,1.3s-1.1,1.3-2.4,1.3
			S12.1,63,12.1,62.3"/>
		<path clip-path="url(#SVGID_32_)" fill="#F1F2F1" d="M12.8,62.2c0-0.6,0.9-1,1.9-1s1.9,0.5,1.9,1c0,0.6-0.9,1-1.9,1
			S12.8,62.8,12.8,62.2"/>
		<path clip-path="url(#SVGID_32_)" fill="#F8F8F8" d="M13.5,62.1c0-0.4,0.6-0.8,1.4-0.8c0.8,0,1.4,0.3,1.4,0.8
			c0,0.4-0.6,0.8-1.4,0.8C14.2,62.8,13.5,62.5,13.5,62.1"/>
		<path clip-path="url(#SVGID_32_)" fill="#FFFFFF" d="M14.3,62c0,0.3,0.4,0.5,0.9,0.5c0.5,0,0.9-0.2,0.9-0.5c0-0.3-0.4-0.5-0.9-0.5
			C14.7,61.5,14.3,61.7,14.3,62"/>
		<path clip-path="url(#SVGID_32_)" fill="#C8CAC9" d="M4.2,60.9c-0.1,0.9,0.9,1.9,2.4,2.1c1.4,0.2,2.7,0.1,2.8-0.8
			c0.1-0.9-1.4-2.4-2.9-2.6C5.1,59.4,4.4,60,4.2,60.9"/>
		<path clip-path="url(#SVGID_32_)" fill="#D6D7D6" d="M4.6,60.8c-0.1,0.8,0.8,1.5,2,1.7c1.2,0.1,2.3,0,2.4-0.7
			c0.1-0.8-1.2-2-2.4-2.1C5.4,59.5,4.7,60.1,4.6,60.8"/>
		<path clip-path="url(#SVGID_32_)" fill="#E4E4E4" d="M5,60.8C5,61.4,5.7,61.9,6.7,62c1,0.1,1.8,0,1.9-0.6c0.1-0.6-0.9-1.5-1.9-1.6
			C5.7,59.7,5.1,60.2,5,60.8"/>
		<path clip-path="url(#SVGID_32_)" fill="#F1F2F1" d="M5.4,60.7c0,0.4,0.5,0.8,1.3,0.9c0.7,0,1.4-0.1,1.4-0.6s-0.7-1-1.4-1
			C6,59.9,5.5,60.2,5.4,60.7"/>
		<path clip-path="url(#SVGID_32_)" fill="#FFFFFF" d="M5.8,60.6c0,0.3,0.4,0.5,0.9,0.5c0.5,0,0.9-0.2,0.9-0.5
			c0-0.3-0.4-0.5-0.9-0.5C6.3,60.1,5.8,60.3,5.8,60.6"/>
	</g>
</g>
<path fill="#D6D7D6" d="M5.3,40c0,0,1.8,2.2,2.6,2.6c0.7,0.3,1.1,0,1.3-0.2s1.2-1.6,1.2-1.6s0.3-0.6-0.3-0.9
	c-0.6-0.2-2.7-1.5-2.8-1.7c-0.2-0.3-0.5-0.5-1-0.2c-0.4,0.2-1.4,0.8-1.4,0.8s-0.3,0.2,0,0.6C5.1,39.7,5.3,40,5.3,40"/>
<g>
	<g>
		<defs>
			<rect id="SVGID_33_" x="6.5" y="37.7" width="3.9" height="4.8"/>
		</defs>
		<clipPath id="SVGID_34_">
			<use xlink:href="#SVGID_33_"  overflow="visible"/>
		</clipPath>
		<path clip-path="url(#SVGID_34_)" fill="#D6D7D6" d="M10.1,39.8c-0.6-0.2-2.7-1.5-2.8-1.7c-0.1-0.2-0.3-0.4-0.6-0.4c0,0,0,0-0.1,0
			l0.2,0.3c0.1,0,0.2,0.1,0.3,0.2c0.2,0.4,2.4,1.6,3,1.9c0.1,0.1,0.2,0.1,0.2,0.1c0,0.1,0,0.2,0,0.3c-0.1,0.2-1,1.3-1.2,1.6
			c0,0-0.1,0.1-0.1,0.1l0.1,0.3c0.1-0.1,0.2-0.1,0.2-0.2c0.2-0.2,1.2-1.6,1.2-1.6S10.7,40.1,10.1,39.8"/>
	</g>
</g>
<g>
	<g>
		<defs>
			<rect id="SVGID_35_" x="4.7" y="37.7" width="5.8" height="5"/>
		</defs>
		<clipPath id="SVGID_36_">
			<use xlink:href="#SVGID_35_"  overflow="visible"/>
		</clipPath>
		<path clip-path="url(#SVGID_36_)" fill="none" stroke="#7C7F7D" stroke-width="8.500000e-002" stroke-miterlimit="10" d="M5.3,40
			c0,0,1.8,2.2,2.6,2.6c0.7,0.3,1.1,0,1.3-0.2s1.2-1.6,1.2-1.6s0.3-0.6-0.3-0.9c-0.6-0.2-2.7-1.5-2.8-1.7c-0.2-0.3-0.5-0.5-1-0.2
			c-0.4,0.2-1.4,0.8-1.4,0.8s-0.3,0.2,0,0.6C5.1,39.7,5.3,40,5.3,40z"/>
	</g>
</g>
<path fill="#D6D7D6" d="M16.3,40.6l0.7,2.9c0,0,0.4,0.8,1.3,0.4c0.9-0.5,4.8-2.4,6.5-6c0,0,0.2-0.2-0.4-0.5
	c-0.5-0.3-1.1-0.5-1.1-0.5s-0.5-0.2-1.2,0.4c-0.7,0.6-2.3,2.1-4.8,2.5C17.3,39.8,16.2,39.9,16.3,40.6"/>
<g>
	<g>
		<defs>
			<rect id="SVGID_37_" x="16.4" y="36.9" width="8.5" height="3.9"/>
		</defs>
		<clipPath id="SVGID_38_">
			<use xlink:href="#SVGID_37_"  overflow="visible"/>
		</clipPath>
		<path clip-path="url(#SVGID_38_)" fill="#D6D7D6" d="M16.4,40.8c0.2-0.4,0.9-0.5,0.9-0.5c2.5-0.4,4.1-1.9,4.8-2.5
			c0.7-0.6,1.2-0.4,1.2-0.4s0.6,0.2,1.1,0.5c0.1,0.1,0.2,0.1,0.3,0.2c0-0.1,0.1-0.1,0.1-0.2c0,0,0.2-0.2-0.4-0.5s-1.1-0.5-1.1-0.5
			s-0.5-0.2-1.2,0.4c-0.7,0.6-2.3,2.1-4.8,2.5c0,0-1.1,0.1-1,0.8L16.4,40.8z"/>
	</g>
</g>
<g>
	<g>
		<defs>
			<rect id="SVGID_39_" x="16.3" y="36.8" width="8.6" height="7.3"/>
		</defs>
		<clipPath id="SVGID_40_">
			<use xlink:href="#SVGID_39_"  overflow="visible"/>
		</clipPath>
		<path clip-path="url(#SVGID_40_)" fill="none" stroke="#7C7F7D" stroke-width="8.500000e-002" stroke-miterlimit="10" d="
			M16.3,40.6l0.7,2.9c0,0,0.4,0.8,1.3,0.4c0.9-0.5,4.8-2.4,6.5-6c0,0,0.2-0.2-0.4-0.5c-0.5-0.3-1.1-0.5-1.1-0.5s-0.5-0.2-1.2,0.4
			c-0.7,0.6-2.3,2.1-4.8,2.5C17.3,39.8,16.2,39.9,16.3,40.6z"/>
	</g>
</g>
</svg>
