<?xml version="1.0" encoding="utf-8"?>
<!-- Generator: Adobe Illustrator 15.0.2, SVG Export Plug-In . SVG Version: 6.00 Build 0)  -->
<!DOCTYPE svg PUBLIC "-//W3C//DTD SVG 1.1//EN" "http://www.w3.org/Graphics/SVG/1.1/DTD/svg11.dtd">
<svg version="1.1" id="Layer_1" xmlns="http://www.w3.org/2000/svg" xmlns:xlink="http://www.w3.org/1999/xlink" x="0px" y="0px"
	 width="68.7px" height="69.3px" viewBox="0 0 68.7 69.3" enable-background="new 0 0 68.7 69.3" xml:space="preserve">
<path fill="#484546" d="M64.9,1.1c0-0.1,0-0.1-0.1-0.2c-0.3-0.7-1.1-1.1-1.8-0.9l-5.2,1.5l-6.4,1.8l-7.3,2.1l-6.4,1.8l-7.3,2.1
	L24,11.2l-7.3,2.1l-6.4,1.8l-7.3,2.1l-1.8,0.5c-0.8,0.2-1.3,1.1-1,1.9l1.4,4.7l0.8,2.9L8,25.6l6.4-1.8l7.3-2.1l6.4-1.8l7.3-2.1
	l6.4-1.8l7.3-2.1l6.4-1.8l7.3-2.1l4.2-1.2L64.9,1.1z"/>
<rect x="2.7" y="26.9" fill="#484546" width="66" height="2.2"/>
<path fill="#231F20" d="M56.7,29.2L56.7,29.2l-6.6,0l0,0l5.4,10.2h-7.6l-5.4-10.2l0,0h-6.7l0,0l5.4,10.2h-7.6l-5.4-10.2l0,0h-6.7
	l0,0L27,39.3h-7.6l-5.4-10.2l0,0H7.3l0,0l5.4,10.2H5.1l-3.8-7.1v35.5c0,0.8,0.7,1.5,1.5,1.5h64.4c0.8,0,1.5-0.7,1.5-1.5V39.3h-6.5
	L56.7,29.2z"/>
<polygon fill="#231F20" points="64.3,29.1 64.3,29.2 68.7,37.3 68.7,29.1 "/>
<polygon fill="#F2F1F2" points="13.9,29.2 19.3,39.3 27,39.3 21.5,29.2 21.5,29.1 13.9,29.1 "/>
<polygon fill="#F2F1F2" points="12.7,39.3 7.3,29.2 7.3,29.1 1.3,29.1 1.3,32.2 5.1,39.3 "/>
<polygon fill="#F2F1F2" points="42.4,29.2 47.9,39.3 55.5,39.3 50.1,29.2 50.1,29.1 42.5,29.1 "/>
<polygon fill="#F2F1F2" points="64.3,29.1 56.7,29.1 56.7,29.2 62.1,39.3 68.7,39.3 68.7,37.3 64.3,29.2 "/>
<polygon fill="#F2F1F2" points="28.2,29.2 33.6,39.3 41.2,39.3 35.8,29.2 35.8,29.1 28.2,29.1 "/>
<polygon fill="#231F20" points="24.4,12.9 22.2,23.3 28.6,21.5 30.8,11.1 "/>
<polygon fill="#231F20" points="38.2,9 35.9,19.4 42.3,17.6 44.6,7.1 "/>
<polygon fill="#231F20" points="10.7,16.8 8.5,27.3 14.9,25.4 17.1,15 "/>
<path fill="#231F20" d="M1.6,19.4c-0.8,0.2-1.3,1.1-1,1.9l1.4,4.7l1.5-7.1L1.6,19.4z"/>
<path fill="#231F20" d="M65.3,2.6l-1.9,9l4.2-1.2l-2.2-7.6C65.3,2.7,65.3,2.6,65.3,2.6"/>
<polygon fill="#231F20" points="51.9,5 49.6,15.5 56,13.6 58.3,3.2 "/>
<polygon fill="#F2F1F2" points="17.1,15 14.9,25.4 22.2,23.3 24.4,12.9 "/>
<polygon fill="#F2F1F2" points="3.4,18.9 1.9,26.1 2.7,28.9 8.5,27.3 10.7,16.8 "/>
<polygon fill="#F2F1F2" points="44.6,7.1 42.3,17.6 49.6,15.5 51.9,5 "/>
<path fill="#F2F1F2" d="M63.5,1.7l-5.2,1.5L56,13.6l7.3-2.1l1.9-9C65,1.9,64.2,1.5,63.5,1.7"/>
<polygon fill="#F2F1F2" points="30.8,11.1 28.6,21.5 35.9,19.4 38.2,9 "/>
<path fill="#4F4C4D" d="M4.2,19.7c-1.7-1.7-3.1-1.1-3.1,1.3v14.3c0,2.4,2,4.3,4.3,4.3h14.3c2.4,0,3-1.4,1.3-3.1L4.2,19.7z"/>
<path fill="#656263" d="M6.2,24.3c0,1-0.8,1.7-1.7,1.7s-1.7-0.8-1.7-1.7c0-1,0.8-1.7,1.7-1.7S6.2,23.3,6.2,24.3"/>
<g>
	<g>
		<defs>
			<rect id="SVGID_1_" x="3.9" y="22.9" width="1" height="0.8"/>
		</defs>
		<clipPath id="SVGID_2_">
			<use xlink:href="#SVGID_1_"  overflow="visible"/>
		</clipPath>
		<path clip-path="url(#SVGID_2_)" fill="#656263" d="M5,23.3c0,0.2-0.2,0.4-0.5,0.4c-0.3,0-0.5-0.2-0.5-0.4s0.2-0.4,0.5-0.4
			C4.7,22.9,5,23.1,5,23.3"/>
	</g>
</g>
<g opacity="0.5">
	<g>
		<defs>
			<rect id="SVGID_3_" x="2.7" y="24" width="3.4" height="2"/>
		</defs>
		<clipPath id="SVGID_4_">
			<use xlink:href="#SVGID_3_"  overflow="visible"/>
		</clipPath>
		<path clip-path="url(#SVGID_4_)" fill="#656263" d="M4.4,25.5c-0.9,0-1.6-0.6-1.7-1.5c0,0.1,0,0.2,0,0.2c0,1,0.8,1.7,1.7,1.7
			s1.7-0.8,1.7-1.7c0-0.1,0-0.2,0-0.2C6,24.9,5.3,25.5,4.4,25.5"/>
	</g>
</g>
<path fill="#656263" d="M6.2,36.3c0,1-0.8,1.7-1.7,1.7s-1.7-0.8-1.7-1.7c0-1,0.8-1.7,1.7-1.7S6.2,35.3,6.2,36.3"/>
<g>
	<g>
		<defs>
			<rect id="SVGID_5_" x="3.9" y="35" width="1" height="0.8"/>
		</defs>
		<clipPath id="SVGID_6_">
			<use xlink:href="#SVGID_5_"  overflow="visible"/>
		</clipPath>
		<path clip-path="url(#SVGID_6_)" fill="#656263" d="M5,35.3c0,0.2-0.2,0.4-0.5,0.4c-0.3,0-0.5-0.2-0.5-0.4S4.1,35,4.4,35
			C4.7,35,5,35.1,5,35.3"/>
	</g>
</g>
<g opacity="0.5">
	<g>
		<defs>
			<rect id="SVGID_7_" x="2.7" y="36.1" width="3.4" height="2"/>
		</defs>
		<clipPath id="SVGID_8_">
			<use xlink:href="#SVGID_7_"  overflow="visible"/>
		</clipPath>
		<path clip-path="url(#SVGID_8_)" fill="#656263" d="M4.4,37.5c-0.9,0-1.6-0.6-1.7-1.5c0,0.1,0,0.2,0,0.2c0,1,0.8,1.7,1.7,1.7
			s1.7-0.8,1.7-1.7c0-0.1,0-0.2,0-0.2C6,36.9,5.3,37.5,4.4,37.5"/>
	</g>
</g>
<path fill="#656263" d="M18,36.3c0,1-0.8,1.7-1.7,1.7c-1,0-1.7-0.8-1.7-1.7c0-1,0.8-1.7,1.7-1.7C17.3,34.6,18,35.3,18,36.3"/>
<g>
	<g>
		<defs>
			<rect id="SVGID_9_" x="15.8" y="35" width="1" height="0.8"/>
		</defs>
		<clipPath id="SVGID_10_">
			<use xlink:href="#SVGID_9_"  overflow="visible"/>
		</clipPath>
		<path clip-path="url(#SVGID_10_)" fill="#656263" d="M16.8,35.3c0,0.2-0.2,0.4-0.5,0.4c-0.3,0-0.5-0.2-0.5-0.4S16,35,16.3,35
			C16.6,35,16.8,35.1,16.8,35.3"/>
	</g>
</g>
<g opacity="0.5">
	<g>
		<defs>
			<rect id="SVGID_11_" x="14.6" y="36.1" width="3.4" height="2"/>
		</defs>
		<clipPath id="SVGID_12_">
			<use xlink:href="#SVGID_11_"  overflow="visible"/>
		</clipPath>
		<path clip-path="url(#SVGID_12_)" fill="#656263" d="M16.3,37.5c-0.9,0-1.6-0.6-1.7-1.5c0,0.1,0,0.2,0,0.2c0,1,0.8,1.7,1.7,1.7
			c1,0,1.7-0.8,1.7-1.7c0-0.1,0-0.2,0-0.2C17.9,36.9,17.2,37.5,16.3,37.5"/>
	</g>
</g>
<line fill="none" stroke="#F2F1F2" stroke-width="0.458" stroke-linecap="round" stroke-miterlimit="10" x1="2.4" y1="45.2" x2="67.5" y2="45.2"/>
<line fill="none" stroke="#F2F1F2" stroke-width="0.458" stroke-linecap="round" stroke-miterlimit="10" x1="2.4" y1="55.4" x2="67.5" y2="55.4"/>
<line fill="none" stroke="#F2F1F2" stroke-width="0.458" stroke-linecap="round" stroke-miterlimit="10" x1="2.4" y1="60.4" x2="67.5" y2="60.4"/>
<line fill="none" stroke="#F2F1F2" stroke-width="0.458" stroke-linecap="round" stroke-miterlimit="10" x1="2.4" y1="65.3" x2="67.5" y2="65.3"/>
<line fill="none" stroke="#F2F1F2" stroke-width="0.458" stroke-linecap="round" stroke-miterlimit="10" x1="36.8" y1="45.2" x2="36.8" y2="55.4"/>
</svg>
