<?xml version="1.0" encoding="utf-8"?>
<!-- Generator: Adobe Illustrator 15.0.2, SVG Export Plug-In . SVG Version: 6.00 Build 0)  -->
<!DOCTYPE svg PUBLIC "-//W3C//DTD SVG 1.1//EN" "http://www.w3.org/Graphics/SVG/1.1/DTD/svg11.dtd">
<svg version="1.1" id="Layer_1" xmlns="http://www.w3.org/2000/svg" xmlns:xlink="http://www.w3.org/1999/xlink" x="0px" y="0px"
	 width="40.3px" height="57.2px" viewBox="0 0 40.3 57.2" enable-background="new 0 0 40.3 57.2" xml:space="preserve">
<path fill="#72583C" d="M23.2,9.8h-6H1.9l6.4,45.1h0.3c1.3,0.9,5.9,2.3,11.5,2.3s10.2-1.4,11.5-2.3H32l6.4-45.1H23.2z"/>
<path fill="#A39280" d="M18.7,56.4L12.3,9.2H6.7L13,55.3C14.6,55.6,16.5,56.3,18.7,56.4"/>
<path fill="#231F20" d="M38.3,10.2c0,1.4-8.1,2.6-18.1,2.6c-10,0-18.1-1.2-18.1-2.6s8.1-2.6,18.1-2.6C30.2,7.6,38.3,8.7,38.3,10.2"
	/>
<g opacity="0.71">
	<g>
		<defs>
			<rect id="SVGID_1_" x="2.5" y="7.8" width="35.5" height="9.5"/>
		</defs>
		<clipPath id="SVGID_2_">
			<use xlink:href="#SVGID_1_"  overflow="visible"/>
		</clipPath>
		<path clip-path="url(#SVGID_2_)" fill="#A39280" d="M38,12.5c0,2.6-8,4.7-17.8,4.7c-9.8,0-17.8-2.1-17.8-4.7c0-2.6,8-4.7,17.8-4.7
			C30.1,7.8,38,9.9,38,12.5"/>
	</g>
</g>
<path fill="#DEDDDE" d="M40.3,10.8l-1.7-2.3c0-1.9-8.3-3.5-18.5-3.5h0C10,5.1,1.7,6.6,1.7,8.5L0,10.8c0,2,9,4.3,20.2,4.3h0
	C31.3,15.1,40.3,12.8,40.3,10.8"/>
<path fill="#DEDDDE" d="M34.7,6.4l-1.2-3.2c0-2.1-5.9-3.2-13.2-3.2C12.9,0,7,1.1,7,3.2L5.7,6.4c0,1.7,6.5,2.8,14.5,2.8
	C28.2,9.2,34.7,8,34.7,6.4"/>
<path fill="#BDBCBC" d="M29.6,1.8c0-0.7-4.2-1.3-9.3-1.3c-5.2,0-9.3,0.6-9.3,1.3s4.2,1.3,9.3,1.3C25.4,3.1,29.6,2.5,29.6,1.8"/>
<path fill="#7B7979" d="M11.2,2.2c1.1-0.5,4.7-0.9,9-0.9c4.3,0,7.9,0.4,9,0.9c0.2-0.1,0.4-0.2,0.4-0.3c0-0.7-4.2-1.3-9.3-1.3
	c-5.2,0-9.3,0.6-9.3,1.3C10.9,1.9,11,2,11.2,2.2"/>
<path fill="#7B7979" d="M32.8,3c0,0.3-0.2,0.5-0.4,0.7c-0.2,0.2-0.5,0.3-0.7,0.4c-0.5,0.2-1,0.4-1.6,0.6c-1.1,0.3-2.2,0.5-3.3,0.6
	c-2.2,0.3-4.4,0.4-6.6,0.4c-2.2,0-4.4-0.1-6.6-0.4c-1.1-0.2-2.2-0.4-3.3-0.6C9.8,4.5,9.2,4.3,8.7,4.1C8.5,4,8.2,3.8,8,3.7
	C7.8,3.5,7.6,3.3,7.6,3c0,0.3,0.3,0.5,0.5,0.6c0.2,0.1,0.5,0.3,0.7,0.4c0.5,0.2,1,0.3,1.6,0.4c1.1,0.2,2.2,0.4,3.3,0.5
	c2.2,0.2,4.4,0.3,6.6,0.3c2.2,0,4.4-0.1,6.6-0.3c1.1-0.1,2.2-0.3,3.3-0.5c0.5-0.1,1.1-0.2,1.6-0.4c0.3-0.1,0.5-0.2,0.7-0.4
	C32.6,3.5,32.8,3.3,32.8,3"/>
<g opacity="0.5">
	<g>
		<defs>
			<rect id="SVGID_3_" x="5.7" y="6.4" width="28.9" height="3.1"/>
		</defs>
		<clipPath id="SVGID_4_">
			<use xlink:href="#SVGID_3_"  overflow="visible"/>
		</clipPath>
		<path clip-path="url(#SVGID_4_)" fill="#7B7979" d="M34.6,6.4c0,0.3-0.2,0.6-0.5,0.8c-0.3,0.2-0.5,0.3-0.8,0.5
			c-0.6,0.3-1.2,0.5-1.8,0.6C30.2,8.6,29,8.8,27.7,9c-2.5,0.3-5.1,0.5-7.6,0.5c-2.5,0-5.1-0.1-7.6-0.5C11.3,8.8,10,8.6,8.8,8.3
			C8.2,8.1,7.6,7.9,7,7.6C6.7,7.5,6.4,7.3,6.2,7.2C5.9,7,5.7,6.7,5.7,6.4c0,0.3,0.3,0.5,0.6,0.7c0.3,0.2,0.5,0.3,0.8,0.4
			C7.7,7.7,8.3,7.8,8.9,8c1.2,0.3,2.5,0.4,3.7,0.6c2.5,0.2,5,0.4,7.5,0.3c2.5,0,5-0.1,7.5-0.3c1.3-0.1,2.5-0.3,3.7-0.6
			c0.6-0.1,1.2-0.3,1.8-0.5c0.3-0.1,0.6-0.2,0.8-0.4C34.3,6.9,34.6,6.7,34.6,6.4"/>
	</g>
</g>
<g opacity="0.5">
	<g>
		<defs>
			<rect id="SVGID_5_" x="1.9" y="8.4" width="36.3" height="4.2"/>
		</defs>
		<clipPath id="SVGID_6_">
			<use xlink:href="#SVGID_5_"  overflow="visible"/>
		</clipPath>
		<path clip-path="url(#SVGID_6_)" fill="#D3D2D2" d="M38.3,8.4c0,0.4-0.3,0.8-0.6,1c-0.3,0.3-0.7,0.5-1,0.6
			c-0.7,0.4-1.5,0.6-2.3,0.9c-1.5,0.4-3.1,0.7-4.7,1c-3.2,0.5-6.4,0.6-9.5,0.7c-3.2-0.1-6.4-0.2-9.5-0.7c-1.6-0.3-3.2-0.5-4.7-1
			c-0.8-0.2-1.5-0.5-2.3-0.9c-0.4-0.2-0.7-0.4-1-0.6c-0.3-0.3-0.6-0.6-0.6-1H2c0,0.4,0.3,0.7,0.6,0.9c0.3,0.2,0.7,0.4,1,0.5
			c0.7,0.3,1.5,0.5,2.3,0.7c1.5,0.4,3.1,0.6,4.7,0.8c3.1,0.4,6.3,0.5,9.5,0.5c3.2,0,6.3-0.1,9.5-0.5c1.6-0.2,3.1-0.4,4.7-0.8
			c0.8-0.2,1.5-0.4,2.3-0.7c0.4-0.1,0.7-0.3,1-0.5C37.9,9.1,38.2,8.8,38.3,8.4L38.3,8.4z"/>
	</g>
</g>
<g opacity="0.71">
	<g>
		<defs>
			<rect id="SVGID_7_" x="6.5" y="39" width="27.4" height="9.2"/>
		</defs>
		<clipPath id="SVGID_8_">
			<use xlink:href="#SVGID_7_"  overflow="visible"/>
		</clipPath>
		<path clip-path="url(#SVGID_8_)" fill="#A39280" d="M33.9,43.6c0,2.5-6.1,4.6-13.7,4.6c-7.6,0-13.7-2.1-13.7-4.6S12.6,39,20.2,39
			C27.8,39,33.9,41.1,33.9,43.6"/>
	</g>
</g>
<path fill="#444142" d="M29.3,3.7c0,0.3-0.9,0.5-2.1,0.5c-1.1,0-2.1-0.2-2.1-0.5c0-0.3,0.9-0.5,2.1-0.5C28.4,3.1,29.3,3.4,29.3,3.7"
	/>
<path fill="#231F20" d="M27.5,3.4c0.8,0,1.5,0.1,1.8,0.3c0,0,0-0.1,0-0.1c0-0.3-0.9-0.5-2.1-0.5s-2.1,0.2-2.1,0.5
	c0,0.1,0.1,0.2,0.2,0.2C25.6,3.6,26.4,3.4,27.5,3.4"/>
<path fill="#9C8A77" d="M3.2,19.7l0,0.3l0,0C3.2,19.9,3.2,19.8,3.2,19.7"/>
<path fill="#806950" d="M3.3,20L3.3,20l0,0.3l0.1-0.1C3.3,20,3.3,20,3.3,20"/>
<path fill="#9C8A77" d="M3.4,20.1l-0.1,0.1l0.1,0.6l0.5-0.5C3.6,20.3,3.5,20.2,3.4,20.1"/>
<path fill="#806950" d="M3.8,20.4l-0.5,0.5l0,0.2L4,20.4C3.9,20.4,3.9,20.4,3.8,20.4"/>
<path fill="#9C8A77" d="M4,20.4l-0.6,0.6l0.1,0.6l1.1-1.1C4.3,20.6,4.1,20.5,4,20.4"/>
<path fill="#806950" d="M4.5,20.6l-1.1,1.1l0,0.2l1.2-1.2C4.6,20.7,4.6,20.6,4.5,20.6"/>
<path fill="#9C8A77" d="M4.7,20.7l-1.2,1.2l0.1,0.6l1.7-1.7C5.1,20.8,4.9,20.7,4.7,20.7"/>
<path fill="#806950" d="M5.3,20.8l-1.7,1.7l0,0.2l1.9-1.9C5.4,20.9,5.3,20.8,5.3,20.8"/>
<path fill="#9C8A77" d="M5.4,20.9l-1.9,1.9l0.1,0.6L6,21C5.8,21,5.6,20.9,5.4,20.9"/>
<path fill="#806950" d="M6,21l-2.4,2.4l0,0.2L6.2,21C6.2,21,6.1,21,6,21"/>
<path fill="#9C8A77" d="M6.2,21l-2.6,2.6l0.1,0.6l3.1-3.1C6.6,21.1,6.4,21.1,6.2,21"/>
<path fill="#806950" d="M6.8,21.2l-3.1,3.1l0,0.2l3.3-3.3C7,21.2,6.9,21.2,6.8,21.2"/>
<path fill="#9C8A77" d="M7.1,21.2l-3.3,3.3l0.1,0.6l3.8-3.8C7.5,21.3,7.3,21.2,7.1,21.2"/>
<path fill="#806950" d="M7.7,21.3l-3.8,3.8l0,0.2l4-4C7.8,21.3,7.7,21.3,7.7,21.3"/>
<path fill="#9C8A77" d="M7.9,21.3l-4,4L4,26l4.6-4.6C8.3,21.4,8.1,21.4,7.9,21.3"/>
<path fill="#806950" d="M8.5,21.4L4,26l0,0.2l4.8-4.8C8.7,21.4,8.6,21.4,8.5,21.4"/>
<path fill="#9C8A77" d="M8.7,21.4L4,26.2l0.1,0.6l5.3-5.3C9.2,21.5,8.9,21.5,8.7,21.4"/>
<path fill="#806950" d="M9.4,21.5l-5.3,5.3l0,0.2l5.5-5.5C9.5,21.5,9.4,21.5,9.4,21.5"/>
<path fill="#9C8A77" d="M9.6,21.5L4.1,27l0.1,0.6l6.1-6.1C10,21.6,9.8,21.6,9.6,21.5"/>
<path fill="#806950" d="M10.2,21.6l-6.1,6.1l0,0.2l6.3-6.3C10.4,21.6,10.3,21.6,10.2,21.6"/>
<path fill="#9C8A77" d="M10.5,21.6l-6.3,6.3l0.1,0.6l6.8-6.8C10.9,21.7,10.7,21.7,10.5,21.6"/>
<path fill="#806950" d="M11.1,21.7l-6.8,6.8l0,0.2l7-7C11.3,21.7,11.2,21.7,11.1,21.7"/>
<path fill="#9C8A77" d="M11.3,21.7l-7,7l0.1,0.6l7.6-7.6C11.8,21.8,11.6,21.7,11.3,21.7"/>
<path fill="#806950" d="M12,21.8l-7.6,7.6l0,0.2l7.8-7.8C12.1,21.8,12.1,21.8,12,21.8"/>
<path fill="#9C8A77" d="M12.2,21.8l-7.8,7.8l0.1,0.6l8.4-8.4C12.7,21.8,12.4,21.8,12.2,21.8"/>
<path fill="#806950" d="M12.9,21.8l-8.4,8.4l0,0.2l8.6-8.6C13,21.8,13,21.8,12.9,21.8"/>
<path fill="#9C8A77" d="M13.1,21.8l-8.6,8.6l0.1,0.6l9.2-9.2C13.6,21.9,13.3,21.9,13.1,21.8"/>
<path fill="#806950" d="M13.8,21.9l-9.2,9.2l0,0.2l9.4-9.4C13.9,21.9,13.9,21.9,13.8,21.9"/>
<path fill="#9C8A77" d="M14,21.9l-9.4,9.4L4.7,32l10-10C14.5,21.9,14.3,21.9,14,21.9"/>
<path fill="#806950" d="M14.7,21.9l-10,10l0,0.2L14.9,22C14.9,21.9,14.8,21.9,14.7,21.9"/>
<path fill="#9C8A77" d="M14.9,21.9L4.7,32.2l0.1,0.6L15.6,22C15.4,22,15.2,22,14.9,21.9"/>
<path fill="#806950" d="M15.6,22L4.8,32.8l0,0.2l11-11C15.8,22,15.7,22,15.6,22"/>
<path fill="#9C8A77" d="M15.9,22l-11,11l0.1,0.6L16.6,22C16.3,22,16.1,22,15.9,22"/>
<path fill="#806950" d="M16.6,22L4.9,33.7l0,0.2L16.8,22C16.7,22,16.6,22,16.6,22"/>
<path fill="#9C8A77" d="M16.8,22L4.9,33.9L5,34.5L17.5,22C17.3,22,17,22,16.8,22"/>
<path fill="#806950" d="M17.5,22L5,34.5l0,0.2L17.7,22C17.6,22,17.6,22,17.5,22"/>
<path fill="#9C8A77" d="M17.7,22L5,34.7l0.1,0.6l13.3-13.3C18.2,22.1,18,22,17.7,22"/>
<path fill="#806950" d="M18.4,22.1L5.1,35.4l0,0.2l13.5-13.5C18.6,22.1,18.5,22.1,18.4,22.1"/>
<path fill="#9C8A77" d="M18.7,22.1L5.1,35.6l0.1,0.6l14.2-14.2C19.1,22.1,18.9,22.1,18.7,22.1"/>
<path fill="#806950" d="M19.4,22.1L5.2,36.2l0,0.2l14.4-14.4C19.5,22.1,19.5,22.1,19.4,22.1"/>
<path fill="#9C8A77" d="M20.2,22.1c-0.2,0-0.4,0-0.6,0L5.3,36.4l0.1,0.6l15-15C20.3,22.1,20.3,22.1,20.2,22.1"/>
<path fill="#806950" d="M20.3,22.1l-15,15l0,0.2l15.2-15.2C20.5,22.1,20.4,22.1,20.3,22.1"/>
<path fill="#9C8A77" d="M20.6,22.1L5.4,37.3l0.1,0.6l15.9-15.9C21.1,22.1,20.8,22.1,20.6,22.1"/>
<path fill="#806950" d="M21.3,22.1L5.4,37.9l0,0.2l16.1-16.1C21.5,22.1,21.4,22.1,21.3,22.1"/>
<path fill="#9C8A77" d="M21.5,22.1L5.5,38.1l0.1,0.6l16.7-16.7C22,22.1,21.8,22.1,21.5,22.1"/>
<path fill="#806950" d="M22.3,22.1L5.5,38.8l0,0.2L22.5,22C22.4,22,22.4,22.1,22.3,22.1"/>
<path fill="#9C8A77" d="M22.5,22L5.6,39l0.1,0.6L23.3,22C23,22,22.8,22,22.5,22"/>
<path fill="#806950" d="M23.3,22L5.7,39.6l0,0.2L23.5,22C23.4,22,23.3,22,23.3,22"/>
<path fill="#9C8A77" d="M23.5,22L5.7,39.8l0.1,0.6L24.2,22C24,22,23.8,22,23.5,22"/>
<path fill="#806950" d="M24.2,22L5.8,40.5l0,0.2L24.5,22C24.4,22,24.3,22,24.2,22"/>
<path fill="#9C8A77" d="M24.5,22L5.8,40.7l0.1,0.6L25.2,22C25,22,24.7,22,24.5,22"/>
<path fill="#806950" d="M25.2,22L5.9,41.3l0,0.2l19.6-19.6C25.4,22,25.3,22,25.2,22"/>
<path fill="#9C8A77" d="M25.5,21.9L5.9,41.6L6,42.2l20.3-20.3C26,21.9,25.8,21.9,25.5,21.9"/>
<path fill="#806950" d="M26.3,21.9L6,42.2l0,0.2l20.5-20.5C26.4,21.9,26.3,21.9,26.3,21.9"/>
<path fill="#9C8A77" d="M26.5,21.9L6,42.4l0.1,0.6l21.2-21.2C27,21.9,26.8,21.9,26.5,21.9"/>
<path fill="#806950" d="M27.3,21.9L6.1,43.1l0,0.2l21.4-21.4C27.4,21.8,27.4,21.8,27.3,21.9"/>
<path fill="#9C8A77" d="M27.5,21.8L6.1,43.3l0.1,0.6l22.1-22.1C28.1,21.8,27.8,21.8,27.5,21.8"/>
<path fill="#806950" d="M28.3,21.8L6.2,43.9l0,0.2l22.4-22.4C28.5,21.8,28.4,21.8,28.3,21.8"/>
<path fill="#9C8A77" d="M28.6,21.8L6.2,44.1l0.1,0.6l23.1-23.1C29.1,21.7,28.8,21.7,28.6,21.8"/>
<path fill="#806950" d="M29.4,21.7L6.3,44.8l0,0.2l23.3-23.3C29.5,21.7,29.4,21.7,29.4,21.7"/>
<path fill="#9C8A77" d="M29.6,21.7L6.3,45l0,0.2c0,0.1,0.1,0.2,0.1,0.3l23.9-23.9C30.2,21.6,29.9,21.6,29.6,21.7"/>
<path fill="#806950" d="M30.4,21.6L6.5,45.5c0,0,0.1,0.1,0.1,0.1l24.1-24.1C30.6,21.6,30.5,21.6,30.4,21.6"/>
<path fill="#9C8A77" d="M30.7,21.6L6.6,45.7c0.1,0.1,0.3,0.2,0.4,0.3l24.5-24.5C31.2,21.5,31,21.5,30.7,21.6"/>
<path fill="#806950" d="M31.5,21.5L7,45.9c0,0,0.1,0.1,0.2,0.1l24.6-24.6C31.7,21.4,31.6,21.5,31.5,21.5"/>
<path fill="#9C8A77" d="M31.8,21.4L7.2,46c0.2,0.1,0.3,0.1,0.5,0.2l24.9-24.9C32.3,21.4,32.1,21.4,31.8,21.4"/>
<path fill="#806950" d="M32.6,21.3L7.7,46.2c0.1,0,0.1,0,0.2,0.1l25-25C32.8,21.3,32.7,21.3,32.6,21.3"/>
<path fill="#9C8A77" d="M32.9,21.3l-25,25c0.2,0.1,0.4,0.1,0.6,0.2l25.3-25.3C33.5,21.2,33.2,21.2,32.9,21.3"/>
<path fill="#806950" d="M33.8,21.1L8.4,46.5c0.1,0,0.1,0,0.2,0.1l25.4-25.4C34,21.1,33.9,21.1,33.8,21.1"/>
<path fill="#9C8A77" d="M34.1,21.1L8.6,46.5c0.2,0,0.4,0.1,0.6,0.1L35,20.9C34.7,20.9,34.4,21,34.1,21.1"/>
<path fill="#806950" d="M35,20.9L9.2,46.7c0.1,0,0.1,0,0.2,0l25.9-25.9C35.2,20.8,35.1,20.9,35,20.9"/>
<path fill="#9C8A77" d="M35.3,20.8L9.4,46.7c0.2,0,0.4,0.1,0.6,0.1l26.3-26.3C36,20.6,35.7,20.7,35.3,20.8"/>
<path fill="#806950" d="M37.2,19.7C37.2,19.8,37.2,19.8,37.2,19.7L37.2,19.7L37.2,19.7z"/>
<path fill="#806950" d="M36.3,20.5L10,46.8c0.1,0,0.1,0,0.2,0l26.6-26.6C36.7,20.3,36.5,20.4,36.3,20.5"/>
<path fill="#9C8A77" d="M37.2,19.8l-0.4,0.4C37,20.1,37.2,20,37.2,19.8"/>
<path fill="#9C8A77" d="M37.2,19.8L37.2,19.8c0,0.2-0.2,0.3-0.5,0.5L10.2,46.9c0.2,0,0.4,0.1,0.6,0.1l26.3-26.3L37.2,19.8z"/>
<path fill="#806950" d="M37.1,20.6L10.8,46.9c0.1,0,0.1,0,0.2,0l26.1-26.1L37.1,20.6z"/>
<path fill="#9C8A77" d="M37.1,20.9L11,47c0.2,0,0.4,0.1,0.6,0.1L37,21.7L37.1,20.9z"/>
<path fill="#806950" d="M37,21.7L11.7,47.1c0.1,0,0.1,0,0.2,0L37,22L37,21.7z"/>
<path fill="#9C8A77" d="M37,22L11.9,47.1c0.2,0,0.4,0.1,0.6,0.1l24.3-24.3L37,22z"/>
<path fill="#806950" d="M36.9,22.8L12.5,47.2c0.1,0,0.1,0,0.2,0l24.1-24.1L36.9,22.8z"/>
<path fill="#9C8A77" d="M36.8,23.1L12.7,47.2c0.2,0,0.4,0,0.7,0.1l23.3-23.3L36.8,23.1z"/>
<path fill="#806950" d="M36.7,23.9L13.4,47.3c0.1,0,0.1,0,0.2,0l23.1-23.1L36.7,23.9z"/>
<path fill="#9C8A77" d="M36.7,24.2L13.6,47.3c0.2,0,0.4,0,0.7,0.1L36.6,25L36.7,24.2z"/>
<path fill="#806950" d="M36.6,25L14.3,47.3c0.1,0,0.1,0,0.2,0l22.1-22.1L36.6,25z"/>
<path fill="#9C8A77" d="M36.6,25.3L14.5,47.3c0.2,0,0.5,0,0.7,0l21.3-21.3L36.6,25.3z"/>
<path fill="#806950" d="M36.5,26.1L15.2,47.4c0.1,0,0.1,0,0.2,0l21-21L36.5,26.1z"/>
<path fill="#9C8A77" d="M36.4,26.4l-21,21c0.2,0,0.5,0,0.7,0l20.2-20.2L36.4,26.4z"/>
<path fill="#806950" d="M36.3,27.2L16.1,47.4c0.1,0,0.2,0,0.2,0l20-20L36.3,27.2z"/>
<path fill="#9C8A77" d="M36.3,27.5l-20,20c0.2,0,0.5,0,0.7,0l19.2-19.2L36.3,27.5z"/>
<path fill="#806950" d="M36.2,28.3L17,47.5c0.1,0,0.2,0,0.2,0l18.9-18.9L36.2,28.3z"/>
<path fill="#9C8A77" d="M36.1,28.6L17.2,47.5c0.2,0,0.5,0,0.7,0L36,29.4L36.1,28.6z"/>
<path fill="#806950" d="M36,29.4L17.9,47.5c0.1,0,0.2,0,0.2,0L36,29.7L36,29.4z"/>
<path fill="#9C8A77" d="M36,29.7L18.2,47.5c0.2,0,0.5,0,0.7,0l17-17L36,29.7z"/>
<path fill="#806950" d="M35.9,30.5l-17,17c0.1,0,0.2,0,0.2,0l16.7-16.7L35.9,30.5z"/>
<path fill="#9C8A77" d="M35.9,30.8L19.1,47.5c0.2,0,0.5,0,0.7,0l15.9-15.9L35.9,30.8z"/>
<path fill="#806950" d="M35.8,31.6L19.8,47.5c0.1,0,0.2,0,0.2,0l15.7-15.7L35.8,31.6z"/>
<path fill="#9C8A77" d="M35.7,31.9L20.1,47.5c0,0,0.1,0,0.1,0c0.2,0,0.4,0,0.6,0l14.8-14.8L35.7,31.9z"/>
<path fill="#806950" d="M35.6,32.7L20.8,47.5c0.1,0,0.2,0,0.2,0L35.6,33L35.6,32.7z"/>
<path fill="#9C8A77" d="M35.6,33L21,47.5c0.2,0,0.5,0,0.7,0l13.7-13.7L35.6,33z"/>
<path fill="#806950" d="M35.5,33.8L21.8,47.5c0.1,0,0.2,0,0.2,0l13.4-13.4L35.5,33.8z"/>
<path fill="#9C8A77" d="M35.5,34.1L22,47.5c0.3,0,0.5,0,0.7,0l12.6-12.6L35.5,34.1z"/>
<path fill="#806950" d="M35.4,34.9L22.8,47.5c0.1,0,0.2,0,0.2,0l12.3-12.3L35.4,34.9z"/>
<path fill="#9C8A77" d="M35.3,35.2L23,47.5c0.3,0,0.5,0,0.7,0L35.2,36L35.3,35.2z"/>
<path fill="#806950" d="M35.2,36L23.7,47.5c0.1,0,0.2,0,0.2,0l11.2-11.2L35.2,36z"/>
<path fill="#9C8A77" d="M35.2,36.3L24,47.4c0.3,0,0.5,0,0.8,0l10.3-10.3L35.2,36.3z"/>
<path fill="#806950" d="M35.1,37.1L24.8,47.4c0.1,0,0.2,0,0.3,0l10-10L35.1,37.1z"/>
<path fill="#9C8A77" d="M35.1,37.4l-10,10c0.3,0,0.5,0,0.8,0l9.2-9.2L35.1,37.4z"/>
<path fill="#806950" d="M35,38.2l-9.2,9.2c0.1,0,0.2,0,0.3,0l8.9-8.9L35,38.2z"/>
<path fill="#9C8A77" d="M34.9,38.4L26,47.3c0.3,0,0.5,0,0.8-0.1l8-8L34.9,38.4z"/>
<path fill="#806950" d="M34.8,39.3l-8,8c0.1,0,0.2,0,0.3,0l7.7-7.7L34.8,39.3z"/>
<path fill="#9C8A77" d="M34.8,39.5l-7.7,7.7c0.3,0,0.5-0.1,0.8-0.1l6.8-6.8L34.8,39.5z"/>
<path fill="#806950" d="M34.7,40.4l-6.8,6.8c0.1,0,0.2,0,0.3,0l6.5-6.5L34.7,40.4z"/>
<path fill="#9C8A77" d="M34.6,40.6l-6.5,6.5c0.3,0,0.6-0.1,0.8-0.1l5.6-5.6L34.6,40.6z"/>
<path fill="#806950" d="M34.5,41.5L29,47c0.1,0,0.2,0,0.3,0l5.3-5.3L34.5,41.5z"/>
<path fill="#9C8A77" d="M34.5,41.7L29.2,47c0.3,0,0.6-0.1,0.9-0.1l4.3-4.3L34.5,41.7z"/>
<path fill="#806950" d="M34.4,42.6l-4.3,4.3c0.1,0,0.2,0,0.3,0l4-4L34.4,42.6z"/>
<path fill="#9C8A77" d="M34.4,42.8l-4,4c0.3-0.1,0.6-0.1,0.9-0.2l3-3L34.4,42.8z"/>
<path fill="#806950" d="M34.3,43.7l-3,3c0.1,0,0.2,0,0.3-0.1l2.6-2.6L34.3,43.7z"/>
<path fill="#9C8A77" d="M34.2,43.9l-2.6,2.6c0.4-0.1,0.7-0.2,1-0.3l1.5-1.5L34.2,43.9z"/>
<path fill="#806950" d="M32.6,46.3c0.1,0,0.3-0.1,0.4-0.1l1.1-1.1l0-0.3L32.6,46.3z"/>
<path fill="#9C8A77" d="M34.1,45.2l0-0.2L33,46.1C33.7,45.8,34.1,45.5,34.1,45.2"/>
<g>
	<g>
		<defs>
			<rect id="SVGID_9_" x="3.2" y="19.8" width="34.1" height="2.7"/>
		</defs>
		<clipPath id="SVGID_10_">
			<use xlink:href="#SVGID_9_"  overflow="visible"/>
		</clipPath>
		<path clip-path="url(#SVGID_10_)" fill="#9C8A77" d="M37.3,19.9L37.3,19.9L37.3,19.9C37.3,19.9,37.3,19.9,37.3,19.9L37.3,19.9
			L37.3,19.9l-0.4,0.5l0,0l0,0c-0.6,0.4-1.3,0.6-2,0.7c-0.7,0.2-1.4,0.3-2.1,0.5c-1.4,0.2-2.8,0.4-4.3,0.6c-2.9,0.3-5.7,0.4-8.6,0.4
			c-2.9,0-5.7-0.1-8.6-0.4c-1.4-0.2-2.8-0.3-4.3-0.6C6.4,21.3,5.7,21.2,5,21c-0.3-0.1-0.7-0.2-1-0.4c-0.3-0.2-0.7-0.3-0.8-0.7l0,0
			l0,0.3l0-0.3l0,0c0.1,0.4,0.5,0.5,0.8,0.6c0.3,0.1,0.7,0.2,1,0.3c0.7,0.2,1.4,0.3,2.1,0.4c1.4,0.2,2.8,0.3,4.2,0.4
			c2.8,0.2,5.7,0.3,8.5,0.3c2.8,0,5.7-0.1,8.5-0.2c1.4-0.1,2.8-0.2,4.3-0.4c1.4-0.2,2.8-0.3,4.1-0.9l0,0L37.3,19.9L37.3,19.9
			C37.3,19.9,37.3,19.9,37.3,19.9L37.3,19.9L37.3,19.9z"/>
	</g>
</g>
</svg>
