<?xml version="1.0" encoding="utf-8"?>
<!-- Generator: Adobe Illustrator 15.0.2, SVG Export Plug-In . SVG Version: 6.00 Build 0)  -->
<!DOCTYPE svg PUBLIC "-//W3C//DTD SVG 1.1//EN" "http://www.w3.org/Graphics/SVG/1.1/DTD/svg11.dtd">
<svg version="1.1" id="Layer_1" xmlns="http://www.w3.org/2000/svg" xmlns:xlink="http://www.w3.org/1999/xlink" x="0px" y="0px"
	 width="55.6px" height="55.6px" viewBox="0 0 55.6 55.6" enable-background="new 0 0 55.6 55.6" xml:space="preserve">
<path fill="#ECC57C" d="M27.8,55.6c15.4,0,27.8-12.4,27.8-27.8C55.6,12.4,43.2,0,27.8,0"/>
<path fill="#ECC57C" d="M27.8,0C12.4,0,0,12.4,0,27.8c0,15.4,12.4,27.8,27.8,27.8"/>
<path fill="#ECC57C" d="M27.8,35.9c-4.5,0-8.1-3.6-8.1-8.1c0-4.5,3.6-8.1,8.1-8.1s8.1,3.6,8.1,8.1C35.9,32.3,32.3,35.9,27.8,35.9"/>
<g opacity="0.8">
	<g>
		<defs>
			<rect id="SVGID_1_" x="18.3" y="18.3" width="19" height="19"/>
		</defs>
		<clipPath id="SVGID_2_">
			<use xlink:href="#SVGID_1_"  overflow="visible"/>
		</clipPath>
		<path clip-path="url(#SVGID_2_)" fill="#ECC57C" d="M27.8,19.7c4.5,0,8.1,3.6,8.1,8.1c0,4.5-3.6,8.1-8.1,8.1s-8.1-3.6-8.1-8.1
			C19.7,23.3,23.3,19.7,27.8,19.7 M27.8,18.3c-5.2,0-9.5,4.3-9.5,9.5c0,5.2,4.3,9.5,9.5,9.5s9.5-4.3,9.5-9.5
			C37.3,22.6,33,18.3,27.8,18.3"/>
	</g>
</g>
<g opacity="0.4">
	<g>
		<defs>
			<rect id="SVGID_3_" x="16.9" y="16.9" width="21.7" height="21.7"/>
		</defs>
		<clipPath id="SVGID_4_">
			<use xlink:href="#SVGID_3_"  overflow="visible"/>
		</clipPath>
		<path clip-path="url(#SVGID_4_)" fill="#ECC57C" d="M27.8,19.7c4.5,0,8.1,3.6,8.1,8.1c0,4.5-3.6,8.1-8.1,8.1s-8.1-3.6-8.1-8.1
			C19.7,23.3,23.3,19.7,27.8,19.7 M27.8,16.9c-6,0-10.9,4.9-10.9,10.9c0,6,4.9,10.9,10.9,10.9c6,0,10.9-4.9,10.9-10.9
			C38.7,21.8,33.8,16.9,27.8,16.9"/>
	</g>
</g>
<path fill="#ECC57C" d="M27.8,55.6c15.4,0,27.8-12.4,27.8-27.8S43.2,0,27.8,0"/>
<path fill="#ECC57C" d="M27.8,0C12.4,0,0,12.4,0,27.8s12.4,27.8,27.8,27.8"/>
<path fill="#ECC57C" d="M27.8,53.7c-14.3,0-25.9-11.6-25.9-25.9c0-14.3,11.6-25.9,25.9-25.9s25.9,11.6,25.9,25.9
	C53.7,42.1,42.1,53.7,27.8,53.7"/>
<polyline fill="none" points="55.6,55.6 55.6,0 0,0 0,55.6 "/>
<path fill="#ECC57C" d="M27.8,53.7c14.3,0,25.9-11.6,25.9-25.9c0-14.3-11.6-25.9-25.9-25.9"/>
<path fill="#ECC57C" d="M27.8,1.9C13.5,1.9,1.9,13.5,1.9,27.8c0,14.3,11.6,25.9,25.9,25.9"/>
<path fill="#ECC57C" d="M27.8,49.2C16,49.2,6.4,39.6,6.4,27.8C6.4,16,16,6.4,27.8,6.4S49.2,16,49.2,27.8
	C49.2,39.6,39.6,49.2,27.8,49.2"/>
<polyline fill="none" points="53.7,53.7 53.7,1.9 1.9,1.9 1.9,53.7 "/>
<path fill="#FAEFF0" d="M27.7,6.5c-11.8,0-21.4,9.6-21.4,21.4c0,11.8,9.6,21.4,21.4,21.4s21.4-9.6,21.4-21.4
	C49.1,16.1,39.5,6.5,27.7,6.5 M37.9,27.4c-0.3,3.4,0.1,5.3-3.1,7c-2.6,1.5-6.6,3.6-9.6,4c-2.9,0.4-4.9-1-5.1-3.9
	c-0.1-1.7-1.5-2.8-2.3-4.2c-0.5-0.8-2.3-1.5-2.5-2.5c1.9-2.4,3.4-5,5-7.6c0.8-1.3,1.9-2.7,3.4-3.2c1.6-0.5,2.5,1,4.1,0.8
	c2.5-0.3,4.4,1.2,6.8,2C38.4,21,38.2,24.1,37.9,27.4C38,27.1,38,26.8,37.9,27.4"/>
<path fill="#FCF4F5" d="M37.9,27.4C37.9,27.4,37.9,27.4,37.9,27.4C37.9,27.8,37.9,28.1,37.9,27.4"/>
<path fill="#F7E4E7" d="M44.5,47.5c1.4-0.6,2.5-1.4,2.9-2.9C46.5,45.7,45.5,46.6,44.5,47.5"/>
<path fill="#F7E4E7" d="M48,11.8c0-0.1,0-0.2,0-0.4c-0.2-1.6-1.2-2.1-2.4-2.3C46.4,10,47.2,10.9,48,11.8"/>
<path fill="#F7E4E7" d="M1.2,22.2c-0.2,1.2,0.2,2.2,0.8,3.1c0.2-2.1,0.7-4.2,1.4-6.1C2.3,19.9,1.4,20.8,1.2,22.2"/>
<path fill="#F7E4E7" d="M8.8,45.5c0.4,1.3,1.1,2.4,2.3,2.6c0.3,0,0.5,0.1,0.8,0.2C10.8,47.5,9.7,46.6,8.8,45.5"/>
<path fill="#F7E4E7" d="M10.5,8.5c-0.4,0.1-0.8,0.2-1.1,0.3c-1.6,0.6-2,1.8-2.1,3.2C8.3,10.7,9.3,9.6,10.5,8.5"/>
<path fill="#F8EAEB" d="M24.4,53.5c2-0.5,3.9-2.1,6.2-2.1c1.7,0,3.4,0.7,5.1,0c1.7-0.7,3.1-2.2,5-2.7c1.4-0.4,2.7-0.7,3.9-1.2
	c1.1-0.9,2-1.9,2.9-2.9"/>
<path fill="#F8EAEB" d="M47.4,44.6c0.2-0.6,0.3-1.4,0.3-2.3c-0.2-4,3.4-6.1,3.9-9.8C52,29,53,24.5,51.5,21.3
	c-0.9-1.8-2.3-3.1-3.2-4.8c-0.8-1.4-0.2-3.1-0.3-4.6c-0.7-0.9-1.5-1.8-2.4-2.6c-1.5-0.2-3.3,0-4.4-1.1c-1.1-1-0.8-2.8-2.6-3.1
	c-1.8-0.3-3.5,1-5.2,1.2c-2,0.3-3.4-1.2-5.3-1.3c-2.4-0.2-4.9,1-7.1,1.8c-2.1,0.8-4.1,1.5-6.3,1.7c-1.3,0.1-2.7,0-4.1,0.2
	c-1.2,1-2.3,2.2-3.2,3.4c-0.1,1.6,0.1,3.5-0.6,4.9c-0.9,0.9-2.2,1.6-3.3,2.4c-0.7,1.9-1.2,4-1.4,6.1c1.1,1.8,2.8,3.3,3.3,5.1
	c0.9,3.4-1.9,5.9,1.3,9.1c1.3,1.3,1.6,4,2.2,6.1c0.9,1,2,2,3.1,2.8c3.2,0.7,6.4,2,8.8,4.2"/>
<path fill="#F8EAEB" d="M27.7,49.3c-11.8,0-21.4-9.6-21.4-21.4c0-11.8,9.6-21.4,21.4-21.4c11.8,0,21.4,9.6,21.4,21.4
	C49.1,39.7,39.5,49.3,27.7,49.3"/>
<path fill="#FCF4F5" d="M51.5,21.3C52.5,23.3,51,20.3,51.5,21.3"/>
<line fill="none" stroke="#D38792" stroke-width="0.909" stroke-linecap="round" stroke-miterlimit="10" x1="13.2" y1="13.6" x2="14.3" y2="16"/>
<line fill="none" stroke="#D38792" stroke-width="0.909" stroke-linecap="round" stroke-miterlimit="10" x1="29.1" y1="12.6" x2="27.3" y2="14.8"/>
<line fill="none" stroke="#D38792" stroke-width="0.909" stroke-linecap="round" stroke-miterlimit="10" x1="38" y1="14.2" x2="40" y2="16.8"/>
<line fill="none" stroke="#D38792" stroke-width="0.909" stroke-linecap="round" stroke-miterlimit="10" x1="46.9" y1="14.8" x2="46.2" y2="16.9"/>
<line fill="none" stroke="#D38792" stroke-width="0.909" stroke-linecap="round" stroke-miterlimit="10" x1="41.9" y1="31" x2="44.1" y2="31"/>
<line fill="none" stroke="#D38792" stroke-width="0.909" stroke-linecap="round" stroke-miterlimit="10" x1="44.1" y1="40.3" x2="42.6" y2="42.3"/>
<line fill="none" stroke="#D38792" stroke-width="0.909" stroke-linecap="round" stroke-miterlimit="10" x1="34.2" y1="42.8" x2="35.1" y2="44.7"/>
<line fill="none" stroke="#D38792" stroke-width="0.909" stroke-linecap="round" stroke-miterlimit="10" x1="26.1" y1="42.8" x2="23.1" y2="45.4"/>
<line fill="none" stroke="#D38792" stroke-width="0.909" stroke-linecap="round" stroke-miterlimit="10" x1="13.2" y1="45.1" x2="15.7" y2="44.1"/>
<line fill="none" stroke="#D38792" stroke-width="0.909" stroke-linecap="round" stroke-miterlimit="10" x1="12.5" y1="33.3" x2="14.3" y2="34.7"/>
<line fill="none" stroke="#D38792" stroke-width="0.909" stroke-linecap="round" stroke-miterlimit="10" x1="9.4" y1="25.3" x2="6.5" y2="25.1"/>
<line fill="none" stroke="#D38792" stroke-width="0.909" stroke-linecap="round" stroke-miterlimit="10" x1="17.1" y1="18.7" x2="18.8" y2="20.1"/>
<line fill="none" stroke="#1498C3" stroke-width="0.641" stroke-miterlimit="10" x1="19.2" y1="10.5" x2="20.8" y2="9.2"/>
<line fill="none" stroke="#1498C3" stroke-width="0.641" stroke-miterlimit="10" x1="33.2" y1="9.2" x2="34.2" y2="11.8"/>
<line fill="none" stroke="#1498C3" stroke-width="0.641" stroke-miterlimit="10" x1="33.7" y1="15.5" x2="32.3" y2="16"/>
<line fill="none" stroke="#1498C3" stroke-width="0.641" stroke-miterlimit="10" x1="43.3" y1="22.8" x2="46.2" y2="24.1"/>
<line fill="none" stroke="#1498C3" stroke-width="0.641" stroke-miterlimit="10" x1="49" y1="29.6" x2="48" y2="31"/>
<line fill="none" stroke="#1498C3" stroke-width="0.641" stroke-miterlimit="10" x1="38.7" y1="37" x2="40" y2="38.7"/>
<line fill="none" stroke="#1498C3" stroke-width="0.641" stroke-miterlimit="10" x1="39.6" y1="46.9" x2="39.3" y2="45.1"/>
<line fill="none" stroke="#1498C3" stroke-width="0.641" stroke-miterlimit="10" x1="28.7" y1="46.9" x2="30.7" y2="46"/>
<line fill="none" stroke="#1498C3" stroke-width="0.641" stroke-miterlimit="10" x1="26.1" y1="40.3" x2="27.8" y2="40.8"/>
<line fill="none" stroke="#1498C3" stroke-width="0.641" stroke-miterlimit="10" x1="20" y1="44.7" x2="20" y2="46.5"/>
<line fill="none" stroke="#1498C3" stroke-width="0.641" stroke-miterlimit="10" x1="11.9" y1="40.3" x2="13.2" y2="40.3"/>
<line fill="none" stroke="#1498C3" stroke-width="0.641" stroke-miterlimit="10" x1="18.8" y1="35.4" x2="17.1" y2="37.3"/>
<line fill="none" stroke="#1498C3" stroke-width="0.641" stroke-miterlimit="10" x1="7.2" y1="34" x2="8.3" y2="32.3"/>
<line fill="none" stroke="#1498C3" stroke-width="0.641" stroke-miterlimit="10" x1="11.9" y1="21.1" x2="13.4" y2="22.8"/>
<line fill="none" stroke="#1498C3" stroke-width="0.641" stroke-miterlimit="10" x1="6.5" y1="21.1" x2="4.6" y2="21.5"/>
<line fill="none" stroke="#1498C3" stroke-width="0.641" stroke-miterlimit="10" x1="20" y1="12" x2="21.2" y2="13.6"/>
<line fill="none" stroke="#1498C3" stroke-width="0.641" stroke-miterlimit="10" x1="26.1" y1="7.4" x2="24.4" y2="8.5"/>
</svg>
