<?xml version="1.0" encoding="utf-8"?>
<!-- Generator: Adobe Illustrator 15.0.2, SVG Export Plug-In . SVG Version: 6.00 Build 0)  -->
<!DOCTYPE svg PUBLIC "-//W3C//DTD SVG 1.1//EN" "http://www.w3.org/Graphics/SVG/1.1/DTD/svg11.dtd">
<svg version="1.1" id="Layer_1" xmlns="http://www.w3.org/2000/svg" xmlns:xlink="http://www.w3.org/1999/xlink" x="0px" y="0px"
	 width="54.6px" height="64.7px" viewBox="0 0 54.6 64.7" enable-background="new 0 0 54.6 64.7" xml:space="preserve">
<polygon fill="#597F5C" points="21.5,0.1 20.3,0.1 13.4,5.5 15.7,5.5 "/>
<polygon fill="#597F5C" points="41.3,5.5 34.3,0.1 33.1,0.1 38.9,5.5 "/>
<rect x="38.9" y="5.5" fill="#597F5C" width="2.4" height="5.3"/>
<rect x="13.4" y="5.5" fill="#597F5C" width="2.4" height="5.3"/>
<g>
	<g>
		<defs>
			<rect id="SVGID_1_" x="13.4" y="0" width="8.2" height="5.4"/>
		</defs>
		<clipPath id="SVGID_2_">
			<use xlink:href="#SVGID_1_"  overflow="visible"/>
		</clipPath>
		<polygon clip-path="url(#SVGID_2_)" fill="#6A8C6C" points="21.5,0 20.3,0 13.4,5.5 15.7,5.5 		"/>
	</g>
</g>
<g>
	<g>
		<defs>
			<rect id="SVGID_3_" x="33.1" y="0" width="8.2" height="5.4"/>
		</defs>
		<clipPath id="SVGID_4_">
			<use xlink:href="#SVGID_3_"  overflow="visible"/>
		</clipPath>
		<polygon clip-path="url(#SVGID_4_)" fill="#6A8C6C" points="41.3,5.5 34.3,0 33.1,0 38.9,5.5 		"/>
	</g>
</g>
<g>
	<g>
		<defs>
			<rect id="SVGID_5_" x="38.9" y="5.5" width="2.4" height="5.3"/>
		</defs>
		<clipPath id="SVGID_6_">
			<use xlink:href="#SVGID_5_"  overflow="visible"/>
		</clipPath>
		<rect x="38.9" y="5.5" clip-path="url(#SVGID_6_)" fill="#597F5C" width="2.4" height="5.3"/>
	</g>
</g>
<g>
	<g>
		<defs>
			<rect id="SVGID_7_" x="13.4" y="5.5" width="2.4" height="5.3"/>
		</defs>
		<clipPath id="SVGID_8_">
			<use xlink:href="#SVGID_7_"  overflow="visible"/>
		</clipPath>
		<rect x="13.4" y="5.5" clip-path="url(#SVGID_8_)" fill="#597F5C" width="2.4" height="5.3"/>
	</g>
</g>
<polygon fill="#8BA58D" points="19.3,5.5 23.3,0.1 25,0.1 25,0.1 21.5,0.1 15.7,5.5 "/>
<polygon fill="#6A8C6C" points="31.3,0.1 35.3,5.5 38.9,5.5 33.1,0.1 29.7,0.1 29.7,0.1 "/>
<polygon fill="#597F5C" points="35.3,5.5 35.3,5.5 35.3,10.8 38.9,10.8 38.9,5.5 "/>
<rect x="15.7" y="5.5" fill="#8BA58D" width="3.6" height="5.3"/>
<polygon fill="#6A8C6C" points="29.7,0.1 32,5.5 35.3,5.5 31.3,0.1 "/>
<polygon fill="#6A8C6C" points="25,0.1 23.3,0.1 19.3,5.5 22.6,5.5 "/>
<path fill="#597F5C" d="M32,5.5h3.3H32z"/>
<path fill="#597F5C" d="M19.3,5.5h3.3H19.3z"/>
<polygon fill="#597F5C" points="19.3,10.8 22.6,10.8 25.9,10.8 28.7,10.8 32,10.8 35.3,10.8 "/>
<rect x="19.3" y="5.5" fill="#597F5C" width="3.3" height="5.3"/>
<rect x="32" y="5.5" fill="#597F5C" width="3.3" height="5.3"/>
<rect x="28" y="0.1" fill="#597F5C" width="1.7" height="0"/>
<rect x="25" y="0.1" fill="#597F5C" width="1.7" height="0"/>
<polygon fill="#6A8C6C" points="32,5.5 29.7,0.1 28,0.1 28.7,5.5 "/>
<polygon fill="#6A8C6C" points="25.9,5.5 26.6,0.1 25,0.1 22.6,5.5 "/>
<path fill="#597F5C" d="M28.7,5.5H32H28.7z"/>
<path fill="#597F5C" d="M22.6,5.5h3.3H22.6z"/>
<rect x="28.7" y="5.5" fill="#597F5C" width="3.3" height="5.3"/>
<rect x="22.6" y="5.5" fill="#597F5C" width="3.3" height="5.3"/>
<rect x="26.6" y="0.1" fill="#597F5C" width="1.4" height="0"/>
<polygon fill="#6A8C6C" points="28.7,5.5 28,0.1 26.6,0.1 25.9,5.5 "/>
<path fill="#597F5C" d="M25.9,5.5h2.8H25.9z"/>
<rect x="25.9" y="5.5" fill="#597F5C" width="2.8" height="5.3"/>
<g opacity="0.5">
	<g>
		<defs>
			<rect id="SVGID_9_" x="13.3" width="28.1" height="10.9"/>
		</defs>
		<clipPath id="SVGID_10_">
			<use xlink:href="#SVGID_9_"  overflow="visible"/>
		</clipPath>
		<path clip-path="url(#SVGID_10_)" fill="#CDD8CE" d="M13.4,5.5C15.7,3.7,18,1.9,20.3,0l0,0h0l7,0l7,0h0l0,0
			c2.3,1.8,4.6,3.6,6.9,5.5c-2.4-1.8-4.7-3.5-7-5.3l0,0l-7,0l-7,0l0,0C18.1,2,15.7,3.7,13.4,5.5"/>
		<path clip-path="url(#SVGID_10_)" fill="#CDD8CE" d="M41.3,10.8l-27.9,0.1h-0.1v-0.1l0-5.3V5.4h0.1l27.9,0.1h0l0,0L41.3,10.8z
			 M41.3,10.8l0-5.3l0,0L13.4,5.6l0.1-0.1l0,5.3l-0.1-0.1L41.3,10.8z"/>
		<path clip-path="url(#SVGID_10_)" fill="#CDD8CE" d="M15.7,5.5c1.9-1.8,3.8-3.7,5.7-5.5l0,0l0,0c3.9,0,7.7,0,11.6,0h0l0,0
			c1.9,1.8,3.8,3.6,5.7,5.5C36.9,3.7,35,2,33,0.2l0.1,0c-3.9,0-7.7,0-11.6,0l0.1,0C19.6,2,17.7,3.7,15.7,5.5"/>
		<path clip-path="url(#SVGID_10_)" fill="#CDD8CE" d="M38.9,10.8c-7.7,0.1-15.4,0.1-23.1,0.1h-0.1v-0.1l0-5.3V5.4h0.1l23.1,0.1l0,0
			l0,0L38.9,10.8z M38.9,10.8l0-5.3l0,0L15.7,5.6l0.1-0.1l0,5.3l-0.1-0.1C23.5,10.7,31.2,10.7,38.9,10.8"/>
		<path clip-path="url(#SVGID_10_)" fill="#CDD8CE" d="M19.3,5.5c1.3-1.8,2.6-3.6,3.9-5.5l0,0h0c2.7,0,5.3,0,8,0l0,0l0,0
			c1.3,1.8,2.6,3.6,3.9,5.5c-1.4-1.8-2.7-3.6-4.1-5.4l0.1,0c-2.7,0-5.3,0-8,0l0.1,0C22,2,20.7,3.7,19.3,5.5"/>
		<path clip-path="url(#SVGID_10_)" fill="#CDD8CE" d="M35.3,10.8c-5.3,0.1-10.7,0.1-16,0.1l-0.1,0l0-0.1l0-5.3V5.4h0.1l16,0.1
			l0.1,0v0.1L35.3,10.8z M35.3,10.8l-0.1-5.3l0.1,0.1l-16,0.1l0.1-0.1l0,5.3l-0.1-0.1C24.6,10.8,30,10.8,35.3,10.8"/>
		<path clip-path="url(#SVGID_10_)" fill="#CDD8CE" d="M22.6,5.5c0.7-1.8,1.5-3.6,2.3-5.4l0-0.1L25,0c1.6,0,3.1,0,4.7,0l0.1,0l0,0.1
			c0.8,1.8,1.6,3.6,2.3,5.4c-0.8-1.8-1.6-3.6-2.4-5.4l0.1,0.1c-1.6,0-3.1,0-4.7,0L25,0.1C24.2,1.9,23.4,3.7,22.6,5.5"/>
		<path clip-path="url(#SVGID_10_)" fill="#CDD8CE" d="M32,10.8c-3.1,0.1-6.3,0.1-9.4,0.1h-0.1v-0.1l0-5.3l0-0.1h0.1l9.4,0l0.1,0
			v0.1L32,10.8z M32,10.8L32,5.5L32,5.6l-9.4,0l0.1-0.1l0,5.3l-0.1-0.1C25.7,10.8,28.9,10.8,32,10.8"/>
		<path clip-path="url(#SVGID_10_)" fill="#CDD8CE" d="M25.9,5.5c0.2-1.8,0.4-3.6,0.6-5.4l0-0.1h0.1H28h0.1l0,0.1
			c0.2,1.8,0.4,3.6,0.6,5.4c-0.3-1.8-0.6-3.6-0.8-5.4L28,0.2l-1.4,0l0.1-0.1C26.5,1.9,26.2,3.7,25.9,5.5"/>
		<path clip-path="url(#SVGID_10_)" fill="#CDD8CE" d="M28.7,10.8c-0.9,0-1.9,0.1-2.8,0.1h-0.1l0-0.1l0-5.3l0-0.1l0.1,0l2.8,0l0.1,0
			v0.1C28.8,7.3,28.8,9,28.7,10.8 M28.7,10.8c-0.1-1.8-0.1-3.5-0.1-5.3l0.1,0.1l-2.8,0L26,5.5l0,5.3l-0.1-0.1
			C26.8,10.8,27.8,10.8,28.7,10.8"/>
	</g>
</g>
<g opacity="0.5">
	<g>
		<defs>
			<rect id="SVGID_11_" x="13.3" y="0.1" width="28" height="5.4"/>
		</defs>
		<clipPath id="SVGID_12_">
			<use xlink:href="#SVGID_11_"  overflow="visible"/>
		</clipPath>
		<polygon clip-path="url(#SVGID_12_)" fill="#6A8C6C" points="27.3,0.1 13.3,5.5 27.3,5.5 41.3,5.5 		"/>
	</g>
</g>
<g opacity="0.5">
	<g>
		<defs>
			<rect id="SVGID_13_" x="13.3" y="5.5" width="28" height="5.3"/>
		</defs>
		<clipPath id="SVGID_14_">
			<use xlink:href="#SVGID_13_"  overflow="visible"/>
		</clipPath>
		<polygon clip-path="url(#SVGID_14_)" fill="#6A8C6C" points="27.3,10.8 41.3,5.5 27.3,5.5 13.3,5.5 		"/>
	</g>
</g>
<path fill="#BCA66D" d="M6.1,20.2c0,0,5.4-6.2,5.4-10.2h15.8v3.9l-15.1,2.8l-4.6,4.8L6.1,20.2z"/>
<path fill="#BCA66D" d="M48.5,20.2c0,0-5.4-6.2-5.4-10.2H27.3v3.9l15.1,2.8l4.6,4.8L48.5,20.2z"/>
<circle fill="none" stroke="#BCA66D" stroke-width="5.389" stroke-miterlimit="10" cx="27.3" cy="37.4" r="24.6"/>
<path fill="#C9B88A" d="M27.3,15.4c12.1,0,21.9,9.8,21.9,21.9c0,12.1-9.8,21.9-21.9,21.9c-12.1,0-21.9-9.8-21.9-21.9
	C5.4,25.3,15.2,15.4,27.3,15.4 M27.3,13.3C14,13.3,3.3,24.1,3.3,37.4c0,13.3,10.8,24.1,24.1,24.1s24.1-10.8,24.1-24.1
	C51.4,24.1,40.6,13.3,27.3,13.3"/>
<rect x="11" y="9.6" fill="#BCA66D" width="32.6" height="0.8"/>
<g>
	<g>
		<defs>
			<rect id="SVGID_15_" x="11.5" y="10.4" width="31.6" height="0.4"/>
		</defs>
		<clipPath id="SVGID_16_">
			<use xlink:href="#SVGID_15_"  overflow="visible"/>
		</clipPath>
		<rect x="11.5" y="10.4" clip-path="url(#SVGID_16_)" fill="#BCA66D" width="31.6" height="0.4"/>
	</g>
</g>
</svg>
