<?xml version="1.0" encoding="utf-8"?>
<!-- Generator: Adobe Illustrator 15.0.2, SVG Export Plug-In . SVG Version: 6.00 Build 0)  -->
<!DOCTYPE svg PUBLIC "-//W3C//DTD SVG 1.1//EN" "http://www.w3.org/Graphics/SVG/1.1/DTD/svg11.dtd">
<svg version="1.1" id="Layer_1" xmlns="http://www.w3.org/2000/svg" xmlns:xlink="http://www.w3.org/1999/xlink" x="0px" y="0px"
	 width="54.6px" height="34.7px" viewBox="0 0 54.6 34.7" enable-background="new 0 0 54.6 34.7" xml:space="preserve">
<path fill="#E8E5D1" d="M53.8,0.6L27.3,20.2L0.9,0.6C0.3,1.1,0,1.8,0,2.5v29.7c0,1.4,1.1,2.5,2.5,2.5h49.6c1.4,0,2.5-1.1,2.5-2.5
	V2.5C54.6,1.8,54.3,1.1,53.8,0.6"/>
<path fill="none" d="M53.5,0.8c-0.1,0-0.1-0.1-0.1-0.1c-0.1-0.1-0.1-0.1-0.2-0.1c-0.1,0-0.1-0.1-0.2-0.1c-0.1-0.1-0.3-0.1-0.4-0.1
	l0,0h0l-0.1,0c-0.1,0-0.2,0-0.3,0H2.5c-0.1,0-0.2,0-0.2,0l-0.1,0l0,0C2,0.4,1.8,0.5,1.7,0.5c-0.1,0-0.1,0.1-0.2,0.1
	c-0.1,0-0.2,0.1-0.2,0.2c0,0-0.1,0-0.1,0.1h0l0,0l0,0l0,0c-0.4,0.4-0.7,1-0.7,1.6v29.7c0,0.6,0.3,1.2,0.7,1.6l0,0l0.1,0.1l0.3,0.3
	l0,0l0.2,0.1l-0.1,0.3l0.2-0.3l0.1,0c0.1,0,0.2,0.1,0.3,0.1c0.1,0,0.3,0,0.4,0h49.6c0.1,0,0.3,0,0.4,0c0.1,0,0.2,0,0.2-0.1l0.1,0
	l0,0l0.1,0l0.2-0.1l0,0l0.3-0.2l0.1-0.1c0.5-0.4,0.7-1,0.7-1.6V2.5C54.3,1.9,54,1.3,53.5,0.8L53.5,0.8z M52,32H2.7V2.6H52V32z"/>
<g>
	<g>
		<defs>
			<rect id="SVGID_1_" x="0.9" y="13.7" width="52.9" height="20.2"/>
		</defs>
		<clipPath id="SVGID_2_">
			<use xlink:href="#SVGID_1_"  overflow="visible"/>
		</clipPath>
		<path clip-path="url(#SVGID_2_)" fill="#E8E5D1" d="M0.9,33.3c0.4,0.4,1,0.6,1.6,0.6h49.6c0.6,0,1.2-0.2,1.6-0.6L27.3,13.7
			L0.9,33.3z"/>
	</g>
</g>
<path fill="#E8E5D1" d="M0.9,34.1c0.4,0.4,1,0.6,1.6,0.6h49.6c0.6,0,1.2-0.2,1.6-0.6L27.3,14.5L0.9,34.1z"/>
<g opacity="0.7">
	<g>
		<defs>
			<rect id="SVGID_3_" x="0.9" y="14.6" width="52.9" height="20"/>
		</defs>
		<clipPath id="SVGID_4_">
			<use xlink:href="#SVGID_3_"  overflow="visible"/>
		</clipPath>
		<path clip-path="url(#SVGID_4_)" fill="#E8E5D1" d="M27.3,15.4l25.9,19.2c0.2-0.1,0.4-0.2,0.6-0.4L27.3,14.6L0.9,34.2
			c0.2,0.2,0.4,0.3,0.6,0.4L27.3,15.4z"/>
	</g>
</g>
<path fill="#231F20" d="M53.8,0.6c-0.4-0.4-1-0.6-1.6-0.6H2.5C1.9,0,1.3,0.2,0.9,0.6l26.5,19.6L53.8,0.6z"/>
<path fill="#E8E5D1" d="M53.8,0.6c-0.4-0.4-1-0.6-1.6-0.6H2.5C1.9,0,1.3,0.2,0.9,0.6l26.5,19.6L53.8,0.6z"/>
<g>
	<g>
		<defs>
			<rect id="SVGID_5_" x="19.7" y="11.9" width="15.2" height="15.2"/>
		</defs>
		<clipPath id="SVGID_6_">
			<use xlink:href="#SVGID_5_"  overflow="visible"/>
		</clipPath>
		
			<circle clip-path="url(#SVGID_6_)" fill="none" stroke="#872237" stroke-width="1.638" stroke-miterlimit="10" cx="27.3" cy="19.5" r="6.8"/>
		<path clip-path="url(#SVGID_6_)" fill="#872237" d="M23.3,21.5c0.8,1.6,2.6,2.7,4.5,2.4c1.9-0.2,3.4-1.7,3.8-3.5L23.3,21.5z"/>
		<path clip-path="url(#SVGID_6_)" fill="#872237" d="M31.3,17.5c-0.8-1.6-2.6-2.7-4.5-2.4s-3.4,1.7-3.8,3.5L31.3,17.5z"/>
		
			<rect x="23.1" y="19" transform="matrix(0.9922 -0.1249 0.1249 0.9922 -2.307 3.0966)" clip-path="url(#SVGID_6_)" fill="#872237" width="0.9" height="1.9"/>
		
			<rect x="24.4" y="19.4" transform="matrix(0.9921 -0.1254 0.1254 0.9921 -2.3229 3.2594)" clip-path="url(#SVGID_6_)" fill="#872237" width="0.6" height="1.3"/>
		
			<rect x="25.9" y="18.6" transform="matrix(0.9923 -0.1239 0.1239 0.9923 -2.2075 3.5175)" clip-path="url(#SVGID_6_)" fill="#872237" width="2.6" height="1.9"/>
		
			<rect x="28.7" y="18.6" transform="matrix(0.9925 -0.1223 0.1223 0.9925 -2.1575 3.6882)" clip-path="url(#SVGID_6_)" fill="#872237" width="0.5" height="1.6"/>
		
			<rect x="29.8" y="18.1" transform="matrix(0.9923 -0.1239 0.1239 0.9923 -2.1257 3.945)" clip-path="url(#SVGID_6_)" fill="#872237" width="1.6" height="1.9"/>
	</g>
</g>
<g>
	<g>
		<defs>
			<rect id="SVGID_7_" x="19.7" y="11.9" width="15.2" height="15.2"/>
		</defs>
		<clipPath id="SVGID_8_">
			<use xlink:href="#SVGID_7_"  overflow="visible"/>
		</clipPath>
		
			<circle clip-path="url(#SVGID_8_)" fill="none" stroke="#872237" stroke-width="1.638" stroke-miterlimit="10" cx="27.3" cy="19.5" r="6.8"/>
		<path clip-path="url(#SVGID_8_)" fill="#872237" d="M23.3,21.5c0.8,1.6,2.6,2.7,4.5,2.4c1.9-0.2,3.4-1.7,3.8-3.5L23.3,21.5z"/>
		<path clip-path="url(#SVGID_8_)" fill="#872237" d="M31.3,17.5c-0.8-1.6-2.6-2.7-4.5-2.4s-3.4,1.7-3.8,3.5L31.3,17.5z"/>
		
			<rect x="23.1" y="19" transform="matrix(0.9922 -0.1249 0.1249 0.9922 -2.307 3.0966)" clip-path="url(#SVGID_8_)" fill="#872237" width="0.9" height="1.9"/>
		
			<rect x="24.4" y="19.4" transform="matrix(0.9921 -0.1254 0.1254 0.9921 -2.3229 3.2594)" clip-path="url(#SVGID_8_)" fill="#872237" width="0.6" height="1.3"/>
		
			<rect x="25.9" y="18.6" transform="matrix(0.9923 -0.1239 0.1239 0.9923 -2.2075 3.5175)" clip-path="url(#SVGID_8_)" fill="#872237" width="2.6" height="1.9"/>
		
			<rect x="28.7" y="18.6" transform="matrix(0.9925 -0.1223 0.1223 0.9925 -2.1575 3.6882)" clip-path="url(#SVGID_8_)" fill="#872237" width="0.5" height="1.6"/>
		
			<rect x="29.8" y="18.1" transform="matrix(0.9923 -0.1239 0.1239 0.9923 -2.1257 3.945)" clip-path="url(#SVGID_8_)" fill="#872237" width="1.6" height="1.9"/>
	</g>
</g>
<g>
	<g>
		<defs>
			<rect id="SVGID_9_" x="0.9" y="0.6" width="52.9" height="23.2"/>
		</defs>
		<clipPath id="SVGID_10_">
			<use xlink:href="#SVGID_9_"  overflow="visible"/>
		</clipPath>
		<polygon clip-path="url(#SVGID_10_)" fill="#E8E5D1" points="27.3,20.2 0.9,0.6 27.3,23.8 53.8,0.6 		"/>
	</g>
</g>
<g opacity="0.7">
	<g>
		<defs>
			<rect id="SVGID_11_" x="0.9" y="0" width="52.9" height="20.2"/>
		</defs>
		<clipPath id="SVGID_12_">
			<use xlink:href="#SVGID_11_"  overflow="visible"/>
		</clipPath>
		<path clip-path="url(#SVGID_12_)" fill="#E8E5D1" d="M27.3,17.7L2.2,0C1.7,0.1,1.2,0.3,0.9,0.6l26.5,19.6L53.8,0.6
			C53.4,0.3,53,0.1,52.5,0L27.3,17.7z"/>
	</g>
</g>
</svg>
