<?xml version="1.0" encoding="utf-8"?>
<!-- Generator: Adobe Illustrator 15.0.2, SVG Export Plug-In . SVG Version: 6.00 Build 0)  -->
<!DOCTYPE svg PUBLIC "-//W3C//DTD SVG 1.1//EN" "http://www.w3.org/Graphics/SVG/1.1/DTD/svg11.dtd">
<svg version="1.1" id="Layer_1" xmlns="http://www.w3.org/2000/svg" xmlns:xlink="http://www.w3.org/1999/xlink" x="0px" y="0px"
	 width="39px" height="54.5px" viewBox="0 0 39 54.5" enable-background="new 0 0 39 54.5" xml:space="preserve">
<rect x="0.9" y="1.2" fill="#00587E" width="37.2" height="52.1"/>
<g>
	<g>
		<defs>
			<rect id="SVGID_1_" x="0.9" y="1.2" width="37.2" height="52.1"/>
		</defs>
		<clipPath id="SVGID_2_">
			<use xlink:href="#SVGID_1_"  overflow="visible"/>
		</clipPath>
		<rect x="0.9" y="1.2" clip-path="url(#SVGID_2_)" fill="#597F5C" width="37.2" height="52.1"/>
	</g>
</g>
<g>
	<g>
		<defs>
			<rect id="SVGID_3_" x="0.9" y="1.2" width="37.2" height="52.1"/>
		</defs>
		<clipPath id="SVGID_4_">
			<use xlink:href="#SVGID_3_"  overflow="visible"/>
		</clipPath>
		<g clip-path="url(#SVGID_4_)">
			<g>
				<defs>
					<rect id="SVGID_5_" x="0.9" y="1.2" width="18.6" height="52.1"/>
				</defs>
				<clipPath id="SVGID_6_">
					<use xlink:href="#SVGID_5_"  overflow="visible"/>
				</clipPath>
				<g clip-path="url(#SVGID_6_)">
					<g>
						<defs>
							<rect id="SVGID_7_" x="0.9" y="1.2" width="4" height="52.1"/>
						</defs>
						<clipPath id="SVGID_8_">
							<use xlink:href="#SVGID_7_"  overflow="visible"/>
						</clipPath>
						<rect x="0.9" y="1.2" clip-path="url(#SVGID_8_)" fill="#4F4C4D" width="4" height="52.1"/>
					</g>
				</g>
				<g clip-path="url(#SVGID_6_)">
					<g>
						<defs>
							<rect id="SVGID_9_" x="1.9" y="1.2" width="6.7" height="52.1"/>
						</defs>
						<clipPath id="SVGID_10_">
							<use xlink:href="#SVGID_9_"  overflow="visible"/>
						</clipPath>
						<rect x="1.9" y="1.2" clip-path="url(#SVGID_10_)" fill="#605D5D" width="6.7" height="52.1"/>
					</g>
				</g>
				<g clip-path="url(#SVGID_6_)">
					<g>
						<defs>
							<rect id="SVGID_11_" x="2.9" y="1.2" width="9.3" height="52.1"/>
						</defs>
						<clipPath id="SVGID_12_">
							<use xlink:href="#SVGID_11_"  overflow="visible"/>
						</clipPath>
						<rect x="2.9" y="1.2" clip-path="url(#SVGID_12_)" fill="#706D6E" width="9.3" height="52.1"/>
					</g>
				</g>
				<g clip-path="url(#SVGID_6_)">
					<g>
						<defs>
							<rect id="SVGID_13_" x="3.9" y="1.2" width="11.9" height="52.1"/>
						</defs>
						<clipPath id="SVGID_14_">
							<use xlink:href="#SVGID_13_"  overflow="visible"/>
						</clipPath>
						<rect x="3.9" y="1.2" clip-path="url(#SVGID_14_)" fill="#817E7F" width="11.9" height="52.1"/>
					</g>
				</g>
				<g clip-path="url(#SVGID_6_)">
					<g>
						<defs>
							<rect id="SVGID_15_" x="4.9" y="1.2" width="14.5" height="52.1"/>
						</defs>
						<clipPath id="SVGID_16_">
							<use xlink:href="#SVGID_15_"  overflow="visible"/>
						</clipPath>
						<rect x="4.9" y="1.2" clip-path="url(#SVGID_16_)" fill="#918F90" width="14.5" height="52.1"/>
					</g>
				</g>
			</g>
		</g>
		<g clip-path="url(#SVGID_4_)">
			<g>
				<defs>
					<rect id="SVGID_17_" x="19.5" y="1.2" width="18.6" height="52.1"/>
				</defs>
				<clipPath id="SVGID_18_">
					<use xlink:href="#SVGID_17_"  overflow="visible"/>
				</clipPath>
				<g clip-path="url(#SVGID_18_)">
					<g>
						<defs>
							<rect id="SVGID_19_" x="34" y="1.2" width="4" height="52.1"/>
						</defs>
						<clipPath id="SVGID_20_">
							<use xlink:href="#SVGID_19_"  overflow="visible"/>
						</clipPath>
						<rect x="34" y="1.2" clip-path="url(#SVGID_20_)" fill="#E9E9E9" width="4" height="52.1"/>
					</g>
				</g>
				<g clip-path="url(#SVGID_18_)">
					<g>
						<defs>
							<rect id="SVGID_21_" x="30.4" y="1.2" width="6.7" height="52.1"/>
						</defs>
						<clipPath id="SVGID_22_">
							<use xlink:href="#SVGID_21_"  overflow="visible"/>
						</clipPath>
						<rect x="30.4" y="1.2" clip-path="url(#SVGID_22_)" fill="#D3D2D2" width="6.7" height="52.1"/>
					</g>
				</g>
				<g clip-path="url(#SVGID_18_)">
					<g>
						<defs>
							<rect id="SVGID_23_" x="26.8" y="1.2" width="9.3" height="52.1"/>
						</defs>
						<clipPath id="SVGID_24_">
							<use xlink:href="#SVGID_23_"  overflow="visible"/>
						</clipPath>
						<rect x="26.7" y="1.2" clip-path="url(#SVGID_24_)" fill="#BDBCBC" width="9.3" height="52.1"/>
					</g>
				</g>
				<g clip-path="url(#SVGID_18_)">
					<g>
						<defs>
							<rect id="SVGID_25_" x="23.1" y="1.2" width="11.9" height="52.1"/>
						</defs>
						<clipPath id="SVGID_26_">
							<use xlink:href="#SVGID_25_"  overflow="visible"/>
						</clipPath>
						<rect x="23.1" y="1.2" clip-path="url(#SVGID_26_)" fill="#A7A5A6" width="11.9" height="52.1"/>
					</g>
				</g>
				<g clip-path="url(#SVGID_18_)">
					<g>
						<defs>
							<rect id="SVGID_27_" x="19.5" y="1.2" width="14.5" height="52.1"/>
						</defs>
						<clipPath id="SVGID_28_">
							<use xlink:href="#SVGID_27_"  overflow="visible"/>
						</clipPath>
						<rect x="19.5" y="1.2" clip-path="url(#SVGID_28_)" fill="#918F90" width="14.5" height="52.1"/>
					</g>
				</g>
			</g>
		</g>
	</g>
</g>
<path fill="#B0AEAF" d="M38.9,0.8c0,0.2-0.2,0.3-0.4,0.3H0.4C0.2,1.2,0,1,0,0.8V0.3C0,0.2,0.2,0,0.4,0h38.2c0.2,0,0.4,0.2,0.4,0.3
	V0.8z"/>
<g>
	<g>
		<defs>
			<rect id="SVGID_29_" width="39" height="1.2"/>
		</defs>
		<clipPath id="SVGID_30_">
			<use xlink:href="#SVGID_29_"  overflow="visible"/>
		</clipPath>
		<path clip-path="url(#SVGID_30_)" fill="#B0AEAF" d="M38.9,0.8c0,0.2-0.2,0.3-0.4,0.3H0.4C0.2,1.2,0,1,0,0.8V0.3
			C0,0.2,0.2,0,0.4,0h38.2c0.2,0,0.4,0.2,0.4,0.3V0.8z"/>
		<path clip-path="url(#SVGID_30_)" fill="#B5B4B4" d="M38.6,0.8c0,0.2-0.2,0.3-0.4,0.3H0.8C0.5,1.2,0.4,1,0.4,0.8V0.3
			C0.4,0.2,0.5,0,0.8,0h37.4c0.2,0,0.4,0.2,0.4,0.3V0.8z"/>
		<path clip-path="url(#SVGID_30_)" fill="#BBBABA" d="M38.2,0.8c0,0.2-0.2,0.3-0.4,0.3H1.1C0.9,1.2,0.7,1,0.7,0.8V0.3
			C0.7,0.2,0.9,0,1.1,0h36.7c0.2,0,0.4,0.2,0.4,0.3V0.8z"/>
		<path clip-path="url(#SVGID_30_)" fill="#C0BFC0" d="M37.8,0.8c0,0.2-0.2,0.3-0.4,0.3h-36C1.3,1.2,1.1,1,1.1,0.8V0.3
			C1.1,0.2,1.3,0,1.5,0h36c0.2,0,0.4,0.2,0.4,0.3V0.8z"/>
		<path clip-path="url(#SVGID_30_)" fill="#C6C5C5" d="M37.5,0.8c0,0.2-0.2,0.3-0.4,0.3H1.8C1.6,1.2,1.5,1,1.5,0.8V0.3
			C1.5,0.2,1.6,0,1.8,0h35.3c0.2,0,0.4,0.2,0.4,0.3V0.8z"/>
		<path clip-path="url(#SVGID_30_)" fill="#C9C8C8" d="M35.4,0.8c0,0.2-0.1,0.3-0.3,0.3H3.8C3.7,1.2,3.5,1,3.5,0.8V0.3
			C3.5,0.2,3.7,0,3.8,0h31.3c0.2,0,0.3,0.2,0.3,0.3V0.8z"/>
		<path clip-path="url(#SVGID_30_)" fill="#CDCBCC" d="M33.4,0.8c0,0.2-0.1,0.3-0.3,0.3H5.8C5.7,1.2,5.5,1,5.5,0.8V0.3
			C5.5,0.2,5.7,0,5.8,0h27.3c0.2,0,0.3,0.2,0.3,0.3V0.8z"/>
		<path clip-path="url(#SVGID_30_)" fill="#D0CFCF" d="M31.4,0.8c0,0.2-0.1,0.3-0.2,0.3H7.8C7.7,1.2,7.6,1,7.6,0.8V0.3
			C7.6,0.2,7.7,0,7.8,0h23.3c0.1,0,0.2,0.2,0.2,0.3V0.8z"/>
		<path clip-path="url(#SVGID_30_)" fill="#D3D2D2" d="M29.3,0.8c0,0.2-0.1,0.3-0.2,0.3H9.8C9.7,1.2,9.6,1,9.6,0.8V0.3
			C9.6,0.2,9.7,0,9.8,0h19.3c0.1,0,0.2,0.2,0.2,0.3V0.8z"/>
	</g>
</g>
<g>
	<g>
		<defs>
			<rect id="SVGID_31_" x="0.1" y="0.9" width="38.8" height="0.2"/>
		</defs>
		<clipPath id="SVGID_32_">
			<use xlink:href="#SVGID_31_"  overflow="visible"/>
		</clipPath>
		<path clip-path="url(#SVGID_32_)" fill="#7B7979" d="M0.4,0.9c-0.1,0-0.2,0-0.3,0.1c0.1,0.1,0.2,0.1,0.3,0.1h38.2
			c0.1,0,0.2,0,0.3-0.1c-0.1-0.1-0.2-0.1-0.3-0.1H0.4z"/>
	</g>
</g>
<path fill="#B0AEAF" d="M38.9,54.2c0,0.2-0.2,0.3-0.4,0.3H0.4c-0.2,0-0.4-0.2-0.4-0.3v-0.5c0-0.2,0.2-0.3,0.4-0.3h38.2
	c0.2,0,0.4,0.2,0.4,0.3V54.2z"/>
<g>
	<g>
		<defs>
			<rect id="SVGID_33_" y="53.3" width="39" height="1.2"/>
		</defs>
		<clipPath id="SVGID_34_">
			<use xlink:href="#SVGID_33_"  overflow="visible"/>
		</clipPath>
		<path clip-path="url(#SVGID_34_)" fill="#B0AEAF" d="M38.9,54.2c0,0.2-0.2,0.3-0.4,0.3H0.4c-0.2,0-0.4-0.2-0.4-0.3v-0.5
			c0-0.2,0.2-0.3,0.4-0.3h38.2c0.2,0,0.4,0.2,0.4,0.3V54.2z"/>
		<path clip-path="url(#SVGID_34_)" fill="#B5B4B4" d="M38.6,54.2c0,0.2-0.2,0.3-0.4,0.3H0.8c-0.2,0-0.4-0.2-0.4-0.3v-0.5
			c0-0.2,0.2-0.3,0.4-0.3h37.4c0.2,0,0.4,0.2,0.4,0.3V54.2z"/>
		<path clip-path="url(#SVGID_34_)" fill="#BBBABA" d="M38.2,54.2c0,0.2-0.2,0.3-0.4,0.3H1.1c-0.2,0-0.4-0.2-0.4-0.3v-0.5
			c0-0.2,0.2-0.3,0.4-0.3h36.7c0.2,0,0.4,0.2,0.4,0.3V54.2z"/>
		<path clip-path="url(#SVGID_34_)" fill="#C0BFC0" d="M37.8,54.2c0,0.2-0.2,0.3-0.4,0.3h-36c-0.2,0-0.4-0.2-0.4-0.3v-0.5
			c0-0.2,0.2-0.3,0.4-0.3h36c0.2,0,0.4,0.2,0.4,0.3V54.2z"/>
		<path clip-path="url(#SVGID_34_)" fill="#C6C5C5" d="M37.5,54.2c0,0.2-0.2,0.3-0.4,0.3H1.8c-0.2,0-0.4-0.2-0.4-0.3v-0.5
			c0-0.2,0.2-0.3,0.4-0.3h35.3c0.2,0,0.4,0.2,0.4,0.3V54.2z"/>
		<path clip-path="url(#SVGID_34_)" fill="#C9C8C8" d="M35.4,54.2c0,0.2-0.1,0.3-0.3,0.3H3.8c-0.2,0-0.3-0.2-0.3-0.3v-0.5
			c0-0.2,0.1-0.3,0.3-0.3h31.3c0.2,0,0.3,0.2,0.3,0.3V54.2z"/>
		<path clip-path="url(#SVGID_34_)" fill="#CDCBCC" d="M33.4,54.2c0,0.2-0.1,0.3-0.3,0.3H5.8c-0.2,0-0.3-0.2-0.3-0.3v-0.5
			c0-0.2,0.1-0.3,0.3-0.3h27.3c0.2,0,0.3,0.2,0.3,0.3V54.2z"/>
		<path clip-path="url(#SVGID_34_)" fill="#D0CFCF" d="M31.4,54.2c0,0.2-0.1,0.3-0.2,0.3H7.8c-0.1,0-0.2-0.2-0.2-0.3v-0.5
			c0-0.2,0.1-0.3,0.2-0.3h23.3c0.1,0,0.2,0.2,0.2,0.3V54.2z"/>
		<path clip-path="url(#SVGID_34_)" fill="#D3D2D2" d="M29.3,54.2c0,0.2-0.1,0.3-0.2,0.3H9.8c-0.1,0-0.2-0.2-0.2-0.3v-0.5
			c0-0.2,0.1-0.3,0.2-0.3h19.3c0.1,0,0.2,0.2,0.2,0.3V54.2z"/>
	</g>
</g>
<g>
	<g>
		<defs>
			<rect id="SVGID_35_" x="0.1" y="54.3" width="38.8" height="0.2"/>
		</defs>
		<clipPath id="SVGID_36_">
			<use xlink:href="#SVGID_35_"  overflow="visible"/>
		</clipPath>
		<path clip-path="url(#SVGID_36_)" fill="#7B7979" d="M0.4,54.3c-0.1,0-0.2,0.1-0.3,0.1c0.1,0.1,0.2,0.1,0.3,0.1h38.2
			c0.1,0,0.2,0,0.3-0.1c-0.1-0.1-0.2-0.1-0.3-0.1H0.4z"/>
	</g>
</g>
<path fill="#2E2A2B" d="M31.3,14.7c0-0.2,1.4-7.1,1.4-7.1s-4.6-2.1-13.2-2.1S6.3,7.6,6.3,7.6s1.4,6.9,1.4,7.1c0,0.2-4.5,1.2-4.5,1.2
	s4.2,25.6,4.8,26c0.7,0.5,11.5,0.5,11.5,0.5s10.8,0,11.5-0.5s4.8-26,4.8-26S31.4,14.8,31.3,14.7"/>
<g>
	<g>
		<defs>
			<rect id="SVGID_37_" x="14.8" y="46.2" width="9.4" height="5"/>
		</defs>
		<clipPath id="SVGID_38_">
			<use xlink:href="#SVGID_37_"  overflow="visible"/>
		</clipPath>
		<rect x="16.9" y="46.2" clip-path="url(#SVGID_38_)" fill="#BFAA74" width="2.3" height="3.1"/>
		<rect x="19.7" y="46.2" clip-path="url(#SVGID_38_)" fill="#BFAA74" width="2.3" height="3.1"/>
		<rect x="14.8" y="50.1" clip-path="url(#SVGID_38_)" fill="#BFAA74" width="9.4" height="1.1"/>
	</g>
</g>
<g>
	<defs>
		<path id="SVGID_39_" d="M6.3,7.6c0,0,1.4,6.9,1.4,7.1c0,0.2-4.5,1.2-4.5,1.2s4.2,25.6,4.8,26c0.7,0.5,11.5,0.5,11.5,0.5
			s10.8,0,11.5-0.5c0.7-0.5,4.8-26,4.8-26s-4.4-1.1-4.5-1.2c0-0.2,1.4-7.1,1.4-7.1s-4.6-2.1-13.2-2.1C10.8,5.5,6.3,7.6,6.3,7.6"/>
	</defs>
	<clipPath id="SVGID_40_">
		<use xlink:href="#SVGID_39_"  overflow="visible"/>
	</clipPath>
	<path clip-path="url(#SVGID_40_)" fill="#E69A38" d="M32.2,36.5c-0.5-0.6-1.4-1-2.5-1c-0.3,0-0.5,0-0.7,0.1c0,0,0,0,0-0.1
		c0-1.2-1-2.3-2.3-2.3c-1.1,0-2.1,0.8-2.3,1.9c-0.3-0.2-0.6-0.2-1-0.3c0-0.2,0.1-0.3,0.1-0.5c0-1.2-1-2.2-2.3-2.2
		c-0.7,0-1.3,0.3-1.7,0.8c-0.3-0.8-1.2-1.4-2.2-1.4c-1.3,0-2.4,0.9-2.4,2.1c0,0,0,0.1,0,0.1c-0.2-0.1-0.5-0.1-0.8-0.1
		c-1.3,0-2.4,0.7-2.7,1.6c-0.3-0.5-0.8-0.9-1.4-0.9c-0.9,0-1.6,0.8-1.7,1.9c-1,0.1-1.7,0.8-1.7,1.7c0,0.5,0.3,1,0.7,1.3v3.5
		c0,0.3,0.2,0.5,0.5,0.5H32c0.2,0,0.5-0.2,0.5-0.5v-5.7C32.5,36.7,32.3,36.5,32.2,36.5"/>
	<g clip-path="url(#SVGID_40_)">
		<g>
			<defs>
				<rect id="SVGID_41_" x="6.5" y="31.5" width="26" height="6.5"/>
			</defs>
			<clipPath id="SVGID_42_">
				<use xlink:href="#SVGID_41_"  overflow="visible"/>
			</clipPath>
			<path clip-path="url(#SVGID_42_)" fill="#E69A38" d="M32.2,36.5c-0.5-0.6-1.4-1-2.5-1c-0.3,0-0.5,0-0.7,0.1c0,0,0,0,0-0.1
				c0-1.2-1-2.3-2.3-2.3c-1.1,0-2.1,0.8-2.3,1.9c-0.3-0.1-0.6-0.2-0.9-0.3c0,0.1,0,0.2-0.1,0.3c0.4,0,0.7,0.1,1,0.3
				c0.2-1.1,1.1-1.9,2.3-1.9c1.3,0,2.3,1,2.3,2.3c0,0,0,0,0,0.1c0.2,0,0.5-0.1,0.7-0.1c1.1,0,2,0.4,2.5,1c0.2,0.1,0.3,0.3,0.3,0.5
				v-0.3C32.5,36.7,32.3,36.5,32.2,36.5"/>
			<path clip-path="url(#SVGID_42_)" fill="#E69A38" d="M8.2,36.5c0.1-1,0.8-1.9,1.7-1.9c0.6,0,1.1,0.4,1.4,0.9
				c0.3-0.9,1.4-1.6,2.7-1.6c0.3,0,0.5,0,0.8,0.1c0,0,0-0.1,0-0.1c0-1.2,1.1-2.1,2.4-2.1c1,0,1.9,0.6,2.2,1.4c0.4-0.5,1-0.8,1.7-0.8
				c1.2,0,2.2,0.9,2.3,2c0-0.1,0-0.1,0-0.2c0-1.2-1-2.2-2.3-2.2c-0.7,0-1.3,0.3-1.7,0.8c-0.3-0.8-1.2-1.4-2.2-1.4
				c-1.3,0-2.4,0.9-2.4,2.1c0,0,0,0.1,0,0.1c-0.2-0.1-0.5-0.1-0.8-0.1c-1.3,0-2.4,0.7-2.7,1.6c-0.3-0.5-0.8-0.9-1.4-0.9
				c-0.9,0-1.6,0.8-1.7,1.9c-1,0.1-1.7,0.8-1.7,1.7c0,0.1,0,0.1,0,0.2C6.6,37.2,7.3,36.6,8.2,36.5"/>
		</g>
	</g>
</g>
<path fill="#FFFFFF" d="M19.5,6.2c6.2,0,10.3,1.2,11.9,1.7c-1.2,6.2-1.2,6.3-1.2,6.6c0.2,0.7,0.2,0.9,4.3,1.8
	c-1.4,8.7-3.6,21.6-4.4,24.2c-1.5,0.2-6.3,0.3-10.7,0.3c-4.3,0-9.2-0.1-10.7-0.3c-0.7-2.6-3-15.5-4.4-24.2c4.1-1,4.1-1.1,4.3-1.8
	c0.1-0.3,0.1-0.4-1.2-6.6C9.2,7.4,13.2,6.2,19.5,6.2 M19.5,5.1c-8.7,0-13.2,2.1-13.2,2.1s1.4,6.9,1.4,7.1c0,0.2-4.5,1.2-4.5,1.2
	s4.2,25.6,4.8,26s11.5,0.5,11.5,0.5s10.8,0,11.5-0.5s4.8-26,4.8-26s-4.4-1.1-4.5-1.2c0-0.2,1.4-7.1,1.4-7.1S28.1,5.1,19.5,5.1"/>
<path fill="none" stroke="#231F20" stroke-width="1.685" stroke-linecap="round" stroke-linejoin="round" stroke-miterlimit="10" d="
	M31.3,14.3c0-0.2,1.4-7.1,1.4-7.1s-4.6-2.1-13.2-2.1S6.3,7.3,6.3,7.3s1.4,6.9,1.4,7.1c0,0.2-4.5,1.2-4.5,1.2s4.2,25.6,4.8,26
	c0.7,0.5,11.5,0.5,11.5,0.5s10.8,0,11.5-0.5s4.8-26,4.8-26S31.4,14.5,31.3,14.3z"/>
<path fill="none" stroke="#BCA66D" stroke-width="1.124" stroke-linecap="round" stroke-linejoin="round" stroke-miterlimit="10" d="
	M31.3,14.3c0-0.2,1.4-7.1,1.4-7.1s-4.6-2.1-13.2-2.1S6.3,7.3,6.3,7.3s1.4,6.9,1.4,7.1c0,0.2-4.5,1.2-4.5,1.2s4.2,25.6,4.8,26
	c0.7,0.5,11.5,0.5,11.5,0.5s10.8,0,11.5-0.5s4.8-26,4.8-26S31.4,14.5,31.3,14.3z"/>
</svg>
