<?xml version="1.0" encoding="utf-8"?>
<!-- Generator: Adobe Illustrator 15.0.2, SVG Export Plug-In . SVG Version: 6.00 Build 0)  -->
<!DOCTYPE svg PUBLIC "-//W3C//DTD SVG 1.1//EN" "http://www.w3.org/Graphics/SVG/1.1/DTD/svg11.dtd">
<svg version="1.1" id="Layer_1" xmlns="http://www.w3.org/2000/svg" xmlns:xlink="http://www.w3.org/1999/xlink" x="0px" y="0px"
	 width="71.3px" height="36.2px" viewBox="0 0 71.3 36.2" enable-background="new 0 0 71.3 36.2" xml:space="preserve">
<path fill="#B52126" d="M5.4,5.5L57,15.2c0,0,4,0.4,5.7,4.7s4.2,13.6,4.2,13.6s0.6,3-1.2,2.7c-1.8-0.3-1.8-4-1.8-4s-2.9-12-3.7-13
	s-1.7-1.8-3.3-2.1C55.3,16.8,4.3,7.3,4.3,7.3L5.4,5.5z"/>
<g>
	<g>
		<defs>
			<rect id="SVGID_1_" x="32.9" y="11.4" width="8.5" height="2.1"/>
		</defs>
		<clipPath id="SVGID_2_">
			<use xlink:href="#SVGID_1_"  overflow="visible"/>
		</clipPath>
		<path clip-path="url(#SVGID_2_)" fill="#B52126" d="M32.9,12.6c1.5,0.3,3,0.6,4.5,0.8l4-1.2l-4.8-0.9L32.9,12.6z"/>
	</g>
</g>
<g>
	<g>
		<defs>
			<rect id="SVGID_3_" x="4.5" y="5.6" width="3.3" height="2.2"/>
		</defs>
		<clipPath id="SVGID_4_">
			<use xlink:href="#SVGID_3_"  overflow="visible"/>
		</clipPath>
		<path clip-path="url(#SVGID_4_)" fill="#B52126" d="M5.6,5.6L4.5,7.3c0,0,0.9,0.2,2.6,0.5C7.2,7.2,7.5,6.6,7.8,6L5.6,5.6z"/>
	</g>
</g>
<path fill="#B52126" d="M65.9,5.5l-51.6,9.7c0,0-4,0.4-5.7,4.7c-1.7,4.4-4.2,13.6-4.2,13.6s-0.6,3,1.2,2.7c1.8-0.3,1.8-4,1.8-4
	s2.9-12,3.7-13s1.7-1.8,3.3-2.1C15.9,16.8,67,7.3,67,7.3L65.9,5.5z"/>
<path fill="#736357" d="M17.4,22.1c-7.2,0-11.5-5.6-11.9-13.9c0,0,0-0.1,0-0.1c0,0.2,0,0.5,0,0.8c0.4,8.2,4.7,13.9,11.9,13.9
	c7.2,0,12-5.8,12-11.9c0-0.1,0-0.2,0-0.3C29.2,16.5,24.5,22.1,17.4,22.1"/>
<path fill="#736357" d="M65.8,8.2c-0.4,8.2-4.7,13.9-11.9,13.9c-7.1,0-11.8-5.6-12-11.6c0,0.1,0,0.2,0,0.3c0,6.1,4.8,11.9,12,11.9
	s11.5-5.6,11.9-13.9C65.8,8.6,65.8,8.4,65.8,8.2C65.8,8.2,65.8,8.2,65.8,8.2"/>
<path fill="#ED1C24" d="M70.6,3.7c-0.6,0-3.3-0.2-4.8-1C64.4,2,60.5,0,54.6,0c-6,0-11,2.3-13.7,5.4c0,0-0.5,0.2-0.9-0.5
	c-0.4-0.7-1.1-1.5-1.6-1.5c-0.5,0-2.8,0-2.8,0s-2.3,0-2.8,0c-0.5,0-1.2,0.8-1.6,1.5c-0.4,0.7-0.9,0.5-0.9,0.5
	C27.7,2.3,22.6,0,16.7,0c-6,0-9.8,2-11.3,2.8c-1.5,0.8-4.2,1-4.8,1C0.1,3.7,0,4.3,0,4.3v2.1C0,6.9,0.7,7,0.7,7
	c3,0.3,3.4,3.9,3.4,3.9c0.7,6.8,5.3,13.3,13.2,13.3c7.9,0,11.8-6,13-9.2c1.2-3.2,2.5-5.1,2.5-5.1c-0.6-0.5-0.6-1.8-0.6-1.8
	c0-2.1,3.4-2.4,3.4-2.4S39,6,39,8.2c0,0,0.1,1.3-0.6,1.8c0,0,1.4,1.9,2.5,5.1c1.2,3.2,5.1,9.2,13,9.2c7.9,0,12.5-6.5,13.2-13.3
	c0,0,0.5-3.6,3.4-3.9c0,0,0.7-0.1,0.7-0.6V4.3C71.3,4.3,71.2,3.7,70.6,3.7 M17.4,22.8C10.2,22.8,5.9,17.2,5.5,9
	C5.1,0.7,17.4,1.6,17.4,1.6c7.1,0.3,12,3.3,12,9.3S24.6,22.8,17.4,22.8 M65.8,9c-0.4,8.2-4.7,13.9-11.9,13.9s-12-5.8-12-11.9
	s4.9-9,12-9.3C53.9,1.6,66.2,0.7,65.8,9"/>
<g opacity="0.5">
	<g>
		<defs>
			<rect id="SVGID_5_" x="5.5" y="1.5" width="23.9" height="21.3"/>
		</defs>
		<clipPath id="SVGID_6_">
			<use xlink:href="#SVGID_5_"  overflow="visible"/>
		</clipPath>
		<path clip-path="url(#SVGID_6_)" fill="#E6E6E6" d="M17.4,1.5c0,0-12.3-0.8-11.9,7.4c0.4,8.2,4.7,13.9,11.9,13.9
			c7.2,0,12-5.8,12-11.9C29.4,4.8,24.5,1.9,17.4,1.5"/>
	</g>
</g>
<g opacity="0.5">
	<g>
		<defs>
			<rect id="SVGID_7_" x="41.9" y="1.5" width="23.9" height="21.3"/>
		</defs>
		<clipPath id="SVGID_8_">
			<use xlink:href="#SVGID_7_"  overflow="visible"/>
		</clipPath>
		<path clip-path="url(#SVGID_8_)" fill="#E6E6E6" d="M53.9,1.5c0,0,12.3-0.8,11.9,7.4c-0.4,8.2-4.7,13.9-11.9,13.9
			c-7.2,0-12-5.8-12-11.9C41.9,4.8,46.7,1.9,53.9,1.5"/>
	</g>
</g>
<g opacity="0.3">
	<g>
		<defs>
			<rect id="SVGID_9_" x="5.5" y="1.5" width="23.7" height="11.5"/>
		</defs>
		<clipPath id="SVGID_10_">
			<use xlink:href="#SVGID_9_"  overflow="visible"/>
		</clipPath>
		<path clip-path="url(#SVGID_10_)" fill="#E6E6E6" d="M17.4,1.5c0,0-12.3-0.8-11.9,7.4c0.1,1.5,0.3,2.8,0.6,4.1
			c5.9-2.3,14-3.9,23.1-4.4C28.1,4.1,23.6,1.8,17.4,1.5"/>
	</g>
</g>
<g opacity="0.3">
	<g>
		<defs>
			<rect id="SVGID_11_" x="42.1" y="1.5" width="23.7" height="11.8"/>
		</defs>
		<clipPath id="SVGID_12_">
			<use xlink:href="#SVGID_11_"  overflow="visible"/>
		</clipPath>
		<path clip-path="url(#SVGID_12_)" fill="#E6E6E6" d="M65.8,8.9c0.4-8.2-11.9-7.4-11.9-7.4c-6.2,0.3-10.7,2.5-11.8,7.1
			c9.2,0.6,17.2,2.3,23,4.7C65.5,11.9,65.7,10.5,65.8,8.9"/>
	</g>
</g>
<polygon fill="#603813" points="4.5,5.5 3.5,4.5 2.8,5.2 2,4.5 1,5.5 2,6.5 2.8,5.8 3.5,6.5 "/>
<rect x="1.6" y="5" transform="matrix(0.7076 0.7066 -0.7066 0.7076 4.4746 0.1487)" fill="#8B4D47" width="1" height="1"/>
<g>
	<g>
		<defs>
			<rect id="SVGID_13_" x="1.4" y="4.8" width="0.8" height="0.8"/>
		</defs>
		<clipPath id="SVGID_14_">
			<use xlink:href="#SVGID_13_"  overflow="visible"/>
		</clipPath>
		<polygon clip-path="url(#SVGID_14_)" fill="#8B4D47" points="2.2,5 2.2,4.9 2.1,4.8 1.4,5.5 1.5,5.6 2.1,5 		"/>
	</g>
</g>
<g>
	<g>
		<defs>
			<rect id="SVGID_15_" x="1.5" y="5" width="0.7" height="1.2"/>
		</defs>
		<clipPath id="SVGID_16_">
			<use xlink:href="#SVGID_15_"  overflow="visible"/>
		</clipPath>
		<polygon clip-path="url(#SVGID_16_)" fill="#8B4D47" points="2.1,6.1 1.6,5.5 2.2,5 2.1,5 1.5,5.6 2.1,6.2 		"/>
	</g>
</g>
<rect x="3" y="5" transform="matrix(0.7076 0.7066 -0.7066 0.7076 4.8832 -0.8388)" fill="#8B4D47" width="1" height="1"/>
<g>
	<g>
		<defs>
			<rect id="SVGID_17_" x="2.8" y="4.8" width="0.8" height="0.8"/>
		</defs>
		<clipPath id="SVGID_18_">
			<use xlink:href="#SVGID_17_"  overflow="visible"/>
		</clipPath>
		<polygon clip-path="url(#SVGID_18_)" fill="#8B4D47" points="3.6,5 3.6,4.9 3.5,4.8 2.8,5.5 2.9,5.6 3.5,5 		"/>
	</g>
</g>
<g>
	<g>
		<defs>
			<rect id="SVGID_19_" x="2.9" y="5" width="0.7" height="1.2"/>
		</defs>
		<clipPath id="SVGID_20_">
			<use xlink:href="#SVGID_19_"  overflow="visible"/>
		</clipPath>
		<polygon clip-path="url(#SVGID_20_)" fill="#8B4D47" points="3.5,6.1 3,5.5 3.6,5 3.5,5 2.9,5.6 3.5,6.2 		"/>
	</g>
</g>
<polygon fill="#603813" points="70.1,5.5 69.1,4.5 68.4,5.2 67.7,4.5 66.7,5.5 67.7,6.5 68.4,5.8 69.1,6.5 "/>
<rect x="67.2" y="5" transform="matrix(0.7071 0.7071 -0.7071 0.7071 23.7088 -46.2763)" fill="#8B4D47" width="1" height="1"/>
<g>
	<g>
		<defs>
			<rect id="SVGID_21_" x="67" y="4.8" width="0.8" height="0.8"/>
		</defs>
		<clipPath id="SVGID_22_">
			<use xlink:href="#SVGID_21_"  overflow="visible"/>
		</clipPath>
		<polygon clip-path="url(#SVGID_22_)" fill="#8B4D47" points="67.8,5 67.8,4.9 67.7,4.8 67,5.5 67.1,5.6 67.8,5 		"/>
	</g>
</g>
<g>
	<g>
		<defs>
			<rect id="SVGID_23_" x="67.1" y="5" width="0.7" height="1.2"/>
		</defs>
		<clipPath id="SVGID_24_">
			<use xlink:href="#SVGID_23_"  overflow="visible"/>
		</clipPath>
		<polygon clip-path="url(#SVGID_24_)" fill="#8B4D47" points="67.8,6.1 67.2,5.5 67.8,5 67.8,5 67.1,5.6 67.7,6.2 		"/>
	</g>
</g>
<rect x="68.6" y="5" transform="matrix(0.7076 0.7066 -0.7066 0.7076 24.0813 -47.233)" fill="#8B4D47" width="1" height="1"/>
<g>
	<g>
		<defs>
			<rect id="SVGID_25_" x="68.4" y="4.8" width="0.8" height="0.8"/>
		</defs>
		<clipPath id="SVGID_26_">
			<use xlink:href="#SVGID_25_"  overflow="visible"/>
		</clipPath>
		<polygon clip-path="url(#SVGID_26_)" fill="#8B4D47" points="69.2,5 69.2,4.9 69.1,4.8 68.4,5.5 68.5,5.6 69.2,5 		"/>
	</g>
</g>
<g>
	<g>
		<defs>
			<rect id="SVGID_27_" x="68.5" y="5" width="0.7" height="1.2"/>
		</defs>
		<clipPath id="SVGID_28_">
			<use xlink:href="#SVGID_27_"  overflow="visible"/>
		</clipPath>
		<polygon clip-path="url(#SVGID_28_)" fill="#8B4D47" points="69.2,6.1 68.6,5.5 69.2,5 69.2,5 68.5,5.6 69.1,6.2 		"/>
	</g>
</g>
</svg>
