<?xml version="1.0" encoding="utf-8"?>
<!-- Generator: Adobe Illustrator 15.0.2, SVG Export Plug-In . SVG Version: 6.00 Build 0)  -->
<!DOCTYPE svg PUBLIC "-//W3C//DTD SVG 1.1//EN" "http://www.w3.org/Graphics/SVG/1.1/DTD/svg11.dtd">
<svg version="1.1" id="Layer_1" xmlns="http://www.w3.org/2000/svg" xmlns:xlink="http://www.w3.org/1999/xlink" x="0px" y="0px"
	 width="39.2px" height="55.6px" viewBox="0 0 39.2 55.6" enable-background="new 0 0 39.2 55.6" xml:space="preserve">
<path fill="#E9E9E9" d="M39.2,53c0,1.4-1.2,2.6-2.6,2.6h-34C1.2,55.6,0,54.4,0,53V2.6C0,1.2,1.2,0,2.6,0h34c1.4,0,2.6,1.2,2.6,2.6
	V53z"/>
<g opacity="0.5">
	<g>
		<defs>
			<rect id="SVGID_1_" x="0.6" y="0.9" width="38.6" height="54.7"/>
		</defs>
		<clipPath id="SVGID_2_">
			<use xlink:href="#SVGID_1_"  overflow="visible"/>
		</clipPath>
		<path clip-path="url(#SVGID_2_)" fill="#252A26" d="M38.2,1.5c0.2,0.3,0.4,0.7,0.4,1.1V53c0,1-0.8,1.9-1.9,1.9h-34
			c-0.6,0-1.2-0.3-1.5-0.8l-0.4,0.6c0.5,0.6,1.2,0.9,2,0.9h34c1.4,0,2.6-1.2,2.6-2.6V2.6c0-0.7-0.2-1.2-0.6-1.7L38.2,1.5z"/>
	</g>
</g>
<g opacity="0.5">
	<g>
		<defs>
			<rect id="SVGID_3_" x="0" width="38.6" height="54.7"/>
		</defs>
		<clipPath id="SVGID_4_">
			<use xlink:href="#SVGID_3_"  overflow="visible"/>
		</clipPath>
		<path clip-path="url(#SVGID_4_)" fill="#FFFFFF" d="M0.7,53V2.6c0-1,0.8-1.9,1.9-1.9h34c0.6,0,1.2,0.3,1.5,0.8l0.4-0.6
			c-0.5-0.6-1.2-0.9-2-0.9h-34C1.2,0,0,1.2,0,2.6V53c0,0.7,0.2,1.2,0.6,1.7l0.4-0.6C0.8,53.8,0.7,53.4,0.7,53"/>
	</g>
</g>
<g>
	<g>
		<defs>
			<rect id="SVGID_5_" x="5.2" y="3.7" width="28.7" height="20.7"/>
		</defs>
		<clipPath id="SVGID_6_">
			<use xlink:href="#SVGID_5_"  overflow="visible"/>
		</clipPath>
		<path clip-path="url(#SVGID_6_)" fill="#7B7979" d="M33.9,23.3c0,0.6-0.5,1-1,1H6.2c-0.6,0-1-0.5-1-1V4.7c0-0.6,0.5-1,1-1h26.7
			c0.6,0,1,0.5,1,1V23.3z"/>
	</g>
</g>
<path fill="#B9E0ED" d="M33.9,23.4c0,0.6-0.4,1-1,1H6.4c-0.6,0-1-0.4-1-1V4.9c0-0.6,0.4-1,1-1h26.5c0.6,0,1,0.4,1,1V23.4z"/>
<path fill="#D0D3D0" d="M31,39.3c0,6.3-5.1,11.4-11.4,11.4c-6.3,0-11.4-5.1-11.4-11.4c0-6.3,5.1-11.4,11.4-11.4
	C25.9,27.9,31,33,31,39.3"/>
<path fill="#F4F4F4" d="M23.2,39.3c0,2-1.6,3.6-3.6,3.6S16,41.3,16,39.3c0-2,1.6-3.6,3.6-3.6S23.2,37.3,23.2,39.3"/>
<rect x="18.3" y="29.5" fill="#F4F4F4" width="2.4" height="1.1"/>
<rect x="18.3" y="48.6" fill="#F4F4F4" width="2.4" height="1.1"/>
<rect x="9.3" y="38.8" fill="#F4F4F4" width="2.4" height="1.1"/>
<rect x="27.3" y="38.8" fill="#F4F4F4" width="2.4" height="1.1"/>
<rect x="6.1" y="4.6" fill="#BDBCBC" width="26.9" height="1.9"/>
<rect x="8" y="20.9" fill="#FFFFFF" width="23.2" height="1.4"/>
<rect x="8" y="20.9" fill="#1498C3" width="4.1" height="1.4"/>
<polygon fill="#D6543B" points="18.9,17.9 8.8,18.9 8.8,7.8 18.9,8.8 "/>
<rect x="21.5" y="10.3" width="1" height="1.3"/>
<rect x="22.5" y="10.3" width="1" height="1.3"/>
<rect x="23.5" y="10.3" width="1" height="1.3"/>
<rect x="24.5" y="10.3" width="1" height="1.3"/>
<rect x="25.5" y="10.3" width="1" height="1.3"/>
<rect x="26.5" y="10.3" width="1" height="1.3"/>
<rect x="27.5" y="10.3" width="1" height="1.3"/>
<rect x="28.5" y="10.3" width="1" height="1.3"/>
<rect x="29.5" y="10.3" width="1" height="1.3"/>
<rect x="21.5" y="12.7" width="1" height="1.3"/>
<rect x="22.5" y="12.7" width="1" height="1.3"/>
<rect x="23.5" y="12.7" width="1" height="1.3"/>
<rect x="24.5" y="12.7" width="1" height="1.3"/>
<rect x="25.5" y="12.7" width="1" height="1.3"/>
<rect x="26.5" y="12.7" width="1" height="1.3"/>
<rect x="27.5" y="12.7" width="1" height="1.3"/>
<rect x="28.5" y="12.7" width="1" height="1.3"/>
<rect x="21.5" y="15.1" width="1" height="1.3"/>
<rect x="22.5" y="15.1" width="1" height="1.3"/>
<rect x="23.5" y="15.1" width="1" height="1.3"/>
<rect x="24.5" y="15.1" width="1" height="1.3"/>
<rect x="25.5" y="15.1" width="1" height="1.3"/>
<g opacity="0.3">
	<g>
		<defs>
			<rect id="SVGID_7_" x="0" width="38.6" height="54.7"/>
		</defs>
		<clipPath id="SVGID_8_">
			<use xlink:href="#SVGID_7_"  overflow="visible"/>
		</clipPath>
		<path clip-path="url(#SVGID_8_)" fill="#FFFFFF" d="M38.6,0.9c-0.5-0.6-1.2-0.9-2-0.9h-34C1.2,0,0,1.2,0,2.6V53
			c0,0.6,0.2,1.2,0.6,1.7L38.6,0.9z"/>
	</g>
</g>
</svg>
