<?xml version="1.0" encoding="utf-8"?>
<!-- Generator: Adobe Illustrator 15.0.2, SVG Export Plug-In . SVG Version: 6.00 Build 0)  -->
<!DOCTYPE svg PUBLIC "-//W3C//DTD SVG 1.1//EN" "http://www.w3.org/Graphics/SVG/1.1/DTD/svg11.dtd">
<svg version="1.1" id="Layer_1" xmlns="http://www.w3.org/2000/svg" xmlns:xlink="http://www.w3.org/1999/xlink" x="0px" y="0px"
	 width="46.3px" height="79.3px" viewBox="0 0 46.3 79.3" enable-background="new 0 0 46.3 79.3" xml:space="preserve">
<path fill="none" stroke="#464A47" stroke-width="2.238" stroke-miterlimit="10" d="M19.5,11.5C4,11.5-2.4,25,3,39.2
	c4.3,11.1,11,20.2,11,32.5"/>
<path fill="#717572" d="M19.5,11.5c0,0-0.3,0-0.8,0.1c-0.5,0.1-1.3,0.1-2.3,0.2c-1,0.2-2.2,0.4-3.5,0.9c-0.3,0.1-0.7,0.2-1,0.3
	c-0.3,0.2-0.7,0.3-1,0.5c-0.3,0.2-0.7,0.3-1.1,0.5c-0.3,0.2-0.7,0.5-1,0.7c-1.4,0.9-2.7,2.2-4,3.7C3.6,20,2.6,21.8,2,23.9
	c-0.6,2.1-0.9,4.3-0.8,6.5c0,1.1,0.2,2.2,0.4,3.4c0.1,0.6,0.3,1.1,0.4,1.7c0.1,0.6,0.3,1.1,0.5,1.6c0.7,2.2,1.7,4.3,2.6,6.3
	c0.9,2.1,1.9,4.1,2.8,6c1.9,3.9,3.5,7.6,4.5,10.9c0.3,0.8,0.4,1.6,0.7,2.4c0.2,0.8,0.3,1.5,0.5,2.2c0.2,1.4,0.4,2.6,0.4,3.6
	c0.1,1,0.1,1.8,0.1,2.3c0,0.5,0,0.8,0,0.8H14c0,0,0-0.3-0.1-0.8c0-0.5-0.1-1.3-0.2-2.3c-0.1-1-0.3-2.2-0.6-3.6
	c-0.3-1.4-0.7-2.9-1.2-4.5c-0.5-1.6-1.2-3.4-2-5.2c-0.8-1.8-1.6-3.7-2.6-5.6c-0.9-2-1.9-4-2.8-6.1c-0.9-2.1-1.8-4.2-2.4-6.4
	c-0.2-0.5-0.3-1.1-0.4-1.7c-0.1-0.6-0.3-1.1-0.4-1.7c-0.1-1.1-0.4-2.3-0.3-3.4c-0.2-2.3,0.2-4.5,0.6-6.6c0.2-0.5,0.3-1,0.5-1.5
	c0.1-0.5,0.4-1,0.6-1.5c0.4-1,1-1.8,1.5-2.7c1.2-1.6,2.6-2.9,4.1-3.8c0.4-0.2,0.7-0.5,1.1-0.7c0.4-0.2,0.8-0.3,1.1-0.5
	c0.4-0.2,0.7-0.3,1.1-0.5c0.4-0.1,0.7-0.2,1.1-0.3c1.3-0.5,2.6-0.6,3.6-0.7c1-0.1,1.8-0.1,2.3-0.1C19.2,11.4,19.5,11.4,19.5,11.5
	L19.5,11.5z"/>
<path fill="#A82526" d="M32.3,16.7v-2h-3.6h-3.6v2c-0.7,0.4-1,1.2-1,1.2h4.6h4.6C33.3,17.9,33,17.1,32.3,16.7"/>
<rect x="17.2" y="23.3" fill="#A82526" width="23" height="45.6"/>
<path fill="#A82526" d="M40.2,23.3c0,3.4-5.2,6.2-11.5,6.2c-6.4,0-11.5-2.8-11.5-6.2s5.2-6.2,11.5-6.2
	C35.1,17.1,40.2,19.9,40.2,23.3"/>
<g opacity="0.2">
	<g>
		<defs>
			<rect id="SVGID_1_" x="17.2" y="14.8" width="8.6" height="54.2"/>
		</defs>
		<clipPath id="SVGID_2_">
			<use xlink:href="#SVGID_1_"  overflow="visible"/>
		</clipPath>
		<path clip-path="url(#SVGID_2_)" fill="#A82526" d="M25.1,17.6c0.1-0.3,0.3-0.6,0.7-0.9v-2h-0.6v2c-0.4,0.2-0.7,0.6-0.8,0.9
			c-4.2,0.9-7.1,3.1-7.1,5.7v45.6h2.1V23.4C19.3,20.8,21.7,18.6,25.1,17.6"/>
	</g>
</g>
<g opacity="0.6">
	<g>
		<defs>
			<rect id="SVGID_3_" x="31.6" y="14.8" width="8.6" height="54.2"/>
		</defs>
		<clipPath id="SVGID_4_">
			<use xlink:href="#SVGID_3_"  overflow="visible"/>
		</clipPath>
		<path clip-path="url(#SVGID_4_)" fill="#A82526" d="M33.1,17.6c-0.1-0.3-0.4-0.6-0.8-0.9v-2h-0.7v2c0.4,0.2,0.6,0.6,0.7,0.9
			c3.4,0.9,5.8,3.1,5.8,5.7v45.6h2.1V23.4C40.2,20.8,37.3,18.6,33.1,17.6"/>
	</g>
</g>
<g opacity="0.2">
	<g>
		<defs>
			<rect id="SVGID_5_" x="19.3" y="14.8" width="18.8" height="54.2"/>
		</defs>
		<clipPath id="SVGID_6_">
			<use xlink:href="#SVGID_5_"  overflow="visible"/>
		</clipPath>
		<path clip-path="url(#SVGID_6_)" fill="#E5BEBE" d="M27.3,17.6c0.1-0.3,0.2-0.6,0.5-0.9v-2h-2v2c-0.4,0.2-0.6,0.6-0.7,0.9
			c-3.4,0.9-5.8,3.1-5.8,5.7v45.6h3.6V23.4C22.9,20.8,24.7,18.6,27.3,17.6"/>
		<path clip-path="url(#SVGID_6_)" fill="#E5BEBE" d="M34.2,18.3c1.8,1.1,3,3,3,5v45.6h1V23.4C38.1,21.3,36.6,19.4,34.2,18.3"/>
	</g>
</g>
<rect x="21.7" y="10.2" fill="#C1C4C0" width="0.3" height="2.5"/>
<g opacity="0.3">
	<g>
		<defs>
			<rect id="SVGID_7_" x="21.7" y="10.7" width="0.3" height="0.6"/>
		</defs>
		<clipPath id="SVGID_8_">
			<use xlink:href="#SVGID_7_"  overflow="visible"/>
		</clipPath>
		<rect x="21.7" y="10.7" clip-path="url(#SVGID_8_)" fill="#C1C4C0" width="0.3" height="0.6"/>
	</g>
</g>
<rect x="18.4" y="9.9" fill="#C1C4C0" width="3.3" height="3"/>
<rect x="21.8" y="12.5" fill="#929791" width="0.3" height="0.2"/>
<rect x="21.8" y="10.2" fill="#929791" width="0.3" height="0.2"/>
<polygon fill="#929791" points="18.4,12.7 18.4,13 21.8,13 21.8,12.7 21.7,12.7 "/>
<polygon fill="#929791" points="21.8,10.2 21.8,9.9 18.4,9.9 18.4,10.2 21.7,10.2 "/>
<g opacity="0.3">
	<g>
		<defs>
			<rect id="SVGID_9_" x="18.4" y="10.5" width="3.3" height="0.8"/>
		</defs>
		<clipPath id="SVGID_10_">
			<use xlink:href="#SVGID_9_"  overflow="visible"/>
		</clipPath>
		<rect x="18.4" y="10.5" clip-path="url(#SVGID_10_)" fill="#C1C4C0" width="3.3" height="0.8"/>
	</g>
</g>
<path fill="#636B62" d="M21.8,10.3c0,0,0,0.6,0.1,1.2c0,0.6-0.1,1.2-0.1,1.2h0L21.8,10.3L21.8,10.3z"/>
<rect x="12.8" y="71.9" fill="#C1C4C0" width="2.5" height="0.3"/>
<g opacity="0.3">
	<g>
		<defs>
			<rect id="SVGID_11_" x="14.2" y="71.9" width="0.6" height="0.3"/>
		</defs>
		<clipPath id="SVGID_12_">
			<use xlink:href="#SVGID_11_"  overflow="visible"/>
		</clipPath>
		<rect x="14.2" y="71.9" clip-path="url(#SVGID_12_)" fill="#C1C4C0" width="0.6" height="0.3"/>
	</g>
</g>
<rect x="12.5" y="68.6" fill="#C1C4C0" width="3" height="3.3"/>
<rect x="12.8" y="71.9" fill="#929791" width="0.2" height="0.3"/>
<rect x="15" y="71.9" fill="#929791" width="0.2" height="0.3"/>
<polygon fill="#929791" points="12.8,68.6 12.5,68.6 12.5,71.9 12.8,71.9 12.8,71.9 "/>
<polygon fill="#929791" points="15.3,71.9 15.5,71.9 15.5,68.6 15.3,68.6 15.3,71.9 "/>
<g opacity="0.3">
	<g>
		<defs>
			<rect id="SVGID_13_" x="14.2" y="68.6" width="0.8" height="3.3"/>
		</defs>
		<clipPath id="SVGID_14_">
			<use xlink:href="#SVGID_13_"  overflow="visible"/>
		</clipPath>
		<rect x="14.2" y="68.6" clip-path="url(#SVGID_14_)" fill="#C1C4C0" width="0.8" height="3.3"/>
	</g>
</g>
<path fill="#636B62" d="M15.2,71.9c0,0-0.6,0-1.2,0.1c-0.6,0-1.2-0.1-1.2-0.1v0L15.2,71.9L15.2,71.9z"/>
<rect x="23.2" y="10.1" fill="#636B62" width="2" height="2.7"/>
<path fill="none" stroke="#872237" stroke-width="0.959" stroke-miterlimit="10" d="M32.5,9.8c0,0,0.2,2.5-2.3,2.9"/>
<path fill="#B52126" d="M30.5,6.9L33,7.9l4.3,0.9l5.6,1.7l3.3,1.6c0,0,0.2,0.4,0,0.5c-0.2,0.1-0.6,0.3-0.6,0.3l-2-1.1l-9.5-1.9h-3.7
	c0,0-0.2,0-0.2-0.2V9.5h-5.1L30.5,6.9z"/>
<path fill="#68111E" d="M45.6,12.9c-0.7-0.3-1.4-0.7-2-1l0,0c-1.6-0.3-3.2-0.6-4.7-1c-1.6-0.4-3.2-0.6-4.7-0.9l0,0
	c-1.2,0-2.5,0.1-3.7,0h0l0,0c-0.1,0-0.1,0-0.2-0.1c-0.1,0-0.1-0.1-0.1-0.2c0-0.1,0-0.1,0-0.2V9.5l0.2,0.2c-0.8,0-1.7,0-2.5-0.1
	c-0.8,0-1.7,0-2.5-0.1v0c0.8-0.1,1.7-0.1,2.5-0.1c0.8,0,1.7-0.1,2.5-0.1l0.2,0l0,0.2v0.1c0,0,0,0.1,0,0.1c0,0,0,0,0,0l0,0
	c1.2,0,2.5,0,3.7,0h0l0,0c1.6,0.4,3.1,0.8,4.7,1c1.6,0.3,3.2,0.6,4.7,0.9l0,0l0,0C44.3,12.1,45,12.5,45.6,12.9L45.6,12.9z"/>
<path fill="#B69C5B" d="M32.2,14.8c0,0,0.2-0.4-0.4-0.7s-1-0.5-1-0.5s-0.2-0.1-0.2-0.7c0-0.6-0.5-1.1-0.5-1.1v-1.6
	c0,0-0.1-0.5,0.3-0.6l-6.1-0.2v3c0,0,0.1,1.3,1,1.6v0.8H32.2z"/>
<g opacity="0.3">
	<g>
		<defs>
			<rect id="SVGID_15_" x="24.8" y="9.4" width="1.6" height="5.4"/>
		</defs>
		<clipPath id="SVGID_16_">
			<use xlink:href="#SVGID_15_"  overflow="visible"/>
		</clipPath>
		<path clip-path="url(#SVGID_16_)" fill="#B69C5B" d="M25.6,12.4v-3l-0.8,0v3c0,0,0.1,1.3,1,1.6v0.8h0.5V14
			C25.7,13.7,25.6,12.4,25.6,12.4"/>
	</g>
</g>
<g opacity="0.4">
	<g>
		<defs>
			<rect id="SVGID_17_" x="29.2" y="9.6" width="2.9" height="5.2"/>
		</defs>
		<clipPath id="SVGID_18_">
			<use xlink:href="#SVGID_17_"  overflow="visible"/>
		</clipPath>
		<path clip-path="url(#SVGID_18_)" fill="#B69C5B" d="M29.5,9.6c-0.3,0.2-0.2,0.6-0.2,0.6v1.6c0,0,0.4,0.5,0.4,1.1
			c0,0.6,0.1,0.7,0.1,0.7s0.3,0.2,0.7,0.5c0.4,0.3,0.3,0.7,0.3,0.7h1.3c0,0,0.2-0.4-0.4-0.7c-0.6-0.3-1-0.5-1-0.5s-0.2-0.1-0.2-0.7
			c0-0.6-0.5-1.1-0.5-1.1v-1.6c0,0-0.1-0.5,0.3-0.6"/>
	</g>
</g>
<line fill="#B69C5B" x1="42" y1="16.1" x2="42" y2="16.1"/>
<rect x="11.7" y="70.1" fill="#231F20" width="4.7" height="7.8"/>
<g>
	<g>
		<defs>
			<rect id="SVGID_19_" x="15.8" y="70.1" width="0.4" height="7.8"/>
		</defs>
		<clipPath id="SVGID_20_">
			<use xlink:href="#SVGID_19_"  overflow="visible"/>
		</clipPath>
		<rect x="15.8" y="70.1" clip-path="url(#SVGID_20_)" fill="#231F20" width="0.4" height="7.8"/>
	</g>
</g>
<rect x="16.2" y="69.6" fill="#231F20" width="25" height="9.7"/>
<polygon fill="#231F20" points="40.3,68 28.7,68 17.1,68 16.2,69.6 28.7,69.6 41.2,69.6 "/>
<g opacity="0.4">
	<g>
		<defs>
			<rect id="SVGID_21_" x="16.2" y="68" width="3.2" height="1.6"/>
		</defs>
		<clipPath id="SVGID_22_">
			<use xlink:href="#SVGID_21_"  overflow="visible"/>
		</clipPath>
		<polygon clip-path="url(#SVGID_22_)" fill="#231F20" points="17.1,68 16.2,69.6 18.7,69.6 19.4,68 		"/>
	</g>
</g>
<g opacity="0.4">
	<g>
		<defs>
			<rect id="SVGID_23_" x="36.2" y="68" width="5" height="1.6"/>
		</defs>
		<clipPath id="SVGID_24_">
			<use xlink:href="#SVGID_23_"  overflow="visible"/>
		</clipPath>
		<polygon clip-path="url(#SVGID_24_)" fill="#231F20" points="40.3,68 36.2,68 36.9,69.6 41.2,69.6 		"/>
	</g>
</g>
<polygon fill="#706D6E" points="19.4,68 18.7,69.6 22.4,69.6 22.8,68 "/>
<polygon fill="#5A5758" points="35.1,68 35.6,69.6 36.9,69.6 36.2,68 "/>
<path fill="#7B7979" d="M16.3,69.6H41v0c0,0-1.5,0.1-3.9,0.2c-1.2,0-2.5,0.1-4,0.1c-1.4,0-3,0-4.5,0c-1.5,0-3.1,0-4.5,0
	c-1.4,0-2.8-0.1-4-0.1C17.9,69.7,16.3,69.6,16.3,69.6L16.3,69.6z"/>
<path fill="#B69C5B" d="M28.1,12.5c0,1.1-0.9,2-2,2s-2-0.9-2-2s0.9-2,2-2S28.1,11.4,28.1,12.5"/>
<circle fill="none" stroke="#9E7E64" stroke-width="0.24" stroke-miterlimit="10" cx="26.1" cy="12.5" r="1.6"/>
<path fill="#FAF9F7" d="M27.5,12.5c0,0.8-0.6,1.4-1.4,1.4s-1.4-0.6-1.4-1.4c0-0.8,0.6-1.4,1.4-1.4S27.5,11.7,27.5,12.5"/>
<path fill="#C82257" d="M26.1,11.1c-0.7,0-1.3,0.5-1.4,1.2l0.8,0.7c0-0.3,0.3-0.6,0.6-0.6c0.3,0,0.5,0.2,0.6,0.6l0.8-0.7
	C27.4,11.6,26.8,11.1,26.1,11.1"/>
<path fill="#7EA885" d="M25.6,11.2l0.3,1.3c0.1,0,0.2-0.1,0.3-0.1s0.2,0,0.3,0.1l0.3-1.3c-0.2-0.1-0.4-0.1-0.5-0.1
	C25.9,11.1,25.7,11.1,25.6,11.2"/>
<polygon fill="#252A26" points="26.1,11.3 26.1,13.5 25.9,13.5 "/>
<polygon fill="#858885" points="26.1,11.3 26.1,13.5 26.3,13.5 "/>
<path fill="#9FA1A0" d="M24.7,12.5c0-0.8,0.6-1.4,1.4-1.4c0.8,0,1.4,0.6,1.4,1.4c0,0,0,0,0,0.1c0,0,0,0,0.1,0c0,0,0-0.1,0-0.1
	c0-0.8-0.7-1.5-1.5-1.5C25.3,11,24.6,11.7,24.7,12.5c-0.1,0-0.1,0.1-0.1,0.1C24.7,12.6,24.7,12.6,24.7,12.5
	C24.7,12.5,24.7,12.5,24.7,12.5"/>
<path fill="#515551" d="M26.1,14c0.8,0,1.4-0.6,1.5-1.4c0,0,0,0-0.1,0C27.5,13.3,26.9,13.9,26.1,14c-0.7-0.1-1.3-0.7-1.4-1.4
	c0,0-0.1,0-0.1,0C24.7,13.4,25.3,14,26.1,14"/>
<g opacity="0.3">
	<g>
		<defs>
			<rect id="SVGID_25_" x="24.5" y="10.8" width="3.3" height="3.3"/>
		</defs>
		<clipPath id="SVGID_26_">
			<use xlink:href="#SVGID_25_"  overflow="visible"/>
		</clipPath>
		<g clip-path="url(#SVGID_26_)">
			<g>
				<defs>
					<rect id="SVGID_27_" x="24.5" y="12.4" width="3.3" height="1.7"/>
				</defs>
				<clipPath id="SVGID_28_">
					<use xlink:href="#SVGID_27_"  overflow="visible"/>
				</clipPath>
				<path clip-path="url(#SVGID_28_)" fill="#9E7E64" d="M27.6,12.5c0,0.8-0.7,1.5-1.5,1.5s-1.5-0.7-1.5-1.5c0,0,0,0,0,0
					c0,0-0.1-0.1-0.1-0.1c0,0,0,0.1,0,0.1c0,0.9,0.7,1.6,1.6,1.6c0.9,0,1.6-0.7,1.6-1.6c0,0,0-0.1,0-0.1
					C27.7,12.4,27.7,12.4,27.6,12.5C27.6,12.5,27.6,12.5,27.6,12.5"/>
			</g>
		</g>
		<g clip-path="url(#SVGID_26_)">
			<g>
				<defs>
					<rect id="SVGID_29_" x="24.5" y="10.8" width="3.3" height="1.6"/>
				</defs>
				<clipPath id="SVGID_30_">
					<use xlink:href="#SVGID_29_"  overflow="visible"/>
				</clipPath>
				<path clip-path="url(#SVGID_30_)" fill="#8E7963" d="M26.1,10.8c-0.9,0-1.6,0.7-1.6,1.5c0,0,0.1,0.1,0.1,0.1
					c0-0.8,0.7-1.5,1.5-1.5s1.5,0.7,1.5,1.5c0,0,0.1-0.1,0.1-0.1C27.7,11.5,27,10.8,26.1,10.8"/>
			</g>
		</g>
	</g>
</g>
<path fill="#595D5A" d="M26.3,13.5c0,0.1-0.1,0.2-0.2,0.2s-0.2-0.1-0.2-0.2c0-0.1,0.1-0.2,0.2-0.2S26.3,13.4,26.3,13.5"/>
<path fill="#C0C1C0" d="M26.2,13.5c0,0.1-0.1,0.1-0.1,0.1c-0.1,0-0.1-0.1-0.1-0.1c0-0.1,0.1-0.1,0.1-0.1
	C26.2,13.4,26.2,13.5,26.2,13.5"/>
<path fill="#252A26" d="M26.2,13.5C26.2,13.6,26.2,13.6,26.2,13.5c-0.1,0.1-0.1,0-0.1,0C26.1,13.5,26.1,13.5,26.2,13.5
	C26.2,13.5,26.2,13.5,26.2,13.5"/>
<g>
	<g>
		<defs>
			<rect id="SVGID_31_" x="28" y="11.7" width="1.9" height="0.2"/>
		</defs>
		<clipPath id="SVGID_32_">
			<use xlink:href="#SVGID_31_"  overflow="visible"/>
		</clipPath>
		<path clip-path="url(#SVGID_32_)" fill="#B69C5B" d="M29.9,11.8c0,0-0.1,0-0.3,0c-0.2,0-0.4,0-0.7,0c-0.2,0-0.5,0-0.7,0
			c-0.2,0-0.3,0-0.3,0s0.1,0,0.3,0c0.2,0,0.4,0,0.7,0c0.2,0,0.5,0,0.7,0C29.8,11.8,29.9,11.8,29.9,11.8"/>
	</g>
</g>
<g>
	<g>
		<defs>
			<rect id="SVGID_33_" x="27.8" y="13.4" width="2.7" height="0.2"/>
		</defs>
		<clipPath id="SVGID_34_">
			<use xlink:href="#SVGID_33_"  overflow="visible"/>
		</clipPath>
		<path clip-path="url(#SVGID_34_)" fill="#B69C5B" d="M30.5,13.5c0,0-0.2,0-0.4,0c-0.3,0-0.6,0-0.9,0c-0.3,0-0.7,0-0.9,0
			c-0.3,0-0.4,0-0.4,0s0.2,0,0.4,0c0.3,0,0.6,0,0.9,0c0.3,0,0.7,0,0.9,0C30.3,13.5,30.5,13.5,30.5,13.5"/>
	</g>
</g>
<path fill="#B52126" d="M24.1,9.5V7.7l-0.7-0.3L23.8,6l5.5-2.6l12.1-3.4c0,0,0.7-0.3,1.1,0c0.4,0.3,0.5,0.5,0.5,0.5l-1.8,1h-0.7
	l-9,3.2l-1,2.9c0,0-0.2,0.6-0.9,0.8c-0.7,0.2-4.1,1.1-4.1,1.1H24.1z"/>
<path fill="#68111E" d="M42.9,0.6c-0.6,0.4-1.1,0.7-1.7,1.1l0,0l0,0l-0.7,0l0,0c-1.5,0.6-3,1.1-4.5,1.5c-1.5,0.5-3,1.1-4.5,1.6
	l0.1-0.1l-0.6,2l-0.2,0.5c-0.1,0.2-0.1,0.3-0.2,0.5c-0.1,0.2-0.2,0.3-0.4,0.5c-0.2,0.1-0.3,0.2-0.5,0.3c-1.4,0.4-2.8,0.7-4.1,1l0,0
	h0c-0.5,0-1,0-1.4-0.1v0c0.5,0,1-0.1,1.4-0.1l0,0c1.4-0.4,2.7-0.8,4.1-1.2c0.2,0,0.3-0.1,0.4-0.2c0.1-0.1,0.2-0.2,0.3-0.4
	c0.1-0.1,0.1-0.3,0.2-0.5l0.2-0.5l0.7-2l0-0.1l0.1,0c1.5-0.5,3-1,4.5-1.5c1.5-0.6,3-1.1,4.5-1.6l0,0h0l0.7,0l0,0
	C41.7,1.2,42.3,0.9,42.9,0.6L42.9,0.6z"/>
<path fill="#D2C39B" d="M25.8,8.4c0,0.3-0.2,0.5-0.5,0.5s-0.5-0.2-0.5-0.5c0-0.3,0.2-0.5,0.5-0.5S25.8,8.1,25.8,8.4"/>
<path fill="#F8F5EF" d="M25.4,8.3c0,0.1-0.1,0.2-0.2,0.2S25,8.4,25,8.3c0-0.1,0.1-0.2,0.2-0.2S25.4,8.2,25.4,8.3"/>
<path fill="#D2C39B" d="M29.5,7.3c0,0.2-0.2,0.4-0.4,0.4s-0.4-0.2-0.4-0.4s0.2-0.4,0.4-0.4S29.5,7.1,29.5,7.3"/>
<path fill="#F8F5EF" d="M29.2,7.2c0,0.1-0.1,0.1-0.1,0.1s-0.2-0.1-0.2-0.1c0-0.1,0.1-0.2,0.2-0.2S29.2,7.1,29.2,7.2"/>
<rect x="22" y="12.6" fill="#696767" width="1.4" height="0.3"/>
<rect x="22" y="9.9" fill="#A7A5A6" width="1.4" height="0.9"/>
<rect x="22" y="10.8" fill="#918F90" width="1.4" height="1.9"/>
<path fill="#E0E0E0" d="M22.1,10.8c0,0,0.1,0,0.2,0c0.1,0,0.3,0,0.4,0c0.2,0,0.3,0,0.4,0c0.1,0,0.2,0,0.2,0s-0.1,0-0.2,0
	c-0.1,0-0.3,0-0.4,0c-0.2,0-0.3,0-0.4,0C22.1,10.8,22.1,10.8,22.1,10.8"/>
<g>
	<g>
		<defs>
			<rect id="SVGID_35_" x="25.3" y="16.7" width="6.7" height="0.2"/>
		</defs>
		<clipPath id="SVGID_36_">
			<use xlink:href="#SVGID_35_"  overflow="visible"/>
		</clipPath>
		<path clip-path="url(#SVGID_36_)" fill="#872237" d="M25.3,16.7c0,0,0.4,0,1,0c0.6,0,1.5,0,2.3,0c0.8,0,1.7,0,2.3,0c0.6,0,1,0,1,0
			s-0.4,0-1,0c-0.6,0-1.5,0-2.3,0c-0.8,0-1.7,0-2.3,0C25.8,16.8,25.3,16.7,25.3,16.7"/>
	</g>
</g>
<g>
	<g>
		<defs>
			<rect id="SVGID_37_" x="24.6" y="17.5" width="8.2" height="0.2"/>
		</defs>
		<clipPath id="SVGID_38_">
			<use xlink:href="#SVGID_37_"  overflow="visible"/>
		</clipPath>
		<path clip-path="url(#SVGID_38_)" fill="#872237" d="M24.6,17.6c0,0,0.5,0,1.3,0c0.8,0,1.8,0,2.8,0c1,0,2.1,0,2.8,0
			c0.8,0,1.3,0,1.3,0s-0.5,0-1.3,0c-0.8,0-1.8,0-2.8,0c-1,0-2.1,0-2.8,0C25.2,17.6,24.6,17.6,24.6,17.6"/>
	</g>
</g>
</svg>
