<?xml version="1.0" encoding="utf-8"?>
<!-- Generator: Adobe Illustrator 15.0.2, SVG Export Plug-In . SVG Version: 6.00 Build 0)  -->
<!DOCTYPE svg PUBLIC "-//W3C//DTD SVG 1.1//EN" "http://www.w3.org/Graphics/SVG/1.1/DTD/svg11.dtd">
<svg version="1.1" id="Layer_1" xmlns="http://www.w3.org/2000/svg" xmlns:xlink="http://www.w3.org/1999/xlink" x="0px" y="0px"
	 width="45px" height="45px" viewBox="0 0 45 45" enable-background="new 0 0 45 45" xml:space="preserve">
<path fill="#473F65" d="M34.4,0.3L34.4,0.3l0.2,0v14.4c0,0.6-0.5,1-1,1h-27c-0.6,0-1-0.4-1-1v-0.2V0.7V0.3v0H1
	C0.6,0.3,0.3,0.6,0.3,1v43c0,0.4,0.3,0.7,0.7,0.7h43c0.4,0,0.7-0.3,0.7-0.7V3.7l-3.4-3.4H34.4z M44.1,42h-3.3v-2.7h3.3V42z"/>
<g>
	<g>
		<defs>
			<rect id="SVGID_1_" x="40.8" y="39.1" width="3.3" height="3"/>
		</defs>
		<clipPath id="SVGID_2_">
			<use xlink:href="#SVGID_1_"  overflow="visible"/>
		</clipPath>
		<path clip-path="url(#SVGID_2_)" fill="#473F65" d="M40.8,42.1h3.3v-3h-3.3V42.1z M40.9,39.3h3V42h-3V39.3z"/>
	</g>
</g>
<g>
	<g>
		<defs>
			<rect id="SVGID_3_" y="44" width="1" height="1"/>
		</defs>
		<clipPath id="SVGID_4_">
			<use xlink:href="#SVGID_3_"  overflow="visible"/>
		</clipPath>
		<g clip-path="url(#SVGID_4_)">
			<defs>
				<path id="SVGID_5_" d="M0,44c0,0.6,0.4,1,1,1C0.4,45,0,44.6,0,44"/>
			</defs>
			<clipPath id="SVGID_6_">
				<use xlink:href="#SVGID_5_"  overflow="visible"/>
			</clipPath>
			
				<linearGradient id="SVGID_7_" gradientUnits="userSpaceOnUse" x1="-768.7446" y1="432.7773" x2="-767.7446" y2="432.7773" gradientTransform="matrix(-2.000000e-006 45 45 2.000000e-006 -19474.4629 34593.5)">
				<stop  offset="0" style="stop-color:#FFFFFF"/>
				<stop  offset="1" style="stop-color:#231F20"/>
			</linearGradient>
			<rect y="44" clip-path="url(#SVGID_6_)" fill="url(#SVGID_7_)" width="1" height="1"/>
		</g>
	</g>
</g>
<g>
	<g>
		<defs>
			<rect id="SVGID_8_" x="44" y="44" width="1" height="1"/>
		</defs>
		<clipPath id="SVGID_9_">
			<use xlink:href="#SVGID_8_"  overflow="visible"/>
		</clipPath>
		<g clip-path="url(#SVGID_9_)">
			<defs>
				<path id="SVGID_10_" d="M44,45c0.6,0,1-0.4,1-1C45,44.6,44.6,45,44,45"/>
			</defs>
			<clipPath id="SVGID_11_">
				<use xlink:href="#SVGID_10_"  overflow="visible"/>
			</clipPath>
			
				<linearGradient id="SVGID_12_" gradientUnits="userSpaceOnUse" x1="-768.7446" y1="432.7773" x2="-767.7446" y2="432.7773" gradientTransform="matrix(-2.000000e-006 45 45 2.000000e-006 -19430.4629 34593.5)">
				<stop  offset="0" style="stop-color:#FFFFFF"/>
				<stop  offset="1" style="stop-color:#231F20"/>
			</linearGradient>
			<rect x="44" y="44" clip-path="url(#SVGID_11_)" fill="url(#SVGID_12_)" width="1" height="1"/>
		</g>
	</g>
</g>
<g>
	<g>
		<defs>
			<rect id="SVGID_13_" width="1" height="1"/>
		</defs>
		<clipPath id="SVGID_14_">
			<use xlink:href="#SVGID_13_"  overflow="visible"/>
		</clipPath>
		<g clip-path="url(#SVGID_14_)">
			<defs>
				<path id="SVGID_15_" d="M1,0C0.4,0,0,0.4,0,1C0,0.4,0.4,0,1,0"/>
			</defs>
			<clipPath id="SVGID_16_">
				<use xlink:href="#SVGID_15_"  overflow="visible"/>
			</clipPath>
			
				<linearGradient id="SVGID_17_" gradientUnits="userSpaceOnUse" x1="-768.7446" y1="432.7773" x2="-767.7446" y2="432.7773" gradientTransform="matrix(-2.000000e-006 45 45 2.000000e-006 -19474.4629 34593.5)">
				<stop  offset="0" style="stop-color:#FFFFFF"/>
				<stop  offset="1" style="stop-color:#231F20"/>
			</linearGradient>
			<rect clip-path="url(#SVGID_16_)" fill="url(#SVGID_17_)" width="1" height="1"/>
		</g>
	</g>
</g>
<polygon fill="#473F65" points="41.3,0.3 44.7,3.7 41.3,0.3 34.4,0.3 "/>
<g>
	<g>
		<defs>
			<rect id="SVGID_18_" x="34.4" y="0.3" width="10.3" height="3.4"/>
		</defs>
		<clipPath id="SVGID_19_">
			<use xlink:href="#SVGID_18_"  overflow="visible"/>
		</clipPath>
		<g clip-path="url(#SVGID_19_)">
			<defs>
				<polygon id="SVGID_20_" points="41.3,0.3 44.7,3.7 41.3,0.3 34.4,0.3 34.4,0.3 				"/>
			</defs>
			<clipPath id="SVGID_21_">
				<use xlink:href="#SVGID_20_"  overflow="visible"/>
			</clipPath>
			
				<linearGradient id="SVGID_22_" gradientUnits="userSpaceOnUse" x1="-768.7441" y1="432.7773" x2="-767.7441" y2="432.7773" gradientTransform="matrix(-2.000000e-006 45.0001 45.0001 2.000000e-006 -19435.4023 34593.5313)">
				<stop  offset="0" style="stop-color:#FFFFFF"/>
				<stop  offset="1" style="stop-color:#231F20"/>
			</linearGradient>
			<rect x="34.4" y="0.3" clip-path="url(#SVGID_21_)" fill="url(#SVGID_22_)" width="10.3" height="3.4"/>
		</g>
	</g>
</g>
<path fill="#473F65" d="M44,44.7H1c-0.4,0-0.7-0.3-0.7-0.7c0,0.4,0.3,0.7,0.7,0.7H44c0.4,0,0.7-0.3,0.7-0.7
	C44.7,44.4,44.4,44.7,44,44.7"/>
<g>
	<g>
		<defs>
			<rect id="SVGID_23_" x="0.3" y="44" width="44.4" height="0.7"/>
		</defs>
		<clipPath id="SVGID_24_">
			<use xlink:href="#SVGID_23_"  overflow="visible"/>
		</clipPath>
		<g clip-path="url(#SVGID_24_)">
			<defs>
				<path id="SVGID_25_" d="M44,44.7H1c-0.4,0-0.7-0.3-0.7-0.7c0,0.4,0.3,0.7,0.7,0.7L44,44.7c0.4,0,0.7-0.3,0.7-0.7
					C44.7,44.4,44.4,44.7,44,44.7"/>
			</defs>
			<clipPath id="SVGID_26_">
				<use xlink:href="#SVGID_25_"  overflow="visible"/>
			</clipPath>
			
				<linearGradient id="SVGID_27_" gradientUnits="userSpaceOnUse" x1="-768.7144" y1="432.7773" x2="-767.7446" y2="432.7773" gradientTransform="matrix(-2.000000e-006 45 45 2.000000e-006 -19452.4629 34593.5)">
				<stop  offset="0" style="stop-color:#FFFFFF"/>
				<stop  offset="1" style="stop-color:#231F20"/>
			</linearGradient>
			<rect x="0.3" y="44" clip-path="url(#SVGID_26_)" fill="url(#SVGID_27_)" width="44.4" height="0.7"/>
		</g>
	</g>
</g>
<path fill="#473F65" d="M0.3,1c0-0.4,0.3-0.7,0.7-0.7h4.6v0H1C0.6,0.3,0.3,0.6,0.3,1"/>
<g>
	<g>
		<defs>
			<rect id="SVGID_28_" x="0.3" y="0.3" width="5.3" height="0.7"/>
		</defs>
		<clipPath id="SVGID_29_">
			<use xlink:href="#SVGID_28_"  overflow="visible"/>
		</clipPath>
		<g clip-path="url(#SVGID_29_)">
			<defs>
				<path id="SVGID_30_" d="M0.3,1c0-0.4,0.3-0.7,0.7-0.7h4.6v0H1C0.6,0.3,0.3,0.6,0.3,1"/>
			</defs>
			<clipPath id="SVGID_31_">
				<use xlink:href="#SVGID_30_"  overflow="visible"/>
			</clipPath>
			
				<linearGradient id="SVGID_32_" gradientUnits="userSpaceOnUse" x1="-768.7446" y1="432.7764" x2="-767.7446" y2="432.7764" gradientTransform="matrix(-2.000000e-006 45 45 2.000000e-006 -19471.9941 34593.5)">
				<stop  offset="0" style="stop-color:#FFFFFF"/>
				<stop  offset="1" style="stop-color:#231F20"/>
			</linearGradient>
			<rect x="0.3" y="0.3" clip-path="url(#SVGID_31_)" fill="url(#SVGID_32_)" width="5.3" height="0.7"/>
		</g>
	</g>
</g>
<path fill="#473F65" d="M41.5,0h-7v0.1v0h7l3.5,3.5V44c0,0.5-0.4,0.9-0.9,0.9H1c-0.5,0-0.9-0.4-0.9-0.9V1c0-0.5,0.4-0.9,0.9-0.9h4.6
	v0V0H1C0.4,0,0,0.4,0,1v43c0,0.6,0.4,1,1,1h43c0.6,0,1-0.4,1-1V3.5L41.5,0z"/>
<g>
	<g>
		<defs>
			<rect id="SVGID_33_" width="45" height="45"/>
		</defs>
		<clipPath id="SVGID_34_">
			<use xlink:href="#SVGID_33_"  overflow="visible"/>
		</clipPath>
		<g clip-path="url(#SVGID_34_)">
			<defs>
				<path id="SVGID_35_" d="M41.5,0h-7v0.1v0h7l3.5,3.5V44c0,0.5-0.4,0.9-0.9,0.9H1c-0.5,0-0.9-0.4-0.9-0.9V1c0-0.5,0.4-0.9,0.9-0.9
					h4.6v0V0H1C0.4,0,0,0.4,0,1v43c0,0.6,0.4,1,1,1h43c0.6,0,1-0.4,1-1V3.5L41.5,0z"/>
			</defs>
			<clipPath id="SVGID_36_">
				<use xlink:href="#SVGID_35_"  overflow="visible"/>
			</clipPath>
			
				<linearGradient id="SVGID_37_" gradientUnits="userSpaceOnUse" x1="-768.7446" y1="432.7773" x2="-767.7446" y2="432.7773" gradientTransform="matrix(-2.000000e-006 45 45 2.000000e-006 -19452.4629 34593.5)">
				<stop  offset="0" style="stop-color:#FFFFFF"/>
				<stop  offset="1" style="stop-color:#231F20"/>
			</linearGradient>
			<rect clip-path="url(#SVGID_36_)" fill="url(#SVGID_37_)" width="45" height="45"/>
		</g>
	</g>
</g>
<path fill="#473F65" d="M41.3,0.3l3.4,3.4V44c0,0.4-0.3,0.7-0.7,0.7H1c-0.4,0-0.7-0.3-0.7-0.7V1c0-0.4,0.3-0.7,0.7-0.7h4.6V0.1H1
	C0.5,0.1,0.1,0.5,0.1,1v43c0,0.5,0.4,0.9,0.9,0.9h43c0.5,0,0.9-0.4,0.9-0.9V3.6l-3.5-3.5h-7v0.1H41.3z"/>
<g>
	<g>
		<defs>
			<rect id="SVGID_38_" x="0.1" y="0.1" width="44.7" height="44.7"/>
		</defs>
		<clipPath id="SVGID_39_">
			<use xlink:href="#SVGID_38_"  overflow="visible"/>
		</clipPath>
		<g clip-path="url(#SVGID_39_)">
			<defs>
				<path id="SVGID_40_" d="M41.3,0.3l3.4,3.4V44c0,0.4-0.3,0.7-0.7,0.7H1c-0.4,0-0.7-0.3-0.7-0.7V1c0-0.4,0.3-0.7,0.7-0.7h4.6V0.1
					H1C0.5,0.1,0.1,0.5,0.1,1v43c0,0.5,0.4,0.9,0.9,0.9h43c0.5,0,0.9-0.4,0.9-0.9V3.6l-3.5-3.5h-7v0.1H41.3z"/>
			</defs>
			<clipPath id="SVGID_41_">
				<use xlink:href="#SVGID_40_"  overflow="visible"/>
			</clipPath>
			
				<linearGradient id="SVGID_42_" gradientUnits="userSpaceOnUse" x1="-768.7446" y1="432.7773" x2="-767.7446" y2="432.7773" gradientTransform="matrix(-2.000000e-006 44.9999 44.9999 2.000000e-006 -19452.3965 34593.3828)">
				<stop  offset="0" style="stop-color:#FFFFFF"/>
				<stop  offset="1" style="stop-color:#231F20"/>
			</linearGradient>
			<rect x="0.1" y="0.1" clip-path="url(#SVGID_41_)" fill="url(#SVGID_42_)" width="44.7" height="44.7"/>
		</g>
	</g>
</g>
<path fill="#473F65" d="M34.4,14.5c0,0.6-0.4,1-1,1H6.6c-0.6,0-1-0.4-1-1v0.2c0,0.6,0.5,1,1,1h27c0.6,0,1-0.4,1-1V0.3h-0.2v0.4V14.5
	z"/>
<g>
	<g>
		<defs>
			<rect id="SVGID_43_" x="5.6" y="0.3" width="29" height="15.4"/>
		</defs>
		<clipPath id="SVGID_44_">
			<use xlink:href="#SVGID_43_"  overflow="visible"/>
		</clipPath>
		<path clip-path="url(#SVGID_44_)" fill="#50496D" d="M34.4,14.5c0,0.6-0.4,1-1,1H6.6c-0.6,0-1-0.4-1-1v0.2c0,0.6,0.5,1,1,1h27
			c0.6,0,1-0.4,1-1V0.3h-0.2v0.4V14.5z"/>
	</g>
</g>
<path fill="#50496D" d="M6.6,15.5h26.8c0.6,0,1-0.4,1-1V0.7H5.6v13.8C5.6,15.1,6.1,15.5,6.6,15.5"/>
<rect x="1.1" y="39.5" fill="#231F20" width="2.8" height="2.2"/>
<path fill="#DEDDDE" d="M15.2,0.3v13.8c0,0.6,0.4,1,1,1h16.9c0.6,0,1-0.4,1-1V0.3H15.2z M31.9,12.9h-5.7V2.5h5.7V12.9z"/>
<g>
	<g>
		<defs>
			<rect id="SVGID_45_" x="5.6" y="17" width="33.3" height="27.8"/>
		</defs>
		<clipPath id="SVGID_46_">
			<use xlink:href="#SVGID_45_"  overflow="visible"/>
		</clipPath>
		<path clip-path="url(#SVGID_46_)" fill="#473F65" d="M38.9,44.8V18c0-0.6-0.4-1-1-1H6.6c-0.6,0-1,0.4-1,1v26.8H38.9z"/>
	</g>
</g>
<path fill="#473F65" d="M38.8,45V18.2c0-0.6-0.4-1-1-1H6.6c-0.6,0-1,0.4-1,1V45H38.8z"/>
<path fill="#F3EFD9" d="M6.7,42.8c0,0.6,0.4,1,1,1h29.1c0.6,0,1-0.4,1-1V23.3H6.7V42.8z"/>
<path fill="#A82526" d="M36.8,18H7.7c-0.6,0-1,0.4-1,1v4.3h31.1V19C37.8,18.4,37.4,18,36.8,18"/>
<line fill="none" stroke="#A82526" stroke-miterlimit="10" x1="9.2" y1="29.5" x2="35.3" y2="29.5"/>
<line fill="none" stroke="#A82526" stroke-miterlimit="10" x1="9.2" y1="34.5" x2="35.3" y2="34.5"/>
<line fill="none" stroke="#A82526" stroke-miterlimit="10" x1="9.2" y1="39.5" x2="35.3" y2="39.5"/>
</svg>
