<?xml version="1.0" encoding="utf-8"?>
<!-- Generator: Adobe Illustrator 15.0.2, SVG Export Plug-In . SVG Version: 6.00 Build 0)  -->
<!DOCTYPE svg PUBLIC "-//W3C//DTD SVG 1.1//EN" "http://www.w3.org/Graphics/SVG/1.1/DTD/svg11.dtd">
<svg version="1.1" id="Layer_1" xmlns="http://www.w3.org/2000/svg" xmlns:xlink="http://www.w3.org/1999/xlink" x="0px" y="0px"
	 width="28.3px" height="68.9px" viewBox="0 0 28.3 68.9" enable-background="new 0 0 28.3 68.9" xml:space="preserve">
<path fill="#386B95" d="M7,67.7c0.6,0.7,3.5,1.2,7,1.2c3.5,0,6.5-0.5,7-1.2c-1.6,0.3-4.2,0.5-7,0.5C11.2,68.3,8.6,68,7,67.7"/>
<path fill="#386B95" d="M25.4,55.7c0-2.6-1.2-6.5-4.6-9.5s0.6-9.4,0.6-9.4h0c0.1-0.4,0.3-0.8,0.5-1.2c0,0,1-1.4-7.7-1.7
	c-8.7,0.3-7.7,1.7-7.7,1.7c2.5,5.5-0.3,9.1-2,10.3C2.8,47.1,0,51,0,56.1S2.2,64,5,66.5c2.8,2.5,9.1,2.4,9.1,2.4s0.6,0,1.5,0
	C25.8,66.7,25.4,58.2,25.4,55.7"/>
<path fill="#386B95" d="M28.3,56.1c0-5.1-2.8-9-4.5-10.2c-1.5-1.1-4.1-4.3-2.4-9.1h0c0,0-4.1,6.4-0.6,9.4s4.6,7,4.6,9.5
	c0,2.6,0.4,11-9.8,13.2c2-0.1,5.7-0.6,7.7-2.4C26.1,64,28.3,61.2,28.3,56.1"/>
<g opacity="0.3">
	<g>
		<defs>
			<rect id="SVGID_1_" x="15.6" y="36.7" width="12.7" height="32.1"/>
		</defs>
		<clipPath id="SVGID_2_">
			<use xlink:href="#SVGID_1_"  overflow="visible"/>
		</clipPath>
		<path clip-path="url(#SVGID_2_)" fill="#386B95" d="M28.3,56.1c0-5.1-2.8-9-4.5-10.2c-1.5-1.1-4.1-4.3-2.4-9.1h0
			c0,0-4.1,6.4-0.6,9.4s4.6,7,4.6,9.5c0,2.6,0.4,11-9.8,13.2c2-0.1,5.7-0.6,7.7-2.4C26.1,64,28.3,61.2,28.3,56.1"/>
	</g>
</g>
<g opacity="0.3">
	<g>
		<defs>
			<rect id="SVGID_3_" x="0.1" y="36.7" width="12.7" height="32.1"/>
		</defs>
		<clipPath id="SVGID_4_">
			<use xlink:href="#SVGID_3_"  overflow="visible"/>
		</clipPath>
		<path clip-path="url(#SVGID_4_)" fill="#386B95" d="M0.1,56.1c0-5.1,2.8-9,4.5-10.2C6,44.7,8.6,41.6,7,36.7c0,0,4.1,6.4,0.6,9.4
			c-3.4,3-4.6,7-4.6,9.5c0,2.6-0.4,11,9.8,13.2c-2-0.1-5.7-0.6-7.7-2.4C2.3,64,0.1,61.2,0.1,56.1"/>
	</g>
</g>
<path fill="#386B95" d="M21,35.2c0,0.6-3.1,1.2-6.8,1.2c-3.8,0-6.8-0.5-6.8-1.2s3.1-1.2,6.8-1.2C17.9,34.1,21,34.6,21,35.2"/>
<path fill="#386B95" d="M14.2,36.4c3.8,0,6.8-0.5,6.8-1.2s-3.1-1.2-6.8-1.2s-6.8,0.5-6.8,1.2S10.4,36.4,14.2,36.4"/>
<path fill="#386B95" d="M14.2,34.1c-1.1,0-2.2,0-3.1,0.1c-1,0.1-1.9,0.2-2.6,0.4c-0.7,0.2-1.1,0.4-1.1,0.6s0.4,0.5,1.1,0.6
	C9.1,36,10,36.2,11,36.3c0.9,0.1,2,0.1,3.1,0.1c3.8,0,6.8-0.5,6.8-1.2S17.9,34.1,14.2,34.1"/>
<g opacity="0.4">
	<g>
		<defs>
			<rect id="SVGID_5_" x="8.2" y="35.5" width="10.3" height="0.8"/>
		</defs>
		<clipPath id="SVGID_6_">
			<use xlink:href="#SVGID_5_"  overflow="visible"/>
		</clipPath>
		<path clip-path="url(#SVGID_6_)" fill="#386B95" d="M8.2,35.8c1.2,0.4,3.4,0.6,5.9,0.6c1.6,0,3.1-0.1,4.3-0.3
			c-1.2-0.4-3.4-0.6-5.9-0.6C10.8,35.5,9.3,35.6,8.2,35.8"/>
	</g>
</g>
<g>
	<g>
		<defs>
			<rect id="SVGID_7_" x="7.3" y="34.1" width="6.8" height="2.3"/>
		</defs>
		<clipPath id="SVGID_8_">
			<use xlink:href="#SVGID_7_"  overflow="visible"/>
		</clipPath>
		<g opacity="0.2" clip-path="url(#SVGID_8_)">
			<g>
				<defs>
					<rect id="SVGID_9_" x="11" y="34.1" width="3.1" height="2.3"/>
				</defs>
				<clipPath id="SVGID_10_">
					<use xlink:href="#SVGID_9_"  overflow="visible"/>
				</clipPath>
				<path clip-path="url(#SVGID_10_)" fill="#231F20" d="M11,34.2v2.1c0.9,0.1,2,0.1,3.1,0.1v-2.3C13,34.1,12,34.1,11,34.2"/>
			</g>
		</g>
		<g opacity="0.7" clip-path="url(#SVGID_8_)">
			<g>
				<defs>
					<rect id="SVGID_11_" x="7.3" y="34.6" width="1.1" height="1.3"/>
				</defs>
				<clipPath id="SVGID_12_">
					<use xlink:href="#SVGID_11_"  overflow="visible"/>
				</clipPath>
				<path clip-path="url(#SVGID_12_)" fill="#231F20" d="M8.5,35.9v-1.3c-0.7,0.2-1.1,0.4-1.1,0.6S7.7,35.7,8.5,35.9"/>
			</g>
		</g>
		<g opacity="0.4" clip-path="url(#SVGID_8_)">
			<g>
				<defs>
					<rect id="SVGID_13_" x="8.5" y="34.2" width="2.6" height="2.1"/>
				</defs>
				<clipPath id="SVGID_14_">
					<use xlink:href="#SVGID_13_"  overflow="visible"/>
				</clipPath>
				<path clip-path="url(#SVGID_14_)" fill="#231F20" d="M8.5,35.9C9.1,36,10,36.2,11,36.3v-2.1c-1,0.1-1.9,0.2-2.6,0.4V35.9z"/>
			</g>
		</g>
	</g>
</g>
<g>
	<g>
		<defs>
			<rect id="SVGID_15_" x="7" y="67.7" width="14.1" height="1.2"/>
		</defs>
		<clipPath id="SVGID_16_">
			<use xlink:href="#SVGID_15_"  overflow="visible"/>
		</clipPath>
		<path clip-path="url(#SVGID_16_)" fill="#386B95" d="M7,67.7c0.6,0.7,3.5,1.2,7,1.2c3.5,0,6.5-0.5,7-1.2c-1.6,0.3-4.2,0.5-7,0.5
			C11.2,68.3,8.6,68,7,67.7"/>
	</g>
</g>
<path fill="#597F5C" d="M13.1,36.6c-0.1-2.9,0.3-9.8,1.5-16.3c1.5-8.3,3.8-13.1,6.7-14.3l0.5,1.1c-5.8,2.5-7.7,23.4-7.5,29.4
	L13.1,36.6z"/>
<path fill="#7497B5" d="M7.6,36.3c0.7,0.2,1.7,0.4,2.9,0.6c1.1,0.1,2.3,0.2,3.6,0.2c3.7,0,6.9-0.6,7.6-1.3c0-0.1,0.1-0.1,0.1-0.2
	c0,0,1-1.4-7.7-1.7c-8.7,0.3-7.7,1.7-7.7,1.7c0,0.1,0.1,0.1,0.1,0.2C6.7,36,7.1,36.1,7.6,36.3 M14.2,34.1c3.8,0,6.8,0.5,6.8,1.2
	s-3.1,1.2-6.8,1.2s-6.8-0.5-6.8-1.2S10.4,34.1,14.2,34.1"/>
<path fill="#597F5C" d="M14.2,34.1c0.1,0,0.1,0,0.2,0c0-0.1,0-0.2,0-0.2c-0.1,0-0.2,0-0.2,0c-0.3,0-0.7,0-1,0c0,0.1,0,0.1,0,0.2
	C13.5,34.1,13.8,34.1,14.2,34.1"/>
<path fill="#A82526" d="M22.4,6.8c0.9,3.8,1.2,7,0.6,7.2s-1.8-2.9-2.7-6.7c-0.9-3.8-1.2-7-0.6-7.2C20.3-0.1,21.5,2.9,22.4,6.8"/>
<path fill="#A82526" d="M22.3,6.3c1.9,3.4,3,6.4,2.5,6.8s-2.4-2-4.3-5.4s-3-6.4-2.5-6.8S20.4,2.9,22.3,6.3"/>
<path fill="#A82526" d="M22,5.9c2.6,2.5,4.4,5,4.1,5.6c-0.3,0.6-2.7-0.9-5.3-3.4c-2.6-2.5-4.4-5-4.1-5.6C17,1.9,19.4,3.4,22,5.9"/>
<path fill="#A82526" d="M21.6,5.7c3,1.3,5.3,3,5.2,3.7c-0.1,0.7-2.7,0.3-5.7-1.1c-3-1.3-5.3-3-5.2-3.7C16.1,3.9,18.6,4.4,21.6,5.7"
	/>
<path fill="#A82526" d="M21.2,5.6c3.1,0,5.6,0.6,5.7,1.3c0.1,0.8-2.4,1.4-5.4,1.4c-3.1,0-5.6-0.6-5.7-1.3S18.2,5.6,21.2,5.6"/>
<path fill="#A82526" d="M20.9,5.7c2.8-1.4,5.2-1.9,5.5-1.2c0.3,0.7-1.7,2.4-4.5,3.8s-5.2,1.9-5.5,1.2C16.1,8.7,18.1,7.1,20.9,5.7"/>
<path fill="#A82526" d="M20.6,5.9c2.1-2.5,4.2-4.1,4.6-3.5c0.4,0.6-0.9,3.1-3,5.6c-2.1,2.5-4.2,4.1-4.6,3.5
	C17.1,11,18.5,8.5,20.6,5.9"/>
<path fill="#A82526" d="M20.4,6.3c1.2-3.4,2.6-5.8,3.2-5.4c0.6,0.4,0,3.4-1.2,6.8c-1.2,3.4-2.6,5.8-3.2,5.4
	C18.6,12.8,19.2,9.7,20.4,6.3"/>
<path fill="#A82526" d="M20.3,6.8c0.2-3.8,0.8-6.8,1.4-6.7c0.6,0.1,1,3.3,0.8,7.2c-0.2,3.8-0.8,6.8-1.4,6.7
	C20.5,13.8,20.1,10.6,20.3,6.8"/>
<g>
	<g>
		<defs>
			<rect id="SVGID_17_" x="15.8" width="11.3" height="14"/>
		</defs>
		<clipPath id="SVGID_18_">
			<use xlink:href="#SVGID_17_"  overflow="visible"/>
		</clipPath>
		<path clip-path="url(#SVGID_18_)" fill="#A82526" d="M20.8,1.7c-0.1-0.3-0.3-0.6-0.5-0.9c-0.1-0.1-0.2-0.3-0.3-0.4
			c-0.1-0.1-0.2-0.3-0.4-0.2c-0.1,0-0.1,0.1-0.1,0.1c0,0.1-0.1,0.1-0.1,0.2c0,0.2,0,0.3,0,0.5c0,0.3,0,0.7,0,1l0-0.1
			c0.4,0.5,0.8,1,1.1,1.5l-0.2,0C20.6,2.9,20.7,2.3,20.8,1.7 M20.9,1.7c0,0.6-0.1,1.2-0.2,1.8l0,0.3l-0.2-0.2
			c-0.4-0.5-0.7-1-1.1-1.5l0,0l0,0c0-0.3,0-0.7,0-1c0-0.2,0-0.3,0.1-0.5c0-0.1,0-0.2,0.1-0.3c0.1-0.1,0.1-0.2,0.2-0.2
			c0.2,0,0.3,0.2,0.5,0.3c0.1,0.1,0.2,0.3,0.3,0.4C20.6,1,20.7,1.4,20.9,1.7L20.9,1.7L20.9,1.7z"/>
		<path clip-path="url(#SVGID_18_)" fill="#A82526" d="M21.9,12.3c0.1,0.3,0.3,0.6,0.5,0.9c0.1,0.1,0.2,0.3,0.3,0.4
			c0,0.1,0.1,0.1,0.2,0.2c0.1,0,0.1,0.1,0.2,0.1c0.1,0,0.1-0.1,0.1-0.2c0-0.1,0.1-0.1,0.1-0.2c0-0.2,0-0.3,0-0.5c0-0.3,0-0.7,0-1
			l0,0.1c-0.4-0.5-0.8-1-1.1-1.5l0.2,0C22.2,11.1,22.1,11.7,21.9,12.3 M21.9,12.3c0-0.6,0.1-1.2,0.2-1.8l0-0.3l0.2,0.2
			c0.4,0.5,0.7,1,1.1,1.5l0,0l0,0c0,0.3,0,0.7,0,1c0,0.2,0,0.3-0.1,0.5c0,0.1-0.1,0.2-0.1,0.3c-0.1,0.1-0.1,0.2-0.2,0.2
			c-0.1,0-0.2,0-0.3-0.1c-0.1-0.1-0.1-0.1-0.2-0.2c-0.1-0.1-0.2-0.3-0.3-0.4C22.2,13,22,12.7,21.9,12.3L21.9,12.3L21.9,12.3z"/>
		<path clip-path="url(#SVGID_18_)" fill="#A82526" d="M23.3,12c0.2,0.2,0.4,0.5,0.7,0.7c0.1,0.1,0.3,0.2,0.4,0.3
			c0.1,0,0.1,0.1,0.2,0.1c0.1,0,0.1,0,0.2-0.1c0-0.1,0-0.3,0-0.4c0-0.2-0.1-0.3-0.1-0.5c-0.1-0.3-0.2-0.6-0.3-0.9l0,0
			c-0.5-0.3-0.9-0.6-1.4-1l0.2-0.1C23.2,10.7,23.3,11.4,23.3,12 M23.3,12c-0.1-0.6-0.2-1.3-0.3-1.9l0-0.3l0.2,0.1
			c0.5,0.3,0.9,0.6,1.4,1l0,0l0,0c0.1,0.3,0.2,0.6,0.3,1c0,0.2,0.1,0.3,0.1,0.5c0,0.2,0,0.3-0.1,0.5c0,0.1-0.2,0.2-0.2,0.1
			c-0.1,0-0.2-0.1-0.3-0.1c-0.1-0.1-0.3-0.2-0.4-0.3C23.7,12.5,23.5,12.3,23.3,12L23.3,12L23.3,12z"/>
		<path clip-path="url(#SVGID_18_)" fill="#A82526" d="M19.4,2c-0.2-0.2-0.4-0.5-0.7-0.7c-0.1-0.1-0.3-0.2-0.4-0.3
			c-0.1,0-0.1-0.1-0.2-0.1C18.1,0.9,18,1,18,1c0,0.1,0,0.3,0,0.5C18,1.6,18,1.8,18.1,2c0.1,0.3,0.2,0.6,0.3,0.9l0,0
			c0.5,0.3,0.9,0.6,1.4,1l-0.2,0.1C19.5,3.3,19.5,2.6,19.4,2 M19.5,2c0.1,0.6,0.2,1.3,0.3,1.9l0,0.3L19.6,4c-0.5-0.3-0.9-0.6-1.4-1
			l0,0l0,0c-0.1-0.3-0.2-0.6-0.3-1c0-0.2-0.1-0.3-0.1-0.5c0-0.2,0-0.3,0.1-0.5c0-0.1,0.2-0.2,0.2-0.1c0.1,0,0.2,0.1,0.3,0.1
			c0.1,0.1,0.3,0.2,0.4,0.3C19,1.5,19.3,1.7,19.5,2L19.5,2L19.5,2z"/>
		<path clip-path="url(#SVGID_18_)" fill="#A82526" d="M20.5,3.5l-1.2-1.4L19.5,2c0.1,0.6,0.2,1.3,0.1,1.9l0,0
			c-0.2-0.6-0.3-1.3-0.3-1.9l0-0.3L19.5,2L20.5,3.5L20.5,3.5z"/>
		<path clip-path="url(#SVGID_18_)" fill="#A82526" d="M22.2,10.5l1.2,1.4L23.2,12c-0.1-0.6-0.2-1.3-0.1-1.9l0,0
			c0.2,0.6,0.3,1.3,0.3,1.9l0,0.3l-0.2-0.2L22.2,10.5L22.2,10.5z"/>
		<path clip-path="url(#SVGID_18_)" fill="#A82526" d="M18.3,2.9c-0.3-0.2-0.6-0.3-0.9-0.4c-0.1,0-0.3-0.1-0.5-0.1
			c-0.1,0-0.1,0-0.2,0.1c0,0-0.1,0.1-0.1,0.2c0,0.3,0.2,0.6,0.3,0.8c0.2,0.3,0.3,0.5,0.5,0.8l-0.1,0c0.5,0.1,1,0.2,1.5,0.3l-0.1,0.1
			C18.7,4.2,18.4,3.6,18.3,2.9 M18.3,2.9c0.3,0.6,0.5,1.2,0.8,1.7l0.1,0.2l-0.2,0c-0.5-0.1-1-0.2-1.5-0.4l0,0l0,0
			c-0.2-0.3-0.4-0.5-0.5-0.8c-0.1-0.1-0.1-0.3-0.2-0.4c-0.1-0.2-0.1-0.3-0.1-0.5c0-0.1,0-0.2,0.1-0.2c0.1-0.1,0.2-0.1,0.3-0.1
			c0.2,0,0.3,0.1,0.5,0.1C17.7,2.6,18,2.8,18.3,2.9L18.3,2.9L18.3,2.9z"/>
		<path clip-path="url(#SVGID_18_)" fill="#A82526" d="M24.5,11.1c0.3,0.2,0.6,0.3,0.9,0.4c0.1,0,0.3,0.1,0.5,0.1
			c0.1,0,0.1,0,0.2-0.1c0,0,0.1-0.1,0.1-0.2c0-0.3-0.2-0.6-0.3-0.8c-0.2-0.3-0.3-0.5-0.5-0.8l0.1,0c-0.5-0.1-1-0.2-1.5-0.3l0.1-0.1
			C24.1,9.8,24.3,10.4,24.5,11.1 M24.5,11.1c-0.3-0.6-0.5-1.2-0.8-1.7l-0.1-0.2l0.2,0.1c0.5,0.1,1,0.2,1.5,0.4l0,0l0,0
			c0.2,0.3,0.4,0.5,0.5,0.8c0.1,0.1,0.1,0.3,0.2,0.4c0.1,0.2,0.1,0.3,0.1,0.5c0,0.1,0,0.2-0.1,0.2c-0.1,0.1-0.2,0.1-0.3,0.1
			c-0.2,0-0.3-0.1-0.5-0.1C25,11.4,24.8,11.2,24.5,11.1L24.5,11.1L24.5,11.1z"/>
		<path clip-path="url(#SVGID_18_)" fill="#A82526" d="M23.1,10.1l1.4,0.9l-0.1,0.1c-0.3-0.6-0.5-1.2-0.7-1.8l0,0
			c0.3,0.6,0.6,1.2,0.8,1.8l0.1,0.3l-0.2-0.2L23.1,10.1L23.1,10.1z"/>
		<path clip-path="url(#SVGID_18_)" fill="#A82526" d="M19.7,3.9L18.2,3l0.1-0.1c0.3,0.6,0.5,1.2,0.7,1.8l0,0
			c-0.3-0.6-0.6-1.1-0.8-1.8l-0.1-0.3l0.2,0.2L19.7,3.9L19.7,3.9z"/>
		<path clip-path="url(#SVGID_18_)" fill="#A82526" d="M24.2,8.2l1.2,1.4l0,0c0.3,0,0.6,0.1,0.9,0c0.1,0,0.3,0,0.4-0.1
			c0.1,0,0.1-0.1,0.1-0.1c0,0,0-0.1,0-0.2c0-0.1-0.1-0.2-0.2-0.3c-0.1-0.1-0.2-0.2-0.3-0.3C26,8.3,25.8,8.2,25.6,8l0.1,0
			C25.2,8.1,24.7,8.2,24.2,8.2 M24.2,8.2c0.5-0.2,1-0.3,1.4-0.4l0,0l0,0c0.3,0.2,0.5,0.4,0.7,0.6c0.1,0.1,0.2,0.2,0.3,0.4
			c0.1,0.1,0.2,0.3,0.2,0.5c0,0.1,0,0.2,0,0.3c0,0.1-0.1,0.2-0.2,0.2c-0.2,0.1-0.3,0.1-0.5,0.1c-0.3,0-0.6,0-0.9-0.1l0,0l0,0
			L24.2,8.2L24.2,8.2z"/>
		<path clip-path="url(#SVGID_18_)" fill="#A82526" d="M18.6,5.8l-1.2-1.4l0,0c-0.3,0-0.6-0.1-0.9,0c-0.1,0-0.3,0-0.4,0.1
			c-0.1,0-0.1,0.1-0.1,0.1c0,0,0,0.1,0,0.2c0,0.1,0.1,0.2,0.2,0.3c0.1,0.1,0.2,0.2,0.3,0.3C16.7,5.7,17,5.8,17.2,6l-0.1,0
			C17.6,5.9,18.1,5.8,18.6,5.8 M18.6,5.8c-0.5,0.2-1,0.3-1.4,0.4l0,0l0,0c-0.3-0.2-0.5-0.4-0.7-0.6c-0.1-0.1-0.2-0.2-0.3-0.4
			C16,5.1,15.9,5,15.8,4.8c0-0.1,0-0.2,0-0.3c0-0.1,0.1-0.2,0.2-0.2c0.2-0.1,0.3-0.1,0.5-0.1c0.3,0,0.6,0,0.9,0.1l0,0l0,0L18.6,5.8
			L18.6,5.8z"/>
		<path clip-path="url(#SVGID_18_)" fill="#A82526" d="M19,4.7l-1.5-0.3l0.1-0.1c0.2,0.2,0.4,0.5,0.6,0.7c0.1,0.1,0.2,0.3,0.3,0.4
			c0.1,0.1,0.2,0.3,0.2,0.4l0,0c-0.1-0.1-0.2-0.2-0.3-0.3S18.1,5.3,18,5.2c-0.2-0.2-0.4-0.5-0.5-0.7l-0.1-0.2l0.2,0.1L19,4.7L19,4.7
			z"/>
		<path clip-path="url(#SVGID_18_)" fill="#A82526" d="M23.8,9.3l1.5,0.3l-0.1,0.1C25,9.5,24.8,9.2,24.6,9c-0.1-0.1-0.2-0.3-0.3-0.4
			c-0.1-0.1-0.2-0.3-0.2-0.4l0,0c0.1,0.1,0.2,0.2,0.3,0.3s0.2,0.2,0.3,0.3c0.2,0.2,0.4,0.5,0.5,0.7l0.1,0.2l-0.2-0.1L23.8,9.3
			L23.8,9.3z"/>
		<path clip-path="url(#SVGID_18_)" fill="#A82526" d="M25.4,6.1l-1.2,1l0-0.1l1.4,0.9l-0.1,0c0.3-0.1,0.6-0.2,0.8-0.3
			c0.2-0.1,0.5-0.3,0.4-0.5c0-0.1-0.1-0.2-0.2-0.3c-0.1-0.1-0.2-0.2-0.4-0.2C26,6.3,25.7,6.2,25.4,6.1 M25.4,6
			c0.3,0.1,0.6,0.1,0.9,0.2c0.1,0.1,0.3,0.1,0.4,0.2c0.1,0,0.1,0.1,0.2,0.2C27,6.7,27,6.8,27,6.9l0,0.1C27.1,7,27,7,27,7
			c0,0,0,0.1,0,0.1c0,0.1-0.1,0.2-0.1,0.2c-0.1,0.1-0.2,0.2-0.4,0.3c-0.3,0.1-0.6,0.2-0.9,0.3l0,0l0,0L24.2,7l-0.1,0l0.1,0L25.4,6
			L25.4,6z"/>
		<path clip-path="url(#SVGID_18_)" fill="#A82526" d="M17.1,6.1c-0.3,0.1-0.6,0.2-0.8,0.3c-0.2,0.1-0.5,0.4-0.4,0.6
			c0,0.1,0.1,0.2,0.2,0.3c0.1,0.1,0.2,0.1,0.4,0.2c0.3,0.1,0.5,0.2,0.8,0.3l-0.1,0l1.2-1l0,0l0,0.2L17.1,6.1z M17.1,6.1l1.5,0.8
			L18.7,7l-0.1,0.1h0L17.4,8l0,0l0,0C17,8,16.7,7.9,16.5,7.7c-0.1-0.1-0.3-0.1-0.4-0.2c-0.1-0.1-0.3-0.2-0.3-0.4c0-0.1,0-0.2,0-0.2
			c0-0.1,0.1-0.1,0.1-0.2c0.1-0.1,0.2-0.2,0.4-0.3C16.6,6.3,16.9,6.2,17.1,6.1L17.1,6.1z"/>
		<path clip-path="url(#SVGID_18_)" fill="#A82526" d="M24.2,8.2l1.4-0.4l0,0.1c-0.5-0.3-1-0.6-1.4-1l0,0c0.5,0.2,1,0.5,1.5,0.9
			l0.2,0.1l-0.2,0L24.2,8.2L24.2,8.2z"/>
		<path clip-path="url(#SVGID_18_)" fill="#A82526" d="M18.6,5.8l-1.4,0.4l0-0.1c0.5,0.3,1,0.6,1.4,1l0,0c-0.5-0.2-1-0.5-1.5-0.9
			l-0.2-0.1l0.2,0L18.6,5.8L18.6,5.8z"/>
		<path clip-path="url(#SVGID_18_)" fill="#A82526" d="M17.3,8c-0.2,0.2-0.4,0.4-0.6,0.6c-0.1,0.1-0.2,0.2-0.2,0.4
			c-0.1,0.1-0.1,0.3-0.1,0.4c0,0.1,0.1,0.1,0.1,0.2c0,0,0.1,0.1,0.2,0.1c0.1,0,0.3,0.1,0.4,0.1c0.3,0,0.6,0,0.9-0.1l-0.1,0
			c0.3-0.5,0.6-1,0.8-1.5l0.1,0.2C18.3,8.2,17.8,8.1,17.3,8 M17.3,8c0.5,0,1,0.1,1.5,0.2l0.1,0l-0.1,0.1c-0.3,0.5-0.6,1-0.9,1.4l0,0
			l0,0c-0.3,0-0.6,0.1-0.9,0.1c-0.2,0-0.3,0-0.5-0.1c-0.1,0-0.1-0.1-0.2-0.1c0-0.1-0.1-0.1-0.1-0.2c0-0.2,0-0.3,0.1-0.5
			c0.1-0.1,0.2-0.3,0.3-0.4C16.9,8.4,17.1,8.2,17.3,8L17.3,8L17.3,8z"/>
		<path clip-path="url(#SVGID_18_)" fill="#A82526" d="M25.4,6c0.2-0.2,0.4-0.4,0.6-0.6c0.1-0.1,0.2-0.2,0.2-0.4
			c0.1-0.1,0.1-0.3,0.1-0.4c0-0.1-0.1-0.1-0.1-0.2c0,0-0.1-0.1-0.2-0.1c-0.1,0-0.3-0.1-0.4-0.1c-0.3,0-0.6,0-0.9,0.1l0.1,0
			c-0.3,0.5-0.5,1-0.8,1.5l-0.1-0.2C24.4,5.8,24.9,5.9,25.4,6 M25.4,6.1c-0.5,0-1-0.1-1.5-0.2l-0.1,0l0.1-0.1c0.3-0.5,0.6-1,0.9-1.4
			l0,0l0,0c0.3,0,0.6-0.1,0.9-0.1c0.2,0,0.3,0,0.5,0.1c0.1,0,0.1,0.1,0.2,0.1c0,0.1,0.1,0.1,0.1,0.2c0,0.2,0,0.3-0.1,0.5
			c-0.1,0.1-0.2,0.3-0.3,0.4C25.9,5.7,25.7,5.9,25.4,6.1L25.4,6.1L25.4,6.1z"/>
		<path clip-path="url(#SVGID_18_)" fill="#A82526" d="M24.2,7l1.2-1l0,0.2c-0.5,0-1-0.2-1.5-0.4l0,0c0.5,0,1,0.1,1.5,0.2L25.6,6
			l-0.1,0.1L24.2,7L24.2,7z"/>
		<path clip-path="url(#SVGID_18_)" fill="#A82526" d="M18.6,7l-1.2,1l0-0.2c0.5,0,1,0.2,1.5,0.4l0,0c-0.5,0-1-0.1-1.5-0.2L17.1,8
			l0.1-0.1L18.6,7L18.6,7z"/>
		<path clip-path="url(#SVGID_18_)" fill="#A82526" d="M24.8,4.3C24.9,4,25,3.7,25.1,3.5c0.1-0.3,0.2-0.6,0.1-0.9
			c0-0.1,0-0.1-0.1-0.2c-0.1,0-0.1,0-0.2,0c-0.1,0-0.3,0.1-0.4,0.1C24.2,2.6,24,2.8,23.7,3l0-0.1c-0.1,0.6-0.2,1.2-0.4,1.8l-0.1-0.1
			C23.8,4.5,24.3,4.4,24.8,4.3 M24.8,4.3c-0.5,0.2-0.9,0.3-1.4,0.5l-0.2,0l0-0.2c0.1-0.6,0.2-1.2,0.4-1.8l0,0l0,0
			c0.3-0.2,0.5-0.3,0.8-0.5c0.1-0.1,0.3-0.1,0.5-0.1c0.1,0,0.2,0,0.3,0.1c0.1,0,0.1,0.1,0.1,0.2c0,0.2,0,0.3,0,0.5
			c0,0.2-0.1,0.3-0.1,0.4C25.1,3.8,24.9,4,24.8,4.3L24.8,4.3L24.8,4.3z"/>
		<path clip-path="url(#SVGID_18_)" fill="#A82526" d="M18,9.7c-0.1,0.3-0.3,0.6-0.3,0.8c-0.1,0.3-0.2,0.6-0.1,0.9
			c0,0.1,0,0.1,0.1,0.2c0.1,0,0.1,0,0.2,0c0.1,0,0.3-0.1,0.4-0.1c0.3-0.1,0.5-0.3,0.8-0.5l0,0.1c0.1-0.6,0.2-1.2,0.4-1.8l0.1,0.1
			C19,9.5,18.5,9.6,18,9.7 M18,9.7c0.5-0.2,0.9-0.3,1.4-0.5l0.2,0l0,0.2c-0.1,0.6-0.2,1.2-0.4,1.8l0,0l0,0c-0.3,0.2-0.5,0.3-0.8,0.5
			c-0.1,0.1-0.3,0.1-0.5,0.1c-0.1,0-0.2,0-0.3-0.1c-0.1,0-0.1-0.1-0.1-0.2c0-0.2,0-0.3,0-0.5c0-0.2,0.1-0.3,0.1-0.4
			C17.7,10.2,17.9,10,18,9.7L18,9.7L18,9.7z"/>
		<path clip-path="url(#SVGID_18_)" fill="#A82526" d="M18.9,8.3l-0.8,1.5L18,9.6c0.5-0.2,0.9-0.3,1.5-0.3l0,0
			C19,9.5,18.5,9.7,18,9.8l-0.2,0l0.1-0.2L18.9,8.3L18.9,8.3z"/>
		<path clip-path="url(#SVGID_18_)" fill="#A82526" d="M23.9,5.8l0.8-1.5l0.1,0.1c-0.5,0.2-0.9,0.3-1.5,0.3l0,0
			c0.5-0.2,0.9-0.4,1.4-0.5l0.2,0l-0.1,0.2L23.9,5.8L23.9,5.8z"/>
		<path clip-path="url(#SVGID_18_)" fill="#A82526" d="M23.7,2.9c0-0.3,0.1-0.6,0.1-0.9c0-0.3,0-0.6-0.1-0.9
			c-0.1-0.1-0.1-0.1-0.2-0.1c-0.1,0-0.1,0-0.2,0C23.2,1,23,1.1,22.9,1.2c-0.2,0.2-0.4,0.5-0.5,0.8l0-0.1c0.1,0.6,0.1,1.3,0.2,1.9
			l-0.2-0.1C22.8,3.5,23.2,3.2,23.7,2.9 M23.7,2.9c-0.4,0.4-0.8,0.7-1.1,1.1l-0.1,0.1l0-0.2c-0.1-0.6-0.1-1.3-0.2-1.9l0,0l0,0
			c0.2-0.3,0.4-0.5,0.6-0.8C23,1,23.1,0.9,23.2,0.8c0.1,0,0.2-0.1,0.3,0c0.1,0,0.2,0.1,0.2,0.2c0.1,0.3,0.1,0.7,0.1,1
			C23.8,2.3,23.7,2.6,23.7,2.9L23.7,2.9L23.7,2.9z"/>
		<path clip-path="url(#SVGID_18_)" fill="#A82526" d="M19.1,11.1c0,0.3-0.1,0.6-0.1,0.9c0,0.3,0,0.6,0.1,0.9
			c0.1,0.1,0.1,0.1,0.1,0.1c0.1,0,0.1,0,0.2,0c0.1-0.1,0.2-0.2,0.3-0.3c0.2-0.2,0.4-0.5,0.5-0.8l0,0.1c-0.1-0.6-0.1-1.3-0.2-1.9
			l0.2,0.1C19.9,10.5,19.5,10.8,19.1,11.1 M19.1,11.1c0.4-0.4,0.8-0.7,1.1-1.1l0.1-0.1l0,0.2c0.1,0.6,0.1,1.3,0.2,1.9l0,0l0,0
			c-0.2,0.3-0.4,0.5-0.6,0.8c-0.1,0.1-0.2,0.2-0.4,0.3c-0.1,0-0.2,0.1-0.3,0c-0.1,0-0.2-0.1-0.2-0.2c-0.1-0.3-0.1-0.7-0.1-1
			C19,11.7,19,11.4,19.1,11.1L19.1,11.1L19.1,11.1z"/>
		<path clip-path="url(#SVGID_18_)" fill="#A82526" d="M23.3,4.7l0.3-1.8L23.7,3c-0.4,0.4-0.8,0.7-1.2,0.9l0,0
			c0.3-0.4,0.7-0.8,1.2-1.1l0.2-0.1l-0.1,0.2L23.3,4.7L23.3,4.7z"/>
		<path clip-path="url(#SVGID_18_)" fill="#A82526" d="M19.5,9.3l-0.3,1.8L19,11c0.4-0.4,0.8-0.7,1.2-0.9l0,0
			c-0.3,0.4-0.7,0.8-1.2,1.1l-0.2,0.1l0.1-0.2L19.5,9.3L19.5,9.3z"/>
		<path clip-path="url(#SVGID_18_)" fill="#A82526" d="M20.4,12c0.1,0.3,0.1,0.7,0.2,1c0,0.2,0.1,0.3,0.2,0.5
			c0.1,0.2,0.1,0.3,0.2,0.4c0,0,0.1,0,0.1,0c0,0,0.1,0,0.1,0c0,0,0.1-0.1,0.1-0.2c0.1-0.1,0.1-0.3,0.2-0.4c0.1-0.3,0.2-0.6,0.3-1
			l0,0.1c-0.2-0.6-0.5-1.2-0.7-1.8l0.2,0C21,11.1,20.8,11.6,20.4,12 M20.4,12c0.2-0.5,0.5-1,0.7-1.5l0.1-0.2l0.1,0.2
			c0.2,0.6,0.4,1.2,0.7,1.8l0,0l0,0c-0.1,0.3-0.2,0.6-0.3,1c-0.1,0.2-0.1,0.3-0.2,0.5c-0.1,0.1-0.1,0.1-0.2,0.2c0,0-0.1,0-0.1,0
			C21.1,14,21,14,21,14c-0.1-0.1-0.2-0.3-0.3-0.4c-0.1-0.2-0.1-0.3-0.1-0.5C20.5,12.7,20.5,12.4,20.4,12L20.4,12L20.4,12z"/>
		<path clip-path="url(#SVGID_18_)" fill="#A82526" d="M22.3,2c-0.1-0.3-0.1-0.7-0.2-1c0-0.2-0.1-0.3-0.2-0.5
			c-0.1-0.2-0.1-0.3-0.2-0.4c0,0-0.1,0-0.1,0c0,0-0.1,0-0.1,0c0,0-0.1,0.1-0.1,0.2c-0.1,0.1-0.1,0.3-0.2,0.4c-0.1,0.3-0.2,0.6-0.3,1
			l0-0.1c0.2,0.6,0.5,1.2,0.7,1.8l-0.2,0C21.7,2.9,22,2.4,22.3,2 M22.3,2c-0.2,0.5-0.5,1-0.7,1.5l-0.1,0.2l-0.1-0.2
			c-0.2-0.6-0.4-1.2-0.7-1.8l0,0l0,0c0.1-0.3,0.2-0.6,0.3-1c0.1-0.2,0.1-0.3,0.2-0.5c0.1-0.1,0.1-0.1,0.2-0.2c0.1,0,0.1,0,0.1,0
			c0.1,0,0.1,0,0.1,0.1c0.1,0.1,0.2,0.3,0.3,0.4c0.1,0.2,0.1,0.3,0.1,0.5C22.3,1.3,22.3,1.6,22.3,2L22.3,2L22.3,2z"/>
		<path clip-path="url(#SVGID_18_)" fill="#A82526" d="M21.5,3.5l-0.7-1.8l0.2,0c-0.1,0.6-0.2,1.2-0.4,1.8l0,0
			c0-0.6,0.1-1.2,0.2-1.8l0.1-0.3l0.1,0.3L21.5,3.5L21.5,3.5z"/>
		<path clip-path="url(#SVGID_18_)" fill="#A82526" d="M21.2,10.5l0.7,1.8l-0.2,0c0.1-0.6,0.2-1.2,0.4-1.8l0,0
			c0,0.6-0.1,1.2-0.2,1.8l-0.1,0.3l-0.1-0.3L21.2,10.5L21.2,10.5z"/>
		<path clip-path="url(#SVGID_18_)" fill="#A82526" d="M22.5,3.9L22.2,2l0.2,0c-0.2,0.5-0.5,1-0.9,1.5l0,0c0.2-0.5,0.4-1.1,0.7-1.5
			l0.2-0.2l0,0.3L22.5,3.9L22.5,3.9z"/>
		<path clip-path="url(#SVGID_18_)" fill="#A82526" d="M20.3,10.1l0.2,1.9l-0.2,0c0.2-0.5,0.5-1,0.9-1.5l0,0
			c-0.2,0.5-0.4,1.1-0.7,1.5l-0.2,0.2l0-0.3L20.3,10.1L20.3,10.1z"/>
	</g>
</g>
<path fill="#9A1C1F" d="M24.4,6.3c0.5,2.2-0.4,4.3-2.1,4.7c-1.7,0.4-3.5-1-4-3.2s0.4-4.3,2.1-4.7C22.1,2.7,23.9,4.1,24.4,6.3"/>
<ellipse transform="matrix(0.973 -0.2309 0.2309 0.973 -1.0394 5.1264)" fill="none" stroke="#68111E" stroke-width="0.25" stroke-miterlimit="10" cx="21.4" cy="7" rx="3.1" ry="4.1"/>
<g>
	<g>
		<defs>
			<rect id="SVGID_19_" x="18.6" y="4.2" width="4.5" height="5.7"/>
		</defs>
		<clipPath id="SVGID_20_">
			<use xlink:href="#SVGID_19_"  overflow="visible"/>
		</clipPath>
		<path clip-path="url(#SVGID_20_)" fill="#9A1C1F" d="M23,6.5c0.4,1.5-0.3,3-1.5,3.3c-1.2,0.3-2.5-0.7-2.8-2.3
			c-0.4-1.5,0.3-3,1.5-3.3S22.7,5,23,6.5"/>
	</g>
</g>
<path fill="#597F5C" d="M15.1,36.4c-0.2-2.3-1.2-7.9-2.8-13c-2-6.6-4.3-10.3-6.8-11l-0.3,1c4.9,1.5,8.4,18.2,8.8,23.1L15.1,36.4z"/>
<path fill="#FBB03B" d="M4.8,13c-0.4,3.2-0.3,5.8,0.2,5.9s1.2-2.5,1.6-5.7C7,10.1,6.9,7.4,6.4,7.4C5.9,7.3,5.2,9.9,4.8,13"/>
<path fill="#FBB03B" d="M4.9,12.7c-1.2,2.9-1.8,5.5-1.4,5.7c0.4,0.3,1.8-1.9,3-4.7c1.2-2.9,1.8-5.5,1.4-5.7
	C7.5,7.6,6.2,9.8,4.9,12.7"/>
<path fill="#FBB03B" d="M5.1,12.3c-1.9,2.2-3.1,4.4-2.8,4.9c0.3,0.4,2.1-1,4-3.3c1.9-2.2,3.1-4.4,2.8-4.9C8.8,8.6,7,10.1,5.1,12.3"
	/>
<path fill="#FBB03B" d="M5.4,12.1c-2.3,1.3-4.1,2.9-3.9,3.5s2.2,0,4.5-1.4c2.3-1.3,4.1-2.9,3.9-3.5C9.8,10.2,7.7,10.8,5.4,12.1"/>
<path fill="#FBB03B" d="M5.7,12c-2.5,0.3-4.5,1-4.5,1.6c0,0.6,2,0.9,4.5,0.7c2.5-0.3,4.5-1,4.5-1.6S8.2,11.8,5.7,12"/>
<path fill="#FBB03B" d="M6,12c-2.4-0.8-4.4-1-4.6-0.4c-0.2,0.6,1.6,1.8,4,2.6c2.4,0.8,4.4,1,4.6,0.4C10.2,14.1,8.4,12.9,6,12"/>
<path fill="#FBB03B" d="M6.3,12.2c-1.9-1.9-3.8-2.9-4.1-2.4s1,2.4,2.9,4.3c1.9,1.9,3.8,2.9,4.1,2.4C9.5,16,8.2,14.1,6.3,12.2"/>
<path fill="#FBB03B" d="M6.5,12.5C5.2,9.9,3.8,8,3.4,8.4C3,8.7,3.7,11.2,5,13.8c1.3,2.6,2.7,4.5,3.1,4.1C8.5,17.6,7.8,15.1,6.5,12.5
	"/>
<path fill="#FBB03B" d="M6.6,12.9C6.1,9.8,5.3,7.4,4.9,7.5c-0.5,0.2-0.5,2.8,0,5.9s1.3,5.5,1.7,5.3C7.1,18.6,7.1,16,6.6,12.9"/>
<g>
	<g>
		<defs>
			<rect id="SVGID_21_" x="1.1" y="7.3" width="9.1" height="11.6"/>
		</defs>
		<clipPath id="SVGID_22_">
			<use xlink:href="#SVGID_21_"  overflow="visible"/>
		</clipPath>
		<path clip-path="url(#SVGID_22_)" fill="#FBB03B" d="M5.7,8.8C5.7,8.5,5.8,8.2,5.9,8C6,7.9,6,7.7,6.1,7.6c0.1-0.1,0.1-0.3,0.3-0.3
			c0.2,0,0.2,0.2,0.3,0.3c0,0.1,0.1,0.3,0.1,0.4c0.1,0.3,0.1,0.5,0.1,0.8l0,0l0,0c-0.2,0.4-0.5,0.9-0.7,1.3l-0.1,0.2l0-0.2
			C5.9,9.8,5.8,9.3,5.7,8.8L5.7,8.8L5.7,8.8z M5.7,8.8C5.9,9.2,6,9.7,6.2,10.2l-0.2,0c0.2-0.4,0.5-0.9,0.8-1.3l0,0
			c0-0.3,0-0.5-0.1-0.8c0-0.1,0-0.3-0.1-0.4c0-0.1,0-0.1-0.1-0.2c0,0-0.1-0.1-0.1-0.1c-0.1,0-0.2,0.1-0.3,0.2C6.1,7.8,6,7.9,6,8
			C5.8,8.3,5.8,8.5,5.7,8.8"/>
		<path clip-path="url(#SVGID_22_)" fill="#FBB03B" d="M5.8,17.5c-0.1,0.3-0.2,0.5-0.3,0.8c-0.1,0.1-0.1,0.3-0.2,0.4
			C5.3,18.8,5.2,19,5,19c-0.1,0-0.1-0.1-0.2-0.1c0-0.1-0.1-0.1-0.1-0.2c0-0.1-0.1-0.3-0.1-0.4c-0.1-0.3-0.1-0.6-0.1-0.8l0,0l0,0
			C4.8,16.9,5,16.5,5.3,16l0.1-0.2l0,0.2C5.6,16.5,5.7,17,5.8,17.5L5.8,17.5L5.8,17.5z M5.8,17.5c-0.2-0.5-0.3-0.9-0.5-1.4l0.2,0
			c-0.2,0.4-0.5,0.9-0.8,1.3l0,0c0,0.3,0,0.5,0.1,0.8c0,0.1,0,0.3,0.1,0.4c0.1,0.1,0.1,0.2,0.2,0.3c0,0,0.1,0,0.1-0.1
			c0,0,0.1-0.1,0.1-0.2c0.1-0.1,0.1-0.2,0.2-0.4C5.6,18,5.7,17.8,5.8,17.5"/>
		<path clip-path="url(#SVGID_22_)" fill="#FBB03B" d="M4.6,17.4c-0.1,0.2-0.3,0.5-0.5,0.7c-0.1,0.1-0.2,0.2-0.3,0.3
			c-0.1,0-0.1,0.1-0.2,0.1c-0.1,0-0.2,0-0.2-0.1c-0.1-0.1-0.1-0.3-0.1-0.4c0-0.1,0-0.3,0-0.4c0-0.3,0.1-0.5,0.1-0.8l0,0l0,0
			c0.3-0.3,0.7-0.6,1-0.9l0.2-0.1l0,0.2C4.7,16.3,4.7,16.9,4.6,17.4L4.6,17.4L4.6,17.4z M4.6,17.4c-0.1-0.5-0.1-1-0.1-1.6l0.1,0.1
			c-0.3,0.3-0.7,0.6-1.1,0.9l0,0c-0.1,0.3-0.1,0.5-0.2,0.8c0,0.1,0,0.3,0,0.4c0,0.1,0,0.3,0.1,0.4c0,0.1,0.1,0.1,0.1,0.1
			c0.1,0,0.1,0,0.2-0.1C3.9,18.2,4,18.1,4.1,18C4.3,17.8,4.5,17.6,4.6,17.4"/>
		<path clip-path="url(#SVGID_22_)" fill="#FBB03B" d="M6.8,8.9C7,8.7,7.1,8.5,7.3,8.2C7.4,8.1,7.5,8,7.6,8c0.1,0,0.1-0.1,0.2-0.1
			c0.1,0,0.2,0,0.2,0.1c0.1,0.1,0.1,0.3,0.1,0.4c0,0.1,0,0.3,0,0.4c0,0.3-0.1,0.5-0.1,0.8l0,0l0,0c-0.3,0.3-0.7,0.6-1,0.9l-0.2,0.1
			l0-0.2C6.8,10,6.8,9.4,6.8,8.9L6.8,8.9L6.8,8.9z M6.8,8.9c0.1,0.5,0.1,1,0.1,1.6l-0.1-0.1c0.3-0.3,0.7-0.6,1.1-0.9l0,0
			C7.9,9.3,7.9,9,8,8.8c0-0.1,0-0.3,0-0.4C8,8.2,8,8.1,7.9,8c0-0.1-0.1-0.1-0.1-0.1C7.7,7.9,7.7,8,7.6,8C7.5,8.1,7.4,8.2,7.3,8.3
			C7.2,8.5,7,8.7,6.8,8.9"/>
		<path clip-path="url(#SVGID_22_)" fill="#FBB03B" d="M6.1,10.2l0.7-1.3l0.1-0.2l0,0.2c0,0.5,0,1.1-0.1,1.6h0
			c-0.1-0.5-0.1-1-0.1-1.6l0.1,0L6.1,10.2L6.1,10.2z"/>
		<path clip-path="url(#SVGID_22_)" fill="#FBB03B" d="M5.4,16.1l-0.7,1.3l-0.1,0.2l0-0.2c0-0.5,0-1.1,0.1-1.6h0
			c0.1,0.5,0.1,1,0.1,1.6l-0.1,0L5.4,16.1L5.4,16.1z"/>
		<path clip-path="url(#SVGID_22_)" fill="#FBB03B" d="M7.9,9.6c0.2-0.2,0.4-0.3,0.6-0.5C8.6,9.1,8.7,9,8.9,9C9,8.9,9.2,9,9.2,9.2
			c0,0.3-0.1,0.5-0.2,0.8c-0.1,0.2-0.2,0.5-0.3,0.7l0,0l0,0c-0.4,0.2-0.8,0.3-1.2,0.4l-0.2,0.1l0.1-0.2C7.5,10.6,7.7,10.1,7.9,9.6
			L7.9,9.6L7.9,9.6z M7.9,9.6c-0.1,0.5-0.2,1-0.3,1.5L7.4,11c0.4-0.1,0.8-0.3,1.2-0.4l0,0c0.1-0.2,0.3-0.5,0.4-0.7
			C9,9.7,9.1,9.4,9.1,9.2c0-0.1,0-0.1-0.1-0.1C9,9,9,9,8.9,9c-0.1,0-0.2,0.1-0.4,0.1C8.3,9.3,8.1,9.4,7.9,9.6"/>
		<path clip-path="url(#SVGID_22_)" fill="#FBB03B" d="M3.6,16.7c-0.2,0.2-0.4,0.3-0.6,0.5c-0.1,0.1-0.2,0.1-0.4,0.1
			c-0.1,0.1-0.3-0.1-0.3-0.2c0-0.3,0.1-0.5,0.2-0.8c0.1-0.2,0.2-0.5,0.3-0.7l0,0l0,0c0.4-0.2,0.8-0.3,1.2-0.4l0.2-0.1l-0.1,0.2
			C3.9,15.7,3.8,16.2,3.6,16.7L3.6,16.7L3.6,16.7z M3.6,16.7c0.1-0.5,0.2-1,0.3-1.5L4,15.3c-0.4,0.1-0.8,0.3-1.2,0.4l0,0
			c-0.1,0.2-0.3,0.5-0.4,0.7c-0.1,0.2-0.2,0.5-0.2,0.7c0,0.1,0.1,0.2,0.2,0.2c0.1,0,0.2-0.1,0.4-0.1C3.1,17,3.4,16.9,3.6,16.7"/>
		<path clip-path="url(#SVGID_22_)" fill="#FBB03B" d="M4.6,15.8l-1,1l-0.2,0.1l0-0.2c0.1-0.5,0.3-1,0.5-1.5l0,0
			c-0.1,0.5-0.2,1-0.4,1.5l-0.1-0.1L4.6,15.8L4.6,15.8z"/>
		<path clip-path="url(#SVGID_22_)" fill="#FBB03B" d="M6.8,10.5l1-1L8,9.4l0,0.2c-0.1,0.5-0.3,1-0.5,1.5l0,0c0.1-0.5,0.2-1,0.4-1.5
			l0.1,0.1L6.8,10.5L6.8,10.5z"/>
		<path clip-path="url(#SVGID_22_)" fill="#FBB03B" d="M3.6,14.4l-0.8,1.3l0,0l0,0c-0.2,0.1-0.5,0.1-0.7,0.1c-0.1,0-0.3,0-0.4,0
			c-0.1,0-0.1-0.1-0.2-0.1c-0.1-0.1-0.1-0.2-0.1-0.2c0-0.2,0.1-0.3,0.1-0.4c0.1-0.1,0.1-0.2,0.2-0.3c0.2-0.2,0.3-0.4,0.5-0.5l0,0
			l0,0C2.8,14.2,3.2,14.3,3.6,14.4L3.6,14.4z M3.6,14.4c-0.4,0-0.8,0-1.2,0l0.1,0c-0.2,0.2-0.4,0.3-0.5,0.5C1.9,15,1.8,15,1.7,15.1
			c-0.1,0.1-0.1,0.2-0.1,0.3c0,0.1,0,0.1,0,0.1c0,0,0.1,0.1,0.1,0.1c0.1,0,0.2,0,0.3,0c0.2,0,0.5-0.1,0.7-0.1l0,0L3.6,14.4z"/>
		<path clip-path="url(#SVGID_22_)" fill="#FBB03B" d="M7.9,11.9l0.8-1.3l0,0l0,0c0.2-0.1,0.5-0.1,0.7-0.1c0.1,0,0.3,0,0.4,0
			c0.1,0,0.1,0.1,0.2,0.1c0.1,0.1,0.1,0.2,0.1,0.2c0,0.2-0.1,0.3-0.1,0.4c-0.1,0.1-0.1,0.2-0.2,0.3c-0.2,0.2-0.3,0.4-0.5,0.5l0,0
			l0,0C8.7,12.1,8.3,12,7.9,11.9L7.9,11.9z M7.9,11.9c0.4,0,0.8,0,1.2,0L9,12c0.2-0.2,0.4-0.3,0.5-0.5c0.1-0.1,0.2-0.2,0.2-0.3
			c0.1-0.1,0.1-0.2,0.1-0.3c0-0.1,0-0.1,0-0.1c0,0-0.1-0.1-0.1-0.1c-0.1,0-0.2,0-0.3,0c-0.2,0-0.5,0.1-0.7,0.1l0,0L7.9,11.9z"/>
		<path clip-path="url(#SVGID_22_)" fill="#FBB03B" d="M7.5,11.1l1.2-0.5l0.2-0.1l-0.1,0.2c-0.2,0.4-0.5,0.9-0.8,1.2l0,0
			C8,11.4,8.3,11,8.6,10.6l0.1,0.1L7.5,11.1L7.5,11.1z"/>
		<path clip-path="url(#SVGID_22_)" fill="#FBB03B" d="M4,15.2l-1.2,0.5l-0.2,0.1l0.1-0.2c0.2-0.4,0.5-0.9,0.8-1.2l0,0
			c-0.2,0.5-0.4,0.9-0.7,1.3l-0.1-0.1L4,15.2L4,15.2z"/>
		<path clip-path="url(#SVGID_22_)" fill="#FBB03B" d="M2.4,12.7l1.1,0.6l0,0l0,0l-1,0.9l0,0l0,0c-0.2,0-0.5-0.1-0.7-0.2
			c-0.1,0-0.2-0.1-0.3-0.2c-0.1,0-0.1-0.1-0.1-0.2c0,0-0.1-0.2,0-0.2c0-0.1,0.1-0.3,0.2-0.3c0.1-0.1,0.2-0.2,0.3-0.2
			C1.9,12.9,2.1,12.8,2.4,12.7L2.4,12.7z M2.4,12.8c-0.2,0.1-0.4,0.2-0.6,0.3c-0.1,0.1-0.2,0.1-0.3,0.2c-0.1,0.1-0.1,0.1-0.1,0.3
			c0,0.2,0.2,0.3,0.4,0.4c0.2,0.1,0.4,0.2,0.7,0.2l-0.1,0l1.1-0.9l0,0.1L2.4,12.8z"/>
		<path clip-path="url(#SVGID_22_)" fill="#FBB03B" d="M9.1,12c0.2,0,0.5,0.1,0.7,0.2c0.1,0,0.2,0.1,0.3,0.2c0.1,0,0.1,0.1,0.1,0.1
			c0,0,0.1,0.1,0,0.2c0,0.1-0.1,0.3-0.2,0.3c-0.1,0.1-0.2,0.2-0.3,0.2c-0.2,0.1-0.4,0.2-0.7,0.3l0,0l0,0L8,13v0l-0.1-0.1L8,12.8
			L9.1,12L9.1,12z M9.1,12.1l-1,0.9l0-0.1l1.1,0.7l-0.1,0c0.2-0.1,0.4-0.2,0.7-0.3c0.1-0.1,0.2-0.1,0.3-0.2c0.1-0.1,0.2-0.2,0.2-0.3
			c0-0.2-0.2-0.4-0.4-0.5C9.6,12.2,9.3,12.1,9.1,12.1"/>
		<path clip-path="url(#SVGID_22_)" fill="#FBB03B" d="M3.6,14.4l-1.2-0.1l-0.2,0l0.1-0.1c0.3-0.3,0.7-0.6,1.1-0.8l0,0
			c-0.3,0.4-0.6,0.7-1,0.9l0-0.1L3.6,14.4L3.6,14.4z"/>
		<path clip-path="url(#SVGID_22_)" fill="#FBB03B" d="M7.9,11.9L9.1,12l0.2,0l-0.1,0.1c-0.3,0.3-0.7,0.6-1.1,0.8l0,0
			c0.3-0.4,0.6-0.7,1-0.9l0,0.1L7.9,11.9L7.9,11.9z"/>
		<path clip-path="url(#SVGID_22_)" fill="#FBB03B" d="M9.1,13.6c0.2,0.1,0.4,0.3,0.6,0.4c0.1,0.1,0.2,0.2,0.2,0.3
			c0.1,0.1,0.1,0.2,0.1,0.4c0,0.1-0.1,0.3-0.2,0.3C9.7,15,9.6,15,9.5,15.1c-0.2,0-0.5,0-0.7,0l0,0l0,0c-0.3-0.4-0.6-0.7-0.8-1.1
			l-0.1-0.1l0.1,0C8.3,13.8,8.7,13.6,9.1,13.6L9.1,13.6L9.1,13.6z M9.1,13.6c-0.4,0.2-0.8,0.3-1.2,0.4l0-0.1
			c0.3,0.4,0.6,0.7,0.8,1.1l-0.1,0c0.2,0,0.5,0,0.7,0c0.1,0,0.2,0,0.3-0.1c0.1,0,0.1-0.1,0.1-0.1c0,0,0.1-0.1,0.1-0.1
			c0-0.2-0.2-0.4-0.3-0.6C9.5,13.9,9.3,13.7,9.1,13.6"/>
		<path clip-path="url(#SVGID_22_)" fill="#FBB03B" d="M2.3,12.7c-0.2-0.1-0.4-0.3-0.6-0.4c-0.1-0.1-0.2-0.2-0.2-0.3
			c-0.1-0.1-0.1-0.2-0.1-0.4c0-0.1,0.1-0.3,0.2-0.3c0.1-0.1,0.2-0.1,0.4-0.1c0.2,0,0.5,0,0.7,0l0,0l0,0c0.3,0.4,0.6,0.7,0.8,1.1
			l0.1,0.1l-0.1,0C3.2,12.6,2.8,12.7,2.3,12.7L2.3,12.7L2.3,12.7z M2.4,12.7c0.4-0.2,0.8-0.3,1.2-0.4l0,0.1
			c-0.3-0.4-0.6-0.7-0.8-1.1l0.1,0c-0.2,0-0.5,0-0.7,0c-0.1,0-0.2,0-0.3,0.1c-0.1,0-0.1,0.1-0.1,0.1c0,0-0.1,0.1-0.1,0.1
			c0,0.2,0.2,0.4,0.3,0.6C2,12.4,2.2,12.6,2.4,12.7"/>
		<path clip-path="url(#SVGID_22_)" fill="#FBB03B" d="M3.4,13.4l-1.1-0.6l-0.1-0.1l0.1-0.1c0.4-0.2,0.8-0.3,1.2-0.3l0,0
			c-0.4,0.2-0.8,0.3-1.2,0.4l0-0.1L3.4,13.4L3.4,13.4z"/>
		<path clip-path="url(#SVGID_22_)" fill="#FBB03B" d="M8,12.9l1.1,0.6l0.1,0.1l-0.1,0.1c-0.4,0.2-0.8,0.3-1.2,0.3l0,0
			c0.4-0.2,0.8-0.3,1.2-0.4l0,0.1L8,12.9L8,12.9z"/>
		<path clip-path="url(#SVGID_22_)" fill="#FBB03B" d="M2.7,11.3c-0.1-0.2-0.3-0.4-0.4-0.6c-0.1-0.2-0.2-0.5-0.2-0.7
			c0-0.1,0-0.2,0.1-0.2c0,0,0.1-0.1,0.2-0.1c0.1,0,0.3,0,0.4,0C3.1,9.7,3.3,9.9,3.5,10l0,0l0,0c0.2,0.5,0.3,0.9,0.5,1.4l0,0.1
			l-0.1,0C3.5,11.4,3.1,11.4,2.7,11.3L2.7,11.3L2.7,11.3z M2.7,11.3c0.4,0,0.8,0.1,1.2,0.1l-0.1,0.1c-0.2-0.5-0.3-1-0.5-1.4l0,0
			C3.2,10,3,9.9,2.8,9.8c-0.1,0-0.2-0.1-0.3-0.1c-0.1,0-0.1,0-0.1,0.1c-0.1,0-0.1,0.1-0.1,0.1c0,0.2,0.1,0.5,0.2,0.7
			C2.5,10.8,2.6,11,2.7,11.3"/>
		<path clip-path="url(#SVGID_22_)" fill="#FBB03B" d="M8.7,15c0.1,0.2,0.3,0.4,0.4,0.6c0.1,0.2,0.2,0.5,0.2,0.7
			c0,0.1,0,0.2-0.1,0.2c0,0-0.1,0.1-0.2,0.1c-0.1,0-0.3,0-0.4,0c-0.2-0.1-0.5-0.2-0.7-0.3l0,0l0,0c-0.2-0.5-0.3-0.9-0.5-1.4l0-0.1
			l0.1,0C7.9,14.9,8.3,14.9,8.7,15L8.7,15L8.7,15z M8.7,15c-0.4,0-0.8-0.1-1.2-0.1l0.1-0.1c0.2,0.5,0.3,1,0.5,1.4l0,0
			c0.2,0.1,0.4,0.2,0.7,0.3c0.1,0,0.2,0.1,0.3,0.1c0.1,0,0.1,0,0.1-0.1c0.1,0,0.1-0.1,0.1-0.1c0-0.2-0.1-0.5-0.2-0.7
			C9,15.5,8.8,15.3,8.7,15"/>
		<path clip-path="url(#SVGID_22_)" fill="#FBB03B" d="M7.9,13.9L8.8,15l0.1,0.1l-0.2,0c-0.4,0-0.8-0.1-1.2-0.2l0,0
			c0.4,0,0.8,0,1.2,0.1l-0.1,0.1L7.9,13.9L7.9,13.9z"/>
		<path clip-path="url(#SVGID_22_)" fill="#FBB03B" d="M3.6,12.4l-0.9-1.1l-0.1-0.1l0.2,0c0.4,0,0.8,0.1,1.2,0.2l0,0
			c-0.4,0-0.8,0-1.2-0.1l0.1-0.1L3.6,12.4L3.6,12.4z"/>
		<path clip-path="url(#SVGID_22_)" fill="#FBB03B" d="M3.5,10C3.4,9.8,3.3,9.5,3.3,9.3c0-0.3-0.1-0.5,0-0.8c0-0.1,0.1-0.1,0.1-0.2
			c0.1,0,0.2,0,0.2,0c0.1,0,0.2,0.1,0.3,0.2c0.2,0.2,0.4,0.4,0.5,0.6l0,0l0,0c0,0.5,0.1,1,0.1,1.6l0,0.2l-0.1-0.1
			C4.2,10.5,3.8,10.3,3.5,10L3.5,10L3.5,10z M3.5,10c0.4,0.2,0.7,0.4,1.1,0.6l-0.1,0.1c0-0.5,0-1,0-1.6l0,0C4.3,9,4.1,8.8,3.9,8.6
			C3.8,8.5,3.7,8.5,3.6,8.4c-0.1,0-0.1,0-0.1,0c-0.1,0-0.1,0.1-0.1,0.1C3.3,8.7,3.3,9,3.3,9.3C3.4,9.5,3.4,9.8,3.5,10"/>
		<path clip-path="url(#SVGID_22_)" fill="#FBB03B" d="M8,16.3C8,16.5,8.1,16.8,8.2,17c0,0.3,0.1,0.5,0,0.8C8.1,17.9,8.1,18,8,18
			c-0.1,0-0.2,0-0.2,0c-0.1,0-0.2-0.1-0.3-0.2c-0.2-0.2-0.4-0.4-0.5-0.6l0,0l0,0c0-0.5-0.1-1-0.1-1.6l0-0.2L7,15.5
			C7.3,15.8,7.6,16,8,16.3L8,16.3L8,16.3z M8,16.3c-0.4-0.2-0.7-0.4-1.1-0.6L7,15.6c0,0.5,0,1.1,0,1.6l0,0c0.2,0.2,0.3,0.4,0.5,0.6
			c0.1,0.1,0.2,0.2,0.3,0.2c0.1,0,0.1,0,0.1,0c0.1,0,0.1-0.1,0.1-0.1c0.1-0.2,0.1-0.5,0-0.8C8.1,16.8,8,16.5,8,16.3"/>
		<path clip-path="url(#SVGID_22_)" fill="#FBB03B" d="M3.9,11.5l-0.5-1.4L3.3,9.9L3.5,10c0.4,0.2,0.7,0.5,1,0.8l0,0
			c-0.4-0.2-0.8-0.4-1.1-0.6L3.6,10L3.9,11.5L3.9,11.5z"/>
		<path clip-path="url(#SVGID_22_)" fill="#FBB03B" d="M7.5,14.9L8,16.3l0.1,0.2l-0.2-0.1c-0.4-0.2-0.7-0.5-1-0.8l0,0
			c0.4,0.2,0.8,0.4,1.1,0.6l-0.1,0.1L7.5,14.9L7.5,14.9z"/>
		<path clip-path="url(#SVGID_22_)" fill="#FBB03B" d="M7,17.1c0,0.3,0,0.5,0,0.8c0,0.1,0,0.3-0.1,0.4c0,0.1-0.1,0.3-0.2,0.4
			c-0.1,0.1-0.2,0.1-0.2,0c-0.1,0-0.1-0.1-0.2-0.1c-0.1-0.1-0.2-0.2-0.2-0.4c-0.1-0.2-0.2-0.5-0.3-0.8l0,0l0,0
			c0.1-0.5,0.2-1,0.4-1.5l0-0.2L6.2,16C6.5,16.3,6.7,16.7,7,17.1L7,17.1L7,17.1z M6.9,17.1c-0.3-0.4-0.6-0.7-0.8-1.1l0.1,0
			c-0.1,0.5-0.2,1-0.4,1.5l0,0C5.9,17.8,6,18,6.2,18.2c0.1,0.1,0.1,0.2,0.2,0.3c0,0,0.1,0.1,0.1,0.1c0,0,0.1,0,0.1,0c0,0,0,0,0.1,0
			c0.1-0.1,0.1-0.2,0.2-0.3c0-0.1,0.1-0.3,0.1-0.4C6.9,17.7,6.9,17.4,6.9,17.1"/>
		<path clip-path="url(#SVGID_22_)" fill="#FBB03B" d="M4.5,9.2c0-0.3,0-0.5,0-0.8c0-0.1,0-0.3,0.1-0.4c0-0.1,0.1-0.3,0.2-0.4
			c0.1-0.1,0.2-0.1,0.2,0c0.1,0,0.1,0.1,0.2,0.1C5.3,7.8,5.3,7.9,5.4,8c0.1,0.2,0.2,0.5,0.3,0.8l0,0l0,0c-0.1,0.5-0.2,1-0.4,1.5
			l-0.1,0.2l-0.1-0.2C5,10,4.7,9.6,4.5,9.2L4.5,9.2L4.5,9.2z M4.5,9.2c0.3,0.4,0.6,0.7,0.8,1.1l-0.1,0c0.1-0.5,0.2-1,0.4-1.5l0,0
			C5.5,8.5,5.4,8.3,5.3,8.1C5.2,7.9,5.2,7.8,5.1,7.7c0,0-0.1-0.1-0.1-0.1c0,0-0.1,0-0.1,0c0,0,0,0-0.1,0C4.7,7.7,4.7,7.8,4.7,8
			c0,0.1-0.1,0.3-0.1,0.4C4.5,8.6,4.5,8.9,4.5,9.2"/>
		<path clip-path="url(#SVGID_22_)" fill="#FBB03B" d="M5.3,10.3l0.3-1.5l0-0.2l0.1,0.2c0.2,0.5,0.3,1,0.4,1.5l0,0
			C5.9,9.8,5.7,9.3,5.6,8.8l0.1,0L5.3,10.3L5.3,10.3z"/>
		<path clip-path="url(#SVGID_22_)" fill="#FBB03B" d="M6.2,16l-0.3,1.5l0,0.2l-0.1-0.2c-0.2-0.5-0.3-1-0.4-1.5l0,0
			c0.2,0.5,0.4,0.9,0.5,1.4l-0.1,0L6.2,16L6.2,16z"/>
		<path clip-path="url(#SVGID_22_)" fill="#FBB03B" d="M4.5,10.7L4.4,9.2l0-0.2l0.1,0.2c0.3,0.4,0.5,0.8,0.7,1.2l0,0
			C5,10,4.7,9.6,4.4,9.2l0.1,0L4.5,10.7L4.5,10.7z"/>
		<path clip-path="url(#SVGID_22_)" fill="#FBB03B" d="M6.9,15.6L7,17.1l0,0.2l-0.1-0.2c-0.3-0.4-0.5-0.8-0.7-1.2l0,0
			c0.3,0.3,0.6,0.7,0.8,1.1l-0.1,0L6.9,15.6L6.9,15.6z"/>
	</g>
</g>
<path fill="#E5952E" d="M3.2,12.8c-0.2,1.8,0.7,3.4,2.1,3.6c1.4,0.2,2.7-1.2,2.9-3c0.2-1.8-0.7-3.4-2.1-3.6C4.7,9.7,3.4,11,3.2,12.8
	"/>
<ellipse transform="matrix(-0.9927 -0.1207 0.1207 -0.9927 9.8278 26.898)" fill="none" stroke="#A77C39" stroke-width="0.204" stroke-miterlimit="10" cx="5.7" cy="13.2" rx="2.6" ry="3.3"/>
<g>
	<g>
		<defs>
			<rect id="SVGID_23_" x="4.3" y="10.8" width="3.6" height="4.7"/>
		</defs>
		<clipPath id="SVGID_24_">
			<use xlink:href="#SVGID_23_"  overflow="visible"/>
		</clipPath>
		<path clip-path="url(#SVGID_24_)" fill="#E5952E" d="M4.4,12.9c-0.2,1.3,0.5,2.4,1.5,2.5c1,0.1,1.9-0.8,2.1-2.1
			c0.2-1.3-0.5-2.4-1.5-2.5C5.4,10.7,4.5,11.6,4.4,12.9"/>
	</g>
</g>
</svg>
