<?xml version="1.0" encoding="utf-8"?>
<!-- Generator: Adobe Illustrator 15.0.2, SVG Export Plug-In . SVG Version: 6.00 Build 0)  -->
<!DOCTYPE svg PUBLIC "-//W3C//DTD SVG 1.1//EN" "http://www.w3.org/Graphics/SVG/1.1/DTD/svg11.dtd">
<svg version="1.1" id="Layer_1" xmlns="http://www.w3.org/2000/svg" xmlns:xlink="http://www.w3.org/1999/xlink" x="0px" y="0px"
	 width="65.1px" height="62.8px" viewBox="0 0 65.1 62.8" enable-background="new 0 0 65.1 62.8" xml:space="preserve">
<path fill="#208BB5" d="M8.3,61.3c0,0,0.2,1.5,1.3,1.5h0.8v-1.7L8.3,61.3z"/>
<path fill="#208BB5" d="M12.5,61.3c0,0-0.2,1.5-1.3,1.5h-0.8v-1.7L12.5,61.3z"/>
<g opacity="0.3">
	<g>
		<defs>
			<rect id="SVGID_1_" x="10.4" y="61.1" width="2.1" height="1.7"/>
		</defs>
		<clipPath id="SVGID_2_">
			<use xlink:href="#SVGID_1_"  overflow="visible"/>
		</clipPath>
		<path clip-path="url(#SVGID_2_)" fill="#231F20" d="M12.5,61.3c0,0-0.2,1.5-1.3,1.5h-0.8v-1.7L12.5,61.3z"/>
	</g>
</g>
<path fill="#208BB5" d="M51.8,61.3c0,0,0.2,1.5,1.3,1.5h0.8v-1.7L51.8,61.3z"/>
<path fill="#208BB5" d="M56,61.3c0,0-0.2,1.5-1.3,1.5h-0.8v-1.7L56,61.3z"/>
<g opacity="0.3">
	<g>
		<defs>
			<rect id="SVGID_3_" x="53.8" y="61.1" width="2.2" height="1.7"/>
		</defs>
		<clipPath id="SVGID_4_">
			<use xlink:href="#SVGID_3_"  overflow="visible"/>
		</clipPath>
		<path clip-path="url(#SVGID_4_)" fill="#231F20" d="M56,61.3c0,0-0.2,1.5-1.3,1.5h-0.8v-1.7L56,61.3z"/>
	</g>
</g>
<path fill="#208BB5" d="M1.1,19.3c0,0,1.1-13.2,1.7-15.3C2.9,3.8,2.9,3.6,3,3.4C2.7,3.7,2.5,4.1,2.3,4.6C1.7,6.7,0.6,19.8,0.6,19.8
	s-0.9,24.4-0.5,31h0.5C0.3,44.2,1.1,19.3,1.1,19.3"/>
<path fill="#208BB5" d="M64,19.3c0,0,0.9,25,0.5,31.4H65c0.3-6.6-0.5-31-0.5-31S63.4,6.7,62.8,4.6c-0.1-0.5-0.4-0.9-0.7-1.2
	c0.1,0.2,0.2,0.3,0.2,0.5C62.9,6.1,64,19.3,64,19.3"/>
<path fill="#FFFFFF" d="M64,19.3c0,0-1.1-13.2-1.7-15.3c-0.1-0.2-0.1-0.4-0.2-0.5c-0.8-1.7-3-2-3-2C50.2,0.1,32.6,0,32.6,0
	S14.9,0.1,6,1.5c0,0-2.2,0.3-3,2C2.9,3.6,2.9,3.8,2.8,4C2.2,6.1,1.1,19.3,1.1,19.3s-0.9,25-0.5,31.4h63.9C64.9,44.2,64,19.3,64,19.3
	"/>
<path fill="#DEDDDE" d="M3.1,19.3c0,0,1-13.2,1.6-15.3c0-0.2,0.1-0.4,0.2-0.5c0.8-1.7,2.8-2,2.8-2C16,0.1,32.6,0,32.6,0
	S14.9,0.1,6,1.5c0,0-2.2,0.3-3,2C2.9,3.6,2.9,3.8,2.8,4C2.2,6.1,1.1,19.3,1.1,19.3s-0.9,25-0.5,31.4h2C2.3,44.2,3.1,19.3,3.1,19.3"
	/>
<path fill="#DEDDDE" d="M64,19.3c0,0-1.1-13.2-1.7-15.3c-0.1-0.2-0.1-0.4-0.2-0.5c-0.8-1.7-3-2-3-2C50.2,0.1,32.6,0,32.6,0
	s16.5,0.1,24.8,1.5c0,0,2,0.3,2.8,2c0.1,0.2,0.1,0.3,0.2,0.5C61,6.1,62,19.3,62,19.3s0.8,25,0.5,31.4h2C64.9,44.2,64,19.3,64,19.3"
	/>
<path fill="#EDEDED" d="M62,19.3c0,0-1-13.2-1.6-15.3c0-0.2-0.1-0.4-0.2-0.5c-0.8-1.7-2.8-2-2.8-2C49.1,0.1,32.6,0,32.6,0
	s13.8,0.1,20.7,1.5c0,0,1.7,0.3,2.4,2c0.1,0.2,0.1,0.3,0.2,0.5c0.5,2.1,1.3,15.3,1.3,15.3s0.7,25,0.4,31.4h4.9
	C62.8,44.2,62,19.3,62,19.3"/>
<path fill="#EDEDED" d="M8,19.3C8,19.3,8.8,6.1,9.3,4c0-0.2,0.1-0.4,0.2-0.5c0.7-1.7,2.4-2,2.4-2C18.8,0.1,32.6,0,32.6,0
	S16,0.1,7.7,1.5c0,0-2,0.3-2.8,2C4.8,3.6,4.7,3.8,4.7,4C4.1,6.1,3.1,19.3,3.1,19.3s-0.8,25-0.5,31.4h4.9C7.3,44.2,8,19.3,8,19.3"/>
<path fill="#DEDDDE" d="M64.5,50.7H0.6H0.1c0,0.1,0,0.3,0,0.4c0.4,6-0.2,10.3,5.2,10.6C10.6,62,24.6,62,32.6,62
	c7.9,0,21.9,0,27.3-0.3c5.4-0.3,4.8-4.6,5.2-10.6c0-0.1,0-0.2,0-0.4H64.5z M62.5,51.2c-0.4,5.7,0.2,9.8-4.8,10.1
	c-5,0.2-17.8,0.3-25.2,0.3h0h0h0c-7.3,0-20.2,0-25.1-0.3C2.4,61,3,56.8,2.6,51.2c0-0.1,0-0.2,0-0.4h0.5h4.4h0.4h49.4h0.4H62h0.5
	C62.5,50.9,62.5,51,62.5,51.2"/>
<path fill="#EDEDED" d="M7.4,51.2c0-0.1,0-0.2,0-0.4H3.1H2.6c0,0.1,0,0.3,0,0.4C3,56.8,2.4,61,7.4,61.2c5,0.2,17.8,0.3,25.1,0.3
	c-6.1,0-16.9,0-21.1-0.3C7.3,61,7.7,56.8,7.4,51.2"/>
<path fill="#EDEDED" d="M57.7,50.8c0,0.1,0,0.3,0,0.4c-0.3,5.7,0.2,9.8-4,10.1c-4.2,0.2-15,0.3-21.1,0.3h0c7.3,0,20.2,0,25.2-0.3
	c5-0.2,4.4-4.4,4.8-10.1c0-0.1,0-0.2,0-0.4H62H57.7z"/>
<polygon fill="#EFF0EF" points="32.5,61.5 32.6,61.5 32.5,61.5 "/>
<path fill="#EFF0EF" d="M57.6,51.2c0-0.1,0-0.2,0-0.4h-0.4H7.8H7.4c0,0.1,0,0.3,0,0.4c0.3,5.7-0.2,9.8,4,10.1
	c4.2,0.2,14.9,0.3,21.1,0.3h0c6.1,0,16.9,0,21.1-0.3C57.8,61,57.4,56.8,57.6,51.2"/>
<path fill="#252A26" d="M59.4,45c0,0.8-0.7,1.5-1.5,1.5H7.3c-0.8,0-1.5-0.7-1.5-1.5L6.2,7.9c0-0.8,0.7-1.5,1.5-1.5h49.6
	c0.8,0,1.5,0.7,1.5,1.5L59.4,45z"/>
<g>
	<g>
		<defs>
			<rect id="SVGID_5_" x="6.6" y="6.4" width="52.5" height="40.1"/>
		</defs>
		<clipPath id="SVGID_6_">
			<use xlink:href="#SVGID_5_"  overflow="visible"/>
		</clipPath>
		<path clip-path="url(#SVGID_6_)" fill="#252A26" d="M58.6,7.9c0-0.8-0.7-1.5-1.5-1.5h-49c-0.8,0-1.5,0.7-1.5,1.5l0,0.6h48
			c0.8,0,1.5,0.7,1.5,1.5l0.5,36.4h1c0.8,0,1.5-0.7,1.5-1.5L58.6,7.9z"/>
	</g>
</g>
<path fill="#B1B5B0" d="M57.3,7.9L57.3,7.9L57.3,7.9L57.9,45H7.3l0.5-37v0v0H57.3 M57.3,6.4H7.8c-0.8,0-1.5,0.7-1.5,1.5L5.7,45
	c0,0.8,0.7,1.5,1.5,1.5h50.6c0.8,0,1.5-0.7,1.5-1.5L58.9,7.9C58.9,7.1,58.2,6.4,57.3,6.4"/>
<path fill="#E8E9E8" d="M7.3,45.2C7.1,45.2,7,45.1,7,45l0.5-37v0v0c0-0.1,0.1-0.2,0.1-0.2l-1-0.8c-0.2,0.3-0.4,0.6-0.4,1L5.7,45
	c0,0.8,0.7,1.5,1.5,1.5h50.6c0.4,0,0.7-0.1,1-0.4l-1.2-0.9H7.3z"/>
<path fill="#D8DAD8" d="M59.4,45L58.9,7.9c0-0.8-0.7-1.5-1.5-1.5H7.8c-0.5,0-0.9,0.2-1.1,0.5l1,0.8c0,0,0.1,0,0.1,0h49.6
	c0.1,0,0.3,0.1,0.3,0.3v0v0l0.5,37c0,0.1-0.1,0.3-0.3,0.3h-0.3l1.2,0.9C59.2,45.9,59.4,45.4,59.4,45"/>
<path fill="#DADBDA" d="M59.4,45c0,0.8-0.7,1.5-1.5,1.5H7.3c-0.8,0-1.5-0.7-1.5-1.5L6,27.4H5.7L5.5,45c0,1,0.8,1.8,1.8,1.8h50.6
	c1,0,1.8-0.8,1.8-1.8l-0.2-17.5h-0.3L59.4,45z"/>
<path fill="#828981" d="M57.3,6.1H7.8C6.8,6.1,6,6.9,6,7.9L5.7,27.4H6L6.2,7.9c0-0.8,0.7-1.5,1.5-1.5h49.6c0.8,0,1.5,0.7,1.5,1.5
	l0.3,19.5h0.3L59.1,7.9C59.1,6.9,58.3,6.1,57.3,6.1"/>
<g opacity="0.3">
	<g>
		<defs>
			<rect id="SVGID_7_" x="6.3" y="6.7" width="53.2" height="39.6"/>
		</defs>
		<clipPath id="SVGID_8_">
			<use xlink:href="#SVGID_7_"  overflow="visible"/>
		</clipPath>
		<path clip-path="url(#SVGID_8_)" fill="#252A26" d="M7.2,6.7c-0.2,0.3-0.4,0.6-0.4,1L6.3,44.7c0,0.2,0.1,0.5,0.2,0.7
			c0.2,0.4,0.6,0.8,1.1,0.8c0.1,0,0.2,0,0.3,0h50.6c0.4,0,0.8-0.2,1-0.4L7.2,6.7z"/>
	</g>
</g>
<path fill="#252A26" d="M32.3,3.3c0,0.1-0.1,0.2-0.2,0.2c-0.1,0-0.2-0.1-0.2-0.2V2.9c0-0.1,0.1-0.2,0.2-0.2c0.1,0,0.2,0.1,0.2,0.2
	V3.3z"/>
<g opacity="0.4">
	<g>
		<defs>
			<rect id="SVGID_9_" x="0.1" y="50.5" width="65" height="0.5"/>
		</defs>
		<clipPath id="SVGID_10_">
			<use xlink:href="#SVGID_9_"  overflow="visible"/>
		</clipPath>
		<path clip-path="url(#SVGID_10_)" fill="#B1B5B0" d="M0.1,50.7c0,0,4.1-0.1,10.1-0.1c3,0,6.6,0,10.4-0.1c3.8,0,7.9,0,11.9,0
			c4.1,0,8.1,0,11.9,0c3.8,0,7.4,0.1,10.4,0.1C61,50.7,65,50.7,65,50.7s-4.1,0.1-10.1,0.1c-3,0-6.6,0-10.4,0.1c-3.8,0-7.9,0-11.9,0
			c-4.1,0-8.1,0-11.9,0c-3.8,0-7.4-0.1-10.4-0.1C4.1,50.8,0.1,50.7,0.1,50.7"/>
	</g>
</g>
<path fill="#58A8C7" d="M4,55.9v0.5c0,1.8,1.5,3.3,3.3,3.3h2.1c0.9,0,1.6-0.3,2.2-0.9l-6.5-5.4C4.4,54.1,4,54.9,4,55.9"/>
<g>
	<g>
		<defs>
			<rect id="SVGID_11_" x="5.1" y="52.6" width="7.6" height="6.2"/>
		</defs>
		<clipPath id="SVGID_12_">
			<use xlink:href="#SVGID_11_"  overflow="visible"/>
		</clipPath>
		<path clip-path="url(#SVGID_12_)" fill="#208BB5" d="M9.4,52.6H7.3c-0.9,0-1.6,0.3-2.2,0.9l6.5,5.4c0.6-0.6,1.1-1.5,1.1-2.4v-0.5
			C12.7,54.1,11.2,52.6,9.4,52.6"/>
	</g>
</g>
<path fill="#208BB5" d="M9.5,53.6c1.3,0,2.3,1,2.3,2.3v0.6c0,1.3-1,2.3-2.3,2.3H7.2c-1.3,0-2.3-1-2.3-2.3v-0.6c0-1.3,1-2.3,2.3-2.3
	H9.5 M9.5,52.3H7.2c-2,0-3.6,1.6-3.6,3.6v0.6c0,2,1.6,3.6,3.6,3.6h2.3c2,0,3.6-1.6,3.6-3.6v-0.6C13,53.9,11.4,52.3,9.5,52.3"/>
<path fill="#208BB5" d="M10,56.1c0,0.9-0.7,1.7-1.7,1.7c-0.9,0-1.7-0.7-1.7-1.7c0-0.9,0.7-1.7,1.7-1.7C9.3,54.5,10,55.2,10,56.1"/>
<g opacity="0.4">
	<g>
		<defs>
			<rect id="SVGID_13_" x="8.5" y="55.1" width="0.8" height="0.8"/>
		</defs>
		<clipPath id="SVGID_14_">
			<use xlink:href="#SVGID_13_"  overflow="visible"/>
		</clipPath>
		<path clip-path="url(#SVGID_14_)" fill="#208BB5" d="M9.4,55.5C9.4,55.8,9.2,56,9,56c-0.2,0-0.4-0.2-0.4-0.4
			c0-0.2,0.2-0.4,0.4-0.4C9.2,55.1,9.4,55.3,9.4,55.5"/>
	</g>
</g>
<g>
	<g>
		<defs>
			<rect id="SVGID_15_" x="6.7" y="54.8" width="3" height="3"/>
		</defs>
		<clipPath id="SVGID_16_">
			<use xlink:href="#SVGID_15_"  overflow="visible"/>
		</clipPath>
		<path clip-path="url(#SVGID_16_)" fill="#208BB5" d="M8.6,57.5c-0.9,0-1.7-0.7-1.7-1.7c0-0.4,0.1-0.7,0.3-1
			c-0.4,0.3-0.6,0.8-0.6,1.3c0,0.9,0.7,1.7,1.7,1.7c0.5,0,1-0.3,1.3-0.6C9.4,57.4,9,57.5,8.6,57.5"/>
	</g>
</g>
<path fill="#58A8C7" d="M52.3,55.9v0.5c0,1.8,1.5,3.3,3.3,3.3h2.1c0.9,0,1.6-0.3,2.2-0.9l-6.5-5.4C52.7,54.1,52.3,54.9,52.3,55.9"/>
<g>
	<g>
		<defs>
			<rect id="SVGID_17_" x="53.4" y="52.6" width="7.6" height="6.2"/>
		</defs>
		<clipPath id="SVGID_18_">
			<use xlink:href="#SVGID_17_"  overflow="visible"/>
		</clipPath>
		<path clip-path="url(#SVGID_18_)" fill="#208BB5" d="M57.7,52.6h-2.1c-0.9,0-1.6,0.3-2.2,0.9l6.5,5.4c0.6-0.6,1.1-1.5,1.1-2.4
			v-0.5C61,54.1,59.5,52.6,57.7,52.6"/>
	</g>
</g>
<path fill="#208BB5" d="M57.8,53.6c1.3,0,2.3,1,2.3,2.3v0.6c0,1.3-1,2.3-2.3,2.3h-2.3c-1.3,0-2.3-1-2.3-2.3v-0.6
	c0-1.3,1-2.3,2.3-2.3H57.8 M57.8,52.3h-2.3c-2,0-3.6,1.6-3.6,3.6v0.6c0,2,1.6,3.6,3.6,3.6h2.3c2,0,3.6-1.6,3.6-3.6v-0.6
	C61.3,53.9,59.8,52.3,57.8,52.3"/>
<path fill="#208BB5" d="M58.3,56.1c0,0.9-0.7,1.7-1.7,1.7c-0.9,0-1.7-0.7-1.7-1.7c0-0.9,0.7-1.7,1.7-1.7
	C57.6,54.5,58.3,55.2,58.3,56.1"/>
<g opacity="0.4">
	<g>
		<defs>
			<rect id="SVGID_19_" x="56.8" y="55.1" width="0.8" height="0.8"/>
		</defs>
		<clipPath id="SVGID_20_">
			<use xlink:href="#SVGID_19_"  overflow="visible"/>
		</clipPath>
		<path clip-path="url(#SVGID_20_)" fill="#208BB5" d="M57.7,55.5c0,0.2-0.2,0.4-0.4,0.4s-0.4-0.2-0.4-0.4c0-0.2,0.2-0.4,0.4-0.4
			S57.7,55.3,57.7,55.5"/>
	</g>
</g>
<g>
	<g>
		<defs>
			<rect id="SVGID_21_" x="55" y="54.8" width="3" height="3"/>
		</defs>
		<clipPath id="SVGID_22_">
			<use xlink:href="#SVGID_21_"  overflow="visible"/>
		</clipPath>
		<path clip-path="url(#SVGID_22_)" fill="#208BB5" d="M56.9,57.5c-0.9,0-1.7-0.7-1.7-1.7c0-0.4,0.1-0.7,0.3-1
			c-0.4,0.3-0.6,0.8-0.6,1.3c0,0.9,0.7,1.7,1.7,1.7c0.5,0,1-0.3,1.3-0.6C57.7,57.4,57.3,57.5,56.9,57.5"/>
	</g>
</g>
<path fill="#208BB5" d="M44,53.3c0.1,0,0.3,0.1,0.3,0.3s-0.1,0.3-0.3,0.3h-23c-0.1,0-0.3-0.1-0.3-0.3s0.1-0.3,0.3-0.3H44 M44,52.3
	h-23c-0.7,0-1.3,0.6-1.3,1.3c0,0.7,0.6,1.3,1.3,1.3h23c0.7,0,1.3-0.6,1.3-1.3C45.3,52.9,44.7,52.3,44,52.3"/>
<path fill="#C8C7C7" d="M19.1,56.1c0,0.5-0.4,1-1,1H15c-0.5,0-1-0.4-1-1s0.4-1,1-1h3.1C18.7,55.1,19.1,55.5,19.1,56.1"/>
<path d="M16,56.1c0,0.3-0.3,0.6-0.6,0.6s-0.6-0.3-0.6-0.6s0.3-0.6,0.6-0.6S16,55.8,16,56.1"/>
<circle fill="none" stroke="#7B7979" stroke-width="0.37" stroke-miterlimit="10" cx="15.4" cy="56.1" r="0.6"/>
<path d="M18.2,56.1c0,0.3-0.3,0.6-0.6,0.6s-0.6-0.3-0.6-0.6s0.3-0.6,0.6-0.6S18.2,55.8,18.2,56.1"/>
<circle fill="none" stroke="#7B7979" stroke-width="0.37" stroke-miterlimit="10" cx="17.6" cy="56.1" r="0.6"/>
<path fill="#F8F8F8" d="M49.7,56.4c0,0.6-0.5,1.1-1.1,1.1c-0.6,0-1.1-0.5-1.1-1.1c0-0.6,0.5-1.1,1.1-1.1
	C49.2,55.2,49.7,55.7,49.7,56.4"/>
<circle fill="none" stroke="#D1D0D0" stroke-width="0.254" stroke-miterlimit="10" cx="48.5" cy="56.4" r="1.1"/>
</svg>
