<?xml version="1.0" encoding="utf-8"?>
<!-- Generator: Adobe Illustrator 15.0.2, SVG Export Plug-In . SVG Version: 6.00 Build 0)  -->
<!DOCTYPE svg PUBLIC "-//W3C//DTD SVG 1.1//EN" "http://www.w3.org/Graphics/SVG/1.1/DTD/svg11.dtd">
<svg version="1.1" id="Layer_1" xmlns="http://www.w3.org/2000/svg" xmlns:xlink="http://www.w3.org/1999/xlink" x="0px" y="0px"
	 width="37.9px" height="67.5px" viewBox="0 0 37.9 67.5" enable-background="new 0 0 37.9 67.5" xml:space="preserve">
<path fill="#CAC9C9" d="M36.1,10.1c0-1.6,0.4-2.9,0.9-2.9c0.5,0,0.9,1.3,0.9,2.9v7.4c0,1.6-0.4,2.9-0.9,2.9c-0.5,0-0.9-1.3-0.9-2.9
	V10.1z"/>
<path fill="#E9E9E9" d="M36.1,11.3c0-1.1,0.4-2,0.9-2c0.5,0,0.9,0.9,0.9,2v5.1c0,1.1-0.4,2-0.9,2c-0.5,0-0.9-0.9-0.9-2V11.3z"/>
<path fill="#F8F8F8" d="M36.1,12.8c0-0.4,0.4-0.8,0.9-0.8c0.5,0,0.9,0.4,0.9,0.8v2.1c0,0.4-0.4,0.8-0.9,0.8c-0.5,0-0.9-0.4-0.9-0.8
	V12.8z"/>
<path fill="#CAC9C9" d="M1.8,17.1c0,0.5-0.4,0.9-0.9,0.9C0.4,18,0,17.6,0,17.1v-2.4c0-0.5,0.4-0.9,0.9-0.9c0.5,0,0.9,0.4,0.9,0.9
	V17.1z"/>
<path fill="#E9E9E9" d="M1.8,16.8c0,0.4-0.4,0.6-0.9,0.6c-0.5,0-0.9-0.3-0.9-0.6v-1.6c0-0.3,0.4-0.6,0.9-0.6c0.5,0,0.9,0.3,0.9,0.6
	V16.8z"/>
<path fill="#F8F8F8" d="M1.8,16.3c0,0.1-0.4,0.3-0.9,0.3c-0.5,0-0.9-0.1-0.9-0.3v-0.7c0-0.1,0.4-0.3,0.9-0.3c0.5,0,0.9,0.1,0.9,0.3
	V16.3z"/>
<path fill="#CAC9C9" d="M1.8,11.9c0,0.5-0.4,0.9-0.9,0.9c-0.5,0-0.9-0.4-0.9-0.9V9.6c0-0.5,0.4-0.9,0.9-0.9c0.5,0,0.9,0.4,0.9,0.9
	V11.9z"/>
<path fill="#E9E9E9" d="M1.8,11.6c0,0.3-0.4,0.6-0.9,0.6c-0.5,0-0.9-0.3-0.9-0.6V9.9c0-0.3,0.4-0.6,0.9-0.6c0.5,0,0.9,0.3,0.9,0.6
	V11.6z"/>
<path fill="#F8F8F8" d="M1.8,11.1c0,0.1-0.4,0.3-0.9,0.3c-0.5,0-0.9-0.1-0.9-0.3v-0.7c0-0.1,0.4-0.3,0.9-0.3c0.5,0,0.9,0.1,0.9,0.3
	V11.1z"/>
<path fill="#4F4C4D" d="M37.5,66.4c0,0.6-0.5,1.1-1.1,1.1H1.7c-0.6,0-1.1-0.5-1.1-1.1V1.1C0.6,0.5,1.1,0,1.7,0h34.8
	c0.6,0,1.1,0.5,1.1,1.1V66.4z"/>
<path fill="#D0EAF3" d="M35.2,57.5c0,0.6-0.5,1.1-1.1,1.1H3.9c-0.6,0-1.1-0.5-1.1-1.1V8.4c0-0.6,0.5-1.1,1.1-1.1h30.3
	c0.6,0,1.1,0.5,1.1,1.1V57.5z"/>
<path fill="#CAC9C9" d="M22.2,4.9c0,0.3-0.2,0.5-0.5,0.5h-5.4c-0.3,0-0.5-0.2-0.5-0.5s0.2-0.5,0.5-0.5h5.4C22,4.4,22.2,4.6,22.2,4.9
	"/>
<path fill="#231F20" d="M22.2,4.7c0,0.3-0.2,0.5-0.5,0.5h-5.4c-0.3,0-0.5-0.2-0.5-0.5s0.2-0.5,0.5-0.5h5.4C22,4.2,22.2,4.5,22.2,4.7
	"/>
<path fill="#231F20" d="M20,2.5c0,0.5-0.4,1-1,1c-0.5,0-1-0.4-1-1c0-0.5,0.4-1,1-1C19.5,1.5,20,2,20,2.5"/>
<path fill="#1498C3" d="M19.5,2.5C19.5,2.8,19.3,3,19,3c-0.3,0-0.5-0.2-0.5-0.5S18.8,2,19,2C19.3,2,19.5,2.2,19.5,2.5"/>
<path fill="#B9E0ED" d="M19.1,2.3c0,0.1-0.1,0.2-0.2,0.2s-0.2-0.1-0.2-0.2S18.7,2,18.9,2S19.1,2.1,19.1,2.3"/>
<g>
	<g>
		<defs>
			<rect id="SVGID_1_" x="15.8" y="59.8" width="6.4" height="6.4"/>
		</defs>
		<clipPath id="SVGID_2_">
			<use xlink:href="#SVGID_1_"  overflow="visible"/>
		</clipPath>
		<path clip-path="url(#SVGID_2_)" fill="#231F20" d="M22.3,63c0,1.8-1.4,3.2-3.2,3.2s-3.2-1.4-3.2-3.2s1.4-3.2,3.2-3.2
			S22.3,61.2,22.3,63"/>
	</g>
</g>
<path fill="#231F20" d="M22.3,62.8c0,1.8-1.4,3.2-3.2,3.2s-3.2-1.4-3.2-3.2s1.4-3.2,3.2-3.2S22.3,61,22.3,62.8"/>
<g>
	<g>
		<defs>
			<rect id="SVGID_3_" x="15.9" y="59.6" width="6.3" height="5.5"/>
		</defs>
		<clipPath id="SVGID_4_">
			<use xlink:href="#SVGID_3_"  overflow="visible"/>
		</clipPath>
		<path clip-path="url(#SVGID_4_)" fill="#231F20" d="M16.7,64.2c0-1.8,1.4-3.2,3.2-3.2c0.9,0,1.7,0.3,2.2,0.9
			c-0.4-1.3-1.6-2.3-3.1-2.3c-1.8,0-3.2,1.4-3.2,3.2c0,0.9,0.4,1.7,1,2.3C16.8,64.8,16.7,64.5,16.7,64.2"/>
	</g>
</g>
<circle fill="none" stroke="#FFFFFF" stroke-width="0.397" stroke-miterlimit="10" cx="19.1" cy="62.8" r="1.5"/>
<path fill="#C4C5C4" d="M31.7,53.8c-0.8-0.9-2.4-1.7-3.6-1.7h-6.9H19h-2.2H9.9c-1.2,0-2.8,0.8-3.6,1.7l-1.6,1.9
	c-0.8,0.9-0.4,1.7,0.8,1.7h11.3H19h2.2h11.3c1.2,0,1.6-0.8,0.8-1.7L31.7,53.8z"/>
<path fill="#7EA885" d="M11,55.1c0,0.6-0.5,1.1-1.1,1.1H5.8c-0.6,0-1.1-0.5-1.1-1.1V51c0-0.6,0.5-1.1,1.1-1.1h4.1
	c0.6,0,1.1,0.5,1.1,1.1V55.1z"/>
<path fill="#7EA885" d="M18.5,55.1c0,0.6-0.5,1.1-1.1,1.1h-4.1c-0.6,0-1.1-0.5-1.1-1.1V51c0-0.6,0.5-1.1,1.1-1.1h4.1
	c0.6,0,1.1,0.5,1.1,1.1V55.1z"/>
<path fill="#D6543B" d="M25.9,55.1c0,0.6-0.5,1.1-1.1,1.1h-4.1c-0.6,0-1.1-0.5-1.1-1.1V51c0-0.6,0.5-1.1,1.1-1.1h4.1
	c0.6,0,1.1,0.5,1.1,1.1V55.1z"/>
<path fill="#1498C3" d="M33.4,55.1c0,0.6-0.5,1.1-1.1,1.1h-4.1c-0.6,0-1.1-0.5-1.1-1.1V51c0-0.6,0.5-1.1,1.1-1.1h4.1
	c0.6,0,1.1,0.5,1.1,1.1V55.1z"/>
<path fill="#E5952E" d="M10.9,14.9c0,0.6-0.5,1.1-1.1,1.1H5.8c-0.6,0-1.1-0.5-1.1-1.1v-4.1c0-0.6,0.5-1.1,1.1-1.1h4.1
	c0.6,0,1.1,0.5,1.1,1.1V14.9z"/>
<path fill="#7EA885" d="M18.4,14.9c0,0.6-0.5,1.1-1.1,1.1h-4.1c-0.6,0-1.1-0.5-1.1-1.1v-4.1c0-0.6,0.5-1.1,1.1-1.1h4.1
	c0.6,0,1.1,0.5,1.1,1.1V14.9z"/>
<path fill="#252A26" d="M25.9,14.9c0,0.6-0.5,1.1-1.1,1.1h-4.1c-0.6,0-1.1-0.5-1.1-1.1v-4.1c0-0.6,0.5-1.1,1.1-1.1h4.1
	c0.6,0,1.1,0.5,1.1,1.1V14.9z"/>
<path fill="#1498C3" d="M33.3,14.9c0,0.6-0.5,1.1-1.1,1.1h-4.1c-0.6,0-1.1-0.5-1.1-1.1v-4.1c0-0.6,0.5-1.1,1.1-1.1h4.1
	c0.6,0,1.1,0.5,1.1,1.1V14.9z"/>
<path fill="#B14A5D" d="M10.9,22.7c0,0.6-0.5,1.1-1.1,1.1H5.8c-0.6,0-1.1-0.5-1.1-1.1v-4.1c0-0.6,0.5-1.1,1.1-1.1h4.1
	c0.6,0,1.1,0.5,1.1,1.1V22.7z"/>
<path fill="#EBD467" d="M18.4,22.7c0,0.6-0.5,1.1-1.1,1.1h-4.1c-0.6,0-1.1-0.5-1.1-1.1v-4.1c0-0.6,0.5-1.1,1.1-1.1h4.1
	c0.6,0,1.1,0.5,1.1,1.1V22.7z"/>
<path fill="#473F65" d="M11,30.4c0,0.6-0.5,1.1-1.1,1.1H5.8c-0.6,0-1.1-0.5-1.1-1.1v-4.1c0-0.6,0.5-1.1,1.1-1.1h4.1
	c0.6,0,1.1,0.5,1.1,1.1V30.4z"/>
<path fill="#208BB5" d="M18.5,30.4c0,0.6-0.5,1.1-1.1,1.1h-4.1c-0.6,0-1.1-0.5-1.1-1.1v-4.1c0-0.6,0.5-1.1,1.1-1.1h4.1
	c0.6,0,1.1,0.5,1.1,1.1V30.4z"/>
<path fill="#D6543B" d="M25.9,22.7c0,0.6-0.5,1.1-1.1,1.1h-4.1c-0.6,0-1.1-0.5-1.1-1.1v-4.1c0-0.6,0.5-1.1,1.1-1.1h4.1
	c0.6,0,1.1,0.5,1.1,1.1V22.7z"/>
<path fill="#1498C3" d="M33.3,22.7c0,0.6-0.5,1.1-1.1,1.1h-4.1c-0.6,0-1.1-0.5-1.1-1.1v-4.1c0-0.6,0.5-1.1,1.1-1.1h4.1
	c0.6,0,1.1,0.5,1.1,1.1V22.7z"/>
<g opacity="0.4">
	<g>
		<defs>
			<rect id="SVGID_5_" x="0.6" width="36.9" height="67.2"/>
		</defs>
		<clipPath id="SVGID_6_">
			<use xlink:href="#SVGID_5_"  overflow="visible"/>
		</clipPath>
		<path clip-path="url(#SVGID_6_)" fill="#4F4C4D" d="M36.5,0H1.7C1.1,0,0.6,0.5,0.6,1.1v65.4c0,0.3,0.2,0.6,0.4,0.8L37.5,0.8
			C37.4,0.4,37,0,36.5,0"/>
	</g>
</g>
</svg>
