<?xml version="1.0" encoding="utf-8"?>
<!-- Generator: Adobe Illustrator 15.0.2, SVG Export Plug-In . SVG Version: 6.00 Build 0)  -->
<!DOCTYPE svg PUBLIC "-//W3C//DTD SVG 1.1//EN" "http://www.w3.org/Graphics/SVG/1.1/DTD/svg11.dtd">
<svg version="1.1" id="Layer_1" xmlns="http://www.w3.org/2000/svg" xmlns:xlink="http://www.w3.org/1999/xlink" x="0px" y="0px"
	 width="69.2px" height="35.5px" viewBox="0 0 69.2 35.5" enable-background="new 0 0 69.2 35.5" xml:space="preserve">
<path fill="#E9E9E9" d="M69.2,34c0,0.8-0.7,1.5-1.5,1.5H1.5C0.7,35.5,0,34.9,0,34V1.5C0,0.7-0.1,0,0.8,0h67.7c0.8,0,0.8,0.7,0.8,1.5
	V34z"/>
<g opacity="0.5">
	<g>
		<defs>
			<rect id="SVGID_1_" y="0.5" width="69.2" height="1.2"/>
		</defs>
		<clipPath id="SVGID_2_">
			<use xlink:href="#SVGID_1_"  overflow="visible"/>
		</clipPath>
		<path clip-path="url(#SVGID_2_)" fill="#BDBCBC" d="M69.1,0.5H0.1C0,0.8,0,1.1,0,1.5v0.2h69.2V1.5C69.2,1.1,69.2,0.8,69.1,0.5"/>
	</g>
</g>
<g opacity="0.5">
	<g>
		<defs>
			<rect id="SVGID_3_" x="0.1" width="69.1" height="0.5"/>
		</defs>
		<clipPath id="SVGID_4_">
			<use xlink:href="#SVGID_3_"  overflow="visible"/>
		</clipPath>
		<path clip-path="url(#SVGID_4_)" fill="#918F90" d="M0.1,0.5h69.1C69.1,0.2,68.9,0,68.4,0H0.8C0.3,0,0.1,0.2,0.1,0.5"/>
	</g>
</g>
<rect x="0" y="1.7" fill="#F4F4F4" width="68.9" height="1.1"/>
<path fill="#F4F4F4" d="M5.7,10.7c0,0.1-0.1,0.3-0.3,0.3H1.8c-0.1,0-0.3-0.1-0.3-0.3v-2c0-0.1,0.1-0.3,0.3-0.3h3.6
	c0.1,0,0.3,0.1,0.3,0.3V10.7z"/>
<path fill="none" stroke="#676A67" stroke-width="0.118" stroke-miterlimit="10" d="M5.7,10.7c0,0.1-0.1,0.3-0.3,0.3H1.8
	c-0.1,0-0.3-0.1-0.3-0.3v-2c0-0.1,0.1-0.3,0.3-0.3h3.6c0.1,0,0.3,0.1,0.3,0.3V10.7z"/>
<path fill="#F4F4F4" d="M10.5,10.7c0,0.1-0.1,0.3-0.3,0.3H6.6c-0.1,0-0.3-0.1-0.3-0.3v-2c0-0.1,0.1-0.3,0.3-0.3h3.6
	c0.1,0,0.3,0.1,0.3,0.3V10.7z"/>
<path fill="none" stroke="#676A67" stroke-width="0.118" stroke-miterlimit="10" d="M10.5,10.7c0,0.1-0.1,0.3-0.3,0.3H6.6
	c-0.1,0-0.3-0.1-0.3-0.3v-2c0-0.1,0.1-0.3,0.3-0.3h3.6c0.1,0,0.3,0.1,0.3,0.3V10.7z"/>
<path fill="#F4F4F4" d="M15.2,10.7c0,0.1-0.1,0.3-0.3,0.3h-3.6c-0.1,0-0.3-0.1-0.3-0.3v-2c0-0.1,0.1-0.3,0.3-0.3H15
	c0.1,0,0.3,0.1,0.3,0.3V10.7z"/>
<path fill="none" stroke="#676A67" stroke-width="0.118" stroke-miterlimit="10" d="M15.2,10.7c0,0.1-0.1,0.3-0.3,0.3h-3.6
	c-0.1,0-0.3-0.1-0.3-0.3v-2c0-0.1,0.1-0.3,0.3-0.3H15c0.1,0,0.3,0.1,0.3,0.3V10.7z"/>
<path fill="#F4F4F4" d="M20,10.7c0,0.1-0.1,0.3-0.3,0.3h-3.6c-0.1,0-0.3-0.1-0.3-0.3v-2c0-0.1,0.1-0.3,0.3-0.3h3.6
	c0.1,0,0.3,0.1,0.3,0.3V10.7z"/>
<path fill="none" stroke="#676A67" stroke-width="0.118" stroke-miterlimit="10" d="M20,10.7c0,0.1-0.1,0.3-0.3,0.3h-3.6
	c-0.1,0-0.3-0.1-0.3-0.3v-2c0-0.1,0.1-0.3,0.3-0.3h3.6c0.1,0,0.3,0.1,0.3,0.3V10.7z"/>
<path fill="#F4F4F4" d="M24.8,10.7c0,0.1-0.1,0.3-0.3,0.3h-3.6c-0.1,0-0.3-0.1-0.3-0.3v-2c0-0.1,0.1-0.3,0.3-0.3h3.6
	c0.1,0,0.3,0.1,0.3,0.3V10.7z"/>
<path fill="none" stroke="#676A67" stroke-width="0.118" stroke-miterlimit="10" d="M24.8,10.7c0,0.1-0.1,0.3-0.3,0.3h-3.6
	c-0.1,0-0.3-0.1-0.3-0.3v-2c0-0.1,0.1-0.3,0.3-0.3h3.6c0.1,0,0.3,0.1,0.3,0.3V10.7z"/>
<path fill="#F4F4F4" d="M29.6,10.7c0,0.1-0.1,0.3-0.3,0.3h-3.6c-0.1,0-0.3-0.1-0.3-0.3v-2c0-0.1,0.1-0.3,0.3-0.3h3.6
	c0.1,0,0.3,0.1,0.3,0.3V10.7z"/>
<path fill="none" stroke="#676A67" stroke-width="0.118" stroke-miterlimit="10" d="M29.6,10.7c0,0.1-0.1,0.3-0.3,0.3h-3.6
	c-0.1,0-0.3-0.1-0.3-0.3v-2c0-0.1,0.1-0.3,0.3-0.3h3.6c0.1,0,0.3,0.1,0.3,0.3V10.7z"/>
<path fill="#F4F4F4" d="M34.3,10.7c0,0.1-0.1,0.3-0.3,0.3h-3.6c-0.1,0-0.3-0.1-0.3-0.3v-2c0-0.1,0.1-0.3,0.3-0.3h3.6
	c0.1,0,0.3,0.1,0.3,0.3V10.7z"/>
<path fill="none" stroke="#676A67" stroke-width="0.118" stroke-miterlimit="10" d="M34.3,10.7c0,0.1-0.1,0.3-0.3,0.3h-3.6
	c-0.1,0-0.3-0.1-0.3-0.3v-2c0-0.1,0.1-0.3,0.3-0.3h3.6c0.1,0,0.3,0.1,0.3,0.3V10.7z"/>
<path fill="#F4F4F4" d="M39.1,10.7c0,0.1-0.1,0.3-0.3,0.3h-3.6c-0.1,0-0.2-0.1-0.2-0.3v-2c0-0.1,0.1-0.3,0.2-0.3h3.6
	c0.1,0,0.3,0.1,0.3,0.3V10.7z"/>
<path fill="none" stroke="#676A67" stroke-width="0.118" stroke-miterlimit="10" d="M39.1,10.7c0,0.1-0.1,0.3-0.3,0.3h-3.6
	c-0.1,0-0.2-0.1-0.2-0.3v-2c0-0.1,0.1-0.3,0.2-0.3h3.6c0.1,0,0.3,0.1,0.3,0.3V10.7z"/>
<path fill="#F4F4F4" d="M43.9,10.7c0,0.1-0.1,0.3-0.3,0.3H40c-0.1,0-0.3-0.1-0.3-0.3v-2c0-0.1,0.1-0.3,0.3-0.3h3.6
	c0.1,0,0.3,0.1,0.3,0.3V10.7z"/>
<path fill="none" stroke="#676A67" stroke-width="0.118" stroke-miterlimit="10" d="M43.9,10.7c0,0.1-0.1,0.3-0.3,0.3H40
	c-0.1,0-0.3-0.1-0.3-0.3v-2c0-0.1,0.1-0.3,0.3-0.3h3.6c0.1,0,0.3,0.1,0.3,0.3V10.7z"/>
<path fill="#F4F4F4" d="M48.6,10.7c0,0.1-0.1,0.3-0.3,0.3h-3.6c-0.1,0-0.3-0.1-0.3-0.3v-2c0-0.1,0.1-0.3,0.3-0.3h3.6
	c0.1,0,0.3,0.1,0.3,0.3V10.7z"/>
<path fill="none" stroke="#676A67" stroke-width="0.118" stroke-miterlimit="10" d="M48.6,10.7c0,0.1-0.1,0.3-0.3,0.3h-3.6
	c-0.1,0-0.3-0.1-0.3-0.3v-2c0-0.1,0.1-0.3,0.3-0.3h3.6c0.1,0,0.3,0.1,0.3,0.3V10.7z"/>
<path fill="#F4F4F4" d="M53.4,10.7c0,0.1-0.1,0.3-0.3,0.3h-3.6c-0.1,0-0.3-0.1-0.3-0.3v-2c0-0.1,0.1-0.3,0.3-0.3h3.6
	c0.1,0,0.3,0.1,0.3,0.3V10.7z"/>
<path fill="none" stroke="#676A67" stroke-width="0.118" stroke-miterlimit="10" d="M53.4,10.7c0,0.1-0.1,0.3-0.3,0.3h-3.6
	c-0.1,0-0.3-0.1-0.3-0.3v-2c0-0.1,0.1-0.3,0.3-0.3h3.6c0.1,0,0.3,0.1,0.3,0.3V10.7z"/>
<path fill="#F4F4F4" d="M58.2,10.7c0,0.1-0.1,0.3-0.3,0.3h-3.6c-0.1,0-0.3-0.1-0.3-0.3v-2c0-0.1,0.1-0.3,0.3-0.3h3.6
	c0.1,0,0.3,0.1,0.3,0.3V10.7z"/>
<path fill="none" stroke="#676A67" stroke-width="0.118" stroke-miterlimit="10" d="M58.2,10.7c0,0.1-0.1,0.3-0.3,0.3h-3.6
	c-0.1,0-0.3-0.1-0.3-0.3v-2c0-0.1,0.1-0.3,0.3-0.3h3.6c0.1,0,0.3,0.1,0.3,0.3V10.7z"/>
<path fill="#F4F4F4" d="M63,10.7c0,0.1-0.1,0.3-0.3,0.3h-3.6c-0.1,0-0.3-0.1-0.3-0.3v-2c0-0.1,0.1-0.3,0.3-0.3h3.6
	c0.1,0,0.3,0.1,0.3,0.3V10.7z"/>
<path fill="none" stroke="#676A67" stroke-width="0.118" stroke-miterlimit="10" d="M63,10.7c0,0.1-0.1,0.3-0.3,0.3h-3.6
	c-0.1,0-0.3-0.1-0.3-0.3v-2c0-0.1,0.1-0.3,0.3-0.3h3.6c0.1,0,0.3,0.1,0.3,0.3V10.7z"/>
<path fill="#F4F4F4" d="M67.7,10.7c0,0.1-0.1,0.3-0.3,0.3h-3.6c-0.1,0-0.3-0.1-0.3-0.3v-2c0-0.1,0.1-0.3,0.3-0.3h3.6
	c0.1,0,0.3,0.1,0.3,0.3V10.7z"/>
<path fill="none" stroke="#676A67" stroke-width="0.118" stroke-miterlimit="10" d="M67.7,10.7c0,0.1-0.1,0.3-0.3,0.3h-3.6
	c-0.1,0-0.3-0.1-0.3-0.3v-2c0-0.1,0.1-0.3,0.3-0.3h3.6c0.1,0,0.3,0.1,0.3,0.3V10.7z"/>
<path fill="#F4F4F4" d="M5.4,15.2c0,0.1-0.1,0.3-0.3,0.3H1.8c-0.1,0-0.3-0.1-0.3-0.3v-3.4c0-0.1,0.1-0.3,0.3-0.3h3.4
	c0.1,0,0.3,0.1,0.3,0.3V15.2z"/>
<path fill="none" stroke="#676A67" stroke-width="0.118" stroke-miterlimit="10" d="M5.4,15.2c0,0.1-0.1,0.3-0.3,0.3H1.8
	c-0.1,0-0.3-0.1-0.3-0.3v-3.4c0-0.1,0.1-0.3,0.3-0.3h3.4c0.1,0,0.3,0.1,0.3,0.3V15.2z"/>
<path fill="#F4F4F4" d="M12.3,19.7c0,0.1-0.1,0.3-0.3,0.3H8.7c-0.1,0-0.3-0.1-0.3-0.3v-3.4c0-0.1,0.1-0.3,0.3-0.3H12
	c0.1,0,0.3,0.1,0.3,0.3V19.7z"/>
<path fill="none" stroke="#676A67" stroke-width="0.118" stroke-miterlimit="10" d="M12.3,19.7c0,0.1-0.1,0.3-0.3,0.3H8.7
	c-0.1,0-0.3-0.1-0.3-0.3v-3.4c0-0.1,0.1-0.3,0.3-0.3H12c0.1,0,0.3,0.1,0.3,0.3V19.7z"/>
<path fill="#F4F4F4" d="M16.9,19.7c0,0.1-0.1,0.3-0.3,0.3h-3.4c-0.1,0-0.3-0.1-0.3-0.3v-3.4c0-0.1,0.1-0.3,0.3-0.3h3.4
	c0.1,0,0.3,0.1,0.3,0.3V19.7z"/>
<path fill="none" stroke="#676A67" stroke-width="0.118" stroke-miterlimit="10" d="M16.9,19.7c0,0.1-0.1,0.3-0.3,0.3h-3.4
	c-0.1,0-0.3-0.1-0.3-0.3v-3.4c0-0.1,0.1-0.3,0.3-0.3h3.4c0.1,0,0.3,0.1,0.3,0.3V19.7z"/>
<path fill="#F4F4F4" d="M21.5,19.7c0,0.1-0.1,0.3-0.3,0.3h-3.4c-0.1,0-0.3-0.1-0.3-0.3v-3.4c0-0.1,0.1-0.3,0.3-0.3h3.4
	c0.1,0,0.3,0.1,0.3,0.3V19.7z"/>
<path fill="none" stroke="#676A67" stroke-width="0.118" stroke-miterlimit="10" d="M21.5,19.7c0,0.1-0.1,0.3-0.3,0.3h-3.4
	c-0.1,0-0.3-0.1-0.3-0.3v-3.4c0-0.1,0.1-0.3,0.3-0.3h3.4c0.1,0,0.3,0.1,0.3,0.3V19.7z"/>
<path fill="#F4F4F4" d="M26.1,19.7c0,0.1-0.1,0.3-0.3,0.3h-3.4c-0.1,0-0.3-0.1-0.3-0.3v-3.4c0-0.1,0.1-0.3,0.3-0.3h3.4
	c0.1,0,0.3,0.1,0.3,0.3V19.7z"/>
<path fill="none" stroke="#676A67" stroke-width="0.118" stroke-miterlimit="10" d="M26.1,19.7c0,0.1-0.1,0.3-0.3,0.3h-3.4
	c-0.1,0-0.3-0.1-0.3-0.3v-3.4c0-0.1,0.1-0.3,0.3-0.3h3.4c0.1,0,0.3,0.1,0.3,0.3V19.7z"/>
<path fill="#F4F4F4" d="M30.8,19.7c0,0.1-0.1,0.3-0.3,0.3h-3.4c-0.1,0-0.2-0.1-0.2-0.3v-3.4c0-0.1,0.1-0.3,0.2-0.3h3.4
	c0.1,0,0.3,0.1,0.3,0.3V19.7z"/>
<path fill="none" stroke="#676A67" stroke-width="0.118" stroke-miterlimit="10" d="M30.8,19.7c0,0.1-0.1,0.3-0.3,0.3h-3.4
	c-0.1,0-0.2-0.1-0.2-0.3v-3.4c0-0.1,0.1-0.3,0.2-0.3h3.4c0.1,0,0.3,0.1,0.3,0.3V19.7z"/>
<path fill="#F4F4F4" d="M35.4,19.7c0,0.1-0.1,0.3-0.3,0.3h-3.4c-0.1,0-0.3-0.1-0.3-0.3v-3.4c0-0.1,0.1-0.3,0.3-0.3h3.4
	c0.1,0,0.3,0.1,0.3,0.3V19.7z"/>
<path fill="none" stroke="#676A67" stroke-width="0.118" stroke-miterlimit="10" d="M35.4,19.7c0,0.1-0.1,0.3-0.3,0.3h-3.4
	c-0.1,0-0.3-0.1-0.3-0.3v-3.4c0-0.1,0.1-0.3,0.3-0.3h3.4c0.1,0,0.3,0.1,0.3,0.3V19.7z"/>
<path fill="#F4F4F4" d="M40,19.7c0,0.1-0.1,0.3-0.3,0.3h-3.4c-0.1,0-0.3-0.1-0.3-0.3v-3.4c0-0.1,0.1-0.3,0.3-0.3h3.4
	c0.1,0,0.3,0.1,0.3,0.3V19.7z"/>
<path fill="none" stroke="#676A67" stroke-width="0.118" stroke-miterlimit="10" d="M40,19.7c0,0.1-0.1,0.3-0.3,0.3h-3.4
	c-0.1,0-0.3-0.1-0.3-0.3v-3.4c0-0.1,0.1-0.3,0.3-0.3h3.4c0.1,0,0.3,0.1,0.3,0.3V19.7z"/>
<path fill="#F4F4F4" d="M44.6,19.7c0,0.1-0.1,0.3-0.3,0.3H41c-0.1,0-0.3-0.1-0.3-0.3v-3.4c0-0.1,0.1-0.3,0.3-0.3h3.4
	c0.1,0,0.3,0.1,0.3,0.3V19.7z"/>
<path fill="none" stroke="#676A67" stroke-width="0.118" stroke-miterlimit="10" d="M44.6,19.7c0,0.1-0.1,0.3-0.3,0.3H41
	c-0.1,0-0.3-0.1-0.3-0.3v-3.4c0-0.1,0.1-0.3,0.3-0.3h3.4c0.1,0,0.3,0.1,0.3,0.3V19.7z"/>
<path fill="#F4F4F4" d="M49.2,19.7c0,0.1-0.1,0.3-0.3,0.3h-3.4c-0.1,0-0.3-0.1-0.3-0.3v-3.4c0-0.1,0.1-0.3,0.3-0.3H49
	c0.1,0,0.3,0.1,0.3,0.3V19.7z"/>
<path fill="none" stroke="#676A67" stroke-width="0.118" stroke-miterlimit="10" d="M49.2,19.7c0,0.1-0.1,0.3-0.3,0.3h-3.4
	c-0.1,0-0.3-0.1-0.3-0.3v-3.4c0-0.1,0.1-0.3,0.3-0.3H49c0.1,0,0.3,0.1,0.3,0.3V19.7z"/>
<path fill="#F4F4F4" d="M53.9,19.7c0,0.1-0.1,0.3-0.3,0.3h-3.4c-0.1,0-0.3-0.1-0.3-0.3v-3.4c0-0.1,0.1-0.3,0.3-0.3h3.4
	c0.1,0,0.3,0.1,0.3,0.3V19.7z"/>
<path fill="none" stroke="#676A67" stroke-width="0.118" stroke-miterlimit="10" d="M53.9,19.7c0,0.1-0.1,0.3-0.3,0.3h-3.4
	c-0.1,0-0.3-0.1-0.3-0.3v-3.4c0-0.1,0.1-0.3,0.3-0.3h3.4c0.1,0,0.3,0.1,0.3,0.3V19.7z"/>
<path fill="#F4F4F4" d="M58.5,19.7c0,0.1-0.1,0.3-0.3,0.3h-3.4c-0.1,0-0.3-0.1-0.3-0.3v-3.4c0-0.1,0.1-0.3,0.3-0.3h3.4
	c0.1,0,0.3,0.1,0.3,0.3V19.7z"/>
<path fill="none" stroke="#676A67" stroke-width="0.118" stroke-miterlimit="10" d="M58.5,19.7c0,0.1-0.1,0.3-0.3,0.3h-3.4
	c-0.1,0-0.3-0.1-0.3-0.3v-3.4c0-0.1,0.1-0.3,0.3-0.3h3.4c0.1,0,0.3,0.1,0.3,0.3V19.7z"/>
<path fill="#F4F4F4" d="M13.6,24.1c0,0.1-0.1,0.3-0.3,0.3H9.9c-0.1,0-0.3-0.1-0.3-0.3v-3.4c0-0.1,0.1-0.3,0.3-0.3h3.4
	c0.1,0,0.3,0.1,0.3,0.3V24.1z"/>
<path fill="none" stroke="#676A67" stroke-width="0.118" stroke-miterlimit="10" d="M13.6,24.1c0,0.1-0.1,0.3-0.3,0.3H9.9
	c-0.1,0-0.3-0.1-0.3-0.3v-3.4c0-0.1,0.1-0.3,0.3-0.3h3.4c0.1,0,0.3,0.1,0.3,0.3V24.1z"/>
<path fill="#F4F4F4" d="M18.2,24.1c0,0.1-0.1,0.3-0.3,0.3h-3.4c-0.1,0-0.3-0.1-0.3-0.3v-3.4c0-0.1,0.1-0.3,0.3-0.3h3.4
	c0.1,0,0.3,0.1,0.3,0.3V24.1z"/>
<path fill="none" stroke="#676A67" stroke-width="0.118" stroke-miterlimit="10" d="M18.2,24.1c0,0.1-0.1,0.3-0.3,0.3h-3.4
	c-0.1,0-0.3-0.1-0.3-0.3v-3.4c0-0.1,0.1-0.3,0.3-0.3h3.4c0.1,0,0.3,0.1,0.3,0.3V24.1z"/>
<path fill="#F4F4F4" d="M22.8,24.1c0,0.1-0.1,0.3-0.3,0.3h-3.4c-0.1,0-0.3-0.1-0.3-0.3v-3.4c0-0.1,0.1-0.3,0.3-0.3h3.4
	c0.1,0,0.3,0.1,0.3,0.3V24.1z"/>
<path fill="none" stroke="#676A67" stroke-width="0.118" stroke-miterlimit="10" d="M22.8,24.1c0,0.1-0.1,0.3-0.3,0.3h-3.4
	c-0.1,0-0.3-0.1-0.3-0.3v-3.4c0-0.1,0.1-0.3,0.3-0.3h3.4c0.1,0,0.3,0.1,0.3,0.3V24.1z"/>
<path fill="#F4F4F4" d="M27.4,24.1c0,0.1-0.1,0.3-0.3,0.3h-3.4c-0.1,0-0.3-0.1-0.3-0.3v-3.4c0-0.1,0.1-0.3,0.3-0.3h3.4
	c0.1,0,0.3,0.1,0.3,0.3V24.1z"/>
<path fill="none" stroke="#676A67" stroke-width="0.118" stroke-miterlimit="10" d="M27.4,24.1c0,0.1-0.1,0.3-0.3,0.3h-3.4
	c-0.1,0-0.3-0.1-0.3-0.3v-3.4c0-0.1,0.1-0.3,0.3-0.3h3.4c0.1,0,0.3,0.1,0.3,0.3V24.1z"/>
<path fill="#F4F4F4" d="M32,24.1c0,0.1-0.1,0.3-0.3,0.3h-3.4c-0.1,0-0.3-0.1-0.3-0.3v-3.4c0-0.1,0.1-0.3,0.3-0.3h3.4
	c0.1,0,0.3,0.1,0.3,0.3V24.1z"/>
<path fill="none" stroke="#676A67" stroke-width="0.118" stroke-miterlimit="10" d="M32,24.1c0,0.1-0.1,0.3-0.3,0.3h-3.4
	c-0.1,0-0.3-0.1-0.3-0.3v-3.4c0-0.1,0.1-0.3,0.3-0.3h3.4c0.1,0,0.3,0.1,0.3,0.3V24.1z"/>
<path fill="#F4F4F4" d="M36.7,24.1c0,0.1-0.1,0.3-0.3,0.3H33c-0.1,0-0.3-0.1-0.3-0.3v-3.4c0-0.1,0.1-0.3,0.3-0.3h3.4
	c0.1,0,0.3,0.1,0.3,0.3V24.1z"/>
<path fill="none" stroke="#676A67" stroke-width="0.118" stroke-miterlimit="10" d="M36.7,24.1c0,0.1-0.1,0.3-0.3,0.3H33
	c-0.1,0-0.3-0.1-0.3-0.3v-3.4c0-0.1,0.1-0.3,0.3-0.3h3.4c0.1,0,0.3,0.1,0.3,0.3V24.1z"/>
<path fill="#F4F4F4" d="M41.3,24.1c0,0.1-0.1,0.3-0.3,0.3h-3.4c-0.1,0-0.3-0.1-0.3-0.3v-3.4c0-0.1,0.1-0.3,0.3-0.3H41
	c0.1,0,0.3,0.1,0.3,0.3V24.1z"/>
<path fill="none" stroke="#676A67" stroke-width="0.118" stroke-miterlimit="10" d="M41.3,24.1c0,0.1-0.1,0.3-0.3,0.3h-3.4
	c-0.1,0-0.3-0.1-0.3-0.3v-3.4c0-0.1,0.1-0.3,0.3-0.3H41c0.1,0,0.3,0.1,0.3,0.3V24.1z"/>
<path fill="#F4F4F4" d="M45.9,24.1c0,0.1-0.1,0.3-0.3,0.3h-3.4c-0.1,0-0.3-0.1-0.3-0.3v-3.4c0-0.1,0.1-0.3,0.3-0.3h3.4
	c0.1,0,0.3,0.1,0.3,0.3V24.1z"/>
<path fill="none" stroke="#676A67" stroke-width="0.118" stroke-miterlimit="10" d="M45.9,24.1c0,0.1-0.1,0.3-0.3,0.3h-3.4
	c-0.1,0-0.3-0.1-0.3-0.3v-3.4c0-0.1,0.1-0.3,0.3-0.3h3.4c0.1,0,0.3,0.1,0.3,0.3V24.1z"/>
<path fill="#F4F4F4" d="M50.5,24.1c0,0.1-0.1,0.3-0.3,0.3h-3.4c-0.1,0-0.3-0.1-0.3-0.3v-3.4c0-0.1,0.1-0.3,0.3-0.3h3.4
	c0.1,0,0.3,0.1,0.3,0.3V24.1z"/>
<path fill="none" stroke="#676A67" stroke-width="0.118" stroke-miterlimit="10" d="M50.5,24.1c0,0.1-0.1,0.3-0.3,0.3h-3.4
	c-0.1,0-0.3-0.1-0.3-0.3v-3.4c0-0.1,0.1-0.3,0.3-0.3h3.4c0.1,0,0.3,0.1,0.3,0.3V24.1z"/>
<path fill="#F4F4F4" d="M55.1,24.1c0,0.1-0.1,0.3-0.3,0.3h-3.4c-0.1,0-0.3-0.1-0.3-0.3v-3.4c0-0.1,0.1-0.3,0.3-0.3h3.4
	c0.1,0,0.3,0.1,0.3,0.3V24.1z"/>
<path fill="none" stroke="#676A67" stroke-width="0.118" stroke-miterlimit="10" d="M55.1,24.1c0,0.1-0.1,0.3-0.3,0.3h-3.4
	c-0.1,0-0.3-0.1-0.3-0.3v-3.4c0-0.1,0.1-0.3,0.3-0.3h3.4c0.1,0,0.3,0.1,0.3,0.3V24.1z"/>
<path fill="#F4F4F4" d="M15.7,28.7c0,0.1-0.1,0.3-0.3,0.3h-3.4c-0.1,0-0.3-0.1-0.3-0.3v-3.4c0-0.1,0.1-0.3,0.3-0.3h3.4
	c0.1,0,0.3,0.1,0.3,0.3V28.7z"/>
<path fill="none" stroke="#676A67" stroke-width="0.118" stroke-miterlimit="10" d="M15.7,28.7c0,0.1-0.1,0.3-0.3,0.3h-3.4
	c-0.1,0-0.3-0.1-0.3-0.3v-3.4c0-0.1,0.1-0.3,0.3-0.3h3.4c0.1,0,0.3,0.1,0.3,0.3V28.7z"/>
<path fill="#F4F4F4" d="M20.3,28.7c0,0.1-0.1,0.3-0.3,0.3h-3.4c-0.1,0-0.3-0.1-0.3-0.3v-3.4c0-0.1,0.1-0.3,0.3-0.3h3.4
	c0.1,0,0.3,0.1,0.3,0.3V28.7z"/>
<path fill="none" stroke="#676A67" stroke-width="0.118" stroke-miterlimit="10" d="M20.3,28.7c0,0.1-0.1,0.3-0.3,0.3h-3.4
	c-0.1,0-0.3-0.1-0.3-0.3v-3.4c0-0.1,0.1-0.3,0.3-0.3h3.4c0.1,0,0.3,0.1,0.3,0.3V28.7z"/>
<path fill="#F4F4F4" d="M24.9,28.7c0,0.1-0.1,0.3-0.3,0.3h-3.4c-0.1,0-0.3-0.1-0.3-0.3v-3.4c0-0.1,0.1-0.3,0.3-0.3h3.4
	c0.1,0,0.3,0.1,0.3,0.3V28.7z"/>
<path fill="none" stroke="#676A67" stroke-width="0.118" stroke-miterlimit="10" d="M24.9,28.7c0,0.1-0.1,0.3-0.3,0.3h-3.4
	c-0.1,0-0.3-0.1-0.3-0.3v-3.4c0-0.1,0.1-0.3,0.3-0.3h3.4c0.1,0,0.3,0.1,0.3,0.3V28.7z"/>
<path fill="#F4F4F4" d="M29.6,28.7c0,0.1-0.1,0.3-0.3,0.3H26c-0.1,0-0.3-0.1-0.3-0.3v-3.4c0-0.1,0.1-0.3,0.3-0.3h3.4
	c0.1,0,0.3,0.1,0.3,0.3V28.7z"/>
<path fill="none" stroke="#676A67" stroke-width="0.118" stroke-miterlimit="10" d="M29.6,28.7c0,0.1-0.1,0.3-0.3,0.3H26
	c-0.1,0-0.3-0.1-0.3-0.3v-3.4c0-0.1,0.1-0.3,0.3-0.3h3.4c0.1,0,0.3,0.1,0.3,0.3V28.7z"/>
<path fill="#F4F4F4" d="M34.2,28.7c0,0.1-0.1,0.3-0.3,0.3h-3.4c-0.1,0-0.3-0.1-0.3-0.3v-3.4c0-0.1,0.1-0.3,0.3-0.3h3.4
	c0.1,0,0.3,0.1,0.3,0.3V28.7z"/>
<path fill="none" stroke="#676A67" stroke-width="0.118" stroke-miterlimit="10" d="M34.2,28.7c0,0.1-0.1,0.3-0.3,0.3h-3.4
	c-0.1,0-0.3-0.1-0.3-0.3v-3.4c0-0.1,0.1-0.3,0.3-0.3h3.4c0.1,0,0.3,0.1,0.3,0.3V28.7z"/>
<path fill="#F4F4F4" d="M38.8,28.7c0,0.1-0.1,0.3-0.3,0.3h-3.4c-0.1,0-0.3-0.1-0.3-0.3v-3.4c0-0.1,0.1-0.3,0.3-0.3h3.4
	c0.1,0,0.3,0.1,0.3,0.3V28.7z"/>
<path fill="none" stroke="#676A67" stroke-width="0.118" stroke-miterlimit="10" d="M38.8,28.7c0,0.1-0.1,0.3-0.3,0.3h-3.4
	c-0.1,0-0.3-0.1-0.3-0.3v-3.4c0-0.1,0.1-0.3,0.3-0.3h3.4c0.1,0,0.3,0.1,0.3,0.3V28.7z"/>
<path fill="#F4F4F4" d="M43.4,28.7c0,0.1-0.1,0.3-0.3,0.3h-3.4c-0.1,0-0.3-0.1-0.3-0.3v-3.4c0-0.1,0.1-0.3,0.3-0.3h3.4
	c0.1,0,0.3,0.1,0.3,0.3V28.7z"/>
<path fill="none" stroke="#676A67" stroke-width="0.118" stroke-miterlimit="10" d="M43.4,28.7c0,0.1-0.1,0.3-0.3,0.3h-3.4
	c-0.1,0-0.3-0.1-0.3-0.3v-3.4c0-0.1,0.1-0.3,0.3-0.3h3.4c0.1,0,0.3,0.1,0.3,0.3V28.7z"/>
<path fill="#F4F4F4" d="M48,28.7c0,0.1-0.1,0.3-0.3,0.3h-3.4c-0.1,0-0.2-0.1-0.2-0.3v-3.4c0-0.1,0.1-0.3,0.2-0.3h3.4
	c0.1,0,0.3,0.1,0.3,0.3V28.7z"/>
<path fill="none" stroke="#676A67" stroke-width="0.118" stroke-miterlimit="10" d="M48,28.7c0,0.1-0.1,0.3-0.3,0.3h-3.4
	c-0.1,0-0.2-0.1-0.2-0.3v-3.4c0-0.1,0.1-0.3,0.2-0.3h3.4c0.1,0,0.3,0.1,0.3,0.3V28.7z"/>
<path fill="#F4F4F4" d="M52.7,28.7c0,0.1-0.1,0.3-0.3,0.3h-3.4c-0.1,0-0.3-0.1-0.3-0.3v-3.4c0-0.1,0.1-0.3,0.3-0.3h3.4
	c0.1,0,0.3,0.1,0.3,0.3V28.7z"/>
<path fill="none" stroke="#676A67" stroke-width="0.118" stroke-miterlimit="10" d="M52.7,28.7c0,0.1-0.1,0.3-0.3,0.3h-3.4
	c-0.1,0-0.3-0.1-0.3-0.3v-3.4c0-0.1,0.1-0.3,0.3-0.3h3.4c0.1,0,0.3,0.1,0.3,0.3V28.7z"/>
<path fill="#F4F4F4" d="M57.3,28.7c0,0.1-0.1,0.3-0.3,0.3h-3.4c-0.1,0-0.3-0.1-0.3-0.3v-3.4c0-0.1,0.1-0.3,0.3-0.3H57
	c0.1,0,0.3,0.1,0.3,0.3V28.7z"/>
<path fill="none" stroke="#676A67" stroke-width="0.118" stroke-miterlimit="10" d="M57.3,28.7c0,0.1-0.1,0.3-0.3,0.3h-3.4
	c-0.1,0-0.3-0.1-0.3-0.3v-3.4c0-0.1,0.1-0.3,0.3-0.3H57c0.1,0,0.3,0.1,0.3,0.3V28.7z"/>
<path fill="#F4F4F4" d="M59.8,24.1c0,0.1-0.1,0.3-0.3,0.3h-3.4c-0.1,0-0.3-0.1-0.3-0.3v-3.4c0-0.1,0.1-0.3,0.3-0.3h3.4
	c0.1,0,0.3,0.1,0.3,0.3V24.1z"/>
<path fill="none" stroke="#676A67" stroke-width="0.118" stroke-miterlimit="10" d="M59.8,24.1c0,0.1-0.1,0.3-0.3,0.3h-3.4
	c-0.1,0-0.3-0.1-0.3-0.3v-3.4c0-0.1,0.1-0.3,0.3-0.3h3.4c0.1,0,0.3,0.1,0.3,0.3V24.1z"/>
<path fill="#F4F4F4" d="M63.1,19.7c0,0.1-0.1,0.3-0.3,0.3h-3.4c-0.1,0-0.3-0.1-0.3-0.3v-3.4c0-0.1,0.1-0.3,0.3-0.3h3.4
	c0.1,0,0.3,0.1,0.3,0.3V19.7z"/>
<path fill="none" stroke="#676A67" stroke-width="0.118" stroke-miterlimit="10" d="M63.1,19.7c0,0.1-0.1,0.3-0.3,0.3h-3.4
	c-0.1,0-0.3-0.1-0.3-0.3v-3.4c0-0.1,0.1-0.3,0.3-0.3h3.4c0.1,0,0.3,0.1,0.3,0.3V19.7z"/>
<path fill="#F4F4F4" d="M67.7,19.7c0,0.1-0.1,0.3-0.3,0.3h-3.4c-0.1,0-0.3-0.1-0.3-0.3v-3.4c0-0.1,0.1-0.3,0.3-0.3h3.4
	c0.1,0,0.3,0.1,0.3,0.3V19.7z"/>
<path fill="none" stroke="#676A67" stroke-width="0.118" stroke-miterlimit="10" d="M67.7,19.7c0,0.1-0.1,0.3-0.3,0.3h-3.4
	c-0.1,0-0.3-0.1-0.3-0.3v-3.4c0-0.1,0.1-0.3,0.3-0.3h3.4c0.1,0,0.3,0.1,0.3,0.3V19.7z"/>
<path fill="#F4F4F4" d="M7.8,19.7c0,0.1-0.1,0.3-0.3,0.3H1.8c-0.1,0-0.3-0.1-0.3-0.3v-3.4c0-0.1,0.1-0.3,0.3-0.3h5.8
	c0.1,0,0.3,0.1,0.3,0.3V19.7z"/>
<path fill="none" stroke="#676A67" stroke-width="0.118" stroke-miterlimit="10" d="M7.8,19.7c0,0.1-0.1,0.3-0.3,0.3H1.8
	c-0.1,0-0.3-0.1-0.3-0.3v-3.4c0-0.1,0.1-0.3,0.3-0.3h5.8c0.1,0,0.3,0.1,0.3,0.3V19.7z"/>
<path fill="#F4F4F4" d="M9,24.1c0,0.1-0.1,0.3-0.3,0.3H1.8c-0.1,0-0.3-0.1-0.3-0.3v-3.4c0-0.1,0.1-0.3,0.3-0.3h6.9
	c0.1,0,0.3,0.1,0.3,0.3V24.1z"/>
<path fill="none" stroke="#676A67" stroke-width="0.118" stroke-miterlimit="10" d="M9,24.1c0,0.1-0.1,0.3-0.3,0.3H1.8
	c-0.1,0-0.3-0.1-0.3-0.3v-3.4c0-0.1,0.1-0.3,0.3-0.3h6.9c0.1,0,0.3,0.1,0.3,0.3V24.1z"/>
<path fill="#F4F4F4" d="M43.6,33.8c0,0.1-0.1,0.3-0.3,0.3h-22c-0.1,0-0.3-0.1-0.3-0.3v-4c0-0.1,0.1-0.3,0.3-0.3h22
	c0.1,0,0.3,0.1,0.3,0.3V33.8z"/>
<path fill="none" stroke="#676A67" stroke-width="0.118" stroke-miterlimit="10" d="M43.6,33.8c0,0.1-0.1,0.3-0.3,0.3h-22
	c-0.1,0-0.3-0.1-0.3-0.3v-4c0-0.1,0.1-0.3,0.3-0.3h22c0.1,0,0.3,0.1,0.3,0.3V33.8z"/>
<path fill="#F4F4F4" d="M20.6,33.8c0,0.1-0.1,0.3-0.3,0.3h-4.7c-0.1,0-0.3-0.1-0.3-0.3v-4c0-0.1,0.1-0.3,0.3-0.3h4.7
	c0.1,0,0.3,0.1,0.3,0.3V33.8z"/>
<path fill="none" stroke="#676A67" stroke-width="0.118" stroke-miterlimit="10" d="M20.6,33.8c0,0.1-0.1,0.3-0.3,0.3h-4.7
	c-0.1,0-0.3-0.1-0.3-0.3v-4c0-0.1,0.1-0.3,0.3-0.3h4.7c0.1,0,0.3,0.1,0.3,0.3V33.8z"/>
<path fill="#F4F4F4" d="M49.3,33.8c0,0.1-0.1,0.3-0.3,0.3h-4.7c-0.1,0-0.3-0.1-0.3-0.3v-4c0-0.1,0.1-0.3,0.3-0.3H49
	c0.1,0,0.3,0.1,0.3,0.3V33.8z"/>
<path fill="none" stroke="#676A67" stroke-width="0.118" stroke-miterlimit="10" d="M49.3,33.8c0,0.1-0.1,0.3-0.3,0.3h-4.7
	c-0.1,0-0.3-0.1-0.3-0.3v-4c0-0.1,0.1-0.3,0.3-0.3H49c0.1,0,0.3,0.1,0.3,0.3V33.8z"/>
<path fill="#F4F4F4" d="M14.7,33.8c0,0.1-0.1,0.3-0.3,0.3H11c-0.1,0-0.3-0.1-0.3-0.3v-4c0-0.1,0.1-0.3,0.3-0.3h3.5
	c0.1,0,0.3,0.1,0.3,0.3V33.8z"/>
<path fill="none" stroke="#676A67" stroke-width="0.118" stroke-miterlimit="10" d="M14.7,33.8c0,0.1-0.1,0.3-0.3,0.3H11
	c-0.1,0-0.3-0.1-0.3-0.3v-4c0-0.1,0.1-0.3,0.3-0.3h3.5c0.1,0,0.3,0.1,0.3,0.3V33.8z"/>
<path fill="#F4F4F4" d="M53.9,33.8c0,0.1-0.1,0.3-0.3,0.3h-3.5c-0.1,0-0.3-0.1-0.3-0.3v-4c0-0.1,0.1-0.3,0.3-0.3h3.5
	c0.1,0,0.3,0.1,0.3,0.3V33.8z"/>
<path fill="none" stroke="#676A67" stroke-width="0.118" stroke-miterlimit="10" d="M53.9,33.8c0,0.1-0.1,0.3-0.3,0.3h-3.5
	c-0.1,0-0.3-0.1-0.3-0.3v-4c0-0.1,0.1-0.3,0.3-0.3h3.5c0.1,0,0.3,0.1,0.3,0.3V33.8z"/>
<path fill="#F4F4F4" d="M10.1,33.8c0,0.1-0.1,0.3-0.3,0.3H6.4c-0.1,0-0.3-0.1-0.3-0.3v-4c0-0.1,0.1-0.3,0.3-0.3h3.5
	c0.1,0,0.3,0.1,0.3,0.3V33.8z"/>
<path fill="none" stroke="#676A67" stroke-width="0.118" stroke-miterlimit="10" d="M10.1,33.8c0,0.1-0.1,0.3-0.3,0.3H6.4
	c-0.1,0-0.3-0.1-0.3-0.3v-4c0-0.1,0.1-0.3,0.3-0.3h3.5c0.1,0,0.3,0.1,0.3,0.3V33.8z"/>
<path fill="#F4F4F4" d="M5.6,33.8c0,0.1-0.1,0.3-0.3,0.3H1.8c-0.1,0-0.3-0.1-0.3-0.3v-4c0-0.1,0.1-0.3,0.3-0.3h3.5
	c0.1,0,0.3,0.1,0.3,0.3V33.8z"/>
<path fill="none" stroke="#676A67" stroke-width="0.118" stroke-miterlimit="10" d="M5.6,33.8c0,0.1-0.1,0.3-0.3,0.3H1.8
	c-0.1,0-0.3-0.1-0.3-0.3v-4c0-0.1,0.1-0.3,0.3-0.3h3.5c0.1,0,0.3,0.1,0.3,0.3V33.8z"/>
<path fill="#F4F4F4" d="M63.2,33.8c0,0.1-0.1,0.3-0.3,0.3h-3.6c-0.1,0-0.3-0.1-0.3-0.3v-4c0-0.1,0.1-0.3,0.3-0.3h3.6
	c0.1,0,0.3,0.1,0.3,0.3V33.8z"/>
<path fill="none" stroke="#676A67" stroke-width="0.118" stroke-miterlimit="10" d="M63.2,33.8c0,0.1-0.1,0.3-0.3,0.3h-3.6
	c-0.1,0-0.3-0.1-0.3-0.3v-4c0-0.1,0.1-0.3,0.3-0.3h3.6c0.1,0,0.3,0.1,0.3,0.3V33.8z"/>
<path fill="#F4F4F4" d="M67.7,33.8c0,0.1-0.1,0.3-0.3,0.3h-3.6c-0.1,0-0.3-0.1-0.3-0.3v-1.9c0-0.1,0.1-0.3,0.3-0.3h3.6
	c0.1,0,0.3,0.1,0.3,0.3V33.8z"/>
<path fill="none" stroke="#676A67" stroke-width="0.118" stroke-miterlimit="10" d="M67.7,33.8c0,0.1-0.1,0.3-0.3,0.3h-3.6
	c-0.1,0-0.3-0.1-0.3-0.3v-1.9c0-0.1,0.1-0.3,0.3-0.3h3.6c0.1,0,0.3,0.1,0.3,0.3V33.8z"/>
<path fill="#F4F4F4" d="M58.6,33.8c0,0.1-0.1,0.3-0.3,0.3h-3.6c-0.1,0-0.3-0.1-0.3-0.3v-1.9c0-0.1,0.1-0.3,0.3-0.3h3.6
	c0.1,0,0.3,0.1,0.3,0.3V33.8z"/>
<path fill="none" stroke="#676A67" stroke-width="0.118" stroke-miterlimit="10" d="M58.6,33.8c0,0.1-0.1,0.3-0.3,0.3h-3.6
	c-0.1,0-0.3-0.1-0.3-0.3v-1.9c0-0.1,0.1-0.3,0.3-0.3h3.6c0.1,0,0.3,0.1,0.3,0.3V33.8z"/>
<path fill="#F4F4F4" d="M67.7,28.7c0,0.1-0.1,0.3-0.3,0.3h-9.2c-0.1,0-0.3-0.1-0.3-0.3v-3.4c0-0.1,0.1-0.3,0.3-0.3h9.2
	c0.1,0,0.3,0.1,0.3,0.3V28.7z"/>
<path fill="none" stroke="#676A67" stroke-width="0.118" stroke-miterlimit="10" d="M67.7,28.7c0,0.1-0.1,0.3-0.3,0.3h-9.2
	c-0.1,0-0.3-0.1-0.3-0.3v-3.4c0-0.1,0.1-0.3,0.3-0.3h9.2c0.1,0,0.3,0.1,0.3,0.3V28.7z"/>
<path fill="#F4F4F4" d="M11.2,28.7c0,0.1-0.1,0.3-0.3,0.3H1.7c-0.1,0-0.3-0.1-0.3-0.3v-3.4c0-0.1,0.1-0.3,0.3-0.3h9.2
	c0.1,0,0.3,0.1,0.3,0.3V28.7z"/>
<path fill="none" stroke="#676A67" stroke-width="0.118" stroke-miterlimit="10" d="M11.2,28.7c0,0.1-0.1,0.3-0.3,0.3H1.7
	c-0.1,0-0.3-0.1-0.3-0.3v-3.4c0-0.1,0.1-0.3,0.3-0.3h9.2c0.1,0,0.3,0.1,0.3,0.3V28.7z"/>
<path fill="#F4F4F4" d="M67.7,24.1c0,0.1-0.1,0.3-0.3,0.3h-6.9c-0.1,0-0.3-0.1-0.3-0.3v-3.4c0-0.1,0.1-0.3,0.3-0.3h6.9
	c0.1,0,0.3,0.1,0.3,0.3V24.1z"/>
<path fill="none" stroke="#676A67" stroke-width="0.118" stroke-miterlimit="10" d="M67.7,24.1c0,0.1-0.1,0.3-0.3,0.3h-6.9
	c-0.1,0-0.3-0.1-0.3-0.3v-3.4c0-0.1,0.1-0.3,0.3-0.3h6.9c0.1,0,0.3,0.1,0.3,0.3V24.1z"/>
<path fill="#F4F4F4" d="M10,15.2c0,0.1-0.1,0.3-0.3,0.3H6.4c-0.1,0-0.3-0.1-0.3-0.3v-3.4c0-0.1,0.1-0.3,0.3-0.3h3.4
	c0.1,0,0.3,0.1,0.3,0.3V15.2z"/>
<path fill="none" stroke="#676A67" stroke-width="0.118" stroke-miterlimit="10" d="M10,15.2c0,0.1-0.1,0.3-0.3,0.3H6.4
	c-0.1,0-0.3-0.1-0.3-0.3v-3.4c0-0.1,0.1-0.3,0.3-0.3h3.4c0.1,0,0.3,0.1,0.3,0.3V15.2z"/>
<path fill="#F4F4F4" d="M14.7,15.2c0,0.1-0.1,0.3-0.3,0.3h-3.4c-0.1,0-0.3-0.1-0.3-0.3v-3.4c0-0.1,0.1-0.3,0.3-0.3h3.4
	c0.1,0,0.3,0.1,0.3,0.3V15.2z"/>
<path fill="none" stroke="#676A67" stroke-width="0.118" stroke-miterlimit="10" d="M14.7,15.2c0,0.1-0.1,0.3-0.3,0.3h-3.4
	c-0.1,0-0.3-0.1-0.3-0.3v-3.4c0-0.1,0.1-0.3,0.3-0.3h3.4c0.1,0,0.3,0.1,0.3,0.3V15.2z"/>
<path fill="#F4F4F4" d="M19.3,15.2c0,0.1-0.1,0.3-0.3,0.3h-3.4c-0.1,0-0.3-0.1-0.3-0.3v-3.4c0-0.1,0.1-0.3,0.3-0.3H19
	c0.1,0,0.3,0.1,0.3,0.3V15.2z"/>
<path fill="none" stroke="#676A67" stroke-width="0.118" stroke-miterlimit="10" d="M19.3,15.2c0,0.1-0.1,0.3-0.3,0.3h-3.4
	c-0.1,0-0.3-0.1-0.3-0.3v-3.4c0-0.1,0.1-0.3,0.3-0.3H19c0.1,0,0.3,0.1,0.3,0.3V15.2z"/>
<path fill="#F4F4F4" d="M23.9,15.2c0,0.1-0.1,0.3-0.3,0.3h-3.4c-0.1,0-0.3-0.1-0.3-0.3v-3.4c0-0.1,0.1-0.3,0.3-0.3h3.4
	c0.1,0,0.3,0.1,0.3,0.3V15.2z"/>
<path fill="none" stroke="#676A67" stroke-width="0.118" stroke-miterlimit="10" d="M23.9,15.2c0,0.1-0.1,0.3-0.3,0.3h-3.4
	c-0.1,0-0.3-0.1-0.3-0.3v-3.4c0-0.1,0.1-0.3,0.3-0.3h3.4c0.1,0,0.3,0.1,0.3,0.3V15.2z"/>
<path fill="#F4F4F4" d="M28.5,15.2c0,0.1-0.1,0.3-0.3,0.3h-3.4c-0.1,0-0.3-0.1-0.3-0.3v-3.4c0-0.1,0.1-0.3,0.3-0.3h3.4
	c0.1,0,0.3,0.1,0.3,0.3V15.2z"/>
<path fill="none" stroke="#676A67" stroke-width="0.118" stroke-miterlimit="10" d="M28.5,15.2c0,0.1-0.1,0.3-0.3,0.3h-3.4
	c-0.1,0-0.3-0.1-0.3-0.3v-3.4c0-0.1,0.1-0.3,0.3-0.3h3.4c0.1,0,0.3,0.1,0.3,0.3V15.2z"/>
<path fill="#F4F4F4" d="M33.2,15.2c0,0.1-0.1,0.3-0.3,0.3h-3.4c-0.1,0-0.3-0.1-0.3-0.3v-3.4c0-0.1,0.1-0.3,0.3-0.3h3.4
	c0.1,0,0.3,0.1,0.3,0.3V15.2z"/>
<path fill="none" stroke="#676A67" stroke-width="0.118" stroke-miterlimit="10" d="M33.2,15.2c0,0.1-0.1,0.3-0.3,0.3h-3.4
	c-0.1,0-0.3-0.1-0.3-0.3v-3.4c0-0.1,0.1-0.3,0.3-0.3h3.4c0.1,0,0.3,0.1,0.3,0.3V15.2z"/>
<path fill="#F4F4F4" d="M37.8,15.2c0,0.1-0.1,0.3-0.3,0.3h-3.4c-0.1,0-0.3-0.1-0.3-0.3v-3.4c0-0.1,0.1-0.3,0.3-0.3h3.4
	c0.1,0,0.3,0.1,0.3,0.3V15.2z"/>
<path fill="none" stroke="#676A67" stroke-width="0.118" stroke-miterlimit="10" d="M37.8,15.2c0,0.1-0.1,0.3-0.3,0.3h-3.4
	c-0.1,0-0.3-0.1-0.3-0.3v-3.4c0-0.1,0.1-0.3,0.3-0.3h3.4c0.1,0,0.3,0.1,0.3,0.3V15.2z"/>
<path fill="#F4F4F4" d="M42.4,15.2c0,0.1-0.1,0.3-0.3,0.3h-3.4c-0.1,0-0.3-0.1-0.3-0.3v-3.4c0-0.1,0.1-0.3,0.3-0.3h3.4
	c0.1,0,0.3,0.1,0.3,0.3V15.2z"/>
<path fill="none" stroke="#676A67" stroke-width="0.118" stroke-miterlimit="10" d="M42.4,15.2c0,0.1-0.1,0.3-0.3,0.3h-3.4
	c-0.1,0-0.3-0.1-0.3-0.3v-3.4c0-0.1,0.1-0.3,0.3-0.3h3.4c0.1,0,0.3,0.1,0.3,0.3V15.2z"/>
<path fill="#F4F4F4" d="M47,15.2c0,0.1-0.1,0.3-0.3,0.3h-3.4c-0.1,0-0.3-0.1-0.3-0.3v-3.4c0-0.1,0.1-0.3,0.3-0.3h3.4
	c0.1,0,0.3,0.1,0.3,0.3V15.2z"/>
<path fill="none" stroke="#676A67" stroke-width="0.118" stroke-miterlimit="10" d="M47,15.2c0,0.1-0.1,0.3-0.3,0.3h-3.4
	c-0.1,0-0.3-0.1-0.3-0.3v-3.4c0-0.1,0.1-0.3,0.3-0.3h3.4c0.1,0,0.3,0.1,0.3,0.3V15.2z"/>
<path fill="#F4F4F4" d="M51.7,15.2c0,0.1-0.1,0.3-0.3,0.3H48c-0.1,0-0.3-0.1-0.3-0.3v-3.4c0-0.1,0.1-0.3,0.3-0.3h3.4
	c0.1,0,0.3,0.1,0.3,0.3V15.2z"/>
<path fill="none" stroke="#676A67" stroke-width="0.118" stroke-miterlimit="10" d="M51.7,15.2c0,0.1-0.1,0.3-0.3,0.3H48
	c-0.1,0-0.3-0.1-0.3-0.3v-3.4c0-0.1,0.1-0.3,0.3-0.3h3.4c0.1,0,0.3,0.1,0.3,0.3V15.2z"/>
<path fill="#F4F4F4" d="M56.3,15.2c0,0.1-0.1,0.3-0.3,0.3h-3.4c-0.1,0-0.3-0.1-0.3-0.3v-3.4c0-0.1,0.1-0.3,0.3-0.3H56
	c0.1,0,0.3,0.1,0.3,0.3V15.2z"/>
<path fill="none" stroke="#676A67" stroke-width="0.118" stroke-miterlimit="10" d="M56.3,15.2c0,0.1-0.1,0.3-0.3,0.3h-3.4
	c-0.1,0-0.3-0.1-0.3-0.3v-3.4c0-0.1,0.1-0.3,0.3-0.3H56c0.1,0,0.3,0.1,0.3,0.3V15.2z"/>
<path fill="#F4F4F4" d="M60.9,15.2c0,0.1-0.1,0.3-0.3,0.3h-3.4c-0.1,0-0.3-0.1-0.3-0.3v-3.4c0-0.1,0.1-0.3,0.3-0.3h3.4
	c0.1,0,0.3,0.1,0.3,0.3V15.2z"/>
<path fill="none" stroke="#676A67" stroke-width="0.118" stroke-miterlimit="10" d="M60.9,15.2c0,0.1-0.1,0.3-0.3,0.3h-3.4
	c-0.1,0-0.3-0.1-0.3-0.3v-3.4c0-0.1,0.1-0.3,0.3-0.3h3.4c0.1,0,0.3,0.1,0.3,0.3V15.2z"/>
<path fill="#F4F4F4" d="M67.7,15.2c0,0.1-0.1,0.3-0.3,0.3h-5.6c-0.1,0-0.3-0.1-0.3-0.3v-3.4c0-0.1,0.1-0.3,0.3-0.3h5.6
	c0.1,0,0.3,0.1,0.3,0.3V15.2z"/>
<path fill="none" stroke="#676A67" stroke-width="0.118" stroke-miterlimit="10" d="M67.7,15.2c0,0.1-0.1,0.3-0.3,0.3h-5.6
	c-0.1,0-0.3-0.1-0.3-0.3v-3.4c0-0.1,0.1-0.3,0.3-0.3h5.6c0.1,0,0.3,0.1,0.3,0.3V15.2z"/>
<path fill="#7EA885" d="M2.6,21.3c0,0.1-0.1,0.2-0.2,0.2c-0.1,0-0.2-0.1-0.2-0.2s0.1-0.2,0.2-0.2C2.5,21.1,2.6,21.2,2.6,21.3"/>
<line fill="none" stroke="#676A67" stroke-width="0.118" stroke-miterlimit="10" x1="59.1" y1="31.8" x2="63.2" y2="31.8"/>
<path fill="#A8AAA8" d="M49.3,19.8v-3.4c0,0,0,0,0-0.1v3.3c0,0.2-0.1,0.3-0.3,0.3h-3.4c-0.1,0-0.3-0.1-0.3-0.3v0.1
	c0,0.2,0.1,0.3,0.3,0.3H49C49.2,20.1,49.3,19.9,49.3,19.8"/>
<path fill="#A8AAA8" d="M43.5,28.6c0,0.2-0.1,0.3-0.3,0.3h-3.4c-0.2,0-0.3-0.1-0.3-0.3v0.1c0,0.2,0.1,0.3,0.3,0.3h3.4
	c0.2,0,0.3-0.1,0.3-0.3v-3.4c0,0,0,0,0-0.1V28.6z"/>
<path fill="#A8AAA8" d="M44.4,29.1h3.4c0.2,0,0.3-0.1,0.3-0.3v-3.4c0,0,0,0,0-0.1v3.3c0,0.2-0.1,0.3-0.3,0.3h-3.4
	c-0.1,0-0.3-0.1-0.3-0.3v0.1C44.1,29,44.3,29.1,44.4,29.1"/>
<path fill="#A8AAA8" d="M35.2,29.1h3.4c0.2,0,0.3-0.1,0.3-0.3v-3.4c0,0,0,0,0-0.1v3.3c0,0.2-0.1,0.3-0.3,0.3h-3.4
	c-0.1,0-0.3-0.1-0.3-0.3v0.1C34.9,29,35,29.1,35.2,29.1"/>
<path fill="#A8AAA8" d="M50.6,24.3v-3.4c0,0,0,0,0-0.1v3.3c0,0.2-0.1,0.3-0.3,0.3h-3.4c-0.2,0-0.3-0.1-0.3-0.3v0.1
	c0,0.2,0.1,0.3,0.3,0.3h3.4C50.4,24.6,50.6,24.4,50.6,24.3"/>
<path fill="#A8AAA8" d="M35.4,19.6c0,0.2-0.1,0.3-0.3,0.3h-3.4c-0.1,0-0.3-0.1-0.3-0.3v0.1c0,0.2,0.1,0.3,0.3,0.3h3.4
	c0.2,0,0.3-0.1,0.3-0.3v-3.4c0,0,0,0,0-0.1V19.6z"/>
<path fill="#A8AAA8" d="M21.3,29.1h3.4c0.2,0,0.3-0.1,0.3-0.3v-3.4c0,0,0,0,0-0.1v3.3c0,0.2-0.1,0.3-0.3,0.3h-3.4
	c-0.1,0-0.3-0.1-0.3-0.3v0.1C21,29,21.2,29.1,21.3,29.1"/>
<path fill="#A8AAA8" d="M40,19.6c0,0.2-0.1,0.3-0.3,0.3h-3.4c-0.2,0-0.3-0.1-0.3-0.3v0.1c0,0.2,0.1,0.3,0.3,0.3h3.4
	c0.2,0,0.3-0.1,0.3-0.3v-3.4c0,0,0,0,0-0.1V19.6z"/>
<path fill="#A8AAA8" d="M30.8,19.6c0,0.2-0.1,0.3-0.3,0.3h-3.4c-0.1,0-0.3-0.1-0.3-0.3v0.1c0,0.2,0.1,0.3,0.3,0.3h3.4
	c0.2,0,0.3-0.1,0.3-0.3v-3.4c0,0,0,0,0-0.1V19.6z"/>
<path fill="#A8AAA8" d="M58.5,19.8v-3.4c0,0,0,0,0-0.1v3.3c0,0.2-0.1,0.3-0.3,0.3h-3.4c-0.1,0-0.3-0.1-0.3-0.3v0.1
	c0,0.2,0.1,0.3,0.3,0.3h3.4C58.4,20.1,58.5,19.9,58.5,19.8"/>
<path fill="#A8AAA8" d="M42.5,15.2c0,0.2-0.1,0.3-0.3,0.3h-3.4c-0.2,0-0.3-0.1-0.3-0.3v0.1c0,0.2,0.1,0.3,0.3,0.3h3.4
	c0.2,0,0.3-0.1,0.3-0.3V12c0,0,0,0,0-0.1V15.2z"/>
<path fill="#A8AAA8" d="M47.1,15.2c0,0.2-0.1,0.3-0.3,0.3h-3.4c-0.2,0-0.3-0.1-0.3-0.3v0.1c0,0.2,0.1,0.3,0.3,0.3h3.4
	c0.2,0,0.3-0.1,0.3-0.3V12c0,0,0,0,0-0.1V15.2z"/>
<path fill="#A8AAA8" d="M51.7,15.2c0,0.2-0.1,0.3-0.3,0.3H48c-0.1,0-0.3-0.1-0.3-0.3v0.1c0,0.2,0.1,0.3,0.3,0.3h3.4
	c0.2,0,0.3-0.1,0.3-0.3V12c0,0,0,0,0-0.1V15.2z"/>
<path fill="#A8AAA8" d="M37.8,15.2c0,0.2-0.1,0.3-0.3,0.3h-3.4c-0.1,0-0.3-0.1-0.3-0.3v0.1c0,0.2,0.1,0.3,0.3,0.3h3.4
	c0.2,0,0.3-0.1,0.3-0.3V12c0,0,0,0,0-0.1V15.2z"/>
<path fill="#A8AAA8" d="M55.2,24.3v-3.4c0,0,0,0,0-0.1v3.3c0,0.2-0.1,0.3-0.3,0.3h-3.4c-0.2,0-0.3-0.1-0.3-0.3v0.1
	c0,0.2,0.1,0.3,0.3,0.3h3.4C55.1,24.6,55.2,24.4,55.2,24.3"/>
<path fill="#A8AAA8" d="M56.3,15.2c0,0.2-0.1,0.3-0.3,0.3h-3.4c-0.1,0-0.3-0.1-0.3-0.3v0.1c0,0.2,0.1,0.3,0.3,0.3H56
	c0.2,0,0.3-0.1,0.3-0.3V12c0,0,0,0,0-0.1V15.2z"/>
<path fill="#A8AAA8" d="M59.8,24.3v-3.4c0,0,0,0,0-0.1v3.3c0,0.2-0.1,0.3-0.3,0.3h-3.4c-0.2,0-0.3-0.1-0.3-0.3v0.1
	c0,0.2,0.1,0.3,0.3,0.3h3.4C59.7,24.6,59.8,24.4,59.8,24.3"/>
<path fill="#A8AAA8" d="M53.9,19.6c0,0.2-0.1,0.3-0.3,0.3h-3.4c-0.1,0-0.3-0.1-0.3-0.3v0.1c0,0.2,0.1,0.3,0.3,0.3h3.4
	c0.2,0,0.3-0.1,0.3-0.3v-3.4c0,0,0,0,0-0.1V19.6z"/>
<path fill="#A8AAA8" d="M61,15.3V12c0,0,0,0,0-0.1v3.3c0,0.2-0.1,0.3-0.3,0.3h-3.4c-0.1,0-0.3-0.1-0.3-0.3v0.1
	c0,0.2,0.1,0.3,0.3,0.3h3.4C60.8,15.7,61,15.5,61,15.3"/>
<path fill="#A8AAA8" d="M33.2,15.2c0,0.2-0.1,0.3-0.3,0.3h-3.4c-0.1,0-0.3-0.1-0.3-0.3v0.1c0,0.2,0.1,0.3,0.3,0.3h3.4
	c0.2,0,0.3-0.1,0.3-0.3V12c0,0,0,0,0-0.1V15.2z"/>
<path fill="#A8AAA8" d="M12.3,19.8v-3.4c0,0,0,0,0-0.1v3.3c0,0.2-0.1,0.3-0.3,0.3H8.7c-0.1,0-0.3-0.1-0.3-0.3v0.1
	c0,0.2,0.1,0.3,0.3,0.3H12C12.2,20.1,12.3,19.9,12.3,19.8"/>
<path fill="#A8AAA8" d="M18.2,24.3v-3.4c0,0,0,0,0-0.1v3.3c0,0.2-0.1,0.3-0.3,0.3h-3.4c-0.1,0-0.3-0.1-0.3-0.3v0.1
	c0,0.2,0.1,0.3,0.3,0.3h3.4C18.1,24.6,18.2,24.4,18.2,24.3"/>
<path fill="#A8AAA8" d="M21.6,19.6c0,0.2-0.1,0.3-0.3,0.3h-3.4c-0.1,0-0.3-0.1-0.3-0.3v0.1c0,0.2,0.1,0.3,0.3,0.3h3.4
	c0.2,0,0.3-0.1,0.3-0.3v-3.4c0,0,0,0,0-0.1V19.6z"/>
<path fill="#A8AAA8" d="M15.7,15.7H19c0.2,0,0.3-0.1,0.3-0.3V12c0,0,0,0,0-0.1v3.3c0,0.2-0.1,0.3-0.3,0.3h-3.4
	c-0.2,0-0.3-0.1-0.3-0.3v0.1C15.4,15.5,15.5,15.7,15.7,15.7"/>
<path fill="#A8AAA8" d="M17,19.8v-3.4c0,0,0,0,0-0.1v3.3c0,0.2-0.1,0.3-0.3,0.3h-3.4c-0.1,0-0.3-0.1-0.3-0.3v0.1
	c0,0.2,0.1,0.3,0.3,0.3h3.4C16.8,20.1,17,19.9,17,19.8"/>
<path fill="#A8AAA8" d="M36.7,24.3v-3.4c0,0,0,0,0-0.1v3.3c0,0.2-0.1,0.3-0.3,0.3H33c-0.1,0-0.3-0.1-0.3-0.3v0.1
	c0,0.2,0.1,0.3,0.3,0.3h3.4C36.6,24.6,36.7,24.4,36.7,24.3"/>
<path fill="#A8AAA8" d="M1.8,20.1h5.8c0.2,0,0.3-0.1,0.3-0.3v-3.4c0,0,0,0,0-0.1v3.3c0,0.2-0.1,0.3-0.3,0.3H1.8
	c-0.1,0-0.3-0.1-0.3-0.3v0.1C1.5,19.9,1.6,20.1,1.8,20.1"/>
<path fill="#A8AAA8" d="M11.1,15.7h3.4c0.2,0,0.3-0.1,0.3-0.3V12c0,0,0,0,0-0.1v3.3c0,0.2-0.1,0.3-0.3,0.3H11
	c-0.1,0-0.3-0.1-0.3-0.3v0.1C10.8,15.5,10.9,15.7,11.1,15.7"/>
<path fill="#A8AAA8" d="M6.4,15.7h3.4c0.2,0,0.3-0.1,0.3-0.3V12c0,0,0,0,0-0.1v3.3c0,0.2-0.1,0.3-0.3,0.3H6.4
	c-0.1,0-0.3-0.1-0.3-0.3v0.1C6.1,15.5,6.3,15.7,6.4,15.7"/>
<path fill="#A8AAA8" d="M1.8,15.7h3.4c0.2,0,0.3-0.1,0.3-0.3V12c0,0,0,0,0-0.1v3.3c0,0.2-0.1,0.3-0.3,0.3H1.8
	c-0.1,0-0.3-0.1-0.3-0.3v0.1C1.5,15.5,1.6,15.7,1.8,15.7"/>
<path fill="#A8AAA8" d="M32.1,24.3v-3.4c0,0,0,0,0-0.1v3.3c0,0.2-0.1,0.3-0.3,0.3h-3.4c-0.1,0-0.3-0.1-0.3-0.3v0.1
	c0,0.2,0.1,0.3,0.3,0.3h3.4C32,24.6,32.1,24.4,32.1,24.3"/>
<path fill="#A8AAA8" d="M27.5,24.3v-3.4c0,0,0,0,0-0.1v3.3c0,0.2-0.1,0.3-0.3,0.3h-3.4c-0.1,0-0.3-0.1-0.3-0.3v0.1
	c0,0.2,0.1,0.3,0.3,0.3h3.4C27.3,24.6,27.5,24.4,27.5,24.3"/>
<path fill="#A8AAA8" d="M26,29.1h3.4c0.2,0,0.3-0.1,0.3-0.3v-3.4c0,0,0,0,0-0.1v3.3c0,0.2-0.1,0.3-0.3,0.3h-3.4
	c-0.1,0-0.3-0.1-0.3-0.3v0.1C25.6,29,25.8,29.1,26,29.1"/>
<path fill="#A8AAA8" d="M30.6,29.1h3.4c0.2,0,0.3-0.1,0.3-0.3v-3.4c0,0,0,0,0-0.1v3.3c0,0.2-0.1,0.3-0.3,0.3h-3.4
	c-0.1,0-0.3-0.1-0.3-0.3v0.1C30.3,29,30.4,29.1,30.6,29.1"/>
<path fill="#A8AAA8" d="M26.2,19.8v-3.4c0,0,0,0,0-0.1v3.3c0,0.2-0.1,0.3-0.3,0.3h-3.4c-0.1,0-0.3-0.1-0.3-0.3v0.1
	c0,0.2,0.1,0.3,0.3,0.3h3.4C26.1,20.1,26.2,19.9,26.2,19.8"/>
<path fill="#A8AAA8" d="M41.3,24.3v-3.4c0,0,0,0,0-0.1v3.3c0,0.2-0.1,0.3-0.3,0.3h-3.4c-0.1,0-0.3-0.1-0.3-0.3v0.1
	c0,0.2,0.1,0.3,0.3,0.3H41C41.2,24.6,41.3,24.4,41.3,24.3"/>
<path fill="#A8AAA8" d="M20.4,28.6c0,0.2-0.1,0.3-0.3,0.3h-3.4c-0.1,0-0.3-0.1-0.3-0.3v0.1c0,0.2,0.1,0.3,0.3,0.3h3.4
	c0.2,0,0.3-0.1,0.3-0.3v-3.4c0,0,0,0,0-0.1V28.6z"/>
<path fill="#A8AAA8" d="M44.7,19.6c0,0.2-0.1,0.3-0.3,0.3H41c-0.1,0-0.3-0.1-0.3-0.3v0.1c0,0.2,0.1,0.3,0.3,0.3h3.4
	c0.2,0,0.3-0.1,0.3-0.3v-3.4c0,0,0,0,0-0.1V19.6z"/>
<path fill="#A8AAA8" d="M67.8,28.6c0,0.2-0.1,0.3-0.3,0.3h-9.2c-0.1,0-0.3-0.1-0.3-0.3v0.1c0,0.2,0.1,0.3,0.3,0.3h9.2
	c0.2,0,0.3-0.1,0.3-0.3v-3.4c0,0,0,0,0-0.1V28.6z"/>
<path fill="#A8AAA8" d="M10.2,33.7c0,0.2-0.1,0.3-0.3,0.3H6.4c-0.2,0-0.3-0.1-0.3-0.3v0.1c0,0.2,0.1,0.3,0.3,0.3h3.5
	c0.2,0,0.3-0.1,0.3-0.3v-4c0,0,0,0,0-0.1V33.7z"/>
<path fill="#A8AAA8" d="M14.8,33.7c0,0.2-0.1,0.3-0.3,0.3H11c-0.2,0-0.3-0.1-0.3-0.3v0.1c0,0.2,0.1,0.3,0.3,0.3h3.5
	c0.2,0,0.3-0.1,0.3-0.3v-4c0,0,0,0,0-0.1V33.7z"/>
<path fill="#A8AAA8" d="M20.6,33.7c0,0.2-0.1,0.3-0.3,0.3h-4.7c-0.2,0-0.3-0.1-0.3-0.3v0.1c0,0.2,0.1,0.3,0.3,0.3h4.7
	c0.2,0,0.3-0.1,0.3-0.3v-4c0,0,0,0,0-0.1V33.7z"/>
<path fill="#A8AAA8" d="M5.6,33.7c0,0.2-0.1,0.3-0.3,0.3H1.8c-0.2,0-0.3-0.1-0.3-0.3v0.1c0,0.2,0.1,0.3,0.3,0.3h3.5
	c0.2,0,0.3-0.1,0.3-0.3v-4c0,0,0,0,0-0.1V33.7z"/>
<path fill="#A8AAA8" d="M5.7,10.7c0,0.2-0.1,0.3-0.3,0.3H1.8c-0.2,0-0.3-0.1-0.3-0.3v0.1c0,0.2,0.1,0.3,0.3,0.3h3.6
	c0.2,0,0.3-0.1,0.3-0.3v-2c0,0,0,0,0-0.1V10.7z"/>
<path fill="#A8AAA8" d="M20.1,10.7c0,0.2-0.1,0.3-0.3,0.3h-3.6c-0.1,0-0.3-0.1-0.3-0.3v0.1c0,0.2,0.1,0.3,0.3,0.3h3.6
	c0.2,0,0.3-0.1,0.3-0.3v-2c0,0,0,0,0-0.1V10.7z"/>
<path fill="#A8AAA8" d="M15.3,10.7c0,0.2-0.1,0.3-0.3,0.3h-3.6c-0.2,0-0.3-0.1-0.3-0.3v0.1c0,0.2,0.1,0.3,0.3,0.3H15
	c0.2,0,0.3-0.1,0.3-0.3v-2c0,0,0,0,0-0.1V10.7z"/>
<path fill="#A8AAA8" d="M1.7,29.1h9.2c0.2,0,0.3-0.1,0.3-0.3v-3.4c0,0,0,0,0-0.1v3.3c0,0.2-0.1,0.3-0.3,0.3H1.7
	c-0.1,0-0.3-0.1-0.3-0.3v0.1C1.4,29,1.6,29.1,1.7,29.1"/>
<path fill="#A8AAA8" d="M43.6,33.7c0,0.2-0.1,0.3-0.3,0.3h-22c-0.1,0-0.3-0.1-0.3-0.3v0.1c0,0.2,0.1,0.3,0.3,0.3h22
	c0.2,0,0.3-0.1,0.3-0.3v-4c0,0,0,0,0-0.1V33.7z"/>
<path fill="#A8AAA8" d="M10.5,10.7c0,0.2-0.1,0.3-0.3,0.3H6.6c-0.2,0-0.3-0.1-0.3-0.3v0.1c0,0.2,0.1,0.3,0.3,0.3h3.6
	c0.2,0,0.3-0.1,0.3-0.3v-2c0,0,0,0,0-0.1V10.7z"/>
<path fill="#A8AAA8" d="M67.8,15.2c0,0.2-0.1,0.3-0.3,0.3h-5.6c-0.2,0-0.3-0.1-0.3-0.3v0.1c0,0.2,0.1,0.3,0.3,0.3h5.6
	c0.2,0,0.3-0.1,0.3-0.3V12c0,0,0,0,0-0.1V15.2z"/>
<path fill="#A8AAA8" d="M67.8,19.6c0,0.2-0.1,0.3-0.3,0.3h-3.4c-0.2,0-0.3-0.1-0.3-0.3v0.1c0,0.2,0.1,0.3,0.3,0.3h3.4
	c0.2,0,0.3-0.1,0.3-0.3v-3.4c0,0,0,0,0-0.1V19.6z"/>
<path fill="#A8AAA8" d="M67.8,24.1c0,0.2-0.1,0.3-0.3,0.3h-6.9c-0.2,0-0.3-0.1-0.3-0.3v0.1c0,0.2,0.1,0.3,0.3,0.3h6.9
	c0.2,0,0.3-0.1,0.3-0.3v-3.4c0,0,0,0,0-0.1V24.1z"/>
<path fill="#A8AAA8" d="M67.8,8.8v1.9c0,0.2-0.1,0.3-0.3,0.3h-3.6c-0.2,0-0.3-0.1-0.3-0.3v0.1c0,0.2,0.1,0.3,0.3,0.3h3.6
	c0.2,0,0.3-0.1,0.3-0.3L67.8,8.8C67.8,8.8,67.8,8.8,67.8,8.8"/>
<path fill="#A8AAA8" d="M58.6,33.7c0,0.2-0.1,0.3-0.3,0.3h-3.6c-0.2,0-0.3-0.1-0.3-0.3v0.1c0,0.2,0.1,0.3,0.3,0.3h3.6
	c0.2,0,0.3-0.1,0.3-0.3V32c0,0,0,0,0-0.1V33.7z"/>
<path fill="#A8AAA8" d="M67.7,33.7c0,0.2-0.1,0.3-0.3,0.3h-3.6c-0.2,0-0.3-0.1-0.3-0.3v0.1c0,0.2,0.1,0.3,0.3,0.3h3.6
	c0.2,0,0.3-0.1,0.3-0.3V32c0,0,0,0,0-0.1V33.7z"/>
<path fill="#A8AAA8" d="M54,33.7c0,0.2-0.1,0.3-0.3,0.3h-3.5c-0.2,0-0.3-0.1-0.3-0.3v0.1c0,0.2,0.1,0.3,0.3,0.3h3.5
	c0.2,0,0.3-0.1,0.3-0.3v-4c0,0,0,0,0-0.1V33.7z"/>
<path fill="#A8AAA8" d="M49.3,33.7c0,0.2-0.1,0.3-0.3,0.3h-4.7c-0.2,0-0.3-0.1-0.3-0.3v0.1c0,0.2,0.1,0.3,0.3,0.3H49
	c0.2,0,0.3-0.1,0.3-0.3v-4c0,0,0,0,0-0.1V33.7z"/>
<path fill="#A8AAA8" d="M63.2,33.7c0,0.2-0.1,0.3-0.3,0.3h-3.6c-0.2,0-0.3-0.1-0.3-0.3v0.1c0,0.2,0.1,0.3,0.3,0.3h3.6
	c0.2,0,0.3-0.1,0.3-0.3v-4c0,0,0,0,0-0.1V33.7z"/>
<path fill="#A8AAA8" d="M63.1,19.6c0,0.2-0.1,0.3-0.3,0.3h-3.4c-0.1,0-0.3-0.1-0.3-0.3v0.1c0,0.2,0.1,0.3,0.3,0.3h3.4
	c0.2,0,0.3-0.1,0.3-0.3v-3.4c0,0,0,0,0-0.1V19.6z"/>
<path fill="#A8AAA8" d="M24.8,10.7c0,0.2-0.1,0.3-0.3,0.3h-3.6c-0.2,0-0.3-0.1-0.3-0.3v0.1c0,0.2,0.1,0.3,0.3,0.3h3.6
	c0.2,0,0.3-0.1,0.3-0.3v-2c0,0,0,0,0-0.1V10.7z"/>
<path fill="#A8AAA8" d="M46,24.3v-3.4c0,0,0,0,0-0.1v3.3c0,0.2-0.1,0.3-0.3,0.3h-3.4c-0.1,0-0.3-0.1-0.3-0.3v0.1
	c0,0.2,0.1,0.3,0.3,0.3h3.4C45.8,24.6,46,24.4,46,24.3"/>
<path fill="#A8AAA8" d="M57.3,28.8v-3.4c0,0,0,0,0-0.1v3.3c0,0.2-0.1,0.3-0.3,0.3h-3.4c-0.2,0-0.3-0.1-0.3-0.3v0.1
	c0,0.2,0.1,0.3,0.3,0.3H57C57.2,29.1,57.3,29,57.3,28.8"/>
<path fill="#A8AAA8" d="M22.9,24.3v-3.4c0,0,0,0,0-0.1v3.3c0,0.2-0.1,0.3-0.3,0.3h-3.4c-0.1,0-0.3-0.1-0.3-0.3v0.1
	c0,0.2,0.1,0.3,0.3,0.3h3.4C22.7,24.6,22.9,24.4,22.9,24.3"/>
<path fill="#A8AAA8" d="M24,15.2c0,0.2-0.1,0.3-0.3,0.3h-3.4c-0.1,0-0.3-0.1-0.3-0.3v0.1c0,0.2,0.1,0.3,0.3,0.3h3.4
	c0.2,0,0.3-0.1,0.3-0.3V12c0,0,0,0,0-0.1V15.2z"/>
<path fill="#A8AAA8" d="M28.6,15.2c0,0.2-0.1,0.3-0.3,0.3h-3.4c-0.1,0-0.3-0.1-0.3-0.3v0.1c0,0.2,0.1,0.3,0.3,0.3h3.4
	c0.2,0,0.3-0.1,0.3-0.3V12c0,0,0,0,0-0.1V15.2z"/>
<path fill="#A8AAA8" d="M1.8,24.6h6.9c0.2,0,0.3-0.1,0.3-0.3v-3.4c0,0,0,0,0-0.1v3.3c0,0.2-0.1,0.3-0.3,0.3H1.8
	c-0.1,0-0.3-0.1-0.3-0.3v0.1C1.5,24.4,1.6,24.6,1.8,24.6"/>
<path fill="#A8AAA8" d="M13.6,24.3v-3.4c0,0,0,0,0-0.1v3.3c0,0.2-0.1,0.3-0.3,0.3H9.9c-0.1,0-0.3-0.1-0.3-0.3v0.1
	c0,0.2,0.1,0.3,0.3,0.3h3.4C13.5,24.6,13.6,24.4,13.6,24.3"/>
<path fill="#A8AAA8" d="M15.8,28.8v-3.4c0,0,0,0,0-0.1v3.3c0,0.2-0.1,0.3-0.3,0.3h-3.4c-0.1,0-0.3-0.1-0.3-0.3v0.1
	c0,0.2,0.1,0.3,0.3,0.3h3.4C15.6,29.1,15.8,29,15.8,28.8"/>
<path fill="#A8AAA8" d="M52.7,28.8v-3.4c0,0,0,0,0-0.1v3.3c0,0.2-0.1,0.3-0.3,0.3H49c-0.2,0-0.3-0.1-0.3-0.3v0.1
	c0,0.2,0.1,0.3,0.3,0.3h3.4C52.6,29.1,52.7,29,52.7,28.8"/>
<path fill="#A8AAA8" d="M39.1,10.7c0,0.2-0.1,0.3-0.3,0.3h-3.6c-0.2,0-0.3-0.1-0.3-0.3v0.1c0,0.2,0.1,0.3,0.3,0.3h3.6
	c0.2,0,0.3-0.1,0.3-0.3v-2c0,0,0,0,0-0.1V10.7z"/>
<path fill="#A8AAA8" d="M34.4,10.7c0,0.2-0.1,0.3-0.3,0.3h-3.6c-0.2,0-0.3-0.1-0.3-0.3v0.1c0,0.2,0.1,0.3,0.3,0.3h3.6
	c0.2,0,0.3-0.1,0.3-0.3v-2c0,0,0,0,0-0.1V10.7z"/>
<path fill="#A8AAA8" d="M29.6,10.7c0,0.2-0.1,0.3-0.3,0.3h-3.6c-0.2,0-0.3-0.1-0.3-0.3v0.1c0,0.2,0.1,0.3,0.3,0.3h3.6
	c0.2,0,0.3-0.1,0.3-0.3v-2c0,0,0,0,0-0.1V10.7z"/>
<path fill="#A8AAA8" d="M43.9,10.7c0,0.2-0.1,0.3-0.3,0.3H40c-0.2,0-0.3-0.1-0.3-0.3v0.1c0,0.2,0.1,0.3,0.3,0.3h3.6
	c0.2,0,0.3-0.1,0.3-0.3v-2c0,0,0,0,0-0.1V10.7z"/>
<path fill="#A8AAA8" d="M58.2,10.7c0,0.2-0.1,0.3-0.3,0.3h-3.6c-0.2,0-0.3-0.1-0.3-0.3v0.1c0,0.2,0.1,0.3,0.3,0.3h3.6
	c0.2,0,0.3-0.1,0.3-0.3v-2c0,0,0,0,0-0.1V10.7z"/>
<path fill="#A8AAA8" d="M63,10.7c0,0.2-0.1,0.3-0.3,0.3h-3.6c-0.1,0-0.3-0.1-0.3-0.3v0.1c0,0.2,0.1,0.3,0.3,0.3h3.6
	c0.2,0,0.3-0.1,0.3-0.3v-2c0,0,0,0,0-0.1V10.7z"/>
<path fill="#A8AAA8" d="M53.5,10.7c0,0.2-0.1,0.3-0.3,0.3h-3.6c-0.2,0-0.3-0.1-0.3-0.3v0.1c0,0.2,0.1,0.3,0.3,0.3h3.6
	c0.2,0,0.3-0.1,0.3-0.3v-2c0,0,0,0,0-0.1V10.7z"/>
<path fill="#A8AAA8" d="M48.7,10.7c0,0.2-0.1,0.3-0.3,0.3h-3.6c-0.2,0-0.3-0.1-0.3-0.3v0.1c0,0.2,0.1,0.3,0.3,0.3h3.6
	c0.2,0,0.3-0.1,0.3-0.3v-2c0,0,0,0,0-0.1V10.7z"/>
</svg>
