<?xml version="1.0" encoding="utf-8"?>
<!-- Generator: Adobe Illustrator 15.0.2, SVG Export Plug-In . SVG Version: 6.00 Build 0)  -->
<!DOCTYPE svg PUBLIC "-//W3C//DTD SVG 1.1//EN" "http://www.w3.org/Graphics/SVG/1.1/DTD/svg11.dtd">
<svg version="1.1" id="Layer_1" xmlns="http://www.w3.org/2000/svg" xmlns:xlink="http://www.w3.org/1999/xlink" x="0px" y="0px"
	 width="42.2px" height="57.5px" viewBox="0 0 42.2 57.5" enable-background="new 0 0 42.2 57.5" xml:space="preserve">
<path fill="#F8F5EF" d="M42.2,9.4c0,1.3-1,2.3-2.3,2.3H2.4c-1.3,0-2.3-1-2.3-2.3v-7C0.1,1,1.1,0,2.4,0h37.5c1.3,0,2.3,1,2.3,2.3V9.4
	z"/>
<path fill="#444142" d="M41.1,57.2c0,0.2-0.2,0.4-0.4,0.4H1.4c-0.2,0-0.4-0.2-0.4-0.4V15.3C1,15.1,1.2,15,1.4,15h39.4
	c0.2,0,0.4,0.2,0.4,0.4V57.2z"/>
<path fill="#CFBEB1" d="M42.1,56.3c0,0.2-0.2,0.4-0.4,0.4H0.4c-0.2,0-0.4-0.2-0.4-0.4V12.4C0,12.2,0.2,12,0.4,12h41.3
	c0.2,0,0.4,0.2,0.4,0.4V56.3z"/>
<path fill="#D8CBC1" d="M42.1,50.1c0,0.2-0.2,0.4-0.4,0.4H0.4c-0.2,0-0.4-0.2-0.4-0.4V6.2C0,6,0.2,5.8,0.4,5.8h41.3
	c0.2,0,0.4,0.2,0.4,0.4V50.1z"/>
<path fill="#EDE6D8" d="M42.1,47.5c0,0.2-0.2,0.4-0.4,0.4H0.4c-0.2,0-0.4-0.2-0.4-0.4V3.6c0-0.2,0.2-0.4,0.4-0.4h41.3
	c0.2,0,0.4,0.2,0.4,0.4V47.5z"/>
<path fill="#F8F5EF" d="M38.4,6.8v25.8c0,0.2-0.2,0.4-0.4,0.4H4c-0.1,0-0.2,0-0.3-0.1L38.3,6.5C38.4,6.6,38.4,6.7,38.4,6.8"/>
<path fill="#CFBEB1" d="M3.7,32.5V6.8c0-0.2,0.2-0.4,0.4-0.4h34c0.1,0,0.2,0,0.3,0.1L3.8,32.8C3.7,32.8,3.7,32.7,3.7,32.5"/>
<path fill="#231F20" d="M37.4,29.1c0,1.1-0.9,1.9-1.9,1.9H6.7c-1.1,0-1.9-0.9-1.9-1.9V9.2c0-1.1,0.9-1.9,1.9-1.9h28.8
	c1.1,0,1.9,0.9,1.9,1.9V29.1z"/>
<path fill="#F8F5EF" d="M38,38.5l-6.5,3.4c0.1,0.1,0.3,0.2,0.5,0.2h5.5c0.4,0,0.8-0.3,0.8-0.8v-2.2C38.3,38.8,38.2,38.6,38,38.5"/>
<path fill="#CFBEB1" d="M37.5,38.3H32c-0.4,0-0.8,0.3-0.8,0.8v2.2c0,0.2,0.1,0.5,0.3,0.6l6.5-3.4C37.9,38.4,37.7,38.3,37.5,38.3"/>
<rect x="21.5" y="39.7" fill="#231F20" width="15.8" height="0.9"/>
<path fill="#C82257" d="M3.9,39.7h2c-0.2-0.3-0.6-0.6-1-0.6C4.5,39.1,4.1,39.3,3.9,39.7"/>
<path fill="#E1856C" d="M3.8,40.2h2.3c0-0.2-0.1-0.4-0.2-0.6h-2C3.8,39.8,3.8,40,3.8,40.2"/>
<path fill="#597F5C" d="M3.9,40.8h2c0.1-0.2,0.2-0.4,0.2-0.6H3.8C3.8,40.4,3.8,40.6,3.9,40.8"/>
<path fill="#1498C3" d="M5.9,40.8h-2c0.2,0.3,0.6,0.6,1,0.6C5.4,41.4,5.7,41.1,5.9,40.8"/>
<rect x="32.3" y="53.1" fill="#5E411A" width="2.3" height="1.3"/>
<rect x="35.8" y="52.3" fill="#252A26" width="2.3" height="2.7"/>
<rect x="36.2" y="53.2" fill="#231F20" width="1.5" height="1.8"/>
<rect x="5.8" y="9.1" fill="#A1D6E7" width="30.6" height="20.1"/>
<rect x="6.2" y="9.4" fill="#A7A5A6" width="29.8" height="1.5"/>
<rect x="32.8" y="12.5" fill="#A7A5A6" width="2" height="2"/>
<rect x="32.9" y="16" fill="#A7A5A6" width="1.9" height="1.9"/>
</svg>
