<?xml version="1.0" encoding="utf-8"?>
<!-- Generator: Adobe Illustrator 15.0.2, SVG Export Plug-In . SVG Version: 6.00 Build 0)  -->
<!DOCTYPE svg PUBLIC "-//W3C//DTD SVG 1.1//EN" "http://www.w3.org/Graphics/SVG/1.1/DTD/svg11.dtd">
<svg version="1.1" id="Layer_1" xmlns="http://www.w3.org/2000/svg" xmlns:xlink="http://www.w3.org/1999/xlink" x="0px" y="0px"
	 width="72.5px" height="42.1px" viewBox="0 0 72.5 42.1" enable-background="new 0 0 72.5 42.1" xml:space="preserve">
<path fill="#231F20" d="M68.5,38.3c0,0.7-0.6,1.4-1.4,1.4H5.4c-0.7,0-1.4-0.6-1.4-1.4v-37C4,0.6,4.6,0,5.4,0h61.8
	c0.7,0,1.4,0.6,1.4,1.4V38.3z"/>
<path fill="#DEDDDE" d="M72.5,37.9v1.9c0,0.9-0.8,1.7-1.7,1.7H1.7c-0.9,0-1.7-0.8-1.7-1.7v-1.9H72.5z"/>
<path fill="#231F20" d="M8.3,41.5c0,0.3-0.9,0.6-2.1,0.6c-1.1,0-2.1-0.3-2.1-0.6H8.3z"/>
<path fill="#231F20" d="M68.5,41.5c0,0.3-0.9,0.6-2.1,0.6c-1.1,0-2.1-0.3-2.1-0.6H68.5z"/>
<path fill="#C8C7C7" d="M42.4,37.9L42.4,37.9c0,0.6-0.4,1.1-0.8,1.1H31c-0.5,0-0.8-0.5-0.8-1.1"/>
<path fill="#F4F4F4" d="M41.5,39H31c-0.4,0-0.7-0.4-0.8-0.9h0c0,0.6,0.4,1.1,0.8,1.1h10.6c0.5,0,0.8-0.5,0.8-1.1h0
	C42.3,38.6,42,39,41.5,39"/>
<path fill="#656263" d="M36.6,1.5c0,0.2-0.2,0.4-0.4,0.4s-0.4-0.2-0.4-0.4s0.2-0.4,0.4-0.4S36.6,1.2,36.6,1.5"/>
<path fill="#5BB7D5" d="M36.4,1.5c0,0.1-0.1,0.2-0.2,0.2s-0.2-0.1-0.2-0.2s0.1-0.2,0.2-0.2S36.4,1.3,36.4,1.5"/>
<path fill="#E8F5F9" d="M36.3,1.4C36.3,1.5,36.2,1.5,36.3,1.4c-0.1,0.1-0.1,0-0.1,0S36.1,1.4,36.3,1.4C36.2,1.4,36.3,1.4,36.3,1.4"
	/>
<path fill="#656263" d="M38.6,1.5c0,0.1-0.1,0.2-0.2,0.2h-0.8c-0.1,0-0.2-0.1-0.2-0.2s0.1-0.2,0.2-0.2h0.8
	C38.6,1.3,38.6,1.4,38.6,1.5"/>
<g opacity="0.3">
	<g>
		<defs>
			<rect id="SVGID_1_" x="0" y="37.9" width="72.5" height="3.5"/>
		</defs>
		<clipPath id="SVGID_2_">
			<use xlink:href="#SVGID_1_"  overflow="visible"/>
		</clipPath>
		<rect x="0.3" y="37.9" clip-path="url(#SVGID_2_)" fill="#DEDDDE" width="0" height="2.9"/>
		<rect x="72.2" y="37.9" clip-path="url(#SVGID_2_)" fill="#DEDDDE" width="0" height="2.9"/>
		<path clip-path="url(#SVGID_2_)" fill="#656263" d="M72.2,37.9v2.9c0.2-0.3,0.3-0.6,0.3-1v-1.9H72.2z"/>
		<path clip-path="url(#SVGID_2_)" fill="#A7A5A6" d="M71.5,37.9v3.5c0.3-0.1,0.5-0.3,0.7-0.6v-2.9H71.5z"/>
		<path clip-path="url(#SVGID_2_)" fill="#FFFFFF" d="M71.5,37.9h-0.2v3.5c0,0,0.1,0,0.2,0V37.9z"/>
		<path clip-path="url(#SVGID_2_)" fill="#656263" d="M0,37.9v1.9c0,0.4,0.1,0.7,0.3,1v-2.9H0z"/>
		<path clip-path="url(#SVGID_2_)" fill="#A7A5A6" d="M1,41.4v-3.5H0.3v2.9C0.5,41,0.8,41.2,1,41.4"/>
		<path clip-path="url(#SVGID_2_)" fill="#FFFFFF" d="M1,37.9v3.5c0,0,0.1,0,0.2,0v-3.5H1z"/>
	</g>
</g>
<path fill="#A7A5A6" d="M71.8,41.1L71.8,41.1c0,0.2-0.8,0.4-1,0.4H1.5c-0.2,0-1-0.2-1-0.4"/>
<rect x="6.3" y="3.2" fill="#C0D1DA" width="60.2" height="32"/>
<rect x="33.1" y="36.2" fill="#A7A5A6" width="4.5" height="0.7"/>
<rect x="38" y="36.2" fill="#A7A5A6" width="1.3" height="0.7"/>
<path fill="#393536" d="M65.6,39.5c0,0.1,0.2,0.1,0.3,0.1h2.8c0.2,0,0.3-0.1,0.3-0.1c0-0.1-0.2-0.1-0.3-0.1h-2.8
	C65.7,39.3,65.6,39.4,65.6,39.5"/>
<rect x="6.6" y="3.5" fill="#A0BBC7" width="59.4" height="0.8"/>
<path fill="#C0D1DA" d="M7.4,3.9c0,0.1-0.1,0.3-0.3,0.3C7,4.2,6.9,4,6.9,3.9c0-0.1,0.1-0.3,0.3-0.3C7.3,3.7,7.4,3.8,7.4,3.9"/>
<rect x="65.4" y="3.7" fill="#C0D1DA" width="0.4" height="0.4"/>
<rect x="64.8" y="3.7" fill="#C0D1DA" width="0.4" height="0.4"/>
<rect x="64.2" y="3.7" fill="#C0D1DA" width="0.4" height="0.4"/>
<polygon fill="#A0BBC7" points="57.3,32.6 36.4,32.6 35.9,32.6 15.1,32.6 11.5,34.7 35.9,34.7 36.4,34.7 60.8,34.7 "/>
<path fill="#A0BBC7" d="M16.9,33.8c-0.2,0-0.4-0.2-0.4-0.4V31c0-0.2,0.2-0.4,0.4-0.4h2.4c0.2,0,0.4,0.2,0.4,0.4v2.4
	c0,0.2-0.2,0.4-0.4,0.4H16.9z"/>
<path fill="#C0D1DA" d="M19.3,30.7c0.2,0,0.3,0.1,0.3,0.3v2.4c0,0.2-0.1,0.3-0.3,0.3h-2.4c-0.2,0-0.3-0.1-0.3-0.3V31
	c0-0.2,0.1-0.3,0.3-0.3H19.3 M19.3,30.4h-2.4c-0.3,0-0.6,0.3-0.6,0.6v2.4c0,0.3,0.3,0.6,0.6,0.6h2.4c0.3,0,0.6-0.3,0.6-0.6V31
	C19.9,30.6,19.6,30.4,19.3,30.4"/>
<path fill="#A0BBC7" d="M22.8,33.7c-0.2,0-0.4-0.2-0.4-0.4v-2.4c0-0.2,0.2-0.4,0.4-0.4h2.4c0.2,0,0.4,0.2,0.4,0.4v2.4
	c0,0.2-0.2,0.4-0.4,0.4H22.8z"/>
<path fill="#C0D1DA" d="M25.2,30.5c0.2,0,0.3,0.1,0.3,0.3v2.4c0,0.2-0.1,0.3-0.3,0.3h-2.4c-0.2,0-0.3-0.1-0.3-0.3v-2.4
	c0-0.2,0.1-0.3,0.3-0.3H25.2 M25.2,30.2h-2.4c-0.3,0-0.6,0.3-0.6,0.6v2.4c0,0.3,0.3,0.6,0.6,0.6h2.4c0.3,0,0.6-0.3,0.6-0.6v-2.4
	C25.8,30.5,25.6,30.2,25.2,30.2"/>
<path fill="#A0BBC7" d="M28.7,33.8c-0.2,0-0.4-0.2-0.4-0.4V31c0-0.2,0.2-0.4,0.4-0.4h2.4c0.2,0,0.4,0.2,0.4,0.4v2.4
	c0,0.2-0.2,0.4-0.4,0.4H28.7z"/>
<path fill="#C0D1DA" d="M31.1,30.7c0.2,0,0.3,0.1,0.3,0.3v2.4c0,0.2-0.1,0.3-0.3,0.3h-2.4c-0.2,0-0.3-0.1-0.3-0.3V31
	c0-0.2,0.1-0.3,0.3-0.3H31.1 M31.1,30.4h-2.4c-0.3,0-0.6,0.3-0.6,0.6v2.4c0,0.3,0.3,0.6,0.6,0.6h2.4c0.3,0,0.6-0.3,0.6-0.6V31
	C31.7,30.6,31.5,30.4,31.1,30.4"/>
<path fill="#A0BBC7" d="M34.6,33.8c-0.2,0-0.4-0.2-0.4-0.4V31c0-0.2,0.2-0.4,0.4-0.4h2.4c0.2,0,0.4,0.2,0.4,0.4v2.4
	c0,0.2-0.2,0.4-0.4,0.4H34.6z"/>
<path fill="#C0D1DA" d="M37.1,30.7c0.2,0,0.3,0.1,0.3,0.3v2.4c0,0.2-0.1,0.3-0.3,0.3h-2.4c-0.2,0-0.3-0.1-0.3-0.3V31
	c0-0.2,0.1-0.3,0.3-0.3H37.1 M37.1,30.4h-2.4c-0.3,0-0.6,0.3-0.6,0.6v2.4c0,0.3,0.3,0.6,0.6,0.6h2.4c0.3,0,0.6-0.3,0.6-0.6V31
	C37.6,30.6,37.4,30.4,37.1,30.4"/>
<path fill="#A0BBC7" d="M40.5,33.8c-0.2,0-0.4-0.2-0.4-0.4V31c0-0.2,0.2-0.4,0.4-0.4H43c0.2,0,0.4,0.2,0.4,0.4v2.4
	c0,0.2-0.2,0.4-0.4,0.4H40.5z"/>
<path fill="#C0D1DA" d="M43,30.7c0.2,0,0.3,0.1,0.3,0.3v2.4c0,0.2-0.1,0.3-0.3,0.3h-2.4c-0.2,0-0.3-0.1-0.3-0.3V31
	c0-0.2,0.1-0.3,0.3-0.3H43 M43,30.4h-2.4c-0.3,0-0.6,0.3-0.6,0.6v2.4c0,0.3,0.3,0.6,0.6,0.6H43c0.3,0,0.6-0.3,0.6-0.6V31
	C43.6,30.6,43.3,30.4,43,30.4"/>
<path fill="#A0BBC7" d="M46.4,33.8c-0.2,0-0.4-0.2-0.4-0.4V31c0-0.2,0.2-0.4,0.4-0.4h2.4c0.2,0,0.4,0.2,0.4,0.4v2.4
	c0,0.2-0.2,0.4-0.4,0.4H46.4z"/>
<path fill="#C0D1DA" d="M48.9,30.7c0.2,0,0.3,0.1,0.3,0.3v2.4c0,0.2-0.1,0.3-0.3,0.3h-2.4c-0.2,0-0.3-0.1-0.3-0.3V31
	c0-0.2,0.1-0.3,0.3-0.3H48.9 M48.9,30.4h-2.4c-0.3,0-0.6,0.3-0.6,0.6v2.4c0,0.3,0.3,0.6,0.6,0.6h2.4c0.3,0,0.6-0.3,0.6-0.6V31
	C49.5,30.6,49.2,30.4,48.9,30.4"/>
<path fill="#A0BBC7" d="M52.4,33.8c-0.2,0-0.4-0.2-0.4-0.4V31c0-0.2,0.2-0.4,0.4-0.4h2.4c0.2,0,0.4,0.2,0.4,0.4v2.4
	c0,0.2-0.2,0.4-0.4,0.4H52.4z"/>
<path fill="#C0D1DA" d="M54.8,30.7c0.2,0,0.3,0.1,0.3,0.3v2.4c0,0.2-0.1,0.3-0.3,0.3h-2.4c-0.2,0-0.3-0.1-0.3-0.3V31
	c0-0.2,0.1-0.3,0.3-0.3H54.8 M54.8,30.4h-2.4c-0.3,0-0.6,0.3-0.6,0.6v2.4c0,0.3,0.3,0.6,0.6,0.6h2.4c0.3,0,0.6-0.3,0.6-0.6V31
	C55.4,30.6,55.1,30.4,54.8,30.4"/>
</svg>
