<?xml version="1.0" encoding="utf-8"?>
<!-- Generator: Adobe Illustrator 15.0.2, SVG Export Plug-In . SVG Version: 6.00 Build 0)  -->
<!DOCTYPE svg PUBLIC "-//W3C//DTD SVG 1.1//EN" "http://www.w3.org/Graphics/SVG/1.1/DTD/svg11.dtd">
<svg version="1.1" id="Layer_1" xmlns="http://www.w3.org/2000/svg" xmlns:xlink="http://www.w3.org/1999/xlink" x="0px" y="0px"
	 width="59.3px" height="41.1px" viewBox="0 0 59.3 41.1" enable-background="new 0 0 59.3 41.1" xml:space="preserve">
<path fill="#E9E9E9" d="M59.1,28.7c-0.3-4.7-3.4-14.3-5.6-20.8C51.3,1.4,45.6,0,45.6,0h-3.4c0,0-1.9,1.4-2.9,2.5
	c-1.1,1.1-3.9,1.7-3.9,1.7h-5.8h-5.8c0,0-2.8-0.6-3.9-1.7C18.8,1.4,17,0,17,0h-3.4c0,0-5.7,1.4-7.8,7.9C3.6,14.4,0.5,24,0.2,28.7
	s-0.9,13.8,4,12.2c4.9-1.5,11.5-7.9,11.5-7.9s3.2-3.6,7.5-3.6h6.4H36c4.3,0,7.5,3.6,7.5,3.6S50.1,39.4,55,41
	C60,42.5,59.3,33.4,59.1,28.7 M29.6,15.7c-2,0-3.7-1.7-3.7-3.7c0-2.1,1.7-3.7,3.7-3.7c2,0,3.7,1.7,3.7,3.7
	C33.3,14,31.7,15.7,29.6,15.7"/>
<path fill="#A0A96A" d="M33.6,11.9c0,2.2-1.8,4-4,4c-2.2,0-4-1.8-4-4c0-2.2,1.8-4,4-4C31.8,8,33.6,9.7,33.6,11.9"/>
<path fill="#D9DDC3" d="M29.6,10.6c0,0.7-0.6,1.3-1.3,1.3c-0.7,0-1.3-0.6-1.3-1.3c0-0.7,0.6-1.3,1.3-1.3C29,9.3,29.6,9.8,29.6,10.6"
	/>
<g>
	<g>
		<defs>
			<rect id="SVGID_1_" x="26.7" y="8.6" width="6.9" height="7.3"/>
		</defs>
		<clipPath id="SVGID_2_">
			<use xlink:href="#SVGID_1_"  overflow="visible"/>
		</clipPath>
		<path clip-path="url(#SVGID_2_)" fill="#A0A96A" d="M31.8,8.6c0.6,0.7,1,1.6,1,2.6c0,2.2-1.8,4-4,4c-0.8,0-1.6-0.2-2.2-0.7
			c0.7,0.8,1.8,1.4,3,1.4c2.2,0,4-1.8,4-4C33.6,10.5,32.9,9.3,31.8,8.6"/>
	</g>
</g>
<path fill="#303531" d="M20.7,26.7c-0.4,0-0.7-0.3-0.7-0.7v-2.2h-2.2c-0.4,0-0.7-0.3-0.7-0.7v-1.5c0-0.4,0.3-0.7,0.7-0.7H20v-2.2
	c0-0.4,0.3-0.7,0.7-0.7h1.5c0.4,0,0.7,0.3,0.7,0.7v2.2h2.2c0.4,0,0.7,0.3,0.7,0.7V23c0,0.4-0.3,0.7-0.7,0.7H23V26
	c0,0.4-0.3,0.7-0.7,0.7H20.7z"/>
<path fill="#464A47" d="M22.3,18c0.3,0,0.6,0.3,0.6,0.6v2.1v0.2h0.2h2.1c0.3,0,0.6,0.3,0.6,0.6V23c0,0.3-0.3,0.6-0.6,0.6h-2.1h-0.2
	v0.2V26c0,0.3-0.3,0.6-0.6,0.6h-1.5c-0.3,0-0.6-0.3-0.6-0.6v-2.1v-0.2h-0.2h-2.1c-0.3,0-0.6-0.3-0.6-0.6v-1.5c0-0.3,0.3-0.6,0.6-0.6
	h2.1h0.2v-0.2v-2.1c0-0.3,0.3-0.6,0.6-0.6H22.3 M22.3,17.7h-1.5c-0.5,0-0.9,0.4-0.9,0.9v2.1h-2.1c-0.5,0-0.9,0.4-0.9,0.9V23
	c0,0.5,0.4,0.9,0.9,0.9h2.1V26c0,0.5,0.4,0.9,0.9,0.9h1.5c0.5,0,0.9-0.4,0.9-0.9v-2.1h2.1c0.5,0,0.9-0.4,0.9-0.9v-1.5
	c0-0.5-0.4-0.9-0.9-0.9h-2.1v-2.1C23.1,18.1,22.7,17.7,22.3,17.7"/>
<path fill="#231F20" d="M21,22.3c0-0.4,0.3-0.7,0.7-0.7c0.2,0,0.3,0.1,0.4,0.2c-0.1-0.2-0.3-0.4-0.6-0.4c-0.4,0-0.7,0.3-0.7,0.7
	c0,0.2,0.1,0.4,0.3,0.5C21.1,22.5,21,22.4,21,22.3"/>
<path fill="#D3D2D2" d="M11.8,0.7c-1.8,1-4.6,3-6,7.1C3.6,14.4,0.5,24,0.2,28.7c-0.3,4.7-0.9,13.8,4,12.2c0.5-0.2,1.1-0.4,1.6-0.6
	C-2.1,34.3,8.5,8.3,11.8,0.7"/>
<path fill="#D3D2D2" d="M37.9,29.7c3.3,0.8,5.6,3.4,5.6,3.4S50.1,39.4,55,41c1.9,0.6,2.9-0.4,3.5-2c-4.5-0.1-8.3-4.6-10.8-6.9
	C46.2,30.6,41.8,30,37.9,29.7"/>
<g opacity="0.3">
	<g>
		<defs>
			<rect id="SVGID_3_" x="47.5" y="0.7" width="11.8" height="40.4"/>
		</defs>
		<clipPath id="SVGID_4_">
			<use xlink:href="#SVGID_3_"  overflow="visible"/>
		</clipPath>
		<path clip-path="url(#SVGID_4_)" fill="#D3D2D2" d="M47.5,0.7c1.8,1,4.6,3,6,7.1c2.2,6.5,5.3,16.2,5.6,20.8
			c0.3,4.7,0.9,13.8-4,12.2c-0.5-0.2-1.1-0.4-1.6-0.6C61.3,34.3,50.8,8.3,47.5,0.7"/>
	</g>
</g>
<g opacity="0.3">
	<g>
		<defs>
			<rect id="SVGID_5_" x="0.8" y="29.7" width="20.7" height="11.5"/>
		</defs>
		<clipPath id="SVGID_6_">
			<use xlink:href="#SVGID_5_"  overflow="visible"/>
		</clipPath>
		<path clip-path="url(#SVGID_6_)" fill="#D3D2D2" d="M21.5,29.7c-3.3,0.8-5.6,3.4-5.6,3.4S9.3,39.4,4.4,41c-1.9,0.6-2.9-0.4-3.5-2
			c4.5-0.1,8.3-4.6,10.8-6.9C13.2,30.6,17.6,30,21.5,29.7"/>
	</g>
</g>
<path fill="#252A26" d="M10.6,10.5c0-2.1,1.7-3.9,3.9-3.9c2.1,0,3.9,1.7,3.9,3.9c0,2.1-1.7,3.9-3.9,3.9
	C12.3,14.4,10.6,12.7,10.6,10.5"/>
<g>
	<g>
		<defs>
			<rect id="SVGID_7_" x="11.5" y="7.3" width="5.2" height="5.1"/>
		</defs>
		<clipPath id="SVGID_8_">
			<use xlink:href="#SVGID_7_"  overflow="visible"/>
		</clipPath>
		<path clip-path="url(#SVGID_8_)" fill="#252A26" d="M12,11c0-1.6,1.2-2.9,2.8-2.9c0.7,0,1.4,0.3,1.8,0.8c-0.5-0.9-1.4-1.5-2.4-1.5
			c-1.5,0-2.8,1.3-2.8,2.9c0,0.9,0.4,1.6,0.9,2.2C12.2,12,12,11.5,12,11"/>
	</g>
</g>
<path fill="#231F20" d="M11.7,10.5c0-1.5,1.2-2.8,2.8-2.8c1.5,0,2.8,1.2,2.8,2.8s-1.2,2.8-2.8,2.8C12.9,13.3,11.7,12.1,11.7,10.5"/>
<g>
	<g>
		<defs>
			<rect id="SVGID_9_" x="12" y="8.4" width="5.7" height="5.3"/>
		</defs>
		<clipPath id="SVGID_10_">
			<use xlink:href="#SVGID_9_"  overflow="visible"/>
		</clipPath>
		<path clip-path="url(#SVGID_10_)" fill="#252A26" d="M17,9.9c0,1.7-1.4,3-3,3c-0.8,0-1.5-0.3-2-0.8c0.5,0.9,1.5,1.6,2.6,1.6
			c1.7,0,3-1.4,3-3c0-0.9-0.4-1.7-1-2.2C16.9,8.9,17,9.4,17,9.9"/>
	</g>
</g>
<path fill="#252A26" d="M33.9,22.3c0-2.1,1.7-3.9,3.9-3.9c2.1,0,3.9,1.7,3.9,3.9c0,2.1-1.7,3.9-3.9,3.9
	C35.6,26.1,33.9,24.4,33.9,22.3"/>
<g>
	<g>
		<defs>
			<rect id="SVGID_11_" x="34.8" y="19.1" width="5.2" height="5.1"/>
		</defs>
		<clipPath id="SVGID_12_">
			<use xlink:href="#SVGID_11_"  overflow="visible"/>
		</clipPath>
		<path clip-path="url(#SVGID_12_)" fill="#252A26" d="M35.4,22.8c0-1.6,1.2-2.9,2.8-2.9c0.7,0,1.4,0.3,1.8,0.8
			c-0.5-0.9-1.4-1.5-2.4-1.5c-1.5,0-2.8,1.3-2.8,2.9c0,0.9,0.4,1.6,0.9,2.2C35.5,23.8,35.4,23.3,35.4,22.8"/>
	</g>
</g>
<path fill="#231F20" d="M35,22.3c0-1.5,1.2-2.8,2.8-2.8c1.5,0,2.8,1.2,2.8,2.8c0,1.5-1.2,2.8-2.8,2.8C36.3,25,35,23.8,35,22.3"/>
<g>
	<g>
		<defs>
			<rect id="SVGID_13_" x="35.3" y="20.2" width="5.7" height="5.3"/>
		</defs>
		<clipPath id="SVGID_14_">
			<use xlink:href="#SVGID_13_"  overflow="visible"/>
		</clipPath>
		<path clip-path="url(#SVGID_14_)" fill="#252A26" d="M40.3,21.6c0,1.7-1.4,3-3,3c-0.8,0-1.5-0.3-2-0.8c0.5,0.9,1.5,1.6,2.6,1.6
			c1.7,0,3-1.4,3-3c0-0.9-0.4-1.7-1-2.2C40.2,20.6,40.3,21.1,40.3,21.6"/>
	</g>
</g>
<path fill="#A82526" d="M49.6,10.7c0.1,0.9-0.5,1.7-1.4,1.8c-0.9,0.1-1.7-0.5-1.8-1.4c-0.1-0.9,0.5-1.7,1.4-1.8
	C48.6,9.2,49.5,9.8,49.6,10.7"/>
<path fill="#DCA8A8" d="M47.9,10.3c0,0.3-0.2,0.6-0.5,0.6c-0.3,0-0.6-0.2-0.6-0.5c0-0.3,0.2-0.6,0.5-0.6S47.9,10.1,47.9,10.3"/>
<g>
	<g>
		<defs>
			<rect id="SVGID_15_" x="47" y="9.4" width="2.6" height="3"/>
		</defs>
		<clipPath id="SVGID_16_">
			<use xlink:href="#SVGID_15_"  overflow="visible"/>
		</clipPath>
		<path clip-path="url(#SVGID_16_)" fill="#A82526" d="M48.7,9.4c0.3,0.2,0.5,0.6,0.5,1c0.1,0.9-0.5,1.7-1.4,1.8
			c-0.3,0-0.6,0-0.9-0.1c0.3,0.3,0.8,0.4,1.3,0.4c0.9-0.1,1.5-0.9,1.4-1.8C49.5,10.1,49.1,9.7,48.7,9.4"/>
	</g>
</g>
<path fill="#00587E" d="M43.4,11.6c0.1,0.9-0.5,1.7-1.4,1.8c-0.9,0.1-1.7-0.5-1.8-1.4c-0.1-0.9,0.5-1.7,1.4-1.8
	C42.5,10.2,43.3,10.8,43.4,11.6"/>
<path fill="#99BCCB" d="M41.8,11.3c0,0.3-0.2,0.6-0.5,0.6c-0.3,0-0.6-0.2-0.6-0.5c0-0.3,0.2-0.6,0.5-0.6
	C41.5,10.8,41.7,11,41.8,11.3"/>
<g>
	<g>
		<defs>
			<rect id="SVGID_17_" x="40.8" y="10.4" width="2.6" height="3"/>
		</defs>
		<clipPath id="SVGID_18_">
			<use xlink:href="#SVGID_17_"  overflow="visible"/>
		</clipPath>
		<path clip-path="url(#SVGID_18_)" fill="#00587E" d="M42.5,10.4c0.3,0.2,0.5,0.6,0.5,1c0.1,0.9-0.5,1.7-1.4,1.8
			c-0.3,0-0.6,0-0.9-0.1c0.3,0.3,0.8,0.4,1.3,0.4c0.9-0.1,1.5-0.9,1.4-1.8C43.3,11.1,43,10.7,42.5,10.4"/>
	</g>
</g>
<path fill="#EBD467" d="M46.1,7.4c0.1,0.9-0.5,1.7-1.4,1.8c-0.9,0.1-1.7-0.5-1.8-1.4c-0.1-0.9,0.5-1.7,1.4-1.8
	C45.1,5.9,45.9,6.5,46.1,7.4"/>
<path fill="#F7EEC2" d="M44.4,7c0,0.3-0.2,0.6-0.5,0.6c-0.3,0-0.6-0.2-0.6-0.5c0-0.3,0.2-0.6,0.5-0.6C44.1,6.5,44.4,6.8,44.4,7"/>
<g>
	<g>
		<defs>
			<rect id="SVGID_19_" x="43.4" y="6.1" width="2.6" height="3"/>
		</defs>
		<clipPath id="SVGID_20_">
			<use xlink:href="#SVGID_19_"  overflow="visible"/>
		</clipPath>
		<path clip-path="url(#SVGID_20_)" fill="#EBD467" d="M45.2,6.1c0.3,0.2,0.5,0.6,0.5,1c0.1,0.9-0.5,1.7-1.4,1.8
			c-0.3,0-0.6,0-0.9-0.1c0.3,0.3,0.8,0.4,1.3,0.4c0.9-0.1,1.5-0.9,1.4-1.8C46,6.8,45.6,6.4,45.2,6.1"/>
	</g>
</g>
<path fill="#005757" d="M47.1,14.9c0.1,0.9-0.5,1.7-1.4,1.8c-0.9,0.1-1.7-0.5-1.8-1.4c-0.1-0.9,0.5-1.7,1.4-1.8
	C46.2,13.4,47,14,47.1,14.9"/>
<path fill="#99BCBC" d="M45.5,14.6c0,0.3-0.2,0.6-0.5,0.6s-0.6-0.2-0.6-0.5c0-0.3,0.2-0.6,0.5-0.6S45.4,14.3,45.5,14.6"/>
<g>
	<g>
		<defs>
			<rect id="SVGID_21_" x="44.5" y="13.7" width="2.6" height="3"/>
		</defs>
		<clipPath id="SVGID_22_">
			<use xlink:href="#SVGID_21_"  overflow="visible"/>
		</clipPath>
		<path clip-path="url(#SVGID_22_)" fill="#005757" d="M46.2,13.7c0.3,0.2,0.5,0.6,0.5,1c0.1,0.9-0.5,1.7-1.4,1.8
			c-0.3,0-0.6,0-0.9-0.1c0.3,0.3,0.8,0.4,1.3,0.4c0.9-0.1,1.5-0.9,1.4-1.8C47,14.3,46.7,13.9,46.2,13.7"/>
	</g>
</g>
</svg>
