<?xml version="1.0" encoding="utf-8"?>
<!-- Generator: Adobe Illustrator 15.0.2, SVG Export Plug-In . SVG Version: 6.00 Build 0)  -->
<!DOCTYPE svg PUBLIC "-//W3C//DTD SVG 1.1//EN" "http://www.w3.org/Graphics/SVG/1.1/DTD/svg11.dtd">
<svg version="1.1" id="Layer_1" xmlns="http://www.w3.org/2000/svg" xmlns:xlink="http://www.w3.org/1999/xlink" x="0px" y="0px"
	 width="33.9px" height="55.8px" viewBox="0 0 33.9 55.8" enable-background="new 0 0 33.9 55.8" xml:space="preserve">
<path fill="#E8E9E8" d="M32.2,0H1.7C0.8,0,0,0.8,0,1.7v52.3c0,1,0.8,1.7,1.7,1.7h24.9c4,0,7.2-3.2,7.2-7.2V1.7
	C33.9,0.8,33.1,0,32.2,0"/>
<polygon fill="#C8CBC8" points="31.4,2.7 31.4,0.3 30.9,0.3 30.9,2.7 3.1,2.7 3.1,0.3 2.7,0.3 2.7,2.7 0.3,2.7 0.3,3.1 33.5,3.1 
	33.5,2.7 "/>
<path fill="#B1B5B0" d="M4.3,1.9c0-0.4,0.3-0.8,0.8-0.8h5.2c0,0,0.1,0,0.1,0c-0.1-0.2-0.3-0.3-0.6-0.3H4.7C4.3,0.8,4,1.1,4,1.5
	c0,0.2,0.1,0.4,0.3,0.6C4.3,2,4.3,1.9,4.3,1.9"/>
<rect x="3.1" y="2.7" fill="#828981" width="27.9" height="0.1"/>
<rect x="31.4" y="2.7" fill="#828981" width="2.2" height="0.1"/>
<rect x="0.3" y="2.7" fill="#828981" width="2.3" height="0.1"/>
<polyline fill="#828981" points="31.3,22.5 31.3,22.5 31.3,22.5 31.3,22.5 "/>
<path fill="#918F90" d="M30.2,5H3.7c-0.6,0-1,0.5-1,1v19.8c0,0.6,0.5,1,1,1h23.2c2.4,0,4.4-2,4.4-4.4v0V6C31.3,5.4,30.8,5,30.2,5"/>
<path fill="#A0A96A" d="M8.2,24c-0.1,0-0.2-0.1-0.2-0.2V8c0-0.1,0.1-0.2,0.2-0.2h17.4c0.1,0,0.2,0.1,0.2,0.2v15.9
	c0,0.1-0.1,0.2-0.2,0.2H8.2z"/>
<path fill="#231F20" d="M25.7,8L25.7,8v15.9H8.2V8H25.7 M25.7,7.6H8.2C8,7.6,7.9,7.8,7.9,8v15.9c0,0.2,0.2,0.3,0.3,0.3h17.4
	c0.2,0,0.3-0.2,0.3-0.3V8C26,7.8,25.9,7.6,25.7,7.6"/>
<path fill="#231F20" d="M5.5,12.5c0,0,0.1,0,0.1,0c-0.1-0.1-0.2-0.1-0.4-0.1c-0.3,0-0.5,0.2-0.5,0.5c0,0.2,0.1,0.3,0.2,0.4
	c0-0.1,0-0.1,0-0.2C4.9,12.8,5.2,12.5,5.5,12.5"/>
<path fill="#9A1C1F" d="M5.8,12.9c0-0.2-0.1-0.3-0.2-0.4c0,0-0.1,0-0.1,0c-0.3,0-0.6,0.3-0.6,0.6c0,0.1,0,0.1,0,0.2
	c0.1,0.1,0.2,0.1,0.3,0.1C5.5,13.4,5.8,13.2,5.8,12.9"/>
<rect x="3.8" y="14.3" fill="#D3D2D2" width="3.1" height="0.6"/>
<rect x="3.6" y="5.6" fill="#C82257" width="7.5" height="0.2"/>
<rect x="26.3" y="5.6" fill="#C82257" width="3.3" height="0.2"/>
<rect x="3.6" y="6.1" fill="#473F65" width="7.5" height="0.2"/>
<rect x="26.3" y="6.1" fill="#473F65" width="3.3" height="0.2"/>
<rect x="11.6" y="5.7" fill="#EDECF0" width="1.6" height="0.6"/>
<rect x="13.8" y="5.7" fill="#EDECF0" width="2.7" height="0.6"/>
<rect x="17" y="5.7" fill="#EDECF0" width="1.9" height="0.6"/>
<rect x="19.5" y="5.7" fill="#EDECF0" width="2.8" height="0.6"/>
<rect x="22.8" y="5.7" fill="#EDECF0" width="2.8" height="0.6"/>
<path fill="#B1B5B0" d="M14.9,54.2c0-0.3,0.3-0.6,0.6-0.6h3.8c0,0,0,0,0.1,0c-0.1-0.1-0.2-0.2-0.4-0.2h-3.8c-0.3,0-0.5,0.2-0.5,0.5
	c0,0.2,0.1,0.3,0.2,0.4C14.9,54.3,14.9,54.3,14.9,54.2"/>
<path fill="#231F20" d="M26.2,35.3c0,1.2-0.9,2.1-2.1,2.1c-1.2,0-2.1-0.9-2.1-2.1c0-1.2,0.9-2.1,2.1-2.1
	C25.3,33.2,26.2,34.1,26.2,35.3"/>
<g opacity="0.25">
	<g>
		<defs>
			<rect id="SVGID_1_" x="22.1" y="34.1" width="4" height="4"/>
		</defs>
		<clipPath id="SVGID_2_">
			<use xlink:href="#SVGID_1_"  overflow="visible"/>
		</clipPath>
		<path clip-path="url(#SVGID_2_)" fill="#231F20" d="M26.1,36.1c0,1.1-0.9,2-2,2s-2-0.9-2-2s0.9-2,2-2S26.1,35,26.1,36.1"/>
	</g>
</g>
<g opacity="0.25">
	<g>
		<defs>
			<rect id="SVGID_3_" x="27.6" y="31.5" width="4" height="4"/>
		</defs>
		<clipPath id="SVGID_4_">
			<use xlink:href="#SVGID_3_"  overflow="visible"/>
		</clipPath>
		<path clip-path="url(#SVGID_4_)" fill="#231F20" d="M31.6,33.5c0,1.1-0.9,2-2,2c-1.1,0-2-0.9-2-2s0.9-2,2-2
			C30.7,31.5,31.6,32.4,31.6,33.5"/>
	</g>
</g>
<path fill="#C82257" d="M26.1,35.5c0,1.1-0.9,2-2,2s-2-0.9-2-2c0-1.1,0.9-2,2-2S26.1,34.4,26.1,35.5"/>
<path fill="#231F20" d="M31.8,32.7c0,1.2-0.9,2.1-2.1,2.1c-1.2,0-2.1-0.9-2.1-2.1s0.9-2.1,2.1-2.1C30.9,30.6,31.8,31.5,31.8,32.7"/>
<path fill="#C82257" d="M31.6,32.9c0,1.1-0.9,2-2,2c-1.1,0-2-0.9-2-2s0.9-2,2-2C30.7,30.9,31.6,31.8,31.6,32.9"/>
<path fill="#E391AB" d="M24,33.8c-0.5,0-0.9,0.2-1.2,0.5c0.3-0.2,0.6-0.3,1-0.3c1,0,1.7,0.8,1.7,1.7c0,0.5-0.2,0.9-0.5,1.2
	c0.4-0.3,0.7-0.8,0.7-1.4C25.7,34.6,25,33.8,24,33.8"/>
<path fill="#E391AB" d="M29.6,31.2c-0.5,0-0.9,0.2-1.2,0.5c0.3-0.2,0.6-0.3,1-0.3c1,0,1.7,0.8,1.7,1.7c0,0.5-0.2,0.9-0.5,1.2
	c0.4-0.3,0.7-0.8,0.7-1.4C31.3,32,30.6,31.2,29.6,31.2"/>
<rect x="25.3" y="38.3" transform="matrix(0.9058 -0.4237 0.4237 0.9058 -14.0045 14.5778)" fill="#473F65" width="0.9" height="1"/>
<rect x="30.9" y="35.7" transform="matrix(0.9064 -0.4224 0.4224 0.9064 -12.3339 16.6159)" fill="#473F65" width="0.9" height="1"/>
<g opacity="0.5">
	<g>
		<defs>
			<rect id="SVGID_5_" x="10.5" y="41.1" width="4.6" height="1.7"/>
		</defs>
		<clipPath id="SVGID_6_">
			<use xlink:href="#SVGID_5_"  overflow="visible"/>
		</clipPath>
		<path clip-path="url(#SVGID_6_)" fill="#BDBCBC" d="M15,42.7c0.1-0.2,0-0.5-0.1-0.8l-0.1-0.2c-0.2-0.4-0.5-0.7-0.7-0.6l-3.6,1.7
			L15,42.7z"/>
	</g>
</g>
<g opacity="0.5">
	<g>
		<defs>
			<rect id="SVGID_7_" x="10.2" y="42.7" width="4.8" height="1.9"/>
		</defs>
		<clipPath id="SVGID_8_">
			<use xlink:href="#SVGID_7_"  overflow="visible"/>
		</clipPath>
		<path clip-path="url(#SVGID_8_)" fill="#BDBCBC" d="M10.4,42.9c-0.2,0.1-0.2,0.5,0,0.9l0.1,0.2c0.2,0.4,0.5,0.7,0.7,0.6l3.7-1.8
			c0,0,0.1-0.1,0.1-0.1L10.4,42.9L10.4,42.9z"/>
	</g>
</g>
<path fill="#231F20" d="M3.4,35.9c-0.2,0-0.4-0.2-0.4-0.4v-2.1C3,33.2,3.2,33,3.4,33h7.7c0.2,0,0.4,0.2,0.4,0.4v2.1
	c0,0.2-0.2,0.4-0.4,0.4H3.4z"/>
<path fill="#231F20" d="M5.8,30.6c0-0.2,0.2-0.4,0.4-0.4h2.1c0.2,0,0.4,0.2,0.4,0.4v7.7c0,0.2-0.2,0.4-0.4,0.4H6.2
	c-0.2,0-0.4-0.2-0.4-0.4V30.6z"/>
<g opacity="0.25">
	<g>
		<defs>
			<rect id="SVGID_9_" x="3.3" y="31.3" width="8" height="8"/>
		</defs>
		<clipPath id="SVGID_10_">
			<use xlink:href="#SVGID_9_"  overflow="visible"/>
		</clipPath>
		<path clip-path="url(#SVGID_10_)" fill="#231F20" d="M10.9,33.9H8.6v-2.3c0-0.2-0.2-0.3-0.3-0.3h-2c-0.2,0-0.3,0.2-0.3,0.3v2.3
			H3.6c-0.2,0-0.3,0.2-0.3,0.3v2c0,0.2,0.2,0.3,0.3,0.3h2.3v2.3c0,0.2,0.2,0.3,0.3,0.3h2c0.2,0,0.3-0.2,0.3-0.3v-2.3h2.3
			c0.2,0,0.3-0.2,0.3-0.3v-2C11.3,34.1,11.1,33.9,10.9,33.9"/>
	</g>
</g>
<path fill="#252A26" d="M3.6,36.1c-0.2,0-0.3-0.2-0.3-0.3v-2c0-0.2,0.2-0.3,0.3-0.3h7.3c0.2,0,0.3,0.2,0.3,0.3v2
	c0,0.2-0.2,0.3-0.3,0.3H3.6z"/>
<path fill="#252A26" d="M5.9,31.1c0-0.2,0.2-0.3,0.3-0.3h2c0.2,0,0.3,0.2,0.3,0.3v7.3c0,0.2-0.2,0.3-0.3,0.3h-2
	c-0.2,0-0.3-0.2-0.3-0.3V31.1z"/>
<path fill="#BDBCBC" d="M14.5,42c0.1,0.2,0.1,0.5-0.1,0.5L11.3,44c-0.2,0.1-0.4,0-0.5-0.3l-0.1-0.1c-0.1-0.2-0.1-0.5,0.1-0.5
	l3.1-1.5c0.2-0.1,0.4,0,0.5,0.3L14.5,42z"/>
<rect x="10.9" y="44" transform="matrix(0.8942 -0.4477 0.4477 0.8942 -18.4466 10.6538)" fill="#473F65" width="4.9" height="0.7"/>
<g opacity="0.5">
	<g>
		<defs>
			<rect id="SVGID_11_" x="17" y="41.3" width="4.6" height="1.7"/>
		</defs>
		<clipPath id="SVGID_12_">
			<use xlink:href="#SVGID_11_"  overflow="visible"/>
		</clipPath>
		<path clip-path="url(#SVGID_12_)" fill="#BDBCBC" d="M21.6,42.9c0.1-0.2,0-0.5-0.1-0.8l-0.1-0.2c-0.2-0.4-0.5-0.7-0.7-0.6L17,43
			L21.6,42.9z"/>
	</g>
</g>
<g opacity="0.5">
	<g>
		<defs>
			<rect id="SVGID_13_" x="16.8" y="42.9" width="4.8" height="1.9"/>
		</defs>
		<clipPath id="SVGID_14_">
			<use xlink:href="#SVGID_13_"  overflow="visible"/>
		</clipPath>
		<path clip-path="url(#SVGID_14_)" fill="#BDBCBC" d="M16.9,43.1c-0.2,0.1-0.2,0.5,0,0.9l0.1,0.2c0.2,0.4,0.5,0.7,0.7,0.6l3.7-1.8
			c0,0,0.1-0.1,0.1-0.1L16.9,43.1L16.9,43.1z"/>
	</g>
</g>
<path fill="#BDBCBC" d="M21.1,42.2c0.1,0.2,0.1,0.5-0.1,0.5l-3.1,1.5c-0.2,0.1-0.4,0-0.5-0.3l-0.1-0.1c-0.1-0.2-0.1-0.5,0.1-0.5
	l3.1-1.5c0.2-0.1,0.4,0,0.5,0.3L21.1,42.2z"/>
<rect x="17.4" y="44.2" transform="matrix(0.8943 -0.4475 0.4475 0.8943 -17.8393 13.61)" fill="#473F65" width="4.9" height="0.7"/>
<path fill="#BDBCBC" d="M24.9,53.8c0.1,0.2,0,0.4-0.2,0.4c-0.2,0.1-0.4,0-0.4-0.2l-2.5-5.2c-0.1-0.2,0-0.4,0.2-0.4
	c0.2-0.1,0.4,0,0.4,0.2L24.9,53.8z"/>
<path fill="#BDBCBC" d="M26.4,53.1c0.1,0.2,0,0.4-0.2,0.4c-0.2,0.1-0.4,0-0.4-0.2l-2.5-5.2c-0.1-0.2,0-0.4,0.2-0.4
	c0.2-0.1,0.4,0,0.4,0.2L26.4,53.1z"/>
<path fill="#BDBCBC" d="M27.9,52.4c0.1,0.2,0,0.4-0.2,0.4c-0.2,0.1-0.4,0-0.4-0.2l-2.5-5.2c-0.1-0.2,0-0.4,0.2-0.4
	c0.2-0.1,0.4,0,0.4,0.2L27.9,52.4z"/>
<path fill="#BDBCBC" d="M29.5,51.7c0.1,0.2,0,0.4-0.2,0.4c-0.2,0.1-0.4,0-0.4-0.2l-2.5-5.2c-0.1-0.2,0-0.4,0.2-0.4
	c0.2-0.1,0.4,0,0.4,0.2L29.5,51.7z"/>
<path fill="#BDBCBC" d="M31,51c0.1,0.2,0,0.4-0.2,0.4c-0.2,0.1-0.4,0-0.4-0.2L27.9,46c-0.1-0.2,0-0.4,0.2-0.4c0.2-0.1,0.4,0,0.4,0.2
	L31,51z"/>
<path fill="#BDBCBC" d="M32.5,50.3c0.1,0.2,0,0.4-0.2,0.4c-0.2,0.1-0.4,0-0.4-0.2l-2.5-5.2c-0.1-0.2,0-0.4,0.2-0.4
	c0.2-0.1,0.4,0,0.4,0.2L32.5,50.3z"/>
<path fill="#231F20" d="M29.5,45.3l2.3,4.9c0.2-0.1,0.2-0.3,0.2-0.4l-2.3-4.9C29.5,44.9,29.4,45.1,29.5,45.3"/>
<path fill="#231F20" d="M27.9,46l2.3,4.9c0.2-0.1,0.2-0.3,0.2-0.4l-2.3-4.9C27.9,45.6,27.8,45.8,27.9,46"/>
<path fill="#231F20" d="M26.5,46.7l2.3,4.9c0.2-0.1,0.2-0.3,0.2-0.4l-2.3-4.9C26.5,46.3,26.4,46.5,26.5,46.7"/>
<path fill="#231F20" d="M24.9,47.4l2.3,4.9c0.2-0.1,0.2-0.3,0.2-0.4L25,47C24.9,47.1,24.8,47.3,24.9,47.4"/>
<path fill="#231F20" d="M23.3,48.2l2.3,4.9c0.2-0.1,0.2-0.3,0.2-0.4l-2.3-4.9C23.3,47.8,23.2,48,23.3,48.2"/>
</svg>
