<?xml version="1.0" encoding="utf-8"?>
<!-- Generator: Adobe Illustrator 15.0.2, SVG Export Plug-In . SVG Version: 6.00 Build 0)  -->
<!DOCTYPE svg PUBLIC "-//W3C//DTD SVG 1.1//EN" "http://www.w3.org/Graphics/SVG/1.1/DTD/svg11.dtd">
<svg version="1.1" id="Layer_1" xmlns="http://www.w3.org/2000/svg" xmlns:xlink="http://www.w3.org/1999/xlink" x="0px" y="0px"
	 width="61px" height="45.7px" viewBox="0 0 61 45.7" enable-background="new 0 0 61 45.7" xml:space="preserve">
<path fill="#231F20" d="M61,43.4V3.8C61,3.4,60.8,3,60.8,3S58.3,0.5,58,0.2C57.8,0,57.6,0,57.6,0h-54C3.3,0,3.1,0.2,3.1,0.2
	S0.6,2.7,0.2,3C-0.1,3.4,0,3.6,0,3.6v0.9v0.7l0.2,0.1v0.5H0v0.6l0.2,0.1v0.5H0v0.6l0.2,0.1V8H0v0.6l0.2,0.1v0.5H0v0.6l0.2,0.1v0.5H0
	v0.6l0.2,0.1v0.5H0V12l0.2,0.1v0.5H0v0.6l0.2,0.1v0.5H0v0.6l0.2,0.1v0.5H0v0.6l0.2,0.1v0.5H0v0.6l0.2,0.1v0.5H0c0,0.2,0,0.4,0,0.6
	l0.2,0.1v0.5H0v0.6l0.2,0.1v0.5H0v0.6L0.2,20v0.5H0V21l0.2,0.1v0.5H0v0.6l0.2,0.1v0.5H0c0,0.2,0,0.4,0,0.6l0.2,0.1v0.5H0v0.6
	l0.2,0.1V25H0v0.6l0.2,0.1v0.5H0v0.6l0.2,0.1v0.5H0c0,8.6,0,16.3,0,16.4c0,0.3,0.2,0.6,0.2,0.6s0.7,0.7,1,1.1s0.6,0.4,0.6,0.4h56.9
	c0.6,0,0.7-0.1,0.7-0.1s0.9-1,1.3-1.4C61,43.8,61,43.4,61,43.4"/>
<polygon fill="#444142" points="5,31 5,43.6 1.6,32.4 "/>
<g>
	<g>
		<defs>
			<rect id="SVGID_1_" x="1.6" y="30.1" width="57.7" height="13.5"/>
		</defs>
		<clipPath id="SVGID_2_">
			<use xlink:href="#SVGID_1_"  overflow="visible"/>
		</clipPath>
		<path clip-path="url(#SVGID_2_)" fill="#231F20" d="M3.1,30.4l-1.6,2c0,0,0,0.2,0.2,0.2h1.9c0,0,0.7-0.1,1.1-1.4
			c0,0,0.1-0.3,0.3-0.3h14.5v12.7l1.2-11c0,0,0.2-0.1,0.4,0c0.2,0.1,1.7,0.3,4.7,3.2c3,2.9,10.2,3.6,11.5,3.6s8.7-0.6,14.1-6.4
			c0,0,0.8-0.6,1.5-0.6h6.2v-0.4l-1.4-2h-4.4c0,0-0.5,0.1-1.1,1.1c-0.7,0.9-5.9,7.5-15,7.5s-14.8-6.8-14.9-6.9
			c-0.1,0-0.7-1.3-2.8-1.3C17.4,30.5,3.1,30.4,3.1,30.4"/>
	</g>
</g>
<path fill="#444142" d="M3.6,30.5h16.2c0,0,1.2,0,2.6,1.5c1.4,1.5,6.2,6.9,15,6.9s14.2-6.6,14.2-6.6s1-1.7,2.8-1.7h3.2
	c0,0,0.3-0.1,0.3-0.8V0.1C57.7,0,57.6,0,57.6,0h-54C3.4,0,3.3,0.1,3.2,0.1v28.8v1C3.2,29.9,3.1,30.5,3.6,30.5"/>
<path fill="#2E2A2B" d="M0,27.2v0.3h8.4c0.2,0,0.4-0.2,0.4-0.4V5.5C8.8,5.2,8.6,5,8.4,5H0v0.1l0.2,0.1v0.5H0v0.6l0.2,0.1v0.5H0
	c0,0.2,0,0.4,0,0.6l0.2,0.1V8H0v0.6l0.2,0.1v0.5H0v0.6l0.2,0.1v0.5H0v0.6l0.2,0.1v0.5H0V12l0.2,0.1v0.5H0v0.6l0.2,0.1v0.5H0v0.6
	l0.2,0.1v0.5H0v0.6l0.2,0.1v0.5H0v0.6l0.2,0.1v0.5H0v0.6l0.2,0.1v0.5H0v0.6l0.2,0.1v0.5H0v0.6L0.2,20v0.5H0V21l0.2,0.1v0.5H0v0.6
	l0.2,0.1v0.5H0v0.6l0.2,0.1v0.5H0v0.6l0.2,0.1V25H0c0,0.2,0,0.4,0,0.6l0.2,0.1v0.5H0v0.6l0.2,0.1v0.5H0z"/>
<path fill="#393536" d="M3.2,5H0v0.1l0.2,0.1v0.5h0v0H0v0.5l0.2,0.1v0.5h0v0H0c0,0.2,0,0.4,0,0.5l0.2,0.1V8h0v0H0v0.5l0.2,0.1v0.5h0
	v0H0v0.5l0.2,0.1v0.5h0v0H0v0.5l0.2,0.1v0.5h0v0H0V12l0.2,0.1v0.5h0v0H0v0.5l0.2,0.1v0.5h0v0H0v0.5l0.2,0.1v0.5h0v0H0v0.5l0.2,0.1
	v0.5h0v0H0v0.5l0.2,0.1v0.5h0v0H0v0.5l0.2,0.1v0.5h0v0H0v0.5l0.2,0.1v0.5h0v0H0v0.5L0.2,20v0.5h0v0H0V21l0.2,0.1v0.5h0v0H0v0.5
	l0.2,0.1v0.5h0v0H0v0.5l0.2,0.1v0.5h0v0H0v0.5l0.2,0.1V25h0v0H0c0,0.2,0,0.4,0,0.5l0.2,0.1v0.5h0v0H0v0.5l0.2,0.1v0.5h0v0H0v0.3h3.2
	V5z"/>
<rect x="0" y="26.1" fill="#231F20" width="8.3" height="0.6"/>
<rect x="0" y="25" fill="#231F20" width="8.3" height="0.6"/>
<rect x="0" y="26.1" fill="#A7A5A6" width="8.3" height="0.1"/>
<rect x="0" y="25" fill="#A7A5A6" width="8.3" height="0.1"/>
<rect x="0" y="23.8" fill="#231F20" width="8.3" height="0.6"/>
<rect x="0" y="22.7" fill="#231F20" width="8.3" height="0.6"/>
<rect x="0" y="23.8" fill="#A7A5A6" width="8.3" height="0.1"/>
<rect x="0" y="22.7" fill="#A7A5A6" width="8.3" height="0.1"/>
<rect x="0" y="21.6" fill="#231F20" width="8.3" height="0.6"/>
<rect x="0" y="20.4" fill="#231F20" width="8.3" height="0.6"/>
<rect x="0" y="21.6" fill="#A7A5A6" width="8.3" height="0.1"/>
<rect x="0" y="20.4" fill="#A7A5A6" width="8.3" height="0.1"/>
<rect x="0" y="19.3" fill="#231F20" width="8.3" height="0.6"/>
<rect x="0" y="18.2" fill="#231F20" width="8.3" height="0.6"/>
<rect x="0" y="19.3" fill="#A7A5A6" width="8.3" height="0.1"/>
<rect x="0" y="18.2" fill="#A7A5A6" width="8.3" height="0.1"/>
<rect x="0" y="17" fill="#231F20" width="8.3" height="0.6"/>
<rect x="0" y="15.9" fill="#231F20" width="8.3" height="0.6"/>
<rect x="0" y="17" fill="#A7A5A6" width="8.3" height="0.1"/>
<rect x="0" y="15.9" fill="#A7A5A6" width="8.3" height="0.1"/>
<rect x="0" y="14.8" fill="#231F20" width="8.3" height="0.6"/>
<rect x="0" y="13.6" fill="#231F20" width="8.3" height="0.6"/>
<rect x="0" y="14.8" fill="#A7A5A6" width="8.3" height="0.1"/>
<rect x="0" y="13.6" fill="#A7A5A6" width="8.3" height="0.1"/>
<rect x="0" y="12.4" fill="#231F20" width="8.3" height="0.6"/>
<rect x="0" y="11.4" fill="#231F20" width="8.3" height="0.6"/>
<rect x="0" y="12.4" fill="#A7A5A6" width="8.3" height="0.1"/>
<rect x="0" y="11.4" fill="#A7A5A6" width="8.3" height="0.1"/>
<rect x="0" y="10.3" fill="#231F20" width="8.3" height="0.6"/>
<rect x="0" y="9.1" fill="#231F20" width="8.3" height="0.6"/>
<rect x="0" y="10.3" fill="#A7A5A6" width="8.3" height="0.1"/>
<rect x="0" y="9.1" fill="#A7A5A6" width="8.3" height="0.1"/>
<rect x="0" y="8" fill="#231F20" width="8.3" height="0.6"/>
<rect x="0" y="6.9" fill="#231F20" width="8.3" height="0.6"/>
<rect x="0" y="8" fill="#A7A5A6" width="8.3" height="0.1"/>
<rect x="0" y="6.9" fill="#A7A5A6" width="8.3" height="0.1"/>
<rect x="0" y="5.7" fill="#231F20" width="8.3" height="0.6"/>
<rect x="0" y="5.7" fill="#A7A5A6" width="8.3" height="0.1"/>
<g>
	<g>
		<defs>
			<rect id="SVGID_3_" x="17.9" y="19.8" width="38.3" height="19.2"/>
		</defs>
		<clipPath id="SVGID_4_">
			<use xlink:href="#SVGID_3_"  overflow="visible"/>
		</clipPath>
		<path clip-path="url(#SVGID_4_)" fill="#393536" d="M37.1,39c10.6,0,19.2-8.6,19.2-19.2H17.9C17.9,30.4,26.5,39,37.1,39"/>
	</g>
</g>
<path fill="#656263" d="M37.1,0.6c-10.6,0-19.2,8.6-19.2,19.2h38.3C56.3,9.2,47.7,0.6,37.1,0.6"/>
<g opacity="0.2">
	<g>
		<defs>
			<rect id="SVGID_5_" x="0" y="5" width="3.2" height="22.5"/>
		</defs>
		<clipPath id="SVGID_6_">
			<use xlink:href="#SVGID_5_"  overflow="visible"/>
		</clipPath>
		<path clip-path="url(#SVGID_6_)" fill="#393536" d="M3.2,5H0v0.1l0.2,0.1v0.5h0v0H0v0.5l0.2,0.1v0.5h0v0H0c0,0.2,0,0.4,0,0.5
			l0.2,0.1V8h0v0H0v0.5l0.2,0.1v0.5h0v0H0v0.5l0.2,0.1v0.5h0v0H0v0.5l0.2,0.1v0.5h0v0H0V12l0.2,0.1v0.5h0v0H0v0.5l0.2,0.1v0.5h0v0H0
			v0.5l0.2,0.1v0.5h0v0H0v0.5l0.2,0.1v0.5h0v0H0v0.5l0.2,0.1v0.5h0v0H0v0.5l0.2,0.1v0.5h0v0H0v0.5l0.2,0.1v0.5h0v0H0v0.5L0.2,20v0.5
			h0v0H0V21l0.2,0.1v0.5h0v0H0v0.5l0.2,0.1v0.5h0v0H0v0.5l0.2,0.1v0.5h0v0H0v0.5l0.2,0.1V25h0v0H0c0,0.2,0,0.4,0,0.5l0.2,0.1v0.5h0
			v0H0v0.5l0.2,0.1v0.5h0v0H0v0.3h3.2V5z"/>
	</g>
</g>
<path fill="#231F20" d="M37.1,36.8c-9.3,0-17-7.6-17-17c0-9.3,7.6-17,17-17c9.3,0,17,7.6,17,17C54.1,29.2,46.5,36.8,37.1,36.8"/>
<path fill="#393536" d="M37.1,4c8.7,0,15.8,7.1,15.8,15.8s-7.1,15.8-15.8,15.8c-8.7,0-15.8-7.1-15.8-15.8S28.4,4,37.1,4 M37.1,1.7
	C27.1,1.7,19,9.8,19,19.8c0,10,8.1,18.1,18.1,18.1c10,0,18.1-8.1,18.1-18.1C55.2,9.8,47.1,1.7,37.1,1.7"/>
<path fill="#231F20" d="M37.1,35.5c-2.3,0-4.5-0.5-6.6-1.5V22c0-0.1,0.1-0.3,0.3-0.3h12.7c0.1,0,0.3,0.1,0.3,0.3V34
	C41.7,35,39.4,35.5,37.1,35.5"/>
<path fill="#393536" d="M43.5,21.9c0.1,0,0.1,0.1,0.1,0.1v12c-2,0.9-4.2,1.4-6.5,1.4c-2.3,0-4.4-0.5-6.5-1.4V22
	c0-0.1,0.1-0.1,0.1-0.1H43.5 M43.5,21.6H30.7c-0.2,0-0.4,0.2-0.4,0.4v12.2c2.1,1,4.4,1.5,6.8,1.5c2.4,0,4.7-0.6,6.8-1.5V22
	C43.9,21.7,43.7,21.6,43.5,21.6"/>
<path fill="#F4F4F4" d="M37.1,35.7c-2.4,0-4.7-0.5-6.8-1.5v1.3v1.3c2.1,0.8,4.4,1.3,6.8,1.3s4.7-0.5,6.8-1.3v-1.3v-1.3
	C41.8,35.1,39.5,35.7,37.1,35.7"/>
<g>
	<g>
		<defs>
			<rect id="SVGID_7_" x="30.6" y="21.9" width="13" height="0.2"/>
		</defs>
		<clipPath id="SVGID_8_">
			<use xlink:href="#SVGID_7_"  overflow="visible"/>
		</clipPath>
		<path clip-path="url(#SVGID_8_)" fill="#231F20" d="M43.5,21.9H30.7c-0.1,0-0.1,0.1-0.1,0.1v0.1c0-0.1,0.1-0.1,0.1-0.1h12.7
			c0.1,0,0.1,0.1,0.1,0.1V22C43.6,21.9,43.5,21.9,43.5,21.9"/>
	</g>
</g>
<path fill="#231F20" d="M36.6,36.8c0,0.3,0.2,0.5,0.5,0.5s0.5-0.2,0.5-0.5c0-0.3-0.2-0.5-0.5-0.5S36.6,36.5,36.6,36.8"/>
<path fill="#B52126" d="M37.1,36.6c-0.2,0-0.4,0.2-0.5,0.4c0.1,0.2,0.3,0.4,0.5,0.4c0.2,0,0.4-0.2,0.5-0.4
	C37.5,36.8,37.3,36.6,37.1,36.6"/>
<rect x="33.1" y="28.2" fill="#D2B48C" width="0.7" height="1.5"/>
<rect x="34.1" y="28.2" fill="#D2B48C" width="1.3" height="1.5"/>
<rect x="35.9" y="28.8" fill="#D2B48C" width="0.8" height="0.3"/>
<rect x="37" y="28.2" fill="#D2B48C" width="1.5" height="1.5"/>
<rect x="38.9" y="28.2" fill="#D2B48C" width="0.5" height="1.5"/>
<rect x="39.7" y="28.2" fill="#D2B48C" width="1.4" height="1.5"/>
<path fill="#BDBCBC" d="M30.7,33.9V22c0-0.1,0.1-0.1,0.1-0.1h-0.1c-0.1,0-0.1,0.1-0.1,0.1v12c2,0.9,4.2,1.4,6.5,1.4c0,0,0,0,0,0
	C34.9,35.4,32.7,34.9,30.7,33.9"/>
<rect x="54.5" y="42.8" fill="#F8F8F8" width="4.4" height="1.3"/>
<rect x="49.2" y="43.6" fill="#F8F8F8" width="4.3" height="0.5"/>
<rect x="44.4" y="43.6" fill="#F8F8F8" width="4.3" height="0.5"/>
<g>
	<g>
		<defs>
			<rect id="SVGID_9_" x="23.9" y="13.5" width="26.2" height="4.1"/>
		</defs>
		<clipPath id="SVGID_10_">
			<use xlink:href="#SVGID_9_"  overflow="visible"/>
		</clipPath>
		<path clip-path="url(#SVGID_10_)" fill="#656263" d="M50.1,15.6c0,1.1-0.9,2-2,2H26c-1.1,0-2.1-0.9-2.1-2s0.9-2,2.1-2h22.1
			C49.2,13.5,50.1,14.4,50.1,15.6"/>
	</g>
</g>
<path fill="#231F20" d="M50.1,15.4c0,1.1-0.9,2-2,2H26c-1.1,0-2.1-0.9-2.1-2s0.9-2,2.1-2h22.1C49.2,13.3,50.1,14.2,50.1,15.4"/>
<g>
	<g>
		<defs>
			<rect id="SVGID_11_" x="23.9" y="13.3" width="25.5" height="4.1"/>
		</defs>
		<clipPath id="SVGID_12_">
			<use xlink:href="#SVGID_11_"  overflow="visible"/>
		</clipPath>
		<path clip-path="url(#SVGID_12_)" fill="#231F20" d="M25,15.9c0-1.1,0.9-2,2-2h22.1c0.1,0,0.2,0,0.3,0c-0.4-0.3-0.8-0.5-1.4-0.5
			H26c-1.1,0-2.1,0.9-2.1,2.1c0,1,0.8,1.9,1.8,2C25.3,17,25,16.5,25,15.9"/>
	</g>
</g>
<path fill="#393536" d="M29.7,17.1h14.6c1.4,0,2.6-0.7,3.4-1.7H26.3C27.1,16.4,28.3,17.1,29.7,17.1"/>
<path fill="#393536" d="M48.5,13.4c-0.2,0-0.3-0.1-0.5-0.1H26c-0.2,0-0.3,0-0.5,0.1c0.1,0.6,0.3,1.2,0.6,1.7h21.8
	C48.3,14.6,48.5,14,48.5,13.4"/>
<path fill="#231F20" d="M26.1,15.1c0.1,0.1,0.1,0.2,0.2,0.3h21.4c0.1-0.1,0.1-0.2,0.2-0.3H26.1z"/>
<path fill="#2E2A2B" d="M10.4,41.9c0,0.2-0.2,0.4-0.4,0.4H7.6c-0.2,0-0.4-0.2-0.4-0.4v-9.1c0-0.2,0.2-0.4,0.4-0.4H10
	c0.2,0,0.4,0.2,0.4,0.4V41.9z"/>
<g>
	<g>
		<defs>
			<rect id="SVGID_13_" x="7.2" y="32.4" width="3.2" height="10"/>
		</defs>
		<clipPath id="SVGID_14_">
			<use xlink:href="#SVGID_13_"  overflow="visible"/>
		</clipPath>
		<path clip-path="url(#SVGID_14_)" fill="#231F20" d="M8.6,42.3v-9.1c0-0.2,0.2-0.4,0.4-0.4h1.4c0-0.2-0.2-0.3-0.4-0.3H7.6
			c-0.2,0-0.4,0.2-0.4,0.4v9.1c0,0.2,0.2,0.4,0.4,0.4L8.6,42.3C8.6,42.3,8.6,42.3,8.6,42.3"/>
	</g>
</g>
<g>
	<g>
		<defs>
			<rect id="SVGID_15_" x="7.3" y="32.4" width="3.1" height="10"/>
		</defs>
		<clipPath id="SVGID_16_">
			<use xlink:href="#SVGID_15_"  overflow="visible"/>
		</clipPath>
		<path clip-path="url(#SVGID_16_)" fill="#2E2A2B" d="M10,32.4H7.6c-0.1,0-0.3,0.1-0.3,0.2h2.1c0.2,0,0.4,0.2,0.4,0.4v9.1
			c0,0.1,0,0.2-0.1,0.2H10c0.2,0,0.4-0.2,0.4-0.4v-9.1C10.4,32.6,10.2,32.4,10,32.4"/>
	</g>
</g>
<polygon fill="#2E2A2B" points="7.5,40.1 7.7,42.1 10.1,42.1 10.1,40.1 7.5,40.1 "/>
<polygon fill="#727070" points="7.6,37.5 7.5,40.1 10.1,40.1 10.1,37.5 "/>
<rect x="7.6" y="37.8" fill="#B52126" width="2.5" height="0.2"/>
<g>
	<g>
		<defs>
			<rect id="SVGID_17_" x="12.4" y="38.9" width="5.6" height="2.7"/>
		</defs>
		<clipPath id="SVGID_18_">
			<use xlink:href="#SVGID_17_"  overflow="visible"/>
		</clipPath>
		<path clip-path="url(#SVGID_18_)" fill="#231F20" d="M17.8,38.9l-5.4,2.6c0.1,0,0.1,0.1,0.2,0.1h4.9c0.2,0,0.4-0.2,0.4-0.4v-1.9
			C17.9,39.1,17.9,39,17.8,38.9"/>
	</g>
</g>
<g>
	<g>
		<defs>
			<rect id="SVGID_19_" x="12.2" y="38.8" width="5.6" height="2.7"/>
		</defs>
		<clipPath id="SVGID_20_">
			<use xlink:href="#SVGID_19_"  overflow="visible"/>
		</clipPath>
		<path clip-path="url(#SVGID_20_)" fill="#231F20" d="M17.5,38.8h-4.9c-0.2,0-0.4,0.2-0.4,0.4v1.9c0,0.1,0.1,0.3,0.2,0.3l5.4-2.6
			C17.7,38.8,17.6,38.8,17.5,38.8"/>
	</g>
</g>
<path fill="#E4E4E4" d="M17.4,40.6c0,0.2-0.2,0.4-0.4,0.4h-3.9c-0.2,0-0.4-0.2-0.4-0.4v-0.9c0-0.2,0.2-0.4,0.4-0.4H17
	c0.2,0,0.4,0.2,0.4,0.4V40.6z"/>
<path fill="#A3A1A1" d="M14.1,39.9c0,0.1-0.1,0.1-0.1,0.1c-0.1,0-0.1-0.1-0.1-0.1c0-0.1,0.1-0.1,0.1-0.1
	C14,39.8,14.1,39.9,14.1,39.9"/>
<path fill="#A3A1A1" d="M14.1,40.5c0,0.1-0.1,0.1-0.1,0.1c-0.1,0-0.1-0.1-0.1-0.1c0-0.1,0.1-0.1,0.1-0.1
	C14,40.4,14.1,40.5,14.1,40.5"/>
<path fill="#A3A1A1" d="M14.5,39.9c0,0.1-0.1,0.1-0.1,0.1c-0.1,0-0.1-0.1-0.1-0.1c0-0.1,0.1-0.1,0.1-0.1
	C14.5,39.8,14.5,39.9,14.5,39.9"/>
<path fill="#A3A1A1" d="M14.5,40.5c0,0.1-0.1,0.1-0.1,0.1c-0.1,0-0.1-0.1-0.1-0.1c0-0.1,0.1-0.1,0.1-0.1
	C14.5,40.4,14.5,40.5,14.5,40.5"/>
<path fill="#A3A1A1" d="M15,39.9c0,0.1-0.1,0.1-0.1,0.1s-0.1-0.1-0.1-0.1c0-0.1,0.1-0.1,0.1-0.1S15,39.9,15,39.9"/>
<path fill="#A3A1A1" d="M15,40.5c0,0.1-0.1,0.1-0.1,0.1s-0.1-0.1-0.1-0.1c0-0.1,0.1-0.1,0.1-0.1S15,40.5,15,40.5"/>
<path fill="#A3A1A1" d="M15.4,39.9c0,0.1-0.1,0.1-0.1,0.1s-0.1-0.1-0.1-0.1c0-0.1,0.1-0.1,0.1-0.1S15.4,39.9,15.4,39.9"/>
<path fill="#A3A1A1" d="M15.4,40.5c0,0.1-0.1,0.1-0.1,0.1s-0.1-0.1-0.1-0.1c0-0.1,0.1-0.1,0.1-0.1S15.4,40.5,15.4,40.5"/>
<path fill="#A3A1A1" d="M15.9,39.9c0,0.1-0.1,0.1-0.1,0.1c-0.1,0-0.1-0.1-0.1-0.1c0-0.1,0.1-0.1,0.1-0.1
	C15.8,39.8,15.9,39.9,15.9,39.9"/>
<path fill="#A3A1A1" d="M15.9,40.5c0,0.1-0.1,0.1-0.1,0.1c-0.1,0-0.1-0.1-0.1-0.1c0-0.1,0.1-0.1,0.1-0.1
	C15.8,40.4,15.9,40.5,15.9,40.5"/>
<path fill="#A3A1A1" d="M16.3,39.9c0,0.1-0.1,0.1-0.1,0.1c-0.1,0-0.1-0.1-0.1-0.1c0-0.1,0.1-0.1,0.1-0.1
	C16.3,39.8,16.3,39.9,16.3,39.9"/>
<path fill="#A3A1A1" d="M16.3,40.5c0,0.1-0.1,0.1-0.1,0.1c-0.1,0-0.1-0.1-0.1-0.1c0-0.1,0.1-0.1,0.1-0.1
	C16.3,40.4,16.3,40.5,16.3,40.5"/>
<g>
	<g>
		<defs>
			<rect id="SVGID_21_" x="12.3" y="32.5" width="5.6" height="2.7"/>
		</defs>
		<clipPath id="SVGID_22_">
			<use xlink:href="#SVGID_21_"  overflow="visible"/>
		</clipPath>
		<path clip-path="url(#SVGID_22_)" fill="#231F20" d="M17.7,32.5l-5.4,2.6c0.1,0,0.1,0.1,0.2,0.1h4.9c0.2,0,0.4-0.2,0.4-0.4v-1.9
			C17.9,32.6,17.8,32.5,17.7,32.5"/>
	</g>
</g>
<g>
	<g>
		<defs>
			<rect id="SVGID_23_" x="12.1" y="32.4" width="5.6" height="2.7"/>
		</defs>
		<clipPath id="SVGID_24_">
			<use xlink:href="#SVGID_23_"  overflow="visible"/>
		</clipPath>
		<path clip-path="url(#SVGID_24_)" fill="#231F20" d="M17.5,32.4h-4.9c-0.2,0-0.4,0.2-0.4,0.4v1.9c0,0.1,0.1,0.3,0.2,0.3l5.4-2.6
			C17.6,32.4,17.5,32.4,17.5,32.4"/>
	</g>
</g>
<g>
	<g>
		<defs>
			<rect id="SVGID_25_" x="12.4" y="32.6" width="5.1" height="2.4"/>
		</defs>
		<clipPath id="SVGID_26_">
			<use xlink:href="#SVGID_25_"  overflow="visible"/>
		</clipPath>
		<path clip-path="url(#SVGID_26_)" fill="#231F20" d="M17.6,34.6c0,0.2-0.2,0.4-0.4,0.4h-4.3c-0.2,0-0.4-0.2-0.4-0.4V33
			c0-0.2,0.2-0.4,0.4-0.4h4.3c0.2,0,0.4,0.2,0.4,0.4V34.6z"/>
	</g>
</g>
<rect x="13.7" y="32.7" fill="#231F20" width="3.9" height="2.2"/>
<g>
	<g>
		<defs>
			<rect id="SVGID_27_" x="13.8" y="32.8" width="1.4" height="1.3"/>
		</defs>
		<clipPath id="SVGID_28_">
			<use xlink:href="#SVGID_27_"  overflow="visible"/>
		</clipPath>
		<path clip-path="url(#SVGID_28_)" fill="#231F20" d="M13.8,32.8c0.3-0.1,0.8-0.1,1.1,0.2c0.1,0.1,0.3,0.3,0.3,0.5
			c0.1,0.2,0,0.4,0,0.6c-0.1-0.3-0.2-0.6-0.5-0.8c-0.1-0.1-0.3-0.2-0.4-0.2C14.1,32.9,14,32.9,13.8,32.8"/>
	</g>
</g>
<g>
	<g>
		<defs>
			<rect id="SVGID_29_" x="16.2" y="32.8" width="1.4" height="2.1"/>
		</defs>
		<clipPath id="SVGID_30_">
			<use xlink:href="#SVGID_29_"  overflow="visible"/>
		</clipPath>
		<path clip-path="url(#SVGID_30_)" fill="#231F20" d="M17.6,32.8c0,0-1.4,0.1-1.4,1v1.1h1.4V32.8z"/>
	</g>
</g>
<rect x="15.6" y="33.3" fill="#B52126" width="0.2" height="1.5"/>
</svg>
