<?xml version="1.0" encoding="utf-8"?>
<!-- Generator: Adobe Illustrator 15.0.2, SVG Export Plug-In . SVG Version: 6.00 Build 0)  -->
<!DOCTYPE svg PUBLIC "-//W3C//DTD SVG 1.1//EN" "http://www.w3.org/Graphics/SVG/1.1/DTD/svg11.dtd">
<svg version="1.1" id="Layer_1" xmlns="http://www.w3.org/2000/svg" xmlns:xlink="http://www.w3.org/1999/xlink" x="0px" y="0px"
	 width="82.4px" height="34.7px" viewBox="0 0 82.4 34.7" enable-background="new 0 0 82.4 34.7" xml:space="preserve">
<path fill="#848282" d="M8.9,3.6v-1c0,0,2.3-2.4,6.7-2.5c4.4-0.1,9.8,0,9.8,0s1.2,0.1,1.2,1.2c0,1.1-10.3,2.3-10.3,2.3H8.9z"/>
<path fill="#848282" d="M73.3,3.6v-1c0,0-2.3-2.4-6.7-2.5c-4.4-0.1-9.8,0-9.8,0s-1.2,0.1-1.2,1.2c0,1.1,10.3,2.3,10.3,2.3H73.3z"/>
<rect x="16.8" y="1.1" fill="#E8E5D1" width="48.7" height="28.3"/>
<path fill="#E8E5D1" d="M0,17.9c0,9.3,7.5,16.8,16.8,16.8c9.3,0,16.8-7.5,16.8-16.8S26.1,1.1,16.8,1.1C7.5,1.1,0,8.7,0,17.9"/>
<path fill="#E8E5D1" d="M33.2,29.5H29l-2.1,1.8C26.9,31.3,30.9,29.5,33.2,29.5"/>
<path fill="#E8E5D1" d="M82.4,17.9c0,9.3-7.5,16.8-16.8,16.8c-9.3,0-16.8-7.5-16.8-16.8S56.3,1.1,65.5,1.1
	C74.8,1.1,82.4,8.7,82.4,17.9"/>
<path fill="#E8E5D1" d="M49.1,29.5h4.3l2.1,1.8C55.4,31.3,51.5,29.5,49.1,29.5"/>
<path fill="#848282" d="M80,17.9c0-8-6.5-14.4-14.4-14.4S51.1,10,51.1,17.9c0,8,6.5,14.4,14.4,14.4S80,25.9,80,17.9"/>
<path fill="#393536" d="M65.5,3.9c7.9,0,14.3,6.3,14.4,14.2c0-0.1,0-0.1,0-0.2c0-8-6.5-14.4-14.4-14.4S51.1,10,51.1,17.9
	c0,0.1,0,0.1,0,0.2C51.2,10.3,57.6,3.9,65.5,3.9"/>
<path fill="#E8E5D1" d="M58.2,21.5c-1.1,0-2.1-0.5-2.7-1.3c-0.5-0.7-0.8-1.6-0.6-2.5c0.1-0.9,0.6-1.7,1.3-2.2L64,9.6
	c0.6-0.4,1.3-0.7,2-0.7c1.1,0,2.1,0.5,2.7,1.3c0.5,0.7,0.8,1.6,0.6,2.5s-0.6,1.7-1.3,2.2l-7.9,5.9C59.6,21.3,58.9,21.5,58.2,21.5"/>
<path fill="#5A5758" d="M66,8.9c1,0,2,0.5,2.6,1.3c1.1,1.5,0.8,3.5-0.7,4.6l-7.9,5.9c-0.6,0.4-1.3,0.7-2,0.7c-1,0-2-0.5-2.6-1.3
	c-1.1-1.5-0.8-3.5,0.6-4.6l7.9-5.9C64.6,9.2,65.3,8.9,66,8.9 M66,8.8L66,8.8c-0.8,0-1.5,0.2-2.1,0.7l-7.9,5.9
	c-0.7,0.6-1.2,1.4-1.3,2.3c-0.1,0.9,0.1,1.8,0.7,2.5c0.7,0.9,1.7,1.4,2.7,1.4c0.8,0,1.5-0.2,2.1-0.7l7.9-5.9
	c0.7-0.6,1.2-1.4,1.3-2.3c0.1-0.9-0.1-1.8-0.7-2.5C68.1,9.3,67.1,8.8,66,8.8"/>
<path fill="#E8E5D1" d="M65,27c-1.1,0-2-0.5-2.7-1.3c-1.1-1.5-0.8-3.6,0.7-4.7l7.9-5.9c0.6-0.4,1.3-0.7,2-0.7c1.1,0,2.1,0.5,2.7,1.3
	c0.5,0.7,0.8,1.6,0.6,2.5s-0.6,1.7-1.3,2.2l-7.9,5.9C66.5,26.8,65.8,27,65,27"/>
<path fill="#5A5758" d="M72.9,14.4c1,0,2,0.5,2.6,1.3c1.1,1.5,0.8,3.5-0.7,4.6L67,26.3c-0.6,0.4-1.3,0.7-2,0.7c-1,0-2-0.5-2.6-1.3
	c-1.1-1.5-0.8-3.5,0.6-4.6l7.9-5.9C71.5,14.6,72.2,14.4,72.9,14.4 M72.9,14.3L72.9,14.3c-0.8,0-1.5,0.2-2.1,0.7L63,20.9
	c-1.5,1.1-1.8,3.3-0.7,4.8c0.7,0.9,1.7,1.4,2.7,1.4c0.8,0,1.5-0.2,2.1-0.7l7.9-5.9c0.7-0.6,1.2-1.4,1.3-2.3c0.1-0.9-0.1-1.8-0.7-2.5
	C75,14.8,74,14.3,72.9,14.3"/>
<path fill="#386B95" d="M68.8,12.3c0,1.5-1.2,2.8-2.8,2.8s-2.8-1.2-2.8-2.8s1.2-2.8,2.8-2.8S68.8,10.7,68.8,12.3"/>
<path fill="#597F5C" d="M60.9,18.3c0,1.5-1.2,2.8-2.8,2.8s-2.8-1.2-2.8-2.8s1.2-2.8,2.8-2.8S60.9,16.7,60.9,18.3"/>
<path fill="#B52126" d="M75.7,17.7c0,1.5-1.2,2.8-2.8,2.8s-2.8-1.2-2.8-2.8c0-1.5,1.2-2.8,2.8-2.8S75.7,16.1,75.7,17.7"/>
<path fill="#E5952E" d="M67.9,23.7c0,1.5-1.2,2.8-2.8,2.8c-1.5,0-2.8-1.2-2.8-2.8s1.2-2.8,2.8-2.8C66.7,20.9,67.9,22.1,67.9,23.7"/>
<g opacity="0.4">
	<g>
		<defs>
			<rect id="SVGID_1_" x="63.5" y="9.7" width="5.1" height="2.8"/>
		</defs>
		<clipPath id="SVGID_2_">
			<use xlink:href="#SVGID_1_"  overflow="visible"/>
		</clipPath>
		<path clip-path="url(#SVGID_2_)" fill="#386B95" d="M66,9.7c-1.4,0-2.5,1.2-2.5,2.6c0,0,0,0.1,0,0.1c0.1-1.4,1.2-2.5,2.5-2.5
			s2.4,1.1,2.5,2.5c0,0,0-0.1,0-0.1C68.5,10.9,67.4,9.7,66,9.7"/>
	</g>
</g>
<g opacity="0.4">
	<g>
		<defs>
			<rect id="SVGID_3_" x="60.9" y="18.4" width="0" height="0.3"/>
		</defs>
		<clipPath id="SVGID_4_">
			<use xlink:href="#SVGID_3_"  overflow="visible"/>
		</clipPath>
		<path clip-path="url(#SVGID_4_)" fill="#597F5C" d="M60.9,18.7c0,0,0-0.1,0-0.1c0,0,0-0.1,0-0.1c0,0,0,0.1,0,0.1
			C60.9,18.6,60.9,18.6,60.9,18.7"/>
	</g>
</g>
<g opacity="0.4">
	<g>
		<defs>
			<rect id="SVGID_5_" x="55.6" y="15.7" width="5.2" height="2.8"/>
		</defs>
		<clipPath id="SVGID_6_">
			<use xlink:href="#SVGID_5_"  overflow="visible"/>
		</clipPath>
		<path clip-path="url(#SVGID_6_)" fill="#597F5C" d="M58.1,15.7c-1.4,0-2.5,1.2-2.6,2.6c0,0,0,0.1,0,0.1c0.1-1.4,1.2-2.5,2.6-2.5
			c1.3,0,2.4,1.1,2.6,2.5c0,0,0-0.1,0-0.1C60.7,16.9,59.5,15.7,58.1,15.7"/>
	</g>
</g>
<g opacity="0.4">
	<g>
		<defs>
			<rect id="SVGID_7_" x="70.1" y="17.8" width="0" height="0.3"/>
		</defs>
		<clipPath id="SVGID_8_">
			<use xlink:href="#SVGID_7_"  overflow="visible"/>
		</clipPath>
		<path clip-path="url(#SVGID_8_)" fill="#B52126" d="M70.1,17.8c0,0,0,0.1,0,0.1c0,0,0,0.1,0,0.1c0,0,0-0.1,0-0.1
			C70.1,17.9,70.1,17.8,70.1,17.8"/>
	</g>
</g>
<g opacity="0.4">
	<g>
		<defs>
			<rect id="SVGID_9_" x="70.4" y="15.2" width="4.9" height="2.8"/>
		</defs>
		<clipPath id="SVGID_10_">
			<use xlink:href="#SVGID_9_"  overflow="visible"/>
		</clipPath>
		<path clip-path="url(#SVGID_10_)" fill="#B52126" d="M72.9,15.4c1.3,0,2.3,1.1,2.5,2.5c0,0,0-0.1,0-0.1c-0.1-1.5-1.1-2.6-2.5-2.6
			s-2.4,1.2-2.5,2.6c0,0,0,0.1,0,0.1C70.6,16.5,71.6,15.4,72.9,15.4"/>
	</g>
</g>
<g opacity="0.4">
	<g>
		<defs>
			<rect id="SVGID_11_" x="67.9" y="23.8" width="0" height="0.3"/>
		</defs>
		<clipPath id="SVGID_12_">
			<use xlink:href="#SVGID_11_"  overflow="visible"/>
		</clipPath>
		<path clip-path="url(#SVGID_12_)" fill="#E5952E" d="M67.9,24.1c0,0,0-0.1,0-0.1c0,0,0-0.1,0-0.1c0,0,0,0.1,0,0.1
			C67.9,24,67.9,24,67.9,24.1"/>
	</g>
</g>
<g opacity="0.4">
	<g>
		<defs>
			<rect id="SVGID_13_" x="62.3" y="23.8" width="0" height="0.3"/>
		</defs>
		<clipPath id="SVGID_14_">
			<use xlink:href="#SVGID_13_"  overflow="visible"/>
		</clipPath>
		<path clip-path="url(#SVGID_14_)" fill="#E5952E" d="M62.3,23.8c0,0,0,0.1,0,0.1c0,0,0,0.1,0,0.1c0,0,0-0.1,0-0.1
			C62.3,23.9,62.3,23.8,62.3,23.8"/>
	</g>
</g>
<g opacity="0.4">
	<g>
		<defs>
			<rect id="SVGID_15_" x="62.7" y="21.2" width="4.9" height="2.8"/>
		</defs>
		<clipPath id="SVGID_16_">
			<use xlink:href="#SVGID_15_"  overflow="visible"/>
		</clipPath>
		<path clip-path="url(#SVGID_16_)" fill="#E5952E" d="M65.1,21.2c-1.3,0-2.4,1.2-2.5,2.6c0,0,0,0.1,0,0.1c0.1-1.4,1.2-2.5,2.5-2.5
			s2.3,1.1,2.5,2.5c0,0,0-0.1,0-0.1C67.5,22.3,66.4,21.2,65.1,21.2"/>
	</g>
</g>
<g>
	<g>
		<defs>
			<rect id="SVGID_17_" x="7.7" y="9" width="18.1" height="9.1"/>
		</defs>
		<clipPath id="SVGID_18_">
			<use xlink:href="#SVGID_17_"  overflow="visible"/>
		</clipPath>
		<path clip-path="url(#SVGID_18_)" fill="#E8E5D1" d="M16.8,9.4c5,0,9.1,3.9,9.1,8.7c0-5-4.1-9.1-9.1-9.1c-5,0-9.1,4.1-9.1,9.1
			C7.7,13.3,11.8,9.4,16.8,9.4"/>
	</g>
</g>
<g>
	<g>
		<defs>
			<rect id="SVGID_19_" x="7.7" y="18.1" width="18.1" height="9.1"/>
		</defs>
		<clipPath id="SVGID_20_">
			<use xlink:href="#SVGID_19_"  overflow="visible"/>
		</clipPath>
		<path clip-path="url(#SVGID_20_)" fill="#E8E5D1" d="M16.8,26.8c-5,0-9.1-3.9-9.1-8.7c0,5,4.1,9.1,9.1,9.1c5,0,9.1-4.1,9.1-9.1
			C25.9,22.9,21.8,26.8,16.8,26.8"/>
	</g>
</g>
<path fill="#231F20" d="M22.8,15.9h-3.6v-3.6c0-0.4-0.3-0.6-0.6-0.6h-3.5c-0.4,0-0.6,0.3-0.6,0.6v3.6h-3.6c-0.4,0-0.6,0.3-0.6,0.6
	V20c0,0.4,0.3,0.6,0.6,0.6h3.6v3.6c0,0.4,0.3,0.6,0.6,0.6h3.5c0.4,0,0.6-0.3,0.6-0.6v-3.6h3.6c0.4,0,0.6-0.3,0.6-0.6v-3.5
	C23.4,16.2,23.1,15.9,22.8,15.9"/>
<path fill="#656263" d="M22.6,16.2h-3.7v-3.7c0-0.4-0.3-0.6-0.6-0.6h-2.9c-0.4,0-0.6,0.3-0.6,0.6v3.7h-3.6c-0.4,0-0.6,0.3-0.6,0.6
	v2.9c0,0.4,0.3,0.6,0.6,0.6h3.6V24c0,0.4,0.3,0.6,0.6,0.6h2.9c0.4,0,0.6-0.3,0.6-0.6v-3.7h3.7c0.4,0,0.6-0.3,0.6-0.6v-2.9
	C23.2,16.5,22.9,16.2,22.6,16.2"/>
<g>
	<g>
		<defs>
			<rect id="SVGID_21_" x="10.8" y="12.2" width="11.9" height="4.7"/>
		</defs>
		<clipPath id="SVGID_22_">
			<use xlink:href="#SVGID_21_"  overflow="visible"/>
		</clipPath>
		<path clip-path="url(#SVGID_22_)" fill="#656263" d="M22.8,16.9c0-0.1,0-0.2-0.1-0.3c-0.1-0.1-0.1-0.2-0.2-0.2
			c-0.1-0.1-0.3-0.1-0.5-0.1l-1.1,0l-2.2,0h0v0l0-2.9c0-0.2,0-0.5,0-0.7c-0.1-0.2-0.2-0.4-0.5-0.4c-0.2,0-0.5,0-0.7,0l-0.7,0l-0.7,0
			c-0.2,0-0.5,0-0.7,0c-0.3,0-0.4,0.2-0.5,0.4c-0.1,0.2,0,0.5,0,0.7l0,2.9v0h0l-2.2,0l-1.1,0c-0.2,0-0.4,0-0.5,0.1
			c-0.1,0-0.1,0.1-0.2,0.2c0,0.1,0,0.2-0.1,0.3c0-0.1,0-0.2,0.1-0.3c0.1-0.1,0.1-0.2,0.2-0.2c0.1-0.1,0.3-0.1,0.5-0.1l1.1,0l2.2,0
			l0,0l0-2.9c0-0.2,0-0.5,0-0.7c0-0.2,0.3-0.5,0.5-0.5c0.3,0,0.5,0,0.7,0l0.7,0l0.7,0c0.2,0,0.5,0,0.7,0c0.3,0,0.5,0.2,0.5,0.5
			c0.1,0.3,0,0.5,0,0.7l0,2.9l0,0l2.2,0l1.1,0c0.2,0,0.4,0,0.5,0.1c0.1,0,0.1,0.1,0.2,0.2C22.8,16.7,22.8,16.8,22.8,16.9"/>
	</g>
</g>
<path fill="#464344" d="M16.9,18.3c-0.5,0-1,0.3-1.2,0.7c0.2,0.4,0.7,0.7,1.2,0.7c0.5,0,1-0.3,1.2-0.7
	C17.9,18.6,17.5,18.3,16.9,18.3"/>
<path fill="#888687" d="M13.8,19.4c0,0.1-0.1,0.2-0.2,0.1l-2.1-1.1c-0.1-0.1-0.1-0.2,0-0.2l2.1-1.1c0.1-0.1,0.2,0,0.2,0.1V19.4z"/>
<path fill="#888687" d="M17.9,21.5c0.1,0,0.2,0.1,0.1,0.2l-1.1,2.1c-0.1,0.1-0.2,0.1-0.2,0l-1.1-2.1c-0.1-0.1,0-0.2,0.1-0.2H17.9z"
	/>
<path fill="#888687" d="M19.9,17.2c0-0.1,0.1-0.2,0.2-0.1l2.1,1.1c0.1,0.1,0.1,0.2,0,0.2l-2.1,1.1c-0.1,0.1-0.2,0-0.2-0.1V17.2z"/>
<path fill="#888687" d="M15.7,15.2c-0.1,0-0.2-0.1-0.1-0.2l1.1-2.1c0.1-0.1,0.2-0.1,0.2,0l1.1,2.1c0.1,0.1,0,0.2-0.1,0.2H15.7z"/>
<g>
	<g>
		<defs>
			<rect id="SVGID_23_" x="15.4" y="16.7" width="3" height="1.6"/>
		</defs>
		<clipPath id="SVGID_24_">
			<use xlink:href="#SVGID_23_"  overflow="visible"/>
		</clipPath>
		<path clip-path="url(#SVGID_24_)" fill="#656263" d="M18.5,18.3c0,0,0-0.1,0-0.2c0-0.1-0.1-0.3-0.2-0.5c0-0.1-0.1-0.2-0.2-0.3
			c-0.1-0.1-0.2-0.2-0.3-0.3c-0.2-0.1-0.5-0.2-0.8-0.2c-0.1,0-0.3,0-0.4,0.1c-0.1,0-0.3,0.1-0.4,0.2c-0.1,0.1-0.2,0.2-0.3,0.3
			c-0.1,0.1-0.2,0.2-0.2,0.3c-0.1,0.2-0.2,0.4-0.2,0.5c0,0.1,0,0.2,0,0.2s0-0.1,0-0.2c0-0.1,0-0.3,0.1-0.5c0-0.1,0.1-0.2,0.2-0.3
			c0.1-0.1,0.2-0.2,0.3-0.3c0.1-0.1,0.2-0.2,0.4-0.2c0.2-0.1,0.3-0.1,0.4-0.1c0.3,0,0.6,0.1,0.9,0.3c0.1,0.1,0.2,0.2,0.3,0.3
			c0.1,0.1,0.2,0.2,0.2,0.3c0.1,0.2,0.1,0.4,0.1,0.5C18.5,18.2,18.5,18.3,18.5,18.3"/>
	</g>
</g>
<g opacity="0.3">
	<g>
		<defs>
			<rect id="SVGID_25_" x="39.6" y="1.1" width="3.2" height="0.7"/>
		</defs>
		<clipPath id="SVGID_26_">
			<use xlink:href="#SVGID_25_"  overflow="visible"/>
		</clipPath>
		<rect x="39.6" y="1.1" clip-path="url(#SVGID_26_)" fill="#656263" width="3.2" height="0.7"/>
	</g>
</g>
<path fill="#231F20" d="M37.7,21.3c0.2,0.3,0.1,0.7-0.2,0.9l-4.3,2.7c-0.3,0.2-0.7,0.1-0.9-0.2l-0.5-0.8c-0.2-0.3-0.1-0.7,0.2-0.9
	l4.3-2.7c0.3-0.2,0.7-0.1,0.9,0.2L37.7,21.3z"/>
<path fill="#656263" d="M37.7,21.3c0.2,0.3,0.1,0.7-0.2,0.9l-4,2.5c-0.3,0.2-0.7,0.1-0.9-0.2l-0.2-0.3c-0.2-0.3-0.1-0.7,0.2-0.9
	l4-2.5c0.3-0.2,0.7-0.1,0.9,0.2L37.7,21.3z"/>
<path fill="#4F4C4D" d="M37,21.1c0.1,0.1,0,0.2-0.1,0.3l-4.1,2.6c-0.1,0.1-0.2,0-0.3-0.1c-0.1-0.1,0-0.2,0.1-0.3l4.1-2.6
	C36.9,21,37,21,37,21.1"/>
<path fill="#231F20" d="M46.1,21.1c0.2,0.3,0.1,0.7-0.2,0.9l-4.3,2.7c-0.3,0.2-0.7,0.1-0.9-0.2l-0.5-0.8c-0.2-0.3-0.1-0.7,0.2-0.9
	l4.3-2.7c0.3-0.2,0.7-0.1,0.9,0.2L46.1,21.1z"/>
<path fill="#656263" d="M46.1,21.1c0.2,0.3,0.1,0.7-0.2,0.9l-4,2.5c-0.3,0.2-0.7,0.1-0.9-0.2L40.8,24c-0.2-0.3-0.1-0.7,0.2-0.9
	l4-2.5c0.3-0.2,0.7-0.1,0.9,0.2L46.1,21.1z"/>
<path fill="#4F4C4D" d="M45.5,20.9c0.1,0.1,0,0.2-0.1,0.3l-4.1,2.6c-0.1,0.1-0.2,0-0.3-0.1c-0.1-0.1,0-0.2,0.1-0.3l4.1-2.6
	C45.3,20.8,45.5,20.8,45.5,20.9"/>
<g opacity="0.5">
	<g>
		<defs>
			<rect id="SVGID_27_" x="31.5" y="6.3" width="7.8" height="3.3"/>
		</defs>
		<clipPath id="SVGID_28_">
			<use xlink:href="#SVGID_27_"  overflow="visible"/>
		</clipPath>
		<polygon clip-path="url(#SVGID_28_)" fill="#4F4C4D" points="38.8,9.6 31.5,9.6 32,6.3 39.3,6.3 		"/>
	</g>
</g>
<g opacity="0.5">
	<g>
		<defs>
			<rect id="SVGID_29_" x="39.3" y="6.3" width="10.6" height="3.3"/>
		</defs>
		<clipPath id="SVGID_30_">
			<use xlink:href="#SVGID_29_"  overflow="visible"/>
		</clipPath>
		<polygon clip-path="url(#SVGID_30_)" fill="#4F4C4D" points="49.4,9.6 39.3,9.6 39.9,6.3 50,6.3 		"/>
	</g>
</g>
<g opacity="0.5">
	<g>
		<defs>
			<rect id="SVGID_31_" x="31.5" y="10.3" width="18" height="0.9"/>
		</defs>
		<clipPath id="SVGID_32_">
			<use xlink:href="#SVGID_31_"  overflow="visible"/>
		</clipPath>
		<rect x="31.5" y="10.3" clip-path="url(#SVGID_32_)" fill="#4F4C4D" width="18" height="0.9"/>
	</g>
</g>
<g opacity="0.5">
	<g>
		<defs>
			<rect id="SVGID_33_" x="32.3" y="26.3" width="6" height="1.2"/>
		</defs>
		<clipPath id="SVGID_34_">
			<use xlink:href="#SVGID_33_"  overflow="visible"/>
		</clipPath>
		<polygon clip-path="url(#SVGID_34_)" fill="#4F4C4D" points="37.8,27.5 32.3,27.5 32.8,26.3 38.3,26.3 		"/>
	</g>
</g>
<g opacity="0.5">
	<g>
		<defs>
			<rect id="SVGID_35_" x="40.6" y="26.3" width="5.2" height="1.2"/>
		</defs>
		<clipPath id="SVGID_36_">
			<use xlink:href="#SVGID_35_"  overflow="visible"/>
		</clipPath>
		<polygon clip-path="url(#SVGID_36_)" fill="#4F4C4D" points="45.3,27.5 40.6,27.5 41.1,26.3 45.8,26.3 		"/>
	</g>
</g>
</svg>
