<?xml version="1.0" encoding="utf-8"?>
<!-- Generator: Adobe Illustrator 15.0.2, SVG Export Plug-In . SVG Version: 6.00 Build 0)  -->
<!DOCTYPE svg PUBLIC "-//W3C//DTD SVG 1.1//EN" "http://www.w3.org/Graphics/SVG/1.1/DTD/svg11.dtd">
<svg version="1.1" id="Layer_1" xmlns="http://www.w3.org/2000/svg" xmlns:xlink="http://www.w3.org/1999/xlink" x="0px" y="0px"
	 width="81.4px" height="32.3px" viewBox="0 0 81.4 32.3" enable-background="new 0 0 81.4 32.3" xml:space="preserve">
<path fill="#AFC6D1" d="M11.9,8.8c0,0,5.7-5,8.5-5.2c2.7-0.2-7,6.7-7,6.7L11,10.5L11.9,8.8z"/>
<path fill="#231F20" d="M3.2,25.7h3.9c0,0,0.4,1.1,1.3,1.1h11.4l2.6,1.6c0,0,1.3,0,2.4-2.3c1.1-2.4,28.3-2.4,28.3-2.4l6.5,2.4
	c0,0,0.1,2.4,5.5,2.4c5.4,0,10.3-3.4,10.3-3.4l3.3-0.3c0,0,1.7-0.5-0.4-3.7c-2-3.2-4.4-5.2-4.4-5.2S66.8,14,66.5,14
	c-0.2,0-33.9-2.2-33.9-2.2l-20.8,2.4L3.2,25.7z"/>
<path fill="#A1D6E7" d="M79.6,23.6l-0.7-2.4c0,0-0.8-2.9-1.1-4.1c-0.3-1.2-1.8-2.1-2.3-2.2c-0.2,0,0.6,0.8,1.1,1.3
	c-0.3-0.3-0.9-0.9-1.9-1.8c-4.9-4.7-13.8-5-13.8-5s-5.4-0.5-6.1-0.5c-0.7,0-0.9-0.3-0.9-0.3s-3.5-5.5-3.9-6.1
	c-0.4-0.6-0.8-0.8-0.8-0.8S43.8,0,34.4,0C25.1,0,19,3.7,19,3.7c-0.3,0.9-1.6,1.8-1.6,1.8s-4.2,3.5-4.9,4c-0.7,0.5-0.6-0.8-0.6-0.8
	s-3.7,3.6-4.6,4.6c-0.9,1-2,2.6-2,2.6L5,17.5c0,0-1.1,2-1.7,3.3c-0.6,1.3,0.4,1.6,0.4,1.6l2.9,0c0.7-3.3,4.3-5.7,8.7-5.7
	c4.9,0,8.9,3,8.9,6.8c0,0.8-0.2,1.6-0.5,2.3l2.4,1c0,0,31.1,0.3,32.9,0.3s2-2,2-2c0.6-3.7,2.9-8.6,8.2-8.6s8.7,6.5,9.1,6.9
	s0.1,1.1,0.7,1.1S79.6,23.6,79.6,23.6"/>
<g opacity="0.3">
	<g>
		<defs>
			<rect id="SVGID_1_" x="9.4" y="2" width="41.5" height="13.2"/>
		</defs>
		<clipPath id="SVGID_2_">
			<use xlink:href="#SVGID_1_"  overflow="visible"/>
		</clipPath>
		<path clip-path="url(#SVGID_2_)" fill="#209DC6" d="M9.4,15.1c1-1.7,2.2-3.2,3.5-4.7c1.4-1.4,2.9-2.6,4.6-3.7
			c3.3-2.2,7-3.7,10.9-4.3c3.9-0.7,7.8-0.3,11.7-0.3L43,2.3c1,0.1,1.9,0.1,2.9,0.3c0.9,0.3,1.9,0.6,2.8,1c0.9,0.4,1.7,1,2.2,1.9
			c-0.6-0.8-1.5-1.3-2.3-1.7c-0.9-0.4-1.8-0.6-2.8-0.8c-0.9-0.2-1.9-0.2-2.9-0.3L40,2.6c-3.9-0.1-7.8-0.5-11.6,0.2
			C24.6,3.5,21,5,17.7,7.1c-1.6,1.1-3.1,2.3-4.5,3.7C11.8,12.1,10.5,13.5,9.4,15.1"/>
	</g>
</g>
<path fill="#E9EAE9" d="M15.1,21c-2.4,0-4.4,2-4.4,4.4h8.8C19.5,22.9,17.5,21,15.1,21"/>
<path fill="#393536" d="M18.9,19.6c-0.3-0.2-0.6-0.3-0.9-0.5c-0.3-0.1-0.6-0.3-0.9-0.4c-0.6-0.2-1.3-0.3-2-0.3c-0.7,0-1.4,0.1-2,0.3
	c-0.3,0.1-0.6,0.2-0.9,0.4c-0.3,0.1-0.6,0.3-0.9,0.5h1.9h1.9H18.9z"/>
<path fill="#373435" d="M12.7,18.9c-0.4,0.2-0.8,0.4-1.1,0.7c-0.2,0.1-0.3,0.3-0.5,0.4c-0.1,0.2-0.3,0.3-0.4,0.5h2.2h2.2h4.3
	c-0.1-0.2-0.2-0.3-0.4-0.5c-0.1-0.2-0.3-0.3-0.5-0.4c-0.3-0.3-0.7-0.5-1.1-0.7c-0.5-0.2-1.7-0.3-2.3-0.3S13.3,18.8,12.7,18.9"/>
<path fill="#353232" d="M12.4,19.1c-0.5,0.3-1,0.6-1.4,1.1c-0.2,0.2-0.4,0.4-0.5,0.7c-0.1,0.2-0.3,0.5-0.4,0.8h2.4h2.4h4.8
	c-0.1-0.3-0.2-0.5-0.4-0.8c-0.1-0.2-0.3-0.5-0.5-0.7c-0.4-0.4-0.8-0.8-1.4-1.1c-0.4-0.1-2.2-0.2-2.6-0.2
	C14.6,18.9,12.9,18.9,12.4,19.1"/>
<path fill="#343031" d="M12.2,19.2c-0.6,0.4-1.2,0.8-1.6,1.4c-0.2,0.3-0.4,0.6-0.5,0.9s-0.3,0.7-0.3,1h2.7h2.7h5.4
	c-0.1-0.3-0.2-0.7-0.3-1c-0.1-0.3-0.3-0.6-0.5-0.9c-0.4-0.6-1-1-1.6-1.4c-0.3-0.1-2.6-0.2-2.9-0.2C14.7,19.1,12.5,19.1,12.2,19.2"/>
<path fill="#322E2F" d="M11.9,19.3c-0.7,0.4-1.3,1-1.8,1.7c-0.2,0.3-0.4,0.7-0.6,1.1c-0.1,0.4-0.2,0.8-0.3,1.2h2.9h2.9h5.9
	c0-0.4-0.1-0.8-0.3-1.2c-0.1-0.4-0.3-0.8-0.6-1.1c-0.5-0.7-1.1-1.3-1.8-1.7c-0.2-0.1-3-0.1-3.2-0.1C14.8,19.2,12.1,19.3,11.9,19.3"
	/>
<path fill="#302C2D" d="M11.6,19.5c-0.8,0.5-1.5,1.2-2,2.1C9.3,22,9.1,22.4,9,22.9c-0.1,0.5-0.2,1-0.3,1.5h3.2h3.2h6.4
	c0-0.5-0.1-1-0.3-1.5c-0.1-0.5-0.3-0.9-0.6-1.3c-0.5-0.8-1.2-1.6-2-2.1c-0.1,0-3.4-0.1-3.5-0.1S11.7,19.5,11.6,19.5"/>
<path fill="#2E2A2B" d="M8.2,25.4h6.9H22c0-0.6-0.1-1.2-0.2-1.7s-0.4-1.1-0.6-1.6c-0.5-1-1.3-1.8-2.2-2.4h-3.8h-3.8
	c-0.9,0.6-1.7,1.5-2.2,2.4c-0.3,0.5-0.5,1-0.6,1.6C8.3,24.2,8.2,24.8,8.2,25.4"/>
<path fill="#2C2829" d="M10.7,20.6C10,21.3,9.4,22.1,9,23.1c-0.2,0.5-0.3,1-0.4,1.5c-0.1,0.5-0.1,1.1,0,1.6c0.2,0.2,6.2,0.3,6.5,0.3
	c0.3,0,6.3-0.1,6.5-0.3c0.1-0.5,0-1.1,0-1.6c-0.1-0.5-0.2-1-0.4-1.5c-0.4-1-1-1.8-1.8-2.5h-4.3H10.7z"/>
<path fill="#2A2728" d="M10.2,21.5c-0.6,0.7-1.1,1.6-1.3,2.5c-0.1,0.5-0.2,0.9-0.2,1.4c0,0.5,0,1,0.1,1.5c0.4,0.4,5.6,0.7,6.2,0.7
	c0.6,0,5.8-0.3,6.2-0.7c0.1-0.5,0.2-1,0.1-1.5c0-0.5-0.1-1-0.2-1.4c-0.2-0.9-0.7-1.8-1.3-2.5h-4.8H10.2z"/>
<path fill="#292525" d="M9.7,22.5C9.3,23.3,9,24.1,8.9,25c0,0.4-0.1,0.9,0,1.4c0.1,0.5,0.2,0.9,0.3,1.4c0.6,0.6,4.9,1,5.9,1
	c0.9,0,5.3-0.4,5.9-1c0.2-0.5,0.3-0.9,0.3-1.4c0.1-0.5,0-0.9,0-1.4c-0.1-0.9-0.4-1.8-0.8-2.6h-5.4H9.7z"/>
<path fill="#272324" d="M9.2,23.4c-0.3,0.8-0.4,1.7-0.4,2.6c0,0.4,0.1,0.9,0.2,1.3c0.1,0.4,0.3,0.9,0.5,1.3c0.8,0.8,4.3,1.3,5.5,1.3
	c1.3,0,4.7-0.5,5.5-1.3c0.2-0.4,0.4-0.8,0.5-1.3c0.1-0.4,0.2-0.9,0.2-1.3c0.1-0.9-0.1-1.8-0.4-2.6h-5.9H9.2z"/>
<path fill="#252122" d="M8.7,24.4c-0.2,0.9-0.1,1.8,0.1,2.6c0.1,0.4,0.2,0.8,0.4,1.2c0.2,0.4,0.4,0.8,0.7,1.2c1,1,3.6,1.7,5.2,1.7
	c1.6,0,4.2-0.6,5.2-1.7c0.3-0.4,0.5-0.7,0.7-1.2c0.2-0.4,0.3-0.8,0.4-1.2c0.2-0.8,0.2-1.7,0.1-2.6h-6.4H8.7z"/>
<path fill="#231F20" d="M22,25.4h-6.9H8.2c0,0.9,0.2,1.9,0.5,2.7c0.3,0.8,0.9,1.6,1.5,2.2c1.2,1.2,3,2,4.9,2c1.9,0,3.6-0.8,4.9-2
	c0.6-0.6,1.1-1.4,1.5-2.2C21.8,27.2,22,26.3,22,25.4"/>
<g>
	<g>
		<defs>
			<rect id="SVGID_3_" x="8.2" y="18.5" width="13.8" height="13.8"/>
		</defs>
		<clipPath id="SVGID_4_">
			<use xlink:href="#SVGID_3_"  overflow="visible"/>
		</clipPath>
		<path clip-path="url(#SVGID_4_)" fill="#4F4C4D" d="M15.1,18.9c3.5,0,6.4,2.9,6.4,6.4c0,3.5-2.9,6.4-6.4,6.4s-6.4-2.9-6.4-6.4
			C8.7,21.8,11.5,18.9,15.1,18.9 M15.1,18.5c-3.8,0-6.9,3.1-6.9,6.9s3.1,6.9,6.9,6.9c3.8,0,6.9-3.1,6.9-6.9S18.9,18.5,15.1,18.5"/>
		<path clip-path="url(#SVGID_4_)" fill="#484445" d="M15.1,18.9c3.6,0,6.5,2.9,6.5,6.5s-2.9,6.5-6.5,6.5c-3.6,0-6.5-2.9-6.5-6.5
			S11.5,18.9,15.1,18.9 M15.1,18.5c-3.8,0-6.9,3.1-6.9,6.9s3.1,6.9,6.9,6.9c3.8,0,6.9-3.1,6.9-6.9S18.9,18.5,15.1,18.5"/>
		<path clip-path="url(#SVGID_4_)" fill="#403D3E" d="M15.1,18.8c3.6,0,6.5,2.9,6.5,6.5c0,3.6-2.9,6.5-6.5,6.5
			c-3.6,0-6.5-2.9-6.5-6.5C8.6,21.8,11.5,18.8,15.1,18.8 M15.1,18.5c-3.8,0-6.9,3.1-6.9,6.9s3.1,6.9,6.9,6.9c3.8,0,6.9-3.1,6.9-6.9
			S18.9,18.5,15.1,18.5"/>
		<path clip-path="url(#SVGID_4_)" fill="#393536" d="M15.1,18.8c3.6,0,6.6,2.9,6.6,6.6s-2.9,6.6-6.6,6.6c-3.6,0-6.6-2.9-6.6-6.6
			S11.5,18.8,15.1,18.8 M15.1,18.5c-3.8,0-6.9,3.1-6.9,6.9s3.1,6.9,6.9,6.9c3.8,0,6.9-3.1,6.9-6.9S18.9,18.5,15.1,18.5"/>
		<path clip-path="url(#SVGID_4_)" fill="#322E2F" d="M15.1,18.7c3.7,0,6.6,3,6.6,6.6s-3,6.6-6.6,6.6c-3.7,0-6.6-3-6.6-6.6
			S11.4,18.7,15.1,18.7 M15.1,18.5c-3.8,0-6.9,3.1-6.9,6.9s3.1,6.9,6.9,6.9c3.8,0,6.9-3.1,6.9-6.9S18.9,18.5,15.1,18.5"/>
		<path clip-path="url(#SVGID_4_)" fill="#2A2728" d="M15.1,18.7c3.7,0,6.7,3,6.7,6.7s-3,6.7-6.7,6.7s-6.7-3-6.7-6.7
			S11.4,18.7,15.1,18.7 M15.1,18.5c-3.8,0-6.9,3.1-6.9,6.9s3.1,6.9,6.9,6.9s6.9-3.1,6.9-6.9S18.9,18.5,15.1,18.5"/>
		<path clip-path="url(#SVGID_4_)" fill="#231F20" d="M15.1,18.6c3.7,0,6.7,3,6.7,6.7s-3,6.7-6.7,6.7s-6.7-3-6.7-6.7
			S11.4,18.6,15.1,18.6 M15.1,18.5c-3.8,0-6.9,3.1-6.9,6.9s3.1,6.9,6.9,6.9c3.8,0,6.9-3.1,6.9-6.9S18.9,18.5,15.1,18.5"/>
	</g>
</g>
<path fill="#F6F7F6" d="M20.8,25.4c0,3.1-2.6,5.7-5.7,5.7c-3.1,0-5.7-2.6-5.7-5.7c0-3.1,2.6-5.7,5.7-5.7
	C18.2,19.7,20.8,22.2,20.8,25.4"/>
<path fill="#F0F0F0" d="M15.1,20.5c-2.7,0-4.8,2.2-4.8,4.8s2.2,4.8,4.8,4.8s4.8-2.2,4.8-4.8S17.7,20.5,15.1,20.5 M15.1,29.8
	c-2.5,0-4.5-2-4.5-4.5s2-4.5,4.5-4.5s4.5,2,4.5,4.5S17.5,29.8,15.1,29.8"/>
<g>
	<g>
		<defs>
			<rect id="SVGID_5_" x="10.6" y="20.8" width="8.9" height="8.9"/>
		</defs>
		<clipPath id="SVGID_6_">
			<use xlink:href="#SVGID_5_"  overflow="visible"/>
		</clipPath>
		<path clip-path="url(#SVGID_6_)" fill="#D3D4D4" d="M15.1,29.8c-1.2,0-2.3-0.5-3.1-1.3c-0.8-0.8-1.3-2-1.3-3.1
			c0-1.2,0.5-2.3,1.3-3.2c0.8-0.8,2-1.3,3.2-1.3c1.2,0,2.3,0.5,3.2,1.3c0.8,0.8,1.3,2,1.3,3.2c0,1.2-0.5,2.3-1.3,3.1
			C17.4,29.3,16.2,29.8,15.1,29.8 M15.1,29.8c1.2,0,2.3-0.5,3.1-1.3c0.8-0.8,1.3-2,1.3-3.1c0-1.1-0.5-2.3-1.3-3.1
			c-0.8-0.8-1.9-1.3-3.1-1.2c-1.1,0-2.3,0.4-3.1,1.2c-0.8,0.8-1.3,1.9-1.3,3.1c0,1.1,0.4,2.3,1.3,3.1C12.8,29.3,13.9,29.8,15.1,29.8
			"/>
	</g>
</g>
<g>
	<g>
		<defs>
			<rect id="SVGID_7_" x="11.1" y="21.3" width="8" height="8"/>
		</defs>
		<clipPath id="SVGID_8_">
			<use xlink:href="#SVGID_7_"  overflow="visible"/>
		</clipPath>
		<path clip-path="url(#SVGID_8_)" fill="#D3D4D4" d="M15.1,29.3c-1,0-2.1-0.4-2.8-1.1c-0.8-0.7-1.2-1.8-1.2-2.8
			c0-1.1,0.4-2.1,1.2-2.9c0.7-0.8,1.8-1.2,2.9-1.2c1.1,0,2.1,0.5,2.9,1.2c0.7,0.8,1.2,1.8,1.2,2.9c0,1.1-0.4,2.1-1.2,2.8
			C17.2,28.9,16.1,29.3,15.1,29.3 M15.1,29.3c1,0,2.1-0.4,2.8-1.2c0.7-0.7,1.1-1.8,1.1-2.8c0-1-0.4-2-1.2-2.7
			c-0.7-0.7-1.7-1.1-2.7-1.1c-1,0-2,0.4-2.7,1.1c-0.7,0.7-1.2,1.7-1.2,2.7c0,1,0.4,2.1,1.1,2.8C13,28.9,14,29.3,15.1,29.3"/>
	</g>
</g>
<path fill="#BEBFBE" d="M15.1,28.5c-1.7,0-3.1-1.4-3.1-3.1h-0.2c0,1.8,1.5,3.3,3.3,3.3c1.8,0,3.3-1.5,3.3-3.3h-0.2
	C18.2,27.1,16.8,28.5,15.1,28.5"/>
<path fill="#929493" d="M15.1,22.1c-1.8,0-3.3,1.5-3.3,3.3H12c0-1.7,1.4-3.1,3.1-3.1s3.1,1.4,3.1,3.1h0.2
	C18.4,23.5,16.9,22.1,15.1,22.1"/>
<path fill="#DEDFDE" d="M18.3,25.4c0,1.8-1.4,3.2-3.2,3.2c-1.8,0-3.2-1.4-3.2-3.2c0-1.8,1.4-3.2,3.2-3.2
	C16.8,22.2,18.3,23.7,18.3,25.4"/>
<path fill="#3B3F3C" d="M15.5,22.8c0,0.1-0.1,0.2-0.2,0.2h-0.5c-0.1,0-0.2-0.1-0.2-0.2c0-0.1,0.1-0.2,0.2-0.2h0.5
	C15.4,22.6,15.5,22.7,15.5,22.8"/>
<path fill="#3B3F3C" d="M13.5,23.3c0.1,0.1,0.1,0.2,0,0.2l-0.4,0.4c-0.1,0.1-0.2,0.1-0.2,0c-0.1-0.1-0.1-0.2,0-0.2l0.4-0.4
	C13.4,23.2,13.5,23.2,13.5,23.3"/>
<path fill="#3B3F3C" d="M12.5,25c0.1,0,0.2,0.1,0.2,0.2v0.5c0,0.1-0.1,0.2-0.2,0.2c-0.1,0-0.2-0.1-0.2-0.2l0-0.5
	C12.3,25.1,12.4,25,12.5,25"/>
<path fill="#3B3F3C" d="M12.9,27c0.1-0.1,0.2-0.1,0.2,0l0.4,0.4c0.1,0.1,0.1,0.2,0,0.2c-0.1,0.1-0.2,0.1-0.2,0l-0.4-0.4
	C12.9,27.2,12.9,27,12.9,27"/>
<path fill="#3B3F3C" d="M14.6,28c0-0.1,0.1-0.2,0.2-0.2h0.5c0.1,0,0.2,0.1,0.2,0.2c0,0.1-0.1,0.2-0.2,0.2h-0.5
	C14.7,28.2,14.6,28.1,14.6,28"/>
<path fill="#3B3F3C" d="M16.6,27.6c-0.1-0.1-0.1-0.2,0-0.2L17,27c0.1-0.1,0.2-0.1,0.2,0c0.1,0.1,0.1,0.2,0,0.2l-0.4,0.4
	C16.8,27.7,16.7,27.7,16.6,27.6"/>
<path fill="#3B3F3C" d="M17.7,25.9c-0.1,0-0.2-0.1-0.2-0.2v-0.5c0-0.1,0.1-0.2,0.2-0.2c0.1,0,0.2,0.1,0.2,0.2v0.5
	C17.9,25.8,17.8,25.9,17.7,25.9"/>
<path fill="#3B3F3C" d="M17.2,23.9c-0.1,0.1-0.2,0.1-0.2,0l-0.4-0.4c-0.1-0.1-0.1-0.2,0-0.2c0.1-0.1,0.2-0.1,0.2,0l0.4,0.4
	C17.3,23.7,17.3,23.8,17.2,23.9"/>
<path fill="#A8AAA8" d="M17.2,25.4c0,1.2-0.9,2.1-2.1,2.1c-1.2,0-2.1-0.9-2.1-2.1s0.9-2.1,2.1-2.1C16.2,23.3,17.2,24.3,17.2,25.4"/>
<path fill="#A8AAA8" d="M15.8,25.4c0,0.4-0.3,0.7-0.7,0.7c-0.4,0-0.7-0.3-0.7-0.7c0-0.4,0.3-0.7,0.7-0.7
	C15.5,24.7,15.8,25.1,15.8,25.4"/>
<g>
	<g>
		<defs>
			<rect id="SVGID_9_" x="14.3" y="25.4" width="1.6" height="0.8"/>
		</defs>
		<clipPath id="SVGID_10_">
			<use xlink:href="#SVGID_9_"  overflow="visible"/>
		</clipPath>
		<path clip-path="url(#SVGID_10_)" fill="#A8AAA8" d="M15.1,26c-0.3,0-0.6-0.3-0.6-0.6h-0.2c0,0.4,0.4,0.8,0.8,0.8
			c0.4,0,0.8-0.4,0.8-0.8h-0.2C15.7,25.8,15.4,26,15.1,26"/>
	</g>
</g>
<g>
	<g>
		<defs>
			<rect id="SVGID_11_" x="14.3" y="24.6" width="1.6" height="0.8"/>
		</defs>
		<clipPath id="SVGID_12_">
			<use xlink:href="#SVGID_11_"  overflow="visible"/>
		</clipPath>
		<path clip-path="url(#SVGID_12_)" fill="#A8AAA8" d="M15.1,24.6c-0.4,0-0.8,0.4-0.8,0.8h0.2c0-0.3,0.3-0.6,0.6-0.6
			c0.3,0,0.6,0.3,0.6,0.6h0.2C15.9,25,15.5,24.6,15.1,24.6"/>
	</g>
</g>
<g opacity="0.3">
	<g>
		<defs>
			<rect id="SVGID_13_" x="13.2" y="24" width="3.8" height="1.4"/>
		</defs>
		<clipPath id="SVGID_14_">
			<use xlink:href="#SVGID_13_"  overflow="visible"/>
		</clipPath>
		<g clip-path="url(#SVGID_14_)">
			<g>
				<defs>
					<rect id="SVGID_15_" x="13.2" y="25.1" width="0.9" height="0.3"/>
				</defs>
				<clipPath id="SVGID_16_">
					<use xlink:href="#SVGID_15_"  overflow="visible"/>
				</clipPath>
				<path clip-path="url(#SVGID_16_)" fill="#676A67" d="M13.2,25.2c0.3-0.2,0.7-0.1,0.9,0.2C13.8,25.4,13.5,25.3,13.2,25.2"/>
			</g>
		</g>
		<path clip-path="url(#SVGID_14_)" fill="#E9EAE9" d="M13.7,24.9c0-0.3,0.2-0.5,0.5-0.7c0.3-0.1,0.6-0.2,0.9-0.2
			c-0.3,0.1-0.6,0.1-0.8,0.3C14.1,24.5,13.9,24.7,13.7,24.9"/>
		<g clip-path="url(#SVGID_14_)">
			<g>
				<defs>
					<rect id="SVGID_17_" x="16" y="25.1" width="0.9" height="0.3"/>
				</defs>
				<clipPath id="SVGID_18_">
					<use xlink:href="#SVGID_17_"  overflow="visible"/>
				</clipPath>
				<path clip-path="url(#SVGID_18_)" fill="#676A67" d="M17,25.2c-0.3,0.1-0.6,0.2-0.9,0.2C16.3,25.1,16.7,25.1,17,25.2"/>
			</g>
		</g>
		<path clip-path="url(#SVGID_14_)" fill="#E9EAE9" d="M16.4,24.9c-0.1-0.2-0.3-0.5-0.5-0.6c-0.2-0.2-0.5-0.2-0.8-0.3
			c0.3-0.1,0.6,0,0.9,0.2C16.2,24.4,16.4,24.6,16.4,24.9"/>
	</g>
</g>
<path fill="#E9EAE9" d="M69.3,21c-2.4,0-4.4,2-4.4,4.4h8.8C73.7,23,71.8,21,69.3,21"/>
<path fill="#393536" d="M73.1,19.7c-0.3-0.2-0.6-0.3-0.9-0.5c-0.3-0.1-0.6-0.3-0.9-0.4c-0.6-0.2-1.3-0.3-2-0.3s-1.4,0.1-2,0.3
	c-0.3,0.1-0.6,0.2-0.9,0.4c-0.3,0.1-0.6,0.3-0.9,0.5h1.9h1.9H73.1z"/>
<path fill="#373435" d="M67,19c-0.4,0.2-0.8,0.4-1.1,0.7c-0.2,0.1-0.3,0.3-0.5,0.4c-0.1,0.2-0.3,0.3-0.4,0.5h2.2h2.2h4.3
	c-0.1-0.2-0.2-0.3-0.4-0.5c-0.1-0.2-0.3-0.3-0.5-0.5c-0.3-0.3-0.7-0.5-1.1-0.7c-0.5-0.2-1.7-0.3-2.3-0.3C68.7,18.7,67.5,18.8,67,19"
	/>
<path fill="#353232" d="M66.7,19.1c-0.5,0.3-1,0.6-1.4,1.1c-0.2,0.2-0.4,0.4-0.5,0.7c-0.1,0.2-0.3,0.5-0.4,0.8h2.4h2.4h4.8
	c-0.1-0.3-0.2-0.5-0.4-0.8c-0.1-0.2-0.3-0.5-0.5-0.7c-0.4-0.4-0.8-0.8-1.4-1.1c-0.4-0.1-2.2-0.2-2.6-0.2S67.1,19,66.7,19.1"/>
<path fill="#343031" d="M66.4,19.3c-0.6,0.4-1.2,0.8-1.6,1.4c-0.2,0.3-0.4,0.6-0.5,0.9c-0.1,0.3-0.3,0.7-0.3,1h2.7h2.7h5.4
	c-0.1-0.3-0.2-0.7-0.3-1c-0.1-0.3-0.3-0.6-0.5-0.9c-0.4-0.6-1-1-1.6-1.4c-0.3-0.1-2.6-0.2-2.9-0.2C69,19.1,66.7,19.2,66.4,19.3"/>
<path fill="#322E2F" d="M66.1,19.4c-0.7,0.4-1.3,1-1.8,1.7c-0.2,0.3-0.4,0.7-0.6,1.1c-0.1,0.4-0.2,0.8-0.3,1.2h2.9h2.9h5.9
	c0-0.4-0.1-0.8-0.3-1.2c-0.1-0.4-0.3-0.8-0.6-1.1c-0.5-0.7-1.1-1.3-1.8-1.7c-0.2-0.1-3-0.1-3.2-0.1C69.1,19.3,66.3,19.4,66.1,19.4"
	/>
<path fill="#302C2D" d="M65.8,19.6c-0.8,0.5-1.5,1.2-2,2.1c-0.2,0.4-0.4,0.9-0.6,1.3c-0.1,0.5-0.2,1-0.3,1.5h3.2h3.2h6.4
	c0-0.5-0.1-1-0.3-1.5c-0.1-0.5-0.3-0.9-0.6-1.3c-0.5-0.8-1.2-1.6-2-2.1c-0.1,0-3.4-0.1-3.5-0.1C69.2,19.5,65.9,19.5,65.8,19.6"/>
<path fill="#2E2A2B" d="M62.4,25.4h6.9h6.9c0-0.6-0.1-1.2-0.2-1.7c-0.1-0.6-0.4-1.1-0.6-1.6c-0.5-1-1.3-1.8-2.2-2.4h-3.8h-3.8
	c-0.9,0.6-1.7,1.5-2.2,2.4c-0.3,0.5-0.5,1-0.6,1.6C62.5,24.3,62.4,24.8,62.4,25.4"/>
<path fill="#2C2829" d="M65,20.7c-0.8,0.7-1.4,1.5-1.8,2.5c-0.2,0.5-0.3,1-0.4,1.5c-0.1,0.5-0.1,1.1,0,1.6c0.2,0.2,6.2,0.3,6.5,0.3
	s6.3-0.1,6.5-0.3c0.1-0.6,0-1.1,0-1.6c-0.1-0.5-0.2-1-0.4-1.5c-0.4-1-1-1.8-1.8-2.5h-4.3H65z"/>
<path fill="#2A2728" d="M64.5,21.6c-0.6,0.7-1.1,1.6-1.3,2.5c-0.1,0.5-0.2,0.9-0.2,1.4c0,0.5,0,1,0.1,1.5c0.4,0.4,5.6,0.7,6.2,0.7
	s5.8-0.3,6.2-0.7c0.1-0.5,0.2-1,0.1-1.5c0-0.5-0.1-1-0.2-1.4c-0.2-0.9-0.7-1.8-1.3-2.5h-4.8H64.5z"/>
<path fill="#292525" d="M64,22.6c-0.5,0.8-0.7,1.7-0.8,2.6c0,0.4-0.1,0.9,0,1.4c0.1,0.5,0.2,0.9,0.3,1.4c0.6,0.6,4.9,1,5.9,1
	c0.9,0,5.2-0.4,5.9-1c0.2-0.5,0.3-0.9,0.3-1.4c0.1-0.5,0-0.9,0-1.4c-0.1-0.9-0.4-1.8-0.8-2.6h-5.3H64z"/>
<path fill="#272324" d="M63.5,23.5c-0.3,0.8-0.4,1.7-0.4,2.6c0,0.4,0.1,0.9,0.2,1.3c0.1,0.4,0.3,0.9,0.5,1.3
	c0.8,0.8,4.3,1.3,5.5,1.3c1.3,0,4.7-0.5,5.5-1.3c0.2-0.4,0.4-0.8,0.5-1.3c0.1-0.4,0.2-0.9,0.2-1.3c0.1-0.9-0.1-1.8-0.4-2.6h-5.9
	H63.5z"/>
<path fill="#252122" d="M63,24.5c-0.2,0.9-0.1,1.8,0.1,2.6c0.1,0.4,0.2,0.8,0.4,1.2c0.2,0.4,0.4,0.8,0.7,1.2c1,1,3.6,1.7,5.2,1.7
	c1.6,0,4.2-0.6,5.2-1.7c0.3-0.4,0.5-0.7,0.7-1.2c0.2-0.4,0.3-0.8,0.4-1.2c0.2-0.8,0.2-1.7,0.1-2.6h-6.4H63z"/>
<path fill="#231F20" d="M76.2,25.4h-6.9h-6.9c0,1,0.2,1.9,0.5,2.7s0.9,1.6,1.5,2.2c1.2,1.2,3,2,4.9,2c1.9,0,3.6-0.8,4.9-2
	c0.6-0.6,1.1-1.4,1.5-2.2S76.2,26.4,76.2,25.4"/>
<g>
	<g>
		<defs>
			<rect id="SVGID_19_" x="62.4" y="18.6" width="13.8" height="13.8"/>
		</defs>
		<clipPath id="SVGID_20_">
			<use xlink:href="#SVGID_19_"  overflow="visible"/>
		</clipPath>
		<path clip-path="url(#SVGID_20_)" fill="#4F4C4D" d="M69.3,19c3.5,0,6.4,2.9,6.4,6.4s-2.9,6.4-6.4,6.4s-6.4-2.9-6.4-6.4
			S65.8,19,69.3,19 M69.3,18.6c-3.8,0-6.9,3.1-6.9,6.9s3.1,6.9,6.9,6.9c3.8,0,6.9-3.1,6.9-6.9S73.1,18.6,69.3,18.6"/>
		<path clip-path="url(#SVGID_20_)" fill="#484445" d="M69.3,19c3.6,0,6.5,2.9,6.5,6.5s-2.9,6.5-6.5,6.5c-3.6,0-6.5-2.9-6.5-6.5
			S65.8,19,69.3,19 M69.3,18.6c-3.8,0-6.9,3.1-6.9,6.9s3.1,6.9,6.9,6.9c3.8,0,6.9-3.1,6.9-6.9S73.1,18.6,69.3,18.6"/>
		<path clip-path="url(#SVGID_20_)" fill="#403D3E" d="M69.3,18.9c3.6,0,6.5,2.9,6.5,6.5S72.9,32,69.3,32s-6.5-2.9-6.5-6.5
			S65.7,18.9,69.3,18.9 M69.3,18.6c-3.8,0-6.9,3.1-6.9,6.9s3.1,6.9,6.9,6.9s6.9-3.1,6.9-6.9S73.1,18.6,69.3,18.6"/>
		<path clip-path="url(#SVGID_20_)" fill="#393536" d="M69.3,18.9c3.6,0,6.6,2.9,6.6,6.6S73,32,69.3,32c-3.6,0-6.6-2.9-6.6-6.6
			S65.7,18.9,69.3,18.9 M69.3,18.6c-3.8,0-6.9,3.1-6.9,6.9c0,3.8,3.1,6.9,6.9,6.9c3.8,0,6.9-3.1,6.9-6.9
			C76.2,21.6,73.1,18.6,69.3,18.6"/>
		<path clip-path="url(#SVGID_20_)" fill="#322E2F" d="M69.3,18.8c3.7,0,6.6,3,6.6,6.6s-3,6.6-6.6,6.6s-6.6-3-6.6-6.6
			S65.7,18.8,69.3,18.8 M69.3,18.6c-3.8,0-6.9,3.1-6.9,6.9s3.1,6.9,6.9,6.9s6.9-3.1,6.9-6.9S73.1,18.6,69.3,18.6"/>
		<path clip-path="url(#SVGID_20_)" fill="#2A2728" d="M69.3,18.8c3.7,0,6.7,3,6.7,6.7s-3,6.7-6.7,6.7s-6.7-3-6.7-6.7
			S65.6,18.8,69.3,18.8 M69.3,18.6c-3.8,0-6.9,3.1-6.9,6.9s3.1,6.9,6.9,6.9c3.8,0,6.9-3.1,6.9-6.9S73.1,18.6,69.3,18.6"/>
		<path clip-path="url(#SVGID_20_)" fill="#231F20" d="M69.3,18.7c3.7,0,6.7,3,6.7,6.7s-3,6.7-6.7,6.7s-6.7-3-6.7-6.7
			S65.6,18.7,69.3,18.7 M69.3,18.6c-3.8,0-6.9,3.1-6.9,6.9s3.1,6.9,6.9,6.9c3.8,0,6.9-3.1,6.9-6.9S73.1,18.6,69.3,18.6"/>
	</g>
</g>
<path fill="#F6F7F6" d="M75,25.4c0,3.1-2.6,5.7-5.7,5.7c-3.1,0-5.7-2.6-5.7-5.7s2.6-5.7,5.7-5.7C72.5,19.7,75,22.3,75,25.4"/>
<path fill="#F0F0F0" d="M69.3,20.6c-2.7,0-4.8,2.2-4.8,4.8s2.2,4.8,4.8,4.8s4.8-2.2,4.8-4.8S72,20.6,69.3,20.6 M69.3,29.9
	c-2.5,0-4.5-2-4.5-4.5s2-4.5,4.5-4.5s4.5,2,4.5,4.5S71.8,29.9,69.3,29.9"/>
<g>
	<g>
		<defs>
			<rect id="SVGID_21_" x="64.9" y="20.9" width="8.9" height="8.9"/>
		</defs>
		<clipPath id="SVGID_22_">
			<use xlink:href="#SVGID_21_"  overflow="visible"/>
		</clipPath>
		<path clip-path="url(#SVGID_22_)" fill="#D3D4D4" d="M69.3,29.8c-1.2,0-2.3-0.5-3.1-1.3c-0.8-0.8-1.3-2-1.3-3.1
			c0-1.2,0.5-2.3,1.3-3.2c0.8-0.8,2-1.3,3.2-1.3c1.2,0,2.4,0.5,3.2,1.3c0.8,0.8,1.3,2,1.3,3.2c0,1.2-0.5,2.3-1.3,3.1
			C71.6,29.4,70.5,29.8,69.3,29.8 M69.3,29.8c1.2,0,2.3-0.5,3.1-1.3c0.8-0.8,1.3-2,1.3-3.1c0-1.1-0.5-2.3-1.3-3.1
			c-0.8-0.8-1.9-1.3-3.1-1.2c-1.1,0-2.3,0.4-3.1,1.2c-0.8,0.8-1.3,1.9-1.3,3.1c0,1.1,0.4,2.3,1.3,3.1C67,29.3,68.2,29.8,69.3,29.8"
			/>
	</g>
</g>
<g>
	<g>
		<defs>
			<rect id="SVGID_23_" x="65.3" y="21.4" width="8" height="8"/>
		</defs>
		<clipPath id="SVGID_24_">
			<use xlink:href="#SVGID_23_"  overflow="visible"/>
		</clipPath>
		<path clip-path="url(#SVGID_24_)" fill="#D3D4D4" d="M69.3,29.4c-1,0-2.1-0.4-2.8-1.1c-0.8-0.7-1.2-1.8-1.2-2.8
			c0-1.1,0.4-2.1,1.2-2.9c0.7-0.8,1.8-1.2,2.9-1.2c1.1,0,2.1,0.5,2.9,1.2c0.7,0.8,1.2,1.8,1.2,2.9c0,1.1-0.4,2.1-1.2,2.8
			C71.4,29,70.4,29.4,69.3,29.4 M69.3,29.4c1,0,2.1-0.4,2.8-1.2c0.7-0.7,1.1-1.8,1.1-2.8c0-1-0.4-2-1.2-2.7
			c-0.7-0.7-1.7-1.1-2.7-1.1c-1,0-2,0.4-2.7,1.1c-0.7,0.7-1.2,1.7-1.2,2.7c0,1,0.4,2.1,1.1,2.8C67.3,29,68.3,29.4,69.3,29.4"/>
	</g>
</g>
<path fill="#BEBFBE" d="M69.3,28.6c-1.7,0-3.1-1.4-3.1-3.1H66c0,1.8,1.5,3.3,3.3,3.3s3.3-1.5,3.3-3.3h-0.2
	C72.5,27.2,71.1,28.6,69.3,28.6"/>
<path fill="#929493" d="M69.3,22.2c-1.8,0-3.3,1.5-3.3,3.3h0.2c0-1.7,1.4-3.1,3.1-3.1s3.1,1.4,3.1,3.1h0.2
	C72.6,23.6,71.1,22.2,69.3,22.2"/>
<path fill="#DEDFDE" d="M72.5,25.5c0,1.8-1.4,3.2-3.2,3.2c-1.8,0-3.2-1.4-3.2-3.2s1.4-3.2,3.2-3.2C71.1,22.3,72.5,23.7,72.5,25.5"/>
<path fill="#3B3F3C" d="M69.8,22.9c0,0.1-0.1,0.2-0.2,0.2h-0.5c-0.1,0-0.2-0.1-0.2-0.2s0.1-0.2,0.2-0.2h0.5
	C69.7,22.7,69.8,22.8,69.8,22.9"/>
<path fill="#3B3F3C" d="M67.8,23.4c0.1,0.1,0.1,0.2,0,0.2L67.4,24c-0.1,0.1-0.2,0.1-0.2,0c-0.1-0.1-0.1-0.2,0-0.2l0.4-0.4
	C67.6,23.3,67.7,23.3,67.8,23.4"/>
<path fill="#3B3F3C" d="M66.7,25.1c0.1,0,0.2,0.1,0.2,0.2v0.5c0,0.1-0.1,0.2-0.2,0.2c-0.1,0-0.2-0.1-0.2-0.2l0-0.5
	C66.5,25.2,66.6,25.1,66.7,25.1"/>
<path fill="#3B3F3C" d="M67.2,27.1c0.1-0.1,0.2-0.1,0.2,0l0.4,0.4c0.1,0.1,0.1,0.2,0,0.2c-0.1,0.1-0.2,0.1-0.2,0l-0.4-0.4
	C67.1,27.2,67.1,27.1,67.2,27.1"/>
<path fill="#3B3F3C" d="M68.9,28.1c0-0.1,0.1-0.2,0.2-0.2h0.5c0.1,0,0.2,0.1,0.2,0.2c0,0.1-0.1,0.2-0.2,0.2h-0.5
	C69,28.3,68.9,28.2,68.9,28.1"/>
<path fill="#3B3F3C" d="M70.9,27.7c-0.1-0.1-0.1-0.2,0-0.2l0.4-0.4c0.1-0.1,0.2-0.1,0.2,0s0.1,0.2,0,0.2l-0.4,0.4
	C71,27.7,70.9,27.7,70.9,27.7"/>
<path fill="#3B3F3C" d="M71.9,25.9c-0.1,0-0.2-0.1-0.2-0.2v-0.5c0-0.1,0.1-0.2,0.2-0.2s0.2,0.1,0.2,0.2v0.5
	C72.1,25.9,72,25.9,71.9,25.9"/>
<path fill="#3B3F3C" d="M71.5,24c-0.1,0.1-0.2,0.1-0.2,0l-0.4-0.4c-0.1-0.1-0.1-0.2,0-0.2c0.1-0.1,0.2-0.1,0.2,0l0.4,0.4
	C71.6,23.8,71.6,23.9,71.5,24"/>
<path fill="#A8AAA8" d="M71.4,25.5c0,1.2-0.9,2.1-2.1,2.1c-1.2,0-2.1-0.9-2.1-2.1c0-1.2,0.9-2.1,2.1-2.1
	C70.5,23.4,71.4,24.4,71.4,25.5"/>
<path fill="#A8AAA8" d="M70,25.5c0,0.4-0.3,0.7-0.7,0.7c-0.4,0-0.7-0.3-0.7-0.7s0.3-0.7,0.7-0.7C69.7,24.8,70,25.1,70,25.5"/>
<g>
	<g>
		<defs>
			<rect id="SVGID_25_" x="68.5" y="25.5" width="1.6" height="0.8"/>
		</defs>
		<clipPath id="SVGID_26_">
			<use xlink:href="#SVGID_25_"  overflow="visible"/>
		</clipPath>
		<path clip-path="url(#SVGID_26_)" fill="#A8AAA8" d="M69.3,26.1c-0.3,0-0.6-0.3-0.6-0.6h-0.2c0,0.4,0.4,0.8,0.8,0.8
			s0.8-0.4,0.8-0.8h-0.2C69.9,25.8,69.7,26.1,69.3,26.1"/>
	</g>
</g>
<g>
	<g>
		<defs>
			<rect id="SVGID_27_" x="68.5" y="24.7" width="1.6" height="0.8"/>
		</defs>
		<clipPath id="SVGID_28_">
			<use xlink:href="#SVGID_27_"  overflow="visible"/>
		</clipPath>
		<path clip-path="url(#SVGID_28_)" fill="#A8AAA8" d="M69.3,24.7c-0.4,0-0.8,0.4-0.8,0.8h0.2c0-0.3,0.3-0.6,0.6-0.6
			s0.6,0.3,0.6,0.6h0.2C70.1,25.1,69.8,24.7,69.3,24.7"/>
	</g>
</g>
<g opacity="0.3">
	<g>
		<defs>
			<rect id="SVGID_29_" x="67.4" y="24.1" width="3.8" height="1.4"/>
		</defs>
		<clipPath id="SVGID_30_">
			<use xlink:href="#SVGID_29_"  overflow="visible"/>
		</clipPath>
		<g clip-path="url(#SVGID_30_)">
			<g>
				<defs>
					<rect id="SVGID_31_" x="67.4" y="25.2" width="0.9" height="0.3"/>
				</defs>
				<clipPath id="SVGID_32_">
					<use xlink:href="#SVGID_31_"  overflow="visible"/>
				</clipPath>
				<path clip-path="url(#SVGID_32_)" fill="#676A67" d="M67.4,25.3c0.3-0.2,0.7-0.1,0.9,0.2C68,25.5,67.8,25.4,67.4,25.3"/>
			</g>
		</g>
		<path clip-path="url(#SVGID_30_)" fill="#E9EAE9" d="M68,25c0-0.3,0.2-0.5,0.5-0.7c0.3-0.1,0.6-0.2,0.9-0.2
			c-0.3,0.1-0.6,0.1-0.8,0.3C68.3,24.5,68.1,24.8,68,25"/>
		<g clip-path="url(#SVGID_30_)">
			<g>
				<defs>
					<rect id="SVGID_33_" x="70.3" y="25.2" width="0.9" height="0.3"/>
				</defs>
				<clipPath id="SVGID_34_">
					<use xlink:href="#SVGID_33_"  overflow="visible"/>
				</clipPath>
				<path clip-path="url(#SVGID_34_)" fill="#676A67" d="M71.2,25.3c-0.3,0.1-0.6,0.2-0.9,0.2C70.5,25.2,70.9,25.1,71.2,25.3"/>
			</g>
		</g>
		<path clip-path="url(#SVGID_30_)" fill="#E9EAE9" d="M70.7,25c-0.1-0.3-0.3-0.5-0.5-0.6c-0.2-0.2-0.5-0.2-0.8-0.3
			c0.3-0.1,0.6,0,0.9,0.2C70.4,24.5,70.6,24.7,70.7,25"/>
	</g>
</g>
<path fill="#5BB7D5" d="M56.2,25.3c0,0,1,0,1,1.8h2.3c0,0,1.4,0.1,1.6-1.1c0.2-1.2,1.3-9.5,8.5-9.4c0,0,3.7-0.1,7.1,4.3l1.9,2.9
	c0,0,0,0.6,0.4,0.9c0,0,1.1-0.1,0.5-1.7c-0.6-1.5-1.7-6-1.7-6s-0.3-1.5-2.3-2c-2-0.5-7.9-2.9-13.1,0.4
	C57.2,18.5,56.2,25.3,56.2,25.3"/>
<path fill="none" stroke="#80ACBE" stroke-width="0.154" stroke-miterlimit="10" d="M34.1,2.2v23L55,25V12c0,0-0.1-0.4-0.6-1.1
	C54,10.3,51.2,6,51.2,6s-1.5-3.1-6.3-3.4S34.1,2.2,34.1,2.2z"/>
<path fill="#A1D6E7" d="M55.2,23.3c0,0.1-0.1,0.2-0.2,0.2h-0.3c-0.1,0-0.2-0.1-0.2-0.2v-1.1c0-0.1,0.1-0.2,0.2-0.2H55
	c0.1,0,0.2,0.1,0.2,0.2V23.3z"/>
<path fill="#89CBE1" d="M55.3,23.3c0,0.1-0.1,0.2-0.2,0.2h-0.3c-0.1,0-0.2-0.1-0.2-0.2v-1.1c0-0.1,0.1-0.2,0.2-0.2h0.3
	c0.1,0,0.2,0.1,0.2,0.2V23.3z"/>
<path fill="none" stroke="#80ACBE" stroke-width="0.154" stroke-miterlimit="10" d="M55.3,23.3c0,0.1-0.1,0.2-0.2,0.2h-0.3
	c-0.1,0-0.2-0.1-0.2-0.2v-1.1c0-0.1,0.1-0.2,0.2-0.2h0.3c0.1,0,0.2,0.1,0.2,0.2V23.3z"/>
<path fill="#89CBE1" d="M55.3,14.5c0,0.1-0.1,0.2-0.2,0.2h-0.3c-0.1,0-0.2-0.1-0.2-0.2v-1.1c0-0.1,0.1-0.2,0.2-0.2h0.3
	c0.1,0,0.2,0.1,0.2,0.2V14.5z"/>
<path fill="none" stroke="#80ACBE" stroke-width="0.154" stroke-miterlimit="10" d="M55.3,14.5c0,0.1-0.1,0.2-0.2,0.2h-0.3
	c-0.1,0-0.2-0.1-0.2-0.2v-1.1c0-0.1,0.1-0.2,0.2-0.2h0.3c0.1,0,0.2,0.1,0.2,0.2V14.5z"/>
<path fill="none" stroke="#D0EAF3" stroke-width="0.154" stroke-miterlimit="10" d="M16.1,13.5c0,0,9.3-1.3,12.7-1.3h5"/>
<line fill="none" stroke="#D0EAF3" stroke-width="0.154" stroke-miterlimit="10" x1="34.4" y1="12.3" x2="53.9" y2="12.3"/>
<path fill="none" stroke="#D0EAF3" stroke-width="0.154" stroke-miterlimit="10" d="M55.4,12.3c0,0,9.6,0.3,11.9,1.3"/>
<path fill="#E5952E" d="M7.3,17l-0.5-0.2H5c0,0-0.4-0.1-0.7,0.5c-0.1,0.2-0.1,0.4-0.2,0.7h2.4L7.3,17z"/>
<path fill="#B52126" d="M4,19.8c0.1,0.2,0.3,0.1,0.3,0.1H5L6.5,18H4.1C4,18.7,3.9,19.6,4,19.8"/>
<path fill="#5BB7D5" d="M0.9,25.7c0,0,3.7,0.7,5.7-2c2-2.7,3.4-6.1,8.4-6.1c5,0,7.8,4.8,8,7.9c0,0,0,2,1.5,2c0,0,1,0.1,1.2-0.2
	c0,0,1-13.1-10.8-13.4c0,0-5.1,0.1-7.8,2.1c0,0-1.8,2.5-2.9,4.4C3.2,22.1,0.9,25.7,0.9,25.7"/>
<path fill="#D3D2D2" d="M25.7,25.5c0,0-0.5,0.2-0.5,1.2c0,1,32.2,0.4,32.2,0.4s0.3-2-1.8-2C53.6,25.1,25.7,25.5,25.7,25.5"/>
<g>
	<g>
		<defs>
			<rect id="SVGID_35_" x="26.1" y="25.7" width="30.1" height="0.5"/>
		</defs>
		<clipPath id="SVGID_36_">
			<use xlink:href="#SVGID_35_"  overflow="visible"/>
		</clipPath>
		<path clip-path="url(#SVGID_36_)" fill="#D3D2D2" d="M26.1,26.1c2.5-0.2,5-0.2,7.5-0.2c2.5,0.1,5,0.1,7.5,0c5-0.2,10-0.2,15.1,0v0
			c-5,0.3-10,0.3-15.1,0.2c-2.5-0.1-5,0-7.5,0.1C31.1,26.3,28.6,26.3,26.1,26.1L26.1,26.1z"/>
	</g>
</g>
<path fill="#4F4C4D" d="M4.7,23.2c0.2-0.4,0.3-0.9,0.4-1.1c0,0,0,0-0.1,0H0.2c0,0-0.1,0-0.1,0v1.2c0,0,0.1,0,0.1,0H4.7z"/>
<g>
	<g>
		<defs>
			<rect id="SVGID_37_" x="0.1" y="21.9" width="4.9" height="0.3"/>
		</defs>
		<clipPath id="SVGID_38_">
			<use xlink:href="#SVGID_37_"  overflow="visible"/>
		</clipPath>
		<path clip-path="url(#SVGID_38_)" fill="#D3D2D2" d="M5,22.2C5,22.2,5,22.2,5,22.2c0.1-0.1,0.1-0.1,0.1-0.1C5,22,5,21.9,4.9,21.9
			H0.3c-0.1,0-0.2,0.1-0.2,0.3v0c0,0,0.1,0,0.1,0H5z"/>
	</g>
</g>
<path fill="#D3D2D2" d="M0.4,23.5c-0.1,0-0.2-0.1-0.2-0.3v0c-0.1,0-0.1,0.1-0.1,0.2v0c0,0.1,0.1,0.3,0.2,0.3H4
	c0.2,0,0.4-0.1,0.5-0.3H0.4z"/>
<path fill="#D3D2D2" d="M0.4,23.5h4.1c0.1-0.1,0.1-0.2,0.2-0.3H0.2c0,0-0.1,0-0.1,0v0C0.1,23.4,0.2,23.5,0.4,23.5"/>
<path fill="#D3D2D2" d="M4.9,21.5H0.2c-0.1,0-0.2,0.1-0.2,0.3v0c0,0.1,0.1,0.2,0.1,0.2c0,0,0.1,0,0.1,0H5c0,0,0,0,0.1,0
	c0,0,0-0.1,0-0.1c0-0.1,0-0.1,0-0.1v0C5.1,21.6,5,21.5,4.9,21.5"/>
<g>
	<g>
		<defs>
			<rect id="SVGID_39_" x="0.2" y="23.2" width="4.4" height="0.2"/>
		</defs>
		<clipPath id="SVGID_40_">
			<use xlink:href="#SVGID_39_"  overflow="visible"/>
		</clipPath>
		<path clip-path="url(#SVGID_40_)" fill="#D3D2D2" d="M0.2,23.2h4.4v0c-0.7,0.1-1.5,0.1-2.2,0.1C1.7,23.3,0.9,23.3,0.2,23.2
			L0.2,23.2z"/>
	</g>
</g>
<path fill="#4F4C4D" d="M78.8,23.5c-0.2-0.4-0.3-0.9-0.4-1.1c0,0,0,0,0.1,0h2.7c0,0,0.1,0,0.1,0v1.2c0,0-0.1,0-0.1,0H78.8z"/>
<g>
	<g>
		<defs>
			<rect id="SVGID_41_" x="78.4" y="22.2" width="2.8" height="0.3"/>
		</defs>
		<clipPath id="SVGID_42_">
			<use xlink:href="#SVGID_41_"  overflow="visible"/>
		</clipPath>
		<path clip-path="url(#SVGID_42_)" fill="#D3D2D2" d="M78.5,22.5C78.5,22.5,78.5,22.4,78.5,22.5c-0.1-0.1-0.1-0.1-0.1-0.1
			c0-0.1,0.1-0.1,0.2-0.1H81c0.1,0,0.2,0.1,0.2,0.3v0c0,0-0.1,0-0.1,0H78.5z"/>
	</g>
</g>
<path fill="#D3D2D2" d="M81,23.7c0.1,0,0.2-0.1,0.2-0.3v0c0.1,0,0.1,0.1,0.1,0.2v0c0,0.1-0.1,0.3-0.2,0.3h-1.6
	c-0.2,0-0.4-0.1-0.5-0.3H81z"/>
<path fill="#D3D2D2" d="M81,23.7h-2c-0.1-0.1-0.1-0.2-0.2-0.3h2.3c0,0,0.1,0,0.1,0v0C81.2,23.6,81.1,23.7,81,23.7"/>
<path fill="#D3D2D2" d="M78.6,21.8h2.5c0.1,0,0.2,0.1,0.2,0.3v0c0,0.1-0.1,0.2-0.1,0.2c0,0-0.1,0-0.1,0h-2.7c0,0,0,0-0.1,0
	c0,0,0-0.1,0-0.1c0-0.1,0-0.1,0-0.1v0C78.4,21.9,78.5,21.8,78.6,21.8"/>
<g>
	<g>
		<defs>
			<rect id="SVGID_43_" x="78.9" y="23.4" width="2.2" height="0.2"/>
		</defs>
		<clipPath id="SVGID_44_">
			<use xlink:href="#SVGID_43_"  overflow="visible"/>
		</clipPath>
		<path clip-path="url(#SVGID_44_)" fill="#D3D2D2" d="M81.1,23.5c-0.4,0.1-0.7,0.1-1.1,0.1c-0.4-0.1-0.7,0-1.1-0.1v0
			C79.6,23.4,80.4,23.4,81.1,23.5L81.1,23.5z"/>
	</g>
</g>
<path fill="#E5952E" d="M81.1,23c0,0.1-0.1,0.2-0.2,0.2h-0.8c-0.1,0-0.2-0.1-0.2-0.2v-0.2c0-0.1,0.1-0.2,0.2-0.2h0.8
	c0.1,0,0.2,0.1,0.2,0.2V23z"/>
<path fill="#5BB7D5" d="M37.6,13h-0.6c-0.4,0-0.6,0.3-0.7,0.6c0.1-0.2,0.3-0.3,0.5-0.3h0.6c0.4,0,0.7,0.3,0.7,0.7v0.4c0,0,0,0,0,0
	c0.1-0.1,0.1-0.2,0.1-0.4v-0.4C38.2,13.3,37.9,13,37.6,13"/>
<g>
	<g>
		<defs>
			<rect id="SVGID_45_" x="36.3" y="14.1" width="1.9" height="0.8"/>
		</defs>
		<clipPath id="SVGID_46_">
			<use xlink:href="#SVGID_45_"  overflow="visible"/>
		</clipPath>
		<path clip-path="url(#SVGID_46_)" fill="#A1D6E7" d="M37.6,14.8h-0.6c-0.4,0-0.7-0.3-0.7-0.7v0.1c0,0.4,0.3,0.7,0.7,0.7h0.6
			c0.4,0,0.7-0.3,0.7-0.7v-0.1C38.2,14.5,37.9,14.8,37.6,14.8"/>
	</g>
</g>
<path fill="#C1C4C0" d="M34.7,13.6v0.4c0,0,0.1,0.1,0.3,0.1c0.2,0,1.1,0.1,1.3-0.1c0,0,0.7-0.2,2-0.1v0.1c0,0,0.8,0,0.8-0.2
	c0-0.2-0.8-0.3-1.2-0.3h-2.8C35.1,13.6,34.7,13.6,34.7,13.6"/>
<g>
	<g>
		<defs>
			<rect id="SVGID_47_" x="35.7" y="13.6" width="3.1" height="0.1"/>
		</defs>
		<clipPath id="SVGID_48_">
			<use xlink:href="#SVGID_47_"  overflow="visible"/>
		</clipPath>
		<path clip-path="url(#SVGID_48_)" fill="#C1C4C0" d="M38.7,13.7c-0.5,0-1,0-1.5,0c-0.5,0-1,0-1.5,0C36.7,13.6,37.7,13.7,38.7,13.7
			"/>
	</g>
</g>
<path fill="#AFC6D1" d="M33.5,4.5v5.4c0,0,0,1.3-1.3,1.3H20.6c0,0-2.2,0.1-2-2c0.2-2.1,4.7-3.9,4.7-3.9s4-1.8,9-1.8
	C32.4,3.5,33.5,3.7,33.5,4.5"/>
<path fill="none" stroke="#7B7979" stroke-width="0.463" stroke-miterlimit="10" d="M33.5,4.5v5.4c0,0,0,1.3-1.3,1.3H20.6
	c0,0-2.2,0.1-2-2c0.2-2.1,4.7-3.9,4.7-3.9s4-1.8,9-1.8C32.4,3.5,33.5,3.7,33.5,4.5z"/>
<path fill="#AFC6D1" d="M35.1,4.7c0,0,0.2-1,1.1-1c1,0,6.7,0.1,8.4,0.3c1.7,0.2,4.3,0.7,5.4,2c1.1,1.4,2.3,3.7,2.3,3.7
	s0.5,1.4-0.9,1.4c-1.4,0-14.8,0-14.8,0s-1.4,0-1.4-1V4.7z"/>
<path fill="none" stroke="#7B7979" stroke-width="0.463" stroke-miterlimit="10" d="M35.1,4.7c0,0,0.2-1,1.1-1c1,0,6.7,0.1,8.4,0.3
	c1.7,0.2,4.3,0.7,5.4,2c1.1,1.4,2.3,3.7,2.3,3.7s0.5,1.4-0.9,1.4c-1.4,0-14.8,0-14.8,0s-1.4,0-1.4-1V4.7z"/>
<line fill="none" stroke="#7B7979" stroke-width="0.463" stroke-miterlimit="10" x1="45.5" y1="4.1" x2="47" y2="11.1"/>
<path fill="#D3D2D2" d="M53.6,11.2c0,0.2-0.1,0.3-0.3,0.3c-0.2,0-0.3-0.1-0.3-0.3c0-0.2,0.1-0.3,0.3-0.3
	C53.4,10.8,53.6,11,53.6,11.2"/>
<circle fill="none" stroke="#7B7979" stroke-width="6.200000e-002" stroke-miterlimit="10" cx="53.2" cy="11.2" r="0.3"/>
<path fill="none" stroke="#D3D2D2" stroke-width="0.309" stroke-miterlimit="10" d="M53.4,11.1c0,0,0.1-0.9-0.7-0.9"/>
<path fill="#D3D2D2" d="M51.7,9v1.4c0,0,0.1,0.6,0.5,0.7c0.4,0,0.3,0,0.3,0s0.2-0.1,0.2-0.4V9.5c0,0,0-0.2-0.2-0.3
	c-0.2-0.1-0.6-0.3-0.6-0.3S51.7,8.9,51.7,9"/>
<path fill="none" stroke="#7098AB" stroke-width="6.200000e-002" stroke-miterlimit="10" d="M58.2,13.7v1.3c0,0,0.1,0.7,0.5,0.7
	c0.4-0.1,2.5-0.6,2.5-0.6s0.2-0.1,0.2-0.4v-1c0,0,0-0.3-0.3-0.4c-0.3-0.1-2.4-0.2-2.4-0.2S58.2,13.2,58.2,13.7z"/>
<path fill="none" stroke="#7098AB" stroke-width="6.200000e-002" stroke-miterlimit="10" d="M55.8,9l-0.2,0.9c0,0,0,0.5,0.2,0.8
	c0.3,0.3,0.7,0.7,0.7,0.7s0.6,0.2,1,0.2c0.4,0,2.7,0.1,2.7,0.1s8.1,0.7,10.1,1.9"/>
</svg>
