<?xml version="1.0" encoding="utf-8"?>
<!-- Generator: Adobe Illustrator 15.0.2, SVG Export Plug-In . SVG Version: 6.00 Build 0)  -->
<!DOCTYPE svg PUBLIC "-//W3C//DTD SVG 1.1//EN" "http://www.w3.org/Graphics/SVG/1.1/DTD/svg11.dtd">
<svg version="1.1" id="Layer_1" xmlns="http://www.w3.org/2000/svg" xmlns:xlink="http://www.w3.org/1999/xlink" x="0px" y="0px"
	 width="72.7px" height="37.5px" viewBox="0 0 72.7 37.5" enable-background="new 0 0 72.7 37.5" xml:space="preserve">
<path fill="#868484" d="M0,36.6V1.1C0,0.5,0.5,0,1.1,0h70.5c0.6,0,1.1,0.5,1.1,1.1v35.5H0z"/>
<polygon fill="#231F20" points="15.7,4.8 14.2,4.8 14.2,5.4 16.4,5.4 18.7,5.4 18.7,4.8 16.4,4.8 "/>
<polygon fill="#231F20" points="13.1,5.9 12.2,5.9 12.2,6.4 13.7,6.4 18.7,6.4 18.7,5.9 13.7,5.9 "/>
<polygon fill="#231F20" points="11.5,6.9 10.8,6.9 10.8,7.4 12.1,7.4 18.7,7.4 18.7,6.9 12.1,6.9 "/>
<polygon fill="#231F20" points="10.2,7.9 9.7,7.9 9.7,8.4 10.7,8.4 18.7,8.4 18.7,7.9 10.7,7.9 "/>
<polygon fill="#231F20" points="9.2,8.9 8.8,8.9 8.8,9.4 9.8,9.4 18.7,9.4 18.7,8.9 9.8,8.9 "/>
<polygon fill="#231F20" points="8.4,9.9 8,9.9 8,10.4 9,10.4 18.7,10.4 18.7,9.9 9,9.9 "/>
<polygon fill="#231F20" points="7.7,10.9 7.4,10.9 7.4,11.5 8.1,11.5 18.7,11.5 18.7,10.9 8.1,10.9 "/>
<polygon fill="#231F20" points="7.2,11.9 6.9,11.9 6.9,12.5 7.4,12.5 18.7,12.5 18.7,11.9 7.4,11.9 "/>
<polygon fill="#231F20" points="6.7,13 6.5,13 6.5,13.5 7.2,13.5 18.7,13.5 18.7,13 7.2,13 "/>
<polygon fill="#231F20" points="6.4,14 6.2,14 6.2,14.5 6.9,14.5 18.7,14.5 18.7,14 6.9,14 "/>
<polygon fill="#231F20" points="6.1,15 6,15 6,15.5 6.6,15.5 18.7,15.5 18.7,15 6.6,15 "/>
<polygon fill="#231F20" points="5.9,16 5.9,16 5.9,16.5 5.9,16.5 6.4,16.5 18.7,16.5 18.7,16 6.4,16 "/>
<polygon fill="#231F20" points="5.8,17 5.8,17 5.8,17.5 5.8,17.5 6.3,17.5 18.7,17.5 18.7,17 6.3,17 "/>
<polygon fill="#231F20" points="15.7,30.7 14.2,30.7 14.2,30.2 16.4,30.2 18.7,30.2 18.7,30.7 16.4,30.7 "/>
<polygon fill="#231F20" points="13.1,29.7 12.2,29.7 12.2,29.1 13.7,29.1 18.7,29.1 18.7,29.7 13.7,29.7 "/>
<polygon fill="#231F20" points="11.5,28.7 10.8,28.7 10.8,28.1 12.1,28.1 18.7,28.1 18.7,28.7 12.1,28.7 "/>
<polygon fill="#231F20" points="10.2,27.6 9.7,27.6 9.7,27.1 10.7,27.1 18.7,27.1 18.7,27.6 10.7,27.6 "/>
<polygon fill="#231F20" points="9.2,26.6 8.8,26.6 8.8,26.1 9.8,26.1 18.7,26.1 18.7,26.6 9.8,26.6 "/>
<polygon fill="#231F20" points="8.4,25.6 8,25.6 8,25.1 9,25.1 18.7,25.1 18.7,25.6 9,25.6 "/>
<polygon fill="#231F20" points="7.7,24.6 7.4,24.6 7.4,24.1 8.1,24.1 18.7,24.1 18.7,24.6 8.1,24.6 "/>
<polygon fill="#231F20" points="7.2,23.6 6.9,23.6 6.9,23.1 7.4,23.1 18.7,23.1 18.7,23.6 7.4,23.6 "/>
<polygon fill="#231F20" points="6.7,22.6 6.5,22.6 6.5,22 7.2,22 18.7,22 18.7,22.6 7.2,22.6 "/>
<polygon fill="#231F20" points="6.4,21.6 6.2,21.6 6.2,21 6.9,21 18.7,21 18.7,21.6 6.9,21.6 "/>
<polygon fill="#231F20" points="6.1,20.5 6,20.5 6,20 6.6,20 18.7,20 18.7,20.5 6.6,20.5 "/>
<polygon fill="#231F20" points="5.9,19.5 5.9,19.5 5.9,19 5.9,19 6.4,19 18.7,19 18.7,19.5 6.4,19.5 "/>
<polygon fill="#231F20" points="5.8,18.5 5.8,18.5 5.8,18 5.8,18 6.3,18 18.7,18 18.7,18.5 6.3,18.5 "/>
<polygon fill="#231F20" points="22.6,4.8 24.1,4.8 24.1,5.4 21.9,5.4 19.6,5.4 19.6,4.8 21.9,4.8 "/>
<polygon fill="#231F20" points="25.2,5.9 26.1,5.9 26.1,6.4 24.6,6.4 19.6,6.4 19.6,5.9 24.6,5.9 "/>
<polygon fill="#231F20" points="26.8,6.9 27.5,6.9 27.5,7.4 26.2,7.4 19.6,7.4 19.6,6.9 26.2,6.9 "/>
<polygon fill="#231F20" points="28.1,7.9 28.6,7.9 28.6,8.4 27.6,8.4 19.6,8.4 19.6,7.9 27.6,7.9 "/>
<polygon fill="#231F20" points="29.1,8.9 29.5,8.9 29.5,9.4 28.5,9.4 19.6,9.4 19.6,8.9 28.5,8.9 "/>
<polygon fill="#231F20" points="29.9,9.9 30.3,9.9 30.3,10.4 29.3,10.4 19.6,10.4 19.6,9.9 29.3,9.9 "/>
<polygon fill="#231F20" points="30.6,10.9 30.9,10.9 30.9,11.5 30.2,11.5 19.6,11.5 19.6,10.9 30.2,10.9 "/>
<polygon fill="#231F20" points="31.1,11.9 31.4,11.9 31.4,12.5 30.9,12.5 19.6,12.5 19.6,11.9 30.9,11.9 "/>
<polygon fill="#231F20" points="31.6,13 31.8,13 31.8,13.5 31.1,13.5 19.6,13.5 19.6,13 31.1,13 "/>
<polygon fill="#231F20" points="31.9,14 32.1,14 32.1,14.5 31.4,14.5 19.6,14.5 19.6,14 31.4,14 "/>
<polygon fill="#231F20" points="32.2,15 32.3,15 32.3,15.5 31.7,15.5 19.6,15.5 19.6,15 31.7,15 "/>
<polygon fill="#231F20" points="32.4,16 32.4,16 32.4,16.5 32.4,16.5 31.9,16.5 19.6,16.5 19.6,16 31.9,16 "/>
<polygon fill="#231F20" points="32.5,17 32.5,17 32.5,17.5 32.5,17.5 32,17.5 19.6,17.5 19.6,17 32,17 "/>
<polygon fill="#231F20" points="22.6,30.7 24.1,30.7 24.1,30.2 21.9,30.2 19.6,30.2 19.6,30.7 21.9,30.7 "/>
<polygon fill="#231F20" points="25.2,29.7 26.1,29.7 26.1,29.1 24.6,29.1 19.6,29.1 19.6,29.7 24.6,29.7 "/>
<polygon fill="#231F20" points="26.8,28.7 27.5,28.7 27.5,28.1 26.2,28.1 19.6,28.1 19.6,28.7 26.2,28.7 "/>
<polygon fill="#231F20" points="28.1,27.6 28.6,27.6 28.6,27.1 27.6,27.1 19.6,27.1 19.6,27.6 27.6,27.6 "/>
<polygon fill="#231F20" points="29.1,26.6 29.5,26.6 29.5,26.1 28.5,26.1 19.6,26.1 19.6,26.6 28.5,26.6 "/>
<polygon fill="#231F20" points="29.9,25.6 30.3,25.6 30.3,25.1 29.3,25.1 19.6,25.1 19.6,25.6 29.3,25.6 "/>
<polygon fill="#231F20" points="30.6,24.6 30.9,24.6 30.9,24.1 30.2,24.1 19.6,24.1 19.6,24.6 30.2,24.6 "/>
<polygon fill="#231F20" points="31.1,23.6 31.4,23.6 31.4,23.1 30.9,23.1 19.6,23.1 19.6,23.6 30.9,23.6 "/>
<polygon fill="#231F20" points="31.6,22.6 31.8,22.6 31.8,22 31.1,22 19.6,22 19.6,22.6 31.1,22.6 "/>
<polygon fill="#231F20" points="31.9,21.6 32.1,21.6 32.1,21 31.4,21 19.6,21 19.6,21.6 31.4,21.6 "/>
<polygon fill="#231F20" points="32.2,20.5 32.3,20.5 32.3,20 31.7,20 19.6,20 19.6,20.5 31.7,20.5 "/>
<polygon fill="#231F20" points="32.4,19.5 32.4,19.5 32.4,19 32.4,19 31.9,19 19.6,19 19.6,19.5 31.9,19.5 "/>
<polygon fill="#231F20" points="32.5,18.5 32.5,18.5 32.5,18 32.5,18 32,18 19.6,18 19.6,18.5 32,18.5 "/>
<polygon fill="#D3D2D2" points="8.4,25.6 8,25.6 8,25.7 8.4,25.7 9,25.7 18.7,25.7 18.7,25.6 9,25.6 "/>
<polygon fill="#D3D2D2" points="9.2,26.6 8.8,26.6 8.8,26.7 9.2,26.7 9.8,26.7 18.7,26.7 18.7,26.6 9.8,26.6 "/>
<polygon fill="#D3D2D2" points="7.7,24.6 7.4,24.6 7.4,24.7 7.7,24.7 8.1,24.7 18.7,24.7 18.7,24.6 8.1,24.6 "/>
<polygon fill="#D3D2D2" points="13.1,29.7 12.2,29.7 12.2,29.7 13.1,29.7 13.7,29.7 18.7,29.7 18.7,29.7 13.7,29.7 "/>
<polygon fill="#D3D2D2" points="15.7,30.7 14.2,30.7 14.2,30.7 15.7,30.7 16.4,30.7 18.7,30.7 18.7,30.7 16.4,30.7 "/>
<polygon fill="#D3D2D2" points="11.5,28.7 10.8,28.7 10.8,28.7 11.5,28.7 12.1,28.7 18.7,28.7 18.7,28.7 12.1,28.7 "/>
<polygon fill="#D3D2D2" points="10.2,27.6 9.7,27.6 9.7,27.7 10.2,27.7 10.7,27.7 18.7,27.7 18.7,27.6 10.7,27.6 "/>
<polygon fill="#D3D2D2" points="7.2,23.6 6.9,23.6 6.9,23.6 7.2,23.6 7.4,23.6 18.7,23.6 18.7,23.6 7.4,23.6 "/>
<polygon fill="#D3D2D2" points="5.8,18.5 5.8,18.5 5.8,18.6 5.8,18.6 6.3,18.6 18.7,18.6 18.7,18.5 6.3,18.5 "/>
<polygon fill="#D3D2D2" points="6.1,20.5 6,20.5 6,20.6 6.1,20.6 6.6,20.6 18.7,20.6 18.7,20.5 6.6,20.5 "/>
<polygon fill="#D3D2D2" points="5.8,17.5 5.8,17.5 5.8,17.6 5.8,17.6 6.3,17.6 18.7,17.6 18.7,17.5 6.3,17.5 "/>
<polygon fill="#D3D2D2" points="6.7,22.6 6.5,22.6 6.5,22.6 6.7,22.6 7.2,22.6 18.7,22.6 18.7,22.6 7.2,22.6 "/>
<polygon fill="#D3D2D2" points="6.4,21.6 6.2,21.6 6.2,21.6 6.4,21.6 6.9,21.6 18.7,21.6 18.7,21.6 6.9,21.6 "/>
<polygon fill="#D3D2D2" points="5.9,19.5 5.9,19.5 5.9,19.6 5.9,19.6 6.4,19.6 18.7,19.6 18.7,19.5 6.4,19.5 "/>
<polygon fill="#D3D2D2" points="30.3,10.5 30.3,10.4 29.3,10.4 19.6,10.4 19.6,10.5 29.3,10.5 "/>
<polygon fill="#D3D2D2" points="28.6,8.5 28.6,8.4 27.6,8.4 19.6,8.4 19.6,8.5 27.6,8.5 "/>
<polygon fill="#D3D2D2" points="29.5,9.5 29.5,9.4 28.5,9.4 19.6,9.4 19.6,9.5 28.5,9.5 "/>
<polygon fill="#D3D2D2" points="27.5,7.5 27.5,7.4 26.2,7.4 19.6,7.4 19.6,7.5 26.2,7.5 "/>
<polygon fill="#D3D2D2" points="26.1,6.4 26.1,6.4 24.6,6.4 19.6,6.4 19.6,6.4 24.6,6.4 "/>
<polygon fill="#D3D2D2" points="24.1,5.4 24.1,5.4 21.9,5.4 19.6,5.4 19.6,5.4 21.9,5.4 "/>
<polygon fill="#D3D2D2" points="32.1,14.6 32.1,14.5 31.4,14.5 19.6,14.5 19.6,14.6 31.4,14.6 "/>
<polygon fill="#D3D2D2" points="30.9,11.5 30.9,11.5 30.2,11.5 19.6,11.5 19.6,11.5 30.2,11.5 "/>
<polygon fill="#D3D2D2" points="32.3,15.6 32.3,15.5 31.7,15.5 19.6,15.5 19.6,15.6 31.7,15.6 "/>
<polygon fill="#D3D2D2" points="32.4,16.6 32.4,16.6 32.4,16.5 32.4,16.5 31.9,16.5 19.6,16.5 19.6,16.6 31.9,16.6 "/>
<polygon fill="#D3D2D2" points="31.4,12.5 31.4,12.5 30.9,12.5 19.6,12.5 19.6,12.5 30.9,12.5 "/>
<polygon fill="#D3D2D2" points="31.8,13.5 31.8,13.5 31.1,13.5 19.6,13.5 19.6,13.5 31.1,13.5 "/>
<polygon fill="#D3D2D2" points="29.3,25.6 19.6,25.6 19.6,25.7 29.3,25.7 29.9,25.7 30.3,25.7 30.3,25.6 29.9,25.6 "/>
<polygon fill="#D3D2D2" points="30.2,24.6 19.6,24.6 19.6,24.7 30.2,24.7 30.6,24.7 30.9,24.7 30.9,24.6 30.6,24.6 "/>
<polygon fill="#D3D2D2" points="30.9,23.6 19.6,23.6 19.6,23.6 30.9,23.6 31.1,23.6 31.4,23.6 31.4,23.6 31.1,23.6 "/>
<polygon fill="#D3D2D2" points="28.5,26.6 19.6,26.6 19.6,26.7 28.5,26.7 29.1,26.7 29.5,26.7 29.5,26.6 29.1,26.6 "/>
<polygon fill="#D3D2D2" points="27.6,27.6 19.6,27.6 19.6,27.7 27.6,27.7 28.1,27.7 28.6,27.7 28.6,27.6 28.1,27.6 "/>
<polygon fill="#D3D2D2" points="31.1,22.6 19.6,22.6 19.6,22.6 31.1,22.6 31.6,22.6 31.8,22.6 31.8,22.6 31.6,22.6 "/>
<polygon fill="#D3D2D2" points="26.2,28.7 19.6,28.7 19.6,28.7 26.2,28.7 26.8,28.7 27.5,28.7 27.5,28.7 26.8,28.7 "/>
<polygon fill="#D3D2D2" points="24.6,29.7 19.6,29.7 19.6,29.7 24.6,29.7 25.2,29.7 26.1,29.7 26.1,29.7 25.2,29.7 "/>
<polygon fill="#D3D2D2" points="5.9,16.5 5.9,16.5 5.9,16.6 5.9,16.6 6.4,16.6 18.7,16.6 18.7,16.5 6.4,16.5 "/>
<polygon fill="#D3D2D2" points="32,18.5 19.6,18.5 19.6,18.6 32,18.6 32.5,18.6 32.5,18.6 32.5,18.5 32.5,18.5 "/>
<polygon fill="#D3D2D2" points="31.7,20.5 19.6,20.5 19.6,20.6 31.7,20.6 32.2,20.6 32.3,20.6 32.3,20.5 32.2,20.5 "/>
<polygon fill="#D3D2D2" points="31.9,19.5 19.6,19.5 19.6,19.6 31.9,19.6 32.4,19.6 32.4,19.6 32.4,19.5 32.4,19.5 "/>
<polygon fill="#D3D2D2" points="31.4,21.6 19.6,21.6 19.6,21.6 31.4,21.6 31.9,21.6 32.1,21.6 32.1,21.6 31.9,21.6 "/>
<polygon fill="#D3D2D2" points="32,17.5 19.6,17.5 19.6,17.6 32,17.6 32.5,17.6 32.5,17.6 32.5,17.5 32.5,17.5 "/>
<polygon fill="#D3D2D2" points="8,10.4 8,10.5 9,10.5 18.7,10.5 18.7,10.4 9,10.4 "/>
<polygon fill="#D3D2D2" points="21.9,30.7 19.6,30.7 19.6,30.7 21.9,30.7 22.6,30.7 24.1,30.7 24.1,30.7 22.6,30.7 "/>
<polygon fill="#D3D2D2" points="6.5,13.5 6.5,13.6 7.2,13.6 18.7,13.6 18.7,13.5 7.2,13.5 "/>
<polygon fill="#D3D2D2" points="6.9,12.5 6.9,12.5 7.4,12.5 18.7,12.5 18.7,12.5 7.4,12.5 "/>
<polygon fill="#D3D2D2" points="6.2,14.5 6.2,14.6 6.9,14.6 18.7,14.6 18.7,14.5 6.9,14.5 "/>
<polygon fill="#D3D2D2" points="6,15.5 6,15.6 6.6,15.6 18.7,15.6 18.7,15.5 6.6,15.5 "/>
<polygon fill="#D3D2D2" points="7.4,11.5 7.4,11.5 8.1,11.5 18.7,11.5 18.7,11.5 8.1,11.5 "/>
<polygon fill="#D3D2D2" points="14.2,5.4 14.2,5.4 16.4,5.4 18.7,5.4 18.7,5.4 16.4,5.4 "/>
<polygon fill="#D3D2D2" points="12.2,6.4 12.2,6.4 13.7,6.4 18.7,6.4 18.7,6.4 13.7,6.4 "/>
<polygon fill="#D3D2D2" points="10.8,7.4 10.8,7.5 12.1,7.5 18.7,7.5 18.7,7.4 12.1,7.4 "/>
<polygon fill="#D3D2D2" points="9.7,8.4 9.7,8.5 10.7,8.5 18.7,8.5 18.7,8.4 10.7,8.4 "/>
<polygon fill="#D3D2D2" points="8.8,9.4 8.8,9.5 9.8,9.5 18.7,9.5 18.7,9.4 9.8,9.4 "/>
<rect x="1.9" y="36.6" fill="#231F20" width="4.9" height="0.9"/>
<rect x="66" y="36.6" fill="#231F20" width="4.9" height="0.9"/>
<rect x="60.6" y="4.5" fill="#F4F4F4" width="6.2" height="20.9"/>
<g opacity="0.5">
	<g>
		<defs>
			<rect id="SVGID_1_" x="60.6" y="4.5" width="6.2" height="2.6"/>
		</defs>
		<clipPath id="SVGID_2_">
			<use xlink:href="#SVGID_1_"  overflow="visible"/>
		</clipPath>
		<g clip-path="url(#SVGID_2_)">
			<g>
				<defs>
					<rect id="SVGID_3_" x="60.6" y="4.5" width="6.2" height="0.8"/>
				</defs>
				<clipPath id="SVGID_4_">
					<use xlink:href="#SVGID_3_"  overflow="visible"/>
				</clipPath>
				<rect x="60.6" y="4.5" clip-path="url(#SVGID_4_)" fill="#7B7979" width="6.2" height="0.8"/>
			</g>
		</g>
		<g clip-path="url(#SVGID_2_)">
			<g>
				<defs>
					<rect id="SVGID_5_" x="60.6" y="4.6" width="6.2" height="0.9"/>
				</defs>
				<clipPath id="SVGID_6_">
					<use xlink:href="#SVGID_5_"  overflow="visible"/>
				</clipPath>
				<rect x="60.6" y="4.6" clip-path="url(#SVGID_6_)" fill="#8E8C8D" width="6.2" height="0.9"/>
			</g>
		</g>
		<g clip-path="url(#SVGID_2_)">
			<g>
				<defs>
					<rect id="SVGID_7_" x="60.6" y="4.8" width="6.2" height="1"/>
				</defs>
				<clipPath id="SVGID_8_">
					<use xlink:href="#SVGID_7_"  overflow="visible"/>
				</clipPath>
				<rect x="60.6" y="4.8" clip-path="url(#SVGID_8_)" fill="#A1A0A0" width="6.2" height="1"/>
			</g>
		</g>
		<g clip-path="url(#SVGID_2_)">
			<g>
				<defs>
					<rect id="SVGID_9_" x="60.6" y="5" width="6.2" height="1.2"/>
				</defs>
				<clipPath id="SVGID_10_">
					<use xlink:href="#SVGID_9_"  overflow="visible"/>
				</clipPath>
				<rect x="60.6" y="5" clip-path="url(#SVGID_10_)" fill="#B5B4B4" width="6.2" height="1.2"/>
			</g>
		</g>
		<g clip-path="url(#SVGID_2_)">
			<g>
				<defs>
					<rect id="SVGID_11_" x="60.6" y="5.2" width="6.2" height="1.3"/>
				</defs>
				<clipPath id="SVGID_12_">
					<use xlink:href="#SVGID_11_"  overflow="visible"/>
				</clipPath>
				<rect x="60.6" y="5.2" clip-path="url(#SVGID_12_)" fill="#C8C7C7" width="6.2" height="1.3"/>
			</g>
		</g>
		<g clip-path="url(#SVGID_2_)">
			<g>
				<defs>
					<rect id="SVGID_13_" x="60.6" y="5.5" width="6.2" height="1.1"/>
				</defs>
				<clipPath id="SVGID_14_">
					<use xlink:href="#SVGID_13_"  overflow="visible"/>
				</clipPath>
				<rect x="60.6" y="5.5" clip-path="url(#SVGID_14_)" fill="#D3D2D2" width="6.2" height="1.1"/>
			</g>
		</g>
		<g clip-path="url(#SVGID_2_)">
			<g>
				<defs>
					<rect id="SVGID_15_" x="60.6" y="5.9" width="6.2" height="0.9"/>
				</defs>
				<clipPath id="SVGID_16_">
					<use xlink:href="#SVGID_15_"  overflow="visible"/>
				</clipPath>
				<rect x="60.6" y="5.9" clip-path="url(#SVGID_16_)" fill="#DEDDDE" width="6.2" height="0.9"/>
			</g>
		</g>
		<g clip-path="url(#SVGID_2_)">
			<g>
				<defs>
					<rect id="SVGID_17_" x="60.6" y="6.2" width="6.2" height="0.7"/>
				</defs>
				<clipPath id="SVGID_18_">
					<use xlink:href="#SVGID_17_"  overflow="visible"/>
				</clipPath>
				<rect x="60.6" y="6.2" clip-path="url(#SVGID_18_)" fill="#E9E9E9" width="6.2" height="0.7"/>
			</g>
		</g>
		<g clip-path="url(#SVGID_2_)">
			<g>
				<defs>
					<rect id="SVGID_19_" x="60.6" y="6.5" width="6.2" height="0.5"/>
				</defs>
				<clipPath id="SVGID_20_">
					<use xlink:href="#SVGID_19_"  overflow="visible"/>
				</clipPath>
				<rect x="60.6" y="6.5" clip-path="url(#SVGID_20_)" fill="#F4F4F4" width="6.2" height="0.5"/>
			</g>
		</g>
	</g>
</g>
<g opacity="0.5">
	<g>
		<defs>
			<rect id="SVGID_21_" x="60.6" y="22.7" width="6.2" height="2.6"/>
		</defs>
		<clipPath id="SVGID_22_">
			<use xlink:href="#SVGID_21_"  overflow="visible"/>
		</clipPath>
		<g clip-path="url(#SVGID_22_)">
			<g>
				<defs>
					<rect id="SVGID_23_" x="60.6" y="24.6" width="6.2" height="0.8"/>
				</defs>
				<clipPath id="SVGID_24_">
					<use xlink:href="#SVGID_23_"  overflow="visible"/>
				</clipPath>
				<rect x="60.6" y="24.6" clip-path="url(#SVGID_24_)" fill="#7B7979" width="6.2" height="0.8"/>
			</g>
		</g>
		<g clip-path="url(#SVGID_22_)">
			<g>
				<defs>
					<rect id="SVGID_25_" x="60.6" y="24.3" width="6.2" height="0.9"/>
				</defs>
				<clipPath id="SVGID_26_">
					<use xlink:href="#SVGID_25_"  overflow="visible"/>
				</clipPath>
				<rect x="60.6" y="24.3" clip-path="url(#SVGID_26_)" fill="#8E8C8D" width="6.2" height="0.9"/>
			</g>
		</g>
		<g clip-path="url(#SVGID_22_)">
			<g>
				<defs>
					<rect id="SVGID_27_" x="60.6" y="23.9" width="6.2" height="1"/>
				</defs>
				<clipPath id="SVGID_28_">
					<use xlink:href="#SVGID_27_"  overflow="visible"/>
				</clipPath>
				<rect x="60.6" y="23.9" clip-path="url(#SVGID_28_)" fill="#A1A0A0" width="6.2" height="1"/>
			</g>
		</g>
		<g clip-path="url(#SVGID_22_)">
			<g>
				<defs>
					<rect id="SVGID_29_" x="60.6" y="23.6" width="6.2" height="1.2"/>
				</defs>
				<clipPath id="SVGID_30_">
					<use xlink:href="#SVGID_29_"  overflow="visible"/>
				</clipPath>
				<rect x="60.6" y="23.6" clip-path="url(#SVGID_30_)" fill="#B5B4B4" width="6.2" height="1.2"/>
			</g>
		</g>
		<g clip-path="url(#SVGID_22_)">
			<g>
				<defs>
					<rect id="SVGID_31_" x="60.6" y="23.3" width="6.2" height="1.3"/>
				</defs>
				<clipPath id="SVGID_32_">
					<use xlink:href="#SVGID_31_"  overflow="visible"/>
				</clipPath>
				<rect x="60.6" y="23.3" clip-path="url(#SVGID_32_)" fill="#C8C7C7" width="6.2" height="1.3"/>
			</g>
		</g>
		<g clip-path="url(#SVGID_22_)">
			<g>
				<defs>
					<rect id="SVGID_33_" x="60.6" y="23.2" width="6.2" height="1.1"/>
				</defs>
				<clipPath id="SVGID_34_">
					<use xlink:href="#SVGID_33_"  overflow="visible"/>
				</clipPath>
				<rect x="60.6" y="23.2" clip-path="url(#SVGID_34_)" fill="#D3D2D2" width="6.2" height="1.1"/>
			</g>
		</g>
		<g clip-path="url(#SVGID_22_)">
			<g>
				<defs>
					<rect id="SVGID_35_" x="60.6" y="23" width="6.2" height="0.9"/>
				</defs>
				<clipPath id="SVGID_36_">
					<use xlink:href="#SVGID_35_"  overflow="visible"/>
				</clipPath>
				<rect x="60.6" y="23" clip-path="url(#SVGID_36_)" fill="#DEDDDE" width="6.2" height="0.9"/>
			</g>
		</g>
		<g clip-path="url(#SVGID_22_)">
			<g>
				<defs>
					<rect id="SVGID_37_" x="60.6" y="22.9" width="6.2" height="0.7"/>
				</defs>
				<clipPath id="SVGID_38_">
					<use xlink:href="#SVGID_37_"  overflow="visible"/>
				</clipPath>
				<rect x="60.6" y="22.9" clip-path="url(#SVGID_38_)" fill="#E9E9E9" width="6.2" height="0.7"/>
			</g>
		</g>
		<g clip-path="url(#SVGID_22_)">
			<g>
				<defs>
					<rect id="SVGID_39_" x="60.6" y="22.7" width="6.2" height="0.5"/>
				</defs>
				<clipPath id="SVGID_40_">
					<use xlink:href="#SVGID_39_"  overflow="visible"/>
				</clipPath>
				<rect x="60.6" y="22.7" clip-path="url(#SVGID_40_)" fill="#F4F4F4" width="6.2" height="0.5"/>
			</g>
		</g>
	</g>
</g>
<g>
	<g>
		<defs>
			<rect id="SVGID_41_" x="46.7" y="29.6" width="2" height="2.5"/>
		</defs>
		<clipPath id="SVGID_42_">
			<use xlink:href="#SVGID_41_"  overflow="visible"/>
		</clipPath>
		<path clip-path="url(#SVGID_42_)" fill="#A7A5A6" d="M48.7,30.8c0,0.7-0.4,1.2-1,1.2s-1-0.5-1-1.2c0-0.7,0.4-1.2,1-1.2
			S48.7,30.2,48.7,30.8"/>
	</g>
</g>
<path fill="#DCDBDB" d="M48.7,30.6c0,0.5-0.4,1-1,1s-1-0.4-1-1s0.4-1,1-1S48.7,30,48.7,30.6"/>
<path fill="#BBBABA" d="M47.2,30.8c0-0.4,0.4-0.8,0.8-0.8c0.1,0,0.3,0,0.4,0.1c-0.1-0.2-0.4-0.4-0.7-0.4c-0.4,0-0.8,0.4-0.8,0.8
	c0,0.3,0.2,0.6,0.4,0.7C47.2,31.1,47.2,31,47.2,30.8"/>
<g>
	<g>
		<defs>
			<rect id="SVGID_43_" x="49.7" y="29.6" width="2" height="2.4"/>
		</defs>
		<clipPath id="SVGID_44_">
			<use xlink:href="#SVGID_43_"  overflow="visible"/>
		</clipPath>
		<path clip-path="url(#SVGID_44_)" fill="#A7A5A6" d="M51.6,30.9c0,0.7-0.4,1.2-1,1.2s-1-0.5-1-1.2c0-0.7,0.4-1.2,1-1.2
			S51.6,30.2,51.6,30.9"/>
	</g>
</g>
<path fill="#DCDBDB" d="M51.6,30.6c0,0.5-0.4,1-1,1s-1-0.4-1-1s0.4-1,1-1S51.6,30,51.6,30.6"/>
<path fill="#BBBABA" d="M50.2,30.9c0-0.4,0.4-0.8,0.8-0.8c0.1,0,0.3,0,0.4,0.1c-0.1-0.2-0.4-0.4-0.7-0.4c-0.4,0-0.8,0.4-0.8,0.8
	c0,0.3,0.2,0.6,0.4,0.7C50.2,31.2,50.2,31,50.2,30.9"/>
<g>
	<g>
		<defs>
			<rect id="SVGID_45_" x="52.7" y="29.6" width="2" height="2.4"/>
		</defs>
		<clipPath id="SVGID_46_">
			<use xlink:href="#SVGID_45_"  overflow="visible"/>
		</clipPath>
		<path clip-path="url(#SVGID_46_)" fill="#A7A5A6" d="M54.6,30.9c0,0.7-0.4,1.2-1,1.2s-1-0.5-1-1.2c0-0.7,0.4-1.2,1-1.2
			S54.6,30.2,54.6,30.9"/>
	</g>
</g>
<path fill="#DCDBDB" d="M54.6,30.6c0,0.5-0.4,1-1,1s-1-0.4-1-1s0.4-1,1-1S54.6,30,54.6,30.6"/>
<path fill="#BBBABA" d="M53.2,30.9c0-0.4,0.4-0.8,0.8-0.8c0.1,0,0.3,0,0.4,0.1c-0.1-0.2-0.4-0.4-0.7-0.4c-0.4,0-0.8,0.4-0.8,0.8
	c0,0.3,0.2,0.6,0.4,0.7C53.2,31.2,53.2,31,53.2,30.9"/>
<g>
	<g>
		<defs>
			<rect id="SVGID_47_" x="55.6" y="29.6" width="2" height="2.4"/>
		</defs>
		<clipPath id="SVGID_48_">
			<use xlink:href="#SVGID_47_"  overflow="visible"/>
		</clipPath>
		<path clip-path="url(#SVGID_48_)" fill="#A7A5A6" d="M57.6,30.9c0,0.7-0.4,1.2-1,1.2s-1-0.5-1-1.2c0-0.7,0.4-1.2,1-1.2
			S57.6,30.2,57.6,30.9"/>
	</g>
</g>
<path fill="#DCDBDB" d="M57.6,30.6c0,0.5-0.4,1-1,1s-1-0.4-1-1s0.4-1,1-1S57.6,30,57.6,30.6"/>
<path fill="#BBBABA" d="M56.1,30.9c0-0.4,0.4-0.8,0.8-0.8c0.1,0,0.3,0,0.4,0.1c-0.1-0.2-0.4-0.4-0.7-0.4c-0.4,0-0.8,0.4-0.8,0.8
	c0,0.3,0.2,0.6,0.4,0.7C56.2,31.2,56.1,31,56.1,30.9"/>
<g>
	<g>
		<defs>
			<rect id="SVGID_49_" x="58.6" y="29.6" width="2" height="2.4"/>
		</defs>
		<clipPath id="SVGID_50_">
			<use xlink:href="#SVGID_49_"  overflow="visible"/>
		</clipPath>
		<path clip-path="url(#SVGID_50_)" fill="#A7A5A6" d="M60.6,30.9c0,0.7-0.4,1.2-1,1.2c-0.5,0-1-0.5-1-1.2c0-0.7,0.4-1.2,1-1.2
			C60.2,29.6,60.6,30.2,60.6,30.9"/>
	</g>
</g>
<path fill="#DCDBDB" d="M60.6,30.6c0,0.5-0.4,1-1,1s-1-0.4-1-1s0.4-1,1-1S60.6,30,60.6,30.6"/>
<path fill="#BBBABA" d="M59.1,30.9c0-0.4,0.4-0.8,0.8-0.8c0.1,0,0.3,0,0.4,0.1c-0.1-0.2-0.4-0.4-0.7-0.4c-0.4,0-0.8,0.4-0.8,0.8
	c0,0.3,0.2,0.6,0.4,0.7C59.2,31.2,59.1,31,59.1,30.9"/>
<g>
	<g>
		<defs>
			<rect id="SVGID_51_" x="62.9" y="28.9" width="4" height="4.6"/>
		</defs>
		<clipPath id="SVGID_52_">
			<use xlink:href="#SVGID_51_"  overflow="visible"/>
		</clipPath>
		<path clip-path="url(#SVGID_52_)" fill="#A9A8A8" d="M66.9,31.2c0,1.3-0.9,2.3-2,2.3s-2-1-2-2.3c0-1.3,0.9-2.3,2-2.3
			S66.9,29.9,66.9,31.2"/>
	</g>
</g>
<path fill="#DCDBDB" d="M66.8,30.6c0,1.1-0.9,2-2,2s-2-0.9-2-2c0-1.1,0.9-2,2-2S66.8,29.5,66.8,30.6"/>
<g>
	<g>
		<defs>
			<rect id="SVGID_53_" x="46.3" y="21.8" width="2.8" height="3.2"/>
		</defs>
		<clipPath id="SVGID_54_">
			<use xlink:href="#SVGID_53_"  overflow="visible"/>
		</clipPath>
		<path clip-path="url(#SVGID_54_)" fill="#A9A8A8" d="M49.1,23.4c0,0.9-0.6,1.6-1.4,1.6c-0.8,0-1.4-0.7-1.4-1.6s0.6-1.6,1.4-1.6
			C48.5,21.8,49.1,22.5,49.1,23.4"/>
	</g>
</g>
<path fill="#DCDBDB" d="M49,23c0,0.8-0.6,1.4-1.4,1.4s-1.4-0.6-1.4-1.4c0-0.8,0.6-1.4,1.4-1.4S49,22.3,49,23"/>
<g>
	<g>
		<defs>
			<rect id="SVGID_55_" x="46.3" y="15.9" width="2.8" height="3.2"/>
		</defs>
		<clipPath id="SVGID_56_">
			<use xlink:href="#SVGID_55_"  overflow="visible"/>
		</clipPath>
		<path clip-path="url(#SVGID_56_)" fill="#A9A8A8" d="M49.1,17.5c0,0.9-0.6,1.6-1.4,1.6c-0.8,0-1.4-0.7-1.4-1.6
			c0-0.9,0.6-1.6,1.4-1.6C48.4,15.9,49.1,16.7,49.1,17.5"/>
	</g>
</g>
<path fill="#DCDBDB" d="M49,17.1c0,0.8-0.6,1.4-1.4,1.4s-1.4-0.6-1.4-1.4c0-0.8,0.6-1.4,1.4-1.4S49,16.4,49,17.1"/>
<g>
	<g>
		<defs>
			<rect id="SVGID_57_" x="46.3" y="10.1" width="2.8" height="3.2"/>
		</defs>
		<clipPath id="SVGID_58_">
			<use xlink:href="#SVGID_57_"  overflow="visible"/>
		</clipPath>
		<path clip-path="url(#SVGID_58_)" fill="#A9A8A8" d="M49,11.7c0,0.9-0.6,1.6-1.4,1.6c-0.8,0-1.4-0.7-1.4-1.6
			c0-0.9,0.6-1.6,1.4-1.6C48.4,10.1,49,10.8,49,11.7"/>
	</g>
</g>
<path fill="#DCDBDB" d="M49,11.3c0,0.8-0.6,1.4-1.4,1.4c-0.8,0-1.4-0.6-1.4-1.4c0-0.8,0.6-1.4,1.4-1.4C48.4,9.9,49,10.5,49,11.3"/>
<rect x="61.3" y="6" fill="#C8C7C7" width="0.5" height="0.3"/>
<rect x="62.5" y="6" fill="#C8C7C7" width="0.8" height="0.3"/>
<rect x="65.3" y="6" fill="#C8C7C7" width="0.8" height="0.3"/>
<rect x="61.3" y="23.2" fill="#C8C7C7" width="0.5" height="0.3"/>
<rect x="62.5" y="23.2" fill="#C8C7C7" width="0.8" height="0.3"/>
<rect x="65.3" y="23.2" fill="#C8C7C7" width="0.8" height="0.3"/>
<rect x="62" y="6.8" fill="#C8C7C7" width="0.3" height="15.7"/>
<rect x="62.5" y="7.5" fill="#C8C7C7" width="0.8" height="0.5"/>
<rect x="62.5" y="9.3" fill="#C8C7C7" width="0.8" height="0.5"/>
<rect x="62.5" y="11.4" fill="#C8C7C7" width="0.8" height="0.2"/>
<rect x="62.5" y="14.5" fill="#C8C7C7" width="0.5" height="0.2"/>
<rect x="62.5" y="15.5" fill="#C8C7C7" width="0.5" height="0.5"/>
<rect x="62.5" y="17" fill="#C8C7C7" width="0.5" height="0.2"/>
<rect x="62.5" y="19.4" fill="#C8C7C7" width="0.5" height="0.2"/>
<rect x="62.5" y="20.6" fill="#C8C7C7" width="0.5" height="0.2"/>
<rect x="61.3" y="21.2" fill="#C8C7C7" width="0.5" height="0.5"/>
<rect x="61.3" y="19.8" fill="#C8C7C7" width="0.5" height="0.2"/>
<rect x="61.3" y="17.8" fill="#C8C7C7" width="0.6" height="0.5"/>
<rect x="61.3" y="16.3" fill="#C8C7C7" width="0.5" height="0.2"/>
<rect x="61.3" y="15" fill="#C8C7C7" width="0.5" height="0.5"/>
<rect x="61.3" y="14" fill="#C8C7C7" width="0.5" height="0.2"/>
<rect x="61.3" y="12.9" fill="#C8C7C7" width="0.5" height="0.2"/>
<rect x="61.3" y="11.6" fill="#C8C7C7" width="0.5" height="0.5"/>
<rect x="61.3" y="10.4" fill="#C8C7C7" width="0.5" height="0.3"/>
<rect x="61.3" y="9.1" fill="#C8C7C7" width="0.5" height="0.2"/>
<rect x="61.3" y="7.5" fill="#C8C7C7" width="0.5" height="0.3"/>
<rect x="65.1" y="6.8" fill="#E9C8C9" width="0.3" height="15.7"/>
<rect x="64.1" y="21.1" fill="#E9C8C9" width="0.8" height="0.5"/>
<rect x="64.1" y="19.3" fill="#E9C8C9" width="0.8" height="0.5"/>
<rect x="64.1" y="17.5" fill="#E9C8C9" width="0.8" height="0.2"/>
<rect x="64.4" y="14.4" fill="#E9C8C9" width="0.5" height="0.2"/>
<rect x="64.4" y="13.1" fill="#E9C8C9" width="0.5" height="0.5"/>
<rect x="64.4" y="11.9" fill="#E9C8C9" width="0.5" height="0.2"/>
<rect x="64.4" y="9.6" fill="#E9C8C9" width="0.5" height="0.2"/>
<rect x="64.4" y="8.3" fill="#E9C8C9" width="0.5" height="0.2"/>
<rect x="65.6" y="7.5" fill="#E9C8C9" width="0.5" height="0.5"/>
<rect x="65.6" y="9.1" fill="#E9C8C9" width="0.5" height="0.2"/>
<rect x="65.6" y="10.8" fill="#E9C8C9" width="0.6" height="0.5"/>
<rect x="65.6" y="12.6" fill="#E9C8C9" width="0.5" height="0.2"/>
<rect x="65.6" y="13.7" fill="#E9C8C9" width="0.5" height="0.5"/>
<rect x="65.6" y="14.9" fill="#E9C8C9" width="0.5" height="0.2"/>
<rect x="65.6" y="16" fill="#E9C8C9" width="0.5" height="0.2"/>
<rect x="65.6" y="17" fill="#E9C8C9" width="0.5" height="0.5"/>
<rect x="65.6" y="18.5" fill="#E9C8C9" width="0.5" height="0.3"/>
<rect x="65.6" y="19.8" fill="#E9C8C9" width="0.5" height="0.2"/>
<rect x="65.6" y="21.4" fill="#E9C8C9" width="0.5" height="0.3"/>
<rect x="60.6" y="12.4" fill="#B52126" width="6.2" height="0.3"/>
</svg>
