<?xml version="1.0" encoding="utf-8"?>
<!-- Generator: Adobe Illustrator 15.0.2, SVG Export Plug-In . SVG Version: 6.00 Build 0)  -->
<!DOCTYPE svg PUBLIC "-//W3C//DTD SVG 1.1//EN" "http://www.w3.org/Graphics/SVG/1.1/DTD/svg11.dtd">
<svg version="1.1" id="Layer_1" xmlns="http://www.w3.org/2000/svg" xmlns:xlink="http://www.w3.org/1999/xlink" x="0px" y="0px"
	 width="35.8px" height="60.2px" viewBox="0 0 35.8 60.2" enable-background="new 0 0 35.8 60.2" xml:space="preserve">
<path fill="#231F20" d="M0,55.2c0,2.8,2.2,5,5,5h25.8c2.8,0,5-2.2,5-5V1c0-0.6-0.4-1-1-1H1C0.4,0,0,0.4,0,1V55.2z"/>
<rect x="3.2" y="5" fill="#FFFFFF" width="1.2" height="2.3"/>
<rect x="4.7" y="5" fill="#FFFFFF" width="1.2" height="2.3"/>
<rect x="7.6" y="5" fill="#FFFFFF" width="1.2" height="2.3"/>
<rect x="9" y="5" fill="#FFFFFF" width="1.2" height="2.3"/>
<rect x="6.1" y="4.2" fill="#FFFFFF" width="1.2" height="3.1"/>
<g>
	<g>
		<defs>
			<rect id="SVGID_1_" x="2.7" y="8.9" width="29.7" height="8.9"/>
		</defs>
		<clipPath id="SVGID_2_">
			<use xlink:href="#SVGID_1_"  overflow="visible"/>
		</clipPath>
		<path clip-path="url(#SVGID_2_)" fill="#252A26" d="M4.2,9.9c-0.3,0-0.5,0.2-0.5,0.5v6.1c0,0.3,0.2,0.5,0.5,0.5H6l-2.6,0.8
			c-0.4-0.3-0.7-0.7-0.7-1.3v-6.1c0-0.8,0.7-1.5,1.5-1.5h27.4c0.3,0,0.6,0.1,0.8,0.2l-2.6,0.8H4.2z"/>
	</g>
</g>
<g>
	<g>
		<defs>
			<rect id="SVGID_3_" x="3.4" y="9.1" width="29.7" height="8.9"/>
		</defs>
		<clipPath id="SVGID_4_">
			<use xlink:href="#SVGID_3_"  overflow="visible"/>
		</clipPath>
		<path clip-path="url(#SVGID_4_)" fill="#252A26" d="M33.1,10.4v6.1c0,0.8-0.7,1.5-1.5,1.5H4.2c-0.3,0-0.6-0.1-0.8-0.2L6,17h25.6
			c0.3,0,0.5-0.2,0.5-0.5v-6.1c0-0.3-0.2-0.5-0.5-0.5h-1.8l2.6-0.8C32.8,9.4,33.1,9.9,33.1,10.4"/>
	</g>
</g>
<path fill="#D6543B" d="M32.6,16.5c0,0.6-0.5,1-1,1H4.2c-0.6,0-1-0.4-1-1v-6.1c0-0.6,0.5-1,1-1h27.4c0.6,0,1,0.4,1,1V16.5z"/>
<path fill="#231F20" d="M29.6,11.8l-0.7,3.4c0,0.1-0.1,0.2-0.1,0.2h-1.6l0.7-3.4c0-0.1,0.1-0.2,0.1-0.2H29.6 M29.7,11H28
	c-0.4,0-0.6,0.3-0.8,0.8l-0.8,3.6c-0.1,0.4,0.4,0.8,0.8,0.8h1.7c0.4,0,0.6-0.3,0.8-0.8l0.8-3.6C30.5,11.4,30.1,11,29.7,11"/>
<g>
	<g>
		<defs>
			<rect id="SVGID_5_" x="4" y="21.5" width="2.4" height="2.4"/>
		</defs>
		<clipPath id="SVGID_6_">
			<use xlink:href="#SVGID_5_"  overflow="visible"/>
		</clipPath>
		<path clip-path="url(#SVGID_6_)" fill="#231F20" d="M6.4,22.7c0,0.7-0.5,1.2-1.2,1.2S4,23.4,4,22.7s0.5-1.2,1.2-1.2
			S6.4,22.1,6.4,22.7"/>
	</g>
</g>
<g>
	<g>
		<defs>
			<rect id="SVGID_7_" x="9" y="21.5" width="2.4" height="2.4"/>
		</defs>
		<clipPath id="SVGID_8_">
			<use xlink:href="#SVGID_7_"  overflow="visible"/>
		</clipPath>
		<path clip-path="url(#SVGID_8_)" fill="#231F20" d="M11.4,22.7c0,0.7-0.5,1.2-1.2,1.2S9,23.4,9,22.7s0.5-1.2,1.2-1.2
			S11.4,22.1,11.4,22.7"/>
	</g>
</g>
<path fill="#B52126" d="M6.4,22.5c0,0.7-0.5,1.2-1.2,1.2S4,23.2,4,22.5s0.5-1.2,1.2-1.2S6.4,21.8,6.4,22.5"/>
<path fill="#597F5C" d="M11.4,22.5c0,0.7-0.5,1.2-1.2,1.2S9,23.2,9,22.5s0.5-1.2,1.2-1.2S11.4,21.8,11.4,22.5"/>
<g opacity="0.7">
	<g>
		<defs>
			<rect id="SVGID_9_" x="4.4" y="21.7" width="0.7" height="0.7"/>
		</defs>
		<clipPath id="SVGID_10_">
			<use xlink:href="#SVGID_9_"  overflow="visible"/>
		</clipPath>
		<path clip-path="url(#SVGID_10_)" fill="#FFFFFF" d="M5.1,22c0,0.2-0.2,0.3-0.3,0.3S4.4,22.2,4.4,22c0-0.2,0.2-0.3,0.3-0.3
			S5.1,21.8,5.1,22"/>
	</g>
</g>
<g opacity="0.7">
	<g>
		<defs>
			<rect id="SVGID_11_" x="9.4" y="21.7" width="0.7" height="0.7"/>
		</defs>
		<clipPath id="SVGID_12_">
			<use xlink:href="#SVGID_11_"  overflow="visible"/>
		</clipPath>
		<path clip-path="url(#SVGID_12_)" fill="#FFFFFF" d="M10.1,22c0,0.2-0.2,0.3-0.3,0.3c-0.2,0-0.3-0.2-0.3-0.3
			c0-0.2,0.2-0.3,0.3-0.3C9.9,21.7,10.1,21.8,10.1,22"/>
	</g>
</g>
<g>
	<g>
		<defs>
			<rect id="SVGID_13_" x="1.1" y="0.4" width="34.7" height="59.8"/>
		</defs>
		<clipPath id="SVGID_14_">
			<use xlink:href="#SVGID_13_"  overflow="visible"/>
		</clipPath>
		<path clip-path="url(#SVGID_14_)" fill="#656263" d="M5,59.2h25.8c2.2,0,4-1.8,4-4V1l0.8-0.6c0.1,0.2,0.2,0.4,0.2,0.6v54.2
			c0,2.8-2.2,5-5,5H5c-1.6,0-3-0.7-3.9-1.9l0.5-0.9C2.4,58.5,3.6,59.2,5,59.2"/>
	</g>
</g>
<g>
	<g>
		<defs>
			<rect id="SVGID_15_" width="35.6" height="58.3"/>
		</defs>
		<clipPath id="SVGID_16_">
			<use xlink:href="#SVGID_15_"  overflow="visible"/>
		</clipPath>
		<path clip-path="url(#SVGID_16_)" fill="#656263" d="M0,1c0-0.6,0.4-1,1-1h33.8c0.3,0,0.6,0.2,0.8,0.4L34.8,1H1v54.2
			c0,0.8,0.2,1.6,0.7,2.2l-0.5,0.9C0.4,57.4,0,56.4,0,55.2V1z"/>
	</g>
</g>
<path fill="#252A26" d="M6.3,31.2C5,31.2,4,30.2,4,28.9c0-1.3,1.1-2.3,2.3-2.3s2.3,1.1,2.3,2.3C8.7,30.2,7.6,31.2,6.3,31.2"/>
<path fill="#696C69" d="M6.3,26.7c1.2,0,2.2,1,2.2,2.2c0,1.2-1,2.2-2.2,2.2s-2.2-1-2.2-2.2C4.1,27.6,5.1,26.7,6.3,26.7 M6.3,26.4
	c-1.4,0-2.5,1.1-2.5,2.5c0,1.4,1.1,2.5,2.5,2.5s2.5-1.1,2.5-2.5C8.8,27.5,7.7,26.4,6.3,26.4"/>
<path fill="#252A26" d="M12.3,31.2c-1.3,0-2.3-1.1-2.3-2.3c0-1.3,1.1-2.3,2.3-2.3s2.3,1.1,2.3,2.3C14.7,30.2,13.6,31.2,12.3,31.2"/>
<path fill="#696C69" d="M12.3,26.7c1.2,0,2.2,1,2.2,2.2c0,1.2-1,2.2-2.2,2.2c-1.2,0-2.2-1-2.2-2.2C10.1,27.6,11.1,26.7,12.3,26.7
	 M12.3,26.4c-1.4,0-2.5,1.1-2.5,2.5c0,1.4,1.1,2.5,2.5,2.5c1.4,0,2.5-1.1,2.5-2.5C14.8,27.5,13.7,26.4,12.3,26.4"/>
<path fill="#252A26" d="M18.3,31.2c-1.3,0-2.3-1.1-2.3-2.3c0-1.3,1.1-2.3,2.3-2.3c1.3,0,2.3,1.1,2.3,2.3
	C20.6,30.2,19.6,31.2,18.3,31.2"/>
<path fill="#696C69" d="M18.3,26.7c1.2,0,2.2,1,2.2,2.2c0,1.2-1,2.2-2.2,2.2c-1.2,0-2.2-1-2.2-2.2C16.1,27.6,17.1,26.7,18.3,26.7
	 M18.3,26.4c-1.4,0-2.5,1.1-2.5,2.5c0,1.4,1.1,2.5,2.5,2.5c1.4,0,2.5-1.1,2.5-2.5C20.8,27.5,19.7,26.4,18.3,26.4"/>
<path fill="#252A26" d="M24.3,31.2c-1.3,0-2.3-1.1-2.3-2.3c0-1.3,1.1-2.3,2.3-2.3s2.3,1.1,2.3,2.3C26.6,30.2,25.6,31.2,24.3,31.2"/>
<path fill="#696C69" d="M24.3,26.7c1.2,0,2.2,1,2.2,2.2c0,1.2-1,2.2-2.2,2.2s-2.2-1-2.2-2.2C22.1,27.6,23,26.7,24.3,26.7 M24.3,26.4
	c-1.4,0-2.5,1.1-2.5,2.5c0,1.4,1.1,2.5,2.5,2.5s2.5-1.1,2.5-2.5C26.8,27.5,25.6,26.4,24.3,26.4"/>
<path fill="#252A26" d="M30.2,31.2c-1.3,0-2.3-1.1-2.3-2.3c0-1.3,1.1-2.3,2.3-2.3s2.3,1.1,2.3,2.3C32.6,30.2,31.5,31.2,30.2,31.2"/>
<path fill="#696C69" d="M30.2,26.7c1.2,0,2.2,1,2.2,2.2c0,1.2-1,2.2-2.2,2.2s-2.2-1-2.2-2.2C28,27.6,29,26.7,30.2,26.7 M30.2,26.4
	c-1.4,0-2.5,1.1-2.5,2.5c0,1.4,1.1,2.5,2.5,2.5s2.5-1.1,2.5-2.5C32.7,27.5,31.6,26.4,30.2,26.4"/>
<path fill="#5E411A" d="M6.3,37.2C5,37.2,4,36.1,4,34.8c0-1.3,1.1-2.3,2.3-2.3s2.3,1.1,2.3,2.3C8.7,36.1,7.6,37.2,6.3,37.2"/>
<path fill="#907C61" d="M6.3,32.6c1.2,0,2.2,1,2.2,2.2S7.6,37,6.3,37s-2.2-1-2.2-2.2S5.1,32.6,6.3,32.6 M6.3,32.4
	c-1.4,0-2.5,1.1-2.5,2.5s1.1,2.5,2.5,2.5s2.5-1.1,2.5-2.5S7.7,32.4,6.3,32.4"/>
<path fill="#231F20" d="M12.3,37.2c-1.3,0-2.3-1.1-2.3-2.3c0-1.3,1.1-2.3,2.3-2.3s2.3,1.1,2.3,2.3C14.7,36.1,13.6,37.2,12.3,37.2"/>
<path fill="#676465" d="M12.3,32.6c1.2,0,2.2,1,2.2,2.2s-1,2.2-2.2,2.2c-1.2,0-2.2-1-2.2-2.2S11.1,32.6,12.3,32.6 M12.3,32.4
	c-1.4,0-2.5,1.1-2.5,2.5s1.1,2.5,2.5,2.5c1.4,0,2.5-1.1,2.5-2.5S13.7,32.4,12.3,32.4"/>
<path fill="#231F20" d="M18.3,37.2c-1.3,0-2.3-1.1-2.3-2.3c0-1.3,1.1-2.3,2.3-2.3c1.3,0,2.3,1.1,2.3,2.3
	C20.6,36.1,19.6,37.2,18.3,37.2"/>
<path fill="#676465" d="M18.3,32.6c1.2,0,2.2,1,2.2,2.2s-1,2.2-2.2,2.2c-1.2,0-2.2-1-2.2-2.2S17.1,32.6,18.3,32.6 M18.3,32.4
	c-1.4,0-2.5,1.1-2.5,2.5s1.1,2.5,2.5,2.5c1.4,0,2.5-1.1,2.5-2.5S19.7,32.4,18.3,32.4"/>
<path fill="#231F20" d="M24.3,37.2c-1.3,0-2.3-1.1-2.3-2.3c0-1.3,1.1-2.3,2.3-2.3s2.3,1.1,2.3,2.3C26.6,36.1,25.6,37.2,24.3,37.2"/>
<path fill="#676465" d="M24.3,32.6c1.2,0,2.2,1,2.2,2.2s-1,2.2-2.2,2.2s-2.2-1-2.2-2.2S23,32.6,24.3,32.6 M24.3,32.4
	c-1.4,0-2.5,1.1-2.5,2.5s1.1,2.5,2.5,2.5s2.5-1.1,2.5-2.5S25.6,32.4,24.3,32.4"/>
<path fill="#5E411A" d="M30.2,37.2c-1.3,0-2.3-1.1-2.3-2.3c0-1.3,1.1-2.3,2.3-2.3s2.3,1.1,2.3,2.3C32.6,36.1,31.5,37.2,30.2,37.2"/>
<path fill="#907C61" d="M30.2,32.6c1.2,0,2.2,1,2.2,2.2s-1,2.2-2.2,2.2s-2.2-1-2.2-2.2S29,32.6,30.2,32.6 M30.2,32.4
	c-1.4,0-2.5,1.1-2.5,2.5s1.1,2.5,2.5,2.5s2.5-1.1,2.5-2.5S31.6,32.4,30.2,32.4"/>
<path fill="#5E411A" d="M6.3,43.2C5,43.2,4,42.1,4,40.8c0-1.3,1.1-2.3,2.3-2.3s2.3,1.1,2.3,2.3C8.7,42.1,7.6,43.2,6.3,43.2"/>
<path fill="#907C61" d="M6.3,38.6c1.2,0,2.2,1,2.2,2.2c0,1.2-1,2.2-2.2,2.2s-2.2-1-2.2-2.2C4.1,39.6,5.1,38.6,6.3,38.6 M6.3,38.3
	c-1.4,0-2.5,1.1-2.5,2.5c0,1.4,1.1,2.5,2.5,2.5s2.5-1.1,2.5-2.5C8.8,39.4,7.7,38.3,6.3,38.3"/>
<path fill="#231F20" d="M12.3,43.2c-1.3,0-2.3-1.1-2.3-2.3c0-1.3,1.1-2.3,2.3-2.3s2.3,1.1,2.3,2.3C14.7,42.1,13.6,43.2,12.3,43.2"/>
<path fill="#676465" d="M12.3,38.6c1.2,0,2.2,1,2.2,2.2c0,1.2-1,2.2-2.2,2.2c-1.2,0-2.2-1-2.2-2.2C10.1,39.6,11.1,38.6,12.3,38.6
	 M12.3,38.3c-1.4,0-2.5,1.1-2.5,2.5c0,1.4,1.1,2.5,2.5,2.5c1.4,0,2.5-1.1,2.5-2.5C14.8,39.4,13.7,38.3,12.3,38.3"/>
<path fill="#231F20" d="M18.3,43.2c-1.3,0-2.3-1.1-2.3-2.3c0-1.3,1.1-2.3,2.3-2.3c1.3,0,2.3,1.1,2.3,2.3
	C20.6,42.1,19.6,43.2,18.3,43.2"/>
<path fill="#676465" d="M18.3,38.6c1.2,0,2.2,1,2.2,2.2c0,1.2-1,2.2-2.2,2.2c-1.2,0-2.2-1-2.2-2.2C16.1,39.6,17.1,38.6,18.3,38.6
	 M18.3,38.3c-1.4,0-2.5,1.1-2.5,2.5c0,1.4,1.1,2.5,2.5,2.5c1.4,0,2.5-1.1,2.5-2.5C20.8,39.4,19.7,38.3,18.3,38.3"/>
<path fill="#231F20" d="M24.3,43.2c-1.3,0-2.3-1.1-2.3-2.3c0-1.3,1.1-2.3,2.3-2.3s2.3,1.1,2.3,2.3C26.6,42.1,25.6,43.2,24.3,43.2"/>
<path fill="#676465" d="M24.3,38.6c1.2,0,2.2,1,2.2,2.2c0,1.2-1,2.2-2.2,2.2s-2.2-1-2.2-2.2C22.1,39.6,23,38.6,24.3,38.6 M24.3,38.3
	c-1.4,0-2.5,1.1-2.5,2.5c0,1.4,1.1,2.5,2.5,2.5s2.5-1.1,2.5-2.5C26.8,39.4,25.6,38.3,24.3,38.3"/>
<path fill="#5E411A" d="M30.2,43.2c-1.3,0-2.3-1.1-2.3-2.3c0-1.3,1.1-2.3,2.3-2.3s2.3,1.1,2.3,2.3C32.6,42.1,31.5,43.2,30.2,43.2"/>
<path fill="#907C61" d="M30.2,38.6c1.2,0,2.2,1,2.2,2.2c0,1.2-1,2.2-2.2,2.2S28,42,28,40.8C28,39.6,29,38.6,30.2,38.6 M30.2,38.3
	c-1.4,0-2.5,1.1-2.5,2.5c0,1.4,1.1,2.5,2.5,2.5s2.5-1.1,2.5-2.5C32.7,39.4,31.6,38.3,30.2,38.3"/>
<path fill="#5E411A" d="M6.3,49.1C5,49.1,4,48.1,4,46.8c0-1.3,1.1-2.3,2.3-2.3s2.3,1.1,2.3,2.3C8.7,48.1,7.6,49.1,6.3,49.1"/>
<path fill="#907C61" d="M6.3,44.6c1.2,0,2.2,1,2.2,2.2S7.6,49,6.3,49s-2.2-1-2.2-2.2S5.1,44.6,6.3,44.6 M6.3,44.3
	c-1.4,0-2.5,1.1-2.5,2.5s1.1,2.5,2.5,2.5s2.5-1.1,2.5-2.5S7.7,44.3,6.3,44.3"/>
<path fill="#231F20" d="M12.3,49.1c-1.3,0-2.3-1.1-2.3-2.3c0-1.3,1.1-2.3,2.3-2.3s2.3,1.1,2.3,2.3C14.7,48.1,13.6,49.1,12.3,49.1"/>
<path fill="#676465" d="M12.3,44.6c1.2,0,2.2,1,2.2,2.2s-1,2.2-2.2,2.2c-1.2,0-2.2-1-2.2-2.2S11.1,44.6,12.3,44.6 M12.3,44.3
	c-1.4,0-2.5,1.1-2.5,2.5s1.1,2.5,2.5,2.5c1.4,0,2.5-1.1,2.5-2.5S13.7,44.3,12.3,44.3"/>
<path fill="#231F20" d="M18.3,49.1c-1.3,0-2.3-1.1-2.3-2.3c0-1.3,1.1-2.3,2.3-2.3c1.3,0,2.3,1.1,2.3,2.3
	C20.6,48.1,19.6,49.1,18.3,49.1"/>
<path fill="#676465" d="M18.3,44.6c1.2,0,2.2,1,2.2,2.2s-1,2.2-2.2,2.2c-1.2,0-2.2-1-2.2-2.2S17.1,44.6,18.3,44.6 M18.3,44.3
	c-1.4,0-2.5,1.1-2.5,2.5s1.1,2.5,2.5,2.5c1.4,0,2.5-1.1,2.5-2.5S19.7,44.3,18.3,44.3"/>
<path fill="#231F20" d="M24.3,49.1c-1.3,0-2.3-1.1-2.3-2.3c0-1.3,1.1-2.3,2.3-2.3s2.3,1.1,2.3,2.3C26.6,48.1,25.6,49.1,24.3,49.1"/>
<path fill="#676465" d="M24.3,44.6c1.2,0,2.2,1,2.2,2.2s-1,2.2-2.2,2.2s-2.2-1-2.2-2.2S23,44.6,24.3,44.6 M24.3,44.3
	c-1.4,0-2.5,1.1-2.5,2.5s1.1,2.5,2.5,2.5s2.5-1.1,2.5-2.5S25.6,44.3,24.3,44.3"/>
<path fill="#5E411A" d="M30.2,49.1c-1.3,0-2.3-1.1-2.3-2.3c0-1.3,1.1-2.3,2.3-2.3s2.3,1.1,2.3,2.3C32.6,48.1,31.5,49.1,30.2,49.1"/>
<path fill="#907C61" d="M30.2,44.6c1.2,0,2.2,1,2.2,2.2s-1,2.2-2.2,2.2S28,48,28,46.8S29,44.6,30.2,44.6 M30.2,44.3
	c-1.4,0-2.5,1.1-2.5,2.5s1.1,2.5,2.5,2.5s2.5-1.1,2.5-2.5S31.6,44.3,30.2,44.3"/>
<path fill="#5E411A" d="M6.3,55.1C5,55.1,4,54.1,4,52.8c0-1.3,1.1-2.3,2.3-2.3s2.3,1.1,2.3,2.3C8.7,54.1,7.6,55.1,6.3,55.1"/>
<path fill="#907C61" d="M6.3,50.6c1.2,0,2.2,1,2.2,2.2c0,1.2-1,2.2-2.2,2.2s-2.2-1-2.2-2.2C4.1,51.5,5.1,50.6,6.3,50.6 M6.3,50.3
	c-1.4,0-2.5,1.1-2.5,2.5c0,1.4,1.1,2.5,2.5,2.5s2.5-1.1,2.5-2.5C8.8,51.4,7.7,50.3,6.3,50.3"/>
<path fill="#231F20" d="M12.3,55.1c-1.3,0-2.3-1.1-2.3-2.3c0-1.3,1.1-2.3,2.3-2.3s2.3,1.1,2.3,2.3C14.7,54.1,13.6,55.1,12.3,55.1"/>
<path fill="#676465" d="M12.3,50.6c1.2,0,2.2,1,2.2,2.2c0,1.2-1,2.2-2.2,2.2c-1.2,0-2.2-1-2.2-2.2C10.1,51.5,11.1,50.6,12.3,50.6
	 M12.3,50.3c-1.4,0-2.5,1.1-2.5,2.5c0,1.4,1.1,2.5,2.5,2.5c1.4,0,2.5-1.1,2.5-2.5C14.8,51.4,13.7,50.3,12.3,50.3"/>
<path fill="#5E411A" d="M18.3,55.1c-1.3,0-2.3-1.1-2.3-2.3c0-1.3,1.1-2.3,2.3-2.3c1.3,0,2.3,1.1,2.3,2.3
	C20.6,54.1,19.6,55.1,18.3,55.1"/>
<path fill="#907C61" d="M18.3,50.6c1.2,0,2.2,1,2.2,2.2c0,1.2-1,2.2-2.2,2.2c-1.2,0-2.2-1-2.2-2.2C16.1,51.5,17.1,50.6,18.3,50.6
	 M18.3,50.3c-1.4,0-2.5,1.1-2.5,2.5c0,1.4,1.1,2.5,2.5,2.5c1.4,0,2.5-1.1,2.5-2.5C20.8,51.4,19.7,50.3,18.3,50.3"/>
<path fill="#EBD467" d="M24.3,55.1c-1.3,0-2.3-1.1-2.3-2.3c0-1.3,1.1-2.3,2.3-2.3s2.3,1.1,2.3,2.3C26.6,54.1,25.6,55.1,24.3,55.1"/>
<path fill="#F1E196" d="M24.3,50.6c1.2,0,2.2,1,2.2,2.2c0,1.2-1,2.2-2.2,2.2s-2.2-1-2.2-2.2C22.1,51.5,23,50.6,24.3,50.6 M24.3,50.3
	c-1.4,0-2.5,1.1-2.5,2.5c0,1.4,1.1,2.5,2.5,2.5s2.5-1.1,2.5-2.5C26.8,51.4,25.6,50.3,24.3,50.3"/>
<path fill="#5E411A" d="M30.2,55.1c-1.3,0-2.3-1.1-2.3-2.3c0-1.3,1.1-2.3,2.3-2.3s2.3,1.1,2.3,2.3C32.6,54.1,31.5,55.1,30.2,55.1"/>
<path fill="#907C61" d="M30.2,50.6c1.2,0,2.2,1,2.2,2.2c0,1.2-1,2.2-2.2,2.2S28,54,28,52.8C28,51.5,29,50.6,30.2,50.6 M30.2,50.3
	c-1.4,0-2.5,1.1-2.5,2.5c0,1.4,1.1,2.5,2.5,2.5s2.5-1.1,2.5-2.5C32.7,51.4,31.6,50.3,30.2,50.3"/>
</svg>
