<?xml version="1.0" encoding="utf-8"?>
<!-- Generator: Adobe Illustrator 15.0.2, SVG Export Plug-In . SVG Version: 6.00 Build 0)  -->
<!DOCTYPE svg PUBLIC "-//W3C//DTD SVG 1.1//EN" "http://www.w3.org/Graphics/SVG/1.1/DTD/svg11.dtd">
<svg version="1.1" id="Layer_1" xmlns="http://www.w3.org/2000/svg" xmlns:xlink="http://www.w3.org/1999/xlink" x="0px" y="0px"
	 width="29.6px" height="78.8px" viewBox="0 0 29.6 78.8" enable-background="new 0 0 29.6 78.8" xml:space="preserve">
<path fill="#BDBCBC" d="M11.8,2.8h-1.1c0,0,0.1-0.7,0.5-0.7h0.5V2.8z"/>
<path fill="#231F20" d="M11.8,2.8h-1.1c0,0,0.1,0.7,0.5,0.7h0.5V2.8z"/>
<rect x="11.8" y="2.6" fill="#9C9A9B" width="0.5" height="0.4"/>
<path fill="#BDBCBC" d="M11.8,5.9h-1.1c0,0,0.1-0.7,0.5-0.7h0.5V5.9z"/>
<path fill="#231F20" d="M11.8,5.9h-1.1c0,0,0.1,0.7,0.5,0.7h0.5V5.9z"/>
<rect x="11.8" y="5.7" fill="#9C9A9B" width="0.5" height="0.4"/>
<path fill="#BDBCBC" d="M11.8,8.9h-1.1c0,0,0.1-0.7,0.5-0.7h0.5V8.9z"/>
<path fill="#231F20" d="M11.8,8.9h-1.1c0,0,0.1,0.7,0.5,0.7h0.5V8.9z"/>
<rect x="11.8" y="8.7" fill="#9C9A9B" width="0.5" height="0.4"/>
<path fill="#BDBCBC" d="M17.8,2.8h1.1c0,0-0.1-0.7-0.5-0.7h-0.5V2.8z"/>
<path fill="#231F20" d="M17.8,2.8h1.1c0,0-0.1,0.7-0.5,0.7h-0.5V2.8z"/>
<rect x="17.3" y="2.6" fill="#9C9A9B" width="0.5" height="0.4"/>
<path fill="#BDBCBC" d="M17.8,5.9h1.1c0,0-0.1-0.7-0.5-0.7h-0.5V5.9z"/>
<path fill="#231F20" d="M17.8,5.9h1.1c0,0-0.1,0.7-0.5,0.7h-0.5V5.9z"/>
<rect x="17.3" y="5.7" fill="#9C9A9B" width="0.5" height="0.4"/>
<path fill="#BDBCBC" d="M17.8,8.9h1.1c0,0-0.1-0.7-0.5-0.7h-0.5V8.9z"/>
<path fill="#231F20" d="M17.8,8.9h1.1c0,0-0.1,0.7-0.5,0.7h-0.5V8.9z"/>
<rect x="17.3" y="8.7" fill="#9C9A9B" width="0.5" height="0.4"/>
<path fill="#DFAE57" d="M29,66.3c-0.5-1.4-2.6-6.6-2.6-6.6S25,56.8,25,54.9c0-1.9,0.6-4.5,0.7-5.3s1.7-7.8-6.5-7.8l-4.4,0l-4.4,0
	c-8.2,0-6.6,7-6.5,7.8c0.1,0.8,0.7,3.4,0.7,5.3c0,1.9-1.4,4.8-1.4,4.8s-2.1,5.1-2.6,6.6c-0.5,1.4-0.4,3.4-0.4,3.4
	c0.8,9.8,12.2,8.8,12.2,8.8h2.2H15h2.2c0,0,11.4,1,12.2-8.8C29.4,69.7,29.5,67.8,29,66.3"/>
<path fill="#9E7E64" d="M29.2,66.3c-0.5-1.4-2.6-6.5-2.6-6.6c0,0-1.4-2.9-1.4-4.7c0-1.5,0.4-3.4,0.6-4.5c0.1-0.3,0.1-0.5,0.1-0.7
	l0-0.1c0.3-2,0.1-3.4-0.3-4.5l-0.3,0.3c0.3,1,0.5,2.3,0.2,4.1l0,0.1c0,0.2-0.1,0.4-0.1,0.7c-0.2,1.2-0.6,3.1-0.6,4.6
	c0,1.9,1.4,4.8,1.4,4.9c0,0.1,2.1,5.2,2.6,6.6c0.5,1.4,0.3,3.3,0.3,3.3c-0.7,8.1-8.7,8.7-11.2,8.7c-0.5,0-0.8,0-0.9,0h-2.5l-2.2,0
	c0,0-0.3,0-0.8,0c-1.7,0-6.2-0.3-9-3.3l-0.2,0.3c2.8,3.1,7.5,3.4,9.2,3.4c0.5,0,0.9,0,0.9,0h4.7c0,0,0.3,0,0.9,0h0
	c2.5,0,10.8-0.7,11.6-9C29.6,69.6,29.7,67.7,29.2,66.3"/>
<path fill="#C5B1A2" d="M0.4,69.7c0,0-0.2-1.9,0.3-3.3c0.5-1.4,2.6-6.5,2.6-6.6c0.1-0.1,1.4-3,1.4-4.9c0-1.5-0.4-3.4-0.6-4.6
	C4.1,50,4.1,49.8,4,49.6l0-0.1c-0.5-3,0.3-4.7,1-5.6c1.1-1.3,2.9-1.9,5.3-1.9l4.4,0l4.4,0c2.5,0,4.2,0.6,5.3,1.9
	c0.3,0.4,0.6,0.9,0.8,1.5l0.3-0.3c-0.2-0.6-0.5-1.1-0.8-1.4c-1.1-1.4-3-2.1-5.6-2.1l-4.4,0l-4.4,0c-2.6,0-4.5,0.7-5.6,2.1
	c-0.8,1-1.6,2.7-1.1,5.9l0,0.1c0,0.2,0.1,0.4,0.1,0.7c0.2,1.1,0.6,3.1,0.6,4.5c0,1.8-1.4,4.7-1.4,4.8c0,0.1-2.1,5.2-2.6,6.6
	C-0.1,67.7,0,69.6,0,69.7c0.2,2.5,1.1,4.3,2.3,5.6L2.6,75C1.4,73.8,0.6,72.1,0.4,69.7"/>
<g>
	<g>
		<defs>
			<rect id="SVGID_1_" x="9.6" y="47.9" width="10.4" height="10.4"/>
		</defs>
		<clipPath id="SVGID_2_">
			<use xlink:href="#SVGID_1_"  overflow="visible"/>
		</clipPath>
		
			<circle clip-path="url(#SVGID_2_)" fill="none" stroke="#9E7E64" stroke-width="0.147" stroke-miterlimit="10" cx="14.8" cy="53.1" r="5.1"/>
	</g>
</g>
<g>
	<g>
		<defs>
			<rect id="SVGID_3_" x="10.1" y="48.4" width="9.4" height="9.4"/>
		</defs>
		<clipPath id="SVGID_4_">
			<use xlink:href="#SVGID_3_"  overflow="visible"/>
		</clipPath>
		
			<circle clip-path="url(#SVGID_4_)" fill="none" stroke="#231F20" stroke-width="0.447" stroke-miterlimit="10" cx="14.8" cy="53.1" r="4.5"/>
	</g>
</g>
<g>
	<g>
		<defs>
			<rect id="SVGID_5_" x="10.9" y="49.2" width="7.8" height="7.8"/>
		</defs>
		<clipPath id="SVGID_6_">
			<use xlink:href="#SVGID_5_"  overflow="visible"/>
		</clipPath>
		<path clip-path="url(#SVGID_6_)" fill="#72583C" d="M18.7,53.1c0,2.2-1.8,3.9-3.9,3.9c-2.2,0-3.9-1.8-3.9-3.9
			c0-2.2,1.8-3.9,3.9-3.9C17,49.2,18.7,50.9,18.7,53.1"/>
	</g>
</g>
<g>
	<g>
		<defs>
			<rect id="SVGID_7_" x="10.9" y="49.2" width="7.8" height="6.7"/>
		</defs>
		<clipPath id="SVGID_8_">
			<use xlink:href="#SVGID_7_"  overflow="visible"/>
		</clipPath>
		<path clip-path="url(#SVGID_8_)" fill="#231F20" d="M11.9,55.1c0-2.2,1.8-3.9,3.9-3.9c1.1,0,2.1,0.4,2.8,1.1
			c-0.4-1.8-1.9-3.2-3.8-3.2c-2.2,0-3.9,1.8-3.9,3.9c0,1.1,0.4,2.1,1.1,2.8C12,55.6,11.9,55.4,11.9,55.1"/>
	</g>
</g>
<g>
	<g>
		<defs>
			<rect id="SVGID_9_" x="10.9" y="53.1" width="7.9" height="4"/>
		</defs>
		<clipPath id="SVGID_10_">
			<use xlink:href="#SVGID_9_"  overflow="visible"/>
		</clipPath>
		<path clip-path="url(#SVGID_10_)" fill="#72583C" d="M18.7,53.1c0.1,1-0.3,2.1-1.1,2.8c-0.7,0.8-1.8,1.2-2.8,1.2
			c-1.1,0-2.1-0.5-2.8-1.2c-0.7-0.7-1.1-1.8-1.1-2.8h0c0,1,0.4,2,1.1,2.8c0.7,0.7,1.7,1.1,2.8,1.1c1,0,2-0.4,2.8-1.1
			C18.3,55.1,18.7,54.1,18.7,53.1L18.7,53.1z"/>
	</g>
</g>
<path fill="#231F20" d="M20.2,62.8h-5.4H9.4c-0.5,0-0.6,0.6-0.6,1.2c0,0.6,0.2,0.6,0.2,0.6s0.3-0.2,1.4-0.2c1.1,0,1.8,0.6,1.8,0.6
	c0.9,0.8,2.5,0.9,2.5,0.9s1.6,0,2.5-0.9c0,0,0.7-0.6,1.8-0.6c1.1,0,1.4,0.2,1.4,0.2s0.2,0,0.2-0.6C20.7,63.4,20.6,62.8,20.2,62.8"/>
<path fill="#72583C" d="M14.8,49.2c0.8,0,1.5,0.2,2.1,0.6l-0.5-37.2h-1.5h-0.2h-1.5l-0.5,37.2C13.3,49.4,14,49.2,14.8,49.2"/>
<g>
	<g>
		<defs>
			<rect id="SVGID_11_" x="16.2" y="12.6" width="0.7" height="37.2"/>
		</defs>
		<clipPath id="SVGID_12_">
			<use xlink:href="#SVGID_11_"  overflow="visible"/>
		</clipPath>
		<path clip-path="url(#SVGID_12_)" fill="#72583C" d="M16.9,49.8l-0.5-37.2h-0.2l0.4,37C16.7,49.7,16.8,49.7,16.9,49.8"/>
	</g>
</g>
<g>
	<g>
		<defs>
			<rect id="SVGID_13_" x="12.7" y="12.6" width="0.7" height="37.2"/>
		</defs>
		<clipPath id="SVGID_14_">
			<use xlink:href="#SVGID_13_"  overflow="visible"/>
		</clipPath>
		<path clip-path="url(#SVGID_14_)" fill="#72583C" d="M13.4,12.6h-0.2l-0.5,37.2c0.1-0.1,0.2-0.1,0.3-0.1L13.4,12.6z"/>
	</g>
</g>
<path fill="#231F20" d="M14.8,0c-1.5,0-2.7,0.3-2.7,0.3l0.2,10.3c0.9,0.9,0.9,2,0.9,2h1.6h1.6c0,0,0-1.1,0.9-2l0.2-10.3
	C17.5,0.3,16.3,0,14.8,0"/>
<path fill="#9C9A9B" d="M13.3,2.9l-0.4-0.4c-0.1,0.1-0.2,0.2-0.2,0.4c0,0.3,0.3,0.6,0.6,0.6c0.3,0,0.6-0.3,0.6-0.6
	c0-0.2-0.1-0.3-0.2-0.4L13.3,2.9z"/>
<path fill="#BDBCBC" d="M13.7,2.5c-0.1-0.1-0.2-0.2-0.4-0.2c-0.2,0-0.3,0.1-0.4,0.2l0.4,0.4L13.7,2.5z"/>
<g>
	<g>
		<defs>
			<rect id="SVGID_15_" x="12.9" y="2.5" width="0.7" height="0.8"/>
		</defs>
		<clipPath id="SVGID_16_">
			<use xlink:href="#SVGID_15_"  overflow="visible"/>
		</clipPath>
		<path clip-path="url(#SVGID_16_)" fill="#9C9A9B" d="M13.6,2.9c0,0.2-0.1,0.4-0.4,0.4c-0.2,0-0.4-0.2-0.4-0.4
			c0-0.2,0.2-0.4,0.4-0.4C13.5,2.4,13.7,2.7,13.6,2.9 M13.6,2.9c0-0.2-0.2-0.3-0.3-0.3c-0.1,0-0.3,0.1-0.3,0.3
			c0,0.2,0.1,0.3,0.3,0.3C13.4,3.1,13.6,3.1,13.6,2.9"/>
	</g>
</g>
<path fill="#9C9A9B" d="M13.4,5.9L13,5.5c-0.1,0.1-0.2,0.2-0.2,0.4c0,0.3,0.3,0.6,0.6,0.6S14,6.3,14,5.9c0-0.2-0.1-0.3-0.2-0.4
	L13.4,5.9z"/>
<path fill="#BDBCBC" d="M13.8,5.5c-0.1-0.1-0.2-0.2-0.4-0.2c-0.2,0-0.3,0.1-0.4,0.2l0.4,0.4L13.8,5.5z"/>
<g>
	<g>
		<defs>
			<rect id="SVGID_17_" x="13" y="5.5" width="0.7" height="0.8"/>
		</defs>
		<clipPath id="SVGID_18_">
			<use xlink:href="#SVGID_17_"  overflow="visible"/>
		</clipPath>
		<path clip-path="url(#SVGID_18_)" fill="#9C9A9B" d="M13.7,5.9c0,0.2-0.1,0.4-0.4,0.4c-0.2,0-0.4-0.2-0.4-0.4
			c0-0.2,0.2-0.4,0.4-0.4C13.6,5.5,13.8,5.8,13.7,5.9 M13.7,5.9c0-0.2-0.2-0.3-0.3-0.3c-0.1,0-0.3,0.1-0.3,0.3
			c0,0.2,0.1,0.3,0.3,0.3C13.5,6.2,13.7,6.1,13.7,5.9"/>
	</g>
</g>
<path fill="#9C9A9B" d="M13.6,9l-0.4-0.4C13.1,8.7,13,8.9,13,9c0,0.3,0.3,0.6,0.6,0.6c0.3,0,0.6-0.3,0.6-0.6c0-0.2-0.1-0.3-0.2-0.4
	L13.6,9z"/>
<path fill="#BDBCBC" d="M14,8.6c-0.1-0.1-0.2-0.2-0.4-0.2c-0.2,0-0.3,0.1-0.4,0.2L13.6,9L14,8.6z"/>
<g>
	<g>
		<defs>
			<rect id="SVGID_19_" x="13.2" y="8.6" width="0.7" height="0.8"/>
		</defs>
		<clipPath id="SVGID_20_">
			<use xlink:href="#SVGID_19_"  overflow="visible"/>
		</clipPath>
		<path clip-path="url(#SVGID_20_)" fill="#9C9A9B" d="M13.9,9c0,0.2-0.1,0.4-0.3,0.4c-0.2,0-0.4-0.2-0.4-0.4c0-0.2,0.2-0.4,0.4-0.4
			C13.8,8.6,13.9,8.8,13.9,9 M13.9,9c0-0.2-0.2-0.3-0.3-0.3c-0.1,0-0.3,0.1-0.3,0.3c0,0.2,0.1,0.3,0.3,0.3C13.7,9.3,13.9,9.2,13.9,9
			"/>
	</g>
</g>
<path fill="#9C9A9B" d="M16.3,2.9l0.4-0.4c0.1,0.1,0.2,0.2,0.2,0.4c0,0.3-0.3,0.6-0.6,0.6c-0.3,0-0.6-0.3-0.6-0.6
	c0-0.2,0.1-0.3,0.2-0.4L16.3,2.9z"/>
<path fill="#BDBCBC" d="M15.9,2.5c0.1-0.1,0.2-0.2,0.4-0.2c0.2,0,0.3,0.1,0.4,0.2l-0.4,0.4L15.9,2.5z"/>
<g>
	<g>
		<defs>
			<rect id="SVGID_21_" x="15.9" y="2.5" width="0.7" height="0.8"/>
		</defs>
		<clipPath id="SVGID_22_">
			<use xlink:href="#SVGID_21_"  overflow="visible"/>
		</clipPath>
		<path clip-path="url(#SVGID_22_)" fill="#9C9A9B" d="M16,2.9c0,0.2,0.2,0.3,0.3,0.3c0.2,0,0.3-0.1,0.3-0.3c0-0.2-0.2-0.3-0.3-0.3
			C16.2,2.6,16,2.7,16,2.9 M15.9,2.9c0-0.2,0.1-0.4,0.3-0.4c0.2,0,0.4,0.2,0.4,0.4c0,0.2-0.2,0.4-0.4,0.4C16,3.3,15.9,3,15.9,2.9"/>
	</g>
</g>
<path fill="#9C9A9B" d="M16.2,5.9l0.4-0.4c0.1,0.1,0.2,0.2,0.2,0.4c0,0.3-0.3,0.6-0.6,0.6c-0.3,0-0.6-0.3-0.6-0.6
	c0-0.2,0.1-0.3,0.2-0.4L16.2,5.9z"/>
<path fill="#BDBCBC" d="M15.8,5.5c0.1-0.1,0.2-0.2,0.4-0.2c0.2,0,0.3,0.1,0.4,0.2l-0.4,0.4L15.8,5.5z"/>
<g>
	<g>
		<defs>
			<rect id="SVGID_23_" x="15.8" y="5.5" width="0.7" height="0.8"/>
		</defs>
		<clipPath id="SVGID_24_">
			<use xlink:href="#SVGID_23_"  overflow="visible"/>
		</clipPath>
		<path clip-path="url(#SVGID_24_)" fill="#9C9A9B" d="M15.8,5.9c0,0.2,0.2,0.3,0.3,0.3c0.2,0,0.3-0.1,0.3-0.3
			c0-0.2-0.2-0.3-0.3-0.3C16,5.7,15.9,5.8,15.8,5.9 M15.8,5.9c0-0.2,0.1-0.4,0.3-0.4c0.2,0,0.4,0.2,0.4,0.4c0,0.2-0.2,0.4-0.4,0.4
			C15.9,6.4,15.8,6.1,15.8,5.9"/>
	</g>
</g>
<path fill="#9C9A9B" d="M16,9l0.4-0.4c0.1,0.1,0.2,0.2,0.2,0.4c0,0.3-0.3,0.6-0.6,0.6c-0.3,0-0.6-0.3-0.6-0.6c0-0.2,0.1-0.3,0.2-0.4
	L16,9z"/>
<path fill="#BDBCBC" d="M15.6,8.6c0.1-0.1,0.2-0.2,0.4-0.2c0.2,0,0.3,0.1,0.4,0.2L16,9L15.6,8.6z"/>
<g>
	<g>
		<defs>
			<rect id="SVGID_25_" x="15.7" y="8.6" width="0.7" height="0.8"/>
		</defs>
		<clipPath id="SVGID_26_">
			<use xlink:href="#SVGID_25_"  overflow="visible"/>
		</clipPath>
		<path clip-path="url(#SVGID_26_)" fill="#9C9A9B" d="M15.7,9c0,0.2,0.2,0.3,0.3,0.3c0.2,0,0.3-0.1,0.3-0.3c0-0.2-0.2-0.3-0.3-0.3
			C15.9,8.8,15.7,8.8,15.7,9 M15.7,9c0-0.2,0.1-0.4,0.3-0.4c0.2,0,0.4,0.2,0.4,0.4c0,0.2-0.2,0.4-0.4,0.4C15.8,9.4,15.6,9.2,15.7,9"
			/>
	</g>
</g>
<g>
	<g>
		<defs>
			<rect id="SVGID_27_" x="12.8" y="15.9" width="4.1" height="31.3"/>
		</defs>
		<clipPath id="SVGID_28_">
			<use xlink:href="#SVGID_27_"  overflow="visible"/>
		</clipPath>
		<rect x="13" y="31.5" clip-path="url(#SVGID_28_)" fill="#E7E6E7" width="3.7" height="0.1"/>
		<rect x="13" y="29.5" clip-path="url(#SVGID_28_)" fill="#E7E6E7" width="3.6" height="0.1"/>
		<rect x="12.9" y="33.3" clip-path="url(#SVGID_28_)" fill="#E7E6E7" width="3.7" height="0.1"/>
		<rect x="12.9" y="39.3" clip-path="url(#SVGID_28_)" fill="#E7E6E7" width="3.9" height="0.1"/>
		<rect x="12.9" y="36.5" clip-path="url(#SVGID_28_)" fill="#E7E6E7" width="3.8" height="0.1"/>
		<rect x="12.8" y="43" clip-path="url(#SVGID_28_)" fill="#E7E6E7" width="4" height="0.1"/>
		<rect x="12.8" y="44.1" clip-path="url(#SVGID_28_)" fill="#E7E6E7" width="4" height="0.1"/>
		<rect x="12.8" y="41.8" clip-path="url(#SVGID_28_)" fill="#E7E6E7" width="3.9" height="0.1"/>
		<rect x="12.9" y="38" clip-path="url(#SVGID_28_)" fill="#E7E6E7" width="3.8" height="0.1"/>
		<rect x="12.9" y="34.9" clip-path="url(#SVGID_28_)" fill="#E7E6E7" width="3.7" height="0.1"/>
		<rect x="13.1" y="21.3" clip-path="url(#SVGID_28_)" fill="#E7E6E7" width="3.4" height="0.1"/>
		<rect x="13.1" y="23.4" clip-path="url(#SVGID_28_)" fill="#E7E6E7" width="3.4" height="0.1"/>
		<rect x="13" y="25.6" clip-path="url(#SVGID_28_)" fill="#E7E6E7" width="3.5" height="0.1"/>
		<rect x="13.2" y="15.9" clip-path="url(#SVGID_28_)" fill="#E7E6E7" width="3.3" height="0.1"/>
		<rect x="13.1" y="18.6" clip-path="url(#SVGID_28_)" fill="#E7E6E7" width="3.3" height="0.1"/>
		<rect x="13" y="27.6" clip-path="url(#SVGID_28_)" fill="#E7E6E7" width="3.6" height="0.1"/>
		<rect x="12.8" y="47" clip-path="url(#SVGID_28_)" fill="#E7E6E7" width="4.1" height="0.1"/>
		<rect x="12.8" y="45.1" clip-path="url(#SVGID_28_)" fill="#E7E6E7" width="4" height="0.1"/>
		<rect x="12.8" y="40.6" clip-path="url(#SVGID_28_)" fill="#E7E6E7" width="3.9" height="0.1"/>
		<rect x="12.8" y="46.1" clip-path="url(#SVGID_28_)" fill="#E7E6E7" width="4" height="0.1"/>
	</g>
</g>
<path fill="#E7E6E7" d="M12.9,64.5c0,0.1-0.1,0.2-0.2,0.2c-0.1,0-0.2-0.1-0.2-0.2c0-0.1,0.1-0.2,0.2-0.2
	C12.8,64.3,12.9,64.4,12.9,64.5"/>
<path fill="#E7E6E7" d="M13.7,64.5c0,0.1-0.1,0.2-0.2,0.2c-0.1,0-0.2-0.1-0.2-0.2c0-0.1,0.1-0.2,0.2-0.2
	C13.7,64.3,13.7,64.4,13.7,64.5"/>
<path fill="#E7E6E7" d="M14.6,64.5c0,0.1-0.1,0.2-0.2,0.2s-0.2-0.1-0.2-0.2c0-0.1,0.1-0.2,0.2-0.2S14.6,64.4,14.6,64.5"/>
<path fill="#E7E6E7" d="M15.4,64.5c0,0.1-0.1,0.2-0.2,0.2c-0.1,0-0.2-0.1-0.2-0.2c0-0.1,0.1-0.2,0.2-0.2
	C15.3,64.3,15.4,64.4,15.4,64.5"/>
<path fill="#E7E6E7" d="M16.2,64.5c0,0.1-0.1,0.2-0.2,0.2s-0.2-0.1-0.2-0.2c0-0.1,0.1-0.2,0.2-0.2S16.2,64.4,16.2,64.5"/>
<path fill="#E7E6E7" d="M17.1,64.5c0,0.1-0.1,0.2-0.2,0.2c-0.1,0-0.2-0.1-0.2-0.2c0-0.1,0.1-0.2,0.2-0.2
	C17,64.3,17.1,64.4,17.1,64.5"/>
<polyline fill="none" stroke="#F3EFD9" stroke-width="0.148" stroke-miterlimit="10" points="12.7,64.4 13.4,12.6 13.4,9 "/>
<polyline fill="none" stroke="#F3EFD9" stroke-width="0.148" stroke-miterlimit="10" points="13.6,64.4 13.9,12.6 13.6,5.8 "/>
<polyline fill="none" stroke="#F3EFD9" stroke-width="0.148" stroke-miterlimit="10" points="13.6,2.6 14.5,12.7 14.3,64.4 "/>
<polyline fill="none" stroke="#F3EFD9" stroke-width="0.148" stroke-miterlimit="10" points="16.9,64.4 16.2,12.6 16.2,9 "/>
<polyline fill="none" stroke="#F3EFD9" stroke-width="0.148" stroke-miterlimit="10" points="16,64.4 15.6,12.6 16,5.8 "/>
<polyline fill="none" stroke="#F3EFD9" stroke-width="0.148" stroke-miterlimit="10" points="16,2.6 15.1,12.7 15.2,64.4 "/>
</svg>
