<?xml version="1.0" encoding="utf-8"?>
<!-- Generator: Adobe Illustrator 15.0.2, SVG Export Plug-In . SVG Version: 6.00 Build 0)  -->
<!DOCTYPE svg PUBLIC "-//W3C//DTD SVG 1.1//EN" "http://www.w3.org/Graphics/SVG/1.1/DTD/svg11.dtd">
<svg version="1.1" id="Layer_1" xmlns="http://www.w3.org/2000/svg" xmlns:xlink="http://www.w3.org/1999/xlink" x="0px" y="0px"
	 width="57.4px" height="58.6px" viewBox="0 0 57.4 58.6" enable-background="new 0 0 57.4 58.6" xml:space="preserve">
<path fill="#D3D2D2" d="M51.3,49.6c1.1-3.8,1.2-9,4.1-10.4c1.6,3.3,0,9.2-1.6,12.2c-0.4,0.3-0.8,0.7-1.2,1
	C51.8,51.8,51.6,50.7,51.3,49.6"/>
<path fill="#D3D2D2" d="M6,49.6c-1.1-3.8-1.2-9-4.1-10.4c-1.6,3.3,0,9.2,1.6,12.2c0.4,0.3,0.8,0.7,1.2,1C5.6,51.8,5.8,50.7,6,49.6"
	/>
<path fill="#252A26" d="M56.7,25.4C54.5,11.2,45.8,1.7,32.6,0.2C31.2,0.1,30,0,28.7,0c-1.2,0-2.5,0.1-3.9,0.2
	C11.6,1.7,3,11.2,0.7,25.4c-0.3,1.8-0.6,3.6-0.6,5.5c-0.2,1.6,1.6,1,1.5,2.5c0,7,0.9,13,2.7,18.2C4.7,53.1,5.4,55.9,7,55
	c2.1-0.6,0-3.3-0.3-4.4c-0.9-2.9-1.6-6.2-2-9.7c-0.3-2.4-0.4-4.9-0.4-7.6C4.4,32,2.8,32.4,2.9,31c0-1.7,0.3-3.4,0.6-5
	c2-13.1,9.8-21.8,21.7-23.2c1.2-0.1,2.4-0.2,3.5-0.2c1.1,0,2.3,0.1,3.5,0.2C44.1,4.1,51.9,12.9,53.9,26c0.3,1.6,0.6,3.3,0.6,5
	c0.2,1.4-1.5,0.9-1.4,2.3c0,2.7-0.1,5.2-0.4,7.6c-0.4,3.5-1,6.8-2,9.7c-0.3,1.1-2.4,3.8-0.3,4.4c1.6,0.8,2.3-2,2.7-3.4
	c1.8-5.1,2.7-11.2,2.7-18.2c-0.1-1.5,1.7-1,1.5-2.5C57.3,29.1,57,27.2,56.7,25.4"/>
<path fill="#918F90" d="M54.5,31c0-1.7-0.3-3.4-0.6-5c-2-13.1-9.8-21.8-21.7-23.2c-1.2-0.1-2.4-0.2-3.5-0.2c-1.1,0-2.3,0.1-3.5,0.2
	C13.3,4.1,5.5,12.9,3.5,26c-0.3,1.6-0.6,3.3-0.6,5c-0.2,1.4,1.5,0.9,1.4,2.3c0,2.7,0.1,5.2,0.4,7.6c-0.3-2.4-0.4-4.9-0.4-7.5
	c-0.2-1.5,1.3-1.4,1.5-2.5c0.1-1.9,0.3-3.5,0.6-5.5h0c2.5-12,9.2-19.3,22.3-20.1C41.8,6.1,48.5,13.5,51,25.5h0
	c0.3,2,0.5,3.5,0.6,5.5c0.2,1.1,1.7,1,1.5,2.5c0,2.6-0.2,5.1-0.4,7.5c0.3-2.4,0.4-4.9,0.4-7.6C53,32,54.7,32.4,54.5,31"/>
<path fill="#252A26" d="M16.4,53.3c-1.4-7.2-0.5-16.7-5.6-20C7.1,39,9.1,50.2,11.4,56.1c0.7,0.6,1.3,1.4,2,2.1
	C15.1,57.3,15.7,55.2,16.4,53.3"/>
<path fill="#D3D2D2" d="M11.4,56.1c-0.9-2.3-1.7-5.4-2.2-8.6H4.8c0.4,2.9,1.2,5.6,2,7.7c1.5,1.3,2.3,3.2,4.8,3.5
	c0.7,0,1.3-0.2,1.8-0.4C12.7,57.5,12.1,56.7,11.4,56.1"/>
<path fill="#D3D2D2" d="M10.8,33.3C10.7,33.3,10.7,33.3,10.8,33.3c-1.3-0.1-2.3-0.1-3.1,0.2c-1.9,1.5-2.8,4-3.1,6.9h4.3
	C9,37.8,9.6,35.2,10.8,33.3"/>
<path fill="#E9E9E9" d="M8.9,45.5H4.6c0.1,0.7,0.1,1.3,0.2,2h4.4C9.1,46.8,9,46.2,8.9,45.5"/>
<path fill="#E9E9E9" d="M8.8,41.5c0-0.3,0-0.7,0.1-1H4.6c0,0.3-0.1,0.7-0.1,1H8.8z"/>
<path fill="#F4F4F4" d="M4.5,41.5c-0.1,1.3,0,2.6,0.1,4h4.4c-0.1-1.3-0.2-2.7-0.2-4H4.5z"/>
<g>
	<g>
		<defs>
			<rect id="SVGID_1_" x="8.8" y="38.1" width="4.1" height="15.3"/>
		</defs>
		<clipPath id="SVGID_2_">
			<use xlink:href="#SVGID_1_"  overflow="visible"/>
		</clipPath>
		<path clip-path="url(#SVGID_2_)" fill="#252A26" d="M9.1,38.1c-0.8,4.7,0.1,10.6,1.4,15.1c0,0.1,0.1,0.1,0.1,0.2
			c1.1-0.5,1.9-1.8,2.3-3C12.1,46,12.2,40.1,9.1,38.1"/>
	</g>
</g>
<path fill="#918F90" d="M4.3,33.3c0.7,0,1.3-0.6,1.3-1.9c0-1.3-0.6-1.9-1.3-1.9h-3c-0.7,0-1.3,0.6-1.3,1.9c0,1.3,0.6,2.1,1.3,2.1"/>
<path fill="#D3D2D2" d="M0,31.4c0,0,0,0.1,0,0.1h5.5c0,0,0-0.1,0-0.1c0-0.3,0-0.6-0.1-0.9H0.1C0,30.7,0,31,0,31.4"/>
<path fill="#918F90" d="M5.6,31.2c0,1.2-0.6,2.1-1.3,2.1c-0.7,0-1.3-0.9-1.3-2.1c0-1.2,0.6-2.1,1.3-2.1C5,29.1,5.6,30,5.6,31.2"/>
<path fill="#F4F4F4" d="M5.3,31.2c0,0.9-0.5,1.6-1,1.6c-0.6,0-1-0.7-1-1.6c0-0.9,0.5-1.6,1-1.6C4.8,29.5,5.3,30.3,5.3,31.2"/>
<path fill="#D3D2D2" d="M4.7,31.2c0,0.7-0.3,1.3-0.6,1.3c-0.3,0-0.6-0.6-0.6-1.3s0.3-1.3,0.6-1.3C4.4,29.9,4.7,30.5,4.7,31.2"/>
<path fill="#252A26" d="M41,53.3c1.4-7.2,0.5-16.7,5.6-20c3.6,5.7,1.7,16.9-0.6,22.8c-0.7,0.6-1.3,1.4-2,2.1
	C42.3,57.3,41.7,55.2,41,53.3"/>
<path fill="#D3D2D2" d="M46,56.1c0.9-2.3,1.7-5.4,2.2-8.6h4.4c-0.4,2.9-1.2,5.6-2,7.7c-1.5,1.3-2.3,3.2-4.8,3.5
	c-0.7,0-1.3-0.2-1.8-0.4C44.7,57.5,45.3,56.7,46,56.1"/>
<path fill="#D3D2D2" d="M46.6,33.3C46.6,33.3,46.7,33.3,46.6,33.3c1.3-0.1,2.3-0.1,3.1,0.2c1.9,1.5,2.8,4,3.1,6.9h-4.3
	C48.4,37.8,47.8,35.2,46.6,33.3"/>
<path fill="#E9E9E9" d="M48.4,45.5h4.4c-0.1,0.7-0.1,1.3-0.2,2h-4.4C48.3,46.8,48.4,46.2,48.4,45.5"/>
<path fill="#E9E9E9" d="M48.6,41.5c0-0.3,0-0.7-0.1-1h4.3c0,0.3,0.1,0.7,0.1,1H48.6z"/>
<path fill="#F4F4F4" d="M52.9,41.5c0.1,1.3,0,2.6-0.1,4h-4.4c0.1-1.3,0.2-2.7,0.2-4H52.9z"/>
<g>
	<g>
		<defs>
			<rect id="SVGID_3_" x="44.5" y="38.1" width="4.1" height="15.3"/>
		</defs>
		<clipPath id="SVGID_4_">
			<use xlink:href="#SVGID_3_"  overflow="visible"/>
		</clipPath>
		<path clip-path="url(#SVGID_4_)" fill="#252A26" d="M48.3,38.1c0.8,4.7-0.1,10.6-1.4,15.1c0,0.1-0.1,0.1-0.1,0.2
			c-1.1-0.5-1.9-1.8-2.3-3C45.3,46,45.2,40.1,48.3,38.1"/>
	</g>
</g>
<path fill="#918F90" d="M53.1,33.3c-0.7,0-1.3-0.6-1.3-1.9c0-1.3,0.6-1.9,1.3-1.9h3c0.7,0,1.3,0.6,1.3,1.9c0,1.3-0.6,2.1-1.3,2.1"/>
<path fill="#D3D2D2" d="M57.4,31.4c0,0,0,0.1,0,0.1h-5.5c0,0,0-0.1,0-0.1c0-0.3,0-0.6,0.1-0.9h5.3C57.3,30.7,57.4,31,57.4,31.4"/>
<path fill="#918F90" d="M51.8,31.2c0,1.2,0.6,2.1,1.3,2.1c0.7,0,1.3-0.9,1.3-2.1c0-1.2-0.6-2.1-1.3-2.1C52.4,29.1,51.8,30,51.8,31.2
	"/>
<path fill="#F4F4F4" d="M52.1,31.2c0,0.9,0.5,1.6,1,1.6s1-0.7,1-1.6c0-0.9-0.5-1.6-1-1.6S52.1,30.3,52.1,31.2"/>
<path fill="#D3D2D2" d="M52.7,31.2c0,0.7,0.3,1.3,0.6,1.3s0.6-0.6,0.6-1.3s-0.3-1.3-0.6-1.3S52.7,30.5,52.7,31.2"/>
</svg>
