<?xml version="1.0" encoding="utf-8"?>
<!-- Generator: Adobe Illustrator 15.0.2, SVG Export Plug-In . SVG Version: 6.00 Build 0)  -->
<!DOCTYPE svg PUBLIC "-//W3C//DTD SVG 1.1//EN" "http://www.w3.org/Graphics/SVG/1.1/DTD/svg11.dtd">
<svg version="1.1" id="Layer_1" xmlns="http://www.w3.org/2000/svg" xmlns:xlink="http://www.w3.org/1999/xlink" x="0px" y="0px"
	 width="51px" height="75.6px" viewBox="0 0 51 75.6" enable-background="new 0 0 51 75.6" xml:space="preserve">
<g opacity="0.5">
	<g>
		<defs>
			<rect id="SVGID_1_" x="19.4" y="68.1" width="11.9" height="6.7"/>
		</defs>
		<clipPath id="SVGID_2_">
			<use xlink:href="#SVGID_1_"  overflow="visible"/>
		</clipPath>
		<polygon clip-path="url(#SVGID_2_)" fill="#9E7E64" points="31,72.8 30.1,72.5 29.1,72.8 28.2,72.5 27.3,72.8 26.3,72.5 
			25.4,72.8 24.5,72.5 23.5,72.8 22.6,72.5 21.7,72.8 20.7,72.5 19.8,72.8 19.4,72.7 19.4,72.9 19.8,73 20.7,72.7 21.7,73 
			22.6,72.7 23.5,73 24.5,72.7 25.4,73 26.3,72.7 27.3,73 28.2,72.7 29.1,73 30.1,72.7 31,73 31.3,72.9 31.3,72.7 		"/>
		<polygon clip-path="url(#SVGID_2_)" fill="#9E7E64" points="31,72.4 30.1,72.1 29.1,72.4 28.2,72.1 27.3,72.4 26.3,72.1 
			25.4,72.4 24.5,72.1 23.5,72.4 22.6,72.1 21.7,72.4 20.7,72.1 19.8,72.4 19.4,72.3 19.4,72.5 19.8,72.6 20.7,72.3 21.7,72.6 
			22.6,72.3 23.5,72.6 24.5,72.3 25.4,72.6 26.3,72.3 27.3,72.6 28.2,72.3 29.1,72.6 30.1,72.3 31,72.6 31.3,72.5 31.3,72.3 		"/>
		<polygon clip-path="url(#SVGID_2_)" fill="#9E7E64" points="31,73.3 30.1,73 29.1,73.3 28.2,73 27.3,73.3 26.3,73 25.4,73.3 
			24.5,73 23.5,73.3 22.6,73 21.7,73.3 20.7,73 19.8,73.3 19.4,73.2 19.4,73.3 19.8,73.5 20.7,73.1 21.7,73.5 22.6,73.1 23.5,73.5 
			24.5,73.1 25.4,73.5 26.3,73.1 27.3,73.5 28.2,73.1 29.1,73.5 30.1,73.1 31,73.5 31.3,73.3 31.3,73.2 		"/>
		<polygon clip-path="url(#SVGID_2_)" fill="#9E7E64" points="31,72 30.1,71.6 29.1,72 28.2,71.6 27.3,72 26.3,71.6 25.4,72 
			24.5,71.6 23.5,72 22.6,71.6 21.7,72 20.7,71.6 19.8,72 19.4,71.8 19.4,72 19.8,72.1 20.7,71.8 21.7,72.1 22.6,71.8 23.5,72.1 
			24.5,71.8 25.4,72.1 26.3,71.8 27.3,72.1 28.2,71.8 29.1,72.1 30.1,71.8 31,72.1 31.3,72 31.3,71.9 		"/>
		<polygon clip-path="url(#SVGID_2_)" fill="#9E7E64" points="31.3,74.7 31.3,74.5 31,74.6 30.1,74.3 29.1,74.6 28.2,74.3 
			27.3,74.6 26.3,74.3 25.4,74.6 24.5,74.3 23.5,74.6 22.6,74.3 21.7,74.6 20.7,74.3 19.8,74.6 19.4,74.5 19.4,74.7 19.8,74.8 
			20.7,74.5 21.7,74.8 22.6,74.5 23.5,74.8 24.5,74.5 25.4,74.8 26.3,74.5 27.3,74.8 28.2,74.5 29.1,74.8 30.1,74.5 31,74.8 		"/>
		<polygon clip-path="url(#SVGID_2_)" fill="#9E7E64" points="31,74.2 30.1,73.9 29.1,74.2 28.2,73.9 27.3,74.2 26.3,73.9 
			25.4,74.2 24.5,73.9 23.5,74.2 22.6,73.9 21.7,74.2 20.7,73.9 19.8,74.2 19.4,74.1 19.4,74.2 19.8,74.3 20.7,74 21.7,74.3 
			22.6,74 23.5,74.3 24.5,74 25.4,74.3 26.3,74 27.3,74.3 28.2,74 29.1,74.3 30.1,74 31,74.3 31.3,74.2 31.3,74.1 		"/>
		<polygon clip-path="url(#SVGID_2_)" fill="#9E7E64" points="31,73.7 30.1,73.4 29.1,73.7 28.2,73.4 27.3,73.7 26.3,73.4 
			25.4,73.7 24.5,73.4 23.5,73.7 22.6,73.4 21.7,73.7 20.7,73.4 19.8,73.7 19.4,73.6 19.4,73.8 19.8,73.9 20.7,73.6 21.7,73.9 
			22.6,73.6 23.5,73.9 24.5,73.6 25.4,73.9 26.3,73.6 27.3,73.9 28.2,73.6 29.1,73.9 30.1,73.6 31,73.9 31.3,73.8 31.3,73.6 		"/>
		<polygon clip-path="url(#SVGID_2_)" fill="#9E7E64" points="31,68.4 30.1,68.1 29.1,68.4 28.2,68.1 27.3,68.4 26.3,68.1 
			25.4,68.4 24.5,68.1 23.5,68.4 22.6,68.1 21.7,68.4 20.7,68.1 19.8,68.4 19.4,68.3 19.4,68.5 19.8,68.6 20.7,68.3 21.7,68.6 
			22.6,68.3 23.5,68.6 24.5,68.3 25.4,68.6 26.3,68.3 27.3,68.6 28.2,68.3 29.1,68.6 30.1,68.3 31,68.6 31.3,68.5 31.3,68.3 		"/>
		<polygon clip-path="url(#SVGID_2_)" fill="#9E7E64" points="31,69.7 30.1,69.4 29.1,69.7 28.2,69.4 27.3,69.7 26.3,69.4 
			25.4,69.7 24.5,69.4 23.5,69.7 22.6,69.4 21.7,69.7 20.7,69.4 19.8,69.7 19.4,69.6 19.4,69.8 19.8,69.9 20.7,69.6 21.7,69.9 
			22.6,69.6 23.5,69.9 24.5,69.6 25.4,69.9 26.3,69.6 27.3,69.9 28.2,69.6 29.1,69.9 30.1,69.6 31,69.9 31.3,69.8 31.3,69.6 		"/>
		<polygon clip-path="url(#SVGID_2_)" fill="#9E7E64" points="31,69.3 30.1,69 29.1,69.3 28.2,69 27.3,69.3 26.3,69 25.4,69.3 
			24.5,69 23.5,69.3 22.6,69 21.7,69.3 20.7,69 19.8,69.3 19.4,69.2 19.4,69.4 19.8,69.5 20.7,69.2 21.7,69.5 22.6,69.2 23.5,69.5 
			24.5,69.2 25.4,69.5 26.3,69.2 27.3,69.5 28.2,69.2 29.1,69.5 30.1,69.2 31,69.5 31.3,69.4 31.3,69.2 		"/>
		<polygon clip-path="url(#SVGID_2_)" fill="#9E7E64" points="31,68.9 30.1,68.5 29.1,68.9 28.2,68.5 27.3,68.9 26.3,68.5 
			25.4,68.9 24.5,68.5 23.5,68.9 22.6,68.5 21.7,68.9 20.7,68.5 19.8,68.9 19.4,68.7 19.4,68.9 19.8,69 20.7,68.7 21.7,69 
			22.6,68.7 23.5,69 24.5,68.7 25.4,69 26.3,68.7 27.3,69 28.2,68.7 29.1,69 30.1,68.7 31,69 31.3,68.9 31.3,68.8 		"/>
		<polygon clip-path="url(#SVGID_2_)" fill="#9E7E64" points="31,71.1 30.1,70.8 29.1,71.1 28.2,70.8 27.3,71.1 26.3,70.8 
			25.4,71.1 24.5,70.8 23.5,71.1 22.6,70.8 21.7,71.1 20.7,70.8 19.8,71.1 19.4,71 19.4,71.1 19.8,71.2 20.7,70.9 21.7,71.2 
			22.6,70.9 23.5,71.2 24.5,70.9 25.4,71.2 26.3,70.9 27.3,71.2 28.2,70.9 29.1,71.2 30.1,70.9 31,71.2 31.3,71.1 31.3,71 		"/>
		<polygon clip-path="url(#SVGID_2_)" fill="#9E7E64" points="31,71.5 30.1,71.2 29.1,71.5 28.2,71.2 27.3,71.5 26.3,71.2 
			25.4,71.5 24.5,71.2 23.5,71.5 22.6,71.2 21.7,71.5 20.7,71.2 19.8,71.5 19.4,71.4 19.4,71.6 19.8,71.7 20.7,71.4 21.7,71.7 
			22.6,71.4 23.5,71.7 24.5,71.4 25.4,71.7 26.3,71.4 27.3,71.7 28.2,71.4 29.1,71.7 30.1,71.4 31,71.7 31.3,71.6 31.3,71.4 		"/>
		<polygon clip-path="url(#SVGID_2_)" fill="#9E7E64" points="31,70.6 30.1,70.3 29.1,70.6 28.2,70.3 27.3,70.6 26.3,70.3 
			25.4,70.6 24.5,70.3 23.5,70.6 22.6,70.3 21.7,70.6 20.7,70.3 19.8,70.6 19.4,70.5 19.4,70.7 19.8,70.8 20.7,70.5 21.7,70.8 
			22.6,70.5 23.5,70.8 24.5,70.5 25.4,70.8 26.3,70.5 27.3,70.8 28.2,70.5 29.1,70.8 30.1,70.5 31,70.8 31.3,70.7 31.3,70.5 		"/>
		<polygon clip-path="url(#SVGID_2_)" fill="#9E7E64" points="31,70.2 30.1,69.9 29.1,70.2 28.2,69.9 27.3,70.2 26.3,69.9 
			25.4,70.2 24.5,69.9 23.5,70.2 22.6,69.9 21.7,70.2 20.7,69.9 19.8,70.2 19.4,70.1 19.4,70.2 19.8,70.4 20.7,70 21.7,70.4 
			22.6,70 23.5,70.4 24.5,70 25.4,70.4 26.3,70 27.3,70.4 28.2,70 29.1,70.4 30.1,70 31,70.4 31.3,70.2 31.3,70.1 		"/>
	</g>
</g>
<line fill="none" stroke="#D3D2D2" stroke-width="0.224" stroke-miterlimit="10" x1="18.1" y1="55" x2="20.6" y2="61.5"/>
<line fill="none" stroke="#D3D2D2" stroke-width="0.224" stroke-miterlimit="10" x1="19.6" y1="55" x2="21.1" y2="61.5"/>
<line fill="none" stroke="#D3D2D2" stroke-width="0.224" stroke-miterlimit="10" x1="21.1" y1="61.5" x2="20.2" y2="67.6"/>
<line fill="none" stroke="#D3D2D2" stroke-width="0.224" stroke-miterlimit="10" x1="20.6" y1="61.5" x2="19.7" y2="67.6"/>
<line fill="none" stroke="#D3D2D2" stroke-width="0.224" stroke-miterlimit="10" x1="32.8" y1="55" x2="30.3" y2="61.5"/>
<line fill="none" stroke="#D3D2D2" stroke-width="0.224" stroke-miterlimit="10" x1="31.4" y1="55" x2="29.8" y2="61.5"/>
<line fill="none" stroke="#D3D2D2" stroke-width="0.224" stroke-miterlimit="10" x1="29.8" y1="61.5" x2="30.8" y2="67.6"/>
<line fill="none" stroke="#D3D2D2" stroke-width="0.224" stroke-miterlimit="10" x1="30.3" y1="61.5" x2="31.3" y2="67.6"/>
<path fill="#DDBF9A" d="M31.3,67.8v7.3c0,0.3-0.2,0.5-0.5,0.5H19.9c-0.3,0-0.5-0.2-0.5-0.5v-7.3H31.3z"/>
<g>
	<g>
		<defs>
			<rect id="SVGID_3_" x="19.5" y="67.8" width="1.7" height="7.8"/>
		</defs>
		<clipPath id="SVGID_4_">
			<use xlink:href="#SVGID_3_"  overflow="visible"/>
		</clipPath>
		<path clip-path="url(#SVGID_4_)" fill="#DDBF9A" d="M20.7,75.1v-7.3h-1.2v7.3c0,0.3,0.2,0.5,0.5,0.5h1.2
			C20.9,75.6,20.7,75.4,20.7,75.1"/>
	</g>
</g>
<path fill="#636B62" d="M31.8,67.6c0,0.1-0.1,0.2-0.2,0.2H19.2c-0.1,0-0.2-0.1-0.2-0.2c0-0.1,0.1-0.2,0.2-0.2h12.3
	C31.7,67.3,31.8,67.4,31.8,67.6"/>
<rect x="20.2" y="61.1" fill="#D3D2D2" width="10.4" height="0.7"/>
<polygon fill="#D3D2D2" points="22.6,59.2 22.8,61.1 24.9,61.1 25.1,59.2 "/>
<polygon fill="#D3D2D2" points="25.5,59.2 25.8,61.1 27.9,61.1 28.1,59.2 "/>
<polygon fill="#A7A5A6" points="22.6,59.2 22.8,61.1 23.1,61.1 22.9,59.2 "/>
<polygon fill="#A7A5A6" points="25.5,59.2 25.8,61.1 26.1,61.1 25.8,59.2 "/>
<rect x="22.9" y="61.8" fill="#444142" width="2.1" height="1.4"/>
<rect x="23" y="61.8" fill="#444142" width="1.8" height="1.4"/>
<g>
	<g>
		<defs>
			<rect id="SVGID_5_" x="23.3" y="61.8" width="1" height="1.4"/>
		</defs>
		<clipPath id="SVGID_6_">
			<use xlink:href="#SVGID_5_"  overflow="visible"/>
		</clipPath>
		<rect x="23.3" y="61.8" clip-path="url(#SVGID_6_)" fill="#444142" width="1" height="1.4"/>
	</g>
</g>
<g>
	<g>
		<defs>
			<rect id="SVGID_7_" x="23.6" y="61.8" width="0.3" height="1.4"/>
		</defs>
		<clipPath id="SVGID_8_">
			<use xlink:href="#SVGID_7_"  overflow="visible"/>
		</clipPath>
		<rect x="23.6" y="61.8" clip-path="url(#SVGID_8_)" fill="#444142" width="0.4" height="1.4"/>
	</g>
</g>
<rect x="25.8" y="61.8" fill="#444142" width="2.1" height="1.4"/>
<rect x="25.9" y="61.8" fill="#444142" width="1.9" height="1.4"/>
<g>
	<g>
		<defs>
			<rect id="SVGID_9_" x="26.3" y="61.8" width="1" height="1.4"/>
		</defs>
		<clipPath id="SVGID_10_">
			<use xlink:href="#SVGID_9_"  overflow="visible"/>
		</clipPath>
		<rect x="26.3" y="61.8" clip-path="url(#SVGID_10_)" fill="#444142" width="1" height="1.4"/>
	</g>
</g>
<g>
	<g>
		<defs>
			<rect id="SVGID_11_" x="26.5" y="61.8" width="0.3" height="1.4"/>
		</defs>
		<clipPath id="SVGID_12_">
			<use xlink:href="#SVGID_11_"  overflow="visible"/>
		</clipPath>
		<rect x="26.5" y="61.8" clip-path="url(#SVGID_12_)" fill="#444142" width="0.4" height="1.4"/>
	</g>
</g>
<path fill="#A82526" d="M18.3,53.3c-0.8-1.4-1.6-2.8-2.4-4.2c-2.4-4.3-4.8-8.8-6.9-13.4c-2.7-5.7-5.9-12.3-4.6-19
	C6,8.3,11.7,2.6,18.6,0.8C20.7,0.3,22.9,0,25.1,0h0c-2.6,0-5.2,0.3-7.8,0.8C9,2.6,2.2,8.3,0.3,16.7c-1.5,6.7,2.3,13.3,5.5,19
	c2.5,4.6,5.3,9,8.2,13.4c1,1.4,1.9,2.8,2.9,4.2c0.2,0.3,0.7,1.3,1.1,1.3h1.2C18.9,54.7,18.5,53.6,18.3,53.3"/>
<g>
	<g>
		<defs>
			<rect id="SVGID_13_" x="3.3" y="0" width="21.7" height="54.7"/>
		</defs>
		<clipPath id="SVGID_14_">
			<use xlink:href="#SVGID_13_"  overflow="visible"/>
		</clipPath>
		<path clip-path="url(#SVGID_14_)" fill="#A82526" d="M18.6,0.8C20.7,0.3,22.9,0,25.1,0h0c-1.4,0-2.8,0.1-4.2,0.2
			c-1,0.1-2,0.3-3,0.6C10.9,2.6,5.2,8.3,3.6,16.7c-1.3,6.7,1.9,13.3,4.6,19c2.1,4.6,4.5,9,6.9,13.4c0.8,1.4,1.6,2.8,2.4,4.2
			c0.2,0.3,0.6,1.3,0.9,1.3h0.7c-0.3,0-0.7-1.1-0.9-1.3c-0.8-1.4-1.6-2.8-2.4-4.2c-2.4-4.3-4.8-8.8-6.9-13.4
			c-2.7-5.7-5.9-12.3-4.6-19C6,8.3,11.7,2.6,18.6,0.8"/>
	</g>
</g>
<path fill="#C26767" d="M17.4,53.3c-0.8-1.4-1.6-2.8-2.4-4.2c-0.1-0.2-0.2-0.3-0.3-0.5c-2.8-4.2-5.5-8.5-7.9-12.9
	c-3.2-5.7-7-12.3-5.5-19C3,9.5,8.2,4.3,14.8,1.8c1-0.4,1.9-0.8,3-1.1c0.3-0.1,0.6-0.1,0.9-0.2c-0.3,0.1-0.7,0.1-1,0.2
	C9.3,2.6,2.5,8.3,0.6,16.7c-1.5,6.7,2.3,13.3,5.5,19c2.5,4.6,5.3,9,8.2,13.4c1,1.4,1.9,2.8,2.9,4.2c0.2,0.3,0.7,1.3,1.1,1.3h0
	C18,54.7,17.6,53.6,17.4,53.3"/>
<path fill="#A82526" d="M50.6,16.7C48.7,8.3,41.9,2.6,33.7,0.8C31.1,0.3,28.5,0,25.9,0h0c2.2,0,4.4,0.3,6.5,0.8
	C39.3,2.6,45,8.3,46.6,16.7c1.3,6.7-1.9,13.3-4.6,19c-2.1,4.6-4.5,9-6.9,13.4c-0.8,1.4-1.6,2.8-2.4,4.2c-0.2,0.3-0.6,1.3-0.9,1.3
	h1.2c0.4,0,0.9-1.1,1.1-1.3c1-1.4,1.9-2.8,2.9-4.2c2.9-4.3,5.7-8.8,8.2-13.4C48.3,30,52.1,23.5,50.6,16.7"/>
<path fill="#ECC57C" d="M20.1,53.3c-0.6-1.4-1.2-2.8-1.8-4.2c-1.8-4.3-3.6-8.8-5.2-13.4c-2-5.7-4.4-12.3-3.4-19
	c1.2-8.4,5.5-14.1,10.7-15.9C21.9,0.3,23.5,0,25.1,0c0,0,0,0,0,0c-2.2,0-4.4,0.3-6.5,0.8C11.7,2.6,6,8.3,4.4,16.7
	C3.1,23.5,6.3,30,9,35.7c2.1,4.6,4.5,9,6.9,13.4c0.8,1.4,1.6,2.8,2.4,4.2c0.2,0.3,0.6,1.3,0.9,1.3h1.6
	C20.5,54.7,20.2,53.6,20.1,53.3"/>
<g>
	<g>
		<defs>
			<rect id="SVGID_15_" x="8.9" y="0" width="16.2" height="54.7"/>
		</defs>
		<clipPath id="SVGID_16_">
			<use xlink:href="#SVGID_15_"  overflow="visible"/>
		</clipPath>
		<path clip-path="url(#SVGID_16_)" fill="#ECC57C" d="M20.3,0.8C21.9,0.3,23.5,0,25.1,0c0,0,0,0,0,0c-0.6,0-1.2,0-1.8,0.1
			c-1.2,0.1-2.4,0.3-3.5,0.8c-5.2,1.8-9.5,7.5-10.7,15.9c-1,6.7,1.5,13.3,3.5,19c1.6,4.6,3.4,9,5.2,13.4c0.6,1.4,1.2,2.8,1.8,4.2
			c0.1,0.3,0.4,1.3,0.7,1.3h0.5c-0.3,0-0.6-1.1-0.7-1.3c-0.6-1.4-1.2-2.8-1.8-4.2c-1.8-4.3-3.6-8.8-5.2-13.4c-2-5.7-4.4-12.3-3.4-19
			C10.8,8.3,15.1,2.6,20.3,0.8"/>
	</g>
</g>
<path fill="#F2D6A3" d="M19.7,53.3c-0.8-1.4-1.6-2.8-2.4-4.2c-2.4-4.3-4.8-8.8-6.9-13.4c-2.7-5.7-5.9-12.3-4.6-19
	C7.3,8.3,13.1,2.6,20,0.8c1.3-0.3,2.6-0.6,3.9-0.7c-1.6,0.1-3.3,0.3-4.9,0.8C12.1,2.6,6.4,8.3,4.8,16.7c-1.3,6.7,1.9,13.3,4.6,19
	c2.1,4.6,4.5,9,6.9,13.4c0.8,1.4,1.6,2.8,2.4,4.2c0.2,0.3,0.6,1.3,0.9,1.3h1.6c0,0-0.1,0-0.1-0.1h-0.5
	C20.3,54.6,19.9,53.6,19.7,53.3"/>
<path fill="#ECC57C" d="M32.6,53.3c0.8-1.4,1.6-2.8,2.4-4.2c2.4-4.3,4.8-8.8,6.9-13.4c2.7-5.7,5.9-12.3,4.6-19
	C45,8.3,39.3,2.6,32.4,0.8C30.2,0.3,28.1,0,25.9,0c0,0,0,0,0,0c1.6,0,3.2,0.3,4.8,0.8c5.2,1.8,9.5,7.5,10.7,15.9
	c1,6.7-1.5,13.3-3.5,19c-1.6,4.6-3.4,9-5.2,13.4c-0.6,1.4-1.2,2.8-1.8,4.2c-0.1,0.3-0.4,1.3-0.7,1.3h1.6
	C32.1,54.7,32.5,53.6,32.6,53.3"/>
<path fill="#A82526" d="M30.9,53.3c0.6-1.4,1.2-2.8,1.8-4.2c1.8-4.3,3.6-8.8,5.2-13.4c2-5.7,4.4-12.3,3.5-19
	C40.1,8.3,35.8,2.6,30.7,0.8C29.1,0.3,27.5,0,25.9,0c0,0,0,0,0,0c1,0.1,2,0.3,2.9,0.8c3.4,1.8,6.1,7.5,6.9,15.9
	c0.6,6.7-0.9,13.3-2.2,19c-1,4.6-2.2,9-3.4,13.4c-0.4,1.4-0.8,2.8-1.2,4.2c-0.1,0.3-0.3,1.3-0.4,1.3h1.7
	C30.4,54.7,30.7,53.6,30.9,53.3"/>
<path fill="#A82526" d="M22,53.3c-0.4-1.4-0.8-2.8-1.2-4.2c-1.2-4.3-2.3-8.8-3.4-13.4c-1.3-5.7-2.9-12.3-2.2-19
	C16,8.3,18.8,2.6,22.1,0.8c1-0.5,1.9-0.8,2.9-0.8c0,0,0,0,0,0c-1.6,0-3.2,0.3-4.8,0.8c-5.2,1.8-9.5,7.5-10.7,15.9
	c-1,6.7,1.4,13.3,3.5,19c1.6,4.6,3.4,9,5.2,13.4c0.6,1.4,1.2,2.8,1.8,4.2c0.1,0.3,0.4,1.3,0.7,1.3h1.6C22.3,54.7,22.1,53.6,22,53.3"
	/>
<g>
	<g>
		<defs>
			<rect id="SVGID_17_" x="14.7" y="0" width="10.4" height="54.7"/>
		</defs>
		<clipPath id="SVGID_18_">
			<use xlink:href="#SVGID_17_"  overflow="visible"/>
		</clipPath>
		<path clip-path="url(#SVGID_18_)" fill="#A82526" d="M22.1,0.8c1-0.5,1.9-0.8,2.9-0.8c0,0,0,0,0,0c-0.3,0-0.5,0-0.8,0
			c-0.8,0.1-1.7,0.3-2.5,0.8c-3.4,1.8-6.1,7.5-6.9,15.9c-0.6,6.7,0.9,13.3,2.2,19c1,4.6,2.2,9,3.4,13.4c0.4,1.4,0.8,2.8,1.2,4.2
			c0.1,0.3,0.3,1.3,0.4,1.3h0.4c-0.2,0-0.4-1.1-0.4-1.3c-0.4-1.4-0.8-2.8-1.2-4.2c-1.2-4.3-2.3-8.8-3.4-13.4
			c-1.3-5.7-2.9-12.3-2.2-19C16,8.3,18.8,2.6,22.1,0.8"/>
	</g>
</g>
<path fill="#B95151" d="M21.6,53.3c-0.1-0.5-0.3-0.9-0.4-1.4c-0.4-1-0.8-1.9-1.2-2.9c-1.8-4.3-3.6-8.8-5.2-13.4
	c-2-5.7-4.4-12.3-3.5-19c1.1-7.9,5-13.5,9.9-15.6c0.2-0.1,0.3-0.2,0.5-0.3c0.5-0.3,1.1-0.5,1.6-0.6c-0.8,0.1-1.7,0.3-2.5,0.6
	c-5.2,1.8-9.5,7.5-10.7,15.9c-1,6.7,1.5,13.3,3.5,19c1.6,4.6,3.4,9,5.2,13.4c0.6,1.4,1.2,2.8,1.8,4.2c0.1,0.3,0.4,1.3,0.7,1.3H22
	C21.9,54.7,21.7,53.6,21.6,53.3"/>
<path fill="#ECC57C" d="M29,53.3c0.4-1.4,0.8-2.8,1.2-4.2c1.2-4.3,2.3-8.8,3.4-13.4c1.3-5.7,2.9-12.3,2.2-19
	C35,8.3,32.2,2.6,28.8,0.8c-1-0.5-1.9-0.8-2.9-0.8c0.3,0.1,0.6,0.3,0.9,0.7c1.3,1.8,2.4,7.5,2.6,15.9c0.2,6.7-0.4,13.3-0.9,19
	c-0.4,4.6-0.8,9-1.3,13.4c-0.1,1.4-0.3,2.8-0.5,4.2c0,0.3-0.1,1.3-0.2,1.3h-1h-0.4h-1c-0.1,0-0.1-1.1-0.2-1.3
	c-0.2-1.4-0.3-2.8-0.5-4.2c-0.5-4.3-0.9-8.8-1.3-13.4c-0.5-5.7-1.1-12.3-0.9-19c0.3-8.4,1.4-14.1,2.6-15.9c0.3-0.4,0.6-0.6,0.9-0.7
	c-1,0.1-2,0.3-2.9,0.8c-3.4,1.8-6.1,7.5-6.9,15.9c-0.6,6.7,0.9,13.3,2.2,19c1,4.6,2.2,9,3.4,13.4c0.4,1.4,0.8,2.8,1.2,4.2
	c0.1,0.3,0.3,1.3,0.4,1.3h1.9h0.2h0.2H25h0.9h0.3h0.2h0.2h1.9C28.7,54.7,28.9,53.6,29,53.3"/>
<path fill="#F2D6A3" d="M24.2,54.7L24,54.6c-0.1,0-0.1-1.1-0.2-1.3c0-0.1,0-0.2,0-0.2c-0.4-1.3-0.7-2.6-1.1-3.9
	c-1.2-4.3-2.3-8.8-3.4-13.4c-1.3-5.7-2.9-12.3-2.2-19C17.8,8.6,20.5,3,23.7,1c0.1-0.1,0.1-0.2,0.2-0.2c0.2-0.2,0.3-0.4,0.5-0.5
	c-0.6,0.1-1.2,0.3-1.8,0.7c-3.4,1.8-6.1,7.5-6.9,15.9c-0.6,6.7,0.9,13.3,2.2,19c1,4.6,2.2,9,3.4,13.4c0.4,1.4,0.8,2.8,1.2,4.2
	c0.1,0.2,0.2,1,0.4,1.3H24H24.2z"/>
<path fill="#A82526" d="M25.5,0c-0.1,0-0.3,0-0.4,0h0C25.2,0,25.3,0,25.5,0"/>
<path fill="#A82526" d="M25.9,0L25.9,0c-0.1,0-0.3,0-0.4,0C25.6,0,25.8,0,25.9,0"/>
<path fill="#A82526" d="M25.1,0C25.1,0,25.1,0,25.1,0c0.1,0,0.3,0,0.4,0C25.3,0,25.2,0,25.1,0"/>
<path fill="#A82526" d="M25.9,0C25.9,0,25.9,0,25.9,0c-0.1,0-0.3,0-0.4,0C25.6,0,25.8,0,25.9,0"/>
<path fill="#A82526" d="M25.1,0C25.1,0,25.1,0,25.1,0c0.1,0,0.3,0,0.4,0C25.3,0,25.2,0,25.1,0"/>
<path fill="#A82526" d="M25.9,0C25.9,0,25.9,0,25.9,0c-0.1,0-0.3,0-0.4,0C25.6,0,25.8,0,25.9,0"/>
<path fill="#A82526" d="M25.1,0c-0.3,0.1-0.6,0.3-0.9,0.7c-1.3,1.8-2.4,7.5-2.6,15.9c-0.2,6.7,0.4,13.3,0.9,19
	c0.4,4.6,0.8,9,1.3,13.4c0.1,1.4,0.3,2.8,0.5,4.2c0,0.3,0.1,1.3,0.2,1.3h1h0.4h1c0.1,0,0.1-1.1,0.2-1.3c0.2-1.4,0.3-2.8,0.5-4.2
	c0.5-4.3,0.9-8.8,1.3-13.4c0.5-5.7,1.1-12.3,0.9-19c-0.3-8.4-1.4-14.1-2.6-15.9c-0.3-0.4-0.6-0.6-0.9-0.7c-0.1,0-0.3,0-0.4,0
	S25.2,0,25.1,0"/>
<path fill="#B95151" d="M24.7,49c-0.5-4.3-0.9-8.8-1.3-13.4c-0.5-5.7-1.1-12.3-0.9-19c0.3-8.4,1.4-14.1,2.6-15.9
	c0.2-0.3,0.4-0.5,0.6-0.6c-0.1-0.1-0.2-0.1-0.2-0.1c-0.3,0.1-0.5,0.3-0.8,0.7c-1.3,1.8-2.4,7.5-2.6,15.9c-0.2,6.7,0.4,13.3,0.9,19
	c0.4,4.6,0.8,9,1.3,13.4c0.1,1.4,0.3,2.8,0.5,4.2c0,0.3,0.1,1.3,0.2,1.3h0h0.4h0.1c-0.1,0-0.1-1.1-0.2-1.3
	C25,51.9,24.8,50.4,24.7,49"/>
<g>
	<g>
		<defs>
			<rect id="SVGID_19_" x="25.8" y="0" width="3.7" height="54.6"/>
		</defs>
		<clipPath id="SVGID_20_">
			<use xlink:href="#SVGID_19_"  overflow="visible"/>
		</clipPath>
		<path clip-path="url(#SVGID_20_)" fill="#B95151" d="M26.8,49c0.5-4.3,0.9-8.8,1.3-13.4c0.5-5.7,1.1-12.3,0.9-19
			c-0.3-8.4-1.4-14.1-2.6-15.9c-0.2-0.3-0.4-0.5-0.6-0.6C25.8,0.1,25.9,0.1,26,0c0.3,0.1,0.5,0.3,0.8,0.7c1.3,1.8,2.4,7.5,2.6,15.9
			c0.2,6.7-0.4,13.3-0.9,19c-0.4,4.6-0.8,9-1.3,13.4c-0.1,1.4-0.3,2.8-0.5,4.2c0,0.3-0.1,1.3-0.2,1.3h0h-0.4h-0.1
			c0.1,0,0.1-1.1,0.2-1.3C26.5,51.9,26.7,50.4,26.8,49"/>
	</g>
</g>
<path fill="#A82526" d="M33.3,54.9c0,0.2-0.2,0.4-0.4,0.4H18.1c-0.2,0-0.4-0.2-0.4-0.4s0.2-0.4,0.4-0.4h14.8
	C33.1,54.5,33.3,54.7,33.3,54.9"/>
<path fill="#AF3637" d="M32.4,54.9c0,0.2-0.2,0.4-0.4,0.4H19c-0.2,0-0.4-0.2-0.4-0.4s0.2-0.4,0.4-0.4h13
	C32.2,54.5,32.4,54.7,32.4,54.9"/>
<path fill="#BE5C5C" d="M28.9,54.9c0,0.2-0.1,0.4-0.3,0.4h-8.5c-0.1,0-0.3-0.2-0.3-0.4s0.1-0.4,0.3-0.4h8.5
	C28.8,54.5,28.9,54.7,28.9,54.9"/>
<path fill="#D39293" d="M25.2,54.9c0,0.2,0,0.4-0.1,0.4h-3.6c-0.1,0-0.1-0.2-0.1-0.4s0-0.4,0.1-0.4h3.6
	C25.2,54.5,25.2,54.7,25.2,54.9"/>
<g>
	<g>
		<defs>
			<rect id="SVGID_21_" x="17.6" y="54.5" width="15.7" height="0.5"/>
		</defs>
		<clipPath id="SVGID_22_">
			<use xlink:href="#SVGID_21_"  overflow="visible"/>
		</clipPath>
		<path clip-path="url(#SVGID_22_)" fill="#A82526" d="M18.1,54.7h14.8c0.2,0,0.4,0.2,0.4,0.4c0,0,0-0.1,0-0.1
			c0-0.2-0.2-0.4-0.4-0.4H18.1c-0.2,0-0.4,0.2-0.4,0.4c0,0,0,0.1,0,0.1C17.7,54.8,17.9,54.7,18.1,54.7"/>
	</g>
</g>
<polygon fill="#9E7E64" points="31,72.9 30.1,72.6 29.1,72.9 28.2,72.6 27.3,72.9 26.3,72.6 25.4,72.9 24.5,72.6 23.5,72.9 
	22.6,72.6 21.7,72.9 20.7,72.6 19.8,72.9 19.4,72.8 19.4,72.9 19.8,73.1 20.7,72.7 21.7,73.1 22.6,72.7 23.5,73.1 24.5,72.7 
	25.4,73.1 26.3,72.7 27.3,73.1 28.2,72.7 29.1,73.1 30.1,72.7 31,73.1 31.3,72.9 31.3,72.8 "/>
<polygon fill="#9E7E64" points="31,72.4 30.1,72.1 29.1,72.4 28.2,72.1 27.3,72.4 26.3,72.1 25.4,72.4 24.5,72.1 23.5,72.4 
	22.6,72.1 21.7,72.4 20.7,72.1 19.8,72.4 19.4,72.3 19.4,72.5 19.8,72.6 20.7,72.3 21.7,72.6 22.6,72.3 23.5,72.6 24.5,72.3 
	25.4,72.6 26.3,72.3 27.3,72.6 28.2,72.3 29.1,72.6 30.1,72.3 31,72.6 31.3,72.5 31.3,72.3 "/>
<polygon fill="#9E7E64" points="31,73.3 30.1,73 29.1,73.3 28.2,73 27.3,73.3 26.3,73 25.4,73.3 24.5,73 23.5,73.3 22.6,73 
	21.7,73.3 20.7,73 19.8,73.3 19.4,73.2 19.4,73.4 19.8,73.5 20.7,73.2 21.7,73.5 22.6,73.2 23.5,73.5 24.5,73.2 25.4,73.5 
	26.3,73.2 27.3,73.5 28.2,73.2 29.1,73.5 30.1,73.2 31,73.5 31.3,73.4 31.3,73.2 "/>
<polygon fill="#9E7E64" points="31,72 30.1,71.7 29.1,72 28.2,71.7 27.3,72 26.3,71.7 25.4,72 24.5,71.7 23.5,72 22.6,71.7 21.7,72 
	20.7,71.7 19.8,72 19.4,71.9 19.4,72.1 19.8,72.2 20.7,71.9 21.7,72.2 22.6,71.9 23.5,72.2 24.5,71.9 25.4,72.2 26.3,71.9 
	27.3,72.2 28.2,71.9 29.1,72.2 30.1,71.9 31,72.2 31.3,72.1 31.3,71.9 "/>
<polygon fill="#9E7E64" points="31.3,74.7 31.3,74.5 31,74.7 30.1,74.3 29.1,74.7 28.2,74.3 27.3,74.7 26.3,74.3 25.4,74.7 
	24.5,74.3 23.5,74.7 22.6,74.3 21.7,74.7 20.7,74.3 19.8,74.7 19.4,74.5 19.4,74.7 19.8,74.8 20.7,74.5 21.7,74.8 22.6,74.5 
	23.5,74.8 24.5,74.5 25.4,74.8 26.3,74.5 27.3,74.8 28.2,74.5 29.1,74.8 30.1,74.5 31,74.8 "/>
<polygon fill="#9E7E64" points="31,74.2 30.1,73.9 29.1,74.2 28.2,73.9 27.3,74.2 26.3,73.9 25.4,74.2 24.5,73.9 23.5,74.2 
	22.6,73.9 21.7,74.2 20.7,73.9 19.8,74.2 19.4,74.1 19.4,74.3 19.8,74.4 20.7,74.1 21.7,74.4 22.6,74.1 23.5,74.4 24.5,74.1 
	25.4,74.4 26.3,74.1 27.3,74.4 28.2,74.1 29.1,74.4 30.1,74.1 31,74.4 31.3,74.3 31.3,74.1 "/>
<polygon fill="#9E7E64" points="31,73.8 30.1,73.5 29.1,73.8 28.2,73.5 27.3,73.8 26.3,73.5 25.4,73.8 24.5,73.5 23.5,73.8 
	22.6,73.5 21.7,73.8 20.7,73.5 19.8,73.8 19.4,73.7 19.4,73.8 19.8,73.9 20.7,73.6 21.7,73.9 22.6,73.6 23.5,73.9 24.5,73.6 
	25.4,73.9 26.3,73.6 27.3,73.9 28.2,73.6 29.1,73.9 30.1,73.6 31,73.9 31.3,73.8 31.3,73.7 "/>
<polygon fill="#9E7E64" points="31,68.5 30.1,68.1 29.1,68.5 28.2,68.1 27.3,68.5 26.3,68.1 25.4,68.5 24.5,68.1 23.5,68.5 
	22.6,68.1 21.7,68.5 20.7,68.1 19.8,68.5 19.4,68.3 19.4,68.5 19.8,68.6 20.7,68.3 21.7,68.6 22.6,68.3 23.5,68.6 24.5,68.3 
	25.4,68.6 26.3,68.3 27.3,68.6 28.2,68.3 29.1,68.6 30.1,68.3 31,68.6 31.3,68.5 31.3,68.3 "/>
<polygon fill="#9E7E64" points="31,69.8 30.1,69.5 29.1,69.8 28.2,69.5 27.3,69.8 26.3,69.5 25.4,69.8 24.5,69.5 23.5,69.8 
	22.6,69.5 21.7,69.8 20.7,69.5 19.8,69.8 19.4,69.7 19.4,69.8 19.8,70 20.7,69.6 21.7,70 22.6,69.6 23.5,70 24.5,69.6 25.4,70 
	26.3,69.6 27.3,70 28.2,69.6 29.1,70 30.1,69.6 31,70 31.3,69.8 31.3,69.7 "/>
<polygon fill="#9E7E64" points="31,69.3 30.1,69 29.1,69.3 28.2,69 27.3,69.3 26.3,69 25.4,69.3 24.5,69 23.5,69.3 22.6,69 
	21.7,69.3 20.7,69 19.8,69.3 19.4,69.2 19.4,69.4 19.8,69.5 20.7,69.2 21.7,69.5 22.6,69.2 23.5,69.5 24.5,69.2 25.4,69.5 
	26.3,69.2 27.3,69.5 28.2,69.2 29.1,69.5 30.1,69.2 31,69.5 31.3,69.4 31.3,69.2 "/>
<polygon fill="#9E7E64" points="31,68.9 30.1,68.6 29.1,68.9 28.2,68.6 27.3,68.9 26.3,68.6 25.4,68.9 24.5,68.6 23.5,68.9 
	22.6,68.6 21.7,68.9 20.7,68.6 19.8,68.9 19.4,68.8 19.4,69 19.8,69.1 20.7,68.8 21.7,69.1 22.6,68.8 23.5,69.1 24.5,68.8 
	25.4,69.1 26.3,68.8 27.3,69.1 28.2,68.8 29.1,69.1 30.1,68.8 31,69.1 31.3,69 31.3,68.8 "/>
<polygon fill="#9E7E64" points="31,71.1 30.1,70.8 29.1,71.1 28.2,70.8 27.3,71.1 26.3,70.8 25.4,71.1 24.5,70.8 23.5,71.1 
	22.6,70.8 21.7,71.1 20.7,70.8 19.8,71.1 19.4,71 19.4,71.2 19.8,71.3 20.7,71 21.7,71.3 22.6,71 23.5,71.3 24.5,71 25.4,71.3 
	26.3,71 27.3,71.3 28.2,71 29.1,71.3 30.1,71 31,71.3 31.3,71.2 31.3,71 "/>
<polygon fill="#9E7E64" points="31,71.6 30.1,71.2 29.1,71.6 28.2,71.2 27.3,71.6 26.3,71.2 25.4,71.6 24.5,71.2 23.5,71.6 
	22.6,71.2 21.7,71.6 20.7,71.2 19.8,71.6 19.4,71.4 19.4,71.6 19.8,71.7 20.7,71.4 21.7,71.7 22.6,71.4 23.5,71.7 24.5,71.4 
	25.4,71.7 26.3,71.4 27.3,71.7 28.2,71.4 29.1,71.7 30.1,71.4 31,71.7 31.3,71.6 31.3,71.4 "/>
<polygon fill="#9E7E64" points="31,70.7 30.1,70.4 29.1,70.7 28.2,70.4 27.3,70.7 26.3,70.4 25.4,70.7 24.5,70.4 23.5,70.7 
	22.6,70.4 21.7,70.7 20.7,70.4 19.8,70.7 19.4,70.6 19.4,70.7 19.8,70.8 20.7,70.5 21.7,70.8 22.6,70.5 23.5,70.8 24.5,70.5 
	25.4,70.8 26.3,70.5 27.3,70.8 28.2,70.5 29.1,70.8 30.1,70.5 31,70.8 31.3,70.7 31.3,70.6 "/>
<polygon fill="#9E7E64" points="31,70.2 30.1,69.9 29.1,70.2 28.2,69.9 27.3,70.2 26.3,69.9 25.4,70.2 24.5,69.9 23.5,70.2 
	22.6,69.9 21.7,70.2 20.7,69.9 19.8,70.2 19.4,70.1 19.4,70.3 19.8,70.4 20.7,70.1 21.7,70.4 22.6,70.1 23.5,70.4 24.5,70.1 
	25.4,70.4 26.3,70.1 27.3,70.4 28.2,70.1 29.1,70.4 30.1,70.1 31,70.4 31.3,70.3 31.3,70.1 "/>
<g opacity="0.5">
	<g>
		<defs>
			<rect id="SVGID_23_" x="20.1" y="75.2" width="10.7" height="0.3"/>
		</defs>
		<clipPath id="SVGID_24_">
			<use xlink:href="#SVGID_23_"  overflow="visible"/>
		</clipPath>
		<path clip-path="url(#SVGID_24_)" fill="#9E7E64" d="M20.1,75.5c0.9-0.1,1.8-0.2,2.7-0.2c0.9,0,1.8,0,2.7-0.1c0.9,0,1.8,0,2.7,0.1
			c0.9,0,1.8,0.1,2.7,0.2v0C27.2,75.6,23.6,75.6,20.1,75.5L20.1,75.5z"/>
	</g>
</g>
</svg>
