<?xml version="1.0" encoding="utf-8"?>
<!-- Generator: Adobe Illustrator 15.0.2, SVG Export Plug-In . SVG Version: 6.00 Build 0)  -->
<!DOCTYPE svg PUBLIC "-//W3C//DTD SVG 1.1//EN" "http://www.w3.org/Graphics/SVG/1.1/DTD/svg11.dtd">
<svg version="1.1" id="Layer_1" xmlns="http://www.w3.org/2000/svg" xmlns:xlink="http://www.w3.org/1999/xlink" x="0px" y="0px"
	 width="63.8px" height="62.7px" viewBox="0 0 63.8 62.7" enable-background="new 0 0 63.8 62.7" xml:space="preserve">
<path fill="#D2B48C" d="M53.6,1.5c-1.8-1.8-4.7-1.8-6.5-0.1L47,1.4C42.8,4.6,38.7,8,34.8,11.6l-1.5,1.3c-0.5,0.4-1,0.9-1.5,1.3
	l-2.9,2.7c-1.9,1.8-3.8,3.7-5.7,5.5c-1.9,1.9-3.8,3.7-5.6,5.6l-2.8,2.9l-1.4,1.4L12,33.8c-3.6,3.9-7.1,7.9-10.4,12.1l0.1,0.1
	c-1.8,1.8-1.8,4.7-0.1,6.5L7.8,55l2.4,6.3c1.7,1.7,4.3,1.8,6.1,0.4l0.1,0.1c4.3-3.2,8.3-6.6,12.3-10.2l1.5-1.3
	c0.5-0.4,1-0.9,1.5-1.3l2.9-2.7c1.9-1.8,3.8-3.7,5.7-5.5c1.9-1.9,3.8-3.7,5.6-5.6l2.8-2.9l1.4-1.4l1.3-1.5
	c3.6-3.9,7.1-7.9,10.4-12.1l-0.1-0.1l0.4-0.4c1.8-1.8,1.8-4.7,0.1-6.5L56,7.8L53.6,1.5z"/>
<g>
	<g>
		<defs>
			<rect id="SVGID_1_" x="1.6" y="1.5" width="52" height="51"/>
		</defs>
		<clipPath id="SVGID_2_">
			<use xlink:href="#SVGID_1_"  overflow="visible"/>
		</clipPath>
		<polygon clip-path="url(#SVGID_2_)" fill="#D2B48C" points="1.6,52.4 8,46 14.5,39.6 27.4,26.8 40.5,14.1 47,7.8 53.6,1.5 
			53.6,1.5 1.6,52.5 		"/>
	</g>
</g>
<g>
	<g>
		<defs>
			<rect id="SVGID_3_" x="10.1" y="10.2" width="52" height="51"/>
		</defs>
		<clipPath id="SVGID_4_">
			<use xlink:href="#SVGID_3_"  overflow="visible"/>
		</clipPath>
		<polygon clip-path="url(#SVGID_4_)" fill="#D2B48C" points="62.2,10.2 55.8,16.7 49.3,23.1 36.4,35.9 23.3,48.6 16.8,54.9 
			10.2,61.2 10.1,61.2 62.1,10.2 		"/>
	</g>
</g>
<g opacity="0.3">
	<g>
		<defs>
			<rect id="SVGID_5_" x="1.8" y="1.2" width="45.6" height="44.6"/>
		</defs>
		<clipPath id="SVGID_6_">
			<use xlink:href="#SVGID_5_"  overflow="visible"/>
		</clipPath>
		<path clip-path="url(#SVGID_6_)" fill="#D2B48C" d="M1.8,45.7c1.6-2.1,3.4-4.1,5.1-6.2c1.8-2,3.5-4,5.3-5.9c1.8-2,3.7-3.8,5.5-5.8
			l5.6-5.6l5.7-5.5c2-1.8,3.9-3.6,5.9-5.4c2-1.8,4-3.5,6-5.2c2.1-1.7,4.1-3.4,6.3-5l0.1,0.1L24.7,23.7L1.9,45.8L1.8,45.7z"/>
	</g>
</g>
<g opacity="0.6">
	<g>
		<defs>
			<rect id="SVGID_7_" x="16.5" y="16.9" width="45.6" height="44.6"/>
		</defs>
		<clipPath id="SVGID_8_">
			<use xlink:href="#SVGID_7_"  overflow="visible"/>
		</clipPath>
		<path clip-path="url(#SVGID_8_)" fill="#D2B48C" d="M62,17.1c-1.6,2.1-3.4,4.1-5.1,6.2c-1.8,2-3.5,4-5.3,5.9
			c-1.8,2-3.7,3.8-5.5,5.8l-5.6,5.6L34.8,46c-2,1.8-3.9,3.6-5.9,5.4c-2,1.8-4,3.5-6,5.2c-2.1,1.7-4.1,3.4-6.3,5l-0.1-0.1l22.6-22.3
			l22.8-22.2L62,17.1z"/>
	</g>
</g>
<path fill="#D6543B" d="M62.5,2.3c1.8,1.8,1.7,4.7-0.1,6.5L8.7,61.4c-1.8,1.8-4.7,1.7-6.5-0.1l-0.9-0.9c-1.8-1.8-1.7-4.7,0.1-6.5
	L55.1,1.3c1.8-1.8,4.7-1.7,6.5,0.1L62.5,2.3z"/>
<g opacity="0.7">
	<g>
		<defs>
			<rect id="SVGID_9_" x="1.6" y="1.5" width="60.6" height="59.7"/>
		</defs>
		<clipPath id="SVGID_10_">
			<use xlink:href="#SVGID_9_"  overflow="visible"/>
		</clipPath>
		<g clip-path="url(#SVGID_10_)">
			<g>
				<defs>
					<rect id="SVGID_11_" x="9.9" y="9.9" width="52.4" height="51.3"/>
				</defs>
				<clipPath id="SVGID_12_">
					<use xlink:href="#SVGID_11_"  overflow="visible"/>
				</clipPath>
				<path clip-path="url(#SVGID_12_)" fill="#D2B48C" d="M10.2,61.2C10.2,61.2,10.2,61.2,10.2,61.2l52-50.9c0,0,0,0,0,0l-0.9-0.4
					L9.9,60.3L10.2,61.2z"/>
			</g>
		</g>
		<g clip-path="url(#SVGID_10_)">
			<g>
				<defs>
					<rect id="SVGID_13_" x="1.6" y="1.5" width="52.4" height="51.3"/>
				</defs>
				<clipPath id="SVGID_14_">
					<use xlink:href="#SVGID_13_"  overflow="visible"/>
				</clipPath>
				<path clip-path="url(#SVGID_14_)" fill="#D2B48C" d="M53.6,1.5C53.6,1.5,53.6,1.5,53.6,1.5l-52,50.9c0,0,0,0,0,0l0.9,0.4L54,2.5
					L53.6,1.5z"/>
			</g>
		</g>
	</g>
</g>
<g>
	<g>
		<defs>
			<rect id="SVGID_15_" x="9.9" y="9.9" width="51.9" height="50.9"/>
		</defs>
		<clipPath id="SVGID_16_">
			<use xlink:href="#SVGID_15_"  overflow="visible"/>
		</clipPath>
		<polygon clip-path="url(#SVGID_16_)" fill="#D2B48C" points="9.9,60.3 10,60.8 61.8,10.1 61.3,9.9 		"/>
	</g>
</g>
<g>
	<g>
		<defs>
			<rect id="SVGID_17_" x="9.9" y="9.9" width="51.9" height="50.9"/>
		</defs>
		<clipPath id="SVGID_18_">
			<use xlink:href="#SVGID_17_"  overflow="visible"/>
		</clipPath>
		<polygon clip-path="url(#SVGID_18_)" fill="#D2B48C" points="9.9,60.3 10,60.8 61.8,10.1 61.3,9.9 		"/>
	</g>
</g>
<g>
	<g>
		<defs>
			<rect id="SVGID_19_" x="2.1" y="2" width="51.9" height="50.9"/>
		</defs>
		<clipPath id="SVGID_20_">
			<use xlink:href="#SVGID_19_"  overflow="visible"/>
		</clipPath>
		<polygon clip-path="url(#SVGID_20_)" fill="#D2B48C" points="54,2.5 53.8,2 2.1,52.6 2.5,52.8 		"/>
	</g>
</g>
<g>
	<g>
		<defs>
			<rect id="SVGID_21_" x="2.1" y="2" width="51.9" height="50.9"/>
		</defs>
		<clipPath id="SVGID_22_">
			<use xlink:href="#SVGID_21_"  overflow="visible"/>
		</clipPath>
		<polygon clip-path="url(#SVGID_22_)" fill="#D2B48C" points="54,2.5 53.8,2 2.1,52.6 2.5,52.8 		"/>
	</g>
</g>
<g>
	<g>
		<defs>
			<rect id="SVGID_23_" x="0.9" y="55.4" width="1.2" height="3.3"/>
		</defs>
		<clipPath id="SVGID_24_">
			<use xlink:href="#SVGID_23_"  overflow="visible"/>
		</clipPath>
		<path clip-path="url(#SVGID_24_)" fill="#E1856C" d="M1.1,58.7c-0.3-0.2-0.3-0.6-0.3-0.9c0-0.3,0.1-0.6,0.2-0.9
			c0.1-0.3,0.2-0.6,0.4-0.9c0.1-0.3,0.4-0.5,0.6-0.7c-0.4,0.5-0.6,1-0.7,1.6c-0.1,0.3-0.2,0.6-0.3,0.9C1,58.2,0.9,58.5,1.1,58.7"/>
	</g>
</g>
<g>
	<g>
		<defs>
			<rect id="SVGID_25_" x="3.6" y="61.1" width="3.3" height="0.8"/>
		</defs>
		<clipPath id="SVGID_26_">
			<use xlink:href="#SVGID_25_"  overflow="visible"/>
		</clipPath>
		<path clip-path="url(#SVGID_26_)" fill="#E1856C" d="M3.6,61.6c0.5,0.3,1.1,0.2,1.6,0c0.5-0.2,1.1-0.4,1.7-0.5
			c-0.5,0.2-1,0.5-1.6,0.7C5,61.9,4.7,62,4.4,62C4,61.9,3.8,61.8,3.6,61.6"/>
	</g>
</g>
<g>
	<g>
		<defs>
			<rect id="SVGID_27_" x="2.5" y="60.4" width="2.4" height="0.6"/>
		</defs>
		<clipPath id="SVGID_28_">
			<use xlink:href="#SVGID_27_"  overflow="visible"/>
		</clipPath>
		<path clip-path="url(#SVGID_28_)" fill="#E1856C" d="M2.5,60.9c0.2-0.1,0.4-0.1,0.6-0.1c0.2,0,0.4,0,0.6,0c0.4,0,0.7-0.2,1.2-0.3
			c-0.2,0.1-0.3,0.3-0.5,0.4c-0.2,0.1-0.4,0.2-0.6,0.2c-0.2,0-0.4,0-0.6,0C2.9,60.9,2.7,60.9,2.5,60.9"/>
	</g>
</g>
<g>
	<g>
		<defs>
			<rect id="SVGID_29_" x="1.7" y="57.9" width="1" height="2.1"/>
		</defs>
		<clipPath id="SVGID_30_">
			<use xlink:href="#SVGID_29_"  overflow="visible"/>
		</clipPath>
		<path clip-path="url(#SVGID_30_)" fill="#E1856C" d="M1.7,60c-0.1-0.2-0.1-0.4,0-0.6c0-0.2,0.1-0.4,0.2-0.6
			c0.2-0.4,0.4-0.7,0.8-0.9c-0.2,0.3-0.4,0.7-0.6,1C2,59,1.9,59.2,1.9,59.4C1.8,59.6,1.7,59.8,1.7,60"/>
	</g>
</g>
<g>
	<g>
		<defs>
			<rect id="SVGID_31_" x="2.5" y="58.4" width="1.8" height="1.8"/>
		</defs>
		<clipPath id="SVGID_32_">
			<use xlink:href="#SVGID_31_"  overflow="visible"/>
		</clipPath>
		<path clip-path="url(#SVGID_32_)" fill="#E1856C" d="M2.5,60.2c0.2-0.4,0.5-0.7,0.8-1c0.3-0.3,0.6-0.6,1-0.8
			c-0.2,0.4-0.5,0.7-0.8,1C3.2,59.6,2.8,59.9,2.5,60.2"/>
	</g>
</g>
<g>
	<g>
		<defs>
			<rect id="SVGID_33_" x="61.8" y="4" width="1.2" height="3.3"/>
		</defs>
		<clipPath id="SVGID_34_">
			<use xlink:href="#SVGID_33_"  overflow="visible"/>
		</clipPath>
		<path clip-path="url(#SVGID_34_)" fill="#E1856C" d="M62.7,4C63,4.2,63,4.6,63,4.9c0,0.3-0.1,0.6-0.2,0.9
			c-0.1,0.3-0.2,0.6-0.3,0.8c-0.2,0.3-0.4,0.5-0.6,0.7c0.4-0.5,0.6-1,0.7-1.6c0.1-0.3,0.2-0.6,0.3-0.9C62.9,4.5,62.9,4.2,62.7,4"/>
	</g>
</g>
<g>
	<g>
		<defs>
			<rect id="SVGID_35_" x="57" y="0.8" width="3.3" height="0.8"/>
		</defs>
		<clipPath id="SVGID_36_">
			<use xlink:href="#SVGID_35_"  overflow="visible"/>
		</clipPath>
		<path clip-path="url(#SVGID_36_)" fill="#E1856C" d="M60.3,1.1c-0.5-0.3-1.1-0.2-1.6,0c-0.5,0.2-1.1,0.4-1.7,0.5
			c0.5-0.2,1-0.5,1.6-0.7c0.3-0.1,0.6-0.1,0.9-0.1C59.8,0.8,60.1,0.9,60.3,1.1"/>
	</g>
</g>
<g>
	<g>
		<defs>
			<rect id="SVGID_37_" x="59" y="1.8" width="2.4" height="0.6"/>
		</defs>
		<clipPath id="SVGID_38_">
			<use xlink:href="#SVGID_37_"  overflow="visible"/>
		</clipPath>
		<path clip-path="url(#SVGID_38_)" fill="#E1856C" d="M61.4,1.8C61.2,1.9,61,2,60.8,2c-0.2,0-0.4,0-0.6,0c-0.4,0-0.7,0.2-1.2,0.3
			c0.2-0.1,0.3-0.3,0.5-0.4c0.2-0.1,0.4-0.2,0.6-0.2c0.2,0,0.4,0,0.6,0C61,1.8,61.2,1.9,61.4,1.8"/>
	</g>
</g>
<g>
	<g>
		<defs>
			<rect id="SVGID_39_" x="61.2" y="2.8" width="1" height="2.1"/>
		</defs>
		<clipPath id="SVGID_40_">
			<use xlink:href="#SVGID_39_"  overflow="visible"/>
		</clipPath>
		<path clip-path="url(#SVGID_40_)" fill="#E1856C" d="M62.1,2.8c0.1,0.2,0.1,0.4,0,0.6c0,0.2-0.1,0.4-0.2,0.6
			c-0.2,0.4-0.4,0.7-0.8,0.9c0.2-0.3,0.4-0.7,0.6-1c0.1-0.2,0.2-0.3,0.2-0.5C62.1,3.1,62.1,3,62.1,2.8"/>
	</g>
</g>
<g>
	<g>
		<defs>
			<rect id="SVGID_41_" x="59.6" y="2.6" width="1.8" height="1.8"/>
		</defs>
		<clipPath id="SVGID_42_">
			<use xlink:href="#SVGID_41_"  overflow="visible"/>
		</clipPath>
		<path clip-path="url(#SVGID_42_)" fill="#E1856C" d="M61.4,2.6c-0.2,0.4-0.5,0.7-0.8,1c-0.3,0.3-0.6,0.6-1,0.8
			c0.2-0.4,0.5-0.7,0.8-1C60.7,3.1,61,2.8,61.4,2.6"/>
	</g>
</g>
<path fill="none" stroke="#EBD467" stroke-width="3.011" stroke-linecap="round" stroke-miterlimit="10" d="M5.8,55.6
	c2.7,0.9,5.1-1.9,6.5-3.6c1.2-1.5,1.8-2.7,2.4-4.5c0.5-1.2,0.8-2.2,1.8-3c2.1-1.7,5-1.1,7.1-2.9c1.5-1.3,3.2-2.8,4.1-4.5
	c0.9-1.6,1.8-3.2,2.8-4.7c0.8-1.3,1.9-2.4,3-3.5c1.3-1.3,2-1.6,3.7-2.2c3.5-1.3,4.6-4.6,6.5-7.5c0.8-1.2,2-2.5,3.2-3.4
	c1-0.8,2.3-0.9,3.4-1.5c1.3-0.8,3-2.4,4-3.7C55.1,9.4,55.4,8,56,6.9c0.3-0.5,0.5-1,0.8-1.4"/>
<g opacity="0.51">
	<g>
		<defs>
			<rect id="SVGID_43_" x="5.2" y="5" width="52" height="51.3"/>
		</defs>
		<clipPath id="SVGID_44_">
			<use xlink:href="#SVGID_43_"  overflow="visible"/>
		</clipPath>
		
			<path clip-path="url(#SVGID_44_)" fill="none" stroke="#EBD467" stroke-width="1.004" stroke-linecap="round" stroke-miterlimit="10" d="
			M5.7,55.7c2.7,0.9,5.1-1.9,6.5-3.6c1.2-1.5,1.8-2.7,2.4-4.5c0.5-1.2,0.8-2.2,1.8-3c2.1-1.7,5-1.1,7.1-2.9c1.5-1.3,3.2-2.8,4.1-4.5
			c0.9-1.6,1.8-3.2,2.8-4.7c0.8-1.3,1.9-2.4,3-3.5c1.3-1.3,2-1.6,3.7-2.2c3.5-1.3,4.6-4.6,6.5-7.5c0.8-1.2,2-2.5,3.2-3.4
			c1-0.8,2.3-0.9,3.4-1.5c1.3-0.8,3-2.4,4-3.7C55,9.5,55.3,8.1,55.9,7c0.3-0.5,0.5-1,0.8-1.4"/>
	</g>
</g>
<path fill="none" stroke="#B52126" stroke-width="3.011" stroke-linecap="round" stroke-miterlimit="10" d="M5.2,54.5
	C7,55,9.5,53.2,10.6,52c1.6-1.8,1-4.3,2.3-6.2c0.8-1.1,2-2.4,3.1-3.2c1.3-1,3.3-1.1,4.8-1.7c3.7-1.4,5.8-4.7,7.6-8
	c0.7-1.3,1-2.9,2-4.1c1-1.2,2.2-2.2,3.6-2.8c3.2-1.2,5.8-1.8,7.7-5c0.8-1.3,1-2.9,1.6-4.2c0.6-1.3,1.3-2.4,2.3-3.5
	c2-2.2,5.2-1.3,7.1-4c0.7-1,0.8-2.2,1.4-3.1"/>
<g opacity="0.51">
	<g>
		<defs>
			<rect id="SVGID_45_" x="4.3" y="5.2" width="49.3" height="48.9"/>
		</defs>
		<clipPath id="SVGID_46_">
			<use xlink:href="#SVGID_45_"  overflow="visible"/>
		</clipPath>
		
			<path clip-path="url(#SVGID_46_)" fill="none" stroke="#B52126" stroke-width="0.502" stroke-linecap="round" stroke-miterlimit="10" d="
			M4.5,53.8c1.8,0.5,4.3-1.3,5.5-2.5c1.6-1.8,1-4.3,2.3-6.2c0.8-1.1,2-2.4,3.1-3.2c1.3-1,3.3-1.1,4.8-1.7c3.7-1.4,5.8-4.7,7.6-8
			c0.7-1.3,1-2.9,2-4.1c1-1.2,2.2-2.2,3.6-2.8c3.2-1.3,5.8-1.8,7.7-5c0.8-1.3,1-2.9,1.6-4.2c0.6-1.3,1.3-2.4,2.3-3.5
			c2-2.2,5.2-1.3,7.1-4c0.7-1,0.8-2.2,1.4-3.1"/>
	</g>
</g>
</svg>
