<?xml version="1.0" encoding="utf-8"?>
<!-- Generator: Adobe Illustrator 15.0.2, SVG Export Plug-In . SVG Version: 6.00 Build 0)  -->
<!DOCTYPE svg PUBLIC "-//W3C//DTD SVG 1.1//EN" "http://www.w3.org/Graphics/SVG/1.1/DTD/svg11.dtd">
<svg version="1.1" id="Layer_1" xmlns="http://www.w3.org/2000/svg" xmlns:xlink="http://www.w3.org/1999/xlink" x="0px" y="0px"
	 width="28.5px" height="82.7px" viewBox="0 0 28.5 82.7" enable-background="new 0 0 28.5 82.7" xml:space="preserve">
<path fill="#7EA885" d="M24.7,9.6c0-5.3-4.3-9.6-9.6-9.6S5.5,4.3,5.5,9.6s4.3,9.6,9.6,9.6S24.7,14.9,24.7,9.6"/>
<g opacity="0.5">
	<g>
		<defs>
			<rect id="SVGID_1_" x="16.9" y="1.9" width="5.1" height="6.2"/>
		</defs>
		<clipPath id="SVGID_2_">
			<use xlink:href="#SVGID_1_"  overflow="visible"/>
		</clipPath>
		<path clip-path="url(#SVGID_2_)" fill="#7EA885" d="M21,3.9c-1.1-1.6-2.7-2.4-3.6-1.8c-0.9,0.6-0.7,2.4,0.4,4
			c1.1,1.6,2.7,2.4,3.6,1.8S22.1,5.5,21,3.9"/>
	</g>
</g>
<g>
	<g>
		<defs>
			<rect id="SVGID_3_" x="5.5" y="1.2" width="16.4" height="17.8"/>
		</defs>
		<clipPath id="SVGID_4_">
			<use xlink:href="#SVGID_3_"  overflow="visible"/>
		</clipPath>
		<path clip-path="url(#SVGID_4_)" fill="#7EA885" d="M17,17.6c-5.3,0-9.6-4.3-9.6-9.6c0-2.6,1.1-5,2.8-6.7C7.4,2.9,5.5,6,5.5,9.5
			c0,5.3,4.3,9.6,9.6,9.6c2.7,0,5.1-1.1,6.8-2.9C20.5,17.1,18.8,17.6,17,17.6"/>
	</g>
</g>
<path fill="#5E411A" d="M25.3,22.2c0-5.8-4.7-10.5-10.5-10.5C9,11.7,4.3,16.4,4.3,22.2S9,32.7,14.8,32.7
	C20.6,32.7,25.3,28,25.3,22.2"/>
<g opacity="0.5">
	<g>
		<defs>
			<rect id="SVGID_5_" x="16.8" y="13.7" width="5.5" height="6.7"/>
		</defs>
		<clipPath id="SVGID_6_">
			<use xlink:href="#SVGID_5_"  overflow="visible"/>
		</clipPath>
		<path clip-path="url(#SVGID_6_)" fill="#5E411A" d="M21.3,15.9c-1.2-1.7-2.9-2.6-3.9-2c-1,0.7-0.8,2.6,0.4,4.3
			c1.2,1.7,2.9,2.6,3.9,2C22.7,19.6,22.5,17.6,21.3,15.9"/>
	</g>
</g>
<g>
	<g>
		<defs>
			<rect id="SVGID_7_" x="4.4" y="13" width="18" height="19.5"/>
		</defs>
		<clipPath id="SVGID_8_">
			<use xlink:href="#SVGID_7_"  overflow="visible"/>
		</clipPath>
		<path clip-path="url(#SVGID_8_)" fill="#5E411A" d="M16.9,30.9c-5.8,0-10.5-4.7-10.5-10.5c0-2.9,1.2-5.5,3-7.4
			c-3,1.8-5.1,5.2-5.1,9c0,5.8,4.7,10.5,10.5,10.5c2.9,0,5.6-1.2,7.5-3.1C20.8,30.4,18.9,30.9,16.9,30.9"/>
	</g>
</g>
<path fill="#E9BBBD" d="M26.6,35.5c0-6.7-5.4-12.1-12.1-12.1S2.5,28.9,2.5,35.5s5.4,12.1,12.1,12.1S26.6,42.2,26.6,35.5"/>
<g opacity="0.5">
	<g>
		<defs>
			<rect id="SVGID_9_" x="16.8" y="25.8" width="6.4" height="7.7"/>
		</defs>
		<clipPath id="SVGID_10_">
			<use xlink:href="#SVGID_9_"  overflow="visible"/>
		</clipPath>
		<path clip-path="url(#SVGID_10_)" fill="#E9BBBD" d="M22,28.3c-1.4-2-3.4-3-4.5-2.3c-1.1,0.8-0.9,3,0.5,5c1.4,2,3.4,3,4.5,2.3
			C23.6,32.6,23.4,30.3,22,28.3"/>
	</g>
</g>
<g>
	<g>
		<defs>
			<rect id="SVGID_11_" x="2.6" y="25" width="20.6" height="22.4"/>
		</defs>
		<clipPath id="SVGID_12_">
			<use xlink:href="#SVGID_11_"  overflow="visible"/>
		</clipPath>
		<path clip-path="url(#SVGID_12_)" fill="#E9BBBD" d="M17,45.6c-6.7,0-12.1-5.4-12.1-12.1c0-3.3,1.3-6.3,3.5-8.5
			C4.9,27.1,2.6,31,2.6,35.4C2.6,42,8,47.4,14.6,47.4c3.4,0,6.4-1.4,8.6-3.6C21.4,44.9,19.3,45.6,17,45.6"/>
	</g>
</g>
<path fill="#9E7E64" d="M27.2,42.4L15.3,81.7c-0.4,1.3-1.1,1.3-1.5,0L1.9,42.4H27.2z"/>
<g>
	<g>
		<defs>
			<rect id="SVGID_13_" x="2.5" y="42.5" width="24.7" height="40.2"/>
		</defs>
		<clipPath id="SVGID_14_">
			<use xlink:href="#SVGID_13_"  overflow="visible"/>
		</clipPath>
		<path clip-path="url(#SVGID_14_)" fill="#9E7E64" d="M15,82.5l-0.7-1l0.9-1.4l0.4,0.6l0.1-0.3l-0.4-0.5l0.9-1.4l0.3-0.8l-0.3,0.4
			l-1-1.4l1-1.4l0.7,1l0.1-0.3l-0.6-0.9l1-1.4l0.2,0.4l0.1-0.3l-0.2-0.3l0.4-0.6l0.2-0.8l-0.8,1.2l-1-1.4l1-1.4l0.9,1.3l0.1-0.3
			l-0.9-1.2l1.1-1.4l0.4,0.6l0.1-0.3L19,68.1l0.9-1.1l0.2-0.8l-1-1.4l1.1-1.4l0.6,0.8l0.1-0.3l-0.5-0.7l1.1-1.4l0.2-0.7l-0.2,0.2
			l-1.1-1.4l1.2-1.4l0.6,0.9l0.1-0.3l-0.5-0.7l1.2-1.4l0,0l0.2-0.8l-0.2,0.3l-1.1-1.4l1.2-1.4l0.6,0.8l0.1-0.4l-0.5-0.7l1.2-1.4
			l0.2-0.7l-0.1,0.2l-1.1-1.4l1.3-1.4l0.6,0.8l0.1-0.4l-0.5-0.6l1-1.1l0.2-0.8L25,44.9l1.3-1.4l0.5,0.6l0.1-0.4l-0.4-0.5l0.7-0.7
			h-0.4L26.3,43l-0.4-0.5h-0.4l0.6,0.7l-1.3,1.4l-1.2-1.4l0.7-0.7h-0.4L23.5,43l-0.4-0.5h-0.4l0.6,0.7L22,44.6l-1.2-1.4l0.7-0.7
			h-0.4L20.6,43l-0.4-0.5h-0.4l0.6,0.7l-1.3,1.4l-1.2-1.4l0.6-0.7h-0.4L17.7,43l-0.4-0.5h-0.4l0.6,0.7l-1.2,1.4l-1.2-1.4l0.6-0.7
			h-0.4L14.9,43l-0.4-0.5H14l0.7,0.7l-1.2,1.4l-1.3-1.4l0.6-0.7h-0.4L12,43l-0.5-0.5h-0.4l0.7,0.7l-1.2,1.4l-1.3-1.4l0.6-0.7H9.6
			L9.2,43l-0.5-0.5H8.3L9,43.2l-1.2,1.4l-1.3-1.4l0.6-0.7H6.7L6.3,43l-0.5-0.5H5.4l0.7,0.7L5,44.6l-1.3-1.4l0.6-0.7H3.8L3.4,43
			l-0.5-0.5H2.5l0.7,0.7l-0.8,1l0.1,0.4l0.9-1.1l1.3,1.4l-1.1,1.4l-0.9-0.9L3,46l0.5,0.5l-0.2,0.3l0.1,0.4l0.3-0.5L5,48.2l-1,1.3
			l0.1,0.4l1.1-1.4l1.3,1.4l-1.1,1.4l-1.3-1.4l0.2,0.7l0.9,1l-0.4,0.6L5,52.4l0.5-0.7l1.3,1.4l-1.1,1.4l-0.1-0.1l0.2,0.7L7,56.5
			l-0.5,0.7l0.1,0.4l0.6-0.9l1.2,1.4l-1,1.4L7,59.2l0.3,0.9l0.1-0.1l1.2,1.4L8,62.3l0.1,0.4l0.7-1l1.2,1.4l-1,1.4l-0.4-0.5l0.2,0.7
			l0,0l0,0l0.1,0.4l0.1-0.1l1.1,1.4l-0.6,0.8l0.1,0.3l0.7-1l1.1,1.4l-1,1.4L10,69.1l0.3,1l0.1-0.1l1.1,1.4L11,72.2l0.1,0.3l0.6-0.9
			l1.1,1.4l-1,1.4l-0.1-0.2l0.2,0.8l1,1.3L12.4,77l0.1,0.3l0.4-0.7l1,1.4l-0.8,1.3l0.1,0.3l0.9-1.4l1,1.4l-0.9,1.4l-0.9-1.3l0.2,0.8
			l0.5,0.8l0.2,0.2l0.6,1C14.9,82.6,15,82.5,15,82.5 M15.2,76.2l-1-1.4l1-1.4l1,1.4L15.2,76.2z M15.2,69.6l-1.1-1.4l1-1.4l1.1,1.4
			L15.2,69.6z M15.2,70l1,1.4l-1,1.4l-1-1.4L15.2,70z M10.9,51.7l1.2,1.4L11,54.6l-1.2-1.4L10.9,51.7z M9.6,52.9l-1.2-1.4l1.1-1.4
			l1.2,1.4L9.6,52.9z M13.7,55.1l1.2,1.4l-1.1,1.4l-1.2-1.4L13.7,55.1z M12.4,56.3l-1.2-1.4l1.1-1.4l1.2,1.4L12.4,56.3z M15.2,56.5
			l1.1-1.4l1.1,1.4l-1.1,1.4L15.2,56.5z M16.2,58.2l-1.1,1.4l-1.1-1.4l1.1-1.4L16.2,58.2z M15,56.3l-1.2-1.4l1.1-1.4l1.2,1.4
			L15,56.3z M13.7,58.4l1.1,1.4l-1.1,1.4l-1.1-1.4L13.7,58.4z M15.1,60.1l1.1,1.4l-1.1,1.4L14,61.5L15.1,60.1z M15.1,63.4l1.1,1.4
			l-1.1,1.4L14,64.8L15.1,63.4z M15.3,63.2l1.1-1.4l1.1,1.4l-1.1,1.4L15.3,63.2z M16.3,61.3l-1.1-1.4l1.1-1.4l1.1,1.4L16.3,61.3z
			 M16.5,58.2l1.1-1.4l1.1,1.4l-1.1,1.4L16.5,58.2z M16.5,54.8l1.2-1.4l1.1,1.4l-1.2,1.4L16.5,54.8z M17.9,53.2l1.2-1.4l1.1,1.4
			L19,54.6L17.9,53.2z M17.7,52.9l-1.2-1.4l1.2-1.4l1.2,1.4L17.7,52.9z M17.5,53.2l-1.1,1.4l-1.2-1.4l1.1-1.4L17.5,53.2z M15,52.9
			l-1.2-1.4l1.2-1.4l1.2,1.4L15,52.9z M14.8,53.2l-1.1,1.4l-1.2-1.4l1.1-1.4L14.8,53.2z M12.3,52.9l-1.2-1.4l1.1-1.4l1.2,1.4
			L12.3,52.9z M11,55.1l1.2,1.4l-1.1,1.4L10,56.5L11,55.1z M12.4,56.7l1.2,1.4l-1.1,1.4l-1.2-1.4L12.4,56.7z M12.5,60.1l1.1,1.4
			l-1.1,1.4l-1.1-1.4L12.5,60.1z M13.8,61.7l1.1,1.4l-1.1,1.4l-1.1-1.4L13.8,61.7z M13.9,65.1l1.1,1.4l-1,1.4l-1.1-1.4L13.9,65.1z
			 M15.3,66.5l1-1.4l1.1,1.4l-1.1,1.4L15.3,66.5z M16.5,64.8l1.1-1.4l1.1,1.4l-1.1,1.4L16.5,64.8z M16.5,61.5l1.1-1.4l1.1,1.4
			l-1.1,1.4L16.5,61.5z M17.8,59.8l1.1-1.4l1.1,1.4l-1.1,1.4L17.8,59.8z M17.8,56.5l1.2-1.4l1.1,1.4l-1.2,1.4L17.8,56.5z M19.2,54.8
			l1.2-1.4l1.1,1.4l-1.2,1.4L19.2,54.8z M19.2,51.5l1.2-1.4l1.1,1.4l-1.2,1.4L19.2,51.5z M20.6,49.8l1.2-1.4l1.1,1.4l-1.2,1.4
			L20.6,49.8z M20.4,49.6l-1.2-1.4l1.2-1.4l1.2,1.4L20.4,49.6z M20.2,49.8L19,51.3l-1.2-1.4l1.2-1.4L20.2,49.8z M17.7,49.6l-1.2-1.4
			l1.2-1.4l1.2,1.4L17.7,49.6z M17.5,49.8l-1.2,1.4l-1.2-1.4l1.2-1.4L17.5,49.8z M15,49.6l-1.2-1.4l1.2-1.4l1.2,1.4L15,49.6z
			 M14.8,49.8l-1.1,1.4l-1.2-1.4l1.2-1.4L14.8,49.8z M12.2,49.6L11,48.2l1.2-1.4l1.2,1.4L12.2,49.6z M12,49.8l-1.1,1.4l-1.2-1.4
			l1.1-1.4L12,49.8z M9.5,49.6l-1.3-1.4l1.1-1.4l1.3,1.4L9.5,49.6z M9.3,49.8l-1.1,1.4l-1.3-1.4L8,48.4L9.3,49.8z M8.2,51.7l1.2,1.4
			l-1.1,1.4l-1.2-1.4L8.2,51.7z M9.6,53.4l1.2,1.4l-1.1,1.4l-1.2-1.4L9.6,53.4z M9.8,56.7l1.2,1.4l-1.1,1.4l-1.2-1.4L9.8,56.7z
			 M11.2,58.4l1.2,1.4l-1.1,1.4l-1.2-1.4L11.2,58.4z M11.3,61.7l1.1,1.4l-1,1.4l-1.1-1.4L11.3,61.7z M12.6,63.4l1.1,1.4l-1,1.4
			l-1.1-1.4L12.6,63.4z M12.7,66.7l1.1,1.4l-1,1.4l-1.1-1.4L12.7,66.7z M13.9,68.4l1.1,1.4l-1,1.4l-1.1-1.4L13.9,68.4z M14,71.7
			l1,1.4l-1,1.4l-1-1.4L14,71.7z M17.4,73.1l-1,1.4l-1-1.4l1-1.4L17.4,73.1z M16.4,71.2l-1-1.4l1-1.4l1,1.4L16.4,71.2z M17.6,69.6
			l-1-1.4l1.1-1.4l1,1.4L17.6,69.6z M19.9,66.5l-1.1,1.4l-1-1.4l1.1-1.4L19.9,66.5z M18.8,64.6l-1.1-1.4l1.1-1.4l1.1,1.4L18.8,64.6z
			 M21.3,61.5l-1.1,1.4l-1.1-1.4l1.1-1.4L21.3,61.5z M20.2,59.6l-1.1-1.4l1.2-1.4l1.1,1.4L20.2,59.6z M22.7,56.5l-1.2,1.4l-1.1-1.4
			l1.2-1.4L22.7,56.5z M21.7,54.6l-1.1-1.4l1.2-1.4l1.1,1.4L21.7,54.6z M24.3,51.5l-1.2,1.4L22,51.5l1.2-1.4L24.3,51.5z M23.2,49.6
			l-1.1-1.4l1.3-1.4l1.1,1.4L23.2,49.6z M25.9,46.5l-1.3,1.4l-1.1-1.4l1.3-1.4L25.9,46.5z M23.5,43.4l1.2,1.4l-1.3,1.4l-1.2-1.4
			L23.5,43.4z M23.1,46.5l-1.3,1.4l-1.2-1.4l1.3-1.4L23.1,46.5z M20.6,43.4l1.2,1.4l-1.3,1.4l-1.2-1.4L20.6,43.4z M20.3,46.5
			l-1.2,1.4l-1.2-1.4l1.2-1.4L20.3,46.5z M17.7,43.4l1.2,1.4l-1.2,1.4l-1.2-1.4L17.7,43.4z M16.3,45.1l1.2,1.4l-1.2,1.4l-1.2-1.4
			L16.3,45.1z M14.9,43.4l1.2,1.4l-1.2,1.4l-1.2-1.4L14.9,43.4z M13.5,45.1l1.2,1.4l-1.2,1.4l-1.2-1.4L13.5,45.1z M12,43.4l1.3,1.4
			l-1.2,1.4l-1.3-1.4L12,43.4z M10.7,45.1l1.3,1.4l-1.2,1.4l-1.3-1.4L10.7,45.1z M9.2,43.4l1.3,1.4l-1.2,1.4L8,44.9L9.2,43.4z
			 M7.8,45.1l1.3,1.4L8,47.9l-1.3-1.4L7.8,45.1z M6.3,43.4l1.3,1.4l-1.1,1.4l-1.3-1.4L6.3,43.4z M5.2,47.9l-1.3-1.4L5,45.1l1.3,1.4
			L5.2,47.9z M5.4,48.2l1.1-1.4l1.3,1.4l-1.1,1.4L5.4,48.2z M5.7,51.5l1.1-1.4L8,51.5l-1.1,1.4L5.7,51.5z M7.1,56.3l-1.2-1.4
			l1.1-1.4l1.2,1.4L7.1,56.3z M7.3,56.5l1.1-1.4l1.2,1.4l-1.1,1.4L7.3,56.5z M8.7,61.3l-1.2-1.4l1-1.4l1.2,1.4L8.7,61.3z M8.9,61.5
			l1-1.4l1.2,1.4l-1,1.4L8.9,61.5z M10.2,66.2l-1.1-1.4l1-1.4l1.1,1.4L10.2,66.2z M10.4,66.5l1-1.4l1.1,1.4l-1,1.4L10.4,66.5z
			 M11.6,71.2l-1.1-1.4l1-1.4l1.1,1.4L11.6,71.2z M11.8,71.5l1-1.4l1.1,1.4l-1,1.4L11.8,71.5z M13,76.2l-1-1.4l1-1.4l1,1.4L13,76.2z
			 M14.1,77.9l-1-1.4l1-1.4l1,1.4L14.1,77.9z M14.3,78.1l1-1.4l1,1.4l-1,1.4L14.3,78.1z"/>
	</g>
</g>
<g>
	<g>
		<defs>
			<rect id="SVGID_15_" x="1.9" y="42.4" width="12.7" height="40.3"/>
		</defs>
		<clipPath id="SVGID_16_">
			<use xlink:href="#SVGID_15_"  overflow="visible"/>
		</clipPath>
		<path clip-path="url(#SVGID_16_)" fill="#9E7E64" d="M14,81.7L5.4,42.4H1.9l11.9,39.3c0.2,0.7,0.5,1,0.8,1
			C14.4,82.7,14.2,82.4,14,81.7"/>
	</g>
</g>
<g>
	<g>
		<defs>
			<rect id="SVGID_17_" x="14.6" y="42.4" width="12.7" height="40.3"/>
		</defs>
		<clipPath id="SVGID_18_">
			<use xlink:href="#SVGID_17_"  overflow="visible"/>
		</clipPath>
		<path clip-path="url(#SVGID_18_)" fill="#9E7E64" d="M23.7,42.4l-8.6,39.3c-0.2,0.7-0.4,1-0.6,1c0.3,0,0.6-0.3,0.8-1l11.9-39.3
			H23.7z"/>
	</g>
</g>
<path fill="#E9BBBD" d="M3.1,42.5c-2.7,0.1-3.6-3.2-2.9-5c0.4-0.9,0.9-1.7,1.7-2.3c1-0.7,2.2-0.5,3.3-0.3c1-0.5,3.4-2.1,4.5-1.1
	c0.6-0.8,2.4-1,3.3-0.7c1,0.3,1.8,1.4,1.8,2.4c1,0,1.7-0.6,2.9-0.5c1.1,0.1,2.4,0.5,2.6,1.5c1.8,0.1,3.4-0.4,5,0.5
	c1,0.5,2.4,1.8,2.9,2.8c1.1,2.7-2.9,3.7-5.2,3.3c-1.6-0.2-2.6-0.8-4.3-0.5C18,42.7,17.1,43,16.3,43c-0.7,0-1.5-0.5-2.2-0.6
	c-1.4-0.1-2.7,1.3-4.1,1.3c-0.8,0-1.7,0.1-2.5-0.2C7,43.3,6.6,43,6,42.8c-0.8-0.2-1.8-0.2-2.6-0.2L3.1,42.5z"/>
<g>
	<g>
		<defs>
			<rect id="SVGID_19_" y="37.7" width="28.5" height="6.1"/>
		</defs>
		<clipPath id="SVGID_20_">
			<use xlink:href="#SVGID_19_"  overflow="visible"/>
		</clipPath>
		<path clip-path="url(#SVGID_20_)" fill="#E9BBBD" d="M28.1,39.3c-1,1.1-3.4,1.5-4.9,1.3c-1.6-0.2-2.6-0.8-4.3-0.5
			c-0.8,0.1-1.7,0.4-2.5,0.4c-0.7,0-1.5-0.5-2.2-0.6c-1.4-0.1-2.7,1.3-4.1,1.3c-0.8,0-1.7,0.1-2.5-0.2c-0.6-0.2-1-0.5-1.5-0.7
			c-0.8-0.2-1.8-0.2-2.6-0.2L3.1,40c-1.6,0.1-2.6-1-2.9-2.3c-0.6,1.8,0.3,5,2.9,4.8l0.2,0.1c0.8,0,1.8-0.1,2.6,0.2
			c0.6,0.2,1,0.5,1.5,0.7c0.8,0.3,1.7,0.2,2.5,0.2c1.4-0.1,2.7-1.4,4.1-1.3c0.7,0,1.4,0.6,2.2,0.6c0.8,0,1.7-0.3,2.5-0.4
			c1.7-0.3,2.7,0.3,4.3,0.5c2.3,0.3,6.3-0.7,5.2-3.3C28.3,39.6,28.2,39.4,28.1,39.3"/>
	</g>
</g>
<g opacity="0.5">
	<g>
		<defs>
			<rect id="SVGID_21_" y="33" width="28.5" height="8.2"/>
		</defs>
		<clipPath id="SVGID_22_">
			<use xlink:href="#SVGID_21_"  overflow="visible"/>
		</clipPath>
		<path clip-path="url(#SVGID_22_)" fill="#E9BBBD" d="M1.9,36.3c1-0.7,2.2-0.5,3.3-0.3c1-0.5,3.4-2.1,4.5-1.1
			c0.6-0.8,2.4-1,3.3-0.7c1,0.3,1.8,1.4,1.8,2.4c1,0,1.7-0.6,2.9-0.5c1.1,0.1,2.4,0.5,2.6,1.5c1.8,0.1,3.4-0.4,5,0.5
			c1,0.5,2.4,1.8,2.9,2.8c0.1,0.1,0.1,0.2,0.1,0.4c0.1-0.4,0.1-0.9-0.1-1.4c-0.4-1-1.9-2.3-2.9-2.8c-1.7-0.9-3.3-0.4-5-0.5
			c-0.2-1.1-1.6-1.5-2.6-1.5c-1.1-0.1-1.9,0.6-2.9,0.5c-0.1-0.9-0.8-2.1-1.8-2.4c-0.9-0.3-2.7,0-3.3,0.7c-1.1-1-3.5,0.6-4.5,1.1
			c-1.1-0.2-2.3-0.4-3.3,0.3c-0.8,0.6-1.3,1.5-1.7,2.3C0,38.1,0,38.8,0,39.4c0-0.3,0.1-0.6,0.2-0.8C0.6,37.7,1.1,36.8,1.9,36.3"/>
	</g>
</g>
<path fill="#5E411A" d="M4.9,28.3c-2.4,0.1-3.2-2.8-2.5-4.3c0.3-0.7,0.7-1.5,1.5-2c0.8-0.6,1.9-0.4,2.9-0.3c0.9-0.4,2.9-1.8,3.9-0.9
	c0.5-0.7,2.1-0.9,2.9-0.7c0.9,0.2,1.6,1.2,1.6,2.1c0.8,0,1.5-0.6,2.5-0.5c0.9,0.1,2.1,0.4,2.3,1.3c1.5,0.1,2.9-0.3,4.4,0.4
	c0.8,0.4,2.1,1.6,2.5,2.5c1,2.3-2.5,3.2-4.5,2.9c-1.4-0.2-2.3-0.7-3.8-0.5c-0.7,0.1-1.5,0.4-2.2,0.4c-0.6,0-1.3-0.5-1.9-0.5
	c-1.2-0.1-2.3,1.1-3.6,1.2c-0.7,0-1.5,0.1-2.2-0.2c-0.5-0.2-0.8-0.5-1.3-0.6c-0.7-0.2-1.6-0.1-2.3-0.1L4.9,28.3z"/>
<g>
	<g>
		<defs>
			<rect id="SVGID_23_" x="2.1" y="24.1" width="24.8" height="5.3"/>
		</defs>
		<clipPath id="SVGID_24_">
			<use xlink:href="#SVGID_23_"  overflow="visible"/>
		</clipPath>
		<path clip-path="url(#SVGID_24_)" fill="#5E411A" d="M26.6,25.4c-0.9,1-2.9,1.3-4.3,1.1c-1.4-0.2-2.3-0.7-3.8-0.5
			c-0.7,0.1-1.5,0.4-2.2,0.4c-0.6,0-1.3-0.5-1.9-0.5c-1.2-0.1-2.3,1.1-3.6,1.2c-0.7,0-1.5,0.1-2.2-0.2c-0.5-0.2-0.8-0.5-1.3-0.6
			c-0.7-0.2-1.6-0.1-2.3-0.1l-0.2-0.1c-1.4,0.1-2.2-0.9-2.6-2c-0.6,1.6,0.2,4.3,2.6,4.2l0.2,0.1c0.7,0,1.6-0.1,2.3,0.1
			c0.5,0.1,0.8,0.4,1.3,0.6c0.7,0.2,1.5,0.2,2.2,0.2c1.2-0.1,2.3-1.2,3.6-1.2c0.6,0,1.2,0.5,1.9,0.5c0.7,0,1.5-0.3,2.2-0.4
			c1.4-0.2,2.4,0.3,3.8,0.5c2,0.3,5.5-0.6,4.5-2.9C26.7,25.7,26.7,25.6,26.6,25.4"/>
	</g>
</g>
<g opacity="0.5">
	<g>
		<defs>
			<rect id="SVGID_25_" x="2.1" y="20" width="24.8" height="7.1"/>
		</defs>
		<clipPath id="SVGID_26_">
			<use xlink:href="#SVGID_25_"  overflow="visible"/>
		</clipPath>
		<path clip-path="url(#SVGID_26_)" fill="#5E411A" d="M3.8,22.8c0.8-0.6,1.9-0.4,2.9-0.3c0.9-0.4,2.9-1.8,3.9-0.9
			c0.5-0.7,2.1-0.9,2.9-0.6c0.9,0.2,1.6,1.2,1.6,2.1c0.8,0,1.5-0.6,2.5-0.5c0.9,0.1,2.1,0.4,2.3,1.3c1.5,0.1,2.9-0.3,4.4,0.4
			c0.8,0.4,2.1,1.6,2.5,2.5c0,0.1,0.1,0.2,0.1,0.3c0.1-0.3,0.1-0.8-0.1-1.2c-0.4-0.9-1.6-2-2.5-2.5c-1.5-0.8-2.8-0.4-4.4-0.4
			c-0.2-0.9-1.4-1.3-2.3-1.3c-1-0.1-1.7,0.5-2.5,0.5c-0.1-0.8-0.7-1.8-1.6-2.1c-0.8-0.2-2.4,0-2.9,0.7c-1-0.9-3,0.5-3.9,0.9
			c-1-0.2-2-0.3-2.9,0.3c-0.7,0.5-1.1,1.3-1.5,2c-0.2,0.5-0.3,1-0.2,1.6c0-0.3,0.1-0.5,0.2-0.7C2.7,24.1,3.1,23.3,3.8,22.8"/>
	</g>
</g>
<path fill="#7EA885" d="M6,15.2c-2.2,0.1-2.9-2.6-2.3-4C4,10.5,4.4,9.8,5,9.4C5.8,8.8,6.7,9,7.6,9.1c0.8-0.4,2.7-1.6,3.6-0.9
	c0.5-0.6,1.9-0.8,2.7-0.6c0.8,0.2,1.4,1.1,1.5,1.9c0.8,0,1.4-0.5,2.3-0.4c0.8,0.1,1.9,0.4,2.1,1.2c1.4,0.1,2.7-0.3,4,0.4
	c0.8,0.4,1.9,1.5,2.3,2.2c0.9,2.1-2.3,2.9-4.1,2.7c-1.3-0.2-2.1-0.7-3.4-0.4c-0.6,0.1-1.4,0.4-2,0.3c-0.6,0-1.2-0.4-1.7-0.5
	c-1.1-0.1-2.1,1-3.2,1.1c-0.6,0-1.4,0-2-0.2c-0.4-0.1-0.8-0.4-1.2-0.6c-0.6-0.2-1.4-0.1-2.1-0.1L6,15.2z"/>
<g opacity="0.5">
	<g>
		<defs>
			<rect id="SVGID_27_" x="3.5" y="7.6" width="22.7" height="6.5"/>
		</defs>
		<clipPath id="SVGID_28_">
			<use xlink:href="#SVGID_27_"  overflow="visible"/>
		</clipPath>
		<path clip-path="url(#SVGID_28_)" fill="#7EA885" d="M5,10.2c0.8-0.5,1.7-0.4,2.6-0.3c0.8-0.4,2.7-1.6,3.6-0.9
			c0.5-0.6,1.9-0.8,2.7-0.6c0.8,0.2,1.4,1.1,1.5,1.9c0.8,0,1.4-0.5,2.3-0.4c0.8,0.1,1.9,0.4,2.1,1.2c1.4,0.1,2.7-0.3,4,0.4
			c0.8,0.4,1.9,1.5,2.3,2.2c0,0.1,0.1,0.2,0.1,0.3c0.1-0.3,0.1-0.7-0.1-1.1c-0.3-0.8-1.5-1.8-2.3-2.2c-1.3-0.7-2.6-0.3-4-0.4
			c-0.2-0.9-1.3-1.2-2.1-1.2c-0.9-0.1-1.5,0.5-2.3,0.4c-0.1-0.7-0.6-1.7-1.5-1.9c-0.8-0.2-2.2,0-2.7,0.6c-0.9-0.8-2.8,0.5-3.6,0.9
			C6.7,9,5.8,8.8,5,9.4c-0.6,0.5-1,1.2-1.3,1.8c-0.2,0.4-0.2,1-0.2,1.5c0-0.2,0.1-0.5,0.2-0.7C4,11.4,4.4,10.6,5,10.2"/>
	</g>
</g>
<path fill="#E9BBBD" d="M6.5,40.7c0.1,1.4,0.7,3.2,1.1,4.5c0.4,1.3,0.8,2.9,1,4.3c0.2,1.4-0.2,3.1,1.5,3.8c1.9,0.8,1.2-2.1,1-2.9
	c-0.3-0.9-0.5-1.6-0.5-2.6c0.8,0.1,0.9,1.1,1.7,0.1c0.6-0.7,0.6-1.7,0.5-2.6c-0.1-1.7-0.9-3.6-1.6-5.1c-1.6-0.1-3.3-0.2-5-0.1
	c0,0.1,0,0.2,0,0.2L6.5,40.7z"/>
<g>
	<g>
		<defs>
			<rect id="SVGID_29_" x="9.5" y="40.7" width="3.4" height="12.6"/>
		</defs>
		<clipPath id="SVGID_30_">
			<use xlink:href="#SVGID_29_"  overflow="visible"/>
		</clipPath>
		<path clip-path="url(#SVGID_30_)" fill="#E9BBBD" d="M10.6,47.7c0.2,0,0.3,0.1,0.4,0.1c-0.2-0.1-0.4-0.3-0.7-0.4
			c0,1,0.2,1.7,0.5,2.6c0.3,0.8,0.9,3.7-1,2.9c-0.1,0-0.2-0.1-0.3-0.2c0.2,0.1,0.4,0.3,0.6,0.4c1.9,0.8,1.2-2.1,1-2.9
			C10.8,49.4,10.5,48.6,10.6,47.7"/>
		<path clip-path="url(#SVGID_30_)" fill="#E9BBBD" d="M12.9,45.2c-0.1-1.7-0.6-3-1.3-4.5c-0.1,0-0.1,0-0.2,0
			c0.7,1.4,1.2,2.6,1.2,4.3c0,0.9,0.1,1.9-0.5,2.6c-0.4,0.5-0.6,0.5-0.8,0.3c0.3,0.3,0.6,0.5,1.1-0.1C12.9,47.1,12.9,46.1,12.9,45.2
			"/>
	</g>
</g>
<g>
	<g>
		<defs>
			<rect id="SVGID_31_" x="10.4" y="47.3" width="1.7" height="0.6"/>
		</defs>
		<clipPath id="SVGID_32_">
			<use xlink:href="#SVGID_31_"  overflow="visible"/>
		</clipPath>
		<path clip-path="url(#SVGID_32_)" fill="#E9BBBD" d="M10.4,47.3c0,0,0.1,0,0.3,0c0.1,0,0.2,0.1,0.3,0.2c0.1,0.1,0.2,0.2,0.3,0.2
			c0.1,0,0.2,0,0.3,0c0.1-0.1,0.2-0.1,0.3-0.1c0.1-0.1,0.3-0.2,0.3-0.2l0,0c0,0-0.1,0.1-0.2,0.3c0,0.1-0.2,0.1-0.3,0.2
			c-0.1,0-0.1,0-0.2,0c-0.1,0-0.1-0.1-0.2-0.1c-0.1-0.1-0.2-0.2-0.3-0.2c-0.1-0.1-0.2-0.1-0.3-0.1C10.6,47.4,10.5,47.4,10.4,47.3
			C10.4,47.3,10.4,47.3,10.4,47.3L10.4,47.3z"/>
	</g>
</g>
<g>
	<g>
		<defs>
			<rect id="SVGID_33_" x="6.5" y="40.1" width="3.8" height="13.1"/>
		</defs>
		<clipPath id="SVGID_34_">
			<use xlink:href="#SVGID_33_"  overflow="visible"/>
		</clipPath>
		<path clip-path="url(#SVGID_34_)" fill="#E9BBBD" d="M6.6,40.1l0,0.2l0,0l0.3,0.3l0,0l0,0c0.1,0.5,0.2,1.1,0.3,1.6
			c0.1,0.5,0.3,1.1,0.4,1.6l0.9,3.2c0.1,0.5,0.2,1.1,0.4,1.6c0,0.3,0.1,0.5,0.2,0.8c0,0.3,0,0.6,0.1,0.8c0,0.3,0,0.6,0.1,0.8
			c0,0.3,0.1,0.5,0.2,0.8c0.1,0.2,0.2,0.5,0.4,0.7c0.2,0.2,0.4,0.3,0.7,0.5l0,0c-0.2-0.1-0.5-0.2-0.7-0.4c-0.2-0.2-0.4-0.4-0.5-0.7
			C9.1,51.9,9,51.6,9,51.3c-0.1-0.3,0-0.6-0.1-0.8c0-0.3,0-0.6-0.1-0.8c0-0.3-0.1-0.5-0.1-0.8c-0.1-0.5-0.2-1.1-0.3-1.6L8,45.6
			C7.8,45,7.6,44.5,7.5,44c-0.2-0.5-0.3-1.1-0.4-1.6c-0.1-0.5-0.2-1.1-0.3-1.7l0,0l-0.2-0.3l0,0l0,0C6.5,40.3,6.5,40.2,6.6,40.1
			L6.6,40.1z"/>
	</g>
</g>
</svg>
