<?xml version="1.0" encoding="utf-8"?>
<!-- Generator: Adobe Illustrator 15.0.2, SVG Export Plug-In . SVG Version: 6.00 Build 0)  -->
<!DOCTYPE svg PUBLIC "-//W3C//DTD SVG 1.1//EN" "http://www.w3.org/Graphics/SVG/1.1/DTD/svg11.dtd">
<svg version="1.1" id="Layer_1" xmlns="http://www.w3.org/2000/svg" xmlns:xlink="http://www.w3.org/1999/xlink" x="0px" y="0px"
	 width="15.9px" height="78.3px" viewBox="0 0 15.9 78.3" enable-background="new 0 0 15.9 78.3" xml:space="preserve">
<path fill="#EBD467" d="M10.3,63.2c0,0-0.2,0-0.2-0.8s0-9.3,0-9.3H9c0,0,0,8.5,0,9.3c0,0.9,0.1,0.8,0.1,0.8c0.4,0.3,0.4,0.6,0.4,0.6
	H11C11,63.8,11,63.5,10.3,63.2"/>
<path fill="#A77C39" d="M6.9,62.4c0-0.9,0-9.3,0-9.3h-1c0,0,0,8.5,0,9.3c0,0.9-0.2,0.8-0.2,0.8c-0.7,0.3-0.7,0.6-0.7,0.6h1.5
	c0,0,0-0.3,0.4-0.6C6.7,63.2,6.9,63.3,6.9,62.4"/>
<path fill="#FBB03B" d="M9,62.4C9,61.5,9,53,9,53h-1H8H7.9H7.8h-1c0,0,0,8.5,0,9.3s-0.1,0.8-0.1,0.8c-0.4,0.3-0.4,0.6-0.4,0.6h1.5
	h0.1H8h0.1h1.5c0,0,0-0.3-0.4-0.6C9.2,63.2,9,63.3,9,62.4"/>
<path fill="#EBD467" d="M10,51.2c0-0.4-0.1-1.8-0.1-1.8s-0.1-0.6-0.5-0.6H8.9c0.3,0,0.4,0.6,0.4,0.6s0.1,1.4,0.1,1.8
	s0.2,0.6,0.2,0.6h0.8C10.4,51.8,10,51.6,10,51.2"/>
<path fill="#A77C39" d="M6.5,51.2c0-0.4,0.1-1.8,0.1-1.8s0.1-0.6,0.4-0.6H6.5c-0.4,0-0.5,0.6-0.5,0.6s-0.1,1.4-0.1,1.8
	s-0.3,0.6-0.3,0.6h0.7C6.3,51.8,6.5,51.6,6.5,51.2"/>
<path fill="#EBD467" d="M9.4,51.2c0-0.4-0.1-1.8-0.1-1.8s-0.1-0.6-0.4-0.6H8.4c0.2,0,0.2,0.6,0.2,0.6s0,1.4,0,1.8s0.1,0.6,0.1,0.6
	h0.8C9.6,51.8,9.4,51.6,9.4,51.2"/>
<path fill="#E5952E" d="M7.3,49.4c0,0,0-0.6,0.2-0.6H7c-0.3,0-0.4,0.6-0.4,0.6s-0.1,1.4-0.1,1.8s-0.2,0.6-0.2,0.6h0.8
	c0,0,0.1-0.2,0.1-0.6S7.3,49.4,7.3,49.4"/>
<path fill="#FBB03B" d="M8.6,49.4c0,0,0-0.6-0.2-0.6H8h0H7.4c-0.2,0-0.2,0.6-0.2,0.6s0,1.4,0,1.8s-0.1,0.6-0.1,0.6h0.8h0h0.8
	c0,0-0.1-0.2-0.1-0.6S8.6,49.4,8.6,49.4"/>
<polygon fill="#A77C39" points="6.9,29.7 6.4,48.6 7,48.6 7.3,29.7 "/>
<polygon fill="#EBD467" points="9,29.7 8.6,29.7 8.9,48.6 9.5,48.6 "/>
<polygon fill="#FBB03B" points="8.1,29.7 8.1,29.7 7.8,29.7 7.8,29.7 7.3,29.7 7,48.6 7.8,48.6 7.8,48.6 8.1,48.6 8.1,48.6 
	8.9,48.6 8.6,29.7 "/>
<line fill="none" stroke="#CCCCCC" stroke-width="0.303" stroke-miterlimit="10" x1="7.9" y1="8" x2="7.9" y2="0.7"/>
<path fill="none" stroke="#808080" stroke-width="0.288" stroke-miterlimit="10" d="M4.9,8.5c0,0,2.8-0.7,2.8-3.7s-2-1.8-2-1.3V4"/>
<polygon fill="#E5952E" points="7.9,24.1 7.9,12 14.5,13.5 11.2,24.1 "/>
<polygon fill="#E6E6E6" points="8.3,23.5 8.3,12.6 13.7,14 11,23.5 "/>
<polygon fill="#9BA9B2" points="8.3,12.6 8.3,12.9 13.5,14.1 10.8,23.5 11,23.5 13.7,14 "/>
<polygon fill="#534741" points="14.5,13.5 15.9,13 7.9,11.1 7.9,12 "/>
<polygon fill="#CCCCCC" points="14.5,12.7 11.2,8.6 7.9,7.6 7.9,11.1 "/>
<rect x="7.9" y="24.1" fill="#FBB03B" width="3.4" height="0.9"/>
<g opacity="0.3">
	<g>
		<defs>
			<rect id="SVGID_1_" x="8.5" y="13.2" width="4.7" height="10.7"/>
		</defs>
		<clipPath id="SVGID_2_">
			<use xlink:href="#SVGID_1_"  overflow="visible"/>
		</clipPath>
		<path clip-path="url(#SVGID_2_)" fill="#E6E6E6" d="M10.4,23.8L10.4,23.8L10.4,23.8C10.4,23.8,10.4,23.8,10.4,23.8"/>
		<path clip-path="url(#SVGID_2_)" fill="#E6E6E6" d="M11.1,21.5l2-7.2l-4.7-1.1c1.6,0.8,2.8,3.4,2.8,6.5
			C11.2,20.3,11.2,20.9,11.1,21.5"/>
	</g>
</g>
<polygon fill="#A77C39" points="7.9,24.1 7.9,12 1.4,13.5 4.7,24.1 "/>
<polygon fill="#B3B3B3" points="7.6,23.5 7.6,12.6 2.2,14 4.9,23.5 "/>
<polygon fill="#608DA2" points="7.6,12.6 7.6,12.9 2.4,14.1 5.1,23.5 4.9,23.5 2.2,14 "/>
<polygon fill="#131313" points="1.4,13.5 0,13 7.9,11.1 7.9,12 "/>
<polygon fill="#999999" points="1.4,12.7 4.7,8.6 7.9,7.6 7.9,11.1 "/>
<rect x="4.5" y="24.1" fill="#A77C39" width="3.4" height="0.9"/>
<path fill="none" stroke="#CCCCCC" stroke-width="0.288" stroke-miterlimit="10" d="M10.9,8.5c0,0-2.8-0.7-2.8-3.7s2-1.8,2-1.3V4"/>
<path fill="#999999" d="M8.4,0.4c0,0.2-0.2,0.4-0.4,0.4S7.5,0.6,7.5,0.4C7.5,0.2,7.7,0,7.9,0S8.4,0.2,8.4,0.4"/>
<path fill="#666666" d="M8.1,0.7c-0.2,0-0.4-0.2-0.4-0.4c0-0.1,0-0.1,0.1-0.2C7.6,0.2,7.5,0.3,7.5,0.4c0,0.2,0.2,0.4,0.4,0.4
	c0.2,0,0.3-0.1,0.4-0.2C8.2,0.7,8.1,0.7,8.1,0.7"/>
<path fill="#E6E6E6" d="M8.2,0.2c0,0.1,0,0.1-0.1,0.1C8.1,0.3,8,0.3,8,0.2s0-0.1,0.1-0.1C8.2,0.1,8.2,0.2,8.2,0.2"/>
<path fill="#A77C39" d="M7.6,26.7C7.6,26.2,7.5,25,7,25H6.6c0.7,0,0.8,1.2,0.8,1.7s-0.2,0.6-0.2,0.6c-0.4,0.3-0.7,1-0.7,1h0.4
	c0,0,0.3-0.7,0.5-1C7.4,27.3,7.6,27.2,7.6,26.7"/>
<path fill="#EBD467" d="M8.7,27.3c0,0-0.2-0.1-0.2-0.6c0-0.5,0.1-1.7,0.8-1.7H8.9c-0.5,0-0.6,1.2-0.6,1.7c0,0.5,0.2,0.6,0.2,0.6
	c0.3,0.3,0.5,1,0.5,1h0.4C9.4,28.4,9,27.7,8.7,27.3"/>
<path fill="#EBD467" d="M8.3,26.7c0-0.5,0.1-1.7,0.6-1.7H8.4c-0.2,0-0.3,1.2-0.3,1.7s0.1,0.6,0.1,0.6c0.1,0.3,0.3,1,0.3,1H9
	c0,0-0.3-0.7-0.5-1C8.4,27.3,8.3,27.2,8.3,26.7"/>
<path fill="#E5952E" d="M7.8,26.7c0-0.5,0-1.7-0.3-1.7H7c0.5,0,0.6,1.2,0.6,1.7s-0.2,0.6-0.2,0.6c-0.3,0.3-0.5,1-0.5,1h0.5
	c0,0,0.1-0.7,0.3-1C7.7,27.3,7.8,27.2,7.8,26.7"/>
<path fill="#FBB03B" d="M8.1,26.7c0-0.5,0-1.7,0.3-1.7H7.9H7.5c0.2,0,0.3,1.2,0.3,1.7s-0.1,0.6-0.1,0.6c-0.1,0.3-0.3,1-0.3,1h0.5
	h0.5c0,0-0.1-0.7-0.3-1C8.2,27.3,8.1,27.2,8.1,26.7"/>
<g>
	<g>
		<defs>
			<rect id="SVGID_3_" x="6.8" y="25" width="2.3" height="0.3"/>
		</defs>
		<clipPath id="SVGID_4_">
			<use xlink:href="#SVGID_3_"  overflow="visible"/>
		</clipPath>
		<path clip-path="url(#SVGID_4_)" fill="#A77C39" d="M7.1,25.3c0.2-0.1,0.5-0.1,0.8-0.1c0.3,0,0.6,0,0.8,0.1
			c0.1-0.1,0.2-0.2,0.3-0.3v0H8.9H8.4H7.9H7.5H7H6.8v0C6.9,25.1,7,25.2,7.1,25.3"/>
	</g>
</g>
<path fill="#A77C39" d="M6.9,29.3H6.5c0,0,0,0-0.1,0c0.2,0.2,0.8,0.4,1.5,0.4C7.5,29.7,7,29.6,6.9,29.3"/>
<path fill="#A77C39" d="M6.9,28.9c0.2-0.2,0.6-0.4,1.1-0.4c-0.7,0-1.2,0.2-1.5,0.4c0,0,0,0,0.1,0H6.9z"/>
<path fill="#EBD467" d="M9,28.9h0.3c0,0,0,0,0.1,0c-0.2-0.2-0.8-0.4-1.5-0.4C8.4,28.5,8.8,28.7,9,28.9"/>
<path fill="#FBB03B" d="M9,29.3c-0.2,0.2-0.6,0.4-1.1,0.4c0.7,0,1.2-0.2,1.5-0.4c0,0,0,0-0.1,0H9z"/>
<path fill="#EBD467" d="M9.4,28.9C9.4,28.9,9.4,28.9,9.4,28.9l-0.4,0c0,0,0,0,0,0c0.1,0,0.2,0.1,0.2,0.2c0,0.1-0.1,0.2-0.2,0.2
	c0,0,0,0,0,0h0.3c0,0,0,0,0.1,0c0.1,0,0.3-0.1,0.3-0.2C9.7,29,9.6,28.9,9.4,28.9"/>
<path fill="#A77C39" d="M6.5,28.9c-0.1,0-0.3,0.1-0.3,0.2c0,0.1,0.1,0.2,0.3,0.2c0,0,0,0,0.1,0h0.3c0,0,0,0,0,0
	c-0.1,0-0.2-0.1-0.2-0.2c0-0.1,0.1-0.2,0.2-0.2c0,0,0,0,0,0L6.5,28.9C6.5,28.9,6.5,28.9,6.5,28.9"/>
<path fill="#E5952E" d="M9,29.3L9,29.3H6.9h0c0.2,0.2,0.6,0.4,1.1,0.4C8.4,29.7,8.9,29.6,9,29.3"/>
<path fill="#EBD467" d="M6.9,28.9L6.9,28.9H9h0c-0.2-0.2-0.6-0.4-1.1-0.4C7.5,28.5,7,28.7,6.9,28.9"/>
<path fill="#FBB03B" d="M9,28.9C9,28.9,9,28.9,9,28.9l-2.1,0c0,0,0,0,0,0c-0.1,0-0.2,0.1-0.2,0.2c0,0.1,0.1,0.2,0.2,0.2c0,0,0,0,0,0
	H9c0,0,0,0,0,0c0.1,0,0.2-0.1,0.2-0.2C9.2,29,9.1,28.9,9,28.9"/>
<path fill="#A77C39" d="M9.5,28.5c0-0.1-0.1-0.1-0.1-0.1H6.5c-0.1,0-0.1,0.1-0.1,0.1c0,0.1,0.1,0.1,0.1,0.1h2.9
	C9.5,28.6,9.5,28.6,9.5,28.5"/>
<path fill="#A77C39" d="M9.5,29.7c0-0.1-0.1-0.1-0.1-0.1H6.5c-0.1,0-0.1,0.1-0.1,0.1c0,0.1,0.1,0.1,0.1,0.1h2.9
	C9.5,29.8,9.5,29.8,9.5,29.7"/>
<path fill="#A77C39" d="M9.7,48.7c0-0.1-0.1-0.2-0.1-0.2H6.3c-0.1,0-0.1,0.1-0.1,0.2s0.1,0.2,0.1,0.2h3.3
	C9.7,48.9,9.7,48.8,9.7,48.7"/>
<path fill="#A77C39" d="M5.8,52.9C5.8,52.9,5.8,52.8,5.8,52.9c0,0,0-0.1,0-0.1c0,0,0-0.1,0-0.1c0,0,0,0,0,0c0,0,0,0,0,0
	c0.1-0.4,0.4-0.8,0.9-0.8H5.8c-0.8,0-1,0.3-1.1,0.8c0,0,0,0,0,0c0,0,0,0,0,0c0,0,0,0.1,0,0.1c0,0,0,0.1,0,0.1c0,0,0,0,0,0
	C4.8,53.6,6,54.2,8,54.2C6.8,54.2,5.9,53.6,5.8,52.9"/>
<path fill="#EBD467" d="M11.3,52.7C11.3,52.7,11.3,52.6,11.3,52.7C11.3,52.6,11.3,52.6,11.3,52.7c-0.1-0.5-0.4-0.9-1.2-0.9H9.2
	c0.4,0,0.8,0.3,0.9,0.8l0,0c0,0,0,0,0,0c0,0,0,0.1,0,0.1c0,0,0,0.1,0,0.1c0,0,0,0,0,0c-0.1,0.8-1,1.4-2.1,1.4c2,0,3.2-0.6,3.3-1.4
	c0,0,0,0,0,0C11.3,52.8,11.3,52.8,11.3,52.7C11.3,52.7,11.3,52.7,11.3,52.7"/>
<path fill="#FBB03B" d="M10.1,52.9C10.1,52.9,10.1,52.8,10.1,52.9c0,0,0-0.1,0-0.1c0,0,0-0.1,0-0.1c0,0,0,0,0,0l0,0
	c-0.1-0.4-0.4-0.8-0.9-0.8H6.7c-0.4,0-0.8,0.3-0.9,0.8c0,0,0,0,0,0c0,0,0,0,0,0c0,0,0,0.1,0,0.1c0,0,0,0.1,0,0.1c0,0,0,0,0,0
	c0.1,0.8,1,1.4,2.1,1.4C9.1,54.2,10,53.6,10.1,52.9"/>
<rect x="4.9" y="63.9" fill="#A77C39" width="1.5" height="2.6"/>
<rect x="9.5" y="63.9" fill="#EBD467" width="1.5" height="2.6"/>
<rect x="6.4" y="63.9" fill="#FBB03B" width="3.2" height="2.6"/>
<path fill="#A77C39" d="M5.3,66.4c0,6-1.5,9-1.5,9h1.1c0,0,1.1-3,1.1-9H5.3z"/>
<path fill="#EBD467" d="M10.6,66.4H9.9c0,6,1.1,9,1.1,9h1.1C12.1,75.4,10.6,72.4,10.6,66.4"/>
<path fill="#EBD467" d="M8.8,66.4c0,6,0.5,9,0.5,9H11c0,0-1.1-3-1.1-9H8.8z"/>
<path fill="#E5952E" d="M6,66.4c0,6-1.1,9-1.1,9h1.7c0,0,0.5-3,0.5-9H6z"/>
<path fill="#FBB03B" d="M8.1,66.4L8.1,66.4L8.1,66.4H7.9h0h0H7.1c0,6-0.5,9-0.5,9h1.2h0h0H8h0h0h1.2c0,0-0.5-3-0.5-9H8.1z"/>
<g opacity="0.4">
	<g>
		<defs>
			<rect id="SVGID_5_" x="5.3" y="66.4" width="5.4" height="1.1"/>
		</defs>
		<clipPath id="SVGID_6_">
			<use xlink:href="#SVGID_5_"  overflow="visible"/>
		</clipPath>
		<path clip-path="url(#SVGID_6_)" fill="#A77C39" d="M10.6,67.5c0-0.3,0-0.7,0-1.1H9.9H8.8H8h0h0H7.9h0h0H7.1H6H5.3
			c0,0.4,0,0.7,0,1.1C5.9,67.2,6.9,67,7.9,67S10,67.2,10.6,67.5"/>
	</g>
</g>
<polygon fill="#EBD467" points="11.9,76.4 13.2,76.4 13.2,75.4 11.5,75.4 11.5,76.4 "/>
<polygon fill="#A77C39" points="4.3,76.4 4.3,75.4 2.7,75.4 2.7,76.4 4,76.4 "/>
<polygon fill="#A77C39" points="4,77.3 4,76.4 2.7,76.4 2.2,76.4 2.2,77.3 3.7,77.3 "/>
<polygon fill="#EBD467" points="11.9,77.3 12.2,77.3 13.7,77.3 13.7,76.4 13.2,76.4 11.9,76.4 "/>
<polygon fill="#EBD467" points="13.7,77.3 12.2,77.3 12.2,78.3 14.2,78.3 14.2,77.3 "/>
<polygon fill="#A77C39" points="2.2,77.3 1.7,77.3 1.7,78.3 3.7,78.3 3.7,77.3 "/>
<polygon fill="#EBD467" points="9.7,76.4 11.5,76.4 11.5,75.4 9.5,75.4 9.5,76.4 "/>
<polygon fill="#E5952E" points="6.2,76.4 6.4,76.4 6.4,75.4 4.3,75.4 4.3,76.4 "/>
<polygon fill="#EBD467" points="11.5,76.4 9.7,76.4 9.7,77.3 9.8,77.3 11.9,77.3 11.9,76.4 "/>
<polygon fill="#E5952E" points="4.3,76.4 4,76.4 4,77.3 6.1,77.3 6.2,77.3 6.2,76.4 "/>
<polygon fill="#EBD467" points="11.9,77.3 9.8,77.3 9.8,78.3 12.2,78.3 12.2,77.3 "/>
<polygon fill="#E5952E" points="4,77.3 3.7,77.3 3.7,78.3 6.1,78.3 6.1,77.3 "/>
<rect x="6.4" y="75.4" fill="#FBB03B" width="3.2" height="1"/>
<polygon fill="#FBB03B" points="9.5,76.4 6.4,76.4 6.2,76.4 6.2,77.3 9.7,77.3 9.7,76.4 "/>
<polygon fill="#FBB03B" points="9.7,77.3 6.2,77.3 6.1,77.3 6.1,78.3 9.8,78.3 9.8,77.3 "/>
<g>
	<g>
		<defs>
			<rect id="SVGID_7_" x="2.7" y="76.2" width="10.5" height="0.2"/>
		</defs>
		<clipPath id="SVGID_8_">
			<use xlink:href="#SVGID_7_"  overflow="visible"/>
		</clipPath>
		<rect x="2.7" y="76.2" clip-path="url(#SVGID_8_)" fill="#EBD467" width="10.5" height="0.2"/>
	</g>
</g>
<g>
	<g>
		<defs>
			<rect id="SVGID_9_" x="2.2" y="77.1" width="11.4" height="0.2"/>
		</defs>
		<clipPath id="SVGID_10_">
			<use xlink:href="#SVGID_9_"  overflow="visible"/>
		</clipPath>
		<rect x="2.2" y="77.1" clip-path="url(#SVGID_10_)" fill="#EBD467" width="11.4" height="0.2"/>
	</g>
</g>
</svg>
