<?xml version="1.0" encoding="utf-8"?>
<!-- Generator: Adobe Illustrator 15.0.2, SVG Export Plug-In . SVG Version: 6.00 Build 0)  -->
<!DOCTYPE svg PUBLIC "-//W3C//DTD SVG 1.1//EN" "http://www.w3.org/Graphics/SVG/1.1/DTD/svg11.dtd">
<svg version="1.1" id="Layer_1" xmlns="http://www.w3.org/2000/svg" xmlns:xlink="http://www.w3.org/1999/xlink" x="0px" y="0px"
	 width="59.5px" height="57.8px" viewBox="0 0 59.5 57.8" enable-background="new 0 0 59.5 57.8" xml:space="preserve">
<path fill="none" stroke="#465761" stroke-width="0.582" stroke-miterlimit="10" d="M2.9,26.6c0.8-2.4-0.1-5.5-1.2-7.6
	c-1.2-2.4-1.7-5.6-1.4-8.4c0.3-2.1,3-4.4,4.8-5.4c1.8-1,4.3-1.4,6.4-1.5c3.1,0,6.3,0.2,9.4-0.4c2.6-0.5,4.9-1.5,7.4-2.1"/>
<path fill="none" stroke="#465761" stroke-width="0.582" stroke-miterlimit="10" d="M33,1.3c2,0,3.9,0.1,5.8,0.7c3,1,6,2.6,8.9,3.8
	c1.4,0.6,2.7,0.5,4,1c0.9,0.3,1.8,0.9,2.7,1.4c2.5,1.5,3.1,3.3,3.6,6c0.4,2.1,0.4,4.4,0.4,6.6c0,1.5,0.4,4.3-0.4,5.5"/>
<path fill="none" stroke="#465761" stroke-width="0.582" stroke-miterlimit="10" d="M58.4,31.4C57.2,37.1,58.6,43,58,48.8
	c-0.2,1.8-1.5,4-2.9,5.1c-0.8,0.6-1.9,1.3-2.9,1.5c-1.3,0.3-2.8-0.2-4.1-0.3c-2.8-0.3-5.8,0-8.4,0.5c-1.2,0.2-2.4,0.3-3.6,0.3
	c-0.9,0-2.3-0.3-3,0.4"/>
<path fill="none" stroke="#465761" stroke-width="0.582" stroke-miterlimit="10" d="M28.3,56.3c-3.2-0.3-6.5-0.5-9.7-0.4
	c-2.4,0.1-4.1-0.1-6.4-0.9c-2.4-0.9-3.6-1.8-4.8-4.1c-1.1-2.1-0.9-4.7-1.4-7c-0.5-2.1-1.1-3.9-2.1-5.8c-1.1-2.2-1.5-4.1-1.5-6.5"/>
<path fill="#D4D4D4" d="M30.7,53.5c-13.5,0-24.5-11-24.5-24.5c0-13.5,11-24.5,24.5-24.5c1.3,0,2.5,0.1,3.8,0.3
	C35.3,4.2,36.1,3.6,37,3c-2-0.5-4.1-0.8-6.3-0.8C15.9,2.3,3.9,14.2,3.9,29s12,26.8,26.8,26.8c2.2,0,4.3-0.3,6.3-0.8
	c-0.9-0.6-1.7-1.2-2.5-1.8C33.2,53.4,32,53.5,30.7,53.5"/>
<path fill="#E8E8E8" d="M6.2,29c0,13.5,11,24.5,24.5,24.5c1.3,0,2.5-0.1,3.8-0.3c-2.8-2.3-5.2-5.1-7.1-8.3
	C20,43.4,14.4,36.8,14.4,29c0-7.8,5.5-14.4,12.9-15.9c1.9-3.2,4.3-6,7.1-8.3c-1.2-0.2-2.5-0.3-3.8-0.3C17.2,4.5,6.2,15.5,6.2,29"/>
<path fill="#EFEFEF" d="M18.5,29c0-4.7,2.6-8.8,6.5-10.8c0.6-1.8,1.4-3.5,2.4-5.1C20,14.7,14.4,21.2,14.4,29
	c0,7.8,5.5,14.4,12.9,15.9c-0.9-1.6-1.7-3.3-2.4-5.1C21.1,37.8,18.5,33.7,18.5,29"/>
<path fill="#EFEFEF" d="M57.4,29c0-12.6-8.7-23.2-20.5-26c-0.9,0.6-1.7,1.2-2.5,1.8c11.7,1.8,20.7,12,20.7,24.2s-9,22.4-20.7,24.2
	c0.8,0.7,1.7,1.3,2.5,1.8C48.7,52.2,57.4,41.6,57.4,29"/>
<path fill="#E8E8E8" d="M27.4,13.1c1.1-0.2,2.2-0.3,3.3-0.3c9,0,16.2,7.3,16.2,16.2c0,9-7.3,16.2-16.2,16.2c-1.1,0-2.3-0.1-3.3-0.3
	c1.9,3.2,4.3,6,7.1,8.3c11.7-1.8,20.7-12,20.7-24.2s-9-22.4-20.7-24.2C31.6,7.1,29.2,9.9,27.4,13.1"/>
<path fill="#D4D4D4" d="M46.9,29c0-9-7.3-16.2-16.2-16.2c-1.1,0-2.3,0.1-3.3,0.3c-0.9,1.6-1.7,3.3-2.4,5.1c1.7-0.9,3.6-1.4,5.7-1.4
	c6.7,0,12.2,5.5,12.2,12.2s-5.5,12.2-12.2,12.2c-2.1,0-4-0.5-5.7-1.4c0.6,1.8,1.4,3.5,2.4,5.1c1.1,0.2,2.2,0.3,3.3,0.3
	C39.6,45.3,46.9,38,46.9,29"/>
<path fill="#FFFFFF" d="M30.9,8.5c0,0,0.5,0,1.5,0.1c0.5,0,1.1,0.1,1.7,0.2c0.3,0.1,0.7,0.1,1.1,0.2C35.6,9,36,9.1,36.4,9.2
	c1.7,0.5,3.8,1.1,6,2.5c2.1,1.3,4.4,3.2,6.2,5.7c1.8,2.6,3.1,5.8,3.5,9.4c0.1,0.4,0,0.9,0.1,1.4c0,0.5,0.1,0.9,0,1.4
	c-0.1,0.9-0.1,1.8-0.3,2.7c-0.3,1.9-0.9,3.7-1.7,5.5c-0.8,1.8-2,3.4-3.2,4.9c-1.3,1.5-2.8,2.8-4.5,4c-1.7,1.1-3.5,2-5.5,2.6
	c-2,0.6-4,1-6.1,1.1c-2,0-4.1-0.2-6.1-0.7c-2-0.6-3.9-1.4-5.7-2.5c-1.7-1.1-3.3-2.5-4.6-4c-1.3-1.6-2.4-3.3-3.2-5.1
	c-0.8-1.8-1.4-3.7-1.6-5.6c-0.2-0.9-0.2-1.9-0.2-2.8c0-0.1,0-0.2,0-0.4l0-0.3l0-0.7c0-0.4,0-0.9,0.1-1.3c0.5-3.7,1.8-6.9,3.6-9.5
	c1.8-2.6,4.1-4.4,6.2-5.7c2.1-1.3,4.3-2,6-2.5c0.4-0.1,0.8-0.2,1.2-0.3c0.4-0.1,0.8-0.1,1.1-0.2c0.7-0.1,1.3-0.2,1.7-0.2
	C30.4,8.5,30.9,8.5,30.9,8.5 M30.9,8.6c0,0-0.5,0-1.4,0.1c-0.5,0-1.1,0.1-1.7,0.2C27.4,9,27,9,26.6,9.1c-0.4,0.1-0.8,0.2-1.2,0.3
	c-1.7,0.5-3.7,1.4-5.6,2.8c-2,1.4-3.9,3.4-5.5,5.9c-1.5,2.5-2.7,5.6-3.1,8.8c-0.3,3.4,0.1,6.9,1.6,10.3c0.7,1.7,1.7,3.3,2.9,4.7
	c1.2,1.5,2.6,2.7,4.2,3.8c1.6,1.1,3.4,1.9,5.2,2.6c1.9,0.6,3.8,0.9,5.8,1c1.9,0,4-0.2,5.9-0.7c1.9-0.6,3.7-1.4,5.4-2.5
	c1.6-1.1,3.1-2.4,4.3-3.9c1.2-1.5,2.2-3.2,2.9-4.9c0.7-1.7,1.2-3.5,1.3-5.3c0.1-0.8,0.1-1.8,0.1-2.7c0-0.8-0.1-1.7-0.2-2.5
	c-0.4-3.3-1.6-6.3-3.2-8.8c-1.6-2.5-3.5-4.5-5.5-5.9c-2-1.4-4-2.3-5.6-2.8c-0.4-0.1-0.8-0.2-1.2-0.3C34.8,9,34.4,9,34.1,8.9
	c-0.7-0.1-1.2-0.2-1.7-0.2C31.4,8.7,30.9,8.6,30.9,8.6"/>
<g>
	<g>
		<defs>
			<rect id="SVGID_1_" x="3.9" y="2.3" width="53.5" height="53.5"/>
		</defs>
		<clipPath id="SVGID_2_">
			<use xlink:href="#SVGID_1_"  overflow="visible"/>
		</clipPath>
		<path clip-path="url(#SVGID_2_)" fill="#D6543B" d="M18.7,26.4c0.4-1.8,1.2-3.4,2.2-4.7L5.8,19.1c-0.5,1.3-1,2.7-1.3,4.2
			c-1.2,5.4-0.7,10.7,1.2,15.4l15-2.5C18.8,33.4,18,29.9,18.7,26.4"/>
		<path clip-path="url(#SVGID_2_)" fill="#D6543B" d="M42.6,31.6c-0.4,1.7-1.1,3.2-2,4.5l15,2.5c0.5-1.3,0.9-2.6,1.2-3.9
			c1.2-5.4,0.6-10.9-1.3-15.7l-15.1,2.6C42.5,24.4,43.4,28,42.6,31.6"/>
		<path clip-path="url(#SVGID_2_)" fill="#D6543B" d="M36.4,2.9c-2.1-0.5-4.2-0.7-6.3-0.6c-3.2,0.1-6.4,0.7-9.3,1.9l2.5,15.1
			c2.7-2,6.3-2.9,9.9-2.1c1.7,0.4,3.2,1.1,4.6,2.1l2.5-15.1C39.2,3.6,37.8,3.2,36.4,2.9"/>
		<path clip-path="url(#SVGID_2_)" fill="#D6543B" d="M24.9,55.1c5.4,1.2,10.7,0.7,15.5-1.2l-2.5-15.1c-1.2,0.9-2.5,1.5-4,1.9
			c-1.9,0.5-3.9,0.6-5.9,0.2c-1.7-0.4-3.3-1.1-4.7-2.1l-2.5,15.1C22.1,54.4,23.5,54.8,24.9,55.1"/>
	</g>
</g>
<rect x="1.8" y="26.6" fill="#D6543B" width="2.4" height="5"/>
<rect x="57.2" y="26.4" fill="#D6543B" width="2.4" height="5"/>
<rect x="28.3" y="55.4" fill="#D6543B" width="5" height="2.4"/>
<rect x="28.1" fill="#D6543B" width="5" height="2.4"/>
</svg>
