<?xml version="1.0" encoding="utf-8"?>
<!-- Generator: Adobe Illustrator 15.0.2, SVG Export Plug-In . SVG Version: 6.00 Build 0)  -->
<!DOCTYPE svg PUBLIC "-//W3C//DTD SVG 1.1//EN" "http://www.w3.org/Graphics/SVG/1.1/DTD/svg11.dtd">
<svg version="1.1" id="Layer_1" xmlns="http://www.w3.org/2000/svg" xmlns:xlink="http://www.w3.org/1999/xlink" x="0px" y="0px"
	 width="35.1px" height="59.4px" viewBox="0 0 35.1 59.4" enable-background="new 0 0 35.1 59.4" xml:space="preserve">
<path fill="#B69C5B" d="M25.3,53.2v-7.3c-1-2.4-7.7-2.1-7.7-2.1s-6.8-0.3-7.7,2.1v7.3c0,0-0.1,1.4,2.1,2.8c2.2,1.4,2.3,2.1,2.3,2.1
	s0.3,1.2,3.3,1.2c3,0,3.3-1.2,3.3-1.2s0.1-0.8,2.3-2.1C25.4,54.7,25.3,53.2,25.3,53.2"/>
<path fill="#252A26" d="M20.9,57.5c0,0-0.3,0.8-3.3,0.8c-3,0-3.3-0.8-3.3-0.8s-0.1-0.4-1.9-1.2c1.8,1.2,1.9,1.8,1.9,1.8
	s0.3,1.2,3.3,1.2c3,0,3.3-1.2,3.3-1.2s0.1-0.6,1.9-1.8C21,57.1,20.9,57.5,20.9,57.5"/>
<g>
	<g>
		<defs>
			<rect id="SVGID_1_" x="9.9" y="43.8" width="15.5" height="15.6"/>
		</defs>
		<clipPath id="SVGID_2_">
			<use xlink:href="#SVGID_1_"  overflow="visible"/>
		</clipPath>
		<path clip-path="url(#SVGID_2_)" fill="#B69C5B" d="M14.8,58.2c0,0-0.1-0.8-2-2.1c-1.9-1.4-1.8-2.8-1.8-2.8v-7.3
			c0.7-1.9,4.5-2.1,5.9-2.2c-1.7,0-6.4,0.2-7.2,2.2v7.3c0,0-0.1,1.4,2.1,2.8c2.2,1.4,2.3,2.1,2.3,2.1s0.3,1.2,3.3,1.2
			C15.1,59.4,14.8,58.2,14.8,58.2"/>
		<path clip-path="url(#SVGID_2_)" fill="#B69C5B" d="M25.3,53.2v-7.3c-0.8-2-5.5-2.2-7.2-2.2c1.5,0,5.3,0.2,5.9,2.2v7.3
			c0,0,0.1,1.4-1.8,2.8c-1.9,1.4-2,2.1-2,2.1s-0.2,1.2-2.8,1.2c3,0,3.3-1.2,3.3-1.2s0.1-0.8,2.3-2.1C25.4,54.7,25.3,53.2,25.3,53.2"
			/>
	</g>
</g>
<g opacity="0.9">
	<g>
		<defs>
			<rect id="SVGID_3_" x="0.2" y="0.1" width="34.9" height="47.4"/>
		</defs>
		<clipPath id="SVGID_4_">
			<use xlink:href="#SVGID_3_"  overflow="visible"/>
		</clipPath>
		<path clip-path="url(#SVGID_4_)" fill="#E8E9E8" d="M34.7,20.9c0.2-1,0.3-2,0.3-3.1c0-0.2,0-0.3,0-0.3c0-9.6-7.8-17.4-17.4-17.4
			S0.2,7.9,0.2,17.5c0,0,0,0.1,0,0.3c0,1.1,0.1,2.1,0.3,3.1c0.5,2.7,1.5,6.6,4.1,10.3C8.6,36.8,8,43.7,8,43.7s-0.2,3.7,9.6,3.7
			c9.8,0,9.6-3.7,9.6-3.7s-0.6-6.9,3.4-12.6C33.2,27.5,34.3,23.6,34.7,20.9"/>
	</g>
</g>
<g opacity="0.3">
	<g>
		<defs>
			<rect id="SVGID_5_" x="0.1" width="35" height="47.5"/>
		</defs>
		<clipPath id="SVGID_6_">
			<use xlink:href="#SVGID_5_"  overflow="visible"/>
		</clipPath>
		<path clip-path="url(#SVGID_6_)" fill="#828981" d="M34.7,20.9c0.5-2.7,0.4-5.5-0.4-8.2c-0.8-2.7-2.2-5.1-4.1-7.1
			c-1.9-2-4.3-3.6-6.9-4.5c-2.6-0.9-5.4-1.2-8.1-0.8C9.8,1,4.8,4.5,2.3,9.4c-1.3,2.4-2,5.2-2,7.9c0,1.4,0.1,2.7,0.4,4.1
			c0.3,1.3,0.6,2.7,1.1,4c0.5,1.3,1,2.6,1.7,3.8c0.6,1.2,1.5,2.3,2.2,3.5C7,35,7.8,37.8,8,40.5c0.1,0.7,0.1,1.4,0.1,2.1
			c0,0.3,0,0.7,0,1c0,0.3,0.1,0.7,0.3,0.9c0.7,1.2,2.1,1.8,3.4,2.1c2.7,0.7,5.5,0.7,8.2,0.6c1.4-0.1,2.7-0.3,4.1-0.7
			c0.7-0.2,1.3-0.5,1.8-0.9c0.6-0.4,1-0.9,1.2-1.6c0.1-0.3,0-0.7,0-1c0-0.3,0-0.7,0-1c0-0.7,0.1-1.4,0.2-2.1c0.2-1.4,0.5-2.7,0.9-4
			s1-2.6,1.7-3.8c0.4-0.6,0.8-1.2,1.1-1.7c0.4-0.6,0.7-1.2,1.1-1.8C33.4,26.3,34.3,23.6,34.7,20.9 M34.7,20.9
			c-0.5,2.7-1.3,5.4-2.6,7.8c-0.3,0.6-0.7,1.2-1,1.8c-0.4,0.6-0.8,1.1-1.1,1.7c-0.7,1.2-1.3,2.5-1.7,3.8c-0.4,1.3-0.7,2.7-0.9,4
			c-0.1,0.7-0.1,1.4-0.2,2.1c0,0.3,0,0.7,0,1c0,0.3,0.1,0.7,0,1c-0.2,0.7-0.7,1.2-1.3,1.6c-0.6,0.4-1.2,0.7-1.9,0.9
			c-1.3,0.4-2.7,0.6-4.1,0.7c-2.8,0.2-5.6,0.1-8.3-0.6c-1.3-0.4-2.7-1-3.5-2.2c-0.2-0.3-0.3-0.7-0.3-1c0-0.3,0-0.7,0-1
			c0-0.7,0-1.4-0.1-2.1c-0.3-2.7-1-5.4-2.4-7.8c-0.7-1.2-1.5-2.3-2.2-3.5C2.6,28,2,26.7,1.6,25.4c-0.5-1.3-0.8-2.6-1.1-4
			c-0.3-1.4-0.4-2.7-0.4-4.1c0-2.8,0.7-5.5,2.1-8c2.6-4.9,7.6-8.5,13.2-9.1C18-0.2,20.9,0.1,23.5,1c2.6,0.9,5,2.5,6.9,4.5
			c1.9,2,3.3,4.5,4.1,7.1C35.2,15.3,35.3,18.2,34.7,20.9"/>
	</g>
</g>
<g opacity="0.5">
	<g>
		<defs>
			<rect id="SVGID_7_" y="0.1" width="34.9" height="47.4"/>
		</defs>
		<clipPath id="SVGID_8_">
			<use xlink:href="#SVGID_7_"  overflow="visible"/>
		</clipPath>
		<g opacity="0.9" clip-path="url(#SVGID_8_)">
			<g>
				<defs>
					<rect id="SVGID_9_" y="0.1" width="17.4" height="47.4"/>
				</defs>
				<clipPath id="SVGID_10_">
					<use xlink:href="#SVGID_9_"  overflow="visible"/>
				</clipPath>
				<path clip-path="url(#SVGID_10_)" fill="#D8DAD8" d="M8.8,43.7c0,0,0.5-6.9-3-12.6c-2.3-3.7-3.3-7.6-3.7-10.3
					c-0.2-1-0.3-2-0.3-3.1c0-0.2,0-0.3,0-0.3c0-9.6,7-17.4,15.7-17.4C7.8,0.1,0,7.9,0,17.5c0,0,0,0.1,0,0.3c0,1.1,0.1,2.1,0.3,3.1
					c0.5,2.7,1.5,6.6,4.1,10.3c4,5.7,3.4,12.6,3.4,12.6s-0.2,3.7,9.6,3.7C8.6,47.5,8.8,43.7,8.8,43.7"/>
			</g>
		</g>
		<g opacity="0.9" clip-path="url(#SVGID_8_)">
			<g>
				<defs>
					<rect id="SVGID_11_" x="17.4" y="0.1" width="17.5" height="47.4"/>
				</defs>
				<clipPath id="SVGID_12_">
					<use xlink:href="#SVGID_11_"  overflow="visible"/>
				</clipPath>
				<path clip-path="url(#SVGID_12_)" fill="#D8DAD8" d="M34.9,17.5c0-9.6-7.8-17.4-17.4-17.4c8.7,0,15.7,7.8,15.7,17.4
					c0,0,0,0.1,0,0.3c0,1.1-0.1,2.1-0.3,3.1c-0.4,2.7-1.4,6.6-3.7,10.3c-3.6,5.7-3,12.6-3,12.6s0.2,3.7-8.6,3.7
					c9.8,0,9.6-3.7,9.6-3.7s-0.6-6.9,3.4-12.6c2.6-3.7,3.7-7.6,4.1-10.3c0.2-1,0.3-2,0.3-3.1C34.9,17.6,34.9,17.5,34.9,17.5"/>
			</g>
		</g>
		<g opacity="0.9" clip-path="url(#SVGID_8_)">
			<g>
				<defs>
					<rect id="SVGID_13_" x="17.4" y="0.1" width="15.7" height="47.4"/>
				</defs>
				<clipPath id="SVGID_14_">
					<use xlink:href="#SVGID_13_"  overflow="visible"/>
				</clipPath>
				<path clip-path="url(#SVGID_14_)" fill="#E8E9E8" d="M26,43.7c0,0-0.5-6.9,3-12.6c2.3-3.7,3.3-7.6,3.7-10.3c0.2-1,0.3-2,0.3-3.1
					c0-0.2,0-0.3,0-0.3c0-9.6-7-17.4-15.7-17.4c8.2,0,14.9,7.8,14.9,17.4c0,0,0,0.1,0,0.3c0,1.1-0.1,2.1-0.3,3.1
					c-0.4,2.7-1.3,6.6-3.5,10.3c-3.4,5.7-2.9,12.6-2.9,12.6s0.2,3.7-8.2,3.7C26.2,47.5,26,43.7,26,43.7"/>
			</g>
		</g>
		<g opacity="0.9" clip-path="url(#SVGID_8_)">
			<g>
				<defs>
					<rect id="SVGID_15_" x="17.4" y="0.1" width="15.7" height="47.4"/>
				</defs>
				<clipPath id="SVGID_16_">
					<use xlink:href="#SVGID_15_"  overflow="visible"/>
				</clipPath>
				<path clip-path="url(#SVGID_16_)" fill="#F7F8F7" d="M26,43.7c0,0-0.5-6.9,3-12.6c2.3-3.7,3.3-7.6,3.7-10.3c0.2-1,0.3-2,0.3-3.1
					c0-0.2,0-0.3,0-0.3c0-9.6-7-17.4-15.7-17.4c8.2,0,14.9,7.8,14.9,17.4c0,0,0,0.1,0,0.3c0,1.1-0.1,2.1-0.3,3.1
					c-0.4,2.7-1.3,6.6-3.5,10.3c-3.4,5.7-2.9,12.6-2.9,12.6s0.2,3.7-8.2,3.7C26.2,47.5,26,43.7,26,43.7"/>
			</g>
		</g>
		<g opacity="0.9" clip-path="url(#SVGID_8_)">
			<g>
				<defs>
					<rect id="SVGID_17_" x="1.8" y="0.1" width="15.7" height="47.4"/>
				</defs>
				<clipPath id="SVGID_18_">
					<use xlink:href="#SVGID_17_"  overflow="visible"/>
				</clipPath>
				<path clip-path="url(#SVGID_18_)" fill="#E8E9E8" d="M9.3,43.7c0,0,0.5-6.9-2.9-12.6c-2.2-3.7-3.1-7.6-3.5-10.3
					c-0.2-1-0.3-2-0.3-3.1c0-0.2,0-0.3,0-0.3c0-9.6,6.7-17.4,14.9-17.4C8.8,0.1,1.8,7.9,1.8,17.5c0,0,0,0.1,0,0.3
					c0,1.1,0.1,2.1,0.3,3.1c0.4,2.7,1.4,6.6,3.7,10.3c3.6,5.7,3,12.6,3,12.6s-0.2,3.7,8.6,3.7C9.1,47.5,9.3,43.7,9.3,43.7"/>
			</g>
		</g>
		<g opacity="0.9" clip-path="url(#SVGID_8_)">
			<g>
				<defs>
					<rect id="SVGID_19_" x="1.8" y="0.1" width="15.7" height="47.4"/>
				</defs>
				<clipPath id="SVGID_20_">
					<use xlink:href="#SVGID_19_"  overflow="visible"/>
				</clipPath>
				<path clip-path="url(#SVGID_20_)" fill="#F7F8F7" d="M9.3,43.7c0,0,0.5-6.9-2.9-12.6c-2.2-3.7-3.1-7.6-3.5-10.3
					c-0.2-1-0.3-2-0.3-3.1c0-0.2,0-0.3,0-0.3c0-9.6,6.7-17.4,14.9-17.4C8.8,0.1,1.8,7.9,1.8,17.5c0,0,0,0.1,0,0.3
					c0,1.1,0.1,2.1,0.3,3.1c0.4,2.7,1.4,6.6,3.7,10.3c3.6,5.7,3,12.6,3,12.6s-0.2,3.7,8.6,3.7C9.1,47.5,9.3,43.7,9.3,43.7"/>
			</g>
		</g>
	</g>
</g>
<path fill="#72583C" d="M25.2,47.5c0,0.4-0.2,0.7-0.4,0.9c-0.2,0.3-0.5,0.5-0.8,0.7c-0.6,0.4-1.2,0.7-1.9,0.9
	c-1.3,0.5-2.7,0.7-4.1,0.8c-1.4,0-2.7,0-4.1-0.1c-0.7-0.1-1.4-0.2-2-0.3c-0.3-0.1-0.7-0.2-1-0.4c-0.3-0.1-0.7-0.4-0.6-0.8
	c0.1,0.4,0.4,0.5,0.7,0.6c0.3,0.1,0.6,0.1,1,0.1c0.7,0,1.3,0,2,0l4.1,0c1.3,0,2.6-0.2,3.9-0.5c0.6-0.2,1.3-0.4,1.9-0.6
	c0.3-0.1,0.6-0.3,0.9-0.5C24.9,48,25.2,47.8,25.2,47.5"/>
<path fill="#72583C" d="M25,49.8c0,0.4-0.2,0.7-0.4,0.9c-0.2,0.3-0.5,0.5-0.8,0.7c-0.6,0.4-1.2,0.7-1.9,0.9
	c-1.3,0.5-2.7,0.7-4.1,0.8c-1.4,0-2.7,0-4.1-0.1c-0.7-0.1-1.4-0.2-2-0.3c-0.3-0.1-0.7-0.2-1-0.4c-0.3-0.1-0.7-0.4-0.6-0.8
	c0.1,0.4,0.4,0.5,0.7,0.6c0.3,0.1,0.6,0.1,1,0.1c0.7,0,1.3,0,2,0l4.1,0c1.3,0,2.6-0.2,3.9-0.5c0.6-0.2,1.3-0.4,1.9-0.6
	c0.3-0.1,0.6-0.3,0.9-0.5C24.7,50.4,25,50.2,25,49.8"/>
<path fill="#72583C" d="M25,52.2c0,0.4-0.2,0.7-0.4,0.9c-0.2,0.3-0.5,0.5-0.8,0.7c-0.6,0.4-1.2,0.7-1.9,0.9
	c-1.3,0.5-2.7,0.7-4.1,0.8c-1.4,0-2.7,0-4.1-0.1c-0.7-0.1-1.4-0.2-2-0.3c-0.3-0.1-0.7-0.2-1-0.4c-0.3-0.1-0.7-0.4-0.6-0.8
	c0.1,0.4,0.4,0.5,0.7,0.6c0.3,0.1,0.6,0.1,1,0.1c0.7,0,1.3,0,2,0l4.1,0c1.3,0,2.6-0.2,3.9-0.5c0.6-0.2,1.3-0.4,1.9-0.6
	c0.3-0.1,0.6-0.3,0.9-0.5C24.7,52.7,25,52.5,25,52.2"/>
<g>
	<g>
		<defs>
			<rect id="SVGID_21_" x="10.2" y="47.5" width="15" height="2.6"/>
		</defs>
		<clipPath id="SVGID_22_">
			<use xlink:href="#SVGID_21_"  overflow="visible"/>
		</clipPath>
		<path clip-path="url(#SVGID_22_)" fill="#72583C" d="M25.2,47.5c0,0.3-0.3,0.6-0.5,0.8c-0.3,0.2-0.6,0.4-0.9,0.5
			c-0.6,0.3-1.3,0.5-1.9,0.7c-1.3,0.3-2.7,0.5-4,0.5l-4,0c-0.7,0-1.3,0-2-0.1c-0.3,0-0.7-0.1-1-0.2c-0.3-0.1-0.7-0.3-0.7-0.7
			c0,0.4,0.4,0.5,0.7,0.5c0.3,0.1,0.7,0.1,1,0.1c0.7,0,1.3,0,2-0.1c1.3-0.1,2.7-0.1,4-0.1c1.3,0,2.6-0.1,3.9-0.4
			c0.6-0.1,1.3-0.3,1.9-0.5c0.3-0.1,0.6-0.3,0.9-0.4C24.9,48,25.2,47.8,25.2,47.5"/>
	</g>
</g>
<g>
	<g>
		<defs>
			<rect id="SVGID_23_" x="10" y="49.8" width="15" height="2.6"/>
		</defs>
		<clipPath id="SVGID_24_">
			<use xlink:href="#SVGID_23_"  overflow="visible"/>
		</clipPath>
		<path clip-path="url(#SVGID_24_)" fill="#72583C" d="M25,49.8c0,0.3-0.3,0.6-0.5,0.8c-0.3,0.2-0.6,0.4-0.9,0.5
			c-0.6,0.3-1.3,0.5-1.9,0.7c-1.3,0.3-2.7,0.5-4,0.5l-4,0c-0.7,0-1.3,0-2-0.1c-0.3,0-0.7-0.1-1-0.2c-0.3-0.1-0.7-0.3-0.7-0.7
			c0,0.4,0.4,0.5,0.7,0.5c0.3,0.1,0.7,0.1,1,0.1c0.7,0,1.3,0,2-0.1c1.3-0.1,2.7-0.1,4-0.1c1.3,0,2.6-0.1,3.9-0.4
			c0.6-0.1,1.3-0.3,1.9-0.5c0.3-0.1,0.6-0.3,0.9-0.4C24.7,50.4,25,50.2,25,49.8"/>
	</g>
</g>
<g>
	<g>
		<defs>
			<rect id="SVGID_25_" x="10" y="52.2" width="15" height="2.6"/>
		</defs>
		<clipPath id="SVGID_26_">
			<use xlink:href="#SVGID_25_"  overflow="visible"/>
		</clipPath>
		<path clip-path="url(#SVGID_26_)" fill="#72583C" d="M25,52.2c0,0.3-0.3,0.6-0.5,0.8c-0.3,0.2-0.6,0.4-0.9,0.5
			c-0.6,0.3-1.3,0.5-1.9,0.7c-1.3,0.3-2.7,0.5-4,0.5l-4,0c-0.7,0-1.3,0-2-0.1c-0.3,0-0.7-0.1-1-0.2c-0.3-0.1-0.7-0.3-0.7-0.7
			c0,0.4,0.4,0.5,0.7,0.5c0.3,0.1,0.7,0.1,1,0.1c0.7,0,1.3,0,2-0.1c1.3-0.1,2.7-0.1,4-0.1c1.3,0,2.6-0.1,3.9-0.4
			c0.6-0.1,1.3-0.3,1.9-0.5c0.3-0.1,0.6-0.3,0.9-0.4C24.7,52.7,25,52.5,25,52.2"/>
	</g>
</g>
<path fill="#D3D4D4" d="M19.6,39.1c0,0-0.5-1,0.5-2.2c1-1.2,0.1-4.9-2.6-5l0,0c0,0,0,0,0,0s0,0,0,0l0,0c-2.8,0-3.6,3.8-2.6,5
	c1,1.2,0.5,2.2,0.5,2.2l-1,1.7v5.9l0.4,0.1v-5.8l0.9-1.7c0,0,0.4-1-0.4-2.2c-0.8-1.2-0.1-4.9,2.3-5v0c0,0,0,0,0,0s0,0,0,0v0
	c2.4,0,3.1,3.8,2.3,5c-0.8,1.2-0.4,2.2-0.4,2.2l0.9,1.7v5.8l0.4-0.1v-5.9L19.6,39.1z"/>
<path fill="#E7E8E7" d="M19.4,39.1c0,0-0.4-1,0.4-2.2c0.9-1.2,0.1-4.9-2.4-5l0,0c0,0,0,0,0,0s0,0,0,0l0,0c-2.5,0-3.3,3.8-2.4,5
	c0.9,1.2,0.4,2.2,0.4,2.2l-0.9,1.7v5.9l0.4,0.1v-5.8l0.8-1.7c0,0,0.4-1-0.4-2.2c-0.8-1.2-0.1-4.9,2.1-5v0c0,0,0,0,0,0s0,0,0,0v0
	c2.2,0,2.8,3.8,2.1,5c-0.8,1.2-0.4,2.2-0.4,2.2l0.8,1.7v5.8l0.4-0.1v-5.9L19.4,39.1z"/>
<path fill="none" stroke="#5C5F5C" stroke-width="0.111" stroke-miterlimit="10" d="M15.2,46.8c0,0,1.2-5.5,0.8-7.9
	c-0.4-2.4-0.7-5.3-0.6-5.6s-2-10.7-2-10.7"/>
<path fill="#5C5F5C" d="M13.6,22.7c0,0.1,0,0.2-0.1,0.2c-0.1,0-0.2,0-0.2-0.1l-0.5-2.2c0-0.1,0-0.2,0.1-0.2c0.1,0,0.2,0,0.2,0.1
	L13.6,22.7z"/>
<line fill="none" stroke="#5C5F5C" stroke-width="0.237" stroke-miterlimit="10" x1="12.2" y1="20.9" x2="13" y2="20.7"/>
<path fill="none" stroke="#5C5F5C" stroke-width="0.111" stroke-miterlimit="10" d="M19.7,46.8c0,0-1.2-5.5-0.8-7.9
	c0.4-2.4,0.7-5.3,0.6-5.6s2-10.7,2-10.7"/>
<path fill="#5C5F5C" d="M21.3,22.7c0,0.1,0,0.2,0.1,0.2c0.1,0,0.2,0,0.2-0.1l0.5-2.2c0-0.1,0-0.2-0.1-0.2c-0.1,0-0.2,0-0.2,0.1
	L21.3,22.7z"/>
<line fill="none" stroke="#5C5F5C" stroke-width="0.237" stroke-miterlimit="10" x1="22.7" y1="20.9" x2="21.9" y2="20.7"/>
<polyline fill="none" stroke="#EFDD85" stroke-width="0.101" stroke-miterlimit="10" points="13,20.7 13.3,21.1 13.6,20.7 
	13.9,21.1 14.2,20.7 14.5,21.1 14.8,20.7 15.1,21.1 15.4,20.7 15.7,21.1 16,20.7 16.3,21.1 16.6,20.7 16.8,21.1 17.1,20.7 
	17.4,21.1 17.7,20.7 18,21.1 18.3,20.7 18.6,21.1 18.9,20.7 19.2,21.1 19.5,20.7 19.8,21.1 20.1,20.7 20.4,21.1 20.7,20.7 21,21.1 
	21.3,20.7 21.6,21.1 21.9,20.7 "/>
<g>
	<g>
		<defs>
			<rect id="SVGID_27_" x="3" y="5.7" width="28.9" height="29"/>
		</defs>
		<clipPath id="SVGID_28_">
			<use xlink:href="#SVGID_27_"  overflow="visible"/>
		</clipPath>
		<g opacity="0" clip-path="url(#SVGID_28_)">
			<g>
				<defs>
					<rect id="SVGID_29_" x="3" y="5.7" width="28.9" height="29"/>
				</defs>
				<clipPath id="SVGID_30_">
					<use xlink:href="#SVGID_29_"  overflow="visible"/>
				</clipPath>
				<path clip-path="url(#SVGID_30_)" fill="#FBF6E1" d="M31.9,20.2c0,8-6.5,14.5-14.5,14.5S3,28.2,3,20.2S9.4,5.7,17.4,5.7
					S31.9,12.2,31.9,20.2"/>
			</g>
		</g>
		<g opacity="0.2" clip-path="url(#SVGID_28_)">
			<g>
				<defs>
					<rect id="SVGID_31_" x="5.1" y="7.9" width="24.7" height="24.7"/>
				</defs>
				<clipPath id="SVGID_32_">
					<use xlink:href="#SVGID_31_"  overflow="visible"/>
				</clipPath>
				<path clip-path="url(#SVGID_32_)" fill="#F8EFC8" d="M29.8,20.2c0,6.8-5.5,12.3-12.3,12.3S5.1,27,5.1,20.2
					c0-6.8,5.5-12.3,12.3-12.3S29.8,13.4,29.8,20.2"/>
			</g>
		</g>
		<g opacity="0.4" clip-path="url(#SVGID_28_)">
			<g>
				<defs>
					<rect id="SVGID_33_" x="7.2" y="10" width="20.4" height="20.4"/>
				</defs>
				<clipPath id="SVGID_34_">
					<use xlink:href="#SVGID_33_"  overflow="visible"/>
				</clipPath>
				<path clip-path="url(#SVGID_34_)" fill="#F5E9B0" d="M27.6,20.2c0,5.6-4.6,10.2-10.2,10.2S7.2,25.9,7.2,20.2S11.8,10,17.4,10
					S27.6,14.6,27.6,20.2"/>
			</g>
		</g>
		<g opacity="0.6" clip-path="url(#SVGID_28_)">
			<g>
				<defs>
					<rect id="SVGID_35_" x="9.4" y="12.2" width="16.1" height="16.1"/>
				</defs>
				<clipPath id="SVGID_36_">
					<use xlink:href="#SVGID_35_"  overflow="visible"/>
				</clipPath>
				<path clip-path="url(#SVGID_36_)" fill="#F1E298" d="M25.5,20.2c0,4.5-3.6,8.1-8.1,8.1s-8.1-3.6-8.1-8.1s3.6-8.1,8.1-8.1
					S25.5,15.8,25.5,20.2"/>
			</g>
		</g>
		<g opacity="0.8" clip-path="url(#SVGID_28_)">
			<g>
				<defs>
					<rect id="SVGID_37_" x="11.5" y="14.3" width="11.8" height="11.8"/>
				</defs>
				<clipPath id="SVGID_38_">
					<use xlink:href="#SVGID_37_"  overflow="visible"/>
				</clipPath>
				<path clip-path="url(#SVGID_38_)" fill="#EEDB7F" d="M23.4,20.2c0,3.3-2.7,5.9-5.9,5.9s-5.9-2.7-5.9-5.9s2.7-5.9,5.9-5.9
					S23.4,16.9,23.4,20.2"/>
			</g>
		</g>
		<g clip-path="url(#SVGID_28_)">
			<g>
				<defs>
					<rect id="SVGID_39_" x="13.7" y="16.4" width="7.6" height="7.6"/>
				</defs>
				<clipPath id="SVGID_40_">
					<use xlink:href="#SVGID_39_"  overflow="visible"/>
				</clipPath>
				<path clip-path="url(#SVGID_40_)" fill="#EBD467" d="M21.2,20.2c0,2.1-1.7,3.8-3.8,3.8s-3.8-1.7-3.8-3.8s1.7-3.8,3.8-3.8
					S21.2,18.1,21.2,20.2"/>
			</g>
		</g>
	</g>
</g>
<g>
	<g>
		<defs>
			<rect id="SVGID_41_" x="6.6" y="9.9" width="21.6" height="21.6"/>
		</defs>
		<clipPath id="SVGID_42_">
			<use xlink:href="#SVGID_41_"  overflow="visible"/>
		</clipPath>
		<g opacity="0" clip-path="url(#SVGID_42_)">
			<g>
				<defs>
					<rect id="SVGID_43_" x="6.6" y="9.9" width="21.6" height="21.6"/>
				</defs>
				<clipPath id="SVGID_44_">
					<use xlink:href="#SVGID_43_"  overflow="visible"/>
				</clipPath>
				<path clip-path="url(#SVGID_44_)" fill="#FBF6E1" d="M28.2,20.7c0,6-4.8,10.8-10.8,10.8S6.6,26.6,6.6,20.7S11.5,9.9,17.4,9.9
					S28.2,14.7,28.2,20.7"/>
			</g>
		</g>
		<g opacity="0.2" clip-path="url(#SVGID_42_)">
			<g>
				<defs>
					<rect id="SVGID_45_" x="8.2" y="11.5" width="18.4" height="18.4"/>
				</defs>
				<clipPath id="SVGID_46_">
					<use xlink:href="#SVGID_45_"  overflow="visible"/>
				</clipPath>
				<path clip-path="url(#SVGID_46_)" fill="#F8EFC8" d="M26.7,20.7c0,5.1-4.1,9.2-9.2,9.2c-5.1,0-9.2-4.1-9.2-9.2s4.1-9.2,9.2-9.2
					C22.5,11.5,26.7,15.6,26.7,20.7"/>
			</g>
		</g>
		<g opacity="0.4" clip-path="url(#SVGID_42_)">
			<g>
				<defs>
					<rect id="SVGID_47_" x="9.8" y="13.1" width="15.2" height="15.2"/>
				</defs>
				<clipPath id="SVGID_48_">
					<use xlink:href="#SVGID_47_"  overflow="visible"/>
				</clipPath>
				<path clip-path="url(#SVGID_48_)" fill="#F5E9B0" d="M25.1,20.7c0,4.2-3.4,7.6-7.6,7.6s-7.6-3.4-7.6-7.6s3.4-7.6,7.6-7.6
					S25.1,16.5,25.1,20.7"/>
			</g>
		</g>
		<g opacity="0.6" clip-path="url(#SVGID_42_)">
			<g>
				<defs>
					<rect id="SVGID_49_" x="11.4" y="14.7" width="12" height="12"/>
				</defs>
				<clipPath id="SVGID_50_">
					<use xlink:href="#SVGID_49_"  overflow="visible"/>
				</clipPath>
				<path clip-path="url(#SVGID_50_)" fill="#F1E298" d="M23.5,20.7c0,3.3-2.7,6-6,6c-3.3,0-6-2.7-6-6c0-3.3,2.7-6,6-6
					C20.8,14.7,23.5,17.3,23.5,20.7"/>
			</g>
		</g>
		<g opacity="0.8" clip-path="url(#SVGID_42_)">
			<g>
				<defs>
					<rect id="SVGID_51_" x="13" y="16.2" width="8.8" height="8.8"/>
				</defs>
				<clipPath id="SVGID_52_">
					<use xlink:href="#SVGID_51_"  overflow="visible"/>
				</clipPath>
				<path clip-path="url(#SVGID_52_)" fill="#EEDB7F" d="M21.9,20.7c0,2.4-2,4.4-4.4,4.4s-4.4-2-4.4-4.4s2-4.4,4.4-4.4
					S21.9,18.2,21.9,20.7"/>
			</g>
		</g>
		<g clip-path="url(#SVGID_42_)">
			<g>
				<defs>
					<rect id="SVGID_53_" x="14.6" y="17.8" width="5.7" height="5.6"/>
				</defs>
				<clipPath id="SVGID_54_">
					<use xlink:href="#SVGID_53_"  overflow="visible"/>
				</clipPath>
				<path clip-path="url(#SVGID_54_)" fill="#EBD467" d="M20.3,20.7c0,1.6-1.3,2.8-2.8,2.8s-2.8-1.3-2.8-2.8s1.3-2.8,2.8-2.8
					S20.3,19.1,20.3,20.7"/>
			</g>
		</g>
	</g>
</g>
</svg>
