<?xml version="1.0" encoding="utf-8"?>
<!-- Generator: Adobe Illustrator 15.0.2, SVG Export Plug-In . SVG Version: 6.00 Build 0)  -->
<!DOCTYPE svg PUBLIC "-//W3C//DTD SVG 1.1//EN" "http://www.w3.org/Graphics/SVG/1.1/DTD/svg11.dtd">
<svg version="1.1" id="Layer_1" xmlns="http://www.w3.org/2000/svg" xmlns:xlink="http://www.w3.org/1999/xlink" x="0px" y="0px"
	 width="52.5px" height="52.5px" viewBox="0 0 52.5 52.5" enable-background="new 0 0 52.5 52.5" xml:space="preserve">
<path fill="#E8E5D1" d="M5.4,50.9c-2.1,0-3.9-1.7-3.9-3.9V5.4c0-2.1,1.7-3.9,3.9-3.9h41.7c2.1,0,3.9,1.7,3.9,3.9v41.7
	c0,2.1-1.7,3.9-3.9,3.9H5.4z"/>
<path fill="#E8E5D1" d="M3.1,5.4c0-1.3,1-2.3,2.3-2.3h41.7c1.3,0,2.3,1,2.3,2.3v0.1h3.1V5.4c0-3-2.4-5.4-5.4-5.4H5.4
	C2.4,0,0,2.4,0,5.4v0.1h3.1V5.4z"/>
<path fill="#E8E5D1" d="M47.1,49.4H5.4c-1.2,0-2.2-0.9-2.3-2.1H0c0.1,2.9,2.5,5.2,5.4,5.2h41.7c2.9,0,5.3-2.3,5.4-5.2h-3.1
	C49.3,48.5,48.3,49.4,47.1,49.4"/>
<path fill="#EEECDD" d="M52.5,5.5h-3.1v41.5c0,0.1,0,0.2,0,0.2h3.1c0-0.1,0-0.1,0-0.2V5.5z"/>
<path fill="#EEECDD" d="M3.1,47.1V5.5H0v41.5c0,0.1,0,0.2,0,0.2h3.1C3.1,47.2,3.1,47.1,3.1,47.1"/>
<g>
	<g>
		<defs>
			<rect id="SVGID_1_" width="52.5" height="5.5"/>
		</defs>
		<clipPath id="SVGID_2_">
			<use xlink:href="#SVGID_1_"  overflow="visible"/>
		</clipPath>
		<path clip-path="url(#SVGID_2_)" fill="#E8E5D1" d="M3.1,5.4c0-1.3,1-2.3,2.3-2.3h41.7c1.3,0,2.3,1,2.3,2.3v0.1h3.1V5.4
			c0-3-2.4-5.4-5.4-5.4H5.4C2.4,0,0,2.4,0,5.4v0.1h3.1V5.4z"/>
	</g>
</g>
<g opacity="0.5">
	<g>
		<defs>
			<rect id="SVGID_3_" x="0" y="47.3" width="52.5" height="5.2"/>
		</defs>
		<clipPath id="SVGID_4_">
			<use xlink:href="#SVGID_3_"  overflow="visible"/>
		</clipPath>
		<path clip-path="url(#SVGID_4_)" fill="#E8E5D1" d="M47.1,49.4H5.4c-1.2,0-2.2-0.9-2.3-2.1H0c0.1,2.9,2.5,5.2,5.4,5.2h41.7
			c2.9,0,5.3-2.3,5.4-5.2h-3.1C49.3,48.5,48.3,49.4,47.1,49.4"/>
	</g>
</g>
<path fill="#C4C5C4" d="M12.4,26.5c0,1.3-1.1,2.4-2.4,2.4c-1.3,0-2.4-1.1-2.4-2.4c0-0.1,0-0.1,0-0.2c-0.2,0-0.3-0.1-0.5-0.1
	c0,0.1,0,0.2,0,0.3c0,1.6,1.3,2.9,2.9,2.9c1.6,0,2.9-1.3,2.9-2.9c0-0.1,0-0.2,0-0.3c-0.2,0-0.3,0.1-0.5,0.1
	C12.4,26.4,12.4,26.4,12.4,26.5"/>
<path fill="#676A67" d="M10,23.6c-1.5,0-2.7,1.1-2.9,2.6c0.2,0,0.3,0.1,0.5,0.1c0.1-1.2,1.1-2.2,2.4-2.2c1.3,0,2.3,1,2.4,2.2
	c0.2,0,0.3-0.1,0.5-0.1C12.7,24.7,11.5,23.6,10,23.6"/>
<path fill="#A8AAA8" d="M12.6,26.5c0,1.5-1.2,2.6-2.6,2.6c-1.5,0-2.6-1.2-2.6-2.6c0-1.5,1.2-2.6,2.6-2.6
	C11.4,23.9,12.6,25,12.6,26.5"/>
<path fill="#515551" d="M8.7,25.2c0,0,0.2,0.1,0.6,0.3c0.3,0.2,0.7,0.5,1,0.8c0.3,0.3,0.6,0.7,0.8,1c0.2,0.3,0.3,0.6,0.3,0.6
	s-0.2-0.1-0.6-0.3c-0.3-0.2-0.7-0.5-1-0.8c-0.3-0.3-0.6-0.7-0.8-1C8.8,25.4,8.7,25.2,8.7,25.2"/>
<path fill="#515551" d="M8.7,27.8c0,0,0.1-0.2,0.3-0.6c0.2-0.3,0.5-0.7,0.8-1c0.3-0.3,0.7-0.6,1-0.8c0.3-0.2,0.6-0.3,0.6-0.3
	s-0.1,0.2-0.3,0.6c-0.2,0.3-0.5,0.7-0.8,1c-0.3,0.3-0.7,0.6-1,0.8C8.9,27.7,8.7,27.8,8.7,27.8"/>
<path fill="#C4C5C4" d="M44.9,26.3c0,1.3-1.1,2.4-2.4,2.4c-1.3,0-2.4-1.1-2.4-2.4c0-0.1,0-0.1,0-0.2c-0.2,0-0.3-0.1-0.5-0.1
	c0,0.1,0,0.2,0,0.3c0,1.6,1.3,2.9,2.9,2.9c1.6,0,2.9-1.3,2.9-2.9c0-0.1,0-0.2,0-0.3c-0.2,0-0.3,0.1-0.5,0.1
	C44.9,26.2,44.9,26.3,44.9,26.3"/>
<path fill="#676A67" d="M42.5,23.4c-1.5,0-2.7,1.1-2.9,2.6c0.2,0,0.3,0.1,0.5,0.1c0.1-1.2,1.1-2.2,2.4-2.2s2.3,1,2.4,2.2
	c0.2,0,0.3-0.1,0.5-0.1C45.2,24.6,44,23.4,42.5,23.4"/>
<path fill="#A8AAA8" d="M45.2,26.3c0,1.5-1.2,2.6-2.6,2.6c-1.5,0-2.6-1.2-2.6-2.6c0-1.5,1.2-2.6,2.6-2.6
	C44,23.7,45.2,24.9,45.2,26.3"/>
<path fill="#515551" d="M41.2,25c0,0,0.2,0.1,0.6,0.3c0.3,0.2,0.7,0.5,1,0.8c0.3,0.3,0.6,0.7,0.8,1c0.2,0.3,0.3,0.6,0.3,0.6
	s-0.2-0.1-0.6-0.3c-0.3-0.2-0.7-0.5-1-0.8c-0.3-0.3-0.6-0.7-0.8-1C41.3,25.3,41.2,25,41.2,25"/>
<path fill="#515551" d="M41.2,27.6c0,0,0.1-0.2,0.3-0.6c0.2-0.3,0.5-0.7,0.8-1c0.3-0.3,0.7-0.6,1-0.8c0.3-0.2,0.6-0.3,0.6-0.3
	s-0.1,0.2-0.3,0.6c-0.2,0.3-0.5,0.7-0.8,1c-0.3,0.3-0.7,0.6-1,0.8C41.5,27.5,41.2,27.6,41.2,27.6"/>
<g opacity="0.5">
	<g>
		<defs>
			<rect id="SVGID_5_" x="20.3" y="16.4" width="11.8" height="21.7"/>
		</defs>
		<clipPath id="SVGID_6_">
			<use xlink:href="#SVGID_5_"  overflow="visible"/>
		</clipPath>
		<path clip-path="url(#SVGID_6_)" fill="#E8E5D1" d="M32.2,37.3c0,0.4-0.3,0.8-0.8,0.8H21.1c-0.4,0-0.8-0.3-0.8-0.8V17.1
			c0-0.4,0.3-0.8,0.8-0.8h10.3c0.4,0,0.8,0.3,0.8,0.8V37.3z"/>
	</g>
</g>
<path fill="#E9EAE9" d="M32.2,35.9c0,0.4-0.3,0.8-0.8,0.8H21.1c-0.4,0-0.8-0.3-0.8-0.8V15.7c0-0.4,0.3-0.8,0.8-0.8h10.3
	c0.4,0,0.8,0.3,0.8,0.8V35.9z"/>
<rect x="21.7" y="16.4" fill="#252A26" width="9.2" height="18.9"/>
<rect x="21.9" y="16.8" fill="#E9EAE9" width="8.6" height="17.8"/>
<g opacity="0.5">
	<g>
		<defs>
			<rect id="SVGID_7_" x="21.9" y="31.8" width="8.6" height="2.8"/>
		</defs>
		<clipPath id="SVGID_8_">
			<use xlink:href="#SVGID_7_"  overflow="visible"/>
		</clipPath>
		<rect x="21.9" y="31.8" clip-path="url(#SVGID_8_)" fill="#E8E5D1" width="8.6" height="2.8"/>
	</g>
</g>
</svg>
