<?xml version="1.0" encoding="utf-8"?>
<!-- Generator: Adobe Illustrator 15.0.2, SVG Export Plug-In . SVG Version: 6.00 Build 0)  -->
<!DOCTYPE svg PUBLIC "-//W3C//DTD SVG 1.1//EN" "http://www.w3.org/Graphics/SVG/1.1/DTD/svg11.dtd">
<svg version="1.1" id="Layer_1" xmlns="http://www.w3.org/2000/svg" xmlns:xlink="http://www.w3.org/1999/xlink" x="0px" y="0px"
	 width="67.8px" height="67.8px" viewBox="0 0 67.8 67.8" enable-background="new 0 0 67.8 67.8" xml:space="preserve">
<rect x="13" y="35.5" transform="matrix(0.7071 0.7071 -0.7071 0.7071 41.0571 3.2124)" fill="#8E8D8D" width="7.3" height="31.4"/>
<rect x="-1.3" y="48.4" transform="matrix(0.7071 -0.7071 0.7071 0.7071 -30.3852 24.544)" fill="#646263" width="31.4" height="1.1"/>
<rect x="3.2" y="52.9" transform="matrix(0.7071 -0.7071 0.7071 0.7071 -32.2203 28.974)" fill="#646263" width="31.4" height="1.1"/>
<rect x="0.9" y="50.2" transform="matrix(0.7071 -0.7071 0.7071 0.7071 -31.3022 26.7582)" fill="#C7C7C7" width="31.4" height="2"/>
<g opacity="0.4">
	<g>
		<defs>
			<rect id="SVGID_1_" x="27.8" y="4.1" width="35.9" height="35.9"/>
		</defs>
		<clipPath id="SVGID_2_">
			<use xlink:href="#SVGID_1_"  overflow="visible"/>
		</clipPath>
		<path clip-path="url(#SVGID_2_)" fill="#9BCBDE" d="M58.5,34.7c-7,7-18.4,7-25.4,0c-7-7-7-18.4,0-25.4c7-7,18.4-7,25.4,0
			C65.5,16.4,65.5,27.7,58.5,34.7"/>
	</g>
</g>
<g opacity="0.4">
	<g>
		<defs>
			<rect id="SVGID_3_" x="36.7" y="6.2" width="25" height="25"/>
		</defs>
		<clipPath id="SVGID_4_">
			<use xlink:href="#SVGID_3_"  overflow="visible"/>
		</clipPath>
		<path clip-path="url(#SVGID_4_)" fill="#D2E8F0" d="M44.6,23.2c4.6,4.6,9.8,7.4,14,7.9c4.5-6.1,4.1-14.8-1.5-20.4
			c-5.6-5.6-14.3-6.1-20.4-1.5C37.2,13.4,40,18.6,44.6,23.2"/>
	</g>
</g>
<g opacity="0.4">
	<g>
		<defs>
			<rect id="SVGID_5_" x="32.2" y="4.1" width="31.5" height="31.5"/>
		</defs>
		<clipPath id="SVGID_6_">
			<use xlink:href="#SVGID_5_"  overflow="visible"/>
		</clipPath>
		<path clip-path="url(#SVGID_6_)" fill="#9BCBDE" d="M56.7,11.1c6.7,6.7,7,17.4,0.8,24.5c0.3-0.3,0.6-0.5,0.9-0.8
			c7-7,7-18.4,0-25.4c-7-7-18.4-7-25.4,0c-0.3,0.3-0.6,0.6-0.8,0.9C39.3,4.1,50,4.4,56.7,11.1"/>
	</g>
</g>
<g opacity="0.4">
	<g>
		<defs>
			<rect id="SVGID_7_" x="27.8" y="4.1" width="35.9" height="35.9"/>
		</defs>
		<clipPath id="SVGID_8_">
			<use xlink:href="#SVGID_7_"  overflow="visible"/>
		</clipPath>
		<path clip-path="url(#SVGID_8_)" fill="#9BCBDE" d="M45.8,4.9L45.8,4.9c4.6,0,8.9,1.8,12.1,5c3.2,3.2,5,7.5,5,12.1
			c0,4.6-1.8,8.9-5,12.1c-3.2,3.2-7.5,5-12.1,5s-8.9-1.8-12.1-5c-3.2-3.2-5-7.5-5-12.1s1.8-8.9,5-12.1C36.9,6.7,41.2,4.9,45.8,4.9
			 M45.8,4.1c-4.6,0-9.2,1.8-12.7,5.3c-7,7-7,18.4,0,25.4c3.5,3.5,8.1,5.3,12.7,5.3c4.6,0,9.2-1.8,12.7-5.3c7-7,7-18.4,0-25.4
			C55,5.8,50.4,4.1,45.8,4.1"/>
	</g>
</g>
<rect x="23.5" y="35.4" transform="matrix(0.7072 0.7071 -0.7071 0.7072 36.0895 -8.7738)" fill="#B6B5B5" width="10.3" height="7.6"/>
<rect x="21.7" y="35.3" transform="matrix(0.7071 -0.7071 0.7071 0.7071 -18.0269 28.6101)" fill="#9C9A9B" width="7.6" height="1.5"/>
<rect x="27.9" y="41.6" transform="matrix(0.7071 -0.7071 0.7071 0.7071 -20.6087 34.841)" fill="#9C9A9B" width="7.6" height="1.5"/>
<rect x="24.8" y="37.8" transform="matrix(0.7071 -0.7071 0.7071 0.7071 -19.3181 31.7253)" fill="#DCDBDB" width="7.6" height="2.8"/>
<rect x="-0.6" y="61.9" transform="matrix(0.7072 0.7071 -0.7071 0.7072 46.0499 15.2703)" fill="#B6B5B5" width="10.3" height="2.7"/>
<rect x="0.1" y="59.4" transform="matrix(0.7075 -0.7067 0.7067 0.7075 -42.0522 18.6266)" fill="#9C9A9B" width="2.7" height="1.5"/>
<rect x="6.4" y="65.6" transform="matrix(0.7073 -0.7069 0.7069 0.7073 -44.6442 24.8667)" fill="#9C9A9B" width="2.7" height="1.5"/>
<rect x="3.2" y="61.8" transform="matrix(0.7071 -0.7071 0.7071 0.7071 -43.3646 21.7646)" fill="#DCDBDB" width="2.7" height="2.8"/>
<path fill="#676465" d="M30.2,37.6c-8.6-8.6-8.6-22.6,0-31.2s22.6-8.6,31.2,0C70,15,70,29,61.4,37.6S38.8,46.2,30.2,37.6 M58.3,9.5
	c-6.9-6.9-18.2-6.9-25.1,0s-6.9,18.2,0,25.1c6.9,6.9,18.2,6.9,25.1,0S65.3,16.4,58.3,9.5"/>
<path fill="#918F90" d="M33.2,34.6c-6.9-6.9-6.9-18.2,0-25.1L32,8.3c-7.6,7.6-7.6,19.9,0,27.5c7.6,7.6,19.9,7.6,27.5,0l-1.2-1.2
	C51.4,41.5,40.1,41.5,33.2,34.6"/>
<path fill="#4F4C4D" d="M59.6,8.3C52,0.7,39.6,0.7,32,8.3l1.2,1.2c6.9-6.9,18.2-6.9,25.1,0c6.9,6.9,6.9,18.2,0,25.1l1.2,1.2
	C67.1,28.2,67.1,15.9,59.6,8.3"/>
</svg>
