<?xml version="1.0" encoding="utf-8"?>
<!-- Generator: Adobe Illustrator 15.0.2, SVG Export Plug-In . SVG Version: 6.00 Build 0)  -->
<!DOCTYPE svg PUBLIC "-//W3C//DTD SVG 1.1//EN" "http://www.w3.org/Graphics/SVG/1.1/DTD/svg11.dtd">
<svg version="1.1" id="Layer_1" xmlns="http://www.w3.org/2000/svg" xmlns:xlink="http://www.w3.org/1999/xlink" x="0px" y="0px"
	 width="34.4px" height="67.3px" viewBox="0 0 34.4 67.3" enable-background="new 0 0 34.4 67.3" xml:space="preserve">
<path fill="#B52126" d="M30.1,59.1c2.6-4.6,4.1-10.6,4.1-17.2c0-2.5-0.2-4.8-0.6-7.1c0-0.2-0.1-0.5-0.1-0.7
	c-0.1-0.3-0.1-0.6-0.2-0.9c-1.5-7.1-1.5-13.5-1.4-16.7c0.1-0.6,0.1-1.2,0.1-1.7c0-0.1,0-0.2,0-0.3c0-0.1,0-0.1,0-0.1h0
	C31.7,6.4,25.2,0,17.2,0C9.1,0,2.5,6.6,2.5,14.8c0,0.8,0.1,1.5,0.2,2.3c0.1,3.1,0,8.7-1.2,14.9c-0.8,3.1-1.2,6.4-1.2,9.9
	c0,6.6,1.5,12.6,4.1,17.2C1.6,60.2,0,61.8,0,63.4c0,3.6,7.7,3.8,17.2,3.8c9.5,0,17.2-0.2,17.2-3.8C34.4,61.8,32.8,60.2,30.1,59.1"/>
<g>
	<g>
		<defs>
			<rect id="SVGID_1_" x="17.2" y="36.1" width="17.2" height="31.2"/>
		</defs>
		<clipPath id="SVGID_2_">
			<use xlink:href="#SVGID_1_"  overflow="visible"/>
		</clipPath>
		<path clip-path="url(#SVGID_2_)" fill="#B52126" d="M30.1,59.1c2.6-4.6,4.1-10.6,4.1-17.2c0-2-0.1-3.9-0.4-5.8
			c0.2,1.2,0.3,2.5,0.4,3.8c-0.4,0.9-0.9,1.8-1.4,2.6c-0.1,6.3-1.5,12.1-3.8,16.6c2.5,1.2,4,2.7,4,4.3c0,3.6-7.1,3.8-15.8,3.8
			c9.5,0,17.2-0.2,17.2-3.8C34.4,61.8,32.8,60.2,30.1,59.1"/>
	</g>
</g>
<g>
	<g>
		<defs>
			<rect id="SVGID_3_" x="0" y="39.9" width="17.2" height="27.4"/>
		</defs>
		<clipPath id="SVGID_4_">
			<use xlink:href="#SVGID_3_"  overflow="visible"/>
		</clipPath>
		<path clip-path="url(#SVGID_4_)" fill="#B52126" d="M1.4,63.4c0-1.7,1.5-3.2,4-4.3c-2.3-4.5-3.7-10.2-3.8-16.6
			c-0.5-0.8-0.9-1.7-1.4-2.6c0,0.7-0.1,1.3-0.1,2c0,6.6,1.5,12.6,4.1,17.2C1.6,60.2,0,61.8,0,63.4c0,3.6,7.7,3.8,17.2,3.8
			C8.5,67.3,1.4,67,1.4,63.4"/>
	</g>
</g>
<g>
	<g>
		<defs>
			<rect id="SVGID_5_" x="17.2" width="16.9" height="42.5"/>
		</defs>
		<clipPath id="SVGID_6_">
			<use xlink:href="#SVGID_5_"  overflow="visible"/>
		</clipPath>
		<path clip-path="url(#SVGID_6_)" fill="#F3EFD9" d="M17.2,0c7.3,0,13.3,6.4,13.5,14.5h0h0c0,0,0,0,0,0.1c0,0.1,0,0.2,0,0.3
			c0,0.6,0,1.2-0.1,1.7c-0.1,3.2,0,9.6,1.3,16.7c0.1,0.3,0.1,0.6,0.2,0.9h0c0,0.2,0.1,0.5,0.1,0.7c0.1,0.4,0.1,0.8,0.2,1.2
			c0,0,0,0.1,0,0.1c0.2,1.9,0.4,3.8,0.4,5.8c0,0.2,0,0.4,0,0.6c0.5-0.8,0.9-1.7,1.4-2.6c-0.1-1.3-0.2-2.6-0.4-3.8c0,0,0-0.1,0-0.1
			c-0.1-0.4-0.1-0.8-0.2-1.2c0-0.2-0.1-0.5-0.1-0.7c-0.1-0.3-0.1-0.6-0.2-0.9c-1.5-7.1-1.5-13.5-1.4-16.7c0.1-0.6,0.1-1.2,0.1-1.7
			c0-0.1,0-0.2,0-0.3c0-0.1,0-0.1,0-0.1h0l0,0C31.7,6.4,25.2,0,17.2,0"/>
	</g>
</g>
<g>
	<g>
		<defs>
			<rect id="SVGID_7_" x="0.3" width="16.9" height="42.5"/>
		</defs>
		<clipPath id="SVGID_8_">
			<use xlink:href="#SVGID_7_"  overflow="visible"/>
		</clipPath>
		<path clip-path="url(#SVGID_8_)" fill="#F3EFD9" d="M1.6,41.9c0-0.7,0-1.4,0-2l0,0c0,0,0-0.1,0-0.1c0-0.3,0-0.6,0-0.8
			c0-0.1,0-0.2,0-0.3c0-0.3,0-0.6,0.1-0.8c0,0,0,0,0,0c0-0.5,0.1-1,0.2-1.5c0-0.2,0.1-0.4,0.1-0.6c0-0.2,0-0.3,0.1-0.5
			c0-0.2,0.1-0.5,0.1-0.7c0-0.1,0-0.2,0.1-0.4c0.1-0.3,0.1-0.6,0.2-0.9c0-0.1,0-0.1,0-0.2c0.1-0.4,0.2-0.7,0.2-1.1
			c1.1-6.2,1.2-11.8,1.1-14.9c-0.1-0.7-0.2-1.5-0.2-2.3C3.7,6.7,9.7,0,17.2,0C9.1,0,2.5,6.7,2.5,14.8c0,0.8,0.1,1.5,0.2,2.3
			c0.1,3.1,0,8.7-1.2,14.9c-0.1,0.4-0.2,0.7-0.3,1.1c0,0.1,0,0.1,0,0.2C1.1,33.6,1,33.9,1,34.2c0,0.1,0,0.2-0.1,0.4
			c0,0.2-0.1,0.5-0.1,0.7c0,0.2-0.1,0.3-0.1,0.5c0,0.2-0.1,0.4-0.1,0.6c-0.1,0.8-0.2,1.6-0.3,2.4c0,0.1,0,0.2,0,0.2
			c0,0.3,0,0.6-0.1,0.8c0,0,0,0.1,0,0.1c0.4,0.9,0.9,1.8,1.3,2.6C1.6,42.3,1.6,42.1,1.6,41.9"/>
	</g>
</g>
<path fill="#F3EFD9" d="M33.4,34.1L33.4,34.1c-0.1-0.3-0.1-0.6-0.2-0.9c-1.4-7.1-1.5-13.5-1.4-16.7c0.1-0.6,0.1-1.2,0.1-1.7
	c0-0.1,0-0.2,0-0.3c0-0.1,0-0.1,0-0.1h0C31.7,6.4,25.2,0,17.2,0C9.1,0,2.5,6.6,2.5,14.8c0,0.8,0.1,1.5,0.2,2.3
	c0.1,3.1,0,8.7-1.2,14.9c-0.6,2.5-1,5.1-1.2,7.9c3.7,8,9.9,13.3,16.9,13.3c7,0,13.3-5.3,16.9-13.3c-0.1-1.7-0.3-3.4-0.6-5.1
	C33.5,34.6,33.5,34.4,33.4,34.1"/>
<path fill="none" stroke="#72583C" stroke-width="0.258" stroke-miterlimit="10" d="M3.1,21.2c0-0.6,6.4-1.1,14.3-1.1
	c7.9,0,14.3,0.5,14.3,1.1"/>
<path fill="none" stroke="#72583C" stroke-width="0.261" stroke-miterlimit="10" d="M2.6,24c0-0.6,6.5-1.1,14.6-1.1
	c8.1,0,14.6,0.5,14.6,1.1"/>
<path fill="none" stroke="#68111E" stroke-width="0.243" stroke-miterlimit="10" d="M29.9,58.9c0,0.6-5.7,1.1-12.6,1.1
	c-7,0-12.6-0.5-12.6-1.1"/>
<path fill="#C44E51" d="M33,62.4c0,0.2-0.1,0.3-0.3,0.5c-0.1,0.1-0.3,0.2-0.4,0.3c-0.3,0.2-0.6,0.3-1,0.5c-0.6,0.3-1.3,0.5-2,0.7
	c-1.4,0.2-2.7,0.3-4.1,0.4c-2.7,0.2-5.4,0.3-8.1,0.3c-2.7,0-5.4-0.1-8.1-0.3c-1.4-0.1-2.7-0.2-4.1-0.4c-0.7-0.2-1.3-0.4-2-0.7
	c-0.3-0.1-0.6-0.3-1-0.5c-0.2-0.1-0.3-0.2-0.4-0.3c-0.1-0.1-0.3-0.3-0.3-0.5c0.1,0.3,0.5,0.3,0.8,0.4c0.3,0.1,0.7,0.1,1,0.1
	c0.7,0,1.3,0,2,0c1.3,0.2,2.6,0.3,4,0.4c2.7,0.2,5.3,0.3,8,0.3c2.7,0,5.4-0.1,8-0.3c1.3-0.1,2.7-0.2,4-0.4c0.7,0,1.3,0,2,0
	c0.3,0,0.7,0,1-0.1C32.5,62.7,32.9,62.7,33,62.4"/>
<path fill="#F3EFD9" d="M13.6,25.3c0,0-2.2-0.9-4.1,2.4c-1.9,3.2-1.6,2.2-1.6,2.2l5.3,0.7c0,0,3.4,0.6,3.3-2.7
	c-0.1-3.3-0.3-2.6-0.3-2.6H13.6z"/>
<path fill="none" stroke="#72583C" stroke-width="0.261" stroke-miterlimit="10" d="M13.6,25.3c0,0-2.2-0.9-4.1,2.4
	c-1.9,3.2-1.6,2.2-1.6,2.2l5.3,0.7c0,0,3.4,0.6,3.3-2.7c-0.1-3.3-0.3-2.6-0.3-2.6H13.6z"/>
<path fill="#F3EFD9" d="M21.4,25.3c0,0,2.2-0.9,4.1,2.4c1.9,3.2,1.6,2.2,1.6,2.2l-5.3,0.7c0,0-3.4,0.6-3.3-2.7
	c0.1-3.3,0.3-2.6,0.3-2.6H21.4z"/>
<path fill="none" stroke="#72583C" stroke-width="0.261" stroke-miterlimit="10" d="M21.4,25.3c0,0,2.2-0.9,4.1,2.4
	c1.9,3.2,1.6,2.2,1.6,2.2l-5.3,0.7c0,0-3.4,0.6-3.3-2.7c0.1-3.3,0.3-2.6,0.3-2.6H21.4z"/>
<path fill="#F3EFD9" d="M19.1,26.7c0,0.9-0.8,1.7-1.7,1.7c-0.9,0-1.7-0.8-1.7-1.7c0-0.9,0.8-1.7,1.7-1.7
	C18.3,25,19.1,25.7,19.1,26.7"/>
<circle fill="none" stroke="#72583C" stroke-width="0.356" stroke-miterlimit="10" cx="17.4" cy="26.7" r="1.7"/>
<path fill="#F3EFD9" d="M28.4,15.4c0,6.2-5,11.2-11.2,11.2C11,26.6,6,21.6,6,15.4C6,9.2,11,4.2,17.2,4.2
	C23.4,4.2,28.4,9.2,28.4,15.4"/>
<circle fill="none" stroke="#72583C" stroke-width="0.258" stroke-miterlimit="10" cx="17.2" cy="15.4" r="11.2"/>
<path fill="#231F20" d="M19.9,12.1c0,0,0.1,0,0.1,0C20,12.1,20,12.1,19.9,12.1"/>
<path fill="#231F20" d="M28.4,14C27.7,8.5,23,4.2,17.3,4.2c-5.1,0-9.4,3.4-10.8,8c0.1,0,0.1-0.1,0.2-0.1C7.1,12,7.5,12,7.9,11.9
	c0.8-0.2,1.6-0.6,2.4-0.9c1.8-0.6,3.5-1,5-2.2l0.1-0.1c-0.1,1.1,1,2.9,1.8,3.6c0.6,0.7,1.5,1,2.4,1.3c-0.5-0.4-0.7-1.4-0.7-2.2
	c0.1,0.3,0.6,0.6,1,0.7c-0.4-0.2-0.5-1.4-0.5-1.7c0.4,0.5,1.1,0.6,1.8,0.7c0.9,0.2,1.8,0.4,2.7,0.7c1.1,0.4,2.4,0.5,3.3,1.2
	C27.6,13.3,28,13.7,28.4,14"/>
<path fill="#FFFFFF" d="M15.1,17.7c-1.3,0.4-2.6,0.3-3.7-0.4l-0.6-0.6c0.5-0.7,1.7-0.9,2.5-0.9c0.5,0,1,0,1.4,0.2
	c0.4,0.1,0.8,0.6,1.2,0.7L15.1,17.7z"/>
<g>
	<defs>
		<path id="SVGID_9_" d="M10.8,16.7l0.6,0.6c1.1,0.7,2.4,0.7,3.7,0.4l0.8-1.1c-0.4-0.1-0.8-0.6-1.2-0.7c-0.5-0.1-0.9-0.2-1.4-0.2
			C12.5,15.8,11.4,16.1,10.8,16.7"/>
	</defs>
	<clipPath id="SVGID_10_">
		<use xlink:href="#SVGID_9_"  overflow="visible"/>
	</clipPath>
	<path clip-path="url(#SVGID_10_)" fill="#B9E0ED" d="M14.6,16.5c0,0.7-0.5,1.2-1.2,1.2c-0.7,0-1.2-0.5-1.2-1.2
		c0-0.7,0.5-1.2,1.2-1.2C14.1,15.3,14.6,15.8,14.6,16.5"/>
	
		<circle clip-path="url(#SVGID_10_)" fill="none" stroke="#231F20" stroke-width="0.135" stroke-miterlimit="10" cx="13.4" cy="16.5" r="1.2"/>
	<path clip-path="url(#SVGID_10_)" fill="#231F20" d="M14.1,16.5c0,0.4-0.3,0.7-0.7,0.7c-0.4,0-0.7-0.3-0.7-0.7
		c0-0.4,0.3-0.7,0.7-0.7C13.8,15.8,14.1,16.1,14.1,16.5"/>
	<path clip-path="url(#SVGID_10_)" fill="#FFFFFF" d="M13.5,16.3c0,0.2-0.1,0.3-0.3,0.3c-0.2,0-0.3-0.1-0.3-0.3
		c0-0.2,0.1-0.3,0.3-0.3C13.4,16,13.5,16.1,13.5,16.3"/>
</g>
<path fill="#231F20" d="M15.6,14.5c-0.3-0.4-0.6-0.6-1-0.8c-0.4-0.2-0.8-0.3-1.2-0.3c-0.9,0-1.8,0.1-2.6,0.5
	c0.3-0.4,0.7-0.6,1.2-0.8c0.5-0.2,0.9-0.2,1.4-0.2c0.5,0,1,0.2,1.4,0.5C15.1,13.6,15.5,14,15.6,14.5"/>
<path fill="none" stroke="#231F20" stroke-width="0.237" stroke-miterlimit="10" d="M16,16.7c-0.4-0.1-0.8-0.6-1.2-0.7
	c-0.5-0.1-0.9-0.2-1.4-0.2c-0.8,0-2,0.3-2.5,1"/>
<path fill="none" stroke="#231F20" stroke-width="0.505" stroke-miterlimit="10" d="M11.4,17.4c1.1,0.7,2.4,0.7,3.7,0.4"/>
<path fill="none" stroke="#231F20" stroke-width="0.237" stroke-miterlimit="10" d="M11.8,16c-0.3-0.1-0.6-0.2-0.8-0.4
	c-0.2-0.2-0.2-0.3-0.3-0.5"/>
<path fill="none" stroke="#231F20" stroke-width="0.237" stroke-miterlimit="10" d="M11.3,16.2c-0.7-0.2-2.1-0.8-2-1.8"/>
<path fill="none" stroke="#231F20" stroke-width="0.237" stroke-miterlimit="10" d="M10.8,16.6c-0.4-0.1-1.2-0.5-1.5-0.8
	c-0.3-0.2-0.7-0.8-0.6-1.2"/>
<path fill="#FFFFFF" d="M19.3,17.7c1.3,0.4,2.6,0.3,3.7-0.4l0.6-0.6c-0.5-0.7-1.7-0.9-2.5-0.9c-0.5,0-1,0-1.4,0.2
	c-0.4,0.1-0.8,0.6-1.2,0.7L19.3,17.7z"/>
<g>
	<defs>
		<path id="SVGID_11_" d="M19.6,16c-0.4,0.1-0.8,0.6-1.2,0.7l0.8,1.1c1.3,0.4,2.6,0.3,3.7-0.4l0.6-0.6c-0.5-0.7-1.7-0.9-2.5-0.9
			C20.5,15.8,20.1,15.8,19.6,16"/>
	</defs>
	<clipPath id="SVGID_12_">
		<use xlink:href="#SVGID_11_"  overflow="visible"/>
	</clipPath>
	<path clip-path="url(#SVGID_12_)" fill="#B9E0ED" d="M19.8,16.5c0,0.7,0.5,1.2,1.2,1.2c0.7,0,1.2-0.5,1.2-1.2
		c0-0.7-0.5-1.2-1.2-1.2C20.3,15.3,19.8,15.8,19.8,16.5"/>
	
		<circle clip-path="url(#SVGID_12_)" fill="none" stroke="#231F20" stroke-width="0.135" stroke-miterlimit="10" cx="21" cy="16.5" r="1.2"/>
	<path clip-path="url(#SVGID_12_)" fill="#231F20" d="M20.3,16.5c0,0.4,0.3,0.7,0.7,0.7c0.4,0,0.7-0.3,0.7-0.7
		c0-0.4-0.3-0.7-0.7-0.7C20.6,15.8,20.3,16.1,20.3,16.5"/>
	<path clip-path="url(#SVGID_12_)" fill="#FFFFFF" d="M20.6,16.3c0,0.2,0.1,0.3,0.3,0.3s0.3-0.1,0.3-0.3c0-0.2-0.1-0.3-0.3-0.3
		S20.6,16.1,20.6,16.3"/>
</g>
<path fill="#231F20" d="M18.8,14.5c0.1-0.5,0.5-0.9,0.9-1.1c0.4-0.3,0.9-0.4,1.4-0.5c0.5,0,1,0,1.4,0.2c0.5,0.2,0.9,0.4,1.2,0.8
	c-0.8-0.4-1.7-0.5-2.6-0.5c-0.4,0-0.8,0.1-1.2,0.3C19.5,13.9,19.1,14.1,18.8,14.5"/>
<path fill="none" stroke="#231F20" stroke-width="0.237" stroke-miterlimit="10" d="M18.4,16.7c0.4-0.1,0.8-0.6,1.2-0.7
	c0.5-0.1,0.9-0.2,1.4-0.2c0.8,0,2,0.3,2.5,1"/>
<path fill="none" stroke="#231F20" stroke-width="0.505" stroke-miterlimit="10" d="M23,17.4c-1.1,0.7-2.4,0.7-3.7,0.4"/>
<path fill="none" stroke="#231F20" stroke-width="0.237" stroke-miterlimit="10" d="M22.7,16c0.3-0.1,0.6-0.2,0.8-0.4
	c0.2-0.2,0.2-0.3,0.3-0.5"/>
<path fill="none" stroke="#231F20" stroke-width="0.237" stroke-miterlimit="10" d="M23.1,16.2c0.7-0.2,2.1-0.8,2-1.8"/>
<path fill="none" stroke="#231F20" stroke-width="0.237" stroke-miterlimit="10" d="M23.6,16.6c0.4-0.1,1.2-0.5,1.5-0.8
	c0.3-0.2,0.7-0.8,0.6-1.2"/>
<path fill="#A82526" d="M17.8,21.8c-0.2,0.5-0.4,0.6-0.5,0.7c-0.1-0.1-0.4-0.2-0.5-0.7c-0.3-0.7-0.5,0.9-1.6,0.8h2h0.3h2
	C18.3,22.7,18.1,21.1,17.8,21.8"/>
<path fill="#C82257" d="M15.9,22.6h1.4v0.9C17.3,23.5,16.2,23.3,15.9,22.6"/>
<path fill="#C82257" d="M18.7,22.6h-1.4v0.9C17.3,23.5,18.4,23.3,18.7,22.6"/>
<path fill="#231F20" d="M17,20c0.1,0.2,0,0.4-0.2,0.4c-0.2,0.1-0.3,0-0.4-0.2c-0.1-0.2,0-0.4,0.2-0.4C16.7,19.7,16.9,19.8,17,20"/>
<path fill="#231F20" d="M17.6,20c-0.1,0.2,0,0.4,0.2,0.4c0.2,0.1,0.3,0,0.4-0.2c0.1-0.2,0-0.4-0.2-0.4C17.9,19.7,17.7,19.8,17.6,20"
	/>
<path fill="#D86489" d="M13,20.8c0,1.3-0.9,2.3-1.9,2.3c-1.1,0-1.9-1-1.9-2.3c0-1.3,0.9-2.3,1.9-2.3C12.1,18.4,13,19.5,13,20.8"/>
<path fill="#D86489" d="M25.5,20.8c0,1.3-0.9,2.3-1.9,2.3s-1.9-1-1.9-2.3c0-1.3,0.9-2.3,1.9-2.3S25.5,19.5,25.5,20.8"/>
<path fill="none" stroke="#72583C" stroke-width="0.239" stroke-linecap="round" stroke-linejoin="round" stroke-miterlimit="10" d="
	M6.2,23.3c0,0,0.8,2.4-2.3,3.9"/>
<path fill="none" stroke="#72583C" stroke-width="0.239" stroke-linecap="round" stroke-linejoin="round" stroke-miterlimit="10" d="
	M5.2,26.5c0,0,0.2,3-1.7,3.5"/>
<path fill="none" stroke="#72583C" stroke-width="0.239" stroke-linecap="round" stroke-linejoin="round" stroke-miterlimit="10" d="
	M4.3,29.7c0,0,0,1.9-1.2,2.5"/>
<path fill="none" stroke="#72583C" stroke-width="0.239" stroke-linecap="round" stroke-linejoin="round" stroke-miterlimit="10" d="
	M3.4,32.3c0,0-0.2,5.9,0,6.5c0,0-1.5,0.5-1.7,1.1"/>
<path fill="none" stroke="#72583C" stroke-width="0.239" stroke-linecap="round" stroke-linejoin="round" stroke-miterlimit="10" d="
	M3.3,39.1c0,0,1.4,2.7,1.4,2.8c0,0.1,0,0.6-0.4,0.3l0.4,1.4c0,0-0.1,0.4-0.4,0l-0.5-0.9l1,2.1c0,0,0.2,0.7-0.4,0.4l-1-1.8l0.9,1.5
	c0,0-0.1,0.6-0.6,0.4s-2-2.9-1.9-5"/>
<path fill="none" stroke="#72583C" stroke-width="0.239" stroke-linecap="round" stroke-linejoin="round" stroke-miterlimit="10" d="
	M28.2,23.3c0,0-0.8,2.4,2.3,3.9"/>
<path fill="none" stroke="#72583C" stroke-width="0.239" stroke-linecap="round" stroke-linejoin="round" stroke-miterlimit="10" d="
	M29.3,26.5c0,0-0.2,3,1.7,3.5"/>
<path fill="none" stroke="#72583C" stroke-width="0.239" stroke-linecap="round" stroke-linejoin="round" stroke-miterlimit="10" d="
	M30.2,29.7c0,0,0,1.9,1.2,2.5"/>
<path fill="none" stroke="#72583C" stroke-width="0.239" stroke-linecap="round" stroke-linejoin="round" stroke-miterlimit="10" d="
	M31,32.3c0,0,0.2,5.9,0,6.5c0,0,1.5,0.5,1.7,1.1"/>
<path fill="none" stroke="#72583C" stroke-width="0.239" stroke-linecap="round" stroke-linejoin="round" stroke-miterlimit="10" d="
	M31.2,39.1c0,0-1.4,2.7-1.4,2.8c0,0.1,0,0.6,0.4,0.3l-0.4,1.4c0,0,0.1,0.4,0.4,0l0.5-0.9l-1,2.1c0,0-0.2,0.7,0.4,0.4l1-1.8l-0.9,1.5
	c0,0,0.1,0.6,0.6,0.4s2-2.9,1.9-5"/>
<g opacity="0.5">
	<g>
		<defs>
			<rect id="SVGID_13_" x="18.2" y="2" width="13.1" height="56"/>
		</defs>
		<clipPath id="SVGID_14_">
			<use xlink:href="#SVGID_13_"  overflow="visible"/>
		</clipPath>
		<path clip-path="url(#SVGID_14_)" fill="#F1EEEC" d="M18.3,2c2.6,0.4,5,1.8,6.9,3.8c1.9,1.9,3.2,4.5,3.6,7.1
			c0.5,2.7,0,5.3-0.3,7.8c-0.2,2.5-0.2,5.1,0.1,7.6c0.2,1.2,0.4,2.5,0.8,3.5l0.4,0.8c0.1,0.3,0.3,0.7,0.4,1.1l0.4,1.9
			c0.5,2.6,0.8,5.2,0.6,7.9C30.9,48.8,28.9,54,25.7,58c0,0.1-0.1,0.1-0.2,0c0,0-0.1-0.1,0-0.1c1.9-4.7,3.1-9.6,3.2-14.5
			c0.1-2.4,0-4.9-0.3-7.4c-0.1-0.6-0.2-1.3-0.3-1.9c0-0.3-0.1-0.5-0.2-0.8c-0.1-0.3-0.2-0.6-0.3-1c-0.3-1.4-0.3-2.7-0.2-4
			c0.1-2.6,0.4-5.1,0.4-7.7c0-1.3,0-2.5-0.1-3.8c-0.2-1.2-0.4-2.4-0.8-3.6C26.3,11,25.3,8.9,23.8,7c-1.5-1.9-3.4-3.5-5.6-4.7l0,0
			c-0.1,0-0.1-0.1,0-0.2C18.2,2,18.3,2,18.3,2"/>
	</g>
</g>
<path fill="#A82526" d="M18,48.2c0,0-7.4-13.3-0.4-12.1c0,0,6.3-1.2,4.7,2.9c0,0-0.5,6.3-2.2,9.2C18.4,51,18.2,48.6,18,48.2"/>
<path fill="#A82526" d="M17.1,46.4c0,0-2.3-11.1-7.5-8.7c-5.2,2.4-3,1.7-3,1.7s1.5,2.1,3.1,2.2c1.7,0.1-0.9,1.2-1.5,1.3
	c-0.6,0.1-0.6,1-0.1,1.3c0.5,0.3,6.6-0.5,8.1,2.7C17.8,50,17.1,46.4,17.1,46.4"/>
<path fill="#A82526" d="M19.6,47.1c0,0,1.3-7,4.1-7.5c2.8-0.5,4,0.5,3.8,0.9s-0.4,0.6-0.3,1c0.1,0.4,1.9,1.6,0.3,2.7
	c-1.6,1.1-5.2,3.8-6.4,3.9C19.9,48.3,19.4,48,19.6,47.1"/>
<path fill="#666943" d="M18.6,49.4c0,0-2.4-8.6-12.2-6.2c0,0,3.1,1.1,2.8,2.4c0,0-0.4,0.7-1.6,0.4C6.4,45.9,9.1,50.3,18.6,49.4"/>
<path fill="#666943" d="M19,49.3c0,0,1.4-5.5,4.1-6.2c2.7-0.8,4.4-2.1,4.4-2.1s0.4,1.4-0.2,2.1s-1.2,1.3,0.4,1.6s-1.3,1.9-2.4,2.4
	c-1.1,0.5-1.2,1.5-1.2,1.5S20.5,49.3,19,49.3"/>
<path fill="#666943" d="M18.5,49.3c0,0,0.2-8.7-6-9.7C12.5,39.6,17.5,44,18.5,49.3"/>
<path fill="#666943" d="M19.3,49.3c0,0-0.1-8.7,4.9-9.7C24.1,39.6,20.1,44,19.3,49.3"/>
<path fill="none" stroke="#ECC57C" stroke-width="0.356" stroke-linecap="round" stroke-miterlimit="10" d="M17.7,39.5
	c-0.3-0.3-0.4-0.8-0.6-1.2c-0.2-0.6-0.5-1.2-0.8-1.8c-0.3-0.8-0.4-1.6-0.7-2.4c-0.2-0.7-0.5-1.4-0.9-2"/>
<path fill="none" stroke="#ECC57C" stroke-width="0.356" stroke-linecap="round" stroke-miterlimit="10" d="M18.3,39.2
	c-0.6-2.2-0.1-4.5-0.1-6.8"/>
<path fill="none" stroke="#ECC57C" stroke-width="0.356" stroke-linecap="round" stroke-miterlimit="10" d="M19.2,39.4
	c0-1.5,0.2-2.7,0.7-4.1c0.3-0.9,1-1.7,1.6-2.5"/>
<path fill="none" stroke="#ECC57C" stroke-width="0.356" stroke-linecap="round" stroke-miterlimit="10" d="M20,38.9
	c0-0.8,0.5-1.7,0.7-2.4c0.1-0.4,0.3-0.9,0.5-1.3"/>
</svg>
