<?xml version="1.0" encoding="utf-8"?>
<!-- Generator: Adobe Illustrator 15.0.2, SVG Export Plug-In . SVG Version: 6.00 Build 0)  -->
<!DOCTYPE svg PUBLIC "-//W3C//DTD SVG 1.1//EN" "http://www.w3.org/Graphics/SVG/1.1/DTD/svg11.dtd">
<svg version="1.1" id="Layer_1" xmlns="http://www.w3.org/2000/svg" xmlns:xlink="http://www.w3.org/1999/xlink" x="0px" y="0px"
	 width="71.6px" height="73.5px" viewBox="0 0 71.6 73.5" enable-background="new 0 0 71.6 73.5" xml:space="preserve">
<path fill="#A7A5A6" d="M27.7,67.9c-0.2-0.5-0.7-1.5-0.7-2l-0.9-2.3c-0.2,0.1-0.5,0.3-0.7,0.5c-1.3,1.3-0.4,3.2,0.3,4.8
	c0.3,0.6,0.8,1.9,0.7,2.2l0.8,2.2c0.3-0.1,0.5-0.3,0.7-0.5c0.7-0.7,0.8-1.6,0.6-2.5L27.7,67.9C27.7,67.9,27.7,67.9,27.7,67.9"/>
<path fill="#A7A5A6" d="M21.2,71.9l1.6,1.6c0.2-0.2,0.3-0.2,0.6-0.2l-0.8-2.1C22.1,71.2,21.6,71.4,21.2,71.9"/>
<path fill="#A7A5A6" d="M31.8,62.7c0.2,0.5,0.8,1.7,0.8,2.2l0.8,2.2c0.3-0.1,0.5-0.3,0.7-0.5c1.3-1.3,0.4-3.2-0.3-4.8
	c-0.3-0.6-0.9-1.9-0.7-2.3l-0.8-2.1c-0.3,0.1-0.5,0.3-0.8,0.5c-0.8,0.8-0.8,1.9-0.5,3l0.4,1.1C31.5,62.2,31.7,62.5,31.8,62.7"/>
<path fill="#A7A5A6" d="M40.1,60.5c1.3-1.3,0.4-3.2-0.3-4.8c-0.3-0.6-0.9-2-0.7-2.3c0,0,0,0,0,0l-1.6-1.6c-0.6,0.6-0.7,1.4-0.6,2.2
	l2.6,6.9C39.7,60.9,39.9,60.7,40.1,60.5"/>
<path fill="#797677" d="M33.1,59.5c0.3-0.2,1.7,0.5,2.3,0.7c1.3,0.6,2.9,1.3,4.2,0.7L36.9,54c0.1,0.9,0.5,1.8,0.9,2.6
	c0.3,0.6,0.9,2,0.7,2.3c-0.3,0.2-1.7-0.5-2.3-0.7c-1.3-0.6-2.8-1.3-4-0.8L33.1,59.5C33.1,59.5,33.1,59.5,33.1,59.5"/>
<path fill="#797677" d="M27,65.6c0.3-0.2,1.7,0.5,2.3,0.7c1.3,0.6,2.8,1.3,4.1,0.8l-0.8-2.2c0,0.1,0,0.1,0,0.1
	c-0.3,0.2-1.7-0.5-2.3-0.7c-1.3-0.6-2.9-1.3-4.1-0.8l0.9,2.3C27,65.7,27,65.6,27,65.6"/>
<path fill="#EBEBEB" d="M31,60.9c0.1,0.4,0.3,0.7,0.4,1.1L31,60.9z"/>
<path fill="#EBEBEB" d="M28.6,70.1c-0.2-0.8-0.5-1.6-0.8-2.3L28.6,70.1z"/>
<path fill="#797677" d="M26.4,71.1c-0.3,0.3-0.6,0.3-1.6,0.1c-0.6-0.1-1.4-0.3-2.2-0.1l0.8,2.1c0.2,0,0.6,0.1,1,0.1
	c0.8,0.2,1.9,0.4,2.9-0.1L26.4,71.1C26.4,71,26.4,71.1,26.4,71.1"/>
<path fill="#A7A5A6" d="M50,47.9L44,54c0,0-0.9,0-1.3-0.4l-0.7-0.7c0,0-0.7-0.7-1.3-0.2c-0.6,0.6-1.3,1.3-1.3,1.3l-2.1-2.1l8.4-8.4
	L50,47.9z"/>
<path fill="#A7A5A6" d="M9.9,11.8l2.9,0.5c0,0,1,0.2,0.7,1.1c-0.4,0.9-1.8,4.6-1.8,4.6s-0.4,0.7-1.3,1.7c-0.9,1.1-1.9,3-2,5.3
	c-0.1,2.2,1.1,5.2,2.2,5.5c1.1,0.3,2.6,0.1,2.8-0.8c0.3-0.9-0.1-1.5-0.1-1.5s0-1.3,0.9-0.6c0.9,0.7,1.3,1.7,1.2,2.7
	c-0.1,1-0.3,2.4-0.3,2.4s-0.2,0.8-1.1,0.6l-0.8-0.2c0,0-0.5,0.3-0.5,0.6c0,0.3,0.3,0.7,0.6,0.8c0.3,0.1,0.8,0.2,0.8,0.2
	s0.8,0.2,0.6,1.1s-8.8,3.6-8.8,3.6L4.1,39c0,0-0.4-1.1-0.3-1.9c0-0.8-0.3-11.1,0.1-13.8c0.4-2.7,2.1-7,4.1-9.2L9.9,11.8z"/>
<g opacity="0.4">
	<g>
		<defs>
			<rect id="SVGID_1_" x="7.9" y="12.7" width="7" height="22.9"/>
		</defs>
		<clipPath id="SVGID_2_">
			<use xlink:href="#SVGID_1_"  overflow="visible"/>
		</clipPath>
		<path clip-path="url(#SVGID_2_)" fill="#EBEBEB" d="M13.2,35c0.1,0,0.3,0,0.4,0c0.1,0,0.3,0,0.4,0.1l0,0c0.1,0.1,0.2,0.1,0.2,0.2
			c0,0.1,0.1,0.1,0,0.2l0,0.2c0-0.1,0-0.2-0.1-0.3c0-0.1-0.1-0.1-0.2-0.1l0,0c-0.1,0-0.3-0.1-0.4-0.1C13.4,35.1,13.3,35,13.2,35"/>
		<path clip-path="url(#SVGID_2_)" fill="#EBEBEB" d="M14.6,32.5c0,0.1-0.1,0.3-0.3,0.3c-0.2,0.1-0.3,0-0.4,0
			c-0.3,0-0.5-0.1-0.8-0.2l0,0l-0.2,0.1l0.1-0.1l0,0h0c0.1,0,0.3,0,0.4,0c0.1,0,0.3,0,0.4,0.1c0.1,0,0.3,0.1,0.4,0.1
			c0.1,0,0.1,0,0.2-0.1C14.5,32.6,14.6,32.6,14.6,32.5"/>
		<path clip-path="url(#SVGID_2_)" fill="#EBEBEB" d="M8.6,28.7c0.3,0.7,0.7,1.3,1.2,1.8c0.1,0.1,0.3,0.2,0.4,0.3
			c0.2,0.1,0.3,0.1,0.5,0.2c0.2,0,0.4,0.1,0.5,0.1c0.2,0,0.4,0,0.5,0c0.2,0,0.4,0,0.5-0.1c0.2,0,0.3-0.1,0.5-0.1
			c0.2-0.1,0.3-0.2,0.5-0.3c0.1-0.1,0.3-0.2,0.4-0.4c0.1-0.1,0.2-0.3,0.2-0.5c0-0.2,0.1-0.4,0.1-0.5c0-0.2,0-0.4,0-0.5
			c0-0.2-0.1-0.4-0.1-0.5l0,0l0,0l0.1-0.2l0-0.1l0.1,0c0.1,0.1,0.2,0.1,0.3,0.2c0.1,0.1,0.2,0.2,0.2,0.2c0.2,0.2,0.3,0.4,0.4,0.6
			c0.2,0.4,0.2,0.9,0.2,1.3c0-0.4-0.1-0.9-0.2-1.3c-0.1-0.2-0.2-0.4-0.4-0.6c-0.1-0.1-0.1-0.2-0.2-0.2c-0.1-0.1-0.2-0.1-0.3-0.2
			l0.1,0l0,0.2l0,0c0.1,0.2,0.1,0.4,0.1,0.5c0,0.2,0,0.4,0,0.6c0,0.2-0.1,0.4-0.1,0.5c0,0.2-0.1,0.4-0.2,0.5
			c-0.1,0.2-0.2,0.3-0.4,0.4c-0.2,0.1-0.3,0.2-0.5,0.3c-0.2,0.1-0.4,0.1-0.5,0.1c-0.2,0-0.4,0.1-0.6,0.1c-0.2,0-0.4,0-0.6,0
			c-0.2,0-0.4-0.1-0.5-0.1c-0.2,0-0.4-0.1-0.5-0.2c-0.2-0.1-0.3-0.2-0.4-0.3C9.1,30,8.8,29.3,8.6,28.7"/>
		<path clip-path="url(#SVGID_2_)" fill="#EBEBEB" d="M12.8,12.7c0.1,0,0.2,0.1,0.3,0.2c0.1,0.1,0.1,0.2,0,0.3l-0.2,0.7l-0.5,1.3
			l-1,2.6l0,0l0,0c-0.4,0.5-0.8,1.1-1.2,1.6c-0.4,0.5-0.8,1.1-1.1,1.7c-0.1,0.3-0.3,0.6-0.4,0.9c-0.1,0.3-0.2,0.6-0.3,1
			c-0.1,0.3-0.2,0.7-0.2,1c-0.1,0.3-0.1,0.7-0.1,1c0-0.3,0-0.7,0.1-1c0.1-0.3,0.1-0.7,0.2-1c0.1-0.3,0.2-0.7,0.3-1
			c0.1-0.3,0.3-0.6,0.4-0.9c0.3-0.6,0.7-1.2,1.1-1.7c0.4-0.5,0.8-1.1,1.2-1.6l0,0l1.1-2.6l0.5-1.3l0.3-0.6c0-0.1,0.1-0.2,0-0.3
			C13,12.8,12.9,12.7,12.8,12.7"/>
	</g>
</g>
<path fill="#A7A5A6" d="M24.8,0c0,0,9.6,1.6,17,9.5c7.4,7.9,22.8,24.6,22.8,24.6s4.9,4.6,4,5.5s-4.9,4.9-4.9,4.9L32.5,13.2
	C32.5,13.2,25.6,7,24.8,0"/>
<path fill="#CDCBCC" d="M24.8,0c0.7,7,7.6,13.2,7.6,13.2l31.3,31.3c0,0,0.2-0.2,0.5-0.5L33,12.7C33,12.7,26.3,6.2,24.8,0"/>
<path fill="#464344" d="M36.1,5.5c0,0,7.3,6.1,8.9,8.9C45,14.4,39,11.3,36.1,5.5"/>
<path fill="#EBEBEB" d="M36.6,5.9c-0.3-0.3-0.5-0.4-0.5-0.4c3,5.8,8.9,8.9,8.9,8.9c-0.1-0.1-0.2-0.3-0.3-0.5
	C43.3,13.1,39.1,10.3,36.6,5.9"/>
<path fill="#676465" d="M61.6,32l-2,2l-2,2l0,0c0,0,0.2-0.3,0.5-0.7c0.2-0.2,0.4-0.5,0.6-0.7c0.2-0.2,0.5-0.5,0.7-0.8
	c0.3-0.2,0.5-0.5,0.8-0.7c0.2-0.2,0.5-0.4,0.7-0.6C61.2,32.2,61.5,32,61.6,32L61.6,32z"/>
<path fill="#A7A5A6" d="M4.9,46.2c-0.6-0.6-1.7-0.6-2.3,0l-2.2,2.2c-0.6,0.6-0.6,1.7,0,2.3c0.6,0.6,1.7,0.6,2.3,0l2.2-2.2
	C5.6,47.9,5.6,46.9,4.9,46.2 M1,50.1c-0.3-0.3-0.3-0.7,0-1c0.3-0.3,0.7-0.3,1,0c0.3,0.3,0.3,0.7,0,1C1.7,50.4,1.3,50.4,1,50.1"/>
<g opacity="0.3">
	<g>
		<defs>
			<rect id="SVGID_3_" x="1.4" y="45.6" width="4.2" height="4.2"/>
		</defs>
		<clipPath id="SVGID_4_">
			<use xlink:href="#SVGID_3_"  overflow="visible"/>
		</clipPath>
		<path clip-path="url(#SVGID_4_)" fill="#A7A5A6" d="M2.8,46.1l-1.4,1.4c0.6,0.9,1.4,1.7,2.3,2.3l1.4-1.4c0.6-0.6,0.6-1.7,0-2.3
			C4.5,45.4,3.5,45.4,2.8,46.1"/>
	</g>
</g>
<path fill="#B52126" d="M71.6,43.1c0,4.2-3.4,7.6-7.6,7.6H8.6c-4.2,0-7.6-3.4-7.6-7.6c0-4.2,3.4-7.6,7.6-7.6H64
	C68.2,35.5,71.6,38.9,71.6,43.1"/>
<g opacity="0.4">
	<g>
		<defs>
			<rect id="SVGID_5_" x="5" y="35.5" width="66.6" height="14.4"/>
		</defs>
		<clipPath id="SVGID_6_">
			<use xlink:href="#SVGID_5_"  overflow="visible"/>
		</clipPath>
		<path clip-path="url(#SVGID_6_)" fill="#B52126" d="M64,37.7c3,0,5.4,2.4,5.4,5.4c0,3-2.4,5.4-5.4,5.4h-2.7l6.2,1.3
			c2.4-1.3,4.1-3.8,4.1-6.7c0-4.2-3.4-7.6-7.6-7.6H8.6c-1.3,0-2.5,0.3-3.5,0.9l6.2,1.3H64z"/>
	</g>
</g>
<g opacity="0.5">
	<g>
		<defs>
			<rect id="SVGID_7_" x="1" y="36.3" width="66.6" height="14.4"/>
		</defs>
		<clipPath id="SVGID_8_">
			<use xlink:href="#SVGID_7_"  overflow="visible"/>
		</clipPath>
		<path clip-path="url(#SVGID_8_)" fill="#B52126" d="M8.6,50.7H64c1.3,0,2.5-0.3,3.5-0.9l-6.2-1.3H8.6c-3,0-5.4-2.4-5.4-5.4
			c0-3,2.4-5.4,5.4-5.4h2.7L5,36.3C2.6,37.6,1,40.1,1,43.1C1,47.3,4.4,50.7,8.6,50.7"/>
	</g>
</g>
<g opacity="0.8">
	<g>
		<defs>
			<rect id="SVGID_9_" x="11.3" y="37.4" width="58.1" height="5.6"/>
		</defs>
		<clipPath id="SVGID_10_">
			<use xlink:href="#SVGID_9_"  overflow="visible"/>
		</clipPath>
		<path clip-path="url(#SVGID_10_)" fill="#E1A6A8" d="M11.3,37.7c0,0,3.8-0.1,9.6-0.1c2.9,0,6.2,0,9.8-0.1c3.6,0,7.4,0,11.2,0
			c3.8,0,7.6,0,11.2,0c3.6,0,6.9,0.1,9.8,0.1c0.4,0,0.7,0,1.1,0c0.4,0,0.7,0.1,1,0.1c0.6,0.2,1.3,0.4,1.8,0.7c1,0.6,1.7,1.4,2.1,2.2
			c0.2,0.4,0.3,0.7,0.4,1c0,0.2,0.1,0.3,0.1,0.4c0,0.1,0,0.3,0,0.4c0,0.4,0.1,0.7,0.1,0.7s0-0.2-0.1-0.7c0-0.1,0-0.2,0-0.4
			c0-0.1-0.1-0.3-0.1-0.4c-0.1-0.3-0.2-0.7-0.4-1c-0.4-0.7-1.1-1.5-2.1-2.1c-0.5-0.3-1.1-0.5-1.7-0.6c-0.3,0-0.7-0.1-1-0.1
			c-0.3,0-0.7,0-1.1,0c-2.9,0-6.2,0-9.8,0.1c-3.6,0-7.4,0-11.2,0c-3.8,0-7.6,0-11.2,0c-3.6,0-6.9-0.1-9.8-0.1
			C15.1,37.7,11.3,37.7,11.3,37.7"/>
	</g>
</g>
<g>
	<g>
		<defs>
			<rect id="SVGID_11_" x="45.9" y="39.7" width="8.9" height="7.3"/>
		</defs>
		<clipPath id="SVGID_12_">
			<use xlink:href="#SVGID_11_"  overflow="visible"/>
		</clipPath>
		<path clip-path="url(#SVGID_12_)" fill="#DEDDDE" d="M45.9,47h8.9v-7.3h-8.9V47z M47.1,41h3.7v4.8h-3.7V41z M53.5,45.7H52V41h1.5
			V45.7z"/>
	</g>
</g>
<g opacity="0.5">
	<g>
		<defs>
			<rect id="SVGID_13_" x="3.4" y="43.1" width="58.1" height="5.7"/>
		</defs>
		<clipPath id="SVGID_14_">
			<use xlink:href="#SVGID_13_"  overflow="visible"/>
		</clipPath>
		<path clip-path="url(#SVGID_14_)" fill="#B52126" d="M61.5,48.5c0,0-3.8,0.1-9.6,0.2c-2.9,0-6.2,0.1-9.8,0.1c-3.6,0-7.4,0-11.2,0
			c-3.8,0-7.6,0-11.2,0c-3.6,0-6.9-0.1-9.8-0.1c-0.4,0-0.7,0-1.1,0c-0.4,0-0.7-0.1-1-0.1c-0.7-0.2-1.3-0.4-1.8-0.7
			c-1-0.6-1.7-1.4-2.1-2.2c-0.2-0.4-0.3-0.7-0.4-1c0-0.2-0.1-0.3-0.1-0.4c0-0.1,0-0.3,0-0.4c0-0.4-0.1-0.7-0.1-0.7s0,0.2,0.1,0.7
			c0,0.1,0,0.2,0,0.4c0,0.1,0.1,0.3,0.1,0.4c0.1,0.3,0.2,0.7,0.4,1c0.4,0.7,1.1,1.5,2.1,2.1c0.5,0.3,1.1,0.5,1.7,0.6
			c0.3,0,0.6,0.1,1,0.1c0.3,0,0.7,0,1.1,0c2.9,0,6.2-0.1,9.8-0.1c3.6,0,7.4,0,11.2,0c3.8,0,7.6,0,11.2,0c3.6,0,6.9,0.1,9.8,0.1
			C57.7,48.4,61.5,48.5,61.5,48.5"/>
	</g>
</g>
<path fill="#DEDDDE" d="M55.1,46.7h-8.9v-7.3h8.9V46.7z M47.4,45.5h6.4v-4.8h-6.4V45.5z"/>
<rect x="51.1" y="40.1" fill="#DEDDDE" width="1.3" height="6"/>
<path fill="#68111E" d="M3.8,42.2V45h0.7v-3.3H1.1C1,41.9,1,42,1,42.2H3.8z"/>
<path fill="#DEDDDE" d="M3.8,42.2H1c0,0.3-0.1,0.6-0.1,1c0,0.6,0.1,1.3,0.2,1.8h2.7V42.2z"/>
</svg>
