<?xml version="1.0" encoding="utf-8"?>
<!-- Generator: Adobe Illustrator 15.0.2, SVG Export Plug-In . SVG Version: 6.00 Build 0)  -->
<!DOCTYPE svg PUBLIC "-//W3C//DTD SVG 1.1//EN" "http://www.w3.org/Graphics/SVG/1.1/DTD/svg11.dtd">
<svg version="1.1" id="Layer_1" xmlns="http://www.w3.org/2000/svg" xmlns:xlink="http://www.w3.org/1999/xlink" x="0px" y="0px"
	 width="57.2px" height="70.8px" viewBox="0 0 57.2 70.8" enable-background="new 0 0 57.2 70.8" xml:space="preserve">
<path fill="none" stroke="#DFAE57" stroke-width="2.273" stroke-miterlimit="10" d="M38.2,42.7c2.1-2,5.3-2.7,7-5.3
	c1.2-1.8,0.8-4.8-1-6c-3.6-2.3-6.5,5.1-3.2,5.6c2.7,0.5,2-3.7,1.1-5.2c-1.7-2.9-5.2-1.3-7.3,0.1c-1.3,0.9-2.4,1.6-2.7,3.3
	c-0.3,1.7,0.1,3.3,1.3,4.3c2.5,2.2,5.3-1.4,2.6-3.6c-1.9-1.5-9.6,0-8.4,3.8c0.4,1.3,1.6,1.6,2.6,1.1c2.7-1.3,2.5-4.4,0.7-6.6
	c-2.6-3.1-5.9-3.9-9.4-2.3c-2.4,1.1-3.5,3.7-1.8,6.2c1.2,1.9,3.7,2.8,5.1,0.7c1.5-2.2-0.1-4.4-2.2-4.6c-2-0.2-3.9,0.6-5.7,1.6
	c-0.5,0.3-1.8,0.6-1.9,1.4c0,0.8,1.4,1.4,2,1.1c2.1-1-0.7-4.1-1.4-4.7c-1.9-1.5-6.1-3.2-7.9-0.6c-1.1,1.5-0.2,4.2,0.9,5.3
	c1.7,1.8,5.5,1.2,6.5-1.3c1.7-4.1-6.6-8.7-8.9-5.6c-1.1,1.5-2.2,4-1.2,6c0.7,1.5,2.6,2.4,4,2.5c1.8,0.2,4.2,0.5,5.9,0
	c2.4-0.7,4.4-3.6,4.9-6.2c0.4-2.3-0.4-6.4-3-3.9c-2.8,2.6-0.6,7.1,2.3,8.4c2.2,1,6.1-0.9,7.1-3.4c1-2.6-1.1-1.9-2.3-0.7
	c-0.9,0.8-2.4,2.4-2.2,3.8c0.1,1.3,1.8,1.7,2.8,1.9c3,0.7,12,1.4,12.3-3.9c0.2-3.5-4.9-6.3-7.6-5c-1.4,0.7-2.7,2.8-2.8,4.5
	c-0.1,2,1.6,3.7,3.1,4.4c3.9,1.8,8.8-1.5,10.1-5.7c1.3-4.2-4.1-2.1-5.7-1c-0.8,0.5-2.3,1.3-2.5,2.4c1.8,0.6,4.3,0.4,6.2,0.2
	c2.6-0.2,5.7-1.1,8.1-2.4c4.4-2.4-2.4-4.1-4.4-3.3c-1.1,0.4-3.3,1.3-3.7,2.7c-0.4,1.5,0.9,2.4,1.8,3.2c2.3,2.1,8.5,7.5,10.2,1.4
	c0.4-1.4,0.5-4.5-1-5.2c-2-0.9-6.5,4.2-6.3,6.4c0.2,2.8,5.6,3.4,7.3,2.8c3.7-1.1,3.6-6.1,1.6-8.9c-2-2.8-4.7-3.2-7-0.6
	c-1.3,1.5-2,3.2,0.3,3.8c0.7,0.2,1.2,0.1,1.6-0.6c0.7-1.6-0.7-3.2-1.7-4.1c-3.4-3.1-9.5-4.2-11.2,1.8c-0.7,2.6,2.3,5.6,4.5,5.7
	c2.1,0,2.1-3.8,1.2-5.2c-1.4-2.3-3.9-3.5-6.3-3.5c-2.7,0-5.2,1.7-7,4c-0.9,1.2-2,2.8-0.5,4c3.2,2.7,10.6,1.2,11.2-3.8
	c0.7-5.5-6.6-6.9-9.9-5.8c-3.1,1-6.5,3.9-8.1,7c-1,2-0.3,3.4,1.2,4.7c0.6,0.5,1.4,1.2,2.3,1c1.6-0.5,2.5-3.1,2.6-4.7
	c0.2-3.4-3.1-8.9-6.5-6.1c-2.4,2-3.7,8.8,0.5,9.3c4.3,0.5,3.7-7,1.4-9c-2.1-1.8-4.5,2.2-4.5,4.4c0,1.9,2.6,2.5,3,0.4
	c0.6-2.8-1.8-6.4-4.5-6.2c-2,0.2-3,2.9-3.7,4.7c-0.7,1.7-1.5,3.8-0.3,5.4c2.2,2.9,5.6,1,7.2-1.7c1.6-2.7,1.4-4.7-1.5-5.5
	c-2.6-0.7-7.7,1.6-7.4,5.2c0.2,1.8,1.9,3.1,3,4.2c1.2,1.1,3,2.5,4.6,2.6c2.5,0.1,5-4.2,5.5-6.7c0.4-2,0.5-4.5-0.1-6.4
	c-0.9-2.7-2.1-2.1-3.7-0.2c-3.1,3.7-4.8,8.8-0.9,12.5c2.3,2.2,4.9,3.3,8,3.2c3.6-0.2,8.4-2.3,9.9-6.3c0.9-2.3-0.1-7.7-3.2-6.1
	c-2,1-3.9,3.5-5,5.5c-0.8,1.4-1.3,2.3,0.4,2.6c3.7,0.7,11.2-1.6,11.3-6.8c0-1.8-1-3.3-2.5-4c-2.6-1.2-4.7,1.3-6.4,3.3
	c-1.1,1.3-3.9,5.2-0.3,4.7c3.1-0.4,5.1-6.8,3.5-9.6c-2.3-4.1-7.5,2.6-8.5,5c-1.7,4.3,6.8,6.1,9.1,6.2c3.8,0.2,9.8-2.2,8.1-7.9
	c-0.4-1.5-1.9-2.5-3.2-2.9c-2.1-0.6-3.5,1.1-4.4,3.1c-0.8,1.8-1.6,5.1-0.8,7.1c0.8,2,3.2,2.8,4.9,3.1c3.9,0.6,9.8-3.8,9-8.8
	c-0.6-3.8-5.9-1.6-7.6-0.3c-0.9,0.7-2.7,2.4-2.3,4c0.5,1.8,3.8,2.2,5.1,2.3c3.7,0.2,7.4-3.3,6.1-7.7c-0.9-3.1-4.1-3.9-6.4-1.9
	c-3.5,3.1,0.4,7.6,2.9,9.7c3,2.5,6.4-1.3,5.9-5c-0.6-4.9-6.2-7.9-10.2-7.1c-2.6,0.5-4.6,3-6,5.3c-1.3,1.9-2.4,4.2-1,6.5
	c2.2,3.4,5.2,4.3,8.1,1.4c1.5-1.5,2.3-3.8,1.8-6.1c-0.8-3.2-3.7-5.2-6.3-6.4c-5.5-2.5-14.2-1.1-16.5,5.9c-0.5,1.6-0.7,3.7,0.3,5.1
	c0.4,0.6,1.5,1.8,2.3,1.5c1.4-0.5,1.5-5,1.5-6.1c0.1-3.3-0.6-6.8-2.6-9.3c-3.5-4.6-7,1.5-8.8,4.9c-1.1,2.3-2.5,5.1-0.1,6.7
	c0.6,0.4,1.6,0.9,2.3,0.9c2.1,0,4.3-3.6,5-5.6c0.6-2,0-3.8-2.1-3.1c-2.2,0.7-4.2,2.8-5.6,4.6c-1,1.3-2.8,3.6-2.3,5.5
	c0.7,2.5,3.6,2.9,5.4,2c3.2-1.6,3.4-7.2,1.9-10.3c-4.3-8.5-11.2,5.3-7.5,6.9c2.8,1.2,5.4-1.5,6.5-4.1c0.7-1.7,2.1-4.7,0.1-5.7
	c-3.2-1.5-7.1,1.4-9,4.1C4.8,37,8.7,40,11.5,41.8c4.3,2.7,7.7,2.7,12.2,0.4c2.7-1.3,5.3-2.8,7.9-4.3c0.9-0.5,2.1-1.1,2.6-2.3
	c0.4-1.2,0-3.1-1-3.7c-1-0.6-2.3,0.7-3,1.4c-2.1,2.4-2.7,5.9-0.7,8.5c2.4,3.2,6.6,4.6,10.2,4.6c3.8,0.1,6-2,7-6.1
	c0.3-1.3,0.5-2.9-0.3-4.1"/>
<g>
	<g>
		<defs>
			<rect id="SVGID_1_" x="4.4" y="24.5" width="48.3" height="22.2"/>
		</defs>
		<clipPath id="SVGID_2_">
			<use xlink:href="#SVGID_1_"  overflow="visible"/>
		</clipPath>
		<path clip-path="url(#SVGID_2_)" fill="none" stroke="#DFAE57" stroke-width="0.301" stroke-miterlimit="10" d="M38.2,42.7
			c2.1-2,5.3-2.7,7-5.3c1.2-1.8,0.8-4.8-1-6c-3.6-2.3-6.5,5.1-3.2,5.6c2.7,0.5,2-3.7,1.1-5.2c-1.7-2.9-5.2-1.3-7.3,0.1
			c-1.3,0.9-2.4,1.6-2.7,3.3c-0.3,1.7,0.1,3.3,1.3,4.3c2.5,2.2,5.3-1.4,2.6-3.6c-1.9-1.5-9.6,0-8.4,3.8c0.4,1.3,1.6,1.6,2.6,1.1
			c2.7-1.3,2.5-4.4,0.7-6.6c-2.6-3.1-5.9-3.9-9.4-2.3c-2.4,1.1-3.5,3.7-1.8,6.2c1.2,1.9,3.7,2.8,5.1,0.7c1.5-2.2-0.1-4.4-2.2-4.6
			c-2-0.2-3.9,0.6-5.7,1.6c-0.5,0.3-1.8,0.6-1.9,1.4c0,0.8,1.4,1.4,2,1.1c2.1-1-0.7-4.1-1.4-4.7c-1.9-1.5-6.1-3.2-7.9-0.6
			c-1.1,1.5-0.2,4.2,0.9,5.3c1.7,1.8,5.5,1.2,6.5-1.3c1.7-4.1-6.6-8.7-8.9-5.6c-1.1,1.5-2.2,4-1.2,6c0.7,1.5,2.6,2.4,4,2.5
			c1.8,0.2,4.2,0.5,5.9,0c2.4-0.7,4.4-3.6,4.9-6.2c0.4-2.3-0.4-6.4-3-3.9c-2.8,2.6-0.6,7.1,2.3,8.4c2.2,1,6.1-0.9,7.1-3.4
			c1-2.6-1.1-1.9-2.3-0.7c-0.9,0.8-2.4,2.4-2.2,3.8c0.1,1.3,1.8,1.7,2.8,1.9c3,0.7,12,1.4,12.3-3.9c0.2-3.5-4.9-6.3-7.6-5
			c-1.4,0.7-2.7,2.8-2.8,4.5c-0.1,2,1.6,3.7,3.1,4.4c3.9,1.8,8.8-1.5,10.1-5.7c1.3-4.2-4.1-2.1-5.7-1c-0.8,0.5-2.3,1.3-2.5,2.4
			c1.8,0.6,4.3,0.4,6.2,0.2c2.6-0.2,5.7-1.1,8.1-2.4c4.4-2.4-2.4-4.1-4.4-3.3c-1.1,0.4-3.3,1.3-3.7,2.7c-0.4,1.5,0.9,2.4,1.8,3.2
			c2.3,2.1,8.5,7.5,10.2,1.4c0.4-1.4,0.5-4.5-1-5.2c-2-0.9-6.5,4.2-6.3,6.4c0.2,2.8,5.6,3.4,7.3,2.8c3.7-1.1,3.6-6.1,1.6-8.9
			c-2-2.8-4.7-3.2-7-0.6c-1.3,1.5-2,3.2,0.3,3.8c0.7,0.2,1.2,0.1,1.6-0.6c0.7-1.6-0.7-3.2-1.7-4.1c-3.4-3.1-9.5-4.2-11.2,1.8
			c-0.7,2.6,2.3,5.6,4.5,5.7c2.1,0,2.1-3.8,1.2-5.2c-1.4-2.3-3.9-3.5-6.3-3.5c-2.7,0-5.2,1.7-7,4c-0.9,1.2-2,2.8-0.5,4
			c3.2,2.7,10.6,1.2,11.2-3.8c0.7-5.5-6.6-6.9-9.9-5.8c-3.1,1-6.5,3.9-8.1,7c-1,2-0.3,3.4,1.2,4.7c0.6,0.5,1.4,1.2,2.3,1
			c1.6-0.5,2.5-3.1,2.6-4.7c0.2-3.4-3.1-8.9-6.5-6.1c-2.4,2-3.7,8.8,0.5,9.3c4.3,0.5,3.7-7,1.4-9c-2.1-1.8-4.5,2.2-4.5,4.4
			c0,1.9,2.6,2.5,3,0.4c0.6-2.8-1.8-6.4-4.5-6.2c-2,0.2-3,2.9-3.7,4.7c-0.7,1.7-1.5,3.8-0.3,5.4c2.2,2.9,5.6,1,7.2-1.7
			c1.6-2.7,1.4-4.7-1.5-5.5c-2.6-0.7-7.7,1.6-7.4,5.2c0.2,1.8,1.9,3.1,3,4.2c1.2,1.1,3,2.5,4.6,2.6c2.5,0.1,5-4.2,5.5-6.7
			c0.4-2,0.5-4.5-0.1-6.4c-0.9-2.7-2.1-2.1-3.7-0.2c-3.1,3.7-4.8,8.8-0.9,12.5c2.3,2.2,4.9,3.3,8,3.2c3.6-0.2,8.4-2.3,9.9-6.3
			c0.9-2.3-0.1-7.7-3.2-6.1c-2,1-3.9,3.5-5,5.5c-0.8,1.4-1.3,2.3,0.4,2.6c3.7,0.7,11.2-1.6,11.3-6.8c0-1.8-1-3.3-2.5-4
			c-2.6-1.2-4.7,1.3-6.4,3.3c-1.1,1.3-3.9,5.2-0.3,4.7c3.1-0.4,5.1-6.8,3.5-9.6c-2.3-4.1-7.5,2.6-8.5,5c-1.7,4.3,6.8,6.1,9.1,6.2
			c3.8,0.2,9.8-2.2,8.1-7.9c-0.4-1.5-1.9-2.5-3.2-2.9c-2.1-0.6-3.5,1.1-4.4,3.1c-0.8,1.8-1.6,5.1-0.8,7.1c0.8,2,3.2,2.8,4.9,3.1
			c3.9,0.6,9.8-3.8,9-8.8c-0.6-3.8-5.9-1.6-7.6-0.3c-0.9,0.7-2.7,2.4-2.3,4c0.5,1.8,3.8,2.2,5.1,2.3c3.7,0.2,7.4-3.3,6.1-7.7
			c-0.9-3.1-4.1-3.9-6.4-1.9c-3.5,3.1,0.4,7.6,2.9,9.7c3,2.5,6.4-1.3,5.9-5c-0.6-4.9-6.2-7.9-10.2-7.1c-2.6,0.5-4.6,3-6,5.3
			c-1.3,1.9-2.4,4.2-1,6.5c2.2,3.4,5.2,4.3,8.1,1.4c1.5-1.5,2.3-3.8,1.8-6.1c-0.8-3.2-3.7-5.2-6.3-6.4c-5.5-2.5-14.2-1.1-16.5,5.9
			c-0.5,1.6-0.7,3.7,0.3,5.1c0.4,0.6,1.5,1.8,2.3,1.5c1.4-0.5,1.5-5,1.5-6.1c0.1-3.3-0.6-6.8-2.6-9.3c-3.5-4.6-7,1.5-8.8,4.9
			c-1.1,2.3-2.5,5.1-0.1,6.7c0.6,0.4,1.6,0.9,2.3,0.9c2.1,0,4.3-3.6,5-5.6c0.6-2,0-3.8-2.1-3.1c-2.2,0.7-4.2,2.8-5.6,4.6
			c-1,1.3-2.8,3.6-2.3,5.5c0.7,2.5,3.6,2.9,5.4,2c3.2-1.6,3.4-7.2,1.9-10.3c-4.3-8.5-11.2,5.3-7.5,6.9c2.8,1.2,5.4-1.5,6.5-4.1
			c0.7-1.7,2.1-4.7,0.1-5.7c-3.2-1.5-7.1,1.4-9,4.1C4.8,37,8.7,40,11.5,41.8c4.3,2.7,7.7,2.7,12.2,0.4c2.7-1.3,5.3-2.8,7.9-4.3
			c0.9-0.5,2.1-1.1,2.6-2.3c0.4-1.2,0-3.1-1-3.7c-1-0.6-2.3,0.7-3,1.4c-2.1,2.4-2.7,5.9-0.7,8.5c2.4,3.2,6.6,4.6,10.2,4.6
			c3.8,0.1,6-2,7-6.1c0.3-1.3,0.5-2.9-0.3-4.1"/>
	</g>
</g>
<polygon fill="#9A645F" points="41.3,0.5 43.3,0 44.9,1.3 42.6,3.1 "/>
<polygon fill="#8B4D47" points="42.8,2.1 34.2,41.2 44.9,1.3 "/>
<polygon fill="#B48B87" points="42.8,2.1 34.2,41.2 41.3,0.5 "/>
<polygon fill="#9A645F" points="54.1,4.6 56.1,4.8 57.2,6.5 54.4,7.5 "/>
<polygon fill="#8B4D47" points="55,6.6 34.2,40.8 57.2,6.5 "/>
<polygon fill="#B48B87" points="55,6.6 34.2,40.8 54.1,4.6 "/>
<polygon fill="#A82526" points="36.1,62 29.5,62 27.7,62 21,62 16.5,70.8 27.7,70.8 29.5,70.8 40.7,70.8 "/>
<path fill="none" stroke="#DFAE57" stroke-width="2.273" stroke-miterlimit="10" d="M18.8,32.7c-2.1,2-5.3,2.7-7,5.3
	c-1.2,1.8-0.8,4.8,1,6c3.6,2.3,6.5-5.1,3.2-5.6c-2.7-0.5-2,3.7-1.1,5.2c1.7,2.9,5.2,1.3,7.3-0.1c1.3-0.9,2.4-1.6,2.7-3.3
	c0.3-1.7-0.1-3.3-1.3-4.3c-2.5-2.2-5.3,1.4-2.6,3.6c1.9,1.5,9.6,0,8.4-3.8c-0.4-1.3-1.6-1.6-2.6-1.1c-2.7,1.3-2.5,4.4-0.7,6.6
	c2.6,3.1,5.9,3.9,9.4,2.3c2.4-1.1,3.5-3.7,1.8-6.2c-1.2-1.9-3.7-2.8-5.1-0.7c-1.5,2.2,0.1,4.4,2.2,4.6c2,0.2,3.9-0.6,5.7-1.6
	c0.5-0.3,1.8-0.6,1.9-1.4c0-0.8-1.4-1.4-2-1.1c-2.1,1,0.7,4.1,1.4,4.7c1.9,1.5,6.1,3.2,7.9,0.6c1.1-1.5,0.2-4.2-0.9-5.3
	c-1.7-1.8-5.5-1.2-6.5,1.3c-1.7,4.1,6.6,8.7,8.9,5.6c1.1-1.5,2.2-4,1.2-6c-0.7-1.5-2.6-2.4-4-2.5c-1.8-0.2-4.2-0.5-5.9,0
	c-2.4,0.7-4.4,3.6-4.9,6.2c-0.4,2.3,0.4,6.4,3,3.9c2.8-2.6,0.6-7.1-2.3-8.4c-2.2-1-6.1,0.9-7.1,3.4c-1,2.6,1.1,1.9,2.3,0.7
	c0.9-0.8,2.4-2.4,2.2-3.8c-0.1-1.3-1.8-1.7-2.8-1.9c-3-0.7-12-1.4-12.3,3.9c-0.2,3.5,4.9,6.3,7.6,5c1.4-0.7,2.7-2.8,2.8-4.5
	c0.1-2-1.6-3.7-3.1-4.4c-3.9-1.8-8.8,1.5-10.1,5.7c-1.3,4.2,4.1,2.1,5.7,1c0.8-0.5,2.3-1.3,2.5-2.4c-1.8-0.6-4.3-0.4-6.2-0.2
	c-2.6,0.2-5.7,1.1-8.1,2.4c-4.4,2.4,2.4,4.1,4.4,3.3c1.1-0.4,3.3-1.3,3.7-2.7c0.4-1.5-0.9-2.4-1.8-3.2c-2.3-2.1-8.5-7.5-10.2-1.4
	c-0.4,1.4-0.5,4.5,1,5.2c2,0.9,6.5-4.2,6.3-6.4c-0.2-2.8-5.6-3.4-7.4-2.8c-3.7,1.1-3.6,6.1-1.6,8.9c2,2.8,4.7,3.2,7,0.6
	c1.3-1.5,2-3.2-0.3-3.8c-0.7-0.2-1.2-0.1-1.6,0.6c-0.7,1.6,0.7,3.2,1.7,4.1c3.4,3.1,9.5,4.2,11.2-1.8c0.7-2.6-2.3-5.6-4.5-5.7
	c-2.1,0-2.1,3.8-1.2,5.2c1.4,2.3,3.9,3.5,6.3,3.5c2.7,0,5.2-1.7,7-4c0.9-1.2,2-2.8,0.5-4c-3.2-2.7-10.6-1.2-11.2,3.8
	c-0.7,5.5,6.6,6.9,9.9,5.8c3.1-1,6.5-3.9,8.1-7c1-2,0.3-3.4-1.2-4.7c-0.6-0.5-1.4-1.2-2.3-1c-1.6,0.5-2.5,3.1-2.6,4.7
	c-0.2,3.4,3.1,8.9,6.5,6.1c2.4-2,3.7-8.8-0.5-9.3c-4.3-0.5-3.7,7-1.4,9c2.1,1.8,4.5-2.2,4.5-4.4c0-1.9-2.6-2.5-3-0.4
	c-0.6,2.8,1.8,6.4,4.5,6.2c2-0.2,3-2.9,3.7-4.7c0.7-1.7,1.5-3.8,0.3-5.4c-2.2-2.9-5.6-1-7.2,1.7c-1.6,2.7-1.4,4.7,1.5,5.5
	c2.6,0.7,7.7-1.6,7.4-5.2c-0.2-1.8-1.9-3.1-3-4.2c-1.2-1.1-3-2.5-4.6-2.6c-2.5-0.1-5,4.2-5.5,6.7c-0.4,2-0.5,4.5,0.1,6.4
	c0.9,2.7,2.1,2.1,3.7,0.2c3.1-3.7,4.8-8.8,0.9-12.5c-2.3-2.2-4.9-3.3-8-3.2c-3.6,0.2-8.4,2.3-9.9,6.3c-0.9,2.3,0.1,7.7,3.2,6.1
	c2-1,3.9-3.5,5-5.5c0.8-1.4,1.3-2.3-0.4-2.6c-3.7-0.7-11.2,1.6-11.3,6.8c0,1.8,1,3.3,2.5,4c2.6,1.2,4.7-1.3,6.4-3.2
	c1.1-1.3,3.9-5.2,0.3-4.7c-3.1,0.4-5.1,6.8-3.5,9.6c2.3,4.1,7.5-2.6,8.5-5c1.7-4.3-6.8-6.1-9.1-6.2c-3.8-0.2-9.8,2.2-8.1,7.9
	c0.4,1.5,1.9,2.5,3.2,2.9c2.1,0.6,3.5-1.1,4.4-3.1c0.8-1.8,1.6-5.1,0.8-7.1c-0.8-2-3.2-2.8-4.9-3.1c-3.9-0.6-9.8,3.8-9,8.8
	c0.6,3.8,5.9,1.6,7.6,0.3c0.9-0.7,2.7-2.4,2.3-4c-0.5-1.8-3.8-2.2-5.1-2.3c-3.7-0.2-7.4,3.3-6.1,7.7c0.9,3.1,4.1,3.9,6.4,1.9
	c3.5-3.1-0.4-7.5-2.9-9.7c-3-2.5-6.4,1.3-5.9,5c0.6,4.9,6.2,7.9,10.2,7.1c2.6-0.5,4.6-3,6-5.3c1.3-1.9,2.4-4.2,1-6.5
	c-2.2-3.4-5.2-4.3-8.1-1.4c-1.5,1.5-2.3,3.8-1.8,6.1c0.8,3.2,3.7,5.2,6.3,6.4c5.5,2.5,14.2,1.1,16.5-5.9c0.5-1.6,0.7-3.7-0.3-5.1
	c-0.4-0.6-1.5-1.8-2.3-1.5c-1.4,0.5-1.5,5-1.5,6.1c-0.1,3.3,0.6,6.8,2.6,9.3c3.5,4.6,7-1.5,8.8-4.9c1.1-2.3,2.5-5.1,0.1-6.7
	c-0.6-0.4-1.6-0.9-2.3-0.9c-2.1,0-4.3,3.6-5,5.6c-0.6,2,0,3.8,2.1,3.1c2.2-0.7,4.2-2.8,5.6-4.6c1-1.3,2.8-3.6,2.3-5.5
	c-0.7-2.5-3.6-2.9-5.4-2c-3.2,1.6-3.4,7.2-1.9,10.3c4.3,8.5,11.2-5.3,7.5-6.9c-2.8-1.2-5.4,1.5-6.5,4.1c-0.7,1.7-2.1,4.7-0.1,5.7
	c3.2,1.5,7.1-1.4,9-4.1c2.5-3.8-1.4-6.8-4.2-8.6c-4.3-2.7-7.7-2.7-12.2-0.4c-2.7,1.3-5.3,2.8-7.9,4.3c-0.9,0.5-2.1,1.1-2.6,2.3
	c-0.4,1.2,0,3.1,1,3.7c1,0.6,2.3-0.7,3-1.4c2.1-2.4,2.7-5.9,0.7-8.5c-2.4-3.2-6.6-4.6-10.2-4.6c-3.8-0.1-6,2-7,6.1
	c-0.3,1.3-0.5,2.9,0.3,4.1"/>
<g>
	<g>
		<defs>
			<rect id="SVGID_3_" x="4.2" y="28.7" width="48.3" height="22.2"/>
		</defs>
		<clipPath id="SVGID_4_">
			<use xlink:href="#SVGID_3_"  overflow="visible"/>
		</clipPath>
		<path clip-path="url(#SVGID_4_)" fill="none" stroke="#DFAE57" stroke-width="0.301" stroke-miterlimit="10" d="M18.8,32.7
			c-2.1,2-5.3,2.7-7,5.3c-1.2,1.8-0.8,4.8,1,6c3.6,2.3,6.5-5.1,3.2-5.6c-2.7-0.5-2,3.7-1.1,5.2c1.7,2.9,5.2,1.3,7.3-0.1
			c1.3-0.9,2.4-1.6,2.7-3.3c0.3-1.7-0.1-3.3-1.3-4.3c-2.5-2.2-5.3,1.4-2.6,3.6c1.9,1.5,9.6,0,8.4-3.8c-0.4-1.3-1.6-1.6-2.6-1.1
			c-2.7,1.3-2.5,4.4-0.7,6.6c2.6,3.1,5.9,3.9,9.4,2.3c2.4-1.1,3.5-3.7,1.8-6.2c-1.2-1.9-3.7-2.8-5.1-0.7c-1.5,2.2,0.1,4.4,2.2,4.6
			c2,0.2,3.9-0.6,5.7-1.6c0.5-0.3,1.8-0.6,1.9-1.4c0-0.8-1.4-1.4-2-1.1c-2.1,1,0.7,4.1,1.4,4.7c1.9,1.5,6.1,3.2,7.9,0.6
			c1.1-1.5,0.2-4.2-0.9-5.3c-1.7-1.8-5.5-1.2-6.5,1.3c-1.7,4.1,6.6,8.7,8.9,5.6c1.1-1.5,2.2-4,1.2-6c-0.7-1.5-2.6-2.4-4-2.5
			c-1.8-0.2-4.2-0.5-5.9,0c-2.4,0.7-4.4,3.6-4.9,6.2c-0.4,2.3,0.4,6.4,3,3.9c2.8-2.6,0.6-7.1-2.3-8.4c-2.2-1-6.1,0.9-7.1,3.4
			c-1,2.6,1.1,1.9,2.3,0.7c0.9-0.8,2.4-2.4,2.2-3.8c-0.1-1.3-1.8-1.7-2.8-1.9c-3-0.7-12-1.4-12.3,3.9c-0.2,3.5,4.9,6.3,7.6,5
			c1.4-0.7,2.7-2.8,2.8-4.5c0.1-2-1.6-3.7-3.1-4.4c-3.9-1.8-8.8,1.5-10.1,5.7c-1.3,4.2,4.1,2.1,5.7,1c0.8-0.5,2.3-1.3,2.5-2.4
			c-1.8-0.6-4.3-0.4-6.2-0.2c-2.6,0.2-5.7,1.1-8.1,2.4c-4.4,2.4,2.4,4.1,4.4,3.3c1.1-0.4,3.3-1.3,3.7-2.7c0.4-1.5-0.9-2.4-1.8-3.2
			c-2.3-2.1-8.5-7.5-10.2-1.4c-0.4,1.4-0.5,4.5,1,5.2c2,0.9,6.5-4.2,6.3-6.4c-0.2-2.8-5.6-3.4-7.4-2.8c-3.7,1.1-3.6,6.1-1.6,8.9
			c2,2.8,4.7,3.2,7,0.6c1.3-1.5,2-3.2-0.3-3.8c-0.7-0.2-1.2-0.1-1.6,0.6c-0.7,1.6,0.7,3.2,1.7,4.1c3.4,3.1,9.5,4.2,11.2-1.8
			c0.7-2.6-2.3-5.6-4.5-5.7c-2.1,0-2.1,3.8-1.2,5.2c1.4,2.3,3.9,3.5,6.3,3.5c2.7,0,5.2-1.7,7-4c0.9-1.2,2-2.8,0.5-4
			c-3.2-2.7-10.6-1.2-11.2,3.8c-0.7,5.5,6.6,6.9,9.9,5.8c3.1-1,6.5-3.9,8.1-7c1-2,0.3-3.4-1.2-4.7c-0.6-0.5-1.4-1.2-2.3-1
			c-1.6,0.5-2.5,3.1-2.6,4.7c-0.2,3.4,3.1,8.9,6.5,6.1c2.4-2,3.7-8.8-0.5-9.3c-4.3-0.5-3.7,7-1.4,9c2.1,1.8,4.5-2.2,4.5-4.4
			c0-1.9-2.6-2.5-3-0.4c-0.6,2.8,1.8,6.4,4.5,6.2c2-0.2,3-2.9,3.7-4.7c0.7-1.7,1.5-3.8,0.3-5.4c-2.2-2.9-5.6-1-7.2,1.7
			c-1.6,2.7-1.4,4.7,1.5,5.5c2.6,0.7,7.7-1.6,7.4-5.2c-0.2-1.8-1.9-3.1-3-4.2c-1.2-1.1-3-2.5-4.6-2.6c-2.5-0.1-5,4.2-5.5,6.7
			c-0.4,2-0.5,4.5,0.1,6.4c0.9,2.7,2.1,2.1,3.7,0.2c3.1-3.7,4.8-8.8,0.9-12.5c-2.3-2.2-4.9-3.3-8-3.2c-3.6,0.2-8.4,2.3-9.9,6.3
			c-0.9,2.3,0.1,7.7,3.2,6.1c2-1,3.9-3.5,5-5.5c0.8-1.4,1.3-2.3-0.4-2.6c-3.7-0.7-11.2,1.6-11.3,6.8c0,1.8,1,3.3,2.5,4
			c2.6,1.2,4.7-1.3,6.4-3.2c1.1-1.3,3.9-5.2,0.3-4.7c-3.1,0.4-5.1,6.8-3.5,9.6c2.3,4.1,7.5-2.6,8.5-5c1.7-4.3-6.8-6.1-9.1-6.2
			c-3.8-0.2-9.8,2.2-8.1,7.9c0.4,1.5,1.9,2.5,3.2,2.9c2.1,0.6,3.5-1.1,4.4-3.1c0.8-1.8,1.6-5.1,0.8-7.1c-0.8-2-3.2-2.8-4.9-3.1
			c-3.9-0.6-9.8,3.8-9,8.8c0.6,3.8,5.9,1.6,7.6,0.3c0.9-0.7,2.7-2.4,2.3-4c-0.5-1.8-3.8-2.2-5.1-2.3c-3.7-0.2-7.4,3.3-6.1,7.7
			c0.9,3.1,4.1,3.9,6.4,1.9c3.5-3.1-0.4-7.5-2.9-9.7c-3-2.5-6.4,1.3-5.9,5c0.6,4.9,6.2,7.9,10.2,7.1c2.6-0.5,4.6-3,6-5.3
			c1.3-1.9,2.4-4.2,1-6.5c-2.2-3.4-5.2-4.3-8.1-1.4c-1.5,1.5-2.3,3.8-1.8,6.1c0.8,3.2,3.7,5.2,6.3,6.4c5.5,2.5,14.2,1.1,16.5-5.9
			c0.5-1.6,0.7-3.7-0.3-5.1c-0.4-0.6-1.5-1.8-2.3-1.5c-1.4,0.5-1.5,5-1.5,6.1c-0.1,3.3,0.6,6.8,2.6,9.3c3.5,4.6,7-1.5,8.8-4.9
			c1.1-2.3,2.5-5.1,0.1-6.7c-0.6-0.4-1.6-0.9-2.3-0.9c-2.1,0-4.3,3.6-5,5.6c-0.6,2,0,3.8,2.1,3.1c2.2-0.7,4.2-2.8,5.6-4.6
			c1-1.3,2.8-3.6,2.3-5.5c-0.7-2.5-3.6-2.9-5.4-2c-3.2,1.6-3.4,7.2-1.9,10.3c4.3,8.5,11.2-5.3,7.5-6.9c-2.8-1.2-5.4,1.5-6.5,4.1
			c-0.7,1.7-2.1,4.7-0.1,5.7c3.2,1.5,7.1-1.4,9-4.1c2.5-3.8-1.4-6.8-4.2-8.6c-4.3-2.7-7.7-2.7-12.2-0.4c-2.7,1.3-5.3,2.8-7.9,4.3
			c-0.9,0.5-2.1,1.1-2.6,2.3c-0.4,1.2,0,3.1,1,3.7c1,0.6,2.3-0.7,3-1.4c2.1-2.4,2.7-5.9,0.7-8.5c-2.4-3.2-6.6-4.6-10.2-4.6
			c-3.8-0.1-6,2-7,6.1c-0.3,1.3-0.5,2.9,0.3,4.1"/>
	</g>
</g>
<g opacity="0.3">
	<g>
		<defs>
			<rect id="SVGID_5_" x="18.7" y="61.5" width="19.8" height="6.8"/>
		</defs>
		<clipPath id="SVGID_6_">
			<use xlink:href="#SVGID_5_"  overflow="visible"/>
		</clipPath>
		<path clip-path="url(#SVGID_6_)" fill="#A82526" d="M20.7,61.5l-2.1,3.9c3.4,1.8,7.2,2.8,11.2,2.8c3,0,5.9-0.6,8.6-1.6l-2.7-5.1
			h-6.6h-1.9H20.7z"/>
	</g>
</g>
<path fill="#A82526" d="M55.5,36.8c0,17-12,30.8-26.9,30.8c-14.8,0-26.9-13.8-26.9-30.8H55.5z"/>
<g opacity="0.3">
	<g>
		<defs>
			<rect id="SVGID_7_" x="9.4" y="36.8" width="16" height="34"/>
		</defs>
		<clipPath id="SVGID_8_">
			<use xlink:href="#SVGID_7_"  overflow="visible"/>
		</clipPath>
		<path clip-path="url(#SVGID_8_)" fill="#A82526" d="M12.2,36.8H9.4c0,13.2,5.5,24.5,13.2,28.9l-2,5.1h2.8l2-5.1
			C17.7,61.2,12.2,50,12.2,36.8"/>
	</g>
</g>
<g opacity="0.5">
	<g>
		<defs>
			<rect id="SVGID_9_" x="1.7" y="36.8" width="53.8" height="34"/>
		</defs>
		<clipPath id="SVGID_10_">
			<use xlink:href="#SVGID_9_"  overflow="visible"/>
		</clipPath>
		<path clip-path="url(#SVGID_10_)" fill="#A82526" d="M6.2,36.8H1.7C1.7,50,9,61.2,19.2,65.6l-2.7,5.1h2l2.2-5.1
			C12.2,61.2,6.2,50,6.2,36.8"/>
		<path clip-path="url(#SVGID_10_)" fill="#A82526" d="M55.5,36.8H51c0,0.2,0,0.4,0,0.7h-44l43.9,2.4C50,51.7,44.3,61.6,36.4,65.6
			l2.2,5.1h2L38,65.6C48.2,61.2,55.5,50,55.5,36.8"/>
	</g>
</g>
<path fill="#A82526" d="M57.2,36.1c0,0.7-0.6,1.4-1.4,1.4H1.4c-0.7,0-1.4-0.6-1.4-1.4c0-0.7,0.6-1.4,1.4-1.4h54.5
	C56.6,34.7,57.2,35.3,57.2,36.1"/>
<g opacity="0.3">
	<g>
		<defs>
			<rect id="SVGID_11_" x="8.2" y="34.7" width="4.1" height="2.7"/>
		</defs>
		<clipPath id="SVGID_12_">
			<use xlink:href="#SVGID_11_"  overflow="visible"/>
		</clipPath>
		<path clip-path="url(#SVGID_12_)" fill="#A82526" d="M11.4,36.1c0-0.7,0.4-1.4,1-1.4H9.2c-0.5,0-1,0.6-1,1.4c0,0.7,0.4,1.4,1,1.4
			h3.1C11.8,37.4,11.4,36.8,11.4,36.1"/>
	</g>
</g>
<g opacity="0.3">
	<g>
		<defs>
			<rect id="SVGID_13_" y="34.7" width="57.2" height="2.7"/>
		</defs>
		<clipPath id="SVGID_14_">
			<use xlink:href="#SVGID_13_"  overflow="visible"/>
		</clipPath>
		<path clip-path="url(#SVGID_14_)" fill="#A82526" d="M4.2,36.1c0-0.7,0.5-1.4,1.2-1.4h-4c-0.7,0-1.4,0.6-1.4,1.4
			c0,0.7,0.6,1.4,1.4,1.4h4C4.7,37.4,4.2,36.8,4.2,36.1"/>
		<path clip-path="url(#SVGID_14_)" fill="#A82526" d="M55.8,34.7h-4c0.6,0,1.2,0.6,1.2,1.4s-0.5,1.4-1.2,1.4h4
			c0.7,0,1.4-0.6,1.4-1.4S56.6,34.7,55.8,34.7"/>
	</g>
</g>
</svg>
