<?xml version="1.0" encoding="utf-8"?>
<!-- Generator: Adobe Illustrator 15.0.2, SVG Export Plug-In . SVG Version: 6.00 Build 0)  -->
<!DOCTYPE svg PUBLIC "-//W3C//DTD SVG 1.1//EN" "http://www.w3.org/Graphics/SVG/1.1/DTD/svg11.dtd">
<svg version="1.1" id="Layer_1" xmlns="http://www.w3.org/2000/svg" xmlns:xlink="http://www.w3.org/1999/xlink" x="0px" y="0px"
	 width="47.9px" height="68.3px" viewBox="0 0 47.9 68.3" enable-background="new 0 0 47.9 68.3" xml:space="preserve">
<path fill="#72C1DB" d="M0.1,5.6h44.2c1.8,0,3.3,1.3,3.3,3v55.4c0,1.7-1.5,3-3.3,3H0.1V5.6z"/>
<path fill="#E8E5D1" d="M1,4.6h43.4c1.8,0,3.2,1.3,3.2,3V63c0,1.7-1.4,3-3.2,3H1V4.6z"/>
<path fill="#A1D6E7" d="M0.1,0.4h44.2c1.8,0,3.3,1.3,3.3,3v55.4c0,1.7-1.5,3-3.3,3H0.1V0.4z"/>
<path fill="#D5ECF4" d="M4.8,60.8c0,0.3-0.6,0.5-1.2,0.5c-0.7,0-1.2-0.2-1.2-0.5V1.3c0-0.3,0.5-0.5,1.2-0.5c0.7,0,1.2,0.2,1.2,0.5
	V60.8z"/>
<g>
	<g>
		<defs>
			<rect id="SVGID_1_" x="2" y="0.9" width="0.7" height="60.4"/>
		</defs>
		<clipPath id="SVGID_2_">
			<use xlink:href="#SVGID_1_"  overflow="visible"/>
		</clipPath>
		<path clip-path="url(#SVGID_2_)" fill="#D5ECF4" d="M2.7,60.9c0,0.3-0.2,0.5-0.4,0.5c-0.2,0-0.4-0.2-0.4-0.5V1.3
			c0-0.3,0.2-0.5,0.4-0.5c0.2,0,0.4,0.2,0.4,0.5V60.9z"/>
	</g>
</g>
<rect x="0" y="21.2" fill="#EBD467" width="47.7" height="22.1"/>
<g>
	<g>
		<defs>
			<rect id="SVGID_3_" x="1" y="61.5" width="46.6" height="3.3"/>
		</defs>
		<clipPath id="SVGID_4_">
			<use xlink:href="#SVGID_3_"  overflow="visible"/>
		</clipPath>
		<path clip-path="url(#SVGID_4_)" fill="#E8E5D1" d="M44.4,64.5H1v0.3h43.4c1.8,0,3.2-1.3,3.2-3v-0.3
			C47.6,63.2,46.2,64.5,44.4,64.5"/>
	</g>
</g>
<g>
	<g>
		<defs>
			<rect id="SVGID_5_" x="1" y="60.6" width="46.6" height="3.3"/>
		</defs>
		<clipPath id="SVGID_6_">
			<use xlink:href="#SVGID_5_"  overflow="visible"/>
		</clipPath>
		<path clip-path="url(#SVGID_6_)" fill="#E8E5D1" d="M44.4,63.6H1v0.3h43.4c1.8,0,3.2-1.3,3.2-3v-0.3
			C47.6,62.3,46.2,63.6,44.4,63.6"/>
	</g>
</g>
<g>
	<g>
		<defs>
			<rect id="SVGID_7_" x="1" y="59.7" width="46.6" height="3.3"/>
		</defs>
		<clipPath id="SVGID_8_">
			<use xlink:href="#SVGID_7_"  overflow="visible"/>
		</clipPath>
		<path clip-path="url(#SVGID_8_)" fill="#E8E5D1" d="M44.4,62.7H1V63h43.4c1.8,0,3.2-1.3,3.2-3v-0.3C47.6,61.4,46.2,62.7,44.4,62.7
			"/>
	</g>
</g>
<polygon fill="#CE3868" points="7.1,67.4 8.1,68.3 8.1,63.6 6.1,63.6 6.1,68.3 "/>
<rect x="37.6" y="61.8" fill="#00587E" width="4.3" height="5.2"/>
<g>
	<g>
		<defs>
			<rect id="SVGID_9_" x="37.6" y="61.5" width="4.3" height="0.3"/>
		</defs>
		<clipPath id="SVGID_10_">
			<use xlink:href="#SVGID_9_"  overflow="visible"/>
		</clipPath>
		<rect x="37.6" y="61.5" clip-path="url(#SVGID_10_)" fill="#2CA2C9" width="4.3" height="0.3"/>
	</g>
</g>
<g>
	<g>
		<defs>
			<rect id="SVGID_11_" x="0.1" y="58.1" width="47.8" height="3.7"/>
		</defs>
		<clipPath id="SVGID_12_">
			<use xlink:href="#SVGID_11_"  overflow="visible"/>
		</clipPath>
		<path clip-path="url(#SVGID_12_)" fill="#E8F5F9" d="M44.6,61.1H0.1v0.7h44.5c1.8,0,3.3-1.3,3.3-3v-0.7
			C47.9,59.7,46.5,61.1,44.6,61.1"/>
	</g>
</g>
<rect x="0.1" y="43.3" fill="#9E7E64" width="47.5" height="0.3"/>
<rect x="37.6" fill="#2CA2C9" width="4.3" height="61.9"/>
<rect x="47.6" y="43.3" fill="#EBD467" width="0.1" height="8.2"/>
<rect y="43.3" fill="#EBD467" width="0.1" height="8.2"/>
<g>
	<g>
		<defs>
			<rect id="SVGID_13_" x="41.9" y="21.2" width="0.8" height="22.1"/>
		</defs>
		<clipPath id="SVGID_14_">
			<use xlink:href="#SVGID_13_"  overflow="visible"/>
		</clipPath>
		<polygon clip-path="url(#SVGID_14_)" fill="#EBD467" points="41.9,21.2 42.6,43.3 41.9,43.3 		"/>
	</g>
</g>
<g>
	<g>
		<defs>
			<rect id="SVGID_15_" x="41.9" y="43.3" width="0.8" height="17.7"/>
		</defs>
		<clipPath id="SVGID_16_">
			<use xlink:href="#SVGID_15_"  overflow="visible"/>
		</clipPath>
		<polygon clip-path="url(#SVGID_16_)" fill="#E8F5F9" points="41.9,61 42.6,43.3 41.9,43.3 		"/>
	</g>
</g>
</svg>
