<?xml version="1.0" encoding="utf-8"?>
<!-- Generator: Adobe Illustrator 15.0.2, SVG Export Plug-In . SVG Version: 6.00 Build 0)  -->
<!DOCTYPE svg PUBLIC "-//W3C//DTD SVG 1.1//EN" "http://www.w3.org/Graphics/SVG/1.1/DTD/svg11.dtd">
<svg version="1.1" id="Layer_1" xmlns="http://www.w3.org/2000/svg" xmlns:xlink="http://www.w3.org/1999/xlink" x="0px" y="0px"
	 width="66.4px" height="57.3px" viewBox="0 0 66.4 57.3" enable-background="new 0 0 66.4 57.3" xml:space="preserve">
<polygon fill="#8B4D47" points="8.3,39.7 9.8,50.9 10.8,50.9 11.6,39.7 "/>
<g>
	<g>
		<defs>
			<rect id="SVGID_1_" x="10.1" y="39.7" width="1.5" height="11.1"/>
		</defs>
		<clipPath id="SVGID_2_">
			<use xlink:href="#SVGID_1_"  overflow="visible"/>
		</clipPath>
		<polygon clip-path="url(#SVGID_2_)" fill="#8B4D47" points="10.1,39.7 10.8,50.9 10.8,50.9 11.6,39.7 		"/>
	</g>
</g>
<polygon fill="#8B4D47" points="58.1,39.7 56.6,50.9 55.6,50.9 54.8,39.7 "/>
<g>
	<g>
		<defs>
			<rect id="SVGID_3_" x="54.8" y="39.7" width="1.5" height="11.1"/>
		</defs>
		<clipPath id="SVGID_4_">
			<use xlink:href="#SVGID_3_"  overflow="visible"/>
		</clipPath>
		<polygon clip-path="url(#SVGID_4_)" fill="#8B4D47" points="56.3,39.7 55.6,50.9 55.6,50.9 54.8,39.7 		"/>
	</g>
</g>
<polygon fill="#8B4D47" points="2.7,44.9 4.4,57.3 5.5,57.3 6.4,44.9 "/>
<g>
	<g>
		<defs>
			<rect id="SVGID_5_" x="4.8" y="44.9" width="1.7" height="12.5"/>
		</defs>
		<clipPath id="SVGID_6_">
			<use xlink:href="#SVGID_5_"  overflow="visible"/>
		</clipPath>
		<polygon clip-path="url(#SVGID_6_)" fill="#8B4D47" points="4.8,44.9 5.5,57.3 5.5,57.3 6.4,44.9 		"/>
	</g>
</g>
<polygon fill="#8B4D47" points="63.7,44.9 62,57.3 60.9,57.3 60,44.9 "/>
<g>
	<g>
		<defs>
			<rect id="SVGID_7_" x="60" y="44.9" width="1.7" height="12.5"/>
		</defs>
		<clipPath id="SVGID_8_">
			<use xlink:href="#SVGID_7_"  overflow="visible"/>
		</clipPath>
		<polygon clip-path="url(#SVGID_8_)" fill="#8B4D47" points="61.7,44.9 60.9,57.3 60.9,57.3 60,44.9 		"/>
	</g>
</g>
<rect x="50.3" y="1.4" fill="#393536" width="14.6" height="41.9"/>
<rect x="0.7" y="0.7" fill="#4F4C4D" width="51.6" height="43.4"/>
<rect x="0.7" y="0.7" fill="none" stroke="#8B4D47" stroke-width="1.496" stroke-miterlimit="10" width="64.9" height="43.4"/>
<g opacity="0.5">
	<g>
		<defs>
			<rect id="SVGID_9_" x="0.7" y="0.7" width="64.9" height="43.4"/>
		</defs>
		<clipPath id="SVGID_10_">
			<use xlink:href="#SVGID_9_"  overflow="visible"/>
		</clipPath>
		<polygon clip-path="url(#SVGID_10_)" fill="#8B4D47" points="1.4,43.4 1.4,1.4 64.6,1.4 65.7,0.7 0.7,0.7 0.7,44.1 1.8,43.4 		"/>
	</g>
</g>
<g opacity="0.5">
	<g>
		<defs>
			<rect id="SVGID_11_" x="0.7" y="0.7" width="64.9" height="43.4"/>
		</defs>
		<clipPath id="SVGID_12_">
			<use xlink:href="#SVGID_11_"  overflow="visible"/>
		</clipPath>
		<polygon clip-path="url(#SVGID_12_)" fill="#8B4D47" points="64.6,1.4 65,1.4 65,43.4 1.8,43.4 0.7,44.1 65.7,44.1 65.7,0.7 		"/>
	</g>
</g>
<rect x="51.6" y="1.1" fill="#D3D2D2" width="3" height="42.6"/>
<rect x="51.2" y="1.4" fill="#393536" width="0.4" height="41.9"/>
<rect x="52.1" y="9.9" fill="#423E3F" width="2" height="0.9"/>
<rect x="52.3" y="10.1" fill="#4F4C4D" width="1.6" height="0.6"/>
<path fill="#C8C7C7" d="M52.3,10.1c0.5,0,1,0,1.6,0v0c-0.3,0.1-0.5,0.1-0.8,0.1C52.8,10.2,52.6,10.2,52.3,10.1L52.3,10.1z"/>
<rect x="52.1" y="11.6" fill="#423E3F" width="2" height="0.9"/>
<rect x="52.3" y="11.8" fill="#4F4C4D" width="1.6" height="0.6"/>
<path fill="#C8C7C7" d="M52.3,11.8c0.5,0,1,0,1.6,0v0c-0.3,0.1-0.5,0.1-0.8,0.1C52.8,11.9,52.6,11.9,52.3,11.8L52.3,11.8z"/>
<rect x="52.1" y="30.3" fill="#423E3F" width="2" height="0.9"/>
<rect x="52.3" y="30.5" fill="#4F4C4D" width="1.6" height="0.6"/>
<path fill="#C8C7C7" d="M52.3,30.5c0.5,0,1,0,1.6,0v0c-0.3,0.1-0.5,0.1-0.8,0.1C52.8,30.6,52.6,30.6,52.3,30.5L52.3,30.5z"/>
<g>
	<g>
		<defs>
			<rect id="SVGID_13_" x="52.1" y="15.2" width="1.8" height="1.3"/>
		</defs>
		<clipPath id="SVGID_14_">
			<use xlink:href="#SVGID_13_"  overflow="visible"/>
		</clipPath>
		<path clip-path="url(#SVGID_14_)" fill="#D3D2D2" d="M53.9,15.9c0,0.4-0.4,0.7-0.9,0.7s-0.9-0.3-0.9-0.7s0.4-0.7,0.9-0.7
			S53.9,15.5,53.9,15.9"/>
	</g>
</g>
<circle fill="none" stroke="#4F4C4D" stroke-width="0.139" stroke-miterlimit="10" cx="53.2" cy="15.9" r="0.7"/>
<path fill="#A7A5A6" d="M53.7,15.6c-0.1-0.2-0.3-0.3-0.5-0.3c-0.3,0-0.6,0.3-0.6,0.6s0.3,0.6,0.6,0.6c0.2,0,0.4-0.1,0.5-0.3
	l-0.5-0.3L53.7,15.6z"/>
<path fill="#D3D2D2" d="M53.7,15.6l-0.5,0.3l0.5,0.3c0-0.1,0.1-0.2,0.1-0.3C53.8,15.8,53.8,15.7,53.7,15.6"/>
<g>
	<g>
		<defs>
			<rect id="SVGID_15_" x="52.1" y="17.8" width="1.8" height="1.3"/>
		</defs>
		<clipPath id="SVGID_16_">
			<use xlink:href="#SVGID_15_"  overflow="visible"/>
		</clipPath>
		<path clip-path="url(#SVGID_16_)" fill="#D3D2D2" d="M53.9,18.4c0,0.4-0.4,0.7-0.9,0.7s-0.9-0.3-0.9-0.7s0.4-0.7,0.9-0.7
			S53.9,18.1,53.9,18.4"/>
	</g>
</g>
<circle fill="none" stroke="#4F4C4D" stroke-width="0.139" stroke-miterlimit="10" cx="53.2" cy="18.4" r="0.7"/>
<path fill="#A7A5A6" d="M53.7,18.2c-0.1-0.2-0.3-0.3-0.5-0.3c-0.3,0-0.6,0.3-0.6,0.6s0.3,0.6,0.6,0.6c0.2,0,0.4-0.1,0.5-0.3
	l-0.5-0.3L53.7,18.2z"/>
<path fill="#D3D2D2" d="M53.7,18.2l-0.5,0.3l0.5,0.3c0-0.1,0.1-0.2,0.1-0.3S53.8,18.2,53.7,18.2"/>
<g>
	<g>
		<defs>
			<rect id="SVGID_17_" x="52.1" y="20.3" width="1.8" height="1.3"/>
		</defs>
		<clipPath id="SVGID_18_">
			<use xlink:href="#SVGID_17_"  overflow="visible"/>
		</clipPath>
		<path clip-path="url(#SVGID_18_)" fill="#D3D2D2" d="M53.9,21c0,0.4-0.4,0.7-0.9,0.7s-0.9-0.3-0.9-0.7s0.4-0.7,0.9-0.7
			S53.9,20.6,53.9,21"/>
	</g>
</g>
<circle fill="none" stroke="#4F4C4D" stroke-width="0.139" stroke-miterlimit="10" cx="53.2" cy="21" r="0.7"/>
<path fill="#A7A5A6" d="M53.7,20.7c-0.1-0.2-0.3-0.3-0.5-0.3c-0.3,0-0.6,0.3-0.6,0.6s0.3,0.6,0.6,0.6c0.2,0,0.4-0.1,0.5-0.3L53.2,21
	L53.7,20.7z"/>
<path fill="#D3D2D2" d="M53.7,20.7L53.2,21l0.5,0.3c0-0.1,0.1-0.2,0.1-0.3C53.8,20.9,53.8,20.8,53.7,20.7"/>
<g>
	<g>
		<defs>
			<rect id="SVGID_19_" x="52.1" y="22.9" width="1.8" height="1.3"/>
		</defs>
		<clipPath id="SVGID_20_">
			<use xlink:href="#SVGID_19_"  overflow="visible"/>
		</clipPath>
		<path clip-path="url(#SVGID_20_)" fill="#D3D2D2" d="M53.9,23.6c0,0.4-0.4,0.7-0.9,0.7s-0.9-0.3-0.9-0.7c0-0.4,0.4-0.7,0.9-0.7
			S53.9,23.2,53.9,23.6"/>
	</g>
</g>
<circle fill="none" stroke="#4F4C4D" stroke-width="0.139" stroke-miterlimit="10" cx="53.2" cy="23.6" r="0.7"/>
<path fill="#A7A5A6" d="M53.7,23.3c-0.1-0.2-0.3-0.3-0.5-0.3c-0.3,0-0.6,0.3-0.6,0.6c0,0.3,0.3,0.6,0.6,0.6c0.2,0,0.4-0.1,0.5-0.3
	l-0.5-0.3L53.7,23.3z"/>
<path fill="#D3D2D2" d="M53.7,23.3l-0.5,0.3l0.5,0.3c0-0.1,0.1-0.2,0.1-0.3C53.8,23.5,53.8,23.4,53.7,23.3"/>
<g>
	<g>
		<defs>
			<rect id="SVGID_21_" x="52" y="39.3" width="1.8" height="1.3"/>
		</defs>
		<clipPath id="SVGID_22_">
			<use xlink:href="#SVGID_21_"  overflow="visible"/>
		</clipPath>
		<path clip-path="url(#SVGID_22_)" fill="#D3D2D2" d="M53.8,40c0,0.4-0.4,0.7-0.9,0.7S52,40.4,52,40c0-0.4,0.4-0.7,0.9-0.7
			S53.8,39.6,53.8,40"/>
	</g>
</g>
<circle fill="none" stroke="#4F4C4D" stroke-width="0.139" stroke-miterlimit="10" cx="53.1" cy="40" r="0.7"/>
<path fill="#A7A5A6" d="M53.7,39.7c-0.1-0.2-0.3-0.3-0.5-0.3c-0.3,0-0.6,0.3-0.6,0.6c0,0.3,0.3,0.6,0.6,0.6c0.2,0,0.4-0.1,0.5-0.3
	L53.1,40L53.7,39.7z"/>
<path fill="#D3D2D2" d="M53.7,39.7L53.1,40l0.5,0.3c0-0.1,0.1-0.2,0.1-0.3C53.7,39.9,53.7,39.8,53.7,39.7"/>
<path fill="#C8C7C7" d="M52.4,35l-0.2-0.5c0,0.1-0.1,0.2-0.1,0.2v1.7c0,0.1,0,0.2,0.1,0.2l0.2-0.6V35z"/>
<path fill="#B2B1B1" d="M53.8,35l0.2-0.5c-0.1-0.1-0.2-0.3-0.4-0.3h-0.9c-0.2,0-0.3,0.1-0.4,0.3l0.2,0.5H53.8z"/>
<path fill="#E9E9E9" d="M52.4,36l-0.2,0.6c0.1,0.2,0.2,0.3,0.4,0.3h0.9c0.2,0,0.3-0.1,0.4-0.3L53.8,36H52.4z"/>
<path fill="#C8C7C7" d="M53.8,35v1l0.2,0.6c0-0.1,0.1-0.1,0.1-0.2v-1.7c0-0.1,0-0.2-0.1-0.2L53.8,35z"/>
<rect x="52.4" y="35" fill="#F9EFDD" width="1.5" height="1"/>
<path fill="#F4F4F4" d="M53.5,36.9h-0.9c-0.2,0-0.3-0.1-0.4-0.3c0-0.1-0.1-0.1-0.1-0.2v0.1c0,0.1,0,0.2,0.1,0.2
	c0.1,0.2,0.2,0.3,0.4,0.3L53.5,36.9c0.2,0.1,0.3-0.1,0.4-0.2c0-0.1,0.1-0.1,0.1-0.2v-0.1c0,0.1,0,0.2-0.1,0.2
	C53.9,36.8,53.7,36.9,53.5,36.9"/>
<g opacity="0.5">
	<g>
		<defs>
			<rect id="SVGID_23_" x="54.6" y="1.4" width="0.5" height="42.1"/>
		</defs>
		<clipPath id="SVGID_24_">
			<use xlink:href="#SVGID_23_"  overflow="visible"/>
		</clipPath>
		
			<line clip-path="url(#SVGID_24_)" fill="none" stroke="#231F20" stroke-width="0.502" stroke-miterlimit="10" x1="54.8" y1="1.4" x2="54.8" y2="43.5"/>
	</g>
</g>
<g opacity="0.5">
	<g>
		<defs>
			<rect id="SVGID_25_" x="55" y="1.4" width="0.1" height="42.1"/>
		</defs>
		<clipPath id="SVGID_26_">
			<use xlink:href="#SVGID_25_"  overflow="visible"/>
		</clipPath>
		
			<line clip-path="url(#SVGID_26_)" fill="none" stroke="#DEDDDE" stroke-width="0.142" stroke-miterlimit="10" x1="55.1" y1="1.4" x2="55.1" y2="43.5"/>
	</g>
</g>
<g opacity="0.5">
	<g>
		<defs>
			<rect id="SVGID_27_" x="55.2" y="1.4" width="0.5" height="42.1"/>
		</defs>
		<clipPath id="SVGID_28_">
			<use xlink:href="#SVGID_27_"  overflow="visible"/>
		</clipPath>
		
			<line clip-path="url(#SVGID_28_)" fill="none" stroke="#231F20" stroke-width="0.502" stroke-miterlimit="10" x1="55.4" y1="1.4" x2="55.4" y2="43.5"/>
	</g>
</g>
<g opacity="0.5">
	<g>
		<defs>
			<rect id="SVGID_29_" x="55.6" y="1.4" width="0.1" height="42.1"/>
		</defs>
		<clipPath id="SVGID_30_">
			<use xlink:href="#SVGID_29_"  overflow="visible"/>
		</clipPath>
		
			<line clip-path="url(#SVGID_30_)" fill="none" stroke="#DEDDDE" stroke-width="0.142" stroke-miterlimit="10" x1="55.7" y1="1.4" x2="55.7" y2="43.5"/>
	</g>
</g>
<g opacity="0.5">
	<g>
		<defs>
			<rect id="SVGID_31_" x="55.8" y="1.4" width="0.5" height="42.1"/>
		</defs>
		<clipPath id="SVGID_32_">
			<use xlink:href="#SVGID_31_"  overflow="visible"/>
		</clipPath>
		
			<line clip-path="url(#SVGID_32_)" fill="none" stroke="#231F20" stroke-width="0.502" stroke-miterlimit="10" x1="56.1" y1="1.4" x2="56.1" y2="43.5"/>
	</g>
</g>
<g opacity="0.5">
	<g>
		<defs>
			<rect id="SVGID_33_" x="56.3" y="1.4" width="0.1" height="42.1"/>
		</defs>
		<clipPath id="SVGID_34_">
			<use xlink:href="#SVGID_33_"  overflow="visible"/>
		</clipPath>
		
			<line clip-path="url(#SVGID_34_)" fill="none" stroke="#DEDDDE" stroke-width="0.142" stroke-miterlimit="10" x1="56.3" y1="1.4" x2="56.3" y2="43.5"/>
	</g>
</g>
<g opacity="0.5">
	<g>
		<defs>
			<rect id="SVGID_35_" x="56.5" y="1.4" width="0.5" height="42.1"/>
		</defs>
		<clipPath id="SVGID_36_">
			<use xlink:href="#SVGID_35_"  overflow="visible"/>
		</clipPath>
		
			<line clip-path="url(#SVGID_36_)" fill="none" stroke="#231F20" stroke-width="0.502" stroke-miterlimit="10" x1="56.7" y1="1.4" x2="56.7" y2="43.5"/>
	</g>
</g>
<g opacity="0.5">
	<g>
		<defs>
			<rect id="SVGID_37_" x="56.9" y="1.4" width="0.1" height="42.1"/>
		</defs>
		<clipPath id="SVGID_38_">
			<use xlink:href="#SVGID_37_"  overflow="visible"/>
		</clipPath>
		
			<line clip-path="url(#SVGID_38_)" fill="none" stroke="#DEDDDE" stroke-width="0.142" stroke-miterlimit="10" x1="57" y1="1.4" x2="57" y2="43.5"/>
	</g>
</g>
<g opacity="0.5">
	<g>
		<defs>
			<rect id="SVGID_39_" x="57.1" y="1.4" width="0.5" height="42.1"/>
		</defs>
		<clipPath id="SVGID_40_">
			<use xlink:href="#SVGID_39_"  overflow="visible"/>
		</clipPath>
		
			<line clip-path="url(#SVGID_40_)" fill="none" stroke="#231F20" stroke-width="0.502" stroke-miterlimit="10" x1="57.4" y1="1.4" x2="57.4" y2="43.5"/>
	</g>
</g>
<g opacity="0.5">
	<g>
		<defs>
			<rect id="SVGID_41_" x="57.5" y="1.4" width="0.1" height="42.1"/>
		</defs>
		<clipPath id="SVGID_42_">
			<use xlink:href="#SVGID_41_"  overflow="visible"/>
		</clipPath>
		
			<line clip-path="url(#SVGID_42_)" fill="none" stroke="#DEDDDE" stroke-width="0.142" stroke-miterlimit="10" x1="57.6" y1="1.4" x2="57.6" y2="43.5"/>
	</g>
</g>
<g opacity="0.5">
	<g>
		<defs>
			<rect id="SVGID_43_" x="57.7" y="1.4" width="0.5" height="42.1"/>
		</defs>
		<clipPath id="SVGID_44_">
			<use xlink:href="#SVGID_43_"  overflow="visible"/>
		</clipPath>
		
			<line clip-path="url(#SVGID_44_)" fill="none" stroke="#231F20" stroke-width="0.502" stroke-miterlimit="10" x1="58" y1="1.4" x2="58" y2="43.5"/>
	</g>
</g>
<g opacity="0.5">
	<g>
		<defs>
			<rect id="SVGID_45_" x="58.2" y="1.4" width="0.1" height="42.1"/>
		</defs>
		<clipPath id="SVGID_46_">
			<use xlink:href="#SVGID_45_"  overflow="visible"/>
		</clipPath>
		
			<line clip-path="url(#SVGID_46_)" fill="none" stroke="#DEDDDE" stroke-width="0.142" stroke-miterlimit="10" x1="58.2" y1="1.4" x2="58.2" y2="43.5"/>
	</g>
</g>
<g opacity="0.5">
	<g>
		<defs>
			<rect id="SVGID_47_" x="58.4" y="1.4" width="0.5" height="42.1"/>
		</defs>
		<clipPath id="SVGID_48_">
			<use xlink:href="#SVGID_47_"  overflow="visible"/>
		</clipPath>
		
			<line clip-path="url(#SVGID_48_)" fill="none" stroke="#231F20" stroke-width="0.502" stroke-miterlimit="10" x1="58.6" y1="1.4" x2="58.6" y2="43.5"/>
	</g>
</g>
<g opacity="0.5">
	<g>
		<defs>
			<rect id="SVGID_49_" x="58.8" y="1.4" width="0.1" height="42.1"/>
		</defs>
		<clipPath id="SVGID_50_">
			<use xlink:href="#SVGID_49_"  overflow="visible"/>
		</clipPath>
		
			<line clip-path="url(#SVGID_50_)" fill="none" stroke="#DEDDDE" stroke-width="0.142" stroke-miterlimit="10" x1="58.9" y1="1.4" x2="58.9" y2="43.5"/>
	</g>
</g>
<g opacity="0.5">
	<g>
		<defs>
			<rect id="SVGID_51_" x="59" y="1.4" width="0.5" height="42.1"/>
		</defs>
		<clipPath id="SVGID_52_">
			<use xlink:href="#SVGID_51_"  overflow="visible"/>
		</clipPath>
		
			<line clip-path="url(#SVGID_52_)" fill="none" stroke="#231F20" stroke-width="0.502" stroke-miterlimit="10" x1="59.3" y1="1.4" x2="59.3" y2="43.5"/>
	</g>
</g>
<g opacity="0.5">
	<g>
		<defs>
			<rect id="SVGID_53_" x="59.4" y="1.4" width="0.1" height="42.1"/>
		</defs>
		<clipPath id="SVGID_54_">
			<use xlink:href="#SVGID_53_"  overflow="visible"/>
		</clipPath>
		
			<line clip-path="url(#SVGID_54_)" fill="none" stroke="#DEDDDE" stroke-width="0.142" stroke-miterlimit="10" x1="59.5" y1="1.4" x2="59.5" y2="43.5"/>
	</g>
</g>
<g opacity="0.5">
	<g>
		<defs>
			<rect id="SVGID_55_" x="59.7" y="1.4" width="0.5" height="42.1"/>
		</defs>
		<clipPath id="SVGID_56_">
			<use xlink:href="#SVGID_55_"  overflow="visible"/>
		</clipPath>
		
			<line clip-path="url(#SVGID_56_)" fill="none" stroke="#231F20" stroke-width="0.502" stroke-miterlimit="10" x1="59.9" y1="1.4" x2="59.9" y2="43.5"/>
	</g>
</g>
<g opacity="0.5">
	<g>
		<defs>
			<rect id="SVGID_57_" x="60.1" y="1.4" width="0.1" height="42.1"/>
		</defs>
		<clipPath id="SVGID_58_">
			<use xlink:href="#SVGID_57_"  overflow="visible"/>
		</clipPath>
		
			<line clip-path="url(#SVGID_58_)" fill="none" stroke="#DEDDDE" stroke-width="0.142" stroke-miterlimit="10" x1="60.2" y1="1.4" x2="60.2" y2="43.5"/>
	</g>
</g>
<g opacity="0.5">
	<g>
		<defs>
			<rect id="SVGID_59_" x="60.3" y="1.4" width="0.5" height="42.1"/>
		</defs>
		<clipPath id="SVGID_60_">
			<use xlink:href="#SVGID_59_"  overflow="visible"/>
		</clipPath>
		
			<line clip-path="url(#SVGID_60_)" fill="none" stroke="#231F20" stroke-width="0.502" stroke-miterlimit="10" x1="60.5" y1="1.4" x2="60.5" y2="43.5"/>
	</g>
</g>
<g opacity="0.5">
	<g>
		<defs>
			<rect id="SVGID_61_" x="60.7" y="1.4" width="0.1" height="42.1"/>
		</defs>
		<clipPath id="SVGID_62_">
			<use xlink:href="#SVGID_61_"  overflow="visible"/>
		</clipPath>
		
			<line clip-path="url(#SVGID_62_)" fill="none" stroke="#DEDDDE" stroke-width="0.142" stroke-miterlimit="10" x1="60.8" y1="1.4" x2="60.8" y2="43.5"/>
	</g>
</g>
<g opacity="0.5">
	<g>
		<defs>
			<rect id="SVGID_63_" x="60.9" y="1.4" width="0.5" height="42.1"/>
		</defs>
		<clipPath id="SVGID_64_">
			<use xlink:href="#SVGID_63_"  overflow="visible"/>
		</clipPath>
		
			<line clip-path="url(#SVGID_64_)" fill="none" stroke="#231F20" stroke-width="0.502" stroke-miterlimit="10" x1="61.2" y1="1.4" x2="61.2" y2="43.5"/>
	</g>
</g>
<g opacity="0.5">
	<g>
		<defs>
			<rect id="SVGID_65_" x="61.4" y="1.4" width="0.1" height="42.1"/>
		</defs>
		<clipPath id="SVGID_66_">
			<use xlink:href="#SVGID_65_"  overflow="visible"/>
		</clipPath>
		
			<line clip-path="url(#SVGID_66_)" fill="none" stroke="#DEDDDE" stroke-width="0.142" stroke-miterlimit="10" x1="61.4" y1="1.4" x2="61.4" y2="43.5"/>
	</g>
</g>
<g opacity="0.5">
	<g>
		<defs>
			<rect id="SVGID_67_" x="61.6" y="1.4" width="0.5" height="42.1"/>
		</defs>
		<clipPath id="SVGID_68_">
			<use xlink:href="#SVGID_67_"  overflow="visible"/>
		</clipPath>
		
			<line clip-path="url(#SVGID_68_)" fill="none" stroke="#231F20" stroke-width="0.502" stroke-miterlimit="10" x1="61.8" y1="1.4" x2="61.8" y2="43.5"/>
	</g>
</g>
<g opacity="0.5">
	<g>
		<defs>
			<rect id="SVGID_69_" x="62" y="1.4" width="0.1" height="42.1"/>
		</defs>
		<clipPath id="SVGID_70_">
			<use xlink:href="#SVGID_69_"  overflow="visible"/>
		</clipPath>
		
			<line clip-path="url(#SVGID_70_)" fill="none" stroke="#DEDDDE" stroke-width="0.142" stroke-miterlimit="10" x1="62.1" y1="1.4" x2="62.1" y2="43.5"/>
	</g>
</g>
<g opacity="0.5">
	<g>
		<defs>
			<rect id="SVGID_71_" x="62.2" y="1.4" width="0.5" height="42.1"/>
		</defs>
		<clipPath id="SVGID_72_">
			<use xlink:href="#SVGID_71_"  overflow="visible"/>
		</clipPath>
		
			<line clip-path="url(#SVGID_72_)" fill="none" stroke="#231F20" stroke-width="0.502" stroke-miterlimit="10" x1="62.5" y1="1.4" x2="62.5" y2="43.5"/>
	</g>
</g>
<g opacity="0.5">
	<g>
		<defs>
			<rect id="SVGID_73_" x="62.6" y="1.4" width="0.1" height="42.1"/>
		</defs>
		<clipPath id="SVGID_74_">
			<use xlink:href="#SVGID_73_"  overflow="visible"/>
		</clipPath>
		
			<line clip-path="url(#SVGID_74_)" fill="none" stroke="#DEDDDE" stroke-width="0.142" stroke-miterlimit="10" x1="62.7" y1="1.4" x2="62.7" y2="43.5"/>
	</g>
</g>
<g opacity="0.5">
	<g>
		<defs>
			<rect id="SVGID_75_" x="62.8" y="1.4" width="0.5" height="42.1"/>
		</defs>
		<clipPath id="SVGID_76_">
			<use xlink:href="#SVGID_75_"  overflow="visible"/>
		</clipPath>
		
			<line clip-path="url(#SVGID_76_)" fill="none" stroke="#231F20" stroke-width="0.502" stroke-miterlimit="10" x1="63.1" y1="1.4" x2="63.1" y2="43.5"/>
	</g>
</g>
<g opacity="0.5">
	<g>
		<defs>
			<rect id="SVGID_77_" x="63.3" y="1.4" width="0.1" height="42.1"/>
		</defs>
		<clipPath id="SVGID_78_">
			<use xlink:href="#SVGID_77_"  overflow="visible"/>
		</clipPath>
		
			<line clip-path="url(#SVGID_78_)" fill="none" stroke="#DEDDDE" stroke-width="0.142" stroke-miterlimit="10" x1="63.3" y1="1.4" x2="63.3" y2="43.5"/>
	</g>
</g>
<g opacity="0.5">
	<g>
		<defs>
			<rect id="SVGID_79_" x="63.5" y="1.4" width="0.5" height="42.1"/>
		</defs>
		<clipPath id="SVGID_80_">
			<use xlink:href="#SVGID_79_"  overflow="visible"/>
		</clipPath>
		
			<line clip-path="url(#SVGID_80_)" fill="none" stroke="#231F20" stroke-width="0.502" stroke-miterlimit="10" x1="63.7" y1="1.4" x2="63.7" y2="43.5"/>
	</g>
</g>
<g opacity="0.5">
	<g>
		<defs>
			<rect id="SVGID_81_" x="63.9" y="1.4" width="0.1" height="42.1"/>
		</defs>
		<clipPath id="SVGID_82_">
			<use xlink:href="#SVGID_81_"  overflow="visible"/>
		</clipPath>
		
			<line clip-path="url(#SVGID_82_)" fill="none" stroke="#DEDDDE" stroke-width="0.142" stroke-miterlimit="10" x1="64" y1="1.4" x2="64" y2="43.5"/>
	</g>
</g>
<g opacity="0.5">
	<g>
		<defs>
			<rect id="SVGID_83_" x="64.1" y="1.4" width="0.5" height="42.1"/>
		</defs>
		<clipPath id="SVGID_84_">
			<use xlink:href="#SVGID_83_"  overflow="visible"/>
		</clipPath>
		
			<line clip-path="url(#SVGID_84_)" fill="none" stroke="#231F20" stroke-width="0.502" stroke-miterlimit="10" x1="64.4" y1="1.4" x2="64.4" y2="43.5"/>
	</g>
</g>
<g opacity="0.5">
	<g>
		<defs>
			<rect id="SVGID_85_" x="64.5" y="1.4" width="0.1" height="42.1"/>
		</defs>
		<clipPath id="SVGID_86_">
			<use xlink:href="#SVGID_85_"  overflow="visible"/>
		</clipPath>
		
			<line clip-path="url(#SVGID_86_)" fill="none" stroke="#DEDDDE" stroke-width="0.142" stroke-miterlimit="10" x1="64.6" y1="1.4" x2="64.6" y2="43.5"/>
	</g>
</g>
<rect x="55.9" y="41.2" fill="#DEDDDE" width="8.1" height="1.2"/>
<g>
	<g>
		<defs>
			<rect id="SVGID_87_" x="55.9" y="42.3" width="8.1" height="0.2"/>
		</defs>
		<clipPath id="SVGID_88_">
			<use xlink:href="#SVGID_87_"  overflow="visible"/>
		</clipPath>
		<rect x="55.9" y="42.3" clip-path="url(#SVGID_88_)" fill="#444142" width="8.1" height="0.2"/>
	</g>
</g>
<rect x="56.1" y="41.3" fill="#B52126" width="0.4" height="0.8"/>
<rect x="56.5" y="41.3" fill="#A0A96A" width="0.4" height="0.8"/>
<rect x="56.9" y="41.3" fill="#1498C3" width="0.4" height="0.8"/>
<rect x="3" y="2.8" fill="#BDBCBC" width="46.8" height="38.9"/>
<rect x="3" y="2.8" fill="none" stroke="#DCDBDB" stroke-width="0.492" stroke-miterlimit="10" width="46.8" height="38.9"/>
<g opacity="0.75">
	<g>
		<defs>
			<rect id="SVGID_89_" x="3.4" y="34.3" width="6.4" height="6.9"/>
		</defs>
		<clipPath id="SVGID_90_">
			<use xlink:href="#SVGID_89_"  overflow="visible"/>
		</clipPath>
		<polygon clip-path="url(#SVGID_90_)" fill="#A7A5A6" points="8.1,34.3 3.4,41.2 9.8,35.6 		"/>
	</g>
</g>
<g opacity="0.75">
	<g>
		<defs>
			<rect id="SVGID_91_" x="42.8" y="34.3" width="6.4" height="6.9"/>
		</defs>
		<clipPath id="SVGID_92_">
			<use xlink:href="#SVGID_91_"  overflow="visible"/>
		</clipPath>
		<polygon clip-path="url(#SVGID_92_)" fill="#A7A5A6" points="44.5,34.3 49.2,41.2 42.8,35.6 		"/>
	</g>
</g>
<g opacity="0.75">
	<g>
		<defs>
			<rect id="SVGID_93_" x="3.4" y="3.5" width="6.4" height="6.9"/>
		</defs>
		<clipPath id="SVGID_94_">
			<use xlink:href="#SVGID_93_"  overflow="visible"/>
		</clipPath>
		<polygon clip-path="url(#SVGID_94_)" fill="#676465" points="8.1,10.4 3.4,3.5 9.8,9.1 		"/>
	</g>
</g>
<g opacity="0.75">
	<g>
		<defs>
			<rect id="SVGID_95_" x="42.8" y="3.5" width="6.4" height="6.9"/>
		</defs>
		<clipPath id="SVGID_96_">
			<use xlink:href="#SVGID_95_"  overflow="visible"/>
		</clipPath>
		<polygon clip-path="url(#SVGID_96_)" fill="#676465" points="44.5,10.4 49.2,3.5 42.8,9.1 		"/>
	</g>
</g>
<path fill="#C0D1DA" d="M47,22.3L47,22.3c0-2.2-1.1-9.5-1.6-11.2c-0.5-1.7,0-1.9-2.9-3.3c-2.9-1.4-16.2-2.1-16.2-2.1
	S13.1,6.3,10.2,7.8c-2.9,1.5-2.4,1.7-2.9,3.3c-0.5,1.7-1.6,9-1.6,11.2c0,2.2,1.1,9.5,1.6,11.2c0.5,1.7,0,1.9,2.9,3.3
	c2.9,1.5,16.2,2.1,16.2,2.1s13.3-0.6,16.2-2.1c2.9-1.5,2.4-1.7,2.9-3.3C45.9,31.8,47,24.5,47,22.3z"/>
<g opacity="0.15">
	<g>
		<defs>
			<rect id="SVGID_97_" x="6.9" y="7.1" width="39" height="31.3"/>
		</defs>
		<clipPath id="SVGID_98_">
			<use xlink:href="#SVGID_97_"  overflow="visible"/>
		</clipPath>
		<path clip-path="url(#SVGID_98_)" fill="#C0D1DA" d="M45.9,22.7L45.9,22.7c0-2.1-1.1-9-1.5-10.6c-0.4-1.6,0-1.8-2.7-3.1
			c-2.7-1.4-15.3-2-15.3-2S13.8,7.6,11.1,9c-2.7,1.4-2.3,1.6-2.7,3.1c-0.4,1.6-1.5,8.5-1.5,10.6s1.1,9,1.5,10.6
			c0.4,1.6,0,1.8,2.7,3.1c2.7,1.4,15.3,2,15.3,2s12.5-0.6,15.3-2c2.7-1.4,2.3-1.6,2.7-3.1C44.8,31.7,45.9,24.8,45.9,22.7"/>
	</g>
</g>
<g>
	<g>
		<defs>
			<rect id="SVGID_99_" x="5.7" y="5.7" width="41.3" height="17"/>
		</defs>
		<clipPath id="SVGID_100_">
			<use xlink:href="#SVGID_99_"  overflow="visible"/>
		</clipPath>
		<path clip-path="url(#SVGID_100_)" fill="#C0D1DA" d="M45.4,11.1c-0.5-1.7,0-1.9-2.9-3.3c-2.9-1.5-16.2-2.1-16.2-2.1
			S13.1,6.3,10.2,7.8c-2.9,1.5-2.4,1.7-2.9,3.3c-0.5,1.7-1.6,9-1.6,11.2v0c0,0.1,0,0.3,0,0.4c0.1-2.6,1.1-9.2,1.6-10.8
			c0.5-1.7,0-1.9,2.9-3.3c2.9-1.4,16.2-2.1,16.2-2.1s13.3,0.6,16.2,2.1c2.9,1.5,2.4,1.7,2.9,3.3c0.4,1.6,1.4,8.2,1.6,10.8
			c0-0.2,0-0.3,0-0.4v0C47,20.1,45.9,12.8,45.4,11.1"/>
	</g>
</g>
<g opacity="0.3">
	<g>
		<defs>
			<rect id="SVGID_101_" x="29.7" y="14.6" width="9.4" height="9.5"/>
		</defs>
		<clipPath id="SVGID_102_">
			<use xlink:href="#SVGID_101_"  overflow="visible"/>
		</clipPath>
		<polygon clip-path="url(#SVGID_102_)" fill="#C0D1DA" points="35,14.6 37,16.7 39.1,18.8 37.7,21.4 36.3,24 33.4,23.4 30.5,23 
			30.2,20.1 29.7,17.2 32.4,15.9 		"/>
	</g>
</g>
<g opacity="0.3">
	<g>
		<defs>
			<rect id="SVGID_103_" x="28.7" y="14.6" width="6.1" height="6.3"/>
		</defs>
		<clipPath id="SVGID_104_">
			<use xlink:href="#SVGID_103_"  overflow="visible"/>
		</clipPath>
		<polygon clip-path="url(#SVGID_104_)" fill="#C0D1DA" points="30.8,14.6 32.7,15.1 34.6,15.6 34.7,17.5 34.8,19.5 33,20.2 
			31.2,20.9 30,19.4 28.7,17.9 29.8,16.3 		"/>
	</g>
</g>
</svg>
