<?xml version="1.0" encoding="utf-8"?>
<!-- Generator: Adobe Illustrator 15.0.2, SVG Export Plug-In . SVG Version: 6.00 Build 0)  -->
<!DOCTYPE svg PUBLIC "-//W3C//DTD SVG 1.1//EN" "http://www.w3.org/Graphics/SVG/1.1/DTD/svg11.dtd">
<svg version="1.1" id="Layer_1" xmlns="http://www.w3.org/2000/svg" xmlns:xlink="http://www.w3.org/1999/xlink" x="0px" y="0px"
	 width="73px" height="58.9px" viewBox="0 0 73 58.9" enable-background="new 0 0 73 58.9" xml:space="preserve">
<path fill="#2E2A2B" d="M32.5,33.6v23.9c0,0,0.8,1.4,2.5,1.4h6.3c0,0,2.5-0.3,2.5-2V39.7c0,0,0.4-3.8,4-3.8h7.6c0,0,1.2-0.2,1.2-2.4
	v-2.1h-24V33.6z"/>
<path fill="#2E2A2B" d="M31.3,29.8H27c-0.2,0-0.4,0.2-0.4,0.4v0.2h0.2c0.2,0,0.4,0.2,0.4,0.4v2.4c0,0.2-0.2,0.4-0.4,0.4h-0.2v0.4
	c0,0.2,0.2,0.4,0.4,0.4h4.3c0.2,0,0.4-0.2,0.4-0.4v-3.9C31.8,30,31.6,29.8,31.3,29.8"/>
<path fill="#444142" d="M56.9,33.1c0,0.2-0.2,0.4-0.4,0.4H30c-0.2,0-0.4-0.2-0.4-0.4v-5.2c0-0.2,0.2-0.4,0.4-0.4h26.5
	c0.2,0,0.4,0.2,0.4,0.4V33.1z"/>
<rect x="29.6" y="28.4" fill="#2E2A2B" width="27.4" height="1.9"/>
<rect x="32.5" y="33.6" fill="#231F20" width="24" height="0.5"/>
<rect x="65" y="2.5" fill="#444142" width="1.9" height="5.5"/>
<rect x="66.9" y="2.2" fill="#444142" width="1.9" height="6"/>
<rect x="68.8" y="1.8" fill="#444142" width="1.7" height="6.7"/>
<path fill="#444142" d="M70.4,1.6v3.6v3.6c0,0,0.9,1.1,2.5,1.1V5.2V0.5C71.3,0.5,70.4,1.6,70.4,1.6"/>
<path fill="#2E2A2B" d="M70.4,3.7v0.8v0.8c0,0,0.9,0.2,2.5,0.2V4.5V3.4C71.3,3.4,70.4,3.7,70.4,3.7"/>
<path fill="#7B7979" d="M70.4,2.4v0.8v0.8c0,0,0.9,0,2.5,0V3.1v-1C71.3,2.2,70.4,2.4,70.4,2.4"/>
<rect x="66.9" y="2.9" fill="#7B7979" width="1.9" height="0.9"/>
<rect x="68.8" y="2.7" fill="#7B7979" width="1.7" height="1.2"/>
<rect x="65" y="3" fill="#7B7979" width="1.9" height="0.8"/>
<rect x="66.9" y="3.9" fill="#2E2A2B" width="1.9" height="1.1"/>
<rect x="68.8" y="3.8" fill="#2E2A2B" width="1.7" height="1.3"/>
<rect x="65" y="3.9" fill="#2E2A2B" width="1.9" height="1.1"/>
<line fill="none" stroke="#E9E9E9" stroke-width="0.121" stroke-miterlimit="10" x1="67.2" y1="7.9" x2="67.8" y2="7.9"/>
<line fill="none" stroke="#E9E9E9" stroke-width="0.121" stroke-miterlimit="10" x1="67.2" y1="7.5" x2="67.8" y2="7.5"/>
<line fill="none" stroke="#E9E9E9" stroke-width="0.121" stroke-miterlimit="10" x1="67.2" y1="6.8" x2="67.8" y2="6.8"/>
<line fill="none" stroke="#E9E9E9" stroke-width="0.121" stroke-miterlimit="10" x1="67.2" y1="6" x2="67.8" y2="6"/>
<line fill="none" stroke="#E9E9E9" stroke-width="0.121" stroke-miterlimit="10" x1="67.2" y1="5.2" x2="67.8" y2="5.2"/>
<line fill="none" stroke="#E9E9E9" stroke-width="0.121" stroke-miterlimit="10" x1="67.2" y1="2.5" x2="67.8" y2="2.5"/>
<line fill="none" stroke="#E9E9E9" stroke-width="0.121" stroke-miterlimit="10" x1="67.2" y1="2.9" x2="67.8" y2="2.9"/>
<line fill="none" stroke="#E9E9E9" stroke-width="0.121" stroke-miterlimit="10" x1="67.2" y1="3.6" x2="67.8" y2="3.6"/>
<line fill="none" stroke="#E9E9E9" stroke-width="0.121" stroke-miterlimit="10" x1="67.2" y1="4.3" x2="67.8" y2="4.3"/>
<g>
	<g>
		<defs>
			<rect id="SVGID_1_" x="66.6" y="2.5" width="0.3" height="5.5"/>
		</defs>
		<clipPath id="SVGID_2_">
			<use xlink:href="#SVGID_1_"  overflow="visible"/>
		</clipPath>
		<path clip-path="url(#SVGID_2_)" fill="#918F90" d="M66.9,2.5c0,1.8,0,3.6,0,5.5h0c-0.1-0.5-0.2-0.9-0.2-1.4c0-0.5,0-0.9-0.1-1.4
			c0-0.5,0-0.9,0.1-1.4C66.7,3.4,66.8,2.9,66.9,2.5L66.9,2.5z"/>
	</g>
</g>
<g>
	<g>
		<defs>
			<rect id="SVGID_3_" x="68.5" y="2.2" width="0.3" height="6"/>
		</defs>
		<clipPath id="SVGID_4_">
			<use xlink:href="#SVGID_3_"  overflow="visible"/>
		</clipPath>
		<path clip-path="url(#SVGID_4_)" fill="#918F90" d="M68.8,2.2c0,2,0,4,0,6h0c-0.1-0.5-0.2-1-0.2-1.5c0-0.5,0-1-0.1-1.5
			c0-0.5,0-1,0.1-1.5C68.6,3.2,68.6,2.7,68.8,2.2L68.8,2.2z"/>
	</g>
</g>
<g>
	<g>
		<defs>
			<rect id="SVGID_5_" x="70.1" y="1.8" width="0.3" height="6.7"/>
		</defs>
		<clipPath id="SVGID_6_">
			<use xlink:href="#SVGID_5_"  overflow="visible"/>
		</clipPath>
		<path clip-path="url(#SVGID_6_)" fill="#918F90" d="M70.5,1.8c0,2.2,0,4.5,0,6.7h0c-0.1-0.6-0.2-1.1-0.2-1.7c0-0.6,0-1.1-0.1-1.7
			c0-0.6,0-1.1,0.1-1.7C70.3,3,70.3,2.4,70.5,1.8L70.5,1.8z"/>
	</g>
</g>
<path fill="#E9E9E9" d="M26.7,6.8c0,0.3-0.2,0.5-0.5,0.5c-0.3,0-0.5-0.2-0.5-0.5V4.6c0-0.3,0.2-0.5,0.5-0.5c0.3,0,0.5,0.2,0.5,0.5
	V6.8z"/>
<path fill="#D3D2D2" d="M62.9,0h-1.6h-2.5H26.3v29.8h32.5h2.5h1.6c1.4,0,2.6-1.2,2.6-2.6V2.6C65.4,1.2,64.3,0,62.9,0"/>
<rect x="22.5" y="11.7" fill="#5A5758" width="3.7" height="12.1"/>
<rect x="18.9" y="11.5" fill="#5A5758" width="3.6" height="12.6"/>
<rect x="8.7" y="11" fill="#5A5758" width="10.2" height="13.6"/>
<g>
	<g>
		<defs>
			<rect id="SVGID_7_" x="8.7" y="15.7" width="10.2" height="4.3"/>
		</defs>
		<clipPath id="SVGID_8_">
			<use xlink:href="#SVGID_7_"  overflow="visible"/>
		</clipPath>
		<rect x="8.7" y="15.7" clip-path="url(#SVGID_8_)" fill="#D3D2D2" width="10.2" height="4.3"/>
	</g>
</g>
<g>
	<g>
		<defs>
			<rect id="SVGID_9_" x="18.9" y="16.1" width="3.6" height="3.4"/>
		</defs>
		<clipPath id="SVGID_10_">
			<use xlink:href="#SVGID_9_"  overflow="visible"/>
		</clipPath>
		<rect x="18.9" y="16.1" clip-path="url(#SVGID_10_)" fill="#D3D2D2" width="3.6" height="3.4"/>
	</g>
</g>
<g>
	<g>
		<defs>
			<rect id="SVGID_11_" x="22.5" y="16.6" width="3.8" height="2.5"/>
		</defs>
		<clipPath id="SVGID_12_">
			<use xlink:href="#SVGID_11_"  overflow="visible"/>
		</clipPath>
		<rect x="22.5" y="16.6" clip-path="url(#SVGID_12_)" fill="#D3D2D2" width="3.7" height="2.5"/>
	</g>
</g>
<rect x="11.5" y="10.8" fill="#231F20" width="2.8" height="14"/>
<rect x="11.8" y="17.8" fill="#D3D2D2" width="2.2" height="0.8"/>
<rect x="11.8" y="18.7" fill="#D3D2D2" width="2.2" height="0.7"/>
<rect x="11.8" y="19.6" fill="#D3D2D2" width="2.2" height="0.6"/>
<rect x="11.8" y="20.3" fill="#D3D2D2" width="2.2" height="0.5"/>
<rect x="11.8" y="21" fill="#D3D2D2" width="2.2" height="0.5"/>
<rect x="11.8" y="21.6" fill="#D3D2D2" width="2.2" height="0.4"/>
<rect x="11.8" y="22.1" fill="#D3D2D2" width="2.2" height="0.4"/>
<rect x="11.8" y="22.6" fill="#D3D2D2" width="2.2" height="0.3"/>
<rect x="11.8" y="23" fill="#D3D2D2" width="2.2" height="0.3"/>
<rect x="11.8" y="23.4" fill="#D3D2D2" width="2.2" height="0.2"/>
<rect x="11.8" y="23.8" fill="#D3D2D2" width="2.2" height="0.2"/>
<rect x="11.8" y="24.1" fill="#D3D2D2" width="2.2" height="0.2"/>
<rect x="11.8" y="24.4" fill="#D3D2D2" width="2.2" height="0.1"/>
<rect x="11.8" y="24.7" fill="#D3D2D2" width="2.2" height="0.1"/>
<rect x="11.8" y="16.9" fill="#D3D2D2" width="2.2" height="0.8"/>
<rect x="11.8" y="16.1" fill="#D3D2D2" width="2.2" height="0.7"/>
<rect x="11.8" y="15.3" fill="#D3D2D2" width="2.2" height="0.6"/>
<rect x="11.8" y="14.6" fill="#D3D2D2" width="2.2" height="0.5"/>
<rect x="11.8" y="14" fill="#D3D2D2" width="2.2" height="0.5"/>
<rect x="11.8" y="13.5" fill="#D3D2D2" width="2.2" height="0.4"/>
<rect x="11.8" y="13" fill="#D3D2D2" width="2.2" height="0.4"/>
<rect x="11.8" y="12.6" fill="#D3D2D2" width="2.2" height="0.3"/>
<rect x="11.8" y="12.2" fill="#D3D2D2" width="2.2" height="0.3"/>
<rect x="11.8" y="11.8" fill="#D3D2D2" width="2.2" height="0.2"/>
<rect x="11.8" y="11.5" fill="#D3D2D2" width="2.2" height="0.2"/>
<rect x="11.8" y="11.2" fill="#D3D2D2" width="2.2" height="0.2"/>
<rect x="11.8" y="10.9" fill="#D3D2D2" width="2.2" height="0.1"/>
<rect x="11.8" y="10.7" fill="#D3D2D2" width="2.2" height="0.1"/>
<rect x="18" y="18.5" fill="#EFDD85" width="0.4" height="0.6"/>
<rect x="18" y="20" fill="#EFDD85" width="0.4" height="0.5"/>
<rect x="18" y="21.2" fill="#EFDD85" width="0.4" height="0.4"/>
<rect x="18" y="22.1" fill="#EFDD85" width="0.4" height="0.3"/>
<rect x="18" y="22.9" fill="#EFDD85" width="0.4" height="0.2"/>
<rect x="18" y="23.5" fill="#EFDD85" width="0.4" height="0.1"/>
<rect x="18" y="24" fill="#EFDD85" width="0.4" height="0.1"/>
<rect x="18" y="16.8" fill="#EFDD85" width="0.4" height="0.7"/>
<rect x="18" y="15.3" fill="#EFDD85" width="0.4" height="0.6"/>
<rect x="18" y="14.2" fill="#EFDD85" width="0.4" height="0.4"/>
<rect x="18" y="13.2" fill="#EFDD85" width="0.4" height="0.3"/>
<rect x="18" y="12.4" fill="#EFDD85" width="0.4" height="0.2"/>
<rect x="18" y="11.8" fill="#EFDD85" width="0.4" height="0.2"/>
<rect x="18" y="11.3" fill="#EFDD85" width="0.4" height="0.1"/>
<path fill="#231F20" d="M0.2,7.8C0.1,7.8,0,7.8,0,7.9v19.7c0,0.1,0.1,0.2,0.2,0.2c0,0,5.4-0.1,8.6-2.5v-7.5v0v-7.5
	C5.6,7.9,0.2,7.8,0.2,7.8"/>
<g>
	<g>
		<defs>
			<rect id="SVGID_13_" x="0" y="13.2" width="8.7" height="9.2"/>
		</defs>
		<clipPath id="SVGID_14_">
			<use xlink:href="#SVGID_13_"  overflow="visible"/>
		</clipPath>
		<path clip-path="url(#SVGID_14_)" fill="#231F20" d="M0.2,13.2c-0.1,0-0.2,0-0.2,0.1v9.1c0,0,0.1,0.1,0.2,0.1c0,0,5.4,0,8.6-1.1
			v-3.5v0v-3.5C5.6,13.2,0.2,13.2,0.2,13.2"/>
	</g>
</g>
<g>
	<g>
		<defs>
			<rect id="SVGID_15_" x="8.7" y="11" width="0.4" height="13.6"/>
		</defs>
		<clipPath id="SVGID_16_">
			<use xlink:href="#SVGID_15_"  overflow="visible"/>
		</clipPath>
		<path clip-path="url(#SVGID_16_)" fill="#A7A5A6" d="M8.8,11C8.9,12.1,9,13.2,9,14.3c0.1,1.1,0.1,2.3,0.1,3.4c0,1.1,0,2.3-0.1,3.4
			c-0.1,1.1-0.1,2.3-0.3,3.4h0C8.7,20,8.7,15.5,8.8,11L8.8,11z"/>
	</g>
</g>
<g>
	<g>
		<defs>
			<rect id="SVGID_17_" x="18.9" y="11.5" width="0.4" height="12.6"/>
		</defs>
		<clipPath id="SVGID_18_">
			<use xlink:href="#SVGID_17_"  overflow="visible"/>
		</clipPath>
		<path clip-path="url(#SVGID_18_)" fill="#656263" d="M19,11.5c0.1,1,0.2,2.1,0.3,3.1c0.1,1,0.1,2.1,0.1,3.1c0,1,0,2.1-0.1,3.1
			c-0.1,1-0.1,2.1-0.3,3.1h0C18.9,19.8,18.9,15.6,19,11.5L19,11.5z"/>
	</g>
</g>
<g>
	<g>
		<defs>
			<rect id="SVGID_19_" x="22.5" y="11.7" width="0.4" height="12.1"/>
		</defs>
		<clipPath id="SVGID_20_">
			<use xlink:href="#SVGID_19_"  overflow="visible"/>
		</clipPath>
		<path clip-path="url(#SVGID_20_)" fill="#656263" d="M22.5,11.7c0.1,1,0.2,2,0.3,3c0.1,1,0.1,2,0.1,3c0,1,0,2-0.1,3
			c-0.1,1-0.1,2-0.3,3h0C22.5,19.7,22.5,15.7,22.5,11.7L22.5,11.7z"/>
	</g>
</g>
<line fill="none" stroke="#FFFFFF" stroke-width="0.121" stroke-miterlimit="10" x1="17.7" y1="13.8" x2="18.6" y2="13.8"/>
<line fill="none" stroke="#FFFFFF" stroke-width="0.121" stroke-miterlimit="10" x1="17.7" y1="16.4" x2="18.6" y2="16.4"/>
<path fill="#5A5758" d="M8,10.3c0.1,1.2,0.1,2.5,0.1,3.7v3.7v3.7c0,1.2,0,2.5-0.1,3.7c-0.1-1.2-0.1-2.5-0.1-3.7v-3.7V14
	C7.9,12.8,7.9,11.6,8,10.3"/>
<path fill="#A7A5A6" d="M62.9,28.6h-1.6h-2.5H27.5V1.2h0.3L26.3,0v29.8h32.5h2.5h1.6c0.7,0,1.3-0.2,1.7-0.7l-1-0.8
	C63.4,28.5,63.1,28.6,62.9,28.6"/>
<path fill="#E9E9E9" d="M65.4,27.3V2.6c0-1.4-1.1-2.6-2.6-2.6h-1.6h-2.5H26.3v0l1.5,1.2h31h2.5h1.6c0.7,0,1.4,0.6,1.4,1.4v24.7
	c0,0.5-0.3,0.9-0.7,1.2l1,0.8C65.1,28.7,65.4,28,65.4,27.3"/>
<line fill="none" stroke="#E9E9E9" stroke-width="0.428" stroke-miterlimit="10" x1="31.1" y1="0" x2="31.1" y2="29.8"/>
<line fill="none" stroke="#656263" stroke-width="0.428" stroke-miterlimit="10" x1="31.3" y1="0" x2="31.3" y2="29.8"/>
<g>
	<g>
		<defs>
			<rect id="SVGID_21_" x="36" y="5.4" width="4.2" height="4.9"/>
		</defs>
		<clipPath id="SVGID_22_">
			<use xlink:href="#SVGID_21_"  overflow="visible"/>
		</clipPath>
		<path clip-path="url(#SVGID_22_)" fill="#E9E9E9" d="M40.1,8.4c-0.3,1.3-1.5,2.2-2.6,1.9c-1.1-0.3-1.8-1.6-1.4-2.9
			c0.3-1.3,1.5-2.2,2.6-1.9C39.8,5.7,40.4,7,40.1,8.4"/>
	</g>
</g>
<path fill="#E9E9E9" d="M40.3,7.3c0,1.1-0.9,2.1-2.1,2.1c-1.1,0-2.1-0.9-2.1-2.1c0-1.1,0.9-2.1,2.1-2.1C39.3,5.3,40.3,6.2,40.3,7.3"
	/>
<g opacity="0.3">
	<g>
		<defs>
			<rect id="SVGID_23_" x="36.1" y="5.3" width="4.1" height="4.1"/>
		</defs>
		<clipPath id="SVGID_24_">
			<use xlink:href="#SVGID_23_"  overflow="visible"/>
		</clipPath>
		<path clip-path="url(#SVGID_24_)" fill="#E9E9E9" d="M36.8,5.8c-0.4,0.4-0.6,0.9-0.6,1.5c0,1.1,0.9,2.1,2.1,2.1V7.3L36.8,5.8z"/>
		<path clip-path="url(#SVGID_24_)" fill="#E9E9E9" d="M40.3,7.3h-2.1l1.4,1.5C40,8.5,40.3,7.9,40.3,7.3"/>
		<path clip-path="url(#SVGID_24_)" fill="#FFFFFF" d="M38.2,5.3v2.1h2.1C40.3,6.2,39.3,5.3,38.2,5.3"/>
		<path clip-path="url(#SVGID_24_)" fill="#918F90" d="M38.2,9.4c0.6,0,1.1-0.2,1.4-0.6l-1.4-1.5V9.4z"/>
		<path clip-path="url(#SVGID_24_)" fill="#918F90" d="M38.2,5.3c-0.6,0-1.1,0.2-1.4,0.6l1.4,1.5V5.3z"/>
	</g>
</g>
<rect x="36.4" y="7" fill="#A82526" width="0.3" height="0.5"/>
<rect x="32.1" y="5.8" fill="#BDBCBC" width="2.2" height="0.5"/>
<rect x="32.1" y="7" fill="#BDBCBC" width="2.2" height="0.5"/>
<rect x="32.1" y="8.1" fill="#BDBCBC" width="2.2" height="0.5"/>
<line fill="none" stroke="#918F90" stroke-width="0.121" stroke-miterlimit="10" x1="34.7" y1="6.1" x2="35.9" y2="6.1"/>
<line fill="none" stroke="#918F90" stroke-width="0.121" stroke-miterlimit="10" x1="34.7" y1="8.4" x2="35.9" y2="8.4"/>
<line fill="none" stroke="#918F90" stroke-width="0.121" stroke-miterlimit="10" x1="34.7" y1="7.2" x2="35.7" y2="7.2"/>
<rect x="32.8" y="2.2" fill="#918F90" width="1.3" height="0.8"/>
<rect x="32.8" y="2.9" fill="#F4F4F4" width="1.3" height="0.1"/>
<rect x="32.8" y="26.6" fill="#918F90" width="1.3" height="0.8"/>
<rect x="32.8" y="27.3" fill="#F4F4F4" width="1.3" height="0.1"/>
<rect x="62" y="20" fill="#918F90" width="1.3" height="0.7"/>
<rect x="62" y="20.7" fill="#F4F4F4" width="1.3" height="0.1"/>
<rect x="62" y="9.9" fill="#918F90" width="1.3" height="0.8"/>
<rect x="62" y="10.7" fill="#F4F4F4" width="1.3" height="0.1"/>
<rect x="52.9" y="8.1" fill="#444142" width="7.9" height="0.7"/>
<rect x="52.9" y="8.8" fill="#F4F4F4" width="7.9" height="0.1"/>
<g>
	<g>
		<defs>
			<rect id="SVGID_25_" x="34.1" y="21.4" width="4.2" height="4.4"/>
		</defs>
		<clipPath id="SVGID_26_">
			<use xlink:href="#SVGID_25_"  overflow="visible"/>
		</clipPath>
		<path clip-path="url(#SVGID_26_)" fill="#918F90" d="M38.2,23.6c0,1.2-0.9,2.2-2.1,2.2c-1.1,0-2.1-1-2.1-2.2s0.9-2.2,2.1-2.2
			C37.3,21.4,38.2,22.4,38.2,23.6"/>
	</g>
</g>
<path fill="#E9E9E9" d="M34.7,22c-0.4,0.4-0.6,0.9-0.6,1.5c0,1.1,0.9,2.1,2.1,2.1v-2.1L34.7,22z"/>
<path fill="#E9E9E9" d="M38.2,23.5h-2.1l1.4,1.5C38,24.6,38.2,24.1,38.2,23.5"/>
<path fill="#FFFFFF" d="M36.1,21.4v2.1h2.1C38.2,22.3,37.3,21.4,36.1,21.4"/>
<path fill="#918F90" d="M36.1,25.5c0.6,0,1.1-0.2,1.4-0.6l-1.4-1.5V25.5z"/>
<path fill="#918F90" d="M36.1,21.4c-0.6,0-1.1,0.2-1.4,0.6l1.4,1.5V21.4z"/>
<path fill="#D1D0D0" d="M37.6,23.5c0,0.8-0.7,1.5-1.5,1.5c-0.8,0-1.5-0.7-1.5-1.5c0-0.8,0.7-1.5,1.5-1.5
	C36.9,22,37.6,22.7,37.6,23.5"/>
<path fill="#918F90" d="M36.1,22.4c0.7,0,1.2,0.5,1.3,1.2c0,0,0-0.1,0-0.1c0-0.7-0.6-1.3-1.3-1.3c-0.7,0-1.3,0.6-1.3,1.3
	c0,0,0,0.1,0,0.1C34.9,22.9,35.5,22.4,36.1,22.4"/>
<path fill="#F2F1F2" d="M36.1,24.5c-0.7,0-1.2-0.5-1.3-1.2c0,0,0,0.1,0,0.1c0,0.7,0.6,1.3,1.3,1.3c0.7,0,1.3-0.6,1.3-1.3
	c0,0,0-0.1,0-0.1C37.3,24,36.8,24.5,36.1,24.5"/>
<rect x="37.3" y="22.2" transform="matrix(0.6204 0.7843 -0.7843 0.6204 31.7082 -20.8675)" fill="#A82526" width="0.3" height="0.2"/>
<g>
	<g>
		<defs>
			<rect id="SVGID_27_" x="41.3" y="21.3" width="4.2" height="4.4"/>
		</defs>
		<clipPath id="SVGID_28_">
			<use xlink:href="#SVGID_27_"  overflow="visible"/>
		</clipPath>
		<path clip-path="url(#SVGID_28_)" fill="#918F90" d="M45.4,23.5c0,1.2-0.9,2.2-2.1,2.2s-2.1-1-2.1-2.2c0-1.2,0.9-2.2,2.1-2.2
			S45.4,22.3,45.4,23.5"/>
	</g>
</g>
<path fill="#E9E9E9" d="M41.9,21.9c-0.4,0.4-0.6,0.9-0.6,1.5c0,1.1,0.9,2.1,2.1,2.1v-2.1L41.9,21.9z"/>
<path fill="#E9E9E9" d="M45.4,23.4h-2.1l1.4,1.5C45.2,24.5,45.4,23.9,45.4,23.4"/>
<path fill="#FFFFFF" d="M43.3,21.3v2.1h2.1C45.4,22.2,44.5,21.3,43.3,21.3"/>
<path fill="#918F90" d="M43.3,25.4c0.6,0,1.1-0.2,1.4-0.6l-1.4-1.5V25.4z"/>
<path fill="#918F90" d="M43.3,21.3c-0.6,0-1.1,0.2-1.4,0.6l1.4,1.5V21.3z"/>
<path fill="#D1D0D0" d="M44.8,23.4c0,0.8-0.7,1.5-1.5,1.5s-1.5-0.7-1.5-1.5s0.7-1.5,1.5-1.5S44.8,22.5,44.8,23.4"/>
<path fill="#918F90" d="M43.3,22.3c0.7,0,1.2,0.5,1.3,1.2c0,0,0-0.1,0-0.1c0-0.7-0.6-1.3-1.3-1.3c-0.7,0-1.3,0.6-1.3,1.3
	c0,0,0,0.1,0,0.1C42.1,22.8,42.7,22.3,43.3,22.3"/>
<path fill="#F2F1F2" d="M43.3,24.4c-0.7,0-1.2-0.5-1.3-1.2c0,0,0,0.1,0,0.1c0,0.7,0.6,1.3,1.3,1.3c0.7,0,1.3-0.6,1.3-1.3
	c0,0,0-0.1,0-0.1C44.5,23.9,44,24.4,43.3,24.4"/>
<rect x="44.5" y="22.1" transform="matrix(0.6235 0.7818 -0.7818 0.6235 34.1578 -26.5277)" fill="#A82526" width="0.3" height="0.2"/>
<rect x="34.1" y="20.4" fill="#918F90" width="0.6" height="0.6"/>
<rect x="37.9" y="20.6" fill="#918F90" width="0.6" height="0.3"/>
<rect x="41.1" y="20.4" fill="#918F90" width="0.6" height="0.6"/>
<rect x="44.9" y="20.6" fill="#918F90" width="0.6" height="0.3"/>
<path fill="#A82526" d="M59.2,25.4c0,0.2-0.2,0.4-0.4,0.4h-5c-0.2,0-0.4-0.2-0.4-0.4v-0.9c0-0.2,0.2-0.4,0.4-0.4h5
	c0.2,0,0.4,0.2,0.4,0.4V25.4z"/>
<rect x="52.8" y="24.5" fill="#C8C7C7" width="0.4" height="0.7"/>
<rect x="59.2" y="24.5" fill="#C8C7C7" width="0.4" height="0.7"/>
<path fill="#7B7979" d="M53.3,24.5c0-0.2,0.2-0.4,0.4-0.4h5c0.2,0,0.4,0.2,0.4,0.4v0.1h0.4v-0.1c0-0.5-0.4-0.9-0.9-0.9h-5
	c-0.5,0-0.9,0.4-0.9,0.9v0.1L53.3,24.5L53.3,24.5z"/>
<path fill="#F0EFEF" d="M53.7,26.3h5c0.5,0,0.9-0.4,0.9-0.9v-0.2h-0.4v0.2c0,0.2-0.2,0.4-0.4,0.4h-5c-0.2,0-0.4-0.2-0.4-0.4v-0.2
	h-0.4v0.2C52.8,25.9,53.2,26.3,53.7,26.3"/>
<path fill="#393536" d="M55.2,25.6c0,0.2-0.2,0.4-0.4,0.4h-1.2c-0.2,0-0.4-0.2-0.4-0.4v-1.3c0-0.2,0.2-0.4,0.4-0.4h1.2
	c0.2,0,0.4,0.2,0.4,0.4V25.6z"/>
<rect x="54.1" y="23.9" fill="#EDD876" width="0.2" height="0.9"/>
<rect x="54" y="21.7" fill="#BDBCBC" width="0.4" height="1.3"/>
<rect x="56" y="21.7" fill="#BDBCBC" width="0.4" height="1.3"/>
<rect x="58" y="21.7" fill="#BDBCBC" width="0.4" height="1.3"/>
<g>
	<g>
		<defs>
			<rect id="SVGID_29_" x="43.2" y="35.5" width="4.6" height="4.9"/>
		</defs>
		<clipPath id="SVGID_30_">
			<use xlink:href="#SVGID_29_"  overflow="visible"/>
		</clipPath>
		<path clip-path="url(#SVGID_30_)" fill="#231F20" d="M47.8,35.6c-0.3,0.1-0.6,0.1-0.9,0.2c-0.3,0.1-0.6,0.1-0.9,0.2
			c-0.6,0.2-1.1,0.6-1.5,1c-0.4,0.4-0.7,1-0.8,1.6c-0.1,0.3-0.1,0.6-0.2,0.9c-0.1,0.3-0.1,0.6-0.2,0.9c-0.1-0.3-0.1-0.6-0.1-0.9
			c0-0.3,0.1-0.6,0.2-0.9c0.2-0.6,0.5-1.2,0.9-1.7c0.4-0.5,1-0.8,1.6-1.1c0.3-0.1,0.6-0.2,0.9-0.3C47.2,35.5,47.5,35.5,47.8,35.6"/>
	</g>
</g>
<g>
	<g>
		<defs>
			<rect id="SVGID_31_" x="33" y="34.1" width="0.3" height="23"/>
		</defs>
		<clipPath id="SVGID_32_">
			<use xlink:href="#SVGID_31_"  overflow="visible"/>
		</clipPath>
		<polygon clip-path="url(#SVGID_32_)" fill="#231F20" points="33.1,34.1 33.3,36.9 33.3,39.8 33.3,45.5 33.3,51.3 33.3,54.1 
			33.1,57 33,54.1 33,51.3 33,45.5 33,39.8 33,36.9 		"/>
	</g>
</g>
<path fill="#231F20" d="M33.1,57.3c0.4,0.6,1.1,0.7,1.8,0.8c0.7,0,1.4-0.1,2.1,0h4.2l0,0c0.7-0.1,1.5-0.4,1.9-0.9
	c0.2-0.3,0.2-0.6,0.2-1v-1.2v-4.7v-4.7c-0.1-1.6,0.1-3.1,0.2-4.7c0.1,1.6,0.3,3.1,0.2,4.7v4.7v4.7v1.2c0,0.2,0,0.4,0,0.6
	c0,0.2-0.1,0.4-0.2,0.6c-0.5,0.8-1.4,1-2.2,1.1l0,0h0H37c-0.7,0-1.4,0-2.1-0.1C34.2,58.2,33.4,57.9,33.1,57.3"/>
</svg>
