<?xml version="1.0" encoding="utf-8"?>
<!-- Generator: Adobe Illustrator 15.0.2, SVG Export Plug-In . SVG Version: 6.00 Build 0)  -->
<!DOCTYPE svg PUBLIC "-//W3C//DTD SVG 1.1//EN" "http://www.w3.org/Graphics/SVG/1.1/DTD/svg11.dtd">
<svg version="1.1" id="Layer_1" xmlns="http://www.w3.org/2000/svg" xmlns:xlink="http://www.w3.org/1999/xlink" x="0px" y="0px"
	 width="73.1px" height="24.8px" viewBox="0 0 73.1 24.8" enable-background="new 0 0 73.1 24.8" xml:space="preserve">
<polygon fill="#A7A5A6" points="61.8,22.7 61.8,21.6 63.5,21.6 63.5,19.1 62.4,19.1 62.4,20.3 61.1,20.3 61.1,16.4 61.8,16.4 
	62.4,16.4 63.5,16.4 63.5,14.2 61.9,14.2 61.9,12.8 59.2,12.8 59.2,24.5 63.5,24.5 63.5,22.7 "/>
<polygon fill="#A7A5A6" points="70.6,12.8 68.1,12.8 68.1,14.2 66.4,14.2 66.4,16.4 67.4,16.4 68.1,16.4 68.8,16.4 68.8,20.3 
	67.4,20.3 67.4,19.1 66.4,19.1 66.4,21.6 68.1,21.6 68.1,22.7 66.4,22.7 66.4,24.5 70.6,24.5 "/>
<polygon fill="#DEDDDE" points="59.2,12.8 61.8,12.8 61.8,14.2 63.4,14.2 63.5,13.9 63.5,13.9 62.2,13.9 62.2,12.8 62.2,12.5 
	61.8,12.5 59.2,12.5 58.8,12.5 58.8,12.8 58.8,24.5 58.8,24.8 58.9,24.8 59.2,24 "/>
<polygon fill="#DEDDDE" points="68.7,16.4 68.1,16.4 67.4,16.4 66.4,16.4 66.4,14.2 68.1,14.2 68.1,12.8 70.6,12.8 70.6,13.6 
	71,12.7 71,12.5 70.6,12.5 68.1,12.5 67.7,12.5 67.7,12.8 67.7,13.9 66.4,13.9 66,13.9 66,14.2 66,16.4 66,16.7 66.4,16.7 
	67.4,16.7 68.1,16.7 68.4,16.7 68.4,19 68.7,18.1 "/>
<polygon fill="#A7A5A6" points="70.9,24.8 71,24.8 71,24.5 71,20.8 "/>
<polygon fill="#DEDDDE" points="66.4,21.6 66.4,19.1 67.4,19.1 67.4,20.3 67.9,20.3 68,20 67.8,20 67.8,19.1 67.8,18.8 67.4,18.8 
	66.4,18.8 66,18.8 66,19.1 66,21.6 66,21.9 66.4,21.9 67.2,21.9 67.3,21.6 "/>
<polygon fill="#DEDDDE" points="66.4,22.4 66,22.4 66,22.7 66,24.5 66,24.8 66.4,23.9 66.4,22.7 66.8,22.7 67,22.4 "/>
<polygon fill="#656263" points="63.4,14.2 63.5,14.2 63.5,16.4 62.5,16.4 62.4,16.4 61.7,16.4 61.1,16.4 61.1,19.7 61.1,20.3 
	62.4,20.3 62.4,19.1 63.5,19.1 63.5,21.6 61.7,21.6 61.7,22.7 63.5,22.7 63.5,24.5 59.2,24.5 59.2,24 58.9,24.8 59.2,24.8 
	63.5,24.8 63.8,24.8 63.8,24.5 63.8,22.7 63.8,22.4 63.5,22.4 62.1,22.4 62.1,21.9 63.5,21.9 63.8,21.9 63.8,21.6 63.8,19.1 
	63.8,18.8 63.5,18.8 62.4,18.8 62,18.8 62,19.1 62,20 61.4,20 61.4,18.8 61.4,16.7 61.7,16.7 62.3,16.7 62.4,16.7 63.5,16.7 
	63.8,16.7 63.8,16.4 63.8,14.2 63.8,13.9 63.5,13.9 "/>
<polygon fill="#656263" points="68.4,19 68.4,20 68,20 67.9,20.3 68.7,20.3 68.7,18.1 "/>
<polygon fill="#656263" points="70.6,13.6 70.6,24.5 66.4,24.5 66.4,23.9 66,24.8 66,24.8 66.4,24.8 70.6,24.8 70.9,24.8 71,20.8 
	71,12.8 71,12.7 "/>
<polygon fill="#656263" points="68.1,21.6 67.3,21.6 67.2,21.9 67.7,21.9 67.7,22.4 67,22.4 66.8,22.7 68.1,22.7 "/>
<path fill="#A7A5A6" d="M53.4,8C53.2,8.1,53,8.3,53,8.5c0,0,0,0.1-0.1,0.1h0h0h0h0h0c-0.1,0-0.1-0.1-0.1-0.1c0-0.3-0.3-0.5-0.5-0.6
	c-3.2-0.2-6.3-0.2-9.5,0c-3.2,0.2-2.6,0.4-5.8,0.6l-9.5,0.4l-9.5,0.5c-0.4,0-0.8,0-1.1,0.1C16.1,2.6,13.5,0,9,0
	C4.1,0,0.1,4.9,0.1,10.9c0,6,4,10.9,8.8,10.9c4.6,0,7.1-2.6,7.7-9.5c0.4,0,0.8,0,1.1,0.1l9.5,0.5l9.5,0.4c3.2,0.1,2.6,0.4,5.8,0.6
	c3.2,0.2,6.3,0.2,9.5,0c0.3-0.1,0.5-0.3,0.5-0.6c0,0,0-0.1,0.1-0.1h0h0h0h0h0c0.1,0,0.1,0.1,0.1,0.1c0,0.2,0.2,0.4,0.4,0.5
	c1.5-0.1,3-0.2,4.5-0.4v-5C56.4,8.2,54.9,8.1,53.4,8 M12.2,13.5c0,1.9-1.5,3.4-3.4,3.4c-1.9,0-3.4-1.5-3.4-3.4c0-1.1,0.5-2,1.3-2.7
	c-0.8-0.6-1.3-1.6-1.3-2.7c0-1.9,1.5-3.4,3.4-3.4c1.9,0,3.4,1.5,3.4,3.4c0,1.1-0.5,2-1.3,2.7C11.7,11.5,12.2,12.5,12.2,13.5"/>
<path fill="#918F90" d="M52.9,8.6L52.9,8.6L52.9,8.6L52.9,8.6L52.9,8.6L52.9,8.6c-0.2,0-0.2-0.1-0.2-0.1v4.7c0,0,0-0.1,0.1-0.1h0h0
	h0h0h0c0.1,0,0.1,0.1,0.1,0.1V8.5C53,8.5,53,8.6,52.9,8.6"/>
<path fill="#4F4C4D" d="M52.8,8.6c-0.1,0-0.1-0.1-0.1-0.1v4.7c0,0,0-0.1,0.1-0.1V8.6z"/>
<rect x="16.7" y="10" fill="#BDBCBC" width="36" height="1.8"/>
<rect x="16.7" y="10.6" fill="#DEDDDE" width="36" height="0.5"/>
<rect x="53" y="10" fill="#BDBCBC" width="4.9" height="1.8"/>
<rect x="53" y="10.6" fill="#DEDDDE" width="4.9" height="0.5"/>
<path fill="#656263" d="M16.7,9.5c0.4,0,0.7,0.6,0.7,1.4c0,0.8-0.3,1.4-0.7,1.4V9.5z"/>
<path fill="#F2F1F2" d="M53.1,8.5c0.1,0.4,0.2,0.8,0.2,1.2c0,0.4,0,0.8,0.1,1.2c0,0.4,0,0.8-0.1,1.2c0,0.4-0.1,0.8-0.2,1.2h0
	C53,11.7,53,10.1,53.1,8.5L53.1,8.5z"/>
<rect x="57.9" y="8.9" fill="#A7A5A6" width="13.9" height="3.9"/>
<rect x="71.9" y="9.3" fill="#A7A5A6" width="0.3" height="3.2"/>
<rect x="71.9" y="9.3" fill="#5C595A" width="0.1" height="3.2"/>
<path fill="#A7A5A6" d="M72.1,9L72.1,9c0.5,0,1,0.4,1,0.9v2c0,0.5-0.4,0.9-1,0.9V9z"/>
<rect x="57.9" y="10.2" fill="#BDBCBC" width="13.9" height="1.3"/>
<rect x="57.9" y="10.7" fill="#DEDDDE" width="13.9" height="0.4"/>
<path fill="#4F4C4D" d="M58,8.9c0.1,0.3,0.2,0.6,0.2,1c0,0.3,0,0.6,0.1,1c0,0.3,0,0.6-0.1,1c0,0.3-0.1,0.6-0.2,1h0
	C57.9,11.5,57.9,10.2,58,8.9L58,8.9z"/>
<path fill="#6E6B6C" d="M3.1,18.5l-0.3,0.3c1.6,1.8,3.7,2.9,6,2.9c0.1,0,0.2,0,0.4,0C6.8,21.7,4.6,20.4,3.1,18.5"/>
<path fill="#D3D2D2" d="M1.1,14.7c-0.4-1.2-0.6-2.5-0.6-3.8c0-1.4,0.2-2.8,0.7-4.1c1.3-3.9,4.4-6.7,8-6.8C9.1,0,9,0,8.8,0
	C4,0,0,4.9,0,10.9c0,3.1,1.1,5.9,2.8,7.9l0.3-0.3C2.2,17.4,1.6,16.1,1.1,14.7"/>
<path fill="#D3D2D2" d="M3.1,18.5L3.1,18.5c-0.8-1.1-1.5-2.3-1.9-3.7C1.6,16.1,2.2,17.4,3.1,18.5"/>
<path fill="#7B7979" d="M5.4,13.5c0-1.1,0.5-2,1.3-2.7c-0.8-0.6-1.3-1.6-1.3-2.7c0-1.9,1.5-3.4,3.4-3.4c1.2,0,2.2,0.6,2.8,1.5
	L12,5.6C11.2,4.6,10.1,4,8.8,4C6.5,4,4.6,5.9,4.6,8.2c0,1,0.3,1.9,0.9,2.7c-0.6,0.7-0.9,1.7-0.9,2.7c0,1,0.4,1.9,0.9,2.6L6,15.4
	C5.6,14.9,5.4,14.2,5.4,13.5"/>
<path fill="#E9E9E9" d="M11.6,6.3c0.4,0.5,0.6,1.2,0.6,1.9c0,1.1-0.5,2-1.3,2.7c0.8,0.6,1.3,1.6,1.3,2.7c0,1.9-1.5,3.4-3.4,3.4
	c-1.2,0-2.2-0.6-2.8-1.5l-0.4,0.7c0.8,0.9,1.9,1.5,3.2,1.5c2.3,0,4.2-1.9,4.2-4.2c0-1-0.3-1.9-0.9-2.7c0.6-0.7,0.9-1.7,0.9-2.7
	c0-1-0.4-1.9-0.9-2.6L11.6,6.3z"/>
<g>
	<g>
		<defs>
			<rect id="SVGID_1_" x="58.8" y="12.8" width="3.4" height="0.3"/>
		</defs>
		<clipPath id="SVGID_2_">
			<use xlink:href="#SVGID_1_"  overflow="visible"/>
		</clipPath>
		<rect x="58.8" y="12.8" clip-path="url(#SVGID_2_)" fill="#5A5758" width="3.4" height="0.3"/>
	</g>
</g>
<g>
	<g>
		<defs>
			<rect id="SVGID_3_" x="67.7" y="12.8" width="3.3" height="0.3"/>
		</defs>
		<clipPath id="SVGID_4_">
			<use xlink:href="#SVGID_3_"  overflow="visible"/>
		</clipPath>
		<rect x="67.7" y="12.8" clip-path="url(#SVGID_4_)" fill="#5A5758" width="3.3" height="0.3"/>
	</g>
</g>
</svg>
