<?xml version="1.0" encoding="utf-8"?>
<!-- Generator: Adobe Illustrator 15.0.2, SVG Export Plug-In . SVG Version: 6.00 Build 0)  -->
<!DOCTYPE svg PUBLIC "-//W3C//DTD SVG 1.1//EN" "http://www.w3.org/Graphics/SVG/1.1/DTD/svg11.dtd">
<svg version="1.1" id="Layer_1" xmlns="http://www.w3.org/2000/svg" xmlns:xlink="http://www.w3.org/1999/xlink" x="0px" y="0px"
	 width="65.6px" height="44.2px" viewBox="0 0 65.6 44.2" enable-background="new 0 0 65.6 44.2" xml:space="preserve">
<path fill="#231F20" d="M65.2,12.7c0,0,0.1-1.4-0.5-1.9l-0.3-1.1c0,0-0.1-4.3-3.5-5.3c-3.3-1-3.2-0.9-3.8-1.6
	c-0.6-0.7-3.3-1.9-4.8-1.9c-1.6,0-4-0.3-5.5-0.4C45.2,0.4,36.2,0,33.1,0v0c-0.1,0-0.2,0-0.3,0c-0.1,0-0.2,0-0.3,0v0
	c-3.1,0-12.2,0.4-13.6,0.5c-1.6,0.1-4,0.4-5.5,0.4c-1.6,0-4.2,1.2-4.8,1.9C7.9,3.5,8,3.4,4.7,4.4c-3.3,1-3.5,5.3-3.5,5.3l-0.3,1.1
	c-0.7,0.5-0.5,1.9-0.5,1.9c-0.2,0-0.4,0.5-0.4,0.5l0.8,4.4c1.2,2.5,8.6,2.2,8.6,2.2c10.9-0.4,9.7-6.1,9.7-6.1s0.1,0.3,0-2.3
	c-0.1-2.6-2.7-3.7-2.7-3.7c0.8,0.2,13.3,0.3,16,0.3v0c0,0,0.1,0,0.3,0c0.2,0,0.3,0,0.3,0v0c2.7,0,15.2-0.1,16-0.3
	c0,0-2.6,1.1-2.7,3.7c-0.1,2.6,0,2.3,0,2.3s-1.2,5.7,9.7,6.1c0,0,7.4,0.3,8.6-2.2l0.8-4.4C65.6,13.2,65.4,12.7,65.2,12.7"/>
<g>
	<g>
		<defs>
			<rect id="SVGID_1_" x="0.2" y="13.2" width="9.5" height="2.1"/>
		</defs>
		<clipPath id="SVGID_2_">
			<use xlink:href="#SVGID_1_"  overflow="visible"/>
		</clipPath>
		<path clip-path="url(#SVGID_2_)" fill="#231F20" d="M0.2,13.2c0.6,0.6,1.4,0.9,2.2,1.2c0.8,0.3,1.6,0.4,2.4,0.6
			c1.6,0.2,3.3,0.2,5,0.2c-1.6,0.3-3.3,0.3-5,0.1c-0.8-0.1-1.7-0.3-2.4-0.6C1.5,14.3,0.7,13.9,0.2,13.2"/>
	</g>
</g>
<g>
	<g>
		<defs>
			<rect id="SVGID_3_" x="11.3" y="3.6" width="4.1" height="3.5"/>
		</defs>
		<clipPath id="SVGID_4_">
			<use xlink:href="#SVGID_3_"  overflow="visible"/>
		</clipPath>
		<path clip-path="url(#SVGID_4_)" fill="#656263" d="M15.4,7c-0.1-0.5-0.3-0.9-0.5-1.3c-0.3-0.4-0.6-0.6-1.1-0.7
			c-0.5-0.1-1-0.2-1.5-0.4c-0.4-0.2-0.9-0.6-1-1.1C11.6,4,12,4.2,12.5,4.4c0.4,0.2,0.9,0.3,1.4,0.3c0.5,0,1.1,0.4,1.3,0.9
			C15.4,6,15.5,6.6,15.4,7"/>
	</g>
</g>
<g>
	<g>
		<defs>
			<rect id="SVGID_5_" x="9.7" y="1.8" width="23.1" height="1.4"/>
		</defs>
		<clipPath id="SVGID_6_">
			<use xlink:href="#SVGID_5_"  overflow="visible"/>
		</clipPath>
		<path clip-path="url(#SVGID_6_)" fill="#636B62" d="M32.8,3.2C28.9,3,25.1,2.9,21.2,2.9l-5.8-0.1c-1.9,0-3.9,0-5.8,0.1
			c1.9-0.3,3.8-0.4,5.8-0.5l5.8-0.3c3.9-0.2,7.7-0.3,11.6-0.4L32.8,3.2z"/>
	</g>
</g>
<g>
	<g>
		<defs>
			<rect id="SVGID_7_" x="4.9" y="5.6" width="3.8" height="6.4"/>
		</defs>
		<clipPath id="SVGID_8_">
			<use xlink:href="#SVGID_7_"  overflow="visible"/>
		</clipPath>
		<path clip-path="url(#SVGID_8_)" fill="#656263" d="M4.9,5.6c0.7,0.1,1.4,0.4,2,0.7c0.3,0.1,0.6,0.3,0.9,0.5
			C8.2,7,8.5,7.4,8.5,7.8c0.1,0.7,0.2,1.4,0.2,2.1c0,0.7,0,1.4,0,2.1c-0.1-0.7-0.2-1.4-0.2-2.1C8.4,9.2,8.3,8.5,8.2,7.9
			c-0.1-0.6-0.8-1-1.4-1.3C6.2,6.2,5.6,5.9,4.9,5.6"/>
	</g>
</g>
<g>
	<g>
		<defs>
			<rect id="SVGID_9_" x="1.2" y="9.9" width="16.5" height="2.6"/>
		</defs>
		<clipPath id="SVGID_10_">
			<use xlink:href="#SVGID_9_"  overflow="visible"/>
		</clipPath>
		<path clip-path="url(#SVGID_10_)" fill="#231F20" d="M1.2,10.9c0.6,0.4,1.3,0.7,2,0.9c0.7,0.2,1.4,0.3,2.1,0.4
			c1.4,0.2,2.9,0.1,4.3,0c1.4-0.1,2.9-0.3,4.3-0.6c0.7-0.2,1.4-0.3,2.1-0.6c0.7-0.3,1.3-0.6,1.8-1.1c-0.4,0.6-1.1,1-1.8,1.3
			c-0.7,0.3-1.4,0.5-2.1,0.6c-1.4,0.3-2.8,0.5-4.3,0.7c-1.4,0.1-2.9,0.1-4.3-0.1C3.8,12.2,2.3,11.8,1.2,10.9"/>
	</g>
</g>
<g>
	<g>
		<defs>
			<rect id="SVGID_11_" x="56.1" y="13.2" width="9.5" height="2.1"/>
		</defs>
		<clipPath id="SVGID_12_">
			<use xlink:href="#SVGID_11_"  overflow="visible"/>
		</clipPath>
		<path clip-path="url(#SVGID_12_)" fill="#231F20" d="M65.6,13.2c-0.6,0.6-1.3,1-2.1,1.3c-0.8,0.3-1.6,0.5-2.4,0.6
			c-1.7,0.2-3.4,0.2-5-0.1c1.7,0.1,3.3,0.1,5-0.2c0.8-0.1,1.6-0.3,2.4-0.6C64.2,14.1,65,13.8,65.6,13.2"/>
	</g>
</g>
<g>
	<g>
		<defs>
			<rect id="SVGID_13_" x="50.3" y="3.6" width="4.1" height="3.5"/>
		</defs>
		<clipPath id="SVGID_14_">
			<use xlink:href="#SVGID_13_"  overflow="visible"/>
		</clipPath>
		<path clip-path="url(#SVGID_14_)" fill="#231F20" d="M50.3,7c0-0.5,0.1-1,0.3-1.5c0.2-0.5,0.7-0.8,1.3-0.8c0.5,0,0.9-0.1,1.4-0.3
			c0.4-0.2,0.9-0.4,1.1-0.9c-0.2,0.5-0.6,0.8-1,1c-0.4,0.2-1,0.3-1.5,0.4c-0.5,0-0.9,0.3-1.1,0.7C50.6,6.1,50.4,6.6,50.3,7"/>
	</g>
</g>
<g>
	<g>
		<defs>
			<rect id="SVGID_15_" x="33" y="1.8" width="23.1" height="1.4"/>
		</defs>
		<clipPath id="SVGID_16_">
			<use xlink:href="#SVGID_15_"  overflow="visible"/>
		</clipPath>
		<path clip-path="url(#SVGID_16_)" fill="#636B62" d="M33,1.8c3.9,0.1,7.7,0.2,11.6,0.4l5.8,0.3C52.2,2.6,54.1,2.7,56,3
			c-1.9-0.2-3.8-0.1-5.8-0.1l-5.8,0.1C40.7,2.9,36.8,3,33,3.2L33,1.8z"/>
	</g>
</g>
<g>
	<g>
		<defs>
			<rect id="SVGID_17_" x="57" y="5.6" width="3.8" height="6.4"/>
		</defs>
		<clipPath id="SVGID_18_">
			<use xlink:href="#SVGID_17_"  overflow="visible"/>
		</clipPath>
		<path clip-path="url(#SVGID_18_)" fill="#231F20" d="M60.8,5.6c-0.7,0.3-1.3,0.5-1.9,0.9c-0.6,0.3-1.3,0.7-1.4,1.3
			c-0.2,0.7-0.2,1.4-0.3,2.1L57,12c0-0.7,0-1.4,0-2.1c0-0.7,0.1-1.4,0.2-2.1c0.1-0.4,0.3-0.7,0.6-0.9c0.3-0.2,0.6-0.4,0.9-0.5
			C59.5,6,60.1,5.8,60.8,5.6"/>
	</g>
</g>
<g>
	<g>
		<defs>
			<rect id="SVGID_19_" x="48.1" y="9.9" width="16.5" height="2.6"/>
		</defs>
		<clipPath id="SVGID_20_">
			<use xlink:href="#SVGID_19_"  overflow="visible"/>
		</clipPath>
		<path clip-path="url(#SVGID_20_)" fill="#231F20" d="M64.6,10.9c-1.1,0.9-2.6,1.3-4,1.5c-1.4,0.2-2.9,0.2-4.3,0.1
			c-1.4-0.1-2.9-0.3-4.3-0.7c-0.7-0.2-1.4-0.4-2.1-0.6c-0.7-0.3-1.3-0.7-1.8-1.3c0.5,0.6,1.1,0.9,1.8,1.1c0.7,0.3,1.4,0.4,2.1,0.6
			c1.4,0.3,2.8,0.5,4.3,0.6c1.4,0.1,2.9,0.2,4.3,0c0.7-0.1,1.4-0.2,2.1-0.4C63.3,11.6,64,11.3,64.6,10.9"/>
	</g>
</g>
<rect x="12.7" y="41.7" fill="#636B62" width="40.2" height="2.5"/>
<g>
	<g>
		<defs>
			<rect id="SVGID_21_" x="12.7" y="43.4" width="40.2" height="0.3"/>
		</defs>
		<clipPath id="SVGID_22_">
			<use xlink:href="#SVGID_21_"  overflow="visible"/>
		</clipPath>
		<rect x="12.7" y="43.4" clip-path="url(#SVGID_22_)" fill="#252A26" width="40.2" height="0.3"/>
	</g>
</g>
<path fill="#231F20" d="M55.2,29.4v13.5c0,0.3-0.2,0.5-0.5,0.5H10.9c-0.3,0-0.5-0.2-0.5-0.5V29.4H55.2z"/>
<g>
	<g>
		<defs>
			<rect id="SVGID_23_" x="18.7" y="4.9" width="7.2" height="3"/>
		</defs>
		<clipPath id="SVGID_24_">
			<use xlink:href="#SVGID_23_"  overflow="visible"/>
		</clipPath>
		<path clip-path="url(#SVGID_24_)" fill="#231F20" d="M18.7,7.9V5.3c0-0.2,0.3-0.4,0.6-0.4h6c0.3,0,0.6,0.2,0.6,0.4v2.6"/>
	</g>
</g>
<g>
	<g>
		<defs>
			<rect id="SVGID_25_" x="39.8" y="4.9" width="7.2" height="3"/>
		</defs>
		<clipPath id="SVGID_26_">
			<use xlink:href="#SVGID_25_"  overflow="visible"/>
		</clipPath>
		<path clip-path="url(#SVGID_26_)" fill="#231F20" d="M39.8,7.9V5.3c0-0.2,0.3-0.4,0.6-0.4h6c0.3,0,0.6,0.2,0.6,0.4v2.6"/>
	</g>
</g>
<path fill="#2E2A2B" d="M46.5,11.6H19.1c0,0-1.9,15.3-8.7,17.8h8.7h27.4h8.7C48.3,26.9,46.5,11.6,46.5,11.6"/>
<path fill="#2E2A2B" d="M25.3,16.3c0,0.3-0.2,0.5-0.5,0.5h-5.3c-0.3,0-0.5-0.2-0.5-0.5V5.9c0-0.3,0.2-0.5,0.5-0.5h5.3
	c0.3,0,0.5,0.2,0.5,0.5V16.3z"/>
<path fill="#2E2A2B" d="M46.5,16.3c0,0.3-0.2,0.5-0.5,0.5h-5.3c-0.3,0-0.5-0.2-0.5-0.5V5.9c0-0.3,0.2-0.5,0.5-0.5H46
	c0.3,0,0.5,0.2,0.5,0.5V16.3z"/>
<path fill="#2E2A2B" d="M39.8,11.1H25.8c-0.3,0-0.5-0.2-0.5-0.5v1.7h14.9v-1.7C40.2,10.9,40,11.1,39.8,11.1"/>
<path fill="#A1A6A1" d="M40.3,8.9l0.1,1.2c0,0.2,0,0.4,0,0.6c0,0.2-0.2,0.5-0.4,0.5c-0.9,0.1-1.6,0-2.4,0.1l-4.7,0.1l-4.7-0.1
	c-0.8,0-1.6,0-2.4-0.1c-0.2-0.1-0.4-0.3-0.4-0.5c0-0.2,0-0.4,0-0.6l0.1-1.2h0l0,1.2l0,0.6c0,0.2,0.2,0.4,0.3,0.4c0.8,0,1.6,0,2.4,0
	l4.7,0l4.7,0c0.8,0,1.6,0,2.4,0c0.2,0,0.3-0.2,0.3-0.4l0-0.6L40.3,8.9L40.3,8.9z"/>
<path fill="#636B62" d="M10.4,29.4l22.4,0l22.4,0v0.1l-5.6,0.3L44,29.9C40.3,30,36.5,30,32.8,30c-3.7,0-7.5,0-11.2-0.1L16,29.7
	L10.4,29.4L10.4,29.4z"/>
<path fill="#CCBA8C" d="M44.4,18.4c0-4.1-5.2-7.4-11.7-7.4s-11.7,3.3-11.7,7.4v1.3c0,4.1,5.2,7.4,11.7,7.4s11.7-3.3,11.7-7.4V18.4z"
	/>
<path fill="#E2D7BD" d="M44.4,18c0,4.1-5.2,7.4-11.7,7.4S21.1,22.1,21.1,18c0-4.1,5.2-7.4,11.7-7.4S44.4,13.9,44.4,18"/>
<path fill="#676A67" d="M38.8,17.7c0-2.1-2.7-3.8-6-3.8c-3.3,0-6,1.7-6,3.8V18c0,2.1,2.7,3.8,6,3.8c3.3,0,6-1.7,6-3.8V17.7z"/>
<path fill="#F8F5EF" d="M38.8,17.5c0,2.1-2.7,3.8-6,3.8c-3.3,0-6-1.7-6-3.8c0-2.1,2.7-3.8,6-3.8C36.2,13.7,38.8,15.4,38.8,17.5"/>
<path fill="#CCBA8C" d="M31.2,23.5c0,0.7,0.8,1.2,1.8,1.2c1,0,1.8-0.5,1.8-1.2S34,22.3,33,22.3C32,22.3,31.2,22.8,31.2,23.5"/>
<path fill="#CCBA8C" d="M27.1,22.2c-0.5,0.6-0.2,1.3,0.7,1.6s2,0.1,2.5-0.4c0.5-0.6,0.2-1.3-0.7-1.6S27.6,21.6,27.1,22.2"/>
<path fill="#CCBA8C" d="M24.6,19.7c-0.9,0.3-1.2,1.1-0.7,1.6c0.5,0.6,1.6,0.8,2.5,0.4c0.9-0.3,1.2-1.1,0.7-1.6
	C26.6,19.6,25.4,19.4,24.6,19.7"/>
<path fill="#CCBA8C" d="M24.3,16.8c-1,0-1.8,0.5-1.8,1.2c0,0.7,0.8,1.2,1.8,1.2c1,0,1.8-0.5,1.8-1.2C26.1,17.3,25.3,16.8,24.3,16.8"
	/>
<path fill="#CCBA8C" d="M26.3,14.1c-0.9-0.3-2-0.1-2.5,0.4c-0.5,0.6-0.2,1.3,0.7,1.6c0.9,0.3,2,0.1,2.5-0.4
	C27.4,15.1,27.1,14.4,26.3,14.1"/>
<path fill="#CCBA8C" d="M30,12.4c-0.5-0.6-1.6-0.8-2.5-0.4c-0.9,0.3-1.2,1.1-0.7,1.6c0.5,0.6,1.6,0.8,2.5,0.4S30.6,13,30,12.4"/>
<path fill="#CCBA8C" d="M34.6,12.2c0-0.7-0.8-1.2-1.8-1.2c-1,0-1.8,0.5-1.8,1.2c0,0.7,0.8,1.2,1.8,1.2
	C33.8,13.4,34.6,12.9,34.6,12.2"/>
<path fill="#CCBA8C" d="M38.7,13.5c0.5-0.6,0.2-1.3-0.7-1.6c-0.9-0.3-2-0.1-2.5,0.4c-0.5,0.6-0.2,1.3,0.7,1.6
	C37,14.3,38.2,14.1,38.7,13.5"/>
<path fill="#CCBA8C" d="M41.2,16c0.9-0.3,1.2-1.1,0.7-1.6c-0.5-0.6-1.6-0.8-2.5-0.4c-0.9,0.3-1.2,1.1-0.7,1.6
	C39.2,16.1,40.3,16.3,41.2,16"/>
<path fill="#CCBA8C" d="M41.5,19c1,0,1.8-0.5,1.8-1.2c0-0.7-0.8-1.2-1.8-1.2s-1.8,0.5-1.8,1.2C39.7,18.4,40.5,19,41.5,19"/>
<g>
	<g>
		<defs>
			<rect id="SVGID_27_" x="31.2" y="22.3" width="3.6" height="1.8"/>
		</defs>
		<clipPath id="SVGID_28_">
			<use xlink:href="#SVGID_27_"  overflow="visible"/>
		</clipPath>
		<path clip-path="url(#SVGID_28_)" fill="#CCBA8C" d="M33,22.3c0.8,0,1.5,0.3,1.7,0.8c-0.3-0.4-0.9-0.6-1.6-0.6
			c-1,0-1.8,0.5-1.8,1.2c0,0.1,0,0.3,0.1,0.4c-0.2-0.2-0.2-0.4-0.2-0.6C31.2,22.8,32,22.3,33,22.3"/>
	</g>
</g>
<g>
	<g>
		<defs>
			<rect id="SVGID_29_" x="26.9" y="21.6" width="3.6" height="1.8"/>
		</defs>
		<clipPath id="SVGID_30_">
			<use xlink:href="#SVGID_29_"  overflow="visible"/>
		</clipPath>
		<path clip-path="url(#SVGID_30_)" fill="#CCBA8C" d="M27.1,22.2c0.5-0.6,1.6-0.8,2.5-0.4c0.4,0.1,0.7,0.4,0.8,0.6
			c-0.2-0.2-0.4-0.3-0.7-0.4c-0.9-0.3-2-0.1-2.5,0.4c-0.3,0.3-0.3,0.7-0.1,1C26.8,23,26.8,22.6,27.1,22.2"/>
	</g>
</g>
<g>
	<g>
		<defs>
			<rect id="SVGID_31_" x="23.6" y="19.6" width="3.6" height="1.8"/>
		</defs>
		<clipPath id="SVGID_32_">
			<use xlink:href="#SVGID_31_"  overflow="visible"/>
		</clipPath>
		<path clip-path="url(#SVGID_32_)" fill="#CCBA8C" d="M24.6,19.7c0.9-0.3,2-0.1,2.5,0.4c0.1,0.1,0.1,0.1,0.1,0.2
			c-0.5-0.6-1.6-0.8-2.5-0.4c-0.8,0.3-1.1,0.9-0.8,1.4c0,0,0,0,0,0C23.4,20.8,23.7,20.1,24.6,19.7"/>
	</g>
</g>
<g>
	<g>
		<defs>
			<rect id="SVGID_33_" x="22.4" y="16.8" width="3.6" height="1.8"/>
		</defs>
		<clipPath id="SVGID_34_">
			<use xlink:href="#SVGID_33_"  overflow="visible"/>
		</clipPath>
		<path clip-path="url(#SVGID_34_)" fill="#CCBA8C" d="M24.4,17c-1,0-1.8,0.5-1.8,1.2c0,0.1,0,0.3,0.1,0.4c-0.2-0.2-0.2-0.4-0.2-0.6
			c0-0.7,0.8-1.2,1.8-1.2c0.8,0,1.5,0.3,1.7,0.8C25.7,17.2,25.1,17,24.4,17"/>
	</g>
</g>
<g>
	<g>
		<defs>
			<rect id="SVGID_35_" x="23.5" y="13.9" width="3.6" height="1.8"/>
		</defs>
		<clipPath id="SVGID_36_">
			<use xlink:href="#SVGID_35_"  overflow="visible"/>
		</clipPath>
		<path clip-path="url(#SVGID_36_)" fill="#CCBA8C" d="M27.1,14.7c-0.2-0.2-0.4-0.3-0.7-0.4c-0.9-0.3-2-0.1-2.5,0.4
			c-0.3,0.3-0.3,0.7-0.1,1c-0.3-0.4-0.3-0.8,0-1.2c0.5-0.6,1.6-0.8,2.5-0.4C26.7,14.2,26.9,14.5,27.1,14.7"/>
	</g>
</g>
<g>
	<g>
		<defs>
			<rect id="SVGID_37_" x="26.6" y="11.8" width="3.6" height="1.8"/>
		</defs>
		<clipPath id="SVGID_38_">
			<use xlink:href="#SVGID_37_"  overflow="visible"/>
		</clipPath>
		<path clip-path="url(#SVGID_38_)" fill="#CCBA8C" d="M27.7,12.2c-0.8,0.3-1.1,0.9-0.8,1.4c0,0,0,0,0,0c-0.5-0.6-0.2-1.3,0.7-1.6
			c0.9-0.3,2-0.1,2.5,0.4c0.1,0.1,0.1,0.1,0.1,0.2C29.7,12.1,28.5,11.9,27.7,12.2"/>
	</g>
</g>
<g>
	<g>
		<defs>
			<rect id="SVGID_39_" x="30.9" y="11" width="3.6" height="1.8"/>
		</defs>
		<clipPath id="SVGID_40_">
			<use xlink:href="#SVGID_39_"  overflow="visible"/>
		</clipPath>
		<path clip-path="url(#SVGID_40_)" fill="#CCBA8C" d="M32.7,11c0.8,0,1.5,0.3,1.7,0.8c-0.3-0.4-0.9-0.6-1.6-0.6
			c-1,0-1.8,0.5-1.8,1.2c0,0.1,0,0.3,0.1,0.4c-0.2-0.2-0.2-0.4-0.2-0.6C30.9,11.6,31.7,11,32.7,11"/>
	</g>
</g>
<g>
	<g>
		<defs>
			<rect id="SVGID_41_" x="35.2" y="11.7" width="3.6" height="1.8"/>
		</defs>
		<clipPath id="SVGID_42_">
			<use xlink:href="#SVGID_41_"  overflow="visible"/>
		</clipPath>
		<path clip-path="url(#SVGID_42_)" fill="#CCBA8C" d="M35.5,12.3c0.5-0.6,1.6-0.8,2.5-0.4c0.4,0.1,0.7,0.4,0.8,0.6
			c-0.2-0.2-0.4-0.3-0.7-0.4c-0.9-0.3-2-0.1-2.5,0.4c-0.3,0.3-0.3,0.7-0.1,1C35.2,13.2,35.1,12.7,35.5,12.3"/>
	</g>
</g>
<g>
	<g>
		<defs>
			<rect id="SVGID_43_" x="38.5" y="13.8" width="3.6" height="1.8"/>
		</defs>
		<clipPath id="SVGID_44_">
			<use xlink:href="#SVGID_43_"  overflow="visible"/>
		</clipPath>
		<path clip-path="url(#SVGID_44_)" fill="#CCBA8C" d="M39.4,13.9c0.9-0.3,2-0.1,2.5,0.4c0.1,0.1,0.1,0.1,0.1,0.2
			c-0.5-0.6-1.6-0.8-2.5-0.4c-0.8,0.3-1.1,0.9-0.8,1.4c0,0,0,0,0,0C38.2,15,38.5,14.3,39.4,13.9"/>
	</g>
</g>
<g>
	<g>
		<defs>
			<rect id="SVGID_45_" x="39.7" y="16.6" width="3.6" height="1.8"/>
		</defs>
		<clipPath id="SVGID_46_">
			<use xlink:href="#SVGID_45_"  overflow="visible"/>
		</clipPath>
		<path clip-path="url(#SVGID_46_)" fill="#CCBA8C" d="M41.5,16.6c0.8,0,1.5,0.3,1.7,0.8c-0.3-0.4-0.9-0.6-1.6-0.6
			c-1,0-1.8,0.5-1.8,1.2c0,0.1,0,0.3,0.1,0.4c-0.2-0.2-0.3-0.4-0.3-0.6C39.7,17.1,40.5,16.6,41.5,16.6"/>
	</g>
</g>
</svg>
