<?xml version="1.0" encoding="utf-8"?>
<!-- Generator: Adobe Illustrator 15.0.2, SVG Export Plug-In . SVG Version: 6.00 Build 0)  -->
<!DOCTYPE svg PUBLIC "-//W3C//DTD SVG 1.1//EN" "http://www.w3.org/Graphics/SVG/1.1/DTD/svg11.dtd">
<svg version="1.1" id="Layer_1" xmlns="http://www.w3.org/2000/svg" xmlns:xlink="http://www.w3.org/1999/xlink" x="0px" y="0px"
	 width="53.8px" height="63.4px" viewBox="0 0 53.8 63.4" enable-background="new 0 0 53.8 63.4" xml:space="preserve">
<path fill="#E9E9E9" d="M20.5,18.2h-4.4H0c0,0,2.1,41.5,2.4,43.4c0.4,1.9,1.3,1.8,1.3,1.8h12.3h4.4h12.3c0,0,1,0.1,1.3-1.8
	c0.4-1.9,2.4-43.4,2.4-43.4H20.5z"/>
<g>
	<defs>
		<polygon id="SVGID_1_" points="19.8,0 19.8,34.9 33.2,34.9 34.7,18.2 36.6,18.2 35.7,34.9 53.8,34.9 53.8,0 		"/>
	</defs>
	<clipPath id="SVGID_2_">
		<use xlink:href="#SVGID_1_"  overflow="visible"/>
	</clipPath>
	<path clip-path="url(#SVGID_2_)" fill="#E9E9E9" d="M43.4,27L43.4,27C43.4,27,43.4,27,43.4,27"/>
	<path clip-path="url(#SVGID_2_)" fill="#E9E9E9" d="M41.6,27L41.6,27C41.5,27,41.5,27,41.6,27"/>
	<path clip-path="url(#SVGID_2_)" fill="#E9E9E9" d="M23.2,27L23.2,27C23.2,27,23.2,27,23.2,27"/>
	<path clip-path="url(#SVGID_2_)" fill="#EFBC7B" d="M50.8,20.8L50.8,20.8C50.7,20.8,50.7,20.8,50.8,20.8"/>
	<path clip-path="url(#SVGID_2_)" fill="#EFBC7B" d="M27.3,20.8L27.3,20.8C27.3,20.8,27.3,20.8,27.3,20.8"/>
	<path clip-path="url(#SVGID_2_)" fill="#EFBC7B" d="M47.9,20.8L47.9,20.8C47.9,20.8,47.9,20.8,47.9,20.8"/>
	<path clip-path="url(#SVGID_2_)" fill="#EFBC7B" d="M30.2,20.8L30.2,20.8C30.2,20.8,30.2,20.8,30.2,20.8"/>
	<path clip-path="url(#SVGID_2_)" fill="#FAECD9" d="M51.1,18c0,8.1-6.5,14.6-14.6,14.6S22,26.1,22,18S28.5,3.5,36.6,3.5
		S51.1,10,51.1,18"/>
	
		<circle clip-path="url(#SVGID_2_)" fill="none" stroke="#E5952E" stroke-width="1.616" stroke-miterlimit="10" cx="36.6" cy="18" r="14.6"/>
	<path clip-path="url(#SVGID_2_)" fill="#E5952E" d="M41.8,7.2C40.2,6.4,38.4,6,36.5,6s-3.7,0.4-5.3,1.2l5.3,10L41.8,7.2z"/>
	<path clip-path="url(#SVGID_2_)" fill="#E5952E" d="M29.7,8c-3,2-5.1,5.4-5.3,9.2l11.3,0.4L29.7,8z"/>
	<path clip-path="url(#SVGID_2_)" fill="#E5952E" d="M24.4,18.9c0.3,3.8,2.3,7.2,5.3,9.2l6-9.6L24.4,18.9z"/>
	<path clip-path="url(#SVGID_2_)" fill="#E5952E" d="M31.2,28.9c1.6,0.8,3.4,1.2,5.3,1.2c1.9,0,3.7-0.4,5.3-1.2l-5.3-10L31.2,28.9z"
		/>
	<path clip-path="url(#SVGID_2_)" fill="#E5952E" d="M48.5,18.9l-11.3-0.4l6,9.6C46.2,26,48.3,22.7,48.5,18.9"/>
	<path clip-path="url(#SVGID_2_)" fill="#E5952E" d="M48.5,17.2c-0.3-3.8-2.3-7.2-5.3-9.2l-6,9.6L48.5,17.2z"/>
</g>
<g opacity="0.6">
	<g>
		<defs>
			<rect id="SVGID_3_" y="18.2" width="36.5" height="45.2"/>
		</defs>
		<clipPath id="SVGID_4_">
			<use xlink:href="#SVGID_3_"  overflow="visible"/>
		</clipPath>
		<path clip-path="url(#SVGID_4_)" fill="#E9E9E9" d="M20.5,18.2h-4.4H0c0,0,2.1,41.5,2.4,43.4c0.4,1.9,1.3,1.8,1.3,1.8h12.3h4.4
			h12.3c0,0,1,0.1,1.3-1.8c0.4-1.9,2.4-43.4,2.4-43.4H20.5z"/>
	</g>
</g>
<path fill="#EFBC7B" d="M20.3,22.8h-4H1.7c0,0,1.9,27.8,2.2,29.1c0.3,1.3,1.2,1.2,1.2,1.2h11.1h4h11.1c0,0,0.9,0.1,1.2-1.2
	c0.3-1.3,2.2-29.1,2.2-29.1H20.3z"/>
<g opacity="0.3">
	<g>
		<defs>
			<rect id="SVGID_5_" y="18.2" width="7.2" height="45.2"/>
		</defs>
		<clipPath id="SVGID_6_">
			<use xlink:href="#SVGID_5_"  overflow="visible"/>
		</clipPath>
		<path clip-path="url(#SVGID_6_)" fill="#DCDBDB" d="M6.2,61.6C6,59.7,4.4,18.2,4.4,18.2H0c0,0,2.1,41.5,2.4,43.4
			c0.4,1.9,1.3,1.8,1.3,1.8h3.5C7.1,63.4,6.5,63.2,6.2,61.6"/>
	</g>
</g>
<g opacity="0.3">
	<g>
		<defs>
			<rect id="SVGID_7_" x="29.3" y="18.2" width="7.2" height="45.2"/>
		</defs>
		<clipPath id="SVGID_8_">
			<use xlink:href="#SVGID_7_"  overflow="visible"/>
		</clipPath>
		<path clip-path="url(#SVGID_8_)" fill="#DCDBDB" d="M32.2,18.2c0,0-1.6,41.5-1.8,43.4c-0.2,1.6-0.8,1.8-1,1.8h3.5
			c0,0,1,0.1,1.3-1.8c0.4-1.9,2.4-43.4,2.4-43.4H32.2z"/>
	</g>
</g>
<g opacity="0.3">
	<g>
		<defs>
			<rect id="SVGID_9_" x="4.4" y="18.2" width="4.7" height="45.2"/>
		</defs>
		<clipPath id="SVGID_10_">
			<use xlink:href="#SVGID_9_"  overflow="visible"/>
		</clipPath>
		<path clip-path="url(#SVGID_10_)" fill="#F8F8F8" d="M8.3,61.6C8,59.7,6.7,18.2,6.7,18.2H4.4c0,0,1.6,41.5,1.8,43.4
			c0.2,1.6,0.8,1.8,1,1.8h0h1.8C9,63.4,8.5,63.2,8.3,61.6"/>
	</g>
</g>
<g opacity="0.1">
	<g>
		<defs>
			<rect id="SVGID_11_" y="18.2" width="36.5" height="45.2"/>
		</defs>
		<clipPath id="SVGID_12_">
			<use xlink:href="#SVGID_11_"  overflow="visible"/>
		</clipPath>
		<path clip-path="url(#SVGID_12_)" fill="#4F4C4D" d="M3,61.6c-0.3-1.9-2.3-43.4-2.3-43.4H0c0,0,2.1,41.5,2.4,43.4
			c0.4,1.9,1.3,1.8,1.3,1.8h0.5C4.1,63.4,3.3,63.2,3,61.6"/>
		<path clip-path="url(#SVGID_12_)" fill="#4F4C4D" d="M35.9,18.2c0,0-2,41.5-2.3,43.4c-0.3,1.6-1.1,1.8-1.3,1.8h0.5
			c0,0,1,0.1,1.3-1.8s2.4-43.4,2.4-43.4H35.9z"/>
	</g>
</g>
<g opacity="0.8">
	<g>
		<defs>
			<rect id="SVGID_13_" x="1.7" y="22.8" width="33.1" height="30.3"/>
		</defs>
		<clipPath id="SVGID_14_">
			<use xlink:href="#SVGID_13_"  overflow="visible"/>
		</clipPath>
		<g clip-path="url(#SVGID_14_)">
			<g>
				<defs>
					<rect id="SVGID_15_" x="1.7" y="22.8" width="4.8" height="30.3"/>
				</defs>
				<clipPath id="SVGID_16_">
					<use xlink:href="#SVGID_15_"  overflow="visible"/>
				</clipPath>
				<path clip-path="url(#SVGID_16_)" fill="#E8A043" d="M5.5,51.9c-0.3-1.3-2-29.1-2-29.1H1.7c0,0,1.9,27.8,2.2,29.1
					c0.3,1.3,1.2,1.2,1.2,1.2h1.4C6.4,53.1,5.7,53,5.5,51.9"/>
			</g>
		</g>
		<g clip-path="url(#SVGID_14_)">
			<g>
				<defs>
					<rect id="SVGID_17_" x="30" y="22.8" width="4.8" height="30.3"/>
				</defs>
				<clipPath id="SVGID_18_">
					<use xlink:href="#SVGID_17_"  overflow="visible"/>
				</clipPath>
				<path clip-path="url(#SVGID_18_)" fill="#E8A043" d="M33,22.8c0,0-1.7,27.8-2,29.1c-0.3,1.1-0.9,1.2-1.1,1.2h1.4
					c0,0,0.9,0.1,1.2-1.2c0.3-1.3,2.2-29.1,2.2-29.1H33z"/>
			</g>
		</g>
		<g clip-path="url(#SVGID_14_)">
			<g>
				<defs>
					<rect id="SVGID_19_" x="27.2" y="22.8" width="5.9" height="30.3"/>
				</defs>
				<clipPath id="SVGID_20_">
					<use xlink:href="#SVGID_19_"  overflow="visible"/>
				</clipPath>
				<path clip-path="url(#SVGID_20_)" fill="#ECAF62" d="M31.1,51.9c0.3-1.3,2-29.1,2-29.1h-3.6c0,0-1.3,27.8-1.5,29.1
					c-0.2,1.1-0.7,1.2-0.8,1.2H30h0C30.2,53.1,30.8,53,31.1,51.9"/>
			</g>
		</g>
		<g clip-path="url(#SVGID_14_)">
			<g>
				<defs>
					<rect id="SVGID_21_" x="3.5" y="22.8" width="5.9" height="30.3"/>
				</defs>
				<clipPath id="SVGID_22_">
					<use xlink:href="#SVGID_21_"  overflow="visible"/>
				</clipPath>
				<path clip-path="url(#SVGID_22_)" fill="#ECAF62" d="M8.6,51.9c-0.2-1.3-1.5-29.1-1.5-29.1H3.5c0,0,1.7,27.8,2,29.1
					c0.3,1.1,0.9,1.2,1.1,1.2h0h2.8C9.3,53.1,8.8,53,8.6,51.9"/>
			</g>
		</g>
		<g clip-path="url(#SVGID_14_)">
			<g>
				<defs>
					<rect id="SVGID_23_" x="7.1" y="22.8" width="22.3" height="30.3"/>
				</defs>
				<clipPath id="SVGID_24_">
					<use xlink:href="#SVGID_23_"  overflow="visible"/>
				</clipPath>
				<path clip-path="url(#SVGID_24_)" fill="#EFBC7B" d="M28,51.9c0.2-1.3,1.5-29.1,1.5-29.1h-9.2h-0.2h-0.4h-2.7h-0.4h-0.2H7.1
					c0,0,1.3,27.8,1.5,29.1c0.2,1.1,0.7,1.2,0.8,1.2h0h6.9h0.2h0.4h2.7h0.4h0.2h6.9h0C27.3,53.1,27.8,53,28,51.9"/>
			</g>
		</g>
	</g>
</g>
<g opacity="0.3">
	<g>
		<defs>
			<rect id="SVGID_25_" x="5.1" y="57.1" width="26.3" height="4.8"/>
		</defs>
		<clipPath id="SVGID_26_">
			<use xlink:href="#SVGID_25_"  overflow="visible"/>
		</clipPath>
		<path clip-path="url(#SVGID_26_)" fill="#FEFAF5" d="M5.1,61.9c0-2.7,5.9-4.8,13.1-4.8c7.3,0,13.1,2.2,13.1,4.8"/>
	</g>
</g>
<g opacity="0.3">
	<g>
		<defs>
			<rect id="SVGID_27_" x="21" y="20.8" width="7.7" height="36.1"/>
		</defs>
		<clipPath id="SVGID_28_">
			<use xlink:href="#SVGID_27_"  overflow="visible"/>
		</clipPath>
		<path clip-path="url(#SVGID_28_)" fill="#FEFAF5" d="M27.1,53.1c-0.1,2.1-1.6,3.8-3.3,3.7c-1.7-0.1-2.9-1.9-2.8-4.1l1.6-28.3
			c0.1-2.1,1.6-3.8,3.3-3.7c1.7,0.1,2.9,1.9,2.8,4.1L27.1,53.1z"/>
	</g>
</g>
</svg>
