<?xml version="1.0" encoding="utf-8"?>
<!-- Generator: Adobe Illustrator 15.0.2, SVG Export Plug-In . SVG Version: 6.00 Build 0)  -->
<!DOCTYPE svg PUBLIC "-//W3C//DTD SVG 1.1//EN" "http://www.w3.org/Graphics/SVG/1.1/DTD/svg11.dtd">
<svg version="1.1" id="Layer_1" xmlns="http://www.w3.org/2000/svg" xmlns:xlink="http://www.w3.org/1999/xlink" x="0px" y="0px"
	 width="45.4px" height="61.9px" viewBox="0 0 45.4 61.9" enable-background="new 0 0 45.4 61.9" xml:space="preserve">
<path fill="none" stroke="#D7D7D7" stroke-width="6.225" stroke-miterlimit="10" d="M7.1,31.3V18.7c0-8.6,7-15.6,15.6-15.6
	s15.6,7,15.6,15.6v12.6"/>
<path fill="#F0EFEF" d="M8.4,29.7c-0.3-2.8-0.4-5.5-0.3-8.3c0.2-2.7,0.2-5.6,1.1-8.2c0.9-2.7,2.7-5,5.1-6.6c2.4-1.6,5.3-2.3,8-2v0.1
	C19.6,5,17,5.9,14.9,7.4c-2.2,1.5-4,3.6-5.1,6c-0.6,1.2-0.9,2.6-1,3.9c-0.1,0.7,0,1.4,0,2.1l0.1,2.1C8.9,24.2,8.8,27,8.4,29.7
	L8.4,29.7z"/>
<path fill="#F0EFEF" d="M36.8,29.7c0-1.4-0.1-2.8-0.1-4.1c0-1.4,0-2.8,0-4.1c0-1.4,0.1-2.8,0-4.1c-0.1-1.4-0.4-2.7-1-4
	c-1.1-2.5-2.9-4.7-5.1-6.3c-2.3-1.5-5-2.4-7.7-2.5v0c2.8-0.1,5.6,0.7,7.8,2.3c2.3,1.6,4.1,3.8,5.1,6.4c0.5,1.3,0.8,2.6,0.9,4
	c0.1,1.4,0.1,2.8,0.1,4.1c0,1.4,0,2.8,0,4.1C36.9,27,36.9,28.4,36.8,29.7L36.8,29.7z"/>
<path fill="#F0EFEF" d="M38.9,30.3c-0.4-3.1-0.6-6.2-0.5-9.3l0.2-2.3c0.1-0.8,0.1-1.5,0.1-2.3c-0.1-1.5-0.5-3-1.2-4.4
	c-1.4-2.7-3.4-5-5.8-6.7c-2.4-1.7-5.3-2.8-8.4-3.2V2c3.1-0.4,6.4,0.4,9.1,2.2c2.7,1.8,4.8,4.5,5.7,7.6c1,3,1.1,6.2,1.3,9.3
	c0.1,3.1,0,6.2-0.5,9.3H38.9z"/>
<path fill="#807D7E" d="M39.2,30.2c0-1.5-0.1-3.1-0.1-4.6c0-1.5,0-3.1,0-4.6c0-1.5,0.1-3.1,0-4.6c-0.1-1.5-0.5-3-1.1-4.5
	c-1.2-2.8-3.2-5.3-5.7-7c-2.5-1.7-5.6-2.7-8.7-2.8v0c3.1-0.1,6.2,0.8,8.8,2.6c2.6,1.7,4.6,4.3,5.7,7.2c0.6,1.4,0.9,3,1.1,4.5
	c0.1,1.5,0.1,3.1,0.1,4.6c0,1.5,0,3.1,0,4.6C39.3,27.2,39.3,28.7,39.2,30.2L39.2,30.2z"/>
<path fill="#807D7E" d="M35.9,29c-0.2-2.6-0.3-5.1-0.3-7.7c0-1.3,0.2-2.6,0.1-3.8c-0.1-1.3-0.4-2.5-1-3.7C33.7,11.5,32,9.5,30,8.1
	c-2-1.4-4.5-2.3-7-2.5V5.5c2.6-0.2,5.3,0.5,7.5,1.9c2.2,1.5,3.9,3.7,4.7,6.1c0.4,1.2,0.7,2.5,0.8,3.8c0.1,1.3,0.2,2.6,0.2,3.9
	C36.3,23.8,36.2,26.4,35.9,29L35.9,29z"/>
<rect y="27.3" fill="#DFAE57" width="45.4" height="34.6"/>
<rect y="27.3" fill="#DFAE57" width="45.4" height="34.6"/>
<rect x="1.8" y="27.3" fill="#E2B668" width="41.9" height="34.6"/>
<rect x="5.6" y="27.3" fill="#E6BE79" width="34.3" height="34.6"/>
<path fill="#D0C199" d="M1.5,27.4l21.2-0.1l21.2,0.1v0.2c-3.5,0.9-7.1,1.3-10.6,1.6c-1.8,0.2-3.5,0.2-5.3,0.4
	c-1.8,0.1-3.5,0.1-5.3,0.1c-1.8,0-3.5-0.1-5.3-0.1c-1.8-0.1-3.5-0.2-5.3-0.4C8.5,29,5,28.6,1.5,27.7V27.4z"/>
</svg>
