<?xml version="1.0" encoding="utf-8"?>
<!-- Generator: Adobe Illustrator 15.0.2, SVG Export Plug-In . SVG Version: 6.00 Build 0)  -->
<!DOCTYPE svg PUBLIC "-//W3C//DTD SVG 1.1//EN" "http://www.w3.org/Graphics/SVG/1.1/DTD/svg11.dtd">
<svg version="1.1" id="Layer_1" xmlns="http://www.w3.org/2000/svg" xmlns:xlink="http://www.w3.org/1999/xlink" x="0px" y="0px"
	 width="94.5px" height="74.2px" viewBox="0 0 94.5 74.2" enable-background="new 0 0 94.5 74.2" xml:space="preserve">
<path fill="#72583C" d="M50.6,12.4c-25.4,0-35.1,12.1-35.1,16.5c0,4.4,7.2,7.5,12,9.6c4.8,2.1,4,4.2,4,4.2c0,2.5-2.6,2-9.7,1.2
	c-7.1-0.8-5.2,4.4-5.2,4.4c7,13.2,25.6,13.8,34,13.8c8.4,0,35.2-1.7,35.2-26C85.8,11.9,50.6,12.4,50.6,12.4 M36.1,32
	c-2.4,0.6-4.7-0.1-5.1-1.6c-0.4-1.5,1.2-3.3,3.6-3.9c2.4-0.6,4.7,0.1,5.1,1.6C40.1,29.6,38.5,31.3,36.1,32"/>
<path fill="#AC9D8C" d="M50.6,11.8c-25.4,0-35.1,12.1-35.1,16.5c0,4.4,7.2,7.5,12,9.6c4.8,2.1,4,4.1,4,4.1c0,2.5-2.6,2-9.7,1.2
	c-7.1-0.8-5.2,4.4-5.2,4.4c7,13.2,25.6,13.8,34,13.8c8.4,0,35.2-1.7,35.2-26C85.8,11.2,50.6,11.8,50.6,11.8 M36.1,31.4
	c-2.4,0.6-4.7-0.1-5.1-1.6c-0.4-1.5,1.2-3.3,3.6-3.9c2.4-0.7,4.7,0.1,5.1,1.6C40.1,28.9,38.5,30.7,36.1,31.4"/>
<g opacity="0.5">
	<g>
		<defs>
			<rect id="SVGID_1_" x="19.4" y="19.7" width="63.8" height="34.8"/>
		</defs>
		<clipPath id="SVGID_2_">
			<use xlink:href="#SVGID_1_"  overflow="visible"/>
		</clipPath>
		<path clip-path="url(#SVGID_2_)" fill="#D2B48C" d="M78.9,25.2c0,0-0.2,0-0.5,0c-0.2,0-0.4,0-0.6,0c-0.2,0-0.5-0.1-0.9-0.1
			c-0.6-0.1-1.4-0.4-2.2-0.6c-0.8-0.3-1.8-0.7-2.8-0.8c-1-0.1-2.1,0.3-3.4,0.6c-0.3,0.1-0.6,0.1-1,0.2c-0.3,0-0.7,0.1-1,0
			c-0.7,0-1.3-0.2-1.8,0.1c-0.1,0.1-0.3,0.1-0.4,0.2l-0.2,0.1L63.9,25l-0.4,0.3l-0.3,0.4c-0.2,0.2-0.4,0.5-0.6,0.8
			c-0.1,0.1-0.1,0.3-0.2,0.4l-0.1,0.2l0,0.1c0-0.1,0,0,0,0l0,0.1c-0.3,1.2,0.3,2.5,1.1,3.6c0.9,1.1,1.9,2,3.1,2.9
			c1.2,0.9,2.2,1.8,3.3,2.6c1.1,0.8,2.2,1.5,3.3,1.8c0.6,0.2,1.1,0.3,1.7,0.3c0.3,0,0.6,0,0.8,0c0.3-0.1,0.6-0.1,0.8-0.2
			c0.6-0.1,1-0.3,1.4-0.5l0.3-0.1l0.3-0.2c0.2-0.1,0.3-0.3,0.5-0.4c0.2-0.2,0.4-0.3,0.6-0.4c0.2-0.1,0.4-0.2,0.6-0.2
			c0.4-0.1,0.8-0.1,1.1-0.1c0.6,0.1,1.1,0.2,1.5,0.2c0.3,0,0.5,0.1,0.5,0.1s-0.2,0-0.5,0c-0.3,0-0.8-0.1-1.5-0.1c-0.3,0-0.7,0-1,0.1
			c-0.2,0-0.4,0.2-0.5,0.2c-0.1,0.1-0.3,0.2-0.5,0.4c-0.6,0.7-1.7,1.1-2.7,1.4c-0.3,0.1-0.5,0.1-0.8,0.2c-0.3,0.1-0.6,0.1-0.9,0.1
			c-0.6,0-1.3-0.1-1.9-0.2c-1.3-0.3-2.5-1-3.6-1.8c-1.1-0.8-2.2-1.8-3.3-2.6c-1.2-0.8-2.3-1.8-3.3-3c-0.5-0.6-0.9-1.3-1.1-2
			c-0.1-0.4-0.2-0.8-0.2-1.2c0-0.4,0-0.9,0.1-1.2c0.3-0.8,0.7-1.4,1.2-2l0.4-0.4l0.4-0.3l0.2-0.2c0.1-0.1,0.2-0.1,0.3-0.2
			c0.2-0.1,0.3-0.2,0.5-0.3c0.4-0.2,0.8-0.3,1.2-0.2c0.4,0,0.7,0.1,1,0.1c0.3,0,0.6,0,0.9,0c0.3,0,0.6-0.1,0.9-0.1
			c1.2-0.2,2.4-0.6,3.6-0.4c1.1,0.2,2,0.7,2.8,1c0.8,0.3,1.5,0.6,2.1,0.8c0.6,0.2,1.1,0.3,1.4,0.3C78.7,25.2,78.9,25.2,78.9,25.2"/>
		<path clip-path="url(#SVGID_2_)" fill="#D2B48C" d="M81.1,40.7c-1.2,0.4-2.5,0.7-3.7,1.1c-1.2,0.4-2.5,0.7-3.7,1.1l-0.1-0.5l0.1,0
			c0,0,0,0,0.1,0c0.2,0.9-0.2,0.4,0,0.5l0,0l0,0l-0.2,0l-0.3,0c-0.2,0-0.4,0.1-0.6,0.1c-0.5,0.1-0.9,0.1-1.4,0.2
			c-0.5,0-0.9,0-1.4-0.1c-0.4-0.1-0.9-0.1-1.3-0.3c-0.9-0.2-1.7-0.5-2.6-0.7c-0.9-0.3-1.7-0.6-2.6-0.9c-0.8-0.3-1.7-0.7-2.5-0.9
			l-2.6-0.8L55.6,39L55,38.9l-0.6-0.1L53,38.6c-0.9-0.2-1.8-0.1-2.6-0.1c-0.9,0-1.8,0.1-2.6,0.2c-0.9,0-1.8,0.2-2.6,0.4
			c-0.9,0.1-1.8,0.3-2.6,0.5c-1.7,0.4-3.5,0.8-5.3,1.1c-0.9,0.1-1.8,0.3-2.7,0.4c-0.9,0.1-1.8,0.1-2.7,0.1c0.9-0.1,1.8-0.1,2.7-0.3
			c0.9-0.1,1.8-0.3,2.6-0.5c1.7-0.4,3.5-0.9,5.2-1.4c0.9-0.2,1.8-0.4,2.6-0.6c0.9-0.2,1.8-0.4,2.7-0.4c0.9-0.1,1.8-0.2,2.7-0.2
			c0.9,0,1.9-0.1,2.7,0.1l1.3,0.1l0.7,0.1l0.7,0.1c0.9,0.2,1.8,0.4,2.7,0.6l2.6,0.8c0.9,0.3,1.7,0.6,2.5,1c0.8,0.3,1.7,0.6,2.5,0.9
			l2.6,0.8c0.4,0.1,0.8,0.2,1.3,0.3c0.4,0.1,0.8,0.1,1.3,0.1c0.5,0,0.9,0,1.3-0.1c0.2,0,0.4-0.1,0.7-0.1l0.3,0l0.2,0h0l0,0
			c0.2,0.2-0.3-0.4,0,0.5c0.1,0,0,0,0,0l-0.1,0l-2.5,0.1l2.4-0.6c1.2-0.3,2.5-0.6,3.8-0.8C78.6,41.3,79.9,41,81.1,40.7"/>
		<path clip-path="url(#SVGID_2_)" fill="#D2B48C" d="M24.9,54.5c0,0,0.2-0.1,0.6-0.3c0.4-0.2,0.9-0.4,1.5-0.8
			c0.7-0.4,1.4-0.9,2.4-1.4c1-0.5,2.1-0.9,3.4-1.3c1.2-0.5,2.6-0.8,4.1-1.1c0.7-0.2,1.5-0.4,2.3-0.4c0.8-0.1,1.6-0.2,2.4-0.3
			c0.4-0.1,0.8,0,1.3,0c0.4,0,0.9,0,1.3,0c0.9,0.1,1.7,0.2,2.6,0.3c0.9,0.1,1.7,0.2,2.6,0.4l0.7,0.1c0.3,0,0.4,0.1,0.7,0.2
			c0.4,0.1,0.8,0.2,1.3,0.4c1.6,0.6,3.3,1.1,5,1.4c0.8,0.2,1.6,0.2,2.5,0.3c0.8,0,1.7,0.1,2.5,0.1c1.6,0,3.2,0,4.5-0.5
			c1.4-0.5,2.6-1.1,3.9-1.6c1.2-0.5,2.5-0.7,3.5-0.9c1.1-0.2,2-0.3,2.7-0.4c0.7-0.1,1.3-0.2,1.7-0.4c0.4-0.1,0.6-0.2,0.6-0.2
			s-0.2,0.1-0.6,0.3c-0.4,0.2-0.9,0.4-1.7,0.5c-0.8,0.2-1.7,0.3-2.7,0.5c-1,0.3-2.2,0.5-3.4,1c-1.2,0.5-2.5,1.2-3.8,1.8
			c-1.4,0.6-3.1,0.7-4.8,0.7c-0.8,0-1.7-0.1-2.5-0.1c-0.8-0.1-1.7-0.1-2.6-0.3c-1.7-0.3-3.4-0.8-5-1.4c-0.4-0.1-0.8-0.3-1.2-0.4
			c-0.2-0.1-0.4-0.1-0.6-0.2L49,50.5c-0.9-0.1-1.7-0.3-2.5-0.4c-0.8-0.1-1.7-0.2-2.5-0.4c-0.4-0.1-0.8,0-1.2-0.1c-0.4,0-0.8,0-1.2,0
			c-0.8,0.1-1.6,0.1-2.4,0.2c-0.8,0.1-1.5,0.2-2.3,0.4c-1.5,0.3-2.8,0.5-4.1,0.9c-1.3,0.4-2.4,0.7-3.4,1.1c-1,0.4-1.8,0.9-2.5,1.2
			c-0.7,0.4-1.2,0.6-1.6,0.7C25.1,54.4,24.9,54.5,24.9,54.5"/>
		<path clip-path="url(#SVGID_2_)" fill="#D2B48C" d="M70.7,20.8c0,0-0.2,0-0.6,0c-0.4,0-1,0-1.7-0.1c-0.7-0.1-1.6-0.2-2.6-0.3
			c-0.5-0.1-1-0.1-1.6-0.1c-0.6,0-1.1-0.1-1.7,0c-1.2,0.1-2.4,0.5-3.7,1.1c-0.6,0.3-1.3,0.6-2,0.9c-0.7,0.3-1.4,0.6-2.2,0.7
			c-1.5,0.5-3.1,0.7-4.8,0.8c-1.6,0-3.4-0.3-4.9-0.5c-1.6-0.2-3.3-0.5-4.9-0.8c-1.6-0.2-3.2-0.5-4.7-0.5c-0.8-0.1-1.5,0.1-2.2,0.1
			c-0.4,0-0.7,0.1-1.1,0.1l-0.5,0.1L31,22.4c-0.7,0.2-1.4,0.3-2,0.5c-0.6,0.2-1.2,0.4-1.8,0.6c-1.1,0.4-2.2,0.9-3.1,1.3
			c-0.9,0.4-1.7,0.7-2.5,0.9c-0.4,0.1-0.7,0.1-1,0.1c-0.3,0-0.5,0-0.7,0c-0.4,0-0.6,0-0.6,0s0.2,0,0.6,0c0.2,0,0.4,0,0.7,0
			c0.3,0,0.6,0,0.9-0.2c0.7-0.2,1.5-0.6,2.4-1c0.9-0.4,1.9-1,3.1-1.4c0.6-0.3,1.2-0.5,1.8-0.7c0.6-0.3,1.3-0.4,2-0.6l0.5-0.1
			l0.6-0.1c0.4-0.1,0.7-0.1,1.1-0.2c0.8-0.1,1.5-0.2,2.3-0.1c1.6,0,3.2,0.2,4.8,0.4c1.6,0.2,3.2,0.5,4.9,0.7
			c1.7,0.2,3.2,0.6,4.8,0.6c1.6-0.1,3.1-0.3,4.6-0.7c0.7-0.2,1.4-0.5,2.1-0.7c0.7-0.2,1.3-0.5,2-0.8c1.3-0.5,2.7-0.9,4-1
			c0.6,0,1.2,0,1.8,0.1c0.6,0,1.1,0.1,1.6,0.2c1,0.2,1.8,0.3,2.6,0.5s1.3,0.2,1.7,0.3C70.5,20.8,70.7,20.8,70.7,20.8"/>
	</g>
</g>
<path fill="#386B95" d="M49.6,22.7c-1.7,0.7-4,0.9-5.5-0.2c-2.5-1.8-1.1-4.5,0.7-6.1c2.3-2.1,4.6-0.4,6.2,1.6c1,1.2,1.4,2.1,0.5,3.5
	C51.2,21.9,50.2,22.3,49.6,22.7"/>
<g opacity="0.5">
	<g>
		<defs>
			<rect id="SVGID_3_" x="42.8" y="19.9" width="9.2" height="3.3"/>
		</defs>
		<clipPath id="SVGID_4_">
			<use xlink:href="#SVGID_3_"  overflow="visible"/>
		</clipPath>
		<path clip-path="url(#SVGID_4_)" fill="#386B95" d="M51.5,21c-0.3,0.4-1.4,0.7-1.9,1c-1.7,0.5-4,0.7-5.6-0.2
			c-0.7-0.4-1-0.8-1.2-1.2c0.1,0.7,0.5,1.3,1.3,1.9c1.6,1.1,3.8,0.9,5.5,0.2c0.6-0.3,1.6-0.7,1.9-1.2c0.3-0.6,0.5-1,0.4-1.5
			C51.9,20.2,51.8,20.6,51.5,21"/>
	</g>
</g>
<g>
	<g>
		<defs>
			<rect id="SVGID_5_" x="43.1" y="15.3" width="8.8" height="4"/>
		</defs>
		<clipPath id="SVGID_6_">
			<use xlink:href="#SVGID_5_"  overflow="visible"/>
		</clipPath>
		<path clip-path="url(#SVGID_6_)" fill="#386B95" d="M44.7,16.9c2.4-1.6,4.7-0.3,6.3,1.3c0.4,0.4,0.7,0.7,0.9,1.1
			c-0.2-0.5-0.5-0.9-0.9-1.4c-1.6-2-3.9-3.7-6.2-1.6c-0.7,0.6-1.3,1.4-1.7,2.3C43.4,18,44,17.4,44.7,16.9"/>
	</g>
</g>
<g>
	<g>
		<defs>
			<rect id="SVGID_7_" x="44.9" y="20.4" width="4.6" height="1.5"/>
		</defs>
		<clipPath id="SVGID_8_">
			<use xlink:href="#SVGID_7_"  overflow="visible"/>
		</clipPath>
		<path clip-path="url(#SVGID_8_)" fill="#386B95" d="M49.5,20.8c0,0-0.1,0.1-0.2,0.2c-0.1,0.1-0.2,0.2-0.4,0.4
			c-0.1,0.1-0.2,0.2-0.3,0.3c-0.1,0.1-0.3,0.2-0.5,0.2c-0.2,0-0.3,0-0.5,0c-0.2,0-0.4,0-0.5-0.1c-0.2,0-0.3-0.1-0.5-0.1
			c-0.2,0-0.3-0.1-0.5-0.2c-0.3-0.1-0.5-0.3-0.7-0.4c-0.2-0.1-0.3-0.3-0.4-0.4c-0.1-0.1-0.1-0.2-0.1-0.2s0.1,0.1,0.2,0.1
			c0.1,0.1,0.3,0.2,0.5,0.3c0.2,0.1,0.5,0.2,0.7,0.3c0.1,0,0.3,0.1,0.4,0.1c0.1,0,0.3,0.1,0.5,0.1l0.4,0.1c0.2,0,0.3,0,0.5,0
			c0.1,0,0.2-0.1,0.4-0.1c0.1-0.1,0.2-0.1,0.3-0.2C49.2,20.9,49.5,20.8,49.5,20.8"/>
	</g>
</g>
<g>
	<g>
		<defs>
			<rect id="SVGID_9_" x="46.1" y="16.6" width="2.7" height="0.7"/>
		</defs>
		<clipPath id="SVGID_10_">
			<use xlink:href="#SVGID_9_"  overflow="visible"/>
		</clipPath>
		<path clip-path="url(#SVGID_10_)" fill="#386B95" d="M46.1,17c0,0,0.2-0.1,0.4-0.2c0.1,0,0.3-0.1,0.4-0.2c0.2,0,0.3-0.1,0.5-0.1
			l0.3,0c0.1,0,0.2,0,0.2,0.1c0.2,0.1,0.3,0.2,0.4,0.2c0.2,0.2,0.3,0.4,0.3,0.4c0,0,0,0-0.1-0.1c-0.1,0-0.2-0.1-0.3-0.1
			c-0.1-0.1-0.3,0-0.4-0.1c-0.1,0-0.2,0-0.3,0c-0.1,0-0.1,0-0.2,0c-0.2,0-0.3,0-0.5,0c-0.2,0-0.3,0-0.5,0C46.2,17,46.1,17,46.1,17"
			/>
	</g>
</g>
<g opacity="0.4">
	<g>
		<defs>
			<rect id="SVGID_11_" x="44.3" y="17.6" width="1.7" height="1.1"/>
		</defs>
		<clipPath id="SVGID_12_">
			<use xlink:href="#SVGID_11_"  overflow="visible"/>
		</clipPath>
		<path clip-path="url(#SVGID_12_)" fill="#5681A5" d="M46,18.2c-1-0.6-2.7-1.1-1,0.6"/>
	</g>
</g>
<path fill="#386B95" d="M42.8,22.4c0,0.4-0.3,0.7-0.7,0.7c-0.4,0-0.7-0.3-0.7-0.7s0.3-0.7,0.7-0.7C42.5,21.7,42.8,22,42.8,22.4"/>
<path fill="#386B95" d="M44,23.1c0,0.2-0.2,0.4-0.4,0.4c-0.2,0-0.4-0.2-0.4-0.4s0.2-0.4,0.4-0.4C43.9,22.7,44,22.8,44,23.1"/>
<path fill="#C82257" d="M58.3,22.1c-0.3-1.6,0.1-3.5,1.8-4.3c2.7-1.2,5.5,0.9,6.8,3c1.7,2.7-0.9,3.8-3.6,4.2c-1.6,0.3-2.8,0.2-4.2-1
	C58.7,23.7,58.6,22.7,58.3,22.1"/>
<g opacity="0.5">
	<g>
		<defs>
			<rect id="SVGID_13_" x="58.3" y="17.5" width="4.5" height="7.6"/>
		</defs>
		<clipPath id="SVGID_14_">
			<use xlink:href="#SVGID_13_"  overflow="visible"/>
		</clipPath>
		<path clip-path="url(#SVGID_14_)" fill="#C82257" d="M59.8,24.3c-0.4-0.4-0.4-1.4-0.6-1.9c-0.1-1.6,0.3-3.4,1.8-4.3
			c0.6-0.4,1.2-0.5,1.7-0.5c-0.8-0.2-1.7-0.1-2.5,0.3c-1.7,0.8-2.1,2.6-1.8,4.3c0.2,0.6,0.4,1.6,0.9,2c0.5,0.5,1.1,0.8,1.6,1
			C60.5,24.9,60.1,24.7,59.8,24.3"/>
	</g>
</g>
<g>
	<g>
		<defs>
			<rect id="SVGID_15_" x="61.6" y="18.6" width="6" height="6.7"/>
		</defs>
		<clipPath id="SVGID_16_">
			<use xlink:href="#SVGID_15_"  overflow="visible"/>
		</clipPath>
		<path clip-path="url(#SVGID_16_)" fill="#C82257" d="M66.3,20.6c1.2,2.5-1,3.8-3.2,4.4c-0.6,0.2-1,0.3-1.5,0.2
			c0.6,0.1,1.2,0,1.8-0.1c2.7-0.5,5.3-1.5,3.6-4.2c-0.5-0.8-1.3-1.6-2.1-2.3C65.4,19.2,65.9,19.9,66.3,20.6"/>
	</g>
</g>
<g>
	<g>
		<defs>
			<rect id="SVGID_17_" x="59.8" y="19.3" width="2.5" height="3.5"/>
		</defs>
		<clipPath id="SVGID_18_">
			<use xlink:href="#SVGID_17_"  overflow="visible"/>
		</clipPath>
		<path clip-path="url(#SVGID_18_)" fill="#386B95" d="M60.5,22.8c0,0,0-0.1-0.1-0.2c-0.1-0.1-0.2-0.3-0.3-0.4
			c-0.1-0.2-0.3-0.4-0.3-0.8l0-0.2l0.1-0.3c0.1-0.2,0.2-0.3,0.3-0.4c0.4-0.5,0.9-0.9,1.4-1c0.2-0.1,0.4-0.1,0.6-0.1
			c0.1,0,0.2,0,0.2,0s-0.1,0-0.2,0.1c-0.1,0-0.3,0.1-0.5,0.2c-0.2,0.1-0.4,0.3-0.6,0.5c-0.2,0.2-0.4,0.4-0.6,0.6
			c-0.1,0.1-0.2,0.2-0.2,0.3l-0.1,0.1l0,0.2c0,0.1,0,0.2,0,0.3c0,0.1,0.1,0.2,0.1,0.3C60.5,22.5,60.5,22.8,60.5,22.8"/>
	</g>
</g>
<g>
	<g>
		<defs>
			<rect id="SVGID_19_" x="64.7" y="21.6" width="1.2" height="2"/>
		</defs>
		<clipPath id="SVGID_20_">
			<use xlink:href="#SVGID_19_"  overflow="visible"/>
		</clipPath>
		<path clip-path="url(#SVGID_20_)" fill="#386B95" d="M65.8,21.6c0,0,0.1,0.2,0.1,0.4c0,0.1,0.1,0.2,0,0.4c0,0.2,0,0.3-0.1,0.5
			L65.8,23c0,0,0,0,0,0.1l0,0c-0.1,0.1-0.1,0.1-0.2,0.2c-0.1,0.1-0.3,0.2-0.4,0.2c-0.1,0.1-0.2,0-0.3,0c-0.1,0-0.1,0-0.1,0
			c0,0,0.2-0.1,0.3-0.2c0.1-0.1,0.2-0.2,0.2-0.3c0,0,0.1-0.1,0.1-0.2l0,0c0,0,0,0,0,0l0-0.1c0-0.1,0.1-0.1,0.1-0.2
			c0-0.1,0-0.1,0-0.2c0-0.1,0.1-0.3,0.1-0.4C65.7,21.8,65.8,21.6,65.8,21.6"/>
	</g>
</g>
<g opacity="0.4">
	<g>
		<defs>
			<rect id="SVGID_21_" x="64.1" y="19.9" width="1.5" height="1.2"/>
		</defs>
		<clipPath id="SVGID_22_">
			<use xlink:href="#SVGID_21_"  overflow="visible"/>
		</clipPath>
		<path clip-path="url(#SVGID_22_)" fill="#D04370" d="M64.5,21.1c1-0.5,2-1.7-0.4-1"/>
	</g>
</g>
<path fill="#C82257" d="M58.3,24.1c0,0.4-0.3,0.7-0.7,0.7c-0.4,0-0.7-0.3-0.7-0.7c0-0.4,0.3-0.7,0.7-0.7
	C58,23.4,58.3,23.7,58.3,24.1"/>
<path fill="#C82257" d="M66,25.1c0,0.1-0.1,0.2-0.2,0.2c-0.1,0-0.2-0.1-0.2-0.2c0-0.1,0.1-0.2,0.2-0.2C65.9,24.9,66,25,66,25.1"/>
<path fill="#C82257" d="M68,19.7c0,0.2-0.2,0.4-0.4,0.4c-0.2,0-0.4-0.2-0.4-0.4s0.2-0.4,0.4-0.4C67.8,19.3,68,19.5,68,19.7"/>
<path fill="#E8E8E8" d="M43.4,55.3c-1.4-0.9-2.5-2.4-1.9-4.2c0.9-2.8,4.4-3.4,6.9-3c3.2,0.6,2.2,3.2,0.7,5.5
	c-0.9,1.4-1.8,2.2-3.6,2.4C44.8,56,44,55.5,43.4,55.3"/>
<g opacity="0.5">
	<g>
		<defs>
			<rect id="SVGID_23_" x="41.3" y="49" width="5.9" height="7"/>
		</defs>
		<clipPath id="SVGID_24_">
			<use xlink:href="#SVGID_23_"  overflow="visible"/>
		</clipPath>
		<path clip-path="url(#SVGID_24_)" fill="#E8E8E8" d="M46,55.7c-0.6,0-1.3-0.6-1.8-0.9c-1.2-1-2.3-2.6-2-4.2
			c0.1-0.7,0.4-1.2,0.8-1.6c-0.7,0.5-1.2,1.1-1.5,2c-0.6,1.8,0.5,3.4,1.9,4.2c0.6,0.2,1.4,0.8,2.1,0.7c0.7-0.1,1.3-0.2,1.8-0.5
			C46.9,55.6,46.5,55.7,46,55.7"/>
	</g>
</g>
<g>
	<g>
		<defs>
			<rect id="SVGID_25_" x="45.2" y="47.9" width="5.2" height="7.1"/>
		</defs>
		<clipPath id="SVGID_26_">
			<use xlink:href="#SVGID_25_"  overflow="visible"/>
		</clipPath>
		<path clip-path="url(#SVGID_26_)" fill="#E8E8E8" d="M47.6,48.4c2.7,0.8,2.1,3.3,1.1,5.4c-0.3,0.5-0.5,0.9-0.8,1.3
			c0.4-0.4,0.8-0.8,1.2-1.4c1.5-2.3,2.5-5-0.7-5.5c-1-0.2-2.1-0.2-3.1,0C46,48,46.9,48.2,47.6,48.4"/>
	</g>
</g>
<g>
	<g>
		<defs>
			<rect id="SVGID_27_" x="43.3" y="50.5" width="2" height="3.6"/>
		</defs>
		<clipPath id="SVGID_28_">
			<use xlink:href="#SVGID_27_"  overflow="visible"/>
		</clipPath>
		<path clip-path="url(#SVGID_28_)" fill="#E9E9E9" d="M45.3,54.1c0,0-0.1,0-0.2,0c-0.1,0-0.3,0-0.5-0.1c-0.2,0-0.5-0.1-0.8-0.3
			l-0.1-0.2l-0.1-0.2c-0.1-0.2-0.1-0.3-0.1-0.5c-0.1-0.6,0-1.3,0.2-1.7c0.1-0.2,0.2-0.4,0.3-0.5c0.1-0.1,0.1-0.2,0.1-0.2
			s0,0.1-0.1,0.2c-0.1,0.1-0.1,0.3-0.1,0.5c-0.1,0.2,0,0.5,0,0.7c0,0.3,0,0.6,0.1,0.8c0,0.1,0,0.3,0.1,0.4l0.1,0.2l0.1,0.2
			c0.1,0,0.2,0.1,0.3,0.2c0.1,0,0.2,0.1,0.3,0.1C45.1,53.9,45.3,54.1,45.3,54.1"/>
	</g>
</g>
<g>
	<g>
		<defs>
			<rect id="SVGID_29_" x="48.1" y="49.4" width="1.1" height="2.1"/>
		</defs>
		<clipPath id="SVGID_30_">
			<use xlink:href="#SVGID_29_"  overflow="visible"/>
		</clipPath>
		<path clip-path="url(#SVGID_30_)" fill="#E9E9E9" d="M48.1,49.4c0,0,0.2,0.1,0.4,0.2c0.1,0.1,0.2,0.1,0.3,0.2
			c0.1,0.1,0.2,0.2,0.3,0.4c0,0.1,0.1,0.2,0.1,0.3c0,0.1,0,0.1,0,0.2c0,0.2-0.1,0.3-0.1,0.4c0,0.1-0.1,0.2-0.2,0.3
			c-0.1,0.1-0.1,0.1-0.1,0.1c0,0,0.1-0.2,0-0.4c0-0.1,0-0.2,0-0.3c0-0.1,0-0.1,0-0.2c0,0-0.1-0.1-0.1-0.2c0-0.1,0-0.1-0.1-0.2
			l-0.1-0.2c-0.1-0.1-0.2-0.2-0.2-0.3C48.1,49.6,48.1,49.4,48.1,49.4"/>
	</g>
</g>
<g opacity="0.4">
	<g>
		<defs>
			<rect id="SVGID_31_" x="45.8" y="48.5" width="1.1" height="1.5"/>
		</defs>
		<clipPath id="SVGID_32_">
			<use xlink:href="#SVGID_31_"  overflow="visible"/>
		</clipPath>
		<path clip-path="url(#SVGID_32_)" fill="#EBEBEB" d="M46.8,50c0.3-1.1,0.1-2.7-1-0.4"/>
	</g>
</g>
<path fill="#E8E8E8" d="M44.8,56.6c0.3,0.3,0.3,0.7,0,1c-0.3,0.3-0.7,0.3-1,0c-0.3-0.3-0.3-0.7,0-1C44.1,56.4,44.6,56.3,44.8,56.6"
	/>
<path fill="#E8E8E8" d="M50.8,51.6c0.1,0.1,0.1,0.2,0,0.3c-0.1,0.1-0.2,0.1-0.3,0c-0.1-0.1-0.1-0.2,0-0.3
	C50.6,51.5,50.7,51.5,50.8,51.6"/>
<path fill="#E8E8E8" d="M48.1,46.6c0.2,0.2,0.2,0.4,0,0.6c-0.2,0.2-0.4,0.2-0.6,0s-0.2-0.4,0-0.6C47.7,46.4,48,46.4,48.1,46.6"/>
<path fill="#2A2A2A" d="M58.6,50.2c-0.3-1.6,0.1-3.5,1.8-4.3c2.7-1.2,5.5,0.9,6.8,3c1.7,2.7-0.9,3.8-3.6,4.2c-1.6,0.3-2.8,0.2-4.2-1
	C59,51.8,58.8,50.8,58.6,50.2"/>
<g opacity="0.5">
	<g>
		<defs>
			<rect id="SVGID_33_" x="58.5" y="45.6" width="4.5" height="7.6"/>
		</defs>
		<clipPath id="SVGID_34_">
			<use xlink:href="#SVGID_33_"  overflow="visible"/>
		</clipPath>
		<path clip-path="url(#SVGID_34_)" fill="#2A2A2A" d="M60,52.4c-0.4-0.4-0.4-1.4-0.6-1.9c-0.1-1.6,0.3-3.4,1.8-4.3
			c0.6-0.4,1.2-0.5,1.7-0.5c-0.8-0.2-1.7-0.1-2.5,0.3c-1.7,0.8-2.1,2.6-1.8,4.3c0.2,0.6,0.4,1.6,0.9,2c0.5,0.5,1.1,0.8,1.6,1
			C60.7,53,60.4,52.8,60,52.4"/>
	</g>
</g>
<g>
	<g>
		<defs>
			<rect id="SVGID_35_" x="61.8" y="46.7" width="6" height="6.7"/>
		</defs>
		<clipPath id="SVGID_36_">
			<use xlink:href="#SVGID_35_"  overflow="visible"/>
		</clipPath>
		<path clip-path="url(#SVGID_36_)" fill="#2A2A2A" d="M66.5,48.7c1.2,2.5-1,3.8-3.2,4.4c-0.6,0.2-1,0.3-1.5,0.2
			c0.6,0.1,1.2,0,1.8-0.1c2.7-0.5,5.3-1.5,3.6-4.2c-0.5-0.8-1.3-1.6-2.1-2.3C65.7,47.3,66.2,48,66.5,48.7"/>
	</g>
</g>
<g>
	<g>
		<defs>
			<rect id="SVGID_37_" x="60" y="47.4" width="2.5" height="3.5"/>
		</defs>
		<clipPath id="SVGID_38_">
			<use xlink:href="#SVGID_37_"  overflow="visible"/>
		</clipPath>
		<path clip-path="url(#SVGID_38_)" fill="#323232" d="M60.7,50.9c0,0,0-0.1-0.1-0.2c-0.1-0.1-0.2-0.3-0.3-0.4
			c-0.1-0.2-0.3-0.4-0.3-0.8l0-0.2l0.1-0.3c0.1-0.2,0.2-0.3,0.3-0.4c0.4-0.5,0.9-0.9,1.4-1c0.2-0.1,0.4-0.1,0.6-0.1
			c0.1,0,0.2,0,0.2,0s-0.1,0-0.2,0.1c-0.1,0-0.3,0.1-0.5,0.2c-0.2,0.1-0.4,0.3-0.6,0.5c-0.2,0.2-0.4,0.4-0.6,0.6
			c-0.1,0.1-0.2,0.2-0.2,0.3l-0.1,0.1l0,0.2c0,0.1,0,0.2,0,0.3c0,0.1,0.1,0.2,0.1,0.3C60.7,50.6,60.7,50.9,60.7,50.9"/>
	</g>
</g>
<g>
	<g>
		<defs>
			<rect id="SVGID_39_" x="65" y="49.7" width="1.2" height="2"/>
		</defs>
		<clipPath id="SVGID_40_">
			<use xlink:href="#SVGID_39_"  overflow="visible"/>
		</clipPath>
		<path clip-path="url(#SVGID_40_)" fill="#323232" d="M66.1,49.7c0,0,0.1,0.2,0.1,0.4c0,0.1,0.1,0.2,0,0.4c0,0.2,0,0.3-0.1,0.5
			l-0.1,0.1c0,0,0,0,0,0.1l0,0c-0.1,0.1-0.1,0.1-0.2,0.2c-0.1,0.1-0.3,0.2-0.4,0.2c-0.1,0.1-0.2,0-0.3,0c-0.1,0-0.1,0-0.1,0
			c0,0,0.2-0.1,0.3-0.2c0.1-0.1,0.2-0.2,0.2-0.3c0,0,0.1-0.1,0.1-0.2l0,0c0,0,0,0,0,0l0-0.1c0-0.1,0.1-0.1,0.1-0.2
			c0-0.1,0-0.1,0-0.2c0-0.1,0.1-0.3,0.1-0.4C66,49.9,66.1,49.7,66.1,49.7"/>
	</g>
</g>
<g opacity="0.4">
	<g>
		<defs>
			<rect id="SVGID_41_" x="64.4" y="48" width="1.5" height="1.2"/>
		</defs>
		<clipPath id="SVGID_42_">
			<use xlink:href="#SVGID_41_"  overflow="visible"/>
		</clipPath>
		<path clip-path="url(#SVGID_42_)" fill="#4A4A4A" d="M64.7,49.2c1-0.5,2-1.7-0.4-1"/>
	</g>
</g>
<path fill="#2A2A2A" d="M58.6,52.2c0,0.4-0.3,0.7-0.7,0.7s-0.7-0.3-0.7-0.7s0.3-0.7,0.7-0.7S58.6,51.8,58.6,52.2"/>
<path fill="#2A2A2A" d="M66.3,53.2c0,0.1-0.1,0.2-0.2,0.2c-0.1,0-0.2-0.1-0.2-0.2c0-0.1,0.1-0.2,0.2-0.2C66.2,53,66.3,53,66.3,53.2"
	/>
<path fill="#2A2A2A" d="M68.2,47.8c0,0.2-0.2,0.4-0.4,0.4s-0.4-0.2-0.4-0.4c0-0.2,0.2-0.4,0.4-0.4S68.2,47.6,68.2,47.8"/>
<path fill="#597F5C" d="M72.4,33c-1.2-1.7-2.2-4-1.5-5.6c1.1-2.4,4.3-1,6.6,0.9c2.9,2.4,1.8,4.7,0.3,6.2c-0.9,0.9-1.8,1.3-3.5,0.5
	C73.6,34.7,72.9,33.6,72.4,33"/>
<g opacity="0.5">
	<g>
		<defs>
			<rect id="SVGID_43_" x="70.7" y="26.2" width="5.3" height="9.3"/>
		</defs>
		<clipPath id="SVGID_44_">
			<use xlink:href="#SVGID_43_"  overflow="visible"/>
		</clipPath>
		<path clip-path="url(#SVGID_44_)" fill="#597F5C" d="M74.8,35c-0.5-0.3-1.2-1.4-1.6-2c-1.1-1.7-2-4-1.5-5.6c0.2-0.6,0.5-1,0.9-1.2
			c-0.7,0.1-1.2,0.5-1.6,1.3c-0.7,1.5,0.2,3.8,1.5,5.6c0.5,0.6,1.3,1.7,1.9,2c0.7,0.3,1.2,0.5,1.7,0.5C75.6,35.4,75.2,35.3,74.8,35"
			/>
	</g>
</g>
<g>
	<g>
		<defs>
			<rect id="SVGID_45_" x="74.6" y="26.5" width="4.7" height="8.8"/>
		</defs>
		<clipPath id="SVGID_46_">
			<use xlink:href="#SVGID_45_"  overflow="visible"/>
		</clipPath>
		<path clip-path="url(#SVGID_46_)" fill="#597F5C" d="M76.8,28.2c2.4,2.4,1.7,4.7,0.6,6.3c-0.3,0.4-0.5,0.7-0.9,0.8
			c0.4-0.1,0.8-0.4,1.2-0.8c1.6-1.6,2.7-3.8-0.3-6.2c-0.9-0.7-1.9-1.4-2.9-1.8C75.3,26.9,76.1,27.5,76.8,28.2"/>
	</g>
</g>
<g>
	<g>
		<defs>
			<rect id="SVGID_47_" x="72.5" y="28.3" width="1.8" height="4.6"/>
		</defs>
		<clipPath id="SVGID_48_">
			<use xlink:href="#SVGID_47_"  overflow="visible"/>
		</clipPath>
		<path clip-path="url(#SVGID_48_)" fill="#597F5C" d="M74.3,32.9c0,0-0.1,0-0.2-0.1c-0.1-0.1-0.3-0.2-0.5-0.4
			c-0.2-0.2-0.4-0.3-0.6-0.6c-0.1-0.1-0.1-0.1-0.2-0.2l-0.1-0.2c-0.1-0.2-0.1-0.3-0.1-0.5c0-0.2-0.1-0.4,0-0.5c0-0.2,0-0.3,0-0.5
			c0-0.3,0.1-0.6,0.2-0.9c0.1-0.2,0.2-0.4,0.3-0.5c0.1-0.1,0.2-0.1,0.2-0.1s0,0.1-0.1,0.2c-0.1,0.1-0.1,0.3-0.2,0.5
			c0,0.2,0,0.5,0,0.8c0,0.2,0,0.3,0,0.5c0,0.2,0,0.3,0.1,0.4c0,0.1,0.1,0.3,0.1,0.5l0.1,0.2c0,0,0.1,0.1,0.1,0.2
			c0.1,0.2,0.3,0.5,0.5,0.6C74.1,32.7,74.3,32.9,74.3,32.9"/>
	</g>
</g>
<g>
	<g>
		<defs>
			<rect id="SVGID_49_" x="77.2" y="29.6" width="0.9" height="2.7"/>
		</defs>
		<clipPath id="SVGID_50_">
			<use xlink:href="#SVGID_49_"  overflow="visible"/>
		</clipPath>
		<path clip-path="url(#SVGID_50_)" fill="#597F5C" d="M77.2,29.6c0,0,0.1,0.1,0.3,0.4c0.1,0.1,0.2,0.2,0.3,0.4
			c0.1,0.2,0.2,0.3,0.3,0.5c0,0.2,0.1,0.4,0.1,0.6c0,0.2-0.1,0.4-0.1,0.5c0,0.1-0.1,0.2-0.2,0.3c-0.1,0.1-0.1,0.1-0.1,0.1
			c0,0,0.1-0.2,0.1-0.4c0-0.1,0-0.3,0-0.4c0-0.2-0.1-0.3-0.1-0.5c-0.1-0.2-0.1-0.3-0.2-0.5c-0.1-0.2-0.1-0.3-0.2-0.4
			C77.2,29.8,77.2,29.6,77.2,29.6"/>
	</g>
</g>
<g opacity="0.4">
	<g>
		<defs>
			<rect id="SVGID_51_" x="75" y="27.8" width="1.1" height="1.7"/>
		</defs>
		<clipPath id="SVGID_52_">
			<use xlink:href="#SVGID_51_"  overflow="visible"/>
		</clipPath>
		<path clip-path="url(#SVGID_52_)" fill="#729275" d="M75.9,29.5c0.4-1,0.3-2.7-0.9-1"/>
	</g>
</g>
<path fill="#597F5C" d="M81.4,31.6c0,0.4-0.3,0.7-0.7,0.7c-0.4,0-0.7-0.3-0.7-0.7s0.3-0.7,0.7-0.7C81.1,30.9,81.4,31.2,81.4,31.6"/>
<path fill="#597F5C" d="M77.8,27.3c0,0.1-0.1,0.2-0.2,0.2c-0.1,0-0.2-0.1-0.2-0.2s0.1-0.2,0.2-0.2C77.7,27.1,77.8,27.2,77.8,27.3"/>
<path fill="#597F5C" d="M78.9,27.8c0,0.2-0.2,0.4-0.4,0.4c-0.2,0-0.4-0.2-0.4-0.4c0-0.2,0.2-0.4,0.4-0.4
	C78.8,27.4,78.9,27.5,78.9,27.8"/>
<path fill="#EBD467" d="M72.9,45.8c-2.5-0.8-5-2.1-5.3-3.7c-0.5-2.5,3.9-2.9,7.6-2.6c4.7,0.5,5,2.8,4.4,4.8c-0.4,1.2-1,1.9-3.4,2.1
	C75.3,46.5,73.9,46,72.9,45.8"/>
<g opacity="0.5">
	<g>
		<defs>
			<rect id="SVGID_53_" x="67.6" y="40.3" width="10.8" height="6.1"/>
		</defs>
		<clipPath id="SVGID_54_">
			<use xlink:href="#SVGID_53_"  overflow="visible"/>
		</clipPath>
		<path clip-path="url(#SVGID_54_)" fill="#EBD467" d="M76.7,46.2c-0.8,0-2.2-0.5-3-0.8c-2.3-0.8-4.8-2.2-5.4-3.7
			c-0.2-0.6-0.2-1,0.1-1.4c-0.6,0.4-1,1-0.8,1.8c0.3,1.6,2.8,2.9,5.3,3.7c1,0.2,2.4,0.7,3.3,0.6c1-0.1,1.6-0.2,2.1-0.5
			C78,46.1,77.4,46.2,76.7,46.2"/>
	</g>
</g>
<g>
	<g>
		<defs>
			<rect id="SVGID_55_" x="71" y="39.4" width="8.9" height="6.1"/>
		</defs>
		<clipPath id="SVGID_56_">
			<use xlink:href="#SVGID_55_"  overflow="visible"/>
		</clipPath>
		<path clip-path="url(#SVGID_56_)" fill="#EBD467" d="M74.4,39.8c4.2,0.7,5,2.9,4.9,4.6c0,0.4-0.1,0.8-0.4,1.1
			c0.3-0.3,0.6-0.7,0.7-1.2c0.6-2,0.3-4.3-4.4-4.8c-1.4-0.1-3-0.2-4.3,0C72,39.5,73.3,39.6,74.4,39.8"/>
	</g>
</g>
<g>
	<g>
		<defs>
			<rect id="SVGID_57_" x="70.6" y="41.7" width="4.3" height="3.2"/>
		</defs>
		<clipPath id="SVGID_58_">
			<use xlink:href="#SVGID_57_"  overflow="visible"/>
		</clipPath>
		<path clip-path="url(#SVGID_58_)" fill="#597F5C" d="M74.9,44.8c0,0-0.1,0-0.3,0c-0.2,0-0.4,0-0.7,0c-0.1,0-0.3,0-0.4,0
			c-0.2,0-0.3,0-0.5-0.1c-0.2-0.1-0.3-0.1-0.6-0.2c-0.2-0.1-0.3-0.2-0.5-0.3c-0.2-0.1-0.3-0.3-0.4-0.4c-0.2-0.1-0.2-0.3-0.4-0.4
			c-0.2-0.3-0.4-0.6-0.5-0.8c-0.1-0.3-0.1-0.5-0.1-0.7c0.1-0.2,0.1-0.2,0.1-0.2s0,0.1,0,0.2c0,0.2,0.1,0.4,0.2,0.6
			c0.1,0.2,0.3,0.5,0.6,0.7c0.1,0.1,0.2,0.3,0.4,0.4c0.1,0.1,0.2,0.2,0.4,0.3l0.5,0.3c0.1,0.1,0.3,0.1,0.4,0.2
			c0.3,0.1,0.6,0.2,0.9,0.2C74.5,44.7,74.9,44.8,74.9,44.8"/>
	</g>
</g>
<g>
	<g>
		<defs>
			<rect id="SVGID_59_" x="75.7" y="40.7" width="2.4" height="1.8"/>
		</defs>
		<clipPath id="SVGID_60_">
			<use xlink:href="#SVGID_59_"  overflow="visible"/>
		</clipPath>
		<path clip-path="url(#SVGID_60_)" fill="#597F5C" d="M75.7,40.7c0,0,0.2,0,0.5,0.1c0.1,0,0.3,0.1,0.5,0.1c0.2,0.1,0.4,0.2,0.6,0.2
			c0.1,0,0.2,0.1,0.3,0.2c0.1,0.1,0.2,0.1,0.3,0.2c0.1,0.1,0.1,0.2,0.2,0.2c0,0.1,0.1,0.2,0.1,0.2c0.1,0.2,0.1,0.3,0.1,0.4
			c0,0.1-0.1,0.1-0.1,0.1c0,0,0-0.1,0-0.1c0-0.1-0.1-0.2-0.2-0.3c-0.1-0.1-0.2-0.2-0.3-0.3c-0.1-0.1-0.3-0.2-0.5-0.3
			c-0.2-0.1-0.3-0.2-0.5-0.3c-0.2-0.1-0.3-0.2-0.4-0.3C75.9,40.9,75.7,40.7,75.7,40.7"/>
	</g>
</g>
<g opacity="0.4">
	<g>
		<defs>
			<rect id="SVGID_61_" x="72.8" y="39.9" width="1.6" height="1.3"/>
		</defs>
		<clipPath id="SVGID_62_">
			<use xlink:href="#SVGID_61_"  overflow="visible"/>
		</clipPath>
		<path clip-path="url(#SVGID_62_)" fill="#EEDB7E" d="M74.3,41.3c-0.3-0.9-1.5-2.3-1.6-0.3"/>
	</g>
</g>
<path fill="#EBD467" d="M65,41.3c0-0.2,0.1-0.3,0.3-0.3c0.2,0,0.3,0.1,0.3,0.3c0,0.2-0.1,0.3-0.3,0.3C65.1,41.6,65,41.4,65,41.3"/>
<path fill="#EBD467" d="M66,41.3c0-0.3,0.3-0.5,0.6-0.5s0.5,0.3,0.5,0.6c0,0.3-0.3,0.5-0.6,0.5C66.3,41.8,66,41.6,66,41.3"/>
<g opacity="0.3">
	<g>
		<defs>
			<rect id="SVGID_63_" x="24.4" y="16.9" width="9" height="10.8"/>
		</defs>
		<clipPath id="SVGID_64_">
			<use xlink:href="#SVGID_63_"  overflow="visible"/>
		</clipPath>
		<polygon clip-path="url(#SVGID_64_)" fill="#72583C" points="32.2,27.7 32.1,27.2 24.4,17.9 26.2,16.9 33.3,26.6 		"/>
	</g>
</g>
<polygon fill="#BDBCBC" points="22.7,4.6 21.3,5.2 27.3,16.4 28.4,15.8 29.4,15.3 24,3.9 "/>
<path fill="#BDBCBC" d="M29.8,15.6c0.1,0.3,0,0.6-0.3,0.8L28.1,17c-0.3,0.1-0.6,0-0.8-0.3c-0.1-0.3,0-0.6,0.3-0.8l1.4-0.7
	C29.3,15.2,29.6,15.3,29.8,15.6"/>
<path fill="#D3D2D2" d="M27.7,16.1l1.4-0.7c0.3-0.1,0.6-0.1,0.7,0.1c-0.1-0.3-0.5-0.4-0.8-0.3L27.6,16c-0.3,0.1-0.4,0.5-0.3,0.8
	C27.2,16.6,27.4,16.3,27.7,16.1"/>
<path fill="#BDBCBC" d="M30.2,16.5c0.1,0.3,0,0.6-0.3,0.8l-1.4,0.7c-0.3,0.1-0.6,0-0.8-0.3c-0.1-0.3,0-0.6,0.3-0.8l1.4-0.7
	C29.7,16.1,30.1,16.2,30.2,16.5"/>
<path fill="#D3D2D2" d="M28.1,17.1l1.4-0.7c0.3-0.1,0.6-0.1,0.7,0.1c-0.1-0.3-0.5-0.4-0.8-0.3l-1.4,0.7c-0.3,0.1-0.4,0.5-0.3,0.8
	C27.7,17.5,27.9,17.2,28.1,17.1"/>
<path fill="#888687" d="M29.9,17.1l-1.4,0.7c-0.3,0.1-0.6,0.1-0.7-0.1c0.1,0.3,0.5,0.4,0.8,0.3l1.4-0.7c0.3-0.1,0.4-0.5,0.3-0.8
	C30.3,16.7,30.2,17,29.9,17.1"/>
<path fill="#888687" d="M29.4,16.2L28,16.9c-0.3,0.1-0.6,0.1-0.7-0.1c0.1,0.3,0.5,0.4,0.8,0.3l1.4-0.7c0.3-0.1,0.4-0.5,0.3-0.8
	C29.9,15.8,29.7,16,29.4,16.2"/>
<path fill="#DEDDDE" d="M29.8,16.4c0,0,0,0.1,0,0.1l-1.6,0.8c0,0-0.1,0-0.1,0c0,0,0-0.1,0-0.1l1.6-0.8
	C29.7,16.4,29.8,16.4,29.8,16.4"/>
<path fill="#DEDDDE" d="M29.3,15.5c0,0,0,0.1,0,0.1l-1.6,0.8c0,0-0.1,0-0.1,0c0,0,0-0.1,0-0.1l1.6-0.8
	C29.2,15.5,29.3,15.5,29.3,15.5"/>
<path fill="#8B4D47" d="M31.4,18.8L30.2,17l-1,0.5l-1,0.5l0.8,2c2,5,6.3,12.9,6.3,12.9s20.3,38.6,20.8,39.6c0.5,1,1.2,0.7,1.2,0.7
	s0.7-0.4,0.2-1.4C57,70.8,38,31.5,38,31.5S34.3,23.3,31.4,18.8"/>
<g opacity="0.5">
	<g>
		<defs>
			<rect id="SVGID_65_" x="21.3" y="5" width="6.4" height="11.4"/>
		</defs>
		<clipPath id="SVGID_66_">
			<use xlink:href="#SVGID_65_"  overflow="visible"/>
		</clipPath>
		<polygon clip-path="url(#SVGID_66_)" fill="#BDBCBC" points="27.7,16.2 21.8,5 21.3,5.2 27.3,16.4 		"/>
	</g>
</g>
<g opacity="0.3">
	<g>
		<defs>
			<rect id="SVGID_67_" x="23.6" y="3.9" width="5.9" height="11.6"/>
		</defs>
		<clipPath id="SVGID_68_">
			<use xlink:href="#SVGID_67_"  overflow="visible"/>
		</clipPath>
		<polygon clip-path="url(#SVGID_68_)" fill="#BDBCBC" points="29.4,15.3 24,3.9 23.6,4.1 29.1,15.5 		"/>
	</g>
</g>
<g opacity="0.5">
	<g>
		<defs>
			<rect id="SVGID_69_" x="28.2" y="17.8" width="29.2" height="55.4"/>
		</defs>
		<clipPath id="SVGID_70_">
			<use xlink:href="#SVGID_69_"  overflow="visible"/>
		</clipPath>
		<path clip-path="url(#SVGID_70_)" fill="#8B4D47" d="M56.4,72.4c-0.5-1-20.6-39.7-20.6-39.7s-4.3-7.9-6.4-12.9l-0.8-2L28.2,18
			l0.8,2c2,5,6.3,12.9,6.3,12.9s20.3,38.6,20.8,39.6c0.5,1,1.2,0.7,1.2,0.7S56.9,73.4,56.4,72.4"/>
	</g>
</g>
<g opacity="0.3">
	<g>
		<defs>
			<rect id="SVGID_71_" x="29.9" y="17" width="27.9" height="56.2"/>
		</defs>
		<clipPath id="SVGID_72_">
			<use xlink:href="#SVGID_71_"  overflow="visible"/>
		</clipPath>
		<path clip-path="url(#SVGID_72_)" fill="#8B4D47" d="M31.4,18.8L30.2,17l-0.4,0.2L31,19c2.7,4.6,6.6,12.8,6.6,12.8
			s19.2,39.1,19.7,40.1c0.5,1,0.1,1.3,0.1,1.3s0.7-0.4,0.2-1.4C57,70.8,38,31.5,38,31.5S34.3,23.3,31.4,18.8"/>
	</g>
</g>
<path fill="#F8F4F4" d="M21.8,0.1c-0.1,0.1-0.1,0.1-0.2,0.2c0,0-0.1,0-0.1,0c0,0-0.1,0.1-0.1,0.1c-0.1,0.1-0.2,0.1-0.2,0.1
	c0,0-0.1,0-0.1,0c0,0-0.1,0-0.1,0c0,0-0.1,0-0.1,0.1c0,0-0.1,0-0.1,0c-0.1,0-0.1,0-0.1,0.1c-0.1,0.1-0.1,0.1-0.2,0.1
	c-0.1,0-0.3,0.1-0.4,0.1C20,1,20,1.1,19.9,1.1c-0.1,0-0.1,0-0.2,0c0,0.1-0.1,0.2-0.1,0.2c0,0.1,0,0.1,0,0.2c0,0.1,0.1,0.2,0.1,0.4
	c0.1,0.3,0.2,0.6,0.3,1c0.3,0.8,0.7,1.7,1.3,2.4c0,0,1.3-0.7,1.3-0.7L24,3.9C23.7,2.4,21.9,0,21.8,0.1L21.8,0.1z"/>
<path fill="#E2E2E2" d="M20.8,0.8c0,0-0.9,0.4-1.2,0.6c0,0,0,0.1,0,0.1c0,0.1,0,0.2,0.1,0.2c0.3-0.1,1.3-0.6,1.3-0.6l1.3-0.6
	C22.1,0.4,22,0.3,22,0.2L20.8,0.8z"/>
<path fill="#CAC9C9" d="M21.8,0.1c-0.1,0.1-0.1,0.1-0.2,0.2c0,0-0.1,0-0.1,0c0,0-0.1,0.1-0.1,0.1c-0.1,0.1-0.2,0.1-0.2,0.1
	c0,0-0.1,0-0.1,0c0,0-0.1,0-0.1,0c0,0-0.1,0-0.1,0.1c0,0-0.1,0-0.1,0c-0.1,0-0.1,0-0.1,0.1c-0.1,0.1-0.1,0.1-0.2,0.1
	c-0.1,0-0.3,0.1-0.4,0.1c-0.1,0-0.1,0.1-0.2,0.1c-0.1,0-0.1,0-0.2,0c0,0.1-0.1,0.2-0.1,0.2c0,0,0,0.1,0,0.1c0.3-0.2,1.2-0.6,1.2-0.6
	L22,0.2C21.9,0.1,21.9,0,21.8,0.1L21.8,0.1z"/>
<path fill="none" d="M29.8,15.6c0-0.1-0.1-0.2-0.2-0.2c5.3-2.1,12.2-3.6,21.1-3.6c0,0,35.2-0.5,35.2,23.7c0,21-20.1,25.1-30.9,25.8
	c0.4,0.3,0.5,0.6-0.3,0.7c-2.1,0.2-5.1,0.1-5.1,0.1l-0.4-0.6c-8.9-0.1-25.8-1.4-32.4-13.8c0,0-1.9-5.2,5.2-4.4
	c7.1,0.8,9.7,1.3,9.7-1.2c0,0,0.8-2.1-4-4.2c-4.8-2.1-12-5.2-12-9.6c0-2.6,3.5-8,11.8-12l0,0c0,0.1,0,0.3,0,0.4
	c0.1,0.2,0.3,0.3,0.5,0.3c-0.1,0.2-0.2,0.4-0.1,0.6v0c0,0,0,0,0,0c0.1,0.2,0.2,0.3,0.4,0.3l0,0l0.8,2c0.8,2.1,2.1,4.7,3.2,7
	c0.9,1.8,1.8,3.5,2.4,4.5c0.5,0,1-0.1,1.5-0.2c0.6-0.2,1.1-0.4,1.5-0.6c-0.5-1-1.4-2.9-2.5-5c-1.2-2.4-2.6-5-3.8-6.9L30.2,17l0,0
	c0.1-0.2,0.1-0.3,0-0.5c-0.1-0.2-0.3-0.3-0.5-0.3C29.8,16,29.9,15.8,29.8,15.6"/>
<line fill="none" x1="0" y1="74.2" x2="94.5" y2="74.2"/>
<g opacity="0.5">
	<g>
		<defs>
			<rect id="SVGID_73_" x="34.3" y="30" width="3.3" height="1.6"/>
		</defs>
		<clipPath id="SVGID_74_">
			<use xlink:href="#SVGID_73_"  overflow="visible"/>
		</clipPath>
		<path clip-path="url(#SVGID_74_)" fill="#72583C" d="M34.3,31l0.3,0.6c0.5,0,1-0.1,1.6-0.2c0.6-0.2,1.1-0.4,1.5-0.6L37.3,30
			C36.6,31.4,34.3,31,34.3,31"/>
	</g>
</g>
<g opacity="0.4">
	<g>
		<defs>
			<rect id="SVGID_75_" x="50.7" y="62.1" width="2.3" height="0.7"/>
		</defs>
		<clipPath id="SVGID_76_">
			<use xlink:href="#SVGID_75_"  overflow="visible"/>
		</clipPath>
		<path clip-path="url(#SVGID_76_)" fill="#72583C" d="M51,62.7l1.9-0.4l-0.1-0.3c0,0-1.8,0.1-2.1,0L51,62.7z"/>
	</g>
</g>
</svg>
