<?xml version="1.0" encoding="utf-8"?>
<!-- Generator: Adobe Illustrator 15.0.2, SVG Export Plug-In . SVG Version: 6.00 Build 0)  -->
<!DOCTYPE svg PUBLIC "-//W3C//DTD SVG 1.1//EN" "http://www.w3.org/Graphics/SVG/1.1/DTD/svg11.dtd">
<svg version="1.1" id="Layer_1" xmlns="http://www.w3.org/2000/svg" xmlns:xlink="http://www.w3.org/1999/xlink" x="0px" y="0px"
	 width="83.3px" height="21.1px" viewBox="0 0 83.3 21.1" enable-background="new 0 0 83.3 21.1" xml:space="preserve">
<path fill="none" stroke="#8F8D8D" stroke-width="2.712" stroke-miterlimit="10" d="M55.2,19.8H10.3c-4.9,0-8.9-4.4-8.9-9.3
	s4-9.1,8.9-9.1H73c0,0,8.9,0,8.9,8.3c0,4.9-4,7.1-8.9,7.1H56H31c0,0-8.6,0.4-8.6-6.8c0,0-0.6-5.6,8.8-5.6h24.2"/>
<path fill="none" stroke="#B0AEAF" stroke-width="1.937" stroke-miterlimit="10" d="M55.2,19.8H10.3c-4.9,0-8.9-4.4-8.9-9.3
	s4-9.1,8.9-9.1H73c0,0,8.9,0,8.9,8.3c0,4.9-4,7.1-8.9,7.1H56H31c0,0-8.6,0.4-8.6-6.8c0,0-0.6-5.6,8.8-5.6h24.2"/>
<path fill="#E4E4E4" d="M55.2,19.8c-9,0.1-18.1,0.1-27.1,0.2l-13.6,0l-3.4,0c-0.6,0-1.2,0-1.7,0c-0.6-0.1-1.2-0.2-1.7-0.4
	c-2.2-0.7-4.1-2.3-5.3-4.3c-1.2-2-1.6-4.5-1.1-6.7C1.8,6.3,3.1,4.3,5,2.9c0.9-0.7,2-1.2,3.1-1.5c1.1-0.3,2.3-0.3,3.4-0.3l6.8,0
	c9,0,18.1,0.1,27.1,0.1l27.1-0.1c2.3,0,4.6,0.6,6.5,1.9c0.9,0.7,1.7,1.6,2.2,2.6c0.2,0.5,0.5,1.1,0.6,1.6C82,7.7,82.1,8,82.1,8.2
	l0.1,0.9c0,0.3,0.1,0.6,0,0.9c0,0.3,0,0.6-0.1,0.9c-0.1,0.6-0.2,1.2-0.5,1.7c-0.4,1.1-1.2,2-2.2,2.7c-1.9,1.4-4.3,1.8-6.6,1.8
	l-27.1,0l-13.6,0c-2.2,0.1-4.7-0.1-6.7-1.3c-1-0.6-1.9-1.4-2.5-2.4c-0.6-1-0.8-2.2-0.8-3.4l0,0c0-0.8,0.2-1.6,0.5-2.3
	C23,7.1,23.6,6.5,24.2,6c0.6-0.4,1.3-0.8,2-1.1c0.4-0.1,0.7-0.3,1.1-0.3c0.4-0.1,0.7-0.2,1.1-0.2l1.1-0.1l1.1,0c0.8,0,1.5,0,2.3,0
	l4.5,0l18,0.1v0.1l-18,0.1l-4.5,0c-0.7,0-1.5,0-2.2,0l-1.1,0l-1.1,0.1c-0.4,0-0.7,0.1-1.1,0.2c-0.4,0.1-0.7,0.2-1.1,0.3
	c-0.7,0.2-1.3,0.6-1.9,1c-0.6,0.5-1,1-1.4,1.6c-0.3,0.6-0.5,1.4-0.4,2l0,0l0,0c0.1,1.1,0.2,2.2,0.8,3.1c0.5,0.9,1.4,1.7,2.3,2.2
	c1,0.5,2,0.8,3.1,1c1.1,0.2,2.2,0.1,3.3,0.1l13.6,0l27.1,0c2.2,0,4.5-0.4,6.3-1.7c0.9-0.6,1.6-1.5,2-2.5c0.2-0.5,0.3-1,0.4-1.6
	c0.1-0.3,0.1-0.6,0.1-0.8c0-0.3,0-0.5,0-0.8l-0.1-0.8c0-0.3-0.1-0.5-0.2-0.8c-0.1-0.5-0.3-1-0.5-1.6c-0.5-1-1.2-1.8-2.1-2.5
	c-1.8-1.3-4-1.9-6.3-1.9L45.5,1.5c-9-0.1-18.1,0-27.1,0.1l-6.8,0c-1.1,0-2.2,0-3.3,0.3c-1.1,0.3-2.1,0.8-3,1.4
	C3.5,4.5,2.2,6.5,1.8,8.7c-0.4,2.2,0,4.5,1.1,6.4c1.1,1.9,2.9,3.4,5,4.1c0.5,0.2,1.1,0.3,1.6,0.3c0.6,0,1.1,0.1,1.7,0.1l3.4,0
	l13.6,0C37.1,19.6,46.2,19.7,55.2,19.8L55.2,19.8z"/>
</svg>
