<?xml version="1.0" encoding="utf-8"?>
<!-- Generator: Adobe Illustrator 15.0.2, SVG Export Plug-In . SVG Version: 6.00 Build 0)  -->
<!DOCTYPE svg PUBLIC "-//W3C//DTD SVG 1.1//EN" "http://www.w3.org/Graphics/SVG/1.1/DTD/svg11.dtd">
<svg version="1.1" id="Layer_1" xmlns="http://www.w3.org/2000/svg" xmlns:xlink="http://www.w3.org/1999/xlink" x="0px" y="0px"
	 width="22.9px" height="62.9px" viewBox="0 0 22.9 62.9" enable-background="new 0 0 22.9 62.9" xml:space="preserve">
<path fill="#C16E7D" d="M0.7,7.2c0,1.7,1.3,3,2.9,3h15.5c1.6,0,2.9-1.3,2.9-3V3c0-1.7-1.3-3-2.9-3H3.7C2,0,0.7,1.3,0.7,3V7.2z"/>
<path fill="#B14A5D" d="M3.5,7.2V3c0-1.7,1.3-3,2.9-3H3.7C2,0,0.7,1.3,0.7,3v4.2c0,1.7,1.3,3,2.9,3h2.8C4.8,10.2,3.5,8.9,3.5,7.2"/>
<rect x="0.6" y="6.4" fill="#D3D4D4" width="21.8" height="6.6"/>
<path fill="#D3D4D4" d="M22.9,8.6c0-0.3-0.2-0.5-0.5-0.5H0.5C0.2,8.1,0,8.3,0,8.6s0.2,0.5,0.5,0.5h21.8C22.6,9.1,22.9,8.9,22.9,8.6"
	/>
<path fill="#D3D4D4" d="M22.9,9.7c0-0.3-0.2-0.5-0.5-0.5H0.5C0.2,9.1,0,9.4,0,9.7s0.2,0.5,0.5,0.5h21.8C22.6,10.2,22.9,10,22.9,9.7"
	/>
<path fill="#D3D4D4" d="M22.9,10.7c0-0.3-0.2-0.5-0.5-0.5H0.5c-0.3,0-0.5,0.2-0.5,0.5s0.2,0.5,0.5,0.5h21.8
	C22.6,11.3,22.9,11,22.9,10.7"/>
<path fill="#F0F0F0" d="M22.3,10.5H0.5c-0.2,0-0.4,0.2-0.5,0.4c0,0,0-0.1,0-0.1c0-0.3,0.2-0.5,0.5-0.5h21.8c0.3,0,0.5,0.2,0.5,0.5
	c0,0,0,0.1,0,0.1C22.8,10.7,22.6,10.5,22.3,10.5"/>
<path fill="#F0F0F0" d="M22.3,9.4H0.5C0.3,9.4,0.1,9.6,0,9.8c0,0,0-0.1,0-0.1c0-0.3,0.2-0.5,0.5-0.5h21.8c0.3,0,0.5,0.2,0.5,0.5
	c0,0,0,0.1,0,0.1C22.8,9.6,22.6,9.4,22.3,9.4"/>
<path fill="#F0F0F0" d="M22.3,8.4H0.5C0.3,8.4,0.1,8.5,0,8.8c0,0,0-0.1,0-0.1c0-0.3,0.2-0.5,0.5-0.5h21.8c0.3,0,0.5,0.2,0.5,0.5
	c0,0,0,0.1,0,0.1C22.8,8.5,22.6,8.4,22.3,8.4"/>
<path fill="#A8AAA8" d="M0.5,8.9h21.8c0.2,0,0.4-0.2,0.5-0.4c0,0,0,0.1,0,0.1c0,0.3-0.2,0.5-0.5,0.5H0.5C0.2,9.1,0,8.9,0,8.6
	c0,0,0-0.1,0-0.1C0.1,8.7,0.3,8.9,0.5,8.9"/>
<path fill="#A8AAA8" d="M0.5,9.9h21.8c0.2,0,0.4-0.2,0.5-0.4c0,0,0,0.1,0,0.1c0,0.3-0.2,0.5-0.5,0.5H0.5C0.2,10.2,0,10,0,9.7
	c0,0,0-0.1,0-0.1C0.1,9.8,0.3,9.9,0.5,9.9"/>
<path fill="#A8AAA8" d="M0.5,11h21.8c0.2,0,0.4-0.2,0.5-0.4c0,0,0,0.1,0,0.1c0,0.3-0.2,0.5-0.5,0.5H0.5C0.2,11.3,0,11,0,10.7
	c0,0,0-0.1,0-0.1C0.1,10.8,0.3,11,0.5,11"/>
<g opacity="0.24">
	<g>
		<defs>
			<rect id="SVGID_1_" x="7.1" y="6.4" width="8.7" height="6.5"/>
		</defs>
		<clipPath id="SVGID_2_">
			<use xlink:href="#SVGID_1_"  overflow="visible"/>
		</clipPath>
		<rect x="7.1" y="6.4" clip-path="url(#SVGID_2_)" fill="#FFFFFF" width="8.7" height="6.5"/>
	</g>
</g>
<g opacity="0.24">
	<g>
		<defs>
			<rect id="SVGID_3_" x="8.9" y="6.5" width="5.1" height="6.5"/>
		</defs>
		<clipPath id="SVGID_4_">
			<use xlink:href="#SVGID_3_"  overflow="visible"/>
		</clipPath>
		<rect x="8.9" y="6.5" clip-path="url(#SVGID_4_)" fill="#FFFFFF" width="5.1" height="6.5"/>
	</g>
</g>
<g opacity="0.24">
	<g>
		<defs>
			<rect id="SVGID_5_" x="10.3" y="6.5" width="2.3" height="6.5"/>
		</defs>
		<clipPath id="SVGID_6_">
			<use xlink:href="#SVGID_5_"  overflow="visible"/>
		</clipPath>
		<rect x="10.3" y="6.5" clip-path="url(#SVGID_6_)" fill="#FFFFFF" width="2.3" height="6.5"/>
	</g>
</g>
<rect x="15.1" y="12.9" fill="#FCF5AD" width="7.3" height="31.7"/>
<rect x="0.6" y="12.9" fill="#988B3A" width="7.3" height="31.7"/>
<rect x="6.6" y="12.9" fill="#EBD467" width="9.8" height="31.7"/>
<polygon fill="#EDE6D8" points="22.3,44.6 16.3,37.9 11.4,44.6 6.6,37.9 0.6,44.6 11.4,62.9 "/>
<g opacity="0.4">
	<g>
		<defs>
			<rect id="SVGID_7_" x="11.4" y="37.9" width="10.9" height="25"/>
		</defs>
		<clipPath id="SVGID_8_">
			<use xlink:href="#SVGID_7_"  overflow="visible"/>
		</clipPath>
		<polygon clip-path="url(#SVGID_8_)" fill="#EDE6D8" points="16.3,37.9 18.7,45.1 11.4,62.9 22.3,44.6 		"/>
	</g>
</g>
<g opacity="0.4">
	<g>
		<defs>
			<rect id="SVGID_9_" x="0.6" y="37.9" width="10.9" height="25"/>
		</defs>
		<clipPath id="SVGID_10_">
			<use xlink:href="#SVGID_9_"  overflow="visible"/>
		</clipPath>
		<polygon clip-path="url(#SVGID_10_)" fill="#EDE6D8" points="6.6,37.9 4.2,45.1 11.4,62.9 0.6,44.6 		"/>
	</g>
</g>
<polygon fill="#252A26" points="14.1,58.5 12.2,56.3 10.9,56 8.5,58 11.4,62.9 "/>
</svg>
