<?xml version="1.0" encoding="utf-8"?>
<!-- Generator: Adobe Illustrator 15.0.2, SVG Export Plug-In . SVG Version: 6.00 Build 0)  -->
<!DOCTYPE svg PUBLIC "-//W3C//DTD SVG 1.1//EN" "http://www.w3.org/Graphics/SVG/1.1/DTD/svg11.dtd">
<svg version="1.1" id="Layer_1" xmlns="http://www.w3.org/2000/svg" xmlns:xlink="http://www.w3.org/1999/xlink" x="0px" y="0px"
	 width="62.2px" height="59.7px" viewBox="0 0 62.2 59.7" enable-background="new 0 0 62.2 59.7" xml:space="preserve">
<path fill="#393536" d="M30.5,14.9h-1.6c0-1.9-0.4-3.7-0.8-5.6c-0.1-0.6-0.3-1.2-0.4-1.8c-0.4-2.2-0.1-5.3,2.4-6.6
	c1.2-0.7,2.4-0.8,3.4-0.5c0.9,0.3,1.6,0.9,2.1,1.9c0.8,1.6,1,3.4,1,4.7h-1.6c0-1.6-0.3-2.9-0.8-3.9C34,2.3,33.6,2,33.1,1.8
	c-0.6-0.2-1.4,0-2.2,0.4c-1.7,0.9-1.9,3.2-1.6,4.9c0.1,0.6,0.2,1.2,0.4,1.8C30.1,10.8,30.5,12.8,30.5,14.9"/>
<path fill="#DEDDDE" d="M48.3,29.6c0,0.3-0.3,0.6-0.6,0.6h-1.7c-0.3,0-0.6-0.2-0.6-0.6v-7.1c0-0.3,0.3-0.6,0.6-0.6h1.7
	c0.3,0,0.6,0.3,0.6,0.6V29.6z"/>
<rect x="20.1" y="10.7" fill="#EBD467" width="5" height="2.1"/>
<rect x="20.4" y="10.3" fill="#EBD467" width="4.3" height="0.4"/>
<rect x="20.4" y="10.6" fill="#E5952E" width="4.3" height="0.1"/>
<path fill="#F9F2D1" d="M20.1,10.7h5v0c-0.8,0.1-1.7,0.1-2.5,0.1C21.7,10.8,20.9,10.9,20.1,10.7L20.1,10.7z"/>
<rect x="15.8" y="12" fill="#208BB5" width="28" height="47.8"/>
<rect x="38.8" y="12" fill="#C8C7C7" width="7.6" height="47.8"/>
<circle fill="none" stroke="#7B7979" stroke-width="0.277" stroke-miterlimit="10" cx="40.6" cy="47.7" r="0.9"/>
<g>
	<g>
		<defs>
			<rect id="SVGID_1_" x="15.8" y="12" width="30.6" height="0.3"/>
		</defs>
		<clipPath id="SVGID_2_">
			<use xlink:href="#SVGID_1_"  overflow="visible"/>
		</clipPath>
		<polygon clip-path="url(#SVGID_2_)" fill="#DCDBDB" points="15.8,12 46.4,12 46.4,12 42.6,12.1 38.7,12.1 31.1,12.2 23.4,12.1 
			19.6,12.1 15.8,12 		"/>
	</g>
</g>
<path fill="#231F20" d="M31.7,51.8c0,0.5-0.4,0.8-0.8,0.8h-8.2c-0.5,0-0.8-0.4-0.8-0.8V27.5c0-0.5,0.4-0.8,0.8-0.8h8.2
	c0.5,0,0.8,0.4,0.8,0.8V51.8z"/>
<path fill="#D3D2D2" d="M31.3,51.5c0,0.3-0.2,0.7-0.6,0.8c-0.4,0.1-0.7,0-1.1,0l-2.1,0l-4.2,0c-0.2,0-0.4,0-0.5,0
	c-0.2,0-0.3-0.1-0.5-0.3c-0.3-0.3-0.2-0.7-0.2-1l0-2.1l0-4.2l0-16.9c0-0.4,0.2-0.7,0.6-0.8c0.4-0.1,0.7,0,1.1,0l2.1,0l4.2,0
	c0.2,0,0.4,0,0.5,0c0.2,0,0.3,0.1,0.5,0.3c0.3,0.3,0.2,0.7,0.2,1v2.1l0,4.2L31.3,51.5z M31.3,51.5l0-16.9l0-4.2v-2.1
	c0-0.3,0.1-0.7-0.2-1c-0.1-0.1-0.3-0.2-0.4-0.3c-0.2,0-0.3,0-0.5,0l-4.2,0l-2.1,0c-0.3,0-0.7,0-1,0c-0.3,0.1-0.6,0.4-0.6,0.8l0,16.9
	l0,4.2l0,2.1c0,0.3-0.1,0.7,0.2,1c0.1,0.1,0.3,0.2,0.4,0.3c0.2,0,0.3,0,0.5,0l4.2,0l2.1,0c0.3,0,0.7,0,1.1,0
	C31,52.2,31.3,51.8,31.3,51.5"/>
<g>
	<g>
		<defs>
			<rect id="SVGID_3_" x="22.2" y="27" width="8.9" height="25"/>
		</defs>
		<clipPath id="SVGID_4_">
			<use xlink:href="#SVGID_3_"  overflow="visible"/>
		</clipPath>
		<path clip-path="url(#SVGID_4_)" fill="#231F20" d="M23.2,52.1c-0.4,0-0.7-0.3-0.8-0.7c0-0.4,0-0.7,0-1.1l-0.1-2.1L22.2,44
			l-0.1-8.5l0-4.2l0-2.1l0-1.1c0-0.4,0.3-0.9,0.8-1c1.5,0,2.9,0,4.3,0.1l2.1,0.1c0.4,0,0.7,0,1.1,0c0.4,0.1,0.6,0.5,0.6,0.8
			c0-0.4-0.3-0.7-0.6-0.7c-0.3,0-0.7,0-1.1,0l-2.1,0.1l-4.2,0.1c-0.2,0.1-0.4,0.3-0.4,0.6l0,1.1l0,2.1l0,4.2L22.7,44l-0.1,4.2
			l-0.1,2.1c0,0.4,0,0.7,0,1.1C22.5,51.7,22.8,52.1,23.2,52.1"/>
	</g>
</g>
<path fill="#656263" d="M26.6,32.6l-1.7-1.7c-0.4,0.4-0.7,1-0.7,1.7c0,1.3,1.1,2.4,2.4,2.4c1.3,0,2.4-1.1,2.4-2.4
	c0-0.7-0.3-1.3-0.7-1.7L26.6,32.6z"/>
<path fill="#868484" d="M28.3,30.9c-0.4-0.4-1-0.7-1.7-0.7s-1.3,0.3-1.7,0.7l1.7,1.7L28.3,30.9z"/>
<path fill="#4F4C4D" d="M27.8,32.6c0,0.7-0.5,1.2-1.2,1.2c-0.7,0-1.2-0.5-1.2-1.2s0.5-1.2,1.2-1.2C27.3,31.3,27.8,31.9,27.8,32.6"/>
<line fill="none" stroke="#FFFFFF" stroke-width="0.215" stroke-miterlimit="10" x1="26.6" y1="31.8" x2="26.6" y2="32.3"/>
<line fill="none" stroke="#FFFFFF" stroke-width="0.215" stroke-miterlimit="10" x1="25.9" y1="33" x2="26.4" y2="32.7"/>
<line fill="none" stroke="#FFFFFF" stroke-width="0.215" stroke-miterlimit="10" x1="27.3" y1="33" x2="26.8" y2="32.7"/>
<polygon fill="#4F4C4D" points="29.5,33.2 28.3,33 28.3,32.3 29.5,32.1 "/>
<polygon fill="#4F4C4D" points="25.8,29.8 26.2,30.9 25.6,31.3 24.9,30.3 "/>
<polygon fill="#4F4C4D" points="24.7,34.7 25.4,33.7 26.1,34.1 25.6,35.2 "/>
<path fill="#656263" d="M26.8,46.4V44c-0.6,0-1.2,0.2-1.7,0.7c-0.9,0.9-0.9,2.4,0,3.4c0.9,0.9,2.4,0.9,3.4,0
	c0.5-0.5,0.7-1.1,0.7-1.7H26.8z"/>
<path fill="#868484" d="M29.2,46.4c0-0.6-0.2-1.2-0.7-1.7c-0.5-0.5-1.1-0.7-1.7-0.7v2.4H29.2z"/>
<path fill="#4F4C4D" d="M27.7,47.2c-0.5,0.5-1.3,0.5-1.7,0c-0.5-0.5-0.5-1.3,0-1.7c0.5-0.5,1.3-0.5,1.7,0
	C28.2,46,28.2,46.7,27.7,47.2"/>
<line fill="none" stroke="#FFFFFF" stroke-width="0.215" stroke-miterlimit="10" x1="27.4" y1="45.8" x2="27" y2="46.2"/>
<line fill="none" stroke="#FFFFFF" stroke-width="0.215" stroke-miterlimit="10" x1="26.1" y1="46.2" x2="26.6" y2="46.3"/>
<line fill="none" stroke="#FFFFFF" stroke-width="0.215" stroke-miterlimit="10" x1="27" y1="47.1" x2="26.9" y2="46.6"/>
<polygon fill="#4F4C4D" points="28.4,48.8 27.7,47.8 28.2,47.3 29.2,48.1 "/>
<polygon fill="#4F4C4D" points="28.2,43.8 27.7,44.9 27,44.7 27.2,43.5 "/>
<polygon fill="#4F4C4D" points="24,46.5 25.2,46.4 25.4,47.1 24.2,47.5 "/>
<path fill="#BDBCBC" d="M29,41.1c0,0.5-0.4,0.8-0.8,0.8h-2.6c-0.5,0-0.8-0.4-0.8-0.8v-3.6c0-0.5,0.4-0.8,0.8-0.8h2.6
	c0.5,0,0.8,0.4,0.8,0.8V41.1z"/>
<g>
	<g>
		<defs>
			<rect id="SVGID_5_" x="15.8" y="20.7" width="23" height="0.2"/>
		</defs>
		<clipPath id="SVGID_6_">
			<use xlink:href="#SVGID_5_"  overflow="visible"/>
		</clipPath>
		
			<line clip-path="url(#SVGID_6_)" fill="none" stroke="#BDBCBC" stroke-width="0.24" stroke-miterlimit="10" x1="15.8" y1="20.8" x2="38.8" y2="20.8"/>
	</g>
</g>
<g>
	<g>
		<defs>
			<rect id="SVGID_7_" x="15.8" y="20.6" width="23" height="0.2"/>
		</defs>
		<clipPath id="SVGID_8_">
			<use xlink:href="#SVGID_7_"  overflow="visible"/>
		</clipPath>
		
			<line clip-path="url(#SVGID_8_)" fill="none" stroke="#231F20" stroke-width="0.24" stroke-miterlimit="10" x1="15.8" y1="20.7" x2="38.8" y2="20.7"/>
	</g>
</g>
<g>
	<g>
		<defs>
			<rect id="SVGID_9_" x="33.1" y="36.1" width="3.8" height="6.4"/>
		</defs>
		<clipPath id="SVGID_10_">
			<use xlink:href="#SVGID_9_"  overflow="visible"/>
		</clipPath>
		<polygon clip-path="url(#SVGID_10_)" fill="none" stroke="#BDBCBC" stroke-width="0.201" stroke-miterlimit="10" points="
			36.7,39.3 34.9,36.3 33.2,39.3 34.4,39.3 34.4,42.4 35.5,42.4 35.5,39.3 		"/>
	</g>
</g>
<polygon fill="none" stroke="#BDBCBC" stroke-width="0.201" stroke-miterlimit="10" points="36.7,39.2 34.9,36.2 33.2,39.2 
	34.4,39.2 34.4,42.3 35.5,42.3 35.5,39.2 "/>
<rect x="46.4" y="22" fill="#A7A5A6" width="0.3" height="8.2"/>
<rect x="34.8" y="7.2" fill="#231F20" width="2.4" height="4.8"/>
<rect x="35.6" y="7.2" fill="#444142" width="0.6" height="4.8"/>
<polygon fill="#444142" points="36.8,6.9 35.9,6.9 35.1,6.9 34.8,7.2 35.9,7.2 37.1,7.2 "/>
<polygon fill="#B4B3B3" points="34.8,7.2 37.1,7.2 37.1,7.2 35.9,7.3 34.8,7.2 "/>
<g>
	<g>
		<defs>
			<rect id="SVGID_11_" x="32.9" y="1.4" width="2.6" height="5"/>
		</defs>
		<clipPath id="SVGID_12_">
			<use xlink:href="#SVGID_11_"  overflow="visible"/>
		</clipPath>
		<path clip-path="url(#SVGID_12_)" fill="#393536" d="M35.4,6.4c-0.1-0.5-0.1-1-0.2-1.5c-0.1-0.5-0.2-1-0.4-1.4
			c-0.3-0.9-0.9-1.8-1.9-2.1c0.5,0.1,1,0.3,1.4,0.7c0.4,0.4,0.6,0.8,0.8,1.3C35.4,4.3,35.5,5.4,35.4,6.4"/>
	</g>
</g>
<path fill="none" stroke="#C8C7C7" stroke-width="0.419" stroke-miterlimit="10" d="M57.7,58.3c2.7-5.7,4.3-12.4,4.3-19.6
	C62,17.4,48.2,0.2,31.1,0.2C14.1,0.2,0.3,17.4,0.3,38.7c0,7.1,1.6,13.8,4.3,19.6"/>
<path fill="none" stroke="#393536" stroke-width="1.964" stroke-miterlimit="10" d="M56.1,56.5c2.6-5.4,4-11.6,4-18.3
	c0-5.4-0.9-10.4-2.6-15"/>
<path fill="none" stroke="#393536" stroke-width="1.964" stroke-miterlimit="10" d="M4.8,23.2c-1.7,4.6-2.6,9.7-2.6,15
	c0,6.7,1.5,13,4,18.3"/>
<path fill="#393536" d="M5.6,23.5l-3.5-1.2c0,0-2.1,5.1-2.2,7.4c0,0,0.1,0.7,0.3,1.1c0.3,0.4,2,2.5,2,2.5l2.3-8.1L5.6,23.5z"/>
<path fill="#393536" d="M56.5,23.5l3.5-1.2c0,0,2.1,5.1,2.2,7.4c0,0-0.1,0.7-0.3,1.1c-0.3,0.4-2,2.5-2,2.5l-2.3-8.1L56.5,23.5z"/>
<rect x="4" y="57.5" transform="matrix(0.8765 -0.4815 0.4815 0.8765 -27.468 9.4555)" fill="#393536" width="1.4" height="1.4"/>
<rect x="57" y="57.5" transform="matrix(-0.8764 -0.4816 0.4816 -0.8764 80.1343 137.0746)" fill="#393536" width="1.4" height="1.4"/>
<rect x="5.1" y="48.7" transform="matrix(0.9678 -0.2518 0.2518 0.9678 -12.9995 3.3628)" fill="#393536" width="3.1" height="7.6"/>
<rect x="4.9" y="50.6" transform="matrix(0.968 -0.251 0.251 0.968 -12.7961 3.2814)" fill="#4F4C4D" width="3.1" height="2.4"/>
<rect x="4.9" y="51.1" transform="matrix(0.9679 -0.2512 0.2512 0.9679 -12.7742 3.2726)" fill="#706D6E" width="3.1" height="1.1"/>
<path fill="#706D6E" d="M16,57c0.1,0.5-0.2,1.1-0.7,1.2l-4.5,1.2c-0.5,0.1-1.1-0.2-1.2-0.7l-3.4-13c-0.1-0.5,0.2-1.1,0.7-1.2
	l4.5-1.2c0.5-0.1,1.1,0.2,1.2,0.7L16,57z"/>
<g>
	<g>
		<defs>
			<rect id="SVGID_13_" x="6.5" y="48.5" width="2.3" height="7.4"/>
		</defs>
		<clipPath id="SVGID_14_">
			<use xlink:href="#SVGID_13_"  overflow="visible"/>
		</clipPath>
		
			<rect x="7.4" y="48.4" transform="matrix(0.967 -0.2548 0.2548 0.967 -13.0544 3.67)" clip-path="url(#SVGID_14_)" fill="#706D6E" width="0.5" height="7.6"/>
	</g>
</g>
<rect x="53.9" y="48.7" transform="matrix(-0.9678 -0.2518 0.2518 -0.9678 95.9539 117.2428)" fill="#393536" width="3.1" height="7.6"/>
<rect x="54.1" y="50.6" transform="matrix(-0.968 -0.2509 0.2509 -0.968 96.5229 115.9311)" fill="#4F4C4D" width="3.1" height="2.4"/>
<rect x="54.1" y="51.1" transform="matrix(-0.9679 -0.2512 0.2512 -0.9679 96.6067 115.6862)" fill="#706D6E" width="3.1" height="1.1"/>
<path fill="#706D6E" d="M46.1,57c-0.1,0.5,0.2,1.1,0.7,1.2l4.5,1.2c0.5,0.1,1.1-0.2,1.2-0.7l3.4-13c0.1-0.5-0.2-1.1-0.7-1.2
	l-4.5-1.2c-0.5-0.1-1.1,0.2-1.2,0.7L46.1,57z"/>
<g>
	<g>
		<defs>
			<rect id="SVGID_15_" x="53.3" y="48.5" width="2.3" height="7.4"/>
		</defs>
		<clipPath id="SVGID_16_">
			<use xlink:href="#SVGID_15_"  overflow="visible"/>
		</clipPath>
		
			<rect x="54.2" y="48.4" transform="matrix(-0.967 -0.2548 0.2548 -0.967 93.8591 116.6047)" clip-path="url(#SVGID_16_)" fill="#706D6E" width="0.5" height="7.6"/>
	</g>
</g>
</svg>
