<?xml version="1.0" encoding="utf-8"?>
<!-- Generator: Adobe Illustrator 15.0.2, SVG Export Plug-In . SVG Version: 6.00 Build 0)  -->
<!DOCTYPE svg PUBLIC "-//W3C//DTD SVG 1.1//EN" "http://www.w3.org/Graphics/SVG/1.1/DTD/svg11.dtd">
<svg version="1.1" id="Layer_1" xmlns="http://www.w3.org/2000/svg" xmlns:xlink="http://www.w3.org/1999/xlink" x="0px" y="0px"
	 width="50.6px" height="70.1px" viewBox="0 0 50.6 70.1" enable-background="new 0 0 50.6 70.1" xml:space="preserve">
<rect fill="#8B765F" width="50.6" height="70.1"/>
<rect x="2" y="2.3" fill="#72583C" width="46.4" height="65.9"/>
<g>
	<g>
		<defs>
			<rect id="SVGID_1_" x="1.9" y="1.9" width="46.4" height="65.9"/>
		</defs>
		<clipPath id="SVGID_2_">
			<use xlink:href="#SVGID_1_"  overflow="visible"/>
		</clipPath>
		<polygon clip-path="url(#SVGID_2_)" fill="#72583C" points="1.9,67.8 48.3,67.8 48.3,1.9 		"/>
	</g>
</g>
<g>
	<g>
		<defs>
			<rect id="SVGID_3_" x="1.9" y="1.9" width="46.4" height="65.9"/>
		</defs>
		<clipPath id="SVGID_4_">
			<use xlink:href="#SVGID_3_"  overflow="visible"/>
		</clipPath>
		<polygon clip-path="url(#SVGID_4_)" fill="#72583C" points="48.3,1.9 1.9,1.9 1.9,67.8 		"/>
	</g>
</g>
<polygon fill="#F3EFD9" points="4.7,64.2 4.7,5.7 25,35 "/>
<polygon fill="#F8F5E8" points="4.7,5.7 45.4,5.7 25,35 "/>
<polygon fill="#FAF9F0" points="45.4,5.7 45.4,64.2 25,35 "/>
<polygon fill="#F8F5E8" points="25,35 45.4,64.2 4.7,64.2 "/>
<g>
	<g>
		<defs>
			<rect id="SVGID_5_" x="4.7" y="5.7" width="20.4" height="58.5"/>
		</defs>
		<clipPath id="SVGID_6_">
			<use xlink:href="#SVGID_5_"  overflow="visible"/>
		</clipPath>
		<polygon clip-path="url(#SVGID_6_)" fill="#F3EFD9" points="4.7,64.2 4.7,5.7 25,35 		"/>
	</g>
</g>
<g>
	<g>
		<defs>
			<rect id="SVGID_7_" x="4.7" y="5.7" width="40.8" height="29.3"/>
		</defs>
		<clipPath id="SVGID_8_">
			<use xlink:href="#SVGID_7_"  overflow="visible"/>
		</clipPath>
		<polygon clip-path="url(#SVGID_8_)" fill="#F8F5E8" points="4.7,5.7 45.4,5.7 25,35 		"/>
	</g>
</g>
<g>
	<g>
		<defs>
			<rect id="SVGID_9_" x="25" y="5.7" width="20.4" height="58.5"/>
		</defs>
		<clipPath id="SVGID_10_">
			<use xlink:href="#SVGID_9_"  overflow="visible"/>
		</clipPath>
		<polygon clip-path="url(#SVGID_10_)" fill="#FAF9F0" points="45.4,5.7 45.4,64.2 25,35 		"/>
	</g>
</g>
<g>
	<g>
		<defs>
			<rect id="SVGID_11_" x="4.7" y="35" width="40.8" height="29.2"/>
		</defs>
		<clipPath id="SVGID_12_">
			<use xlink:href="#SVGID_11_"  overflow="visible"/>
		</clipPath>
		<polygon clip-path="url(#SVGID_12_)" fill="#F8F5E8" points="25,35 45.4,64.2 4.7,64.2 		"/>
	</g>
</g>
<path fill="#FFFFFF" d="M40.7,12.9c0-0.2-0.2-0.4-0.4-0.4H9.9c-0.2,0-0.4,0.2-0.4,0.4v44.3c0,0.2,0.2,0.4,0.4,0.4h30.3
	c0.2,0,0.4-0.2,0.4-0.4V12.9z"/>
<path fill="#B69C5B" d="M40.2,57.2H9.9v-0.4l-0.7,1c0.2,0.2,0.4,0.3,0.7,0.3h30.3c0.5,0,0.9-0.4,0.9-0.9V12.9c0-0.2-0.1-0.4-0.2-0.6
	l-0.7,1V57.2z"/>
<path fill="#72583C" d="M9,12.9v44.3c0,0.2,0.1,0.4,0.2,0.6l0.7-1V12.9h30.3v0.4l0.7-1c-0.2-0.2-0.4-0.3-0.7-0.3H9.9
	C9.4,12,9,12.4,9,12.9"/>
<path fill="#DBCEAD" d="M40.2,12.5l-18.8,0.1l-9.4,0l-1.2,0l-0.6,0c-0.2,0-0.4,0-0.5,0.1c-0.1,0.1-0.1,0.2-0.1,0.4l0,0.6l0,1.2
	l0,4.7c0,12.5,0,25.1-0.1,37.6C9.4,44.6,9.4,32.1,9.3,19.5l0-4.7l0-1.2l0-0.6c0-0.2,0-0.5,0.2-0.6c0.2-0.2,0.5-0.1,0.6-0.1l0.6,0
	l1.2,0l9.4,0L40.2,12.5z"/>
<path fill="#8B765F" d="M9.9,57.6l18.8-0.1l9.4,0l1.2,0l0.6,0c0.2,0,0.4,0,0.5-0.1c0.1-0.1,0.1-0.2,0.1-0.4v-0.6l0-1.2l0-4.7
	c0-12.5,0-25.1,0.1-37.6c0.1,12.5,0.1,25.1,0.1,37.6l0,4.7l0,1.2l0,0.6c0,0.2,0,0.5-0.2,0.6c-0.2,0.2-0.4,0.1-0.6,0.1l-0.6,0l-1.2,0
	l-9.4,0L9.9,57.6z"/>
<g>
	<defs>
		<rect id="SVGID_13_" x="12.9" y="16.7" width="24.5" height="37.2"/>
	</defs>
	<clipPath id="SVGID_14_">
		<use xlink:href="#SVGID_13_"  overflow="visible"/>
	</clipPath>
	<rect x="8.6" y="10.5" clip-path="url(#SVGID_14_)" fill="#E5952E" width="32.7" height="43.8"/>
	<path clip-path="url(#SVGID_14_)" fill="#756F8B" d="M28.5,42.9l0.2-1.8c0,0,2.6-1.7,2.7-4.1c0,0,1.1-0.3,1.1-1.7S32,33,31.4,33
		c0,0,0.1-6.9-6.2-6.9C19,26.1,19,33,19,33c-0.6,0-1.2,0.8-1.2,2.3S19,37,19,37c0.1,2.4,2.7,4.1,2.7,4.1l0.2,1.8
		c-9.2,0-10.5,11.5-10.5,11.5h13.8H39C39,54.3,37.7,42.9,28.5,42.9"/>
	<path clip-path="url(#SVGID_14_)" fill="none" stroke="#473F65" stroke-width="1.052" stroke-miterlimit="10" d="M28.5,42.9
		l0.2-1.8c0,0,2.6-1.7,2.7-4.1c0,0,1.1-0.3,1.1-1.7S32,33,31.4,33c0,0,0.1-6.9-6.2-6.9C19,26.1,19,33,19,33c-0.6,0-1.2,0.8-1.2,2.3
		S19,37,19,37c0.1,2.4,2.7,4.1,2.7,4.1l0.2,1.8c-9.2,0-10.5,11.5-10.5,11.5h13.8H39C39,54.3,37.7,42.9,28.5,42.9z"/>
</g>
<path fill="#D0D3D0" d="M37.5,16.7l0,37.2H12.9V16.7H37.5z M37.2,53.6V17h-24v36.6H37.2z"/>
<g>
	<g>
		<defs>
			<rect id="SVGID_15_" x="12.9" y="16.7" width="24.5" height="37.2"/>
		</defs>
		<clipPath id="SVGID_16_">
			<use xlink:href="#SVGID_15_"  overflow="visible"/>
		</clipPath>
		<polygon clip-path="url(#SVGID_16_)" fill="#D0D3D0" points="37.2,17 13.2,17 13.2,53.6 12.9,53.9 12.9,16.7 37.5,16.7 		"/>
	</g>
</g>
</svg>
