<?xml version="1.0" encoding="utf-8"?>
<!-- Generator: Adobe Illustrator 15.0.2, SVG Export Plug-In . SVG Version: 6.00 Build 0)  -->
<!DOCTYPE svg PUBLIC "-//W3C//DTD SVG 1.1//EN" "http://www.w3.org/Graphics/SVG/1.1/DTD/svg11.dtd">
<svg version="1.1" id="Layer_1" xmlns="http://www.w3.org/2000/svg" xmlns:xlink="http://www.w3.org/1999/xlink" x="0px" y="0px"
	 width="31.5px" height="57.2px" viewBox="0 0 31.5 57.2" enable-background="new 0 0 31.5 57.2" xml:space="preserve">
<path fill="#E5952E" d="M31.4,11.6C31.1,9.7,31,8.4,31,7.3V1.7H15.8H0.5v5.6c0,1.1,0,2.4-0.4,4.3c-0.3,1.9,0.2,5.6,0.5,6.2
	c0.4,0.6,1.2,3.8,1.2,3.8s2,29.4,2.1,30.3c0.1,0.9,0,1.3,0.9,3.1c0.9,1.8,11,2.3,11,2.3s10.1-0.5,11-2.3c0.9-1.8,0.8-2.2,0.9-3.1
	s2.1-30.3,2.1-30.3s0.8-3.2,1.2-3.8C31.2,17.2,31.7,13.5,31.4,11.6"/>
<g opacity="0.4">
	<g>
		<defs>
			<rect id="SVGID_1_" x="0" y="1.7" width="31.5" height="55.5"/>
		</defs>
		<clipPath id="SVGID_2_">
			<use xlink:href="#SVGID_1_"  overflow="visible"/>
		</clipPath>
		<g clip-path="url(#SVGID_2_)">
			<g>
				<defs>
					<rect id="SVGID_3_" x="0" y="1.7" width="31.5" height="55.5"/>
				</defs>
				<clipPath id="SVGID_4_">
					<use xlink:href="#SVGID_3_"  overflow="visible"/>
				</clipPath>
				<path clip-path="url(#SVGID_4_)" fill="#E5952E" d="M31.4,11.6C31.1,9.7,31,8.4,31,7.3V1.7H15.8H0.5v5.6c0,1.1,0,2.4-0.4,4.3
					c-0.3,1.9,0.2,5.6,0.5,6.2c0.4,0.6,1.2,3.8,1.2,3.8s2,29.4,2.1,30.3c0.1,0.9,0,1.3,0.9,3.1c0.9,1.8,11,2.3,11,2.3
					s10.1-0.5,11-2.3c0.9-1.8,0.8-2.2,0.9-3.1s2.1-30.3,2.1-30.3s0.8-3.2,1.2-3.8C31.2,17.2,31.7,13.5,31.4,11.6"/>
			</g>
		</g>
		<g clip-path="url(#SVGID_2_)">
			<g>
				<defs>
					<rect id="SVGID_5_" x="1" y="1.8" width="29.5" height="55.5"/>
				</defs>
				<clipPath id="SVGID_6_">
					<use xlink:href="#SVGID_5_"  overflow="visible"/>
				</clipPath>
				<path clip-path="url(#SVGID_6_)" fill="#E7A142" d="M1.5,1.8v5.6c0,1.1,0,2.4-0.4,4.3c-0.3,1.9,0.2,5.6,0.5,6.2
					c0.4,0.6,1.2,3.8,1.2,3.8s2,29.4,2.1,30.3c0.1,0.9,0,1.2,0.9,3.1c0.8,1.7,9.3,2.2,10,2.2c0.7-0.1,9.2-0.6,10-2.2
					c0.9-1.8,0.8-2.2,0.9-3.1c0.1-0.9,2.1-30.3,2.1-30.3s0.8-3.2,1.2-3.8c0.4-0.6,0.9-4.3,0.5-6.2C30.1,9.8,30,8.4,30,7.4V1.8H16.5
					H10H1.5z"/>
			</g>
		</g>
		<g clip-path="url(#SVGID_2_)">
			<g>
				<defs>
					<rect id="SVGID_7_" x="2" y="1.8" width="27.4" height="55.4"/>
				</defs>
				<clipPath id="SVGID_8_">
					<use xlink:href="#SVGID_7_"  overflow="visible"/>
				</clipPath>
				<path clip-path="url(#SVGID_8_)" fill="#E8AD55" d="M2.5,1.8v5.6c0,1.1,0,2.4-0.3,4.3c-0.3,1.9,0.2,5.6,0.5,6.2
					c0.3,0.6,1.1,3.8,1.1,3.8s2,29.4,2,30.3c0.1,0.9,0,1.2,0.8,3.1c0.7,1.5,7.6,2,9.1,2.2c1.4-0.2,8.4-0.7,9.1-2.2
					c0.8-1.8,0.7-2.2,0.8-3.1c0.1-0.9,2-30.3,2-30.3s0.8-3.2,1.1-3.8c0.3-0.6,0.8-4.3,0.5-6.2C29.1,9.8,29,8.5,29,7.4V1.8H17.3h-6.4
					H2.5z"/>
			</g>
		</g>
		<g clip-path="url(#SVGID_2_)">
			<g>
				<defs>
					<rect id="SVGID_9_" x="3.1" y="1.8" width="25.4" height="55.3"/>
				</defs>
				<clipPath id="SVGID_10_">
					<use xlink:href="#SVGID_9_"  overflow="visible"/>
				</clipPath>
				<path clip-path="url(#SVGID_10_)" fill="#EAB969" d="M3.5,1.8v5.6c0,1.1,0,2.4-0.3,4.3c-0.3,1.9,0.2,5.6,0.5,6.2
					c0.3,0.6,1.1,3.8,1.1,3.8s1.9,29.4,2,30.3c0.1,0.9,0,1.3,0.8,3.1c0.6,1.3,6,1.9,8.1,2.1c2.1-0.2,7.5-0.8,8.1-2.1
					c0.8-1.8,0.7-2.2,0.8-3.1s2-30.3,2-30.3s0.8-3.2,1.1-3.8c0.3-0.6,0.8-4.3,0.5-6.2C28,9.8,28,8.5,28,7.4V1.8h-9.9h-6.3H3.5z"/>
			</g>
		</g>
		<g clip-path="url(#SVGID_2_)">
			<g>
				<defs>
					<rect id="SVGID_11_" x="4.1" y="1.8" width="23.3" height="55.3"/>
				</defs>
				<clipPath id="SVGID_12_">
					<use xlink:href="#SVGID_11_"  overflow="visible"/>
				</clipPath>
				<path clip-path="url(#SVGID_12_)" fill="#ECC57C" d="M4.2,11.7c-0.3,1.9,0.2,5.6,0.5,6.2c0.3,0.6,1.1,3.8,1.1,3.8
					s1.9,29.4,2,30.3c0.1,0.9,0,1.2,0.8,3.1c0.5,1.1,4.3,1.7,7.2,2.1c2.8-0.3,6.7-0.9,7.2-2.1c0.8-1.8,0.7-2.2,0.8-3.1
					c0.1-0.9,2-30.3,2-30.3s0.8-3.2,1.1-3.8c0.3-0.6,0.8-4.3,0.5-6.2S27,8.5,27,7.5V1.8h-8.1h-6.2H4.5v5.6C4.5,8.5,4.5,9.9,4.2,11.7
					"/>
			</g>
		</g>
	</g>
</g>
<path fill="#F8F8F8" d="M26.7,52.2c-0.9,1.8-11,2.3-11,2.3s-10.1-0.5-11-2.3C4.7,52.1,4,52,3.9,51.9c0.1,0.9,0,1.3,0.9,3.1
	c0.9,1.8,11,2.3,11,2.3s10.1-0.5,11-2.3c0.9-1.8,0.8-2.2,0.9-3.1C27.5,52,26.8,52.1,26.7,52.2"/>
<path fill="#D3D2D2" d="M15.8,56.9c0,0-5.5-0.2-9.3-1c3.1,1,9.3,1.3,9.3,1.3s6.2-0.3,9.3-1.3C21.3,56.7,15.8,56.9,15.8,56.9"/>
<g>
	<g>
		<defs>
			<rect id="SVGID_13_" x="3.9" y="51.3" width="12.1" height="3.9"/>
		</defs>
		<clipPath id="SVGID_14_">
			<use xlink:href="#SVGID_13_"  overflow="visible"/>
		</clipPath>
		<path clip-path="url(#SVGID_14_)" fill="#A7A5A6" d="M16,54.5c-2.1,0.1-4.1,0.1-6.2-0.2c-1-0.1-2.1-0.3-3.1-0.6
			c-0.5-0.2-1-0.3-1.5-0.7C5.2,53,5.1,52.9,5,52.8c0-0.1-0.1-0.1-0.1-0.2c0,0.1,0,0,0,0c0,0,0,0,0,0l-0.1,0c-0.1,0-0.2-0.1-0.3-0.1
			l-0.2-0.1c-0.1-0.1-0.1,0-0.3-0.2l0.4-0.1c0,0.6,0,1.1,0.2,1.6c0.1,0.5,0.3,1,0.5,1.5c-0.3-0.5-0.5-0.9-0.7-1.5
			c-0.2-0.5-0.3-1.1-0.3-1.6l-0.1-0.8L4.4,52c-0.1-0.1,0,0,0.1,0l0.2,0c0.1,0,0.2,0.1,0.4,0.1c0,0,0.1,0,0.1,0.1c0,0,0.1,0,0.1,0.1
			c0.1,0.1,0,0,0.1,0.1c0,0,0,0.1,0.1,0.1c0.1,0.1,0.1,0.1,0.2,0.2C6,52.9,6.5,53.1,7,53.2c1,0.2,2,0.4,3,0.6
			C12,54.1,14,54.3,16,54.5"/>
	</g>
</g>
<g>
	<g>
		<defs>
			<rect id="SVGID_15_" x="22.8" y="51.7" width="4.8" height="3.2"/>
		</defs>
		<clipPath id="SVGID_16_">
			<use xlink:href="#SVGID_15_"  overflow="visible"/>
		</clipPath>
		<path clip-path="url(#SVGID_16_)" fill="#A7A5A6" d="M22.8,53.7c0.8-0.2,1.7-0.4,2.5-0.7c0.4-0.1,0.8-0.3,1.1-0.6
			c0.1-0.1,0.1-0.1,0.2-0.2c0.1-0.2,0.2-0.1,0.3-0.2c0.2-0.1,0.5-0.1,0.5-0.2l0.2-0.1l0,0.2c-0.1,0.5-0.1,1.1-0.3,1.6
			c-0.2,0.5-0.4,1-0.7,1.5c0.2-0.5,0.4-1,0.5-1.5c0.2-0.5,0.2-1,0.2-1.6l0.2,0c-0.1,0.2-0.2,0.1-0.3,0.2l-0.3,0.1
			c-0.1,0-0.2,0.1-0.2,0.1c-0.1,0.1-0.1,0.2-0.2,0.3c-0.3,0.3-0.8,0.5-1.2,0.6C24.5,53.5,23.7,53.6,22.8,53.7"/>
	</g>
</g>
<path fill="#CDCBCC" d="M10.1,55.6c0.9,0.2,1.8,0.2,2.7,0.3c0.9,0.1,1.8,0.1,2.7,0.1c0.9,0,1.8,0,2.7-0.1c0.9-0.1,1.8-0.1,2.7-0.3
	c-1.8,0.5-3.6,0.6-5.4,0.6C13.7,56.2,11.9,56.1,10.1,55.6"/>
<g>
	<g>
		<defs>
			<rect id="SVGID_17_" x="5" y="50.7" width="21.4" height="2.2"/>
		</defs>
		<clipPath id="SVGID_18_">
			<use xlink:href="#SVGID_17_"  overflow="visible"/>
		</clipPath>
		<path clip-path="url(#SVGID_18_)" fill="#5A5758" d="M5,51.1c1.8,0.5,3.5,0.8,5.3,1c1.8,0.2,3.6,0.3,5.4,0.3
			c1.8,0,3.6-0.2,5.4-0.4c1.8-0.3,3.5-0.7,5.3-1.1c-1.7,0.7-3.4,1.2-5.2,1.6c-1.8,0.4-3.6,0.5-5.5,0.6c-1.8,0-3.7-0.1-5.5-0.4
			C8.5,52.2,6.7,51.8,5,51.1"/>
	</g>
</g>
<g>
	<g>
		<defs>
			<rect id="SVGID_19_" x="9.2" y="52.6" width="13.1" height="1"/>
		</defs>
		<clipPath id="SVGID_20_">
			<use xlink:href="#SVGID_19_"  overflow="visible"/>
		</clipPath>
		<path clip-path="url(#SVGID_20_)" fill="#E9A391" d="M9.2,52.7c2.2,0.2,4.4,0.3,6.6,0.3c2.2,0,4.4-0.2,6.6-0.4
			c-2.1,0.7-4.3,1-6.6,1C13.5,53.6,11.3,53.4,9.2,52.7"/>
	</g>
</g>
<path fill="#F4DCB0" d="M17.3,48.2c0,0.3,0.2,0.5,0.5,0.5s0.5-0.2,0.5-0.5c0-0.3-0.2-0.5-0.5-0.5S17.3,47.9,17.3,48.2"/>
<path fill="#F4DCB0" d="M20.1,42c0,0.3,0.2,0.5,0.5,0.5c0.3,0,0.5-0.2,0.5-0.5c0-0.3-0.2-0.5-0.5-0.5C20.4,41.5,20.1,41.8,20.1,42"
	/>
<path fill="#F4DCB0" d="M12,39.1c0,0.3,0.2,0.5,0.5,0.5s0.5-0.2,0.5-0.5s-0.2-0.5-0.5-0.5S12,38.8,12,39.1"/>
<path fill="#F4DCB0" d="M14.5,43.9c0,0.3,0.2,0.5,0.5,0.5s0.5-0.2,0.5-0.5s-0.2-0.5-0.5-0.5S14.5,43.6,14.5,43.9"/>
<path fill="#F4DCB0" d="M15.1,50.5c0,0.3,0.2,0.5,0.5,0.5c0.3,0,0.5-0.2,0.5-0.5s-0.2-0.5-0.5-0.5C15.3,49.9,15.1,50.2,15.1,50.5"/>
<path fill="#F4DCB0" d="M20.1,32.6c0,0.1,0.1,0.2,0.2,0.2s0.2-0.1,0.2-0.2s-0.1-0.2-0.2-0.2S20.1,32.5,20.1,32.6"/>
<path fill="#F4DCB0" d="M14.9,40.9c0,0.1,0.1,0.2,0.2,0.2c0.1,0,0.2-0.1,0.2-0.2c0-0.1-0.1-0.2-0.2-0.2C15,40.7,14.9,40.8,14.9,40.9
	"/>
<path fill="#F4DCB0" d="M18.2,45.5c0,0.1,0.1,0.2,0.2,0.2c0.1,0,0.2-0.1,0.2-0.2c0-0.1-0.1-0.2-0.2-0.2
	C18.2,45.3,18.2,45.4,18.2,45.5"/>
<path fill="#F4DCB0" d="M15.1,48.2c0,0.1,0.1,0.2,0.2,0.2c0.1,0,0.2-0.1,0.2-0.2c0-0.1-0.1-0.2-0.2-0.2C15.1,48,15.1,48.1,15.1,48.2
	"/>
<path fill="#F4DCB0" d="M11.8,43.6c0,0.1,0.1,0.2,0.2,0.2s0.2-0.1,0.2-0.2s-0.1-0.2-0.2-0.2S11.8,43.4,11.8,43.6"/>
<path fill="#F4DCB0" d="M13,30.2c0,0.1,0.1,0.2,0.2,0.2s0.2-0.1,0.2-0.2c0-0.1-0.1-0.2-0.2-0.2S13,30,13,30.2"/>
<path fill="#F4DCB0" d="M16,36.7c0,0.1,0.1,0.2,0.2,0.2c0.1,0,0.2-0.1,0.2-0.2c0-0.1-0.1-0.2-0.2-0.2C16.1,36.5,16,36.6,16,36.7"/>
<path fill="#FDFAF3" d="M0.5,6.5V0.9c0-0.5,0.4-0.9,0.9-0.9h28.8c0.5,0,0.9,0.4,0.9,0.9v5.5H0.5z"/>
<g>
	<g>
		<defs>
			<rect id="SVGID_21_" x="30.8" y="1.7" width="0.3" height="5.8"/>
		</defs>
		<clipPath id="SVGID_22_">
			<use xlink:href="#SVGID_21_"  overflow="visible"/>
		</clipPath>
		<path clip-path="url(#SVGID_22_)" fill="#A7A5A6" d="M31.1,1.7c0,1.9,0,3.9,0,5.8h0c-0.1-0.5-0.2-1-0.2-1.5c0-0.5,0-1-0.1-1.5
			c0-0.5,0-1,0.1-1.5C30.9,2.7,30.9,2.2,31.1,1.7L31.1,1.7z"/>
	</g>
</g>
<g>
	<g>
		<defs>
			<rect id="SVGID_23_" x="0.5" y="6.4" width="30.6" height="0.6"/>
		</defs>
		<clipPath id="SVGID_24_">
			<use xlink:href="#SVGID_23_"  overflow="visible"/>
		</clipPath>
		<path clip-path="url(#SVGID_24_)" fill="#C7BCB1" d="M0.5,6.4c10.2,0,20.4,0,30.6,0v0.1l-3.8,0.3l-3.8,0.1C20.9,7,18.3,7,15.8,7
			c-2.5,0-5.1,0-7.6-0.1L4.3,6.7L0.5,6.4L0.5,6.4z"/>
	</g>
</g>
<g opacity="0.2">
	<g>
		<defs>
			<rect id="SVGID_25_" x="1" width="29.6" height="0.6"/>
		</defs>
		<clipPath id="SVGID_26_">
			<use xlink:href="#SVGID_25_"  overflow="visible"/>
		</clipPath>
		<path clip-path="url(#SVGID_26_)" fill="#A7A5A6" d="M1,0c9.9,0,19.7,0,29.6,0v0.1l-3.7,0.2l-3.7,0.1c-2.5,0.1-4.9,0.1-7.4,0.1
			c-2.5,0-4.9,0-7.4-0.1L4.7,0.3L1,0L1,0z"/>
	</g>
</g>
<path fill="#C7BCB1" d="M18.6,5.5c0-0.4,0.4-0.8,0.8-0.8c0.1,0,0.2,0,0.3,0.1c-0.1-0.2-0.4-0.3-0.7-0.3c-0.4,0-0.8,0.4-0.8,0.8
	c0,0.3,0.2,0.6,0.5,0.7C18.6,5.8,18.6,5.6,18.6,5.5"/>
<path fill="#C7BCB1" d="M24.1,3.7c0-0.4,0.4-0.8,0.8-0.8c0.1,0,0.2,0,0.3,0.1c-0.1-0.2-0.4-0.3-0.7-0.3c-0.4,0-0.8,0.4-0.8,0.8
	c0,0.3,0.2,0.6,0.5,0.7C24.1,4,24.1,3.9,24.1,3.7"/>
<path fill="#C7BCB1" d="M6.2,3c0-0.4,0.4-0.8,0.8-0.8c0.1,0,0.2,0,0.3,0.1C7.2,2.1,7,2,6.7,2C6.2,2,5.9,2.3,5.9,2.7
	c0,0.3,0.2,0.6,0.5,0.7C6.3,3.3,6.2,3.2,6.2,3"/>
<path fill="#C7BCB1" d="M13.1,3.4c0-0.3,0.2-0.5,0.5-0.5c0.1,0,0.1,0,0.2,0.1c-0.1-0.1-0.2-0.2-0.4-0.2c-0.3,0-0.5,0.2-0.5,0.5
	c0,0.2,0.1,0.4,0.3,0.4C13.2,3.6,13.1,3.5,13.1,3.4"/>
<path fill="#C7BCB1" d="M22.2,5.3c0-0.3,0.2-0.5,0.5-0.5c0.1,0,0.1,0,0.2,0.1c-0.1-0.1-0.2-0.2-0.4-0.2c-0.3,0-0.5,0.2-0.5,0.5
	c0,0.2,0.1,0.4,0.3,0.4C22.3,5.5,22.2,5.4,22.2,5.3"/>
<path fill="#C7BCB1" d="M4.2,5.1c0-0.3,0.2-0.5,0.5-0.5c0.1,0,0.1,0,0.2,0.1C4.8,4.5,4.7,4.4,4.5,4.4C4.2,4.4,4,4.6,4,4.9
	c0,0.2,0.1,0.4,0.3,0.4C4.2,5.3,4.2,5.2,4.2,5.1"/>
<path fill="#C7BCB1" d="M28.5,3.8c0-0.1,0.1-0.3,0.3-0.3c0,0,0.1,0,0.1,0c0-0.1-0.1-0.1-0.2-0.1c-0.1,0-0.3,0.1-0.3,0.3
	c0,0.1,0.1,0.2,0.2,0.2C28.5,3.9,28.5,3.8,28.5,3.8"/>
</svg>
