<?xml version="1.0" encoding="utf-8"?>
<!-- Generator: Adobe Illustrator 15.0.2, SVG Export Plug-In . SVG Version: 6.00 Build 0)  -->
<!DOCTYPE svg PUBLIC "-//W3C//DTD SVG 1.1//EN" "http://www.w3.org/Graphics/SVG/1.1/DTD/svg11.dtd">
<svg version="1.1" id="Layer_1" xmlns="http://www.w3.org/2000/svg" xmlns:xlink="http://www.w3.org/1999/xlink" x="0px" y="0px"
	 width="67.1px" height="38.4px" viewBox="0 0 67.1 38.4" enable-background="new 0 0 67.1 38.4" xml:space="preserve">
<path fill="#C78962" d="M31,13.1c-0.7,0.7-1.4,1.4-2.1,2.1c-2.3,2.4-4,5-7.9,3.1c-2.6-1.3-1.2-6.1-2.9-7.7H3.1
	c-2.4,7.5-6,18.6,1.1,24.6c7.8,6.6,17.1,1.7,23.1-4.6c3.2-3.7,6.4-7.6,9.6-11.3c-0.6-1.2-2-2.5-3.5-4.2C32.4,13.9,31.5,13.4,31,13.1
	"/>
<path fill="#231F20" d="M46.2,9.3c2.7-2.6,5.6-4.9,9.3-6.1c2.2-0.7,9.7,0.2,11.1-1.2c2.6-2.6-4.6-2-5.6-2c-3.7,0-7.4-0.2-11.1,0.9
	C42.6,3,36.3,7.9,31,13.1c0.6,0.2,1.4,0.8,2.4,2c1.5,1.7,2.9,3,3.5,4.2C39.9,15.9,42.9,12.5,46.2,9.3"/>
<g>
	<g>
		<defs>
			<rect id="SVGID_1_" x="16.6" y="10.6" width="16.6" height="11"/>
		</defs>
		<clipPath id="SVGID_2_">
			<use xlink:href="#SVGID_1_"  overflow="visible"/>
		</clipPath>
		<path clip-path="url(#SVGID_2_)" fill="#C78962" d="M31.1,13.1c-0.7,0.7-1.4,1.4-2.1,2.1c-2.3,2.4-4,5-7.9,3.1
			c-2.6-1.3-1.2-6.1-2.9-7.7h-1.7c0.8,0.9,1.4,2,1.5,3.1c0,0.9,0,1.9,0.1,2.9v0c0,0,0,0.1,0,0.1c0,0.5,0.4,3.4,4.3,4.7
			c2.4,0.5,6,0,10.8-6.7C32.3,13.8,31.6,13.4,31.1,13.1"/>
	</g>
</g>
<g opacity="0.3">
	<g>
		<defs>
			<rect id="SVGID_3_" y="10.6" width="23.5" height="27.8"/>
		</defs>
		<clipPath id="SVGID_4_">
			<use xlink:href="#SVGID_3_"  overflow="visible"/>
		</clipPath>
		<path clip-path="url(#SVGID_4_)" fill="#C78962" d="M5.8,28.3c-1.7-4.6,0.8-13,2.5-17.7H3.1c-2.4,7.5-6,18.6,1.1,24.6
			c6.3,5.4,13.7,3.2,19.4-1.2C15.5,37.9,8.3,35,5.8,28.3"/>
	</g>
</g>
<path fill="#72583C" d="M18.2,10.6c0,0.7-3.4,1.3-7.5,1.3s-7.5-0.6-7.5-1.3c0-0.7,3.4-1.3,7.5-1.3S18.2,9.9,18.2,10.6"/>
<g>
	<g>
		<defs>
			<rect id="SVGID_5_" x="4.6" y="9.7" width="12.5" height="1.5"/>
		</defs>
		<clipPath id="SVGID_6_">
			<use xlink:href="#SVGID_5_"  overflow="visible"/>
		</clipPath>
		<path clip-path="url(#SVGID_6_)" fill="#72583C" d="M17.1,10.4c0,0.4-2.8,0.8-6.3,0.8c-3.5,0-6.3-0.3-6.3-0.8s2.8-0.8,6.3-0.8
			C14.3,9.7,17.1,10,17.1,10.4"/>
	</g>
</g>
<path fill="#231F20" d="M17.1,10.6c0,0.4-2.8,0.8-6.3,0.8c-3.5,0-6.3-0.3-6.3-0.8c0-0.4,2.8-0.8,6.3-0.8
	C14.3,9.8,17.1,10.2,17.1,10.6"/>
<g opacity="0.3">
	<g>
		<defs>
			<rect id="SVGID_7_" x="30.9" y="1.2" width="32.4" height="18"/>
		</defs>
		<clipPath id="SVGID_8_">
			<use xlink:href="#SVGID_7_"  overflow="visible"/>
		</clipPath>
		<path clip-path="url(#SVGID_8_)" fill="#676465" d="M30.9,19.1c1.8-2.7,3.9-5.2,6.2-7.5c1.1-1.2,2.3-2.2,3.5-3.3
			c1.2-1.1,2.4-2.1,3.8-3c1.4-0.9,2.9-1.5,4.5-2.1C50.5,2.6,52,2,53.6,1.7c1.6-0.3,3.2-0.5,4.9-0.5c1.6,0,3.3,0.1,4.9,0.4v0.1
			c-1.6,0.3-3.2,0.4-4.8,0.6l-4.7,0.5c-1.6,0.1-3.2,0.3-4.7,0.8c-1.5,0.5-2.9,1.3-4.1,2.3l-6.8,6.8c-2.3,2.2-4.7,4.4-7.2,6.5
			L30.9,19.1z"/>
	</g>
</g>
<g>
	<g>
		<defs>
			<rect id="SVGID_9_" x="2.2" y="15.2" width="28.7" height="21"/>
		</defs>
		<clipPath id="SVGID_10_">
			<use xlink:href="#SVGID_9_"  overflow="visible"/>
		</clipPath>
		<path clip-path="url(#SVGID_10_)" fill="#D8AE93" d="M15.6,16.3c-0.3-0.5-0.9-0.6-1.4-0.4c-0.5,0.1-1,0.4-1.4,0.7
			c-0.9,0.6-1.7,1.3-2.2,2.2c-0.5,0.9-0.7,2-0.9,3c-0.1,1-0.2,2.1-0.3,3.2c-0.1,2.1,0,4.2,0.7,6.2c0.7,2,2.8,3.1,3.8,5
			c-0.6-0.9-1.4-1.6-2.1-2.3c-0.8-0.7-1.5-1.6-1.9-2.6c-0.7-2-0.9-4.2-0.8-6.3c0.1-1.1,0.2-2.1,0.3-3.2c0.2-1.1,0.4-2.1,0.9-3.1
			c0.5-1,1.3-1.7,2.2-2.3c0.5-0.3,0.9-0.5,1.5-0.6C14.8,15.7,15.4,15.8,15.6,16.3"/>
		<path clip-path="url(#SVGID_10_)" fill="#D8AE93" d="M9.1,16.9c-0.8,0.8-1.5,1.8-1.9,2.9c-0.4,1.1-0.7,2.2-0.7,3.3
			c0,1.1,0.1,2.3,0.2,3.4l0.5,3.4c-0.5-2.3-1.1-4.5-1-6.9c0-1.2,0.3-2.3,0.8-3.4C7.4,18.6,8.2,17.6,9.1,16.9"/>
		<path clip-path="url(#SVGID_10_)" fill="#D8AE93" d="M3.7,15.2c-0.5,1.7-0.8,3.5-1,5.3c-0.2,1.8-0.3,3.6-0.2,5.4
			c0.1,1.8,0.3,3.6,0.9,5.3C4,32.8,5.2,34.4,7,34.9c-0.9-0.2-1.7-0.7-2.3-1.4c-0.6-0.7-1.1-1.5-1.4-2.3c-0.7-1.7-0.9-3.5-1-5.3
			c-0.1-1.8,0.1-3.6,0.3-5.4C2.7,18.7,3.1,16.9,3.7,15.2"/>
		<path clip-path="url(#SVGID_10_)" fill="#D8AE93" d="M16.8,22.3c-0.4,0.1-0.8,0.4-0.9,0.9c-0.1,0.4,0,0.9,0.2,1.3
			c0.3,0.8,0.8,1.5,1.5,2.1c0.7,0.5,1.6,0.7,2.4,0.6c0.9-0.1,1.7-0.3,2.5-0.5c1.7-0.5,3.1-1.5,4.4-2.6c1.3-1.2,2.5-2.4,3.9-3.5
			c-1.4,1.1-2.5,2.4-3.8,3.6c-1.3,1.2-2.8,2.2-4.5,2.8c-0.9,0.2-1.7,0.4-2.6,0.5c-0.9,0.1-1.8-0.1-2.5-0.7c-0.7-0.6-1.2-1.3-1.5-2.2
			c-0.1-0.4-0.2-0.9-0.1-1.3C16,22.7,16.4,22.4,16.8,22.3"/>
		<path clip-path="url(#SVGID_10_)" fill="#D8AE93" d="M29.1,25.4c-1.3,1.4-2.5,2.8-4,4c-1.5,1.2-3.2,2.2-5.1,2.5
			c-1.9,0.2-3.9-0.3-5.4-1.5c-0.7-0.6-1.3-1.4-1.7-2.3c-0.4-0.9-0.5-1.9-0.3-2.8c-0.2,1.9,0.7,3.8,2.2,4.9c1.5,1.2,3.4,1.7,5.2,1.4
			c1.9-0.2,3.5-1.2,5-2.4C26.4,28.1,27.7,26.7,29.1,25.4"/>
		<path clip-path="url(#SVGID_10_)" fill="#D8AE93" d="M15.7,19.1c-0.3,0.1-0.6,0.2-0.8,0.3c-0.3,0.2-0.5,0.3-0.7,0.5
			c-0.2,0.2-0.4,0.4-0.6,0.6c-0.2,0.2-0.4,0.5-0.5,0.8c0.1-0.6,0.5-1.2,1-1.6c0.2-0.2,0.5-0.4,0.8-0.5
			C15.1,19.2,15.4,19.1,15.7,19.1"/>
		<path clip-path="url(#SVGID_10_)" fill="#D8AE93" d="M19.5,23.9c0.4,0.2,0.9,0.2,1.3,0.2c0.4,0,0.9-0.1,1.3-0.2
			c0.4-0.1,0.9-0.2,1.3-0.4c0.4-0.2,0.8-0.4,1.1-0.7c-0.5,0.8-1.4,1.2-2.3,1.4c-0.5,0.1-0.9,0.2-1.4,0.1
			C20.4,24.3,19.9,24.1,19.5,23.9"/>
	</g>
</g>
<path fill="#D8AE93" d="M18.7,20.4c0.4,0.6,1,0.9,1.6,1.3c0.3,0.2,0.6,0.4,0.8,0.5c0.1,0.1,0.3,0.2,0.4,0.2l0.2,0.1l0.2,0.1
	c0.5,0.2,1.2,0.3,1.8,0.3c0.7,0,1.3,0,2.1-0.1c-0.5,0.6-1.2,1-2,1.2c-0.8,0.2-1.6,0.2-2.4,0l-0.3-0.1l-0.2-0.1
	c-0.2-0.1-0.4-0.2-0.6-0.4c-0.3-0.3-0.6-0.5-0.8-0.8c-0.2-0.3-0.5-0.6-0.6-1C18.7,21.2,18.6,20.7,18.7,20.4"/>
</svg>
