<?xml version="1.0" encoding="utf-8"?>
<!-- Generator: Adobe Illustrator 15.0.2, SVG Export Plug-In . SVG Version: 6.00 Build 0)  -->
<!DOCTYPE svg PUBLIC "-//W3C//DTD SVG 1.1//EN" "http://www.w3.org/Graphics/SVG/1.1/DTD/svg11.dtd">
<svg version="1.1" id="Layer_1" xmlns="http://www.w3.org/2000/svg" xmlns:xlink="http://www.w3.org/1999/xlink" x="0px" y="0px"
	 width="52.5px" height="76.3px" viewBox="0 0 52.5 76.3" enable-background="new 0 0 52.5 76.3" xml:space="preserve">
<path fill="#E9E9E9" d="M12.9,41.3v2.2v3.7l7.9,27.7c0,0,0.4,1.4,1.5,1.4c0.7,0,1.3-1,1.7-1.9h-0.5l-1.4-20.3h2.3V41.3H12.9z"/>
<path fill="#A82526" d="M23.5,74.4H24c0.2-0.4,0.3-0.7,0.3-0.9l0.1-2.8V54.1h-2.3L23.5,74.4z"/>
<path fill="#A82526" d="M12.4,40.9c0,0,0.2,0.5,0.6,0.5c0.3,0,5.2,0.9,10.4,1.2c0,0,1.2,0.2,1.2-0.5c0,0,0.5-1.1,1.5-1.1
	c1,0-2-1.1-2-1.1L12.4,40.9z"/>
<path fill="#E9E9E9" d="M12.9,35v-2.2v-3.7l7.9-27.7c0,0,0.4-1.4,1.5-1.4C23,0,23.6,1,24,1.9h-0.5l-1.4,20.3h2.3V35H12.9z"/>
<path fill="#A82526" d="M23.5,1.9H24c0.2,0.4,0.3,0.7,0.3,0.9l0.1,2.8v16.6h-2.3L23.5,1.9z"/>
<path fill="#A82526" d="M12.4,35.4c0,0,0.2-0.5,0.6-0.5c0.3,0,5.2-0.9,10.4-1.2c0,0,1.2-0.2,1.2,0.5c0,0,0.5,1.1,1.5,1.1
	c1,0-2,1.1-2,1.1L12.4,35.4z"/>
<path fill="#E9E9E9" d="M1.6,36.6C0.3,37.3,0,37.7,0,38c0,0,0,0.1,0,0.1v0.2c0,0,0,0,0,0.1c0,0.2,0.3,0.7,1.6,1.3
	c2,1,9.4,1.5,9.4,1.5h16.3c4.1,0,7.8,0,11.1-0.8c3.3-0.8,10.8-1.3,12.5-1.5c1.6-0.2,1.7-0.7,1.7-0.7s-0.1-0.6-1.7-0.7
	c-1.6-0.2-9.1-0.7-12.5-1.5c-3.3-0.8-7-0.8-11.1-0.8H11C11,35.1,3.6,35.6,1.6,36.6"/>
<path fill="#E9E9E9" d="M47.9,47.6c0,0,0.6,1,1.9,1.1v-8.8c0-0.4,0.4-0.4,0.4-0.4h1.2c-0.1-0.2-0.1-0.4-0.1-0.6v-0.7l-7.4,1.1
	L47.9,47.6z"/>
<path fill="#A82526" d="M49.8,39.9v8.8c0,0,0.1,0,0.1,0h0c1.5,0,2.2-1.4,2.2-1.8v-6c0,0,0-0.2-0.1-0.4c0-0.1-0.1-0.2-0.2-0.2
	c-0.2-0.2-0.5-0.4-0.6-0.8h-1.2C50.1,39.5,49.8,39.5,49.8,39.9"/>
<path fill="#E9E9E9" d="M47.9,28.7c0,0,0.6-1,1.9-1.1v8.8c0,0.4,0.4,0.4,0.4,0.4h1.2c-0.1,0.2-0.1,0.4-0.1,0.6v0.7L43.8,37
	L47.9,28.7z"/>
<path fill="#A82526" d="M49.8,36.4v-8.8c0,0,0.1,0,0.1,0h0c1.5,0,2.2,1.4,2.2,1.8v6c0,0,0,0.2-0.1,0.4c0,0.1-0.1,0.2-0.2,0.2
	c-0.2,0.2-0.5,0.4-0.6,0.8h-1.2C50.1,36.8,49.8,36.8,49.8,36.4"/>
<path fill="#A82526" d="M32.2,38.3c0.4,0,14.3,0.1,14.3,0.1l4.4-0.2c0,0,0.3-0.1,0.3-0.2H31.7C31.7,38.2,31.9,38.3,32.2,38.3"/>
<path fill="#A82526" d="M32.2,38c-0.4,0-0.5,0.2-0.5,0.2h19.5C51.3,38,51,38,51,38l-4.4-0.2C46.6,37.8,32.6,37.9,32.2,38"/>
<path fill="#918F90" d="M8.6,43.6c0,0-0.7,0-0.7,0.8v0.9v0.9c0,0.8,0.7,0.8,0.7,0.8s0.2,0,1.2,0.1v-3.6C8.8,43.6,8.6,43.6,8.6,43.6"
	/>
<path fill="#918F90" d="M13.5,43.4c-1.2,0-2.2,0.1-2.9,0.1v3.7c0.7,0,1.6,0.1,2.9,0.1c4.3,0.2,5.6-1.9,5.6-1.9S17.8,43.3,13.5,43.4"
	/>
<g opacity="0.3">
	<g>
		<defs>
			<rect id="SVGID_1_" x="7.9" y="43.6" width="2" height="1.4"/>
		</defs>
		<clipPath id="SVGID_2_">
			<use xlink:href="#SVGID_1_"  overflow="visible"/>
		</clipPath>
		<path clip-path="url(#SVGID_2_)" fill="#918F90" d="M8.6,44.7c0,0,0.2,0,1.2,0v-1.1c-1.1,0-1.2,0.1-1.2,0.1s-0.7,0-0.7,0.8V45
			C7.9,44.7,8.6,44.7,8.6,44.7"/>
	</g>
</g>
<g opacity="0.3">
	<g>
		<defs>
			<rect id="SVGID_3_" x="7.9" y="45.7" width="2" height="1.4"/>
		</defs>
		<clipPath id="SVGID_4_">
			<use xlink:href="#SVGID_3_"  overflow="visible"/>
		</clipPath>
		<path clip-path="url(#SVGID_4_)" fill="#918F90" d="M9.9,46.1c-1.1,0-1.2,0-1.2,0s-0.7,0-0.7-0.3v0.6c0,0.8,0.7,0.8,0.7,0.8
			s0.2,0,1.2,0.1V46.1z"/>
	</g>
</g>
<g opacity="0.3">
	<g>
		<defs>
			<rect id="SVGID_5_" x="10.6" y="43.4" width="8.4" height="1.9"/>
		</defs>
		<clipPath id="SVGID_6_">
			<use xlink:href="#SVGID_5_"  overflow="visible"/>
		</clipPath>
		<path clip-path="url(#SVGID_6_)" fill="#918F90" d="M13.5,43.4c-1.2,0-2.2,0.1-2.9,0.1v1.1c0.7,0,1.6,0,2.9,0
			c4.3-0.1,5.6,0.7,5.6,0.7S17.8,43.3,13.5,43.4"/>
	</g>
</g>
<g opacity="0.3">
	<g>
		<defs>
			<rect id="SVGID_7_" x="10.6" y="45.4" width="8.4" height="1.9"/>
		</defs>
		<clipPath id="SVGID_8_">
			<use xlink:href="#SVGID_7_"  overflow="visible"/>
		</clipPath>
		<path clip-path="url(#SVGID_8_)" fill="#918F90" d="M13.5,46.1c-1.2,0-2.2,0-2.9,0v1.1c0.7,0,1.6,0.1,2.9,0.1
			c4.3,0.2,5.6-1.9,5.6-1.9S17.8,46.2,13.5,46.1"/>
	</g>
</g>
<path fill="#231F20" d="M9.9,43.7v3.4c0.2,0,0.5,0,0.7,0v-3.4C10.3,43.7,10.1,43.7,9.9,43.7"/>
<path fill="#DEDDDE" d="M10.3,45.7c0,0,1.7,0,1.7-0.4h-1.8C10.2,45.4,10.2,45.5,10.3,45.7"/>
<path fill="#706D6E" d="M10.3,45c0,0,1.7,0,1.7,0.4h-1.8C10.2,45.4,10.2,45.3,10.3,45"/>
<path fill="#656263" d="M6.9,45.2v0.1v0v0.1v0v0.1c0,0.3,0.3,0.3,0.3,0.3h0.7v-0.4v-0.1v-0.4H7.3C7.3,44.9,6.9,45,6.9,45.2"/>
<path fill="#918F90" d="M8.8,29.2c0,0-0.7,0-0.7,0.8v0.9v0.9c0,0.8,0.7,0.8,0.7,0.8s0.2,0,1.2,0.1v-3.6C9,29.2,8.8,29.2,8.8,29.2"/>
<path fill="#918F90" d="M13.7,29c-1.2,0-2.2,0.1-2.9,0.1v3.7c0.7,0,1.6,0.1,2.9,0.1c4.3,0.2,5.6-1.9,5.6-1.9S18,28.8,13.7,29"/>
<g>
	<g>
		<defs>
			<rect id="SVGID_9_" x="7.9" y="46.1" width="2" height="1.1"/>
		</defs>
		<clipPath id="SVGID_10_">
			<use xlink:href="#SVGID_9_"  overflow="visible"/>
		</clipPath>
		<path clip-path="url(#SVGID_10_)" fill="#918F90" d="M7.9,46.1v0.2c0,0.8,0.7,0.8,0.7,0.8s0.2,0,1.2,0.1v-0.4c-1.1,0-1.2,0-1.2,0
			S7.9,46.8,7.9,46.1"/>
	</g>
</g>
<g>
	<g>
		<defs>
			<rect id="SVGID_11_" x="7.9" y="43.6" width="2" height="1.1"/>
		</defs>
		<clipPath id="SVGID_12_">
			<use xlink:href="#SVGID_11_"  overflow="visible"/>
		</clipPath>
		<path clip-path="url(#SVGID_12_)" fill="#918F90" d="M8.6,43.6c0,0-0.7,0-0.7,0.8v0.2C7.9,44,8.6,44,8.6,44s0.2,0,1.2,0v-0.4
			C8.8,43.6,8.6,43.6,8.6,43.6"/>
	</g>
</g>
<g>
	<g>
		<defs>
			<rect id="SVGID_13_" x="10.6" y="45.4" width="8.4" height="1.9"/>
		</defs>
		<clipPath id="SVGID_14_">
			<use xlink:href="#SVGID_13_"  overflow="visible"/>
		</clipPath>
		<path clip-path="url(#SVGID_14_)" fill="#918F90" d="M13.5,46.8c-1.2,0-2.2-0.1-2.9-0.1v0.5c0.7,0,1.6,0.1,2.9,0.1
			c4.3,0.2,5.6-1.9,5.6-1.9S17.8,46.9,13.5,46.8"/>
	</g>
</g>
<g>
	<g>
		<defs>
			<rect id="SVGID_15_" x="10.6" y="43.4" width="8.4" height="1.9"/>
		</defs>
		<clipPath id="SVGID_16_">
			<use xlink:href="#SVGID_15_"  overflow="visible"/>
		</clipPath>
		<path clip-path="url(#SVGID_16_)" fill="#918F90" d="M13.5,43.4c-1.2,0-2.2,0.1-2.9,0.1V44c0.7,0,1.6,0,2.9-0.1
			c4.3-0.1,5.6,1.4,5.6,1.4S17.8,43.3,13.5,43.4"/>
	</g>
</g>
<g>
	<g>
		<defs>
			<rect id="SVGID_17_" x="8.1" y="31.7" width="2" height="1.1"/>
		</defs>
		<clipPath id="SVGID_18_">
			<use xlink:href="#SVGID_17_"  overflow="visible"/>
		</clipPath>
		<path clip-path="url(#SVGID_18_)" fill="#918F90" d="M8.1,31.7v0.2c0,0.8,0.7,0.8,0.7,0.8s0.2,0,1.2,0.1v-0.4c-1.1,0-1.2,0-1.2,0
			S8.1,32.3,8.1,31.7"/>
	</g>
</g>
<g>
	<g>
		<defs>
			<rect id="SVGID_19_" x="8.1" y="29.1" width="2" height="1.1"/>
		</defs>
		<clipPath id="SVGID_20_">
			<use xlink:href="#SVGID_19_"  overflow="visible"/>
		</clipPath>
		<path clip-path="url(#SVGID_20_)" fill="#918F90" d="M8.8,29.2c0,0-0.7,0-0.7,0.8v0.2c0-0.6,0.7-0.6,0.7-0.6s0.2,0,1.2,0v-0.4
			C9,29.2,8.8,29.2,8.8,29.2"/>
	</g>
</g>
<g>
	<g>
		<defs>
			<rect id="SVGID_21_" x="10.8" y="30.9" width="8.4" height="1.9"/>
		</defs>
		<clipPath id="SVGID_22_">
			<use xlink:href="#SVGID_21_"  overflow="visible"/>
		</clipPath>
		<path clip-path="url(#SVGID_22_)" fill="#918F90" d="M13.7,32.3c-1.2,0-2.2-0.1-2.9-0.1v0.5c0.7,0,1.6,0.1,2.9,0.1
			c4.3,0.2,5.6-1.9,5.6-1.9S18,32.4,13.7,32.3"/>
	</g>
</g>
<g>
	<g>
		<defs>
			<rect id="SVGID_23_" x="10.8" y="29" width="8.4" height="1.9"/>
		</defs>
		<clipPath id="SVGID_24_">
			<use xlink:href="#SVGID_23_"  overflow="visible"/>
		</clipPath>
		<path clip-path="url(#SVGID_24_)" fill="#918F90" d="M13.7,29c-1.2,0-2.2,0.1-2.9,0.1v0.5c0.7,0,1.6,0,2.9-0.1
			c4.3-0.1,5.6,1.4,5.6,1.4S18,28.8,13.7,29"/>
	</g>
</g>
<path fill="#231F20" d="M10.1,29.2v3.4c0.2,0,0.5,0,0.7,0v-3.4C10.5,29.2,10.3,29.2,10.1,29.2"/>
<path fill="#DEDDDE" d="M10.5,31.3c0,0,1.7,0,1.7-0.4h-1.8C10.4,30.9,10.4,31,10.5,31.3"/>
<path fill="#706D6E" d="M10.5,30.6c0,0,1.7,0,1.7,0.4h-1.8C10.4,30.9,10.4,30.8,10.5,30.6"/>
<path fill="#656263" d="M7.1,30.8v0.1v0v0.1v0v0.1c0,0.3,0.3,0.3,0.3,0.3h0.7v-0.4v-0.1v-0.4H7.5C7.5,30.5,7.1,30.5,7.1,30.8"/>
<path fill="#E9EAE9" d="M6.9,41.9c0.1,0,0.2,1.6,0.2,3.5c0,1.9-0.1,3.5-0.2,3.5s-0.2-1.6-0.2-3.5C6.8,43.4,6.8,41.9,6.9,41.9"/>
<path fill="#E9EAE9" d="M7.1,27.4c0.1,0,0.2,1.6,0.2,3.5c0,1.9-0.1,3.5-0.2,3.5c-0.1,0-0.2-1.6-0.2-3.5C6.9,29,7,27.4,7.1,27.4"/>
<path fill="#B52126" d="M6.5,45.3L6.5,45.3L6.5,45.3L6.5,45.3L6.5,45.3v0.1c0,0.1,0.1,0.1,0.1,0.1h0.3v-0.2v0v-0.2H6.7
	C6.7,45.2,6.5,45.2,6.5,45.3"/>
<path fill="#B52126" d="M6.7,30.9L6.7,30.9L6.7,30.9L6.7,30.9L6.7,30.9V31c0,0.1,0.1,0.1,0.1,0.1h0.3v-0.2v0v-0.2H6.9
	C6.9,30.7,6.7,30.8,6.7,30.9"/>
<g opacity="0.5">
	<g>
		<defs>
			<rect id="SVGID_25_" x="6.7" y="30.5" width="1.4" height="0.9"/>
		</defs>
		<clipPath id="SVGID_26_">
			<use xlink:href="#SVGID_25_"  overflow="visible"/>
		</clipPath>
		<g clip-path="url(#SVGID_26_)">
			<g>
				<defs>
					<rect id="SVGID_27_" x="7.1" y="31.1" width="1" height="0.3"/>
				</defs>
				<clipPath id="SVGID_28_">
					<use xlink:href="#SVGID_27_"  overflow="visible"/>
				</clipPath>
				<path clip-path="url(#SVGID_28_)" fill="#656263" d="M7.1,31.1L7.1,31.1L7.1,31.1c0,0.3,0.3,0.3,0.3,0.3h0.7v-0.1H7.5
					C7.5,31.3,7.1,31.3,7.1,31.1"/>
			</g>
		</g>
		<g clip-path="url(#SVGID_26_)">
			<g>
				<defs>
					<rect id="SVGID_29_" x="7.1" y="30.5" width="1" height="0.3"/>
				</defs>
				<clipPath id="SVGID_30_">
					<use xlink:href="#SVGID_29_"  overflow="visible"/>
				</clipPath>
				<path clip-path="url(#SVGID_30_)" fill="#656263" d="M7.1,30.8L7.1,30.8L7.1,30.8c0-0.2,0.3-0.2,0.3-0.2h0.7v-0.1H7.5
					C7.5,30.5,7.1,30.5,7.1,30.8"/>
			</g>
		</g>
		<g clip-path="url(#SVGID_26_)">
			<g>
				<defs>
					<rect id="SVGID_31_" x="6.7" y="31" width="0.4" height="0.1"/>
				</defs>
				<clipPath id="SVGID_32_">
					<use xlink:href="#SVGID_31_"  overflow="visible"/>
				</clipPath>
				<path clip-path="url(#SVGID_32_)" fill="#B52126" d="M6.9,31.1c0,0-0.1,0-0.1-0.1v0C6.7,31.1,6.9,31.1,6.9,31.1l0.3,0v0v0H6.9z"
					/>
			</g>
		</g>
		<g clip-path="url(#SVGID_26_)">
			<g>
				<defs>
					<rect id="SVGID_33_" x="6.7" y="30.7" width="0.4" height="0.1"/>
				</defs>
				<clipPath id="SVGID_34_">
					<use xlink:href="#SVGID_33_"  overflow="visible"/>
				</clipPath>
				<path clip-path="url(#SVGID_34_)" fill="#B52126" d="M6.9,30.8h0.3v0v0L6.9,30.8c0,0-0.1,0-0.1,0.1v0
					C6.7,30.8,6.9,30.8,6.9,30.8"/>
			</g>
		</g>
		<g opacity="0.5" clip-path="url(#SVGID_26_)">
			<g>
				<defs>
					<rect id="SVGID_35_" x="7.1" y="30.5" width="1" height="0.3"/>
				</defs>
				<clipPath id="SVGID_36_">
					<use xlink:href="#SVGID_35_"  overflow="visible"/>
				</clipPath>
				<path clip-path="url(#SVGID_36_)" fill="#656263" d="M7.1,30.8L7.1,30.8L7.1,30.8c0-0.1,0.3-0.1,0.3-0.1h0.7v-0.1H7.5
					C7.5,30.5,7.1,30.6,7.1,30.8"/>
			</g>
		</g>
		<g opacity="0.5" clip-path="url(#SVGID_26_)">
			<g>
				<defs>
					<rect id="SVGID_37_" x="7.1" y="31" width="1" height="0.3"/>
				</defs>
				<clipPath id="SVGID_38_">
					<use xlink:href="#SVGID_37_"  overflow="visible"/>
				</clipPath>
				<path clip-path="url(#SVGID_38_)" fill="#656263" d="M7.1,31L7.1,31L7.1,31c0,0.3,0.3,0.3,0.3,0.3h0.7v-0.1H7.5
					C7.5,31.2,7.1,31.1,7.1,31"/>
			</g>
		</g>
		<g opacity="0.5" clip-path="url(#SVGID_26_)">
			<g>
				<defs>
					<rect id="SVGID_39_" x="6.7" y="30.8" width="0.4" height="0.1"/>
				</defs>
				<clipPath id="SVGID_40_">
					<use xlink:href="#SVGID_39_"  overflow="visible"/>
				</clipPath>
				<path clip-path="url(#SVGID_40_)" fill="#B52126" d="M6.9,30.8h0.3v0v0L6.9,30.8c0-0.1-0.1,0-0.1,0v0
					C6.7,30.8,6.9,30.8,6.9,30.8"/>
			</g>
		</g>
		<g opacity="0.5" clip-path="url(#SVGID_26_)">
			<g>
				<defs>
					<rect id="SVGID_41_" x="6.7" y="31" width="0.4" height="0.1"/>
				</defs>
				<clipPath id="SVGID_42_">
					<use xlink:href="#SVGID_41_"  overflow="visible"/>
				</clipPath>
				<path clip-path="url(#SVGID_42_)" fill="#B52126" d="M6.9,31.1h0.3v0v0L6.9,31.1C6.9,31,6.7,31,6.7,31v0
					C6.7,31.1,6.9,31.1,6.9,31.1"/>
			</g>
		</g>
	</g>
</g>
<g opacity="0.5">
	<g>
		<defs>
			<rect id="SVGID_43_" x="6.5" y="44.9" width="1.4" height="0.9"/>
		</defs>
		<clipPath id="SVGID_44_">
			<use xlink:href="#SVGID_43_"  overflow="visible"/>
		</clipPath>
		<g clip-path="url(#SVGID_44_)">
			<g>
				<defs>
					<rect id="SVGID_45_" x="6.9" y="45.5" width="1" height="0.3"/>
				</defs>
				<clipPath id="SVGID_46_">
					<use xlink:href="#SVGID_45_"  overflow="visible"/>
				</clipPath>
				<path clip-path="url(#SVGID_46_)" fill="#656263" d="M6.9,45.5L6.9,45.5L6.9,45.5c0,0.3,0.3,0.3,0.3,0.3h0.7v-0.1H7.3
					C7.3,45.8,6.9,45.7,6.9,45.5"/>
			</g>
		</g>
		<g clip-path="url(#SVGID_44_)">
			<g>
				<defs>
					<rect id="SVGID_47_" x="6.9" y="44.9" width="1" height="0.3"/>
				</defs>
				<clipPath id="SVGID_48_">
					<use xlink:href="#SVGID_47_"  overflow="visible"/>
				</clipPath>
				<path clip-path="url(#SVGID_48_)" fill="#656263" d="M6.9,45.2L6.9,45.2L6.9,45.2C6.9,45,7.3,45,7.3,45h0.7v-0.1H7.3
					C7.3,44.9,6.9,45,6.9,45.2"/>
			</g>
		</g>
		<g clip-path="url(#SVGID_44_)">
			<g>
				<defs>
					<rect id="SVGID_49_" x="6.5" y="45.4" width="0.4" height="0.1"/>
				</defs>
				<clipPath id="SVGID_50_">
					<use xlink:href="#SVGID_49_"  overflow="visible"/>
				</clipPath>
				<path clip-path="url(#SVGID_50_)" fill="#B52126" d="M6.7,45.5c0,0-0.1,0-0.1-0.1v0C6.5,45.5,6.7,45.6,6.7,45.5l0.3,0v0v0H6.7z"
					/>
			</g>
		</g>
		<g clip-path="url(#SVGID_44_)">
			<g>
				<defs>
					<rect id="SVGID_51_" x="6.5" y="45.2" width="0.4" height="0.1"/>
				</defs>
				<clipPath id="SVGID_52_">
					<use xlink:href="#SVGID_51_"  overflow="visible"/>
				</clipPath>
				<path clip-path="url(#SVGID_52_)" fill="#B52126" d="M6.7,45.2h0.3v0v0L6.7,45.2c0,0-0.1,0-0.1,0.1v0
					C6.5,45.2,6.7,45.2,6.7,45.2"/>
			</g>
		</g>
		<g opacity="0.5" clip-path="url(#SVGID_44_)">
			<g>
				<defs>
					<rect id="SVGID_53_" x="6.9" y="45" width="1" height="0.3"/>
				</defs>
				<clipPath id="SVGID_54_">
					<use xlink:href="#SVGID_53_"  overflow="visible"/>
				</clipPath>
				<path clip-path="url(#SVGID_54_)" fill="#656263" d="M6.9,45.2L6.9,45.2L6.9,45.2c0-0.1,0.3-0.1,0.3-0.1h0.7V45H7.3
					C7.3,45,6.9,45,6.9,45.2"/>
			</g>
		</g>
		<g opacity="0.5" clip-path="url(#SVGID_44_)">
			<g>
				<defs>
					<rect id="SVGID_55_" x="6.9" y="45.5" width="1" height="0.3"/>
				</defs>
				<clipPath id="SVGID_56_">
					<use xlink:href="#SVGID_55_"  overflow="visible"/>
				</clipPath>
				<path clip-path="url(#SVGID_56_)" fill="#656263" d="M6.9,45.5L6.9,45.5L6.9,45.5c0,0.3,0.3,0.3,0.3,0.3h0.7v-0.1H7.3
					C7.3,45.6,6.9,45.6,6.9,45.5"/>
			</g>
		</g>
		<g opacity="0.5" clip-path="url(#SVGID_44_)">
			<g>
				<defs>
					<rect id="SVGID_57_" x="6.5" y="45.2" width="0.4" height="0.1"/>
				</defs>
				<clipPath id="SVGID_58_">
					<use xlink:href="#SVGID_57_"  overflow="visible"/>
				</clipPath>
				<path clip-path="url(#SVGID_58_)" fill="#B52126" d="M6.7,45.3h0.3v0v0L6.7,45.3c0-0.1-0.1,0-0.1,0v0
					C6.5,45.3,6.7,45.3,6.7,45.3"/>
			</g>
		</g>
		<g opacity="0.5" clip-path="url(#SVGID_44_)">
			<g>
				<defs>
					<rect id="SVGID_59_" x="6.5" y="45.4" width="0.4" height="0.1"/>
				</defs>
				<clipPath id="SVGID_60_">
					<use xlink:href="#SVGID_59_"  overflow="visible"/>
				</clipPath>
				<path clip-path="url(#SVGID_60_)" fill="#B52126" d="M6.7,45.5h0.3v0v0L6.7,45.5c0-0.1-0.1-0.1-0.1-0.1v0
					C6.5,45.5,6.7,45.5,6.7,45.5"/>
			</g>
		</g>
	</g>
</g>
<path fill="#B52126" d="M2.2,36.4c-0.2,0.1-0.5,0.2-0.6,0.3C0.3,37.3,0,37.7,0,38c0,0,0,0.1,0,0.1v0.2c0,0,0,0,0,0.1
	c0,0.2,0.3,0.7,1.6,1.3c0.2,0.1,0.4,0.2,0.6,0.3V36.4z"/>
<g>
	<g>
		<defs>
			<rect id="SVGID_61_" y="38.2" width="52.5" height="3"/>
		</defs>
		<clipPath id="SVGID_62_">
			<use xlink:href="#SVGID_61_"  overflow="visible"/>
		</clipPath>
		<path clip-path="url(#SVGID_62_)" fill="#D3D2D2" d="M50.8,38.7c-1.6,0.1-9.1,0.5-12.5,1.1c-3.3,0.6-7,0.6-11.1,0.6H11
			c0,0-7.4-0.4-9.4-1.1c-1.3-0.5-1.6-0.8-1.6-1c0,0,0,0,0,0c0,0,0,0,0,0.1c0,0.2,0.3,0.7,1.6,1.3c2,1,9.4,1.5,9.4,1.5h16.3
			c4.1,0,7.8,0,11.1-0.8c3.3-0.8,10.8-1.3,12.5-1.5c1.6-0.2,1.7-0.7,1.7-0.7S52.4,38.6,50.8,38.7"/>
	</g>
</g>
<g>
	<g>
		<defs>
			<rect id="SVGID_63_" y="35.1" width="52.5" height="3"/>
		</defs>
		<clipPath id="SVGID_64_">
			<use xlink:href="#SVGID_63_"  overflow="visible"/>
		</clipPath>
		<path clip-path="url(#SVGID_64_)" fill="#D3D2D2" d="M1.6,36.6C0.3,37.3,0,37.7,0,38c0,0,0,0,0,0.1c0,0,0,0,0,0
			c0-0.2,0.3-0.5,1.6-1c2-0.8,9.4-1.1,9.4-1.1h16.3c4.1,0,7.8,0,11.1,0.6c3.3,0.6,10.8,1,12.5,1.1c1.6,0.1,1.7,0.6,1.7,0.6
			s-0.1-0.6-1.7-0.7c-1.6-0.2-9.1-0.7-12.5-1.5c-3.3-0.8-7-0.8-11.1-0.8H11C11,35.1,3.6,35.6,1.6,36.6"/>
	</g>
</g>
<polygon fill="#608DA2" points="3.5,38.3 4,38.3 4.8,39 4.5,39.3 "/>
<polygon fill="#608DA2" points="4.6,39.4 4.9,39.2 5.5,39.7 5.2,40 "/>
<polygon fill="#608DA2" points="5.4,40.1 5.6,39.9 6.4,39.9 6.6,40.1 6.4,40.3 "/>
<polygon fill="#608DA2" points="3.5,38 4,38 4.8,37.3 4.5,37 "/>
<polygon fill="#608DA2" points="4.6,36.9 4.9,37.1 5.5,36.6 5.2,36.3 "/>
<polygon fill="#608DA2" points="5.4,36.2 5.6,36.4 6.4,36.4 6.6,36.2 6.4,36 "/>
<g opacity="0.3">
	<g>
		<defs>
			<rect id="SVGID_65_" x="3.9" y="38.3" width="0.9" height="0.9"/>
		</defs>
		<clipPath id="SVGID_66_">
			<use xlink:href="#SVGID_65_"  overflow="visible"/>
		</clipPath>
		<polygon clip-path="url(#SVGID_66_)" fill="#231F20" points="4.8,39 4,38.3 3.9,38.3 4.7,39.1 		"/>
	</g>
</g>
<g opacity="0.3">
	<g>
		<defs>
			<rect id="SVGID_67_" x="5" y="39.3" width="0.5" height="0.5"/>
		</defs>
		<clipPath id="SVGID_68_">
			<use xlink:href="#SVGID_67_"  overflow="visible"/>
		</clipPath>
		<polygon clip-path="url(#SVGID_68_)" fill="#231F20" points="5.3,39.8 5.5,39.7 5.1,39.3 5,39.4 		"/>
	</g>
</g>
<g opacity="0.3">
	<g>
		<defs>
			<rect id="SVGID_69_" x="5.7" y="39.9" width="0.8" height="0.4"/>
		</defs>
		<clipPath id="SVGID_70_">
			<use xlink:href="#SVGID_69_"  overflow="visible"/>
		</clipPath>
		<polygon clip-path="url(#SVGID_70_)" fill="#231F20" points="6.5,40.2 6.6,40.1 6.4,39.9 5.9,39.9 5.7,40.1 		"/>
	</g>
</g>
<g opacity="0.3">
	<g>
		<defs>
			<rect id="SVGID_71_" x="3.9" y="37.2" width="0.9" height="0.9"/>
		</defs>
		<clipPath id="SVGID_72_">
			<use xlink:href="#SVGID_71_"  overflow="visible"/>
		</clipPath>
		<polygon clip-path="url(#SVGID_72_)" fill="#231F20" points="4.7,37.2 3.9,38 4,38 4.8,37.3 		"/>
	</g>
</g>
<g opacity="0.3">
	<g>
		<defs>
			<rect id="SVGID_73_" x="5" y="36.5" width="0.5" height="0.5"/>
		</defs>
		<clipPath id="SVGID_74_">
			<use xlink:href="#SVGID_73_"  overflow="visible"/>
		</clipPath>
		<polygon clip-path="url(#SVGID_74_)" fill="#231F20" points="5.3,36.5 5,36.9 5.1,37 5.5,36.6 		"/>
	</g>
</g>
<g opacity="0.3">
	<g>
		<defs>
			<rect id="SVGID_75_" x="5.7" y="36.1" width="0.8" height="0.4"/>
		</defs>
		<clipPath id="SVGID_76_">
			<use xlink:href="#SVGID_75_"  overflow="visible"/>
		</clipPath>
		<polygon clip-path="url(#SVGID_76_)" fill="#231F20" points="6.5,36.1 5.7,36.2 5.9,36.4 6.4,36.4 6.6,36.2 		"/>
	</g>
</g>
<g opacity="0.3">
	<g>
		<defs>
			<rect id="SVGID_77_" x="8.1" y="29.1" width="2" height="1.4"/>
		</defs>
		<clipPath id="SVGID_78_">
			<use xlink:href="#SVGID_77_"  overflow="visible"/>
		</clipPath>
		<path clip-path="url(#SVGID_78_)" fill="#918F90" d="M8.8,30.3c0,0,0.2,0,1.2,0v-1.1c-1.1,0-1.2,0.1-1.2,0.1s-0.7,0-0.7,0.8v0.6
			C8.1,30.2,8.8,30.3,8.8,30.3"/>
	</g>
</g>
<g opacity="0.3">
	<g>
		<defs>
			<rect id="SVGID_79_" x="8.1" y="31.3" width="2" height="1.4"/>
		</defs>
		<clipPath id="SVGID_80_">
			<use xlink:href="#SVGID_79_"  overflow="visible"/>
		</clipPath>
		<path clip-path="url(#SVGID_80_)" fill="#918F90" d="M10.1,31.6c-1.1,0-1.2,0-1.2,0s-0.7,0-0.7-0.3v0.6c0,0.8,0.7,0.8,0.7,0.8
			s0.2,0,1.2,0.1V31.6z"/>
	</g>
</g>
<g opacity="0.3">
	<g>
		<defs>
			<rect id="SVGID_81_" x="10.8" y="29" width="8.4" height="1.9"/>
		</defs>
		<clipPath id="SVGID_82_">
			<use xlink:href="#SVGID_81_"  overflow="visible"/>
		</clipPath>
		<path clip-path="url(#SVGID_82_)" fill="#918F90" d="M13.7,29c-1.2,0-2.2,0.1-2.9,0.1v1.1c0.7,0,1.6,0,2.9,0
			c4.3-0.1,5.6,0.7,5.6,0.7S18,28.8,13.7,29"/>
	</g>
</g>
<g opacity="0.3">
	<g>
		<defs>
			<rect id="SVGID_83_" x="10.8" y="30.9" width="8.4" height="1.9"/>
		</defs>
		<clipPath id="SVGID_84_">
			<use xlink:href="#SVGID_83_"  overflow="visible"/>
		</clipPath>
		<path clip-path="url(#SVGID_84_)" fill="#918F90" d="M13.7,31.7c-1.2,0-2.2,0-2.9,0v1.1c0.7,0,1.6,0.1,2.9,0.1
			c4.3,0.2,5.6-1.9,5.6-1.9S18,31.7,13.7,31.7"/>
	</g>
</g>
</svg>
