<?xml version="1.0" encoding="utf-8"?>
<!-- Generator: Adobe Illustrator 15.0.2, SVG Export Plug-In . SVG Version: 6.00 Build 0)  -->
<!DOCTYPE svg PUBLIC "-//W3C//DTD SVG 1.1//EN" "http://www.w3.org/Graphics/SVG/1.1/DTD/svg11.dtd">
<svg version="1.1" id="Layer_1" xmlns="http://www.w3.org/2000/svg" xmlns:xlink="http://www.w3.org/1999/xlink" x="0px" y="0px"
	 width="40.8px" height="64px" viewBox="0 0 40.8 64" enable-background="new 0 0 40.8 64" xml:space="preserve">
<rect x="3.1" y="33.9" transform="matrix(0.9826 0.1855 -0.1855 0.9826 6.5736 -0.3331)" fill="#EBD467" width="4" height="2.2"/>
<g>
	<g>
		<defs>
			<rect id="SVGID_1_" x="2.9" y="35.1" width="3.9" height="1.2"/>
		</defs>
		<clipPath id="SVGID_2_">
			<use xlink:href="#SVGID_1_"  overflow="visible"/>
		</clipPath>
		<path clip-path="url(#SVGID_2_)" fill="#EBD467" d="M6.8,36.1c-0.5-0.4-1.2-0.8-1.9-0.9c-0.7-0.1-1.3-0.1-2,0.1l0,0.3l3.9,0.7
			L6.8,36.1z"/>
	</g>
</g>
<path fill="#872237" d="M11.8,19.2c0,0-0.3-0.3-1.3-0.3c-1,0-1.6,0.2-2.4,1.2s-3.6,4.6-4.2,6.5c-0.6,2-1.4,5.3-1.5,6.4
	c-0.2,1.2,0,1.3,0,1.3l5.8,0.9c0,0,0.8-5.2,1.1-6.1c0.3-0.9,1.1-3.2,1.1-3.2L11.8,19.2z"/>
<path fill="#EBD467" d="M28.4,13.9c0,1.4-1.2,2.6-2.6,2.6H15.1c-1.4,0-2.6-1.2-2.6-2.6V5.7c0-1.4,1.2-2.6,2.6-2.6h10.7
	c1.4,0,2.6,1.2,2.6,2.6V13.9z"/>
<rect x="16.6" fill="#EBD467" width="7.6" height="3.1"/>
<path fill="#231F20" d="M19.2,9.6c0,0.5-0.4,0.8-0.8,0.8s-0.8-0.4-0.8-0.8s0.4-0.8,0.8-0.8S19.2,9.1,19.2,9.6"/>
<path fill="#231F20" d="M23.3,9.6c0,0.5-0.4,0.8-0.8,0.8s-0.8-0.4-0.8-0.8s0.4-0.8,0.8-0.8S23.3,9.1,23.3,9.6"/>
<path fill="none" stroke="#231F20" stroke-width="0.926" stroke-linecap="round" stroke-miterlimit="10" d="M18.4,12.1
	c0,0,1.9,1.7,4.1,0"/>
<rect x="15.4" y="16.5" fill="#EBD467" width="10.1" height="1.7"/>
<g>
	<g>
		<defs>
			<rect id="SVGID_3_" x="15.4" y="16.5" width="10.1" height="0.4"/>
		</defs>
		<clipPath id="SVGID_4_">
			<use xlink:href="#SVGID_3_"  overflow="visible"/>
		</clipPath>
		<path clip-path="url(#SVGID_4_)" fill="#EBD467" d="M15.4,16.5c3.4,0,6.7,0,10.1,0v0c-0.8,0.1-1.7,0.2-2.5,0.2
			c-0.8,0.1-1.7,0-2.5,0.1c-0.8,0-1.7,0-2.5-0.1C17.1,16.7,16.2,16.6,15.4,16.5L15.4,16.5z"/>
	</g>
</g>
<g>
	<g>
		<defs>
			<rect id="SVGID_5_" x="16.6" y="2.8" width="7.6" height="0.4"/>
		</defs>
		<clipPath id="SVGID_6_">
			<use xlink:href="#SVGID_5_"  overflow="visible"/>
		</clipPath>
		<path clip-path="url(#SVGID_6_)" fill="#EBD467" d="M16.6,3.1c0.6-0.1,1.3-0.2,1.9-0.2c0.6,0,1.3,0,1.9-0.1c0.6,0,1.3,0,1.9,0.1
			c0.6,0.1,1.3,0.1,1.9,0.2v0C21.6,3.1,19.1,3.1,16.6,3.1L16.6,3.1z"/>
	</g>
</g>
<path fill="#872237" d="M31.5,31.6c-0.6-2-2.1-11.8-2.1-11.8s-0.8-1.6-2.4-1.6h-6.6h-6.6c-1.6,0-2.4,1.6-2.4,1.6s-1.6,9.9-2.1,11.8
	c-0.6,2-0.9,6.1-0.9,6.1h12h12C32.4,37.7,32.1,33.5,31.5,31.6"/>
<g>
	<g>
		<defs>
			<rect id="SVGID_7_" x="9.8" y="19.2" width="2" height="8.7"/>
		</defs>
		<clipPath id="SVGID_8_">
			<use xlink:href="#SVGID_7_"  overflow="visible"/>
		</clipPath>
		<path clip-path="url(#SVGID_8_)" fill="#872237" d="M10.4,26.1l1.4-6.8c0,0-0.1-0.1-0.2-0.1c-0.3,0.3-0.4,0.6-0.4,0.6
			s-0.7,4.5-1.4,8.1C10.1,27,10.4,26.1,10.4,26.1"/>
	</g>
</g>
<g>
	<g>
		<defs>
			<rect id="SVGID_9_" x="13.8" y="18.1" width="13.1" height="0.4"/>
		</defs>
		<clipPath id="SVGID_10_">
			<use xlink:href="#SVGID_9_"  overflow="visible"/>
		</clipPath>
		<path clip-path="url(#SVGID_10_)" fill="#872237" d="M13.8,18.1c4.4,0,8.7,0,13.1,0v0c-1.1,0.1-2.2,0.2-3.3,0.2
			c-1.1,0.1-2.2,0-3.3,0.1c-1.1,0-2.2,0-3.3-0.1C16,18.4,14.9,18.3,13.8,18.1L13.8,18.1z"/>
	</g>
</g>
<path fill="#EBD467" d="M4.9,35.4c-2.2-0.4-4.4,1-4.9,3.1c-0.3,1.3,0.2,2.5,1,3.4c0-0.1,0-0.2,0-0.3l0.6-2.8c0.3-1.4,1.6-2.3,3-2
	c1.4,0.3,2.3,1.6,2,3l-0.6,2.8c0,0.1-0.1,0.2-0.1,0.3c1.1-0.5,2-1.5,2.2-2.8C8.6,37.9,7.2,35.8,4.9,35.4"/>
<rect x="33.7" y="33.9" transform="matrix(-0.9827 0.1854 -0.1854 -0.9827 77.3079 62.7031)" fill="#EBD467" width="4" height="2.2"/>
<g>
	<g>
		<defs>
			<rect id="SVGID_11_" x="34" y="35.1" width="3.9" height="1.2"/>
		</defs>
		<clipPath id="SVGID_12_">
			<use xlink:href="#SVGID_11_"  overflow="visible"/>
		</clipPath>
		<path clip-path="url(#SVGID_12_)" fill="#EBD467" d="M34,36.1c0.5-0.4,1.2-0.8,1.9-0.9c0.7-0.1,1.3-0.1,2,0.1l0,0.3L34,36.2
			L34,36.1z"/>
	</g>
</g>
<path fill="#872237" d="M29,19.2c0,0,0.3-0.3,1.3-0.3c1,0,1.6,0.2,2.4,1.2s3.6,4.6,4.2,6.5c0.6,2,1.4,5.3,1.5,6.4
	c0.2,1.2,0,1.3,0,1.3l-5.8,0.9c0,0-0.8-5.2-1.1-6.1c-0.3-0.9-1.1-3.2-1.1-3.2L29,19.2z"/>
<g>
	<g>
		<defs>
			<rect id="SVGID_13_" x="29" y="19.2" width="2" height="8.7"/>
		</defs>
		<clipPath id="SVGID_14_">
			<use xlink:href="#SVGID_13_"  overflow="visible"/>
		</clipPath>
		<path clip-path="url(#SVGID_14_)" fill="#872237" d="M30.4,26.1L29,19.4c0,0,0.1-0.1,0.2-0.1c0.3,0.3,0.4,0.6,0.4,0.6
			s0.7,4.5,1.4,8.1C30.7,27,30.4,26.1,30.4,26.1"/>
	</g>
</g>
<path fill="#EBD467" d="M35.9,35.4c2.2-0.4,4.4,1,4.9,3.1c0.3,1.3-0.2,2.5-1,3.4c0-0.1,0-0.2,0-0.3l-0.6-2.8c-0.3-1.4-1.6-2.3-3-2
	c-1.4,0.3-2.3,1.6-2,3l0.6,2.8c0,0.1,0.1,0.2,0.1,0.3c-1.1-0.5-2-1.5-2.2-2.8C32.1,37.9,33.6,35.8,35.9,35.4"/>
<rect x="9.3" y="37.7" fill="#00587E" width="22.1" height="3.8"/>
<path fill="#00587E" d="M21.6,48.8c0,0.7-0.5,1.2-1.2,1.2c-0.7,0-1.2-0.5-1.2-1.2v-7.6c0-0.7,0.5-1.2,1.2-1.2c0.7,0,1.2,0.5,1.2,1.2
	V48.8z"/>
<g>
	<g>
		<defs>
			<rect id="SVGID_15_" x="19.2" y="41.4" width="2.4" height="0.4"/>
		</defs>
		<clipPath id="SVGID_16_">
			<use xlink:href="#SVGID_15_"  overflow="visible"/>
		</clipPath>
		<rect x="19.2" y="41.4" clip-path="url(#SVGID_16_)" fill="#00587E" width="2.4" height="0.4"/>
	</g>
</g>
<rect x="9.3" y="41.4" fill="#00587E" width="9.9" height="8.8"/>
<g>
	<g>
		<defs>
			<rect id="SVGID_17_" x="9.3" y="41.3" width="9.9" height="0.2"/>
		</defs>
		<clipPath id="SVGID_18_">
			<use xlink:href="#SVGID_17_"  overflow="visible"/>
		</clipPath>
		<rect x="9.3" y="41.3" clip-path="url(#SVGID_18_)" fill="#00587E" width="9.9" height="0.2"/>
	</g>
</g>
<rect x="21.6" y="41.4" fill="#00587E" width="9.9" height="8.8"/>
<g>
	<g>
		<defs>
			<rect id="SVGID_19_" x="21.6" y="41.3" width="9.9" height="0.2"/>
		</defs>
		<clipPath id="SVGID_20_">
			<use xlink:href="#SVGID_19_"  overflow="visible"/>
		</clipPath>
		<rect x="21.6" y="41.3" clip-path="url(#SVGID_20_)" fill="#00587E" width="9.9" height="0.2"/>
	</g>
</g>
<g>
	<g>
		<defs>
			<rect id="SVGID_21_" x="19.2" y="41.9" width="0.2" height="7.1"/>
		</defs>
		<clipPath id="SVGID_22_">
			<use xlink:href="#SVGID_21_"  overflow="visible"/>
		</clipPath>
		<rect x="19.2" y="41.9" clip-path="url(#SVGID_22_)" fill="#00587E" width="0.2" height="7.1"/>
	</g>
</g>
<rect x="9" y="50.3" fill="#00587E" width="10.7" height="8.5"/>
<rect x="8.4" y="58.8" fill="#00587E" width="11.8" height="5.2"/>
<g>
	<g>
		<defs>
			<rect id="SVGID_23_" x="9" y="50.3" width="10.7" height="0.2"/>
		</defs>
		<clipPath id="SVGID_24_">
			<use xlink:href="#SVGID_23_"  overflow="visible"/>
		</clipPath>
		<rect x="9" y="50.3" clip-path="url(#SVGID_24_)" fill="#00587E" width="10.7" height="0.2"/>
	</g>
</g>
<g>
	<g>
		<defs>
			<rect id="SVGID_25_" x="8.4" y="58.8" width="11.8" height="0.2"/>
		</defs>
		<clipPath id="SVGID_26_">
			<use xlink:href="#SVGID_25_"  overflow="visible"/>
		</clipPath>
		<rect x="8.4" y="58.8" clip-path="url(#SVGID_26_)" fill="#00587E" width="11.8" height="0.2"/>
	</g>
</g>
<rect x="21.3" y="50.3" fill="#00587E" width="10.7" height="8.5"/>
<rect x="20.7" y="58.8" fill="#00587E" width="11.8" height="5.2"/>
<g>
	<g>
		<defs>
			<rect id="SVGID_27_" x="21.2" y="50.3" width="10.7" height="0.2"/>
		</defs>
		<clipPath id="SVGID_28_">
			<use xlink:href="#SVGID_27_"  overflow="visible"/>
		</clipPath>
		<rect x="21.3" y="50.3" clip-path="url(#SVGID_28_)" fill="#00587E" width="10.7" height="0.2"/>
	</g>
</g>
<g>
	<g>
		<defs>
			<rect id="SVGID_29_" x="20.7" y="58.8" width="11.8" height="0.2"/>
		</defs>
		<clipPath id="SVGID_30_">
			<use xlink:href="#SVGID_29_"  overflow="visible"/>
		</clipPath>
		<rect x="20.7" y="58.8" clip-path="url(#SVGID_30_)" fill="#00587E" width="11.8" height="0.2"/>
	</g>
</g>
</svg>
