<?xml version="1.0" encoding="utf-8"?>
<!-- Generator: Adobe Illustrator 15.0.2, SVG Export Plug-In . SVG Version: 6.00 Build 0)  -->
<!DOCTYPE svg PUBLIC "-//W3C//DTD SVG 1.1//EN" "http://www.w3.org/Graphics/SVG/1.1/DTD/svg11.dtd">
<svg version="1.1" id="Layer_1" xmlns="http://www.w3.org/2000/svg" xmlns:xlink="http://www.w3.org/1999/xlink" x="0px" y="0px"
	 width="63.3px" height="41.4px" viewBox="0 0 63.3 41.4" enable-background="new 0 0 63.3 41.4" xml:space="preserve">
<path fill="#EBD467" d="M49.4,20.7c0,9.9-8,17.9-17.9,17.9c-9.9,0-17.9-8-17.9-17.9c0-9.9,8-17.9,17.9-17.9
	C41.3,2.8,49.4,10.8,49.4,20.7"/>
<path fill="#DFAE57" d="M50.7,20.5c0,10.6-8.6,19.2-19.2,19.2c-10.6,0-19.2-8.6-19.2-19.2c0-10.6,8.6-19.2,19.2-19.2
	C42.1,1.3,50.7,9.9,50.7,20.5"/>
<g>
	<g>
		<defs>
			<rect id="SVGID_1_" x="13.2" y="2" width="36.7" height="36.9"/>
		</defs>
		<clipPath id="SVGID_2_">
			<use xlink:href="#SVGID_1_"  overflow="visible"/>
		</clipPath>
		<path clip-path="url(#SVGID_2_)" fill="#EBD467" d="M44.3,33.4c-3.3,3.4-8,5.4-12.9,5.5c-4.8,0.1-9.7-1.9-13.1-5.3
			c-1.7-1.7-3-3.8-3.9-6c-0.9-2.2-1.3-4.6-1.3-7c0-4.8,1.9-9.5,5.3-13c3.3-3.5,8.1-5.5,13-5.5c4.9-0.1,9.7,1.9,13.1,5.4
			c3.5,3.4,5.4,8.3,5.3,13.1C49.8,25.4,47.7,30,44.3,33.4 M44.3,33.3c1.7-1.7,3-3.7,3.9-5.9c0.9-2.2,1.3-4.6,1.2-6.9
			c-0.1-4.7-2-9.3-5.3-12.5c-3.3-3.3-7.9-5.2-12.5-5.2c-4.7,0-9.3,1.8-12.7,5.1c-3.4,3.3-5.4,7.9-5.3,12.7c0,4.7,2.1,9.4,5.4,12.6
			c3.3,3.3,7.9,5.2,12.6,5.3c2.3,0.1,4.7-0.4,6.9-1.2C40.6,36.3,42.6,35,44.3,33.3"/>
	</g>
</g>
<polygon fill="#231F20" points="21.7,32.3 21.7,32.3 21.7,32.3 "/>
<path fill="#444142" d="M21.8,32.3C21.7,32.3,21.7,32.3,21.8,32.3C21.7,32.3,21.7,32.3,21.8,32.3L21.8,32.3z"/>
<path fill="#EBD467" d="M48.5,20.7c0,9.4-7.6,17-17,17s-17-7.6-17-17c0-9.4,7.6-17,17-17S48.5,11.3,48.5,20.7"/>
<g>
	<g>
		<defs>
			<rect id="SVGID_3_" x="14.5" y="3.7" width="34" height="17"/>
		</defs>
		<clipPath id="SVGID_4_">
			<use xlink:href="#SVGID_3_"  overflow="visible"/>
		</clipPath>
		<path clip-path="url(#SVGID_4_)" fill="#E5952E" d="M31.5,3.7c-9.4,0-17,7.6-17,17h34C48.5,11.3,40.8,3.7,31.5,3.7"/>
	</g>
</g>
<path fill="#F4F4F4" d="M47.6,20.7c0,8.9-7.2,16.1-16.1,16.1c-8.9,0-16.1-7.2-16.1-16.1c0-8.9,7.2-16.1,16.1-16.1
	C40.4,4.6,47.6,11.8,47.6,20.7"/>
<path fill="#EEB975" d="M14.8,20.7c0.1,4.4,1.9,8.6,5,11.6c3.1,3,7.3,4.8,11.6,4.8c4.3,0,8.6-1.7,11.6-4.8c3.1-3,4.9-7.3,5-11.6
	c0,2.2-0.4,4.4-1.2,6.4c-0.8,2-2,3.9-3.6,5.5c-3.1,3.2-7.5,5-11.9,5c-4.4,0-8.8-1.8-11.9-5c-1.5-1.6-2.8-3.4-3.6-5.5
	C15.2,25.1,14.8,22.9,14.8,20.7"/>
<path fill="#F9F2D1" d="M31.5,36c-8.4,0-15.2-6.8-15.2-15.2h-0.8c0,8.9,7.2,16.1,16.1,16.1c8.9,0,16.1-7.2,16.1-16.1h-0.8
	C46.7,29.1,39.9,36,31.5,36"/>
<path fill="#E9E9E9" d="M31.5,4.6c-8.9,0-16.1,7.2-16.1,16.1h0.8c0-8.4,6.8-15.2,15.2-15.2c8.4,0,15.2,6.8,15.2,15.2h0.8
	C47.6,11.8,40.4,4.6,31.5,4.6"/>
<rect x="31.7" y="6" fill="#231F20" width="0.3" height="0.7"/>
<rect x="24.5" y="7.8" transform="matrix(0.8685 -0.4957 0.4957 0.8685 -0.7807 13.282)" fill="#231F20" width="0.3" height="0.7"/>
<rect x="19.1" y="12.9" transform="matrix(0.4925 -0.8703 0.8703 0.4925 -1.727 23.4622)" fill="#231F20" width="0.3" height="0.7"/>
<rect x="16.8" y="20.2" fill="#231F20" width="0.7" height="0.3"/>
<rect x="18.7" y="27.2" transform="matrix(-0.5006 -0.8657 0.8657 -0.5006 4.4708 57.6495)" fill="#231F20" width="0.3" height="0.7"/>
<rect x="23.8" y="32.6" transform="matrix(-0.8692 -0.4945 0.4945 -0.8692 28.5129 73.3864)" fill="#231F20" width="0.3" height="0.7"/>
<rect x="30.9" y="34.7" fill="#231F20" width="0.3" height="0.7"/>
<rect x="38.2" y="33" transform="matrix(-0.8647 0.5022 -0.5022 -0.8647 88.125 42.8875)" fill="#231F20" width="0.3" height="0.7"/>
<rect x="43.5" y="27.9" transform="matrix(-0.5018 0.865 -0.865 -0.5018 89.9889 4.5907)" fill="#231F20" width="0.3" height="0.7"/>
<rect x="45.4" y="21" fill="#231F20" width="0.7" height="0.3"/>
<rect x="43.9" y="13.5" transform="matrix(0.4998 0.8662 -0.8662 0.4998 34.0702 -31.2179)" fill="#231F20" width="0.3" height="0.7"/>
<rect x="38.8" y="8.2" transform="matrix(0.8657 0.5006 -0.5006 0.8657 9.4895 -18.3627)" fill="#231F20" width="0.3" height="0.7"/>
<line fill="none" stroke="#231F20" stroke-width="0.101" stroke-miterlimit="10" x1="31.9" y1="6" x2="31.9" y2="6.6"/>
<line fill="none" stroke="#231F20" stroke-width="0.101" stroke-miterlimit="10" x1="30.3" y1="6.1" x2="30.4" y2="6.6"/>
<line fill="none" stroke="#231F20" stroke-width="0.101" stroke-miterlimit="10" x1="28.8" y1="6.3" x2="28.9" y2="6.8"/>
<line fill="none" stroke="#231F20" stroke-width="0.101" stroke-miterlimit="10" x1="27.3" y1="6.6" x2="27.5" y2="7.2"/>
<line fill="none" stroke="#231F20" stroke-width="0.101" stroke-miterlimit="10" x1="25.9" y1="7.2" x2="26.1" y2="7.7"/>
<line fill="none" stroke="#231F20" stroke-width="0.101" stroke-miterlimit="10" x1="24.5" y1="7.8" x2="24.8" y2="8.3"/>
<line fill="none" stroke="#231F20" stroke-width="0.101" stroke-miterlimit="10" x1="23.2" y1="8.6" x2="23.5" y2="9.1"/>
<line fill="none" stroke="#231F20" stroke-width="0.101" stroke-miterlimit="10" x1="22" y1="9.5" x2="22.3" y2="10"/>
<line fill="none" stroke="#231F20" stroke-width="0.101" stroke-miterlimit="10" x1="20.9" y1="10.6" x2="21.3" y2="11"/>
<line fill="none" stroke="#231F20" stroke-width="0.101" stroke-miterlimit="10" x1="19.9" y1="11.8" x2="20.3" y2="12.1"/>
<line fill="none" stroke="#231F20" stroke-width="0.101" stroke-miterlimit="10" x1="19" y1="13" x2="19.5" y2="13.3"/>
<line fill="none" stroke="#231F20" stroke-width="0.101" stroke-miterlimit="10" x1="18.3" y1="14.4" x2="18.8" y2="14.6"/>
<line fill="none" stroke="#231F20" stroke-width="0.101" stroke-miterlimit="10" x1="17.7" y1="15.8" x2="18.2" y2="16"/>
<line fill="none" stroke="#231F20" stroke-width="0.101" stroke-miterlimit="10" x1="17.2" y1="17.3" x2="17.8" y2="17.4"/>
<line fill="none" stroke="#231F20" stroke-width="0.101" stroke-miterlimit="10" x1="17" y1="18.8" x2="17.5" y2="18.8"/>
<line fill="none" stroke="#231F20" stroke-width="0.101" stroke-miterlimit="10" x1="16.8" y1="20.3" x2="17.4" y2="20.3"/>
<line fill="none" stroke="#231F20" stroke-width="0.101" stroke-miterlimit="10" x1="16.9" y1="21.8" x2="17.4" y2="21.8"/>
<line fill="none" stroke="#231F20" stroke-width="0.101" stroke-miterlimit="10" x1="17.1" y1="23.3" x2="17.6" y2="23.2"/>
<line fill="none" stroke="#231F20" stroke-width="0.101" stroke-miterlimit="10" x1="17.4" y1="24.8" x2="18" y2="24.7"/>
<line fill="none" stroke="#231F20" stroke-width="0.101" stroke-miterlimit="10" x1="17.9" y1="26.3" x2="18.5" y2="26"/>
<line fill="none" stroke="#231F20" stroke-width="0.101" stroke-miterlimit="10" x1="18.6" y1="27.7" x2="19.1" y2="27.4"/>
<line fill="none" stroke="#231F20" stroke-width="0.101" stroke-miterlimit="10" x1="19.4" y1="29" x2="19.9" y2="28.6"/>
<line fill="none" stroke="#231F20" stroke-width="0.101" stroke-miterlimit="10" x1="20.3" y1="30.2" x2="20.8" y2="29.8"/>
<line fill="none" stroke="#231F20" stroke-width="0.101" stroke-miterlimit="10" x1="21.4" y1="31.3" x2="21.8" y2="30.9"/>
<line fill="none" stroke="#231F20" stroke-width="0.101" stroke-miterlimit="10" x1="22.5" y1="32.3" x2="22.9" y2="31.8"/>
<line fill="none" stroke="#231F20" stroke-width="0.101" stroke-miterlimit="10" x1="23.8" y1="33.2" x2="24.1" y2="32.7"/>
<line fill="none" stroke="#231F20" stroke-width="0.101" stroke-miterlimit="10" x1="25.2" y1="33.9" x2="25.4" y2="33.4"/>
<line fill="none" stroke="#231F20" stroke-width="0.101" stroke-miterlimit="10" x1="26.6" y1="34.5" x2="26.7" y2="33.9"/>
<line fill="none" stroke="#231F20" stroke-width="0.101" stroke-miterlimit="10" x1="28" y1="34.9" x2="28.2" y2="34.3"/>
<line fill="none" stroke="#231F20" stroke-width="0.101" stroke-miterlimit="10" x1="29.5" y1="35.2" x2="29.6" y2="34.6"/>
<line fill="none" stroke="#231F20" stroke-width="0.101" stroke-miterlimit="10" x1="31.1" y1="35.3" x2="31.1" y2="34.7"/>
<line fill="none" stroke="#231F20" stroke-width="0.101" stroke-miterlimit="10" x1="32.6" y1="35.3" x2="32.5" y2="34.7"/>
<line fill="none" stroke="#231F20" stroke-width="0.101" stroke-miterlimit="10" x1="34.1" y1="35.1" x2="34" y2="34.5"/>
<line fill="none" stroke="#231F20" stroke-width="0.101" stroke-miterlimit="10" x1="35.6" y1="34.7" x2="35.4" y2="34.2"/>
<line fill="none" stroke="#231F20" stroke-width="0.101" stroke-miterlimit="10" x1="37.1" y1="34.2" x2="36.8" y2="33.7"/>
<line fill="none" stroke="#231F20" stroke-width="0.101" stroke-miterlimit="10" x1="38.4" y1="33.5" x2="38.2" y2="33"/>
<line fill="none" stroke="#231F20" stroke-width="0.101" stroke-miterlimit="10" x1="39.7" y1="32.7" x2="39.4" y2="32.3"/>
<line fill="none" stroke="#231F20" stroke-width="0.101" stroke-miterlimit="10" x1="41" y1="31.8" x2="40.6" y2="31.4"/>
<line fill="none" stroke="#231F20" stroke-width="0.101" stroke-miterlimit="10" x1="42.1" y1="30.8" x2="41.7" y2="30.4"/>
<line fill="none" stroke="#231F20" stroke-width="0.101" stroke-miterlimit="10" x1="43.1" y1="29.6" x2="42.6" y2="29.3"/>
<line fill="none" stroke="#231F20" stroke-width="0.101" stroke-miterlimit="10" x1="43.9" y1="28.3" x2="43.4" y2="28"/>
<line fill="none" stroke="#231F20" stroke-width="0.101" stroke-miterlimit="10" x1="44.7" y1="27" x2="44.2" y2="26.8"/>
<line fill="none" stroke="#231F20" stroke-width="0.101" stroke-miterlimit="10" x1="45.3" y1="25.6" x2="44.7" y2="25.4"/>
<line fill="none" stroke="#231F20" stroke-width="0.101" stroke-miterlimit="10" x1="45.7" y1="24.1" x2="45.1" y2="24"/>
<line fill="none" stroke="#231F20" stroke-width="0.101" stroke-miterlimit="10" x1="46" y1="22.6" x2="45.4" y2="22.5"/>
<line fill="none" stroke="#231F20" stroke-width="0.101" stroke-miterlimit="10" x1="46.1" y1="21.1" x2="45.5" y2="21.1"/>
<line fill="none" stroke="#231F20" stroke-width="0.101" stroke-miterlimit="10" x1="46.1" y1="19.5" x2="45.5" y2="19.6"/>
<line fill="none" stroke="#231F20" stroke-width="0.101" stroke-miterlimit="10" x1="45.9" y1="18" x2="45.3" y2="18.1"/>
<line fill="none" stroke="#231F20" stroke-width="0.101" stroke-miterlimit="10" x1="45.5" y1="16.5" x2="45" y2="16.7"/>
<line fill="none" stroke="#231F20" stroke-width="0.101" stroke-miterlimit="10" x1="45" y1="15.1" x2="44.5" y2="15.3"/>
<line fill="none" stroke="#231F20" stroke-width="0.101" stroke-miterlimit="10" x1="44.3" y1="13.7" x2="43.8" y2="14"/>
<line fill="none" stroke="#231F20" stroke-width="0.101" stroke-miterlimit="10" x1="43.5" y1="12.4" x2="43.1" y2="12.7"/>
<line fill="none" stroke="#231F20" stroke-width="0.101" stroke-miterlimit="10" x1="42.6" y1="11.2" x2="42.2" y2="11.6"/>
<line fill="none" stroke="#231F20" stroke-width="0.101" stroke-miterlimit="10" x1="41.5" y1="10.1" x2="41.2" y2="10.5"/>
<line fill="none" stroke="#231F20" stroke-width="0.101" stroke-miterlimit="10" x1="40.4" y1="9.1" x2="40" y2="9.5"/>
<line fill="none" stroke="#231F20" stroke-width="0.101" stroke-miterlimit="10" x1="39.1" y1="8.2" x2="38.8" y2="8.7"/>
<line fill="none" stroke="#231F20" stroke-width="0.101" stroke-miterlimit="10" x1="37.8" y1="7.5" x2="37.5" y2="8"/>
<line fill="none" stroke="#231F20" stroke-width="0.101" stroke-miterlimit="10" x1="36.4" y1="6.9" x2="36.2" y2="7.4"/>
<line fill="none" stroke="#231F20" stroke-width="0.101" stroke-miterlimit="10" x1="34.9" y1="6.4" x2="34.8" y2="7"/>
<line fill="none" stroke="#231F20" stroke-width="0.101" stroke-miterlimit="10" x1="33.4" y1="6.2" x2="33.3" y2="6.7"/>
<polygon fill="#231F20" points="32.8,11.1 32,11.1 32,10.6 31.5,10.6 31.5,11.1 30.6,11.1 30.6,12.1 31,12.1 31,12.8 32.5,12.8 
	32.5,12.1 32.8,12.1 "/>
<rect x="29.3" y="13.3" fill="#231F20" width="4.9" height="1.2"/>
<path fill="#231F20" d="M32.2,20.6c0,0.4-0.3,0.7-0.7,0.7c-0.4,0-0.7-0.3-0.7-0.7c0-0.4,0.3-0.7,0.7-0.7
	C31.9,19.9,32.2,20.2,32.2,20.6"/>
<line fill="none" stroke="#231F20" stroke-width="0.15" stroke-miterlimit="10" x1="33.1" y1="19" x2="22.8" y2="29.5"/>
<polygon fill="#231F20" points="33.3,18.1 33,19.1 34,18.8 "/>
<line fill="none" stroke="#231F20" stroke-width="0.424" stroke-miterlimit="10" x1="31.5" y1="20.6" x2="25.4" y2="16.2"/>
<polygon fill="#231F20" points="27.1,17 23.4,14.9 26.7,17.6 "/>
<path fill="#777475" d="M31.3,20.6c0,0.1,0.1,0.3,0.3,0.3s0.3-0.1,0.3-0.3c0-0.1-0.1-0.3-0.3-0.3S31.3,20.5,31.3,20.6"/>
<line fill="none" stroke="#231F20" stroke-width="0.318" stroke-miterlimit="10" x1="31.8" y1="20.5" x2="40.3" y2="14.7"/>
<polygon fill="#231F20" points="38.5,16.6 42.9,12.9 37.8,15.8 "/>
<rect x="29.3" y="27.8" fill="#231F20" width="4.5" height="0.8"/>
<rect x="31" y="7.1" fill="#656263" width="1.3" height="2.3"/>
<rect x="24.8" y="8.6" transform="matrix(0.8655 -0.5009 0.5009 0.8655 -1.452 14.0614)" fill="#656263" width="1.3" height="2.3"/>
<rect x="20.1" y="13.1" transform="matrix(0.5003 -0.8659 0.8659 0.5003 -1.8858 25.1222)" fill="#656263" width="1.3" height="2.3"/>
<rect x="17.9" y="19.7" fill="#656263" width="2.3" height="1.4"/>
<rect x="19.9" y="25.5" transform="matrix(-0.5013 -0.8652 0.8652 -0.5013 7.845 57.777)" fill="#656263" width="1.3" height="2.3"/>
<rect x="24.4" y="30.1" transform="matrix(-0.8656 -0.5008 0.5008 -0.8656 31.0377 70.8731)" fill="#656263" width="1.3" height="2.3"/>
<rect x="30.5" y="31.9" fill="#656263" width="1.4" height="2.3"/>
<rect x="36.8" y="30.4" transform="matrix(-0.8661 0.5 -0.5 -0.8661 85.6676 40.0861)" fill="#656263" width="1.3" height="2.3"/>
<rect x="41.4" y="25.9" transform="matrix(-0.5007 0.8656 -0.8656 -0.5007 86.6122 4.1598)" fill="#656263" width="1.4" height="2.3"/>
<rect x="42.8" y="20.2" fill="#656263" width="2.3" height="1.4"/>
<rect x="41.7" y="13.5" transform="matrix(0.4994 0.8664 -0.8664 0.4994 33.874 -29.3738)" fill="#656263" width="1.3" height="2.3"/>
<rect x="37.2" y="8.8" transform="matrix(0.8665 0.4991 -0.4991 0.8665 10.04 -17.5817)" fill="#656263" width="1.4" height="2.3"/>
<g opacity="0.5">
	<g>
		<defs>
			<rect id="SVGID_5_" x="13.6" y="2.5" width="35.8" height="35.8"/>
		</defs>
		<clipPath id="SVGID_6_">
			<use xlink:href="#SVGID_5_"  overflow="visible"/>
		</clipPath>
		<path clip-path="url(#SVGID_6_)" fill="#E5952E" d="M44.1,33.1c-3.3,3.3-7.9,5.3-12.6,5.3c-2.3,0-4.7-0.4-6.9-1.3
			c-2.2-0.9-4.2-2.2-5.8-3.9c-3.3-3.3-5.2-8-5.2-12.7c0-4.7,1.9-9.3,5.2-12.7c3.3-3.3,7.9-5.3,12.7-5.3c4.7,0,9.4,1.9,12.7,5.2
			c3.4,3.3,5.3,8,5.2,12.7C49.4,25.1,47.4,29.8,44.1,33.1 M44,33c3.3-3.3,5.2-7.9,5.1-12.6c0-4.6-2-9.2-5.2-12.5
			c-3.3-3.3-7.8-5.2-12.5-5.2c-4.6,0-9.2,1.8-12.5,5.1c-3.3,3.3-5.3,7.9-5.2,12.5c0,4.7,1.9,9.3,5.2,12.5c3.3,3.3,7.9,5.2,12.5,5.2
			C36.1,38.2,40.7,36.3,44,33"/>
	</g>
</g>
<g>
	<g>
		<defs>
			<rect id="SVGID_7_" x="18.5" y="2.3" width="31.4" height="31.3"/>
		</defs>
		<clipPath id="SVGID_8_">
			<use xlink:href="#SVGID_7_"  overflow="visible"/>
		</clipPath>
		<path clip-path="url(#SVGID_8_)" fill="#5E411A" d="M18.5,7.9c3.2-3.6,8-5.7,12.9-5.6c4.9,0.2,9.5,2.2,13,5.5
			c3.5,3.3,5.6,8.1,5.6,13c0,4.9-2.1,9.7-5.7,12.9l-0.1-0.1c3.2-3.5,5-8.2,4.9-12.8c0-2.3-0.4-4.6-1.3-6.8c-0.9-2.2-2.1-4.2-3.7-5.9
			c-1.6-1.7-3.6-3.1-5.8-4c-2.2-0.9-4.6-1.2-6.9-1.2C26.7,3,22.1,4.8,18.5,7.9L18.5,7.9z"/>
	</g>
</g>
<g>
	<g>
		<defs>
			<rect id="SVGID_9_" x="19" y="3.2" width="29.7" height="29.7"/>
		</defs>
		<clipPath id="SVGID_10_">
			<use xlink:href="#SVGID_9_"  overflow="visible"/>
		</clipPath>
		<path clip-path="url(#SVGID_10_)" fill="#5E411A" d="M19,8.4c3.1-3.3,7.7-5.2,12.3-5.2c4.6,0,9.1,1.9,12.3,5.1
			c3.3,3.2,5.2,7.7,5.2,12.3c0,4.6-1.9,9.1-5.2,12.3l0,0c1.6-1.6,2.8-3.6,3.7-5.6c0.8-2.1,1.3-4.3,1.3-6.6c0-4.5-1.8-9-5-12.2
			c-1.6-1.6-3.5-2.9-5.6-3.8c-2.1-0.8-4.4-1.3-6.6-1.3c-2.2,0-4.5,0.5-6.6,1.3C22.6,5.6,20.7,6.9,19,8.4L19,8.4z"/>
	</g>
</g>
<g>
	<g>
		<defs>
			<rect id="SVGID_11_" x="47.9" y="19.1" width="1.4" height="3.5"/>
		</defs>
		<clipPath id="SVGID_12_">
			<use xlink:href="#SVGID_11_"  overflow="visible"/>
		</clipPath>
		<path clip-path="url(#SVGID_12_)" fill="#A5957F" d="M49.3,22.4c0,0.1-0.1,0.1-0.1,0.1h-1.1c-0.1,0-0.2-0.1-0.2-0.1v-3.2
			c0-0.1,0.1-0.1,0.2-0.1h1.1c0.1,0,0.1,0.1,0.1,0.1V22.4z"/>
	</g>
</g>
<g>
	<g>
		<defs>
			<rect id="SVGID_13_" x="47.8" y="19" width="1.6" height="3.7"/>
		</defs>
		<clipPath id="SVGID_14_">
			<use xlink:href="#SVGID_13_"  overflow="visible"/>
		</clipPath>
		<path clip-path="url(#SVGID_14_)" fill="#EBD467" d="M49.3,22.4c0,0.1,0,0.1-0.1,0.2c-0.1,0-0.1,0-0.2,0l-0.4,0l-0.4,0
			c-0.1,0-0.3,0-0.4-0.2c0-0.6,0-1.1,0-1.7c0-0.6,0-1.1,0-1.7c0.1-0.2,0.3-0.2,0.4-0.2l0.4,0l0.4,0c0.1,0,0.1,0,0.2,0
			c0.1,0,0.1,0.1,0.1,0.2c0-0.2-0.1-0.2-0.3-0.2l-0.4,0c-0.3,0-0.6-0.1-0.7,0.1c0,0.5,0,1.1,0,1.7c0,0.5,0,1.1,0,1.7
			c0,0.1,0.2,0.1,0.3,0.1l0.4,0l0.4,0C49.2,22.6,49.3,22.6,49.3,22.4"/>
	</g>
</g>
<path fill="#EBD467" d="M50.6,22.2c0,0.1-0.1,0.2-0.2,0.2h-2.2c-0.1,0-0.2-0.1-0.2-0.2v-2.7c0-0.1,0.1-0.1,0.2-0.1h2.2
	c0.1,0,0.2,0.1,0.2,0.1V22.2z"/>
<path fill="#5E411A" d="M50.6,22.1v-2.5c-0.2,0.3-0.3,0.7-0.3,1.3C50.3,21.4,50.4,21.8,50.6,22.1"/>
<path fill="#EBD467" d="M53.2,19.2c0,0-0.1-0.4-0.4-0.4c0,0-0.3,0-0.3,0.3c0,0-0.2-0.3-0.9-0.3c0,0-1.1,0.1-1.1,2c0,1.9,1.1,2,1.1,2
	c0.7,0,0.9-0.3,0.9-0.3c0,0.3,0.3,0.3,0.3,0.3c0.3,0,0.4-0.4,0.4-0.4c0.2,0.1,0.5,0.1,0.5,0.1v-1.7v-1.7
	C53.7,19.1,53.4,19.1,53.2,19.2"/>
<g>
	<g>
		<defs>
			<rect id="SVGID_15_" x="52.4" y="19.5" width="0.2" height="2.5"/>
		</defs>
		<clipPath id="SVGID_16_">
			<use xlink:href="#SVGID_15_"  overflow="visible"/>
		</clipPath>
		<path clip-path="url(#SVGID_16_)" fill="#5E411A" d="M52.4,19.5c0.1,0.4,0,0.8,0.1,1.3c0,0.4,0,0.8-0.1,1.3
			c-0.1-0.4,0-0.8-0.1-1.3C52.4,20.4,52.4,20,52.4,19.5"/>
	</g>
</g>
<g>
	<g>
		<defs>
			<rect id="SVGID_17_" x="52.3" y="19.5" width="0.2" height="2.5"/>
		</defs>
		<clipPath id="SVGID_18_">
			<use xlink:href="#SVGID_17_"  overflow="visible"/>
		</clipPath>
		<path clip-path="url(#SVGID_18_)" fill="#5E411A" d="M52.4,19.5c0.1,0.4,0,0.8,0.1,1.3c0,0.4,0,0.8-0.1,1.3
			c-0.1-0.4,0-0.8-0.1-1.3C52.3,20.4,52.3,20,52.4,19.5"/>
	</g>
</g>
<g>
	<g>
		<defs>
			<rect id="SVGID_19_" x="51" y="19.2" width="0.7" height="3.1"/>
		</defs>
		<clipPath id="SVGID_20_">
			<use xlink:href="#SVGID_19_"  overflow="visible"/>
		</clipPath>
		<path clip-path="url(#SVGID_20_)" fill="#5E411A" d="M51.6,19.2c0,0.6,0,1.1,0,1.6c0,0.5,0,1,0,1.6c-0.4-0.4-0.7-1-0.7-1.6
			C51,20.2,51.2,19.6,51.6,19.2"/>
	</g>
</g>
<g>
	<g>
		<defs>
			<rect id="SVGID_21_" x="51.1" y="19.2" width="0.7" height="3.1"/>
		</defs>
		<clipPath id="SVGID_22_">
			<use xlink:href="#SVGID_21_"  overflow="visible"/>
		</clipPath>
		<path clip-path="url(#SVGID_22_)" fill="#5E411A" d="M51.8,19.2c0,0.6,0,1.1,0,1.6c0,0.5,0,1,0,1.6c-0.4-0.4-0.7-1-0.7-1.6
			C51.1,20.2,51.3,19.6,51.8,19.2"/>
	</g>
</g>
<path fill="#5E411A" d="M49.5,21.1c0,0.1-0.1,0.1-0.1,0.1h-0.9c-0.1,0-0.1-0.1-0.1-0.1v-0.4c0-0.1,0.1-0.1,0.1-0.1h0.9
	c0.1,0,0.1,0.1,0.1,0.1V21.1z"/>
<path fill="#DFAE57" d="M58.4,28.5c-2.4,0-3.5-1.9-3.8-2.9c-0.1-0.5,0.1-0.9,0.6-1c0.4-0.1,0.9,0.1,1,0.6c0.1,0.2,0.5,1.6,2.2,1.6
	s3.2-2.9,3.2-5.9c0-3-1.6-5.9-3.2-5.9c-1.6,0-2.1,1.5-2.2,1.6c-0.1,0.4-0.6,0.7-1,0.6c-0.4-0.1-0.7-0.6-0.6-1c0.3-1,1.4-2.9,3.8-2.9
	c2.9,0,4.9,3.9,4.9,7.6C63.3,24.5,61.3,28.5,58.4,28.5"/>
<path fill="#DFAE57" d="M56.2,25.2c0,0.1-0.1,0.2-0.2,0.2h-1.2c-0.1,0-0.2-0.1-0.2-0.2v-8.8c0-0.1,0.1-0.1,0.2-0.1H56
	c0.1,0,0.2,0.1,0.2,0.1V25.2z"/>
<g>
	<g>
		<defs>
			<rect id="SVGID_23_" x="55.4" y="16.3" width="0.3" height="9.1"/>
		</defs>
		<clipPath id="SVGID_24_">
			<use xlink:href="#SVGID_23_"  overflow="visible"/>
		</clipPath>
		<path clip-path="url(#SVGID_24_)" fill="#DFAE57" d="M55.7,25.2c0,0.1,0,0.2,0,0.2h-0.2c0,0,0-0.1,0-0.2v-8.8c0-0.1,0-0.1,0-0.1
			h0.2c0,0,0,0.1,0,0.1V25.2z"/>
	</g>
</g>
<path fill="#EBD467" d="M56.4,17.1c-0.2-0.4-0.6-0.4-0.6-0.4h-0.7c-0.5,0-0.4,0.1-0.9,0.3c-0.5,0.3-0.9,2.1-0.9,2.1v1.6v0.2v1.6
	c0,0,0.4,1.8,0.9,2.1c0.5,0.3,0.4,0.3,0.9,0.3h0.7c0,0,0.4,0,0.6-0.4c0.2-0.4,0.4-0.5,0.4-0.6v-3v-0.2v-3
	C56.8,17.7,56.7,17.5,56.4,17.1"/>
<g>
	<g>
		<defs>
			<rect id="SVGID_25_" x="54.7" y="17.5" width="0.9" height="6.7"/>
		</defs>
		<clipPath id="SVGID_26_">
			<use xlink:href="#SVGID_25_"  overflow="visible"/>
		</clipPath>
		<path clip-path="url(#SVGID_26_)" fill="#EBD467" d="M55.6,17.5c0,1.2-0.1,2.3-0.1,3.4c0,1.1,0.1,2.2,0.1,3.4
			c-0.7-1-0.9-2.2-0.9-3.4c0-0.6,0.1-1.2,0.2-1.8C55,18.5,55.2,17.9,55.6,17.5"/>
	</g>
</g>
<g>
	<g>
		<defs>
			<rect id="SVGID_27_" x="53.9" y="17.5" width="1.6" height="6.7"/>
		</defs>
		<clipPath id="SVGID_28_">
			<use xlink:href="#SVGID_27_"  overflow="visible"/>
		</clipPath>
		<path clip-path="url(#SVGID_28_)" fill="#EBD467" d="M55.6,17.5c-0.3,1.2-0.4,2.3-0.4,3.4c0,1.1,0.2,2.1,0.4,3.4
			c-1-0.8-1.6-2.1-1.6-3.4c0-0.7,0.1-1.3,0.4-1.9C54.6,18.3,55,17.8,55.6,17.5"/>
	</g>
</g>
<g>
	<g>
		<defs>
			<rect id="SVGID_29_" x="55" y="17.6" width="1" height="6.7"/>
		</defs>
		<clipPath id="SVGID_30_">
			<use xlink:href="#SVGID_29_"  overflow="visible"/>
		</clipPath>
		<path clip-path="url(#SVGID_30_)" fill="#DFAE57" d="M56,17.6c-0.3,1.1-0.4,2.2-0.4,3.4c0,1.1,0.2,2.2,0.4,3.4c-0.7-1-1-2.2-1-3.4
			C55,19.8,55.3,18.5,56,17.6"/>
	</g>
</g>
<g>
	<g>
		<defs>
			<rect id="SVGID_31_" x="55.4" y="13.8" width="7.3" height="14.1"/>
		</defs>
		<clipPath id="SVGID_32_">
			<use xlink:href="#SVGID_31_"  overflow="visible"/>
		</clipPath>
		<path clip-path="url(#SVGID_32_)" fill="#DFAE57" d="M55.4,25.3c0.4,0.9,1.2,1.7,2.2,1.9c1,0.3,1.9-0.1,2.6-0.8
			c1.5-1.4,2.2-3.6,2-5.6c-0.1-2-0.8-4.1-2.1-5.6c-0.7-0.7-1.6-1.1-2.6-0.8c-0.9,0.2-1.8,1-2.2,1.9l-0.1,0c0.2-1,1-2,2.1-2.4
			c0.5-0.2,1.1-0.2,1.7-0.1c0.6,0.1,1.1,0.5,1.5,0.9c0.8,0.8,1.3,1.8,1.6,2.9c0.3,1,0.4,2.1,0.4,3.2c-0.1,1.1-0.3,2.1-0.6,3.1
			c-0.3,1-0.7,2-1.5,2.9c-0.4,0.4-0.9,0.8-1.4,0.9c-0.6,0.2-1.2,0.1-1.7,0C56.4,27.4,55.6,26.4,55.4,25.3L55.4,25.3z"/>
	</g>
</g>
<g>
	<g>
		<defs>
			<rect id="SVGID_33_" x="55.3" y="14.1" width="1.5" height="2.1"/>
		</defs>
		<clipPath id="SVGID_34_">
			<use xlink:href="#SVGID_33_"  overflow="visible"/>
		</clipPath>
		<path clip-path="url(#SVGID_34_)" fill="#DFAE57" d="M55.3,16.2c0-0.5,0.1-0.9,0.4-1.4c0.1-0.2,0.3-0.4,0.5-0.5
			c0.2-0.1,0.4-0.2,0.7-0.2c-0.4,0.3-0.6,0.6-0.8,1C55.7,15.4,55.6,15.8,55.3,16.2"/>
	</g>
</g>
<g>
	<g>
		<defs>
			<rect id="SVGID_35_" x="54.7" y="16.3" width="1.4" height="0.2"/>
		</defs>
		<clipPath id="SVGID_36_">
			<use xlink:href="#SVGID_35_"  overflow="visible"/>
		</clipPath>
		<path clip-path="url(#SVGID_36_)" fill="#DFAE57" d="M56.1,16.4C56.1,16.4,56.1,16.5,56.1,16.4l-1.3,0.1c0,0-0.1,0-0.1-0.1
			c0,0,0-0.1,0.1-0.1L56.1,16.4C56.1,16.3,56.1,16.3,56.1,16.4"/>
	</g>
</g>
<g>
	<g>
		<defs>
			<rect id="SVGID_37_" x="54.7" y="25.2" width="1.4" height="0.2"/>
		</defs>
		<clipPath id="SVGID_38_">
			<use xlink:href="#SVGID_37_"  overflow="visible"/>
		</clipPath>
		<path clip-path="url(#SVGID_38_)" fill="#DFAE57" d="M56.1,25.3C56.1,25.3,56.1,25.4,56.1,25.3l-1.3,0.1c0,0-0.1,0-0.1-0.1
			s0-0.1,0.1-0.1L56.1,25.3C56.1,25.2,56.1,25.2,56.1,25.3"/>
	</g>
</g>
<g>
	<g>
		<defs>
			<rect id="SVGID_39_" x="60.2" y="20.8" width="2.7" height="6.3"/>
		</defs>
		<clipPath id="SVGID_40_">
			<use xlink:href="#SVGID_39_"  overflow="visible"/>
		</clipPath>
		<path clip-path="url(#SVGID_40_)" fill="#DFAE57" d="M62.9,20.8c0.1,1.2-0.1,2.4-0.5,3.6c-0.2,0.6-0.4,1.1-0.8,1.6
			c-0.3,0.5-0.8,0.9-1.4,1.1c1-0.7,1.5-1.8,1.9-2.9C62.5,23.2,62.7,22,62.9,20.8"/>
	</g>
</g>
<g>
	<g>
		<defs>
			<rect id="SVGID_41_" x="55.4" y="21.2" width="7.2" height="7"/>
		</defs>
		<clipPath id="SVGID_42_">
			<use xlink:href="#SVGID_41_"  overflow="visible"/>
		</clipPath>
		<path clip-path="url(#SVGID_42_)" fill="#5E411A" d="M55.4,25.7c0.5,0.9,1.3,1.6,2.2,1.9c0.4,0.2,1,0.3,1.5,0.2
			c0.5-0.1,0.9-0.5,1.2-0.9c0.6-0.8,1-1.7,1.3-2.7c0.3-1,0.6-2,0.8-3h0.1c0.2,1.1,0.1,2.2-0.2,3.2c-0.3,1-0.9,2-1.7,2.7
			c-0.8,0.7-1.9,1.2-3.1,1C56.3,27.9,55.5,26.8,55.4,25.7L55.4,25.7z"/>
	</g>
</g>
<path fill="#A77C39" d="M7.2,41.4c3.3,0,3.7-9.3,3.7-20.7C10.9,9.3,10.5,0,7.2,0L6,0C2.7,0,0,9.3,0,20.7c0,11.4,2.7,20.7,6,20.7
	L7.2,41.4z"/>
<path fill="#ECC57C" d="M3.2,20.7c0,11.4,2,20.7,4.5,20.7s4.5-9.3,4.5-20.7S10.2,0,7.7,0S3.2,9.3,3.2,20.7"/>
<g>
	<g>
		<defs>
			<rect id="SVGID_43_" x="3.2" y="20.7" width="9.1" height="20.7"/>
		</defs>
		<clipPath id="SVGID_44_">
			<use xlink:href="#SVGID_43_"  overflow="visible"/>
		</clipPath>
		<path clip-path="url(#SVGID_44_)" fill="#ECC57C" d="M7.7,41.4c2.5,0,4.5-9.3,4.5-20.7H3.2C3.2,32.1,5.2,41.4,7.7,41.4"/>
	</g>
</g>
<g>
	<g>
		<defs>
			<rect id="SVGID_45_" x="3.2" y="0" width="9.1" height="20.7"/>
		</defs>
		<clipPath id="SVGID_46_">
			<use xlink:href="#SVGID_45_"  overflow="visible"/>
		</clipPath>
		<path clip-path="url(#SVGID_46_)" fill="#EBD467" d="M7.7,0C5.2,0,3.2,9.3,3.2,20.7h9.1C12.3,9.3,10.2,0,7.7,0"/>
	</g>
</g>
<path fill="#DFAE57" d="M3.2,20.7c0,10.8,1.7,19.6,3.9,19.6s3.9-8.8,3.9-19.6c0-10.8-1.7-19.6-3.9-19.6S3.2,9.9,3.2,20.7"/>
<path fill="#B69C5B" d="M12.9,23.8c0,0.1-0.1,0.1-0.2,0.1h-0.8c-0.1,0-0.1-0.1-0.1-0.1v-6.1c0-0.1,0.1-0.1,0.1-0.1h0.8
	c0.1,0,0.2,0.1,0.2,0.1V23.8z"/>
<path fill="#EBD467" d="M13.1,22.9c0,0.1-0.1,0.1-0.2,0.1h-1.3c-0.1,0-0.1-0.1-0.1-0.1v-0.6c0-0.1,0.1-0.1,0.1-0.1h1.3
	c0.1,0,0.2,0.1,0.2,0.1V22.9z"/>
<path fill="#EBD467" d="M13.1,21c0,0.1-0.1,0.1-0.2,0.1h-1.3c-0.1,0-0.1-0.1-0.1-0.1v-0.6c0-0.1,0.1-0.1,0.1-0.1h1.3
	c0.1,0,0.2,0.1,0.2,0.1V21z"/>
<path fill="#EBD467" d="M13.1,19.1c0,0.1-0.1,0.1-0.1,0.1h-1.3c-0.1,0-0.2-0.1-0.2-0.1v-0.6c0-0.1,0.1-0.2,0.2-0.2h1.3
	c0.1,0,0.1,0.1,0.1,0.2V19.1z"/>
<g>
	<g>
		<defs>
			<rect id="SVGID_47_" x="12.3" y="22.1" width="0.5" height="0.9"/>
		</defs>
		<clipPath id="SVGID_48_">
			<use xlink:href="#SVGID_47_"  overflow="visible"/>
		</clipPath>
		<path clip-path="url(#SVGID_48_)" fill="#EBD467" d="M12.8,22.9c0,0.1,0,0.1,0,0.1h-0.4c0,0,0-0.1,0-0.1v-0.6c0-0.1,0-0.1,0-0.1
			h0.4c0,0,0,0.1,0,0.1V22.9z"/>
	</g>
</g>
<g>
	<g>
		<defs>
			<rect id="SVGID_49_" x="12.3" y="20.3" width="0.5" height="0.9"/>
		</defs>
		<clipPath id="SVGID_50_">
			<use xlink:href="#SVGID_49_"  overflow="visible"/>
		</clipPath>
		<path clip-path="url(#SVGID_50_)" fill="#EBD467" d="M12.8,21c0,0.1,0,0.1,0,0.1h-0.4c0,0,0-0.1,0-0.1v-0.6c0-0.1,0-0.1,0-0.1h0.4
			c0,0,0,0.1,0,0.1V21z"/>
	</g>
</g>
<g>
	<g>
		<defs>
			<rect id="SVGID_51_" x="12.3" y="18.4" width="0.5" height="0.9"/>
		</defs>
		<clipPath id="SVGID_52_">
			<use xlink:href="#SVGID_51_"  overflow="visible"/>
		</clipPath>
		<path clip-path="url(#SVGID_52_)" fill="#EBD467" d="M12.8,19.2c0,0.1,0,0.2,0,0.2h-0.4c0,0,0-0.1,0-0.2v-0.6c0-0.1,0-0.1,0-0.1
			h0.4c0,0,0,0.1,0,0.1V19.2z"/>
	</g>
</g>
</svg>
