<?xml version="1.0" encoding="utf-8"?>
<!-- Generator: Adobe Illustrator 15.0.2, SVG Export Plug-In . SVG Version: 6.00 Build 0)  -->
<!DOCTYPE svg PUBLIC "-//W3C//DTD SVG 1.1//EN" "http://www.w3.org/Graphics/SVG/1.1/DTD/svg11.dtd">
<svg version="1.1" id="Layer_1" xmlns="http://www.w3.org/2000/svg" xmlns:xlink="http://www.w3.org/1999/xlink" x="0px" y="0px"
	 width="25.7px" height="69.9px" viewBox="0 0 25.7 69.9" enable-background="new 0 0 25.7 69.9" xml:space="preserve">
<path fill="#9A1C1F" d="M23.9,7.5c0,1.6-4.9,3-11,3c-6.1,0-11-1.3-11-3H23.9z"/>
<rect x="3.9" y="11.6" fill="#A82526" width="17.9" height="46.9"/>
<rect x="3.7" y="58.5" fill="#231F20" width="18.3" height="1"/>
<rect x="3.5" y="59.4" fill="#231F20" width="18.6" height="10.4"/>
<path fill="#A82526" d="M22.5,10.4c0,0.2-0.2,0.5-0.4,0.5H3.6c-0.2,0-0.4-0.2-0.4-0.5c0-0.2,0.2-0.4,0.4-0.4h18.4
	C22.3,10,22.5,10.2,22.5,10.4"/>
<path fill="#A82526" d="M22,10.1c0,0.2-0.2,0.4-0.4,0.4H4.1c-0.2,0-0.4-0.2-0.4-0.4s0.2-0.4,0.4-0.4h17.5C21.8,9.7,22,9.9,22,10.1"
	/>
<path fill="#A82526" d="M21.5,9.9c0,0.2-0.2,0.4-0.4,0.4H4.6c-0.2,0-0.4-0.2-0.4-0.4c0-0.2,0.2-0.4,0.4-0.4h16.5
	C21.3,9.5,21.5,9.6,21.5,9.9"/>
<path fill="#9A1C1F" d="M12.9,10.9H3.6c0,0,0.2,0.2,0.2,0.8h9h9c0-0.5,0.2-0.8,0.2-0.8H12.9z"/>
<rect x="0.5" y="7" fill="#A82526" width="24.6" height="0.5"/>
<rect x="0" y="4.9" fill="#A82526" width="25.7" height="0.7"/>
<polygon fill="#A82526" points="12.9,5.6 12.9,5.6 0,5.6 0.5,7 12.9,7 25.2,7 25.7,5.6 "/>
<path fill="#C26767" d="M0.5,6.9l3.1-0.2l3.1-0.1c2.1-0.1,4.1,0,6.2-0.1c2.1,0,4.1,0,6.2,0.1l3.1,0.1l3.1,0.2v0L0.5,6.9L0.5,6.9z"/>
<polygon fill="#9A1C1F" points="12.9,5.6 0,5.6 0.1,6 25.6,6 25.7,5.6 "/>
<line fill="none" stroke="#B13B3C" stroke-width="0.783" stroke-linecap="round" stroke-miterlimit="10" x1="1.3" y1="6.8" x2="1.3" y2="6"/>
<line fill="none" stroke="#B13B3C" stroke-width="0.783" stroke-linecap="round" stroke-miterlimit="10" x1="22.8" y1="6" x2="22.8" y2="6.8"/>
<line fill="none" stroke="#B13B3C" stroke-width="0.783" stroke-linecap="round" stroke-miterlimit="10" x1="24.4" y1="6.8" x2="24.4" y2="6"/>
<line fill="none" stroke="#B13B3C" stroke-width="0.783" stroke-linecap="round" stroke-miterlimit="10" x1="21.1" y1="6.8" x2="21.1" y2="6"/>
<line fill="none" stroke="#B13B3C" stroke-width="0.783" stroke-linecap="round" stroke-miterlimit="10" x1="19.5" y1="6" x2="19.5" y2="6.8"/>
<line fill="none" stroke="#B13B3C" stroke-width="0.783" stroke-linecap="round" stroke-miterlimit="10" x1="4.6" y1="6.8" x2="4.6" y2="6"/>
<line fill="none" stroke="#B13B3C" stroke-width="0.783" stroke-linecap="round" stroke-miterlimit="10" x1="2.9" y1="6" x2="2.9" y2="6.8"/>
<line fill="none" stroke="#B13B3C" stroke-width="0.783" stroke-linecap="round" stroke-miterlimit="10" x1="9.5" y1="6.8" x2="9.5" y2="6"/>
<line fill="none" stroke="#B13B3C" stroke-width="0.783" stroke-linecap="round" stroke-miterlimit="10" x1="6.2" y1="6" x2="6.2" y2="6.8"/>
<line fill="none" stroke="#B13B3C" stroke-width="0.783" stroke-linecap="round" stroke-miterlimit="10" x1="17.8" y1="6.8" x2="17.8" y2="6"/>
<line fill="none" stroke="#B13B3C" stroke-width="0.783" stroke-linecap="round" stroke-miterlimit="10" x1="16.2" y1="6" x2="16.2" y2="6.8"/>
<line fill="none" stroke="#B13B3C" stroke-width="0.783" stroke-linecap="round" stroke-miterlimit="10" x1="14.5" y1="6.8" x2="14.5" y2="6"/>
<line fill="none" stroke="#B13B3C" stroke-width="0.783" stroke-linecap="round" stroke-miterlimit="10" x1="12.9" y1="6" x2="12.9" y2="6.8"/>
<line fill="none" stroke="#B13B3C" stroke-width="0.783" stroke-linecap="round" stroke-miterlimit="10" x1="11.2" y1="6.8" x2="11.2" y2="6"/>
<line fill="none" stroke="#B13B3C" stroke-width="0.783" stroke-linecap="round" stroke-miterlimit="10" x1="7.9" y1="6" x2="7.9" y2="6.8"/>
<path fill="#B13B3C" d="M0,4.9c0-2,5.7-3.7,12.8-3.7c7.1,0,12.8,1.7,12.8,3.7"/>
<path fill="#A82526" d="M13.6,0.7c0,0.4-0.3,0.7-0.7,0.7c-0.4,0-0.7-0.3-0.7-0.7S12.4,0,12.8,0C13.2,0,13.6,0.3,13.6,0.7"/>
<g opacity="0.5">
	<g>
		<defs>
			<rect id="SVGID_1_" x="0" y="0" width="12.8" height="69.9"/>
		</defs>
		<clipPath id="SVGID_2_">
			<use xlink:href="#SVGID_1_"  overflow="visible"/>
		</clipPath>
		<path clip-path="url(#SVGID_2_)" fill="#9A1C1F" d="M5,59.4v-1h0.1V11.6c0-0.5-0.2-0.8-0.2-0.8c-0.2,0-0.4-0.2-0.4-0.5
			S4.7,10,4.9,10H5c0-0.2,0.2-0.3,0.3-0.3h0.1c0.1-0.1,0.2-0.2,0.3-0.2h0.1c-1.5-0.5-2.5-1.2-2.5-2H2.2V6.9L1.8,5.6V4.9
			c0-2,4.7-3.6,10.6-3.7c-0.1-0.1-0.1-0.3-0.1-0.5c0-0.4,0.3-0.7,0.6-0.7c-0.4,0-0.7,0.3-0.7,0.7c0,0.2,0.1,0.3,0.2,0.5
			C5.5,1.3,0,2.9,0,4.9v0.7l0.5,1.4v0.5h1.3c0,0.8,1.1,1.5,2.9,2H4.6c-0.2,0-0.3,0.1-0.4,0.2H4.1c-0.2,0-0.3,0.1-0.4,0.3H3.6
			c-0.2,0-0.4,0.2-0.4,0.4s0.2,0.5,0.4,0.5c0,0,0.2,0.2,0.2,0.8v46.9H3.7v1H3.5v10.4h1.3V59.4H5z"/>
	</g>
</g>
<path fill="#656263" d="M3.5,59.4h18.6v0l-2.3,0.2l-2.3,0.1c-1.6,0.1-3.1,0-4.7,0.1c-1.6,0-3.1,0-4.7-0.1l-2.3-0.1L3.5,59.4
	L3.5,59.4z"/>
<g opacity="0.5">
	<g>
		<defs>
			<rect id="SVGID_3_" x="12.8" y="0" width="12.8" height="58.5"/>
		</defs>
		<clipPath id="SVGID_4_">
			<use xlink:href="#SVGID_3_"  overflow="visible"/>
		</clipPath>
		<path clip-path="url(#SVGID_4_)" fill="#B52126" d="M22,58.5h-0.2V11.6c0-0.5,0.2-0.8,0.2-0.8c0.2,0,0.5-0.2,0.5-0.4
			c0-0.2-0.2-0.5-0.5-0.5H22c-0.1-0.2-0.2-0.3-0.4-0.3h-0.1c-0.1-0.1-0.2-0.2-0.4-0.2H21c1.8-0.5,2.9-1.2,2.9-2h1.3V6.9l0.5-1.4V4.9
			c0-2-5.5-3.6-12.3-3.7c0.1-0.1,0.2-0.3,0.2-0.5c0-0.4-0.3-0.7-0.7-0.7h0c0.3,0,0.6,0.3,0.6,0.7c0,0.2-0.1,0.3-0.1,0.5
			c5.9,0.1,10.6,1.7,10.6,3.7v0.7l-0.5,1.4v0.5h-1.1c0,0.8-0.9,1.5-2.5,2H20c0.1,0,0.3,0.1,0.3,0.2h0.1c0.2,0,0.3,0.1,0.3,0.3h0.1
			c0.2,0,0.4,0.2,0.4,0.5c0,0.2-0.2,0.4-0.4,0.4c0,0-0.2,0.2-0.2,0.8v46.9h0.2v0L22,58.5L22,58.5z"/>
	</g>
</g>
<g>
	<g>
		<defs>
			<rect id="SVGID_5_" x="20.7" y="58.5" width="1.4" height="11.4"/>
		</defs>
		<clipPath id="SVGID_6_">
			<use xlink:href="#SVGID_5_"  overflow="visible"/>
		</clipPath>
		<polygon clip-path="url(#SVGID_6_)" fill="#231F20" points="22,59.4 22,58.5 20.7,58.5 20.7,59.4 20.9,59.4 20.9,69.9 22.1,69.9 
			22.1,59.4 		"/>
	</g>
</g>
<g opacity="0.35">
	<g>
		<defs>
			<rect id="SVGID_7_" x="0" width="12.9" height="69.9"/>
		</defs>
		<clipPath id="SVGID_8_">
			<use xlink:href="#SVGID_7_"  overflow="visible"/>
		</clipPath>
		<g clip-path="url(#SVGID_8_)">
			<g>
				<defs>
					<rect id="SVGID_9_" x="11.5" y="1.2" width="0.9" height="0.1"/>
				</defs>
				<clipPath id="SVGID_10_">
					<use xlink:href="#SVGID_9_"  overflow="visible"/>
				</clipPath>
				<path clip-path="url(#SVGID_10_)" fill="#9A1C1F" d="M11.5,1.2c0.3,0,0.6,0,0.9,0c0,0,0,0,0,0c-0.1,0-0.1,0-0.2,0c0,0,0,0,0,0
					c-0.1,0-0.1,0-0.2,0C11.9,1.2,11.7,1.2,11.5,1.2"/>
			</g>
		</g>
		<g clip-path="url(#SVGID_8_)">
			<g>
				<defs>
					<rect id="SVGID_11_" x="12.7" y="0" width="0.2" height="0"/>
				</defs>
				<clipPath id="SVGID_12_">
					<use xlink:href="#SVGID_11_"  overflow="visible"/>
				</clipPath>
				<path clip-path="url(#SVGID_12_)" fill="#9A1C1F" d="M12.8,0C12.8,0,12.8,0,12.8,0c0,0-0.1,0-0.1,0c0,0,0,0-0.1,0
					C12.7,0,12.8,0,12.8,0"/>
			</g>
		</g>
		<g clip-path="url(#SVGID_8_)">
			<g>
				<defs>
					<path id="SVGID_13_" d="M12.9,0L12.9,0z"/>
				</defs>
				<clipPath id="SVGID_14_">
					<use xlink:href="#SVGID_13_"  overflow="visible"/>
				</clipPath>
			</g>
		</g>
		<g clip-path="url(#SVGID_8_)">
			<g>
				<defs>
					<rect id="SVGID_15_" x="0" width="12.8" height="69.9"/>
				</defs>
				<clipPath id="SVGID_16_">
					<use xlink:href="#SVGID_15_"  overflow="visible"/>
				</clipPath>
				<path clip-path="url(#SVGID_16_)" fill="#9A1C1F" d="M6.4,59.4L6.4,59.4l0.1,0v-0.9h0v0h0.1V11.6c0-0.5-0.2-0.7-0.2-0.7
					c-0.2,0-0.3-0.2-0.3-0.5c0-0.1,0-0.1,0-0.2c0-0.2,0.2-0.3,0.3-0.3h0.1c0,0,0,0,0,0c0-0.1,0.1-0.2,0.3-0.2h0.1
					c0-0.1,0.1-0.2,0.3-0.2h0c-1.2-0.5-2-1.2-2-2H4.3V7L3.9,5.6V4.9c0-0.1,0-0.2,0-0.3c0.3-1.8,3.5-3.2,7.6-3.4c-0.2,0-0.4,0-0.6,0
					c0.4,0,0.9,0,1.4-0.1c0,0,0,0,0,0c0.1,0,0.1,0,0.2,0c-0.1-0.1-0.1-0.3-0.1-0.4c0-0.1,0-0.1,0-0.2c0-0.3,0.2-0.5,0.4-0.5
					c0,0-0.1,0-0.1,0C12.7,0,12.8,0,12.8,0l0,0h0h0h0h0c-0.3,0-0.6,0.2-0.7,0.6c0,0.1,0,0.1,0,0.2c0,0.2,0.1,0.3,0.2,0.4
					C5.7,1.2,0.4,2.7,0,4.6c0,0.1,0,0.2,0,0.3v0.7L0.5,7v0.5h1.3c0,0.8,1.1,1.5,2.8,2h0c-0.2,0-0.3,0.1-0.4,0.2H4.1
					C4,9.7,3.8,9.8,3.8,9.9c0,0,0,0,0,0H3.6c-0.2,0-0.4,0.1-0.4,0.3c0,0.1,0,0.1,0,0.2c0,0.2,0.2,0.5,0.4,0.5c0,0,0.2,0.2,0.2,0.7
					v46.8H3.7v0h0v0.9H3.5v0h0v10.4h2.8L6.4,59.4L6.4,59.4z"/>
			</g>
		</g>
		<g clip-path="url(#SVGID_8_)">
			<g>
				<defs>
					<path id="SVGID_17_" d="M12.8,0L12.8,0L12.8,0z"/>
				</defs>
				<clipPath id="SVGID_18_">
					<use xlink:href="#SVGID_17_"  overflow="visible"/>
				</clipPath>
				<rect x="12.8" y="0" clip-path="url(#SVGID_18_)" fill="#9A1C1F" width="0" height="0"/>
			</g>
		</g>
		<g clip-path="url(#SVGID_8_)">
			<g>
				<defs>
					<rect id="SVGID_19_" x="12.8" width="0" height="0"/>
				</defs>
				<clipPath id="SVGID_20_">
					<use xlink:href="#SVGID_19_"  overflow="visible"/>
				</clipPath>
				<polygon clip-path="url(#SVGID_20_)" fill="#9A1C1F" points="12.8,0 12.8,0 12.8,0 				"/>
			</g>
		</g>
	</g>
</g>
<g opacity="0.2">
	<g>
		<defs>
			<rect id="SVGID_21_" x="12.8" y="0" width="12.8" height="58.5"/>
		</defs>
		<clipPath id="SVGID_22_">
			<use xlink:href="#SVGID_21_"  overflow="visible"/>
		</clipPath>
		<path clip-path="url(#SVGID_22_)" fill="#B52126" d="M25.7,4.9L25.7,4.9c0-2-5.5-3.6-12.3-3.7c0.1-0.1,0.1-0.2,0.1-0.3
			c0,0,0,0,0,0c0,0,0-0.1,0-0.1c0,0,0,0,0,0c0,0,0,0,0,0c0-0.4-0.3-0.7-0.7-0.7c0,0,0,0,0,0c0.1,0,0.2,0,0.2,0.1c0,0-0.1,0-0.1,0
			c0.2,0.1,0.4,0.4,0.4,0.7c0,0,0,0,0,0v0c0,0,0,0.1,0,0.1c0,0,0,0,0,0c0,0.1,0,0.2-0.1,0.3c0.1,0,0.1,0,0.2,0c0,0,0,0,0,0
			c0.5,0,0.9,0,1.4,0.1c-0.2,0-0.4,0-0.6,0c4.3,0.3,7.6,1.8,7.6,3.7v0h0v0.7L21.7,6l-0.3,1v0.5h-0.9c0,0.8-0.7,1.5-2,2h0
			c0.1,0,0.1,0,0.2,0.1c0,0,0,0.1,0.1,0.1h0.1c0.1,0,0.1,0,0.2,0.1c0,0,0.1,0.1,0.1,0.2h0.1c0.1,0,0.2,0.1,0.2,0.1
			c0.1,0.1,0.1,0.2,0.1,0.3c0,0.2-0.1,0.4-0.3,0.4c0,0-0.2,0.2-0.2,0.7v46.8h0.1v0h0H22h0v0h-0.2V11.6c0-0.5,0.2-0.7,0.2-0.7
			c0.2,0,0.4-0.2,0.4-0.4c0-0.1-0.1-0.2-0.1-0.3C22.3,10,22.2,10,22,10H22c0-0.1-0.1-0.1-0.1-0.2c-0.1-0.1-0.2-0.1-0.3-0.1h-0.1
			c0,0-0.1-0.1-0.1-0.1c-0.1-0.1-0.2-0.1-0.3-0.1h0c1.8-0.5,2.8-1.2,2.8-2h1.3V7h0l0.4-1l0.1-0.4L25.7,4.9L25.7,4.9z"/>
	</g>
</g>
<g>
	<g>
		<defs>
			<rect id="SVGID_23_" x="19.2" y="58.5" width="3" height="11.4"/>
		</defs>
		<clipPath id="SVGID_24_">
			<use xlink:href="#SVGID_23_"  overflow="visible"/>
		</clipPath>
		<polygon clip-path="url(#SVGID_24_)" fill="#231F20" points="19.2,59.4 19.3,59.4 19.3,59.4 19.3,59.4 19.3,69.9 22.2,69.9 
			22.2,59.4 22.1,59.4 22.1,59.4 22,59.4 22,58.5 19.2,58.5 		"/>
	</g>
</g>
<rect x="5" y="10.9" fill="#AC3031" width="15.7" height="1.2"/>
<path fill="#AC3031" d="M20.9,11.8c0,0.2-0.1,0.3-0.3,0.3H5.1c-0.2,0-0.3-0.1-0.3-0.3c0-0.2,0.1-0.3,0.3-0.3h15.5
	C20.8,11.5,20.9,11.6,20.9,11.8"/>
<g>
	<g>
		<defs>
			<rect id="SVGID_25_" x="5.1" y="11.4" width="15.6" height="0.1"/>
		</defs>
		<clipPath id="SVGID_26_">
			<use xlink:href="#SVGID_25_"  overflow="visible"/>
		</clipPath>
		<polygon clip-path="url(#SVGID_26_)" fill="#A82526" points="5.1,11.5 12.9,11.4 20.7,11.5 20.7,11.5 5.1,11.5 		"/>
	</g>
</g>
<g>
	<g>
		<defs>
			<rect id="SVGID_27_" x="5.1" y="12.1" width="15.6" height="0.8"/>
		</defs>
		<clipPath id="SVGID_28_">
			<use xlink:href="#SVGID_27_"  overflow="visible"/>
		</clipPath>
		<path clip-path="url(#SVGID_28_)" fill="#A82526" d="M20.7,12.1c0,0.4-3.5,0.8-7.8,0.8c-4.3,0-7.8-0.3-7.8-0.8"/>
	</g>
</g>
<rect x="11.7" y="12.2" fill="#D3D2D2" width="2.3" height="2.3"/>
<rect x="11.7" y="12.2" fill="none" stroke="#231F20" stroke-width="0.107" stroke-miterlimit="10" width="2.3" height="2.3"/>
<g>
	<g>
		<defs>
			<rect id="SVGID_29_" x="7.7" y="16" width="10.4" height="3.3"/>
		</defs>
		<clipPath id="SVGID_30_">
			<use xlink:href="#SVGID_29_"  overflow="visible"/>
		</clipPath>
		<path clip-path="url(#SVGID_30_)" fill="#9A1C1F" d="M12.9,16L12.9,16H7.7v3.3c0,0,1-1.5,2.2-1.5h2.9h0h2.9c1.2,0,2.2,1.5,2.2,1.5
			V16H12.9z"/>
	</g>
</g>
<g>
	<g>
		<defs>
			<rect id="SVGID_31_" x="7.7" y="16" width="10.4" height="2.2"/>
		</defs>
		<clipPath id="SVGID_32_">
			<use xlink:href="#SVGID_31_"  overflow="visible"/>
		</clipPath>
		<path clip-path="url(#SVGID_32_)" fill="#9A1C1F" d="M12.9,16L12.9,16H7.7v2.2c0,0,1-1,2.2-1h2.9h0h2.9c1.2,0,2.2,1,2.2,1V16H12.9
			z"/>
	</g>
</g>
<g>
	<g>
		<defs>
			<rect id="SVGID_33_" x="7.7" y="16" width="10.4" height="1.2"/>
		</defs>
		<clipPath id="SVGID_34_">
			<use xlink:href="#SVGID_33_"  overflow="visible"/>
		</clipPath>
		<path clip-path="url(#SVGID_34_)" fill="#9A1C1F" d="M12.9,16L12.9,16H7.7v1.2c0,0,1-0.5,2.2-0.5h2.9h0h2.9c1.2,0,2.2,0.5,2.2,0.5
			V16H12.9z"/>
	</g>
</g>
<rect x="7.6" y="15.5" fill="none" stroke="#A93E41" stroke-width="0.379" stroke-miterlimit="10" width="10.6" height="4"/>
<rect x="7" y="15.2" fill="#B13B3C" width="11.6" height="0.6"/>
<g>
	<g>
		<defs>
			<rect id="SVGID_35_" x="7.6" y="19.7" width="10.5" height="0.3"/>
		</defs>
		<clipPath id="SVGID_36_">
			<use xlink:href="#SVGID_35_"  overflow="visible"/>
		</clipPath>
		<path clip-path="url(#SVGID_36_)" fill="#9A1C1F" d="M18,19.7c0,0.2-2.3,0.3-5.2,0.3c-2.9,0-5.2-0.2-5.2-0.3"/>
	</g>
</g>
<rect x="7" y="15.8" fill="#9A1C1F" width="11.6" height="0.2"/>
<polygon fill="#A43335" points="8.7,21.7 8.7,33.9 12.8,27.8 "/>
<g>
	<g>
		<defs>
			<rect id="SVGID_37_" x="8.7" y="21.7" width="8.2" height="6.1"/>
		</defs>
		<clipPath id="SVGID_38_">
			<use xlink:href="#SVGID_37_"  overflow="visible"/>
		</clipPath>
		<polygon clip-path="url(#SVGID_38_)" fill="#9A1C1F" points="16.9,21.7 8.7,21.7 12.8,27.8 		"/>
	</g>
</g>
<g>
	<g>
		<defs>
			<rect id="SVGID_39_" x="8.7" y="27.8" width="8.2" height="6.1"/>
		</defs>
		<clipPath id="SVGID_40_">
			<use xlink:href="#SVGID_39_"  overflow="visible"/>
		</clipPath>
		<polygon clip-path="url(#SVGID_40_)" fill="#9A1C1F" points="8.7,33.9 16.9,33.9 12.8,27.8 		"/>
	</g>
</g>
<polygon fill="#A43335" points="12.8,27.8 16.9,33.9 16.9,21.7 "/>
<rect x="9" y="22.3" fill="#FBFAF3" width="7.5" height="11"/>
<polygon fill="#9E2528" points="21,39.4 18.7,39.8 18.7,36.3 21,35.9 "/>
<g>
	<g>
		<defs>
			<rect id="SVGID_41_" x="19" y="36.1" width="1.8" height="0.3"/>
		</defs>
		<clipPath id="SVGID_42_">
			<use xlink:href="#SVGID_41_"  overflow="visible"/>
		</clipPath>
		<path clip-path="url(#SVGID_42_)" fill="#9A1C1F" d="M19,36.5c0.3-0.1,0.6-0.2,0.9-0.2c0.3,0,0.6-0.1,0.9-0.1l0,0L19,36.5L19,36.5
			z"/>
	</g>
</g>
<path fill="#231F20" d="M20,37.4c0-0.3-0.2-0.5-0.4-0.5s-0.4,0.2-0.4,0.5c0,0.2,0.1,0.4,0.2,0.5v0.7c0,0.1,0,0.1,0.1,0.1
	c0.1,0,0.1,0,0.1-0.1v-0.6C19.9,37.8,20,37.6,20,37.4"/>
<g>
	<g>
		<defs>
			<rect id="SVGID_43_" x="18.7" y="39.4" width="2.3" height="0.4"/>
		</defs>
		<clipPath id="SVGID_44_">
			<use xlink:href="#SVGID_43_"  overflow="visible"/>
		</clipPath>
		<path clip-path="url(#SVGID_44_)" fill="#9A1C1F" d="M21,39.4c0,0.1-0.5,0.3-1.1,0.4c-0.6,0.1-1.2,0.1-1.2,0"/>
	</g>
</g>
<g>
	<g>
		<defs>
			<rect id="SVGID_45_" x="19.3" y="36.7" width="1" height="2.3"/>
		</defs>
		<clipPath id="SVGID_46_">
			<use xlink:href="#SVGID_45_"  overflow="visible"/>
		</clipPath>
		<path clip-path="url(#SVGID_46_)" fill="#9A1C1F" d="M20.2,37.4c0-0.4-0.2-0.7-0.5-0.7c-0.3,0-0.5,0.3-0.5,0.7
			c0,0.3,0.1,0.5,0.2,0.6v0.9c0,0.1,0.1,0.1,0.2,0.1c0.1,0,0.1-0.1,0.1-0.1V38C20.1,37.9,20.2,37.7,20.2,37.4"/>
	</g>
</g>
<g>
	<g>
		<defs>
			<rect id="SVGID_47_" x="19.7" y="36.7" width="0.6" height="2.3"/>
		</defs>
		<clipPath id="SVGID_48_">
			<use xlink:href="#SVGID_47_"  overflow="visible"/>
		</clipPath>
		<path clip-path="url(#SVGID_48_)" fill="#9A1C1F" d="M19.8,36.7C19.8,36.7,19.8,36.7,19.8,36.7c0.2,0,0.4,0.3,0.4,0.7
			c0,0.3-0.2,0.6-0.4,0.6v0.8c0,0.1,0,0.1-0.1,0.1c0,0,0,0,0,0c0.1,0,0.1-0.1,0.1-0.1V38c0.2-0.1,0.4-0.3,0.4-0.6
			C20.3,37,20.1,36.7,19.8,36.7"/>
	</g>
</g>
<g>
	<g>
		<defs>
			<rect id="SVGID_49_" x="18.8" y="36.7" width="0.1" height="2.9"/>
		</defs>
		<clipPath id="SVGID_50_">
			<use xlink:href="#SVGID_49_"  overflow="visible"/>
		</clipPath>
		
			<line clip-path="url(#SVGID_50_)" fill="none" stroke="#9A1C1F" stroke-width="0.107" stroke-miterlimit="10" x1="18.9" y1="36.7" x2="18.9" y2="39.5"/>
	</g>
</g>
</svg>
