<?xml version="1.0" encoding="utf-8"?>
<!-- Generator: Adobe Illustrator 15.0.2, SVG Export Plug-In . SVG Version: 6.00 Build 0)  -->
<!DOCTYPE svg PUBLIC "-//W3C//DTD SVG 1.1//EN" "http://www.w3.org/Graphics/SVG/1.1/DTD/svg11.dtd">
<svg version="1.1" id="Layer_1" xmlns="http://www.w3.org/2000/svg" xmlns:xlink="http://www.w3.org/1999/xlink" x="0px" y="0px"
	 width="62.5px" height="53.5px" viewBox="0 0 62.5 53.5" enable-background="new 0 0 62.5 53.5" xml:space="preserve">
<rect y="0.5" fill="#C78962" width="62.5" height="47.9"/>
<rect y="48.4" fill="#8B4D47" width="62.5" height="5.1"/>
<rect x="3" fill="#DEDDDE" width="56.4" height="43.2"/>
<rect x="3" y="42.8" fill="#BDBCBC" width="56.4" height="3.5"/>
<rect x="3" y="43.5" fill="#7B7979" width="56.4" height="2.2"/>
<rect x="3" y="43.3" fill="#444142" width="56.4" height="0.4"/>
<rect x="5.2" y="44.1" fill="#E9E9E9" width="3.7" height="1.9"/>
<rect x="5.2" y="44.1" fill="#F4F4F4" width="3.7" height="0.7"/>
<rect x="40.4" y="44.1" fill="#E9E9E9" width="3.7" height="1.9"/>
<rect x="40.4" y="44.1" fill="#F4F4F4" width="3.7" height="0.7"/>
<rect x="44.7" y="44.1" fill="#E9E9E9" width="3.7" height="1.9"/>
<rect x="44.7" y="44.1" fill="#F4F4F4" width="3.7" height="0.7"/>
<rect x="49.4" y="44.1" fill="#E9E9E9" width="3.7" height="1.9"/>
<rect x="49.4" y="44.1" fill="#F4F4F4" width="3.7" height="0.7"/>
<rect x="53.5" y="44.1" fill="#E9E9E9" width="3.7" height="1.9"/>
<rect x="53.5" y="44.1" fill="#F4F4F4" width="3.7" height="0.7"/>
<polygon fill="#DEDDDE" points="25.1,45.3 20.8,45.3 20.8,44.1 "/>
<polygon fill="#868484" points="20.8,44.1 25.1,44.1 25.1,45.3 "/>
<rect x="21.5" y="44.1" fill="#444142" width="3" height="0.8"/>
<path fill="#706D6E" d="M43.7,21.1c0,10.3-8.4,18.7-18.7,18.7c-10.3,0-18.7-8.4-18.7-18.7S14.7,2.4,25,2.4
	C35.4,2.4,43.7,10.7,43.7,21.1"/>
<path fill="#2E2A2B" d="M42.9,19.9c0,9.9-8,17.9-17.9,17.9s-17.9-8-17.9-17.9S15.1,2,25,2S42.9,10.1,42.9,19.9"/>
<g opacity="0.4">
	<g>
		<defs>
			<rect id="SVGID_1_" x="10.3" y="5.2" width="29.3" height="29.5"/>
		</defs>
		<clipPath id="SVGID_2_">
			<use xlink:href="#SVGID_1_"  overflow="visible"/>
		</clipPath>
		<path clip-path="url(#SVGID_2_)" fill="#7B7979" d="M39.7,19.9c0,0,0,0.4,0,1c0,0.3-0.1,0.8-0.1,1.2c-0.1,0.5-0.2,1-0.3,1.6
			c-0.3,1.2-0.9,2.7-1.8,4.1c-1,1.5-2.3,3-4.1,4.2c-1.8,1.2-4,2.1-6.5,2.4c-2.5,0.3-5.1-0.1-7.6-1.2c-1.2-0.5-2.4-1.3-3.5-2.2
			c-1.1-0.9-2-2-2.8-3.1c-0.8-1.2-1.4-2.5-1.8-3.9c-0.4-1.4-0.6-2.8-0.6-4.3c0-1.4,0.2-2.9,0.6-4.3c0.4-1.4,1-2.7,1.8-3.9
			c0.8-1.2,1.7-2.2,2.8-3.1c1.1-0.9,2.2-1.6,3.5-2.2c2.5-1.1,5.2-1.5,7.6-1.2c2.5,0.3,4.7,1.2,6.5,2.4c1.8,1.2,3.1,2.7,4.1,4.2
			c1,1.5,1.5,2.9,1.8,4.1c0.2,0.6,0.3,1.2,0.3,1.6c0.1,0.5,0.1,0.9,0.1,1.2C39.7,19.6,39.7,19.9,39.7,19.9 M39.6,19.9
			c0,0,0-0.4-0.1-1c0-0.3-0.1-0.7-0.1-1.2c-0.1-0.5-0.2-1-0.4-1.6c-0.3-1.2-0.9-2.6-1.9-4.1c-1-1.4-2.3-2.9-4.1-4.1
			c-1.8-1.2-4-2-6.4-2.3c-2.4-0.3-5.1,0.1-7.5,1.1c-1.2,0.5-2.4,1.3-3.4,2.1c-1.1,0.9-2,1.9-2.8,3.1c-0.8,1.2-1.4,2.5-1.8,3.8
			c-0.4,1.4-0.6,2.8-0.6,4.2c0,1.4,0.2,2.9,0.6,4.2c0.4,1.4,1,2.7,1.8,3.8c0.8,1.2,1.7,2.2,2.8,3.1c1.1,0.9,2.2,1.6,3.5,2.1
			c2.4,1.1,5.1,1.4,7.5,1.1c2.4-0.3,4.6-1.2,6.4-2.3c1.8-1.2,3.1-2.7,4.1-4.1c1-1.4,1.5-2.9,1.9-4.1c0.2-0.6,0.3-1.1,0.4-1.6
			c0.1-0.5,0.1-0.9,0.1-1.2C39.6,20.3,39.6,19.9,39.6,19.9"/>
		<path clip-path="url(#SVGID_2_)" fill="#7B7979" d="M25,7.4c0,0,0.3,0,0.9,0c0.3,0,0.6,0,1.1,0.1c0.4,0,0.9,0.2,1.4,0.3
			c1,0.3,2.3,0.7,3.5,1.6c1.3,0.8,2.6,2,3.6,3.5c1,1.5,1.8,3.5,2.1,5.6c0.2,2.1-0.1,4.4-1,6.5c-0.5,1.1-1.1,2.1-1.9,3
			c-0.8,0.9-1.7,1.7-2.7,2.4c-1,0.7-2.1,1.2-3.3,1.6c-1.2,0.4-2.4,0.5-3.6,0.6c-1.2,0-2.5-0.2-3.7-0.5c-1.2-0.4-2.3-0.9-3.3-1.5
			c-1-0.7-1.9-1.5-2.7-2.4c-0.8-0.9-1.4-1.9-1.9-3c-0.9-2.1-1.2-4.4-1-6.6c0.2-2.1,1-4,2.1-5.6c1-1.5,2.3-2.7,3.6-3.5
			c1.3-0.8,2.5-1.3,3.5-1.6c0.5-0.1,1-0.2,1.4-0.3c0.4-0.1,0.8-0.1,1.1-0.1C24.7,7.4,25,7.4,25,7.4 M25,7.4c0,0-0.3,0-0.9,0.1
			c-0.3,0-0.6,0.1-1.1,0.1c-0.4,0-0.9,0.2-1.4,0.3c-1,0.3-2.3,0.8-3.5,1.6c-1.2,0.8-2.5,2-3.5,3.5c-1,1.5-1.7,3.4-2,5.5
			c-0.2,2.1,0.1,4.3,1,6.4c0.5,1,1.1,2,1.8,2.9c0.8,0.9,1.7,1.7,2.6,2.4c1,0.7,2.1,1.2,3.3,1.6c1.2,0.4,2.4,0.5,3.6,0.6
			c1.2,0,2.4-0.2,3.6-0.5c1.2-0.4,2.3-0.9,3.3-1.5c1-0.7,1.9-1.5,2.7-2.4c0.7-0.9,1.4-1.9,1.8-3c0.9-2.1,1.2-4.4,1-6.5
			c-0.3-2.1-1-4-2-5.5c-1-1.5-2.3-2.7-3.5-3.5c-1.2-0.8-2.5-1.3-3.5-1.6c-0.5-0.1-1-0.3-1.4-0.3c-0.4-0.1-0.8-0.1-1.1-0.1
			C25.3,7.4,25,7.4,25,7.4"/>
		<path clip-path="url(#SVGID_2_)" fill="#7B7979" d="M17.7,27.3c0,0-0.2-0.2-0.5-0.5c-0.2-0.2-0.3-0.4-0.6-0.7
			c-0.2-0.3-0.4-0.6-0.7-1c-0.4-0.8-0.9-1.8-1.2-3c-0.3-1.2-0.3-2.7-0.1-4.2c0.3-1.5,1-3.1,2.1-4.5c1.1-1.4,2.6-2.5,4.5-3.2
			c0.9-0.4,1.9-0.5,2.9-0.6c1-0.1,2,0,3,0.2c1,0.2,2,0.6,2.9,1c0.9,0.5,1.7,1.1,2.5,1.8c0.7,0.7,1.4,1.6,1.9,2.5
			c0.5,0.9,0.8,1.9,1.1,2.9c0.2,1,0.3,2,0.2,3c-0.1,1-0.3,2-0.7,2.9c-0.7,1.8-1.9,3.4-3.3,4.5c-1.4,1.1-3,1.8-4.5,2.1
			c-1.5,0.3-3,0.2-4.2-0.1c-1.2-0.3-2.2-0.7-3-1.2c-0.4-0.2-0.7-0.4-1-0.7c-0.3-0.2-0.5-0.4-0.7-0.6C17.8,27.5,17.7,27.3,17.7,27.3
			 M17.7,27.3c0,0,0.2,0.2,0.5,0.5c0.2,0.2,0.4,0.3,0.7,0.5c0.3,0.2,0.6,0.4,1,0.6c0.8,0.4,1.8,0.9,3,1.1c1.2,0.2,2.6,0.3,4.1,0
			c1.5-0.3,3-1,4.4-2.1c1.4-1.1,2.5-2.6,3.2-4.4c0.4-0.9,0.5-1.8,0.7-2.8c0.1-1,0-2-0.2-2.9c-0.2-1-0.5-1.9-1-2.8
			c-0.5-0.9-1.1-1.7-1.8-2.4c-0.7-0.7-1.5-1.3-2.4-1.8c-0.9-0.5-1.9-0.8-2.8-1c-2-0.4-4-0.2-5.8,0.5C19.5,11,18,12.2,17,13.5
			c-1.1,1.4-1.7,2.9-2.1,4.4c-0.3,1.5-0.3,2.9,0,4.1c0.2,1.2,0.7,2.2,1.1,3c0.2,0.4,0.4,0.7,0.6,1c0.2,0.3,0.4,0.5,0.5,0.7
			C17.5,27.1,17.7,27.3,17.7,27.3"/>
	</g>
</g>
<path fill="#696767" d="M31.9,19.9c0,3.8-3.1,6.9-6.9,6.9c-3.8,0-6.9-3.1-6.9-6.9c0-3.8,3.1-6.9,6.9-6.9
	C28.9,13,31.9,16.1,31.9,19.9"/>
<path fill="#EBAC9B" d="M31,19.9c0,3.3-2.7,5.9-5.9,5.9c-3.3,0-5.9-2.7-5.9-5.9c0-3.3,2.7-5.9,5.9-5.9C28.3,14,31,16.7,31,19.9"/>
<path fill="#6B6E6B" d="M25.1,19H25c-0.3,0-0.5,0.2-0.5,0.5v0.7c0,0.1,0.3,0.2,0.6,0.2s0.6-0.1,0.6-0.2v-0.7
	C25.6,19.2,25.4,19,25.1,19"/>
<path fill="#827F80" d="M9.3,3.6c0-0.1,0-0.2-0.1-0.3C8.9,2.4,8.1,1.8,7.1,1.8c-0.8,0-1.6,0.5-1.9,1.2C5.1,3.1,5.1,3.3,5,3.4
	C5,3.6,5,3.8,5,4C5,4.1,5,4.3,5,4.5c0,0.2,0.1,0.3,0.2,0.5c0.4,0.7,1.1,1.2,1.9,1.2c1,0,1.8-0.7,2.1-1.6c0-0.1,0-0.2,0.1-0.3
	c0-0.1,0-0.2,0-0.3C9.3,3.8,9.3,3.7,9.3,3.6"/>
<path fill="#B2B1B1" d="M7.1,3.6L7.1,3.6l2.1-0.7C8.9,2.1,8.1,1.4,7.1,1.4c-0.8,0-1.6,0.5-1.9,1.2L7.1,3.6L7.1,3.6z"/>
<path fill="#B2B1B1" d="M5.2,4.6c0.4,0.7,1.1,1.2,1.9,1.2c1,0,1.8-0.7,2.1-1.6L7.1,3.6L5.2,4.6z"/>
<polygon fill="#B2B1B1" points="7.1,3.6 7.1,3.6 7.1,3.6 7.1,3.6 "/>
<path fill="#7B7979" d="M9.3,3.3c0-0.1,0-0.2-0.1-0.3l-2,0.7L9.3,3.3z"/>
<path fill="#CDCBCC" d="M7.1,3.6l-1.9-1C5.1,2.8,5.1,2.9,5,3.1L7.1,3.6z"/>
<path fill="#939192" d="M7.1,3.6L5,4.1c0,0.2,0.1,0.3,0.2,0.5L7.1,3.6L7.1,3.6z"/>
<path fill="#D3D2D2" d="M7.1,3.6L7.1,3.6l2.1,0.6c0-0.1,0-0.2,0.1-0.3L7.1,3.6z"/>
<polygon fill="#B2B1B1" points="7.1,3.6 7.1,3.6 7.1,3.6 "/>
<polygon fill="#B2B1B1" points="7.1,3.6 7.1,3.6 7.2,3.6 "/>
<path fill="#DCDBDB" d="M5,3.1C5,3.3,5,3.4,5,3.6C5,3.8,5,3.9,5,4.1l2.1-0.5l0,0L5,3.1z"/>
<path fill="#DCDBDB" d="M7.1,3.6l2.1,0.3c0-0.1,0-0.2,0-0.3c0-0.1,0-0.2,0-0.3L7.1,3.6L7.1,3.6z"/>
<rect x="44.2" y="2.9" fill="#7B7979" width="13.2" height="14.5"/>
<rect x="44.8" y="2.9" fill="#C8C7C7" width="12.6" height="13.8"/>
<path fill="none" stroke="#F0EFEF" stroke-width="0.866" stroke-miterlimit="10" d="M50.3,11.6l-4.4,12.6c0,0-0.6,2.6-5.1,5
	c-4.5,2.4-7.9,4.3-7.9,4.3"/>
<polygon fill="#F0EFEF" points="32.5,33.7 33.3,35.1 36.6,33.2 36.8,32.4 40.9,30.2 40.9,29.1 33.2,33.4 "/>
<polygon fill="#F0EFEF" points="32.5,33.8 31.8,32.4 35.1,30.6 35.9,30.9 39.9,28.6 40.9,29.1 33.2,33.4 "/>
<path fill="#676465" d="M33.1,32.6c0,0.2-0.2,0.3-0.3,0.3c-0.2,0-0.3-0.2-0.3-0.3c0-0.2,0.2-0.3,0.3-0.3
	C32.9,32.3,33.1,32.4,33.1,32.6"/>
<path fill="#676465" d="M33.9,34.1c0,0.2-0.2,0.3-0.3,0.3c-0.2,0-0.3-0.2-0.3-0.3c0-0.2,0.2-0.3,0.3-0.3
	C33.7,33.8,33.9,33.9,33.9,34.1"/>
<polygon fill="#676465" points="48.6,9.2 51.5,13.6 53.2,12.7 53.2,10.1 51.8,8.4 49.8,8.1 48.4,8.9 "/>
<path fill="#676465" d="M55,12.1c0,0.7,0.6,1.3,1.3,1.3c0.7,0,1.3-0.6,1.3-1.3s-0.6-1.3-1.3-1.3C55.6,10.8,55,11.4,55,12.1"/>
<path fill="none" stroke="#676465" stroke-width="0.866" stroke-miterlimit="10" d="M46.1,11.1c0,0,0.6,3.1,1.5,3.7"/>
</svg>
