<?xml version="1.0" encoding="utf-8"?>
<!-- Generator: Adobe Illustrator 15.0.2, SVG Export Plug-In . SVG Version: 6.00 Build 0)  -->
<!DOCTYPE svg PUBLIC "-//W3C//DTD SVG 1.1//EN" "http://www.w3.org/Graphics/SVG/1.1/DTD/svg11.dtd">
<svg version="1.1" id="Layer_1" xmlns="http://www.w3.org/2000/svg" xmlns:xlink="http://www.w3.org/1999/xlink" x="0px" y="0px"
	 width="21px" height="68.1px" viewBox="0 0 21 68.1" enable-background="new 0 0 21 68.1" xml:space="preserve">
<path fill="#9A1C1F" d="M0.9,66.3l9.5-0.1l9.5,0.1v0.2c-1.6,0.7-3.2,1-4.8,1.3c-0.8,0.1-1.6,0.2-2.4,0.3c-0.8,0.1-1.6,0.1-2.4,0.1
	c-0.8,0-1.6,0-2.4-0.1c-0.8-0.1-1.6-0.1-2.4-0.3c-1.6-0.2-3.2-0.6-4.8-1.3V66.3z"/>
<path fill="#B52126" d="M21,63.3V38.4c0,0-0.2-2.6-0.5-3.8c-0.3-1.2-4-13.8-4-13.8s-0.8-3.5-0.8-5.6c0-2-0.5-9-0.5-9
	s0.5-0.2,0.5-0.6c0-0.4-1.2-0.8-1.2-0.8V4.2h-4.1H6.4v0.7c0,0-1.2,0.4-1.2,0.8c0,0.4,0.5,0.6,0.5,0.6s-0.5,7-0.5,9
	c0,2-0.8,5.6-0.8,5.6s-3.7,12.6-4,13.8C0.2,35.9,0,38.4,0,38.4v24.9c0,0-0.2,2.1,0.6,3.3c0.8,1.1,9.9,0.8,9.9,0.8s9.1,0.3,9.9-0.8
	C21.2,65.4,21,63.3,21,63.3"/>
<g>
	<g>
		<defs>
			<rect id="SVGID_1_" x="0.9" y="66.7" width="19.1" height="0.9"/>
		</defs>
		<clipPath id="SVGID_2_">
			<use xlink:href="#SVGID_1_"  overflow="visible"/>
		</clipPath>
		<path clip-path="url(#SVGID_2_)" fill="#9A1C1F" d="M0.9,66.7l9.5,0l9.5,0v0.1c-0.8,0.2-1.6,0.3-2.4,0.4l-2.4,0.2
			c-1.6,0.1-3.2,0.2-4.8,0.2c-1.6,0-3.2,0-4.8-0.2l-2.4-0.2C2.5,67.1,1.7,67,0.9,66.7L0.9,66.7z"/>
	</g>
</g>
<g opacity="0.5">
	<g>
		<defs>
			<rect id="SVGID_3_" x="10.3" y="4.2" width="10.8" height="35.2"/>
		</defs>
		<clipPath id="SVGID_4_">
			<use xlink:href="#SVGID_3_"  overflow="visible"/>
		</clipPath>
		<path clip-path="url(#SVGID_4_)" fill="#9A1C1F" d="M16.6,20.9c0,0-0.8-3.5-0.8-5.6c0-2-0.5-9-0.5-9s0.5-0.2,0.5-0.6
			c0-0.4-1.2-0.8-1.2-0.8V4.2h-4.1h-0.3L10.5,5V30c0,0-0.1,6.4,1.5,7.1c0,0,3.7,0.9,3.7,2.3c0,0,0.2-1.9,3-1.9s1.9,1.9,1.9,1.9
			l0.4-0.4v-0.6c0,0-0.2-2.6-0.5-3.8C20.3,33.5,16.6,20.9,16.6,20.9"/>
	</g>
</g>
<path fill="#A5A3A3" d="M15.2,1H5.8H5.6H5.2v1.1v1.8c0,0.3,0.2,0.5,0.4,0.5h9.8c0.2,0,0.4-0.2,0.4-0.5V1H15.2z"/>
<path fill="#FFFFFF" d="M15.6,0.4c0-0.2-0.7-0.4-1-0.4H6.4c-0.3,0-1,0.2-1,0.4L5.2,0.9h10.7L15.6,0.4z"/>
<path fill="#E9E9E9" d="M15.2,0.9H5.8H5.6H5.2v1.1v1.8c0,0.3,0.2,0.5,0.4,0.5h9.8c0.2,0,0.4-0.2,0.4-0.5V0.9H15.2z"/>
<g>
	<g>
		<defs>
			<rect id="SVGID_5_" x="6.4" y="4.4" width="8.1" height="0.4"/>
		</defs>
		<clipPath id="SVGID_6_">
			<use xlink:href="#SVGID_5_"  overflow="visible"/>
		</clipPath>
		<path clip-path="url(#SVGID_6_)" fill="#9A1C1F" d="M6.4,4.4c2.7,0,5.4,0,8.1,0v0c-0.7,0.2-1.4,0.2-2,0.3c-0.7,0.1-1.4,0.1-2,0.1
			c-0.7,0-1.4,0-2-0.1C7.8,4.6,7.1,4.6,6.4,4.4L6.4,4.4z"/>
	</g>
</g>
<path fill="#FFFFFF" d="M5.1,61.1L2.6,46.2h0.1c0.1,0,0.1,0,0.2,0c0.5,0,0.9-0.2,1.2-0.6c0.3-0.4,0.4-1,0.3-1.8l-0.3-1.3
	c0,0,0.1-0.1,0.2-0.1l0.2-0.1c1.1-0.6,2.6-1.4,6.2-1.4c3.7,0,5.2,0.8,6.2,1.4l0.2,0.1c0.1,0,0.1,0.1,0.2,0.1l-0.3,1.3
	c-0.2,0.7-0.1,1.3,0.3,1.8c0.3,0.4,0.7,0.6,1.2,0.6c0.1,0,0.1,0,0.2,0h0.1l-2.5,14.9H5.1z"/>
<path fill="#597F5C" d="M10.7,42c3.1,0,4.5,0.6,5.4,1.1l-0.1,0.6c-0.3,1.3,0.1,2.2,0.5,2.6c0.3,0.4,0.7,0.7,1.2,0.8l-2.2,13h-4.8H6
	l-2.2-13C4.3,47,4.7,46.7,5,46.3c0.4-0.5,0.8-1.3,0.5-2.6l-0.1-0.6C6.3,42.6,7.6,42,10.7,42 M10.7,39.9c-4.2,0-5.8,1.1-7,1.7
	c-1.1,0.6-0.6,1.3-0.6,1.3l0.3,1.2c0.2,0.9-0.3,1-0.5,1c-0.1,0-0.1,0-0.1,0H2.1c-0.7,0-0.6,0.6-0.6,0.6l2.7,16.4h6.5h6.5L20,45.8
	c0,0,0.1-0.6-0.6-0.6h-0.7c0,0,0,0-0.1,0c-0.2,0-0.7-0.1-0.5-1l0.3-1.2c0,0,0.5-0.7-0.6-1.3C16.6,40.9,15,39.9,10.7,39.9"/>
<path fill="#FFFFFF" d="M10.7,41.8c3.3,0,4.7,0.7,5.7,1.2l-0.2,0.7c-0.3,1.2,0.1,2,0.4,2.5c0.3,0.4,0.7,0.7,1.2,0.8l-2.2,13.3h-4.9
	H5.8L3.6,47c0.5-0.1,0.9-0.4,1.2-0.8c0.4-0.4,0.7-1.2,0.4-2.5L5.1,43C6.1,42.5,7.5,41.8,10.7,41.8 M10.7,39.9c-4.2,0-5.8,1.1-7,1.7
	c-1.1,0.6-0.6,1.3-0.6,1.3l0.3,1.2c0.2,0.9-0.3,1-0.5,1c-0.1,0-0.1,0-0.1,0H2.1c-0.7,0-0.6,0.6-0.6,0.6l2.7,16.4h6.5h6.5L20,45.8
	c0,0,0.1-0.6-0.6-0.6h-0.7c0,0,0,0-0.1,0c-0.2,0-0.7-0.1-0.5-1l0.3-1.2c0,0,0.5-0.7-0.6-1.3C16.6,40.9,15,39.9,10.7,39.9"/>
<path fill="#B69C5B" d="M10.7,41.4c3.5,0,5,0.8,6,1.4l0,0l-0.2,0.9c-0.3,1.1,0.1,1.8,0.4,2.2c0.3,0.4,0.8,0.7,1.3,0.8l-2.3,13.9
	h-5.2H5.6L3.2,46.7c0.5-0.1,1-0.3,1.3-0.8c0.3-0.4,0.6-1.1,0.4-2.2l-0.2-0.9l0,0C5.8,42.2,7.2,41.4,10.7,41.4 M10.7,39.9
	c-4.2,0-5.8,1.1-7,1.7c-1.1,0.6-0.6,1.3-0.6,1.3l0.3,1.2c0.2,0.9-0.3,1-0.5,1c-0.1,0-0.1,0-0.1,0H2.1c-0.7,0-0.6,0.6-0.6,0.6
	l2.7,16.4h6.5h6.5L20,45.8c0,0,0.1-0.6-0.6-0.6h-0.7c0,0,0,0-0.1,0c-0.2,0-0.7-0.1-0.5-1l0.3-1.2c0,0,0.5-0.7-0.6-1.3
	C16.6,40.9,15,39.9,10.7,39.9"/>
<path fill="#FFFFFF" d="M10.7,40.8c3.7,0,5.2,0.8,6.3,1.5l0.2,0.1c0.1,0.1,0.2,0.1,0.2,0.1l0,0.2l-0.3,1.2c-0.2,0.7-0.1,1.3,0.2,1.7
	c0.3,0.3,0.7,0.5,1.2,0.5c0.1,0,0.1,0,0.2,0H19l-2.5,15.1h-5.7H5L2.5,46.1h0.2c0.1,0,0.1,0,0.2,0c0.5,0,0.9-0.2,1.2-0.5
	c0.3-0.4,0.4-1,0.2-1.7L4,42.7l0-0.2c0,0,0.1-0.1,0.2-0.1l0.2-0.1C5.5,41.7,7,40.8,10.7,40.8 M10.7,39.9c-4.2,0-5.8,1.1-7,1.7
	c-1.1,0.6-0.6,1.3-0.6,1.3l0.3,1.2c0.2,0.9-0.3,1-0.5,1c-0.1,0-0.1,0-0.1,0H2.1c-0.7,0-0.6,0.6-0.6,0.6l2.7,16.4h6.5h6.5L20,45.8
	c0,0,0.1-0.6-0.6-0.6h-0.7c0,0,0,0-0.1,0c-0.2,0-0.7-0.1-0.5-1l0.3-1.2c0,0,0.5-0.7-0.6-1.3C16.6,40.9,15,39.9,10.7,39.9"/>
<g>
	<defs>
		<path id="SVGID_7_" d="M10.5,4.2H6.4v0.7c0,0-1.2,0.4-1.2,0.8c0,0.4,0.5,0.6,0.5,0.6s-0.5,7-0.5,9c0,2-0.8,5.6-0.8,5.6
			s-3.7,12.6-4,13.8C0.2,35.9,0,38.4,0,38.4v24.9c0,0-0.2,2.1,0.6,3.3c0.8,1.1,9.9,0.8,9.9,0.8s9.1,0.3,9.9-0.8
			c0.8-1.1,0.6-3.3,0.6-3.3V38.4c0,0-0.2-2.6-0.5-3.8c-0.3-1.2-4-13.8-4-13.8s-0.8-3.5-0.8-5.6c0-2-0.5-9-0.5-9s0.5-0.2,0.5-0.6
			c0-0.4-1.2-0.8-1.2-0.8V4.2H10.5z"/>
	</defs>
	<clipPath id="SVGID_8_">
		<use xlink:href="#SVGID_7_"  overflow="visible"/>
	</clipPath>
	<rect x="2.6" y="7.8" clip-path="url(#SVGID_8_)" fill="#FFFFFF" width="15.8" height="7.6"/>
	<rect x="2.6" y="8.8" clip-path="url(#SVGID_8_)" fill="#597F5C" width="15.8" height="0.5"/>
	<rect x="2.6" y="8.1" clip-path="url(#SVGID_8_)" fill="#BCA66D" width="15.8" height="0.5"/>
	<rect x="2.6" y="14" clip-path="url(#SVGID_8_)" fill="#597F5C" width="15.8" height="0.5"/>
	<rect x="2.6" y="14.7" clip-path="url(#SVGID_8_)" fill="#BCA66D" width="15.8" height="0.5"/>
	<path clip-path="url(#SVGID_8_)" fill="#FFFFFF" d="M14.8,11.9c0,2.3-1.9,4.1-4.3,4.1c-2.4,0-4.3-1.8-4.3-4.1s1.9-4.1,4.3-4.1
		C12.9,7.8,14.8,9.7,14.8,11.9"/>
	<path clip-path="url(#SVGID_8_)" fill="#BCA66D" d="M10.5,8.8c1.8,0,3.4,1.4,3.4,3.2c0,1.7-1.5,3.2-3.4,3.2c-1.9,0-3.4-1.4-3.4-3.2
		C7.2,10.2,8.7,8.8,10.5,8.8 M10.5,8.3c-2.1,0-3.8,1.6-3.8,3.6c0,2,1.7,3.6,3.8,3.6c2.1,0,3.8-1.6,3.8-3.6
		C14.3,10,12.6,8.3,10.5,8.3"/>
	<path clip-path="url(#SVGID_8_)" fill="#597F5C" d="M10.5,9.6c1.4,0,2.5,1,2.5,2.3s-1.1,2.3-2.5,2.3c-1.4,0-2.5-1-2.5-2.3
		S9.2,9.6,10.5,9.6 M10.5,9.3c-1.5,0-2.8,1.2-2.8,2.6s1.2,2.6,2.8,2.6c1.5,0,2.8-1.2,2.8-2.6S12,9.3,10.5,9.3"/>
</g>
</svg>
