<?xml version="1.0" encoding="utf-8"?>
<!-- Generator: Adobe Illustrator 15.0.2, SVG Export Plug-In . SVG Version: 6.00 Build 0)  -->
<!DOCTYPE svg PUBLIC "-//W3C//DTD SVG 1.1//EN" "http://www.w3.org/Graphics/SVG/1.1/DTD/svg11.dtd">
<svg version="1.1" id="Layer_1" xmlns="http://www.w3.org/2000/svg" xmlns:xlink="http://www.w3.org/1999/xlink" x="0px" y="0px"
	 width="58.4px" height="52.5px" viewBox="0 0 58.4 52.5" enable-background="new 0 0 58.4 52.5" xml:space="preserve">
<rect x="5.8" y="33.4" fill="#C8C7C7" width="4.3" height="12.5"/>
<path fill="#C8C7C7" d="M5.4,35.8h5.1c0.1,0,0.2,0.1,0.3,0.1c0,0,0-0.1,0-0.1c0-0.2-0.1-0.3-0.3-0.3H5.4c-0.2,0-0.3,0.1-0.3,0.3
	c0,0.1,0,0.1,0,0.1C5.2,35.9,5.3,35.8,5.4,35.8"/>
<path fill="#C8C7C7" d="M10.4,36.4L10.4,36.4c0.1,0,0.2,0.1,0.2,0.1c0,0,0.1-0.1,0.1-0.1c0,0,0-0.1-0.1-0.1
	C10.6,36.4,10.5,36.4,10.4,36.4"/>
<path fill="#C8C7C7" d="M10.5,37c0.1,0,0.2,0.1,0.2,0.1c0,0,0.1-0.1,0.1-0.2c0-0.1,0-0.1-0.1-0.1C10.6,36.9,10.6,37,10.5,37"/>
<path fill="#C8C7C7" d="M5.4,36.1h5.1c0.1,0,0.2-0.1,0.3-0.1c-0.1-0.1-0.1-0.1-0.3-0.1H5.4c-0.1,0-0.2,0.1-0.3,0.1
	C5.2,36.1,5.3,36.1,5.4,36.1"/>
<path fill="#656263" d="M10.5,36.1L10.5,36.1H5.4h0c-0.1,0-0.2,0.1-0.2,0.2c0.1,0.1,0.1,0.1,0.2,0.1h5.1c0.1,0,0.2-0.1,0.2-0.1
	C10.6,36.2,10.6,36.1,10.5,36.1"/>
<path fill="#C8C7C7" d="M10.5,36.4L10.5,36.4H5.4h0c-0.1,0-0.2,0.1-0.2,0.1c0,0.1,0.1,0.1,0.2,0.1h5.1c0.1,0,0.2-0.1,0.2-0.1
	C10.6,36.5,10.6,36.4,10.5,36.4"/>
<path fill="#656263" d="M10.5,36.7H5.4c-0.1,0-0.2,0.1-0.2,0.2c0,0.1,0.1,0.1,0.2,0.1h5.1c0.1,0,0.2-0.1,0.2-0.1
	C10.6,36.8,10.6,36.7,10.5,36.7"/>
<path fill="#C8C7C7" d="M10.5,37H5.4c-0.1,0-0.2,0.1-0.2,0.1c0,0.1,0.1,0.1,0.2,0.1h5.1c0.1,0,0.2-0.1,0.2-0.1
	C10.6,37.1,10.6,37,10.5,37"/>
<polygon fill="#9C9A9B" points="18.7,33.7 14.7,44.9 9.6,45.2 9.6,33.1 "/>
<g>
	<g>
		<defs>
			<rect id="SVGID_1_" x="9.6" y="32.1" width="0.9" height="12.5"/>
		</defs>
		<clipPath id="SVGID_2_">
			<use xlink:href="#SVGID_1_"  overflow="visible"/>
		</clipPath>
		<rect x="9.6" y="32.1" clip-path="url(#SVGID_2_)" fill="#918F90" width="0.9" height="12.5"/>
	</g>
</g>
<rect x="37.2" y="32.8" fill="#C8C7C7" width="4.3" height="12.5"/>
<path fill="#C8C7C7" d="M36.8,35.2h5.1c0.1,0,0.2,0.1,0.3,0.1c0,0,0-0.1,0-0.1c0-0.2-0.1-0.3-0.3-0.3h-5.1c-0.2,0-0.3,0.1-0.3,0.3
	c0,0.1,0,0.1,0,0.1C36.6,35.3,36.7,35.2,36.8,35.2"/>
<path fill="#C8C7C7" d="M41.9,35.8L41.9,35.8c0.1,0,0.2,0.1,0.2,0.1c0,0,0.1-0.1,0.1-0.2c0,0,0-0.1-0.1-0.1
	C42.1,35.7,42,35.8,41.9,35.8"/>
<path fill="#C8C7C7" d="M41.9,36.4c0.1,0,0.2,0.1,0.2,0.1c0,0,0.1-0.1,0.1-0.1c0-0.1,0-0.1-0.1-0.1C42.1,36.3,42,36.4,41.9,36.4"/>
<path fill="#C8C7C7" d="M36.8,35.5h5.1c0.1,0,0.2-0.1,0.3-0.1c-0.1-0.1-0.1-0.1-0.3-0.1h-5.1c-0.1,0-0.2,0.1-0.3,0.1
	C36.6,35.4,36.7,35.5,36.8,35.5"/>
<path fill="#656263" d="M41.9,35.5L41.9,35.5h-5.1h0c-0.1,0-0.2,0.1-0.2,0.2c0.1,0.1,0.1,0.1,0.2,0.1h5.1c0.1,0,0.2-0.1,0.2-0.1
	C42.1,35.6,42,35.5,41.9,35.5"/>
<path fill="#C8C7C7" d="M41.9,35.8L41.9,35.8h-5.1h0c-0.1,0-0.2,0.1-0.2,0.1c0.1,0.1,0.1,0.1,0.2,0.1h5.1c0.1,0,0.2-0.1,0.2-0.1
	C42.1,35.9,42,35.8,41.9,35.8"/>
<path fill="#656263" d="M41.9,36.1h-5.1c-0.1,0-0.2,0.1-0.2,0.1c0,0.1,0.1,0.1,0.2,0.1h5.1c0.1,0,0.2-0.1,0.2-0.1
	C42.1,36.1,42,36.1,41.9,36.1"/>
<path fill="#C8C7C7" d="M41.9,36.4h-5.1c-0.1,0-0.2,0.1-0.2,0.1c0.1,0.1,0.1,0.1,0.2,0.1h5.1c0.1,0,0.2-0.1,0.2-0.1
	C42.1,36.4,42,36.4,41.9,36.4"/>
<polygon fill="#9C9A9B" points="50.1,33.1 46.1,44.3 41.1,44.5 41.1,32.4 "/>
<g>
	<g>
		<defs>
			<rect id="SVGID_3_" x="41.1" y="31.5" width="0.9" height="12.5"/>
		</defs>
		<clipPath id="SVGID_4_">
			<use xlink:href="#SVGID_3_"  overflow="visible"/>
		</clipPath>
		<rect x="41.1" y="31.5" clip-path="url(#SVGID_4_)" fill="#918F90" width="0.9" height="12.5"/>
	</g>
</g>
<path fill="#252A26" d="M0.8,30c0,0-1.4,2.8-0.6,4.4C1,36,2.3,35.7,3.7,35.7c1.4,0,50.3,0,50.3,0s0.4-1.5,0-2
	C53.7,33.2,2.2,29,2.2,29L0.8,30z"/>
<path fill="#00587E" d="M56.6,28.4c-1.8-3.1-5.7-8.4-16.1-6.6c0,0-5.9,0.5-9.8-5.2c-3.9-5.7-9.7-15.7-9.5-15.7h-3.9H6.5L1.8,13.2
	c0,0-1.5,1.7-1.4,3c0,0.4-0.1,1.9-0.2,3.7c0,0,11.6-1.1,11.9,11.9c8.6,0.7,22.7,1.9,25.2,1.9h16.7C54.1,33.7,58.5,31.5,56.6,28.4"/>
<path fill="#473F65" d="M0.2,20C0,24-0.3,29.7,1.1,30.3c2.1,0.8,2.6,1.1,4.5,1.1c0.6,0,3.1,0.2,6.5,0.5C11.8,18.8,0.2,20,0.2,20"/>
<path fill="#EBD467" d="M18.7,0.9c0,0.5-0.4,0.9-0.9,0.9H2.3c-0.5,0-0.9-0.4-0.9-0.9C1.5,0.4,1.9,0,2.3,0h15.4
	C18.3,0,18.7,0.4,18.7,0.9"/>
<path fill="#EBD467" d="M25.4,14.1L21,6.8l-0.7,17.7l-5.6,7.5c1.6,0.1,3.3,0.3,5.1,0.4l5.3-7.9L25.4,14.1z"/>
<path fill="#EBD467" d="M33.7,19.2c-0.9-0.7-1.7-1.6-2.4-2.7c-0.3-0.4-0.6-0.9-0.9-1.4l-1.1-0.3l-0.6,11.4l-4.8,6.4
	c1.7,0.1,3.4,0.3,5,0.4l4.6-6.8L33.7,19.2z"/>
<path fill="#EBD467" d="M3,0.9c0,0-1.7,1.7-1.5,3.1c0.1,1.4,0,9.2,0,9.2S8.2,16,14.7,0.9H3z"/>
<path fill="#473F65" d="M45,25.6c-0.9,1.9-5.8,4.1-10,4.1c0,0-0.7,0-0.9,0.6c-0.2,0.6-0.6,3.1-0.6,3.1c1.8,0.1,3.2,0.2,3.9,0.2h16.7
	c0,0,4.4-2.2,2.6-5.3c-1.8-3.1-5.7-8.4-16.1-6.6C40.5,21.8,45.9,23.7,45,25.6"/>
<path fill="#473F65" d="M38.5,20.6c0,0-2-0.6-3.5-0.9C33.2,19.4,21.2,0.8,21.2,0.8c-0.3-0.5-1.1-0.4-1.1-0.4s-1.7-0.1-2.3,0.1
	C17.2,0.6,17.4,1,17.4,1c5.7,15.6,15.1,21.5,16.2,22.4c1.1,0.9,6.6,0.3,6.5-1.5C39.9,20,38.5,20.6,38.5,20.6"/>
<path fill="#A77C39" d="M14.3,1.8L14.3,1.8c0,0.2-0.1,0.4-0.2,0.4H2.4C2.3,2.2,2.2,2,2.2,1.8"/>
<g>
	<g>
		<defs>
			<rect id="SVGID_5_" x="0.7" y="20.5" width="10.8" height="10.5"/>
		</defs>
		<clipPath id="SVGID_6_">
			<use xlink:href="#SVGID_5_"  overflow="visible"/>
		</clipPath>
		
			<path clip-path="url(#SVGID_6_)" fill="none" stroke="#473F65" stroke-width="0.312" stroke-miterlimit="10" stroke-dasharray="0.624,0.624" d="
			M0.7,20.6c0,0,10-0.9,10.6,10.4"/>
	</g>
</g>
<g>
	<g>
		<defs>
			<rect id="SVGID_7_" x="17.8" y="0.9" width="21.8" height="22.3"/>
		</defs>
		<clipPath id="SVGID_8_">
			<use xlink:href="#SVGID_7_"  overflow="visible"/>
		</clipPath>
		
			<path clip-path="url(#SVGID_8_)" fill="none" stroke="#473F65" stroke-width="0.312" stroke-miterlimit="10" stroke-dasharray="0.624,0.624" d="
			M18,0.9c0,0,3.6,9.7,8.8,15c5.2,5.3,6.7,6.7,7.4,6.9c0.7,0.2,4.3,0.5,5.3-1.3"/>
	</g>
</g>
<g>
	<g>
		<defs>
			<rect id="SVGID_9_" x="34.1" y="21.8" width="11.5" height="11.3"/>
		</defs>
		<clipPath id="SVGID_10_">
			<use xlink:href="#SVGID_9_"  overflow="visible"/>
		</clipPath>
		
			<path clip-path="url(#SVGID_10_)" fill="none" stroke="#473F65" stroke-width="0.312" stroke-miterlimit="10" stroke-dasharray="0.624,0.624" d="
			M42.2,22c0,0,3.6,1.2,3.3,3.1c-0.4,1.9-0.8,2.6-3.1,3.6c-2.3,1.1-6.3,1.6-6.3,1.6s-1.5,0-1.6,0.8c-0.1,0.7-0.2,2.1-0.2,2.1"/>
	</g>
</g>
<path fill="none" stroke="#A77C39" stroke-width="0.312" stroke-miterlimit="10" stroke-dasharray="0.624,0.624" d="M2,12.7
	c0,0,6.1,1.1,11.1-10.1"/>
<path fill="#231F20" d="M21.1,2.2c0,0.4-0.3,0.7-0.7,0.7s-0.7-0.3-0.7-0.7c0-0.4,0.3-0.7,0.7-0.7S21.1,1.8,21.1,2.2"/>
<circle fill="none" stroke="#F3EFD9" stroke-width="0.312" stroke-miterlimit="10" cx="20.5" cy="2.2" r="0.7"/>
<path fill="#231F20" d="M22.5,4.9c0,0.4-0.3,0.7-0.7,0.7c-0.4,0-0.7-0.3-0.7-0.7s0.3-0.7,0.7-0.7C22.2,4.3,22.5,4.6,22.5,4.9"/>
<circle fill="none" stroke="#F3EFD9" stroke-width="0.312" stroke-miterlimit="10" cx="21.8" cy="4.9" r="0.7"/>
<path fill="#231F20" d="M24.2,7.7c0,0.4-0.3,0.7-0.7,0.7c-0.4,0-0.7-0.3-0.7-0.7c0-0.4,0.3-0.7,0.7-0.7C23.9,7,24.2,7.3,24.2,7.7"/>
<circle fill="none" stroke="#F3EFD9" stroke-width="0.312" stroke-miterlimit="10" cx="23.5" cy="7.7" r="0.7"/>
<path fill="#231F20" d="M25.9,10.4c0,0.4-0.3,0.7-0.7,0.7c-0.4,0-0.7-0.3-0.7-0.7c0-0.4,0.3-0.7,0.7-0.7
	C25.6,9.8,25.9,10.1,25.9,10.4"/>
<circle fill="none" stroke="#F3EFD9" stroke-width="0.312" stroke-miterlimit="10" cx="25.2" cy="10.4" r="0.7"/>
<path fill="#231F20" d="M27.8,13c0,0.4-0.3,0.7-0.7,0.7c-0.4,0-0.7-0.3-0.7-0.7c0-0.4,0.3-0.7,0.7-0.7C27.5,12.4,27.8,12.7,27.8,13"
	/>
<circle fill="none" stroke="#F3EFD9" stroke-width="0.312" stroke-miterlimit="10" cx="27.1" cy="13" r="0.7"/>
<path fill="#231F20" d="M29.7,15.6c0,0.4-0.3,0.7-0.7,0.7c-0.4,0-0.7-0.3-0.7-0.7c0-0.4,0.3-0.7,0.7-0.7
	C29.4,14.9,29.7,15.2,29.7,15.6"/>
<circle fill="none" stroke="#F3EFD9" stroke-width="0.312" stroke-miterlimit="10" cx="29" cy="15.6" r="0.7"/>
<path fill="#231F20" d="M32,18c0,0.4-0.3,0.7-0.7,0.7c-0.4,0-0.7-0.3-0.7-0.7c0-0.4,0.3-0.7,0.7-0.7C31.7,17.3,32,17.6,32,18"/>
<circle fill="none" stroke="#F3EFD9" stroke-width="0.312" stroke-miterlimit="10" cx="31.3" cy="18" r="0.7"/>
<path fill="none" stroke="#EBD467" stroke-width="0.936" stroke-linecap="round" stroke-miterlimit="10" d="M20.4,2.3
	c-4-0.4,1.5,12.9-3,15.4"/>
<path fill="none" stroke="#EBD467" stroke-width="0.936" stroke-linecap="round" stroke-miterlimit="10" d="M21.4,5.2
	c0.1-0.2,0.5-0.5,0.7-0.6c0.3-0.2,0.5-0.4,0.8-0.5c0.2-0.1,0.7-0.3,0.7,0.1"/>
<path fill="none" stroke="#EBD467" stroke-width="0.936" stroke-linecap="round" stroke-miterlimit="10" d="M23.5,7.7
	c0.1-0.3,0.4-0.5,0.6-0.7c0.2-0.2,0.5-0.4,0.8-0.5c0.1-0.1,0.4-0.2,0.6-0.2c0.1,0,0.1,0.2,0.1,0.3"/>
<path fill="none" stroke="#EBD467" stroke-width="0.936" stroke-linecap="round" stroke-miterlimit="10" d="M25.2,10.4
	c0.5-0.4,0.9-1.1,1.5-1.5c0.1-0.1,0.5-0.3,0.6-0.3c0.2,0,0.1,0.3,0.1,0.4"/>
<path fill="none" stroke="#EBD467" stroke-width="0.936" stroke-linecap="round" stroke-miterlimit="10" d="M27.1,13
	c0-0.2,0.3-0.4,0.5-0.5c0.2-0.2,0.5-0.3,0.7-0.5c0.3-0.1,0.5-0.3,0.7-0.4c0.3-0.2,0.6,0.2,0.4,0.5"/>
<path fill="none" stroke="#EBD467" stroke-width="0.936" stroke-linecap="round" stroke-miterlimit="10" d="M28.9,15.6
	c0.3-0.2,0.5-0.5,0.8-0.8c0.2-0.2,0.5-0.3,0.7-0.5c0.1-0.1,0.4-0.2,0.6-0.2c0.2,0,0.2,0.2,0.2,0.3"/>
<path fill="none" stroke="#EBD467" stroke-width="0.936" stroke-linecap="round" stroke-miterlimit="10" d="M31.3,18
	c0.1,0,0.1-0.2,0.2-0.3c0.1-0.1,0.2-0.2,0.4-0.3c0.2-0.1,0.3-0.3,0.5-0.4c0.1-0.1,0.3-0.2,0.5-0.2c0.2,0,0.2,0.1,0.2,0.3"/>
<path fill="#EBD467" d="M16.9,17.7l0.2,0.4l-1.8,0.9c0,0-0.3,0-0.1-0.2C15.4,18.5,16.9,17.7,16.9,17.7"/>
<path fill="#A77C39" d="M17.3,18c0,0-0.1,0-0.1,0L17,17.6c0,0,0-0.1,0-0.1c0,0,0.1,0,0.1,0l0.2,0.3C17.3,17.9,17.3,18,17.3,18"/>
<polygon fill="#D3D2D2" points="45.7,35.8 49.3,41.7 54.5,38.4 53.7,35.8 "/>
<path fill="#EBD467" d="M58,39.3l-3-2.4c-0.4-0.3-1.2-0.2-1.8,0.2l-0.7,0.5c-0.6,0.4-1.2,0.8-1.3,0.9c-0.1,0.1-0.7,0.5-1.3,0.9
	l-0.7,0.5c-0.6,0.4-1,1.1-0.8,1.6l1.1,3.7c0.1,0.3,0.2,0.5,0.4,0.6l8.5-5.7C58.3,39.7,58.2,39.5,58,39.3"/>
<path fill="#A77C39" d="M52,44.8l1.1-0.8c0.6-0.4,1.2-0.8,1.3-0.9c0.1-0.1,0.7-0.5,1.3-0.9l1.1-0.8c0.6-0.4,1.2-0.9,1.4-1.2
	c0.1-0.1,0.1-0.3,0.1-0.5l-8.5,5.7c0.1,0.1,0.3,0.2,0.4,0.1C50.7,45.6,51.4,45.2,52,44.8"/>
<path fill="#EBD467" d="M15.9,45.2c0,3.9-3.1,7-7,7c-3.9,0-7-3.1-7-7s3.1-7,7-7C12.7,38.1,15.9,41.3,15.9,45.2"/>
<g>
	<g>
		<defs>
			<rect id="SVGID_11_" x="5.5" y="42.1" width="6.7" height="6.7"/>
		</defs>
		<clipPath id="SVGID_12_">
			<use xlink:href="#SVGID_11_"  overflow="visible"/>
		</clipPath>
		<path clip-path="url(#SVGID_12_)" fill="#EBD467" d="M12.2,45.5c0,1.9-1.5,3.4-3.4,3.4c-1.9,0-3.4-1.5-3.4-3.4
			c0-1.9,1.5-3.4,3.4-3.4C10.7,42.1,12.2,43.6,12.2,45.5"/>
	</g>
</g>
<path fill="#A77C39" d="M12.2,45.2c0,1.9-1.5,3.4-3.4,3.4c-1.9,0-3.4-1.5-3.4-3.4s1.5-3.4,3.4-3.4C10.7,41.8,12.2,43.3,12.2,45.2"/>
<g opacity="0.5">
	<g>
		<defs>
			<rect id="SVGID_13_" x="6.5" y="42.1" width="2.4" height="3.1"/>
		</defs>
		<clipPath id="SVGID_14_">
			<use xlink:href="#SVGID_13_"  overflow="visible"/>
		</clipPath>
		<path clip-path="url(#SVGID_14_)" fill="#A77C39" d="M7.5,42.1c-0.4,0.2-0.7,0.4-1,0.7l2.4,2.4L7.5,42.1z"/>
	</g>
</g>
<g opacity="0.5">
	<g>
		<defs>
			<rect id="SVGID_15_" x="8.9" y="42.1" width="2.4" height="3.1"/>
		</defs>
		<clipPath id="SVGID_16_">
			<use xlink:href="#SVGID_15_"  overflow="visible"/>
		</clipPath>
		<path clip-path="url(#SVGID_16_)" fill="#A77C39" d="M8.9,45.2l2.4-2.4c-0.3-0.3-0.6-0.5-1-0.7L8.9,45.2z"/>
	</g>
</g>
<g>
	<g>
		<defs>
			<rect id="SVGID_17_" x="7.5" y="41.8" width="2.8" height="3.4"/>
		</defs>
		<clipPath id="SVGID_18_">
			<use xlink:href="#SVGID_17_"  overflow="visible"/>
		</clipPath>
		<path clip-path="url(#SVGID_18_)" fill="#A77C39" d="M8.9,41.8c-0.5,0-1,0.1-1.4,0.3l1.4,3.1l1.4-3.1C9.8,41.9,9.4,41.8,8.9,41.8"
			/>
	</g>
</g>
<path fill="#C8C7C7" d="M11,45.2c0,1.2-1,2.2-2.2,2.2c-1.2,0-2.2-1-2.2-2.2c0-1.2,1-2.2,2.2-2.2C10.1,43,11,44,11,45.2"/>
<polygon fill="#A7A5A6" points="8.1,46.4 7.4,45.2 8.1,43.9 9.6,43.9 10.3,45.2 9.6,46.4 "/>
<path fill="#706D6E" d="M9.6,45.2c0,0.4-0.3,0.7-0.7,0.7c-0.4,0-0.7-0.3-0.7-0.7c0-0.4,0.3-0.7,0.7-0.7C9.3,44.4,9.6,44.8,9.6,45.2"
	/>
<path fill="#C8C7C7" d="M9.4,45.2c0,0.3-0.2,0.5-0.5,0.5s-0.5-0.2-0.5-0.5s0.2-0.5,0.5-0.5S9.4,44.9,9.4,45.2"/>
<path fill="#A77C39" d="M8.9,51.8c-3.7,0-6.7-3-6.7-6.7H1.5c0,4.1,3.3,7.4,7.4,7.4c4.1,0,7.4-3.3,7.4-7.4h-0.7
	C15.5,48.8,12.5,51.8,8.9,51.8"/>
<g>
	<g>
		<defs>
			<rect id="SVGID_19_" x="1.5" y="37.8" width="14.7" height="7.4"/>
		</defs>
		<clipPath id="SVGID_20_">
			<use xlink:href="#SVGID_19_"  overflow="visible"/>
		</clipPath>
		<path clip-path="url(#SVGID_20_)" fill="#EBD467" d="M8.9,37.8c-4.1,0-7.4,3.3-7.4,7.4h0.7c0-3.7,3-6.7,6.7-6.7s6.7,3,6.7,6.7h0.7
			C16.2,41.1,12.9,37.8,8.9,37.8"/>
	</g>
</g>
<path fill="#EBD467" d="M47.5,44.6c0,3.9-3.1,7-7,7c-3.9,0-7-3.1-7-7s3.1-7,7-7C44.3,37.6,47.5,40.7,47.5,44.6"/>
<g>
	<g>
		<defs>
			<rect id="SVGID_21_" x="37.1" y="41.5" width="6.7" height="6.7"/>
		</defs>
		<clipPath id="SVGID_22_">
			<use xlink:href="#SVGID_21_"  overflow="visible"/>
		</clipPath>
		<path clip-path="url(#SVGID_22_)" fill="#EBD467" d="M43.8,44.9c0,1.9-1.5,3.4-3.4,3.4s-3.4-1.5-3.4-3.4c0-1.9,1.5-3.4,3.4-3.4
			S43.8,43.1,43.8,44.9"/>
	</g>
</g>
<path fill="#A77C39" d="M43.8,44.6c0,1.9-1.5,3.4-3.4,3.4s-3.4-1.5-3.4-3.4s1.5-3.4,3.4-3.4S43.8,42.8,43.8,44.6"/>
<g opacity="0.5">
	<g>
		<defs>
			<rect id="SVGID_23_" x="38.1" y="41.5" width="2.4" height="3.1"/>
		</defs>
		<clipPath id="SVGID_24_">
			<use xlink:href="#SVGID_23_"  overflow="visible"/>
		</clipPath>
		<path clip-path="url(#SVGID_24_)" fill="#A77C39" d="M39.1,41.5c-0.4,0.2-0.7,0.4-1,0.7l2.4,2.4L39.1,41.5z"/>
	</g>
</g>
<g opacity="0.5">
	<g>
		<defs>
			<rect id="SVGID_25_" x="40.5" y="41.5" width="2.4" height="3.1"/>
		</defs>
		<clipPath id="SVGID_26_">
			<use xlink:href="#SVGID_25_"  overflow="visible"/>
		</clipPath>
		<path clip-path="url(#SVGID_26_)" fill="#A77C39" d="M40.5,44.6l2.4-2.4c-0.3-0.3-0.6-0.5-1-0.7L40.5,44.6z"/>
	</g>
</g>
<g>
	<g>
		<defs>
			<rect id="SVGID_27_" x="39.1" y="41.2" width="2.8" height="3.4"/>
		</defs>
		<clipPath id="SVGID_28_">
			<use xlink:href="#SVGID_27_"  overflow="visible"/>
		</clipPath>
		<path clip-path="url(#SVGID_28_)" fill="#A77C39" d="M40.5,41.2c-0.5,0-1,0.1-1.4,0.3l1.4,3.1l1.4-3.1
			C41.4,41.4,41,41.2,40.5,41.2"/>
	</g>
</g>
<path fill="#C8C7C7" d="M42.6,44.6c0,1.2-1,2.2-2.2,2.2c-1.2,0-2.2-1-2.2-2.2c0-1.2,1-2.2,2.2-2.2C41.7,42.5,42.6,43.4,42.6,44.6"/>
<polygon fill="#A7A5A6" points="39.7,45.9 39,44.6 39.7,43.4 41.2,43.4 41.9,44.6 41.2,45.9 "/>
<path fill="#706D6E" d="M41.2,44.6c0,0.4-0.3,0.7-0.7,0.7c-0.4,0-0.7-0.3-0.7-0.7s0.3-0.7,0.7-0.7C40.9,43.9,41.2,44.2,41.2,44.6"/>
<path fill="#C8C7C7" d="M41,44.6c0,0.3-0.2,0.5-0.5,0.5c-0.3,0-0.5-0.2-0.5-0.5c0-0.3,0.2-0.5,0.5-0.5C40.8,44.1,41,44.3,41,44.6"/>
<path fill="#A77C39" d="M40.5,51.3c-3.7,0-6.7-3-6.7-6.7h-0.7c0,4.1,3.3,7.4,7.4,7.4c4.1,0,7.4-3.3,7.4-7.4h-0.7
	C47.1,48.3,44.1,51.3,40.5,51.3"/>
<g>
	<g>
		<defs>
			<rect id="SVGID_29_" x="33.1" y="37.3" width="14.7" height="7.4"/>
		</defs>
		<clipPath id="SVGID_30_">
			<use xlink:href="#SVGID_29_"  overflow="visible"/>
		</clipPath>
		<path clip-path="url(#SVGID_30_)" fill="#EBD467" d="M40.5,37.3c-4.1,0-7.4,3.3-7.4,7.4h0.7c0-3.7,3-6.7,6.7-6.7
			c3.7,0,6.7,3,6.7,6.7h0.7C47.8,40.6,44.5,37.3,40.5,37.3"/>
	</g>
</g>
</svg>
