<?xml version="1.0" encoding="utf-8"?>
<!-- Generator: Adobe Illustrator 15.0.2, SVG Export Plug-In . SVG Version: 6.00 Build 0)  -->
<!DOCTYPE svg PUBLIC "-//W3C//DTD SVG 1.1//EN" "http://www.w3.org/Graphics/SVG/1.1/DTD/svg11.dtd">
<svg version="1.1" id="Layer_1" xmlns="http://www.w3.org/2000/svg" xmlns:xlink="http://www.w3.org/1999/xlink" x="0px" y="0px"
	 width="59.2px" height="54.8px" viewBox="0 0 59.2 54.8" enable-background="new 0 0 59.2 54.8" xml:space="preserve">
<path fill="#EBD467" d="M34.6,17L32,21.3l7.8-1.3c0,0,3.6-0.1,6.2-3c2.6-2.8,3.9-3.2,4.5-3.2s8.7,3.1,8.7,17.4
	c0,14.4-9,20.7-18.1,22.1c-9.1,1.4-29.4,5-37.1-9.7c0,0-5-7.7,1.5-16.5c0,0,3.4-2.9,4.6-3.6c1.1-0.6,1.3-0.6,1-1.5
	c-0.3-0.9-4.4-9.4-2-13.5C11.5,4.6,34.6,17,34.6,17"/>
<path fill="#ECC57C" d="M34.6,20.9c0,3.1-5.9,5-5.9,5l3.4-4.7L34.6,20.9z"/>
<path fill="#ECC57C" d="M5.2,33.1c0-2.1,0.2-4.1,0.6-6c-0.2,0.2-0.4,0.3-0.4,0.3C-1.1,36.2,4,43.9,4,43.9c2,3.8,4.9,6.4,8.2,8.1
	C7.9,47.1,5.2,40.4,5.2,33.1"/>
<path fill="#ECC57C" d="M50.4,14c-0.2,0-0.4,0-0.8,0.2c4.3,4.9,6.9,11.6,6.9,18.9c0,5.9-1.7,11.4-4.6,15.8c4.3-3.5,7.3-9.2,7.3-17.5
	C59.2,17,50.9,14,50.4,14"/>
<path fill="#EBD467" d="M35.6,12.4c0,6.8-6.1,12.4-13.5,12.4S8.5,19.2,8.5,12.4C8.5,5.5,14.5,0,22,0S35.6,5.5,35.6,12.4"/>
<path fill="#ECC57C" d="M35.6,12.4c0-2.9-1.1-5.6-3-7.7c1.2,2.2,1.9,4.9,1.9,7.7c0,2.8-0.7,5.5-1.9,7.7C34.4,18,35.6,15.3,35.6,12.4
	"/>
<path fill="#ECC57C" d="M9.5,12.4c0-2.8,0.7-5.5,1.9-7.7c-1.9,2.1-3,4.8-3,7.7c0,2.9,1.1,5.6,3,7.7C10.2,17.8,9.5,15.2,9.5,12.4"/>
<path fill="#D6543B" d="M10.1,20.6c0,0,3.6,0.6,2.5-1.8s-3.2-6.6-3.2-7.9C9.4,9.6,8.9,9,8.1,9.6c-0.8,0.6-3.4,2-6,1.7
	c-2.5-0.3-2.4,1.9-1.5,3.2C1.5,15.7,5,20.4,10.1,20.6"/>
<path fill="#F4F4F4" d="M18.4,13.8c0,1.4,1.2,2.6,2.6,2.6c1.4,0,2.6-1.2,2.6-2.6c0-1.4-1.2-2.6-2.6-2.6
	C19.6,11.2,18.4,12.4,18.4,13.8"/>
<g>
	<g>
		<defs>
			<rect id="SVGID_1_" x="21" y="11.2" width="2.7" height="5.2"/>
		</defs>
		<clipPath id="SVGID_2_">
			<use xlink:href="#SVGID_1_"  overflow="visible"/>
		</clipPath>
		<path clip-path="url(#SVGID_2_)" fill="#FEFDF7" d="M21,16.4c0,0,0.1,0,0.3,0c0.1,0,0.2,0,0.4-0.1c0.1,0,0.3-0.1,0.5-0.2
			c0.2-0.1,0.3-0.2,0.5-0.4c0.2-0.1,0.3-0.3,0.4-0.5c0.1-0.2,0.2-0.4,0.3-0.7c0.1-0.2,0.1-0.5,0.1-0.7c0-0.3,0-0.5-0.1-0.7
			c-0.1-0.2-0.2-0.4-0.3-0.7c-0.1-0.2-0.3-0.4-0.4-0.5c-0.2-0.1-0.3-0.3-0.5-0.4c-0.2-0.1-0.3-0.2-0.5-0.2c-0.1-0.1-0.3-0.1-0.4-0.1
			c-0.2,0-0.3,0-0.3,0s0.1,0,0.4,0c0.1,0,0.2,0,0.4,0.1c0.2,0,0.3,0.1,0.5,0.2c0.2,0.1,0.3,0.2,0.5,0.4c0.2,0.1,0.3,0.3,0.5,0.5
			c0.1,0.2,0.3,0.4,0.3,0.7c0.1,0.2,0.1,0.5,0.1,0.8c0,0.3,0,0.5-0.1,0.8c-0.1,0.3-0.2,0.5-0.3,0.7c-0.2,0.2-0.3,0.4-0.5,0.5
			c-0.2,0.1-0.3,0.3-0.5,0.4c-0.2,0.1-0.3,0.2-0.5,0.2c-0.2,0-0.3,0.1-0.4,0.1C21.1,16.4,21,16.4,21,16.4"/>
	</g>
</g>
<path fill="#231F20" d="M18.8,14c0,0.9,0.7,1.7,1.7,1.7s1.7-0.7,1.7-1.7c0-0.9-0.8-1.7-1.7-1.7S18.8,13.1,18.8,14"/>
<path fill="#F4F4F4" d="M20.5,13.4c0,0.3-0.2,0.6-0.6,0.6s-0.6-0.2-0.6-0.6c0-0.3,0.2-0.6,0.6-0.6S20.5,13.1,20.5,13.4"/>
<path fill="#C8AC82" d="M26.3,50.8c0,0-0.2-0.1-0.4-0.4c-0.3-0.3-0.6-0.6-1-1.2c-0.4-0.6-0.8-1.3-1-2.3c-0.2-0.9-0.2-2.1,0.3-3.2
	c0.2-0.5,0.6-1.1,1-1.6c0.4-0.5,0.9-0.9,1.5-1.4c1.1-0.8,2.4-1.5,3.8-1.9c0.4-0.1,0.7-0.2,1.1-0.3c0.4-0.1,0.8-0.2,1.1-0.2
	c0.7-0.2,1.5-0.3,2.2-0.5c1.5-0.3,3-0.7,4.4-1.1c1.5-0.4,2.9-0.9,4.2-1.6c1.5-0.8,3.3-0.8,4.7,0.1c0.3,0.2,0.6,0.5,0.9,0.9
	c0.2,0.4,0.3,0.8,0.3,1.2c-0.1,0.4-0.1,0.7-0.2,1.1c-0.1,0.3-0.2,0.7-0.4,1c-0.2,0.3-0.3,0.6-0.5,0.9c-0.2,0.3-0.4,0.5-0.6,0.8
	c-0.2,0.3-0.4,0.5-0.7,0.7c-0.2,0.2-0.5,0.4-0.7,0.6c-0.4,0.4-0.9,0.7-1.4,1c-0.4,0.3-0.9,0.5-1.3,0.7c-0.9,0.4-1.6,0.8-2.2,1
	c-1.3,0.4-2,0.7-2,0.7s0.7-0.3,1.9-0.8c0.6-0.2,1.3-0.6,2.2-1.1c0.4-0.2,0.8-0.5,1.3-0.8c0.4-0.3,0.9-0.6,1.3-1
	c0.2-0.2,0.4-0.4,0.6-0.6c0.2-0.2,0.4-0.4,0.6-0.7c0.2-0.2,0.4-0.5,0.5-0.7c0.1-0.3,0.3-0.6,0.4-0.8c0.2-0.3,0.2-0.6,0.3-0.9
	c0.1-0.3,0.1-0.7,0.2-1c0-0.3-0.1-0.5-0.2-0.8c-0.2-0.2-0.4-0.4-0.6-0.6c-1.1-0.7-2.7-0.7-3.8,0c-1.3,0.8-2.9,1.3-4.4,1.7
	c-1.5,0.4-3,0.8-4.5,1.1c-0.7,0.1-1.5,0.3-2.2,0.4c-0.4,0.1-0.7,0.1-1.1,0.2c-0.3,0.1-0.7,0.2-1,0.3c-1.3,0.5-2.6,1-3.7,1.7
	c-1.1,0.7-1.9,1.6-2.4,2.6c-0.5,1-0.6,2-0.4,2.9c0.1,0.9,0.5,1.7,0.8,2.2C25.7,50.3,26.3,50.8,26.3,50.8"/>
<path fill="#C8AC82" d="M48.1,40.7c0,0,0.1,0.2,0.2,0.5c0.1,0.3,0.2,0.7,0.1,1.3c0,0.3,0,0.6-0.1,0.9c-0.1,0.3-0.2,0.6-0.3,0.9
	c-0.3,0.6-0.8,1.2-1.3,1.7c-0.3,0.3-0.6,0.5-0.9,0.7c-0.3,0.2-0.6,0.3-0.9,0.5c-0.6,0.3-1.2,0.5-1.6,0.7c-1,0.4-1.7,0.5-1.7,0.5
	s0.6-0.4,1.4-1c0.4-0.3,1-0.6,1.5-0.9c0.5-0.3,1.1-0.7,1.6-1.1c0.3-0.2,0.5-0.4,0.7-0.7c0.2-0.3,0.4-0.5,0.5-0.8
	c0.2-0.3,0.3-0.5,0.4-0.8c0.1-0.3,0.2-0.5,0.2-0.8C48.2,41.4,48.1,40.7,48.1,40.7"/>
<path fill="#C8AC82" d="M47,45.8c0,0,0.1,0.5-0.2,1.2c0,0.2-0.1,0.3-0.2,0.5c-0.1,0.2-0.2,0.4-0.3,0.6c-0.1,0.2-0.3,0.4-0.4,0.6
	c-0.1,0.2-0.3,0.3-0.5,0.5c-0.2,0.2-0.4,0.3-0.5,0.5c-0.2,0.1-0.4,0.2-0.6,0.3c-0.2,0.1-0.4,0.2-0.6,0.3c-0.2,0.1-0.4,0.1-0.5,0.2
	c-0.7,0.2-1.1,0.2-1.1,0.2s0.4-0.3,0.9-0.7c0.1-0.1,0.3-0.2,0.4-0.3c0.1-0.1,0.3-0.3,0.5-0.4c0.2-0.1,0.3-0.3,0.5-0.4l0.5-0.4
	c0.2-0.1,0.3-0.3,0.5-0.4c0.1-0.2,0.3-0.3,0.4-0.5c0.1-0.1,0.3-0.3,0.4-0.4c0.1-0.2,0.2-0.3,0.3-0.4C46.8,46.2,47,45.8,47,45.8"/>
</svg>
