<?xml version="1.0" encoding="utf-8"?>
<!-- Generator: Adobe Illustrator 15.0.2, SVG Export Plug-In . SVG Version: 6.00 Build 0)  -->
<!DOCTYPE svg PUBLIC "-//W3C//DTD SVG 1.1//EN" "http://www.w3.org/Graphics/SVG/1.1/DTD/svg11.dtd">
<svg version="1.1" id="Layer_1" xmlns="http://www.w3.org/2000/svg" xmlns:xlink="http://www.w3.org/1999/xlink" x="0px" y="0px"
	 width="39.9px" height="66.6px" viewBox="0 0 39.9 66.6" enable-background="new 0 0 39.9 66.6" xml:space="preserve">
<rect x="1.5" y="2.3" fill="#B07959" width="1.4" height="62.1"/>
<rect x="2.8" y="2.3" fill="#5E411A" width="0.7" height="62.1"/>
<rect x="36.5" y="2.3" fill="#B07959" width="1.4" height="62.1"/>
<rect x="37.9" y="2.3" fill="#5E411A" width="0.7" height="62.1"/>
<path fill="#FFFFFF" d="M25.2,38.6c-1.6-1.6-2.6-3.4-2.6-5.3s1-3.8,2.6-5.3c0.5-0.5,1-0.9,1.7-1.3c0.8-0.5,1.6-1,2.6-1.4
	c4-2.4,6.2-6,6.2-12.1V2.3H20.5h-1H4.3v10.8c0,6.2,2.2,9.7,6.2,12.1c0.9,0.4,1.8,0.9,2.6,1.4c0.7,0.4,1.2,0.9,1.7,1.3
	c1.6,1.6,2.6,3.4,2.6,5.3s-1,3.8-2.6,5.3c-0.5,0.5-1,0.9-1.7,1.3c-0.8,0.5-1.6,1-2.6,1.4c-4,2.4-6.2,6-6.2,12.1v10.8h15.2h1h15.2
	V53.5c0-6.2-2.2-9.7-6.2-12.1c-0.9-0.4-1.8-0.9-2.6-1.4C26.2,39.6,25.6,39.1,25.2,38.6"/>
<path fill="#FFFFFF" d="M12.1,40.5c-0.6,0.3-1.1,0.6-1.6,0.9c0.9-0.4,1.8-0.9,2.6-1.4C12.8,40.2,12.5,40.3,12.1,40.5"/>
<path fill="#FFFFFF" d="M13.1,26.6c-0.8-0.5-1.6-1-2.6-1.4c0.5,0.3,1,0.6,1.6,0.9C12.5,26.3,12.8,26.4,13.1,26.6"/>
<path fill="#FFFFFF" d="M27.8,26.1c0.6-0.3,1.1-0.6,1.6-0.9c-0.9,0.4-1.8,0.9-2.6,1.4C27.2,26.4,27.5,26.3,27.8,26.1"/>
<path fill="#FFFFFF" d="M26.8,40c0.8,0.5,1.6,1,2.6,1.4c-0.5-0.3-1-0.6-1.6-0.9C27.5,40.3,27.2,40.2,26.8,40"/>
<path fill="#B07959" d="M39.9,1.1c0,0.6-0.5,1.1-1.1,1.1H1.1C0.5,2.3,0,1.8,0,1.1S0.5,0,1.1,0h37.7C39.4,0,39.9,0.5,39.9,1.1"/>
<g opacity="0.4">
	<g>
		<defs>
			<rect id="SVGID_1_" y="0.8" width="39.9" height="1.5"/>
		</defs>
		<clipPath id="SVGID_2_">
			<use xlink:href="#SVGID_1_"  overflow="visible"/>
		</clipPath>
		<path clip-path="url(#SVGID_2_)" fill="#AB6865" d="M38.8,1.6H1.1c-0.5,0-0.9-0.3-1.1-0.8C0,0.9,0,1,0,1.1c0,0.6,0.5,1.1,1.1,1.1
			h37.7c0.6,0,1.1-0.5,1.1-1.1c0-0.1,0-0.2-0.1-0.3C39.7,1.3,39.3,1.6,38.8,1.6"/>
	</g>
</g>
<path fill="#B07959" d="M39.9,65.5c0,0.6-0.5,1.1-1.1,1.1H1.1c-0.6,0-1.1-0.5-1.1-1.1s0.5-1.1,1.1-1.1h37.7
	C39.4,64.3,39.9,64.8,39.9,65.5"/>
<path fill="#B69C5B" d="M6.7,12c0.1,5.9,2.8,9.3,6.1,11.7c0.8,0.4,1.5,0.9,2.2,1.4c0.6,0.4,1,0.9,1.4,1.3c1.4,1.6,3.1,3.4,3.1,5.3
	h0.8c0-2,1.7-3.8,3.1-5.3c0.4-0.5,0.9-0.9,1.4-1.3c0.7-0.5,1.4-1,2.2-1.4c3.4-2.4,6.1-6,6.1-12.1V7.3L6.7,12z"/>
<path fill="#ECC57C" d="M33.2,7.2c0.2,1.2-5.6,3.2-12.9,4.4C13,12.9,6.9,13.2,6.7,12c-0.2-1.2,5.6-3.4,12.9-4.6
	C26.9,6.1,33,6.1,33.2,7.2"/>
<rect x="19.5" y="31.8" fill="#B69C5B" width="0.8" height="30.5"/>
<path fill="#B69C5B" d="M20,62.3H6.7c0,0,1.8-6.8,13.3-12.4L20,62.3z"/>
<path fill="#B69C5B" d="M20,62.3h13.3c0,0-1.8-6.8-13.3-12.4L20,62.3z"/>
<g opacity="0.7">
	<g>
		<defs>
			<rect id="SVGID_3_" x="4.3" y="2.3" width="14" height="62.1"/>
		</defs>
		<clipPath id="SVGID_4_">
			<use xlink:href="#SVGID_3_"  overflow="visible"/>
		</clipPath>
		<path clip-path="url(#SVGID_4_)" fill="#D3D2D2" d="M9.7,64.3V53.5c0-6.2,1.4-9.7,4.1-12.1c0.6-0.4,1.2-0.9,1.7-1.4
			c0.4-0.4,0.8-0.9,1.1-1.3c1.1-1.6,1.7-3.4,1.7-5.3c0-2-0.6-3.8-1.7-5.3c-0.3-0.5-0.7-0.9-1.1-1.3c-0.5-0.5-1.1-1-1.7-1.4
			c-2.6-2.4-4.1-6-4.1-12.1V2.3H4.3v10.8c0,6.2,2.2,9.7,6.2,12.1c0.9,0.4,1.8,0.9,2.6,1.4c0.7,0.4,1.2,0.9,1.7,1.3
			c1.6,1.6,2.6,3.4,2.6,5.3s-1,3.8-2.6,5.3c-0.5,0.5-1,0.9-1.7,1.3c-0.8,0.5-1.6,1-2.6,1.4c-4,2.4-6.2,6-6.2,12.1v10.8h13.1v0H9.7z"
			/>
	</g>
</g>
<g opacity="0.7">
	<g>
		<defs>
			<rect id="SVGID_5_" x="21.7" y="2.3" width="14" height="62.1"/>
		</defs>
		<clipPath id="SVGID_6_">
			<use xlink:href="#SVGID_5_"  overflow="visible"/>
		</clipPath>
		<path clip-path="url(#SVGID_6_)" fill="#FFFFFF" d="M26.8,26.6c0.8-0.5,1.6-1,2.6-1.4c4-2.4,6.2-6,6.2-12.1V2.3h-5.4v10.8
			c0,6.2-1.4,9.7-4.1,12.1c-0.6,0.4-1.2,0.9-1.7,1.4C24,27,23.7,27.5,23.4,28c-1.1,1.6-1.7,3.4-1.7,5.3s0.6,3.8,1.7,5.3
			c0.3,0.5,0.7,0.9,1.1,1.3c0.5,0.5,1.1,1,1.7,1.4c2.6,2.4,4.1,6,4.1,12.1v10.8h-7.7v0h13.1V53.5c0-6.2-2.2-9.7-6.2-12.1
			c-0.9-0.4-1.8-0.9-2.6-1.4c-0.7-0.4-1.2-0.9-1.7-1.3c-1.6-1.6-2.6-3.4-2.6-5.3s1-3.8,2.6-5.3C25.6,27.5,26.2,27,26.8,26.6"/>
	</g>
</g>
<g opacity="0.3">
	<g>
		<defs>
			<rect id="SVGID_7_" x="20.4" y="2.3" width="9.8" height="62.1"/>
		</defs>
		<clipPath id="SVGID_8_">
			<use xlink:href="#SVGID_7_"  overflow="visible"/>
		</clipPath>
		<path clip-path="url(#SVGID_8_)" fill="#FFFFFF" d="M22.5,13.1c0,6.2-0.4,9.7-1,12.1c-0.2,0.4-0.3,0.9-0.4,1.4
			C21,27,20.9,27.5,20.8,28c-0.3,1.6-0.4,3.4-0.4,5.3s0.2,3.8,0.4,5.3c0.1,0.5,0.2,0.9,0.3,1.3c0.1,0.5,0.3,1,0.4,1.4
			c0.7,2.4,1,6,1,12.1v10.8h7.7V53.5c0-6.2-1.4-9.7-4.1-12.1C25.5,41,25,40.5,24.5,40c-0.4-0.4-0.8-0.9-1.1-1.3
			c-1.1-1.6-1.7-3.4-1.7-5.3s0.6-3.8,1.7-5.3c0.3-0.5,0.7-0.9,1.1-1.3c0.5-0.5,1.1-1,1.7-1.4c2.6-2.4,4.1-6,4.1-12.1V2.3h-7.7V13.1z
			"/>
	</g>
</g>
<g opacity="0.3">
	<g>
		<defs>
			<rect id="SVGID_9_" x="9.7" y="2.3" width="9.8" height="62.1"/>
		</defs>
		<clipPath id="SVGID_10_">
			<use xlink:href="#SVGID_9_"  overflow="visible"/>
		</clipPath>
		<path clip-path="url(#SVGID_10_)" fill="#D3D2D2" d="M13.8,25.2c0.6,0.4,1.2,0.9,1.7,1.4c0.4,0.4,0.8,0.9,1.1,1.3
			c1.1,1.6,1.7,3.4,1.7,5.3c0,2-0.6,3.8-1.7,5.3c-0.3,0.5-0.7,0.9-1.1,1.3c-0.5,0.5-1.1,1-1.7,1.4c-2.6,2.4-4.1,6-4.1,12.1v10.8h7.7
			V53.5c0-6.2,0.4-9.7,1-12.1c0.2-0.4,0.3-0.9,0.4-1.4c0.1-0.4,0.2-0.9,0.3-1.3c0.3-1.6,0.4-3.4,0.4-5.3s-0.2-3.8-0.4-5.3
			C19,27.5,19,27,18.8,26.6c-0.1-0.5-0.3-1-0.4-1.4c-0.7-2.4-1-6-1-12.1V2.3H9.7v10.8C9.7,19.3,11.1,22.8,13.8,25.2"/>
	</g>
</g>
<g opacity="0.4">
	<g>
		<defs>
			<rect id="SVGID_11_" x="4.3" y="2.2" width="31.3" height="0.9"/>
		</defs>
		<clipPath id="SVGID_12_">
			<use xlink:href="#SVGID_11_"  overflow="visible"/>
		</clipPath>
		<path clip-path="url(#SVGID_12_)" fill="#252A26" d="M4.3,2.2l15.7,0c7.8,0,15.7,0,15.7,0v0.1c0,0-0.5,0.1-1.3,0.1
			c-0.9,0.1-2.1,0.2-3.5,0.3c-1.5,0.1-3.2,0.2-5,0.2C23.9,3,21.9,3,20,3.1C18,3,16.1,3,14.2,3c-1.8,0-3.5-0.2-5-0.2
			C7.7,2.7,6.5,2.5,5.7,2.5C4.8,2.4,4.3,2.3,4.3,2.2L4.3,2.2z"/>
	</g>
</g>
<g opacity="0.4">
	<g>
		<defs>
			<rect id="SVGID_13_" x="4.3" y="63.6" width="31.3" height="0.9"/>
		</defs>
		<clipPath id="SVGID_14_">
			<use xlink:href="#SVGID_13_"  overflow="visible"/>
		</clipPath>
		<path clip-path="url(#SVGID_14_)" fill="#252A26" d="M4.3,64.3c0,0,0.5-0.1,1.3-0.1c0.9-0.1,2.1-0.2,3.5-0.3
			c1.5-0.1,3.2-0.2,5-0.2c1.8,0,3.8-0.1,5.7-0.1c2,0,3.9,0.1,5.8,0.1c1.8,0,3.5,0.2,5,0.2c1.5,0.1,2.7,0.2,3.5,0.3
			c0.9,0.1,1.3,0.1,1.3,0.1v0.1c0,0-7.8,0-15.7,0L4.3,64.3L4.3,64.3z"/>
	</g>
</g>
</svg>
