<?xml version="1.0" encoding="utf-8"?>
<!-- Generator: Adobe Illustrator 15.0.2, SVG Export Plug-In . SVG Version: 6.00 Build 0)  -->
<!DOCTYPE svg PUBLIC "-//W3C//DTD SVG 1.1//EN" "http://www.w3.org/Graphics/SVG/1.1/DTD/svg11.dtd">
<svg version="1.1" id="Layer_1" xmlns="http://www.w3.org/2000/svg" xmlns:xlink="http://www.w3.org/1999/xlink" x="0px" y="0px"
	 width="71.5px" height="64.8px" viewBox="0 0 71.5 64.8" enable-background="new 0 0 71.5 64.8" xml:space="preserve">
<rect x="43.3" y="6.8" transform="matrix(-0.6391 0.7691 -0.7691 -0.6391 92.5622 -10.6622)" fill="#5E411A" width="10.9" height="19.1"/>
<rect x="35.1" y="19.3" transform="matrix(-0.6391 0.7691 -0.7691 -0.6391 85.181 17.7061)" fill="#00587E" width="6.6" height="19.1"/>
<rect x="30.9" y="24.3" transform="matrix(-0.6391 0.7691 -0.7691 -0.6391 82.1823 29.2318)" fill="#E8E5D1" width="6.6" height="19.1"/>
<rect x="22.7" y="31.3" transform="matrix(-0.6391 0.7691 -0.7691 -0.6391 78.0496 45.1084)" fill="#EBD467" width="11.5" height="19.1"/>
<rect x="17" y="39.4" transform="matrix(-0.639 0.7692 -0.7692 -0.639 73.2693 63.4827)" fill="#5E411A" width="9.4" height="19.1"/>
<rect x="42.9" y="12.1" transform="matrix(-0.639 0.7692 -0.7692 -0.639 89.4098 1.4329)" fill="#D6543B" width="2.9" height="19.1"/>
<rect x="39.7" y="15" transform="matrix(-0.6391 0.7691 -0.7691 -0.6391 87.7144 7.9736)" fill="#1498C3" width="4.5" height="19.1"/>
<path fill="none" stroke="#1498C3" stroke-width="0.619" stroke-linecap="round" stroke-miterlimit="10" d="M0.3,16.3
	c0.8-0.2,1.6-0.5,2.5-0.7c0.5-0.1,1.1-0.2,1.6-0.3"/>
<path fill="none" stroke="#5E411A" stroke-width="0.619" stroke-linecap="round" stroke-miterlimit="10" d="M4.6,15.6
	c-1.3,0.4-2.7,0.8-4,1.2"/>
<path fill="none" stroke="#EBD467" stroke-width="0.619" stroke-linecap="round" stroke-miterlimit="10" d="M0.6,18.5
	c0.4,0,0.8-0.2,1.2-0.3C2.9,17.8,3.9,17,5,16.7"/>
<path fill="none" stroke="#D6543B" stroke-width="0.619" stroke-linecap="round" stroke-miterlimit="10" d="M5.3,17.9
	c-1.3,0.9-2.8,1.5-4.3,1.9"/>
<path fill="none" stroke="#5E411A" stroke-width="0.619" stroke-linecap="round" stroke-miterlimit="10" d="M7.5,25.2
	c-1.3,0.9-2.8,1.5-4.3,1.9"/>
<path fill="none" stroke="#5E411A" stroke-width="0.619" stroke-linecap="round" stroke-miterlimit="10" d="M5.4,19.2
	C5.4,19.2,5.5,19.2,5.4,19.2c-1.1,0.1-2.2,0.5-3.4,0.9c-0.3,0.1-0.8,0.2-0.8,0.5"/>
<path fill="none" stroke="#D6543B" stroke-width="0.619" stroke-linecap="round" stroke-miterlimit="10" d="M5.9,20
	c-1.5,0.8-3.3,1.1-4.9,1.6"/>
<path fill="none" stroke="#D6543B" stroke-width="0.619" stroke-linecap="round" stroke-miterlimit="10" d="M5.7,19.5
	c-1.5,0.8-3.3,1.1-4.9,1.6"/>
<path fill="none" stroke="#5E411A" stroke-width="0.619" stroke-linecap="round" stroke-miterlimit="10" d="M6.3,21
	c-1.6,0.5-3.1,0.9-4.7,1.4"/>
<path fill="none" stroke="#5E411A" stroke-width="0.619" stroke-linecap="round" stroke-miterlimit="10" d="M6.4,22
	c-1.5,0.4-3,0.9-4.5,1.3"/>
<path fill="none" stroke="#5E411A" stroke-width="0.619" stroke-linecap="round" stroke-miterlimit="10" d="M6.6,22.6
	c-1.5,0.4-3,0.9-4.5,1.3"/>
<path fill="none" stroke="#5E411A" stroke-width="0.619" stroke-linecap="round" stroke-miterlimit="10" d="M5.2,17.7
	c-1.5,0.4-3,0.9-4.5,1.3"/>
<path fill="none" stroke="#1498C3" stroke-width="0.619" stroke-linecap="round" stroke-miterlimit="10" d="M6.8,23.3
	c-1.5,0.4-3,0.9-4.5,1.3"/>
<path fill="none" stroke="#5E411A" stroke-width="0.619" stroke-linecap="round" stroke-miterlimit="10" d="M7,24
	c-1.5,0.4-3,0.9-4.5,1.3"/>
<path fill="none" stroke="#E8E5D1" stroke-width="0.619" stroke-linecap="round" stroke-miterlimit="10" d="M7.2,24.6
	c-1.5,0.4-3,0.9-4.5,1.3"/>
<path fill="none" stroke="#E8E5D1" stroke-width="0.619" stroke-linecap="round" stroke-miterlimit="10" d="M7.4,25.3
	c-1.5,0.4-3,0.9-4.5,1.3"/>
<path fill="none" stroke="#E8E5D1" stroke-width="0.619" stroke-linecap="round" stroke-miterlimit="10" d="M7.6,25.9
	c-1.5,0.4-3,0.9-4.5,1.3"/>
<path fill="none" stroke="#D6543B" stroke-width="0.619" stroke-linecap="round" stroke-miterlimit="10" d="M7.8,26.6
	c-1.5,0.4-3,0.9-4.5,1.3"/>
<path fill="none" stroke="#5E411A" stroke-width="0.619" stroke-linecap="round" stroke-miterlimit="10" d="M8,27.3
	c-1.5,0.4-3,0.9-4.5,1.3"/>
<path fill="none" stroke="#EBD467" stroke-width="0.619" stroke-linecap="round" stroke-miterlimit="10" d="M8.2,27.9
	c-1.5,0.4-3,0.9-4.5,1.3"/>
<path fill="none" stroke="#D6543B" stroke-width="0.619" stroke-linecap="round" stroke-miterlimit="10" d="M4.8,16.4
	c-1.5,0.4-3,0.9-4.5,1.3"/>
<path fill="none" stroke="#5E411A" stroke-width="0.619" stroke-linecap="round" stroke-miterlimit="10" d="M8.4,28.6
	c-1.5,0.4-3,0.9-4.5,1.3"/>
<path fill="none" stroke="#E8E5D1" stroke-width="0.619" stroke-linecap="round" stroke-miterlimit="10" d="M8.6,29.2
	c-1.5,0.4-3,0.9-4.5,1.3"/>
<path fill="none" stroke="#E8E5D1" stroke-width="0.619" stroke-linecap="round" stroke-miterlimit="10" d="M8.8,29.9
	c-1.5,0.4-3,0.9-4.5,1.3"/>
<path fill="none" stroke="#D6543B" stroke-width="0.619" stroke-linecap="round" stroke-miterlimit="10" d="M9,30.6
	c-1.5,0.4-3,0.9-4.5,1.3"/>
<path fill="none" stroke="#E8E5D1" stroke-width="0.619" stroke-linecap="round" stroke-miterlimit="10" d="M9.2,31.2
	c-1.5,0.4-3,0.9-4.5,1.3"/>
<path fill="none" stroke="#1498C3" stroke-width="0.619" stroke-linecap="round" stroke-miterlimit="10" d="M9.4,31.9
	c-1.5,0.4-3,0.9-4.5,1.3"/>
<path fill="none" stroke="#5E411A" stroke-width="0.619" stroke-linecap="round" stroke-miterlimit="10" d="M9.6,32.6
	c-1.5,0.4-3,0.9-4.5,1.3"/>
<path fill="none" stroke="#1498C3" stroke-width="0.619" stroke-linecap="round" stroke-miterlimit="10" d="M9.8,33.1
	c-1.4,0.4-3,1.5-3.5,2.9"/>
<rect x="6.4" y="13.2" transform="matrix(0.9572 -0.2894 0.2894 0.9572 -6.0833 4.4125)" fill="#5E411A" width="10.9" height="19.1"/>
<rect x="24.1" y="8.5" transform="matrix(0.9572 -0.2894 0.2894 0.9572 -4.0648 8.698)" fill="#5E411A" width="6.6" height="19.1"/>
<rect x="30.4" y="6.6" transform="matrix(0.9572 -0.2895 0.2895 0.9572 -3.2446 10.4414)" fill="#EBD467" width="6.6" height="19.1"/>
<rect x="36.6" y="4" transform="matrix(0.9572 -0.2894 0.2894 0.9572 -2.1136 12.8365)" fill="#00587E" width="11.5" height="19.1"/>
<rect x="47.7" y="1" transform="matrix(0.9572 -0.2895 0.2895 0.9572 -0.8049 15.6153)" fill="#E8E5D1" width="9.4" height="19.1"/>
<rect x="17" y="11.2" transform="matrix(0.9572 -0.2895 0.2895 0.9572 -5.2235 6.2425)" fill="#D6543B" width="2.9" height="19.1"/>
<rect x="19.8" y="10.1" transform="matrix(0.9572 -0.2896 0.2896 0.9572 -4.7592 7.2311)" fill="#1498C3" width="4.5" height="19.1"/>
<path fill="none" stroke="#1498C3" stroke-width="0.619" stroke-linecap="round" stroke-miterlimit="10" d="M71.2,48.4
	c-0.8,0.2-1.6,0.5-2.5,0.7c-0.5,0.1-1.1,0.2-1.6,0.3"/>
<path fill="none" stroke="#5E411A" stroke-width="0.619" stroke-linecap="round" stroke-miterlimit="10" d="M66.8,49
	c1.3-0.4,2.7-0.8,4-1.2"/>
<path fill="none" stroke="#EBD467" stroke-width="0.619" stroke-linecap="round" stroke-miterlimit="10" d="M70.9,46.2
	c-0.4,0-0.8,0.2-1.2,0.3c-1.1,0.3-2.1,1.1-3.2,1.4"/>
<path fill="none" stroke="#D6543B" stroke-width="0.619" stroke-linecap="round" stroke-miterlimit="10" d="M66.2,46.8
	c1.3-0.9,2.8-1.5,4.3-1.9"/>
<path fill="none" stroke="#5E411A" stroke-width="0.619" stroke-linecap="round" stroke-miterlimit="10" d="M64,39.5
	c1.3-0.9,2.8-1.5,4.3-1.9"/>
<path fill="none" stroke="#5E411A" stroke-width="0.619" stroke-linecap="round" stroke-miterlimit="10" d="M66.1,45.5
	C66,45.5,66,45.5,66.1,45.5c1.1-0.1,2.2-0.5,3.4-0.9c0.3-0.1,0.8-0.2,0.8-0.5"/>
<path fill="none" stroke="#D6543B" stroke-width="0.619" stroke-linecap="round" stroke-miterlimit="10" d="M65.6,44.6
	c1.5-0.8,3.3-1.1,4.9-1.6"/>
<path fill="none" stroke="#D6543B" stroke-width="0.619" stroke-linecap="round" stroke-miterlimit="10" d="M65.8,45.2
	c1.5-0.8,3.3-1.1,4.9-1.6"/>
<path fill="none" stroke="#5E411A" stroke-width="0.619" stroke-linecap="round" stroke-miterlimit="10" d="M65.2,43.7
	c1.6-0.5,3.1-0.9,4.7-1.4"/>
<path fill="none" stroke="#5E411A" stroke-width="0.619" stroke-linecap="round" stroke-miterlimit="10" d="M65.1,42.7
	c1.5-0.4,3-0.9,4.5-1.3"/>
<path fill="none" stroke="#5E411A" stroke-width="0.619" stroke-linecap="round" stroke-miterlimit="10" d="M64.9,42
	c1.5-0.4,3-0.9,4.5-1.3"/>
<path fill="none" stroke="#5E411A" stroke-width="0.619" stroke-linecap="round" stroke-miterlimit="10" d="M66.3,46.9
	c1.5-0.4,3-0.9,4.5-1.3"/>
<path fill="none" stroke="#1498C3" stroke-width="0.619" stroke-linecap="round" stroke-miterlimit="10" d="M64.7,41.4
	c1.5-0.4,3-0.9,4.5-1.3"/>
<path fill="none" stroke="#5E411A" stroke-width="0.619" stroke-linecap="round" stroke-miterlimit="10" d="M64.5,40.7
	c1.5-0.4,3-0.9,4.5-1.3"/>
<path fill="none" stroke="#E8E5D1" stroke-width="0.619" stroke-linecap="round" stroke-miterlimit="10" d="M64.3,40
	c1.5-0.4,3-0.9,4.5-1.3"/>
<path fill="none" stroke="#E8E5D1" stroke-width="0.619" stroke-linecap="round" stroke-miterlimit="10" d="M64.1,39.4
	c1.5-0.4,3-0.9,4.5-1.3"/>
<path fill="none" stroke="#E8E5D1" stroke-width="0.619" stroke-linecap="round" stroke-miterlimit="10" d="M63.9,38.7
	c1.5-0.4,3-0.9,4.5-1.3"/>
<path fill="none" stroke="#D6543B" stroke-width="0.619" stroke-linecap="round" stroke-miterlimit="10" d="M63.7,38.1
	c1.5-0.4,3-0.9,4.5-1.3"/>
<path fill="none" stroke="#5E411A" stroke-width="0.619" stroke-linecap="round" stroke-miterlimit="10" d="M63.5,37.4
	c1.5-0.4,3-0.9,4.5-1.3"/>
<path fill="none" stroke="#EBD467" stroke-width="0.619" stroke-linecap="round" stroke-miterlimit="10" d="M63.3,36.7
	c1.5-0.4,3-0.9,4.5-1.3"/>
<path fill="none" stroke="#D6543B" stroke-width="0.619" stroke-linecap="round" stroke-miterlimit="10" d="M66.6,48.3
	c1.5-0.4,3-0.9,4.5-1.3"/>
<path fill="none" stroke="#5E411A" stroke-width="0.619" stroke-linecap="round" stroke-miterlimit="10" d="M63.1,36.1
	c1.5-0.4,3-0.9,4.5-1.3"/>
<path fill="none" stroke="#E8E5D1" stroke-width="0.619" stroke-linecap="round" stroke-miterlimit="10" d="M62.9,35.4
	c1.5-0.4,3-0.9,4.5-1.3"/>
<path fill="none" stroke="#E8E5D1" stroke-width="0.619" stroke-linecap="round" stroke-miterlimit="10" d="M62.7,34.8
	c1.5-0.4,3-0.9,4.5-1.3"/>
<path fill="none" stroke="#D6543B" stroke-width="0.619" stroke-linecap="round" stroke-miterlimit="10" d="M62.5,34.1
	c1.5-0.4,3-0.9,4.5-1.3"/>
<path fill="none" stroke="#E8E5D1" stroke-width="0.619" stroke-linecap="round" stroke-miterlimit="10" d="M62.3,33.4
	c1.5-0.4,3-0.9,4.5-1.3"/>
<path fill="none" stroke="#1498C3" stroke-width="0.619" stroke-linecap="round" stroke-miterlimit="10" d="M62.1,32.8
	c1.5-0.4,3-0.9,4.5-1.3"/>
<path fill="none" stroke="#5E411A" stroke-width="0.619" stroke-linecap="round" stroke-miterlimit="10" d="M61.9,32.1
	c1.5-0.4,3-0.9,4.5-1.3"/>
<path fill="none" stroke="#1498C3" stroke-width="0.619" stroke-linecap="round" stroke-miterlimit="10" d="M61.6,31.5
	c1.4-0.4,3-1.5,3.5-2.9"/>
<rect x="13.9" y="44.4" transform="matrix(0.9572 -0.2894 0.2894 0.9572 -14.8053 7.9096)" fill="#00587E" width="10.9" height="19.1"/>
<rect x="31.5" y="39.8" transform="matrix(0.9572 -0.2895 0.2895 0.9572 -12.7891 12.1975)" fill="#5E411A" width="6.6" height="19.1"/>
<rect x="37.8" y="37.9" transform="matrix(0.9572 -0.2896 0.2896 0.9572 -11.9704 13.9419)" fill="#E8E5D1" width="6.6" height="19.1"/>
<rect x="44" y="35.2" transform="matrix(0.9572 -0.2895 0.2895 0.9572 -10.8368 16.3357)" fill="#EBD467" width="11.5" height="19.1"/>
<rect x="55.1" y="32.2" transform="matrix(0.9572 -0.2894 0.2894 0.9572 -9.5275 19.1098)" fill="#D6543B" width="9.4" height="19.1"/>
<rect x="24.5" y="42.4" transform="matrix(0.9571 -0.2896 0.2896 0.9571 -13.9521 9.7449)" fill="#D6543B" width="2.9" height="19.1"/>
<rect x="27.3" y="41.4" transform="matrix(0.9571 -0.2896 0.2896 0.9571 -13.4866 10.7321)" fill="#1498C3" width="4.5" height="19.1"/>
<g opacity="0.4">
	<g>
		<defs>
			<rect id="SVGID_1_" x="23.4" y="18.3" width="36.3" height="13.6"/>
		</defs>
		<clipPath id="SVGID_2_">
			<use xlink:href="#SVGID_1_"  overflow="visible"/>
		</clipPath>
		<polygon clip-path="url(#SVGID_2_)" fill="#465761" points="59.7,18.3 23.4,32 26.3,28.4 		"/>
	</g>
</g>
</svg>
