<?xml version="1.0" encoding="utf-8"?>
<!-- Generator: Adobe Illustrator 15.0.2, SVG Export Plug-In . SVG Version: 6.00 Build 0)  -->
<!DOCTYPE svg PUBLIC "-//W3C//DTD SVG 1.1//EN" "http://www.w3.org/Graphics/SVG/1.1/DTD/svg11.dtd">
<svg version="1.1" id="Layer_1" xmlns="http://www.w3.org/2000/svg" xmlns:xlink="http://www.w3.org/1999/xlink" x="0px" y="0px"
	 width="78.3px" height="52.9px" viewBox="0 0 78.3 52.9" enable-background="new 0 0 78.3 52.9" xml:space="preserve">
<path fill="#C8C7C7" d="M69.2,42.8c-2.2-2.5-5.3-5.3-5.3-5.3s-0.6-0.8-2.5-0.6c-1.9,0.2-6.9-0.6-9.5-4.9c-2.6-4.3-3.1-7.6-3.5-10.4
	c0,0-0.2-0.5-1.4-1C45.9,20.2,6.5,4.3,0,6.6c0,0,28.3,14.6,44.6,21.1c0,0,3.9,6.8,7.4,9.2c0,0,2.5,1.7,1.4,4.7
	c-1.1,3.1-0.7,4.9,1.3,7.5c1.9,2.6,9.1,5.7,13.5,2.4C72.5,48.2,71.4,45.3,69.2,42.8 M66.4,48c-0.7,1.5-4.1,3.6-8.2,1.2
	s-2.6-5.7-2.6-5.7s2.2-4.7,7.1-2.2C67.5,43.7,67.1,46.5,66.4,48"/>
<g opacity="0.5">
	<g>
		<defs>
			<rect id="SVGID_1_" x="36.8" y="23.8" width="31.6" height="28.8"/>
		</defs>
		<clipPath id="SVGID_2_">
			<use xlink:href="#SVGID_1_"  overflow="visible"/>
		</clipPath>
		<path clip-path="url(#SVGID_2_)" fill="#A7A5A6" d="M36.8,23.8c2.7,1.1,5.4,2.2,8.1,3.3l0,0l0,0c0.4,0.7,0.9,1.4,1.3,2.1
			c0.5,0.7,0.9,1.4,1.4,2.1c0.5,0.7,1,1.3,1.5,2c0.5,0.7,1.1,1.2,1.7,1.9c0.6,0.6,1.3,1,1.9,1.6c0.6,0.6,1.1,1.3,1.2,2.2
			c0.2,0.8,0,1.7-0.3,2.5c-0.1,0.4-0.3,0.8-0.3,1.2l-0.1,0.6l0,0.6c0,0.4,0.1,0.8,0.1,1.2c0.1,0.4,0.2,0.8,0.4,1.2
			c0.3,0.8,0.8,1.5,1.3,2.1c0.5,0.7,1.1,1.2,1.8,1.7c0.7,0.5,1.4,0.8,2.2,1.2c0.8,0.3,1.5,0.6,2.4,0.8c0.8,0.2,1.6,0.3,2.5,0.3
			c0.8,0,1.7,0,2.5-0.3c0.8-0.2,1.6-0.6,2.3-1l0,0c-0.7,0.5-1.4,0.9-2.2,1.1c-0.8,0.3-1.7,0.3-2.5,0.3c-0.8,0-1.7-0.1-2.5-0.3
			c-0.8-0.2-1.6-0.4-2.4-0.8c-0.8-0.3-1.5-0.7-2.2-1.2c-0.7-0.5-1.4-1-1.9-1.7c-0.5-0.7-1-1.4-1.3-2.2c-0.3-0.8-0.5-1.6-0.5-2.5
			l0-0.6l0.1-0.6c0.1-0.4,0.2-0.8,0.3-1.2c0.3-0.8,0.5-1.6,0.3-2.4c-0.1-0.8-0.6-1.6-1.1-2.1l-1.9-1.6c-0.6-0.6-1.2-1.2-1.7-1.8
			c-0.5-0.6-1.1-1.3-1.5-2c-0.5-0.7-1-1.4-1.4-2.1c-0.5-0.7-0.9-1.4-1.3-2.1l0.1,0C42.1,26.1,39.5,25,36.8,23.8L36.8,23.8z"/>
	</g>
</g>
<path fill="#D3D2D2" d="M65.9,47.3c-0.4,0.8-1.9,2-4,2c-1.1,0-2.3-0.3-3.5-1c-3.6-2.1-2.5-4.9-2.4-5c0,0,0.1-0.2,0.3-0.5l-1-0.4
	c-0.2,0.3-0.2,0.4-0.3,0.5c0,0-1.6,3.8,2.8,6.4c1.3,0.8,2.7,1.1,4,1.1c2.4,0,4.4-1.3,5-2.6c0-0.1,0.1-0.1,0.1-0.2l-1-0.4
	C65.9,47.2,65.9,47.3,65.9,47.3"/>
<path fill="#A7A5A6" d="M62.8,40.4c-1-0.5-2-0.8-3-0.8c-2.6,0-4,1.9-4.6,2.8l1,0.4c0.5-0.8,1.7-2.2,3.6-2.2c0.8,0,1.6,0.2,2.5,0.7
	c3.3,1.6,4.5,3.7,3.6,5.8l1,0.4C67.6,45.9,67.8,42.9,62.8,40.4"/>
<g opacity="0.5">
	<g>
		<defs>
			<rect id="SVGID_3_" x="41.2" y="18.7" width="29.7" height="33.6"/>
		</defs>
		<clipPath id="SVGID_4_">
			<use xlink:href="#SVGID_3_"  overflow="visible"/>
		</clipPath>
		<path clip-path="url(#SVGID_4_)" fill="#A7A5A6" d="M41.2,18.7l3.5,1.3l1.8,0.7c0.3,0.1,0.6,0.2,0.9,0.3c0.3,0.1,0.6,0.3,0.8,0.5
			l0,0l0,0c0.2,1,0.3,2.1,0.6,3.1c0.1,0.5,0.3,1,0.4,1.5c0.2,0.5,0.3,1,0.5,1.5c0.2,0.5,0.4,1,0.6,1.4l0.7,1.4l0.8,1.4
			c0.3,0.4,0.6,0.9,0.9,1.3c0.1,0.2,0.3,0.4,0.5,0.6l0.6,0.5c0.3,0.4,0.8,0.6,1.2,1c0.4,0.3,0.9,0.5,1.4,0.8c0.5,0.3,1,0.4,1.4,0.6
			c0.5,0.2,1,0.3,1.5,0.4c0.5,0.1,1,0.2,1.5,0.2c0.5,0.1,1,0,1.6-0.1c0.3,0,0.5,0,0.8,0.1l0.4,0.1c0.1,0.1,0.3,0.1,0.3,0.2l0,0
			l0,0.1l0,0l2,1.8l1.9,1.9c0.6,0.7,1.3,1.3,1.8,2c0.3,0.4,0.5,0.7,0.8,1.1c0.2,0.4,0.4,0.8,0.5,1.3c0.1,0.4,0.1,0.9,0.1,1.4
			c-0.1,0.4-0.2,0.9-0.4,1.3c-0.2,0.4-0.5,0.8-0.8,1.1c-0.3,0.3-0.6,0.7-1,0.9c-0.3,0.3-0.7,0.6-1.1,0.8c-0.2,0.1-0.4,0.2-0.6,0.3
			l-0.6,0.2C66,52,65.5,52,65.1,52.2c-0.4,0.1-0.9,0.1-1.3,0.1v0c0.4,0,0.9-0.1,1.3-0.1c0.4-0.1,0.9-0.2,1.3-0.4l0.6-0.2
			c0.2-0.1,0.4-0.2,0.6-0.3c0.4-0.2,0.7-0.5,1.1-0.8c0.3-0.3,0.6-0.6,0.9-0.9c0.3-0.3,0.5-0.7,0.7-1.1c0.2-0.4,0.3-0.8,0.4-1.2
			c0-0.4,0-0.9-0.1-1.3c-0.1-0.4-0.3-0.8-0.5-1.2c-0.2-0.4-0.5-0.7-0.7-1.1c-0.6-0.7-1.2-1.3-1.8-2l-1.9-1.9l-2-1.8l0,0l0,0l0-0.1
			l0,0c-0.2-0.2-0.4-0.2-0.7-0.3c-0.2,0-0.5-0.1-0.8-0.1c-0.5,0-1,0.1-1.6,0c-0.5,0-1-0.1-1.6-0.2c-0.5-0.1-1-0.3-1.5-0.4
			c-0.5-0.2-1-0.3-1.4-0.6c-0.5-0.3-0.9-0.5-1.4-0.8c-0.4-0.3-0.9-0.6-1.2-1L53,33.8c-0.2-0.2-0.4-0.4-0.5-0.6
			c-0.3-0.4-0.6-0.8-0.9-1.3l-0.8-1.4l-0.7-1.4c-0.2-0.5-0.4-1-0.6-1.5c-0.2-0.5-0.3-1-0.5-1.5c-0.1-0.5-0.3-1-0.4-1.5
			c-0.2-1-0.4-2.1-0.5-3.1l0,0c-0.2-0.2-0.4-0.4-0.7-0.5c-0.3-0.1-0.6-0.2-0.9-0.4l-1.8-0.7L41.2,18.7L41.2,18.7z"/>
	</g>
</g>
<g>
	<g>
		<defs>
			<rect id="SVGID_5_" x="1.1" y="7" width="32.9" height="15.9"/>
		</defs>
		<clipPath id="SVGID_6_">
			<use xlink:href="#SVGID_5_"  overflow="visible"/>
		</clipPath>
		<path clip-path="url(#SVGID_6_)" fill="#A7A5A6" d="M1.1,7c1.4,0.6,2.7,1.3,4.1,2c1.3,0.7,2.7,1.3,4,2c2.7,1.4,5.4,2.7,8.1,4
			c2.7,1.3,5.4,2.5,8.2,3.8c1.4,0.6,2.7,1.3,4.1,2l4,2l0,0l0.5-0.3l0,0l-0.5,0.4l0,0l0,0L29.4,21c-1.4-0.6-2.7-1.3-4.1-1.9
			c-2.7-1.3-5.4-2.6-8.1-4c-1.4-0.7-2.7-1.3-4.1-2c-1.4-0.6-2.7-1.3-4.1-2c-1.4-0.7-2.7-1.4-4-2C3.8,8.4,2.4,7.7,1.1,7L1.1,7z"/>
	</g>
</g>
<g opacity="0.4">
	<g>
		<defs>
			<rect id="SVGID_7_" x="2.8" y="7.3" width="37.5" height="11.1"/>
		</defs>
		<clipPath id="SVGID_8_">
			<use xlink:href="#SVGID_7_"  overflow="visible"/>
		</clipPath>
		<path clip-path="url(#SVGID_8_)" fill="#A7A5A6" d="M2.8,7.3c0.8,0.1,1.6,0.1,2.4,0.2l2.4,0.4C8.4,8,9.2,8.2,10,8.4
			c0.8,0.2,1.6,0.4,2.3,0.6c1.5,0.5,3.1,0.9,4.6,1.4c1.5,0.5,3.1,0.9,4.6,1.4l4.6,1.5c1.5,0.5,3,1.1,4.6,1.6l2.3,0.8l2.3,0.9
			l4.5,1.8l0,0l0.6-0.3l0,0l-0.6,0.4l0,0l0,0c-3-1.1-6.1-2.2-9.1-3.2c-1.5-0.5-3-1.1-4.5-1.6l-4.6-1.6c-0.8-0.3-1.5-0.5-2.3-0.7
			c-0.8-0.3-1.5-0.5-2.3-0.7c-1.5-0.5-3.1-0.9-4.6-1.3c-0.8-0.2-1.6-0.4-2.3-0.6C9.2,8.4,8.4,8.2,7.6,8L5.2,7.6L2.8,7.3L2.8,7.3z"/>
	</g>
</g>
<g>
	<g>
		<defs>
			<rect id="SVGID_9_" x="2.8" y="7.3" width="31.2" height="15.2"/>
		</defs>
		<clipPath id="SVGID_10_">
			<use xlink:href="#SVGID_9_"  overflow="visible"/>
		</clipPath>
		<path clip-path="url(#SVGID_10_)" fill="#A7A5A6" d="M34,22.5c0,0-0.5-0.2-1.4-0.6c-0.9-0.4-2.1-1-3.6-1.6c-1.5-0.7-3.2-1.5-5-2.4
			c-1.8-0.9-3.8-1.8-5.7-2.7c-1-0.5-2-0.9-2.9-1.4c-1-0.5-1.9-0.9-2.8-1.4c-1.8-0.9-3.5-1.7-5-2.5C4.7,8.3,2.8,7.3,2.8,7.3l0,0
			c0,0,2,0.9,4.9,2.3c2.9,1.4,6.8,3.4,10.7,5.3c1.9,1,3.9,1.9,5.7,2.7c1.8,0.9,3.6,1.6,5,2.4c1.5,0.7,2.7,1.3,3.5,1.7
			C33.5,22.2,34,22.5,34,22.5L34,22.5z"/>
	</g>
</g>
<g>
	<g>
		<defs>
			<path id="SVGID_11_" d="M2.8,7.3L2.8,7.3z"/>
		</defs>
		<clipPath id="SVGID_12_">
			<use xlink:href="#SVGID_11_"  overflow="visible"/>
		</clipPath>
	</g>
</g>
<path fill="#D3D2D2" d="M77.4,2.7c-2.9-4.8-12.9-2.3-17.7,0c-4.8,2.3-8,9.4-8.4,10.2c-0.3,0.8-1.1,1-1.1,1s-1.2,0.3-2.8,0.2
	c-1.6-0.1-2.5,0.6-2.5,0.6l-11.2,6.7c0.1,1-1.7,1.7-1.7,1.7c-4,1.4-28.4,19.2-28.4,19.2c-0.3,1.2,2.3,0,2.3,0c3.1-1,6.2-2.2,9.3-3.6
	C22.6,35,30.2,30,33,28.4c4.7-2.6,2.5-6.9,2.5-6.9l9.3-5.5c2.2-1.2,3.7,0.6,4.4,1.6l3.9,0.3c5,0.6,7.3-0.3,7.3-0.3s9.6-4.6,14.9-7.4
	C80.4,7.2,77.4,2.7,77.4,2.7 M73.9,7.9c0,0-10.9,5.3-14.8,7.5c-3.8,2.3-4.7,0.1-4.8-2.4c-0.1-2.5,6.6-7.5,6.6-7.5
	c6-2.6,9.8-3.9,13.3-1.8C77.8,5.8,73.9,7.9,73.9,7.9"/>
<g>
	<g>
		<defs>
			<rect id="SVGID_13_" x="5.9" y="22.3" width="28.8" height="19.5"/>
		</defs>
		<clipPath id="SVGID_14_">
			<use xlink:href="#SVGID_13_"  overflow="visible"/>
		</clipPath>
		<path clip-path="url(#SVGID_14_)" fill="#A7A5A6" d="M34.7,22.4c0,0-0.5,0.3-1.3,0.7c-0.4,0.2-0.9,0.5-1.5,0.9
			c-0.6,0.4-1.2,0.8-1.9,1.2c-1.4,0.9-3,1.9-4.7,3c-1.7,1.1-3.5,2.3-5.3,3.6c-1.8,1.3-3.5,2.5-5.2,3.7c-1.7,1.2-3.2,2.3-4.5,3.2
			l-4.5,3.1l0,0c0,0,1.7-1.3,4.4-3.3c1.3-1,2.9-2.1,4.5-3.3c1.7-1.2,3.5-2.4,5.3-3.6c1.8-1.2,3.6-2.4,5.3-3.6
			c1.7-1.2,3.2-2.2,4.6-3.1c1.4-0.9,2.6-1.5,3.4-2C34.2,22.6,34.7,22.3,34.7,22.4L34.7,22.4z"/>
	</g>
</g>
<path fill="#E9E9E9" d="M44.7,16l-9.3,5.5c0,0,2.2,4.3-2.5,6.9C30.2,30,22.6,35,15.3,38.8c16.9-7.2,32.2-17.3,32.2-17.3l1.6-4l0.1,0
	C48.5,16.6,46.9,14.8,44.7,16"/>
<path fill="#E9E9E9" d="M40.3,25.1c-1.5,0-2.7-1.2-2.7-2.7c0-1.5,1.2-2.7,2.7-2.7c1.5,0,2.7,1.2,2.7,2.7
	C43,23.8,41.8,25.1,40.3,25.1"/>
<path fill="#A7A5A6" d="M40.3,19.7c1.5,0,2.6,1.2,2.6,2.6S41.7,25,40.3,25c-1.5,0-2.6-1.2-2.6-2.6S38.8,19.7,40.3,19.7 M40.3,19.6
	c-1.5,0-2.8,1.2-2.8,2.8c0,1.5,1.2,2.8,2.8,2.8c1.5,0,2.8-1.2,2.8-2.8C43,20.8,41.8,19.6,40.3,19.6"/>
<path fill="#AEACAC" d="M40.3,21.7c0.5,0,1,0.3,1,0.7c0-0.5-0.4-1-1-1s-1,0.4-1,1C39.3,22,39.7,21.7,40.3,21.7"/>
<path fill="#F4F4F4" d="M40.3,23c-0.5,0-1-0.3-1-0.7c0,0.5,0.4,1,1,1s1-0.4,1-1C41.2,22.7,40.8,23,40.3,23"/>
<path fill="#FFFFFF" d="M41.2,20.5c0-0.2-0.4-0.4-1-0.4s-1,0.2-1,0.4s0.4,0.4,1,0.4S41.2,20.7,41.2,20.5"/>
<g>
	<g>
		<defs>
			<rect id="SVGID_15_" x="37.6" y="22.1" width="5.3" height="2.9"/>
		</defs>
		<clipPath id="SVGID_16_">
			<use xlink:href="#SVGID_15_"  overflow="visible"/>
		</clipPath>
		<path clip-path="url(#SVGID_16_)" fill="#E9E9E9" d="M40.3,24.4c-1.4,0-2.5-1-2.6-2.4c0,0.1,0,0.2,0,0.3c0,1.5,1.2,2.6,2.6,2.6
			c1.5,0,2.6-1.2,2.6-2.6c0-0.1,0-0.2,0-0.3C42.8,23.4,41.6,24.4,40.3,24.4"/>
	</g>
</g>
<path fill="#E7E6E7" d="M58.9,15c-1,0.6-1.8,0.9-2.4,0.9c-0.7,0-1.5-0.3-1.6-2.9c-0.1-1.2,2.1-3.5,4.3-5.4l-1.1-0.5
	c-2,1.7-4.4,4.2-4.3,5.9c0.1,2.6,1,3.9,2.6,3.9c0.8,0,1.8-0.3,3-1c1.8-1.1,5.3-2.8,8.4-4.4L66.6,11C63.7,12.4,60.6,14,58.9,15"/>
<path fill="#A7A5A6" d="M76.3,5.7c0-0.9-0.6-1.7-1.8-2.4c-1.3-0.7-2.6-1.1-4.1-1.1c-2.8,0-6,1.3-9.7,2.9l-0.1,0l0,0
	c-0.3,0.2-1.3,1-2.5,2l1.1,0.5c0.7-0.6,1.4-1.2,2-1.6c4.2-1.8,6.9-2.8,9.2-2.8c1.3,0,2.5,0.3,3.6,1c0.6,0.3,1.3,0.9,1.2,1.5
	c0,0.8-1.2,1.6-1.5,1.8c-0.1,0-3.5,1.7-7.1,3.5l1.2,0.5c3.3-1.7,6.3-3.1,6.4-3.1C74.4,8.3,76.2,7.2,76.3,5.7"/>
<g opacity="0.5">
	<g>
		<defs>
			<rect id="SVGID_17_" x="50.3" y="4.9" width="27.7" height="12.8"/>
		</defs>
		<clipPath id="SVGID_18_">
			<use xlink:href="#SVGID_17_"  overflow="visible"/>
		</clipPath>
		<path clip-path="url(#SVGID_18_)" fill="#A7A5A6" d="M77.9,4.9c0.1,0.5,0.1,0.9,0.1,1.4c0,0.5-0.2,0.9-0.4,1.4
			c-0.5,0.8-1.2,1.5-2,2c-0.4,0.3-0.8,0.5-1.3,0.7L73,10.9l-2.5,1.2c-1.7,0.8-3.3,1.7-5,2.6c-1.7,0.8-3.4,1.7-5.1,2.5l0,0l0,0
			c-0.2,0.1-0.4,0.1-0.6,0.2c-0.2,0-0.4,0.1-0.6,0.1c-0.4,0-0.8,0.1-1.3,0.1l-1.3,0.1c-0.2,0-0.4,0-0.6,0l-0.6,0
			c-1.7-0.1-3.3-0.3-5-0.4l0,0c1.7,0.1,3.4,0.2,5,0.2l0.6,0c0.2,0,0.4,0,0.6,0l1.3-0.1c0.4,0,0.8-0.1,1.2-0.1c0.2,0,0.4-0.1,0.6-0.1
			c0.2,0,0.4-0.1,0.6-0.2l0,0c1.7-0.8,3.4-1.6,5.1-2.4c0.9-0.4,1.7-0.8,2.5-1.2c0.8-0.4,1.7-0.9,2.5-1.3l2.5-1.3l1.3-0.7
			c0.4-0.2,0.8-0.4,1.2-0.7c0.8-0.5,1.5-1.1,2-1.9c0.2-0.4,0.4-0.8,0.5-1.3C77.9,5.8,77.9,5.4,77.9,4.9L77.9,4.9z"/>
	</g>
</g>
<g opacity="0.5">
	<g>
		<defs>
			<rect id="SVGID_19_" x="44.4" y="0.3" width="33.3" height="15.2"/>
		</defs>
		<clipPath id="SVGID_20_">
			<use xlink:href="#SVGID_19_"  overflow="visible"/>
		</clipPath>
		<path clip-path="url(#SVGID_20_)" fill="#A7A5A6" d="M46.3,14.9c-0.2,0-0.5,0.1-0.7,0.1l-0.7,0.3l-0.4,0.2l0.4-0.2l0.5-0.3l0,0
			c0.7-0.5,1.6-0.5,2.4-0.5c0.4,0,0.8,0,1.2,0c0.4,0,0.8,0,1.2-0.1c0.8-0.1,1.4-0.6,1.8-1.3c0.3-0.7,0.7-1.5,1.1-2.2
			c0.8-1.4,1.7-2.8,2.7-4c0.5-0.6,1-1.2,1.6-1.8c0.6-0.6,1.2-1.1,1.9-1.5c0.7-0.4,1.4-0.8,2.2-1.1c0.7-0.3,1.5-0.6,2.3-0.8
			C64.3,1.4,65,1.1,65.8,1c0.8-0.2,1.6-0.3,2.4-0.5c0.8-0.1,1.6-0.2,2.4-0.2c0.8,0,1.6,0,2.4,0.1c0.8,0.2,1.6,0.3,2.3,0.8
			c0.7,0.4,1.3,1,1.7,1.7l0,0c0.2,0.3,0.3,0.6,0.4,0.9c0.1,0.3,0.2,0.6,0.3,0.9l0,0c-0.1-0.3-0.1-0.6-0.3-0.9
			c-0.1-0.3-0.3-0.6-0.4-0.8l0,0c-0.4-0.7-1-1.2-1.7-1.6c-0.7-0.4-1.5-0.6-2.3-0.7c-0.8-0.1-1.6-0.1-2.4-0.1c-0.8,0-1.6,0.1-2.4,0.2
			c-0.8,0.1-1.6,0.3-2.4,0.5c-0.8,0.2-1.5,0.4-2.3,0.6c-0.8,0.2-1.5,0.5-2.3,0.8c-0.7,0.3-1.5,0.6-2.2,1c-0.7,0.4-1.3,0.9-1.9,1.5
			c-0.6,0.6-1.1,1.1-1.6,1.8c-1,1.3-1.8,2.6-2.6,4c-0.4,0.7-0.7,1.4-1.1,2.2c-0.3,0.8-1.1,1.4-1.9,1.4c-0.4,0.1-0.8,0.1-1.2,0.1
			c-0.4,0-0.8,0-1.2,0c-0.4,0-0.8,0-1.2,0l-0.6,0.1c-0.2,0.1-0.4,0.1-0.5,0.2l0,0l-0.5,0.3l0-0.1l0.7-0.2C45.8,15,46,14.9,46.3,14.9
			L46.3,14.9z"/>
	</g>
</g>
</svg>
