<?xml version="1.0" encoding="utf-8"?>
<!-- Generator: Adobe Illustrator 15.0.2, SVG Export Plug-In . SVG Version: 6.00 Build 0)  -->
<!DOCTYPE svg PUBLIC "-//W3C//DTD SVG 1.1//EN" "http://www.w3.org/Graphics/SVG/1.1/DTD/svg11.dtd">
<svg version="1.1" id="Layer_1" xmlns="http://www.w3.org/2000/svg" xmlns:xlink="http://www.w3.org/1999/xlink" x="0px" y="0px"
	 width="78.5px" height="61.1px" viewBox="0 0 78.5 61.1" enable-background="new 0 0 78.5 61.1" xml:space="preserve">
<path fill="#303531" d="M46.7,13.7c0,0.4-0.3,0.7-0.7,0.7s-0.7-0.3-0.7-0.7c0-0.4,0.3-0.7,0.7-0.7S46.7,13.3,46.7,13.7"/>
<path fill="#515551" d="M47.2,13L46,13.1c0,0-0.5,0.3-0.4,0.7c0.1,0.4,0.7,0.5,0.7,0.5l1.4,0.1L47.2,13z"/>
<path fill="#E9E9E9" d="M56.5,10.5c0,0,1.3-0.1,1.9,0.7c0.5,0.8,1.1,2,1.1,2.3c0,0.3,0.7,3-0.1,3.7c0,0-0.7,0.4-1.2,0.3
	C57.6,17.5,56.5,10.5,56.5,10.5"/>
<g opacity="0.5">
	<g>
		<defs>
			<rect id="SVGID_1_" x="56.5" y="10.4" width="3.3" height="7.1"/>
		</defs>
		<clipPath id="SVGID_2_">
			<use xlink:href="#SVGID_1_"  overflow="visible"/>
		</clipPath>
		<path clip-path="url(#SVGID_2_)" fill="#E9E9E9" d="M56.5,10.5c0,0,1.3-0.1,1.9,0.7c0.5,0.8,1.1,2,1.1,2.3c0,0.3,0.7,3-0.1,3.7
			c0,0-0.7,0.4-1.2,0.3C57.6,17.5,56.5,10.5,56.5,10.5"/>
	</g>
</g>
<g opacity="0.5">
	<g>
		<defs>
			<rect id="SVGID_3_" x="57.7" y="16.6" width="2" height="0.9"/>
		</defs>
		<clipPath id="SVGID_4_">
			<use xlink:href="#SVGID_3_"  overflow="visible"/>
		</clipPath>
		<path clip-path="url(#SVGID_4_)" fill="#E9E9E9" d="M57.7,16.6c0.2,0.5,0.3,0.9,0.4,0.9c0.5,0,1.2-0.3,1.2-0.3
			c0.2-0.1,0.3-0.3,0.3-0.6c-0.3,0.1-1.1,0.3-1.7,0.2C57.9,16.8,57.8,16.8,57.7,16.6"/>
	</g>
</g>
<g opacity="0.5">
	<g>
		<defs>
			<rect id="SVGID_5_" x="56.5" y="10.4" width="2.5" height="1.9"/>
		</defs>
		<clipPath id="SVGID_6_">
			<use xlink:href="#SVGID_5_"  overflow="visible"/>
		</clipPath>
		<path clip-path="url(#SVGID_6_)" fill="#E9E9E9" d="M59,12.4c-0.2-0.4-0.4-0.8-0.7-1.2c-0.5-0.8-1.9-0.7-1.9-0.7s0,0.3,0.1,0.7
			c0.6,0.1,1.3,0.2,1.7,0.6C58.6,11.9,58.8,12.1,59,12.4"/>
	</g>
</g>
<g opacity="0.5">
	<g>
		<defs>
			<rect id="SVGID_7_" x="56.5" y="11.2" width="3" height="5.4"/>
		</defs>
		<clipPath id="SVGID_8_">
			<use xlink:href="#SVGID_7_"  overflow="visible"/>
		</clipPath>
		<path clip-path="url(#SVGID_8_)" fill="#D5D4D5" d="M56.5,11.2c0,0,1.2-0.1,1.7,0.6c0.5,0.6,1,1.5,1,1.7c0,0.2,0.7,2.3-0.1,2.8
			c0,0-0.6,0.3-1.1,0.3C57.5,16.5,56.5,11.2,56.5,11.2"/>
	</g>
</g>
<path fill="#515551" d="M1.8,45.5h0.6l1-0.4l18.9,8.7c0,0,7.8,0.3,10.1-2.3c2.3-2.6-6-7.5-6-7.5L5.4,39.7L1.8,45.5z"/>
<g>
	<g>
		<defs>
			<rect id="SVGID_9_" x="4" y="40.7" width="27.6" height="12.2"/>
		</defs>
		<clipPath id="SVGID_10_">
			<use xlink:href="#SVGID_9_"  overflow="visible"/>
		</clipPath>
		<path clip-path="url(#SVGID_10_)" fill="#515551" d="M25.2,44.8L4.9,40.7L4,42.2l19.5,4c0,0,6.8,4,6.4,6.7
			c0.5-0.1,0.9-0.3,1.3-0.5C33.5,49.8,25.2,44.8,25.2,44.8"/>
	</g>
</g>
<path fill="#231F20" d="M21.9,51c0-5.5-4.4-9.9-9.9-9.9S2.1,45.5,2.1,51c0,5.5,4.4,9.9,9.9,9.9S21.9,56.5,21.9,51"/>
<g>
	<g>
		<defs>
			<rect id="SVGID_11_" x="4.5" y="45.8" width="12.7" height="12.7"/>
		</defs>
		<clipPath id="SVGID_12_">
			<use xlink:href="#SVGID_11_"  overflow="visible"/>
		</clipPath>
		<path clip-path="url(#SVGID_12_)" fill="#231F20" d="M4.5,51c0,4.1,3.4,7.5,7.5,7.5c2,0,3.9-0.8,5.2-2.1L6.7,45.8
			C5.4,47.1,4.5,49,4.5,51"/>
	</g>
</g>
<g>
	<g>
		<defs>
			<rect id="SVGID_13_" x="6.7" y="43.5" width="12.9" height="12.9"/>
		</defs>
		<clipPath id="SVGID_14_">
			<use xlink:href="#SVGID_13_"  overflow="visible"/>
		</clipPath>
		<path clip-path="url(#SVGID_14_)" fill="#231F20" d="M19.5,51c0-4.1-3.4-7.5-7.5-7.5c-2.1,0-4,0.9-5.4,2.3l10.6,10.6
			C18.7,55,19.5,53.1,19.5,51"/>
	</g>
</g>
<path fill="#A7A5A6" d="M18.9,51c0-3.8-3.1-6.9-6.9-6.9S5.2,47.2,5.2,51s3.1,6.9,6.9,6.9S18.9,54.8,18.9,51"/>
<path fill="#918F90" d="M17.4,50.9c0-3-2.4-5.3-5.4-5.3c-3,0-5.4,2.4-5.4,5.3c0,3,2.4,5.4,5.4,5.4C15,56.3,17.4,53.9,17.4,50.9"/>
<path fill="#B0AEAF" d="M13.9,51c0-1-0.8-1.8-1.8-1.8c-1,0-1.8,0.8-1.8,1.8c0,1,0.8,1.8,1.8,1.8C13.1,52.9,13.9,52,13.9,51"/>
<path fill="#3D3A3B" d="M12,55.2c-2.8,0-5-2.1-5.3-4.8c0,0.2,0,0.4,0,0.6c0,3,2.4,5.4,5.4,5.4c3,0,5.4-2.4,5.4-5.4
	c0-0.2,0-0.4,0-0.6C17.1,53.1,14.8,55.2,12,55.2"/>
<path fill="#B0AEAF" d="M13.2,51c0-0.7-0.5-1.2-1.2-1.2c-0.7,0-1.2,0.5-1.2,1.2c0,0.7,0.5,1.2,1.2,1.2C12.7,52.2,13.2,51.7,13.2,51"
	/>
<path fill="#E9E9E9" d="M12.4,50.3c0-0.1-0.2-0.3-0.3-0.3c-0.2,0-0.3,0.1-0.3,0.3c0,0.1,0.2,0.3,0.3,0.3
	C12.2,50.6,12.4,50.4,12.4,50.3"/>
<circle fill="none" stroke="#C1AB74" stroke-width="1.954" stroke-miterlimit="10" cx="12.1" cy="50.8" r="3.1"/>
<g>
	<g>
		<defs>
			<rect id="SVGID_15_" x="7.9" y="46.7" width="8" height="8.1"/>
		</defs>
		<clipPath id="SVGID_16_">
			<use xlink:href="#SVGID_15_"  overflow="visible"/>
		</clipPath>
		<path clip-path="url(#SVGID_16_)" fill="#DCDBDB" d="M12,48.6c0.3,0,0.5,0,0.7,0.1l-0.6-2.1c-0.1,0-0.1,0-0.2,0
			c-0.5,0-1,0.1-1.5,0.3l0.3,2C11.2,48.8,11.6,48.6,12,48.6"/>
		<path clip-path="url(#SVGID_16_)" fill="#DCDBDB" d="M9.9,50.8c0-0.5,0.1-0.9,0.4-1.2l-2.1-0.1c-0.1,0.4-0.2,0.9-0.2,1.3
			c0,0.1,0,0.2,0,0.3l2,0.4C9.9,51.2,9.9,51,9.9,50.8"/>
		<path clip-path="url(#SVGID_16_)" fill="#DCDBDB" d="M12,52.9c-0.7,0-1.2-0.3-1.6-0.8l-0.7,1.9c0.4,0.3,0.9,0.5,1.5,0.7l1-1.9
			C12.1,52.9,12.1,52.9,12,52.9"/>
		<path clip-path="url(#SVGID_16_)" fill="#DCDBDB" d="M15.6,52.9l-1.5-1.5c-0.2,0.7-0.6,1.2-1.3,1.5l1.6,1.3
			C14.9,53.8,15.3,53.3,15.6,52.9"/>
		<path clip-path="url(#SVGID_16_)" fill="#DCDBDB" d="M14.2,50.8l1.8-1.2c-0.2-0.5-0.4-1-0.8-1.4l-1.9,0.9
			C13.8,49.4,14.2,50.1,14.2,50.8"/>
	</g>
</g>
<path fill="#7B7979" d="M12,51.8c-0.6,0-1.1-0.4-1.2-1c0,0.1,0,0.1,0,0.2c0,0.7,0.5,1.2,1.2,1.2c0.7,0,1.2-0.5,1.2-1.2
	c0-0.1,0-0.1,0-0.2C13.1,51.4,12.6,51.8,12,51.8"/>
<polygon fill="#B0AEAF" points="12.1,44.7 12.1,49.6 11.1,49.6 11.4,44.7 12.1,44.4 "/>
<polygon fill="#CFCECE" points="12.1,44.7 12.1,49.6 13,49.6 12.7,44.7 12.1,44.4 "/>
<path fill="#727070" d="M12.7,48.4c0-0.4-0.3-0.6-0.6-0.6s-0.6,0.3-0.6,0.6s0.3,0.6,0.6,0.6S12.7,48.8,12.7,48.4"/>
<circle fill="none" stroke="#DCDBDB" stroke-width="0.163" stroke-miterlimit="10" cx="12.1" cy="48.4" r="0.4"/>
<polygon fill="#B0AEAF" points="6,49.1 10.6,50.6 10.3,51.5 5.8,49.7 5.7,49 "/>
<polygon fill="#CFCECE" points="6,49.1 10.6,50.6 10.9,49.6 6.2,48.5 5.7,49 "/>
<path fill="#727070" d="M9.7,49.6C9.4,49.5,9,49.7,8.9,50c-0.1,0.3,0.1,0.7,0.4,0.8c0.3,0.1,0.7-0.1,0.8-0.4
	C10.3,50.1,10.1,49.7,9.7,49.6"/>
<circle fill="none" stroke="#DCDBDB" stroke-width="0.163" stroke-miterlimit="10" cx="9.5" cy="50.2" r="0.4"/>
<polygon fill="#B0AEAF" points="8.3,56.2 11.1,52.2 11.9,52.8 8.8,56.6 8.1,56.5 "/>
<polygon fill="#CFCECE" points="8.3,56.2 11.1,52.2 10.3,51.7 7.7,55.8 8.1,56.5 "/>
<path fill="#727070" d="M9.9,52.8c-0.2,0.3-0.1,0.7,0.1,0.9c0.3,0.2,0.7,0.1,0.9-0.1c0.2-0.3,0.1-0.7-0.1-0.9
	C10.6,52.4,10.2,52.5,9.9,52.8"/>
<circle fill="none" stroke="#DCDBDB" stroke-width="0.163" stroke-miterlimit="10" cx="10.5" cy="53.2" r="0.4"/>
<polygon fill="#B0AEAF" points="15.7,56.2 12.9,52.3 13.7,51.7 16.3,55.8 15.9,56.5 "/>
<polygon fill="#CFCECE" points="15.7,56.2 12.9,52.3 12.1,52.9 15.2,56.6 15.9,56.5 "/>
<path fill="#727070" d="M13,53.6c0.2,0.3,0.6,0.4,0.9,0.1c0.3-0.2,0.4-0.6,0.1-0.9c-0.2-0.3-0.6-0.4-0.9-0.1
	C12.9,52.9,12.8,53.3,13,53.6"/>
<circle fill="none" stroke="#DCDBDB" stroke-width="0.163" stroke-miterlimit="10" cx="13.5" cy="53.2" r="0.4"/>
<polygon fill="#B0AEAF" points="18.1,49.1 13.4,50.6 13.1,49.7 17.9,48.5 18.4,49 "/>
<polygon fill="#CFCECE" points="18.1,49.1 13.4,50.6 13.7,51.6 18.3,49.7 18.4,49 "/>
<path fill="#727070" d="M14.7,50.9c0.3-0.1,0.5-0.5,0.4-0.8c-0.1-0.3-0.5-0.5-0.8-0.4c-0.3,0.1-0.5,0.5-0.4,0.8
	C14,50.8,14.4,51,14.7,50.9"/>
<circle fill="none" stroke="#DCDBDB" stroke-width="0.163" stroke-miterlimit="10" cx="14.5" cy="50.3" r="0.4"/>
<g opacity="0.5">
	<g>
		<defs>
			<rect id="SVGID_17_" x="3" y="51.8" width="17.1" height="4.1"/>
		</defs>
		<clipPath id="SVGID_18_">
			<use xlink:href="#SVGID_17_"  overflow="visible"/>
		</clipPath>
		<path clip-path="url(#SVGID_18_)" fill="#515551" d="M20.2,54.8c-0.2,1.2-4.2,1.5-8.9,0.7C6.5,54.7,2.8,53,3,51.8"/>
	</g>
</g>
<path fill="#252A26" d="M1.1,51.1c0,0,1.3-6,6.7-4.4l5.4,1.6c0,0,1.7-2.2,3.5-2.6l-0.5-2.4l8.5,2.6l2.6,6.4c0,0-3.9,3.4-9.6,2.9
	C12,54.8,3.8,53,3.1,52.5l-0.9,0.5C2.2,52.9,1.1,52.2,1.1,51.1"/>
<path fill="#D1D2D1" d="M3.9,51.8c0,0-1.6-0.9-0.8-2.2c0.8-1.3,2-3.8,6.7-1.7c4.7,2.1,8,4.2,8,4.2s1.4,0.9,0.2,1.5
	c-1.2,0.6-2.3,0.7-5,0.4C10.2,53.6,4.1,52.4,3.9,51.8"/>
<path fill="#858885" d="M7.5,48.1c0,0.2-0.1,0.3-0.3,0.3s-0.3-0.1-0.3-0.3c0-0.2,0.1-0.3,0.3-0.3S7.5,48,7.5,48.1"/>
<circle fill="none" stroke="#CDCECD" stroke-width="9.800000e-002" stroke-miterlimit="10" cx="7.2" cy="48.1" r="0.2"/>
<path fill="#858885" d="M4.5,51.1c0,0.2-0.1,0.3-0.3,0.3c-0.2,0-0.3-0.1-0.3-0.3c0-0.2,0.1-0.3,0.3-0.3C4.3,50.7,4.5,50.9,4.5,51.1"
	/>
<circle fill="none" stroke="#CDCECD" stroke-width="9.800000e-002" stroke-miterlimit="10" cx="4.1" cy="51.1" r="0.2"/>
<path fill="#858885" d="M17,53.1c0,0.2-0.1,0.3-0.3,0.3c-0.2,0-0.3-0.1-0.3-0.3s0.1-0.3,0.3-0.3C16.9,52.8,17,52.9,17,53.1"/>
<circle fill="none" stroke="#CDCECD" stroke-width="9.800000e-002" stroke-miterlimit="10" cx="16.7" cy="53.1" r="0.2"/>
<path fill="#252A26" d="M11.3,50.1c0,0.1-0.2,0.2-0.3,0.1l-3.1-1c-0.1,0-0.2-0.2-0.1-0.3c0-0.1,0.2-0.2,0.3-0.1l3.1,1
	C11.2,49.9,11.3,50,11.3,50.1"/>
<path fill="#252A26" d="M10.5,50.6c0,0.1-0.2,0.2-0.3,0.1l-3.1-1c-0.1,0-0.2-0.2-0.1-0.3c0-0.1,0.2-0.2,0.3-0.1l3.1,1
	C10.5,50.4,10.6,50.5,10.5,50.6"/>
<path fill="#252A26" d="M9.6,51.2c0,0.1-0.2,0.2-0.3,0.1l-3.1-1c-0.1,0-0.2-0.2-0.1-0.3c0-0.1,0.2-0.2,0.3-0.1l3.1,1
	C9.5,51,9.6,51.1,9.6,51.2"/>
<path fill="#252A26" d="M9,52c0,0.1-0.2,0.2-0.3,0.1l-3.1-1c-0.1,0-0.2-0.2-0.1-0.3c0-0.1,0.2-0.2,0.3-0.1l3.1,1
	C8.9,51.7,9,51.9,9,52"/>
<g>
	<g>
		<defs>
			<rect id="SVGID_19_" x="7.8" y="48.9" width="3.5" height="1.3"/>
		</defs>
		<clipPath id="SVGID_20_">
			<use xlink:href="#SVGID_19_"  overflow="visible"/>
		</clipPath>
		<path clip-path="url(#SVGID_20_)" fill="#252A26" d="M11,50.1l-3.1-1c-0.1,0-0.1-0.1-0.1-0.1c0,0,0,0,0,0c0,0.1,0,0.2,0.1,0.3
			l3.1,1c0.1,0,0.2,0,0.3-0.1c0,0,0-0.1,0-0.1C11.2,50.1,11.1,50.2,11,50.1"/>
	</g>
</g>
<g>
	<g>
		<defs>
			<rect id="SVGID_21_" x="7" y="49.5" width="3.5" height="1.3"/>
		</defs>
		<clipPath id="SVGID_22_">
			<use xlink:href="#SVGID_21_"  overflow="visible"/>
		</clipPath>
		<path clip-path="url(#SVGID_22_)" fill="#252A26" d="M10.3,50.6l-3.1-1c-0.1,0-0.1-0.1-0.1-0.1c0,0,0,0,0,0c0,0.1,0,0.2,0.1,0.3
			l3.1,1c0.1,0,0.2,0,0.3-0.1c0,0,0-0.1,0-0.1C10.5,50.6,10.4,50.7,10.3,50.6"/>
	</g>
</g>
<g>
	<g>
		<defs>
			<rect id="SVGID_23_" x="6.1" y="50.1" width="3.5" height="1.3"/>
		</defs>
		<clipPath id="SVGID_24_">
			<use xlink:href="#SVGID_23_"  overflow="visible"/>
		</clipPath>
		<path clip-path="url(#SVGID_24_)" fill="#252A26" d="M9.3,51.2l-3.1-1c-0.1,0-0.1-0.1-0.1-0.1v0c0,0.1,0,0.2,0.1,0.3l3.1,1
			c0.1,0,0.2,0,0.3-0.1c0,0,0-0.1,0-0.1C9.5,51.2,9.4,51.3,9.3,51.2"/>
	</g>
</g>
<g>
	<g>
		<defs>
			<rect id="SVGID_25_" x="5.5" y="50.8" width="3.5" height="1.3"/>
		</defs>
		<clipPath id="SVGID_26_">
			<use xlink:href="#SVGID_25_"  overflow="visible"/>
		</clipPath>
		<path clip-path="url(#SVGID_26_)" fill="#252A26" d="M8.7,52l-3.1-1c-0.1,0-0.1-0.1-0.1-0.1c0,0,0,0,0,0c0,0.1,0,0.2,0.1,0.3
			l3.1,1c0.1,0,0.2,0,0.3-0.1c0,0,0-0.1,0-0.1C8.9,52,8.8,52,8.7,52"/>
	</g>
</g>
<path fill="#5A5758" d="M24.3,49.3c0-1.1-0.9-2-2-2H22c-1.1,0-2,0.9-2,2v0.4c0,1.1,0.9,2,2,2h0.4c1.1,0,2-0.9,2-2V49.3z"/>
<path fill="none" stroke="#231F20" stroke-width="0.195" stroke-miterlimit="10" d="M24.3,49.3c0-1.1-0.9-2-2-2H22c-1.1,0-2,0.9-2,2
	v0.4c0,1.1,0.9,2,2,2h0.4c1.1,0,2-0.9,2-2V49.3z"/>
<g>
	<g>
		<defs>
			<rect id="SVGID_27_" x="22" y="47.3" width="0.4" height="2.1"/>
		</defs>
		<clipPath id="SVGID_28_">
			<use xlink:href="#SVGID_27_"  overflow="visible"/>
		</clipPath>
		
			<line clip-path="url(#SVGID_28_)" fill="none" stroke="#231F20" stroke-width="0.391" stroke-miterlimit="10" x1="22.2" y1="49.5" x2="22.2" y2="47.3"/>
	</g>
</g>
<g>
	<g>
		<defs>
			<rect id="SVGID_29_" x="20.7" y="47.7" width="1.7" height="1.9"/>
		</defs>
		<clipPath id="SVGID_30_">
			<use xlink:href="#SVGID_29_"  overflow="visible"/>
		</clipPath>
		
			<line clip-path="url(#SVGID_30_)" fill="none" stroke="#231F20" stroke-width="0.391" stroke-miterlimit="10" x1="22.2" y1="49.5" x2="20.8" y2="47.8"/>
	</g>
</g>
<g>
	<g>
		<defs>
			<rect id="SVGID_31_" x="20.1" y="48.9" width="2.2" height="0.8"/>
		</defs>
		<clipPath id="SVGID_32_">
			<use xlink:href="#SVGID_31_"  overflow="visible"/>
		</clipPath>
		
			<line clip-path="url(#SVGID_32_)" fill="none" stroke="#231F20" stroke-width="0.391" stroke-miterlimit="10" x1="22.2" y1="49.5" x2="20.1" y2="49.1"/>
	</g>
</g>
<g>
	<g>
		<defs>
			<rect id="SVGID_33_" x="20.3" y="49.3" width="2" height="1.4"/>
		</defs>
		<clipPath id="SVGID_34_">
			<use xlink:href="#SVGID_33_"  overflow="visible"/>
		</clipPath>
		
			<line clip-path="url(#SVGID_34_)" fill="none" stroke="#231F20" stroke-width="0.391" stroke-miterlimit="10" x1="22.2" y1="49.5" x2="20.4" y2="50.5"/>
	</g>
</g>
<g>
	<g>
		<defs>
			<rect id="SVGID_35_" x="21.3" y="49.4" width="1.1" height="2.1"/>
		</defs>
		<clipPath id="SVGID_36_">
			<use xlink:href="#SVGID_35_"  overflow="visible"/>
		</clipPath>
		
			<line clip-path="url(#SVGID_36_)" fill="none" stroke="#231F20" stroke-width="0.391" stroke-miterlimit="10" x1="22.2" y1="49.5" x2="21.5" y2="51.5"/>
	</g>
</g>
<g>
	<g>
		<defs>
			<rect id="SVGID_37_" x="22" y="49.4" width="1.1" height="2.1"/>
		</defs>
		<clipPath id="SVGID_38_">
			<use xlink:href="#SVGID_37_"  overflow="visible"/>
		</clipPath>
		
			<line clip-path="url(#SVGID_38_)" fill="none" stroke="#231F20" stroke-width="0.391" stroke-miterlimit="10" x1="22.2" y1="49.5" x2="22.9" y2="51.5"/>
	</g>
</g>
<g>
	<g>
		<defs>
			<rect id="SVGID_39_" x="22.1" y="49.3" width="2" height="1.4"/>
		</defs>
		<clipPath id="SVGID_40_">
			<use xlink:href="#SVGID_39_"  overflow="visible"/>
		</clipPath>
		
			<line clip-path="url(#SVGID_40_)" fill="none" stroke="#231F20" stroke-width="0.391" stroke-miterlimit="10" x1="22.2" y1="49.5" x2="24.1" y2="50.5"/>
	</g>
</g>
<g>
	<g>
		<defs>
			<rect id="SVGID_41_" x="22.2" y="48.9" width="2.2" height="0.8"/>
		</defs>
		<clipPath id="SVGID_42_">
			<use xlink:href="#SVGID_41_"  overflow="visible"/>
		</clipPath>
		
			<line clip-path="url(#SVGID_42_)" fill="none" stroke="#231F20" stroke-width="0.391" stroke-miterlimit="10" x1="22.2" y1="49.5" x2="24.3" y2="49.1"/>
	</g>
</g>
<g>
	<g>
		<defs>
			<rect id="SVGID_43_" x="22.1" y="47.7" width="1.7" height="1.9"/>
		</defs>
		<clipPath id="SVGID_44_">
			<use xlink:href="#SVGID_43_"  overflow="visible"/>
		</clipPath>
		
			<line clip-path="url(#SVGID_44_)" fill="none" stroke="#231F20" stroke-width="0.391" stroke-miterlimit="10" x1="22.2" y1="49.5" x2="23.6" y2="47.8"/>
	</g>
</g>
<g>
	<g>
		<defs>
			<rect id="SVGID_45_" x="20.4" y="47.7" width="3.5" height="3.5"/>
		</defs>
		<clipPath id="SVGID_46_">
			<use xlink:href="#SVGID_45_"  overflow="visible"/>
		</clipPath>
		
			<circle clip-path="url(#SVGID_46_)" fill="none" stroke="#231F20" stroke-width="0.391" stroke-miterlimit="10" cx="22.2" cy="49.5" r="1.6"/>
	</g>
</g>
<g opacity="0.5">
	<g>
		<defs>
			<rect id="SVGID_47_" x="6.6" y="41.1" width="19.5" height="7.3"/>
		</defs>
		<clipPath id="SVGID_48_">
			<use xlink:href="#SVGID_47_"  overflow="visible"/>
		</clipPath>
		<path clip-path="url(#SVGID_48_)" fill="#515551" d="M26.2,46.5c-0.6,2-5.4,2.4-10.8,0.9s-9.3-4.3-8.7-6.4"/>
	</g>
</g>
<path fill="#1498C3" d="M3.9,40.5c0,0-3.8,3.4-3.9,5.2c-0.1,1.8,1.7,1,1.7,1s3.2-4.7,5.7-5.2C9.9,40.9,3.9,40.5,3.9,40.5"/>
<g>
	<g>
		<defs>
			<rect id="SVGID_49_" x="3.2" y="40.5" width="4.8" height="2.3"/>
		</defs>
		<clipPath id="SVGID_50_">
			<use xlink:href="#SVGID_49_"  overflow="visible"/>
		</clipPath>
		<path clip-path="url(#SVGID_50_)" fill="#1498C3" d="M3.9,40.5c0,0-0.3,0.2-0.7,0.6l1.9,1.7c0.7-0.6,1.5-1.1,2.3-1.3
			C9.9,40.9,3.9,40.5,3.9,40.5"/>
	</g>
</g>
<path fill="#231F20" d="M78.5,51.2c0-5.5-4.4-9.9-9.9-9.9c-5.5,0-9.9,4.4-9.9,9.9c0,5.5,4.4,9.9,9.9,9.9
	C74.1,61.1,78.5,56.7,78.5,51.2"/>
<g>
	<g>
		<defs>
			<rect id="SVGID_51_" x="61.1" y="46" width="12.7" height="12.7"/>
		</defs>
		<clipPath id="SVGID_52_">
			<use xlink:href="#SVGID_51_"  overflow="visible"/>
		</clipPath>
		<path clip-path="url(#SVGID_52_)" fill="#231F20" d="M61.1,51.2c0,4.1,3.4,7.5,7.5,7.5c2,0,3.9-0.8,5.2-2.1L63.3,46
			C62,47.3,61.1,49.2,61.1,51.2"/>
	</g>
</g>
<g>
	<g>
		<defs>
			<rect id="SVGID_53_" x="63.3" y="43.7" width="12.9" height="12.9"/>
		</defs>
		<clipPath id="SVGID_54_">
			<use xlink:href="#SVGID_53_"  overflow="visible"/>
		</clipPath>
		<path clip-path="url(#SVGID_54_)" fill="#231F20" d="M76.1,51.2c0-4.1-3.4-7.5-7.5-7.5c-2.1,0-4,0.9-5.4,2.3l10.6,10.6
			C75.3,55.2,76.1,53.3,76.1,51.2"/>
	</g>
</g>
<path fill="#A7A5A6" d="M75.5,51.2c0-3.8-3.1-6.9-6.9-6.9c-3.8,0-6.9,3.1-6.9,6.9s3.1,6.9,6.9,6.9C72.4,58.1,75.5,55,75.5,51.2"/>
<path fill="#918F90" d="M74,51.1c0-3-2.4-5.4-5.4-5.4c-3,0-5.3,2.4-5.3,5.4c0,3,2.4,5.4,5.3,5.4C71.6,56.5,74,54.1,74,51.1"/>
<path fill="#B0AEAF" d="M70.5,51.2c0-1-0.8-1.8-1.8-1.8s-1.8,0.8-1.8,1.8c0,1,0.8,1.8,1.8,1.8S70.5,52.2,70.5,51.2"/>
<path fill="#3D3A3B" d="M68.6,55.4c-2.8,0-5-2.1-5.3-4.8c0,0.2,0,0.4,0,0.6c0,3,2.4,5.4,5.4,5.4c3,0,5.4-2.4,5.4-5.4
	c0-0.2,0-0.4,0-0.6C73.7,53.3,71.4,55.4,68.6,55.4"/>
<path fill="#B0AEAF" d="M69.8,51.2c0-0.7-0.5-1.2-1.2-1.2c-0.7,0-1.2,0.5-1.2,1.2c0,0.7,0.5,1.2,1.2,1.2
	C69.3,52.4,69.8,51.9,69.8,51.2"/>
<path fill="#E9E9E9" d="M69,50.5c0-0.1-0.2-0.3-0.3-0.3c-0.2,0-0.3,0.1-0.3,0.3s0.2,0.3,0.3,0.3C68.8,50.8,69,50.6,69,50.5"/>
<path fill="none" stroke="#C1AB74" stroke-width="1.954" stroke-miterlimit="10" d="M71.8,51c0-1.7-1.4-3.1-3.1-3.1
	c-1.7,0-3.1,1.4-3.1,3.1c0,1.7,1.4,3.1,3.1,3.1C70.4,54.2,71.8,52.8,71.8,51z"/>
<g>
	<g>
		<defs>
			<rect id="SVGID_55_" x="64.5" y="46.9" width="8" height="8.1"/>
		</defs>
		<clipPath id="SVGID_56_">
			<use xlink:href="#SVGID_55_"  overflow="visible"/>
		</clipPath>
		<path clip-path="url(#SVGID_56_)" fill="#DCDBDB" d="M68.6,48.8c0.3,0,0.5,0,0.7,0.1l-0.6-2.1c-0.1,0-0.1,0-0.2,0
			c-0.5,0-1,0.1-1.5,0.3l0.3,2C67.8,49,68.2,48.8,68.6,48.8"/>
		<path clip-path="url(#SVGID_56_)" fill="#DCDBDB" d="M66.5,51c0-0.5,0.1-0.9,0.4-1.2l-2.1-0.1c-0.1,0.4-0.2,0.9-0.2,1.3
			c0,0.1,0,0.2,0,0.3l2,0.4C66.5,51.4,66.5,51.2,66.5,51"/>
		<path clip-path="url(#SVGID_56_)" fill="#DCDBDB" d="M68.6,53.1c-0.7,0-1.2-0.3-1.6-0.8l-0.7,1.9c0.4,0.3,0.9,0.5,1.5,0.7l1-1.9
			C68.7,53.1,68.7,53.1,68.6,53.1"/>
		<path clip-path="url(#SVGID_56_)" fill="#DCDBDB" d="M72.2,53.1l-1.5-1.5c-0.2,0.7-0.6,1.2-1.3,1.5l1.6,1.3
			C71.5,54,71.9,53.5,72.2,53.1"/>
		<path clip-path="url(#SVGID_56_)" fill="#DCDBDB" d="M70.8,51l1.8-1.2c-0.2-0.5-0.4-1-0.8-1.4l-1.9,0.9
			C70.4,49.6,70.8,50.3,70.8,51"/>
	</g>
</g>
<path fill="#7B7979" d="M68.6,52c-0.6,0-1.1-0.4-1.2-1c0,0.1,0,0.1,0,0.2c0,0.7,0.5,1.2,1.2,1.2c0.7,0,1.2-0.5,1.2-1.2
	c0-0.1,0-0.1,0-0.2C69.7,51.6,69.2,52,68.6,52"/>
<polygon fill="#B0AEAF" points="68.7,44.9 68.7,49.8 67.7,49.8 68,44.9 68.7,44.6 "/>
<polygon fill="#CFCECE" points="68.7,44.9 68.7,49.8 69.6,49.8 69.3,44.9 68.7,44.6 "/>
<path fill="#727070" d="M69.3,48.6c0-0.4-0.3-0.6-0.6-0.6c-0.4,0-0.6,0.3-0.6,0.6c0,0.4,0.3,0.6,0.6,0.6C69,49.3,69.3,49,69.3,48.6"
	/>
<circle fill="none" stroke="#DCDBDB" stroke-width="0.163" stroke-miterlimit="10" cx="68.7" cy="48.6" r="0.4"/>
<polygon fill="#B0AEAF" points="62.6,49.3 67.2,50.8 66.9,51.7 62.4,49.9 62.3,49.2 "/>
<polygon fill="#CFCECE" points="62.6,49.3 67.2,50.8 67.5,49.8 62.8,48.7 62.3,49.2 "/>
<path fill="#727070" d="M66.3,49.8c-0.3-0.1-0.7,0.1-0.8,0.4c-0.1,0.3,0.1,0.7,0.4,0.8s0.7-0.1,0.8-0.4
	C66.9,50.3,66.7,49.9,66.3,49.8"/>
<circle fill="none" stroke="#DCDBDB" stroke-width="0.163" stroke-miterlimit="10" cx="66.1" cy="50.4" r="0.4"/>
<polygon fill="#B0AEAF" points="64.9,56.4 67.7,52.4 68.5,53 65.4,56.8 64.7,56.6 "/>
<polygon fill="#CFCECE" points="64.9,56.4 67.7,52.4 66.9,51.9 64.3,56 64.7,56.6 "/>
<path fill="#727070" d="M66.5,53c-0.2,0.3-0.1,0.7,0.1,0.9c0.3,0.2,0.7,0.1,0.9-0.1s0.1-0.7-0.1-0.9C67.2,52.6,66.8,52.7,66.5,53"/>
<circle fill="none" stroke="#DCDBDB" stroke-width="0.163" stroke-miterlimit="10" cx="67.1" cy="53.4" r="0.4"/>
<polygon fill="#B0AEAF" points="72.3,56.4 69.5,52.5 70.3,51.9 72.9,56 72.5,56.7 "/>
<polygon fill="#CFCECE" points="72.3,56.4 69.5,52.5 68.7,53 71.8,56.8 72.5,56.7 "/>
<path fill="#727070" d="M69.6,53.8c0.2,0.3,0.6,0.4,0.9,0.1c0.3-0.2,0.4-0.6,0.1-0.9c-0.2-0.3-0.6-0.4-0.9-0.1
	C69.5,53.1,69.4,53.5,69.6,53.8"/>
<circle fill="none" stroke="#DCDBDB" stroke-width="0.163" stroke-miterlimit="10" cx="70.1" cy="53.4" r="0.4"/>
<polygon fill="#B0AEAF" points="74.7,49.3 70,50.8 69.7,49.9 74.5,48.7 75,49.2 "/>
<polygon fill="#CFCECE" points="74.7,49.3 70,50.8 70.3,51.8 74.9,49.9 75,49.2 "/>
<path fill="#727070" d="M71.3,51.1c0.3-0.1,0.5-0.5,0.4-0.8c-0.1-0.3-0.5-0.5-0.8-0.4c-0.3,0.1-0.5,0.5-0.4,0.8
	C70.6,51,71,51.2,71.3,51.1"/>
<circle fill="none" stroke="#DCDBDB" stroke-width="0.163" stroke-miterlimit="10" cx="71.1" cy="50.5" r="0.4"/>
<path fill="#B52126" d="M5.8,28.8l-1.6,0.1c0,0-0.5,0-0.8,0.4c-0.3,0.4-1.2,2.6-1.2,2.6S2,32.8,2.4,33s3.5,0.2,3.5,0.2L5.8,28.8z"/>
<path fill="#4F4C4D" d="M7.7,28.5l-2,0.2c0,0-0.6,0.4-0.8,0.8c-0.2,0.4-2.4,3.3-2.4,3.3L2.3,33l0.5,0.7L7.7,28.5z"/>
<g>
	<g>
		<defs>
			<rect id="SVGID_57_" x="4.6" y="28.9" width="2" height="1.8"/>
		</defs>
		<clipPath id="SVGID_58_">
			<use xlink:href="#SVGID_57_"  overflow="visible"/>
		</clipPath>
		<path clip-path="url(#SVGID_58_)" fill="#4F4C4D" d="M5.5,28.9C5.3,29,5.1,29.2,5,29.4c0,0.1-0.2,0.3-0.4,0.6l1.1,0.7l1-1.1
			L5.5,28.9z"/>
	</g>
</g>
<g>
	<g>
		<defs>
			<rect id="SVGID_59_" x="2.3" y="32.3" width="1.3" height="1.4"/>
		</defs>
		<clipPath id="SVGID_60_">
			<use xlink:href="#SVGID_59_"  overflow="visible"/>
		</clipPath>
		<path clip-path="url(#SVGID_60_)" fill="#4F4C4D" d="M2.6,32.8L2.3,33l0.5,0.7l0.8-0.9l-0.8-0.5C2.7,32.6,2.6,32.8,2.6,32.8"/>
	</g>
</g>
<path fill="#2CA2C9" d="M66.6,35.7c0,0,8.4,1.8,10.6,6.4c0,0,0.5,0.8-0.4,0.8c-0.9,0-8.9-1.4-12.7,1.7c-3.8,3.1-5.9,2.5-5.9,2.5
	S60.7,35.7,66.6,35.7"/>
<g>
	<g>
		<defs>
			<rect id="SVGID_61_" x="58.1" y="35.7" width="8.6" height="11.4"/>
		</defs>
		<clipPath id="SVGID_62_">
			<use xlink:href="#SVGID_61_"  overflow="visible"/>
		</clipPath>
		<path clip-path="url(#SVGID_62_)" fill="#72C1DB" d="M66.6,35.7c-5.9,0-8.4,11.4-8.4,11.4s1.9,0.5,5.4-2.2c0.3-2.6,1-6.8,3.1-9.2
			C66.6,35.7,66.6,35.7,66.6,35.7"/>
	</g>
</g>
<path fill="#1498C3" d="M9.2,27.2c0,0-7.4,5.9-7.9,9.6c0,0-0.6,0.5-0.6,1c0,0.5-0.1,1.2-0.1,1.2s0.1,0.2,0.4,0.3c0,0,0.1,0,0.2,0.3
	s4,2.3,21.8,6.1c0,0,2.1,0.4,2.3,1l-0.1,0.7c0,0,0.2,0.2,0.3,0.2c0.1,0.1,0.2,0.2,0.2,0.2s0.2,3,2.3,4c0,0,0.2,0.2,0.6,0.2
	s1.4-0.1,1.4-0.1l0.4-0.1c0,0,0.3-0.1,0.8,0.3c0.4,0.3,1.3,1.1,1.3,1.1l1.3,0.1l0.1-0.1l0.8,0l4.1-1l9.3,0.3c0,0,6.4,1.1,10.7-5.3
	c4.3-6.4,3.3-6.9,5.6-9.1l2.4-2.5c0,0,1.4-1-0.2-4.7c-1.7-3.7-7.3-11.8-9.3-13.3c-2-1.6-3-5.7-3-5.7l-4.2-1.2l-0.2,0.8l-2.6,1.5
	c0,0-0.4,1.3-0.1,1.6c0,0,1.3,0.7,1.8,1.7c0.4,0.9,1.7,3.2,1.7,3.2s3.8,10,4,12.6c0.1,2.5-0.3,5.8-0.7,7.2c0,0-0.5,1.6-0.2,2.8
	c0,0-1.4,3.2-4.6,3.1c-3.2-0.1-10.9-0.2-12.9-3.6c-2-3.5-1.6-5.9,0.5-8.7c0,0,2.1-2,2-3C38.3,28.6,9.2,27.2,9.2,27.2"/>
<g opacity="0.3">
	<g>
		<defs>
			<rect id="SVGID_63_" x="0.5" y="13.2" width="66.7" height="39.9"/>
		</defs>
		<clipPath id="SVGID_64_">
			<use xlink:href="#SVGID_63_"  overflow="visible"/>
		</clipPath>
		<path clip-path="url(#SVGID_64_)" fill="#1498C3" d="M48.8,16c0.4,0.9,1.7,3.2,1.7,3.2s3.8,10,4,12.6c0,0.1,0,0.3,0,0.4
			c0-0.5,0-1.1,0-1.6c-0.1-2.5-4-12.6-4-12.6s-1.2-2.3-1.7-3.2c-0.4-0.9-1.6-1.6-1.7-1.6c-0.1,0.4-0.2,1,0,1.2
			C47,14.4,48.4,15.1,48.8,16"/>
		<path clip-path="url(#SVGID_64_)" fill="#1498C3" d="M53.4,40.6c0-0.1,0-0.1,0-0.2c0,0.1,0,0.2,0,0.3
			C53.4,40.7,53.4,40.6,53.4,40.6"/>
		<path clip-path="url(#SVGID_64_)" fill="#1498C3" d="M36.4,31.4c-1.3,1.7-1.9,3.3-1.7,5.2c0.1-1.4,0.7-2.6,1.7-4c0,0,2.1-2,2-3
			c0-0.1-0.1-0.1-0.3-0.2C37.5,30.4,36.4,31.4,36.4,31.4"/>
		<path clip-path="url(#SVGID_64_)" fill="#1498C3" d="M66.6,34.2l-2.4,2.5c-2.3,2.2-1.4,2.7-5.6,9.1c-4.3,6.4-10.7,5.3-10.7,5.3
			l-9.3-0.3l-4.1,1l-0.8,0L33.7,52l-1.3-0.1c0,0-0.9-0.7-1.3-1.1c-0.4-0.3-0.8-0.3-0.8-0.3L30,50.7c0,0-1,0.1-1.4,0.1
			c-0.4,0-0.6-0.2-0.6-0.2c-2-1.1-2.3-4-2.3-4s-0.1-0.1-0.2-0.2c-0.1-0.1-0.3-0.2-0.3-0.2l0.1-0.7c-0.2-0.7-2.3-1-2.3-1
			C5.1,40.6,1.3,38.5,1.1,38.3c-0.1-0.2-0.2-0.3-0.2-0.3c-0.1,0-0.2,0-0.2-0.1c0,0.4-0.1,1-0.1,1s0.1,0.2,0.4,0.3c0,0,0.1,0,0.2,0.3
			c0.1,0.2,4,2.3,21.8,6.1c0,0,2.1,0.4,2.3,1l-0.1,0.7c0,0,0.2,0.2,0.3,0.2c0.1,0.1,0.2,0.2,0.2,0.2s0.2,3,2.3,4
			c0,0,0.2,0.2,0.6,0.2c0.4,0,1.4-0.1,1.4-0.1l0.4-0.1c0,0,0.3-0.1,0.8,0.3c0.4,0.3,1.3,1.1,1.3,1.1l1.3,0.1l0.1-0.1l0.8,0l4.1-1
			l9.3,0.3c0,0,6.4,1.1,10.7-5.3c4.3-6.4,3.3-6.9,5.6-9.1l2.4-2.5c0,0,0.8-0.5,0.5-2.2C67,33.9,66.6,34.2,66.6,34.2"/>
	</g>
</g>
<path fill="#231F20" d="M40.3,25.1c-0.4,0.8-1.1,1.3-1.9,1.6c-1.4,0.5-4,1.1-4,1.1S33,28,28.7,27.3c-4.3-0.7-7.6-0.7-7.6-0.7
	s-10.3-1-12-2.5c0,0-0.3-0.5-0.6-1.1c0,0.1-0.1,0.1-0.1,0.2c-1.2,2.2,0.7,5,0.7,5c1.7,1.5,12,2.5,12,2.5s3.3-0.1,7.6,0.6
	c4.3,0.8,5.8,0.5,5.8,0.5s2.6-0.6,4-1.1c1.4-0.5,2.4-1.6,2.3-4.4C40.8,25.8,40.6,25.4,40.3,25.1"/>
<path fill="#7B7979" d="M21.1,26.6c0,0,3.3-0.1,7.6,0.7c4.3,0.7,5.8,0.5,5.8,0.5s2.6-0.6,4-1.1c0.8-0.3,1.4-0.7,1.9-1.6
	c-1.3-1.3-4.7-0.7-4.7-0.7c-9.3,0.9-10.4,0.1-11,0c-0.6-0.1-4.1-1.4-5.5-1.2C17.8,23.4,12,22,12,22s-2.2-1.1-3.5,0.9
	c0.3,0.7,0.6,1.1,0.6,1.1C10.8,25.6,21.1,26.6,21.1,26.6"/>
<g>
	<g>
		<defs>
			<rect id="SVGID_65_" x="19.1" y="23.4" width="0.9" height="2.4"/>
		</defs>
		<clipPath id="SVGID_66_">
			<use xlink:href="#SVGID_65_"  overflow="visible"/>
		</clipPath>
		<path clip-path="url(#SVGID_66_)" fill="#7B7979" d="M20,23.4c0,0,0,0-0.1,0.1c0,0.1-0.1,0.2-0.1,0.3c-0.1,0.1-0.1,0.3-0.1,0.4
			c0,0.1-0.1,0.3,0,0.4c0,0.1,0,0.3,0.1,0.4c0,0.1,0,0.1,0,0.2c0,0.1,0.1,0.1,0.1,0.2c0.1,0.2,0.1,0.4,0.1,0.4s-0.2-0.1-0.4-0.3
			c-0.1-0.1-0.2-0.2-0.3-0.4c0-0.1-0.1-0.2-0.1-0.3c0-0.1,0-0.2,0-0.3c0-0.2,0.1-0.4,0.1-0.6c0-0.1,0.1-0.2,0.2-0.2
			c0.1-0.1,0.1-0.1,0.2-0.2C19.8,23.4,20,23.4,20,23.4"/>
	</g>
</g>
<path fill="#89CBE1" d="M36.8,31.7c-0.8,0.8-1.6,1.7-2.3,2.6c-0.3,0.5-0.7,0.9-1,1.4c-0.3,0.5-0.5,1-0.7,1.5
	c-0.2,0.5-0.3,1.1-0.3,1.6c0,0.5,0.2,1.1,0.3,1.7c0.3,1.1,0.7,2.2,1.4,3c0.3,0.5,0.7,0.8,1.2,1.2c0.4,0.3,0.9,0.6,1.4,0.9
	c0.5,0.2,1,0.4,1.6,0.5c0.3,0.1,0.6,0.1,0.8,0.2c0.3,0,0.5,0.1,0.8,0.1l3.5,0.3l1.7,0.1l1.7,0h0l0,0c0.6,0.1,1.3,0,1.9-0.1
	c0.6-0.1,1.2-0.3,1.8-0.6c0.3-0.1,0.5-0.3,0.8-0.5c0.2-0.2,0.5-0.4,0.7-0.7c0.2-0.2,0.4-0.5,0.6-0.8c0.2-0.3,0.3-0.6,0.4-0.9
	c-0.1,0.3-0.2,0.6-0.4,0.9c-0.2,0.3-0.3,0.6-0.5,0.8c-0.2,0.3-0.4,0.5-0.7,0.7c-0.3,0.2-0.5,0.4-0.8,0.6c-0.3,0.2-0.6,0.3-0.9,0.4
	c-0.3,0.1-0.6,0.2-1,0.3c-0.7,0.1-1.3,0.2-2,0.2l0,0l-1.8,0l-1.7-0.1L40,46.9c-0.3,0-0.6,0-0.9-0.1c-0.3,0-0.6-0.1-0.9-0.2
	c-0.6-0.1-1.2-0.3-1.7-0.6c-0.6-0.2-1.1-0.6-1.5-0.9c-0.5-0.4-0.9-0.8-1.2-1.3c-0.7-1-1.2-2.1-1.5-3.2c-0.1-0.6-0.3-1.1-0.3-1.8
	c0-0.6,0.1-1.2,0.4-1.8c0.2-0.6,0.5-1.1,0.8-1.6c0.3-0.5,0.7-1,1.1-1.4C35.1,33.3,35.9,32.4,36.8,31.7"/>
<path fill="none" stroke="#F6E2BD" stroke-width="0.578" stroke-miterlimit="10" d="M56,19.1c0,0-2.5,1.1-0.5,4.5
	c2,3.3,4.5,7.4,4.5,7.4s3,4.8,0,9.5c-3,4.7-3.6,5.5-3.6,5.5s-3.2,5.5-9.2,5c-6-0.5-14.6-0.3-18.1-1.7c-3.5-1.5-2.8-1.1-3.1-1.7"/>
<path fill="#72C1DB" d="M2.5,36.1c0,0,2.3-1,6-2c1.8-0.5,4-1.1,6.4-1.5c2.4-0.4,5-0.6,7.6-0.4c1.3,0.1,2.7,0.4,4,1
	c1.3,0.6,2.5,1.5,3.3,2.6c0.2,0.3,0.4,0.6,0.6,0.9c0.2,0.3,0.2,0.4,0.3,0.6c0.1,0.2,0.1,0.3,0.2,0.5c0.2,0.7,0.3,1.3,0.4,2
	c0.1,1.3-0.1,2.6-0.5,3.6c-0.8,2.2-2.2,3.6-3.1,4.4c-0.5,0.4-0.9,0.7-1.1,0.9C26.1,49,26,49.1,26,49.1l-2.1-3.3c0,0,0.1-0.1,0.3-0.2
	c0.2-0.1,0.5-0.3,0.9-0.6c0.8-0.6,1.8-1.4,2.4-2.8c0.3-0.7,0.5-1.5,0.6-2.3c0-0.4,0-0.9-0.1-1.3l-0.1-0.3c0-0.1-0.1-0.2-0.1-0.2
	c-0.1-0.2-0.2-0.4-0.3-0.6c-0.5-0.8-1.2-1.5-2.2-2c-0.9-0.5-2.1-0.9-3.2-1.2c-2.3-0.5-4.8-0.5-7.2-0.3c-2.3,0.2-4.5,0.5-6.4,0.8
	C4.9,35.4,2.5,36.1,2.5,36.1"/>
<path fill="#231F20" d="M39.1,44.9l0.6-1c0,0,0.1-0.2,1.2,0c1.1,0.2,7.8,0.9,8.5,0.8c0.8-0.1,2.1-0.9,2.1-0.9s0.3,0,0.3,0.2
	c0,0.2-0.2,0.5-0.2,0.5S51,45,50.5,45.2c-0.6,0.2-1.1,0.8-4.8,0.6c-3.7-0.2-5.7-0.4-5.7-0.4S39,45.4,39.1,44.9"/>
<path fill="#231F20" d="M29.8,44.4c0,0.2-0.2,0.3-0.3,0.3l-2.2-0.2c-0.2,0-0.3-0.2-0.3-0.3c0-0.2,0.2-0.3,0.3-0.3l2.2,0.2
	C29.7,44.1,29.8,44.3,29.8,44.4"/>
<path fill="#3CAACD" d="M29.7,44.2C29.7,44.2,29.7,44.2,29.7,44.2c0,0.2-0.2,0.3-0.3,0.3l-2.2-0.2c-0.1,0-0.1,0-0.2-0.1
	c0,0.1,0.1,0.3,0.3,0.3l2.2,0.2c0.2,0,0.3-0.1,0.3-0.3C29.8,44.4,29.8,44.3,29.7,44.2"/>
<path fill="#231F20" d="M29,45.3c0,0.2-0.2,0.3-0.3,0.3l-2.2-0.2c-0.2,0-0.3-0.2-0.3-0.3c0-0.2,0.2-0.3,0.3-0.3l2.2,0.2
	C28.9,45,29.1,45.1,29,45.3"/>
<path fill="#3CAACD" d="M29,45C29,45.1,29,45.1,29,45c0,0.2-0.2,0.3-0.3,0.3l-2.2-0.2c-0.1,0-0.1,0-0.2-0.1c0,0.1,0.1,0.3,0.3,0.3
	l2.2,0.2c0.2,0,0.3-0.1,0.3-0.3C29.1,45.2,29,45.1,29,45"/>
<path fill="#231F20" d="M28.3,46.1c0,0.2-0.2,0.3-0.3,0.3l-2.2-0.2c-0.2,0-0.3-0.2-0.3-0.3c0-0.2,0.2-0.3,0.3-0.3l2.2,0.2
	C28.2,45.8,28.3,45.9,28.3,46.1"/>
<path fill="#3CAACD" d="M28.2,45.9C28.2,45.9,28.2,45.9,28.2,45.9c0,0.2-0.2,0.3-0.3,0.3l-2.2-0.2c-0.1,0-0.1,0-0.2-0.1
	c0,0.1,0.1,0.3,0.3,0.3l2.2,0.2c0.2,0,0.3-0.1,0.3-0.3C28.3,46,28.3,45.9,28.2,45.9"/>
<g>
	<g>
		<defs>
			<rect id="SVGID_67_" x="1.2" y="36.7" width="32.8" height="6.9"/>
		</defs>
		<clipPath id="SVGID_68_">
			<use xlink:href="#SVGID_67_"  overflow="visible"/>
		</clipPath>
		
			<path clip-path="url(#SVGID_68_)" fill="none" stroke="#72C1DB" stroke-width="0.391" stroke-linecap="round" stroke-miterlimit="10" d="
			M33.8,43.2c0,0-0.1,0.2-1,0.2c-0.9,0-4.8-0.3-4.8-0.3l-2.9-0.2c0,0-22.3-3.2-23.7-5.9"/>
	</g>
</g>
<g>
	<g>
		<defs>
			<rect id="SVGID_69_" x="1.3" y="37.1" width="32.5" height="6.6"/>
		</defs>
		<clipPath id="SVGID_70_">
			<use xlink:href="#SVGID_69_"  overflow="visible"/>
		</clipPath>
		
			<path clip-path="url(#SVGID_70_)" fill="none" stroke="#72C1DB" stroke-width="9.800000e-002" stroke-linecap="round" stroke-miterlimit="10" d="
			M33.8,43.4c0,0-0.1,0.2-1,0.2c-0.9,0-4.8-0.3-4.8-0.3l-2.9-0.2c0,0-22.3-3.2-23.7-5.9"/>
	</g>
</g>
<path fill="#89CBE1" d="M9.1,28.9c0,0-0.3,0.4-0.8,0.9C8,30,7.7,30.3,7.4,30.6c-0.3,0.3-0.7,0.6-1,0.9c-0.4,0.3-0.7,0.6-1,0.9
	c-0.3,0.3-0.6,0.6-0.9,0.8c-0.3,0.2-0.4,0.5-0.6,0.6c-0.1,0.2-0.2,0.2-0.2,0.2s0-0.1,0.1-0.3c0.1-0.2,0.2-0.5,0.4-0.8
	c0.2-0.3,0.4-0.7,0.8-1c0.3-0.3,0.6-0.7,1-1c0.7-0.7,1.5-1.2,2.1-1.6C8.7,29.1,9.1,28.9,9.1,28.9"/>
<g opacity="0.3">
	<g>
		<defs>
			<rect id="SVGID_71_" x="23.9" y="45.1" width="2.4" height="4"/>
		</defs>
		<clipPath id="SVGID_72_">
			<use xlink:href="#SVGID_71_"  overflow="visible"/>
		</clipPath>
		<polygon clip-path="url(#SVGID_72_)" fill="#1498C3" points="25,45.1 26.3,48.9 26,49.1 23.9,45.8 		"/>
	</g>
</g>
<path fill="#A7A5A6" d="M73,41.3c0,0.3-0.3,0.6-0.6,0.5l-3.6-0.3c-0.3,0-0.6-0.3-0.5-0.6c0-0.3,0.3-0.6,0.6-0.5l3.6,0.3
	C72.8,40.7,73,41,73,41.3"/>
<path fill="#E1856C" d="M72.9,41.1c0,0.3-0.3,0.6-0.7,0.6l-3.3-0.3c-0.3,0-0.6-0.3-0.6-0.7c0-0.3,0.3-0.6,0.7-0.6l3.3,0.3
	C72.7,40.4,72.9,40.7,72.9,41.1"/>
<g>
	<g>
		<defs>
			<rect id="SVGID_73_" x="68.7" y="40.4" width="3.9" height="0.7"/>
		</defs>
		<clipPath id="SVGID_74_">
			<use xlink:href="#SVGID_73_"  overflow="visible"/>
		</clipPath>
		<path clip-path="url(#SVGID_74_)" fill="#E1856C" d="M72.6,40.9c0,0.1-0.1,0.2-0.2,0.2l-3.5-0.3c-0.1,0-0.2-0.1-0.2-0.2
			s0.1-0.2,0.2-0.2l3.5,0.3C72.5,40.7,72.6,40.8,72.6,40.9"/>
	</g>
</g>
<path fill="#A7A5A6" d="M9.9,38.1c-0.1,0.3-0.4,0.5-0.7,0.5L5.7,38c-0.3-0.1-0.5-0.4-0.5-0.7c0.1-0.3,0.4-0.5,0.7-0.5l3.6,0.6
	C9.7,37.5,10,37.8,9.9,38.1"/>
<path fill="#E1856C" d="M9.8,37.9c-0.1,0.3-0.4,0.6-0.7,0.5l-3.3-0.6c-0.3-0.1-0.6-0.4-0.5-0.7c0.1-0.3,0.4-0.6,0.7-0.5l3.3,0.6
	C9.7,37.3,9.9,37.6,9.8,37.9"/>
<g>
	<g>
		<defs>
			<rect id="SVGID_75_" x="5.7" y="36.8" width="3.8" height="1"/>
		</defs>
		<clipPath id="SVGID_76_">
			<use xlink:href="#SVGID_75_"  overflow="visible"/>
		</clipPath>
		<path clip-path="url(#SVGID_76_)" fill="#E1856C" d="M9.5,37.7c0,0.1-0.1,0.2-0.2,0.1l-3.5-0.6c-0.1,0-0.2-0.1-0.1-0.2
			c0-0.1,0.1-0.2,0.2-0.1l3.5,0.6C9.5,37.5,9.6,37.6,9.5,37.7"/>
	</g>
</g>
<path fill="#252A26" d="M59.8,27.6c0,0-0.4-0.5,0.1-0.7c0.5-0.1,0.8-0.1,0.8-0.1s0.6-0.2,1.3,0.8c0.7,1,2.4,3.3,2.4,3.3
	s1,1.8,0.4,1.8c-0.6,0-1.8,0.3-3-1.8C60.6,29,59.8,27.6,59.8,27.6"/>
<path fill="#EBECEB" d="M60,27.6c0,0-0.4-0.5,0.1-0.7c0.5-0.1,0.8-0.1,0.8-0.1s0.6-0.2,1.3,0.8c0.7,1,2.4,3.3,2.4,3.3s1,1.8,0.4,1.8
	c-0.6,0-1.8,0.3-3-1.8C60.7,29,60,27.6,60,27.6"/>
<path fill="#E5E6E5" d="M60.4,27.8c0,0-0.3-0.4,0.1-0.5c0.4-0.1,0.7-0.1,0.7-0.1s0.5-0.1,1.1,0.7c0.5,0.8,1.9,2.7,1.9,2.7
	s0.8,1.4,0.3,1.5C64,32,63,32.2,62,30.5C61,28.9,60.4,27.8,60.4,27.8"/>
<path fill="#1498C3" d="M58.2,14c-0.2-1.1-0.8-2.2-1.2-2.9L52.6,12c0.2,1.2,1.4,3.1,2.4,4.5l3.6-0.7C58.5,15.2,58.3,14.6,58.2,14"/>
<path fill="#1498C3" d="M58.6,17.6c0.3-0.1,0.2-0.9,0-1.9L55,16.5c0.7,1,1.3,1.7,1.3,1.7C56.4,18.2,58.6,17.6,58.6,17.6"/>
<path fill="#1498C3" d="M56.5,10.4c-2.2-0.4-3.9,0.9-3.9,0.9c-0.1,0.2-0.1,0.5-0.1,0.8l4.4-0.9C56.7,10.7,56.5,10.4,56.5,10.4"/>
<g opacity="0.5">
	<g>
		<defs>
			<rect id="SVGID_77_" x="55" y="15.7" width="3.8" height="2.5"/>
		</defs>
		<clipPath id="SVGID_78_">
			<use xlink:href="#SVGID_77_"  overflow="visible"/>
		</clipPath>
		<path clip-path="url(#SVGID_78_)" fill="#1498C3" d="M58.6,17.6c0.3-0.1,0.2-0.9,0-1.9L55,16.5c0.7,1,1.3,1.7,1.3,1.7
			C56.4,18.2,58.6,17.6,58.6,17.6"/>
	</g>
</g>
<path fill="#72C1DB" d="M56.5,10.4c-2.2-0.4-3.9,0.9-3.9,0.9c-0.1,0.2-0.1,0.5-0.1,0.8l4.4-0.9C56.7,10.7,56.5,10.4,56.5,10.4"/>
<g opacity="0.3">
	<g>
		<defs>
			<rect id="SVGID_79_" x="52.7" y="19" width="4.6" height="23.8"/>
		</defs>
		<clipPath id="SVGID_80_">
			<use xlink:href="#SVGID_79_"  overflow="visible"/>
		</clipPath>
		<path clip-path="url(#SVGID_80_)" fill="#E9E9E9" d="M54.7,19c0,0-0.3,0.2-0.9,0.7c-0.1,0.1-0.3,0.2-0.5,0.4
			c-0.2,0.1-0.4,0.2-0.5,0.5c-0.2,0.4,0,1,0.2,1.5c0.5,1.1,1.1,2.4,1.7,3.7c0.3,0.7,0.6,1.4,1,2.1c0.2,0.4,0.3,0.7,0.5,1.1
			c0.1,0.4,0.3,0.8,0.4,1.2c0.1,0.4,0.2,0.8,0.3,1.2c0.1,0.4,0.1,0.8,0.2,1.2c0.1,0.8,0.1,1.6,0.1,2.4c-0.1,0.8-0.1,1.5-0.4,2.2
			c-0.2,0.7-0.4,1.3-0.6,1.9c-0.2,0.6-0.4,1.1-0.6,1.5c-0.1,0.5-0.3,0.9-0.4,1.2c0,0.3-0.1,0.6-0.1,0.8c0,0.2,0,0.3,0,0.3
			s0-0.1-0.1-0.3c0-0.2,0-0.5,0-0.8c0.1-0.3,0.2-0.8,0.3-1.2c0.1-0.5,0.3-1,0.5-1.6c0.2-0.6,0.4-1.2,0.6-1.9
			c0.2-0.6,0.2-1.4,0.3-2.1c0-0.7,0-1.5-0.2-2.3c0-0.4-0.1-0.8-0.2-1.2c-0.1-0.4-0.2-0.8-0.3-1.2c-0.1-0.4-0.2-0.8-0.3-1.1
			c-0.1-0.4-0.3-0.7-0.5-1.1c-0.3-0.7-0.6-1.4-0.9-2.1c-0.6-1.4-1.2-2.7-1.6-3.8c-0.2-0.6-0.4-1.2-0.2-1.7c0.1-0.3,0.4-0.4,0.5-0.5
			c0.2-0.1,0.3-0.2,0.5-0.3C54.4,19.2,54.7,19,54.7,19"/>
	</g>
</g>
<path fill="#4F4C4D" d="M49.5,10.8l-0.2,0.6c0,0,0,0.2,0.2,0.3c0.2,0,0.5,0.1,0.5,0.1l0.6-0.1c0,0,0.1-0.1,0.1-0.3
	c0-0.2-0.2-0.6-0.2-0.6S50,10.5,49.5,10.8"/>
<g>
	<g>
		<defs>
			<rect id="SVGID_81_" x="49.3" y="10.7" width="0.4" height="0.9"/>
		</defs>
		<clipPath id="SVGID_82_">
			<use xlink:href="#SVGID_81_"  overflow="visible"/>
		</clipPath>
		<path clip-path="url(#SVGID_82_)" fill="#4F4C4D" d="M49.7,10.7c-0.1,0-0.1,0-0.2,0.1l-0.2,0.6c0,0,0,0.2,0.2,0.3c0,0,0,0,0,0
			c0-0.1,0-0.2,0-0.2L49.7,10.7z"/>
	</g>
</g>
<g>
	<g>
		<defs>
			<rect id="SVGID_83_" x="50.4" y="10.7" width="0.4" height="1"/>
		</defs>
		<clipPath id="SVGID_84_">
			<use xlink:href="#SVGID_83_"  overflow="visible"/>
		</clipPath>
		<path clip-path="url(#SVGID_84_)" fill="#4F4C4D" d="M50.7,11.3c0-0.2-0.2-0.6-0.2-0.6s-0.1,0-0.1,0c0,0.2,0.1,0.5,0.1,0.7
			c0,0.1,0,0.2,0,0.3l0.2,0C50.7,11.6,50.8,11.5,50.7,11.3"/>
	</g>
</g>
<polyline fill="none" stroke="#D3D2D2" stroke-width="0.586" stroke-linecap="round" stroke-miterlimit="10" points="50,10.8 
	49.9,10.2 46.1,1.8 "/>
<path fill="#BBBABA" d="M45.9,0c-0.3-0.1-0.7,0.4-0.8,0.9c-0.1,0.6,0.1,1.1,0.4,1.1l0.2,0c0.3,0.1,0.7-0.4,0.8-0.9
	c0.1-0.6-0.1-1.1-0.4-1.1L45.9,0z"/>
<path fill="#D3D2D2" d="M46.2,1.1c-0.1,0.6-0.4,1-0.7,0.9c-0.3,0-0.4-0.5-0.3-1.1c0.1-0.6,0.4-1,0.7-0.9C46.1,0.1,46.3,0.6,46.2,1.1
	"/>
<path fill="#F4F4F4" d="M46,1.1c-0.1,0.5-0.3,0.9-0.6,0.8c-0.2,0-0.4-0.5-0.3-1c0.1-0.5,0.3-0.9,0.6-0.8C46,0.2,46.1,0.6,46,1.1"/>
<path fill="#1498C3" d="M52.7,11c0,0-2.8-0.2-3.7,1.1c-0.9,1.3,3.7,0.7,3.7,0.7V11z"/>
<path fill="#4F4C4D" d="M51.5,10.8l-0.2,0.6c0,0,0,0.3,0.3,0.3c0.2,0,0.6,0.1,0.6,0.1l0.7-0.1c0,0,0.1-0.1,0.1-0.3
	c0-0.2-0.2-0.7-0.2-0.7S52,10.6,51.5,10.8"/>
<g>
	<g>
		<defs>
			<rect id="SVGID_85_" x="51.2" y="10.8" width="0.4" height="1"/>
		</defs>
		<clipPath id="SVGID_86_">
			<use xlink:href="#SVGID_85_"  overflow="visible"/>
		</clipPath>
		<path clip-path="url(#SVGID_86_)" fill="#4F4C4D" d="M51.6,10.8c-0.1,0-0.1,0-0.2,0.1l-0.2,0.6c0,0,0,0.3,0.3,0.3c0,0,0,0,0.1,0
			c0-0.1,0-0.2,0-0.2L51.6,10.8z"/>
	</g>
</g>
<g>
	<g>
		<defs>
			<rect id="SVGID_87_" x="52.5" y="10.7" width="0.4" height="1.1"/>
		</defs>
		<clipPath id="SVGID_88_">
			<use xlink:href="#SVGID_87_"  overflow="visible"/>
		</clipPath>
		<path clip-path="url(#SVGID_88_)" fill="#4F4C4D" d="M52.9,11.5c0-0.2-0.2-0.7-0.2-0.7s-0.1,0-0.2,0c0,0.2,0.1,0.6,0.1,0.8
			c0,0.1,0,0.2,0,0.3l0.2,0C52.8,11.8,52.9,11.7,52.9,11.5"/>
	</g>
</g>
<polyline fill="none" stroke="#D3D2D2" stroke-width="0.586" stroke-linecap="round" stroke-miterlimit="10" points="52.1,10.7 
	52.2,10.1 52.7,1.6 "/>
<path fill="#BBBABA" d="M52.3,0.2c-0.4-0.1-0.8,0.4-0.9,1.1c-0.1,0.7,0.1,1.3,0.5,1.4l0.3,0c0.4,0.1,0.8-0.4,0.9-1.1
	c0.1-0.7-0.1-1.3-0.5-1.4L52.3,0.2z"/>
<path fill="#D3D2D2" d="M52.6,1.5c-0.1,0.7-0.5,1.2-0.8,1.2c-0.3-0.1-0.5-0.7-0.4-1.4c0.1-0.7,0.5-1.2,0.8-1.2
	C52.6,0.2,52.7,0.8,52.6,1.5"/>
<path fill="#F4F4F4" d="M52.5,1.5c-0.1,0.6-0.4,1.1-0.7,1c-0.3-0.1-0.4-0.6-0.3-1.2c0.1-0.6,0.4-1.1,0.7-1S52.6,0.9,52.5,1.5"/>
<path fill="#252A26" d="M51,18.2l1-0.1l1.3-0.5c0,0,0.6-0.3,0.4-0.6c-0.2-0.3-1-0.5-1-0.5l-1.1-0.4c0,0-0.2-0.2-0.2-0.3
	c0-0.1-0.1-0.5-0.3-0.5c-0.2,0-0.5,0.3-0.5,0.3s-1.1-0.2-1.3,0.6C49,17.1,49.3,18,49.3,18S49.6,18.4,51,18.2"/>
<path fill="#535754" d="M51.3,17.3c0,0.6-0.5,1.1-1.1,1.1c-0.6,0-1.1-0.5-1.1-1.1s0.5-1.1,1.1-1.1C50.8,16.1,51.3,16.7,51.3,17.3"/>
<path fill="#535754" d="M50.9,17.1c0-0.1,0-0.2-0.1-0.2l-2,0.4l0.3,0.8l1.6-0.3C50.8,17.6,50.9,17.4,50.9,17.1"/>
<path fill="#818481" d="M50.1,16.5l-1.5,0.3l0.2,0.5l2-0.4C50.7,16.5,50.1,16.5,50.1,16.5"/>
<path fill="#3B3F3C" d="M50.5,18.1c0.1,0,0.2-0.1,0.3-0.3l-1.6,0.3l0.1,0.2C49.2,18.3,50.3,18.1,50.5,18.1"/>
<path fill="#303531" d="M49.7,17.6c0,0.5-0.4,0.9-0.9,0.9c-0.5,0-0.9-0.4-0.9-0.9c0-0.5,0.4-0.9,0.9-0.9
	C49.3,16.7,49.7,17.1,49.7,17.6"/>
<g>
	<g>
		<defs>
			<rect id="SVGID_89_" x="50.7" y="18.2" width="5.8" height="1.6"/>
		</defs>
		<clipPath id="SVGID_90_">
			<use xlink:href="#SVGID_89_"  overflow="visible"/>
		</clipPath>
		<path clip-path="url(#SVGID_90_)" fill="#515551" d="M50.7,19.9c0,0,0.4-0.1,0.9-0.2c0.6-0.1,1.3-0.3,2-0.5c0.7-0.2,1.5-0.4,2-0.6
			c0.5-0.2,0.9-0.4,0.9-0.4s-0.1,0.1-0.2,0.1c-0.1,0.1-0.3,0.2-0.6,0.4c-0.3,0.1-0.6,0.3-0.9,0.4c-0.3,0.1-0.7,0.2-1.1,0.3
			c-0.7,0.2-1.5,0.3-2.1,0.4C51,19.9,50.7,19.9,50.7,19.9"/>
	</g>
</g>
</svg>
