<?xml version="1.0" encoding="utf-8"?>
<!-- Generator: Adobe Illustrator 15.0.2, SVG Export Plug-In . SVG Version: 6.00 Build 0)  -->
<!DOCTYPE svg PUBLIC "-//W3C//DTD SVG 1.1//EN" "http://www.w3.org/Graphics/SVG/1.1/DTD/svg11.dtd">
<svg version="1.1" id="Layer_1" xmlns="http://www.w3.org/2000/svg" xmlns:xlink="http://www.w3.org/1999/xlink" x="0px" y="0px"
	 width="58.2px" height="36.8px" viewBox="0 0 58.2 36.8" enable-background="new 0 0 58.2 36.8" xml:space="preserve">
<path fill="#B2B1B1" d="M55.4,0h-13c0,0,0,0,0,0c-0.3,0.2-0.8,0.2-1.1,0h-0.2c0.1,0.4-0.1,0.9-0.4,1.1c-0.5,0.3-1,0.1-1.3-0.4
	l-0.1-0.2l0.1,0.2c0.2,0.5,0,1-0.5,1.3c-0.5,0.2-1,0-1.3-0.5l-0.1-0.2l0.1,0.3c0.2,0.5-0.1,1-0.6,1.2c-0.5,0.2-1-0.1-1.2-0.6L35.7,2
	l0.1,0.3c0.1,0.5-0.2,1-0.7,1.2c-0.5,0.1-1-0.2-1.2-0.7l-0.1-0.3l0,0.3c0.1,0.5-0.3,1-0.8,1.1c-0.5,0.1-1-0.3-1.1-0.8l0-0.3l0,0.3
	c0,0.5-0.3,1-0.9,1c-0.5,0-1-0.3-1-0.9L30,3v0.3c0,0.5-0.4,1-1,1c-0.5,0-1-0.4-1-1V3l0,0.2c0,0.5-0.5,0.9-1,0.9
	c-0.5,0-0.9-0.5-0.9-1l0-0.2l0,0.2c-0.1,0.5-0.6,0.9-1.1,0.8c-0.5-0.1-0.9-0.6-0.8-1.1l0-0.3l-0.1,0.2c-0.1,0.5-0.7,0.8-1.2,0.7
	c-0.5-0.1-0.8-0.7-0.7-1.2L22.5,2l-0.1,0.2c-0.2,0.5-0.7,0.8-1.2,0.6c-0.5-0.2-0.8-0.7-0.6-1.2l0.1-0.2l-0.1,0.2
	C20.3,2,19.8,2.2,19.3,2c-0.5-0.2-0.7-0.8-0.5-1.3l0.1-0.2l-0.1,0.2c-0.3,0.5-0.8,0.6-1.3,0.4C17.1,0.9,17,0.4,17.1,0h-0.2
	c-0.3,0.2-0.8,0.2-1.1,0c0,0,0,0,0,0h-13C1.2,0,0,1.2,0,2.8V34c0,1.5,1.2,2.8,2.8,2.8h13c0,0,0,0,0,0c0.3-0.2,0.8-0.2,1.1,0h0.2
	c-0.1-0.4,0.1-0.9,0.4-1.1c0.5-0.3,1-0.1,1.3,0.4l0.1,0.2l-0.1-0.2c-0.2-0.5,0-1,0.5-1.3c0.5-0.2,1,0,1.3,0.5l0.1,0.2l-0.1-0.2
	c-0.2-0.5,0.1-1,0.6-1.2c0.5-0.2,1,0.1,1.2,0.6l0.1,0.2l-0.1-0.2c-0.1-0.5,0.2-1,0.7-1.2c0.5-0.1,1,0.2,1.2,0.7l0.1,0.2l0-0.2
	c-0.1-0.5,0.3-1,0.8-1.1c0.5-0.1,1,0.3,1.1,0.8l0,0.2l0-0.2c0-0.5,0.3-1,0.9-1s1,0.3,1,0.9l0,0.2v-0.2c0-0.5,0.4-1,1-1
	c0.5,0,1,0.4,1,1v0.2l0-0.2c0-0.5,0.5-0.9,1-0.9c0.5,0,0.9,0.5,0.9,1l0,0.2l0-0.2c0.1-0.5,0.6-0.9,1.1-0.8c0.5,0.1,0.9,0.6,0.8,1.1
	l0,0.2l0.1-0.2c0.1-0.5,0.7-0.8,1.2-0.7c0.5,0.1,0.8,0.7,0.7,1.2l-0.1,0.2l0.1-0.2c0.2-0.5,0.7-0.8,1.2-0.6c0.5,0.2,0.8,0.7,0.6,1.2
	l-0.1,0.2l0.1-0.2c0.2-0.5,0.8-0.7,1.3-0.5c0.5,0.2,0.7,0.8,0.5,1.3l-0.1,0.2l0.1-0.2c0.3-0.5,0.8-0.6,1.3-0.4
	c0.4,0.2,0.6,0.7,0.4,1.1h0.2c0.3-0.2,0.8-0.2,1.1,0c0,0,0,0,0,0h13c1.5,0,2.8-1.2,2.8-2.8V2.8C58.2,1.2,56.9,0,55.4,0"/>
<g opacity="0.24">
	<g>
		<defs>
			<rect id="SVGID_1_" x="0" y="0" width="58.1" height="36.8"/>
		</defs>
		<clipPath id="SVGID_2_">
			<use xlink:href="#SVGID_1_"  overflow="visible"/>
		</clipPath>
		<g clip-path="url(#SVGID_2_)">
			<g>
				<defs>
					<rect id="SVGID_3_" x="0" y="0.6" width="57.1" height="36.2"/>
				</defs>
				<clipPath id="SVGID_4_">
					<use xlink:href="#SVGID_3_"  overflow="visible"/>
				</clipPath>
				<path clip-path="url(#SVGID_4_)" fill="#B2B1B1" d="M55.4,36.3H42.5c-0.2-0.1-0.5-0.2-0.7-0.2c-0.1,0-0.1,0-0.2,0
					c-0.1-0.3-0.3-0.7-0.7-0.9c-0.2-0.1-0.5-0.2-0.8-0.2c-0.1,0-0.2,0-0.3,0c-0.1-0.3-0.4-0.6-0.8-0.8c-0.2-0.1-0.4-0.1-0.6-0.1
					c-0.2,0-0.3,0-0.5,0.1c-0.2-0.3-0.5-0.6-0.8-0.7c-0.2-0.1-0.3-0.1-0.5-0.1c-0.2,0-0.4,0-0.6,0.1c-0.2-0.3-0.5-0.5-0.9-0.6
					c-0.1,0-0.3,0-0.4,0c-0.2,0-0.5,0.1-0.7,0.2c-0.2-0.3-0.5-0.5-0.9-0.6c-0.1,0-0.2,0-0.3,0c-0.3,0-0.6,0.1-0.8,0.2
					c-0.3-0.3-0.6-0.4-1-0.5c0,0-0.1,0-0.1,0c-0.3,0-0.7,0.1-0.9,0.3c-0.3-0.2-0.6-0.4-1-0.4c-0.4,0-0.7,0.1-1,0.4
					c-0.3-0.2-0.6-0.3-0.9-0.3c0,0-0.1,0-0.1,0c-0.4,0-0.7,0.2-1,0.5c-0.2-0.1-0.5-0.2-0.8-0.2c-0.1,0-0.2,0-0.3,0
					c-0.4,0.1-0.7,0.3-0.9,0.6c-0.2-0.1-0.4-0.2-0.7-0.2c-0.1,0-0.3,0-0.4,0.1c-0.4,0.1-0.7,0.3-0.9,0.6c-0.2-0.1-0.4-0.1-0.6-0.1
					c-0.2,0-0.4,0-0.5,0.1c-0.4,0.1-0.7,0.4-0.8,0.7c-0.1,0-0.3-0.1-0.4-0.1c-0.2,0-0.4,0-0.6,0.1c-0.4,0.2-0.6,0.5-0.8,0.8
					c-0.1,0-0.2,0-0.3,0c-0.3,0-0.5,0.1-0.8,0.2c-0.3,0.2-0.6,0.5-0.7,0.9c-0.1,0-0.1,0-0.2,0c-0.2,0-0.5,0.1-0.7,0.2H2.8
					c-1.2,0-2.2-1-2.2-2.2V2.8c0-0.8,0.4-1.4,1-1.8L1,0.6C0.4,1.2,0,1.9,0,2.8V34c0,1.5,1.2,2.8,2.8,2.8h13c0,0,0,0,0,0
					c0.2-0.1,0.4-0.2,0.5-0.2c0.2,0,0.4,0.1,0.6,0.2h0.2c-0.1-0.4,0.1-0.9,0.4-1.1c0.2-0.1,0.3-0.1,0.5-0.1c0.3,0,0.7,0.2,0.8,0.5
					l0.1,0.2l-0.1-0.2c-0.2-0.5,0-1,0.5-1.3c0.1-0.1,0.3-0.1,0.4-0.1c0.4,0,0.7,0.2,0.9,0.6l0.1,0.2l-0.1-0.2
					c-0.2-0.5,0.1-1,0.6-1.2c0.1,0,0.2-0.1,0.3-0.1c0.4,0,0.8,0.2,0.9,0.6l0.1,0.2l-0.1-0.2c-0.1-0.5,0.2-1,0.7-1.2
					c0.1,0,0.2,0,0.2,0c0.4,0,0.8,0.3,0.9,0.7l0.1,0.2l0-0.2c-0.1-0.5,0.3-1,0.8-1.1c0.1,0,0.1,0,0.2,0c0.5,0,0.9,0.3,0.9,0.8l0,0.2
					l0-0.2c0-0.5,0.3-1,0.9-1c0,0,0.1,0,0.1,0c0.5,0,0.9,0.4,1,0.9l0,0.2v-0.2c0-0.5,0.4-1,1-1c0.5,0,1,0.4,1,1v0.2l0-0.2
					c0-0.5,0.5-0.9,1-0.9c0,0,0.1,0,0.1,0c0.5,0,0.9,0.5,0.9,1l0,0.2l0-0.2c0.1-0.5,0.5-0.8,0.9-0.8c0.1,0,0.1,0,0.2,0
					c0.5,0.1,0.9,0.6,0.8,1.1l0,0.2l0.1-0.2c0.1-0.4,0.5-0.7,0.9-0.7c0.1,0,0.2,0,0.2,0c0.5,0.1,0.8,0.7,0.7,1.2l-0.1,0.2l0.1-0.2
					c0.1-0.4,0.5-0.6,0.9-0.6c0.1,0,0.2,0,0.3,0.1c0.5,0.2,0.8,0.7,0.6,1.2l-0.1,0.2l0.1-0.2c0.2-0.3,0.5-0.6,0.9-0.6
					c0.1,0,0.3,0,0.4,0.1c0.5,0.2,0.7,0.8,0.5,1.3l-0.1,0.2l0.1-0.2c0.2-0.3,0.5-0.5,0.8-0.5c0.2,0,0.3,0,0.5,0.1
					c0.4,0.2,0.6,0.7,0.4,1.1h0.2c0.2-0.1,0.4-0.2,0.6-0.2c0.2,0,0.4,0.1,0.5,0.2c0,0,0,0,0,0h13c0.7,0,1.3-0.2,1.8-0.6l-0.5-0.3
					C56.3,36.1,55.8,36.3,55.4,36.3"/>
			</g>
		</g>
		<g clip-path="url(#SVGID_2_)">
			<g>
				<defs>
					<rect id="SVGID_5_" x="1" y="0" width="57.1" height="36.2"/>
				</defs>
				<clipPath id="SVGID_6_">
					<use xlink:href="#SVGID_5_"  overflow="visible"/>
				</clipPath>
				<path clip-path="url(#SVGID_6_)" fill="#EBEBEB" d="M58.2,34V2.8c0-1.5-1.2-2.8-2.8-2.8h-13c0,0,0,0,0,0
					c-0.2,0.1-0.4,0.2-0.5,0.2c-0.2,0-0.4-0.1-0.6-0.2h-0.2c0.1,0.4-0.1,0.9-0.4,1.1c-0.2,0.1-0.3,0.1-0.5,0.1
					c-0.3,0-0.7-0.2-0.8-0.5l-0.1-0.2l0.1,0.2c0.2,0.5,0,1-0.5,1.3c-0.1,0.1-0.3,0.1-0.4,0.1c-0.4,0-0.7-0.2-0.9-0.6l-0.1-0.2
					l0.1,0.3c0.2,0.5-0.1,1-0.6,1.2c-0.1,0-0.2,0.1-0.3,0.1c-0.4,0-0.8-0.2-0.9-0.6L35.7,2l0.1,0.3c0.1,0.5-0.2,1-0.7,1.2
					c-0.1,0-0.2,0-0.2,0c-0.4,0-0.8-0.3-0.9-0.7l-0.1-0.3l0,0.3c0.1,0.5-0.3,1-0.8,1.1c-0.1,0-0.1,0-0.2,0c-0.5,0-0.9-0.3-0.9-0.8
					l0-0.3l0,0.3c0,0.5-0.3,1-0.9,1c0,0-0.1,0-0.1,0c-0.5,0-0.9-0.4-1-0.9L30,3v0.3c0,0.5-0.4,1-1,1s-1-0.4-1-1V3l0,0.2
					c0,0.5-0.5,0.9-1,0.9c0,0-0.1,0-0.1,0c-0.5,0-0.9-0.5-0.9-1l0-0.2l0,0.2c-0.1,0.5-0.5,0.8-0.9,0.8c-0.1,0-0.1,0-0.2,0
					c-0.5-0.1-0.9-0.6-0.8-1.1l0-0.3l-0.1,0.2c-0.1,0.4-0.5,0.7-0.9,0.7c-0.1,0-0.2,0-0.2,0c-0.5-0.1-0.8-0.7-0.7-1.2L22.5,2
					l-0.1,0.2c-0.1,0.4-0.5,0.6-0.9,0.6c-0.1,0-0.2,0-0.3-0.1c-0.5-0.2-0.8-0.7-0.6-1.2l0.1-0.2l-0.1,0.2c-0.2,0.3-0.5,0.6-0.9,0.6
					c-0.1,0-0.3,0-0.4-0.1c-0.5-0.2-0.7-0.8-0.5-1.3l0.1-0.2l-0.1,0.2C18.6,1,18.3,1.2,18,1.2c-0.2,0-0.3,0-0.5-0.1
					C17.1,0.9,17,0.4,17.1,0h-0.2c-0.2,0.1-0.4,0.2-0.5,0.2c-0.2,0-0.4-0.1-0.5-0.2c0,0,0,0,0,0h-13C2.1,0,1.5,0.2,1,0.6L1.5,1
					c0.4-0.3,0.8-0.4,1.3-0.4h12.9c0.2,0.1,0.5,0.2,0.7,0.2c0.1,0,0.1,0,0.2,0c0.1,0.3,0.4,0.7,0.7,0.9c0.2,0.1,0.5,0.2,0.8,0.2
					c0.1,0,0.2,0,0.3,0c0.1,0.3,0.4,0.6,0.8,0.8c0.2,0.1,0.4,0.1,0.6,0.1c0.2,0,0.3,0,0.4-0.1c0.2,0.3,0.5,0.6,0.8,0.7
					c0.2,0.1,0.3,0.1,0.5,0.1c0.2,0,0.4,0,0.6-0.1c0.2,0.3,0.5,0.5,0.9,0.6C23.1,4,23.2,4,23.3,4c0.2,0,0.5-0.1,0.7-0.2
					c0.2,0.3,0.6,0.5,0.9,0.6c0.1,0,0.2,0,0.3,0c0.3,0,0.6-0.1,0.8-0.2c0.3,0.3,0.6,0.4,1,0.5c0,0,0.1,0,0.1,0
					c0.3,0,0.7-0.1,0.9-0.3c0.3,0.2,0.6,0.4,1,0.4s0.7-0.1,1-0.4c0.3,0.2,0.6,0.3,0.9,0.3c0,0,0.1,0,0.1,0c0.4,0,0.7-0.2,1-0.5
					c0.2,0.1,0.5,0.2,0.8,0.2c0.1,0,0.2,0,0.3,0c0.4-0.1,0.7-0.3,0.9-0.6C34.3,3.9,34.6,4,34.8,4c0.1,0,0.3,0,0.4-0.1
					c0.4-0.1,0.7-0.3,0.9-0.6c0.2,0.1,0.4,0.1,0.6,0.1c0.2,0,0.3,0,0.5-0.1c0.4-0.1,0.7-0.4,0.8-0.7c0.1,0,0.3,0.1,0.5,0.1
					c0.2,0,0.4,0,0.6-0.1c0.4-0.2,0.6-0.5,0.8-0.8c0.1,0,0.2,0,0.3,0c0.3,0,0.5-0.1,0.8-0.2c0.3-0.2,0.6-0.5,0.7-0.9
					c0.1,0,0.1,0,0.2,0c0.2,0,0.5-0.1,0.7-0.2h12.9c1.2,0,2.2,1,2.2,2.2V34c0,0.8-0.4,1.4-1,1.8l0.5,0.3
					C57.8,35.7,58.2,34.9,58.2,34"/>
			</g>
		</g>
	</g>
</g>
<path fill="#D3D2D2" d="M16.9,0h-1.1c0,0,0,0,0,0C16.1,0.2,16.6,0.2,16.9,0"/>
<path fill="#D3D2D2" d="M42.3,0C42.3,0,42.3,0,42.3,0l-1.1,0C41.6,0.2,42,0.2,42.3,0"/>
<path fill="#D3D2D2" d="M41.3,36.8h1.1c0,0,0,0,0,0C42,36.6,41.6,36.6,41.3,36.8"/>
<path fill="#656263" d="M12.6,23.5H0v5h12.6c1.4,0,2.5-1.1,2.5-2.5C15.1,24.6,14,23.5,12.6,23.5"/>
<path fill="#D3D2D2" d="M15.8,36.8L15.8,36.8l1.1,0C16.6,36.6,16.1,36.6,15.8,36.8"/>
<path fill="#D3D2D2" d="M48.6,18.1c0-4.6-3.7-8.3-8.3-8.3H0v11.9h48c0.3-0.9,0.5-1.9,0.5-2.9V18.1z"/>
<path fill="#E9E9E9" d="M0,27.1h40.2c3.6,0,6.7-2.3,7.8-5.5H0V27.1z"/>
<g>
	<g>
		<defs>
			<rect id="SVGID_7_" x="40" y="9.7" width="9.1" height="17.4"/>
		</defs>
		<clipPath id="SVGID_8_">
			<use xlink:href="#SVGID_7_"  overflow="visible"/>
		</clipPath>
		<path clip-path="url(#SVGID_8_)" fill="#E9E9E9" d="M40.8,9.7H40c4.6,0,8.3,3.7,8.3,8.3v0.7c0,1-0.2,2-0.5,2.9
			c-1.2,3.2-4.2,5.5-7.8,5.5h0.7c3.6,0,6.7-2.3,7.8-5.5c0.3-0.9,0.5-1.9,0.5-2.9v-0.7C49.1,13.5,45.4,9.7,40.8,9.7"/>
	</g>
</g>
<g opacity="0.43">
	<g>
		<defs>
			<rect id="SVGID_9_" x="0.1" y="9.7" width="48.4" height="11.9"/>
		</defs>
		<clipPath id="SVGID_10_">
			<use xlink:href="#SVGID_9_"  overflow="visible"/>
		</clipPath>
		<g clip-path="url(#SVGID_10_)">
			<g>
				<defs>
					<rect id="SVGID_11_" x="3.1" y="9.7" width="13.1" height="2.4"/>
				</defs>
				<clipPath id="SVGID_12_">
					<use xlink:href="#SVGID_11_"  overflow="visible"/>
				</clipPath>
				<polygon clip-path="url(#SVGID_12_)" fill="#B2B1B1" points="13.8,12.1 16.2,9.7 5.4,9.7 3,12.1 				"/>
			</g>
		</g>
		<g clip-path="url(#SVGID_10_)">
			<g>
				<defs>
					<rect id="SVGID_13_" x="20.2" y="9.7" width="6.2" height="2.4"/>
				</defs>
				<clipPath id="SVGID_14_">
					<use xlink:href="#SVGID_13_"  overflow="visible"/>
				</clipPath>
				<polygon clip-path="url(#SVGID_14_)" fill="#B2B1B1" points="24,12.1 26.4,9.7 22.6,9.7 20.2,12.1 				"/>
			</g>
		</g>
		<g clip-path="url(#SVGID_10_)">
			<g>
				<defs>
					<rect id="SVGID_15_" x="16.4" y="9.7" width="3.4" height="2.4"/>
				</defs>
				<clipPath id="SVGID_16_">
					<use xlink:href="#SVGID_15_"  overflow="visible"/>
				</clipPath>
				<polygon clip-path="url(#SVGID_16_)" fill="#B2B1B1" points="17.5,12.1 19.9,9.7 18.8,9.7 16.4,12.1 				"/>
			</g>
		</g>
		<g clip-path="url(#SVGID_10_)">
			<g>
				<defs>
					<rect id="SVGID_17_" x="45.1" y="11.6" width="1.1" height="0.5"/>
				</defs>
				<clipPath id="SVGID_18_">
					<use xlink:href="#SVGID_17_"  overflow="visible"/>
				</clipPath>
				<path clip-path="url(#SVGID_18_)" fill="#B2B1B1" d="M45.6,11.6l-0.5,0.5h1.1C45.9,11.9,45.8,11.8,45.6,11.6"/>
			</g>
		</g>
		<g clip-path="url(#SVGID_10_)">
			<g>
				<defs>
					<rect id="SVGID_19_" x="0.7" y="12.1" width="13.1" height="2.4"/>
				</defs>
				<clipPath id="SVGID_20_">
					<use xlink:href="#SVGID_19_"  overflow="visible"/>
				</clipPath>
				<polygon clip-path="url(#SVGID_20_)" fill="#D3D2D2" points="3,12.1 0.7,14.5 11.4,14.5 13.8,12.1 				"/>
			</g>
		</g>
		<g clip-path="url(#SVGID_10_)">
			<g>
				<defs>
					<rect id="SVGID_21_" x="17.9" y="12.1" width="6.2" height="2.4"/>
				</defs>
				<clipPath id="SVGID_22_">
					<use xlink:href="#SVGID_21_"  overflow="visible"/>
				</clipPath>
				<polygon clip-path="url(#SVGID_22_)" fill="#D3D2D2" points="17.8,14.5 21.7,14.5 24,12.1 20.2,12.1 				"/>
			</g>
		</g>
		<g clip-path="url(#SVGID_10_)">
			<g>
				<defs>
					<rect id="SVGID_23_" x="14" y="12.1" width="3.4" height="2.4"/>
				</defs>
				<clipPath id="SVGID_24_">
					<use xlink:href="#SVGID_23_"  overflow="visible"/>
				</clipPath>
				<polygon clip-path="url(#SVGID_24_)" fill="#D3D2D2" points="15.1,14.5 17.5,12.1 16.4,12.1 14,14.5 				"/>
			</g>
		</g>
		<g clip-path="url(#SVGID_10_)">
			<g>
				<defs>
					<rect id="SVGID_25_" x="42.7" y="12.1" width="4.1" height="2.4"/>
				</defs>
				<clipPath id="SVGID_26_">
					<use xlink:href="#SVGID_25_"  overflow="visible"/>
				</clipPath>
				<path clip-path="url(#SVGID_26_)" fill="#D3D2D2" d="M45.1,14.5l1.7-1.7c-0.2-0.2-0.4-0.5-0.7-0.7h-1.1l-2.4,2.4H45.1z"/>
			</g>
		</g>
		<g clip-path="url(#SVGID_10_)">
			<g>
				<defs>
					<rect id="SVGID_27_" x="0.1" y="14.5" width="11.3" height="2.4"/>
				</defs>
				<clipPath id="SVGID_28_">
					<use xlink:href="#SVGID_27_"  overflow="visible"/>
				</clipPath>
				<polygon clip-path="url(#SVGID_28_)" fill="#E7E6E7" points="11.4,14.5 0.7,14.5 0.1,15.1 0.1,16.9 9,16.9 				"/>
			</g>
		</g>
		<g clip-path="url(#SVGID_10_)">
			<g>
				<defs>
					<rect id="SVGID_29_" x="15.5" y="14.5" width="6.2" height="2.4"/>
				</defs>
				<clipPath id="SVGID_30_">
					<use xlink:href="#SVGID_29_"  overflow="visible"/>
				</clipPath>
				<polygon clip-path="url(#SVGID_30_)" fill="#E7E6E7" points="19.3,16.9 21.7,14.5 17.8,14.5 15.5,16.9 				"/>
			</g>
		</g>
		<g clip-path="url(#SVGID_10_)">
			<g>
				<defs>
					<rect id="SVGID_31_" x="11.7" y="14.5" width="3.4" height="2.4"/>
				</defs>
				<clipPath id="SVGID_32_">
					<use xlink:href="#SVGID_31_"  overflow="visible"/>
				</clipPath>
				<polygon clip-path="url(#SVGID_32_)" fill="#E7E6E7" points="14,14.5 11.7,16.9 12.7,16.9 15.1,14.5 				"/>
			</g>
		</g>
		<g clip-path="url(#SVGID_10_)">
			<g>
				<defs>
					<rect id="SVGID_33_" x="40.3" y="14.5" width="4.8" height="2.4"/>
				</defs>
				<clipPath id="SVGID_34_">
					<use xlink:href="#SVGID_33_"  overflow="visible"/>
				</clipPath>
				<polygon clip-path="url(#SVGID_34_)" fill="#E7E6E7" points="40.3,16.9 42.7,16.9 45.1,14.5 42.7,14.5 				"/>
			</g>
		</g>
		<g clip-path="url(#SVGID_10_)">
			<g>
				<defs>
					<rect id="SVGID_35_" x="45.5" y="14.5" width="2.9" height="2.3"/>
				</defs>
				<clipPath id="SVGID_36_">
					<use xlink:href="#SVGID_35_"  overflow="visible"/>
				</clipPath>
				<path clip-path="url(#SVGID_36_)" fill="#E7E6E7" d="M45.5,16.9H48l0.5-0.5c-0.1-0.6-0.3-1.2-0.6-1.8L45.5,16.9z"/>
			</g>
		</g>
		<g clip-path="url(#SVGID_10_)">
			<g>
				<defs>
					<rect id="SVGID_37_" x="0.1" y="16.9" width="8.9" height="2.4"/>
				</defs>
				<clipPath id="SVGID_38_">
					<use xlink:href="#SVGID_37_"  overflow="visible"/>
				</clipPath>
				<polygon clip-path="url(#SVGID_38_)" fill="#EDEDED" points="9,16.9 0.1,16.9 0.1,19.2 6.7,19.2 				"/>
			</g>
		</g>
		<g clip-path="url(#SVGID_10_)">
			<g>
				<defs>
					<rect id="SVGID_39_" x="13.1" y="16.9" width="6.2" height="2.4"/>
				</defs>
				<clipPath id="SVGID_40_">
					<use xlink:href="#SVGID_39_"  overflow="visible"/>
				</clipPath>
				<polygon clip-path="url(#SVGID_40_)" fill="#EDEDED" points="15.5,16.9 13.1,19.2 16.9,19.2 19.3,16.9 				"/>
			</g>
		</g>
		<g clip-path="url(#SVGID_10_)">
			<g>
				<defs>
					<rect id="SVGID_41_" x="9.3" y="16.9" width="3.4" height="2.4"/>
				</defs>
				<clipPath id="SVGID_42_">
					<use xlink:href="#SVGID_41_"  overflow="visible"/>
				</clipPath>
				<polygon clip-path="url(#SVGID_42_)" fill="#EDEDED" points="11.7,16.9 9.3,19.2 10.3,19.2 12.7,16.9 				"/>
			</g>
		</g>
		<g clip-path="url(#SVGID_10_)">
			<g>
				<defs>
					<rect id="SVGID_43_" x="37.9" y="16.9" width="4.8" height="2.4"/>
				</defs>
				<clipPath id="SVGID_44_">
					<use xlink:href="#SVGID_43_"  overflow="visible"/>
				</clipPath>
				<polygon clip-path="url(#SVGID_44_)" fill="#EDEDED" points="37.9,19.2 40.3,19.2 42.7,16.9 40.3,16.9 				"/>
			</g>
		</g>
		<g clip-path="url(#SVGID_10_)">
			<g>
				<defs>
					<rect id="SVGID_45_" x="43.2" y="16.9" width="4.8" height="2.4"/>
				</defs>
				<clipPath id="SVGID_46_">
					<use xlink:href="#SVGID_45_"  overflow="visible"/>
				</clipPath>
				<polygon clip-path="url(#SVGID_46_)" fill="#EDEDED" points="45.6,19.2 48,16.9 45.5,16.9 43.2,19.2 				"/>
			</g>
		</g>
		<g clip-path="url(#SVGID_10_)">
			<g>
				<defs>
					<rect id="SVGID_47_" x="0.1" y="19.2" width="6.6" height="2.4"/>
				</defs>
				<clipPath id="SVGID_48_">
					<use xlink:href="#SVGID_47_"  overflow="visible"/>
				</clipPath>
				<polygon clip-path="url(#SVGID_48_)" fill="#FFFFFF" points="0.1,19.2 0.1,21.6 4.3,21.6 6.7,19.2 				"/>
			</g>
		</g>
		<g clip-path="url(#SVGID_10_)">
			<g>
				<defs>
					<rect id="SVGID_49_" x="10.7" y="19.2" width="6.2" height="2.4"/>
				</defs>
				<clipPath id="SVGID_50_">
					<use xlink:href="#SVGID_49_"  overflow="visible"/>
				</clipPath>
				<polygon clip-path="url(#SVGID_50_)" fill="#FFFFFF" points="13.1,19.2 10.7,21.6 14.5,21.6 16.9,19.2 				"/>
			</g>
		</g>
		<g clip-path="url(#SVGID_10_)">
			<g>
				<defs>
					<rect id="SVGID_51_" x="6.9" y="19.2" width="3.4" height="2.4"/>
				</defs>
				<clipPath id="SVGID_52_">
					<use xlink:href="#SVGID_51_"  overflow="visible"/>
				</clipPath>
				<polygon clip-path="url(#SVGID_52_)" fill="#FFFFFF" points="9.3,19.2 6.9,21.6 7.9,21.6 10.3,19.2 				"/>
			</g>
		</g>
		<g clip-path="url(#SVGID_10_)">
			<g>
				<defs>
					<rect id="SVGID_53_" x="35.5" y="19.2" width="4.8" height="2.4"/>
				</defs>
				<clipPath id="SVGID_54_">
					<use xlink:href="#SVGID_53_"  overflow="visible"/>
				</clipPath>
				<polygon clip-path="url(#SVGID_54_)" fill="#FFFFFF" points="37.9,19.2 35.5,21.6 37.9,21.6 40.3,19.2 				"/>
			</g>
		</g>
		<g clip-path="url(#SVGID_10_)">
			<g>
				<defs>
					<rect id="SVGID_55_" x="40.8" y="19.2" width="4.8" height="2.4"/>
				</defs>
				<clipPath id="SVGID_56_">
					<use xlink:href="#SVGID_55_"  overflow="visible"/>
				</clipPath>
				<polygon clip-path="url(#SVGID_56_)" fill="#FFFFFF" points="43.2,19.2 40.8,21.6 43.2,21.6 45.6,19.2 				"/>
			</g>
		</g>
	</g>
</g>
<g>
	<g>
		<defs>
			<rect id="SVGID_57_" x="18.6" y="12.7" width="8.3" height="8.3"/>
		</defs>
		<clipPath id="SVGID_58_">
			<use xlink:href="#SVGID_57_"  overflow="visible"/>
		</clipPath>
		<path clip-path="url(#SVGID_58_)" fill="#B2B1B1" d="M26.9,16.9c0,2.3-1.9,4.1-4.1,4.1c-2.3,0-4.1-1.9-4.1-4.1
			c0-2.3,1.9-4.1,4.1-4.1C25.1,12.7,26.9,14.6,26.9,16.9"/>
	</g>
</g>
<path fill="#C4C3C3" d="M28.2,16.8c-0.6,2.3-3,3.7-5.4,3.1c-2.3-0.6-3.7-3-3.1-5.4s3-3.7,5.4-3.1C27.5,12.1,28.9,14.5,28.2,16.8"/>
<path fill="#D2D2D2" d="M27.9,16.4c-0.5,1.9-2.5,3.1-4.5,2.6c-1.9-0.5-3.1-2.5-2.6-4.5c0.5-1.9,2.5-3.1,4.5-2.6
	C27.3,12.4,28.4,14.4,27.9,16.4"/>
<path fill="#E1E1E1" d="M27.6,15.9c-0.4,1.6-2,2.5-3.6,2c-1.6-0.4-2.5-2-2.1-3.6c0.4-1.6,2-2.5,3.6-2C27.1,12.7,28,14.3,27.6,15.9"
	/>
<path fill="#F0F0F0" d="M27.2,15.4c-0.3,1.2-1.5,1.9-2.7,1.5c-1.2-0.3-1.9-1.5-1.5-2.7c0.3-1.2,1.5-1.9,2.7-1.5
	C26.8,13,27.5,14.2,27.2,15.4"/>
<path fill="#FFFFFF" d="M26.9,14.9c-0.2,0.8-1,1.2-1.8,1c-0.8-0.2-1.2-1-1-1.8c0.2-0.8,1-1.2,1.8-1S27.1,14.2,26.9,14.9"/>
<path fill="#231F20" d="M24.5,17.7c-0.1,0.3-0.4,0.5-0.7,0.4L23,17.9c-0.3-0.1-0.5-0.4-0.4-0.7l1-3.6c0.1-0.3,0.4-0.5,0.7-0.4
	l0.8,0.2c0.3,0.1,0.5,0.4,0.4,0.7L24.5,17.7z"/>
<path fill="#231F20" d="M22,16.1c-0.3-0.1-0.5-0.4-0.4-0.7l0.2-0.8c0.1-0.3,0.4-0.5,0.7-0.4l3.6,1c0.3,0.1,0.5,0.4,0.4,0.7l-0.2,0.8
	c-0.1,0.3-0.4,0.5-0.7,0.4L22,16.1z"/>
</svg>
