<?xml version="1.0" encoding="utf-8"?>
<!-- Generator: Adobe Illustrator 15.0.2, SVG Export Plug-In . SVG Version: 6.00 Build 0)  -->
<!DOCTYPE svg PUBLIC "-//W3C//DTD SVG 1.1//EN" "http://www.w3.org/Graphics/SVG/1.1/DTD/svg11.dtd">
<svg version="1.1" id="Layer_1" xmlns="http://www.w3.org/2000/svg" xmlns:xlink="http://www.w3.org/1999/xlink" x="0px" y="0px"
	 width="64.6px" height="52.3px" viewBox="0 0 64.6 52.3" enable-background="new 0 0 64.6 52.3" xml:space="preserve">
<path fill="#B52126" d="M64.6,50.9c0,0.2-0.2,0.4-0.4,0.4H0.4c-0.2,0-0.4-0.2-0.4-0.4V1.6C0,1.4,0.2,0,0.4,0h63.8
	c0.2,0,0.4,1.4,0.4,1.6V50.9z"/>
<g>
	<g>
		<defs>
			<rect id="SVGID_1_" x="0.2" width="64.3" height="0.5"/>
		</defs>
		<clipPath id="SVGID_2_">
			<use xlink:href="#SVGID_1_"  overflow="visible"/>
		</clipPath>
		<path clip-path="url(#SVGID_2_)" fill="#9A1C1F" d="M0.2,0.5h64.3C64.4,0.2,64.3,0,64.2,0H0.4C0.3,0,0.2,0.2,0.2,0.5"/>
	</g>
</g>
<path fill="#DA9093" d="M1.6,3.6c0.2,1.9,0.4,3.7,0.6,5.6l0,5.6v11.1V37v5.6c-0.2,1.9-0.3,3.7-0.6,5.6c-0.2-1.9-0.4-3.7-0.6-5.6V37
	V25.9V14.8l0-5.6C1.2,7.3,1.3,5.5,1.6,3.6"/>
<polygon fill="#DA9093" points="63,3.5 23.9,3.1 63,2.7 "/>
<path fill="#DEDDDE" d="M56.4,41.1c0,0.7-0.5,1.2-1.2,1.2H9.3c-0.7,0-1.2-0.5-1.2-1.2V10.2C8.1,9.6,8.6,9,9.3,9h45.9
	c0.6,0,1.2,0.5,1.2,1.2V41.1z"/>
<g opacity="0.3">
	<g>
		<defs>
			<rect id="SVGID_3_" x="9" y="10.2" width="48.2" height="32.9"/>
		</defs>
		<clipPath id="SVGID_4_">
			<use xlink:href="#SVGID_3_"  overflow="visible"/>
		</clipPath>
		<path clip-path="url(#SVGID_4_)" fill="#DEDDDE" d="M57.1,10.2c0.1,3.3,0.1,6.7,0.1,10c0,3.3,0.1,6.7,0,10l-0.1,10l0,1.3
			c0,0.4-0.1,0.9-0.5,1.2c-0.4,0.3-0.8,0.3-1.2,0.3l-1.3,0l-5,0C42.4,43,35.7,43,29.1,43c-3.3,0-6.7,0-10,0c-3.3,0-6.7-0.1-10-0.1v0
			c3.3-0.1,6.7-0.1,10-0.1c3.3,0,6.7-0.1,10,0c6.7,0,13.4,0,20.1,0.1l5,0l1.3,0c0.4,0,0.8,0,1.2-0.2c0.3-0.2,0.5-0.6,0.4-1.1l0-1.3
			l-0.1-10c0-3.3,0-6.7,0-10C56.9,16.9,57,13.5,57.1,10.2L57.1,10.2z"/>
	</g>
</g>
<g>
	<g>
		<defs>
			<rect id="SVGID_5_" x="8" y="8.9" width="48.6" height="33.5"/>
		</defs>
		<clipPath id="SVGID_6_">
			<use xlink:href="#SVGID_5_"  overflow="visible"/>
		</clipPath>
		<path clip-path="url(#SVGID_6_)" fill="none" stroke="#9F4E5F" stroke-width="0.278" stroke-miterlimit="10" d="M56.4,41.1
			c0,0.7-0.5,1.2-1.2,1.2H9.3c-0.7,0-1.2-0.5-1.2-1.2V10.2C8.1,9.6,8.6,9,9.3,9h45.9c0.6,0,1.2,0.5,1.2,1.2V41.1z"/>
	</g>
</g>
<g>
	<g>
		<defs>
			<rect id="SVGID_7_" x="2" y="50.2" width="61" height="1.1"/>
		</defs>
		<clipPath id="SVGID_8_">
			<use xlink:href="#SVGID_7_"  overflow="visible"/>
		</clipPath>
		<path clip-path="url(#SVGID_8_)" fill="#9F4E5F" d="M2,51.1c2.5-0.2,5.1-0.3,7.6-0.5l7.6-0.3c5.1-0.2,10.2-0.1,15.3-0.2
			c5.1,0.1,10.2,0.1,15.3,0.2l7.6,0.3c2.5,0.2,5.1,0.2,7.6,0.5v0.1l-30.5,0.1L2,51.2V51.1z"/>
	</g>
</g>
<path fill="#F4F4F4" d="M62.6,48.5c0,2-1.6,3.6-3.6,3.6c-2,0-3.6-1.6-3.6-3.6s1.6-3.6,3.6-3.6C61,44.9,62.6,46.5,62.6,48.5"/>
<path fill="#E9E9E9" d="M59,48.5c1.1,0,2.1-0.2,2.9-0.5c-0.4-1.2-1.5-2.1-2.9-2.1s-2.5,0.9-2.9,2.1C56.9,48.3,57.9,48.5,59,48.5"/>
<path fill="#DEDDDE" d="M59,47.2c1.1,0,2.1,0.3,2.8,0.7c-0.4-1.2-1.5-2-2.8-2c-1.3,0-2.4,0.8-2.8,2C57,47.5,57.9,47.2,59,47.2"/>
<path fill="#BDBCBC" d="M59,51.9c-1.5,0-2.7-0.9-3.2-2.3h-0.4c0.5,1.5,1.9,2.6,3.6,2.6s3.1-1.1,3.6-2.6h-0.4
	C61.8,51,60.5,51.9,59,51.9"/>
<path fill="#E9E9E9" d="M59,44.7c-2.1,0-3.8,1.7-3.8,3.8c0,0.4,0.1,0.8,0.2,1.2h0.4c-0.1-0.4-0.2-0.7-0.2-1.2c0-1.9,1.5-3.4,3.4-3.4
	s3.4,1.5,3.4,3.4c0,0.4-0.1,0.8-0.2,1.2h0.4c0.1-0.4,0.2-0.8,0.2-1.2C62.8,46.4,61.1,44.7,59,44.7"/>
<path fill="#F4F4F4" d="M9.2,48.5c0,2-1.6,3.6-3.6,3.6c-2,0-3.6-1.6-3.6-3.6s1.6-3.6,3.6-3.6C7.6,44.9,9.2,46.5,9.2,48.5"/>
<path fill="#E9E9E9" d="M5.6,48.5c1.1,0,2.1-0.2,2.9-0.5c-0.4-1.2-1.5-2.1-2.9-2.1c-1.4,0-2.5,0.9-2.9,2.1
	C3.5,48.3,4.5,48.5,5.6,48.5"/>
<path fill="#DEDDDE" d="M5.6,47.2c1.1,0,2.1,0.3,2.8,0.7c-0.4-1.2-1.5-2-2.8-2c-1.3,0-2.4,0.8-2.8,2C3.5,47.5,4.5,47.2,5.6,47.2"/>
<path fill="#BDBCBC" d="M5.6,51.9c-1.5,0-2.7-0.9-3.2-2.3H2c0.5,1.5,1.9,2.6,3.6,2.6s3.1-1.1,3.6-2.6H8.8C8.3,51,7.1,51.9,5.6,51.9"
	/>
<path fill="#E9E9E9" d="M5.6,44.7c-2.1,0-3.8,1.7-3.8,3.8c0,0.4,0.1,0.8,0.2,1.2h0.4c-0.1-0.4-0.2-0.7-0.2-1.2
	c0-1.9,1.5-3.4,3.4-3.4S9,46.6,9,48.5c0,0.4-0.1,0.8-0.2,1.2h0.4c0.1-0.4,0.2-0.8,0.2-1.2C9.4,46.4,7.7,44.7,5.6,44.7"/>
<path fill="#F0D196" d="M10.6,8.2H5.5V3.1h5.1V8.2z M5.9,7.8h4.4V3.4H5.9V7.8z"/>
<path fill="#F0D196" d="M10.1,5.6c0,1.1-0.9,1.9-1.9,1.9c-1.1,0-1.9-0.9-1.9-1.9c0-1.1,0.9-1.9,1.9-1.9C9.2,3.7,10.1,4.6,10.1,5.6"
	/>
</svg>
