<?xml version="1.0" encoding="utf-8"?>
<!-- Generator: Adobe Illustrator 15.0.2, SVG Export Plug-In . SVG Version: 6.00 Build 0)  -->
<!DOCTYPE svg PUBLIC "-//W3C//DTD SVG 1.1//EN" "http://www.w3.org/Graphics/SVG/1.1/DTD/svg11.dtd">
<svg version="1.1" id="Layer_1" xmlns="http://www.w3.org/2000/svg" xmlns:xlink="http://www.w3.org/1999/xlink" x="0px" y="0px"
	 width="79.3px" height="39.4px" viewBox="0 0 79.3 39.4" enable-background="new 0 0 79.3 39.4" xml:space="preserve">
<path fill="#EBD467" d="M11.9,37.9c0,0.6-0.5,1.1-1.1,1.1c-0.6,0-1.1-0.5-1.1-1.1s0.5-1.1,1.1-1.1C11.4,36.9,11.9,37.3,11.9,37.9"/>
<path fill="#B69C5B" d="M10.8,37.5c-0.2,0-0.4,0.2-0.4,0.4c0,0.2,0.2,0.4,0.4,0.4c0.2,0,0.4-0.2,0.4-0.4
	C11.2,37.7,11,37.5,10.8,37.5"/>
<path fill="#B69C5B" d="M10.8,39c-0.6,0-1.1-0.5-1.1-1.1H9.5c0,0.7,0.6,1.3,1.3,1.3s1.3-0.6,1.3-1.3h-0.2C11.9,38.5,11.4,39,10.8,39
	"/>
<path fill="#F1E195" d="M10.8,39c0.6,0,1.1-0.5,1.1-1.1h-0.2c0,0.5-0.4,0.9-0.9,0.9c-0.5,0-0.9-0.4-0.9-0.9H9.7
	C9.7,38.5,10.2,39,10.8,39"/>
<path fill="#F1E195" d="M10.8,36.6c-0.7,0-1.3,0.6-1.3,1.3h0.2c0-0.6,0.5-1.1,1.1-1.1c0.6,0,1.1,0.5,1.1,1.1h0.2
	C12.1,37.2,11.5,36.6,10.8,36.6"/>
<path fill="#B69C5B" d="M9.9,37.9c0-0.5,0.4-0.9,0.9-0.9c0.5,0,0.9,0.4,0.9,0.9h0.2c0-0.6-0.5-1.1-1.1-1.1c-0.6,0-1.1,0.5-1.1,1.1
	H9.9z"/>
<polygon fill="#EBD467" points="12.2,35.3 11,35.3 11.5,37.3 12.2,37.5 12.9,37.3 13.3,35.3 "/>
<g>
	<g>
		<defs>
			<rect id="SVGID_1_" x="11.4" y="35.3" width="1.5" height="2.2"/>
		</defs>
		<clipPath id="SVGID_2_">
			<use xlink:href="#SVGID_1_"  overflow="visible"/>
		</clipPath>
		<polygon clip-path="url(#SVGID_2_)" fill="#EBD467" points="12.2,35.3 11.4,35.3 11.7,37.4 12.2,37.5 12.6,37.4 12.9,35.3 		"/>
	</g>
</g>
<g>
	<g>
		<defs>
			<rect id="SVGID_3_" x="11.4" y="36.7" width="1.6" height="0.8"/>
		</defs>
		<clipPath id="SVGID_4_">
			<use xlink:href="#SVGID_3_"  overflow="visible"/>
		</clipPath>
		<path clip-path="url(#SVGID_4_)" fill="#EBD467" d="M12.7,36.8c-0.3-0.2-0.6-0.1-0.9,0c-0.1,0-0.3,0.1-0.4,0.2l0.1,0.4l0.7,0.2
			l0.7-0.2l0.1-0.3C12.9,37,12.8,36.9,12.7,36.8"/>
	</g>
</g>
<path fill="#EBD467" d="M13.1,37.9c-0.1,0.2-0.4,0.2-0.5,0.2c-0.2,0-0.3,0-0.3,0C12.1,38.2,12,38,11.8,38l0,0c0,0,0,0,0,0l-0.1,0
	l-0.1,0c-0.1,0-0.2,0-0.3,0c-0.2,0-0.4,0-0.6,0.1l-0.1-0.1c0.1-0.2,0.3-0.4,0.5-0.6c0.2-0.2,0.5-0.3,0.7-0.4c0.3-0.1,0.6-0.2,0.9,0
	c0.2,0.1,0.2,0.2,0.3,0.4c0,0.1,0,0.2,0.1,0.4L13.1,37.9z"/>
<path fill="#5E411A" d="M14,32.4c0,0.4-0.3,0.7-0.7,0.7H11c-0.4,0-0.7-0.3-0.7-0.7c0-0.4,0.3-0.7,0.7-0.7h2.4
	C13.7,31.7,14,32,14,32.4"/>
<path fill="#5E411A" d="M14.3,32.9c0,0.2-0.1,0.3-0.3,0.3h-3.6c-0.2,0-0.3-0.1-0.3-0.3s0.1-0.3,0.3-0.3H14
	C14.1,32.6,14.3,32.8,14.3,32.9"/>
<path fill="#5E411A" d="M13.8,32.7v1.7c0,0.9-0.7,1.2-1.6,1.2c-0.9,0-1.6-0.3-1.6-1.2v-1.7"/>
<g opacity="0.25">
	<g>
		<defs>
			<rect id="SVGID_5_" x="10.8" y="31.7" width="2.7" height="3.9"/>
		</defs>
		<clipPath id="SVGID_6_">
			<use xlink:href="#SVGID_5_"  overflow="visible"/>
		</clipPath>
		<path clip-path="url(#SVGID_6_)" fill="#5E411A" d="M13.4,32.4c0,0.4-0.2,0.7-0.4,0.7h-1.6c-0.2,0-0.4-0.3-0.4-0.7
			s0.2-0.7,0.4-0.7h1.6C13.2,31.7,13.4,32,13.4,32.4"/>
		<path clip-path="url(#SVGID_6_)" fill="#5E411A" d="M13.5,33c0,0.2-0.1,0.3-0.2,0.3H11c-0.1,0-0.2-0.1-0.2-0.3s0.1-0.3,0.2-0.3
			h2.3C13.4,32.7,13.5,32.8,13.5,33"/>
		<path clip-path="url(#SVGID_6_)" fill="#5E411A" d="M13.2,32.7v1.7c0,0.9-0.5,1.2-1,1.2c-0.6,0-1-0.3-1-1.2v-1.7"/>
	</g>
</g>
<g>
	<g>
		<defs>
			<rect id="SVGID_7_" x="12.9" y="31.7" width="0.6" height="2.7"/>
		</defs>
		<clipPath id="SVGID_8_">
			<use xlink:href="#SVGID_7_"  overflow="visible"/>
		</clipPath>
		<path clip-path="url(#SVGID_8_)" fill="#5E411A" d="M13.2,34.5c0-0.4,0-0.8-0.1-1.2l0,0l0.1,0c0.1,0,0.2,0,0.2,0
			c0,0,0.1-0.1,0.1-0.2c0-0.1,0-0.3-0.1-0.3l0,0l0,0c0-0.2,0.1-0.4,0-0.6c-0.1-0.2-0.2-0.4-0.4-0.4c0.2,0,0.4,0.2,0.4,0.4
			c0.1,0.2,0.1,0.4,0,0.6l0-0.1c0.2,0.1,0.2,0.3,0.2,0.4c0,0.1-0.1,0.2-0.1,0.2c-0.1,0.1-0.2,0-0.2,0l0.1-0.1
			C13.2,33.7,13.2,34.1,13.2,34.5"/>
	</g>
</g>
<g>
	<g>
		<defs>
			<rect id="SVGID_9_" x="10.5" y="33.2" width="3.2" height="0.1"/>
		</defs>
		<clipPath id="SVGID_10_">
			<use xlink:href="#SVGID_9_"  overflow="visible"/>
		</clipPath>
		<rect x="10.5" y="33.2" clip-path="url(#SVGID_10_)" fill="#5E411A" width="3.2" height="0.1"/>
	</g>
</g>
<g opacity="0.3">
	<g>
		<defs>
			<rect id="SVGID_11_" x="10.4" y="32.5" width="3.5" height="0.1"/>
		</defs>
		<clipPath id="SVGID_12_">
			<use xlink:href="#SVGID_11_"  overflow="visible"/>
		</clipPath>
		<path clip-path="url(#SVGID_12_)" fill="#F3EFD9" d="M10.4,32.6c0.6-0.1,1.2-0.1,1.8-0.1c0.6,0,1.2,0,1.8,0.1v0L10.4,32.6
			L10.4,32.6z"/>
	</g>
</g>
<path fill="#EBD467" d="M66.6,38.1c0,0.6-0.5,1.1-1.1,1.1c-0.6,0-1.1-0.5-1.1-1.1S65,37,65.6,37C66.2,37,66.6,37.5,66.6,38.1"/>
<path fill="#B69C5B" d="M65.6,37.7c-0.2,0-0.4,0.2-0.4,0.4c0,0.2,0.2,0.4,0.4,0.4c0.2,0,0.4-0.2,0.4-0.4
	C66,37.8,65.8,37.7,65.6,37.7"/>
<path fill="#B69C5B" d="M65.6,39.1c-0.6,0-1.1-0.5-1.1-1.1h-0.2c0,0.7,0.6,1.3,1.3,1.3s1.3-0.6,1.3-1.3h-0.2
	C66.6,38.7,66.2,39.1,65.6,39.1"/>
<path fill="#F1E195" d="M65.6,39.1c0.6,0,1.1-0.5,1.1-1.1h-0.2c0,0.5-0.4,0.9-0.9,0.9s-0.9-0.4-0.9-0.9h-0.2
	C64.5,38.7,65,39.1,65.6,39.1"/>
<path fill="#F1E195" d="M65.6,36.8c-0.7,0-1.3,0.6-1.3,1.3h0.2c0-0.6,0.5-1.1,1.1-1.1s1.1,0.5,1.1,1.1h0.2
	C66.8,37.4,66.3,36.8,65.6,36.8"/>
<path fill="#B69C5B" d="M64.7,38.1c0-0.5,0.4-0.9,0.9-0.9c0.5,0,0.9,0.4,0.9,0.9h0.2c0-0.6-0.5-1.1-1.1-1.1c-0.6,0-1.1,0.5-1.1,1.1
	H64.7z"/>
<polygon fill="#EBD467" points="66.9,35.4 65.8,35.4 66.2,37.5 66.9,37.6 67.6,37.5 68.1,35.4 "/>
<g>
	<g>
		<defs>
			<rect id="SVGID_13_" x="66.2" y="35.4" width="1.5" height="2.2"/>
		</defs>
		<clipPath id="SVGID_14_">
			<use xlink:href="#SVGID_13_"  overflow="visible"/>
		</clipPath>
		<polygon clip-path="url(#SVGID_14_)" fill="#EBD467" points="66.9,35.4 66.2,35.4 66.5,37.5 66.9,37.7 67.4,37.5 67.7,35.4 		"/>
	</g>
</g>
<g>
	<g>
		<defs>
			<rect id="SVGID_15_" x="66.1" y="36.8" width="1.6" height="0.8"/>
		</defs>
		<clipPath id="SVGID_16_">
			<use xlink:href="#SVGID_15_"  overflow="visible"/>
		</clipPath>
		<path clip-path="url(#SVGID_16_)" fill="#EBD467" d="M67.5,37c-0.3-0.2-0.6-0.1-0.9,0c-0.1,0-0.3,0.1-0.4,0.2l0.1,0.4l0.7,0.2
			l0.7-0.2l0.1-0.3C67.7,37.1,67.6,37,67.5,37"/>
	</g>
</g>
<path fill="#EBD467" d="M67.8,38c-0.1,0.2-0.4,0.2-0.5,0.2c-0.2,0-0.3,0-0.3,0c-0.1,0.1-0.2-0.1-0.4-0.2l0,0c0,0,0,0,0,0l-0.1,0
	l-0.1,0c-0.1,0-0.2,0-0.3,0c-0.2,0-0.4,0-0.6,0.1l-0.1-0.1c0.1-0.2,0.3-0.4,0.5-0.6c0.2-0.2,0.5-0.3,0.7-0.4c0.3-0.1,0.6-0.2,0.9,0
	c0.2,0.1,0.2,0.2,0.3,0.4c0,0.1,0,0.2,0.1,0.4L67.8,38z"/>
<path fill="#5E411A" d="M68.8,32.5c0,0.4-0.3,0.7-0.7,0.7h-2.4c-0.4,0-0.7-0.3-0.7-0.7c0-0.4,0.3-0.7,0.7-0.7h2.4
	C68.5,31.8,68.8,32.1,68.8,32.5"/>
<path fill="#5E411A" d="M69,33.1c0,0.2-0.1,0.3-0.3,0.3h-3.6c-0.2,0-0.3-0.1-0.3-0.3s0.1-0.3,0.3-0.3h3.6C68.9,32.8,69,32.9,69,33.1
	"/>
<path fill="#5E411A" d="M68.5,32.8v1.7c0,0.9-0.7,1.2-1.6,1.2c-0.9,0-1.6-0.3-1.6-1.2v-1.7"/>
<g opacity="0.25">
	<g>
		<defs>
			<rect id="SVGID_17_" x="65.6" y="31.9" width="2.7" height="3.9"/>
		</defs>
		<clipPath id="SVGID_18_">
			<use xlink:href="#SVGID_17_"  overflow="visible"/>
		</clipPath>
		<path clip-path="url(#SVGID_18_)" fill="#5E411A" d="M68.2,32.5c0,0.4-0.2,0.7-0.4,0.7h-1.6c-0.2,0-0.4-0.3-0.4-0.7
			c0-0.4,0.2-0.7,0.4-0.7h1.6C68,31.9,68.2,32.2,68.2,32.5"/>
		<path clip-path="url(#SVGID_18_)" fill="#5E411A" d="M68.3,33.1c0,0.2-0.1,0.3-0.2,0.3h-2.3c-0.1,0-0.2-0.1-0.2-0.3
			s0.1-0.3,0.2-0.3h2.3C68.2,32.8,68.3,32.9,68.3,33.1"/>
		<path clip-path="url(#SVGID_18_)" fill="#5E411A" d="M68,32.9v1.7c0,0.9-0.5,1.2-1,1.2c-0.6,0-1-0.3-1-1.2v-1.7"/>
	</g>
</g>
<g>
	<g>
		<defs>
			<rect id="SVGID_19_" x="67.7" y="31.9" width="0.6" height="2.7"/>
		</defs>
		<clipPath id="SVGID_20_">
			<use xlink:href="#SVGID_19_"  overflow="visible"/>
		</clipPath>
		<path clip-path="url(#SVGID_20_)" fill="#5E411A" d="M68,34.6c0-0.4,0-0.8-0.1-1.2l0,0l0.1,0c0.1,0,0.2,0,0.2,0
			c0,0,0.1-0.1,0.1-0.2c0-0.1,0-0.3-0.1-0.3l0,0l0,0c0.1-0.2,0.1-0.4,0-0.6c-0.1-0.2-0.2-0.4-0.4-0.4c0.2,0,0.4,0.2,0.4,0.4
			c0.1,0.2,0.1,0.4,0,0.6l0-0.1c0.2,0.1,0.2,0.3,0.2,0.4c0,0.1,0,0.2-0.1,0.2c-0.1,0.1-0.2,0-0.2,0l0.1-0.1C68,33.8,68,34.2,68,34.6
			"/>
	</g>
</g>
<g>
	<g>
		<defs>
			<rect id="SVGID_21_" x="65.3" y="33.4" width="3.2" height="0.1"/>
		</defs>
		<clipPath id="SVGID_22_">
			<use xlink:href="#SVGID_21_"  overflow="visible"/>
		</clipPath>
		<rect x="65.3" y="33.4" clip-path="url(#SVGID_22_)" fill="#5E411A" width="3.2" height="0.1"/>
	</g>
</g>
<g opacity="0.3">
	<g>
		<defs>
			<rect id="SVGID_23_" x="65.1" y="32.7" width="3.5" height="0.1"/>
		</defs>
		<clipPath id="SVGID_24_">
			<use xlink:href="#SVGID_23_"  overflow="visible"/>
		</clipPath>
		<path clip-path="url(#SVGID_24_)" fill="#F3EFD9" d="M65.1,32.8c0.6-0.1,1.2-0.1,1.8-0.1c0.6,0,1.2,0,1.8,0.1v0L65.1,32.8
			L65.1,32.8z"/>
	</g>
</g>
<path fill="#C78962" d="M70.1,14.1c0,2.9-2.3,5.2-5.2,5.2H14.5c-2.9,0-5.2-2.3-5.2-5.2V5.2c0-2.9,2.3-5.2,5.2-5.2h50.3
	c2.9,0,5.2,2.3,5.2,5.2V14.1z"/>
<path fill="#CA906C" d="M69,10.8c0,2.3-1.9,4.2-4.2,4.2H14.5c-2.3,0-4.2-1.9-4.2-4.2V4.2c0-2.3,1.9-4.2,4.2-4.2h50.3
	C67.1,0,69,1.9,69,4.2V10.8z"/>
<path fill="#CE9876" d="M67.9,7.6c0,1.7-1.4,3.1-3.1,3.1H14.5c-1.7,0-3.1-1.4-3.1-3.1V3.1c0-1.7,1.4-3.1,3.1-3.1h50.3
	c1.7,0,3.1,1.4,3.1,3.1V7.6z"/>
<path fill="#D29F80" d="M66.9,4.3c0,1.1-0.9,2.1-2.1,2.1H14.5c-1.1,0-2.1-0.9-2.1-2.1V2.1C12.5,1,13.4,0,14.5,0h50.3
	c1.1,0,2.1,0.9,2.1,2.1V4.3z"/>
<path fill="#D5A789" d="M65.8,1.1c0,0.6-0.5,1-1,1H14.5c-0.6,0-1-0.5-1-1s0.5-1,1-1h50.3C65.4,0.1,65.8,0.5,65.8,1.1"/>
<rect x="10.9" y="19.6" fill="#C78962" width="58.3" height="5.5"/>
<path fill="#C78962" d="M70.1,26.9c0,0.7-0.6,1.3-1.3,1.3H10.6c-0.7,0-1.3-0.6-1.3-1.3v-2.6c0-0.7,0.6-1.3,1.3-1.3h58.2
	c0.7,0,1.3,0.6,1.3,1.3V26.9z"/>
<path fill="#C78962" d="M70.1,31.4c0,0.6-0.6,1.1-1.3,1.1H10.6c-0.7,0-1.3-0.5-1.3-1.1v-2.1c0-0.6,0.6-1.1,1.3-1.1h58.2
	c0.7,0,1.3,0.5,1.3,1.1V31.4z"/>
<g>
	<g>
		<defs>
			<rect id="SVGID_25_" x="9.3" y="9.7" width="5.8" height="10"/>
		</defs>
		<clipPath id="SVGID_26_">
			<use xlink:href="#SVGID_25_"  overflow="visible"/>
		</clipPath>
		<polygon clip-path="url(#SVGID_26_)" fill="#C78962" points="9.3,9.7 15,14.8 13.6,19.1 10.9,19.6 		"/>
	</g>
</g>
<g>
	<g>
		<defs>
			<rect id="SVGID_27_" x="64.3" y="9.7" width="5.8" height="10"/>
		</defs>
		<clipPath id="SVGID_28_">
			<use xlink:href="#SVGID_27_"  overflow="visible"/>
		</clipPath>
		<polygon clip-path="url(#SVGID_28_)" fill="#C78962" points="70.1,9.7 64.3,14.8 65.7,19.1 68.4,19.6 		"/>
	</g>
</g>
<g>
	<g>
		<defs>
			<rect id="SVGID_29_" x="13.2" y="20.5" width="52.9" height="5.1"/>
		</defs>
		<clipPath id="SVGID_30_">
			<use xlink:href="#SVGID_29_"  overflow="visible"/>
		</clipPath>
		<path clip-path="url(#SVGID_30_)" fill="#C78962" d="M39.7,20.5V23c0,0,0,0,0,0c0,0,0,0,0,0L39.7,20.5L13.2,22v3.6
			c0,0,1.1-1.8,4.4-1.8h20.7c0,0,1.2-0.4,1.4-0.6c0.2,0.3,1.4,0.6,1.4,0.6h20.7c3.3,0,4.4,1.8,4.4,1.8V22L39.7,20.5z"/>
	</g>
</g>
<g>
	<g>
		<defs>
			<rect id="SVGID_31_" x="13.2" y="22" width="52.9" height="2.1"/>
		</defs>
		<clipPath id="SVGID_32_">
			<use xlink:href="#SVGID_31_"  overflow="visible"/>
		</clipPath>
		<path clip-path="url(#SVGID_32_)" fill="#C78962" d="M39.7,22v1c0,0,0,0,0,0c0,0,0,0,0,0L39.7,22l-26.5,0.6v1.5
			c0,0,1.1-0.7,4.4-0.7h20.7c0,0,1.2-0.1,1.4-0.3c0.2,0.1,1.4,0.3,1.4,0.3h20.7c3.3,0,4.4,0.7,4.4,0.7v-1.5L39.7,22z"/>
	</g>
</g>
<path fill="#C78962" d="M10,32.5c-2,0-3.7,0.7-3.7-1.3c0-0.8,0-1.7,0-2.7c0-3.1,0.1-7.2-0.2-9.5c-0.1-1.1-0.5-2.3-0.9-2.9
	c-0.4-0.5-1.8-1.8-2.5-2.2c-1.8-0.5-3-2.3-2.7-4.2c0.3-2,2.2-3.4,4.3-3.1c2.9,0.5,6.5,4.4,7.2,5.6c1.3,2.1,1.8,4.8,1.9,5.8
	c0.4,2.8,0.3,7.1,0.3,10.6c0,0.9,0,1.8,0,2.6C13.7,33.2,12,32.5,10,32.5"/>
<g>
	<g>
		<defs>
			<rect id="SVGID_33_" x="1.6" y="8.3" width="10.5" height="22.7"/>
		</defs>
		<clipPath id="SVGID_34_">
			<use xlink:href="#SVGID_33_"  overflow="visible"/>
		</clipPath>
		
			<path clip-path="url(#SVGID_34_)" fill="none" stroke="#C78962" stroke-width="0.433" stroke-linecap="round" stroke-miterlimit="10" d="
			M11.8,30.8c0-0.6,0-1.3,0-2l0-0.1c0-3.4,0.1-7.6-0.3-10.3c-0.1-0.7-0.5-3.2-1.6-5.1C9.3,12.1,6.1,8.8,4,8.5c-0.1,0-0.2,0-0.3,0
			C2.8,8.5,2,9.1,1.9,10c-0.2,0.9,0.4,1.8,1.3,2.1l0.2,0.1l0.2,0.1c0.9,0.5,2.5,2,3.1,2.7l0.1,0.2c0.6,1,0.9,2.5,1.1,3.6
			c0.3,2.4,0.3,6.7,0.2,9.8c0,0.8,0,1.6,0,2.2"/>
	</g>
</g>
<g>
	<g>
		<defs>
			<rect id="SVGID_35_" x="1.5" y="8.2" width="10.6" height="22.9"/>
		</defs>
		<clipPath id="SVGID_36_">
			<use xlink:href="#SVGID_35_"  overflow="visible"/>
		</clipPath>
		
			<line clip-path="url(#SVGID_36_)" fill="none" stroke="#ECC57C" stroke-width="0.618" stroke-linecap="round" stroke-miterlimit="10" x1="11.8" y1="30.8" x2="11.8" y2="30.8"/>
		
			<path clip-path="url(#SVGID_36_)" fill="none" stroke="#ECC57C" stroke-width="0.618" stroke-linecap="round" stroke-miterlimit="10" stroke-dasharray="0,1.231" d="
			M11.8,29.5c0-0.3,0-0.5,0-0.8l0-0.1c0-3.4,0.1-7.6-0.3-10.3c-0.1-0.7-0.5-3.2-1.6-5.1C9.3,12.2,6.1,8.9,4,8.5c-0.1,0-0.2,0-0.3,0
			c-0.9,0-1.7,0.7-1.8,1.6c-0.2,0.9,0.4,1.8,1.3,2.1l0.2,0.1l0.2,0.1c0.9,0.5,2.5,2,3,2.7l0.1,0.2c0.6,1,0.9,2.5,1.1,3.6
			c0.3,2.4,0.3,6.7,0.2,9.8c0,0.6,0,1.1,0,1.6"/>
		
			<line clip-path="url(#SVGID_36_)" fill="none" stroke="#ECC57C" stroke-width="0.618" stroke-linecap="round" stroke-miterlimit="10" x1="8.1" y1="30.8" x2="8.1" y2="30.8"/>
	</g>
</g>
<path fill="#C78962" d="M35.8,14.5H17.1c-2.1,0-3.8,0.8-3.8,3.1V18v0.3V22c0,0.6,0.4,1,1,1h24.5c0.5,0,1-0.5,1-1v-3.8V18v-0.4
	C39.7,15.3,37.9,14.5,35.8,14.5"/>
<path fill="#C78962" d="M69.3,32.5c2,0,3.7,0.7,3.7-1.3c0-0.8,0-1.7,0-2.7c0-3.1-0.1-7.2,0.2-9.5c0.1-1.1,0.5-2.3,0.9-2.9
	c0.4-0.5,1.8-1.8,2.5-2.2c1.8-0.5,3-2.3,2.7-4.2c-0.3-2-2.2-3.4-4.3-3.1c-2.9,0.5-6.5,4.4-7.2,5.6C66.5,14.4,66,17,65.9,18
	c-0.4,2.8-0.3,7.1-0.3,10.6c0,0.9,0,1.8,0,2.6C65.6,33.2,67.3,32.5,69.3,32.5"/>
<path fill="#C78962" d="M43.5,14.5h18.7c2.1,0,3.8,0.8,3.8,3.1V18v0.3V22c0,0.6-0.4,1-1,1H40.6c-0.5,0-1-0.5-1-1v-3.8V18v-0.4
	C39.7,15.3,41.4,14.5,43.5,14.5"/>
<g>
	<g>
		<defs>
			<rect id="SVGID_37_" x="13.2" y="14.4" width="26.5" height="3.8"/>
		</defs>
		<clipPath id="SVGID_38_">
			<use xlink:href="#SVGID_37_"  overflow="visible"/>
		</clipPath>
		<path clip-path="url(#SVGID_38_)" fill="#C78962" d="M39.6,18.3c-0.1-0.7-0.1-1.3-0.4-1.8c-0.3-0.5-0.7-0.9-1.3-1.1
			c-1.1-0.4-2.3-0.2-3.7-0.2c-2.6,0.1-5.2,0.1-7.8,0.2c-2.6-0.1-5.2-0.1-7.8-0.2c-1.3-0.1-2.6-0.3-3.7,0.2c-0.5,0.2-1,0.6-1.3,1.1
			c-0.3,0.5-0.3,1.2-0.4,1.8h-0.1c0-0.6,0-1.3,0.2-1.9c0.2-0.6,0.7-1.1,1.3-1.4c1.2-0.6,2.6-0.4,3.9-0.5l7.8,0l7.8,0
			c1.3,0,2.7-0.1,3.9,0.5c0.6,0.3,1.1,0.8,1.3,1.4C39.7,16.9,39.7,17.6,39.6,18.3L39.6,18.3z"/>
	</g>
</g>
<g>
	<g>
		<defs>
			<rect id="SVGID_39_" x="39.6" y="14.4" width="26.5" height="3.8"/>
		</defs>
		<clipPath id="SVGID_40_">
			<use xlink:href="#SVGID_39_"  overflow="visible"/>
		</clipPath>
		<path clip-path="url(#SVGID_40_)" fill="#C78962" d="M39.6,18.3c0-0.6,0-1.3,0.2-1.9c0.2-0.6,0.7-1.1,1.3-1.4
			c1.2-0.6,2.6-0.4,3.9-0.5l7.8,0l7.8,0c1.3,0,2.7-0.1,3.9,0.5c0.6,0.3,1.1,0.8,1.3,1.4c0.3,0.6,0.2,1.3,0.2,1.9H66
			c-0.1-0.7-0.1-1.3-0.4-1.8c-0.3-0.5-0.7-0.9-1.3-1.1c-1.1-0.4-2.3-0.2-3.7-0.2c-2.6,0.1-5.2,0.1-7.8,0.2c-2.6-0.1-5.2-0.1-7.8-0.2
			c-1.3-0.1-2.6-0.3-3.7,0.2c-0.5,0.2-1,0.6-1.3,1.1C39.8,16.9,39.8,17.6,39.6,18.3L39.6,18.3z"/>
	</g>
</g>
<g>
	<g>
		<defs>
			<rect id="SVGID_41_" x="13.7" y="17.3" width="25.9" height="0.3"/>
		</defs>
		<clipPath id="SVGID_42_">
			<use xlink:href="#SVGID_41_"  overflow="visible"/>
		</clipPath>
		<polygon clip-path="url(#SVGID_42_)" fill="#C78962" points="13.7,17.3 39.7,17.3 39.7,17.4 36.4,17.5 33.2,17.5 26.7,17.6 
			20.2,17.5 17,17.5 13.7,17.4 		"/>
	</g>
</g>
<g>
	<g>
		<defs>
			<rect id="SVGID_43_" x="39.7" y="17.3" width="25.9" height="0.3"/>
		</defs>
		<clipPath id="SVGID_44_">
			<use xlink:href="#SVGID_43_"  overflow="visible"/>
		</clipPath>
		<polygon clip-path="url(#SVGID_44_)" fill="#C78962" points="39.7,17.3 65.6,17.3 65.6,17.4 62.3,17.5 59.1,17.5 52.6,17.6 
			46.1,17.5 42.9,17.5 39.7,17.4 		"/>
	</g>
</g>
<g>
	<g>
		<defs>
			<rect id="SVGID_45_" x="35.6" y="17.4" width="3.9" height="1"/>
		</defs>
		<clipPath id="SVGID_46_">
			<use xlink:href="#SVGID_45_"  overflow="visible"/>
		</clipPath>
		<path clip-path="url(#SVGID_46_)" fill="#C78962" d="M35.6,18.2c0.7-0.1,1.4-0.1,2-0.2c0.7-0.1,1.3-0.3,1.9-0.7
			c-0.4,0.6-1.1,0.9-1.8,1C37,18.4,36.3,18.4,35.6,18.2"/>
	</g>
</g>
<g>
	<g>
		<defs>
			<rect id="SVGID_47_" x="37.1" y="17.4" width="2.4" height="2.9"/>
		</defs>
		<clipPath id="SVGID_48_">
			<use xlink:href="#SVGID_47_"  overflow="visible"/>
		</clipPath>
		<path clip-path="url(#SVGID_48_)" fill="#C78962" d="M39.5,17.4c0,0.3-0.3,0.6-0.4,0.9c-0.1,0.3-0.3,0.6-0.5,0.9
			c-0.4,0.5-0.9,1-1.6,1.1c0.6-0.2,1.1-0.7,1.5-1.2c0.2-0.2,0.4-0.5,0.5-0.8C39.2,17.9,39.5,17.7,39.5,17.4"/>
	</g>
</g>
<g>
	<g>
		<defs>
			<rect id="SVGID_49_" x="37" y="17.4" width="2.2" height="0.4"/>
		</defs>
		<clipPath id="SVGID_50_">
			<use xlink:href="#SVGID_49_"  overflow="visible"/>
		</clipPath>
		<path clip-path="url(#SVGID_50_)" fill="#C78962" d="M39.2,17.4c-0.3,0.2-0.7,0.2-1.1,0.3c-0.4,0-0.8,0.1-1.1,0
			c0.4-0.1,0.8-0.1,1.1-0.2C38.5,17.6,38.9,17.5,39.2,17.4"/>
	</g>
</g>
<g>
	<g>
		<defs>
			<rect id="SVGID_51_" x="39.7" y="17.4" width="3.9" height="1"/>
		</defs>
		<clipPath id="SVGID_52_">
			<use xlink:href="#SVGID_51_"  overflow="visible"/>
		</clipPath>
		<path clip-path="url(#SVGID_52_)" fill="#C78962" d="M43.5,18.2c-0.7,0.1-1.4,0.2-2.1,0.1c-0.7-0.1-1.4-0.4-1.8-1
			c0.6,0.4,1.2,0.6,1.9,0.7C42.2,18.1,42.9,18.1,43.5,18.2"/>
	</g>
</g>
<g>
	<g>
		<defs>
			<rect id="SVGID_53_" x="39.7" y="17.4" width="2.4" height="2.9"/>
		</defs>
		<clipPath id="SVGID_54_">
			<use xlink:href="#SVGID_53_"  overflow="visible"/>
		</clipPath>
		<path clip-path="url(#SVGID_54_)" fill="#C78962" d="M39.7,17.4c0,0.3,0.3,0.6,0.4,0.9c0.1,0.3,0.3,0.6,0.5,0.8
			c0.4,0.5,0.9,1,1.5,1.2c-0.7-0.1-1.2-0.6-1.6-1.1c-0.2-0.3-0.3-0.6-0.5-0.9C39.9,18,39.7,17.7,39.7,17.4"/>
	</g>
</g>
<g>
	<g>
		<defs>
			<rect id="SVGID_55_" x="39.9" y="17.4" width="2.2" height="0.4"/>
		</defs>
		<clipPath id="SVGID_56_">
			<use xlink:href="#SVGID_55_"  overflow="visible"/>
		</clipPath>
		<path clip-path="url(#SVGID_56_)" fill="#C78962" d="M39.9,17.4c0.4,0.1,0.7,0.2,1.1,0.2c0.4,0.1,0.7,0.1,1.1,0.2
			c-0.4,0.1-0.8,0-1.1,0C40.7,17.7,40.3,17.6,39.9,17.4"/>
	</g>
</g>
<g>
	<g>
		<defs>
			<rect id="SVGID_57_" x="13.5" y="28" width="52.3" height="0.4"/>
		</defs>
		<clipPath id="SVGID_58_">
			<use xlink:href="#SVGID_57_"  overflow="visible"/>
		</clipPath>
		
			<line clip-path="url(#SVGID_58_)" fill="none" stroke="#C78962" stroke-width="0.433" stroke-linecap="round" stroke-miterlimit="10" x1="13.7" y1="28.3" x2="13.7" y2="28.3"/>
		
			<line clip-path="url(#SVGID_58_)" fill="none" stroke="#C78962" stroke-width="0.433" stroke-linecap="round" stroke-miterlimit="10" stroke-dasharray="0,1.853" x1="15.6" y1="28.3" x2="64.7" y2="28.3"/>
		
			<line clip-path="url(#SVGID_58_)" fill="none" stroke="#C78962" stroke-width="0.433" stroke-linecap="round" stroke-miterlimit="10" x1="65.6" y1="28.3" x2="65.6" y2="28.3"/>
	</g>
</g>
<g>
	<g>
		<defs>
			<rect id="SVGID_59_" x="13.2" y="18.5" width="0.7" height="4.2"/>
		</defs>
		<clipPath id="SVGID_60_">
			<use xlink:href="#SVGID_59_"  overflow="visible"/>
		</clipPath>
		<path clip-path="url(#SVGID_60_)" fill="#C78962" d="M13.3,18.5c0.2,0.3,0.3,0.6,0.4,1c0.1,0.3,0.2,0.7,0.2,1.1c0,0.3,0,0.6,0,1
			c0,0.4,0,0.7-0.2,1.1h0c0-0.7-0.2-1.4-0.2-2.1C13.5,19.9,13.3,19.2,13.3,18.5L13.3,18.5z"/>
	</g>
</g>
<g>
	<g>
		<defs>
			<rect id="SVGID_61_" x="65.6" y="18.5" width="0.6" height="4.2"/>
		</defs>
		<clipPath id="SVGID_62_">
			<use xlink:href="#SVGID_61_"  overflow="visible"/>
		</clipPath>
		<path clip-path="url(#SVGID_62_)" fill="#C78962" d="M66,18.5c0.1,0.4,0.1,0.7,0.1,1.1c0,0.4,0,0.7,0,1c0,0.4-0.1,0.8-0.2,1.1
			c-0.1,0.3-0.2,0.7-0.4,1h0c0-0.7,0.2-1.4,0.2-2.1C65.7,19.9,65.9,19.2,66,18.5L66,18.5z"/>
	</g>
</g>
<g>
	<g>
		<defs>
			<rect id="SVGID_63_" x="67.2" y="8.3" width="10.5" height="22.7"/>
		</defs>
		<clipPath id="SVGID_64_">
			<use xlink:href="#SVGID_63_"  overflow="visible"/>
		</clipPath>
		
			<path clip-path="url(#SVGID_64_)" fill="none" stroke="#C78962" stroke-width="0.433" stroke-linecap="round" stroke-miterlimit="10" d="
			M67.5,30.8c0-0.6,0-1.3,0-2l0-0.1c0-3.4-0.1-7.6,0.3-10.3c0.1-0.7,0.5-3.2,1.6-5.1c0.6-1.1,3.9-4.4,5.9-4.7c0.1,0,0.2,0,0.3,0
			c0.9,0,1.7,0.7,1.8,1.6c0.2,0.9-0.4,1.8-1.3,2.1l-0.2,0.1l-0.2,0.1c-0.9,0.5-2.5,2-3.1,2.7l-0.1,0.2c-0.6,1-0.9,2.5-1.1,3.6
			c-0.3,2.4-0.3,6.7-0.2,9.8c0,0.8,0,1.6,0,2.2"/>
	</g>
</g>
<g>
	<g>
		<defs>
			<rect id="SVGID_65_" x="67.1" y="8.2" width="10.6" height="22.9"/>
		</defs>
		<clipPath id="SVGID_66_">
			<use xlink:href="#SVGID_65_"  overflow="visible"/>
		</clipPath>
		
			<line clip-path="url(#SVGID_66_)" fill="none" stroke="#ECC57C" stroke-width="0.618" stroke-linecap="round" stroke-miterlimit="10" x1="67.5" y1="30.8" x2="67.5" y2="30.8"/>
		
			<path clip-path="url(#SVGID_66_)" fill="none" stroke="#ECC57C" stroke-width="0.618" stroke-linecap="round" stroke-miterlimit="10" stroke-dasharray="0,1.231" d="
			M67.5,29.5c0-0.3,0-0.5,0-0.8l0-0.1c0-3.4-0.1-7.6,0.3-10.3c0.1-0.7,0.5-3.2,1.6-5.1c0.6-1.1,3.9-4.4,5.9-4.7c0.1,0,0.2,0,0.3,0
			c0.9,0,1.7,0.7,1.8,1.6c0.2,0.9-0.4,1.8-1.3,2.1l-0.2,0.1l-0.2,0.1c-0.9,0.5-2.5,2-3,2.7l-0.1,0.2c-0.6,1-0.9,2.5-1.1,3.6
			c-0.3,2.4-0.3,6.7-0.2,9.8c0,0.6,0,1.1,0,1.6"/>
		
			<line clip-path="url(#SVGID_66_)" fill="none" stroke="#ECC57C" stroke-width="0.618" stroke-linecap="round" stroke-miterlimit="10" x1="71.2" y1="30.8" x2="71.2" y2="30.8"/>
	</g>
</g>
<g>
	<g>
		<defs>
			<rect id="SVGID_67_" x="0.5" y="10.3" width="1.3" height="0.3"/>
		</defs>
		<clipPath id="SVGID_68_">
			<use xlink:href="#SVGID_67_"  overflow="visible"/>
		</clipPath>
		<path clip-path="url(#SVGID_68_)" fill="#C78962" d="M1.8,10.5c-0.2,0.1-0.4,0.1-0.7,0.1c-0.2,0-0.5-0.1-0.6-0.3
			c0.2,0.1,0.4,0.2,0.6,0.2C1.4,10.5,1.6,10.5,1.8,10.5"/>
	</g>
</g>
<g>
	<g>
		<defs>
			<rect id="SVGID_69_" x="1.2" y="8.3" width="1" height="1"/>
		</defs>
		<clipPath id="SVGID_70_">
			<use xlink:href="#SVGID_69_"  overflow="visible"/>
		</clipPath>
		<path clip-path="url(#SVGID_70_)" fill="#C78962" d="M2.2,9.3c-0.1,0-0.3,0-0.4-0.1C1.7,9.1,1.6,9,1.5,8.9
			C1.4,8.7,1.3,8.5,1.2,8.3c0.2,0.2,0.3,0.4,0.4,0.6C1.8,9,1.9,9.2,2.2,9.3"/>
	</g>
</g>
<g>
	<g>
		<defs>
			<rect id="SVGID_71_" x="4.3" y="7.5" width="0.3" height="1"/>
		</defs>
		<clipPath id="SVGID_72_">
			<use xlink:href="#SVGID_71_"  overflow="visible"/>
		</clipPath>
		<path clip-path="url(#SVGID_72_)" fill="#C78962" d="M4.3,8.5C4.4,8.4,4.5,8.2,4.5,8c0-0.2,0-0.3,0.1-0.5c0.1,0.2,0,0.4,0,0.5
			c0,0.1,0,0.2-0.1,0.3C4.5,8.4,4.4,8.5,4.3,8.5"/>
	</g>
</g>
<g>
	<g>
		<defs>
			<rect id="SVGID_73_" x="5.6" y="8.3" width="0.7" height="0.8"/>
		</defs>
		<clipPath id="SVGID_74_">
			<use xlink:href="#SVGID_73_"  overflow="visible"/>
		</clipPath>
		<path clip-path="url(#SVGID_74_)" fill="#C78962" d="M6.4,8.3c0,0.1,0,0.2-0.1,0.3c0,0.1-0.1,0.2-0.2,0.2C6,8.9,5.8,9,5.6,9.1
			C5.8,8.9,5.9,8.8,6,8.7C6.2,8.6,6.3,8.4,6.4,8.3"/>
	</g>
</g>
<g>
	<g>
		<defs>
			<rect id="SVGID_75_" x="77.5" y="10.3" width="1.3" height="0.3"/>
		</defs>
		<clipPath id="SVGID_76_">
			<use xlink:href="#SVGID_75_"  overflow="visible"/>
		</clipPath>
		<path clip-path="url(#SVGID_76_)" fill="#C78962" d="M77.5,10.5c0.2-0.1,0.4,0,0.7,0c0.2,0,0.4,0,0.6-0.2
			c-0.1,0.2-0.4,0.3-0.6,0.3C77.9,10.6,77.7,10.6,77.5,10.5"/>
	</g>
</g>
<g>
	<g>
		<defs>
			<rect id="SVGID_77_" x="77.1" y="8.3" width="1" height="1"/>
		</defs>
		<clipPath id="SVGID_78_">
			<use xlink:href="#SVGID_77_"  overflow="visible"/>
		</clipPath>
		<path clip-path="url(#SVGID_78_)" fill="#C78962" d="M77.1,9.3c0.2,0,0.4-0.2,0.5-0.4c0.2-0.2,0.3-0.4,0.4-0.6
			c-0.1,0.2-0.2,0.4-0.3,0.7c-0.1,0.1-0.2,0.2-0.3,0.3C77.4,9.3,77.2,9.3,77.1,9.3"/>
	</g>
</g>
<g>
	<g>
		<defs>
			<rect id="SVGID_79_" x="74.7" y="7.5" width="0.3" height="1"/>
		</defs>
		<clipPath id="SVGID_80_">
			<use xlink:href="#SVGID_79_"  overflow="visible"/>
		</clipPath>
		<path clip-path="url(#SVGID_80_)" fill="#C78962" d="M75,8.5c-0.1,0-0.2-0.1-0.2-0.2c0-0.1-0.1-0.2-0.1-0.3c0-0.2,0-0.4,0-0.5
			c0.1,0.2,0,0.4,0.1,0.5C74.8,8.2,74.9,8.4,75,8.5"/>
	</g>
</g>
<g>
	<g>
		<defs>
			<rect id="SVGID_81_" x="72.9" y="8.3" width="0.7" height="0.8"/>
		</defs>
		<clipPath id="SVGID_82_">
			<use xlink:href="#SVGID_81_"  overflow="visible"/>
		</clipPath>
		<path clip-path="url(#SVGID_82_)" fill="#C78962" d="M72.9,8.3c0.1,0.2,0.2,0.3,0.3,0.4c0.1,0.1,0.3,0.2,0.4,0.4
			c-0.2-0.1-0.3-0.2-0.5-0.3C73.1,8.7,73,8.6,73,8.5C72.9,8.5,72.9,8.4,72.9,8.3"/>
	</g>
</g>
<path fill="none" stroke="#C78962" stroke-width="0.433" stroke-miterlimit="10" d="M27.7,0.2c0.5,0.1,0.8,1.8,0.9,2.3
	C28.8,3.7,29,4.9,29,6.2v6.6v1.5"/>
<path fill="none" stroke="#C78962" stroke-width="0.433" stroke-miterlimit="10" d="M51.3,0.2c-0.5,0.1-0.8,1.8-0.9,2.3
	c-0.2,1.2-0.4,2.5-0.4,3.7v6.6v1.5"/>
</svg>
