<?xml version="1.0" encoding="utf-8"?>
<!-- Generator: Adobe Illustrator 15.0.2, SVG Export Plug-In . SVG Version: 6.00 Build 0)  -->
<!DOCTYPE svg PUBLIC "-//W3C//DTD SVG 1.1//EN" "http://www.w3.org/Graphics/SVG/1.1/DTD/svg11.dtd">
<svg version="1.1" id="Layer_1" xmlns="http://www.w3.org/2000/svg" xmlns:xlink="http://www.w3.org/1999/xlink" x="0px" y="0px"
	 width="21.1px" height="75.5px" viewBox="0 0 21.1 75.5" enable-background="new 0 0 21.1 75.5" xml:space="preserve">
<rect x="1.6" y="53.7" fill="#C8CBC8" width="17.9" height="21.9"/>
<g>
	<g>
		<defs>
			<rect id="SVGID_1_" x="6.4" y="53.7" width="7" height="21.9"/>
		</defs>
		<clipPath id="SVGID_2_">
			<use xlink:href="#SVGID_1_"  overflow="visible"/>
		</clipPath>
		<rect x="6.4" y="53.7" clip-path="url(#SVGID_2_)" fill="#465761" width="7" height="21.9"/>
	</g>
</g>
<g>
	<g>
		<defs>
			<rect id="SVGID_3_" x="7.6" y="53.7" width="3" height="21.9"/>
		</defs>
		<clipPath id="SVGID_4_">
			<use xlink:href="#SVGID_3_"  overflow="visible"/>
		</clipPath>
		<rect x="7.6" y="53.7" clip-path="url(#SVGID_4_)" fill="#465761" width="3" height="21.9"/>
	</g>
</g>
<g>
	<g>
		<defs>
			<rect id="SVGID_5_" x="8.1" y="53.7" width="4.9" height="8.4"/>
		</defs>
		<clipPath id="SVGID_6_">
			<use xlink:href="#SVGID_5_"  overflow="visible"/>
		</clipPath>
		<path clip-path="url(#SVGID_6_)" fill="#C8CBC8" d="M13,53.7c0,4.6-1.1,8.4-2.4,8.4c-1.4,0-2.4-3.8-2.4-8.4"/>
	</g>
</g>
<path fill="#C8CBC8" d="M12.4,56.5c0,0.5-0.4,0.9-0.9,0.9H9.5c-0.5,0-0.9-0.4-0.9-0.9V20c0-0.5,0.4-0.9,0.9-0.9h2.1
	c0.5,0,0.9,0.4,0.9,0.9V56.5z"/>
<path fill="#A0A96A" d="M21.1,3.6c0,0.5-0.4,0.9-0.9,0.9H0.9C0.4,4.5,0,4.1,0,3.6V0.9C0,0.4,0.4,0,0.9,0h19.4c0.5,0,0.9,0.4,0.9,0.9
	V3.6z"/>
<g>
	<g>
		<defs>
			<rect id="SVGID_7_" x="0" y="1.1" width="21.1" height="0.8"/>
		</defs>
		<clipPath id="SVGID_8_">
			<use xlink:href="#SVGID_7_"  overflow="visible"/>
		</clipPath>
		<rect y="1.1" clip-path="url(#SVGID_8_)" fill="#A0A96A" width="21.1" height="0.8"/>
	</g>
</g>
<g>
	<g>
		<defs>
			<rect id="SVGID_9_" x="0" y="3" width="21.1" height="1.5"/>
		</defs>
		<clipPath id="SVGID_10_">
			<use xlink:href="#SVGID_9_"  overflow="visible"/>
		</clipPath>
		<path clip-path="url(#SVGID_10_)" fill="#D0D4B5" d="M0,3.6c0,0.5,0.4,0.9,0.9,0.9h19.4c0.5,0,0.9-0.4,0.9-0.9V3H0V3.6z"/>
	</g>
</g>
<g>
	<g>
		<defs>
			<rect id="SVGID_11_" x="8.2" y="3.3" width="4.8" height="1.1"/>
		</defs>
		<clipPath id="SVGID_12_">
			<use xlink:href="#SVGID_11_"  overflow="visible"/>
		</clipPath>
		<path clip-path="url(#SVGID_12_)" fill="#A0A96A" d="M12.1,3.3H9c-0.5,0-0.9,0.4-0.9,0.9v0.3H13V4.2C13,3.7,12.6,3.3,12.1,3.3"/>
	</g>
</g>
<path fill="#918F90" d="M8.7,20.4l1.9,0l1.9,0v0.1c-0.6,0.6-1.3,0.7-1.9,0.7C9.9,21.2,9.3,21,8.7,20.4L8.7,20.4z"/>
<path fill="#A0A96A" d="M12.9,19.7c0,0.5-0.4,0.9-0.9,0.9H9.1c-0.5,0-0.9-0.4-0.9-0.9V4.4c0-0.5,0.4-0.9,0.9-0.9H12
	c0.5,0,0.9,0.4,0.9,0.9V19.7z"/>
<g>
	<g>
		<defs>
			<rect id="SVGID_13_" x="9.4" y="3.5" width="1.1" height="17"/>
		</defs>
		<clipPath id="SVGID_14_">
			<use xlink:href="#SVGID_13_"  overflow="visible"/>
		</clipPath>
		<rect x="9.4" y="3.5" clip-path="url(#SVGID_14_)" fill="#A0A96A" width="1.1" height="17"/>
	</g>
</g>
<path fill="#C8CBC8" d="M12.4,56.5c0,2-0.8,3.7-1.9,3.7c-1,0-1.9-1.7-1.9-3.7c0-2,0.8-3.7,1.9-3.7C11.6,52.8,12.4,54.5,12.4,56.5"/>
<g>
	<g>
		<defs>
			<rect id="SVGID_15_" x="9.4" y="20.5" width="1.1" height="35.1"/>
		</defs>
		<clipPath id="SVGID_16_">
			<use xlink:href="#SVGID_15_"  overflow="visible"/>
		</clipPath>
		<rect x="9.4" y="20.5" clip-path="url(#SVGID_16_)" fill="#465761" width="1.1" height="35.1"/>
	</g>
</g>
<g>
	<g>
		<defs>
			<rect id="SVGID_17_" x="9.4" y="55.6" width="1.1" height="2.3"/>
		</defs>
		<clipPath id="SVGID_18_">
			<use xlink:href="#SVGID_17_"  overflow="visible"/>
		</clipPath>
		<path clip-path="url(#SVGID_18_)" fill="#465761" d="M10.6,55.6c0,1.3-0.3,2.3-0.6,2.3c-0.3,0-0.6-1-0.6-2.3"/>
	</g>
</g>
</svg>
