<?xml version="1.0" encoding="utf-8"?>
<!-- Generator: Adobe Illustrator 15.0.2, SVG Export Plug-In . SVG Version: 6.00 Build 0)  -->
<!DOCTYPE svg PUBLIC "-//W3C//DTD SVG 1.1//EN" "http://www.w3.org/Graphics/SVG/1.1/DTD/svg11.dtd">
<svg version="1.1" id="Layer_1" xmlns="http://www.w3.org/2000/svg" xmlns:xlink="http://www.w3.org/1999/xlink" x="0px" y="0px"
	 width="41.1px" height="59.2px" viewBox="0 0 41.1 59.2" enable-background="new 0 0 41.1 59.2" xml:space="preserve">
<rect fill="#C78962" width="41.1" height="59.2"/>
<path fill="#231F20" d="M35.1,39.7c0,8.3-6.5,15-14.5,15c-8,0-14.5-6.7-14.5-15c0-8.3,6.5-15,14.5-15C28.6,24.6,35.1,31.4,35.1,39.7
	"/>
<ellipse fill="none" stroke="#D3D2D2" stroke-width="1.675" stroke-miterlimit="10" cx="20.6" cy="39.7" rx="14.5" ry="15"/>
<g>
	<g>
		<defs>
			<rect id="SVGID_1_" x="9.1" y="42" width="20.9" height="12.7"/>
		</defs>
		<clipPath id="SVGID_2_">
			<use xlink:href="#SVGID_1_"  overflow="visible"/>
		</clipPath>
		<path clip-path="url(#SVGID_2_)" fill="#231F20" d="M18.1,42l-9,6.9c2.7,3.5,6.8,5.8,11.5,5.8c3.6,0,6.9-1.4,9.4-3.6L18.1,42z"/>
	</g>
</g>
<path fill="#231F20" d="M20.6,28.7c6.2,0,11.3,4.9,11.3,10.9c0,6-5.1,10.9-11.3,10.9c-6.2,0-11.3-4.9-11.3-10.9
	C9.3,33.6,14.3,28.7,20.6,28.7"/>
<path fill="#D3D2D2" d="M20.6,28.7c2.9,0,5.8,1.1,8,3.1c2.2,2,3.5,4.9,3.5,7.8c0.1,3-1.2,5.9-3.3,8c-2.2,2.1-5.1,3.3-8.1,3.3
	c-3,0-6-1.2-8.1-3.3c-2.2-2.1-3.4-5-3.3-8c0-3,1.4-5.8,3.5-7.8C14.7,29.8,17.7,28.7,20.6,28.7 M20.6,28.7c-2.9,0-5.8,1.2-7.9,3.2
	c-2.1,2-3.3,4.9-3.2,7.8c0,2.9,1.3,5.7,3.4,7.6c2.1,2,4.9,3,7.7,3c2.8,0,5.7-1.1,7.7-3c2.1-1.9,3.4-4.7,3.4-7.6
	c0.1-2.9-1.2-5.7-3.2-7.8C26.4,29.9,23.5,28.7,20.6,28.7"/>
<path fill="#231F20" d="M24.2,39.7c0,2.1-1.6,3.7-3.6,3.7c-2,0-3.6-1.7-3.6-3.7c0-2.1,1.6-3.7,3.6-3.7
	C22.6,35.9,24.2,37.6,24.2,39.7"/>
<ellipse fill="none" stroke="#D3D2D2" stroke-width="0.335" stroke-miterlimit="10" cx="20.6" cy="39.7" rx="3.6" ry="3.7"/>
<path fill="#231F20" d="M24.2,39.7c0,2.1-1.6,3.7-3.6,3.7c-2,0-3.6-1.7-3.6-3.7c0-2.1,1.6-3.7,3.6-3.7
	C22.6,35.9,24.2,37.6,24.2,39.7"/>
<ellipse fill="none" stroke="#D3D2D2" stroke-width="0.335" stroke-miterlimit="10" cx="20.6" cy="39.7" rx="3.6" ry="3.7"/>
<path fill="#4F4C4D" d="M23.7,39c0,1.6-1.4,3-3.1,3c-1.7,0-3.1-1.3-3.1-3s1.4-3,3.1-3C22.3,36,23.7,37.4,23.7,39"/>
<path fill="#7B7979" d="M23.2,38.3c0,1.2-1.2,2.2-2.6,2.2c-1.4,0-2.6-1-2.6-2.2c0-1.2,1.2-2.2,2.6-2.2C22,36.1,23.2,37.1,23.2,38.3"
	/>
<path fill="#A7A5A6" d="M22.7,37.7c0,0.8-0.9,1.4-2.1,1.4s-2.1-0.6-2.1-1.4c0-0.8,0.9-1.4,2.1-1.4S22.7,36.9,22.7,37.7"/>
<path fill="#D3D2D2" d="M22.2,37c0,0.4-0.7,0.7-1.6,0.7c-0.9,0-1.6-0.3-1.6-0.7s0.7-0.7,1.6-0.7C21.5,36.3,22.2,36.6,22.2,37"/>
<path fill="#D3D2D2" d="M3,2c0,0.4-0.3,0.7-0.7,0.7S1.6,2.4,1.6,2c0-0.4,0.3-0.7,0.7-0.7S3,1.6,3,2"/>
<circle fill="none" stroke="#868484" stroke-width="0.167" stroke-miterlimit="10" cx="2.3" cy="2" r="0.7"/>
<line fill="none" stroke="#868484" stroke-width="0.167" stroke-miterlimit="10" x1="1.9" y1="1.5" x2="2.8" y2="2.5"/>
<path fill="#D3D2D2" d="M39.5,2c0,0.4-0.3,0.7-0.7,0.7S38.1,2.4,38.1,2c0-0.4,0.3-0.7,0.7-0.7S39.5,1.6,39.5,2"/>
<circle fill="none" stroke="#868484" stroke-width="0.167" stroke-miterlimit="10" cx="38.8" cy="2" r="0.7"/>
<line fill="none" stroke="#868484" stroke-width="0.167" stroke-miterlimit="10" x1="38.4" y1="1.5" x2="39.3" y2="2.5"/>
<path fill="#D3D2D2" d="M3,56.9c0,0.4-0.3,0.7-0.7,0.7s-0.7-0.3-0.7-0.7c0-0.4,0.3-0.7,0.7-0.7S3,56.5,3,56.9"/>
<circle fill="none" stroke="#868484" stroke-width="0.167" stroke-miterlimit="10" cx="2.3" cy="56.9" r="0.7"/>
<line fill="none" stroke="#868484" stroke-width="0.167" stroke-miterlimit="10" x1="1.9" y1="56.4" x2="2.8" y2="57.4"/>
<path fill="#D3D2D2" d="M39.5,56.9c0,0.4-0.3,0.7-0.7,0.7s-0.7-0.3-0.7-0.7c0-0.4,0.3-0.7,0.7-0.7S39.5,56.5,39.5,56.9"/>
<circle fill="none" stroke="#868484" stroke-width="0.167" stroke-miterlimit="10" cx="38.8" cy="56.9" r="0.7"/>
<line fill="none" stroke="#868484" stroke-width="0.167" stroke-miterlimit="10" x1="38.4" y1="56.4" x2="39.3" y2="57.4"/>
<path fill="#231F20" d="M21,24.6c0,0.2-0.2,0.4-0.4,0.4s-0.4-0.2-0.4-0.4s0.2-0.4,0.4-0.4S21,24.4,21,24.6"/>
<path fill="#231F20" d="M7.9,46.9c0.2-0.1,0.4,0,0.6,0.2c0.1,0.2,0,0.4-0.1,0.6c-0.2,0.1-0.4,0-0.6-0.1C7.6,47.3,7.7,47.1,7.9,46.9"
	/>
<path fill="#231F20" d="M33.3,47.1c-0.2-0.1-0.3-0.4-0.2-0.6c0.1-0.2,0.4-0.3,0.6-0.2c0.2,0.1,0.3,0.4,0.2,0.6
	C33.8,47.1,33.5,47.2,33.3,47.1"/>
<path fill="#231F20" d="M27.1,11.5c0,3.8-2.9,6.8-6.6,6.8c-3.6,0-6.6-3-6.6-6.8s2.9-6.8,6.6-6.8C24.2,4.7,27.1,7.7,27.1,11.5"/>
<ellipse fill="none" stroke="#D3D2D2" stroke-width="1.675" stroke-miterlimit="10" cx="20.6" cy="11.5" rx="6.6" ry="6.8"/>
<g>
	<g>
		<defs>
			<rect id="SVGID_3_" x="15.4" y="12.6" width="9.4" height="5.7"/>
		</defs>
		<clipPath id="SVGID_4_">
			<use xlink:href="#SVGID_3_"  overflow="visible"/>
		</clipPath>
		<path clip-path="url(#SVGID_4_)" fill="#231F20" d="M19.4,12.6l-4.1,3.1c1.2,1.6,3.1,2.6,5.2,2.6c1.6,0,3.1-0.6,4.2-1.6L19.4,12.6
			z"/>
	</g>
</g>
<path fill="#231F20" d="M20.6,6.6c2.8,0,5.1,2.2,5.1,4.9c0,2.7-2.3,4.9-5.1,4.9s-5.1-2.2-5.1-4.9C15.5,8.8,17.8,6.6,20.6,6.6"/>
<path fill="#D3D2D2" d="M20.6,6.6c1.3,0,2.6,0.5,3.6,1.4c1,0.9,1.6,2.2,1.6,3.5c0,1.3-0.6,2.7-1.5,3.6c-1,0.9-2.3,1.5-3.7,1.5
	c-1.3,0-2.7-0.5-3.6-1.5c-1-0.9-1.5-2.3-1.5-3.6c0-1.3,0.6-2.6,1.6-3.5C17.9,7,19.3,6.5,20.6,6.6 M20.6,6.6C19.3,6.6,18,7.1,17,8
	c-0.9,0.9-1.5,2.2-1.5,3.5c0,1.3,0.6,2.6,1.5,3.4c0.9,0.9,2.2,1.4,3.5,1.4c1.3,0,2.6-0.5,3.5-1.4c0.9-0.9,1.5-2.1,1.5-3.4
	c0-1.3-0.5-2.6-1.5-3.5C23.2,7.1,21.9,6.6,20.6,6.6"/>
<path fill="#231F20" d="M22.2,11.5c0,0.9-0.7,1.7-1.6,1.7c-0.9,0-1.6-0.8-1.6-1.7c0-0.9,0.7-1.7,1.6-1.7
	C21.5,9.8,22.2,10.6,22.2,11.5"/>
<ellipse fill="none" stroke="#D3D2D2" stroke-width="0.151" stroke-miterlimit="10" cx="20.6" cy="11.5" rx="1.6" ry="1.7"/>
<path fill="#231F20" d="M22.2,11.5c0,0.9-0.7,1.7-1.6,1.7c-0.9,0-1.6-0.8-1.6-1.7c0-0.9,0.7-1.7,1.6-1.7
	C21.5,9.8,22.2,10.6,22.2,11.5"/>
<ellipse fill="none" stroke="#D3D2D2" stroke-width="0.151" stroke-miterlimit="10" cx="20.6" cy="11.5" rx="1.6" ry="1.7"/>
<path fill="#4F4C4D" d="M22,11.2c0,0.7-0.6,1.3-1.4,1.3c-0.8,0-1.4-0.6-1.4-1.3c0-0.7,0.6-1.3,1.4-1.3C21.3,9.9,22,10.5,22,11.2"/>
<path fill="#7B7979" d="M21.7,10.9c0,0.5-0.5,1-1.2,1c-0.7,0-1.2-0.4-1.2-1c0-0.5,0.5-1,1.2-1C21.2,9.9,21.7,10.4,21.7,10.9"/>
<path fill="#A7A5A6" d="M21.5,10.6c0,0.4-0.4,0.6-0.9,0.6c-0.5,0-0.9-0.3-0.9-0.6S20,10,20.6,10C21.1,10,21.5,10.2,21.5,10.6"/>
<path fill="#D3D2D2" d="M21.3,10.3c0,0.2-0.3,0.3-0.7,0.3c-0.4,0-0.7-0.1-0.7-0.3c0-0.2,0.3-0.3,0.7-0.3C21,10,21.3,10.1,21.3,10.3"
	/>
<path fill="#231F20" d="M21,4.7c0,0.2-0.2,0.4-0.4,0.4s-0.4-0.2-0.4-0.4c0-0.2,0.2-0.4,0.4-0.4S21,4.5,21,4.7"/>
<path fill="#231F20" d="M14.5,14.3c0.2-0.1,0.4,0,0.6,0.1c0.1,0.2,0,0.4-0.2,0.6c-0.2,0.1-0.4,0-0.6-0.1
	C14.3,14.6,14.3,14.4,14.5,14.3"/>
<path fill="#231F20" d="M26.2,15c-0.2-0.1-0.3-0.4-0.1-0.6c0.1-0.2,0.4-0.3,0.6-0.1c0.2,0.1,0.3,0.4,0.1,0.6
	C26.7,15,26.4,15.1,26.2,15"/>
</svg>
