<?xml version="1.0" encoding="utf-8"?>
<!-- Generator: Adobe Illustrator 15.0.2, SVG Export Plug-In . SVG Version: 6.00 Build 0)  -->
<!DOCTYPE svg PUBLIC "-//W3C//DTD SVG 1.1//EN" "http://www.w3.org/Graphics/SVG/1.1/DTD/svg11.dtd">
<svg version="1.1" id="Layer_1" xmlns="http://www.w3.org/2000/svg" xmlns:xlink="http://www.w3.org/1999/xlink" x="0px" y="0px"
	 width="58.8px" height="37.3px" viewBox="0 0 58.8 37.3" enable-background="new 0 0 58.8 37.3" xml:space="preserve">
<path fill="#A77C39" d="M58.8,24v-5.7h0c0-0.3,0-0.6,0-0.9c0,0.5,0,0.9,0.1,1c0-0.9-0.2-4.5-0.1-1.5c-0.3-4.6-0.7-10.3-6.4-13.1
	c-9.2-4.5-16,3.6-25.2,2.1C22.8,5.2,19.4,3,15.2,2.4C11,1.9,6.5,3.2,3.9,5.6c-3.2,3-4,7.6-3.9,11.7v4.8c0,0.4,0,0.9,0,1.3v0.1h0
	c0,1,0.1,2,0.2,3c0.6,4.3,3.1,9.8,9.7,10.7c3.7,0.5,7.2-0.6,10.4-1.9c3.2-1.3,7.3-3.9,10.9-2.8c6.4,1.9,13.6,7.1,20.9,3.8
	c5-2.3,6.6-7.6,6.6-11.8h0V24c0,0.3,0,0.5,0,0.6C58.8,24.5,58.8,24.2,58.8,24"/>
<path fill="#A77C39" d="M58.8,24.6C58.8,24.6,58.8,24.6,58.8,24.6C58.8,24.6,58.8,24.6,58.8,24.6"/>
<path fill="#A77C39" d="M58.8,24.6C58.8,24.7,58.8,24.7,58.8,24.6C58.8,24.7,58.8,24.7,58.8,24.6"/>
<path fill="#A77C39" d="M58.8,24.7C58.8,24.7,58.8,24.8,58.8,24.7C58.8,24.8,58.8,24.7,58.8,24.7"/>
<path fill="#A77C39" d="M58.8,18.4C58.8,18.4,58.8,18.4,58.8,18.4C58.8,18.4,58.8,18.4,58.8,18.4"/>
<path fill="#A77C39" d="M58.8,18.5C58.8,18.5,58.8,18.6,58.8,18.5C58.8,18.6,58.8,18.5,58.8,18.5"/>
<path fill="#A77C39" d="M58.8,18.4C58.8,18.5,58.8,18.5,58.8,18.4C58.8,18.5,58.8,18.5,58.8,18.4"/>
<path fill="#EBD467" d="M58.8,16.2c-0.3-5.1-0.5-11.4-6.5-14.5c-9.2-4.8-16,3.9-25.2,2.2c-4.2-0.8-7.7-3.1-11.9-3.7
	C11-0.5,6.5,1,3.9,3.6c-4,4-4.3,10.8-3.6,15.7c0.6,4.7,3.1,10.5,9.7,11.5c3.7,0.5,7.2-0.6,10.4-2c3.2-1.4,7.3-4.2,10.9-3
	c6.4,2,13.6,7.6,20.9,4.1C57.6,27.1,59,20.8,58.8,16.2C58.5,10.4,59,21.1,58.8,16.2"/>
<g>
	<g>
		<defs>
			<rect id="SVGID_1_" x="8.6" y="20.4" width="4.4" height="4.4"/>
		</defs>
		<clipPath id="SVGID_2_">
			<use xlink:href="#SVGID_1_"  overflow="visible"/>
		</clipPath>
		<path clip-path="url(#SVGID_2_)" fill="#EBD467" d="M10.8,20.4c-0.1,0-0.2,0-0.2,0c0.9,0.1,1.5,0.8,1.5,1.7c0,1-0.8,1.7-1.7,1.7
			c-0.9,0-1.6-0.7-1.7-1.5c0,0.1,0,0.2,0,0.2c0,1.2,1,2.2,2.2,2.2s2.2-1,2.2-2.2S12,20.4,10.8,20.4"/>
	</g>
</g>
<g>
	<g>
		<defs>
			<rect id="SVGID_3_" x="34.1" y="7.7" width="4.4" height="4.4"/>
		</defs>
		<clipPath id="SVGID_4_">
			<use xlink:href="#SVGID_3_"  overflow="visible"/>
		</clipPath>
		<path clip-path="url(#SVGID_4_)" fill="#EBD467" d="M36.2,7.7c-0.1,0-0.2,0-0.2,0c0.9,0.1,1.5,0.8,1.5,1.7c0,1-0.8,1.7-1.7,1.7
			c-0.9,0-1.6-0.7-1.7-1.5c0,0.1,0,0.2,0,0.2c0,1.2,1,2.2,2.2,2.2s2.2-1,2.2-2.2S37.5,7.7,36.2,7.7"/>
	</g>
</g>
<g>
	<g>
		<defs>
			<rect id="SVGID_5_" x="34.1" y="28.7" width="4.4" height="4.4"/>
		</defs>
		<clipPath id="SVGID_6_">
			<use xlink:href="#SVGID_5_"  overflow="visible"/>
		</clipPath>
		<path clip-path="url(#SVGID_6_)" fill="#EBD467" d="M36.2,28.7c-0.1,0-0.2,0-0.2,0c0.9,0.1,1.5,0.8,1.5,1.7c0,1-0.8,1.7-1.7,1.7
			c-0.9,0-1.6-0.7-1.7-1.5c0,0.1,0,0.2,0,0.2c0,1.2,1,2.2,2.2,2.2s2.2-1,2.2-2.2S37.5,28.7,36.2,28.7"/>
	</g>
</g>
<g>
	<g>
		<defs>
			<rect id="SVGID_7_" x="43.1" y="17.6" width="4.4" height="4.4"/>
		</defs>
		<clipPath id="SVGID_8_">
			<use xlink:href="#SVGID_7_"  overflow="visible"/>
		</clipPath>
		<path clip-path="url(#SVGID_8_)" fill="#EBD467" d="M45.3,17.6c-0.1,0-0.2,0-0.2,0c0.9,0.1,1.5,0.8,1.5,1.7c0,1-0.8,1.7-1.7,1.7
			c-0.9,0-1.6-0.7-1.7-1.5c0,0.1,0,0.2,0,0.2c0,1.2,1,2.2,2.2,2.2s2.2-1,2.2-2.2S46.6,17.6,45.3,17.6"/>
	</g>
</g>
<g>
	<g>
		<defs>
			<rect id="SVGID_9_" x="16.5" y="17.1" width="3" height="3"/>
		</defs>
		<clipPath id="SVGID_10_">
			<use xlink:href="#SVGID_9_"  overflow="visible"/>
		</clipPath>
		<path clip-path="url(#SVGID_10_)" fill="#EBD467" d="M18,17.1c-0.1,0-0.1,0-0.2,0c0.6,0.1,1,0.6,1,1.2c0,0.7-0.5,1.2-1.2,1.2
			c-0.6,0-1.1-0.5-1.2-1c0,0.1,0,0.1,0,0.2c0,0.8,0.7,1.5,1.5,1.5c0.8,0,1.5-0.7,1.5-1.5C19.4,17.8,18.8,17.1,18,17.1"/>
	</g>
</g>
<g>
	<g>
		<defs>
			<rect id="SVGID_11_" x="20.4" y="30.2" width="3" height="3"/>
		</defs>
		<clipPath id="SVGID_12_">
			<use xlink:href="#SVGID_11_"  overflow="visible"/>
		</clipPath>
		<path clip-path="url(#SVGID_12_)" fill="#EBD467" d="M21.9,30.2c-0.1,0-0.1,0-0.2,0c0.6,0.1,1,0.6,1,1.2c0,0.7-0.5,1.2-1.2,1.2
			c-0.6,0-1.1-0.5-1.2-1c0,0.1,0,0.1,0,0.2c0,0.8,0.7,1.5,1.5,1.5s1.5-0.7,1.5-1.5C23.4,30.9,22.7,30.2,21.9,30.2"/>
	</g>
</g>
<g>
	<g>
		<defs>
			<rect id="SVGID_13_" x="11.5" y="4.7" width="3" height="3"/>
		</defs>
		<clipPath id="SVGID_14_">
			<use xlink:href="#SVGID_13_"  overflow="visible"/>
		</clipPath>
		<path clip-path="url(#SVGID_14_)" fill="#EBD467" d="M13,4.7c-0.1,0-0.1,0-0.2,0c0.6,0.1,1,0.6,1,1.2c0,0.7-0.5,1.2-1.2,1.2
			c-0.6,0-1.1-0.5-1.2-1c0,0.1,0,0.1,0,0.2c0,0.8,0.7,1.5,1.5,1.5s1.5-0.7,1.5-1.5S13.8,4.7,13,4.7"/>
	</g>
</g>
<g>
	<g>
		<defs>
			<rect id="SVGID_15_" x="38.1" y="14.6" width="3" height="3"/>
		</defs>
		<clipPath id="SVGID_16_">
			<use xlink:href="#SVGID_15_"  overflow="visible"/>
		</clipPath>
		<path clip-path="url(#SVGID_16_)" fill="#EBD467" d="M39.5,14.6c-0.1,0-0.1,0-0.2,0c0.6,0.1,1,0.6,1,1.2c0,0.7-0.5,1.2-1.2,1.2
			c-0.6,0-1.1-0.5-1.2-1c0,0.1,0,0.1,0,0.2c0,0.8,0.7,1.5,1.5,1.5s1.5-0.7,1.5-1.5S40.4,14.6,39.5,14.6"/>
	</g>
</g>
<g>
	<g>
		<defs>
			<rect id="SVGID_17_" x="18.5" y="10.1" width="1.9" height="1.9"/>
		</defs>
		<clipPath id="SVGID_18_">
			<use xlink:href="#SVGID_17_"  overflow="visible"/>
		</clipPath>
		<path clip-path="url(#SVGID_18_)" fill="#EBD467" d="M19.4,10.1c0,0-0.1,0-0.1,0c0.4,0,0.7,0.4,0.7,0.8c0,0.4-0.3,0.8-0.8,0.8
			c-0.4,0-0.7-0.3-0.8-0.7c0,0,0,0.1,0,0.1c0,0.5,0.4,1,1,1c0.5,0,1-0.4,1-1S20,10.1,19.4,10.1"/>
	</g>
</g>
<g>
	<g>
		<defs>
			<rect id="SVGID_19_" x="32.4" y="20.1" width="1.9" height="1.9"/>
		</defs>
		<clipPath id="SVGID_20_">
			<use xlink:href="#SVGID_19_"  overflow="visible"/>
		</clipPath>
		<path clip-path="url(#SVGID_20_)" fill="#EBD467" d="M33.4,20.1c0,0-0.1,0-0.1,0c0.4,0,0.7,0.4,0.7,0.8c0,0.4-0.3,0.8-0.8,0.8
			c-0.4,0-0.7-0.3-0.8-0.7c0,0,0,0.1,0,0.1c0,0.5,0.4,1,1,1c0.5,0,1-0.4,1-1S33.9,20.1,33.4,20.1"/>
	</g>
</g>
<g>
	<g>
		<defs>
			<rect id="SVGID_21_" x="49.4" y="31.3" width="1.9" height="1.9"/>
		</defs>
		<clipPath id="SVGID_22_">
			<use xlink:href="#SVGID_21_"  overflow="visible"/>
		</clipPath>
		<path clip-path="url(#SVGID_22_)" fill="#EBD467" d="M50.4,31.3c0,0-0.1,0-0.1,0c0.4,0,0.7,0.4,0.7,0.8c0,0.4-0.3,0.8-0.8,0.8
			c-0.4,0-0.7-0.3-0.8-0.7c0,0,0,0.1,0,0.1c0,0.5,0.4,1,1,1c0.5,0,1-0.4,1-1S50.9,31.3,50.4,31.3"/>
	</g>
</g>
<g>
	<g>
		<defs>
			<rect id="SVGID_23_" x="45.9" y="4.3" width="1.9" height="1.9"/>
		</defs>
		<clipPath id="SVGID_24_">
			<use xlink:href="#SVGID_23_"  overflow="visible"/>
		</clipPath>
		<path clip-path="url(#SVGID_24_)" fill="#EBD467" d="M46.9,4.3c0,0-0.1,0-0.1,0c0.4,0,0.7,0.4,0.7,0.8c0,0.4-0.3,0.8-0.8,0.8
			c-0.4,0-0.7-0.3-0.8-0.7c0,0,0,0.1,0,0.1c0,0.5,0.4,1,1,1c0.5,0,1-0.4,1-1C47.9,4.7,47.4,4.3,46.9,4.3"/>
	</g>
</g>
<g>
	<g>
		<defs>
			<rect id="SVGID_25_" x="3.2" y="29.9" width="1.9" height="1.9"/>
		</defs>
		<clipPath id="SVGID_26_">
			<use xlink:href="#SVGID_25_"  overflow="visible"/>
		</clipPath>
		<path clip-path="url(#SVGID_26_)" fill="#EBD467" d="M4.1,29.9c0,0-0.1,0-0.1,0c0.4,0,0.7,0.4,0.7,0.8c0,0.4-0.3,0.8-0.8,0.8
			c-0.4,0-0.7-0.3-0.8-0.7c0,0,0,0.1,0,0.1c0,0.5,0.4,1,1,1c0.5,0,1-0.4,1-1C5.1,30.4,4.7,29.9,4.1,29.9"/>
	</g>
</g>
<g>
	<g>
		<defs>
			<rect id="SVGID_27_" x="50.4" y="9.1" width="3" height="3"/>
		</defs>
		<clipPath id="SVGID_28_">
			<use xlink:href="#SVGID_27_"  overflow="visible"/>
		</clipPath>
		<path clip-path="url(#SVGID_28_)" fill="#EBD467" d="M51.9,9.1c-0.1,0-0.1,0-0.2,0c0.6,0.1,1,0.6,1,1.2c0,0.7-0.5,1.2-1.2,1.2
			c-0.6,0-1.1-0.5-1.2-1c0,0.1,0,0.1,0,0.2c0,0.8,0.7,1.5,1.5,1.5c0.8,0,1.5-0.7,1.5-1.5C53.3,9.8,52.7,9.1,51.9,9.1"/>
	</g>
</g>
</svg>
