<?xml version="1.0" encoding="utf-8"?>
<!-- Generator: Adobe Illustrator 15.0.2, SVG Export Plug-In . SVG Version: 6.00 Build 0)  -->
<!DOCTYPE svg PUBLIC "-//W3C//DTD SVG 1.1//EN" "http://www.w3.org/Graphics/SVG/1.1/DTD/svg11.dtd">
<svg version="1.1" id="Layer_1" xmlns="http://www.w3.org/2000/svg" xmlns:xlink="http://www.w3.org/1999/xlink" x="0px" y="0px"
	 width="66.3px" height="24.1px" viewBox="0 0 66.3 24.1" enable-background="new 0 0 66.3 24.1" xml:space="preserve">
<polygon fill="#D3D2D2" points="57.6,8.4 57.6,14.2 25.6,14.2 24.7,10.2 "/>
<polygon fill="#E0E0E0" points="57.6,14.2 55.7,12.8 55.7,8.1 57.6,8 "/>
<polygon fill="#AEACAC" points="55.8,12.8 55.8,8.1 57.6,8 57.6,8 55.7,8.1 55.7,12.8 57.6,14.2 57.6,14.1 "/>
<polygon fill="#9A9898" points="27.4,12.3 27.6,14.2 26.2,14.2 24.5,12.2 26.5,11.3 "/>
<path fill="#B52126" d="M2.8,9.1c0,0,1.1-3.9,7.9-4.9C17.6,3.2,51.4,0,51.4,0s8.8-0.7,12.2,9.1L4.3,14.3L2.8,9.1z"/>
<g>
	<g>
		<defs>
			<rect id="SVGID_1_" x="2.8" y="6.1" width="23.9" height="8.2"/>
		</defs>
		<clipPath id="SVGID_2_">
			<use xlink:href="#SVGID_1_"  overflow="visible"/>
		</clipPath>
		<path clip-path="url(#SVGID_2_)" fill="#A82526" d="M4.3,14.3l22.3-2c-0.2-1.8-0.4-3.4-0.4-3.4s-0.7-2.8-3.8-2.8H6.5
			c0,0-0.8,0.1-1.8,0.4c-1.6,1.3-2,2.6-2,2.6L4.3,14.3z"/>
	</g>
</g>
<path fill="#B52126" d="M1.8,9.3L0,21.9c0,0,0.4,0.9,1.1,0.9h65.2c0,0-1-4.4-5.4-4.4H28.8c0,0-2.1-0.4-2.3-1.9
	c-0.2-1.5-0.9-7.4-0.9-7.4s-0.7-2.8-3.8-2.8H5.9C5.9,6.3,2.1,6.7,1.8,9.3"/>
<path fill="#231F20" d="M2.4,22.8v0.7c0,0.3,0.3,0.6,0.6,0.6h62.8c0.3,0,0.6-0.3,0.6-0.6v-0.7H2.4z"/>
<g>
	<g>
		<defs>
			<rect id="SVGID_3_" x="1.7" y="6.3" width="23.9" height="3.1"/>
		</defs>
		<clipPath id="SVGID_4_">
			<use xlink:href="#SVGID_3_"  overflow="visible"/>
		</clipPath>
		<path clip-path="url(#SVGID_4_)" fill="#B52126" d="M25.6,9.2c-0.3-0.8-0.8-1.5-1.5-2c-0.7-0.5-1.5-0.6-2.4-0.6
			c-1.8,0.1-3.5,0.1-5.3,0.1c-1.8,0-3.5,0-5.3,0c-1.8,0-3.5,0-5.3-0.1l0,0C5.1,6.6,4.2,6.9,3.4,7.3C3,7.5,2.6,7.8,2.3,8.1
			C2.1,8.5,1.9,8.9,1.8,9.3l0,0C1.8,8.9,2,8.4,2.3,8.1c0.3-0.4,0.6-0.7,1-0.9C4.1,6.7,5,6.4,5.9,6.3h0h0l10.5,0l5.3,0
			c0.9,0,1.8,0.2,2.5,0.7C24.9,7.5,25.4,8.3,25.6,9.2L25.6,9.2z"/>
	</g>
</g>
<g>
	<g>
		<defs>
			<rect id="SVGID_5_" x="23.1" y="18.5" width="38.5" height="0.6"/>
		</defs>
		<clipPath id="SVGID_6_">
			<use xlink:href="#SVGID_5_"  overflow="visible"/>
		</clipPath>
		<path clip-path="url(#SVGID_6_)" fill="#B52126" d="M23.1,18.6l19.2,0l19.2,0v0.1l-4.8,0.3L52,19c-3.2,0.1-6.4,0.1-9.6,0.1
			c-3.2,0-6.4,0-9.6-0.1l-4.8-0.1L23.1,18.6L23.1,18.6z"/>
	</g>
</g>
<path fill="#A82526" d="M10.8,12.2c0,1.1-0.9,2.1-2.1,2.1c-1.1,0-2.1-0.9-2.1-2.1c0-1.1,0.9-2.1,2.1-2.1
	C9.8,10.2,10.8,11.1,10.8,12.2"/>
<g>
	<g>
		<defs>
			<rect id="SVGID_7_" x="7.2" y="10.8" width="3.6" height="3.5"/>
		</defs>
		<clipPath id="SVGID_8_">
			<use xlink:href="#SVGID_7_"  overflow="visible"/>
		</clipPath>
		<path clip-path="url(#SVGID_8_)" fill="#A82526" d="M10.1,10.8L9.9,11c0.3,0.3,0.5,0.8,0.5,1.3c0,1-0.8,1.8-1.8,1.8
			c-0.5,0-1-0.2-1.3-0.6l-0.2,0.2c0.4,0.4,0.9,0.7,1.6,0.7c1.1,0,2.1-0.9,2.1-2.1C10.8,11.7,10.5,11.1,10.1,10.8"/>
	</g>
</g>
<g>
	<g>
		<defs>
			<rect id="SVGID_9_" x="6.6" y="10.2" width="3.5" height="3.4"/>
		</defs>
		<clipPath id="SVGID_10_">
			<use xlink:href="#SVGID_9_"  overflow="visible"/>
		</clipPath>
		<path clip-path="url(#SVGID_10_)" fill="#A82526" d="M6.9,12.2c0-1,0.8-1.8,1.8-1.8c0.5,0,0.9,0.2,1.2,0.5l0.2-0.2
			c-0.4-0.4-0.9-0.6-1.4-0.6c-1.1,0-2.1,0.9-2.1,2.1c0,0.5,0.2,1,0.5,1.4l0.2-0.2C7.1,13.1,6.9,12.7,6.9,12.2"/>
	</g>
</g>
<path fill="#AEACAC" d="M53.8,12.2c0,0.3-0.3,0.6-0.6,0.6h-3.3c-0.3,0-0.6-0.3-0.6-0.6v-0.3c0-0.3,0.3-0.6,0.6-0.6h3.3
	c0.3,0,0.6,0.3,0.6,0.6V12.2z"/>
<g>
	<defs>
		<path id="SVGID_11_" d="M49.9,11.3c-0.3,0-0.6,0.3-0.6,0.6v0.3c0,0.3,0.3,0.6,0.6,0.6h3.3c0.3,0,0.6-0.3,0.6-0.6v-0.3
			c0-0.3-0.3-0.6-0.6-0.6H49.9z"/>
	</defs>
	<clipPath id="SVGID_12_">
		<use xlink:href="#SVGID_11_"  overflow="visible"/>
	</clipPath>
	<rect x="48.9" y="11.2" clip-path="url(#SVGID_12_)" fill="#B69C5B" width="0.3" height="1.6"/>
	<rect x="49.2" y="11.2" clip-path="url(#SVGID_12_)" fill="#72583C" width="0.1" height="1.6"/>
	<rect x="49.2" y="11.2" clip-path="url(#SVGID_12_)" fill="#B69C5B" width="0.3" height="1.6"/>
	<rect x="49.5" y="11.2" clip-path="url(#SVGID_12_)" fill="#72583C" width="0.1" height="1.6"/>
	<rect x="49.5" y="11.2" clip-path="url(#SVGID_12_)" fill="#B69C5B" width="0.3" height="1.6"/>
	<rect x="49.7" y="11.2" clip-path="url(#SVGID_12_)" fill="#72583C" width="0.1" height="1.6"/>
	<rect x="49.8" y="11.2" clip-path="url(#SVGID_12_)" fill="#B69C5B" width="0.3" height="1.6"/>
	<rect x="50" y="11.2" clip-path="url(#SVGID_12_)" fill="#72583C" width="0.1" height="1.6"/>
	<rect x="50.1" y="11.2" clip-path="url(#SVGID_12_)" fill="#B69C5B" width="0.3" height="1.6"/>
	<rect x="50.3" y="11.2" clip-path="url(#SVGID_12_)" fill="#72583C" width="0.1" height="1.6"/>
	<rect x="50.4" y="11.2" clip-path="url(#SVGID_12_)" fill="#B69C5B" width="0.3" height="1.6"/>
	<rect x="50.6" y="11.2" clip-path="url(#SVGID_12_)" fill="#72583C" width="0.1" height="1.6"/>
	<rect x="50.7" y="11.2" clip-path="url(#SVGID_12_)" fill="#B69C5B" width="0.3" height="1.6"/>
	<rect x="50.9" y="11.2" clip-path="url(#SVGID_12_)" fill="#72583C" width="0.1" height="1.6"/>
	<rect x="51" y="11.2" clip-path="url(#SVGID_12_)" fill="#B69C5B" width="0.3" height="1.6"/>
	<rect x="51.2" y="11.2" clip-path="url(#SVGID_12_)" fill="#72583C" width="0.1" height="1.6"/>
	<rect x="51.3" y="11.2" clip-path="url(#SVGID_12_)" fill="#B69C5B" width="0.3" height="1.6"/>
	<rect x="51.5" y="11.2" clip-path="url(#SVGID_12_)" fill="#72583C" width="0.1" height="1.6"/>
	<rect x="51.6" y="11.2" clip-path="url(#SVGID_12_)" fill="#B69C5B" width="0.3" height="1.6"/>
	<rect x="51.8" y="11.2" clip-path="url(#SVGID_12_)" fill="#72583C" width="0.1" height="1.6"/>
	<rect x="51.9" y="11.2" clip-path="url(#SVGID_12_)" fill="#B69C5B" width="0.3" height="1.6"/>
	<rect x="52.1" y="11.2" clip-path="url(#SVGID_12_)" fill="#72583C" width="0.1" height="1.6"/>
	<rect x="52.2" y="11.2" clip-path="url(#SVGID_12_)" fill="#B69C5B" width="0.3" height="1.6"/>
	<rect x="52.4" y="11.2" clip-path="url(#SVGID_12_)" fill="#72583C" width="0.1" height="1.6"/>
	<rect x="52.5" y="11.2" clip-path="url(#SVGID_12_)" fill="#B69C5B" width="0.3" height="1.6"/>
	<rect x="52.7" y="11.2" clip-path="url(#SVGID_12_)" fill="#72583C" width="0.1" height="1.6"/>
	<rect x="52.7" y="11.2" clip-path="url(#SVGID_12_)" fill="#B69C5B" width="0.3" height="1.6"/>
	<rect x="53" y="11.2" clip-path="url(#SVGID_12_)" fill="#72583C" width="0.1" height="1.6"/>
	<rect x="53" y="11.2" clip-path="url(#SVGID_12_)" fill="#B69C5B" width="0.3" height="1.6"/>
	<rect x="53.3" y="11.2" clip-path="url(#SVGID_12_)" fill="#72583C" width="0.1" height="1.6"/>
	<rect x="53.3" y="11.2" clip-path="url(#SVGID_12_)" fill="#B69C5B" width="0.3" height="1.6"/>
	<rect x="53.6" y="11.2" clip-path="url(#SVGID_12_)" fill="#72583C" width="0.1" height="1.6"/>
	<rect x="53.6" y="11.2" clip-path="url(#SVGID_12_)" fill="#B69C5B" width="0.3" height="1.6"/>
	<rect x="53.9" y="11.2" clip-path="url(#SVGID_12_)" fill="#72583C" width="0.1" height="1.6"/>
	<rect x="53.9" y="11.2" clip-path="url(#SVGID_12_)" fill="#B69C5B" width="0.3" height="1.6"/>
	<rect x="54.2" y="11.2" clip-path="url(#SVGID_12_)" fill="#72583C" width="0.1" height="1.6"/>
</g>
<g>
	<g>
		<defs>
			<rect id="SVGID_13_" x="49.4" y="11.3" width="4.4" height="1.4"/>
		</defs>
		<clipPath id="SVGID_14_">
			<use xlink:href="#SVGID_13_"  overflow="visible"/>
		</clipPath>
		<path clip-path="url(#SVGID_14_)" fill="#797677" d="M53.2,11.3h-3.3c-0.2,0-0.3,0.1-0.5,0.2c0.1-0.1,0.2-0.1,0.3-0.1H53
			c0.3,0,0.6,0.3,0.6,0.6v0.3c0,0.1-0.1,0.3-0.1,0.4c0.2-0.1,0.3-0.3,0.3-0.5v-0.3C53.8,11.5,53.5,11.3,53.2,11.3"/>
	</g>
</g>
</svg>
