<?xml version="1.0" encoding="utf-8"?>
<!-- Generator: Adobe Illustrator 15.0.2, SVG Export Plug-In . SVG Version: 6.00 Build 0)  -->
<!DOCTYPE svg PUBLIC "-//W3C//DTD SVG 1.1//EN" "http://www.w3.org/Graphics/SVG/1.1/DTD/svg11.dtd">
<svg version="1.1" id="Layer_1" xmlns="http://www.w3.org/2000/svg" xmlns:xlink="http://www.w3.org/1999/xlink" x="0px" y="0px"
	 width="83.2px" height="21.1px" viewBox="0 0 83.2 21.1" enable-background="new 0 0 83.2 21.1" xml:space="preserve">
<path fill="#918F90" d="M61.3,14.7c0,0,1.3,0.6,1.3,2.3h-3.3C59.3,17,59.4,14.7,61.3,14.7"/>
<rect x="59.3" y="17" fill="#464344" width="3.4" height="0.6"/>
<path fill="#F6F6F6" d="M83.2,3.1c0,0.9-0.7,1.6-1.6,1.6S80.1,4,80.1,3.1c0-0.9,0.7-1.6,1.6-1.6S83.2,2.3,83.2,3.1"/>
<path fill="#E4E4E4" d="M82.4,1.7c0.3,0.3,0.5,0.7,0.5,1.1c0,0.9-0.7,1.6-1.6,1.6c-0.2,0-0.5-0.1-0.7-0.2c0.3,0.3,0.7,0.4,1.1,0.4
	c0.9,0,1.6-0.7,1.6-1.6C83.2,2.5,82.9,2,82.4,1.7"/>
<path fill="#EAAA58" d="M42.6,3.1c0,0.5-0.2,1.1-0.5,1.4c-0.4,0.4-0.9,0.6-1.5,0.6c-1.1,0-2.1-0.9-2.1-2c0-1.1,1-2.1,2.1-2
	c0.5,0,1.1,0.2,1.5,0.6C42.5,2.1,42.6,2.6,42.6,3.1 M42.6,3.1c0-0.5-0.3-1-0.7-1.3c-0.4-0.3-0.8-0.5-1.3-0.5c-1,0-1.9,0.8-1.9,1.8
	c0,1,0.9,1.8,1.9,1.8c0.5,0,1-0.2,1.3-0.5C42.3,4.1,42.6,3.7,42.6,3.1"/>
<path fill="#EFDD85" d="M42.6,3.1c0,1.1-0.9,1.9-2,1.9c-1.1,0-2-0.9-2-1.9c0-1.1,0.9-1.9,2-1.9C41.7,1.2,42.6,2.1,42.6,3.1"/>
<path fill="#EAAA58" d="M40.6,2.2c0.4,0,0.8,0,1.2,0.1c0.2,0.1,0.4,0.2,0.6,0.3c0.2,0.1,0.3,0.3,0.3,0.6h-0.2c0-0.4-0.3-0.8-0.7-1
	c-0.4-0.2-0.8-0.3-1.3-0.4c-0.4,0-0.9,0.1-1.3,0.4c-0.4,0.2-0.7,0.6-0.7,1h-0.2c0-0.3,0.2-0.5,0.3-0.6c0.2-0.1,0.4-0.2,0.6-0.3
	C39.8,2.2,40.2,2.2,40.6,2.2 M40.6,2.2c-0.4,0-0.8,0.1-1.2,0.3c-0.2,0.1-0.4,0.1-0.5,0.3c-0.1,0.1-0.3,0.3-0.3,0.4h-0.2
	c0-0.5,0.3-1,0.7-1.2c0.4-0.3,0.9-0.4,1.4-0.4c0.5,0,1,0.1,1.4,0.4c0.4,0.3,0.7,0.7,0.7,1.2h-0.2c0-0.2-0.1-0.3-0.3-0.4
	c-0.1-0.1-0.3-0.2-0.5-0.3C41.4,2.3,41,2.2,40.6,2.2"/>
<path fill="#EAAA58" d="M40.6,4.1c-0.4,0-0.8,0-1.2-0.1c-0.2-0.1-0.4-0.2-0.6-0.3c-0.2-0.1-0.3-0.3-0.3-0.6h0.2c0,0.4,0.3,0.8,0.7,1
	c0.4,0.2,0.8,0.3,1.3,0.3c0.5,0,0.9-0.1,1.3-0.3c0.4-0.2,0.7-0.6,0.7-1h0.2c0,0.3-0.2,0.5-0.3,0.6C42.2,3.8,42,3.9,41.8,4
	C41.4,4.1,41,4.1,40.6,4.1 M40.6,4.1c0.4,0,0.8-0.1,1.2-0.3c0.2-0.1,0.4-0.1,0.5-0.3c0.1-0.1,0.3-0.3,0.3-0.4h0.2
	c0,0.5-0.3,1-0.7,1.2c-0.4,0.3-0.9,0.4-1.4,0.4c-0.5,0-1-0.1-1.4-0.4c-0.4-0.3-0.7-0.7-0.7-1.2h0.2c0,0.2,0.1,0.3,0.3,0.4
	c0.1,0.1,0.3,0.2,0.5,0.3C39.8,4,40.2,4.1,40.6,4.1"/>
<path fill="#EAAA58" d="M40.6,2.7c0.4,0,0.7,0,1.1,0c0.2,0,0.4,0.1,0.5,0.1c0.1,0,0.2,0,0.3,0.1c0.1,0,0.2,0.1,0.2,0.3h-0.2
	c0-0.3-0.4-0.6-0.8-0.7c-0.4-0.1-0.8-0.2-1.2-0.2c-0.4,0-0.8,0.1-1.1,0.2c-0.3,0.1-0.8,0.3-0.8,0.7h-0.2c0-0.2,0.2-0.2,0.2-0.3
	c0.1,0,0.2-0.1,0.3-0.1c0.2,0,0.4-0.1,0.5-0.1C39.9,2.7,40.3,2.7,40.6,2.7 M40.6,2.7c-0.4,0-0.7,0.1-1,0.2c-0.2,0-0.3,0.1-0.5,0.1
	c-0.1,0-0.4,0.1-0.4,0.2l-0.2-0.6l0,0.6c0-0.3,0.2-0.5,0.3-0.6c0.2-0.1,0.4-0.2,0.6-0.3c0.4-0.1,0.8-0.2,1.2-0.2
	c0.4,0,0.8,0.1,1.2,0.2c0.2,0.1,0.4,0.2,0.6,0.3c0.2,0.1,0.3,0.3,0.3,0.6l0-0.6l-0.2,0.6c0,0-0.2-0.1-0.4-0.2
	c-0.2,0-0.3-0.1-0.5-0.1C41.3,2.8,41,2.7,40.6,2.7"/>
<path fill="#EAAA58" d="M40.6,4.1c0.4,0,0.8-0.1,1.1-0.3c0.3-0.1,0.8-0.3,0.8-0.7h0.2c0,0.2-0.2,0.2-0.2,0.3c-0.1,0-0.2,0.1-0.3,0.1
	c-0.2,0-0.4,0.1-0.5,0.1c-0.4,0-0.7,0.1-1.1,0.1c-0.4,0-0.7,0-1.1-0.1c-0.2,0-0.4-0.1-0.5-0.1c-0.1,0-0.2,0-0.3-0.1
	c-0.1,0-0.2-0.1-0.2-0.3h0.2c0,0.3,0.4,0.6,0.8,0.7C39.8,4,40.2,4.1,40.6,4.1 M40.6,4.1c-0.4,0-0.8,0-1.2-0.1
	c-0.2-0.1-0.4-0.2-0.6-0.3c-0.2-0.1-0.3-0.3-0.3-0.6l0,0.6l0.2-0.6c0,0,0.2,0.1,0.4,0.2c0.2,0,0.3,0.1,0.5,0.1c0.3,0,0.7,0.1,1,0.1
	c0.4,0,0.7,0,1-0.1c0.2,0,0.3,0,0.5-0.1c0.1,0,0.4-0.1,0.4-0.2l0.2,0.6l0-0.6c0,0.3-0.2,0.5-0.3,0.6C42.2,3.8,42,3.9,41.8,4
	C41.4,4.1,41,4.1,40.6,4.1"/>
<path fill="#EAAA58" d="M40.6,3.5c0.4,0,0.7-0.1,1-0.2c0.2,0,0.3,0,0.5-0.1c0.1,0,0.4-0.1,0.4-0.2c0,0-0.2-0.1-0.4-0.2
	c-0.2,0-0.3-0.1-0.5-0.1c-0.3,0-0.7-0.1-1-0.1c-0.4,0-0.7,0-1,0.1c-0.2,0-0.3,0-0.5,0.1c-0.1,0-0.4,0.1-0.4,0.2c0,0,0.2,0.1,0.4,0.2
	c0.2,0,0.3,0.1,0.5,0.1C39.9,3.5,40.3,3.5,40.6,3.5 M40.6,3.5c-0.7,0-1.5,0.3-2.1-0.4c0-0.2,0.2-0.2,0.2-0.3c0.1,0,0.2-0.1,0.3-0.1
	c0.2,0,0.4-0.1,0.5-0.1c0.4,0,0.7-0.1,1.1-0.1c0.4,0,0.7,0,1.1,0.1c0.2,0,0.4,0.1,0.5,0.1c0.1,0,0.2,0,0.3,0.1
	c0.1,0,0.2,0.1,0.2,0.3C42.1,3.8,41.3,3.5,40.6,3.5"/>
<polygon fill="#E7E6E7" points="24.5,6.1 23.8,6.1 24.3,7.2 33,12.6 33.7,12.6 25,7.2 "/>
<polygon fill="#918F90" points="35,6.5 30.6,6.3 34.6,6.5 41.6,12.6 42.3,12.6 "/>
<polygon fill="#7B7979" points="24.5,6.1 24.5,6.1 30.6,6.3 "/>
<polygon fill="#D3D2D2" points="30.6,6.3 24.5,6.1 25,7.2 33.7,12.6 41.6,12.6 34.6,6.5 "/>
<path fill="#DEDDDE" d="M20,2.9c0,0.1-0.1,0.2-0.2,0.2h-0.6C19.1,3.1,19,3,19,2.9V1.7c0-0.1,0.1-0.2,0.2-0.2h0.6
	c0.1,0,0.2,0.1,0.2,0.2V2.9z"/>
<path fill="#706D6E" d="M19.5,1.7H19v1.2c0,0.1,0.1,0.2,0.2,0.2h0.4V2C19.7,1.8,19.6,1.7,19.5,1.7"/>
<path fill="#231F20" d="M19.6,3.1V2c0-0.1-0.1-0.2-0.2-0.2H19v1.1c0,0.1,0.1,0.2,0.2,0.2H19.6z"/>
<path fill="#D0EAF3" d="M16.4,1.3H19c-0.3-0.3-0.8-0.5-1.3-0.5S16.8,1,16.4,1.3"/>
<path fill="#D3D4D4" d="M15.9,2.6c0,1,0.8,1.8,1.8,1.8c1,0,1.8-0.8,1.8-1.8c0-0.2,0-0.4-0.1-0.5H16C15.9,2.2,15.9,2.4,15.9,2.6"/>
<path fill="#BDBCBC" d="M16.4,1.3c-0.2,0.2-0.4,0.5-0.5,0.8h3.5c-0.1-0.3-0.2-0.6-0.5-0.8H16.4z"/>
<path fill="#E9E9E9" d="M16.4,1.3c-0.2,0.2-0.4,0.5-0.5,0.8h0.4c0.1-0.3,0.2-0.6,0.4-0.8H16.4z"/>
<path fill="#696767" d="M19,1.3h-0.3c0.2,0.2,0.3,0.5,0.4,0.8h0.4C19.4,1.8,19.3,1.5,19,1.3"/>
<path fill="#848282" d="M18.2,1.3c0.1,0.2,0.1,0.5,0.2,0.8h0.8c-0.1-0.3-0.2-0.6-0.4-0.8H18.2z"/>
<path fill="#D3D2D2" d="M16.7,1.3c-0.2,0.2-0.3,0.5-0.4,0.8h0.8c0-0.3,0.1-0.6,0.2-0.8H16.7z"/>
<path fill="#A7A5A6" d="M17.3,1.3c-0.1,0.2-0.1,0.5-0.2,0.8h1.2c0-0.3-0.1-0.6-0.2-0.8H17.3z"/>
<path fill="#E0E1E1" d="M13.3,4.2c0,0,0.5-1.6,2.4-1.6h6.6c0,0,2.8,0.1,2.8,1.7c0,1.6-10.9,0.1-10.9,0.1L13.3,4.2z"/>
<path fill="#C8CAC9" d="M4.1,5.3c0,0,6.1-1.4,12-1.4h7.6c0,0,5.7,0.4,8.4,1.4c2.7,0.9-18,0.8-18,0.8L4.1,5.6V5.3z"/>
<polygon fill="#E9EAE9" points="0,5.3 0.9,7.3 35.3,7.3 36.1,5.3 "/>
<g opacity="0.6">
	<g>
		<defs>
			<rect id="SVGID_1_" x="0" y="5.3" width="36.1" height="2"/>
		</defs>
		<clipPath id="SVGID_2_">
			<use xlink:href="#SVGID_1_"  overflow="visible"/>
		</clipPath>
		<g opacity="0.8" clip-path="url(#SVGID_2_)">
			<g>
				<defs>
					<rect id="SVGID_3_" x="0" y="5.3" width="2.2" height="2"/>
				</defs>
				<clipPath id="SVGID_4_">
					<use xlink:href="#SVGID_3_"  overflow="visible"/>
				</clipPath>
				<polygon clip-path="url(#SVGID_4_)" fill="#E9EAE9" points="0,5.3 0.9,7.3 2.2,7.3 1.4,5.3 				"/>
			</g>
		</g>
		<g opacity="0.8" clip-path="url(#SVGID_2_)">
			<g>
				<defs>
					<rect id="SVGID_5_" x="33.9" y="5.3" width="2.2" height="2"/>
				</defs>
				<clipPath id="SVGID_6_">
					<use xlink:href="#SVGID_5_"  overflow="visible"/>
				</clipPath>
				<polygon clip-path="url(#SVGID_6_)" fill="#A8AAA8" points="34.7,5.3 33.9,7.3 35.3,7.3 36.1,5.3 				"/>
			</g>
		</g>
		<g opacity="0.5" clip-path="url(#SVGID_2_)">
			<g>
				<defs>
					<rect id="SVGID_7_" x="30.5" y="5.3" width="4.1" height="2"/>
				</defs>
				<clipPath id="SVGID_8_">
					<use xlink:href="#SVGID_7_"  overflow="visible"/>
				</clipPath>
				<polygon clip-path="url(#SVGID_8_)" fill="#A8AAA8" points="31.1,5.3 30.5,7.3 33.9,7.3 34.7,5.3 				"/>
			</g>
		</g>
		<g opacity="0.5" clip-path="url(#SVGID_2_)">
			<g>
				<defs>
					<rect id="SVGID_9_" x="1.4" y="5.3" width="4.2" height="2"/>
				</defs>
				<clipPath id="SVGID_10_">
					<use xlink:href="#SVGID_9_"  overflow="visible"/>
				</clipPath>
				<polygon clip-path="url(#SVGID_10_)" fill="#E9EAE9" points="1.4,5.3 2.2,7.3 5.6,7.3 5,5.3 				"/>
			</g>
		</g>
		<g opacity="0.2" clip-path="url(#SVGID_2_)">
			<g>
				<defs>
					<rect id="SVGID_11_" x="24.6" y="5.3" width="6.6" height="2"/>
				</defs>
				<clipPath id="SVGID_12_">
					<use xlink:href="#SVGID_11_"  overflow="visible"/>
				</clipPath>
				<polygon clip-path="url(#SVGID_12_)" fill="#A8AAA8" points="24.9,5.3 24.6,7.3 30.5,7.3 31.1,5.3 				"/>
			</g>
		</g>
		<g opacity="0.2" clip-path="url(#SVGID_2_)">
			<g>
				<defs>
					<rect id="SVGID_13_" x="5" y="5.3" width="6.6" height="2"/>
				</defs>
				<clipPath id="SVGID_14_">
					<use xlink:href="#SVGID_13_"  overflow="visible"/>
				</clipPath>
				<polygon clip-path="url(#SVGID_14_)" fill="#E9EAE9" points="5,5.3 5.6,7.3 11.6,7.3 11.3,5.3 				"/>
			</g>
		</g>
		<g opacity="5.000310e-002" clip-path="url(#SVGID_2_)">
			<g>
				<defs>
					<rect id="SVGID_15_" x="11.3" y="5.3" width="13.6" height="2"/>
				</defs>
				<clipPath id="SVGID_16_">
					<use xlink:href="#SVGID_15_"  overflow="visible"/>
				</clipPath>
				<polygon clip-path="url(#SVGID_16_)" fill="#E9EAE9" points="11.3,5.3 11.6,7.3 24.6,7.3 24.9,5.3 				"/>
			</g>
		</g>
	</g>
</g>
<path fill="#EFF4F6" d="M6,6C6,6.1,6,6.1,5.9,6.1H5.5C5.4,6.1,5.3,6.1,5.3,6c0-0.1,0.1-0.2,0.2-0.2h0.4C6,5.8,6,5.9,6,6"/>
<path fill="none" stroke="#515551" stroke-width="3.000000e-002" stroke-miterlimit="10" d="M6,6C6,6.1,6,6.1,5.9,6.1H5.5
	C5.4,6.1,5.3,6.1,5.3,6c0-0.1,0.1-0.2,0.2-0.2h0.4C6,5.8,6,5.9,6,6z"/>
<path fill="#515551" d="M5.4,6c0-0.1,0.1-0.2,0.2-0.2H5.5C5.4,5.8,5.3,5.9,5.3,6c0,0.1,0.1,0.2,0.2,0.2h0.1C5.5,6.1,5.4,6.1,5.4,6"
	/>
<path fill="#EFF4F6" d="M7.2,6c0,0.1-0.1,0.2-0.2,0.2H6.6C6.5,6.1,6.4,6.1,6.4,6c0-0.1,0.1-0.2,0.2-0.2H7C7.1,5.8,7.2,5.9,7.2,6"/>
<path fill="none" stroke="#515551" stroke-width="3.000000e-002" stroke-miterlimit="10" d="M7.2,6c0,0.1-0.1,0.2-0.2,0.2H6.6
	C6.5,6.1,6.4,6.1,6.4,6c0-0.1,0.1-0.2,0.2-0.2H7C7.1,5.8,7.2,5.9,7.2,6z"/>
<path fill="#515551" d="M6.5,6c0-0.1,0.1-0.2,0.2-0.2H6.6C6.5,5.8,6.4,5.9,6.4,6c0,0.1,0.1,0.2,0.2,0.2h0.1C6.6,6.1,6.5,6.1,6.5,6"
	/>
<path fill="#EFF4F6" d="M28.2,6c0,0.1-0.1,0.2-0.2,0.2h-0.4c-0.1,0-0.2-0.1-0.2-0.2c0-0.1,0.1-0.2,0.2-0.2H28
	C28.1,5.8,28.2,5.9,28.2,6"/>
<path fill="none" stroke="#515551" stroke-width="3.000000e-002" stroke-miterlimit="10" d="M28.2,6c0,0.1-0.1,0.2-0.2,0.2h-0.4
	c-0.1,0-0.2-0.1-0.2-0.2c0-0.1,0.1-0.2,0.2-0.2H28C28.1,5.8,28.2,5.9,28.2,6z"/>
<path fill="#515551" d="M27.5,6c0-0.1,0.1-0.2,0.2-0.2h-0.1c-0.1,0-0.2,0.1-0.2,0.2c0,0.1,0.1,0.2,0.2,0.2h0.1
	C27.6,6.1,27.5,6.1,27.5,6"/>
<path fill="#EFF4F6" d="M29.3,6c0,0.1-0.1,0.2-0.2,0.2h-0.4c-0.1,0-0.2-0.1-0.2-0.2c0-0.1,0.1-0.2,0.2-0.2h0.4
	C29.2,5.8,29.3,5.9,29.3,6"/>
<path fill="none" stroke="#515551" stroke-width="3.000000e-002" stroke-miterlimit="10" d="M29.3,6c0,0.1-0.1,0.2-0.2,0.2h-0.4
	c-0.1,0-0.2-0.1-0.2-0.2c0-0.1,0.1-0.2,0.2-0.2h0.4C29.2,5.8,29.3,5.9,29.3,6z"/>
<path fill="#515551" d="M28.6,6c0-0.1,0.1-0.2,0.2-0.2h-0.1c-0.1,0-0.2,0.1-0.2,0.2c0,0.1,0.1,0.2,0.2,0.2h0.1
	C28.7,6.1,28.6,6.1,28.6,6"/>
<path fill="#EFF4F6" d="M26.9,6.8c0,0.1-0.1,0.2-0.2,0.2h-0.4c-0.1,0-0.2-0.1-0.2-0.2c0-0.1,0.1-0.2,0.2-0.2h0.4
	C26.8,6.6,26.9,6.7,26.9,6.8"/>
<path fill="none" stroke="#515551" stroke-width="3.000000e-002" stroke-miterlimit="10" d="M26.9,6.8c0,0.1-0.1,0.2-0.2,0.2h-0.4
	c-0.1,0-0.2-0.1-0.2-0.2c0-0.1,0.1-0.2,0.2-0.2h0.4C26.8,6.6,26.9,6.7,26.9,6.8z"/>
<path fill="#515551" d="M26.2,6.8c0-0.1,0.1-0.2,0.2-0.2h-0.1c-0.1,0-0.2,0.1-0.2,0.2c0,0.1,0.1,0.2,0.2,0.2h0.1
	C26.3,7,26.2,6.9,26.2,6.8"/>
<path fill="#EFF4F6" d="M30.5,6c0,0.1-0.1,0.2-0.2,0.2h-0.4c-0.1,0-0.2-0.1-0.2-0.2c0-0.1,0.1-0.2,0.2-0.2h0.4
	C30.4,5.8,30.5,5.9,30.5,6"/>
<path fill="none" stroke="#515551" stroke-width="3.000000e-002" stroke-miterlimit="10" d="M30.5,6c0,0.1-0.1,0.2-0.2,0.2h-0.4
	c-0.1,0-0.2-0.1-0.2-0.2c0-0.1,0.1-0.2,0.2-0.2h0.4C30.4,5.8,30.5,5.9,30.5,6z"/>
<path fill="#515551" d="M29.8,6c0-0.1,0.1-0.2,0.2-0.2h-0.1c-0.1,0-0.2,0.1-0.2,0.2c0,0.1,0.1,0.2,0.2,0.2H30
	C29.9,6.1,29.8,6.1,29.8,6"/>
<path fill="#EFF4F6" d="M31.6,6c0,0.1-0.1,0.2-0.2,0.2H31c-0.1,0-0.2-0.1-0.2-0.2c0-0.1,0.1-0.2,0.2-0.2h0.4
	C31.5,5.8,31.6,5.9,31.6,6"/>
<path fill="none" stroke="#515551" stroke-width="3.000000e-002" stroke-miterlimit="10" d="M31.6,6c0,0.1-0.1,0.2-0.2,0.2H31
	c-0.1,0-0.2-0.1-0.2-0.2c0-0.1,0.1-0.2,0.2-0.2h0.4C31.5,5.8,31.6,5.9,31.6,6z"/>
<path fill="#515551" d="M30.9,6c0-0.1,0.1-0.2,0.2-0.2H31c-0.1,0-0.2,0.1-0.2,0.2c0,0.1,0.1,0.2,0.2,0.2h0.1C31,6.1,30.9,6.1,30.9,6
	"/>
<path fill="#EFF4F6" d="M4.4,6.8C4.4,6.9,4.4,7,4.2,7H3.9C3.8,7,3.7,6.9,3.7,6.8c0-0.1,0.1-0.2,0.2-0.2h0.4C4.4,6.6,4.4,6.7,4.4,6.8
	"/>
<path fill="none" stroke="#515551" stroke-width="3.000000e-002" stroke-miterlimit="10" d="M4.4,6.8C4.4,6.9,4.4,7,4.2,7H3.9
	C3.8,7,3.7,6.9,3.7,6.8c0-0.1,0.1-0.2,0.2-0.2h0.4C4.4,6.6,4.4,6.7,4.4,6.8z"/>
<path fill="#515551" d="M3.8,6.8c0-0.1,0.1-0.2,0.2-0.2H3.9c-0.1,0-0.2,0.1-0.2,0.2C3.7,6.9,3.8,7,3.9,7H4C3.9,7,3.8,6.9,3.8,6.8"/>
<path fill="#EFF4F6" d="M5.5,6.8C5.5,6.9,5.5,7,5.4,7H5C4.9,7,4.8,6.9,4.8,6.8c0-0.1,0.1-0.2,0.2-0.2h0.4C5.5,6.6,5.5,6.7,5.5,6.8"
	/>
<path fill="none" stroke="#515551" stroke-width="3.000000e-002" stroke-miterlimit="10" d="M5.5,6.8C5.5,6.9,5.5,7,5.4,7H5
	C4.9,7,4.8,6.9,4.8,6.8c0-0.1,0.1-0.2,0.2-0.2h0.4C5.5,6.6,5.5,6.7,5.5,6.8z"/>
<path fill="#515551" d="M4.9,6.8c0-0.1,0.1-0.2,0.2-0.2H5c-0.1,0-0.2,0.1-0.2,0.2C4.8,6.9,4.9,7,5,7h0.1C5,7,4.9,6.9,4.9,6.8"/>
<path fill="#4A4E4B" d="M17.4,4.7c0-0.1,0.1-0.3,0.3-0.3c0.1,0,0.3,0.1,0.3,0.3H17.4z"/>
<path fill="#4A4E4B" d="M18.3,4.7c0-0.1,0.1-0.3,0.3-0.3c0.1,0,0.3,0.1,0.3,0.3H18.3z"/>
<g>
	<g>
		<defs>
			<rect id="SVGID_17_" x="4.1" y="5.2" width="28" height="0.1"/>
		</defs>
		<clipPath id="SVGID_18_">
			<use xlink:href="#SVGID_17_"  overflow="visible"/>
		</clipPath>
		<path clip-path="url(#SVGID_18_)" fill="#BFBEBE" d="M32,5.3h-28v0c4.7-0.1,9.3-0.1,14-0.1C22.7,5.2,27.3,5.2,32,5.3L32,5.3z"/>
	</g>
</g>
<path fill="#C8CAC9" d="M18.8,7.3h-8c0,0,1.2,0.1,2.3,0.7c1.1,0.5,2.4,1.5,4,1.5h1.8h1.8c1.5,0,2.9-1,4-1.5c1.1-0.5,2.3-0.7,2.3-0.7
	H18.8z"/>
<rect x="17.1" y="9.5" fill="#929493" width="3.5" height="0.4"/>
<path fill="#F8F9F8" d="M19.9,9.9c0,0.4-0.5,0.6-1.1,0.6c-0.6,0-1.1-0.3-1.1-0.6H19.9z"/>
<path fill="#D6E1E7" d="M19.7,9.9c0,0.4-0.4,0.6-0.9,0.6c0.6,0,1.1-0.3,1.1-0.6H19.7z"/>
<path fill="#E6EDF0" d="M19.7,9.9h-0.1c0,0.4-0.3,0.6-0.8,0.6C19.3,10.5,19.7,10.3,19.7,9.9"/>
<g>
	<g>
		<defs>
			<rect id="SVGID_19_" x="13.7" y="8.4" width="10.1" height="0.1"/>
		</defs>
		<clipPath id="SVGID_20_">
			<use xlink:href="#SVGID_19_"  overflow="visible"/>
		</clipPath>
		<path clip-path="url(#SVGID_20_)" fill="#7B7979" d="M23.8,8.4H13.7c0,0,0.1,0,0.1,0.1h9.9C23.7,8.4,23.8,8.4,23.8,8.4"/>
	</g>
</g>
<path fill="#7B7979" d="M23.8,8.4h-10c0,0,0.1,0,0.1,0.1h9.8C23.7,8.4,23.7,8.4,23.8,8.4"/>
<path fill="#D3D2D2" d="M29.9,13.4v2.9v2.9c0.5,0.7,2.2,0.6,2.2,0.6v-3.5v-3.5C32,12.8,30.3,12.7,29.9,13.4"/>
<path fill="#9E7E64" d="M31.7,12.8C31.8,12.8,31.8,12.8,31.7,12.8l0.1,3.5v3.5c0,0,0,0-0.1,0c0.2,0,0.3,0,0.3,0v-3.5v-3.5
	C32.1,12.8,31.9,12.8,31.7,12.8"/>
<path fill="#D3D2D2" d="M32,12.5v3.8V20c0,0,3.8,1.1,7.8,1.1c4,0,6.3-0.7,8.5-1c2.2-0.2,4.4-0.5,5.7-0.5c0,0,1.9-2,5.6-2
	c0,0-0.1-1.3,0.3-1.8c0.4-0.5,1.6-1.4,1.6-1.4s-12-1.2-14.9-1.5S36.8,11.8,32,12.5"/>
<g opacity="0.5">
	<g>
		<defs>
			<rect id="SVGID_21_" x="29.9" y="18.3" width="2.2" height="1.4"/>
		</defs>
		<clipPath id="SVGID_22_">
			<use xlink:href="#SVGID_21_"  overflow="visible"/>
		</clipPath>
		<path clip-path="url(#SVGID_22_)" fill="#D3D2D2" d="M29.9,18.3v0.9c0.5,0.7,2.2,0.6,2.2,0.6v-1C32,18.8,30.3,18.8,29.9,18.3"/>
	</g>
</g>
<g opacity="0.5">
	<g>
		<defs>
			<rect id="SVGID_23_" x="29.9" y="12.8" width="2.2" height="1.4"/>
		</defs>
		<clipPath id="SVGID_24_">
			<use xlink:href="#SVGID_23_"  overflow="visible"/>
		</clipPath>
		<path clip-path="url(#SVGID_24_)" fill="#D3D2D2" d="M29.9,13.4v0.9c0.5-0.5,2.2-0.4,2.2-0.4v-1C32,12.8,30.3,12.7,29.9,13.4"/>
	</g>
</g>
<g opacity="0.3">
	<g>
		<defs>
			<rect id="SVGID_25_" x="29.9" y="17.1" width="2.2" height="1.7"/>
		</defs>
		<clipPath id="SVGID_26_">
			<use xlink:href="#SVGID_25_"  overflow="visible"/>
		</clipPath>
		<path clip-path="url(#SVGID_26_)" fill="#D3D2D2" d="M29.9,17.1v1.2c0.5,0.5,2.2,0.4,2.2,0.4v-1.5C32,17.3,30.3,17.3,29.9,17.1"/>
	</g>
</g>
<g opacity="0.3">
	<g>
		<defs>
			<rect id="SVGID_27_" x="29.9" y="13.8" width="2.2" height="1.7"/>
		</defs>
		<clipPath id="SVGID_28_">
			<use xlink:href="#SVGID_27_"  overflow="visible"/>
		</clipPath>
		<path clip-path="url(#SVGID_28_)" fill="#D3D2D2" d="M29.9,14.2v1.2c0.5-0.2,2.2-0.2,2.2-0.2v-1.5C32,13.8,30.3,13.8,29.9,14.2"/>
	</g>
</g>
<path fill="#918F90" d="M54.1,19.4c-1.3,0-3.4,0.2-5.7,0.5c-2.2,0.2-4.5,0.9-8.5,0.9c-4,0-7.8-1-7.8-1V20c0,0,3.8,1.1,7.8,1.1
	c4,0,6.3-0.7,8.5-1c2.2-0.2,4.4-0.5,5.7-0.5c0,0,1.9-2,5.6-2c0,0,0,0,0-0.1C55.9,17.6,54.1,19.4,54.1,19.4"/>
<g opacity="0.35">
	<g>
		<defs>
			<rect id="SVGID_29_" x="32" y="12.2" width="29.5" height="2.4"/>
		</defs>
		<clipPath id="SVGID_30_">
			<use xlink:href="#SVGID_29_"  overflow="visible"/>
		</clipPath>
		<path clip-path="url(#SVGID_30_)" fill="#D3D2D2" d="M46.7,13.4c2.7,0.3,12.9,1.2,14.6,1.3c0.2-0.1,0.3-0.2,0.3-0.2
			s-12-1.2-14.9-1.5c-2.9-0.3-9.8-1.2-14.6-0.5v0.4C36.8,12.3,43.8,13.1,46.7,13.4"/>
	</g>
</g>
<path fill="#72583C" d="M28.7,14h-0.3v4.5h0.3c0.5,0,0.8-1,0.8-2.3C29.5,15,29.2,14,28.7,14"/>
<polygon fill="#72583C" points="27.6,16.3 27.6,16.3 28.6,16.5 28.6,16.3 28.6,16.1 "/>
<g opacity="0.8">
	<g>
		<defs>
			<rect id="SVGID_31_" x="28.7" y="16.3" width="0.8" height="2"/>
		</defs>
		<clipPath id="SVGID_32_">
			<use xlink:href="#SVGID_31_"  overflow="visible"/>
		</clipPath>
		<path clip-path="url(#SVGID_32_)" fill="#72583C" d="M28.7,17.6v0.7c0.5,0,0.8-0.9,0.8-2C29.5,17,29.2,17.6,28.7,17.6"/>
	</g>
</g>
<g opacity="0.8">
	<g>
		<defs>
			<rect id="SVGID_33_" x="28.7" y="14.2" width="0.8" height="2"/>
		</defs>
		<clipPath id="SVGID_34_">
			<use xlink:href="#SVGID_33_"  overflow="visible"/>
		</clipPath>
		<path clip-path="url(#SVGID_34_)" fill="#72583C" d="M29.5,16.3c0-1.1-0.4-2-0.8-2v0.7C29.2,14.9,29.5,15.5,29.5,16.3"/>
	</g>
</g>
<g opacity="0.8">
	<g>
		<defs>
			<rect id="SVGID_35_" x="28.4" y="14.2" width="0.3" height="0.7"/>
		</defs>
		<clipPath id="SVGID_36_">
			<use xlink:href="#SVGID_35_"  overflow="visible"/>
		</clipPath>
		<rect x="28.4" y="14.2" clip-path="url(#SVGID_36_)" fill="#72583C" width="0.3" height="0.7"/>
	</g>
</g>
<g opacity="0.8">
	<g>
		<defs>
			<rect id="SVGID_37_" x="28.4" y="17.6" width="0.3" height="0.7"/>
		</defs>
		<clipPath id="SVGID_38_">
			<use xlink:href="#SVGID_37_"  overflow="visible"/>
		</clipPath>
		<rect x="28.4" y="17.6" clip-path="url(#SVGID_38_)" fill="#72583C" width="0.3" height="0.7"/>
	</g>
</g>
<g opacity="0.8">
	<g>
		<defs>
			<rect id="SVGID_39_" x="27.6" y="16.1" width="0.8" height="0.1"/>
		</defs>
		<clipPath id="SVGID_40_">
			<use xlink:href="#SVGID_39_"  overflow="visible"/>
		</clipPath>
		<polygon clip-path="url(#SVGID_40_)" fill="#72583C" points="28.4,16.1 27.6,16.3 27.6,16.3 28.4,16.2 		"/>
	</g>
</g>
<g opacity="0.8">
	<g>
		<defs>
			<rect id="SVGID_41_" x="27.6" y="16.3" width="0.8" height="0.1"/>
		</defs>
		<clipPath id="SVGID_42_">
			<use xlink:href="#SVGID_41_"  overflow="visible"/>
		</clipPath>
		<polygon clip-path="url(#SVGID_42_)" fill="#72583C" points="27.6,16.3 27.6,16.3 28.4,16.4 28.4,16.4 		"/>
	</g>
</g>
<g opacity="0.5">
	<g>
		<defs>
			<rect id="SVGID_43_" x="28.7" y="14.9" width="0.8" height="1.4"/>
		</defs>
		<clipPath id="SVGID_44_">
			<use xlink:href="#SVGID_43_"  overflow="visible"/>
		</clipPath>
		<path clip-path="url(#SVGID_44_)" fill="#72583C" d="M28.7,14.9v0.9c0.5,0,0.8,0.2,0.8,0.5C29.5,15.5,29.2,14.9,28.7,14.9"/>
	</g>
</g>
<g opacity="0.5">
	<g>
		<defs>
			<rect id="SVGID_45_" x="28.7" y="16.3" width="0.8" height="1.4"/>
		</defs>
		<clipPath id="SVGID_46_">
			<use xlink:href="#SVGID_45_"  overflow="visible"/>
		</clipPath>
		<path clip-path="url(#SVGID_46_)" fill="#72583C" d="M28.7,16.7v0.9c0.5,0,0.8-0.6,0.8-1.4C29.5,16.5,29.2,16.7,28.7,16.7"/>
	</g>
</g>
<g opacity="0.5">
	<g>
		<defs>
			<rect id="SVGID_47_" x="28.4" y="14.9" width="0.3" height="0.9"/>
		</defs>
		<clipPath id="SVGID_48_">
			<use xlink:href="#SVGID_47_"  overflow="visible"/>
		</clipPath>
		<rect x="28.4" y="14.9" clip-path="url(#SVGID_48_)" fill="#72583C" width="0.3" height="0.9"/>
	</g>
</g>
<g opacity="0.5">
	<g>
		<defs>
			<rect id="SVGID_49_" x="28.4" y="16.7" width="0.3" height="0.9"/>
		</defs>
		<clipPath id="SVGID_50_">
			<use xlink:href="#SVGID_49_"  overflow="visible"/>
		</clipPath>
		<rect x="28.4" y="16.7" clip-path="url(#SVGID_50_)" fill="#72583C" width="0.3" height="0.9"/>
	</g>
</g>
<g opacity="0.5">
	<g>
		<defs>
			<rect id="SVGID_51_" x="27.6" y="16.2" width="0.8" height="0.1"/>
		</defs>
		<clipPath id="SVGID_52_">
			<use xlink:href="#SVGID_51_"  overflow="visible"/>
		</clipPath>
		<polygon clip-path="url(#SVGID_52_)" fill="#72583C" points="28.4,16.2 27.6,16.3 27.6,16.3 28.4,16.3 		"/>
	</g>
</g>
<g opacity="0.5">
	<g>
		<defs>
			<rect id="SVGID_53_" x="27.6" y="16.3" width="0.8" height="0.1"/>
		</defs>
		<clipPath id="SVGID_54_">
			<use xlink:href="#SVGID_53_"  overflow="visible"/>
		</clipPath>
		<polygon clip-path="url(#SVGID_54_)" fill="#72583C" points="28.4,16.3 27.6,16.3 27.6,16.3 28.4,16.4 		"/>
	</g>
</g>
<g opacity="0.1">
	<g>
		<defs>
			<rect id="SVGID_55_" x="28.7" y="15.8" width="0.8" height="0.9"/>
		</defs>
		<clipPath id="SVGID_56_">
			<use xlink:href="#SVGID_55_"  overflow="visible"/>
		</clipPath>
		<path clip-path="url(#SVGID_56_)" fill="#72583C" d="M28.7,15.8v0.9c0.5,0,0.8-0.2,0.8-0.5S29.2,15.8,28.7,15.8"/>
	</g>
</g>
<g opacity="0.1">
	<g>
		<defs>
			<rect id="SVGID_57_" x="27.6" y="16.3" width="0.8" height="0.1"/>
		</defs>
		<clipPath id="SVGID_58_">
			<use xlink:href="#SVGID_57_"  overflow="visible"/>
		</clipPath>
		<polygon clip-path="url(#SVGID_58_)" fill="#72583C" points="28.4,16.3 27.6,16.3 27.6,16.3 28.4,16.3 		"/>
	</g>
</g>
<g opacity="0.1">
	<g>
		<defs>
			<rect id="SVGID_59_" x="28.4" y="15.8" width="0.3" height="0.9"/>
		</defs>
		<clipPath id="SVGID_60_">
			<use xlink:href="#SVGID_59_"  overflow="visible"/>
		</clipPath>
		<polygon clip-path="url(#SVGID_60_)" fill="#72583C" points="28.4,15.8 28.4,16.1 28.4,16.2 28.4,16.2 28.4,16.3 28.4,16.4 
			28.4,16.4 28.4,16.7 28.7,16.7 28.7,15.8 		"/>
	</g>
</g>
<rect x="29.7" y="15.4" fill="#72583C" width="0.1" height="1.8"/>
<rect x="29.5" y="16.1" fill="#72583C" width="0.2" height="0.4"/>
<g opacity="0.6">
	<g>
		<defs>
			<rect id="SVGID_61_" x="32.2" y="13.8" width="26.4" height="1.8"/>
		</defs>
		<clipPath id="SVGID_62_">
			<use xlink:href="#SVGID_61_"  overflow="visible"/>
		</clipPath>
		<path clip-path="url(#SVGID_62_)" fill="#D3D2D2" d="M32.2,15.1c2.1-0.9,4.3-1.1,6.5-1.2c2.2-0.1,4.5,0.2,6.6,0.4l6.6,0.6
			c2.2,0.2,4.4,0.4,6.6,0.7c-2.2,0.1-4.4,0-6.6,0c-2.2-0.1-4.4-0.2-6.6-0.4c-2.2-0.2-4.4-0.5-6.6-0.6c-1.1,0-2.2,0-3.3,0.1
			C34.4,14.7,33.3,14.8,32.2,15.1"/>
	</g>
</g>
<rect x="31.6" y="9.5" fill="#DFE8EC" width="0.7" height="0.3"/>
<rect x="32.6" y="9.5" fill="#DFE8EC" width="0.7" height="0.3"/>
<rect x="33.6" y="9.5" fill="#DFE8EC" width="0.7" height="0.3"/>
<rect x="34.5" y="9.5" fill="#DFE8EC" width="0.7" height="0.3"/>
<rect x="34.5" y="8.8" fill="#DFE8EC" width="0.7" height="0.3"/>
<rect x="34.5" y="8.2" fill="#DFE8EC" width="0.7" height="0.3"/>
<rect x="31.3" y="15.7" fill="#F9F7F2" width="1.7" height="0.1"/>
<rect x="31.3" y="16.8" fill="#E0D4B8" width="1.7" height="0.1"/>
<rect x="31.3" y="15.8" fill="#F0EBDE" width="1.7" height="0.9"/>
<g>
	<g>
		<defs>
			<rect id="SVGID_63_" x="31.3" y="15.8" width="0.3" height="1"/>
		</defs>
		<clipPath id="SVGID_64_">
			<use xlink:href="#SVGID_63_"  overflow="visible"/>
		</clipPath>
		<path clip-path="url(#SVGID_64_)" fill="#72583C" d="M31.3,15.8c0.2,0,0.3,0.2,0.3,0.5c0,0.3-0.2,0.5-0.3,0.5"/>
	</g>
</g>
<path fill="#B69C5B" d="M31.6,16.3c0,0.2-0.1,0.4-0.3,0.4s-0.3-0.2-0.3-0.4c0-0.2,0.1-0.4,0.3-0.4S31.6,16.1,31.6,16.3"/>
<rect x="48.3" y="5.1" fill="#D3D2D2" width="3.6" height="9.7"/>
<rect x="48.3" y="5.1" fill="#E9E9E9" width="0.1" height="9.7"/>
<rect x="51.8" y="5.1" fill="#AEACAC" width="0.1" height="9.7"/>
<path fill="#939192" d="M48.3,14.7h3.6v0c-0.6,0.1-1.2,0.1-1.8,0.1C49.5,14.8,48.9,14.8,48.3,14.7L48.3,14.7z"/>
<path fill="#D3D2D2" d="M41.9,0.8c0,0-1.3,0-1.3,0.4v2v2c0,0.4,1.3,0.4,1.3,0.4l38.5-0.4v-2v-2L41.9,0.8z"/>
<path fill="#EBEBEB" d="M41.9,0.8c0,0-1.3,0-1.3,0.4v0.6c0-0.3,1.3-0.3,1.3-0.3l38.5,0.3V1.2L41.9,0.8z"/>
<path fill="#B2B1B1" d="M40.6,4.5v0.6c0,0.4,1.3,0.4,1.3,0.4l38.5-0.4V4.5L41.9,4.8C41.9,4.8,40.6,4.8,40.6,4.5"/>
<path fill="#DCDBDB" d="M40.6,1.7v0.7c0-0.1,1.3-0.1,1.3-0.1l38.5,0.1V1.8L41.9,1.5C41.9,1.5,40.6,1.5,40.6,1.7"/>
<path fill="#C6C5C5" d="M40.6,3.8v0.7c0,0.3,1.3,0.3,1.3,0.3l38.5-0.3V3.8L41.9,4C41.9,4,40.6,4,40.6,3.8"/>
<rect x="39.3" y="16.8" fill="#DFE8EC" width="0.8" height="0.3"/>
<rect x="40.4" y="16.8" fill="#DFE8EC" width="0.8" height="0.3"/>
<rect x="41.5" y="16.8" fill="#DFE8EC" width="0.8" height="0.3"/>
<rect x="42.6" y="16.8" fill="#DFE8EC" width="0.8" height="0.3"/>
<rect x="45.1" y="16.8" fill="#DFE8EC" width="0.8" height="0.3"/>
<rect x="46.1" y="16.8" fill="#DFE8EC" width="0.8" height="0.3"/>
<rect x="47.1" y="16.8" fill="#DFE8EC" width="0.8" height="0.3"/>
<rect x="38.8" y="14.7" fill="#DFE8EC" width="0.8" height="0.3"/>
<rect x="39.7" y="14.7" fill="#DFE8EC" width="0.8" height="0.3"/>
<rect x="38.1" y="18.7" fill="#DFE8EC" width="0.8" height="0.3"/>
<rect x="51" y="16.1" fill="#DFE8EC" width="0.8" height="0.3"/>
<rect x="52.4" y="16.1" fill="#DFE8EC" width="0.8" height="0.3"/>
<rect x="54" y="16.1" fill="#DFE8EC" width="0.8" height="0.3"/>
<rect x="53.2" y="15.2" fill="#DFE8EC" width="0.8" height="0.3"/>
<rect x="42.4" y="14.7" fill="#DFE8EC" width="0.8" height="0.3"/>
<rect x="43.5" y="14.7" fill="#DFE8EC" width="0.8" height="0.3"/>
<rect x="42.4" y="0.8" fill="#4F4C4D" width="1.1" height="4.7"/>
<rect x="42.4" y="0.8" fill="#353132" width="0.3" height="4.7"/>
<path fill="#353132" d="M80.4,5.1H81c0,0,0-0.8,0.4-1.5c0.5-0.8,1.2-1.7,1.2-1.7S83,1.5,83,1.2h-2.6V5.1z"/>
<rect x="75.7" y="2.4" fill="#AEACAC" width="3.3" height="1.5"/>
<polygon fill="#918F90" points="75.8,2.5 79,2.5 79,2.4 75.7,2.4 75.7,3.9 75.8,3.9 "/>
<polygon fill="#AEACAC" points="69.8,1.3 78.5,1.3 77.4,0.2 71.1,0.2 "/>
<path fill="#CAC9C9" d="M69.4,1.1l1.1-0.9c0,0,0.4-0.2,1-0.2h5.6c0,0,0.5,0,0.8,0.3s1,1,1,1s-0.2,0.3-0.4,0.2
	c-0.3-0.1-0.9-0.9-0.9-0.9s-0.1-0.2-0.5-0.2h-5.6c0,0-0.6,0.1-0.8,0.4s-0.8,0.7-0.8,0.7S69.3,1.5,69.4,1.1"/>
<polygon fill="#B52126" points="46.8,2.6 47.1,3.7 49.2,3.7 48.9,2.6 "/>
<polygon fill="#EBD467" points="47.9,2.5 47.5,3.2 47.7,3.7 48.1,3.7 48,3.1 48.4,2.5 "/>
<polygon fill="#B52126" points="49.2,2.6 49.5,3.7 57.4,3.7 57.4,2.8 "/>
<polygon fill="#B52126" points="67.6,3 67.6,3.7 73.3,3.7 73.1,3.2 "/>
<rect x="41.8" y="3.8" fill="#C8C7C7" width="3.4" height="1.3"/>
<g>
	<g>
		<defs>
			<rect id="SVGID_65_" x="41.9" y="3.9" width="3" height="0.5"/>
		</defs>
		<clipPath id="SVGID_66_">
			<use xlink:href="#SVGID_65_"  overflow="visible"/>
		</clipPath>
		<path clip-path="url(#SVGID_66_)" fill="#C8C7C7" d="M41.9,3.9C42,4,42.2,4.1,42.3,4.2l-0.1,0h1.3h0.7c0.2,0,0.4,0,0.7,0.1
			c-0.2,0-0.4,0.1-0.7,0.1h-0.7h-1.3h0l0,0C42,4.2,42,4,41.9,3.9"/>
	</g>
</g>
<polygon fill="#231F20" points="45.1,3.9 44.8,4.2 44.8,5 45.1,5 "/>
<polygon fill="#C8C7C7" points="45.1,5.5 45.1,5.4 41.8,5.4 41.8,5.5 42.1,5.9 44.9,5.9 45.1,5.5 "/>
<polygon fill="#B52126" points="33.7,15.8 33.9,16.4 35.8,16.4 35.6,15.8 "/>
<polygon fill="#B52126" points="35.9,15.8 36,16.4 41.8,16.4 41.8,16.3 36.6,16.3 36.5,16.2 47.2,16.2 47.2,16 36.5,16 36.4,15.9 
	41.8,15.9 41.8,15.8 "/>
</svg>
