<?xml version="1.0" encoding="utf-8"?>
<!-- Generator: Adobe Illustrator 15.0.2, SVG Export Plug-In . SVG Version: 6.00 Build 0)  -->
<!DOCTYPE svg PUBLIC "-//W3C//DTD SVG 1.1//EN" "http://www.w3.org/Graphics/SVG/1.1/DTD/svg11.dtd">
<svg version="1.1" id="Layer_1" xmlns="http://www.w3.org/2000/svg" xmlns:xlink="http://www.w3.org/1999/xlink" x="0px" y="0px"
	 width="69.5px" height="53.1px" viewBox="0 0 69.5 53.1" enable-background="new 0 0 69.5 53.1" xml:space="preserve">
<path fill="none" stroke="#EBD467" stroke-width="0.805" stroke-miterlimit="10" d="M7.4,7.9c-0.2-1-0.7-1.7-1.1-2.6
	C6,4.5,5.8,3.7,5.5,3C5,2,4.3,1,3.3,0.6C2.1,0.1,0.9,0.6,0.5,1.9C0,3.3,1.6,4.6,2.6,5.2C3.5,5.7,4.4,6,5.3,6.5
	c0.6,0.4,1.3,1.1,1.9,1.3"/>
<path fill="#393536" d="M28.8,6.3c0,0,0.1-0.9-0.6-0.7c-0.7,0.2-20,1.7-20,1.7S7.1,7.6,7.2,8.1c0,0.2,0.1,0.6,0.2,1.2l21.5-2
	C28.8,6.7,28.8,6.3,28.8,6.3"/>
<path fill="#444142" d="M68.4,45.2c0,0-0.5-2-1.2-1.9h-0.5c-2.5,0.4-6.6,1-10.7,1.5c-6.3,0.8-15.2-0.2-15.2-0.2l-2.5-0.1l-13.8-1.1
	h-2H22H6.6c-1.1,0-0.9,1.8-0.9,1.8v0.2H22h0.5h2l13.8,1.1l2.5,0.1c0,0,8.9,1,15.2,0.2c4.1-0.5,8.2-1.1,10.7-1.5h1.1L68.4,45.2
	L68.4,45.2z"/>
<g>
	<g>
		<defs>
			<rect id="SVGID_1_" x="6.6" y="43.2" width="60.5" height="2.1"/>
		</defs>
		<clipPath id="SVGID_2_">
			<use xlink:href="#SVGID_1_"  overflow="visible"/>
		</clipPath>
		<path clip-path="url(#SVGID_2_)" fill="#444142" d="M67.2,43.4l-0.5,0h0c-3.5,0.6-7,1.2-10.5,1.6c-3.5,0.4-7.1,0.4-10.6,0.2
			c-1.8-0.1-3.5-0.2-5.3-0.4c-1.8-0.1-3.5-0.2-5.3-0.4l-10.6-0.9h0l-8.9,0l-8.9-0.1l8.9-0.1l8.9,0h0h0L35.1,44
			c1.8,0.1,3.5,0.3,5.3,0.4c1.8,0.2,3.5,0.3,5.3,0.4c3.5,0.2,7.1,0.3,10.6-0.1c3.5-0.4,7-0.9,10.5-1.4h0L67.2,43.4z"/>
	</g>
</g>
<path fill="#B69C5B" d="M57.4,51.6l0.7-0.2l0.4,0.4c5.6-1.5,10.9-3.2,10.9-3.2l-1.1-3.3h-1.4c-2.5,0.4-6.6,1-10.7,1.5
	C49.9,47.5,41,46.5,41,46.5l-2.5-0.1l-13.8-1.1h-2h-0.5H5.7v1.3v2.6v2.7c0,0,0.1,1.2,1,1.2h1l0.4-0.7h1.1l0.4,0.7h2.5l0.4-0.7h1.1
	l0.4,0.7h2.5l0.4-0.7H18l0.4,0.7h1l2.9-3.9l17.9,1l0.8,1.7c0,0,0.6,0.1,1.7,0.3l0.4-0.5l0.8,0.1l0.3,0.6c0.7,0.1,1.4,0.2,2.2,0.3
	l0.3-0.4l0.8,0l0.2,0.5c0.8,0.1,1.6,0.1,2.4,0.1l0.3-0.5l0.8,0l0.3,0.5c0.8,0,1.6-0.1,2.4-0.1l0.2-0.4l0.8-0.1l0.3,0.3
	c0.5-0.1,0.9-0.2,1.3-0.3c0.4-0.1,0.7-0.2,1.1-0.3L57.4,51.6z"/>
<g>
	<g>
		<defs>
			<rect id="SVGID_3_" x="7.4" y="6.2" width="21.2" height="2.4"/>
		</defs>
		<clipPath id="SVGID_4_">
			<use xlink:href="#SVGID_3_"  overflow="visible"/>
		</clipPath>
		
			<line clip-path="url(#SVGID_4_)" fill="none" stroke="#706D6E" stroke-width="0.379" stroke-linecap="round" stroke-miterlimit="10" x1="7.6" y1="8.3" x2="7.9" y2="8.3"/>
		
			<line clip-path="url(#SVGID_4_)" fill="none" stroke="#706D6E" stroke-width="0.379" stroke-linecap="round" stroke-miterlimit="10" stroke-dasharray="0.524,0.785" x1="8.7" y1="8.2" x2="27.8" y2="6.4"/>
		
			<line clip-path="url(#SVGID_4_)" fill="none" stroke="#706D6E" stroke-width="0.379" stroke-linecap="round" stroke-miterlimit="10" x1="28.2" y1="6.4" x2="28.5" y2="6.4"/>
	</g>
</g>
<path fill="#231F20" d="M6.7,44.3c0,0.2-0.1,0.3-0.3,0.3c-0.2,0-0.3-0.1-0.3-0.3c0-0.2,0.1-0.3,0.3-0.3C6.6,44,6.7,44.2,6.7,44.3"/>
<path fill="#231F20" d="M8.9,44.3c0,0.2-0.1,0.3-0.3,0.3s-0.3-0.1-0.3-0.3c0-0.2,0.1-0.3,0.3-0.3S8.9,44.2,8.9,44.3"/>
<path fill="#231F20" d="M10,44.3c0,0.2-0.1,0.3-0.3,0.3s-0.3-0.1-0.3-0.3c0-0.2,0.1-0.3,0.3-0.3S10,44.2,10,44.3"/>
<path fill="#231F20" d="M12.1,44.3c0,0.2-0.1,0.3-0.3,0.3s-0.3-0.1-0.3-0.3s0.1-0.3,0.3-0.3S12.1,44.2,12.1,44.3"/>
<path fill="#231F20" d="M13.2,44.3c0,0.2-0.1,0.3-0.3,0.3s-0.3-0.1-0.3-0.3s0.1-0.3,0.3-0.3S13.2,44.2,13.2,44.3"/>
<path fill="#231F20" d="M15.3,44.3c0,0.2-0.1,0.3-0.3,0.3s-0.3-0.1-0.3-0.3c0-0.2,0.1-0.3,0.3-0.3S15.3,44.2,15.3,44.3"/>
<path fill="#231F20" d="M16.4,44.3c0,0.2-0.1,0.3-0.3,0.3c-0.2,0-0.3-0.1-0.3-0.3c0-0.2,0.1-0.3,0.3-0.3
	C16.3,44,16.4,44.2,16.4,44.3"/>
<path fill="#231F20" d="M18.6,44.3c0,0.2-0.1,0.3-0.3,0.3S18,44.5,18,44.3s0.1-0.3,0.3-0.3S18.6,44.2,18.6,44.3"/>
<path fill="#231F20" d="M19.6,44.3c0,0.2-0.1,0.3-0.3,0.3S19,44.5,19,44.3s0.1-0.3,0.3-0.3S19.6,44.2,19.6,44.3"/>
<path fill="#231F20" d="M21.8,44.3c0,0.2-0.1,0.3-0.3,0.3c-0.2,0-0.3-0.1-0.3-0.3c0-0.2,0.1-0.3,0.3-0.3
	C21.6,44,21.8,44.2,21.8,44.3"/>
<path fill="#231F20" d="M22.9,44.3c0,0.2-0.1,0.3-0.3,0.3s-0.3-0.1-0.3-0.3c0-0.2,0.1-0.3,0.3-0.3S22.9,44.2,22.9,44.3"/>
<path fill="#231F20" d="M25,44.3c0,0.2-0.1,0.3-0.3,0.3s-0.3-0.1-0.3-0.3s0.1-0.3,0.3-0.3S25,44.2,25,44.3"/>
<path fill="#231F20" d="M26.1,44.4c0,0.2-0.1,0.3-0.3,0.3s-0.3-0.1-0.3-0.3s0.1-0.3,0.3-0.3S26.1,44.2,26.1,44.4"/>
<path fill="#231F20" d="M28.2,44.6c0,0.2-0.1,0.3-0.3,0.3s-0.3-0.1-0.3-0.3s0.1-0.3,0.3-0.3S28.2,44.4,28.2,44.6"/>
<path fill="#231F20" d="M29.3,44.6c0,0.2-0.1,0.3-0.3,0.3s-0.3-0.1-0.3-0.3s0.1-0.3,0.3-0.3S29.3,44.5,29.3,44.6"/>
<path fill="#231F20" d="M31.5,44.9c0,0.2-0.1,0.3-0.3,0.3s-0.3-0.1-0.3-0.3s0.1-0.3,0.3-0.3S31.5,44.7,31.5,44.9"/>
<path fill="#231F20" d="M32.5,45c0,0.2-0.1,0.3-0.3,0.3c-0.2,0-0.3-0.1-0.3-0.3c0-0.2,0.1-0.3,0.3-0.3C32.4,44.6,32.5,44.8,32.5,45"
	/>
<path fill="#231F20" d="M34.6,45.1c0,0.2-0.1,0.3-0.3,0.3S34,45.3,34,45.1s0.1-0.3,0.3-0.3S34.6,44.9,34.6,45.1"/>
<path fill="#231F20" d="M35.7,45.2c0,0.2-0.1,0.3-0.3,0.3s-0.3-0.1-0.3-0.3s0.1-0.3,0.3-0.3S35.7,45,35.7,45.2"/>
<path fill="#231F20" d="M37.9,45.3c0,0.2-0.1,0.3-0.3,0.3s-0.3-0.1-0.3-0.3s0.1-0.3,0.3-0.3S37.9,45.2,37.9,45.3"/>
<path fill="#231F20" d="M38.9,45.5c0,0.2-0.1,0.3-0.3,0.3c-0.2,0-0.3-0.1-0.3-0.3s0.1-0.3,0.3-0.3C38.7,45.2,38.9,45.3,38.9,45.5"/>
<path fill="#231F20" d="M41.1,45.6c0,0.2-0.1,0.3-0.3,0.3s-0.3-0.1-0.3-0.3c0-0.2,0.1-0.3,0.3-0.3S41.1,45.4,41.1,45.6"/>
<path fill="#231F20" d="M42.1,45.7c0,0.2-0.1,0.3-0.3,0.3s-0.3-0.1-0.3-0.3c0-0.2,0.1-0.3,0.3-0.3S42.1,45.5,42.1,45.7"/>
<path fill="#231F20" d="M44.3,45.9c0,0.2-0.1,0.3-0.3,0.3c-0.2,0-0.3-0.1-0.3-0.3s0.1-0.3,0.3-0.3C44.1,45.6,44.3,45.7,44.3,45.9"/>
<path fill="#231F20" d="M45.3,46c0,0.2-0.1,0.3-0.3,0.3s-0.3-0.1-0.3-0.3s0.1-0.3,0.3-0.3S45.3,45.8,45.3,46"/>
<path fill="#231F20" d="M47.5,46.1c0,0.2-0.1,0.3-0.3,0.3s-0.3-0.1-0.3-0.3s0.1-0.3,0.3-0.3S47.5,45.9,47.5,46.1"/>
<path fill="#231F20" d="M48.6,46.1c0,0.2-0.1,0.3-0.3,0.3S48,46.3,48,46.1s0.1-0.3,0.3-0.3S48.6,45.9,48.6,46.1"/>
<path fill="#231F20" d="M50.7,46.2c0,0.2-0.1,0.3-0.3,0.3s-0.3-0.1-0.3-0.3s0.1-0.3,0.3-0.3S50.7,46,50.7,46.2"/>
<path fill="#231F20" d="M51.8,46.2c0,0.2-0.1,0.3-0.3,0.3s-0.3-0.1-0.3-0.3s0.1-0.3,0.3-0.3S51.8,46,51.8,46.2"/>
<path fill="#231F20" d="M53.9,46.1c0,0.2-0.1,0.3-0.3,0.3s-0.3-0.1-0.3-0.3s0.1-0.3,0.3-0.3S53.9,45.9,53.9,46.1"/>
<path fill="#231F20" d="M55,46c0,0.2-0.1,0.3-0.3,0.3s-0.3-0.1-0.3-0.3c0-0.2,0.1-0.3,0.3-0.3S55,45.9,55,46"/>
<path fill="#231F20" d="M57.2,45.8c0,0.2-0.1,0.3-0.3,0.3c-0.2,0-0.3-0.1-0.3-0.3s0.1-0.3,0.3-0.3C57,45.5,57.2,45.7,57.2,45.8"/>
<path fill="#231F20" d="M58.2,45.7c0,0.2-0.1,0.3-0.3,0.3s-0.3-0.1-0.3-0.3s0.1-0.3,0.3-0.3S58.2,45.6,58.2,45.7"/>
<path fill="#231F20" d="M60.3,45.4c0,0.2-0.1,0.3-0.3,0.3s-0.3-0.1-0.3-0.3s0.1-0.3,0.3-0.3S60.3,45.3,60.3,45.4"/>
<path fill="#231F20" d="M61.4,45.3c0,0.2-0.1,0.3-0.3,0.3s-0.3-0.1-0.3-0.3s0.1-0.3,0.3-0.3S61.4,45.1,61.4,45.3"/>
<path fill="#231F20" d="M63.5,44.9c0,0.2-0.1,0.3-0.3,0.3s-0.3-0.1-0.3-0.3s0.1-0.3,0.3-0.3S63.5,44.8,63.5,44.9"/>
<path fill="#231F20" d="M64.6,44.8c0,0.2-0.1,0.3-0.3,0.3s-0.3-0.1-0.3-0.3s0.1-0.3,0.3-0.3S64.6,44.6,64.6,44.8"/>
<path fill="#231F20" d="M66.7,44.5c0,0.2-0.1,0.3-0.3,0.3s-0.3-0.1-0.3-0.3s0.1-0.3,0.3-0.3S66.7,44.3,66.7,44.5"/>
<line fill="none" stroke="#231F20" stroke-width="0.379" stroke-linecap="round" stroke-miterlimit="10" x1="7.6" y1="8.5" x2="7.8" y2="8.4"/>
<line fill="none" stroke="#231F20" stroke-width="0.379" stroke-linecap="round" stroke-miterlimit="10" stroke-dasharray="0.524,0.785" x1="8.6" y1="8.4" x2="27.8" y2="6.5"/>
<line fill="none" stroke="#231F20" stroke-width="0.379" stroke-linecap="round" stroke-miterlimit="10" x1="28.2" y1="6.5" x2="28.4" y2="6.5"/>
<path fill="#444142" d="M60.3,34.3c-7.2,0.3-12.1-0.3-12.8-0.4c-5.2,0-13.6-3.1-18-5.4c-4.4-2.3-4.7-8.1-4.7-8.1L24.3,7.7l-17,1.6
	c0.2,1.3,0.5,3.3,0.5,3.3s2,10.1,0.9,16.3c-0.9,5.1-2,11-2,14.6h15.1h0.5h2L38,44.6l2.5,0.1c0,0,8.9,1,15.2,0.2
	c4.1-0.5,8.2-1.1,10.7-1.5h0.7C66.9,40.2,65.6,34.1,60.3,34.3"/>
<path fill="#484546" d="M29.5,28.5c4.4,2.3,12.8,5.4,18,5.4c-0.7-0.1-0.3-2.8-2.8-3.3s-9-4.1-9-4.1s-6-1.3-6.3-6.4
	C29,16,28.9,9.6,28.9,7.3l-4.5,0.4l0.4,12.7C24.8,20.4,25.1,26.2,29.5,28.5"/>
<path fill="none" stroke="#231F20" stroke-width="0.379" stroke-linecap="round" stroke-miterlimit="10" stroke-dasharray="0.537,0.805" d="
	M24,8l0.4,12.7c0,0,0.4,5.8,4.7,8.1c4.4,2.3,12.8,5.4,18,5.4"/>
<path fill="none" stroke="#EBD467" stroke-width="0.429" stroke-linecap="round" stroke-miterlimit="10" stroke-dasharray="2.147,1.073" d="
	M6.5,44.3h16.2h0.5h2l13.8,1.1l2.5,0.1c0,0,8.9,1,15.2,0.2c4.1-0.5,8.2-1.1,10.7-1.5"/>
<path fill="none" stroke="#231F20" stroke-width="0.379" stroke-linecap="round" stroke-miterlimit="10" stroke-dasharray="0.537,0.805" d="
	M8.9,31.4c0,0,10.9,2.8,12.3,10.9"/>
<path fill="none" stroke="#231F20" stroke-width="0.379" stroke-linecap="round" stroke-miterlimit="10" stroke-dasharray="0.537,0.805" d="
	M46.9,34.8c0,0-13.7,1.3-13.4,8.5"/>
<circle fill="none" stroke="#231F20" stroke-width="0.365" stroke-linecap="round" stroke-miterlimit="10" cx="26.7" cy="9.9" r="0.9"/>
<path fill="#C6C5C5" d="M27.6,9.9c0,0.5-0.4,1-0.9,0.9c-0.5,0-0.9-0.4-0.9-0.9c0-0.5,0.4-1,0.9-1C27.2,9,27.7,9.5,27.6,9.9
	 M27.6,9.9c0-0.5-0.4-0.9-0.9-0.9c-0.5,0-0.9,0.4-0.9,0.9c0,0.5,0.4,0.9,0.9,0.9C27.2,10.8,27.6,10.4,27.6,9.9"/>
<circle fill="none" stroke="#231F20" stroke-width="0.365" stroke-linecap="round" stroke-miterlimit="10" cx="26.7" cy="13.7" r="0.9"/>
<path fill="#C6C5C5" d="M27.6,13.7c0,0.5-0.4,1-0.9,0.9c-0.5,0-0.9-0.4-0.9-0.9c0-0.5,0.4-1,0.9-1C27.2,12.7,27.7,13.2,27.6,13.7
	 M27.6,13.7c0-0.5-0.4-0.9-0.9-0.9c-0.5,0-0.9,0.4-0.9,0.9c0,0.5,0.4,0.9,0.9,0.9C27.2,14.6,27.6,14.2,27.6,13.7"/>
<circle fill="none" stroke="#231F20" stroke-width="0.365" stroke-linecap="round" stroke-miterlimit="10" cx="26.9" cy="17.3" r="0.9"/>
<path fill="#C6C5C5" d="M27.8,17.3c0,0.5-0.4,1-0.9,0.9c-0.5,0-0.9-0.4-0.9-0.9c0-0.5,0.4-1,0.9-0.9C27.4,16.4,27.9,16.9,27.8,17.3
	 M27.8,17.3c0-0.5-0.4-0.9-0.9-0.9c-0.5,0-0.9,0.4-0.9,0.9c0,0.5,0.4,0.9,0.9,0.9C27.4,18.2,27.8,17.8,27.8,17.3"/>
<circle fill="none" stroke="#231F20" stroke-width="0.365" stroke-linecap="round" stroke-miterlimit="10" cx="27.3" cy="21.1" r="0.9"/>
<path fill="#C6C5C5" d="M28.2,21.1c0,0.5-0.4,1-0.9,0.9c-0.5,0-0.9-0.4-0.9-0.9c0-0.5,0.4-1,0.9-1C27.8,20.1,28.3,20.6,28.2,21.1
	 M28.2,21.1c0-0.5-0.4-0.9-0.9-0.9c-0.5,0-0.9,0.4-0.9,0.9c0,0.5,0.4,0.9,0.9,0.9C27.8,22,28.2,21.6,28.2,21.1"/>
<circle fill="none" stroke="#231F20" stroke-width="0.365" stroke-linecap="round" stroke-miterlimit="10" cx="28.9" cy="24.7" r="0.9"/>
<path fill="#C6C5C5" d="M29.8,24.7c0,0.5-0.4,1-0.9,0.9c-0.5,0-0.9-0.4-0.9-0.9c0-0.5,0.4-1,0.9-1C29.4,23.7,29.8,24.2,29.8,24.7
	 M29.8,24.7c0-0.5-0.4-0.9-0.9-0.9c-0.5,0-0.9,0.4-0.9,0.9c0,0.5,0.4,0.9,0.9,0.9C29.3,25.6,29.8,25.2,29.8,24.7"/>
<circle fill="none" stroke="#231F20" stroke-width="0.365" stroke-linecap="round" stroke-miterlimit="10" cx="31.8" cy="27.2" r="0.9"/>
<path fill="#C6C5C5" d="M32.8,27.2c0,0.5-0.4,1-0.9,0.9c-0.5,0-0.9-0.4-0.9-0.9c0-0.5,0.4-1,0.9-0.9C32.3,26.2,32.8,26.7,32.8,27.2
	 M32.7,27.2c0-0.5-0.4-0.9-0.9-0.9c-0.5,0-0.9,0.4-0.9,0.9c0,0.5,0.4,0.9,0.9,0.9C32.3,28.1,32.7,27.7,32.7,27.2"/>
<circle fill="none" stroke="#231F20" stroke-width="0.365" stroke-linecap="round" stroke-miterlimit="10" cx="35.3" cy="28.8" r="0.9"/>
<path fill="#C6C5C5" d="M36.2,28.8c0,0.5-0.4,1-0.9,0.9c-0.5,0-0.9-0.4-0.9-0.9c0-0.5,0.4-1,0.9-1C35.8,27.8,36.2,28.3,36.2,28.8
	 M36.2,28.8c0-0.5-0.4-0.9-0.9-0.9c-0.5,0-0.9,0.4-0.9,0.9c0,0.5,0.4,0.9,0.9,0.9C35.7,29.7,36.2,29.3,36.2,28.8"/>
<circle fill="none" stroke="#231F20" stroke-width="0.365" stroke-linecap="round" stroke-miterlimit="10" cx="38.6" cy="30.2" r="0.9"/>
<path fill="#C6C5C5" d="M39.5,30.2c0,0.5-0.4,1-0.9,0.9c-0.5,0-0.9-0.4-0.9-0.9c0-0.5,0.4-1,0.9-1C39.1,29.3,39.6,29.8,39.5,30.2
	 M39.5,30.2c0-0.5-0.4-0.9-0.9-0.9c-0.5,0-0.9,0.4-0.9,0.9c0,0.5,0.4,0.9,0.9,0.9C39.1,31.1,39.5,30.7,39.5,30.2"/>
<circle fill="none" stroke="#231F20" stroke-width="0.365" stroke-linecap="round" stroke-miterlimit="10" cx="42.2" cy="31.6" r="0.9"/>
<path fill="#C6C5C5" d="M43.1,31.6c0,0.5-0.4,1-0.9,0.9c-0.5,0-0.9-0.4-0.9-0.9c0-0.5,0.4-1,0.9-1C42.7,30.6,43.1,31.1,43.1,31.6
	 M43.1,31.6c0-0.5-0.4-0.9-0.9-0.9c-0.5,0-0.9,0.4-0.9,0.9c0,0.5,0.4,0.9,0.9,0.9C42.7,32.4,43.1,32.1,43.1,31.6"/>
<g opacity="0.5">
	<g>
		<defs>
			<rect id="SVGID_5_" x="20.5" y="9.8" width="17.9" height="25.4"/>
		</defs>
		<clipPath id="SVGID_6_">
			<use xlink:href="#SVGID_5_"  overflow="visible"/>
		</clipPath>
		<path clip-path="url(#SVGID_6_)" fill="#C6C5C5" d="M22.4,10c0.2,1.5,0.3,2.9,0.4,4.3c0.1,1.4,0.2,2.8,0.1,4.1
			c-0.1,1.4-0.3,2.8,0,4.2c0.3,1.4,0.9,2.7,1.8,3.7c0.9,1.1,1.8,2,2.8,2.9c1,0.9,2.1,1.5,3.2,2.2c2.2,1.3,4.8,2.2,7.5,3.3
			c0.1,0,0.1,0.1,0.1,0.2c0,0-0.1,0.1-0.1,0.1c-2.9,0.7-6.1,0.3-8.9-1.1c-1.4-0.7-2.6-1.7-3.7-2.9c-1.1-1.1-1.8-2.5-2.3-4
			c-0.5-1.4-0.9-2.8-1.3-4.2c-0.5-1.4-1.1-2.8-1.4-4.2c-0.3-1.5-0.2-3,0-4.4c0.3-1.5,0.6-2.9,1.4-4.2c0-0.1,0.1-0.1,0.2,0
			C22.4,9.9,22.4,9.9,22.4,10L22.4,10z"/>
	</g>
</g>
<g opacity="0.5">
	<g>
		<defs>
			<rect id="SVGID_7_" x="45.3" y="41.1" width="18.6" height="3.5"/>
		</defs>
		<clipPath id="SVGID_8_">
			<use xlink:href="#SVGID_7_"  overflow="visible"/>
		</clipPath>
		<path clip-path="url(#SVGID_8_)" fill="#C6C5C5" d="M63.9,41.2c-1.4,0.9-2.9,1.4-4.4,1.9c-1.5,0.5-3.1,0.8-4.6,1.1
			c-1.6,0.2-3.2,0.4-4.8,0.3c-0.8,0-1.6-0.1-2.4-0.3c-0.8-0.2-1.7-0.4-2.3-0.9c0.8,0,1.6-0.2,2.3-0.4l2.3-0.5c1.5-0.3,3-0.6,4.6-0.8
			c1.5-0.2,3.1-0.4,4.7-0.5C60.7,41,62.3,41,63.9,41.2"/>
	</g>
</g>
<g opacity="0.5">
	<g>
		<defs>
			<rect id="SVGID_9_" x="8.9" y="34.4" width="8.1" height="4.5"/>
		</defs>
		<clipPath id="SVGID_10_">
			<use xlink:href="#SVGID_9_"  overflow="visible"/>
		</clipPath>
		<path clip-path="url(#SVGID_10_)" fill="#C6C5C5" d="M8.9,34.7c0.9-0.3,1.7-0.3,2.6-0.2c0.8,0.1,1.6,0.3,2.3,0.6
			c0.7,0.3,1.4,0.8,2.1,1.4c0.3,0.3,0.6,0.6,0.8,1.1c0.1,0.2,0.2,0.4,0.3,0.7c0.1,0.2,0.1,0.5-0.1,0.7c-0.3-0.3-0.7-0.3-1.1-0.4
			l-1.1-0.3c-0.7-0.2-1.4-0.4-2.1-0.7c-0.7-0.3-1.3-0.7-2-1.1C10.1,36,9.5,35.5,8.9,34.7"/>
	</g>
</g>
<g opacity="0.42">
	<g>
		<defs>
			<rect id="SVGID_11_" x="8.9" y="12.2" width="5" height="19"/>
		</defs>
		<clipPath id="SVGID_12_">
			<use xlink:href="#SVGID_11_"  overflow="visible"/>
		</clipPath>
		<path clip-path="url(#SVGID_12_)" fill="#807D7E" d="M8.9,12.2c0,0,3.4,16.9,4.8,18.4c1.4,1.5-3.5,0-3.5,0S10.5,17,8.9,12.2"/>
	</g>
</g>
<path fill="none" stroke="#231F20" stroke-width="1.342" stroke-linecap="round" stroke-miterlimit="10" d="M26.7,9.9
	c0.2,0,0.3-0.1,0.4-0.1c0.2,0,0.4,0,0.6,0c0.4,0,0.8-0.1,1.1,0c0.4,0.1,0.9,0.1,1,0.6c0,0.3-0.3,0.4-0.5,0.4"/>
<path fill="none" stroke="#231F20" stroke-width="1.342" stroke-linecap="round" stroke-miterlimit="10" d="M26.6,13.7
	c0.6-0.2,1.1-0.3,1.7-0.4c0.3-0.1,0.6-0.2,1-0.2c0.6,0.1,0.8,1.1,0,1.1"/>
<path fill="none" stroke="#231F20" stroke-width="1.342" stroke-linecap="round" stroke-miterlimit="10" d="M26.8,17.3
	c0.4-0.3,0.9-0.2,1.3-0.4c0.4-0.2,0.8-0.3,1.3-0.3c0.3,0,0.7,0.1,0.7,0.5c0,0.3-0.5,0.5-0.8,0.5"/>
<path fill="none" stroke="#231F20" stroke-width="1.342" stroke-linecap="round" stroke-miterlimit="10" d="M27.3,21.1
	c0.3-0.4,1.1-0.4,1.5-0.5c0.4-0.1,0.7-0.3,1.2-0.3c0.3,0,0.5,0.1,0.5,0.4c0.1,0.4,0,0.6-0.4,0.6"/>
<path fill="none" stroke="#231F20" stroke-width="1.342" stroke-linecap="round" stroke-miterlimit="10" d="M28.9,24.8
	c0.2-0.5,0.8-0.8,1.2-1.1c0.3-0.2,0.5-0.4,0.8-0.7c0.2-0.2,0.5-0.4,0.7-0.2c0.2,0.2,0.1,0.7-0.3,0.6"/>
<path fill="none" stroke="#231F20" stroke-width="1.342" stroke-linecap="round" stroke-miterlimit="10" d="M31.9,27.2
	c0.1-0.4,0.4-0.8,0.5-1.2c0.1-0.2,0.2-0.5,0.3-0.7c0.2-0.3,0.4-0.6,0.7-0.9"/>
<path fill="none" stroke="#231F20" stroke-width="1.342" stroke-linecap="round" stroke-miterlimit="10" d="M35.2,28.8
	c0.2-0.6,0.4-1.1,0.7-1.7c0.1-0.2,0.1-0.4,0.3-0.5c0.1-0.1,0.2-0.2,0.3-0.4"/>
<path fill="none" stroke="#231F20" stroke-width="1.342" stroke-linecap="round" stroke-miterlimit="10" d="M38.6,30.3
	c0-0.7,0.3-1.3,0.7-2c0.1-0.2,0.2-0.5,0.4-0.6"/>
<path fill="none" stroke="#231F20" stroke-width="1.342" stroke-linecap="round" stroke-miterlimit="10" d="M42.2,31.5
	c0.1-0.6,0.6-1.2,0.7-1.9c0.1-0.3,0.1-0.5,0.2-0.7"/>
</svg>
