<?xml version="1.0" encoding="utf-8"?>
<!-- Generator: Adobe Illustrator 15.0.2, SVG Export Plug-In . SVG Version: 6.00 Build 0)  -->
<!DOCTYPE svg PUBLIC "-//W3C//DTD SVG 1.1//EN" "http://www.w3.org/Graphics/SVG/1.1/DTD/svg11.dtd">
<svg version="1.1" id="Layer_1" xmlns="http://www.w3.org/2000/svg" xmlns:xlink="http://www.w3.org/1999/xlink" x="0px" y="0px"
	 width="80.4px" height="47.5px" viewBox="0 0 80.4 47.5" enable-background="new 0 0 80.4 47.5" xml:space="preserve">
<path fill="#D6543B" d="M10,12.9L10,12.9C10,12.9,10.1,12.9,10,12.9"/>
<path fill="#D6543B" d="M4.6,15.9c0,0-2-0.9-1.8-1.2l-0.1,0v-1.4v-0.5c0,0,0.1-0.1,0.8-0.5c0.7-0.4,1.8,0,1.8,0L8.9,13l0.4,0.1
	c0-0.1,0.1-0.2,0.4-0.4c0.2-0.2,0.3-0.2,0.4-0.3l-0.7-0.2c0,0-6.1-2.1-8.2,0.3l-0.9,1.2c0,0-0.2,0.3-0.2,0.9V16c0,0,0.1,1,1.4,1.7
	c1.3,0.7,9.1,3.4,9.1,3.4s1.4,0.4,1.4,1v-3.8L4.6,15.9z"/>
<path fill="#AB6865" d="M5.3,12.3c0,0-1.1-0.4-1.8,0s-0.8,0.5-0.8,0.5v0.5v1.4l0.1,0c0,0,0,0,0,0c0.3-0.3,1.4,0,1.4,0l5.1,1.3v-2.7
	c0,0,0-0.1,0-0.2L8.9,13L5.3,12.3z"/>
<path fill="#D6543B" d="M75.9,15.9c0,0,2-0.9,1.8-1.2l0.1,0v-1.4v-0.5c0,0-0.1-0.1-0.8-0.5c-0.7-0.4-1.8,0-1.8,0L71.5,13l-0.4,0.1
	c0-0.1-0.1-0.2-0.4-0.4c-0.2-0.2-0.3-0.2-0.4-0.3l0.7-0.2c0,0,6.1-2.1,8.2,0.3l0.9,1.2c0,0,0.2,0.3,0.2,0.9V16c0,0-0.1,1-1.4,1.7
	c-1.3,0.7-9.1,3.4-9.1,3.4s-1.4,0.4-1.4,1v-3.8L75.9,15.9z"/>
<path fill="#AB6865" d="M75.1,12.3c0,0,1.1-0.4,1.8,0c0.7,0.4,0.8,0.5,0.8,0.5v0.5v1.4l-0.1,0c0,0,0,0,0,0c-0.3-0.3-1.4,0-1.4,0
	l-5.1,1.3v-2.7c0,0,0-0.1,0-0.2l0.4-0.1L75.1,12.3z"/>
<path fill="#D6543B" d="M40.4,8c0,0-27.4-0.5-31.6,6.5L11.4,32c0,0,0.7,9.7,10.1,12.6c9.3,2.9,16.9,2.8,18.9,2.8
	c2,0,9.6,0.1,18.9-2.8C68.6,41.7,69.4,32,69.4,32L72,14.5C67.8,7.5,40.4,8,40.4,8"/>
<g>
	<g>
		<defs>
			<rect id="SVGID_1_" x="9.1" y="3.9" width="62.6" height="18.4"/>
		</defs>
		<clipPath id="SVGID_2_">
			<use xlink:href="#SVGID_1_"  overflow="visible"/>
		</clipPath>
		<path clip-path="url(#SVGID_2_)" fill="#D6543B" d="M71.7,12.4c0-4.7-14-8.5-31.3-8.5c-17.3,0-31.3,3.8-31.3,8.5v1.4
			c0,4.7,14,8.5,31.3,8.5c17.3,0,31.3-3.8,31.3-8.5V12.4z"/>
	</g>
</g>
<path fill="#D6543B" d="M71.7,12.5c0,4.7-14,8.5-31.3,8.5c-17.3,0-31.3-3.8-31.3-8.5S23.1,4,40.4,4C57.7,4,71.7,7.8,71.7,12.5"/>
<g>
	<g>
		<defs>
			<rect id="SVGID_3_" x="9.1" y="12.5" width="62.6" height="8.8"/>
		</defs>
		<clipPath id="SVGID_4_">
			<use xlink:href="#SVGID_3_"  overflow="visible"/>
		</clipPath>
		<path clip-path="url(#SVGID_4_)" fill="#D6543B" d="M71.7,12.5c0,0.7-0.3,1.4-0.8,1.9c-0.5,0.5-1,1-1.6,1.4
			c-1.2,0.8-2.5,1.4-3.8,1.9c-2.7,1-5.4,1.6-8.2,2.2c-5.6,1-11.2,1.4-16.9,1.4c-5.7,0-11.3-0.4-16.9-1.4c-2.8-0.5-5.6-1.2-8.2-2.2
			c-1.3-0.5-2.6-1.1-3.8-1.9c-0.6-0.4-1.1-0.8-1.6-1.4c-0.5-0.5-0.8-1.2-0.8-1.9c0,0.7,0.4,1.4,0.8,1.9c0.5,0.5,1,1,1.6,1.3
			c1.2,0.7,2.5,1.3,3.8,1.7c2.7,0.9,5.4,1.5,8.2,2c5.6,0.9,11.2,1.3,16.8,1.3c5.6,0,11.3-0.4,16.8-1.3c2.8-0.5,5.5-1.1,8.2-2
			c1.3-0.5,2.6-1,3.8-1.7c0.6-0.4,1.2-0.8,1.6-1.3C71.3,13.9,71.7,13.2,71.7,12.5"/>
	</g>
</g>
<g>
	<g>
		<defs>
			<rect id="SVGID_5_" x="9.1" y="13.8" width="62.6" height="8.8"/>
		</defs>
		<clipPath id="SVGID_6_">
			<use xlink:href="#SVGID_5_"  overflow="visible"/>
		</clipPath>
		<path clip-path="url(#SVGID_6_)" fill="#5E411A" d="M71.7,13.8c0,0.7-0.3,1.4-0.8,1.9c-0.5,0.5-1,1-1.6,1.4
			c-1.2,0.8-2.5,1.4-3.8,1.9c-2.7,1-5.4,1.6-8.2,2.2c-5.6,1-11.2,1.4-16.9,1.4c-5.7,0-11.3-0.4-16.9-1.4c-2.8-0.5-5.6-1.2-8.2-2.2
			c-1.3-0.5-2.6-1.1-3.8-1.9c-0.6-0.4-1.1-0.8-1.6-1.4c-0.5-0.5-0.8-1.2-0.8-1.9c0,0.7,0.4,1.4,0.8,1.9c0.5,0.5,1,1,1.6,1.3
			c1.2,0.7,2.5,1.3,3.8,1.7c2.7,0.9,5.4,1.5,8.2,2c5.6,0.9,11.2,1.3,16.8,1.3c5.6,0,11.3-0.4,16.8-1.3c2.8-0.5,5.5-1.1,8.2-2
			c1.3-0.5,2.6-1,3.8-1.7c0.6-0.4,1.2-0.8,1.6-1.3C71.3,15.2,71.7,14.5,71.7,13.8"/>
	</g>
</g>
<path fill="#D6543B" d="M71.7,12.5c0,4.7-14,8.5-31.3,8.5c-17.3,0-31.3-3.8-31.3-8.5S23.1,4,40.4,4C57.7,4,71.7,7.8,71.7,12.5"/>
<path fill="#D96047" d="M38.9,4.3c14.5,0,26.4,3,28.1,6.8c0.2,0.3,0.2,0.8,0.2,1.1c0,4.3-12.7,7.7-28.3,7.7s-28.3-3.4-28.3-7.7
	c0-0.3,0.1-0.8,0.2-1.1C12.5,7.2,24.4,4.3,38.9,4.3"/>
<path fill="#DC6D54" d="M37.4,4.5c13.2,0,24.1,2.8,25.2,6.3c0.1,0.2,0.2,0.8,0.2,1c0,3.8-11.3,6.9-25.3,6.9c-14,0-25.3-3.1-25.3-6.9
	c0-0.2,0.1-0.8,0.2-1C13.3,7.3,24.2,4.5,37.4,4.5"/>
<path fill="#DE7960" d="M35.9,4.8c12,0,21.7,2.6,22.3,5.8c0.1,0.1,0.1,0.8,0.1,0.9c0,3.4-10,6.1-22.3,6.1c-12.3,0-22.3-2.7-22.3-6.1
	c0-0.1,0-0.8,0.1-0.9C14.2,7.3,24,4.8,35.9,4.8"/>
<path fill="#E1856C" d="M53.8,10.3c0-2.9-8.7-5.3-19.3-5.3c-10.7,0-19.3,2.4-19.3,5.3v0.8c0,2.9,8.7,5.3,19.3,5.3
	c10.7,0,19.3-2.4,19.3-5.3V10.3z"/>
<g>
	<g>
		<defs>
			<rect id="SVGID_7_" x="24.4" y="4.6" width="31.8" height="8.6"/>
		</defs>
		<clipPath id="SVGID_8_">
			<use xlink:href="#SVGID_7_"  overflow="visible"/>
		</clipPath>
		<path clip-path="url(#SVGID_8_)" fill="#D6543B" d="M56.2,8.9c0,0.7-0.7,1.3-1.2,1.6c-0.6,0.4-1.3,0.7-1.9,0.9
			c-1.3,0.5-2.7,0.8-4.1,1c-2.8,0.5-5.7,0.7-8.5,0.7c-2.8,0-5.7-0.2-8.5-0.6c-1.4-0.2-2.8-0.5-4.2-1c-0.7-0.2-1.3-0.5-2-0.9
			c-0.6-0.4-1.3-0.9-1.3-1.8c0-0.4,0.2-0.8,0.5-1.1c0.3-0.3,0.6-0.5,0.9-0.7c0.6-0.4,1.3-0.7,2-0.9c1.4-0.5,2.8-0.8,4.2-1
			c2.8-0.5,5.7-0.6,8.5-0.6c2.8,0,5.7,0.2,8.5,0.7c1.4,0.3,2.8,0.6,4.1,1c0.7,0.2,1.3,0.5,1.9,0.9C55.5,7.6,56.2,8.1,56.2,8.9
			 M56.2,8.9c0-0.7-0.7-1.3-1.2-1.6c-0.6-0.4-1.3-0.6-1.9-0.9c-1.3-0.5-2.7-0.8-4.1-1c-2.8-0.5-5.6-0.6-8.5-0.6
			c-2.8,0-5.7,0.2-8.5,0.7c-1.4,0.2-2.8,0.6-4.1,1c-0.7,0.2-1.3,0.5-1.9,0.9c-0.6,0.4-1.1,0.9-1.1,1.5c0,0.6,0.6,1.1,1.1,1.5
			c0.6,0.4,1.2,0.6,1.9,0.9c1.3,0.5,2.7,0.8,4.1,1c2.8,0.5,5.6,0.7,8.5,0.7c2.8,0,5.7-0.2,8.5-0.6c1.4-0.2,2.8-0.5,4.1-1
			c0.7-0.2,1.3-0.5,1.9-0.9C55.5,10.1,56.2,9.6,56.2,8.9"/>
	</g>
</g>
<g>
	<g>
		<defs>
			<rect id="SVGID_9_" x="19.5" y="4.6" width="41.3" height="10.2"/>
		</defs>
		<clipPath id="SVGID_10_">
			<use xlink:href="#SVGID_9_"  overflow="visible"/>
		</clipPath>
		<path clip-path="url(#SVGID_10_)" fill="#D6543B" d="M60.8,9.7c0,0.5-0.3,0.9-0.6,1.2c-0.3,0.3-0.7,0.6-1.1,0.8
			c-0.8,0.4-1.7,0.8-2.5,1.1c-1.7,0.6-3.5,0.9-5.4,1.2c-3.6,0.6-7.3,0.8-11,0.8c-3.7,0-7.3-0.2-11-0.7c-1.8-0.3-3.6-0.6-5.4-1.2
			c-0.9-0.3-1.8-0.6-2.6-1.1c-0.4-0.2-0.8-0.5-1.2-0.8c-0.3-0.3-0.7-0.8-0.7-1.3c0-0.5,0.3-1,0.7-1.3c0.3-0.3,0.7-0.6,1.2-0.8
			c0.8-0.5,1.7-0.8,2.6-1.1c1.8-0.5,3.6-0.9,5.4-1.2c3.6-0.5,7.3-0.7,11-0.7c3.7,0,7.3,0.3,11,0.8c1.8,0.3,3.6,0.7,5.4,1.2
			c0.9,0.3,1.7,0.6,2.5,1.1c0.4,0.2,0.8,0.5,1.1,0.8C60.5,8.8,60.8,9.2,60.8,9.7 M60.8,9.7c0-0.5-0.3-0.9-0.6-1.2
			c-0.3-0.3-0.7-0.6-1.1-0.8c-0.8-0.4-1.7-0.8-2.5-1c-1.7-0.5-3.5-0.9-5.4-1.2C47.5,5,43.9,4.8,40.2,4.8c-3.7,0-7.3,0.3-10.9,0.8
			c-1.8,0.3-3.6,0.7-5.3,1.2c-0.9,0.3-1.7,0.6-2.5,1c-0.7,0.4-1.6,1-1.6,1.9c0,0.4,0.2,0.8,0.5,1.1c0.3,0.3,0.7,0.6,1.1,0.8
			c0.8,0.4,1.6,0.8,2.5,1c1.7,0.6,3.5,0.9,5.3,1.2c3.6,0.6,7.3,0.8,10.9,0.8c3.7,0,7.3-0.2,10.9-0.7c1.8-0.3,3.6-0.6,5.4-1.2
			c0.9-0.3,1.7-0.6,2.5-1c0.4-0.2,0.8-0.5,1.1-0.8C60.5,10.6,60.8,10.2,60.8,9.7"/>
	</g>
</g>
<g>
	<g>
		<defs>
			<rect id="SVGID_11_" x="15.5" y="4.6" width="49.6" height="12.3"/>
		</defs>
		<clipPath id="SVGID_12_">
			<use xlink:href="#SVGID_11_"  overflow="visible"/>
		</clipPath>
		<path clip-path="url(#SVGID_12_)" fill="#D6543B" d="M65.1,10.7c0,0.6-0.3,1.1-0.7,1.5c-0.4,0.4-0.9,0.7-1.3,1c-1,0.5-2,0.9-3,1.3
			c-2.1,0.7-4.3,1.1-6.4,1.5c-4.4,0.7-8.8,1-13.2,1c-4.4,0-8.8-0.2-13.2-0.9c-2.2-0.3-4.4-0.8-6.5-1.4c-1.1-0.3-2.1-0.7-3.1-1.3
			c-0.5-0.3-1-0.6-1.4-1c-0.4-0.4-0.8-0.9-0.8-1.6c0-0.6,0.4-1.2,0.8-1.6c0.4-0.4,0.9-0.7,1.4-1c1-0.5,2-0.9,3.1-1.3
			c2.1-0.7,4.3-1.1,6.5-1.4c4.4-0.7,8.8-0.9,13.2-0.9c4.4,0,8.8,0.3,13.2,1C55.7,5.9,57.9,6.4,60,7c1,0.3,2.1,0.7,3,1.3
			c0.5,0.3,0.9,0.6,1.3,1C64.8,9.7,65.1,10.2,65.1,10.7 M65.1,10.7c0-0.6-0.3-1.1-0.7-1.4c-0.4-0.4-0.9-0.7-1.3-1
			c-1-0.5-2-0.9-3-1.3c-2.1-0.7-4.3-1.1-6.4-1.4C49.2,5,44.8,4.8,40.4,4.8c-4.4,0-8.8,0.3-13.2,1c-2.2,0.3-4.3,0.8-6.4,1.5
			c-1,0.3-2.1,0.7-3,1.3c-0.5,0.3-0.9,0.6-1.3,0.9c-0.4,0.4-0.6,0.8-0.6,1.3c0,0.5,0.3,0.9,0.6,1.3c0.4,0.4,0.8,0.7,1.3,0.9
			c0.9,0.5,2,0.9,3,1.3c2.1,0.7,4.2,1.1,6.4,1.5c4.3,0.7,8.8,1,13.2,1c4.4,0,8.8-0.2,13.2-0.9c2.2-0.3,4.3-0.8,6.4-1.4
			c1-0.3,2.1-0.7,3-1.3c0.5-0.3,0.9-0.6,1.3-1C64.8,11.8,65.1,11.3,65.1,10.7"/>
	</g>
</g>
<g>
	<g>
		<defs>
			<rect id="SVGID_13_" x="24.4" y="4.6" width="31.7" height="8.5"/>
		</defs>
		<clipPath id="SVGID_14_">
			<use xlink:href="#SVGID_13_"  overflow="visible"/>
		</clipPath>
		<path clip-path="url(#SVGID_14_)" fill="#D6543B" d="M24.4,8.9c0,0.7,0.7,1.3,1.2,1.6c0.6,0.4,1.3,0.7,1.9,0.9
			c1.3,0.5,2.7,0.8,4.1,1c2.8,0.5,5.7,0.6,8.5,0.6c2.8,0,5.7-0.2,8.5-0.7c1.4-0.2,2.8-0.6,4.1-1c0.7-0.2,1.3-0.5,1.9-0.9
			c0.6-0.4,1.2-0.9,1.2-1.6c0-0.7-0.6-1.2-1.2-1.6c-0.6-0.4-1.3-0.7-1.9-0.9c-1.3-0.5-2.7-0.8-4.1-1c-2.8-0.5-5.6-0.7-8.5-0.7
			c-2.8,0-5.7,0.2-8.5,0.6c-1.4,0.2-2.8,0.5-4.1,1c-0.7,0.2-1.3,0.5-1.9,0.9C25.1,7.6,24.4,8.1,24.4,8.9 M24.4,8.9
			c0-0.7,0.7-1.3,1.2-1.6c0.6-0.4,1.3-0.7,1.9-0.9c1.3-0.5,2.7-0.8,4.1-1c2.8-0.5,5.7-0.7,8.5-0.7c2.8,0,5.7,0.2,8.5,0.6
			c1.4,0.2,2.8,0.5,4.1,1c0.7,0.2,1.3,0.5,1.9,0.9c0.6,0.4,1.2,0.9,1.3,1.7c0,0.8-0.7,1.3-1.3,1.7c-0.6,0.4-1.3,0.7-1.9,0.9
			c-1.3,0.5-2.7,0.8-4.1,1c-2.8,0.5-5.7,0.6-8.5,0.6c-2.8,0-5.7-0.2-8.5-0.7c-1.4-0.2-2.8-0.6-4.1-1c-0.7-0.2-1.3-0.5-1.9-0.9
			C25.1,10.2,24.4,9.6,24.4,8.9"/>
	</g>
</g>
<g>
	<g>
		<defs>
			<rect id="SVGID_15_" x="19.7" y="4.6" width="41.1" height="10.1"/>
		</defs>
		<clipPath id="SVGID_16_">
			<use xlink:href="#SVGID_15_"  overflow="visible"/>
		</clipPath>
		<path clip-path="url(#SVGID_16_)" fill="#D6543B" d="M19.7,9.7c0,0.5,0.3,0.9,0.6,1.2c0.3,0.3,0.7,0.6,1.1,0.8
			c0.8,0.4,1.7,0.8,2.5,1c1.7,0.5,3.5,0.9,5.4,1.2c3.6,0.5,7.3,0.8,10.9,0.8c3.7,0,7.3-0.2,10.9-0.8c1.8-0.3,3.6-0.6,5.3-1.2
			c0.9-0.3,1.7-0.6,2.5-1c0.4-0.2,0.8-0.5,1.1-0.8c0.3-0.3,0.6-0.7,0.6-1.1c0-0.4-0.3-0.8-0.6-1.2C59.8,8.2,59.4,8,59,7.8
			c-0.8-0.4-1.7-0.8-2.5-1c-1.7-0.6-3.5-0.9-5.3-1.2c-3.6-0.6-7.3-0.8-10.9-0.8c-3.7,0-7.3,0.2-10.9,0.8c-1.8,0.3-3.6,0.6-5.4,1.2
			c-0.9,0.3-1.7,0.6-2.5,1c-0.4,0.2-0.8,0.5-1.1,0.8C20,8.8,19.7,9.2,19.7,9.7 M19.7,9.7c0-0.5,0.3-0.9,0.6-1.2
			c0.3-0.3,0.7-0.6,1.1-0.8c0.8-0.4,1.7-0.8,2.5-1.1c1.7-0.6,3.5-0.9,5.4-1.2c3.6-0.6,7.3-0.8,10.9-0.8c3.7,0,7.3,0.2,11,0.8
			C53,5.7,54.8,6,56.5,6.6c0.9,0.3,1.7,0.6,2.5,1.1c0.4,0.2,0.8,0.5,1.1,0.8c0.3,0.3,0.6,0.8,0.6,1.2c0,0.5-0.3,0.9-0.6,1.3
			c-0.3,0.3-0.7,0.6-1.1,0.8c-0.8,0.4-1.7,0.8-2.5,1c-1.8,0.5-3.6,0.9-5.4,1.2c-3.6,0.5-7.3,0.8-11,0.8c-3.7,0-7.3-0.2-10.9-0.8
			c-1.8-0.3-3.6-0.7-5.4-1.2c-0.9-0.3-1.7-0.6-2.5-1.1c-0.4-0.2-0.8-0.5-1.1-0.8C20,10.6,19.7,10.2,19.7,9.7"/>
	</g>
</g>
<g>
	<g>
		<defs>
			<rect id="SVGID_17_" x="15.5" y="4.6" width="49.5" height="12.2"/>
		</defs>
		<clipPath id="SVGID_18_">
			<use xlink:href="#SVGID_17_"  overflow="visible"/>
		</clipPath>
		<path clip-path="url(#SVGID_18_)" fill="#D6543B" d="M15.5,10.7c0,0.6,0.3,1.1,0.7,1.4c0.4,0.4,0.9,0.7,1.3,1c1,0.5,2,0.9,3,1.3
			c2.1,0.7,4.3,1.1,6.4,1.4c4.4,0.7,8.8,0.9,13.2,0.9c4.4,0,8.8-0.3,13.2-1c2.2-0.3,4.3-0.8,6.4-1.5c1-0.3,2.1-0.7,3-1.3
			c0.5-0.3,0.9-0.6,1.3-1c0.4-0.4,0.7-0.9,0.7-1.4c0-0.5-0.3-1-0.7-1.4c-0.4-0.4-0.8-0.7-1.3-1c-1-0.5-2-0.9-3-1.3
			c-2.1-0.7-4.3-1.1-6.4-1.5C49,5,44.6,4.7,40.2,4.7C35.8,4.7,31.4,5,27,5.6c-2.2,0.3-4.3,0.8-6.4,1.4c-1,0.3-2.1,0.7-3,1.3
			c-0.5,0.3-0.9,0.6-1.3,1C15.8,9.7,15.5,10.2,15.5,10.7 M15.5,10.7c0-0.6,0.3-1.1,0.7-1.4c0.4-0.4,0.9-0.7,1.3-1c1-0.5,2-0.9,3-1.3
			c2.1-0.7,4.3-1.1,6.4-1.5c4.4-0.7,8.8-0.9,13.2-1c4.4,0,8.8,0.3,13.2,0.9c2.2,0.3,4.3,0.8,6.5,1.4c1.1,0.3,2.1,0.7,3.1,1.3
			c0.5,0.3,0.9,0.6,1.3,1c0.4,0.4,0.7,0.9,0.7,1.5c0,0.6-0.3,1.1-0.7,1.5c-0.4,0.4-0.9,0.7-1.3,1c-1,0.5-2,0.9-3.1,1.3
			c-2.1,0.7-4.3,1.1-6.5,1.4c-4.4,0.7-8.8,0.9-13.2,0.9c-4.4,0-8.8-0.3-13.2-1c-2.2-0.3-4.3-0.8-6.4-1.5c-1-0.3-2.1-0.7-3-1.3
			c-0.5-0.3-0.9-0.6-1.3-1C15.8,11.8,15.5,11.3,15.5,10.7"/>
	</g>
</g>
<path fill="#231F20" d="M33.7,1.6c0,1.2,1.6,1.6,2,1.8c0.4,0.3,1.9,0.9,1.9,3.6c0,0,0.1,1.1,2.7,1.1V0.3C40.2,0.3,33.7,0.3,33.7,1.6
	"/>
<path fill="#231F20" d="M40.2,0.3V8C42.8,8,42.9,7,42.9,7c0-2.7,1.5-3.3,1.9-3.6c0.4-0.3,2-0.6,2-1.8S40.2,0.3,40.2,0.3"/>
<path fill="#252A26" d="M46.8,1.4c0,0.8-2.9,1.4-6.5,1.4s-6.5-0.6-6.5-1.4S36.6,0,40.2,0S46.8,0.6,46.8,1.4"/>
<g>
	<g>
		<defs>
			<rect id="SVGID_19_" x="33.7" y="1.4" width="13.1" height="1.7"/>
		</defs>
		<clipPath id="SVGID_20_">
			<use xlink:href="#SVGID_19_"  overflow="visible"/>
		</clipPath>
		<path clip-path="url(#SVGID_20_)" fill="#252A26" d="M46.8,1.4c0,0.3-0.3,0.5-0.5,0.7c-0.3,0.1-0.5,0.3-0.8,0.4
			c-0.6,0.2-1.1,0.3-1.7,0.4c-1.2,0.2-2.3,0.3-3.5,0.3c-1.2,0-2.3-0.1-3.5-0.3c-0.6-0.1-1.1-0.2-1.7-0.4c-0.3-0.1-0.6-0.2-0.8-0.4
			C34,2,33.7,1.8,33.7,1.4C33.7,1.7,34,1.9,34.3,2c0.3,0.1,0.5,0.2,0.8,0.2c0.6,0.1,1.1,0.2,1.7,0.3c1.1,0.1,2.3,0.2,3.4,0.2
			c1.1,0,2.3,0,3.4-0.2c0.6-0.1,1.1-0.1,1.7-0.3c0.3-0.1,0.6-0.1,0.8-0.2C46.4,1.9,46.7,1.7,46.8,1.4"/>
	</g>
</g>
</svg>
