<?xml version="1.0" encoding="utf-8"?>
<!-- Generator: Adobe Illustrator 15.0.2, SVG Export Plug-In . SVG Version: 6.00 Build 0)  -->
<!DOCTYPE svg PUBLIC "-//W3C//DTD SVG 1.1//EN" "http://www.w3.org/Graphics/SVG/1.1/DTD/svg11.dtd">
<svg version="1.1" id="Layer_1" xmlns="http://www.w3.org/2000/svg" xmlns:xlink="http://www.w3.org/1999/xlink" x="0px" y="0px"
	 width="20.3px" height="73.8px" viewBox="0 0 20.3 73.8" enable-background="new 0 0 20.3 73.8" xml:space="preserve">
<path fill="#9FBDBE" d="M10.1,73.6c-4.3,0-7.2-0.8-8.7-2.4c-1.3-1.4-1.3-3-1.2-4c0-0.1,0-0.3,0-0.4c0-1.7,0.3-3.7,1.1-6.3
	c0.8-2.8,0.1-7.5,0-8.1c-0.2-0.5-1.1-9.8-1.1-11c0-1,0-4,0.1-6.6c0.1-2.6,1.2-6.7,1.2-6.8l0-0.1l-0.1-0.1c-0.1,0-0.2-0.4-0.1-0.7
	c0-0.9,1-3.7,2-6.6c0.4-1.2,0.9-2.5,1.3-3.7C5.9,12.9,6.3,6.7,6.3,6.7l0-0.1L6.2,6.5C5.9,6.3,5.8,5.7,5.9,5.3C6,5,6.6,2.3,6.7,1.8
	C7.5,1.2,9.6,1.1,10,1.1h0.2c0.4,0,2.5,0,3.3,0.7c0.1,0.4,0.7,3.1,0.8,3.5c0.1,0.4,0,1-0.3,1.2L14,6.6l0,0.1c0,0.1,0.4,6.2,1.7,10.2
	c0.4,1.2,0.8,2.4,1.3,3.7c1,2.9,2,5.7,2,6.6c0,0.3,0,0.7-0.1,0.8l-0.1,0.1l0,0.1c0,0,1.1,4.1,1.2,6.8c0.1,2.7,0.1,5.7,0.1,6.6
	c0,1.1-0.9,10.5-1.1,11c-0.2,0.5-0.9,5.2,0,8.1c0.7,2.6,1.1,4.6,1.1,6.3c0,0.1,0,0.2,0,0.4c0,1,0.1,2.7-1.2,4
	C17.3,72.9,14.4,73.6,10.1,73.6"/>
<path fill="#3E7B7D" d="M10.3,1.3c1.1,0,2.6,0.2,3.2,0.6c0.1,0.6,0.7,3.1,0.8,3.5c0.1,0.3,0,0.8-0.3,1l-0.2,0.1l0,0.2
	c0,0.3,0.4,6.3,1.7,10.2c0.4,1.2,0.8,2.4,1.3,3.7c1,2.8,2,5.6,2,6.6c0,0.2,0,0.5,0,0.6l-0.3,0.1l0.1,0.3c0,0,1.1,4.1,1.2,6.7
	c0.1,2.7,0.1,5.7,0.1,6.6c0,1.1-0.9,10.4-1,10.9c-0.2,0.6-0.9,5.3,0,8.2c0.7,2.5,1.1,4.5,1.1,6.3c0,0.1,0,0.2,0,0.4
	c0,1,0.1,2.6-1.2,3.9c-1.5,1.5-4.4,2.3-8.6,2.3S3,72.7,1.5,71.2c-1.3-1.3-1.2-3-1.2-3.9c0-0.1,0-0.3,0-0.4c0-1.7,0.3-3.7,1.1-6.3
	c0.9-2.9,0.1-7.6,0-8.2c-0.2-0.5-1-9.8-1-10.9c0-1,0-4,0.1-6.6c0.1-2.6,1.2-6.7,1.2-6.7l0.1-0.3l-0.3-0.1c-0.1-0.1-0.1-0.4-0.1-0.6
	c0-0.9,1-3.8,2-6.5c0.4-1.2,0.9-2.5,1.3-3.7C6,13,6.5,6.9,6.5,6.7l0-0.2L6.3,6.4C6.1,6.2,6,5.7,6.1,5.4C6.2,5,6.7,2.5,6.8,1.9
	C7.5,1.5,8.9,1.3,10,1.3l0.1,0L10.3,1.3 M10.3,1c-0.1,0-0.1,0-0.1,0s0,0-0.1,0C9.5,1,7.3,1,6.5,1.7c0,0-0.7,3.2-0.8,3.6
	s0,1.1,0.4,1.4c0,0-0.4,6.2-1.7,10.1c-1.3,4-3.3,9-3.3,10.3c0,0-0.1,0.8,0.2,0.9c0,0-1.1,4.1-1.2,6.8C0,37.5,0,40.5,0,41.5
	c0,1,0.9,10.5,1.1,11s0.9,5.2,0,8C0.3,63.3,0,65.3,0,66.8s-1,7,10.1,7s10.1-5.4,10.1-7s-0.3-3.5-1.1-6.3c-0.8-2.8-0.1-7.4,0-8
	c0.2-0.6,1.1-10,1.1-11c0-1,0-4-0.1-6.6C20,32.2,18.9,28,18.9,28c0.3-0.1,0.2-0.9,0.2-0.9c-0.1-1.4-2-6.4-3.3-10.3
	c-1.3-4-1.7-10.1-1.7-10.1c0.4-0.3,0.5-1,0.4-1.4c-0.1-0.4-0.8-3.6-0.8-3.6C12.9,1,10.8,1,10.3,1"/>
<g>
	<g>
		<defs>
			<rect id="SVGID_1_" x="3.2" y="7" width="4.8" height="20.7"/>
		</defs>
		<clipPath id="SVGID_2_">
			<use xlink:href="#SVGID_1_"  overflow="visible"/>
		</clipPath>
		<path clip-path="url(#SVGID_2_)" fill="#3E7B7D" d="M7.9,7c-0.1,1.8-0.3,3.6-0.5,5.3c-0.3,1.8-0.6,3.5-1.1,5.3
			c-0.3,0.9-0.5,1.7-1,2.5c-0.5,0.8-0.8,1.6-1.1,2.4c-0.6,1.7-0.9,3.4-1.1,5.2c0-1.8,0.2-3.6,0.7-5.3c0.2-0.9,0.6-1.7,1.1-2.5
			c0.4-0.8,0.7-1.6,0.9-2.5C6.4,15.7,6.7,14,7,12.2C7.3,10.5,7.6,8.7,7.9,7"/>
	</g>
</g>
<g>
	<g>
		<defs>
			<rect id="SVGID_3_" x="2.1" y="42.7" width="1.7" height="21.4"/>
		</defs>
		<clipPath id="SVGID_4_">
			<use xlink:href="#SVGID_3_"  overflow="visible"/>
		</clipPath>
		<path clip-path="url(#SVGID_4_)" fill="#3E7B7D" d="M2.4,42.7c0.5,3.6,0.9,7.2,1.3,10.8c0.1,0.9,0.2,1.8,0.1,2.7
			c-0.1,0.9-0.2,1.8-0.4,2.7S3,60.7,2.8,61.6c-0.1,0.2-0.1,0.4-0.3,0.6c-0.1,0.2-0.2,0.4-0.3,0.6c-0.1,0.4-0.1,0.9-0.2,1.3
			c0-0.5,0-0.9,0.1-1.4c0-0.2,0.1-0.5,0.2-0.6c0.1-0.2,0.1-0.4,0.2-0.6c0.2-0.9,0.4-1.8,0.5-2.7c0.1-0.9,0.2-1.8,0.3-2.7
			c0.1-0.9,0-1.8-0.1-2.7l-0.5-5.4C2.6,46.3,2.5,44.5,2.4,42.7"/>
	</g>
</g>
<g>
	<g>
		<defs>
			<rect id="SVGID_5_" x="6.4" y="6" width="2.1" height="0.5"/>
		</defs>
		<clipPath id="SVGID_6_">
			<use xlink:href="#SVGID_5_"  overflow="visible"/>
		</clipPath>
		<path clip-path="url(#SVGID_6_)" fill="#3E7B7D" d="M6.4,6.5c0.1-0.2,0.3-0.3,0.5-0.3C7.1,6.1,7.3,6.1,7.5,6c0.2,0,0.4,0,0.6,0
			c0.2,0,0.4,0.1,0.5,0.2c-0.4,0.2-0.7,0.2-1,0.3c-0.2,0-0.3,0-0.5,0C6.8,6.6,6.6,6.5,6.4,6.5"/>
	</g>
</g>
<g>
	<g>
		<defs>
			<rect id="SVGID_7_" x="12.9" y="5.8" width="5" height="21.9"/>
		</defs>
		<clipPath id="SVGID_8_">
			<use xlink:href="#SVGID_7_"  overflow="visible"/>
		</clipPath>
		<path clip-path="url(#SVGID_8_)" fill="#D8E4E5" d="M13.6,5.8c0,0.2,0,0.4,0,0.5c0,0.2-0.1,0.4-0.3,0.5l0.1-0.1
			c0.1,1.8,0.1,3.6,0.3,5.3c0.3,1.8,0.9,3.5,1.5,5.2c0.6,1.7,1.2,3.4,1.8,5.1c0.5,1.7,1,3.5,0.9,5.4l-0.1,0c-0.3-1.8-1-3.4-1.6-5.1
			c-0.6-1.7-1-3.4-1.5-5.2c-0.4-1.8-0.9-3.5-1.6-5.2c-0.3-0.9-0.3-1.8-0.3-2.7c0-0.9,0.1-1.8,0.2-2.7l0-0.1l0.1,0
			c0.1,0,0.2-0.2,0.3-0.3C13.5,6.1,13.5,6,13.6,5.8L13.6,5.8z"/>
	</g>
</g>
<g>
	<g>
		<defs>
			<rect id="SVGID_9_" x="11.6" y="2.7" width="0.3" height="2.3"/>
		</defs>
		<clipPath id="SVGID_10_">
			<use xlink:href="#SVGID_9_"  overflow="visible"/>
		</clipPath>
		<path clip-path="url(#SVGID_10_)" fill="#D8E4E5" d="M11.8,2.7c0.1,0.4,0.2,0.8,0.2,1.2c0,0.4,0,0.8-0.2,1.2
			c-0.1-0.4-0.2-0.8-0.2-1.2C11.6,3.5,11.7,3.1,11.8,2.7"/>
	</g>
</g>
<g>
	<g>
		<defs>
			<rect id="SVGID_11_" x="11.7" y="6.2" width="0.7" height="4.9"/>
		</defs>
		<clipPath id="SVGID_12_">
			<use xlink:href="#SVGID_11_"  overflow="visible"/>
		</clipPath>
		<polygon clip-path="url(#SVGID_12_)" fill="#D8E4E5" points="12.4,6.2 12.1,11.1 11.7,6.2 		"/>
	</g>
</g>
<g>
	<g>
		<defs>
			<rect id="SVGID_13_" x="8" y="7" width="0.8" height="5.4"/>
		</defs>
		<clipPath id="SVGID_14_">
			<use xlink:href="#SVGID_13_"  overflow="visible"/>
		</clipPath>
		<path clip-path="url(#SVGID_14_)" fill="#D8E4E5" d="M8,12.2C8.3,10.5,8.6,8.7,8.7,7c0.1,1.8,0.1,3.6,0,5.4L8,12.2z"/>
	</g>
</g>
<g>
	<g>
		<defs>
			<rect id="SVGID_15_" x="12.3" y="43.9" width="1.5" height="21.6"/>
		</defs>
		<clipPath id="SVGID_16_">
			<use xlink:href="#SVGID_15_"  overflow="visible"/>
		</clipPath>
		<path clip-path="url(#SVGID_16_)" fill="#D8E4E5" d="M13.3,43.9c0.2,1.8,0.4,3.6,0.4,5.4c0.1,1.8,0.1,3.6,0.1,5.4
			c0,1.8-0.1,3.6-0.2,5.4c-0.1,1.8-0.2,3.6-0.4,5.4c-0.5-1.8-0.6-3.6-0.8-5.4c-0.1-1.8-0.2-3.6-0.2-5.4c0-1.8,0.1-3.6,0.2-5.4
			C12.7,47.5,12.9,45.7,13.3,43.9"/>
	</g>
</g>
<g>
	<g>
		<defs>
			<rect id="SVGID_17_" x="15.8" y="42.7" width="1.7" height="8.9"/>
		</defs>
		<clipPath id="SVGID_18_">
			<use xlink:href="#SVGID_17_"  overflow="visible"/>
		</clipPath>
		<path clip-path="url(#SVGID_18_)" fill="#D8E4E5" d="M17.2,42.7c0.2,0.8,0.2,1.5,0.2,2.3c0,0.8,0,1.5-0.1,2.2
			c-0.2,1.5-0.5,2.9-1.2,4.4c-0.3-0.8-0.3-1.5-0.4-2.3c0-0.8,0-1.5,0.1-2.3c0.1-0.7,0.3-1.5,0.5-2.2C16.6,44.1,16.8,43.4,17.2,42.7"
			/>
	</g>
</g>
<g>
	<g>
		<defs>
			<rect id="SVGID_19_" x="17" y="42.7" width="1.6" height="23.1"/>
		</defs>
		<clipPath id="SVGID_20_">
			<use xlink:href="#SVGID_19_"  overflow="visible"/>
		</clipPath>
		<path clip-path="url(#SVGID_20_)" fill="#D8E4E5" d="M18.5,42.7c-0.1,2-0.2,3.9-0.5,5.8l-0.4,2.9c-0.1,0.5-0.2,1-0.3,1.4
			c-0.1,0.5-0.1,1-0.1,1.4c0,1.9,0.1,3.9,0.4,5.8c0.1,1,0.4,1.9,0.7,2.8c0.2,1,0.4,2,0.1,2.9l0,0c0.1-1-0.1-1.9-0.4-2.9
			c-0.1-0.5-0.3-0.9-0.4-1.4c-0.1-0.5-0.2-1-0.3-1.4c-0.3-1.9-0.4-3.9-0.3-5.9c0-0.5,0.1-1,0.2-1.5c0.1-0.5,0.2-0.9,0.3-1.4
			c0.1-1,0.2-1.9,0.3-2.9C17.9,46.6,18.2,44.6,18.5,42.7L18.5,42.7z"/>
	</g>
</g>
<g>
	<g>
		<defs>
			<rect id="SVGID_21_" x="0.5" y="69.3" width="19.2" height="2.4"/>
		</defs>
		<clipPath id="SVGID_22_">
			<use xlink:href="#SVGID_21_"  overflow="visible"/>
		</clipPath>
		<path clip-path="url(#SVGID_22_)" fill="#D8E4E5" d="M0.6,69.3c1.7,0.3,3.3,0.5,4.9,0.7c1.6,0.2,3.1,0.3,4.7,0.3
			c1.6,0,3.1-0.1,4.7-0.2c1.6-0.2,3.2-0.5,4.9-0.7l0.1,0.1c-3,1.5-6.3,2.3-9.6,2.3c-1.7,0-3.3-0.2-4.9-0.6c-1.6-0.4-3.2-0.9-4.7-1.6
			L0.6,69.3z"/>
	</g>
</g>
<g>
	<g>
		<defs>
			<rect id="SVGID_23_" x="0.1" y="16.7" width="20.1" height="57.1"/>
		</defs>
		<clipPath id="SVGID_24_">
			<use xlink:href="#SVGID_23_"  overflow="visible"/>
		</clipPath>
		<path clip-path="url(#SVGID_24_)" fill="#5E411A" d="M20.2,41.5c0-1,0-4-0.1-6.6C20,32.2,18.9,28,18.9,28c0.3-0.1,0.2-0.9,0.2-0.9
			c-0.1-1.3-2-6.3-3.3-10.2c-0.4-0.1-0.8-0.2-1.2-0.2h-9c-0.5,0-0.9,0.1-1.3,0.2C3,20.9,1.1,25.8,1,27.1c0,0-0.1,0.8,0.2,0.9
			c0,0-1.1,4.1-1.2,6.8c0,0.1,0,0.2,0,0.3V43c0.2,3,0.8,9.1,1,9.5c0.2,0.6,0.9,5.2,0,8c-0.6,1.9-0.9,3.4-1,4.7v1.6
			c0,2,0.6,3.8,1.6,5.1c1.4,1.1,3.9,2,8.4,2c4.8,0,7.4-1,8.7-2.3c0.8-1.2,1.4-2.7,1.4-4.4c0-0.1,0-0.2,0-0.3c0-1.6-0.3-3.5-1.1-6.3
			c-0.8-2.8-0.1-7.4,0-8C19.3,52,20.2,42.5,20.2,41.5"/>
	</g>
</g>
<g>
	<g>
		<defs>
			<rect id="SVGID_25_" x="0.9" y="16.7" width="19.3" height="57.1"/>
		</defs>
		<clipPath id="SVGID_26_">
			<use xlink:href="#SVGID_25_"  overflow="visible"/>
		</clipPath>
		<path clip-path="url(#SVGID_26_)" fill="#5E411A" d="M20.2,66.8c0-1.6-0.3-3.5-1.1-6.3c-0.8-2.8-0.1-7.4,0-8
			c0.2-0.6,1.1-10,1.1-11c0-1,0-4-0.1-6.6C20,32.2,18.9,28,18.9,28c0.3-0.1,0.2-0.9,0.2-0.9c-0.1-1.3-2-6.3-3.3-10.2
			c-0.4-0.1-0.8-0.2-1.2-0.2H8.3c-1.4,3.9-3.7,11.5-3.5,18.5c0.3,9.9-0.5,7.5-0.5,7.5s1.2,10.1,2.5,12.6c1.3,2.4-1.4,10.6-1.4,10.6
			s-1.7,3.9,1.4,4.6c2.3,0.5-2.3,1-5.9,0c0.2,0.5,0.5,0.9,0.8,1.3c1.4,1.1,3.9,2,8.4,2c4.8,0,7.4-1,8.7-2.3c0.8-1.2,1.4-2.7,1.4-4.4
			C20.2,67.1,20.2,66.9,20.2,66.8"/>
	</g>
</g>
<g>
	<g>
		<defs>
			<rect id="SVGID_27_" x="0.1" y="16.7" width="8.2" height="54.3"/>
		</defs>
		<clipPath id="SVGID_28_">
			<use xlink:href="#SVGID_27_"  overflow="visible"/>
		</clipPath>
		<path clip-path="url(#SVGID_28_)" fill="#E1856C" d="M6.8,70.5c-3.2-0.7-1.4-4.6-1.4-4.6s2.8-8.2,1.4-10.6
			c-1.3-2.4-2.5-12.5-2.5-12.5s0.8,2.4,0.5-7.5c-0.2-7,2.1-14.6,3.5-18.5H5.6c-0.5,0-0.9,0.1-1.3,0.2C3,20.9,1.1,25.8,1,27.1
			c0,0-0.1,0.8,0.2,0.9c0,0-1.1,4.1-1.2,6.8c0,0.1,0,0.2,0,0.3V43c0.2,3,0.8,9.1,1,9.5c0.2,0.6,0.9,5.2,0,8c-0.6,1.9-0.9,3.4-1,4.7
			v1.5c0,1.4,0.3,2.7,0.8,3.8C4.5,71.4,9.1,71,6.8,70.5"/>
	</g>
</g>
<g opacity="0.3">
	<g>
		<defs>
			<rect id="SVGID_29_" x="3.2" y="7.2" width="4.8" height="20.7"/>
		</defs>
		<clipPath id="SVGID_30_">
			<use xlink:href="#SVGID_29_"  overflow="visible"/>
		</clipPath>
		<path clip-path="url(#SVGID_30_)" fill="#3E7B7D" d="M7.9,7.2C7.8,9,7.6,10.8,7.3,12.5C7,14.3,6.7,16,6.2,17.8
			c-0.3,0.9-0.5,1.7-0.9,2.5c-0.5,0.8-0.8,1.6-1.1,2.4c-0.6,1.7-0.9,3.4-1,5.2c0-1.8,0.3-3.6,0.8-5.3c0.3-0.9,0.6-1.7,1.1-2.5
			c0.4-0.8,0.7-1.6,0.9-2.5c0.5-1.7,0.8-3.5,1.1-5.2C7.4,10.7,7.7,9,7.9,7.2"/>
	</g>
</g>
<g>
	<g>
		<defs>
			<rect id="SVGID_31_" x="6.4" y="6.3" width="2.1" height="0.5"/>
		</defs>
		<clipPath id="SVGID_32_">
			<use xlink:href="#SVGID_31_"  overflow="visible"/>
		</clipPath>
		<path clip-path="url(#SVGID_32_)" fill="#3E7B7D" d="M6.4,6.8c0.1-0.2,0.3-0.3,0.5-0.3c0.2-0.1,0.4-0.1,0.5-0.1c0.2,0,0.4,0,0.6,0
			c0.2,0,0.4,0.1,0.5,0.2c-0.4,0.2-0.7,0.2-1,0.3c-0.2,0-0.3,0-0.5,0C6.8,6.8,6.6,6.8,6.4,6.8"/>
	</g>
</g>
<g>
	<g>
		<defs>
			<rect id="SVGID_33_" x="12.9" y="6" width="5" height="21.9"/>
		</defs>
		<clipPath id="SVGID_34_">
			<use xlink:href="#SVGID_33_"  overflow="visible"/>
		</clipPath>
		<path clip-path="url(#SVGID_34_)" fill="#D8E4E5" d="M13.6,6c0,0.2,0,0.4,0,0.5c0,0.2-0.1,0.4-0.3,0.5L13.4,7
			c0.1,1.8,0.1,3.6,0.3,5.3c0.3,1.8,0.9,3.5,1.5,5.2c0.6,1.7,1.2,3.4,1.8,5.1c0.5,1.7,1,3.5,0.9,5.4l-0.1,0c-0.3-1.8-1-3.4-1.6-5.1
			c-0.6-1.7-1-3.4-1.5-5.2c-0.4-1.8-0.9-3.5-1.6-5.2c-0.3-0.9-0.3-1.8-0.3-2.7c0-0.9,0.1-1.8,0.2-2.7l0-0.1l0.1,0
			c0.1,0,0.2-0.2,0.3-0.3C13.5,6.4,13.5,6.2,13.6,6L13.6,6z"/>
	</g>
</g>
<g>
	<g>
		<defs>
			<rect id="SVGID_35_" x="11.6" y="3" width="0.3" height="2.3"/>
		</defs>
		<clipPath id="SVGID_36_">
			<use xlink:href="#SVGID_35_"  overflow="visible"/>
		</clipPath>
		<path clip-path="url(#SVGID_36_)" fill="#D8E4E5" d="M11.8,3c0.1,0.4,0.2,0.8,0.2,1.2c0,0.4,0,0.8-0.2,1.2
			c-0.1-0.4-0.2-0.8-0.2-1.2C11.6,3.8,11.7,3.4,11.8,3"/>
	</g>
</g>
<g>
	<g>
		<defs>
			<rect id="SVGID_37_" x="11.7" y="6.5" width="0.7" height="4.9"/>
		</defs>
		<clipPath id="SVGID_38_">
			<use xlink:href="#SVGID_37_"  overflow="visible"/>
		</clipPath>
		<polygon clip-path="url(#SVGID_38_)" fill="#D8E4E5" points="12.4,6.5 12.1,11.4 11.7,6.5 		"/>
	</g>
</g>
<g>
	<g>
		<defs>
			<rect id="SVGID_39_" x="8" y="7.2" width="0.8" height="5.4"/>
		</defs>
		<clipPath id="SVGID_40_">
			<use xlink:href="#SVGID_39_"  overflow="visible"/>
		</clipPath>
		<path clip-path="url(#SVGID_40_)" fill="#D8E4E5" d="M8,12.5C8.3,10.7,8.6,9,8.7,7.2c0.1,1.8,0.1,3.6,0,5.4L8,12.5z"/>
	</g>
</g>
<g>
	<g>
		<defs>
			<rect id="SVGID_41_" x="12.3" y="44.2" width="1.5" height="21.6"/>
		</defs>
		<clipPath id="SVGID_42_">
			<use xlink:href="#SVGID_41_"  overflow="visible"/>
		</clipPath>
		<path clip-path="url(#SVGID_42_)" fill="#D8E4E5" d="M13.3,44.2c0.2,1.8,0.4,3.6,0.4,5.4c0.1,1.8,0.1,3.6,0.1,5.4
			c0,1.8-0.1,3.6-0.2,5.4c-0.1,1.8-0.2,3.6-0.4,5.4c-0.5-1.8-0.6-3.6-0.8-5.4c-0.1-1.8-0.2-3.6-0.2-5.4c0-1.8,0.1-3.6,0.2-5.4
			C12.7,47.8,12.9,46,13.3,44.2"/>
	</g>
</g>
<g>
	<g>
		<defs>
			<rect id="SVGID_43_" x="15.8" y="43" width="1.7" height="8.9"/>
		</defs>
		<clipPath id="SVGID_44_">
			<use xlink:href="#SVGID_43_"  overflow="visible"/>
		</clipPath>
		<path clip-path="url(#SVGID_44_)" fill="#D8E4E5" d="M17.2,43c0.2,0.8,0.2,1.5,0.2,2.3c0,0.8,0,1.5-0.1,2.2
			c-0.2,1.5-0.5,2.9-1.2,4.4c-0.3-0.8-0.3-1.5-0.4-2.3c0-0.8,0-1.5,0.1-2.3c0.1-0.7,0.3-1.5,0.5-2.2C16.6,44.4,16.8,43.7,17.2,43"/>
	</g>
</g>
<g>
	<g>
		<defs>
			<rect id="SVGID_45_" x="17" y="43" width="1.6" height="23.1"/>
		</defs>
		<clipPath id="SVGID_46_">
			<use xlink:href="#SVGID_45_"  overflow="visible"/>
		</clipPath>
		<path clip-path="url(#SVGID_46_)" fill="#D8E4E5" d="M18.5,43c-0.1,1.9-0.2,3.9-0.5,5.8l-0.4,2.9c-0.1,0.5-0.2,1-0.3,1.4
			c-0.1,0.5-0.1,1-0.1,1.4c0,1.9,0.1,3.9,0.4,5.8c0.1,1,0.4,1.9,0.7,2.8c0.2,1,0.4,2,0.1,2.9l0,0c0.1-1-0.1-1.9-0.4-2.9
			c-0.1-0.5-0.3-0.9-0.4-1.4c-0.1-0.5-0.2-1-0.3-1.4c-0.3-1.9-0.4-3.9-0.3-5.9c0-0.5,0.1-1,0.2-1.5c0.1-0.5,0.2-0.9,0.3-1.4
			c0.1-1,0.2-1.9,0.3-2.9C17.9,46.8,18.2,44.9,18.5,43L18.5,43z"/>
	</g>
</g>
<g>
	<g>
		<defs>
			<rect id="SVGID_47_" x="0.5" y="69.6" width="19.2" height="2.4"/>
		</defs>
		<clipPath id="SVGID_48_">
			<use xlink:href="#SVGID_47_"  overflow="visible"/>
		</clipPath>
		<path clip-path="url(#SVGID_48_)" fill="#D8E4E5" d="M0.6,69.6c1.7,0.3,3.3,0.5,4.9,0.7c1.6,0.2,3.1,0.3,4.7,0.3
			c1.6,0,3.1-0.1,4.7-0.2c1.6-0.2,3.2-0.4,4.9-0.7l0.1,0.1c-3,1.5-6.3,2.3-9.6,2.3c-1.7,0-3.3-0.2-4.9-0.6C3.6,71,2,70.4,0.5,69.7
			L0.6,69.6z"/>
	</g>
</g>
<g>
	<g>
		<defs>
			<rect id="SVGID_49_" x="6.4" y="0.8" width="7.5" height="1.8"/>
		</defs>
		<clipPath id="SVGID_50_">
			<use xlink:href="#SVGID_49_"  overflow="visible"/>
		</clipPath>
		<path clip-path="url(#SVGID_50_)" fill="#76909F" d="M13.9,1.7c0,0.5-1.7,0.9-3.8,0.9c-2.1,0-3.8-0.4-3.8-0.9s1.7-0.9,3.8-0.9
			C12.2,0.8,13.9,1.2,13.9,1.7"/>
	</g>
</g>
<path fill="#B52126" d="M13.8,0.9c-0.2-0.3-0.7-0.6-1.1-0.7c-0.4-0.1-2-0.2-2.6-0.2C9.5,0,7.9,0.1,7.5,0.2C7.2,0.4,6.7,0.7,6.5,0.9
	C6.2,1.2,6.3,3,6.3,3s0.1-0.1,0.2-0.2c0-0.1-0.1-0.2-0.1-0.3C6.4,2.3,6.6,2,6.9,2C7,2,7.1,2.1,7.2,2.3c0,0,0.1,0,0.1-0.1
	c0-0.3,0.2-0.5,0.5-0.5C8,1.7,8.2,1.8,8.2,2c0,0,0.1,0,0.1,0c0-0.3,0.3-0.5,0.6-0.5c0.3,0,0.5,0.2,0.6,0.4h0
	c0.1-0.2,0.3-0.4,0.6-0.4s0.6,0.2,0.6,0.4h0c0-0.2,0.3-0.4,0.6-0.4c0.3,0,0.6,0.2,0.6,0.5C12,2,12,2,12,2c0.1-0.2,0.3-0.3,0.4-0.3
	c0.3,0,0.5,0.2,0.5,0.5c0,0,0.1,0,0.1,0.1C13.1,2.1,13.3,2,13.4,2c0.2,0,0.4,0.2,0.4,0.5c0,0.1,0,0.2-0.1,0.3C13.9,2.9,14,3,14,3
	S14,1.2,13.8,0.9"/>
<g>
	<g>
		<defs>
			<rect id="SVGID_51_" x="11.6" y="0.4" width="0.3" height="0.9"/>
		</defs>
		<clipPath id="SVGID_52_">
			<use xlink:href="#SVGID_51_"  overflow="visible"/>
		</clipPath>
		<path clip-path="url(#SVGID_52_)" fill="#B52126" d="M11.8,0.4c0.1,0.1,0.2,0.3,0.2,0.4c0,0.1,0,0.3-0.2,0.4
			c-0.1-0.1-0.2-0.3-0.2-0.4C11.6,0.7,11.7,0.5,11.8,0.4"/>
	</g>
</g>
<path fill="#B52126" d="M0,41.4L0,41.4c2,0.2,5.4,0.3,10.1,0.3c4.7,0,8.1-0.1,10.1-0.3v0c0-1,0-4-0.1-6.6c-0.1-2-0.7-4.7-1-6h-18
	c-0.3,1.3-0.9,4.1-1,6C0,37.4,0,40.4,0,41.4"/>
<path fill="#FFFFFF" d="M10.1,42.1c-4.6,0-8-0.1-10.1-0.3c0,0.1,0,0.3,0,0.4c2.3,0.2,5.9,0.3,10.1,0.3s7.8-0.1,10.1-0.3
	c0-0.2,0-0.3,0-0.4C18.2,42,14.7,42.1,10.1,42.1"/>
<path fill="#FFFFFF" d="M1.2,28.3H19c-0.1-0.3-0.1-0.4-0.1-0.4s0,0,0,0H1.3c0,0,0,0,0,0S1.3,28.1,1.2,28.3"/>
<path fill="#FFFFFF" d="M10.1,41.7C5.4,41.7,2,41.6,0,41.4c0,0.1,0,0.2,0,0.4c2.1,0.2,5.5,0.3,10.1,0.3c4.6,0,8-0.1,10.1-0.3
	c0-0.2,0-0.3,0-0.4C18.3,41.6,14.8,41.7,10.1,41.7"/>
<path fill="#FFFFFF" d="M1.1,28.7h18c0-0.1-0.1-0.3-0.1-0.4H1.2C1.2,28.4,1.2,28.6,1.1,28.7"/>
<g opacity="0.49">
	<g>
		<defs>
			<rect id="SVGID_53_" x="14.2" y="28.5" width="1.8" height="8.4"/>
		</defs>
		<clipPath id="SVGID_54_">
			<use xlink:href="#SVGID_53_"  overflow="visible"/>
		</clipPath>
		<path clip-path="url(#SVGID_54_)" fill="#DA9093" d="M14.3,28.5c0.5,0.6,0.8,1.2,1.1,1.9c0.3,0.7,0.4,1.4,0.5,2.1
			C16,33.3,16,34,16,34.7c-0.1,0.7-0.2,1.4-0.5,2.2c-0.3-0.7-0.5-1.4-0.6-2.1c-0.2-0.7-0.3-1.4-0.4-2C14.3,31.4,14.2,30,14.3,28.5"
			/>
	</g>
</g>
<g opacity="0.49">
	<g>
		<defs>
			<rect id="SVGID_55_" x="0.3" y="29.5" width="2.1" height="11.2"/>
		</defs>
		<clipPath id="SVGID_56_">
			<use xlink:href="#SVGID_55_"  overflow="visible"/>
		</clipPath>
		<path clip-path="url(#SVGID_56_)" fill="#DA9093" d="M2.1,29.5c0.1,0.5,0.3,1,0.4,1.5c-0.1,0.4-0.2,0.9-0.3,1.4
			c-0.1,0.9-0.2,1.8-0.3,2.7C1.8,36,1.8,37,1.8,37.9c0,0.5,0,0.9,0,1.4c-0.2,0.5-0.4,0.9-0.7,1.4c-0.3-0.5-0.6-0.9-0.8-1.4
			c0-0.5,0-1,0-1.4c0-1,0-1.9,0.1-2.9c0.1-1,0.2-1.9,0.3-2.9c0.1-0.5,0.2-1,0.3-1.4C1.3,30.3,1.6,29.9,2.1,29.5"/>
	</g>
</g>
</svg>
