<?xml version="1.0" encoding="utf-8"?>
<!-- Generator: Adobe Illustrator 15.0.2, SVG Export Plug-In . SVG Version: 6.00 Build 0)  -->
<!DOCTYPE svg PUBLIC "-//W3C//DTD SVG 1.1//EN" "http://www.w3.org/Graphics/SVG/1.1/DTD/svg11.dtd">
<svg version="1.1" id="Layer_1" xmlns="http://www.w3.org/2000/svg" xmlns:xlink="http://www.w3.org/1999/xlink" x="0px" y="0px"
	 width="66.4px" height="50.9px" viewBox="0 0 66.4 50.9" enable-background="new 0 0 66.4 50.9" xml:space="preserve">
<path fill="#5E411A" d="M46.4,9.3c0,0.6-0.5,1.2-1.2,1.2H23c-0.6,0-1.2-0.5-1.2-1.2s0.5-1.2,1.2-1.2h22.2
	C45.8,8.2,46.4,8.7,46.4,9.3"/>
<path fill="#C78962" d="M66.4,48c0,1.5-1.3,2.8-2.8,2.8H2.9c-1.5,0-2.8-1.3-2.8-2.8V11.6c0-1.5,1.3-2.8,2.8-2.8h60.7
	c1.5,0,2.8,1.3,2.8,2.8V48z"/>
<path fill="#8B4D47" d="M7.7,8.8H2.8C1.3,8.8,0,10.1,0,11.6v4.9C4.2,16.5,7.7,13,7.7,8.8"/>
<path fill="#8B4D47" d="M66.3,16.5v-4.9c0-1.5-1.3-2.8-2.8-2.8h-4.9C58.6,13,62.1,16.5,66.3,16.5"/>
<path fill="#8B4D47" d="M0,43.2L0,43.2V48c0,1.5,1.3,2.8,2.8,2.8h4.9C7.7,46.6,4.2,43.2,0,43.2"/>
<path fill="#8B4D47" d="M66.3,48v-4.9c-4.2,0-7.7,3.4-7.7,7.7h4.9C65.1,50.8,66.3,49.6,66.3,48"/>
<path fill="none" stroke="#8B4D47" stroke-width="2.648" stroke-miterlimit="10" d="M25.9,8.8V3.5c0-1,0.8-1.9,1.9-1.9h12.5
	c1,0,1.9,0.8,1.9,1.9v5.3"/>
<g>
	<g>
		<defs>
			<rect id="SVGID_1_" x="2.9" y="8.8" width="61" height="1.3"/>
		</defs>
		<clipPath id="SVGID_2_">
			<use xlink:href="#SVGID_1_"  overflow="visible"/>
		</clipPath>
		<path clip-path="url(#SVGID_2_)" fill="#8B4D47" d="M2.9,8.8l30.5-0.1l30.5,0.1V9c-2.5,0.3-5.1,0.4-7.6,0.5l-7.6,0.3
			C43.6,10,38.5,10,33.4,10.1C28.3,10,23.3,10,18.2,9.8l-7.6-0.3C8,9.3,5.5,9.2,2.9,9V8.8z"/>
	</g>
</g>
<g opacity="0.4">
	<g>
		<defs>
			<rect id="SVGID_3_" x="2.8" y="48.9" width="61" height="2"/>
		</defs>
		<clipPath id="SVGID_4_">
			<use xlink:href="#SVGID_3_"  overflow="visible"/>
		</clipPath>
		<path clip-path="url(#SVGID_4_)" fill="#8B4D47" d="M63.8,50.8l-30.5,0.1L2.8,50.8v-0.2c2.5-0.4,5.1-0.5,7.6-0.8
			c2.5-0.2,5.1-0.4,7.6-0.5c2.5-0.2,5.1-0.2,7.6-0.3l7.6-0.1L41,49c2.5,0.1,5.1,0.1,7.6,0.3c2.5,0.1,5.1,0.3,7.6,0.5
			c2.5,0.3,5.1,0.4,7.6,0.8V50.8z"/>
	</g>
</g>
<path fill="#ECC57C" d="M51.4,8.8v9.4v6.2c0,4.6,2.7,5.4,2.7,5.4s2.7-0.8,2.7-5.4v-6.2V8.8H51.4z M54.1,26.2c-0.2,0-0.4-0.2-0.4-0.4
	c0-0.2,0.2-0.4,0.4-0.4c0.2,0,0.4,0.2,0.4,0.4C54.6,26,54.4,26.2,54.1,26.2 M54.1,23.8c-0.2,0-0.4-0.2-0.4-0.4
	c0-0.2,0.2-0.4,0.4-0.4c0.2,0,0.4,0.2,0.4,0.4C54.6,23.6,54.4,23.8,54.1,23.8 M54.1,21.5c-0.2,0-0.4-0.2-0.4-0.4s0.2-0.4,0.4-0.4
	c0.2,0,0.4,0.2,0.4,0.4S54.4,21.5,54.1,21.5 M54.1,19.1c-0.2,0-0.4-0.2-0.4-0.4c0-0.2,0.2-0.4,0.4-0.4c0.2,0,0.4,0.2,0.4,0.4
	C54.6,18.9,54.4,19.1,54.1,19.1 M54.1,16.7c-0.2,0-0.4-0.2-0.4-0.4c0-0.2,0.2-0.4,0.4-0.4c0.2,0,0.4,0.2,0.4,0.4
	C54.6,16.5,54.4,16.7,54.1,16.7 M54.1,14.3c-0.2,0-0.4-0.2-0.4-0.4s0.2-0.4,0.4-0.4c0.2,0,0.4,0.2,0.4,0.4S54.4,14.3,54.1,14.3
	 M54.1,12c-0.2,0-0.4-0.2-0.4-0.4c0-0.2,0.2-0.4,0.4-0.4c0.2,0,0.4,0.2,0.4,0.4C54.6,11.8,54.4,12,54.1,12"/>
<path fill="#DCDBDB" d="M56.3,23.5H52c-0.5,0-0.9,0.4-0.9,0.9V30c0,0.5,0.4,0.9,0.9,0.9h4.3c0.5,0,0.9-0.4,0.9-0.9v-5.6
	C57.2,23.9,56.8,23.5,56.3,23.5 M56.8,29.6c0,0.5-0.2,0.9-0.8,0.9h-3.9c-0.5,0-0.8-0.4-0.8-0.9v-4.7c0-0.5,0.2-0.9,0.8-0.9h3.9
	c0.5,0,0.8,0.4,0.8,0.9V29.6z"/>
<path fill="#ECC57C" d="M54.1,29.8c0,0-2.7-0.8-2.7-5.4v26.4h5.4V24.4C56.8,29,54.1,29.8,54.1,29.8"/>
<g>
	<g>
		<defs>
			<rect id="SVGID_5_" x="51.4" y="24.6" width="5.4" height="5.7"/>
		</defs>
		<clipPath id="SVGID_6_">
			<use xlink:href="#SVGID_5_"  overflow="visible"/>
		</clipPath>
		<path clip-path="url(#SVGID_6_)" fill="#ECC57C" d="M54.1,29.7c0,0-2.7-0.5-2.7-5.1v0.3c0,4.6,2.7,5.4,2.7,5.4s2.7-0.8,2.7-5.4
			v-0.3C56.8,29.2,54.1,29.7,54.1,29.7"/>
	</g>
</g>
<path fill="#C8C7C7" d="M54.1,26.3c-0.1-0.1-0.2-0.3-0.3-0.4l0-0.4v-0.8V24v-0.4c0.1-0.1,0.2-0.3,0.3-0.4c0.1,0.1,0.2,0.3,0.3,0.4
	V24v0.8v0.8l0,0.4C54.4,26,54.3,26.1,54.1,26.3"/>
<path fill="#ECC57C" d="M9.7,8.8v9.4v6.2c0,4.6,2.7,5.4,2.7,5.4s2.7-0.8,2.7-5.4v-6.2V8.8H9.7z M12.4,26.2c-0.2,0-0.4-0.2-0.4-0.4
	c0-0.2,0.2-0.4,0.4-0.4c0.2,0,0.4,0.2,0.4,0.4C12.8,26,12.6,26.2,12.4,26.2 M12.4,23.8c-0.2,0-0.4-0.2-0.4-0.4
	c0-0.2,0.2-0.4,0.4-0.4c0.2,0,0.4,0.2,0.4,0.4C12.8,23.6,12.6,23.8,12.4,23.8 M12.4,21.5c-0.2,0-0.4-0.2-0.4-0.4s0.2-0.4,0.4-0.4
	c0.2,0,0.4,0.2,0.4,0.4S12.6,21.5,12.4,21.5 M12.4,19.1c-0.2,0-0.4-0.2-0.4-0.4c0-0.2,0.2-0.4,0.4-0.4c0.2,0,0.4,0.2,0.4,0.4
	C12.8,18.9,12.6,19.1,12.4,19.1 M12.4,16.7c-0.2,0-0.4-0.2-0.4-0.4c0-0.2,0.2-0.4,0.4-0.4c0.2,0,0.4,0.2,0.4,0.4
	C12.8,16.5,12.6,16.7,12.4,16.7 M12.4,14.3c-0.2,0-0.4-0.2-0.4-0.4s0.2-0.4,0.4-0.4c0.2,0,0.4,0.2,0.4,0.4S12.6,14.3,12.4,14.3
	 M12.4,12c-0.2,0-0.4-0.2-0.4-0.4c0-0.2,0.2-0.4,0.4-0.4c0.2,0,0.4,0.2,0.4,0.4C12.8,11.8,12.6,12,12.4,12"/>
<path fill="#DCDBDB" d="M14.6,23.5h-4.3c-0.5,0-0.9,0.4-0.9,0.9V30c0,0.5,0.4,0.9,0.9,0.9h4.3c0.5,0,0.9-0.4,0.9-0.9v-5.6
	C15.5,23.9,15.1,23.5,14.6,23.5 M15.1,29.6c0,0.5-0.2,0.9-0.8,0.9h-3.9c-0.5,0-0.8-0.4-0.8-0.9v-4.7c0-0.5,0.2-0.9,0.8-0.9h3.9
	c0.5,0,0.8,0.4,0.8,0.9V29.6z"/>
<path fill="#ECC57C" d="M12.4,29.8c0,0-2.7-0.8-2.7-5.4v26.4h5.4V24.4C15.1,29,12.4,29.8,12.4,29.8"/>
<g>
	<g>
		<defs>
			<rect id="SVGID_7_" x="9.7" y="24.6" width="5.4" height="5.7"/>
		</defs>
		<clipPath id="SVGID_8_">
			<use xlink:href="#SVGID_7_"  overflow="visible"/>
		</clipPath>
		<path clip-path="url(#SVGID_8_)" fill="#ECC57C" d="M12.4,29.7c0,0-2.7-0.5-2.7-5.1v0.3c0,4.6,2.7,5.4,2.7,5.4s2.7-0.8,2.7-5.4
			v-0.3C15.1,29.2,12.4,29.7,12.4,29.7"/>
	</g>
</g>
<path fill="#C8C7C7" d="M12.4,26.3c-0.1-0.1-0.2-0.3-0.3-0.4l0-0.4v-0.8V24v-0.4c0.1-0.1,0.2-0.3,0.3-0.4c0.1,0.1,0.2,0.3,0.3,0.4
	V24v0.8v0.8l0,0.4C12.6,26,12.5,26.1,12.4,26.3"/>
<path fill="#8B4D47" d="M29.8,2.3c0,0.6-0.4,1-1,1c-0.6,0-1-0.4-1-1V1c0-0.6,0.4-1,1-1c0.6,0,1,0.4,1,1V2.3z"/>
<path fill="#8B4D47" d="M31.4,2.3c0,0.6-0.4,1-1,1c-0.6,0-1-0.4-1-1V1c0-0.6,0.4-1,1-1c0.6,0,1,0.4,1,1V2.3z"/>
<path fill="#8B4D47" d="M32.9,2.3c0,0.6-0.4,1-1,1c-0.6,0-1-0.4-1-1V1c0-0.6,0.4-1,1-1c0.6,0,1,0.4,1,1V2.3z"/>
<path fill="#8B4D47" d="M34.4,2.3c0,0.6-0.4,1-1,1c-0.6,0-1-0.4-1-1V1c0-0.6,0.4-1,1-1c0.6,0,1,0.4,1,1V2.3z"/>
<path fill="#8B4D47" d="M36,2.3c0,0.6-0.4,1-1,1c-0.6,0-1-0.4-1-1V1c0-0.6,0.4-1,1-1c0.6,0,1,0.4,1,1V2.3z"/>
<path fill="#8B4D47" d="M37.5,2.3c0,0.6-0.4,1-1,1c-0.6,0-1-0.4-1-1V1c0-0.6,0.4-1,1-1c0.6,0,1,0.4,1,1V2.3z"/>
<path fill="#8B4D47" d="M39,2.3c0,0.6-0.4,1-1,1c-0.6,0-1-0.4-1-1V1c0-0.6,0.4-1,1-1c0.6,0,1,0.4,1,1V2.3z"/>
<path fill="#8B4D47" d="M40.6,2.3c0,0.6-0.4,1-1,1c-0.6,0-1-0.4-1-1V1c0-0.6,0.4-1,1-1c0.6,0,1,0.4,1,1V2.3z"/>
<g opacity="0.7">
	<g>
		<defs>
			<rect id="SVGID_9_" x="27.8" width="12.8" height="1.3"/>
		</defs>
		<clipPath id="SVGID_10_">
			<use xlink:href="#SVGID_9_"  overflow="visible"/>
		</clipPath>
		<path clip-path="url(#SVGID_10_)" fill="#8B4D47" d="M38.9,0.5c0.2-0.2,0.4-0.3,0.7-0.3c0.6,0,1,0.4,1,1V1c0-0.6-0.4-1-1-1
			c-0.3,0-0.6,0.2-0.8,0.4C38.6,0.2,38.4,0,38,0c-0.3,0-0.6,0.2-0.8,0.4C37.1,0.2,36.8,0,36.5,0c-0.3,0-0.6,0.2-0.8,0.4
			C35.5,0.2,35.3,0,35,0c-0.3,0-0.6,0.2-0.8,0.4C34,0.2,33.7,0,33.4,0c-0.3,0-0.6,0.2-0.8,0.4C32.5,0.2,32.2,0,31.9,0
			c-0.3,0-0.6,0.2-0.8,0.4C30.9,0.2,30.7,0,30.4,0c-0.3,0-0.6,0.2-0.8,0.4C29.4,0.2,29.1,0,28.8,0c-0.6,0-1,0.4-1,1v0.3
			c0-0.6,0.4-1,1-1c0.3,0,0.5,0.1,0.7,0.3h0.2c0.2-0.2,0.4-0.3,0.7-0.3c0.3,0,0.5,0.1,0.7,0.3h0.2c0.2-0.2,0.4-0.3,0.7-0.3
			c0.3,0,0.5,0.1,0.7,0.3h0.2c0.2-0.2,0.4-0.3,0.7-0.3c0.3,0,0.5,0.1,0.7,0.3h0.2c0.2-0.2,0.4-0.3,0.7-0.3c0.3,0,0.5,0.1,0.7,0.3
			h0.2c0.2-0.2,0.4-0.3,0.7-0.3c0.3,0,0.5,0.1,0.7,0.3h0.2c0.2-0.2,0.4-0.3,0.7-0.3c0.3,0,0.5,0.1,0.7,0.3H38.9z"/>
	</g>
</g>
<g>
	<g>
		<defs>
			<rect id="SVGID_11_" x="38.6" y="0.4" width="0.5" height="2.5"/>
		</defs>
		<clipPath id="SVGID_12_">
			<use xlink:href="#SVGID_11_"  overflow="visible"/>
		</clipPath>
		<path clip-path="url(#SVGID_12_)" fill="#8B4D47" d="M38.6,1v1.3c0,0.2,0.1,0.4,0.2,0.6C38.9,2.8,39,2.5,39,2.3V1
			c0-0.2-0.1-0.4-0.2-0.6C38.7,0.6,38.6,0.8,38.6,1"/>
	</g>
</g>
<g>
	<g>
		<defs>
			<rect id="SVGID_13_" x="40.1" y="0.4" width="0.5" height="2.5"/>
		</defs>
		<clipPath id="SVGID_14_">
			<use xlink:href="#SVGID_13_"  overflow="visible"/>
		</clipPath>
		<path clip-path="url(#SVGID_14_)" fill="#8B4D47" d="M40.1,1v1.3c0,0.2,0.1,0.4,0.2,0.6c0.1-0.2,0.2-0.4,0.2-0.6V1
			c0-0.2-0.1-0.4-0.2-0.6C40.2,0.6,40.1,0.8,40.1,1"/>
	</g>
</g>
<g>
	<g>
		<defs>
			<rect id="SVGID_15_" x="37" y="0.4" width="0.5" height="2.5"/>
		</defs>
		<clipPath id="SVGID_16_">
			<use xlink:href="#SVGID_15_"  overflow="visible"/>
		</clipPath>
		<path clip-path="url(#SVGID_16_)" fill="#8B4D47" d="M37,1v1.3c0,0.2,0.1,0.4,0.2,0.6c0.1-0.2,0.2-0.4,0.2-0.6V1
			c0-0.2-0.1-0.4-0.2-0.6C37.1,0.6,37,0.8,37,1"/>
	</g>
</g>
<g>
	<g>
		<defs>
			<rect id="SVGID_17_" x="35.5" y="0.4" width="0.5" height="2.5"/>
		</defs>
		<clipPath id="SVGID_18_">
			<use xlink:href="#SVGID_17_"  overflow="visible"/>
		</clipPath>
		<path clip-path="url(#SVGID_18_)" fill="#8B4D47" d="M35.5,1v1.3c0,0.2,0.1,0.4,0.2,0.6C35.9,2.8,36,2.5,36,2.3V1
			c0-0.2-0.1-0.4-0.2-0.6C35.6,0.6,35.5,0.8,35.5,1"/>
	</g>
</g>
<g>
	<g>
		<defs>
			<rect id="SVGID_19_" x="34" y="0.4" width="0.5" height="2.5"/>
		</defs>
		<clipPath id="SVGID_20_">
			<use xlink:href="#SVGID_19_"  overflow="visible"/>
		</clipPath>
		<path clip-path="url(#SVGID_20_)" fill="#8B4D47" d="M34,1v1.3c0,0.2,0.1,0.4,0.2,0.6c0.1-0.2,0.2-0.4,0.2-0.6V1
			c0-0.2-0.1-0.4-0.2-0.6C34.1,0.6,34,0.8,34,1"/>
	</g>
</g>
<g>
	<g>
		<defs>
			<rect id="SVGID_21_" x="32.4" y="0.4" width="0.5" height="2.5"/>
		</defs>
		<clipPath id="SVGID_22_">
			<use xlink:href="#SVGID_21_"  overflow="visible"/>
		</clipPath>
		<path clip-path="url(#SVGID_22_)" fill="#8B4D47" d="M32.4,1v1.3c0,0.2,0.1,0.4,0.2,0.6c0.1-0.2,0.2-0.4,0.2-0.6V1
			c0-0.2-0.1-0.4-0.2-0.6C32.5,0.6,32.4,0.8,32.4,1"/>
	</g>
</g>
<g>
	<g>
		<defs>
			<rect id="SVGID_23_" x="30.9" y="0.4" width="0.5" height="2.5"/>
		</defs>
		<clipPath id="SVGID_24_">
			<use xlink:href="#SVGID_23_"  overflow="visible"/>
		</clipPath>
		<path clip-path="url(#SVGID_24_)" fill="#8B4D47" d="M30.9,1v1.3c0,0.2,0.1,0.4,0.2,0.6c0.1-0.2,0.2-0.4,0.2-0.6V1
			c0-0.2-0.1-0.4-0.2-0.6C31,0.6,30.9,0.8,30.9,1"/>
	</g>
</g>
<g>
	<g>
		<defs>
			<rect id="SVGID_25_" x="29.3" y="0.4" width="0.5" height="2.5"/>
		</defs>
		<clipPath id="SVGID_26_">
			<use xlink:href="#SVGID_25_"  overflow="visible"/>
		</clipPath>
		<path clip-path="url(#SVGID_26_)" fill="#8B4D47" d="M29.3,1v1.3c0,0.2,0.1,0.4,0.2,0.6c0.1-0.2,0.2-0.4,0.2-0.6V1
			c0-0.2-0.1-0.4-0.2-0.6C29.4,0.6,29.3,0.8,29.3,1"/>
	</g>
</g>
<g>
	<g>
		<defs>
			<rect id="SVGID_27_" x="27.8" y="0.4" width="0.5" height="2.5"/>
		</defs>
		<clipPath id="SVGID_28_">
			<use xlink:href="#SVGID_27_"  overflow="visible"/>
		</clipPath>
		<path clip-path="url(#SVGID_28_)" fill="#8B4D47" d="M27.8,1v1.3c0,0.2,0.1,0.4,0.2,0.6c0.1-0.2,0.2-0.4,0.2-0.6V1
			c0-0.2-0.1-0.4-0.2-0.6C27.9,0.6,27.8,0.8,27.8,1"/>
	</g>
</g>
<g>
	<g>
		<defs>
			<rect id="SVGID_29_" x="26.7" y="2.6" width="1.1" height="5.2"/>
		</defs>
		<clipPath id="SVGID_30_">
			<use xlink:href="#SVGID_29_"  overflow="visible"/>
		</clipPath>
		<path clip-path="url(#SVGID_30_)" fill="#8B4D47" d="M27.8,2.6C27.3,2.7,27,3.1,27,3.5c0,0.4,0,0.9,0,1.4c0,0.9,0,1.9-0.1,2.8
			c-0.1-0.9-0.1-1.9-0.1-2.8c0-0.5,0-0.9,0-1.4c0-0.2,0.2-0.5,0.3-0.7C27.3,2.7,27.6,2.6,27.8,2.6"/>
	</g>
</g>
<g>
	<g>
		<defs>
			<rect id="SVGID_31_" x="40.6" y="2.6" width="1.1" height="5.2"/>
		</defs>
		<clipPath id="SVGID_32_">
			<use xlink:href="#SVGID_31_"  overflow="visible"/>
		</clipPath>
		<path clip-path="url(#SVGID_32_)" fill="#8B4D47" d="M40.6,2.6c0.2,0,0.5,0.1,0.7,0.2c0.2,0.2,0.3,0.4,0.3,0.7c0.1,0.5,0,1,0,1.4
			c0,0.9,0,1.9-0.1,2.8c-0.1-0.9-0.1-1.9-0.1-2.8c0-0.5,0-1,0-1.4C41.4,3.1,41.1,2.7,40.6,2.6"/>
	</g>
</g>
<path fill="#B52126" d="M49.4,40.9c0,2.9-2.4,5.3-5.3,5.3c-2.9,0-5.3-2.4-5.3-5.3c0-2.9,2.4-5.3,5.3-5.3
	C47.1,35.6,49.4,38,49.4,40.9"/>
<path fill="#FFFFFF" d="M47.8,40.9c0,2.1-1.7,3.7-3.7,3.7s-3.7-1.7-3.7-3.7c0-2.1,1.7-3.7,3.7-3.7S47.8,38.8,47.8,40.9"/>
<path fill="#1498C3" d="M46.3,40.9c0,1.2-1,2.2-2.2,2.2s-2.2-1-2.2-2.2c0-1.2,1-2.2,2.2-2.2S46.3,39.7,46.3,40.9"/>
<rect x="9.7" y="50.2" fill="#BCA66D" width="5.4" height="0.6"/>
<rect x="51.4" y="50.2" fill="#BCA66D" width="5.4" height="0.6"/>
<g>
	<g>
		<defs>
			<rect id="SVGID_33_" x="9.7" y="8.8" width="5.4" height="0.6"/>
		</defs>
		<clipPath id="SVGID_34_">
			<use xlink:href="#SVGID_33_"  overflow="visible"/>
		</clipPath>
		<rect x="9.7" y="8.8" clip-path="url(#SVGID_34_)" fill="#BCA66D" width="5.4" height="0.6"/>
	</g>
</g>
<g>
	<g>
		<defs>
			<rect id="SVGID_35_" x="51.4" y="8.8" width="5.4" height="0.6"/>
		</defs>
		<clipPath id="SVGID_36_">
			<use xlink:href="#SVGID_35_"  overflow="visible"/>
		</clipPath>
		<rect x="51.4" y="8.8" clip-path="url(#SVGID_36_)" fill="#BCA66D" width="5.4" height="0.6"/>
	</g>
</g>
</svg>
