<?xml version="1.0" encoding="utf-8"?>
<!-- Generator: Adobe Illustrator 15.0.2, SVG Export Plug-In . SVG Version: 6.00 Build 0)  -->
<!DOCTYPE svg PUBLIC "-//W3C//DTD SVG 1.1//EN" "http://www.w3.org/Graphics/SVG/1.1/DTD/svg11.dtd">
<svg version="1.1" id="Layer_1" xmlns="http://www.w3.org/2000/svg" xmlns:xlink="http://www.w3.org/1999/xlink" x="0px" y="0px"
	 width="65.3px" height="25.3px" viewBox="0 0 65.3 25.3" enable-background="new 0 0 65.3 25.3" xml:space="preserve">
<path fill="#C8CAC9" d="M28.9,9.3c0,0-2.1,3.1-1.8,3.8c0.2,0.6,1.2,0.1,1.5-0.4S31.6,8.8,28.9,9.3"/>
<path fill="#767976" d="M29.3,9.2c1.8,0-0.6,3-0.9,3.4c-0.2,0.3-0.7,0.6-1.1,0.7c0.4,0,0.9-0.3,1.2-0.7C28.9,12.2,31.3,9.2,29.3,9.2
	"/>
<path fill="#A77C39" d="M27.9,10.3c0,0-0.5-0.2-0.6,0.1c-0.2,0.3-0.3,0.6-0.3,0.6s-0.2,0.1-0.4,0.1c-0.2,0-0.3,0.1-0.3,0.2
	c0,0.1-0.1,0.6-0.1,0.6s0.1,0.2,0.3,0.2c0.2,0,0.8,0.1,0.8,0.1L27.9,10.3z"/>
<path fill="#C8CAC9" d="M36.4,9.3c0,0,2.1,3.1,1.8,3.8c-0.2,0.6-1.2,0.1-1.5-0.4S33.7,8.8,36.4,9.3"/>
<path fill="#767976" d="M36,9.2c-1.8,0,0.6,3,0.9,3.4c0.2,0.3,0.7,0.6,1.1,0.7c-0.4,0-1-0.3-1.2-0.7C36.5,12.2,34,9.2,36,9.2"/>
<path fill="#A77C39" d="M37.4,10.3c0,0,0.5-0.2,0.6,0.1c0.2,0.3,0.3,0.6,0.3,0.6s0.2,0.1,0.4,0.1c0.2,0,0.3,0.1,0.3,0.2
	c0,0.1,0.1,0.6,0.1,0.6s-0.1,0.2-0.3,0.2c-0.2,0-0.8,0.1-0.8,0.1L37.4,10.3z"/>
<path fill="#444142" d="M16.9,16.9c-0.9-0.5-1.7-1.1-2.4-1.8c-0.8-0.6-1.4-1.4-2-2.2l-0.9-1.1c-0.2-0.2-0.3-0.4-0.4-0.5
	c-0.2-0.1-0.4-0.2-0.6-0.3c-0.8-0.3-1.8-0.5-2.8-0.5l0,0l-2.3,0c0,0-0.1,0-0.1-0.1c0,0,0-0.1,0.1-0.1l2.3-0.4h0l0,0c1,0,2,0,3,0.3
	c0.3,0.1,0.5,0.2,0.8,0.3c0.3,0.2,0.5,0.4,0.6,0.6l1.1,1c0.7,0.6,1.4,1.3,2.1,2.1C15.9,15.1,16.5,15.9,16.9,16.9
	C17,16.9,17,16.9,16.9,16.9C16.9,16.9,16.9,16.9,16.9,16.9"/>
<path fill="none" stroke="#B49057" stroke-width="0.527" stroke-miterlimit="10" d="M0.3,11.7c0,0,6.5-1.6,8.4-1.4"/>
<rect x="2.1" y="11" fill="#A77C39" width="0.6" height="1.5"/>
<g opacity="0.75">
	<g>
		<defs>
			<rect id="SVGID_1_" x="2.1" y="0.3" width="26.7" height="24.7"/>
		</defs>
		<clipPath id="SVGID_2_">
			<use xlink:href="#SVGID_1_"  overflow="visible"/>
		</clipPath>
		<path clip-path="url(#SVGID_2_)" fill="#252A26" d="M2.1,11.2c0,0-0.7-10.9,13.4-10.9c0,0,13.3-0.4,13.3,6.7c0,7.1-9.9,18-16.2,18
			C6.4,25.1,2.5,19.8,2.1,11.2"/>
	</g>
</g>
<path fill="none" stroke="#A77C39" stroke-width="0.608" stroke-miterlimit="10" d="M2.1,11.2c0,0-0.7-10.9,13.4-10.9
	c0,0,13.3-0.4,13.3,6.7c0,7.1-9.9,18-16.2,18C6.4,25.1,2.5,19.8,2.1,11.2z"/>
<g>
	<g>
		<defs>
			<rect id="SVGID_3_" x="2.2" y="0.4" width="26.5" height="24.5"/>
		</defs>
		<clipPath id="SVGID_4_">
			<use xlink:href="#SVGID_3_"  overflow="visible"/>
		</clipPath>
		<path clip-path="url(#SVGID_4_)" fill="#A77C39" d="M15.9,0.7c1.9,0,8.3,0.2,11.1,3.1c0.9,0.9,1.3,2,1.3,3.3
			c0,6.9-9.6,17.6-15.8,17.6h-0.1c-5.9,0-9.6-5-10-13.5c0,0-0.2-3.9,2.6-6.9c2.2-2.4,5.7-3.6,10.4-3.6C15.5,0.7,15.7,0.7,15.9,0.7
			 M15.9,0.4c-0.3,0-0.4,0-0.4,0c-14,0-13.3,10.8-13.3,10.8c0.4,8.5,4.2,13.7,10.3,13.7c0,0,0.1,0,0.1,0c6.2,0,16-10.8,16-17.9
			C28.7,0.7,18.2,0.4,15.9,0.4"/>
	</g>
</g>
<rect y="11" fill="#B99661" width="2.1" height="1.5"/>
<rect x="0" y="11.4" fill="#DCCBB0" width="0.7" height="0.5"/>
<rect x="0" y="11.5" fill="#A77C39" width="0.7" height="0.5"/>
<path fill="#C6AA7E" d="M29.1,6.5c0,0,0.4-0.1,0.4-0.3V5.6H29c0,0-0.1,0-0.1,0.2c0,0.1,0.1,0.8,0.1,0.8S29,6.6,29.1,6.5"/>
<path fill="#444142" d="M48.4,16.8c0.5-0.9,1.1-1.7,1.7-2.5c0.6-0.8,1.3-1.5,2-2.1l1.1-1c0.2-0.1,0.4-0.4,0.6-0.6
	c0.3-0.2,0.5-0.3,0.8-0.3c1-0.3,2-0.3,3-0.3h0l0,0l2.3,0.4c0,0,0.1,0,0,0.1c0,0,0,0.1-0.1,0.1l-2.3,0l0,0c-0.9,0.1-1.9,0.2-2.8,0.5
	c-0.2,0.1-0.4,0.2-0.6,0.3c-0.1,0.1-0.2,0.2-0.4,0.5L52.9,13c-0.6,0.8-1.3,1.5-2,2.2C50.1,15.8,49.3,16.4,48.4,16.8
	C48.4,17,48.4,16.9,48.4,16.8C48.4,16.9,48.4,16.9,48.4,16.8"/>
<path fill="none" stroke="#B49057" stroke-width="0.527" stroke-miterlimit="10" d="M65.1,11.7c0,0-6.5-1.6-8.4-1.4"/>
<rect x="62.6" y="11" fill="#A77C39" width="0.6" height="1.5"/>
<g opacity="0.75">
	<g>
		<defs>
			<rect id="SVGID_5_" x="36.6" y="0.3" width="26.7" height="24.7"/>
		</defs>
		<clipPath id="SVGID_6_">
			<use xlink:href="#SVGID_5_"  overflow="visible"/>
		</clipPath>
		<path clip-path="url(#SVGID_6_)" fill="#252A26" d="M63.2,11.2c0,0,0.7-10.9-13.4-10.9c0,0-13.3-0.4-13.3,6.7
			c0,7.1,9.9,18,16.2,18C59,25.1,62.8,19.8,63.2,11.2"/>
	</g>
</g>
<path fill="none" stroke="#A77C39" stroke-width="0.608" stroke-miterlimit="10" d="M63.2,11.2c0,0,0.7-10.9-13.4-10.9
	c0,0-13.3-0.4-13.3,6.7c0,7.1,9.9,18,16.2,18C59,25.1,62.8,19.8,63.2,11.2z"/>
<g>
	<g>
		<defs>
			<rect id="SVGID_7_" x="36.7" y="0.4" width="26.5" height="24.5"/>
		</defs>
		<clipPath id="SVGID_8_">
			<use xlink:href="#SVGID_7_"  overflow="visible"/>
		</clipPath>
		<path clip-path="url(#SVGID_8_)" fill="#A77C39" d="M49.4,0.7c0.3,0,0.4,0,0.4,0c4.7,0,8.2,1.2,10.4,3.6c2.8,3,2.6,6.9,2.6,6.9
			c-0.4,8.4-4.2,13.5-10,13.5h-0.1C46.6,24.6,37,13.9,36.9,7c0-1.3,0.4-2.4,1.3-3.3C41.1,0.9,47.5,0.7,49.4,0.7 M49.4,0.4
			c-2.3,0-12.8,0.3-12.7,6.6c0,7.1,9.8,17.8,16,17.9c0,0,0.1,0,0.1,0c6.2,0,9.9-5.2,10.3-13.7c0,0,0.7-10.8-13.3-10.8
			C49.8,0.4,49.7,0.4,49.4,0.4"/>
	</g>
</g>
<rect x="63.2" y="11" fill="#B99661" width="2.1" height="1.5"/>
<rect x="64.6" y="11.4" fill="#DCCBB0" width="0.7" height="0.5"/>
<rect x="64.6" y="11.5" fill="#A77C39" width="0.7" height="0.5"/>
<path fill="none" stroke="#A77C39" stroke-width="0.286" stroke-miterlimit="10" d="M42.7,0.8c0,0-9.1,0.4-10,0.4
	c-0.9,0-10-0.4-10-0.4"/>
<path fill="none" stroke="#C6AA7E" stroke-width="0.286" stroke-miterlimit="10" d="M42.7,0.9c0,0-9.1,0.4-10,0.4
	c-0.9,0-10-0.4-10-0.4"/>
<path fill="none" stroke="#B0894D" stroke-width="0.286" stroke-miterlimit="10" d="M36.1,6.1V4.4c0,0-0.2-0.9-0.8-1
	c-0.6-0.1-2.6-0.3-2.6-0.3s-2,0.1-2.6,0.3c-0.6,0.1-0.8,1-0.8,1v1.7"/>
<path fill="none" stroke="#C6AA7E" stroke-width="0.286" stroke-miterlimit="10" d="M36.1,6.2V4.5c0,0-0.2-0.9-0.8-1
	c-0.6-0.1-2.6-0.3-2.6-0.3s-2,0.1-2.6,0.3c-0.6,0.1-0.8,1-0.8,1v1.7"/>
<path fill="#C6AA7E" d="M36.3,6.5c0,0-0.4-0.1-0.4-0.3V5.6h0.5c0,0,0.1,0,0.1,0.2c0,0.1-0.1,0.8-0.1,0.8S36.3,6.6,36.3,6.5"/>
</svg>
