<?xml version="1.0" encoding="utf-8"?>
<!-- Generator: Adobe Illustrator 15.0.2, SVG Export Plug-In . SVG Version: 6.00 Build 0)  -->
<!DOCTYPE svg PUBLIC "-//W3C//DTD SVG 1.1//EN" "http://www.w3.org/Graphics/SVG/1.1/DTD/svg11.dtd">
<svg version="1.1" id="Layer_1" xmlns="http://www.w3.org/2000/svg" xmlns:xlink="http://www.w3.org/1999/xlink" x="0px" y="0px"
	 width="64px" height="64px" viewBox="0 0 64 64" enable-background="new 0 0 64 64" xml:space="preserve">
<path fill="#E9E9E9" d="M63,32C63,49.1,49.1,63,32,63C14.9,63,1.1,49.1,1.1,32S14.9,1.1,32,1.1C49.1,1.1,63,14.9,63,32"/>
<circle fill="none" stroke="#918F90" stroke-width="2.183" stroke-miterlimit="10" cx="32" cy="32" r="30.9"/>
<g>
	<g>
		<defs>
			<rect id="SVGID_1_" x="1.1" y="29" width="61.9" height="33.9"/>
		</defs>
		<clipPath id="SVGID_2_">
			<use xlink:href="#SVGID_1_"  overflow="visible"/>
		</clipPath>
		<path clip-path="url(#SVGID_2_)" fill="#918F90" d="M61.9,32c0,16.5-13.4,29.8-29.8,29.8S2.2,48.5,2.2,32c0-0.8,0-1.6,0.1-2.4
			c-0.4-0.2-0.7-0.4-1-0.6c-0.1,1-0.1,2-0.1,3C1.1,49.1,14.9,63,32,63S63,49.1,63,32c0-1-0.1-2-0.1-3c-0.3,0.2-0.7,0.4-1,0.6
			C61.8,30.4,61.9,31.2,61.9,32"/>
	</g>
</g>
<g>
	<g>
		<defs>
			<rect id="SVGID_3_" x="1.2" y="1.1" width="61.6" height="28.6"/>
		</defs>
		<clipPath id="SVGID_4_">
			<use xlink:href="#SVGID_3_"  overflow="visible"/>
		</clipPath>
		<path clip-path="url(#SVGID_4_)" fill="#918F90" d="M32,1.1C16,1.1,2.7,13.3,1.2,29c0.3,0.2,0.7,0.4,1,0.6
			C3.5,14.3,16.4,2.2,32,2.2s28.5,12.1,29.7,27.5c0.4-0.2,0.7-0.4,1-0.6C61.3,13.3,48.1,1.1,32,1.1"/>
	</g>
</g>
<rect x="31.8" y="3.8" fill="#231F20" width="0.5" height="2.9"/>
<rect x="29" y="4" transform="matrix(-0.9945 0.1049 -0.1049 -0.9945 58.8691 7.7789)" fill="#231F20" width="0.5" height="2.9"/>
<rect x="26.2" y="4.4" transform="matrix(-0.9779 0.2093 -0.2093 -0.9779 53.5762 6.0827)" fill="#231F20" width="0.5" height="2.9"/>
<rect x="23.5" y="5.1" transform="matrix(-0.9511 0.309 -0.309 -0.9511 48.4027 5.5335)" fill="#231F20" width="0.5" height="2.9"/>
<rect x="20.9" y="6.1" transform="matrix(-0.9136 0.4065 -0.4065 -0.9136 43.5667 5.9503)" fill="#231F20" width="0.5" height="2.9"/>
<rect x="18.4" y="7.4" transform="matrix(-0.8663 0.4996 -0.4996 -0.8663 39.2537 7.2367)" fill="#231F20" width="0.5" height="2.9"/>
<rect x="16.1" y="8.9" transform="matrix(-0.8091 0.5877 -0.5877 -0.8091 35.6189 9.2219)" fill="#231F20" width="0.5" height="2.9"/>
<rect x="13.9" y="10.7" transform="matrix(-0.7424 0.67 -0.67 -0.7424 32.7775 11.7112)" fill="#231F20" width="0.5" height="2.9"/>
<rect x="11.9" y="12.7" transform="matrix(-0.6689 0.7434 -0.7434 -0.6689 30.7995 14.5518)" fill="#231F20" width="0.5" height="2.9"/>
<rect x="10.2" y="14.9" transform="matrix(-0.5864 0.81 -0.81 -0.5864 29.7068 17.4511)" fill="#231F20" width="0.5" height="2.9"/>
<rect x="8.6" y="17.2" transform="matrix(-0.4981 0.8671 -0.8671 -0.4981 29.4718 20.2546)" fill="#231F20" width="0.5" height="2.9"/>
<rect x="7.4" y="19.7" transform="matrix(-0.4048 0.9144 -0.9144 -0.4048 30.0203 22.7599)" fill="#231F20" width="0.5" height="2.9"/>
<rect x="6.4" y="22.3" transform="matrix(-0.3065 0.9519 -0.9519 -0.3065 31.2417 24.7626)" fill="#231F20" width="0.5" height="2.9"/>
<rect x="5.6" y="25" transform="matrix(-0.2054 0.9787 -0.9787 -0.2054 32.983 26.1495)" fill="#231F20" width="0.5" height="2.9"/>
<rect x="5.2" y="27.8" transform="matrix(-0.1027 0.9947 -0.9947 -0.1027 35.0705 26.8198)" fill="#231F20" width="0.5" height="2.9"/>
<rect x="3.8" y="31.8" fill="#231F20" width="2.9" height="0.5"/>
<polygon fill="#231F20" points="6.9,34.9 6.9,34.4 4,34.7 4,35.2 "/>
<polygon fill="#231F20" points="7.4,37.5 7.2,37 4.4,37.6 4.5,38.1 "/>
<rect x="6.4" y="38.8" transform="matrix(0.3138 0.9495 -0.9495 0.3138 42.7772 21.3751)" fill="#231F20" width="0.5" height="2.9"/>
<polygon fill="#231F20" points="9,42.5 8.8,42.1 6.2,43.3 6.4,43.7 "/>
<polygon fill="#231F20" points="10.3,44.9 10,44.5 7.5,45.9 7.7,46.3 "/>
<polygon fill="#231F20" points="11.7,47.1 11.4,46.7 9.1,48.4 9.4,48.8 "/>
<polygon fill="#231F20" points="13.4,49.1 13.1,48.8 10.9,50.7 11.2,51.1 "/>
<rect x="13.9" y="50.4" transform="matrix(0.7445 0.6676 -0.6676 0.7445 38.2531 3.8207)" fill="#231F20" width="0.5" height="2.9"/>
<rect x="16.1" y="52.2" transform="matrix(0.8103 0.586 -0.586 0.8103 34.5325 0.6194)" fill="#231F20" width="0.5" height="2.9"/>
<rect x="18.4" y="53.7" transform="matrix(0.8675 0.4974 -0.4974 0.8675 29.9178 -1.97)" fill="#231F20" width="0.5" height="2.9"/>
<rect x="20.9" y="55" transform="matrix(0.9148 0.4039 -0.4039 0.9148 24.5986 -3.7337)" fill="#231F20" width="0.5" height="2.9"/>
<rect x="23.5" y="56" transform="matrix(0.9517 0.3071 -0.3071 0.9517 18.7915 -4.5213)" fill="#231F20" width="0.5" height="2.9"/>
<rect x="26.2" y="56.7" transform="matrix(0.9785 0.2062 -0.2062 0.9785 12.5644 -4.2071)" fill="#231F20" width="0.5" height="2.9"/>
<rect x="29" y="57.2" transform="matrix(0.9947 0.1031 -0.1031 0.9947 6.1987 -2.7013)" fill="#231F20" width="0.5" height="2.9"/>
<rect x="31.8" y="57.3" fill="#231F20" width="0.5" height="2.9"/>
<rect x="34.6" y="57.2" transform="matrix(0.9945 -0.1051 0.1051 0.9945 -5.9673 3.984)" fill="#231F20" width="0.5" height="2.9"/>
<rect x="37.3" y="56.7" transform="matrix(0.978 -0.2086 0.2086 0.978 -11.306 9.117)" fill="#231F20" width="0.5" height="2.9"/>
<rect x="40" y="56" transform="matrix(0.9511 -0.3089 0.3089 0.9511 -15.7779 15.2558)" fill="#231F20" width="0.5" height="2.9"/>
<rect x="42.7" y="55" transform="matrix(0.9133 -0.4073 0.4073 0.9133 -19.2695 22.3626)" fill="#231F20" width="0.5" height="2.9"/>
<rect x="45.1" y="53.7" transform="matrix(0.8657 -0.5005 0.5005 0.8657 -21.5209 30.1233)" fill="#231F20" width="0.5" height="2.9"/>
<rect x="47.5" y="52.2" transform="matrix(0.8107 -0.5854 0.5854 0.8107 -22.374 38.0997)" fill="#231F20" width="0.5" height="2.9"/>
<rect x="49.7" y="50.4" transform="matrix(0.7434 -0.6689 0.6689 0.7434 -21.9003 46.6981)" fill="#231F20" width="0.5" height="2.9"/>
<rect x="51.6" y="48.5" transform="matrix(0.671 -0.7415 0.7415 0.671 -19.9363 54.8981)" fill="#231F20" width="0.5" height="2.9"/>
<rect x="53.4" y="46.3" transform="matrix(0.589 -0.8081 0.8081 0.589 -16.5283 62.9762)" fill="#231F20" width="0.5" height="2.9"/>
<polygon fill="#231F20" points="54,44.5 53.8,44.9 56.3,46.3 56.6,45.9 "/>
<rect x="56.2" y="41.4" transform="matrix(0.4089 -0.9126 0.9126 0.4089 -5.7849 76.8653)" fill="#231F20" width="0.5" height="2.9"/>
<rect x="57.2" y="38.8" transform="matrix(0.312 -0.9501 0.9501 0.312 1.2494 82.2975)" fill="#231F20" width="0.5" height="2.9"/>
<rect x="57.9" y="36.1" transform="matrix(0.2112 -0.9774 0.9774 0.2112 9.1523 86.5068)" fill="#231F20" width="0.5" height="2.9"/>
<rect x="58.4" y="33.4" transform="matrix(0.1089 -0.9941 0.9941 0.1089 17.6168 89.2905)" fill="#231F20" width="0.5" height="2.9"/>
<rect x="57.3" y="31.8" fill="#231F20" width="2.9" height="0.5"/>
<rect x="58.4" y="27.8" transform="matrix(-0.1007 -0.9949 0.9949 -0.1007 35.4311 90.4879)" fill="#231F20" width="0.5" height="2.9"/>
<rect x="57.9" y="25" transform="matrix(-0.2054 -0.9787 0.9787 -0.2054 44.2204 88.8365)" fill="#231F20" width="0.5" height="2.9"/>
<rect x="57.2" y="22.3" transform="matrix(-0.3041 -0.9526 0.9526 -0.3041 52.282 85.7194)" fill="#231F20" width="0.5" height="2.9"/>
<rect x="56.2" y="19.7" transform="matrix(-0.4048 -0.9144 0.9144 -0.4048 59.957 81.3292)" fill="#231F20" width="0.5" height="2.9"/>
<rect x="54.9" y="17.2" transform="matrix(-0.4957 -0.8685 0.8685 -0.4957 66.3244 75.8281)" fill="#231F20" width="0.5" height="2.9"/>
<rect x="53.4" y="14.9" transform="matrix(-0.5854 -0.8107 0.8107 -0.5854 71.8382 69.3579)" fill="#231F20" width="0.5" height="2.9"/>
<rect x="51.6" y="12.7" transform="matrix(-0.6657 -0.7462 0.7462 -0.6657 75.8906 62.2676)" fill="#231F20" width="0.5" height="2.9"/>
<rect x="49.7" y="10.7" transform="matrix(-0.7414 -0.6711 0.6711 -0.7414 78.7599 54.6657)" fill="#231F20" width="0.5" height="2.9"/>
<rect x="47.5" y="8.9" transform="matrix(-0.8072 -0.5903 0.5903 -0.8072 80.1331 46.9687)" fill="#231F20" width="0.5" height="2.9"/>
<polygon fill="#231F20" points="44.5,10 44.9,10.3 46.3,7.7 45.9,7.5 "/>
<rect x="42.7" y="6.1" transform="matrix(-0.9125 -0.4091 0.4091 -0.9125 78.9336 32.0884)" fill="#231F20" width="0.5" height="2.9"/>
<rect x="40" y="5.1" transform="matrix(-0.9503 -0.3114 0.3114 -0.9503 76.5151 25.4155)" fill="#231F20" width="0.5" height="2.9"/>
<rect x="37.3" y="4.4" transform="matrix(-0.9779 -0.2088 0.2088 -0.9779 73.1114 19.4686)" fill="#231F20" width="0.5" height="2.9"/>
<rect x="34.6" y="4" transform="matrix(-0.9943 -0.1065 0.1065 -0.9943 68.863 14.5491)" fill="#231F20" width="0.5" height="2.9"/>
<rect x="31.2" y="3.8" fill="#231F20" width="1.7" height="5.2"/>
<rect x="18.4" y="7.3" transform="matrix(0.8661 -0.4998 0.4998 0.8661 -2.3581 10.9441)" fill="#231F20" width="1.7" height="5.2"/>
<rect x="9" y="16.6" transform="matrix(0.5002 -0.8659 0.8659 0.5002 -11.7058 18.1721)" fill="#231F20" width="1.7" height="5.2"/>
<rect x="3.8" y="31.2" fill="#231F20" width="5.2" height="1.7"/>
<rect x="9" y="42.2" transform="matrix(-0.5002 -0.8659 0.8659 -0.5002 -23.9749 75.751)" fill="#231F20" width="1.7" height="5.2"/>
<rect x="18.4" y="51.5" transform="matrix(-0.8659 -0.5002 0.5002 -0.8659 8.7838 110.6712)" fill="#231F20" width="1.7" height="5.2"/>
<rect x="31.2" y="55" fill="#231F20" width="1.7" height="5.2"/>
<rect x="43.9" y="51.6" transform="matrix(-0.8663 0.4995 -0.4995 -0.8663 110.6612 78.7266)" fill="#231F20" width="1.7" height="5.2"/>
<rect x="53.3" y="42.2" transform="matrix(-0.5002 0.8659 -0.8659 -0.5002 120.0602 20.3451)" fill="#231F20" width="1.7" height="5.2"/>
<rect x="55" y="31.2" fill="#231F20" width="5.2" height="1.7"/>
<rect x="53.3" y="16.6" transform="matrix(0.4997 0.8662 -0.8662 0.4997 43.7792 -37.293)" fill="#231F20" width="1.7" height="5.2"/>
<rect x="44" y="7.3" transform="matrix(0.866 0.5 -0.5 0.866 10.9482 -21.0847)" fill="#231F20" width="1.7" height="5.2"/>
<path fill="#D3D2D2" d="M34.3,32c0,1.3-1,2.3-2.3,2.3c-1.3,0-2.3-1-2.3-2.3s1-2.3,2.3-2.3C33.3,29.7,34.3,30.7,34.3,32"/>
<line fill="none" stroke="#231F20" stroke-width="2.183" stroke-miterlimit="10" x1="48.2" y1="15.8" x2="32" y2="32"/>
<line fill="none" stroke="#231F20" stroke-width="0.728" stroke-miterlimit="10" x1="32" y1="32" x2="9.9" y2="32"/>
<path fill="#A82526" d="M31.8,30.5l-9.9-17.2c0.7-0.7,0.8-1.7,0.3-2.6c-0.6-1-1.9-1.4-2.9-0.8s-1.4,1.9-0.8,2.9
	c0.5,0.9,1.5,1.2,2.4,1L30.8,31c-0.4,0.5-0.5,1.2-0.2,1.8c0.3,0.6,1,0.9,1.6,0.8l2.7,4.7l0.9-0.5L33.2,33c0.4-0.5,0.5-1.2,0.2-1.8
	S32.4,30.3,31.8,30.5"/>
<path fill="#918F90" d="M33,32c0,0.5-0.4,1-1,1c-0.5,0-1-0.4-1-1s0.4-1,1-1C32.5,31.1,33,31.5,33,32"/>
<g>
	<g>
		<defs>
			<rect id="SVGID_5_" x="30.8" y="31.7" width="2.4" height="1.5"/>
		</defs>
		<clipPath id="SVGID_6_">
			<use xlink:href="#SVGID_5_"  overflow="visible"/>
		</clipPath>
		<path clip-path="url(#SVGID_6_)" fill="#918F90" d="M32.7,32c0,0.4-0.3,0.7-0.7,0.7c-0.4,0-0.7-0.3-0.7-0.7c0,0,0,0,0-0.1
			c-0.2,0-0.3-0.1-0.5-0.2c0,0.1,0,0.1,0,0.2c0,0.7,0.5,1.2,1.2,1.2c0.7,0,1.2-0.5,1.2-1.2c0-0.1,0-0.2-0.1-0.3
			C33,31.8,32.9,31.9,32.7,32C32.7,32,32.7,32,32.7,32"/>
	</g>
</g>
<g>
	<g>
		<defs>
			<rect id="SVGID_7_" x="30.8" y="30.8" width="2.3" height="1.1"/>
		</defs>
		<clipPath id="SVGID_8_">
			<use xlink:href="#SVGID_7_"  overflow="visible"/>
		</clipPath>
		<path clip-path="url(#SVGID_8_)" fill="#918F90" d="M32,30.8c-0.6,0-1.1,0.4-1.2,1c0.1,0.1,0.3,0.1,0.5,0.2c0-0.4,0.3-0.6,0.7-0.6
			c0.4,0,0.6,0.3,0.7,0.6c0.2,0,0.3-0.1,0.5-0.2C33,31.2,32.6,30.8,32,30.8"/>
	</g>
</g>
</svg>
