<?xml version="1.0" encoding="utf-8"?>
<!-- Generator: Adobe Illustrator 15.0.2, SVG Export Plug-In . SVG Version: 6.00 Build 0)  -->
<!DOCTYPE svg PUBLIC "-//W3C//DTD SVG 1.1//EN" "http://www.w3.org/Graphics/SVG/1.1/DTD/svg11.dtd">
<svg version="1.1" id="Layer_1" xmlns="http://www.w3.org/2000/svg" xmlns:xlink="http://www.w3.org/1999/xlink" x="0px" y="0px"
	 width="69.2px" height="35.7px" viewBox="0 0 69.2 35.7" enable-background="new 0 0 69.2 35.7" xml:space="preserve">
<path fill="#EDEDED" d="M43.9,16.4c0,0.1,0.1,0.2,0.1,0.3c0.1,0.1,0.1,0.2,0.2,0.3c0.1,0.2,0.3,0.4,0.5,0.5c0.3,0.3,0.7,0.7,1.1,1
	c0.4,0.3,0.8,0.6,1.2,0.9l0.6,0.5l0.6,0.4l-0.2-0.1c0.3,0.1,0.8,0.2,1.3,0.1c0.5-0.1,1-0.2,1.6-0.5c0.5-0.2,1-0.5,1.4-0.8
	c0.2-0.2,0.4-0.3,0.5-0.5c0.2-0.2,0.3-0.3,0.3-0.4l0.8-1.4l1.2,0.8c0.7,0.5,1.4,1,2.1,1.4c0.7,0.4,1.4,0.8,2.2,1
	c0.4,0.1,0.8,0.2,1.2,0.2c0.2,0,0.4,0,0.6,0c0.2,0,0.4-0.1,0.6-0.1c0.8-0.2,1.6-0.6,2.2-1.2c0.6-0.6,1.1-1.3,1.5-2
	c0.2-0.4,0.3-0.8,0.5-1.2c0.1-0.4,0.2-0.8,0.3-1.2c0.2-0.8,0.3-1.7,0.3-2.5c0-0.8,0-1.7-0.1-2.5c-0.1-0.8-0.2-1.6-0.5-2.3
	c-0.3-0.7-0.6-1.3-1.1-1.8c-0.4-0.5-0.9-0.9-1.5-1.1c-0.6-0.3-1.2-0.4-1.9-0.4c-0.8,0-1.6,0-2.3,0.2c-0.7,0.1-1.3,0.4-1.8,0.8
	c-0.3,0.2-0.6,0.6-0.9,0.8c-0.2,0.2-0.3,0.3-0.5,0.5c-0.2,0.2-0.4,0.4-0.9,0.6c-0.3,0.1-0.6,0.1-0.8,0.1c-0.2,0-0.4-0.1-0.5-0.1
	c-0.3-0.1-0.5-0.2-0.7-0.3c-0.4-0.2-0.8-0.4-1.2-0.6l0.1,0c0,0-0.1,0-0.2,0l-0.2,0c-0.1,0-0.3,0-0.4,0c-0.3,0-0.5,0-0.7,0.1
	C50.2,6,50,6.1,49.9,6.2c-0.2,0.2-0.3,0.4-0.3,0.7h-0.3c-0.1-0.3,0-0.7,0.1-1c0.2-0.3,0.4-0.6,0.7-0.8c0.3-0.2,0.6-0.3,1-0.4
	c0.2,0,0.3-0.1,0.5-0.1l0.3,0c0.1,0,0.2,0,0.3,0l0.1,0c0.5,0.1,0.9,0.1,1.4,0.2c0.2,0,0.4,0.1,0.6,0.1c0.1,0,0.1,0,0.1,0
	c0,0-0.1,0-0.1,0c-0.1,0,0-0.1,0.1-0.2l0.4-0.5c0.3-0.4,0.5-0.7,0.9-1.1c0.7-0.9,1.8-1.5,2.8-1.8c1.1-0.4,2.1-0.5,3.1-0.5
	c1-0.1,2.3,0.1,3.3,0.6c1.1,0.5,2,1.3,2.7,2.2c0.7,0.9,1.1,1.9,1.4,2.9c0.3,1,0.4,2,0.4,3c0,1-0.2,2-0.4,2.9c-0.2,0.9-0.6,1.8-1,2.7
	c-0.4,0.9-0.9,1.7-1.4,2.5c-0.5,0.8-1.2,1.5-1.9,2.1c-0.7,0.6-1.6,1.1-2.5,1.5c-0.2,0.1-0.5,0.2-0.7,0.2c-0.2,0.1-0.5,0.1-0.7,0.2
	c-0.5,0.1-1,0.1-1.5,0.2c-1,0.1-2.1-0.1-3-0.4c-1-0.3-1.8-0.8-2.6-1.3l2-0.6c-0.2,0.5-0.5,0.9-0.8,1.2c-0.3,0.3-0.6,0.6-1,0.8
	c-0.7,0.5-1.4,0.8-2.1,1.1c-0.7,0.3-1.5,0.4-2.3,0.4c-0.4,0-0.8,0-1.3-0.1c-0.4-0.1-0.9-0.3-1.3-0.5l-0.1-0.1l0,0
	c-0.2-0.2-0.4-0.4-0.5-0.6c-0.2-0.2-0.3-0.4-0.5-0.6c-0.3-0.4-0.6-0.9-0.9-1.3c-0.3-0.5-0.6-0.9-0.8-1.4c-0.1-0.3-0.2-0.5-0.3-0.8
	c0-0.1-0.1-0.3-0.1-0.4c0-0.2,0-0.3,0-0.4L43.9,16.4z"/>
<path fill="#D3D2D2" d="M60.5,20.1c-0.2,0-0.4,0-0.6,0C60.1,20.1,60.3,20.1,60.5,20.1"/>
<path fill="#D3D2D2" d="M61.3,20.1L61.3,20.1L61.3,20.1z"/>
<path fill="#D3D2D2" d="M59.8,20.1c0,0-0.1,0-0.1,0C59.7,20,59.8,20,59.8,20.1"/>
<path fill="#D3D2D2" d="M66.2,14.4c-0.1,0.4-0.2,0.8-0.3,1.2c-0.1,0.4-0.3,0.8-0.5,1.2c-0.4,0.8-0.9,1.5-1.5,2c-0.5,0.4-1,0.7-1.6,1
	c3.2-1.1,5-5.1,5-9.2c0-4.8-1.9-7.9-5.9-7.9c-2.4,0-4,1.5-4.9,2.8c0.3-0.3,0.5-0.5,0.8-0.7c0.5-0.4,1.1-0.7,1.8-0.8
	c0.7-0.1,1.4-0.2,2.3-0.2c0.8,0,1.4,0.2,1.9,0.4c0.6,0.3,1.1,0.6,1.5,1.1c0.4,0.5,0.8,1.1,1.1,1.8c0.3,0.7,0.4,1.5,0.5,2.3
	c0.1,0.8,0.1,1.6,0.1,2.5C66.5,12.7,66.4,13.6,66.2,14.4"/>
<path fill="#D3D2D2" d="M61.9,19.9c0.1,0,0.2-0.1,0.3-0.1C62.1,19.9,62,19.9,61.9,19.9"/>
<path fill="#E0E0E0" d="M47.9,20.3L47.5,20l-0.6-0.5c-0.4-0.3-0.8-0.6-1.2-0.9c-0.4-0.3-0.7-0.7-1.1-1c-0.2-0.2-0.3-0.4-0.5-0.5l0,0
	l-0.3,1.2c0.2,0.5,0.5,0.9,0.7,1.4c0.3,0.5,0.6,0.9,0.9,1.3c0.2,0.2,0.3,0.4,0.5,0.6c0.2,0.2,0.3,0.4,0.5,0.6l0,0l0.1,0.1
	c0.1,0.1,0.2,0.1,0.3,0.2l1.5-2C48.4,20.4,48.1,20.3,47.9,20.3"/>
<path fill="#E0E0E0" d="M52.2,4.5l-0.1,0c-0.1,0-0.2,0-0.3,0l-0.3,0c-0.2,0-0.3,0.1-0.5,0.1c-0.3,0.1-0.7,0.2-1,0.4
	c-0.3,0.2-0.6,0.5-0.7,0.8c-0.2,0.3-0.2,0.7-0.1,1h0.3c0.1-0.3,0.2-0.5,0.3-0.7C50,6.1,50.2,6,50.5,5.9c0.2-0.1,0.5-0.1,0.7-0.1
	c0.1,0,0.3,0,0.4,0l0.2,0c0.1,0,0.1,0,0.2,0l-0.1,0c0.4,0.2,0.7,0.3,1.1,0.5l0.3-1.7C52.9,4.6,52.5,4.6,52.2,4.5"/>
<path fill="#EDEDED" d="M54.7,0H33h-0.9H10.5c0,0-0.4,0.2-0.4,0.5s0.4,0.4,0.4,0.4s1.7,0.5,2.2,2c0.4,1.5,0.9,16.8,9.9,22.6
	c0,0,3,2.5,3,6.1c0.1,0.8-1.2,1.4-1.2,1.4h8.3h8.3c0,0-1.3-0.6-1.2-1.4c0-3.6,3-6.1,3-6.1c9.1-5.8,9.5-21.1,9.9-22.6
	c0.4-1.5,2.2-2,2.2-2s0.4-0.1,0.4-0.4S54.7,0,54.7,0"/>
<g>
	<g>
		<defs>
			<rect id="SVGID_1_" x="25.8" y="29" width="13.6" height="1"/>
		</defs>
		<clipPath id="SVGID_2_">
			<use xlink:href="#SVGID_1_"  overflow="visible"/>
		</clipPath>
		<path clip-path="url(#SVGID_2_)" fill="#C4C4C4" d="M25.8,29c0,0,3.4,0,6.8-0.1c3.4,0,6.8,0.1,6.8,0.1v0.1c0,0-0.9,0.3-2.1,0.5
			c-0.6,0.1-1.4,0.2-2.2,0.3c-0.4,0-0.8,0.1-1.2,0.1c-0.4,0-0.8,0-1.3,0c-0.4,0-0.9,0-1.3,0c-0.4,0-0.8-0.1-1.2-0.1
			c-0.8-0.1-1.5-0.2-2.2-0.3c-1.3-0.2-2.1-0.5-2.1-0.5V29z"/>
	</g>
</g>
<g>
	<g>
		<defs>
			<rect id="SVGID_3_" x="12.1" y="2.2" width="41" height="6"/>
		</defs>
		<clipPath id="SVGID_4_">
			<use xlink:href="#SVGID_3_"  overflow="visible"/>
		</clipPath>
		<path clip-path="url(#SVGID_4_)" fill="#1498C3" d="M13.4,8.2h38.5c0.4-2.6,0.6-4.5,0.7-5c0.1-0.4,0.3-0.7,0.6-1h-41
			c0.2,0.3,0.5,0.6,0.6,1C12.8,3.7,12.9,5.6,13.4,8.2"/>
	</g>
</g>
<g>
	<g>
		<defs>
			<rect id="SVGID_5_" x="13.4" y="8.2" width="38.5" height="1.5"/>
		</defs>
		<clipPath id="SVGID_6_">
			<use xlink:href="#SVGID_5_"  overflow="visible"/>
		</clipPath>
		<path clip-path="url(#SVGID_6_)" fill="#B69C5B" d="M51.8,8.2H13.4c0.1,0.5,0.2,1,0.3,1.5h37.9C51.7,9.2,51.8,8.7,51.8,8.2"/>
	</g>
</g>
<g>
	<g>
		<defs>
			<rect id="SVGID_7_" x="14" y="11.3" width="37.2" height="0.6"/>
		</defs>
		<clipPath id="SVGID_8_">
			<use xlink:href="#SVGID_7_"  overflow="visible"/>
		</clipPath>
		<path clip-path="url(#SVGID_8_)" fill="#B69C5B" d="M14.1,11.9h36.9c0-0.2,0.1-0.4,0.1-0.6H14C14,11.5,14.1,11.7,14.1,11.9"/>
	</g>
</g>
<path fill="#B69C5B" d="M51.2,3h-2h-0.3h-2.3h-0.3h-2h-0.3h-2.3h-0.3h-2h-0.3h-2.3h-0.3h-2h-0.3h-2.3h-0.3h-2h-0.3h-2.3h-0.3h-2
	h-0.3h-2.3h-0.3h-2h-0.3h-2.3H16h-2h-1.4c0,0.1,0,0.1,0.1,0.2c0,0.1,0.1,0.2,0.1,0.5h1.8l0.1,0.1l-0.7,0.8h-1.1c0,0.1,0,0.2,0,0.3
	l0.4,0.4L13,5.5c0,0.1,0,0.3,0.1,0.4h0.9l0.7,0.8l-0.1,0.1h-1.4c0,0.2,0.1,0.4,0.1,0.6H14h2h0.3h2.3H19h2h0.3h2.3H24h2h0.3h2.3h0.3
	h2h0.3h2.3h0.3h2h0.3h2.3h0.3h2h0.3h2.3h0.3h2h0.3h2.3h0.3h2H52c0-0.2,0.1-0.4,0.1-0.6h-1.4l-0.1-0.1l0.7-0.8h0.9c0-0.1,0-0.3,0-0.4
	l-0.3-0.3l0.4-0.4c0-0.1,0-0.2,0-0.3h-1.1l-0.7-0.8l0.1-0.1h1.8c0-0.2,0.1-0.4,0.1-0.5c0-0.1,0-0.1,0.1-0.2H51.2z M50.2,4.2l0.3,0.3
	H50L50.2,4.2z M45.2,4.2l0.3,0.3h-0.5L45.2,4.2z M46,5.1l0.1,0.1L46,5.3h-1.6l-0.1-0.1l0.1-0.1H46z M40.2,4.2l0.3,0.3h-0.5L40.2,4.2
	z M41,5.1l0.1,0.1L41,5.3h-1.6l-0.1-0.1l0.1-0.1H41z M35.1,4.2l0.3,0.3h-0.5L35.1,4.2z M35.9,5.1L36,5.2l-0.1,0.1h-1.6l-0.1-0.1
	l0.1-0.1H35.9z M30.1,4.2l0.3,0.3h-0.5L30.1,4.2z M30.9,5.1L31,5.2l-0.1,0.1h-1.6l-0.1-0.1l0.1-0.1H30.9z M25.1,4.2l0.3,0.3h-0.5
	L25.1,4.2z M25.9,5.1L26,5.2l-0.1,0.1h-1.6l-0.1-0.1l0.1-0.1H25.9z M20,4.2l0.3,0.3h-0.5L20,4.2z M20.8,5.1l0.1,0.1l-0.1,0.1h-1.6
	l-0.1-0.1l0.1-0.1H20.8z M15,4.2l0.3,0.3h-0.5L15,4.2z M14.2,5.3l-0.1-0.1l0.1-0.1h1.6l0.1,0.1l-0.1,0.1H14.2z M15,6.2l-0.3-0.3h0.5
	L15,6.2z M19.6,6.7h-0.9h-2.3h-0.9l-0.1-0.1l0.7-0.8h1.3l-0.6-0.7l0.6-0.7h-1.3l-0.7-0.8l0.1-0.1h0.9h2.3h0.9l0.1,0.1l-0.7,0.8h-1.3
	l0.6,0.7l-0.6,0.7h1.3L19.6,6.7L19.6,6.7z M20,6.2l-0.3-0.3h0.5L20,6.2z M24.6,6.7h-0.9h-2.3h-0.9l-0.1-0.1l0.7-0.8h1.3l-0.6-0.7
	l0.6-0.7h-1.3l-0.7-0.8l0.1-0.1h0.9h2.3h0.9l0.1,0.1L24,4.5h-1.3l0.6,0.7l-0.6,0.7H24L24.6,6.7L24.6,6.7z M25.1,6.2l-0.3-0.3h0.5
	L25.1,6.2z M29.6,6.7h-0.9h-2.3h-0.9l-0.1-0.1l0.7-0.8h1.3l-0.6-0.7l0.6-0.7h-1.3l-0.7-0.8l0.1-0.1h0.9h2.3h0.9l0.1,0.1L29,4.5h-1.3
	l0.6,0.7l-0.6,0.7H29L29.6,6.7L29.6,6.7z M30.1,6.2l-0.3-0.3h0.5L30.1,6.2z M34.7,6.7h-0.9h-2.3h-0.9l-0.1-0.1l0.7-0.8h1.3l-0.6-0.7
	l0.6-0.7h-1.3l-0.7-0.8l0.1-0.1h0.9h2.3h0.9l0.1,0.1L34,4.5h-1.3l0.6,0.7l-0.6,0.7H34L34.7,6.7L34.7,6.7z M35.1,6.2l-0.3-0.3h0.5
	L35.1,6.2z M39.7,6.7h-0.9h-2.3h-0.9l-0.1-0.1l0.7-0.8h1.3l-0.6-0.7l0.6-0.7h-1.3l-0.7-0.8l0.1-0.1h0.9h2.3h0.9l0.1,0.1l-0.7,0.8
	h-1.3l0.6,0.7l-0.6,0.7h1.3L39.7,6.7L39.7,6.7z M40.2,6.2l-0.3-0.3h0.5L40.2,6.2z M44.7,6.7h-0.9h-2.3h-0.9l-0.1-0.1l0.7-0.8h1.3
	l-0.6-0.7l0.6-0.7h-1.3l-0.7-0.8l0.1-0.1h0.9h2.3h0.9l0.1,0.1l-0.7,0.8h-1.3l0.6,0.7l-0.6,0.7h1.3L44.7,6.7L44.7,6.7z M45.2,6.2
	l-0.3-0.3h0.5L45.2,6.2z M49.7,6.7h-0.9h-2.3h-0.9l-0.1-0.1l0.7-0.8h1.3l-0.6-0.7l0.6-0.7h-1.3l-0.7-0.8l0.1-0.1h0.9h2.3h0.9
	l0.1,0.1l-0.7,0.8h-1.3l0.6,0.7l-0.6,0.7h1.3L49.7,6.7L49.7,6.7z M50.2,6.2L50,5.9h0.5L50.2,6.2z M51,5.1l0.1,0.1L51,5.3h-1.6
	l-0.1-0.1l0.1-0.1H51z"/>
<g opacity="0.4">
	<g>
		<defs>
			<rect id="SVGID_9_" x="10.1" width="44.9" height="33.1"/>
		</defs>
		<clipPath id="SVGID_10_">
			<use xlink:href="#SVGID_9_"  overflow="visible"/>
		</clipPath>
		<path clip-path="url(#SVGID_10_)" fill="#CECECE" d="M26.8,31.6c0-3.6-2.5-6.1-2.5-6.1C16.8,19.7,16.4,4.4,16,2.9
			c-0.3-1.5-1.8-2-1.8-2S14,0.7,14,0.5S14.3,0,14.3,0h-3.7c0,0-0.4,0.2-0.4,0.5s0.4,0.4,0.4,0.4s1.7,0.5,2.2,2
			c0.4,1.5,0.9,16.8,9.9,22.6c0,0,3,2.5,3,6.1c0,0.8-1.2,1.4-1.2,1.4h1.4C25.7,33.1,26.8,32.4,26.8,31.6"/>
		<path clip-path="url(#SVGID_10_)" fill="#EDEDED" d="M54.7,0h-3.7c0,0,0.3,0.2,0.3,0.5S51,0.9,51,0.9s-1.4,0.5-1.8,2
			c-0.3,1.5-0.7,16.8-8.3,22.6c0,0-2.5,2.5-2.5,6.1c0,0.8,1,1.4,1,1.4h1.4c0,0-1.3-0.6-1.2-1.4c0-3.6,3-6.1,3-6.1
			c9.1-5.8,9.5-21.1,9.9-22.6c0.4-1.5,2.2-2,2.2-2s0.4-0.1,0.4-0.4S54.7,0,54.7,0"/>
		<path clip-path="url(#SVGID_10_)" fill="#E2E2E2" d="M28.5,31.6c0-3.6-1.7-6.1-1.7-6.1c-5.3-5.8-5.6-21.1-5.8-22.6
			c-0.2-1.5-1.3-2-1.3-2s-0.2-0.1-0.2-0.4S19.7,0,19.7,0h-5.4c0,0-0.3,0.2-0.3,0.5s0.3,0.4,0.3,0.4s1.4,0.5,1.8,2
			c0.3,1.5,0.7,16.8,8.3,22.6c0,0,2.5,2.5,2.5,6.1c0,0.8-1,1.4-1,1.4h2C27.8,33.1,28.5,32.4,28.5,31.6"/>
		<path clip-path="url(#SVGID_10_)" fill="#E2E2E2" d="M38.4,31.6c0-3.6,2.5-6.1,2.5-6.1c7.5-5.8,7.9-21.1,8.3-22.6
			c0.3-1.5,1.8-2,1.8-2s0.3-0.1,0.3-0.4S50.9,0,50.9,0h-5.4c0,0,0.2,0.2,0.2,0.5s-0.2,0.4-0.2,0.4s-1,0.5-1.3,2
			c-0.2,1.5-0.5,16.8-5.8,22.6c0,0-1.7,2.5-1.7,6.1c0,0.8,0.7,1.4,0.7,1.4h2C39.5,33.1,38.4,32.4,38.4,31.6"/>
	</g>
</g>
<path fill="#EDEDED" d="M33.1,31.9h-1H0c0,0,17.1,1.5,18.3,2.4c1.1,0.9,3.9,1.4,3.9,1.4h10h1h10c0,0,2.7-0.5,3.9-1.4
	c1.1-0.9,18.3-2.4,18.3-2.4H33.1z"/>
<path fill="#DEDDDE" d="M18.7,33.8h28v0.1c0,0-0.4,0-1.2,0.1c-0.8,0-1.9,0.1-3.2,0.2c-1.3,0-2.8,0.1-4.5,0.1c-1.6,0-3.4,0-5.1,0.1
	c-1.8,0-3.5,0-5.1-0.1c-1.6,0-3.2-0.1-4.5-0.1c-1.3,0-2.4-0.1-3.2-0.2C19.2,33.9,18.7,33.9,18.7,33.8L18.7,33.8z"/>
</svg>
