<?xml version="1.0" encoding="utf-8"?>
<!-- Generator: Adobe Illustrator 15.0.2, SVG Export Plug-In . SVG Version: 6.00 Build 0)  -->
<!DOCTYPE svg PUBLIC "-//W3C//DTD SVG 1.1//EN" "http://www.w3.org/Graphics/SVG/1.1/DTD/svg11.dtd">
<svg version="1.1" id="Layer_1" xmlns="http://www.w3.org/2000/svg" xmlns:xlink="http://www.w3.org/1999/xlink" x="0px" y="0px"
	 width="68.8px" height="48.2px" viewBox="0 0 68.8 48.2" enable-background="new 0 0 68.8 48.2" xml:space="preserve">
<path fill="#BC373C" d="M18.6,32.1c-2,2.6-5.7,3.2-8.7,2.1C6.3,33,4.6,30,4,26.5c-0.4-2.2-0.8-4.3-0.9-6.5c-0.1-2.4,0.4-7-2.1-8.2
	c-3.3-1.7,2.6-2.2,3.9-1.3c2.3,1.7,3.7,5.4,4.9,7.8c0.7,1.3,1.3,2.7,2.2,3.9c0.8,1.1,2.4,1.8,2.9,3.1c0.5,1.6,1.3,2.9,2.4,4.2
	C17.8,30.1,19.3,31.2,18.6,32.1C18.4,32.3,18.8,31.8,18.6,32.1"/>
<path fill="#872237" d="M4.2,10.4c0,0.1-0.8,0.3-1.9,0.3c-1,0-1.9,0-1.9-0.2c0-0.1,0.8-0.3,1.9-0.3C3.3,10.2,4.2,10.2,4.2,10.4"/>
<path fill="#DA9093" d="M4.7,11.2c0.8,1,1.6,2,2.3,3.1c0.7,1.1,1.2,2.3,1.8,3.4c0.6,1.2,1.1,2.3,1.8,3.4c0.3,0.6,0.7,1.1,1,1.6
	c0.4,0.5,0.8,1,1.3,1.4c-1.1-0.6-1.8-1.8-2.5-2.9c-0.7-1.1-1.3-2.2-1.9-3.4c-0.6-1.2-1-2.4-1.7-3.4C6.2,13.3,5.5,12.2,4.7,11.2"/>
<g>
	<g>
		<defs>
			<rect id="SVGID_1_" x="4.7" y="26.8" width="12.9" height="7.1"/>
		</defs>
		<clipPath id="SVGID_2_">
			<use xlink:href="#SVGID_1_"  overflow="visible"/>
		</clipPath>
		<path clip-path="url(#SVGID_2_)" fill="#BC373C" d="M4.7,26.8c0.5,1.3,1.1,2.6,1.9,3.7c0.8,1.1,1.8,2.1,3.1,2.6
			c1.3,0.6,2.7,0.6,4,0.3c1.3-0.3,2.6-1,3.8-1.7c-1.1,0.8-2.4,1.6-3.7,1.9c-1.4,0.4-2.9,0.3-4.2-0.2c-1.3-0.6-2.4-1.6-3.2-2.8
			C5.7,29.5,5.1,28.2,4.7,26.8"/>
	</g>
</g>
<path fill="#B52126" d="M51.2,40.2c0,4.4-7.3,8-16.3,8c-9,0-16.3-3.6-16.3-8s7.3-8,16.3-8C43.9,32.3,51.2,35.8,51.2,40.2"/>
<path fill="#872237" d="M51.2,39.2c0,4.4-7.3,8-16.3,8c-9,0-16.3-3.6-16.3-8s7.3-8,16.3-8C43.9,31.2,51.2,34.8,51.2,39.2"/>
<path fill="#B52126" d="M57,28.7c0,12.5-9.9,17.5-22.1,17.5c-12.2,0-22.1-5-22.1-17.5C12.8,16.2,22.7,6,34.9,6
	C47.1,6,57,16.2,57,28.7"/>
<path fill="#B52126" d="M24,7.4c0-1.7,4.9-3.1,10.9-3.1c6,0,10.9,1.4,10.9,3.1v1.4c0,1.7-4.9,3.1-10.9,3.1c-6,0-10.9-1.4-10.9-3.1
	V7.4z"/>
<path fill="#872237" d="M44.2,6.6c0,1.1-4.2,2-9.3,2c-5.2,0-9.3-0.9-9.3-2s4.2-2,9.3-2C40,4.6,44.2,5.5,44.2,6.6"/>
<g>
	<g>
		<defs>
			<rect id="SVGID_3_" x="25.6" y="4.6" width="18.6" height="3.9"/>
		</defs>
		<clipPath id="SVGID_4_">
			<use xlink:href="#SVGID_3_"  overflow="visible"/>
		</clipPath>
		<path clip-path="url(#SVGID_4_)" fill="#E7D3D7" d="M44,7c0.1-0.1,0.2-0.3,0.2-0.4c0-1.1-4.2-2-9.3-2c-5.2,0-9.3,0.9-9.3,2
			c0,0.1,0.1,0.3,0.2,0.4c0.9-0.9,4.6-1.5,9.1-1.5C39.3,5.5,43.1,6.2,44,7"/>
		<path clip-path="url(#SVGID_4_)" fill="#A7A5A6" d="M34.9,6.3c3.8,0,7,0.5,8.5,1.1C43.6,7.3,43.9,7.2,44,7
			c-0.9-0.9-4.6-1.5-9.1-1.5c-4.5,0-8.2,0.7-9.1,1.5c0.1,0.1,0.4,0.3,0.6,0.4C27.9,6.7,31.1,6.3,34.9,6.3"/>
		<path clip-path="url(#SVGID_4_)" fill="#7B7979" d="M26.4,7.4c0.4,0.2,1,0.4,1.6,0.5c1.7-0.4,4.1-0.6,6.8-0.6
			c2.7,0,5.1,0.2,6.8,0.6c0.7-0.2,1.2-0.3,1.6-0.5c-1.5-0.7-4.7-1.1-8.5-1.1C31.1,6.3,27.9,6.7,26.4,7.4"/>
		<path clip-path="url(#SVGID_4_)" fill="#231F20" d="M28.1,7.9c1.7,0.4,4.1,0.6,6.8,0.6c2.7,0,5.1-0.2,6.8-0.6
			c-1.7-0.4-4.1-0.6-6.8-0.6C32.2,7.3,29.8,7.6,28.1,7.9"/>
	</g>
</g>
<path fill="#DCA8A8" d="M34.9,9.6c-5.6,0-10.2-0.9-10.4-2.1c0,0,0,0.1,0,0.1c0,1.2,4.7,2.2,10.4,2.2c5.8,0,10.4-1,10.4-2.2
	c0,0,0-0.1,0-0.1C45.1,8.7,40.5,9.6,34.9,9.6"/>
<path fill="#DA9093" d="M40.2,9.3c0.1,0.7,0.1,1.5,0.1,2.2l-0.1-0.1c1.5,1,2.8,2.2,3.9,3.6c1.1,1.4,2.1,2.9,2.8,4.6
	c0.7,1.6,1.3,3.3,1.6,5.1c0.3,1.7,0.5,3.5,0.4,5.3c-0.2-1.8-0.4-3.5-0.8-5.2c-0.4-1.7-1-3.4-1.7-4.9c-0.7-1.6-1.6-3.1-2.7-4.5
	c-1.1-1.4-2.2-2.7-3.6-3.8l-0.1,0l0-0.1C40.1,10.8,40.2,10.1,40.2,9.3"/>
<g>
	<g>
		<defs>
			<rect id="SVGID_5_" x="47.5" y="12" width="4.5" height="4.8"/>
		</defs>
		<clipPath id="SVGID_6_">
			<use xlink:href="#SVGID_5_"  overflow="visible"/>
		</clipPath>
		<path clip-path="url(#SVGID_6_)" fill="#C44E51" d="M52.1,14.4c0,1.3-1,2.4-2.3,2.4c-1.3,0-2.3-1.1-2.3-2.4c0-1.3,1-2.4,2.3-2.4
			C51.1,12,52.1,13,52.1,14.4"/>
	</g>
</g>
<g>
	<g>
		<defs>
			<rect id="SVGID_7_" x="50.8" y="32" width="4.5" height="4.8"/>
		</defs>
		<clipPath id="SVGID_8_">
			<use xlink:href="#SVGID_7_"  overflow="visible"/>
		</clipPath>
		<path clip-path="url(#SVGID_8_)" fill="#C44E51" d="M55.3,34.4c0,1.3-1,2.4-2.3,2.4c-1.3,0-2.3-1.1-2.3-2.4s1-2.4,2.3-2.4
			C54.3,32,55.3,33.1,55.3,34.4"/>
	</g>
</g>
<path fill="none" stroke="#BC373C" stroke-width="4.405" stroke-linecap="round" stroke-miterlimit="10" d="M49.9,14.2
	c3.4-5.6,15.2-9.1,16.6,0.1c0.7,5-1.6,10.6-5.8,13.4c-1.5,1-9.6,4.4-6.7,7.9"/>
<g>
	<g>
		<defs>
			<rect id="SVGID_9_" x="50.8" y="7.1" width="15.8" height="3.8"/>
		</defs>
		<clipPath id="SVGID_10_">
			<use xlink:href="#SVGID_9_"  overflow="visible"/>
		</clipPath>
		<path clip-path="url(#SVGID_10_)" fill="#C44E51" d="M50.8,10.9c1.2-1,2.4-1.8,3.8-2.4c1.4-0.6,2.8-1.1,4.3-1.3
			c1.5-0.2,3.1,0,4.4,0.7c1.4,0.7,2.5,1.8,3.3,3c-0.9-1.2-2-2.2-3.4-2.8c-1.3-0.6-2.8-0.8-4.3-0.6c-1.5,0.2-2.9,0.6-4.2,1.2
			C53.3,9.3,52,10.1,50.8,10.9"/>
	</g>
</g>
<g>
	<g>
		<defs>
			<rect id="SVGID_11_" x="57.8" y="14" width="7.2" height="13.7"/>
		</defs>
		<clipPath id="SVGID_12_">
			<use xlink:href="#SVGID_11_"  overflow="visible"/>
		</clipPath>
		<path clip-path="url(#SVGID_12_)" fill="#BC373C" d="M64.6,14c0.4,1.3,0.5,2.7,0.4,4.1c-0.1,1.4-0.6,2.7-1.2,4
			c-1.3,2.5-3.5,4.4-6,5.6c2.3-1.5,4.4-3.4,5.6-5.8c0.6-1.2,1-2.5,1.3-3.8C64.9,16.7,64.9,15.3,64.6,14"/>
	</g>
</g>
<path fill="#A82526" d="M42.4,4c0-0.9-3.4-1.6-7.5-1.6c-4.1,0-7.5,0.7-7.5,1.6l-1.3,2.6c0,0.1,0.1,0.3,0.2,0.4
	c0.1,0.1,0.3,0.3,0.6,0.4c0.4,0.2,0.9,0.3,1.5,0.5c1.6,0.4,3.9,0.6,6.4,0.6s4.8-0.2,6.4-0.6c0.6-0.1,1.2-0.3,1.5-0.5
	c0.3-0.1,0.5-0.2,0.6-0.4c0.1-0.1,0.2-0.3,0.2-0.4L42.4,4z"/>
<path fill="#A82526" d="M36.8,1.9c0,1-0.8,1.3-1.9,1.3c-1,0-1.9-0.2-1.9-1.3S33.9,0,34.9,0C35.9,0,36.8,0.8,36.8,1.9"/>
<g>
	<g>
		<defs>
			<rect id="SVGID_13_" x="27.9" y="3.9" width="13.9" height="1"/>
		</defs>
		<clipPath id="SVGID_14_">
			<use xlink:href="#SVGID_13_"  overflow="visible"/>
		</clipPath>
		<path clip-path="url(#SVGID_14_)" fill="#A82526" d="M41.8,3.9c-0.1,0.3-0.5,0.3-0.8,0.4c-0.3,0.1-0.6,0.1-0.9,0.2
			c-0.6,0.1-1.2,0.2-1.8,0.2c-1.2,0.1-2.4,0.1-3.6,0.2c-1.2,0-2.4,0-3.6-0.2c-0.6-0.1-1.2-0.1-1.8-0.2c-0.3-0.1-0.6-0.1-0.9-0.2
			c-0.3-0.1-0.6-0.1-0.8-0.4c0,0.1,0.2,0.2,0.3,0.2c0.1,0,0.3,0.1,0.4,0.1c0.3,0.1,0.6,0.1,0.9,0.1c0.6,0.1,1.2,0.1,1.8,0.1
			c1.2,0.1,2.4,0.1,3.5,0.1c1.2,0,2.4,0,3.5-0.1c0.6,0,1.2-0.1,1.8-0.1c0.3,0,0.6-0.1,0.9-0.1c0.1,0,0.3-0.1,0.4-0.1
			C41.6,4.1,41.8,4.1,41.8,3.9"/>
	</g>
</g>
<g>
	<g>
		<defs>
			<rect id="SVGID_15_" x="33.2" y="3" width="3.3" height="0.4"/>
		</defs>
		<clipPath id="SVGID_16_">
			<use xlink:href="#SVGID_15_"  overflow="visible"/>
		</clipPath>
		<path clip-path="url(#SVGID_16_)" fill="#A82526" d="M36.5,3c-0.2,0.2-0.5,0.3-0.8,0.3c-0.3,0-0.6,0.1-0.9,0.1
			c-0.3,0-0.6,0-0.9-0.1c-0.3-0.1-0.6-0.1-0.8-0.3c0.1,0.1,0.3,0.1,0.4,0.1c0.1,0,0.3,0,0.4,0c0.3,0,0.6,0,0.8,0c0.3,0,0.6,0,0.8,0
			c0.1,0,0.3,0,0.4,0C36.3,3.1,36.5,3.1,36.5,3"/>
	</g>
</g>
<g>
	<g>
		<defs>
			<rect id="SVGID_17_" x="33.6" y="2.9" width="2.7" height="0.4"/>
		</defs>
		<clipPath id="SVGID_18_">
			<use xlink:href="#SVGID_17_"  overflow="visible"/>
		</clipPath>
		<path clip-path="url(#SVGID_18_)" fill="#A82526" d="M36.2,2.9c-0.1,0.2-0.4,0.3-0.6,0.3c-0.2,0-0.5,0.1-0.7,0.1
			c-0.2,0-0.5,0-0.7-0.1c-0.2-0.1-0.5-0.1-0.6-0.3C33.6,3,33.8,3,33.9,3c0.1,0,0.2,0,0.3,0c0.2,0,0.5,0,0.7,0c0.2,0,0.5,0,0.7,0
			c0.1,0,0.2,0,0.3,0C36,3,36.2,3,36.2,2.9"/>
	</g>
</g>
<g>
	<g>
		<defs>
			<rect id="SVGID_19_" x="35.2" y="0.2" width="4.5" height="7.5"/>
		</defs>
		<clipPath id="SVGID_20_">
			<use xlink:href="#SVGID_19_"  overflow="visible"/>
		</clipPath>
		<path clip-path="url(#SVGID_20_)" fill="#DA9093" d="M39.7,7.7c-0.3-0.9-0.6-1.8-0.9-2.8L38.8,5c-1-0.5-2.1-1.1-3.1-1.6l-0.1-0.1
			l0.1-0.1c0.2-0.4,0.3-1,0.2-1.5c-0.1-0.5-0.4-1-0.7-1.5c0.4,0.4,0.7,0.9,0.8,1.4c0.2,0.5,0.2,1.2-0.1,1.7l-0.1-0.2
			c1,0.5,2.1,1.1,3.1,1.6l0.1,0l0,0.1C39.2,5.8,39.5,6.7,39.7,7.7"/>
	</g>
</g>
</svg>
