<?xml version="1.0" encoding="utf-8"?>
<!-- Generator: Adobe Illustrator 15.0.2, SVG Export Plug-In . SVG Version: 6.00 Build 0)  -->
<!DOCTYPE svg PUBLIC "-//W3C//DTD SVG 1.1//EN" "http://www.w3.org/Graphics/SVG/1.1/DTD/svg11.dtd">
<svg version="1.1" id="Layer_1" xmlns="http://www.w3.org/2000/svg" xmlns:xlink="http://www.w3.org/1999/xlink" x="0px" y="0px"
	 width="46.9px" height="46.9px" viewBox="0 0 46.9 46.9" enable-background="new 0 0 46.9 46.9" xml:space="preserve">
<path fill="#B3BA88" d="M33.9,2.4C28.2-0.4,21.4-0.9,15,1.6C8.7,4,4,8.9,1.7,14.8c4.5,2.7,8.3,7.2,10.5,13
	c2.2,5.7,2.4,11.6,0.9,16.7c5.7,2.8,12.4,3.3,18.8,0.9c6.4-2.4,11.1-7.4,13.4-13.3c-4.5-2.7-8.3-7.2-10.5-13
	C32.5,13.4,32.4,7.5,33.9,2.4"/>
<g opacity="0.5">
	<g>
		<defs>
			<rect id="SVGID_1_" x="1.7" y="0" width="43.6" height="46.9"/>
		</defs>
		<clipPath id="SVGID_2_">
			<use xlink:href="#SVGID_1_"  overflow="visible"/>
		</clipPath>
		<path clip-path="url(#SVGID_2_)" fill="#EFDD85" d="M33.9,2.4C28.2-0.4,21.4-0.9,15,1.6C8.7,4,4,8.9,1.7,14.8
			c4.5,2.7,8.3,7.2,10.5,13c2.2,5.7,2.4,11.6,0.9,16.7c5.7,2.8,12.4,3.3,18.8,0.9c6.4-2.4,11.1-7.4,13.4-13.3
			c-4.5-2.7-8.3-7.2-10.5-13C32.5,13.4,32.4,7.5,33.9,2.4"/>
	</g>
</g>
<path fill="#B3BA88" d="M1.7,14.8c-2.1,5.3-2.3,11.3-0.1,17C3.8,37.6,7.9,41.9,13,44.4c1.5-5,1.3-10.9-0.9-16.7
	C9.9,22.1,6.1,17.6,1.7,14.8"/>
<g opacity="0.5">
	<g>
		<defs>
			<rect id="SVGID_3_" x="0" y="14.8" width="14" height="29.6"/>
		</defs>
		<clipPath id="SVGID_4_">
			<use xlink:href="#SVGID_3_"  overflow="visible"/>
		</clipPath>
		<path clip-path="url(#SVGID_4_)" fill="#EFDD85" d="M1.7,14.8c-2.1,5.3-2.3,11.3-0.1,17C3.8,37.6,7.9,41.9,13,44.4
			c1.5-5,1.3-10.9-0.9-16.7C9.9,22.1,6.1,17.6,1.7,14.8"/>
	</g>
</g>
<path fill="#B3BA88" d="M33.9,2.4c-1.5,5-1.3,10.9,0.9,16.7c2.2,5.7,6,10.2,10.5,13c2.1-5.3,2.3-11.3,0.1-17
	C43.1,9.3,38.9,5,33.9,2.4"/>
<g opacity="0.5">
	<g>
		<defs>
			<rect id="SVGID_5_" x="32.9" y="2.4" width="14" height="29.6"/>
		</defs>
		<clipPath id="SVGID_6_">
			<use xlink:href="#SVGID_5_"  overflow="visible"/>
		</clipPath>
		<path clip-path="url(#SVGID_6_)" fill="#EFDD85" d="M33.9,2.4c-1.5,5-1.3,10.9,0.9,16.7c2.2,5.7,6,10.2,10.5,13
			c2.1-5.3,2.3-11.3,0.1-17C43.1,9.3,38.9,5,33.9,2.4"/>
	</g>
</g>
<g opacity="0.5">
	<g>
		<defs>
			<rect id="SVGID_7_" x="0" y="0" width="46.9" height="46.9"/>
		</defs>
		<clipPath id="SVGID_8_">
			<use xlink:href="#SVGID_7_"  overflow="visible"/>
		</clipPath>
		<g opacity="0.8" clip-path="url(#SVGID_8_)">
			<g>
				<defs>
					<rect id="SVGID_9_" x="0" y="0" width="39.3" height="40.6"/>
				</defs>
				<clipPath id="SVGID_10_">
					<use xlink:href="#SVGID_9_"  overflow="visible"/>
				</clipPath>
				<path clip-path="url(#SVGID_10_)" fill="#EFDD85" d="M1.5,26.7C1.4,20.7,3.7,14.5,8.3,9.5C13,4.5,19,1.7,24.9,1.3
					C30.2,1,35.4,2.6,39.4,6.2C34.9,2.1,29.2,0,23.5,0C17.2,0,10.9,2.5,6.2,7.5c-4.6,5-6.7,11.5-6.1,17.8C0.5,31,3,36.5,7.5,40.7
					C3.6,37,1.6,32,1.5,26.7"/>
			</g>
		</g>
		<g opacity="0.8" clip-path="url(#SVGID_8_)">
			<g>
				<defs>
					<rect id="SVGID_11_" x="7.5" y="6.2" width="39.3" height="40.6"/>
				</defs>
				<clipPath id="SVGID_12_">
					<use xlink:href="#SVGID_11_"  overflow="visible"/>
				</clipPath>
				<path clip-path="url(#SVGID_12_)" fill="#EFDD85" d="M45.4,20.2c0.1,5.9-2.2,12.2-6.8,17.2c-4.6,5-10.7,7.8-16.6,8.2
					c-5.3,0.3-10.5-1.3-14.4-4.9c4.5,4.2,10.2,6.2,15.9,6.2c6.3,0,12.6-2.5,17.3-7.5c4.6-5,6.7-11.5,6.1-17.8
					c-0.5-5.7-3-11.2-7.4-15.3C43.3,9.9,45.3,14.9,45.4,20.2"/>
			</g>
		</g>
		<g opacity="0.5" clip-path="url(#SVGID_8_)">
			<g>
				<defs>
					<rect id="SVGID_13_" x="1.5" y="1.3" width="37.8" height="39.4"/>
				</defs>
				<clipPath id="SVGID_14_">
					<use xlink:href="#SVGID_13_"  overflow="visible"/>
				</clipPath>
				<path clip-path="url(#SVGID_14_)" fill="#EFDD85" d="M3.9,28.9c0.6-5.3,3.3-11.1,8-16.1c4.6-5,10.2-8.2,15.5-9.2
					c4.7-0.9,9-0.1,12.1,2.7C35.4,2.6,30.2,1,24.9,1.3C19,1.7,13,4.5,8.3,9.5c-4.6,5-6.9,11.3-6.8,17.2c0.1,5.3,2.1,10.3,6,14
					C4.5,37.9,3.3,33.6,3.9,28.9"/>
			</g>
		</g>
		<g opacity="0.5" clip-path="url(#SVGID_8_)">
			<g>
				<defs>
					<rect id="SVGID_15_" x="7.5" y="6.2" width="37.8" height="39.4"/>
				</defs>
				<clipPath id="SVGID_16_">
					<use xlink:href="#SVGID_15_"  overflow="visible"/>
				</clipPath>
				<path clip-path="url(#SVGID_16_)" fill="#EFDD85" d="M22,45.6c5.9-0.4,12-3.1,16.6-8.2c4.6-5,6.9-11.3,6.8-17.2
					c-0.1-5.3-2.1-10.3-6-14c3,2.8,4.2,7.1,3.6,11.8c-0.6,5.3-3.3,11.1-8,16.1c-4.6,5-10.2,8.2-15.5,9.2c-4.7,0.9-9,0.1-12.1-2.7
					C11.5,44.3,16.7,45.9,22,45.6"/>
			</g>
		</g>
	</g>
</g>
<path fill="#FFFFFF" d="M13.2,27.4c-2.2-5.7-6.1-10.5-11-13.5c0,0-0.1-0.1-0.1-0.1c-0.2,0.3-0.3,0.7-0.4,1c-0.1,0.4-0.3,0.7-0.4,1.1
	c4.3,2.7,7.8,7.1,9.8,12.3c2,5.2,2.3,10.8,0.9,15.7c0.3,0.2,0.7,0.4,1,0.5c0.3,0.2,0.7,0.3,1,0.5c0-0.1,0-0.1,0.1-0.2
	C15.7,39.3,15.4,33.1,13.2,27.4"/>
<path fill="#FFFFFF" d="M45.6,31c-4.3-2.7-7.8-7.1-9.8-12.3c-2-5.2-2.3-10.8-0.9-15.7c-0.3-0.2-0.7-0.4-1-0.5
	c-0.3-0.2-0.7-0.3-1-0.5c0,0,0,0.1-0.1,0.2c-1.6,5.5-1.3,11.6,0.9,17.4c2.2,5.7,6.1,10.5,11,13.5c0,0,0.1,0,0.2,0.1
	c0.2-0.3,0.3-0.7,0.4-1C45.4,31.7,45.5,31.4,45.6,31"/>
<g opacity="0.6">
	<g>
		<defs>
			<rect id="SVGID_17_" x="0.1" y="0.1" width="46.7" height="46.7"/>
		</defs>
		<clipPath id="SVGID_18_">
			<use xlink:href="#SVGID_17_"  overflow="visible"/>
		</clipPath>
		<g clip-path="url(#SVGID_18_)">
			<g>
				<defs>
					<rect id="SVGID_19_" x="0.1" y="0.1" width="46.7" height="46.7"/>
				</defs>
				<clipPath id="SVGID_20_">
					<use xlink:href="#SVGID_19_"  overflow="visible"/>
				</clipPath>
				<path clip-path="url(#SVGID_20_)" fill="#7B7979" d="M44.8,32.9C39.5,44.7,25.7,50,14,44.8C2.2,39.5-3.1,25.7,2.1,14
					C7.4,2.2,21.2-3.1,32.9,2.1S50,21.2,44.8,32.9"/>
			</g>
		</g>
		<g clip-path="url(#SVGID_18_)">
			<g>
				<defs>
					<rect id="SVGID_21_" x="2.6" y="1.5" width="39.3" height="39.3"/>
				</defs>
				<clipPath id="SVGID_22_">
					<use xlink:href="#SVGID_21_"  overflow="visible"/>
				</clipPath>
				<path clip-path="url(#SVGID_22_)" fill="#959394" d="M40.2,29.1c-4.4,9.9-16,14.4-26,10c-9.9-4.4-14.4-16-10-26
					c4.4-9.9,16-14.4,26-10C40.2,7.6,44.6,19.2,40.2,29.1"/>
			</g>
		</g>
		<g clip-path="url(#SVGID_18_)">
			<g>
				<defs>
					<rect id="SVGID_23_" x="5" y="2.9" width="32" height="32"/>
				</defs>
				<clipPath id="SVGID_24_">
					<use xlink:href="#SVGID_23_"  overflow="visible"/>
				</clipPath>
				<path clip-path="url(#SVGID_24_)" fill="#B0AEAF" d="M35.6,25.3c-3.6,8.1-13,11.7-21.1,8.1c-8.1-3.6-11.7-13-8.1-21.1
					c3.6-8.1,13-11.7,21.1-8.1C35.6,7.8,39.2,17.3,35.6,25.3"/>
			</g>
		</g>
		<g clip-path="url(#SVGID_18_)">
			<g>
				<defs>
					<rect id="SVGID_25_" x="7.5" y="4.2" width="24.6" height="24.6"/>
				</defs>
				<clipPath id="SVGID_26_">
					<use xlink:href="#SVGID_25_"  overflow="visible"/>
				</clipPath>
				<path clip-path="url(#SVGID_26_)" fill="#CAC9C9" d="M31.1,21.6c-2.8,6.2-10,9-16.3,6.2c-6.2-2.8-9-10-6.2-16.3
					c2.8-6.2,10-9,16.3-6.2C31,8.1,33.8,15.3,31.1,21.6"/>
			</g>
		</g>
		<g clip-path="url(#SVGID_18_)">
			<g>
				<defs>
					<rect id="SVGID_27_" x="10" y="5.6" width="17.3" height="17.3"/>
				</defs>
				<clipPath id="SVGID_28_">
					<use xlink:href="#SVGID_27_"  overflow="visible"/>
				</clipPath>
				<path clip-path="url(#SVGID_28_)" fill="#E5E4E4" d="M26.5,17.8c-1.9,4.4-7,6.3-11.4,4.4s-6.3-7-4.4-11.4
					c1.9-4.4,7-6.3,11.4-4.4C26.5,8.3,28.4,13.4,26.5,17.8"/>
			</g>
		</g>
		<g clip-path="url(#SVGID_18_)">
			<g>
				<defs>
					<rect id="SVGID_29_" x="12.4" y="7" width="9.9" height="9.9"/>
				</defs>
				<clipPath id="SVGID_30_">
					<use xlink:href="#SVGID_29_"  overflow="visible"/>
				</clipPath>
				<path clip-path="url(#SVGID_30_)" fill="#FFFFFF" d="M21.9,14c-1.1,2.5-4,3.6-6.5,2.5c-2.5-1.1-3.6-4-2.5-6.5
					c1.1-2.5,4-3.6,6.5-2.5S23,11.5,21.9,14"/>
			</g>
		</g>
	</g>
</g>
</svg>
