<?xml version="1.0" encoding="utf-8"?>
<!-- Generator: Adobe Illustrator 15.0.2, SVG Export Plug-In . SVG Version: 6.00 Build 0)  -->
<!DOCTYPE svg PUBLIC "-//W3C//DTD SVG 1.1//EN" "http://www.w3.org/Graphics/SVG/1.1/DTD/svg11.dtd">
<svg version="1.1" id="Layer_1" xmlns="http://www.w3.org/2000/svg" xmlns:xlink="http://www.w3.org/1999/xlink" x="0px" y="0px"
	 width="19.8px" height="75px" viewBox="0 0 19.8 75" enable-background="new 0 0 19.8 75" xml:space="preserve">
<path fill="#9E7E64" d="M0,75V3.2C0,1.5,1.5,0,3.2,0h13.3c1.8,0,3.2,1.5,3.2,3.2V75H0z"/>
<path fill="#9E7E64" d="M16.6,0.8c1.4,0,2.5,1.1,2.5,2.5v71H0.8v-71c0-1.4,1.1-2.5,2.5-2.5H16.6 M16.6,0H3.2C1.5,0,0,1.5,0,3.2V75
	h19.8V3.2C19.8,1.5,18.4,0,16.6,0"/>
<g opacity="0.7">
	<g>
		<defs>
			<rect id="SVGID_1_" x="0" y="1.6" width="19.8" height="73.4"/>
		</defs>
		<clipPath id="SVGID_2_">
			<use xlink:href="#SVGID_1_"  overflow="visible"/>
		</clipPath>
		<path clip-path="url(#SVGID_2_)" fill="#A88B74" d="M18.4,5.4v68.3h-17v0L0,75v0h19.8V3.2c0-0.6-0.2-1.1-0.4-1.6L18.4,5.4z"/>
	</g>
</g>
<g opacity="0.3">
	<g>
		<defs>
			<rect id="SVGID_3_" x="0" y="1.6" width="19.8" height="73.4"/>
		</defs>
		<clipPath id="SVGID_4_">
			<use xlink:href="#SVGID_3_"  overflow="visible"/>
		</clipPath>
		<path clip-path="url(#SVGID_4_)" fill="#9E7E64" d="M19.1,3.2v71.1H0.7v-2L0,75h19.8V3.2c0-0.6-0.2-1.1-0.4-1.6l-0.3,1.2
			C19.1,3,19.1,3.1,19.1,3.2"/>
	</g>
</g>
<path fill="#DFE8EC" d="M11.2,66.7c0,0.7-0.6,1.3-1.3,1.3c-0.7,0-1.3-0.6-1.3-1.3V5.3C8.6,4.5,9.2,4,9.9,4c0.7,0,1.3,0.6,1.3,1.3
	V66.7z"/>
<path fill="#DFE8EC" d="M12.9,67.2c0,1.7-1.3,3-3,3s-3-1.3-3-3c0-1.7,1.3-3,3-3S12.9,65.5,12.9,67.2"/>
<path fill="#C5B1A2" d="M1.4,3.2c0-1,0.8-1.8,1.8-1.8h13.3c1,0,1.8,0.8,1.8,1.8v2.1l1-3.7c-0.6-1-1.6-1.6-2.8-1.6H3.2
	C1.5,0,0,1.5,0,3.2V75l1.4-1.5V3.2z"/>
<path fill="#C5B1A2" d="M16.6,0H3.2C1.5,0,0,1.5,0,3.2V75l0.7-0.7V3.2c0-1.4,1.1-2.5,2.5-2.5h13.3c1.3,0,2.3,0.9,2.5,2.1l0.3-1.2
	C18.8,0.7,17.8,0,16.6,0"/>
<g>
	<g>
		<defs>
			<rect id="SVGID_5_" x="9.9" y="4" width="1.3" height="64.1"/>
		</defs>
		<clipPath id="SVGID_6_">
			<use xlink:href="#SVGID_5_"  overflow="visible"/>
		</clipPath>
		<path clip-path="url(#SVGID_6_)" fill="#DFE8EC" d="M9.9,4c0.4,0,0.8,0.6,0.8,1.3v61.5c0,0.7-0.4,1.3-0.8,1.3
			c0.7,0,1.3-0.6,1.3-1.3V5.3C11.2,4.5,10.6,4,9.9,4"/>
	</g>
</g>
<g>
	<g>
		<defs>
			<rect id="SVGID_7_" x="8.6" y="4" width="1.3" height="64.1"/>
		</defs>
		<clipPath id="SVGID_8_">
			<use xlink:href="#SVGID_7_"  overflow="visible"/>
		</clipPath>
		<path clip-path="url(#SVGID_8_)" fill="#DFE8EC" d="M9.1,66.7V5.3C9.1,4.5,9.5,4,9.9,4C9.2,4,8.6,4.5,8.6,5.3v61.5
			c0,0.7,0.6,1.3,1.3,1.3C9.5,68,9.1,67.5,9.1,66.7"/>
	</g>
</g>
<path fill="#AB2E2F" d="M10.7,65.2V33.8c0-0.4-0.4-0.8-0.8-0.8c-0.4,0-0.8,0.3-0.8,0.8v31.4c-0.8,0.3-1.4,1.1-1.4,2
	c0,1.2,1,2.2,2.2,2.2c1.2,0,2.2-1,2.2-2.2C12.1,66.3,11.5,65.5,10.7,65.2"/>
<path fill="#DFE8EC" d="M9.9,64.2"/>
<path fill="#DFE8EC" d="M9.9,70.2"/>
<path fill="#DFE8EC" d="M9.9,70.2L9.9,70.2z"/>
<path fill="#DFE8EC" d="M9.9,64.2L9.9,64.2z"/>
<path fill="#DFE8EC" d="M9.9,64.2L9.9,64.2z"/>
<path fill="#DFE8EC" d="M9.9,70.2L9.9,70.2z"/>
<g opacity="0.5">
	<g>
		<defs>
			<rect id="SVGID_9_" x="9.1" y="4" width="0.8" height="61.2"/>
		</defs>
		<clipPath id="SVGID_10_">
			<use xlink:href="#SVGID_9_"  overflow="visible"/>
		</clipPath>
		<path clip-path="url(#SVGID_10_)" fill="#DFE8EC" d="M9.6,65V5.3C9.6,4.5,9.8,4,9.9,4C9.5,4,9.1,4.5,9.1,5.3v59.9
			C9.3,65.1,9.4,65.1,9.6,65"/>
	</g>
</g>
<g opacity="0.5">
	<g>
		<defs>
			<rect id="SVGID_11_" x="9.9" y="4" width="0.8" height="61.2"/>
		</defs>
		<clipPath id="SVGID_12_">
			<use xlink:href="#SVGID_11_"  overflow="visible"/>
		</clipPath>
		<path clip-path="url(#SVGID_12_)" fill="#DFE8EC" d="M10.2,5.3V65c0.2,0,0.3,0.1,0.5,0.1V5.3c0-0.7-0.4-1.3-0.8-1.3
			C10.1,4,10.2,4.5,10.2,5.3"/>
	</g>
</g>
<g opacity="0.5">
	<g>
		<defs>
			<rect id="SVGID_13_" x="7.6" y="64.4" width="2.3" height="5.8"/>
		</defs>
		<clipPath id="SVGID_14_">
			<use xlink:href="#SVGID_13_"  overflow="visible"/>
		</clipPath>
		<path clip-path="url(#SVGID_14_)" fill="#DFE8EC" d="M8.6,67.2c0-1,0.2-1.8,0.5-2.4v-0.4c-0.9,0.4-1.5,1.5-1.5,2.8
			c0,1.7,1,3,2.3,3C9.2,70.2,8.6,68.8,8.6,67.2"/>
	</g>
</g>
<g opacity="0.5">
	<g>
		<defs>
			<rect id="SVGID_15_" x="9.9" y="64.4" width="2.3" height="5.8"/>
		</defs>
		<clipPath id="SVGID_16_">
			<use xlink:href="#SVGID_15_"  overflow="visible"/>
		</clipPath>
		<path clip-path="url(#SVGID_16_)" fill="#DFE8EC" d="M10.7,64.4v0.4c0.3,0.5,0.5,1.4,0.5,2.4c0,1.7-0.6,3-1.3,3
			c1.3,0,2.3-1.3,2.3-3C12.2,65.9,11.6,64.8,10.7,64.4"/>
	</g>
</g>
<g>
	<g>
		<defs>
			<rect id="SVGID_17_" x="6.9" y="64.3" width="3" height="5.9"/>
		</defs>
		<clipPath id="SVGID_18_">
			<use xlink:href="#SVGID_17_"  overflow="visible"/>
		</clipPath>
		<path clip-path="url(#SVGID_18_)" fill="#DFE8EC" d="M7.6,67.2c0-1.3,0.6-2.4,1.5-2.8v-0.1c-1.3,0.3-2.2,1.5-2.2,2.9
			c0,1.7,1.3,3,3,3C8.6,70.2,7.6,68.8,7.6,67.2"/>
	</g>
</g>
<g>
	<g>
		<defs>
			<rect id="SVGID_19_" x="9.9" y="64.3" width="3" height="5.9"/>
		</defs>
		<clipPath id="SVGID_20_">
			<use xlink:href="#SVGID_19_"  overflow="visible"/>
		</clipPath>
		<path clip-path="url(#SVGID_20_)" fill="#DFE8EC" d="M10.7,64.3L10.7,64.3c0.9,0.5,1.5,1.6,1.5,2.9c0,1.7-1,3-2.3,3
			c1.7,0,3-1.3,3-3C12.9,65.8,12,64.6,10.7,64.3"/>
	</g>
</g>
<line fill="none" stroke="#BCA66D" stroke-width="0.25" stroke-miterlimit="10" x1="2.7" y1="8.6" x2="6.9" y2="8.6"/>
<line fill="none" stroke="#252A26" stroke-width="0.25" stroke-miterlimit="10" x1="2.7" y1="8.7" x2="6.9" y2="8.7"/>
<line fill="none" stroke="#BCA66D" stroke-width="0.177" stroke-miterlimit="10" x1="2.7" y1="10.9" x2="4.8" y2="10.9"/>
<line fill="none" stroke="#252A26" stroke-width="0.177" stroke-miterlimit="10" x1="2.7" y1="11" x2="4.8" y2="11"/>
<line fill="none" stroke="#BCA66D" stroke-width="0.25" stroke-miterlimit="10" x1="2.7" y1="13.1" x2="6.9" y2="13.1"/>
<line fill="none" stroke="#252A26" stroke-width="0.25" stroke-miterlimit="10" x1="2.7" y1="13.2" x2="6.9" y2="13.2"/>
<line fill="none" stroke="#BCA66D" stroke-width="0.177" stroke-miterlimit="10" x1="2.7" y1="15.4" x2="4.8" y2="15.4"/>
<line fill="none" stroke="#252A26" stroke-width="0.177" stroke-miterlimit="10" x1="2.7" y1="15.5" x2="4.8" y2="15.5"/>
<line fill="none" stroke="#BCA66D" stroke-width="0.25" stroke-miterlimit="10" x1="2.7" y1="17.6" x2="6.9" y2="17.6"/>
<line fill="none" stroke="#252A26" stroke-width="0.25" stroke-miterlimit="10" x1="2.7" y1="17.7" x2="6.9" y2="17.7"/>
<line fill="none" stroke="#BCA66D" stroke-width="0.177" stroke-miterlimit="10" x1="2.7" y1="19.8" x2="4.8" y2="19.8"/>
<line fill="none" stroke="#252A26" stroke-width="0.177" stroke-miterlimit="10" x1="2.7" y1="19.9" x2="4.8" y2="19.9"/>
<line fill="none" stroke="#BCA66D" stroke-width="0.25" stroke-miterlimit="10" x1="2.7" y1="22.1" x2="6.9" y2="22.1"/>
<line fill="none" stroke="#252A26" stroke-width="0.25" stroke-miterlimit="10" x1="2.7" y1="22.2" x2="6.9" y2="22.2"/>
<line fill="none" stroke="#BCA66D" stroke-width="0.177" stroke-miterlimit="10" x1="2.7" y1="24.3" x2="4.8" y2="24.3"/>
<line fill="none" stroke="#252A26" stroke-width="0.177" stroke-miterlimit="10" x1="2.7" y1="24.4" x2="4.8" y2="24.4"/>
<line fill="none" stroke="#BCA66D" stroke-width="0.25" stroke-miterlimit="10" x1="2.7" y1="26.5" x2="6.9" y2="26.5"/>
<line fill="none" stroke="#252A26" stroke-width="0.25" stroke-miterlimit="10" x1="2.7" y1="26.7" x2="6.9" y2="26.7"/>
<line fill="none" stroke="#BCA66D" stroke-width="0.177" stroke-miterlimit="10" x1="2.7" y1="28.8" x2="4.8" y2="28.8"/>
<line fill="none" stroke="#252A26" stroke-width="0.177" stroke-miterlimit="10" x1="2.7" y1="28.9" x2="4.8" y2="28.9"/>
<line fill="none" stroke="#BCA66D" stroke-width="0.25" stroke-miterlimit="10" x1="2.7" y1="31" x2="6.9" y2="31"/>
<line fill="none" stroke="#252A26" stroke-width="0.25" stroke-miterlimit="10" x1="2.7" y1="31.1" x2="6.9" y2="31.1"/>
<line fill="none" stroke="#BCA66D" stroke-width="0.177" stroke-miterlimit="10" x1="2.7" y1="33.3" x2="4.8" y2="33.3"/>
<line fill="none" stroke="#252A26" stroke-width="0.177" stroke-miterlimit="10" x1="2.7" y1="33.4" x2="4.8" y2="33.4"/>
<line fill="none" stroke="#BCA66D" stroke-width="0.25" stroke-miterlimit="10" x1="2.7" y1="35.5" x2="6.9" y2="35.5"/>
<line fill="none" stroke="#252A26" stroke-width="0.25" stroke-miterlimit="10" x1="2.7" y1="35.6" x2="6.9" y2="35.6"/>
<line fill="none" stroke="#BCA66D" stroke-width="0.177" stroke-miterlimit="10" x1="2.7" y1="37.7" x2="4.8" y2="37.7"/>
<line fill="none" stroke="#252A26" stroke-width="0.177" stroke-miterlimit="10" x1="2.7" y1="37.8" x2="4.8" y2="37.8"/>
<line fill="none" stroke="#BCA66D" stroke-width="0.25" stroke-miterlimit="10" x1="2.7" y1="40" x2="6.9" y2="40"/>
<line fill="none" stroke="#252A26" stroke-width="0.25" stroke-miterlimit="10" x1="2.7" y1="40.1" x2="6.9" y2="40.1"/>
<line fill="none" stroke="#BCA66D" stroke-width="0.177" stroke-miterlimit="10" x1="2.7" y1="42.2" x2="4.8" y2="42.2"/>
<line fill="none" stroke="#252A26" stroke-width="0.177" stroke-miterlimit="10" x1="2.7" y1="42.3" x2="4.8" y2="42.3"/>
<line fill="none" stroke="#BCA66D" stroke-width="0.25" stroke-miterlimit="10" x1="2.7" y1="44.5" x2="6.9" y2="44.5"/>
<line fill="none" stroke="#252A26" stroke-width="0.25" stroke-miterlimit="10" x1="2.7" y1="44.6" x2="6.9" y2="44.6"/>
<line fill="none" stroke="#BCA66D" stroke-width="0.177" stroke-miterlimit="10" x1="2.7" y1="46.7" x2="4.8" y2="46.7"/>
<line fill="none" stroke="#252A26" stroke-width="0.177" stroke-miterlimit="10" x1="2.7" y1="46.8" x2="4.8" y2="46.8"/>
<line fill="none" stroke="#BCA66D" stroke-width="0.25" stroke-miterlimit="10" x1="2.7" y1="48.9" x2="6.9" y2="48.9"/>
<line fill="none" stroke="#252A26" stroke-width="0.25" stroke-miterlimit="10" x1="2.7" y1="49" x2="6.9" y2="49"/>
<line fill="none" stroke="#BCA66D" stroke-width="0.177" stroke-miterlimit="10" x1="2.7" y1="51.2" x2="4.8" y2="51.2"/>
<line fill="none" stroke="#252A26" stroke-width="0.177" stroke-miterlimit="10" x1="2.7" y1="51.3" x2="4.8" y2="51.3"/>
<line fill="none" stroke="#BCA66D" stroke-width="0.25" stroke-miterlimit="10" x1="2.7" y1="53.4" x2="6.9" y2="53.4"/>
<line fill="none" stroke="#252A26" stroke-width="0.25" stroke-miterlimit="10" x1="2.7" y1="53.5" x2="6.9" y2="53.5"/>
<line fill="none" stroke="#BCA66D" stroke-width="0.177" stroke-miterlimit="10" x1="2.7" y1="55.6" x2="4.8" y2="55.6"/>
<line fill="none" stroke="#252A26" stroke-width="0.177" stroke-miterlimit="10" x1="2.7" y1="55.8" x2="4.8" y2="55.8"/>
<line fill="none" stroke="#BCA66D" stroke-width="0.25" stroke-miterlimit="10" x1="2.7" y1="57.9" x2="6.9" y2="57.9"/>
<line fill="none" stroke="#252A26" stroke-width="0.25" stroke-miterlimit="10" x1="2.7" y1="58" x2="6.9" y2="58"/>
<line fill="none" stroke="#BCA66D" stroke-width="0.177" stroke-miterlimit="10" x1="2.7" y1="60.1" x2="4.8" y2="60.1"/>
<line fill="none" stroke="#252A26" stroke-width="0.177" stroke-miterlimit="10" x1="2.7" y1="60.2" x2="4.8" y2="60.2"/>
<line fill="none" stroke="#BCA66D" stroke-width="0.25" stroke-miterlimit="10" x1="2.7" y1="62.4" x2="6.9" y2="62.4"/>
<line fill="none" stroke="#252A26" stroke-width="0.25" stroke-miterlimit="10" x1="2.7" y1="62.5" x2="6.9" y2="62.5"/>
<line fill="none" stroke="#BCA66D" stroke-width="0.25" stroke-miterlimit="10" x1="17.2" y1="8.6" x2="12.9" y2="8.6"/>
<line fill="none" stroke="#252A26" stroke-width="0.25" stroke-miterlimit="10" x1="17.2" y1="8.7" x2="12.9" y2="8.7"/>
<line fill="none" stroke="#BCA66D" stroke-width="0.177" stroke-miterlimit="10" x1="17.2" y1="10.9" x2="15" y2="10.9"/>
<line fill="none" stroke="#252A26" stroke-width="0.177" stroke-miterlimit="10" x1="17.2" y1="11" x2="15" y2="11"/>
<line fill="none" stroke="#BCA66D" stroke-width="0.25" stroke-miterlimit="10" x1="17.2" y1="13.1" x2="12.9" y2="13.1"/>
<line fill="none" stroke="#252A26" stroke-width="0.25" stroke-miterlimit="10" x1="17.2" y1="13.2" x2="12.9" y2="13.2"/>
<line fill="none" stroke="#BCA66D" stroke-width="0.177" stroke-miterlimit="10" x1="17.2" y1="15.4" x2="15" y2="15.4"/>
<line fill="none" stroke="#252A26" stroke-width="0.177" stroke-miterlimit="10" x1="17.2" y1="15.5" x2="15" y2="15.5"/>
<line fill="none" stroke="#BCA66D" stroke-width="0.25" stroke-miterlimit="10" x1="17.2" y1="17.6" x2="12.9" y2="17.6"/>
<line fill="none" stroke="#252A26" stroke-width="0.25" stroke-miterlimit="10" x1="17.2" y1="17.7" x2="12.9" y2="17.7"/>
<line fill="none" stroke="#BCA66D" stroke-width="0.177" stroke-miterlimit="10" x1="17.2" y1="19.8" x2="15" y2="19.8"/>
<line fill="none" stroke="#252A26" stroke-width="0.177" stroke-miterlimit="10" x1="17.2" y1="19.9" x2="15" y2="19.9"/>
<line fill="none" stroke="#BCA66D" stroke-width="0.25" stroke-miterlimit="10" x1="17.2" y1="22.1" x2="12.9" y2="22.1"/>
<line fill="none" stroke="#252A26" stroke-width="0.25" stroke-miterlimit="10" x1="17.2" y1="22.2" x2="12.9" y2="22.2"/>
<line fill="none" stroke="#BCA66D" stroke-width="0.177" stroke-miterlimit="10" x1="17.2" y1="24.3" x2="15" y2="24.3"/>
<line fill="none" stroke="#252A26" stroke-width="0.177" stroke-miterlimit="10" x1="17.2" y1="24.4" x2="15" y2="24.4"/>
<line fill="none" stroke="#BCA66D" stroke-width="0.25" stroke-miterlimit="10" x1="17.2" y1="26.5" x2="12.9" y2="26.5"/>
<line fill="none" stroke="#252A26" stroke-width="0.25" stroke-miterlimit="10" x1="17.2" y1="26.7" x2="12.9" y2="26.7"/>
<line fill="none" stroke="#BCA66D" stroke-width="0.177" stroke-miterlimit="10" x1="17.2" y1="28.8" x2="15" y2="28.8"/>
<line fill="none" stroke="#252A26" stroke-width="0.177" stroke-miterlimit="10" x1="17.2" y1="28.9" x2="15" y2="28.9"/>
<line fill="none" stroke="#BCA66D" stroke-width="0.25" stroke-miterlimit="10" x1="17.2" y1="31" x2="12.9" y2="31"/>
<line fill="none" stroke="#252A26" stroke-width="0.25" stroke-miterlimit="10" x1="17.2" y1="31.1" x2="12.9" y2="31.1"/>
<line fill="none" stroke="#BCA66D" stroke-width="0.177" stroke-miterlimit="10" x1="17.2" y1="33.3" x2="15" y2="33.3"/>
<line fill="none" stroke="#252A26" stroke-width="0.177" stroke-miterlimit="10" x1="17.2" y1="33.4" x2="15" y2="33.4"/>
<line fill="none" stroke="#BCA66D" stroke-width="0.25" stroke-miterlimit="10" x1="17.2" y1="35.5" x2="12.9" y2="35.5"/>
<line fill="none" stroke="#252A26" stroke-width="0.25" stroke-miterlimit="10" x1="17.2" y1="35.6" x2="12.9" y2="35.6"/>
<line fill="none" stroke="#BCA66D" stroke-width="0.177" stroke-miterlimit="10" x1="17.2" y1="37.7" x2="15" y2="37.7"/>
<line fill="none" stroke="#252A26" stroke-width="0.177" stroke-miterlimit="10" x1="17.2" y1="37.8" x2="15" y2="37.8"/>
<line fill="none" stroke="#BCA66D" stroke-width="0.25" stroke-miterlimit="10" x1="17.2" y1="40" x2="12.9" y2="40"/>
<line fill="none" stroke="#252A26" stroke-width="0.25" stroke-miterlimit="10" x1="17.2" y1="40.1" x2="12.9" y2="40.1"/>
<line fill="none" stroke="#BCA66D" stroke-width="0.177" stroke-miterlimit="10" x1="17.2" y1="42.2" x2="15" y2="42.2"/>
<line fill="none" stroke="#252A26" stroke-width="0.177" stroke-miterlimit="10" x1="17.2" y1="42.3" x2="15" y2="42.3"/>
<line fill="none" stroke="#BCA66D" stroke-width="0.25" stroke-miterlimit="10" x1="17.2" y1="44.5" x2="12.9" y2="44.5"/>
<line fill="none" stroke="#252A26" stroke-width="0.25" stroke-miterlimit="10" x1="17.2" y1="44.6" x2="12.9" y2="44.6"/>
<line fill="none" stroke="#BCA66D" stroke-width="0.177" stroke-miterlimit="10" x1="17.2" y1="46.7" x2="15" y2="46.7"/>
<line fill="none" stroke="#252A26" stroke-width="0.177" stroke-miterlimit="10" x1="17.2" y1="46.8" x2="15" y2="46.8"/>
<line fill="none" stroke="#BCA66D" stroke-width="0.25" stroke-miterlimit="10" x1="17.2" y1="48.9" x2="12.9" y2="48.9"/>
<line fill="none" stroke="#252A26" stroke-width="0.25" stroke-miterlimit="10" x1="17.2" y1="49" x2="12.9" y2="49"/>
<line fill="none" stroke="#BCA66D" stroke-width="0.177" stroke-miterlimit="10" x1="17.2" y1="51.2" x2="15" y2="51.2"/>
<line fill="none" stroke="#252A26" stroke-width="0.177" stroke-miterlimit="10" x1="17.2" y1="51.3" x2="15" y2="51.3"/>
<line fill="none" stroke="#BCA66D" stroke-width="0.25" stroke-miterlimit="10" x1="17.2" y1="53.4" x2="12.9" y2="53.4"/>
<line fill="none" stroke="#252A26" stroke-width="0.25" stroke-miterlimit="10" x1="17.2" y1="53.5" x2="12.9" y2="53.5"/>
<line fill="none" stroke="#BCA66D" stroke-width="0.177" stroke-miterlimit="10" x1="17.2" y1="55.6" x2="15" y2="55.6"/>
<line fill="none" stroke="#252A26" stroke-width="0.177" stroke-miterlimit="10" x1="17.2" y1="55.8" x2="15" y2="55.8"/>
<line fill="none" stroke="#BCA66D" stroke-width="0.25" stroke-miterlimit="10" x1="17.2" y1="57.9" x2="12.9" y2="57.9"/>
<line fill="none" stroke="#252A26" stroke-width="0.25" stroke-miterlimit="10" x1="17.2" y1="58" x2="12.9" y2="58"/>
<line fill="none" stroke="#BCA66D" stroke-width="0.177" stroke-miterlimit="10" x1="17.2" y1="60.1" x2="15" y2="60.1"/>
<line fill="none" stroke="#252A26" stroke-width="0.177" stroke-miterlimit="10" x1="17.2" y1="60.2" x2="15" y2="60.2"/>
<line fill="none" stroke="#BCA66D" stroke-width="0.25" stroke-miterlimit="10" x1="17.2" y1="62.4" x2="12.9" y2="62.4"/>
<line fill="none" stroke="#252A26" stroke-width="0.25" stroke-miterlimit="10" x1="17.2" y1="62.5" x2="12.9" y2="62.5"/>
</svg>
