<?xml version="1.0" encoding="utf-8"?>
<!-- Generator: Adobe Illustrator 15.0.2, SVG Export Plug-In . SVG Version: 6.00 Build 0)  -->
<!DOCTYPE svg PUBLIC "-//W3C//DTD SVG 1.1//EN" "http://www.w3.org/Graphics/SVG/1.1/DTD/svg11.dtd">
<svg version="1.1" id="Layer_1" xmlns="http://www.w3.org/2000/svg" xmlns:xlink="http://www.w3.org/1999/xlink" x="0px" y="0px"
	 width="19.1px" height="79.9px" viewBox="0 0 19.1 79.9" enable-background="new 0 0 19.1 79.9" xml:space="preserve">
<path fill="#EEC19C" d="M14.9,14.8c0,3.1-2.4,5.6-5.3,5.6s-5.3-2.5-5.3-5.6s2.4-5.6,5.3-5.6S14.9,11.7,14.9,14.8"/>
<path fill="#302C2D" d="M14.9,2.6C13.9,1.6,12,0,9.6,0C7.1,0,5.2,1.6,4.2,2.6S3.6,5.1,3.6,5.1l1.4,7c1.3-1,4.6-1,4.6-1s3.3,0,4.6,1
	l1.4-7C15.5,5.1,15.8,3.6,14.9,2.6"/>
<path fill="#231F20" d="M9.6,74.9v3l3.2,1.9c0,0,1.6,0.3,2.3,0.1c0.7-0.2,0.8-0.7,0.8-1.4c0-0.7-0.4-0.9-0.8-1.4
	c-0.4-0.5-2.2-1.7-2.5-2.8C12.1,73.1,9.6,73.5,9.6,74.9"/>
<path fill="#231F20" d="M9.6,74.9v3l-3.2,1.9c0,0-1.6,0.3-2.3,0.1c-0.7-0.2-0.8-0.7-0.8-1.4c0-0.7,0.4-0.9,0.8-1.4
	c0.4-0.5,2.2-1.7,2.5-2.8C7,73.1,9.6,73.5,9.6,74.9"/>
<path fill="#252A26" d="M9.6,49.8v24.9c0,0-1.8-0.9-3-0.4L4,50.4C4,50.4,6.3,48.4,9.6,49.8"/>
<path fill="#252A26" d="M9.6,49.8v24.9c0,0,1.8-0.9,3-0.4l2.6-24C15.1,50.4,12.8,48.4,9.6,49.8"/>
<g opacity="0.6">
	<g>
		<defs>
			<rect id="SVGID_1_" x="4" y="50.2" width="11.2" height="1.5"/>
		</defs>
		<clipPath id="SVGID_2_">
			<use xlink:href="#SVGID_1_"  overflow="visible"/>
		</clipPath>
		<path clip-path="url(#SVGID_2_)" fill="#252A26" d="M15.2,50.2c0,0-0.1,0.2-0.4,0.3c-0.1,0.1-0.4,0.2-0.6,0.3
			C14,51,13.8,51,13.5,51.1c-0.3,0.1-0.6,0.2-0.9,0.2c-0.3,0.1-0.6,0.1-1,0.1c-0.3,0-0.7,0.1-1,0.1c-0.4,0-0.7,0-1.1,0.1
			c-0.4,0-0.7,0-1.1-0.1c-0.3,0-0.7-0.1-1-0.1c-0.3,0-0.6-0.1-0.9-0.1c-0.3-0.1-0.6-0.2-0.9-0.2c-0.3-0.1-0.5-0.2-0.7-0.3
			c-0.2-0.1-0.4-0.2-0.5-0.3c-0.1-0.1-0.2-0.2-0.3-0.2C4,50.3,4,50.2,4,50.2l0.1-0.1c0,0,0.1,0.1,0.4,0.1c0.1,0,0.3,0.1,0.5,0.1
			c0.2,0,0.5,0,0.7,0.1c0.3,0,0.5,0.1,0.8,0.1c0.3,0,0.6,0,0.9,0c0.7,0,1.4,0,2.1,0c0.7,0,1.4,0,2.1,0c0.3,0,0.6,0,0.9,0
			c0.3,0,0.6-0.1,0.8-0.1c0.3,0,0.5-0.1,0.7-0.1c0.2,0,0.4-0.1,0.5-0.1c0.1,0,0.3-0.1,0.3-0.1C15,50.2,15.1,50.2,15.2,50.2
			L15.2,50.2z"/>
	</g>
</g>
<g>
	<g>
		<defs>
			<rect id="SVGID_3_" x="9" y="50.7" width="1" height="24"/>
		</defs>
		<clipPath id="SVGID_4_">
			<use xlink:href="#SVGID_3_"  overflow="visible"/>
		</clipPath>
		<path clip-path="url(#SVGID_4_)" fill="#252A26" d="M9.6,50.7c0,0,0,0.4,0.1,1c0,0.7,0.1,1.6,0.2,2.7c0.1,2.2,0.2,5.2,0.2,8.2
			c0,3-0.1,6-0.2,8.2C9.8,72,9.7,73,9.7,73.6c-0.1,0.7-0.1,1-0.1,1s0-0.4-0.1-1c0-0.7-0.1-1.6-0.2-2.7C9.1,68.7,9,65.7,9,62.7
			c0-3,0.1-6,0.2-8.2c0.1-1.1,0.2-2.1,0.2-2.7C9.5,51,9.6,50.7,9.6,50.7"/>
	</g>
</g>
<path fill="#A82526" d="M18,20.8h-5.9v-0.9H7v0.9H1.1c0,0-1.2,3.6-0.8,10.5c0.4,6.9,0.6,11.6,0.6,11.6h2.4L4,33.8c0,0,0.6,1.6,0.6,2
	v2c0,0-1.1,2.5-1.2,6.6c-0.1,4.2,0.5,6,0.5,6s2.3,0.3,5.6,0.3c3.4,0,5.6-0.3,5.6-0.3s0.6-1.8,0.5-6c-0.1-4.2-1.2-6.6-1.2-6.6v-2
	c0-0.4,0.6-2,0.6-2l0.7,9.2h2.4c0,0,0.2-4.7,0.6-11.6C19.2,24.4,18,20.8,18,20.8"/>
<path fill="#231F20" d="M9.6,17.9c-2.8,0-5-1.3-5.4-3.1c0,0.1,0,0.3,0,0.4c0,1.9,2.4,3.5,5.4,3.5c3,0,5.4-1.6,5.4-3.5
	c0-0.2,0-0.3,0-0.4C14.6,16.6,12.3,17.9,9.6,17.9"/>
<path fill="#4F4C4D" d="M9.6,17.6c-2.7,0-5-1.2-5.3-2.7c0,0,0,0,0,0.1c0.3,1.7,2.6,3.1,5.4,3.1c2.8,0,5-1.3,5.4-3.1c0,0,0,0,0-0.1
	C14.5,16.4,12.3,17.6,9.6,17.6"/>
<path fill="#EBEBEB" d="M12.1,19.8c-0.3-0.4-2.5-0.4-2.5-0.4c0,0-2.2,0-2.5,0.4v0.2h2.1l0.4,0.6l0.4-0.6h2.1V19.8z"/>
<path fill="#F4F4F4" d="M14.1,25.9c0,0.5-0.4,0.9-0.9,0.9H5.9c-0.5,0-0.9-0.4-0.9-0.9S5.4,25,5.9,25h7.3
	C13.7,25,14.1,25.4,14.1,25.9"/>
<path fill="none" stroke="#68111E" stroke-width="0.175" stroke-miterlimit="10" d="M14.1,25.9c0,0.5-0.4,0.9-0.9,0.9H5.9
	c-0.5,0-0.9-0.4-0.9-0.9S5.4,25,5.9,25h7.3C13.7,25,14.1,25.4,14.1,25.9z"/>
<path fill="#B69C5B" d="M6.3,25.9c0,0.2-0.2,0.4-0.4,0.4c-0.2,0-0.4-0.2-0.4-0.4s0.2-0.4,0.4-0.4C6.1,25.5,6.3,25.7,6.3,25.9"/>
<path fill="#E2D7BD" d="M5.9,25.8c0,0.1-0.1,0.1-0.1,0.1c-0.1,0-0.1-0.1-0.1-0.1s0.1-0.1,0.1-0.1C5.9,25.7,5.9,25.7,5.9,25.8"/>
<path fill="#B69C5B" d="M13.6,25.9c0,0.2-0.2,0.4-0.4,0.4c-0.2,0-0.4-0.2-0.4-0.4s0.2-0.4,0.4-0.4C13.4,25.5,13.6,25.7,13.6,25.9"/>
<path fill="#E2D7BD" d="M13.2,25.8c0,0.1-0.1,0.1-0.1,0.1s-0.1-0.1-0.1-0.1s0.1-0.1,0.1-0.1S13.2,25.7,13.2,25.8"/>
<path fill="#F4F4F4" d="M14.1,29.4c0,0.5-0.4,0.9-0.9,0.9H5.9c-0.5,0-0.9-0.4-0.9-0.9s0.4-0.9,0.9-0.9h7.3
	C13.7,28.5,14.1,28.9,14.1,29.4"/>
<path fill="none" stroke="#68111E" stroke-width="0.175" stroke-miterlimit="10" d="M14.1,29.4c0,0.5-0.4,0.9-0.9,0.9H5.9
	c-0.5,0-0.9-0.4-0.9-0.9s0.4-0.9,0.9-0.9h7.3C13.7,28.5,14.1,28.9,14.1,29.4z"/>
<path fill="#B69C5B" d="M6.3,29.4c0,0.2-0.2,0.4-0.4,0.4c-0.2,0-0.4-0.2-0.4-0.4S5.7,29,5.9,29C6.1,29,6.3,29.2,6.3,29.4"/>
<path fill="#E2D7BD" d="M5.9,29.3c0,0.1-0.1,0.1-0.1,0.1c-0.1,0-0.1-0.1-0.1-0.1s0.1-0.1,0.1-0.1C5.9,29.1,5.9,29.2,5.9,29.3"/>
<path fill="#B69C5B" d="M13.6,29.4c0,0.2-0.2,0.4-0.4,0.4c-0.2,0-0.4-0.2-0.4-0.4S13,29,13.2,29C13.4,29,13.6,29.2,13.6,29.4"/>
<path fill="#E2D7BD" d="M13.2,29.3c0,0.1-0.1,0.1-0.1,0.1s-0.1-0.1-0.1-0.1s0.1-0.1,0.1-0.1S13.2,29.2,13.2,29.3"/>
<path fill="#F4F4F4" d="M14.1,32.9c0,0.5-0.4,0.9-0.9,0.9H5.9c-0.5,0-0.9-0.4-0.9-0.9S5.4,32,5.9,32h7.3
	C13.7,32,14.1,32.4,14.1,32.9"/>
<path fill="none" stroke="#68111E" stroke-width="0.175" stroke-miterlimit="10" d="M14.1,32.9c0,0.5-0.4,0.9-0.9,0.9H5.9
	c-0.5,0-0.9-0.4-0.9-0.9S5.4,32,5.9,32h7.3C13.7,32,14.1,32.4,14.1,32.9z"/>
<path fill="#B69C5B" d="M6.3,32.9c0,0.2-0.2,0.4-0.4,0.4c-0.2,0-0.4-0.2-0.4-0.4s0.2-0.4,0.4-0.4C6.1,32.5,6.3,32.7,6.3,32.9"/>
<path fill="#E2D7BD" d="M5.9,32.8c0,0.1-0.1,0.1-0.1,0.1c-0.1,0-0.1-0.1-0.1-0.1c0-0.1,0.1-0.1,0.1-0.1C5.9,32.6,5.9,32.7,5.9,32.8"
	/>
<path fill="#B69C5B" d="M13.6,32.9c0,0.2-0.2,0.4-0.4,0.4c-0.2,0-0.4-0.2-0.4-0.4s0.2-0.4,0.4-0.4C13.4,32.5,13.6,32.7,13.6,32.9"/>
<path fill="#E2D7BD" d="M13.2,32.8c0,0.1-0.1,0.1-0.1,0.1s-0.1-0.1-0.1-0.1c0-0.1,0.1-0.1,0.1-0.1S13.2,32.7,13.2,32.8"/>
<polyline fill="none" stroke="#393536" stroke-width="8.800000e-002" stroke-miterlimit="10" points="7,19.9 9.1,19.9 9.6,20.6 
	10,19.9 12.1,19.9 "/>
<path fill="#F4F4F4" d="M4.7,37.1l0-1.3c0-0.2-0.1-0.5-0.3-1L12.6,21l1.6,0l0.6,0.4L5.4,37.5L4.7,37.1z"/>
<path fill="#68111E" d="M14.2,21.1l0.5,0.3l-9.3,16l-0.5-0.3v-1.2c0-0.2-0.1-0.5-0.2-0.9l8.1-13.8H14.2 M14.2,20.9h-1.7l-8.2,14
	c0.1,0.4,0.2,0.8,0.2,1v1.3l0.8,0.5l9.5-16.3L14.2,20.9z"/>
<path fill="#F4F4F4" d="M4.4,21.4L5.1,21l1.6,0l8.1,13.9c-0.2,0.4-0.3,0.8-0.3,0.9v1.3l-0.7,0.3L4.4,21.4z"/>
<path fill="#68111E" d="M6.6,21.1l8.1,13.8c-0.2,0.7-0.2,0.9-0.2,0.9v1.2l-0.5,0.3l-9.3-16l0.5-0.3H6.6 M6.7,20.9H5l-0.7,0.4
	l9.5,16.3l0.8-0.5v-1.3c0-0.2,0.1-0.6,0.2-1L6.7,20.9z"/>
<path fill="#EEC19C" d="M0.8,20.8h6c0,0-0.1,4.5-6.9,4.5C0,25.2,0.3,21.9,0.8,20.8"/>
<g>
	<defs>
		<path id="SVGID_5_" d="M0.8,20.8C0.3,21.9,0,25.2,0,25.2c6.8,0,6.9-4.5,6.9-4.5H0.8z"/>
	</defs>
	<clipPath id="SVGID_6_">
		<use xlink:href="#SVGID_5_"  overflow="visible"/>
	</clipPath>
	<rect x="6.8" y="19.5" clip-path="url(#SVGID_6_)" fill="#B69C5B" width="0.2" height="6.5"/>
	<rect x="0.1" y="19.5" clip-path="url(#SVGID_6_)" fill="#B69C5B" width="0.2" height="6.5"/>
	<rect x="0.3" y="19.5" clip-path="url(#SVGID_6_)" fill="#9E7E64" width="0.4" height="6.5"/>
	<rect x="0.7" y="19.5" clip-path="url(#SVGID_6_)" fill="#B69C5B" width="0.2" height="6.5"/>
	<rect x="1" y="19.5" clip-path="url(#SVGID_6_)" fill="#9E7E64" width="0.4" height="6.5"/>
	<rect x="1.4" y="19.5" clip-path="url(#SVGID_6_)" fill="#B69C5B" width="0.2" height="6.5"/>
	<rect x="1.7" y="19.5" clip-path="url(#SVGID_6_)" fill="#9E7E64" width="0.4" height="6.5"/>
	<rect x="2.1" y="19.5" clip-path="url(#SVGID_6_)" fill="#B69C5B" width="0.2" height="6.5"/>
	<rect x="2.3" y="19.5" clip-path="url(#SVGID_6_)" fill="#9E7E64" width="0.4" height="6.5"/>
	<rect x="2.8" y="19.5" clip-path="url(#SVGID_6_)" fill="#B69C5B" width="0.3" height="6.5"/>
	<rect x="3" y="19.5" clip-path="url(#SVGID_6_)" fill="#9E7E64" width="0.4" height="6.5"/>
	<rect x="3.4" y="19.5" clip-path="url(#SVGID_6_)" fill="#B69C5B" width="0.2" height="6.5"/>
	<rect x="3.7" y="19.5" clip-path="url(#SVGID_6_)" fill="#9E7E64" width="0.4" height="6.5"/>
	<rect x="4.1" y="19.5" clip-path="url(#SVGID_6_)" fill="#B69C5B" width="0.2" height="6.5"/>
	<rect x="4.4" y="19.5" clip-path="url(#SVGID_6_)" fill="#9E7E64" width="0.4" height="6.5"/>
	<rect x="4.8" y="19.5" clip-path="url(#SVGID_6_)" fill="#B69C5B" width="0.2" height="6.5"/>
	<rect x="5" y="19.5" clip-path="url(#SVGID_6_)" fill="#9E7E64" width="0.4" height="6.5"/>
	<rect x="5.5" y="19.5" clip-path="url(#SVGID_6_)" fill="#B69C5B" width="0.2" height="6.5"/>
	<rect x="5.7" y="19.5" clip-path="url(#SVGID_6_)" fill="#9E7E64" width="0.4" height="6.5"/>
	<rect x="6.1" y="19.5" clip-path="url(#SVGID_6_)" fill="#B69C5B" width="0.2" height="6.5"/>
	<rect x="6.4" y="19.5" clip-path="url(#SVGID_6_)" fill="#9E7E64" width="0.4" height="6.5"/>
	<g clip-path="url(#SVGID_6_)">
		<g>
			<defs>
				<rect id="SVGID_7_" x="6.3" y="19.5" width="0.2" height="6.5"/>
			</defs>
			<clipPath id="SVGID_8_">
				<use xlink:href="#SVGID_7_"  overflow="visible"/>
			</clipPath>
			<rect x="6.3" y="19.5" clip-path="url(#SVGID_8_)" fill="#B69C5B" width="0.2" height="6.5"/>
		</g>
	</g>
	<g clip-path="url(#SVGID_6_)">
		<g>
			<defs>
				<rect id="SVGID_9_" x="0.3" y="19.5" width="0.3" height="6.5"/>
			</defs>
			<clipPath id="SVGID_10_">
				<use xlink:href="#SVGID_9_"  overflow="visible"/>
			</clipPath>
			<rect x="0.3" y="19.5" clip-path="url(#SVGID_10_)" fill="#B69C5B" width="0.2" height="6.5"/>
		</g>
	</g>
	<g clip-path="url(#SVGID_6_)">
		<g>
			<defs>
				<rect id="SVGID_11_" x="1" y="19.5" width="0.3" height="6.5"/>
			</defs>
			<clipPath id="SVGID_12_">
				<use xlink:href="#SVGID_11_"  overflow="visible"/>
			</clipPath>
			<rect x="1" y="19.5" clip-path="url(#SVGID_12_)" fill="#B69C5B" width="0.2" height="6.5"/>
		</g>
	</g>
	<g clip-path="url(#SVGID_6_)">
		<g>
			<defs>
				<rect id="SVGID_13_" x="1.6" y="19.5" width="0.2" height="6.5"/>
			</defs>
			<clipPath id="SVGID_14_">
				<use xlink:href="#SVGID_13_"  overflow="visible"/>
			</clipPath>
			<rect x="1.6" y="19.5" clip-path="url(#SVGID_14_)" fill="#B69C5B" width="0.2" height="6.5"/>
		</g>
	</g>
	<g clip-path="url(#SVGID_6_)">
		<g>
			<defs>
				<rect id="SVGID_15_" x="2.3" y="19.5" width="0.3" height="6.5"/>
			</defs>
			<clipPath id="SVGID_16_">
				<use xlink:href="#SVGID_15_"  overflow="visible"/>
			</clipPath>
			<rect x="2.3" y="19.5" clip-path="url(#SVGID_16_)" fill="#B69C5B" width="0.2" height="6.5"/>
		</g>
	</g>
	<g clip-path="url(#SVGID_6_)">
		<g>
			<defs>
				<rect id="SVGID_17_" x="3" y="19.5" width="0.3" height="6.5"/>
			</defs>
			<clipPath id="SVGID_18_">
				<use xlink:href="#SVGID_17_"  overflow="visible"/>
			</clipPath>
			<rect x="3" y="19.5" clip-path="url(#SVGID_18_)" fill="#B69C5B" width="0.2" height="6.5"/>
		</g>
	</g>
	<g clip-path="url(#SVGID_6_)">
		<g>
			<defs>
				<rect id="SVGID_19_" x="3.7" y="19.5" width="0.2" height="6.5"/>
			</defs>
			<clipPath id="SVGID_20_">
				<use xlink:href="#SVGID_19_"  overflow="visible"/>
			</clipPath>
			<rect x="3.6" y="19.5" clip-path="url(#SVGID_20_)" fill="#B69C5B" width="0.2" height="6.5"/>
		</g>
	</g>
	<g clip-path="url(#SVGID_6_)">
		<g>
			<defs>
				<rect id="SVGID_21_" x="4.3" y="19.5" width="0.3" height="6.5"/>
			</defs>
			<clipPath id="SVGID_22_">
				<use xlink:href="#SVGID_21_"  overflow="visible"/>
			</clipPath>
			<rect x="4.3" y="19.5" clip-path="url(#SVGID_22_)" fill="#B69C5B" width="0.2" height="6.5"/>
		</g>
	</g>
	<g clip-path="url(#SVGID_6_)">
		<g>
			<defs>
				<rect id="SVGID_23_" x="5" y="19.5" width="0.3" height="6.5"/>
			</defs>
			<clipPath id="SVGID_24_">
				<use xlink:href="#SVGID_23_"  overflow="visible"/>
			</clipPath>
			<rect x="5" y="19.5" clip-path="url(#SVGID_24_)" fill="#B69C5B" width="0.2" height="6.5"/>
		</g>
	</g>
	<g clip-path="url(#SVGID_6_)">
		<g>
			<defs>
				<rect id="SVGID_25_" x="5.7" y="19.5" width="0.3" height="6.5"/>
			</defs>
			<clipPath id="SVGID_26_">
				<use xlink:href="#SVGID_25_"  overflow="visible"/>
			</clipPath>
			<rect x="5.7" y="19.5" clip-path="url(#SVGID_26_)" fill="#B69C5B" width="0.2" height="6.5"/>
		</g>
	</g>
</g>
<path fill="#231F20" d="M6.9,20.8H0.8c0,0-0.5,1.6-0.6,2.7C0.1,23.4,5.2,23.3,6.9,20.8"/>
<g>
	<defs>
		<path id="SVGID_27_" d="M12.2,20.8c0,0,0.1,4.5,6.9,4.5c0,0-0.3-3.3-0.8-4.5H12.2z"/>
	</defs>
	<clipPath id="SVGID_28_">
		<use xlink:href="#SVGID_27_"  overflow="visible"/>
	</clipPath>
	<rect x="12" y="19.5" clip-path="url(#SVGID_28_)" fill="#B69C5B" width="0.2" height="6.5"/>
	<rect x="18.8" y="19.5" clip-path="url(#SVGID_28_)" fill="#B69C5B" width="0.2" height="6.5"/>
	<rect x="18.3" y="19.5" clip-path="url(#SVGID_28_)" fill="#9E7E64" width="0.4" height="6.5"/>
	<rect x="18.1" y="19.5" clip-path="url(#SVGID_28_)" fill="#B69C5B" width="0.2" height="6.5"/>
	<rect x="17.7" y="19.5" clip-path="url(#SVGID_28_)" fill="#9E7E64" width="0.4" height="6.5"/>
	<rect x="17.4" y="19.5" clip-path="url(#SVGID_28_)" fill="#B69C5B" width="0.2" height="6.5"/>
	<rect x="17" y="19.5" clip-path="url(#SVGID_28_)" fill="#9E7E64" width="0.4" height="6.5"/>
	<rect x="16.7" y="19.5" clip-path="url(#SVGID_28_)" fill="#B69C5B" width="0.2" height="6.5"/>
	<rect x="16.3" y="19.5" clip-path="url(#SVGID_28_)" fill="#9E7E64" width="0.4" height="6.5"/>
	<rect x="16.1" y="19.5" clip-path="url(#SVGID_28_)" fill="#B69C5B" width="0.2" height="6.5"/>
	<rect x="15.6" y="19.5" clip-path="url(#SVGID_28_)" fill="#9E7E64" width="0.4" height="6.5"/>
	<rect x="15.4" y="19.5" clip-path="url(#SVGID_28_)" fill="#B69C5B" width="0.2" height="6.5"/>
	<rect x="15" y="19.5" clip-path="url(#SVGID_28_)" fill="#9E7E64" width="0.4" height="6.5"/>
	<rect x="14.7" y="19.5" clip-path="url(#SVGID_28_)" fill="#B69C5B" width="0.2" height="6.5"/>
	<rect x="14.3" y="19.5" clip-path="url(#SVGID_28_)" fill="#9E7E64" width="0.4" height="6.5"/>
	<rect x="14" y="19.5" clip-path="url(#SVGID_28_)" fill="#B69C5B" width="0.2" height="6.5"/>
	<rect x="13.6" y="19.5" clip-path="url(#SVGID_28_)" fill="#9E7E64" width="0.4" height="6.5"/>
	<rect x="13.4" y="19.5" clip-path="url(#SVGID_28_)" fill="#B69C5B" width="0.2" height="6.5"/>
	<rect x="13" y="19.5" clip-path="url(#SVGID_28_)" fill="#9E7E64" width="0.4" height="6.5"/>
	<rect x="12.7" y="19.5" clip-path="url(#SVGID_28_)" fill="#B69C5B" width="0.2" height="6.5"/>
	<rect x="12.3" y="19.5" clip-path="url(#SVGID_28_)" fill="#9E7E64" width="0.4" height="6.5"/>
	<g clip-path="url(#SVGID_28_)">
		<g>
			<defs>
				<rect id="SVGID_29_" x="12.5" y="19.5" width="0.3" height="6.5"/>
			</defs>
			<clipPath id="SVGID_30_">
				<use xlink:href="#SVGID_29_"  overflow="visible"/>
			</clipPath>
			<rect x="12.5" y="19.5" clip-path="url(#SVGID_30_)" fill="#B69C5B" width="0.2" height="6.5"/>
		</g>
	</g>
	<g clip-path="url(#SVGID_28_)">
		<g>
			<defs>
				<rect id="SVGID_31_" x="18.5" y="19.5" width="0.3" height="6.5"/>
			</defs>
			<clipPath id="SVGID_32_">
				<use xlink:href="#SVGID_31_"  overflow="visible"/>
			</clipPath>
			<rect x="18.5" y="19.5" clip-path="url(#SVGID_32_)" fill="#B69C5B" width="0.2" height="6.5"/>
		</g>
	</g>
	<g clip-path="url(#SVGID_28_)">
		<g>
			<defs>
				<rect id="SVGID_33_" x="17.9" y="19.5" width="0.3" height="6.5"/>
			</defs>
			<clipPath id="SVGID_34_">
				<use xlink:href="#SVGID_33_"  overflow="visible"/>
			</clipPath>
			<rect x="17.9" y="19.5" clip-path="url(#SVGID_34_)" fill="#B69C5B" width="0.2" height="6.5"/>
		</g>
	</g>
	<g clip-path="url(#SVGID_28_)">
		<g>
			<defs>
				<rect id="SVGID_35_" x="17.2" y="19.5" width="0.3" height="6.5"/>
			</defs>
			<clipPath id="SVGID_36_">
				<use xlink:href="#SVGID_35_"  overflow="visible"/>
			</clipPath>
			<rect x="17.2" y="19.5" clip-path="url(#SVGID_36_)" fill="#B69C5B" width="0.2" height="6.5"/>
		</g>
	</g>
	<g clip-path="url(#SVGID_28_)">
		<g>
			<defs>
				<rect id="SVGID_37_" x="16.5" y="19.5" width="0.2" height="6.5"/>
			</defs>
			<clipPath id="SVGID_38_">
				<use xlink:href="#SVGID_37_"  overflow="visible"/>
			</clipPath>
			<rect x="16.5" y="19.5" clip-path="url(#SVGID_38_)" fill="#B69C5B" width="0.2" height="6.5"/>
		</g>
	</g>
	<g clip-path="url(#SVGID_28_)">
		<g>
			<defs>
				<rect id="SVGID_39_" x="15.9" y="19.5" width="0.3" height="6.5"/>
			</defs>
			<clipPath id="SVGID_40_">
				<use xlink:href="#SVGID_39_"  overflow="visible"/>
			</clipPath>
			<rect x="15.9" y="19.5" clip-path="url(#SVGID_40_)" fill="#B69C5B" width="0.2" height="6.5"/>
		</g>
	</g>
	<g clip-path="url(#SVGID_28_)">
		<g>
			<defs>
				<rect id="SVGID_41_" x="15.2" y="19.5" width="0.3" height="6.5"/>
			</defs>
			<clipPath id="SVGID_42_">
				<use xlink:href="#SVGID_41_"  overflow="visible"/>
			</clipPath>
			<rect x="15.2" y="19.5" clip-path="url(#SVGID_42_)" fill="#B69C5B" width="0.2" height="6.5"/>
		</g>
	</g>
	<g clip-path="url(#SVGID_28_)">
		<g>
			<defs>
				<rect id="SVGID_43_" x="14.5" y="19.5" width="0.3" height="6.5"/>
			</defs>
			<clipPath id="SVGID_44_">
				<use xlink:href="#SVGID_43_"  overflow="visible"/>
			</clipPath>
			<rect x="14.5" y="19.5" clip-path="url(#SVGID_44_)" fill="#B69C5B" width="0.3" height="6.5"/>
		</g>
	</g>
	<g clip-path="url(#SVGID_28_)">
		<g>
			<defs>
				<rect id="SVGID_45_" x="13.8" y="19.5" width="0.3" height="6.5"/>
			</defs>
			<clipPath id="SVGID_46_">
				<use xlink:href="#SVGID_45_"  overflow="visible"/>
			</clipPath>
			<rect x="13.8" y="19.5" clip-path="url(#SVGID_46_)" fill="#B69C5B" width="0.2" height="6.5"/>
		</g>
	</g>
	<g clip-path="url(#SVGID_28_)">
		<g>
			<defs>
				<rect id="SVGID_47_" x="13.2" y="19.5" width="0.3" height="6.5"/>
			</defs>
			<clipPath id="SVGID_48_">
				<use xlink:href="#SVGID_47_"  overflow="visible"/>
			</clipPath>
			<rect x="13.2" y="19.5" clip-path="url(#SVGID_48_)" fill="#B69C5B" width="0.2" height="6.5"/>
		</g>
	</g>
</g>
<path fill="#231F20" d="M12.2,20.8h6.1c0,0,0.5,1.6,0.6,2.7C18.9,23.4,13.9,23.3,12.2,20.8"/>
<rect x="4.5" y="34.9" fill="#F4F4F4" width="10.2" height="2.7"/>
<rect x="4.5" y="34.9" fill="none" stroke="#68111E" stroke-width="0.161" stroke-miterlimit="10" width="10.2" height="2.7"/>
<g>
	<g>
		<defs>
			<rect id="SVGID_49_" x="3.3" y="24.8" width="1" height="9"/>
		</defs>
		<clipPath id="SVGID_50_">
			<use xlink:href="#SVGID_49_"  overflow="visible"/>
		</clipPath>
		<path clip-path="url(#SVGID_50_)" fill="#A82526" d="M4,33.8c0,0-0.2-0.5-0.4-1.4c-0.2-0.8-0.3-2-0.3-3.1c0-0.3,0-0.6,0-0.9
			c0-0.3,0.1-0.6,0.1-0.8c0.1-0.5,0.2-1,0.3-1.4c0.3-0.8,0.5-1.3,0.5-1.3s0,0.6-0.1,1.4c-0.1,0.4,0,0.9-0.1,1.4
			C4,28.2,4,28.7,4,29.3c0,0.6,0,1.1,0,1.6c0,0.5,0,1,0,1.4C4,33.2,4,33.8,4,33.8"/>
	</g>
</g>
<g>
	<g>
		<defs>
			<rect id="SVGID_51_" x="14.9" y="24.8" width="1" height="9"/>
		</defs>
		<clipPath id="SVGID_52_">
			<use xlink:href="#SVGID_51_"  overflow="visible"/>
		</clipPath>
		<path clip-path="url(#SVGID_52_)" fill="#A82526" d="M15.1,33.8c0,0,0-0.6,0-1.4c0-0.4,0-0.9,0-1.4c0-0.5,0-1.1,0-1.6
			c0-0.6,0-1.1-0.1-1.6s0-1-0.1-1.4c-0.1-0.8-0.1-1.4-0.1-1.4s0.2,0.5,0.5,1.3c0.2,0.4,0.2,0.9,0.3,1.4c0,0.3,0.1,0.5,0.1,0.8
			c0,0.3,0,0.6,0,0.9c0,1.2-0.1,2.3-0.3,3.1C15.3,33.3,15.1,33.8,15.1,33.8"/>
	</g>
</g>
<path fill="#C04247" d="M8.6,38.3c-0.8,0.1-1.5,0.1-2.3,0.1l0.1-0.1l-0.4,1.4c-0.1,0.5-0.3,0.9-0.4,1.4c-0.1,0.5-0.2,0.9-0.2,1.4
	c0,0.5-0.1,0.9-0.1,1.4l0,1.4c0,0.5,0,0.9,0.1,1.4l0,0.7l0.1,0.7c0.1,0.5,0.1,0.9,0.1,1.4l0,0c-0.1-0.5-0.2-0.9-0.3-1.4l-0.1-0.7
	l-0.1-0.7l0-0.7c0-0.2,0-0.5,0-0.7l0.1-1.4c0-0.5,0.1-0.9,0.2-1.4c0.1-0.5,0.2-0.9,0.2-1.4c0.1-0.5,0.1-0.9,0.2-1.4
	c0.1-0.5,0.2-0.9,0.4-1.4l0-0.1l0.1,0C7.1,38.2,7.8,38.2,8.6,38.3L8.6,38.3z"/>
<path fill="#C04247" d="M1.7,25.8c0,0,0,1,0,2.6c0,0.8,0,1.7,0,2.6c0,1,0,2,0.1,3c0,1,0,2.1,0,3c0,0.5,0.1,0.9,0.1,1.4
	c0,0.4,0.1,0.9,0.1,1.2c0.1,1.5,0.1,2.6,0.1,2.6s-0.1-1-0.3-2.6c0-0.4-0.1-0.8-0.1-1.2c0-0.4-0.1-0.9-0.1-1.4c0-1-0.1-2-0.1-3
	c0-1,0-2.1,0-3c0-1,0.1-1.9,0.1-2.6c0-0.8,0.1-1.4,0.1-1.9C1.7,26.1,1.7,25.8,1.7,25.8"/>
<path fill="#C04247" d="M17.1,25.9c0,0,0,0.3,0.1,0.7c0,0.4,0.1,1.1,0.2,1.8c0,0.8,0.1,1.6,0.1,2.6c0,0.9,0,2,0.1,3c0,0.5,0,1,0,1.5
	c0,0.5,0,1,0,1.5c-0.1,0.9-0.1,1.8-0.2,2.6l-0.2,2.5c0,0,0-1,0-2.5c0-0.8,0-1.6,0.1-2.6c0-0.5,0-1,0-1.5c0-0.5,0-1,0-1.5
	c0-1,0-2,0-3c0-0.9,0-1.8,0-2.6C17.1,26.9,17.1,25.9,17.1,25.9"/>
<path fill="#C04247" d="M12.1,20.8c0,0,0,0.1-0.2,0.1c-0.1,0.1-0.3,0.1-0.6,0.1c-0.5,0.1-1.1,0.1-1.8,0.1c-0.7,0-1.3-0.1-1.8-0.1
	c-0.2,0-0.4-0.1-0.6-0.1C7,20.9,7,20.8,7,20.8c0,0,0,0.1,0.2,0.1C7.3,21,7.5,21,7.8,21c0.5,0.1,1.1,0.1,1.8,0.1c0.7,0,1.3,0,1.8-0.1
	c0.2,0,0.4-0.1,0.6-0.1C12.1,20.9,12.1,20.8,12.1,20.8"/>
<path fill="#464A47" d="M5.7,52.3c0,0,0.2,1.3,0.4,3.4c0.2,2,0.5,4.7,0.8,7.4c0.2,2.7,0.5,5.4,0.6,7.4c0.1,2,0.2,3.4,0.2,3.4
	s-0.2-1.3-0.4-3.4c-0.2-2-0.5-4.7-0.8-7.4c-0.2-2.7-0.5-5.4-0.6-7.4C5.8,53.6,5.7,52.3,5.7,52.3"/>
<polygon fill="#252A26" points="0.6,42.6 3.5,42.6 3.4,45.7 1.1,45.7 "/>
<path fill="#EEC19C" d="M1.7,45.7c0,0,0.3,1.6,0.4,2.1c0.1,0.5,1.4,4.3,1.4,4.3L4.2,52l-0.3-1.1l0.3-0.1l-0.8-5H1.7z"/>
<polygon fill="#252A26" points="18.6,42.6 15.6,42.6 15.7,45.7 18.1,45.7 "/>
<path fill="#EEC19C" d="M17.4,45.7c0,0-0.3,1.6-0.4,2.1c-0.1,0.5-1.4,4.3-1.4,4.3L14.9,52l0.3-1.1l-0.3-0.1l0.8-5H17.4z"/>
<path fill="#5E411A" d="M7.1,12.8c0,0,0.6-0.5,1.6-0.4v-0.5c0,0-1.2,0.2-1.6,0.5V12.8z"/>
<path fill="#FEFBF8" d="M8.8,13.6c0,0.4-0.3,0.8-0.7,0.8c-0.4,0-0.7-0.4-0.7-0.8c0-0.4,0.3-0.8,0.7-0.8C8.5,12.8,8.8,13.2,8.8,13.6"
	/>
<path fill="#429CC0" d="M8.6,13.9c0,0.3-0.2,0.5-0.5,0.5s-0.5-0.2-0.5-0.5s0.2-0.5,0.5-0.5S8.6,13.6,8.6,13.9"/>
<path fill="#231F20" d="M8.3,14c0,0.2-0.1,0.3-0.3,0.3c-0.2,0-0.3-0.1-0.3-0.3c0-0.2,0.1-0.3,0.3-0.3C8.2,13.7,8.3,13.8,8.3,14"/>
<path fill="#FEFBF8" d="M8.1,13.9C8.1,14,8,14,8.1,13.9c-0.1,0.1-0.2,0.1-0.2,0c0-0.1,0-0.1,0.1-0.1C8,13.8,8.1,13.8,8.1,13.9"/>
<path fill="#9E7E64" d="M7.1,12.7c0,0,0.6-0.5,1.6-0.4v-0.5c0,0-1.2,0.2-1.6,0.5V12.7z"/>
<path fill="#5E411A" d="M11.9,12.8c0,0-0.6-0.5-1.6-0.4v-0.5c0,0,1.2,0.2,1.6,0.5V12.8z"/>
<path fill="#FEFBF8" d="M10.2,13.6c0,0.4,0.3,0.8,0.7,0.8s0.7-0.4,0.7-0.8c0-0.4-0.3-0.8-0.7-0.8S10.2,13.2,10.2,13.6"/>
<path fill="#429CC0" d="M10.4,13.9c0,0.3,0.2,0.5,0.5,0.5c0.3,0,0.5-0.2,0.5-0.5s-0.2-0.5-0.5-0.5C10.7,13.3,10.4,13.6,10.4,13.9"/>
<path fill="#231F20" d="M10.6,14c0,0.2,0.1,0.3,0.3,0.3s0.3-0.1,0.3-0.3c0-0.2-0.1-0.3-0.3-0.3S10.6,13.8,10.6,14"/>
<path fill="#FEFBF8" d="M10.9,13.9C10.9,14,11,14,10.9,13.9c0.1,0.1,0.2,0.1,0.2,0c0-0.1,0-0.1-0.1-0.1C11,13.8,10.9,13.8,10.9,13.9
	"/>
<path fill="#9E7E64" d="M11.9,12.7c0,0-0.6-0.5-1.6-0.4v-0.5c0,0,1.2,0.2,1.6,0.5V12.7z"/>
<g opacity="0.3">
	<g>
		<defs>
			<rect id="SVGID_53_" x="8.6" y="14" width="1.9" height="1.9"/>
		</defs>
		<clipPath id="SVGID_54_">
			<use xlink:href="#SVGID_53_"  overflow="visible"/>
		</clipPath>
		<path clip-path="url(#SVGID_54_)" fill="#F0CAAB" d="M10.5,14.9c0,0.5-0.4,1-0.9,1c-0.5,0-0.9-0.4-0.9-1c0-0.5,0.4-1,0.9-1
			C10.1,14,10.5,14.4,10.5,14.9"/>
	</g>
</g>
<path fill="#F0CAAB" d="M10.5,14.8c0,0.5-0.4,0.8-0.9,0.8c-0.5,0-0.9-0.4-0.9-0.8C8.6,14.3,9,14,9.6,14C10.1,14,10.5,14.3,10.5,14.8
	"/>
<g opacity="0.4">
	<g>
		<defs>
			<rect id="SVGID_55_" x="8.9" y="14.2" width="0.7" height="0.6"/>
		</defs>
		<clipPath id="SVGID_56_">
			<use xlink:href="#SVGID_55_"  overflow="visible"/>
		</clipPath>
		<path clip-path="url(#SVGID_56_)" fill="#F0CAAB" d="M9.6,14.5l-0.1-0.3c-0.2,0-0.4,0.1-0.6,0.2L9,14.8
			C9.1,14.6,9.3,14.5,9.6,14.5"/>
	</g>
</g>
<path fill="#231F20" d="M11.7,15.7c0,0,0,0.1,0,0.2c-0.1,0.1-0.2,0.3-0.4,0.5c-0.2,0.1-0.5,0.3-0.8,0.3c-0.3,0.1-0.6,0.1-1,0.1
	c-0.3,0-0.6,0-0.9-0.1c-0.3-0.1-0.6-0.2-0.8-0.3c-0.2-0.1-0.3-0.3-0.4-0.5c0-0.1,0-0.2,0-0.2s0,0.1,0.1,0.2c0.1,0.1,0.2,0.2,0.4,0.3
	c0.2,0.1,0.5,0.2,0.7,0.2c0.3,0.1,0.6,0.1,0.9,0.1c0.3,0,0.6,0,0.9-0.1c0.3-0.1,0.5-0.1,0.7-0.2c0.2-0.1,0.3-0.2,0.4-0.3
	C11.6,15.8,11.7,15.7,11.7,15.7"/>
<path fill="#D6543B" d="M7.1,15.1c0,0.3-0.3,0.6-0.6,0.6S6,15.4,6,15.1c0-0.3,0.3-0.6,0.6-0.6S7.1,14.7,7.1,15.1"/>
<path fill="#D6543B" d="M13.1,15.1c0,0.3-0.3,0.6-0.6,0.6c-0.3,0-0.6-0.3-0.6-0.6c0-0.3,0.3-0.6,0.6-0.6
	C12.9,14.5,13.1,14.7,13.1,15.1"/>
<path fill="#231F20" d="M9.6,10.5c0,0-3.8,0.5-4.7,1.7c0,0,1.3-0.8,4.7-0.8c3.4,0,4.7,0.8,4.7,0.8C13.3,10.9,9.6,10.5,9.6,10.5"/>
<g>
	<g>
		<defs>
			<rect id="SVGID_57_" x="4.9" y="10.8" width="9.3" height="1.3"/>
		</defs>
		<clipPath id="SVGID_58_">
			<use xlink:href="#SVGID_57_"  overflow="visible"/>
		</clipPath>
		<path clip-path="url(#SVGID_58_)" fill="#7B7979" d="M14.2,12.2L14,12c-0.1-0.1-0.2-0.1-0.3-0.2l-0.6-0.2
			c-0.4-0.1-0.8-0.2-1.2-0.3c-0.8-0.2-1.6-0.3-2.4-0.4h0c-0.8,0.1-1.6,0.2-2.4,0.4c-0.4,0.1-0.8,0.2-1.2,0.3l-0.6,0.2
			c-0.1,0-0.2,0.1-0.3,0.2l-0.3,0.2L5.1,12c0.1-0.1,0.2-0.1,0.3-0.2L6,11.6c0.4-0.1,0.8-0.2,1.2-0.3c0.8-0.2,1.6-0.3,2.4-0.4l0,0
			l0,0c0.8,0.1,1.6,0.2,2.4,0.4c0.4,0.1,0.8,0.2,1.2,0.3l0.6,0.2c0.1,0,0.2,0.1,0.3,0.2L14.2,12.2z"/>
	</g>
</g>
<path fill="#FEFCFA" d="M9.6,7.9c-2.6,0-4.7,1.2-4.7,2.6v1.6C4.8,11,6.9,10,9.6,10c2.6,0,4.8,1,4.8,2.2v-1.6
	C14.3,9.1,12.2,7.9,9.6,7.9"/>
<path fill="#B69C5B" d="M10.5,4.1c0,0.5-0.4,1-1,1s-1-0.4-1-1c0-0.5,0.4-1,1-1S10.5,3.5,10.5,4.1"/>
<path fill="#D3C49D" d="M9.6,3.7c0,0.2-0.2,0.4-0.4,0.4C9,4.1,8.8,3.9,8.8,3.7c0-0.2,0.2-0.4,0.4-0.4C9.4,3.3,9.6,3.5,9.6,3.7"/>
</svg>
