<?xml version="1.0" encoding="utf-8"?>
<!-- Generator: Adobe Illustrator 15.0.2, SVG Export Plug-In . SVG Version: 6.00 Build 0)  -->
<!DOCTYPE svg PUBLIC "-//W3C//DTD SVG 1.1//EN" "http://www.w3.org/Graphics/SVG/1.1/DTD/svg11.dtd">
<svg version="1.1" id="Layer_1" xmlns="http://www.w3.org/2000/svg" xmlns:xlink="http://www.w3.org/1999/xlink" x="0px" y="0px"
	 width="65px" height="50px" viewBox="0 0 65 50" enable-background="new 0 0 65 50" xml:space="preserve">
<path fill="#2E2A2B" d="M7.1,29.1c-15.6,5.6-0.6,14.4-0.6,14.4c9,6.3,26,6.6,26,6.6V28.7C25.8,24.5,7.1,29.1,7.1,29.1"/>
<path fill="#2E2A2B" d="M57.9,29.1c0,0-18.7-4.6-25.4-0.4V50c0,0,17-0.3,26-6.6C58.5,43.5,73.5,34.7,57.9,29.1"/>
<path fill="#BDBCBC" d="M5.8,42.1c0,0,0.2,0.1,0.5,0.3c0.4,0.2,0.9,0.5,1.5,0.9c0.7,0.3,1.5,0.8,2.5,1.1c0.5,0.2,1,0.4,1.6,0.6
	c0.6,0.2,1.2,0.4,1.8,0.6c2.5,0.8,5.5,1.5,8.7,2c3.2,0.5,6.7,0.8,10.1,0.9c3.5-0.1,6.9-0.4,10.2-0.9c3.2-0.5,6.2-1.2,8.7-2
	c0.6-0.2,1.2-0.4,1.8-0.6c0.6-0.2,1.1-0.4,1.6-0.6c1-0.4,1.8-0.8,2.5-1.1c0.7-0.3,1.2-0.7,1.5-0.9c0.3-0.2,0.5-0.3,0.5-0.3
	s-0.2,0.1-0.5,0.3c-0.4,0.2-0.8,0.6-1.5,0.9c-0.7,0.3-1.5,0.8-2.5,1.2c-0.5,0.2-1,0.4-1.6,0.6c-0.6,0.2-1.2,0.4-1.8,0.6
	c-2.5,0.8-5.5,1.5-8.7,2c-3.2,0.5-6.7,0.9-10.2,1c-3.5-0.1-7-0.5-10.2-1c-3.2-0.5-6.2-1.2-8.7-2c-0.6-0.2-1.2-0.4-1.8-0.6
	c-0.6-0.2-1.1-0.4-1.6-0.6c-1-0.4-1.8-0.9-2.5-1.2c-0.7-0.4-1.2-0.7-1.5-0.9C6,42.2,5.8,42.1,5.8,42.1"/>
<path fill="#2E2A2B" d="M32.5,3.1L8.6,3.7c4.2,12.5,4.2,22.3,4.2,30.3c0,8,19.6,8.6,19.6,8.6s19.6-0.7,19.6-8.6c0-8,0-17.8,4.2-30.3
	L32.5,3.1z"/>
<path fill="#BDBCBC" d="M52.1,26.9c0,7-19.6,7.6-19.6,7.6s-19.6-0.6-19.6-7.6v7.1c0,8,19.6,8.6,19.6,8.6s19.6-0.7,19.6-8.6V26.9z"/>
<g opacity="0.5">
	<g>
		<defs>
			<rect id="SVGID_1_" x="8.6" y="3.9" width="15.8" height="38"/>
		</defs>
		<clipPath id="SVGID_2_">
			<use xlink:href="#SVGID_1_"  overflow="visible"/>
		</clipPath>
		<path clip-path="url(#SVGID_2_)" fill="#2E2A2B" d="M24.4,41.4c-3.7-1.2-7.4-3.3-7.4-7.2c0-8,0-17.8-3.3-30.3H8.6
			c4.2,12.5,4.2,22.3,4.2,30.3c0,4.5,6.2,6.6,11.6,7.7V41.4z"/>
	</g>
</g>
<g opacity="0.5">
	<g>
		<defs>
			<rect id="SVGID_3_" x="40.6" y="3.9" width="15.8" height="38"/>
		</defs>
		<clipPath id="SVGID_4_">
			<use xlink:href="#SVGID_3_"  overflow="visible"/>
		</clipPath>
		<path clip-path="url(#SVGID_4_)" fill="#2E2A2B" d="M51.2,3.9c-3.3,12.5-3.3,22.3-3.3,30.3c0,3.9-3.6,6-7.4,7.2v0.5
			c5.4-1,11.6-3.2,11.6-7.7c0-8,0-17.8,4.2-30.3H51.2z"/>
	</g>
</g>
<path fill="#4F4C4D" d="M56.4,3.7c0,2.1-10.7,3.7-23.9,3.7C19.3,7.5,8.6,5.8,8.6,3.7C8.6,1.7,19.3,0,32.5,0
	C45.7,0,56.4,1.7,56.4,3.7"/>
<path fill="#D3D2D2" d="M56.4,3.7c0,0,0,0.2-0.2,0.5c-0.2,0.3-0.7,0.6-1.3,0.8c-1.2,0.5-3.1,1-5.4,1.4c-4.6,0.7-10.8,1.1-16.9,1.2
	c-6.2,0-12.4-0.4-16.9-1.2c-2.3-0.4-4.2-0.8-5.4-1.4C9.5,4.8,9.1,4.5,8.8,4.2C8.6,4,8.6,3.7,8.6,3.7c0,0,0,0.2,0.2,0.5
	C9.1,4.5,9.5,4.8,10.2,5c1.3,0.5,3.1,0.9,5.4,1.3c4.6,0.7,10.7,1.1,16.9,1c6.2,0,12.3-0.3,16.9-1c2.3-0.4,4.2-0.8,5.4-1.3
	c0.6-0.2,1.1-0.5,1.3-0.8C56.4,4,56.4,3.7,56.4,3.7"/>
</svg>
