<?xml version="1.0" encoding="utf-8"?>
<!-- Generator: Adobe Illustrator 15.0.2, SVG Export Plug-In . SVG Version: 6.00 Build 0)  -->
<!DOCTYPE svg PUBLIC "-//W3C//DTD SVG 1.1//EN" "http://www.w3.org/Graphics/SVG/1.1/DTD/svg11.dtd">
<svg version="1.1" id="Layer_1" xmlns="http://www.w3.org/2000/svg" xmlns:xlink="http://www.w3.org/1999/xlink" x="0px" y="0px"
	 width="71px" height="41.6px" viewBox="0 0 71 41.6" enable-background="new 0 0 71 41.6" xml:space="preserve">
<path fill="#F3E5A4" d="M71,33c0,1.5-1.3,2.8-2.8,2.8H2.8C1.3,35.8,0,34.6,0,33V11.9c0-1.5,1.3-2.8,2.8-2.8h65.4
	c1.5,0,2.8,1.3,2.8,2.8V33z"/>
<g>
	<g>
		<defs>
			<rect id="SVGID_1_" y="31.3" width="71" height="4.5"/>
		</defs>
		<clipPath id="SVGID_2_">
			<use xlink:href="#SVGID_1_"  overflow="visible"/>
		</clipPath>
		<path clip-path="url(#SVGID_2_)" fill="#F3E5A4" d="M68.2,34.1H2.8c-1.6,0-2.8-1.3-2.8-2.8V33c0,1.5,1.3,2.8,2.8,2.8h65.4
			c1.5,0,2.8-1.3,2.8-2.8v-1.7C71,32.9,69.8,34.1,68.2,34.1"/>
	</g>
</g>
<path fill="#C82257" d="M69.4,38.8c0,1.5-1.3,2.8-2.8,2.8H4.3c-1.6,0-2.8-1.3-2.8-2.8V4.7c0-1.6,1.3-2.8,2.8-2.8h62.3
	c1.5,0,2.8,1.3,2.8,2.8V38.8z"/>
<g>
	<g>
		<defs>
			<rect id="SVGID_3_" x="1.5" y="37.1" width="67.9" height="4.5"/>
		</defs>
		<clipPath id="SVGID_4_">
			<use xlink:href="#SVGID_3_"  overflow="visible"/>
		</clipPath>
		<path clip-path="url(#SVGID_4_)" fill="#C82257" d="M66.6,39.9H4.3c-1.5,0-2.8-1.3-2.8-2.8v1.7c0,1.5,1.3,2.8,2.8,2.8h62.3
			c1.5,0,2.8-1.3,2.8-2.8v-1.7C69.4,38.7,68.2,39.9,66.6,39.9"/>
	</g>
</g>
<rect x="5.2" y="16.5" fill="#F4F4F4" width="6" height="25.1"/>
<rect x="11.3" y="16.5" fill="#F4F4F4" width="6" height="25.1"/>
<rect x="17.3" y="16.5" fill="#F4F4F4" width="6" height="25.1"/>
<rect x="23.4" y="16.5" fill="#F4F4F4" width="6" height="25.1"/>
<rect x="29.4" y="16.5" fill="#F4F4F4" width="6" height="25.1"/>
<rect x="35.5" y="16.5" fill="#F4F4F4" width="6" height="25.1"/>
<rect x="41.5" y="16.5" fill="#F4F4F4" width="6" height="25.1"/>
<rect x="47.5" y="16.5" fill="#F4F4F4" width="6" height="25.1"/>
<rect x="53.6" y="16.5" fill="#F4F4F4" width="6" height="25.1"/>
<rect x="59.6" y="16.5" fill="#F4F4F4" width="6" height="25.1"/>
<rect x="10.9" y="16.5" fill="#918F90" width="0.4" height="25.1"/>
<rect x="16.9" y="16.5" fill="#918F90" width="0.4" height="25.1"/>
<rect x="22.9" y="16.5" fill="#918F90" width="0.4" height="25.1"/>
<rect x="29" y="16.5" fill="#918F90" width="0.4" height="25.1"/>
<rect x="35" y="16.5" fill="#918F90" width="0.4" height="25.1"/>
<rect x="41.1" y="16.5" fill="#918F90" width="0.4" height="25.1"/>
<rect x="47.1" y="16.5" fill="#918F90" width="0.4" height="25.1"/>
<rect x="53.2" y="16.5" fill="#918F90" width="0.4" height="25.1"/>
<rect x="59.2" y="16.5" fill="#918F90" width="0.4" height="25.1"/>
<rect x="65.2" y="16.5" fill="#918F90" width="0.4" height="25.1"/>
<path fill="#2E2A2B" d="M12.9,16.5V28c0,1-0.8,1.9-1.9,1.9c-1,0-1.9-0.8-1.9-1.9V16.5H12.9z"/>
<path fill="#484546" d="M12.5,16.5v11.3c0,0.8-0.7,1.4-1.5,1.4c-0.8,0-1.5-0.6-1.5-1.4V16.5H12.5z"/>
<path fill="#2E2A2B" d="M19,16.5V28c0,1-0.8,1.9-1.9,1.9c-1,0-1.9-0.8-1.9-1.9V16.5H19z"/>
<path fill="#484546" d="M18.6,16.5v11.3c0,0.8-0.7,1.4-1.5,1.4c-0.8,0-1.5-0.6-1.5-1.4V16.5H18.6z"/>
<path fill="#2E2A2B" d="M25,16.5V28c0,1-0.8,1.9-1.9,1.9c-1,0-1.9-0.8-1.9-1.9V16.5H25z"/>
<path fill="#484546" d="M24.6,16.5v11.3c0,0.8-0.7,1.4-1.5,1.4s-1.5-0.6-1.5-1.4V16.5H24.6z"/>
<path fill="#2E2A2B" d="M37.1,16.5V28c0,1-0.8,1.9-1.9,1.9c-1,0-1.9-0.8-1.9-1.9V16.5H37.1z"/>
<path fill="#484546" d="M36.7,16.5v11.3c0,0.8-0.7,1.4-1.5,1.4c-0.8,0-1.5-0.6-1.5-1.4V16.5H36.7z"/>
<path fill="#2E2A2B" d="M43.2,16.5V28c0,1-0.8,1.9-1.9,1.9c-1,0-1.9-0.8-1.9-1.9V16.5H43.2z"/>
<path fill="#484546" d="M42.7,16.5v11.3c0,0.8-0.7,1.4-1.5,1.4s-1.5-0.6-1.5-1.4V16.5H42.7z"/>
<path fill="#2E2A2B" d="M55.2,16.5V28c0,1-0.8,1.9-1.9,1.9c-1,0-1.9-0.8-1.9-1.9V16.5H55.2z"/>
<path fill="#484546" d="M54.8,16.5v11.3c0,0.8-0.7,1.4-1.5,1.4s-1.5-0.6-1.5-1.4V16.5H54.8z"/>
<path fill="#2E2A2B" d="M61.3,16.5V28c0,1-0.8,1.9-1.9,1.9c-1,0-1.9-0.8-1.9-1.9V16.5H61.3z"/>
<path fill="#484546" d="M60.9,16.5v11.3c0,0.8-0.7,1.4-1.5,1.4c-0.8,0-1.5-0.6-1.5-1.4V16.5H60.9z"/>
<g opacity="0.3">
	<g>
		<defs>
			<rect id="SVGID_5_" x="5.2" y="39.9" width="60.4" height="1.7"/>
		</defs>
		<clipPath id="SVGID_6_">
			<use xlink:href="#SVGID_5_"  overflow="visible"/>
		</clipPath>
		<rect x="5.2" y="39.9" clip-path="url(#SVGID_6_)" fill="#2E2A2B" width="60.4" height="1.7"/>
	</g>
</g>
<g opacity="0.3">
	<g>
		<defs>
			<rect id="SVGID_7_" x="5.3" y="39.9" width="60.4" height="0.8"/>
		</defs>
		<clipPath id="SVGID_8_">
			<use xlink:href="#SVGID_7_"  overflow="visible"/>
		</clipPath>
		<rect x="5.3" y="39.9" clip-path="url(#SVGID_8_)" fill="#2E2A2B" width="60.4" height="0.8"/>
	</g>
</g>
<g opacity="0.3">
	<g>
		<defs>
			<rect id="SVGID_9_" x="5.2" y="16.5" width="60.4" height="3.8"/>
		</defs>
		<clipPath id="SVGID_10_">
			<use xlink:href="#SVGID_9_"  overflow="visible"/>
		</clipPath>
		<polygon clip-path="url(#SVGID_10_)" fill="#918F90" points="5.2,16.5 65.7,20.4 65.7,16.5 		"/>
	</g>
</g>
<g opacity="0.5">
	<g>
		<defs>
			<rect id="SVGID_11_" x="5.2" y="16.5" width="60.2" height="1"/>
		</defs>
		<clipPath id="SVGID_12_">
			<use xlink:href="#SVGID_11_"  overflow="visible"/>
		</clipPath>
		<rect x="5.2" y="16.5" clip-path="url(#SVGID_12_)" fill="#918F90" width="60.2" height="1"/>
	</g>
</g>
<rect x="5.2" y="15.5" fill="#DE7A9A" width="60.4" height="1"/>
<path fill="#B55365" d="M11.9,8.8c0,0.6-0.5,1.1-1.1,1.1c-0.6,0-1.1-0.5-1.1-1.1s0.5-1.1,1.1-1.1C11.4,7.6,11.9,8.2,11.9,8.8"/>
<g>
	<g>
		<defs>
			<rect id="SVGID_13_" x="9.6" y="8.6" width="2.2" height="1.3"/>
		</defs>
		<clipPath id="SVGID_14_">
			<use xlink:href="#SVGID_13_"  overflow="visible"/>
		</clipPath>
		<path clip-path="url(#SVGID_14_)" fill="#CB2D5F" d="M10.7,9.5c-0.6,0-1-0.4-1.1-0.9c0,0.1,0,0.1,0,0.2c0,0.6,0.5,1.1,1.1,1.1
			s1.1-0.5,1.1-1.1c0-0.1,0-0.1,0-0.2C11.8,9.1,11.3,9.5,10.7,9.5"/>
	</g>
</g>
<path fill="#DE7A9A" d="M11.3,8.3c0,0.2-0.3,0.4-0.6,0.4c-0.3,0-0.6-0.2-0.6-0.4c0-0.2,0.3-0.4,0.6-0.4C11.1,7.9,11.3,8.1,11.3,8.3"
	/>
<path fill="#B55365" d="M10.7,13.8c-2.7,0-4.9-2.1-5-4.7H5.1c0.1,3,2.6,5.3,5.6,5.3s5.5-2.4,5.6-5.3h-0.6
	C15.6,11.7,13.4,13.8,10.7,13.8"/>
<path fill="#B55365" d="M10.7,3.8c2.7,0,4.9,2.1,5,4.7h0.6c-0.1-3-2.6-5.3-5.6-5.3c-3,0-5.5,2.4-5.6,5.3h0.6
	C5.9,5.9,8.1,3.8,10.7,3.8"/>
<path fill="#B55365" d="M10.7,4.8c2.1,0,3.8,1.6,3.9,3.6h0.6c-0.1-2.3-2.1-4.2-4.5-4.2c-2.4,0-4.3,1.9-4.5,4.2h0.6
	C7,6.5,8.7,4.8,10.7,4.8"/>
<path fill="#B55365" d="M10.7,12.7c-2.1,0-3.8-1.6-3.9-3.6H6.3c0.1,2.3,2.1,4.2,4.5,4.2c2.4,0,4.3-1.9,4.5-4.2h-0.6
	C14.5,11.1,12.8,12.7,10.7,12.7"/>
<path fill="#B55365" d="M10.7,11.7c-1.5,0-2.7-1.1-2.9-2.6H7.4c0.1,1.7,1.6,3.1,3.4,3.1s3.2-1.4,3.4-3.1h-0.5
	C13.4,10.5,12.2,11.7,10.7,11.7"/>
<path fill="#B55365" d="M10.7,5.9c1.5,0,2.7,1.1,2.9,2.6h0.5c-0.1-1.7-1.6-3.1-3.4-3.1C9,5.4,7.5,6.8,7.4,8.5h0.5
	C8,7,9.2,5.9,10.7,5.9"/>
<path fill="#B55365" d="M10.7,7.1c0.8,0,1.5,0.6,1.7,1.4h0.6c-0.1-1.1-1.1-2-2.2-2c-1.1,0-2.1,0.9-2.2,2h0.6
	C9.2,7.7,9.9,7.1,10.7,7.1"/>
<path fill="#B55365" d="M10.7,10.5c-0.8,0-1.5-0.6-1.7-1.4H8.5c0.1,1.1,1.1,2,2.2,2s2.1-0.9,2.2-2h-0.6
	C12.3,9.8,11.6,10.5,10.7,10.5"/>
<g>
	<g>
		<defs>
			<rect id="SVGID_15_" x="5.1" y="3.2" width="11.2" height="10.8"/>
		</defs>
		<clipPath id="SVGID_16_">
			<use xlink:href="#SVGID_15_"  overflow="visible"/>
		</clipPath>
		<path clip-path="url(#SVGID_16_)" fill="#CB2D5F" d="M5.7,9.3c0-0.1,0-0.1,0-0.2H5.1c0,0.1,0,0.1,0,0.2H5.7L5.7,9.3z"/>
		<path clip-path="url(#SVGID_16_)" fill="#CB2D5F" d="M15.7,9.1c0,0.1,0,0.1,0,0.2h0h0.6c0-0.1,0-0.1,0-0.2H15.7z"/>
		<path clip-path="url(#SVGID_16_)" fill="#CB2D5F" d="M10.7,3.4c2.9,0,5.3,2.3,5.6,5.1h0c-0.1-3-2.6-5.3-5.6-5.3
			c-3,0-5.5,2.4-5.6,5.3h0C5.4,5.6,7.8,3.4,10.7,3.4"/>
		<path clip-path="url(#SVGID_16_)" fill="#CB2D5F" d="M14.6,9.3h0.5c0-0.1,0-0.1,0-0.2h-0.6C14.6,9.1,14.6,9.2,14.6,9.3L14.6,9.3z"
			/>
		<path clip-path="url(#SVGID_16_)" fill="#CB2D5F" d="M6.8,9.3L6.8,9.3c0-0.1,0-0.1,0-0.2H6.3c0,0.1,0,0.1,0,0.2H6.8z"/>
		<path clip-path="url(#SVGID_16_)" fill="#CB2D5F" d="M13.6,9.3H14c0-0.1,0-0.1,0-0.2h-0.5C13.6,9.1,13.6,9.2,13.6,9.3L13.6,9.3z"
			/>
		<path clip-path="url(#SVGID_16_)" fill="#CB2D5F" d="M7.9,9.3L7.9,9.3c0-0.1,0-0.1,0-0.2H7.4c0,0.1,0,0.1,0,0.2H7.9z"/>
		<path clip-path="url(#SVGID_16_)" fill="#CB2D5F" d="M9.1,9.3c0.1,0.8,0.8,1.4,1.7,1.4c0.8,0,1.5-0.6,1.7-1.4h0.5
			c0-0.1,0-0.1,0-0.2h-0.6c-0.1,0.8-0.8,1.4-1.7,1.4c-0.8,0-1.5-0.6-1.7-1.4H8.5c0,0.1,0,0.1,0,0.2H9.1z"/>
		<path clip-path="url(#SVGID_16_)" fill="#CB2D5F" d="M10.7,6.5c-1.1,0-2.1,0.9-2.2,2h0c0.2-1,1.1-1.8,2.2-1.8s1.9,0.8,2.2,1.8h0
			C12.8,7.4,11.9,6.5,10.7,6.5"/>
		<path clip-path="url(#SVGID_16_)" fill="#CB2D5F" d="M10.7,5.4C9,5.4,7.5,6.8,7.4,8.5h0C7.7,6.9,9,5.6,10.7,5.6
			c1.7,0,3.1,1.3,3.3,2.9h0C13.9,6.8,12.5,5.4,10.7,5.4"/>
		<path clip-path="url(#SVGID_16_)" fill="#CB2D5F" d="M10.7,12.9c2.1,0,3.8-1.6,3.9-3.6h0c-0.2,1.9-1.9,3.4-3.9,3.4
			s-3.6-1.5-3.9-3.4h0C7,11.3,8.7,12.9,10.7,12.9"/>
		<path clip-path="url(#SVGID_16_)" fill="#CB2D5F" d="M10.7,11.9c1.5,0,2.7-1.1,2.9-2.6h0c-0.2,1.4-1.4,2.4-2.8,2.4
			c-1.4,0-2.6-1-2.8-2.4h0C8,10.7,9.2,11.9,10.7,11.9"/>
		<path clip-path="url(#SVGID_16_)" fill="#CB2D5F" d="M10.7,13.8c-2.6,0-4.7-2-5-4.5h0c0.1,2.6,2.3,4.7,5,4.7s4.9-2.1,5-4.7h0
			C15.5,11.8,13.3,13.8,10.7,13.8"/>
		<path clip-path="url(#SVGID_16_)" fill="#CB2D5F" d="M10.7,4.3c-2.4,0-4.3,1.9-4.5,4.2h0c0.2-2.2,2.1-4,4.5-4s4.2,1.8,4.5,4h0
			C15.1,6.2,13.1,4.3,10.7,4.3"/>
	</g>
</g>
<path fill="#B55365" d="M61.2,8.8c0,0.6-0.5,1.1-1.1,1.1c-0.6,0-1.1-0.5-1.1-1.1s0.5-1.1,1.1-1.1C60.7,7.6,61.2,8.2,61.2,8.8"/>
<g>
	<g>
		<defs>
			<rect id="SVGID_17_" x="59" y="8.6" width="2.2" height="1.3"/>
		</defs>
		<clipPath id="SVGID_18_">
			<use xlink:href="#SVGID_17_"  overflow="visible"/>
		</clipPath>
		<path clip-path="url(#SVGID_18_)" fill="#CB2D5F" d="M60.1,9.5c-0.6,0-1-0.4-1.1-0.9c0,0.1,0,0.1,0,0.2c0,0.6,0.5,1.1,1.1,1.1
			s1.1-0.5,1.1-1.1c0-0.1,0-0.1,0-0.2C61.1,9.1,60.6,9.5,60.1,9.5"/>
	</g>
</g>
<path fill="#DE7A9A" d="M60.7,8.3c0,0.2-0.3,0.4-0.6,0.4c-0.3,0-0.6-0.2-0.6-0.4c0-0.2,0.3-0.4,0.6-0.4C60.4,7.9,60.7,8.1,60.7,8.3"
	/>
<path fill="#B55365" d="M60.1,13.8c-2.7,0-4.9-2.1-5-4.7h-0.6c0.1,3,2.6,5.3,5.6,5.3s5.5-2.4,5.6-5.3h-0.6
	C64.9,11.7,62.8,13.8,60.1,13.8"/>
<path fill="#B55365" d="M60.1,3.8c2.7,0,4.9,2.1,5,4.7h0.6c-0.1-3-2.6-5.3-5.6-5.3c-3,0-5.5,2.4-5.6,5.3h0.6
	C55.2,5.9,57.4,3.8,60.1,3.8"/>
<path fill="#B55365" d="M60.1,4.8c2.1,0,3.8,1.6,3.9,3.6h0.6c-0.1-2.3-2.1-4.2-4.5-4.2c-2.4,0-4.3,1.9-4.5,4.2h0.6
	C56.3,6.5,58,4.8,60.1,4.8"/>
<path fill="#B55365" d="M60.1,12.7c-2.1,0-3.8-1.6-3.9-3.6h-0.6c0.1,2.3,2.1,4.2,4.5,4.2s4.3-1.9,4.5-4.2H64
	C63.8,11.1,62.1,12.7,60.1,12.7"/>
<path fill="#B55365" d="M60.1,11.7c-1.5,0-2.7-1.1-2.9-2.6h-0.5c0.1,1.7,1.6,3.1,3.4,3.1s3.2-1.4,3.4-3.1h-0.5
	C62.8,10.5,61.6,11.7,60.1,11.7"/>
<path fill="#B55365" d="M60.1,5.9c1.5,0,2.7,1.1,2.9,2.6h0.5c-0.1-1.7-1.6-3.1-3.4-3.1s-3.2,1.4-3.4,3.1h0.5
	C57.4,7,58.6,5.9,60.1,5.9"/>
<path fill="#B55365" d="M60.1,7.1c0.8,0,1.5,0.6,1.7,1.4h0.6c-0.1-1.1-1.1-2-2.2-2c-1.1,0-2.1,0.9-2.2,2h0.6
	C58.6,7.7,59.2,7.1,60.1,7.1"/>
<path fill="#B55365" d="M60.1,10.5c-0.8,0-1.5-0.6-1.7-1.4h-0.6c0.1,1.1,1.1,2,2.2,2s2.1-0.9,2.2-2h-0.6
	C61.6,9.8,60.9,10.5,60.1,10.5"/>
<g>
	<g>
		<defs>
			<rect id="SVGID_19_" x="54.5" y="3.2" width="11.2" height="10.8"/>
		</defs>
		<clipPath id="SVGID_20_">
			<use xlink:href="#SVGID_19_"  overflow="visible"/>
		</clipPath>
		<path clip-path="url(#SVGID_20_)" fill="#CB2D5F" d="M55.1,9.3c0-0.1,0-0.1,0-0.2h-0.6c0,0.1,0,0.1,0,0.2H55.1L55.1,9.3z"/>
		<path clip-path="url(#SVGID_20_)" fill="#CB2D5F" d="M65.1,9.1c0,0.1,0,0.1,0,0.2h0h0.6c0-0.1,0-0.1,0-0.2H65.1z"/>
		<path clip-path="url(#SVGID_20_)" fill="#CB2D5F" d="M60.1,3.4c2.9,0,5.3,2.3,5.6,5.1h0c-0.1-3-2.6-5.3-5.6-5.3
			c-3,0-5.5,2.4-5.6,5.3h0C54.7,5.6,57.1,3.4,60.1,3.4"/>
		<path clip-path="url(#SVGID_20_)" fill="#CB2D5F" d="M64,9.3h0.5c0-0.1,0-0.1,0-0.2H64C64,9.1,64,9.2,64,9.3L64,9.3z"/>
		<path clip-path="url(#SVGID_20_)" fill="#CB2D5F" d="M56.2,9.3L56.2,9.3c0-0.1,0-0.1,0-0.2h-0.6c0,0.1,0,0.1,0,0.2H56.2z"/>
		<path clip-path="url(#SVGID_20_)" fill="#CB2D5F" d="M62.9,9.3h0.5c0-0.1,0-0.1,0-0.2h-0.5C62.9,9.1,62.9,9.2,62.9,9.3L62.9,9.3z"
			/>
		<path clip-path="url(#SVGID_20_)" fill="#CB2D5F" d="M57.2,9.3L57.2,9.3c0-0.1,0-0.1,0-0.2h-0.5c0,0.1,0,0.1,0,0.2H57.2z"/>
		<path clip-path="url(#SVGID_20_)" fill="#CB2D5F" d="M58.4,9.3c0.1,0.8,0.8,1.4,1.7,1.4c0.8,0,1.5-0.6,1.7-1.4h0.5
			c0-0.1,0-0.1,0-0.2h-0.6c-0.1,0.8-0.8,1.4-1.7,1.4c-0.8,0-1.5-0.6-1.7-1.4h-0.6c0,0.1,0,0.1,0,0.2H58.4z"/>
		<path clip-path="url(#SVGID_20_)" fill="#CB2D5F" d="M60.1,6.5c-1.1,0-2.1,0.9-2.2,2h0c0.2-1,1.1-1.8,2.2-1.8s1.9,0.8,2.2,1.8h0
			C62.2,7.4,61.2,6.5,60.1,6.5"/>
		<path clip-path="url(#SVGID_20_)" fill="#CB2D5F" d="M60.1,5.4c-1.8,0-3.2,1.4-3.4,3.1h0c0.2-1.6,1.6-2.9,3.3-2.9s3.1,1.3,3.3,2.9
			h0C63.3,6.8,61.8,5.4,60.1,5.4"/>
		<path clip-path="url(#SVGID_20_)" fill="#CB2D5F" d="M60.1,12.9c2.1,0,3.8-1.6,3.9-3.6h0c-0.2,1.9-1.9,3.4-3.9,3.4
			s-3.6-1.5-3.9-3.4h0C56.3,11.3,58,12.9,60.1,12.9"/>
		<path clip-path="url(#SVGID_20_)" fill="#CB2D5F" d="M60.1,11.9c1.5,0,2.7-1.1,2.9-2.6h0c-0.2,1.4-1.4,2.4-2.8,2.4
			c-1.4,0-2.6-1-2.8-2.4h0C57.4,10.7,58.6,11.9,60.1,11.9"/>
		<path clip-path="url(#SVGID_20_)" fill="#CB2D5F" d="M60.1,13.8c-2.6,0-4.7-2-5-4.5h0c0.1,2.6,2.3,4.7,5,4.7s4.9-2.1,5-4.7h0
			C64.8,11.8,62.7,13.8,60.1,13.8"/>
		<path clip-path="url(#SVGID_20_)" fill="#CB2D5F" d="M60.1,4.3c-2.4,0-4.3,1.9-4.5,4.2h0c0.2-2.2,2.1-4,4.5-4s4.2,1.8,4.5,4h0
			C64.4,6.2,62.5,4.3,60.1,4.3"/>
	</g>
</g>
<path fill="#F3E5A4" d="M17.6,13.9V2.8c0-1.5,1.3-2.8,2.8-2.8h29.9c1.5,0,2.8,1.3,2.8,2.8v11.1H17.6z"/>
<g>
	<g>
		<defs>
			<rect id="SVGID_21_" x="17.6" y="12.9" width="35.5" height="1"/>
		</defs>
		<clipPath id="SVGID_22_">
			<use xlink:href="#SVGID_21_"  overflow="visible"/>
		</clipPath>
		<rect x="17.6" y="12.9" clip-path="url(#SVGID_22_)" fill="#F3E5A4" width="35.5" height="1"/>
	</g>
</g>
<path fill="#F3E5A4" d="M21.7,11.1c-1,0-1.8-0.8-1.8-1.8V4.7c0-1,0.8-1.8,1.8-1.8s1.8,0.8,1.8,1.8v4.6
	C23.5,10.2,22.7,11.1,21.7,11.1"/>
<path fill="#68111E" d="M21.7,3c0.9,0,1.7,0.8,1.7,1.7v4.6c0,0.9-0.8,1.7-1.7,1.7S20,10.2,20,9.2V4.7C20,3.7,20.8,3,21.7,3
	 M21.7,2.7c-1.1,0-2,0.9-2,2v4.6c0,1.1,0.9,2,2,2s2-0.9,2-2V4.7C23.7,3.6,22.8,2.7,21.7,2.7"/>
<g>
	<g>
		<defs>
			<rect id="SVGID_23_" x="20.1" y="3" width="3.3" height="7.7"/>
		</defs>
		<clipPath id="SVGID_24_">
			<use xlink:href="#SVGID_23_"  overflow="visible"/>
		</clipPath>
		<path clip-path="url(#SVGID_24_)" fill="#F3E5A4" d="M21.7,3c-0.7,0-1.4,0.5-1.6,1.1c0.3-0.2,0.6-0.3,0.9-0.3
			c0.9,0,1.7,0.8,1.7,1.7v4.6c0,0.2,0,0.4-0.1,0.6c0.5-0.3,0.8-0.8,0.8-1.4V4.7C23.4,3.7,22.6,3,21.7,3"/>
	</g>
</g>
<g>
	<g>
		<defs>
			<rect id="SVGID_25_" x="20" y="3" width="3.4" height="5.1"/>
		</defs>
		<clipPath id="SVGID_26_">
			<use xlink:href="#SVGID_25_"  overflow="visible"/>
		</clipPath>
		<path clip-path="url(#SVGID_26_)" fill="#F3E5A4" d="M21.7,3C20.8,3,20,3.7,20,4.7v0.1l3.4,3.4V4.7C23.4,3.7,22.6,3,21.7,3"/>
	</g>
</g>
<path fill="#DFCDD0" d="M21.7,10.2c-0.5,0-0.9-0.4-0.9-0.9c0-0.2,0.1-0.4,0.2-0.6l-0.3-0.3c-0.2,0.2-0.4,0.5-0.4,0.9
	c0,0.7,0.6,1.3,1.3,1.3c0.3,0,0.7-0.1,0.9-0.4L22.3,10C22.2,10.1,22,10.2,21.7,10.2"/>
<path fill="#A47078" d="M21.7,10.2c0.2,0,0.4-0.1,0.6-0.2l-1.3-1.3c-0.1,0.2-0.2,0.4-0.2,0.6C20.8,9.8,21.2,10.2,21.7,10.2"/>
<path fill="#8F4F58" d="M23.1,9.3c0-0.7-0.6-1.3-1.3-1.3c-0.4,0-0.7,0.2-1,0.4l0.3,0.3c0.2-0.2,0.4-0.3,0.7-0.3
	c0.5,0,0.9,0.4,0.9,0.9c0,0.3-0.1,0.5-0.3,0.7l0.3,0.3C22.9,10,23.1,9.7,23.1,9.3"/>
<path fill="#A47078" d="M22.7,9.3c0-0.5-0.4-0.9-0.9-0.9c-0.3,0-0.5,0.1-0.7,0.3l1.3,1.3C22.5,9.8,22.7,9.6,22.7,9.3"/>
<path fill="#F3E5A4" d="M27.1,11.1c-1,0-1.8-0.8-1.8-1.8V4.7c0-1,0.8-1.8,1.8-1.8s1.8,0.8,1.8,1.8v4.6
	C28.9,10.3,28.1,11.1,27.1,11.1"/>
<path fill="#68111E" d="M27.1,3c0.9,0,1.7,0.8,1.7,1.7v4.6c0,0.9-0.8,1.7-1.7,1.7c-0.9,0-1.7-0.8-1.7-1.7V4.7
	C25.4,3.7,26.1,3,27.1,3 M27.1,2.7c-1.1,0-2,0.9-2,2v4.6c0,1.1,0.9,2,2,2s2-0.9,2-2V4.7C29,3.6,28.2,2.7,27.1,2.7"/>
<g>
	<g>
		<defs>
			<rect id="SVGID_27_" x="25.5" y="3" width="3.3" height="7.7"/>
		</defs>
		<clipPath id="SVGID_28_">
			<use xlink:href="#SVGID_27_"  overflow="visible"/>
		</clipPath>
		<path clip-path="url(#SVGID_28_)" fill="#F3E5A4" d="M27.1,3c-0.7,0-1.4,0.5-1.6,1.1c0.3-0.2,0.6-0.3,0.9-0.3
			c0.9,0,1.7,0.8,1.7,1.7v4.6c0,0.2,0,0.4-0.1,0.5c0.5-0.3,0.8-0.8,0.8-1.4V4.7C28.8,3.7,28,3,27.1,3"/>
	</g>
</g>
<g>
	<g>
		<defs>
			<rect id="SVGID_29_" x="25.4" y="3" width="3.4" height="5.1"/>
		</defs>
		<clipPath id="SVGID_30_">
			<use xlink:href="#SVGID_29_"  overflow="visible"/>
		</clipPath>
		<path clip-path="url(#SVGID_30_)" fill="#F3E5A4" d="M27.1,3c-0.9,0-1.7,0.8-1.7,1.7v0.1l3.4,3.4V4.7C28.8,3.7,28,3,27.1,3"/>
	</g>
</g>
<path fill="#DFCDD0" d="M27.1,10.2c-0.5,0-0.9-0.4-0.9-0.9c0-0.2,0.1-0.4,0.2-0.6l-0.3-0.3c-0.2,0.2-0.4,0.5-0.4,0.9
	c0,0.7,0.6,1.3,1.3,1.3c0.3,0,0.7-0.1,0.9-0.4L27.7,10C27.6,10.1,27.4,10.2,27.1,10.2"/>
<path fill="#A47078" d="M27.1,10.2c0.2,0,0.4-0.1,0.6-0.2l-1.3-1.3c-0.1,0.2-0.2,0.4-0.2,0.6C26.2,9.8,26.6,10.2,27.1,10.2"/>
<path fill="#8F4F58" d="M28.4,9.3c0-0.7-0.6-1.3-1.3-1.3c-0.4,0-0.7,0.2-1,0.4l0.3,0.3c0.2-0.2,0.4-0.3,0.7-0.3
	c0.5,0,0.9,0.4,0.9,0.9c0,0.3-0.1,0.5-0.3,0.7l0.3,0.3C28.3,10,28.4,9.7,28.4,9.3"/>
<path fill="#A47078" d="M28,9.3c0-0.5-0.4-0.9-0.9-0.9c-0.3,0-0.5,0.1-0.7,0.3l1.3,1.3C27.9,9.8,28,9.6,28,9.3"/>
<path fill="#F3E5A4" d="M32.5,11.1c-1,0-1.8-0.8-1.8-1.8V4.7c0-1,0.8-1.8,1.8-1.8s1.8,0.8,1.8,1.8v4.6
	C34.3,10.3,33.5,11.1,32.5,11.1"/>
<path fill="#68111E" d="M32.5,3c0.9,0,1.7,0.8,1.7,1.7v4.6c0,0.9-0.8,1.7-1.7,1.7s-1.7-0.8-1.7-1.7V4.7C30.8,3.8,31.5,3,32.5,3
	 M32.5,2.7c-1.1,0-2,0.9-2,2v4.6c0,1.1,0.9,2,2,2s2-0.9,2-2V4.7C34.4,3.6,33.5,2.7,32.5,2.7"/>
<g>
	<g>
		<defs>
			<rect id="SVGID_31_" x="30.9" y="3" width="3.3" height="7.7"/>
		</defs>
		<clipPath id="SVGID_32_">
			<use xlink:href="#SVGID_31_"  overflow="visible"/>
		</clipPath>
		<path clip-path="url(#SVGID_32_)" fill="#F3E5A4" d="M32.5,3c-0.7,0-1.4,0.5-1.6,1.1c0.3-0.2,0.6-0.3,0.9-0.3
			c0.9,0,1.7,0.8,1.7,1.7v4.6c0,0.2,0,0.4-0.1,0.6c0.5-0.3,0.8-0.8,0.8-1.4V4.7C34.1,3.8,33.4,3,32.5,3"/>
	</g>
</g>
<g>
	<g>
		<defs>
			<rect id="SVGID_33_" x="30.8" y="3" width="3.4" height="5.1"/>
		</defs>
		<clipPath id="SVGID_34_">
			<use xlink:href="#SVGID_33_"  overflow="visible"/>
		</clipPath>
		<path clip-path="url(#SVGID_34_)" fill="#F3E5A4" d="M32.5,3c-0.9,0-1.7,0.8-1.7,1.7v0.1l3.4,3.4V4.7C34.1,3.8,33.4,3,32.5,3"/>
	</g>
</g>
<path fill="#DFCDD0" d="M32.5,10.2c-0.5,0-0.9-0.4-0.9-0.9c0-0.2,0.1-0.4,0.2-0.6l-0.3-0.3c-0.2,0.2-0.4,0.5-0.4,0.9
	c0,0.7,0.6,1.3,1.3,1.3c0.3,0,0.7-0.1,0.9-0.4L33.1,10C32.9,10.2,32.7,10.2,32.5,10.2"/>
<path fill="#A47078" d="M32.5,10.2c0.2,0,0.4-0.1,0.6-0.2l-1.3-1.3c-0.1,0.2-0.2,0.4-0.2,0.6C31.6,9.8,32,10.2,32.5,10.2"/>
<path fill="#8F4F58" d="M33.8,9.3c0-0.7-0.6-1.3-1.3-1.3c-0.4,0-0.7,0.2-1,0.4l0.3,0.3c0.2-0.2,0.4-0.3,0.7-0.3
	c0.5,0,0.9,0.4,0.9,0.9c0,0.3-0.1,0.5-0.3,0.7l0.3,0.3C33.7,10.1,33.8,9.7,33.8,9.3"/>
<path fill="#A47078" d="M33.4,9.3c0-0.5-0.4-0.9-0.9-0.9c-0.3,0-0.5,0.1-0.7,0.3l1.3,1.3C33.3,9.8,33.4,9.6,33.4,9.3"/>
<path fill="#9BB29D" d="M41.6,4.8c0,1.2-1,2.2-2.2,2.2s-2.2-1-2.2-2.2c0-1.2,1-2.2,2.2-2.2S41.6,3.6,41.6,4.8"/>
<circle fill="none" stroke="#465761" stroke-width="0.281" stroke-miterlimit="10" cx="39.4" cy="4.8" r="2.2"/>
<g>
	<g>
		<defs>
			<rect id="SVGID_35_" x="37.8" y="3" width="3.3" height="1.8"/>
		</defs>
		<clipPath id="SVGID_36_">
			<use xlink:href="#SVGID_35_"  overflow="visible"/>
		</clipPath>
		<path clip-path="url(#SVGID_36_)" fill="#465761" d="M37.8,4.8c0,0,0-0.1,0-0.2c0-0.1,0-0.4,0.1-0.6c0-0.1,0.1-0.2,0.2-0.4
			c0.1-0.1,0.2-0.2,0.3-0.3c0.1-0.1,0.3-0.2,0.5-0.2c0.2-0.1,0.3-0.1,0.5-0.1c0.2,0,0.3,0,0.5,0.1c0.2,0,0.3,0.1,0.5,0.2
			c0.1,0.1,0.3,0.2,0.3,0.3c0.1,0.1,0.2,0.2,0.2,0.4c0.1,0.2,0.1,0.4,0.1,0.6c0,0.1,0,0.2,0,0.2s0-0.1,0-0.2c0-0.1-0.1-0.3-0.2-0.5
			c-0.1-0.1-0.1-0.2-0.2-0.3c-0.1-0.1-0.2-0.2-0.3-0.3c-0.1-0.1-0.3-0.1-0.4-0.2c-0.1-0.1-0.3,0-0.5-0.1c-0.1,0-0.3,0-0.4,0.1
			c-0.1,0-0.3,0.1-0.4,0.2c-0.1,0.1-0.2,0.2-0.3,0.3C38.2,3.9,38.1,4,38,4.1c-0.1,0.2-0.2,0.4-0.2,0.5C37.8,4.7,37.8,4.8,37.8,4.8"
			/>
	</g>
</g>
<path fill="#7E7993" d="M39.2,10.2c-0.6,0.7-1.3,0.9-1.8,0.6c-0.4-0.3-0.3-1.2,0.3-1.8c0.6-0.7,1.3-0.9,1.8-0.6
	C39.9,8.7,39.8,9.5,39.2,10.2"/>
<ellipse transform="matrix(0.7679 0.6405 -0.6405 0.7679 15.0549 -22.4414)" fill="none" stroke="#473F65" stroke-width="0.195" stroke-miterlimit="10" cx="38.5" cy="9.6" rx="1" ry="1.6"/>
<g>
	<g>
		<defs>
			<rect id="SVGID_37_" x="38" y="8.3" width="1.6" height="1.6"/>
		</defs>
		<clipPath id="SVGID_38_">
			<use xlink:href="#SVGID_37_"  overflow="visible"/>
		</clipPath>
		<path clip-path="url(#SVGID_38_)" fill="#473F65" d="M38,9c0,0,0.1-0.2,0.3-0.4c0.1-0.1,0.3-0.2,0.5-0.2c0.1,0,0.2,0,0.3,0
			c0.1,0,0.2,0,0.3,0.1c0.1,0.1,0.1,0.2,0.2,0.3c0,0.1,0,0.2,0,0.3c0,0.2-0.1,0.4-0.2,0.5c-0.1,0.1-0.2,0.2-0.2,0.3
			c-0.1,0.1-0.1,0.1-0.1,0.1s0.1-0.2,0.2-0.4c0.1-0.1,0.1-0.3,0.1-0.5c0-0.1,0-0.2,0-0.3c0-0.1-0.1-0.1-0.1-0.2
			c-0.1,0-0.1-0.1-0.2-0.1c-0.1,0-0.2,0-0.3,0c-0.2,0-0.3,0.1-0.4,0.2C38.1,8.8,38,9,38,9"/>
	</g>
</g>
<path fill="#7E7993" d="M42.7,10.2c-0.6,0.7-1.3,0.9-1.8,0.6c-0.4-0.3-0.3-1.2,0.3-1.8C41.8,8.3,42.6,8,43,8.3S43.3,9.5,42.7,10.2"
	/>
<ellipse transform="matrix(0.7679 0.6405 -0.6405 0.7679 15.8698 -24.6908)" fill="none" stroke="#473F65" stroke-width="0.195" stroke-miterlimit="10" cx="42" cy="9.6" rx="1" ry="1.6"/>
<g>
	<g>
		<defs>
			<rect id="SVGID_39_" x="41.5" y="8.3" width="1.6" height="1.6"/>
		</defs>
		<clipPath id="SVGID_40_">
			<use xlink:href="#SVGID_39_"  overflow="visible"/>
		</clipPath>
		<path clip-path="url(#SVGID_40_)" fill="#473F65" d="M41.5,9c0,0,0.1-0.2,0.3-0.4c0.1-0.1,0.3-0.2,0.5-0.2c0.1,0,0.2,0,0.3,0
			c0.1,0,0.2,0,0.3,0.1c0.1,0.1,0.1,0.2,0.2,0.3c0,0.1,0,0.2,0,0.3c0,0.2-0.1,0.4-0.2,0.5c-0.1,0.1-0.2,0.2-0.2,0.3
			c-0.1,0.1-0.1,0.1-0.1,0.1s0.1-0.2,0.2-0.4C42.9,9.4,43,9.2,43,9c0-0.1,0-0.2,0-0.3c0-0.1-0.1-0.1-0.1-0.2c0,0-0.1-0.1-0.2-0.1
			c-0.1,0-0.2,0-0.3,0c-0.2,0-0.3,0.1-0.4,0.2C41.7,8.8,41.5,9,41.5,9"/>
	</g>
</g>
<path fill="#7E7993" d="M46.3,10.2c-0.6,0.7-1.3,0.9-1.8,0.6c-0.4-0.3-0.3-1.2,0.3-1.8c0.6-0.7,1.4-0.9,1.8-0.6
	C46.9,8.7,46.8,9.5,46.3,10.2"/>
<ellipse transform="matrix(0.7679 0.6405 -0.6405 0.7679 16.6848 -26.9402)" fill="none" stroke="#473F65" stroke-width="0.195" stroke-miterlimit="10" cx="45.5" cy="9.6" rx="1" ry="1.6"/>
<g>
	<g>
		<defs>
			<rect id="SVGID_41_" x="45" y="8.3" width="1.6" height="1.6"/>
		</defs>
		<clipPath id="SVGID_42_">
			<use xlink:href="#SVGID_41_"  overflow="visible"/>
		</clipPath>
		<path clip-path="url(#SVGID_42_)" fill="#473F65" d="M45,9c0,0,0.1-0.2,0.3-0.4c0.1-0.1,0.3-0.2,0.5-0.2c0.1,0,0.2,0,0.3,0
			c0.1,0,0.2,0,0.3,0.1c0.1,0.1,0.1,0.2,0.2,0.3c0,0.1,0,0.2,0,0.3c0,0.2-0.1,0.4-0.2,0.5c-0.1,0.1-0.2,0.2-0.2,0.3
			c-0.1,0.1-0.1,0.1-0.1,0.1s0.1-0.2,0.2-0.4c0.1-0.1,0.1-0.3,0.1-0.5c0-0.1,0-0.2,0-0.3c0-0.1-0.1-0.1-0.1-0.2c0,0-0.1-0.1-0.2-0.1
			c-0.1,0-0.2,0-0.3,0c-0.2,0-0.3,0.1-0.4,0.2C45.2,8.8,45,9,45,9"/>
	</g>
</g>
<path fill="#7E7993" d="M49.8,10.2c-0.6,0.7-1.3,0.9-1.8,0.6c-0.4-0.3-0.3-1.2,0.3-1.8c0.6-0.7,1.4-0.9,1.8-0.6S50.3,9.5,49.8,10.2"
	/>
<ellipse transform="matrix(0.7679 0.6405 -0.6405 0.7679 17.4998 -29.1895)" fill="none" stroke="#473F65" stroke-width="0.195" stroke-miterlimit="10" cx="49" cy="9.6" rx="1" ry="1.6"/>
<g>
	<g>
		<defs>
			<rect id="SVGID_43_" x="48.5" y="8.3" width="1.6" height="1.6"/>
		</defs>
		<clipPath id="SVGID_44_">
			<use xlink:href="#SVGID_43_"  overflow="visible"/>
		</clipPath>
		<path clip-path="url(#SVGID_44_)" fill="#473F65" d="M48.5,9c0,0,0.1-0.2,0.3-0.4c0.1-0.1,0.3-0.2,0.5-0.2c0.1,0,0.2,0,0.3,0
			c0.1,0,0.2,0,0.3,0.1c0.1,0.1,0.1,0.2,0.2,0.3c0,0.1,0,0.2,0,0.3c0,0.2-0.1,0.4-0.2,0.5c-0.1,0.1-0.2,0.2-0.2,0.3
			c-0.1,0.1-0.1,0.1-0.1,0.1s0.1-0.2,0.2-0.4C50,9.4,50,9.2,50,9c0-0.1,0-0.2,0-0.3c0-0.1-0.1-0.1-0.1-0.2c0,0-0.1-0.1-0.2-0.1
			c-0.1,0-0.2,0-0.3,0c-0.2,0-0.3,0.1-0.4,0.2C48.7,8.8,48.5,9,48.5,9"/>
	</g>
</g>
<rect x="43.1" y="2.7" fill="#231F20" width="7" height="4.2"/>
<g>
	<g>
		<defs>
			<rect id="SVGID_45_" x="43.1" y="2.7" width="7" height="4.2"/>
		</defs>
		<clipPath id="SVGID_46_">
			<use xlink:href="#SVGID_45_"  overflow="visible"/>
		</clipPath>
		<polygon clip-path="url(#SVGID_46_)" fill="#231F20" points="43.1,2.7 50.1,2.7 50.1,6.8 		"/>
	</g>
</g>
<path fill="#929493" d="M49.5,6.3h-5.9v-3h5.9V6.3z M50.1,2.7h-7v4.2h7V2.7z"/>
</svg>
