<?xml version="1.0" encoding="utf-8"?>
<!-- Generator: Adobe Illustrator 15.0.2, SVG Export Plug-In . SVG Version: 6.00 Build 0)  -->
<!DOCTYPE svg PUBLIC "-//W3C//DTD SVG 1.1//EN" "http://www.w3.org/Graphics/SVG/1.1/DTD/svg11.dtd">
<svg version="1.1" id="Layer_1" xmlns="http://www.w3.org/2000/svg" xmlns:xlink="http://www.w3.org/1999/xlink" x="0px" y="0px"
	 width="45.7px" height="82.2px" viewBox="0 0 45.7 82.2" enable-background="new 0 0 45.7 82.2" xml:space="preserve">
<rect x="14.7" y="32" fill="#636B62" width="16.3" height="2.6"/>
<rect x="18.4" y="32" fill="#929791" width="4.4" height="2.6"/>
<line fill="none" stroke="#BDBCBC" stroke-width="1.396" stroke-miterlimit="10" x1="22.8" y1="9.4" x2="22.8" y2="2.3"/>
<path fill="#B52126" d="M20.4,11.9c0-1.8,1.1-3.2,2.4-3.2c-1.9,0-3.4,1.5-3.4,3.2c0,1.8,1.5,3.2,3.4,3.2
	C21.5,15.2,20.4,13.7,20.4,11.9"/>
<path fill="#B52126" d="M22.8,8.7c1.3,0,2.4,1.5,2.4,3.2c0,1.8-1.1,3.2-2.4,3.2c1.9,0,3.4-1.5,3.4-3.2C26.2,10.1,24.7,8.7,22.8,8.7"
	/>
<path fill="#C14549" d="M25.3,11.9c0-1.8-1.1-3.2-2.4-3.2c-1.3,0-2.4,1.5-2.4,3.2c0,1.8,1.1,3.2,2.4,3.2
	C24.2,15.2,25.3,13.7,25.3,11.9"/>
<path fill="#DE9DA0" d="M21.4,11.9c0-1.7,0.6-3.1,1.4-3.2c0,0-0.1,0-0.1,0c-1,0-1.8,1.5-1.8,3.2c0,1.8,0.8,3.2,1.8,3.2
	c0,0,0.1,0,0.1,0C22.1,15.1,21.4,13.7,21.4,11.9"/>
<path fill="#727A72" d="M15.6,12.5c0-1.2,3.3-2.1,7.3-2.1c-5.6,0-10.1,1-10.1,2.1c0,1.2,4.5,2.1,10.1,2.1
	C18.8,14.6,15.6,13.7,15.6,12.5"/>
<path fill="#727A72" d="M22.8,10.4c4,0,7.3,1,7.3,2.1c0,1.2-3.3,2.1-7.3,2.1c5.6,0,10.1-1,10.1-2.1C32.9,11.3,28.4,10.4,22.8,10.4"
	/>
<path fill="#8A9089" d="M30.1,12.5c0-1.2-3.3-2.1-7.3-2.1c-4,0-7.3,1-7.3,2.1c0,1.2,3.3,2.1,7.3,2.1C26.9,14.6,30.1,13.7,30.1,12.5"
	/>
<path fill="#C1C4C0" d="M18.7,12.5c0-1.1,1.9-2,4.2-2.1c-0.1,0-0.2,0-0.4,0c-3,0-5.4,1-5.4,2.1c0,1.2,2.4,2.1,5.4,2.1
	c0.1,0,0.2,0,0.4,0C20.5,14.5,18.7,13.6,18.7,12.5"/>
<rect x="10.3" y="12.2" fill="#636B62" width="25.1" height="19.7"/>
<polygon fill="#A82526" points="10.3,24.5 6.6,23.5 6.6,19.2 10.3,18.2 "/>
<polygon fill="#A82526" points="35.4,24.5 39,23.5 39,19.2 35.4,18.2 "/>
<rect x="13.5" y="25.7" fill="#929791" width="18.7" height="4.2"/>
<rect x="14.7" y="26.6" fill="#303531" width="1.6" height="2.4"/>
<rect x="17.1" y="26.6" fill="#303531" width="1.6" height="2.4"/>
<rect x="19.6" y="26.6" fill="#303531" width="1.6" height="2.4"/>
<rect x="22" y="26.6" fill="#303531" width="1.6" height="2.4"/>
<rect x="24.5" y="26.6" fill="#303531" width="1.6" height="2.4"/>
<rect x="26.9" y="26.6" fill="#303531" width="1.6" height="2.4"/>
<rect x="29.4" y="26.6" fill="#303531" width="1.6" height="2.4"/>
<g opacity="0.3">
	<g>
		<defs>
			<rect id="SVGID_1_" x="20.7" y="20.4" width="2.1" height="4.1"/>
		</defs>
		<clipPath id="SVGID_2_">
			<use xlink:href="#SVGID_1_"  overflow="visible"/>
		</clipPath>
		<polygon clip-path="url(#SVGID_2_)" fill="#636B62" points="22.8,20.4 22.8,24.5 20.7,23.4 21.2,21.8 		"/>
	</g>
</g>
<g opacity="0.3">
	<g>
		<defs>
			<rect id="SVGID_3_" x="22.8" y="20.4" width="2.1" height="4.1"/>
		</defs>
		<clipPath id="SVGID_4_">
			<use xlink:href="#SVGID_3_"  overflow="visible"/>
		</clipPath>
		<polygon clip-path="url(#SVGID_4_)" fill="#636B62" points="22.8,20.4 22.8,24.5 25,23.4 24.5,21.8 		"/>
	</g>
</g>
<circle fill="none" stroke="#231F20" stroke-width="1.117" stroke-miterlimit="10" cx="16.8" cy="19.2" r="2.7"/>
<path fill="#C8C7C7" d="M18.8,19.2c0,1.1-0.9,1.9-1.9,1.9s-1.9-0.9-1.9-1.9c0-1.1,0.9-1.9,1.9-1.9S18.8,18.2,18.8,19.2"/>
<g>
	<g>
		<defs>
			<rect id="SVGID_5_" x="14.1" y="19" width="5.5" height="3"/>
		</defs>
		<clipPath id="SVGID_6_">
			<use xlink:href="#SVGID_5_"  overflow="visible"/>
		</clipPath>
		<path clip-path="url(#SVGID_6_)" fill="#231F20" d="M16.8,21.4c-1.2,0-2.1-0.9-2.2-2.1c-0.2-0.1-0.4-0.3-0.6-0.4
			c0,0.1,0,0.2,0,0.3c0,1.5,1.2,2.7,2.7,2.7c1.5,0,2.7-1.2,2.7-2.7c0-0.1,0-0.1,0-0.2c-0.2,0.1-0.3,0.3-0.6,0.4
			C18.9,20.5,18,21.4,16.8,21.4"/>
	</g>
</g>
<g>
	<g>
		<defs>
			<rect id="SVGID_7_" x="14.1" y="16.5" width="5.5" height="2.9"/>
		</defs>
		<clipPath id="SVGID_8_">
			<use xlink:href="#SVGID_7_"  overflow="visible"/>
		</clipPath>
		<path clip-path="url(#SVGID_8_)" fill="#231F20" d="M16.8,16.5c-1.4,0-2.6,1.1-2.7,2.5c0.2,0.1,0.3,0.3,0.6,0.4c0,0,0-0.1,0-0.1
			c0-1.2,1-2.2,2.2-2.2c1.2,0,2.2,1,2.2,2.2c0,0.1,0,0.1,0,0.2c0.2-0.1,0.4-0.2,0.6-0.4C19.5,17.6,18.3,16.5,16.8,16.5"/>
	</g>
</g>
<circle fill="none" stroke="#231F20" stroke-width="1.117" stroke-miterlimit="10" cx="28.8" cy="19.2" r="2.7"/>
<path fill="#C8C7C7" d="M30.8,19.2c0,1.1-0.9,1.9-1.9,1.9s-1.9-0.9-1.9-1.9c0-1.1,0.9-1.9,1.9-1.9S30.8,18.2,30.8,19.2"/>
<g>
	<g>
		<defs>
			<rect id="SVGID_9_" x="26.1" y="19" width="5.5" height="3"/>
		</defs>
		<clipPath id="SVGID_10_">
			<use xlink:href="#SVGID_9_"  overflow="visible"/>
		</clipPath>
		<path clip-path="url(#SVGID_10_)" fill="#231F20" d="M28.8,21.4c-1.2,0-2.1-0.9-2.2-2.1c-0.2-0.1-0.4-0.3-0.6-0.4
			c0,0.1,0,0.2,0,0.3c0,1.5,1.2,2.7,2.7,2.7c1.5,0,2.7-1.2,2.7-2.7c0-0.1,0-0.1,0-0.2c-0.2,0.1-0.3,0.3-0.6,0.4
			C30.9,20.5,30,21.4,28.8,21.4"/>
	</g>
</g>
<g>
	<g>
		<defs>
			<rect id="SVGID_11_" x="26.1" y="16.5" width="5.5" height="2.9"/>
		</defs>
		<clipPath id="SVGID_12_">
			<use xlink:href="#SVGID_11_"  overflow="visible"/>
		</clipPath>
		<path clip-path="url(#SVGID_12_)" fill="#231F20" d="M28.8,16.5c-1.4,0-2.6,1.1-2.7,2.5c0.2,0.1,0.3,0.3,0.6,0.4c0,0,0-0.1,0-0.1
			c0-1.2,1-2.2,2.2-2.2s2.2,1,2.2,2.2c0,0.1,0,0.1,0,0.2c0.2-0.1,0.4-0.2,0.6-0.4C31.5,17.6,30.3,16.5,28.8,16.5"/>
	</g>
</g>
<path fill="#B52126" d="M24.2,1.4c0,0.8-0.6,1.4-1.4,1.4s-1.4-0.6-1.4-1.4c0-0.8,0.6-1.4,1.4-1.4S24.2,0.6,24.2,1.4"/>
<path fill="#DE9DA0" d="M22.8,0.9c0,0.3-0.2,0.5-0.5,0.5c-0.3,0-0.5-0.2-0.5-0.5c0-0.3,0.2-0.5,0.5-0.5C22.6,0.5,22.8,0.7,22.8,0.9"
	/>
<g>
	<g>
		<defs>
			<rect id="SVGID_13_" x="14.7" y="31.9" width="16.3" height="0.6"/>
		</defs>
		<clipPath id="SVGID_14_">
			<use xlink:href="#SVGID_13_"  overflow="visible"/>
		</clipPath>
		<path clip-path="url(#SVGID_14_)" fill="#747B73" d="M14.7,31.9c0,0,4.1,0,8.1,0l8.1,0V32c0,0-0.3,0-0.7,0.1
			c-0.4,0-1.1,0.1-1.8,0.2c-0.8,0-1.7,0.1-2.6,0.1c-1,0-2,0-3,0.1c-1,0-2,0-3-0.1c-1,0-1.8-0.1-2.6-0.1c-0.8,0-1.4-0.1-1.8-0.2
			C14.9,32,14.7,32,14.7,31.9L14.7,31.9z"/>
	</g>
</g>
<rect x="8.5" y="34.3" fill="#636B62" width="28.8" height="23"/>
<path fill="#D0D3D0" d="M8.5,34.2c0,0,7.2,0,14.4,0c7.2,0,14.4,0,14.4,0v0.1c0,0-0.4,0-1.2,0.1c-0.8,0-1.9,0.1-3.3,0.2
	c-1.3,0-2.9,0.1-4.6,0.1c-1.7,0-3.5,0-5.3,0.1c-1.8,0-3.6,0-5.3-0.1c-1.7,0-3.3-0.1-4.6-0.1c-1.3,0-2.5-0.1-3.3-0.2
	C8.9,34.3,8.5,34.3,8.5,34.2L8.5,34.2z"/>
<g opacity="0.3">
	<g>
		<defs>
			<rect id="SVGID_15_" x="11.1" y="37.1" width="10.4" height="17.4"/>
		</defs>
		<clipPath id="SVGID_16_">
			<use xlink:href="#SVGID_15_"  overflow="visible"/>
		</clipPath>
		<polygon clip-path="url(#SVGID_16_)" fill="#636B62" points="21.5,54.4 11.1,54.4 21.5,37.1 		"/>
	</g>
</g>
<g opacity="0.3">
	<g>
		<defs>
			<rect id="SVGID_17_" x="11.1" y="37.1" width="10.4" height="17.4"/>
		</defs>
		<clipPath id="SVGID_18_">
			<use xlink:href="#SVGID_17_"  overflow="visible"/>
		</clipPath>
		<polygon clip-path="url(#SVGID_18_)" fill="#636B62" points="11.1,37.1 21.5,37.1 11.1,54.4 		"/>
	</g>
</g>
<rect x="12.4" y="38.1" fill="#636B62" width="8.4" height="14.1"/>
<circle fill="none" stroke="#231F20" stroke-width="0.464" stroke-miterlimit="10" cx="14.9" cy="41.1" r="1.1"/>
<g>
	<g>
		<defs>
			<rect id="SVGID_19_" x="13.7" y="41" width="2.3" height="1.2"/>
		</defs>
		<clipPath id="SVGID_20_">
			<use xlink:href="#SVGID_19_"  overflow="visible"/>
		</clipPath>
		<path clip-path="url(#SVGID_20_)" fill="#231F20" d="M14.9,42c-0.5,0-0.9-0.4-0.9-0.9c-0.1,0-0.2-0.1-0.2-0.2c0,0,0,0.1,0,0.1
			c0,0.6,0.5,1.1,1.1,1.1c0.6,0,1.1-0.5,1.1-1.1c0,0,0-0.1,0-0.1c-0.1,0.1-0.1,0.1-0.2,0.2C15.7,41.6,15.3,42,14.9,42"/>
	</g>
</g>
<g>
	<g>
		<defs>
			<rect id="SVGID_21_" x="13.7" y="39.9" width="2.3" height="1.2"/>
		</defs>
		<clipPath id="SVGID_22_">
			<use xlink:href="#SVGID_21_"  overflow="visible"/>
		</clipPath>
		<path clip-path="url(#SVGID_22_)" fill="#231F20" d="M14.9,39.9c-0.6,0-1.1,0.5-1.1,1c0.1,0.1,0.1,0.1,0.2,0.2c0,0,0,0,0-0.1
			c0-0.5,0.4-0.9,0.9-0.9s0.9,0.4,0.9,0.9c0,0,0,0,0,0.1c0.1,0,0.2-0.1,0.2-0.2C15.9,40.4,15.5,39.9,14.9,39.9"/>
	</g>
</g>
<path fill="#73A3B8" d="M15.8,41.1c0,0.5-0.4,0.9-0.9,0.9s-0.9-0.4-0.9-0.9c0-0.5,0.4-0.9,0.9-0.9S15.8,40.6,15.8,41.1"/>
<circle fill="none" stroke="#231F20" stroke-width="0.464" stroke-miterlimit="10" cx="18.4" cy="41.1" r="1.1"/>
<g>
	<g>
		<defs>
			<rect id="SVGID_23_" x="17.3" y="41" width="2.3" height="1.2"/>
		</defs>
		<clipPath id="SVGID_24_">
			<use xlink:href="#SVGID_23_"  overflow="visible"/>
		</clipPath>
		<path clip-path="url(#SVGID_24_)" fill="#231F20" d="M18.4,42c-0.5,0-0.9-0.4-0.9-0.9c-0.1,0-0.2-0.1-0.2-0.2c0,0,0,0.1,0,0.1
			c0,0.6,0.5,1.1,1.1,1.1c0.6,0,1.1-0.5,1.1-1.1c0,0,0-0.1,0-0.1c-0.1,0.1-0.1,0.1-0.2,0.2C19.3,41.6,18.9,42,18.4,42"/>
	</g>
</g>
<g>
	<g>
		<defs>
			<rect id="SVGID_25_" x="17.3" y="39.9" width="2.3" height="1.2"/>
		</defs>
		<clipPath id="SVGID_26_">
			<use xlink:href="#SVGID_25_"  overflow="visible"/>
		</clipPath>
		<path clip-path="url(#SVGID_26_)" fill="#231F20" d="M18.4,39.9c-0.6,0-1.1,0.5-1.1,1c0.1,0.1,0.1,0.1,0.2,0.2c0,0,0,0,0-0.1
			c0-0.5,0.4-0.9,0.9-0.9c0.5,0,0.9,0.4,0.9,0.9c0,0,0,0,0,0.1c0.1,0,0.2-0.1,0.2-0.2C19.5,40.4,19,39.9,18.4,39.9"/>
	</g>
</g>
<path fill="#9A95AA" d="M19.4,41.1c0,0.5-0.4,0.9-0.9,0.9s-0.9-0.4-0.9-0.9c0-0.5,0.4-0.9,0.9-0.9S19.4,40.6,19.4,41.1"/>
<path fill="#E4E4E4" d="M13.2,49.5c0-1.9,1.6-3.5,3.5-3.5s3.5,1.6,3.5,3.5H13.2z"/>
<path fill="none" stroke="#B2B1B1" stroke-width="0.279" stroke-miterlimit="10" d="M13.2,49.5c0-1.9,1.6-3.5,3.5-3.5
	s3.5,1.6,3.5,3.5H13.2z"/>
<line fill="none" stroke="#4F4C4D" stroke-width="0.125" stroke-miterlimit="10" x1="19.6" y1="49" x2="19" y2="49"/>
<line fill="none" stroke="#4F4C4D" stroke-width="0.125" stroke-miterlimit="10" x1="19.5" y1="48.5" x2="19" y2="48.6"/>
<line fill="none" stroke="#4F4C4D" stroke-width="0.125" stroke-miterlimit="10" x1="19.3" y1="48" x2="18.8" y2="48.2"/>
<line fill="none" stroke="#4F4C4D" stroke-width="0.125" stroke-miterlimit="10" x1="19" y1="47.5" x2="18.6" y2="47.8"/>
<line fill="none" stroke="#4F4C4D" stroke-width="0.125" stroke-miterlimit="10" x1="18.6" y1="47.1" x2="18.3" y2="47.4"/>
<line fill="none" stroke="#4F4C4D" stroke-width="0.125" stroke-miterlimit="10" x1="18.1" y1="46.7" x2="17.9" y2="47.2"/>
<line fill="none" stroke="#4F4C4D" stroke-width="0.125" stroke-miterlimit="10" x1="17.6" y1="46.5" x2="17.4" y2="47"/>
<line fill="none" stroke="#4F4C4D" stroke-width="0.125" stroke-miterlimit="10" x1="17" y1="46.4" x2="16.9" y2="46.9"/>
<line fill="none" stroke="#4F4C4D" stroke-width="0.125" stroke-miterlimit="10" x1="16.4" y1="46.4" x2="16.4" y2="46.9"/>
<line fill="none" stroke="#4F4C4D" stroke-width="0.125" stroke-miterlimit="10" x1="15.8" y1="46.5" x2="15.9" y2="46.9"/>
<line fill="none" stroke="#4F4C4D" stroke-width="0.125" stroke-miterlimit="10" x1="15.2" y1="46.7" x2="15.5" y2="47.1"/>
<line fill="none" stroke="#4F4C4D" stroke-width="0.125" stroke-miterlimit="10" x1="14.7" y1="47" x2="15" y2="47.4"/>
<line fill="none" stroke="#4F4C4D" stroke-width="0.125" stroke-miterlimit="10" x1="14.3" y1="47.4" x2="14.7" y2="47.7"/>
<line fill="none" stroke="#4F4C4D" stroke-width="0.125" stroke-miterlimit="10" x1="14" y1="47.9" x2="14.4" y2="48.1"/>
<line fill="none" stroke="#4F4C4D" stroke-width="0.125" stroke-miterlimit="10" x1="13.8" y1="48.4" x2="14.3" y2="48.5"/>
<line fill="none" stroke="#4F4C4D" stroke-width="0.125" stroke-miterlimit="10" x1="13.7" y1="49" x2="14.2" y2="49"/>
<path fill="#4F4C4D" d="M16.9,49.2c0,0.2-0.2,0.4-0.4,0.4c-0.2,0-0.4-0.2-0.4-0.4c0-0.2,0.2-0.4,0.4-0.4
	C16.8,48.9,16.9,49,16.9,49.2"/>
<line fill="none" stroke="#A82526" stroke-width="0.279" stroke-miterlimit="10" x1="16.6" y1="49.2" x2="17.9" y2="47"/>
<path fill="#918F90" d="M16.8,49.2c0,0.1-0.1,0.2-0.2,0.2c-0.1,0-0.2-0.1-0.2-0.2c0-0.1,0.1-0.2,0.2-0.2
	C16.7,49,16.8,49.1,16.8,49.2"/>
<g opacity="0.3">
	<g>
		<defs>
			<rect id="SVGID_27_" x="24.2" y="37.1" width="10.4" height="17.4"/>
		</defs>
		<clipPath id="SVGID_28_">
			<use xlink:href="#SVGID_27_"  overflow="visible"/>
		</clipPath>
		<polygon clip-path="url(#SVGID_28_)" fill="#636B62" points="24.2,54.4 34.6,54.4 24.2,37.1 		"/>
	</g>
</g>
<g opacity="0.3">
	<g>
		<defs>
			<rect id="SVGID_29_" x="24.2" y="37.1" width="10.4" height="17.4"/>
		</defs>
		<clipPath id="SVGID_30_">
			<use xlink:href="#SVGID_29_"  overflow="visible"/>
		</clipPath>
		<polygon clip-path="url(#SVGID_30_)" fill="#636B62" points="34.6,37.1 24.2,37.1 34.6,54.4 		"/>
	</g>
</g>
<rect x="24.8" y="38.1" fill="#636B62" width="8.4" height="14.1"/>
<circle fill="none" stroke="#231F20" stroke-width="0.464" stroke-miterlimit="10" cx="30.8" cy="41.1" r="1.1"/>
<g>
	<g>
		<defs>
			<rect id="SVGID_31_" x="29.7" y="41" width="2.3" height="1.2"/>
		</defs>
		<clipPath id="SVGID_32_">
			<use xlink:href="#SVGID_31_"  overflow="visible"/>
		</clipPath>
		<path clip-path="url(#SVGID_32_)" fill="#231F20" d="M30.8,42c0.5,0,0.9-0.4,0.9-0.9c0.1,0,0.2-0.1,0.2-0.2c0,0,0,0.1,0,0.1
			c0,0.6-0.5,1.1-1.1,1.1c-0.6,0-1.1-0.5-1.1-1.1c0,0,0-0.1,0-0.1c0.1,0.1,0.1,0.1,0.2,0.2C30,41.6,30.3,42,30.8,42"/>
	</g>
</g>
<g>
	<g>
		<defs>
			<rect id="SVGID_33_" x="29.7" y="39.9" width="2.3" height="1.2"/>
		</defs>
		<clipPath id="SVGID_34_">
			<use xlink:href="#SVGID_33_"  overflow="visible"/>
		</clipPath>
		<path clip-path="url(#SVGID_34_)" fill="#231F20" d="M30.8,39.9c0.6,0,1.1,0.5,1.1,1c-0.1,0.1-0.1,0.1-0.2,0.2c0,0,0,0,0-0.1
			c0-0.5-0.4-0.9-0.9-0.9s-0.9,0.4-0.9,0.9c0,0,0,0,0,0.1c-0.1,0-0.2-0.1-0.2-0.2C29.7,40.4,30.2,39.9,30.8,39.9"/>
	</g>
</g>
<path fill="#73A3B8" d="M29.9,41.1c0,0.5,0.4,0.9,0.9,0.9c0.5,0,0.9-0.4,0.9-0.9c0-0.5-0.4-0.9-0.9-0.9
	C30.3,40.1,29.9,40.6,29.9,41.1"/>
<circle fill="none" stroke="#231F20" stroke-width="0.464" stroke-miterlimit="10" cx="27.3" cy="41.1" r="1.1"/>
<g>
	<g>
		<defs>
			<rect id="SVGID_35_" x="26.1" y="41" width="2.3" height="1.2"/>
		</defs>
		<clipPath id="SVGID_36_">
			<use xlink:href="#SVGID_35_"  overflow="visible"/>
		</clipPath>
		<path clip-path="url(#SVGID_36_)" fill="#231F20" d="M27.3,42c0.5,0,0.9-0.4,0.9-0.9c0.1,0,0.2-0.1,0.2-0.2c0,0,0,0.1,0,0.1
			c0,0.6-0.5,1.1-1.1,1.1c-0.6,0-1.1-0.5-1.1-1.1c0,0,0-0.1,0-0.1c0.1,0.1,0.1,0.1,0.2,0.2C26.4,41.6,26.8,42,27.3,42"/>
	</g>
</g>
<g>
	<g>
		<defs>
			<rect id="SVGID_37_" x="26.1" y="39.9" width="2.3" height="1.2"/>
		</defs>
		<clipPath id="SVGID_38_">
			<use xlink:href="#SVGID_37_"  overflow="visible"/>
		</clipPath>
		<path clip-path="url(#SVGID_38_)" fill="#231F20" d="M27.3,39.9c0.6,0,1.1,0.5,1.1,1c-0.1,0.1-0.1,0.1-0.2,0.2c0,0,0,0,0-0.1
			c0-0.5-0.4-0.9-0.9-0.9c-0.5,0-0.9,0.4-0.9,0.9c0,0,0,0,0,0.1c-0.1,0-0.2-0.1-0.2-0.2C26.2,40.4,26.7,39.9,27.3,39.9"/>
	</g>
</g>
<path fill="#9A95AA" d="M26.3,41.1c0,0.5,0.4,0.9,0.9,0.9s0.9-0.4,0.9-0.9c0-0.5-0.4-0.9-0.9-0.9S26.3,40.6,26.3,41.1"/>
<path fill="#E4E4E4" d="M32.5,49.5c0-1.9-1.6-3.5-3.5-3.5s-3.5,1.6-3.5,3.5H32.5z"/>
<path fill="none" stroke="#B2B1B1" stroke-width="0.279" stroke-miterlimit="10" d="M32.5,49.5c0-1.9-1.6-3.5-3.5-3.5
	s-3.5,1.6-3.5,3.5H32.5z"/>
<line fill="none" stroke="#4F4C4D" stroke-width="0.125" stroke-miterlimit="10" x1="26.1" y1="49" x2="26.6" y2="49"/>
<line fill="none" stroke="#4F4C4D" stroke-width="0.125" stroke-miterlimit="10" x1="26.2" y1="48.5" x2="26.7" y2="48.6"/>
<line fill="none" stroke="#4F4C4D" stroke-width="0.125" stroke-miterlimit="10" x1="26.4" y1="48" x2="26.8" y2="48.2"/>
<line fill="none" stroke="#4F4C4D" stroke-width="0.125" stroke-miterlimit="10" x1="26.7" y1="47.5" x2="27.1" y2="47.8"/>
<line fill="none" stroke="#4F4C4D" stroke-width="0.125" stroke-miterlimit="10" x1="27.1" y1="47.1" x2="27.4" y2="47.4"/>
<line fill="none" stroke="#4F4C4D" stroke-width="0.125" stroke-miterlimit="10" x1="27.6" y1="46.7" x2="27.8" y2="47.2"/>
<line fill="none" stroke="#4F4C4D" stroke-width="0.125" stroke-miterlimit="10" x1="28.1" y1="46.5" x2="28.3" y2="47"/>
<line fill="none" stroke="#4F4C4D" stroke-width="0.125" stroke-miterlimit="10" x1="28.7" y1="46.4" x2="28.8" y2="46.9"/>
<line fill="none" stroke="#4F4C4D" stroke-width="0.125" stroke-miterlimit="10" x1="29.3" y1="46.4" x2="29.3" y2="46.9"/>
<line fill="none" stroke="#4F4C4D" stroke-width="0.125" stroke-miterlimit="10" x1="29.9" y1="46.5" x2="29.8" y2="46.9"/>
<line fill="none" stroke="#4F4C4D" stroke-width="0.125" stroke-miterlimit="10" x1="30.5" y1="46.7" x2="30.2" y2="47.1"/>
<line fill="none" stroke="#4F4C4D" stroke-width="0.125" stroke-miterlimit="10" x1="31" y1="47" x2="30.6" y2="47.4"/>
<line fill="none" stroke="#4F4C4D" stroke-width="0.125" stroke-miterlimit="10" x1="31.4" y1="47.4" x2="31" y2="47.7"/>
<line fill="none" stroke="#4F4C4D" stroke-width="0.125" stroke-miterlimit="10" x1="31.7" y1="47.9" x2="31.2" y2="48.1"/>
<line fill="none" stroke="#4F4C4D" stroke-width="0.125" stroke-miterlimit="10" x1="31.9" y1="48.4" x2="31.4" y2="48.5"/>
<line fill="none" stroke="#4F4C4D" stroke-width="0.125" stroke-miterlimit="10" x1="32" y1="49" x2="31.4" y2="49"/>
<path fill="#4F4C4D" d="M28.7,49.2c0,0.2,0.2,0.4,0.4,0.4s0.4-0.2,0.4-0.4c0-0.2-0.2-0.4-0.4-0.4S28.7,49,28.7,49.2"/>
<line fill="none" stroke="#A82526" stroke-width="0.279" stroke-miterlimit="10" x1="29.1" y1="49.2" x2="27.8" y2="47"/>
<path fill="#918F90" d="M28.8,49.2c0,0.1,0.1,0.2,0.2,0.2c0.1,0,0.2-0.1,0.2-0.2c0-0.1-0.1-0.2-0.2-0.2C28.9,49,28.8,49.1,28.8,49.2
	"/>
<rect x="11.1" y="57.2" fill="#A82526" width="23.5" height="2"/>
<rect x="16.4" y="57.2" fill="#C26767" width="6.4" height="2"/>
<g>
	<g>
		<defs>
			<rect id="SVGID_39_" x="11.1" y="57.2" width="23.5" height="0.6"/>
		</defs>
		<clipPath id="SVGID_40_">
			<use xlink:href="#SVGID_39_"  overflow="visible"/>
		</clipPath>
		<path clip-path="url(#SVGID_40_)" fill="#747B73" d="M11.1,57.2c0,0,5.9,0,11.7,0c5.9,0,11.7,0,11.7,0v0.1c0,0-0.4,0-1,0.1
			c-0.6,0-1.6,0.1-2.7,0.2c-1.1,0-2.4,0.1-3.8,0.2c-1.4,0-2.8,0-4.3,0.1c-1.5,0-2.9,0-4.3-0.1c-1.4,0-2.7-0.1-3.8-0.2
			c-1.1,0-2-0.1-2.7-0.2C11.5,57.3,11.1,57.3,11.1,57.2L11.1,57.2z"/>
	</g>
</g>
<rect x="11.5" y="59.2" fill="#636B62" width="10.5" height="19"/>
<rect x="11.1" y="66.1" fill="#636B62" width="11.3" height="3.5"/>
<g>
	<g>
		<defs>
			<rect id="SVGID_41_" x="11.6" y="65.9" width="10.4" height="0.3"/>
		</defs>
		<clipPath id="SVGID_42_">
			<use xlink:href="#SVGID_41_"  overflow="visible"/>
		</clipPath>
		<path clip-path="url(#SVGID_42_)" fill="#636B62" d="M11.6,66.1c0,0,0.6-0.1,1.6-0.1c0.5,0,1.1-0.1,1.7-0.1c0.6,0,1.3,0,1.9,0
			c0.6,0,1.3,0,1.9,0c0.6,0,1.2,0.1,1.7,0.1c1,0.1,1.6,0.1,1.6,0.1v0L11.6,66.1L11.6,66.1z"/>
	</g>
</g>
<g opacity="0.4">
	<g>
		<defs>
			<rect id="SVGID_43_" x="11.6" y="69.5" width="10.4" height="0.8"/>
		</defs>
		<clipPath id="SVGID_44_">
			<use xlink:href="#SVGID_43_"  overflow="visible"/>
		</clipPath>
		<path clip-path="url(#SVGID_44_)" fill="#636B62" d="M11.6,69.6c0,0,2.6,0,5.2,0c2.6,0,5.2,0,5.2,0v0.1c0,0-0.2,0.1-0.4,0.1
			c-0.3,0.1-0.7,0.2-1.2,0.3c-0.5,0.1-1.1,0.2-1.7,0.2c-0.6,0.1-1.3,0.1-1.9,0.1c-0.6,0-1.3,0-1.9-0.1c-0.6,0-1.2-0.1-1.7-0.2
			c-0.5-0.1-0.9-0.2-1.2-0.3C11.8,69.7,11.6,69.7,11.6,69.6L11.6,69.6z"/>
	</g>
</g>
<g>
	<g>
		<defs>
			<rect id="SVGID_45_" x="16.6" y="59.2" width="0.3" height="19"/>
		</defs>
		<clipPath id="SVGID_46_">
			<use xlink:href="#SVGID_45_"  overflow="visible"/>
		</clipPath>
		
			<line clip-path="url(#SVGID_46_)" fill="none" stroke="#636B62" stroke-width="0.279" stroke-miterlimit="10" x1="16.8" y1="59.2" x2="16.8" y2="78.2"/>
	</g>
</g>
<g opacity="0.4">
	<g>
		<defs>
			<rect id="SVGID_47_" x="11.6" y="66.9" width="10.2" height="0.7"/>
		</defs>
		<clipPath id="SVGID_48_">
			<use xlink:href="#SVGID_47_"  overflow="visible"/>
		</clipPath>
		<path clip-path="url(#SVGID_48_)" fill="#636B62" d="M21.8,67.3c0,0.2-0.2,0.4-0.4,0.4H12c-0.2,0-0.4-0.2-0.4-0.4
			c0-0.2,0.2-0.4,0.4-0.4h9.5C21.7,66.9,21.8,67.1,21.8,67.3"/>
	</g>
</g>
<rect x="23.6" y="59.2" fill="#636B62" width="10.5" height="19"/>
<rect x="23.2" y="66.1" fill="#636B62" width="11.3" height="3.5"/>
<g>
	<g>
		<defs>
			<rect id="SVGID_49_" x="23.7" y="65.9" width="10.4" height="0.3"/>
		</defs>
		<clipPath id="SVGID_50_">
			<use xlink:href="#SVGID_49_"  overflow="visible"/>
		</clipPath>
		<path clip-path="url(#SVGID_50_)" fill="#636B62" d="M23.7,66.1c0,0,0.6-0.1,1.6-0.1c0.5,0,1.1-0.1,1.7-0.1c0.6,0,1.3,0,1.9,0
			c0.6,0,1.3,0,1.9,0c0.6,0,1.2,0.1,1.7,0.1c1,0.1,1.6,0.1,1.6,0.1v0L23.7,66.1L23.7,66.1z"/>
	</g>
</g>
<g opacity="0.4">
	<g>
		<defs>
			<rect id="SVGID_51_" x="23.7" y="69.5" width="10.4" height="0.8"/>
		</defs>
		<clipPath id="SVGID_52_">
			<use xlink:href="#SVGID_51_"  overflow="visible"/>
		</clipPath>
		<path clip-path="url(#SVGID_52_)" fill="#636B62" d="M23.7,69.6c0,0,2.6,0,5.2,0c2.6,0,5.2,0,5.2,0v0.1c0,0-0.2,0.1-0.4,0.1
			c-0.3,0.1-0.7,0.2-1.2,0.3c-0.5,0.1-1.1,0.2-1.7,0.2c-0.6,0.1-1.3,0.1-1.9,0.1c-0.6,0-1.3,0-1.9-0.1c-0.6,0-1.2-0.1-1.7-0.2
			c-0.5-0.1-0.9-0.2-1.2-0.3C23.9,69.7,23.7,69.7,23.7,69.6L23.7,69.6z"/>
	</g>
</g>
<g>
	<g>
		<defs>
			<rect id="SVGID_53_" x="28.7" y="59.2" width="0.3" height="19"/>
		</defs>
		<clipPath id="SVGID_54_">
			<use xlink:href="#SVGID_53_"  overflow="visible"/>
		</clipPath>
		
			<line clip-path="url(#SVGID_54_)" fill="none" stroke="#636B62" stroke-width="0.279" stroke-miterlimit="10" x1="28.9" y1="59.2" x2="28.9" y2="78.2"/>
	</g>
</g>
<g opacity="0.4">
	<g>
		<defs>
			<rect id="SVGID_55_" x="23.7" y="66.9" width="10.2" height="0.7"/>
		</defs>
		<clipPath id="SVGID_56_">
			<use xlink:href="#SVGID_55_"  overflow="visible"/>
		</clipPath>
		<path clip-path="url(#SVGID_56_)" fill="#636B62" d="M33.9,67.3c0,0.2-0.2,0.4-0.4,0.4h-9.5c-0.2,0-0.4-0.2-0.4-0.4
			c0-0.2,0.2-0.4,0.4-0.4h9.5C33.8,66.9,33.9,67.1,33.9,67.3"/>
	</g>
</g>
<path fill="#A82526" d="M22.4,81.9c0,0.2-0.1,0.3-0.3,0.3H11.4c-0.2,0-0.3-0.1-0.3-0.3v-3.5c0-0.2,0.1-0.3,0.3-0.3h10.8
	c0.2,0,0.3,0.1,0.3,0.3V81.9z"/>
<path fill="#B54647" d="M21.9,81.8c0,0.1-0.1,0.1-0.3,0.1h-9.9c-0.1,0-0.3,0-0.3-0.1v-1.3c0-0.1,0.1-0.1,0.3-0.1h9.9
	c0.1,0,0.3,0,0.3,0.1V81.8z"/>
<path fill="#A82526" d="M34.5,81.9c0,0.2-0.1,0.3-0.3,0.3H23.5c-0.2,0-0.3-0.1-0.3-0.3v-3.5c0-0.2,0.1-0.3,0.3-0.3h10.8
	c0.2,0,0.3,0.1,0.3,0.3V81.9z"/>
<path fill="#B54647" d="M34.1,81.8c0,0.1-0.1,0.1-0.3,0.1h-9.9c-0.1,0-0.3,0-0.3-0.1v-1.3c0-0.1,0.1-0.1,0.3-0.1h9.9
	c0.1,0,0.3,0,0.3,0.1V81.8z"/>
<path fill="#A82526" d="M2.4,39.1c0,0.2-0.1,0.3-0.3,0.3H1.5c-0.2,0-0.3-0.1-0.3-0.3v-2.5c0-0.2,0.1-0.3,0.3-0.3h0.6
	c0.2,0,0.3,0.1,0.3,0.3V39.1z"/>
<rect x="2.4" y="40" fill="#A82526" width="5.5" height="8.7"/>
<rect x="2.4" y="49.7" fill="#A82526" width="5.5" height="5.2"/>
<rect x="1.8" y="35.7" fill="#A82526" width="6.7" height="4.4"/>
<g opacity="0.4">
	<g>
		<defs>
			<rect id="SVGID_57_" x="2.5" y="40" width="5.3" height="0.6"/>
		</defs>
		<clipPath id="SVGID_58_">
			<use xlink:href="#SVGID_57_"  overflow="visible"/>
		</clipPath>
		<path clip-path="url(#SVGID_58_)" fill="#636B62" d="M2.5,40c0,0,1.3,0,2.6,0c1.3,0,2.6,0,2.6,0v0.1c0,0-0.1,0-0.2,0.1
			c-0.1,0-0.4,0.1-0.6,0.2c-0.2,0-0.5,0.1-0.8,0.2c-0.3,0-0.6,0.1-1,0.1c-0.3,0-0.7,0-1-0.1c-0.3,0-0.6-0.1-0.8-0.2
			c-0.2,0-0.5-0.1-0.6-0.2C2.6,40.1,2.5,40.1,2.5,40L2.5,40z"/>
	</g>
</g>
<g opacity="0.4">
	<g>
		<defs>
			<rect id="SVGID_59_" x="2.1" y="36.7" width="6" height="0.9"/>
		</defs>
		<clipPath id="SVGID_60_">
			<use xlink:href="#SVGID_59_"  overflow="visible"/>
		</clipPath>
		<path clip-path="url(#SVGID_60_)" fill="#636B62" d="M8.1,37.2c0,0.2-0.1,0.5-0.2,0.5H2.3c-0.1,0-0.2-0.2-0.2-0.5s0.1-0.5,0.2-0.5
			h5.6C8,36.7,8.1,36.9,8.1,37.2"/>
	</g>
</g>
<rect x="1.8" y="47.8" fill="#A82526" width="6.7" height="1.9"/>
<g opacity="0.4">
	<g>
		<defs>
			<rect id="SVGID_61_" x="2.2" y="48.2" width="6" height="0.4"/>
		</defs>
		<clipPath id="SVGID_62_">
			<use xlink:href="#SVGID_61_"  overflow="visible"/>
		</clipPath>
		<path clip-path="url(#SVGID_62_)" fill="#636B62" d="M8.2,48.4c0,0.1-0.1,0.2-0.2,0.2H2.4c-0.1,0-0.2-0.1-0.2-0.2
			c0-0.1,0.1-0.2,0.2-0.2H8C8.1,48.2,8.2,48.3,8.2,48.4"/>
	</g>
</g>
<g opacity="0.4">
	<g>
		<defs>
			<rect id="SVGID_63_" x="1.6" y="36.4" width="0.3" height="3"/>
		</defs>
		<clipPath id="SVGID_64_">
			<use xlink:href="#SVGID_63_"  overflow="visible"/>
		</clipPath>
		<path clip-path="url(#SVGID_64_)" fill="#A82526" d="M1.8,36.4l0,1.5c0,0.8,0,1.5,0,1.5h0c0,0-0.1-0.2-0.1-0.5
			c0-0.1-0.1-0.3-0.1-0.5c0-0.2,0-0.4,0-0.6c0-0.2,0-0.4,0-0.6c0-0.2,0.1-0.3,0.1-0.5C1.7,36.5,1.8,36.4,1.8,36.4L1.8,36.4z"/>
	</g>
</g>
<rect x="3.2" y="56.7" fill="#444142" width="3.9" height="1.7"/>
<path fill="#7B7979" d="M10.3,60.3H7v-2.9c0-0.3-0.3-0.6-0.6-0.6H3.9c-0.3,0-0.6,0.3-0.6,0.6v2.9H0v-2.9c0-2.2,1.8-3.9,3.9-3.9h2.5
	c2.2,0,3.9,1.8,3.9,3.9V60.3z"/>
<path fill="#585555" d="M6.1,55.3H4.3c-1.6,0-2.8,1.3-2.8,2.8v2.1h1.9v-2.9c0-0.3,0.3-0.6,0.6-0.6h2.5C6.7,56.8,7,57,7,57.3v2.9h1.9
	v-2.1C8.9,56.6,7.6,55.3,6.1,55.3"/>
<rect x="0" y="60.3" fill="#444142" width="3.4" height="1.7"/>
<rect x="7" y="60.3" fill="#444142" width="3.4" height="1.7"/>
<path fill="#A82526" d="M43.3,39.1c0,0.2,0.1,0.3,0.3,0.3h0.6c0.2,0,0.3-0.1,0.3-0.3v-2.5c0-0.2-0.1-0.3-0.3-0.3h-0.6
	c-0.2,0-0.3,0.1-0.3,0.3V39.1z"/>
<rect x="37.8" y="40" fill="#A82526" width="5.5" height="8.7"/>
<rect x="37.7" y="49.7" fill="#A82526" width="5.5" height="5.2"/>
<rect x="37.2" y="35.7" fill="#A82526" width="6.7" height="4.4"/>
<g opacity="0.4">
	<g>
		<defs>
			<rect id="SVGID_65_" x="37.9" y="39.5" width="5.3" height="0.6"/>
		</defs>
		<clipPath id="SVGID_66_">
			<use xlink:href="#SVGID_65_"  overflow="visible"/>
		</clipPath>
		<path clip-path="url(#SVGID_66_)" fill="#636B62" d="M43.1,40.1c0,0-1.3,0-2.6,0c-1.3,0-2.6,0-2.6,0V40c0,0,0.1,0,0.2-0.1
			c0.1,0,0.4-0.1,0.6-0.2c0.2,0,0.5-0.1,0.8-0.2c0.3,0,0.6-0.1,1-0.1c0.3,0,0.7,0,1,0.1c0.3,0,0.6,0.1,0.8,0.2
			c0.2,0,0.5,0.1,0.6,0.2C43.1,40,43.1,40,43.1,40.1L43.1,40.1z"/>
	</g>
</g>
<g opacity="0.4">
	<g>
		<defs>
			<rect id="SVGID_67_" x="37.6" y="36.7" width="6" height="0.9"/>
		</defs>
		<clipPath id="SVGID_68_">
			<use xlink:href="#SVGID_67_"  overflow="visible"/>
		</clipPath>
		<path clip-path="url(#SVGID_68_)" fill="#636B62" d="M37.6,37.2c0,0.2,0.1,0.5,0.2,0.5h5.6c0.1,0,0.2-0.2,0.2-0.5
			s-0.1-0.5-0.2-0.5h-5.6C37.7,36.7,37.6,36.9,37.6,37.2"/>
	</g>
</g>
<rect x="37.2" y="47.8" fill="#A82526" width="6.7" height="1.9"/>
<g opacity="0.4">
	<g>
		<defs>
			<rect id="SVGID_69_" x="37.5" y="48.2" width="6" height="0.4"/>
		</defs>
		<clipPath id="SVGID_70_">
			<use xlink:href="#SVGID_69_"  overflow="visible"/>
		</clipPath>
		<path clip-path="url(#SVGID_70_)" fill="#636B62" d="M37.5,48.4c0,0.1,0.1,0.2,0.2,0.2h5.6c0.1,0,0.2-0.1,0.2-0.2
			c0-0.1-0.1-0.2-0.2-0.2h-5.6C37.6,48.2,37.5,48.3,37.5,48.4"/>
	</g>
</g>
<g opacity="0.4">
	<g>
		<defs>
			<rect id="SVGID_71_" x="43.6" y="36.4" width="0.3" height="3"/>
		</defs>
		<clipPath id="SVGID_72_">
			<use xlink:href="#SVGID_71_"  overflow="visible"/>
		</clipPath>
		<path clip-path="url(#SVGID_72_)" fill="#A82526" d="M43.9,36.4l0,1.5c0,0.8,0,1.5,0,1.5h0c0,0-0.1-0.2-0.1-0.5
			c0-0.1-0.1-0.3-0.1-0.5c0-0.2,0-0.4,0-0.6c0-0.2,0-0.4,0-0.6c0-0.2,0.1-0.3,0.1-0.5C43.8,36.5,43.9,36.4,43.9,36.4L43.9,36.4z"/>
	</g>
</g>
<rect x="38.6" y="56.7" fill="#444142" width="3.9" height="1.7"/>
<path fill="#7B7979" d="M35.3,60.3h3.3v-2.9c0-0.3,0.3-0.6,0.6-0.6h2.5c0.3,0,0.6,0.3,0.6,0.6v2.9h3.4v-2.9c0-2.2-1.8-3.9-3.9-3.9
	h-2.5c-2.2,0-3.9,1.8-3.9,3.9V60.3z"/>
<path fill="#585555" d="M39.6,55.3h1.8c1.6,0,2.8,1.3,2.8,2.8v2.1h-1.9v-2.9c0-0.3-0.3-0.6-0.6-0.6h-2.5c-0.3,0-0.6,0.3-0.6,0.6v2.9
	h-1.9v-2.1C36.8,56.6,38,55.3,39.6,55.3"/>
<rect x="42.3" y="60.3" fill="#444142" width="3.4" height="1.7"/>
<rect x="35.3" y="60.3" fill="#444142" width="3.4" height="1.7"/>
</svg>
