<?xml version="1.0" encoding="utf-8"?>
<!-- Generator: Adobe Illustrator 15.0.2, SVG Export Plug-In . SVG Version: 6.00 Build 0)  -->
<!DOCTYPE svg PUBLIC "-//W3C//DTD SVG 1.1//EN" "http://www.w3.org/Graphics/SVG/1.1/DTD/svg11.dtd">
<svg version="1.1" id="Layer_1" xmlns="http://www.w3.org/2000/svg" xmlns:xlink="http://www.w3.org/1999/xlink" x="0px" y="0px"
	 width="42.8px" height="72.4px" viewBox="0 0 42.8 72.4" enable-background="new 0 0 42.8 72.4" xml:space="preserve">
<rect x="19.5" y="53.5" fill="#231F20" width="4.5" height="18.9"/>
<rect x="20.8" y="53.5" fill="#656263" width="2" height="18.9"/>
<rect x="16.6" y="49.3" fill="#231F20" width="10.4" height="4.2"/>
<polygon fill="#656263" points="20.8,53.5 22.8,53.5 23.4,53.5 23.4,49.3 20.2,49.3 20.2,53.5 "/>
<path fill="#231F20" d="M4.8,15.5c0,0,2.7,1.1,2.7,3.6h2V10H0.4C1,12,2.2,14.5,4.8,15.5"/>
<path fill="#656263" d="M0.1,8h9.5V7.5H0C0,7.6,0,7.8,0.1,8"/>
<path fill="#A7A5A6" d="M9.5,7.5V7.1H0c0,0,0,0.1,0,0.3H9.5z"/>
<path fill="#4F4C4D" d="M0.1,8c0.1,0.5,0.2,1.2,0.4,2h9.1V8H0.1z"/>
<path fill="#231F20" d="M4.8,28.8c0,0,2.7,1.1,2.7,3.6h2v-9.1H0.4C1,25.3,2.2,27.7,4.8,28.8"/>
<path fill="#656263" d="M0.1,21.2h9.5v-0.5H0C0,20.9,0,21,0.1,21.2"/>
<path fill="#A7A5A6" d="M9.5,20.7v-0.3H0c0,0,0,0.1,0,0.3H9.5z"/>
<path fill="#4F4C4D" d="M0.1,21.2c0.1,0.5,0.2,1.2,0.4,2h9.1v-2H0.1z"/>
<path fill="#231F20" d="M4.8,42c0,0,2.7,1.1,2.7,3.6h2v-9.1H0.4C1,38.6,2.2,41,4.8,42"/>
<path fill="#656263" d="M0.1,34.5h9.5V34H0C0,34.1,0,34.3,0.1,34.5"/>
<path fill="#A7A5A6" d="M9.5,34v-0.3H0c0,0,0,0.1,0,0.3H9.5z"/>
<path fill="#4F4C4D" d="M0.1,34.5c0.1,0.5,0.2,1.2,0.4,2h9.1v-2H0.1z"/>
<path fill="#231F20" d="M38,15.5c0,0-2.7,1.1-2.7,3.6h-2V10h9.1C41.9,12,40.7,14.5,38,15.5"/>
<path fill="#656263" d="M42.8,8h-9.5V7.5h9.5C42.8,7.6,42.8,7.8,42.8,8"/>
<path fill="#A7A5A6" d="M33.3,7.5V7.1h9.5c0,0,0,0.1,0,0.3H33.3z"/>
<path fill="#4F4C4D" d="M42.8,8c-0.1,0.5-0.2,1.2-0.4,2h-9.1V8H42.8z"/>
<path fill="#231F20" d="M38,28.8c0,0-2.7,1.1-2.7,3.6h-2v-9.1h9.1C41.9,25.3,40.7,27.7,38,28.8"/>
<path fill="#656263" d="M42.8,21.2h-9.5v-0.5h9.5C42.8,20.9,42.8,21,42.8,21.2"/>
<path fill="#A7A5A6" d="M33.3,20.7v-0.3h9.5c0,0,0,0.1,0,0.3H33.3z"/>
<path fill="#4F4C4D" d="M42.8,21.2c-0.1,0.5-0.2,1.2-0.4,2h-9.1v-2H42.8z"/>
<path fill="#231F20" d="M38,42c0,0-2.7,1.1-2.7,3.6h-2v-9.1h9.1C41.9,38.6,40.7,41,38,42"/>
<path fill="#656263" d="M42.8,34.5h-9.5V34h9.5C42.8,34.1,42.8,34.3,42.8,34.5"/>
<path fill="#A7A5A6" d="M33.3,34v-0.3h9.5c0,0,0,0.1,0,0.3H33.3z"/>
<path fill="#4F4C4D" d="M42.8,34.5c-0.1,0.5-0.2,1.2-0.4,2h-9.1v-2H42.8z"/>
<path fill="#7B7979" d="M21.5,0c2.7,0,4.9,1.5,4.9,3.4c0,1.9-2.2,3.4-4.9,3.4c3.9,0,7.1-1.5,7.1-3.4C28.6,1.5,25.4,0,21.5,0"/>
<path fill="#231F20" d="M16.6,3.4c0-1.9,2.2-3.4,4.9-3.4c-3.9,0-7.1,1.5-7.1,3.4c0,1.9,3.2,3.4,7.1,3.4C18.8,6.8,16.6,5.3,16.6,3.4"
	/>
<path fill="#444142" d="M26.3,3.4c0-1.9-2.2-3.4-4.9-3.4c-2.7,0-4.9,1.5-4.9,3.4c0,1.9,2.2,3.4,4.9,3.4C24.1,6.8,26.3,5.3,26.3,3.4"
	/>
<path fill="#231F20" d="M13.2,50.2c-1.7,0-3.1-1.4-3.1-3.1V6.5c0-1.7,1.4-3.1,3.1-3.1h16.6c1.7,0,3.1,1.4,3.1,3.1v40.6
	c0,1.7-1.4,3.1-3.1,3.1H13.2z"/>
<path fill="#DEDDDE" d="M29.8,4.2c1.2,0,2.2,1,2.2,2.2v40.6c0,1.2-1,2.2-2.2,2.2H13.2c-1.2,0-2.2-1-2.2-2.2V6.5c0-1.2,1-2.2,2.2-2.2
	H29.8 M29.8,2.5H13.2c-2.2,0-3.9,1.8-3.9,3.9v40.6c0,2.2,1.8,3.9,3.9,3.9h16.6c2.2,0,3.9-1.8,3.9-3.9V6.5
	C33.7,4.3,31.9,2.5,29.8,2.5"/>
<g opacity="0.4">
	<g>
		<defs>
			<rect id="SVGID_1_" x="10.9" y="4.2" width="21.1" height="21.1"/>
		</defs>
		<clipPath id="SVGID_2_">
			<use xlink:href="#SVGID_1_"  overflow="visible"/>
		</clipPath>
		<path clip-path="url(#SVGID_2_)" fill="#DEDDDE" d="M11.5,6.5c0-0.9,0.8-1.7,1.7-1.7h16.6c0.9,0,1.7,0.8,1.7,1.7v18.9H32V6.5
			c0-1.2-1-2.2-2.2-2.2H13.2c-1.2,0-2.2,1-2.2,2.2v18.9h0.6V6.5z"/>
	</g>
</g>
<g>
	<g>
		<defs>
			<rect id="SVGID_3_" x="10.9" y="25.3" width="21.1" height="24"/>
		</defs>
		<clipPath id="SVGID_4_">
			<use xlink:href="#SVGID_3_"  overflow="visible"/>
		</clipPath>
		<path clip-path="url(#SVGID_4_)" fill="#231F20" d="M13.2,49.3h16.6c1.2,0,2.2-1,2.2-2.2V25.3h-0.6v21.7c0,0.9-0.8,1.7-1.7,1.7
			H13.2c-0.9,0-1.7-0.8-1.7-1.7V25.3h-0.6v21.7C10.9,48.3,11.9,49.3,13.2,49.3"/>
	</g>
</g>
<path fill="#A82526" d="M21.5,18.3c-2.9,0-5.2-2.3-5.2-5.2c0-2.9,2.3-5.2,5.2-5.2s5.2,2.3,5.2,5.2C26.7,15.9,24.3,18.3,21.5,18.3"/>
<path fill="#918F90" d="M21.5,8.3c2.6,0,4.7,2.1,4.7,4.7c0,2.6-2.1,4.7-4.7,4.7s-4.7-2.1-4.7-4.7C16.7,10.5,18.9,8.3,21.5,8.3
	 M21.5,7.4c-3.1,0-5.7,2.5-5.7,5.7c0,3.1,2.5,5.7,5.7,5.7s5.7-2.5,5.7-5.7C27.1,9.9,24.6,7.4,21.5,7.4"/>
<g opacity="0.3">
	<g>
		<defs>
			<rect id="SVGID_5_" x="17" y="10.3" width="9.2" height="7.5"/>
		</defs>
		<clipPath id="SVGID_6_">
			<use xlink:href="#SVGID_5_"  overflow="visible"/>
		</clipPath>
		<path clip-path="url(#SVGID_6_)" fill="#A82526" d="M25.3,10.3c0.2,0.5,0.3,1,0.3,1.6c0,2.6-2.1,4.7-4.7,4.7
			c-1.6,0-2.9-0.8-3.8-1.9c0.6,1.8,2.4,3.2,4.5,3.2c2.6,0,4.7-2.1,4.7-4.7C26.2,12,25.8,11,25.3,10.3"/>
	</g>
</g>
<g>
	<g>
		<defs>
			<rect id="SVGID_7_" x="18.7" y="9.8" width="2.4" height="2.4"/>
		</defs>
		<clipPath id="SVGID_8_">
			<use xlink:href="#SVGID_7_"  overflow="visible"/>
		</clipPath>
		<path clip-path="url(#SVGID_8_)" fill="#A82526" d="M21,11c0,0.7-0.5,1.2-1.2,1.2c-0.7,0-1.2-0.5-1.2-1.2c0-0.7,0.5-1.2,1.2-1.2
			C20.5,9.8,21,10.3,21,11"/>
	</g>
</g>
<g opacity="0.5">
	<g>
		<defs>
			<rect id="SVGID_9_" x="15.8" y="7.4" width="11.3" height="11.3"/>
		</defs>
		<clipPath id="SVGID_10_">
			<use xlink:href="#SVGID_9_"  overflow="visible"/>
		</clipPath>
		<path clip-path="url(#SVGID_10_)" fill="#918F90" d="M21.5,7.9c2.9,0,5.2,2.3,5.2,5.2h0.5c0-3.1-2.5-5.7-5.7-5.7s-5.7,2.5-5.7,5.7
			h0.5C16.3,10.2,18.6,7.9,21.5,7.9"/>
		<path clip-path="url(#SVGID_10_)" fill="#231F20" d="M21.5,7.9c-2.9,0-5.2,2.3-5.2,5.2h0.5c0-2.6,2.1-4.7,4.7-4.7s4.7,2.1,4.7,4.7
			h0.5C26.7,10.2,24.3,7.9,21.5,7.9"/>
		<path clip-path="url(#SVGID_10_)" fill="#231F20" d="M21.5,18.7c3.1,0,5.7-2.5,5.7-5.7h-0.5c0,2.9-2.3,5.2-5.2,5.2
			s-5.2-2.3-5.2-5.2h-0.5C15.8,16.2,18.3,18.7,21.5,18.7"/>
		<path clip-path="url(#SVGID_10_)" fill="#A7A5A6" d="M21.5,17.8c-2.6,0-4.7-2.1-4.7-4.7h-0.5c0,2.9,2.3,5.2,5.2,5.2
			s5.2-2.3,5.2-5.2h-0.5C26.2,15.7,24.1,17.8,21.5,17.8"/>
	</g>
</g>
<g>
	<g>
		<defs>
			<rect id="SVGID_11_" x="15.9" y="6.8" width="11.1" height="6"/>
		</defs>
		<clipPath id="SVGID_12_">
			<use xlink:href="#SVGID_11_"  overflow="visible"/>
		</clipPath>
		<path clip-path="url(#SVGID_12_)" fill="#444142" d="M21.5,7.7c2.9,0,5.3,2.2,5.5,5.1c0-0.2,0-0.3,0-0.5c0-3.1-2.5-5.5-5.5-5.5
			c-3.1,0-5.5,2.5-5.5,5.5c0,0.2,0,0.3,0,0.5C16.2,10,18.6,7.7,21.5,7.7"/>
	</g>
</g>
<path fill="#EBD467" d="M21.6,31.8c-2.9,0-5.2-2.3-5.2-5.2s2.3-5.2,5.2-5.2c2.9,0,5.2,2.3,5.2,5.2S24.5,31.8,21.6,31.8"/>
<path fill="#918F90" d="M21.6,21.9c2.6,0,4.7,2.1,4.7,4.7s-2.1,4.7-4.7,4.7s-4.7-2.1-4.7-4.7S19,21.9,21.6,21.9 M21.6,21
	c-3.1,0-5.7,2.5-5.7,5.7c0,3.1,2.5,5.7,5.7,5.7s5.7-2.5,5.7-5.7C27.3,23.5,24.7,21,21.6,21"/>
<g opacity="0.3">
	<g>
		<defs>
			<rect id="SVGID_13_" x="17.1" y="23.8" width="9.2" height="7.5"/>
		</defs>
		<clipPath id="SVGID_14_">
			<use xlink:href="#SVGID_13_"  overflow="visible"/>
		</clipPath>
		<path clip-path="url(#SVGID_14_)" fill="#A82526" d="M25.4,23.8c0.2,0.5,0.3,1,0.3,1.6c0,2.6-2.1,4.7-4.7,4.7
			c-1.6,0-2.9-0.8-3.8-1.9c0.6,1.8,2.4,3.2,4.5,3.2c2.6,0,4.7-2.1,4.7-4.7C26.3,25.6,26,24.6,25.4,23.8"/>
	</g>
</g>
<g>
	<g>
		<defs>
			<rect id="SVGID_15_" x="18.8" y="23.4" width="2.4" height="2.4"/>
		</defs>
		<clipPath id="SVGID_16_">
			<use xlink:href="#SVGID_15_"  overflow="visible"/>
		</clipPath>
		<path clip-path="url(#SVGID_16_)" fill="#EBD467" d="M21.2,24.6c0,0.7-0.5,1.2-1.2,1.2s-1.2-0.5-1.2-1.2s0.5-1.2,1.2-1.2
			S21.2,23.9,21.2,24.6"/>
	</g>
</g>
<g opacity="0.5">
	<g>
		<defs>
			<rect id="SVGID_17_" x="15.9" y="21" width="11.3" height="11.3"/>
		</defs>
		<clipPath id="SVGID_18_">
			<use xlink:href="#SVGID_17_"  overflow="visible"/>
		</clipPath>
		<path clip-path="url(#SVGID_18_)" fill="#918F90" d="M21.6,21.5c2.9,0,5.2,2.3,5.2,5.2h0.5c0-3.1-2.5-5.7-5.7-5.7
			s-5.7,2.5-5.7,5.7h0.5C16.4,23.8,18.7,21.5,21.6,21.5"/>
		<path clip-path="url(#SVGID_18_)" fill="#231F20" d="M21.6,21.5c-2.9,0-5.2,2.3-5.2,5.2h0.5c0-2.6,2.1-4.7,4.7-4.7
			s4.7,2.1,4.7,4.7h0.5C26.8,23.8,24.5,21.5,21.6,21.5"/>
		<path clip-path="url(#SVGID_18_)" fill="#231F20" d="M21.6,32.3c3.1,0,5.7-2.5,5.7-5.7h-0.5c0,2.9-2.3,5.2-5.2,5.2
			c-2.9,0-5.2-2.3-5.2-5.2h-0.5C15.9,29.8,18.5,32.3,21.6,32.3"/>
		<path clip-path="url(#SVGID_18_)" fill="#A7A5A6" d="M21.6,31.4c-2.6,0-4.7-2.1-4.7-4.7h-0.5c0,2.9,2.3,5.2,5.2,5.2
			c2.9,0,5.2-2.3,5.2-5.2h-0.5C26.3,29.3,24.2,31.4,21.6,31.4"/>
	</g>
</g>
<g>
	<g>
		<defs>
			<rect id="SVGID_19_" x="16.1" y="20.4" width="11.1" height="6"/>
		</defs>
		<clipPath id="SVGID_20_">
			<use xlink:href="#SVGID_19_"  overflow="visible"/>
		</clipPath>
		<path clip-path="url(#SVGID_20_)" fill="#444142" d="M21.6,21.3c2.9,0,5.3,2.2,5.5,5.1c0-0.2,0-0.3,0-0.5c0-3.1-2.5-5.5-5.5-5.5
			c-3.1,0-5.5,2.5-5.5,5.5c0,0.2,0,0.3,0,0.5C16.3,23.5,18.7,21.3,21.6,21.3"/>
	</g>
</g>
<path fill="#597F5C" d="M21.7,45.3c-2.9,0-5.2-2.3-5.2-5.2s2.3-5.2,5.2-5.2s5.2,2.3,5.2,5.2S24.6,45.3,21.7,45.3"/>
<path fill="#918F90" d="M21.7,35.4c2.6,0,4.7,2.1,4.7,4.7s-2.1,4.7-4.7,4.7S17,42.7,17,40.1S19.1,35.4,21.7,35.4 M21.7,34.4
	c-3.1,0-5.7,2.5-5.7,5.7s2.5,5.7,5.7,5.7s5.7-2.5,5.7-5.7S24.9,34.4,21.7,34.4"/>
<g opacity="0.3">
	<g>
		<defs>
			<rect id="SVGID_21_" x="17.3" y="37.3" width="9.2" height="7.5"/>
		</defs>
		<clipPath id="SVGID_22_">
			<use xlink:href="#SVGID_21_"  overflow="visible"/>
		</clipPath>
		<path clip-path="url(#SVGID_22_)" fill="#A82526" d="M25.5,37.3c0.2,0.5,0.3,1,0.3,1.6c0,2.6-2.1,4.7-4.7,4.7
			c-1.6,0-2.9-0.8-3.8-1.9c0.6,1.8,2.4,3.2,4.5,3.2c2.6,0,4.7-2.1,4.7-4.7C26.5,39,26.1,38.1,25.5,37.3"/>
	</g>
</g>
<g>
	<g>
		<defs>
			<rect id="SVGID_23_" x="18.9" y="36.8" width="2.4" height="2.4"/>
		</defs>
		<clipPath id="SVGID_24_">
			<use xlink:href="#SVGID_23_"  overflow="visible"/>
		</clipPath>
		<path clip-path="url(#SVGID_24_)" fill="#597F5C" d="M21.3,38c0,0.7-0.5,1.2-1.2,1.2s-1.2-0.5-1.2-1.2s0.5-1.2,1.2-1.2
			S21.3,37.4,21.3,38"/>
	</g>
</g>
<g opacity="0.5">
	<g>
		<defs>
			<rect id="SVGID_25_" x="16.1" y="34.4" width="11.3" height="11.3"/>
		</defs>
		<clipPath id="SVGID_26_">
			<use xlink:href="#SVGID_25_"  overflow="visible"/>
		</clipPath>
		<path clip-path="url(#SVGID_26_)" fill="#918F90" d="M21.7,34.9c2.9,0,5.2,2.3,5.2,5.2h0.5c0-3.1-2.5-5.7-5.7-5.7
			s-5.7,2.5-5.7,5.7h0.5C16.5,37.2,18.9,34.9,21.7,34.9"/>
		<path clip-path="url(#SVGID_26_)" fill="#231F20" d="M21.7,34.9c-2.9,0-5.2,2.3-5.2,5.2H17c0-2.6,2.1-4.7,4.7-4.7s4.7,2.1,4.7,4.7
			h0.5C26.9,37.2,24.6,34.9,21.7,34.9"/>
		<path clip-path="url(#SVGID_26_)" fill="#231F20" d="M21.7,45.7c3.1,0,5.7-2.5,5.7-5.7h-0.5c0,2.9-2.3,5.2-5.2,5.2
			s-5.2-2.3-5.2-5.2h-0.5C16.1,43.2,18.6,45.7,21.7,45.7"/>
		<path clip-path="url(#SVGID_26_)" fill="#A7A5A6" d="M21.7,44.8c-2.6,0-4.7-2.1-4.7-4.7h-0.5c0,2.9,2.3,5.2,5.2,5.2
			s5.2-2.3,5.2-5.2h-0.5C26.5,42.7,24.3,44.8,21.7,44.8"/>
	</g>
</g>
<g>
	<g>
		<defs>
			<rect id="SVGID_27_" x="16.2" y="33.8" width="11.1" height="6"/>
		</defs>
		<clipPath id="SVGID_28_">
			<use xlink:href="#SVGID_27_"  overflow="visible"/>
		</clipPath>
		<path clip-path="url(#SVGID_28_)" fill="#444142" d="M21.7,34.7c2.9,0,5.3,2.2,5.5,5.1c0-0.2,0-0.3,0-0.5c0-3.1-2.5-5.5-5.5-5.5
			s-5.5,2.5-5.5,5.5c0,0.2,0,0.3,0,0.5C16.4,37,18.8,34.7,21.7,34.7"/>
	</g>
</g>
<g>
	<g>
		<defs>
			<rect id="SVGID_29_" x="19.5" y="53.4" width="4.5" height="1.1"/>
		</defs>
		<clipPath id="SVGID_30_">
			<use xlink:href="#SVGID_29_"  overflow="visible"/>
		</clipPath>
		<path clip-path="url(#SVGID_30_)" fill="#6C696A" d="M19.5,53.5l2.3-0.1l2.3,0.1v0.1c0,0-0.3,0.3-0.7,0.5
			c-0.2,0.1-0.5,0.2-0.7,0.3c-0.1,0-0.3,0.1-0.4,0.1l-0.4,0l-0.4,0c-0.1,0-0.3-0.1-0.4-0.1c-0.3-0.1-0.5-0.2-0.7-0.3
			c-0.4-0.2-0.7-0.5-0.7-0.5V53.5z"/>
	</g>
</g>
</svg>
