<?xml version="1.0" encoding="utf-8"?>
<!-- Generator: Adobe Illustrator 15.0.2, SVG Export Plug-In . SVG Version: 6.00 Build 0)  -->
<!DOCTYPE svg PUBLIC "-//W3C//DTD SVG 1.1//EN" "http://www.w3.org/Graphics/SVG/1.1/DTD/svg11.dtd">
<svg version="1.1" id="Layer_1" xmlns="http://www.w3.org/2000/svg" xmlns:xlink="http://www.w3.org/1999/xlink" x="0px" y="0px"
	 width="59.6px" height="56.9px" viewBox="0 0 59.6 56.9" enable-background="new 0 0 59.6 56.9" xml:space="preserve">
<polygon fill="#D6543B" points="35.6,0 25.1,0 12.6,54.2 30.1,54.2 30.7,54.2 48.1,54.2 "/>
<polygon fill="#FEFAF9" points="20.1,21.7 40.6,21.7 38.1,10.8 22.6,10.8 "/>
<polygon fill="#FEFAF9" points="15.1,43.4 45.6,43.4 43.1,32.5 17.6,32.5 "/>
<g opacity="0.8">
	<g>
		<defs>
			<rect id="SVGID_1_" x="34.7" width="13.4" height="54.2"/>
		</defs>
		<clipPath id="SVGID_2_">
			<use xlink:href="#SVGID_1_"  overflow="visible"/>
		</clipPath>
		<polygon clip-path="url(#SVGID_2_)" fill="#D6543B" points="35.6,0 34.7,0 45,54.2 48.1,54.2 		"/>
	</g>
</g>
<g opacity="0.8">
	<g>
		<defs>
			<rect id="SVGID_3_" x="12.6" width="13.4" height="54.2"/>
		</defs>
		<clipPath id="SVGID_4_">
			<use xlink:href="#SVGID_3_"  overflow="visible"/>
		</clipPath>
		<polygon clip-path="url(#SVGID_4_)" fill="#D6543B" points="25.1,0 12.6,54.2 15.7,54.2 26,0 		"/>
	</g>
</g>
<g opacity="0.5">
	<g>
		<defs>
			<rect id="SVGID_5_" x="15.7" width="11.4" height="54.2"/>
		</defs>
		<clipPath id="SVGID_6_">
			<use xlink:href="#SVGID_5_"  overflow="visible"/>
		</clipPath>
		<polygon clip-path="url(#SVGID_6_)" fill="#D6543B" points="26,0 15.7,54.2 20.4,54.2 27.1,0 		"/>
	</g>
</g>
<g opacity="0.5">
	<g>
		<defs>
			<rect id="SVGID_7_" x="32.7" width="12.3" height="54.2"/>
		</defs>
		<clipPath id="SVGID_8_">
			<use xlink:href="#SVGID_7_"  overflow="visible"/>
		</clipPath>
		<polygon clip-path="url(#SVGID_8_)" fill="#D6543B" points="32.7,0 39.4,54.2 45,54.2 34.7,0 		"/>
	</g>
</g>
<g opacity="0.65">
	<g>
		<defs>
			<rect id="SVGID_9_" x="22.5" y="0.5" width="7.8" height="51.1"/>
		</defs>
		<clipPath id="SVGID_10_">
			<use xlink:href="#SVGID_9_"  overflow="visible"/>
		</clipPath>
		<path clip-path="url(#SVGID_10_)" fill="#F9E5E2" d="M30.4,0.6l-2.1,0l0,0c-0.5,0.2-0.6,0.8-0.7,1.4l-0.2,1.6l-0.3,3.2l-0.6,6.4
			L25.3,26c-0.9,8.6-1.8,17.1-2.7,25.7c0.7-8.6,1.6-17.1,2.4-25.7l1.3-12.8L27,6.7l0.4-3.2l0.2-1.6c0.1-0.5,0.2-1.1,0.8-1.4l0,0h0
			L30.4,0.6z"/>
	</g>
</g>
<g opacity="0.65">
	<g>
		<defs>
			<rect id="SVGID_11_" x="21.4" y="0.5" width="8.5" height="52.7"/>
		</defs>
		<clipPath id="SVGID_12_">
			<use xlink:href="#SVGID_11_"  overflow="visible"/>
		</clipPath>
		<path clip-path="url(#SVGID_12_)" fill="#F9E5E2" d="M29.9,0.6l-2.1,0l0,0c-0.5,0.2-0.6,0.9-0.7,1.4L27,3.6L26.7,7L26,13.6
			l-1.4,13.2c-1,8.8-2,17.6-3.1,26.4c0.9-8.8,1.9-17.6,2.8-26.5l1.5-13.2l0.8-6.6l0.4-3.3L27.1,2c0.1-0.5,0.2-1.2,0.8-1.4l0,0l0,0
			L29.9,0.6z"/>
	</g>
</g>
<path fill="#D6543B" d="M59.6,55.8c0,0.6-0.5,1.1-1.1,1.1H1.1c-0.6,0-1.1-0.5-1.1-1.1v-0.5c0-0.6,0.5-1.1,1.1-1.1h57.3
	c0.6,0,1.1,0.5,1.1,1.1V55.8z"/>
<g opacity="0.8">
	<g>
		<defs>
			<rect id="SVGID_13_" x="50.2" y="54.2" width="9.4" height="2.7"/>
		</defs>
		<clipPath id="SVGID_14_">
			<use xlink:href="#SVGID_13_"  overflow="visible"/>
		</clipPath>
		<path clip-path="url(#SVGID_14_)" fill="#D6543B" d="M58.4,54.2h-8.3c0.6,0,0.5,0.5,0.5,1.1v0.5c0,0.6,0.1,1.1-0.5,1.1h8.3
			c0.6,0,1.1-0.5,1.1-1.1v-0.5C59.6,54.7,59.1,54.2,58.4,54.2"/>
	</g>
</g>
<g>
	<g>
		<defs>
			<rect id="SVGID_15_" x="8.9" y="53.5" width="43" height="0.8"/>
		</defs>
		<clipPath id="SVGID_16_">
			<use xlink:href="#SVGID_15_"  overflow="visible"/>
		</clipPath>
		<path clip-path="url(#SVGID_16_)" fill="#D6543B" d="M8.9,54.2c1.8-0.1,3.6-0.2,5.4-0.3l5.4-0.2c3.6-0.1,7.2-0.1,10.7-0.1
			c3.6,0.1,7.2,0,10.7,0.1l5.4,0.2c1.8,0.1,3.6,0.2,5.4,0.3v0.1l-21.5,0L8.9,54.2L8.9,54.2z"/>
	</g>
</g>
<g>
	<g>
		<defs>
			<rect id="SVGID_17_" x="50.5" y="54.6" width="0.4" height="2"/>
		</defs>
		<clipPath id="SVGID_18_">
			<use xlink:href="#SVGID_17_"  overflow="visible"/>
		</clipPath>
		<path clip-path="url(#SVGID_18_)" fill="#D6543B" d="M50.7,54.6c0.2,0.3,0.2,0.7,0.2,1c0,0.3,0,0.7-0.2,1c-0.2-0.3-0.2-0.7-0.2-1
			C50.5,55.2,50.5,54.9,50.7,54.6"/>
	</g>
</g>
</svg>
