<?xml version="1.0" encoding="utf-8"?>
<!-- Generator: Adobe Illustrator 15.0.2, SVG Export Plug-In . SVG Version: 6.00 Build 0)  -->
<!DOCTYPE svg PUBLIC "-//W3C//DTD SVG 1.1//EN" "http://www.w3.org/Graphics/SVG/1.1/DTD/svg11.dtd">
<svg version="1.1" id="Layer_1" xmlns="http://www.w3.org/2000/svg" xmlns:xlink="http://www.w3.org/1999/xlink" x="0px" y="0px"
	 width="81.9px" height="26.1px" viewBox="0 0 81.9 26.1" enable-background="new 0 0 81.9 26.1" xml:space="preserve">
<path fill="none" stroke="#D5BD8A" stroke-width="1.601" stroke-linecap="round" stroke-miterlimit="10" d="M26.2,20.8H12.9
	c0,0-4.3-0.3-4.3-4.6c0-4.3,1.4-5.1,5-5.1s61.5-1.5,61.5-1.5"/>
<path fill="none" stroke="#D5BD8A" stroke-width="1.601" stroke-linecap="round" stroke-miterlimit="10" d="M41,17.6h15.6
	c0,0,3.1,0,3.1,1.8c0,1.8-3.2,1.4-3.2,1.4H19.7"/>
<g>
	<g>
		<defs>
			<rect id="SVGID_1_" x="8.2" y="9.3" width="67.1" height="11.8"/>
		</defs>
		<clipPath id="SVGID_2_">
			<use xlink:href="#SVGID_1_"  overflow="visible"/>
		</clipPath>
		
			<path clip-path="url(#SVGID_2_)" fill="none" stroke="#D5BD8A" stroke-width="0.64" stroke-linecap="round" stroke-miterlimit="10" d="
			M26,20.8H12.8c0,0-4.3-0.3-4.3-4.6c0-4.3,1.4-5.1,5-5.1c3.6,0,61.5-1.5,61.5-1.5"/>
	</g>
</g>
<g>
	<g>
		<defs>
			<rect id="SVGID_3_" x="19.3" y="17.3" width="40.6" height="3.8"/>
		</defs>
		<clipPath id="SVGID_4_">
			<use xlink:href="#SVGID_3_"  overflow="visible"/>
		</clipPath>
		
			<path clip-path="url(#SVGID_4_)" fill="none" stroke="#D5BD8A" stroke-width="0.64" stroke-linecap="round" stroke-miterlimit="10" d="
			M40.9,17.6h15.6c0,0,3,0,3,1.8c0,1.8-3.2,1.4-3.2,1.4H19.6"/>
	</g>
</g>
<g>
	<g>
		<defs>
			<rect id="SVGID_5_" x="8.4" y="9.5" width="66.8" height="11.4"/>
		</defs>
		<clipPath id="SVGID_6_">
			<use xlink:href="#SVGID_5_"  overflow="visible"/>
		</clipPath>
		
			<path clip-path="url(#SVGID_6_)" fill="none" stroke="#D5BD8A" stroke-width="0.32" stroke-linecap="round" stroke-miterlimit="10" d="
			M26,20.8H12.8c0,0-4.3-0.3-4.3-4.6c0-4.3,1.4-5.1,5-5.1c3.6,0,61.5-1.5,61.5-1.5"/>
	</g>
</g>
<g>
	<g>
		<defs>
			<rect id="SVGID_7_" x="19.5" y="17.4" width="40.3" height="3.5"/>
		</defs>
		<clipPath id="SVGID_8_">
			<use xlink:href="#SVGID_7_"  overflow="visible"/>
		</clipPath>
		
			<path clip-path="url(#SVGID_8_)" fill="none" stroke="#D5BD8A" stroke-width="0.32" stroke-linecap="round" stroke-miterlimit="10" d="
			M40.9,17.6h15.6c0,0,3,0,3,1.8c0,1.8-3.2,1.4-3.2,1.4H19.6"/>
	</g>
</g>
<path fill="#D5BD8A" d="M80.9,0.7C80,7.2,58.8,8,58.8,8L24.1,9.7l0,0.4l0,1.3l0,0.4l34.7,0.6c0,0,21.4,0.2,22.4,6.7
	c0,0,0.7,1.7,0.7-0.4c0-1.8-0.1-6.7-0.1-8.1c0,0,0-1,0-1.3c0-1.4-0.1-6.3-0.1-8.1C81.6-1.1,80.9,0.7,80.9,0.7"/>
<g>
	<g>
		<defs>
			<rect id="SVGID_9_" x="24.2" y="11.2" width="57.7" height="6"/>
		</defs>
		<clipPath id="SVGID_10_">
			<use xlink:href="#SVGID_9_"  overflow="visible"/>
		</clipPath>
		<path clip-path="url(#SVGID_10_)" fill="#D5BD8A" d="M81.2,14c-0.9-2.9-22.3-2.8-22.3-2.8l-34.7,0v0l0,0.3l34.7,0.3
			c0,0,21.4,0.1,22.3,4.9c0,0,0.7,1.3,0.7-0.3c0-0.6,0-1.6,0-2.6C81.8,14.7,81.2,14,81.2,14"/>
	</g>
</g>
<g>
	<g>
		<defs>
			<rect id="SVGID_11_" x="24.1" y="2.5" width="57.6" height="7.8"/>
		</defs>
		<clipPath id="SVGID_12_">
			<use xlink:href="#SVGID_11_"  overflow="visible"/>
		</clipPath>
		<path clip-path="url(#SVGID_12_)" fill="#D5BD8A" d="M81,3c-1,4.9-22.2,5.6-22.2,5.6L24.1,9.9l0,0.3v0l34.7-1
			c0,0,21.2-0.6,22.2-3.5c0,0,0.7-0.8,0.7,0.2c0-1,0-2,0-2.6C81.6,1.7,81,3,81,3"/>
	</g>
</g>
<g>
	<g>
		<defs>
			<rect id="SVGID_13_" x="24.1" y="5.4" width="57.7" height="8.9"/>
		</defs>
		<clipPath id="SVGID_14_">
			<use xlink:href="#SVGID_13_"  overflow="visible"/>
		</clipPath>
		<path clip-path="url(#SVGID_14_)" fill="#D5BD8A" d="M81,5.7c-1,2.9-22.2,3.5-22.2,3.5l-34.7,1l0,0.2l0,0.6l0,0.2l34.7,0
			c0,0,21.4-0.1,22.3,2.8c0,0,0.7,0.8,0.7-0.2c0-0.8,0-3-0.1-3.7c0,0,0-0.5,0-0.6c0-0.6,0-2.8-0.1-3.7C81.7,4.9,81,5.7,81,5.7"/>
	</g>
</g>
<g opacity="0.2">
	<g>
		<defs>
			<rect id="SVGID_15_" x="24.5" y="11.5" width="57" height="5.2"/>
		</defs>
		<clipPath id="SVGID_16_">
			<use xlink:href="#SVGID_15_"  overflow="visible"/>
		</clipPath>
		<path clip-path="url(#SVGID_16_)" fill="#D5BD8A" d="M24.5,11.5l29.2,0.2c2.4,0,4.9,0,7.3,0.1c2.4,0.1,4.9,0.2,7.3,0.4
			c2.4,0.2,4.8,0.5,7.2,1.1c1.2,0.3,2.4,0.6,3.5,1.1c0.6,0.2,1.1,0.5,1.6,0.9c0.5,0.4,0.9,0.8,1,1.5c-0.1-0.6-0.6-1.1-1-1.4
			c-0.5-0.4-1-0.6-1.6-0.9c-1.1-0.5-2.3-0.8-3.5-1c-2.4-0.5-4.8-0.8-7.2-1c-2.4-0.2-4.8-0.3-7.3-0.4c-2.4,0-4.9,0-7.3-0.1L24.5,11.5
			z"/>
	</g>
</g>
<g>
	<g>
		<defs>
			<rect id="SVGID_17_" x="24.5" y="3" width="56.9" height="7"/>
		</defs>
		<clipPath id="SVGID_18_">
			<use xlink:href="#SVGID_17_"  overflow="visible"/>
		</clipPath>
		<path clip-path="url(#SVGID_18_)" fill="#D5BD8A" d="M81.3,3c-0.1,0.6-0.5,1.1-1,1.5c-0.5,0.4-1,0.7-1.6,1
			c-1.1,0.5-2.3,0.9-3.5,1.2c-2.4,0.6-4.8,1-7.2,1.3c-4.8,0.6-9.7,0.7-14.5,0.9C48.8,9.1,43.9,9.3,39,9.5c-4.9,0.2-9.7,0.3-14.6,0.4
			l0,0c4.8-0.3,9.7-0.5,14.6-0.7c4.9-0.2,9.7-0.4,14.6-0.5c2.4-0.1,4.9-0.1,7.3-0.3c2.4-0.2,4.8-0.4,7.2-0.7
			c2.4-0.3,4.8-0.7,7.2-1.3c1.2-0.3,2.3-0.6,3.4-1.1c0.5-0.3,1.1-0.5,1.6-0.9C80.7,4,81.2,3.6,81.3,3L81.3,3z"/>
	</g>
</g>
<line fill="none" stroke="#D5BD8A" stroke-width="0.961" stroke-linecap="round" stroke-miterlimit="10" x1="33.4" y1="14.8" x2="38" y2="14.8"/>
<rect x="30.6" y="8.3" fill="#D5BD8A" width="3" height="17.9"/>
<rect x="31.2" y="7.8" fill="#D5BD8A" width="1.9" height="0.4"/>
<rect x="31.7" y="6" fill="#D5BD8A" width="0.8" height="1.8"/>
<rect x="30.8" y="5.4" fill="#D5BD8A" width="2.7" height="0.6"/>
<g>
	<g>
		<defs>
			<rect id="SVGID_19_" x="31" y="5.4" width="2.1" height="20.7"/>
		</defs>
		<clipPath id="SVGID_20_">
			<use xlink:href="#SVGID_19_"  overflow="visible"/>
		</clipPath>
		<polygon clip-path="url(#SVGID_20_)" fill="#D5BD8A" points="32.8,8.3 32.8,7.8 32.4,7.8 32.4,6 33.1,6 33.1,5.4 31.1,5.4 31.1,6 
			31.8,6 31.8,7.8 31.4,7.8 31.4,8.3 31.1,8.3 31.1,26.1 33.2,26.1 33.2,8.3 		"/>
	</g>
</g>
<g>
	<g>
		<defs>
			<rect id="SVGID_21_" x="31.7" y="5.4" width="0.8" height="20.7"/>
		</defs>
		<clipPath id="SVGID_22_">
			<use xlink:href="#SVGID_21_"  overflow="visible"/>
		</clipPath>
		<polygon clip-path="url(#SVGID_22_)" fill="#D5BD8A" points="32.4,8.3 32.4,7.8 32.2,7.8 32.2,6 32.5,6 32.5,5.4 31.8,5.4 31.8,6 
			32,6 32,7.8 31.9,7.8 31.9,8.3 31.7,8.3 31.7,26.1 32.5,26.1 32.5,8.3 		"/>
	</g>
</g>
<g>
	<g>
		<defs>
			<rect id="SVGID_23_" x="30.6" y="8.3" width="3" height="0.1"/>
		</defs>
		<clipPath id="SVGID_24_">
			<use xlink:href="#SVGID_23_"  overflow="visible"/>
		</clipPath>
		<polygon clip-path="url(#SVGID_24_)" fill="#D5BD8A" points="30.6,8.3 33.6,8.3 33.6,8.3 32.1,8.3 30.6,8.3 		"/>
	</g>
</g>
<g>
	<g>
		<defs>
			<rect id="SVGID_25_" x="31.2" y="7.8" width="1.9" height="0.1"/>
		</defs>
		<clipPath id="SVGID_26_">
			<use xlink:href="#SVGID_25_"  overflow="visible"/>
		</clipPath>
		<polygon clip-path="url(#SVGID_26_)" fill="#D5BD8A" points="31.2,7.8 33.1,7.8 33.1,7.8 32.1,7.9 31.2,7.8 		"/>
	</g>
</g>
<g>
	<g>
		<defs>
			<rect id="SVGID_27_" x="30.8" y="5.4" width="2.7" height="0.1"/>
		</defs>
		<clipPath id="SVGID_28_">
			<use xlink:href="#SVGID_27_"  overflow="visible"/>
		</clipPath>
		<polygon clip-path="url(#SVGID_28_)" fill="#D5BD8A" points="30.8,5.4 33.5,5.4 33.5,5.4 32.1,5.5 30.8,5.4 		"/>
	</g>
</g>
<g>
	<g>
		<defs>
			<rect id="SVGID_29_" x="31.7" y="6" width="0.8" height="0.2"/>
		</defs>
		<clipPath id="SVGID_30_">
			<use xlink:href="#SVGID_29_"  overflow="visible"/>
		</clipPath>
		<path clip-path="url(#SVGID_30_)" fill="#D5BD8A" d="M31.7,6c0.3,0,0.5,0,0.8,0v0c-0.1,0.1-0.1,0.1-0.2,0.1c-0.1,0-0.1,0-0.2,0
			c-0.1,0-0.1,0-0.2,0C31.8,6.1,31.8,6.1,31.7,6L31.7,6z"/>
	</g>
</g>
<rect x="30.5" y="25.4" fill="#D5BD8A" width="3.1" height="0.7"/>
<g opacity="0.5">
	<g>
		<defs>
			<rect id="SVGID_31_" x="30.5" y="25.4" width="3.1" height="0.7"/>
		</defs>
		<clipPath id="SVGID_32_">
			<use xlink:href="#SVGID_31_"  overflow="visible"/>
		</clipPath>
		<g clip-path="url(#SVGID_32_)">
			<g>
				<defs>
					<rect id="SVGID_33_" x="30.5" y="25.4" width="0.3" height="0.7"/>
				</defs>
				<clipPath id="SVGID_34_">
					<use xlink:href="#SVGID_33_"  overflow="visible"/>
				</clipPath>
				<rect x="30.5" y="25.4" clip-path="url(#SVGID_34_)" fill="#D5BD8A" width="0.3" height="0.7"/>
			</g>
		</g>
		<g clip-path="url(#SVGID_32_)">
			<g>
				<defs>
					<rect id="SVGID_35_" x="33.3" y="25.4" width="0.3" height="0.7"/>
				</defs>
				<clipPath id="SVGID_36_">
					<use xlink:href="#SVGID_35_"  overflow="visible"/>
				</clipPath>
				<rect x="33.4" y="25.4" clip-path="url(#SVGID_36_)" fill="#D5BD8A" width="0.3" height="0.7"/>
			</g>
		</g>
		<g opacity="0.5" clip-path="url(#SVGID_32_)">
			<g>
				<defs>
					<rect id="SVGID_37_" x="30.9" y="25.4" width="0.7" height="0.7"/>
				</defs>
				<clipPath id="SVGID_38_">
					<use xlink:href="#SVGID_37_"  overflow="visible"/>
				</clipPath>
				<rect x="30.9" y="25.4" clip-path="url(#SVGID_38_)" fill="#D5BD8A" width="0.7" height="0.7"/>
			</g>
		</g>
		<g opacity="0.5" clip-path="url(#SVGID_32_)">
			<g>
				<defs>
					<rect id="SVGID_39_" x="32.7" y="25.4" width="0.7" height="0.7"/>
				</defs>
				<clipPath id="SVGID_40_">
					<use xlink:href="#SVGID_39_"  overflow="visible"/>
				</clipPath>
				<rect x="32.7" y="25.4" clip-path="url(#SVGID_40_)" fill="#D5BD8A" width="0.7" height="0.7"/>
			</g>
		</g>
		<rect x="31.6" y="25.4" clip-path="url(#SVGID_32_)" fill="#D5BD8A" width="1.1" height="0.7"/>
	</g>
</g>
<rect x="34.3" y="8.3" fill="#D5BD8A" width="3" height="17.9"/>
<rect x="34.8" y="7.8" fill="#D5BD8A" width="1.9" height="0.4"/>
<rect x="35.3" y="6" fill="#D5BD8A" width="0.8" height="1.8"/>
<rect x="34.4" y="5.4" fill="#D5BD8A" width="2.7" height="0.6"/>
<g>
	<g>
		<defs>
			<rect id="SVGID_41_" x="34.7" y="5.4" width="2.1" height="20.7"/>
		</defs>
		<clipPath id="SVGID_42_">
			<use xlink:href="#SVGID_41_"  overflow="visible"/>
		</clipPath>
		<polygon clip-path="url(#SVGID_42_)" fill="#D5BD8A" points="36.4,8.3 36.4,7.8 36,7.8 36,6 36.7,6 36.7,5.4 34.8,5.4 34.8,6 
			35.5,6 35.5,7.8 35.1,7.8 35.1,8.3 34.7,8.3 34.7,26.1 36.8,26.1 36.8,8.3 		"/>
	</g>
</g>
<g>
	<g>
		<defs>
			<rect id="SVGID_43_" x="35.3" y="5.4" width="0.8" height="20.7"/>
		</defs>
		<clipPath id="SVGID_44_">
			<use xlink:href="#SVGID_43_"  overflow="visible"/>
		</clipPath>
		<polygon clip-path="url(#SVGID_44_)" fill="#D5BD8A" points="36,8.3 36,7.8 35.9,7.8 35.9,6 36.1,6 36.1,5.4 35.4,5.4 35.4,6 
			35.6,6 35.6,7.8 35.5,7.8 35.5,8.3 35.3,8.3 35.3,26.1 36.2,26.1 36.2,8.3 		"/>
	</g>
</g>
<g>
	<g>
		<defs>
			<rect id="SVGID_45_" x="34.3" y="8.3" width="3" height="0.1"/>
		</defs>
		<clipPath id="SVGID_46_">
			<use xlink:href="#SVGID_45_"  overflow="visible"/>
		</clipPath>
		<polygon clip-path="url(#SVGID_46_)" fill="#D5BD8A" points="34.3,8.3 37.2,8.3 37.2,8.3 35.8,8.3 34.3,8.3 		"/>
	</g>
</g>
<g>
	<g>
		<defs>
			<rect id="SVGID_47_" x="34.8" y="7.8" width="1.9" height="0.1"/>
		</defs>
		<clipPath id="SVGID_48_">
			<use xlink:href="#SVGID_47_"  overflow="visible"/>
		</clipPath>
		<polygon clip-path="url(#SVGID_48_)" fill="#D5BD8A" points="34.8,7.8 36.7,7.8 36.7,7.8 35.8,7.9 34.8,7.8 		"/>
	</g>
</g>
<g>
	<g>
		<defs>
			<rect id="SVGID_49_" x="34.4" y="5.4" width="2.7" height="0.1"/>
		</defs>
		<clipPath id="SVGID_50_">
			<use xlink:href="#SVGID_49_"  overflow="visible"/>
		</clipPath>
		<polygon clip-path="url(#SVGID_50_)" fill="#D5BD8A" points="34.4,5.4 37.1,5.4 37.1,5.4 35.8,5.5 34.4,5.4 		"/>
	</g>
</g>
<g>
	<g>
		<defs>
			<rect id="SVGID_51_" x="35.3" y="6" width="0.8" height="0.2"/>
		</defs>
		<clipPath id="SVGID_52_">
			<use xlink:href="#SVGID_51_"  overflow="visible"/>
		</clipPath>
		<path clip-path="url(#SVGID_52_)" fill="#D5BD8A" d="M35.3,6c0.3,0,0.5,0,0.8,0v0C36.1,6.1,36,6.1,36,6.2c-0.1,0-0.1,0-0.2,0
			c-0.1,0-0.1,0-0.2,0C35.5,6.1,35.4,6.1,35.3,6L35.3,6z"/>
	</g>
</g>
<rect x="34.2" y="25.4" fill="#D5BD8A" width="3.1" height="0.7"/>
<g opacity="0.5">
	<g>
		<defs>
			<rect id="SVGID_53_" x="34.2" y="25.4" width="3.2" height="0.7"/>
		</defs>
		<clipPath id="SVGID_54_">
			<use xlink:href="#SVGID_53_"  overflow="visible"/>
		</clipPath>
		<g clip-path="url(#SVGID_54_)">
			<g>
				<defs>
					<rect id="SVGID_55_" x="34.2" y="25.4" width="0.3" height="0.7"/>
				</defs>
				<clipPath id="SVGID_56_">
					<use xlink:href="#SVGID_55_"  overflow="visible"/>
				</clipPath>
				<rect x="34.2" y="25.4" clip-path="url(#SVGID_56_)" fill="#D5BD8A" width="0.3" height="0.7"/>
			</g>
		</g>
		<g clip-path="url(#SVGID_54_)">
			<g>
				<defs>
					<rect id="SVGID_57_" x="37" y="25.4" width="0.3" height="0.7"/>
				</defs>
				<clipPath id="SVGID_58_">
					<use xlink:href="#SVGID_57_"  overflow="visible"/>
				</clipPath>
				<rect x="37" y="25.4" clip-path="url(#SVGID_58_)" fill="#D5BD8A" width="0.3" height="0.7"/>
			</g>
		</g>
		<g opacity="0.5" clip-path="url(#SVGID_54_)">
			<g>
				<defs>
					<rect id="SVGID_59_" x="34.5" y="25.4" width="0.7" height="0.7"/>
				</defs>
				<clipPath id="SVGID_60_">
					<use xlink:href="#SVGID_59_"  overflow="visible"/>
				</clipPath>
				<rect x="34.5" y="25.4" clip-path="url(#SVGID_60_)" fill="#D5BD8A" width="0.7" height="0.7"/>
			</g>
		</g>
		<g opacity="0.5" clip-path="url(#SVGID_54_)">
			<g>
				<defs>
					<rect id="SVGID_61_" x="36.3" y="25.4" width="0.7" height="0.7"/>
				</defs>
				<clipPath id="SVGID_62_">
					<use xlink:href="#SVGID_61_"  overflow="visible"/>
				</clipPath>
				<rect x="36.3" y="25.4" clip-path="url(#SVGID_62_)" fill="#D5BD8A" width="0.7" height="0.7"/>
			</g>
		</g>
		<rect x="35.2" y="25.4" clip-path="url(#SVGID_54_)" fill="#D5BD8A" width="1.1" height="0.7"/>
	</g>
</g>
<rect x="37.9" y="8.3" fill="#D5BD8A" width="3" height="17.9"/>
<rect x="38.4" y="7.8" fill="#D5BD8A" width="1.9" height="0.4"/>
<rect x="39" y="6" fill="#D5BD8A" width="0.8" height="1.8"/>
<rect x="38" y="5.4" fill="#D5BD8A" width="2.7" height="0.6"/>
<g>
	<g>
		<defs>
			<rect id="SVGID_63_" x="38.3" y="5.4" width="2.1" height="20.7"/>
		</defs>
		<clipPath id="SVGID_64_">
			<use xlink:href="#SVGID_63_"  overflow="visible"/>
		</clipPath>
		<polygon clip-path="url(#SVGID_64_)" fill="#D5BD8A" points="40.1,8.3 40.1,7.8 39.7,7.8 39.7,6 40.4,6 40.4,5.4 38.4,5.4 38.4,6 
			39.1,6 39.1,7.8 38.7,7.8 38.7,8.3 38.3,8.3 38.3,26.1 40.5,26.1 40.5,8.3 		"/>
	</g>
</g>
<g>
	<g>
		<defs>
			<rect id="SVGID_65_" x="39" y="5.4" width="0.8" height="20.7"/>
		</defs>
		<clipPath id="SVGID_66_">
			<use xlink:href="#SVGID_65_"  overflow="visible"/>
		</clipPath>
		<polygon clip-path="url(#SVGID_66_)" fill="#D5BD8A" points="39.6,8.3 39.6,7.8 39.5,7.8 39.5,6 39.8,6 39.8,5.4 39,5.4 39,6 
			39.3,6 39.3,7.8 39.1,7.8 39.1,8.3 39,8.3 39,26.1 39.8,26.1 39.8,8.3 		"/>
	</g>
</g>
<g>
	<g>
		<defs>
			<rect id="SVGID_67_" x="37.9" y="8.3" width="3" height="0.1"/>
		</defs>
		<clipPath id="SVGID_68_">
			<use xlink:href="#SVGID_67_"  overflow="visible"/>
		</clipPath>
		<polygon clip-path="url(#SVGID_68_)" fill="#D5BD8A" points="37.9,8.3 40.9,8.3 40.9,8.3 39.4,8.3 37.9,8.3 		"/>
	</g>
</g>
<g>
	<g>
		<defs>
			<rect id="SVGID_69_" x="38.5" y="7.8" width="1.9" height="0.1"/>
		</defs>
		<clipPath id="SVGID_70_">
			<use xlink:href="#SVGID_69_"  overflow="visible"/>
		</clipPath>
		<polygon clip-path="url(#SVGID_70_)" fill="#D5BD8A" points="38.4,7.8 40.3,7.8 40.3,7.8 39.4,7.9 38.4,7.8 		"/>
	</g>
</g>
<g>
	<g>
		<defs>
			<rect id="SVGID_71_" x="38" y="5.4" width="2.7" height="0.1"/>
		</defs>
		<clipPath id="SVGID_72_">
			<use xlink:href="#SVGID_71_"  overflow="visible"/>
		</clipPath>
		<polygon clip-path="url(#SVGID_72_)" fill="#D5BD8A" points="38,5.4 40.7,5.4 40.7,5.4 39.4,5.5 38,5.4 		"/>
	</g>
</g>
<g>
	<g>
		<defs>
			<rect id="SVGID_73_" x="39" y="6" width="0.8" height="0.2"/>
		</defs>
		<clipPath id="SVGID_74_">
			<use xlink:href="#SVGID_73_"  overflow="visible"/>
		</clipPath>
		<path clip-path="url(#SVGID_74_)" fill="#D5BD8A" d="M39,6c0.3,0,0.5,0,0.8,0v0c-0.1,0.1-0.1,0.1-0.2,0.1c-0.1,0-0.1,0-0.2,0
			c-0.1,0-0.1,0-0.2,0C39.1,6.1,39,6.1,39,6L39,6z"/>
	</g>
</g>
<rect x="37.8" y="25.4" fill="#D5BD8A" width="3.1" height="0.7"/>
<g opacity="0.5">
	<g>
		<defs>
			<rect id="SVGID_75_" x="37.8" y="25.4" width="3.2" height="0.7"/>
		</defs>
		<clipPath id="SVGID_76_">
			<use xlink:href="#SVGID_75_"  overflow="visible"/>
		</clipPath>
		<g clip-path="url(#SVGID_76_)">
			<g>
				<defs>
					<rect id="SVGID_77_" x="37.8" y="25.4" width="0.3" height="0.7"/>
				</defs>
				<clipPath id="SVGID_78_">
					<use xlink:href="#SVGID_77_"  overflow="visible"/>
				</clipPath>
				<rect x="37.8" y="25.4" clip-path="url(#SVGID_78_)" fill="#D5BD8A" width="0.3" height="0.7"/>
			</g>
		</g>
		<g clip-path="url(#SVGID_76_)">
			<g>
				<defs>
					<rect id="SVGID_79_" x="40.6" y="25.4" width="0.3" height="0.7"/>
				</defs>
				<clipPath id="SVGID_80_">
					<use xlink:href="#SVGID_79_"  overflow="visible"/>
				</clipPath>
				<rect x="40.6" y="25.4" clip-path="url(#SVGID_80_)" fill="#D5BD8A" width="0.3" height="0.7"/>
			</g>
		</g>
		<g opacity="0.5" clip-path="url(#SVGID_76_)">
			<g>
				<defs>
					<rect id="SVGID_81_" x="38.1" y="25.4" width="0.7" height="0.7"/>
				</defs>
				<clipPath id="SVGID_82_">
					<use xlink:href="#SVGID_81_"  overflow="visible"/>
				</clipPath>
				<rect x="38.2" y="25.4" clip-path="url(#SVGID_82_)" fill="#D5BD8A" width="0.7" height="0.7"/>
			</g>
		</g>
		<g opacity="0.5" clip-path="url(#SVGID_76_)">
			<g>
				<defs>
					<rect id="SVGID_83_" x="40" y="25.4" width="0.7" height="0.7"/>
				</defs>
				<clipPath id="SVGID_84_">
					<use xlink:href="#SVGID_83_"  overflow="visible"/>
				</clipPath>
				<rect x="40" y="25.4" clip-path="url(#SVGID_84_)" fill="#D5BD8A" width="0.7" height="0.7"/>
			</g>
		</g>
		<rect x="38.8" y="25.4" clip-path="url(#SVGID_76_)" fill="#D5BD8A" width="1.1" height="0.7"/>
	</g>
</g>
<path fill="none" stroke="#D5BD8A" stroke-width="1.601" stroke-linecap="round" stroke-miterlimit="10" d="M31.3,18.2h-8.5
	c0,0-1.5,0.2-1.5,1.6s1.6,1.4,1.6,1.4h9.5"/>
<path fill="none" stroke="#D5BD8A" stroke-width="1.601" stroke-linecap="round" stroke-miterlimit="10" d="M36.2,20.5
	c0,0.4-0.3,0.7-0.7,0.7h-2.7c-0.4,0-0.7-0.3-0.7-0.7v-1.7c0-0.4,0.3-0.7,0.7-0.7h2.7c0.4,0,0.7,0.3,0.7,0.7V20.5z"/>
<line fill="none" stroke="#D5BD8A" stroke-width="1.601" stroke-linecap="round" stroke-miterlimit="10" x1="28" y1="21.2" x2="32.5" y2="21.2"/>
<line fill="none" stroke="#D5BD8A" stroke-width="1.601" stroke-linecap="round" stroke-miterlimit="10" x1="42.2" y1="19.7" x2="40.2" y2="19.7"/>
<g opacity="0.5">
	<g>
		<defs>
			<rect id="SVGID_85_" x="30.5" y="25.4" width="3.1" height="0.7"/>
		</defs>
		<clipPath id="SVGID_86_">
			<use xlink:href="#SVGID_85_"  overflow="visible"/>
		</clipPath>
		<g clip-path="url(#SVGID_86_)">
			<g>
				<defs>
					<rect id="SVGID_87_" x="30.5" y="25.4" width="0.3" height="0.7"/>
				</defs>
				<clipPath id="SVGID_88_">
					<use xlink:href="#SVGID_87_"  overflow="visible"/>
				</clipPath>
				<rect x="30.5" y="25.4" clip-path="url(#SVGID_88_)" fill="#D5BD8A" width="0.3" height="0.7"/>
			</g>
		</g>
		<g clip-path="url(#SVGID_86_)">
			<g>
				<defs>
					<rect id="SVGID_89_" x="33.3" y="25.4" width="0.3" height="0.7"/>
				</defs>
				<clipPath id="SVGID_90_">
					<use xlink:href="#SVGID_89_"  overflow="visible"/>
				</clipPath>
				<rect x="33.4" y="25.4" clip-path="url(#SVGID_90_)" fill="#D5BD8A" width="0.3" height="0.7"/>
			</g>
		</g>
		<g opacity="0.5" clip-path="url(#SVGID_86_)">
			<g>
				<defs>
					<rect id="SVGID_91_" x="30.9" y="25.4" width="0.7" height="0.7"/>
				</defs>
				<clipPath id="SVGID_92_">
					<use xlink:href="#SVGID_91_"  overflow="visible"/>
				</clipPath>
				<rect x="30.9" y="25.4" clip-path="url(#SVGID_92_)" fill="#D5BD8A" width="0.7" height="0.7"/>
			</g>
		</g>
		<g opacity="0.5" clip-path="url(#SVGID_86_)">
			<g>
				<defs>
					<rect id="SVGID_93_" x="32.7" y="25.4" width="0.7" height="0.7"/>
				</defs>
				<clipPath id="SVGID_94_">
					<use xlink:href="#SVGID_93_"  overflow="visible"/>
				</clipPath>
				<rect x="32.7" y="25.4" clip-path="url(#SVGID_94_)" fill="#D5BD8A" width="0.7" height="0.7"/>
			</g>
		</g>
		<rect x="31.6" y="25.4" clip-path="url(#SVGID_86_)" fill="#D5BD8A" width="1.1" height="0.7"/>
	</g>
</g>
<g>
	<g>
		<defs>
			<rect id="SVGID_95_" x="8.2" y="9.6" width="0.3" height="1.6"/>
		</defs>
		<clipPath id="SVGID_96_">
			<use xlink:href="#SVGID_95_"  overflow="visible"/>
		</clipPath>
		<rect x="8.2" y="9.6" clip-path="url(#SVGID_96_)" fill="#D5BD8A" width="0.3" height="1.6"/>
	</g>
</g>
<circle fill="none" stroke="#D5BD8A" stroke-width="0.48" stroke-miterlimit="10" cx="48" cy="17.4" r="1.6"/>
<rect x="55.3" y="10.3" fill="#D5BD8A" width="1" height="1.9"/>
<rect x="55.3" y="17.4" fill="#D5BD8A" width="1" height="1.9"/>
<rect x="55.5" y="12.2" fill="#D5BD8A" width="0.7" height="5.2"/>
<g>
	<g>
		<defs>
			<rect id="SVGID_97_" x="55.5" y="10.3" width="0.7" height="9"/>
		</defs>
		<clipPath id="SVGID_98_">
			<use xlink:href="#SVGID_97_"  overflow="visible"/>
		</clipPath>
		<rect x="55.5" y="10.3" clip-path="url(#SVGID_98_)" fill="#D5BD8A" width="0.7" height="1.9"/>
		<rect x="55.5" y="17.4" clip-path="url(#SVGID_98_)" fill="#D5BD8A" width="0.7" height="1.9"/>
		<rect x="55.6" y="12.2" clip-path="url(#SVGID_98_)" fill="#D5BD8A" width="0.5" height="5.2"/>
	</g>
</g>
<g>
	<g>
		<defs>
			<rect id="SVGID_99_" x="55.6" y="10.3" width="0.4" height="9"/>
		</defs>
		<clipPath id="SVGID_100_">
			<use xlink:href="#SVGID_99_"  overflow="visible"/>
		</clipPath>
		<rect x="55.6" y="10.3" clip-path="url(#SVGID_100_)" fill="#D5BD8A" width="0.4" height="1.9"/>
		<rect x="55.6" y="17.4" clip-path="url(#SVGID_100_)" fill="#D5BD8A" width="0.4" height="1.9"/>
		<rect x="55.7" y="12.2" clip-path="url(#SVGID_100_)" fill="#D5BD8A" width="0.3" height="5.2"/>
	</g>
</g>
<g>
	<g>
		<defs>
			<rect id="SVGID_101_" x="55.5" y="12.2" width="0.7" height="0.2"/>
		</defs>
		<clipPath id="SVGID_102_">
			<use xlink:href="#SVGID_101_"  overflow="visible"/>
		</clipPath>
		<path clip-path="url(#SVGID_102_)" fill="#D5BD8A" d="M55.5,12.2c0.2,0,0.5,0,0.7,0v0c-0.1,0.1-0.2,0.1-0.4,0.1
			C55.7,12.3,55.6,12.4,55.5,12.2L55.5,12.2z"/>
	</g>
</g>
<polygon fill="#D5BD8A" points="55.3,17.4 55.8,17.3 56.3,17.4 56.3,17.4 55.3,17.4 "/>
<rect x="59.7" y="10.3" fill="#D5BD8A" width="1" height="1.9"/>
<rect x="59.7" y="17.4" fill="#D5BD8A" width="1" height="1.9"/>
<rect x="59.8" y="12.2" fill="#D5BD8A" width="0.7" height="5.2"/>
<g>
	<g>
		<defs>
			<rect id="SVGID_103_" x="59.8" y="10.3" width="0.7" height="9"/>
		</defs>
		<clipPath id="SVGID_104_">
			<use xlink:href="#SVGID_103_"  overflow="visible"/>
		</clipPath>
		<rect x="59.8" y="10.3" clip-path="url(#SVGID_104_)" fill="#D5BD8A" width="0.7" height="1.9"/>
		<rect x="59.8" y="17.4" clip-path="url(#SVGID_104_)" fill="#D5BD8A" width="0.7" height="1.9"/>
		<rect x="59.9" y="12.2" clip-path="url(#SVGID_104_)" fill="#D5BD8A" width="0.5" height="5.2"/>
	</g>
</g>
<g>
	<g>
		<defs>
			<rect id="SVGID_105_" x="60" y="10.3" width="0.3" height="9"/>
		</defs>
		<clipPath id="SVGID_106_">
			<use xlink:href="#SVGID_105_"  overflow="visible"/>
		</clipPath>
		<rect x="60" y="10.3" clip-path="url(#SVGID_106_)" fill="#D5BD8A" width="0.4" height="1.9"/>
		<rect x="60" y="17.4" clip-path="url(#SVGID_106_)" fill="#D5BD8A" width="0.4" height="1.9"/>
		<rect x="60" y="12.2" clip-path="url(#SVGID_106_)" fill="#D5BD8A" width="0.3" height="5.2"/>
	</g>
</g>
<g>
	<g>
		<defs>
			<rect id="SVGID_107_" x="59.8" y="12.2" width="0.7" height="0.2"/>
		</defs>
		<clipPath id="SVGID_108_">
			<use xlink:href="#SVGID_107_"  overflow="visible"/>
		</clipPath>
		<path clip-path="url(#SVGID_108_)" fill="#D5BD8A" d="M59.8,12.2c0.2,0,0.5,0,0.7,0v0c-0.1,0.1-0.2,0.1-0.4,0.1
			C60.1,12.3,59.9,12.4,59.8,12.2L59.8,12.2z"/>
	</g>
</g>
<polygon fill="#D5BD8A" points="59.7,17.4 60.2,17.3 60.7,17.4 60.7,17.4 59.7,17.4 "/>
<g>
	<defs>
		<path id="SVGID_109_" d="M16.3,23.5h21v-8.2h-21V23.5z M37.2,11.5h0.7V8.4h-0.7V11.5z M33.6,11.7h0.7V8.3h-0.7V11.7z M5.9,12.7
			h24.7v-7H5.9V12.7z M40.9,25.4h25.7V4H40.9V25.4z"/>
	</defs>
	<clipPath id="SVGID_110_">
		<use xlink:href="#SVGID_109_"  overflow="visible"/>
	</clipPath>
	
		<path clip-path="url(#SVGID_110_)" fill="none" stroke="#D5BD8A" stroke-width="1.601" stroke-linecap="round" stroke-miterlimit="10" d="
		M7.6,10.4l53.8-0.5c0,0,3.5,0.1,3.5,2.7v4.3c0,0-0.3,2.8-3.2,2.8H39.5"/>
	<g clip-path="url(#SVGID_110_)">
		<g>
			<defs>
				<rect id="SVGID_111_" x="7.3" y="9.6" width="57.9" height="11.9"/>
			</defs>
			<clipPath id="SVGID_112_">
				<use xlink:href="#SVGID_111_"  overflow="visible"/>
			</clipPath>
			
				<path clip-path="url(#SVGID_112_)" fill="none" stroke="#D5BD8A" stroke-width="0.64" stroke-linecap="round" stroke-miterlimit="10" d="
				M7.6,10.4l53.8-0.5c0,0,3.5,0.1,3.5,2.7v4.3c0,0-0.3,2.8-3.2,2.8H39.5"/>
			
				<path clip-path="url(#SVGID_112_)" fill="none" stroke="#D5BD8A" stroke-width="0.64" stroke-linecap="round" stroke-miterlimit="10" d="
				M31.3,18.2h-8.5c0,0-1.5,0.2-1.5,1.6s1.6,1.4,1.6,1.4h9.5"/>
			
				<path clip-path="url(#SVGID_112_)" fill="none" stroke="#D5BD8A" stroke-width="0.64" stroke-linecap="round" stroke-miterlimit="10" d="
				M36.2,20.5c0,0.4-0.3,0.7-0.7,0.7h-2.7c-0.4,0-0.7-0.3-0.7-0.7v-1.7c0-0.4,0.3-0.7,0.7-0.7h2.7c0.4,0,0.7,0.3,0.7,0.7V20.5z"/>
			
				<line clip-path="url(#SVGID_112_)" fill="none" stroke="#D5BD8A" stroke-width="0.64" stroke-linecap="round" stroke-miterlimit="10" x1="28" y1="21.2" x2="32.5" y2="21.2"/>
			
				<line clip-path="url(#SVGID_112_)" fill="none" stroke="#D5BD8A" stroke-width="0.64" stroke-linecap="round" stroke-miterlimit="10" x1="42.2" y1="19.7" x2="40.2" y2="19.7"/>
		</g>
	</g>
	<g clip-path="url(#SVGID_110_)">
		<g>
			<defs>
				<rect id="SVGID_113_" x="7.4" y="9.8" width="57.6" height="11.6"/>
			</defs>
			<clipPath id="SVGID_114_">
				<use xlink:href="#SVGID_113_"  overflow="visible"/>
			</clipPath>
			
				<path clip-path="url(#SVGID_114_)" fill="none" stroke="#D5BD8A" stroke-width="0.32" stroke-linecap="round" stroke-miterlimit="10" d="
				M7.6,10.4l53.8-0.5c0,0,3.5,0.1,3.5,2.7v4.3c0,0-0.3,2.8-3.2,2.8H39.5"/>
			
				<path clip-path="url(#SVGID_114_)" fill="none" stroke="#D5BD8A" stroke-width="0.32" stroke-linecap="round" stroke-miterlimit="10" d="
				M31.3,18.2h-8.5c0,0-1.5,0.2-1.5,1.6s1.6,1.4,1.6,1.4h9.5"/>
			
				<path clip-path="url(#SVGID_114_)" fill="none" stroke="#D5BD8A" stroke-width="0.32" stroke-linecap="round" stroke-miterlimit="10" d="
				M36.2,20.5c0,0.4-0.3,0.7-0.7,0.7h-2.7c-0.4,0-0.7-0.3-0.7-0.7v-1.7c0-0.4,0.3-0.7,0.7-0.7h2.7c0.4,0,0.7,0.3,0.7,0.7V20.5z"/>
			
				<line clip-path="url(#SVGID_114_)" fill="none" stroke="#D5BD8A" stroke-width="0.32" stroke-linecap="round" stroke-miterlimit="10" x1="28" y1="21.2" x2="32.5" y2="21.2"/>
			
				<line clip-path="url(#SVGID_114_)" fill="none" stroke="#D5BD8A" stroke-width="0.32" stroke-linecap="round" stroke-miterlimit="10" x1="42.2" y1="19.7" x2="40.2" y2="19.7"/>
		</g>
	</g>
</g>
<rect x="2.7" y="9.3" fill="#D5BD8A" width="5.2" height="2.1"/>
<g opacity="0.5">
	<g>
		<defs>
			<rect id="SVGID_115_" x="2.8" y="9.3" width="5.2" height="2.1"/>
		</defs>
		<clipPath id="SVGID_116_">
			<use xlink:href="#SVGID_115_"  overflow="visible"/>
		</clipPath>
		<g clip-path="url(#SVGID_116_)">
			<g>
				<defs>
					<rect id="SVGID_117_" x="2.8" y="9.3" width="5.2" height="0.2"/>
				</defs>
				<clipPath id="SVGID_118_">
					<use xlink:href="#SVGID_117_"  overflow="visible"/>
				</clipPath>
				<rect x="2.7" y="9.3" clip-path="url(#SVGID_118_)" fill="#D5BD8A" width="5.2" height="0.2"/>
			</g>
		</g>
		<g clip-path="url(#SVGID_116_)">
			<g>
				<defs>
					<rect id="SVGID_119_" x="2.8" y="11.2" width="5.2" height="0.2"/>
				</defs>
				<clipPath id="SVGID_120_">
					<use xlink:href="#SVGID_119_"  overflow="visible"/>
				</clipPath>
				<rect x="2.7" y="11.2" clip-path="url(#SVGID_120_)" fill="#D5BD8A" width="5.2" height="0.2"/>
			</g>
		</g>
		<g opacity="0.5" clip-path="url(#SVGID_116_)">
			<g>
				<defs>
					<rect id="SVGID_121_" x="2.8" y="9.6" width="5.2" height="0.5"/>
				</defs>
				<clipPath id="SVGID_122_">
					<use xlink:href="#SVGID_121_"  overflow="visible"/>
				</clipPath>
				<rect x="2.7" y="9.6" clip-path="url(#SVGID_122_)" fill="#D5BD8A" width="5.2" height="0.5"/>
			</g>
		</g>
		<g opacity="0.5" clip-path="url(#SVGID_116_)">
			<g>
				<defs>
					<rect id="SVGID_123_" x="2.8" y="10.8" width="5.2" height="0.5"/>
				</defs>
				<clipPath id="SVGID_124_">
					<use xlink:href="#SVGID_123_"  overflow="visible"/>
				</clipPath>
				<rect x="2.7" y="10.8" clip-path="url(#SVGID_124_)" fill="#D5BD8A" width="5.2" height="0.5"/>
			</g>
		</g>
		<rect x="2.7" y="10" clip-path="url(#SVGID_116_)" fill="#D5BD8A" width="5.2" height="0.8"/>
	</g>
</g>
<path fill="#EEE4D0" d="M2.4,8.9H1.1v0.3h1.3c0.4,0,0.7,0.3,0.7,0.6V9.7C3.1,9.2,2.8,8.9,2.4,8.9"/>
<path fill="#D5BD8A" d="M2.4,11.6H1.1v0.3h1.3c0.4,0,0.7-0.3,0.7-0.7V11C3.1,11.3,2.8,11.6,2.4,11.6"/>
<path fill="#D5BD8A" d="M2.4,11.2H1.1v0.4h1.3c0.4,0,0.7-0.3,0.7-0.6v-0.2C3.1,11,2.8,11.2,2.4,11.2"/>
<g opacity="0.5">
	<g>
		<defs>
			<rect id="SVGID_125_" x="1.1" y="11" width="2" height="0.9"/>
		</defs>
		<clipPath id="SVGID_126_">
			<use xlink:href="#SVGID_125_"  overflow="visible"/>
		</clipPath>
		<path clip-path="url(#SVGID_126_)" fill="#D5BD8A" d="M2.4,11.6H1.1v0.3h1.3c0.4,0,0.7-0.3,0.7-0.7V11C3.1,11.3,2.8,11.6,2.4,11.6
			"/>
	</g>
</g>
<g opacity="0.3">
	<g>
		<defs>
			<rect id="SVGID_127_" x="1.1" y="10.8" width="2" height="0.8"/>
		</defs>
		<clipPath id="SVGID_128_">
			<use xlink:href="#SVGID_127_"  overflow="visible"/>
		</clipPath>
		<path clip-path="url(#SVGID_128_)" fill="#D5BD8A" d="M2.4,11.2H1.1v0.4h1.3c0.4,0,0.7-0.3,0.7-0.6v-0.2C3.1,11,2.8,11.2,2.4,11.2
			"/>
	</g>
</g>
<path fill="#DDCAA1" d="M2.4,9.2H1.1v0.4h1.3c0.4,0,0.7,0.2,0.7,0.4V9.8C3.1,9.5,2.8,9.2,2.4,9.2"/>
<path fill="#D5BD8A" d="M2.4,9.6H1.1v1.6h1.3c0.4,0,0.7-0.2,0.7-0.4V10C3.1,9.8,2.8,9.6,2.4,9.6"/>
<rect x="0" y="8.5" fill="#D5BD8A" width="1.3" height="3.8"/>
<g opacity="0.5">
	<g>
		<defs>
			<rect id="SVGID_129_" y="8.5" width="1.3" height="3.8"/>
		</defs>
		<clipPath id="SVGID_130_">
			<use xlink:href="#SVGID_129_"  overflow="visible"/>
		</clipPath>
		<g clip-path="url(#SVGID_130_)">
			<g>
				<defs>
					<rect id="SVGID_131_" y="8.5" width="1.3" height="0.4"/>
				</defs>
				<clipPath id="SVGID_132_">
					<use xlink:href="#SVGID_131_"  overflow="visible"/>
				</clipPath>
				<rect x="0" y="8.5" clip-path="url(#SVGID_132_)" fill="#D5BD8A" width="1.3" height="0.4"/>
			</g>
		</g>
		<g clip-path="url(#SVGID_130_)">
			<g>
				<defs>
					<rect id="SVGID_133_" y="11.9" width="1.3" height="0.4"/>
				</defs>
				<clipPath id="SVGID_134_">
					<use xlink:href="#SVGID_133_"  overflow="visible"/>
				</clipPath>
				<rect x="0" y="11.9" clip-path="url(#SVGID_134_)" fill="#D5BD8A" width="1.3" height="0.4"/>
			</g>
		</g>
		<g opacity="0.5" clip-path="url(#SVGID_130_)">
			<g>
				<defs>
					<rect id="SVGID_135_" y="8.9" width="1.3" height="0.8"/>
				</defs>
				<clipPath id="SVGID_136_">
					<use xlink:href="#SVGID_135_"  overflow="visible"/>
				</clipPath>
				<rect x="0" y="8.9" clip-path="url(#SVGID_136_)" fill="#D5BD8A" width="1.3" height="0.8"/>
			</g>
		</g>
		<g opacity="0.5" clip-path="url(#SVGID_130_)">
			<g>
				<defs>
					<rect id="SVGID_137_" y="11.1" width="1.3" height="0.8"/>
				</defs>
				<clipPath id="SVGID_138_">
					<use xlink:href="#SVGID_137_"  overflow="visible"/>
				</clipPath>
				<rect x="0" y="11.1" clip-path="url(#SVGID_138_)" fill="#D5BD8A" width="1.3" height="0.8"/>
			</g>
		</g>
		<rect x="0" y="9.7" clip-path="url(#SVGID_130_)" fill="#D5BD8A" width="1.3" height="1.3"/>
	</g>
</g>
</svg>
