<?xml version="1.0" encoding="utf-8"?>
<!-- Generator: Adobe Illustrator 15.0.2, SVG Export Plug-In . SVG Version: 6.00 Build 0)  -->
<!DOCTYPE svg PUBLIC "-//W3C//DTD SVG 1.1//EN" "http://www.w3.org/Graphics/SVG/1.1/DTD/svg11.dtd">
<svg version="1.1" id="Layer_1" xmlns="http://www.w3.org/2000/svg" xmlns:xlink="http://www.w3.org/1999/xlink" x="0px" y="0px"
	 width="79.8px" height="31.9px" viewBox="0 0 79.8 31.9" enable-background="new 0 0 79.8 31.9" xml:space="preserve">
<polygon fill="#5E411A" points="21.5,30.7 24.7,26 21.1,25.2 19.8,26.8 "/>
<path fill="#231F20" d="M3.1,3.8c0,0,18.4,7.2,28.2-2.4l-0.2,11.2l-17.3-0.4L5.8,9.6L3.1,3.8z"/>
<path fill="#B07959" d="M78.3,21.1c-1,0-76.6,0.3-76.6,0.3s-0.8,0.6-0.8,1.1v4.6c0.6,0.8,2,2.1,5.1,2.1c3.7,0,13.1,0.4,15.6,0.6
	v-2.6c0,0,0.2-1.6,2.9-0.8c2.7,0.8,14.8,4.3,14.8,4.3s3.8,1.9,11.6,1c7.7-0.8,25.7-5.2,27.8-6.6c0,0,1.1-0.4,1.1-2.3V22
	C79.8,22,79.3,21.1,78.3,21.1"/>
<path fill="#8B4D47" d="M0.9,27.1v1.2c0,0,0.2,1.8,5.7,2.2c5.4,0.4,15,0.2,15,0.2v-0.9C19,29.6,9.7,29.2,5.9,29.2
	C2.9,29.2,1.5,27.9,0.9,27.1"/>
<g>
	<g>
		<defs>
			<rect id="SVGID_1_" x="1.3" y="20.8" width="78.3" height="8.6"/>
		</defs>
		<clipPath id="SVGID_2_">
			<use xlink:href="#SVGID_1_"  overflow="visible"/>
		</clipPath>
		<path clip-path="url(#SVGID_2_)" fill="#9E7E64" d="M67.1,27c0,0,11.8-2.4,12.4-5.3c-0.1-0.2-0.6-0.9-1.5-0.9
			c-1,0-76.2,0.3-76.2,0.3s-0.4,0.3-0.6,0.6c0.1,0.3,0.3,0.5,0.5,0.6c1.3,1,3.5,1.4,5,1.4h11.4c0,0,2.2,0.1,5.5,0.8
			c1.9,0.4,4.1,0.9,6.6,1.6c0.8,0.2,1.6,0.5,2.5,0.8C39.8,29,50.2,31.4,67.1,27"/>
	</g>
</g>
<path fill="#F3EDE4" d="M59,18.8c3.4-0.2,2.8-1.9,2.1-2.8c-1.2-0.1-2.4-0.3-3.4-0.7c-4.8-1.6-6.4-3.1-7-3.7C50,11,37.7,1.3,33.6,0.7
	c0,0-1-0.6-2.2,0.6c-1.2,1.2-5.8,12.9-26.7,3.2c-0.4,1-0.8,2.2-1.2,3.7c-1.2,4.6,1.6,5,11.3,6.6c7.3,1.2,8.7,6.7,9,9.3
	c1.9,0.4,4.2,0.9,6.6,1.6c0.8,0.2,1.6,0.5,2.5,0.8C36.6,18.2,54.5,19.1,59,18.8"/>
<path fill="#5E411A" d="M67.3,26.5c0,0,12.5-2.6,12.5-5.5c0-2.9-2.1-5.2-6.5-5.2c-3.4,0-8.1,0.6-12.2,0.2c0.7,1,1.3,2.6-2.1,2.8
	c-4.5,0.3-22.4-0.6-26.1,7.7C39.8,28.5,50.3,30.9,67.3,26.5"/>
<path fill="#5E411A" d="M14.7,14.8C5,13.2,2.2,12.8,3.4,8.2c0.4-1.5,0.8-2.7,1.2-3.7c-0.5-0.2-1-0.5-1.5-0.7C3.1,3.8,0,11,0,14
	c0,3,0.3,6.8,1.6,7.9c1.3,1,3.6,1.4,5.1,1.4h11.5c0,0,2.2,0.1,5.5,0.8C23.4,21.5,22,16,14.7,14.8"/>
<path fill="#5F431C" d="M61.6,17.4c-0.1-0.1-0.3-0.2-0.4-0.3c0.1-0.1,0.2-0.3,0.2-0.4c-0.2-0.1-0.3-0.1-0.5-0.1
	C61,16.3,61,16.2,61,16C61.3,16.4,61.6,16.9,61.6,17.4"/>
<path fill="#5F431C" d="M60.8,18.5c0.1-0.2,0.1-0.3,0.1-0.5c0.2,0,0.3,0.1,0.5,0c0-0.2-0.1-0.3-0.2-0.4c0.1,0,0.3-0.1,0.4-0.3
	c0,0.3-0.1,0.5-0.2,0.7C61.2,18.3,61,18.4,60.8,18.5"/>
<path fill="#5F431C" d="M60.8,18.5c0.2-0.1,0.4-0.3,0.6-0.5c0.2-0.2,0.2-0.5,0.2-0.7l0.2,0c0,0.3-0.1,0.6-0.3,0.9
	c-0.2,0.2-0.4,0.4-0.7,0.5L60.8,18.5z"/>
<path fill="#5F431C" d="M59.3,18.9c0.1-0.1,0.2-0.3,0.3-0.4c0.1,0.1,0.3,0.2,0.4,0.3c0.1-0.1,0.2-0.3,0.2-0.4
	c0.1,0.1,0.3,0.2,0.5,0.2C60.3,18.7,59.8,18.8,59.3,18.9"/>
<path fill="#5F431C" d="M59.3,18.9c0.5-0.1,1-0.1,1.4-0.4l0.1,0.2c-0.5,0.2-1,0.3-1.5,0.4L59.3,18.9z"/>
<path fill="#5F431C" d="M57.9,19l0.3-0.4l0.4,0.4c0.1-0.1,0.2-0.3,0.3-0.4c0.1,0.1,0.3,0.2,0.4,0.3C58.9,18.9,58.4,19,57.9,19"/>
<path fill="#5F431C" d="M57.9,19c0.5,0,1,0,1.4-0.1l0,0.2c-0.5,0.1-1,0.1-1.5,0.1L57.9,19z"/>
<polygon fill="#5F431C" points="56.5,19 56.8,18.6 57.2,19 57.5,18.6 57.9,19 "/>
<rect x="56.5" y="19" transform="matrix(-0.9997 2.570194e-002 -2.570194e-002 -0.9997 114.8317 36.7516)" fill="#5F431C" width="1.4" height="0.2"/>
<polygon fill="#5F431C" points="55,19 55.4,18.7 55.7,19 56.1,18.6 56.5,19 "/>
<rect x="55" y="19" transform="matrix(-0.9997 2.301362e-002 -2.301362e-002 -0.9997 111.8966 37.0091)" fill="#5F431C" width="1.4" height="0.2"/>
<polygon fill="#5F431C" points="53.6,19.1 53.9,18.7 54.3,19.1 54.6,18.7 55,19 "/>
<rect x="53.6" y="19.1" transform="matrix(-0.9995 3.117119e-002 -3.117119e-002 -0.9995 109.1606 36.6742)" fill="#5F431C" width="1.4" height="0.2"/>
<polygon fill="#5F431C" points="52.1,19.1 52.5,18.8 52.8,19.1 53.2,18.7 53.6,19.1 "/>
<rect x="52.1" y="19.1" transform="matrix(-0.9991 4.270176e-002 -4.270176e-002 -0.9991 106.4834 36.2079)" fill="#5F431C" width="1.4" height="0.2"/>
<path fill="#5F431C" d="M50.7,19.2l0.3-0.4l0.4,0.3l0.3-0.4l0.4,0.3C51.7,19.2,51.2,19.2,50.7,19.2"/>
<path fill="#5F431C" d="M50.7,19.2c0.5,0,1-0.1,1.4-0.1l0,0.2c-0.5,0-1,0.1-1.4,0.1L50.7,19.2z"/>
<path fill="#5F431C" d="M49.3,19.3l0.3-0.4l0.4,0.3l0.3-0.4l0.4,0.3C50.2,19.3,49.7,19.3,49.3,19.3"/>
<path fill="#5F431C" d="M49.3,19.3c0.5,0,1-0.1,1.4-0.1l0,0.2c-0.5,0-1,0.1-1.4,0.1L49.3,19.3z"/>
<path fill="#5F431C" d="M47.8,19.5l0.3-0.4l0.4,0.3l0.3-0.4l0.4,0.3C48.8,19.4,48.3,19.4,47.8,19.5"/>
<path fill="#5F431C" d="M47.8,19.5c0.5-0.1,1-0.1,1.4-0.1l0,0.2c-0.5,0-1,0.1-1.4,0.1L47.8,19.5z"/>
<path fill="#5F431C" d="M46.4,19.7l0.3-0.4l0.4,0.3l0.3-0.4l0.4,0.3C47.3,19.5,46.9,19.6,46.4,19.7"/>
<path fill="#5F431C" d="M46.4,19.7c0.5-0.1,1-0.1,1.4-0.2l0,0.2c-0.5,0.1-1,0.1-1.4,0.2L46.4,19.7z"/>
<path fill="#5F431C" d="M45,19.9l0.3-0.4l0.4,0.3l0.3-0.4l0.4,0.3C45.9,19.7,45.4,19.8,45,19.9"/>
<path fill="#5F431C" d="M45,19.9c0.5-0.1,0.9-0.2,1.4-0.2l0,0.2C45.9,20,45.5,20,45,20.1L45,19.9z"/>
<path fill="#5F431C" d="M43.5,20.1l0.3-0.4l0.4,0.3l0.3-0.4l0.4,0.3C44.5,20,44,20,43.5,20.1"/>
<path fill="#5F431C" d="M43.5,20.1C44,20,44.5,20,45,19.9l0,0.2c-0.5,0.1-0.9,0.2-1.4,0.3L43.5,20.1z"/>
<path fill="#5F431C" d="M42.1,20.5l0.3-0.4l0.4,0.3l0.3-0.4l0.4,0.3C43.1,20.2,42.6,20.3,42.1,20.5"/>
<path fill="#5F431C" d="M42.1,20.5c0.5-0.1,0.9-0.2,1.4-0.3l0,0.2c-0.5,0.1-0.9,0.2-1.4,0.3L42.1,20.5z"/>
<path fill="#5F431C" d="M40.8,20.8l0.2-0.5l0.4,0.3l0.3-0.5l0.4,0.3C41.7,20.6,41.2,20.7,40.8,20.8"/>
<path fill="#5F431C" d="M40.8,20.8c0.5-0.1,0.9-0.3,1.4-0.4l0.1,0.2c-0.5,0.1-0.9,0.2-1.4,0.4L40.8,20.8z"/>
<path fill="#5F431C" d="M39.4,21.3l0.2-0.5l0.5,0.2l0.2-0.5l0.5,0.2C40.3,21,39.8,21.1,39.4,21.3"/>
<path fill="#5F431C" d="M39.4,21.3c0.4-0.2,0.9-0.3,1.4-0.5l0.1,0.2c-0.5,0.1-0.9,0.3-1.3,0.5L39.4,21.3z"/>
<path fill="#5F431C" d="M38.1,21.9c0.1-0.2,0.1-0.3,0.2-0.5c0.2,0.1,0.3,0.1,0.5,0.2l0.2-0.5l0.5,0.2C38.9,21.5,38.5,21.7,38.1,21.9
	"/>
<path fill="#5F431C" d="M38.1,21.9c0.4-0.2,0.9-0.4,1.3-0.5l0.1,0.2c-0.4,0.2-0.9,0.3-1.3,0.5L38.1,21.9z"/>
<path fill="#5F431C" d="M36.8,22.5c0-0.2,0.1-0.3,0.1-0.5c0.2,0,0.3,0.1,0.5,0.2c0-0.2,0.1-0.3,0.2-0.5c0.2,0.1,0.3,0.1,0.5,0.2
	C37.6,22.1,37.2,22.3,36.8,22.5"/>
<path fill="#5F431C" d="M36.8,22.5c0.4-0.2,0.8-0.5,1.3-0.7l0.1,0.2c-0.4,0.2-0.8,0.4-1.3,0.6L36.8,22.5z"/>
<path fill="#5F431C" d="M35.6,23.3c0-0.2,0.1-0.3,0.1-0.5c0.2,0,0.3,0.1,0.5,0.1c0-0.2,0.1-0.3,0.1-0.5c0.2,0,0.3,0.1,0.5,0.1
	C36.4,22.8,36,23,35.6,23.3"/>
<path fill="#5F431C" d="M35.6,23.3c0.4-0.3,0.8-0.5,1.2-0.8l0.1,0.2c-0.4,0.2-0.8,0.5-1.2,0.8L35.6,23.3z"/>
<path fill="#5F431C" d="M34.5,24.2c0-0.2,0-0.3,0-0.5c0.2,0,0.3,0,0.5,0c0-0.2,0-0.3,0-0.5c0.2,0,0.3,0,0.5,0.1
	C35.2,23.6,34.8,23.9,34.5,24.2"/>
<path fill="#5F431C" d="M34.5,24.2c0.3-0.3,0.7-0.6,1.1-0.9l0.1,0.2c-0.4,0.3-0.7,0.6-1.1,0.9L34.5,24.2z"/>
<path fill="#5F431C" d="M33.6,25.3c0-0.2-0.1-0.3-0.1-0.5c0.2,0,0.3,0,0.5-0.1c0-0.2,0-0.3,0-0.5c0.2,0,0.3,0,0.5,0
	C34.2,24.6,33.8,24.9,33.6,25.3"/>
<path fill="#5F431C" d="M33.6,25.3c0.3-0.4,0.6-0.8,0.9-1.1l0.2,0.2c-0.3,0.3-0.6,0.7-0.9,1.1L33.6,25.3z"/>
<path fill="#5F431C" d="M32.9,26.6c-0.1-0.2-0.1-0.3-0.2-0.5c0.2-0.1,0.3-0.1,0.5-0.1c0-0.2-0.1-0.3-0.1-0.5c0.2,0,0.3-0.1,0.5-0.1
	C33.3,25.7,33.1,26.1,32.9,26.6"/>
<path fill="#5F431C" d="M32.9,26.6c0.2-0.4,0.4-0.8,0.7-1.2l0.2,0.1c-0.3,0.4-0.5,0.8-0.7,1.2L32.9,26.6z"/>
<path fill="none" stroke="#FBFAF4" stroke-width="0.24" stroke-miterlimit="10" d="M4,6.4c0,0,18.8,9.7,27.6-0.7
	c0,0,8.3,3.2,11.8,8.8"/>
<path fill="#5F431C" d="M23.4,22.7l0.4,0.3l-0.3,0.4l0.4,0.3l-0.3,0.4c0,0,0-0.4-0.1-0.7C23.5,23,23.4,22.7,23.4,22.7"/>
<path fill="#5F431C" d="M23.4,22.7c0,0,0.1,0.4,0.1,0.7c0.1,0.4,0.1,0.7,0.1,0.7l-0.2,0c0,0,0-0.4-0.1-0.7c-0.1-0.4-0.1-0.7-0.1-0.7
	L23.4,22.7z"/>
<path fill="#5F431C" d="M22.9,21.2l0.5,0.2l-0.1,0.2c-0.1,0.1-0.1,0.2-0.1,0.2l0.5,0.3c0,0-0.3,0.5-0.3,0.5c0,0-0.1-0.4-0.2-0.7
	C23.1,21.6,22.9,21.2,22.9,21.2"/>
<path fill="#5F431C" d="M22.9,21.2c0,0,0.1,0.3,0.2,0.7c0.1,0.4,0.2,0.7,0.2,0.7l-0.2,0.1c0,0-0.1-0.4-0.2-0.7
	c-0.1-0.4-0.2-0.7-0.2-0.7L22.9,21.2z"/>
<path fill="#5F431C" d="M22.3,19.9l0.5,0.2c0,0,0,0.1-0.1,0.3c0,0.1-0.1,0.3-0.1,0.3l0.5,0.2c0,0,0,0.1-0.1,0.2
	c-0.1,0.1-0.1,0.2-0.1,0.2c0,0-0.1-0.3-0.3-0.7C22.5,20.2,22.3,19.9,22.3,19.9"/>
<path fill="#5F431C" d="M22.3,19.9c0,0,0.2,0.3,0.3,0.7c0.2,0.3,0.3,0.7,0.3,0.7l-0.2,0.1c0,0-0.1-0.3-0.3-0.7
	c-0.1-0.3-0.3-0.7-0.3-0.7L22.3,19.9z"/>
<path fill="#5F431C" d="M21.5,18.6l0.5,0.1l-0.1,0.5l0.5,0.1c0,0,0,0.1-0.1,0.3c0,0.1-0.1,0.3-0.1,0.3
	C22.4,19.8,21.5,18.6,21.5,18.6"/>
<path fill="#5F431C" d="M21.5,18.6c0,0,0.9,1.2,0.8,1.2L22.1,20c0,0-0.8-1.2-0.8-1.2L21.5,18.6z"/>
<path fill="#5F431C" d="M20.5,17.5c0,0,0.1,0,0.3,0c0.1,0,0.3,0,0.3,0l0,0.5c0,0,0.5,0,0.5,0l-0.1,0.5
	C21.5,18.6,20.5,17.5,20.5,17.5"/>
<path fill="#5F431C" d="M20.5,17.5c0,0,1,1.1,1,1.1l-0.2,0.1c0,0-0.9-1.1-1-1.1L20.5,17.5z"/>
<path fill="#5F431C" d="M19.3,16.6l0.5-0.1l0.1,0.5l0.5,0l0,0.5c0,0-0.3-0.2-0.6-0.5C19.6,16.8,19.3,16.6,19.3,16.6"/>
<path fill="#5F431C" d="M19.3,16.6c0,0,0.3,0.2,0.6,0.4c0.3,0.2,0.6,0.5,0.6,0.5l-0.2,0.2c0,0-0.3-0.2-0.5-0.5
	c-0.3-0.2-0.6-0.4-0.6-0.4L19.3,16.6z"/>
<path fill="#5F431C" d="M18,15.9l0.3-0.1l0.3-0.1l0.2,0.5l0.5-0.1c0,0,0.1,0.5,0.1,0.5s-0.1-0.1-0.2-0.1c-0.1-0.1-0.3-0.2-0.4-0.3
	c-0.2-0.1-0.3-0.2-0.5-0.2C18.1,15.9,18,15.9,18,15.9"/>
<path fill="#5F431C" d="M18,15.9c0,0,0.1,0,0.2,0.1c0.1,0.1,0.3,0.2,0.5,0.2c0.2,0.1,0.3,0.2,0.4,0.3c0.1,0.1,0.2,0.1,0.2,0.1
	l-0.1,0.2c0,0-0.1-0.1-0.2-0.1c-0.1-0.1-0.3-0.2-0.4-0.2c-0.2-0.1-0.3-0.2-0.4-0.2c-0.1-0.1-0.2-0.1-0.2-0.1L18,15.9z"/>
<path fill="#5F431C" d="M16.6,15.3l0.5-0.2c0,0,0.1,0.1,0.1,0.2c0.1,0.1,0.1,0.2,0.1,0.2l0.5-0.2l0.2,0.5l-0.7-0.3
	c-0.2-0.1-0.4-0.1-0.5-0.2C16.7,15.4,16.6,15.3,16.6,15.3"/>
<path fill="#5F431C" d="M16.6,15.3c0,0,0.1,0,0.2,0.1c0.1,0,0.3,0.1,0.5,0.2l0.7,0.3l-0.1,0.2l-0.7-0.3c-0.2-0.1-0.3-0.1-0.5-0.2
	c-0.1,0-0.2-0.1-0.2-0.1L16.6,15.3z"/>
<path fill="#5F431C" d="M15.2,15l0.4-0.3l0.3,0.4c0,0,0.5-0.3,0.5-0.3l0.3,0.5c0,0-0.4-0.1-0.7-0.2C15.5,15.1,15.2,15,15.2,15"/>
<path fill="#5F431C" d="M15.2,15c0,0,0.4,0.1,0.7,0.2c0.4,0.1,0.7,0.2,0.7,0.2l-0.1,0.2c0,0-0.3-0.1-0.7-0.2l-0.7-0.1L15.2,15z"/>
<path fill="#5F431C" d="M13.7,14.7l0.4-0.3l0.3,0.4l0.4-0.3l0.3,0.4c0,0-0.4-0.1-0.7-0.1C14.1,14.8,13.7,14.7,13.7,14.7"/>
<path fill="#5F431C" d="M13.7,14.7c0,0,0.4,0.1,0.7,0.1c0.4,0.1,0.7,0.1,0.7,0.1l0,0.2c0,0-0.4-0.1-0.7-0.1C14,15,13.7,15,13.7,15
	L13.7,14.7z"/>
<polygon fill="#5F431C" points="12.2,14.5 12.6,14.2 13,14.6 13.4,14.3 13.7,14.7 "/>
<rect x="12.2" y="14.6" transform="matrix(-0.9869 -0.1611 0.1611 -0.9869 23.3236 31.3172)" fill="#5F431C" width="1.5" height="0.2"/>
<polygon fill="#5F431C" points="10.7,14.2 11.2,13.9 11.5,14.3 11.9,14 12.2,14.5 "/>
<rect x="10.7" y="14.3" transform="matrix(-0.9859 -0.1676 0.1676 -0.9859 20.3089 30.6442)" fill="#5F431C" width="1.5" height="0.2"/>
<path fill="#5F431C" d="M9.2,13.9l0.4-0.3l0.3,0.4l0.4-0.3l0.3,0.4c0,0-0.4-0.1-0.7-0.1C9.6,14,9.2,13.9,9.2,13.9"/>
<path fill="#5F431C" d="M9.2,13.9c0,0,0.4,0.1,0.7,0.1c0.4,0.1,0.7,0.1,0.7,0.1l0,0.2c0,0-0.4-0.1-0.7-0.1l-0.7-0.1L9.2,13.9z"/>
<path fill="#5F431C" d="M7.8,13.6l0.4-0.3l0.3,0.4l0.4-0.3l0.3,0.4c0,0-0.4-0.1-0.7-0.1C8.1,13.7,7.8,13.6,7.8,13.6"/>
<path fill="#5F431C" d="M7.8,13.6c0,0,0.4,0.1,0.7,0.2c0.4,0.1,0.7,0.1,0.7,0.1l0,0.2c0,0-0.4-0.1-0.7-0.1c-0.4-0.1-0.7-0.2-0.7-0.2
	L7.8,13.6z"/>
<path fill="#5F431C" d="M6.3,13.2L6.8,13L7,13.5l0.5-0.3l0.3,0.4c0,0-0.4-0.1-0.7-0.2C6.7,13.4,6.3,13.2,6.3,13.2"/>
<path fill="#5F431C" d="M6.3,13.2c0,0,0.4,0.1,0.7,0.2c0.4,0.1,0.7,0.2,0.7,0.2l-0.1,0.2c0,0-0.4-0.1-0.7-0.2
	c-0.4-0.1-0.7-0.2-0.7-0.2L6.3,13.2z"/>
<path fill="#5F431C" d="M4.9,12.7c0,0,0.5-0.2,0.5-0.2L5.6,13c0,0,0.1,0,0.2-0.1c0.1-0.1,0.2-0.1,0.2-0.1l0.2,0.5
	c0,0-0.4-0.1-0.7-0.2C5.3,12.8,4.9,12.7,4.9,12.7"/>
<path fill="#5F431C" d="M4.9,12.7c0,0,0.3,0.2,0.7,0.3c0.4,0.1,0.7,0.2,0.7,0.2l-0.1,0.2c0,0-0.4-0.1-0.7-0.3
	c-0.4-0.2-0.7-0.3-0.7-0.3L4.9,12.7z"/>
<path fill="#5F431C" d="M3.7,11.8c0,0,0.5,0,0.5,0c0,0,0,0.5,0,0.5c0,0,0.1,0,0.3,0c0.1,0,0.3-0.1,0.3-0.1s0,0.1,0.1,0.2
	c0,0.1,0.1,0.3,0.1,0.3s-0.1,0-0.2-0.1c-0.1-0.1-0.3-0.2-0.4-0.3C4.1,12.2,4,12.1,3.9,12C3.8,11.8,3.7,11.8,3.7,11.8"/>
<path fill="#5F431C" d="M3.7,11.8c0,0,0.1,0.1,0.1,0.2c0.1,0.1,0.3,0.2,0.4,0.3c0.1,0.1,0.3,0.2,0.4,0.3c0.1,0.1,0.2,0.1,0.2,0.1
	l-0.1,0.2c0,0-0.1,0-0.2-0.1c-0.1-0.1-0.3-0.2-0.5-0.3c-0.2-0.1-0.3-0.3-0.4-0.4l-0.2-0.2L3.7,11.8z"/>
<path fill="#5F431C" d="M3.1,10.4c0,0,0.4,0.3,0.4,0.3c0,0-0.3,0.4-0.3,0.5c0,0,0.5,0.2,0.5,0.2c0,0-0.1,0.5-0.1,0.5
	c0,0-0.1-0.1-0.2-0.2c-0.1-0.1-0.2-0.3-0.2-0.5c-0.1-0.2-0.1-0.4-0.1-0.5C3.1,10.5,3.1,10.4,3.1,10.4"/>
<path fill="#5F431C" d="M3.1,10.4c0,0,0,0.1,0,0.2c0,0.1,0.1,0.3,0.1,0.5c0.1,0.2,0.2,0.4,0.2,0.5c0.1,0.1,0.2,0.2,0.2,0.2l-0.2,0.2
	c0,0-0.1-0.1-0.2-0.2c-0.1-0.1-0.2-0.3-0.3-0.5C3,11,3,10.8,2.9,10.6c0-0.2,0-0.3,0-0.3L3.1,10.4z"/>
<path fill="#5F431C" d="M3.2,8.9c0,0,0.3,0.4,0.3,0.4c0,0-0.1,0.1-0.2,0.2C3.2,9.5,3.1,9.6,3.1,9.6c0,0,0.3,0.4,0.4,0.4l-0.2,0.2
	c-0.1,0.1-0.2,0.2-0.2,0.2s0-0.1,0-0.2c0-0.1,0-0.3,0-0.5c0-0.2,0-0.4,0.1-0.5C3.2,8.9,3.2,8.8,3.2,8.9"/>
<path fill="#5F431C" d="M3.2,8.9c0,0,0,0.1,0,0.2c0,0.1,0,0.3-0.1,0.5c0,0.2,0,0.4,0,0.5c0,0.1,0,0.2,0,0.2l-0.2,0l0-0.3
	c0-0.2,0-0.4,0-0.6c0-0.2,0-0.4,0.1-0.5c0-0.1,0-0.2,0-0.2L3.2,8.9z"/>
<path fill="#5F431C" d="M3.6,7.4l0.3,0.5L3.4,8.1c0,0,0.3,0.4,0.3,0.5L3.2,8.9c0,0,0.1-0.4,0.2-0.7L3.6,7.4z"/>
<path fill="#5F431C" d="M3.6,7.4L3.4,8.1C3.3,8.5,3.2,8.8,3.2,8.9L3,8.8c0,0,0.1-0.4,0.2-0.8l0.2-0.7L3.6,7.4z"/>
<path fill="#5F431C" d="M4.1,5.9l0.2,0.5L3.8,6.7l0.2,0.5L3.6,7.4c0,0,0.1-0.4,0.2-0.7C3.9,6.3,4.1,5.9,4.1,5.9"/>
<path fill="#5F431C" d="M4.1,5.9c0,0-0.1,0.4-0.2,0.7C3.7,7,3.6,7.4,3.6,7.4L3.4,7.3l0.2-0.7c0.1-0.4,0.2-0.7,0.2-0.7L4.1,5.9z"/>
<polygon fill="#5F431C" points="4.6,4.5 4.8,5 4.3,5.2 4.5,5.7 4.1,5.9 "/>
<polygon fill="#5F431C" points="4.6,4.5 4.1,5.9 3.8,5.9 4.3,4.4 "/>
<path fill="none" stroke="#FBFAF4" stroke-width="0.24" stroke-miterlimit="10" d="M49.2,10.4c0,0-1.5,4.5-10.2,4.5
	c-8.6,0-9.8-0.1-11.5,3.4c-1.7,3.5-2.6,6-2.6,6"/>
<path fill="#BCA66D" d="M34,3.2c-0.6,0-1.2,0.5-1.2,1c0,0.6,0.5,1,1.2,1c0.6,0,1.2-0.5,1.2-1C35.2,3.7,34.7,3.2,34,3.2 M34.1,4.8
	c-0.5,0-0.8-0.3-0.8-0.7s0.4-0.7,0.8-0.7S35,3.7,35,4.1S34.6,4.8,34.1,4.8"/>
<path fill="#BCA66D" d="M37.7,5.4c-0.6,0-1.2,0.5-1.2,1c0,0.6,0.5,1,1.2,1c0.6,0,1.2-0.5,1.2-1C38.9,5.9,38.4,5.4,37.7,5.4 M37.8,7
	C37.3,7,37,6.7,37,6.3c0-0.4,0.4-0.7,0.8-0.7s0.8,0.3,0.8,0.7C38.6,6.7,38.3,7,37.8,7"/>
<path fill="#BCA66D" d="M41.3,7.3c-0.6,0-1.2,0.5-1.2,1s0.5,1,1.2,1c0.6,0,1.2-0.5,1.2-1S42,7.3,41.3,7.3 M41.4,8.9
	c-0.5,0-0.8-0.3-0.8-0.7s0.4-0.7,0.8-0.7c0.5,0,0.8,0.3,0.8,0.7S41.9,8.9,41.4,8.9"/>
<path fill="#BCA66D" d="M44.9,9.6c-0.6,0-1.2,0.5-1.2,1s0.5,1,1.2,1c0.6,0,1.2-0.5,1.2-1S45.6,9.6,44.9,9.6 M45,11.1
	c-0.5,0-0.8-0.3-0.8-0.7s0.4-0.7,0.8-0.7c0.5,0,0.8,0.3,0.8,0.7S45.5,11.1,45,11.1"/>
<g opacity="0.5">
	<g>
		<defs>
			<rect id="SVGID_3_" x="44.9" y="22.4" width="28.2" height="4.5"/>
		</defs>
		<clipPath id="SVGID_4_">
			<use xlink:href="#SVGID_3_"  overflow="visible"/>
		</clipPath>
		<path clip-path="url(#SVGID_4_)" fill="#5E411A" d="M44.9,26c2.4-0.4,4.7-0.7,7.1-1l7-0.8l7-0.8l7.1-1c-2.1,1.3-4.4,2.1-6.7,2.8
			c-2.3,0.7-4.7,1.1-7.1,1.4c-2.4,0.3-4.8,0.4-7.2,0.3C49.7,26.8,47.3,26.6,44.9,26"/>
	</g>
</g>
<g opacity="0.5">
	<g>
		<defs>
			<rect id="SVGID_5_" x="3.7" y="14.7" width="15" height="5.5"/>
		</defs>
		<clipPath id="SVGID_6_">
			<use xlink:href="#SVGID_5_"  overflow="visible"/>
		</clipPath>
		<path clip-path="url(#SVGID_6_)" fill="#5E411A" d="M3.7,14.7c1.4,0.2,2.7,0.5,4,0.9c1.3,0.4,2.5,0.8,3.7,1.3
			c1.2,0.5,2.4,1,3.6,1.5c1.2,0.5,2.4,1.1,3.6,1.7c-1.4,0.2-2.8,0.1-4.1-0.2c-1.3-0.3-2.6-0.6-3.9-1.1c-1.3-0.5-2.5-1.1-3.6-1.7
			C5.9,16.4,4.8,15.6,3.7,14.7"/>
	</g>
</g>
<g>
	<g>
		<defs>
			<rect id="SVGID_7_" x="33.4" y="0.1" width="3.1" height="4.7"/>
		</defs>
		<clipPath id="SVGID_8_">
			<use xlink:href="#SVGID_7_"  overflow="visible"/>
		</clipPath>
		
			<path clip-path="url(#SVGID_8_)" fill="none" stroke="#E7E2DD" stroke-width="1.359" stroke-linecap="round" stroke-linejoin="round" stroke-miterlimit="10" d="
			M34,4.2c0.1-0.3,0.5-0.7,0.7-1c0.2-0.3,0.4-0.6,0.5-0.9c0.2-0.4,0.5-1,0.5-1.4c-0.3-0.1-0.5,0.1-0.6,0.3"/>
	</g>
</g>
<g>
	<g>
		<defs>
			<rect id="SVGID_9_" x="37" y="2" width="3.3" height="5.1"/>
		</defs>
		<clipPath id="SVGID_10_">
			<use xlink:href="#SVGID_9_"  overflow="visible"/>
		</clipPath>
		
			<path clip-path="url(#SVGID_10_)" fill="none" stroke="#E7E2DD" stroke-width="1.359" stroke-linecap="round" stroke-linejoin="round" stroke-miterlimit="10" d="
			M37.7,6.4c0.7-0.4,1-1.3,1.4-1.9c0.3-0.5,0.6-1.2,0.5-1.8c-0.2,0-0.4,0.1-0.5,0.2"/>
	</g>
</g>
<g>
	<g>
		<defs>
			<rect id="SVGID_11_" x="40.6" y="4.6" width="3.7" height="4.5"/>
		</defs>
		<clipPath id="SVGID_12_">
			<use xlink:href="#SVGID_11_"  overflow="visible"/>
		</clipPath>
		
			<path clip-path="url(#SVGID_12_)" fill="none" stroke="#E7E2DD" stroke-width="1.359" stroke-linecap="round" stroke-linejoin="round" stroke-miterlimit="10" d="
			M41.3,8.4c0.3-0.4,0.9-0.7,1.3-1.1c0.3-0.3,0.5-0.7,0.7-1.1c0.1-0.1,0.4-0.7,0.3-0.8c-0.1-0.2-0.6,0.1-0.7,0.2"/>
	</g>
</g>
<g>
	<g>
		<defs>
			<rect id="SVGID_13_" x="44.2" y="7.2" width="3.6" height="4.1"/>
		</defs>
		<clipPath id="SVGID_14_">
			<use xlink:href="#SVGID_13_"  overflow="visible"/>
		</clipPath>
		
			<path clip-path="url(#SVGID_14_)" fill="none" stroke="#E7E2DD" stroke-width="1.359" stroke-linecap="round" stroke-linejoin="round" stroke-miterlimit="10" d="
			M44.9,10.6c0.5-0.4,0.9-0.8,1.4-1.3c0.3-0.3,1.1-1.1,0.8-1.5C47.1,7.9,47,8,46.9,8"/>
	</g>
</g>
<path fill="none" stroke="#FDFDF9" stroke-width="1.359" stroke-linecap="round" stroke-miterlimit="10" d="M34.2,4
	c0.1-0.3,0.5-0.7,0.7-1c0.2-0.3,0.3-0.6,0.5-0.9c0.2-0.4,0.5-1,0.5-1.4c-0.3-0.1-0.5,0.1-0.6,0.3"/>
<path fill="none" stroke="#FDFDF9" stroke-width="1.359" stroke-linecap="round" stroke-miterlimit="10" d="M37.8,6.3
	c0.7-0.4,1-1.3,1.4-1.9c0.3-0.5,0.6-1.2,0.5-1.8c-0.2,0-0.4,0.1-0.5,0.2"/>
<path fill="none" stroke="#FDFDF9" stroke-width="1.359" stroke-linecap="round" stroke-miterlimit="10" d="M41.4,8.3
	c0.3-0.4,0.9-0.7,1.3-1.1c0.3-0.3,0.5-0.7,0.7-1.1c0.1-0.1,0.4-0.7,0.3-0.8c-0.1-0.2-0.6,0.1-0.7,0.2"/>
<path fill="none" stroke="#FDFDF9" stroke-width="1.359" stroke-linecap="round" stroke-linejoin="round" stroke-miterlimit="10" d="
	M45,10.4c0.5-0.4,0.9-0.8,1.4-1.3c0.3-0.3,1.1-1.1,0.8-1.5c0,0.1-0.1,0.1-0.2,0.2"/>
<path fill="#5F431C" d="M61.4,16c-0.1,0-0.2,0-0.3,0c0.3,0.4,0.5,0.8,0.5,1.4l0.2,0c0-0.3-0.1-0.6-0.2-0.8
	C61.6,16.4,61.5,16.2,61.4,16"/>
<g>
	<g>
		<defs>
			<rect id="SVGID_15_" x="1.3" y="6.9" width="20" height="16.7"/>
		</defs>
		<clipPath id="SVGID_16_">
			<use xlink:href="#SVGID_15_"  overflow="visible"/>
		</clipPath>
		<path clip-path="url(#SVGID_16_)" fill="none" stroke="#AEA08D" stroke-width="0.239" stroke-miterlimit="10" d="M2,7
			c0,0-3,7.2,4.5,8.1c7.4,1,14.5,2,14.7,8.5"/>
	</g>
</g>
<g>
	<g>
		<defs>
			<rect id="SVGID_17_" x="35" y="16.1" width="29.4" height="10.6"/>
		</defs>
		<clipPath id="SVGID_18_">
			<use xlink:href="#SVGID_17_"  overflow="visible"/>
		</clipPath>
		<path clip-path="url(#SVGID_18_)" fill="none" stroke="#AEA08D" stroke-width="0.239" stroke-miterlimit="10" d="M35.1,26.7
			c0,0,1.9-5.4,15.3-5.7c13.4-0.4,14.9-0.4,13.5-4.8"/>
	</g>
</g>
<path fill="#F3EDE4" d="M34.7,25.8c0,0.2-0.2,0.3-0.3,0.3S34,26,34,25.8c0-0.2,0.2-0.3,0.3-0.3S34.7,25.6,34.7,25.8"/>
<path fill="#F3EDE4" d="M22.6,22.5c0,0.2-0.2,0.3-0.3,0.3s-0.3-0.2-0.3-0.3s0.2-0.3,0.3-0.3S22.6,22.3,22.6,22.5"/>
<path fill="#F3EDE4" d="M21.5,19.6c0,0.2-0.2,0.3-0.3,0.3c-0.2,0-0.3-0.1-0.3-0.3c0-0.2,0.2-0.3,0.3-0.3
	C21.3,19.3,21.5,19.4,21.5,19.6"/>
<path fill="#F3EDE4" d="M19.4,17.4c0,0.2-0.2,0.3-0.3,0.3s-0.3-0.2-0.3-0.3s0.2-0.3,0.3-0.3S19.4,17.2,19.4,17.4"/>
<path fill="#F3EDE4" d="M16.5,16.1c0,0.2-0.2,0.3-0.3,0.3c-0.2,0-0.3-0.2-0.3-0.3c0-0.2,0.2-0.3,0.3-0.3
	C16.4,15.8,16.5,15.9,16.5,16.1"/>
<path fill="#F3EDE4" d="M13.8,15.5c0,0.2-0.2,0.3-0.3,0.3c-0.2,0-0.3-0.2-0.3-0.3c0-0.2,0.2-0.3,0.3-0.3
	C13.6,15.1,13.8,15.3,13.8,15.5"/>
<path fill="#F3EDE4" d="M10.6,14.8c0,0.2-0.2,0.3-0.3,0.3S10,15,10,14.8c0-0.2,0.2-0.3,0.3-0.3S10.6,14.6,10.6,14.8"/>
<path fill="#F3EDE4" d="M7.4,14.3c0,0.2-0.2,0.3-0.3,0.3c-0.2,0-0.3-0.1-0.3-0.3c0-0.2,0.2-0.3,0.3-0.3C7.2,14,7.4,14.2,7.4,14.3"/>
<path fill="#F3EDE4" d="M4.6,13.3c0,0.2-0.2,0.3-0.3,0.3S4,13.5,4,13.3C4,13.2,4.1,13,4.3,13S4.6,13.2,4.6,13.3"/>
<path fill="#F3EDE4" d="M2.7,10.8c0,0.2-0.2,0.3-0.3,0.3S2,11,2,10.8c0-0.2,0.2-0.3,0.3-0.3S2.7,10.6,2.7,10.8"/>
<path fill="#F3EDE4" d="M3,7.7C3,7.8,2.9,8,2.7,8C2.5,8,2.4,7.8,2.4,7.7c0-0.2,0.2-0.3,0.3-0.3C2.9,7.3,3,7.5,3,7.7"/>
<path fill="#F3EDE4" d="M3.8,5.1c0,0.2-0.2,0.3-0.3,0.3c-0.2,0-0.3-0.2-0.3-0.3c0-0.2,0.2-0.3,0.3-0.3C3.7,4.8,3.8,4.9,3.8,5.1"/>
<g>
	<g>
		<defs>
			<rect id="SVGID_19_" x="5.5" y="5.8" width="0.7" height="0.7"/>
		</defs>
		<clipPath id="SVGID_20_">
			<use xlink:href="#SVGID_19_"  overflow="visible"/>
		</clipPath>
		<path clip-path="url(#SVGID_20_)" fill="#F3EDE4" d="M6.2,6.1c0,0.2-0.2,0.3-0.3,0.3c-0.2,0-0.3-0.2-0.3-0.3
			c0-0.2,0.2-0.3,0.3-0.3C6,5.8,6.2,6,6.2,6.1"/>
	</g>
</g>
<g>
	<g>
		<defs>
			<rect id="SVGID_21_" x="5.5" y="5.8" width="0.7" height="0.6"/>
		</defs>
		<clipPath id="SVGID_22_">
			<use xlink:href="#SVGID_21_"  overflow="visible"/>
		</clipPath>
		<path clip-path="url(#SVGID_22_)" fill="#F3EDE4" d="M5.8,5.9c0.2,0,0.3,0.2,0.3,0.3c0,0,0,0.1,0,0.1c0.1-0.1,0.1-0.1,0.1-0.2
			C6.2,6,6,5.8,5.8,5.8C5.7,5.8,5.6,5.9,5.5,6C5.6,6,5.7,5.9,5.8,5.9"/>
	</g>
</g>
<g>
	<g>
		<defs>
			<rect id="SVGID_23_" x="7.9" y="6.7" width="0.7" height="0.7"/>
		</defs>
		<clipPath id="SVGID_24_">
			<use xlink:href="#SVGID_23_"  overflow="visible"/>
		</clipPath>
		<path clip-path="url(#SVGID_24_)" fill="#F3EDE4" d="M8.6,7.1c0,0.2-0.2,0.3-0.3,0.3S7.9,7.3,7.9,7.1c0-0.2,0.2-0.3,0.3-0.3
			S8.6,6.9,8.6,7.1"/>
	</g>
</g>
<g>
	<g>
		<defs>
			<rect id="SVGID_25_" x="7.9" y="6.7" width="0.6" height="0.6"/>
		</defs>
		<clipPath id="SVGID_26_">
			<use xlink:href="#SVGID_25_"  overflow="visible"/>
		</clipPath>
		<path clip-path="url(#SVGID_26_)" fill="#F3EDE4" d="M8.2,6.9c0.2,0,0.3,0.2,0.3,0.3c0,0,0,0.1,0,0.1c0.1-0.1,0.1-0.1,0.1-0.2
			c0-0.2-0.2-0.3-0.3-0.3C8.1,6.7,8,6.8,7.9,7C8,6.9,8.1,6.9,8.2,6.9"/>
	</g>
</g>
<g>
	<g>
		<defs>
			<rect id="SVGID_27_" x="10.3" y="7.6" width="0.7" height="0.7"/>
		</defs>
		<clipPath id="SVGID_28_">
			<use xlink:href="#SVGID_27_"  overflow="visible"/>
		</clipPath>
		<path clip-path="url(#SVGID_28_)" fill="#F3EDE4" d="M11,7.9c0,0.2-0.2,0.3-0.3,0.3c-0.2,0-0.3-0.2-0.3-0.3c0-0.2,0.2-0.3,0.3-0.3
			C10.8,7.6,11,7.7,11,7.9"/>
	</g>
</g>
<g>
	<g>
		<defs>
			<rect id="SVGID_29_" x="10.3" y="7.6" width="0.7" height="0.6"/>
		</defs>
		<clipPath id="SVGID_30_">
			<use xlink:href="#SVGID_29_"  overflow="visible"/>
		</clipPath>
		<path clip-path="url(#SVGID_30_)" fill="#F3EDE4" d="M10.5,7.7c0.2,0,0.3,0.2,0.3,0.3c0,0,0,0.1,0,0.1C10.9,8.1,11,8,11,7.9
			c0-0.2-0.2-0.3-0.3-0.3c-0.1,0-0.3,0.1-0.3,0.2C10.4,7.8,10.5,7.7,10.5,7.7"/>
	</g>
</g>
<g>
	<g>
		<defs>
			<rect id="SVGID_31_" x="12.7" y="8.3" width="0.7" height="0.7"/>
		</defs>
		<clipPath id="SVGID_32_">
			<use xlink:href="#SVGID_31_"  overflow="visible"/>
		</clipPath>
		<path clip-path="url(#SVGID_32_)" fill="#F3EDE4" d="M13.4,8.6c0,0.2-0.2,0.3-0.3,0.3s-0.3-0.2-0.3-0.3c0-0.2,0.2-0.3,0.3-0.3
			S13.4,8.4,13.4,8.6"/>
	</g>
</g>
<g>
	<g>
		<defs>
			<rect id="SVGID_33_" x="12.8" y="8.3" width="0.7" height="0.6"/>
		</defs>
		<clipPath id="SVGID_34_">
			<use xlink:href="#SVGID_33_"  overflow="visible"/>
		</clipPath>
		<path clip-path="url(#SVGID_34_)" fill="#F3EDE4" d="M13,8.4c0.2,0,0.3,0.2,0.3,0.3c0,0,0,0.1,0,0.1c0.1-0.1,0.1-0.1,0.1-0.2
			c0-0.2-0.1-0.3-0.3-0.3c-0.1,0-0.3,0.1-0.3,0.2C12.8,8.4,12.9,8.4,13,8.4"/>
	</g>
</g>
<g>
	<g>
		<defs>
			<rect id="SVGID_35_" x="15.2" y="8.8" width="0.7" height="0.7"/>
		</defs>
		<clipPath id="SVGID_36_">
			<use xlink:href="#SVGID_35_"  overflow="visible"/>
		</clipPath>
		<path clip-path="url(#SVGID_36_)" fill="#F3EDE4" d="M15.9,9.1c0,0.2-0.2,0.3-0.3,0.3s-0.3-0.1-0.3-0.3c0-0.2,0.2-0.3,0.3-0.3
			S15.9,8.9,15.9,9.1"/>
	</g>
</g>
<g>
	<g>
		<defs>
			<rect id="SVGID_37_" x="15.2" y="8.8" width="0.7" height="0.6"/>
		</defs>
		<clipPath id="SVGID_38_">
			<use xlink:href="#SVGID_37_"  overflow="visible"/>
		</clipPath>
		<path clip-path="url(#SVGID_38_)" fill="#F3EDE4" d="M15.5,8.9c0.2,0,0.3,0.2,0.3,0.3c0,0,0,0.1,0,0.1c0.1-0.1,0.1-0.1,0.1-0.2
			c0-0.2-0.2-0.3-0.3-0.3c-0.1,0-0.3,0.1-0.3,0.2C15.3,8.9,15.4,8.9,15.5,8.9"/>
	</g>
</g>
<g>
	<g>
		<defs>
			<rect id="SVGID_39_" x="18" y="9.1" width="0.7" height="0.7"/>
		</defs>
		<clipPath id="SVGID_40_">
			<use xlink:href="#SVGID_39_"  overflow="visible"/>
		</clipPath>
		<path clip-path="url(#SVGID_40_)" fill="#F3EDE4" d="M18.7,9.4c0,0.2-0.2,0.3-0.3,0.3c-0.2,0-0.3-0.2-0.3-0.3
			c0-0.2,0.2-0.3,0.3-0.3C18.5,9.1,18.7,9.2,18.7,9.4"/>
	</g>
</g>
<g>
	<g>
		<defs>
			<rect id="SVGID_41_" x="18" y="9.1" width="0.7" height="0.6"/>
		</defs>
		<clipPath id="SVGID_42_">
			<use xlink:href="#SVGID_41_"  overflow="visible"/>
		</clipPath>
		<path clip-path="url(#SVGID_42_)" fill="#F3EDE4" d="M18.3,9.2c0.2,0,0.3,0.2,0.3,0.3c0,0,0,0.1,0,0.1c0.1-0.1,0.1-0.1,0.1-0.2
			c0-0.2-0.2-0.3-0.3-0.3c-0.1,0-0.3,0.1-0.3,0.2C18.1,9.2,18.2,9.2,18.3,9.2"/>
	</g>
</g>
<g>
	<g>
		<defs>
			<rect id="SVGID_43_" x="20.8" y="9" width="0.7" height="0.7"/>
		</defs>
		<clipPath id="SVGID_44_">
			<use xlink:href="#SVGID_43_"  overflow="visible"/>
		</clipPath>
		<path clip-path="url(#SVGID_44_)" fill="#F3EDE4" d="M21.5,9.3c0,0.2-0.2,0.3-0.3,0.3c-0.2,0-0.3-0.2-0.3-0.3
			c0-0.2,0.2-0.3,0.3-0.3C21.3,9,21.5,9.2,21.5,9.3"/>
	</g>
</g>
<g>
	<g>
		<defs>
			<rect id="SVGID_45_" x="20.8" y="9" width="0.7" height="0.6"/>
		</defs>
		<clipPath id="SVGID_46_">
			<use xlink:href="#SVGID_45_"  overflow="visible"/>
		</clipPath>
		<path clip-path="url(#SVGID_46_)" fill="#F3EDE4" d="M21,9.1c0.2,0,0.3,0.2,0.3,0.3c0,0,0,0.1,0,0.1c0.1-0.1,0.1-0.1,0.1-0.2
			c0-0.2-0.2-0.3-0.3-0.3c-0.1,0-0.3,0.1-0.3,0.2C20.9,9.2,20.9,9.1,21,9.1"/>
	</g>
</g>
<g>
	<g>
		<defs>
			<rect id="SVGID_47_" x="23.8" y="8.4" width="0.7" height="0.7"/>
		</defs>
		<clipPath id="SVGID_48_">
			<use xlink:href="#SVGID_47_"  overflow="visible"/>
		</clipPath>
		<path clip-path="url(#SVGID_48_)" fill="#F3EDE4" d="M24.5,8.8c0,0.2-0.2,0.3-0.3,0.3c-0.2,0-0.3-0.2-0.3-0.3
			c0-0.2,0.2-0.3,0.3-0.3C24.4,8.4,24.5,8.6,24.5,8.8"/>
	</g>
</g>
<g>
	<g>
		<defs>
			<rect id="SVGID_49_" x="23.9" y="8.4" width="0.7" height="0.6"/>
		</defs>
		<clipPath id="SVGID_50_">
			<use xlink:href="#SVGID_49_"  overflow="visible"/>
		</clipPath>
		<path clip-path="url(#SVGID_50_)" fill="#F3EDE4" d="M24.1,8.6c0.2,0,0.3,0.2,0.3,0.3c0,0,0,0.1,0,0.1c0.1-0.1,0.1-0.1,0.1-0.2
			c0-0.2-0.2-0.3-0.3-0.3c-0.1,0-0.3,0.1-0.3,0.2C23.9,8.6,24,8.6,24.1,8.6"/>
	</g>
</g>
<g>
	<g>
		<defs>
			<rect id="SVGID_51_" x="26.6" y="7.3" width="0.7" height="0.7"/>
		</defs>
		<clipPath id="SVGID_52_">
			<use xlink:href="#SVGID_51_"  overflow="visible"/>
		</clipPath>
		<path clip-path="url(#SVGID_52_)" fill="#F3EDE4" d="M27.3,7.7C27.3,7.8,27.2,8,27,8s-0.3-0.2-0.3-0.3c0-0.2,0.2-0.3,0.3-0.3
			S27.3,7.5,27.3,7.7"/>
	</g>
</g>
<g>
	<g>
		<defs>
			<rect id="SVGID_53_" x="26.6" y="7.3" width="0.7" height="0.6"/>
		</defs>
		<clipPath id="SVGID_54_">
			<use xlink:href="#SVGID_53_"  overflow="visible"/>
		</clipPath>
		<path clip-path="url(#SVGID_54_)" fill="#F3EDE4" d="M26.9,7.4c0.2,0,0.3,0.2,0.3,0.3c0,0,0,0.1,0,0.1c0.1-0.1,0.1-0.1,0.1-0.2
			c0-0.2-0.2-0.3-0.3-0.3c-0.1,0-0.3,0.1-0.3,0.2C26.7,7.5,26.8,7.4,26.9,7.4"/>
	</g>
</g>
<g>
	<g>
		<defs>
			<rect id="SVGID_55_" x="28.9" y="5.7" width="0.7" height="0.7"/>
		</defs>
		<clipPath id="SVGID_56_">
			<use xlink:href="#SVGID_55_"  overflow="visible"/>
		</clipPath>
		<path clip-path="url(#SVGID_56_)" fill="#F3EDE4" d="M29.6,6c0,0.2-0.2,0.3-0.3,0.3c-0.2,0-0.3-0.2-0.3-0.3s0.2-0.3,0.3-0.3
			C29.4,5.7,29.6,5.9,29.6,6"/>
	</g>
</g>
<g>
	<g>
		<defs>
			<rect id="SVGID_57_" x="28.9" y="5.7" width="0.7" height="0.6"/>
		</defs>
		<clipPath id="SVGID_58_">
			<use xlink:href="#SVGID_57_"  overflow="visible"/>
		</clipPath>
		<path clip-path="url(#SVGID_58_)" fill="#F3EDE4" d="M29.2,5.8c0.2,0,0.3,0.2,0.3,0.3c0,0,0,0.1,0,0.1c0.1-0.1,0.1-0.1,0.1-0.2
			c0-0.2-0.2-0.3-0.3-0.3c-0.1,0-0.3,0.1-0.3,0.2C29,5.9,29.1,5.8,29.2,5.8"/>
	</g>
</g>
<g>
	<g>
		<defs>
			<rect id="SVGID_59_" x="26" y="23.4" width="0.7" height="0.7"/>
		</defs>
		<clipPath id="SVGID_60_">
			<use xlink:href="#SVGID_59_"  overflow="visible"/>
		</clipPath>
		<path clip-path="url(#SVGID_60_)" fill="#F3EDE4" d="M26.6,23.7c0,0.2-0.2,0.3-0.3,0.3S26,23.9,26,23.7c0-0.2,0.2-0.3,0.3-0.3
			S26.6,23.5,26.6,23.7"/>
	</g>
</g>
<g>
	<g>
		<defs>
			<rect id="SVGID_61_" x="26" y="23.4" width="0.7" height="0.6"/>
		</defs>
		<clipPath id="SVGID_62_">
			<use xlink:href="#SVGID_61_"  overflow="visible"/>
		</clipPath>
		<path clip-path="url(#SVGID_62_)" fill="#F3EDE4" d="M26.2,23.5c0.2,0,0.3,0.2,0.3,0.3c0,0,0,0.1,0,0.1c0.1-0.1,0.1-0.1,0.1-0.2
			c0-0.2-0.1-0.3-0.3-0.3c-0.1,0-0.3,0.1-0.3,0.2C26,23.6,26.1,23.5,26.2,23.5"/>
	</g>
</g>
<g>
	<g>
		<defs>
			<rect id="SVGID_63_" x="27" y="21" width="0.7" height="0.7"/>
		</defs>
		<clipPath id="SVGID_64_">
			<use xlink:href="#SVGID_63_"  overflow="visible"/>
		</clipPath>
		<path clip-path="url(#SVGID_64_)" fill="#F3EDE4" d="M27.6,21.3c0,0.2-0.2,0.3-0.3,0.3S27,21.5,27,21.3c0-0.2,0.2-0.3,0.3-0.3
			S27.6,21.1,27.6,21.3"/>
	</g>
</g>
<g>
	<g>
		<defs>
			<rect id="SVGID_65_" x="27" y="21" width="0.7" height="0.6"/>
		</defs>
		<clipPath id="SVGID_66_">
			<use xlink:href="#SVGID_65_"  overflow="visible"/>
		</clipPath>
		<path clip-path="url(#SVGID_66_)" fill="#F3EDE4" d="M27.2,21.1c0.2,0,0.3,0.2,0.3,0.3c0,0,0,0.1,0,0.1c0.1-0.1,0.1-0.1,0.1-0.2
			c0-0.2-0.2-0.3-0.3-0.3c-0.1,0-0.3,0.1-0.3,0.2C27,21.1,27.1,21.1,27.2,21.1"/>
	</g>
</g>
<g>
	<g>
		<defs>
			<rect id="SVGID_67_" x="28.1" y="18.8" width="0.7" height="0.7"/>
		</defs>
		<clipPath id="SVGID_68_">
			<use xlink:href="#SVGID_67_"  overflow="visible"/>
		</clipPath>
		<path clip-path="url(#SVGID_68_)" fill="#F3EDE4" d="M28.7,19.1c0,0.2-0.2,0.3-0.3,0.3c-0.2,0-0.3-0.2-0.3-0.3s0.2-0.3,0.3-0.3
			C28.6,18.8,28.7,18.9,28.7,19.1"/>
	</g>
</g>
<g>
	<g>
		<defs>
			<rect id="SVGID_69_" x="28.1" y="18.8" width="0.6" height="0.6"/>
		</defs>
		<clipPath id="SVGID_70_">
			<use xlink:href="#SVGID_69_"  overflow="visible"/>
		</clipPath>
		<path clip-path="url(#SVGID_70_)" fill="#F3EDE4" d="M28.3,18.9c0.2,0,0.3,0.2,0.3,0.3c0,0,0,0.1,0,0.1c0.1-0.1,0.1-0.1,0.1-0.2
			c0-0.2-0.2-0.3-0.3-0.3c-0.1,0-0.3,0.1-0.3,0.2C28.1,18.9,28.2,18.9,28.3,18.9"/>
	</g>
</g>
<g>
	<g>
		<defs>
			<rect id="SVGID_71_" x="29.6" y="16.7" width="0.7" height="0.7"/>
		</defs>
		<clipPath id="SVGID_72_">
			<use xlink:href="#SVGID_71_"  overflow="visible"/>
		</clipPath>
		<path clip-path="url(#SVGID_72_)" fill="#F3EDE4" d="M30.2,17.1c0,0.2-0.2,0.3-0.3,0.3c-0.2,0-0.3-0.2-0.3-0.3s0.2-0.3,0.3-0.3
			C30.1,16.7,30.2,16.9,30.2,17.1"/>
	</g>
</g>
<g>
	<g>
		<defs>
			<rect id="SVGID_73_" x="29.6" y="16.7" width="0.7" height="0.6"/>
		</defs>
		<clipPath id="SVGID_74_">
			<use xlink:href="#SVGID_73_"  overflow="visible"/>
		</clipPath>
		<path clip-path="url(#SVGID_74_)" fill="#F3EDE4" d="M29.8,16.8c0.2,0,0.3,0.2,0.3,0.3c0,0,0,0.1,0,0.1c0.1-0.1,0.1-0.1,0.1-0.2
			c0-0.2-0.2-0.3-0.3-0.3c-0.1,0-0.3,0.1-0.3,0.2C29.6,16.9,29.7,16.8,29.8,16.8"/>
	</g>
</g>
<g>
	<g>
		<defs>
			<rect id="SVGID_75_" x="32" y="16" width="0.7" height="0.7"/>
		</defs>
		<clipPath id="SVGID_76_">
			<use xlink:href="#SVGID_75_"  overflow="visible"/>
		</clipPath>
		<path clip-path="url(#SVGID_76_)" fill="#F3EDE4" d="M32.7,16.3c0,0.2-0.2,0.3-0.3,0.3c-0.2,0-0.3-0.2-0.3-0.3
			c0-0.2,0.2-0.3,0.3-0.3C32.6,16,32.7,16.2,32.7,16.3"/>
	</g>
</g>
<g>
	<g>
		<defs>
			<rect id="SVGID_77_" x="32" y="16" width="0.7" height="0.6"/>
		</defs>
		<clipPath id="SVGID_78_">
			<use xlink:href="#SVGID_77_"  overflow="visible"/>
		</clipPath>
		<path clip-path="url(#SVGID_78_)" fill="#F3EDE4" d="M32.3,16.1c0.2,0,0.3,0.2,0.3,0.3c0,0,0,0.1,0,0.1c0.1-0.1,0.1-0.1,0.1-0.2
			c0-0.2-0.2-0.3-0.3-0.3c-0.1,0-0.3,0.1-0.3,0.2C32.1,16.2,32.2,16.1,32.3,16.1"/>
	</g>
</g>
<g>
	<g>
		<defs>
			<rect id="SVGID_79_" x="34.7" y="16" width="0.7" height="0.7"/>
		</defs>
		<clipPath id="SVGID_80_">
			<use xlink:href="#SVGID_79_"  overflow="visible"/>
		</clipPath>
		<path clip-path="url(#SVGID_80_)" fill="#F3EDE4" d="M35.4,16.3c0,0.2-0.2,0.3-0.3,0.3c-0.2,0-0.3-0.2-0.3-0.3
			c0-0.2,0.2-0.3,0.3-0.3C35.2,16,35.4,16.1,35.4,16.3"/>
	</g>
</g>
<g>
	<g>
		<defs>
			<rect id="SVGID_81_" x="34.7" y="16" width="0.6" height="0.6"/>
		</defs>
		<clipPath id="SVGID_82_">
			<use xlink:href="#SVGID_81_"  overflow="visible"/>
		</clipPath>
		<path clip-path="url(#SVGID_82_)" fill="#F3EDE4" d="M34.9,16.1c0.2,0,0.3,0.2,0.3,0.3c0,0,0,0.1,0,0.1c0.1-0.1,0.1-0.1,0.1-0.2
			c0-0.2-0.2-0.3-0.3-0.3c-0.1,0-0.3,0.1-0.3,0.2C34.8,16.1,34.8,16.1,34.9,16.1"/>
	</g>
</g>
<g>
	<g>
		<defs>
			<rect id="SVGID_83_" x="37.1" y="15.8" width="0.7" height="0.7"/>
		</defs>
		<clipPath id="SVGID_84_">
			<use xlink:href="#SVGID_83_"  overflow="visible"/>
		</clipPath>
		<path clip-path="url(#SVGID_84_)" fill="#F3EDE4" d="M37.8,16.1c0,0.2-0.2,0.3-0.3,0.3c-0.2,0-0.3-0.2-0.3-0.3
			c0-0.2,0.2-0.3,0.3-0.3C37.7,15.8,37.8,15.9,37.8,16.1"/>
	</g>
</g>
<g>
	<g>
		<defs>
			<rect id="SVGID_85_" x="37.1" y="15.8" width="0.6" height="0.6"/>
		</defs>
		<clipPath id="SVGID_86_">
			<use xlink:href="#SVGID_85_"  overflow="visible"/>
		</clipPath>
		<path clip-path="url(#SVGID_86_)" fill="#F3EDE4" d="M37.4,15.9c0.2,0,0.3,0.2,0.3,0.3c0,0,0,0.1,0,0.1c0.1-0.1,0.1-0.1,0.1-0.2
			c0-0.2-0.2-0.3-0.3-0.3c-0.1,0-0.3,0.1-0.3,0.2C37.2,16,37.3,15.9,37.4,15.9"/>
	</g>
</g>
<g>
	<g>
		<defs>
			<rect id="SVGID_87_" x="39.7" y="15.6" width="0.7" height="0.7"/>
		</defs>
		<clipPath id="SVGID_88_">
			<use xlink:href="#SVGID_87_"  overflow="visible"/>
		</clipPath>
		<path clip-path="url(#SVGID_88_)" fill="#F3EDE4" d="M40.4,16c0,0.2-0.2,0.3-0.3,0.3c-0.2,0-0.3-0.2-0.3-0.3
			c0-0.2,0.2-0.3,0.3-0.3C40.3,15.6,40.4,15.8,40.4,16"/>
	</g>
</g>
<g>
	<g>
		<defs>
			<rect id="SVGID_89_" x="39.7" y="15.6" width="0.7" height="0.6"/>
		</defs>
		<clipPath id="SVGID_90_">
			<use xlink:href="#SVGID_89_"  overflow="visible"/>
		</clipPath>
		<path clip-path="url(#SVGID_90_)" fill="#F3EDE4" d="M40,15.7c0.2,0,0.3,0.2,0.3,0.3c0,0,0,0.1,0,0.1c0.1-0.1,0.1-0.1,0.1-0.2
			c0-0.2-0.2-0.3-0.3-0.3c-0.1,0-0.3,0.1-0.3,0.2C39.8,15.8,39.9,15.7,40,15.7"/>
	</g>
</g>
<g>
	<g>
		<defs>
			<rect id="SVGID_91_" x="42.2" y="15.3" width="0.7" height="0.7"/>
		</defs>
		<clipPath id="SVGID_92_">
			<use xlink:href="#SVGID_91_"  overflow="visible"/>
		</clipPath>
		<path clip-path="url(#SVGID_92_)" fill="#F3EDE4" d="M42.8,15.6c0,0.2-0.2,0.3-0.3,0.3c-0.2,0-0.3-0.1-0.3-0.3s0.2-0.3,0.3-0.3
			C42.7,15.3,42.8,15.4,42.8,15.6"/>
	</g>
</g>
<g>
	<g>
		<defs>
			<rect id="SVGID_93_" x="42.2" y="15.3" width="0.7" height="0.6"/>
		</defs>
		<clipPath id="SVGID_94_">
			<use xlink:href="#SVGID_93_"  overflow="visible"/>
		</clipPath>
		<path clip-path="url(#SVGID_94_)" fill="#F3EDE4" d="M42.4,15.4c0.2,0,0.3,0.2,0.3,0.3c0,0,0,0.1,0,0.1c0.1-0.1,0.1-0.1,0.1-0.2
			c0-0.2-0.2-0.3-0.3-0.3c-0.1,0-0.3,0.1-0.3,0.2C42.2,15.4,42.3,15.4,42.4,15.4"/>
	</g>
</g>
<g>
	<g>
		<defs>
			<rect id="SVGID_95_" x="44.3" y="14.9" width="0.7" height="0.7"/>
		</defs>
		<clipPath id="SVGID_96_">
			<use xlink:href="#SVGID_95_"  overflow="visible"/>
		</clipPath>
		<path clip-path="url(#SVGID_96_)" fill="#F3EDE4" d="M45,15.2c0,0.2-0.2,0.3-0.3,0.3c-0.2,0-0.3-0.1-0.3-0.3
			c0-0.2,0.2-0.3,0.3-0.3C44.9,14.9,45,15,45,15.2"/>
	</g>
</g>
<g>
	<g>
		<defs>
			<rect id="SVGID_97_" x="44.4" y="14.9" width="0.7" height="0.6"/>
		</defs>
		<clipPath id="SVGID_98_">
			<use xlink:href="#SVGID_97_"  overflow="visible"/>
		</clipPath>
		<path clip-path="url(#SVGID_98_)" fill="#F3EDE4" d="M44.6,15c0.2,0,0.3,0.2,0.3,0.3c0,0,0,0.1,0,0.1c0.1-0.1,0.1-0.1,0.1-0.2
			c0-0.2-0.2-0.3-0.3-0.3c-0.1,0-0.3,0.1-0.3,0.2C44.4,15.1,44.5,15,44.6,15"/>
	</g>
</g>
<g>
	<g>
		<defs>
			<rect id="SVGID_99_" x="46.4" y="14" width="0.7" height="0.7"/>
		</defs>
		<clipPath id="SVGID_100_">
			<use xlink:href="#SVGID_99_"  overflow="visible"/>
		</clipPath>
		<path clip-path="url(#SVGID_100_)" fill="#F3EDE4" d="M47.1,14.3c0,0.2-0.2,0.3-0.3,0.3c-0.2,0-0.3-0.1-0.3-0.3
			c0-0.2,0.2-0.3,0.3-0.3C46.9,14,47.1,14.2,47.1,14.3"/>
	</g>
</g>
<g>
	<g>
		<defs>
			<rect id="SVGID_101_" x="46.4" y="14" width="0.7" height="0.6"/>
		</defs>
		<clipPath id="SVGID_102_">
			<use xlink:href="#SVGID_101_"  overflow="visible"/>
		</clipPath>
		<path clip-path="url(#SVGID_102_)" fill="#F3EDE4" d="M46.7,14.1c0.2,0,0.3,0.2,0.3,0.3c0,0,0,0.1,0,0.1c0.1-0.1,0.1-0.1,0.1-0.2
			c0-0.2-0.2-0.3-0.3-0.3c-0.1,0-0.3,0.1-0.3,0.2C46.5,14.2,46.6,14.1,46.7,14.1"/>
	</g>
</g>
<g>
	<g>
		<defs>
			<rect id="SVGID_103_" x="48" y="12.9" width="0.6" height="0.6"/>
		</defs>
		<clipPath id="SVGID_104_">
			<use xlink:href="#SVGID_103_"  overflow="visible"/>
		</clipPath>
		<path clip-path="url(#SVGID_104_)" fill="#F3EDE4" d="M48.6,13.4c-0.1,0.1-0.3,0.1-0.4,0C48,13.3,47.9,13.1,48,13
			c0.1-0.1,0.3-0.1,0.4,0C48.6,13.1,48.7,13.3,48.6,13.4"/>
	</g>
</g>
<g>
	<g>
		<defs>
			<rect id="SVGID_105_" x="48.1" y="12.9" width="0.5" height="0.6"/>
		</defs>
		<clipPath id="SVGID_106_">
			<use xlink:href="#SVGID_105_"  overflow="visible"/>
		</clipPath>
		<path clip-path="url(#SVGID_106_)" fill="#F3EDE4" d="M48.3,13c0.2,0.1,0.2,0.3,0.1,0.4c0,0,0,0-0.1,0.1c0.1,0,0.1,0,0.2-0.1
			c0.1-0.1,0-0.3-0.1-0.4c-0.1-0.1-0.3-0.1-0.4,0C48.2,12.9,48.2,13,48.3,13"/>
	</g>
</g>
<g>
	<g>
		<defs>
			<rect id="SVGID_107_" x="48.8" y="12.1" width="0.6" height="0.5"/>
		</defs>
		<clipPath id="SVGID_108_">
			<use xlink:href="#SVGID_107_"  overflow="visible"/>
		</clipPath>
		<path clip-path="url(#SVGID_108_)" fill="#F3EDE4" d="M49.4,12.5c-0.1,0.1-0.2,0.1-0.4,0c-0.2-0.1-0.2-0.3-0.2-0.4
			c0.1-0.1,0.2-0.1,0.4,0C49.4,12.2,49.5,12.4,49.4,12.5"/>
	</g>
</g>
<g>
	<g>
		<defs>
			<rect id="SVGID_109_" x="48.9" y="12.1" width="0.5" height="0.5"/>
		</defs>
		<clipPath id="SVGID_110_">
			<use xlink:href="#SVGID_109_"  overflow="visible"/>
		</clipPath>
		<path clip-path="url(#SVGID_110_)" fill="#F3EDE4" d="M49.2,12.2c0.2,0.1,0.2,0.3,0.2,0.4c0,0,0,0-0.1,0c0.1,0,0.1,0,0.2-0.1
			c0.1-0.1,0-0.3-0.2-0.4C49.1,12,49,12,48.9,12.1C49,12.1,49.1,12.1,49.2,12.2"/>
	</g>
</g>
<g>
	<g>
		<defs>
			<rect id="SVGID_111_" x="49.4" y="11.3" width="0.6" height="0.4"/>
		</defs>
		<clipPath id="SVGID_112_">
			<use xlink:href="#SVGID_111_"  overflow="visible"/>
		</clipPath>
		<path clip-path="url(#SVGID_112_)" fill="#F3EDE4" d="M50,11.7c0,0.1-0.2,0-0.4-0.1c-0.2-0.1-0.3-0.2-0.2-0.3c0-0.1,0.2,0,0.4,0.1
			C49.9,11.5,50,11.6,50,11.7"/>
	</g>
</g>
<g>
	<g>
		<defs>
			<rect id="SVGID_113_" x="49.4" y="11.3" width="0.5" height="0.4"/>
		</defs>
		<clipPath id="SVGID_114_">
			<use xlink:href="#SVGID_113_"  overflow="visible"/>
		</clipPath>
		<path clip-path="url(#SVGID_114_)" fill="#F3EDE4" d="M49.7,11.4c0.2,0.1,0.3,0.2,0.2,0.3c0,0,0,0,0,0c0.1,0,0.1,0,0.1,0
			C50,11.6,49.9,11.5,49.7,11.4c0-0.1-0.2-0.1-0.2-0.1C49.5,11.3,49.6,11.3,49.7,11.4"/>
	</g>
</g>
<path fill="#F3EDE4" d="M36.9,23.6c0,0.2-0.2,0.3-0.3,0.3c-0.2,0-0.3-0.2-0.3-0.3c0-0.2,0.2-0.3,0.3-0.3
	C36.8,23.2,36.9,23.4,36.9,23.6"/>
<path fill="#F3EDE4" d="M39.8,22.1c0,0.2-0.2,0.3-0.3,0.3c-0.2,0-0.3-0.2-0.3-0.3c0-0.2,0.2-0.3,0.3-0.3
	C39.7,21.7,39.8,21.9,39.8,22.1"/>
<path fill="#F3EDE4" d="M42.9,21.1c0,0.2-0.2,0.3-0.3,0.3c-0.2,0-0.3-0.2-0.3-0.3s0.2-0.3,0.3-0.3C42.7,20.7,42.9,20.9,42.9,21.1"/>
<path fill="#F3EDE4" d="M46,20.5c0,0.2-0.2,0.3-0.3,0.3c-0.2,0-0.3-0.2-0.3-0.3s0.2-0.3,0.3-0.3C45.9,20.1,46,20.3,46,20.5"/>
<path fill="#F3EDE4" d="M49.2,20.1c0,0.2-0.2,0.3-0.3,0.3c-0.2,0-0.3-0.2-0.3-0.3s0.2-0.3,0.3-0.3C49,19.8,49.2,20,49.2,20.1"/>
<path fill="#F3EDE4" d="M52.3,20c0,0.2-0.2,0.3-0.3,0.3c-0.2,0-0.3-0.1-0.3-0.3c0-0.2,0.2-0.3,0.3-0.3C52.2,19.7,52.3,19.8,52.3,20"
	/>
<path fill="#F3EDE4" d="M55.3,19.9c0,0.2-0.2,0.3-0.3,0.3s-0.3-0.1-0.3-0.3c0-0.2,0.2-0.3,0.3-0.3S55.3,19.7,55.3,19.9"/>
<path fill="#F3EDE4" d="M58.4,19.7c0,0.2-0.2,0.3-0.3,0.3s-0.3-0.2-0.3-0.3s0.2-0.3,0.3-0.3S58.4,19.5,58.4,19.7"/>
<path fill="#F3EDE4" d="M61.3,19.4c0,0.2-0.2,0.3-0.3,0.3c-0.2,0-0.3-0.2-0.3-0.3c0-0.2,0.2-0.3,0.3-0.3
	C61.1,19.1,61.3,19.2,61.3,19.4"/>
<path fill="#F3EDE4" d="M63.1,18.1c0,0.1-0.2,0.2-0.3,0.2s-0.3-0.1-0.3-0.2s0.1-0.2,0.3-0.2S63.1,17.9,63.1,18.1"/>
<path fill="#F3EDE4" d="M63,16.7c0,0.1-0.2,0.1-0.3,0.1c-0.2,0-0.3-0.1-0.3-0.1c0-0.1,0.2-0.1,0.3-0.1C62.9,16.6,63,16.6,63,16.7"/>
</svg>
