<?xml version="1.0" encoding="utf-8"?>
<!-- Generator: Adobe Illustrator 15.0.2, SVG Export Plug-In . SVG Version: 6.00 Build 0)  -->
<!DOCTYPE svg PUBLIC "-//W3C//DTD SVG 1.1//EN" "http://www.w3.org/Graphics/SVG/1.1/DTD/svg11.dtd">
<svg version="1.1" id="Layer_1" xmlns="http://www.w3.org/2000/svg" xmlns:xlink="http://www.w3.org/1999/xlink" x="0px" y="0px"
	 width="62.4px" height="49.7px" viewBox="0 0 62.4 49.7" enable-background="new 0 0 62.4 49.7" xml:space="preserve">
<path fill="#8B4D47" d="M29.5,49.7c-0.9,0-1.7-0.5-2.1-1.2c-0.4-0.7-0.3-1.6,0.2-2.2c0.1-0.2,0.4-0.2,0.6-0.1
	c0.2,0.1,0.2,0.4,0.1,0.6c-0.3,0.4-0.4,0.9-0.1,1.4c0.2,0.5,0.7,0.8,1.4,0.8c1.1,0,1.3-1.1,1.3-1.3v-3.5c0-0.2,0.2-0.4,0.4-0.4
	s0.4,0.2,0.4,0.4l0,3.5C31.6,48.3,31.1,49.7,29.5,49.7"/>
<path fill="#DEDDDE" d="M30.8,44.1c0,0.1,0.2,0.1,0.4,0.1s0.4,0,0.4-0.1v-0.7c0-0.1-0.2-0.1-0.4-0.1s-0.4,0-0.4,0.1V44.1z"/>
<path fill="#BDBCBC" d="M31.2,43.3c-0.2,0-0.4,0-0.4,0.1v0.3c0.1,0,0.3,0,0.4,0c0.2,0,0.3,0,0.4,0v-0.3
	C31.7,43.3,31.5,43.3,31.2,43.3"/>
<g opacity="0.5">
	<g>
		<defs>
			<rect id="SVGID_1_" x="31.2" y="43.2" width="0.3" height="1"/>
		</defs>
		<clipPath id="SVGID_2_">
			<use xlink:href="#SVGID_1_"  overflow="visible"/>
		</clipPath>
		<path clip-path="url(#SVGID_2_)" fill="#F4F4F4" d="M31.2,44.2C31.2,44.2,31.2,44.2,31.2,44.2c0.1,0,0.2,0,0.3,0v-0.9
			c-0.1,0-0.2,0-0.3,0c0,0,0,0,0,0V44.2z"/>
	</g>
</g>
<path fill="#DEDDDE" d="M30.6,43.5c0,0.1,0.3,0.1,0.6,0.1c0.3,0,0.6-0.1,0.6-0.1v-0.3c0-0.1-0.3-0.1-0.6-0.1c-0.3,0-0.6,0.1-0.6,0.1
	V43.5z"/>
<g>
	<g>
		<defs>
			<rect id="SVGID_3_" x="28" y="47.7" width="2" height="1.3"/>
		</defs>
		<clipPath id="SVGID_4_">
			<use xlink:href="#SVGID_3_"  overflow="visible"/>
		</clipPath>
		<path clip-path="url(#SVGID_4_)" fill="#8B4D47" d="M29.9,48.9c-0.2,0.1-0.4,0.2-0.7,0.2c-0.2,0-0.5,0-0.7-0.2
			c-0.2-0.1-0.4-0.3-0.5-0.5C28,48.2,28,48,28,47.7c0.1,0.2,0.2,0.4,0.3,0.6c0.1,0.2,0.3,0.3,0.4,0.4c0.2,0.1,0.4,0.2,0.6,0.2
			C29.5,48.9,29.7,48.9,29.9,48.9"/>
	</g>
</g>
<g>
	<g>
		<defs>
			<rect id="SVGID_5_" x="29.1" y="48.3" width="1.9" height="1"/>
		</defs>
		<clipPath id="SVGID_6_">
			<use xlink:href="#SVGID_5_"  overflow="visible"/>
		</clipPath>
		<path clip-path="url(#SVGID_6_)" fill="#DCCAC8" d="M31,48.3c-0.1,0.4-0.4,0.7-0.8,0.9c-0.2,0.1-0.4,0.1-0.6,0.2
			c-0.2,0-0.4,0-0.6-0.1c0.4,0,0.8,0,1.1-0.2c0.2-0.1,0.3-0.2,0.5-0.3C30.7,48.6,30.9,48.5,31,48.3"/>
	</g>
</g>
<g opacity="0.5">
	<g>
		<defs>
			<rect id="SVGID_7_" x="31.3" y="43" width="0.3" height="0.6"/>
		</defs>
		<clipPath id="SVGID_8_">
			<use xlink:href="#SVGID_7_"  overflow="visible"/>
		</clipPath>
		<path clip-path="url(#SVGID_8_)" fill="#F4F4F4" d="M31.3,43.6c0.1,0,0.2,0,0.3,0v-0.5c-0.1,0-0.2,0-0.3,0V43.6z"/>
	</g>
</g>
<path fill="#9C9A9B" d="M31.8,43.2c0,0.1-0.3,0.1-0.6,0.1c-0.3,0-0.6-0.1-0.6-0.1s0.3-0.1,0.6-0.1C31.6,43,31.8,43.1,31.8,43.2"/>
<path fill="#DCCAC8" d="M31.3,44.4c0,0.2,0,0.5,0,0.7c0,0.2,0,0.5,0,0.7c0,0.2,0,0.5,0,0.7c0,0.2,0,0.5,0,0.7c0-0.2,0-0.5,0-0.7
	c0-0.2,0-0.5,0-0.7c0-0.2,0-0.5,0-0.7C31.3,44.9,31.3,44.7,31.3,44.4"/>
<path fill="#6C696A" d="M31.6,31.8v0.9c0,0,0.5,0,0.4-0.3C31.8,32.1,31.6,31.8,31.6,31.8"/>
<path fill="#C8C7C7" d="M3.4,22.3l-3.3,2.7C0,25,0,25.2,0.1,25.3c0.1,0.1,0.3,0.1,0.4,0l3.3-2.7"/>
<path fill="#E9E9E9" d="M3.2,22.7l-3,2.4c-0.1,0.1-0.2,0.2-0.1,0.2c0,0,0.2,0,0.3-0.1l3-2.4"/>
<path fill="#C8C7C7" d="M62.1,25.4l-3.3-2.7"/>
<path fill="#C8C7C7" d="M59.1,22.3l3.3,2.7"/>
<path fill="#E9E9E9" d="M62.2,25.2l-3-2.4"/>
<path fill="#E9E9E9" d="M59.3,22.7l3,2.4"/>
<path fill="#C8C7C7" d="M18.9,24.9l-1.5,4C17.3,29,17.1,29,17,29c-0.1-0.1-0.2-0.2-0.2-0.4l1.5-4"/>
<path fill="#E9E9E9" d="M18.5,25.2l-1.4,3.6c0,0.1-0.1,0.2-0.2,0.2c0,0-0.1-0.1,0-0.3l1.4-3.6"/>
<path fill="#C8C7C7" d="M43.6,24.9l1.5,4c0.1,0.1,0.2,0.2,0.4,0.2c0.1-0.1,0.2-0.2,0.2-0.4l-1.5-4"/>
<path fill="#E9E9E9" d="M43.9,25.2l1.4,3.6c0,0.1,0.1,0.2,0.2,0.2c0.1,0,0.1-0.1,0-0.3l-1.4-3.6"/>
<path fill="#C8C7C7" d="M31.6,43.1c0,0.1-0.1,0.1-0.3,0.1c-0.2,0-0.3,0-0.3-0.1V22.8c0-0.2,0.1-0.3,0.3-0.3c0.2,0,0.3,0.1,0.3,0.3
	V43.1z"/>
<path fill="#E9E9E9" d="M31.4,42.6c0,0.2,0,0.3-0.1,0.3c-0.1,0-0.1-0.1-0.1-0.3V22.8c0-0.2,0.1-0.3,0.1-0.3c0.1,0,0.1,0.1,0.1,0.3
	V42.6z"/>
<path fill="#473F65" d="M62.1,24.6c0,0-1.7-2.6-4.2-5.7"/>
<path fill="#473F65" d="M57.9,18.9C55,15.3,51,11,47.2,9.2c-7.1-3.4-12.1-2.8-12.1-2.8s-2.4-0.1-3.3-0.8c-0.1,0-0.4,0.1-0.5,0.1
	s-0.4,0-0.5-0.1c-1,0.6-3.3,0.8-3.3,0.8s-5-0.6-12.1,2.8c-3.8,1.8-7.8,6.1-10.7,9.7c-2.5,3.1-4.2,5.7-4.2,5.7
	c9-1.4,15.3,2.5,16.6,3.4c0.2,0.1,0.2,0.2,0.2,0.2c1.5-0.5,3.5-0.9,5.5-1.1c4.2-0.6,8.5-0.6,8.5-0.6c0,0,4.3,0.1,8.5,0.6
	c2,0.3,4,0.6,5.5,1.1c0,0,0.1-0.1,0.2-0.2c1.3-0.9,7.6-4.8,16.6-3.4"/>
<path fill="#C8C7C7" d="M31.6,5.2c0,0.2-0.1,0.3-0.3,0.3c-0.2,0-0.3-0.1-0.3-0.3V0.3c0-0.2,0.1-0.3,0.3-0.3c0.2,0,0.3,0.1,0.3,0.3
	V5.2z"/>
<path fill="#E9E9E9" d="M31.4,4.8c0,0.2,0,0.3-0.1,0.3c-0.1,0-0.1-0.1-0.1-0.3V0.3c0-0.2,0.1-0.3,0.1-0.3c0.1,0,0.1,0.1,0.1,0.3V4.8
	z"/>
<path fill="#7D7B7B" d="M31.6,5V4.8c-0.1,0.1-0.2,0.1-0.3,0.1s-0.2,0-0.3-0.1V5c0,0.2,0.1,0.3,0.3,0.3C31.4,5.4,31.6,5.2,31.6,5"/>
<path fill="#C8C7C7" d="M31.6,5c-0.1,0.1-0.2,0.1-0.3,0.1S31,5.1,30.9,5c-0.1,0.7-0.5,0.9-0.5,0.9L31.2,6L32,5.9
	C32,5.9,31.6,5.7,31.6,5"/>
<path fill="#473F65" d="M13.7,11.1c2.8-2.6,12.1-4.3,13.8-4.5c1.7-0.3,3-0.8,3-0.8l-0.3,0.8c0.5-0.2,0.7-0.8,0.7-0.8h0.3h0.3
	c0,0,0.2,0.5,0.7,0.8L32,5.8c0,0,1.3,0.5,3,0.8c1.7,0.3,11,1.9,13.8,4.5c2,1.8,5.6,4.1,9.1,7.8C55,15.3,51,11,47.2,9.2
	c-7.1-3.4-12.1-2.8-12.1-2.8s-2.4-0.1-3.3-0.8c-0.1,0-0.4,0.1-0.5,0.1s-0.4,0-0.5-0.1c-1,0.6-3.3,0.8-3.3,0.8s-5-0.6-12.1,2.8
	c-3.8,1.8-7.8,6.1-10.7,9.7C8.1,15.2,11.7,13,13.7,11.1"/>
<path fill="#473F65" d="M62.1,24.6c0,0-1.7-2.6-4.2-5.7c-3.5-3.7-7.2-5.9-9.1-7.8"/>
<path fill="#473F65" d="M48.8,11.1C46,8.5,36.7,6.9,35,6.6c-1.7-0.3-3-0.8-3-0.8l0.3,0.8c0,0,0.1,0,0.1,0c0.6,0.2,4.5,2.3,6.2,5.2
	c1.7,2.9,4.5,8.6,6.8,16c0,0,0,0.1,0,0.1c1.3-0.9,7.6-4.8,16.6-3.4"/>
<polyline fill="none" points="62.1,5.8 32,5.8 32,28 62.1,28 "/>
<g>
	<g>
		<defs>
			<rect id="SVGID_9_" x="0.4" y="5.8" width="30.1" height="22.2"/>
		</defs>
		<clipPath id="SVGID_10_">
			<use xlink:href="#SVGID_9_"  overflow="visible"/>
		</clipPath>
		<path clip-path="url(#SVGID_10_)" fill="#473F65" d="M17,28C17,28,17,27.9,17,28c2.4-7.5,5.1-13.2,6.8-16.1c1.7-2.9,5.6-5,6.2-5.2
			c0,0,0.1,0,0.1,0l0.3-0.8c0,0-1.3,0.5-3,0.8c-1.7,0.3-11,1.9-13.8,4.5c-2,1.8-5.6,4.1-9.1,7.8c-2.5,3.1-4.2,5.7-4.2,5.7
			C9.4,23.2,15.7,27.1,17,28"/>
	</g>
</g>
<path fill="#473F65" d="M45.4,27.9c-2.3-7.4-5-13.1-6.8-16c-1.7-2.9-5.6-5-6.2-5.2c0,0-0.1,0-0.1,0c-0.5-0.2-0.7-0.8-0.7-0.8h-0.3
	h-0.3c0,0-0.2,0.5-0.7,0.8c0,0-0.1,0-0.1,0c-0.6,0.2-4.5,2.3-6.2,5.2c-1.7,2.9-4.5,8.6-6.8,16c0,0,0,0.1,0,0.1
	c0.2,0.1,0.2,0.2,0.2,0.2c1.5-0.5,3.5-0.9,5.5-1.1c4.2-0.6,8.5-0.6,8.5-0.6c0,0,4.3,0.1,8.5,0.6c2,0.3,4,0.6,5.5,1.1
	C45.2,28.2,45.3,28.1,45.4,27.9C45.5,28,45.4,27.9,45.4,27.9"/>
</svg>
