<?xml version="1.0" encoding="utf-8"?>
<!-- Generator: Adobe Illustrator 15.0.2, SVG Export Plug-In . SVG Version: 6.00 Build 0)  -->
<!DOCTYPE svg PUBLIC "-//W3C//DTD SVG 1.1//EN" "http://www.w3.org/Graphics/SVG/1.1/DTD/svg11.dtd">
<svg version="1.1" id="Layer_1" xmlns="http://www.w3.org/2000/svg" xmlns:xlink="http://www.w3.org/1999/xlink" x="0px" y="0px"
	 width="41.4px" height="70.5px" viewBox="0 0 41.4 70.5" enable-background="new 0 0 41.4 70.5" xml:space="preserve">
<path fill="#3D3A3B" d="M6,4.3c1.2,1.5,6.6,3.9,6.6,3.9s2.2,0.7,5.5,1.7c3.3,1,6.6,1.1,8.2,1.2s2.3-1,2.3-1c3.2-0.7,5.9-3.1,7-4.4
	c0.5-0.6,0.7-1.4,0.7-1.9c-1.7-0.4-6,1.8-6,1.8s-0.4,0.1-2.8,1.6s-7.3,1.2-8,0.9c-0.7-0.2-5.4-1.5-5.8-2c-0.4-0.5-2.8-1.4-2.8-1.4
	S7.3,3.2,6.4,2.8C6,2.6,5.6,2.7,5.2,2.8C5.2,3.2,4.9,3,6,4.3"/>
<path fill="#231F20" d="M30.2,5.6c0,0-0.4,0.1-2.8,1.6c-2.4,1.5-7.3,1.2-8,0.9c-0.7-0.2-5.4-1.5-5.8-2c-0.4-0.5-2.8-1.4-2.8-1.4
	s-0.1,0-0.2-0.1c0,0.1,0,0.2,0.5,0.8c0.8,1,4.3,2.5,4.3,2.5s1.4,0.5,3.5,1.1c2.1,0.6,4.2,0.7,5.3,0.7c1.1,0,1.4-0.6,1.4-0.6
	c2-0.5,3.8-2,4.5-2.8c0.3-0.3,0.4-0.7,0.4-1C30.4,5.5,30.2,5.6,30.2,5.6"/>
<path fill="#C1C0C1" d="M20.7,31.4c10.2,0,18.4,8.3,18.4,18.4s-8.3,18.4-18.4,18.4C10.6,68.2,2.3,60,2.3,49.8S10.6,31.4,20.7,31.4
	 M20.7,29.1c-11.4,0-20.7,9.3-20.7,20.7c0,11.4,9.3,20.7,20.7,20.7c11.4,0,20.7-9.3,20.7-20.7C41.4,38.4,32.2,29.1,20.7,29.1"/>
<path fill="#393536" d="M20.7,30c10.9,0,19.8,8.9,19.8,19.8s-8.9,19.8-19.8,19.8c-10.9,0-19.8-8.9-19.8-19.8S9.8,30,20.7,30
	 M20.7,29.1c-11.4,0-20.7,9.3-20.7,20.7c0,11.4,9.3,20.7,20.7,20.7c11.4,0,20.7-9.3,20.7-20.7C41.4,38.4,32.2,29.1,20.7,29.1"/>
<line fill="none" stroke="#B2B1B1" stroke-width="0.225" stroke-miterlimit="10" x1="19" y1="30.9" x2="22.4" y2="68.6"/>
<line fill="none" stroke="#B2B1B1" stroke-width="0.225" stroke-miterlimit="10" x1="22.4" y1="30.9" x2="19" y2="68.6"/>
<line fill="none" stroke="#B2B1B1" stroke-width="0.225" stroke-miterlimit="10" x1="8.3" y1="35.5" x2="33.2" y2="64"/>
<line fill="none" stroke="#B2B1B1" stroke-width="0.225" stroke-miterlimit="10" x1="11" y1="33.5" x2="30.4" y2="66"/>
<line fill="none" stroke="#B2B1B1" stroke-width="0.225" stroke-miterlimit="10" x1="2.3" y1="45.5" x2="39.2" y2="53.9"/>
<line fill="none" stroke="#B2B1B1" stroke-width="0.225" stroke-miterlimit="10" x1="3.3" y1="42.3" x2="38.1" y2="57.2"/>
<line fill="none" stroke="#B2B1B1" stroke-width="0.225" stroke-miterlimit="10" x1="3.3" y1="57.2" x2="38.1" y2="42.3"/>
<line fill="none" stroke="#B2B1B1" stroke-width="0.225" stroke-miterlimit="10" x1="2.3" y1="53.9" x2="39.2" y2="45.5"/>
<line fill="none" stroke="#B2B1B1" stroke-width="0.225" stroke-miterlimit="10" x1="11" y1="66" x2="30.4" y2="33.5"/>
<line fill="none" stroke="#B2B1B1" stroke-width="0.225" stroke-miterlimit="10" x1="8.3" y1="64" x2="33.2" y2="35.5"/>
<g opacity="0.3">
	<g>
		<defs>
			<rect id="SVGID_1_" y="29.1" width="41.4" height="41.4"/>
		</defs>
		<clipPath id="SVGID_2_">
			<use xlink:href="#SVGID_1_"  overflow="visible"/>
		</clipPath>
		<g clip-path="url(#SVGID_2_)">
			<g>
				<defs>
					<rect id="SVGID_3_" x="0.8" y="49.8" width="39.7" height="19.8"/>
				</defs>
				<clipPath id="SVGID_4_">
					<use xlink:href="#SVGID_3_"  overflow="visible"/>
				</clipPath>
				<path clip-path="url(#SVGID_4_)" fill="#C1C0C1" d="M20.7,69.6c10.9,0,19.8-8.9,19.8-19.8h-1.4c0,10.2-8.3,18.4-18.4,18.4
					C10.5,68.2,2.3,60,2.3,49.8H0.8C0.8,60.7,9.7,69.6,20.7,69.6"/>
			</g>
		</g>
		<g clip-path="url(#SVGID_2_)">
			<g>
				<defs>
					<rect id="SVGID_5_" y="49.8" width="41.4" height="20.7"/>
				</defs>
				<clipPath id="SVGID_6_">
					<use xlink:href="#SVGID_5_"  overflow="visible"/>
				</clipPath>
				<path clip-path="url(#SVGID_6_)" fill="#393536" d="M20.7,69.6c-10.9,0-19.8-8.9-19.8-19.8H0c0,11.4,9.3,20.7,20.7,20.7
					c11.4,0,20.7-9.3,20.7-20.7h-0.8C40.5,60.7,31.6,69.6,20.7,69.6"/>
			</g>
		</g>
		<g clip-path="url(#SVGID_2_)">
			<g>
				<defs>
					<rect id="SVGID_7_" x="0.8" y="30" width="39.7" height="19.8"/>
				</defs>
				<clipPath id="SVGID_8_">
					<use xlink:href="#SVGID_7_"  overflow="visible"/>
				</clipPath>
				<path clip-path="url(#SVGID_8_)" fill="#C1C0C1" d="M2.3,49.8c0-10.2,8.3-18.4,18.4-18.4c10.2,0,18.4,8.3,18.4,18.4h1.4
					c0-10.9-8.9-19.8-19.8-19.8C9.7,30,0.8,38.9,0.8,49.8H2.3z"/>
			</g>
		</g>
		<g clip-path="url(#SVGID_2_)">
			<g>
				<defs>
					<rect id="SVGID_9_" y="29.1" width="41.4" height="20.7"/>
				</defs>
				<clipPath id="SVGID_10_">
					<use xlink:href="#SVGID_9_"  overflow="visible"/>
				</clipPath>
				<path clip-path="url(#SVGID_10_)" fill="#393536" d="M20.7,29.1C9.3,29.1,0,38.4,0,49.8h0.9C0.8,38.9,9.7,30,20.7,30
					s19.8,8.9,19.8,19.8h0.8C41.4,38.4,32.1,29.1,20.7,29.1"/>
			</g>
		</g>
	</g>
</g>
<g>
	<g>
		<defs>
			<rect id="SVGID_11_" x="1.3" y="49.4" width="38.9" height="19.7"/>
		</defs>
		<clipPath id="SVGID_12_">
			<use xlink:href="#SVGID_11_"  overflow="visible"/>
		</clipPath>
		<path clip-path="url(#SVGID_12_)" fill="#BDBCBC" d="M40.2,49.4c0,0,0,0.2,0,0.7c0,0.4,0,1.1-0.1,1.9c-0.1,0.4-0.1,0.9-0.2,1.4
			c-0.1,0.5-0.2,1-0.4,1.6c-0.1,0.6-0.4,1.1-0.6,1.8c-0.2,0.6-0.6,1.2-0.9,1.9c-0.4,0.6-0.7,1.3-1.2,1.9c-0.5,0.6-0.9,1.3-1.5,1.9
			c-1.1,1.3-2.4,2.4-3.9,3.4c-1.5,1-3.2,1.8-5,2.4c-1.8,0.6-3.7,0.8-5.7,0.9c-1.9-0.1-3.9-0.3-5.7-0.9c-1.8-0.6-3.5-1.4-5-2.4
			c-1.5-1-2.8-2.1-3.9-3.4c-0.6-0.6-1-1.3-1.5-1.9c-0.4-0.6-0.8-1.3-1.2-1.9c-0.3-0.7-0.6-1.3-0.9-1.9C2.4,56.1,2.2,55.6,2,55
			c-0.1-0.6-0.3-1.1-0.4-1.6c-0.1-0.5-0.1-1-0.2-1.4c-0.1-0.8-0.1-1.5-0.1-1.9c0-0.4,0-0.7,0-0.7s0,0.2,0,0.7c0.1,0.4,0,1.1,0.2,1.9
			c0.1,0.4,0.1,0.9,0.2,1.4c0.1,0.5,0.3,1,0.4,1.6c0.2,0.6,0.4,1.1,0.6,1.7c0.2,0.6,0.6,1.2,0.9,1.8c0.4,0.6,0.7,1.3,1.2,1.9
			c0.5,0.6,0.9,1.3,1.5,1.8c1.1,1.2,2.4,2.3,3.9,3.3c1.5,1,3.2,1.7,4.9,2.3c1.8,0.5,3.7,0.8,5.6,0.8c1.9,0,3.8-0.3,5.6-0.8
			c1.8-0.6,3.5-1.3,4.9-2.3c1.5-1,2.8-2.1,3.9-3.3c0.6-0.6,1-1.2,1.5-1.8c0.4-0.6,0.8-1.3,1.2-1.9c0.3-0.6,0.6-1.2,0.9-1.8
			c0.2-0.6,0.5-1.2,0.6-1.7c0.2-0.6,0.3-1.1,0.4-1.6c0.1-0.5,0.2-0.9,0.2-1.4c0.2-0.8,0.1-1.5,0.2-1.9
			C40.2,49.7,40.2,49.4,40.2,49.4"/>
	</g>
</g>
<g>
	<g>
		<defs>
			<rect id="SVGID_13_" x="1.2" y="30.3" width="38.9" height="19.7"/>
		</defs>
		<clipPath id="SVGID_14_">
			<use xlink:href="#SVGID_13_"  overflow="visible"/>
		</clipPath>
		<path clip-path="url(#SVGID_14_)" fill="#BDBCBC" d="M1.2,49.9c0,0,0-0.2,0-0.7c0-0.4,0-1.1,0.1-1.9c0.1-0.4,0.1-0.9,0.2-1.4
			c0.1-0.5,0.2-1,0.4-1.6c0.1-0.6,0.4-1.1,0.6-1.8c0.2-0.6,0.6-1.2,0.9-1.9c0.4-0.6,0.7-1.3,1.2-1.9c0.5-0.6,0.9-1.3,1.5-1.9
			c1.1-1.3,2.4-2.4,3.9-3.4c1.5-1,3.2-1.8,5-2.4c1.8-0.6,3.7-0.8,5.7-0.9c1.9,0.1,3.9,0.3,5.7,0.9c1.8,0.6,3.5,1.4,5,2.4
			c1.5,1,2.8,2.1,3.9,3.4c0.6,0.6,1,1.3,1.5,1.9c0.4,0.6,0.8,1.3,1.2,1.9c0.3,0.7,0.6,1.3,0.9,1.9c0.2,0.6,0.4,1.2,0.6,1.8
			c0.1,0.6,0.3,1.1,0.4,1.6c0.1,0.5,0.1,1,0.2,1.4c0.2,0.8,0.1,1.5,0.1,1.9c0,0.4,0,0.7,0,0.7s0-0.2,0-0.7c-0.1-0.4,0-1.1-0.2-1.9
			c-0.1-0.4-0.1-0.9-0.2-1.4c-0.1-0.5-0.3-1-0.4-1.6c-0.2-0.6-0.4-1.1-0.6-1.7c-0.2-0.6-0.6-1.2-0.9-1.8c-0.4-0.6-0.7-1.3-1.2-1.9
			c-0.5-0.6-0.9-1.3-1.5-1.8c-1.1-1.2-2.4-2.3-3.9-3.3c-1.5-1-3.2-1.7-4.9-2.3c-1.8-0.5-3.7-0.8-5.6-0.8c-1.9,0-3.8,0.3-5.6,0.8
			c-1.8,0.6-3.5,1.3-4.9,2.3c-1.5,1-2.8,2.1-3.9,3.3c-0.6,0.6-1,1.2-1.5,1.8c-0.4,0.6-0.8,1.3-1.2,1.9c-0.3,0.6-0.6,1.2-0.9,1.8
			c-0.2,0.6-0.5,1.2-0.6,1.7c-0.2,0.6-0.3,1.1-0.4,1.6c-0.1,0.5-0.2,0.9-0.2,1.4c-0.2,0.8-0.1,1.5-0.2,1.9
			C1.2,49.7,1.2,49.9,1.2,49.9"/>
	</g>
</g>
<rect x="19.7" y="8.1" fill="#393536" width="2" height="19.8"/>
<rect x="19.4" y="26.8" fill="#393536" width="2.6" height="1.1"/>
<g>
	<g>
		<defs>
			<rect id="SVGID_15_" x="19.7" y="26.7" width="2" height="0.2"/>
		</defs>
		<clipPath id="SVGID_16_">
			<use xlink:href="#SVGID_15_"  overflow="visible"/>
		</clipPath>
		<path clip-path="url(#SVGID_16_)" fill="#252A26" d="M19.7,26.8c0,0,0.1-0.1,0.3-0.1c0.2,0,0.4-0.1,0.7-0.1c0.2,0,0.5,0.1,0.7,0.1
			c0.2,0,0.3,0.1,0.3,0.1v0c0,0-0.5,0-1,0C20.2,26.9,19.7,26.9,19.7,26.8L19.7,26.8z"/>
	</g>
</g>
<g>
	<g>
		<defs>
			<rect id="SVGID_17_" x="20.5" y="8.1" width="0.5" height="18.7"/>
		</defs>
		<clipPath id="SVGID_18_">
			<use xlink:href="#SVGID_17_"  overflow="visible"/>
		</clipPath>
		<rect x="20.5" y="8.1" clip-path="url(#SVGID_18_)" fill="#252A26" width="0.5" height="18.7"/>
	</g>
</g>
<g>
	<g>
		<defs>
			<rect id="SVGID_19_" x="20.4" y="26.9" width="0.7" height="1.1"/>
		</defs>
		<clipPath id="SVGID_20_">
			<use xlink:href="#SVGID_19_"  overflow="visible"/>
		</clipPath>
		<rect x="20.4" y="26.8" clip-path="url(#SVGID_20_)" fill="#252A26" width="0.7" height="1.1"/>
	</g>
</g>
<rect x="19" y="27.9" fill="#00587E" width="3.5" height="20.6"/>
<g opacity="0.4">
	<g>
		<defs>
			<rect id="SVGID_21_" x="19" y="27.9" width="3.5" height="20.6"/>
		</defs>
		<clipPath id="SVGID_22_">
			<use xlink:href="#SVGID_21_"  overflow="visible"/>
		</clipPath>
		<rect x="19" y="27.9" clip-path="url(#SVGID_22_)" fill="#00587E" width="0.4" height="20.6"/>
		<rect x="22.1" y="27.9" clip-path="url(#SVGID_22_)" fill="#00587E" width="0.4" height="20.6"/>
	</g>
</g>
<g>
	<g>
		<defs>
			<rect id="SVGID_23_" x="20.1" y="27.9" width="1.1" height="20.6"/>
		</defs>
		<clipPath id="SVGID_24_">
			<use xlink:href="#SVGID_23_"  overflow="visible"/>
		</clipPath>
		<rect x="20.1" y="27.9" clip-path="url(#SVGID_24_)" fill="#00587E" width="1.1" height="20.6"/>
	</g>
</g>
<path fill="#00587E" d="M23.1,49.8c0,1.3-1.1,2.4-2.4,2.4c-1.3,0-2.4-1.1-2.4-2.4s1.1-2.4,2.4-2.4C22.1,47.4,23.1,48.5,23.1,49.8"/>
<path fill="#393536" d="M22.2,49.8c0,0.8-0.7,1.5-1.5,1.5c-0.8,0-1.5-0.7-1.5-1.5s0.7-1.5,1.5-1.5C21.5,48.3,22.2,49,22.2,49.8"/>
<polygon fill="#B0AEAF" points="20.2,50.7 19.7,49.8 20.2,48.9 21.2,48.9 21.8,49.8 21.2,50.7 "/>
<circle fill="none" stroke="#E4E4E4" stroke-width="0.214" stroke-miterlimit="10" cx="20.7" cy="49.8" r="0.5"/>
<rect x="19.6" y="13.3" fill="#989696" width="2.3" height="2"/>
<path fill="#989696" d="M21.8,13.6h1.4c0.2,0,0.4,0.2,0.4,0.4v0.5c0,0.2-0.2,0.4-0.4,0.4h-1.4V13.6z"/>
<path fill="#D1D0D0" d="M23.5,14.3c0,0.3-0.2,0.5-0.5,0.5s-0.5-0.2-0.5-0.5s0.2-0.5,0.5-0.5S23.5,14,23.5,14.3"/>
<path fill="#EBEBEB" d="M23,14.1c0,0.1-0.1,0.2-0.2,0.2s-0.2-0.1-0.2-0.2c0-0.1,0.1-0.2,0.2-0.2S23,14,23,14.1"/>
<rect x="20.7" y="13.3" fill="#B9B7B8" width="0.5" height="2"/>
<path fill="#636061" d="M6.4,2.8c0.9,0.4,4.5,1.9,4.5,1.9s2.4,0.9,2.8,1.4c0.4,0.5,5.1,1.7,5.8,2c0.7,0.2,5.5,0.6,8-0.9
	s2.8-1.6,2.8-1.6s4.3-2.2,6-1.8c0-0.6-0.1-1-0.1-1L36,2.1c-0.7-3.6-4.7-1.5-9.3-0.1c-4.6,1.4-8.9,0.5-8.9,0.5S13,1.3,9.9,0.3
	c-3.1-1-3.8,0.4-3.8,0.4L5.2,2.6c0,0.1,0,0.2,0,0.2C5.6,2.7,6,2.6,6.4,2.8"/>
</svg>
