<?xml version="1.0" encoding="utf-8"?>
<!-- Generator: Adobe Illustrator 15.0.2, SVG Export Plug-In . SVG Version: 6.00 Build 0)  -->
<!DOCTYPE svg PUBLIC "-//W3C//DTD SVG 1.1//EN" "http://www.w3.org/Graphics/SVG/1.1/DTD/svg11.dtd">
<svg version="1.1" id="Layer_1" xmlns="http://www.w3.org/2000/svg" xmlns:xlink="http://www.w3.org/1999/xlink" x="0px" y="0px"
	 width="76.7px" height="41.9px" viewBox="0 0 76.7 41.9" enable-background="new 0 0 76.7 41.9" xml:space="preserve">
<path fill="#231F20" d="M75.8,10.7V4.1H38.4H0.9v6.7H0v28.9c0,1.9,1.6,2.3,1.6,2.3h36.7h36.7c0,0,1.6-0.4,1.6-2.3V10.7H75.8z"/>
<path fill="#231F20" d="M0.1,8.3C0.1,10,1,10.6,1,10.6l0-6.3h37.4V0H0.1V8.3z"/>
<path fill="#231F20" d="M38.4,0v4.3h37.4l0,6.3c0,0,0.9-0.6,0.9-2.3V0H38.4z"/>
<g>
	<g>
		<defs>
			<rect id="SVGID_1_" x="1" y="3.6" width="74.6" height="0.7"/>
		</defs>
		<clipPath id="SVGID_2_">
			<use xlink:href="#SVGID_1_"  overflow="visible"/>
		</clipPath>
		<rect x="1" y="3.6" clip-path="url(#SVGID_2_)" fill="#231F20" width="74.6" height="0.7"/>
	</g>
</g>
<path d="M1,3.6v7.2h0c0,0-0.1-0.5-0.1-1.1c0-0.7-0.1-1.6-0.1-2.5c0-0.9,0.1-1.8,0.1-2.5C0.9,4.1,1,3.6,1,3.6L1,3.6z"/>
<path d="M75.6,3.6v7.2h0c0,0-0.1-0.5-0.1-1.1c0-0.7-0.1-1.6-0.1-2.5c0-0.9,0.1-1.8,0.1-2.5C75.5,4.1,75.6,3.6,75.6,3.6L75.6,3.6z"/>
<g>
	<g>
		<defs>
			<rect id="SVGID_3_" x="0.5" y="5" width="74.8" height="36.5"/>
		</defs>
		<clipPath id="SVGID_4_">
			<use xlink:href="#SVGID_3_"  overflow="visible"/>
		</clipPath>
		<path clip-path="url(#SVGID_4_)" fill="#5A5758" d="M74.6,41.1H38.3H1.9c-0.2-0.1-1.1-0.5-1.1-1.6v-28h0.3h0.6v-0.6V5.1L1.5,5v6.2
			H0.5v28.4c0,1.4,1.1,1.9,1.4,1.9h72.8c0.1,0,0.4-0.1,0.6-0.4L75,41C74.9,41.1,74.7,41.1,74.6,41.1"/>
	</g>
</g>
<g opacity="0.5">
	<g>
		<defs>
			<rect id="SVGID_5_" x="1.5" y="4.5" width="74.6" height="36.6"/>
		</defs>
		<clipPath id="SVGID_6_">
			<use xlink:href="#SVGID_5_"  overflow="visible"/>
		</clipPath>
		<path clip-path="url(#SVGID_6_)" fill="#231F20" d="M76,39.5V11.2h-0.9V4.5H1.5V5l0.3,0.2V4.8h36.5h36.5v6v0.6h0.6h0.3v28
			c0,0.8-0.4,1.2-0.7,1.4l0.3,0.2C75.7,40.8,76,40.3,76,39.5"/>
	</g>
</g>
<path fill="#D3D2D2" d="M5.5,12.8c-2,3.1-3.1,6.4-3.1,10c0,3.6,1.1,6.9,3.1,10h14.2v-20H5.5z"/>
<path fill="#D3D2D2" d="M56.9,32.8H71c2-3.1,3.1-6.4,3.1-10c0-3.6-1.1-6.9-3.1-10H56.9V32.8z"/>
<g opacity="0.8">
	<g>
		<defs>
			<rect id="SVGID_7_" x="2" y="12" width="72.5" height="10.4"/>
		</defs>
		<clipPath id="SVGID_8_">
			<use xlink:href="#SVGID_7_"  overflow="visible"/>
		</clipPath>
		<path clip-path="url(#SVGID_8_)" fill="#D3D2D2" d="M5.3,12.5h65.9l0.1,0.2c2.1,3.1,3.2,6.4,3.2,9.7c0-3.6-1.1-7-3.2-10.2L71.2,12
			H5.3l-0.1,0.2C3.1,15.4,2,18.8,2,22.4c0-3.4,1.1-6.7,3.2-9.7L5.3,12.5z"/>
	</g>
</g>
<g opacity="0.5">
	<g>
		<defs>
			<rect id="SVGID_9_" x="2" y="23.5" width="72.5" height="10.4"/>
		</defs>
		<clipPath id="SVGID_10_">
			<use xlink:href="#SVGID_9_"  overflow="visible"/>
		</clipPath>
		<path clip-path="url(#SVGID_10_)" fill="#D3D2D2" d="M71.4,33.2l-0.1,0.2H5.3l-0.1-0.2C3.1,30.1,2,26.8,2,23.5
			c0,3.6,1.1,7,3.2,10.2l0.1,0.2h65.9l0.1-0.2c2.1-3.2,3.2-6.7,3.2-10.2C74.5,26.8,73.5,30.1,71.4,33.2"/>
	</g>
</g>
<g>
	<g>
		<defs>
			<rect id="SVGID_11_" x="2.1" y="16.4" width="18" height="16.8"/>
		</defs>
		<clipPath id="SVGID_12_">
			<use xlink:href="#SVGID_11_"  overflow="visible"/>
		</clipPath>
		<path clip-path="url(#SVGID_12_)" fill="#5A5758" d="M5.6,32.8c-2-3.1-3.1-6.4-3.1-10c0-2.1,0.4-4.1,1.1-6l-0.3-0.3
			c-0.8,2.1-1.2,4.2-1.2,6.4c0,3.6,1.1,7,3.2,10.2l0.1,0.2h0.2h14.2h0.2l-0.4-0.4H5.6z"/>
	</g>
</g>
<g>
	<g>
		<defs>
			<rect id="SVGID_13_" x="56.6" y="18.5" width="14.7" height="14.7"/>
		</defs>
		<clipPath id="SVGID_14_">
			<use xlink:href="#SVGID_13_"  overflow="visible"/>
		</clipPath>
		<polygon clip-path="url(#SVGID_14_)" fill="#5A5758" points="57,32.8 57,18.9 56.6,18.5 56.6,32.8 56.6,33.2 57,33.2 71.1,33.2 
			71.3,33.2 71.3,33.2 70.9,32.8 		"/>
	</g>
</g>
<g>
	<g>
		<defs>
			<rect id="SVGID_15_" x="3.3" y="12.4" width="17" height="20.8"/>
		</defs>
		<clipPath id="SVGID_16_">
			<use xlink:href="#SVGID_15_"  overflow="visible"/>
		</clipPath>
		<path clip-path="url(#SVGID_16_)" fill="#231F20" d="M20.3,32.8v-20v-0.4h-0.4H5.6H5.4l-0.1,0.2c-0.8,1.3-1.5,2.5-2,3.8l0.3,0.3
			c0.5-1.4,1.2-2.7,2-3.9h14.2v20h-0.2l0.4,0.4h0.2V32.8z"/>
	</g>
</g>
<g>
	<g>
		<defs>
			<rect id="SVGID_17_" x="56.6" y="12.4" width="18" height="20.8"/>
		</defs>
		<clipPath id="SVGID_18_">
			<use xlink:href="#SVGID_17_"  overflow="visible"/>
		</clipPath>
		<path clip-path="url(#SVGID_18_)" fill="#231F20" d="M74.6,22.8c0-3.6-1.1-7-3.2-10.2l-0.1-0.2h-0.2H57h-0.4v0.4v5.7l0.4,0.4v-6.1
			h14.1c2,3.1,3.1,6.4,3.1,10c0,3.6-1.1,6.9-3.1,10h-0.2l0.4,0.4l0.1-0.2C73.5,29.8,74.6,26.4,74.6,22.8"/>
	</g>
</g>
<path fill="#444142" d="M54.7,31.8c0,0.6-0.5,1.1-1.1,1.1H22.9c-0.6,0-1.1-0.5-1.1-1.1V14.3c0-0.6,0.5-1.1,1.1-1.1h30.7
	c0.6,0,1.1,0.5,1.1,1.1V31.8z"/>
<g>
	<g>
		<defs>
			<rect id="SVGID_19_" x="21.8" y="13.2" width="32.9" height="1.4"/>
		</defs>
		<clipPath id="SVGID_20_">
			<use xlink:href="#SVGID_19_"  overflow="visible"/>
		</clipPath>
		<path clip-path="url(#SVGID_20_)" fill="#444142" d="M53.7,13.2H22.9c-0.6,0-1.1,0.5-1.1,1.1v0.4c0-0.6,0.5-1,1.1-1h30.7
			c0.6,0,1.1,0.5,1.1,1v-0.4C54.7,13.7,54.2,13.2,53.7,13.2"/>
	</g>
</g>
<g>
	<g>
		<defs>
			<rect id="SVGID_21_" x="21.8" y="31.4" width="32.9" height="1.4"/>
		</defs>
		<clipPath id="SVGID_22_">
			<use xlink:href="#SVGID_21_"  overflow="visible"/>
		</clipPath>
		<path clip-path="url(#SVGID_22_)" fill="#444142" d="M53.7,32.4H22.9c-0.6,0-1.1-0.5-1.1-1v0.4c0,0.6,0.5,1.1,1.1,1.1h30.7
			c0.6,0,1.1-0.5,1.1-1.1v-0.4C54.7,32,54.2,32.4,53.7,32.4"/>
	</g>
</g>
<g>
	<defs>
		<path id="SVGID_23_" d="M5.6,12.8c-2,3.1-3.1,6.4-3.1,10c0,3.6,1.1,6.9,3.1,10h14.2v-20H5.6z M57,12.8v20h14.1
			c2-3.1,3.1-6.4,3.1-10c0-3.6-1.1-6.9-3.1-10H57z"/>
	</defs>
	<clipPath id="SVGID_24_">
		<use xlink:href="#SVGID_23_"  overflow="visible"/>
	</clipPath>
	<path clip-path="url(#SVGID_24_)" fill="#464A47" d="M32.8,22.8c0,7.1-5.8,12.9-12.9,12.9c-7.1,0-12.9-5.8-12.9-12.9
		C7.1,15.7,12.9,10,20,10C27.1,10,32.8,15.7,32.8,22.8"/>
	<path clip-path="url(#SVGID_24_)" fill="#E2E2E2" d="M25.2,22.8c0,2.9-2.4,5.3-5.3,5.3c-2.9,0-5.3-2.4-5.3-5.3
		c0-2.9,2.4-5.3,5.3-5.3C22.9,17.6,25.2,19.9,25.2,22.8"/>
	<path clip-path="url(#SVGID_24_)" fill="#C1C0C1" d="M22.3,22.8c0,1.3-1.1,2.3-2.3,2.3c-1.3,0-2.3-1.1-2.3-2.3
		c0-1.3,1.1-2.3,2.3-2.3C21.3,20.5,22.3,21.5,22.3,22.8"/>
	<path clip-path="url(#SVGID_24_)" fill="#464A47" d="M69.7,22.8c0,7.1-5.8,12.9-12.9,12.9c-7.1,0-12.9-5.8-12.9-12.9
		c0-7.1,5.8-12.9,12.9-12.9C63.9,10,69.7,15.7,69.7,22.8"/>
	<path clip-path="url(#SVGID_24_)" fill="#E2E2E2" d="M62.1,22.8c0,2.9-2.4,5.3-5.3,5.3c-2.9,0-5.3-2.4-5.3-5.3
		c0-2.9,2.4-5.3,5.3-5.3C59.7,17.6,62.1,19.9,62.1,22.8"/>
	<path clip-path="url(#SVGID_24_)" fill="#C1C0C1" d="M59.2,22.8c0,1.3-1.1,2.3-2.3,2.3c-1.3,0-2.3-1.1-2.3-2.3
		c0-1.3,1.1-2.3,2.3-2.3C58.1,20.5,59.2,21.5,59.2,22.8"/>
</g>
<g>
	<g>
		<defs>
			<rect id="SVGID_25_" x="4.6" y="12.8" width="15.3" height="20"/>
		</defs>
		<clipPath id="SVGID_26_">
			<use xlink:href="#SVGID_25_"  overflow="visible"/>
		</clipPath>
		<path clip-path="url(#SVGID_26_)" fill="#D3D2D2" d="M5.7,12.8c-0.4,0.6-0.8,1.2-1.1,1.8h13.3v18.1h2v-20H5.7z"/>
	</g>
</g>
<g>
	<g>
		<defs>
			<rect id="SVGID_27_" x="56.9" y="12.8" width="17.2" height="20"/>
		</defs>
		<clipPath id="SVGID_28_">
			<use xlink:href="#SVGID_27_"  overflow="visible"/>
		</clipPath>
		<path clip-path="url(#SVGID_28_)" fill="#D3D2D2" d="M71,12.8H56.9v1.5h12.6c2,3.1,3.1,6.4,3.1,10c0,3-0.8,5.9-2.2,8.5H71
			c2-3.1,3.1-6.4,3.1-10S73,15.9,71,12.8"/>
	</g>
</g>
<g opacity="0.5">
	<g>
		<defs>
			<rect id="SVGID_29_" x="2.7" y="13.4" width="16.5" height="19"/>
		</defs>
		<clipPath id="SVGID_30_">
			<use xlink:href="#SVGID_29_"  overflow="visible"/>
		</clipPath>
		<path clip-path="url(#SVGID_30_)" fill="#D3D2D2" d="M19.2,13.6c-2.2,0.1-4.5,0.1-6.7,0.2c-1.1,0-2.2,0-3.3-0.1S7,13.7,5.9,13.6
			l0.1,0l-0.6,1.1l-0.6,1.1l-0.5,1.1l-0.4,1.2l-0.3,1.2l-0.2,1.2l-0.1,1.2l0,1.2l0,1.2l0.1,1.2l0.2,1.2l0.3,1.2L4.3,29l0.5,1.1
			l0.5,1.1l0.6,1.1l0,0l-0.7-1l-0.6-1.1L4,29.1L3.5,28l-0.4-1.2l-0.3-1.2l-0.2-1.3L2.7,23l0.1-1.3l0.2-1.3l0.3-1.2L3.6,18L4,16.8
			l0.5-1.1l0.6-1.1l0.7-1.1l0,0l0,0c1.1,0,2.2,0,3.3-0.1s2.2-0.1,3.3-0.1C14.8,13.4,17,13.4,19.2,13.6L19.2,13.6z"/>
	</g>
</g>
<g opacity="0.5">
	<g>
		<defs>
			<rect id="SVGID_31_" x="57.3" y="13.1" width="13.1" height="18.5"/>
		</defs>
		<clipPath id="SVGID_32_">
			<use xlink:href="#SVGID_31_"  overflow="visible"/>
		</clipPath>
		<path clip-path="url(#SVGID_32_)" fill="#D3D2D2" d="M70.4,13.3c-2.1,0.1-4.3,0.1-6.4,0.2c-2.1,0-4.3-0.1-6.4-0.1l0.1-0.1
			c0,1.5,0.1,3,0.1,4.6c0,1.5,0,3,0.1,4.6c0,1.5,0,3,0,4.6c0,1.5-0.1,3-0.1,4.6h0c-0.1-1.5-0.1-3-0.1-4.6c0-1.5,0-3,0-4.6
			c0-1.5,0-3,0.1-4.6c0-1.5,0.1-3,0.1-4.6v-0.1h0.1c2.1,0,4.3-0.1,6.4-0.1C66.1,13.1,68.2,13.1,70.4,13.3L70.4,13.3z"/>
	</g>
</g>
</svg>
