<?xml version="1.0" encoding="utf-8"?>
<!-- Generator: Adobe Illustrator 15.0.2, SVG Export Plug-In . SVG Version: 6.00 Build 0)  -->
<!DOCTYPE svg PUBLIC "-//W3C//DTD SVG 1.1//EN" "http://www.w3.org/Graphics/SVG/1.1/DTD/svg11.dtd">
<svg version="1.1" id="Layer_1" xmlns="http://www.w3.org/2000/svg" xmlns:xlink="http://www.w3.org/1999/xlink" x="0px" y="0px"
	 width="30px" height="60.6px" viewBox="0 0 30 60.6" enable-background="new 0 0 30 60.6" xml:space="preserve">
<path fill="#E9E9E9" d="M4.9,27.4c0,0.2-0.2,0.4-0.4,0.4H1.4c-0.2,0-0.4-0.2-0.4-0.4v-4.2c0-0.2,0.2-0.4,0.4-0.4h3.1
	c0.2,0,0.4,0.2,0.4,0.4V27.4z"/>
<path fill="#E9E9E9" d="M1.9,26.1c0,0.2-0.2,0.4-0.4,0.4H0.4c-0.2,0-0.4-0.2-0.4-0.4v-1c0-0.2,0.2-0.4,0.4-0.4h1.1
	c0.2,0,0.4,0.2,0.4,0.4V26.1z"/>
<path fill="#E9E9E9" d="M4.9,37.8c0,0.2-0.2,0.4-0.4,0.4H1.4C1.2,38.2,1,38,1,37.8v-4.3c0-0.2,0.2-0.4,0.4-0.4h3.1
	c0.2,0,0.4,0.2,0.4,0.4V37.8z"/>
<path fill="#E9E9E9" d="M1.7,36c0,0.2-0.2,0.4-0.4,0.4H0.4C0.2,36.4,0,36.2,0,36v-1c0-0.2,0.2-0.4,0.4-0.4h0.9
	c0.2,0,0.4,0.2,0.4,0.4V36z"/>
<path fill="#E9E9E9" d="M29,27.1c0,0.2-0.2,0.4-0.4,0.4h-1.9c-0.2,0-0.4-0.2-0.4-0.4V23c0-0.2,0.2-0.4,0.4-0.4h1.9
	c0.2,0,0.4,0.2,0.4,0.4V27.1z"/>
<path fill="#E9E9E9" d="M29,36.9c0,0.2-0.2,0.4-0.4,0.4h-1.1c-0.2,0-0.4-0.2-0.4-0.4v-3.6c0-0.2,0.2-0.4,0.4-0.4h1.1
	c0.2,0,0.4,0.2,0.4,0.4V36.9z"/>
<path fill="#E9E9E9" d="M30,35.3c0,0.2-0.2,0.4-0.4,0.4h-1.2c-0.2,0-0.4-0.2-0.4-0.4v-1.1c0-0.2,0.2-0.4,0.4-0.4h1.2
	c0.2,0,0.4,0.2,0.4,0.4V35.3z"/>
<path fill="#E9E9E9" d="M25.7,19.2c-0.8-1.2-1.5-4.9-1.5-4.9H15H5.8c0,0-0.8,3.7-1.5,4.9c-0.8,1.2-2.8,5.1-2.8,5.9v5.3v5.3
	c0,0.7,2,4.6,2.8,5.9c0.8,1.2,1.5,4.9,1.5,4.9H15h9.2c0,0,0.8-3.7,1.5-4.9c0.8-1.2,2.8-5.1,2.8-5.9v-5.3V25
	C28.6,24.3,26.5,20.4,25.7,19.2"/>
<g>
	<g>
		<defs>
			<rect id="SVGID_1_" x="2.4" y="16.6" width="25.1" height="27.6"/>
		</defs>
		<clipPath id="SVGID_2_">
			<use xlink:href="#SVGID_1_"  overflow="visible"/>
		</clipPath>
		<path clip-path="url(#SVGID_2_)" fill="#DEDDDE" d="M5,18.9c-0.7,1.2-2.6,5.3-2.6,6v5.5v5.5c0,0.7,1.9,4.8,2.6,6
			c0.3,0.5,0.6,1.4,0.8,2.3h18.3c0.2-0.9,0.5-1.8,0.8-2.3c0.7-1.2,2.6-5.3,2.6-6v-5.5v-5.5c0-0.7-1.9-4.8-2.6-6
			c-0.3-0.5-0.6-1.5-0.8-2.4H5.9C5.6,17.5,5.3,18.4,5,18.9"/>
	</g>
</g>
<path fill="#DEDDDE" d="M5,19.2c-0.7,1.2-2.6,5.1-2.6,5.9v5.3v5.3c0,0.7,1.9,4.6,2.6,5.9c0.3,0.5,0.6,1.3,0.8,2.2h18.3
	c0.2-0.9,0.5-1.7,0.8-2.2c0.7-1.2,2.6-5.1,2.6-5.9v-5.3V25c0-0.7-1.9-4.6-2.6-5.9c-0.3-0.5-0.6-1.4-0.8-2.3H5.9
	C5.6,17.8,5.3,18.7,5,19.2"/>
<path fill="#393536" d="M5.4,19.6c-0.7,1.2-2.5,5-2.5,5.7v5.2v5.1c0,0.7,1.8,4.5,2.5,5.7c0.1,0.2,0.3,0.6,0.4,1h18.3
	c0.1-0.4,0.3-0.8,0.4-1c0.7-1.2,2.5-5,2.5-5.7v-5.1v-5.2c0-0.7-1.8-4.5-2.5-5.7c-0.2-0.3-0.4-0.8-0.5-1.3H5.9
	C5.8,18.8,5.6,19.3,5.4,19.6"/>
<g>
	<g>
		<defs>
			<rect id="SVGID_3_" x="6.8" y="26.5" width="16.4" height="8.5"/>
		</defs>
		<clipPath id="SVGID_4_">
			<use xlink:href="#SVGID_3_"  overflow="visible"/>
		</clipPath>
		<path clip-path="url(#SVGID_4_)" fill="#7098AB" d="M23.2,34.6c0,0.2-0.2,0.4-0.4,0.4H7.2c-0.2,0-0.4-0.2-0.4-0.4v-7.7
			c0-0.2,0.2-0.4,0.4-0.4h15.6c0.2,0,0.4,0.2,0.4,0.4V34.6z"/>
	</g>
</g>
<path fill="#7098AB" d="M23.2,34.2c0,0.2-0.2,0.4-0.4,0.4H7.2c-0.2,0-0.4-0.2-0.4-0.4v-7.7c0-0.2,0.2-0.4,0.4-0.4h15.6
	c0.2,0,0.4,0.2,0.4,0.4V34.2z"/>
<path fill="none" stroke="#FFFFFF" stroke-width="0.108" stroke-miterlimit="10" d="M22.6,21.4H15h0H7.4c-2.5,0-2.9,5.6-2.9,5.6v3.2
	v0.1v3.2c0,0,0.4,5.6,2.9,5.6H15h0h7.6c2.5,0,2.9-5.6,2.9-5.6v-3.2v-0.1v-3.2C25.5,27.1,25.1,21.4,22.6,21.4z"/>
<path fill="none" stroke="#FFFFFF" stroke-width="0.108" stroke-miterlimit="10" d="M23.2,20.3H15h0H6.8c-2.7,0-3.2,6.3-3.2,6.3v3.5
	v0.1v3.5c0,0,0.4,6.3,3.2,6.3H15h0h8.2c2.7,0,3.1-6.3,3.1-6.3v-3.5v-0.1v-3.5C26.3,26.6,25.9,20.3,23.2,20.3z"/>
<g>
	<g>
		<defs>
			<rect id="SVGID_5_" x="0.8" y="24.7" width="0.2" height="1.8"/>
		</defs>
		<clipPath id="SVGID_6_">
			<use xlink:href="#SVGID_5_"  overflow="visible"/>
		</clipPath>
		<rect x="0.8" y="24.7" clip-path="url(#SVGID_6_)" fill="#E9E9E9" width="0.2" height="1.8"/>
	</g>
</g>
<g>
	<g>
		<defs>
			<rect id="SVGID_7_" x="0.8" y="34.6" width="0.2" height="1.8"/>
		</defs>
		<clipPath id="SVGID_8_">
			<use xlink:href="#SVGID_7_"  overflow="visible"/>
		</clipPath>
		<rect x="0.8" y="34.6" clip-path="url(#SVGID_8_)" fill="#E9E9E9" width="0.2" height="1.8"/>
	</g>
</g>
<g>
	<g>
		<defs>
			<rect id="SVGID_9_" x="28.9" y="33.7" width="0.2" height="1.8"/>
		</defs>
		<clipPath id="SVGID_10_">
			<use xlink:href="#SVGID_9_"  overflow="visible"/>
		</clipPath>
		<rect x="28.9" y="33.7" clip-path="url(#SVGID_10_)" fill="#E9E9E9" width="0.2" height="1.8"/>
	</g>
</g>
<path d="M10.6,32.4h-2c-0.2,0-0.2-0.1-0.3-0.3L8.9,32h1.6L10.6,32.4z M8.4,32l0.2-1.5l0.1-0.1L9,30.7l-0.1,1.1L8.4,32z M10.6,28.6
	H9.2l-0.5-0.2c0.1-0.2,0.2-0.3,0.3-0.3h1.8L10.6,28.6z M10.6,30.1l0.2,0.2l-0.3,0.2H9l-0.2-0.2l0.3-0.2H10.6z M10.6,29.9l0.1-1.2
	l0.2-0.5c0.2,0,0.2,0.1,0.3,0.3l-0.2,1.7L11,30.2L10.6,29.9z"/>
<path d="M13.5,32.4h-1.8c-0.2,0-0.2-0.1-0.3-0.3L12,32h1.4L13.5,32.4z M11.5,32l0.2-1.5l0.1-0.1l0.3,0.4L12,31.8L11.5,32z
	 M12.3,28.8l-0.1,1.1l-0.4,0.4l-0.1-0.1l0.2-1.5L12.3,28.8z M13.7,28.6h-1.4l-0.5-0.2c0.1-0.2,0.2-0.3,0.3-0.3H14L13.7,28.6z
	 M14,30.4l0.1,0.1L14,32.1c-0.1,0.2-0.2,0.3-0.3,0.3L13.5,32l0.1-1.2L14,30.4z M13.7,29.9l0.1-1.2l0.2-0.5c0.2,0,0.2,0.1,0.3,0.3
	l-0.2,1.7L14,30.2L13.7,29.9z"/>
<path d="M15.1,31.5h-0.5l0-0.5h0.5L15.1,31.5z M15.3,29.6h-0.5l0-0.5h0.5L15.3,29.6z"/>
<path d="M16.5,28.6l-0.1,1.3l-0.4,0.4l-0.1-0.1l0.2-1.7L16.5,28.6z M17.9,30.1l0.2,0.2l-0.3,0.2h-1.5l-0.2-0.2l0.3-0.2H17.9z
	 M18.2,30.4l0.1,0.1l-0.2,1.7c-0.1,0.2-0.2,0.3-0.3,0.3L17.7,32l0.1-1.2L18.2,30.4z M17.9,29.9l0.1-1.2l0.2-0.5
	c0.2,0,0.2,0.1,0.3,0.3l-0.2,1.7l-0.1,0.1L17.9,29.9z"/>
<path d="M19.5,28.8l-0.1,1.1L19,30.2l-0.1-0.1l0.2-1.5L19.5,28.8z M21,28.6h-1.4l-0.5-0.2c0.1-0.2,0.2-0.3,0.3-0.3h1.8L21,28.6z
	 M21.3,30.4l0.1,0.1l-0.2,1.7c-0.1,0.2-0.2,0.3-0.3,0.3L20.8,32l0.1-1.2L21.3,30.4z M21,29.9l0.1-1.2l0.2-0.5c0.2,0,0.2,0.1,0.3,0.3
	l-0.2,1.7l-0.1,0.1L21,29.9z"/>
<rect x="7.9" y="22.9" fill="#F3EFD9" width="6.7" height="1.8"/>
<rect x="15.6" y="23.5" fill="#F3EFD9" width="2.3" height="1.1"/>
<rect x="18.5" y="23.5" fill="#F3EFD9" width="3.5" height="1.1"/>
<rect x="11.6" y="11.3" fill="#E9E9E9" width="6.8" height="1.8"/>
<rect x="11.3" y="8" fill="#D3D2D2" width="7.3" height="3.4"/>
<rect x="11.3" y="7.4" fill="#656263" width="7.3" height="0.6"/>
<rect x="11.3" y="5.1" fill="#D3D2D2" width="7.3" height="2.3"/>
<rect x="11.3" y="2.6" fill="#CDCBCC" width="7.3" height="2.4"/>
<rect x="11.3" y="1" fill="#C8C7C7" width="7.3" height="1.6"/>
<rect x="11.3" fill="#BDBCBC" width="7.3" height="1"/>
<path fill="#D3D2D2" d="M6.1,11.9v0.6v0.3h5.2V9.5H6.9C6.6,10.4,6.4,11.3,6.1,11.9"/>
<path fill="#656263" d="M6.9,9.5h4.5V9H7C7,9.1,6.9,9.3,6.9,9.5"/>
<path fill="#D3D2D2" d="M7,9h4.3V6.4H7.6C7.4,7.3,7.2,8.2,7,9"/>
<path fill="#656263" d="M7.6,6.4h3.8V5.9H7.7C7.7,6.1,7.6,6.2,7.6,6.4"/>
<path fill="#D3D2D2" d="M7.7,5.9h3.6V3.6H8.2C8,4.3,7.9,5.1,7.7,5.9"/>
<path fill="#656263" d="M8.2,3.6h3.2V3.1H8.2C8.2,3.3,8.2,3.4,8.2,3.6"/>
<path fill="#CDCBCC" d="M8.2,3.1h3.1V1.7H8.5C8.4,2.1,8.3,2.6,8.2,3.1"/>
<path fill="#656263" d="M8.5,1.7h2.8V1.2H8.6C8.6,1.4,8.5,1.5,8.5,1.7"/>
<path fill="#C8C7C7" d="M8.6,1.2h2.7V0.6H8.7C8.7,0.7,8.7,1,8.6,1.2"/>
<path fill="#BDBCBC" d="M8.8,0.2c0,0,0,0.1-0.1,0.4h2.6V0.2H8.8z"/>
<path fill="#D3D2D2" d="M23.8,11.9v0.6v0.3h-5.2V9.5h4.5C23.4,10.4,23.6,11.3,23.8,11.9"/>
<path fill="#656263" d="M23.1,9.5h-4.5V9H23C23,9.1,23.1,9.3,23.1,9.5"/>
<path fill="#D3D2D2" d="M23,9h-4.3V6.4h3.8C22.6,7.3,22.8,8.2,23,9"/>
<path fill="#656263" d="M22.4,6.4h-3.8V5.9h3.6C22.3,6.1,22.4,6.2,22.4,6.4"/>
<path fill="#D3D2D2" d="M22.3,5.9h-3.6V3.6h3.2C22,4.3,22.1,5.1,22.3,5.9"/>
<path fill="#656263" d="M21.8,3.6h-3.2V3.1h3.1C21.8,3.3,21.8,3.4,21.8,3.6"/>
<path fill="#CDCBCC" d="M21.7,3.1h-3.1V1.7h2.8C21.5,2.1,21.6,2.6,21.7,3.1"/>
<path fill="#656263" d="M21.5,1.7h-2.8V1.2h2.7C21.4,1.4,21.4,1.5,21.5,1.7"/>
<path fill="#C8C7C7" d="M21.4,1.2h-2.7V0.6h2.6C21.3,0.7,21.3,1,21.4,1.2"/>
<path fill="#BDBCBC" d="M21.2,0.2c0,0,0,0.1,0.1,0.4h-2.6V0.2H21.2z"/>
<path fill="#E9E9E9" d="M23.9,14.4c0,0.2-0.2,0.4-0.4,0.4H6.6c-0.2,0-0.4-0.2-0.4-0.4v-1.3c0-0.2,0.2-0.4,0.4-0.4h16.8
	c0.2,0,0.4,0.2,0.4,0.4V14.4z"/>
<rect x="11.3" y="4.9" fill="#656263" width="7.3" height="0.2"/>
<rect x="11.3" y="2.5" fill="#656263" width="7.3" height="0.2"/>
<rect x="11.3" y="1" fill="#656263" width="7.3" height="0.1"/>
<rect x="11.6" y="47.4" fill="#E9E9E9" width="6.8" height="1.8"/>
<rect x="11.3" y="49.2" fill="#D3D2D2" width="7.3" height="3.4"/>
<rect x="11.3" y="52.6" fill="#656263" width="7.3" height="0.6"/>
<rect x="11.3" y="53.2" fill="#D3D2D2" width="7.3" height="2.3"/>
<rect x="11.3" y="55.5" fill="#CDCBCC" width="7.3" height="2.4"/>
<rect x="11.3" y="58" fill="#C8C7C7" width="7.3" height="1.6"/>
<rect x="11.3" y="59.5" fill="#BDBCBC" width="7.3" height="1"/>
<path fill="#D3D2D2" d="M6.1,48.7v-0.6v-0.3h5.2v3.3H6.9C6.6,50.1,6.4,49.3,6.1,48.7"/>
<path fill="#656263" d="M6.9,51.1h4.5v0.5H7C7,51.4,6.9,51.3,6.9,51.1"/>
<path fill="#D3D2D2" d="M7,51.6h4.3v2.5H7.6C7.4,53.3,7.2,52.4,7,51.6"/>
<path fill="#656263" d="M7.6,54.2h3.8v0.5H7.7C7.7,54.5,7.6,54.3,7.6,54.2"/>
<path fill="#D3D2D2" d="M7.7,54.7h3.6V57H8.2C8,56.3,7.9,55.5,7.7,54.7"/>
<path fill="#656263" d="M8.2,57h3.2v0.4H8.2C8.2,57.3,8.2,57.1,8.2,57"/>
<path fill="#CDCBCC" d="M8.2,57.4h3.1v1.5H8.5C8.4,58.5,8.3,58,8.2,57.4"/>
<path fill="#656263" d="M8.5,58.9h2.8v0.5H8.6C8.6,59.2,8.5,59.1,8.5,58.9"/>
<path fill="#C8C7C7" d="M8.6,59.4h2.7V60H8.7C8.7,59.8,8.7,59.6,8.6,59.4"/>
<path fill="#BDBCBC" d="M8.8,60.4c0,0,0-0.1-0.1-0.4h2.6v0.4H8.8z"/>
<path fill="#D3D2D2" d="M23.8,48.7v-0.6v-0.3h-5.2v3.3h4.5C23.4,50.1,23.6,49.3,23.8,48.7"/>
<path fill="#656263" d="M23.1,51.1h-4.5v0.5H23C23,51.4,23.1,51.3,23.1,51.1"/>
<path fill="#D3D2D2" d="M23,51.6h-4.3v2.5h3.8C22.6,53.3,22.8,52.4,23,51.6"/>
<path fill="#656263" d="M22.4,54.2h-3.8v0.5h3.6C22.3,54.5,22.4,54.3,22.4,54.2"/>
<path fill="#D3D2D2" d="M22.3,54.7h-3.6V57h3.2C22,56.3,22.1,55.5,22.3,54.7"/>
<path fill="#656263" d="M21.8,57h-3.2v0.4h3.1C21.8,57.3,21.8,57.1,21.8,57"/>
<path fill="#CDCBCC" d="M21.7,57.4h-3.1v1.5h2.8C21.5,58.5,21.6,58,21.7,57.4"/>
<path fill="#656263" d="M21.5,58.9h-2.8v0.5h2.7C21.4,59.2,21.4,59.1,21.5,58.9"/>
<path fill="#C8C7C7" d="M21.4,59.4h-2.7V60h2.6C21.3,59.8,21.3,59.6,21.4,59.4"/>
<path fill="#BDBCBC" d="M21.2,60.4c0,0,0-0.1,0.1-0.4h-2.6v0.4H21.2z"/>
<path fill="#E9E9E9" d="M23.9,46.1c0-0.2-0.2-0.4-0.4-0.4H6.6c-0.2,0-0.4,0.2-0.4,0.4v1.3c0,0.2,0.2,0.4,0.4,0.4h16.8
	c0.2,0,0.4-0.2,0.4-0.4V46.1z"/>
<rect x="11.3" y="55.5" fill="#656263" width="7.3" height="0.2"/>
<rect x="11.3" y="57.9" fill="#656263" width="7.3" height="0.2"/>
<rect x="11.3" y="59.5" fill="#656263" width="7.3" height="0.1"/>
<g>
	<g>
		<defs>
			<rect id="SVGID_11_" x="6.1" y="14" width="17.7" height="0.2"/>
		</defs>
		<clipPath id="SVGID_12_">
			<use xlink:href="#SVGID_11_"  overflow="visible"/>
		</clipPath>
		<rect x="6.1" y="14" clip-path="url(#SVGID_12_)" fill="#E9E9E9" width="17.7" height="0.2"/>
	</g>
</g>
</svg>
