<?xml version="1.0" encoding="utf-8"?>
<!-- Generator: Adobe Illustrator 15.0.2, SVG Export Plug-In . SVG Version: 6.00 Build 0)  -->
<!DOCTYPE svg PUBLIC "-//W3C//DTD SVG 1.1//EN" "http://www.w3.org/Graphics/SVG/1.1/DTD/svg11.dtd">
<svg version="1.1" id="Layer_1" xmlns="http://www.w3.org/2000/svg" xmlns:xlink="http://www.w3.org/1999/xlink" x="0px" y="0px"
	 width="26.2px" height="66.8px" viewBox="0 0 26.2 66.8" enable-background="new 0 0 26.2 66.8" xml:space="preserve">
<g opacity="0.9">
	<g>
		<defs>
			<rect id="SVGID_1_" y="0" width="26.2" height="66.7"/>
		</defs>
		<clipPath id="SVGID_2_">
			<use xlink:href="#SVGID_1_"  overflow="visible"/>
		</clipPath>
		<path clip-path="url(#SVGID_2_)" fill="#E8E9E8" d="M25.7,64c-0.7,0-11.3-1.6-11.3-8.9v-12c0,0-0.1-4.7,1.9-5.3
			c2-0.6,9.8-9.3,9.7-17.6c-0.2-8.4-3.1-19.8-3.1-19.9C22.8,0,13.1,0,13.1,0S3.4,0,3.3,0.2c0,0.2-2.9,11.6-3.1,19.9
			c-0.2,8.4,7.6,17,9.7,17.6c2,0.6,1.9,5.3,1.9,5.3v12c0,7.3-10.6,8.9-11.3,8.9C-0.2,64,0,64.6,0,64.6c0.6,2.3,13.1,2.1,13.1,2.1
			s12.5,0.2,13.1-2.1C26.2,64.6,26.4,64,25.7,64"/>
	</g>
</g>
<g>
	<g>
		<defs>
			<rect id="SVGID_3_" x="13.9" y="37.6" width="2.4" height="17.3"/>
		</defs>
		<clipPath id="SVGID_4_">
			<use xlink:href="#SVGID_3_"  overflow="visible"/>
		</clipPath>
		<path clip-path="url(#SVGID_4_)" fill="#E8E9E8" d="M14.4,54.9c-0.2-1.5-0.3-3-0.3-4.5c-0.1-1.5-0.1-3-0.1-4.5l0-2.2
			c0-0.7,0-1.5,0.1-2.3c0.1-0.8,0.3-1.5,0.6-2.2c0.3-0.7,0.8-1.4,1.6-1.6l0,0.1c-0.7,0.2-1.1,1-1.4,1.6c-0.2,0.7-0.4,1.4-0.4,2.2
			c-0.1,0.7-0.1,1.5-0.1,2.2l0,2.2L14.4,54.9L14.4,54.9z"/>
	</g>
</g>
<g>
	<g>
		<defs>
			<rect id="SVGID_5_" x="9.8" y="37.6" width="2.4" height="17.3"/>
		</defs>
		<clipPath id="SVGID_6_">
			<use xlink:href="#SVGID_5_"  overflow="visible"/>
		</clipPath>
		<path clip-path="url(#SVGID_6_)" fill="#E8E9E8" d="M9.8,37.6c0.8,0.2,1.3,0.9,1.6,1.6c0.3,0.7,0.5,1.5,0.6,2.2
			c0.1,0.8,0.1,1.5,0.1,2.3l0,2.2c0,1.5,0,3-0.1,4.5c-0.1,1.5-0.2,3-0.3,4.5h-0.1l0-9l0-2.2c0-0.7,0-1.5-0.1-2.2
			c-0.1-0.7-0.2-1.5-0.4-2.2C10.9,38.6,10.5,37.9,9.8,37.6L9.8,37.6z"/>
	</g>
</g>
<g>
	<g>
		<defs>
			<rect id="SVGID_7_" x="0.1" width="9.8" height="37.6"/>
		</defs>
		<clipPath id="SVGID_8_">
			<use xlink:href="#SVGID_7_"  overflow="visible"/>
		</clipPath>
		<path clip-path="url(#SVGID_8_)" fill="#E8E9E8" d="M3.4,0C3.1,1.7,2.8,3.4,2.6,5.1C2.3,6.8,2,8.5,1.8,10.1
			c-0.4,3.4-0.9,6.8-0.9,10.1c0,3.3,1.2,6.5,2.7,9.4c0.8,1.5,1.7,2.9,2.7,4.3c0.5,0.7,1,1.3,1.6,2c0.6,0.6,1.2,1.3,1.9,1.6l0,0.1
			c-0.8-0.3-1.4-0.9-2.1-1.5c-0.6-0.6-1.2-1.2-1.7-1.9C5,32.9,4,31.5,3.1,30c-1.7-3-3-6.3-3-9.7c0.1-3.4,0.5-6.8,1.1-10.2
			C1.8,6.7,2.5,3.3,3.4,0L3.4,0z"/>
	</g>
</g>
<g>
	<g>
		<defs>
			<rect id="SVGID_9_" x="16.3" width="9.8" height="37.6"/>
		</defs>
		<clipPath id="SVGID_10_">
			<use xlink:href="#SVGID_9_"  overflow="visible"/>
		</clipPath>
		<path clip-path="url(#SVGID_10_)" fill="#E8E9E8" d="M16.3,37.5c0.8-0.4,1.3-1,1.9-1.6c0.6-0.6,1.1-1.3,1.6-2
			c1-1.3,1.9-2.8,2.7-4.3c1.6-2.9,2.8-6.2,2.7-9.4c0-3.3-0.5-6.7-0.9-10.1c-0.2-1.7-0.5-3.4-0.8-5.1c-0.2-1.7-0.5-3.4-0.8-5.1l0.1,0
			c0.8,3.3,1.5,6.7,2.1,10c0.6,3.4,1,6.8,1.1,10.2c0,3.5-1.3,6.8-3,9.7c-0.9,1.5-1.8,2.9-2.9,4.2c-0.5,0.7-1.1,1.3-1.7,1.9
			C17.8,36.7,17.1,37.3,16.3,37.5L16.3,37.5z"/>
	</g>
</g>
<g>
	<g>
		<defs>
			<rect id="SVGID_11_" x="3.7" y="0.6" width="18.8" height="0.4"/>
		</defs>
		<clipPath id="SVGID_12_">
			<use xlink:href="#SVGID_11_"  overflow="visible"/>
		</clipPath>
		<path clip-path="url(#SVGID_12_)" fill="#B1B5B0" d="M3.7,0.6h18.8v0l-2.3,0.2l-2.3,0.1c-1.6,0.1-3.1,0-4.7,0.1
			c-1.6,0-3.1,0-4.7-0.1L6.1,0.7L3.7,0.6L3.7,0.6z"/>
	</g>
</g>
<g>
	<g>
		<defs>
			<rect id="SVGID_13_" x="3.7" y="0.7" width="18.8" height="0.4"/>
		</defs>
		<clipPath id="SVGID_14_">
			<use xlink:href="#SVGID_13_"  overflow="visible"/>
		</clipPath>
		<path clip-path="url(#SVGID_14_)" fill="#B1B5B0" d="M3.7,0.7h18.8v0l-2.3,0.2L17.8,1C16.2,1,14.7,1,13.1,1C11.5,1,10,1,8.4,1
			L6.1,0.9L3.7,0.7L3.7,0.7z"/>
	</g>
</g>
<g>
	<g>
		<defs>
			<rect id="SVGID_15_" x="10.1" y="37.1" width="5.8" height="0.5"/>
		</defs>
		<clipPath id="SVGID_16_">
			<use xlink:href="#SVGID_15_"  overflow="visible"/>
		</clipPath>
		<path clip-path="url(#SVGID_16_)" fill="#E8E9E8" d="M10.1,37.6c0.9-0.3,1.9-0.4,2.9-0.5c0.5,0,1,0,1.5,0.1c0.5,0.1,1,0.2,1.4,0.4
			c-0.5-0.1-1-0.1-1.4-0.1c-0.5,0-1,0-1.4,0C12.1,37.5,11.1,37.6,10.1,37.6"/>
	</g>
</g>
<g>
	<g>
		<defs>
			<rect id="SVGID_17_" x="10.3" y="36.1" width="5.8" height="1.2"/>
		</defs>
		<clipPath id="SVGID_18_">
			<use xlink:href="#SVGID_17_"  overflow="visible"/>
		</clipPath>
		<path clip-path="url(#SVGID_18_)" fill="#E8E9E8" d="M10.3,37.2c0.8-0.7,1.9-1,2.9-1.2c0.5,0,1.1,0,1.6,0.2c0.5,0.2,1,0.5,1.3,1
			c-0.9-0.6-1.8-0.6-2.8-0.5C12.3,36.8,11.3,37.1,10.3,37.2"/>
	</g>
</g>
<g>
	<g>
		<defs>
			<rect id="SVGID_19_" x="11.6" y="38.3" width="3.1" height="0.4"/>
		</defs>
		<clipPath id="SVGID_20_">
			<use xlink:href="#SVGID_19_"  overflow="visible"/>
		</clipPath>
		<path clip-path="url(#SVGID_20_)" fill="#E8E9E8" d="M11.6,38.5c0.5-0.2,1-0.2,1.5-0.2c0.5,0,1,0,1.5,0.2c-0.5,0.2-1,0.2-1.5,0.2
			C12.6,38.7,12.1,38.7,11.6,38.5"/>
	</g>
</g>
<g>
	<g>
		<defs>
			<rect id="SVGID_21_" x="11.9" y="38.8" width="2.5" height="0.4"/>
		</defs>
		<clipPath id="SVGID_22_">
			<use xlink:href="#SVGID_21_"  overflow="visible"/>
		</clipPath>
		<path clip-path="url(#SVGID_22_)" fill="#E8E9E8" d="M11.9,39c0.4-0.2,0.8-0.2,1.2-0.2c0.4,0,0.8,0,1.2,0.2
			c-0.4,0.2-0.8,0.2-1.2,0.2C12.7,39.2,12.3,39.2,11.9,39"/>
	</g>
</g>
<g>
	<g>
		<defs>
			<rect id="SVGID_23_" x="8.1" y="61.8" width="10" height="1.4"/>
		</defs>
		<clipPath id="SVGID_24_">
			<use xlink:href="#SVGID_23_"  overflow="visible"/>
		</clipPath>
		<path clip-path="url(#SVGID_24_)" fill="#E8E9E8" d="M18.2,62.5c-0.1,0.2-0.2,0.2-0.3,0.3c-0.1,0-0.2,0.1-0.3,0.1
			c-0.2,0.1-0.4,0.1-0.6,0.1c-0.4,0.1-0.8,0.1-1.3,0.1c-0.8,0.1-1.7,0.1-2.5,0.1c-0.8,0-1.7,0-2.5-0.1c-0.4,0-0.8-0.1-1.3-0.1
			c-0.2,0-0.4-0.1-0.6-0.1c-0.1,0-0.2-0.1-0.3-0.1c-0.1-0.1-0.2-0.1-0.3-0.3c0-0.2,0.2-0.2,0.3-0.3c0.1,0,0.2-0.1,0.3-0.1
			c0.2-0.1,0.4-0.1,0.6-0.1c0.4-0.1,0.8-0.1,1.3-0.1c0.8-0.1,1.7-0.1,2.5-0.1c0.8,0,1.7,0,2.5,0.1c0.4,0,0.8,0.1,1.3,0.1
			c0.2,0,0.4,0.1,0.6,0.1c0.2,0.1,0.4,0.1,0.5,0.3L18.2,62.5z M18,62.5c-0.1-0.2-0.3-0.2-0.5-0.3c-0.2,0-0.4-0.1-0.6-0.1
			C16.5,62,16,62,15.6,62c-0.8-0.1-1.7-0.1-2.5-0.1c-0.8,0-1.7,0-2.5,0.1c-0.4,0-0.8,0.1-1.2,0.1c-0.2,0-0.4,0.1-0.6,0.1
			c-0.2,0-0.4,0.1-0.5,0.2c0,0.1,0.3,0.2,0.5,0.2c0.2,0.1,0.4,0.1,0.6,0.1c0.4,0.1,0.8,0.1,1.2,0.1c0.8,0.1,1.7,0.1,2.5,0.1
			c0.8,0,1.7,0,2.5-0.1c0.4,0,0.8-0.1,1.2-0.1c0.2,0,0.4-0.1,0.6-0.1c0.2,0,0.4-0.2,0.4-0.2L18,62.5z"/>
	</g>
</g>
<g>
	<g>
		<defs>
			<rect id="SVGID_25_" x="4.7" y="62.7" width="17.1" height="2.1"/>
		</defs>
		<clipPath id="SVGID_26_">
			<use xlink:href="#SVGID_25_"  overflow="visible"/>
		</clipPath>
		<path clip-path="url(#SVGID_26_)" fill="#E8E9E8" d="M21.8,63.8c0,0,0,0,0,0.1c0,0-0.1,0.1-0.1,0.1l-0.1,0.1
			c-0.1,0.1-0.1,0.1-0.2,0.1c-0.1,0.1-0.2,0.1-0.3,0.1c-0.2,0.1-0.4,0.1-0.6,0.1c-0.4,0.1-0.7,0.1-1.1,0.2c-0.7,0.1-1.4,0.1-2.1,0.2
			c-1.4,0.1-2.8,0.1-4.2,0.1c-1.4,0-2.8-0.1-4.2-0.2c-0.7-0.1-1.4-0.1-2.1-0.2c-0.4,0-0.7-0.1-1.1-0.2c-0.2,0-0.4-0.1-0.5-0.1
			c-0.1,0-0.2-0.1-0.3-0.1c0,0-0.1,0-0.1-0.1c0-0.1-0.1-0.1-0.1-0.3c0,0,0,0,0-0.1c0-0.1,0.1-0.1,0.1-0.1c0.1,0,0.1-0.1,0.1-0.1
			c0.1,0,0.2-0.1,0.3-0.1c0.2-0.1,0.4-0.1,0.5-0.1C6.1,63.1,6.5,63,6.8,63c0.7-0.1,1.4-0.1,2.1-0.2c1.4-0.1,2.8-0.1,4.2-0.1
			c1.4,0,2.8,0.1,4.2,0.2c0.7,0.1,1.4,0.1,2.1,0.2c0.3,0,0.7,0.1,1,0.2c0.2,0,0.3,0.1,0.5,0.1c0.2,0.1,0.4,0.1,0.4,0.3L21.8,63.8z
			 M21.5,63.7c-0.1-0.2-0.3-0.2-0.4-0.3c-0.2-0.1-0.3-0.1-0.5-0.1c-0.3-0.1-0.7-0.1-1-0.2c-0.7-0.1-1.4-0.1-2.1-0.2
			c-1.4-0.1-2.8-0.1-4.2-0.1c-1.4,0-2.8,0.1-4.2,0.2c-0.7,0.1-1.4,0.1-2.1,0.2c-0.3,0-0.7,0.1-1,0.2c-0.2,0-0.3,0.1-0.5,0.1
			c-0.1,0-0.3,0.2-0.3,0.1c0-0.1,0-0.1,0-0.1c0,0,0,0,0.1,0c0.1,0,0.1,0.1,0.2,0.1c0.2,0,0.3,0.1,0.5,0.1c0.3,0.1,0.7,0.1,1,0.1
			c0.7,0.1,1.4,0.1,2.1,0.2c1.4,0.1,2.8,0.1,4.2,0.1c1.4,0,2.8-0.1,4.2-0.2c0.7-0.1,1.4-0.1,2.1-0.2c0.3,0,0.7-0.1,1-0.2
			c0.2,0,0.3-0.1,0.5-0.1c0.1,0,0.1-0.1,0.2-0.1c0,0,0,0,0,0c0,0,0,0,0,0c0,0,0,0,0,0.1c0,0.1,0,0,0,0L21.5,63.7z"/>
	</g>
</g>
<g>
	<g>
		<defs>
			<rect id="SVGID_27_" x="0.8" y="64.7" width="24.8" height="2.1"/>
		</defs>
		<clipPath id="SVGID_28_">
			<use xlink:href="#SVGID_27_"  overflow="visible"/>
		</clipPath>
		<path clip-path="url(#SVGID_28_)" fill="#E8E9E8" d="M25.5,64.7c0,0.3-0.3,0.5-0.5,0.6c-0.2,0.1-0.5,0.2-0.7,0.3
			c-0.5,0.2-1,0.4-1.5,0.5c-1.1,0.2-2.1,0.3-3.2,0.4c-2.1,0.2-4.3,0.2-6.4,0.2c-2.1,0-4.3-0.1-6.4-0.2c-1.1-0.1-2.1-0.2-3.2-0.4
			c-0.5-0.1-1-0.3-1.5-0.5c-0.3-0.1-0.5-0.2-0.7-0.3c-0.2-0.1-0.5-0.3-0.5-0.6C0.8,65,1.1,65,1.4,65.1c0.2,0.1,0.5,0.1,0.8,0.2
			c0.5,0.1,1,0.1,1.6,0.1c1,0.2,2.1,0.3,3.1,0.4C8.9,65.9,11,66,13.1,66c2.1,0,4.2-0.1,6.3-0.2c1-0.1,2.1-0.2,3.1-0.4
			c0.5,0,1-0.1,1.6-0.1c0.3,0,0.5-0.1,0.8-0.2C25.1,65,25.4,65,25.5,64.7"/>
	</g>
</g>
<g>
	<g>
		<defs>
			<rect id="SVGID_29_" x="13.3" y="40.5" width="0.5" height="15.1"/>
		</defs>
		<clipPath id="SVGID_30_">
			<use xlink:href="#SVGID_29_"  overflow="visible"/>
		</clipPath>
		<path clip-path="url(#SVGID_30_)" fill="#E8E9E8" d="M13.5,40.5c0.2,2.5,0.2,5,0.3,7.5c0,1.3,0,2.5-0.1,3.8s-0.1,2.5-0.2,3.8
			c-0.1-1.3-0.2-2.5-0.2-3.8s0-2.5-0.1-3.8C13.3,45.5,13.3,43,13.5,40.5"/>
	</g>
</g>
<path fill="#68111E" d="M1.2,19.5c-0.2,8.4,7.1,17,9,17.6c0.3,0.1,0.6,0.3,0.8,0.6h4.4c0.2-0.3,0.5-0.5,0.8-0.6
	c1.9-0.6,9.2-9.3,9-17.6c0-2.2-0.3-4.6-0.6-7H1.7C1.4,14.9,1.2,17.3,1.2,19.5"/>
<g opacity="0.5">
	<g>
		<defs>
			<rect id="SVGID_31_" x="1.2" y="12.5" width="24" height="25.3"/>
		</defs>
		<clipPath id="SVGID_32_">
			<use xlink:href="#SVGID_31_"  overflow="visible"/>
		</clipPath>
		<path clip-path="url(#SVGID_32_)" fill="#68111E" d="M10.8,37.1c-1.5-0.6-7.4-9.3-7.2-17.6c0-2.2,0.2-4.6,0.5-7H1.8
			c-0.3,2.4-0.5,4.8-0.6,7c-0.2,8.4,7.1,17,9,17.6c0.3,0.1,0.6,0.3,0.8,0.6h0.4C11.2,37.5,11,37.3,10.8,37.1"/>
		<path clip-path="url(#SVGID_32_)" fill="#68111E" d="M24.6,12.5h-2.2c0.2,2.4,0.4,4.8,0.5,7c0.1,8.4-5.7,17-7.2,17.6
			c-0.3,0.1-0.5,0.3-0.6,0.6h0.4c0.2-0.3,0.5-0.5,0.8-0.6c1.9-0.6,9.2-9.3,9-17.6C25.1,17.3,24.9,14.9,24.6,12.5"/>
	</g>
</g>
<g opacity="0.25">
	<g>
		<defs>
			<rect id="SVGID_33_" x="14.9" y="3.1" width="5.7" height="31.4"/>
		</defs>
		<clipPath id="SVGID_34_">
			<use xlink:href="#SVGID_33_"  overflow="visible"/>
		</clipPath>
		<path clip-path="url(#SVGID_34_)" fill="#E9E9E9" d="M17.5,3.1c1.2,2.5,1.9,5.2,2.4,7.9c0.5,2.7,0.7,5.4,0.7,8.2
			c-0.1,2.8-0.4,5.5-1.3,8.2c-0.8,2.7-2.2,5.3-4.4,7.1c0.9-2.6,1.3-5.1,1.6-7.7c0.3-2.6,0.4-5.1,0.4-7.7l0.1-7.9
			C17.2,8.5,17.2,5.9,17.5,3.1"/>
	</g>
</g>
</svg>
