<?xml version="1.0" encoding="utf-8"?>
<!-- Generator: Adobe Illustrator 15.0.2, SVG Export Plug-In . SVG Version: 6.00 Build 0)  -->
<!DOCTYPE svg PUBLIC "-//W3C//DTD SVG 1.1//EN" "http://www.w3.org/Graphics/SVG/1.1/DTD/svg11.dtd">
<svg version="1.1" id="Layer_1" xmlns="http://www.w3.org/2000/svg" xmlns:xlink="http://www.w3.org/1999/xlink" x="0px" y="0px"
	 width="50.6px" height="57.4px" viewBox="0 0 50.6 57.4" enable-background="new 0 0 50.6 57.4" xml:space="preserve">
<path fill="#465761" d="M1.2,53.1l2-22c0-11.3,9-20.4,21-20.4h1.7c11.9,0,21,9.1,21,20.4l2,22H1.2z"/>
<g opacity="0.3">
	<g>
		<defs>
			<rect id="SVGID_1_" x="1.5" y="10.7" width="47.1" height="42.4"/>
		</defs>
		<clipPath id="SVGID_2_">
			<use xlink:href="#SVGID_1_"  overflow="visible"/>
		</clipPath>
		<g clip-path="url(#SVGID_2_)">
			<g>
				<defs>
					<rect id="SVGID_3_" x="1.5" y="10.7" width="22.4" height="42.4"/>
				</defs>
				<clipPath id="SVGID_4_">
					<use xlink:href="#SVGID_3_"  overflow="visible"/>
				</clipPath>
				<path clip-path="url(#SVGID_4_)" fill="#465761" d="M16.7,12.2c2.2-1,4.6-1.5,7.2-1.5h-0.1c-11.7,0-20.5,9.1-20.5,20.4l-1.9,22
					h0.7l1.9-22C4.1,22.5,9.2,15.2,16.7,12.2"/>
			</g>
		</g>
		<g clip-path="url(#SVGID_2_)">
			<g>
				<defs>
					<rect id="SVGID_5_" x="3.3" y="10.9" width="18" height="42.2"/>
				</defs>
				<clipPath id="SVGID_6_">
					<use xlink:href="#SVGID_5_"  overflow="visible"/>
				</clipPath>
				<path clip-path="url(#SVGID_6_)" fill="#465761" d="M18.4,11.7c0.9-0.4,1.9-0.7,2.9-0.8c-1.6,0.2-3.2,0.7-4.6,1.3
					c-6.9,3-11.6,10.3-11.6,18.9l-1.8,22H4l1.8-22C5.8,22.1,10.9,14.5,18.4,11.7"/>
			</g>
		</g>
		<g clip-path="url(#SVGID_2_)">
			<g>
				<defs>
					<rect id="SVGID_7_" x="26.2" y="10.7" width="22.4" height="42.4"/>
				</defs>
				<clipPath id="SVGID_8_">
					<use xlink:href="#SVGID_7_"  overflow="visible"/>
				</clipPath>
				<path clip-path="url(#SVGID_8_)" fill="#465761" d="M46.7,31.1c0-11.3-8.8-20.4-20.5-20.4h-0.1c2.6,0,5,0.5,7.2,1.5
					c7.6,3,12.6,10.3,12.6,18.9l1.9,22h0.7L46.7,31.1z"/>
			</g>
		</g>
		<g clip-path="url(#SVGID_2_)">
			<g>
				<defs>
					<rect id="SVGID_9_" x="5.5" y="10.8" width="17.1" height="42.3"/>
				</defs>
				<clipPath id="SVGID_10_">
					<use xlink:href="#SVGID_9_"  overflow="visible"/>
				</clipPath>
				<path clip-path="url(#SVGID_10_)" fill="#465761" d="M21.1,11.1c0.5-0.1,1-0.3,1.5-0.3c-1.4,0.2-2.8,0.5-4.1,1
					C11.7,14.5,7.1,22.1,7.1,31.1l-1.6,22h0.7l1.6-22C7.8,21.3,13.3,13.1,21.1,11.1"/>
			</g>
		</g>
		<g clip-path="url(#SVGID_2_)">
			<g>
				<defs>
					<rect id="SVGID_11_" x="28.7" y="10.9" width="18" height="42.2"/>
				</defs>
				<clipPath id="SVGID_12_">
					<use xlink:href="#SVGID_11_"  overflow="visible"/>
				</clipPath>
				<path clip-path="url(#SVGID_12_)" fill="#465761" d="M33.4,12.2c-1.5-0.6-3-1-4.6-1.3c1,0.2,2,0.5,2.9,0.8
					c7.5,2.7,12.7,10.3,12.7,19.3l1.8,22h0.7l-1.8-22C45,22.5,40.3,15.2,33.4,12.2"/>
			</g>
		</g>
		<g clip-path="url(#SVGID_2_)">
			<g>
				<defs>
					<rect id="SVGID_13_" x="8.6" y="10.7" width="14.8" height="42.4"/>
				</defs>
				<clipPath id="SVGID_14_">
					<use xlink:href="#SVGID_13_"  overflow="visible"/>
				</clipPath>
				<path clip-path="url(#SVGID_14_)" fill="#465761" d="M22.4,10.9c0.3-0.1,0.7-0.2,1-0.2c-0.8,0.1-1.6,0.2-2.4,0.4
					c-6.5,2-11.2,10.1-11.2,19.9l-1.3,22h0.7l1.3-22C10.6,20.9,15.5,12.6,22.4,10.9"/>
			</g>
		</g>
		<g clip-path="url(#SVGID_2_)">
			<g>
				<defs>
					<rect id="SVGID_15_" x="27.5" y="10.8" width="17.1" height="42.3"/>
				</defs>
				<clipPath id="SVGID_16_">
					<use xlink:href="#SVGID_15_"  overflow="visible"/>
				</clipPath>
				<path clip-path="url(#SVGID_16_)" fill="#465761" d="M31.6,11.7c-1.3-0.5-2.7-0.8-4.1-1c0.5,0.1,1,0.2,1.5,0.3
					c7.8,2,13.3,10.1,13.3,19.9l1.6,22h0.7l-1.6-22C43,22.1,38.4,14.5,31.6,11.7"/>
			</g>
		</g>
		<g clip-path="url(#SVGID_2_)">
			<g>
				<defs>
					<rect id="SVGID_17_" x="26.6" y="10.7" width="14.8" height="42.4"/>
				</defs>
				<clipPath id="SVGID_18_">
					<use xlink:href="#SVGID_17_"  overflow="visible"/>
				</clipPath>
				<path clip-path="url(#SVGID_18_)" fill="#465761" d="M29,11.1c-0.8-0.2-1.6-0.3-2.4-0.4c0.4,0,0.7,0.1,1,0.2
					c6.9,1.6,11.8,10,11.8,20.1l1.3,22h0.7l-1.3-22C40.2,21.3,35.5,13.1,29,11.1"/>
			</g>
		</g>
		<g clip-path="url(#SVGID_2_)">
			<g>
				<defs>
					<rect id="SVGID_19_" x="12.3" y="10.7" width="11.7" height="42.4"/>
				</defs>
				<clipPath id="SVGID_20_">
					<use xlink:href="#SVGID_19_"  overflow="visible"/>
				</clipPath>
				<path clip-path="url(#SVGID_20_)" fill="#465761" d="M23.4,10.9c0.2-0.1,0.4-0.1,0.6-0.2c-0.6,0-1.1,0.1-1.6,0.3
					c-5.3,1.6-9,10-9,20.1l-1,22H13l1-22C14,20.7,18,12.2,23.4,10.9"/>
			</g>
		</g>
		<g clip-path="url(#SVGID_2_)">
			<g>
				<defs>
					<rect id="SVGID_21_" x="16.8" y="10.7" width="7.6" height="42.4"/>
				</defs>
				<clipPath id="SVGID_22_">
					<use xlink:href="#SVGID_21_"  overflow="visible"/>
				</clipPath>
				<path clip-path="url(#SVGID_22_)" fill="#465761" d="M24,10.9c0.1-0.1,0.2-0.2,0.4-0.2c-0.3,0-0.6,0.1-0.9,0.2
					c-3.5,1.3-6,9.9-6,20.2l-0.7,22h0.7l0.7-22C18.1,20.9,20.6,12.4,24,10.9"/>
			</g>
		</g>
		<g clip-path="url(#SVGID_2_)">
			<g>
				<defs>
					<rect id="SVGID_23_" x="26.1" y="10.7" width="11.7" height="42.4"/>
				</defs>
				<clipPath id="SVGID_24_">
					<use xlink:href="#SVGID_23_"  overflow="visible"/>
				</clipPath>
				<path clip-path="url(#SVGID_24_)" fill="#465761" d="M27.7,10.9c-0.5-0.1-1.1-0.2-1.6-0.3c0.2,0,0.4,0.1,0.6,0.2
					c5.4,1.3,9.4,9.9,9.4,20.2l1,22h0.7l-1-22C36.7,20.9,32.9,12.6,27.7,10.9"/>
			</g>
		</g>
		<g clip-path="url(#SVGID_2_)">
			<g>
				<defs>
					<rect id="SVGID_25_" x="20.7" y="10.7" width="3.9" height="42.4"/>
				</defs>
				<clipPath id="SVGID_26_">
					<use xlink:href="#SVGID_25_"  overflow="visible"/>
				</clipPath>
				<path clip-path="url(#SVGID_26_)" fill="#465761" d="M24.6,11c0-0.1,0-0.2,0-0.3c-0.2,0-0.4,0.1-0.7,0.2
					c-1.7,1.5-2.9,10-2.9,20.2l-0.3,22h0.7l0.3-22C21.8,21,22.9,12.6,24.6,11"/>
			</g>
		</g>
		<g clip-path="url(#SVGID_2_)">
			<g>
				<defs>
					<rect id="SVGID_27_" x="25.7" y="10.7" width="7.6" height="42.4"/>
				</defs>
				<clipPath id="SVGID_28_">
					<use xlink:href="#SVGID_27_"  overflow="visible"/>
				</clipPath>
				<path clip-path="url(#SVGID_28_)" fill="#465761" d="M26.6,10.9c-0.3-0.1-0.6-0.1-0.9-0.2c0.1,0,0.2,0.1,0.4,0.2
					c3.4,1.5,5.9,10,5.9,20.2l0.7,22h0.7l-0.7-22C32.6,20.7,30.1,12.2,26.6,10.9"/>
			</g>
		</g>
		<g clip-path="url(#SVGID_2_)">
			<g>
				<defs>
					<rect id="SVGID_29_" x="25.4" y="10.7" width="3.9" height="42.4"/>
				</defs>
				<clipPath id="SVGID_30_">
					<use xlink:href="#SVGID_29_"  overflow="visible"/>
				</clipPath>
				<path clip-path="url(#SVGID_30_)" fill="#465761" d="M26.1,10.9c-0.2-0.1-0.4-0.2-0.7-0.2c0,0,0,0.1,0,0.3
					c1.7,1.7,2.9,10,2.9,20.1l0.3,22h0.7l-0.3-22C29,20.9,27.8,12.4,26.1,10.9"/>
			</g>
		</g>
		<g clip-path="url(#SVGID_2_)">
			<g>
				<defs>
					<rect id="SVGID_31_" x="24.7" y="10.7" width="0.6" height="42.4"/>
				</defs>
				<clipPath id="SVGID_32_">
					<use xlink:href="#SVGID_31_"  overflow="visible"/>
				</clipPath>
				<path clip-path="url(#SVGID_32_)" fill="#465761" d="M25.3,10.9c-0.1-0.1-0.2-0.1-0.3-0.2c-0.1,0-0.2,0.1-0.3,0.2
					c0.1,1.4,0.2,9.9,0.2,20.2l0,22h0.1l0-22C25.1,20.8,25.2,12.3,25.3,10.9"/>
			</g>
		</g>
		<g clip-path="url(#SVGID_2_)">
			<g>
				<defs>
					<rect id="SVGID_33_" x="24.4" y="10.9" width="0.6" height="42.2"/>
				</defs>
				<clipPath id="SVGID_34_">
					<use xlink:href="#SVGID_33_"  overflow="visible"/>
				</clipPath>
				<path clip-path="url(#SVGID_34_)" fill="#465761" d="M24.7,10.9c0,0-0.1,0.1-0.1,0.1c-0.1,1.7-0.2,10-0.2,20.1l0,22H25l0-22
					C25,20.8,24.9,12.3,24.7,10.9"/>
			</g>
		</g>
		<g clip-path="url(#SVGID_2_)">
			<g>
				<defs>
					<rect id="SVGID_35_" x="25.1" y="10.9" width="0.6" height="42.2"/>
				</defs>
				<clipPath id="SVGID_36_">
					<use xlink:href="#SVGID_35_"  overflow="visible"/>
				</clipPath>
				<path clip-path="url(#SVGID_36_)" fill="#465761" d="M25.4,11c0,0-0.1-0.1-0.1-0.1c-0.1,1.4-0.2,9.9-0.2,20.2l0,22h0.6l0-22
					C25.7,21,25.6,12.6,25.4,11"/>
			</g>
		</g>
	</g>
</g>
<line fill="none" stroke="#D6543B" stroke-width="1.363" stroke-linecap="round" stroke-miterlimit="10" x1="25" y1="9.2" x2="25" y2="0.7"/>
<line fill="none" stroke="#D6543B" stroke-width="1.363" stroke-linecap="round" stroke-miterlimit="10" x1="25" y1="9.2" x2="23.5" y2="0.8"/>
<line fill="none" stroke="#D6543B" stroke-width="1.363" stroke-linecap="round" stroke-miterlimit="10" x1="25" y1="9.2" x2="22.1" y2="1.2"/>
<line fill="none" stroke="#D6543B" stroke-width="1.363" stroke-linecap="round" stroke-miterlimit="10" x1="25" y1="9.2" x2="20.8" y2="1.8"/>
<line fill="none" stroke="#D6543B" stroke-width="1.363" stroke-linecap="round" stroke-miterlimit="10" x1="25" y1="9.2" x2="19.5" y2="2.7"/>
<line fill="none" stroke="#D6543B" stroke-width="1.363" stroke-linecap="round" stroke-miterlimit="10" x1="25" y1="9.2" x2="18.5" y2="3.7"/>
<line fill="none" stroke="#D6543B" stroke-width="1.363" stroke-linecap="round" stroke-miterlimit="10" x1="25" y1="9.2" x2="17.6" y2="4.9"/>
<line fill="none" stroke="#D6543B" stroke-width="1.363" stroke-linecap="round" stroke-miterlimit="10" x1="25" y1="9.2" x2="17" y2="6.3"/>
<line fill="none" stroke="#D6543B" stroke-width="1.363" stroke-linecap="round" stroke-miterlimit="10" x1="25" y1="9.2" x2="16.6" y2="7.7"/>
<line fill="none" stroke="#D6543B" stroke-width="1.363" stroke-linecap="round" stroke-miterlimit="10" x1="25" y1="9.2" x2="16.5" y2="9.2"/>
<line fill="none" stroke="#D6543B" stroke-width="1.363" stroke-linecap="round" stroke-miterlimit="10" x1="25" y1="9.2" x2="16.6" y2="10.7"/>
<line fill="none" stroke="#D6543B" stroke-width="1.363" stroke-linecap="round" stroke-miterlimit="10" x1="25" y1="9.2" x2="17" y2="12.1"/>
<line fill="none" stroke="#D6543B" stroke-width="1.363" stroke-linecap="round" stroke-miterlimit="10" x1="25" y1="9.2" x2="17.6" y2="13.5"/>
<line fill="none" stroke="#D6543B" stroke-width="1.363" stroke-linecap="round" stroke-miterlimit="10" x1="25" y1="9.2" x2="18.5" y2="14.7"/>
<line fill="none" stroke="#D6543B" stroke-width="1.363" stroke-linecap="round" stroke-miterlimit="10" x1="25" y1="9.2" x2="19.5" y2="15.8"/>
<line fill="none" stroke="#D6543B" stroke-width="1.363" stroke-linecap="round" stroke-miterlimit="10" x1="25" y1="9.2" x2="20.8" y2="16.6"/>
<line fill="none" stroke="#D6543B" stroke-width="1.363" stroke-linecap="round" stroke-miterlimit="10" x1="25" y1="9.2" x2="22.1" y2="17.2"/>
<line fill="none" stroke="#D6543B" stroke-width="1.363" stroke-linecap="round" stroke-miterlimit="10" x1="25" y1="9.2" x2="23.5" y2="17.6"/>
<line fill="none" stroke="#D6543B" stroke-width="1.363" stroke-linecap="round" stroke-miterlimit="10" x1="25" y1="9.2" x2="25" y2="17.7"/>
<line fill="none" stroke="#D6543B" stroke-width="1.363" stroke-linecap="round" stroke-miterlimit="10" x1="25" y1="9.2" x2="26.5" y2="17.6"/>
<line fill="none" stroke="#D6543B" stroke-width="1.363" stroke-linecap="round" stroke-miterlimit="10" x1="25" y1="9.2" x2="27.9" y2="17.2"/>
<line fill="none" stroke="#D6543B" stroke-width="1.363" stroke-linecap="round" stroke-miterlimit="10" x1="25" y1="9.2" x2="29.3" y2="16.6"/>
<line fill="none" stroke="#D6543B" stroke-width="1.363" stroke-linecap="round" stroke-miterlimit="10" x1="25" y1="9.2" x2="30.5" y2="15.8"/>
<line fill="none" stroke="#D6543B" stroke-width="1.363" stroke-linecap="round" stroke-miterlimit="10" x1="25" y1="9.2" x2="31.6" y2="14.7"/>
<line fill="none" stroke="#D6543B" stroke-width="1.363" stroke-linecap="round" stroke-miterlimit="10" x1="25" y1="9.2" x2="32.4" y2="13.5"/>
<line fill="none" stroke="#D6543B" stroke-width="1.363" stroke-linecap="round" stroke-miterlimit="10" x1="25" y1="9.2" x2="33" y2="12.1"/>
<line fill="none" stroke="#D6543B" stroke-width="1.363" stroke-linecap="round" stroke-miterlimit="10" x1="25" y1="9.2" x2="33.4" y2="10.7"/>
<line fill="none" stroke="#D6543B" stroke-width="1.363" stroke-linecap="round" stroke-miterlimit="10" x1="25" y1="9.2" x2="33.6" y2="9.2"/>
<line fill="none" stroke="#D6543B" stroke-width="1.363" stroke-linecap="round" stroke-miterlimit="10" x1="25" y1="9.2" x2="33.4" y2="7.7"/>
<line fill="none" stroke="#D6543B" stroke-width="1.363" stroke-linecap="round" stroke-miterlimit="10" x1="25" y1="9.2" x2="33" y2="6.3"/>
<line fill="none" stroke="#D6543B" stroke-width="1.363" stroke-linecap="round" stroke-miterlimit="10" x1="25" y1="9.2" x2="32.4" y2="4.9"/>
<line fill="none" stroke="#D6543B" stroke-width="1.363" stroke-linecap="round" stroke-miterlimit="10" x1="25" y1="9.2" x2="31.6" y2="3.7"/>
<line fill="none" stroke="#D6543B" stroke-width="1.363" stroke-linecap="round" stroke-miterlimit="10" x1="25" y1="9.2" x2="30.5" y2="2.7"/>
<line fill="none" stroke="#D6543B" stroke-width="1.363" stroke-linecap="round" stroke-miterlimit="10" x1="25" y1="9.2" x2="29.3" y2="1.8"/>
<line fill="none" stroke="#D6543B" stroke-width="1.363" stroke-linecap="round" stroke-miterlimit="10" x1="25" y1="9.2" x2="27.9" y2="1.2"/>
<line fill="none" stroke="#D6543B" stroke-width="1.363" stroke-linecap="round" stroke-miterlimit="10" x1="25" y1="9.2" x2="26.5" y2="0.8"/>
<path fill="#465761" d="M49.1,44.6H1.5c-0.8,0-1.4,0.6-1.4,1.3v6.2v2v1.1c0,1.1,1,2,2.2,2h46.2c1.2,0,2.2-0.9,2.2-2V54v-2v-6.2
	C50.6,45.2,49.9,44.6,49.1,44.6"/>
<path fill="#465761" d="M1.1,56.4c0,0.6-0.3,1-0.6,1c-0.3,0-0.6-0.5-0.6-1V45.3c0-0.6,0.3-1,0.6-1c0.3,0,0.6,0.5,0.6,1V56.4z
	 M5.3,45.3c0-0.6-0.5-1-1.1-1c-0.6,0-1.1,0.5-1.1,1v11.1c0,0.6,0.5,1,1.1,1c0.6,0,1.1-0.5,1.1-1V45.3z M10,45.3c0-0.6-0.5-1-1.1-1
	c-0.6,0-1.1,0.5-1.1,1v11.1c0,0.6,0.5,1,1.1,1c0.6,0,1.1-0.5,1.1-1V45.3z M14.7,45.3c0-0.6-0.5-1-1.1-1c-0.6,0-1.1,0.5-1.1,1v11.1
	c0,0.6,0.5,1,1.1,1c0.6,0,1.1-0.5,1.1-1V45.3z M19.4,45.3c0-0.6-0.5-1-1.1-1c-0.6,0-1.1,0.5-1.1,1v11.1c0,0.6,0.5,1,1.1,1
	c0.6,0,1.1-0.5,1.1-1V45.3z M24.1,45.3c0-0.6-0.5-1-1.1-1c-0.6,0-1.1,0.5-1.1,1v11.1c0,0.6,0.5,1,1.1,1c0.6,0,1.1-0.5,1.1-1V45.3z
	 M28.8,45.3c0-0.6-0.5-1-1.1-1c-0.6,0-1.1,0.5-1.1,1v11.1c0,0.6,0.5,1,1.1,1c0.6,0,1.1-0.5,1.1-1V45.3z M33.5,45.3
	c0-0.6-0.5-1-1.1-1c-0.6,0-1.1,0.5-1.1,1v11.1c0,0.6,0.5,1,1.1,1c0.6,0,1.1-0.5,1.1-1V45.3z M38.2,45.3c0-0.6-0.5-1-1.1-1
	c-0.6,0-1.1,0.5-1.1,1v11.1c0,0.6,0.5,1,1.1,1c0.6,0,1.1-0.5,1.1-1V45.3z M42.9,45.3c0-0.6-0.5-1-1.1-1c-0.6,0-1.1,0.5-1.1,1v11.1
	c0,0.6,0.5,1,1.1,1c0.6,0,1.1-0.5,1.1-1V45.3z M47.6,45.3c0-0.6-0.5-1-1.1-1c-0.6,0-1.1,0.5-1.1,1v11.1c0,0.6,0.5,1,1.1,1
	c0.6,0,1.1-0.5,1.1-1V45.3z M50.6,45.3c0-0.6-0.3-1-0.6-1c-0.3,0-0.6,0.5-0.6,1v11.1c0,0.6,0.3,1,0.6,1c0.3,0,0.6-0.5,0.6-1V45.3z"
	/>
<g opacity="0.5">
	<g>
		<defs>
			<rect id="SVGID_37_" y="44.3" width="50.3" height="13.1"/>
		</defs>
		<clipPath id="SVGID_38_">
			<use xlink:href="#SVGID_37_"  overflow="visible"/>
		</clipPath>
		<path clip-path="url(#SVGID_38_)" fill="#465761" d="M8.3,56.4V45.3c0-0.5,0.4-0.9,0.8-1c-0.1,0-0.2,0-0.3,0c-0.6,0-1.1,0.5-1.1,1
			v11.1c0,0.6,0.5,1,1.1,1c0.1,0,0.2,0,0.3,0C8.6,57.3,8.3,56.9,8.3,56.4"/>
		<path clip-path="url(#SVGID_38_)" fill="#465761" d="M17.7,56.4V45.3c0-0.5,0.4-0.9,0.8-1c-0.1,0-0.2,0-0.3,0
			c-0.6,0-1.1,0.5-1.1,1v11.1c0,0.6,0.5,1,1.1,1c0.1,0,0.2,0,0.3,0C18,57.3,17.7,56.9,17.7,56.4"/>
		<path clip-path="url(#SVGID_38_)" fill="#465761" d="M3.6,56.4V45.3c0-0.5,0.4-0.9,0.8-1c-0.1,0-0.2,0-0.3,0c-0.6,0-1.1,0.5-1.1,1
			v11.1c0,0.6,0.5,1,1.1,1c0.1,0,0.2,0,0.3,0C3.9,57.3,3.6,56.9,3.6,56.4"/>
		<path clip-path="url(#SVGID_38_)" fill="#465761" d="M0.6,56.4V45.3c0-0.4,0.1-0.7,0.3-0.9c-0.1-0.1-0.2-0.1-0.3-0.1
			c-0.3,0-0.6,0.5-0.6,1v11.1c0,0.6,0.3,1,0.6,1c0.1,0,0.2-0.1,0.3-0.1C0.7,57.1,0.6,56.8,0.6,56.4"/>
		<path clip-path="url(#SVGID_38_)" fill="#465761" d="M22.4,56.4V45.3c0-0.5,0.4-0.9,0.8-1c-0.1,0-0.2,0-0.3,0
			c-0.6,0-1.1,0.5-1.1,1v11.1c0,0.6,0.5,1,1.1,1c0.1,0,0.2,0,0.3,0C22.7,57.3,22.4,56.9,22.4,56.4"/>
		<path clip-path="url(#SVGID_38_)" fill="#465761" d="M13,56.4V45.3c0-0.5,0.4-0.9,0.8-1c-0.1,0-0.2,0-0.3,0c-0.6,0-1.1,0.5-1.1,1
			v11.1c0,0.6,0.5,1,1.1,1c0.1,0,0.2,0,0.3,0C13.3,57.3,13,56.9,13,56.4"/>
		<path clip-path="url(#SVGID_38_)" fill="#465761" d="M27.1,56.4V45.3c0-0.5,0.4-0.9,0.8-1c-0.1,0-0.2,0-0.3,0
			c-0.6,0-1.1,0.5-1.1,1v11.1c0,0.6,0.5,1,1.1,1c0.1,0,0.2,0,0.3,0C27.4,57.3,27.1,56.9,27.1,56.4"/>
		<path clip-path="url(#SVGID_38_)" fill="#465761" d="M41.2,56.4V45.3c0-0.5,0.4-0.9,0.8-1c-0.1,0-0.2,0-0.3,0
			c-0.6,0-1.1,0.5-1.1,1v11.1c0,0.6,0.5,1,1.1,1c0.1,0,0.2,0,0.3,0C41.6,57.3,41.2,56.9,41.2,56.4"/>
		<path clip-path="url(#SVGID_38_)" fill="#465761" d="M50,56.4V45.3c0-0.4,0.1-0.7,0.3-0.9c-0.1-0.1-0.2-0.1-0.3-0.1
			c-0.3,0-0.6,0.5-0.6,1v11.1c0,0.6,0.3,1,0.6,1c0.1,0,0.2-0.1,0.3-0.1C50.1,57.1,50,56.8,50,56.4"/>
		<path clip-path="url(#SVGID_38_)" fill="#465761" d="M45.9,56.4V45.3c0-0.5,0.4-0.9,0.8-1c-0.1,0-0.2,0-0.3,0
			c-0.6,0-1.1,0.5-1.1,1v11.1c0,0.6,0.5,1,1.1,1c0.1,0,0.2,0,0.3,0C46.3,57.3,45.9,56.9,45.9,56.4"/>
		<path clip-path="url(#SVGID_38_)" fill="#465761" d="M36.5,56.4V45.3c0-0.5,0.4-0.9,0.8-1c-0.1,0-0.2,0-0.3,0
			c-0.6,0-1.1,0.5-1.1,1v11.1c0,0.6,0.5,1,1.1,1c0.1,0,0.2,0,0.3,0C36.9,57.3,36.5,56.9,36.5,56.4"/>
		<path clip-path="url(#SVGID_38_)" fill="#465761" d="M31.8,56.4V45.3c0-0.5,0.4-0.9,0.8-1c-0.1,0-0.2,0-0.3,0
			c-0.6,0-1.1,0.5-1.1,1v11.1c0,0.6,0.5,1,1.1,1c0.1,0,0.2,0,0.3,0C32.1,57.3,31.8,56.9,31.8,56.4"/>
	</g>
</g>
<g>
	<g>
		<defs>
			<rect id="SVGID_39_" x="1.5" y="44.5" width="47.6" height="0.7"/>
		</defs>
		<clipPath id="SVGID_40_">
			<use xlink:href="#SVGID_39_"  overflow="visible"/>
		</clipPath>
		<path clip-path="url(#SVGID_40_)" fill="#465761" d="M1.5,44.5l23.8,0l23.8,0v0.1l-6,0.3l-5.9,0.2c-4,0.1-7.9,0.1-11.9,0.1
			c-4,0-7.9,0-11.9-0.1l-6-0.2L1.5,44.5L1.5,44.5z"/>
	</g>
</g>
</svg>
