<?xml version="1.0" encoding="utf-8"?>
<!-- Generator: Adobe Illustrator 15.0.2, SVG Export Plug-In . SVG Version: 6.00 Build 0)  -->
<!DOCTYPE svg PUBLIC "-//W3C//DTD SVG 1.1//EN" "http://www.w3.org/Graphics/SVG/1.1/DTD/svg11.dtd">
<svg version="1.1" id="Layer_1" xmlns="http://www.w3.org/2000/svg" xmlns:xlink="http://www.w3.org/1999/xlink" x="0px" y="0px"
	 width="61.1px" height="64px" viewBox="0 0 61.1 64" enable-background="new 0 0 61.1 64" xml:space="preserve">
<polygon fill="#C82257" points="18.7,20.3 16,16.3 20.8,16.9 "/>
<polygon fill="#76909F" points="16.6,23.9 13.8,19.9 18.7,20.5 "/>
<polygon fill="#E5952E" points="14.4,27.6 11.6,23.6 16.4,24.2 "/>
<path fill="#D3D2D2" d="M30.8,0.3C30.8,0.2,31,0,31.1,0c0.2,0,0.3,0.1,0.3,0.3v48.5c0,0.2-0.1,0.3-0.3,0.3c-0.2,0-0.3-0.1-0.3-0.3
	V0.3z"/>
<path fill="#72583C" d="M10,60c0,0.1-0.7,0.2-1.5,0.2C7.7,60.2,7,60.1,7,60c0-0.1,0.7-0.2,1.5-0.2C9.3,59.8,10,59.9,10,60"/>
<path fill="#72583C" d="M8,59.3c0,0.3-0.1,0.5-0.2,0.5c-0.1,0-0.2-0.2-0.2-0.5c0-0.3,0.1-0.5,0.2-0.5C7.9,58.7,8,59,8,59.3"/>
<path fill="#72583C" d="M8,60.7c0,0.3-0.1,0.5-0.2,0.5c-0.1,0-0.2-0.2-0.2-0.5c0-0.3,0.1-0.5,0.2-0.5C7.9,60.2,8,60.4,8,60.7"/>
<path fill="#00587E" d="M6.7,57.6v0.9h0.6c0.4,0,1.2,0.2,1.2,0.7c0,0.6-0.2,0.7-0.2,0.7v0.4c0,0,0.5-0.1,0.5,0.8c0,0.9-0.9,1-0.9,1
	H7v1.7C7,64.1,7.9,64,7.9,64s4.5-0.1,15.5-0.1c11-0.1,22.4-4.5,25.9-6c0.5-0.2,0.9-0.5,1.2-0.8H5.2L6.7,57.6z"/>
<path fill="#F3EFD9" d="M54,51.2H0.1l0,0c0.1,0,0.2,0,0.4,0.1C3.4,51.8,2.5,56,2.5,56l0,0l0,0.1l2.7,1h45.2C53,55,54,51.2,54,51.2"
	/>
<g>
	<g>
		<defs>
			<rect id="SVGID_1_" x="2.5" y="56" width="49.1" height="1.1"/>
		</defs>
		<clipPath id="SVGID_2_">
			<use xlink:href="#SVGID_1_"  overflow="visible"/>
		</clipPath>
		<path clip-path="url(#SVGID_2_)" fill="#F3EFD9" d="M51.6,56h-49c0,0,0,0,0,0l0,0l0,0.1l2.7,1h45.2C50.9,56.8,51.2,56.4,51.6,56"
			/>
	</g>
</g>
<g opacity="0.6">
	<g>
		<defs>
			<rect id="SVGID_3_" x="6.4" y="57.1" width="31.6" height="4.2"/>
		</defs>
		<clipPath id="SVGID_4_">
			<use xlink:href="#SVGID_3_"  overflow="visible"/>
		</clipPath>
		<path clip-path="url(#SVGID_4_)" fill="#00587E" d="M38,58.6c-15.6,1.3-24.4-0.8-27-1.5H6.4C21.6,65.6,38,58.6,38,58.6"/>
	</g>
</g>
<g>
	<g>
		<defs>
			<rect id="SVGID_5_" x="2.5" y="53.6" width="22" height="2.5"/>
		</defs>
		<clipPath id="SVGID_6_">
			<use xlink:href="#SVGID_5_"  overflow="visible"/>
		</clipPath>
		<polygon clip-path="url(#SVGID_6_)" fill="#F3EFD9" points="2.5,56.1 2.5,56.1 2.5,56 		"/>
		<path clip-path="url(#SVGID_6_)" fill="#F3EFD9" d="M2.5,53.6c0.2,1.2,0,2.5,0,2.5h22C16.7,56.1,8,54.6,2.5,53.6"/>
	</g>
</g>
<path fill="#F3EFD9" d="M0.4,51.2c-0.1,0-0.3,0-0.4-0.1l1.1,2.2L2.5,56l0,0C2.5,56,3.4,51.8,0.4,51.2"/>
<g>
	<g>
		<defs>
			<rect id="SVGID_7_" x="0.1" y="51.2" width="2.6" height="4.9"/>
		</defs>
		<clipPath id="SVGID_8_">
			<use xlink:href="#SVGID_7_"  overflow="visible"/>
		</clipPath>
		<path clip-path="url(#SVGID_8_)" fill="#F3EFD9" d="M2.5,56L2.5,56L2.5,56c0.1-0.5,0.1-1,0.1-1.5c0-0.5-0.1-1-0.3-1.5
			c-0.2-0.5-0.4-0.9-0.8-1.2c-0.4-0.3-0.9-0.5-1.4-0.6c0.5,0,1,0.1,1.5,0.5c0.4,0.3,0.7,0.8,0.9,1.3C2.8,53.9,2.8,55,2.5,56L2.5,56
			L2.5,56L2.5,56z"/>
	</g>
</g>
<path fill="#00587E" d="M6.4,57.7l0.5,5.7c0,0-0.4,0.2-0.4,0.6H4.2c0,0-0.5,0.1-0.5-0.6v-5.9c0,0,0.2-0.5,0.8-0.4
	C5,57.2,6.4,57.7,6.4,57.7"/>
<path fill="#00587E" d="M7.6,63.8c0,0.1-0.1,0.2-0.2,0.2H6.7c-0.1,0-0.2-0.1-0.2-0.2c0-0.1,0.1-0.2,0.2-0.2h0.7
	C7.5,63.7,7.6,63.7,7.6,63.8"/>
<path fill="#00587E" d="M7.2,57.7c0,0.1-0.1,0.2-0.2,0.2H6.3c-0.1,0-0.2-0.1-0.2-0.2s0.1-0.2,0.2-0.2H7C7.1,57.6,7.2,57.7,7.2,57.7"
	/>
<path fill="#00587E" d="M51.6,51.2H10.1c0.1,0.4,0.5,0.6,0.8,0.6h39.8C51.1,51.8,51.4,51.5,51.6,51.2"/>
<polygon fill="#DDBF9A" points="41.3,51.2 39.6,47.8 19.9,47.8 19,48.7 19.7,48.7 18.4,50.5 12.4,50.5 12.1,51.2 "/>
<path fill="#9E7E64" d="M39.9,47.6c0,0.1-0.1,0.2-0.2,0.2H20c-0.1,0-0.2-0.1-0.2-0.2c0-0.1,0.1-0.2,0.2-0.2h19.7
	C39.8,47.3,39.9,47.5,39.9,47.6"/>
<path fill="#C4D5DD" d="M24.4,49.4c0,0.4-0.4,0.8-0.8,0.8s-0.8-0.4-0.8-0.8c0-0.4,0.4-0.8,0.8-0.8S24.4,48.9,24.4,49.4"/>
<circle fill="none" stroke="#9E7E64" stroke-width="0.303" stroke-miterlimit="10" cx="23.6" cy="49.4" r="0.8"/>
<g>
	<g>
		<defs>
			<rect id="SVGID_9_" x="23" y="48.8" width="1.1" height="0.8"/>
		</defs>
		<clipPath id="SVGID_10_">
			<use xlink:href="#SVGID_9_"  overflow="visible"/>
		</clipPath>
		<path clip-path="url(#SVGID_10_)" fill="#1498C3" d="M23.6,49.1c0.3,0,0.5,0.2,0.5,0.4c0-0.1,0-0.1,0-0.2c0-0.3-0.3-0.6-0.6-0.6
			c-0.3,0-0.6,0.3-0.6,0.6c0,0.1,0,0.1,0,0.2C23.1,49.3,23.3,49.1,23.6,49.1"/>
	</g>
</g>
<path fill="#C4D5DD" d="M29.6,49.4c0,0.4-0.4,0.8-0.8,0.8c-0.4,0-0.8-0.4-0.8-0.8c0-0.4,0.4-0.8,0.8-0.8
	C29.3,48.6,29.6,48.9,29.6,49.4"/>
<circle fill="none" stroke="#9E7E64" stroke-width="0.303" stroke-miterlimit="10" cx="28.9" cy="49.4" r="0.8"/>
<g>
	<g>
		<defs>
			<rect id="SVGID_11_" x="28.3" y="48.8" width="1.2" height="0.8"/>
		</defs>
		<clipPath id="SVGID_12_">
			<use xlink:href="#SVGID_11_"  overflow="visible"/>
		</clipPath>
		<path clip-path="url(#SVGID_12_)" fill="#1498C3" d="M28.9,49.1c0.3,0,0.5,0.2,0.5,0.4c0-0.1,0-0.1,0-0.2c0-0.3-0.3-0.6-0.6-0.6
			c-0.3,0-0.6,0.3-0.6,0.6c0,0.1,0,0.1,0,0.2C28.4,49.3,28.6,49.1,28.9,49.1"/>
	</g>
</g>
<path fill="#C4D5DD" d="M34.9,49.4c0,0.4-0.4,0.8-0.8,0.8c-0.4,0-0.8-0.4-0.8-0.8c0-0.4,0.4-0.8,0.8-0.8
	C34.6,48.6,34.9,48.9,34.9,49.4"/>
<circle fill="none" stroke="#9E7E64" stroke-width="0.303" stroke-miterlimit="10" cx="34.1" cy="49.4" r="0.8"/>
<g>
	<g>
		<defs>
			<rect id="SVGID_13_" x="33.5" y="48.8" width="1.1" height="0.8"/>
		</defs>
		<clipPath id="SVGID_14_">
			<use xlink:href="#SVGID_13_"  overflow="visible"/>
		</clipPath>
		<path clip-path="url(#SVGID_14_)" fill="#1498C3" d="M34.1,49.1c0.3,0,0.5,0.2,0.5,0.4c0-0.1,0-0.1,0-0.2c0-0.3-0.3-0.6-0.6-0.6
			s-0.6,0.3-0.6,0.6c0,0.1,0,0.1,0,0.2C33.7,49.3,33.9,49.1,34.1,49.1"/>
	</g>
</g>
<path fill="#9E7E64" d="M61.1,51.3c0,0.1-0.1,0.2-0.2,0.2h-8c-0.1,0-0.2-0.1-0.2-0.2s0.1-0.2,0.2-0.2h8C61,51.2,61.1,51.2,61.1,51.3
	"/>
<line fill="none" stroke="#252A26" stroke-width="0.155" stroke-miterlimit="10" x1="60.9" y1="51.5" x2="51.6" y2="56"/>
<polygon fill="#E9E9E9" points="30.8,0 30.8,43.4 9.4,43.4 "/>
<polygon fill="#E9E9E9" points="31.4,11.9 31.4,44.9 46.7,47.3 "/>
<polygon fill="#E9E9E9" points="31.4,0 54.1,46 44.8,43 31.4,11.9 "/>
<line fill="none" stroke="#252A26" stroke-width="0.155" stroke-miterlimit="10" x1="31.1" y1="0" x2="0.1" y2="51.2"/>
<path fill="#D3D2D2" d="M30.8,43.9c0,0.3-0.2,0.5-0.5,0.5H9c-0.3,0-0.5-0.2-0.5-0.5s0.2-0.5,0.5-0.5h21.4
	C30.6,43.4,30.8,43.6,30.8,43.9"/>
<line fill="none" stroke="#252A26" stroke-width="0.155" stroke-miterlimit="10" x1="54.1" y1="46" x2="56.9" y2="51.3"/>
</svg>
