<svg xmlns="http://www.w3.org/2000/svg" xmlns:xlink="http://www.w3.org/1999/xlink" width="24" height="62.7" viewBox="0 0 24 62.7"><path fill="#B52126" d="M13.2 0H10.8l-.6 4H13.8"/><path fill="#FCF6F6" d="M12 2.2c0 .7-.3 1.2-.7 1.2-.4 0-.7-.5-.7-1.2S11 1 11.3 1c.4 0 .7.5.7 1.2"/><path fill="#231F20" d="M11.7 2.2c0 .2-.1.3-.2.3s-.2-.1-.2-.3c0-.2.1-.3.2-.3.1-.1.2.1.2.3"/><path fill="#B52126" d="M11.1 4h1.8v1.1h-1.8z"/><path fill="#9A1C1F" d="M11.1 4h1.8v.2h-1.8z"/><path fill="#E3E4E3" d="M6.7 6.1h10.7v1H6.7z"/><path fill="#A1A6A1" d="M6.7 6.4h10.7v.2H6.7z"/><path fill="#B1B5B0" d="M21.5 14.1c0 1.6-1.3 2.9-2.9 2.9h-13c-1.6 0-2.9-1.3-2.9-2.9V9.9C2.5 8.3 3.9 7 5.5 7h13c1.6 0 2.9 1.3 2.9 2.9v4.2z"/><path fill="#BDC1BD" d="M20.3 14.1c0 1.6-1.2 2.9-2.6 2.9H6.3c-1.4 0-2.6-1.3-2.6-2.9V9.9C3.7 8.3 4.8 7 6.3 7h11.5c1.4 0 2.6 1.3 2.6 2.9v4.2z"/><path fill="#CACDCA" d="M19.2 14.1c0 1.6-1 2.9-2.2 2.9H7c-1.2 0-2.2-1.3-2.2-2.9V9.9C4.8 8.3 5.8 7 7 7h10c1.2 0 2.2 1.3 2.2 2.9v4.2z"/><path fill="#D6D8D6" d="M18.1 14.1c0 1.6-.8 2.9-1.9 2.9H7.8c-1 0-1.9-1.3-1.9-2.9V9.9c0-1.6.9-2.9 1.9-2.9h8.4c1 0 1.9 1.3 1.9 2.9v4.2z"/><path fill="#E3E4E3" d="M17 14.1c0 1.6-.7 2.9-1.5 2.9H8.6c-.8 0-1.5-1.3-1.5-2.9V9.9c0-1.6.6-2.9 1.5-2.9h6.8c.9 0 1.6 1.3 1.6 2.9v4.2z"/><path fill="#E3E4E3" d="M.7 14.1h22.6v47.4H.7z"/><path fill="#E7EAE9" d="M1.3 14.1h21.5v47.4H1.3z"/><path fill="#EBEFEF" d="M1.8 14.1h20.4v47.4H1.8z"/><path fill="#EFF4F6" d="M2.4 14.1h19.2v47.4H2.4z"/><path fill="#F3FAFC" d="M2.9 14.1H21v47.4H2.9z"/><path fill="#B1B5B0" d="M0 61.5h24v1.2H0z"/><path fill="#BDC1BD" d="M1.3 61.5h21.4v1.2H1.3z"/><path fill="#CACDCA" d="M2.6 61.5h18.7v1.2H2.6z"/><path fill="#D6D8D6" d="M3.9 61.5H20v1.2H3.9z"/><path fill="#E3E4E3" d="M5.3 61.5h13.5v1.2H5.3z"/><path fill="#B1B5B0" d="M0 12.9h24v1.2H0z"/><path fill="#BDC1BD" d="M1.3 12.9h21.4v1.2H1.3z"/><path fill="#CACDCA" d="M2.6 12.9h18.7v1.2H2.6z"/><path fill="#D6D8D6" d="M3.9 12.9H20v1.2H3.9z"/><path fill="#E3E4E3" d="M5.3 12.9h13.5v1.2H5.3zM17.9 5.8c0 .4-.3.7-.7.7H6.8c-.4 0-.7-.3-.7-.7 0-.4.3-.7.7-.7h10.4c.4 0 .7.3.7.7"/><defs><path id="a" d="M.8 19.7h19.9v21H.8z"/></defs><clipPath id="b"><use xlink:href="#a" overflow="visible"/></clipPath><path clip-path="url(#b)" fill="#F3FAFC" d="M1.9 22.3c.4-.4.9-.7 1.4-1 .5-.3.9-.5 1.4-.7.5-.2 1-.4 1.5-.5l1.5-.3c.5-.1 1-.1 1.5-.1h.1c.5 0 1 0 1.4.1l1.5.3c.5.1 1.1.3 1.6.5.6.2 1.1.5 1.6.8.6.3 1.1.7 1.6 1.2.6.5 1.2 1.2 1.7 1.8 1.2 1.7 1.9 3.7 1.9 5.8 0-2.2-.7-4.1-1.9-5.8-.5-.7-1-1.3-1.7-1.8-.5-.4-1-.8-1.6-1.2-.5-.3-1-.6-1.6-.8-.5-.2-1-.4-1.6-.5l-1.5-.3c-.5-.1-.9-.1-1.4-.1h-.1c-.5 0-1 0-1.5.1l-1.5.3c-.5.1-1 .3-1.5.5s-1 .4-1.4.7c-.4.3-.9.7-1.4 1-.4.3-.8.7-1.2 1.1.4-.4.8-.7 1.2-1.1"/><path clip-path="url(#b)" fill="#F3FAFC" d="M2.8 35.6c.1.1.2.1.3.2.3.3.7.5 1.1.7.2.1.4.2.5.3.3.2.5.3.8.4.2.1.5.2.8.3.2.1.4.1.6.2.3.1.6.1.9.2.1 0 .3 0 .4.1.4 0 .8.1 1.1.1h.2c.4 0 .9 0 1.3-.1s.9-.2 1.3-.3h.2c.4-.1.8-.2 1.1-.4.1 0 .2-.1.3-.2.3-.1.6-.3.9-.5.2-.1.4-.2.6-.4.2-.2.4-.3.6-.5.3-.2.5-.5.8-.7.1-.1.2-.2.3-.4.4-.5.7-1 1-1.5.4-.9.7-1.8.7-2.8 0-1.6-.6-2.9-1.2-3.7l-.1-.1c-.4-.5-.8-1-1.3-1.4-.1-.1-.2-.1-.3-.2-.3-.3-.7-.5-1.1-.8-.2-.1-.3-.2-.5-.3-.3-.1-.5-.3-.8-.4-.2-.1-.5-.2-.7-.3-.2-.1-.4-.1-.6-.2-.3-.1-.6-.1-.9-.2-.1 0-.3 0-.4-.1-.4 0-.8-.1-1.1-.1h-.2c-.4 0-.9 0-1.3.1s-.9.1-1.3.3h-.1c-.4.1-.8.2-1.1.4-.1 0-.2.1-.3.2-.3.1-.6.3-.9.5-.4 0-.6.1-.8.2-.2.2-.4.3-.7.5-.3.2-.5.5-.8.7-.1.1-.2.3-.4.4-.4.5-.7.9-1 1.4 0 .1 0 .1-.1.2v1.1c.1-.3.2-.6.4-.9.2-.5.6-.9.9-1.4.3-.4.7-.7 1.1-1 .4-.3.7-.6 1.1-.8l1.2-.6c.4-.2.8-.3 1.2-.4.4-.1.8-.2 1.3-.2.6-.2 1.1-.2 1.5-.2h.1c.4 0 .8 0 1.2.1.4.1.9.1 1.3.2s.9.3 1.3.4c.5.2.9.4 1.3.7.5.3.9.6 1.3.9.5.4.9.9 1.3 1.4.6.8 1.2 2 1.2 3.5 0 .9-.2 1.7-.6 2.5-.2.5-.6 1-.9 1.4-.3.4-.7.7-1.1 1.1-.3.3-.7.6-1.1.8l-1.2.6c-.4.2-.8.3-1.2.4-.4.1-.9.2-1.3.3-.4.1-.8.1-1.3.1h-.2c-.4 0-.7 0-1.1-.1-.5 0-.9-.1-1.3-.2-.5-.1-1-.2-1.4-.4-.4-.2-.9-.4-1.3-.6-.5-.3-.9-.6-1.3-.9-.5-.4-.9-.8-1.3-1.3-.5-.6-.8-1.2-1-1.9v1c.2.4.4.8.7 1.1 0 0 0 .1.1.1.4.5.8 1 1.3 1.4"/><path clip-path="url(#b)" fill="#FFF" d="M.8 27.2l-.1-1v1.2c.1 0 .1-.1.1-.2M1.8 38l-.3-3.8c-.3-.4-.5-.7-.7-1.1v4c.3.2.6.6 1 .9"/><path clip-path="url(#b)" fill="#1498C3" d="M2.8 35.6c-.5-.4-.9-.9-1.3-1.4 0 0 0-.1-.1-.1l.4 3.9c.5.4 1 .8 1.6 1.1l-.3-3.3c-.1 0-.2-.1-.3-.2M1.8 25.8c.1-.1.2-.3.4-.4l-.3-3.1c-.4.3-.8.7-1.2 1.1v2.8l.1 1c.3-.5.6-1 1-1.4"/><path clip-path="url(#b)" fill="#FFF" d="M4.2 36.6c-.4-.2-.7-.5-1.1-.7l.3 3.3c.5.3 1 .5 1.6.8l-.3-3c-.2-.2-.4-.3-.5-.4M3 24.7c.2-.2.4-.3.7-.5l-.2-2.9c-.5.3-1 .6-1.4 1l.3 3.1c0-.3.3-.5.6-.7"/><path clip-path="url(#b)" fill="#B52126" d="M4.1 23.9c.3-.2.6-.3.9-.5l-.2-2.8c-.5.2-1 .4-1.4.7l.2 2.9c.2-.1.4-.2.5-.3M5.5 37.2c-.3-.1-.5-.2-.8-.3l.3 3c.5.2 1 .4 1.6.5l-.2-2.9c-.4-.1-.6-.2-.9-.3"/><path clip-path="url(#b)" fill="#FFF" d="M5.4 23.3c.4-.1.7-.3 1.1-.4l-.2-2.7c-.5.1-1 .3-1.5.5l.2 2.8c.2-.1.3-.2.4-.2M6.9 37.7c-.2 0-.4-.1-.6-.2l.2 2.9 1.5.3-.2-2.8c-.3-.1-.6-.2-.9-.2"/><path clip-path="url(#b)" fill="#1498C3" d="M8.2 37.9c-.1 0-.3 0-.4-.1l.2 2.8c.4 0 .9.1 1.3.1h.2L9.3 38c-.3-.1-.7-.1-1.1-.1M6.7 22.8c.4-.1.9-.2 1.3-.3l-.2-2.7-1.5.3.2 2.7c.1.1.1 0 .2 0"/><path clip-path="url(#b)" fill="#FFF" d="M9.5 37.9h-.1-.1l.2 2.7c.5 0 1 0 1.5-.1l-.2-2.7c-.4.1-.8.1-1.3.1M9.3 22.5h.2l-.2-2.8c-.5 0-1 0-1.5.1l.2 2.8c.4-.1.9-.1 1.3-.1"/><path clip-path="url(#b)" fill="#B52126" d="M10.6 22.6c.1 0 .3 0 .4.1l-.2-2.8c-.5-.1-.9-.1-1.4-.1h-.1l.2 2.8c.4-.1.7-.1 1.1 0M12.2 37.6c-.4.1-.9.2-1.3.3l.2 2.7 1.5-.3-.2-2.7c-.1-.1-.2 0-.2 0"/><path clip-path="url(#b)" fill="#FFF" d="M12 22.8c.2.1.4.1.6.2l-.2-2.9-1.5-.3.2 2.8c.2.1.6.1.9.2M13.4 37.1c-.4.2-.7.3-1.1.4l.2 2.7c.5-.1 1-.3 1.5-.5l-.2-2.7c-.1 0-.3.1-.4.1"/><path clip-path="url(#b)" fill="#1498C3" d="M13.3 23.2c.3.1.6.2.8.4l-.3-3c-.5-.2-1-.4-1.6-.5l.2 2.9c.4.1.7.1.9.2M14.7 36.5c-.3.2-.6.3-.9.5l.2 2.8c.5-.2 1-.5 1.4-.7l-.2-2.9c-.2.1-.3.2-.5.3"/><path clip-path="url(#b)" fill="#FFF" d="M14.7 23.9c.4.2.7.5 1.1.8l-.3-3.3c-.5-.3-1-.6-1.6-.8l.3 3c.1.1.3.2.5.3M15.9 35.7c-.2.2-.4.3-.6.5l.2 2.9c.5-.3 1-.6 1.4-1l-.3-3.1c-.2.2-.5.4-.7.7"/><path clip-path="url(#b)" fill="#B52126" d="M18 33c-.3.5-.6 1-1 1.5-.1.1-.2.2-.3.4L17 38c.5-.4 1-.9 1.4-1.4L18 33M16 24.9c.5.4.9.9 1.3 1.4l.1.1-.3-3.9c-.5-.4-1-.8-1.6-1.2l.3 3.3c0 .2.1.2.2.3"/><path clip-path="url(#b)" fill="#FFF" d="M17.1 22.6l.3 3.9c.6.8 1.2 2.1 1.2 3.7 0 .9-.2 1.9-.7 2.8l.3 3.6c.5-.6 1-1.3 1.3-2.1l-.9-10.2c-.3-.6-.9-1.2-1.5-1.7"/><path clip-path="url(#b)" fill="#1498C3" d="M19.6 34.6c.7-1.3 1-2.8 1-4.3 0-2.2-.7-4.1-1.9-5.8l.9 10.1zM1.8 33.9c.4.5.8.9 1.3 1.3.4.3.8.6 1.3.9.4.2.9.5 1.3.6.3.2.8.3 1.2.4.4.1.9.2 1.3.2s.8.1 1.1.1h.2c.5 0 .9 0 1.3-.1s.8-.1 1.3-.3c.4-.1.8-.3 1.2-.4l1.2-.6c.4-.2.8-.5 1.1-.8.4-.3.7-.7 1.1-1.1.4-.4.7-.9.9-1.4.4-.8.6-1.7.6-2.5 0-1.5-.7-2.8-1.2-3.5-.3-.5-.8-.9-1.3-1.4-.4-.3-.8-.7-1.3-.9-.4-.3-.9-.5-1.3-.7-.4-.2-.9-.3-1.3-.4-.4-.1-.9-.2-1.3-.2-.3-.1-.7-.1-1.1-.1h-.1c-.4 0-.9 0-1.3.1s-.8.1-1.3.2c-.4.1-.8.3-1.2.4l-1.2.6c-.4.2-.8.5-1.1.8-.4.3-.8.7-1.1 1-.4.4-.7.9-.9 1.4-.2.3-.3.6-.4.9V32c.2.6.5 1.3 1 1.9"/><path fill="#7EA885" d="M5.65 47.226l14.456-3.17.642 2.932L6.29 50.156z"/></svg>