<svg xmlns="http://www.w3.org/2000/svg" xmlns:xlink="http://www.w3.org/1999/xlink" width="77.1" height="41.7" viewBox="0 0 77.1 41.7"><path fill="#C78962" d="M77.1 20.8v-.6C69 8.1 54.7 0 38.5 0 22.3 0 8.1 8 .1 20c-.1.2-.1.5-.1.8s0 .6.1.9c8 12 22.2 19.9 38.4 19.9 16.3 0 30.5-8.1 38.6-20.2-.1-.1 0-.4 0-.6"/><path fill="none" stroke="#231F20" stroke-width=".155" stroke-miterlimit="10" d="M.1 21.4c8 7.3 22.2 12.2 38.4 12.2 16.3 0 30.5-4.9 38.6-12.3M77 20.4C69 13.1 54.7 8.1 38.5 8.1S8.1 13 .1 20.3"/><path fill="#FFF" d="M11.7 8.2v25.2c2.4 1.6 4.9 3.1 7.6 4.2V4c-2.7 1.2-5.2 2.6-7.6 4.2M57.7 4v33.6c2.7-1.2 5.3-2.6 7.6-4.3v-25C63 6.7 60.4 5.2 57.7 4"/><g opacity=".3"><defs><path id="a" d="M0 0h77.1v41.7H0z"/></defs><clipPath id="b"><use xlink:href="#a" overflow="visible"/></clipPath><g clip-path="url(#b)"><defs><path id="c" d="M0 20.8h77.1v20.8H0z"/></defs><clipPath id="d"><use xlink:href="#c" overflow="visible"/></clipPath><path clip-path="url(#d)" fill="#C78962" d="M77 21.4c-8 10.9-22.3 18.2-38.6 18.2-16.2 0-30.4-7.2-38.4-18v-.8c0 .3 0 .6.1.9 8 12 22.2 20 38.4 20S69 33.6 77 21.4v-.6c.1.2 0 .4 0 .6"/></g><g clip-path="url(#b)"><defs><path id="e" d="M0 0h77.1v20.8H0z"/></defs><clipPath id="f"><use xlink:href="#e" overflow="visible"/></clipPath><path clip-path="url(#f)" fill="#C78962" d="M38.5 2C54.7 2 69 9.3 77 20.3v0C69 8.1 54.7 0 38.5 0S8.1 8 .1 20c-.1.2-.1.5-.1.8 0-.3 0-.5.1-.8C8.1 9.2 22.3 2 38.5 2"/></g><g opacity=".5" clip-path="url(#b)"><defs><path id="g" d="M0 20.8h77.1v18.8H0z"/></defs><clipPath id="h"><use xlink:href="#g" overflow="visible"/></clipPath><path clip-path="url(#h)" fill="#C78962" d="M38.5 39.6c16.3 0 30.5-7.3 38.6-18.2v-.6.3c-8 4.8-22.3 8.1-38.6 8.1-16.2 0-30.4-3.2-38.4-8-.1-.1-.1-.3-.1-.4 0 .3 0 .5.1.8 8 10.8 22.2 18 38.4 18"/></g><g opacity=".5" clip-path="url(#b)"><defs><path id="i" d="M0 2h77.1v18.8H0z"/></defs><clipPath id="j"><use xlink:href="#i" overflow="visible"/></clipPath><path clip-path="url(#j)" fill="#C78962" d="M38.5 12.5c16.3 0 30.5 3.2 38.6 8.1v-.3C69 9.3 54.7 2 38.5 2 22.3 2 8.1 9.2.1 20c-.1.3-.1.6-.1.8 0-.1 0-.2.1-.4 8-4.7 22.2-7.9 38.4-7.9"/></g></g><path fill="none" stroke="#FFF" stroke-width="3.091" stroke-linecap="round" stroke-miterlimit="10" d="M52.8 9.5c-4.5-.9-9.3-1.3-14.3-1.3s-9.8.5-14.3 1.3"/><path fill="none" stroke="#231F20" stroke-width=".309" stroke-linecap="round" stroke-miterlimit="10" d="M48.4 8.5c-3.2-.4-6.5-.6-9.9-.6s-6.7.1-9.9.6"/><path fill="none" stroke="#E9E9E9" stroke-width=".927" stroke-linecap="round" stroke-miterlimit="10" d="M26 11.2c-.6-.4-.8-1.3-.9-1.9 0-.5.2-1.6.6-1.9M28.4 10.7c-.6-.4-.8-1.3-.9-1.9 0-.5.2-1.6.6-1.9M30.8 10.6c-.6-.4-.9-1.3-.9-1.9 0-.5.2-1.6.6-1.9M33.1 10.2c-.4-.4-.6-1.3-.7-1.9 0-.5.2-1.6.5-1.9M35.3 10.2c-.3-.4-.4-1.3-.5-1.9 0-.5.1-1.6.3-1.9M51 11.2c.6-.4.8-1.3.9-1.9 0-.5-.2-1.6-.6-1.9M48.6 10.7c.6-.4.8-1.3.9-1.9 0-.5-.2-1.6-.6-1.9M46.2 10.6c.6-.4.9-1.3.9-1.9 0-.5-.2-1.6-.6-1.9M44 10.2c.4-.4.6-1.3.7-1.9 0-.5-.2-1.6-.5-1.9M41.7 10.2c.3-.4.4-1.3.5-1.9 0-.5-.1-1.6-.3-1.9M37.3 6.4v3.8M39.7 6.4v3.8"/></svg>