<svg xmlns="http://www.w3.org/2000/svg" xmlns:xlink="http://www.w3.org/1999/xlink" width="38.2" height="69.5" viewBox="0 0 38.2 69.5"><path fill="#BEBFBE" d="M2.6 3.7h33v22h-33zM38.1 4v21.7h.1V4.4c0-.1 0-.3-.1-.4"/><path fill="#A7A5A6" d="M.7 3.7c-.4 0-.7.3-.7.7v21.3h2.6v-22H.7zM37.5 3.7h-2v22h2.6V4c-.1-.2-.4-.3-.6-.3"/><path fill="#9C9A9B" d="M2.6 24.3h33v1.4h-33z"/><g opacity=".6"><defs><path id="a" d="M2.6 3.9h.3v21.8h-.3z"/></defs><clipPath id="b"><use xlink:href="#a" overflow="visible"/></clipPath><path clip-path="url(#b)" fill="#231F20" d="M2.6 3.9v.9c0 .6.1 1.4.1 2.5 0 2 .1 4.8.1 7.5s-.1 5.4-.1 7.5c0 1-.1 1.9-.1 2.5v.9V3.9z"/></g><g opacity=".6"><defs><path id="c" d="M35.3 3.9h.3v21.8h-.3z"/></defs><clipPath id="d"><use xlink:href="#c" overflow="visible"/></clipPath><path clip-path="url(#d)" fill="#231F20" d="M35.5 3.9V24.8c0-.6-.1-1.4-.1-2.5 0-2-.1-4.8-.1-7.5s.1-5.4.1-7.5c0-1 .1-1.9.1-2.5v-.9z"/></g><path fill="#E9E9E9" d="M3.8 25c0 .1-.1.2-.2.2s-.2-.1-.2-.2.1-.2.2-.2.2.1.2.2"/><path fill="#7B7979" d="M3.7 24.8l.1.1c0 .1-.1.2-.2.2s-.1 0-.1-.1c0 .1.1.1.2.1s.2-.1.2-.2c-.1 0-.1 0-.2-.1"/><path fill="#E9E9E9" d="M6 25c0 .1-.1.2-.2.2s-.2-.1-.2-.2.1-.2.2-.2.2.1.2.2"/><path fill="#7B7979" d="M5.9 24.8c.1 0 .1.1.1.2s-.1.2-.2.2-.1 0-.1-.1c0 .1.1.1.2.1 0 0 .1-.1.1-.2s0-.1-.1-.2"/><path fill="#E9E9E9" d="M8.3 25c0 .1-.1.2-.2.2s-.2-.1-.2-.2.1-.2.2-.2.2.1.2.2"/><path fill="#7B7979" d="M8.2 24.8l.1.1c0 .1-.1.2-.2.2s-.1 0-.1-.1c0 .1.1.1.2.1s.2-.1.2-.2c-.1 0-.2 0-.2-.1"/><path fill="#E9E9E9" d="M10.5 25c0 .1-.1.2-.2.2s-.2-.1-.2-.2.1-.2.2-.2.2.1.2.2"/><path fill="#7B7979" d="M10.4 24.8l.1.1c0 .1-.1.2-.2.2s-.1 0-.1-.1c0 .1.1.1.2.1s.2-.1.2-.2c-.1 0-.1 0-.2-.1"/><path fill="#E9E9E9" d="M12.7 25c0 .1-.1.2-.2.2s-.2-.1-.2-.2.1-.2.2-.2.2.1.2.2"/><path fill="#7B7979" d="M12.6 24.8l.1.1c0 .1-.1.2-.2.2s-.1 0-.1-.1c0 .1.1.1.2.1s.2-.1.2-.2c-.1 0-.1 0-.2-.1"/><path fill="#E9E9E9" d="M15 25c0 .1-.1.2-.2.2s-.2-.1-.2-.2.1-.2.2-.2.2.1.2.2"/><path fill="#7B7979" d="M14.9 24.8l.1.1c0 .1-.1.2-.2.2s-.1 0-.1-.1c0 .1.1.1.2.1s.2-.1.2-.2c-.1 0-.2 0-.2-.1"/><path fill="#E9E9E9" d="M17.2 25c0 .1-.1.2-.2.2s-.2-.1-.2-.2.1-.2.2-.2.2.1.2.2"/><path fill="#7B7979" d="M17.1 24.8l.1.1c0 .1-.1.2-.2.2s-.1 0-.1-.1c0 .1.1.1.2.1s.2-.1.2-.2c-.1 0-.1 0-.2-.1"/><path fill="#E9E9E9" d="M19.4 25c0 .1-.1.2-.2.2s-.2-.1-.2-.2.1-.2.2-.2.2.1.2.2"/><path fill="#7B7979" d="M19.3 24.8l.1.1c0 .1-.1.2-.2.2s-.1 0-.1-.1c0 .1.1.1.2.1s.2-.1.2-.2c-.1 0-.1 0-.2-.1"/><path fill="#E9E9E9" d="M21.7 25c0 .1-.1.2-.2.2s-.2-.1-.2-.2.1-.2.2-.2.2.1.2.2"/><path fill="#7B7979" d="M21.6 24.8l.1.1c0 .1-.1.2-.2.2s-.1 0-.1-.1c0 .1.1.1.2.1s.2-.1.2-.2c-.1 0-.2 0-.2-.1"/><path fill="#E9E9E9" d="M23.9 25c0 .1-.1.2-.2.2s-.2-.1-.2-.2.1-.2.2-.2.2.1.2.2"/><path fill="#7B7979" d="M23.8 24.8l.1.1c0 .1-.1.2-.2.2s-.1 0-.1-.1c0 .1.1.1.2.1s.2-.1.2-.2c-.1 0-.1 0-.2-.1"/><path fill="#E9E9E9" d="M26.1 25c0 .1-.1.2-.2.2s-.2-.1-.2-.2.1-.2.2-.2.2.1.2.2"/><path fill="#7B7979" d="M26 24.8l.1.1c0 .1-.1.2-.2.2s-.1 0-.1-.1c0 .1.1.1.2.1s.2-.1.2-.2c-.1 0-.1 0-.2-.1"/><path fill="#E9E9E9" d="M28.4 25c0 .1-.1.2-.2.2s-.2-.1-.2-.2.1-.2.2-.2.2.1.2.2"/><path fill="#7B7979" d="M28.3 24.8l.1.1c0 .1-.1.2-.2.2s-.1 0-.1-.1c0 .1.1.1.2.1s.2-.1.2-.2c-.1 0-.2 0-.2-.1"/><path fill="#E9E9E9" d="M30.6 25c0 .1-.1.2-.2.2s-.2-.1-.2-.2.1-.2.2-.2.2.1.2.2"/><path fill="#7B7979" d="M30.5 24.8l.1.1c0 .1-.1.2-.2.2s-.1 0-.1-.1c0 .1.1.1.2.1s.2-.1.2-.2c-.1 0-.1 0-.2-.1"/><path fill="#E9E9E9" d="M32.8 25c0 .1-.1.2-.2.2s-.2-.1-.2-.2.1-.2.2-.2.2.1.2.2"/><path fill="#7B7979" d="M32.7 24.8l.1.1c0 .1-.1.2-.2.2s-.1 0-.1-.1c0 .1.1.1.2.1s.2-.1.2-.2c-.1 0-.1 0-.2-.1"/><path fill="#E9E9E9" d="M35.1 25c0 .1-.1.2-.2.2s-.2-.1-.2-.2.1-.2.2-.2.2.1.2.2"/><path fill="#7B7979" d="M35 24.8l.1.1c0 .1-.1.2-.2.2s-.1 0-.1-.1c0 .1.1.1.2.1s.2-.1.2-.2c-.1 0-.2 0-.2-.1"/><g opacity=".4"><defs><path id="e" d="M2.6 3.7h33v7.7h-33z"/></defs><clipPath id="f"><use xlink:href="#e" overflow="visible"/></clipPath><path clip-path="url(#f)" fill="#E7E6E7" d="M2.6 3.7h33v1.5h-33z"/><path clip-path="url(#f)" fill="#D5D4D5" d="M2.6 5.2h33v2.3h-33z"/><path clip-path="url(#f)" fill="#A7A5A6" d="M2.6 7.5h33v3.9h-33z"/></g><path fill="#C2494D" d="M7 2.5h4.7V0H5.1v14.2H7"/><path fill="#4B4748" d="M4 12.9h5.3v5.3H4z"/><path fill="#7B6343" d="M15.8 25.7h6.5v1.4h-6.5z"/><defs><path id="g" d="M15.8 25.7h6.5v.7h-6.5z"/></defs><clipPath id="h"><use xlink:href="#g" overflow="visible"/></clipPath><path clip-path="url(#h)" fill="#7B6343" d="M15.8 25.7v.7l6.5-.7"/><path fill="#7B6343" d="M17.4 27.1h3.3v42.4h-3.3z"/><g opacity=".4"><defs><path id="i" d="M17.4 27.1h3.3v42.4h-3.3z"/></defs><clipPath id="j"><use xlink:href="#i" overflow="visible"/></clipPath><path clip-path="url(#j)" fill="#7B6343" d="M17.4 27.1h.7v42.4h-.7zM20 27.1h.7v42.4H20z"/></g><g><defs><path id="k" d="M17.4 27.1h3.3v.4h-3.3z"/></defs><clipPath id="l"><use xlink:href="#k" overflow="visible"/></clipPath><path clip-path="url(#l)" fill="#7B6343" d="M17.4 27.1h3.2s-.2.1-.5.2c-.2 0-.3.1-.5.1h-1.2c-.2 0-.4-.1-.5-.1-.3-.1-.5-.2-.5-.2z"/></g></svg>