<svg xmlns="http://www.w3.org/2000/svg" xmlns:xlink="http://www.w3.org/1999/xlink" width="50.2" height="60.6" viewBox="0 0 50.2 60.6"><path fill="#C8C7C7" d="M.9 34v-.2C-2 40.7 3.6 48.3 3.6 48.3c.6-.8 2.3-.7 2.3-.7S1.7 45.2.9 34"/><path fill="#C82257" d="M.8 33.8v.1c.1 0 .1 0 0-.1"/><path fill="#A7A5A6" d="M20.3 55.2C5 51.5 1.2 35.8.9 34c.9 11.3 5 13.6 5 13.6 4.7 8.3 16.3 11.3 17.5 11.7 1.2.4 1.8 1.3 1.8 1.3-.1-4.6-4.9-5.4-4.9-5.4"/><path fill="#C8C7C7" d="M22.3 15.3v3.4H4.4v3.5h17.8s-.5 21.3-.5 25.6c0 4.3-4.2 3.2-4.2 3.2-6.2-2-7.1-4.5-7.1-6s1.3-3 1.3-3C6.9 40.7 1.3 34.2.9 33.7v.1c.3 2 4.1 17.7 19.4 21.3 0 0 4.8.8 4.8 5.4v-48l-2.8 2.8z"/><path fill="#A7A5A6" d="M22.2 18.8c.4 0 .6.4.7.7.1.3.1.7.2 1 0 .3 0 .7-.2 1-.1.3-.3.7-.7.7.2 0 .3-.2.3-.3.1-.1.1-.3.2-.5.1-.3.1-.6.1-1 0-.3 0-.7-.1-1 0-.2-.1-.3-.2-.5 0 0-.1-.1-.3-.1M5.2 20.5c0 1-.4 1.8-.9 1.8s-.9-.8-.9-1.8.4-1.8.9-1.8c.6.1.9.8.9 1.8"/><path fill="#C8C7C7" d="M49.3 34v-.2c2.9 6.9-2.7 14.5-2.7 14.5-.6-.8-2.3-.7-2.3-.7s4.1-2.4 5-13.6"/><path fill="#C82257" d="M49.3 33.8v0"/><path fill="#9C9A9B" d="M29.9 55.2c15.2-3.7 19-19.4 19.4-21.2-.9 11.3-5 13.6-5 13.6-4.7 8.3-16.3 11.3-17.5 11.7S25 60.6 25 60.6c.1-4.6 4.9-5.4 4.9-5.4"/><path fill="#BDBCBC" d="M27.9 15.3v3.4h17.9v3.5H27.9s.5 21.3.5 25.6c0 4.3 4.2 3.2 4.2 3.2 6.2-2 7.1-4.5 7.1-6s-1.3-3-1.3-3c4.8-1.3 10.4-7.8 10.8-8.3v.1C48.8 35.6 45 51.3 29.8 55c0 0-4.8.8-4.8 5.4v-48l2.9 2.9z"/><path fill="#A7A5A6" d="M28 18.8c-.2 0-.3.2-.3.3-.1.1-.1.3-.2.5-.1.3-.1.7-.1 1 0 .3 0 .7.1 1 0 .2.1.3.2.5.1.1.2.3.3.3-.4 0-.6-.4-.7-.7-.1-.3-.1-.7-.2-1 0-.4 0-.7.2-1 .1-.5.3-.9.7-.9M44.9 20.5c0 1 .4 1.8.9 1.8s.9-.8.9-1.8-.4-1.8-.9-1.8c-.5.1-.9.8-.9 1.8"/><path fill="#C8C7C7" d="M25.1 15.9c-4.4 0-7.9-3.6-7.9-7.9 0-4.4 3.6-7.9 7.9-7.9S33 3.6 33 7.9c0 4.4-3.5 8-7.9 8m0-12c-2.2 0-4 1.8-4 4s1.8 4 4 4 4-1.8 4-4-1.8-4-4-4"/><g opacity=".7"><defs><path id="a" d="M19.1 2h12v12h-12z"/></defs><clipPath id="b"><use xlink:href="#a" overflow="visible"/></clipPath><g clip-path="url(#b)"><defs><path id="c" d="M19.1 7.9h12v6h-12z"/></defs><clipPath id="d"><use xlink:href="#c" overflow="visible"/></clipPath><path clip-path="url(#d)" fill="#A7A5A6" d="M25.1 12c-2.2 0-4-1.8-4-4h-2c0 3.3 2.7 6 6 6s6-2.7 6-6h-2c0 2.2-1.8 4-4 4"/></g><g clip-path="url(#b)"><defs><path id="e" d="M19.1 2h12v6h-12z"/></defs><clipPath id="f"><use xlink:href="#e" overflow="visible"/></clipPath><path clip-path="url(#f)" fill="#A7A5A6" d="M25.1 2c-3.3 0-6 2.7-6 6h2c0-2.2 1.8-4 4-4s4 1.8 4 4h2c0-3.4-2.7-6-6-6"/></g></g></svg>