<svg xmlns="http://www.w3.org/2000/svg" width="46.4" height="80.6" viewBox="0 0 46.4 80.6"><path fill="#DEDDDE" d="M29.8 71.1c0 .4-.3.6-.7.6-.4 0-.6-.3-.6-.7l.6-9.8c0-.4.3-.6.7-.6.4 0 .6.3.6.7l-.6 9.8z"/><path fill="#BDBCBC" d="M32.1 63.6c0 .1-.1.1-.2.1l-1.5-.3c-.1 0-.1-.1-.1-.1 0-.1.1-.1.2-.1l1.5.3c.1 0 .1 0 .1.1M32.1 63.9c0 .1-.1.1-.2.1l-1.5-.3c-.1 0-.1-.1-.1-.1 0-.1.1-.1.2-.1l1.5.3s.1 0 .1.1M32 64.2c0 .1-.1.1-.2.1l-1.5-.3c-.1 0-.1-.1-.1-.1 0-.1.1-.1.2-.1l1.5.3c.1 0 .1.1.1.1M31.9 64.5c0 .1-.1.1-.2.1l-1.5-.3c-.1 0-.1-.1-.1-.1 0-.1.1-.1.2-.1l1.5.3c.1 0 .2.1.1.1M31.9 64.9c0 .1-.1.1-.2.1l-1.5-.3c-.1 0-.1-.1-.1-.1 0-.1.1-.1.2-.1l1.5.3c0-.1.1 0 .1.1M31.8 65.2c0 .1-.1.1-.2.1l-1.5-.3c-.1 0-.1-.1-.1-.1 0-.1.1-.1.2-.1l1.5.3c.1-.1.1 0 .1.1M31.7 65.5c0 .1-.1.1-.2.1l-1.5-.3c-.1 0-.1-.1-.1-.1 0-.1.1-.1.2-.1l1.5.3c.1 0 .2 0 .1.1M31.7 65.8c0 .1-.1.1-.2.1l-1.5-.3c-.1 0-.1-.1-.1-.1 0-.1.1-.1.2-.1l1.5.3s.1 0 .1.1M31.6 66.1c0 .1-.1.1-.2.1l-1.5-.3c-.1 0-.1-.1-.1-.1 0-.1.1-.1.2-.1l1.5.3c.1 0 .1.1.1.1M31.6 66.4c0 .1-.1.1-.2.1l-1.5-.3c-.1 0-.1-.1-.1-.1 0-.1.1-.1.2-.1l1.5.3.1.1M31.5 66.8c0 .1-.1.1-.2.1l-1.5-.3c-.1 0-.1-.1-.1-.1 0-.1.1-.1.2-.1l1.5.3c.1-.1.1 0 .1.1M31.4 67.1c0 .1-.1.1-.2.1l-1.5-.3c-.1 0-.1-.1-.1-.1 0-.1.1-.1.2-.1l1.5.3c.1-.1.1 0 .1.1M31.4 67.4c0 .1-.1.1-.2.1l-1.5-.3c-.1 0-.1-.1-.1-.1 0-.1.1-.1.2-.1l1.5.3s.1 0 .1.1M31.3 67.7c0 .1-.1.1-.2.1l-1.5-.3c-.1 0-.1-.1-.1-.1 0-.1.1-.1.2-.1l1.5.3c.1 0 .1 0 .1.1M31.2 68c0 .1-.1.1-.2.1l-1.5-.3c-.1 0-.1-.1-.1-.1 0-.1.1-.1.2-.1l1.5.3c.1 0 .1.1.1.1M31.2 68.3c0 .1-.1.1-.2.1l-1.5-.3c-.1 0-.1-.1-.1-.1 0-.1.1-.1.2-.1l1.5.3.1.1M31.1 68.6c0 .1-.1.1-.2.1l-1.5-.3c-.1 0-.1-.1-.1-.1 0-.1.1-.1.2-.1l1.5.3c.1 0 .1.1.1.1M31 69c0 .1-.1.1-.2.1l-1.5-.3c-.1 0-.1-.1-.1-.1 0-.1.1-.1.2-.1l1.5.3c.1-.1.2 0 .1.1M31 69.3c0 .1-.1.1-.2.1l-1.5-.3c-.1 0-.1-.1-.1-.1 0-.1.1-.1.2-.1l1.5.3s.1 0 .1.1M30.9 69.6c0 .1-.1.1-.2.1l-1.5-.3c-.1 0-.1-.1-.1-.1 0-.1.1-.1.2-.1l1.5.3c.1 0 .1 0 .1.1M30.9 69.9c0 .1-.1.1-.2.1l-1.5-.3c-.1 0-.1-.1-.1-.1 0-.1.1-.1.2-.1l1.5.3s.1 0 .1.1M30.8 70.2c0 .1-.1.1-.2.1l-1.5-.3c-.1 0-.1 0-.1-.1s.1-.1.2-.1l1.5.3c.1 0 .1.1.1.1M30.7 70.5c0 .1-.1.1-.2.1l-1.5-.2c-.1 0-.1-.1-.1-.1 0-.1.1-.1.2-.1l1.5.3c.1-.1.1 0 .1 0M30.7 70.9c0 .1-.1.1-.2.1l-1.5-.3c-.1 0-.1-.1-.1-.1 0-.1.1-.1.2-.1l1.5.3c0-.1.1 0 .1.1M30.6 71.2c0 .1-.1.1-.2.1l-1.5-.3c-.1 0-.1-.1-.1-.1 0-.1.1-.1.2-.1l1.5.3c.1-.1.1 0 .1.1M30.5 71.5c0 .1-.1.1-.2.1l-1.5-.3c-.1 0-.1-.1-.1-.1 0-.1.1-.1.2-.1l1.5.3c.1 0 .1 0 .1.1M30.3 71.8c0 .1-.1.1-.2.1l-1.3-.2c-.1 0-.1-.1-.1-.1s.1-.1.2-.1l1.3.2c.1 0 .1 0 .1.1M30.1 72.1c0 .1-.1.1-.2.1L29 72c-.1 0-.1-.1-.1-.1 0-.1.1-.1.2-.1l1 .2c0-.1.1 0 0 .1M30.5 63c0-.1.1-.1.2-.1l1.3.2c.1 0 .1.1.1.1 0 .1-.1.1-.2.1l-1.3-.2-.1-.1M30.7 62.7c0-.1.1-.1.2-.1l1 .2c.1 0 .1.1.1.1s-.1.1-.2.1l-1-.2s-.1 0-.1-.1"/><path fill="#DEDDDE" d="M31.9 63.6c0 .1-.1.1-.1.1l-1.1-.2c-.1 0-.1-.1-.1-.1 0-.1.1-.1.1-.1l1.1.2c.1-.1.1 0 .1.1M31.8 63.9c0 .1-.1.1-.1.1l-1.1-.2c-.1 0-.1-.1-.1-.1 0-.1.1-.1.1-.1l1.1.2c.1-.1.2 0 .1.1M31.8 64.2c0 .1-.1.1-.1.1l-1.1-.2c-.1 0-.1-.1-.1-.1 0-.1.1-.1.1-.1l1.1.2c.1 0 .1 0 .1.1M31.7 64.5c0 .1-.1.1-.1.1l-1.1-.2c-.1 0-.1-.1-.1-.1 0-.1.1-.1.1-.1l1.1.2c.1 0 .1 0 .1.1M31.6 64.8c0 .1-.1.1-.1.1l-1.1-.2c-.1 0-.1-.1-.1-.1 0-.1.1-.1.1-.1l1.1.2c.1 0 .2.1.1.1M31.6 65.1c0 .1-.1.1-.1.1l-1.2-.2c-.1 0-.1-.1-.1-.1l.1-.1 1.1.2c.2 0 .2.1.2.1M31.5 65.4c0 .1-.1.1-.1.1l-1.1-.2c-.1 0-.1-.1-.1-.1 0-.1.1-.1.1-.1l1.1.2c.1 0 .1.1.1.1M31.5 65.8c0 .1-.1.1-.1.1l-1.1-.2c-.1 0-.1-.1-.1-.1 0-.1.1-.1.1-.1l1.1.2c0-.1.1 0 .1.1M31.4 66.1c0 .1-.1.1-.1.1l-1.2-.2c-.1 0-.1-.1-.1-.1 0-.1.1-.1.1-.1l1.1.2c.2 0 .2 0 .2.1M31.3 66.4c0 .1-.1.1-.1.1l-1.1-.2c-.1 0-.1-.1-.1-.1 0-.1.1-.1.1-.1l1.1.2c.1 0 .1 0 .1.1M31.3 66.7c0 .1-.1.1-.1.1l-1.2-.2c-.1 0-.1-.1-.1-.1l.1-.1 1.1.2c.1 0 .2 0 .2.1M31.2 67c0 .1-.1.1-.1.1l-1.1-.2c-.1 0-.1-.1-.1-.1 0-.1.1-.1.1-.1l1.1.2c.1 0 .1.1.1.1M31.1 67.3c0 .1-.1.1-.1.1l-1.1-.2c-.1 0-.1-.1-.1-.1 0-.1.1-.1.1-.1l1.1.2c.1 0 .2.1.1.1M31.1 67.7c0 .1-.1.1-.1.1l-1.1-.2c-.1 0-.1-.1-.1-.1 0-.1.1-.1.1-.1l1.1.2c.1-.1.1 0 .1.1M31 68c0 .1-.1.1-.1.1l-1.1-.2c-.1 0-.1-.1-.1-.1 0-.1.1-.1.1-.1l1.1.2c.1 0 .1 0 .1.1M30.9 68.3c0 .1-.1.1-.1.1l-1.1-.2c-.1 0-.1-.1-.1-.1l.1-.1 1.1.2c.1 0 .2 0 .1.1M30.9 68.6c0 .1-.1.1-.1.1l-1.1-.2c-.1 0-.1-.1-.1-.1 0-.1.1-.1.1-.1l1.1.2c.1 0 .1 0 .1.1M30.8 68.9c0 .1-.1.1-.1.1l-1.1-.2c-.1 0-.1-.1-.1-.1 0-.1.1-.1.1-.1l1.1.2c.1 0 .1.1.1.1M30.8 69.2c0 .1-.1.1-.1.1l-1.1-.2c-.1 0-.1-.1-.1-.1 0-.1.1-.1.1-.1l1.1.2.1.1M30.7 69.6c0 .1-.1.1-.1.1l-1.1-.2c-.1 0-.1-.1-.1-.1l.1-.1 1.1.2c.1-.1.1 0 .1.1M30.6 69.9c0 .1-.1.1-.1.1l-1.1-.2c-.1 0-.1-.1-.1-.1l.1-.1 1.1.2c.1-.1.1 0 .1.1M30.6 70.2c0 .1-.1.1-.1.1l-1.1-.2c-.1 0-.1-.1-.1-.1 0-.1.1-.1.1-.1l1.1.2s.1 0 .1.1M30.5 70.5c0 .1-.1.1-.1.1l-1.1-.2c-.1 0-.1-.1-.1-.1 0-.1.1-.1.1-.1l1.1.2c.1 0 .1 0 .1.1M30.4 70.8c0 .1-.1.1-.1.1l-1.1-.2c-.1 0-.1-.1-.1-.1 0-.1.1-.1.1-.1l1.1.2c.1 0 .1.1.1.1M30.4 71.1c0 .1-.1.1-.1.1l-1.2-.2s-.1 0-.1-.1.1-.1.1-.1l1.1.2c.1 0 .2.1.2.1M30.3 71.4c0 .1-.1.1-.1.1l-1.2-.2c-.1 0-.1-.1-.1-.1 0-.1.1-.1.1-.1l1.1.2c.2 0 .2.1.2.1M30.1 71.7c0 .1-.1.1-.1.1l-.9-.2c-.1 0-.1-.1-.1-.1 0-.1.1-.1.1-.1l.9.2c.1 0 .2.1.1.1M30 72c0 .1-.1.1-.1.1l-.8-.1c-.1 0-.1-.1-.1-.1 0-.1.1-.1.1-.1l.7.1c.2 0 .2.1.2.1M30.7 63c0-.1.1-.1.1-.1l.9.2c.1 0 .1.1.1.1 0 .1-.1.1-.1.1l-.9-.2s-.1 0-.1-.1M30.9 62.7c0-.1.1-.1.1-.1l.7.1c.1 0 .1.1.1.1s0 .2-.1.2l-.7-.1c-.1-.1-.1-.1-.1-.2"/><path fill="#F4F4F4" d="M31.4 63.5c0 .1 0 .1-.1.1l-.5-.1v-.1c0-.1 0-.1.1-.1l.5.1s.1 0 0 .1M31.4 63.8c0 .1 0 .1-.1.1l-.5-.1v-.1c0-.1 0-.1.1-.1l.5.1v.1M31.3 64.1c0 .1 0 .1-.1.1l-.5-.1V64s0-.1.1-.1l.5.1v.1M31.2 64.4c0 .1 0 .1-.1.1l-.5-.1v-.1c0-.1 0-.1.1-.1l.5.1s.1.1 0 .1M31.2 64.7c0 .1 0 .1-.1.1l-.5-.1v-.1c0-.1 0-.1.1-.1l.5.1v.1M31.1 65.1c0 .1 0 .1-.1.1l-.5-.1V65c0-.1 0-.1.1-.1l.5.1v.1M31.1 65.4c0 .1 0 .1-.1.1l-.5-.1v-.1s0-.1.1-.1l.5.1v.1M31 65.7c0 .1 0 .1-.1.1l-.5-.1v-.1c0-.1 0-.1.1-.1l.5.1v.1M30.9 66c0 .1 0 .1-.1.1l-.5-.1v-.1c0-.1 0-.1.1-.1l.5.1v.1M30.9 66.3c0 .1 0 .1-.1.1l-.5-.1v-.1c0-.1 0-.1.1-.1l.5.1v.1M30.8 66.6c0 .1 0 .1-.1.1l-.5-.1v-.1c0-.1 0-.1.1-.1l.5.1v.1M30.7 66.9c0 .1 0 .1-.1.1h-.5v-.1s0-.1.1-.1l.5.1c0-.1 0 0 0 0M30.7 67.3c0 .1 0 .1-.1.1l-.5-.1v-.1c0-.1 0-.1.1-.1l.5.1v.1M30.6 67.6c0 .1 0 .1-.1.1l-.5-.1v-.1c0-.1 0-.1.1-.1l.5.1v.1M30.5 67.9c0 .1 0 .1-.1.1l-.5-.1v-.1s0-.1.1-.1l.5.1s.1 0 0 .1M30.5 68.2c0 .1 0 .1-.1.1l-.5-.1v-.1c0-.1 0-.1.1-.1l.5.1v.1M30.4 68.5c0 .1 0 .1-.1.1l-.5-.1v-.1s0-.1.1-.1l.5.1v.1M30.3 68.8c0 .1 0 .1-.1.1l-.5-.1v-.1c0-.1 0-.1.1-.1l.5.1s.1.1 0 .1M30.3 69.2c0 .1 0 .1-.1.1l-.5-.1v-.1c0-.1 0-.1.1-.1l.5.1v.1M30.2 69.5c0 .1 0 .1-.1.1l-.5-.1v-.1c0-.1 0-.1.1-.1l.5.1v.1M30.2 69.8c0 .1 0 .1-.1.1l-.5-.1v-.1c0-.1 0-.1.1-.1l.5.1v.1M30.1 70.1c0 .1 0 .1-.1.1l-.5-.1V70c0-.1 0-.1.1-.1l.5.1v.1M30 70.4c0 .1 0 .1-.1.1l-.5-.1v-.1c0-.1 0-.1.1-.1l.5.1v.1M30 70.7c0 .1 0 .1-.1.1l-.5-.1v-.1c0-.1 0-.1.1-.1l.5.1v.1M29.9 71c0 .1 0 .1-.1.1l-.5-.1v-.1c0-.1 0-.1.1-.1l.5.1v.1M29.8 71.4c0 .1 0 .1-.1.1l-.5-.1v-.1c0-.1 0-.1.1-.1l.5.1v.1M29.7 71.7c0 .1 0 .1-.1.1l-.5-.1v-.1c0-.1 0-.1.1-.1l.5.1v.1M29.6 72c0 .1 0 .1-.1.1l-.3-.1v-.1c0-.1 0-.1.1-.1l.4.1c-.1 0-.1 0-.1.1M30.9 63c0-.1 0-.1.1-.1l.5.1v.1c0 .1 0 .1-.1.1l-.5-.1V63"/><path fill="#F4F4F4" d="M31 62.7c0-.1 0-.1.1-.1l.4.1v.1c0 .1 0 .1-.1.1H31v-.2"/><path fill="#BDBCBC" d="M27.4 61.9c0 .1 0 .1-.1.2l-1.5.3c-.1 0-.1 0-.2-.1s0-.1.1-.2l1.5-.3c.1 0 .2 0 .2.1M27.5 62.3c0 .1 0 .1-.1.2l-1.5.3c-.1 0-.1 0-.2-.1 0-.1 0-.1.1-.2l1.5-.3c.1 0 .2 0 .2.1M27.6 62.6c0 .1 0 .1-.1.2l-1.5.3c-.1 0-.1 0-.2-.1 0-.1 0-.1.1-.2l1.5-.3c.1 0 .2.1.2.1M27.7 63c0 .1 0 .1-.1.2l-1.6.3c-.1 0-.1 0-.2-.1 0-.1 0-.1.1-.2l1.5-.3c.2 0 .2 0 .3.1M27.7 63.4c0 .1 0 .1-.1.2l-1.5.3c-.1 0-.1 0-.2-.1 0-.1 0-.1.1-.2l1.5-.3c.1-.1.2 0 .2.1M27.8 63.7c0 .1 0 .1-.1.2l-1.5.3c-.1 0-.1 0-.2-.1 0-.1 0-.1.1-.2l1.5-.3c.1 0 .2.1.2.1M27.9 64.1c0 .1 0 .1-.1.2l-1.5.3c-.1 0-.1 0-.2-.1 0-.1 0-.1.1-.2l1.5-.3c.1 0 .2 0 .2.1M28 64.5c0 .1 0 .1-.1.2l-1.5.3c-.1 0-.1 0-.2-.1 0-.1 0-.1.1-.2l1.5-.3c.1-.1.2 0 .2.1M28.1 64.8c0 .1 0 .1-.1.2l-1.5.3c-.1 0-.1 0-.2-.1 0-.1 0-.1.1-.2l1.5-.3c.1 0 .2 0 .2.1M28.2 65.2c0 .1 0 .1-.1.2l-1.5.3c-.1 0-.1 0-.2-.1s0-.1.1-.2l1.5-.3c.1 0 .1 0 .2.1"/><path fill="#BDBCBC" d="M28.2 65.5c0 .1 0 .1-.1.2l-1.5.3c-.1 0-.1 0-.2-.1s0-.1.1-.2l1.5-.3c.1 0 .2.1.2.1M28.3 65.9c0 .1 0 .1-.1.2l-1.5.3c-.1 0-.1 0-.2-.1 0-.1 0-.1.1-.2l1.5-.3c.1 0 .2 0 .2.1M28.4 66.3c0 .1 0 .1-.1.2l-1.5.3c-.1 0-.1 0-.2-.1 0-.1 0-.1.1-.2l1.5-.3c.1 0 .2 0 .2.1M28.5 66.6c0 .1 0 .1-.1.2l-1.5.3c-.1 0-.1 0-.2-.1 0-.1 0-.1.1-.2l1.5-.3c.1 0 .2.1.2.1M28.6 67c0 .1 0 .1-.1.2l-1.5.3c-.1 0-.1 0-.2-.1 0-.1 0-.1.1-.2l1.5-.3c.1 0 .2 0 .2.1M28.7 67.4c0 .1 0 .1-.1.2l-1.6.3c-.1 0-.1 0-.2-.1 0-.1 0-.1.1-.2l1.5-.3c.2-.1.2 0 .3.1"/><path fill="#BDBCBC" d="M28.7 67.7c0 .1 0 .1-.1.2l-1.5.3c-.1 0-.1 0-.2-.1 0-.1 0-.1.1-.2l1.5-.3c.1 0 .2.1.2.1M28.8 68.1c0 .1 0 .1-.1.2l-1.5.3c-.1 0-.1 0-.2-.1 0-.1 0-.1.1-.2l1.5-.3c.1 0 .2 0 .2.1M28.9 68.4c0 .1 0 .1-.1.2l-1.5.4c-.1 0-.1 0-.2-.1s0-.1.1-.2l1.5-.3c.1-.1.2 0 .2 0"/><path fill="#BDBCBC" d="M29 68.8c0 .1 0 .1-.1.2l-1.5.3c-.1 0-.1 0-.2-.1 0-.1 0-.1.1-.2l1.5-.3c.1 0 .2 0 .2.1M29.1 69.2c0 .1 0 .1-.1.2l-1.5.3c-.1 0-.1 0-.2-.1 0-.1 0-.1.1-.2l1.5-.3c.1 0 .2 0 .2.1"/><path fill="#BDBCBC" d="M29.2 69.5c0 .1 0 .1-.1.2l-1.6.3c-.1 0-.1 0-.2-.1 0-.1 0-.1.1-.2l1.5-.3c.2 0 .2.1.3.1M29.2 69.9c0 .1 0 .1-.1.2l-1.5.3c-.1 0-.1 0-.2-.1s0-.1.1-.2l1.5-.3c.1 0 .2 0 .2.1M29.3 70.3c0 .1 0 .1-.1.2l-1.5.3c-.1 0-.1 0-.2-.1 0-.1 0-.1.1-.2l1.5-.3c.1-.1.2 0 .2.1"/><path fill="#BDBCBC" d="M29.4 70.6c0 .1 0 .1-.1.2l-1.5.3c-.1 0-.1 0-.2-.1 0-.1 0-.1.1-.2l1.5-.3c.1 0 .2.1.2.1M29.5 71c0 .1 0 .1-.1.2l-1.5.3c-.1 0-.1 0-.2-.1 0-.1 0-.1.1-.2l1.5-.3c.1 0 .2 0 .2.1M29.4 71.4c0 .1 0 .1-.1.2l-1.2.3c-.1 0-.1 0-.2-.1 0-.1 0-.1.1-.2l1.2-.3c.2 0 .2 0 .2.1M29.4 71.8c0 .1 0 .1-.1.2l-1 .2c-.1 0-.1 0-.2-.1 0-.1 0-.1.1-.2l1-.2c.1 0 .2 0 .2.1M25.7 61.9c0-.1 0-.1.1-.2l1.2-.3c.1 0 .1 0 .2.1 0 .1 0 .1-.1.2l-1.3.3s-.1 0-.1-.1M25.7 61.5c0-.1 0-.1.1-.2l1-.2c.1 0 .1 0 .2.1 0 .1 0 .1-.1.2l-1 .2c-.1.1-.2 0-.2-.1"/><path fill="#DEDDDE" d="M27.2 62c0 .1 0 .1-.1.2l-1.1.2c-.1 0-.1 0-.1-.1s0-.1.1-.2l1.1-.3s.1.1.1.2M27.3 62.3c0 .1 0 .1-.1.2l-1.1.3c-.1 0-.1 0-.1-.1s0-.1.1-.2l1.1-.3s0 .1.1.1M27.3 62.7c0 .1 0 .1-.1.2l-1.1.3c-.1 0-.1 0-.1-.1s0-.1.1-.2l1.1-.3c.1 0 .1 0 .1.1M27.4 63.1c0 .1 0 .1-.1.2l-1.1.3c-.1 0-.1 0-.1-.1s0-.1.1-.2l1.1-.3c.1-.1.1 0 .1.1M27.5 63.4c0 .1 0 .1-.1.2l-1.1.3c-.1 0-.1 0-.1-.1s0-.1.1-.2l1.1-.3s.1 0 .1.1M27.6 63.8c0 .1 0 .1-.1.2l-1.1.3c-.1 0-.1 0-.1-.1s0-.1.1-.2l1.1-.3s.1 0 .1.1M27.7 64.1c0 .1 0 .1-.1.2l-1.1.3c-.1 0-.1 0-.1-.1s0-.1.1-.2l1.1-.3.1.1M27.8 64.5c0 .1 0 .1-.1.2l-1.1.3c-.1 0-.1 0-.1-.1s0-.1.1-.2l1.1-.3.1.1M27.8 64.9c0 .1 0 .1-.1.2l-1.1.3c-.1 0-.1 0-.1-.1s0-.1.1-.2l1.1-.3c.1-.1.1 0 .1.1M27.9 65.2c0 .1 0 .1-.1.2l-1.1.3c-.1 0-.1 0-.1-.1s0-.1.1-.2l1.1-.3c.1 0 .1.1.1.1M28 65.6c0 .1 0 .1-.1.2l-1.1.2c-.1 0-.1 0-.1-.1s0-.1.1-.2l1.1-.3c0 .1.1.1.1.2M28.1 66c0 .1 0 .1-.1.2l-1.1.3c-.1 0-.1 0-.1-.1s0-.1.1-.2l1.1-.3c0-.1.1 0 .1.1"/><path fill="#DEDDDE" d="M28.2 66.3c0 .1 0 .1-.1.2l-1.1.2c-.1 0-.1 0-.1-.1s0-.1.1-.2l1.1-.3c0 .1.1.2.1.2M28.3 66.7c0 .1 0 .1-.1.2l-1.1.3c-.1 0-.1 0-.1-.1s0-.1.1-.2l1.1-.3.1.1"/><path fill="#DEDDDE" d="M28.3 67c0 .1 0 .1-.1.2l-1.1.3c-.1 0-.1 0-.1-.1s0-.1.1-.2l1.1-.3c.1 0 .1.1.1.1M28.4 67.4c0 .1 0 .1-.1.2l-1.1.3c-.1 0-.1 0-.1-.1s0-.1.1-.2l1.1-.3c.1 0 .1 0 .1.1M28.5 67.8c0 .1 0 .1-.1.2l-1.1.3c-.1 0-.1 0-.1-.1s0-.1.1-.2l1.1-.3s.1 0 .1.1M28.6 68.1c0 .1 0 .1-.1.2l-1.1.3c-.1 0-.1 0-.1-.1s0-.1.1-.2l1.1-.3.1.1M28.7 68.5c0 .1 0 .1-.1.2l-1.1.3c-.1 0-.1 0-.1-.1s0-.1.1-.2l1.1-.3s.1 0 .1.1M28.8 68.9c0 .1 0 .1-.1.2l-1.1.3c-.1 0-.1 0-.1-.1s0-.1.1-.2l1.1-.3c0-.1 0 0 .1.1"/><path fill="#DEDDDE" d="M28.8 69.2c0 .1 0 .1-.1.2l-1.1.3c-.1 0-.1 0-.1-.1s0-.1.1-.2l1.1-.3c.1 0 .1.1.1.1M28.9 69.6c0 .1 0 .1-.1.2l-1.1.2c-.1 0-.1 0-.1-.1s0-.1.1-.2l1.1-.3c.1.1.1.1.1.2M29 70c0 .1 0 .1-.1.2l-1.1.3c-.1 0-.1 0-.1-.1s0-.1.1-.2l1.1-.3c0-.1.1 0 .1.1M29.1 70.3c0 .1 0 .1-.1.2l-1.1.3c-.1 0-.1 0-.1-.1s0-.1.1-.2l1.1-.3s.1 0 .1.1M29.2 70.7c0 .1 0 .1-.1.2l-1.1.2c-.1 0-.1 0-.1-.1s0-.1.1-.2l1.1-.3c0 .1.1.1.1.2M29.3 71c0 .1 0 .1-.1.2l-1.1.3c-.1 0-.1 0-.1-.1s0-.1.1-.2l1.1-.3s0 .1.1.1M29.2 71.4c0 .1 0 .1-.1.2l-.9.2c-.1 0-.1 0-.1-.1s0-.1.1-.2l.9-.2c.1 0 .1.1.1.1M29.2 71.8c0 .1 0 .1-.1.2l-.7.2c-.1 0-.1 0-.1-.1s0-.1.1-.2l.7-.2c.1 0 .1 0 .1.1M25.9 61.9c0-.1 0-.1.1-.2l.9-.2c.1 0 .1 0 .1.1s0 .1-.1.2l-.9.2c-.1 0-.1 0-.1-.1M25.9 61.5c0-.1 0-.1.1-.2l.7-.2c.1 0 .1 0 .1.1s0 .1-.1.2l-.7.2s-.1 0-.1-.1"/><path fill="#F4F4F4" d="M26.7 62.1v.1l-.5.1s-.1 0-.1-.1v-.1l.5-.1c.1-.1.1 0 .1.1M26.8 62.4v.1l-.5.1s-.1 0-.1-.1v-.1l.5-.1.1.1M26.9 62.8v.1l-.5.1s-.1 0-.1-.1v-.1l.5-.1s.1 0 .1.1M27 63.2v.1l-.5.1s-.1 0-.1-.1v-.1l.5-.1c0-.1 0 0 .1.1M27 63.5v.1l-.5.1s-.1 0-.1-.1v-.1l.5-.1c.1 0 .1.1.1.1M27.1 63.9v.1l-.5.1s-.1 0-.1-.1v-.1l.5-.1c.1 0 .1 0 .1.1M27.2 64.3v.1l-.5.1s-.1 0-.1-.1v-.1l.5-.1c.1-.1.1 0 .1.1M27.3 64.6v.1l-.5.1s-.1 0-.1-.1v-.1l.5-.1s.1 0 .1.1M27.4 65v.1l-.5.1s-.1 0-.1-.1V65l.5-.1s.1 0 .1.1M27.5 65.3v.1l-.5.1s-.1 0-.1-.1v-.1l.5-.1s0 .1.1.1M27.5 65.7v.1l-.5.2s-.1 0-.1-.1v-.1l.5-.1c.1-.1.1-.1.1 0M27.6 66.1v.1l-.5.1s-.1 0-.1-.1v-.1l.5-.1c.1-.1.1 0 .1.1M27.7 66.4v.1l-.5.1s-.1 0-.1-.1v-.1l.5-.1c.1 0 .1.1.1.1M27.8 66.8v.1l-.5.1s-.1 0-.1-.1v-.1l.5-.1s.1 0 .1.1M27.9 67.2v.1l-.5.1s-.1 0-.1-.1v-.1l.5-.1c0-.1.1 0 .1.1M28 67.5v.1l-.5.1s-.1 0-.1-.1v-.1l.5-.1.1.1M28 67.9v.1l-.5.1s-.1 0-.1-.1v-.1l.5-.1c.1 0 .1 0 .1.1M28.1 68.2v.1l-.5.1s-.1 0-.1-.1v-.1l.5-.1c.1 0 .1.1.1.1M28.2 68.6v.1l-.5.1s-.1 0-.1-.1v-.1l.5-.1c.1 0 .1 0 .1.1M28.3 69v.1l-.5.1s-.1 0-.1-.1V69l.5-.1c0-.1.1 0 .1.1M28.4 69.3v.1l-.5.1s-.1 0-.1-.1v-.1l.5-.1.1.1M28.5 69.7v.1l-.6.2s-.1 0-.1-.1v-.1l.5-.1c.1-.1.1-.1.2 0M28.5 70.1v.1l-.5.1s-.1 0-.1-.1v-.1l.5-.1c.1-.1.1 0 .1.1M28.6 70.4v.1l-.5.1s-.1 0-.1-.1v-.1l.5-.1c.1 0 .1.1.1.1M28.7 70.8v.1l-.5.1s-.1 0-.1-.1v-.1l.5-.1c.1 0 .1 0 .1.1M28.8 71.1v.1l-.5.1s-.1 0-.1-.1v-.1l.5-.1.1.1M28.8 71.5v.1l-.4.1s-.1 0-.1-.1v-.1l.4-.1c.1 0 .1.1.1.1M28.9 71.9v.1l-.4.1s-.1 0-.1-.1v-.1l.4-.1s.1 0 .1.1M26 61.8v-.1l.4-.1s.1 0 .1.1v.1l-.4.2s0-.1-.1-.2M26 61.5v-.1l.4-.1s.1 0 .1.1v.1l-.4.1-.1-.1"/><path fill="#BDBCBC" d="M23.2 14.2c-.3.3-.8.3-1.1 0-.3-.3-.3-.8 0-1.1l2.1-2.1c.3-.3.8-.3 1.1 0 .3.3.3.8 0 1.1l-2.1 2.1z"/><path fill="#918F90" d="M22.2 13.3l2.1-2.1c.3-.3.7-.4.9-.1-.3-.3-.8-.3-1.1 0L22 13.2c-.3.3-.3.8 0 1.1-.1-.3-.1-.7.2-1"/><path fill="#918F90" d="M25.3 11c.2.2.2.6-.1.9L23 14.1c-.3.3-.7.4-.9.1.3.3.8.3 1.1 0l2.1-2.1c.3-.3.3-.8 0-1.1"/><path fill="#A7A5A6" d="M23 14.1l2.1-2.1c.3-.3.4-.7.1-.9.2.2.1.6-.2.9l-2 2.1c-.4.2-.8.3-.9.1.2.3.6.2.9-.1"/><path fill="#A7A5A6" d="M22.3 13.4l2.1-2.1c.3-.3.7-.4.9-.2-.2-.2-.6-.2-.9.1l-2.1 2.2c-.4.2-.4.6-.2.9-.2-.3-.1-.6.2-.9"/><path fill="none" stroke="#231F20" stroke-width=".203" stroke-miterlimit="10" d="M23.7 11.5l1.1 1.1"/><path fill="none" stroke="#FFF" stroke-width=".081" stroke-miterlimit="10" d="M23.6 11.6l1.1 1.1"/><path fill="#BDBCBC" d="M22.335 13.278l.636.637L.628 36.26l-.637-.637zM26.3 11.3l-1-1.2-1.2-1.4-.6.5 1 1.2c-.4.4-.5 1.1-.1 1.5.4.4 1.1.5 1.5.1l.8 1 .6-.5-1-1.2z"/><path fill="#7B7979" d="M23.5 9.19l.536-.45.13.153-.536.45zM26.59 12.755l.534-.45.13.15-.536.453z"/><path fill="#918F90" d="M23.655 9.368l.534-.452.064.076-.534.452zM26.563 12.73l.535-.45.064.075-.534.452z"/><path fill="#4F4C4D" d="M27.3 12.5l-.1-.1-.8-1-1-1.2-1.2-1.4H24c1.1 1.2 2.2 2.5 3.1 3.8l.2-.1z"/><path fill="#B2B1B1" d="M28.5 13.9c-1.3-3.2-4.9-6.4-7.3-8.9l-.4.4c2.4 2.4 6.1 5.7 7.2 9 .7 2.1 1.1 4.3 1.9 6.3.8 2 2.3 3.6 3.7 5l1-1c-1.4-1.4-2.9-3-3.8-4.9-1-1.9-1.6-4-2.3-5.9"/><path fill="#918F90" d="M41.4 9.1c-2-.8-4.2-1.2-6.3-1.9-3.3-1.1-6.6-4.7-9-7.2l-.4.4c2.4 2.4 5.7 6 8.9 7.3 2 .8 4 1.3 5.9 2.2 1.9.9 3.5 2.4 4.9 3.8l1-1c-1.4-1.3-3-2.8-5-3.6"/><path fill="#D3D2D2" d="M34.6 7.8c-3.2-1.3-6.4-4.9-8.9-7.3l-.5.5c2.4 2.4 5.7 6 8.7 7.5 1.8.9 3.7 1.6 5.5 2.6 1.8 1 3.3 2.5 4.8 3.9l1.2-1.1c-1.4-1.4-3-2.9-4.9-3.8-1.9-1-4-1.6-5.9-2.3M29.1 13.2c-1.5-3-5.1-6.3-7.5-8.7l-.5.5c2.4 2.4 6 5.7 7.3 8.9.8 1.9 1.3 4 2.2 5.9.9 1.9 2.4 3.5 3.8 4.9l1.1-1.2c-1.4-1.4-2.9-3-3.9-4.8-.9-1.7-1.6-3.6-2.5-5.5"/><path fill="#D3D2D2" d="M33.9 8.4c-3-1.5-6.3-5.1-8.7-7.5l-.7.7C27 4 30.3 7.6 33 9.3c1.7 1.1 3.3 2 5 3.2 1.6 1.2 3.2 2.6 4.6 4.1l1.6-1.6c-1.4-1.4-3-2.9-4.8-3.9-1.7-1.1-3.6-1.8-5.5-2.7"/><path fill="#EDEDED" d="M30 12.3c-1.8-2.7-5.3-6.1-7.7-8.5l-.7.7c2.4 2.4 6 5.7 7.5 8.7.9 1.8 1.6 3.7 2.6 5.5 1 1.8 2.5 3.3 3.9 4.8l1.6-1.6c-1.4-1.4-2.9-3-4.1-4.6-1.1-1.7-2-3.3-3.1-5"/><path fill="#BDBCBC" d="M33 9.3c-2.7-1.7-6-5.3-8.5-7.7l-.5.6c2.4 2.4 5.8 5.9 8.3 7.9 1.5 1.2 3 2.4 4.5 3.7 1.5 1.3 3 2.8 4.5 4.2l1.4-1.4c-1.4-1.4-3-2.9-4.6-4.1-1.8-1.2-3.4-2.1-5.1-3.2"/><path fill="#F4F4F4" d="M30.8 11.5c-2-2.4-5.5-5.9-7.9-8.3l-.6.6c2.4 2.4 6 5.8 7.7 8.5 1.1 1.7 2 3.3 3.2 5 1.2 1.6 2.6 3.2 4.1 4.6l1.4-1.4c-1.4-1.4-2.9-3-4.2-4.5-1.3-1.5-2.5-3-3.7-4.5"/><path fill="#D3D2D2" d="M32.2 10.1c-2.4-2-5.9-5.5-8.3-7.9l-1.1 1.1c2.4 2.4 5.9 5.8 7.9 8.3 1.2 1.5 2.4 3 3.7 4.5 1.3 1.5 2.8 3 4.2 4.5l2.5-2.5c-1.4-1.4-3-2.9-4.5-4.2-1.4-1.4-2.9-2.6-4.4-3.8"/><path fill="#D3D2D2" d="M21.635 3.973L24.888.72l.283.283-3.253 3.253z"/><path fill="#918F90" d="M21.807 4.138L25.06.886l.07.07L21.88 4.21z"/><path fill="#D3D2D2" d="M24.5 1.1l-1-.2-.2 1.5-1.3 1v.2"/><path fill="#918F90" d="M22 3.6l1.3-1.2-.5.4M23.3 2.4l1.2-1.3-1.2 1.2"/><path fill="#D3D2D2" d="M26.7 60.8c.2.2.2.6 0 .8-.2.2-.6.2-.8 0L.4 36.1c-.2-.2-.2-.6 0-.8.2-.2.6-.2.8 0l25.5 25.5z"/><path fill="#DEDDDE" d="M24 58.9c-.2.2-.6.2-.8-.1-.2-.2-.2-.6.1-.8l1.8-1.6c.2-.2.6-.2.8.1.2.2.2.6-.1.8L24 58.9z"/><path fill="#656263" d="M1.2 35.7c0 .2-.2.4-.4.4s-.4-.2-.4-.4.2-.4.4-.4.4.2.4.4"/><path fill="#C8C7C7" d="M1 35.7c0 .1-.1.2-.2.2s-.2-.1-.2-.2.1-.2.2-.2.2.1.2.2"/><path fill="#D3D2D2" d="M31.8 62.4c.2.2.2.6 0 .8-.2.2-.6.2-.8 0L2.1 34.4c-.2-.2-.2-.6 0-.8.2-.2.6-.2.8 0l28.9 28.8z"/><path fill="#656263" d="M2.9 34c0 .2-.2.4-.4.4s-.4-.2-.4-.4.2-.4.4-.4.4.2.4.4"/><path fill="#C8C7C7" d="M2.7 34c0 .1-.1.2-.2.2s-.2-.1-.2-.2.1-.2.2-.2.2.1.2.2"/><path fill="#656263" d="M24 58.5c0 .2-.2.4-.4.4s-.4-.2-.4-.4.2-.4.4-.4.4.2.4.4"/><path fill="#C8C7C7" d="M23.8 58.5c0 .1-.1.2-.2.2s-.2-.1-.2-.2.1-.2.2-.2.2.1.2.2"/><path fill="#656263" d="M26.7 61.2c0 .2-.2.4-.4.4s-.4-.2-.4-.4.2-.4.4-.4.4.2.4.4"/><path fill="#C8C7C7" d="M26.5 61.2c0 .1-.1.2-.2.2s-.2-.1-.2-.2.1-.2.2-.2.2.1.2.2"/><path fill="#656263" d="M31.8 62.8c0 .2-.2.4-.4.4s-.4-.2-.4-.4.2-.4.4-.4.4.2.4.4"/><path fill="#C8C7C7" d="M31.6 62.8c0 .1-.1.2-.2.2s-.2-.1-.2-.2.1-.2.2-.2.2.1.2.2"/><path fill="#656263" d="M30.1 61.2c0 .2-.2.4-.4.4s-.4-.2-.4-.4.2-.4.4-.4.4.2.4.4"/><path fill="#C8C7C7" d="M30 61.2c0 .1-.1.2-.2.2s-.2-.1-.2-.2.1-.2.2-.2.2.1.2.2"/><path fill="#656263" d="M25.8 56.9c0 .2-.2.4-.4.4s-.4-.2-.4-.4.2-.4.4-.4.4.1.4.4"/><path fill="#C8C7C7" d="M25.6 56.9c0 .1-.1.2-.2.2s-.2-.1-.2-.2.1-.2.2-.2.2.1.2.2"/><path fill="#DEDDDE" d="M28.1 78.4v-5.7c0-.2.1-.3.3-.3H30c.2 0 .3.1.3.3v5.7h-2.2z"/><path fill="#E7E6E7" d="M30 74.8c0 .4-.3.4-.8.4s-.8 0-.8-.4v-2.9c0-.4.3-.8.8-.8s.8.3.8.8v2.9z"/><path fill="#BDBCBC" d="M28.5 74.9c0 .3.4.3.7.3.4 0 .7 0 .7-.3h-1.4z"/><path fill="#A7A5A6" d="M30.1 75.6h.2v2.8h-.2zM28.1 75.6h.2v2.8h-.2z"/><path fill="#DEDDDE" d="M29.2 75.6h.9v2.8h-.9zM28.3 75.6h.3v2.8h-.3z"/><path fill="#F4F4F4" d="M28.6 75.6h.6v2.8h-.6z"/><path fill="#A7A5A6" d="M30.6 78.4h-2.8L16.1 80v.6H42.4V80"/><path fill="#C8C7C7" d="M30.5 78.4H28L17.5 80v.6h23.4V80"/><path fill="#E7E6E7" d="M29.9 78.4h-1.4l-6 1.6v.6H36V80"/><path fill="#656263" d="M29.6 71.9c0 .2-.2.4-.4.4s-.4-.2-.4-.4.2-.4.4-.4.4.2.4.4"/><path fill="#C8C7C7" d="M29.4 71.9c0 .1-.1.2-.2.2s-.2-.1-.2-.2.1-.2.2-.2.2.1.2.2"/><path fill="#FFF" d="M16.5 80.1h25.1c-2.1.1-4.2.1-6.3.1l-6.3.1-6.3-.1c-2 0-4.1 0-6.2-.1z"/></svg>