<svg xmlns="http://www.w3.org/2000/svg" xmlns:xlink="http://www.w3.org/1999/xlink" width="77.9" height="27" viewBox="0 0 77.9 27"><path fill="#D3D2D2" d="M0 13.5v13.3c.2.4.5 0 .5 0 0-4.9 2.7-7.4 4.3-7.6 1.3-.2 2.3-1.1 2.5-1.4.2.1.3.2.5.2.4 0 .7-.3.7-.7L50 15.8v-4.5L8.5 9.7c0-.4-.3-.7-.7-.7-.2 0-.3.1-.5.2-.2-.3-1.2-1.2-2.5-1.4C3.2 7.6.5 5.1.5.2c0 0-.4-.4-.5 0v13.3z"/><path fill="#BBBABA" d="M8.5 9.7c0-.4-.3-.7-.7-.7-.2 0-.4.1-.5.2-.2-.3-1.1-1.2-2.5-1.4C3.3 7.6.6 5.1.6.2.6.2.2-.2.1.2v3.4c.2-.3.5 0 .5 0 0 3.7 2.7 5.6 4.3 5.7 1.3.1 2.3.8 2.5 1.1.1-.1.3-.2.5-.2.4 0 .7.2.7.5L50 11.8v-.6L8.5 9.7z"/><path fill="#918F90" d="M8.5 16.4c0 .3-.3.5-.7.5-.2 0-.4-.1-.5-.1-.3.2-1.2.9-2.5 1.1-1.6.2-4.3 2-4.3 5.7 0 0-.4.3-.5 0V27c.2.4.5 0 .5 0 0-4.9 2.7-7.4 4.3-7.6 1.3-.2 2.3-1.1 2.5-1.4.2-.1.4 0 .5 0 .4 0 .7-.3.7-.7L50 15.8v-.6L8.5 16.4z"/><g opacity=".5"><defs><path id="a" d="M0 3.4h50v8.8H0z"/></defs><clipPath id="b"><use xlink:href="#a" overflow="visible"/></clipPath><path clip-path="url(#b)" fill="#F4F4F4" d="M8.5 10.7c0-.3-.3-.5-.7-.5-.2 0-.4.1-.5.2-.3-.2-1.2-.9-2.5-1.1C3.2 9.1.5 7.3.5 3.6c0 0-.4-.3-.5 0v4.6c.2-.1.5 0 .5 0 0 1.8 2.7 2.7 4.3 2.8 1.3.1 2.3.4 2.5.5.1 0 .3-.1.5-.1.4 0 .7.1.7.2l41.5.5v-.3L8.5 10.7z"/></g><path fill="#BDBCBC" d="M47.9 9.2h4V18h-4z"/><path fill="#9C9A9B" d="M47.9 16.9h4V18h-4zM47.9 9.2h4v1.1h-4z"/><path fill="#E9E9E9" d="M47.9 11.9h4v1.2h-4z"/><path fill="#2E2A2B" d="M66.3 1.9c-3.7 0-6.6 1.8-8.4 4.5-1.1 1.2-3.1 2.8-6 2.8V18c3 0 5.1 1.7 6.2 2.9.2.3.5.7.8 1 0 .1.1.1.1.1 1.8 2 4.3 3.3 7.5 3.3 6.4 0 11.6-5.2 11.6-11.6-.2-6.6-5.4-11.8-11.8-11.8"/><g opacity=".4"><defs><path id="c" d="M51.9 13.6h26v11.7h-26z"/></defs><clipPath id="d"><use xlink:href="#c" overflow="visible"/></clipPath><path clip-path="url(#d)" fill="#231F20" d="M66.3 22.7c-3.1 0-5.7-1-7.5-2.6l-.1-.1c-.3-.2-.5-.5-.8-.8-.9-.8-3-2.2-6-2.2v1c3 0 5.1 1.7 6.2 2.9.2.3.5.7.8 1 0 .1.1.1.1.1 1.8 2 4.3 3.3 7.5 3.3 6.4 0 11.6-5.2 11.6-11.6v-.1c-.2 5-5.4 9.1-11.8 9.1"/></g><path fill="#E4E4E4" d="M.3 12.5c.1 0 .3.1.4.1.1 0 .3.1.4.1.3.1.6.1.9.1.6 0 1.1.1 1.7.2.6 0 1.2.1 1.8.1l1.7.1-.2.2c.1-.2.2-.2.3-.3.2-.1.3-.1.5-.1H8.1c.1 0 .2.1.2.1l.2.2-.3-.2H13c1.6 0 3.2.1 4.8.1 1.6 0 3.2 0 4.8-.1l4.8-.1c3.2-.1 6.5-.1 9.7 0 3.2.1 6.5.1 9.7.3v.1c-3.2.2-6.5.2-9.7.3h-9.7l-4.8-.1c-1.6 0-3.2-.1-4.8-.1-1.6 0-3.2.1-4.8.1-1.6.1-3.2.1-4.8 0H8h-.2s-.1 0 0 0h-.2c-.1 0-.1.1-.1.1l-.1.1h-.1l-1.8-.1c-.6-.1-1.2-.2-1.8-.2l-1.8-.3c-.3-.1-.6-.1-.9-.2-.1 0-.3-.1-.4-.1-.1-.2-.2-.2-.3-.4z"/><g opacity=".5"><defs><path id="e" d="M7.2 9.5h.3v7.9h-.3z"/></defs><clipPath id="f"><use xlink:href="#e" overflow="visible"/></clipPath><path clip-path="url(#f)" fill="#9A9898" d="M7.4 9.5s.1.5.1 1.2.1 1.7.1 2.7c0 1 0 2-.1 2.7 0 .7-.1 1.2-.1 1.2s-.1-.5-.1-1.2-.1-1.7-.1-2.7c0-1 0-2 .1-2.7 0-.7.1-1.2.1-1.2"/></g><g opacity=".5"><defs><path id="g" d="M8.3 9.9h.3v7.2h-.3z"/></defs><clipPath id="h"><use xlink:href="#g" overflow="visible"/></clipPath><path clip-path="url(#h)" fill="#9A9898" d="M8.5 9.9s0 .4.1 1.1c0 .7.1 1.6.1 2.5 0 .9 0 1.8-.1 2.5 0 .7-.1 1.1-.1 1.1s0-.4-.1-1.1c0-.7-.1-1.6-.1-2.5 0-.9 0-1.8.1-2.5 0-.6.1-1.1.1-1.1"/></g><g opacity=".5"><defs><path id="i" d="M.5 2.3h.2V24H.5z"/></defs><clipPath id="j"><use xlink:href="#i" overflow="visible"/></clipPath><path clip-path="url(#j)" fill="#F8F8F8" d="M.6 2.3V2.3"/></g><g opacity=".3"><defs><path id="k" d="M53.1 6.7h20.8v5.9H53.1z"/></defs><clipPath id="l"><use xlink:href="#k" overflow="visible"/></clipPath><path clip-path="url(#l)" fill="#E9E9E9" d="M53.1 12.6s.4 0 1-.1c.3 0 .7-.1 1.1-.2.4-.1.9-.2 1.4-.3.5-.1 1-.3 1.6-.6.5-.3 1-.7 1.5-1.1 1-.8 2.2-1.7 3.5-2.4.6-.3 1.3-.6 2-.8.7-.2 1.4-.3 2.1-.3.7 0 1.3.1 1.9.2.6.1 1.2.3 1.7.5s.9.4 1.3.6c.4.2.7.4 1 .6.5.3.8.5.8.5s-.3-.2-.9-.5c-.3-.1-.6-.4-1-.5-.4-.2-.8-.4-1.3-.5-.5-.1-1-.3-1.6-.4-.3 0-.6-.1-.9-.1h-1c-.7 0-1.3.1-2 .2s-1.3.4-2 .7c-.6.3-1.3.6-1.8 1-.6.4-1.1.8-1.6 1.3s-.9.9-1.5 1.2c-.5.3-1.1.5-1.6.6-.5.2-1 .2-1.4.3-.4 0-.8.1-1.1.1h-1.2z"/></g><g opacity=".6"><defs><path id="m" d="M66.6 7.8h5.9v3h-5.9z"/></defs><clipPath id="n"><use xlink:href="#m" overflow="visible"/></clipPath><path clip-path="url(#n)" fill="#E9E9E9" d="M72.5 10.6c-.2.5-1.7.3-3.3-.4-1.6-.7-2.8-1.6-2.6-2.1.2-.5 1.7-.3 3.3.4 1.6.7 2.8 1.7 2.6 2.1"/></g></svg>