<svg xmlns="http://www.w3.org/2000/svg" xmlns:xlink="http://www.w3.org/1999/xlink" width="69.5" height="41.2" viewBox="0 0 69.5 41.2"><path fill="none" stroke="#C8C7C7" stroke-width=".186" stroke-miterlimit="10" d="M50.9 1c.9.3 1.8.2 2.4 1 .7 1.1 1.1 2.6.7 3.9-.6 2.4-3.5 3-4.7 4.9"/><path fill="none" stroke="#C8C7C7" stroke-width=".186" stroke-miterlimit="10" d="M51.4.5c2.8.5 6.1 2.5 4.4 5.8C54 9.6 48.6 8.9 45.6 9"/><path fill="none" stroke="#C8C7C7" stroke-width=".186" stroke-miterlimit="10" d="M50.9.4c3.1 0 6.4 3 5 6.3-.7 1.7-1.2 2.6-2.6 3.8-.8.8-3.2 1.6-4.3 1.4"/><path fill="none" stroke="#464A47" stroke-width="1.301" stroke-linecap="round" stroke-miterlimit="10" d="M28.5 29.1c.1-.5.1-1 .1-1.5 0-7.8-6.3-14.1-14.1-14.1-6.9 0-12.7 5-13.8 11.6M55.1 13.9c-6.5 0-11.9 4.7-13 10.9"/><path fill="#C1C0C1" d="M14.5 15.6c6.7 0 12.1 5.4 12.1 12.1 0 6.7-5.4 12.1-12.1 12.1S2.4 34.3 2.4 27.7c0-6.7 5.4-12.1 12.1-12.1m0-1.5C7 14.1.9 20.2.9 27.7S7 41.3 14.5 41.3s13.6-6.1 13.6-13.6S22 14.1 14.5 14.1"/><path fill="#393536" d="M14.5 14.6c7.2 0 13 5.8 13 13s-5.8 13-13 13-13-5.8-13-13c0-7.1 5.8-13 13-13m0-.5C7 14.1.9 20.2.9 27.7S7 41.3 14.5 41.3s13.6-6.1 13.6-13.6S22 14.1 14.5 14.1"/><path fill="none" stroke="#B2B1B1" stroke-width=".148" stroke-miterlimit="10" d="M13.4 15.2L15.6 40M15.6 15.2L13.4 40M6.3 18.2L22.7 37M8.1 16.9l12.8 21.4M2.4 24.8l24.2 5.6M3.1 22.7l22.8 9.8M3.1 32.5l22.8-9.8M2.4 30.4l24.2-5.6M8.1 38.3l12.8-21.4M6.3 37l16.4-18.8"/><g opacity=".3"><defs><path id="a" d="M.9 14.1h27.2v27.2H.9z"/></defs><clipPath id="b"><use xlink:href="#a" overflow="visible"/></clipPath><g clip-path="url(#b)"><defs><path id="c" d="M1.4 27.7h26.1v13H1.4z"/></defs><clipPath id="d"><use xlink:href="#c" overflow="visible"/></clipPath><path clip-path="url(#d)" fill="#C1C0C1" d="M14.5 40.7c7.2 0 13-5.8 13-13h-.9c0 6.7-5.4 12.1-12.1 12.1-6.7 0-12.1-5.4-12.1-12.1h-1c0 7.1 5.9 13 13.1 13"/></g><g clip-path="url(#b)"><defs><path id="e" d="M.9 27.7h27.2v13.6H.9z"/></defs><clipPath id="f"><use xlink:href="#e" overflow="visible"/></clipPath><path clip-path="url(#f)" fill="#393536" d="M14.5 40.7c-7.2 0-13-5.8-13-13H.9c0 7.5 6.1 13.6 13.6 13.6s13.6-6.1 13.6-13.6h-.6c0 7.1-5.8 13-13 13"/></g><g clip-path="url(#b)"><defs><path id="g" d="M1.4 14.6h26.1v13H1.4z"/></defs><clipPath id="h"><use xlink:href="#g" overflow="visible"/></clipPath><path clip-path="url(#h)" fill="#C1C0C1" d="M2.4 27.7c0-6.7 5.4-12.1 12.1-12.1 6.7 0 12.1 5.4 12.1 12.1h.9c0-7.2-5.8-13-13-13s-13 5.8-13 13h.9z"/></g><g clip-path="url(#b)"><defs><path id="i" d="M.9 14.1h27.2v13.6H.9z"/></defs><clipPath id="j"><use xlink:href="#i" overflow="visible"/></clipPath><path clip-path="url(#j)" fill="#393536" d="M14.5 14.1C7 14.1.9 20.2.9 27.7h.6c0-7.2 5.8-13 13-13s13 5.8 13 13h.6c0-7.5-6.1-13.6-13.6-13.6"/></g></g><defs><path id="k" d="M1.7 27.4h25.6v12.9H1.7z"/></defs><clipPath id="l"><use xlink:href="#k" overflow="visible"/></clipPath><path clip-path="url(#l)" fill="#BDBCBC" d="M27.3 27.4c0 1.7-.3 3.4-.9 4.9-.6 1.6-1.6 3-2.8 4.2-2.4 2.4-5.7 3.8-9.1 3.8-3.4 0-6.7-1.4-9.1-3.8-1.2-1.2-2.1-2.6-2.8-4.2-.6-1.6-.9-3.2-.9-4.9 0 3.4 1.4 6.6 3.8 9 2.4 2.4 5.7 3.7 9 3.7s6.6-1.3 9-3.7c2.3-2.4 3.8-5.6 3.8-9"/><defs><path id="m" d="M1.7 14.8h25.6v12.9H1.7z"/></defs><clipPath id="n"><use xlink:href="#m" overflow="visible"/></clipPath><path clip-path="url(#n)" fill="#BDBCBC" d="M1.7 27.7c0-1.7.3-3.4.9-4.9.6-1.6 1.6-3 2.8-4.2 2.4-2.4 5.7-3.8 9.1-3.8 3.4 0 6.7 1.4 9.1 3.8 1.2 1.2 2.1 2.6 2.8 4.2.6 1.6.9 3.2.9 4.9 0-3.4-1.4-6.6-3.8-9-2.4-2.4-5.7-3.7-9-3.7s-6.6 1.3-9 3.7c-2.4 2.4-3.8 5.7-3.8 9"/><path fill="#C1C0C1" d="M55.9 15.6C62.6 15.6 68 21 68 27.7c0 6.7-5.4 12.1-12.1 12.1-6.7 0-12.1-5.4-12.1-12.1 0-6.7 5.4-12.1 12.1-12.1m0-1.5c-7.5 0-13.6 6.1-13.6 13.6s6.1 13.6 13.6 13.6 13.6-6.1 13.6-13.6-6.1-13.6-13.6-13.6"/><path fill="#393536" d="M55.9 14.6c7.2 0 13 5.8 13 13s-5.8 13-13 13-13-5.8-13-13c0-7.1 5.8-13 13-13m0-.5c-7.5 0-13.6 6.1-13.6 13.6s6.1 13.6 13.6 13.6 13.6-6.1 13.6-13.6-6.1-13.6-13.6-13.6"/><path fill="none" stroke="#B2B1B1" stroke-width=".148" stroke-miterlimit="10" d="M54.7 15.2L57 40M57 15.2L54.7 40M47.7 18.2L64 37M49.5 16.9l12.7 21.4M43.7 24.8L68 30.4M44.4 22.7l22.9 9.8M44.4 32.5l22.9-9.8M43.7 30.4L68 24.8M49.5 38.3l12.7-21.4M47.7 37L64 18.2"/><g opacity=".3"><defs><path id="o" d="M42.3 14.1h27.2v27.2H42.3z"/></defs><clipPath id="p"><use xlink:href="#o" overflow="visible"/></clipPath><g clip-path="url(#p)"><defs><path id="q" d="M42.8 27.7h26.1v13H42.8z"/></defs><clipPath id="r"><use xlink:href="#q" overflow="visible"/></clipPath><path clip-path="url(#r)" fill="#C1C0C1" d="M55.8 40.7c7.2 0 13-5.8 13-13H68c0 6.7-5.4 12.1-12.1 12.1-6.7 0-12.1-5.4-12.1-12.1h-.9c-.1 7.1 5.8 13 12.9 13"/></g><g clip-path="url(#p)"><defs><path id="s" d="M42.3 27.7h27.2v13.6H42.3z"/></defs><clipPath id="t"><use xlink:href="#s" overflow="visible"/></clipPath><path clip-path="url(#t)" fill="#393536" d="M55.8 40.7c-7.2 0-13-5.8-13-13h-.6c0 7.5 6.1 13.6 13.6 13.6s13.6-6.1 13.6-13.6h-.6c.1 7.1-5.8 13-13 13"/></g><g clip-path="url(#p)"><defs><path id="u" d="M42.8 14.6h26.1v13H42.8z"/></defs><clipPath id="v"><use xlink:href="#u" overflow="visible"/></clipPath><path clip-path="url(#v)" fill="#C1C0C1" d="M43.7 27.7c0-6.7 5.4-12.1 12.1-12.1C62.5 15.6 68 21 68 27.7h.9c0-7.2-5.8-13-13-13s-13 5.8-13 13h.8z"/></g><g clip-path="url(#p)"><defs><path id="w" d="M42.3 14.1h27.2v13.6H42.3z"/></defs><clipPath id="x"><use xlink:href="#w" overflow="visible"/></clipPath><path clip-path="url(#x)" fill="#393536" d="M55.8 14.1c-7.5 0-13.6 6.1-13.6 13.6h.6c0-7.2 5.8-13 13-13s13 5.8 13 13h.6c0-7.6-6-13.6-13.6-13.6"/></g></g><defs><path id="y" d="M43.1 27.4h25.6v12.9H43.1z"/></defs><clipPath id="z"><use xlink:href="#y" overflow="visible"/></clipPath><path clip-path="url(#z)" fill="#BDBCBC" d="M68.7 27.4c0 1.7-.3 3.4-.9 4.9-.6 1.6-1.6 3-2.8 4.2-2.4 2.4-5.7 3.8-9.1 3.8-3.4 0-6.7-1.4-9.1-3.8-1.2-1.2-2.1-2.6-2.8-4.2-.6-1.6-.9-3.2-.9-4.9 0 3.4 1.4 6.6 3.8 9 2.4 2.4 5.7 3.7 9 3.7s6.6-1.3 9-3.7c2.3-2.4 3.7-5.6 3.8-9"/><defs><path id="A" d="M43.1 14.8h25.6v12.9H43.1z"/></defs><clipPath id="B"><use xlink:href="#A" overflow="visible"/></clipPath><path clip-path="url(#B)" fill="#BDBCBC" d="M43.1 27.7c0-1.7.3-3.4.9-4.9.6-1.6 1.6-3 2.8-4.2 2.4-2.4 5.7-3.8 9.1-3.8 3.4 0 6.7 1.4 9.1 3.8 1.2 1.2 2.1 2.6 2.8 4.2.6 1.6.9 3.2.9 4.9 0-3.4-1.4-6.6-3.8-9-2.4-2.4-5.7-3.7-9-3.7s-6.6 1.3-9 3.7c-2.4 2.4-3.8 5.7-3.8 9"/><path fill="none" stroke="#597F5C" stroke-width="1.115" stroke-miterlimit="10" d="M47.4 6.8l2 5.9s.3 1.7.9 3c.6 1.3 5.6 12 5.6 12"/><defs><path id="C" d="M47.2 7.3h8.3v20.4h-8.3z"/></defs><clipPath id="D"><use xlink:href="#C" overflow="visible"/></clipPath><path clip-path="url(#D)" fill="#597F5C" d="M47.2 7.3c.4 1 .7 1.9 1 2.9.3 1 .7 1.9 1 2.9.2 1.3.6 2.6 1.3 3.8l1.7 3.6c1.1 2.4 2.3 4.8 3.3 7.3-1.2-2.4-2.3-4.8-3.5-7.2L50.3 17c-.6-1.2-1.1-2.5-1.3-3.8-.3-1-.7-1.9-1-2.9-.2-1.1-.5-2-.8-3z"/><defs><path id="E" d="M47.7 7H56v20.4h-8.3z"/></defs><clipPath id="F"><use xlink:href="#E" overflow="visible"/></clipPath><path clip-path="url(#F)" fill="#597F5C" d="M47.7 7c.4 1 .7 1.9 1 2.9.3 1 .7 1.9 1 2.9.2 1.3.6 2.6 1.3 3.8l1.7 3.6c1.1 2.4 2.3 4.8 3.3 7.3-1.2-2.4-2.3-4.8-3.5-7.2l-1.7-3.6c-.6-1.2-1.1-2.5-1.3-3.8-.3-1-.7-1.9-1-2.9-.2-1-.5-2-.8-3z"/><path fill="#BDBCBC" d="M55.1 27.6c0 .4.3.7.7.7s.7-.3.7-.7c0-.4-.3-.7-.7-.7s-.7.3-.7.7"/><path fill="#918F90" d="M55.5 27.6c0 .2.2.4.4.4s.4-.2.4-.4-.2-.4-.4-.4c-.3 0-.4.2-.4.4"/><defs><path id="G" d="M55.5 27.3h.8v.9h-.8z"/></defs><clipPath id="H"><use xlink:href="#G" overflow="visible"/></clipPath><path clip-path="url(#H)" fill="#D3D2D2" d="M55.5 27.7c0 .3.2.5.4.5s.4-.2.4-.5-.2-.5-.4-.5c-.3.1-.4.3-.4.5"/><path fill="none" stroke="#597F5C" stroke-width="1.115" stroke-linecap="round" stroke-miterlimit="10" d="M48.5 11.3L32 30.4l-4.8-16.9 20.1-5.3"/><path fill="none" stroke="#597F5C" stroke-width=".743" stroke-linecap="round" stroke-miterlimit="10" d="M26.8 13.8L14.6 27.4"/><path fill="none" stroke="#597F5C" stroke-width="1.115" stroke-linecap="round" stroke-miterlimit="10" d="M15.2 27.9l16.9 2.7"/><path fill="none" stroke="#597F5C" stroke-width="1.115" stroke-linecap="square" stroke-miterlimit="10" d="M26.4 10.5l1 3.6"/><path fill="none" stroke="#DEDDDE" stroke-width="1.115" stroke-miterlimit="10" d="M26.3 9.9l-.9-3.2s-.3-.5-1.2-.5c-.9 0-1-1.4-1-1.4"/><defs><path id="I" d="M23.6 5.1h2.9v4.5h-2.9z"/></defs><clipPath id="J"><use xlink:href="#I" overflow="visible"/></clipPath><path clip-path="url(#J)" fill="#DEDDDE" d="M23.6 5.1c.2.5.4 1 1 .9.5.1 1 .3 1.2.8.2.5.3.9.4 1.4.1.5.2.9.3 1.4-.2-.5-.3-.9-.5-1.4-.1-.5-.3-.9-.4-1.4-.2-.4-.6-.7-1.1-.7-.1 0-.2 0-.4-.1-.1 0-.2-.1-.3-.2-.1-.2-.1-.5-.2-.7"/><defs><path id="K" d="M22.9 5.2h2.9v4.7h-2.9z"/></defs><clipPath id="L"><use xlink:href="#K" overflow="visible"/></clipPath><path clip-path="url(#L)" fill="#918F90" d="M22.9 5.2c.1.5.3 1 .7 1.3.2.1.4.2.7.2l.4.1c.1 0 .3 0 .4.2.2.5.3 1 .5 1.5l.3 1.5c-.2-.5-.3-1-.4-1.5-.1-.5-.3-1-.5-1.4-.1-.1-.4-.1-.7-.2-.2-.1-.5-.1-.7-.3-.5-.4-.7-.9-.7-1.4"/><path fill="none" stroke="#DEDDDE" stroke-width=".518" stroke-linecap="round" stroke-miterlimit="10" d="M21.2 5.9h2"/><path fill="none" stroke="#597F5C" stroke-width=".186" stroke-linecap="round" stroke-miterlimit="10" d="M26.8 9.7l-1.5.4"/><path fill="#DEDDDE" d="M24 6c0 .3-.3.6-.6.6s-.6-.3-.6-.6.3-.6.6-.6c.4 0 .6.3.6.6"/><path fill="#B2B1B1" d="M23.7 6c0 .1-.1.3-.3.3-.1 0-.3-.1-.3-.3s.1-.3.3-.3c.2 0 .3.2.3.3"/><path fill="#975F5A" d="M20 2.1h9s1.2 0 1.1 1.4c0 0 0 .6-1.1.7-1.2 0-2.3.2-3 1-.7.7-2.7 1-4.2.4s-2.5-1.4-2.6-1.8c0-.5-.2-1.5.8-1.7"/><defs><path id="M" d="M27.9 7.8h19.3v5.1H27.9z"/></defs><clipPath id="N"><use xlink:href="#M" overflow="visible"/></clipPath><path clip-path="url(#N)" fill="#597F5C" d="M47.2 7.8c-3.2.9-6.4 1.8-9.6 2.6-3.2.8-6.4 1.7-9.7 2.5 3.2-.9 6.4-1.8 9.6-2.6 3.2-.8 6.5-1.7 9.7-2.5"/><defs><path id="O" d="M28.2 8.5h19.3v5.1H28.2z"/></defs><clipPath id="P"><use xlink:href="#O" overflow="visible"/></clipPath><path clip-path="url(#P)" fill="#597F5C" d="M47.5 8.5c-3.2.9-6.4 1.8-9.6 2.6-3.2.8-6.4 1.7-9.7 2.5 3.2-.9 6.4-1.8 9.6-2.6 3.3-.8 6.5-1.7 9.7-2.5"/><defs><path id="Q" d="M32.6 11.1h15.6v18.2H32.6z"/></defs><clipPath id="R"><use xlink:href="#Q" overflow="visible"/></clipPath><path clip-path="url(#R)" fill="#597F5C" d="M48.2 11.1c-2.5 3.1-5.2 6.1-7.7 9.1-2.6 3-5.2 6-7.9 9 2.5-3.1 5.2-6.1 7.7-9.1 2.7-3 5.2-6 7.9-9"/><defs><path id="S" d="M33 11.5h15.6v18.2H33z"/></defs><clipPath id="T"><use xlink:href="#S" overflow="visible"/></clipPath><path clip-path="url(#T)" fill="#597F5C" d="M48.6 11.5c-2.5 3.1-5.2 6.1-7.7 9.1-2.6 3-5.2 6-7.9 9 2.5-3.1 5.2-6.1 7.7-9.1 2.7-3 5.3-6 7.9-9"/><defs><path id="U" d="M27.7 14.1h4.2v15.2h-4.2z"/></defs><clipPath id="V"><use xlink:href="#U" overflow="visible"/></clipPath><path clip-path="url(#V)" fill="#597F5C" d="M27.7 14.1c.8 2.5 1.5 5 2.2 7.6.7 2.5 1.4 5.1 2 7.6-.8-2.5-1.5-5-2.2-7.6-.6-2.6-1.4-5.1-2-7.6"/><g><defs><path id="W" d="M26.5 10.1h.8v2.8h-.8z"/></defs><clipPath id="X"><use xlink:href="#W" overflow="visible"/></clipPath><path clip-path="url(#X)" fill="#597F5C" d="M26.5 10.1c.2.4.3.9.5 1.4.1.5.3.9.3 1.4-.2-.4-.3-.9-.5-1.4 0-.4-.2-.9-.3-1.4"/></g><g><defs><path id="Y" d="M27.1 14.3h4.2v15.2h-4.2z"/></defs><clipPath id="Z"><use xlink:href="#Y" overflow="visible"/></clipPath><path clip-path="url(#Z)" fill="#597F5C" d="M27.1 14.3c.8 2.5 1.5 5 2.2 7.6.7 2.5 1.4 5.1 2 7.6-.8-2.5-1.5-5-2.2-7.6-.7-2.5-1.4-5-2-7.6"/></g><g><defs><path id="aa" d="M25.9 10.4h.8v2.8h-.8z"/></defs><clipPath id="ab"><use xlink:href="#aa" overflow="visible"/></clipPath><path clip-path="url(#ab)" fill="#597F5C" d="M25.9 10.4c.2.4.3.9.5 1.4.1.5.3.9.3 1.4-.2-.4-.3-.9-.5-1.4-.1-.5-.2-.9-.3-1.4"/></g><path fill="none" stroke="#D3D2D2" stroke-width=".262" stroke-miterlimit="10" d="M16.5 35.1l15.7-.5M15.8 26.9H32"/><path fill="#4F4C4D" d="M15.8 29.5s1.1.4 1.1 1.3v1.4l-.5.4v.4s.9.2.9.9-.4 1.2-1.1 1.2-.8-1.1-.8-1.7c0-.6.4-.4.4-.4V31.7l-.8.1-.3-.5v-2.9l1.1 1.1z"/><path fill="#656263" d="M16.7 27.7c0 1.2-1 2.2-2.2 2.2s-2.2-1-2.2-2.2c0-1.2 1-2.2 2.2-2.2s2.2 1 2.2 2.2"/><path fill="#4F4C4D" d="M16.4 27.7c0 1-.8 1.8-1.8 1.8s-1.8-.8-1.8-1.8.8-1.8 1.8-1.8 1.8.8 1.8 1.8"/><path fill="none" stroke="#656263" stroke-width=".262" stroke-miterlimit="10" d="M12.6 27.9s-1.7.1-1.7 1.7c0 1.6 3.4 3.4 3.4 0"/><path fill="#4F4C4D" d="M32 26.6c-2.2 0-4 1.8-4 4s1.8 4 4 4 4-1.8 4-4-1.8-4-4-4m-2.7 5.9c-.4-.5-.6-1.1-.6-1.8h.9c0 .5.2.9.4 1.3l-.7.5zm4.6-.5c.3-.4.4-.8.4-1.3h.9c0 .7-.2 1.3-.6 1.8l-.7-.5zm.7-3.3l-.7.6c-.3-.4-.7-.7-1.1-.8l.3-.9c.5.2 1.1.6 1.5 1.1m-3.7-1.1l.3.9c-.4.2-.8.4-1.1.8l-.7-.6c.4-.5.9-.9 1.5-1.1m.1 6.2l.3-.9c.2.1.4.1.7.1.2 0 .5 0 .7-.1l.3.9c-.3.1-.6.1-1 .1s-.7-.1-1-.1"/><path fill="none" stroke="#D3D2D2" stroke-width=".262" stroke-miterlimit="10" d="M26.7 12.4c-1 0-1.8.5-2.3 1.3-.5.8-.5 1.9-1.1 2.6"/><path fill="#597F5C" d="M21.6 19.3l-.7-.7 2.4-2.3.5.5"/><g><defs><path id="ac" d="M20.9 16.3h2.6v2.5h-2.6z"/></defs><clipPath id="ad"><use xlink:href="#ac" overflow="visible"/></clipPath><path transform="rotate(46.126 22.234 17.56)" clip-path="url(#ad)" fill="#597F5C" d="M22.1 15.9h.3v3.3h-.3z"/></g><path fill="none" stroke="#DEE6DE" stroke-width="1.115" stroke-linecap="round" stroke-miterlimit="10" d="M20.6 18.4l2.4-2.3"/><path fill="none" stroke="#C8C7C7" stroke-width=".743" stroke-miterlimit="10" d="M32 30.5l6.5.8"/><path fill="#7B7979" d="M32.6 30.5c0 .3-.3.6-.6.6s-.6-.3-.6-.6.3-.5.6-.5.6.2.6.5"/><circle fill="none" stroke="#C8C7C7" stroke-width=".262" stroke-miterlimit="10" cx="32" cy="30.5" r=".6"/><path fill="#231F20" d="M40.6 32.2c0 .4-.3.7-.7.7h-2.1c-.4 0-.7-.3-.7-.7v-.3c0-.4.3-.7.7-.7h2.1c.4 0 .7.3.7.7v.3z"/><path fill="none" stroke="#D3D2D2" stroke-width=".557" stroke-linecap="round" stroke-miterlimit="10" d="M14.3 27.8l-9-12.5s-1.4-2.4 1.1-2.4h12.9s.9-.3.9-1.2"/><path fill="#D3D2D2" d="M8.8 12.8h6v1h-6z"/><path fill="none" stroke="#D3D2D2" stroke-width=".262" stroke-miterlimit="10" d="M15.7 12.8l-1.4 15M11.9 14.9l2.4 12.9"/><path fill="none" stroke="#D3D2D2" stroke-width="1.115" stroke-miterlimit="10" d="M47.5 6.7s-1-2.3-.5-3.1c.5-.9 2.1-2 2.1-2"/><g><defs><path id="ae" d="M46.4 1.6h2v4.9h-2z"/></defs><clipPath id="af"><use xlink:href="#ae" overflow="visible"/></clipPath><path clip-path="url(#af)" fill="#D3D2D2" d="M48.5 1.6c-.4.3-.7.6-1 1-.3.3-.7.7-.8 1.1 0 .5 0 .9.1 1.4.1.5.2.9.3 1.4-.2-.4-.3-.9-.4-1.4-.1-.5-.2-.9-.2-1.5.1-.5.5-.8.9-1.2.3-.2.6-.5 1.1-.8"/></g><path fill="none" stroke="#423E3F" stroke-width="1.486" stroke-linecap="round" stroke-miterlimit="10" d="M45.3 1.3c1.5.2 4.5 0 6-.2.9-.1.8-.3 0-.4C50.2.6 49 .6 47.9.6"/><path fill="none" stroke="#597F5C" stroke-width=".186" stroke-linecap="round" stroke-miterlimit="10" d="M48.1 6.6l-1.6.4"/></svg>