<svg xmlns="http://www.w3.org/2000/svg" xmlns:xlink="http://www.w3.org/1999/xlink" width="79.5" height="50.3" viewBox="0 0 79.5 50.3"><path fill="#BDBCBC" d="M0 18.3h77.4v32H0z"/><path fill="#231F20" d="M12.8 49.2c-6.3 0-11.3-5.1-11.3-11.3 0-6.3 5.1-11.3 11.3-11.3s11.3 5.1 11.3 11.3c0 6.2-5.1 11.3-11.3 11.3"/><path fill="#231F20" d="M12.8 27c6 0 10.9 4.9 10.9 10.9s-4.9 10.9-10.9 10.9-10.9-5-10.9-11S6.8 27 12.8 27m0-1C6.2 26 .9 31.3.9 37.8s5.3 11.8 11.8 11.8 11.8-5.3 11.8-11.8S19.3 26 12.8 26"/><path fill="#E9E9E9" d="M12.8 26.8c6.1 0 11.1 5 11.1 11.1S18.9 49 12.8 49 1.7 44 1.7 37.9c0-6.2 4.9-11.1 11.1-11.1m0-.8C6.2 26 .9 31.3.9 37.8s5.3 11.8 11.8 11.8 11.8-5.3 11.8-11.8S19.3 26 12.8 26"/><path fill="#4F4C4D" d="M21.6 37.8c0-4.9-3.9-8.8-8.8-8.8S4 32.9 4 37.8s3.9 8.8 8.8 8.8c4.8.1 8.8-3.9 8.8-8.8"/><path fill="#656263" d="M19.4 37.8c0-3.7-3-6.6-6.6-6.6-3.7 0-6.6 3-6.6 6.6s3 6.6 6.6 6.6c3.6 0 6.6-2.9 6.6-6.6"/><path fill="#D3D2D2" d="M12.8 35.9c1.1 0 2 .9 2 2s-.9 2-2 2-2-.9-2-2 .9-2 2-2m0-.6c-1.4 0-2.5 1.1-2.5 2.5s1.1 2.5 2.5 2.5 2.5-1.1 2.5-2.5-1.2-2.5-2.5-2.5"/><path fill="#D3D2D2" d="M14.3 37.8c0-.9-.7-1.6-1.6-1.6-.9 0-1.6.7-1.6 1.6 0 .9.7 1.6 1.6 1.6.9 0 1.6-.7 1.6-1.6"/><path fill="#A7A5A6" d="M12.8 39c-.8 0-1.5-.6-1.6-1.4v.2c0 .9.7 1.6 1.6 1.6.9 0 1.6-.7 1.6-1.6v-.2c-.2.8-.8 1.4-1.6 1.4"/><path fill="#E9E9E9" d="M13.7 37.1c0-.3-.4-.5-.9-.5s-.9.2-.9.5.4.5.9.5.9-.3.9-.5"/><path fill="#231F20" d="M64.6 49.2c-6.3 0-11.3-5.1-11.3-11.3 0-6.3 5.1-11.3 11.3-11.3 6.3 0 11.3 5.1 11.3 11.3.1 6.2-5 11.3-11.3 11.3"/><path fill="#231F20" d="M64.6 27c6 0 10.9 4.9 10.9 10.9s-4.9 10.9-10.9 10.9-10.9-4.9-10.9-10.9S58.6 27 64.6 27m0-1c-6.5 0-11.8 5.3-11.8 11.8s5.3 11.8 11.8 11.8 11.8-5.3 11.8-11.8S71.2 26 64.6 26"/><path fill="#E7E6E7" d="M64.6 26.8c6.1 0 11.1 5 11.1 11.1S70.7 49 64.6 49s-11.1-5-11.1-11.1c0-6.2 5-11.1 11.1-11.1m0-.8c-6.5 0-11.8 5.3-11.8 11.8s5.3 11.8 11.8 11.8 11.8-5.3 11.8-11.8S71.2 26 64.6 26"/><path fill="#4F4C4D" d="M73.4 37.8c0-4.9-3.9-8.8-8.8-8.8s-8.8 3.9-8.8 8.8 3.9 8.8 8.8 8.8c4.9.1 8.8-3.9 8.8-8.8"/><path fill="#656263" d="M71.2 37.8c0-3.7-3-6.6-6.6-6.6-3.7 0-6.6 3-6.6 6.6s3 6.6 6.6 6.6c3.7 0 6.6-2.9 6.6-6.6"/><path fill="#D3D2D2" d="M64.6 35.9c1.1 0 2 .9 2 2s-.9 2-2 2-2-.9-2-2c.1-1.1.9-2 2-2m0-.6c-1.4 0-2.5 1.1-2.5 2.5s1.1 2.5 2.5 2.5 2.5-1.1 2.5-2.5-1.1-2.5-2.5-2.5"/><path fill="#D3D2D2" d="M66.2 37.8c0-.9-.7-1.6-1.6-1.6-.9 0-1.6.7-1.6 1.6 0 .9.7 1.6 1.6 1.6.9 0 1.6-.7 1.6-1.6"/><path fill="#A7A5A6" d="M64.6 39c-.8 0-1.5-.6-1.6-1.4v.2c0 .9.7 1.6 1.6 1.6.9 0 1.6-.7 1.6-1.6v-.2c-.1.8-.8 1.4-1.6 1.4"/><path fill="#E9E9E9" d="M65.5 37.1c0-.3-.4-.5-.9-.5s-.9.2-.9.5.4.5.9.5.9-.3.9-.5"/><path fill="#5A5758" d="M25.6 18.4h26.2v32H25.6z"/><path fill="#231F20" d="M26 18.4h25.3v32H26z"/><path fill="#5A5758" d="M26.6 18.4h24.3v32H26.6z"/><path fill="#231F20" d="M26.6 25.3h18.5v13.3H26.6z"/><path fill="#444142" d="M26.6 26.1h18.2v11.7H26.6z"/><path fill="#5A5758" d="M26.6 25.5h18.2V37H26.6z"/><path fill="#CFCECE" d="M26.6 36.8h18.2v.3H26.6zM26.6 38.6h24.3v.1H26.6z"/><path fill="#231F20" d="M45 25.3h5.8v13.3H45z"/><path fill="#444142" d="M45 26.1h5.7v11.7H45z"/><path fill="#5A5758" d="M45 25.5h5.7V37H45z"/><path fill="#CFCECE" d="M45 36.8h5.7v.3H45z"/><path fill="#393536" d="M28 20h21.5v4.4H28z"/><defs><path id="a" d="M28 20h21.5v4.4H28z"/></defs><clipPath id="b"><use xlink:href="#a" overflow="visible"/></clipPath><path clip-path="url(#b)" fill="#393536" d="M28 20v4.4h.7v-3h20.1v3h.7V20"/><g opacity=".5"><defs><path id="c" d="M38.3 23h.8v.4h-.8z"/></defs><clipPath id="d"><use xlink:href="#c" overflow="visible"/></clipPath><path clip-path="url(#d)" fill="#F0EFEF" d="M38.3 23h.8v.4h-.8z"/></g><g opacity=".5"><defs><path id="e" d="M47.5 23h.9v.4h-.9z"/></defs><clipPath id="f"><use xlink:href="#e" overflow="visible"/></clipPath><path clip-path="url(#f)" fill="#F0EFEF" d="M47.5 23h.9v.4h-.9z"/></g><g opacity=".5"><defs><path id="g" d="M43.1 23.6h.9v.4h-.9z"/></defs><clipPath id="h"><use xlink:href="#g" overflow="visible"/></clipPath><path clip-path="url(#h)" fill="#F0EFEF" d="M43.1 23.6h.9v.4h-.9z"/></g><g opacity=".5"><defs><path id="i" d="M47.2 22h.4v.4h-.4z"/></defs><clipPath id="j"><use xlink:href="#i" overflow="visible"/></clipPath><path clip-path="url(#j)" fill="#F0EFEF" d="M47.2 22h.4v.4h-.4z"/></g><g opacity=".5"><defs><path id="k" d="M39.8 22h.2v.2h-.2z"/></defs><clipPath id="l"><use xlink:href="#k" overflow="visible"/></clipPath><path clip-path="url(#l)" fill="#F0EFEF" d="M39.8 22h.2v.2h-.2z"/></g><g opacity=".5"><defs><path id="m" d="M37.4 22h.4v.4h-.4z"/></defs><clipPath id="n"><use xlink:href="#m" overflow="visible"/></clipPath><path clip-path="url(#n)" fill="#F0EFEF" d="M37.4 22h.4v.4h-.4z"/></g><g opacity=".5"><defs><path id="o" d="M28.8 23.2h.8v.2h-.8z"/></defs><clipPath id="p"><use xlink:href="#o" overflow="visible"/></clipPath><path clip-path="url(#p)" fill="#F0EFEF" d="M28.8 23.2h.8v.2h-.8z"/></g><g opacity=".5"><defs><path id="q" d="M33 23.6h1.4v.4H33z"/></defs><clipPath id="r"><use xlink:href="#q" overflow="visible"/></clipPath><path clip-path="url(#r)" fill="#F0EFEF" d="M33 23.6h1.4v.4H33z"/></g><g opacity=".5"><defs><path id="s" d="M29.8 22h.4v.2h-.4z"/></defs><clipPath id="t"><use xlink:href="#s" overflow="visible"/></clipPath><path clip-path="url(#t)" fill="#F0EFEF" d="M29.8 22h.4v.2h-.4z"/></g><path fill="none" stroke="#F0EFEF" stroke-width=".109" stroke-miterlimit="10" d="M33.2 22.9l-.2-.7M32.2 22.2l.4.7M35 22.9l.3-.7M34.5 22.2l-.2.7M33.8 22.9v-.7"/><path fill="#F0EFEF" d="M34.2 22.9v-.1h-.3v.1h-.2v-.1h-.3v.1l-.3.1v-.2h-.4v.1l-.2.1-.1-.2h-.6v.1l-.2.1-.1-.2h-1.3v.2h4v-.1"/><path fill="#F0D196" d="M35.7 22.9v-.1h-.6v.2l-.3-.1.1-.1h-.4v.2h2.9v-.2H36l-.1.2M34.5 23l-.3-.1v.1h.3v-.2"/><path fill="#F0EFEF" d="M32.7 22.8l-.3-.6h-.3l.3.6"/><path fill="#F0EFEF" d="M32.5 23l.2-.1v-.1h-.3M31.3 22.2H31l.5.6h.3"/><path fill="#F0EFEF" d="M31.8 22.9v-.1h-.3l.1.2M33.4 22.8l-.2-.6H33l.1.6"/><path fill="#F0EFEF" d="M33.1 23l.3-.1v-.1h-.3"/><path fill="#F0D196" d="M34.2 22.8h.3l.1-.6h-.3l-.1.6M34.2 22.8v.1-.1M34.5 22.8zM34.2 22.8v.1l.3.1v-.2"/><path fill="#F0EFEF" d="M33.9 22.8v-.6h-.2v.6M33.7 22.8h.3v.1h-.3z"/><path fill="#F0D196" d="M35.7 22.8h.3l.4-.6h-.3M35.7 22.9l.2.1.1-.2h-.3M35.1 22.8l.3-.6h-.3l-.2.6M34.8 22.9l.3.1v-.2h-.2"/><path fill="#F0EFEF" d="M44 23v-.1h-.3v.1h-.2v-.1h-.4v.1h-.2v-.1h-.4v.1l-.2.1-.1-.2h-.6l-.2.2-.1-.2H40v.2h4V23"/><path fill="#F0D196" d="M45.5 22.9h-.6v.1h-.3v-.1h-.3v.2h2.9v-.2h-1.4l-.1.2M44.2 23H44v.1h.3v-.2"/><path fill="#F0EFEF" d="M41.9 22.2l.3.7h.3l-.3-.7M42.3 23.1l.2-.1v-.1h-.3M41 22.2h-.3l.6.7h.3M41.6 22.9h-.3l.1.2M42.7 22.2l.2.7h.2l-.1-.7M42.9 23h.2v-.1h-.2"/><path fill="#F0D196" d="M44.1 22.2l-.1.7h.3l.1-.7M44 22.9v.1-.1M44.3 22.9zM44 22.9v.1h.2l.1-.1"/><path fill="#F0EFEF" d="M43.4 22.2l.1.7h.2v-.7M43.5 23h.2v-.1h-.3"/><path fill="#F0D196" d="M45.9 22.2l-.4.7h.3l.5-.7M45.5 22.9l.2.2.1-.2h-.3M44.9 22.2l-.3.7h.3l.3-.7M44.6 23h.3v-.1h-.3M31.9 23.2h2.4v.2h-2.4z"/><path fill="#F0EFEF" d="M34.2 23.2h1.4v.2h-1.4z"/><path fill="#F0D196" d="M41.7 23.2h2.4v.2h-2.4z"/><path fill="#F0EFEF" d="M44 23.2h1.4v.2H44z"/><g opacity=".75"><defs><path id="u" d="M32.8 22h1.3v2.5h-1.3z"/></defs><clipPath id="v"><use xlink:href="#u" overflow="visible"/></clipPath><path clip-path="url(#v)" fill="none" stroke="#000" stroke-width=".109" stroke-miterlimit="10" d="M34.1 24.6l-1.2-2.5"/></g><path fill="none" stroke="#F0EFEF" stroke-width=".109" stroke-miterlimit="10" d="M33.9 24.5L32.8 22"/><g opacity=".75"><defs><path id="w" d="M43.8 22.3h2v2.3h-2z"/></defs><clipPath id="x"><use xlink:href="#w" overflow="visible"/></clipPath><path clip-path="url(#x)" fill="none" stroke="#000" stroke-width=".109" stroke-miterlimit="10" d="M43.8 24.6l1.9-2.3"/></g><path fill="none" stroke="#F0EFEF" stroke-width=".109" stroke-miterlimit="10" d="M43.7 24.5l1.9-2.3"/><path fill="#231F20" d="M46.2 27.1h.6v1.6h-.6zM47.5 27.1h.6v1.6h-.6zM48.8 27.1h.6v1.6h-.6z"/><path fill="#A7A5A6" d="M46.4 27.9h.5v.8h-.5z"/><path fill="#ECC57C" d="M46.4 27.8h.5v.1h-.5z"/><path fill="#8D8A8B" d="M46.4 28h.4v.7h-.4z"/><path fill="#A7A5A6" d="M47.6 27.1h.5v.8h-.5z"/><path fill="#ECC57C" d="M47.6 27.1h.5v.1h-.5z"/><path fill="#8D8A8B" d="M47.7 27.2h.4v.7h-.4z"/><path fill="#A7A5A6" d="M48.9 27.5h.5v.8h-.5z"/><path fill="#ECC57C" d="M48.9 27.5h.5v.1h-.5z"/><path fill="#8D8A8B" d="M49 27.6h.4v.7H49z"/><path fill="#ECC57C" d="M46.5 29.3h2.7v.8h-2.7z"/><path fill="none" stroke="#4F4C4D" stroke-width=".217" stroke-miterlimit="10" d="M45.3 33h5.3M45.3 35.4h5.3"/><path fill="#231F20" d="M50.3 34.1c0 .2-.1.3-.3.3s-.3-.1-.3-.3.1-.3.3-.3.3.2.3.3"/><circle fill="none" stroke="#4F4C4D" stroke-width=".217" stroke-miterlimit="10" cx="49.9" cy="34.1" r=".3"/><path fill="none" stroke="#BDBCBC" stroke-width=".109" stroke-miterlimit="10" d="M45.4 33.7h2.9v1.1h-2.9z"/><path fill="#231F20" d="M45.4 33.6h2.9v1.1h-2.9z"/><path fill="none" stroke="#4F4C4D" stroke-width=".109" stroke-miterlimit="10" d="M45.4 33.6h2.9v1.1h-2.9z"/><path fill="#231F20" d="M46.3 33.7v1"/><path fill="none" stroke="#4F4C4D" stroke-width=".109" stroke-miterlimit="10" d="M46.3 33.7v1"/><path fill="#231F20" d="M47.3 33.7v1"/><path fill="none" stroke="#4F4C4D" stroke-width=".109" stroke-miterlimit="10" d="M47.3 33.7v1"/><path fill="#231F20" d="M29.1 41.6h.9v3h-.9z"/><path fill="#D3D2D2" d="M29.2 41.6h.7v2h-.7z"/><path fill="#A3A1A1" d="M29.2 43.6h.7v.3h-.7zM29.4 41h.3v.3h-.3z"/><path fill="#231F20" d="M31.6 41.6h.9v3h-.9z"/><path fill="#D3D2D2" d="M31.7 41.6h.7v2h-.7z"/><path fill="#A3A1A1" d="M31.7 43.6h.7v.3h-.7zM31.9 41h.3v.3h-.3z"/><path fill="#231F20" d="M34.1 41.6h.9v3h-.9z"/><path fill="#D3D2D2" d="M34.2 41.6h.7v2h-.7z"/><path fill="#A3A1A1" d="M34.2 43.6h.7v.3h-.7zM34.4 41h.3v.3h-.3z"/><path fill="#231F20" d="M36.7 41.6h.9v3h-.9z"/><path fill="#D3D2D2" d="M36.8 41.6h.7v2h-.7z"/><path fill="#A3A1A1" d="M36.8 43.6h.7v.3h-.7zM36.9 41h.3v.3h-.3z"/><path fill="#231F20" d="M39.2 41.6h.9v3h-.9z"/><path fill="#D3D2D2" d="M39.3 41.6h.7v2h-.7z"/><path fill="#A3A1A1" d="M39.3 43.6h.7v.3h-.7zM39.5 41h.3v.3h-.3z"/><path fill="#231F20" d="M41.7 41.6h.9v3h-.9z"/><path fill="#D3D2D2" d="M41.8 41.6h.7v2h-.7z"/><path fill="#A3A1A1" d="M41.8 43.6h.7v.3h-.7zM42 41h.3v.3H42z"/><path fill="#231F20" d="M47.4 41.8h1.4v1.4h-1.4z"/><path fill="#D3D2D2" d="M48.5 43h-.6v-.6h.6v.6zm.2-.9h-1.1v1.1h1.1v-1.1z"/><path fill="#ECC57C" d="M47.4 44.7h1.5v.7h-1.5z"/><path fill="#CFCECE" d="M26.6 47.6h24.3v.8H26.6z"/><path fill="#231F20" d="M26.6 48.4h24.3v1.9H26.6z"/><path fill="#868484" d="M29.6 27.8h12.3v1H29.6z"/><path fill="#231F20" d="M29.6 28.8h12.3v5.9H29.6z"/><defs><path id="y" d="M31.7 30.6h1.9v1.9h-1.9z"/></defs><clipPath id="z"><use xlink:href="#y" overflow="visible"/></clipPath><path clip-path="url(#z)" fill="#231F20" d="M33.6 31.6c0 .5-.4.9-.9.9s-.9-.4-.9-.9.4-.9.9-.9.9.4.9.9"/><path fill="#D3D2D2" d="M33 31.6c0 .2-.2.4-.4.4s-.4-.2-.4-.4.2-.4.4-.4.4.2.4.4"/><defs><path id="A" d="M37.7 30.6h1.9v1.9h-1.9z"/></defs><clipPath id="B"><use xlink:href="#A" overflow="visible"/></clipPath><path clip-path="url(#B)" fill="#231F20" d="M39.6 31.6c0 .5-.4.9-.9.9s-.9-.4-.9-.9.4-.9.9-.9.9.4.9.9"/><path fill="#D3D2D2" d="M39 31.6c0 .2-.2.4-.4.4s-.4-.2-.4-.4.2-.4.4-.4.4.2.4.4"/><path fill="#4F4C4D" d="M41.5 27.8h2.8v6.8h-2.8z"/><path fill="#2E2A2B" d="M41.5 27.8h2.8v.4h-2.8z"/><path fill="#4F4C4D" d="M27.3 27.8h2.8v6.8h-2.8z"/><path fill="#2E2A2B" d="M27.3 27.8h2.8v.4h-2.8z"/><g opacity=".5"><defs><path id="C" d="M30.1 28.8h11.4v5.9H30.1z"/></defs><clipPath id="D"><use xlink:href="#C" overflow="visible"/></clipPath><path clip-path="url(#D)" fill="#231F20" d="M30.1 28.8l11.4 5.8v-5.8"/></g><g opacity=".5"><defs><path id="E" d="M36 28.8h5.5v2.8H36z"/></defs><clipPath id="F"><use xlink:href="#E" overflow="visible"/></clipPath><path clip-path="url(#F)" fill="#231F20" d="M36 28.8l5.5 2.8v-2.8"/></g><g opacity=".3"><defs><path id="G" d="M28 20h21.5v4.4H28z"/></defs><clipPath id="H"><use xlink:href="#G" overflow="visible"/></clipPath><path clip-path="url(#H)" fill="#231F20" d="M28 20l21.5 4.4V20"/></g><path fill="#231F20" d="M.3 8.2h76.6v10.1H.3z"/><path fill="#C8C7C7" d="M.8 6.5h75.7v10.9H.8z"/><path fill="#9C9A9B" d="M54.4 19.2h20.5V25H54.4z"/><path fill="#393536" d="M61.9 19.8h5.4v4.6h-5.4z"/><g opacity=".5"><defs><path id="I" d="M61.9 19.8h5.4v4.6h-5.4z"/></defs><clipPath id="J"><use xlink:href="#I" overflow="visible"/></clipPath><path clip-path="url(#J)" fill="#393536" d="M61.9 19.8l5.4 4.5v-4.5"/></g><g opacity=".3"><defs><path id="K" d="M55.7 19.7h6.2v2.5h-6.2z"/></defs><clipPath id="L"><use xlink:href="#K" overflow="visible"/></clipPath><path clip-path="url(#L)" fill="#D3D2D2" d="M55.7 19.7s4.5.8 5.4 2.5h.9v-2.5h-6.3z"/></g><g opacity=".3"><defs><path id="M" d="M67.3 19.7h6.2v2.5h-6.2z"/></defs><clipPath id="N"><use xlink:href="#M" overflow="visible"/></clipPath><path clip-path="url(#N)" fill="#D3D2D2" d="M73.5 19.7s-4.5.8-5.4 2.5h-.8v-2.5h6.2z"/></g><path fill="#868484" d="M55.7 24.3s4.5-.7 5.4-2.1h.9v2.1h-6.3zM73.5 24.3s-4.5-.7-5.4-2.1h-.8v2.1h6.2z"/><path fill="#D3D2D2" d="M64.6 21.4c.4 0 .8.3.8.8s-.3.8-.8.8c-.4 0-.8-.3-.8-.8s.4-.8.8-.8m0-.2c-.5 0-1 .4-1 1 0 .5.4 1 1 1 .5 0 1-.4 1-1s-.4-1-1-1"/><path fill="#D3D2D2" d="M65.2 22.1c0-.3-.3-.6-.6-.6s-.6.3-.6.6.3.6.6.6c.4.1.6-.2.6-.6"/><path fill="#A7A5A6" d="M64.6 22.6c-.3 0-.6-.2-.6-.5v.1c0 .3.3.6.6.6s.6-.3.6-.6v-.1c0 .3-.3.5-.6.5"/><path fill="#E9E9E9" d="M65 21.8c0-.1-.2-.2-.4-.2s-.4.1-.4.2.2.2.4.2.4-.1.4-.2"/><defs><path id="O" d="M61.3 20.5h.7v3.6h-.7z"/></defs><clipPath id="P"><use xlink:href="#O" overflow="visible"/></clipPath><path clip-path="url(#P)" fill="#CAC9C9" d="M62 24c-.4 0-.7-.8-.7-1.8s.3-1.8.7-1.8V24z"/><defs><path id="Q" d="M67.3 20.5h.7v3.6h-.7z"/></defs><clipPath id="R"><use xlink:href="#Q" overflow="visible"/></clipPath><path clip-path="url(#R)" fill="#CAC9C9" d="M67.3 24c.4 0 .7-.8.7-1.8s-.3-1.8-.7-1.8V24z"/><path fill="#EBEBEB" d="M68 21.5c0 .1-.1.1-.1.1h-6.6c-.1 0-.1-.1-.1-.1 0-.1.1-.1.1-.1h6.6c.1 0 .1 0 .1.1M68 22.2c0 .1-.1.1-.1.1h-6.6c-.1 0-.1-.1-.1-.1 0-.1.1-.1.1-.1h6.6c.1 0 .1.1.1.1M68 22.9c0 .1-.1.1-.1.1h-6.6c-.1 0-.1-.1-.1-.1 0-.1.1-.1.1-.1h6.6c.1 0 .1.1.1.1"/><path fill="none" stroke="#807D7E" stroke-width=".217" stroke-miterlimit="10" d="M55.7 19.7v4.6M73.5 19.7v4.6"/><path fill="#9C9A9B" d="M2.5 19.4H23v5.8H2.5z"/><path fill="#393536" d="M10.1 20h5.4v4.6h-5.4z"/><g opacity=".5"><defs><path id="S" d="M10.1 20h5.4v4.6h-5.4z"/></defs><clipPath id="T"><use xlink:href="#S" overflow="visible"/></clipPath><path clip-path="url(#T)" fill="#393536" d="M10.1 20l5.4 4.5V20"/></g><g opacity=".3"><defs><path id="U" d="M3.9 20h6.2v2.5H3.9z"/></defs><clipPath id="V"><use xlink:href="#U" overflow="visible"/></clipPath><path clip-path="url(#V)" fill="#D3D2D2" d="M3.9 20s4.5.8 5.4 2.5h.8V20H3.9z"/></g><g opacity=".3"><defs><path id="W" d="M15.4 20h6.2v2.5h-6.2z"/></defs><clipPath id="X"><use xlink:href="#W" overflow="visible"/></clipPath><path clip-path="url(#X)" fill="#D3D2D2" d="M21.6 20s-4.5.8-5.4 2.5h-.8V20h6.2z"/></g><path fill="#868484" d="M3.9 24.5s4.5-.7 5.4-2.1h.8v2.1H3.9zM21.6 24.5s-4.5-.7-5.4-2.1h-.8v2.1h6.2z"/><path fill="#D3D2D2" d="M12.8 21.6c.4 0 .8.3.8.8s-.3.8-.8.8-.8-.4-.8-.8.3-.8.8-.8m0-.2c-.5 0-1 .4-1 1 0 .5.4 1 1 1 .5 0 1-.4 1-1-.1-.6-.5-1-1-1"/><path fill="#D3D2D2" d="M13.4 22.4c0-.3-.3-.6-.6-.6s-.6.3-.6.6.3.6.6.6.6-.3.6-.6"/><path fill="#A7A5A6" d="M12.8 22.8c-.3 0-.6-.2-.6-.5v.1c0 .3.3.6.6.6s.6-.3.6-.6v-.1c-.1.3-.3.5-.6.5"/><path fill="#E9E9E9" d="M13.1 22.1c0-.1-.2-.2-.4-.2s-.4.1-.4.2.2.2.4.2c.3 0 .4-.1.4-.2"/><defs><path id="Y" d="M9.4 20.7h.7v3.6h-.7z"/></defs><clipPath id="Z"><use xlink:href="#Y" overflow="visible"/></clipPath><path clip-path="url(#Z)" fill="#CAC9C9" d="M10.1 24.3c-.4 0-.7-.8-.7-1.8s.3-1.8.7-1.8v3.6z"/><defs><path id="aa" d="M15.4 20.7h.7v3.6h-.7z"/></defs><clipPath id="ab"><use xlink:href="#aa" overflow="visible"/></clipPath><path clip-path="url(#ab)" fill="#CAC9C9" d="M15.4 24.3c.4 0 .7-.8.7-1.8s-.3-1.8-.7-1.8v3.6z"/><path fill="#EBEBEB" d="M16.2 21.7c0 .1-.1.1-.1.1H9.5c-.1 0-.1-.1-.1-.1l.1-.1h6.6l.1.1M16.2 22.4c0 .1-.1.1-.1.1H9.5c-.1 0-.1-.1-.1-.1l.1-.1h6.6l.1.1M16.2 23.2c0 .1-.1.1-.1.1H9.5c-.1 0-.1-.1-.1-.1 0-.1.1-.1.1-.1h6.6c0-.1.1 0 .1.1"/><path fill="none" stroke="#807D7E" stroke-width=".217" stroke-miterlimit="10" d="M3.9 20v4.5M21.6 20v4.5"/><path fill="#231F20" d="M11.1 0v8.2h1.3V2.9h53.8v5.3h1.2V0"/><path fill="#444142" d="M12.3 1.4h53.9v.8H12.3z"/><path fill="#656263" d="M12.3 1.2h53.9v.2H12.3z"/><path fill="#A7A5A6" d="M9.3 13.8v-3.7h.6L8.8 10v4.4h60.9v-.1l-6.8-.5"/><path fill="#393536" d="M8.8 9.5v.5l1.1.1h59.3v3.7h-6.3l6.8.5V9.5"/><path fill="#231F20" d="M9.3 10.1h59.9v3.8H9.3z"/><defs><path id="ac" d="M9.3 10.1h59.9v3.8H9.3z"/></defs><clipPath id="ad"><use xlink:href="#ac" overflow="visible"/></clipPath><path clip-path="url(#ad)" fill="#231F20" d="M9.3 10.1v3.7h.7v-2.7h58.5v2.7h.7v-3.7"/><g opacity=".4"><defs><path id="ae" d="M18.4 10.1h50.8v3.8H18.4z"/></defs><clipPath id="af"><use xlink:href="#ae" overflow="visible"/></clipPath><path clip-path="url(#af)" fill="#231F20" d="M18.4 10.1l50.8 3.7v-3.7"/></g><path fill="none" stroke="#BDBCBC" stroke-width=".109" stroke-miterlimit="10" d="M15.8 11.2h3v.5h-3zM15.8 12.2h3v.5h-3zM15.8 13.1h3v.5h-3z"/><path fill="#B7586A" d="M13.9 11.2h.9v.5h-.9zM13.9 12.2h.9v.5h-.9zM13.9 13.2h.9v.5h-.9z"/><path fill="none" stroke="#BDBCBC" stroke-width=".109" stroke-miterlimit="10" d="M19.2 12.4H65"/><path fill="none" stroke="#BDBCBC" stroke-width=".217" stroke-miterlimit="10" d="M39.5 12.4v.7"/><path fill="none" stroke="#BDBCBC" stroke-width=".251" stroke-miterlimit="10" d="M40 11.5v.9M42.2 11.5v.9M44.5 11.5v.9M46.8 11.5v.9M49.1 11.5v.9M51.4 11.5v.9M53.7 11.5v.9M55.9 11.5v.9M58.2 11.5v.9"/><path fill="none" stroke="#BDBCBC" stroke-width=".217" stroke-miterlimit="10" d="M41.3 12.4v.7M43.2 12.4v.7M45 12.4v.7M46.9 12.4v.7M48.7 12.4v.7M50.6 12.4v.7M52.4 12.4v.7M54.3 12.4v.7M56.1 12.4v.7"/><path fill="#BDBCBC" d="M63.6 10.9h1.3v.6h-1.3zM64 11.8h1v.4h-1zM64 13.1h1v.2h-1zM30.7 13.3h4.7v.1h-4.7zM30.7 11.1h4.2v.3h-4.2zM30.7 11.7h1.6v.1h-1.6z"/><path fill="none" stroke="#B14A5D" stroke-width=".326" stroke-miterlimit="10" d="M49.1 10.2v3.4"/><g opacity=".3"><defs><path id="ag" d="M63.2 15.1H65v1.8h-1.8z"/></defs><clipPath id="ah"><use xlink:href="#ag" overflow="visible"/></clipPath><path clip-path="url(#ah)" fill="#E9E9E9" d="M63.5 15.3c-.2.2-.3.4-.3.7 0 .5.4.9.9.9V16l-.6-.7z"/><path clip-path="url(#ah)" fill="#E9E9E9" d="M65 16h-.9l.6.7c.2-.2.3-.4.3-.7"/><path clip-path="url(#ah)" fill="#FFF" d="M64.1 15.1v.9h.9c0-.5-.4-.9-.9-.9"/><path clip-path="url(#ah)" fill="#918F90" d="M64.1 16.9c.2 0 .5-.1.6-.3l-.6-.6v.9zM64.1 15.1c-.2 0-.5.1-.6.3l.6.7v-1z"/></g><path fill="#A82526" d="M63.3 15.9h.1v.2h-.1z"/><defs><path id="ai" d="M67.3 15h1.8v2h-1.8z"/></defs><clipPath id="aj"><use xlink:href="#ai" overflow="visible"/></clipPath><path clip-path="url(#aj)" fill="#918F90" d="M69.2 16c0 .5-.4 1-.9 1s-.9-.4-.9-1c0-.5.4-1 .9-1s.9.4.9 1"/><path fill="#E9E9E9" d="M67.6 15.3c-.2.2-.3.4-.3.7 0 .5.4.9.9.9V16l-.6-.7zM69.2 15.9h-.9l.6.7c.2-.2.3-.4.3-.7"/><path fill="#FFF" d="M68.3 15v.9h.9c0-.5-.4-.9-.9-.9"/><path fill="#918F90" d="M68.3 16.9c.2 0 .5-.1.6-.3l-.6-.7v1zM68.3 15c-.2 0-.5.1-.6.3l.6.7v-1z"/><path fill="#D1D0D0" d="M68.9 15.9c0 .4-.3.7-.7.7-.4 0-.7-.3-.7-.7 0-.4.3-.7.7-.7.4.1.7.4.7.7"/><path fill="#918F90" d="M68.3 15.5c.3 0 .5.2.6.5-.1-.4-.3-.6-.6-.5-.3-.1-.6.2-.6.5 0-.3.3-.5.6-.5"/><path fill="#F2F1F2" d="M68.3 16.4c-.3 0-.5-.2-.6-.5 0 .4.2.6.6.5.3.1.6-.2.6-.5-.1.3-.4.5-.6.5"/><path fill="#A82526" d="M68.818 15.39l.062.078-.078.062-.062-.078z"/><defs><path id="ak" d="M59.3 15h1.8v2h-1.8z"/></defs><clipPath id="al"><use xlink:href="#ak" overflow="visible"/></clipPath><path clip-path="url(#al)" fill="#918F90" d="M61.2 16c0 .5-.4 1-.9 1s-.9-.4-.9-1c0-.5.4-1 .9-1s.9.4.9 1"/><path fill="#E9E9E9" d="M59.6 15.3c-.2.2-.3.4-.3.7 0 .5.4.9.9.9V16l-.6-.7zM61.2 15.9h-.9l.6.7c.2-.2.3-.4.3-.7"/><path fill="#FFF" d="M60.3 15v.9h.9c0-.5-.4-.9-.9-.9"/><path fill="#918F90" d="M60.3 16.8c.2 0 .5-.1.6-.3l-.6-.7v1zM60.3 15c-.2 0-.5.1-.6.3l.6.7v-1z"/><path fill="#D1D0D0" d="M60.9 15.9c0 .4-.3.7-.7.7-.4 0-.7-.3-.7-.7 0-.4.3-.7.7-.7.4.1.7.4.7.7"/><path fill="#918F90" d="M60.3 15.5c.3 0 .5.2.6.5-.1-.4-.3-.6-.6-.5-.3-.1-.6.2-.6.5 0-.3.3-.5.6-.5"/><path fill="#F2F1F2" d="M60.3 16.4c-.3 0-.5-.2-.6-.5 0 .3.2.6.6.5.3.1.6-.2.6-.5-.1.3-.3.5-.6.5"/><path fill="#A82526" d="M60.82 15.38l.062.08-.08.062-.06-.08z"/><defs><path id="am" d="M56.7 15h2v1.8h-2z"/></defs><clipPath id="an"><use xlink:href="#am" overflow="visible"/></clipPath><path clip-path="url(#an)" fill="#918F90" d="M57.7 15c.5 0 1 .4 1 .9s-.4.9-1 .9c-.5 0-1-.4-1-.9s.5-.9 1-.9"/><path fill="#E9E9E9" d="M57 16.5c.2.2.4.3.7.3.5 0 .9-.4.9-.9h-.9l-.7.6zM57.7 15v.9l.7-.6c-.2-.2-.5-.3-.7-.3"/><path fill="#FFF" d="M56.7 15.9h.9V15c-.4 0-.9.4-.9.9"/><path fill="#918F90" d="M58.6 15.9c0-.2-.1-.5-.3-.6l-.7.6h1zM56.7 15.9c0 .2.1.5.3.6l.7-.6h-1z"/><path fill="#D1D0D0" d="M57.7 15.2c.4 0 .7.3.7.7s-.3.7-.7.7c-.4 0-.7-.3-.7-.7s.3-.7.7-.7"/><path fill="#918F90" d="M57.2 15.9c0-.3.2-.5.5-.6-.3 0-.6.3-.5.6-.1.3.2.6.5.6-.3-.1-.5-.3-.5-.6"/><path fill="#F2F1F2" d="M58.1 15.9c0 .3-.2.5-.5.6.4 0 .6-.3.5-.6.1-.3-.2-.6-.5-.6.3 0 .5.3.5.6"/><path fill="#A82526" d="M57.104 15.342l.078-.063.063.077-.08.063z"/><path fill="#231F20" d="M11 15.9c0 .4-.3.7-.7.7s-.7-.3-.7-.7c0-.4.3-.7.7-.7s.7.3.7.7"/><circle fill="none" stroke="#FFF" stroke-width=".217" stroke-miterlimit="10" cx="10.3" cy="15.9" r=".7"/><path fill="#231F20" d="M13.1 15.9c0 .4-.3.7-.7.7s-.7-.3-.7-.7c0-.4.3-.7.7-.7s.7.3.7.7"/><circle fill="none" stroke="#FFF" stroke-width=".217" stroke-miterlimit="10" cx="12.4" cy="15.9" r=".7"/><path fill="#231F20" d="M1.9 12.1h5.6v2.2H1.9z"/><path fill="none" stroke="#FFF" stroke-width=".217" stroke-miterlimit="10" d="M1.9 12.1h5.6v2.2H1.9z"/><path fill="#BBBABA" d="M2.2 12.4h5.1v1.7H2.2z"/><path fill="#ECC57C" d="M2.2 12.4h5.1v.3H2.2z"/><path fill="#231F20" d="M70.4 12.1H76v2.2h-5.6z"/><path fill="none" stroke="#FFF" stroke-width=".217" stroke-miterlimit="10" d="M70.4 12.1H76v2.2h-5.6z"/><path fill="#BBBABA" d="M70.6 12.4h5.1v1.7h-5.1z"/><path fill="#ECC57C" d="M70.6 12.4h5.1v.3h-5.1z"/><path fill="#656263" d="M77.4 19.9H79v6.7h-1.6z"/><path fill="#231F20" d="M79 20.2h.3v6.2H79z"/><path fill="#373334" d="M77.4 26H79v.7h-1.6zM77.4 19.9H79v.7h-1.6z"/><path fill="#A09F9F" d="M77.4 21.8H79v1.1h-1.6z"/><path fill="#656263" d="M79.3 20h.2v6.4h-.2z"/><path fill="#373334" d="M79.3 25.9h.2v.6h-.2zM79.3 20h.2v.6h-.2z"/><path fill="#A09F9F" d="M79.3 21.9h.2V23h-.2z"/></svg>