<svg xmlns="http://www.w3.org/2000/svg" xmlns:xlink="http://www.w3.org/1999/xlink" width="44" height="71.9" viewBox="0 0 44 71.9"><path fill="#C8C7C7" d="M21 42.8h2.1v22.1H21z"/><g opacity=".4"><defs><path id="a" d="M21.8 42.8h.5v22.1h-.5z"/></defs><clipPath id="b"><use xlink:href="#a" overflow="visible"/></clipPath><path clip-path="url(#b)" fill="#C8C7C7" d="M21.8 42.8h.5v22.1h-.5z"/></g><path fill="#706D6E" d="M21.3 57s0-.1 0 0M23.6 65.4c0-.1 0-.3-.1-.4 0-.1 0-.1-.1-.2l-.1-.2c-.3-.4-.8-.7-1.2-1-.2-.1-.4-.3-.5-.4l-.2-.2c0-.1-.1-.2-.1-.2V62.5v-.2c0-.2.1-.3.3-.5.3-.3.7-.5 1.2-.8l.6-.6.1-.2c0-.1 0-.1.1-.2v-.5-.2l-.1-.2-.1-.2c-.1-.2-.3-.4-.6-.5V60l-.1.1c-.1.2-.3.3-.4.4-.4.3-.9.5-1.3.9-.2.2-.3.4-.4.7V62.7c0 .1 0 .1.1.2.2.5.7.8 1.1 1.1.4.3.8.5 1 .8l.1.1v.5c0 .1 0 .1-.1.2-.1.3-.4.5-.8.7-.3.2-.8.4-1 .8-.3.3-.4.7-.4 1 0 .1 0 .1.1.2 0 .1.1.2.1.2 0 .1.1.1.1.2l.2.2c.3.2.5.4.8.5.3.1.5.3.7.4.4.2.6.5.6.7 0 .1 0 .2.1.2v-.2c0-.2-.1-.5-.5-.8-.3-.3-.9-.6-1.2-1 0 0-.1-.1-.1-.2s0-.1-.1-.2v-.2-.4-.2c0-.1.1-.2.2-.3.2-.2.5-.4.9-.6.4-.2.8-.5 1-.9 0-.1.1-.2.1-.3v-.1.1zM21.3 51.4c0-.1 0 0 0 0M21.2 57c0-.1 0 0 0 0v-.2-.1c.1-.3.5-.6.9-.8.4-.2 1-.5 1.3-1 .2-.2.2-.5.2-.6V54c0-.1-.1-.2-.1-.3-.2-.3-.4-.5-.7-.7v1.3c0 .1 0 .2-.1.3v.1l-.1.1c-.2.3-.6.5-1.1.8-.2.1-.5.3-.7.5l-.3.3c-.1.1-.2.2-.2.3-.1.1-.1.2-.1.4V57.4c.1.3.2.5.4.7.1.1.3.2.4.3l.2-1.4zM21.1 51.3c0 .1 0 0 0 0 0-.3.1-.5.2-.7.4-.4.9-.7 1.3-1 .4-.3.5-.6.5-.8v-.2-.1.1s0 .1-.1.2c-.1.2-.3.4-.7.7-.4.2-1 .4-1.6.9-.3.2-.5.5-.5.9v.5c0 .1.1.2.1.3 0 .1.1.2.2.2.1.1.3.2.4.3l.2-1.3zM21.3 56.9v-.2.2z"/><path fill="#C8C7C7" d="M22 64.8h-1l1 6.8 1.1-6.8"/><g opacity=".4"><defs><path id="c" d="M21.8 64.8h.5v6.8h-.5z"/></defs><clipPath id="d"><use xlink:href="#c" overflow="visible"/></clipPath><path clip-path="url(#d)" fill="#C8C7C7" d="M22 64.8h-.2l.2 6.8.3-6.8"/></g><path fill="#AEACAC" d="M25.6 35.5l.8-.2c0-.2-.1-.4-.1-.6 0-.3 0-.6.1-.8l-.8-.2c-.3-.1-.4-.4-.3-.7.1-.3.4-.4.7-.3l.8.3c.2-.4.5-.8.9-1.1l-.5-.7c-.2-.2-.1-.6.1-.8.2-.2.6-.1.8.1l.5.7c.4-.2.9-.4 1.4-.4v-.9c0-.3.2-.5.5-.5s.5.2.5.5v.9c.5.1.9.2 1.3.5l.5-.7c.2-.2.5-.3.8-.1.2.2.3.5.1.8l-.5.7c.3.3.6.7.8 1.1l.9-.3c.3-.1.6.1.7.3.1.3-.1.6-.3.7l-.9.3c0 .2.1.5.1.7 0 .2 0 .5-.1.7l.8.3c.3.1.4.4.3.7-.1.3-.4.4-.7.3l-.8-.5c-.1.2-.2.4-.3.5 1.1 4.4 5.9 22.4 6.4 22.8.6.5 2.7 5.9 3.6 9.3.9 3.4-.1 2.9-.1 2.9-.9-3.7-4.4-9.9-5-10.1C38 61.5 36 59 36 59l-6.6-20.5c-.3-.1-.7-.2-1-.4l-.5.6c-.2.2-.5.3-.8.1-.2-.2-.3-.5-.1-.8l.5-.6c-.4-.3-.6-.8-.9-1.2l-.7.2c-.3.1-.6-.1-.7-.3-.1-.2.1-.5.4-.6M43.7 71s-1.6-7.6-5.6-12.1"/><path fill="#706D6E" d="M43.7 71s-.2-.8-.6-2c-.2-.6-.5-1.3-.7-2-.1-.4-.3-.7-.4-1.1-.2-.4-.3-.8-.5-1.2-.2-.4-.4-.8-.5-1.1-.2-.4-.3-.8-.5-1.1-.2-.3-.4-.7-.6-1-.2-.3-.3-.6-.5-.9-.7-1-1.2-1.7-1.2-1.7s.5.6 1.3 1.6c.2.2.4.6.6.9.2.3.4.6.6 1 .2.3.4.7.6 1.1.2.4.4.8.6 1.1.2.4.3.8.5 1.2.1.4.3.8.4 1.1.2.8.5 1.5.6 2.1.2.6.3 1.1.4 1.5-.2.3-.1.5-.1.5"/><path fill="#AEACAC" d="M18.4 35.5l-.8-.2c0-.2.1-.4.1-.6 0-.3 0-.6-.1-.8l.8-.2c.3-.1.4-.4.3-.7-.1-.3-.4-.4-.7-.3l-.8.3c-.2-.4-.5-.8-.9-1.1l.5-.7c.2-.2.1-.6-.1-.8-.2-.4-.5-.4-.7-.1l-.5.7c-.4-.2-.9-.4-1.4-.4v-.9c0-.3-.2-.5-.5-.5s-.5.2-.5.5v.9c-.5.1-.9.2-1.3.5l-.5-.7c-.2-.2-.5-.3-.8-.1-.2.2-.3.5-.1.8l.5.7c-.3.3-.6.7-.8 1.1l-.9-.3c-.3-.1-.6.1-.7.3-.1.3.1.6.3.7l.9.3c0 .2-.1.5-.1.7 0 .2 0 .5.1.7l-.8.3c-.3.1-.4.4-.4.7.1.3.4.4.7.3l.8-.3c.1.2.2.4.3.5-1.1 4.4-5.9 22.4-6.4 22.8-.6.5-2.7 5.9-3.6 9.3-.9 3.4.1 2.9.1 2.9.9-3.7 4.4-9.9 5-10.1C6 61.5 8 59 8 59l6.6-20.5c.3-.1.7-.2 1-.4l.5.6c.2.2.5.3.8.1.2-.2.3-.5.1-.8l-.5-.6c.4-.3.6-.8.9-1.2l.7.2c.3.1.6-.1.7-.3.1-.2-.1-.5-.4-.6"/><path fill="#B2B1B1" d="M20.2 41.5h3.7v1.4h-3.7zM19.4 40.1h5.3v1.4h-5.3z"/><g opacity=".4"><defs><path id="e" d="M21.6 41.5h.9v1.4h-.9z"/></defs><clipPath id="f"><use xlink:href="#e" overflow="visible"/></clipPath><path clip-path="url(#f)" fill="#B2B1B1" d="M21.6 41.5h.9v1.4h-.9z"/></g><g opacity=".4"><defs><path id="g" d="M21.4 40.1h1.3v1.4h-1.3z"/></defs><clipPath id="h"><use xlink:href="#g" overflow="visible"/></clipPath><path clip-path="url(#h)" fill="#B2B1B1" d="M21.4 40.1h1.3v1.4h-1.3z"/></g><path fill="#C8C7C7" d="M30.5 32.6l-8.5-.7-8.5.7s-1.9.3-1.9 2.2 1.8 2.9 1.8 2.9l2.1 1.3s.4.5.4 1.2v18.1s-.4 1.6-1.2 2.3c-.7.7-1.3 2-1.3 5.8h17c0-3.8-.6-5.1-1.3-5.8-.7-.7-1.2-2.3-1.2-2.3V40.1c0-.7.4-1.2.4-1.2l2.1-1.3s1.8-1 1.8-2.9-1.7-2.1-1.7-2.1M26.9 60H16.3s.7-.3.9-1.1V41.5c0-.7.6-1.4 1.4-1.4h6.9c.8 0 1.4.6 1.4 1.4v17.4c.2.8.9 1.1.9 1.1h-.9z"/><g opacity=".6"><defs><path id="i" d="M13.6 60.5h17v5.8h-17z"/></defs><clipPath id="j"><use xlink:href="#i" overflow="visible"/></clipPath><g opacity=".4" clip-path="url(#j)"><defs><path id="k" d="M13.6 60.5h2.6v5.8h-2.6z"/></defs><clipPath id="l"><use xlink:href="#k" overflow="visible"/></clipPath><path clip-path="url(#l)" fill="#868484" d="M14.9 60.5c-.7.7-1.3 2-1.3 5.8h1.5c0-3.8.5-5.1 1.1-5.8h-1.3z"/></g><g opacity=".4" clip-path="url(#j)"><defs><path id="m" d="M28 60.5h2.6v5.8H28z"/></defs><clipPath id="n"><use xlink:href="#m" overflow="visible"/></clipPath><path clip-path="url(#n)" fill="#EBEBEB" d="M29.3 60.5H28c.6.7 1 2 1.1 5.8h1.5c0-3.8-.5-5.1-1.3-5.8"/></g><g opacity=".4" clip-path="url(#j)"><defs><path id="o" d="M26.3 60.5h2.8v5.8h-2.8z"/></defs><clipPath id="p"><use xlink:href="#o" overflow="visible"/></clipPath><path clip-path="url(#p)" fill="#D7D7D7" d="M26.3 60.5c.4.7.7 2 .7 5.8h2.1c0-3.8-.5-5.1-1.1-5.8h-1.7z"/></g><g opacity=".4" clip-path="url(#j)"><defs><path id="q" d="M15.1 60.5h2.8v5.8h-2.8z"/></defs><clipPath id="r"><use xlink:href="#q" overflow="visible"/></clipPath><path clip-path="url(#r)" fill="#989696" d="M16.2 60.5c-.6.7-1 2-1.1 5.8h2.1c0-3.8.3-5.1.7-5.8h-1.7z"/></g></g><path fill="#918F90" d="M11.7 34.7v.4c0 .1 0 .3.1.4.1.2.1.5.3.7.2.4.6.8 1 1.1.4.3.8.5 1.3.8l1.3.8c.3.3.4.7.4 1.1V58.1c-.2.7-.5 1.4-.9 2-.2.3-.5.5-.7.8-.2.3-.3.6-.4 1-.1.3-.2.7-.2 1.1 0 .4-.1.7-.1 1.1-.1.7-.1 1.5-.1 2.2h17l-.1.1c0-.7 0-1.5-.1-2.2 0-.4-.1-.7-.1-1.1-.1-.4-.1-.7-.2-1.1-.1-.3-.2-.7-.4-1-.2-.3-.5-.5-.7-.8-.4-.6-.7-1.3-.9-2V41.3v-1.2c0-.4.2-.8.4-1.1l1.3-.8c.4-.3.9-.5 1.3-.8.4-.3.7-.7 1-1.1.1-.2.2-.5.3-.7.1-.1 0-.2.1-.4v-.4.4c0 .1 0 .3-.1.4-.1.2-.1.5-.3.7-.2.4-.6.8-1 1.1-.4.3-.8.5-1.3.8l-1.3.8c-.2.3-.4.7-.4 1.1V58.2c.2.7.5 1.4.9 2 .2.3.5.5.7.8.2.3.3.7.4 1 .1.3.2.7.2 1.1 0 .4.1.7.1 1.1.1.7.1 1.5.1 2.2v.1H13.5c0-.7 0-1.5.1-2.2 0-.4.1-.7.1-1.1.1-.4.1-.7.2-1.1.1-.4.2-.7.4-1 .2-.3.5-.6.7-.8.4-.6.7-1.3.9-2V41.4v-1.2c0-.4-.1-.8-.4-1.1l-1.3-.8c-.4-.3-.9-.5-1.3-.8-.4-.3-.7-.7-1-1.1-.1-.2-.2-.5-.3-.7-.1-.1 0-.2-.1-.4l.2-.6z"/><path fill="#918F90" d="M26.9 60H16.2l.2-.1c.2-.1.4-.3.6-.4.2-.2.2-.4.3-.6V41.6c0-.5.2-1 .6-1.3.4-.3.9-.3 1.4-.3h5.8c.5 0 1-.1 1.4.3.4.3.6.8.6 1.3v17.3c.1.2.2.5.3.7.2.2.3.4.6.5l-1.1-.1zm0 0h.9c-.2-.1-.4-.3-.6-.5-.2-.2-.3-.4-.3-.7V41.5c0-.5-.2-.9-.5-1.2-.4-.3-.9-.2-1.3-.3h-5.8c-.5 0-1 0-1.4.2-.4.3-.6.7-.5 1.2v17.3c-.1.2-.2.5-.3.7-.2.2-.4.4-.6.5v-.1l10.4.2z"/><path fill="#B2B1B1" d="M31.1 3.1C29.4 2.1 25.4 0 22 0c-3.3 0-7.3 2.1-9.1 3.1-1.7 1-1.3 2.7-1.3 2.7s.8 2.4 2.4 5.2c1.7 2.8 4 3.3 4.7 3.4.7 0 .5.9.5.9v3.5h5.4v-3.5s-.1-.8.5-.9c.7 0 3-.6 4.7-3.4 1.7-2.8 2.4-5.2 2.4-5.2s.7-1.7-1.1-2.7m-2.8 3.2c-.1 1.4-.4 4.3-1.8 4.9 0 0-.3.1-.6-.4h-7.6c-.3.5-.6.4-.6.4-1.4-.6-1.7-3.6-1.8-4.9-.1-1.4.5-2.1.5-2.1 2-2.3 5.7-2.5 5.7-2.5s3.7.2 5.7 2.5c0 0 .6.7.5 2.1"/><defs><path id="s" d="M12 .3h20.2v5.5H12z"/></defs><clipPath id="t"><use xlink:href="#s" overflow="visible"/></clipPath><path clip-path="url(#t)" fill="#706D6E" d="M32.1 5.8v-.3c0-.2 0-.5-.1-.8-.1-.3-.3-.7-.6-1-.2-.2-.4-.3-.6-.4-.2-.1-.5-.3-.7-.4-.5-.3-1.1-.5-1.7-.8-.6-.3-1.3-.5-1.9-.8L24.4.7c-.4-.1-.7-.1-1.1-.2L22.2.4 21 .5c-.4 0-.8.1-1.1.2-.7.2-1.5.4-2.1.6-.7.2-1.3.5-1.9.8-.6.3-1.2.5-1.7.8-.3.1-.5.3-.7.4-.2.1-.4.3-.6.4-.3.3-.5.7-.6 1-.3.3-.3.6-.3.8v-.8c.1-.3.3-.7.6-1.1.2-.2.4-.3.6-.5.2-.1.5-.3.7-.4.5-.3 1.1-.6 1.7-.8.6-.3 1.3-.6 1.9-.8.7-.3 1.4-.5 2.2-.6.4-.1.8-.2 1.1-.2L22 .2l1.2.1c.4.1.8.1 1.1.2.7.2 1.5.4 2.2.6.7.2 1.3.5 1.9.8.6.3 1.2.6 1.7.8.3.1.5.3.7.4.2.2.4.3.6.5.3.3.5.7.6 1.1.1.3.1.6.1.8.1.2 0 .3 0 .3"/><path fill="#706D6E" d="M28.6 6.4c-.1 1.1-.3 2.2-.7 3.2-.2.5-.4 1-.8 1.4-.2.2-.4.4-.7.5-.3.1-.6-.2-.7-.5h.1-7.3.1c-.1.1-.2.3-.3.4-.1 0-.2.1-.3.1-.1 0-.2-.1-.3-.1-.3-.1-.5-.4-.7-.7-.4-.5-.6-1.2-.8-1.8-.2-.6-.3-1.3-.4-1.9 0-.3-.1-.6-.1-1 0-.3 0-.7.1-1l.3-.9c.2-.3.4-.5.7-.7.5-.4 1.1-.8 1.6-1.1 1.2-.6 2.5-.9 3.8-1 1.5.1 3 .6 4.3 1.3.7.4 1.3.8 1.7 1.4.3.8.4 1.6.4 2.4m-.1 0c0-.4 0-.8-.1-1.1-.1-.4-.2-.7-.4-1-.5-.6-1.1-1-1.7-1.4-1.3-.7-2.8-1.1-4.3-1.3-1.3.1-2.6.4-3.7 1-.6.3-1.1.6-1.6 1-.2.2-.5.4-.7.7-.2.3-.3.6-.3.9-.1.3-.1.6-.1 1 0 .3.1.6.1 1 .1.5.3 1.2.5 1.8.2.6.4 1.2.8 1.7.2.3.4.5.7.6.3.2.5-.1.7-.3h7.3c.1.2.3.5.6.4.1-.1.2-.1.3-.2l.3-.3c.4-.4.6-.9.8-1.4.5-1 .7-2.1.8-3.1"/><path fill="#B2B1B1" d="M20.2 18.8h3.7v1.4h-3.7z"/><path fill="#B2B1B1" d="M19.4 20.1h5.3v1.4h-5.3zM20.2 21.5h3.7v1.4h-3.7zM19.4 22.9h5.3v1.4h-5.3z"/><path fill="#B2B1B1" d="M20.2 24.2h3.7v1.4h-3.7zM19.4 25.6h5.3V27h-5.3z"/><g opacity=".4"><defs><path id="u" d="M21.6 18.8h.9v1.4h-.9z"/></defs><clipPath id="v"><use xlink:href="#u" overflow="visible"/></clipPath><path clip-path="url(#v)" fill="#B2B1B1" d="M21.6 18.8h.9v1.4h-.9z"/></g><g opacity=".4"><defs><path id="w" d="M21.4 20.1h1.3v1.4h-1.3z"/></defs><clipPath id="x"><use xlink:href="#w" overflow="visible"/></clipPath><path clip-path="url(#x)" fill="#B2B1B1" d="M21.4 20.1h1.3v1.4h-1.3z"/></g><g opacity=".4"><defs><path id="y" d="M21.6 21.5h.9v1.4h-.9z"/></defs><clipPath id="z"><use xlink:href="#y" overflow="visible"/></clipPath><path clip-path="url(#z)" fill="#B2B1B1" d="M21.6 21.5h.9v1.4h-.9z"/></g><g opacity=".4"><defs><path id="A" d="M21.4 22.9h1.3v1.4h-1.3z"/></defs><clipPath id="B"><use xlink:href="#A" overflow="visible"/></clipPath><path clip-path="url(#B)" fill="#B2B1B1" d="M21.4 22.9h1.3v1.4h-1.3z"/></g><g opacity=".4"><defs><path id="C" d="M21.6 24.2h.9v1.4h-.9z"/></defs><clipPath id="D"><use xlink:href="#C" overflow="visible"/></clipPath><path clip-path="url(#D)" fill="#B2B1B1" d="M21.6 24.2h.9v1.4h-.9z"/></g><g opacity=".4"><defs><path id="E" d="M21.4 25.6h1.3V27h-1.3z"/></defs><clipPath id="F"><use xlink:href="#E" overflow="visible"/></clipPath><path clip-path="url(#F)" fill="#B2B1B1" d="M21.4 25.6h1.3V27h-1.3z"/></g><path fill="#B2B1B1" d="M24.7 14.4c0 1.6-1.2 2.9-2.7 2.9-1.5 0-2.7-1.3-2.7-2.9h5.4z"/><path fill="#DCDBDB" d="M22.1 17.5c-1.3 0-2.3-1.1-2.5-2.6 0 1.6 1.1 2.9 2.5 2.9s2.5-1.3 2.5-2.9c-.2 1.4-1.2 2.6-2.5 2.6"/><path fill="#918F90" d="M23.5 15.8c0 .6-.6 1.2-1.4 1.2-.8 0-1.4-.5-1.4-1.2h2.8z"/><defs><path id="G" d="M14.8 10.6h14.5v4.3H14.8z"/></defs><clipPath id="H"><use xlink:href="#G" overflow="visible"/></clipPath><path clip-path="url(#H)" fill="#706D6E" d="M24.5 14.9v-.3c0-.1 0-.2.1-.3.1-.1.2-.3.4-.3s.3 0 .5-.1c.2 0 .4-.1.5-.1.4-.1.8-.3 1.1-.6.3-.2.6-.6.9-.8.3-.3.5-.6.7-.8.4-.5.6-.9.6-.9s-.2.4-.5.9c-.2.3-.4.6-.7.9-.2.1-.3.3-.5.4-.2.1-.3.2-.5.4l-.6.3c-.2.1-.4.2-.5.3-.2.1-.4.2-.5.2-.2.1-.4.1-.5.1-.3 0-.4.3-.4.5-.1.1 0 .2-.1.2zM14.8 10.6s.3.3.6.9c.1.1.2.2.3.4.1.1.2.3.3.5l.4.4c.2.1.3.2.5.4.2.1.4.2.5.3.2.1.4.2.6.2.2.1.4.1.5.2.2.1.3.1.5.1.1 0 .3.2.4.3.1.1.1.2.1.3v0c0-.1 0-.2-.1-.3-.1-.1-.1-.2-.3-.2-.1 0-.3 0-.5-.1-.2 0-.4-.1-.6-.2-.4-.2-.8-.4-1.1-.6-.4-.2-.6-.6-1-.8-.3-.3-.5-.6-.7-.8-.2-.6-.4-1-.4-1z"/><g opacity=".5"><defs><path id="I" d="M20.2 18.8h3.7v.3h-3.7z"/></defs><clipPath id="J"><use xlink:href="#I" overflow="visible"/></clipPath><path clip-path="url(#J)" fill="#706D6E" d="M20.2 18.8H24s-.2.1-.6.1c-.2 0-.4.1-.6.1h-1.4c-.2 0-.4-.1-.6-.1-.4 0-.6-.1-.6-.1z"/></g><g opacity=".5"><defs><path id="K" d="M20.2 21.5h3.7v.3h-3.7z"/></defs><clipPath id="L"><use xlink:href="#K" overflow="visible"/></clipPath><path clip-path="url(#L)" fill="#706D6E" d="M20.2 21.5H24s-.2.1-.6.1c-.2 0-.4.1-.6.1h-1.4c-.2 0-.4-.1-.6-.1-.4 0-.6-.1-.6-.1z"/></g><g opacity=".5"><defs><path id="M" d="M20.2 24.2h3.7v.3h-3.7z"/></defs><clipPath id="N"><use xlink:href="#M" overflow="visible"/></clipPath><path clip-path="url(#N)" fill="#706D6E" d="M20.2 24.2H24s-.2.1-.6.1c-.2 0-.4.1-.6.1h-1.4c-.2 0-.4-.1-.6-.1-.4 0-.6-.1-.6-.1z"/></g><g opacity=".5"><defs><path id="O" d="M19.4 40.2h5.3v.3h-5.3z"/></defs><clipPath id="P"><use xlink:href="#O" overflow="visible"/></clipPath><path clip-path="url(#P)" fill="#706D6E" d="M19.4 40.2h5.4s-.3.1-.8.2c-.3 0-.5.1-.9.1h-2c-.3 0-.6-.1-.9-.1-.5-.1-.8-.2-.8-.2z"/></g><path fill="#B2B1B1" d="M18.8 26.9h6.6v13.2h-6.6z"/><g opacity=".4"><defs><path id="Q" d="M24.5 26.9h.9v13.2h-.9z"/></defs><clipPath id="R"><use xlink:href="#Q" overflow="visible"/></clipPath><path clip-path="url(#R)" fill="#EBEBEB" d="M24.5 26.9h.9v13.2h-.9z"/></g><g opacity=".4"><defs><path id="S" d="M18.8 26.9h.9v13.2h-.9z"/></defs><clipPath id="T"><use xlink:href="#S" overflow="visible"/></clipPath><path clip-path="url(#T)" fill="#868484" d="M18.8 26.9h.9v13.2h-.9z"/></g><g opacity=".4"><defs><path id="U" d="M19.7 26.9h1.1v13.2h-1.1z"/></defs><clipPath id="V"><use xlink:href="#U" overflow="visible"/></clipPath><path clip-path="url(#V)" fill="#989696" d="M19.7 26.9h1.1v13.2h-1.1z"/></g><g opacity=".4"><defs><path id="W" d="M23.4 26.9h1.1v13.2h-1.1z"/></defs><clipPath id="X"><use xlink:href="#W" overflow="visible"/></clipPath><path clip-path="url(#X)" fill="#D7D7D7" d="M23.4 26.9h1.1v13.2h-1.1z"/></g><path fill="#D7D7D7" d="M13.8 35.8c-.6 0-1.1-.5-1.1-1.1s.5-1.1 1.1-1.1c.6 0 1.1.5 1.1 1.1s-.5 1.1-1.1 1.1"/><path fill="#918F90" d="M13.8 33.7c.6 0 1 .5 1 1 0 .6-.5 1-1 1-.6 0-1-.5-1-1s.4-1 1-1m0-.1c-.7 0-1.2.5-1.2 1.2s.5 1.2 1.2 1.2 1.2-.5 1.2-1.2-.6-1.2-1.2-1.2"/><path fill="#A7A5A6" d="M13.8 35.5c-.5 0-.9-.4-1-.9v.1c0 .6.4 1 1 1s1-.5 1-1v-.1c-.1.5-.5.9-1 .9"/><path fill="#EDEDED" d="M14.3 34.3c0 .2-.2.3-.5.3s-.5-.2-.5-.3.2-.3.5-.3.5.1.5.3"/><path fill="#D7D7D7" d="M30.4 35.8c-.6 0-1.1-.5-1.1-1.1s.5-1.1 1.1-1.1c.6 0 1.1.5 1.1 1.1s-.5 1.1-1.1 1.1"/><path fill="#918F90" d="M30.4 33.7c.6 0 1 .5 1 1 0 .6-.5 1-1 1-.6 0-1-.5-1-1s.4-1 1-1m0-.1c-.7 0-1.2.5-1.2 1.2s.5 1.2 1.2 1.2 1.2-.5 1.2-1.2-.6-1.2-1.2-1.2"/><path fill="#A7A5A6" d="M30.4 35.5c-.5 0-.9-.4-1-.9v.1c0 .6.5 1 1 1 .6 0 1-.5 1-1v-.1c-.1.5-.5.9-1 .9"/><path fill="#EDEDED" d="M30.9 34.3c0 .2-.2.3-.5.3s-.5-.2-.5-.3.2-.3.5-.3.5.1.5.3"/><g><defs><path id="Y" d="M16.2 60.1h11.7v.3H16.2z"/></defs><clipPath id="Z"><use xlink:href="#Y" overflow="visible"/></clipPath><path clip-path="url(#Z)" fill="#918F90" d="M16.2 60.3s.7 0 1.8-.1c1.1 0 2.6-.1 4-.1 1.5 0 2.9 0 4 .1 1.1 0 1.8.1 1.8.1s-.7 0-1.8.1c-1.1 0-2.6 0-4 .1-1.5 0-2.9 0-4-.1s-1.8-.1-1.8-.1"/></g><path fill="#AEACAC" d="M.3 71s1.6-7.6 5.6-12.1"/><path fill="#706D6E" d="M.3 71s0-.2.1-.6c.1-.4.2-.9.4-1.5s.4-1.3.6-2.1c.1-.4.3-.8.4-1.1.2-.3.4-.7.5-1.1.2-.4.4-.8.6-1.1.2-.4.3-.8.6-1.1.2-.3.4-.7.6-1l.6-.9c.8-1 1.3-1.6 1.3-1.6s-.5.7-1.2 1.7c-.2.3-.3.6-.5.9-.2.3-.4.6-.6 1-.2.3-.4.7-.5 1.1-.2.4-.4.8-.5 1.1-.2.4-.3.8-.5 1.2-.1.4-.3.8-.4 1.1-.3.7-.5 1.4-.7 2-.6 1.2-.8 2-.8 2M22.8 59.8z"/></svg>