<svg xmlns="http://www.w3.org/2000/svg" xmlns:xlink="http://www.w3.org/1999/xlink" width="72.9" height="46.9" viewBox="0 0 72.9 46.9"><path fill="#D3D2D2" d="M27.2 25.3c0 .3-.3.6-.6.6h-3c-.3 0-.6-.3-.6-.6v-3.6c0-.3.3-.6.6-.6h3c.3 0 .6.3.6.6v3.6z"/><path fill="#B2B1B1" d="M27.2 25.3c0 .3-.3.6-.6.6h-3c-.3 0-.6-.3-.6-.6v-3.6c0-.3.3-.6.6-.6h3c.3 0 .6.3.6.6v3.6z"/><path fill="#BEBDBD" d="M27.2 25.1c0 .3-.3.6-.6.6h-3c-.3 0-.6-.3-.6-.6v-3.4c0-.3.3-.6.6-.6h3c.3 0 .6.3.6.6v3.4z"/><path fill="#CAC9C9" d="M27.2 25c0 .3-.3.5-.6.5h-3c-.3 0-.6-.2-.6-.5v-3.1c0-.3.3-.5.6-.5h3c.3 0 .6.2.6.5V25z"/><path fill="#D6D5D6" d="M27.2 24.9c0 .3-.3.5-.6.5h-3c-.3 0-.6-.2-.6-.5V22c0-.3.3-.5.6-.5h3c.3 0 .6.2.6.5v2.9z"/><path fill="#E2E2E2" d="M27.2 24.8c0 .2-.3.4-.6.4h-3c-.3 0-.6-.2-.6-.4v-2.7c0-.2.3-.4.6-.4h3c.3 0 .6.2.6.4v2.7z"/><path fill="#444142" d="M23.2 20.8c-1.1.2-5.8.4-11.5.4S1.4 21.1.3 20.8c-.2.1-.3.3-.3.5v4.3c0 .2.1.4.3.5 1.1-.2 5.8-.4 11.5-.4s10.3.2 11.5.4c.2-.1.3-.3.3-.5v-4.3c-.1-.2-.2-.4-.4-.5M5.1 24.7c-1.5 0-2.7-.6-2.7-1.3 0-.7 1.2-1.3 2.7-1.3 1.5 0 2.7.6 2.7 1.3 0 .8-1.2 1.3-2.7 1.3"/><path fill="#C8C7C7" d="M32.9 40.1c4.2 4.2 10 6.8 16.5 6.8 6.4 0 12.3-2.6 16.5-6.8 4.2-4.2 6.8-10 6.8-16.5 0-6.4-2.6-12.3-6.8-16.5L49.3 23.6 32.9 40.1z"/><path fill="#BAB9B9" d="M65.8 7.1c-1.1-1.1-8.7 4.5-10.3 4.5-1.6 0-9.2 6.8-10.3 7.9-1.1 1.1-7.9 8.7-7.9 10.3 0 1.6-5.5 9.2-4.5 10.3 3.2 3.2 9.6 3.1 14.4 3.1s11.2-4 14.4-7.2c3.2-3.2 7.2-9.6 7.2-14.4s.2-11.3-3-14.5"/><path fill="#ACABAB" d="M65.8 7.1c-2.1-2.1-9.1.7-12.3.7s-10.2 5.4-12.3 7.5-7.5 9.1-7.5 12.4-2.9 10.3-.8 12.4c2.1 2.1 9.1-.7 12.3-.7s10.2-5.4 12.3-7.5c2.1-2.1 7.5-9.1 7.5-12.4.1-3.2 2.9-10.3.8-12.4"/><path fill="#9F9D9D" d="M65.8 7.1c-3.1-3.1-9.6-3-14.4-3s-11.2 4-14.4 7.2c-3.2 3.2-7.2 9.6-7.2 14.4 0 4.8-.1 11.2 3.1 14.4 1.1 1.1 8.7-4.5 10.3-4.5s9.2-6.8 10.3-7.9c1.1-1.1 7.9-8.7 7.9-10.3-.1-1.6 5.5-9.2 4.4-10.3"/><path fill="#918F90" d="M49.3.3C42.9.3 37 2.9 32.8 7.1c-4.2 4.2-6.8 10-6.8 16.5 0 6.4 2.6 12.3 6.8 16.5l16.5-16.5L65.8 7.1C61.6 2.9 55.8.3 49.3.3"/><path fill="#A7A5A6" d="M68 23.4c0 10.2-8.3 18.5-18.5 18.5S31 33.6 31 23.4 39.3 5 49.5 5 68 13.2 68 23.4"/><circle fill="none" stroke="#A7A5A6" stroke-width=".621" stroke-miterlimit="10" cx="49.5" cy="23.4" r="23.1"/><defs><path id="a" d="M26.2.2h46.6v46.6H26.2z"/></defs><clipPath id="b"><use xlink:href="#a" overflow="visible"/></clipPath><g clip-path="url(#b)"><defs><path id="c" d="M26.2.2h46.6v46.6H26.2z"/></defs><clipPath id="d"><use xlink:href="#c" overflow="visible"/></clipPath><path clip-path="url(#d)" fill="#4F4C4D" d="M66 7C61.8 2.8 56 .2 49.5.2 36.6.2 26.2 10.6 26.2 23.5c0 6.4 2.6 12.3 6.8 16.5 4.2 4.2 10 6.8 16.5 6.8 12.9 0 23.3-10.4 23.3-23.3C72.8 17 70.2 11.2 66 7"/></g><g clip-path="url(#b)"><defs><path id="e" d="M26.6.5h45.8v45.8H26.6z"/></defs><clipPath id="f"><use xlink:href="#e" overflow="visible"/></clipPath><path clip-path="url(#f)" fill="#7B7979" d="M65.7 7.2C61.6 3.1 55.8.5 49.5.5 36.8.5 26.6 10.8 26.6 23.4c0 6.3 2.6 12.1 6.7 16.2s9.9 6.7 16.2 6.7c12.7 0 22.9-10.3 22.9-22.9 0-6.3-2.6-12-6.7-16.2"/></g><g clip-path="url(#b)"><defs><path id="g" d="M27 .9h45.1V46H27z"/></defs><clipPath id="h"><use xlink:href="#g" overflow="visible"/></clipPath><path clip-path="url(#h)" fill="#A7A5A6" d="M65.4 7.5C61.3 3.4 55.7.9 49.5.9 37.1.9 27 11 27 23.4c0 6.2 2.5 11.9 6.6 15.9 4.1 4.1 9.7 6.6 15.9 6.6C61.9 46 72 35.9 72 23.4c0-6.2-2.5-11.8-6.6-15.9"/></g><g clip-path="url(#b)"><defs><path id="i" d="M27.3 1.3h44.3v44.3H27.3z"/></defs><clipPath id="j"><use xlink:href="#i" overflow="visible"/></clipPath><path clip-path="url(#j)" fill="#D3D2D2" d="M65.2 7.8c-4-4-9.5-6.5-15.7-6.5-12.2 0-22.2 9.9-22.2 22.2 0 6.1 2.5 11.7 6.5 15.7s9.6 6.5 15.7 6.5c12.2 0 22.2-9.9 22.2-22.2 0-6.2-2.5-11.7-6.5-15.7"/></g><g clip-path="url(#b)"><defs><path id="k" d="M27.7 1.7h43.6v43.6H27.7z"/></defs><clipPath id="l"><use xlink:href="#k" overflow="visible"/></clipPath><path clip-path="url(#l)" fill="#FFF" d="M64.9 8C61 4.1 55.5 1.7 49.5 1.7c-12 0-21.8 9.8-21.8 21.8 0 6 2.4 11.5 6.4 15.4 3.9 3.9 9.4 6.4 15.4 6.4 12 0 21.8-9.8 21.8-21.8 0-6.1-2.5-11.5-6.4-15.5"/></g><path fill="#444142" d="M28.7 22.2c0 .3-.1.6-.3.6s-.3-.3-.3-.6.1-.6.3-.6.3.3.3.6M28.7 24.7c0 .3-.1.6-.3.6s-.3-.3-.3-.6.1-.6.3-.6.3.2.3.6M29.7 23.4c0 .3-.1.6-.3.6s-.3-.3-.3-.6.1-.6.3-.6.3.3.3.6"/><path fill="#2E2A2B" d="M20.4 25.8c1.4.1 2.3.2 2.8.3.2-.1.3-.3.3-.5v-2.1c0 1.2-1.3 2.1-3.1 2.3M23.2 20.8c-.4.1-1.4.2-2.8.3 1.7.2 3 1.2 3 2.4v-2.1c.1-.3 0-.5-.2-.6"/><defs><path id="m" d="M2.2 22.1H5v2.7H2.2z"/></defs><clipPath id="n"><use xlink:href="#m" overflow="visible"/></clipPath><path clip-path="url(#n)" fill="#2E2A2B" d="M2.3 23.4c0-.6 1.2-1.2 2.7-1.2V22c-1.6 0-2.8.6-2.8 1.4 0 .8 1.2 1.4 2.8 1.4v-.2c-1.4 0-2.7-.5-2.7-1.2"/><defs><path id="o" d="M5 22.1h2.8v2.7H5z"/></defs><clipPath id="p"><use xlink:href="#o" overflow="visible"/></clipPath><path clip-path="url(#p)" fill="#2E2A2B" d="M7.8 23.4c0-.8-1.2-1.4-2.8-1.4v.2c1.4 0 2.7.5 2.7 1.2S6.5 24.6 5 24.6v.2c1.6 0 2.8-.6 2.8-1.4"/><path fill="#E1856C" d="M50.7 8.3c1.6 1 3 2 4.5 3.2 1.6 1.3 2.9 2.8 4.6 3.9 1.4.9 2.6 1.5 4.1 2.1 1.3.6 2.2 1 1.8 2.4-.4 1.2-1.2 2-2.1 2.9-1 1-2.3.4-3.5-.2-3.1-1.8-5-4.8-7.9-6.8-1.1-.8-2.2-1.6-3.3-2.3-.9-.6-2-.8-1.7-2 .2-.9.7-1.7 1.2-2.5.6-.9.8-1.1 1.8-1l.5.3z"/><path fill="#ECC57C" d="M47.5 11.5c.4-.1.9 0 1.2.2.4.2.7.4 1 .7.3.3.6.5 1 .7.3.2.7.5 1 .7.6.5 1.2 1.1 1.8 1.7.3.3.5.6.9.8.3.3.7.5 1 .7.7.5 1.3 1 1.9 1.5.6.6 1.1 1.1 1.8 1.6s1.3.9 2 1.4c.7.5 1.5.6 2.2 1.1-.4-.2-.8-.3-1.2-.4-.4-.1-.8-.3-1.2-.5-.7-.4-1.4-.8-2.1-1.3-.3-.2-.7-.5-1-.8l-.9-.9c-.6-.6-1.2-1.1-1.8-1.6l-1-.8-.9-.9c-.6-.6-1.3-1-1.9-1.5-.6-.5-1.3-.9-2-1.4-.3-.3-.6-.5-1-.7 0-.1-.4-.3-.8-.3zM64.6 21.6c-.9-.1-1.7-.5-2.4-1s-1.4-.9-2.1-1.4c-.3-.3-.7-.5-1-.9-.3-.3-.6-.7-.8-1-.5-.7-1.2-1.2-1.9-1.8l-1.9-1.7c-.6-.5-1.3-1-2-1.5-1.4-1-2.8-2-4.1-3 .4.1.8.4 1.1.6l1.1.7c.7.5 1.4.9 2.1 1.4.7.5 1.4 1 2 1.6l1.8 1.8 1.8 1.8c.6.7 1.2 1.2 1.9 1.7l2.1 1.5c.7.5 1.4.9 2.3 1.2zM49.1 8.7c1.4.8 2.7 1.7 4 2.6 1.3 1 2.5 2 3.9 2.8.7.4 1.3.9 1.9 1.4l1.9 1.5c.6.5 1.3.9 2 1.2.7.3 1.5.5 2.2 1-.7-.4-1.5-.5-2.3-.8-.8-.2-1.5-.7-2.1-1.2-.7-.5-1.3-1-1.9-1.5-.6-.5-1.2-1.1-1.8-1.5-.6-.5-1.2-1-1.9-1.4-.7-.5-1.4-.9-2-1.3-1.4-.8-2.7-1.8-3.9-2.8z"/><path fill="#F8F8F8" d="M38.8 28.3c-2.4 1.2-4.4-1.1-5.5-2.9-1.5-2.4 0-3.8 1.5-5.6 1.6-1.9.3-4.9 2.5-6.9 2.5-2.2 4.5.1 6.6 1.4 2.3 1.5 5.5 2.2 7.1 4.5 2 2.8.3 4.7-1.9 6.3-2 1.5-2.1 5.6-5.4 5-1.4-.3-3.4-2.8-4.9-1.8-2.2 1 0 0 0 0"/><path fill="#E7E6E7" d="M38.8 28.3c-.5.3-1.2.4-1.8.4-.6-.1-1.2-.3-1.7-.7-1-.7-1.8-1.7-2.4-2.8-.3-.6-.5-1.2-.5-1.9s.3-1.3.7-1.8c.3-.5.7-1 1.1-1.5.2-.2.4-.4.6-.7.1-.2.3-.5.4-.7.4-1.1.4-2.3.7-3.5.1-.6.4-1.2.8-1.7s.9-.9 1.4-1.2c.5-.3 1.2-.4 1.8-.4.6.1 1.2.3 1.7.6 1.1.6 2 1.4 3 2 2.1 1.1 4.5 1.8 6.3 3.6.8.9 1.6 2.1 1.4 3.5-.2 1.4-1.1 2.4-2 3.1-.5.4-1 .7-1.3 1.2-.4.4-.6.9-.9 1.5-.3.5-.6 1.1-.9 1.6-.4.5-.8 1-1.5 1.3-.6.3-1.3.3-1.9.1-.7-.2-1.2-.5-1.7-.9-.5-.3-1-.7-1.5-.9-.6-.3-1.2-.4-1.8-.2l-.5.3-.2.1-.1.1h-.1l-.1-.1 1-.4zm0 0l-1 .5s-.1-.2-.1-.1h.1l.1-.1.2-.1.5-.3c.6-.4 1.3-.3 1.8 0 .6.2 1.1.6 1.6.9.5.3 1 .6 1.5.8.6.1 1.1.1 1.6-.1 1-.5 1.5-1.6 2.1-2.7.3-.5.6-1.1 1-1.6s1-.9 1.4-1.2c.9-.8 1.7-1.7 1.9-2.8.2-1.1-.4-2.2-1.2-3-1.6-1.7-4-2.5-6.1-3.7-1.1-.6-2-1.4-3-2-.5-.3-1.1-.6-1.6-.6-.6-.1-1.2.1-1.7.4-1 .6-1.7 1.6-1.9 2.8-.2 1.1-.1 2.4-.6 3.6-.1.3-.2.6-.4.9-.2.3-.4.5-.6.7-.4.5-.8.9-1.1 1.4-.3.5-.6 1-.6 1.5s.1 1.1.4 1.6c.6 1 1.3 2 2.2 2.7.5.4 1 .6 1.6.8.8 0 1.4-.1 1.9-.3z"/><path fill="#EBD467" d="M45 23.1c-1 1.7-3.2 2.2-4.8 1.2-1.6-1-2-3.2-1-4.8 1-1.7 3.2-2.2 4.8-1.2 1.6 1 2 3.2 1 4.8"/><g><defs><path id="q" d="M39.1 18.2h5.8v4.4h-5.8z"/></defs><clipPath id="r"><use xlink:href="#q" overflow="visible"/></clipPath><path clip-path="url(#r)" fill="#EBD467" d="M39.5 22.6c-.4-.6-.5-1.5-.3-2.3.3-.8.8-1.4 1.6-1.8.7-.3 1.6-.4 2.4-.2.8.2 1.4.8 1.7 1.6-.4-.6-1.1-1.1-1.8-1.3-.7-.2-1.5-.1-2.1.3-.6.3-1.2.9-1.4 1.5-.4.7-.4 1.5-.1 2.2"/></g><path fill="#D38792" d="M52.1 39.1c-.9 1.3-2.6 1.7-4 .9-1.3-.9-1.7-2.6-.8-4L55 24.1c.9-1.3 2.6-1.7 4-.9 1.3.9 1.7 2.6.8 4l-7.7 11.9z"/><g opacity=".22"><defs><path id="s" d="M46.8 22.8h13.4v17.6H46.8z"/></defs><clipPath id="t"><use xlink:href="#s" overflow="visible"/></clipPath><path clip-path="url(#t)" fill="#D38792" d="M47.9 36.4l7.7-11.9c.9-1.3 2.4-1.9 3.3-1.3-1.3-.9-3.1-.5-4 .9L47.3 36c-.9 1.3-.5 3.1.8 4-.9-.7-1-2.2-.2-3.6M58.9 23.3c1 .6 1.1 2.2.2 3.6l-7.7 11.9c-.9 1.3-2.4 1.9-3.3 1.3 1.3.9 3.1.5 4-.8l7.7-11.9c.8-1.5.5-3.3-.9-4.1"/></g><path fill="#72583C" d="M54.6 26l.9.6c.3.2.5.4.7.7.2.2.5.5.6.8.2.3.4.6.5.9l-.9-.6c-.3-.2-.5-.4-.7-.7-.2-.2-.5-.5-.6-.8-.2-.3-.3-.6-.5-.9M52.9 28.7l.9.6c.3.2.5.4.7.7.2.2.5.5.6.8.2.3.4.6.5.9l-.9-.6c-.3-.2-.5-.4-.7-.7-.2-.2-.5-.5-.6-.8-.1-.2-.3-.5-.5-.9M51.3 31.2l.9.6c.3.2.5.4.7.7.2.2.5.5.6.8.2.3.4.6.5.9l-.9-.6c-.3-.2-.5-.4-.7-.7-.2-.2-.5-.5-.6-.8-.2-.2-.4-.5-.5-.9M49.4 33.9l.9.6c.3.2.5.4.7.7.2.2.5.5.6.8.2.3.4.6.5.9l-.9-.6c-.3-.2-.5-.4-.7-.7-.2-.2-.5-.5-.6-.8-.1-.3-.3-.6-.5-.9"/></svg>