<svg xmlns="http://www.w3.org/2000/svg" xmlns:xlink="http://www.w3.org/1999/xlink" width="40" height="75.7" viewBox="0 0 40 75.7"><path fill="#F6F3EC" d="M0 0h40v36.2H0zM0 37.3h40v36.2H0z"/><path fill="#EDE6D8" d="M0 73.5h40v1.1H0z"/><path fill="#72583C" d="M0 73.5h40v.4H0z"/><path fill="#EDE6D8" d="M0 74.6h40v1.1H0z"/><path fill="#72583C" d="M0 74.6h40v.4H0z"/><path fill="#BEBFBE" d="M2.5 38.1c0 .1-.1.3-.3.3-.1 0-.3-.1-.3-.3v-2.8c0-.1.1-.3.3-.3.1 0 .3.1.3.3v2.8zM4.2 38.1c0 .1-.1.3-.3.3-.1 0-.3-.1-.3-.3v-2.8c0-.1.1-.3.3-.3.1 0 .3.1.3.3v2.8zM5.9 38.1c0 .1-.1.3-.3.3s-.3-.1-.3-.3v-2.8c0-.1.1-.3.3-.3s.3.1.3.3v2.8zM7.6 38.1c0 .1-.1.3-.3.3-.1 0-.3-.1-.3-.3v-2.8c0-.1.1-.3.3-.3.1 0 .3.1.3.3v2.8zM9.3 38.1c0 .1-.1.3-.3.3-.1 0-.3-.1-.3-.3v-2.8c.1-.2.2-.3.3-.3.1 0 .3.1.3.3v2.8zM11 38.1c0 .1-.1.3-.3.3-.1 0-.3-.1-.3-.3v-2.8c0-.1.1-.3.3-.3.1 0 .3.1.3.3v2.8zM12.7 38.1c0 .1-.1.3-.3.3s-.3-.1-.3-.3v-2.8c0-.1.1-.3.3-.3s.3.1.3.3v2.8zM14.4 38.1c0 .1-.1.3-.3.3-.1 0-.3-.1-.3-.3v-2.8c0-.1.1-.3.3-.3.1 0 .3.1.3.3v2.8zM16.1 38.1c0 .1-.1.3-.3.3-.1 0-.3-.1-.3-.3v-2.8c0-.1.1-.3.3-.3.1 0 .3.1.3.3v2.8zM17.8 38.1c0 .1-.1.3-.3.3s-.3-.1-.3-.3v-2.8c0-.1.1-.3.3-.3s.3.1.3.3v2.8zM19.5 38.1c0 .1-.1.3-.3.3-.1 0-.3-.1-.3-.3v-2.8c0-.1.1-.3.3-.3.1 0 .3.1.3.3v2.8zM21.2 38.1c0 .1-.1.3-.3.3-.1 0-.3-.1-.3-.3v-2.8c0-.1.1-.3.3-.3.1 0 .3.1.3.3v2.8zM22.9 38.1c0 .1-.1.3-.3.3-.1 0-.3-.1-.3-.3v-2.8c0-.1.1-.3.3-.3.1 0 .3.1.3.3v2.8zM24.6 38.1c0 .1-.1.3-.3.3s-.3-.1-.3-.3v-2.8c0-.1.1-.3.3-.3s.3.1.3.3v2.8zM26.3 38.1c0 .1-.1.3-.3.3-.1 0-.3-.1-.3-.3v-2.8c0-.1.1-.3.3-.3.1 0 .3.1.3.3v2.8zM28 38.1c0 .1-.1.3-.3.3-.1 0-.3-.1-.3-.3v-2.8c0-.1.1-.3.3-.3.1 0 .3.1.3.3v2.8zM29.7 38.1c0 .1-.1.3-.3.3-.1 0-.3-.1-.3-.3v-2.8c0-.1.1-.3.3-.3.1 0 .3.1.3.3v2.8zM31.4 38.1c0 .1-.1.3-.3.3s-.3-.1-.3-.3v-2.8c0-.1.1-.3.3-.3s.3.1.3.3v2.8zM33.2 38.1c0 .1-.1.3-.3.3-.1 0-.3-.1-.3-.3v-2.8c0-.1.1-.3.3-.3.1 0 .3.1.3.3v2.8zM34.9 38.1c0 .1-.1.3-.3.3-.1 0-.3-.1-.3-.3v-2.8c0-.1.1-.3.3-.3.1 0 .3.1.3.3v2.8zM36.6 38.1c0 .1-.1.3-.3.3-.1 0-.3-.1-.3-.3v-2.8c0-.1.1-.3.3-.3.1 0 .3.1.3.3v2.8zM38.3 38.1c0 .1-.1.3-.3.3-.1 0-.3-.1-.3-.3v-2.8c0-.1.1-.3.3-.3.1 0 .3.1.3.3v2.8z"/><path fill="#929493" d="M2.2 38c-.1 0-.3-.1-.3-.2v.3c0 .1.1.3.3.3.1 0 .3-.1.3-.3v-.3c0 .1-.2.2-.3.2M2.2 35c-.1 0-.3.1-.3.3v.3c0-.1.1-.2.3-.2.1 0 .3.1.3.2v-.3c0-.2-.2-.3-.3-.3M3.9 38c-.1 0-.3-.1-.3-.2v.3c0 .1.1.3.3.3.1 0 .3-.1.3-.3v-.3c0 .1-.1.2-.3.2M3.9 35c-.1 0-.3.1-.3.3v.3c0-.1.1-.2.3-.2.1 0 .3.1.3.2v-.3c0-.2-.1-.3-.3-.3M5.6 35c-.1 0-.3.1-.3.3v.3c0-.1.1-.2.3-.2s.3.1.3.2v-.3c0-.2-.1-.3-.3-.3M5.6 38c-.1 0-.3-.1-.3-.2v.3c0 .1.1.3.3.3s.3-.1.3-.3v-.3c0 .1-.1.2-.3.2M7.3 35c-.1 0-.3.1-.3.3v.3c0-.1.1-.2.3-.2.1 0 .3.1.3.2v-.3c0-.2-.1-.3-.3-.3M7.3 38c-.1 0-.3-.1-.3-.2v.3c0 .1.1.3.3.3.1 0 .3-.1.3-.3v-.3c0 .1-.1.2-.3.2M9 35c-.1 0-.3.1-.3.3v.3c0-.1.1-.2.3-.2.1 0 .3.1.3.2v-.3c0-.2-.1-.3-.3-.3M9 38c-.1 0-.3-.1-.3-.2v.3c0 .1.1.3.3.3.1 0 .3-.1.3-.3v-.3c0 .1-.1.2-.3.2M10.7 38c-.1 0-.3-.1-.3-.2v.3c0 .1.1.3.3.3s.3-.1.3-.3v-.3c0 .1-.1.2-.3.2M10.7 35c-.1 0-.3.1-.3.3v.3c0-.1.1-.2.3-.2s.3.1.3.2v-.3c0-.2-.1-.3-.3-.3M12.4 35c-.1 0-.3.1-.3.3v.3c0-.1.1-.2.3-.2s.3.1.3.2v-.3c0-.2-.1-.3-.3-.3M12.4 38c-.1 0-.3-.1-.3-.2v.3c0 .1.1.3.3.3s.3-.1.3-.3v-.3c0 .1-.1.2-.3.2M14.1 35c-.1 0-.3.1-.3.3v.3c0-.1.1-.2.3-.2.1 0 .3.1.3.2v-.3c0-.2-.1-.3-.3-.3M14.1 38c-.1 0-.3-.1-.3-.2v.3c0 .1.1.3.3.3.1 0 .3-.1.3-.3v-.3c0 .1-.1.2-.3.2M15.8 35c-.1 0-.3.1-.3.3v.3c0-.1.1-.2.3-.2.1 0 .3.1.3.2v-.3c0-.2-.1-.3-.3-.3M15.8 38c-.1 0-.3-.1-.3-.2v.3c0 .1.1.3.3.3.1 0 .3-.1.3-.3v-.3c0 .1-.1.2-.3.2M17.5 38c-.1 0-.3-.1-.3-.2v.3c0 .1.1.3.3.3s.3-.1.3-.3v-.3c0 .1-.1.2-.3.2M17.5 35c-.1 0-.3.1-.3.3v.3c0-.1.1-.2.3-.2s.3.1.3.2v-.3c0-.2-.1-.3-.3-.3M19.3 38c-.1 0-.3-.1-.3-.2v.3c0 .1.1.3.3.3s.3-.1.3-.3v-.3c-.1.1-.2.2-.3.2M19.3 35c-.1 0-.3.1-.3.3v.3c0-.1.1-.2.3-.2s.3.1.3.2v-.3c-.1-.2-.2-.3-.3-.3M21 38c-.1 0-.3-.1-.3-.2v.3c0 .1.1.3.3.3.1 0 .3-.1.3-.3v-.3c-.1.1-.2.2-.3.2M21 35c-.1 0-.3.1-.3.3v.3c0-.1.1-.2.3-.2.1 0 .3.1.3.2v-.3c-.1-.2-.2-.3-.3-.3M22.7 35c-.1 0-.3.1-.3.3v.3c0-.1.1-.2.3-.2s.3.1.3.2v-.3c-.1-.2-.2-.3-.3-.3M22.7 38c-.1 0-.3-.1-.3-.2v.3c0 .1.1.3.3.3s.3-.1.3-.3v-.3c-.1.1-.2.2-.3.2M24.4 35c-.1 0-.3.1-.3.3v.3c0-.1.1-.2.3-.2s.3.1.3.2v-.3c-.1-.2-.2-.3-.3-.3M24.4 38c-.1 0-.3-.1-.3-.2v.3c0 .1.1.3.3.3s.3-.1.3-.3v-.3c-.1.1-.2.2-.3.2M26.1 38c-.1 0-.3-.1-.3-.2v.3c0 .1.1.3.3.3s.3-.1.3-.3v-.3c-.1.1-.2.2-.3.2M26.1 35c-.1 0-.3.1-.3.3v.3c0-.1.1-.2.3-.2s.3.1.3.2v-.3c-.1-.2-.2-.3-.3-.3M27.8 38c-.1 0-.3-.1-.3-.2v.3c0 .1.1.3.3.3.1 0 .3-.1.3-.3v-.3c-.1.1-.2.2-.3.2M27.8 35c-.1 0-.3.1-.3.3v.3c0-.1.1-.2.3-.2.1 0 .3.1.3.2v-.3c-.1-.2-.2-.3-.3-.3M29.5 35c-.1 0-.3.1-.3.3v.3c0-.1.1-.2.3-.2s.3.1.3.2v-.3c-.1-.2-.2-.3-.3-.3M29.5 38c-.1 0-.3-.1-.3-.2v.3c0 .1.1.3.3.3s.3-.1.3-.3v-.3c-.1.1-.2.2-.3.2M31.2 35c-.1 0-.3.1-.3.3v.3c0-.1.1-.2.3-.2s.3.1.3.2v-.3c-.1-.2-.2-.3-.3-.3M31.2 38c-.1 0-.3-.1-.3-.2v.3c0 .1.1.3.3.3s.3-.1.3-.3v-.3c-.1.1-.2.2-.3.2M32.9 38c-.1 0-.3-.1-.3-.2v.3c0 .1.1.3.3.3.1 0 .3-.1.3-.3v-.3c0 .1-.2.2-.3.2M32.9 35c-.1 0-.3.1-.3.3v.3c0-.1.1-.2.3-.2.1 0 .3.1.3.2v-.3c0-.2-.2-.3-.3-.3M34.6 38c-.1 0-.3-.1-.3-.2v.3c0 .1.1.3.3.3s.3-.1.3-.3v-.3c0 .1-.2.2-.3.2M34.6 35c-.1 0-.3.1-.3.3v.3c0-.1.1-.2.3-.2s.3.1.3.2v-.3c0-.2-.2-.3-.3-.3M36.3 38c-.1 0-.3-.1-.3-.2v.3c0 .1.1.3.3.3.1 0 .3-.1.3-.3v-.3c0 .1-.2.2-.3.2M36.3 35c-.1 0-.3.1-.3.3v.3c0-.1.1-.2.3-.2.1 0 .3.1.3.2v-.3c0-.2-.2-.3-.3-.3M38 35c-.1 0-.3.1-.3.3v.3c0-.1.1-.2.3-.2s.3.1.3.2v-.3c0-.2-.2-.3-.3-.3M38 38c-.1 0-.3-.1-.3-.2v.3c0 .1.1.3.3.3s.3-.1.3-.3v-.3c0 .1-.2.2-.3.2"/><g opacity=".4"><defs><path id="a" d="M1.9 36.1h36.3v1.2H1.9z"/></defs><clipPath id="b"><use xlink:href="#a" overflow="visible"/></clipPath><path clip-path="url(#b)" fill="#BEBFBE" d="M2.5 37.2c0 .1-.1.1-.3.1-.1 0-.3 0-.3-.1v-1c0-.1.1-.1.3-.1.1 0 .3 0 .3.1v1zM4.2 37.2c0 .1-.1.1-.3.1-.1 0-.3 0-.3-.1v-1c0-.1.1-.1.3-.1.1 0 .3 0 .3.1v1zM5.9 37.2c0 .1-.1.1-.3.1s-.3 0-.3-.1v-1c0-.1.1-.1.3-.1s.3 0 .3.1v1zM7.6 37.2c0 .1-.1.1-.3.1-.1 0-.3 0-.3-.1v-1c0-.1.1-.1.3-.1.1 0 .3 0 .3.1v1zM9.3 37.2c0 .1-.1.1-.3.1-.1 0-.3 0-.3-.1v-1c0-.1.1-.1.3-.1.1 0 .3 0 .3.1v1zM11 37.2c0 .1-.1.1-.3.1-.1 0-.3 0-.3-.1v-1c0-.1.1-.1.3-.1.1 0 .3 0 .3.1v1zM12.7 37.2c0 .1-.1.1-.3.1s-.3 0-.3-.1v-1c0-.1.1-.1.3-.1s.3 0 .3.1v1zM14.4 37.2c0 .1-.1.1-.3.1-.1 0-.3 0-.3-.1v-1c0-.1.1-.1.3-.1.1 0 .3 0 .3.1v1zM16.1 37.2c0 .1-.1.1-.3.1-.1 0-.3 0-.3-.1v-1c0-.1.1-.1.3-.1.1 0 .3 0 .3.1v1zM17.8 37.2c0 .1-.1.1-.3.1s-.3 0-.3-.1v-1c0-.1.1-.1.3-.1s.3 0 .3.1v1zM19.5 37.2c0 .1-.1.1-.3.1-.1 0-.3 0-.3-.1v-1c0-.1.1-.1.3-.1.1 0 .3 0 .3.1v1zM21.2 37.2c0 .1-.1.1-.3.1-.1 0-.3 0-.3-.1v-1c0-.1.1-.1.3-.1.1 0 .3 0 .3.1v1zM22.9 37.2c0 .1-.1.1-.3.1-.1 0-.3 0-.3-.1v-1c0-.1.1-.1.3-.1.1 0 .3 0 .3.1v1zM24.6 37.2c0 .1-.1.1-.3.1s-.3 0-.3-.1v-1c0-.1.1-.1.3-.1s.3 0 .3.1v1zM26.3 37.2c0 .1-.1.1-.3.1-.1 0-.3 0-.3-.1v-1c0-.1.1-.1.3-.1.1 0 .3 0 .3.1v1zM28 37.2c0 .1-.1.1-.3.1-.1 0-.3 0-.3-.1v-1c0-.1.1-.1.3-.1.1 0 .3 0 .3.1v1zM29.7 37.2c0 .1-.1.1-.3.1-.1 0-.3 0-.3-.1v-1c0-.1.1-.1.3-.1.1 0 .3 0 .3.1v1zM31.4 37.2c0 .1-.1.1-.3.1s-.3 0-.3-.1v-1c0-.1.1-.1.3-.1s.3 0 .3.1v1zM33.2 37.2c0 .1-.1.1-.3.1-.1 0-.3 0-.3-.1v-1c0-.1.1-.1.3-.1.1 0 .3 0 .3.1v1zM34.9 37.2c0 .1-.1.1-.3.1-.1 0-.3 0-.3-.1v-1c0-.1.1-.1.3-.1.1 0 .3 0 .3.1v1zM36.6 37.2c0 .1-.1.1-.3.1-.1 0-.3 0-.3-.1v-1c0-.1.1-.1.3-.1.1 0 .3 0 .3.1v1zM38.3 37.2c0 .1-.1.1-.3.1-.1 0-.3 0-.3-.1v-1c0-.1.1-.1.3-.1.1 0 .3 0 .3.1v1z"/></g><path fill="#BEBFBE" d="M20.4 1.4c0 .2-.2.4-.4.4s-.4-.2-.4-.4.2-.4.4-.4.4.2.4.4"/><path fill="#464A47" d="M20 1.3c.2 0 .3.1.4.3v-.1c0-.2-.2-.4-.4-.4s-.4.2-.4.4v.1c.1-.2.2-.3.4-.3"/><path fill="#EEE" d="M1.9 39.9h36.3v31.7H1.9z"/><path fill="#A82526" d="M1.8 39.9h36.3v.6H1.8z"/><g opacity=".2"><defs><path id="c" d="M2.3 45.4h5.3v5.4H2.3z"/></defs><clipPath id="d"><use xlink:href="#c" overflow="visible"/></clipPath><path clip-path="url(#d)" fill="none" stroke="#676A67" stroke-width=".258" stroke-miterlimit="10" d="M2.4 45.5h5v5.1h-5z"/></g><g opacity=".2"><defs><path id="e" d="M7.3 45.4h5.3v5.4H7.3z"/></defs><clipPath id="f"><use xlink:href="#e" overflow="visible"/></clipPath><path clip-path="url(#f)" fill="none" stroke="#676A67" stroke-width=".258" stroke-miterlimit="10" d="M7.4 45.5h5v5.1h-5z"/></g><path fill="none" stroke="#676A67" stroke-width=".258" stroke-miterlimit="10" d="M12.5 45.5h5v5.1h-5zM17.5 45.5h5v5.1h-5zM22.5 45.5h5v5.1h-5z"/><path fill="#DFE8EC" d="M27.5 45.5h5v5.1h-5z"/><path fill="none" stroke="#676A67" stroke-width=".258" stroke-miterlimit="10" d="M27.5 45.5h5v5.1h-5z"/><path fill="#DFE8EC" d="M32.5 45.5h5v5.1h-5z"/><path fill="none" stroke="#676A67" stroke-width=".258" stroke-miterlimit="10" d="M32.5 45.5h5v5.1h-5zM2.4 50.7h5v5.1h-5zM7.4 50.7h5v5.1h-5zM12.5 50.7h5v5.1h-5zM17.5 50.7h5v5.1h-5zM22.5 50.7h5v5.1h-5z"/><path fill="#DFE8EC" d="M27.5 50.7h5v5.1h-5z"/><path fill="none" stroke="#676A67" stroke-width=".258" stroke-miterlimit="10" d="M27.5 50.7h5v5.1h-5z"/><path fill="#DFE8EC" d="M32.5 50.7h5v5.1h-5z"/><path fill="none" stroke="#676A67" stroke-width=".258" stroke-miterlimit="10" d="M32.5 50.7h5v5.1h-5zM2.4 55.8h5v5.1h-5zM7.4 55.8h5v5.1h-5zM12.5 55.8h5v5.1h-5zM17.5 55.8h5v5.1h-5zM22.5 55.8h5v5.1h-5z"/><path fill="#DFE8EC" d="M27.5 55.8h5v5.1h-5z"/><path fill="none" stroke="#676A67" stroke-width=".258" stroke-miterlimit="10" d="M27.5 55.8h5v5.1h-5z"/><path fill="#DFE8EC" d="M32.5 55.8h5v5.1h-5z"/><path fill="none" stroke="#676A67" stroke-width=".258" stroke-miterlimit="10" d="M32.5 55.8h5v5.1h-5zM2.4 60.9h5V66h-5zM7.4 60.9h5V66h-5zM12.5 60.9h5V66h-5zM17.5 60.9h5V66h-5zM22.5 60.9h5V66h-5z"/><path fill="#DFE8EC" d="M27.5 60.9h5V66h-5z"/><path fill="none" stroke="#676A67" stroke-width=".258" stroke-miterlimit="10" d="M27.5 60.9h5V66h-5z"/><path fill="#DFE8EC" d="M32.5 60.9h5V66h-5z"/><path fill="none" stroke="#676A67" stroke-width=".258" stroke-miterlimit="10" d="M32.5 60.9h5V66h-5zM2.4 66.1h5v5.1h-5zM7.4 66.1h5v5.1h-5z"/><g opacity=".2"><defs><path id="g" d="M12.3 65.9h5.3v5.4h-5.3z"/></defs><clipPath id="h"><use xlink:href="#g" overflow="visible"/></clipPath><path clip-path="url(#h)" fill="none" stroke="#676A67" stroke-width=".258" stroke-miterlimit="10" d="M12.5 66.1h5v5.1h-5z"/></g><g opacity=".2"><defs><path id="i" d="M17.4 65.9h5.3v5.4h-5.3z"/></defs><clipPath id="j"><use xlink:href="#i" overflow="visible"/></clipPath><path clip-path="url(#j)" fill="none" stroke="#676A67" stroke-width=".258" stroke-miterlimit="10" d="M17.5 66.1h5v5.1h-5z"/></g><g opacity=".2"><defs><path id="k" d="M22.4 65.9h5.3v5.4h-5.3z"/></defs><clipPath id="l"><use xlink:href="#k" overflow="visible"/></clipPath><path clip-path="url(#l)" fill="none" stroke="#676A67" stroke-width=".258" stroke-miterlimit="10" d="M22.5 66.1h5v5.1h-5z"/></g><g opacity=".2"><defs><path id="m" d="M27.4 65.9h5.3v5.4h-5.3z"/></defs><clipPath id="n"><use xlink:href="#m" overflow="visible"/></clipPath><path clip-path="url(#n)" fill="#DFE8EC" d="M27.5 66.1h5v5.1h-5z"/><path clip-path="url(#n)" fill="none" stroke="#676A67" stroke-width=".258" stroke-miterlimit="10" d="M27.5 66.1h5v5.1h-5z"/></g><g opacity=".2"><defs><path id="o" d="M32.4 65.9h5.3v5.4h-5.3z"/></defs><clipPath id="p"><use xlink:href="#o" overflow="visible"/></clipPath><path clip-path="url(#p)" fill="#DFE8EC" d="M32.5 66.1h5v5.1h-5z"/><path clip-path="url(#p)" fill="none" stroke="#676A67" stroke-width=".258" stroke-miterlimit="10" d="M32.5 66.1h5v5.1h-5z"/></g><g opacity=".2"><defs><path id="q" d="M3.4 46.4h3v.4h-3z"/></defs><clipPath id="r"><use xlink:href="#q" overflow="visible"/></clipPath><path clip-path="url(#r)" fill="#676A67" d="M3.4 46.4h3v.4h-3z"/></g><g opacity=".2"><defs><path id="s" d="M4.4 48.1h1.1v1.1H4.4z"/></defs><clipPath id="t"><use xlink:href="#s" overflow="visible"/></clipPath><path clip-path="url(#t)" fill="#676A67" d="M4.4 48.1h1.1v1.1H4.4z"/></g><g opacity=".2"><defs><path id="u" d="M8.4 46.4h3v.4h-3z"/></defs><clipPath id="v"><use xlink:href="#u" overflow="visible"/></clipPath><path clip-path="url(#v)" fill="#676A67" d="M8.4 46.4h3v.4h-3z"/></g><g opacity=".2"><defs><path id="w" d="M9.4 48.1h1.1v1.1H9.4z"/></defs><clipPath id="x"><use xlink:href="#w" overflow="visible"/></clipPath><path clip-path="url(#x)" fill="#676A67" d="M9.4 48.1h1.1v1.1H9.4z"/></g><path fill="#676A67" d="M13.4 46.4h3v.4h-3zM14.4 48.1h1.1v1.1h-1.1zM18.5 46.4h3v.4h-3zM19.5 48.1h1.1v1.1h-1.1zM23.5 46.4h3v.4h-3zM24.5 48.1h1.1v1.1h-1.1zM28.5 46.4h3v.4h-3zM29.5 48.1h1.1v1.1h-1.1zM33.5 46.4h3v.4h-3zM34.5 48.1h1.1v1.1h-1.1zM3.4 51.6h3v.4h-3zM4.4 53.4h1.1v1.1H4.4zM8.4 51.6h3v.4h-3zM9.4 53.4h1.1v1.1H9.4zM13.4 51.6h3v.4h-3zM14.4 53.4h1.1v1.1h-1.1zM18.5 51.6h3v.4h-3zM19.5 53.4h1.1v1.1h-1.1zM23.5 51.6h3v.4h-3zM24.5 53.4h1.1v1.1h-1.1zM28.5 51.6h3v.4h-3zM29.5 53.4h1.1v1.1h-1.1zM33.5 51.6h3v.4h-3zM34.5 53.4h1.1v1.1h-1.1zM3.4 56.9h3v.4h-3zM4.4 58.7h1.1v1.1H4.4zM8.4 56.9h3v.4h-3zM9.4 58.7h1.1v1.1H9.4zM13.4 56.9h3v.4h-3zM14.4 58.7h1.1v1.1h-1.1zM18.5 56.9h3v.4h-3zM19.5 58.7h1.1v1.1h-1.1zM23.5 56.9h3v.4h-3zM24.5 58.7h1.1v1.1h-1.1zM28.5 56.9h3v.4h-3zM29.5 58.7h1.1v1.1h-1.1zM33.5 56.9h3v.4h-3zM34.5 58.7h1.1v1.1h-1.1zM3.4 61.9h3v.4h-3zM4.4 63.7h1.1v1.1H4.4zM8.4 61.9h3v.4h-3zM9.4 63.7h1.1v1.1H9.4zM13.4 61.9h3v.4h-3zM14.4 63.7h1.1v1.1h-1.1zM18.5 61.9h3v.4h-3zM19.5 63.7h1.1v1.1h-1.1zM23.5 61.9h3v.4h-3zM24.5 63.7h1.1v1.1h-1.1zM28.5 61.9h3v.4h-3zM29.5 63.7h1.1v1.1h-1.1zM33.5 61.9h3v.4h-3zM34.5 63.7h1.1v1.1h-1.1zM3.4 67h3v.4h-3zM4.4 68.7h1.1v1.1H4.4zM8.4 67h3v.4h-3zM9.4 68.7h1.1v1.1H9.4z"/><g opacity=".2"><defs><path id="y" d="M13.5 67h3v.4h-3z"/></defs><clipPath id="z"><use xlink:href="#y" overflow="visible"/></clipPath><path clip-path="url(#z)" fill="#676A67" d="M13.4 67h3v.4h-3z"/></g><g opacity=".2"><defs><path id="A" d="M14.4 68.7h1.1v1.1h-1.1z"/></defs><clipPath id="B"><use xlink:href="#A" overflow="visible"/></clipPath><path clip-path="url(#B)" fill="#676A67" d="M14.4 68.7h1.1v1.1h-1.1z"/></g><g opacity=".2"><defs><path id="C" d="M18.5 67h3v.4h-3z"/></defs><clipPath id="D"><use xlink:href="#C" overflow="visible"/></clipPath><path clip-path="url(#D)" fill="#676A67" d="M18.5 67h3v.4h-3z"/></g><g opacity=".2"><defs><path id="E" d="M19.5 68.7h1.1v1.1h-1.1z"/></defs><clipPath id="F"><use xlink:href="#E" overflow="visible"/></clipPath><path clip-path="url(#F)" fill="#676A67" d="M19.5 68.7h1.1v1.1h-1.1z"/></g><g opacity=".2"><defs><path id="G" d="M23.5 67h3v.4h-3z"/></defs><clipPath id="H"><use xlink:href="#G" overflow="visible"/></clipPath><path clip-path="url(#H)" fill="#676A67" d="M23.5 67h3v.4h-3z"/></g><g opacity=".2"><defs><path id="I" d="M24.5 68.7h1.1v1.1h-1.1z"/></defs><clipPath id="J"><use xlink:href="#I" overflow="visible"/></clipPath><path clip-path="url(#J)" fill="#676A67" d="M24.5 68.7h1.1v1.1h-1.1z"/></g><g opacity=".2"><defs><path id="K" d="M28.5 67h3v.4h-3z"/></defs><clipPath id="L"><use xlink:href="#K" overflow="visible"/></clipPath><path clip-path="url(#L)" fill="#676A67" d="M28.5 67h3v.4h-3z"/></g><g opacity=".2"><defs><path id="M" d="M29.5 68.7h1.1v1.1h-1.1z"/></defs><clipPath id="N"><use xlink:href="#M" overflow="visible"/></clipPath><path clip-path="url(#N)" fill="#676A67" d="M29.5 68.7h1.1v1.1h-1.1z"/></g><g opacity=".2"><defs><path id="O" d="M33.5 67h3v.4h-3z"/></defs><clipPath id="P"><use xlink:href="#O" overflow="visible"/></clipPath><path clip-path="url(#P)" fill="#676A67" d="M33.5 67h3v.4h-3z"/></g><g opacity=".2"><defs><path id="Q" d="M34.5 68.7h1.1v1.1h-1.1z"/></defs><clipPath id="R"><use xlink:href="#Q" overflow="visible"/></clipPath><path clip-path="url(#R)" fill="#676A67" d="M34.5 68.7h1.1v1.1h-1.1z"/></g><path fill="#676A67" d="M9.4 41.6h21.1v2.5H9.4z"/><path fill="#1498C3" d="M1.8 3.1h36.3v28.8H1.8z"/><path fill="#636B62" d="M33.8 32.2h4.3v.6h-4.3z"/><path fill="#208BB5" d="M1.8 19.6h36.3V32H1.8z"/><path fill="#EBD467" d="M14.1 19.6c0-3.3 2.7-5.9 5.9-5.9 3.3 0 5.9 2.7 5.9 5.9M13.9 20.5c2-.3 4-.4 6-.5 2-.1 4-.1 6 .1h.1c.3 0 .4.2.4.5 0 .2-.2.4-.5.4h-2.8c-.9 0-1.9.1-2.8.2-1.9.2-3.7.5-5.6.8l.1-1c.9.3 2 .1 3.1.1s2.4-.1 3.6.5c.3.2.5.6.3.9-.1.2-.2.3-.3.3l-1.6.7-.8.4-.3.2c-.1 0-.2.1-.2.1 0-.1.1-.1.1-.3 0-.1 0-.3-.1-.3l-.1-.1c-.1-.1-.1 0 0 0h2.9c.3 0 .5.2.5.5s-.2.5-.5.5c-1 .1-1.9.2-2.9.3-.1 0-.2 0-.3.1 0 0-.1.1 0 0 0 0 .1-.1 0-.2l-.1-.1c.1.1.4.1.6.2.5.1 1 .2 1.4.2 0 0 .1 0 .1.1 0 0 0 .1-.1.1-.5 0-1 .1-1.5.1-.3 0-.5 0-.8-.1 0 0-.1 0-.2-.1 0 0-.1-.1-.1-.2v-.3c.2-.2.2-.2.3-.2.1-.1.3-.1.4-.2 1-.3 1.9-.5 2.9-.7l.1 1.1c-.6.1-1.2.1-1.8.2H18c-.1 0-.2 0-.5-.2l-.2-.2c-.1-.1-.2-.3-.1-.4 0-.4.1-.4.2-.5.2-.3.4-.3.5-.4.1-.1.3-.2.4-.2.3-.1.5-.3.8-.4l1.6-.7.1 1.2c-.8-.4-1.8-.5-2.9-.5-1.1 0-2.3 0-3.4-.4-.3-.1-.4-.4-.3-.6.1-.2.2-.3.4-.3 1.9-.1 3.8-.1 5.7-.3 1.9-.1 3.7-.5 5.6-.7v.9c-2 .2-4 .1-6 .1-2-.1-4-.2-6-.5v-.2"/><path fill="#89CBE1" d="M7.1 28.6c.3-.2.6-.5.9-.7.3-.3.6-.5.9-.8L9 27l.1.2c.3.6 1.2.7 1.9.7.8 0 1.6-.1 2.4-.1.4 0 .8-.1 1.3 0 .1 0 .1 0 .2.1 0 0 .1 0 .2.1l.3.3c.1.2.2.2.4.3.7.2 1.6 0 2.4.1-.8.1-1.6.5-2.5.3-.3 0-.5-.2-.6-.4-.1-.1-.2-.1-.2-.2 0 0-.1 0-.1-.1h-.1c-.3 0-.8.1-1.2.1-.8.1-1.6.2-2.5.1-.4 0-.9-.1-1.3-.3-.4-.2-.8-.5-1-.9l.3.2c-.6.2-1.2.8-1.9 1.1M24.3 26.1c.7-.1 1.3-.3 1.9-.5.3-.1.8-.1 1.1 0 .3.1.6.1.9.1 1.2.1 2.5-.1 3.9 0-1.3.3-2.5.7-3.9.6-.3 0-.7-.1-1-.2-.3-.1-.6-.1-.9-.1-.6.2-1.4.2-2 .1M29 22.1c.4-.3.8-.3 1.2-.4.4 0 .8 0 1.2.3-.4.3-.8.3-1.2.4-.4 0-.8 0-1.2-.3M15 24.5c-1.3-.1-2.6.2-3.9.3h-2c-.3 0-.7-.1-1-.2l-.9-.3c.3-.1.7 0 1 0h1l2-.1c.7 0 1.3-.1 2-.1.5 0 1.2.1 1.8.4M4.5 21.6c.3.1.6.1.9.1h.9c.6 0 1.3.1 1.9.3-.6.3-1.3.4-1.9.3-.3 0-.7-.1-1-.2-.3 0-.6-.2-.8-.5"/></svg>