<svg xmlns="http://www.w3.org/2000/svg" xmlns:xlink="http://www.w3.org/1999/xlink" width="54.5" height="32.9" viewBox="0 0 54.5 32.9"><path fill="#C8C7C7" d="M14.9 3.6c0 1.1-.9 2-2 2H6.4c-1.1 0-2-.9-2-2s.9-2 2-2h6.5c1.1-.1 2 .8 2 2"/><path fill="#D3D2D2" d="M13.9 3.6c0 1.1-.7 2-1.6 2H7c-.9 0-1.6-.9-1.6-2s.7-2 1.6-2h5.3c.9-.1 1.6.8 1.6 2"/><path fill="#DEDDDE" d="M12.9 3.6c0 1.1-.6 2-1.3 2h-4c-.7 0-1.3-.9-1.3-2s.6-2 1.3-2h4c.7-.1 1.3.8 1.3 2"/><path fill="#E9E9E9" d="M11.9 3.6c0 1.1-.4 2-.9 2H8.3c-.5 0-.9-.9-.9-2s.4-2 .9-2H11c.5-.1.9.8.9 2"/><path fill="#F4F4F4" d="M10.9 3.6c0 1.1-.2 2-.5 2H8.9c-.3 0-.5-.9-.5-2s.2-2 .5-2h1.5c.3-.1.5.8.5 2"/><path fill="#C8C7C7" d="M52.3 29.9c0 1.7-1.3 3-3 3H3c-1.7 0-3-1.3-3-3V5.6c0-1.7 1.3-3 3-3h46.3c1.7 0 3 1.3 3 3v24.3z"/><path fill="#444142" d="M0 10.7h52.3v17.6H0z"/><path fill="#2E2A2B" d="M43.1 19.5c0 6-4.9 10.9-10.9 10.9s-10.9-4.9-10.9-10.9S26.2 8.6 32.2 8.6s10.9 4.9 10.9 10.9"/><path fill="#4F4C4D" d="M40.3 19.5c0 4.5-3.7 8.2-8.2 8.2S24 24 24 19.5s3.7-8.2 8.2-8.2 8.1 3.7 8.1 8.2"/><defs><path id="a" d="M23.6 11h17v8.5h-17z"/></defs><clipPath id="b"><use xlink:href="#a" overflow="visible"/></clipPath><path clip-path="url(#b)" fill="#636B62" d="M32.2 11.8c4.3 0 7.7 3.5 7.7 7.7h.8c0-4.7-3.8-8.5-8.5-8.5s-8.5 3.8-8.5 8.5h.8c-.1-4.3 3.4-7.7 7.7-7.7"/><defs><path id="c" d="M23.6 19.5h17V28h-17z"/></defs><clipPath id="d"><use xlink:href="#c" overflow="visible"/></clipPath><path clip-path="url(#d)" fill="#636B62" d="M32.2 28c4.7 0 8.5-3.8 8.5-8.5h-.8c0 4.3-3.5 7.7-7.7 7.7-4.3 0-7.7-3.5-7.7-7.7h-.8c-.1 4.7 3.8 8.5 8.5 8.5"/><path fill="#252A26" d="M37.4 19.5c0 2.9-2.3 5.2-5.2 5.2S27 22.4 27 19.5c0-2.9 2.3-5.2 5.2-5.2s5.2 2.3 5.2 5.2"/><path fill="#231F20" d="M35.6 19.5c0 1.9-1.5 3.4-3.4 3.4s-3.4-1.5-3.4-3.4 1.5-3.4 3.4-3.4 3.4 1.5 3.4 3.4"/><defs><path id="e" d="M28.5 19.5h7.3v3.6h-7.3z"/></defs><clipPath id="f"><use xlink:href="#e" overflow="visible"/></clipPath><path clip-path="url(#f)" fill="#636B62" d="M32.2 22.8c-1.8 0-3.3-1.5-3.3-3.3h-.3c0 2 1.6 3.6 3.6 3.6s3.6-1.6 3.6-3.6h-.3c0 1.8-1.5 3.3-3.3 3.3"/><defs><path id="g" d="M28.5 15.9h7.3v3.6h-7.3z"/></defs><clipPath id="h"><use xlink:href="#g" overflow="visible"/></clipPath><path clip-path="url(#h)" fill="#636B62" d="M32.2 15.9c-2 0-3.6 1.6-3.6 3.6h.3c0-1.8 1.5-3.3 3.3-3.3 1.8 0 3.3 1.5 3.3 3.3h.3c0-2-1.6-3.6-3.6-3.6"/><path fill="#B9E0ED" d="M33.6 19.5c0 .8-.7 1.5-1.5 1.5s-1.5-.7-1.5-1.5.7-1.5 1.5-1.5 1.5.7 1.5 1.5"/><path fill="#98B5C3" d="M32.8 19.5c0 .4-.3.7-.7.7s-.7-.3-.7-.7.3-.7.7-.7.7.3.7.7"/><path fill="#FFF" d="M32.2 19c0 .3-.2.5-.5.5s-.5-.2-.5-.5.2-.5.5-.5.5.2.5.5"/><path fill="#B52126" d="M11.3 10.7c0 1.4-1.1 2.5-2.5 2.5s-2.5-1.1-2.5-2.5 1.1-2.5 2.5-2.5 2.5 1.1 2.5 2.5"/><path fill="#231F20" d="M24 7.9c0 .7-.5 1.2-1.2 1.2h-5.9c-.7 0-1.2-.5-1.2-1.2s.5-1.2 1.2-1.2h5.9c.7 0 1.2.5 1.2 1.2"/><g><defs><path id="i" d="M.3 3.7h51.9v29.2H.3z"/></defs><clipPath id="j"><use xlink:href="#i" overflow="visible"/></clipPath><path clip-path="url(#j)" fill="#C8C7C7" d="M3 31.9h46.3c1.1 0 2-.9 2-2V5.6c0-.5-.2-1-.5-1.3l.9-.5c.4.5.6 1.1.6 1.8V30c0 1.7-1.3 3-3 3H3c-1.2 0-2.2-.7-2.7-1.7l.9-.5c.3.7 1 1.1 1.8 1.1"/></g><g opacity=".7"><defs><path id="k" d="M0 2.6h51.6v28.7H0z"/></defs><clipPath id="l"><use xlink:href="#k" overflow="visible"/></clipPath><path clip-path="url(#l)" fill="#C8C7C7" d="M0 5.6c0-1.7 1.3-3 3-3h46.3c1 0 1.8.5 2.4 1.2l-.9.5c-.4-.4-.9-.7-1.5-.7H3c-1.1 0-2 .9-2 2V30c0 .3.1.6.2.8l-.9.5c-.2-.5-.3-.9-.3-1.4V5.6z"/></g><path fill="none" stroke="#E0E0E0" stroke-miterlimit="10" d="M51.9 9.6h.7c.8 0 1.4.6 1.4 1.4 0 .8-.6 1.4-1.4 1.4h-.7M26.3 2.6v-.7c0-.8.6-1.4 1.4-1.4M37.3 2.6v-.7c0-.8-.6-1.4-1.4-1.4"/></svg>