<svg xmlns="http://www.w3.org/2000/svg" xmlns:xlink="http://www.w3.org/1999/xlink" width="72.6" height="45.4" viewBox="0 0 72.6 45.4"><path fill="#231F20" d="M26.4 42.2c-.8 0-1.4-.5-1.6-1.2 0 .2-.1.3-.1.5 0 .9.8 1.7 1.7 1.7.9 0 1.7-.8 1.7-1.7 0-.2 0-.3-.1-.5-.2.7-.8 1.2-1.6 1.2M19.1 43.2c-.8 0-1.4-.5-1.6-1.2 0 .2-.1.3-.1.5 0 .9.8 1.7 1.7 1.7.9 0 1.7-.8 1.7-1.7 0-.2 0-.3-.1-.5-.2.7-.8 1.2-1.6 1.2M46.5 42.2c-.8 0-1.4-.5-1.6-1.2 0 .2-.1.3-.1.5 0 .9.8 1.7 1.7 1.7.9 0 1.7-.8 1.7-1.7 0-.2 0-.3-.1-.5-.2.7-.9 1.2-1.6 1.2M53.6 43.2c-.8 0-1.4-.5-1.6-1.2 0 .2-.1.3-.1.5 0 .9.8 1.7 1.7 1.7.9 0 1.7-.8 1.7-1.7 0-.2 0-.3-.1-.5-.2.7-.9 1.2-1.6 1.2"/><path fill="#AB6865" d="M20.9 12.8c3.8 0 6.9 3.1 6.9 6.9s-3.1 6.9-6.9 6.9-6.9-3-6.9-6.9 3.1-6.9 6.9-6.9m0-7.5c-8 0-14.4 6.5-14.4 14.4 0 8 6.5 14.4 14.4 14.4 8 0 14.4-6.5 14.4-14.4.1-7.9-6.4-14.4-14.4-14.4"/><path fill="#EFEDDF" d="M4.2 39.8c0 1-.8 1.8-1.8 1.8h-.6c-1 0-1.8-.8-1.8-1.8v-9.5c0-1 .8-1.8 1.8-1.8h.6c1 0 1.8.8 1.8 1.8v9.5z"/><path fill="#D3C5A0" d="M72.6 39.8c0 1-.8 1.8-1.8 1.8h-.6c-1 0-1.8-.8-1.8-1.8v-9.5c0-1 .8-1.8 1.8-1.8h.6c1 0 1.8.8 1.8 1.8v9.5z"/><path fill="#E8E5D1" d="M70.1 0H2.4C1.4 0 .6.8.6 1.8v41.4c0 1 .8 1.8 1.8 1.8h67.8c1 0 1.8-.8 1.8-1.8V1.8c-.1-1-.9-1.8-1.9-1.8m-51 44.2c-.9 0-1.7-.8-1.7-1.7s.8-1.7 1.7-1.7 1.7.8 1.7 1.7-.8 1.7-1.7 1.7m1.8-20.7c-2.1 0-3.7-1.7-3.7-3.7s1.7-3.7 3.7-3.7 3.7 1.7 3.7 3.7-1.6 3.7-3.7 3.7m5.5 19.7c-.9 0-1.7-.8-1.7-1.7s.8-1.7 1.7-1.7c.9 0 1.7.8 1.7 1.7s-.8 1.7-1.7 1.7M28 25c-.4 0-.8-.3-.8-.8v-8.7c0-.4.3-.8.8-.8h16.5c.4 0 .8.3.8.8v8.7c0 .4-.3.8-.8.8H28zm18.5 18.2c-.9 0-1.7-.8-1.7-1.7s.8-1.7 1.7-1.7c.9 0 1.7.8 1.7 1.7s-.8 1.7-1.7 1.7m1-23.5c0-2.1 1.7-3.7 3.7-3.7s3.7 1.7 3.7 3.7-1.7 3.7-3.7 3.7-3.7-1.6-3.7-3.7m6.1 24.5c-.9 0-1.7-.8-1.7-1.7s.8-1.7 1.7-1.7c.9 0 1.7.8 1.7 1.7s-.8 1.7-1.7 1.7"/><path fill="#EDEADA" d="M61.1 44.9L59 34.5s-.5-.9-1.9-.9H15.4c-1.5 0-1.9.9-1.9.9l-2.1 10.4c-.1.4.6.5.6.5h48.6c-.1 0 .5-.1.5-.5m-42-.7c-.9 0-1.7-.8-1.7-1.7s.8-1.7 1.7-1.7 1.7.8 1.7 1.7-.8 1.7-1.7 1.7m7.3-1c-.9 0-1.7-.8-1.7-1.7s.8-1.7 1.7-1.7c.9 0 1.7.8 1.7 1.7s-.8 1.7-1.7 1.7m20.1 0c-.9 0-1.7-.8-1.7-1.7s.8-1.7 1.7-1.7c.9 0 1.7.8 1.7 1.7s-.8 1.7-1.7 1.7m7.1 1c-.9 0-1.7-.8-1.7-1.7s.8-1.7 1.7-1.7c.9 0 1.7.8 1.7 1.7s-.8 1.7-1.7 1.7"/><path fill="#AB6865" d="M51.3 12.8c3.8 0 6.9 3.1 6.9 6.9s-3.1 6.9-6.9 6.9c-3.8 0-6.9-3.1-6.9-6.9s3-6.9 6.9-6.9m0-4.5c-6.3 0-11.4 5.1-11.4 11.4S45 31.1 51.3 31.1 62.7 26 62.7 19.7 57.6 8.3 51.3 8.3"/><path fill="#BDBCBC" d="M2.6 41.4c.8 0 1.5.7 1.5 1.5s-.7 1.5-1.5 1.5S1 43.8 1 42.9c0-.8.7-1.5 1.6-1.5"/><path fill="#393536" d="M2.6 41.4H3c.1 0 .3.1.4.2.2.1.3.2.4.4.1.2.2.4.3.7 0 .3 0 .5-.1.8-.1.3-.3.5-.6.7-.3.2-.6.3-.9.3-.3 0-.6-.1-.9-.3-.2-.2-.4-.4-.6-.7v-.7c0-.3.1-.5.3-.7.1-.2.3-.3.4-.4.2-.1.3-.2.4-.2h.3c.1-.1.2-.1.2-.1m0 0h-.1c-.1 0-.2 0-.3.1-.1 0-.3.1-.4.2-.1.1-.3.2-.4.4-.1.2-.2.4-.2.7 0 .3 0 .5.1.8.1.4.7.8 1.3.8.6 0 1.1-.4 1.3-.9.1-.2.2-.5.1-.7 0-.3-.1-.5-.2-.7-.1-.2-.3-.3-.4-.4-.2-.1-.3-.2-.4-.2-.1-.1-.2 0-.3-.1h-.1"/><g opacity=".5"><defs><path id="a" d="M1 41.4h3v3.1H1z"/></defs><clipPath id="b"><use xlink:href="#a" overflow="visible"/></clipPath><path clip-path="url(#b)" fill="#BDBCBC" d="M2.6 41.4c-.8 0-1.5.7-1.5 1.5s.7 1.5 1.5 1.5 1.5-.7 1.5-1.5-.7-1.5-1.5-1.5m0 2.8c-.7 0-1.3-.6-1.3-1.3s.6-1.3 1.3-1.3c.7 0 1.3.6 1.3 1.3s-.6 1.3-1.3 1.3"/></g><path fill="#E9E9E9" d="M2.6 42.1c.6 0 1.1.4 1.2 1v-.2c0-.7-.6-1.3-1.3-1.3s-1.3.6-1.3 1.3v.2c.2-.6.8-1 1.4-1"/><path fill="#393536" d="M1.6 42.6h.6c.1 0 .2.1.4.1.1.1.2.1.3.2.1 0 .2.1.3.2.2.1.3.2.3.2h-.6s-.2-.1-.4-.1c-.1-.1-.2-.1-.3-.2-.1 0-.2-.1-.3-.2-.2-.1-.3-.2-.3-.2"/><path fill="#393536" d="M2.2 43.9v-.3-.3s.1-.2.1-.4c.1-.1.1-.2.2-.3 0-.1.1-.2.2-.3.1-.2.2-.3.2-.3v.6c0 .1-.1.2-.1.4-.1.1-.1.2-.2.3 0 .1-.1.2-.2.3-.1.2-.2.3-.2.3"/><path fill="#BDBCBC" d="M69.9 41.4c.8 0 1.5.7 1.5 1.5s-.7 1.5-1.5 1.5-1.5-.7-1.5-1.5.7-1.5 1.5-1.5"/><path fill="#393536" d="M69.9 41.4h.4c.1 0 .3.1.4.2.2.1.3.2.4.4.1.2.2.4.3.7 0 .3 0 .5-.1.8-.1.3-.3.5-.6.7-.3.2-.6.3-.9.3-.3 0-.6-.1-.9-.3-.2-.2-.4-.4-.6-.7-.1-.3-.2-.6-.1-.8 0-.3.1-.5.3-.7.1-.2.3-.3.4-.4.2-.1.3-.2.4-.2h.6m0 0h-.1c-.1 0-.2 0-.3.1-.1 0-.3.1-.4.2-.1.1-.3.2-.4.4-.1.2-.2.4-.2.7 0 .3 0 .5.1.8.2.5.8.9 1.3.9.6 0 1.1-.4 1.3-.9.1-.2.2-.5.1-.8 0-.3-.1-.5-.2-.7-.1-.2-.3-.3-.4-.4-.2-.1-.3-.2-.4-.2-.1-.1-.2 0-.3-.1h-.1"/><g opacity=".5"><defs><path id="c" d="M68.4 41.4h3v3.1h-3z"/></defs><clipPath id="d"><use xlink:href="#c" overflow="visible"/></clipPath><path clip-path="url(#d)" fill="#BDBCBC" d="M69.9 41.4c-.8 0-1.5.7-1.5 1.5s.7 1.5 1.5 1.5 1.5-.7 1.5-1.5c.1-.8-.6-1.5-1.5-1.5m0 2.8c-.7 0-1.3-.6-1.3-1.3s.6-1.3 1.3-1.3c.7 0 1.3.6 1.3 1.3s-.5 1.3-1.3 1.3"/></g><path fill="#E9E9E9" d="M69.9 42.1c.6 0 1.1.4 1.2 1v-.2c0-.7-.6-1.3-1.3-1.3-.7 0-1.3.6-1.3 1.3v.2c.3-.6.8-1 1.4-1"/><path fill="#393536" d="M69 42.6h.6c.1 0 .2.1.4.1.1.1.2.1.3.2.1 0 .2.1.3.2.2.1.3.2.3.2h-.6c-.1 0-.2-.1-.4-.1-.1-.1-.2-.1-.3-.2-.1 0-.2-.1-.3-.2-.2-.1-.3-.2-.3-.2"/><path fill="#393536" d="M69.6 43.9v-.3-.3c0-.1.1-.2.1-.4.1-.1.1-.2.2-.3 0-.1.1-.2.2-.3.1-.2.2-.3.2-.3v.6c0 .1-.1.2-.1.4-.1.1-.1.2-.2.3-.1.1-.1.2-.2.3-.1.2-.2.3-.2.3"/><defs><path id="e" d="M11.4 34.1h4v11.3h-4z"/></defs><clipPath id="f"><use xlink:href="#e" overflow="visible"/></clipPath><path clip-path="url(#f)" fill="#EDEADA" d="M13.5 34.5l-2.1 10.4c-.1.4.6.5.6.5h1s-.6-.1-.5-.5l2-9.4s.3-.5 1-.7L14 34c-.4.3-.5.5-.5.5"/><defs><path id="g" d="M57.1 34.1h4v11.3h-4z"/></defs><clipPath id="h"><use xlink:href="#g" overflow="visible"/></clipPath><path clip-path="url(#h)" fill="#EDEADA" d="M61.1 44.9L59 34.5s-.1-.2-.4-.4l-1.5.8c.8.2 1 .7 1 .7l2 9.4c.1.4-.5.5-.5.5h1c-.1-.1.5-.2.5-.6"/><defs><path id="i" d="M13.9 34.1h44.7v.8H13.9z"/></defs><clipPath id="j"><use xlink:href="#i" overflow="visible"/></clipPath><path clip-path="url(#j)" fill="#EDEADA" d="M13.9 34.1l1.5.7c.4-.1.9-.1 1.3-.1h39c.4 0 .9 0 1.3.1l1.5-.7-1.5.8c-.8-.2-1.7 0-2.6-.1H18c-.9 0-1.7-.1-2.6.1l-1.5-.8z"/><path fill="#EFEDDF" d="M66.7 3.6H5.8c-1 0-1.8.8-1.8 1.8v25.3c0 1 .8 1.8 1.8 1.8h60.8c1 0 1.8-.8 1.8-1.8V5.4c.1-1-.7-1.8-1.7-1.8M21.1 23.5c-2.1 0-3.7-1.7-3.7-3.7S19 16 21.1 16s3.7 1.7 3.7 3.7-1.7 3.8-3.7 3.8m24.1-8v8.7c0 .4-.3.8-.8.8H28c-.4 0-.8-.3-.8-.8v-8.7c0-.4.3-.8.8-.8h16.5c.4.1.7.4.7.8zm6.2 8c-2.1 0-3.7-1.7-3.7-3.7s1.7-3.7 3.7-3.7 3.7 1.7 3.7 3.7-1.7 3.7-3.7 3.7"/><defs><path id="k" d="M4 3.6h64.4v2.2H4z"/></defs><clipPath id="l"><use xlink:href="#k" overflow="visible"/></clipPath><path clip-path="url(#l)" fill="#EFEDDF" d="M66.7 3.6H5.8c-1 0-1.8.8-1.8 1.8v.3C4 4.8 4.8 4 5.8 4h60.8c1 0 1.8.8 1.8 1.8v-.4c.1-1-.7-1.8-1.7-1.8"/><defs><path id="m" d="M4 30.4h64.4v2.2H4z"/></defs><clipPath id="n"><use xlink:href="#m" overflow="visible"/></clipPath><path clip-path="url(#n)" fill="#EFEDDF" d="M66.7 32.1H5.8c-1 0-1.8-.8-1.8-1.8v.4c0 1 .8 1.8 1.8 1.8h60.8c1 0 1.8-.8 1.8-1.8v-.4c.1 1-.7 1.8-1.7 1.8"/><path fill="#D3D2D2" d="M24.1 19.7c0 .4-.1.8-.2 1.2l-.7-.4-.5.8.7.4c-.5.6-1.2 1-2 1.1V22h-.9v.9c-.8-.1-1.5-.5-2-1.1l.7-.4-.5-.8-.7.3c-.1-.4-.2-.7-.2-1.2 0-.2 0-.4.1-.6l-.6-.3c-.1.3-.1.6-.1.9 0 2.1 1.7 3.7 3.7 3.7 2.1 0 3.7-1.7 3.7-3.7 0-.3 0-.6-.1-.9l-.6.3c.2.2.2.4.2.6"/><path fill="#918F90" d="M20.9 16c-1.8 0-3.2 1.2-3.6 2.9l.6.3c0-.2.1-.4.2-.6l.7.4.5-.8-.7-.4c.5-.6 1.2-1 2-1.1v.9h.9v-.9c.8.1 1.5.5 2 1.1l-.7.4.5.8.7-.4c.1.2.1.4.2.6l.6-.3c-.6-1.7-2.1-2.9-3.9-2.9"/><path fill="#D3D2D2" d="M54.4 19.7c0 .4-.1.8-.2 1.2l-.7-.4-.5.7.7.4c-.5.6-1.2 1-2 1.1v-.9h-.9v.9c-.8-.1-1.5-.5-2-1.1l.7-.4-.5-.8-.7.4c-.1-.4-.2-.7-.2-1.2 0-.2 0-.4.1-.6l-.6-.3c-.1.3-.1.6-.1.9 0 2.1 1.7 3.7 3.7 3.7s3.7-1.7 3.7-3.7c0-.3 0-.6-.1-.9l-.6.3c.2.3.2.5.2.7"/><path fill="#918F90" d="M51.3 16c-1.8 0-3.2 1.2-3.6 2.9l.6.3c0-.2.1-.4.2-.6l.7.4.5-.8-.7-.4c.5-.6 1.2-1 2-1.1v.9h.9v-.9c.8.1 1.5.5 2 1.1l-.9.4.5.8.7-.4c.1.2.1.4.2.6l.6-.3c-.5-1.7-2-2.9-3.7-2.9"/><path fill="#BDBCBC" d="M2.5.5C3.3.5 4 1.2 4 2s-.6 1.6-1.5 1.6C1.7 3.6 1 2.9 1 2.1S1.7.5 2.5.5"/><path fill="#393536" d="M2.5.5h.4c.1 0 .3.1.4.2.2.2.4.3.5.5.1.2.2.4.3.7 0 .3 0 .5-.1.8-.2.5-.8 1-1.4 1-.3 0-.6-.1-.9-.3-.3-.2-.5-.4-.6-.7-.1-.3-.2-.5-.1-.8 0-.3.1-.5.3-.7.1-.2.2-.3.4-.4.1-.1.3-.2.4-.2h.3c.1 0 .1-.1.1-.1m0 0h-.1c-.1 0-.2 0-.3.1-.1 0-.2.1-.4.2l-.4.4c-.1.2-.2.4-.2.7 0 .3 0 .5.1.8.1.2.3.5.5.6.3.1.5.2.8.2.3 0 .6-.1.8-.2.2-.2.4-.4.5-.6.2-.3.2-.6.2-.8 0-.3-.1-.5-.2-.7L3.4.8C3.2.7 3.1.6 2.9.6c-.1-.1-.2 0-.3-.1 0 .1-.1 0-.1 0"/><g opacity=".5"><defs><path id="o" d="M1 .5h3v3.1H1z"/></defs><clipPath id="p"><use xlink:href="#o" overflow="visible"/></clipPath><path clip-path="url(#p)" fill="#BDBCBC" d="M2.5.6C1.7.6 1 1.2 1 2.1s.7 1.5 1.5 1.5S4 2.9 4 2.1 3.4.6 2.5.6m0 2.8c-.7 0-1.3-.6-1.3-1.3 0-.7.6-1.3 1.3-1.3.7 0 1.3.6 1.3 1.3 0 .7-.6 1.3-1.3 1.3"/></g><path fill="#E9E9E9" d="M2.5 1.2c.6 0 1.1.4 1.2 1V2c0-.7-.6-1.3-1.3-1.3-.6.1-1.1.6-1.1 1.3v.2c.1-.5.6-1 1.2-1"/><path fill="#393536" d="M1.6 1.7h.6c.1 0 .2.1.4.1.1.1.2.2.4.2.1 0 .2.1.3.2.2.1.3.2.3.2H3c-.1 0-.2-.1-.4-.1-.3-.1-.4-.1-.5-.2-.1 0-.2-.1-.3-.1-.1-.2-.2-.3-.2-.3"/><path fill="#393536" d="M2.2 3v-.3-.3c0-.1.1-.2.1-.4.1-.1.1-.2.2-.3 0-.1.1-.2.2-.3.1-.2.2-.3.2-.3v.6c0 .1-.1.2-.1.4-.1.2-.2.3-.2.4-.1.1-.1.2-.2.3l-.2.2"/><path fill="#BDBCBC" d="M69.9.5c.8 0 1.5.7 1.5 1.5s-.7 1.5-1.5 1.5-1.5-.7-1.5-1.5.7-1.5 1.5-1.5"/><path fill="#393536" d="M69.9.5h.4c.1 0 .3.1.4.2.2.1.3.2.4.4.1.2.2.4.3.7 0 .3 0 .5-.1.8-.2.5-.8 1-1.4 1-.3 0-.6-.1-.9-.3-.2-.2-.4-.4-.6-.7-.1-.3-.2-.6-.1-.8 0-.3.1-.5.3-.7.1-.2.3-.3.4-.4.2-.1.3-.2.4-.2h.3c.2.1.2 0 .2 0m0 0h-.1c-.1 0-.2 0-.3.1-.1 0-.3.1-.4.2-.1.1-.3.2-.4.4-.1.2-.2.4-.2.7 0 .3 0 .5.1.8.1.2.3.5.5.6.2.1.5.2.8.2.3 0 .6-.1.8-.2.2-.2.4-.4.5-.6.1-.2.2-.5.1-.8 0-.3-.1-.5-.2-.7-.1-.2-.3-.3-.4-.4-.2-.1-.3-.2-.4-.2-.1-.1-.2 0-.3-.1 0 .1-.1 0-.1 0"/><g opacity=".5"><defs><path id="q" d="M68.4.5h3v3.1h-3z"/></defs><clipPath id="r"><use xlink:href="#q" overflow="visible"/></clipPath><path clip-path="url(#r)" fill="#BDBCBC" d="M69.9.6c-.8 0-1.5.7-1.5 1.5s.7 1.5 1.5 1.5 1.5-.7 1.5-1.5S70.8.6 69.9.6m0 2.8c-.7 0-1.3-.6-1.3-1.3 0-.7.6-1.3 1.3-1.3.7 0 1.3.6 1.3 1.3 0 .7-.6 1.3-1.3 1.3"/></g><path fill="#E9E9E9" d="M69.9 1.2c.6 0 1.1.4 1.2 1V2c0-.7-.6-1.3-1.3-1.3-.7 0-1.3.6-1.3 1.3v.2c.3-.5.8-1 1.4-1"/><path fill="#393536" d="M69 1.7h.6c.1 0 .2.1.4.1.1.1.2.2.3.2.1 0 .2.1.3.2.2.1.3.2.3.2h-.6c-.1 0-.2-.1-.4-.1-.1-.1-.2-.1-.3-.2-.2 0-.3-.1-.4-.1-.1-.2-.2-.3-.2-.3"/><path fill="#393536" d="M69.6 3v-.3-.3c0-.1.1-.2.1-.4.1-.1.1-.2.2-.3 0-.1.1-.2.2-.3.1-.2.2-.3.2-.3v.6c0 .1-.1.2-.1.4-.1.2-.2.3-.2.4 0 .1-.1.2-.2.3l-.2.2"/><defs><path id="s" d="M15.4 13.8h41.7v1.8H15.4z"/></defs><clipPath id="t"><use xlink:href="#s" overflow="visible"/></clipPath><path clip-path="url(#t)" fill="#EDEADA" d="M15.4 15.7s0-.2.1-.5.3-.8.8-1.1c.5-.3 1.3-.2 2.1-.2H54c.8 0 1.6-.1 2.1.2.5.3.8.8.8 1.1.1.3.1.5.1.5s0-.2-.1-.5-.3-.8-.8-1c-.5-.3-1.3-.2-2.1-.2H36.2c-5.5 0-10.9 0-15-.1h-2.8c-.8 0-1.6-.1-2.1.2-.5.3-.8.7-.8 1-.1.4-.1.6-.1.6"/><path fill="#F6F5ED" d="M24.4 19.7c0 1.9-1.5 3.5-3.5 3.5-1.9 0-3.5-1.5-3.5-3.5h-1c0 2.5 2 4.5 4.5 4.5s4.5-2 4.5-4.5h-1z"/><path fill="#C0947A" d="M20.9 16.3c1.9 0 3.5 1.5 3.5 3.5h1c0-2.5-2-4.5-4.5-4.5s-4.5 2-4.5 4.5h1c.1-2 1.6-3.5 3.5-3.5"/><path fill="#F6F5ED" d="M54.7 19.7c0 1.9-1.5 3.5-3.5 3.5-1.9 0-3.5-1.5-3.5-3.5h-1c0 2.5 2 4.5 4.5 4.5s4.5-2 4.5-4.5h-1z"/><path fill="#C0947A" d="M51.3 16.3c1.9 0 3.5 1.5 3.5 3.5h1c0-2.5-2-4.5-4.5-4.5s-4.5 2-4.5 4.5h1c0-2 1.6-3.5 3.5-3.5"/><path fill="#A7A5A6" d="M44.5 14.8H28c-.4 0-.8.3-.8.8v8.7c0 .4.3.8.8.8h16.5c.4 0 .8-.3.8-.8v-8.7c-.1-.5-.4-.8-.8-.8m-.1 8.3c0 .2-.1.3-.3.3H28.3c-.2 0-.3-.1-.3-.3V16c0-.2.1-.3.3-.3h15.8c.2 0 .3.1.3.3v7.1z"/><g opacity=".4"><defs><path id="u" d="M27.2 14.8h18v.9h-18z"/></defs><clipPath id="v"><use xlink:href="#u" overflow="visible"/></clipPath><path clip-path="url(#v)" fill="#A7A5A6" d="M44.5 14.8H28c-.4 0-.8.3-.8.8v.2H45.2v-.2c0-.5-.3-.8-.7-.8"/></g><path fill="#D3D2D2" d="M28 25h16.5c.3 0 .6-.2.7-.4l-.8-1.2c-.1.1-.1.1-.2.1H28.3c-.1 0-.2 0-.2-.1l-.8 1.2c.1.2.4.4.7.4"/><path fill="none" stroke="#231F20" stroke-width=".45" stroke-miterlimit="10" d="M29.5 23.4v1.2M31.8 23.4v1.2M34.1 23.4v1.2M36.3 23.4v1.2M38.6 23.4v1.2"/><g opacity=".4"><defs><path id="w" d="M14.9 24h42.9v2.1H14.9z"/></defs><clipPath id="x"><use xlink:href="#w" overflow="visible"/></clipPath><path clip-path="url(#x)" fill="none" stroke="#72583C" stroke-width=".3" stroke-linecap="round" stroke-miterlimit="10" d="M15 24.1c0 1 .8 1.8 1.8 1.8h39c1 0 1.8-.8 1.8-1.8"/></g><path fill="none" stroke="#231F20" stroke-width=".45" stroke-miterlimit="10" d="M40.9 23.4v1.2M43.2 23.4v1.2"/><g><defs><path id="y" d="M14.9 13.3h42.6v12.5H14.9z"/></defs><clipPath id="z"><use xlink:href="#y" overflow="visible"/></clipPath><path clip-path="url(#z)" fill="#EDEADA" d="M55.7 13.3h-39c-1 0-1.8.8-1.8 1.8V24c0 1 .8 1.8 1.8 1.8h39c1 0 1.8-.8 1.8-1.8v-8.9c0-1-.8-1.8-1.8-1.8M21.1 23.5c-2.1 0-3.7-1.7-3.7-3.7S19 16 21.1 16s3.7 1.7 3.7 3.7-1.7 3.8-3.7 3.8m24.1-8v8.7c0 .4-.3.8-.8.8H28c-.4 0-.8-.3-.8-.8v-8.7c0-.4.3-.8.8-.8h16.5c.4.1.7.4.7.8zm6.2 8c-2.1 0-3.7-1.7-3.7-3.7s1.7-3.7 3.7-3.7 3.7 1.7 3.7 3.7-1.7 3.7-3.7 3.7"/></g><path fill="#BDBCBC" d="M36.3 36c.8 0 1.5.7 1.5 1.5s-.6 1.5-1.5 1.5c-.8 0-1.5-.7-1.5-1.5s.7-1.5 1.5-1.5"/><path fill="#393536" d="M36.3 36h.4c.1 0 .3.1.4.2.2.1.3.2.4.4.1.2.2.4.3.7 0 .3 0 .5-.1.8-.2.5-.8 1-1.4 1-.3 0-.6-.1-.9-.3-.2-.2-.4-.4-.6-.7-.1-.3-.2-.6-.1-.8 0-.3.1-.5.3-.7.1-.2.3-.3.4-.4.2-.1.3-.2.4-.2h.5m0 0h-.1c-.1 0-.2 0-.3.1-.1 0-.3.1-.4.2-.1.1-.3.2-.4.4-.1.2-.2.4-.2.7 0 .3 0 .5.1.8.1.2.3.5.5.6.2.2.5.2.8.2.3 0 .6-.1.8-.2.2-.2.4-.4.5-.6.1-.2.2-.5.1-.8 0-.3-.1-.5-.2-.7-.1-.2-.3-.3-.4-.4-.2-.1-.3-.2-.4-.2-.1-.1-.2 0-.3-.1h-.1"/><g opacity=".5"><defs><path id="A" d="M34.8 36h3v3.1h-3z"/></defs><clipPath id="B"><use xlink:href="#A" overflow="visible"/></clipPath><path clip-path="url(#B)" fill="#BDBCBC" d="M36.3 36c-.8 0-1.5.7-1.5 1.5s.7 1.5 1.5 1.5 1.5-.7 1.5-1.5-.6-1.5-1.5-1.5m0 2.8c-.7 0-1.3-.6-1.3-1.3s.6-1.3 1.3-1.3 1.3.6 1.3 1.3-.6 1.3-1.3 1.3"/></g><path fill="#E9E9E9" d="M36.3 36.6c.6 0 1.1.4 1.2 1v-.2c0-.7-.6-1.3-1.3-1.3-.7 0-1.3.6-1.3 1.3v.2c.3-.5.8-1 1.4-1"/><path fill="#393536" d="M35.4 37.1h.6c.1 0 .2.1.4.1.1.1.2.1.3.2.1 0 .2.1.3.2.2.1.3.2.3.2h-.6c-.1 0-.2-.1-.4-.1-.1-.1-.2-.1-.3-.2-.1 0-.2-.1-.3-.2-.2-.1-.3-.2-.3-.2"/><path fill="#393536" d="M36 38.4v-.3-.3c0-.1.1-.2.1-.4.1-.1.1-.2.2-.3 0-.1.1-.2.2-.3.1-.2.2-.3.2-.3v.6c0 .1-.1.2-.1.4-.1.1-.1.2-.2.3-.1.1-.1.2-.2.3-.1.2-.2.3-.2.3"/><path fill="#918F90" d="M7.4 4.9h57.7v8H7.4z"/><path fill="#FFF" d="M7.4 4.7h57.7v8H7.4z"/><path fill="#231F20" d="M8.8 7.4h3.9v3.9H8.8z"/><path fill="none" stroke="#231F20" stroke-width=".289" stroke-miterlimit="10" d="M13.7 8.2h49.9M13.7 11.2h49.9"/></svg>