<svg xmlns="http://www.w3.org/2000/svg" xmlns:xlink="http://www.w3.org/1999/xlink" width="48" height="69.9" viewBox="0 0 48 69.9"><path fill="#EDE6D8" d="M2 0C.9 0 0 .9 0 2v61c0 1.1.9 2 2 2h44c1.1 0 2-.9 2-2V16.5L31.5 0H2z"/><defs><path id="a" d="M33 16.5h15V22H33z"/></defs><clipPath id="b"><use xlink:href="#a" overflow="visible"/></clipPath><path clip-path="url(#b)" fill="#F1E6D7" d="M33 16.5L48 22v-5.5"/><path fill="#F3EFE6" d="M33.5 16.5H48L31.5 0l.1 14.6c-.1 1.1.8 1.9 1.9 1.9"/><path fill="#231F20" d="M8.3 10.5H11v1.8H8.3z"/><path fill="#231F20" d="M10.9 10.5h2.7v1.8h-2.7z"/><path fill="#231F20" d="M13.5 10.5h2.7v1.8h-2.7zM8.3 13.8H11v1.8H8.3z"/><path fill="#231F20" d="M10.9 13.8h2.7v1.8h-2.7z"/><path fill="#231F20" d="M13.5 13.8h2.7v1.8h-2.7zM8.3 20.5H11v1.8H8.3z"/><path fill="#231F20" d="M10.9 20.5h2.7v1.8h-2.7zM8.3 23.8H11v1.8H8.3z"/><path fill="#231F20" d="M10.9 23.8h2.7v1.8h-2.7z"/><path fill="#231F20" d="M13.5 23.8h2.7v1.8h-2.7zM21.4 23.8h2.7v1.8h-2.7z"/><path fill="#231F20" d="M24 23.8h2.7v1.8H24zM31.8 23.8h2.7v1.8h-2.7z"/><path fill="#231F20" d="M34.4 23.8h2.7v1.8h-2.7z"/><path fill="#231F20" d="M37 23.8h2.7v1.8H37zM8.3 27.2H11V29H8.3z"/><path fill="#231F20" d="M10.9 27.2h2.7V29h-2.7zM18.8 27.2h2.7V29h-2.7z"/><path fill="#231F20" d="M21.4 27.2h2.7V29h-2.7z"/><path fill="#231F20" d="M24 27.2h2.7V29H24z"/><path fill="#231F20" d="M26.6 27.2h2.7V29h-2.7z"/><path fill="#231F20" d="M29.2 27.2h2.7V29h-2.7zM8.3 30.5H11v1.8H8.3z"/><path fill="#231F20" d="M10.9 30.5h2.7v1.8h-2.7z"/><path fill="#231F20" d="M13.5 30.5h2.7v1.8h-2.7z"/><path fill="#231F20" d="M16.1 30.5h2.7v1.8h-2.7zM8.3 33.8H11v1.8H8.3z"/><path fill="#231F20" d="M10.9 33.8h2.7v1.8h-2.7z"/><path fill="#231F20" d="M13.5 33.8h2.7v1.8h-2.7z"/><path fill="#231F20" d="M16.1 33.8h2.7v1.8h-2.7z"/><path fill="#231F20" d="M18.7 33.8h2.7v1.8h-2.7z"/><path fill="#231F20" d="M21.3 33.8H24v1.8h-2.7z"/><path fill="#231F20" d="M23.9 33.8h2.7v1.8h-2.7zM31.8 33.8h2.7v1.8h-2.7z"/><path fill="#231F20" d="M34.4 33.8h2.7v1.8h-2.7z"/><path fill="#231F20" d="M37 33.8h2.7v1.8H37zM8.3 37.2H11V39H8.3z"/><path fill="#231F20" d="M10.9 37.2h2.7V39h-2.7z"/><path fill="#231F20" d="M13.5 37.2h2.7V39h-2.7z"/><path fill="#231F20" d="M16.1 37.2h2.7V39h-2.7z"/><path fill="#231F20" d="M18.7 37.2h2.7V39h-2.7zM26.6 37.2h2.7V39h-2.7z"/><path fill="#231F20" d="M29.2 37.2h2.7V39h-2.7z"/><path fill="#231F20" d="M31.8 37.2h2.7V39h-2.7z"/><path fill="#231F20" d="M34.4 37.2h2.7V39h-2.7z"/><path fill="#231F20" d="M37 37.2h2.7V39H37zM8.3 40.5H11v1.8H8.3z"/><path fill="#231F20" d="M10.9 40.5h2.7v1.8h-2.7z"/><path fill="#231F20" d="M13.5 40.5h2.7v1.8h-2.7z"/><path fill="#231F20" d="M16.1 40.5h2.7v1.8h-2.7zM24 40.5h2.7v1.8H24z"/><path fill="#231F20" d="M26.6 40.5h2.7v1.8h-2.7z"/><path fill="#231F20" d="M29.2 40.5h2.7v1.8h-2.7z"/><path fill="#231F20" d="M31.8 40.5h2.7v1.8h-2.7z"/><path fill="#231F20" d="M34.4 40.5h2.7v1.8h-2.7zM8.3 43.8H11v1.8H8.3z"/><path fill="#231F20" d="M10.9 43.8h2.7v1.8h-2.7z"/><path fill="#231F20" d="M13.5 43.8h2.7v1.8h-2.7z"/><path fill="#231F20" d="M16.1 43.8h2.7v1.8h-2.7z"/><path fill="#231F20" d="M18.7 43.8h2.7v1.8h-2.7z"/><path fill="#231F20" d="M21.3 43.8H24v1.8h-2.7z"/><path fill="#231F20" d="M23.9 43.8h2.7v1.8h-2.7z"/><path fill="#231F20" d="M26.5 43.8h2.7v1.8h-2.7zM34.4 43.8h2.7v1.8h-2.7z"/><path fill="#231F20" d="M37 43.8h2.7v1.8H37zM8.3 47.2H11V49H8.3z"/><path fill="#231F20" d="M10.9 47.2h2.7V49h-2.7z"/><path fill="#231F20" d="M13.5 47.2h2.7V49h-2.7z"/><path fill="#231F20" d="M16.1 47.2h2.7V49h-2.7z"/><path fill="#231F20" d="M18.7 47.2h2.7V49h-2.7z"/><path fill="#231F20" d="M21.3 47.2H24V49h-2.7z"/><path fill="#1498C3" d="M36.1 66.8l2.7 2.3-.9-12.2-5 .4.9 12.2"/><defs><path id="c" d="M35.5 57.5h3v6.9h-3z"/></defs><clipPath id="d"><use xlink:href="#c" overflow="visible"/></clipPath><path clip-path="url(#d)" fill="#1498C3" d="M37.9 57.5l-2.4 1.3 3 5.6"/><path fill="#1498C3" d="M42.8 66.5l-1.1 3.4L36 59.1l4.4-2.3 5.8 10.7"/><path fill="#872237" d="M41.9 52.1c1 3.4-1 6.9-4.3 7.8-3.4 1-6.9-.9-7.8-4.3s.9-6.9 4.3-7.8 6.8.9 7.8 4.3"/><g><defs><path id="e" d="M30.5 48.5h10.1v6H30.5z"/></defs><clipPath id="f"><use xlink:href="#e" overflow="visible"/></clipPath><path clip-path="url(#f)" fill="#872237" d="M34.5 49.2c2.5-.7 5.1.3 6.1 2.3-1.1-2.3-3.7-3.6-6.3-2.8-2.5.7-4.1 3.2-3.8 5.8-.1-2.3 1.5-4.6 4-5.3"/></g><g><defs><path id="g" d="M31 53.2h10.1v6H31z"/></defs><clipPath id="h"><use xlink:href="#g" overflow="visible"/></clipPath><path clip-path="url(#h)" fill="#872237" d="M37.2 58.5c-2.5.7-5.1-.3-6.1-2.3 1.1 2.3 3.7 3.6 6.3 2.8 2.5-.7 4.1-3.2 3.8-5.8.1 2.3-1.5 4.6-4 5.3"/></g></svg>