<svg xmlns="http://www.w3.org/2000/svg" xmlns:xlink="http://www.w3.org/1999/xlink" width="21.9" height="80.1" viewBox="0 0 21.9 80.1"><path fill="#666943" d="M19.7 37.6c-1.9-5-5.2-13-5.2-21V2.9H7.4v13.7c0 8-3.3 16-5.2 21S0 47.9 0 47.9v26.3c0 4.1 1.3 5 4.2 5.5 2.9.5 6.7.4 6.7.4s3.8 0 6.7-.4c2.9-.5 4.2-1.4 4.2-5.5V47.9c.1 0-.2-5.2-2.1-10.3"/><defs><path id="a" d="M1.9 2.9h18v76.4h-18z"/></defs><clipPath id="b"><use xlink:href="#a" overflow="visible"/></clipPath><path clip-path="url(#b)" fill="#666943" d="M18.2 37.3c-1.6-5-4.3-12.9-4.3-20.8V2.9H8.1v13.6c0 7.9-2.7 15.8-4.3 20.8C2.2 42.3 2 47.4 2 47.4v26c0 4 1.1 5 3.5 5.5s5.5.4 5.5.4 3.1 0 5.5-.4c2.4-.5 3.5-1.4 3.5-5.5v-26s-.3-5.1-1.8-10.1"/><g opacity=".2"><defs><path id="c" d="M11.8 2.9H18v76.4h-6.2z"/></defs><clipPath id="d"><use xlink:href="#c" overflow="visible"/></clipPath><path clip-path="url(#d)" fill="#666943" d="M12.2 16.5c0 7.9 1 15.8 1.6 20.8.6 5 .7 10.1.7 10.1v26c0 4-.4 5-1.3 5.5-.4.2-.9.3-1.3.4.9-.1 2.1-.2 3.2-.4 2.1-.5 3.1-1.4 3.1-5.5v-26s-.2-5.1-1.6-10.1c-1.4-5-3.8-12.9-3.8-20.8V2.9h-.5v13.6z"/></g><g opacity=".6"><defs><path id="e" d="M3.8 2.9h6.7v76.4H3.8z"/></defs><clipPath id="f"><use xlink:href="#e" overflow="visible"/></clipPath><path clip-path="url(#f)" fill="#666943" d="M7.9 73.4v-26s.1-5.1.7-10.1 1.6-12.9 1.6-20.8V2.9h-.8v13.6c0 7.9-2.5 15.8-3.9 20.8S3.9 47.4 3.9 47.4v26c0 4 .9 5 3.1 5.5 1.2.3 2.6.4 3.6.4-.4 0-1-.2-1.5-.4-.9-.5-1.2-1.4-1.2-5.5"/></g><defs><path id="g" d="M0 2.8h21.9V80H0z"/></defs><clipPath id="h"><use xlink:href="#g" overflow="visible"/></clipPath><path clip-path="url(#h)" fill="#666943" d="M19.7 37.5c-1.9-5-5.2-13-5.2-21V2.8H7.4v13.7c0 8-3.3 16-5.2 21C.3 42.6 0 47.8 0 47.8V74c0 4.1 1.3 5 4.2 5.5 3 .5 6.8.5 6.8.5s3.8 0 6.7-.4c2.9-.5 4.2-1.4 4.2-5.5V47.8s-.3-5.2-2.2-10.3m1.2 35.8c0 4-1.2 5-3.8 5.5-2.7.5-6.1.4-6.1.4s-3.5 0-6.1-.4C2.1 78.3 1 77.4 1 73.3v-26s.3-5.1 2-10.1 4.8-12.9 4.8-20.8V2.8h6.4v13.6c0 7.9 3 15.8 4.8 20.8 1.7 5 2 10.1 2 10.1v26z"/><path fill="#B69C5B" d="M14.7 10V2.2S14 .7 11 .7 7.2 2.2 7.2 2.2V10c0 16.5-3.4 23.2-3.4 23.2l7.1 2.9 7.1-2.9c.1 0-3.3-6.7-3.3-23.2"/><path fill="#5E411A" d="M11 30.3l-5.5-2.2c-.8 3.5-1.6 5.1-1.6 5.1l7.1 2.9 7.1-2.9s-.8-1.6-1.6-5.1L11 30.3z"/><g opacity=".3"><defs><path id="i" d="M6.3 2.8h9.2v32.3H6.3z"/></defs><clipPath id="j"><use xlink:href="#i" overflow="visible"/></clipPath><g opacity=".4" clip-path="url(#j)"><defs><path id="k" d="M12.1 2.8h3.4v32.1h-3.4z"/></defs><clipPath id="l"><use xlink:href="#k" overflow="visible"/></clipPath><path clip-path="url(#l)" fill="#E8E5D1" d="M12.6 16.4V2.8h-.5v13.6c0 6.8.7 13.6 1.3 18.6l2.1-.9c-1.3-4.9-2.9-11.3-2.9-17.7"/></g><g opacity=".4" clip-path="url(#j)"><defs><path id="m" d="M6.3 2.8H10v32.3H6.3z"/></defs><clipPath id="n"><use xlink:href="#m" overflow="visible"/></clipPath><path clip-path="url(#n)" fill="#E8E5D1" d="M10.1 2.8h-.8v13.6c0 6.4-1.6 12.9-3 17.7l2.4 1c.6-5 1.3-11.8 1.3-18.7V2.8z"/></g></g><g opacity=".3"><defs><path id="o" d="M3.8.7H18v35.4H3.8z"/></defs><clipPath id="p"><use xlink:href="#o" overflow="visible"/></clipPath><path clip-path="url(#p)" fill="#5E411A" d="M14.7 10V2.2S14 .7 11 .7c2.5 0 3.1 1.5 3.1 1.5V10c0 16.5 2.8 23.2 2.8 23.2L11 36.1l7.1-2.9s-3.4-6.7-3.4-23.2M7.9 10V2.2S8.5.7 11 .7c-3 0-3.7 1.5-3.7 1.5V10c0 16.5-3.4 23.2-3.4 23.2l7.1 2.9-5.8-2.9c-.1 0 2.7-6.7 2.7-23.2"/></g><path fill="#DBCFAF" d="M15 32.2c0 2.8-1.8 5.1-4.1 5.1-2.2 0-4.1-2.3-4.1-5.1s1.8-5.1 4.1-5.1 4.1 2.3 4.1 5.1"/><ellipse fill="none" stroke="#5E411A" stroke-width=".737" stroke-miterlimit="10" cx="11" cy="32.2" rx="4.1" ry="5.1"/><path fill="#5E411A" d="M13.4 32.2c0 1.7-1.1 3.1-2.4 3.1-1.3 0-2.4-1.4-2.4-3.1 0-1.7 1.1-3.1 2.4-3.1 1.3 0 2.4 1.4 2.4 3.1"/><path fill="#B69C5B" d="M15.7 7.5c-.1-2.8-.7-6-.7-6S14 0 11 0 7 1.5 7 1.5s-.6 3.2-.7 6c-.1 2.8 1.2 3.4 1.2 3.4h7s1.3-.6 1.2-3.4"/><g opacity=".3"><defs><path id="q" d="M6.2 0h9.5v10.9H6.2z"/></defs><clipPath id="r"><use xlink:href="#q" overflow="visible"/></clipPath><path clip-path="url(#r)" fill="#5E411A" d="M6.9 1.5s-.6 3.2-.7 6c-.1 2.8 1.2 3.4 1.2 3.4h.7s-1.1-.6-1-3.4c.1-2.8.6-6 .6-6S8.5 0 11 0C8 0 6.9 1.5 6.9 1.5M15.7 7.5c-.1-2.8-.7-6-.7-6S14 0 11 0c2.4 0 3.3 1.5 3.3 1.5s.5 3.2.6 6c.1 2.8-1 3.4-1 3.4h.7c-.1 0 1.2-.6 1.1-3.4"/></g><g opacity=".5"><defs><path id="s" d="M8.1 10.9h5.7v.6H8.1z"/></defs><clipPath id="t"><use xlink:href="#s" overflow="visible"/></clipPath><path clip-path="url(#t)" fill="#5E411A" d="M8.1 10.9h5.8v.1s-.1 0-.2.1c-.2 0-.4.1-.6.2-.3 0-.6.1-.9.2-.3 0-.7 0-1 .1-.4 0-.7 0-1-.1-.3 0-.6-.1-.9-.2-.3 0-.5-.1-.6-.2-.5-.1-.6-.2-.6-.2z"/></g><g opacity=".5"><defs><path id="u" d="M7.2 5.2h7.5v.3H7.2z"/></defs><clipPath id="v"><use xlink:href="#u" overflow="visible"/></clipPath><path clip-path="url(#v)" fill="#5E411A" d="M7.2 5.4s.5-.1 1.2-.1c.4 0 .8-.1 1.2-.1h2.8s.8.1 1.2.1c.7.1 1.2.1 1.2.1h-3.7c-2 .1-3.9.1-3.9 0z"/></g><path fill="#B69C5B" d="M1.4 53.6v19.5c0 .4 4.3.8 9.5.8 5.3 0 9.5-.3 9.5-.8V53.6h-19z"/><path fill="#DBCFAF" d="M3.2 56.3V69c0 .3 3.5.6 7.8.6s7.8-.3 7.8-.6V56.3H3.2z"/><path fill="none" stroke="#5E411A" stroke-width=".737" stroke-miterlimit="10" d="M3.2 56.3V69c0 .3 3.5.6 7.8.6s7.8-.3 7.8-.6V56.3H3.2z"/><path fill="#5E411A" d="M5.7 68h10.6v2.8H5.7z"/></svg>