<svg xmlns="http://www.w3.org/2000/svg" xmlns:xlink="http://www.w3.org/1999/xlink" width="43.3" height="62.1" viewBox="0 0 43.3 62.1"><path fill="#8B4D47" d="M43.3 61c0 .6-.5 1.1-1.1 1.1H1.1C.5 62.1 0 61.6 0 61V5.9c0-.6.5-1.1 1.1-1.1h41.1c.6 0 1.1.5 1.1 1.1V61z"/><path fill="#B07959" d="M43.3 60.4c0 .6-.5 1.1-1.1 1.1H1.1C.5 61.4 0 61 0 60.4V5.2c0-.6.5-1.1 1.1-1.1h41.1c.6 0 1.1.5 1.1 1.1v55.2z"/><path fill="#8B4D47" d="M14.9 8.5l6.8-.2V4.1h-3.8M25.4 4.1h-3.7v4.2l6.7.2M40.1 48V9.9H2.8l-.5 48.9 27.5-.5-.5.5"/><defs><path id="a" d="M2.8 9.4v48.9h27l10.7-10.8V9.4z"/></defs><clipPath id="b"><use xlink:href="#a" overflow="visible"/></clipPath><path clip-path="url(#b)" fill="#F3EFD9" d="M2.8 9.4h37.8v48.9H2.8z"/><path clip-path="url(#b)" fill="none" stroke="#EDCFD3" stroke-width=".388" stroke-miterlimit="10" d="M8.7 9.4v48.9"/><path clip-path="url(#b)" fill="none" stroke="#C0D1DA" stroke-width=".155" stroke-miterlimit="10" d="M2.8 13.9h37.7M2.8 15.8h37.7M2.8 17.7h37.7M2.8 19.7h37.7M2.8 21.6h37.7M2.8 23.5h37.7M2.8 25.4h37.7M2.8 27.3h37.7M2.8 29.2h37.7M2.8 31.2h37.7M2.8 33.1h37.7M2.8 35h37.7M2.8 36.9h37.7M2.8 38.8h37.7M2.8 40.7h37.7M2.8 42.7h37.7M2.8 44.6h37.7M2.8 46.5h37.7M2.8 48.4h37.7M2.8 50.3h37.7M2.8 52.3h37.7M2.8 54.2h37.7M2.8 56.1h37.7"/><path fill="#F7F4E4" d="M29.8 58.3l10.7-10.8H29.8"/><g><defs><path id="c" d="M27.3 47.7h2.5v10.6h-2.5z"/></defs><clipPath id="d"><use xlink:href="#c" overflow="visible"/></clipPath><path clip-path="url(#d)" fill="#F7F4E4" d="M29.8 47.7l-2.5 10.6h2.5"/></g><path fill="#D3D2D2" d="M9.4 11.5V9.8c0-1.2 1-2.2 2.2-2.2h20.1c1.2 0 2.2 1 2.2 2.2v1.7"/><path fill="#E9E9E9" d="M9.4 9.9h24.5v1.6H9.4z"/><path fill="#D3D2D2" d="M24.6 2.8c0-2.8-3-2.8-3-2.8s-3 .1-3 2.8c0 2.8-3.8 4.8-3.8 4.8h13.4c.2 0-3.6-2-3.6-4.8m-2.9 1.1c-.7 0-1.2-.6-1.2-1.2 0-.7.6-1.2 1.2-1.2.7 0 1.2.6 1.2 1.2 0 .7-.6 1.2-1.2 1.2"/><g><defs><path id="e" d="M19.6 2.7h4v2h-4z"/></defs><clipPath id="f"><use xlink:href="#e" overflow="visible"/></clipPath><path clip-path="url(#f)" fill="#D3D2D2" d="M23.3 2.7c0 .9-.7 1.6-1.6 1.6-.9 0-1.6-.7-1.6-1.6h-.4c0 1.1.9 2 2 2s2-.9 2-2h-.4z"/></g><g opacity=".5"><defs><path id="g" d="M20 2.7h3.3v1.6H20z"/></defs><clipPath id="h"><use xlink:href="#g" overflow="visible"/></clipPath><path clip-path="url(#h)" fill="#D3D2D2" d="M21.7 4.3c.9 0 1.6-.7 1.6-1.6h-.4c0 .7-.6 1.2-1.2 1.2-.7 0-1.2-.6-1.2-1.2H20c0 .9.8 1.6 1.7 1.6"/></g><g opacity=".5"><defs><path id="i" d="M19.6.7h4v2h-4z"/></defs><clipPath id="j"><use xlink:href="#i" overflow="visible"/></clipPath><path clip-path="url(#j)" fill="#DAD8E0" d="M21.7.7c-1.1 0-2 .9-2 2h.3c0-.9.7-1.6 1.6-1.6s1.6.7 1.6 1.6h.4c.1-1.1-.8-2-1.9-2"/></g><g><defs><path id="k" d="M20 1.1h3.3v1.6H20z"/></defs><clipPath id="l"><use xlink:href="#k" overflow="visible"/></clipPath><path clip-path="url(#l)" fill="#DAD8E0" d="M21.7 1.5c.7 0 1.2.6 1.2 1.2h.4c0-.9-.7-1.6-1.6-1.6S20 1.8 20 2.7h.4c0-.7.6-1.2 1.3-1.2"/></g></svg>