<svg xmlns="http://www.w3.org/2000/svg" xmlns:xlink="http://www.w3.org/1999/xlink" width="33.9" height="75.2" viewBox="0 0 33.9 75.2"><path fill="none" stroke="#444142" stroke-width="1.196" stroke-miterlimit="10" d="M17.1 18.9c-.2-1.2.5-2.9.8-4 .3-1.1.5-2.1.5-3.3-.1-1.9-1.1-4.8-3-5.7-1.7-.7-3.8-.6-5.5-.9-2.2-.4-3.5-1.9-4.2-4-.1-.2-.2-.5-.3-.8"/><path fill="#444142" d="M33 50.2c-1-4-2-7.4-3-11.4-1.1-4.3-.7-8.6-1-13.1-.4-5.5-4.6-6.7-8.5-6.8H14c-4.1 0-8.6 1.1-9 6.8-.3 4.4.1 8.8-1 13.1-1 4-2 7.4-3 11.4-1.5 6-1.7 15.8 2.5 20.3 3.6 3.9 9 4.6 13.5 4.6s9.9-.7 13.5-4.6c4.1-4.5 4-14.2 2.5-20.3"/><defs><path id="a" d="M17 18.9h17v56.3H17z"/></defs><clipPath id="b"><use xlink:href="#a" overflow="visible"/></clipPath><path clip-path="url(#b)" fill="#7B7979" d="M33 50.2c-1-4-2-7.4-3-11.4-1.1-4.3-.7-8.6-1-13.1-.4-5.5-4.6-6.7-8.5-6.8H20c3.4.1 7 1.3 7.3 6.5.3 4.2-.1 8.3.9 12.4.9 3.8 1.7 7 2.6 10.8 1.3 5.8 1.4 15-2.1 19.3-3.1 3.7-7.7 4.4-11.6 4.4v2.8c4.5 0 9.9-.7 13.5-4.6 4-4.5 3.9-14.2 2.4-20.3"/><defs><path id="c" d="M0 18.9h17v56.3H0z"/></defs><clipPath id="d"><use xlink:href="#c" overflow="visible"/></clipPath><path clip-path="url(#d)" fill="#231F20" d="M5.4 68c-3.6-4.3-3.5-13.6-2.1-19.3.9-3.8 1.7-7 2.6-10.8 1-4.1.6-8.2.9-12.4C7.1 20 11 19 14.5 19H14c-4.1 0-8.6 1.1-9 6.8-.3 4.4.1 8.8-1 13.1-1 4-2 7.4-3 11.4-1.5 6-1.7 15.8 2.5 20.3 3.6 3.9 9 4.6 13.5 4.6v-2.8c-3.9 0-8.6-.7-11.6-4.4"/><defs><path id="e" d="M17 31.8h13v38.7H17z"/></defs><clipPath id="f"><use xlink:href="#e" overflow="visible"/></clipPath><path clip-path="url(#f)" fill="#444142" d="M25.5 31.8s.2.7.5 1.9.7 3 1 5.1c.2 1.1.3 2.2.5 3.4.2 1.2.2 2.5.4 3.8.2 1.3.4 2.7.7 4.1.1.7.3 1.4.5 2.1.2.7.4 1.4.5 2.1.2 1.5.3 3 .1 4.4-.2 1.5-.5 2.9-1 4.2-.5 1.3-1.2 2.5-2 3.6-.8 1-1.8 1.9-2.7 2.5-2 1.2-3.9 1.5-5.2 1.6h-1.5c-.3 0-.5-.1-.5-.1v-.2s.2 0 .5-.1c.3 0 .8-.1 1.4-.3.6-.2 1.3-.3 2.1-.7.8-.3 1.6-.8 2.4-1.4.8-.6 1.5-1.4 2.2-2.3.7-.9 1.3-2 1.8-3.2.5-1.2.9-2.4 1.1-3.8.2-1.3.4-2.7.4-4.1 0-1.4-.3-2.8-.6-4.2-.3-1.4-.6-2.7-1-4-.3-1.3-.7-2.6-.9-3.8-.2-1.2-.4-2.4-.5-3.4-.2-2.1-.3-3.9-.3-5.2v-2h.1z"/><g opacity=".7"><defs><path id="g" d="M14.2 23.3h5.6v11.6h-5.6z"/></defs><clipPath id="h"><use xlink:href="#g" overflow="visible"/></clipPath><g clip-path="url(#h)"><defs><path id="i" d="M14.2 23.3H17v11.6h-2.8z"/></defs><clipPath id="j"><use xlink:href="#i" overflow="visible"/></clipPath><path clip-path="url(#j)" fill="#444142" d="M17 23.3c-1.6 0-2.8 2.6-2.8 5.8s1.3 5.8 2.8 5.8V23.3z"/></g><g clip-path="url(#h)"><defs><path id="k" d="M17 23.3h2.8v11.6H17z"/></defs><clipPath id="l"><use xlink:href="#k" overflow="visible"/></clipPath><path clip-path="url(#l)" fill="#444142" d="M19.8 29.1c0-3.2-1.3-5.8-2.8-5.8v11.6c1.5 0 2.8-2.6 2.8-5.8"/></g></g><path fill="#D3D2D2" d="M18.9 29.1c0 2.4-.9 4.4-1.9 4.4s-1.9-2-1.9-4.4c0-2.4.9-4.4 1.9-4.4s1.9 1.9 1.9 4.4"/><g opacity=".5"><defs><path id="m" d="M15 24.7h3.9v4.4H15z"/></defs><clipPath id="n"><use xlink:href="#m" overflow="visible"/></clipPath><path clip-path="url(#n)" fill="#D3D2D2" d="M17 25.9c1.1 0 1.9 1.4 1.9 3.2 0-2.4-.9-4.4-1.9-4.4s-1.9 2-1.9 4.4c-.1-1.8.8-3.2 1.9-3.2"/></g><g opacity=".5"><defs><path id="o" d="M15 29.1h3.9v4.4H15z"/></defs><clipPath id="p"><use xlink:href="#o" overflow="visible"/></clipPath><path clip-path="url(#p)" fill="#D3D2D2" d="M17 32.3c-1.1 0-1.9-1.4-1.9-3.2 0 2.4.9 4.4 1.9 4.4s1.9-2 1.9-4.4c0 1.8-.9 3.2-1.9 3.2"/></g><g opacity=".5"><defs><path id="q" d="M15.2 30.8h3.6v.4h-3.6z"/></defs><clipPath id="r"><use xlink:href="#q" overflow="visible"/></clipPath><path clip-path="url(#r)" fill="#D3D2D2" d="M15.3 31.2h3.4c0-.1.1-.2.1-.4h-3.6c0 .1 0 .2.1.4"/></g><g opacity=".5"><defs><path id="s" d="M15.5 26h3v.4h-3z"/></defs><clipPath id="t"><use xlink:href="#s" overflow="visible"/></clipPath><path clip-path="url(#t)" fill="#D3D2D2" d="M15.5 26.4h3c0-.1-.1-.3-.2-.4h-2.7c-.1.1-.1.2-.1.4"/></g><g opacity=".5"><defs><path id="u" d="M15.1 29.4h3.8v.7h-3.8z"/></defs><clipPath id="v"><use xlink:href="#u" overflow="visible"/></clipPath><path clip-path="url(#v)" fill="#D3D2D2" d="M15.1 30.1h3.8v-.7h-3.8v.7"/></g><g opacity=".5"><defs><path id="w" d="M15.1 28h3.8v.7h-3.8z"/></defs><clipPath id="x"><use xlink:href="#w" overflow="visible"/></clipPath><path clip-path="url(#x)" fill="#D3D2D2" d="M15.1 28.7h3.8V28h-3.7c-.1.3-.1.5-.1.7"/></g><g opacity=".5"><defs><path id="y" d="M16.2 33.1h1.6v.4h-1.6z"/></defs><clipPath id="z"><use xlink:href="#y" overflow="visible"/></clipPath><path clip-path="url(#z)" fill="#D3D2D2" d="M17 33.5c.3 0 .6-.1.8-.4h-1.6c.2.3.5.4.8.4"/></g><g opacity=".5"><defs><path id="A" d="M15.2 27h3.5v.4h-3.5z"/></defs><clipPath id="B"><use xlink:href="#A" overflow="visible"/></clipPath><path clip-path="url(#B)" fill="#D3D2D2" d="M15.2 27.3h3.5c0-.1-.1-.3-.1-.4h-3.4c.1.2 0 .3 0 .4"/></g><g opacity=".5"><defs><path id="C" d="M15.8 25.2h2.3v.3h-2.3z"/></defs><clipPath id="D"><use xlink:href="#C" overflow="visible"/></clipPath><path clip-path="url(#D)" fill="#D3D2D2" d="M16 25.2c-.1.1-.1.2-.2.3h2.3c-.1-.1-.1-.2-.2-.3H16z"/></g><g opacity=".5"><defs><path id="E" d="M15.8 32.6h2.3v.3h-2.3z"/></defs><clipPath id="F"><use xlink:href="#E" overflow="visible"/></clipPath><path clip-path="url(#F)" fill="#D3D2D2" d="M16 32.9h2c.1-.1.1-.2.2-.3h-2.3c0 .1 0 .2.1.3"/></g><g opacity=".5"><defs><path id="G" d="M16.2 24.7h1.5v.3h-1.5z"/></defs><clipPath id="H"><use xlink:href="#G" overflow="visible"/></clipPath><path clip-path="url(#H)" fill="#D3D2D2" d="M17 24.7c-.3 0-.5.1-.7.3h1.5c-.3-.2-.6-.3-.8-.3"/></g><g opacity=".5"><defs><path id="I" d="M15.4 31.7h3.1v.4h-3.1z"/></defs><clipPath id="J"><use xlink:href="#I" overflow="visible"/></clipPath><path clip-path="url(#J)" fill="#D3D2D2" d="M15.6 32.2h2.8c.1-.1.1-.3.2-.4h-3.1c0 .1 0 .2.1.4"/></g><g opacity=".5"><clipPath id="L"><use xlink:href="#K" overflow="visible"/></clipPath><path clip-path="url(#L)" fill="#444142" d="M15.1 28.7V29.1s-.1-.2 0-.4"/></g><g opacity=".5"><clipPath id="N"><use xlink:href="#M" overflow="visible"/></clipPath><path clip-path="url(#N)" fill="#444142" d="M18.9 29.4v-.7.7"/></g><g opacity=".5"><defs><path id="O" d="M15 28.7h3.9v.7H15z"/></defs><clipPath id="P"><use xlink:href="#O" overflow="visible"/></clipPath><path clip-path="url(#P)" fill="#444142" d="M15 29.1v.3h3.8v-.3-.3H15v.3"/></g><g opacity=".5"><defs><path id="Q" d="M15.1 27.3h3.7v.7h-3.7z"/></defs><clipPath id="R"><use xlink:href="#Q" overflow="visible"/></clipPath><path clip-path="url(#R)" fill="#444142" d="M15.1 28h3.7c0-.2-.1-.5-.1-.7h-3.5c0 .3-.1.5-.1.7"/></g><g opacity=".5"><defs><path id="S" d="M15.3 26.4h3.4v.6h-3.4z"/></defs><clipPath id="T"><use xlink:href="#S" overflow="visible"/></clipPath><path clip-path="url(#T)" fill="#444142" d="M15.3 27h3.4c0-.2-.1-.4-.2-.6h-3c-.1.2-.2.4-.2.6"/></g><g opacity=".5"><defs><path id="U" d="M15.6 25.5h2.7v.5h-2.7z"/></defs><clipPath id="V"><use xlink:href="#U" overflow="visible"/></clipPath><path clip-path="url(#V)" fill="#444142" d="M15.6 26h2.7c-.1-.2-.2-.3-.2-.5h-2.3c0 .1-.1.3-.2.5"/></g><g opacity=".5"><defs><path id="W" d="M16 25h1.9v.2H16z"/></defs><clipPath id="X"><use xlink:href="#W" overflow="visible"/></clipPath><path clip-path="url(#X)" fill="#444142" d="M17.7 25h-1.5l-.2.2h1.9l-.2-.2"/></g><g opacity=".5"><defs><path id="Y" d="M15.1 30.1h3.8v.7h-3.8z"/></defs><clipPath id="Z"><use xlink:href="#Y" overflow="visible"/></clipPath><path clip-path="url(#Z)" fill="#444142" d="M15.2 30.8h3.6c0-.2.1-.5.1-.7h-3.8c0 .2.1.5.1.7"/></g><g opacity=".5"><defs><path id="aa" d="M15.3 31.2h3.4v.6h-3.4z"/></defs><clipPath id="ab"><use xlink:href="#aa" overflow="visible"/></clipPath><path clip-path="url(#ab)" fill="#444142" d="M15.4 31.7h3.1c.1-.2.1-.4.2-.6h-3.4c0 .3.1.5.1.6"/></g><g opacity=".5"><defs><path id="ac" d="M15.6 32.2h2.8v.5h-2.8z"/></defs><clipPath id="ad"><use xlink:href="#ac" overflow="visible"/></clipPath><path clip-path="url(#ad)" fill="#444142" d="M15.8 32.6h2.3c.1-.1.2-.3.2-.5h-2.8c.2.2.2.4.3.5"/></g><g opacity=".5"><defs><path id="ae" d="M16 32.9h2v.2h-2z"/></defs><clipPath id="af"><use xlink:href="#ae" overflow="visible"/></clipPath><path clip-path="url(#af)" fill="#444142" d="M16.2 33.1h1.6l.2-.2h-2c0 .1.1.1.2.2"/></g><g opacity=".5"><defs><path id="ag" d="M15 24.8h3.9v8.5H15z"/></defs><clipPath id="ah"><use xlink:href="#ag" overflow="visible"/></clipPath><path clip-path="url(#ah)" fill="#D3D2D2" d="M15.3 31.1h3.4c0-.1.1-.2.1-.4h-3.6c0 .1 0 .3.1.4M15.4 26.5h3c0-.1-.1-.3-.2-.4h-2.7c0 .1 0 .2-.1.4M15.1 30.1h3.8v-.6H15c.1.1.1.3.1.6M15 28.8h3.8v-.7h-3.7c0 .2 0 .4-.1.7M17 33.3c.3 0 .6-.1.8-.4h-1.6c.2.3.5.4.8.4M15.2 27.4h3.5c0-.1-.1-.2-.1-.4h-3.4v.4M16 25.4c-.1.1-.1.2-.2.3h2.3c-.1-.1-.1-.2-.2-.3H16zM16 32.7h2c.1-.1.1-.2.2-.3h-2.3c0 .2 0 .3.1.3M17 24.8c-.3 0-.5.1-.7.3h1.5c-.3-.1-.6-.3-.8-.3M15.6 32h2.8c.1-.1.1-.3.2-.4h-3.1c0 .2 0 .3.1.4"/><path clip-path="url(#ah)" fill="#444142" d="M18.9 29.4v-.7.7M15 29.1v.3h3.8v-.3-.3H15v.3M15.1 28.1h3.7c0-.2-.1-.5-.1-.7h-3.5c0 .2-.1.4-.1.7M15.3 27h3.4c0-.2-.1-.4-.2-.6h-3c-.1.3-.2.4-.2.6M15.6 26.1h2.7c-.1-.2-.2-.3-.2-.4h-2.3c0 .1-.1.2-.2.4M17.7 25.2h-1.5l-.2.2h1.9c-.1-.1-.1-.2-.2-.2M15.2 30.7h3.6c0-.2.1-.4.1-.7h-3.8c0 .3 0 .5.1.7M15.4 31.6h3.1c.1-.2.1-.4.2-.6h-3.4c0 .3.1.5.1.6M15.8 32.5h2.3c.1-.1.2-.3.2-.4h-2.8c.1.1.2.2.3.4M16.2 33h1.6l.2-.2h-2l.2.2"/></g><path fill="none" stroke="#231F20" stroke-width=".598" stroke-miterlimit="10" d="M17 18.9v4.4M5.5 39.1s3-1.3 11.4-1.3v-2.9M28.4 39.1s-3-1.3-11.4-1.3v-2.9"/><g><defs><path id="ai" d="M2.3 18.9h29.4v53.6H2.3z"/></defs><clipPath id="aj"><use xlink:href="#ai" overflow="visible"/></clipPath><path clip-path="url(#aj)" fill="#444142" d="M14.5 18.9c-1.4.1-2.8.2-4.1.8-1.4.5-2.4 1.6-2.9 2.9-.6 1.3-.7 2.7-.7 4.1-.1 1.4-.1 2.8-.1 4.2 0 .7-.1 1.4-.1 2.1-.1.7 0 1.4-.2 2.1-.2 1.4-.4 2.8-.8 4.2l-2 8.2c-.6 2.7-1 5.5-1.1 8.3-.1 2.8.2 5.6 1 8.3.4 1.3 1 2.6 1.9 3.7l1.5 1.5c.6.4 1.1.9 1.7 1.2 2.5 1.4 5.3 1.7 8.1 1.7 1.4 0 2.8-.1 4.2-.3.7-.1 1.4-.3 2-.5.3-.1.7-.2 1-.4.3-.1.7-.2 1-.4l.9-.5c.3-.2.6-.4.8-.6.6-.4 1-.9 1.5-1.4.9-1 1.6-2.3 2-3.6.9-2.6 1.2-5.5 1.2-8.3 0-2.8-.3-5.6-1-8.3l-2-8.2c-.7-2.7-1-5.6-1.1-8.4 0-1.4 0-2.8-.1-4.2 0-1.4 0-2.8-.5-4.1-.2-.6-.6-1.3-1-1.8-.5-.5-1-1-1.6-1.3-1.2-.7-2.7-.9-4.1-1 1.4.1 2.8.2 4.1.9.6.3 1.2.7 1.7 1.3.5.5.8 1.2 1.1 1.8.5 1.4.5 2.8.6 4.2.1 1.4.1 2.8.1 4.2.1 2.8.4 5.6 1.2 8.3l2 8.2c.7 2.7 1 5.6 1 8.4 0 2.8-.3 5.7-1.2 8.4-.5 1.3-1.1 2.7-2.1 3.7-.5.5-1 1.1-1.6 1.4l-.9.6-.9.6c-.3.2-.6.3-1 .4-.3.1-.7.3-1 .4-.7.2-1.4.4-2.1.5-1.4.3-2.8.3-4.2.3-2.8 0-5.7-.4-8.2-1.8-.6-.3-1.2-.8-1.8-1.2-.6-.4-1-1-1.5-1.5-.9-1.1-1.5-2.4-1.9-3.8-.9-2.7-1.1-5.6-1.1-8.4 0-2.8.4-5.7 1.1-8.4l1.9-8.2c.4-1.4.6-2.8.8-4.1.1-.7.1-1.4.2-2.1 0-.7.1-1.4.1-2.1 0-1.4.1-2.8.1-4.2 0-1.4.1-2.9.7-4.2.6-1.3 1.7-2.4 3-2.9 1.5-.6 2.9-.7 4.4-.7z"/></g></svg>