<svg xmlns="http://www.w3.org/2000/svg" xmlns:xlink="http://www.w3.org/1999/xlink" width="52.1" height="67.2" viewBox="0 0 52.1 67.2"><path fill="#DFAE57" d="M22.5 11.2h7.1v4.5h-7.1z"/><path fill="#F8F8F8" d="M47.4 41.2c0 11.8-9.6 21.4-21.4 21.4-11.8 0-21.3-9.6-21.3-21.4 0-11.8 9.6-21.4 21.4-21.4 11.8 0 21.3 9.6 21.3 21.4"/><circle fill="none" stroke="#929493" stroke-width=".484" stroke-miterlimit="10" cx="26.1" cy="41.2" r="5.5"/><circle fill="none" stroke="#929493" stroke-width=".484" stroke-miterlimit="10" cx="26.1" cy="41.2" r="14.2"/><path fill="#BDBCBC" d="M26.1 23.6c11.1 0 18.9 8.5 20 19.4h.1v-.2C46 31 37.8 21.4 26.1 21.4c-11.8 0-20 9.5-20.2 21.4v.2H6c1.2-10.9 9-19.4 20.1-19.4"/><path fill="#E9E9E9" d="M8 42.8v-.4c0-9.1 9-16.5 18-16.5s18.4 7.4 18.4 16.5V43h1.7c-1.2-10.9-8.9-19.4-20-19.4S7.2 32.1 6 43h2v-.2"/><g opacity=".2"><defs><path id="a" d="M6.3 43h40.3v21.6H6.3z"/></defs><clipPath id="b"><use xlink:href="#a" overflow="visible"/></clipPath><path clip-path="url(#b)" fill="#BDBCBC" d="M26.5 62.4c-11.1 0-18.9-8.5-20-19.4h-.2v.2c.2 11.8 8.4 21.4 20.2 21.4 11.8 0 20-9.5 20.2-21.4V43h-.1c-1.2 10.9-9 19.4-20.1 19.4"/></g><g opacity=".5"><defs><path id="c" d="M6.5 43h40.1v19.4H6.5z"/></defs><clipPath id="d"><use xlink:href="#c" overflow="visible"/></clipPath><path clip-path="url(#d)" fill="#E9E9E9" d="M44.5 43.2v.4c0 9.1-9 16.5-18 16.5S8.1 52.7 8.1 43.6v-.4-.2H6.5c1.2 10.9 8.9 19.4 20 19.4s18.9-8.5 20-19.4h-2v.2"/></g><defs><path id="e" d="M22.5 14.5h7.1v1.7h-7.1z"/></defs><clipPath id="f"><use xlink:href="#e" overflow="visible"/></clipPath><path clip-path="url(#f)" fill="#DFAE57" d="M22.5 14.8v1.5h7.1v-1.5c-1.2-.2-2.3-.2-3.5-.2-1.3-.1-2.4 0-3.6.2"/><path fill="#DFAE57" d="M26.1 15.1C11.7 15.1 0 26.8 0 41.2c0 14.4 11.7 26.1 26.1 26.1 14.4 0 26.1-11.7 26.1-26.1-.1-14.4-11.8-26.1-26.1-26.1m0 45.9c-11 0-19.8-8.9-19.8-19.8s8.9-19.8 19.8-19.8 19.8 8.9 19.8 19.8C45.8 52.1 37 61 26.1 61"/><path fill="#F5E7CD" d="M10.8 53.8l-4.4 4.4c2.9 3.3 6.6 5.8 10.9 7.3l5.1-5.1c-4.7-.8-8.7-3.2-11.6-6.6M45.3 37.4l5.1-5.1c-1.5-4.2-4-7.9-7.3-10.9l-4.4 4.4c3.4 3 5.8 7 6.6 11.6M6.6 45.7l-5 5c.5 1.3 1.1 2.5 1.8 3.7L8 49.8c-.5-1.3-1-2.7-1.4-4.1M34.6 23.2l4.6-4.6c-1.2-.7-2.4-1.3-3.7-1.8l-5 5c1.5.3 2.8.8 4.1 1.4M9.1 51.5L4.6 56c.2.2.3.4.5.7l4.5-4.5c-.2-.3-.4-.5-.5-.7M37 24.7l4.5-4.5c-.2-.2-.4-.3-.7-.5l-4.5 4.5c.3.2.5.3.7.5"/><path fill="#252A26" d="M27.5 41.2l-1.4 16.1-1.5-16.1M24.6 41.2l1.5-16.1 1.4 16.1"/><path fill="#252A26" d="M26.1 42.7L9.9 41.2l16.2-1.5M26.1 39.7l16.1 1.5-16.1 1.5"/><path fill="#252A26" d="M26.7 41.9l-9.4 8 8.1-9.4"/><path fill="#252A26" d="M25.4 40.5l9.4-8-8.1 9.4"/><path fill="#252A26" d="M25.4 41.9l-8.1-9.4 9.4 8M26.7 40.5l8.1 9.4-9.4-8"/><path fill="#A82526" d="M26.1 41.2l5.2-16.1-6.6 15.6"/><path fill="#C26767" d="M26.1 41.2l5.2-16.1-3.9 16.5"/><path fill="#252A26" d="M26.1 41.2l-5.3 16.1 6.6-15.7"/><path fill="#676A67" d="M26.1 41.2l-5.3 16.1 3.9-16.6"/><path fill="#DFAE57" d="M27.9 41.8c-.3 1-1.4 1.6-2.5 1.2-1-.3-1.6-1.4-1.2-2.5.3-1 1.4-1.6 2.5-1.2 1 .4 1.5 1.5 1.2 2.5"/><defs><path id="g" d="M24.9 40.1h2.2v2.2h-2.2z"/></defs><clipPath id="h"><use xlink:href="#g" overflow="visible"/></clipPath><path clip-path="url(#h)" fill="#ECCE9A" d="M27.1 41.5c-.2.6-.8.9-1.4.7-.6-.2-.9-.8-.7-1.4.2-.6.8-.9 1.4-.7.6.2.9.9.7 1.4"/><path fill="#ECCE9A" d="M26.9 41.5c-.2.5-.7.8-1.2.6-.5-.2-.8-.7-.6-1.2.2-.5.7-.8 1.2-.6.5.2.8.7.6 1.2"/><defs><path id="i" d="M25.6 40.6h1v.8h-1z"/></defs><clipPath id="j"><use xlink:href="#i" overflow="visible"/></clipPath><path clip-path="url(#j)" fill="#ECCE9A" d="M25.6 41c0-.1.1-.3.2-.4.1-.1.3-.1.5-.1.1 0 .3.2.3.3.1.1 0 .3-.1.4 0-.1-.1-.2-.1-.3l-.2-.2h-.3c-.1.2-.2.2-.3.3"/><g><defs><path id="k" d="M24.7 39.6h2.9v2h-2.9z"/></defs><clipPath id="l"><use xlink:href="#k" overflow="visible"/></clipPath><path clip-path="url(#l)" fill="#ECCE9A" d="M24.7 40.7c.1-.4.3-.7.7-.9.4-.2.8-.2 1.2-.1.4.1.7.4.9.8.2.4.2.8 0 1.2.1-.8-.3-1.5-1-1.7-.7-.3-1.5.1-1.8.7"/></g><circle fill="none" stroke="#DFAE57" stroke-width="2.902" stroke-miterlimit="10" cx="26.1" cy="6.3" r="4.9"/><g><defs><path id="m" d="M5.1 20.2H47v21H5.1z"/></defs><clipPath id="n"><use xlink:href="#m" overflow="visible"/></clipPath><path clip-path="url(#n)" fill="none" stroke="#DFAE57" stroke-width="1.193" stroke-miterlimit="10" d="M5.7 41.2c0-11.3 9.1-20.4 20.4-20.4 11.3 0 20.4 9.1 20.4 20.4"/></g><g><defs><path id="o" d="M5.1 41.2H47v21H5.1z"/></defs><clipPath id="p"><use xlink:href="#o" overflow="visible"/></clipPath><path clip-path="url(#p)" fill="none" stroke="#DFAE57" stroke-width="1.193" stroke-miterlimit="10" d="M46.4 41.2c0 11.3-9.1 20.4-20.4 20.4-11.3 0-20.4-9.1-20.4-20.4"/></g><g><defs><path id="q" d="M0 41.2h52v26H0z"/></defs><clipPath id="r"><use xlink:href="#q" overflow="visible"/></clipPath><path clip-path="url(#r)" fill="none" stroke="#DFAE57" stroke-width=".493" stroke-miterlimit="10" d="M51.8 41.2C51.8 55.4 40.3 67 26.1 67 11.8 67 .3 55.4.3 41.2"/></g><g><defs><path id="s" d="M0 15.2h52v26H0z"/></defs><clipPath id="t"><use xlink:href="#s" overflow="visible"/></clipPath><path clip-path="url(#t)" fill="none" stroke="#DFAE57" stroke-width=".493" stroke-miterlimit="10" d="M.3 41.2C.3 27 11.8 15.4 26.1 15.4c14.2 0 25.8 11.5 25.8 25.8"/></g></svg>