<svg xmlns="http://www.w3.org/2000/svg" xmlns:xlink="http://www.w3.org/1999/xlink" width="28.8" height="67.6" viewBox="0 0 28.8 67.6"><path fill="#473F65" d="M27.4 4.3C26.5 1.1 25 .5 21.6.2 18.1 0 14.7.1 14.4 0c-.3.1-3.7 0-7.2.3-3.5.2-4.9.8-5.9 4C.4 7.6 0 26.7 0 32.4s1.6 26.3 2 30.3c.4 3.9 2.7 4 4.7 4.5 2.1.5 7.6.4 7.6.4s5.6.1 7.6-.4c2.1-.5 4.3-.6 4.7-4.5.4-3.9 2-24.5 2-30.3s-.2-24.8-1.2-28.1"/><g opacity=".3"><defs><path id="a" d="M.1 0h28.8v67.6H.1z"/></defs><clipPath id="b"><use xlink:href="#a" overflow="visible"/></clipPath><g clip-path="url(#b)"><defs><path id="c" d="M27.5 4.3C26.6 1.1 25.1.5 21.7.2c-3.5-.2-7-.1-7.2-.2-.3 0-3.7-.1-7.2.2-3.5.3-4.9.9-5.9 4.1C.5 7.6.1 26.7.1 32.4s1.6 26.3 2 30.3c.4 3.9 2.7 4 4.7 4.5 2.1.5 7.6.4 7.6.4s5.6.1 7.6-.4c2.1-.5 4.3-.6 4.7-4.5.4-3.9 2-24.5 2-30.3s-.3-24.8-1.2-28.1"/></defs><clipPath id="d"><use xlink:href="#c" overflow="visible"/></clipPath><path clip-path="url(#d)" fill="#386B95" d="M27.5 4.3C26.6 1.1 25.1.5 21.7.2c-3.5-.2-7-.1-7.2-.2-.3 0-3.7 0-7.2.2-3.5.3-4.9.9-5.9 4.1C.5 7.6.1 26.7.1 32.4s1.6 26.3 2 30.3c.4 3.9 2.7 4 4.7 4.5 2.1.5 7.6.4 7.6.4s5.6.1 7.6-.4c2.1-.5 4.3-.6 4.7-4.5.4-3.9 2-24.5 2-30.3s-.3-24.8-1.2-28.1"/><path clip-path="url(#d)" fill="#3C6688" d="M25.3 4.3C24.4 1.1 23.1.5 19.9.2 16.7 0 13.6.1 13.3 0 13 0 9.9 0 6.7.2c-3.2.3-4.5.9-5.4 4.1S.1 26.7.1 32.4 1.5 58.7 2 62.7c.4 3.9 2.5 4 4.4 4.5 1.9.5 7 .4 7 .4s5.1.1 7-.4c1.9-.5 4-.6 4.4-4.5.4-3.9 1.9-24.5 1.9-30.3s-.5-24.8-1.4-28.1"/><path clip-path="url(#d)" fill="#3F617B" d="M23.1 4.3c-.8-3.2-2-3.8-4.9-4.1-2.9-.3-5.8-.2-6-.2-.2 0-3.1 0-6 .2-3 .3-4.2.9-5 4.1C.4 7.6.1 26.7.1 32.4s1.3 26.3 1.7 30.3c.4 3.9 2.3 4 4 4.5 1.7.5 6.4.4 6.4.4s4.7.1 6.4-.4c1.7-.5 3.6-.6 4-4.5.4-3.9 1.7-24.5 1.7-30.3s-.4-24.8-1.2-28.1"/><path clip-path="url(#d)" fill="#435C6E" d="M21 4.3C20.3 1.1 19.2.5 16.5.2 13.9 0 11.3.1 11 0c-.2 0-2.8 0-5.5.2-2.6.3-3.7.9-4.4 4.1-.7 3.2-1 22.3-1 28.1s1.2 26.3 1.5 30.3c.3 3.9 2 4 3.6 4.5s5.8.4 5.8.4 4.2.1 5.8-.4c1.6-.5 3.3-.6 3.6-4.5.3-3.9 1.5-24.5 1.5-30.3S21.7 7.6 21 4.3"/><path clip-path="url(#d)" fill="#465761" d="M18.8 4.3c-.6-3.2-1.6-3.8-4-4.1C12.4 0 10.1.1 9.9 0 9.7.1 7.4 0 5 .3c-2.4.2-3.3.8-4 4S.1 26.7.1 32.4s1.1 26.3 1.4 30.3c.3 3.9 1.8 4 3.2 4.5 1.4.5 5.2.4 5.2.4s3.8.1 5.2-.4c1.4-.5 2.9-.6 3.2-4.5.3-3.9 1.4-24.5 1.4-30.3s-.3-24.8-.9-28.1"/><path clip-path="url(#d)" fill="#3D4951" d="M14.7 4.3C14.2 1.1 13.4.5 11.6.2 9.7 0 7.9.1 7.7 0c-.1 0-2 0-3.8.2-1.8.3-2.6.9-3.1 4.1S.1 26.7.1 32.4s.8 26.3 1.1 30.3c.2 3.9 1.4 4 2.5 4.5s4 .4 4 .4 3 .1 4-.4c1.1-.5 2.3-.6 2.5-4.5.2-3.9 1.1-24.5 1.1-30.3s-.1-24.8-.6-28.1"/><path clip-path="url(#d)" fill="#353B40" d="M10.5 4.3C10.1 1.1 9.6.5 8.3.2S5.7.1 5.6 0c-.1 0-1.4 0-2.7.2S1 1.1.6 4.3.1 26.7.1 32.4s.6 26.3.8 30.3c.2 3.9 1 4 1.8 4.5s2.9.4 2.9.4 2.1.1 2.9-.4c.8-.5 1.6-.6 1.8-4.5.2-3.9.8-24.5.8-30.3s-.2-24.8-.6-28.1"/><path clip-path="url(#d)" fill="#2C2D30" d="M6.4 4.3C6.2 1.1 5.8.5 5 .3 4.2 0 3.4.1 3.4 0c-.1 0-.9 0-1.6.2C.9.5.6 1.1.4 4.3S.1 26.7.1 32.4s.4 26.3.5 30.3c.1 3.9.6 4 1.1 4.5.5.5 1.7.4 1.7.4s1.3.1 1.7-.4c.5-.5 1-.6 1.1-4.5.1-3.9.5-24.5.5-30.3S6.6 7.6 6.4 4.3"/><path clip-path="url(#d)" fill="#231F20" d="M2.2 4.3c0-3.2-.2-3.8-.4-4S1.2.1 1.2 0c0 0-.3 0-.6.2s-.3.9-.4 4.1S.1 26.7.1 32.4s.1 26.3.2 30.3c0 3.9.2 4 .4 4.5s.6.4.6.4.4.1.6-.4c.2-.5.3-.6.4-4.5 0-3.9.2-24.5.2-30.3S2.3 7.6 2.2 4.3"/></g></g><g opacity=".3"><defs><path id="e" d="M21.1.5h7.3v66.6h-7.3z"/></defs><clipPath id="f"><use xlink:href="#e" overflow="visible"/></clipPath><path clip-path="url(#f)" fill="#D1D5D7" d="M21.5 67c1.4-.4 3-.8 3.7-2.1.7-1.2.6-2.8.7-4.3.2-3 .3-6.1.4-9.1.3-6.1.7-12.2.8-18.2.1-6-.1-12.1-.2-18.2 0-3-.1-6.1-.4-9.1-.1-.7-.2-1.4-.4-2.1-.2-.7-.5-1.3-1-1.8s-1.1-.8-1.9-1C22.5.9 21.7.8 21 .6V.5c.8.1 1.5.1 2.3.3.7.2 1.5.5 2.1 1 .6.5 1 1.2 1.2 1.9.4.7.6 1.5.6 2.3.4 3 .5 6.1.7 9.1.3 6.1.4 12.2.4 18.2-.2 6.1-.7 12.2-1.1 18.2-.2 3-.5 6.1-.8 9.1-.2 1.5-.1 3.1-1 4.4-.4.7-1.1 1.2-1.8 1.4-.7.3-1.5.4-2.2.6h.1z"/></g><g opacity=".3"><defs><path id="g" d="M.3.6h7.5v66.5H.3z"/></defs><clipPath id="h"><use xlink:href="#g" overflow="visible"/></clipPath><path clip-path="url(#h)" fill="#D1D5D7" d="M7.4 67c-.7-.2-1.5-.3-2.2-.5-.7-.3-1.4-.7-1.8-1.4-.9-1.4-.9-3-1.1-4.5-.3-3-.6-6.1-.8-9.1C1 45.4.5 39.4.3 33.3c0-6.1.2-12.2.5-18.3.2-3 .4-6 .8-9.1.1-.8.3-1.5.6-2.2.3-.7.7-1.4 1.3-1.9.6-.5 1.3-.8 2.1-1C6.4.6 7.1.6 7.9.5 6.4.8 4.7.9 3.6 1.9c-.6.5-1 1.2-1.2 1.9-.3.7-.5 1.4-.6 2.2-.4 3-.5 6-.6 9.1C1 21.2.8 27.3.8 33.3c.2 6.1.6 12.1 1.1 18.2.2 3 .5 6.1.7 9.1.2 1.5.1 3.1 1 4.4.4.6 1 1.1 1.7 1.4.6.3 1.4.4 2.1.6z"/></g><path fill="#636B62" d="M24.1 31.6c0 .5-.4.9-.9.9H5.6c-.5 0-.9-.4-.9-.9V19.4c0-.5.4-.9.9-.9h17.6c.5 0 .9.4.9.9v12.2z"/><path fill="#828B82" d="M23.9 31.5c0 .5-.4.8-.8.8H5.7c-.5 0-.8-.4-.8-.8V19.6c0-.5.4-.8.8-.8h17.4c.5 0 .8.4.8.8v11.9z"/><path fill="#A1AAA1" d="M23.8 31.3c0 .5-.4.8-.8.8H5.8c-.5 0-.8-.4-.8-.8V19.7c0-.5.4-.8.8-.8h17.1c.5 0 .8.4.8.8v11.6z"/><path fill="#C0CAC1" d="M23.6 31.2c0 .4-.4.8-.8.8H6c-.5 0-.8-.4-.8-.8V19.8c-.1-.4.3-.8.8-.8h16.8c.5 0 .8.4.8.8v11.4z"/><path fill="#DFE9E0" d="M23.5 31.1c0 .4-.4.8-.8.8H6.1c-.4 0-.8-.4-.8-.8V20c0-.4.4-.8.8-.8h16.6c.4 0 .8.4.8.8v11.1z"/><path fill="none" stroke="#231F20" stroke-width=".204" stroke-miterlimit="10" d="M24 31.6c0 .5-.4.9-.9.9H5.5c-.5 0-.9-.4-.9-.9V19.4c0-.5.4-.9.9-.9h17.6c.5 0 .9.4.9.9v12.2z"/><g opacity=".3"><defs><path id="i" d="M4.1 18.6h1.2v13.9H4.1z"/></defs><clipPath id="j"><use xlink:href="#i" overflow="visible"/></clipPath><path clip-path="url(#j)" fill="#D3D2D2" d="M5.3 32.5c-.3 0-.7-.1-.8-.4-.1-.1-.1-.3-.2-.5v-.5l-.1-1.9c-.1-1.2-.1-2.5-.1-3.7 0-1.2 0-2.5.1-3.7l.1-1.9c0-.3 0-.6.2-1 .2-.3.5-.4.8-.4-.3 0-.6.2-.7.5-.1.2 0 .6 0 .9l.1 1.9c.1 1.2.1 2.5.1 3.7 0 1.2 0 2.5-.1 3.7l-.1 1.9c0 .3-.1.6 0 .9.1.2.4.4.7.5"/></g><path fill="#F6F5F7" d="M27.6 21.4c0-4.1-1.2-14.2-1.8-17s-3.1-3.1-5.4-3.3C18.1.9 14.3 1 14.3 1s-3.8 0-6.1.2-4.8.4-5.3 3.3c-.6 2.8-1.8 12.9-1.8 17S.2 43.6 14.3 44.6c14.1-1 13.3-19.1 13.3-23.2M14.3 39.8C1.9 38.9 2.7 23.1 2.7 19.5S3.8 7.1 4.3 4.7C4.7 2.2 7 2 9 1.8c2-.2 5.3-.2 5.3-.2s3.3 0 5.3.2 4.2.4 4.7 2.9c.6 2.4 1.7 11.2 1.7 14.8s.8 19.4-11.7 20.3"/><defs><path id="k" d="M1.1.9h26.6v43.9H1.1z"/></defs><clipPath id="l"><use xlink:href="#k" overflow="visible"/></clipPath><path clip-path="url(#l)" fill="#7C7F7D" d="M27.6 21.4c-.1-1.9-.1-3.7-.4-5.6-.2-1.9-.4-3.7-.6-5.6l-.4-2.8-.4-2.8c-.2-.9-.5-1.8-1.3-2.3-.7-.5-1.7-.8-2.6-.9-.9-.1-1.9-.1-2.8-.2-.9 0-1.9-.1-2.8-.1-1.9 0-3.7-.1-5.6 0-1.9.1-3.8 0-5.5.7-.9.3-1.6 1-1.9 1.8-.4.9-.5 1.9-.6 2.8-.4 1.9-.5 3.7-.8 5.6-.2 1.9-.4 3.7-.5 5.6-.1 1.9-.2 3.7-.2 5.6 0 1.9.1 3.7.3 5.6.2 1.9.6 3.7 1.1 5.5.5 1.8 1.3 3.5 2.4 5 1.1 1.5 2.4 2.8 4.1 3.7 1.6.9 3.5 1.4 5.3 1.5.6-.1 1.2-.1 1.8-.3.6-.1 1.2-.3 1.8-.5.6-.2 1.1-.5 1.7-.8.5-.3 1.1-.6 1.5-1 .3-.2.5-.4.7-.6.2-.2.5-.4.7-.6.4-.4.8-.9 1.2-1.4.4-.5.7-1 1-1.6.3-.5.6-1.1.8-1.7.9-2.3 1.5-4.7 1.8-7.2.2-2.4.2-4.9.2-7.4m0 0c0 2.5 0 5-.2 7.5-.3 2.5-.8 4.9-1.7 7.3-.2.6-.5 1.1-.8 1.7-.3.6-.6 1.1-1 1.6s-.7 1-1.2 1.5c-.2.2-.4.5-.7.7-.2.2-.5.4-.7.6-.5.4-1 .7-1.6 1-.6.3-1.1.5-1.7.8-.6.2-1.2.4-1.8.5-.6.1-1.2.2-1.9.3-1.9-.1-3.8-.6-5.4-1.5-1.7-.9-3.1-2.2-4.2-3.8-1.1-1.6-1.8-3.3-2.4-5.1-.5-1.8-.9-3.7-1.1-5.5-.2-1.9-.3-3.7-.3-5.6 0-1.9.1-3.7.2-5.6.2-1.9.3-3.7.6-5.6L2 9.4c.1-.9.2-1.9.4-2.8.2-.9.2-1.9.6-2.8.4-.9 1.1-1.6 2-1.9 1.9-.9 3.8-.8 5.7-.9 1.9-.1 3.7-.1 5.6-.1.9 0 1.9.1 2.8.1h1.4c.5 0 .9.1 1.4.2.9.2 1.9.4 2.7 1l.5.5c.2.2.3.4.4.6.2.2.2.4.3.7.1.2.2.4.2.6l.4 2.8.3 2.8c.2 1.9.4 3.7.6 5.6.2 1.9.2 3.8.3 5.6"/><path clip-path="url(#l)" fill="#7C7F7D" d="M14.4 39.8s-.4 0-1.2-.1c-.8-.1-1.9-.4-3.2-1-1.3-.6-2.7-1.7-3.9-3.3-1.2-1.6-2.1-3.8-2.7-6.2-.6-2.4-.8-5.1-.8-7.9 0-2.8.2-5.8.6-8.9.1-1.5.4-3.1.6-4.7 0-.7.2-1.5.3-2.3.1-.8.3-1.6.8-2.3.6-.6 1.3-.9 2.1-1.1.8-.2 1.6-.3 2.4-.3 1.6-.1 3.3-.2 4.9-.2 1.6 0 3.3 0 4.9.1.8 0 1.6.1 2.4.3.8.2 1.6.5 2.2 1.2.5.7.7 1.5.8 2.3.2.8.4 1.6.5 2.4.2 1.6.4 3.1.6 4.7.3 3.1.5 6 .5 8.9 0 2.8-.2 5.5-.8 7.9-.6 2.4-1.5 4.5-2.7 6.2-1.2 1.6-2.6 2.7-3.9 3.3-1.3.6-2.4.8-3.2 1h-1.2m0 0s.4-.1 1.2-.1c.7-.2 1.9-.4 3.2-1 1.3-.6 2.7-1.7 3.9-3.3 1.2-1.6 2-3.7 2.6-6.1.5-2.4.7-5.1.8-7.9 0-2.8-.2-5.8-.5-8.8-.4-1.6-.6-3.2-.8-4.8-.1-.8-.2-1.6-.4-2.4-.1-.8-.3-1.6-.7-2.2-.5-.6-1.2-.9-2-1.1-.8-.2-1.6-.3-2.4-.3-1.6-.1-3.3-.2-4.9-.2-1.6 0-3.3.1-4.9.1-.8 0-1.6.1-2.4.3-.8.3-1.6.6-2.1 1.2-.5.7-.7 1.5-.8 2.3-.1.8-.2 1.5-.3 2.3-.2 1.6-.4 3.2-.6 4.7-.3 3.1-.5 6-.5 8.8 0 2.8.2 5.5.8 7.9.5 2.4 1.4 4.5 2.6 6.1 1.2 1.6 2.6 2.7 3.9 3.3 1.3.6 2.4.9 3.2 1 .7.2 1.1.2 1.1.2"/><path fill="#E9EAE9" d="M14.3 42.3c-13.2-1-12.4-18-12.4-21.8S3 7.2 3.5 4.5c.2-.5.3-.9.5-1.2l-.3-.6c-.4.5-.7 1-.8 1.8-.6 2.8-1.8 12.9-1.8 17S.2 43.6 14.3 44.6c4.5-.3 7.4-2.4 9.4-5.1l-.9-1.6c-1.8 2.3-4.5 4.1-8.5 4.4"/><path fill="#F2F2F2" d="M27.6 21.4c0-4.1-1.2-14.2-1.8-17-.6-2.8-3.1-3.1-5.4-3.3-2.3-.2-6.1-.1-6.1-.1s-3.8 0-6.1.2c-1.7.1-3.5.3-4.5 1.5l.3.6c.9-1.6 2.8-1.8 4.6-2 2.2-.2 5.7-.2 5.7-.2s3.5 0 5.7.2 4.5.5 5 3.1 1.6 12.1 1.6 16c0 2.7.4 11.9-3.9 17.4l.9 1.6c4.4-5.8 4-15.2 4-18"/><path fill="#F6F5F7" d="M14.4 36.3c-5.1 0-7.2.9-7.2.9 1.4 3.3 7.2 3 7.2 3s5.8.2 7.2-3c0 0-2.1-.9-7.2-.9"/><g opacity=".2"><defs><path id="m" d="M8.4 36.7H16v2.6H8.4z"/></defs><clipPath id="n"><use xlink:href="#m" overflow="visible"/></clipPath><path clip-path="url(#n)" fill="#5A5758" d="M8.9 36.7s-.6.2-.5.5c.1.3.8 2.1 6 2.1 5.1 0-3.2-2.6-3.2-2.6H8.9z"/></g><path fill="#DEDFDE" d="M19.4 36.6c-.9-.2-2.7-.4-5-.4-2.4 0-4.2.2-5 .4-.9.2-.5.7-.5.7 1.3 2.2 5.5 2.1 5.5 2.1s4.2.2 5.5-2.1c0 0 .3-.5-.5-.7"/><path fill="#E4E4E4" d="M19.4 36.6c-.8-.2-2.3-.3-4.4-.3-2 0-3.6.2-4.4.3-.8.2-.4.6-.4.6 1.2 2 4.8 1.8 4.8 1.8s3.7.2 4.8-1.8c0 0 .3-.4-.4-.6"/><path fill="#E9EAE9" d="M19.4 36.7c-.6-.1-1.9-.3-3.7-.3s-3 .1-3.7.3-.4.5-.4.5c.9 1.6 4 1.5 4 1.5s3.1.1 4-1.5c.2 0 .4-.4-.2-.5"/><path fill="#EFEFEF" d="M19.4 36.7c-.5-.1-1.6-.2-3-.2s-2.5.1-3 .2-.3.4-.3.4c.8 1.3 3.3 1.2 3.3 1.2s2.5.1 3.3-1.2c0 0 .2-.2-.3-.4"/><path fill="#F4F4F4" d="M19.4 36.8c-.4-.1-1.2-.2-2.3-.2-1.1 0-1.9.1-2.3.2-.4.1-.2.3-.2.3.6 1 2.6 1 2.6 1s2 .1 2.6-1c-.1 0 0-.2-.4-.3"/><defs><path id="o" d="M8.7 36.1H20v3.2H8.7z"/></defs><clipPath id="p"><use xlink:href="#o" overflow="visible"/></clipPath><path clip-path="url(#p)" fill="none" stroke="#7C7F7D" stroke-width=".085" stroke-miterlimit="10" d="M19.4 36.6c-.9-.2-2.7-.4-5-.4-2.4 0-4.2.2-5 .4-.9.2-.5.7-.5.7 1.3 2.2 5.5 2.1 5.5 2.1s4.2.2 5.5-2.1c0 0 .3-.5-.5-.7z"/><path fill="none" stroke="#00587E" stroke-width=".424" stroke-linecap="round" stroke-miterlimit="10" d="M16.5 38s-.6.1-2.1.1-2.1-.1-2.1-.1"/><g opacity=".36"><defs><path id="q" d="M13.7 2.7h1.1v9.2h-1.1z"/></defs><clipPath id="r"><use xlink:href="#q" overflow="visible"/></clipPath><path clip-path="url(#r)" fill="#AAA7B8" d="M14.2 7.3c0-2 .2-3.7.5-4.3-.1-.2-.2-.3-.3-.3-.4 0-.8 2.1-.8 4.6s.4 4.6.8 4.6c.1 0 .2-.1.3-.3-.2-.5-.5-2.3-.5-4.3"/></g><path fill="#231F20" d="M14.9 3.8c0 .1-.1.2-.2.2h-.5c-.1 0-.2-.1-.2-.2s.1-.2.2-.2h.5c.1 0 .2.1.2.2M14.9 5.6c0 .1-.1.2-.2.2h-.5c-.1 0-.2-.1-.2-.2s.1-.2.2-.2h.5c.1 0 .2.1.2.2M14.9 7.3c0 .1-.1.2-.2.2h-.5c-.1 0-.2-.1-.2-.2s.1-.2.2-.2h.5c.1 0 .2.1.2.2M14.9 9.1c0 .1-.1.2-.2.2h-.5c-.1 0-.2-.1-.2-.2s.1-.2.2-.2h.5c.1 0 .2.1.2.2M14.9 10.8c0 .1-.1.2-.2.2h-.5c-.1 0-.2-.1-.2-.2s.1-.2.2-.2h.5c.1 0 .2.1.2.2"/><g opacity=".36"><defs><path id="s" d="M14.3 2.7h1v9.2h-1z"/></defs><clipPath id="t"><use xlink:href="#s" overflow="visible"/></clipPath><path clip-path="url(#t)" fill="#5A5758" d="M14.5 2.7c-.1 0-.1 0-.2.1.4.5.7 2.3.7 4.5s-.3 4.1-.6 4.5c.1.1.1.1.2.1.4 0 .8-2.1.8-4.6s-.4-4.6-.9-4.6"/></g><g opacity=".5"><defs><path id="u" d="M5.5 20.8h17.7v9.1H5.5z"/></defs><clipPath id="v"><use xlink:href="#u" overflow="visible"/></clipPath><path clip-path="url(#v)" fill="#267070" d="M5.5 28.5h.9v1.3h-.9zM5.5 26.8h.2v1.3h-.2zM5.5 24.9H6v1.3h-.5zM5.5 22.9h.7v1.4h-.7zM5.5 20.8h.9v1.8h-.9zM22.3 28.5h.9v1.3h-.9zM22.9 26.8h.2v1.3h-.2zM22.7 24.9h.5v1.3h-.5zM22.5 22.9h.7v1.4h-.7zM22.3 20.8h.9v1.8h-.9z"/></g><g opacity=".5"><defs><path id="w" d="M11.5 22.3h5.8v1.4h-5.8z"/></defs><clipPath id="x"><use xlink:href="#w" overflow="visible"/></clipPath><path clip-path="url(#x)" fill="#267070" d="M11.5 22.3h5.8v1.4h-5.8z"/></g><g opacity=".5"><defs><path id="y" d="M12.3 30.7h4.1v.6h-4.1z"/></defs><clipPath id="z"><use xlink:href="#y" overflow="visible"/></clipPath><path clip-path="url(#z)" fill="#267070" d="M12.3 30.7h4.1v.6h-4.1z"/></g><path fill="#E4E4E4" d="M17.3 48.1c0 .9-1.3 1.6-2.9 1.6-1.6 0-2.9-.7-2.9-1.6 0-.9 1.3-1.6 2.9-1.6 1.5 0 2.9.7 2.9 1.6M17.3 52.8c0 .9-1.3 1.6-2.9 1.6-1.6 0-2.9-.7-2.9-1.6 0-.9 1.3-1.6 2.9-1.6 1.5 0 2.9.7 2.9 1.6M17.3 57.7c0 .9-1.3 1.6-2.9 1.6-1.6 0-2.9-.7-2.9-1.6s1.3-1.6 2.9-1.6c1.5 0 2.9.7 2.9 1.6M17.3 62.5c0 .9-1.3 1.6-2.9 1.6-1.6 0-2.9-.7-2.9-1.6s1.3-1.6 2.9-1.6c1.5 0 2.9.7 2.9 1.6M25.1 51.3c.1.9-.9 1.9-2.4 2.1-1.4.2-2.7.1-2.8-.8-.1-.9 1.4-2.4 2.9-2.6 1.4-.3 2.2.3 2.3 1.3M24.8 56.1c.1.9-.9 1.9-2.4 2.1-1.4.2-2.7.1-2.8-.8-.1-.9 1.4-2.4 2.9-2.6s2.1.4 2.3 1.3M24.4 61c.1.9-.9 1.9-2.4 2.1-1.4.2-2.7.1-2.8-.8-.1-.9 1.4-2.4 2.9-2.6 1.4-.3 2.2.3 2.3 1.3M25.3 46.7c.1.9-.9 1.9-2.4 2.1-1.4.2-2.7.1-2.8-.8s1.4-2.4 2.9-2.6c1.4-.3 2.2.4 2.3 1.3"/><path fill="#C8CAC9" d="M3.6 51.3c-.1.9.9 1.9 2.4 2.1 1.4.2 2.7.1 2.8-.8.1-.9-1.4-2.4-2.9-2.6-1.4-.3-2.2.3-2.3 1.3M3.9 56.1c-.1.9.9 1.9 2.4 2.1 1.4.2 2.7.1 2.8-.8S7.7 55 6.2 54.8c-1.4-.2-2.1.4-2.3 1.3M4.3 61c-.1.9.9 1.9 2.4 2.1 1.4.2 2.7.1 2.8-.8S8 59.8 6.6 59.6c-1.4-.2-2.2.4-2.3 1.4M3.3 46.7c-.1.9.9 1.9 2.4 2.1 1.4.2 2.7.1 2.8-.8s-1.4-2.4-2.9-2.6c-1.4-.3-2.1.4-2.3 1.3"/><g opacity=".3"><defs><path id="A" d="M2.7 44.8h19v19.7h-19z"/></defs><clipPath id="B"><use xlink:href="#A" overflow="visible"/></clipPath><path clip-path="url(#B)" fill="#DAD8E0" d="M3.7 60.9v.3c0 .1.1.2.1.4 0 .1.1.3.2.4.1.2.3.3.4.4.1.1.3.3.5.4l.6.3c.2.1.5.1.7.2h1.4c.2 0 .5 0 .7-.1.2 0 .4-.1.5-.2.2-.1.3-.2.4-.3.1-.1.2-.2.2-.3.1-.2.1-.3.1-.3s0 .1-.1.3c0 .1-.1.2-.2.4-.1.1-.2.2-.4.3-.2.1-.4.2-.6.2-.2.1-.5.1-.7.1-.3 0-.5 0-.7-.1-.2 0-.5 0-.7-.1-.5-.1-1-.3-1.4-.5-.2-.1-.4-.2-.6-.4-.1-.2-.3-.3-.4-.5-.1-.2-.2-.3-.2-.5s-.1-.3-.1-.4c.3.1.3 0 .3 0zM10.8 62.4s0 .1.1.2c0 .1 0 .1.1.2v.2c0 .1.1.2.2.2.1.1.1.2.2.3.1.1.2.2.3.2.1.1.2.1.4.2s.5.1.7.2c.2 0 .5.1.7.1.4.1.7.1.7.1h-.7c-.2 0-.4-.1-.7-.1-.2-.1-.5-.2-.7-.3-.2-.1-.5-.3-.7-.4-.1-.1-.2-.2-.3-.2-.1-.1-.1-.2-.2-.3-.1-.2-.1-.4-.1-.5v-.1zM6.2 54.3h-.7c-.1 0-.3 0-.5.1-.2 0-.4.1-.5.2-.2.1-.4.2-.5.3l-.2.3-.2.3c-.1.2-.1.4-.1.7 0 .3.1.5.2.7.1.2.2.4.4.5.1.2.3.3.5.4.2.1.3.2.5.3.2.1.3.1.4.2.1.1.3.1.4.1.2.1.3.1.3.1h-.3c-.1 0-.2 0-.4-.1-.1 0-.3-.1-.5-.2s-.4-.2-.5-.3c-.2-.1-.4-.3-.5-.4-.2-.2-.3-.4-.4-.6-.1-.2-.1-.5-.1-.7 0-.2.1-.5.2-.7l.2-.3.2-.3c.2-.2.3-.3.5-.4.2-.1.4-.2.6-.2.2-.1.4 0 .5-.1h.4c-.1.1.1.1.1.1zM10.8 52.8s0 .1.1.2c0 .1 0 .1.1.2 0 .1.1.1.1.2s.1.2.2.2c.1.1.1.2.2.3.1.1.2.2.3.2.1.1.2.1.4.2s.5.1.7.2c.2 0 .5.1.7.1.4.1.7.1.7.1h-.7c-.2 0-.4-.1-.7-.1-.2-.1-.5-.2-.7-.3-.2-.1-.5-.3-.7-.4-.1-.1-.2-.2-.3-.2-.1-.1-.1-.2-.2-.3-.1-.2-.1-.4-.1-.5-.1 0-.1-.1-.1-.1zM10.8 57.7s0 .1.1.2c0 .1 0 .1.1.2 0 .1.1.1.1.2s.1.2.2.2c.1.1.1.2.2.3.1.1.2.2.3.2.1.1.2.1.4.2s.5.1.7.2c.2 0 .5.1.7.1.4.1.7.1.7.1h-.7c-.2 0-.4-.1-.7-.1-.2-.1-.5-.2-.7-.3-.2-.1-.5-.3-.7-.4-.1-.1-.2-.2-.3-.2-.1-.1-.1-.2-.2-.3-.1-.2-.1-.4-.1-.5-.1 0-.1-.1-.1-.1zM20.5 46s0 .1-.1.2c0 .1-.1.1-.1.2s-.1.2-.2.3c-.1.2-.3.4-.4.7-.1.1-.1.3-.1.4 0 .2 0 .3.1.4.1.1.1.3.2.4l.3.3c.2.1.5.2.7.3.2.1.4.1.5.1h0-.6c-.2 0-.5-.1-.8-.3l-.3-.3c-.1-.1-.2-.3-.2-.5v-.5c0-.2 0-.3.1-.5 0-.1.1-.3.1-.4.1-.1.1-.2.2-.3.1-.2.3-.3.4-.4.2 0 .2-.1.2-.1zM5.6 44.9h-.7c-.1 0-.3 0-.5.1-.2 0-.4.1-.5.2-.2.1-.4.2-.5.3l-.2.3-.2.3c-.1.1-.1.2-.1.3v.4c0 .3.1.5.2.7.1.2.2.4.4.5.1.2.3.3.5.4.2.1.3.2.5.3.2.1.3.1.4.2 0 .1.1.1.2.2.2.1.3.1.3.1h-.3c-.1 0-.2 0-.4-.1-.1 0-.3-.1-.5-.2s-.4-.2-.5-.3c-.2-.1-.4-.3-.5-.4-.2-.2-.3-.4-.4-.6-.1-.3-.1-.5-.1-.7 0-.2.1-.5.2-.7l.1-.4.2-.3c.2-.2.3-.3.5-.4.2-.1.4-.2.6-.2.2-.1.4 0 .5-.1h.4c.2.1.4.1.4.1zM5.8 49.5h-.7c-.1 0-.3 0-.5.1-.2 0-.4.1-.5.2-.2.1-.4.2-.5.3l-.2.3-.2.3c-.1.1-.1.2-.1.3v.4c0 .3.1.5.2.7.1.2.2.4.4.5.1.2.3.3.5.4.2.1.3.2.5.3.2.1.3.1.4.2.1.1.3.1.4.1.2.1.3.1.3.1h-.3c-.1 0-.2 0-.4-.1-.1 0-.3-.1-.5-.2s-.4-.1-.5-.3c-.2-.1-.4-.3-.5-.4-.2-.2-.3-.4-.4-.6-.2-.2-.3-.5-.2-.7 0-.2.1-.5.2-.7l.2-.3.2-.3c.2-.2.3-.3.5-.4.2-.1.4-.2.6-.2.2-.1.4 0 .5-.1h.4c.1 0 .2 0 .2.1zM20.3 50.6s0 .1-.1.2c0 .1-.1.1-.1.2-.1.1-.1.2-.2.3-.1.2-.3.4-.4.7-.1.1-.1.3-.1.4 0 .2 0 .3.1.4.1.1.1.3.2.4l.3.3c.2.1.5.2.7.3.2.1.4.1.5.1h0-.6c-.2 0-.5-.1-.8-.3l-.3-.3c-.1-.1-.2-.3-.2-.5v-.5c0-.2 0-.3.1-.5 0-.1.1-.3.1-.4.1-.1.1-.2.2-.3.1-.2.3-.3.4-.4.1-.1.2-.1.2-.1zM20 55.5s0 .1-.1.2c0 .1-.1.1-.1.2s-.1.2-.2.3c-.1.2-.3.4-.4.7-.2 0-.2.1-.2.3 0 .2 0 .3.1.4.1.1.1.3.2.4l.3.3c.2.1.5.2.7.3.2.1.4.1.5.1h0-.6c-.2 0-.5-.1-.8-.3l-.3-.3c0-.1-.1-.3-.1-.5v-.5c0-.2 0-.3.1-.5 0-.1.1-.3.1-.4.1-.1.1-.2.2-.3.1-.2.3-.3.4-.4h.2zM19.6 60.3s0 .1-.1.2c0 .1-.1.1-.1.2s-.1.2-.2.3c-.1.2-.3.4-.4.7-.1.1-.1.3-.1.4 0 .2 0 .3.1.4.1.1.1.3.2.4l.3.3c.2.2.5.2.7.3.2.1.4.1.5.1h0-.6c-.2 0-.5-.1-.8-.3l-.3-.3c-.1-.1-.2-.3-.2-.5V62c0-.2 0-.3.1-.5 0-.1.1-.3.1-.4.1-.1.1-.2.2-.3.1-.2.3-.3.4-.4.1-.1.2-.1.2-.1zM10.8 48s0 .1.1.2c0 .1 0 .1.1.2 0 .1.1.1.1.2s.1.2.2.2c.1.1.1.2.2.3.1.1.2.2.3.2.1.1.2.1.4.2s.5.1.7.2c.2 0 .5.1.7.1.4.1.7.1.7.1h-.7c-.2 0-.4-.1-.7-.1-.2-.1-.5-.2-.7-.3-.2-.1-.5-.3-.7-.4-.1-.1-.2-.2-.3-.2-.1-.1-.1-.2-.2-.3-.1-.2-.1-.4-.1-.5-.1 0-.1-.1-.1-.1z"/></g><defs><path id="C" d="M3.2 45.2h22.3v19H3.2z"/></defs><clipPath id="D"><use xlink:href="#C" overflow="visible"/></clipPath><path clip-path="url(#D)" fill="#A39FB2" d="M14.3 49.8c-1.7 0-3-.7-3-1.7s1.3-1.7 3-1.7 3 .7 3 1.7-1.3 1.7-3 1.7m0-3.2c-1.6 0-2.8.7-2.8 1.5s1.3 1.5 2.8 1.5c1.6 0 2.8-.7 2.8-1.5s-1.2-1.5-2.8-1.5M14.3 54.6c-1.7 0-3-.7-3-1.7s1.3-1.7 3-1.7 3 .7 3 1.7c0 .9-1.3 1.7-3 1.7m0-3.2c-1.6 0-2.8.7-2.8 1.5s1.3 1.5 2.8 1.5c1.6 0 2.8-.7 2.8-1.5s-1.2-1.5-2.8-1.5M14.3 59.5c-1.7 0-3-.7-3-1.7s1.3-1.7 3-1.7 3 .7 3 1.7-1.3 1.7-3 1.7m0-3.2c-1.6 0-2.8.7-2.8 1.5s1.3 1.5 2.8 1.5c1.6 0 2.8-.7 2.8-1.5s-1.2-1.5-2.8-1.5M14.3 64.2c-1.7 0-3-.7-3-1.7s1.3-1.7 3-1.7 3 .7 3 1.7-1.3 1.7-3 1.7m0-3.2c-1.6 0-2.8.7-2.8 1.5s1.3 1.5 2.8 1.5c1.6 0 2.8-.7 2.8-1.5S15.9 61 14.3 61M21.5 53.6c-1.1 0-1.7-.3-1.8-1-.1-.5.3-1.1.9-1.7.6-.6 1.4-1 2.1-1.1 1.4-.2 2.3.4 2.5 1.5.1.5-.2 1-.6 1.4-.5.4-1.1.7-1.8.8-.5 0-.9.1-1.3.1m1.7-3.6h-.5c-.6.1-1.4.5-2 1-.6.5-.9 1.1-.8 1.5.1.7 1 1 2.7.7.7-.1 1.3-.3 1.7-.7.4-.4.6-.8.6-1.2-.1-.8-.7-1.3-1.7-1.3M21.2 58.4c-1.1 0-1.7-.3-1.8-1-.1-.5.3-1.1.9-1.7.6-.6 1.4-1 2.1-1.1 1.4-.2 2.3.4 2.5 1.5.1.5-.2 1-.6 1.4-.5.4-1.1.7-1.8.8-.6.1-1 .1-1.3.1m1.7-3.5h-.5c-.6.1-1.4.5-2 1-.6.5-.9 1.1-.8 1.5.1.7 1 1 2.7.7.7-.1 1.3-.3 1.7-.7.4-.4.6-.8.6-1.2-.1-.9-.7-1.3-1.7-1.3M20.9 63.3c-1.1 0-1.7-.3-1.8-1-.1-.5.3-1.1.9-1.7.6-.6 1.4-1 2.1-1.1 1.4-.2 2.3.4 2.5 1.5.1.5-.2 1-.6 1.4-.5.4-1.1.7-1.8.8-.6 0-1 .1-1.3.1m1.7-3.6h-.5c-.6.1-1.4.5-2 1-.6.5-.9 1.1-.8 1.5.1.7 1 1 2.7.7.7-.1 1.3-.3 1.7-.7.4-.4.6-.8.6-1.2-.1-.8-.8-1.3-1.7-1.3M21.8 49c-1.1 0-1.7-.3-1.8-1-.1-.5.3-1.1.9-1.7.6-.6 1.4-1 2.1-1.1 1.4-.2 2.3.4 2.5 1.5.1.5-.2 1-.6 1.4-.5.4-1.1.7-1.8.8-.6.1-1 .1-1.3.1m1.7-3.6H23c-.6.1-1.4.5-2 1-.6.5-.9 1.1-.8 1.5.1.7 1 1 2.7.7.7-.1 1.3-.3 1.7-.7.4-.4.6-.8.6-1.2-.1-.8-.7-1.3-1.7-1.3M7.1 53.6c-.3 0-.7 0-1.2-.1-.7-.1-1.4-.4-1.8-.8-.5-.4-.7-.9-.6-1.4.1-1.1 1.1-1.7 2.5-1.5.7.1 1.5.5 2.1 1.1.6.6.9 1.2.9 1.7-.2.6-.8 1-1.9 1M5.4 50c-1 0-1.6.5-1.7 1.3-.1.4.1.8.6 1.2.4.4 1 .6 1.7.7 1.8.2 2.6 0 2.7-.7.1-.4-.3-1-.8-1.5-.6-.5-1.3-.9-2-1h-.5M7.4 58.4c-.3 0-.7 0-1.2-.1-.7-.1-1.4-.4-1.8-.8-.5-.4-.7-.9-.6-1.4.1-1.1 1.1-1.7 2.5-1.5.7.1 1.5.5 2.1 1.1.6.6.9 1.2.9 1.7-.2.7-.8 1-1.9 1m-1.6-3.5c-1 0-1.6.5-1.7 1.3-.1.4.1.8.5 1.2.4.4 1 .6 1.7.7 1.8.2 2.6 0 2.7-.7.1-.4-.3-1-.8-1.5-.6-.5-1.3-.9-2-1h-.4M7.8 63.3c-.3 0-.7 0-1.2-.1-.7-.1-1.4-.4-1.8-.8-.5-.4-.7-.9-.7-1.4.1-1.1 1.1-1.7 2.5-1.5.7.1 1.5.5 2.1 1.1.6.6.9 1.2.9 1.7-.1.6-.7 1-1.8 1m-1.7-3.6c-1 0-1.6.5-1.7 1.3-.1.4.1.8.6 1.2.4.4 1 .6 1.7.7 1.8.2 2.6 0 2.7-.7.1-.4-.3-1-.8-1.5-.6-.5-1.3-.9-2-1h-.5M6.8 49c-.3 0-.7 0-1.2-.1-.7-.1-1.4-.4-1.8-.8-.5-.4-.7-.9-.6-1.4.1-1.1 1.1-1.7 2.5-1.5.7.1 1.5.5 2.1 1.1.6.6.9 1.2.9 1.7-.2.7-.8 1-1.9 1m-1.6-3.6c-1 0-1.6.5-1.7 1.3-.1.5.1.9.5 1.3s1 .6 1.7.7c1.8.2 2.6 0 2.7-.7.1-.4-.3-1-.8-1.5-.6-.5-1.3-.9-2-1-.1 0-.3-.1-.4-.1"/><g opacity=".7"><defs><path id="E" d="M3.3 45.3h22v18.8h-22z"/></defs><clipPath id="F"><use xlink:href="#E" overflow="visible"/></clipPath><path clip-path="url(#F)" fill="#C8CAC9" d="M3.3 46.7c-.1.9.9 1.9 2.4 2.1 1.4.2 2.7.1 2.8-.8.1-.9-1.4-2.4-2.9-2.6-1.4-.3-2.2.4-2.3 1.3"/><path clip-path="url(#F)" fill="#D6D7D6" d="M8.3 47.6c-.1.8-1.1.9-2.3.8-1.2-.1-2.1-.9-2-1.7.1-.8.8-1.3 1.9-1.2 1.2.1 2.5 1.3 2.4 2.1"/><path clip-path="url(#F)" fill="#E4E4E4" d="M8 47.3c0 .7-.9.9-1.8.8-.9-.1-1.6-.7-1.6-1.4.1-.6.6-1.1 1.6-1 .9.1 1.9 1 1.8 1.6"/><path clip-path="url(#F)" fill="#F1F2F1" d="M7.8 47c0 .5-.6.7-1.3.7-.7 0-1.2-.5-1.2-1s.5-.9 1.2-.8c.7 0 1.3.6 1.3 1.1"/><path clip-path="url(#F)" fill="#FFF" d="M7.6 46.7c0 .4-.4.6-.8.6S6 47 6 46.7c0-.4.4-.6.8-.6s.8.3.8.6"/><path clip-path="url(#F)" fill="#E4E4E4" d="M17.2 48c0 .9-1.3 1.6-2.9 1.6-1.6 0-2.9-.7-2.9-1.6 0-.9 1.3-1.6 2.9-1.6 1.6.1 2.9.8 2.9 1.6"/><path clip-path="url(#F)" fill="#EBEBEB" d="M17.1 48c0 .8-1.1 1.4-2.4 1.4-1.3 0-2.4-.6-2.4-1.4s1.1-1.4 2.4-1.4c1.3 0 2.4.6 2.4 1.4"/><path clip-path="url(#F)" fill="#F1F2F1" d="M16.9 47.9c0 .7-.9 1.2-1.9 1.2s-2-.6-2-1.2c0-.7.9-1.2 1.9-1.2s2 .5 2 1.2"/><path clip-path="url(#F)" fill="#F8F8F8" d="M16.7 47.8c0 .5-.6 1-1.4 1-.8 0-1.4-.4-1.4-1 0-.5.6-1 1.4-1 .8 0 1.4.4 1.4 1"/><path clip-path="url(#F)" fill="#FFF" d="M16.6 47.7c0 .4-.4.8-.9.8s-.9-.3-.9-.8.4-.8.9-.8c.4 0 .9.4.9.8"/><path clip-path="url(#F)" fill="#E4E4E4" d="M25.3 46.7c.1.9-.9 1.9-2.4 2.1-1.4.2-2.7.1-2.8-.8-.1-1 1.4-2.5 2.9-2.7 1.4-.2 2.2.5 2.3 1.4"/><path clip-path="url(#F)" fill="#EBEBEB" d="M25.1 46.7c.1.8-.8 1.6-2 1.7s-2.2 0-2.3-.8c-.1-.8 1.2-2 2.3-2.2 1.2-.1 1.9.4 2 1.3"/><path clip-path="url(#F)" fill="#F1F2F1" d="M24.8 46.6c.1.7-.6 1.3-1.6 1.4-.9.1-1.7-.1-1.8-.8-.1-.7.9-1.6 1.8-1.7 1 0 1.6.4 1.6 1.1"/><path clip-path="url(#F)" fill="#F8F8F8" d="M24.6 46.6c0 .5-.5 1-1.2 1s-1.3-.2-1.3-.7c0-.5.6-1.1 1.3-1.2s1.2.3 1.2.9"/><path clip-path="url(#F)" fill="#FFF" d="M24.4 46.5c0 .4-.3.7-.8.7-.4 0-.8-.3-.8-.7 0-.4.3-.7.8-.7.4 0 .8.3.8.7"/><path clip-path="url(#F)" fill="#E4E4E4" d="M25 51.3c.1.9-.9 1.9-2.4 2.1s-2.7.1-2.8-.8c-.1-.9 1.4-2.4 2.9-2.6 1.4-.3 2.2.3 2.3 1.3"/><path clip-path="url(#F)" fill="#EBEBEB" d="M20.5 52.1c-.1-.8 1.2-1.9 2.4-2.1 1.2-.1 1.9.4 2 1.2.1.8-.8 1.5-2 1.7-1.3.1-2.3 0-2.4-.8"/><path clip-path="url(#F)" fill="#F1F2F1" d="M21.1 51.7c-.1-.6.9-1.4 1.9-1.5 1-.1 1.5.3 1.6.9s-.6 1.1-1.6 1.2c-1 .1-1.8 0-1.9-.6"/><path clip-path="url(#F)" fill="#F8F8F8" d="M21.8 51.3c0-.4.7-.9 1.4-1 .7 0 1.2.3 1.2.7 0 .4-.5.8-1.2.9-.8 0-1.4-.2-1.4-.6"/><path clip-path="url(#F)" fill="#FFF" d="M22.4 50.9c0 .2.4.4.9.4s.9-.2.9-.4-.4-.4-.9-.4c-.5-.1-.9.1-.9.4"/><path clip-path="url(#F)" fill="#E4E4E4" d="M17.2 52.8c0 .9-1.3 1.6-2.9 1.6-1.6 0-2.9-.7-2.9-1.6 0-.9 1.3-1.6 2.9-1.6 1.6 0 2.9.7 2.9 1.6"/><path clip-path="url(#F)" fill="#EBEBEB" d="M12.1 52.7c0-.7 1.1-1.3 2.5-1.3s2.5.6 2.5 1.3c0 .7-1.1 1.3-2.5 1.3-1.4.1-2.5-.5-2.5-1.3"/><path clip-path="url(#F)" fill="#F1F2F1" d="M12.8 52.6c0-.6.9-1.1 2-1.1s2 .5 2 1.1c0 .6-.9 1.1-2 1.1s-2-.5-2-1.1"/><path clip-path="url(#F)" fill="#F8F8F8" d="M13.5 52.5c0-.5.7-.8 1.5-.8s1.5.4 1.5.8c0 .5-.7.8-1.5.8s-1.5-.3-1.5-.8"/><path clip-path="url(#F)" fill="#FFF" d="M14.3 52.5c0 .3.5.6 1 .6s1-.3 1-.6-.5-.6-1-.6-1 .2-1 .6"/><path clip-path="url(#F)" fill="#C8CAC9" d="M3.6 51.3c-.1.9.9 1.9 2.4 2.1 1.4.2 2.7.1 2.8-.8.1-.9-1.4-2.4-2.9-2.6-1.4-.3-2.2.3-2.3 1.3"/><path clip-path="url(#F)" fill="#D6D7D6" d="M8.4 52.1c-.1.8-1.1.9-2.3.7s-2.1-.8-2-1.6c.1-.8.8-1.3 1.9-1.2 1.2.2 2.5 1.3 2.4 2.1"/><path clip-path="url(#F)" fill="#E4E4E4" d="M8 51.7c-.1.6-.8.8-1.7.7-.9-.1-1.6-.7-1.5-1.3.1-.6.6-1.1 1.5-1 .8.1 1.7 1 1.7 1.6"/><path clip-path="url(#F)" fill="#F1F2F1" d="M7.6 51.3c0 .5-.6.6-1.2.6s-1.1-.5-1.1-.9c0-.5.4-.8 1.1-.7.6 0 1.2.6 1.2 1"/><path clip-path="url(#F)" fill="#FFF" d="M7.2 50.9c0 .3-.3.5-.6.5-.4 0-.6-.2-.6-.5s.3-.5.6-.5.6.3.6.5"/><path clip-path="url(#F)" fill="#C8CAC9" d="M3.9 56.1c-.1.9.9 1.9 2.4 2.1 1.4.2 2.7.1 2.8-.8S7.7 55 6.2 54.8c-1.4-.3-2.2.4-2.3 1.3"/><path clip-path="url(#F)" fill="#D6D7D6" d="M8.7 57c-.1.8-1.1.9-2.3.8-1.2-.1-2-.9-2-1.7.1-.8.8-1.4 1.9-1.2 1.3.1 2.5 1.3 2.4 2.1"/><path clip-path="url(#F)" fill="#E4E4E4" d="M8.4 56.7c-.1.7-.9.9-1.8.8-.9-.1-1.6-.7-1.5-1.4s.6-1.2 1.5-1.1c.9.1 1.9 1 1.8 1.7"/><path clip-path="url(#F)" fill="#F1F2F1" d="M8.1 56.4c0 .5-.6.8-1.3.8-.7 0-1.2-.5-1.1-1.1 0-.5.5-.9 1.1-.9.7 0 1.3.6 1.3 1.2"/><path clip-path="url(#F)" fill="#FFF" d="M7.7 56c0 .4-.3.7-.7.7-.4 0-.7-.3-.7-.7s.3-.7.7-.7c.4 0 .7.3.7.7"/><path clip-path="url(#F)" fill="#E4E4E4" d="M17.2 57.7c0 .9-1.3 1.6-2.9 1.6-1.6 0-2.9-.7-2.9-1.6s1.3-1.6 2.9-1.6c1.6 0 2.9.7 2.9 1.6"/><path clip-path="url(#F)" fill="#EBEBEB" d="M16.9 57.6c0 .7-1.1 1.3-2.4 1.3-1.3 0-2.4-.6-2.4-1.3 0-.7 1.1-1.3 2.4-1.3 1.4-.1 2.4.5 2.4 1.3"/><path clip-path="url(#F)" fill="#F1F2F1" d="M16.7 57.4c0 .6-.9 1.1-1.9 1.1s-1.9-.5-1.9-1.1.9-1 1.9-1 1.9.5 1.9 1"/><path clip-path="url(#F)" fill="#F8F8F8" d="M16.4 57.3c0 .4-.6.8-1.4.8-.8 0-1.4-.3-1.4-.8s.6-.8 1.4-.8c.8 0 1.4.4 1.4.8"/><path clip-path="url(#F)" fill="#FFF" d="M16.1 57.2c0 .3-.4.5-.9.5s-.9-.2-.9-.5.4-.5.9-.5.9.2.9.5"/><path clip-path="url(#F)" fill="#E4E4E4" d="M24.7 56.1c.1.9-.9 1.9-2.4 2.1-1.4.2-2.7.1-2.8-.8s1.4-2.4 2.9-2.6c1.4-.3 2.2.4 2.3 1.3"/><path clip-path="url(#F)" fill="#EBEBEB" d="M20.1 57c-.1-.8 1.2-2 2.3-2.1s1.8.4 1.9 1.2c.1.8-.8 1.6-2 1.7-1 .1-2.1 0-2.2-.8"/><path clip-path="url(#F)" fill="#F1F2F1" d="M20.7 56.5c-.1-.6.9-1.5 1.8-1.6.9-.1 1.5.4 1.6 1 .1.6-.6 1.2-1.6 1.3s-1.7 0-1.8-.7"/><path clip-path="url(#F)" fill="#F8F8F8" d="M21.3 56.1c0-.5.6-1.1 1.3-1.1.7 0 1.1.3 1.2.8 0 .5-.5.9-1.2 1-.7.1-1.3-.2-1.3-.7"/><path clip-path="url(#F)" fill="#FFF" d="M21.9 55.7c0 .4.4.6.8.6s.8-.3.8-.6-.4-.6-.8-.6-.8.3-.8.6"/><path clip-path="url(#F)" fill="#E4E4E4" d="M24.4 60.9c.1.9-.9 1.9-2.4 2.1-1.4.2-2.7.1-2.8-.8-.1-.9 1.4-2.4 2.9-2.6 1.4-.2 2.1.4 2.3 1.3"/><path clip-path="url(#F)" fill="#EBEBEB" d="M19.8 61.8c-.1-.8 1.2-2 2.4-2.1 1.2-.1 1.9.4 2 1.2.1.8-.8 1.5-2 1.7-1.3.1-2.3 0-2.4-.8"/><path clip-path="url(#F)" fill="#F1F2F1" d="M20.4 61.4c-.1-.6.9-1.5 1.9-1.6 1-.1 1.5.4 1.6 1 .1.6-.7 1.2-1.6 1.3-1 .1-1.8-.1-1.9-.7"/><path clip-path="url(#F)" fill="#F8F8F8" d="M21 61c0-.5.6-1 1.4-1.1s1.2.3 1.2.8-.5.9-1.2.9-1.4-.2-1.4-.6"/><path clip-path="url(#F)" fill="#FFF" d="M21.6 60.6c0 .3.4.6.8.6.5 0 .8-.3.8-.6s-.3-.6-.7-.6c-.5 0-.9.3-.9.6"/><path clip-path="url(#F)" fill="#E4E4E4" d="M17.2 62.4c0 .9-1.3 1.6-2.9 1.6-1.6 0-2.9-.7-2.9-1.6s1.3-1.6 2.9-1.6c1.6 0 2.9.8 2.9 1.6"/><path clip-path="url(#F)" fill="#EBEBEB" d="M12.1 62.3c0-.7 1.1-1.3 2.4-1.3s2.4.6 2.4 1.3-1.1 1.3-2.4 1.3-2.4-.6-2.4-1.3"/><path clip-path="url(#F)" fill="#F1F2F1" d="M12.8 62.2c0-.6.9-1 1.9-1s1.9.5 1.9 1c0 .6-.9 1-1.9 1s-1.9-.4-1.9-1"/><path clip-path="url(#F)" fill="#F8F8F8" d="M13.5 62.1c0-.4.6-.8 1.4-.8.8 0 1.4.3 1.4.8 0 .4-.6.8-1.4.8-.7-.1-1.4-.4-1.4-.8"/><path clip-path="url(#F)" fill="#FFF" d="M14.3 62c0 .3.4.5.9.5s.9-.2.9-.5-.4-.5-.9-.5-.9.2-.9.5"/><path clip-path="url(#F)" fill="#C8CAC9" d="M4.2 60.9c-.1.9.9 1.9 2.4 2.1 1.4.2 2.7.1 2.8-.8.1-.9-1.4-2.4-2.9-2.6-1.4-.2-2.1.4-2.3 1.3"/><path clip-path="url(#F)" fill="#D6D7D6" d="M4.6 60.8c-.1.8.8 1.5 2 1.7 1.2.1 2.3 0 2.4-.7.1-.8-1.2-2-2.4-2.1-1.2-.2-1.9.4-2 1.1"/><path clip-path="url(#F)" fill="#E4E4E4" d="M5 60.8c0 .6.7 1.1 1.7 1.2 1 .1 1.8 0 1.9-.6.1-.6-.9-1.5-1.9-1.6-1-.1-1.6.4-1.7 1"/><path clip-path="url(#F)" fill="#F1F2F1" d="M5.4 60.7c0 .4.5.8 1.3.9.7 0 1.4-.1 1.4-.6s-.7-1-1.4-1c-.7-.1-1.2.2-1.3.7"/><path clip-path="url(#F)" fill="#FFF" d="M5.8 60.6c0 .3.4.5.9.5s.9-.2.9-.5-.4-.5-.9-.5c-.4 0-.9.2-.9.5"/></g><path fill="#D6D7D6" d="M5.3 40s1.8 2.2 2.6 2.6c.7.3 1.1 0 1.3-.2s1.2-1.6 1.2-1.6.3-.6-.3-.9c-.6-.2-2.7-1.5-2.8-1.7-.2-.3-.5-.5-1-.2-.4.2-1.4.8-1.4.8s-.3.2 0 .6l.4.6"/><g><defs><path id="G" d="M6.5 37.7h3.9v4.8H6.5z"/></defs><clipPath id="H"><use xlink:href="#G" overflow="visible"/></clipPath><path clip-path="url(#H)" fill="#D6D7D6" d="M10.1 39.8c-.6-.2-2.7-1.5-2.8-1.7-.1-.2-.3-.4-.6-.4h-.1l.2.3c.1 0 .2.1.3.2.2.4 2.4 1.6 3 1.9.1.1.2.1.2.1v.3c-.1.2-1 1.3-1.2 1.6l-.1.1.1.3c.1-.1.2-.1.2-.2.2-.2 1.2-1.6 1.2-1.6s.2-.6-.4-.9"/></g><g><defs><path id="I" d="M4.7 37.7h5.8v5H4.7z"/></defs><clipPath id="J"><use xlink:href="#I" overflow="visible"/></clipPath><path clip-path="url(#J)" fill="none" stroke="#7C7F7D" stroke-width=".085" stroke-miterlimit="10" d="M5.3 40s1.8 2.2 2.6 2.6c.7.3 1.1 0 1.3-.2s1.2-1.6 1.2-1.6.3-.6-.3-.9c-.6-.2-2.7-1.5-2.8-1.7-.2-.3-.5-.5-1-.2-.4.2-1.4.8-1.4.8s-.3.2 0 .6l.4.6z"/></g><path fill="#D6D7D6" d="M16.3 40.6l.7 2.9s.4.8 1.3.4c.9-.5 4.8-2.4 6.5-6 0 0 .2-.2-.4-.5-.5-.3-1.1-.5-1.1-.5s-.5-.2-1.2.4c-.7.6-2.3 2.1-4.8 2.5 0 0-1.1.1-1 .8"/><g><defs><path id="K" d="M16.4 36.9h8.5v3.9h-8.5z"/></defs><clipPath id="L"><use xlink:href="#K" overflow="visible"/></clipPath><path clip-path="url(#L)" fill="#D6D7D6" d="M16.4 40.8c.2-.4.9-.5.9-.5 2.5-.4 4.1-1.9 4.8-2.5.7-.6 1.2-.4 1.2-.4s.6.2 1.1.5c.1.1.2.1.3.2 0-.1.1-.1.1-.2 0 0 .2-.2-.4-.5s-1.1-.5-1.1-.5-.5-.2-1.2.4c-.7.6-2.3 2.1-4.8 2.5 0 0-1.1.1-1 .8l.1.2z"/></g><g><defs><path id="M" d="M16.3 36.8h8.6v7.3h-8.6z"/></defs><clipPath id="N"><use xlink:href="#M" overflow="visible"/></clipPath><path clip-path="url(#N)" fill="none" stroke="#7C7F7D" stroke-width=".085" stroke-miterlimit="10" d="M16.3 40.6l.7 2.9s.4.8 1.3.4c.9-.5 4.8-2.4 6.5-6 0 0 .2-.2-.4-.5-.5-.3-1.1-.5-1.1-.5s-.5-.2-1.2.4c-.7.6-2.3 2.1-4.8 2.5 0 0-1.1.1-1 .8z"/></g></svg>