<svg xmlns="http://www.w3.org/2000/svg" xmlns:xlink="http://www.w3.org/1999/xlink" width="68.7" height="69.3" viewBox="0 0 68.7 69.3"><path fill="#484546" d="M64.9 1.1c0-.1 0-.1-.1-.2C64.5.2 63.7-.2 63 0l-5.2 1.5-6.4 1.8-7.3 2.1-6.4 1.8-7.3 2.1-6.4 1.9-7.3 2.1-6.4 1.8L3 17.2l-1.8.5c-.8.2-1.3 1.1-1 1.9l1.4 4.7.8 2.9L8 25.6l6.4-1.8 7.3-2.1 6.4-1.8 7.3-2.1 6.4-1.8 7.3-2.1 6.4-1.8 7.3-2.1L67 8.8l-2.1-7.7z"/><path fill="#484546" d="M2.7 26.9h66v2.2h-66z"/><path fill="#231F20" d="M56.7 29.2h-6.6l5.4 10.2h-7.6l-5.4-10.2h-6.7l5.4 10.2h-7.6l-5.4-10.2h-6.7L27 39.3h-7.6L14 29.1H7.3l5.4 10.2H5.1l-3.8-7.1v35.5c0 .8.7 1.5 1.5 1.5h64.4c.8 0 1.5-.7 1.5-1.5V39.3h-6.5l-5.5-10.1zM64.3 29.1v.1l4.4 8.1v-8.2"/><path fill="#F2F1F2" d="M13.9 29.2l5.4 10.1H27l-5.5-10.1v-.1h-7.6M12.7 39.3L7.3 29.2v-.1h-6v3.1l3.8 7.1M42.4 29.2l5.5 10.1h7.6l-5.4-10.1v-.1h-7.6M64.3 29.1h-7.6v.1l5.4 10.1h6.6v-2l-4.4-8.1M28.2 29.2l5.4 10.1h7.6l-5.4-10.1v-.1h-7.6"/><path fill="#231F20" d="M24.4 12.9l-2.2 10.4 6.4-1.8 2.2-10.4M38.2 9l-2.3 10.4 6.4-1.8 2.3-10.5M10.7 16.8L8.5 27.3l6.4-1.9L17.1 15M1.6 19.4c-.8.2-1.3 1.1-1 1.9L2 26l1.5-7.1-1.9.5zM65.3 2.6l-1.9 9 4.2-1.2-2.2-7.6c-.1-.1-.1-.2-.1-.2M51.9 5l-2.3 10.5 6.4-1.9 2.3-10.4"/><path fill="#F2F1F2" d="M17.1 15l-2.2 10.4 7.3-2.1 2.2-10.4M3.4 18.9l-1.5 7.2.8 2.8 5.8-1.6 2.2-10.5M44.6 7.1l-2.3 10.5 7.3-2.1L51.9 5M63.5 1.7l-5.2 1.5L56 13.6l7.3-2.1 1.9-9c-.2-.6-1-1-1.7-.8M30.8 11.1l-2.2 10.4 7.3-2.1L38.2 9"/><path fill="#4F4C4D" d="M4.2 19.7C2.5 18 1.1 18.6 1.1 21v14.3c0 2.4 2 4.3 4.3 4.3h14.3c2.4 0 3-1.4 1.3-3.1L4.2 19.7z"/><path fill="#656263" d="M6.2 24.3c0 1-.8 1.7-1.7 1.7s-1.7-.8-1.7-1.7c0-1 .8-1.7 1.7-1.7s1.7.7 1.7 1.7"/><defs><path id="a" d="M3.9 22.9h1v.8h-1z"/></defs><clipPath id="b"><use xlink:href="#a" overflow="visible"/></clipPath><path clip-path="url(#b)" fill="#656263" d="M5 23.3c0 .2-.2.4-.5.4s-.5-.2-.5-.4.2-.4.5-.4c.2 0 .5.2.5.4"/><g opacity=".5"><defs><path id="c" d="M2.7 24h3.4v2H2.7z"/></defs><clipPath id="d"><use xlink:href="#c" overflow="visible"/></clipPath><path clip-path="url(#d)" fill="#656263" d="M4.4 25.5c-.9 0-1.6-.6-1.7-1.5v.2c0 1 .8 1.7 1.7 1.7s1.7-.8 1.7-1.7V24c-.1.9-.8 1.5-1.7 1.5"/></g><path fill="#656263" d="M6.2 36.3c0 1-.8 1.7-1.7 1.7s-1.7-.8-1.7-1.7c0-1 .8-1.7 1.7-1.7s1.7.7 1.7 1.7"/><defs><path id="e" d="M3.9 35h1v.8h-1z"/></defs><clipPath id="f"><use xlink:href="#e" overflow="visible"/></clipPath><path clip-path="url(#f)" fill="#656263" d="M5 35.3c0 .2-.2.4-.5.4s-.5-.2-.5-.4.1-.3.4-.3c.3 0 .6.1.6.3"/><g opacity=".5"><defs><path id="g" d="M2.7 36.1h3.4v2H2.7z"/></defs><clipPath id="h"><use xlink:href="#g" overflow="visible"/></clipPath><path clip-path="url(#h)" fill="#656263" d="M4.4 37.5c-.9 0-1.6-.6-1.7-1.5v.2c0 1 .8 1.7 1.7 1.7s1.7-.8 1.7-1.7V36c-.1.9-.8 1.5-1.7 1.5"/></g><path fill="#656263" d="M18 36.3c0 1-.8 1.7-1.7 1.7-1 0-1.7-.8-1.7-1.7 0-1 .8-1.7 1.7-1.7 1 0 1.7.7 1.7 1.7"/><defs><path id="i" d="M15.8 35h1v.8h-1z"/></defs><clipPath id="j"><use xlink:href="#i" overflow="visible"/></clipPath><path clip-path="url(#j)" fill="#656263" d="M16.8 35.3c0 .2-.2.4-.5.4s-.5-.2-.5-.4.2-.3.5-.3.5.1.5.3"/><g opacity=".5"><defs><path id="k" d="M14.6 36.1H18v2h-3.4z"/></defs><clipPath id="l"><use xlink:href="#k" overflow="visible"/></clipPath><path clip-path="url(#l)" fill="#656263" d="M16.3 37.5c-.9 0-1.6-.6-1.7-1.5v.2c0 1 .8 1.7 1.7 1.7 1 0 1.7-.8 1.7-1.7V36c-.1.9-.8 1.5-1.7 1.5"/></g><path fill="none" stroke="#F2F1F2" stroke-width=".458" stroke-linecap="round" stroke-miterlimit="10" d="M2.4 45.2h65.1M2.4 55.4h65.1M2.4 60.4h65.1M2.4 65.3h65.1M36.8 45.2v10.2"/></svg>