<svg xmlns="http://www.w3.org/2000/svg" xmlns:xlink="http://www.w3.org/1999/xlink" width="40.3" height="57.2" viewBox="0 0 40.3 57.2"><path fill="#72583C" d="M23.2 9.8H1.9l6.4 45.1h.3c1.3.9 5.9 2.3 11.5 2.3s10.2-1.4 11.5-2.3h.4l6.4-45.1H23.2z"/><path fill="#A39280" d="M18.7 56.4L12.3 9.2H6.7L13 55.3c1.6.3 3.5 1 5.7 1.1"/><path fill="#231F20" d="M38.3 10.2c0 1.4-8.1 2.6-18.1 2.6-10 0-18.1-1.2-18.1-2.6s8.1-2.6 18.1-2.6c10 0 18.1 1.1 18.1 2.6"/><g opacity=".71"><defs><path id="a" d="M2.5 7.8H38v9.5H2.5z"/></defs><clipPath id="b"><use xlink:href="#a" overflow="visible"/></clipPath><path clip-path="url(#b)" fill="#A39280" d="M38 12.5c0 2.6-8 4.7-17.8 4.7S2.4 15.1 2.4 12.5s8-4.7 17.8-4.7c9.9 0 17.8 2.1 17.8 4.7"/></g><path fill="#DEDDDE" d="M40.3 10.8l-1.7-2.3c0-1.9-8.3-3.5-18.5-3.5C10 5.1 1.7 6.6 1.7 8.5L0 10.8c0 2 9 4.3 20.2 4.3 11.1 0 20.1-2.3 20.1-4.3"/><path fill="#DEDDDE" d="M34.7 6.4l-1.2-3.2c0-2.1-5.9-3.2-13.2-3.2C12.9 0 7 1.1 7 3.2L5.7 6.4c0 1.7 6.5 2.8 14.5 2.8S34.7 8 34.7 6.4"/><path fill="#BDBCBC" d="M29.6 1.8c0-.7-4.2-1.3-9.3-1.3-5.2 0-9.3.6-9.3 1.3s4.2 1.3 9.3 1.3c5.1 0 9.3-.6 9.3-1.3"/><path fill="#7B7979" d="M11.2 2.2c1.1-.5 4.7-.9 9-.9s7.9.4 9 .9c.2-.1.4-.2.4-.3 0-.7-4.2-1.3-9.3-1.3-5.2 0-9.3.6-9.3 1.3-.1 0 0 .1.2.3M32.8 3c0 .3-.2.5-.4.7-.2.2-.5.3-.7.4-.5.2-1 .4-1.6.6-1.1.3-2.2.5-3.3.6-2.2.3-4.4.4-6.6.4-2.2 0-4.4-.1-6.6-.4l-3.3-.6c-.5-.2-1.1-.4-1.6-.6-.2-.1-.5-.3-.7-.4-.2-.2-.4-.4-.4-.7 0 .3.3.5.5.6.2.1.5.3.7.4.5.2 1 .3 1.6.4 1.1.2 2.2.4 3.3.5 2.2.2 4.4.3 6.6.3 2.2 0 4.4-.1 6.6-.3 1.1-.1 2.2-.3 3.3-.5.5-.1 1.1-.2 1.6-.4.3-.1.5-.2.7-.4.1-.1.3-.3.3-.6"/><g opacity=".5"><defs><path id="c" d="M5.7 6.4h28.9v3.1H5.7z"/></defs><clipPath id="d"><use xlink:href="#c" overflow="visible"/></clipPath><path clip-path="url(#d)" fill="#7B7979" d="M34.6 6.4c0 .3-.2.6-.5.8-.3.2-.5.3-.8.5-.6.3-1.2.5-1.8.6-1.3.3-2.5.5-3.8.7-2.5.3-5.1.5-7.6.5S15 9.4 12.5 9c-1.2-.2-2.5-.4-3.7-.7-.6-.2-1.2-.4-1.8-.7-.3-.1-.6-.3-.8-.4-.3-.2-.5-.5-.5-.8 0 .3.3.5.6.7.3.2.5.3.8.4.6.2 1.2.3 1.8.5 1.2.3 2.5.4 3.7.6 2.5.2 5 .4 7.5.3 2.5 0 5-.1 7.5-.3 1.3-.1 2.5-.3 3.7-.6.6-.1 1.2-.3 1.8-.5.3-.1.6-.2.8-.4.4-.2.7-.4.7-.7"/></g><g opacity=".5"><defs><path id="e" d="M1.9 8.4h36.3v4.2H1.9z"/></defs><clipPath id="f"><use xlink:href="#e" overflow="visible"/></clipPath><path clip-path="url(#f)" fill="#D3D2D2" d="M38.3 8.4c0 .4-.3.8-.6 1-.3.3-.7.5-1 .6-.7.4-1.5.6-2.3.9-1.5.4-3.1.7-4.7 1-3.2.5-6.4.6-9.5.7-3.2-.1-6.4-.2-9.5-.7-1.6-.3-3.2-.5-4.7-1-.8-.2-1.5-.5-2.3-.9-.4-.2-.7-.4-1-.6-.3-.3-.6-.6-.6-1H2c0 .4.3.7.6.9.3.2.7.4 1 .5.7.3 1.5.5 2.3.7 1.5.4 3.1.6 4.7.8 3.1.4 6.3.5 9.5.5s6.3-.1 9.5-.5c1.6-.2 3.1-.4 4.7-.8.8-.2 1.5-.4 2.3-.7.4-.1.7-.3 1-.5.3-.2.6-.5.7-.9z"/></g><g opacity=".71"><defs><path id="g" d="M6.5 39h27.4v9.2H6.5z"/></defs><clipPath id="h"><use xlink:href="#g" overflow="visible"/></clipPath><path clip-path="url(#h)" fill="#A39280" d="M33.9 43.6c0 2.5-6.1 4.6-13.7 4.6S6.5 46.1 6.5 43.6 12.6 39 20.2 39s13.7 2.1 13.7 4.6"/></g><path fill="#444142" d="M29.3 3.7c0 .3-.9.5-2.1.5-1.1 0-2.1-.2-2.1-.5s.9-.5 2.1-.5c1.2-.1 2.1.2 2.1.5"/><path fill="#231F20" d="M27.5 3.4c.8 0 1.5.1 1.8.3v-.1c0-.3-.9-.5-2.1-.5s-2.1.2-2.1.5c0 .1.1.2.2.2.3-.2 1.1-.4 2.2-.4"/><path fill="#9C8A77" d="M3.2 19.7v0"/><path fill="#806950" d="M3.3 20v.3l.1-.1-.1-.2"/><path fill="#9C8A77" d="M3.4 20.1l-.1.1.1.6.5-.5c-.3 0-.4-.1-.5-.2"/><path fill="#806950" d="M3.8 20.4l-.5.5v.2l.7-.7h-.2"/><path fill="#9C8A77" d="M4 20.4l-.6.6.1.6 1.1-1.1c-.3.1-.5 0-.6-.1"/><path fill="#806950" d="M4.5 20.6l-1.1 1.1v.2l1.2-1.2s0-.1-.1-.1"/><path fill="#9C8A77" d="M4.7 20.7l-1.2 1.2.1.6 1.7-1.7c-.2 0-.4-.1-.6-.1"/><path fill="#806950" d="M5.3 20.8l-1.7 1.7v.2l1.9-1.9c-.1.1-.2 0-.2 0"/><path fill="#9C8A77" d="M5.4 20.9l-1.9 1.9.1.6L6 21c-.2 0-.4-.1-.6-.1"/><path fill="#806950" d="M6 21l-2.4 2.4v.2L6.2 21H6"/><path fill="#9C8A77" d="M6.2 21l-2.6 2.6.1.6 3.1-3.1c-.2 0-.4 0-.6-.1"/><path fill="#806950" d="M6.8 21.2l-3.1 3.1v.2L7 21.2h-.2"/><path fill="#9C8A77" d="M7.1 21.2l-3.3 3.3.1.6 3.8-3.8c-.2 0-.4-.1-.6-.1"/><path fill="#806950" d="M7.7 21.3l-3.8 3.8v.2l4-4h-.2"/><path fill="#9C8A77" d="M7.9 21.3l-4 4 .1.7 4.6-4.6c-.3 0-.5 0-.7-.1"/><path fill="#806950" d="M8.5 21.4L4 26v.2l4.8-4.8h-.3"/><path fill="#9C8A77" d="M8.7 21.4L4 26.2l.1.6 5.3-5.3c-.2 0-.5 0-.7-.1"/><path fill="#806950" d="M9.4 21.5l-5.3 5.3v.2l5.5-5.5h-.2"/><path fill="#9C8A77" d="M9.6 21.5L4.1 27l.1.6 6.1-6.1c-.3.1-.5.1-.7 0"/><path fill="#806950" d="M10.2 21.6l-6.1 6.1v.2l6.3-6.3h-.2"/><path fill="#9C8A77" d="M10.5 21.6l-6.3 6.3.1.6 6.8-6.8c-.2 0-.4 0-.6-.1"/><path fill="#806950" d="M11.1 21.7l-6.8 6.8v.2l7-7h-.2"/><path fill="#9C8A77" d="M11.3 21.7l-7 7 .1.6 7.6-7.6c-.2.1-.4 0-.7 0"/><path fill="#806950" d="M12 21.8l-7.6 7.6v.2l7.8-7.8H12"/><path fill="#9C8A77" d="M12.2 21.8l-7.8 7.8.1.6 8.4-8.4h-.7"/><path fill="#806950" d="M12.9 21.8l-8.4 8.4v.2l8.6-8.6h-.2"/><path fill="#9C8A77" d="M13.1 21.8l-8.6 8.6.1.6 9.2-9.2c-.2.1-.5.1-.7 0"/><path fill="#806950" d="M13.8 21.9l-9.2 9.2v.2l9.4-9.4h-.2"/><path fill="#9C8A77" d="M14 21.9l-9.4 9.4.1.7 10-10c-.2-.1-.4-.1-.7-.1"/><path fill="#806950" d="M14.7 21.9l-10 10v.2L14.9 22c0-.1-.1-.1-.2-.1"/><path fill="#9C8A77" d="M14.9 21.9L4.7 32.2l.1.6L15.6 22c-.2 0-.4 0-.7-.1"/><path fill="#806950" d="M15.6 22L4.8 32.8v.2l11-11h-.2"/><path fill="#9C8A77" d="M15.9 22l-11 11 .1.6L16.6 22h-.7"/><path fill="#806950" d="M16.6 22L4.9 33.7v.2L16.8 22h-.2"/><path fill="#9C8A77" d="M16.8 22L4.9 33.9l.1.6L17.5 22h-.7"/><path fill="#806950" d="M17.5 22L5 34.5v.2L17.7 22h-.2"/><path fill="#9C8A77" d="M17.7 22L5 34.7l.1.6L18.4 22c-.2.1-.4 0-.7 0"/><path fill="#806950" d="M18.4 22.1L5.1 35.4v.2l13.5-13.5h-.2"/><path fill="#9C8A77" d="M18.7 22.1L5.1 35.6l.1.6L19.4 22c-.3.1-.5.1-.7.1"/><path fill="#806950" d="M19.4 22.1L5.2 36.2v.2L19.6 22c-.1.1-.1.1-.2.1"/><path fill="#9C8A77" d="M20.2 22.1h-.6L5.3 36.4l.1.6 15-15c-.1.1-.1.1-.2.1"/><path fill="#806950" d="M20.3 22.1l-15 15v.2l15.2-15.2h-.2"/><path fill="#9C8A77" d="M20.6 22.1L5.4 37.3l.1.6L21.4 22c-.3.1-.6.1-.8.1"/><path fill="#806950" d="M21.3 22.1L5.4 37.9v.2L21.5 22c0 .1-.1.1-.2.1"/><path fill="#9C8A77" d="M21.5 22.1l-16 16 .1.6L22.3 22c-.3.1-.5.1-.8.1"/><path fill="#806950" d="M22.3 22.1L5.5 38.8v.2l17-17c-.1 0-.1.1-.2.1"/><path fill="#9C8A77" d="M22.5 22L5.6 39l.1.6L23.3 22h-.8"/><path fill="#806950" d="M23.3 22L5.7 39.6v.2L23.5 22h-.2"/><path fill="#9C8A77" d="M23.5 22L5.7 39.8l.1.6L24.2 22h-.7"/><path fill="#806950" d="M24.2 22L5.8 40.5v.2L24.5 22h-.3"/><path fill="#9C8A77" d="M24.5 22L5.8 40.7l.1.6L25.2 22h-.7"/><path fill="#806950" d="M25.2 22L5.9 41.3v.2l19.6-19.6c-.1.1-.2.1-.3.1"/><path fill="#9C8A77" d="M25.5 21.9L5.9 41.6l.1.6 20.3-20.3h-.8"/><path fill="#806950" d="M26.3 21.9L6 42.2v.2l20.5-20.5h-.2"/><path fill="#9C8A77" d="M26.5 21.9L6 42.4l.1.6 21.2-21.2c-.3.1-.5.1-.8.1"/><path fill="#806950" d="M27.3 21.9L6.1 43.1v.2l21.4-21.4c-.1-.1-.1-.1-.2 0"/><path fill="#9C8A77" d="M27.5 21.8L6.1 43.3l.1.6 22.1-22.1h-.8"/><path fill="#806950" d="M28.3 21.8L6.2 43.9v.2l22.4-22.4c-.1.1-.2.1-.3.1"/><path fill="#9C8A77" d="M28.6 21.8L6.2 44.1l.1.6 23.1-23.1c-.3.1-.6.1-.8.2"/><path fill="#806950" d="M29.4 21.7L6.3 44.8v.2l23.3-23.3h-.2"/><path fill="#9C8A77" d="M29.6 21.7L6.3 45v.2c0 .1.1.2.1.3l23.9-23.9c-.1 0-.4 0-.7.1"/><path fill="#806950" d="M30.4 21.6L6.5 45.5l.1.1 24.1-24.1c-.1.1-.2.1-.3.1"/><path fill="#9C8A77" d="M30.7 21.6L6.6 45.7c.1.1.3.2.4.3l24.5-24.5c-.3 0-.5 0-.8.1"/><path fill="#806950" d="M31.5 21.5L7 45.9s.1.1.2.1l24.6-24.6c-.1 0-.2.1-.3.1"/><path fill="#9C8A77" d="M31.8 21.4L7.2 46c.2.1.3.1.5.2l24.9-24.9c-.3.1-.5.1-.8.1"/><path fill="#806950" d="M32.6 21.3L7.7 46.2c.1 0 .1 0 .2.1l25-25h-.3"/><path fill="#9C8A77" d="M32.9 21.3l-25 25c.2.1.4.1.6.2l25.3-25.3c-.3 0-.6 0-.9.1"/><path fill="#806950" d="M33.8 21.1L8.4 46.5c.1 0 .1 0 .2.1L34 21.2c0-.1-.1-.1-.2-.1"/><path fill="#9C8A77" d="M34.1 21.1L8.6 46.5c.2 0 .4.1.6.1L35 20.9c-.3 0-.6.1-.9.2"/><path fill="#806950" d="M35 20.9L9.2 46.7h.2l25.9-25.9c-.1 0-.2.1-.3.1"/><path fill="#9C8A77" d="M35.3 20.8L9.4 46.7c.2 0 .4.1.6.1l26.3-26.3c-.3.1-.6.2-1 .3"/><path fill="#806950" d="M37.2 19.7c0 .1 0 .1 0 0zM36.3 20.5L10 46.8h.2l26.6-26.6c-.1.1-.3.2-.5.3"/><path fill="#9C8A77" d="M37.2 19.8l-.4.4c.2-.1.4-.2.4-.4"/><path fill="#9C8A77" d="M37.2 19.8c0 .2-.2.3-.5.5L10.2 46.9c.2 0 .4.1.6.1l26.3-26.3.1-.9z"/><path fill="#806950" d="M37.1 20.6L10.8 46.9h.2l26.1-26.1v-.2z"/><path fill="#9C8A77" d="M37.1 20.9L11 47c.2 0 .4.1.6.1L37 21.7l.1-.8z"/><path fill="#806950" d="M37 21.7L11.7 47.1h.2L37 22v-.3z"/><path fill="#9C8A77" d="M37 22L11.9 47.1c.2 0 .4.1.6.1l24.3-24.3.2-.9z"/><path fill="#806950" d="M36.9 22.8L12.5 47.2h.2l24.1-24.1.1-.3z"/><path fill="#9C8A77" d="M36.8 23.1L12.7 47.2c.2 0 .4 0 .7.1L36.7 24l.1-.9z"/><path fill="#806950" d="M36.7 23.9L13.4 47.3h.2l23.1-23.1v-.3z"/><path fill="#9C8A77" d="M36.7 24.2L13.6 47.3c.2 0 .4 0 .7.1L36.6 25l.1-.8z"/><path fill="#806950" d="M36.6 25L14.3 47.3h.2l22.1-22.1V25z"/><path fill="#9C8A77" d="M36.6 25.3l-22.1 22h.7L36.5 26l.1-.7z"/><path fill="#806950" d="M36.5 26.1L15.2 47.4h.2l21-21 .1-.3z"/><path fill="#9C8A77" d="M36.4 26.4l-21 21h.7l20.2-20.2.1-.8z"/><path fill="#806950" d="M36.3 27.2L16.1 47.4h.2l20-20v-.2z"/><path fill="#9C8A77" d="M36.3 27.5l-20 20h.7l19.2-19.2.1-.8z"/><path fill="#806950" d="M36.2 28.3L17 47.5h.2l18.9-18.9.1-.3z"/><path fill="#9C8A77" d="M36.1 28.6L17.2 47.5h.7L36 29.4l.1-.8z"/><path fill="#806950" d="M36 29.4L17.9 47.5h.2L36 29.7v-.3z"/><path fill="#9C8A77" d="M36 29.7L18.2 47.5h.7l17-17 .1-.8z"/><path fill="#806950" d="M35.9 30.5l-17 17h.2l16.7-16.7.1-.3z"/><path fill="#9C8A77" d="M35.9 30.8L19.1 47.5h.7l15.9-15.9.2-.8z"/><path fill="#806950" d="M35.8 31.6l-16 15.9h.2l15.7-15.7.1-.2z"/><path fill="#9C8A77" d="M35.7 31.9L20.1 47.5h.7l14.8-14.8.1-.8z"/><path fill="#806950" d="M35.6 32.7L20.8 47.5h.2L35.6 33v-.3z"/><path fill="#9C8A77" d="M35.6 33L21 47.5h.7l13.7-13.7.2-.8z"/><path fill="#806950" d="M35.5 33.8L21.8 47.5h.2l13.4-13.4.1-.3z"/><path fill="#9C8A77" d="M35.5 34.1L22 47.5h.7l12.6-12.6.2-.8z"/><path fill="#806950" d="M35.4 34.9L22.8 47.5h.2l12.3-12.3.1-.3z"/><path fill="#9C8A77" d="M35.3 35.2L23 47.5h.7L35.2 36l.1-.8z"/><path fill="#806950" d="M35.2 36L23.7 47.5h.2l11.2-11.2.1-.3z"/><path fill="#9C8A77" d="M35.2 36.3L24 47.4h.8l10.3-10.3.1-.8z"/><path fill="#806950" d="M35.1 37.1L24.8 47.4h.3l10-10v-.3z"/><path fill="#9C8A77" d="M35.1 37.4l-10 10h.8l9.2-9.2v-.8z"/><path fill="#806950" d="M35 38.2l-9.2 9.2h.3l8.9-8.9v-.3z"/><path fill="#9C8A77" d="M34.9 38.4L26 47.3c.3 0 .5 0 .8-.1l8-8 .1-.8z"/><path fill="#806950" d="M34.8 39.3l-8 8h.3l7.7-7.7v-.3z"/><path fill="#9C8A77" d="M34.8 39.5l-7.7 7.7c.3 0 .5-.1.8-.1l6.8-6.8.1-.8z"/><path fill="#806950" d="M34.7 40.4l-6.8 6.8h.3l6.5-6.5v-.3z"/><path fill="#9C8A77" d="M34.6 40.6l-6.5 6.5c.3 0 .6-.1.8-.1l5.6-5.6.1-.8z"/><path fill="#806950" d="M34.5 41.5L29 47h.3l5.3-5.3-.1-.2z"/><path fill="#9C8A77" d="M34.5 41.7L29.2 47c.3 0 .6-.1.9-.1l4.3-4.3.1-.9z"/><path fill="#806950" d="M34.4 42.6l-4.3 4.3h.3l4-4v-.3z"/><path fill="#9C8A77" d="M34.4 42.8l-4 4c.3-.1.6-.1.9-.2l3-3 .1-.8z"/><path fill="#806950" d="M34.3 43.7l-3 3c.1 0 .2 0 .3-.1l2.6-2.6.1-.3z"/><path fill="#9C8A77" d="M34.2 43.9l-2.6 2.6c.4-.1.7-.2 1-.3l1.5-1.5.1-.8z"/><path fill="#806950" d="M32.6 46.3c.1 0 .3-.1.4-.1l1.1-1.1v-.3l-1.5 1.5z"/><path fill="#9C8A77" d="M34.1 45.2V45L33 46.1c.7-.3 1.1-.6 1.1-.9"/><defs><path id="i" d="M3.2 19.8h34.1v2.7H3.2z"/></defs><clipPath id="j"><use xlink:href="#i" overflow="visible"/></clipPath><path clip-path="url(#j)" fill="#9C8A77" d="M37.3 19.9l-.4.5c-.6.4-1.3.6-2 .7-.7.2-1.4.3-2.1.5-1.4.2-2.8.4-4.3.6-2.9.3-5.7.4-8.6.4-2.9 0-5.7-.1-8.6-.4-1.4-.2-2.8-.3-4.3-.6-.6-.3-1.3-.4-2-.6-.3-.1-.7-.2-1-.4-.3-.2-.7-.3-.8-.7v.3-.3c.1.4.5.5.8.6.3.1.7.2 1 .3.7.2 1.4.3 2.1.4 1.4.2 2.8.3 4.2.4 2.8.2 5.7.3 8.5.3s5.7-.1 8.5-.2c1.4-.1 2.8-.2 4.3-.4 1.4-.2 2.8-.3 4.1-.9l.6-.5z"/></svg>