<svg xmlns="http://www.w3.org/2000/svg" xmlns:xlink="http://www.w3.org/1999/xlink" width="55.6" height="55.6" viewBox="0 0 55.6 55.6"><path fill="#ECC57C" d="M27.8 55.6c15.4 0 27.8-12.4 27.8-27.8S43.2 0 27.8 0M27.8 0C12.4 0 0 12.4 0 27.8s12.4 27.8 27.8 27.8"/><path fill="#ECC57C" d="M27.8 35.9c-4.5 0-8.1-3.6-8.1-8.1s3.6-8.1 8.1-8.1 8.1 3.6 8.1 8.1-3.6 8.1-8.1 8.1"/><g opacity=".8"><defs><path id="a" d="M18.3 18.3h19v19h-19z"/></defs><clipPath id="b"><use xlink:href="#a" overflow="visible"/></clipPath><path clip-path="url(#b)" fill="#ECC57C" d="M27.8 19.7c4.5 0 8.1 3.6 8.1 8.1s-3.6 8.1-8.1 8.1-8.1-3.6-8.1-8.1 3.6-8.1 8.1-8.1m0-1.4c-5.2 0-9.5 4.3-9.5 9.5s4.3 9.5 9.5 9.5 9.5-4.3 9.5-9.5-4.3-9.5-9.5-9.5"/></g><g opacity=".4"><defs><path id="c" d="M16.9 16.9h21.7v21.7H16.9z"/></defs><clipPath id="d"><use xlink:href="#c" overflow="visible"/></clipPath><path clip-path="url(#d)" fill="#ECC57C" d="M27.8 19.7c4.5 0 8.1 3.6 8.1 8.1s-3.6 8.1-8.1 8.1-8.1-3.6-8.1-8.1 3.6-8.1 8.1-8.1m0-2.8c-6 0-10.9 4.9-10.9 10.9s4.9 10.9 10.9 10.9 10.9-4.9 10.9-10.9-4.9-10.9-10.9-10.9"/></g><path fill="#ECC57C" d="M27.8 55.6c15.4 0 27.8-12.4 27.8-27.8S43.2 0 27.8 0M27.8 0C12.4 0 0 12.4 0 27.8s12.4 27.8 27.8 27.8"/><path fill="#ECC57C" d="M27.8 53.7c-14.3 0-25.9-11.6-25.9-25.9 0-14.3 11.6-25.9 25.9-25.9s25.9 11.6 25.9 25.9c0 14.3-11.6 25.9-25.9 25.9"/><path fill="none" d="M55.6 55.6V0H0v55.6"/><path fill="#ECC57C" d="M27.8 53.7c14.3 0 25.9-11.6 25.9-25.9 0-14.3-11.6-25.9-25.9-25.9M27.8 1.9C13.5 1.9 1.9 13.5 1.9 27.8c0 14.3 11.6 25.9 25.9 25.9"/><path fill="#ECC57C" d="M27.8 49.2C16 49.2 6.4 39.6 6.4 27.8 6.4 16 16 6.4 27.8 6.4S49.2 16 49.2 27.8c0 11.8-9.6 21.4-21.4 21.4"/><path fill="none" d="M53.7 53.7V1.9H1.9v51.8"/><path fill="#FAEFF0" d="M27.7 6.5c-11.8 0-21.4 9.6-21.4 21.4 0 11.8 9.6 21.4 21.4 21.4s21.4-9.6 21.4-21.4c0-11.8-9.6-21.4-21.4-21.4m10.2 20.9c-.3 3.4.1 5.3-3.1 7-2.6 1.5-6.6 3.6-9.6 4-2.9.4-4.9-1-5.1-3.9-.1-1.7-1.5-2.8-2.3-4.2-.5-.8-2.3-1.5-2.5-2.5 1.9-2.4 3.4-5 5-7.6.8-1.3 1.9-2.7 3.4-3.2 1.6-.5 2.5 1 4.1.8 2.5-.3 4.4 1.2 6.8 2 3.8 1.2 3.6 4.3 3.3 7.6.1-.3.1-.6 0 0"/><path fill="#FCF4F5" d="M37.9 27.4c0 .4 0 .7 0 0"/><path fill="#F7E4E7" d="M44.5 47.5c1.4-.6 2.5-1.4 2.9-2.9-.9 1.1-1.9 2-2.9 2.9M48 11.8v-.4c-.2-1.6-1.2-2.1-2.4-2.3l2.4 2.7M1.2 22.2c-.2 1.2.2 2.2.8 3.1.2-2.1.7-4.2 1.4-6.1-1.1.7-2 1.6-2.2 3M8.8 45.5c.4 1.3 1.1 2.4 2.3 2.6.3 0 .5.1.8.2-1.1-.8-2.2-1.7-3.1-2.8M10.5 8.5c-.4.1-.8.2-1.1.3-1.6.6-2 1.8-2.1 3.2 1-1.3 2-2.4 3.2-3.5"/><path fill="#F8EAEB" d="M24.4 53.5c2-.5 3.9-2.1 6.2-2.1 1.7 0 3.4.7 5.1 0 1.7-.7 3.1-2.2 5-2.7 1.4-.4 2.7-.7 3.9-1.2 1.1-.9 2-1.9 2.9-2.9M47.4 44.6c.2-.6.3-1.4.3-2.3-.2-4 3.4-6.1 3.9-9.8.4-3.5 1.4-8-.1-11.2-.9-1.8-2.3-3.1-3.2-4.8-.8-1.4-.2-3.1-.3-4.6-.7-.9-1.5-1.8-2.4-2.6-1.5-.2-3.3 0-4.4-1.1-1.1-1-.8-2.8-2.6-3.1-1.8-.3-3.5 1-5.2 1.2-2 .3-3.4-1.2-5.3-1.3-2.4-.2-4.9 1-7.1 1.8-2.1.8-4.1 1.5-6.3 1.7-1.3.1-2.7 0-4.1.2-1.2 1-2.3 2.2-3.2 3.4-.1 1.6.1 3.5-.6 4.9-.9.9-2.2 1.6-3.3 2.4-.7 1.9-1.2 4-1.4 6.1 1.1 1.8 2.8 3.3 3.3 5.1.9 3.4-1.9 5.9 1.3 9.1 1.3 1.3 1.6 4 2.2 6.1.9 1 2 2 3.1 2.8 3.2.7 6.4 2 8.8 4.2"/><path fill="#F8EAEB" d="M27.7 49.3c-11.8 0-21.4-9.6-21.4-21.4 0-11.8 9.6-21.4 21.4-21.4 11.8 0 21.4 9.6 21.4 21.4 0 11.8-9.6 21.4-21.4 21.4"/><path fill="#FCF4F5" d="M51.5 21.3c1 2-.5-1 0 0"/><path fill="none" stroke="#D38792" stroke-width=".909" stroke-linecap="round" stroke-miterlimit="10" d="M13.2 13.6l1.1 2.4M29.1 12.6l-1.8 2.2M38 14.2l2 2.6M46.9 14.8l-.7 2.1M41.9 31h2.2M44.1 40.3l-1.5 2M34.2 42.8l.9 1.9M26.1 42.8l-3 2.6M13.2 45.1l2.5-1M12.5 33.3l1.8 1.4M9.4 25.3l-2.9-.2M17.1 18.7l1.7 1.4"/><path fill="none" stroke="#1498C3" stroke-width=".641" stroke-miterlimit="10" d="M19.2 10.5l1.6-1.3M33.2 9.2l1 2.6M33.7 15.5l-1.4.5M43.3 22.8l2.9 1.3M49 29.6L48 31M38.7 37l1.3 1.7M39.6 46.9l-.3-1.8M28.7 46.9l2-.9M26.1 40.3l1.7.5M20 44.7v1.8M11.9 40.3h1.3M18.8 35.4l-1.7 1.9M7.2 34l1.1-1.7M11.9 21.1l1.5 1.7M6.5 21.1l-1.9.4M20 12l1.2 1.6M26.1 7.4l-1.7 1.1"/></svg>