<svg xmlns="http://www.w3.org/2000/svg" xmlns:xlink="http://www.w3.org/1999/xlink" width="54.6" height="64.7" viewBox="0 0 54.6 64.7"><path fill="#597F5C" d="M21.5.1h-1.2l-6.9 5.4h2.3M41.3 5.5l-7-5.4h-1.2l5.8 5.4M38.9 5.5h2.4v5.3h-2.4zM13.4 5.5h2.4v5.3h-2.4z"/><defs><path id="a" d="M13.4 0h8.2v5.4h-8.2z"/></defs><clipPath id="b"><use xlink:href="#a" overflow="visible"/></clipPath><path clip-path="url(#b)" fill="#6A8C6C" d="M21.5 0h-1.2l-6.9 5.5h2.3"/><defs><path id="c" d="M33.1 0h8.2v5.4h-8.2z"/></defs><clipPath id="d"><use xlink:href="#c" overflow="visible"/></clipPath><path clip-path="url(#d)" fill="#6A8C6C" d="M41.3 5.5l-7-5.5h-1.2l5.8 5.5"/><defs><path id="e" d="M38.9 5.5h2.4v5.3h-2.4z"/></defs><clipPath id="f"><use xlink:href="#e" overflow="visible"/></clipPath><path clip-path="url(#f)" fill="#597F5C" d="M38.9 5.5h2.4v5.3h-2.4z"/><defs><path id="g" d="M13.4 5.5h2.4v5.3h-2.4z"/></defs><clipPath id="h"><use xlink:href="#g" overflow="visible"/></clipPath><path clip-path="url(#h)" fill="#597F5C" d="M13.4 5.5h2.4v5.3h-2.4z"/><path fill="#8BA58D" d="M19.3 5.5l4-5.4H25h-3.5l-5.8 5.4"/><path fill="#6A8C6C" d="M31.3.1l4 5.4h3.6L33.1.1h-3.4"/><path fill="#597F5C" d="M35.3 5.5v5.3h3.6V5.5"/><path fill="#8BA58D" d="M15.7 5.5h3.6v5.3h-3.6z"/><path fill="#6A8C6C" d="M29.7.1L32 5.5h3.3l-4-5.4M25 .1h-1.7l-4 5.4h3.3"/><path fill="#597F5C" d="M32 5.5h3.3H32zM19.3 5.5h3.3-3.3zM19.3 10.8h16M19.3 5.5h3.3v5.3h-3.3zM32 5.5h3.3v5.3H32z"/><path fill="#6A8C6C" d="M32 5.5L29.7.1H28l.7 5.4M25.9 5.5l.7-5.4H25l-2.4 5.4"/><path fill="#597F5C" d="M28.7 5.5H32h-3.3zM22.6 5.5h3.3-3.3zM28.7 5.5H32v5.3h-3.3zM22.6 5.5h3.3v5.3h-3.3z"/><path fill="#6A8C6C" d="M28.7 5.5L28 .1h-1.4l-.7 5.4"/><path fill="#597F5C" d="M25.9 5.5h2.8-2.8zM25.9 5.5h2.8v5.3h-2.8z"/><g opacity=".5"><defs><path id="i" d="M13.3 0h28.1v10.9H13.3z"/></defs><clipPath id="j"><use xlink:href="#i" overflow="visible"/></clipPath><path clip-path="url(#j)" fill="#CDD8CE" d="M13.4 5.5C15.7 3.7 18 1.9 20.3 0h14c2.3 1.8 4.6 3.6 6.9 5.5-2.4-1.8-4.7-3.5-7-5.3h-14c-2.1 1.8-4.5 3.5-6.8 5.3"/><path clip-path="url(#j)" fill="#CDD8CE" d="M41.3 10.8l-27.9.1h-.1V5.4h.1l27.9.1v5.3zm0 0V5.5l-27.9.1.1-.1v5.3l-.1-.1 27.9.1z"/><path clip-path="url(#j)" fill="#CDD8CE" d="M15.7 5.5c1.9-1.8 3.8-3.7 5.7-5.5H33c1.9 1.8 3.8 3.6 5.7 5.5C36.9 3.7 35 2 33 .2h.1-11.6.1c-2 1.8-3.9 3.5-5.9 5.3"/><path clip-path="url(#j)" fill="#CDD8CE" d="M38.9 10.8c-7.7.1-15.4.1-23.1.1h-.1V5.4h.1l23.1.1v5.3zm0 0V5.5l-23.2.1.1-.1v5.3l-.1-.1c7.8 0 15.5 0 23.2.1"/><path clip-path="url(#j)" fill="#CDD8CE" d="M19.3 5.5c1.3-1.8 2.6-3.6 3.9-5.5h8c1.3 1.8 2.6 3.6 3.9 5.5-1.4-1.8-2.7-3.6-4.1-5.4h.1-8 .1C22 2 20.7 3.7 19.3 5.5"/><path clip-path="url(#j)" fill="#CDD8CE" d="M35.3 10.8c-5.3.1-10.7.1-16 .1h-.1V5.4h.1l16 .1h.1v.1l-.1 5.2zm0 0l-.1-5.3.1.1-16 .1.1-.1v5.3l-.1-.1h16"/><path clip-path="url(#j)" fill="#CDD8CE" d="M22.6 5.5c.7-1.8 1.5-3.6 2.3-5.4V0H29.8v.1c.8 1.8 1.6 3.6 2.3 5.4L29.7.1l.1.1h-4.7L25 .1l-2.4 5.4"/><path clip-path="url(#j)" fill="#CDD8CE" d="M32 10.8c-3.1.1-6.3.1-9.4.1h-.1V5.4h9.6v.1l-.1 5.3zm0 0V5.5v.1h-9.4l.1-.1v5.3l-.1-.1c3.1.1 6.3.1 9.4.1"/><path clip-path="url(#j)" fill="#CDD8CE" d="M25.9 5.5l.6-5.4V0h1.6v.1l.6 5.4c-.3-1.8-.6-3.6-.8-5.4l.1.1h-1.4l.1-.1c-.2 1.8-.5 3.6-.8 5.4"/><path clip-path="url(#j)" fill="#CDD8CE" d="M28.7 10.8c-.9 0-1.9.1-2.8.1h-.1V5.4h3v.1c0 1.8 0 3.5-.1 5.3m0 0c-.1-1.8-.1-3.5-.1-5.3l.1.1h-2.8l.1-.1v5.3l-.1-.1c.9.1 1.9.1 2.8.1"/></g><g opacity=".5"><defs><path id="k" d="M13.3.1h28v5.4h-28z"/></defs><clipPath id="l"><use xlink:href="#k" overflow="visible"/></clipPath><path clip-path="url(#l)" fill="#6A8C6C" d="M27.3.1l-14 5.4h28"/></g><g opacity=".5"><defs><path id="m" d="M13.3 5.5h28v5.3h-28z"/></defs><clipPath id="n"><use xlink:href="#m" overflow="visible"/></clipPath><path clip-path="url(#n)" fill="#6A8C6C" d="M27.3 10.8l14-5.3h-28"/></g><path fill="#BCA66D" d="M6.1 20.2S11.5 14 11.5 10h15.8v3.9l-15.1 2.8-4.6 4.8-1.5-1.3zM48.5 20.2S43.1 14 43.1 10H27.3v3.9l15.1 2.8 4.6 4.8 1.5-1.3z"/><circle fill="none" stroke="#BCA66D" stroke-width="5.389" stroke-miterlimit="10" cx="27.3" cy="37.4" r="24.6"/><path fill="#C9B88A" d="M27.3 15.4c12.1 0 21.9 9.8 21.9 21.9 0 12.1-9.8 21.9-21.9 21.9-12.1 0-21.9-9.8-21.9-21.9 0-12 9.8-21.9 21.9-21.9m0-2.1c-13.3 0-24 10.8-24 24.1s10.8 24.1 24.1 24.1 24.1-10.8 24.1-24.1c-.1-13.3-10.9-24.1-24.2-24.1"/><path fill="#BCA66D" d="M11 9.6h32.6v.8H11z"/><g><defs><path id="o" d="M11.5 10.4h31.6v.4H11.5z"/></defs><clipPath id="p"><use xlink:href="#o" overflow="visible"/></clipPath><path clip-path="url(#p)" fill="#BCA66D" d="M11.5 10.4h31.6v.4H11.5z"/></g></svg>