<svg xmlns="http://www.w3.org/2000/svg" xmlns:xlink="http://www.w3.org/1999/xlink" width="54.6" height="34.7" viewBox="0 0 54.6 34.7"><path fill="#E8E5D1" d="M53.8.6L27.3 20.2.9.6C.3 1.1 0 1.8 0 2.5v29.7c0 1.4 1.1 2.5 2.5 2.5h49.6c1.4 0 2.5-1.1 2.5-2.5V2.5c0-.7-.3-1.4-.8-1.9"/><path fill="none" d="M53.5.8c-.1 0-.1-.1-.1-.1-.1-.1-.1-.1-.2-.1s-.1-.1-.2-.1c-.1-.1-.3-.1-.4-.1H2.2c-.2 0-.4.1-.5.1-.1 0-.1.1-.2.1s-.2.1-.2.2c0 0-.1 0-.1.1-.4.4-.7 1-.7 1.6v29.7c0 .6.3 1.2.7 1.6l.1.1.3.3.2.1-.1.3.2-.3H2c.1 0 .2.1.3.1h50.4c.1 0 .2 0 .2-.1h.2l.2-.1.3-.2.1-.1c.5-.4.7-1 .7-1.6V2.5c-.1-.6-.4-1.2-.9-1.7zM52 32H2.7V2.6H52V32z"/><defs><path id="a" d="M.9 13.7h52.9v20.2H.9z"/></defs><clipPath id="b"><use xlink:href="#a" overflow="visible"/></clipPath><path clip-path="url(#b)" fill="#E8E5D1" d="M.9 33.3c.4.4 1 .6 1.6.6h49.6c.6 0 1.2-.2 1.6-.6L27.3 13.7.9 33.3z"/><path fill="#E8E5D1" d="M.9 34.1c.4.4 1 .6 1.6.6h49.6c.6 0 1.2-.2 1.6-.6L27.3 14.5.9 34.1z"/><g opacity=".7"><defs><path id="c" d="M.9 14.6h52.9v20H.9z"/></defs><clipPath id="d"><use xlink:href="#c" overflow="visible"/></clipPath><path clip-path="url(#d)" fill="#E8E5D1" d="M27.3 15.4l25.9 19.2c.2-.1.4-.2.6-.4L27.3 14.6.9 34.2c.2.2.4.3.6.4l25.8-19.2z"/></g><path fill="#231F20" d="M53.8.6c-.4-.4-1-.6-1.6-.6H2.5C1.9 0 1.3.2.9.6l26.5 19.6L53.8.6z"/><path fill="#E8E5D1" d="M53.8.6c-.4-.4-1-.6-1.6-.6H2.5C1.9 0 1.3.2.9.6l26.5 19.6L53.8.6z"/><defs><path id="e" d="M19.7 11.9h15.2v15.2H19.7z"/></defs><clipPath id="f"><use xlink:href="#e" overflow="visible"/></clipPath><circle clip-path="url(#f)" fill="none" stroke="#872237" stroke-width="1.638" stroke-miterlimit="10" cx="27.3" cy="19.5" r="6.8"/><path clip-path="url(#f)" fill="#872237" d="M23.3 21.5c.8 1.6 2.6 2.7 4.5 2.4 1.9-.2 3.4-1.7 3.8-3.5l-8.3 1.1zM31.3 17.5c-.8-1.6-2.6-2.7-4.5-2.4s-3.4 1.7-3.8 3.5l8.3-1.1z"/><path transform="rotate(-7.175 23.542 19.947)" clip-path="url(#f)" fill="#872237" d="M23.1 19h.9v1.9h-.9z"/><path transform="rotate(-7.207 24.727 20.082)" clip-path="url(#f)" fill="#872237" d="M24.4 19.4h.6v1.3h-.6z"/><path transform="rotate(-7.115 27.178 19.506)" clip-path="url(#f)" fill="#872237" d="M25.9 18.6h2.6v1.9h-2.6z"/><path transform="rotate(-7.022 28.966 19.417)" clip-path="url(#f)" fill="#872237" d="M28.7 18.6h.5v1.6h-.5z"/><path transform="rotate(-7.115 30.656 19.062)" clip-path="url(#f)" fill="#872237" d="M29.8 18.1h1.6V20h-1.6z"/><g><defs><path id="g" d="M19.7 11.9h15.2v15.2H19.7z"/></defs><clipPath id="h"><use xlink:href="#g" overflow="visible"/></clipPath><circle clip-path="url(#h)" fill="none" stroke="#872237" stroke-width="1.638" stroke-miterlimit="10" cx="27.3" cy="19.5" r="6.8"/><path clip-path="url(#h)" fill="#872237" d="M23.3 21.5c.8 1.6 2.6 2.7 4.5 2.4 1.9-.2 3.4-1.7 3.8-3.5l-8.3 1.1zM31.3 17.5c-.8-1.6-2.6-2.7-4.5-2.4s-3.4 1.7-3.8 3.5l8.3-1.1z"/><path transform="rotate(-7.175 23.542 19.947)" clip-path="url(#h)" fill="#872237" d="M23.1 19h.9v1.9h-.9z"/><path transform="rotate(-7.207 24.727 20.082)" clip-path="url(#h)" fill="#872237" d="M24.4 19.4h.6v1.3h-.6z"/><path transform="rotate(-7.115 27.178 19.506)" clip-path="url(#h)" fill="#872237" d="M25.9 18.6h2.6v1.9h-2.6z"/><path transform="rotate(-7.022 28.966 19.417)" clip-path="url(#h)" fill="#872237" d="M28.7 18.6h.5v1.6h-.5z"/><path transform="rotate(-7.115 30.656 19.062)" clip-path="url(#h)" fill="#872237" d="M29.8 18.1h1.6V20h-1.6z"/></g><g><defs><path id="i" d="M.9.6h52.9v23.2H.9z"/></defs><clipPath id="j"><use xlink:href="#i" overflow="visible"/></clipPath><path clip-path="url(#j)" fill="#E8E5D1" d="M27.3 20.2L.9.6l26.4 23.2L53.8.6"/></g><g opacity=".7"><defs><path id="k" d="M.9 0h52.9v20.2H.9z"/></defs><clipPath id="l"><use xlink:href="#k" overflow="visible"/></clipPath><path clip-path="url(#l)" fill="#E8E5D1" d="M27.3 17.7L2.2 0C1.7.1 1.2.3.9.6l26.5 19.6L53.8.6c-.4-.3-.8-.5-1.3-.6L27.3 17.7z"/></g></svg>