<svg xmlns="http://www.w3.org/2000/svg" xmlns:xlink="http://www.w3.org/1999/xlink" width="39.2" height="55.6" viewBox="0 0 39.2 55.6"><path fill="#E9E9E9" d="M39.2 53c0 1.4-1.2 2.6-2.6 2.6h-34C1.2 55.6 0 54.4 0 53V2.6C0 1.2 1.2 0 2.6 0h34c1.4 0 2.6 1.2 2.6 2.6V53z"/><g opacity=".5"><defs><path id="a" d="M.6.9h38.6v54.7H.6z"/></defs><clipPath id="b"><use xlink:href="#a" overflow="visible"/></clipPath><path clip-path="url(#b)" fill="#252A26" d="M38.2 1.5c.2.3.4.7.4 1.1V53c0 1-.8 1.9-1.9 1.9h-34c-.6 0-1.2-.3-1.5-.8l-.4.6c.5.6 1.2.9 2 .9h34c1.4 0 2.6-1.2 2.6-2.6V2.6c0-.7-.2-1.2-.6-1.7l-.6.6z"/></g><g opacity=".5"><defs><path id="c" d="M0 0h38.6v54.7H0z"/></defs><clipPath id="d"><use xlink:href="#c" overflow="visible"/></clipPath><path clip-path="url(#d)" fill="#FFF" d="M.7 53V2.6c0-1 .8-1.9 1.9-1.9h34c.6 0 1.2.3 1.5.8l.4-.6c-.5-.6-1.2-.9-2-.9h-34C1.2 0 0 1.2 0 2.6V53c0 .7.2 1.2.6 1.7l.4-.6c-.2-.3-.3-.7-.3-1.1"/></g><defs><path id="e" d="M5.2 3.7h28.7v20.7H5.2z"/></defs><clipPath id="f"><use xlink:href="#e" overflow="visible"/></clipPath><path clip-path="url(#f)" fill="#7B7979" d="M33.9 23.3c0 .6-.5 1-1 1H6.2c-.6 0-1-.5-1-1V4.7c0-.6.5-1 1-1h26.7c.6 0 1 .5 1 1v18.6z"/><path fill="#B9E0ED" d="M33.9 23.4c0 .6-.4 1-1 1H6.4c-.6 0-1-.4-1-1V4.9c0-.6.4-1 1-1h26.5c.6 0 1 .4 1 1v18.5z"/><path fill="#D0D3D0" d="M31 39.3c0 6.3-5.1 11.4-11.4 11.4-6.3 0-11.4-5.1-11.4-11.4 0-6.3 5.1-11.4 11.4-11.4C25.9 27.9 31 33 31 39.3"/><path fill="#F4F4F4" d="M23.2 39.3c0 2-1.6 3.6-3.6 3.6S16 41.3 16 39.3s1.6-3.6 3.6-3.6 3.6 1.6 3.6 3.6M18.3 29.5h2.4v1.1h-2.4zM18.3 48.6h2.4v1.1h-2.4zM9.3 38.8h2.4v1.1H9.3zM27.3 38.8h2.4v1.1h-2.4z"/><path fill="#BDBCBC" d="M6.1 4.6H33v1.9H6.1z"/><path fill="#FFF" d="M8 20.9h23.2v1.4H8z"/><path fill="#1498C3" d="M8 20.9h4.1v1.4H8z"/><path fill="#D6543B" d="M18.9 17.9l-10.1 1V7.8l10.1 1"/><path d="M21.5 10.3h1v1.3h-1zM22.5 10.3h1v1.3h-1zM23.5 10.3h1v1.3h-1zM24.5 10.3h1v1.3h-1zM25.5 10.3h1v1.3h-1zM26.5 10.3h1v1.3h-1zM27.5 10.3h1v1.3h-1zM28.5 10.3h1v1.3h-1zM29.5 10.3h1v1.3h-1zM21.5 12.7h1V14h-1zM22.5 12.7h1V14h-1zM23.5 12.7h1V14h-1zM24.5 12.7h1V14h-1zM25.5 12.7h1V14h-1zM26.5 12.7h1V14h-1zM27.5 12.7h1V14h-1zM28.5 12.7h1V14h-1zM21.5 15.1h1v1.3h-1zM22.5 15.1h1v1.3h-1zM23.5 15.1h1v1.3h-1zM24.5 15.1h1v1.3h-1zM25.5 15.1h1v1.3h-1z"/><g opacity=".3"><defs><path id="g" d="M0 0h38.6v54.7H0z"/></defs><clipPath id="h"><use xlink:href="#g" overflow="visible"/></clipPath><path clip-path="url(#h)" fill="#FFF" d="M38.6.9c-.5-.6-1.2-.9-2-.9h-34C1.2 0 0 1.2 0 2.6V53c0 .6.2 1.2.6 1.7L38.6.9z"/></g></svg>