<svg xmlns="http://www.w3.org/2000/svg" xmlns:xlink="http://www.w3.org/1999/xlink" width="46.3" height="79.3" viewBox="0 0 46.3 79.3"><path fill="none" stroke="#464A47" stroke-width="2.238" stroke-miterlimit="10" d="M19.5 11.5C4 11.5-2.4 25 3 39.2c4.3 11.1 11 20.2 11 32.5"/><path fill="#717572" d="M19.5 11.5s-.3 0-.8.1-1.3.1-2.3.2c-1 .2-2.2.4-3.5.9-.3.1-.7.2-1 .3-.3.2-.7.3-1 .5-.3.2-.7.3-1.1.5-.3.2-.7.5-1 .7-1.4.9-2.7 2.2-4 3.7C3.6 20 2.6 21.8 2 23.9c-.6 2.1-.9 4.3-.8 6.5 0 1.1.2 2.2.4 3.4.1.6.3 1.1.4 1.7.1.6.3 1.1.5 1.6.7 2.2 1.7 4.3 2.6 6.3.9 2.1 1.9 4.1 2.8 6 1.9 3.9 3.5 7.6 4.5 10.9.3.8.4 1.6.7 2.4.2.8.3 1.5.5 2.2.2 1.4.4 2.6.4 3.6.1 1 .1 1.8.1 2.3v.8H14s0-.3-.1-.8c0-.5-.1-1.3-.2-2.3-.1-1-.3-2.2-.6-3.6s-.7-2.9-1.2-4.5-1.2-3.4-2-5.2c-.8-1.8-1.6-3.7-2.6-5.6-.9-2-1.9-4-2.8-6.1-.9-2.1-1.8-4.2-2.4-6.4-.2-.5-.3-1.1-.4-1.7-.1-.6-.3-1.1-.4-1.7-.1-1.1-.4-2.3-.3-3.4-.2-2.3.2-4.5.6-6.6.2-.5.3-1 .5-1.5.1-.5.4-1 .6-1.5.4-1 1-1.8 1.5-2.7 1.2-1.6 2.6-2.9 4.1-3.8.4-.2.7-.5 1.1-.7.4-.2.8-.3 1.1-.5.4-.2.7-.3 1.1-.5.4-.1.7-.2 1.1-.3 1.3-.5 2.6-.6 3.6-.7 1-.1 1.8-.1 2.3-.1.6 0 .9 0 .9.1z"/><path fill="#A82526" d="M32.3 16.7v-2h-7.2v2c-.7.4-1 1.2-1 1.2h9.2s-.3-.8-1-1.2M17.2 23.3h23v45.6h-23z"/><path fill="#A82526" d="M40.2 23.3c0 3.4-5.2 6.2-11.5 6.2-6.4 0-11.5-2.8-11.5-6.2s5.2-6.2 11.5-6.2c6.4 0 11.5 2.8 11.5 6.2"/><g opacity=".2"><defs><path id="a" d="M17.2 14.8h8.6V69h-8.6z"/></defs><clipPath id="b"><use xlink:href="#a" overflow="visible"/></clipPath><path clip-path="url(#b)" fill="#A82526" d="M25.1 17.6c.1-.3.3-.6.7-.9v-2h-.6v2c-.4.2-.7.6-.8.9-4.2.9-7.1 3.1-7.1 5.7v45.6h2.1V23.4c-.1-2.6 2.3-4.8 5.7-5.8"/></g><g opacity=".6"><defs><path id="c" d="M31.6 14.8h8.6V69h-8.6z"/></defs><clipPath id="d"><use xlink:href="#c" overflow="visible"/></clipPath><path clip-path="url(#d)" fill="#A82526" d="M33.1 17.6c-.1-.3-.4-.6-.8-.9v-2h-.7v2c.4.2.6.6.7.9 3.4.9 5.8 3.1 5.8 5.7v45.6h2.1V23.4c0-2.6-2.9-4.8-7.1-5.8"/></g><g opacity=".2"><defs><path id="e" d="M19.3 14.8h18.8V69H19.3z"/></defs><clipPath id="f"><use xlink:href="#e" overflow="visible"/></clipPath><path clip-path="url(#f)" fill="#E5BEBE" d="M27.3 17.6c.1-.3.2-.6.5-.9v-2h-2v2c-.4.2-.6.6-.7.9-3.4.9-5.8 3.1-5.8 5.7v45.6h3.6V23.4c0-2.6 1.8-4.8 4.4-5.8M34.2 18.3c1.8 1.1 3 3 3 5v45.6h1V23.4c-.1-2.1-1.6-4-4-5.1"/></g><path fill="#C1C4C0" d="M21.7 10.2h.3v2.5h-.3z"/><g opacity=".3"><defs><path id="g" d="M21.7 10.7h.3v.6h-.3z"/></defs><clipPath id="h"><use xlink:href="#g" overflow="visible"/></clipPath><path clip-path="url(#h)" fill="#C1C4C0" d="M21.7 10.7h.3v.6h-.3z"/></g><path fill="#C1C4C0" d="M18.4 9.9h3.3v3h-3.3z"/><path fill="#929791" d="M21.8 12.5h.3v.2h-.3zM21.8 10.2h.3v.2h-.3zM18.4 12.7v.3h3.4v-.3h-.1M21.8 10.2v-.3h-3.4v.3h3.3"/><g opacity=".3"><defs><path id="i" d="M18.4 10.5h3.3v.8h-3.3z"/></defs><clipPath id="j"><use xlink:href="#i" overflow="visible"/></clipPath><path clip-path="url(#j)" fill="#C1C4C0" d="M18.4 10.5h3.3v.8h-3.3z"/></g><path fill="#636B62" d="M21.8 10.3s0 .6.1 1.2c0 .6-.1 1.2-.1 1.2v-2.4z"/><path fill="#C1C4C0" d="M12.8 71.9h2.5v.3h-2.5z"/><g opacity=".3"><defs><path id="k" d="M14.2 71.9h.6v.3h-.6z"/></defs><clipPath id="l"><use xlink:href="#k" overflow="visible"/></clipPath><path clip-path="url(#l)" fill="#C1C4C0" d="M14.2 71.9h.6v.3h-.6z"/></g><path fill="#C1C4C0" d="M12.5 68.6h3v3.3h-3z"/><path fill="#929791" d="M12.8 71.9h.2v.3h-.2zM15 71.9h.2v.3H15zM12.8 68.6h-.3v3.3h.3M15.3 71.9h.2v-3.3h-.2v3.3"/><g opacity=".3"><defs><path id="m" d="M14.2 68.6h.8v3.3h-.8z"/></defs><clipPath id="n"><use xlink:href="#m" overflow="visible"/></clipPath><path clip-path="url(#n)" fill="#C1C4C0" d="M14.2 68.6h.8v3.3h-.8z"/></g><path fill="#636B62" d="M15.2 71.9s-.6 0-1.2.1c-.6 0-1.2-.1-1.2-.1h2.4zM23.2 10.1h2v2.7h-2z"/><path fill="none" stroke="#872237" stroke-width=".959" stroke-miterlimit="10" d="M32.5 9.8s.2 2.5-2.3 2.9"/><path fill="#B52126" d="M30.5 6.9l2.5 1 4.3.9 5.6 1.7 3.3 1.6s.2.4 0 .5l-.6.3-2-1.1-9.5-1.9h-3.7s-.2 0-.2-.2v-.2h-5.1l5.4-2.6z"/><path fill="#68111E" d="M45.6 12.9c-.7-.3-1.4-.7-2-1-1.6-.3-3.2-.6-4.7-1-1.6-.4-3.2-.6-4.7-.9-1.2 0-2.5.1-3.7 0-.1 0-.1 0-.2-.1-.1 0-.1-.1-.1-.2v-.2l.2.2c-.8 0-1.7 0-2.5-.1-.8 0-1.7 0-2.5-.1.8-.1 1.7-.1 2.5-.1s1.7-.1 2.5-.1h.2v.4h3.7c1.6.4 3.1.8 4.7 1 1.6.3 3.2.6 4.7.9.6.5 1.3.9 1.9 1.3z"/><path fill="#B69C5B" d="M32.2 14.8s.2-.4-.4-.7l-1-.5s-.2-.1-.2-.7-.5-1.1-.5-1.1v-1.6s-.1-.5.3-.6l-6.1-.2v3s.1 1.3 1 1.6v.8h6.9z"/><g opacity=".3"><defs><path id="o" d="M24.8 9.4h1.6v5.4h-1.6z"/></defs><clipPath id="p"><use xlink:href="#o" overflow="visible"/></clipPath><path clip-path="url(#p)" fill="#B69C5B" d="M25.6 12.4v-3h-.8v3s.1 1.3 1 1.6v.8h.5V14c-.6-.3-.7-1.6-.7-1.6"/></g><g opacity=".4"><defs><path id="q" d="M29.2 9.6h2.9v5.2h-2.9z"/></defs><clipPath id="r"><use xlink:href="#q" overflow="visible"/></clipPath><path clip-path="url(#r)" fill="#B69C5B" d="M29.5 9.6c-.3.2-.2.6-.2.6v1.6s.4.5.4 1.1c0 .6.1.7.1.7s.3.2.7.5c.4.3.3.7.3.7h1.3s.2-.4-.4-.7l-1-.5s-.2-.1-.2-.7-.5-1.1-.5-1.1v-1.6s-.1-.5.3-.6"/></g><path fill="#B69C5B" d="M42 16.1"/><path fill="#231F20" d="M11.7 70.1h4.7v7.8h-4.7z"/><defs><path id="s" d="M15.8 70.1h.4v7.8h-.4z"/></defs><clipPath id="t"><use xlink:href="#s" overflow="visible"/></clipPath><path clip-path="url(#t)" fill="#231F20" d="M15.8 70.1h.4v7.8h-.4z"/><path fill="#231F20" d="M16.2 69.6h25v9.7h-25zM40.3 68H17.1l-.9 1.6h25"/><g opacity=".4"><defs><path id="u" d="M16.2 68h3.2v1.6h-3.2z"/></defs><clipPath id="v"><use xlink:href="#u" overflow="visible"/></clipPath><path clip-path="url(#v)" fill="#231F20" d="M17.1 68l-.9 1.6h2.5l.7-1.6"/></g><g opacity=".4"><defs><path id="w" d="M36.2 68h5v1.6h-5z"/></defs><clipPath id="x"><use xlink:href="#w" overflow="visible"/></clipPath><path clip-path="url(#x)" fill="#231F20" d="M40.3 68h-4.1l.7 1.6h4.3"/></g><path fill="#706D6E" d="M19.4 68l-.7 1.6h3.7l.4-1.6"/><path fill="#5A5758" d="M35.1 68l.5 1.6h1.3l-.7-1.6"/><path fill="#7B7979" d="M16.3 69.6H41s-1.5.1-3.9.2c-1.2 0-2.5.1-4 .1h-9c-1.4 0-2.8-.1-4-.1-2.2-.1-3.8-.2-3.8-.2z"/><path fill="#B69C5B" d="M28.1 12.5c0 1.1-.9 2-2 2s-2-.9-2-2 .9-2 2-2 2 .9 2 2"/><circle fill="none" stroke="#9E7E64" stroke-width=".24" stroke-miterlimit="10" cx="26.1" cy="12.5" r="1.6"/><path fill="#FAF9F7" d="M27.5 12.5c0 .8-.6 1.4-1.4 1.4s-1.4-.6-1.4-1.4c0-.8.6-1.4 1.4-1.4s1.4.6 1.4 1.4"/><path fill="#C82257" d="M26.1 11.1c-.7 0-1.3.5-1.4 1.2l.8.7c0-.3.3-.6.6-.6s.5.2.6.6l.8-.7c-.1-.7-.7-1.2-1.4-1.2"/><path fill="#7EA885" d="M25.6 11.2l.3 1.3c.1 0 .2-.1.3-.1s.2 0 .3.1l.3-1.3c-.2-.1-.4-.1-.5-.1-.4 0-.6 0-.7.1"/><path fill="#252A26" d="M26.1 11.3v2.2h-.2"/><path fill="#858885" d="M26.1 11.3v2.2h.2"/><path fill="#9FA1A0" d="M24.7 12.5c0-.8.6-1.4 1.4-1.4.8 0 1.4.6 1.4 1.4v.1h.1v-.1c0-.8-.7-1.5-1.5-1.5s-1.5.7-1.4 1.5c-.1 0-.1.1-.1.1.1 0 .1 0 .1-.1"/><path fill="#515551" d="M26.1 14c.8 0 1.4-.6 1.5-1.4h-.1c0 .7-.6 1.3-1.4 1.4-.7-.1-1.3-.7-1.4-1.4h-.1c.1.8.7 1.4 1.5 1.4"/><g opacity=".3"><defs><path id="y" d="M24.5 10.8h3.3v3.3h-3.3z"/></defs><clipPath id="z"><use xlink:href="#y" overflow="visible"/></clipPath><g clip-path="url(#z)"><defs><path id="A" d="M24.5 12.4h3.3v1.7h-3.3z"/></defs><clipPath id="B"><use xlink:href="#A" overflow="visible"/></clipPath><path clip-path="url(#B)" fill="#9E7E64" d="M27.6 12.5c0 .8-.7 1.5-1.5 1.5s-1.5-.7-1.5-1.5l-.1-.1v.1c0 .9.7 1.6 1.6 1.6.9 0 1.6-.7 1.6-1.6v-.1l-.1.1"/></g><g clip-path="url(#z)"><defs><path id="C" d="M24.5 10.8h3.3v1.6h-3.3z"/></defs><clipPath id="D"><use xlink:href="#C" overflow="visible"/></clipPath><path clip-path="url(#D)" fill="#8E7963" d="M26.1 10.8c-.9 0-1.6.7-1.6 1.5l.1.1c0-.8.7-1.5 1.5-1.5s1.5.7 1.5 1.5l.1-.1c0-.8-.7-1.5-1.6-1.5"/></g></g><path fill="#595D5A" d="M26.3 13.5c0 .1-.1.2-.2.2s-.2-.1-.2-.2.1-.2.2-.2.2.1.2.2"/><path fill="#C0C1C0" d="M26.2 13.5c0 .1-.1.1-.1.1-.1 0-.1-.1-.1-.1 0-.1.1-.1.1-.1.1 0 .1.1.1.1"/><path fill="#252A26" d="M26.2 13.5c0 .1 0 .1 0 0-.1.1-.1 0-.1 0h.1"/><defs><path id="E" d="M28 11.7h1.9v.2H28z"/></defs><clipPath id="F"><use xlink:href="#E" overflow="visible"/></clipPath><path clip-path="url(#F)" fill="#B69C5B" d="M29.9 11.8h-2 2"/><defs><path id="G" d="M27.8 13.4h2.7v.2h-2.7z"/></defs><clipPath id="H"><use xlink:href="#G" overflow="visible"/></clipPath><path clip-path="url(#H)" fill="#B69C5B" d="M30.5 13.5h-2.6 2.6"/><path fill="#B52126" d="M24.1 9.5V7.7l-.7-.3.4-1.4 5.5-2.6L41.4 0s.7-.3 1.1 0c.4.3.5.5.5.5l-1.8 1h-.7l-9 3.2-1 2.9s-.2.6-.9.8c-.7.2-4.1 1.1-4.1 1.1h-1.4z"/><path fill="#68111E" d="M42.9.6c-.6.4-1.1.7-1.7 1.1h-.7c-1.5.6-3 1.1-4.5 1.5-1.5.5-3 1.1-4.5 1.6l.1-.1-.6 2-.2.5c-.1.2-.1.3-.2.5s-.2.3-.4.5c-.2.1-.3.2-.5.3-1.4.4-2.8.7-4.1 1-.5 0-1 0-1.4-.1.5 0 1-.1 1.4-.1 1.4-.4 2.7-.8 4.1-1.2.2 0 .3-.1.4-.2.1-.1.2-.2.3-.4.1-.1.1-.3.2-.5l.2-.5.7-2v-.1h.1l4.5-1.5c1.5-.6 3-1.1 4.5-1.6h.7c.4-.1 1-.4 1.6-.7z"/><path fill="#D2C39B" d="M25.8 8.4c0 .3-.2.5-.5.5s-.5-.2-.5-.5.2-.5.5-.5.5.2.5.5"/><path fill="#F8F5EF" d="M25.4 8.3c0 .1-.1.2-.2.2s-.2-.1-.2-.2.1-.2.2-.2.2.1.2.2"/><path fill="#D2C39B" d="M29.5 7.3c0 .2-.2.4-.4.4s-.4-.2-.4-.4.2-.4.4-.4.4.2.4.4"/><path fill="#F8F5EF" d="M29.2 7.2c0 .1-.1.1-.1.1l-.2-.1c0-.1.1-.2.2-.2s.1.1.1.2"/><path fill="#696767" d="M22 12.6h1.4v.3H22z"/><path fill="#A7A5A6" d="M22 9.9h1.4v.9H22z"/><path fill="#918F90" d="M22 10.8h1.4v1.9H22z"/><path fill="#E0E0E0" d="M22.1 10.8h1.2-1.2"/><g><defs><path id="I" d="M25.3 16.7H32v.2h-6.7z"/></defs><clipPath id="J"><use xlink:href="#I" overflow="visible"/></clipPath><path clip-path="url(#J)" fill="#872237" d="M25.3 16.7h6.6-5.6c-.5.1-1 0-1 0"/></g><g><defs><path id="K" d="M24.6 17.5h8.2v.2h-8.2z"/></defs><clipPath id="L"><use xlink:href="#K" overflow="visible"/></clipPath><path clip-path="url(#L)" fill="#872237" d="M24.6 17.6h8.2-8.2"/></g></svg>