<svg xmlns="http://www.w3.org/2000/svg" xmlns:xlink="http://www.w3.org/1999/xlink" width="64.1" height="43.4" viewBox="0 0 64.1 43.4"><path fill="#4F4C4D" d="M30.2 37h3.7v5.3h-3.7z"/><defs><path id="a" d="M30.2 38.7H34v1.2h-3.8z"/></defs><clipPath id="b"><use xlink:href="#a" overflow="visible"/></clipPath><path clip-path="url(#b)" fill="#353132" d="M30.2 38.7h3.7v1.2h-3.7z"/><path fill="#4F4C4D" d="M0 0h64.1v37.8H0z"/><path fill="#393536" d="M0 37.7l32.1-.1 32.1.1v.2c-2.7.3-5.3.4-8 .7l-8 .4c-5.3.2-10.7.3-16 .3-5.3 0-10.7-.1-16-.3l-8-.4c-2.7-.2-5.3-.4-8-.7v-.2z"/><path fill="#231F20" d="M2.1 34.8v.3H62V1.4h-.4"/><path fill="#2A2627" d="M2.1 1.4v33.4L61.6 1.4"/><path fill="#E9E9E9" d="M28.8 36h6.5v.7h-6.5z"/><path fill="#B52126" d="M61.3 36.4c0 .2.2.4.4.4s.4-.2.4-.4-.3-.4-.5-.4-.3.2-.3.4"/><path fill="#DA9093" d="M61.3 36.3c0 .1.1.1.1.1l.1-.1c0-.1-.1-.1-.1-.1s-.1 0-.1.1"/><path fill="#353132" d="M19.9 42.4h24v1h-24z"/></svg>