<svg xmlns="http://www.w3.org/2000/svg" xmlns:xlink="http://www.w3.org/1999/xlink" width="45" height="45" viewBox="0 0 45 45"><path fill="#473F65" d="M34.4.3h.2v14.4c0 .6-.5 1-1 1h-27c-.6 0-1-.4-1-1V.3H1C.6.3.3.6.3 1v43c0 .4.3.7.7.7h43c.4 0 .7-.3.7-.7V3.7L41.3.3h-6.9zM44.1 42h-3.3v-2.7h3.3V42z"/><defs><path id="a" d="M40.8 39.1h3.3v3h-3.3z"/></defs><clipPath id="b"><use xlink:href="#a" overflow="visible"/></clipPath><path clip-path="url(#b)" fill="#473F65" d="M40.8 42.1h3.3v-3h-3.3v3zm.1-2.8h3V42h-3v-2.7z"/><defs><path id="c" d="M0 44h1v1H0z"/></defs><clipPath id="d"><use xlink:href="#c" overflow="visible"/></clipPath><g clip-path="url(#d)"><defs><path id="e" d="M0 44c0 .6.4 1 1 1-.6 0-1-.4-1-1"/></defs><clipPath id="f"><use xlink:href="#e" overflow="visible"/></clipPath><linearGradient id="g" gradientUnits="userSpaceOnUse" x1="-768.745" y1="432.777" x2="-767.745" y2="432.777" gradientTransform="matrix(0 45 45 0 -19474.463 34593.5)"><stop offset="0" stop-color="#FFF"/><stop offset="1" stop-color="#231F20"/></linearGradient><path clip-path="url(#f)" fill="url(#g)" d="M0 44h1v1H0z"/></g><defs><path id="h" d="M44 44h1v1h-1z"/></defs><clipPath id="i"><use xlink:href="#h" overflow="visible"/></clipPath><g clip-path="url(#i)"><defs><path id="j" d="M44 45c.6 0 1-.4 1-1 0 .6-.4 1-1 1"/></defs><clipPath id="k"><use xlink:href="#j" overflow="visible"/></clipPath><linearGradient id="l" gradientUnits="userSpaceOnUse" x1="-768.745" y1="432.777" x2="-767.745" y2="432.777" gradientTransform="matrix(0 45 45 0 -19430.463 34593.5)"><stop offset="0" stop-color="#FFF"/><stop offset="1" stop-color="#231F20"/></linearGradient><path clip-path="url(#k)" fill="url(#l)" d="M44 44h1v1h-1z"/></g><defs><path id="m" d="M0 0h1v1H0z"/></defs><clipPath id="n"><use xlink:href="#m" overflow="visible"/></clipPath><g clip-path="url(#n)"><defs><path id="o" d="M1 0C.4 0 0 .4 0 1c0-.6.4-1 1-1"/></defs><clipPath id="p"><use xlink:href="#o" overflow="visible"/></clipPath><linearGradient id="q" gradientUnits="userSpaceOnUse" x1="-768.745" y1="432.777" x2="-767.745" y2="432.777" gradientTransform="matrix(0 45 45 0 -19474.463 34593.5)"><stop offset="0" stop-color="#FFF"/><stop offset="1" stop-color="#231F20"/></linearGradient><path clip-path="url(#p)" fill="url(#q)" d="M0 0h1v1H0z"/></g><path fill="#473F65" d="M41.3.3l3.4 3.4L41.3.3h-6.9"/><defs><path id="r" d="M34.4.3h10.3v3.4H34.4z"/></defs><clipPath id="s"><use xlink:href="#r" overflow="visible"/></clipPath><g clip-path="url(#s)"><defs><path id="t" d="M41.3.3l3.4 3.4L41.3.3h-6.9z"/></defs><clipPath id="u"><use xlink:href="#t" overflow="visible"/></clipPath><linearGradient id="v" gradientUnits="userSpaceOnUse" x1="-768.744" y1="432.777" x2="-767.744" y2="432.777" gradientTransform="matrix(0 45 45 0 -19435.402 34593.53)"><stop offset="0" stop-color="#FFF"/><stop offset="1" stop-color="#231F20"/></linearGradient><path clip-path="url(#u)" fill="url(#v)" d="M34.4.3h10.3v3.4H34.4z"/></g><path fill="#473F65" d="M44 44.7H1c-.4 0-.7-.3-.7-.7 0 .4.3.7.7.7h43c.4 0 .7-.3.7-.7 0 .4-.3.7-.7.7"/><defs><path id="w" d="M.3 44h44.4v.7H.3z"/></defs><clipPath id="x"><use xlink:href="#w" overflow="visible"/></clipPath><g clip-path="url(#x)"><defs><path id="y" d="M44 44.7H1c-.4 0-.7-.3-.7-.7 0 .4.3.7.7.7h43c.4 0 .7-.3.7-.7 0 .4-.3.7-.7.7"/></defs><clipPath id="z"><use xlink:href="#y" overflow="visible"/></clipPath><linearGradient id="A" gradientUnits="userSpaceOnUse" x1="-768.714" y1="432.777" x2="-767.745" y2="432.777" gradientTransform="matrix(0 45 45 0 -19452.463 34593.5)"><stop offset="0" stop-color="#FFF"/><stop offset="1" stop-color="#231F20"/></linearGradient><path clip-path="url(#z)" fill="url(#A)" d="M.3 44h44.4v.7H.3z"/></g><path fill="#473F65" d="M.3 1C.3.6.6.3 1 .3h4.6H1C.6.3.3.6.3 1"/><defs><path id="B" d="M.3.3h5.3V1H.3z"/></defs><clipPath id="C"><use xlink:href="#B" overflow="visible"/></clipPath><g clip-path="url(#C)"><defs><path id="D" d="M.3 1C.3.6.6.3 1 .3h4.6H1C.6.3.3.6.3 1"/></defs><clipPath id="E"><use xlink:href="#D" overflow="visible"/></clipPath><linearGradient id="F" gradientUnits="userSpaceOnUse" x1="-768.745" y1="432.776" x2="-767.745" y2="432.776" gradientTransform="matrix(0 45 45 0 -19471.994 34593.5)"><stop offset="0" stop-color="#FFF"/><stop offset="1" stop-color="#231F20"/></linearGradient><path clip-path="url(#E)" fill="url(#F)" d="M.3.3h5.3V1H.3z"/></g><path fill="#473F65" d="M41.5 0h-7v.1h7L45 3.6V44c0 .5-.4.9-.9.9H1c-.5 0-.9-.4-.9-.9V1C.1.5.5.1 1 .1h4.6V0H1C.4 0 0 .4 0 1v43c0 .6.4 1 1 1h43c.6 0 1-.4 1-1V3.5L41.5 0z"/><defs><path id="G" d="M0 0h45v45H0z"/></defs><clipPath id="H"><use xlink:href="#G" overflow="visible"/></clipPath><g clip-path="url(#H)"><defs><path id="I" d="M41.5 0h-7v.1h7L45 3.6V44c0 .5-.4.9-.9.9H1c-.5 0-.9-.4-.9-.9V1C.1.5.5.1 1 .1h4.6V0H1C.4 0 0 .4 0 1v43c0 .6.4 1 1 1h43c.6 0 1-.4 1-1V3.5L41.5 0z"/></defs><clipPath id="J"><use xlink:href="#I" overflow="visible"/></clipPath><linearGradient id="K" gradientUnits="userSpaceOnUse" x1="-768.745" y1="432.777" x2="-767.745" y2="432.777" gradientTransform="matrix(0 45 45 0 -19452.463 34593.5)"><stop offset="0" stop-color="#FFF"/><stop offset="1" stop-color="#231F20"/></linearGradient><path clip-path="url(#J)" fill="url(#K)" d="M0 0h45v45H0z"/></g><path fill="#473F65" d="M41.3.3l3.4 3.4V44c0 .4-.3.7-.7.7H1c-.4 0-.7-.3-.7-.7V1C.3.6.6.3 1 .3h4.6V.1H1C.5.1.1.5.1 1v43c0 .5.4.9.9.9h43c.5 0 .9-.4.9-.9V3.6L41.4.1h-7v.1h6.9z"/><g><defs><path id="L" d="M.1.1h44.7v44.7H.1z"/></defs><clipPath id="M"><use xlink:href="#L" overflow="visible"/></clipPath><g clip-path="url(#M)"><defs><path id="N" d="M41.3.3l3.4 3.4V44c0 .4-.3.7-.7.7H1c-.4 0-.7-.3-.7-.7V1C.3.6.6.3 1 .3h4.6V.1H1C.5.1.1.5.1 1v43c0 .5.4.9.9.9h43c.5 0 .9-.4.9-.9V3.6L41.4.1h-7v.1h6.9z"/></defs><clipPath id="O"><use xlink:href="#N" overflow="visible"/></clipPath><linearGradient id="P" gradientUnits="userSpaceOnUse" x1="-768.745" y1="432.777" x2="-767.745" y2="432.777" gradientTransform="matrix(0 45 45 0 -19452.396 34593.383)"><stop offset="0" stop-color="#FFF"/><stop offset="1" stop-color="#231F20"/></linearGradient><path clip-path="url(#O)" fill="url(#P)" d="M.1.1h44.7v44.7H.1z"/></g></g><path fill="#473F65" d="M34.4 14.5c0 .6-.4 1-1 1H6.6c-.6 0-1-.4-1-1v.2c0 .6.5 1 1 1h27c.6 0 1-.4 1-1V.3h-.2V14.5z"/><g><defs><path id="Q" d="M5.6.3h29v15.4h-29z"/></defs><clipPath id="R"><use xlink:href="#Q" overflow="visible"/></clipPath><path clip-path="url(#R)" fill="#50496D" d="M34.4 14.5c0 .6-.4 1-1 1H6.6c-.6 0-1-.4-1-1v.2c0 .6.5 1 1 1h27c.6 0 1-.4 1-1V.3h-.2V14.5z"/></g><path fill="#50496D" d="M6.6 15.5h26.8c.6 0 1-.4 1-1V.7H5.6v13.8c0 .6.5 1 1 1"/><path fill="#231F20" d="M1.1 39.5h2.8v2.2H1.1z"/><path fill="#DEDDDE" d="M15.2.3v13.8c0 .6.4 1 1 1h16.9c.6 0 1-.4 1-1V.3H15.2zm16.7 12.6h-5.7V2.5h5.7v10.4z"/><g><defs><path id="S" d="M5.6 17h33.3v27.8H5.6z"/></defs><clipPath id="T"><use xlink:href="#S" overflow="visible"/></clipPath><path clip-path="url(#T)" fill="#473F65" d="M38.9 44.8V18c0-.6-.4-1-1-1H6.6c-.6 0-1 .4-1 1v26.8h33.3z"/></g><path fill="#473F65" d="M38.8 45V18.2c0-.6-.4-1-1-1H6.6c-.6 0-1 .4-1 1V45h33.2z"/><path fill="#F3EFD9" d="M6.7 42.8c0 .6.4 1 1 1h29.1c.6 0 1-.4 1-1V23.3H6.7v19.5z"/><path fill="#A82526" d="M36.8 18H7.7c-.6 0-1 .4-1 1v4.3h31.1V19c0-.6-.4-1-1-1"/><path fill="none" stroke="#A82526" stroke-miterlimit="10" d="M9.2 29.5h26.1M9.2 34.5h26.1M9.2 39.5h26.1"/></svg>