<svg xmlns="http://www.w3.org/2000/svg" xmlns:xlink="http://www.w3.org/1999/xlink" width="72.5" height="42.1" viewBox="0 0 72.5 42.1"><path fill="#231F20" d="M68.5 38.3c0 .7-.6 1.4-1.4 1.4H5.4c-.7 0-1.4-.6-1.4-1.4v-37C4 .6 4.6 0 5.4 0h61.8c.7 0 1.4.6 1.4 1.4v36.9z"/><path fill="#DEDDDE" d="M72.5 37.9v1.9c0 .9-.8 1.7-1.7 1.7H1.7c-.9 0-1.7-.8-1.7-1.7v-1.9h72.5z"/><path fill="#231F20" d="M8.3 41.5c0 .3-.9.6-2.1.6-1.1 0-2.1-.3-2.1-.6h4.2zM68.5 41.5c0 .3-.9.6-2.1.6-1.1 0-2.1-.3-2.1-.6h4.2z"/><path fill="#C8C7C7" d="M42.4 37.9c0 .6-.4 1.1-.8 1.1H31c-.5 0-.8-.5-.8-1.1"/><path fill="#F4F4F4" d="M41.5 39H31c-.4 0-.7-.4-.8-.9 0 .6.4 1.1.8 1.1h10.6c.5 0 .8-.5.8-1.1-.1.5-.4.9-.9.9"/><path fill="#656263" d="M36.6 1.5c0 .2-.2.4-.4.4s-.4-.2-.4-.4.2-.4.4-.4.4.1.4.4"/><path fill="#5BB7D5" d="M36.4 1.5c0 .1-.1.2-.2.2s-.2-.1-.2-.2.1-.2.2-.2.2 0 .2.2"/><path fill="#E8F5F9" d="M36.3 1.4c0 .1-.1.1 0 0-.1.1-.1 0-.1 0h.1c-.1 0 0 0 0 0"/><path fill="#656263" d="M38.6 1.5c0 .1-.1.2-.2.2h-.8c-.1 0-.2-.1-.2-.2s.1-.2.2-.2h.8c.2 0 .2.1.2.2"/><g opacity=".3"><defs><path id="a" d="M0 37.9h72.5v3.5H0z"/></defs><clipPath id="b"><use xlink:href="#a" overflow="visible"/></clipPath><path clip-path="url(#b)" fill="#656263" d="M72.2 37.9v2.9c.2-.3.3-.6.3-1v-1.9h-.3z"/><path clip-path="url(#b)" fill="#A7A5A6" d="M71.5 37.9v3.5c.3-.1.5-.3.7-.6v-2.9h-.7z"/><path clip-path="url(#b)" fill="#FFF" d="M71.5 37.9h-.2v3.5h.2v-3.5z"/><path clip-path="url(#b)" fill="#656263" d="M0 37.9v1.9c0 .4.1.7.3 1v-2.9H0z"/><path clip-path="url(#b)" fill="#A7A5A6" d="M1 41.4v-3.5H.3v2.9c.2.2.5.4.7.6"/><path clip-path="url(#b)" fill="#FFF" d="M1 37.9v3.5h.2v-3.5H1z"/></g><path fill="#A7A5A6" d="M71.8 41.1c0 .2-.8.4-1 .4H1.5c-.2 0-1-.2-1-.4"/><path fill="#C0D1DA" d="M6.3 3.2h60.2v32H6.3z"/><path fill="#A7A5A6" d="M33.1 36.2h4.5v.7h-4.5zM38 36.2h1.3v.7H38z"/><path fill="#393536" d="M65.6 39.5c0 .1.2.1.3.1h2.8c.2 0 .3-.1.3-.1 0-.1-.2-.1-.3-.1h-2.8c-.2-.1-.3 0-.3.1"/><path fill="#A0BBC7" d="M6.6 3.5H66v.8H6.6z"/><path fill="#C0D1DA" d="M7.4 3.9c0 .1-.1.3-.3.3-.1 0-.2-.2-.2-.3 0-.1.1-.3.3-.3.1.1.2.2.2.3M65.4 3.7h.4v.4h-.4zM64.8 3.7h.4v.4h-.4zM64.2 3.7h.4v.4h-.4z"/><path fill="#A0BBC7" d="M57.3 32.6H15.1l-3.6 2.1h49.3"/><path fill="#A0BBC7" d="M16.9 33.8c-.2 0-.4-.2-.4-.4V31c0-.2.2-.4.4-.4h2.4c.2 0 .4.2.4.4v2.4c0 .2-.2.4-.4.4h-2.4z"/><path fill="#C0D1DA" d="M19.3 30.7c.2 0 .3.1.3.3v2.4c0 .2-.1.3-.3.3h-2.4c-.2 0-.3-.1-.3-.3V31c0-.2.1-.3.3-.3h2.4m0-.3h-2.4c-.3 0-.6.3-.6.6v2.4c0 .3.3.6.6.6h2.4c.3 0 .6-.3.6-.6V31c0-.4-.3-.6-.6-.6"/><path fill="#A0BBC7" d="M22.8 33.7c-.2 0-.4-.2-.4-.4v-2.4c0-.2.2-.4.4-.4h2.4c.2 0 .4.2.4.4v2.4c0 .2-.2.4-.4.4h-2.4z"/><path fill="#C0D1DA" d="M25.2 30.5c.2 0 .3.1.3.3v2.4c0 .2-.1.3-.3.3h-2.4c-.2 0-.3-.1-.3-.3v-2.4c0-.2.1-.3.3-.3h2.4m0-.3h-2.4c-.3 0-.6.3-.6.6v2.4c0 .3.3.6.6.6h2.4c.3 0 .6-.3.6-.6v-2.4c0-.3-.2-.6-.6-.6"/><path fill="#A0BBC7" d="M28.7 33.8c-.2 0-.4-.2-.4-.4V31c0-.2.2-.4.4-.4h2.4c.2 0 .4.2.4.4v2.4c0 .2-.2.4-.4.4h-2.4z"/><path fill="#C0D1DA" d="M31.1 30.7c.2 0 .3.1.3.3v2.4c0 .2-.1.3-.3.3h-2.4c-.2 0-.3-.1-.3-.3V31c0-.2.1-.3.3-.3h2.4m0-.3h-2.4c-.3 0-.6.3-.6.6v2.4c0 .3.3.6.6.6h2.4c.3 0 .6-.3.6-.6V31c0-.4-.2-.6-.6-.6"/><path fill="#A0BBC7" d="M34.6 33.8c-.2 0-.4-.2-.4-.4V31c0-.2.2-.4.4-.4H37c.2 0 .4.2.4.4v2.4c0 .2-.2.4-.4.4h-2.4z"/><path fill="#C0D1DA" d="M37.1 30.7c.2 0 .3.1.3.3v2.4c0 .2-.1.3-.3.3h-2.4c-.2 0-.3-.1-.3-.3V31c0-.2.1-.3.3-.3h2.4m0-.3h-2.4c-.3 0-.6.3-.6.6v2.4c0 .3.3.6.6.6h2.4c.3 0 .6-.3.6-.6V31c-.1-.4-.3-.6-.6-.6"/><path fill="#A0BBC7" d="M40.5 33.8c-.2 0-.4-.2-.4-.4V31c0-.2.2-.4.4-.4H43c.2 0 .4.2.4.4v2.4c0 .2-.2.4-.4.4h-2.5z"/><path fill="#C0D1DA" d="M43 30.7c.2 0 .3.1.3.3v2.4c0 .2-.1.3-.3.3h-2.4c-.2 0-.3-.1-.3-.3V31c0-.2.1-.3.3-.3H43m0-.3h-2.4c-.3 0-.6.3-.6.6v2.4c0 .3.3.6.6.6H43c.3 0 .6-.3.6-.6V31c0-.4-.3-.6-.6-.6"/><path fill="#A0BBC7" d="M46.4 33.8c-.2 0-.4-.2-.4-.4V31c0-.2.2-.4.4-.4h2.4c.2 0 .4.2.4.4v2.4c0 .2-.2.4-.4.4h-2.4z"/><path fill="#C0D1DA" d="M48.9 30.7c.2 0 .3.1.3.3v2.4c0 .2-.1.3-.3.3h-2.4c-.2 0-.3-.1-.3-.3V31c0-.2.1-.3.3-.3h2.4m0-.3h-2.4c-.3 0-.6.3-.6.6v2.4c0 .3.3.6.6.6h2.4c.3 0 .6-.3.6-.6V31c0-.4-.3-.6-.6-.6"/><path fill="#A0BBC7" d="M52.4 33.8c-.2 0-.4-.2-.4-.4V31c0-.2.2-.4.4-.4h2.4c.2 0 .4.2.4.4v2.4c0 .2-.2.4-.4.4h-2.4z"/><path fill="#C0D1DA" d="M54.8 30.7c.2 0 .3.1.3.3v2.4c0 .2-.1.3-.3.3h-2.4c-.2 0-.3-.1-.3-.3V31c0-.2.1-.3.3-.3h2.4m0-.3h-2.4c-.3 0-.6.3-.6.6v2.4c0 .3.3.6.6.6h2.4c.3 0 .6-.3.6-.6V31c0-.4-.3-.6-.6-.6"/></svg>