<svg xmlns="http://www.w3.org/2000/svg" width="42.2" height="57.5" viewBox="0 0 42.2 57.5"><path fill="#F8F5EF" d="M42.2 9.4c0 1.3-1 2.3-2.3 2.3H2.4c-1.3 0-2.3-1-2.3-2.3v-7C.1 1 1.1 0 2.4 0h37.5c1.3 0 2.3 1 2.3 2.3v7.1z"/><path fill="#444142" d="M41.1 57.2c0 .2-.2.4-.4.4H1.4c-.2 0-.4-.2-.4-.4V15.3c0-.2.2-.3.4-.3h39.4c.2 0 .4.2.4.4v41.8z"/><path fill="#CFBEB1" d="M42.1 56.3c0 .2-.2.4-.4.4H.4c-.2 0-.4-.2-.4-.4V12.4c0-.2.2-.4.4-.4h41.3c.2 0 .4.2.4.4v43.9z"/><path fill="#D8CBC1" d="M42.1 50.1c0 .2-.2.4-.4.4H.4c-.2 0-.4-.2-.4-.4V6.2c0-.2.2-.4.4-.4h41.3c.2 0 .4.2.4.4v43.9z"/><path fill="#EDE6D8" d="M42.1 47.5c0 .2-.2.4-.4.4H.4c-.2 0-.4-.2-.4-.4V3.6c0-.2.2-.4.4-.4h41.3c.2 0 .4.2.4.4v43.9z"/><path fill="#F8F5EF" d="M38.4 6.8v25.8c0 .2-.2.4-.4.4H4c-.1 0-.2 0-.3-.1L38.3 6.5c.1.1.1.2.1.3"/><path fill="#CFBEB1" d="M3.7 32.5V6.8c0-.2.2-.4.4-.4h34c.1 0 .2 0 .3.1L3.8 32.8c-.1 0-.1-.1-.1-.3"/><path fill="#231F20" d="M37.4 29.1c0 1.1-.9 1.9-1.9 1.9H6.7c-1.1 0-1.9-.9-1.9-1.9V9.2c0-1.1.9-1.9 1.9-1.9h28.8c1.1 0 1.9.9 1.9 1.9v19.9z"/><path fill="#F8F5EF" d="M38 38.5l-6.5 3.4c.1.1.3.2.5.2h5.5c.4 0 .8-.3.8-.8v-2.2c0-.3-.1-.5-.3-.6"/><path fill="#CFBEB1" d="M37.5 38.3H32c-.4 0-.8.3-.8.8v2.2c0 .2.1.5.3.6l6.5-3.4c-.1-.1-.3-.2-.5-.2"/><path fill="#231F20" d="M21.5 39.7h15.8v.9H21.5z"/><path fill="#C82257" d="M3.9 39.7h2c-.2-.3-.6-.6-1-.6s-.8.2-1 .6"/><path fill="#E1856C" d="M3.8 40.2h2.3c0-.2-.1-.4-.2-.6h-2c-.1.2-.1.4-.1.6"/><path fill="#597F5C" d="M3.9 40.8h2c.1-.2.2-.4.2-.6H3.8c0 .2 0 .4.1.6"/><path fill="#1498C3" d="M5.9 40.8h-2c.2.3.6.6 1 .6.5 0 .8-.3 1-.6"/><path fill="#5E411A" d="M32.3 53.1h2.3v1.3h-2.3z"/><path fill="#252A26" d="M35.8 52.3h2.3V55h-2.3z"/><path fill="#231F20" d="M36.2 53.2h1.5V55h-1.5z"/><path fill="#A1D6E7" d="M5.8 9.1h30.6v20.1H5.8z"/><path fill="#A7A5A6" d="M6.2 9.4H36v1.5H6.2zM32.8 12.5h2v2h-2zM32.9 16h1.9v1.9h-1.9z"/></svg>