<svg xmlns="http://www.w3.org/2000/svg" xmlns:xlink="http://www.w3.org/1999/xlink" width="65.1" height="62.8" viewBox="0 0 65.1 62.8"><path fill="#208BB5" d="M8.3 61.3s.2 1.5 1.3 1.5h.8v-1.7l-2.1.2z"/><path fill="#208BB5" d="M12.5 61.3s-.2 1.5-1.3 1.5h-.8v-1.7l2.1.2z"/><g opacity=".3"><defs><path id="a" d="M10.4 61.1h2.1v1.7h-2.1z"/></defs><clipPath id="b"><use xlink:href="#a" overflow="visible"/></clipPath><path clip-path="url(#b)" fill="#231F20" d="M12.5 61.3s-.2 1.5-1.3 1.5h-.8v-1.7l2.1.2z"/></g><path fill="#208BB5" d="M51.8 61.3s.2 1.5 1.3 1.5h.8v-1.7l-2.1.2zM56 61.3s-.2 1.5-1.3 1.5h-.8v-1.7l2.1.2z"/><g opacity=".3"><defs><path id="c" d="M53.8 61.1H56v1.7h-2.2z"/></defs><clipPath id="d"><use xlink:href="#c" overflow="visible"/></clipPath><path clip-path="url(#d)" fill="#231F20" d="M56 61.3s-.2 1.5-1.3 1.5h-.8v-1.7l2.1.2z"/></g><path fill="#208BB5" d="M1.1 19.3S2.2 6.1 2.8 4c.1-.2.1-.4.2-.6-.3.3-.5.7-.7 1.2C1.7 6.7.6 19.8.6 19.8s-.9 24.4-.5 31h.5c-.3-6.6.5-31.5.5-31.5M64 19.3s.9 25 .5 31.4h.5c.3-6.6-.5-31-.5-31s-1.1-13-1.7-15.1c-.1-.5-.4-.9-.7-1.2.1.2.2.3.2.5.6 2.2 1.7 15.4 1.7 15.4"/><path fill="#FFF" d="M64 19.3S62.9 6.1 62.3 4c-.1-.2-.1-.4-.2-.5-.8-1.7-3-2-3-2C50.2.1 32.6 0 32.6 0S14.9.1 6 1.5c0 0-2.2.3-3 2-.1.1-.1.3-.2.5-.6 2.1-1.7 15.3-1.7 15.3s-.9 25-.5 31.4h63.9c.4-6.5-.5-31.4-.5-31.4"/><path fill="#DEDDDE" d="M3.1 19.3S4.1 6.1 4.7 4c0-.2.1-.4.2-.5.8-1.7 2.8-2 2.8-2C16 .1 32.6 0 32.6 0S14.9.1 6 1.5c0 0-2.2.3-3 2-.1.1-.1.3-.2.5-.6 2.1-1.7 15.3-1.7 15.3s-.9 25-.5 31.4h2c-.3-6.5.5-31.4.5-31.4M64 19.3S62.9 6.1 62.3 4c-.1-.2-.1-.4-.2-.5-.8-1.7-3-2-3-2C50.2.1 32.6 0 32.6 0s16.5.1 24.8 1.5c0 0 2 .3 2.8 2 .1.2.1.3.2.5C61 6.1 62 19.3 62 19.3s.8 25 .5 31.4h2c.4-6.5-.5-31.4-.5-31.4"/><path fill="#EDEDED" d="M62 19.3S61 6.1 60.4 4c0-.2-.1-.4-.2-.5-.8-1.7-2.8-2-2.8-2C49.1.1 32.6 0 32.6 0s13.8.1 20.7 1.5c0 0 1.7.3 2.4 2 .1.2.1.3.2.5.5 2.1 1.3 15.3 1.3 15.3s.7 25 .4 31.4h4.9c.3-6.5-.5-31.4-.5-31.4M8 19.3S8.8 6.1 9.3 4c0-.2.1-.4.2-.5.7-1.7 2.4-2 2.4-2C18.8.1 32.6 0 32.6 0S16 .1 7.7 1.5c0 0-2 .3-2.8 2-.1.1-.2.3-.2.5-.6 2.1-1.6 15.3-1.6 15.3s-.8 25-.5 31.4h4.9c-.2-6.5.5-31.4.5-31.4"/><path fill="#DEDDDE" d="M64.5 50.7H.1v.4c.4 6-.2 10.3 5.2 10.6 5.3.3 19.3.3 27.3.3 7.9 0 21.9 0 27.3-.3 5.4-.3 4.8-4.6 5.2-10.6v-.4h-.6zm-2 .5c-.4 5.7.2 9.8-4.8 10.1-5 .2-17.8.3-25.2.3-7.3 0-20.2 0-25.1-.3-5-.3-4.4-4.5-4.8-10.1v-.4h59.9v.4"/><path fill="#EDEDED" d="M7.4 51.2v-.4H2.6v.4c.4 5.6-.2 9.8 4.8 10 5 .2 17.8.3 25.1.3-6.1 0-16.9 0-21.1-.3-4.1-.2-3.7-4.4-4-10M57.7 50.8v.4c-.3 5.7.2 9.8-4 10.1-4.2.2-15 .3-21.1.3 7.3 0 20.2 0 25.2-.3 5-.2 4.4-4.4 4.8-10.1v-.4H57.7z"/><path fill="#EFF0EF" d="M32.5 61.5h.1-.1M57.6 51.2v-.4H7.4v.4c.3 5.7-.2 9.8 4 10.1 4.2.2 14.9.3 21.1.3 6.1 0 16.9 0 21.1-.3 4.2-.3 3.8-4.5 4-10.1"/><path fill="#252A26" d="M59.4 45c0 .8-.7 1.5-1.5 1.5H7.3c-.8 0-1.5-.7-1.5-1.5l.4-37.1c0-.8.7-1.5 1.5-1.5h49.6c.8 0 1.5.7 1.5 1.5l.6 37.1z"/><defs><path id="e" d="M6.6 6.4h52.5v40.1H6.6z"/></defs><clipPath id="f"><use xlink:href="#e" overflow="visible"/></clipPath><path clip-path="url(#f)" fill="#252A26" d="M58.6 7.9c0-.8-.7-1.5-1.5-1.5h-49c-.8 0-1.5.7-1.5 1.5v.6h48c.8 0 1.5.7 1.5 1.5l.5 36.4h1c.8 0 1.5-.7 1.5-1.5l-.5-37z"/><path fill="#B1B5B0" d="M57.3 7.9l.6 37.1H7.3l.5-37h49.5m0-1.6H7.8c-.8 0-1.5.7-1.5 1.5L5.7 45c0 .8.7 1.5 1.5 1.5h50.6c.8 0 1.5-.7 1.5-1.5l-.4-37.1c0-.8-.7-1.5-1.6-1.5"/><path fill="#E8E9E8" d="M7.3 45.2c-.2 0-.3-.1-.3-.2l.5-37c0-.1.1-.2.1-.2l-1-.8c-.2.3-.4.6-.4 1l-.5 37c0 .8.7 1.5 1.5 1.5h50.6c.4 0 .7-.1 1-.4l-1.2-.9H7.3z"/><path fill="#D8DAD8" d="M59.4 45l-.5-37.1c0-.8-.7-1.5-1.5-1.5H7.8c-.5 0-.9.2-1.1.5l1 .8h49.7c.1 0 .3.1.3.3l.5 37c0 .1-.1.3-.3.3h-.3l1.2.9c.4-.3.6-.8.6-1.2"/><path fill="#DADBDA" d="M59.4 45c0 .8-.7 1.5-1.5 1.5H7.3c-.8 0-1.5-.7-1.5-1.5L6 27.4h-.3L5.5 45c0 1 .8 1.8 1.8 1.8h50.6c1 0 1.8-.8 1.8-1.8l-.2-17.5h-.3l.2 17.5z"/><path fill="#828981" d="M57.3 6.1H7.8c-1 0-1.8.8-1.8 1.8l-.3 19.5H6l.2-19.5c0-.8.7-1.5 1.5-1.5h49.6c.8 0 1.5.7 1.5 1.5l.3 19.5h.3l-.3-19.5c0-1-.8-1.8-1.8-1.8"/><g opacity=".3"><defs><path id="g" d="M6.3 6.7h53.2v39.6H6.3z"/></defs><clipPath id="h"><use xlink:href="#g" overflow="visible"/></clipPath><path clip-path="url(#h)" fill="#252A26" d="M7.2 6.7c-.2.3-.4.6-.4 1l-.5 37c0 .2.1.5.2.7.2.4.6.8 1.1.8h50.9c.4 0 .8-.2 1-.4L7.2 6.7z"/></g><path fill="#252A26" d="M32.3 3.3c0 .1-.1.2-.2.2s-.2-.1-.2-.2v-.4c0-.1.1-.2.2-.2s.2.1.2.2v.4z"/><g opacity=".4"><defs><path id="i" d="M.1 50.5h65v.5H.1z"/></defs><clipPath id="j"><use xlink:href="#i" overflow="visible"/></clipPath><path clip-path="url(#j)" fill="#B1B5B0" d="M.1 50.7s4.1-.1 10.1-.1c3 0 6.6 0 10.4-.1h23.8c3.8 0 7.4.1 10.4.1 6.2.1 10.2.1 10.2.1s-4.1.1-10.1.1c-3 0-6.6 0-10.4.1H20.7c-3.8 0-7.4-.1-10.4-.1-6.2 0-10.2-.1-10.2-.1"/></g><path fill="#58A8C7" d="M4 55.9v.5c0 1.8 1.5 3.3 3.3 3.3h2.1c.9 0 1.6-.3 2.2-.9l-6.5-5.4c-.7.7-1.1 1.5-1.1 2.5"/><defs><path id="k" d="M5.1 52.6h7.6v6.2H5.1z"/></defs><clipPath id="l"><use xlink:href="#k" overflow="visible"/></clipPath><path clip-path="url(#l)" fill="#208BB5" d="M9.4 52.6H7.3c-.9 0-1.6.3-2.2.9l6.5 5.4c.6-.6 1.1-1.5 1.1-2.4V56c0-1.9-1.5-3.4-3.3-3.4"/><path fill="#208BB5" d="M9.5 53.6c1.3 0 2.3 1 2.3 2.3v.6c0 1.3-1 2.3-2.3 2.3H7.2c-1.3 0-2.3-1-2.3-2.3v-.6c0-1.3 1-2.3 2.3-2.3h2.3m0-1.3H7.2c-2 0-3.6 1.6-3.6 3.6v.6c0 2 1.6 3.6 3.6 3.6h2.3c2 0 3.6-1.6 3.6-3.6v-.6c-.1-2-1.7-3.6-3.6-3.6"/><path fill="#208BB5" d="M10 56.1c0 .9-.7 1.7-1.7 1.7-.9 0-1.7-.7-1.7-1.7 0-.9.7-1.7 1.7-1.7 1 .1 1.7.8 1.7 1.7"/><g opacity=".4"><defs><path id="m" d="M8.5 55.1h.8v.8h-.8z"/></defs><clipPath id="n"><use xlink:href="#m" overflow="visible"/></clipPath><path clip-path="url(#n)" fill="#208BB5" d="M9.4 55.5c0 .3-.2.5-.4.5s-.4-.2-.4-.4.2-.4.4-.4c.2-.1.4.1.4.3"/></g><defs><path id="o" d="M6.7 54.8h3v3h-3z"/></defs><clipPath id="p"><use xlink:href="#o" overflow="visible"/></clipPath><path clip-path="url(#p)" fill="#208BB5" d="M8.6 57.5c-.9 0-1.7-.7-1.7-1.7 0-.4.1-.7.3-1-.4.3-.6.8-.6 1.3 0 .9.7 1.7 1.7 1.7.5 0 1-.3 1.3-.6-.2.2-.6.3-1 .3"/><path fill="#58A8C7" d="M52.3 55.9v.5c0 1.8 1.5 3.3 3.3 3.3h2.1c.9 0 1.6-.3 2.2-.9l-6.5-5.4c-.7.7-1.1 1.5-1.1 2.5"/><defs><path id="q" d="M53.4 52.6H61v6.2h-7.6z"/></defs><clipPath id="r"><use xlink:href="#q" overflow="visible"/></clipPath><path clip-path="url(#r)" fill="#208BB5" d="M57.7 52.6h-2.1c-.9 0-1.6.3-2.2.9l6.5 5.4c.6-.6 1.1-1.5 1.1-2.4V56c0-1.9-1.5-3.4-3.3-3.4"/><path fill="#208BB5" d="M57.8 53.6c1.3 0 2.3 1 2.3 2.3v.6c0 1.3-1 2.3-2.3 2.3h-2.3c-1.3 0-2.3-1-2.3-2.3v-.6c0-1.3 1-2.3 2.3-2.3h2.3m0-1.3h-2.3c-2 0-3.6 1.6-3.6 3.6v.6c0 2 1.6 3.6 3.6 3.6h2.3c2 0 3.6-1.6 3.6-3.6v-.6c-.1-2-1.6-3.6-3.6-3.6"/><path fill="#208BB5" d="M58.3 56.1c0 .9-.7 1.7-1.7 1.7-.9 0-1.7-.7-1.7-1.7 0-.9.7-1.7 1.7-1.7 1 .1 1.7.8 1.7 1.7"/><g opacity=".4"><defs><path id="s" d="M56.8 55.1h.8v.8h-.8z"/></defs><clipPath id="t"><use xlink:href="#s" overflow="visible"/></clipPath><path clip-path="url(#t)" fill="#208BB5" d="M57.7 55.5c0 .2-.2.4-.4.4s-.4-.2-.4-.4.2-.4.4-.4.4.2.4.4"/></g><defs><path id="u" d="M55 54.8h3v3h-3z"/></defs><clipPath id="v"><use xlink:href="#u" overflow="visible"/></clipPath><path clip-path="url(#v)" fill="#208BB5" d="M56.9 57.5c-.9 0-1.7-.7-1.7-1.7 0-.4.1-.7.3-1-.4.3-.6.8-.6 1.3 0 .9.7 1.7 1.7 1.7.5 0 1-.3 1.3-.6-.2.2-.6.3-1 .3"/><path fill="#208BB5" d="M44 53.3c.1 0 .3.1.3.3s-.1.3-.3.3H21c-.1 0-.3-.1-.3-.3s.1-.3.3-.3h23m0-1H21c-.7 0-1.3.6-1.3 1.3 0 .7.6 1.3 1.3 1.3h23c.7 0 1.3-.6 1.3-1.3 0-.7-.6-1.3-1.3-1.3"/><path fill="#C8C7C7" d="M19.1 56.1c0 .5-.4 1-1 1H15c-.5 0-1-.4-1-1s.4-1 1-1h3.1c.6 0 1 .4 1 1"/><path d="M16 56.1c0 .3-.3.6-.6.6s-.6-.3-.6-.6.3-.6.6-.6.6.3.6.6"/><circle fill="none" stroke="#7B7979" stroke-width=".37" stroke-miterlimit="10" cx="15.4" cy="56.1" r=".6"/><path d="M18.2 56.1c0 .3-.3.6-.6.6s-.6-.3-.6-.6.3-.6.6-.6.6.3.6.6"/><circle fill="none" stroke="#7B7979" stroke-width=".37" stroke-miterlimit="10" cx="17.6" cy="56.1" r=".6"/><path fill="#F8F8F8" d="M49.7 56.4c0 .6-.5 1.1-1.1 1.1-.6 0-1.1-.5-1.1-1.1 0-.6.5-1.1 1.1-1.1.6-.1 1.1.4 1.1 1.1"/><circle fill="none" stroke="#D1D0D0" stroke-width=".254" stroke-miterlimit="10" cx="48.5" cy="56.4" r="1.1"/></svg>