<svg xmlns="http://www.w3.org/2000/svg" xmlns:xlink="http://www.w3.org/1999/xlink" width="37.9" height="67.5" viewBox="0 0 37.9 67.5"><path fill="#CAC9C9" d="M36.1 10.1c0-1.6.4-2.9.9-2.9s.9 1.3.9 2.9v7.4c0 1.6-.4 2.9-.9 2.9s-.9-1.3-.9-2.9v-7.4z"/><path fill="#E9E9E9" d="M36.1 11.3c0-1.1.4-2 .9-2s.9.9.9 2v5.1c0 1.1-.4 2-.9 2s-.9-.9-.9-2v-5.1z"/><path fill="#F8F8F8" d="M36.1 12.8c0-.4.4-.8.9-.8s.9.4.9.8v2.1c0 .4-.4.8-.9.8s-.9-.4-.9-.8v-2.1z"/><path fill="#CAC9C9" d="M1.8 17.1c0 .5-.4.9-.9.9s-.9-.4-.9-.9v-2.4c0-.5.4-.9.9-.9s.9.4.9.9v2.4z"/><path fill="#E9E9E9" d="M1.8 16.8c0 .4-.4.6-.9.6s-.9-.3-.9-.6v-1.6c0-.3.4-.6.9-.6s.9.3.9.6v1.6z"/><path fill="#F8F8F8" d="M1.8 16.3c0 .1-.4.3-.9.3s-.9-.1-.9-.3v-.7c0-.1.4-.3.9-.3s.9.1.9.3v.7z"/><path fill="#CAC9C9" d="M1.8 11.9c0 .5-.4.9-.9.9s-.9-.4-.9-.9V9.6c0-.5.4-.9.9-.9s.9.4.9.9v2.3z"/><path fill="#E9E9E9" d="M1.8 11.6c0 .3-.4.6-.9.6s-.9-.3-.9-.6V9.9c0-.3.4-.6.9-.6s.9.3.9.6v1.7z"/><path fill="#F8F8F8" d="M1.8 11.1c0 .1-.4.3-.9.3s-.9-.1-.9-.3v-.7c0-.1.4-.3.9-.3s.9.1.9.3v.7z"/><path fill="#4F4C4D" d="M37.5 66.4c0 .6-.5 1.1-1.1 1.1H1.7c-.6 0-1.1-.5-1.1-1.1V1.1C.6.5 1.1 0 1.7 0h34.8c.6 0 1.1.5 1.1 1.1v65.3z"/><path fill="#D0EAF3" d="M35.2 57.5c0 .6-.5 1.1-1.1 1.1H3.9c-.6 0-1.1-.5-1.1-1.1V8.4c0-.6.5-1.1 1.1-1.1h30.3c.6 0 1.1.5 1.1 1.1v49.1z"/><path fill="#CAC9C9" d="M22.2 4.9c0 .3-.2.5-.5.5h-5.4c-.3 0-.5-.2-.5-.5s.2-.5.5-.5h5.4c.3 0 .5.2.5.5"/><path fill="#231F20" d="M22.2 4.7c0 .3-.2.5-.5.5h-5.4c-.3 0-.5-.2-.5-.5s.2-.5.5-.5h5.4c.3 0 .5.3.5.5M20 2.5c0 .5-.4 1-1 1-.5 0-1-.4-1-1 0-.5.4-1 1-1 .5 0 1 .5 1 1"/><path fill="#1498C3" d="M19.5 2.5c0 .3-.2.5-.5.5s-.5-.2-.5-.5.3-.5.5-.5c.3 0 .5.2.5.5"/><path fill="#B9E0ED" d="M19.1 2.3c0 .1-.1.2-.2.2s-.2-.1-.2-.2 0-.3.2-.3.2.1.2.3"/><defs><path id="a" d="M15.8 59.8h6.4v6.4h-6.4z"/></defs><clipPath id="b"><use xlink:href="#a" overflow="visible"/></clipPath><path clip-path="url(#b)" fill="#231F20" d="M22.3 63c0 1.8-1.4 3.2-3.2 3.2s-3.2-1.4-3.2-3.2 1.4-3.2 3.2-3.2 3.2 1.4 3.2 3.2"/><path fill="#231F20" d="M22.3 62.8c0 1.8-1.4 3.2-3.2 3.2s-3.2-1.4-3.2-3.2 1.4-3.2 3.2-3.2 3.2 1.4 3.2 3.2"/><defs><path id="c" d="M15.9 59.6h6.3v5.5h-6.3z"/></defs><clipPath id="d"><use xlink:href="#c" overflow="visible"/></clipPath><path clip-path="url(#d)" fill="#231F20" d="M16.7 64.2c0-1.8 1.4-3.2 3.2-3.2.9 0 1.7.3 2.2.9-.4-1.3-1.6-2.3-3.1-2.3-1.8 0-3.2 1.4-3.2 3.2 0 .9.4 1.7 1 2.3 0-.3-.1-.6-.1-.9"/><circle fill="none" stroke="#FFF" stroke-width=".397" stroke-miterlimit="10" cx="19.1" cy="62.8" r="1.5"/><path fill="#C4C5C4" d="M31.7 53.8c-.8-.9-2.4-1.7-3.6-1.7H9.9c-1.2 0-2.8.8-3.6 1.7l-1.6 1.9c-.8.9-.4 1.7.8 1.7h27c1.2 0 1.6-.8.8-1.7l-1.6-1.9z"/><path fill="#7EA885" d="M11 55.1c0 .6-.5 1.1-1.1 1.1H5.8c-.6 0-1.1-.5-1.1-1.1V51c0-.6.5-1.1 1.1-1.1h4.1c.6 0 1.1.5 1.1 1.1v4.1zM18.5 55.1c0 .6-.5 1.1-1.1 1.1h-4.1c-.6 0-1.1-.5-1.1-1.1V51c0-.6.5-1.1 1.1-1.1h4.1c.6 0 1.1.5 1.1 1.1v4.1z"/><path fill="#D6543B" d="M25.9 55.1c0 .6-.5 1.1-1.1 1.1h-4.1c-.6 0-1.1-.5-1.1-1.1V51c0-.6.5-1.1 1.1-1.1h4.1c.6 0 1.1.5 1.1 1.1v4.1z"/><path fill="#1498C3" d="M33.4 55.1c0 .6-.5 1.1-1.1 1.1h-4.1c-.6 0-1.1-.5-1.1-1.1V51c0-.6.5-1.1 1.1-1.1h4.1c.6 0 1.1.5 1.1 1.1v4.1z"/><path fill="#E5952E" d="M10.9 14.9c0 .6-.5 1.1-1.1 1.1h-4c-.6 0-1.1-.5-1.1-1.1v-4.1c0-.6.5-1.1 1.1-1.1h4.1c.6 0 1.1.5 1.1 1.1v4.1z"/><path fill="#7EA885" d="M18.4 14.9c0 .6-.5 1.1-1.1 1.1h-4.1c-.6 0-1.1-.5-1.1-1.1v-4.1c0-.6.5-1.1 1.1-1.1h4.1c.6 0 1.1.5 1.1 1.1v4.1z"/><path fill="#252A26" d="M25.9 14.9c0 .6-.5 1.1-1.1 1.1h-4.1c-.6 0-1.1-.5-1.1-1.1v-4.1c0-.6.5-1.1 1.1-1.1h4.1c.6 0 1.1.5 1.1 1.1v4.1z"/><path fill="#1498C3" d="M33.3 14.9c0 .6-.5 1.1-1.1 1.1h-4.1c-.6 0-1.1-.5-1.1-1.1v-4.1c0-.6.5-1.1 1.1-1.1h4.1c.6 0 1.1.5 1.1 1.1v4.1z"/><path fill="#B14A5D" d="M10.9 22.7c0 .6-.5 1.1-1.1 1.1h-4c-.6 0-1.1-.5-1.1-1.1v-4.1c0-.6.5-1.1 1.1-1.1h4.1c.6 0 1.1.5 1.1 1.1v4.1z"/><path fill="#EBD467" d="M18.4 22.7c0 .6-.5 1.1-1.1 1.1h-4.1c-.6 0-1.1-.5-1.1-1.1v-4.1c0-.6.5-1.1 1.1-1.1h4.1c.6 0 1.1.5 1.1 1.1v4.1z"/><path fill="#473F65" d="M11 30.4c0 .6-.5 1.1-1.1 1.1H5.8c-.6 0-1.1-.5-1.1-1.1v-4.1c0-.6.5-1.1 1.1-1.1h4.1c.6 0 1.1.5 1.1 1.1v4.1z"/><path fill="#208BB5" d="M18.5 30.4c0 .6-.5 1.1-1.1 1.1h-4.1c-.6 0-1.1-.5-1.1-1.1v-4.1c0-.6.5-1.1 1.1-1.1h4.1c.6 0 1.1.5 1.1 1.1v4.1z"/><path fill="#D6543B" d="M25.9 22.7c0 .6-.5 1.1-1.1 1.1h-4.1c-.6 0-1.1-.5-1.1-1.1v-4.1c0-.6.5-1.1 1.1-1.1h4.1c.6 0 1.1.5 1.1 1.1v4.1z"/><path fill="#1498C3" d="M33.3 22.7c0 .6-.5 1.1-1.1 1.1h-4.1c-.6 0-1.1-.5-1.1-1.1v-4.1c0-.6.5-1.1 1.1-1.1h4.1c.6 0 1.1.5 1.1 1.1v4.1z"/><g opacity=".4"><defs><path id="e" d="M.6 0h36.9v67.2H.6z"/></defs><clipPath id="f"><use xlink:href="#e" overflow="visible"/></clipPath><path clip-path="url(#f)" fill="#4F4C4D" d="M36.5 0H1.7C1.1 0 .6.5.6 1.1v65.4c0 .3.2.6.4.8L37.5.8c-.1-.4-.5-.8-1-.8"/></g></svg>