<svg xmlns="http://www.w3.org/2000/svg" xmlns:xlink="http://www.w3.org/1999/xlink" width="33.9" height="55.8" viewBox="0 0 33.9 55.8"><path fill="#E8E9E8" d="M32.2 0H1.7C.8 0 0 .8 0 1.7V54c0 1 .8 1.7 1.7 1.7h24.9c4 0 7.2-3.2 7.2-7.2V1.7c.1-.9-.7-1.7-1.6-1.7"/><path fill="#C8CBC8" d="M31.4 2.7V.3h-.5v2.4H3.1V.3h-.4v2.4H.3v.4h33.2v-.4"/><path fill="#B1B5B0" d="M4.3 1.9c0-.4.3-.8.8-.8h5.3c-.1-.2-.3-.3-.6-.3H4.7c-.4 0-.7.3-.7.7 0 .2.1.4.3.6v-.2"/><path fill="#828981" d="M3.1 2.7H31v.1H3.1zM31.4 2.7h2.2v.1h-2.2zM.3 2.7h2.3v.1H.3zM31.3 22.5"/><path fill="#918F90" d="M30.2 5H3.7c-.6 0-1 .5-1 1v19.8c0 .6.5 1 1 1h23.2c2.4 0 4.4-2 4.4-4.4V6c0-.6-.5-1-1.1-1"/><path fill="#A0A96A" d="M8.2 24c-.1 0-.2-.1-.2-.2V8c0-.1.1-.2.2-.2h17.4c.1 0 .2.1.2.2v15.9c0 .1-.1.2-.2.2H8.2z"/><path fill="#231F20" d="M25.7 8v15.9H8.2V8h17.5m0-.4H8.2c-.2 0-.3.2-.3.4v15.9c0 .2.2.3.3.3h17.4c.2 0 .3-.2.3-.3V8c.1-.2 0-.4-.2-.4M5.5 12.5h.1c-.1-.1-.2-.1-.4-.1-.3 0-.5.2-.5.5 0 .2.1.3.2.4v-.2c0-.3.3-.6.6-.6"/><path fill="#9A1C1F" d="M5.8 12.9c0-.2-.1-.3-.2-.4h-.1c-.3 0-.6.3-.6.6v.2c.1.1.2.1.3.1.3 0 .6-.2.6-.5"/><path fill="#D3D2D2" d="M3.8 14.3h3.1v.6H3.8z"/><path fill="#C82257" d="M3.6 5.6h7.5v.2H3.6zM26.3 5.6h3.3v.2h-3.3z"/><path fill="#473F65" d="M3.6 6.1h7.5v.2H3.6zM26.3 6.1h3.3v.2h-3.3z"/><path fill="#EDECF0" d="M11.6 5.7h1.6v.6h-1.6zM13.8 5.7h2.7v.6h-2.7zM17 5.7h1.9v.6H17zM19.5 5.7h2.8v.6h-2.8zM22.8 5.7h2.8v.6h-2.8z"/><path fill="#B1B5B0" d="M14.9 54.2c0-.3.3-.6.6-.6h3.9c-.1-.1-.2-.2-.4-.2h-3.8c-.3 0-.5.2-.5.5 0 .2.1.3.2.4v-.1"/><path fill="#231F20" d="M26.2 35.3c0 1.2-.9 2.1-2.1 2.1-1.2 0-2.1-.9-2.1-2.1 0-1.2.9-2.1 2.1-2.1 1.2 0 2.1.9 2.1 2.1"/><g opacity=".25"><defs><path id="a" d="M22.1 34.1h4v4h-4z"/></defs><clipPath id="b"><use xlink:href="#a" overflow="visible"/></clipPath><path clip-path="url(#b)" fill="#231F20" d="M26.1 36.1c0 1.1-.9 2-2 2s-2-.9-2-2 .9-2 2-2 2 .9 2 2"/></g><g opacity=".25"><defs><path id="c" d="M27.6 31.5h4v4h-4z"/></defs><clipPath id="d"><use xlink:href="#c" overflow="visible"/></clipPath><path clip-path="url(#d)" fill="#231F20" d="M31.6 33.5c0 1.1-.9 2-2 2s-2-.9-2-2 .9-2 2-2 2 .9 2 2"/></g><path fill="#C82257" d="M26.1 35.5c0 1.1-.9 2-2 2s-2-.9-2-2 .9-2 2-2 2 .9 2 2"/><path fill="#231F20" d="M31.8 32.7c0 1.2-.9 2.1-2.1 2.1-1.2 0-2.1-.9-2.1-2.1s.9-2.1 2.1-2.1c1.2 0 2.1.9 2.1 2.1"/><path fill="#C82257" d="M31.6 32.9c0 1.1-.9 2-2 2s-2-.9-2-2 .9-2 2-2 2 .9 2 2"/><path fill="#E391AB" d="M24 33.8c-.5 0-.9.2-1.2.5.3-.2.6-.3 1-.3 1 0 1.7.8 1.7 1.7 0 .5-.2.9-.5 1.2.4-.3.7-.8.7-1.4 0-.9-.7-1.7-1.7-1.7M29.6 31.2c-.5 0-.9.2-1.2.5.3-.2.6-.3 1-.3 1 0 1.7.8 1.7 1.7 0 .5-.2.9-.5 1.2.4-.3.7-.8.7-1.4 0-.9-.7-1.7-1.7-1.7"/><path fill="#473F65" d="M25.14 38.55l.815-.38.424.905-.816.38zM30.754 35.922l.815-.38.422.906-.816.38z"/><g opacity=".5"><defs><path id="e" d="M10.5 41.1h4.6v1.7h-4.6z"/></defs><clipPath id="f"><use xlink:href="#e" overflow="visible"/></clipPath><path clip-path="url(#f)" fill="#BDBCBC" d="M15 42.7c.1-.2 0-.5-.1-.8l-.1-.2c-.2-.4-.5-.7-.7-.6l-3.6 1.7 4.5-.1z"/></g><g opacity=".5"><defs><path id="g" d="M10.2 42.7H15v1.9h-4.8z"/></defs><clipPath id="h"><use xlink:href="#g" overflow="visible"/></clipPath><path clip-path="url(#h)" fill="#BDBCBC" d="M10.4 42.9c-.2.1-.2.5 0 .9l.1.2c.2.4.5.7.7.6l3.7-1.8.1-.1-4.6.2z"/></g><path fill="#231F20" d="M3.4 35.9c-.2 0-.4-.2-.4-.4v-2.1c0-.2.2-.4.4-.4h7.7c.2 0 .4.2.4.4v2.1c0 .2-.2.4-.4.4H3.4z"/><path fill="#231F20" d="M5.8 30.6c0-.2.2-.4.4-.4h2.1c.2 0 .4.2.4.4v7.7c0 .2-.2.4-.4.4H6.2c-.2 0-.4-.2-.4-.4v-7.7z"/><g opacity=".25"><defs><path id="i" d="M3.3 31.3h8v8h-8z"/></defs><clipPath id="j"><use xlink:href="#i" overflow="visible"/></clipPath><path clip-path="url(#j)" fill="#231F20" d="M10.9 33.9H8.6v-2.3c0-.2-.2-.3-.3-.3h-2c-.2 0-.3.2-.3.3v2.3H3.6c-.2 0-.3.2-.3.3v2c0 .2.2.3.3.3h2.3v2.3c0 .2.2.3.3.3h2c.2 0 .3-.2.3-.3v-2.3h2.3c.2 0 .3-.2.3-.3v-2c.2-.1 0-.3-.2-.3"/></g><path fill="#252A26" d="M3.6 36.1c-.2 0-.3-.2-.3-.3v-2c0-.2.2-.3.3-.3h7.3c.2 0 .3.2.3.3v2c0 .2-.2.3-.3.3H3.6z"/><path fill="#252A26" d="M5.9 31.1c0-.2.2-.3.3-.3h2c.2 0 .3.2.3.3v7.3c0 .2-.2.3-.3.3h-2c-.2 0-.3-.2-.3-.3v-7.3z"/><path fill="#BDBCBC" d="M14.5 42c.1.2.1.5-.1.5L11.3 44c-.2.1-.4 0-.5-.3l-.1-.1c-.1-.2-.1-.5.1-.5l3.1-1.5c.2-.1.4 0 .5.3l.1.1z"/><path fill="#473F65" d="M11 45.12l4.38-2.195.314.626-4.382 2.195z"/><g opacity=".5"><defs><path id="k" d="M17 41.3h4.6V43H17z"/></defs><clipPath id="l"><use xlink:href="#k" overflow="visible"/></clipPath><path clip-path="url(#l)" fill="#BDBCBC" d="M21.6 42.9c.1-.2 0-.5-.1-.8l-.1-.2c-.2-.4-.5-.7-.7-.6L17 43l4.6-.1z"/></g><g opacity=".5"><defs><path id="m" d="M16.8 42.9h4.8v1.9h-4.8z"/></defs><clipPath id="n"><use xlink:href="#m" overflow="visible"/></clipPath><path clip-path="url(#n)" fill="#BDBCBC" d="M16.9 43.1c-.2.1-.2.5 0 .9l.1.2c.2.4.5.7.7.6l3.7-1.8.1-.1-4.6.2z"/></g><path fill="#BDBCBC" d="M21.1 42.2c.1.2.1.5-.1.5l-3.1 1.5c-.2.1-.4 0-.5-.3l-.1-.1c-.1-.2-.1-.5.1-.5l3.1-1.5c.2-.1.4 0 .5.3l.1.1z"/><path fill="#473F65" d="M17.5 45.352l4.383-2.193.313.625-4.382 2.193z"/><path fill="#BDBCBC" d="M24.9 53.8c.1.2 0 .4-.2.4-.2.1-.4 0-.4-.2l-2.5-5.2c-.1-.2 0-.4.2-.4.2-.1.4 0 .4.2l2.5 5.2zM26.4 53.1c.1.2 0 .4-.2.4-.2.1-.4 0-.4-.2l-2.5-5.2c-.1-.2 0-.4.2-.4.2-.1.4 0 .4.2l2.5 5.2zM27.9 52.4c.1.2 0 .4-.2.4-.2.1-.4 0-.4-.2l-2.5-5.2c-.1-.2 0-.4.2-.4.2-.1.4 0 .4.2l2.5 5.2zM29.5 51.7c.1.2 0 .4-.2.4-.2.1-.4 0-.4-.2l-2.5-5.2c-.1-.2 0-.4.2-.4.2-.1.4 0 .4.2l2.5 5.2zM31 51c.1.2 0 .4-.2.4-.2.1-.4 0-.4-.2L27.9 46c-.1-.2 0-.4.2-.4.2-.1.4 0 .4.2L31 51zM32.5 50.3c.1.2 0 .4-.2.4-.2.1-.4 0-.4-.2l-2.5-5.2c-.1-.2 0-.4.2-.4.2-.1.4 0 .4.2l2.5 5.2z"/><path fill="#231F20" d="M29.5 45.3l2.3 4.9c.2-.1.2-.3.2-.4l-2.3-4.9c-.2 0-.3.2-.2.4M27.9 46l2.3 4.9c.2-.1.2-.3.2-.4l-2.3-4.9c-.2 0-.3.2-.2.4M26.5 46.7l2.3 4.9c.2-.1.2-.3.2-.4l-2.3-4.9c-.2 0-.3.2-.2.4M24.9 47.4l2.3 4.9c.2-.1.2-.3.2-.4L25 47c-.1.1-.2.3-.1.4M23.3 48.2l2.3 4.9c.2-.1.2-.3.2-.4l-2.3-4.9c-.2 0-.3.2-.2.4"/></svg>