<svg xmlns="http://www.w3.org/2000/svg" xmlns:xlink="http://www.w3.org/1999/xlink" width="68.6" height="42.5" viewBox="0 0 68.6 42.5"><path fill="none" stroke="#231F20" stroke-width="2.479" stroke-miterlimit="10" d="M34.3 6.5c.1-4-3-5.5-6.7-4.8-2.7.5-5.7 3.2-6.7 5.7"/><path fill="#474444" d="M34.3 6.5s0-.3-.1-.8c-.1-.3-.1-.6-.2-.9 0-.2-.1-.3-.2-.5s-.2-.4-.3-.5c-.2-.4-.5-.7-.9-1-.4-.3-.8-.5-1.3-.7-1-.3-2.2-.4-3.3-.2h-.2-.2l-.5.1c-.3.1-.6.2-.8.3-.3.1-.5.2-.7.3-.2.1-.5.3-.7.4-.5.4-.9.7-1.3 1-.4.3-.7.6-1 1-.3.3-.6.6-.8.9-.2.3-.4.5-.5.8-.3.4-.4.7-.4.7s.1-.3.3-.7c.1-.2.3-.5.5-.8.2-.3.4-.6.7-1 .3-.4.6-.7 1-1.1.4-.3.8-.7 1.3-1 .2-.2.5-.3.7-.5.3-.1.5-.3.8-.4.3-.1.6-.2.8-.3l.4-.1h.4c1.2-.2 2.4-.1 3.5.3s1.9 1.2 2.3 2c.3 0 .4.2.4.4.1.2.1.4.2.6.1.4.1.7.1.9v.8"/><path fill="#393536" d="M68.5 34.1l-3-20.5v-.1c-.5-3.4-2.7-6.3-5.6-7.9-.2-1.2-.4-3.1-.8-4.1C58.5 0 55.3 0 54.8 0c-.6 0-3-.1-3.9.9C50 2 49.2 4 49 5.8H36.7s-.5.6-2.4.6-2.4-.6-2.4-.6H19.6c-.2-1.8-.8-4-1.9-4.8-1.3-1-3.3-1-3.9-1s-3.7 0-4.3 1.5c-.4 1-.7 2.8-.8 4.1-2.9 1.6-5 4.5-5.6 7.9v.1L0 34.1s-.4 5.1 3.7 7.6c4.2 2.4 8.6-.7 9.8-2.7.9-1.5 4-6.8 5.4-9.2 1.3 1.4 3.2 2.4 5.3 2.4 2.7 0 5.1-1.5 6.3-3.8h7.6c1.2 2.3 3.5 3.8 6.3 3.8 2.1 0 4-.9 5.3-2.4 1.4 2.4 4.5 7.7 5.4 9.2 1.2 2 5.6 5.1 9.8 2.7s3.6-7.6 3.6-7.6"/><path fill="#231F20" d="M24.4 15.4c0 5.7-4.6 10.4-10.4 10.4-5.7 0-10.4-4.6-10.4-10.4S8.3 5 14 5c5.8 0 10.4 4.7 10.4 10.4"/><path fill="#231F20" d="M30.8 23.7c0 3.8-3.1 6.8-6.8 6.8s-6.8-3.1-6.8-6.8c0-3.8 3.1-6.8 6.8-6.8s6.8 3 6.8 6.8"/><path fill="#908E8F" d="M8.3 6.8c-.5.4-1 .8-1.4 1.2-.5.4-.9.9-1.2 1.4-.4.6-.7 1.1-.9 1.6-.3.5-.4 1.1-.6 1.7-.2.7-.4 1.3-.4 1.9 0 .3-.1.6-.1.9v.9c.2.6.3 1.2.4 1.8.2.6.4 1.2.7 1.7.1.3.3.6.4.8.2.3.3.5.5.8.4.5.8 1 1.2 1.4.4.4.9.8 1.5 1.1.5.3 1.1.6 1.6.8l.9.3.9.2c.6.1 1.2.2 1.8.2.6 0 1.2-.1 1.8-.1.6-.1 1.2-.3 1.8-.4h.1v.1l.4 1.1.5 1 .7.9.8.8.9.6c.3.2.7.3 1 .5.4.1.7.2 1.1.3l1.1.1-1.1-.1c-.4-.1-.7-.2-1.1-.3-.4-.1-.7-.3-1.1-.5-.3-.2-.6-.4-1-.6-.3-.3-.6-.5-.9-.8l-.7-.9-.5-1-.4-1.1.2.1c-.6.1-1.2.3-1.8.4-.6 0-1.2.1-1.9.1-.6 0-1.3-.1-1.9-.2l-.9-.2-.7-.2c-.6-.3-1.1-.5-1.6-.9s-1-.7-1.5-1.2c-.5-.4-.9-.9-1.2-1.4-.2-.2-.4-.5-.5-.8-.2-.2-.4-.5-.5-.8-.3-.6-.5-1.1-.7-1.7-.2-.6-.3-1.2-.4-1.8l-.1-.9v-.9c0-.3 0-.6.1-.9.1-.3.1-.6.2-.9.2-.6.4-1.2.7-1.8.2-.6.6-1.1.9-1.6.4-.5.8-1 1.2-1.4.6-.6 1.1-.9 1.7-1.3z"/><defs><path id="a" d="M19.3 18.9h9.5v9.5h-9.5z"/></defs><clipPath id="b"><use xlink:href="#a" overflow="visible"/></clipPath><path clip-path="url(#b)" fill="#231F20" d="M28.7 23.7c0 2.6-2.1 4.7-4.7 4.7s-4.7-2.1-4.7-4.7S21.4 19 24 19s4.7 2 4.7 4.7"/><path fill="#706E6E" d="M27.7 23.7c0 2.1-1.7 3.8-3.8 3.8s-3.8-1.7-3.8-3.8 1.7-3.8 3.8-3.8 3.8 1.7 3.8 3.8"/><path fill="#5F5C5C" d="M26.1 20.5c.5.6.8 1.4.8 2.3 0 2.1-1.7 3.8-3.8 3.8-.8 0-1.5-.2-2.1-.6.7.9 1.8 1.5 3 1.5 2.1 0 3.8-1.7 3.8-3.8-.1-1.3-.7-2.5-1.7-3.2"/><path fill="#231F20" d="M21.6 12.3h-4.5V7.9c0-.3-.2-.5-.5-.5h-5.2c-.3 0-.5.2-.5.5v4.5H6.5c-.3 0-.5.2-.5.5V18c0 .3.2.5.5.5H11V23c0 .3.2.5.5.5h5.2c.3 0 .5-.2.5-.5v-4.5h4.5c.3 0 .5-.2.5-.5v-5.2c-.1-.2-.3-.5-.6-.5"/><path fill="#706E6E" d="M16.9 23c0 .3-.2.5-.5.5h.2c.3 0 .5-.2.5-.5v-4.5h-.2V23zM16.9 7.8v4.5h.2V7.8c0-.3-.2-.5-.5-.5h-.2c.3 0 .5.3.5.5M21.6 12.3h-.2c.3 0 .5.2.5.5V18c0 .3-.2.5-.5.5h.2c.3 0 .5-.2.5-.5v-5.2c0-.3-.2-.5-.5-.5"/><defs><path id="c" d="M6 12.3h.7v6.2H6z"/></defs><clipPath id="d"><use xlink:href="#c" overflow="visible"/></clipPath><path clip-path="url(#d)" fill="#231F20" d="M6.2 18v-5.2c0-.3.2-.5.5-.5h-.2c-.3 0-.5.2-.5.5V18c0 .3.2.5.5.5h.2c-.3 0-.5-.2-.5-.5"/><defs><path id="e" d="M11 7.4h.7v5H11z"/></defs><clipPath id="f"><use xlink:href="#e" overflow="visible"/></clipPath><path clip-path="url(#f)" fill="#231F20" d="M11.2 7.9c0-.3.2-.5.5-.5h-.2c-.3 0-.5.2-.5.5v4.5h.2V7.9z"/><defs><path id="g" d="M11 18.5h.7v5H11z"/></defs><clipPath id="h"><use xlink:href="#g" overflow="visible"/></clipPath><path clip-path="url(#h)" fill="#231F20" d="M11.2 23v-4.5H11V23c0 .3.2.5.5.5h.2c-.3 0-.5-.3-.5-.5"/><path fill="#231F20" d="M44.1 15.4c0 5.7 4.6 10.4 10.4 10.4 5.7 0 10.4-4.6 10.4-10.4S60.3 5 54.5 5c-5.7 0-10.4 4.7-10.4 10.4"/><path fill="#231F20" d="M37.8 23.7c0 3.8 3.1 6.8 6.8 6.8s6.8-3.1 6.8-6.8c0-3.8-3.1-6.8-6.8-6.8s-6.8 3-6.8 6.8"/><defs><path id="i" d="M39.8 18.9h9.5v9.5h-9.5z"/></defs><clipPath id="j"><use xlink:href="#i" overflow="visible"/></clipPath><path clip-path="url(#j)" fill="#231F20" d="M39.8 23.7c0 2.6 2.1 4.7 4.7 4.7s4.7-2.1 4.7-4.7-2.1-4.7-4.7-4.7c-2.5-.1-4.7 2-4.7 4.7"/><path fill="#706E6E" d="M40.8 23.7c0 2.1 1.7 3.8 3.8 3.8s3.8-1.7 3.8-3.8-1.7-3.8-3.8-3.8-3.8 1.7-3.8 3.8"/><path fill="#5F5C5C" d="M42.5 20.5c-.5.6-.8 1.4-.8 2.3 0 2.1 1.7 3.8 3.8 3.8.8 0 1.5-.2 2.1-.6-.7.9-1.8 1.5-3 1.5-2.1 0-3.8-1.7-3.8-3.8 0-1.3.7-2.5 1.7-3.2"/><path fill="#231F20" d="M47 12.3h4.5V7.9c0-.3.2-.5.5-.5h5.2c.3 0 .5.2.5.5v4.5h4.5c.3 0 .5.2.5.5V18c0 .3-.2.5-.5.5h-4.5V23c0 .3-.2.5-.5.5H52c-.3 0-.5-.2-.5-.5v-4.5H47c-.3 0-.5-.2-.5-.5v-5.2c0-.2.2-.5.5-.5"/><path fill="#706E6E" d="M57.4 23c0 .3-.2.5-.5.5h.2c.3 0 .5-.2.5-.5v-4.5h-.2V23zM57.4 7.8v4.5h.2V7.8c0-.3-.2-.5-.5-.5h-.2c.3 0 .5.3.5.5M62.1 12.3h-.2c.3 0 .5.2.5.5V18c0 .3-.2.5-.5.5h.2c.3 0 .5-.2.5-.5v-5.2c0-.3-.2-.5-.5-.5"/><defs><path id="k" d="M46.5 12.3h.7v6.2h-.7z"/></defs><clipPath id="l"><use xlink:href="#k" overflow="visible"/></clipPath><path clip-path="url(#l)" fill="#231F20" d="M46.7 18v-5.2c0-.3.2-.5.5-.5H47c-.3 0-.5.2-.5.5V18c0 .3.2.5.5.5h.2c-.3 0-.5-.2-.5-.5"/><defs><path id="m" d="M51.4 7.4h.7v5h-.7z"/></defs><clipPath id="n"><use xlink:href="#m" overflow="visible"/></clipPath><path clip-path="url(#n)" fill="#231F20" d="M51.6 7.9c0-.3.2-.5.5-.5h-.2c-.3 0-.5.2-.5.5v4.5h.2V7.9z"/><defs><path id="o" d="M51.4 18.5h.7v5h-.7z"/></defs><clipPath id="p"><use xlink:href="#o" overflow="visible"/></clipPath><path clip-path="url(#p)" fill="#231F20" d="M51.6 23v-4.5h-.2V23c0 .3.2.5.5.5h.2c-.2 0-.5-.3-.5-.5"/><path fill="#908E8F" d="M15.6 10h-3c-.1 0-.2.1-.2.2V12.5c.1.3.2.3.2.3l.8.8c.3.3.7.3.7.3s.5 0 .7-.3l.8-.8s.1 0 .2-.3V10.2c.1-.1-.1-.2-.2-.2"/><path fill="none" stroke="#252A26" stroke-width=".248" stroke-miterlimit="10" d="M15.6 10h-3c-.1 0-.2.1-.2.2V12.5c.1.3.2.3.2.3l.8.8c.3.3.7.3.7.3s.5 0 .7-.3l.8-.8s.1 0 .2-.3V10.2c.1-.1-.1-.2-.2-.2z"/><path fill="#B2B0B1" d="M15.3 10.4h-2.5c-.1 0-.2.1-.2.2V12.5c0 .3.1.3.1.3l.7.7c.2.2.6.2.6.2s.4 0 .6-.2l.7-.7s.1 0 .1-.3V10.6c.1-.1 0-.2-.1-.2"/><path fill="#DDD" d="M12.9 10.4c-.1 0-.2.1-.2.2V12.4c0 .1.1.2.1.3.2.2.4.4.6.7-.2-.2-.5-.4-.7-.6-.1-.1-.1-.2-.2-.3V11v-.3c.2-.2.3-.3.4-.3"/><path fill="#908E8F" d="M8.6 13.9v3c0 .1.1.2.2.2H11.1c.3-.1.3-.2.3-.2l.8-.8c.3-.3.3-.7.3-.7s0-.5-.3-.7l-.8-.8s0-.1-.3-.2H8.9c-.2-.1-.3 0-.3.2"/><path fill="none" stroke="#252A26" stroke-width=".248" stroke-miterlimit="10" d="M8.6 13.9v3c0 .1.1.2.2.2H11.1c.3-.1.3-.2.3-.2l.8-.8c.3-.3.3-.7.3-.7s0-.5-.3-.7l-.8-.8s0-.1-.3-.2H8.9c-.2-.1-.3 0-.3.2z"/><path fill="#B2B0B1" d="M9 14.2v2.5c0 .1.1.2.2.2H11.1c.3 0 .3-.1.3-.1l.7-.7c.2-.2.2-.6.2-.6s0-.4-.2-.6l-.7-.7s0-.1-.3-.1H9.2c-.1-.1-.2 0-.2.1"/><path fill="#DDD" d="M9 16.6c0 .1.1.2.2.2H11c.1 0 .2-.1.2-.1.2-.2.4-.4.7-.6-.2.2-.4.5-.6.7-.1.1-.2.1-.3.2H9.2c-.1-.2-.2-.3-.2-.4"/><path fill="#908E8F" d="M12.5 20.8h3c.1 0 .2-.1.2-.2v-2.2-.1c0-.3-.1-.3-.1-.3l-.8-.8c-.3-.3-.7-.3-.7-.3s-.5 0-.7.3c-.4.2-.9.8-.9.8s-.1 0-.2.3V20.6c-.1.1.1.2.2.2"/><path fill="none" stroke="#252A26" stroke-width=".248" stroke-miterlimit="10" d="M12.5 20.8h3c.1 0 .2-.1.2-.2v-2.2-.1c0-.3-.1-.3-.1-.3l-.8-.8c-.3-.3-.7-.3-.7-.3s-.5 0-.7.3c-.4.2-.9.8-.9.8s-.1 0-.2.3V20.6c-.1.1.1.2.2.2z"/><path fill="#B2B0B1" d="M12.8 20.5h2.5c.1 0 .2-.1.2-.2v-1.8-.1l-.1-.3-.7-.7c-.2-.2-.6-.2-.6-.2s-.4 0-.6.2l-.7.7s-.1 0-.1.3V20.3c-.1.1 0 .2.1.2"/><path fill="#DDD" d="M15.2 20.5c.1 0 .2-.1.2-.2V18.6v-.1c0-.1-.1-.2-.1-.2-.2-.2-.4-.4-.6-.7.2.2.5.4.7.6.1.1.1.2.2.3v1.8c-.2.1-.3.2-.4.2"/><path fill="#908E8F" d="M19.5 17v-3c0-.1-.1-.2-.2-.2H17h-.1c-.3.1-.3.2-.3.2l-.8.8c-.3.3-.3.7-.3.7s0 .5.3.7l.8.8s0 .1.3.2H19.2c.1 0 .3-.1.3-.2"/><path fill="none" stroke="#252A26" stroke-width=".248" stroke-miterlimit="10" d="M19.5 17v-3c0-.1-.1-.2-.2-.2H17h-.1c-.3.1-.3.2-.3.2l-.8.8c-.3.3-.3.7-.3.7s0 .5.3.7l.8.8s0 .1.3.2H19.2c.1 0 .3-.1.3-.2z"/><path fill="#B2B0B1" d="M19.1 16.7v-2.5c0-.1-.1-.2-.2-.2h-1.8-.1l-.3.1-.7.7c-.2.2-.2.6-.2.6s0 .4.2.6l.7.7s0 .1.3.1H18.9c.1.1.2 0 .2-.1"/><path fill="#DDD" d="M19.1 14.2c0-.1-.1-.2-.2-.2H17.2h-.1c-.1 0-.2.1-.3.1-.2.2-.4.4-.7.6.2-.2.4-.5.6-.7 0-.1.1-.1.1-.1l.2.1h1.8c.2.1.3.2.3.2"/><path fill="#4F4B4D" d="M6.7 25.1s.1.9-.1 2.2c0 .7-.1 1.4-.3 2.2-.1.8-.3 1.7-.5 2.5-.2.9-.4 1.7-.6 2.5-.2.8-.5 1.5-.7 2.1-.5 1.2-.9 2-.9 2s-.1-.9.1-2.2c0-.7.1-1.4.3-2.2.1-.8.3-1.7.5-2.5.2-.9.4-1.7.6-2.5.2-.8.5-1.5.7-2.1.4-1.2.9-2 .9-2M51.4 28.4s.6.6 1.3 1.5c.4.5.8 1.1 1.2 1.7.4.6.8 1.3 1.2 2 .4.7.7 1.4 1.1 2.1.3.7.6 1.3.8 1.9.4 1.1.6 2 .6 2s-.6-.6-1.3-1.5c-.4-.5-.8-1.1-1.2-1.7-.4-.6-.8-1.3-1.2-2-.4-.7-.7-1.4-1.1-2.1-.3-.7-.6-1.3-.8-1.9-.4-1.2-.6-2-.6-2"/><path fill="#908E8F" d="M56.7 10.2c0 1.2-1 2.2-2.2 2.2-1.2 0-2.2-1-2.2-2.2s1-2.2 2.2-2.2c1.2 0 2.2 1 2.2 2.2"/><circle fill="none" stroke="#252A26" stroke-width=".248" stroke-miterlimit="10" cx="54.5" cy="10.2" r="2.2"/><path fill="#B2B0B1" d="M52.8 10.2v-.1-.3c0-.1.1-.3.2-.5s.2-.3.3-.5c.2-.1.3-.2.5-.3.2-.1.3-.1.5-.2h.4s-.2 0-.4.1c-.1 0-.3.1-.4.2-.2.1-.3.2-.4.3-.1.1-.2.3-.3.4-.1.1-.1.3-.2.4-.2.3-.2.5-.2.5"/><path fill="#908E8F" d="M51.8 15.4c0 1.2-1 2.2-2.2 2.2-1.2 0-2.2-1-2.2-2.2s1-2.2 2.2-2.2c1.2 0 2.2 1 2.2 2.2"/><circle fill="none" stroke="#252A26" stroke-width=".248" stroke-miterlimit="10" cx="49.6" cy="15.4" r="2.2"/><path fill="#B2B0B1" d="M47.8 15.4v-.1-.3c0-.1.1-.3.2-.5s.2-.3.3-.5c.2-.1.3-.2.5-.3.2-.1.3-.1.5-.2h.4s-.2 0-.4.1c-.1 0-.3.1-.4.2-.2.1-.3.2-.4.3-.1.1-.2.3-.3.4-.1.1-.1.3-.2.4-.1.3-.2.5-.2.5"/><path fill="#908E8F" d="M56.9 20.7c0 1.2-1 2.2-2.2 2.2-1.2 0-2.2-1-2.2-2.2 0-1.2 1-2.2 2.2-2.2 1.2 0 2.2 1 2.2 2.2"/><circle fill="none" stroke="#252A26" stroke-width=".248" stroke-miterlimit="10" cx="54.7" cy="20.7" r="2.2"/><path fill="#B2B0B1" d="M53 20.8v-.1-.3c0-.1.1-.3.2-.5s.2-.3.3-.5c.2-.1.3-.2.5-.3.2-.1.3-.1.5-.2h.4s-.2 0-.4.1c-.1 0-.3.1-.4.2-.2.1-.3.2-.4.3-.1.1-.2.3-.3.4-.1.1-.1.3-.2.4-.2.3-.2.5-.2.5"/><path fill="#908E8F" d="M61.7 15.4c0 1.2-1 2.2-2.2 2.2-1.2 0-2.2-1-2.2-2.2 0-1.2 1-2.2 2.2-2.2 1.2 0 2.2 1 2.2 2.2"/><circle fill="none" stroke="#252A26" stroke-width=".248" stroke-miterlimit="10" cx="59.5" cy="15.4" r="2.2"/><path fill="#B2B0B1" d="M57.7 15.4v-.1-.3c0-.1.1-.3.2-.5s.2-.3.3-.5c.2-.1.3-.2.5-.3.2-.1.3-.1.5-.2h.4s-.2 0-.4.1c-.1 0-.3.1-.4.2-.2.1-.3.2-.4.3-.1.1-.2.3-.3.4-.1.1-.1.3-.2.4-.1.3-.2.5-.2.5"/><circle fill="none" stroke="#C65F6F" stroke-width=".322" stroke-miterlimit="10" cx="59.5" cy="15.4" r="1.3"/><path fill="none" stroke="#DD959D" stroke-width=".301" stroke-miterlimit="10" d="M48.4 14.1h2.4v2.4h-2.4z"/><path fill="none" stroke="#7EA885" stroke-width=".34" stroke-miterlimit="10" d="M53.4 11.2l1.1-2 1.1 2z"/><path fill="none" stroke="#B3B3B3" stroke-width=".437" stroke-miterlimit="10" d="M53.6 19.7l2.2 2.4M55.8 19.7l-2.2 2.4"/><path fill="none" stroke="#908E8F" stroke-width=".248" stroke-miterlimit="10" d="M21.8 7.4h25.3"/><path fill="none" stroke="#231F20" stroke-width=".248" stroke-miterlimit="10" d="M31 26h6.8"/><path fill="#908E8F" d="M49.5 6.4l-.6.4c-.2.2-.4.3-.6.5l-.6.5c-.2.2-.4.3-.6.5l-.5.6c-.2.2-.3.4-.5.6l-.4.6-.3.7c-.1.2-.3.5-.3.7l-.3.7c-.1.2-.2.5-.2.7l-.2.8c-.1.3-.1.5-.1.8l-.1.8v1.6l-1.2.3-1.2.4c-.4.2-.8.4-1.1.7-.3.3-.7.6-1 .9-.3.4-.6.7-.8 1l-.6 1.2c-.1.4-.3.8-.3 1.2 0 .4-.1.9-.1 1.3.1.4.1.9.2 1.3s.2.8.4 1.2c.2.4.4.8.6 1.1.3.3.5.7.8 1 .3.3.7.6 1 .8.4.2.8.4 1.1.6.4.1.8.3 1.2.4l1.3.2-1.3-.1c-.4-.1-.9-.2-1.3-.4l-1.2-.6c-.4-.2-.7-.5-1.1-.8-.3-.3-.6-.7-.9-1-.2-.4-.4-.8-.7-1.2-.2-.4-.3-.9-.4-1.3-.1-.4-.1-.9-.1-1.3 0-.5.1-.9.1-1.3.1-.4.2-.9.4-1.3.1-.4.4-.8.6-1.2.2-.4.5-.7.8-1 .3-.3.7-.6 1-.9.4-.2.8-.4 1.1-.7l1.3-.4 1.3-.2v.1l-.1-.8c0-.3-.1-.5 0-.8v-.8c0-.3 0-.5.1-.8l.2-.8c0-.3.1-.5.2-.8l.3-.7c.1-.3.2-.5.3-.7l.4-.7.5-.6c.2-.2.3-.4.5-.6l.5-.6c.2-.2.4-.4.6-.5l.6-.5c.2-.2.4-.3.7-.4l.6-.4z"/><path fill="#676464" d="M9.2 5.2c.1-1 .3-2 .5-3 0-.2.1-.3.3-.5.1-.2.3-.3.4-.4.1-.1.3-.2.5-.3.1-.1.3-.2.5-.3.2-.1.3-.2.5-.2l.5-.1c.2-.1.4 0 .5-.1h.5l-.5.1c-.2 0-.4.1-.5.1l-.5.2c-.2 0-.3.1-.5.2s-.3.2-.5.3c-.1.1-.3.2-.4.3-.2.3-.5.5-.7.8-.1 1-.4 2-.6 2.9M50 5.4c.1-1 .3-2 .5-3 .1-.2.2-.3.3-.5.1-.2.3-.3.4-.4.1-.1.3-.2.5-.3.1-.1.3-.2.4-.3.2-.1.3-.2.5-.2l.5-.1c.2-.1.4 0 .5-.1h.5l-.5.1c-.2 0-.4.1-.5.1l-.5.2c-.2 0-.3.1-.5.2s-.3.2-.5.3c-.1.1-.3.2-.4.3-.3.2-.5.5-.7.8 0 1-.3 1.9-.5 2.9"/><path fill="#908E8F" d="M26.6 13h3v1.8h-3z"/><path fill="none" stroke="#252A26" stroke-width=".248" stroke-miterlimit="10" d="M26.6 13h3v1.8h-3z"/><path fill="#908E8F" d="M38.8 13v1.8l3.1-.9"/><path fill="none" stroke="#252A26" stroke-width=".248" stroke-miterlimit="10" d="M38.8 13v1.8l3.1-.9z"/><g><defs><path id="q" d="M31.7 19h5.2v2.5h-5.2z"/></defs><clipPath id="r"><use xlink:href="#q" overflow="visible"/></clipPath><path clip-path="url(#r)" fill="#908E8F" d="M31.7 19v2.5l5.1-2.5"/></g><path fill="#646262" d="M36.9 19h-.1l-5.1 2.5h5.2"/><path fill="#908E8F" d="M32.8 19.4h2.9v1.7h-2.9z"/><path fill="none" stroke="#252A26" stroke-width=".248" stroke-miterlimit="10" d="M32.8 19.4h2.9v1.7h-2.9z"/><path fill="#C82257" d="M35.7 23.7c0 .1-.1.2-.2.2H33c-.1 0-.2-.1-.2-.2V23c0-.1.1-.2.2-.2h2.4c.1 0 .2.1.2.2v.7z"/></svg>