<svg xmlns="http://www.w3.org/2000/svg" xmlns:xlink="http://www.w3.org/1999/xlink" width="59.3" height="41.1" viewBox="0 0 59.3 41.1"><path fill="#E9E9E9" d="M59.1 28.7c-.3-4.7-3.4-14.3-5.6-20.8C51.3 1.4 45.6 0 45.6 0h-3.4s-1.9 1.4-2.9 2.5c-1.1 1.1-3.9 1.7-3.9 1.7H23.8s-2.8-.6-3.9-1.7S17 0 17 0h-3.4S7.9 1.4 5.8 7.9C3.6 14.4.5 24 .2 28.7s-.9 13.8 4 12.2C9.1 39.4 15.7 33 15.7 33s3.2-3.6 7.5-3.6H36c4.3 0 7.5 3.6 7.5 3.6s6.6 6.4 11.5 8c5 1.5 4.3-7.6 4.1-12.3m-29.5-13c-2 0-3.7-1.7-3.7-3.7 0-2.1 1.7-3.7 3.7-3.7s3.7 1.7 3.7 3.7-1.6 3.7-3.7 3.7"/><path fill="#A0A96A" d="M33.6 11.9c0 2.2-1.8 4-4 4s-4-1.8-4-4 1.8-4 4-4c2.2.1 4 1.8 4 4"/><path fill="#D9DDC3" d="M29.6 10.6c0 .7-.6 1.3-1.3 1.3-.7 0-1.3-.6-1.3-1.3 0-.7.6-1.3 1.3-1.3.7 0 1.3.5 1.3 1.3"/><defs><path id="a" d="M26.7 8.6h6.9v7.3h-6.9z"/></defs><clipPath id="b"><use xlink:href="#a" overflow="visible"/></clipPath><path clip-path="url(#b)" fill="#A0A96A" d="M31.8 8.6c.6.7 1 1.6 1 2.6 0 2.2-1.8 4-4 4-.8 0-1.6-.2-2.2-.7.7.8 1.8 1.4 3 1.4 2.2 0 4-1.8 4-4 0-1.4-.7-2.6-1.8-3.3"/><path fill="#303531" d="M20.7 26.7c-.4 0-.7-.3-.7-.7v-2.2h-2.2c-.4 0-.7-.3-.7-.7v-1.5c0-.4.3-.7.7-.7H20v-2.2c0-.4.3-.7.7-.7h1.5c.4 0 .7.3.7.7v2.2h2.2c.4 0 .7.3.7.7V23c0 .4-.3.7-.7.7H23V26c0 .4-.3.7-.7.7h-1.6z"/><path fill="#464A47" d="M22.3 18c.3 0 .6.3.6.6V20.9H25.2c.3 0 .6.3.6.6V23c0 .3-.3.6-.6.6H22.9V26c0 .3-.3.6-.6.6h-1.5c-.3 0-.6-.3-.6-.6V23.7H17.9c-.3 0-.6-.3-.6-.6v-1.5c0-.3.3-.6.6-.6H20.2V18.7c0-.3.3-.6.6-.6h1.5m0-.4h-1.5c-.5 0-.9.4-.9.9v2.1h-2.1c-.5 0-.9.4-.9.9V23c0 .5.4.9.9.9h2.1V26c0 .5.4.9.9.9h1.5c.5 0 .9-.4.9-.9v-2.1h2.1c.5 0 .9-.4.9-.9v-1.5c0-.5-.4-.9-.9-.9h-2.1v-2.1c-.1-.4-.5-.8-.9-.8"/><path fill="#231F20" d="M21 22.3c0-.4.3-.7.7-.7.2 0 .3.1.4.2-.1-.2-.3-.4-.6-.4-.4 0-.7.3-.7.7 0 .2.1.4.3.5 0-.1-.1-.2-.1-.3"/><path fill="#D3D2D2" d="M11.8.7c-1.8 1-4.6 3-6 7.1C3.6 14.4.5 24 .2 28.7c-.3 4.7-.9 13.8 4 12.2.5-.2 1.1-.4 1.6-.6-7.9-6 2.7-32 6-39.6M37.9 29.7c3.3.8 5.6 3.4 5.6 3.4S50.1 39.4 55 41c1.9.6 2.9-.4 3.5-2-4.5-.1-8.3-4.6-10.8-6.9-1.5-1.5-5.9-2.1-9.8-2.4"/><g opacity=".3"><defs><path id="c" d="M47.5.7h11.8v40.4H47.5z"/></defs><clipPath id="d"><use xlink:href="#c" overflow="visible"/></clipPath><path clip-path="url(#d)" fill="#D3D2D2" d="M47.5.7c1.8 1 4.6 3 6 7.1 2.2 6.5 5.3 16.2 5.6 20.8.3 4.7.9 13.8-4 12.2-.5-.2-1.1-.4-1.6-.6 7.8-5.9-2.7-31.9-6-39.5"/></g><g opacity=".3"><defs><path id="e" d="M.8 29.7h20.7v11.5H.8z"/></defs><clipPath id="f"><use xlink:href="#e" overflow="visible"/></clipPath><path clip-path="url(#f)" fill="#D3D2D2" d="M21.5 29.7c-3.3.8-5.6 3.4-5.6 3.4S9.3 39.4 4.4 41c-1.9.6-2.9-.4-3.5-2 4.5-.1 8.3-4.6 10.8-6.9 1.5-1.5 5.9-2.1 9.8-2.4"/></g><path fill="#252A26" d="M10.6 10.5c0-2.1 1.7-3.9 3.9-3.9 2.1 0 3.9 1.7 3.9 3.9 0 2.1-1.7 3.9-3.9 3.9s-3.9-1.7-3.9-3.9"/><defs><path id="g" d="M11.5 7.3h5.2v5.1h-5.2z"/></defs><clipPath id="h"><use xlink:href="#g" overflow="visible"/></clipPath><path clip-path="url(#h)" fill="#252A26" d="M12 11c0-1.6 1.2-2.9 2.8-2.9.7 0 1.4.3 1.8.8-.5-.9-1.4-1.5-2.4-1.5-1.5 0-2.8 1.3-2.8 2.9 0 .9.4 1.6.9 2.2-.1-.5-.3-1-.3-1.5"/><path fill="#231F20" d="M11.7 10.5c0-1.5 1.2-2.8 2.8-2.8 1.5 0 2.8 1.2 2.8 2.8s-1.2 2.8-2.8 2.8c-1.6 0-2.8-1.2-2.8-2.8"/><defs><path id="i" d="M12 8.4h5.7v5.3H12z"/></defs><clipPath id="j"><use xlink:href="#i" overflow="visible"/></clipPath><path clip-path="url(#j)" fill="#252A26" d="M17 9.9c0 1.7-1.4 3-3 3-.8 0-1.5-.3-2-.8.5.9 1.5 1.6 2.6 1.6 1.7 0 3-1.4 3-3 0-.9-.4-1.7-1-2.2.3.4.4.9.4 1.4"/><path fill="#252A26" d="M33.9 22.3c0-2.1 1.7-3.9 3.9-3.9 2.1 0 3.9 1.7 3.9 3.9 0 2.1-1.7 3.9-3.9 3.9-2.2-.1-3.9-1.8-3.9-3.9"/><defs><path id="k" d="M34.8 19.1H40v5.1h-5.2z"/></defs><clipPath id="l"><use xlink:href="#k" overflow="visible"/></clipPath><path clip-path="url(#l)" fill="#252A26" d="M35.4 22.8c0-1.6 1.2-2.9 2.8-2.9.7 0 1.4.3 1.8.8-.5-.9-1.4-1.5-2.4-1.5-1.5 0-2.8 1.3-2.8 2.9 0 .9.4 1.6.9 2.2-.2-.5-.3-1-.3-1.5"/><path fill="#231F20" d="M35 22.3c0-1.5 1.2-2.8 2.8-2.8 1.5 0 2.8 1.2 2.8 2.8 0 1.5-1.2 2.8-2.8 2.8-1.5-.1-2.8-1.3-2.8-2.8"/><defs><path id="m" d="M35.3 20.2H41v5.3h-5.7z"/></defs><clipPath id="n"><use xlink:href="#m" overflow="visible"/></clipPath><path clip-path="url(#n)" fill="#252A26" d="M40.3 21.6c0 1.7-1.4 3-3 3-.8 0-1.5-.3-2-.8.5.9 1.5 1.6 2.6 1.6 1.7 0 3-1.4 3-3 0-.9-.4-1.7-1-2.2.3.4.4.9.4 1.4"/><path fill="#A82526" d="M49.6 10.7c.1.9-.5 1.7-1.4 1.8-.9.1-1.7-.5-1.8-1.4-.1-.9.5-1.7 1.4-1.8.8-.1 1.7.5 1.8 1.4"/><path fill="#DCA8A8" d="M47.9 10.3c0 .3-.2.6-.5.6s-.6-.2-.6-.5.2-.6.5-.6.6.3.6.5"/><g><defs><path id="o" d="M47 9.4h2.6v3H47z"/></defs><clipPath id="p"><use xlink:href="#o" overflow="visible"/></clipPath><path clip-path="url(#p)" fill="#A82526" d="M48.7 9.4c.3.2.5.6.5 1 .1.9-.5 1.7-1.4 1.8-.3 0-.6 0-.9-.1.3.3.8.4 1.3.4.9-.1 1.5-.9 1.4-1.8-.1-.6-.5-1-.9-1.3"/></g><path fill="#00587E" d="M43.4 11.6c.1.9-.5 1.7-1.4 1.8-.9.1-1.7-.5-1.8-1.4-.1-.9.5-1.7 1.4-1.8.9 0 1.7.6 1.8 1.4"/><path fill="#99BCCB" d="M41.8 11.3c0 .3-.2.6-.5.6s-.6-.2-.6-.5.2-.6.5-.6.5.2.6.5"/><g><defs><path id="q" d="M40.8 10.4h2.6v3h-2.6z"/></defs><clipPath id="r"><use xlink:href="#q" overflow="visible"/></clipPath><path clip-path="url(#r)" fill="#00587E" d="M42.5 10.4c.3.2.5.6.5 1 .1.9-.5 1.7-1.4 1.8-.3 0-.6 0-.9-.1.3.3.8.4 1.3.4.9-.1 1.5-.9 1.4-1.8-.1-.6-.4-1-.9-1.3"/></g><path fill="#EBD467" d="M46.1 7.4c.1.9-.5 1.7-1.4 1.8-.9.1-1.7-.5-1.8-1.4-.1-.9.5-1.7 1.4-1.8.8-.1 1.6.5 1.8 1.4"/><path fill="#F7EEC2" d="M44.4 7c0 .3-.2.6-.5.6s-.6-.2-.6-.5.2-.6.5-.6.6.3.6.5"/><g><defs><path id="s" d="M43.4 6.1H46v3h-2.6z"/></defs><clipPath id="t"><use xlink:href="#s" overflow="visible"/></clipPath><path clip-path="url(#t)" fill="#EBD467" d="M45.2 6.1c.3.2.5.6.5 1 .1.9-.5 1.7-1.4 1.8-.3 0-.6 0-.9-.1.3.3.8.4 1.3.4.9-.1 1.5-.9 1.4-1.8-.1-.6-.5-1-.9-1.3"/></g><path fill="#005757" d="M47.1 14.9c.1.9-.5 1.7-1.4 1.8-.9.1-1.7-.5-1.8-1.4-.1-.9.5-1.7 1.4-1.8.9-.1 1.7.5 1.8 1.4"/><path fill="#99BCBC" d="M45.5 14.6c0 .3-.2.6-.5.6s-.6-.2-.6-.5.2-.6.5-.6.5.2.6.5"/><g><defs><path id="u" d="M44.5 13.7h2.6v3h-2.6z"/></defs><clipPath id="v"><use xlink:href="#u" overflow="visible"/></clipPath><path clip-path="url(#v)" fill="#005757" d="M46.2 13.7c.3.2.5.6.5 1 .1.9-.5 1.7-1.4 1.8-.3 0-.6 0-.9-.1.3.3.8.4 1.3.4.9-.1 1.5-.9 1.4-1.8-.1-.7-.4-1.1-.9-1.3"/></g></svg>