<svg xmlns="http://www.w3.org/2000/svg" xmlns:xlink="http://www.w3.org/1999/xlink" width="61" height="45.7" viewBox="0 0 61 45.7"><path fill="#231F20" d="M61 43.4V3.8c0-.4-.2-.8-.2-.8L58 .2c-.2-.2-.4-.2-.4-.2h-54c-.3 0-.5.2-.5.2S.6 2.7.2 3c-.3.4-.2.6-.2.6v1.6l.2.1v.5H0v.6l.2.1V7H0v.6l.2.1V8H0v.6l.2.1v.5H0v.6l.2.1v.5H0v.6l.2.1v.5H0v.4l.2.1v.5H0v.6l.2.1v.5H0v.6l.2.1v.5H0v.6l.2.1v.5H0v.6l.2.1v.5H0v.6l.2.1v.5H0v.6l.2.1v.5H0v.6l.2-.4v.5H0v.5l.2.1v.5H0v.6l.2.1v.5H0v.6l.2.1v.5H0v.6l.2.1v.3H0v.6l.2.1v.5H0v.6l.2.1v.5H0v16.4c0 .3.2.6.2.6s.7.7 1 1.1.6.4.6.4h56.9c.6 0 .7-.1.7-.1s.9-1 1.3-1.4c.3-.6.3-1 .3-1"/><path fill="#444142" d="M5 31v12.6L1.6 32.4"/><defs><path id="a" d="M1.6 30.1h57.7v13.5H1.6z"/></defs><clipPath id="b"><use xlink:href="#a" overflow="visible"/></clipPath><path clip-path="url(#b)" fill="#231F20" d="M3.1 30.4l-1.6 2s0 .2.2.2h1.9s.7-.1 1.1-1.4c0 0 .1-.3.3-.3h14.5v12.7l1.2-11s.2-.1.4 0 1.7.3 4.7 3.2c3 2.9 10.2 3.6 11.5 3.6s8.7-.6 14.1-6.4c0 0 .8-.6 1.5-.6h6.2V32l-1.4-2h-4.4s-.5.1-1.1 1.1c-.7.9-5.9 7.5-15 7.5s-14.8-6.8-14.9-6.9c-.1 0-.7-1.3-2.8-1.3-2.1.1-16.4 0-16.4 0"/><path fill="#444142" d="M3.6 30.5h16.2s1.2 0 2.6 1.5c1.4 1.5 6.2 6.9 15 6.9s14.2-6.6 14.2-6.6 1-1.7 2.8-1.7h3.2s.3-.1.3-.8V.1c-.2-.1-.3-.1-.3-.1h-54c-.2 0-.3.1-.4.1v29.8s-.1.6.4.6"/><path fill="#2E2A2B" d="M0 27.2v.3h8.4c.2 0 .4-.2.4-.4V5.5c0-.3-.2-.5-.4-.5H0v.1l.2.1v.5H0v.6l.2.1v.5H0v.6l.2.1V8H0v.6l.2.1v.5H0v.6l.2.1v.5H0v.6l.2.1v.5H0v.4l.2.1v.5H0v.6l.2.1v.5H0v.6l.2.1v.5H0v.6l.2.1v.5H0v.6l.2.1v.5H0v.6l.2.1v.5H0v.6l.2.1v.5H0v.6l.2-.4v.5H0v.5l.2.1v.5H0v.6l.2.1v.5H0v.6l.2.1v.5H0v.6l.2.1v.3H0v.6l.2.1v.5H0v.6l.2.1v.5H0z"/><path fill="#393536" d="M3.2 5H0v.1l.2.1v.5H0v.5l.2.1v.5H0v.5l.2.1V8H0v.5l.2.1v.5H0v.5l.2.1v.5H0v.5l.2.1v.5H0v.7l.2.1v.5H0v.5l.2.1v.5H0v.5l.2.1v.5H0v.5l.2.1v.5H0v.5l.2.1v.5H0v.5l.2.1v.5H0v.5l.2.1v.5H0v.5l.2.3v.5H0v.5l.2.1v.5H0v.5l.2.1v.5H0v.5l.2.1v.5H0v.5l.2.1v.6H0v.5l.2.1v.5H0v.5l.2.1v.5H0v.3h3.2V5z"/><path fill="#231F20" d="M0 26.1h8.3v.6H0zM0 25h8.3v.6H0z"/><path fill="#A7A5A6" d="M0 26.1h8.3v.1H0zM0 25h8.3v.1H0z"/><path fill="#231F20" d="M0 23.8h8.3v.6H0zM0 22.7h8.3v.6H0z"/><path fill="#A7A5A6" d="M0 23.8h8.3v.1H0zM0 22.7h8.3v.1H0z"/><path fill="#231F20" d="M0 21.6h8.3v.6H0zM0 20.4h8.3v.6H0z"/><path fill="#A7A5A6" d="M0 21.6h8.3v.1H0zM0 20.4h8.3v.1H0z"/><path fill="#231F20" d="M0 19.3h8.3v.6H0zM0 18.2h8.3v.6H0z"/><path fill="#A7A5A6" d="M0 19.3h8.3v.1H0zM0 18.2h8.3v.1H0z"/><path fill="#231F20" d="M0 17h8.3v.6H0zM0 15.9h8.3v.6H0z"/><path fill="#A7A5A6" d="M0 17h8.3v.1H0zM0 15.9h8.3v.1H0z"/><path fill="#231F20" d="M0 14.8h8.3v.6H0zM0 13.6h8.3v.6H0z"/><path fill="#A7A5A6" d="M0 14.8h8.3v.1H0zM0 13.6h8.3v.1H0z"/><path fill="#231F20" d="M0 12.4h8.3v.6H0zM0 11.4h8.3v.6H0z"/><path fill="#A7A5A6" d="M0 12.4h8.3v.1H0zM0 11.4h8.3v.1H0z"/><path fill="#231F20" d="M0 10.3h8.3v.6H0zM0 9.1h8.3v.6H0z"/><path fill="#A7A5A6" d="M0 10.3h8.3v.1H0zM0 9.1h8.3v.1H0z"/><path fill="#231F20" d="M0 8h8.3v.6H0zM0 6.9h8.3v.6H0z"/><path fill="#A7A5A6" d="M0 8h8.3v.1H0zM0 6.9h8.3V7H0z"/><path fill="#231F20" d="M0 5.7h8.3v.6H0z"/><path fill="#A7A5A6" d="M0 5.7h8.3v.1H0z"/><defs><path id="c" d="M17.9 19.8h38.3V39H17.9z"/></defs><clipPath id="d"><use xlink:href="#c" overflow="visible"/></clipPath><path clip-path="url(#d)" fill="#393536" d="M37.1 39c10.6 0 19.2-8.6 19.2-19.2H17.9c0 10.6 8.6 19.2 19.2 19.2"/><path fill="#656263" d="M37.1.6C26.5.6 17.9 9.2 17.9 19.8h38.3C56.3 9.2 47.7.6 37.1.6"/><g opacity=".2"><defs><path id="e" d="M0 5h3.2v22.5H0z"/></defs><clipPath id="f"><use xlink:href="#e" overflow="visible"/></clipPath><path clip-path="url(#f)" fill="#393536" d="M3.2 5H0v.1l.2.1v.5H0v.5l.2.1v.5H0v.5l.2.1V8H0v.5l.2.1v.5H0v.5l.2.1v.5H0v.5l.2.1v.5H0v.7l.2.1v.5H0v.5l.2.1v.5H0v.5l.2.1v.5H0v.5l.2.1v.5H0v.5l.2.1v.5H0v.5l.2.1v.5H0v.5l.2.1v.5H0v.5l.2.3v.5H0v.5l.2.1v.5H0v.5l.2.1v.5H0v.5l.2.1v.5H0v.5l.2.1v.6H0v.5l.2.1v.5H0v.5l.2.1v.5H0v.3h3.2V5z"/></g><path fill="#231F20" d="M37.1 36.8c-9.3 0-17-7.6-17-17 0-9.3 7.6-17 17-17 9.3 0 17 7.6 17 17s-7.6 17-17 17"/><path fill="#393536" d="M37.1 4c8.7 0 15.8 7.1 15.8 15.8s-7.1 15.8-15.8 15.8c-8.7 0-15.8-7.1-15.8-15.8S28.4 4 37.1 4m0-2.3C27.1 1.7 19 9.8 19 19.8c0 10 8.1 18.1 18.1 18.1 10 0 18.1-8.1 18.1-18.1 0-10-8.1-18.1-18.1-18.1"/><path fill="#231F20" d="M37.1 35.5c-2.3 0-4.5-.5-6.6-1.5V22c0-.1.1-.3.3-.3h12.7c.1 0 .3.1.3.3v12c-2.1 1-4.4 1.5-6.7 1.5"/><path fill="#393536" d="M43.5 21.9c.1 0 .1.1.1.1v12c-2 .9-4.2 1.4-6.5 1.4s-4.4-.5-6.5-1.4V22c0-.1.1-.1.1-.1h12.8m0-.3H30.7c-.2 0-.4.2-.4.4v12.2c2.1 1 4.4 1.5 6.8 1.5 2.4 0 4.7-.6 6.8-1.5V22c0-.3-.2-.4-.4-.4"/><path fill="#F4F4F4" d="M37.1 35.7c-2.4 0-4.7-.5-6.8-1.5v2.6c2.1.8 4.4 1.3 6.8 1.3s4.7-.5 6.8-1.3v-2.6c-2.1.9-4.4 1.5-6.8 1.5"/><defs><path id="g" d="M30.6 21.9h13v.2h-13z"/></defs><clipPath id="h"><use xlink:href="#g" overflow="visible"/></clipPath><path clip-path="url(#h)" fill="#231F20" d="M43.5 21.9H30.7c-.1 0-.1.1-.1.1v.1c0-.1.1-.1.1-.1h12.7c.1 0 .1.1.1.1V22c.1-.1 0-.1 0-.1"/><path fill="#231F20" d="M36.6 36.8c0 .3.2.5.5.5s.5-.2.5-.5-.2-.5-.5-.5-.5.2-.5.5"/><path fill="#B52126" d="M37.1 36.6c-.2 0-.4.2-.5.4.1.2.3.4.5.4s.4-.2.5-.4c-.1-.2-.3-.4-.5-.4"/><path fill="#D2B48C" d="M33.1 28.2h.7v1.5h-.7zM34.1 28.2h1.3v1.5h-1.3zM35.9 28.8h.8v.3h-.8zM37 28.2h1.5v1.5H37zM38.9 28.2h.5v1.5h-.5zM39.7 28.2h1.4v1.5h-1.4z"/><path fill="#BDBCBC" d="M30.7 33.9V22c0-.1.1-.1.1-.1h-.1c-.1 0-.1.1-.1.1v12c2 .9 4.2 1.4 6.5 1.4-2.2 0-4.4-.5-6.4-1.5"/><path fill="#F8F8F8" d="M54.5 42.8h4.4v1.3h-4.4zM49.2 43.6h4.3v.5h-4.3zM44.4 43.6h4.3v.5h-4.3z"/><defs><path id="i" d="M23.9 13.5h26.2v4.1H23.9z"/></defs><clipPath id="j"><use xlink:href="#i" overflow="visible"/></clipPath><path clip-path="url(#j)" fill="#656263" d="M50.1 15.6c0 1.1-.9 2-2 2H26c-1.1 0-2.1-.9-2.1-2s.9-2 2.1-2h22.1c1.1-.1 2 .8 2 2"/><path fill="#231F20" d="M50.1 15.4c0 1.1-.9 2-2 2H26c-1.1 0-2.1-.9-2.1-2s.9-2 2.1-2h22.1c1.1-.1 2 .8 2 2"/><defs><path id="k" d="M23.9 13.3h25.5v4.1H23.9z"/></defs><clipPath id="l"><use xlink:href="#k" overflow="visible"/></clipPath><path clip-path="url(#l)" fill="#231F20" d="M25 15.9c0-1.1.9-2 2-2H49.4c-.4-.3-.8-.5-1.4-.5H26c-1.1 0-2.1.9-2.1 2.1 0 1 .8 1.9 1.8 2-.4-.5-.7-1-.7-1.6"/><path fill="#393536" d="M29.7 17.1h14.6c1.4 0 2.6-.7 3.4-1.7H26.3c.8 1 2 1.7 3.4 1.7M48.5 13.4c-.2 0-.3-.1-.5-.1H26c-.2 0-.3 0-.5.1.1.6.3 1.2.6 1.7h21.8c.4-.5.6-1.1.6-1.7"/><path fill="#231F20" d="M26.1 15.1c.1.1.1.2.2.3h21.4c.1-.1.1-.2.2-.3H26.1z"/><path fill="#2E2A2B" d="M10.4 41.9c0 .2-.2.4-.4.4H7.6c-.2 0-.4-.2-.4-.4v-9.1c0-.2.2-.4.4-.4H10c.2 0 .4.2.4.4v9.1z"/><defs><path id="m" d="M7.2 32.4h3.2v10H7.2z"/></defs><clipPath id="n"><use xlink:href="#m" overflow="visible"/></clipPath><path clip-path="url(#n)" fill="#231F20" d="M8.6 42.3v-9.1c0-.2.2-.4.4-.4h1.4c0-.2-.2-.3-.4-.3H7.6c-.2 0-.4.2-.4.4V42c0 .2.2.4.4.4l1-.1"/><defs><path id="o" d="M7.3 32.4h3.1v10H7.3z"/></defs><clipPath id="p"><use xlink:href="#o" overflow="visible"/></clipPath><path clip-path="url(#p)" fill="#2E2A2B" d="M10 32.4H7.6c-.1 0-.3.1-.3.2h2.1c.2 0 .4.2.4.4v9.1c0 .1 0 .2-.1.2h.3c.2 0 .4-.2.4-.4v-9.1c0-.2-.2-.4-.4-.4"/><path fill="#2E2A2B" d="M7.5 40.1l.2 2h2.4v-2H7.5"/><path fill="#727070" d="M7.6 37.5l-.1 2.6h2.6v-2.6"/><path fill="#B52126" d="M7.6 37.8h2.5v.2H7.6z"/><defs><path id="q" d="M12.4 38.9H18v2.7h-5.6z"/></defs><clipPath id="r"><use xlink:href="#q" overflow="visible"/></clipPath><path clip-path="url(#r)" fill="#231F20" d="M17.8 38.9l-5.4 2.6c.1 0 .1.1.2.1h4.9c.2 0 .4-.2.4-.4v-1.9c0-.2 0-.3-.1-.4"/><defs><path id="s" d="M12.2 38.8h5.6v2.7h-5.6z"/></defs><clipPath id="t"><use xlink:href="#s" overflow="visible"/></clipPath><path clip-path="url(#t)" fill="#231F20" d="M17.5 38.8h-4.9c-.2 0-.4.2-.4.4v1.9c0 .1.1.3.2.3l5.4-2.6h-.3"/><path fill="#E4E4E4" d="M17.4 40.6c0 .2-.2.4-.4.4h-3.9c-.2 0-.4-.2-.4-.4v-.9c0-.2.2-.4.4-.4H17c.2 0 .4.2.4.4v.9z"/><path fill="#A3A1A1" d="M14.1 39.9c0 .1-.1.1-.1.1-.1 0-.1-.1-.1-.1 0-.1.1-.1.1-.1l.1.1M14.1 40.5c0 .1-.1.1-.1.1-.1 0-.1-.1-.1-.1 0-.1.1-.1.1-.1l.1.1M14.5 39.9c0 .1-.1.1-.1.1-.1 0-.1-.1-.1-.1 0-.1.1-.1.1-.1.1 0 .1.1.1.1M14.5 40.5c0 .1-.1.1-.1.1-.1 0-.1-.1-.1-.1 0-.1.1-.1.1-.1.1 0 .1.1.1.1M15 39.9c0 .1-.1.1-.1.1l-.1-.1c0-.1.1-.1.1-.1l.1.1M15 40.5c0 .1-.1.1-.1.1l-.1-.1c0-.1.1-.1.1-.1l.1.1M15.4 39.9c0 .1-.1.1-.1.1l-.1-.1c0-.1.1-.1.1-.1l.1.1M15.4 40.5c0 .1-.1.1-.1.1l-.1-.1c0-.1.1-.1.1-.1l.1.1M15.9 39.9c0 .1-.1.1-.1.1-.1 0-.1-.1-.1-.1 0-.1.1-.1.1-.1l.1.1M15.9 40.5c0 .1-.1.1-.1.1-.1 0-.1-.1-.1-.1 0-.1.1-.1.1-.1l.1.1M16.3 39.9c0 .1-.1.1-.1.1-.1 0-.1-.1-.1-.1 0-.1.1-.1.1-.1.1 0 .1.1.1.1M16.3 40.5c0 .1-.1.1-.1.1-.1 0-.1-.1-.1-.1 0-.1.1-.1.1-.1.1 0 .1.1.1.1"/><g><defs><path id="u" d="M12.3 32.5h5.6v2.7h-5.6z"/></defs><clipPath id="v"><use xlink:href="#u" overflow="visible"/></clipPath><path clip-path="url(#v)" fill="#231F20" d="M17.7 32.5l-5.4 2.6c.1 0 .1.1.2.1h4.9c.2 0 .4-.2.4-.4v-1.9c.1-.3 0-.4-.1-.4"/></g><g><defs><path id="w" d="M12.1 32.4h5.6v2.7h-5.6z"/></defs><clipPath id="x"><use xlink:href="#w" overflow="visible"/></clipPath><path clip-path="url(#x)" fill="#231F20" d="M17.5 32.4h-4.9c-.2 0-.4.2-.4.4v1.9c0 .1.1.3.2.3l5.4-2.6h-.3"/></g><g><defs><path id="y" d="M12.4 32.6h5.1V35h-5.1z"/></defs><clipPath id="z"><use xlink:href="#y" overflow="visible"/></clipPath><path clip-path="url(#z)" fill="#231F20" d="M17.6 34.6c0 .2-.2.4-.4.4h-4.3c-.2 0-.4-.2-.4-.4V33c0-.2.2-.4.4-.4h4.3c.2 0 .4.2.4.4v1.6z"/></g><path fill="#231F20" d="M13.7 32.7h3.9v2.2h-3.9z"/><g><defs><path id="A" d="M13.8 32.8h1.4v1.3h-1.4z"/></defs><clipPath id="B"><use xlink:href="#A" overflow="visible"/></clipPath><path clip-path="url(#B)" fill="#231F20" d="M13.8 32.8c.3-.1.8-.1 1.1.2.1.1.3.3.3.5.1.2 0 .4 0 .6-.1-.3-.2-.6-.5-.8-.1-.1-.3-.2-.4-.2-.2-.2-.3-.2-.5-.3"/></g><g><defs><path id="C" d="M16.2 32.8h1.4v2.1h-1.4z"/></defs><clipPath id="D"><use xlink:href="#C" overflow="visible"/></clipPath><path clip-path="url(#D)" fill="#231F20" d="M17.6 32.8s-1.4.1-1.4 1v1.1h1.4v-2.1z"/></g><path fill="#B52126" d="M15.6 33.3h.2v1.5h-.2z"/></svg>