<svg xmlns="http://www.w3.org/2000/svg" xmlns:xlink="http://www.w3.org/1999/xlink" width="35.8" height="60.2" viewBox="0 0 35.8 60.2"><path fill="#231F20" d="M0 55.2c0 2.8 2.2 5 5 5h25.8c2.8 0 5-2.2 5-5V1c0-.6-.4-1-1-1H1C.4 0 0 .4 0 1v54.2z"/><path fill="#FFF" d="M3.2 5h1.2v2.3H3.2zM4.7 5h1.2v2.3H4.7zM7.6 5h1.2v2.3H7.6zM9 5h1.2v2.3H9zM6.1 4.2h1.2v3.1H6.1z"/><defs><path id="a" d="M2.7 8.9h29.7v8.9H2.7z"/></defs><clipPath id="b"><use xlink:href="#a" overflow="visible"/></clipPath><path clip-path="url(#b)" fill="#252A26" d="M4.2 9.9c-.3 0-.5.2-.5.5v6.1c0 .3.2.5.5.5H6l-2.6.8c-.4-.3-.7-.7-.7-1.3v-6.1c0-.8.7-1.5 1.5-1.5h27.4c.3 0 .6.1.8.2l-2.6.8H4.2z"/><defs><path id="c" d="M3.4 9.1h29.7V18H3.4z"/></defs><clipPath id="d"><use xlink:href="#c" overflow="visible"/></clipPath><path clip-path="url(#d)" fill="#252A26" d="M33.1 10.4v6.1c0 .8-.7 1.5-1.5 1.5H4.2c-.3 0-.6-.1-.8-.2L6 17h25.6c.3 0 .5-.2.5-.5v-6.1c0-.3-.2-.5-.5-.5h-1.8l2.6-.8c.4.3.7.8.7 1.3"/><path fill="#D6543B" d="M32.6 16.5c0 .6-.5 1-1 1H4.2c-.6 0-1-.4-1-1v-6.1c0-.6.5-1 1-1h27.4c.6 0 1 .4 1 1v6.1z"/><path fill="#231F20" d="M29.6 11.8l-.7 3.4c0 .1-.1.2-.1.2h-1.6l.7-3.4c0-.1.1-.2.1-.2h1.6m.1-.8H28c-.4 0-.6.3-.8.8l-.8 3.6c-.1.4.4.8.8.8h1.7c.4 0 .6-.3.8-.8l.8-3.6c0-.4-.4-.8-.8-.8"/><defs><path id="e" d="M4 21.5h2.4v2.4H4z"/></defs><clipPath id="f"><use xlink:href="#e" overflow="visible"/></clipPath><path clip-path="url(#f)" fill="#231F20" d="M6.4 22.7c0 .7-.5 1.2-1.2 1.2S4 23.4 4 22.7s.5-1.2 1.2-1.2 1.2.6 1.2 1.2"/><defs><path id="g" d="M9 21.5h2.4v2.4H9z"/></defs><clipPath id="h"><use xlink:href="#g" overflow="visible"/></clipPath><path clip-path="url(#h)" fill="#231F20" d="M11.4 22.7c0 .7-.5 1.2-1.2 1.2S9 23.4 9 22.7s.5-1.2 1.2-1.2 1.2.6 1.2 1.2"/><path fill="#B52126" d="M6.4 22.5c0 .7-.5 1.2-1.2 1.2S4 23.2 4 22.5s.5-1.2 1.2-1.2 1.2.5 1.2 1.2"/><path fill="#597F5C" d="M11.4 22.5c0 .7-.5 1.2-1.2 1.2S9 23.2 9 22.5s.5-1.2 1.2-1.2 1.2.5 1.2 1.2"/><g opacity=".7"><defs><path id="i" d="M4.4 21.7h.7v.7h-.7z"/></defs><clipPath id="j"><use xlink:href="#i" overflow="visible"/></clipPath><path clip-path="url(#j)" fill="#FFF" d="M5.1 22c0 .2-.2.3-.3.3s-.4-.1-.4-.3c0-.2.2-.3.3-.3s.4.1.4.3"/></g><g opacity=".7"><defs><path id="k" d="M9.4 21.7h.7v.7h-.7z"/></defs><clipPath id="l"><use xlink:href="#k" overflow="visible"/></clipPath><path clip-path="url(#l)" fill="#FFF" d="M10.1 22c0 .2-.2.3-.3.3-.2 0-.3-.2-.3-.3 0-.2.2-.3.3-.3.1 0 .3.1.3.3"/></g><defs><path id="m" d="M1.1.4h34.7v59.8H1.1z"/></defs><clipPath id="n"><use xlink:href="#m" overflow="visible"/></clipPath><path clip-path="url(#n)" fill="#656263" d="M5 59.2h25.8c2.2 0 4-1.8 4-4V1l.8-.6c.1.2.2.4.2.6v54.2c0 2.8-2.2 5-5 5H5c-1.6 0-3-.7-3.9-1.9l.5-.9c.8 1.1 2 1.8 3.4 1.8"/><defs><path id="o" d="M0 0h35.6v58.3H0z"/></defs><clipPath id="p"><use xlink:href="#o" overflow="visible"/></clipPath><path clip-path="url(#p)" fill="#656263" d="M0 1c0-.6.4-1 1-1h33.8c.3 0 .6.2.8.4l-.8.6H1v54.2c0 .8.2 1.6.7 2.2l-.5.9C.4 57.4 0 56.4 0 55.2V1z"/><path fill="#252A26" d="M6.3 31.2c-1.3 0-2.3-1-2.3-2.3 0-1.3 1.1-2.3 2.3-2.3s2.3 1.1 2.3 2.3c.1 1.3-1 2.3-2.3 2.3"/><path fill="#696C69" d="M6.3 26.7c1.2 0 2.2 1 2.2 2.2 0 1.2-1 2.2-2.2 2.2s-2.2-1-2.2-2.2c0-1.3 1-2.2 2.2-2.2m0-.3c-1.4 0-2.5 1.1-2.5 2.5s1.1 2.5 2.5 2.5 2.5-1.1 2.5-2.5-1.1-2.5-2.5-2.5"/><path fill="#252A26" d="M12.3 31.2c-1.3 0-2.3-1.1-2.3-2.3 0-1.3 1.1-2.3 2.3-2.3s2.3 1.1 2.3 2.3c.1 1.3-1 2.3-2.3 2.3"/><path fill="#696C69" d="M12.3 26.7c1.2 0 2.2 1 2.2 2.2 0 1.2-1 2.2-2.2 2.2-1.2 0-2.2-1-2.2-2.2 0-1.3 1-2.2 2.2-2.2m0-.3c-1.4 0-2.5 1.1-2.5 2.5s1.1 2.5 2.5 2.5 2.5-1.1 2.5-2.5-1.1-2.5-2.5-2.5"/><path fill="#252A26" d="M18.3 31.2c-1.3 0-2.3-1.1-2.3-2.3 0-1.3 1.1-2.3 2.3-2.3 1.3 0 2.3 1.1 2.3 2.3 0 1.3-1 2.3-2.3 2.3"/><path fill="#696C69" d="M18.3 26.7c1.2 0 2.2 1 2.2 2.2 0 1.2-1 2.2-2.2 2.2-1.2 0-2.2-1-2.2-2.2 0-1.3 1-2.2 2.2-2.2m0-.3c-1.4 0-2.5 1.1-2.5 2.5s1.1 2.5 2.5 2.5 2.5-1.1 2.5-2.5-1.1-2.5-2.5-2.5"/><path fill="#252A26" d="M24.3 31.2c-1.3 0-2.3-1.1-2.3-2.3 0-1.3 1.1-2.3 2.3-2.3s2.3 1.1 2.3 2.3c0 1.3-1 2.3-2.3 2.3"/><path fill="#696C69" d="M24.3 26.7c1.2 0 2.2 1 2.2 2.2 0 1.2-1 2.2-2.2 2.2s-2.2-1-2.2-2.2c0-1.3.9-2.2 2.2-2.2m0-.3c-1.4 0-2.5 1.1-2.5 2.5s1.1 2.5 2.5 2.5 2.5-1.1 2.5-2.5-1.2-2.5-2.5-2.5"/><path fill="#252A26" d="M30.2 31.2c-1.3 0-2.3-1.1-2.3-2.3 0-1.3 1.1-2.3 2.3-2.3s2.3 1.1 2.3 2.3c.1 1.3-1 2.3-2.3 2.3"/><path fill="#696C69" d="M30.2 26.7c1.2 0 2.2 1 2.2 2.2 0 1.2-1 2.2-2.2 2.2s-2.2-1-2.2-2.2c0-1.3 1-2.2 2.2-2.2m0-.3c-1.4 0-2.5 1.1-2.5 2.5s1.1 2.5 2.5 2.5 2.5-1.1 2.5-2.5-1.1-2.5-2.5-2.5"/><path fill="#5E411A" d="M6.3 37.2C5 37.2 4 36.1 4 34.8c0-1.3 1.1-2.3 2.3-2.3s2.3 1.1 2.3 2.3c.1 1.3-1 2.4-2.3 2.4"/><path fill="#907C61" d="M6.3 32.6c1.2 0 2.2 1 2.2 2.2S7.6 37 6.3 37s-2.2-1-2.2-2.2 1-2.2 2.2-2.2m0-.2c-1.4 0-2.5 1.1-2.5 2.5s1.1 2.5 2.5 2.5 2.5-1.1 2.5-2.5-1.1-2.5-2.5-2.5"/><path fill="#231F20" d="M12.3 37.2c-1.3 0-2.3-1.1-2.3-2.3 0-1.3 1.1-2.3 2.3-2.3s2.3 1.1 2.3 2.3c.1 1.2-1 2.3-2.3 2.3"/><path fill="#676465" d="M12.3 32.6c1.2 0 2.2 1 2.2 2.2s-1 2.2-2.2 2.2c-1.2 0-2.2-1-2.2-2.2s1-2.2 2.2-2.2m0-.2c-1.4 0-2.5 1.1-2.5 2.5s1.1 2.5 2.5 2.5 2.5-1.1 2.5-2.5-1.1-2.5-2.5-2.5"/><path fill="#231F20" d="M18.3 37.2c-1.3 0-2.3-1.1-2.3-2.3 0-1.3 1.1-2.3 2.3-2.3 1.3 0 2.3 1.1 2.3 2.3 0 1.2-1 2.3-2.3 2.3"/><path fill="#676465" d="M18.3 32.6c1.2 0 2.2 1 2.2 2.2s-1 2.2-2.2 2.2c-1.2 0-2.2-1-2.2-2.2s1-2.2 2.2-2.2m0-.2c-1.4 0-2.5 1.1-2.5 2.5s1.1 2.5 2.5 2.5 2.5-1.1 2.5-2.5-1.1-2.5-2.5-2.5"/><path fill="#231F20" d="M24.3 37.2c-1.3 0-2.3-1.1-2.3-2.3 0-1.3 1.1-2.3 2.3-2.3s2.3 1.1 2.3 2.3c0 1.2-1 2.3-2.3 2.3"/><path fill="#676465" d="M24.3 32.6c1.2 0 2.2 1 2.2 2.2s-1 2.2-2.2 2.2-2.2-1-2.2-2.2.9-2.2 2.2-2.2m0-.2c-1.4 0-2.5 1.1-2.5 2.5s1.1 2.5 2.5 2.5 2.5-1.1 2.5-2.5-1.2-2.5-2.5-2.5"/><path fill="#5E411A" d="M30.2 37.2c-1.3 0-2.3-1.1-2.3-2.3 0-1.3 1.1-2.3 2.3-2.3s2.3 1.1 2.3 2.3c.1 1.2-1 2.3-2.3 2.3"/><path fill="#907C61" d="M30.2 32.6c1.2 0 2.2 1 2.2 2.2s-1 2.2-2.2 2.2-2.2-1-2.2-2.2 1-2.2 2.2-2.2m0-.2c-1.4 0-2.5 1.1-2.5 2.5s1.1 2.5 2.5 2.5 2.5-1.1 2.5-2.5-1.1-2.5-2.5-2.5"/><path fill="#5E411A" d="M6.3 43.2C5 43.2 4 42.1 4 40.8c0-1.3 1.1-2.3 2.3-2.3s2.3 1.1 2.3 2.3c.1 1.3-1 2.4-2.3 2.4"/><path fill="#907C61" d="M6.3 38.6c1.2 0 2.2 1 2.2 2.2 0 1.2-1 2.2-2.2 2.2s-2.2-1-2.2-2.2c0-1.2 1-2.2 2.2-2.2m0-.3c-1.4 0-2.5 1.1-2.5 2.5s1.1 2.5 2.5 2.5 2.5-1.1 2.5-2.5-1.1-2.5-2.5-2.5"/><path fill="#231F20" d="M12.3 43.2c-1.3 0-2.3-1.1-2.3-2.3 0-1.3 1.1-2.3 2.3-2.3s2.3 1.1 2.3 2.3c.1 1.2-1 2.3-2.3 2.3"/><path fill="#676465" d="M12.3 38.6c1.2 0 2.2 1 2.2 2.2 0 1.2-1 2.2-2.2 2.2-1.2 0-2.2-1-2.2-2.2 0-1.2 1-2.2 2.2-2.2m0-.3c-1.4 0-2.5 1.1-2.5 2.5s1.1 2.5 2.5 2.5 2.5-1.1 2.5-2.5-1.1-2.5-2.5-2.5"/><path fill="#231F20" d="M18.3 43.2c-1.3 0-2.3-1.1-2.3-2.3 0-1.3 1.1-2.3 2.3-2.3 1.3 0 2.3 1.1 2.3 2.3 0 1.2-1 2.3-2.3 2.3"/><path fill="#676465" d="M18.3 38.6c1.2 0 2.2 1 2.2 2.2 0 1.2-1 2.2-2.2 2.2-1.2 0-2.2-1-2.2-2.2 0-1.2 1-2.2 2.2-2.2m0-.3c-1.4 0-2.5 1.1-2.5 2.5s1.1 2.5 2.5 2.5 2.5-1.1 2.5-2.5-1.1-2.5-2.5-2.5"/><path fill="#231F20" d="M24.3 43.2c-1.3 0-2.3-1.1-2.3-2.3 0-1.3 1.1-2.3 2.3-2.3s2.3 1.1 2.3 2.3c0 1.2-1 2.3-2.3 2.3"/><path fill="#676465" d="M24.3 38.6c1.2 0 2.2 1 2.2 2.2 0 1.2-1 2.2-2.2 2.2s-2.2-1-2.2-2.2c0-1.2.9-2.2 2.2-2.2m0-.3c-1.4 0-2.5 1.1-2.5 2.5s1.1 2.5 2.5 2.5 2.5-1.1 2.5-2.5-1.2-2.5-2.5-2.5"/><path fill="#5E411A" d="M30.2 43.2c-1.3 0-2.3-1.1-2.3-2.3 0-1.3 1.1-2.3 2.3-2.3s2.3 1.1 2.3 2.3c.1 1.2-1 2.3-2.3 2.3"/><path fill="#907C61" d="M30.2 38.6c1.2 0 2.2 1 2.2 2.2 0 1.2-1 2.2-2.2 2.2S28 42 28 40.8c0-1.2 1-2.2 2.2-2.2m0-.3c-1.4 0-2.5 1.1-2.5 2.5s1.1 2.5 2.5 2.5 2.5-1.1 2.5-2.5-1.1-2.5-2.5-2.5"/><path fill="#5E411A" d="M6.3 49.1c-1.3 0-2.3-1-2.3-2.3 0-1.3 1.1-2.3 2.3-2.3s2.3 1.1 2.3 2.3c.1 1.3-1 2.3-2.3 2.3"/><path fill="#907C61" d="M6.3 44.6c1.2 0 2.2 1 2.2 2.2S7.6 49 6.3 49s-2.2-1-2.2-2.2 1-2.2 2.2-2.2m0-.3c-1.4 0-2.5 1.1-2.5 2.5s1.1 2.5 2.5 2.5 2.5-1.1 2.5-2.5-1.1-2.5-2.5-2.5"/><path fill="#231F20" d="M12.3 49.1C11 49.1 10 48 10 46.8c0-1.3 1.1-2.3 2.3-2.3s2.3 1.1 2.3 2.3c.1 1.3-1 2.3-2.3 2.3"/><path fill="#676465" d="M12.3 44.6c1.2 0 2.2 1 2.2 2.2s-1 2.2-2.2 2.2c-1.2 0-2.2-1-2.2-2.2s1-2.2 2.2-2.2m0-.3c-1.4 0-2.5 1.1-2.5 2.5s1.1 2.5 2.5 2.5 2.5-1.1 2.5-2.5-1.1-2.5-2.5-2.5"/><path fill="#231F20" d="M18.3 49.1C17 49.1 16 48 16 46.8c0-1.3 1.1-2.3 2.3-2.3 1.3 0 2.3 1.1 2.3 2.3 0 1.3-1 2.3-2.3 2.3"/><path fill="#676465" d="M18.3 44.6c1.2 0 2.2 1 2.2 2.2s-1 2.2-2.2 2.2c-1.2 0-2.2-1-2.2-2.2s1-2.2 2.2-2.2m0-.3c-1.4 0-2.5 1.1-2.5 2.5s1.1 2.5 2.5 2.5 2.5-1.1 2.5-2.5-1.1-2.5-2.5-2.5"/><path fill="#231F20" d="M24.3 49.1C23 49.1 22 48 22 46.8c0-1.3 1.1-2.3 2.3-2.3s2.3 1.1 2.3 2.3c0 1.3-1 2.3-2.3 2.3"/><path fill="#676465" d="M24.3 44.6c1.2 0 2.2 1 2.2 2.2s-1 2.2-2.2 2.2-2.2-1-2.2-2.2.9-2.2 2.2-2.2m0-.3c-1.4 0-2.5 1.1-2.5 2.5s1.1 2.5 2.5 2.5 2.5-1.1 2.5-2.5-1.2-2.5-2.5-2.5"/><path fill="#5E411A" d="M30.2 49.1c-1.3 0-2.3-1.1-2.3-2.3 0-1.3 1.1-2.3 2.3-2.3s2.3 1.1 2.3 2.3c.1 1.3-1 2.3-2.3 2.3"/><path fill="#907C61" d="M30.2 44.6c1.2 0 2.2 1 2.2 2.2s-1 2.2-2.2 2.2-2.2-1-2.2-2.2 1-2.2 2.2-2.2m0-.3c-1.4 0-2.5 1.1-2.5 2.5s1.1 2.5 2.5 2.5 2.5-1.1 2.5-2.5-1.1-2.5-2.5-2.5"/><path fill="#5E411A" d="M6.3 55.1c-1.3 0-2.3-1-2.3-2.3 0-1.3 1.1-2.3 2.3-2.3s2.3 1.1 2.3 2.3c.1 1.3-1 2.3-2.3 2.3"/><path fill="#907C61" d="M6.3 50.6c1.2 0 2.2 1 2.2 2.2 0 1.2-1 2.2-2.2 2.2s-2.2-1-2.2-2.2c0-1.3 1-2.2 2.2-2.2m0-.3c-1.4 0-2.5 1.1-2.5 2.5s1.1 2.5 2.5 2.5 2.5-1.1 2.5-2.5-1.1-2.5-2.5-2.5"/><path fill="#231F20" d="M12.3 55.1C11 55.1 10 54 10 52.8c0-1.3 1.1-2.3 2.3-2.3s2.3 1.1 2.3 2.3c.1 1.3-1 2.3-2.3 2.3"/><path fill="#676465" d="M12.3 50.6c1.2 0 2.2 1 2.2 2.2 0 1.2-1 2.2-2.2 2.2-1.2 0-2.2-1-2.2-2.2 0-1.3 1-2.2 2.2-2.2m0-.3c-1.4 0-2.5 1.1-2.5 2.5s1.1 2.5 2.5 2.5 2.5-1.1 2.5-2.5-1.1-2.5-2.5-2.5"/><path fill="#5E411A" d="M18.3 55.1C17 55.1 16 54 16 52.8c0-1.3 1.1-2.3 2.3-2.3 1.3 0 2.3 1.1 2.3 2.3 0 1.3-1 2.3-2.3 2.3"/><path fill="#907C61" d="M18.3 50.6c1.2 0 2.2 1 2.2 2.2 0 1.2-1 2.2-2.2 2.2-1.2 0-2.2-1-2.2-2.2 0-1.3 1-2.2 2.2-2.2m0-.3c-1.4 0-2.5 1.1-2.5 2.5s1.1 2.5 2.5 2.5 2.5-1.1 2.5-2.5-1.1-2.5-2.5-2.5"/><path fill="#EBD467" d="M24.3 55.1C23 55.1 22 54 22 52.8c0-1.3 1.1-2.3 2.3-2.3s2.3 1.1 2.3 2.3c0 1.3-1 2.3-2.3 2.3"/><path fill="#F1E196" d="M24.3 50.6c1.2 0 2.2 1 2.2 2.2 0 1.2-1 2.2-2.2 2.2s-2.2-1-2.2-2.2c0-1.3.9-2.2 2.2-2.2m0-.3c-1.4 0-2.5 1.1-2.5 2.5s1.1 2.5 2.5 2.5 2.5-1.1 2.5-2.5-1.2-2.5-2.5-2.5"/><path fill="#5E411A" d="M30.2 55.1c-1.3 0-2.3-1.1-2.3-2.3 0-1.3 1.1-2.3 2.3-2.3s2.3 1.1 2.3 2.3c.1 1.3-1 2.3-2.3 2.3"/><path fill="#907C61" d="M30.2 50.6c1.2 0 2.2 1 2.2 2.2 0 1.2-1 2.2-2.2 2.2S28 54 28 52.8c0-1.3 1-2.2 2.2-2.2m0-.3c-1.4 0-2.5 1.1-2.5 2.5s1.1 2.5 2.5 2.5 2.5-1.1 2.5-2.5-1.1-2.5-2.5-2.5"/></svg>