<svg xmlns="http://www.w3.org/2000/svg" xmlns:xlink="http://www.w3.org/1999/xlink" width="72.7" height="37.5" viewBox="0 0 72.7 37.5"><path fill="#868484" d="M0 36.6V1.1C0 .5.5 0 1.1 0h70.5c.6 0 1.1.5 1.1 1.1v35.5H0z"/><path fill="#231F20" d="M15.7 4.8h-1.5v.6h4.5v-.6h-2.3M13.1 5.9h-.9v.5h6.5v-.5h-5M11.5 6.9h-.7v.5H18.7v-.5h-6.6M10.2 7.9h-.5v.5h9v-.5h-8M9.2 8.9h-.4v.5h9.9v-.5H9.8M8.4 9.9H8v.5h10.7v-.5H9M7.7 10.9h-.3v.6H18.7v-.6H8.1M7.2 11.9h-.3v.6h11.8v-.6H7.4M6.7 13h-.2v.5h12.2V13H7.2M6.4 14h-.2v.5h12.5V14H6.9M6.1 15H6v.5h12.7V15H6.6M5.9 16v.5h12.8V16H6.4M5.8 17v.5h12.9V17H6.3M15.7 30.7h-1.5v-.5h4.5v.5h-2.3M13.1 29.7h-.9v-.6h6.5v.6h-5M11.5 28.7h-.7v-.6H18.7v.6h-6.6M10.2 27.6h-.5v-.5h9v.5h-8M9.2 26.6h-.4v-.5h9.9v.5H9.8M8.4 25.6H8v-.5h10.7v.5H9M7.7 24.6h-.3v-.5H18.7v.5H8.1M7.2 23.6h-.3v-.5h11.8v.5H7.4M6.7 22.6h-.2V22h12.2v.6H7.2M6.4 21.6h-.2V21h12.5v.6H6.9M6.1 20.5H6V20h12.7v.5H6.6M5.9 19.5V19h12.8v.5H6.4M5.8 18.5V18h12.9v.5H6.3M22.6 4.8h1.5v.6h-4.5v-.6h2.3M25.2 5.9h.9v.5h-6.5v-.5h5M26.8 6.9h.7v.5H19.6v-.5h6.6M28.1 7.9h.5v.5h-9v-.5h8M29.1 8.9h.4v.5h-9.9v-.5h8.9M29.9 9.9h.4v.5H19.6v-.5h9.7M30.6 10.9h.3v.6H19.6v-.6h10.6M31.1 11.9h.3v.6H19.6v-.6h11.3M31.6 13h.2v.5H19.6V13h11.5M31.9 14h.2v.5H19.6V14h11.8M32.2 15h.1v.5H19.6V15h12.1M32.4 16v.5H19.6V16h12.3M32.5 17v.5H19.6V17H32M22.6 30.7h1.5v-.5h-4.5v.5h2.3M25.2 29.7h.9v-.6h-6.5v.6h5M26.8 28.7h.7v-.6H19.6v.6h6.6M28.1 27.6h.5v-.5h-9v.5h8M29.1 26.6h.4v-.5h-9.9v.5h8.9M29.9 25.6h.4v-.5H19.6v.5h9.7M30.6 24.6h.3v-.5H19.6v.5h10.6M31.1 23.6h.3v-.5H19.6v.5h11.3M31.6 22.6h.2V22H19.6v.6h11.5M31.9 21.6h.2V21H19.6v.6h11.8M32.2 20.5h.1V20H19.6v.5h12.1M32.4 19.5V19H19.6v.5h12.3M32.5 18.5V18H19.6v.5H32"/><path fill="#D3D2D2" d="M8.4 25.6H8v.1h10.7v-.1H9M9.2 26.6h-.4v.1h9.9v-.1H9.8M7.7 24.6h-.3v.1H18.7v-.1H8.1M13.1 29.7h-.9 6.5-5M15.7 30.7h-1.5 4.5-2.3M11.5 28.7h-.7H18.7h-6.6M10.2 27.6h-.5v.1h9v-.1h-8M7.2 23.6h-.3 11.8H7.4M5.8 18.5v.1h12.9v-.1H6.3M6.1 20.5H6v.1h12.7v-.1H6.6M5.8 17.5v.1h12.9v-.1H6.3M6.7 22.6h-.2 12.2H7.2M6.4 21.6h-.2 12.5H6.9M5.9 19.5v.1h12.8v-.1H6.4M30.3 10.5v-.1H19.6v.1h9.7M28.6 8.5v-.1h-9v.1h8M29.5 9.5v-.1h-9.9v.1h8.9M27.5 7.5v-.1H19.6v.1h6.6M26.1 6.4h-6.5 5M24.1 5.4h-4.5 2.3M32.1 14.6v-.1H19.6v.1h11.8M30.9 11.5H19.6h10.6M32.3 15.6v-.1H19.6v.1h12.1M32.4 16.6v-.1H19.6v.1h12.3M31.4 12.5H19.6h11.3M31.8 13.5H19.6h11.5M29.3 25.6h-9.7v.1h10.7v-.1h-.4M30.2 24.6H19.6v.1h11.3v-.1h-.3M30.9 23.6H19.6h11.8-.3M28.5 26.6h-8.9v.1h9.9v-.1h-.4M27.6 27.6h-8v.1h9v-.1h-.5M31.1 22.6H19.6h12.2-.2M26.2 28.7h-6.6H27.5h-.7M24.6 29.7h-5 6.5-.9M5.9 16.5v.1h12.8v-.1H6.4M32 18.5H19.6v.1h12.9v-.1M31.7 20.5H19.6v.1h12.7v-.1h-.1M31.9 19.5H19.6v.1h12.8v-.1M31.4 21.6H19.6h12.5-.2M32 17.5H19.6v.1h12.9v-.1M8 10.4v.1h10.7v-.1H9M21.9 30.7h-2.3 4.5-1.5M6.5 13.5v.1h12.2v-.1H7.2M6.9 12.5h11.8H7.4M6.2 14.5v.1h12.5v-.1H6.9M6 15.5v.1h12.7v-.1H6.6M7.4 11.5H18.7 8.1M14.2 5.4h4.5-2.3M12.2 6.4h6.5-5M10.8 7.4v.1H18.7v-.1h-6.6M9.7 8.4v.1h9v-.1h-8M8.8 9.4v.1h9.9v-.1H9.8"/><path fill="#231F20" d="M1.9 36.6h4.9v.9H1.9zM66 36.6h4.9v.9H66z"/><path fill="#F4F4F4" d="M60.6 4.5h6.2v20.9h-6.2z"/><g opacity=".5"><defs><path id="a" d="M60.6 4.5h6.2v2.6h-6.2z"/></defs><clipPath id="b"><use xlink:href="#a" overflow="visible"/></clipPath><g clip-path="url(#b)"><defs><path id="c" d="M60.6 4.5h6.2v.8h-6.2z"/></defs><clipPath id="d"><use xlink:href="#c" overflow="visible"/></clipPath><path clip-path="url(#d)" fill="#7B7979" d="M60.6 4.5h6.2v.8h-6.2z"/></g><g clip-path="url(#b)"><defs><path id="e" d="M60.6 4.6h6.2v.9h-6.2z"/></defs><clipPath id="f"><use xlink:href="#e" overflow="visible"/></clipPath><path clip-path="url(#f)" fill="#8E8C8D" d="M60.6 4.6h6.2v.9h-6.2z"/></g><g clip-path="url(#b)"><defs><path id="g" d="M60.6 4.8h6.2v1h-6.2z"/></defs><clipPath id="h"><use xlink:href="#g" overflow="visible"/></clipPath><path clip-path="url(#h)" fill="#A1A0A0" d="M60.6 4.8h6.2v1h-6.2z"/></g><g clip-path="url(#b)"><defs><path id="i" d="M60.6 5h6.2v1.2h-6.2z"/></defs><clipPath id="j"><use xlink:href="#i" overflow="visible"/></clipPath><path clip-path="url(#j)" fill="#B5B4B4" d="M60.6 5h6.2v1.2h-6.2z"/></g><g clip-path="url(#b)"><defs><path id="k" d="M60.6 5.2h6.2v1.3h-6.2z"/></defs><clipPath id="l"><use xlink:href="#k" overflow="visible"/></clipPath><path clip-path="url(#l)" fill="#C8C7C7" d="M60.6 5.2h6.2v1.3h-6.2z"/></g><g clip-path="url(#b)"><defs><path id="m" d="M60.6 5.5h6.2v1.1h-6.2z"/></defs><clipPath id="n"><use xlink:href="#m" overflow="visible"/></clipPath><path clip-path="url(#n)" fill="#D3D2D2" d="M60.6 5.5h6.2v1.1h-6.2z"/></g><g clip-path="url(#b)"><defs><path id="o" d="M60.6 5.9h6.2v.9h-6.2z"/></defs><clipPath id="p"><use xlink:href="#o" overflow="visible"/></clipPath><path clip-path="url(#p)" fill="#DEDDDE" d="M60.6 5.9h6.2v.9h-6.2z"/></g><g clip-path="url(#b)"><defs><path id="q" d="M60.6 6.2h6.2v.7h-6.2z"/></defs><clipPath id="r"><use xlink:href="#q" overflow="visible"/></clipPath><path clip-path="url(#r)" fill="#E9E9E9" d="M60.6 6.2h6.2v.7h-6.2z"/></g><g clip-path="url(#b)"><defs><path id="s" d="M60.6 6.5h6.2V7h-6.2z"/></defs><clipPath id="t"><use xlink:href="#s" overflow="visible"/></clipPath><path clip-path="url(#t)" fill="#F4F4F4" d="M60.6 6.5h6.2V7h-6.2z"/></g></g><g opacity=".5"><defs><path id="u" d="M60.6 22.7h6.2v2.6h-6.2z"/></defs><clipPath id="v"><use xlink:href="#u" overflow="visible"/></clipPath><g clip-path="url(#v)"><defs><path id="w" d="M60.6 24.6h6.2v.8h-6.2z"/></defs><clipPath id="x"><use xlink:href="#w" overflow="visible"/></clipPath><path clip-path="url(#x)" fill="#7B7979" d="M60.6 24.6h6.2v.8h-6.2z"/></g><g clip-path="url(#v)"><defs><path id="y" d="M60.6 24.3h6.2v.9h-6.2z"/></defs><clipPath id="z"><use xlink:href="#y" overflow="visible"/></clipPath><path clip-path="url(#z)" fill="#8E8C8D" d="M60.6 24.3h6.2v.9h-6.2z"/></g><g clip-path="url(#v)"><defs><path id="A" d="M60.6 23.9h6.2v1h-6.2z"/></defs><clipPath id="B"><use xlink:href="#A" overflow="visible"/></clipPath><path clip-path="url(#B)" fill="#A1A0A0" d="M60.6 23.9h6.2v1h-6.2z"/></g><g clip-path="url(#v)"><defs><path id="C" d="M60.6 23.6h6.2v1.2h-6.2z"/></defs><clipPath id="D"><use xlink:href="#C" overflow="visible"/></clipPath><path clip-path="url(#D)" fill="#B5B4B4" d="M60.6 23.6h6.2v1.2h-6.2z"/></g><g clip-path="url(#v)"><defs><path id="E" d="M60.6 23.3h6.2v1.3h-6.2z"/></defs><clipPath id="F"><use xlink:href="#E" overflow="visible"/></clipPath><path clip-path="url(#F)" fill="#C8C7C7" d="M60.6 23.3h6.2v1.3h-6.2z"/></g><g clip-path="url(#v)"><defs><path id="G" d="M60.6 23.2h6.2v1.1h-6.2z"/></defs><clipPath id="H"><use xlink:href="#G" overflow="visible"/></clipPath><path clip-path="url(#H)" fill="#D3D2D2" d="M60.6 23.2h6.2v1.1h-6.2z"/></g><g clip-path="url(#v)"><defs><path id="I" d="M60.6 23h6.2v.9h-6.2z"/></defs><clipPath id="J"><use xlink:href="#I" overflow="visible"/></clipPath><path clip-path="url(#J)" fill="#DEDDDE" d="M60.6 23h6.2v.9h-6.2z"/></g><g clip-path="url(#v)"><defs><path id="K" d="M60.6 22.9h6.2v.7h-6.2z"/></defs><clipPath id="L"><use xlink:href="#K" overflow="visible"/></clipPath><path clip-path="url(#L)" fill="#E9E9E9" d="M60.6 22.9h6.2v.7h-6.2z"/></g><g clip-path="url(#v)"><defs><path id="M" d="M60.6 22.7h6.2v.5h-6.2z"/></defs><clipPath id="N"><use xlink:href="#M" overflow="visible"/></clipPath><path clip-path="url(#N)" fill="#F4F4F4" d="M60.6 22.7h6.2v.5h-6.2z"/></g></g><defs><path id="O" d="M46.7 29.6h2v2.5h-2z"/></defs><clipPath id="P"><use xlink:href="#O" overflow="visible"/></clipPath><path clip-path="url(#P)" fill="#A7A5A6" d="M48.7 30.8c0 .7-.4 1.2-1 1.2s-1-.5-1-1.2.4-1.2 1-1.2 1 .6 1 1.2"/><path fill="#DCDBDB" d="M48.7 30.6c0 .5-.4 1-1 1s-1-.4-1-1 .4-1 1-1 1 .4 1 1"/><path fill="#BBBABA" d="M47.2 30.8c0-.4.4-.8.8-.8.1 0 .3 0 .4.1-.1-.2-.4-.4-.7-.4-.4 0-.8.4-.8.8 0 .3.2.6.4.7-.1-.1-.1-.2-.1-.4"/><defs><path id="Q" d="M49.7 29.6h2V32h-2z"/></defs><clipPath id="R"><use xlink:href="#Q" overflow="visible"/></clipPath><path clip-path="url(#R)" fill="#A7A5A6" d="M51.6 30.9c0 .7-.4 1.2-1 1.2s-1-.5-1-1.2.4-1.2 1-1.2 1 .5 1 1.2"/><path fill="#DCDBDB" d="M51.6 30.6c0 .5-.4 1-1 1s-1-.4-1-1 .4-1 1-1 1 .4 1 1"/><path fill="#BBBABA" d="M50.2 30.9c0-.4.4-.8.8-.8.1 0 .3 0 .4.1-.1-.2-.4-.4-.7-.4-.4 0-.8.4-.8.8 0 .3.2.6.4.7-.1-.1-.1-.3-.1-.4"/><defs><path id="S" d="M52.7 29.6h2V32h-2z"/></defs><clipPath id="T"><use xlink:href="#S" overflow="visible"/></clipPath><path clip-path="url(#T)" fill="#A7A5A6" d="M54.6 30.9c0 .7-.4 1.2-1 1.2s-1-.5-1-1.2.4-1.2 1-1.2 1 .5 1 1.2"/><path fill="#DCDBDB" d="M54.6 30.6c0 .5-.4 1-1 1s-1-.4-1-1 .4-1 1-1 1 .4 1 1"/><path fill="#BBBABA" d="M53.2 30.9c0-.4.4-.8.8-.8.1 0 .3 0 .4.1-.1-.2-.4-.4-.7-.4-.4 0-.8.4-.8.8 0 .3.2.6.4.7-.1-.1-.1-.3-.1-.4"/><defs><path id="U" d="M55.6 29.6h2V32h-2z"/></defs><clipPath id="V"><use xlink:href="#U" overflow="visible"/></clipPath><path clip-path="url(#V)" fill="#A7A5A6" d="M57.6 30.9c0 .7-.4 1.2-1 1.2s-1-.5-1-1.2.4-1.2 1-1.2 1 .5 1 1.2"/><path fill="#DCDBDB" d="M57.6 30.6c0 .5-.4 1-1 1s-1-.4-1-1 .4-1 1-1 1 .4 1 1"/><path fill="#BBBABA" d="M56.1 30.9c0-.4.4-.8.8-.8.1 0 .3 0 .4.1-.1-.2-.4-.4-.7-.4-.4 0-.8.4-.8.8 0 .3.2.6.4.7 0-.1-.1-.3-.1-.4"/><defs><path id="W" d="M58.6 29.6h2V32h-2z"/></defs><clipPath id="X"><use xlink:href="#W" overflow="visible"/></clipPath><path clip-path="url(#X)" fill="#A7A5A6" d="M60.6 30.9c0 .7-.4 1.2-1 1.2-.5 0-1-.5-1-1.2s.4-1.2 1-1.2c.6-.1 1 .5 1 1.2"/><path fill="#DCDBDB" d="M60.6 30.6c0 .5-.4 1-1 1s-1-.4-1-1 .4-1 1-1 1 .4 1 1"/><path fill="#BBBABA" d="M59.1 30.9c0-.4.4-.8.8-.8.1 0 .3 0 .4.1-.1-.2-.4-.4-.7-.4-.4 0-.8.4-.8.8 0 .3.2.6.4.7 0-.1-.1-.3-.1-.4"/><defs><path id="Y" d="M62.9 28.9h4v4.6h-4z"/></defs><clipPath id="Z"><use xlink:href="#Y" overflow="visible"/></clipPath><path clip-path="url(#Z)" fill="#A9A8A8" d="M66.9 31.2c0 1.3-.9 2.3-2 2.3s-2-1-2-2.3c0-1.3.9-2.3 2-2.3s2 1 2 2.3"/><path fill="#DCDBDB" d="M66.8 30.6c0 1.1-.9 2-2 2s-2-.9-2-2 .9-2 2-2 2 .9 2 2"/><defs><path id="aa" d="M46.3 21.8h2.8V25h-2.8z"/></defs><clipPath id="ab"><use xlink:href="#aa" overflow="visible"/></clipPath><path clip-path="url(#ab)" fill="#A9A8A8" d="M49.1 23.4c0 .9-.6 1.6-1.4 1.6-.8 0-1.4-.7-1.4-1.6s.6-1.6 1.4-1.6c.8 0 1.4.7 1.4 1.6"/><path fill="#DCDBDB" d="M49 23c0 .8-.6 1.4-1.4 1.4s-1.4-.6-1.4-1.4c0-.8.6-1.4 1.4-1.4s1.4.7 1.4 1.4"/><defs><path id="ac" d="M46.3 15.9h2.8v3.2h-2.8z"/></defs><clipPath id="ad"><use xlink:href="#ac" overflow="visible"/></clipPath><path clip-path="url(#ad)" fill="#A9A8A8" d="M49.1 17.5c0 .9-.6 1.6-1.4 1.6-.8 0-1.4-.7-1.4-1.6 0-.9.6-1.6 1.4-1.6.7 0 1.4.8 1.4 1.6"/><path fill="#DCDBDB" d="M49 17.1c0 .8-.6 1.4-1.4 1.4s-1.4-.6-1.4-1.4c0-.8.6-1.4 1.4-1.4s1.4.7 1.4 1.4"/><defs><path id="ae" d="M46.3 10.1h2.8v3.2h-2.8z"/></defs><clipPath id="af"><use xlink:href="#ae" overflow="visible"/></clipPath><path clip-path="url(#af)" fill="#A9A8A8" d="M49 11.7c0 .9-.6 1.6-1.4 1.6-.8 0-1.4-.7-1.4-1.6 0-.9.6-1.6 1.4-1.6.8 0 1.4.7 1.4 1.6"/><path fill="#DCDBDB" d="M49 11.3c0 .8-.6 1.4-1.4 1.4-.8 0-1.4-.6-1.4-1.4 0-.8.6-1.4 1.4-1.4.8 0 1.4.6 1.4 1.4"/><path fill="#C8C7C7" d="M61.3 6h.5v.3h-.5zM62.5 6h.8v.3h-.8zM65.3 6h.8v.3h-.8zM61.3 23.2h.5v.3h-.5zM62.5 23.2h.8v.3h-.8zM65.3 23.2h.8v.3h-.8zM62 6.8h.3v15.7H62zM62.5 7.5h.8V8h-.8zM62.5 9.3h.8v.5h-.8zM62.5 11.4h.8v.2h-.8zM62.5 14.5h.5v.2h-.5zM62.5 15.5h.5v.5h-.5zM62.5 17h.5v.2h-.5zM62.5 19.4h.5v.2h-.5zM62.5 20.6h.5v.2h-.5zM61.3 21.2h.5v.5h-.5zM61.3 19.8h.5v.2h-.5zM61.3 17.8h.6v.5h-.6zM61.3 16.3h.5v.2h-.5zM61.3 15h.5v.5h-.5zM61.3 14h.5v.2h-.5zM61.3 12.9h.5v.2h-.5zM61.3 11.6h.5v.5h-.5zM61.3 10.4h.5v.3h-.5zM61.3 9.1h.5v.2h-.5zM61.3 7.5h.5v.3h-.5z"/><path fill="#E9C8C9" d="M65.1 6.8h.3v15.7h-.3zM64.1 21.1h.8v.5h-.8zM64.1 19.3h.8v.5h-.8zM64.1 17.5h.8v.2h-.8zM64.4 14.4h.5v.2h-.5zM64.4 13.1h.5v.5h-.5zM64.4 11.9h.5v.2h-.5zM64.4 9.6h.5v.2h-.5zM64.4 8.3h.5v.2h-.5zM65.6 7.5h.5V8h-.5zM65.6 9.1h.5v.2h-.5zM65.6 10.8h.6v.5h-.6zM65.6 12.6h.5v.2h-.5zM65.6 13.7h.5v.5h-.5zM65.6 14.9h.5v.2h-.5zM65.6 16h.5v.2h-.5zM65.6 17h.5v.5h-.5zM65.6 18.5h.5v.3h-.5zM65.6 19.8h.5v.2h-.5zM65.6 21.4h.5v.3h-.5z"/><path fill="#B52126" d="M60.6 12.4h6.2v.3h-6.2z"/></svg>