<svg xmlns="http://www.w3.org/2000/svg" xmlns:xlink="http://www.w3.org/1999/xlink" width="50.3" height="64.2" viewBox="0 0 50.3 64.2"><path fill="#9E7E64" d="M18.9 54.5h1.6v7h-1.6z"/><path fill="#D3C49D" d="M23.8 54.5h1.6v7h-1.6z"/><path fill="#B69C5B" d="M20.5 54.5h3.3v7h-3.3z"/><path fill="none" stroke="#B69C5B" stroke-width="1.688" stroke-miterlimit="10" d="M36.2.4L11.1 52.3"/><defs><path id="a" d="M18.9 54.6h6.6v.8h-6.6z"/></defs><clipPath id="b"><use xlink:href="#a" overflow="visible"/></clipPath><path clip-path="url(#b)" fill="#B69C5B" d="M18.9 54.7h6.6v.1s-.1.1-.3.1c-.2.1-.4.2-.7.3-.3.1-.7.2-1.1.2-.4.1-.8.1-1.2.1-.4 0-.8 0-1.2-.1-.4 0-.7-.1-1.1-.2-.3-.1-.6-.2-.7-.3-.2-.1-.3-.1-.3-.2z"/><defs><path id="c" d="M0 4.2h45.7v45.7H0z"/></defs><clipPath id="d"><use xlink:href="#c" overflow="visible"/></clipPath><g clip-path="url(#d)"><defs><path id="e" d="M13 6.4h32.7v43.5H13z"/></defs><clipPath id="f"><use xlink:href="#e" overflow="visible"/></clipPath><g clip-path="url(#f)"><defs><path id="g" d="M13 47.6c3.7 1.8 11.1-6 16.6-17.4 5.4-11.4 6.8-22 3.1-23.8 1 .5 2.3 1.2 3.2 1.9.9.6 2 1.5 2.8 2.3 2.5 2.4 3.8 4.8 4.3 5.6.6 1.1 1.8 3.5 2.3 6.6.2 1 .4 2.4.4 3.5s-.1 2.5-.2 3.6-.4 2.5-.7 3.5c-.3 1.1-.9 2.4-1.3 3.5-.5 1.1-1.9 3.5-3 4.7-.7.8-1.7 1.9-2.5 2.6-.8.7-1.9 1.6-2.8 2.1-1.3.9-3.5 2.1-6.4 2.8-1 .3-2.4.5-3.5.7-.5.1-1.2.1-1.8.1-1.1.1-2.5-.1-3.6-.2s-2.5-.4-3.5-.7c-1-.3-2.4-.9-3.4-1.4"/></defs><clipPath id="h"><use xlink:href="#g" overflow="visible"/></clipPath><path clip-path="url(#h)" fill="#208BB5" d="M14.3 48.2c2.9 1.1 6 1.3 9.1.8l-.8.2h-.3l-.7.1h-2.3l1.2.1H23.4h-1.6c.9 0 2.1 0 3-.1l.4.2h-.5.1l-1.1.1c-2.3 0-5.1 0-9-1.6-.1.3-.2.3-.4.2m6.1-.6c0-.1-.1-.1 0 0-.1-.1 0-.1 0 0m-6.8.3c1.4.4 3.2 0 5-1.2.6.3 1.1.5 1.7.8-.2-.1-.3-.2-.5-.3l-.4.4-.4.2-.4.2-.3.2-.9.3h.5v.1h-.7c.1 0 .1.1.2.1 0 0 .1 0 .1.1h.1l.5.1.5.1.4-.1.6-.2.3-.1.3-.2.2-.1h-.1l.3-.1.4-.2h.3c.8.4 1.4.7 2 .9-3 .6-6.1.3-9-.7-.2-.1-.4-.2-.7-.3m11.9 1.8c-.1 0-.2-.1-.3-.1l.5-.1h.5l-.3.1-.4.1m1.3-.2s-.1 0 0 0c-.1 0 0 0 0 0m.1-.1s-.1 0 0 0c-.1 0 0 0 0 0m-.4-.1h-.2c.5-.1.8-.1.8 0l-.2.1c.1-.1.2-.1.2-.1h-.6m-.3 0h.1-.1m-.1.1h.1-.1m0 0H26h.1m-.1 0h-.1.1m-.3 0h0m-.1 0h0m-.1 0h0m0 0h-.1.1m3.8-.4s-.1 0 0 0c-.1 0 0 0 0 0m-.1 0c-.1 0-.1 0 0 0-.1 0-.1 0 0 0m-.1 0c-.1 0-.1.1 0 0-.1.1-.1 0 0 0m-.1.1h-.1.1m-.3 0h0m0 0h-.1.1m-.1 0h-.1c0 .1.1.1.1 0m-.1.1h-.1.1m-.3.1h.2c-.1-.1-.2-.1-.2 0m-.2 0h.2-.2m-.2 0h0m-.2.1h.2c0-.1-.1 0-.2 0m-.1 0h.2-.2m-.2 0h.2-.2m-.1.1h.1c0-.1-.1 0-.1 0m-.1 0h.1-.1M26.8 49.5s.1 0 0 0c.1 0 0 0 0 0m6.7-3.3l.6-.4-.2.2-.1.1-.1.1-.5.2c.1-.1.1-.1.3-.2-.1 0-.1 0 0 0m1.7-.2l.2-.2h.1l-.1.2-.2.1h.1l.4-.3c-.6.4-1.4.9-2 1.2l-1 .5.1-.1.3-.1c.1 0 .2-.1.3-.1.1-.1.2-.1.3-.2h.3l.2-.1h.1l.2-.1.2-.1.1-.1.4-.3.1-.1c0-.2 0-.2-.1-.2.1 0 0 0 0 0m-1.1-.3l.4-.3s.1 0 .1.1l-.1.1-.4.1m-5 1.4c1.2-.6 2.3-1.3 3.3-2.1h1.3c.1.1.2.1.3.2l-.6.4H33l-.3.1-.4.1-.2.2-.1.1-.3.1c-.1.1-.2.1-.3.2-.1.1-.2.1-.3.2H30.8l-.7.2h-.2l-.2.1h-.1s-.1 0-.1-.1l-.4.3m-10.2-.5c2-1.2 4-3.2 6.1-5.7 3 1.4 5.4 2.6 7.2 3.4-.7.2-1.6.4-2.3.6.7.1 1.6.1 2.2.1-1.3 1-2.7 1.8-4.2 2.5l-.4.1h-.2c-.1 0-.1 0-.2.1-.4.2-.8.3-1.3.5h-.2l-1.1.4c-.3.1-.7.2-1 .2-.5-.3-1.2-.6-1.9-.9l1-.1-.6-.3c-.1 0-.1-.1-.2-.1s-.1-.1-.2-.1l-.3.1-.6.1c-.4-.3-1.1-.6-1.8-.9m15-2.8l.3-.3v.2l-.3.1m1.3 1.4c-.1 0-.1-.1-.2-.1h.1l.3-.2s.1 0 .1.1c.1.1.2.1.3.1l.7-.7.2-.2c0 .2-.1.4-.1.6l-.3.4-.4.4s-.1 0-.1-.1v-.2c-.1 0-.1-.1-.2-.1 0 0-.1 0-.1-.1 0 0-.1 0-.1-.1l-.2.2m2.2-.8l.1-.4.3-.3.7-.6v.1H38.8l-.1.1-.4.4-.1.1-.1.1-.4.4-.1.1h-.2m-1.2-1.9l1.1-.3h-.1l-.6.3-.2.1-.2.2V42.5m4.6-1.4l.1-.2.6-.8.4-.6.1-.1v.1l.2-.4-.1.2-.1.2v.1l-.1.1-.1.1-.2.3-.3.4-.3.4-.2.2-.1.2.1-.2m2.5-3.7l.1-.2-.3.5.1-.1.1-.2m-6.5 3.5c1.3-1.6 2.4-3.3 3.4-5.3 1.5.7 2.5 1.2 2.9 1.4l-.1.3-.2.3-.2.4-.1.2-.3.4-.1.1s0 .1-.1.1c0 0-.1.1-.1.2l.4-.9c-.4.8-1.1 1.9-1.6 2.7 0 0-.1 0-.1-.1-.1.1-.2.2-.3.4v-.5l-.4.9-.1.1s-.1 0-.1-.1h-.1l-.2.1-.4.3v-.2l-.3.1c-.4.1-.8.3-1.2.4h-.1s-.1 0-.1-.1l-.3-.7-.1-.4-.1-.1m-11.5-.4c2-2.6 4-5.7 5.7-9.2 3.7 1.8 6.8 3.2 8.9 4.3-1 2.1-2.3 4-3.7 5.6l-1 .7H35l-.1.1-.4.4-.3.3v.5c-.3.3-.6.5-.8.8h-.2l-.3.1c-1.9-.9-4.5-2.1-7.6-3.6M44.7 34l.1-.4v-.1l.1-.2v-.2l.1-.2v-.1.2l-.1.4c-.3 1-.8 2.3-1.2 3.2v-.1l.1-.1c0-.1 0-.1.1-.2.2-.3.3-.7.4-1l.1-.2.1-.2.2-.8m.8-6.2v-.2.1l.1.6-.1.1V30.1h-.1v-.7c0-.2 0-.4.1-.6v-.3-.7m.1-.9v-.8 1.5-.7m.1-1.1v-.2.2m-5.3 9.3c1.7-3.5 2.5-7.2 2.5-10.8.5.2.9.4 1.3.6v1.4l.1.5.1.4s.1 0 .1.1c.1 0 .1.1.2.1l.1.3.2.6.1-.4v.8H45V32l.2-.5.1-.3v-.1c0 .1 0 .2-.1.3-.1.3-.1.5-.2.8v.4l-.1.7-.1.3-.1.3-.1.2v.1l-.1.2-.4 1-.1.3-.1.3-.2.4v.1l-.1.1-.1.1c-.5-.4-1.5-.9-3.1-1.6m-9.2-4.4c1.7-3.5 2.9-7 3.6-10.2 3.3 1.6 5.9 2.8 7.8 3.7 0 3.5-.9 7.2-2.5 10.8-2.1-1.1-5.2-2.5-8.9-4.3M44.5 22.3l.4 1 .1.5.1-.3V24.1l.1.2.1.2v.4c-.1 0-.2-.1-.3-.1l-.2-.8v.2l-.1-.5c0-.2 0-.4-.1-.5-.1-.4-.1-.6-.1-.9m1.1 2.3v-.3.3m-.3-1.9c0-.1 0-.1 0 0 0-.1 0-.1 0 0m0 .1v-.2.2m0 .1v.1c.1 0 0 0 0-.1m.1.1v0m0 .2v0m0 .2v-.1.1m0 0v0M45.4 23.6v.1c.1-.1 0-.1 0-.1m.1.1v0m0 .2v-.1.1m-.2-1.1c0 .1 0 .1 0 0 0 .1 0 .1 0 0m.4 2.3s-.1 0 0 0c-.1-.3-.1-.6-.1-.8v-.4l.1.5v.7M45.3 22.7c0 .1 0 .1 0 0 0 .1 0 .1 0 0m0 0s0-.1 0 0c0-.1 0 0 0 0m-.1-.1c0-.1 0-.1 0 0 0-.1 0-.1 0 0m-2.3 1.2c0-2.9-.6-5.7-1.6-8.2l.1.1h.1l.1-.1c.2.1.3.1.4.2l.7 1s-.1 0-.1-.1l.1.2-.1.1v.1l.1.3.2.8.1.5.1.9c.1 0 .2.1.3.1v.6l.1.3.1.1v.2c-.1 0-.2-.1-.3-.1 0 .2.1.5.1.7 0 .2 0 .3.1.5 0 .2.1.5.1.7.1 0 .2.1.3.1.1 0 .1.1.2.1l.1.1v.7l.1.4c-.5.2-.9 0-1.4-.3m-1.7-8.1l-.3-.5.1.1c.1.2.1.3.2.4M34.9 20c.7-3.2.9-6 .7-8.3.6.3 1.1.5 1.6.8.9.8 1.2 1 1.9 1.7l.4.3.1.2.1.3v.2l.3.8.2.5.2.2.1.1.1.3v.2l.6 1.1.7 1.4-.2-1.5-.2-.8c.6 2 .9 4.1.9 6.3-1.6-1-4.2-2.2-7.5-3.8m3.4-9.2l-.3-.2s.2.1.3.2m-.1 0s-.1 0 0 0c-.1 0 0 0 0 0m-.1 0c-.1.1-.1.1 0 0-.1.1-.1.1 0 0M37.8 11c.1 0 .1 0 0 0 .1 0 .1 0 0 0m-.2-.3c.1 0 .3-.1.4-.1-.2 0-.3.1-.4.1m.1.3s.1 0 0 0c.1 0 0 0 0 0m-.4 0h.1-.1m0 0h-.1c0-.1 0 0 .1 0m-.4-.2s.1 0 0 0c.1 0 0 0 0 0m-.2-.1s.1 0 0 0c.1 0 0 0 0 0m0 0s0-.1 0 0c0-.1 0 0 0 0m-.2-.4s0 .1 0 0c0 .1 0 0 0 0m-.1-.1c0 .1.1.1 0 0 .1.1 0 .1 0 0m0 0c-.1-.1 0-.1 0 0m-.1-.1c.5.2.9.4 1.2.6-.3-.2-.7-.4-1.2-.6m.3.8c-.1-.3-.2-.6-.4-.9l.1.1-.1-.1c.2.3.3.6.4.9m1.3-.7C36.7 9 35.4 7.9 34 7.1l.2.1c.5.3 1.2.7 1.7 1.1.6.5 1.5 1.1 2.1 1.6l.3.2h-.1c-.1 0-.1-.1-.3-.1.2.2.5.4.7.6l-.4-.4-.2-.1.1.1H38l-.1-.2h-.1v.1l.1.1m-2.3 1.2c-.3-2.1-1-3.8-2.3-4.6.3.1.5.2.6.3 1.5.9 2.8 1.9 3.9 3.2l-.3-.2c-.1.1-.2.1-.3.1-.3-.2-.7-.3-1.1-.5 0 0-.1 0-.1-.1-.1 0-.2-.1-.2-.1.1.1.1.3.2.4l.3.9v.1l.1.1.3.4c0 .1.1.3.1.4v.1c-.3-.1-.8-.3-1.2-.5"/><path clip-path="url(#h)" fill="#ACBFAD" d="M45.6 24.6l-.1-.3.1.3M45.4 23s0-.3-.1-.4V22.9l.1.1"/><path clip-path="url(#h)" fill="#ACBFAD" d="M45.5 29.9l.1-1v-2l-.1-1.1v-.1.2-.2.6c0 .8 0 1.9-.1 2.7v.5l.1.4c-.1.6-.2 1.4-.3 2l.2-.8c0-.1.1-.3.1-.4v-.8m0-6c0-.3-.1-.6-.2-1v.1c.1.4.1.4.3 2.1v-.7l-.1-.5M45.3 28.5v-.3.3M45.1 30.3v.8l.1-.3-.1-.5.1-.7h-.1v.7"/><path clip-path="url(#h)" fill="#ACBFAD" d="M45.2 31.5c-.1.3-.1.5-.2.8l-.1.7.1-.2.1-.5.1-.6.1-.6c0 .1 0 .3-.1.4M42.5 38.4l.4-.8.4-.6h.1l-.4.5-.1.2-.4.7m1.1-1.8l.1-.3.1-.2.2-.6.4-1 .1-.3-.3 1c-.1.3-.3.7-.4 1l-.2.4"/><path clip-path="url(#h)" fill="#ACBFAD" d="M42.5 38.4v.2l.4-.6.3-.6-.3.4c-.1.2-.2.4-.4.6M41.8 39.4l-.1.3-.1.2.4-.6.4-.9-.3.4c0 .2-.2.4-.3.6M42.6 38.5l-.2.4.1-.1.3-.5.1-.2-.3.4M39.9 42.3l.3-.3.5-.6.3-.3-1.1 1.3v-.1zm1.2-1.4l.3-.5.2-.3.2-.2-.2.3-.5.7M39.7 42.3c.1 0 .1 0 0 0h.1l-.4.4.1-.2-.3.5-.5.5-.5.4-.4.4.4-.3.7-.6c-.2.2-.4.4-.7.6l-.4.3c.3-.2.6-.5.8-.7l.8-.8.8-.9.1-.2.5-.7-1.1 1.3M36.6 45.3l.3-.4c.1 0 .1 0 .1.1l-.4.3M36.3 45.3l-.3.3.3-.3.3-.2.2-.3-.5.5"/><path clip-path="url(#h)" fill="#ACBFAD" d="M39.7 42l-.5.7h.1l.4-.5.7-.9h-.1c-.2.2-.4.5-.6.7M34.9 42.9v.4l.2.4c.1 0 .1.1.2.1l-.7.3-.6.1-.6.2c.1.1.3.1.4.2l.8-.2.8-.3-.4.4c.1 0 .2.1.2.1l.6-.3c.1 0 .2.1.2.1l.6-.7.5-.1.6-.3c.1 0 .1 0 .1.1l.9-.7.4-.3.3-.3c-.1 0-.1-.1-.2-.1l-.4.2c-.1.2-.3.3-.4.5l-.4.3.4-.5v-.2c-.4.1-.9.3-1.3.5 0 0-.1 0-.1-.1l-.6.3-.6.5c-.1 0-.1-.1-.2-.1l-.1-.4.1-.4.4-.6.5-.1-.2-.4-.2.2-1.2 1.2M23 49.2l.6-.1c.1.1.2.1.3.2-.3 0-.7 0-.9-.1-.1.1-.1 0 0 0m1.5 0c-.1-.1-.3-.1-.4-.2.5 0 .5 0 1.1.1h-.1c-.4.1-.6.1-.6.1M32.3 46.2c.2.3.2.4-1.2 1-.2.7-.2.7.2.7.7-.1 1.1-.3 3.3-1.4l-.5.2.6-.4.5-.3v-.2c-.1 0-.1-.1-.2-.1h-.1l-.5.2-.1.1-.6.4-1.1.4h-.3s-.1 0-.2-.1c.4-.2.7-.4 1-.6l1.1-.9-1 .5-.4.3-.3.1-.2.1M25.4 49.4c1.7-.2 1.7-.2 1.7-.1-.1.1-.2.1-.4.2.2 0 1.5-.2 2.6-.5-.6.2-1.5.4-2.2.5l-1.5.2.4-.1.6-.1c.1-.1.3-.1.4-.2h-.5l-.5.1-.8.1c.1 0 .1 0 .2-.1M18.9 48.3l-.5.1-.1.1h-.6s.1 0 .1.1l.5.1.6-.1.3-.1.3-.2-.3-.1c-.1.1-.2.1-.3.1"/><path clip-path="url(#h)" fill="#ACBFAD" d="M19.5 47.9l.3-.2c.1 0 .2.1.3.1l.7-.1c.1 0 .1 0 .2.1l-.8.2-.4.2h-.2c-.1 0-.2 0-.3.1l-.5.1.3-.1.4-.4m1.9-.2c-.1 0-.1-.1-.2-.1h.3c.1 0 .1.1.2.1h-.3"/><path clip-path="url(#h)" fill="#D1C29C" d="M45.4 23l-.1-.2v.1"/><path clip-path="url(#h)" fill="#D1C29C" d="M45.6 29.5V29v.5m-.2-6.5s0-.1-.1-.4v.3l.1.8V23M22.8 49.4l.1-.1H24c.2.1.3.1.4.2h-.2l-.7.1h-.6v-.1c0-.1-.1-.1-.1-.1m2.3-.3c.6-.1 1.3 0 1.9-.1.4-.1.9-.2 1.1-.3 1.1-.4 2-1.1 3.1-1.5v.1c-.2.5-.2.5-.1.6.6 0 1.7-.5 3.6-1.4l-.4.3-.9.5.3-.1-.2.1c-.1.1-.3.2-.4.2l-.7.3-.4.2-1.6.6-1.1.4c-1.3.4-2.4.6-2.5.5.1-.1.3-.1.4-.2-.1 0-.1 0-1.7.1.1 0 .1 0 .2-.1H25c-.1-.1-.3-.1-.4-.2.1.1.3 0 .5 0M20.9 49.4h-.4H22.2h-.4-.1.3-1.1"/><path clip-path="url(#h)" fill="#7EA885" d="M45.5 24.3v-.4.4M38.4 10.9l-.1-.1h.1s.1.1 0 .1"/><path clip-path="url(#h)" fill="#7EA885" d="M45.5 26.6l-.1-.6v-.5s.1 0 .1.1V27v-.4M41 15c-.1-.3-.3-.6-.4-.9 1.1.5 1.7.8 1.7.8l.8 1.3c.5.9 1 2.2 1.4 3.2.3.9.6 2.1.8 3v.4c0-.1-.1-.2-.1-.3.1.4.1.5.3 1.4l.1.4v.3h-.1c0 .2 0 .4.1.6 0 0-.1 0-.1-.1v-.7l-.2-.5c0-.2 0-.3-.1-.5l-.2-.8v.3c-.2-.4-.4-1-.5-1.4-.2-.5-.4-1.1-.6-1.6-.1-.2-.1-.5-.2-.7l-.3-.6-.4-1.1s.1 0 .1.1v-.3c-.4-.6-.9-1.5-1.4-2.1-.2-.1-.3-.2-.5-.2l-.1.2-.1-.2m-.3-.3l-.6-.8c.1 0 .1.1.2.1.2.2.3.5.4.7m-.8-.8l-.3-.3s.1 0 .1.1c.1.1.1.2.2.2m-.9-.2c-.2-.2-.6-.5-.8-.7.4.2.8.4 1.1.5.4.5 1 1.2 1.4 1.8l.5.9c.1.5.3 1.3.4 1.8l-.6-1.2-.3-.6-.3-.2-.3-.8-.2-.6-.4-.6-.5-.3m-2.4-2.8c-.1-.3-.2-.6-.4-.9l.1.1c.4.6.4.6.7.8.4.2.6.2.6.2.2 0 .4-.2.6-.3.7.9 1.3 1.8 1.9 2.8-.3-.1-.6-.3-1-.5l-.1-.2.1.1c-.5-.2-1.1-.5-1.7-.8l-.3-.2c-.1-.2-.1-.4-.2-.6l-.3-.5m3.7 2.7c-.5-1-1.2-1.9-1.9-2.7l-.1-.2v-.1l.1.1-.1-.1.5.5h.1l.3.2-.2-.5-.2-.2c.1 0 .1 0 .1.1l-.2-.2.1.1c.7.8 1.7 1.8 2.4 2.7l.8 1.2c-.1-.1-.6-.4-1.7-.9"/><path clip-path="url(#h)" fill="#7EA885" d="M43.3 19.3l.2.6.1.6.2.5-.1-.6-.3-.9-.3-.9-.3-.9-.1.1.2.9.1.5c.2 0 .3.1.3.1M43.7 22.3c.1 0 .2.1.3.1l.2.5c.1 0 .1.1.2.1 0-.3-.1-.5-.1-.8l-.2-.4-.1-.7-.1.3-.1.5s-.1 0-.1-.1v.5M44.5 25.5v-.4c.1 0 .2.1.3.1l.1.5v-.2l.1-.2.1.8.2.1.1.7-.1.4s-.1 0-.1-.1l-.2-.6-.1.4-.1-.4c-.1 0-.2-.1-.3-.1V26v-.5m-.2-1.6c0-.2 0-.4-.1-.6.1 0 .1 0 .2.1v.4l.2.7v.2c-.1 0-.1-.1-.2-.1l-.1-.7M45.2 27.7v.7-.2-.5-.3l-.1-.2c.1.2.1.4.1.5M45.3 22.6v-.1.1M45.2 22.5c0 .1.1.3.1.4v-.1c0-.1 0-.2-.1-.3M25.9 48.4l-1.1.4-.8.2c.4 0 .7.1 1.1.1l2.9-.7c1.1-.3 2-.9 3.1-1.2 1.3-.6 1.3-.7 1.2-1l-.3.2-.4.1c-.2.1-.5.3-.7.4h-.4l-.7.2-.6.3s-.1 0-.1-.1l-.7.2-.4.2-.4.1c-.5.2-1.1.4-1.7.6"/><path clip-path="url(#h)" fill="#7EA885" d="M26.1 48.8c-.3.1-.6.2-.9.2 1.2.2 2.9-.4 2.9-.4 1.1-.4 2-1.1 3.1-1.5-.9.3-1.7.8-2.6 1.1-.9.3-1.7.4-2.5.6"/><path clip-path="url(#h)" fill="#ACBFAD" d="M36.4 10.2c.1.1.2.3.3.4v.1s.1.1.3.2c.4.2.6.2.6.2h.1c.2-.1.3-.2.5-.3-.1-.1-.2-.2-.3-.2-.1.1-.2.1-.4.1-.3-.2-.7-.4-1.1-.5-.1-.1 0-.1 0 0M38.4 10.7c0-.1-.1-.2-.1-.2l.1.2"/><path clip-path="url(#h)" fill="#1572A0" d="M13.9 48c.1.1.3.1.4.2l.2.1-.5-.2c.1 0 0 0-.1-.1m-.5-.2c1.4.5 3.1 0 5-1.2.1 0 .2.1.2.1-1.9 1.1-3.6 1.5-5 1.2.3.1.5.2.7.3-.1-.1-.3-.1-.4-.2-.1 0-.3-.1-.5-.2m5.3-1.4c1.9-1.3 3.9-3.3 5.9-5.8.1.1.3.1.4.2-2 2.5-4.1 4.5-6.1 5.7 0 0-.1 0-.2-.1m6.2-6.1c2-2.6 3.9-5.8 5.6-9.3.2.1.3.1.5.2-1.7 3.5-3.7 6.7-5.7 9.2-.2 0-.3-.1-.4-.1m5.8-9.8c1.7-3.5 2.9-7 3.7-10.2.1.1.3.1.4.2-.7 3.2-2 6.7-3.6 10.2-.2-.1-.3-.1-.5-.2m3.8-10.7c.7-3.1 1-6 .8-8.2.1 0 .2.1.2.1.3 2.3 0 5.2-.7 8.3 0 0-.1-.1-.3-.2M34 7.1c-.1-.1-.2-.1-.4-.2.1.1.2.1.2.1l.4.2s-.1-.1-.2-.1m1.3 4.2c-.2-2.2-1-3.8-2.2-4.6.2.1.4.2.5.2.1.1.2.1.4.2l-.6-.3c1.2.9 2 2.5 2.3 4.6-.2-.1-.3-.1-.4-.1M24.9 49.8h.2-.4.2m-4-.4h-.4H22.2h-.4-.1.3-1.1m1.7-.2l.8-.2c.1 0 .1.1.2.1l-.6.1-.1.1-.1.1c.1 0 .1.1.2.1v.1h.6l.7-.1h.2c.1 0 .2.1.3.1-.9 0-2.1.1-3 .1h1.6H20.5l-1.2-.1H21.6l.7-.1.3-.3m2.6.3c-.1 0-.2-.1-.3-.1h.7l-.2.1h-.2l.8-.2.5-.1h.5c-.1.1-.3.1-.4.2l-.6.1-.4.1h-.1l.4-.1.3-.1h-.5l-.5.1m-1.3-.6c.7-.1 1.4-.3 2-.5l-1.1.4-.8.2-.1-.1m3.3-1.2c.1 0 .1 0 .2-.1h.2l.4-.1c-1 .5-2.1.9-3.2 1.1l1.1-.4h.2c.3-.2.7-.4 1.1-.5m8.2-1.7l.2-.2c.1 0 .1.1.2.1l-.4.3h-.1l.1-.2m-1.9.2c-.1 0-.1 0 0 0-.2.1-.2.1-.3.2l.5-.2.1-.1.1-.1.2-.2-.6.4m1.7-.3v-.2c.1 0 .2.1.2.1l-.2.2h.1l-.1.1-.4.3-.1.1-.2.1-.2.1h-.1l-.2.3-.2.1c-.1.1-.2.1-.3.2-.1 0-.2.1-.3.1l-.3.1-.1.1-.8.4.3-.1.7-.3c.1-.1.3-.1.4-.2l.2-.1-.3.1.9-.5.4-.3-.5.2.6-.4.5-.5m-.2-.3c.1 0 .1.1.2.1-.1 0-.1-.1-.2-.1m0 0h-.1.1m-1.8.5l1.1-.9c.1 0 .2.1.2.1l-.4.3.4-.2.1-.1c.1 0 .2.1.2.1l-.5.2v.4l-.6.4-1.1.4h-.3s-.1 0-.2-.1c.4-.1.7-.3 1.1-.6m-5.6 1.6c.5-.2 1-.4 1.5-.7l.4-.2s.1 0 .1.1h.1l.2-.1h.2l.7-.2H31.1c.1-.1.2-.1.3-.2.1-.1.2-.1.3-.2l.3-.1.1-.1.3-.2.4-.1.3-.1.3-.1.6-.4c.1 0 .2.1.3.1l-1 .5-.5.3-.3.1-.1.1-.4.2-.4.1c-.2.1-.5.3-.7.4h-.4l-.7.2-.6.3s-.1 0-.1-.1l-.7.2-.4.2h-.4m4.9-2.7c.2-.1.3-.2.5-.4.3.1.5.2.7.3h-.4l-.8.1m-.4 0c-.7 0-1.6-.1-2.2-.1.7-.2 1.6-.4 2.3-.6.2.1.3.2.5.2-.2.2-.4.3-.6.5m3.7.5l-.6-.3.2-.1s.1 0 .1.1c0 0 .1 0 .1.1.1 0 .1.1.2.1v.1m-2.7-1.3c-.1 0-.2-.1-.2-.1l.3-.1h.2c-.1 0-.2.1-.3.2m1.1-.7c.2-.2.5-.4.7-.6v.4l.2.4c.1 0 .1.1.2.1l-.7.3-.6.1-.6.2s-.1 0-.1-.1c.2-.2.4-.3.6-.5l.3-.1v-.2m.7-1.5l.1-.1.2-.1 1-.7c-.6.7-1.3 1.4-2 2.1v-.5l.3-.3.4-.4m2.5 2.4s.1 0 .1.1l.1-.1.4-.4.1-.1.1-.1.4-.4.1-.1h-.1-.1-.1v-.1l-.7.6-.2.2-.1.4m-1.2-1.9v.2l.2-.2.2-.1.6-.3h.1l-1.1.4m3.5-.5l-.5.7h.1l.4-.5.7-.9h-.1c-.2.2-.4.5-.6.7m0 .3c.1 0 .1 0 0 0h.1l-.4.4.1-.2-.3.5-.5.5-.5.4-.4.4.4-.3.7-.6c-.2.2-.4.4-.7.6l-.4.3c.3-.2.6-.5.8-.7l.8-.8.8-.9.1-.2.5-.7-1.1 1.3m1.1-1.2l-.1.2.1-.2.2-.2.2-.4.3-.4.2-.3.1-.1.1-.1.1-.1.1-.2.1-.2-.2.4v-.1.1l-.4.6-.6.8-.2.2m1-1.7l-.1.3-.1.2.4-.6.4-.9-.3.4c0 .2-.2.4-.3.6m.8-.9l-.3.4.1-.1.3-.6.1-.2-.2.5m-6.5 3.2c.2-.3.5-.6.7-.8l.1.2.2.4.3.7s.1 0 .1.1h.1c.4-.1.8-.3 1.2-.4l.3-.1v.2l.1-.1.4-.3.2-.1h.1c.1 0 .1 0 .1.1l.1-.1.4-.9v.5c.1-.1.2-.2.3-.4.1 0 .1 0 .1.1.5-.8 1.1-1.9 1.6-2.7l-.5.8c0-.1.1-.1.1-.2 0 0 0-.1.1-.1l.1-.1.3-.4.1-.2.2-.4.2-.3.2-.2s.1 0 .1.1l-.4.6-.4.8.4-.7c-.1.2-.2.5-.4.7v.2l.3-.6.3-.6-.3.4.1-.2.2-.4h.1l-.1.2v.1l-.1.1-.1.1c-.4.7-.9 1.6-1.3 2.2l-.2.2-.2.3-.3.5-.2.3-.3.3-.4.4-.3.3-.1.1-.4.4c-.7.6-1.6 1.5-2.3 2.1 0 0-.1 0-.1-.1l-.3.4-.5.3H36l.3-.2.3-.3.2-.3-.5.5-.3.4s-.1 0-.1-.1l.4-.4.3-.4c0-.2.1-.4.1-.6l-.2.2-.7.7c-.1 0-.2-.1-.3-.1 0 0-.1 0-.1-.1l-.4.2h-.1c-.3-.2-.7-.3-1.1-.5l.8-.2.8-.3-.4.5c.1 0 .2.1.2.1l.6-.3c.1 0 .2.1.2.1l.6-.7.5-.1.6-.3c.1 0 .1 0 .1.1l.9-.7.4-.3.3-.3c-.1 0-.1-.1-.2-.1l-.4.2c-.1.2-.3.3-.4.5l-.4.3.4-.5v-.2c-.4.1-.9.3-1.3.5 0 0-.1 0-.1-.1l-.6.3-.6.5c-.1 0-.1-.1-.2-.1l-.1-.4.1-.4.4-.6.5-.1-.2-.4-.2.2m8.7-16l-.1-.5s.1 0 .1.1l-.1.2.1.2m.4 5.8c-.1.3-.1.5-.2.8l-.1.7.1-.2.1-.5.1-.6.1-.6c0 .1 0 .3-.1.4m-.1-1.2v.8l.1-.3h-.1v-.5l.1-.7h-.1v.7m.4-2.5v.8c0 .2 0 .4-.1.6v.7h.1V28.2l.1-.1-.1-.6v-.1.4m-.3-.1V27.7v-.3l-.1-.2H45c.2.2.2.4.2.5m.4-.8v.8-1.6.8m-1.4-1.6v-.4c.1 0 .2.1.2.1v1l.1.5c.1 0 .2.1.3.1l.1.4.1-.4.1.5s.1 0 .1.1l.1-.4-.1-.7H45l-.1-.8c.2.1.4.2.5.3v.5l.1.6.1.4v-.9-.5c.1 0 .1.1.1.1v.1l.1 1.1v2l-.1 1-.1.7c0 .1 0 .3-.1.4l-.2.8-.4 1.1v-.2.1l-.1.2v.2l-.1.2v.5l-.3 1-.1.2-.1.2c-.1.3-.3.7-.4 1 0 .1 0 .1-.1.2l-.1.1v.1l.2-.3c.2-.3.3-.7.4-1l.3-1-.1.3-.4 1-.2.6-.1.2-.1.2s-.1 0-.1-.1l.1-.1.1-.1v-.1l.2-.4.1-.3.1-.3.4-1 .1-.2v-.1l.1-.2.1-.3.1-.3.1-.7v-.2-.2c.1-.3.1-.5.2-.8 0-.1 0-.2.1-.3v.1l-.1.3-.2.5V28.7h.1V27.9l-.1.4-.2-.6-.1-.3c-.1 0-.1-.1-.2-.1 0 0-.1 0-.1-.1l-.1-.4-.1-.5v-.2-.2-.6m1.3-.2c0-.2 0-.4-.1-.6h.1c.1.2.1.4 0 .6.1 0 .1 0 0 0m-1.8-2.8c.1 0 .2.1.3.1l.2.5c.1 0 .1.1.2.1 0-.3-.1-.5-.1-.8l-.2-.4-.1-.7-.1.3-.1.5s-.1 0-.1-.1v.5m-.4-3l.2.6.1.6.2.5-.1-.6-.3-.9-.3-.9-.3-.9-.1.1.2.9.1.5c.2 0 .3.1.3.1m-2-3.6c-.1-.2-.2-.5-.3-.7l.1.2.1-.2c.2.1.4.2.5.2l1.4 2.1v.3s-.1 0-.1-.1l.3.9.3.6c.1.2.1.5.2.7.2.5.4 1.1.6 1.6.2.4.4 1 .5 1.4v-.3l.2.8c0 .2 0 .3.1.5l.2.5v.7s-.1 0-.1-.1v-.4l-.1-.2-.1-.2v-.4-.2l-.1.4-.1-.5-.4-1c0 .3.1.5.1.8 0 .2 0 .4.1.5l.1.5v-.2l.2.8c-.1 0-.2-.1-.3-.2v-.2l-.2-.7v-.4c-.1 0-.1 0-.2-.1 0 .2 0 .4.1.6l.1.7c-.1 0-.2-.1-.3-.1l-.1-.3v-.1-.1-.5l-.1-.2c-.1 0-.1-.1-.2-.1s-.2-.1-.3-.1c0-.2 0-.5-.1-.7 0-.2 0-.3-.1-.5 0-.2-.1-.5-.1-.7.1 0 .2.1.3.1v-.2l-.1-.1-.1-.3v-.6c-.1 0-.2-.1-.3-.1l-.1-.9-.1-.5-.2-.8-.1-.3v-.1l.1-.1-.1-.2s.1 0 .1.1l-.7-1c-.1-.1-.3-.1-.4-.2l-.1.1h-.1v-.2m-2.2-1.5c-1.1-1-1.1-1-1.9-1.7.4.2.7.3 1 .5.2.2.6.5.8.7l.5.4.4.6.2.6.3.8.3.2.3.6.6 1.1c-.1-.6-.3-1.3-.4-1.8l-.5-.9c-.4-.5-.9-1.2-1.4-1.8.1 0 .2.1.3.1l.3.3c0-.1-.1-.2-.1-.2.1.1.3.1.4.2l.6.8c.1.2.2.5.3.7l-.1-.1.3.5c.2.6.4 1.1.6 1.7l.2.8.2 1.5-.7-1.4-.6-1.1v-.2l-.1-.3-.1-.1-.2-.2-.5-.5-.3-.8V15l-.1-.3-.1-.2-.5-.3m0-1.1l-.1-.2.1.2M36 9.9c-.1-.1-.1-.3-.2-.4.1 0 .2.1.2.1s.1 0 .1.1c.4.2.8.4 1.1.5.1 0 .2-.1.3-.1l.3.2c.2.2.3.3.4.5l-.3-.2c-.1.1-.2.1-.4.1l-1.2-.6-.1-.1c.1.3.3.6.4.9l.4.6c.1.2.1.4.2.6l.3.2c-.2-.1-.4-.2-.5-.3v-.1c0-.1-.1-.3-.1-.4l-.3-.4-.1-.1v-.1c-.3-.4-.4-.7-.5-1m2.3.8c-.1-.2-.3-.3-.4-.5 0-.1-.1-.1-.1-.2v-.1l.1.1.2.1h.1-.2l.1.1.4.4h.1c-.2-.2-.5-.4-.7-.6.1.1.2.1.3.1h.1l-.3-.2.6.5.2.2s-.1 0-.1-.1l.2.2.5.5-.3-.2H39l-.5-.5.1.1-.1-.1-.2-.1v.3c.1 0 0 0 0 0"/><path clip-path="url(#h)" fill="#528A75" d="M45.5 26.6l.1.4-.1-.4-.1-.6.1.6m0-1.5c0-.2 0-.4-.1-.6h0c.1.2.1.4.1.6m-.4-1.8l-.2-.8.2.8m-.2-.5v-.3.3m-.6-1.4c.2.4.4 1 .5 1.4-.1-.4-.6-1.8-.5-1.4-.2-.5-.4-1.1-.6-1.6.2.5.4 1.1.6 1.6m-2.7-3.5c-.1-.6-.3-1.3-.4-1.8.1.6.3 1.3.4 1.8m-.6-1.1l.6 1.1-.6-1.1m-.3-.6l.3.6-.3-.6m-.3-.2l.3.2-.3-.2-.3-.8.3.8m2.7 1.3c-.4-.6-.9-1.5-1.4-2.1.5.6 1 1.5 1.4 2.1M41.3 15c.2.1.4.2.5.2-.2-.1-.4-.1-.5-.2m-.2.1l.1-.2-.1.2m0 0L41 15l.1.1m-1.2-1.2c0-.1-.1-.2-.1-.2 0 .1 0 .2.1.2m0 0l-.3-.3.3.3m-.4.2l.4.6-.4-.6m-.5-.4l.5.4-.5-.4c-.3-.2-.6-.5-.8-.7.3.2.6.5.8.7"/><path clip-path="url(#h)" fill="#1572A0" d="M18.9 48.3l-.5.1-.1.1h-.6s.1 0 .1.1l.5.1.6-.1.3-.1.3-.2-.3-.1c-.1.1-.2.1-.3.1m.4-.7l.4-.4c.2.1.4.2.5.3h.1c.1.1.2.1.4.2l-.7.1c-.1 0-.2-.1-.3-.1l-.3.2-.5.2-.3.2.5-.1c.1 0 .2 0 .3-.1h.2l.4-.2.8-.1c.1.1.2.1.4.2H21l-.5.1-.3.1h.1l-.3.2-.3.2-.3.1-.6.2-.4.1-.4-.2-.5-.1h-.1s-.1 0-.1-.1c-.1 0-.1-.1-.2-.1h.7v-.1h-.5c.3-.1.7-.2.9-.3l.3-.2.4-.2.4-.1m2 .1c-.1-.1-.2-.1-.4-.2l.6-.1.3-.1c.1 0 .1.1.2.1s.1.1.2.1l.6.3-1 .1c-.1-.1-.2-.1-.4-.2h.3c-.1 0-.1-.1-.2-.1l-.2.1"/><path clip-path="url(#h)" fill="#FFF" d="M35 11.1c.2 2.3-.1 5.2-1 8.5-.8 3.3-2.1 6.9-3.9 10.6l-.1.2c-1.7 3.6-3.7 6.9-5.7 9.6-2 2.7-4.1 4.9-6 6.3-2 1.4-3.8 2-5.2 1.4.1.1.2.1.3.1h.1c.9.3 2 .8 2.9 1.1 3.1.8 3.9.9 7.1.9 1.1-.1 2.5-.2 3.5-.4s2.4-.6 3.4-.9c1-.4 2.3-1 3.2-1.4.9-.5 2.1-1.3 3-1.9.8-.7 1.9-1.6 2.7-2.4.7-.8 1.6-1.9 2.3-2.8.6-.9 1.3-2.2 1.9-3.2.4-1 1-2.4 1.3-3.5.3-1.1.6-2.5.7-3.5.1-1.1.2-2.5.2-3.6-.1-1.1-.2-2.5-.4-3.5s-.6-2.4-.9-3.4c-.4-1-1-2.3-1.4-3.2-.5-.9-1.3-2.1-1.9-3-.7-.8-1.6-1.9-2.4-2.7-2-1.8-2.8-2.4-5.5-3.9h-.1c-.1 0-.1-.1-.3-.1 1.4.8 2.1 2.4 2.2 4.7m-5.4 19.1c5.4-11.4 6.8-22 3.1-23.8 1 .5 2.3 1.3 3.2 1.9 2.6 1.9 3.1 2.5 5.2 5 .6.9 1.4 2.1 1.9 3 .5.9 1 2.2 1.4 3.2.3 1 .7 2.4.9 3.4.2 1 .3 2.4.4 3.5 0 1.1-.1 2.5-.2 3.6-.2 1.1-.5 2.5-.7 3.5-.4 1.1-.9 2.4-1.3 3.5-.5 1-1.3 2.3-1.9 3.2-.7.9-1.6 2-2.3 2.8-.8.7-1.8 1.7-2.7 2.4-.9.6-2.1 1.4-3 1.9-.9.5-2.2 1-3.2 1.4-1 .3-2.4.7-3.4.9-1 .2-2.4.3-3.5.4-4.6 0-6.8-.6-10.6-2.2 3.8 1.6 11.2-6.2 16.7-17.6"/><path clip-path="url(#h)" fill="#6099B5" d="M34 7.1c-.1-.1-.2-.1-.4-.2.1 0 .2.1.4.2"/><path clip-path="url(#h)" fill="#6099B5" d="M33.6 6.9c.1.1.2.1.2.1l-.2-.1c-.1-.1-.1-.1-.2-.1.1 0 .1 0 .2.1"/><path clip-path="url(#h)" fill="#EDEDEE" d="M33.4 6.7c.1 0 .1.1.1.1l-.3-.1h-.1.3"/><path clip-path="url(#h)" fill="#67A8C1" d="M37.8 10.3C36.7 9 35.4 7.9 34 7.1c1.4.8 2.7 1.9 3.8 3.2"/><path clip-path="url(#h)" fill="#9FB9A5" d="M38.3 10.8l.2.1c-.1-.1-.2-.1-.2-.1M40.1 13.6s.1 0 .1.1c-.5-1-1.2-1.9-1.9-2.7l-.2-.1c.9.7 1.5 1.7 2 2.7"/><path clip-path="url(#h)" fill="#6099B5" d="M35.2 11.2l.1.1c-.2-2.2-1-3.8-2.2-4.6.2.1.4.2.5.2.1.1.2.1.4.2l-.6-.3c-.1 0-.2-.1-.4-.2 1.2.7 2 2.3 2.2 4.6M38.3 10.8c-.1-.2-.2-.4-.4-.5.1.1.2.3.4.5"/><path clip-path="url(#h)" fill="#EDEDEE" d="M35 11.1s.1 0 .1.1c-.1-2.3-.9-3.9-2.1-4.6.2.1.3.1.4.2-.1 0-.1-.1-.2-.1s-.2-.1-.3-.1c1.3.6 2 2.2 2.1 4.5"/><path clip-path="url(#h)" fill="#9FB9A5" d="M41 15c-.1-.3-.3-.6-.4-.9.1.3.2.6.4.9"/><path clip-path="url(#h)" fill="#9FB9A5" d="M40.5 14.1c1.1.5 1.7.8 1.7.8l-.3-.5s-.6-.3-1.7-.8c.2.2.2.3.3.5"/><path clip-path="url(#h)" fill="#67A8C1" d="M41.2 15.7c0-.1-.1-.2-.1-.3l.2.3c1 2.5 1.6 5.3 1.6 8.2-.1 0-.2-.1-.2-.1 0-2.2-.3-4.3-.9-6.3l-.3-1.1-.1-.2-.1-.2-.1-.3m-5.6-4v-.3c.5.2.9.4 1.3.6 0 .1 0 .2.1.2l.3.2c-.6-.2-1.1-.4-1.7-.7"/><path clip-path="url(#h)" fill="#9FB9A5" d="M39.6 13.6l-.4-.5c.4.2.7.3 1 .5 0 0 .1 0 .1.1.2.4.5.9.7 1.3l-.2-.3c-.1-.2-.2-.5-.3-.7-.1 0-.1-.1-.2-.1l-.3-.2-.4-.3c0 .1.1.2.1.3 0 0 0-.1-.1-.1m-1.4-.6c-.2-.2-.6-.5-.8-.7.6.3 1.2.6 1.7.8l.2.4c-.3-.2-.7-.4-1.1-.5"/><path clip-path="url(#h)" fill="#6099B5" d="M34.3 19.7c.1 0 .2.1.2.1.7-3.1 1-6 .8-8.2.1 0 .2.1.2.1v-.3c-.1 0-.2-.1-.2-.1l-.1-.1c.2 2.3-.1 5.2-.9 8.5M41.7 17.4c-.2-.6-.4-1.1-.6-1.7l.1.2.1.2.1.2.3 1.1m-.7-2c-.1-.2-.2-.5-.3-.7l.3.3c.1.2.2.5.3.7l-.3-.3m-1.2-1.7c0-.1-.1-.2-.1-.3l.4.3.1.2c-.2-.1-.3-.1-.4-.2m-.5-.3l-.2-.4h.1l.4.5c-.1.1-.2 0-.3-.1m-2.4-1.1c0-.1 0-.2-.1-.2.2.1.4.2.5.3.2.2.6.5.8.7-.3-.2-.7-.3-1-.5l-.2-.3"/><path clip-path="url(#h)" fill="#EDEDEE" d="M34.1 19.6c.1 0 .2.1.2.1.8-3.3 1.1-6.2.9-8.5 0 0-.1 0-.1-.1.1 2.3-.2 5.2-1 8.5"/><path clip-path="url(#h)" fill="#67A8C1" d="M45.7 25.4v.1-.1-.3.5-.2m-.1.1v.1-.1m-.6-.6v-.1c.1.1.2.1.3.1v.4h-.2l-.1-.4m-4.6 10.2c1.7-3.5 2.5-7.2 2.5-10.8 0 3.6-.8 7.3-2.5 10.8m2.5-10.8v-.5c.5.2.9.4 1.3.6v.5c-.4-.1-.8-.3-1.3-.6"/><path clip-path="url(#h)" fill="#BBC7BD" d="M45.7 25.7V25.4v.3m0 0v-.5.5"/><path clip-path="url(#h)" fill="#9FB9A5" d="M45.6 25.6v-.1.1M45.5 25.6v-.5s-.1 0-.1-.1v.5l.1.1M44.4 25.1v-.5c.1 0 .1.1.2.1l.1.5c-.1 0-.2-.1-.3-.1"/><path clip-path="url(#h)" fill="#6099B5" d="M45.5 25.6v-.5h.1v.5h-.1m-.8-.4l-.1-.5c.1.1.2.1.3.2v.1l.1.4h.2V25c.1 0 .1 0 .1.1v.5c-.1-.1-.3-.2-.5-.3 0-.1-.1-.1-.1-.1m-.5-.6v-.1c.1 0 .2.1.3.1v.5c-.1 0-.2-.1-.2-.1-.1-.2-.1-.3-.1-.4"/><path clip-path="url(#h)" fill="#67A8C1" d="M34.8 20.5c3.3 1.6 5.9 2.8 7.8 3.7 0 3.5-.9 7.2-2.5 10.8.1 0 .2.1.3.1 1.7-3.7 2.5-7.6 2.5-11.3-.1 0-.2-.1-.2-.1-1.8-.9-4.5-2.1-7.7-3.7-.1.2-.1.3-.2.5"/><path clip-path="url(#h)" fill="#6099B5" d="M30.5 30.4c.1 0 .2.1.3.1 1.7-3.5 2.9-7 3.7-10.2.1.1.3.1.4.2 0-.2.1-.3.1-.5-.1-.1-.3-.1-.4-.2-.1 0-.2-.1-.2-.1-.9 3.3-2.2 7-3.9 10.7"/><path clip-path="url(#h)" fill="#EDEDEE" d="M30.2 30.2c.1 0 .2.1.3.1 1.8-3.7 3-7.3 3.8-10.6-.1 0-.2-.1-.2-.1-.8 3.3-2.1 6.9-3.9 10.6"/><path clip-path="url(#h)" fill="#67A8C1" d="M43.4 37.1l.2-.5-.1.2-.1.3m-6.6 3.8c1.3-1.6 2.4-3.3 3.4-5.3-1 1.9-2.1 3.7-3.4 5.3m3.4-5.3c0-.1.1-.2.1-.3 0-.1.1-.2.1-.2 1.5.7 2.6 1.2 3 1.4l-.3.5c-.4-.2-1.4-.7-2.9-1.4"/><path clip-path="url(#h)" fill="#BBC7BD" d="M43.3 37.1l.1-.3v.2l.2-.4h-.1l-.1.2-.1.3"/><path clip-path="url(#h)" fill="#6099B5" d="M43.4 37.1s-.1 0 0 0l.1-.3v.2l.2-.4-.3.5m-.2 0s-.1 0-.1-.1l.3-.5s.1 0 .1.1l-.1.2-.2.3"/><path clip-path="url(#h)" fill="#EDEDEE" d="M24.4 40c.1 0 .2.1.2.1 2-2.7 4-5.9 5.7-9.5 0-.1.1-.2.1-.2-.1 0-.2-.1-.3-.1l-.1.2c-1.6 3.6-3.6 6.9-5.6 9.5"/><path clip-path="url(#h)" fill="#67A8C1" d="M33.4 43.9c.3-.2.6-.5.8-.8v.4l-.3.3-.2.1h-.3M31 31.2c0-.1.1-.2.1-.3l.1-.2c3.7 1.8 6.8 3.2 8.9 4.3.1 0 .2.1.3.1 0 .1-.1.2-.1.2-1 2-2.2 3.9-3.5 5.5l-.1-.1-.5.4c1.4-1.7 2.7-3.5 3.7-5.6-2.2-1-5.2-2.5-8.9-4.3"/><path clip-path="url(#h)" fill="#BBC7BD" d="M34.9 42.6v.3l1.2-1.2-.8.5c-.2.1-.3.3-.4.4"/><path clip-path="url(#h)" fill="#6099B5" d="M24.6 40.1c.1 0 .2.1.2.1 2-2.6 3.9-5.8 5.6-9.3.2.1.3.1.5.2 0-.1.1-.2.1-.3l.1-.2c-.2-.1-.3-.1-.5-.2-.1 0-.2-.1-.3-.1 0 .1-.1.2-.1.2-1.6 3.7-3.5 7-5.6 9.6M33.1 44.2l.3-.3h.3l.2-.1c-.2.2-.4.3-.6.5 0 0-.1-.1-.2-.1m1.1-1c.7-.6 1.3-1.3 2-2.1l.5-.4.1.1c-.2.3-.5.6-.7.8l-.8.5-.4.4v.3c-.2.2-.4.4-.7.6v-.2"/><path clip-path="url(#h)" fill="#67A8C1" d="M35.7 45.9l.3-.2-.3.2m.1-.3c.1-.1.1 0 .1 0h-.1l-.2.3h-.1l.3-.3m-1-.4c.1-.1.1-.1 0 0l.1-.1c.1 0 .1.1.2.1l-.1.1-.3.2s-.1 0-.1-.1l.2-.2m-.8-.1c-.1-.1-.2-.1-.3-.2l.6-.1h.1l-.1.1-.3.2"/><path clip-path="url(#h)" fill="#BBC7BD" d="M35.8 45.7c.1 0 .1.1 0 0l.2-.1-.2.1M33.1 44.5h.8c-.1-.1-.2-.1-.4-.2h-.2l-.2.2M34.3 45.3l.2-.2-.2.2"/><path clip-path="url(#h)" fill="#6099B5" d="M35.8 45.6h.2l-.2.2.2-.2h.1l-.1.1-.3.2s-.1 0-.2-.1l.3-.2m-.4.2l-.8-.4.3-.2.2-.1c.2.1.5.2.6.3v.1l-.3.3m-1.1-.9l.1-.1.6.3h-.1-.1l-.3.2c-.1 0-.2-.1-.2-.1l.2-.2-.2.1c-.1 0-.2-.1-.3-.1l.3-.1m-1.8.1c.2-.1.3-.2.5-.4-.2.1-.4.3-.5.4m.4-.4l.1-.1h.8c.2.1.4.2.5.3h-.1l-.5.2c-.3-.1-.5-.3-.8-.4m.3-.2l.1-.1s.1 0 .1.1h-.2"/><path clip-path="url(#h)" fill="#67A8C1" d="M23.7 48.8c.3-.1.7-.2 1-.2l-.3.1-.5.2c-.1 0-.2 0-.2-.1m4.2-1.4c1.4-.7 2.8-1.5 4.2-2.5H32.4c-1.1.8-2.2 1.5-3.3 2.1H29l-.5.2-.4.1-.2.1M25 40.8c.1-.1.2-.2.3-.4 3.1 1.5 5.7 2.7 7.6 3.6l-.7.2c-1.8-.8-4.3-2-7.2-3.4"/><path clip-path="url(#h)" fill="#BBC7BD" d="M33.1 44.5c.1 0 .1-.1.2-.1h-.2l-.3.1h.3"/><path clip-path="url(#h)" fill="#9FB9A5" d="M26.2 48.3l-.3.1c.6-.2 1.2-.4 1.7-.6h-.2c-.3.2-.8.3-1.2.5"/><path clip-path="url(#h)" fill="#6099B5" d="M18.5 46.4s.1 0 .1.1c1.9-1.3 3.9-3.3 5.9-5.8.1.1.3.1.4.2.1-.1.2-.2.3-.4-.1-.1-.3-.1-.4-.2-.1 0-.2-.1-.2-.1-2 2.7-4.1 4.8-6.1 6.2M24.8 48.6c1.1-.3 2.1-.7 3.2-1.1l.2-.1.4-.1.5-.2h.1c-.5.2-1 .5-1.5.7h-.2c-.4.2-.8.3-1.3.5l-.3.1c-.7.2-1.4.4-2 .5l.5-.2.4-.1m7.9-4.1c-.2-.1-.3-.2-.5-.2l.7-.2c.1 0 .2.1.2.1.1 0 .2.1.2.1l-.1.1H33l-.3.1h.4c-.2.2-.4.3-.6.5h-.4c.2-.2.4-.3.6-.5"/><path clip-path="url(#h)" fill="#EDEDEE" d="M18.4 46.3s.1 0 .1.1c1.9-1.3 4-3.5 6.1-6.2-.1 0-.2-.1-.2-.1-2 2.7-4.1 4.8-6 6.2"/><path clip-path="url(#h)" fill="#67A8C1" d="M14.3 48.2c2.9 1.1 6 1.3 9.1.8-3.1.5-6.2.3-9.1-.8m9.1.8h.1-.1m1.6.8l-.4-.2H25.2c.1.1.2.1.3.1H25.2l-.2.1"/><path clip-path="url(#h)" fill="#BBC7BD" d="M23.9 49l-.3.1c.1.1.2.1.3.2h.6c-.1-.1-.3-.1-.4-.2-.1-.1-.1-.1-.2-.1M25.4 49.7h.2-.2"/><path clip-path="url(#h)" fill="#D1C9B2" d="M24.4 49.5h.5c-.1-.1-.3-.1-.4-.2h-.6c.2 0 .4.1.5.2"/><path clip-path="url(#h)" fill="#9FB9A5" d="M24 49c.1 0 0 0 0 0"/><path clip-path="url(#h)" fill="#6099B5" d="M13.7 47.9c.1 0 .1.1.1.1l.3.1s-.1 0-.2-.1c-.1 0-.1 0-.2-.1"/><path clip-path="url(#h)" fill="#6099B5" d="M13.9 48c.1.1.3.1.4.2-.1-.1-.3-.1-.4-.2M25.4 49.7h.2-.2.1-.5.4m-.8-.1c-.1 0-.2-.1-.3-.1h.5c.1 0 .2.1.3.1h-.5m-1.1-.6c.1 0 .2 0 .3-.1.1 0 .1.1.2.1h-.1l-.3.1c-.1 0-.1-.1-.2-.1h.1"/><path clip-path="url(#h)" fill="#EDEDEE" d="M13.5 47.9s.1 0 0 0l.3.1-.1-.1h-.2M13.5 47.9"/><path clip-path="url(#h)" fill="#67A8C1" d="M23.3 48.9c-.5-.3-1.2-.6-2-.9h.5c.7.4 1.4.7 1.9.9 0 0 .1 0 .1.1H23.5c-3.1.6-6.3.3-9.2-.8 2.9 1.1 5.9 1.3 9 .7m-4.6-2.2c.1-.1.2-.1.3-.2.7.3 1.3.6 1.9.9l-.5.1c-.5-.2-1.1-.5-1.7-.8"/><path clip-path="url(#h)" fill="#BBC7BD" d="M20.9 47.8l.5-.1c-.1 0-.1-.1-.2-.1l-.5.1c.1.1.2.1.2.1"/><path clip-path="url(#h)" fill="#6099B5" d="M13.3 47.8c.2.1.3.1.4.2l.6.3c-.1-.1-.3-.1-.4-.2-.1-.1-.3-.1-.5-.2 1.4.5 3.1 0 5-1.2.1 0 .2.1.2.1.1-.1.2-.1.3-.2-.1 0-.2-.1-.2-.1s-.1 0-.1-.1c-2 1.3-3.9 1.9-5.3 1.4M23.6 49h.3-.3M21.3 48c-.1-.1-.2-.1-.4-.2l.5-.1c.1.1.2.1.4.2h-.1l-.4.1m-.5-.3c-.1-.1-.2-.1-.4-.2l.5-.1c.1.1.3.1.4.2l-.5.1"/><path clip-path="url(#h)" fill="#EDEDEE" d="M13.2 47.7c.1.1.2.1.3.1.1 0 .1.1.2.1-.1 0-.2-.1-.5-.2 1.5.6 3.4 0 5.3-1.4 0 0-.1 0-.1-.1-2 1.5-3.8 2.1-5.2 1.5"/></g></g><g clip-path="url(#d)"><defs><path id="i" d="M0 4.2h45.7v45.7H0z"/></defs><clipPath id="j"><use xlink:href="#i" overflow="visible"/></clipPath><g clip-path="url(#j)"><defs><path id="k" d="M13 47.6c-2.8-1.3-4.7-3-4.7-3-.8-.6-1.8-1.6-2.5-2.4-.7-.8-1.6-1.9-2.1-2.8-.5-.9-1.2-2.1-1.7-3.1-.4-1-.9-2.3-1.2-3.3-.8-3.1-.8-5.7-.8-7 .1-1.1.2-2.5.4-3.6s.7-2.5 1-3.5c.4-1.2 1.7-3.7 2.6-4.9.6-.9 1.5-2 2.3-2.8.7-.8 1.8-1.7 2.7-2.4 1.3-1 3.4-2.3 6.2-3.3 4.5-1.6 8.5-1.4 10.5-1.1.9.1 2.9.4 5.3 1.3.5.2 1.2.5 1.7.7 1 .5 2.3 1.3 3.2 1.9.9.7 2 1.5 2.8 2.3.8.7 1.7 1.8 2.4 2.7 1 1.3 2.3 3.4 3.3 6.2 1 2.8 1.3 5.3 1.3 6.9 0 1.1 0 2.5-.2 3.6-.1 1.1-.5 2.5-.7 3.5-.3 1.4-1.5 4-2.2 5.1-.6.9-1.4 2.2-2.1 3-.7.8-1.7 1.9-2.5 2.6-1.3 1-3 2.5-5.9 3.8-2.1 1-4.4 1.6-6.8 1.8-4.2.4-8.4-.3-12.3-2.2"/></defs><clipPath id="l"><use xlink:href="#k" overflow="visible"/></clipPath><path clip-path="url(#l)" fill="#208BB5" d="M4.4 40.6c0-.1 0-.1 0 0 0-.1 0-.1 0 0m.1 0s-.1 0 0 0c-.1 0 0 0 0 0m0 .1c0-.1 0-.1 0 0 0-.1 0-.1 0 0m.1 0c-.1 0-.1 0 0 0-.1 0-.1 0 0 0m.1.1s-.1 0 0 0c-.1 0 0 0 0 0m0 .2s0-.1 0 0c0-.1 0 0 0 0m.1.1s0-.1 0 0c0-.1 0 0 0 0m.5.6c0-.1 0-.1 0 0l.1.1c0-.1-.1-.1-.1-.1m-.1-.1c.1 0 .1 0 0 0 .1 0 .1 0 0 0m-.1-.2c.1.1.1.1 0 0 .1.1.1.1 0 0m-.1-.1s.1 0 0 0c.1 0 0 0 0 0m0-.1s0 .1 0 0c0 .1 0 0 0 0m-.1-.1s0 .1 0 0c0 .1 0 0 0 0m-.1-.1s.1.1 0 0c.1.1 0 0 0 0m-.1-.1c.1 0 .1.1 0 0 .1.1.1 0 0 0m0 0l-.1-.1c.1 0 .1.1.1.1m0-.1l-.1-.1s0 .1.1.1m-.1-.1s-.1-.1 0 0c-.1-.1 0 0 0 0m-.2-.2c.1 0 .1.1 0 0 .1.1.1 0 0 0m-.1-.2c0 .1.1.1 0 0 .1.1 0 .1 0 0m0 0s0-.1 0 0c0-.1 0 0 0 0m-.1-.1c0-.1 0-.1 0 0 0-.1 0-.1 0 0m0-.1s.1 0 0 0c.1 0 0 0 0 0m0-.1s0 .1 0 0c0 .1 0 0 0 0m-.1-.1s.1 0 0 0c.1 0 0 0 0 0m0 0c0-.1 0 0 0 0m7.7 7.1c-2.6-1.5-4.7-3.8-6.1-6.5-.5-.2-.9-.4-1.2-.6l.1.3h-.1c.1.1.1.2.2.3.1.1.1.2.2.3l.1.1.2.3.4.6.1.2.3.3c.1.1.2.2.2.3l.1.2.4.4.5.5.2.1.2.2 1.2 1c.5.4 1.1.8 1.6 1.2l1 .6-.2-.1-.7-.4c.3.2.7.4 1 .6 0 0 .1 0 .3.1m.7.3c-1-.8-1.6-2.3-1.7-4.4-2.1-1-3.8-1.8-5-2.4 1.4 2.7 3.4 4.9 6 6.4.2.2.4.3.7.4m1 .5c1 .2 2.4-.4 3.9-1.7-.9-.4-1.9-.9-2.9-1.4h-.7l-.1-.4c-.9-.4-1.8-.8-2.6-1.3.1 2 .5 3.5 1.5 4.3.3.2.6.4.9.5m.7.4c2.7 1 5.6 1.1 8.5.5-1.3-.6-3.1-1.5-5.1-2.4-1.6 1.2-3 1.8-4.1 1.6.3 0 .5.2.7.3m.4.1c3.4 1.3 7 1.8 10.5 1.5-.1 0-.2-.1-.6-.3-.4-.2-.9-.4-1.6-.8-2.9.6-5.9.5-8.6-.6 0 .1.1.1.3.2-.1 0-.1 0 0 0m0 0c.6.2 1.4.5 1.9.7 3.1.8 3.9.9 7.1.9l1.1-.1h.1c-3.4.3-6.9-.2-10.2-1.5m15 .6s-.1 0 0 0c-.1 0 0 0 0 0m-.2 0s.1 0 0 0c.1 0 0 0 0 0m-.1.1c.1-.1.1-.1 0 0 .1-.1.1-.1 0 0m-11.7-3.1c1.1-1 2.3-2.3 3.5-3.8l-.6.2-.2.1-.6 1.1-.2.3h-1l-.5.4h-.1c-.5.2-1.1.5-1.6.7l-.2.1h-.2l-.4-.1c.7.4 1.4.7 2.1 1M1.2 34.2c-.2-.6-.4-1.4-.6-2v-.1c.1.7.3 1.4.6 2.1M.5 31.1s0-.1 0 0c0-.1 0 0 0 0m5 9c-1.2-2.3-1.9-5-2.1-7.8 0 .8.1 1.8.2 2.5V35.1l-.1.7v.1l-.1.1h-.1l.4 1.3v.2l.1.2.3.8.5 1c-.1.2.4.4.9.6m15.6 2.8c.5-.4 1.2-.9 1.7-1.3l-.4.3-.2.1h-.5c-.3.4-.6.7-.8 1l.2-.1m-10.3-.2c-.1-2.2.3-5 1.1-8.1-3.5-1.7-6.3-3-8.4-4v.2c0 3.4.7 6.7 2.1 9.5 1.3.5 3 1.3 5.2 2.4m.3.1c.8.4 1.7.8 2.5 1.2l-.1-.3v-.2l.1-.9-.1-.9v-.2c.1-.4.2-1 .2-1.4-.1-.5-.2-1.2-.3-1.7v-.2-.1l.3-.8v-.2c.3-.4.7-1 1-1.4l-2.4-1.2c-.8 3.4-1.2 6.1-1.2 8.3m14.2-1.6h.5c-.7-.3-1.4-.6-2.1-1l-.5 1v.1l.1-.1h2m-2.2 7.3c3-.7 6-2.3 8.6-4.5-1.5-.7-3.4-1.6-5.6-2.7l-.3.7c-.2.4-.6.9-.8 1.2l-.1.1-.2.1c-.7.4-1.6.9-2.3 1.2h-.2l-.8.3-.1.1-.3-.1-1-.3-.5-.1c-.6.6-1.1 1.1-1.7 1.5 2.1 1 3.9 1.9 5.3 2.5m9.2-.7c1.2-.5 2.3-1.2 3.4-1.9-.1 0-.4-.2-1-.5s-1.6-.8-2.7-1.3c-2.7 2.2-5.7 3.7-8.7 4.5.7.3 1.3.6 1.7.8.3.2.5.2.6.3h.1l.5-.1.5-.1h.1l1.1-.2 1.3-.3h.2l.6-.2.5-.2.1-.1h.1l.6-.2.2-.1.2-.1.6-.3m.4-.1l1-.5c.6-.4 1.4-.8 2-1.2-1 .6-2 1.2-3 1.7m5.1-3.3c.1-.1.2-.2.4-.3-.2.1-.3.3-.5.4l.1-.1m-.1 0c.1 0 .1-.1.2-.1l.1-.1V43.9h-.1l-.1.2-.1.3m-17.5-9.6v.2c.2-1.4.3-1.8-.7-2.3.1 0 .1.1.2.1.6.5.6.9.5 2m-.1.5V35v.3m0 .2v-.2.2m-.1.2v-.2.2m0 .2v-.2.2m0 .1v-.2.2m0 .2V36v.2m0 .2v-.2.2m.1.1v-.2.2m0 .2v-.2.2m0 .2v-.2.2m0 0v0m0 .3V37v.2m0 .1v-.2.2m0 0v0m0 .2v0m0 .2v0m0 .1v0M19.2 32.7c-.1 0-.1-.1-.2-.1.1 0 .2 0 .2.1m.1 0c-.1 0-.1 0 0 0-.1 0-.1 0 0 0m-6.9 1.6c.8.4 1.7.8 2.5 1.2l.1-1 .1-1.1c-.1-.5-.2-1.3-.3-1.8l-.1-.3.2-.2 1-1.3v-.4l-.6-.3c-.1-.1-.2-.1-.3-.2l-.1-.4-.2-.7c-.9 2.2-1.7 4.4-2.3 6.5m10-2.8c-.1-.1-.1-.1 0 0-.1-.1-.1-.1 0 0m0 0s.1.1 0 0c.1.1 0 0 0 0m.1.1c.1.1.1.1 0 0 .1.1.1.1 0 0m.2.2c0-.1-.1-.1 0 0-.1-.1 0-.1 0 0m.1.1s-.1-.1 0 0c-.1-.1 0 0 0 0m0 0c.1.1.1.1 0 0 .1.1.1.1 0 0m.1.1s0 .1 0 0c0 .1 0 0 0 0m.1.1c0 .1 0 .1 0 0 0 .1 0 .1 0 0m.2.2s0 .1 0 0c0 .1 0 0 0 0M23.4 32.6c-.1 0-.1-.1 0 0-.1-.1-.1 0 0 0M23.5 32.9s.1 0 0 0c.1 0 0 0 0 0m.1 0c0 .1 0 .1 0 0 0 .1 0 .1 0 0m.2.4s-.1-.1 0 0m-5.6-3.9s.1 0 0 0c.1 0 0 0 0 0m.1 0c.1 0 .1 0 0 0 .1 0 .1 0 0 0m.1 0s.1 0 0 0c.1 0 0 0 0 0m.2 0c0 .1 0 .1 0 0 0 .1 0 .1 0 0m0 .1c.1 0 .1 0 0 0 .1 0 .1 0 0 0m.1 0s.1 0 0 0c.1 0 0 0 0 0m.4.1s-.1-.1 0 0c-.1-.1 0 0 0 0m1.1.4s-.1 0 0 0c-.1 0 0 0 0 0m-4.4-4.5s-.1 0 0 0c-.1 0 0 0 0 0M2.1 17.6l-.2.6.2-.6M2 18.9c0-.2-.1-.5-.1-.8 0 .2.1.5.1.8m-.2 1.2l.2-1.2-.2 1.2m.2 1.3c0-.4-.1-.9-.2-1.3.1.4.1.9.2 1.3m-.2 2.1c.1-.6.2-1.4.3-2-.2.5-.3 1.3-.3 2m-.2 5.6v-.5.5m0-.5c0-.1 0-.3.1-.4 0 .1-.1.3-.1.4m.1-.5c0-.1.1-.3.1-.4 0 .2-.1.3-.1.4m.4-2.8c-.1-.5-.3-1.3-.3-1.8.1.5.2 1.3.3 1.8m-.3 2.5c0-.1.1-.2.1-.3 0 0-.1.2-.1.3m.2-.7c0 .1-.1.2-.1.3 0-.1.1-.2.1-.3m.2-.3c0 .1-.1.2-.2.3.1-.1.1-.2.2-.3m.2-.4c0 .1-.1.3-.2.4 0-.1.1-.2.2-.4m0 0c.1-.1.1-.3.2-.4-.1.1-.2.3-.2.4m.1-.4l-.4-.7.4.7m0 0c.1 0 .1 0 0 0m.1.4v-.3.3m0 .3v-.3.3m.1.4v-.3c-.1 0 0 .2 0 .3m0 .3v-.3.3m0 .3v-.3.3m0 .3v-.3.3m0 0v0m0 .3v0m.6-1.2c-.2-.3-.5-.7-.7-1 .2.3.4.7.7 1m0 0l.2.2-.2-.2m.2-.6c.4-2.4 1.1-4.9 2.2-7.3-1.9-.9-3.1-1.5-3.5-1.7 0 .2 0 .5.1.7V18.5l-.2 1.1c.1.4.1.9.2 1.2v.2l-.1.3c-.1.6-.2 1.3-.3 1.8.1.5.2 1.1.3 1.6l.3.3.3-.6.1 1.2.6.9m8.5 7.6c.5-2 1.2-4.1 2.1-6.3l-.7.2-.6.1-.3-.5-.2-.5-1.2-.1h-.4l-.2-.5c-.2-.5-.4-1.3-.6-1.8v-.2c-.1-.9-.3-2.1-.4-3v-.2c0-.1.1-.2.1-.2s0-.1.1-.1c-1.3-.6-2.5-1.2-3.5-1.7-1.2 2.5-1.9 5-2.3 7.5l.1.1.2.3c0 .2 0 .3-.1.5-.1.5-.1 1-.2 1.5v.2l-.2.6c2 1.1 4.8 2.4 8.3 4.1m4-8.5s-.1 0 0 0c-.1 0 0 0 0 0m.2.1c-.1 0-.1-.1 0 0-.1-.1-.1 0 0 0m.1 0c-.1 0-.1 0 0 0-.1 0-.1 0 0 0m.1-.1s-.1 0 0 0c-.1 0 0 0 0 0m.2 0c-.1 0-.1 0 0 0-.1 0-.1 0 0 0m.1-.1c0 .1-.1.1 0 0-.1.1 0 .1 0 0m.2 0c-.1 0-.1 0 0 0-.1 0-.1 0 0 0m0-.1s0 .1 0 0c0 .1 0 0 0 0m.1 0s-.1 0 0 0c-.1 0 0 0 0 0m.1 0c-.1 0-.1 0 0 0-.1 0-.1 0 0 0m0-.1s0 .1 0 0c0 .1 0 0 0 0m.1 0s-.1 0 0 0c-.1 0 0 0 0 0m.1 0c-.1 0-.1 0 0 0-.1 0-.1 0 0 0m0-.1s0 .1 0 0c0 .1 0 0 0 0m.2 0s-.1 0 0 0c-.1 0 0 0 0 0m.1-.1c-.1 0-.1.1 0 0-.1.1-.1 0 0 0m.1 0s.1 0 0 0c.1 0 0 0 0 0m.2-.1c-.1 0-.1 0 0 0-.1 0 0 0 0 0m14.2 18.7c1.8-1.5 3.4-3.4 4.8-5.5l-.4.3.6-1.5c.3-.7.6-1.7.8-2.4v-.1c-1.5-.7-3.2-1.5-5-2.4l-.4.5-1 1.3-.1.1-.1.1c-.8.6-1.9 1.4-2.7 1.9h-.2c-.6.3-1.5.6-2.2.9l-.2.3-.5.4-.9.8-.6 1.4c3.1 1.5 6 2.9 8.1 3.9m.3.2c1.2.6 2.1 1 2.8 1.3.6.3.9.4 1 .5l.1-.1.2-.4.1-.3v-.1l.2-.2.6-.7.1-.3v-.1l.2-.2.7-.9.3-.6v-.1l.1-.1.4-.7.5-1.1.4-1c.2.1.3.1.4.2h.2v.1l.1-.2.1-.2s.1-.1.1-.2c.4-.6.7-1.3 1.1-1.9-.6-.3-1.3-.6-2.2-1l-.2.4-.1.7-.2 1.2-.1.6-.5.2-.8.1-.5.2-.1-.4-.1-.5c-1.4 2.3-3 4.2-4.9 5.8m10-5c.4-.6.7-1.2 1-1.8h-.1l-.2.4-.2.4-.2.2-.4.5-.6.7-.5.7v.1l-.2.1-1 1.4-.1.2.2-.2c.1-.1.2-.3.3-.4l.2-.1.3-.2.3-.3.1-.1v-.1l.3-.3.4-.5.4-.7m.7-1.2l.3-.6c-.2.3-.3.7-.5 1l.1-.2.1-.2M19 24.9c.1 0 .1 0 0 0 .1 0 .1 0 0 0m.1 0s.1 0 0 0c.1 0 0 0 0 0m.2.1c0-.1 0-.1 0 0 0-.1 0-.1 0 0m0 0c.1 0 .1 0 0 0 .1 0 .1 0 0 0M11.5 21.3s0-.1 0 0c0-.1 0 0 0 0m.1 0c.1 0 .1 0 0 0 .1 0 .1 0 0 0m.1 0c.1 0 .1 0 0 0 .1 0 .1 0 0 0m.1 0c0 .1 0 .1 0 0 0 .1 0 .1 0 0m0 .1c.1 0 .1 0 0 0 .1 0 .1 0 0 0m.2 0c.1 0 .1 0 0 0 .1 0 .1 0 0 0m.1 0s0 .1 0 0c0 .1 0 0 0 0m0 .1c.1 0 .1 0 0 0 .1 0 .1 0 0 0m.1 0c.1 0 .1 0 0 0 .1 0 .1 0 0 0m.1 0s.1 0 0 0c.1 0 0 0 0 0m.1 0c0 .1.1.1 0 0 .1.1 0 .1 0 0m.2.1c-.1 0-.1 0 0 0-.1 0-.1 0 0 0m.1 0c0 .1 0 .1 0 0 0 .1 0 .1 0 0m.1.1s-.1 0 0 0c-.1 0 0 0 0 0m0 0c.1 0 .1 0 0 0M40.1 35c.8.4 1.6.7 2.1 1l.1-.3h-.7l.5-1 .4-.8.1-1v-.2H42.3v.1c-.1.2-.2.5-.3.7-.1-.1-.2-.1-.4-.2l-.1.1-.9.8-.3.2-.2.6m3.5 1.6c.5-1 .9-2.1 1.2-3.2l-.1.2-.4 1.1-.2.4-.1.1v.1l-.1.2-.3 1.1c-.1 0 0 0 0 0m0 0c.4-1 .9-2.2 1.2-3.2l.2-.4v.2c-.4 1.2-.9 2.3-1.4 3.4M39.6 30.5c.1 0 .1 0 0 0 .1 0 .1 0 0 0M39.9 30.5s.1 0 0 0c.1 0 0 0 0 0m.1 0s.1 0 0 0c.1 0 0 0 0 0m.2 0c.1 0 .1 0 0 0 .1 0 .1 0 0 0m.1 0c0 .1 0 .1 0 0 0 .1 0 .1 0 0m0 .1c.1 0 .1 0 0 0m-7.2 1c1.8.9 3.5 1.7 4.9 2.3l.2-1.5v-.2s0-.1.1-.1c0-.1.1-.2.1-.2v-1c-.1-.7-.1-1.7-.2-2.4-.4-.3-1-.6-1.4-.8l.2.4.2.5-.3.4-.5.7-.1.1-.1.1c-.5.4-1.1.9-1.6 1.2l-.3.2-.3-.1-.4-.1v.1c-.1.2-.2.4-.2.5l-.3-.1M44 29.5c.1 0 .1 0 0 0 .1 0 .1 0 0 0m.1.1s0-.1 0 0c0-.1 0 0 0 0m.1 0s-.1 0 0 0c-.1 0 0 0 0 0m0 0c0 .1 0 .1 0 0 0 .1 0 .1 0 0m0 .1c0 .1 0 0 0 0m-2.7 3s.1 0 0 0c.1 0 0 0 0 0M41.8 32.1s.1 0 0 0c.1 0 0 0 0 0m.2-.1l.1-.1c-.1 0-.1 0-.1.1m0-.2l.1-.1c0 .1 0 .1-.1.1m.1-.1l.1-.1s0 .1-.1.1m.1-.1l.1-.1-.1.1m.2-.2l-.1.1.1-.1m0 0l.1-.1c-.1 0-.1.1-.1.1m.1-.1l.1-.1c-.1 0-.1.1-.1.1m.1-.2l-.1.1c.1 0 .1-.1.1-.1m.1-.1l-.1.1.1-.1m.1-.1l-.1.1.1-.1m.1-.2l-.1.1s.1 0 .1-.1m.1-.1l-.1.1s.1 0 .1-.1m.1-.1l-.1.1s0-.1.1-.1m0-.1l-.1.1c.1 0 .1-.1.1-.1m.1-.1l-.1.1.1-.1m0 0l.1-.1s-.1 0-.1.1m.2-.4c0 .1-.1.2-.1.2s.1-.1.1-.2m.1-.2c0 .1-.1.1-.1.2 0-.1.1-.1.1-.2m.1-.1l-.1.1.1-.1m0 0l.1-.1s-.1 0-.1.1m.1-.2s0 .1 0 0c0 .1 0 0 0 0m0 0c.1 0 .1 0 0 0 .1 0 .1 0 0 0m.2 0c-.1 0-.1 0 0 0-.1 0 0 0 0 0m1.4.8c0-.1 0-.1 0 0 0-.1 0-.1 0 0m0-.1s0-.1 0 0c0-.1 0 0 0 0m0-.1s0-.1 0 0c0-.1 0 0 0 0m0-.2c.1 0 .1 0 0 0 .1 0 .1 0 0 0m.1 0c0-.1 0-.1 0 0 0-.1 0-.1 0 0m0-.1c0-.1 0-.1 0 0 0-.1 0-.1 0 0m0-.1s0-.1 0 0c0-.1 0 0 0 0m.1-.2c0 .1 0 .1 0 0 0 .1 0 .1 0 0M30.3 20.3l.4-.7-.3-.1c-.1.3-.2.5-.2.7-.1 0 0 0 .1.1M6 18.7c1.7-3.5 4.1-6.5 6.8-8.7-2-.9-3.1-1.5-3.2-1.5-2.9 2.1-5.4 4.9-7.1 8.3l-.1.2c.2 0 1.4.6 3.6 1.7m11.1-5l1.4-.4-.1-.2v-.2l-.1-.3v-.2c-2.1-1-3.8-1.8-5.2-2.5-2.7 2.3-5 5.2-6.7 8.7 1 .5 2.2 1 3.5 1.7.1-.1.1-.3.2-.4v-.1l.1-.1 1-1.2.4-1.3.1-.3.2-.2c.5-.3 1.1-.8 1.5-1.1h.2c.6-.3 1.4-.6 2.1-.9l.5-.2c0-.1.1-.1.1-.2.1-.2.2-.3.4-.5l.2-.2.2.1m9.4 3.1c0-.1.1-.2.1-.2s-.1 0-.1-.1l-.3.3-.5.4-.5-.5-.2-.2-.3-.2v.4l.5.7.1.1h.8c0-.2.2-.3.4-.7m3.3 1.6v-.1.1m-.4 1.6c.2-.5.4-1.1.4-1.6 0-.2-.3-.3-.4-.5-.4-.2-.9-.4-1.3-.6l-.2.3-.1-.4c-.2-.1-.3-.1-.5-.2-.4.8-.7 1-1.2 1.1.1.1.3.1.4.2 1.3.6 1.3.6 1.4.7.5.4.8 1 1.4 1.3 0-.2.1-.3.1-.3m6.5 1c.2.1.5.2.7.3v-.1c-.3-.1-.5-.3-.8-.4l.1.2m5.5 2.1c-.1 0 0 0 0 0m.1 0c-.1 0-.1 0 0 0-.1 0-.1 0 0 0m0-.1s0 .1 0 0c0 .1 0 0 0 0m.1 0c-.1 0-.1 0 0 0-.1 0-.1 0 0 0m.1 0s-.1 0 0 0c-.1 0 0 0 0 0M39.7 21.9s0-.1 0 0c0-.1 0 0 0 0m.2.5c-.1-.1-.1-.3-.2-.5.1.3.2.5.2.5m-12.4-5.9l.2.1v-.9c-.1.4-.1.6-.2.8m6 1.9s-.1 0 0 0c-.1 0 0 0 0 0m.2.1c-.1 0-.1 0 0 0-.1 0-.1 0 0 0m.1 0c-.1 0-.1 0 0 0-.1 0 0 0 0 0M26.6 15c-.1 0-.1 0 0 0-.1 0-.1 0 0 0m.1 0s-.1 0 0 0c-.1 0 0 0 0 0m1.6 1.9c.4.2.7.4 1.1.5v-1.1l-.2-.4-.7.2-.2.8m10.6 4.7s0-.1 0 0c0-.1 0 0 0 0m0-.2c.1 0 .1 0 0 0 .1 0 .1 0 0 0m.1-.2c0-.1 0-.1 0 0 0-.1 0-.1 0 0m0-.1c.1 0 .1 0 0 0 .1 0 .1 0 0 0m.1-.1c.1 0 .1-.1 0 0 .1-.1.1 0 0 0m.2-.1s0-.1 0 0c0-.1 0 0 0 0m.2-.1s-.1 0 0 0c-.1 0 0 0 0 0m.1 0c-.1 0-.1 0 0 0-.1 0-.1 0 0 0m0-.1c0 .1 0 .1 0 0 0 .1 0 .1 0 0m0 .2s0-.1 0 0c0-.1 0 0 0 0m0 .2s0-.1 0 0c0-.1 0 0 0 0M25 14.5c.1 0 .2.1.3.1l-.1-.2-.1-.1-.6-.9h-1v-.2l-.2.1-.2.1h-.4c-.1.2-.3.4-.4.6l.6.3 1.1.3.2.1.5.1.3-.3m8.8 3.6c0-.2.1-.3.1-.5l-.2-.3c-.1.2-.1.5-.2.7.1.1.2.1.3.1m6.4 2.1s0-.1 0 0c0-.1 0 0 0 0m0 0c.1 0 .1 0 0 0 .1 0 .1 0 0 0M45.3 22.5s0 .1 0 0c0 .1 0 0 0 0M11.4 7.3c.4-.2 1-.5 1.5-.7-.5.2-1.1.4-1.5.7l-.4.2.4-.2m15 6.3v-.7.7m.1.7l-.1-.6.1.6M26.8 14.8c-.1 0-.1 0 0 0-.1 0-.1 0 0 0m0 .1c0-.1 0-.1 0 0 0-.1 0-.1 0 0m0 0s.1 0 0 0l-.3-.6.3.6c.1 0 0 0 0 0m.2.2l.3.5-.3-.5h.4c-.2-.1-.4-.1-.5-.2 0 0 0 .1.1.2m7.6 3.3c0 .1-.1.1 0 0-.1.1 0 .1 0 0m.2-.2s0 .1 0 0c0 .1 0 0 0 0m.1-.2s0 .1 0 0c0 .1 0 0 0 0m0-.1c0 .1 0 .1 0 0 0 .1 0 .1 0 0m.1-.1c0 .1-.1.1 0 0-.1.1 0 .1 0 0m0-.1c0-.1 0-.1 0 0 0-.1 0-.1 0 0m.1-.2s0-.1 0 0c0-.1 0 0 0 0m0-.1s.1 0 0 0c.1 0 0 0 0 0m.2-.2c-.1 0-.1 0 0 0-.1 0-.1 0 0 0m0 0c0-.1 0 0 0 0M45 22c0 .1 0 .1 0 0 0 .1 0 .1 0 0M26.9 13l.2.9-.2-.9m8.6 4.1c.1 0 .1 0 0 0 .1 0 .1 0 0 0m.1 0s.1 0 0 0c.1 0 0 0 0 0m.7.4s0-.1 0 0c0-.1 0 0 0 0m.1 0c-.1 0-.1 0 0 0-.1 0-.1 0 0 0m0 .1s0-.1 0 0c0-.1 0 0 0 0m.1 0s-.1 0 0 0c-.1 0 0 0 0 0M36.8 17.8l-.2-.1.2.1m0 .1s0-.1 0 0c0-.1 0 0 0 0m-1.4 2.3l1.2.6v-.3l-.2-.8.2-.2-.2-1-.1-.5-.1-.5.1-.1.4-.3c-.1 0-.2-.1-.2-.1l-.5.1-.3.1v1.1l.2 1.1-.5.8m-7.4-5h-.1.1m.1 0H28h.1m.1 0h-.1.1m.2.1h-.1c0-.1 0 0 .1 0m.1 0h-.1.1m.1 0h-.1.1m.1 0h-.1.1m.1 0h-.1.1m.2 0h-.2.2m.1-.1H29h.1m.2 0h-.1.1m.1-.1s-.1 0-.1.1c0 0 0-.1.1-.1m.1 0s-.1 0-.1.1c0-.1.1-.1.1-.1m0 0s.1 0 .1-.1l-.1.1m.2-.1h.1-.1m.1 0h.1c0-.1-.1 0-.1 0m.3-.1H30h.1m0 0h0m.1 0h0m.2 0h0m.1 0h0m.3 0h-.1.1m.1 0h-.1.1m1.1.3c-.1 0-.1 0 0 0-.1 0-.1 0 0 0m0 .1s0-.1 0 0c0-.1 0 0 0 0m.2 0s-.1 0 0 0c-.1 0 0 0 0 0m.1 0c.1 0 .1 0 0 0 .1 0 .1 0 0 0m.2.1s.1 0 0 0c.1 0 0 0 0 0m.1 0s0 .1 0 0c0 .1 0 0 0 0M32.8 17.8s0-.1 0 0c0-.1 0 0 0 0m0 .1s0-.1 0 0c0-.1 0 0 0 0m0 0c0 .1 0 .1 0 0 0 .1 0 0 0 0m.3-.1c.1-.4.2-.7.3-1.1l-.3-.5.3-.2.2-.7-1 .2h-.2c0 .2-.1.3-.1.5-.1 0-.2-.1-.3-.2l-.1-.7v-.2l-.6-.3-.3.4h-.1.1c-.1.2-.3.4-.5.6l-.4.3.1.6c.2.1.5.2.7.3l.8-.2.6.9.3.1c.3.1.4.2.5.2m11.4 2.6c0 .1 0 .1 0 0 0 .1 0 .1 0 0m.1.1s-.1 0 0 0c-.1 0 0 0 0 0m0 0s0 .1 0 0c0 .1 0 0 0 0M44.7 20.8c0-.1 0-.1 0 0 0-.1 0-.1 0 0m0 0c0 .1 0 .1 0 0 0 .1 0 .1 0 0m.1.1s0 .1 0 0c0 .1 0 0 0 0m0 .1s0 .1 0 0c0 .1 0 0 0 0m0 .1s0 .1 0 0c0 .1 0 0 0 0m.1.1s0 .1 0 0c0 .1 0 0 0 0m0 .2c0-.1 0-.1 0 0 0-.1 0-.1 0 0m.1.1c0-.1-.1-.1 0 0-.1-.1 0-.1 0 0m0 .1c0-.1 0-.1 0 0 0-.1 0-.1 0 0m0 .1c0-.1 0-.1 0 0 0-.1 0-.1 0 0m.1.1c-.1-.1-.1-.1 0 0-.1-.1-.1-.1 0 0m0 .2l-.1-.2.1.2m.1.1c-.1-.1-.1-.1 0 0-.1-.1-.1-.1 0 0m0 .2c0-.1 0-.1 0 0 0-.1 0 0 0 0m-.8-1.8c-.1 0-.1 0 0 0-.1 0-.1 0 0 0m.1-.1c-.1 0-.1 0 0 0-.1 0-.1 0 0 0m-6.9-3s.1 0 0 0c.1 0 0 0 0 0m.2 0s.1 0 0 0c.1 0 0 0 0 0m-.2.9l-.1-.1s0 .1.1.1m.1 0s-.1 0-.1-.1c0 .1.1.1.1.1m.2.1h-.1c0-.1 0 0 .1 0m.1 0h-.1.1m.1 0H38h.1m.2 0h-.1.1m.1 0h-.1.1m.1 0h-.1.1m.1 0h-.1.1m.1-.1h-.1c.1.1.1.1.1 0m.1 0s-.1 0-.1.1l.1-.1m0 0s.1 0 .1-.1c0 .1 0 .1-.1.1m.2-.1s-.1 0-.1.1l.1-.1m0 0s.1 0 .1-.1c0 0 0 .1-.1.1m.2-.1h.1-.1m.1 0c0-.1 0 0 0 0m.2-.1c-.1 0-.1 0 0 0-.1 0-.1 0 0 0m.1 0c-.1 0-.1 0 0 0-.1 0-.1 0 0 0M38.5 17.4c0 .1 0 .1 0 0 0 .1 0 .1 0 0m.1.1c-.1 0-.1 0 0 0-.1 0-.1 0 0 0M13.3 6.9c.4-.2.7-.5 1.2-.8.4-.3.5-.3.6-.4H15c-.7.3-.7.3-1 .5l-.3.4h-.2c-.1.1-.2.1-.2.3m1-1.1s0 .1 0 0c0 .1 0 0 0 0M14.6 5.7c-.1 0-.1.1 0 0-.1.1-.1 0 0 0m.1 0c.1 0 .1 0 0 0 .1 0 .1 0 0 0m.2-.1s.1 0 0 0c.1 0 0 0 0 0M43.5 18.9c0-.1 0 0 0 0m0 .1c0-.1 0-.1 0 0 0-.1 0-.1 0 0m0 .1c0-.1 0-.1 0 0 0-.1 0-.1 0 0m.1.1c0-.1-.1-.1 0 0-.1-.1 0-.1 0 0M43.7 19.5s0-.1 0 0c0-.1 0 0 0 0m0 .1s0-.1 0 0c0-.1 0 0 0 0m0 .1c0-.1 0-.1 0 0 0-.1 0-.1 0 0m.1.2s0-.1 0 0c0-.1 0 0 0 0m0 .1s0-.1 0 0c0-.1 0 0 0 0m.1 0c-.1 0-.1 0 0 0-.1 0-.1 0 0 0m0 .1s0-.1 0 0c0-.1 0 0 0 0M43.7 18.9s0 .1 0 0c0 .1 0 0 0 0m.1.2s0-.1 0 0c0-.1 0 0 0 0m0 0s0 .1 0 0c0 .1 0 0 0 0m0 .1s.1 0 0 0c.1 0 0 0 0 0m.1.1c0-.1 0-.1 0 0 0-.1 0-.1 0 0m0 .1c.1 0 .1 0 0 0 .1 0 .1 0 0 0m.1 0s0 .1 0 0c0 .1 0 0 0 0m-.5-.6c.1 0 0 0 0 0M41.8 19.7l-.1.1c.1 0 .1-.1.1-.1m.1-.1s0 .1-.1.1c0 0 0-.1.1-.1m0-.1s0 .1-.1.1l.1-.1m.1-.2s0 .1-.1.1c0 0 .1 0 .1-.1m0-.1v0m.1-.1v.1c-.1 0-.1-.1 0-.1m0 0V19v.1m0-.2v-.1.1m0-.1v-.1c.1 0 .1.1 0 .1m.1-.1v-.1.1m0-.2v-.1.1m.1-.2v.1c-.1 0 0-.1 0-.1m0-.1v0m0 0v-.1.1m0-.1V18v.1m0-.1c0-.1.1-.1 0 0 .1-.1 0-.1 0 0m.1-.1c0-.1 0-.1 0 0 0-.1 0-.1 0 0M42.5 17.6s.1 0 0 0c.1 0 0 0 0 0m.2 0c-.1 0-.1 0 0 0-.1 0-.1 0 0 0m0 0c.1.1 0 0 0 0M26 9c.3-.3.6-.5.8-.7l-.6.2-.2.1v.1h-.1v.1l.1.2m-7.3-4.4l.2-.1-.2.1m8.1 4.9l.2.1.3-.4-.2-.1v-.2l.1-.4v-.1l.1-.1.1-.1c-.4.4-.9.8-1.3 1.3h.7M15 6.3l.3-.2-.1.1s-.1.1-.2.1m4.1-1.7s.1-.1 0 0l.8-.2-.8.2m0 0c.2 0 .6-.1.8-.2l-.8.2m-.1 0c.1 0 .1 0 0 0 .1 0 .1 0 0 0m-.2.2c.2 0 .5-.1.8-.2H19c0 .1-.1.1-.2.2m0 0l-1.2.4 1.2-.4m-2 .6l.8-.3-.8.3m-1.4.7l1.4-.7-1.4.7m-.9.4c.2-.1.3-.2.5-.2-.1.1-.3.2-.5.2m.5-.2c.1 0 .2-.1.3-.1l.1-.1-.4.2m5.2-1.8h.3s-.1 0-.1-.1l-.4.1h.2m-7 5.1C15.9 7.4 18.9 6 22 5.3c-1.3.1-2.8.2-2.5-.2l.1-.1.2-.1c.6-.2.9-.2 1.1-.3-.1-.1-.2-.1-.3-.2l-.6.2-.8.2-1.2.3-.8.3-1.3.6-.1.1c-.1 0-.2.1-.3.1-.1 0-.2.1-.3.1-.2.1-.3.2-.5.2-.3.1-.6.3-.9.5v-.3c-.3.3-.8.7-1.1 1 0-.2-.1-.4-.1-.5 0-.1 0-.1.1-.3-.3.1-.7.2-1 .3-.3.1-.6.2-.8.3l.4-.2-.3.2-1 .6c.1.1 1.2.6 3.2 1.5m8.5-4.5h.1c-.9 0-1.9.1-1.7-.2-.2.3.7.3 1.6.2M27 8.2c.2-.1.3-.3.5-.4-2.2-1-3.9-1.9-5.2-2.5-3.1.7-6.1 2.2-8.8 4.4 1.3.6 3 1.5 5.1 2.4l.2-.3.1-.1.1-.1.6-.4.2-.5.1-.3.4-.1.5-.2.6-.2.2.4.1.2.7.5.2-.1v-.2l-.3-.3-.4-.4.7-.3.3-.1.3-.1v-.1l-.2-.2h-.6-.1l-.2-.2c-.1 0-.3-.1-.4-.2.2-.1.3-.2.5-.3l.2-.2h.2V8l.8-.1h.5l.4-.1s.1 0 .1.1l.4-.2.2-.2H25.9s.1 0 .1.1c.1 0 .1.1.2.1.2.1.5.2.7.4l-.4.1c.3-.1.4 0 .5 0m-4.3-3c.4.2.9.4 1.4.7v-.1h.2c-.4-.2-.8-.4-1.1-.5-.2-.1-.3-.1-.5-.1m.2-.1c.1 0 .1 0 0 0h-.5.5m.1 0c.1 0 .1 0 0 0 .1 0 0 0 0 0M23.1 4.2c.1 0 .1 0 0 0 .1 0 .1 0 0 0m-2.2.2c.1.1.3.1.5.2l.5-.1c1.6-.2 2.5-.2 4-.1h.2l-.7-.1h-.1c-.9 0-2-.1-2.9-.1h-.9l-.6.2M35 8.2c0-.1-.1-.1-.1-.1l-.1-.1-.2-.2.1.1s-.1 0-.1-.1c-.1 0-.1 0-.2-.1l-.4-.2-.3-.3c.3.5.6 1.1.7 1.9l.1.1.2.2.2.1.3.1.3-.1h.1l-.1-.1-.2-.3-.3-.2.1-.2c0-.1 0-.3-.1-.5m-7.2-3.5l-.3-.1.3.1m.2 0c-.1 0-.1 0 0 0-.1 0-.1 0 0 0m0 0s0 .1 0 0c0 .1 0 0 0 0M28 4.8s.1 0 0 0c.1 0 0 0 0 0m-2.8-.5h-.1c.7.1 1.7.2 2.4.3l.3.1c.8.2 1.8.5 2.5.7-.7-.2-1.7-.5-2.5-.7h.1c-.4-.1-.7-.2-1.1-.2-.9-.1-1.4-.2-1.6-.2m5.2 1.1c-.1 0-.1 0-.2-.1.1.1.1.1.2.1M25 4.3c-.9 0-2.1-.1-2.9 0 .9-.1 2.1-.1 2.9 0m2.7.4c-.2 0-.5-.1-.7-.1.2 0 .5 0 .7.1m-1.4-.2c.2 0 .5 0 .7.1-.2 0-.4-.1-.7-.1M24 4.4c-.6 0-1.3.1-1.8.1.5 0 2.3-.1 1.8-.1.7-.1 1.7 0 2.4.1-.8 0-1.7-.1-2.4-.1m6.4 1s.1.1.2.1c-.1 0-.2 0-.2-.1m.2.1s.1.1.2.1c-.1 0-.1 0-.2-.1m.8.3c0 .1 0 .1 0 0-.1-.1-.2-.1-.2-.1-.1 0-.2-.1-.3-.1.1 0 .1 0 .2.1 0 0 .1 0 .1.1h.2m-3.7 1.8c1.7-1.2 3.2-1.7 4.5-1.4-.3-.1-.5-.3-.7-.3h-.1s.1 0 .1.1c-.1 0-.3-.1-.5-.1h-.1c-.1 0-.2 0-.3-.1-.2 0-.5-.1-.7-.1h-.7c-.7 0-2.9-.1-3-.1h-.1c-.2 0-.5-.1-.9-.2s-.6-.1-1.9-.1h-.1c1.3.2 1.3.2 2.1.3H26.1c.1 0 .1.1.2.1h.4v.2l-.1.1-.2.2-.2.3-.6-.1-.5-.1h-.3c1 .4 1.9.9 2.9 1.3m5.3-.7s0 .1 0 0v.2h-.1v.1l-.1.1-.1.1s-.1 0-.1-.1c-.1 0-.1-.1-.2-.1h-.1V7H32l-.2.1-.1-.2-.1-.3h-.1c-.1 0-.1-.1-.2-.1.1 0 .1-.1.2-.1s.1 0 .2-.1h.2l.1.1c.1 0 .1.1.2.1h.3c.1.1.2.1.3.2l.2.1v.1m.5.2c-.1-.2-.2-.3-.4-.4-.3-.1-.6-.3-.9-.4-1.1-.3-2.6.2-4.2 1.5h1l.4-.1h.6l.6-.1.5-.1h.2c.2 0 .5.1.7.1.4.1.8.3 1 .4l.3.3.3.3.6.4c-.2-.8-.4-1.4-.7-1.9m3.7 2.7c-1-1.1-2.1-2.1-3.4-2.8-.2-.1-.4-.2-.7-.3.1.1.3.2.4.4h.1l.2.1.1.1-.1-.1c.1 0 .1.1.2.1l.2.1c.1.1.3.2.4.2l.4.4h.1l.1.1h.1c.1 0 .1.1.2.1h.1l.4.4c0 .1 0 .1.1.2l.3.3h-.5v.3l.1.1.1.2.2.1h.1l.1.1-.3-.4c.1.1.2.1.3.2l-.1-.1v-.1l-.1-.1v-.1l.1.1c.2.1.4.3.5.4l.1.1.2-.1m.6-.1c-1.1-.9-2.3-1.8-3.6-2.5h-.1c-.1 0-.1-.1-.2-.1 1.2.7 2.3 1.6 3.2 2.6l-.1-.2v-.1h.1l-.2-.2-.2-.2h.1c.1 0 .1 0 .1.1l-.2-.2-.2-.2-.2-.1-.5-.4-.3-.2-.5-.4-.1-.1h.1l.4.2h.1l.2.1.5.3.4.3c.1.1.3.2.4.3l.1.1.7.9m.1.1l.1.1c-.6-.5-1.4-1.2-2.1-1.6-.5-.3-1.2-.8-1.7-1.1 1.4.7 2.6 1.6 3.7 2.6"/><path clip-path="url(#l)" fill="#ACBFAD" d="M32.5 15.5c0 .2-.1.3-.1.5-.1 0-.2-.1-.3-.2l-.1-.7c.2.1.4.1.6.2.1 0 .1.1.2.1-.2.1-.3.1-.3.1M43.3 20.7c-.1 0-.2-.1-.2-.1 0-.1.1-.1.2.1m0-2.2c-.1-.2-.2-.6-.3-.6-.3-.2-.3-.2-.4-.2-.3-.1-.3.1-.4.4-.2.8-.3 1.2-.6 1.8v.1c.4.2.7.3 1.3.6l-.1.1c-.1.2-.2.4-.4 1.3.4-.2.6-.2 1-.1-.1-.7-.3-1.4-.4-2.1 0-.5.1-.8.2-.9v-.1c.2-.1.2-.2.1-.3M27.9 17.6l.2-.3c-.1-.1-.2-.1-.3-.2l.1.5m2.2.6l-.6-.3.4.5v-.1s.1-.1.2-.1m2.8.2c0-.1 0-.1.1-.2-.1 0-.2-.1-.3-.2 0-.1 0-.1.1-.4l-.3-.1-.6-.9-.8.2c-.2-.1-.5-.2-.7-.3l-.1-.6.4-.3.3-.6h-.1c-.6-.1-1 0-1.4.1-.5.2-.7.3-1.7.1-.1.6-.1.6-.1 1.4l.6.3.2-.7.7-.2.3.4v1.1c.5.2.9.4 1.4.7.6-.3.9-.3 2 .2m2.6-1.2l.3-.1h-.1c-.3-.1-.4 0-.5.1-.1.1-.2.2-.3.6-.1.4-.2.6-.4.7-.3.2-.7.2-1.2 0v.1c.5.1.8.2 2.2-.3v-1.1M21.1 13.4h.5l-.1.2c-.2-.1-.3-.2-.4-.2M24.1 12.9v-.3l.1-.1c.1 0 .1.1.2.1.2.1.3.2.5.3h-.8M26.9 15.1c-.2 0-.4 0-.5-.2-.1-.1-.1-.1-.2-.4.2.2.4.3.5.3.1 0 .1 0 .2.1v.2M45.1 21.8c0 .3-.1.6-.3.2 0-.1-.1-.2-.1-.2-.1-.4-.2-.8-.3-1.3h.2c-.1 0 .1.2.5 1.3M41.3 23.7c0-.1 0-.1 0 0-.5-.4-1.1-.6-1.7-.9.1.4.2.9.3 1.3 0 .1.1.3.3.4.4.3.8-.3 1.1-.8-.1 0 0 0 0 0m.2-.5l.1-.1c-.1 0-.2 0-.3.1.1-.1.2-.1.2 0m-2.6-1.3c.4.2.7.3 1 .5-.2-.4-.3-1-.3-1.7-.4.1-.7.3-.7 1.2M25.6 36.6l.5-.2c-.1-.1-.2-.2-.3-.4-.2.3-.3.5-.5.8l.3-.2m-11.2-9.7c.3-.7.6-1.3.9-2-.3-.6-.6-1.2-1-1.7-1.5-.7-2.9-1.4-4.1-2 0 0 0 .1-.1.1.1.9.3 2.1.4 3.1.2.5.4 1.3.6 1.8l1.5.1.5.8 1.3-.2m10.5 9.7c.2-.4.4-.7.7-1.1-.3-.6-.6-1.5-.8-3.1-.1-1-.2-1.7-.5-2.3-.7-1.3-2.4-1.6-3.1-2.9-.2-.3-.3-.6-.5-.9-.9-.4-1.8-.8-2.7-1.3-1.9.7-1.9.7-2.1.6-.1 0-.1-.1-.2-.1-.2.4-.4.9-.6 1.3h.2l.3 1.6c.4.2.7.3 1.1.5v.5c1.6-.3 2.8.2 3.8.7 2.9 1.6 3.3 2.8 4.4 6.5M19 24.9c.3.1.5.3.8.4-.2-.2-.3-.2-.4-.3-.2-.1-.3-.1-.4-.1m-7.6-3.7c.7.3 1.4.7 2.2 1-.2-.2-.2-.3-.3-.3-.1-.1-.3-.2-.5-.3-.4-.1-.8-.2-1.4-.4M36.7 17.8c-.1.1-.3.1-.4.2l-.1-.5.1-.1.4.4c.1 0 0 0 0 0M45 32.6c.3-1 .4-2.1.6-3.1h-.1-.1c0 .1 0 .1-.1.6 0 0-.4 2.8-.5 2.9l-.1.1c0 .2-.1.3-.1.5l-.2.5-.2.5.1-.1.5-1.4.2-.5m.7-5.4v-1.6s-.1-.1-.3-.1c.1.9.1 1 .2 1.1.1.2.1.2.1.6m0 1.8c0-.8.1-1.9.1-2.7v-.6c0 .8.1 1.6 0 2.4-.1.1-.1.4-.1.9m-.6 3.3l.1-.5c.1-.6.3-1.4.3-2v-.4c0 1.1-.2 2-.4 2.9m.5-7.2c0-.4-.1-.7-.1-1.1v.1s-.1 0-.1.8c.1.2.2.2.2.2m.1 0l-.2-1.6v.2c.1.6.1 1 .2 1.4M19.8 41.9l.5-.2c-.2-.4-.2-.4-.3-.5-.9-.9-.9-.9-1-1.1 0-.3.2-.6.4-.9.3-.4.4-.5.5-.9-1.5-.7-3-1.4-4.5-2.2-.3.4-.8 1-1.1 1.5l-.3.9c.1.5.2 1.2.3 1.8-.1.4-.2 1-.3 1.5l.1 1-.1.9.2.6c.1 0 .1.1.2.1h.4c.4.1.9.2 1.3.3.5-.2 1.1-.5 1.6-.7l.6-.6h.9c.2-.6.3-1.2.6-1.5m-4.2-6.1c1.5.7 3 1.4 4.4 2.1v-.3c0-.6-.1-1.2-.1-1.8 0-.7.3-1.4.2-2.2-.1-.4-.2-.7-.9-1-.1 0-.2-.1-.3-.1-.3.8-.9 1.6-3.3 2.1.1.4.1.9 0 1.2M41 20.6c-.1-.1-.3-.2-.4-.2.1-.1.1-.3.1-.5.1.3.2.5.3.7M37.7 36.9c.4-.6.7-1.3 1.1-2-.1-.1-.2-.1-.3-.2-.3.7-.5 1.6-.8 2.2m1.2-.7l.6-.9c-.1 0-.2-.1-.3-.1-.3.5-.5 1-.8 1.5l.5-.5m1.8-2.9c.4-1.1.4-1.9.1-2.4-.4 1.2-.9 2.5-1.4 3.7.1.1.2.1.3.2l.5-.9.4-.3c0-.1 0-.2.1-.3M39 34.4c.6-1.3 1.1-2.5 1.5-3.8-.1 0-.1-.1-.2-.1-.3-.1-.5-.1-.8 0-.2.6-.4 1.2-.7 1.8-.1.6-.2 1.3-.3 1.8.2.2.4.3.5.3M19.4 14.2c-.2 0-.3.1-.7.3-.6.3-1.2.5-1.8.4.1-.2.2-.3.4-.5.5-.1 1.3-.3 1.8-.5l.6.3h-.3M21.3 14.5l.1-.1-.4-.2h-.3c.1.1.3.2.6.3m2.3.7s.1 0 0 0c.1-.1 0-.1 0 0l-1-.3-.7-.3c0 .1-.1.1-.1.2.8.3 1.2.4 1.8.4M40.5 19.4c-.2-.3-.7-.9-1.2-1.4h.3c.3.2.6.5.9 1.4 0 .1 0 0 0 0"/><path clip-path="url(#l)" fill="#ACBFAD" d="M40.1 40.7l-.3.9 1-1.4.5-1.2.3-.7.5-.9.4-.7c-.1 0-.1-.1-.2-.1-.3.7-.7 1.3-1.1 2l-.5 1.1-.6 1m2.4-2.6l.5-.6.2-.5c-.1-.1-.3-.1-.5-.3l-.3 1-.5 1.1.6-.7m.3-1.9c.3.1.5.2.6.3l.4-.9.3-1.3.2-.6.4-.8c-.2-1 .1-2.1-.4-3.1-.2-.4-.3-.5-.4-.5-.1 0-.1 0-.3.2-.2.3-.4.7-.6 1-.3.5-.8.9-1.1 1.4-.2.3-.3.5-.3.7l.3-.3c.1 0 .1.1.2.1.1-.3.2-.5.2-.8l.5.1.4-.3-.1 1-.1 1.2-.5 1.1h.3l.3-.5-.6 1.7c.1.2.2.3.3.3M42.4 38.9l.1-.1-.1.1zM38.5 43.7c1-.9 1.9-2 2.8-3.1l-.3.2-.4.5-.4.3c-.2.2-.4.4-.5.6l-.6.7-.4.5-.1.1-.1.2m.8-.8l.4-.4 1.1-1.3.2-.2v-.1l.6-.8.2-.3v-.1l-.1.1c-.8 1.2-1.8 2.3-2.8 3.3l.4-.2M36.6 45.3l.4-.3c-.1.1-.2.2-.4.3m.1-.1c.1-.1.2-.2.3-.2l.3-.3.3-.4.2-.3.6-.6h.1l.2-.2.4-.5-.4.3.4-.5.6-.8v-.4l.2-.7.4-.7s-.1 0-.1-.1v-.2h-.1l-.6 1.1-.4.7-.3.7-.7 1-.1.4-.8.9-.2.3-.2.3-.1.2M25.6 49.7l1.5-.2c.7-.1 1.5-.3 2.2-.5h.1c.1 0 .1 0 .2-.1-1.3.4-2.6.7-4 .8m2.9-.5c.5-.1.9-.2 1.4-.4.1 0 .1 0 .2-.1-.2.1-.4.1-.6.2l-1 .3M27.9 4.7h.1c-.1 0-.2 0-.3-.1l.2.1M13.4 6.6c.2-.2.5-.4.8-.6l-.2.2-.3.4h-.3M25.2 4.3H25M14.9 5.7l.2-.1c-.1.1-.1.1-.2.1M3 35.3l.1-.7c-.8-2.6-.8-2.6-.9-3.8 0-.4 0-.6.1-.9-.3-.1-.5-.2-.7-.3.1 2 1 4.9 1.3 5.8 0 0 .1 0 .1-.1m-.3-6.6c.1-.8-.1-2.6-.2-2.7v.1c-.2.6-.5 1.1-.7 1.6-.1.5-.2.9-.2 1.4.3.1.6.3.9.4.2-.3.2-.5.2-.8M4.6 40.4c-.1-.2-.3-.4-.4-.6-.1 0-.1-.1-.2-.1l.3.4c0 .1.4.6 1.2 1.7-.1-.1-.5-.5-1-1.3 1.4 2 3.2 3.7 5.2 5.2l.2.1.9.6c-.6-.4-1.3-.9-1.9-1.3-.4-.4-1-.8-1.4-1.2l-.9-.9-.6-.6c-.3-.3-.6-.7-.8-1l.1.1-.4-.6-.3-.5m-1.1-2.3l-.3-.8c-.7-.6-2.1-4-2.2-4.3v.1c.8 3.2 2.2 5.4 2.6 6.1.1 0 .2.1.4.2-.1-.4-.4-.9-.5-1.3M.5 31.2s0-.1-.2-.7c0-.2-.1-.4-.1-.7.1.5.1.9.2 1.4 0 .2.1.2.1.2v-.2M22.1 44.3l-.8.3-1.1-.3c.4-.3.9-.7 1.2-1 .6-.4 1.4-1 2-1.4h1.7c-.2.4-.5.9-.8 1.2-.6.3-1.5.8-2.2 1.2M38.1 38.2l-.2-.6 1.1-.9-.3 1.2"/><path clip-path="url(#l)" fill="#D1C29C" d="M15.6 5.9l1.2-.5c-.4.2-1 .4-1.4.7l.2-.2M18.9 4.6l.3-.1M18.7 4.7l.3-.1h.1l-.2.2c-.5.1-.9.2-1.3.4.3-.2.8-.4 1.1-.5M19 4.6h.1-.1M25.7 4.3h-.5c.5 0 1 .1 1.5.2-.3-.1-.7-.1-1-.2"/><path clip-path="url(#l)" fill="#D1C29C" d="M22 4.3h3.7c-.5-.1-.9-.1-1.3-.1-.6 0-1.3-.1-2.4.1-.2-.1-.5-.1-.7 0h-.2c-.1 0-.3 0-.4.1l1.3-.1M14.5 6.5c.2-.1.3-.2.5-.2l.3-.2.3-.2 1.2-.5.8-.3c.3-.1.8-.3 1.1-.5h.3H18.7l.2-.1 1.3-.2c-1.6.2-3.2.6-4.8 1.1.3-.1.5-.2.6-.2-.1 0-.9.4-.9.4h.2c.3 0 .6-.1.9-.1l-1.5.5c-.1.2-.1.4-.2.5"/><path clip-path="url(#l)" fill="#D1C29C" d="M18.9 4.6h-.2.2l.2-.1c0 .1 0 .1-.2.1.1 0 .1 0 0 0M19.1 4.6s.1-.1 0 0c.3-.1.6-.1.8-.2l-.8.2M20.1 14.3l-.4-.2c.3 0 .6 0 .9.1l-.5.1M44.7 33.1l-.1-.1c0-.1.1-.1.1-.2V33.1M27.7 15.5l.1-.3h.1c0 .2-.1.4-.1.5-.1 0-.1-.1-.1-.2"/><path clip-path="url(#l)" fill="#D1C29C" d="M15.3 25c.2-.3.3-.7.5-1-.5-.2-1-.5-1.5-.7.3.3.3.3 1 1.7m2.6 0c-.5-.3-1-.6-1.6-.8-.2.4-.4.9-.6 1.3.1.1.2.1.2.1.1 0 .3.1.6 0 .5-.1.9-.4 1.4-.6m7.6 10.5c1-1.7 2-3.6 2.9-5.5-2.5-1.2-5.2-2.5-7.8-3.7.2.3.4.6.5.9.5.8 1 1.2 1.7 1.7s1.2.9 1.3 1.2c.3.7.4 1.3.5 2.3.3 1.7.6 2.5.9 3.1m5.5-1.9l1-1.3c-.7-.1-1.6-.3-2.2-.4l-.3-.6.3-.6c-.3-.1-.5-.2-.8-.4-1 2.1-2.1 4-3.1 5.8.1.1.2.2.3.4.7-.3 1.5-.6 2.2-.9.7-.6 1.9-1.3 2.6-2m-1.8-3.9c.1.1.2.1.3.2l-.2-.6c0 .2 0 .3-.1.4m16.4-.2l.1-.5c0-.3 0-.6.1-.9-.1.4-.1.9-.2 1.4M16 23.4c1.6-3.3 3.4-6.4 5.2-8.9h-.1c-.5-.2-.5-.2-1.1-.2l-.4-.2h-.3c-.5.1-.9.5-1.4.6-.5.1-.7.1-1.1.1-.1.1-.2.3-.3.4l-.8.3c-.6.3-1.5.6-2.1.9-.5.3-1.1.8-1.5 1.1l-.3 1.5-1.2 1.4c-.1.1-.1.3-.2.4.3.2.6.3 1 .5.8.2 1.2.3 1.6.5.2.1.3.2.4.3l.2.2c.7.3 1.6.7 2.4 1.1m13.8-5h.6c-.1-.1-.3-.1-.4-.2-.1 0-.2 0-.3.1.1 0 .1.1.1.1m.3 7.9c1-2.4 1.9-4.7 2.5-6.9-.7-.3-1.4-.6-2.1-1l.1.4.3.2h.5l.2.3-.5.5-.5 1h-.8l-.4-.4-.8-.1-1.1-.8-.4-.7-.9-.4-.3.6-.3.3-.9-1-.1-.7-1-1.2.3-.2.1-.7v-.2c-.1 0-.2-.1-.3-.1-.7 0-1 0-2-.4-1.8 2.6-3.6 5.6-5.2 9 .8.4 1.6.8 2.5 1.2.2 0 .3.1.5.2.1.1.2.1.3.2 3.1 1.5 6.1 2.9 8.9 4.3.2-.4.3-.7.5-1.1l.2-1-.2-.6.5-1.4-.3-.5c.1-.7.2-1.5.3-2.2h.4c0 .6.1 1.3.1 1.9l.3.5-.4 1m10.4 4.3c.7-2.3 1.1-4.6 1.2-6.9-.1-.1-.2-.1-.3-.2-.4.8-.8 1.1-1.1 1-.2-.1-.2-.1-.6-1.8-.9-.4-2-.9-3-1.4v.1c-.2-.1-.5-.2-.7-.3l-.1-.1c-.9-.4-1.8-.8-2.7-1.3-.7 2.4-1.6 5-2.8 7.7 0 .9-.1 2-.2 2.9.2.1.5.2.7.3.7.1 1.6.2 2.2.3l.3-.6.9.2c.5-.4 1.1-.8 1.6-1.2l.5-.7-.5-1 .2-1-1 .4-.6-.2.1-.9-.3-1.1-.1-.9.6-.2.2 1.4.6 1 .8-.2-.1.8c.7.4 1.6 1 2.3 1.4.1.8.2 1.9.3 2.8l.6-.4c0 .1 0 .1-.1.2.3-.2.6-.3 1.1-.1-.1 0-.1 0 0 0m5.1-1.1c.1-.8.1-1.5.1-2.3 0-.6-.2-1.1-.3-1.7-.2-.1-.4-.2-.7-.3-.6-.3-1.5-.7-2.7-1.3 0 .1-.1.2-.1.4v-.4c-.1 2.3-.5 4.7-1.2 7 .5.8.1 2-.1 2.4v.1c0 .1 0 .1-.1.2.3-.2.7-.6.9-.8 0 0 2.1-3.5 2.4-3.3.2.2.4.6.5.8.2.9.2 1.8.3 2.8 0-.1.1-.1.1-.2V33.2c.1 0 .1-.1.2-.4.2-.9.2-.9.5-3.2 0-.2.1-.1.2-.1-.1 0-.1 0 0 0m-3.9-6.3V23h-.1l-.1.1c.1.1.1.1.2.1m.3.2v-.5.5M32.8 19c.1-.2.1-.4.2-.6h-.1c-1-.4-1.3-.5-2.1-.3.7.3 1.3.6 2 .9m2.6 1.2l.4-.9-.2-1.1h-.1c-1.3.5-1.6.4-2.1.2-.1.2-.1.4-.2.6.7.5 1.5.9 2.2 1.2m10.1 3.4l-.1-.8v-.3-.1c.1.4.2.9.2 1.3-.1 0-.1 0-.1-.1M40.7 20c0-.1 0-.1-.2-.5v-.1c-.2-.4-.7-1-1.2-1.4h-.1c-.9.5-1.1.5-1.9.1-.2-.1-.4-.2-.6-.4h-.1c-.1.1-.3.1-.4.2 0 .1.1.3.1.5l.2 1-.2.2.2.8v.3c.8.4 1.6.8 2.3 1.1 0-1 .3-1.1.7-1.2v-.2c.1-.3.2-.6.7-.3.1 0 .2.1.3.2.2-.1.2-.2.2-.3m4.8 4l-.3-1.8c-.1-.2-.1-.4-.2-.5 0 .3-.1.5-.2.4l-.2-.2c-.2-.5-.2-1-.4-1.5h-.1c-.2-.1-.2-.1-.7-1.7-.2.3-.2.7-.2.9 0 .7.3 1.4.4 2.1-.4-.1-.7-.1-1 .1v.2c-.1.5-.2.9-.3 1.4 1.1.5 1.9.9 2.5 1.2.3.1.5.3.7.3 0-.8 0-.8.1-.9-.1.1-.1.1-.1 0"/><path clip-path="url(#l)" fill="#D1C29C" d="M25.7 16.3l.1-.1c-.2-.1-.4-.2-.5-.3l.2.2.2.2m1-1l.5.3-.3-.5c-.1 0-.3 0-.4-.1-.2-.1-.2-.2-.3-.3 0-.1 0-.1-.1-.2-.2-.1-.2-.2-.3-.3.2.3.4.7.6 1l-.1.4h-.5l-.6-.3c.4.2.7.3 1.1.5l.4-.1v-.4M3 31l.1-.6c-.3-.1-.6-.3-.8-.4-.1.3-.1.7 0 1.4.1.9.1.9.9 3.3-.2-1.2-.3-2.8-.2-3.7m.2-1.1c0-.9.1-1.7.2-2.6l-.2-.2c-.2-.3-.5-.7-.7-1v.2c.3 2.2.2 2.8-.1 3.3.3.1.6.2.8.3M4.1 39.8l-.1-.1c-.1-.1-.2-.1-.2-.1l.5.8s0 .1.1.1c.6.9 1 1.3 1 1.3s0-.1-.1-.1c-1.1-1.4-1.2-1.6-1.2-1.6.2-.1.1-.2 0-.3m-.6-.6s.1 0 .2.1c-.9-1.4-1.1-1.8-1.6-2.9-.5-1.1-.8-2.3-1.2-3.4-.2-.6-.3-.9-.5-1.8v.2c0-.1 0-.1-.1-.2v.1l.1.5c.6 2.2.6 2.3 1 3.4.3.6.6 1.5.9 2.2l.8 1.5.4.3M29.9 48.8l1.5-.6-.2.1-.6.2-.5.2c-.1 0-.1 0-.2.1m-.5.1h-.1c.4-.1.9-.3 1.2-.4L32 48l-.2.1c-.7.3-1.5.6-2.2.8h-.2"/><path clip-path="url(#l)" fill="#7EA885" d="M14.3 5.9l.3-.2h.3c-.3.1-.5.2-.7.3 0 0 .1 0 .1-.1M25.7 14c-.3-.4-.5-.8-.8-1.2h.5l.3.2-.1.6.1.4M43.3 20.7c-.1 0-.2-.1-.2-.1h.1l.1.1"/><path clip-path="url(#l)" fill="#7EA885" d="M19.3 13.6l.8-.1c-.3-.1-.6-.3-.9-.4l.2.3-.1.2m.8-.2c.1 0 .1.1.2.1-.1 0-.2-.1-.2-.1M33 18.2c0-.1.1-.3.1-.4-.1 0-.2-.1-.3-.1 0 .2-.1.3-.1.4.1 0 .2.1.3.1m10 2.4c0-.1 0-.1 0 0 0-.1 0-.1 0 0-.2-.2-.5-.3-.7-.4-.2-.1-.4-.2-.6-.2.1.8.2 1.7.2 2.5.2-.3.4-.4.6-.6v-.1c.2-.6.4-1.1.5-1.2m-20.5-7.8c.8-1 1.6-1.9 2.3-2.7h-.9l-.3.1-.6-.3-.3.1.4.5-.1.6-.7.5H22c-.3-.2-.8-.6-1.1-.8l-.2-.2-.5.2-.3.6-.6.6-.3.4c.6.3 1.3.6 2 1h.5l.3-.6h.7m7.2-3h.6v-.4l.1-.1c-.2-.1-.4-.2-.5-.3-.4 0-.6-.1-1.1-.3-.4.2-.6.3-.9.3l.1.1h.8v.4l-.1.4-.5.1.8.2h.7v-.4m3.7 6.9c.5-2.1.8-4.1.9-5.7-1-.5-2-1-3.1-1.5v.3l.6.3.6.3.1.3-.6-.2-.7-.3-.2.2.3.6H31l-.2-.4-.3.1-.1.5-.3-.2-.2.2-.3-.3-.9-.1-.3.2.1-.4-.6-.2v-.2l.5-.6h-.5l-.4.5-.4.2-.5-.2h-.5l-.5.2h-.2c-.7.8-1.5 1.7-2.3 2.7l.3-.1.2-.2.4.1.1-.1c.1 0 .2.1.3.1.6.3.6.3.9.3l.3.2-.1.6.2.3.3.2c.1.1.1.2.2.3.1.1.2.2.5.3 0 0 .1 0 .1.1l-.3-.6-.1-.6v-.7h.4l.2.9.7 1.2h.1v.1c1.1.2 2.1-.5 3.2-.2.1-.1.1-.2.2-.2l.6.3v.2c.2.1.4.1.6.2.1 0 .1.1.2.1.3 0 .7-.1 1-.2l-.2.4-.3.2.3.5m8.3 6.2c0-3.3-.6-6.5-1.9-9.2-1.4-.7-3.2-1.5-5.3-2.5 0 1.7-.3 3.8-.8 6.1l.2.3c0 .2-.1.3-.1.5-.1 0-.2-.1-.3-.1 0 .1-.1.3-.1.4.2.1.8.3 1.2 0 .5-.3.3-1 .7-1.3.1-.1.3-.1.5 0l.6-.1c.1 0 .2.1.2.1l-.4.3c.2.2.2.2.5.4h.1c1-.5 1.2-.5 1.8-.2.2.1.4.3.7.5h.2l.2.1c.4.4.5.8.9 1.7.2.4.2.6.3.8-.1-.1-.2-.2-.4-.2 0 0 0 .1-.1.1-.2.2-.5.3-.9.3 0 .7.1 1.2.3 1.6.5.2 1 .5 1.4.7.1 0 .2 0 .3-.1l.2-.2c-.1.1 0 0 0 0m3.4-1.1c-.6-2.4-1.5-4.8-2.9-6.9l-.6-.3c-.4-.2-1-.5-1.7-.8.9 1.8 1.5 3.9 1.8 6 .3-.7.3-1.4.6-2.1 0-.1.1-.2.4-.1.3.1.3.2.3.2.1.2.2.4.3.9h.1c.1.1.3.2.8 1.7h.1c.3.2.6.8.8 1.4 0-.1 0-.1 0 0m.2.6c-.2-.9-.6-2.1-.8-3-.4-1-1-2.3-1.4-3.2l-.8-1.3c1.4 2.2 2.4 4.6 2.9 7.2 0 .1 0 .2.1.3m-11-11.6c0-.5 0-1-.1-1.4l-.6-.5-.3-.3h-.1c-.2 0-.5-.2-.7-.2-.2 0-.3.1-.5.1h-.3c-.4 0-.8.1-1.2.1l-.3.3c.2 0 .3.1.5.1h.4l.4-.1.2-.2.4.1V9l-.6.1h-.2l-.1.1c1.1.6 2.1 1.1 3.1 1.6m5.3 2.5c-.5-1.1-1.2-2.1-1.9-3h-.1l-.3-.3c-.2-.1-.4-.3-.5-.4v.2l.2.4s-.1 0-.1-.1l.7.9c-.3-.2-.6-.5-.9-.7l-.2-.1.2.4c-.3-.1-.6-.3-.9-.4l-.3.1-.4-.3-.3-.1-.3-.4c.1.4.1.8.1 1.3 1.9 1 3.7 1.9 5 2.5m2.3 1.1l-.8-1.2c-.7-.8-1.6-1.9-2.4-2.7l-.1-.1-.1-.1c1.3 1.3 2.5 2.7 3.4 4.1m0 0c-1-1.5-2.2-2.9-3.5-4.2l-.2-.2c-.3-.2-.7-.6-1-.8-.1 0-.2-.1-.4-.2l.6.5-.3-.3-.2-.2.3.2.2.2c-.1 0-.1-.1-.2-.1l.4.4h-.1l.1.2.1.2c.8.9 1.5 2 2.1 3.1.7.3 1.2.6 1.6.8.3.3.5.4.5.4M25.2 9.7l-.2.1-.9-.1-.5-.1v-.2h-.4l.6-.1.3-.1H24l-.2-.2h.4l.1-.2.2.1h.3l.1-.3v-.3l-.2-.2V8l.4-.2h.6c.1 0 .1.1.2.1l-.4.1c.2.1.3.1.5.2l-.2.1-.4.1h.1v.3l-.1.1v.5l.1.2c-.1.1-.2.2-.3.2"/><path clip-path="url(#l)" fill="#7EA885" d="M24.3 8.5h-.2l-.5.3h-.8c-.1 0-.1-.1-.2-.1l.2-.2.4-.2v-.1h.3s.1 0 .1.1l.4-.1c.1 0 .1.1.2.1v.2h.1M25.6 6.2l-.6-.1c-.1 0-.2-.1-.3-.1v-.1l.3-.2h-.1l.7.1c.1 0 .2.1.3.1l.3.1v.1l-.2.2-.4-.1M34.8 7.8c-.1 0-.1-.1-.2-.1 0-.1-.1-.1 0-.1h.1l.1.2M36 8.7h-.3v.6l.3.3c0 .1.1.1.1.2-.2-.1-.4-.3-.6-.4l-.2-.3v-.8l.2.1c.1 0 .2.1.2.1.1.1.2.2.3.2M21.5 4.6l.7-.1c-.3.1-.5.1-.7.1M29.5 5.5h-.3c.2 0 .4 0 .6.1-.1-.1-.2-.1-.3-.1M12.3 6.9c.3-.1.8-.2 1.1-.3.1-.1.1-.1.9-.7l.3-.2h.3l.2-.1s-.1 0-.9.3c-1.1.4-2.1 1-3.2 1.6l.3-.2c.4-.2 1-.5 1.5-.7l.6-.2-1.1.5M2.8 35.5l.1-.1c-.3-.9-1.2-3.7-1.3-5.8-.9-.5-1.5-.7-1.5-.7 0 .3.1.6.1.9 0 .3 0 .3.3 1.4v-.1c.1.1.2.7.3 1.3.4 1.8 1.9 4.6 2.3 5v-.2c-.1-.6-.2-1.2-.3-1.7m-.4-9.1c.1-.1.1-.3.2-.4-.1-.2-.3-.5-.4-.7-.2-.5-.4-1.3-.4-1.8.1-.6.2-1.4.3-2-.1-.5-.2-1-.3-1.4l.2-1.2c0-.2-.1-.5-.1-.8l.2-.6-.1.3C.4 21.2-.2 24.9 0 28.4c0 0 .6.3 1.5.7.2-1 .2-1 .9-2.7M26.5 5.4h.1M15 6.3l.3-.2-.1.1s-.1.1-.2.1"/><path clip-path="url(#l)" fill="#7EA885" d="M15.1 5.6l.2-.1c.1 0 .2-.1.4-.2.1 0 .2-.1.2-.1s-.1 0-.6.2c-.4.1-.8.3-1.2.4.5-.1.9-.2 1-.2M25.7 14v.1l.1.1M42 23.9v0m-.3-.9s-.1 0 0 0c-.1 0-.1 0 0 0-.1 0 0 0 0 0m.8-1s0-.1 0 0c0-.1 0-.1 0 0-.2.1-.4.3-.6.5v.9c.1 0 .1.1.2.1.2-.5.3-1 .4-1.5"/><path clip-path="url(#l)" fill="#7EA885" d="M26.1 14.5c-.3-.2-.4-.3-.4-.4l.3.2c.1 0 .1.1.1.2.1 0 .1 0 0 0M27.8 15.2V15l.1.1v.1M39.3 18.1c-.3.1-.5.3-.9.4-.4 0-.8-.1-1-.2-.2-.1-.4-.2-.7-.4 1.1-.5 1.2-.6 1.8-.3.4 0 .6.2.8.5 0-.1 0 0 0 0M45.3 22.6v-.1c0-.1-.1-.3-.1-.4 0 .1 0 .2.1.5 0-.1 0-.1 0 0m-.1-.3c0-.2-.1-.3-.1-.5 0 .1 0 .2.1.2v.3M44.3 20.5h-.1c-.2-.1-.2-.1-.7-1.7h.1c.2.1.4.7.7 1.7M40.6 20.4c-.2.3-.6.3-.9.4 0-.4.1-.8.7-.6l.2.2M.9 32.4c0 .2.1.4.1.6v-.1c-.2-.6-.3-1-.5-1.8V31c.1.1.2.7.4 1.4M22.4 41.2l.2-.1.2-.5c-.1.2-.2.4-.4.6m-.8.3c.4-.5.8-1.1 1.2-1.7-.9-.4-1.9-.9-2.9-1.4-.1.3-.2.5-.5.9s-.4.7-.4 1c0 .2.1.3.9 1 .2.1.2.1.4.5.2-.1.6-.2.8-.3h.5m1.5-2.1c.6-.9 1.2-1.8 1.8-2.8-1-3.5-1.6-5.2-4.6-6.6-1.7-.8-2.8-.7-3.5-.6v.6c-.3.5-.8 1.1-1.1 1.5.1.6.2 1.3.3 1.9l-.1 1.1c2.7-.5 3.1-1.6 3.3-2.1.1 0 .2.1.2.1.3.2.8.4.9 1v.3c0 .6-.2 1.1-.2 1.7 0 .8.1 1.5 0 2.3 1 .7 2 1.1 3 1.6"/><path clip-path="url(#l)" fill="#ACBFAD" d="M27.8 4.7h-.1l-.2-.1M27.9 4.7"/><path clip-path="url(#l)" fill="#F3F6F4" d="M27.8 4.7c.7.2 1.7.5 2.5.7-.8-.3-1.5-.5-2.3-.6h.1c-.1-.1-.2-.1-.3-.1M22.9 4.2h1.5c-.8 0-1.5-.1-2.3 0h.8M21.7 5.1h.1c-.1 0-.2-.1-.3-.1l-.7.1-.1-.2.3-.1h-.1c-.8.2-.8.2-.9.2 0 .2.8.2 1.7.1m1.4 0c.3-.1.6-.1.9-.1l-.8-.1L22 5c.1 0 .2.1.3.2.4-.1.6-.1.8-.1m3.3.2h.1c-.2-.1-.5-.2-.8-.3-.4 0-.9-.1-1.4-.1-.2 0-.4 0-.5.1h1.3c.5.1.9.3 1.3.3"/><path clip-path="url(#l)" fill="#ACBFAD" d="M29.1 5.5c-.8-.1-1.7 0-2.5-.1h1c.5 0 1.1.1 1.6.1h-.1M22.4 4.5c2.4-.3 4.2-.1 5.1.1l.3.1c-.2 0-.5-.1-.7-.1-.2 0-.5-.1-.7-.1-.7-.1-1.7-.1-2.4-.1-.6 0-1.3.1-1.8.1h.2"/><path clip-path="url(#l)" fill="#F3F6F4" d="M29.8 9s.1 0 0 0c-.5-.3-1.1-.6-1.7-.8H28l-.2.3v.4l.1.1c.3 0 .5-.1.9-.3.4.2.7.3 1 .3m3.4-.5h.1l-.3-.2c-.3-.1-.6-.3-.9-.4-.2 0-.5-.1-.8-.1l-.5.2H29.5l-.5.1h-.4c.5.3 1.1.5 1.6.8.1-.1.2-.1.2-.3h1.5c.2 0 .3-.1.5-.1.3-.1.6 0 .8 0"/><path clip-path="url(#l)" fill="#ACBFAD" d="M32.9 6.9h-.2c-.1 0-.2-.1-.2-.1l.1.2h.1l-.1.1s-.1 0-.1-.1l-.1-.1h-.1s-.1 0-.1-.1H32l-.1-.3s-.1 0-.1-.1c.1 0 .1 0 .2-.1.1.1.2.1.3.2.1 0 .2 0 .3.1 0 .1.2.2.3.3M34.2 7.5s-.1 0-.1-.1l-.3-.2h.1l.2.2c.1 0 .1.1.1.1"/><path clip-path="url(#l)" fill="#ACBFAD" d="M34.7 7.7c-.1-.1-.1 0-.1 0-.1-.1-.1-.1.1 0-.2 0-.4-.1-.5-.2l-.1-.1c.1 0 .2.1.2.1l.4.2M36.5 8.8l-.4-.3H36l-.2-.1-.5-.4.4.2.5.4.3.2"/><path clip-path="url(#l)" fill="#F3F6F4" d="M20.9 5.1l.7-.1c-.2-.1-.3-.2-.5-.2l-.3.1.1.2M24 5c2.3-.2 4.6 0 6.8.7-.1 0-.1-.1-.2-.1s-.2-.1-.2-.1c-.1 0-.1 0-.2-.1-.7-.2-1.7-.5-2.5-.7-.2 0-.5-.1-.7-.1-.2 0-.5-.1-.7-.1-.7-.1-1.7-.1-2.4-.1-.6 0-1.3.1-1.8.1H22c-.2 0-.4.1-.6.1l.6.3 1.2-.1.8.2m5.8.6c.3 0 .5.1.7.1.1 0 .3 0 .5.1-.1 0-.1-.1-.2-.1-2.1-.7-4.2-.9-6.4-.7.4 0 1 .1 1.4.1.2.1.5.2.8.3h1.1c.5 0 1.1.1 1.6.1h.1s.2 0 .4.1"/><path clip-path="url(#l)" fill="#1572A0" d="M12.2 47.2c-.1-.1-.3-.1-.4-.2-.2-.1-.3-.1-.3-.1.2.1.3.2.5.3 0-.1.1 0 .2 0m.5.3l-.1-.1c-.3-.1-.5-.3-.7-.3.1.1.2.1.4.2l.4.2m.6.3h.1c-.3-.1-.6-.3-.9-.4l.1.1c.3.1.5.2.7.3m.5.2c.1.1.3.1.4.1-.2-.1-.4-.2-.7-.3h-.2c.2.1.4.1.5.2m.3.1c.2.1.3.1.5.2h-.1c-.1 0-.1-.1-.2-.1s-.3-.1-.4-.1c0-.1.1 0 .2 0-.1 0 0 0 0 0m0 0l.5.2c-.2 0-.4-.1-.5-.2m-9.8-7.7l-.5-.8c.2.3.3.5.5.8m.3-.2l-.1-.3c-.1 0-.2-.1-.3-.1.1.2.3.4.4.6l.2.4.4.6-.1-.1c.3.3.6.7.8 1l.7.7.8.8c.4.4 1 .9 1.4 1.2.6.4 1.3.9 1.9 1.3l-.9-.6-.2-.1.9.6.7.4.2.1-1-.6c-.5-.3-1.1-.8-1.6-1.2l-1.2-1-.2-.1-.2-.1-.5-.5-.4-.4-.1-.2c-.1-.1-.2-.2-.2-.3l-.3-.3-.1-.2-.4-.6-.2-.3-.1-.2c-.1-.1-.1-.2-.2-.3-.1-.1-.1-.2-.2-.3 0 .1 0 .1.1.1-.1 0 0 0 0 0m-3.1-5C.8 33 .7 33 .5 31.8l-.1-.5c.1.3.1.6.2.8v.1c.2.6.4 1.4.6 2 .6 1.7 1.4 3.4 2.3 5l-.2-.3-.8-1.5c-.3-.7-.7-1.5-1-2.2m1.8-2.8c-.1-.6-.1-1.3-.1-1.9h-.1L3 31c0 2 0 2.2.2 3.6l-.2.7-.1.1-.1.1c.1.5.2 1.1.4 1.6v.2l.3.8c.2.4.4 1 .6 1.4 0 0 .1 0 .2.1l-.5-1-.3-.8-.1-.2v-.2L3 36.1h.1l.2-.1v-.1l.1-.7V34.9c0-.8-.1-1.8-.1-2.5m.2-1.7v-.2.2m.5-3c0-.2 0-.3.1-.5l-.2-.3-.1-.1c-.2 1.1-.3 2.2-.3 3.2.1 0 .1 0 .2.1l.2-.6v-.1-.2c0-.4.1-1 .1-1.5m-.6-.4c0-.3.1-.5.1-.8l-.6-.9-.1-1.2-.3.6-.1-.2c-.1-.5-.2-1.1-.3-1.6.1-.6.2-1.3.3-1.8V20.8c-.1-.4-.2-.9-.2-1.2l.2-1.1V18.2c0-.2-.1-.5-.1-.7-.1 0-.1-.1-.1-.1-.1.1-.2.2-.2.4l.1-.2-.2.6c0 .2 0 .5.1.8l-.2 1.2c.1.3.1.8.2 1.2-.1.6-.2 1.4-.3 2 .2.6.3 1.4.4 1.9l.4.7v.1c.2.3.5.7.7 1l.2.2m-1-10.4l.1-.2c-.1.1-.1.2-.1.2m10.2-9.6c0 .2 0 .4.1.5.3-.3.8-.7 1.1-1v.3c.3-.2.6-.3.9-.5.2-.1.3-.2.5-.2.1 0 .2-.1.3-.1.1 0 .2-.1.3-.1l.1-.2 1.3-.6.8-.3 1.2-.4.8-.1.6-.1h-.7l.4-.1c-.1 0-.1-.1-.2-.1l-1.3.2.2-.1.7-.1-.8.2h.6c-.2.1-.6.1-.8.2l-1.2.4-.8.3c-.4.2-1 .4-1.4.7l-.1.1c-.1 0-.2.1-.3.1-.2.1-.3.2-.5.2.1-.2.1-.4.2-.5l1.4-.5c-.3 0-.6.1-.9.1h-.2l-1.8 1.2c0-.2 0-.2.1-.3-.3.1-.8.2-1.1.3l1.1-.5-.6.2c-.4.2-1 .5-1.5.7l-.1.3c-.3.2-.7.4-1 .6l1-.6.3-.2-.4.2c.3-.1.6-.3.8-.3.3 0 .7-.2 1-.2-.1.1-.1.1-.1.3m9.4-2h.1c-.1 0-.2-.1-.3-.1-.5 0-1.1.1-1.4 0-.5-.1-.3-.2-.3-.2h.1c.3-.1.5-.1.7-.2-.1 0-.1-.1-.2-.1-.6.1-1 .2-1.3.3h.1c-.5.6 2.5.3 2.5.3m.6-.1c.2 0 .3-.1.5-.1h-.6l.1.1m-1.9-.9h.7c-.3-.1-.5 0-.7 0m.6.3s.1 0 .1.1l.7-.1h.2c2.3-.3 4.1-.1 5.1.1-.7-.1-1.6-.3-2.4-.3h-.1c-.9 0-2.1-.1-2.9 0h-.1l-1.2.1h1.6c.9 0 2 0 2.9.1h.1l.7.1h-.2c-1.7-.5-2.7-.4-4.5-.1m9.5 1c.2.1.4.1.6.2 0 0-.1 0-.1-.1-.1 0-.1-.1-.1-.1-.1 0-.1 0-.2-.1-.2-.1-.5-.2-.7-.3.1 0 .1 0 .2.1 0 0 .1 0 .2.1 0 .2 0 .2.1.2m-5.2.6l-.6-.1c-.1 0-.2-.1-.3-.1v-.1l.3-.2h-.1l.7.1c.1 0 .2.1.3.1l.3.1v.1l-.2.2-.4-.1m.2.2l.6.1.2-.3.2-.2v-.2h-.4c-.1 0-.1-.1-.2-.1h-.1l-.7-.1c-1.3-.2-1.4-.2-2.1-.3h.4c1 0 1.2 0 1.7.1.3.1.6.1.9.2h.2c1 .1 2 0 3 .1h.5c.2 0 .5.1.7.1.1 0 .2 0 .3.1h.1c.1 0 .3.1.5.1 0 0-.1 0-.1-.1-.2-.1-.4-.1-.6-.2.1 0 .1.1.2.1-.1 0-.3-.1-.5-.1s-.5-.1-.7-.1h-.8c-.8-.1-1.6-.1-2.4-.1h-.1c-2.1-.5-2.1-.5-2.8-.4-.4 0-.7.1-1.1.2h.4c.3.2.7.3 1.1.5H24v.1c.4.1.7.3 1 .4h.3l.5.1m5.7-.5c.1 0 .3.1.4.2-.1-.1-.2-.1-.2-.1-.2-.1-.3-.1-.5-.2 0-.1.1 0 .3.1m.7.3h.2c-.2 0-.4-.1-.5-.2-.1-.1-.3-.1-.4-.1.2.1.4.2.7.3m.9.5l-.1-.1-.6-.3h-.2c.3.1.6.2.9.4m.8.3c-.1-.1-.2-.1-.3-.2-.1-.1-.3-.1-.5-.2l.1.1c.2.1.5.2.7.3m.3.2c-.1-.1-.3-.2-.4-.2h-.1s-.1 0-.2-.1c.2 0 .3.1.4.1.1.1.2.1.3.2m0 0l-.4-.2c.1 0 .3.1.4.2"/><path clip-path="url(#l)" fill="#528A75" d="M3.2 37.1v.2-.2m0 0c-.2-.5-.3-1.1-.4-1.6.1.5.2 1.1.4 1.6m-.4-1.6l.1-.1-.1.1M2 17.8l.1-.2-.1.2"/><path clip-path="url(#l)" fill="#1572A0" d="M14.2 44.7h.3c-.2-.1-.5-.2-.8-.4l.1.4h.4m10.5 5.1h.3H24.7m6.7-1.6c.3-.1.6-.2.9-.4l-.6.2-.2.1-.2.1-.6.2h-.1l-.1.1-.5.2-.6.2h-.2l-1.2.4-1.1.2h-.1l-.5.1-.5.1h-.1c1-.1 2-.3 3-.6l1-.3.6-.2.5-.2.6-.2m-10.3-6.1c.2-.2.3-.4.5-.6h-.4l-.8.3-.5.2c-.2.4-.5.9-.7 1.3h-.9l-.6.6c-.5.2-1.1.5-1.6.7-.4-.1-.9-.2-1.3-.3h-.4l1.2.6.4.1h.2l.2-.1c.5-.2 1.1-.5 1.6-.7h.1l.1-.1.5-.5h1l.2-.3.6-1.1.2-.1h.4M13.6 44c.2.1.3.2.5.2l-.1-.5.2-.9-.1-1c.1-.4.2-1 .3-1.5-.1-.5-.2-1.2-.3-1.8l.3-.8c.3-.4.8-1 1.1-1.5l-.7-.3c-.3.4-.7.9-1 1.4v.2l-.3.8V38.6c.1.5.2 1.2.3 1.7-.1.4-.2 1-.2 1.4v.2l.1.9-.1.9V44m8.5.3l-.8.3-1.1-.3c.4-.3.9-.7 1.2-1 .6-.4 1.4-1 2-1.4h1.7c-.2.4-.5.9-.8 1.2-.6.3-1.5.8-2.2 1.2m2.6-.9l.2-.1.1-.1c.3-.4.6-.8.8-1.2l.4-.6c-.1-.1-.2-.1-.3-.2h-2.5l-.1.1v-.1l.5-1c-.2-.1-.3-.2-.5-.2-.1.2-.3.4-.4.6l-.3.4-.2.1c-.2.3-.4.6-.7.8h.5l.2-.1.4-.3c-.5.4-1.2.9-1.7 1.3l-.2.2c-.5.5-.9 1-1.4 1.5l.5.1 1.1.3.2.1.3-.1.8-.3h.2c.5-.3 1.4-.8 2.1-1.2M32 48l.7-.3h-.1c-.3.1-.6.3-.9.4l.3-.1M14.9 35.5c.2.1.5.2.7.3l.1-1.2.1-1.1c-.1-.6-.2-1.3-.3-1.9.3-.5.8-1.1 1.1-1.5V29c-.4-.2-.7-.3-1.1-.5l-.3-1.6H15c-.1.3-.3.6-.4.9l.1.7.1.4c.1.1.3.1.4.2l.6.3v.4l-1 1.3-.2.2.1.3c.1.5.2 1.3.3 1.8v1.1l-.1 1m-.8-7.7c.1-.3.2-.6.4-.9l-1.3.3-.5-.8-1.5-.1c-.2-.5-.4-1.2-.6-1.8-.1-.9-.3-2.1-.4-3.1 0 0 0-.1.1-.1-.3-.1-.5-.2-.7-.3 0 0 0 .1-.1.1 0 .1-.1.2-.1.2v.2c.1.9.3 2.1.4 3v.2c.2.5.4 1.3.6 1.8l.2.5h.4l1.2.1.2.5.3.5.6-.1.8-.2m18.4 4.9l.4-.5c-1-.5-2.1-1-3.2-1.5l-.3.6.3.6c.7.1 1.6.3 2.2.4l-1 1.3c-.8.6-1.9 1.4-2.7 1.9-.6.3-1.5.6-2.2.9l-.5.2-.3.3c-.6 1-1.2 1.9-1.8 2.8.1.1.3.1.4.2l.7-1.4.9-.8.5-.4.3-.1c.6-.3 1.5-.6 2.2-.9h.2c.8-.6 1.9-1.3 2.7-1.9l.1-.1.1-.1 1-1.5m4.4 5.6c.3-.4.6-.9.8-1.3l.7-2.1c-.2-.1-.3-.2-.5-.3v.1c-.2.7-.5 1.7-.8 2.4l-.6 1.5.4-.3m1.2-.1l-.1-.6 1-.8-.2 1.2-.7.2m.5.4l.5-.2.1-.6.2-1.2.1-.7.2-.4c-.1-.1-.3-.1-.4-.2l-.6.9-.5.4c-.3.5-.6 1.1-.9 1.6l.1.5.1.4.5-.2.6-.3m2.7 2c.4-.5.8-1.1 1.1-1.6l-.4.6-.4.5-.3.3v.2l-.3.3-.4.1-.2.1c-.1.1-.2.3-.3.4l-.2.2.1-.2 1-1.4.1-.1v-.1l.6-.7.6-.7.4-.5.2-.2.2-.4.2-.4h-.1l-.2.5-.5.6-.6.8.5-1.1.3-1s-.1 0-.1-.1l-.4.7-.5.9-.4.7-.5 1.2-1 1.4.3-.9.7-1 .5-1.1c.4-.6.7-1.3 1.1-2h-.1c-.1 0-.1-.1-.2-.1-.3.7-.7 1.3-1.1 1.9 0 .1-.1.1-.1.2l-.1.2-.1.2v-.1h-.1-.1c-.1-.1-.3-.1-.4-.2l-.4 1-.5 1.1-.4.7-.1.1v.1l-.3.6-.7.9-.2.2v.1l-.1.3-.6.7-.2.2v.1l-.1.3-.2.4-.1.1c.2-.1.4-.3.6-.5l.1-.1.2-.3.1-.3.8-.9.1-.4.7-1 .3-.7.4-.7.6-1.1h.1v.2s.1 0 .1.1l-.4.7-.2.7v.4l-.6.8-.4.5.4-.3-.4.5-.2.2h-.1l-.6.6-.2.3-.3.4-.3.2c.2-.2.4-.3.6-.5l.2-.2.1-.2h.1v.1l-.1.2-.1.1c.2-.2.4-.4.7-.6l.1-.2.1-.1.4-.5.6-.7c.2-.2.4-.4.5-.6l.4-.3.4-.5.3-.3m1.1-1.7l.1-.1-.1.1m-.6.9c.4-.6.9-1.5 1.3-2.2v.2l-.1.1-.1.2c-.3.6-.7 1.2-1.1 1.8v-.1m-.8 1.1l-.2.2.2-.2M37.1 45c.7-.6 1.6-1.4 2.3-2.1l.4-.4-.4.4-.4.4c-.3.3-.6.5-.8.8-.1.1-.2.2-.4.3l-.1.1c-.2.1-.4.3-.6.5m-1 .6l.5-.3h.1l-.6.3M29.5 29.9l.6.3c.1-.9.1-2 .2-2.9l-.9 2.1.1.5m15.3 3.5c.1-.3.2-.6.2-.8l-.2.5-.5 1.4-.1.1.2-.5.2-.5c0-.2.1-.3.1-.5l-.1-.1-.4.8-.2.6-.3 1.3-.4.9h.1l.4-1 .1-.2v-.1l.1-.1.2-.4.4-1.1.2-.3M42.2 36c.1 0 .2.1.2.1l.6-1.7-.3.5h-.3l.5-1.1.1-1.2.1-1-.4.3-.5-.1c-.1.3-.2.5-.2.8-.1 0-.1-.1-.2-.1l-.3.3-.9.8-.4.3-.5.9c.1.1.3.1.4.2l.3-.6.3-.2.9-.8.1-.1c.1.1.2.1.4.2.1-.2.2-.5.3-.7v-.1H42.7v.2l-.1 1-.4.8-.5 1h.7l-.2.3m-13-7.6l.9-2.1.4-1.3-.3-.5c0-.6-.1-1.3-.1-1.9h-.4c-.1.7-.2 1.5-.3 2.2l.3.5-.5 1.4.2.6-.2 1.1M38 34c.2.1.4.2.5.3.1-.6.2-1.3.3-1.8.2-.6.5-1.2.7-1.8 0-.1 0-.1.1-.2l-.6.4c-.1-.8-.2-2-.3-2.8-.7-.4-1.6-1-2.3-1.4l.1-.8-.9.1-.6-1-.2-1.4-.6.2.1.9.3 1.1-.1.9.6.2.9-.6-.2 1 .5 1-.5.7c-.5.4-1.1.9-1.6 1.2l-.9-.2-.3.6c-.7-.1-1.6-.2-2.2-.3.8.4 1.5.7 2.3 1.1h.4c.1-.2.2-.4.2-.5v-.1l.4.1.3.1.3-.2c.5-.4 1.1-.9 1.6-1.2l.1-.1.1-.1.5-.7.3-.4-.4-.3-.2-.4c.4.3 1 .6 1.4.8.1.7.2 1.7.2 2.4v1c0 .1-.1.2-.1.2s0 .1-.1.1v.2L38 34M21.3 14.4c.1-.1.1-.2.2-.3-.3-.1-.6-.3-.9-.4-.1-.1-.3-.1-.4-.2-.1 0-.1-.1-.2-.1l-.8.1.1-.3-.1-.2c-.3-.2-.6-.3-.9-.5v.2l.1.3v.2l.1.2-1.4.4-.3.1-.1.1c-.1.2-.3.3-.4.5 0 .1-.1.1-.1.2l-.5.2c-.6.3-1.5.6-2.1.9h-.2c-.5.3-1.1.8-1.5 1.1l-.2.2-.1.3-.4 1.3-1 1.2-.1.1v.1c-.1.1-.1.3-.2.4l.6.3c.1-.1.1-.3.2-.4l1.2-1.4.5-1.5c.5-.3 1.1-.8 1.5-1.1.6-.3 1.4-.6 2.1-.9l.8-.3c.1-.1.2-.3.3-.4.1-.2.2-.3.4-.5.5-.1 1.3-.3 1.8-.5l.6.3c.4 0 .8.1 1.2.1l.2.2m1.3.4l1 .3c-.5-.3-1.1-.5-1.6-.8l-.2.2.8.3m7.7 5.5c-.1 0-.1-.1-.1-.1.1-.2.2-.4.2-.7l.3.1-.4.7m1-.4l.5-.5-.2-.3H31l-.3-.2-.1-.4h-.7c0 .7-.2 1.1-.5 1.8-.6-.4-1-1.1-1.7-1.5-.5-.3-1-.4-1.5-.7.5-.1.8-.3 1.2-1.1-.2-.1-.4-.2-.7-.3-.4.7-.4.7-1.4.8l-.1-.1-.5-.7v-.4l.3.2.2.2.5.5.5-.4.3-.3c-.2-.1-.5-.2-.7-.3l-.1.1-.2-.2-.2-.2c-.4-.2-.9-.4-1.3-.6v.2l-.1.7-.3.2 1 1.2.1.7.9 1 .3-.3.5-.5.9.4.4.7 1.1.8.8.1.4.4h.8l.5-1M44.9 33l.3-1.1-.1.5c-.1.3-.1.6-.2.9V33M21.8 13.7c.2-.3.5-.6.7-1h-.7l-.3.6-.1.2c.1.1.3.2.4.2m3.9 1.9h.5l.1-.4-.6-1V14c-.3-.4-.4-.9-.8-1.2-.2-.1-.5 0-.7 0v-.3l-.4-.1-.2.2-.3.1c-.2.2-.3.4-.5.6h.4l.2-.1.2-.1v.2h1c.2.3.4.7.7 1l.1.2c-.1 0-.2-.1-.3-.1l-.3.3-.5-.1-.3-.1-1.1-.3c.8.4 1.5.7 2.3 1.1.1.1.3.2.5.3m.5.2c.4.2.9.4 1.3.6.2-.7.2-.7.2-1l.1-.3V15l-.7-1.2-.2-.8h-.4v.7l.1.6.3.6c.2.1.3.1.5.2H27l.3.5-.5-.3-.1.4-.5.1m-1.9-7.3h-.2l-.5.3h-.8c-.1 0-.1-.1-.2-.1l.2-.2.4-.2v-.1h.3s.1 0 .1.1l.4-.1c.1 0 .1.1.2.1v.2h.1m2.5-.2l.1-.1c-.1 0-.2-.1-.2-.1l.4-.1c-.3-.1-.5-.2-.7-.4-.1 0-.1-.1-.2-.1 0 0-.1 0-.1-.1H25.2l-.2.1-.4.2s-.1 0-.1-.1l-.5.2h-.5l-.8.1v.3h-.2c-.1 0-.1.1-.2.2-.2.1-.3.2-.5.3 0 .2.2.3.3.3l.2.1h.7l.2.1v.1l-.3.1-.3.1-.7.3.4.4.3.3v.2l-.3.3-.7-.5-.1-.2-.2-.3-.6.2-.5.2-.4.1-.1.3-.2.5-.6.4-.1.1-.1.1-.2.3.6.3.3-.4.8-.6.3-.6.5-.2.2.2c.3.2.8.6 1.1.8h.3l.7-.5.1-.6-.4-.5.3-.1.6.3.3-.1h.9c.1-.1.2-.3.4-.4H25l-.9-.1-.5-.1v-.2h-.4l.6-.1.3-.1H24l-.2-.2h.4l.1-.2.2.1h.3l.1-.3v-.3l-.2-.2V8l.4-.2h.6c.1 0 .1.1.2.1l-.4.1c.2.1.3.1.5.2l-.2.1-.4.1h.1v.3l-.1.1v.5l.1.2.5-.5v-.2h.1v-.1l.2-.1.5-.3m5.1 2.2l.6.2-.1-.3-.6-.3-.6-.3v-.3c-.2-.1-.5-.2-.7-.3l-.1.1v.4h-.6l-.1.5H29l-.8-.2.5-.2.1-.4V9h-.9l-.2-.1v-.4l.3-.3.1-.1c-.1 0-.2-.1-.4-.1-.1.1-.2.2-.3.2l-.1.1-.1.1v.1l-.1.4v.2l.2.1-.3.4-.2-.1H26l-.6.6h.2l.5-.2h.5l.5.2.4-.2.4-.5h.5l-.5.6v.2l.6.2-.1.4.3-.2.9.1.3.3.2-.2.3.1.1-.5.3-.1.2.7h.3l-.3-.6.3-.2.6.3m-.4-1.3l.6-.2-.1-.2-.4-.1-.2.2-.3.1h-.4l.6.3.1-.1h.1m2.7.2V9l-.4-.4-.3-.3-.4-.3c-.3-.1-.6-.3-.8-.4-.2 0-.5-.1-.7-.1h-.2l-.5.1-.6.1h-.6l-.7.1H28l.6.3h.4l.5-.1h.6l.7-.1.5-.2c.2 0 .5.1.8.1.2.2.6.3.9.5l.3.3.3.3.6.5m4.3 1l.1.1-.6-.6-.1-.1.6.6m-5-3.3l-.1-.1.1.1m3 1.7l-.4-.3H36l-.2-.1-.5-.4.4.2.5.4.3.2m1.9 1.4c-.2-.2-.4-.4-.6-.5l-.1-.1-.9-.7-.1-.1c-.1-.1-.3-.2-.4-.3l-.4-.3-.5-.3-.2-.1h-.1l-.4-.2h-.1l.1.1.5.4.3.2.5.4.2.1.2.2h.4s-.1 0-.1-.1h-.1l.2.2.2.3h-.1v.1l.1.2.6.6-.1-.3-.1-.2h.1l-.4-.4c.1 0 .1.1.2.1l-.2-.2-.2-.3.3.2.3.3-.7-.5c.1.1.3.2.4.3.3.2.7.6 1 .8l.2.1M36 8.7h-.3v.6l.3.3c0 .1.1.1.1.2-.2-.1-.4-.3-.6-.4l-.2-.3v-.8l.2.1c.1 0 .2.1.2.1.1.1.2.2.3.2m-1.8-1.2s-.1 0-.1-.1l-.3-.2h.1l.2.2c.1 0 .1.1.1.1m.5.2l.1.2c-.1-.1-.1-.1-.1-.2l-.5-.2-.1-.1c.1 0 .2.1.2.1l.4.2m2.9 2.6c-.1-.2-.3-.3-.4-.5l-.1-.1-.1-.1c-.2-.1-.4-.3-.5-.4l-.1-.1v.1l.1.1v.1l.1.1c-.1 0-.2-.1-.3-.2l.3.4-.1-.1h-.1l-.2-.1c0-.1-.1-.1-.1-.2l-.1.1v-.3h.5l-.3-.3c-.2-.1-.2-.1-.3-.2l-.4-.4h-.1c-.1 0-.1-.1-.2-.1h-.1V8l-.1-.1-.4-.4c-.1-.1-.3-.2-.4-.2l-.2-.1c-.1 0-.1-.1-.2-.1l.1.1-.1-.1-.2-.1h-.1c0 .1.1.1.1.2l.4.3.3.2c.1 0 .1 0 .2.1 0 0 .1 0 .1.1l-.1-.1.3.2h.2v.1c0 .2.1.4.1.6l-.1.2.3.4.2.3.1.1h-.1l-.3.1-.2-.2-.2-.1-.2-.2-.1-.1c0 .1 0 .3.1.4l.3.4.3.1.4.2.3-.1c.3.1.6.3.9.4l-.2-.4.2.1c.3.2.6.5.9.7l-.7-.9s.1 0 .1.1l-.2-.4v-.2c.2.1.4.3.5.4l.2.3"/><path clip-path="url(#l)" fill="#889F8A" d="M44.7 33.1c0-.1 0-.1 0 0 0-.1 0-.1 0 0 0-.1 0-.1 0 0m0 0"/><path clip-path="url(#l)" fill="#528A75" d="M19.2 13l.2.3-.2-.3m.1.6l.1-.3-.1.3m.8-.2l-.8.1.8-.1c.1 0 .1.1.2.1-.1 0-.2-.1-.2-.1m3.4-.8l-.3.1.3-.1m.2-.2l-.2.2.2-.2m0 0l.4.1-.4-.1M26.5 13h.4-.4m-3.7-2.9l.4.5-.4-.5m.4.4l-.1.6.1-.6m5.7-.3l-.7-.2.7.2m0 0h.7-.7m-.8-1.1l-.2-.1.2.1m.7 0H28h.8m0 .4v-.4.4l-.1.4.1-.4m2.4.4v-.3.3m.6.3l-.6-.3.6.3m.6.2l-.6-.3.6.3.1.3-.1-.3M31.1 9h-.4.4m.4-.1l-.4.1.4-.1m0 0l.2-.2-.2.2m.2-.2l.4.1-.4-.1m.4.1V9v-.2m5.4 1.2l-.1-.2.1.2.1.2-.1-.2"/><path clip-path="url(#l)" fill="#1572A0" d="M32.9 6.9h-.2c-.1 0-.2-.1-.2-.1l.1.2h.1l-.1.1s-.1 0-.1-.1l-.1-.1h-.1s-.1 0-.1-.1H32l-.1-.3s-.1 0-.1-.1c.1 0 .1 0 .2-.1.1.1.2.1.3.2.1 0 .2 0 .3.1 0 .1.2.2.3.3m.1 0v-.1l-.1-.1c-.1-.1-.2-.1-.3-.2h-.3c-.1 0-.1-.1-.2-.1l-.1-.1h-.2c-.1 0-.1 0-.2.1-.1 0-.1.1-.2.1.1 0 .1.1.2.1h.1l.1.3.1.2.1-.1h.1v.2h.1c.1 0 .1.1.2.1 0 0 .1 0 .1.1l.1-.1.1-.1v-.1h.1c.2 0 .2-.1.2-.2 0 .1 0 0 0 0"/><path clip-path="url(#l)" fill="#FFF" d="M13.6 47.9s-.1 0 0 0c0 0-.1 0-.1-.1-.1 0-.2-.1-.3-.1-.1 0-.2-.1-.3-.2-.1-.1-.2-.1-.3-.1h-.1c-.8-.5-1.9-1.1-2.7-1.6-2.6-1.9-3.1-2.5-5.2-5-.6-.9-1.4-2.1-1.9-3-.5-.9-1-2.2-1.4-3.2-.3-1-.7-2.4-.9-3.4-.2-1-.3-2.4-.4-3.5 0-1.1.1-2.5.2-3.6.2-1.1.5-2.5.7-3.5.4-1.1.9-2.4 1.3-3.5.5-1 1.3-2.3 1.9-3.2.7-.9 1.6-2 2.3-2.8.8-.7 1.8-1.7 2.7-2.4.9-.6 2.1-1.4 3-1.9.9-.5 2.2-1 3.2-1.4 1-.3 2.4-.7 3.4-.9 1-.2 2.5-.3 3.5-.4 1.1 0 2.5.1 3.6.2 2.7.4 3.6.6 6.5 1.8h.1c.1 0 .1.1.3.1.1.1.2.1.3.2.1 0 .2.1.3.1h.1c.8.5 1.9 1.1 2.7 1.6 2.6 1.9 3.1 2.5 5.2 5 .6.9 1.4 2.1 1.9 3 .5.9 1 2.2 1.4 3.2.3 1 .7 2.4.9 3.4.2 1 .3 2.4.4 3.5 0 1.1-.1 2.5-.2 3.6-.2 1.1-.5 2.5-.7 3.5-.4 1.1-.9 2.4-1.3 3.5-.5 1-1.3 2.3-1.9 3.2-.7.9-1.6 2-2.3 2.8-.8.7-1.8 1.7-2.7 2.4-.9.6-2.1 1.4-3 1.9-.9.5-2.2 1-3.2 1.4-1 .3-2.4.7-3.4.9-1 .2-2.4.3-3.5.4-3.3.1-5.8-.1-10.1-1.9m-.6-.3c3.8 1.6 5.9 2.2 10.6 2.2 1.1-.1 2.5-.2 3.5-.4s2.4-.6 3.4-.9c1-.4 2.3-1 3.2-1.4.9-.5 2.1-1.3 3-1.9.8-.7 1.9-1.6 2.7-2.4.7-.8 1.6-1.9 2.3-2.8.6-.9 1.3-2.2 1.9-3.2.4-1 1-2.4 1.3-3.5.3-1.1.6-2.5.7-3.5.1-1.1.2-2.5.2-3.6-.1-1.1-.2-2.5-.4-3.5s-.6-2.4-.9-3.4c-.4-1-1-2.3-1.4-3.2-.5-.9-1.3-2.1-1.9-3-.7-.8-1.6-1.9-2.4-2.7-2.4-2.2-3.1-2.6-6-4.2-1.3-.6-3.1-1.3-3.5-1.3-1.1-.3-2.5-.6-3.5-.7-1.1-.1-2.5-.2-3.6-.2-1.1.1-2.5.2-3.5.4s-2.4.6-3.4.9c-1 .4-2.3 1-3.2 1.4-.9.5-2.1 1.3-3 1.9-.8.7-1.9 1.6-2.7 2.4-.7.8-1.6 1.9-2.3 2.8-.6.9-1.3 2.2-1.9 3.2-.4 1-1 2.4-1.3 3.5C.6 21.6.3 23 .2 24c-.1 1.2-.2 2.7-.2 3.7.1 1.1.2 2.5.4 3.5s.6 2.4.9 3.4c.4 1 1 2.3 1.4 3.2.5.9 1.3 2.1 1.9 3 .7.8 1.6 1.9 2.4 2.7 2.4 2.1 3.1 2.6 6 4.1"/><path clip-path="url(#l)" fill="#67A8C1" d="M26.8 4.5c.4.1.7.1 1.1.2-.4-.1-.7-.1-1.1-.2M31 5.6c.1 0 .2.1.2.1l-.2-.1"/><path clip-path="url(#l)" fill="#D1C9B2" d="M25.7 4.3l1.1.2h-.1c-.3-.1-.7-.1-1-.2M21.3 4.2h.7-.7m3 0c.4 0 .9.1 1.3.1h-.3c-.3 0-.6-.1-1-.1"/><path clip-path="url(#l)" fill="#BBC7BD" d="M27.9 4.7c-.2 0-.4-.1-.7-.1l.7.1h.1-.1"/><path clip-path="url(#l)" fill="#E5E8E7" d="M27.9 4.7l1.3.3.9.3c-.6-.2-1.4-.4-2.2-.6M22 4.2h-.3.4c1 0 2.3 0 3.2.1-.4 0-.6-.1-1-.1H22"/><path clip-path="url(#l)" fill="#6099B5" d="M20.7 4.3c.2 0 .4 0 .6-.1h.2l-.8.1m9.5 1.1c.2.1.5.2.7.3l-.7-.3m1.3.5c.1 0 .3.1.4.2-.2-.1-.3-.2-.4-.2m.4.1c.1 0 .1.1.2.1-.1 0-.2-.1-.2-.1l-.7-.3c.2.1.3.1.5.2 0 0 0 .1.2.1"/><path clip-path="url(#l)" fill="#EDEDEE" d="M32.1 6.1c-.1 0-.2-.1-.2-.1l.3.1h.1c-.1.1-.2 0-.2 0"/><path clip-path="url(#l)" fill="#67A8C1" d="M31.4 5.9s.1 0 0 0c.1 0 .1 0 0 0 0-.1 0-.1 0 0"/><path clip-path="url(#l)" fill="#E5E8E7" d="M23.8 5.1H23c.4-.1.7-.1 1-.1h.4c-.2 0-.4 0-.6.1"/><path clip-path="url(#l)" fill="#E5E8E7" d="M24.4 5H24c2.3-.2 4.6 0 6.8.7-2.1-.7-4.2-.9-6.4-.7"/><path clip-path="url(#l)" fill="#6099B5" d="M22.8 5.2c.4-.1.7-.1 1.1-.2h-.8c-.2 0-.3.1-.5.1 0 .1.1.1.2.1-.1 0-.1 0 0 0m8 .4c.2.1.4.1.6.2-.2 0-.4-.1-.6-.2m1.4.6h.2-.2m.2.1c-.1 0-.2-.1-.3-.2-.2-.1-.4-.2-.6-.2.1 0 .3.1.4.1.1.1.3.2.5.3"/><path clip-path="url(#l)" fill="#B2CED6" d="M23.2 5.1c-.1 0-.1 0 0 0-.1 0-.1 0 0 0M23.7 5.1h-.6.6M23.7 5.1zM23.8 5.1h-.1.1M23.8 5.1zM23.8 5.1zM23.8 5.1zM23.8 5.1zM23.8 5.1z"/><path clip-path="url(#l)" fill="#EDEDEE" d="M32.5 6.3c-.2-.1-.3-.1-.4-.2.1 0 .1.1.2.1 0 0 .1.1.2.1"/><path clip-path="url(#l)" fill="#67A8C1" d="M28 7.8s-.1 0-.1-.1c0 0-.1 0-.1-.1 1.7-1.2 3.2-1.7 4.5-1.4-1.2-.2-2.7.3-4.3 1.6"/><path clip-path="url(#l)" fill="#6099B5" d="M33.1 6.7l-.1-.1s.1 0 .1.1M33 6.6l-.6-.3h-.2c.1 0 .2 0 .3.1.1 0 .3.1.5.2 0-.1 0 0 0 0"/><path clip-path="url(#l)" fill="#EDEDEE" d="M32.9 6.5c-.2-.1-.3-.2-.5-.2h.1c.2.1.3.1.4.2"/><path clip-path="url(#l)" fill="#67A8C1" d="M34.4 9.2c-.1-.8-.4-1.5-.7-1.9l-.1-.1c.2.4.4 1 .6 1.8l.2.2m-.9-2.1c-.1-.1-.2-.3-.4-.4.2.1.3.2.4.4"/><path clip-path="url(#l)" fill="#9FB9A5" d="M34.5 10.9c-.1 0-.2-.1-.3-.1 0-.5 0-1-.1-1.4l.2.2c.2.4.2.8.2 1.3"/><path clip-path="url(#l)" fill="#6099B5" d="M33.9 7c-.1-.1-.2-.1-.3-.2 0 .1.2.2.3.2M33.5 6.8c-.1-.1-.3-.1-.5-.2l.1.1c-.1 0-.1-.1-.2-.1.2.1.3.1.4.2.1-.1.2 0 .2 0M34.4 9.6c0-.1 0-.3-.1-.4l-.1-.2v.4l.2.2m-.7-2.4c0-.1-.1-.1-.1-.2 0 0 0 .1.1.1v.1"/><path clip-path="url(#l)" fill="#EDEDEE" d="M33.3 6.7c-.1 0-.2-.1-.4-.2h-.1c.1 0 .2.1.3.1.1 0 .2.1.2.1"/><path clip-path="url(#l)" fill="#67A8C1" d="M37.1 9.6l.1.2c-1-1.1-2.1-2.1-3.4-2.8 1.3.7 2.4 1.6 3.3 2.6"/><path clip-path="url(#l)" fill="#9FB9A5" d="M39.7 13.4c-.1 0-.1-.1-.2-.1-.5-1.1-1.2-2.1-1.9-3h.1v-.1c.8 1 1.5 2.1 2 3.2"/><path clip-path="url(#l)" fill="#6099B5" d="M34.2 7.2c-.1-.1-.3-.2-.4-.2.1 0 .3.1.4.2"/><path clip-path="url(#l)" fill="#6099B5" d="M33.8 6.9s-.1 0 0 0c-.1 0-.1-.1-.2-.1.1.1.2.2.3.2-.2-.1-.4-.2-.5-.3.1 0 .1 0 .1.1.1 0 .2.1.3.1M37.7 10.3c-.2-.1-.3-.3-.4-.4l-.1-.2c.1.1.3.3.5.6"/><path clip-path="url(#l)" fill="#85A79B" d="M37.7 10.3"/><path clip-path="url(#l)" fill="#EDEDEE" d="M33.5 6.8c-.1 0-.1-.1-.2-.1s-.1-.1-.2-.1h.1c.1.1.2.2.3.2"/><path clip-path="url(#l)" fill="#67A8C1" d="M37.9 9.8l-.1-.1c-1.1-.9-2.3-1.8-3.6-2.5 1.4.7 2.6 1.6 3.7 2.6"/><path clip-path="url(#l)" fill="#9FB9A5" d="M41.9 14.4c-1-1.5-2.2-2.9-3.6-4.2l.1.1c1.4 1.3 2.6 2.7 3.5 4.1"/><path clip-path="url(#l)" fill="#6099B5" d="M33.8 6.9c.1.1.3.2.4.2-.2-.1-.5-.2-.7-.3l.3.1M38.5 10.4l-.1-.1c-.2-.2-.4-.4-.6-.5l.1.1c.2.1.4.3.6.5"/><path clip-path="url(#l)" fill="#EDEDEE" d="M33.5 6.8c-.1 0-.2-.1-.3-.1l.3.1"/><path clip-path="url(#l)" fill="#67A8C1" d="M11 7.5l-.5.3.5-.3m3.2-1.6c-.1 0-.1 0 0 0-.1 0-.1 0 0 0m6.3-1.4c.1 0 .2.1.3.2h.4c-.2-.1-.4-.2-.5-.2h-.2l-.3.1c.2-.2.2-.1.3-.1h.2-.2m1.9.6h-.6.6"/><path clip-path="url(#l)" fill="#D1C9B2" d="M20.7 4.3c.1 0 .1 0 0 0M20.2 4.3c-1.6.2-3.2.6-4.8 1.1-.2.1-.4.1-.6.2l.4-.2c1-.3 2.4-.7 3.4-.9.6-.1 1.3-.2 1.9-.3l-.3.1"/><path clip-path="url(#l)" fill="#9FB9A5" d="M21.4 4.7c.1-.1.1-.1 0 0 .1 0 0 0 0 0M11 7.5l-.6.3c.6-.3 1.2-.7 1.6-.9.6-.3 1.5-.7 2.1-1h.1c-1.1.4-2.1.9-3.2 1.6M14.2 5.9l.6-.2c.2-.1.4-.1.6-.2-.4.1-.8.2-1.2.4"/><path clip-path="url(#l)" fill="#E5E8E7" d="M21 4.7c0 .1.1.1 0 0l.4-.1c-.1.1-.3.1-.4.1m1.4.4c0-.1-.1-.1-.3-.2l-.5.1c.1 0 .2.1.3.1h.5"/><path clip-path="url(#l)" fill="#E5E8E7" d="M21.6 5c-.2-.1-.3-.2-.5-.2l.3-.1h.1l.6.3h-.5"/><path clip-path="url(#l)" fill="#6099B5" d="M10 8.1c.3-.2.7-.4 1-.6l-.5.3-.5.3m10.5-3.6h.3-.3m-.3-.2s.1 0 .2.1l.3-.1h.1-.1-.5m.7.4s.1 0 .2.1c.1 0 .3 0 .4-.1h.1c-.1 0-.1 0-.1-.1h-.2l-.4.1m1.1.6h0m.1 0c.2 0 .3-.1.5-.1 0 0-.1 0-.1-.1h-.6c0 .1.1.1.2.2"/><path clip-path="url(#l)" fill="#67A8C1" d="M27 8.2c.2-.1.3-.3.5-.4-.2.1-.4.3-.5.4"/><path clip-path="url(#l)" fill="#67A8C1" d="M27.5 7.8c-2.2-1-3.9-1.9-5.2-2.5-3.1.7-6.1 2.2-8.8 4.4-.1 0-.2-.1-.3-.1C15.9 7.4 18.9 6 22 5.3h.7c.4.2.9.4 1.4.7v.2h.1c.1 0 .2.1.3.1h.5c.8.4 1.7.8 2.7 1.3-.1.1-.1.2-.2.2"/><path clip-path="url(#l)" fill="#6099B5" d="M22.7 5.2s-.1 0-.1-.1c-.2 0-.4.1-.6.1.2.1.5 0 .7 0m1.9 1.1h.4c-.3-.2-.6-.3-.9-.4v.2h.1c.1 0 .2.1.3.1 0 .1 0 .1.1.1"/><path clip-path="url(#l)" fill="#67A8C1" d="M22.3 14c.1-.2.3-.4.4-.6h-.4l-.1.2-.2.3c.1 0 .2 0 .3.1m5.6-6.2h0c.1-.1 0-.1 0-.1s-.1 0-.1-.1c-.3.2-.6.4-.8.6h.1l-.2.1c-.4.2-.6.5-.9.7v.5c.5-.5 1-.9 1.4-1.3l.1-.1V8h.1l.3-.2"/><path clip-path="url(#l)" fill="#9FB9A5" d="M23.2 12.7c.8-1 1.5-1.9 2.3-2.7h-.6c-.8.8-1.6 1.7-2.3 2.7H23.2M30.6 9c-.1-.1-.2-.1-.3-.2-.1.1-.3.2-.4.2.2.1.4.2.5.3l.2-.3m2.8 7.7c.5-2.1.8-4.1.9-5.7-.1 1.7-.4 3.6-.9 5.7m.8-5.6v-.3c-1-.5-2-.9-3-1.4l-.1.2c1.1.5 2.1 1 3.1 1.5M25.2 9.7l.2-.2v.1l-.2.1"/><path clip-path="url(#l)" fill="#E5E8E7" d="M30.2 8.9c-.1.1-.2.1-.3.1-.6-.3-1.2-.6-1.8-.8l.1-.1h.4c.6.2 1.1.5 1.6.8.1 0 .1 0 0 0"/><path clip-path="url(#l)" fill="#6099B5" d="M22.7 13.4c.2-.2.3-.4.5-.6H22.6c-.2.3-.5.6-.7 1 .1 0 .2.1.2.1l.2-.3.1-.2h.3m2.7-3.3l.6-.6V9c-.2.2-.4.4-.6.5v.1l-.2.1-.4.4h.6m1.4-1.8l.2-.1h-.1s0 .1-.1.1m1.7-.2c-.1-.1-.3-.2-.5-.3l-.1.1-.2.1h-.1v.1l-.1.1c0-.1.1-.2.2-.2.2 0 .3.1.4.1l.1-.1.3.1m2.6 1.5l.1-.2-.6-.3h-.1l-.2.2c.4 0 .6.2.8.3"/><path clip-path="url(#l)" fill="#67A8C1" d="M33.300000000000004 18.3c0 .1 0 0 0 0m0 .1c.1 0 0 0 0 0m.2-.4c.1-.2.1-.5.2-.7l-.3-.6c-.1.4-.2.7-.3 1.1.1.1.3.2.4.2"/><path clip-path="url(#l)" fill="#BBC7BD" d="M33.4 18.6c-.2 0-.3-.1-.4-.2 0-.1 0-.1.1-.2 0 0 .1 0 .1.1.1 0 .2.1.3.1-.1.1-.1.1-.1.2"/><path clip-path="url(#l)" fill="#D1C9B2" d="M33.2 19.2c-.1-.1-.3-.1-.4-.2.1-.2.1-.4.2-.6.2.1.3.1.4.2-.1.2-.1.4-.2.6"/><path clip-path="url(#l)" fill="#9FB9A5" d="M33.4 18.4c0-.1.1-.3.1-.4-.1-.1-.3-.1-.4-.2 0 .1-.1.3-.1.4l.1.1c.1 0 .2.1.3.1m8.3 4.5c0-3.3-.6-6.5-1.9-9.2 1.2 2.7 1.9 5.9 1.9 9.2m-1.9-9.2c-.1-.1-.1-.3-.2-.4-1.3-.6-3.1-1.5-5.1-2.4-.1 0-.2-.1-.3-.1 0 1.6-.3 3.7-.9 6l.3.6c.5-2.3.8-4.4.8-6.1 2.2.9 4 1.7 5.4 2.4"/><path clip-path="url(#l)" fill="#BBC7BD" d="M41.8 19.9c-.1 0-.1 0 0 0v-.1.1"/><path clip-path="url(#l)" fill="#D1C9B2" d="M42 23.4c-.1 0-.2-.1-.3-.1v-.2c.1 0 .2-.1.3-.1v.4"/><path clip-path="url(#l)" fill="#9FB9A5" d="M45.1 21.8c-.6-2.4-1.5-4.8-2.9-6.9 1.4 2.1 2.3 4.4 2.9 6.9M42.2 14.9l-.6-.3c-.4-.2-1-.5-1.7-.8.9 1.8 1.5 3.9 1.8 6v.1c.1.8.2 1.7.2 2.6-.1.1-.2.2-.3.4 0-3.5-.7-6.8-2.1-9.6.1 0 .1.1.2.1.7.3 1.2.6 1.6.8.3.2.5.3.6.3.1.1.2.2.3.4M42 22.9c-.1 0-.2.1-.3.1v-.1c.1-.2.2-.3.3-.4v.4"/><path clip-path="url(#l)" fill="#BBC7BD" d="M45.7 25.1c0-.4-.1-.7-.1-1.1v-.2c0 .5 0 .9.1 1.3"/><path clip-path="url(#l)" fill="#D1C9B2" d="M45.5 23.8v.2l-.3-1.8v.2c.2.5.2 1 .3 1.4"/><path clip-path="url(#l)" fill="#9FB9A5" d="M42.2 14.9c1.4 2.2 2.4 4.6 2.9 7.2 0-.1 0-.2-.1-.2-.6-2.6-1.7-5.1-3.2-7.4l.4.4M45.3 22.5v-.2c0-.2-.1-.3-.1-.5 0 .1.1.2.1.3-.1.1-.1.2 0 .4"/><path clip-path="url(#l)" fill="#67A8C1" d="M6 18.7c1.7-3.5 4.1-6.5 6.8-8.7-2.7 2.2-5.1 5.1-6.8 8.7M12.8 9.9c-2-.9-3.1-1.5-3.2-1.5-2.9 2.1-5.4 4.9-7.1 8.3l-.1.2c.5-.9 1.2-2.1 1.7-3 .7-.9 1.6-2 2.3-2.8.7-.7 1.7-1.6 2.5-2.3l1-.8c.1 0 1.2.6 3.1 1.5 0 .2-.1.3-.2.4"/><path clip-path="url(#l)" fill="#6099B5" d="M2.4 16.9c0-.1.1-.1.1-.2l-.1.2M10 8.1l-.9.7-.2.1 1.1-.8"/><path clip-path="url(#l)" fill="#67A8C1" d="M13 10.1c-2.7 2.3-5 5.2-6.7 8.7-.1 0-.2-.1-.3-.1 1.8-3.7 4.3-6.7 7.2-9 .1 0 .2.1.3.1 1.3.6 3 1.5 5.1 2.4l-.1.2-.1.2c-2.2-1.1-4-1.9-5.4-2.5"/><path clip-path="url(#l)" fill="#BBC7BD" d="M21.1 13.5l-.5.2c-.1-.1-.3-.1-.4-.2.3 0 .6-.1.9 0 0 0 .2 0 .3.1v.1l-.3-.2"/><path clip-path="url(#l)" fill="#9FB9A5" d="M21 13.4c-.2 0-.5.1-.7.1-.4-.2-.7-.4-1.1-.5l-.1-.1-.1-.4.1-.1c.6.3 1.3.7 1.9 1"/><path clip-path="url(#l)" fill="#6099B5" d="M18.2 12.5c.3.1.6.3.9.5l-.1-.1v-.4l.1-.1-.6-.3-.1.2-.2.2m3.1 1.9c.1-.1.1-.2.2-.3 0 .1-.1.2-.2.3m.2-.3c.1-.1.2-.3.3-.4-.1-.1-.3-.1-.4-.2v.1l-.2-.2-.5.2c.2.2.5.4.8.5"/><path clip-path="url(#l)" fill="#67A8C1" d="M26.5 16.5s.1 0 .1.1c0-.1.1-.1.1-.2h-.1l-.1.1M22 13.9l.8.3-.6-.3H22m5.3 3c.2.1.3.1.5.2l-.1-.2v-.3l-.2-.1c-.1.2-.2.3-.2.4m.8.4c.4.2.9.4 1.3.6v-.5c-.4-.2-.7-.4-1.1-.5l-.1.3-.1.1"/><path clip-path="url(#l)" fill="#BBC7BD" d="M28.1 17.3l.1-.2.1-.3-.6-.3v.3l.1.2c.1.2.2.2.3.3m2.6.8s.1-.1 0 0c-.4-.2-.8-.5-1.3-.7v.5c.2.1.5.2.7.3.2 0 .4-.1.6-.1M21.7 14.7c0-.1.1-.1.1-.2l-.5-.2-.1.1c.2.2.4.3.5.3m2 .4h-.1.1"/><path clip-path="url(#l)" fill="#D1C9B2" d="M16.5 23.7c1.6-3.4 3.4-6.4 5.2-9-.1-.1-.3-.1-.4-.2-1.9 2.5-3.7 5.6-5.3 8.9.1 0 .2.1.3.1l.2.2m7.2-8.5c.1 0 .2.1.3.1v-.1h-.3c0-.1 0-.1 0 0m6.4 11.1c1-2.4 1.9-4.7 2.5-6.9-.6 2.2-1.5 4.5-2.5 6.9m2.5-6.9c0-.1.1-.3.1-.4-.6-.3-1.3-.6-2-.9-.2.1-.4.1-.7.2.1.1.3.1.4.2h.1c.8.3 1.5.6 2.1.9M25.8 16.2c-.2-.1-.4-.2-.5-.3l-.4-.4.3-.2c.4.2.7.3 1.1.5l-.5.4"/><path clip-path="url(#l)" fill="#6099B5" d="M24 15.299999999999999c.4.2.9.4 1.3.6l-.4-.4.3-.2c-.8-.4-1.5-.7-2.3-1.1l-.9-.3v-.1c-.1 0-.2-.1-.2-.1-.2.2-.3.4-.5.6l.5.2.2-.2c.5.3 1.1.5 1.6.8h.1l.3.2m2.7 1.3c.2.1.4.2.7.3.1-.1.1-.3.2-.4-.4-.2-.9-.4-1.3-.6l-.4.3c.2.1.5.2.7.3l.1-.1h.1c-.1 0-.1.1-.1.2"/><path clip-path="url(#l)" fill="#67A8C1" d="M39.1 22.2c.1 0 .1 0 0 0 .1 0 .1 0 0 0m-3.3-1.3c.3.1.5.3.8.4v-.5l-1.2-.6v.1l.4.6m4.3 1.7c-.1-.1-.1-.2-.2-.2.1 0 .1.1.2.2m0 .1s0-.1 0 0m.5.3c-.1 0-.1 0 0 0-.1 0-.1 0 0 0m.1 0s-.1 0 0 0c-.1 0 0 0 0 0m0 .1c0-.1 0-.1 0 0 0-.1 0-.1 0 0m.2 0c-.1 0-.1 0 0 0-.1 0-.1 0 0 0m.1 0c-.1 0-.1 0 0 0-.1 0-.1 0 0 0m.1 0s-.1 0 0 0c-.1 0 0 0 0 0m.1 0s-.1 0 0 0c-.1 0 0 0 0 0m.1 0s-.1 0 0 0c-.1 0 0 0 0 0m0 0"/><path clip-path="url(#l)" fill="#BBC7BD" d="M41.5 23.2c-.1.1-.1.3-.2.4-.5-.3-1.1-.5-1.7-.8-.1-.3-.2-.5-.3-.6-.1 0-.2-.1-.4.1v-.4c.4.2.7.3 1 .5.2.3.3.4.6.6.3.1.5.1.8.1.1 0 .2 0 .2.1"/><path clip-path="url(#l)" fill="#D1C9B2" d="M29.2 29.7c.1-.1.1-.3.2-.4l-.2-.8v-.2c-.2.4-.3.7-.5 1.1.2.2.3.3.5.3m3.9-10.1c.9.4 1.8.9 2.7 1.3l-.4-.6v-.1c-.7-.3-1.4-.7-2.2-1-.1-.1-.3-.1-.4-.2-.7 2.3-1.6 4.8-2.6 7.3v.1l.2.7v.2c1.1-2.7 2-5.3 2.7-7.7m3.5 1.7c1.1.5 2.1 1 3 1.4-.1-.3-.2-.5-.4-.6-.1 0-.2 0-.3.1v-.4c-.7-.4-1.5-.7-2.3-1.1v.6m3.9 9.3c.7-2.3 1.1-4.6 1.2-6.9-.1 2.3-.5 4.6-1.2 6.9m1.2-6.9v-.5s-.1 0-.1-.1c-.1.1-.1.3-.2.4 0 .1.2.2.3.2"/><path clip-path="url(#l)" fill="#9FB9A5" d="M41.3 23.1c-.4 0-.7-.1-.8-.1-.3-.1-.4-.3-.6-.6.5.2 1 .5 1.4.7"/><path clip-path="url(#l)" fill="#6099B5" d="M29.4 29.3l-.2-.8v-.2l.9-2.1v.1l.2.7v.2c-.3.8-.6 1.5-.9 2.1"/><path clip-path="url(#l)" fill="#BBC7BD" d="M45.7 27.2v-1.6 1.6M45.7 25.7s-.1-.1-.3-.1v-.5c.1.1.2.1.3.1v.5M39.3 34.6c-.1-.1-.2-.1-.3-.2.6-1.3 1.1-2.5 1.5-3.8.1.1.2.1.3.3-.4 1.2-.9 2.5-1.5 3.7"/><path clip-path="url(#l)" fill="#D1C9B2" d="M42 23.7v-.2c-.1 0-.2-.1-.3-.1 0 2.4-.4 4.9-1.2 7.4.1.1.2.1.3.3.7-2.4 1.1-4.7 1.2-7v-.4m0 .2c1.1.5 2 1 2.7 1.3.3.2.6.3.7.3V25c-.2-.1-.4-.2-.7-.3-.6-.3-1.5-.7-2.5-1.2-.1.1-.1.3-.2.4"/><path clip-path="url(#l)" fill="#9FB9A5" d="M42.1 23.5c0 .1-.1.3-.1.4h-.1v-.5c.1 0 .2 0 .2.1.1 0 .1 0 0 0"/><path clip-path="url(#l)" fill="#67A8C1" d="M43.6 36.6c.5-1.1.9-2.3 1.3-3.4l-.1.2c-.3 1.1-.7 2.2-1.2 3.2m2-7.1"/><path clip-path="url(#l)" fill="#BBC7BD" d="M45.1 32.3c.2-.9.4-1.9.5-2.8-.1 1-.3 2.1-.6 3.1l.1-.3m.6-6.6v-.5c.1.7.1 1.4.1 2.1v.8c0-.8-.1-1.6-.1-2.4"/><path clip-path="url(#l)" fill="#D1C9B2" d="M45.6 29.5c.1-.8.1-1.5.1-2.3v.8c0 .5 0 1-.1 1.5"/><path clip-path="url(#l)" fill="#6099B5" d="M44.9 33.2c.1-.3.2-.6.2-.9v.1l-.1.2c-.1.3-.1.6-.2.8l.1-.2"/><path clip-path="url(#l)" fill="#67A8C1" d="M2.3 17.1l.1-.1-.1.1m1.2 9.4c.4-2.4 1.1-4.9 2.2-7.3-1.1 2.4-1.8 4.9-2.2 7.3m2.3-7.3c0-.1.1-.2.1-.3 0-.1.1-.2.1-.2-2.2-1-3.4-1.6-3.6-1.7l-.1.5v.1c.3.1 1.5.6 3.5 1.6"/><path clip-path="url(#l)" fill="#9FB9A5" d="M0 28.4v-.6c0-1.1.1-2.5.2-3.6.2-1.1.5-2.5.7-3.5.3-.8.6-1.8.9-2.5l.2-.4C.4 21.2-.2 24.9 0 28.4"/><path clip-path="url(#l)" fill="#6099B5" d="M2.1 17.4c0 .1-.1.2-.1.4l-.2.4.4-1v-.1l.1-.1-.1.5v.1c0-.2-.1-.2-.1-.2"/><path clip-path="url(#l)" fill="#85A79B" d="M2 17.8l-.2.3.2-.3"/><path clip-path="url(#l)" fill="#67A8C1" d="M9.8 20.6s0-.1.1-.1c-1.3-.6-2.5-1.2-3.5-1.7-.1 0-.2-.1-.3-.1 0 .1-.1.2-.1.2-1.2 2.5-2 5.1-2.4 7.6l.3.3c.4-2.5 1.1-5 2.3-7.5 1 .5 2.2 1 3.5 1.7 0-.1.1-.2.1-.3-.1 0-.1 0 0-.1M10.7 21s-.1 0 0 0c-.1 0 0 0 0 0m.1 0s-.1 0 0 0c-.1 0 0 0 0 0m0 .1c0-.1 0-.1 0 0 0-.1 0-.1 0 0m.1 0s-.1 0 0 0c-.1 0 0 0 0 0m.1 0s-.1 0 0 0c-.1 0 0 0 0 0m.1 0c-.1 0-.1 0 0 0-.1 0-.1 0 0 0m0 .1c0-.1 0-.1 0 0 0-.1 0-.1 0 0m.1 0c-.1 0-.1 0 0 0-.1 0-.1 0 0 0m.1 0c-.1 0-.1 0 0 0-.1 0-.1 0 0 0m.1 0c-.1 0-.1 0 0 0-.1 0-.1 0 0 0m0 0"/><path clip-path="url(#l)" fill="#BBC7BD" d="M10.2 21.3c0-.1.1-.2.1-.3 0 0 0-.1.1-.1.3.1.5.2 1 .3.7.3 1.4.7 2.2 1 .3.3.5.6.7 1-1.5-.7-2.9-1.3-4.1-1.9"/><path clip-path="url(#l)" fill="#D1C9B2" d="M11.4 21.2c-.3-.1-.6-.3-.9-.5 0 0 0 .1-.1.1.3.2.6.3 1 .4m3.9 3.8c.2-.3.3-.7.5-1-.2.3-.3.6-.5 1m.5-1.1c0-.1.1-.2.1-.3 0-.1.1-.2.1-.2-.8-.4-1.7-.8-2.4-1.2.3.3.5.6.7 1 .5.3 1 .5 1.5.7M3.5 29.1l-.2.8c0-.9.1-1.7.2-2.6l.2.3c-.1.4-.2 1-.2 1.5"/><path clip-path="url(#l)" fill="#6099B5" d="M3.5 30c-.1 0-.2-.1-.3-.1l.2-.8c0-.5.1-1 .1-1.5l-.2-.3c0-.3.1-.5.1-.8l.3.3c-.1 1.1-.2 2.2-.2 3.2M10.4 20.9s0 .1-.1.1c0 .1-.1.2-.1.3l-.6-.3c0-.1.1-.2.1-.3 0 0 0-.1.1-.1 0 0 0-.1.1-.1l.6.3c-.1 0-.1.1-.1.1"/><path clip-path="url(#l)" fill="#67A8C1" d="M12.4 34.3c.6-2.1 1.3-4.3 2.3-6.6v-.1l-.6.1c-.9 2.2-1.6 4.3-2.1 6.3.1 0 .2.1.2.1l.2.2M15.7 25.5s0-.1 0 0c0-.1 0 0 0 0m0 0"/><path clip-path="url(#l)" fill="#BBC7BD" d="M15.1 26.8c.2-.4.4-.9.6-1.3-.2-.2-.3-.4-.4-.5-.3.7-.6 1.3-.9 2l.7-.2M18 25c.9.4 1.8.8 2.7 1.3-.3-.5-.5-.7-.8-1-.3-.1-.5-.3-.8-.4-.5-.1-.9 0-1.1.1"/><path clip-path="url(#l)" fill="#D1C9B2" d="M19 24.9l-2.4-1.2c-.1 0-.2-.1-.3-.1-.1 0-.2-.1-.3-.1 0 .1-.1.2-.1.2-.2.4-.4.9-.6 1.3.1.1.2.3.4.5.2-.4.4-.8.6-1.3.6.3 1.1.5 1.7.8.3-.1.7-.2 1-.1m6.5 10.6c1-1.7 2-3.6 2.9-5.5-.9 2-1.9 3.8-2.9 5.5m2.9-5.5c0-.1.1-.2.1-.3l.1-.2c-2.8-1.4-5.9-2.8-8.9-4.2.3.3.5.5.8 1 2.8 1.2 5.4 2.5 7.9 3.7"/><path clip-path="url(#l)" fill="#6099B5" d="M14.7 27.7l-.6.1c.1-.3.2-.6.4-.9l.7-.1c-.2.3-.3.6-.5.9"/><path clip-path="url(#l)" fill="#67A8C1" d="M32.7 31.6h.6-.6M32.9 32.1l.3-.5c1.8.8 3.4 1.6 4.8 2.3l-.1.6c-1.5-.7-3.2-1.5-5-2.4"/><path clip-path="url(#l)" fill="#BBC7BD" d="M25.3 36.9l-.3.2c-.1-.2-.1-.3-.2-.5.2-.4.4-.7.7-1.1.1.2.2.4.3.5-.1.3-.3.6-.5.9M37.7 36.9c.4-.6.7-1.3 1.1-2-.4.7-.7 1.4-1.1 2M38.8 34.9c-.1-.1-.2-.1-.3-.2v-.1l.1-.4c.2.1.3.1.5.2 0 .1-.1.2-.1.2-.1.2-.2.3-.2.3"/><path clip-path="url(#l)" fill="#D1C9B2" d="M29 30.2c.3.1.5.2.8.4l-.2-.7c-.1-.1-.2-.1-.3-.2-.2-.1-.3-.2-.5-.2l-.1.2c-1 2-2 4-3.1 5.8.1.2.2.4.3.5 1-1.7 2.1-3.7 3.1-5.8m1.1.2l.7.1c-.2-.1-.5-.2-.7-.3v.2"/><path clip-path="url(#l)" fill="#9FB9A5" d="M24 38.1c-.2.4-.4 1-.6 1.4-.1 0-.2-.1-.3-.1.6-.9 1.2-1.8 1.8-2.8.1.2.1.3.2.5-.4.3-.9.6-1.1 1"/><path clip-path="url(#l)" fill="#6099B5" d="M23.5 39.6c.6-.9 1.2-1.8 1.8-2.8l-.3.3-1 .9c-.2.4-.4 1-.6 1.4 0 .2.1.2.1.2m9.4-7.5l.3-.5-.5-.1h.5c-.7-.4-1.5-.7-2.3-1.1l-.7-.1v-.2l-.6-.3.2.7c1 .6 2.1 1.1 3.1 1.6m5 2.4c.2.1.4.2.5.3v-.1l.1-.4c-.1-.2-.3-.3-.5-.3l-.1.5"/><path clip-path="url(#l)" fill="#67A8C1" d="M32.4 43.9c1.8-1.6 3.5-3.5 5-5.7V38l-.5.3c-1.4 2.1-3 3.9-4.8 5.5.1 0 .2 0 .3.1m7.5-8.4c.9.4 1.6.8 2.2 1l.2-.5c-.6-.3-1.3-.6-2.1-1l-.3.5m2.5 3.4c.4-.6.7-1.2 1-1.8-.3.7-.7 1.2-1 1.8m1-1.8c0-.1.1-.2.1-.3 0-.1.1-.2.1-.2h-.1l-.1.5c-.1 0-.1 0 0 0"/><path clip-path="url(#l)" fill="#BBC7BD" d="M39.4 35.2c-.1 0-.2-.1-.3-.1-.3.5-.5 1-.8 1.5l-.7.5.1-.2c.4-.7.8-1.5 1.2-2.2 0-.1.1-.2.1-.2.1.1.2.1.3.2.1.1.2.1.3.2l-.2.3M42.5 36.7l.3-.5c-.1 0-.2-.1-.2-.1l-.2.5c0 .1 0 .1.1.1m.1.1c.2.1.4.2.5.3l.2-.5c-.1-.1-.4-.2-.6-.3l-.1.5"/><path clip-path="url(#l)" fill="#6099B5" d="M37.4 38.1c.3-.5.6-1 .9-1.6l-.7.5.1-.2c-.3.5-.5.9-.8 1.3l.5-.3v.3m2.5-2.6l.3-.5c-.1-.1-.3-.1-.4-.2l-.3.5c.1 0 .2.1.4.2m2.4 1.1l.2-.5c-.1 0-.2-.1-.2-.1l-.3.5c.1 0 .2.1.3.1m.2.1c.1 0 .1 0 .1.1l.1-.6-.2.5m.7.3c0 .1 0 .1 0 0l.3-.5h-.1l-.2.5"/><path clip-path="url(#l)" fill="#67A8C1" d="M37.6 44.5c.2-.1.3-.3.5-.4l-.1.1-.2.2c0-.1-.1 0-.2.1m5.8-7.4l.1-.3.1-.2c0 .1-.1.2-.1.2-.3.7-.7 1.4-1.1 2.1l.2-.3.3-.5c.1-.3.3-.6.5-1"/><path clip-path="url(#l)" fill="#BBC7BD" d="M39 43.3l-.2.2-.3.2c1-.9 1.9-2 2.8-3.1l.1-.1.4-.6c-.9 1.2-1.8 2.4-2.8 3.4M36.7 45.3c.2-.2.3-.2.4-.3-.2.1-.3.2-.4.3"/><path clip-path="url(#l)" fill="#6099B5" d="M36.1 45.6c.2-.1.4-.3.5-.4l.1-.1c-.2.2-.4.4-.6.5m1-.6c.2-.2.4-.3.6-.5-.2.1-.4.3-.6.5 0-.1 0 0 0 0m1-.9c.3-.3.6-.5.8-.8l-.2.2-.3.2c-.2.2-.4.4-.7.6l.4-.2m3.6-4.2c.4-.6.8-1.2 1.1-1.8l-.3.5-.2.3c-.3.6-.7 1.1-1.1 1.6l.1-.1.4-.5"/><path clip-path="url(#l)" fill="#67A8C1" d="M3.5 39.2l-.8-1.4-.1-.1.7 1.1M1.2 34.2l.3.9c.3.6.6 1.4.9 2-.3-.7-.8-1.7-1-2.5-.3-.8-.6-1.9-.8-2.7v.2c.1.7.3 1.4.6 2.1"/><path clip-path="url(#l)" fill="#BBC7BD" d="M2.5 29.6l-.2.4c-.3-.1-.5-.2-.7-.3v-.5c.3.1.6.2.9.4M.4 31.2v-.3l-.2-1.5v.4c0 .5.1.9.2 1.4"/><path clip-path="url(#l)" fill="#D1C9B2" d="M3.2 29.9l-.1.4c-.3-.1-.6-.3-.8-.4 0-.1 0-.1.2-.4.2.2.5.3.7.4M.4 31.3V31v.3c0-.1 0-.1 0 0"/><path clip-path="url(#l)" fill="#9FB9A5" d="M1.6 29.2v.4c-.9-.5-1.5-.7-1.5-.7 0 .3.1.6.1.9v-.4l-.1-1s.5.3 1.5.8c0-.1 0 0 0 0"/><path clip-path="url(#l)" fill="#6099B5" d="M3.5 39.2c-1-1.6-1.8-3.2-2.3-5l.3.9c.3.6.6 1.4.9 2l.3.6.6 1.1.2.4M.6 32.1c-.1-.3-.1-.6-.2-.8v-.2.2l.1.6.1.2m2.7.3c-.1-.6-.1-1.3-.1-1.9 0 .6.1 1.2.1 1.9m-.1-2v-.5l-.1.4.1.1"/><path clip-path="url(#l)" fill="#67A8C1" d="M5.6 40.2c-1.4-2.8-2.1-6-2.1-9.5l-.1.6v1c.2 2.8 1 5.4 2.1 7.8l.1.1m5.2 2.5c-.1-2.2.3-5 1.1-8.1-.8 3.1-1.2 5.9-1.1 8.1m1.1-8.2c0-.1.1-.3.1-.4-3.5-1.7-6.3-3-8.3-4l-.1.4c1.9 1 4.8 2.4 8.3 4"/><path clip-path="url(#l)" fill="#D1C9B2" d="M3.2 29.9"/><path clip-path="url(#l)" fill="#6099B5" d="M3.5 30.6c0-.1 0-.1 0 0v.2l-.1.6v1c-.1-.8-.1-1.6-.1-2.4h.2c.1 0 .1 0 .2.1l-.2.5"/><path clip-path="url(#l)" fill="#67A8C1" d="M14.8 35.9l-2.4-1.2c-.8 3.1-1.3 5.9-1.2 8 0 0-.1 0-.1-.1 0 0-.1 0-.1-.1-.1-2.3.3-5.3 1.2-8.6.1 0 .2.1.2.1.1 0 .2.1.2.1.8.4 1.7.8 2.5 1.2v.2l-.3.4"/><path clip-path="url(#l)" fill="#BBC7BD" d="M15.4 36.3l.2-.2v-.2c1.5.7 3 1.4 4.4 2.1 0 .2-.1.3-.1.5-1.4-.8-2.9-1.5-4.5-2.2"/><path clip-path="url(#l)" fill="#9FB9A5" d="M21.6 41.5c.4-.5.8-1.1 1.2-1.7-.4.6-.8 1.1-1.2 1.7M22.8 39.8c-.9-.4-1.9-.9-2.9-1.4.1-.2.1-.3.1-.5 1 .5 2 1 3 1.4 0 .2-.1.4-.2.5"/><path clip-path="url(#l)" fill="#6099B5" d="M15.4 36.3l-.7-.3.2-.2v-.2c.2.1.5.2.7.3v.2l-.2.2"/><path clip-path="url(#l)" fill="#67A8C1" d="M20.9 43c.3-.3.6-.7.8-1h-.5l-.2.1c-1.2 1.6-2.4 2.9-3.5 3.8.1 0 .2.1.3.1.5-.4 1.1-.9 1.7-1.5l-.3-.1.6-.5c.3-.2.8-.6 1.1-.9m2.2 5.5c3-.7 6-2.3 8.6-4.5-2.6 2.3-5.6 3.8-8.6 4.5m8.6-4.5c.1-.1.3-.2.4-.3-2.1-1-5-2.4-8.1-3.9l-.2.4c.7.3 1.4.7 2.1 1h.4l-.1.2c2.1 1 4 1.9 5.5 2.6"/><path clip-path="url(#l)" fill="#9FB9A5" d="M22.4 41.2l-.4.2h-.4c.5-.6 1-1.3 1.5-2.1.1 0 .2.1.3.1l-.5 1c-.2.4-.3.6-.5.8"/><path clip-path="url(#l)" fill="#6099B5" d="M19.5 44.5c.5-.5.9-1 1.4-1.5-.3.3-.8.7-1.1.9l-.6.5.3.1m2.2-2.5c.2-.3.4-.6.7-.8l-.4.2h-.4c-.2.2-.3.4-.5.6l.2-.1.4.1m4.1-.8c.1.1.2.1.3.2l.1-.2h-.4M23.3 40c.2.1.3.2.5.2l.2-.4c-.1-.1-.3-.1-.4-.2-.1 0-.1-.1-.2-.1l-.5 1c.1-.1.2-.3.4-.5"/><path clip-path="url(#l)" fill="#67A8C1" d="M32.3 47.8c1.2-.5 2.3-1.2 3.4-1.9-1.1.8-2.2 1.4-3.4 1.9"/><path clip-path="url(#l)" fill="#67A8C1" d="M35.7 45.9c-.1 0-.4-.2-1-.5s-1.6-.8-2.7-1.3c-2.7 2.2-5.7 3.7-8.7 4.5-.1 0-.1-.1-.2-.1 3.1-.8 6.3-2.4 9-4.8.1 0 .2.1.3.1 1.2.6 2.1 1 2.8 1.3.6.3.9.4 1 .5-.2.1-.4.2-.5.3"/><path clip-path="url(#l)" fill="#6099B5" d="M36.1 45.6"/><path clip-path="url(#l)" fill="#67A8C1" d="M35.7 45.9l.3-.2.1-.1c-1.2.9-2.5 1.6-3.9 2.2l.3-.1h.1c1.1-.5 2.1-1.1 3.1-1.8"/><path clip-path="url(#l)" fill="#BBC7BD" d="M25.6 49.7h.1l.5-.1h.1c.5-.1 1.3-.2 1.8-.4l.3-.1c.5-.1.9-.2 1.4-.4-.1 0-.2.1-.3.1-1.2.5-2.5.8-3.9.9"/><path clip-path="url(#l)" fill="#D1C9B2" d="M29.6 48.9c.1 0 .2-.1.3-.1l1.5-.6.4-.1c-.7.3-1.5.5-2.2.8"/><path clip-path="url(#l)" fill="#6099B5" d="M25.6 49.7h.2l.5-.1h.1c.5-.1 1.3-.2 1.8-.4l.3-.1c-.9.3-1.9.5-2.9.6m6.2-1.6c.3-.1.6-.2.9-.4h-.1l-.3.1c-.3.1-.6.2-.9.4l.4-.1m4.2-2.4l.1-.1-.1.1"/><path clip-path="url(#l)" fill="#67A8C1" d="M11.5 46.9c-.3-.2-.7-.4-1-.6l-.2-.2 1.2.8m-5.8-4.8c.5.5 1.1 1.1 1.5 1.6-.4-.5-1.1-1.1-1.5-1.6m-.8-.9c.7.8 1.6 1.8 2.3 2.5-.7-.7-1.6-1.8-2.3-2.5m0 0c-.2-.2-.4-.5-.6-.7.2.1.4.4.6.7m-.5-.8s-.1 0 0 0c-.1 0 0 0 0 0m7.4 6.6c-2.6-1.5-4.7-3.8-6.1-6.5 1.4 2.7 3.5 5 6.1 6.5m-6.1-6.5c-.1-.1-.1-.3-.2-.4-.5-.2-.9-.4-1.2-.6l.2.4c.2.2.7.4 1.2.6"/><path clip-path="url(#l)" fill="#BBC7BD" d="M9.6 45.6c-2-1.5-3.8-3.2-5.2-5.2.2.2.4.5.6.7l.8 1c.4.4.9 1 1.3 1.4.6.6 1.5 1.3 2.2 1.8l.3.3m-5.5-6c-.2-.2-.3-.2-.4-.3.1.1.2.3.3.4 0 0 .1 0 .2.1-.1-.1-.2-.2-.2-.3 0 0 .1 0 .1.1"/><path clip-path="url(#l)" fill="#D1C9B2" d="M4.4 40.4c-.1 0-.1 0 0 0-.1 0 0 0 0 0m-.6-.8s.1 0 .2.1c-.1-.1-.2-.3-.3-.4-.1-.1-.2-.1-.2-.1l.3.4"/><path clip-path="url(#l)" fill="#6099B5" d="M12.4 47.3c-.1 0-.1-.1-.2-.1-.1-.1-.2-.1-.2-.1-.2-.1-.3-.2-.5-.3l.7.4c0 .1.1.1.2.1m-.2-.1c-.1-.1-.3-.1-.4-.2.1.1.2.1.4.2m-1.7-.9l-.9-.6-.4-.3.6.5.4.3.3.1m-6.7-6.7l-.3-.4c.3.5.8 1.1 1.1 1.6l1.1 1.3-.8-1-.6-.7c-.2-.3-.3-.5-.5-.8m.6.3l-.2-.4c-.1 0-.1 0-.2-.1l.1.1c-.1 0-.1-.1-.2-.1.1.1.1.2.2.3.2.1.2.2.3.2"/><path clip-path="url(#l)" fill="#EDEDEE" d="M12.6 47.4c-.1 0-.1 0 0 0l-.3-.2.1.1c0 .1.1.1.2.1M12.6 47.4"/><path clip-path="url(#l)" fill="#67A8C1" d="M12.5 47.3c-1-.8-1.6-2.3-1.7-4.4.2 2.1.7 3.7 1.7 4.4"/><path clip-path="url(#l)" fill="#67A8C1" d="M10.8 43c-2.1-1-3.8-1.8-5-2.4 1.4 2.7 3.4 4.9 6 6.4-2.8-1.6-4.9-4-6.3-6.9.1 0 .1 0 .2.1 1.3.6 3 1.4 5.2 2.5-.1.1-.1.2-.1.3"/><path clip-path="url(#l)" fill="#6099B5" d="M12.8 47.5c-.2-.1-.3-.1-.4-.2l-.6-.3c.1.1.2.1.4.2.1.1.3.2.6.3-.1 0-.1 0 0 0M12.7 47.5l-.1-.1.1.1"/><path clip-path="url(#l)" fill="#EDEDEE" d="M12.8 47.6c-.1-.1-.2-.1-.3-.1-.1 0-.1-.1-.2-.1.2 0 .3 0 .5.2 0-.1 0-.1 0 0M12.8 47.6h.1-.1"/><path clip-path="url(#l)" fill="#67A8C1" d="M11.1 43.1c.9.4 1.7.8 2.6 1.3l-.1-.4c-.8-.4-1.7-.8-2.5-1.2 0 0-.1 0-.1-.1 0 0-.1 0-.1-.1.1 2.2.7 3.9 1.7 4.7-1-.7-1.4-2.2-1.5-4.2m2.4 4.7c1 .2 2.4-.4 3.9-1.7-1.6 1.3-2.9 1.9-3.9 1.7m3.9-1.7c.1-.1.2-.1.2-.2-.7-.3-1.4-.7-2.1-1l-.8-.2h-.2c1 .5 1.9 1 2.9 1.4"/><path clip-path="url(#l)" fill="#BBC7BD" d="M14.1 44.3c0-.1.1 0 .1 0h-.1"/><path clip-path="url(#l)" fill="#6099B5" d="M13.2 47.7c-.1-.1-.3-.1-.5-.2-.1 0-.2-.1-.2-.2l.1.1c.3.2.5.3.6.3.1.1.1 0 0 0M13.3 47.8h0M14.7 44.7h-.2c-.2-.1-.5-.2-.8-.4l-.1-.3c.2.1.3.2.5.2v.1h.1l1.2.6-.7-.2"/><path clip-path="url(#l)" fill="#EDEDEE" d="M13.2 47.7c-.1 0-.2-.1-.3-.2h-.1c.1.1.3.2.4.2M13.2 47.7"/><path clip-path="url(#l)" fill="#67A8C1" d="M14.2 48.2c2.7 1 5.6 1.1 8.5.5-2.9.6-5.8.4-8.5-.5M22.7 48.6c-1.3-.6-3.1-1.5-5.1-2.4-1.6 1.2-3 1.8-4.1 1.6 1.1.2 2.5-.5 4.1-1.9.1 0 .2.1.3.1 2 1 3.9 1.9 5.3 2.5-.2.1-.4.1-.5.1"/><path clip-path="url(#l)" fill="#6099B5" d="M13.6 47.9c-.1 0-.2-.1-.4-.2.1 0 .1 0 .2.1h-.2c.2.1.4.2.5.2.1 0 0 0-.1-.1M13.8 48c.1.1.3.1.4.1-.1 0-.2 0-.4-.1"/><path clip-path="url(#l)" fill="#EDEDEE" d="M13.4 47.8c-.1 0-.2-.1-.3-.1h.1c.2.1.3.1.4.2l-.2-.1M13.4 47.8"/><path clip-path="url(#l)" fill="#67A8C1" d="M22.9 48.7c-2.9.6-5.9.5-8.6-.6 2.8 1 5.9 1.1 8.9.4.1 0 .1.1.2.1.7.3 1.3.6 1.7.8.3.2.5.2.6.3h-.5c-.1 0-.2-.1-.6-.3-.5-.1-1.1-.3-1.7-.7"/><path clip-path="url(#l)" fill="#6099B5" d="M13.8 48c-.1 0-.1-.1-.2-.1.2.1.4.2.6.2-.1 0-.2 0-.4-.1.1 0 .2.1.2.1h.1c-.1 0-.2-.1-.3-.1M14.1 48.1c.2.1.3.1.5.2-.2 0-.4-.1-.5-.2M25 49.8h.5c-.1-.1-.3 0-.5 0"/><path clip-path="url(#l)" fill="#EDEDEE" d="M13.6 47.9s-.1 0 0 0c0 0-.1 0-.1-.1l.1.1c.1.1.2.1.2.1-.1 0-.2-.1-.2-.1"/><path clip-path="url(#l)" fill="#67A8C1" d="M14.6 48.3c3.4 1.3 6.9 1.8 10.3 1.5h.2c-3.6.3-7.1-.1-10.5-1.5"/><path clip-path="url(#l)" fill="#BBC7BD" d="M25.6 49.7h-.1"/><path clip-path="url(#l)" fill="#6099B5" d="M13.8 48c.2.1.5.2.7.3-.2-.1-.3-.1-.5-.2l-.2-.1M25.1 49.8h.6c-.3-.1-.5 0-.6 0h-.2.2"/><path clip-path="url(#l)" fill="#EDEDEE" d="M13.6 47.9c.1 0 .2.1.2.1l-.2-.1"/></g></g><path fill="#B69C5B" d="M48.7 17.2c-2.5-7.1-7.7-12.7-14.5-16L33 3.9s.1 0 .1.1l.4-1c6.3 3 11.1 8.3 13.5 14.9 2.4 6.6 2 13.7-1 20.1-3 6.3-8.3 11.1-14.9 13.5-3.7 1.3-7.5 1.8-11.3 1.4-3-.3-6-1.1-8.8-2.4l.4-.8s-.1 0-.1-.1l-1.2 2.6c3 1.4 6.2 2.3 9.4 2.6 4 .4 8.1-.1 12.1-1.6 7.1-2.5 12.7-7.7 16-14.5 3.2-6.7 3.6-14.4 1.1-21.5"/><path fill="#9E7E64" d="M19.9 53c3.8.3 7.6-.1 11.3-1.4 6.6-2.4 11.9-7.2 14.9-13.5s3.3-13.5 1-20.1c-2.4-6.7-7.2-12-13.6-15l-.4.9c6.1 2.9 10.6 8 12.9 14.3 2.3 6.4 2 13.2-.9 19.4-2.9 6.1-8 10.7-14.3 13-6.3 2.3-13.1 2-19.2-.9l-.4.8c2.7 1.4 5.7 2.2 8.7 2.5"/><path fill="#B69C5B" d="M4.9 62.8h34.3v1.4H4.9z"/><path fill="#B69C5B" d="M37.6 63.4c0 .5-.4.8-1 .8h-29c-.5 0-1-.4-1-.8v-1c0-.5.4-.8 1-.8h29c.5 0 1 .4 1 .8v1z"/><g><defs><path id="m" d="M6.6 62.4h31v.4h-31z"/></defs><clipPath id="n"><use xlink:href="#m" overflow="visible"/></clipPath><path clip-path="url(#n)" fill="#B69C5B" d="M6.6 62.7s.5 0 1.3-.1c.8 0 2.1-.1 3.5-.2 1.5 0 3.1-.1 5-.1 1.8 0 3.8 0 5.7-.1 1.9 0 3.9 0 5.7.1 1.8 0 3.5.1 5 .1s2.7.1 3.5.2c.8 0 1.3.1 1.3.1h-31z"/></g></svg>