<svg xmlns="http://www.w3.org/2000/svg" xmlns:xlink="http://www.w3.org/1999/xlink" width="29.6" height="78.8" viewBox="0 0 29.6 78.8"><path fill="#BDBCBC" d="M11.8 2.8h-1.1s.1-.7.5-.7h.5v.7z"/><path fill="#231F20" d="M11.8 2.8h-1.1s.1.7.5.7h.5v-.7z"/><path fill="#9C9A9B" d="M11.8 2.6h.5V3h-.5z"/><path fill="#BDBCBC" d="M11.8 5.9h-1.1s.1-.7.5-.7h.5v.7z"/><path fill="#231F20" d="M11.8 5.9h-1.1s.1.7.5.7h.5v-.7z"/><path fill="#9C9A9B" d="M11.8 5.7h.5v.4h-.5z"/><path fill="#BDBCBC" d="M11.8 8.9h-1.1s.1-.7.5-.7h.5v.7z"/><path fill="#231F20" d="M11.8 8.9h-1.1s.1.7.5.7h.5v-.7z"/><path fill="#9C9A9B" d="M11.8 8.7h.5v.4h-.5z"/><path fill="#BDBCBC" d="M17.8 2.8h1.1s-.1-.7-.5-.7h-.5v.7z"/><path fill="#231F20" d="M17.8 2.8h1.1s-.1.7-.5.7h-.5v-.7z"/><path fill="#9C9A9B" d="M17.3 2.6h.5V3h-.5z"/><path fill="#BDBCBC" d="M17.8 5.9h1.1s-.1-.7-.5-.7h-.5v.7z"/><path fill="#231F20" d="M17.8 5.9h1.1s-.1.7-.5.7h-.5v-.7z"/><path fill="#9C9A9B" d="M17.3 5.7h.5v.4h-.5z"/><path fill="#BDBCBC" d="M17.8 8.9h1.1s-.1-.7-.5-.7h-.5v.7z"/><path fill="#231F20" d="M17.8 8.9h1.1s-.1.7-.5.7h-.5v-.7z"/><path fill="#9C9A9B" d="M17.3 8.7h.5v.4h-.5z"/><path fill="#DFAE57" d="M29 66.3c-.5-1.4-2.6-6.6-2.6-6.6S25 56.8 25 54.9s.6-4.5.7-5.3 1.7-7.8-6.5-7.8h-8.8c-8.2 0-6.6 7-6.5 7.8.1.8.7 3.4.7 5.3s-1.4 4.8-1.4 4.8-2.1 5.1-2.6 6.6c-.5 1.4-.4 3.4-.4 3.4.8 9.8 12.2 8.8 12.2 8.8H17.2s11.4 1 12.2-8.8c0 0 .1-1.9-.4-3.4"/><path fill="#9E7E64" d="M29.2 66.3c-.5-1.4-2.6-6.5-2.6-6.6 0 0-1.4-2.9-1.4-4.7 0-1.5.4-3.4.6-4.5.1-.3.1-.5.1-.7v-.1c.3-2 .1-3.4-.3-4.5l-.3.3c.3 1 .5 2.3.2 4.1v.1c0 .2-.1.4-.1.7-.2 1.2-.6 3.1-.6 4.6 0 1.9 1.4 4.8 1.4 4.9 0 .1 2.1 5.2 2.6 6.6.5 1.4.3 3.3.3 3.3-.7 8.1-8.7 8.7-11.2 8.7h-5.6-.8c-1.7 0-6.2-.3-9-3.3l-.2.3c2.8 3.1 7.5 3.4 9.2 3.4H18c2.5 0 10.8-.7 11.6-9 0-.3.1-2.2-.4-3.6"/><path fill="#C5B1A2" d="M.4 69.7s-.2-1.9.3-3.3 2.6-6.5 2.6-6.6c.1-.1 1.4-3 1.4-4.9 0-1.5-.4-3.4-.6-4.6 0-.3 0-.5-.1-.7v-.1c-.5-3 .3-4.7 1-5.6 1.1-1.3 2.9-1.9 5.3-1.9h8.8c2.5 0 4.2.6 5.3 1.9.3.4.6.9.8 1.5l.3-.3c-.2-.6-.5-1.1-.8-1.4-1.1-1.4-3-2.1-5.6-2.1h-8.8c-2.6 0-4.5.7-5.6 2.1-.8 1-1.6 2.7-1.1 5.9v.1c0 .2.1.4.1.7.2 1.1.6 3.1.6 4.5 0 1.8-1.4 4.7-1.4 4.8 0 .1-2.1 5.2-2.6 6.6-.4 1.4-.3 3.3-.3 3.4.2 2.5 1.1 4.3 2.3 5.6l.3-.3c-1.2-1.2-2-2.9-2.2-5.3"/><defs><path id="a" d="M9.6 47.9H20v10.4H9.6z"/></defs><clipPath id="b"><use xlink:href="#a" overflow="visible"/></clipPath><circle clip-path="url(#b)" fill="none" stroke="#9E7E64" stroke-width=".147" stroke-miterlimit="10" cx="14.8" cy="53.1" r="5.1"/><defs><path id="c" d="M10.1 48.4h9.4v9.4h-9.4z"/></defs><clipPath id="d"><use xlink:href="#c" overflow="visible"/></clipPath><circle clip-path="url(#d)" fill="none" stroke="#231F20" stroke-width=".447" stroke-miterlimit="10" cx="14.8" cy="53.1" r="4.5"/><defs><path id="e" d="M10.9 49.2h7.8V57h-7.8z"/></defs><clipPath id="f"><use xlink:href="#e" overflow="visible"/></clipPath><path clip-path="url(#f)" fill="#72583C" d="M18.7 53.1c0 2.2-1.8 3.9-3.9 3.9-2.2 0-3.9-1.8-3.9-3.9 0-2.2 1.8-3.9 3.9-3.9 2.2 0 3.9 1.7 3.9 3.9"/><defs><path id="g" d="M10.9 49.2h7.8v6.7h-7.8z"/></defs><clipPath id="h"><use xlink:href="#g" overflow="visible"/></clipPath><path clip-path="url(#h)" fill="#231F20" d="M11.9 55.1c0-2.2 1.8-3.9 3.9-3.9 1.1 0 2.1.4 2.8 1.1-.4-1.8-1.9-3.2-3.8-3.2-2.2 0-3.9 1.8-3.9 3.9 0 1.1.4 2.1 1.1 2.8 0-.2-.1-.4-.1-.7"/><defs><path id="i" d="M10.9 53.1h7.9v4h-7.9z"/></defs><clipPath id="j"><use xlink:href="#i" overflow="visible"/></clipPath><path clip-path="url(#j)" fill="#72583C" d="M18.7 53.1c.1 1-.3 2.1-1.1 2.8-.7.8-1.8 1.2-2.8 1.2-1.1 0-2.1-.5-2.8-1.2-.7-.7-1.1-1.8-1.1-2.8 0 1 .4 2 1.1 2.8.7.7 1.7 1.1 2.8 1.1 1 0 2-.4 2.8-1.1.7-.8 1.1-1.8 1.1-2.8z"/><path fill="#231F20" d="M20.2 62.8H9.4c-.5 0-.6.6-.6 1.2s.2.6.2.6.3-.2 1.4-.2c1.1 0 1.8.6 1.8.6.9.8 2.5.9 2.5.9s1.6 0 2.5-.9c0 0 .7-.6 1.8-.6s1.4.2 1.4.2.2 0 .2-.6c.1-.6 0-1.2-.4-1.2"/><path fill="#72583C" d="M14.8 49.2c.8 0 1.5.2 2.1.6l-.5-37.2h-3.2l-.5 37.2c.6-.4 1.3-.6 2.1-.6"/><defs><path id="k" d="M16.2 12.6h.7v37.2h-.7z"/></defs><clipPath id="l"><use xlink:href="#k" overflow="visible"/></clipPath><path clip-path="url(#l)" fill="#72583C" d="M16.9 49.8l-.5-37.2h-.2l.4 37c.1.1.2.1.3.2"/><defs><path id="m" d="M12.7 12.6h.7v37.2h-.7z"/></defs><clipPath id="n"><use xlink:href="#m" overflow="visible"/></clipPath><path clip-path="url(#n)" fill="#72583C" d="M13.4 12.6h-.2l-.5 37.2c.1-.1.2-.1.3-.1l.4-37.1z"/><path fill="#231F20" d="M14.8 0c-1.5 0-2.7.3-2.7.3l.2 10.3c.9.9.9 2 .9 2h3.2s0-1.1.9-2L17.5.3S16.3 0 14.8 0"/><path fill="#9C9A9B" d="M13.3 2.9l-.4-.4c-.1.1-.2.2-.2.4 0 .3.3.6.6.6s.6-.3.6-.6c0-.2-.1-.3-.2-.4l-.4.4z"/><path fill="#BDBCBC" d="M13.7 2.5c-.1-.1-.2-.2-.4-.2s-.3.1-.4.2l.4.4.4-.4z"/><defs><path id="o" d="M12.9 2.5h.7v.8h-.7z"/></defs><clipPath id="p"><use xlink:href="#o" overflow="visible"/></clipPath><path clip-path="url(#p)" fill="#9C9A9B" d="M13.6 2.9c0 .2-.1.4-.4.4-.2 0-.4-.2-.4-.4s.2-.4.4-.4c.3-.1.5.2.4.4m0 0c0-.2-.2-.3-.3-.3-.1 0-.3.1-.3.3 0 .2.1.3.3.3.1-.1.3-.1.3-.3"/><path fill="#9C9A9B" d="M13.4 5.9l-.4-.4c-.1.1-.2.2-.2.4 0 .3.3.6.6.6s.6-.2.6-.6c0-.2-.1-.3-.2-.4l-.4.4z"/><path fill="#BDBCBC" d="M13.8 5.5c-.1-.1-.2-.2-.4-.2s-.3.1-.4.2l.4.4.4-.4z"/><defs><path id="q" d="M13 5.5h.7v.8H13z"/></defs><clipPath id="r"><use xlink:href="#q" overflow="visible"/></clipPath><path clip-path="url(#r)" fill="#9C9A9B" d="M13.7 5.9c0 .2-.1.4-.4.4-.2 0-.4-.2-.4-.4s.2-.4.4-.4c.3 0 .5.3.4.4m0 0c0-.2-.2-.3-.3-.3-.1 0-.3.1-.3.3 0 .2.1.3.3.3.1 0 .3-.1.3-.3"/><path fill="#9C9A9B" d="M13.6 9l-.4-.4c-.1.1-.2.3-.2.4 0 .3.3.6.6.6s.6-.3.6-.6c0-.2-.1-.3-.2-.4l-.4.4z"/><path fill="#BDBCBC" d="M14 8.6c-.1-.1-.2-.2-.4-.2s-.3.1-.4.2l.4.4.4-.4z"/><defs><path id="s" d="M13.2 8.6h.7v.8h-.7z"/></defs><clipPath id="t"><use xlink:href="#s" overflow="visible"/></clipPath><path clip-path="url(#t)" fill="#9C9A9B" d="M13.9 9c0 .2-.1.4-.3.4-.2 0-.4-.2-.4-.4s.2-.4.4-.4.3.2.3.4m0 0c0-.2-.2-.3-.3-.3-.1 0-.3.1-.3.3 0 .2.1.3.3.3.1 0 .3-.1.3-.3"/><path fill="#9C9A9B" d="M16.3 2.9l.4-.4c.1.1.2.2.2.4 0 .3-.3.6-.6.6s-.6-.3-.6-.6c0-.2.1-.3.2-.4l.4.4z"/><path fill="#BDBCBC" d="M15.9 2.5c.1-.1.2-.2.4-.2s.3.1.4.2l-.4.4-.4-.4z"/><g><defs><path id="u" d="M15.9 2.5h.7v.8h-.7z"/></defs><clipPath id="v"><use xlink:href="#u" overflow="visible"/></clipPath><path clip-path="url(#v)" fill="#9C9A9B" d="M16 2.9c0 .2.2.3.3.3.2 0 .3-.1.3-.3 0-.2-.2-.3-.3-.3-.1 0-.3.1-.3.3m-.1 0c0-.2.1-.4.3-.4.2 0 .4.2.4.4s-.2.4-.4.4-.3-.3-.3-.4"/></g><path fill="#9C9A9B" d="M16.2 5.9l.4-.4c.1.1.2.2.2.4 0 .3-.3.6-.6.6s-.6-.3-.6-.6c0-.2.1-.3.2-.4l.4.4z"/><path fill="#BDBCBC" d="M15.8 5.5c.1-.1.2-.2.4-.2s.3.1.4.2l-.4.4-.4-.4z"/><g><defs><path id="w" d="M15.8 5.5h.7v.8h-.7z"/></defs><clipPath id="x"><use xlink:href="#w" overflow="visible"/></clipPath><path clip-path="url(#x)" fill="#9C9A9B" d="M15.8 5.9c0 .2.2.3.3.3.2 0 .3-.1.3-.3 0-.2-.2-.3-.3-.3l-.3.3m0 0c0-.2.1-.4.3-.4.2 0 .4.2.4.4s-.2.4-.4.4c-.2.1-.3-.2-.3-.4"/></g><path fill="#9C9A9B" d="M16 9l.4-.4c.1.1.2.2.2.4 0 .3-.3.6-.6.6s-.6-.3-.6-.6c0-.2.1-.3.2-.4l.4.4z"/><path fill="#BDBCBC" d="M15.6 8.6c.1-.1.2-.2.4-.2s.3.1.4.2L16 9l-.4-.4z"/><g><defs><path id="y" d="M15.7 8.6h.7v.8h-.7z"/></defs><clipPath id="z"><use xlink:href="#y" overflow="visible"/></clipPath><path clip-path="url(#z)" fill="#9C9A9B" d="M15.7 9c0 .2.2.3.3.3.2 0 .3-.1.3-.3 0-.2-.2-.3-.3-.3-.1.1-.3.1-.3.3m0 0c0-.2.1-.4.3-.4.2 0 .4.2.4.4s-.2.4-.4.4-.4-.2-.3-.4"/></g><g><defs><path id="A" d="M12.8 15.9h4.1v31.3h-4.1z"/></defs><clipPath id="B"><use xlink:href="#A" overflow="visible"/></clipPath><path clip-path="url(#B)" fill="#E7E6E7" d="M13 31.5h3.7v.1H13zM13 29.5h3.6v.1H13zM12.9 33.3h3.7v.1h-3.7zM12.9 39.3h3.9v.1h-3.9zM12.9 36.5h3.8v.1h-3.8zM12.8 43h4v.1h-4zM12.8 44.1h4v.1h-4zM12.8 41.8h3.9v.1h-3.9zM12.9 38h3.8v.1h-3.8zM12.9 34.9h3.7v.1h-3.7zM13.1 21.3h3.4v.1h-3.4zM13.1 23.4h3.4v.1h-3.4zM13 25.6h3.5v.1H13zM13.2 15.9h3.3v.1h-3.3zM13.1 18.6h3.3v.1h-3.3zM13 27.6h3.6v.1H13zM12.8 47h4.1v.1h-4.1zM12.8 45.1h4v.1h-4zM12.8 40.6h3.9v.1h-3.9zM12.8 46.1h4v.1h-4z"/></g><path fill="#E7E6E7" d="M12.9 64.5c0 .1-.1.2-.2.2s-.2-.1-.2-.2.1-.2.2-.2.2.1.2.2M13.7 64.5c0 .1-.1.2-.2.2s-.2-.1-.2-.2.1-.2.2-.2c.2 0 .2.1.2.2M14.6 64.5c0 .1-.1.2-.2.2s-.2-.1-.2-.2.1-.2.2-.2.2.1.2.2M15.4 64.5c0 .1-.1.2-.2.2s-.2-.1-.2-.2.1-.2.2-.2.2.1.2.2M16.2 64.5c0 .1-.1.2-.2.2s-.2-.1-.2-.2.1-.2.2-.2.2.1.2.2M17.1 64.5c0 .1-.1.2-.2.2s-.2-.1-.2-.2.1-.2.2-.2.2.1.2.2"/><path fill="none" stroke="#F3EFD9" stroke-width=".148" stroke-miterlimit="10" d="M12.7 64.4l.7-51.8V9M13.6 64.4l.3-51.8-.3-6.8"/><path fill="none" stroke="#F3EFD9" stroke-width=".148" stroke-miterlimit="10" d="M13.6 2.6l.9 10.1-.2 51.7M16.9 64.4l-.7-51.8V9M16 64.4l-.4-51.8.4-6.8"/><path fill="none" stroke="#F3EFD9" stroke-width=".148" stroke-miterlimit="10" d="M16 2.6l-.9 10.1.1 51.7"/></svg>