<svg xmlns="http://www.w3.org/2000/svg" xmlns:xlink="http://www.w3.org/1999/xlink" width="57.4" height="58.6" viewBox="0 0 57.4 58.6"><path fill="#D3D2D2" d="M51.3 49.6c1.1-3.8 1.2-9 4.1-10.4 1.6 3.3 0 9.2-1.6 12.2-.4.3-.8.7-1.2 1-.8-.6-1-1.7-1.3-2.8M6 49.6c-1.1-3.8-1.2-9-4.1-10.4-1.6 3.3 0 9.2 1.6 12.2.4.3.8.7 1.2 1 .9-.6 1.1-1.7 1.3-2.8"/><path fill="#252A26" d="M56.7 25.4C54.5 11.2 45.8 1.7 32.6.2 31.2.1 30 0 28.7 0c-1.2 0-2.5.1-3.9.2C11.6 1.7 3 11.2.7 25.4.4 27.2.1 29 .1 30.9c-.2 1.6 1.6 1 1.5 2.5 0 7 .9 13 2.7 18.2.4 1.5 1.1 4.3 2.7 3.4 2.1-.6 0-3.3-.3-4.4-.9-2.9-1.6-6.2-2-9.7-.3-2.4-.4-4.9-.4-7.6.1-1.3-1.5-.9-1.4-2.3 0-1.7.3-3.4.6-5 2-13.1 9.8-21.8 21.7-23.2 1.2-.1 2.4-.2 3.5-.2s2.3.1 3.5.2C44.1 4.1 51.9 12.9 53.9 26c.3 1.6.6 3.3.6 5 .2 1.4-1.5.9-1.4 2.3 0 2.7-.1 5.2-.4 7.6-.4 3.5-1 6.8-2 9.7-.3 1.1-2.4 3.8-.3 4.4 1.6.8 2.3-2 2.7-3.4 1.8-5.1 2.7-11.2 2.7-18.2-.1-1.5 1.7-1 1.5-2.5 0-1.8-.3-3.7-.6-5.5"/><path fill="#918F90" d="M54.5 31c0-1.7-.3-3.4-.6-5-2-13.1-9.8-21.8-21.7-23.2-1.2-.1-2.4-.2-3.5-.2s-2.3.1-3.5.2C13.3 4.1 5.5 12.9 3.5 26c-.3 1.6-.6 3.3-.6 5-.2 1.4 1.5.9 1.4 2.3 0 2.7.1 5.2.4 7.6-.3-2.4-.4-4.9-.4-7.5-.2-1.5 1.3-1.4 1.5-2.5.1-1.9.3-3.5.6-5.5 2.5-12 9.2-19.3 22.3-20.1 13.1.8 19.8 8.2 22.3 20.2.3 2 .5 3.5.6 5.5.2 1.1 1.7 1 1.5 2.5 0 2.6-.2 5.1-.4 7.5.3-2.4.4-4.9.4-7.6-.1-1.4 1.6-1 1.4-2.4"/><path fill="#252A26" d="M16.4 53.3c-1.4-7.2-.5-16.7-5.6-20-3.7 5.7-1.7 16.9.6 22.8.7.6 1.3 1.4 2 2.1 1.7-.9 2.3-3 3-4.9"/><path fill="#D3D2D2" d="M11.4 56.1c-.9-2.3-1.7-5.4-2.2-8.6H4.8c.4 2.9 1.2 5.6 2 7.7 1.5 1.3 2.3 3.2 4.8 3.5.7 0 1.3-.2 1.8-.4-.7-.8-1.3-1.6-2-2.2M10.8 33.3c-.1 0-.1 0 0 0-1.3-.1-2.3-.1-3.1.2-1.9 1.5-2.8 4-3.1 6.9h4.3c.1-2.6.7-5.2 1.9-7.1"/><path fill="#E9E9E9" d="M8.9 45.5H4.6c.1.7.1 1.3.2 2h4.4c-.1-.7-.2-1.3-.3-2M8.8 41.5c0-.3 0-.7.1-1H4.6c0 .3-.1.7-.1 1h4.3z"/><path fill="#F4F4F4" d="M4.5 41.5c-.1 1.3 0 2.6.1 4H9c-.1-1.3-.2-2.7-.2-4H4.5z"/><defs><path id="a" d="M8.8 38.1h4.1v15.3H8.8z"/></defs><clipPath id="b"><use xlink:href="#a" overflow="visible"/></clipPath><path clip-path="url(#b)" fill="#252A26" d="M9.1 38.1c-.8 4.7.1 10.6 1.4 15.1 0 .1.1.1.1.2 1.1-.5 1.9-1.8 2.3-3-.8-4.4-.7-10.3-3.8-12.3"/><path fill="#918F90" d="M4.3 33.3c.7 0 1.3-.6 1.3-1.9 0-1.3-.6-1.9-1.3-1.9h-3c-.7 0-1.3.6-1.3 1.9 0 1.3.6 2.1 1.3 2.1"/><path fill="#D3D2D2" d="M0 31.4v.1h5.5v-.1c0-.3 0-.6-.1-.9H.1c-.1.2-.1.5-.1.9"/><path fill="#918F90" d="M5.6 31.2c0 1.2-.6 2.1-1.3 2.1-.7 0-1.3-.9-1.3-2.1 0-1.2.6-2.1 1.3-2.1.7 0 1.3.9 1.3 2.1"/><path fill="#F4F4F4" d="M5.3 31.2c0 .9-.5 1.6-1 1.6-.6 0-1-.7-1-1.6 0-.9.5-1.6 1-1.6.5-.1 1 .7 1 1.6"/><path fill="#D3D2D2" d="M4.7 31.2c0 .7-.3 1.3-.6 1.3s-.6-.6-.6-1.3.3-1.3.6-1.3.6.6.6 1.3"/><path fill="#252A26" d="M41 53.3c1.4-7.2.5-16.7 5.6-20 3.6 5.7 1.7 16.9-.6 22.8-.7.6-1.3 1.4-2 2.1-1.7-.9-2.3-3-3-4.9"/><path fill="#D3D2D2" d="M46 56.1c.9-2.3 1.7-5.4 2.2-8.6h4.4c-.4 2.9-1.2 5.6-2 7.7-1.5 1.3-2.3 3.2-4.8 3.5-.7 0-1.3-.2-1.8-.4.7-.8 1.3-1.6 2-2.2M46.6 33.3s.1 0 0 0c1.3-.1 2.3-.1 3.1.2 1.9 1.5 2.8 4 3.1 6.9h-4.3c-.1-2.6-.7-5.2-1.9-7.1"/><path fill="#E9E9E9" d="M48.4 45.5h4.4c-.1.7-.1 1.3-.2 2h-4.4c.1-.7.2-1.3.2-2M48.6 41.5c0-.3 0-.7-.1-1h4.3c0 .3.1.7.1 1h-4.3z"/><path fill="#F4F4F4" d="M52.9 41.5c.1 1.3 0 2.6-.1 4h-4.4c.1-1.3.2-2.7.2-4h4.3z"/><defs><path id="c" d="M44.5 38.1h4.1v15.3h-4.1z"/></defs><clipPath id="d"><use xlink:href="#c" overflow="visible"/></clipPath><path clip-path="url(#d)" fill="#252A26" d="M48.3 38.1c.8 4.7-.1 10.6-1.4 15.1 0 .1-.1.1-.1.2-1.1-.5-1.9-1.8-2.3-3 .8-4.4.7-10.3 3.8-12.3"/><path fill="#918F90" d="M53.1 33.3c-.7 0-1.3-.6-1.3-1.9 0-1.3.6-1.9 1.3-1.9h3c.7 0 1.3.6 1.3 1.9 0 1.3-.6 2.1-1.3 2.1"/><path fill="#D3D2D2" d="M57.4 31.4v.1h-5.5v-.1c0-.3 0-.6.1-.9h5.3c0 .2.1.5.1.9"/><path fill="#918F90" d="M51.8 31.2c0 1.2.6 2.1 1.3 2.1.7 0 1.3-.9 1.3-2.1 0-1.2-.6-2.1-1.3-2.1-.7 0-1.3.9-1.3 2.1"/><path fill="#F4F4F4" d="M52.1 31.2c0 .9.5 1.6 1 1.6s1-.7 1-1.6c0-.9-.5-1.6-1-1.6s-1 .7-1 1.6"/><path fill="#D3D2D2" d="M52.7 31.2c0 .7.3 1.3.6 1.3s.6-.6.6-1.3-.3-1.3-.6-1.3-.6.6-.6 1.3"/></svg>