<svg xmlns="http://www.w3.org/2000/svg" xmlns:xlink="http://www.w3.org/1999/xlink" width="63.8" height="62.7" viewBox="0 0 63.8 62.7"><path fill="#D2B48C" d="M53.6 1.5c-1.8-1.8-4.7-1.8-6.5-.1H47C42.8 4.6 38.7 8 34.8 11.6l-1.5 1.3c-.5.4-1 .9-1.5 1.3l-2.9 2.7c-1.9 1.8-3.8 3.7-5.7 5.5-1.9 1.9-3.8 3.7-5.6 5.6l-2.8 2.9-1.4 1.4-1.4 1.5c-3.6 3.9-7.1 7.9-10.4 12.1l.1.1c-1.8 1.8-1.8 4.7-.1 6.5L7.8 55l2.4 6.3c1.7 1.7 4.3 1.8 6.1.4l.1.1c4.3-3.2 8.3-6.6 12.3-10.2l1.5-1.3c.5-.4 1-.9 1.5-1.3l2.9-2.7c1.9-1.8 3.8-3.7 5.7-5.5 1.9-1.9 3.8-3.7 5.6-5.6l2.8-2.9 1.4-1.4 1.3-1.5c3.6-3.9 7.1-7.9 10.4-12.1l-.1-.1.4-.4c1.8-1.8 1.8-4.7.1-6.5L56 7.8l-2.4-6.3z"/><defs><path id="a" d="M1.6 1.5h52v51h-52z"/></defs><clipPath id="b"><use xlink:href="#a" overflow="visible"/></clipPath><path clip-path="url(#b)" fill="#D2B48C" d="M1.6 52.4L8 46l6.5-6.4 12.9-12.8 13.1-12.7L47 7.8l6.6-6.3-52 51"/><defs><path id="c" d="M10.1 10.2h52v51h-52z"/></defs><clipPath id="d"><use xlink:href="#c" overflow="visible"/></clipPath><path clip-path="url(#d)" fill="#D2B48C" d="M62.2 10.2l-6.4 6.5-6.5 6.4-12.9 12.8-13.1 12.7-6.5 6.3-6.6 6.3h-.1l52-51"/><g opacity=".3"><defs><path id="e" d="M1.8 1.2h45.6v44.6H1.8z"/></defs><clipPath id="f"><use xlink:href="#e" overflow="visible"/></clipPath><path clip-path="url(#f)" fill="#D2B48C" d="M1.8 45.7c1.6-2.1 3.4-4.1 5.1-6.2 1.8-2 3.5-4 5.3-5.9 1.8-2 3.7-3.8 5.5-5.8l5.6-5.6 5.7-5.5c2-1.8 3.9-3.6 5.9-5.4 2-1.8 4-3.5 6-5.2 2.1-1.7 4.1-3.4 6.3-5l.1.1-22.6 22.5L1.9 45.8l-.1-.1z"/></g><g opacity=".6"><defs><path id="g" d="M16.5 16.9h45.6v44.6H16.5z"/></defs><clipPath id="h"><use xlink:href="#g" overflow="visible"/></clipPath><path clip-path="url(#h)" fill="#D2B48C" d="M62 17.1c-1.6 2.1-3.4 4.1-5.1 6.2-1.8 2-3.5 4-5.3 5.9-1.8 2-3.7 3.8-5.5 5.8l-5.6 5.6-5.7 5.4c-2 1.8-3.9 3.6-5.9 5.4-2 1.8-4 3.5-6 5.2-2.1 1.7-4.1 3.4-6.3 5l-.1-.1 22.6-22.3L61.9 17l.1.1z"/></g><path fill="#D6543B" d="M62.5 2.3c1.8 1.8 1.7 4.7-.1 6.5L8.7 61.4c-1.8 1.8-4.7 1.7-6.5-.1l-.9-.9c-1.8-1.8-1.7-4.7.1-6.5L55.1 1.3c1.8-1.8 4.7-1.7 6.5.1l.9.9z"/><g opacity=".7"><defs><path id="i" d="M1.6 1.5h60.6v59.7H1.6z"/></defs><clipPath id="j"><use xlink:href="#i" overflow="visible"/></clipPath><g clip-path="url(#j)"><defs><path id="k" d="M9.9 9.9h52.4v51.3H9.9z"/></defs><clipPath id="l"><use xlink:href="#k" overflow="visible"/></clipPath><path clip-path="url(#l)" fill="#D2B48C" d="M10.2 61.2l52-50.9-.9-.4L9.9 60.3l.3.9z"/></g><g clip-path="url(#j)"><defs><path id="m" d="M1.6 1.5H54v51.3H1.6z"/></defs><clipPath id="n"><use xlink:href="#m" overflow="visible"/></clipPath><path clip-path="url(#n)" fill="#D2B48C" d="M53.6 1.5l-52 50.9.9.4L54 2.5l-.4-1z"/></g></g><defs><path id="o" d="M9.9 9.9h51.9v50.9H9.9z"/></defs><clipPath id="p"><use xlink:href="#o" overflow="visible"/></clipPath><path clip-path="url(#p)" fill="#D2B48C" d="M9.9 60.3l.1.5 51.8-50.7-.5-.2"/><defs><path id="q" d="M9.9 9.9h51.9v50.9H9.9z"/></defs><clipPath id="r"><use xlink:href="#q" overflow="visible"/></clipPath><path clip-path="url(#r)" fill="#D2B48C" d="M9.9 60.3l.1.5 51.8-50.7-.5-.2"/><defs><path id="s" d="M2.1 2H54v50.9H2.1z"/></defs><clipPath id="t"><use xlink:href="#s" overflow="visible"/></clipPath><path clip-path="url(#t)" fill="#D2B48C" d="M54 2.5l-.2-.5L2.1 52.6l.4.2"/><defs><path id="u" d="M2.1 2H54v50.9H2.1z"/></defs><clipPath id="v"><use xlink:href="#u" overflow="visible"/></clipPath><path clip-path="url(#v)" fill="#D2B48C" d="M54 2.5l-.2-.5L2.1 52.6l.4.2"/><defs><path id="w" d="M.9 55.4h1.2v3.3H.9z"/></defs><clipPath id="x"><use xlink:href="#w" overflow="visible"/></clipPath><path clip-path="url(#x)" fill="#E1856C" d="M1.1 58.7c-.3-.2-.3-.6-.3-.9 0-.3.1-.6.2-.9.1-.3.2-.6.4-.9.1-.3.4-.5.6-.7-.4.5-.6 1-.7 1.6l-.3.9c0 .4-.1.7.1.9"/><g><defs><path id="y" d="M3.6 61.1h3.3v.8H3.6z"/></defs><clipPath id="z"><use xlink:href="#y" overflow="visible"/></clipPath><path clip-path="url(#z)" fill="#E1856C" d="M3.6 61.6c.5.3 1.1.2 1.6 0s1.1-.4 1.7-.5c-.5.2-1 .5-1.6.7-.3.1-.6.2-.9.2-.4-.1-.6-.2-.8-.4"/></g><g><defs><path id="A" d="M2.5 60.4h2.4v.6H2.5z"/></defs><clipPath id="B"><use xlink:href="#A" overflow="visible"/></clipPath><path clip-path="url(#B)" fill="#E1856C" d="M2.5 60.9c.2-.1.4-.1.6-.1h.6c.4 0 .7-.2 1.2-.3-.2.1-.3.3-.5.4-.2.1-.4.2-.6.2h-.6c-.3-.2-.5-.2-.7-.2"/></g><g><defs><path id="C" d="M1.7 57.9h1V60h-1z"/></defs><clipPath id="D"><use xlink:href="#C" overflow="visible"/></clipPath><path clip-path="url(#D)" fill="#E1856C" d="M1.7 60c-.1-.2-.1-.4 0-.6 0-.2.1-.4.2-.6.2-.4.4-.7.8-.9-.2.3-.4.7-.6 1-.1.1-.2.3-.2.5-.1.2-.2.4-.2.6"/></g><g><defs><path id="E" d="M2.5 58.4h1.8v1.8H2.5z"/></defs><clipPath id="F"><use xlink:href="#E" overflow="visible"/></clipPath><path clip-path="url(#F)" fill="#E1856C" d="M2.5 60.2c.2-.4.5-.7.8-1 .3-.3.6-.6 1-.8-.2.4-.5.7-.8 1-.3.2-.7.5-1 .8"/></g><g><defs><path id="G" d="M61.8 4H63v3.3h-1.2z"/></defs><clipPath id="H"><use xlink:href="#G" overflow="visible"/></clipPath><path clip-path="url(#H)" fill="#E1856C" d="M62.7 4c.3.2.3.6.3.9 0 .3-.1.6-.2.9-.1.3-.2.6-.3.8-.2.3-.4.5-.6.7.4-.5.6-1 .7-1.6l.3-.9c0-.3 0-.6-.2-.8"/></g><g><defs><path id="I" d="M57 .8h3.3v.8H57z"/></defs><clipPath id="J"><use xlink:href="#I" overflow="visible"/></clipPath><path clip-path="url(#J)" fill="#E1856C" d="M60.3 1.1c-.5-.3-1.1-.2-1.6 0s-1.1.4-1.7.5c.5-.2 1-.5 1.6-.7.3-.1.6-.1.9-.1.3 0 .6.1.8.3"/></g><g><defs><path id="K" d="M59 1.8h2.4v.6H59z"/></defs><clipPath id="L"><use xlink:href="#K" overflow="visible"/></clipPath><path clip-path="url(#L)" fill="#E1856C" d="M61.4 1.8c-.2.1-.4.2-.6.2h-.6c-.4 0-.7.2-1.2.3.2-.1.3-.3.5-.4.2-.1.4-.2.6-.2h.6c.3.1.5.2.7.1"/></g><g><defs><path id="M" d="M61.2 2.8h1v2.1h-1z"/></defs><clipPath id="N"><use xlink:href="#M" overflow="visible"/></clipPath><path clip-path="url(#N)" fill="#E1856C" d="M62.1 2.8c.1.2.1.4 0 .6 0 .2-.1.4-.2.6-.2.4-.4.7-.8.9.2-.3.4-.7.6-1 .1-.2.2-.3.2-.5.2-.3.2-.4.2-.6"/></g><g><defs><path id="O" d="M59.6 2.6h1.8v1.8h-1.8z"/></defs><clipPath id="P"><use xlink:href="#O" overflow="visible"/></clipPath><path clip-path="url(#P)" fill="#E1856C" d="M61.4 2.6c-.2.4-.5.7-.8 1-.3.3-.6.6-1 .8.2-.4.5-.7.8-1 .3-.3.6-.6 1-.8"/></g><path fill="none" stroke="#EBD467" stroke-width="3.011" stroke-linecap="round" stroke-miterlimit="10" d="M5.8 55.6c2.7.9 5.1-1.9 6.5-3.6 1.2-1.5 1.8-2.7 2.4-4.5.5-1.2.8-2.2 1.8-3 2.1-1.7 5-1.1 7.1-2.9 1.5-1.3 3.2-2.8 4.1-4.5.9-1.6 1.8-3.2 2.8-4.7.8-1.3 1.9-2.4 3-3.5 1.3-1.3 2-1.6 3.7-2.2 3.5-1.3 4.6-4.6 6.5-7.5.8-1.2 2-2.5 3.2-3.4 1-.8 2.3-.9 3.4-1.5 1.3-.8 3-2.4 4-3.7.8-1.2 1.1-2.6 1.7-3.7.3-.5.5-1 .8-1.4"/><g opacity=".51"><defs><path id="Q" d="M5.2 5h52v51.3h-52z"/></defs><clipPath id="R"><use xlink:href="#Q" overflow="visible"/></clipPath><path clip-path="url(#R)" fill="none" stroke="#EBD467" stroke-width="1.004" stroke-linecap="round" stroke-miterlimit="10" d="M5.7 55.7c2.7.9 5.1-1.9 6.5-3.6 1.2-1.5 1.8-2.7 2.4-4.5.5-1.2.8-2.2 1.8-3 2.1-1.7 5-1.1 7.1-2.9 1.5-1.3 3.2-2.8 4.1-4.5.9-1.6 1.8-3.2 2.8-4.7.8-1.3 1.9-2.4 3-3.5 1.3-1.3 2-1.6 3.7-2.2 3.5-1.3 4.6-4.6 6.5-7.5.8-1.2 2-2.5 3.2-3.4 1-.8 2.3-.9 3.4-1.5 1.3-.8 3-2.4 4-3.7.8-1.2 1.1-2.6 1.7-3.7.3-.5.5-1 .8-1.4"/></g><path fill="none" stroke="#B52126" stroke-width="3.011" stroke-linecap="round" stroke-miterlimit="10" d="M5.2 54.5c1.8.5 4.3-1.3 5.4-2.5 1.6-1.8 1-4.3 2.3-6.2.8-1.1 2-2.4 3.1-3.2 1.3-1 3.3-1.1 4.8-1.7 3.7-1.4 5.8-4.7 7.6-8 .7-1.3 1-2.9 2-4.1 1-1.2 2.2-2.2 3.6-2.8 3.2-1.2 5.8-1.8 7.7-5 .8-1.3 1-2.9 1.6-4.2.6-1.3 1.3-2.4 2.3-3.5 2-2.2 5.2-1.3 7.1-4 .7-1 .8-2.2 1.4-3.1"/><g opacity=".51"><defs><path id="S" d="M4.3 5.2h49.3v48.9H4.3z"/></defs><clipPath id="T"><use xlink:href="#S" overflow="visible"/></clipPath><path clip-path="url(#T)" fill="none" stroke="#B52126" stroke-width=".502" stroke-linecap="round" stroke-miterlimit="10" d="M4.5 53.8c1.8.5 4.3-1.3 5.5-2.5 1.6-1.8 1-4.3 2.3-6.2.8-1.1 2-2.4 3.1-3.2 1.3-1 3.3-1.1 4.8-1.7 3.7-1.4 5.8-4.7 7.6-8 .7-1.3 1-2.9 2-4.1 1-1.2 2.2-2.2 3.6-2.8 3.2-1.3 5.8-1.8 7.7-5 .8-1.3 1-2.9 1.6-4.2.6-1.3 1.3-2.4 2.3-3.5 2-2.2 5.2-1.3 7.1-4 .7-1 .8-2.2 1.4-3.1"/></g></svg>