<svg xmlns="http://www.w3.org/2000/svg" xmlns:xlink="http://www.w3.org/1999/xlink" width="28.5" height="82.7" viewBox="0 0 28.5 82.7"><path fill="#7EA885" d="M24.7 9.6c0-5.3-4.3-9.6-9.6-9.6S5.5 4.3 5.5 9.6s4.3 9.6 9.6 9.6 9.6-4.3 9.6-9.6"/><g opacity=".5"><defs><path id="a" d="M16.9 1.9H22v6.2h-5.1z"/></defs><clipPath id="b"><use xlink:href="#a" overflow="visible"/></clipPath><path clip-path="url(#b)" fill="#7EA885" d="M21 3.9c-1.1-1.6-2.7-2.4-3.6-1.8-.9.6-.7 2.4.4 4s2.7 2.4 3.6 1.8.7-2.4-.4-4"/></g><defs><path id="c" d="M5.5 1.2h16.4V19H5.5z"/></defs><clipPath id="d"><use xlink:href="#c" overflow="visible"/></clipPath><path clip-path="url(#d)" fill="#7EA885" d="M17 17.6c-5.3 0-9.6-4.3-9.6-9.6 0-2.6 1.1-5 2.8-6.7C7.4 2.9 5.5 6 5.5 9.5c0 5.3 4.3 9.6 9.6 9.6 2.7 0 5.1-1.1 6.8-2.9-1.4.9-3.1 1.4-4.9 1.4"/><path fill="#5E411A" d="M25.3 22.2c0-5.8-4.7-10.5-10.5-10.5S4.3 16.4 4.3 22.2 9 32.7 14.8 32.7 25.3 28 25.3 22.2"/><g opacity=".5"><defs><path id="e" d="M16.8 13.7h5.5v6.7h-5.5z"/></defs><clipPath id="f"><use xlink:href="#e" overflow="visible"/></clipPath><path clip-path="url(#f)" fill="#5E411A" d="M21.3 15.9c-1.2-1.7-2.9-2.6-3.9-2-1 .7-.8 2.6.4 4.3 1.2 1.7 2.9 2.6 3.9 2 1-.6.8-2.6-.4-4.3"/></g><defs><path id="g" d="M4.4 13h18v19.5h-18z"/></defs><clipPath id="h"><use xlink:href="#g" overflow="visible"/></clipPath><path clip-path="url(#h)" fill="#5E411A" d="M16.9 30.9c-5.8 0-10.5-4.7-10.5-10.5 0-2.9 1.2-5.5 3-7.4-3 1.8-5.1 5.2-5.1 9 0 5.8 4.7 10.5 10.5 10.5 2.9 0 5.6-1.2 7.5-3.1-1.5 1-3.4 1.5-5.4 1.5"/><path fill="#E9BBBD" d="M26.6 35.5c0-6.7-5.4-12.1-12.1-12.1s-12 5.5-12 12.1 5.4 12.1 12.1 12.1 12-5.4 12-12.1"/><g opacity=".5"><defs><path id="i" d="M16.8 25.8h6.4v7.7h-6.4z"/></defs><clipPath id="j"><use xlink:href="#i" overflow="visible"/></clipPath><path clip-path="url(#j)" fill="#E9BBBD" d="M22 28.3c-1.4-2-3.4-3-4.5-2.3-1.1.8-.9 3 .5 5s3.4 3 4.5 2.3c1.1-.7.9-3-.5-5"/></g><defs><path id="k" d="M2.6 25h20.6v22.4H2.6z"/></defs><clipPath id="l"><use xlink:href="#k" overflow="visible"/></clipPath><path clip-path="url(#l)" fill="#E9BBBD" d="M17 45.6c-6.7 0-12.1-5.4-12.1-12.1 0-3.3 1.3-6.3 3.5-8.5-3.5 2.1-5.8 6-5.8 10.4 0 6.6 5.4 12 12 12 3.4 0 6.4-1.4 8.6-3.6-1.8 1.1-3.9 1.8-6.2 1.8"/><path fill="#9E7E64" d="M27.2 42.4L15.3 81.7c-.4 1.3-1.1 1.3-1.5 0L1.9 42.4h25.3z"/><defs><path id="m" d="M2.5 42.5h24.7v40.2H2.5z"/></defs><clipPath id="n"><use xlink:href="#m" overflow="visible"/></clipPath><path clip-path="url(#n)" fill="#9E7E64" d="M15 82.5l-.7-1 .9-1.4.4.6.1-.3-.4-.5.9-1.4.3-.8-.3.4-1-1.4 1-1.4.7 1 .1-.3-.6-.9 1-1.4.2.4.1-.3-.2-.3.4-.6.2-.8-.8 1.2-1-1.4 1-1.4.9 1.3.1-.3-.9-1.2 1.1-1.4.4.6.1-.3v-1.1l.9-1.1.2-.8-1-1.4 1.1-1.4.6.8.1-.3-.5-.7 1.1-1.4.2-.7-.2.2-1.1-1.4 1.2-1.4.6.9.1-.3-.5-.7L23 57l.2-.8-.2.3-1.1-1.4 1.2-1.4.6.8.1-.4-.5-.7 1.2-1.4.2-.7-.1.2-1.1-1.4 1.3-1.4.6.8.1-.4-.5-.6 1-1.1.2-.8-1.2-1.7 1.3-1.4.5.6.1-.4-.4-.5.7-.7h-.4l-.5.5-.4-.5h-.4l.6.7-1.3 1.4-1.2-1.4.7-.7h-.4l-.4.5-.4-.5h-.4l.6.7-1.3 1.4-1.2-1.4.7-.7h-.4l-.5.5-.4-.5h-.4l.6.7-1.3 1.4-1.2-1.4.6-.7h-.4l-.4.5-.4-.5h-.4l.6.7-1.2 1.4-1.2-1.4.6-.7h-.4l-.4.5-.4-.5H14l.7.7-1.2 1.4-1.3-1.4.6-.7h-.4l-.4.5-.5-.5h-.4l.7.7-1.2 1.4-1.3-1.4.6-.7h-.3l-.4.5-.5-.5h-.4l.7.7-1.2 1.4-1.3-1.4.6-.7h-.4l-.4.5-.5-.5h-.4l.7.7L5 44.6l-1.3-1.4.6-.7h-.5l-.4.5-.5-.5h-.4l.7.7-.8 1 .1.4.9-1.1 1.3 1.4-1.1 1.4-.9-.9.3.6.5.5-.2.3.1.4.3-.5L5 48.2l-1 1.3.1.4 1.1-1.4 1.3 1.4-1.1 1.4-1.3-1.4.2.7.9 1-.4.6.2.2.5-.7 1.3 1.4-1.1 1.4-.1-.1.2.7L7 56.5l-.5.7.1.4.6-.9 1.2 1.4-1 1.4-.4-.3.3.9.1-.1 1.2 1.4-.6.9.1.4.7-1 1.2 1.4-1 1.4-.4-.5.2.7.1.4.1-.1 1.1 1.4-.6.8.1.3.7-1 1.1 1.4-1 1.4-.4-.2.3 1 .1-.1 1.1 1.4-.5.8.1.3.6-.9 1.1 1.4-1 1.4-.1-.2.2.8 1 1.3-.5.7.1.3.4-.7 1 1.4-.8 1.3.1.3.9-1.4 1 1.4-.9 1.4-.9-1.3.2.8.5.8.2.2.6 1c.1.1.2 0 .2 0m.2-6.3l-1-1.4 1-1.4 1 1.4-1 1.4zm0-6.6l-1.1-1.4 1-1.4 1.1 1.4-1 1.4zm0 .4l1 1.4-1 1.4-1-1.4 1-1.4zm-4.3-18.3l1.2 1.4-1.1 1.5-1.2-1.4 1.1-1.5zm-1.3 1.2l-1.2-1.4 1.1-1.4 1.2 1.4-1.1 1.4zm4.1 2.2l1.2 1.4-1.1 1.4-1.2-1.4 1.1-1.4zm-1.3 1.2l-1.2-1.4 1.1-1.4 1.2 1.4-1.1 1.4zm2.8.2l1.1-1.4 1.1 1.4-1.1 1.4-1.1-1.4zm1 1.7l-1.1 1.4-1.1-1.4 1.1-1.4 1.1 1.4zM15 56.3l-1.2-1.4 1.1-1.4 1.2 1.4-1.1 1.4zm-1.3 2.1l1.1 1.4-1.1 1.4-1.1-1.4 1.1-1.4zm1.4 1.7l1.1 1.4-1.1 1.4-1.1-1.4 1.1-1.4zm0 3.3l1.1 1.4-1.1 1.4-1.1-1.4 1.1-1.4zm.2-.2l1.1-1.4 1.1 1.4-1.1 1.4-1.1-1.4zm1-1.9l-1.1-1.4 1.1-1.4 1.1 1.4-1.1 1.4zm.2-3.1l1.1-1.4 1.1 1.4-1.1 1.4-1.1-1.4zm0-3.4l1.2-1.4 1.1 1.4-1.2 1.4-1.1-1.4zm1.4-1.6l1.2-1.4 1.1 1.4-1.2 1.4-1.1-1.4zm-.2-.3l-1.2-1.4 1.2-1.4 1.2 1.4-1.2 1.4zm-.2.3l-1.1 1.4-1.2-1.4 1.1-1.4 1.2 1.4zm-2.5-.3l-1.2-1.4 1.2-1.4 1.2 1.4-1.2 1.4zm-.2.3l-1.1 1.4-1.2-1.4 1.1-1.4 1.2 1.4zm-2.5-.3l-1.2-1.4 1.1-1.4 1.2 1.4-1.1 1.4zM11 55.1l1.2 1.4-1.1 1.4-1.1-1.4 1-1.4zm1.4 1.6l1.2 1.4-1.1 1.4-1.2-1.4 1.1-1.4zm.1 3.4l1.1 1.4-1.1 1.4-1.1-1.4 1.1-1.4zm1.3 1.6l1.1 1.4-1.1 1.4-1.1-1.4 1.1-1.4zm.1 3.4l1.1 1.4-1 1.4-1.1-1.4 1-1.4zm1.4 1.4l1-1.4 1.1 1.4-1.1 1.4-1-1.4zm1.2-1.7l1.1-1.4 1.1 1.4-1.1 1.4-1.1-1.4zm0-3.3l1.1-1.4 1.1 1.4-1.1 1.4-1.1-1.4zm1.3-1.7l1.1-1.4 1.1 1.4-1.1 1.4-1.1-1.4zm0-3.3l1.2-1.4 1.1 1.4-1.2 1.4-1.1-1.4zm1.4-1.7l1.2-1.4 1.1 1.4-1.2 1.4-1.1-1.4zm0-3.3l1.2-1.4 1.1 1.4-1.2 1.4-1.1-1.4zm1.4-1.7l1.2-1.4 1.1 1.4-1.2 1.4-1.1-1.4zm-.2-.2l-1.2-1.4 1.2-1.4 1.2 1.4-1.2 1.4zm-.2.2L19 51.3l-1.2-1.4 1.2-1.4 1.2 1.3zm-2.5-.2l-1.2-1.4 1.2-1.4 1.2 1.4-1.2 1.4zm-.2.2l-1.2 1.4-1.2-1.4 1.2-1.4 1.2 1.4zm-2.5-.2l-1.2-1.4 1.2-1.4 1.2 1.4-1.2 1.4zm-.2.2l-1.1 1.4-1.2-1.4 1.2-1.4 1.1 1.4zm-2.6-.2L11 48.2l1.2-1.4 1.2 1.4-1.2 1.4zm-.2.2l-1.1 1.4-1.2-1.4 1.1-1.4 1.2 1.4zm-2.5-.2l-1.3-1.4 1.1-1.4 1.3 1.4-1.1 1.4zm-.2.2l-1.1 1.4-1.3-1.4L8 48.4l1.3 1.4zm-1.1 1.9l1.2 1.4-1.1 1.4-1.2-1.4 1.1-1.4zm1.4 1.7l1.2 1.4-1.1 1.4-1.2-1.4 1.1-1.4zm.2 3.3l1.2 1.4-1.1 1.4-1.2-1.4 1.1-1.4zm1.4 1.7l1.2 1.4-1.1 1.4-1.2-1.4 1.1-1.4zm.1 3.3l1.1 1.4-1 1.4-1.1-1.4 1-1.4zm1.3 1.7l1.1 1.4-1 1.4-1.1-1.4 1-1.4zm.1 3.3l1.1 1.4-1 1.4-1.1-1.4 1-1.4zm1.2 1.7l1.1 1.4-1 1.4-1.1-1.4 1-1.4zm.1 3.3l1 1.4-1 1.4-1-1.4 1-1.4zm3.4 1.4l-1 1.4-1-1.4 1-1.4 1 1.4zm-1-1.9l-1-1.4 1-1.4 1 1.4-1 1.4zm1.2-1.6l-1-1.4 1.1-1.4 1 1.4-1.1 1.4zm2.3-3.1l-1.1 1.4-1-1.4 1.1-1.4 1 1.4zm-1.1-1.9l-1.1-1.4 1.1-1.4 1.1 1.4-1.1 1.4zm2.5-3.1l-1.1 1.4-1.1-1.4 1.1-1.4 1.1 1.4zm-1.1-1.9l-1.1-1.4 1.2-1.4 1.1 1.4-1.2 1.4zm2.5-3.1l-1.2 1.4-1.1-1.4 1.2-1.4 1.1 1.4zm-1-1.9l-1.1-1.4 1.2-1.4 1.1 1.4-1.2 1.4zm2.6-3.1l-1.2 1.4-1.1-1.4 1.2-1.4 1.1 1.4zm-1.1-1.9l-1.1-1.4 1.3-1.4 1.1 1.4-1.3 1.4zm2.7-3.1l-1.3 1.4-1.1-1.4 1.3-1.4 1.1 1.4zm-2.4-3.1l1.2 1.4-1.3 1.4-1.2-1.4 1.3-1.4zm-.4 3.1l-1.3 1.4-1.2-1.4 1.3-1.4 1.2 1.4zm-2.5-3.1l1.2 1.4-1.3 1.4-1.2-1.4 1.3-1.4zm-.3 3.1l-1.2 1.4-1.2-1.4 1.2-1.4 1.2 1.4zm-2.6-3.1l1.2 1.4-1.2 1.4-1.2-1.4 1.2-1.4zm-1.4 1.7l1.2 1.4-1.2 1.4-1.2-1.4 1.2-1.4zm-1.4-1.7l1.2 1.4-1.2 1.4-1.2-1.4 1.2-1.4zm-1.4 1.7l1.2 1.4-1.2 1.4-1.2-1.4 1.2-1.4zM12 43.4l1.3 1.4-1.2 1.4-1.3-1.4 1.2-1.4zm-1.3 1.7l1.3 1.4-1.2 1.4-1.3-1.4 1.2-1.4zm-1.5-1.7l1.3 1.4-1.2 1.4L8 44.9l1.2-1.5zm-1.4 1.7l1.3 1.4L8 47.9l-1.3-1.4 1.1-1.4zm-1.5-1.7l1.3 1.4-1.1 1.4-1.3-1.4 1.1-1.4zm-1.1 4.5l-1.3-1.4L5 45.1l1.3 1.4-1.1 1.4zm.2.3l1.1-1.4 1.3 1.4-1.1 1.4-1.3-1.4zm.3 3.3l1.1-1.4L8 51.5l-1.1 1.4-1.2-1.4zm1.4 4.8l-1.2-1.4L7 53.5l1.2 1.4-1.1 1.4zm.2.2l1.1-1.4 1.2 1.4-1.1 1.4-1.2-1.4zm1.4 4.8l-1.2-1.4 1-1.4 1.2 1.4-1 1.4zm.2.2l1-1.4 1.2 1.4-1 1.4-1.2-1.4zm1.3 4.7l-1.1-1.4 1-1.4 1.1 1.4-1 1.4zm.2.3l1-1.4 1.1 1.4-1 1.4-1.1-1.4zm1.2 4.7l-1.1-1.4 1-1.4 1.1 1.4-1 1.4zm.2.3l1-1.4 1.1 1.4-1 1.4-1.1-1.4zm1.2 4.7l-1-1.4 1-1.4 1 1.4-1 1.4zm1.1 1.7l-1-1.4 1-1.4 1 1.4-1 1.4zm.2.2l1-1.4 1 1.4-1 1.4-1-1.4z"/><defs><path id="o" d="M1.9 42.4h12.7v40.3H1.9z"/></defs><clipPath id="p"><use xlink:href="#o" overflow="visible"/></clipPath><path clip-path="url(#p)" fill="#9E7E64" d="M14 81.7L5.4 42.4H1.9l11.9 39.3c.2.7.5 1 .8 1-.2 0-.4-.3-.6-1"/><defs><path id="q" d="M14.6 42.4h12.7v40.3H14.6z"/></defs><clipPath id="r"><use xlink:href="#q" overflow="visible"/></clipPath><path clip-path="url(#r)" fill="#9E7E64" d="M23.7 42.4l-8.6 39.3c-.2.7-.4 1-.6 1 .3 0 .6-.3.8-1l11.9-39.3h-3.5z"/><path fill="#E9BBBD" d="M3.1 42.5c-2.7.1-3.6-3.2-2.9-5 .4-.9.9-1.7 1.7-2.3 1-.7 2.2-.5 3.3-.3 1-.5 3.4-2.1 4.5-1.1.6-.8 2.4-1 3.3-.7 1 .3 1.8 1.4 1.8 2.4 1 0 1.7-.6 2.9-.5 1.1.1 2.4.5 2.6 1.5 1.8.1 3.4-.4 5 .5 1 .5 2.4 1.8 2.9 2.8 1.1 2.7-2.9 3.7-5.2 3.3-1.6-.2-2.6-.8-4.3-.5-.7.1-1.6.4-2.4.4-.7 0-1.5-.5-2.2-.6-1.4-.1-2.7 1.3-4.1 1.3-.8 0-1.7.1-2.5-.2-.5-.2-.9-.5-1.5-.7-.8-.2-1.8-.2-2.6-.2l-.3-.1z"/><g><defs><path id="s" d="M0 37.7h28.5v6.1H0z"/></defs><clipPath id="t"><use xlink:href="#s" overflow="visible"/></clipPath><path clip-path="url(#t)" fill="#E9BBBD" d="M28.1 39.3c-1 1.1-3.4 1.5-4.9 1.3-1.6-.2-2.6-.8-4.3-.5-.8.1-1.7.4-2.5.4-.7 0-1.5-.5-2.2-.6-1.4-.1-2.7 1.3-4.1 1.3-.8 0-1.7.1-2.5-.2-.6-.2-1-.5-1.5-.7-.8-.2-1.8-.2-2.6-.2l-.4-.1c-1.6.1-2.6-1-2.9-2.3-.6 1.8.3 5 2.9 4.8l.2.1c.8 0 1.8-.1 2.6.2.6.2 1 .5 1.5.7.8.3 1.7.2 2.5.2 1.4-.1 2.7-1.4 4.1-1.3.7 0 1.4.6 2.2.6.8 0 1.7-.3 2.5-.4 1.7-.3 2.7.3 4.3.5 2.3.3 6.3-.7 5.2-3.3.1-.2 0-.4-.1-.5"/></g><g opacity=".5"><defs><path id="u" d="M0 33h28.5v8.2H0z"/></defs><clipPath id="v"><use xlink:href="#u" overflow="visible"/></clipPath><path clip-path="url(#v)" fill="#E9BBBD" d="M1.9 36.3c1-.7 2.2-.5 3.3-.3 1-.5 3.4-2.1 4.5-1.1.6-.8 2.4-1 3.3-.7 1 .3 1.8 1.4 1.8 2.4 1 0 1.7-.6 2.9-.5 1.1.1 2.4.5 2.6 1.5 1.8.1 3.4-.4 5 .5 1 .5 2.4 1.8 2.9 2.8.1.1.1.2.1.4.1-.4.1-.9-.1-1.4-.4-1-1.9-2.3-2.9-2.8-1.7-.9-3.3-.4-5-.5-.2-1.1-1.6-1.5-2.6-1.5-1.1-.1-1.9.6-2.9.5-.1-.9-.8-2.1-1.8-2.4-.9-.3-2.7 0-3.3.7-1.1-1-3.5.6-4.5 1.1-1.1-.2-2.3-.4-3.3.3-.8.6-1.3 1.5-1.7 2.3-.2.5-.2 1.2-.2 1.8 0-.3.1-.6.2-.8.4-.9.9-1.8 1.7-2.3"/></g><path fill="#5E411A" d="M4.9 28.3c-2.4.1-3.2-2.8-2.5-4.3.3-.7.7-1.5 1.5-2 .8-.6 1.9-.4 2.9-.3.9-.4 2.9-1.8 3.9-.9.5-.7 2.1-.9 2.9-.7.9.2 1.6 1.2 1.6 2.1.8 0 1.5-.6 2.5-.5.9.1 2.1.4 2.3 1.3 1.5.1 2.9-.3 4.4.4.8.4 2.1 1.6 2.5 2.5 1 2.3-2.5 3.2-4.5 2.9-1.4-.2-2.3-.7-3.8-.5-.7.1-1.5.4-2.2.4-.6 0-1.3-.5-1.9-.5-1.2-.1-2.3 1.1-3.6 1.2-.7 0-1.5.1-2.2-.2-.5-.2-.8-.5-1.3-.6-.7-.2-1.6-.1-2.3-.1l-.2-.2z"/><g><defs><path id="w" d="M2.1 24.1h24.8v5.3H2.1z"/></defs><clipPath id="x"><use xlink:href="#w" overflow="visible"/></clipPath><path clip-path="url(#x)" fill="#5E411A" d="M26.6 25.4c-.9 1-2.9 1.3-4.3 1.1-1.4-.2-2.3-.7-3.8-.5-.7.1-1.5.4-2.2.4-.6 0-1.3-.5-1.9-.5-1.2-.1-2.3 1.1-3.6 1.2-.7 0-1.5.1-2.2-.2-.5-.2-.8-.5-1.3-.6-.7-.2-1.6-.1-2.3-.1l-.2-.1c-1.4.1-2.2-.9-2.6-2-.6 1.6.2 4.3 2.6 4.2l.2.1c.7 0 1.6-.1 2.3.1.5.1.8.4 1.3.6.7.2 1.5.2 2.2.2 1.2-.1 2.3-1.2 3.6-1.2.6 0 1.2.5 1.9.5s1.5-.3 2.2-.4c1.4-.2 2.4.3 3.8.5 2 .3 5.5-.6 4.5-2.9-.1-.1-.1-.2-.2-.4"/></g><g opacity=".5"><defs><path id="y" d="M2.1 20h24.8v7.1H2.1z"/></defs><clipPath id="z"><use xlink:href="#y" overflow="visible"/></clipPath><path clip-path="url(#z)" fill="#5E411A" d="M3.8 22.8c.8-.6 1.9-.4 2.9-.3.9-.4 2.9-1.8 3.9-.9.5-.7 2.1-.9 2.9-.6.9.2 1.6 1.2 1.6 2.1.8 0 1.5-.6 2.5-.5.9.1 2.1.4 2.3 1.3 1.5.1 2.9-.3 4.4.4.8.4 2.1 1.6 2.5 2.5 0 .1.1.2.1.3.1-.3.1-.8-.1-1.2-.4-.9-1.6-2-2.5-2.5-1.5-.8-2.8-.4-4.4-.4-.2-.9-1.4-1.3-2.3-1.3-1-.1-1.7.5-2.5.5-.1-.8-.7-1.8-1.6-2.1-.8-.2-2.4 0-2.9.7-1-.9-3 .5-3.9.9-1-.2-2-.3-2.9.3-.7.5-1.1 1.3-1.5 2-.2.5-.3 1-.2 1.6 0-.3.1-.5.2-.7.4-.8.8-1.6 1.5-2.1"/></g><path fill="#7EA885" d="M6 15.2c-2.2.1-2.9-2.6-2.3-4 .3-.7.7-1.4 1.3-1.8.8-.6 1.7-.4 2.6-.3.8-.4 2.7-1.6 3.6-.9.5-.6 1.9-.8 2.7-.6.8.2 1.4 1.1 1.5 1.9.8 0 1.4-.5 2.3-.4.8.1 1.9.4 2.1 1.2 1.4.1 2.7-.3 4 .4.8.4 1.9 1.5 2.3 2.2.9 2.1-2.3 2.9-4.1 2.7-1.3-.2-2.1-.7-3.4-.4-.6.1-1.4.4-2 .3-.6 0-1.2-.4-1.7-.5-1.1-.1-2.1 1-3.2 1.1-.6 0-1.4 0-2-.2-.4-.1-.8-.4-1.2-.6-.6-.2-1.4-.1-2.1-.1H6z"/><g opacity=".5"><defs><path id="A" d="M3.5 7.6h22.7v6.5H3.5z"/></defs><clipPath id="B"><use xlink:href="#A" overflow="visible"/></clipPath><path clip-path="url(#B)" fill="#7EA885" d="M5 10.2c.8-.5 1.7-.4 2.6-.3.8-.4 2.7-1.6 3.6-.9.5-.6 1.9-.8 2.7-.6.8.2 1.4 1.1 1.5 1.9.8 0 1.4-.5 2.3-.4.8.1 1.9.4 2.1 1.2 1.4.1 2.7-.3 4 .4.8.4 1.9 1.5 2.3 2.2 0 .1.1.2.1.3.1-.3.1-.7-.1-1.1-.3-.8-1.5-1.8-2.3-2.2-1.3-.7-2.6-.3-4-.4-.2-.9-1.3-1.2-2.1-1.2-.9-.1-1.5.5-2.3.4-.1-.7-.6-1.7-1.5-1.9-.8-.2-2.2 0-2.7.6-.9-.8-2.8.5-3.6.9-.9-.1-1.8-.3-2.6.3-.6.5-1 1.2-1.3 1.8-.2.4-.2 1-.2 1.5 0-.2.1-.5.2-.7.3-.6.7-1.4 1.3-1.8"/></g><path fill="#E9BBBD" d="M6.5 40.7c.1 1.4.7 3.2 1.1 4.5.4 1.3.8 2.9 1 4.3.2 1.4-.2 3.1 1.5 3.8 1.9.8 1.2-2.1 1-2.9-.3-.9-.5-1.6-.5-2.6.8.1.9 1.1 1.7.1.6-.7.6-1.7.5-2.6-.1-1.7-.9-3.6-1.6-5.1-1.6-.1-3.3-.2-5-.1v.2l.3.4z"/><g><defs><path id="C" d="M9.5 40.7h3.4v12.6H9.5z"/></defs><clipPath id="D"><use xlink:href="#C" overflow="visible"/></clipPath><path clip-path="url(#D)" fill="#E9BBBD" d="M10.6 47.7c.2 0 .3.1.4.1-.2-.1-.4-.3-.7-.4 0 1 .2 1.7.5 2.6.3.8.9 3.7-1 2.9-.1 0-.2-.1-.3-.2.2.1.4.3.6.4 1.9.8 1.2-2.1 1-2.9-.3-.8-.6-1.6-.5-2.5M12.9 45.2c-.1-1.7-.6-3-1.3-4.5h-.2c.7 1.4 1.2 2.6 1.2 4.3 0 .9.1 1.9-.5 2.6-.4.5-.6.5-.8.3.3.3.6.5 1.1-.1.5-.7.5-1.7.5-2.6"/></g><g><defs><path id="E" d="M10.4 47.3h1.7v.6h-1.7z"/></defs><clipPath id="F"><use xlink:href="#E" overflow="visible"/></clipPath><path clip-path="url(#F)" fill="#E9BBBD" d="M10.4 47.3h.3c.1 0 .2.1.3.2.1.1.2.2.3.2h.3c.1-.1.2-.1.3-.1.1-.1.3-.2.3-.2s-.1.1-.2.3c0 .1-.2.1-.3.2h-.2c-.1 0-.1-.1-.2-.1-.1-.1-.2-.2-.3-.2-.1-.1-.2-.1-.3-.1-.1-.1-.2-.1-.3-.2z"/></g><g><defs><path id="G" d="M6.5 40.1h3.8v13.1H6.5z"/></defs><clipPath id="H"><use xlink:href="#G" overflow="visible"/></clipPath><path clip-path="url(#H)" fill="#E9BBBD" d="M6.6 40.1v.2l.3.3c.1.5.2 1.1.3 1.6.1.5.3 1.1.4 1.6l.9 3.2c.1.5.2 1.1.4 1.6 0 .3.1.5.2.8 0 .3 0 .6.1.8 0 .3 0 .6.1.8 0 .3.1.5.2.8.1.2.2.5.4.7.2.2.4.3.7.5-.2-.1-.5-.2-.7-.4-.2-.2-.4-.4-.5-.7-.3 0-.4-.3-.4-.6-.1-.3 0-.6-.1-.8 0-.3 0-.6-.1-.8 0-.3-.1-.5-.1-.8-.1-.5-.2-1.1-.3-1.6L8 45.6c-.2-.6-.4-1.1-.5-1.6-.2-.5-.3-1.1-.4-1.6-.1-.5-.2-1.1-.3-1.7l-.2-.3c-.1-.1-.1-.2 0-.3z"/></g></svg>