<svg xmlns="http://www.w3.org/2000/svg" xmlns:xlink="http://www.w3.org/1999/xlink" width="15.9" height="78.3" viewBox="0 0 15.9 78.3"><path fill="#EBD467" d="M10.3 63.2s-.2 0-.2-.8v-9.3H9v9.3c0 .9.1.8.1.8.4.3.4.6.4.6H11s0-.3-.7-.6"/><path fill="#A77C39" d="M6.9 62.4v-9.3h-1v9.3c0 .9-.2.8-.2.8-.7.3-.7.6-.7.6h1.5s0-.3.4-.6c-.2 0 0 .1 0-.8"/><path fill="#FBB03B" d="M9 62.4V53H6.8v9.3l-.1.8c-.4.3-.4.6-.4.6H9.6s0-.3-.4-.6c0 .1-.2.2-.2-.7"/><path fill="#EBD467" d="M10 51.2c0-.4-.1-1.8-.1-1.8s-.1-.6-.5-.6h-.5c.3 0 .4.6.4.6s.1 1.4.1 1.8.2.6.2.6h.8s-.4-.2-.4-.6"/><path fill="#A77C39" d="M6.5 51.2c0-.4.1-1.8.1-1.8s.1-.6.4-.6h-.5c-.4 0-.5.6-.5.6s-.1 1.4-.1 1.8-.3.6-.3.6h.7s.2-.2.2-.6"/><path fill="#EBD467" d="M9.4 51.2c0-.4-.1-1.8-.1-1.8s-.1-.6-.4-.6h-.5c.2 0 .2.6.2.6v1.8l.1.6h.8c.1 0-.1-.2-.1-.6"/><path fill="#E5952E" d="M7.3 49.4s0-.6.2-.6H7c-.3 0-.4.6-.4.6s-.1 1.4-.1 1.8-.2.6-.2.6h.8s.1-.2.1-.6.1-1.8.1-1.8"/><path fill="#FBB03B" d="M8.6 49.4s0-.6-.2-.6h-1c-.2 0-.2.6-.2.6v1.8l-.1.6h1.6s-.1-.2-.1-.6v-1.8"/><path fill="#A77C39" d="M6.9 29.7l-.5 18.9H7l.3-18.9"/><path fill="#EBD467" d="M9 29.7h-.4l.3 18.9h.6"/><path fill="#FBB03B" d="M8.1 29.7h-.8L7 48.6H8.9l-.3-18.9"/><path fill="none" stroke="#CCC" stroke-width=".303" stroke-miterlimit="10" d="M7.9 8V.7"/><path fill="none" stroke="gray" stroke-width=".288" stroke-miterlimit="10" d="M4.9 8.5s2.8-.7 2.8-3.7-2-1.8-2-1.3V4"/><path fill="#E5952E" d="M7.9 24.1V12l6.6 1.5-3.3 10.6"/><path fill="#E6E6E6" d="M8.3 23.5V12.6l5.4 1.4-2.7 9.5"/><path fill="#9BA9B2" d="M8.3 12.6v.3l5.2 1.2-2.7 9.4h.2l2.7-9.5"/><path fill="#534741" d="M14.5 13.5l1.4-.5-8-1.9v.9"/><path fill="#CCC" d="M14.5 12.7l-3.3-4.1-3.3-1v3.5"/><path fill="#FBB03B" d="M7.9 24.1h3.4v.9H7.9z"/><g opacity=".3"><defs><path id="a" d="M8.5 13.2h4.7v10.7H8.5z"/></defs><clipPath id="b"><use xlink:href="#a" overflow="visible"/></clipPath><path clip-path="url(#b)" fill="#E6E6E6" d="M11.1 21.5l2-7.2-4.7-1.1c1.6.8 2.8 3.4 2.8 6.5 0 .6 0 1.2-.1 1.8"/></g><path fill="#A77C39" d="M7.9 24.1V12l-6.5 1.5 3.3 10.6"/><path fill="#B3B3B3" d="M7.6 23.5V12.6L2.2 14l2.7 9.5"/><path fill="#608DA2" d="M7.6 12.6v.3l-5.2 1.2 2.7 9.4h-.2L2.2 14"/><path fill="#131313" d="M1.4 13.5L0 13l7.9-1.9v.9"/><path fill="#999" d="M1.4 12.7l3.3-4.1 3.2-1v3.5"/><path fill="#A77C39" d="M4.5 24.1h3.4v.9H4.5z"/><path fill="none" stroke="#CCC" stroke-width=".288" stroke-miterlimit="10" d="M10.9 8.5s-2.8-.7-2.8-3.7 2-1.8 2-1.3V4"/><path fill="#999" d="M8.4.4c0 .2-.2.4-.4.4S7.5.6 7.5.4s.2-.4.4-.4.5.2.5.4"/><path fill="#666" d="M8.1.7c-.2 0-.4-.2-.4-.4 0-.1 0-.1.1-.2-.2.1-.3.2-.3.3 0 .2.2.4.4.4s.3-.1.4-.2c-.1.1-.2.1-.2.1"/><path fill="#E6E6E6" d="M8.2.2c0 .1 0 .1-.1.1 0 0-.1 0-.1-.1s0-.1.1-.1.1.1.1.1"/><path fill="#A77C39" d="M7.6 26.7c0-.5-.1-1.7-.6-1.7h-.4c.7 0 .8 1.2.8 1.7s-.2.6-.2.6c-.4.3-.7 1-.7 1h.4s.3-.7.5-1c0 0 .2-.1.2-.6"/><path fill="#EBD467" d="M8.7 27.3s-.2-.1-.2-.6.1-1.7.8-1.7h-.4c-.5 0-.6 1.2-.6 1.7s.2.6.2.6c.3.3.5 1 .5 1h.4c0 .1-.4-.6-.7-1"/><path fill="#EBD467" d="M8.3 26.7c0-.5.1-1.7.6-1.7h-.5c-.2 0-.3 1.2-.3 1.7s.1.6.1.6c.1.3.3 1 .3 1H9s-.3-.7-.5-1c-.1 0-.2-.1-.2-.6"/><path fill="#E5952E" d="M7.8 26.7c0-.5 0-1.7-.3-1.7H7c.5 0 .6 1.2.6 1.7s-.2.6-.2.6c-.3.3-.5 1-.5 1h.5s.1-.7.3-1c0 0 .1-.1.1-.6"/><path fill="#FBB03B" d="M8.1 26.7c0-.5 0-1.7.3-1.7h-.9c.2 0 .3 1.2.3 1.7s-.1.6-.1.6c-.1.3-.3 1-.3 1h1s-.1-.7-.3-1c.1 0 0-.1 0-.6"/><defs><path id="c" d="M6.8 25h2.3v.3H6.8z"/></defs><clipPath id="d"><use xlink:href="#c" overflow="visible"/></clipPath><path clip-path="url(#d)" fill="#A77C39" d="M7.1 25.3c.2-.1.5-.1.8-.1.3 0 .6 0 .8.1L9 25H6.8l.3.3"/><path fill="#A77C39" d="M6.9 29.3h-.4-.1c.2.2.8.4 1.5.4-.4 0-.9-.1-1-.4M6.9 28.9c.2-.2.6-.4 1.1-.4-.7 0-1.2.2-1.5.4h.4z"/><path fill="#EBD467" d="M9 28.9h.4c-.2-.2-.8-.4-1.5-.4.5 0 .9.2 1.1.4"/><path fill="#FBB03B" d="M9 29.3c-.2.2-.6.4-1.1.4.7 0 1.2-.2 1.5-.4H9z"/><path fill="#EBD467" d="M9.4 28.9H9c.1 0 .2.1.2.2s-.1.2-.2.2h.4c.1 0 .3-.1.3-.2s-.1-.2-.3-.2"/><path fill="#A77C39" d="M6.5 28.9c-.1 0-.3.1-.3.2s.1.2.3.2h.4c-.1 0-.2-.1-.2-.2s.1-.2.2-.2h-.4"/><path fill="#E5952E" d="M9 29.3H6.9c.2.2.6.4 1.1.4.4 0 .9-.1 1-.4"/><path fill="#EBD467" d="M6.9 28.9H9c-.2-.2-.6-.4-1.1-.4-.4 0-.9.2-1 .4"/><path fill="#FBB03B" d="M9 28.9H6.9c-.1 0-.2.1-.2.2s.1.2.2.2H9c.1 0 .2-.1.2-.2s-.1-.2-.2-.2"/><path fill="#A77C39" d="M9.5 28.5c0-.1-.1-.1-.1-.1H6.5c-.1 0-.1.1-.1.1 0 .1.1.1.1.1h2.9c.1 0 .1 0 .1-.1M9.5 29.7c0-.1-.1-.1-.1-.1H6.5c-.1 0-.1.1-.1.1 0 .1.1.1.1.1h2.9c.1 0 .1 0 .1-.1M9.7 48.7c0-.1-.1-.2-.1-.2H6.3c-.1 0-.1.1-.1.2s.1.2.1.2h3.3c.1 0 .1-.1.1-.2M5.8 52.9s0-.1 0 0v-.1-.1c.1-.4.4-.8.9-.8h-.9c-.8 0-1 .3-1.1.8v.2c.1.7 1.3 1.3 3.3 1.3-1.2 0-2.1-.6-2.2-1.3"/><path fill="#EBD467" d="M11.3 52.7s0-.1 0 0c0-.1 0-.1 0 0-.1-.5-.4-.9-1.2-.9h-.9c.4 0 .8.3.9.8v.2c-.1.8-1 1.4-2.1 1.4 2 0 3.2-.6 3.3-1.4v-.1"/><path fill="#FBB03B" d="M10.1 52.9s0-.1 0 0v-.1-.1c-.1-.4-.4-.8-.9-.8H6.7c-.4 0-.8.3-.9.8v.2c.1.8 1 1.4 2.1 1.4 1.2-.1 2.1-.7 2.2-1.4"/><path fill="#A77C39" d="M4.9 63.9h1.5v2.6H4.9z"/><path fill="#EBD467" d="M9.5 63.9H11v2.6H9.5z"/><path fill="#FBB03B" d="M6.4 63.9h3.2v2.6H6.4z"/><path fill="#A77C39" d="M5.3 66.4c0 6-1.5 9-1.5 9h1.1s1.1-3 1.1-9h-.7z"/><path fill="#EBD467" d="M10.6 66.4h-.7c0 6 1.1 9 1.1 9h1.1s-1.5-3-1.5-9"/><path fill="#EBD467" d="M8.8 66.4c0 6 .5 9 .5 9H11s-1.1-3-1.1-9H8.8z"/><path fill="#E5952E" d="M6 66.4c0 6-1.1 9-1.1 9h1.7s.5-3 .5-9H6z"/><path fill="#FBB03B" d="M8.1 66.4h-1c0 6-.5 9-.5 9H9.2s-.5-3-.5-9h-.6z"/><g opacity=".4"><defs><path id="e" d="M5.3 66.4h5.4v1.1H5.3z"/></defs><clipPath id="f"><use xlink:href="#e" overflow="visible"/></clipPath><path clip-path="url(#f)" fill="#A77C39" d="M10.6 67.5v-1.1H5.3v1.1c.6-.3 1.6-.5 2.6-.5s2.1.2 2.7.5"/></g><path fill="#EBD467" d="M11.9 76.4h1.3v-1h-1.7v1"/><path fill="#A77C39" d="M4.3 76.4v-1H2.7v1H4"/><path fill="#A77C39" d="M4 77.3v-.9H2.2v.9h1.5"/><path fill="#EBD467" d="M11.9 77.3h1.8v-.9h-1.8M13.7 77.3h-1.5v1h2v-1"/><path fill="#A77C39" d="M2.2 77.3h-.5v1h2v-1"/><path fill="#EBD467" d="M9.7 76.4h1.8v-1h-2v1"/><path fill="#E5952E" d="M6.2 76.4h.2v-1H4.3v1"/><path fill="#EBD467" d="M11.5 76.4H9.7v.9h2.2v-.9"/><path fill="#E5952E" d="M4.3 76.4H4v.9h2.2v-.9"/><path fill="#EBD467" d="M11.9 77.3H9.8v1h2.4v-1"/><path fill="#E5952E" d="M4 77.3h-.3v1h2.4v-1"/><path fill="#FBB03B" d="M6.4 75.4h3.2v1H6.4zM9.5 76.4H6.2v.9h3.5v-.9"/><path fill="#FBB03B" d="M9.7 77.3H6.1v1h3.7v-1"/><g><defs><path id="g" d="M2.7 76.2h10.5v.2H2.7z"/></defs><clipPath id="h"><use xlink:href="#g" overflow="visible"/></clipPath><path clip-path="url(#h)" fill="#EBD467" d="M2.7 76.2h10.5v.2H2.7z"/></g><g><defs><path id="i" d="M2.2 77.1h11.4v.2H2.2z"/></defs><clipPath id="j"><use xlink:href="#i" overflow="visible"/></clipPath><path clip-path="url(#j)" fill="#EBD467" d="M2.2 77.1h11.4v.2H2.2z"/></g></svg>