<svg xmlns="http://www.w3.org/2000/svg" xmlns:xlink="http://www.w3.org/1999/xlink" width="59.5" height="57.8" viewBox="0 0 59.5 57.8"><path fill="none" stroke="#465761" stroke-width=".582" stroke-miterlimit="10" d="M2.9 26.6c.8-2.4-.1-5.5-1.2-7.6C.5 16.6 0 13.4.3 10.6c.3-2.1 3-4.4 4.8-5.4 1.8-1 4.3-1.4 6.4-1.5 3.1 0 6.3.2 9.4-.4 2.6-.5 4.9-1.5 7.4-2.1M33 1.3c2 0 3.9.1 5.8.7 3 1 6 2.6 8.9 3.8 1.4.6 2.7.5 4 1 .9.3 1.8.9 2.7 1.4 2.5 1.5 3.1 3.3 3.6 6 .4 2.1.4 4.4.4 6.6 0 1.5.4 4.3-.4 5.5M58.4 31.4c-1.2 5.7.2 11.6-.4 17.4-.2 1.8-1.5 4-2.9 5.1-.8.6-1.9 1.3-2.9 1.5-1.3.3-2.8-.2-4.1-.3-2.8-.3-5.8 0-8.4.5-1.2.2-2.4.3-3.6.3-.9 0-2.3-.3-3 .4M28.3 56.3c-3.2-.3-6.5-.5-9.7-.4-2.4.1-4.1-.1-6.4-.9-2.4-.9-3.6-1.8-4.8-4.1-1.1-2.1-.9-4.7-1.4-7-.5-2.1-1.1-3.9-2.1-5.8-1.1-2.2-1.5-4.1-1.5-6.5"/><path fill="#D4D4D4" d="M30.7 53.5c-13.5 0-24.5-11-24.5-24.5s11-24.5 24.5-24.5c1.3 0 2.5.1 3.8.3.8-.6 1.6-1.2 2.5-1.8-2-.5-4.1-.8-6.3-.8-14.8.1-26.8 12-26.8 26.8s12 26.8 26.8 26.8c2.2 0 4.3-.3 6.3-.8-.9-.6-1.7-1.2-2.5-1.8-1.3.2-2.5.3-3.8.3"/><path fill="#E8E8E8" d="M6.2 29c0 13.5 11 24.5 24.5 24.5 1.3 0 2.5-.1 3.8-.3-2.8-2.3-5.2-5.1-7.1-8.3-7.4-1.5-13-8.1-13-15.9 0-7.8 5.5-14.4 12.9-15.9 1.9-3.2 4.3-6 7.1-8.3-1.2-.2-2.5-.3-3.8-.3-13.4 0-24.4 11-24.4 24.5"/><path fill="#EFEFEF" d="M18.5 29c0-4.7 2.6-8.8 6.5-10.8.6-1.8 1.4-3.5 2.4-5.1-7.4 1.6-13 8.1-13 15.9 0 7.8 5.5 14.4 12.9 15.9-.9-1.6-1.7-3.3-2.4-5.1-3.8-2-6.4-6.1-6.4-10.8M57.4 29c0-12.6-8.7-23.2-20.5-26-.9.6-1.7 1.2-2.5 1.8 11.7 1.8 20.7 12 20.7 24.2s-9 22.4-20.7 24.2c.8.7 1.7 1.3 2.5 1.8 11.8-2.8 20.5-13.4 20.5-26"/><path fill="#E8E8E8" d="M27.4 13.1c1.1-.2 2.2-.3 3.3-.3 9 0 16.2 7.3 16.2 16.2 0 9-7.3 16.2-16.2 16.2-1.1 0-2.3-.1-3.3-.3 1.9 3.2 4.3 6 7.1 8.3 11.7-1.8 20.7-12 20.7-24.2s-9-22.4-20.7-24.2c-2.9 2.3-5.3 5.1-7.1 8.3"/><path fill="#D4D4D4" d="M46.9 29c0-9-7.3-16.2-16.2-16.2-1.1 0-2.3.1-3.3.3-.9 1.6-1.7 3.3-2.4 5.1 1.7-.9 3.6-1.4 5.7-1.4 6.7 0 12.2 5.5 12.2 12.2s-5.5 12.2-12.2 12.2c-2.1 0-4-.5-5.7-1.4.6 1.8 1.4 3.5 2.4 5.1 1.1.2 2.2.3 3.3.3 8.9.1 16.2-7.2 16.2-16.2"/><path fill="#FFF" d="M30.9 8.5s.5 0 1.5.1c.5 0 1.1.1 1.7.2.3.1.7.1 1.1.2.4 0 .8.1 1.2.2 1.7.5 3.8 1.1 6 2.5 2.1 1.3 4.4 3.2 6.2 5.7 1.8 2.6 3.1 5.8 3.5 9.4.1.4 0 .9.1 1.4 0 .5.1.9 0 1.4-.1.9-.1 1.8-.3 2.7-.3 1.9-.9 3.7-1.7 5.5-.8 1.8-2 3.4-3.2 4.9-1.3 1.5-2.8 2.8-4.5 4-1.7 1.1-3.5 2-5.5 2.6-2 .6-4 1-6.1 1.1-2 0-4.1-.2-6.1-.7-2-.6-3.9-1.4-5.7-2.5-1.7-1.1-3.3-2.5-4.6-4-1.3-1.6-2.4-3.3-3.2-5.1-.8-1.8-1.4-3.7-1.6-5.6-.2-.9-.2-1.9-.2-2.8v-1.4c0-.4 0-.9.1-1.3.5-3.7 1.8-6.9 3.6-9.5 1.8-2.6 4.1-4.4 6.2-5.7 2.1-1.3 4.3-2 6-2.5l1.2-.3c.4-.1.8-.1 1.1-.2.7-.1 1.3-.2 1.7-.2 1-.1 1.5-.1 1.5-.1m0 .1s-.5 0-1.4.1c-.5 0-1.1.1-1.7.2-.4.1-.8.1-1.2.2l-1.2.3c-1.7.5-3.7 1.4-5.6 2.8-2 1.4-3.9 3.4-5.5 5.9-1.5 2.5-2.7 5.6-3.1 8.8-.3 3.4.1 6.9 1.6 10.3.7 1.7 1.7 3.3 2.9 4.7 1.2 1.5 2.6 2.7 4.2 3.8 1.6 1.1 3.4 1.9 5.2 2.6 1.9.6 3.8.9 5.8 1 1.9 0 4-.2 5.9-.7 1.9-.6 3.7-1.4 5.4-2.5 1.6-1.1 3.1-2.4 4.3-3.9 1.2-1.5 2.2-3.2 2.9-4.9.7-1.7 1.2-3.5 1.3-5.3.1-.8.1-1.8.1-2.7 0-.8-.1-1.7-.2-2.5-.4-3.3-1.6-6.3-3.2-8.8-1.6-2.5-3.5-4.5-5.5-5.9-2-1.4-4-2.3-5.6-2.8L35.1 9c-.3 0-.7 0-1-.1-.7-.1-1.2-.2-1.7-.2-1 0-1.5-.1-1.5-.1"/><defs><path id="a" d="M3.9 2.3h53.5v53.5H3.9z"/></defs><clipPath id="b"><use xlink:href="#a" overflow="visible"/></clipPath><path clip-path="url(#b)" fill="#D6543B" d="M18.7 26.4c.4-1.8 1.2-3.4 2.2-4.7L5.8 19.1c-.5 1.3-1 2.7-1.3 4.2-1.2 5.4-.7 10.7 1.2 15.4l15-2.5c-1.9-2.8-2.7-6.3-2-9.8M42.6 31.6c-.4 1.7-1.1 3.2-2 4.5l15 2.5c.5-1.3.9-2.6 1.2-3.9 1.2-5.4.6-10.9-1.3-15.7l-15.1 2.6c2.1 2.8 3 6.4 2.2 10M36.4 2.9c-2.1-.5-4.2-.7-6.3-.6-3.2.1-6.4.7-9.3 1.9l2.5 15.1c2.7-2 6.3-2.9 9.9-2.1 1.7.4 3.2 1.1 4.6 2.1l2.5-15.1c-1.1-.6-2.5-1-3.9-1.3M24.9 55.1c5.4 1.2 10.7.7 15.5-1.2l-2.5-15.1c-1.2.9-2.5 1.5-4 1.9-1.9.5-3.9.6-5.9.2-1.7-.4-3.3-1.1-4.7-2.1l-2.5 15.1c1.3.5 2.7.9 4.1 1.2"/><path fill="#D6543B" d="M1.8 26.6h2.4v5H1.8zM57.2 26.4h2.4v5h-2.4zM28.3 55.4h5v2.4h-5zM28.1 0h5v2.4h-5z"/></svg>