<svg xmlns="http://www.w3.org/2000/svg" xmlns:xlink="http://www.w3.org/1999/xlink" width="52.5" height="52.5" viewBox="0 0 52.5 52.5"><path fill="#E8E5D1" d="M5.4 50.9c-2.1 0-3.9-1.7-3.9-3.9V5.4c0-2.1 1.7-3.9 3.9-3.9h41.7c2.1 0 3.9 1.7 3.9 3.9v41.7c0 2.1-1.7 3.9-3.9 3.9H5.4z"/><path fill="#E8E5D1" d="M3.1 5.4c0-1.3 1-2.3 2.3-2.3h41.7c1.3 0 2.3 1 2.3 2.3v.1h3.1v-.1c0-3-2.4-5.4-5.4-5.4H5.4C2.4 0 0 2.4 0 5.4v.1h3.1v-.1zM47.1 49.4H5.4c-1.2 0-2.2-.9-2.3-2.1H0c.1 2.9 2.5 5.2 5.4 5.2h41.7c2.9 0 5.3-2.3 5.4-5.2h-3.1c-.1 1.2-1.1 2.1-2.3 2.1"/><path fill="#EEECDD" d="M52.5 5.5h-3.1v41.7h3.1V5.5zM3.1 47.1V5.5H0v41.7h3.1v-.1"/><defs><path id="a" d="M0 0h52.5v5.5H0z"/></defs><clipPath id="b"><use xlink:href="#a" overflow="visible"/></clipPath><path clip-path="url(#b)" fill="#E8E5D1" d="M3.1 5.4c0-1.3 1-2.3 2.3-2.3h41.7c1.3 0 2.3 1 2.3 2.3v.1h3.1v-.1c0-3-2.4-5.4-5.4-5.4H5.4C2.4 0 0 2.4 0 5.4v.1h3.1v-.1z"/><g opacity=".5"><defs><path id="c" d="M0 47.3h52.5v5.2H0z"/></defs><clipPath id="d"><use xlink:href="#c" overflow="visible"/></clipPath><path clip-path="url(#d)" fill="#E8E5D1" d="M47.1 49.4H5.4c-1.2 0-2.2-.9-2.3-2.1H0c.1 2.9 2.5 5.2 5.4 5.2h41.7c2.9 0 5.3-2.3 5.4-5.2h-3.1c-.1 1.2-1.1 2.1-2.3 2.1"/></g><path fill="#C4C5C4" d="M12.4 26.5c0 1.3-1.1 2.4-2.4 2.4-1.3 0-2.4-1.1-2.4-2.4v-.2c-.2 0-.3-.1-.5-.1v.3c0 1.6 1.3 2.9 2.9 2.9 1.6 0 2.9-1.3 2.9-2.9v-.3c-.2 0-.3.1-.5.1v.2"/><path fill="#676A67" d="M10 23.6c-1.5 0-2.7 1.1-2.9 2.6.2 0 .3.1.5.1.1-1.2 1.1-2.2 2.4-2.2 1.3 0 2.3 1 2.4 2.2.2 0 .3-.1.5-.1-.2-1.5-1.4-2.6-2.9-2.6"/><path fill="#A8AAA8" d="M12.6 26.5c0 1.5-1.2 2.6-2.6 2.6-1.5 0-2.6-1.2-2.6-2.6 0-1.5 1.2-2.6 2.6-2.6 1.4 0 2.6 1.1 2.6 2.6"/><path fill="#515551" d="M8.7 25.2l.6.3c.3.2.7.5 1 .8.3.3.6.7.8 1 .2.3.3.6.3.6l-.6-.3c-.3-.2-.7-.5-1-.8-.3-.3-.6-.7-.8-1l-.3-.6"/><path fill="#515551" d="M8.7 27.8l.3-.6c.2-.3.5-.7.8-1 .3-.3.7-.6 1-.8.3-.2.6-.3.6-.3l-.3.6c-.2.3-.5.7-.8 1-.3.3-.7.6-1 .8l-.6.3"/><path fill="#C4C5C4" d="M44.9 26.3c0 1.3-1.1 2.4-2.4 2.4-1.3 0-2.4-1.1-2.4-2.4v-.2c-.2 0-.3-.1-.5-.1v.3c0 1.6 1.3 2.9 2.9 2.9 1.6 0 2.9-1.3 2.9-2.9V26c-.2 0-.3.1-.5.1v.2"/><path fill="#676A67" d="M42.5 23.4c-1.5 0-2.7 1.1-2.9 2.6.2 0 .3.1.5.1.1-1.2 1.1-2.2 2.4-2.2s2.3 1 2.4 2.2c.2 0 .3-.1.5-.1-.2-1.4-1.4-2.6-2.9-2.6"/><path fill="#A8AAA8" d="M45.2 26.3c0 1.5-1.2 2.6-2.6 2.6-1.5 0-2.6-1.2-2.6-2.6 0-1.5 1.2-2.6 2.6-2.6 1.4 0 2.6 1.2 2.6 2.6"/><path fill="#515551" d="M41.2 25l.6.3c.3.2.7.5 1 .8.3.3.6.7.8 1 .2.3.3.6.3.6l-.6-.3c-.3-.2-.7-.5-1-.8-.3-.3-.6-.7-.8-1-.2-.3-.3-.6-.3-.6"/><path fill="#515551" d="M41.2 27.6l.3-.6c.2-.3.5-.7.8-1 .3-.3.7-.6 1-.8.3-.2.6-.3.6-.3l-.3.6c-.2.3-.5.7-.8 1-.3.3-.7.6-1 .8-.3.2-.6.3-.6.3"/><g opacity=".5"><defs><path id="e" d="M20.3 16.4h11.8v21.7H20.3z"/></defs><clipPath id="f"><use xlink:href="#e" overflow="visible"/></clipPath><path clip-path="url(#f)" fill="#E8E5D1" d="M32.2 37.3c0 .4-.3.8-.8.8H21.1c-.4 0-.8-.3-.8-.8V17.1c0-.4.3-.8.8-.8h10.3c.4 0 .8.3.8.8v20.2z"/></g><path fill="#E9EAE9" d="M32.2 35.9c0 .4-.3.8-.8.8H21.1c-.4 0-.8-.3-.8-.8V15.7c0-.4.3-.8.8-.8h10.3c.4 0 .8.3.8.8v20.2z"/><path fill="#252A26" d="M21.7 16.4h9.2v18.9h-9.2z"/><path fill="#E9EAE9" d="M21.9 16.8h8.6v17.8h-8.6z"/><g opacity=".5"><defs><path id="g" d="M21.9 31.8h8.6v2.8h-8.6z"/></defs><clipPath id="h"><use xlink:href="#g" overflow="visible"/></clipPath><path clip-path="url(#h)" fill="#E8E5D1" d="M21.9 31.8h8.6v2.8h-8.6z"/></g></svg>