<svg xmlns="http://www.w3.org/2000/svg" xmlns:xlink="http://www.w3.org/1999/xlink" width="67.8" height="67.8" viewBox="0 0 67.8 67.8"><path fill="#8E8D8D" d="M25.147 37.507l5.162 5.162L8.105 64.87 2.944 59.71z"/><path fill="#646263" d="M2.92 59.687L25.12 37.484l.778.778L3.697 60.465zM7.448 64.117L29.65 41.914l.78.778L8.225 64.895z"/><path fill="#C7C7C7" d="M4.83 61.618l22.204-22.203 1.414 1.414L6.245 63.03z"/><g opacity=".4"><defs><path id="a" d="M27.8 4.1h35.9V40H27.8z"/></defs><clipPath id="b"><use xlink:href="#a" overflow="visible"/></clipPath><path clip-path="url(#b)" fill="#9BCBDE" d="M58.5 34.7c-7 7-18.4 7-25.4 0s-7-18.4 0-25.4 18.4-7 25.4 0c7 7.1 7 18.4 0 25.4"/></g><g opacity=".4"><defs><path id="c" d="M36.7 6.2h25v25h-25z"/></defs><clipPath id="d"><use xlink:href="#c" overflow="visible"/></clipPath><path clip-path="url(#d)" fill="#D2E8F0" d="M44.6 23.2c4.6 4.6 9.8 7.4 14 7.9 4.5-6.1 4.1-14.8-1.5-20.4-5.6-5.6-14.3-6.1-20.4-1.5.5 4.2 3.3 9.4 7.9 14"/></g><g opacity=".4"><defs><path id="e" d="M32.2 4.1h31.5v31.5H32.2z"/></defs><clipPath id="f"><use xlink:href="#e" overflow="visible"/></clipPath><path clip-path="url(#f)" fill="#9BCBDE" d="M56.7 11.1c6.7 6.7 7 17.4.8 24.5.3-.3.6-.5.9-.8 7-7 7-18.4 0-25.4S40 2.4 33 9.4c-.3.3-.6.6-.8.9 7.1-6.2 17.8-5.9 24.5.8"/></g><g opacity=".4"><defs><path id="g" d="M27.8 4.1h35.9V40H27.8z"/></defs><clipPath id="h"><use xlink:href="#g" overflow="visible"/></clipPath><path clip-path="url(#h)" fill="#9BCBDE" d="M45.8 4.9c4.6 0 8.9 1.8 12.1 5 3.2 3.2 5 7.5 5 12.1s-1.8 8.9-5 12.1c-3.2 3.2-7.5 5-12.1 5s-8.9-1.8-12.1-5c-3.2-3.2-5-7.5-5-12.1s1.8-8.9 5-12.1c3.2-3.2 7.5-5 12.1-5m0-.8c-4.6 0-9.2 1.8-12.7 5.3-7 7-7 18.4 0 25.4 3.5 3.5 8.1 5.3 12.7 5.3s9.2-1.8 12.7-5.3c7-7 7-18.4 0-25.4-3.5-3.6-8.1-5.3-12.7-5.3"/></g><path fill="#B6B5B5" d="M27.677 32.878l7.285 7.283-5.374 5.376-7.285-7.283z"/><path fill="#9C9A9B" d="M22.278 38.227l5.374-5.374 1.06 1.06-5.374 5.374zM28.535 44.528l5.374-5.374 1.06 1.06-5.375 5.375z"/><path fill="#DCDBDB" d="M24.946 40.918l5.374-5.374 1.98 1.98-5.374 5.373z"/><path fill="#B6B5B5" d="M1.856 58.622l7.284 7.283-1.91 1.91-7.283-7.284z"/><path fill="#9C9A9B" d="M-.003 60.58l1.91-1.907 1.06 1.062-1.91 1.908zM6.255 66.74l1.91-1.907 1.06 1.06-1.91 1.91z"/><path fill="#DCDBDB" d="M2.597 63.2l1.91-1.91 1.98 1.98-1.91 1.91z"/><path fill="#676465" d="M30.2 37.6c-8.6-8.6-8.6-22.6 0-31.2s22.6-8.6 31.2 0C70 15 70 29 61.4 37.6s-22.6 8.6-31.2 0M58.3 9.5c-6.9-6.9-18.2-6.9-25.1 0s-6.9 18.2 0 25.1c6.9 6.9 18.2 6.9 25.1 0s7-18.2 0-25.1"/><path fill="#918F90" d="M33.2 34.6c-6.9-6.9-6.9-18.2 0-25.1L32 8.3c-7.6 7.6-7.6 19.9 0 27.5 7.6 7.6 19.9 7.6 27.5 0l-1.2-1.2c-6.9 6.9-18.2 6.9-25.1 0"/><path fill="#4F4C4D" d="M59.6 8.3C52 .7 39.6.7 32 8.3l1.2 1.2c6.9-6.9 18.2-6.9 25.1 0 6.9 6.9 6.9 18.2 0 25.1l1.2 1.2c7.6-7.6 7.6-19.9.1-27.5"/></svg>