<svg xmlns="http://www.w3.org/2000/svg" xmlns:xlink="http://www.w3.org/1999/xlink" width="34.4" height="67.3" viewBox="0 0 34.4 67.3"><path fill="#B52126" d="M30.1 59.1c2.6-4.6 4.1-10.6 4.1-17.2 0-2.5-.2-4.8-.6-7.1 0-.2-.1-.5-.1-.7-.1-.3-.1-.6-.2-.9-1.5-7.1-1.5-13.5-1.4-16.7.1-.6.1-1.2.1-1.7v-.3-.1C31.7 6.4 25.2 0 17.2 0 9.1 0 2.5 6.6 2.5 14.8c0 .8.1 1.5.2 2.3.1 3.1 0 8.7-1.2 14.9C.7 35.1.3 38.4.3 41.9c0 6.6 1.5 12.6 4.1 17.2C1.6 60.2 0 61.8 0 63.4c0 3.6 7.7 3.8 17.2 3.8s17.2-.2 17.2-3.8c0-1.6-1.6-3.2-4.3-4.3"/><defs><path id="a" d="M17.2 36.1h17.2v31.2H17.2z"/></defs><clipPath id="b"><use xlink:href="#a" overflow="visible"/></clipPath><path clip-path="url(#b)" fill="#B52126" d="M30.1 59.1c2.6-4.6 4.1-10.6 4.1-17.2 0-2-.1-3.9-.4-5.8.2 1.2.3 2.5.4 3.8-.4.9-.9 1.8-1.4 2.6-.1 6.3-1.5 12.1-3.8 16.6 2.5 1.2 4 2.7 4 4.3 0 3.6-7.1 3.8-15.8 3.8 9.5 0 17.2-.2 17.2-3.8 0-1.6-1.6-3.2-4.3-4.3"/><defs><path id="c" d="M0 39.9h17.2v27.4H0z"/></defs><clipPath id="d"><use xlink:href="#c" overflow="visible"/></clipPath><path clip-path="url(#d)" fill="#B52126" d="M1.4 63.4c0-1.7 1.5-3.2 4-4.3-2.3-4.5-3.7-10.2-3.8-16.6-.5-.8-.9-1.7-1.4-2.6 0 .7-.1 1.3-.1 2 0 6.6 1.5 12.6 4.1 17.2C1.6 60.2 0 61.8 0 63.4c0 3.6 7.7 3.8 17.2 3.8-8.7.1-15.8-.2-15.8-3.8"/><defs><path id="e" d="M17.2 0h16.9v42.5H17.2z"/></defs><clipPath id="f"><use xlink:href="#e" overflow="visible"/></clipPath><path clip-path="url(#f)" fill="#F3EFD9" d="M17.2 0c7.3 0 13.3 6.4 13.5 14.5v.4c0 .6 0 1.2-.1 1.7-.1 3.2 0 9.6 1.3 16.7.1.3.1.6.2.9 0 .2.1.5.1.7.1.4.1.8.2 1.2v.1c.2 1.9.4 3.8.4 5.8v.6c.5-.8.9-1.7 1.4-2.6-.1-1.3-.2-2.6-.4-3.8v-.1c-.1-.4-.1-.8-.2-1.2 0-.2-.1-.5-.1-.7-.1-.3-.1-.6-.2-.9-1.5-7.1-1.5-13.5-1.4-16.7.1-.6.1-1.2.1-1.7v-.3-.1C31.7 6.4 25.2 0 17.2 0"/><defs><path id="g" d="M.3 0h16.9v42.5H.3z"/></defs><clipPath id="h"><use xlink:href="#g" overflow="visible"/></clipPath><path clip-path="url(#h)" fill="#F3EFD9" d="M1.6 41.9v-2-.1-.8-.3c0-.3 0-.6.1-.8 0-.5.1-1 .2-1.5 0-.2.1-.4.1-.6 0-.2 0-.3.1-.5 0-.2.1-.5.1-.7 0-.1 0-.2.1-.4.1-.3.1-.6.2-.9v-.2c.1-.4.2-.7.2-1.1 1.1-6.2 1.2-11.8 1.1-14.9-.1-.7-.2-1.5-.2-2.3C3.7 6.7 9.7 0 17.2 0 9.1 0 2.5 6.7 2.5 14.8c0 .8.1 1.5.2 2.3.1 3.1 0 8.7-1.2 14.9-.1.4-.2.7-.3 1.1v.2c-.1.3-.2.6-.2.9 0 .1 0 .2-.1.4 0 .2-.1.5-.1.7 0 .2-.1.3-.1.5s-.1.4-.1.6l-.3 2.4v.2c0 .3 0 .6-.1.8v.1c.4.9.9 1.8 1.3 2.6.1-.2.1-.4.1-.6"/><path fill="#F3EFD9" d="M33.4 34.1c-.1-.3-.1-.6-.2-.9-1.4-7.1-1.5-13.5-1.4-16.7.1-.6.1-1.2.1-1.7v-.3-.1C31.7 6.4 25.2 0 17.2 0 9.1 0 2.5 6.6 2.5 14.8c0 .8.1 1.5.2 2.3.1 3.1 0 8.7-1.2 14.9-.6 2.5-1 5.1-1.2 7.9 3.7 8 9.9 13.3 16.9 13.3 7 0 13.3-5.3 16.9-13.3-.1-1.7-.3-3.4-.6-5.1 0-.2 0-.4-.1-.7"/><path fill="none" stroke="#72583C" stroke-width=".258" stroke-miterlimit="10" d="M3.1 21.2c0-.6 6.4-1.1 14.3-1.1s14.3.5 14.3 1.1"/><path fill="none" stroke="#72583C" stroke-width=".261" stroke-miterlimit="10" d="M2.6 24c0-.6 6.5-1.1 14.6-1.1s14.6.5 14.6 1.1"/><path fill="none" stroke="#68111E" stroke-width=".243" stroke-miterlimit="10" d="M29.9 58.9c0 .6-5.7 1.1-12.6 1.1-7 0-12.6-.5-12.6-1.1"/><path fill="#C44E51" d="M33 62.4c0 .2-.1.3-.3.5-.1.1-.3.2-.4.3-.3.2-.6.3-1 .5-.6.3-1.3.5-2 .7-1.4.2-2.7.3-4.1.4-2.7.2-5.4.3-8.1.3-2.7 0-5.4-.1-8.1-.3-1.4-.1-2.7-.2-4.1-.4-.7-.2-1.3-.4-2-.7-.3-.1-.6-.3-1-.5-.2-.1-.3-.2-.4-.3-.1-.1-.3-.3-.3-.5.1.3.5.3.8.4.3.1.7.1 1 .1h2c1.3.2 2.6.3 4 .4 2.7.2 5.3.3 8 .3s5.4-.1 8-.3c1.3-.1 2.7-.2 4-.4h2c.3 0 .7 0 1-.1.5-.1.9-.1 1-.4"/><path fill="#F3EFD9" d="M13.6 25.3s-2.2-.9-4.1 2.4c-1.9 3.2-1.6 2.2-1.6 2.2l5.3.7s3.4.6 3.3-2.7c-.1-3.3-.3-2.6-.3-2.6h-2.6z"/><path fill="none" stroke="#72583C" stroke-width=".261" stroke-miterlimit="10" d="M13.6 25.3s-2.2-.9-4.1 2.4c-1.9 3.2-1.6 2.2-1.6 2.2l5.3.7s3.4.6 3.3-2.7c-.1-3.3-.3-2.6-.3-2.6h-2.6z"/><path fill="#F3EFD9" d="M21.4 25.3s2.2-.9 4.1 2.4c1.9 3.2 1.6 2.2 1.6 2.2l-5.3.7s-3.4.6-3.3-2.7c.1-3.3.3-2.6.3-2.6h2.6z"/><path fill="none" stroke="#72583C" stroke-width=".261" stroke-miterlimit="10" d="M21.4 25.3s2.2-.9 4.1 2.4c1.9 3.2 1.6 2.2 1.6 2.2l-5.3.7s-3.4.6-3.3-2.7c.1-3.3.3-2.6.3-2.6h2.6z"/><path fill="#F3EFD9" d="M19.1 26.7c0 .9-.8 1.7-1.7 1.7-.9 0-1.7-.8-1.7-1.7 0-.9.8-1.7 1.7-1.7.9 0 1.7.7 1.7 1.7"/><circle fill="none" stroke="#72583C" stroke-width=".356" stroke-miterlimit="10" cx="17.4" cy="26.7" r="1.7"/><path fill="#F3EFD9" d="M28.4 15.4c0 6.2-5 11.2-11.2 11.2C11 26.6 6 21.6 6 15.4 6 9.2 11 4.2 17.2 4.2c6.2 0 11.2 5 11.2 11.2"/><circle fill="none" stroke="#72583C" stroke-width=".258" stroke-miterlimit="10" cx="17.2" cy="15.4" r="11.2"/><path fill="#231F20" d="M19.9 12.1h0M28.4 14c-.7-5.5-5.4-9.8-11.1-9.8-5.1 0-9.4 3.4-10.8 8 .1 0 .1-.1.2-.1.4-.1.8-.1 1.2-.2.8-.2 1.6-.6 2.4-.9 1.8-.6 3.5-1 5-2.2l.1-.1c-.1 1.1 1 2.9 1.8 3.6.6.7 1.5 1 2.4 1.3-.5-.4-.7-1.4-.7-2.2.1.3.6.6 1 .7-.4-.2-.5-1.4-.5-1.7.4.5 1.1.6 1.8.7.9.2 1.8.4 2.7.7 1.1.4 2.4.5 3.3 1.2.4.3.8.7 1.2 1"/><path fill="#FFF" d="M15.1 17.7c-1.3.4-2.6.3-3.7-.4l-.6-.6c.5-.7 1.7-.9 2.5-.9.5 0 1 0 1.4.2.4.1.8.6 1.2.7l-.8 1z"/><defs><path id="i" d="M10.8 16.7l.6.6c1.1.7 2.4.7 3.7.4l.8-1.1c-.4-.1-.8-.6-1.2-.7-.5-.1-.9-.2-1.4-.2-.8.1-1.9.4-2.5 1"/></defs><clipPath id="j"><use xlink:href="#i" overflow="visible"/></clipPath><path clip-path="url(#j)" fill="#B9E0ED" d="M14.6 16.5c0 .7-.5 1.2-1.2 1.2s-1.2-.5-1.2-1.2.5-1.2 1.2-1.2 1.2.5 1.2 1.2"/><circle clip-path="url(#j)" fill="none" stroke="#231F20" stroke-width=".135" stroke-miterlimit="10" cx="13.4" cy="16.5" r="1.2"/><path clip-path="url(#j)" fill="#231F20" d="M14.1 16.5c0 .4-.3.7-.7.7-.4 0-.7-.3-.7-.7 0-.4.3-.7.7-.7.4 0 .7.3.7.7"/><path clip-path="url(#j)" fill="#FFF" d="M13.5 16.3c0 .2-.1.3-.3.3-.2 0-.3-.1-.3-.3 0-.2.1-.3.3-.3.2 0 .3.1.3.3"/><path fill="#231F20" d="M15.6 14.5c-.3-.4-.6-.6-1-.8-.4-.2-.8-.3-1.2-.3-.9 0-1.8.1-2.6.5.3-.4.7-.6 1.2-.8.5-.2.9-.2 1.4-.2.5 0 1 .2 1.4.5.3.2.7.6.8 1.1"/><path fill="none" stroke="#231F20" stroke-width=".237" stroke-miterlimit="10" d="M16 16.7c-.4-.1-.8-.6-1.2-.7-.5-.1-.9-.2-1.4-.2-.8 0-2 .3-2.5 1"/><path fill="none" stroke="#231F20" stroke-width=".505" stroke-miterlimit="10" d="M11.4 17.4c1.1.7 2.4.7 3.7.4"/><path fill="none" stroke="#231F20" stroke-width=".237" stroke-miterlimit="10" d="M11.8 16c-.3-.1-.6-.2-.8-.4-.2-.2-.2-.3-.3-.5M11.3 16.2c-.7-.2-2.1-.8-2-1.8M10.8 16.6c-.4-.1-1.2-.5-1.5-.8-.3-.2-.7-.8-.6-1.2"/><path fill="#FFF" d="M19.3 17.7c1.3.4 2.6.3 3.7-.4l.6-.6c-.5-.7-1.7-.9-2.5-.9-.5 0-1 0-1.4.2-.4.1-.8.6-1.2.7l.8 1z"/><defs><path id="k" d="M19.6 16c-.4.1-.8.6-1.2.7l.8 1.1c1.3.4 2.6.3 3.7-.4l.6-.6c-.5-.7-1.7-.9-2.5-.9-.5-.1-.9-.1-1.4.1"/></defs><clipPath id="l"><use xlink:href="#k" overflow="visible"/></clipPath><path clip-path="url(#l)" fill="#B9E0ED" d="M19.8 16.5c0 .7.5 1.2 1.2 1.2s1.2-.5 1.2-1.2-.5-1.2-1.2-1.2-1.2.5-1.2 1.2"/><circle clip-path="url(#l)" fill="none" stroke="#231F20" stroke-width=".135" stroke-miterlimit="10" cx="21" cy="16.5" r="1.2"/><path clip-path="url(#l)" fill="#231F20" d="M20.3 16.5c0 .4.3.7.7.7.4 0 .7-.3.7-.7 0-.4-.3-.7-.7-.7-.4 0-.7.3-.7.7"/><path clip-path="url(#l)" fill="#FFF" d="M20.6 16.3c0 .2.1.3.3.3s.3-.1.3-.3c0-.2-.1-.3-.3-.3s-.3.1-.3.3"/><path fill="#231F20" d="M18.8 14.5c.1-.5.5-.9.9-1.1.4-.3.9-.4 1.4-.5.5 0 1 0 1.4.2.5.2.9.4 1.2.8-.8-.4-1.7-.5-2.6-.5-.4 0-.8.1-1.2.3-.4.2-.8.4-1.1.8"/><path fill="none" stroke="#231F20" stroke-width=".237" stroke-miterlimit="10" d="M18.4 16.7c.4-.1.8-.6 1.2-.7.5-.1.9-.2 1.4-.2.8 0 2 .3 2.5 1"/><path fill="none" stroke="#231F20" stroke-width=".505" stroke-miterlimit="10" d="M23 17.4c-1.1.7-2.4.7-3.7.4"/><path fill="none" stroke="#231F20" stroke-width=".237" stroke-miterlimit="10" d="M22.7 16c.3-.1.6-.2.8-.4.2-.2.2-.3.3-.5M23.1 16.2c.7-.2 2.1-.8 2-1.8M23.6 16.6c.4-.1 1.2-.5 1.5-.8.3-.2.7-.8.6-1.2"/><path fill="#A82526" d="M17.8 21.8c-.2.5-.4.6-.5.7-.1-.1-.4-.2-.5-.7-.3-.7-.5.9-1.6.8h4.3c-1.2.1-1.4-1.5-1.7-.8"/><path fill="#C82257" d="M15.9 22.6h1.4v.9s-1.1-.2-1.4-.9M18.7 22.6h-1.4v.9s1.1-.2 1.4-.9"/><path fill="#231F20" d="M17 20c.1.2 0 .4-.2.4-.2.1-.3 0-.4-.2-.1-.2 0-.4.2-.4.1-.1.3 0 .4.2M17.6 20c-.1.2 0 .4.2.4.2.1.3 0 .4-.2.1-.2 0-.4-.2-.4-.1-.1-.3 0-.4.2"/><path fill="#D86489" d="M13 20.8c0 1.3-.9 2.3-1.9 2.3-1.1 0-1.9-1-1.9-2.3 0-1.3.9-2.3 1.9-2.3 1-.1 1.9 1 1.9 2.3M25.5 20.8c0 1.3-.9 2.3-1.9 2.3s-1.9-1-1.9-2.3c0-1.3.9-2.3 1.9-2.3s1.9 1 1.9 2.3"/><path fill="none" stroke="#72583C" stroke-width=".239" stroke-linecap="round" stroke-linejoin="round" stroke-miterlimit="10" d="M6.2 23.3s.8 2.4-2.3 3.9M5.2 26.5s.2 3-1.7 3.5M4.3 29.7s0 1.9-1.2 2.5M3.4 32.3s-.2 5.9 0 6.5c0 0-1.5.5-1.7 1.1M3.3 39.1s1.4 2.7 1.4 2.8c0 .1 0 .6-.4.3l.4 1.4s-.1.4-.4 0l-.5-.9 1 2.1s.2.7-.4.4l-1-1.8.9 1.5s-.1.6-.6.4-2-2.9-1.9-5M28.2 23.3s-.8 2.4 2.3 3.9M29.3 26.5s-.2 3 1.7 3.5M30.2 29.7s0 1.9 1.2 2.5M31 32.3s.2 5.9 0 6.5c0 0 1.5.5 1.7 1.1M31.2 39.1s-1.4 2.7-1.4 2.8c0 .1 0 .6.4.3l-.4 1.4s.1.4.4 0l.5-.9-1 2.1s-.2.7.4.4l1-1.8-.9 1.5s.1.6.6.4 2-2.9 1.9-5"/><g opacity=".5"><defs><path id="m" d="M18.2 2h13.1v56H18.2z"/></defs><clipPath id="n"><use xlink:href="#m" overflow="visible"/></clipPath><path clip-path="url(#n)" fill="#F1EEEC" d="M18.3 2c2.6.4 5 1.8 6.9 3.8 1.9 1.9 3.2 4.5 3.6 7.1.5 2.7 0 5.3-.3 7.8-.2 2.5-.2 5.1.1 7.6.2 1.2.4 2.5.8 3.5l.4.8c.1.3.3.7.4 1.1l.4 1.9c.5 2.6.8 5.2.6 7.9-.3 5.3-2.3 10.5-5.5 14.5 0 .1-.1.1-.2 0 0 0-.1-.1 0-.1 1.9-4.7 3.1-9.6 3.2-14.5.1-2.4 0-4.9-.3-7.4-.1-.6-.2-1.3-.3-1.9 0-.3-.1-.5-.2-.8-.1-.3-.2-.6-.3-1-.3-1.4-.3-2.7-.2-4 .1-2.6.4-5.1.4-7.7 0-1.3 0-2.5-.1-3.8-.2-1.2-.4-2.4-.8-3.6-.6-2.2-1.6-4.3-3.1-6.2-1.5-1.9-3.4-3.5-5.6-4.7-.1 0-.1-.1 0-.2 0-.1.1-.1.1-.1"/></g><path fill="#A82526" d="M18 48.2s-7.4-13.3-.4-12.1c0 0 6.3-1.2 4.7 2.9 0 0-.5 6.3-2.2 9.2-1.7 2.8-1.9.4-2.1 0"/><path fill="#A82526" d="M17.1 46.4s-2.3-11.1-7.5-8.7c-5.2 2.4-3 1.7-3 1.7s1.5 2.1 3.1 2.2c1.7.1-.9 1.2-1.5 1.3-.6.1-.6 1-.1 1.3.5.3 6.6-.5 8.1 2.7 1.6 3.1.9-.5.9-.5M19.6 47.1s1.3-7 4.1-7.5 4 .5 3.8.9-.4.6-.3 1c.1.4 1.9 1.6.3 2.7-1.6 1.1-5.2 3.8-6.4 3.9-1.2.2-1.7-.1-1.5-1"/><path fill="#666943" d="M18.6 49.4s-2.4-8.6-12.2-6.2c0 0 3.1 1.1 2.8 2.4 0 0-.4.7-1.6.4-1.2-.1 1.5 4.3 11 3.4M19 49.3s1.4-5.5 4.1-6.2c2.7-.8 4.4-2.1 4.4-2.1s.4 1.4-.2 2.1-1.2 1.3.4 1.6-1.3 1.9-2.4 2.4c-1.1.5-1.2 1.5-1.2 1.5s-3.6.7-5.1.7"/><path fill="#666943" d="M18.5 49.3s.2-8.7-6-9.7c0 0 5 4.4 6 9.7M19.3 49.3s-.1-8.7 4.9-9.7c-.1 0-4.1 4.4-4.9 9.7"/><path fill="none" stroke="#ECC57C" stroke-width=".356" stroke-linecap="round" stroke-miterlimit="10" d="M17.7 39.5c-.3-.3-.4-.8-.6-1.2-.2-.6-.5-1.2-.8-1.8-.3-.8-.4-1.6-.7-2.4-.2-.7-.5-1.4-.9-2M18.3 39.2c-.6-2.2-.1-4.5-.1-6.8M19.2 39.4c0-1.5.2-2.7.7-4.1.3-.9 1-1.7 1.6-2.5M20 38.9c0-.8.5-1.7.7-2.4.1-.4.3-.9.5-1.3"/></svg>