<svg xmlns="http://www.w3.org/2000/svg" xmlns:xlink="http://www.w3.org/1999/xlink" width="57.2" height="70.8" viewBox="0 0 57.2 70.8"><path fill="none" stroke="#DFAE57" stroke-width="2.273" stroke-miterlimit="10" d="M38.2 42.7c2.1-2 5.3-2.7 7-5.3 1.2-1.8.8-4.8-1-6-3.6-2.3-6.5 5.1-3.2 5.6 2.7.5 2-3.7 1.1-5.2-1.7-2.9-5.2-1.3-7.3.1-1.3.9-2.4 1.6-2.7 3.3-.3 1.7.1 3.3 1.3 4.3 2.5 2.2 5.3-1.4 2.6-3.6-1.9-1.5-9.6 0-8.4 3.8.4 1.3 1.6 1.6 2.6 1.1 2.7-1.3 2.5-4.4.7-6.6-2.6-3.1-5.9-3.9-9.4-2.3-2.4 1.1-3.5 3.7-1.8 6.2 1.2 1.9 3.7 2.8 5.1.7 1.5-2.2-.1-4.4-2.2-4.6-2-.2-3.9.6-5.7 1.6-.5.3-1.8.6-1.9 1.4 0 .8 1.4 1.4 2 1.1 2.1-1-.7-4.1-1.4-4.7-1.9-1.5-6.1-3.2-7.9-.6-1.1 1.5-.2 4.2.9 5.3 1.7 1.8 5.5 1.2 6.5-1.3 1.7-4.1-6.6-8.7-8.9-5.6-1.1 1.5-2.2 4-1.2 6 .7 1.5 2.6 2.4 4 2.5 1.8.2 4.2.5 5.9 0 2.4-.7 4.4-3.6 4.9-6.2.4-2.3-.4-6.4-3-3.9-2.8 2.6-.6 7.1 2.3 8.4 2.2 1 6.1-.9 7.1-3.4 1-2.6-1.1-1.9-2.3-.7-.9.8-2.4 2.4-2.2 3.8.1 1.3 1.8 1.7 2.8 1.9 3 .7 12 1.4 12.3-3.9.2-3.5-4.9-6.3-7.6-5-1.4.7-2.7 2.8-2.8 4.5-.1 2 1.6 3.7 3.1 4.4 3.9 1.8 8.8-1.5 10.1-5.7 1.3-4.2-4.1-2.1-5.7-1-.8.5-2.3 1.3-2.5 2.4 1.8.6 4.3.4 6.2.2 2.6-.2 5.7-1.1 8.1-2.4 4.4-2.4-2.4-4.1-4.4-3.3-1.1.4-3.3 1.3-3.7 2.7-.4 1.5.9 2.4 1.8 3.2 2.3 2.1 8.5 7.5 10.2 1.4.4-1.4.5-4.5-1-5.2-2-.9-6.5 4.2-6.3 6.4.2 2.8 5.6 3.4 7.3 2.8 3.7-1.1 3.6-6.1 1.6-8.9-2-2.8-4.7-3.2-7-.6-1.3 1.5-2 3.2.3 3.8.7.2 1.2.1 1.6-.6.7-1.6-.7-3.2-1.7-4.1-3.4-3.1-9.5-4.2-11.2 1.8-.7 2.6 2.3 5.6 4.5 5.7 2.1 0 2.1-3.8 1.2-5.2-1.4-2.3-3.9-3.5-6.3-3.5-2.7 0-5.2 1.7-7 4-.9 1.2-2 2.8-.5 4 3.2 2.7 10.6 1.2 11.2-3.8.7-5.5-6.6-6.9-9.9-5.8-3.1 1-6.5 3.9-8.1 7-1 2-.3 3.4 1.2 4.7.6.5 1.4 1.2 2.3 1 1.6-.5 2.5-3.1 2.6-4.7.2-3.4-3.1-8.9-6.5-6.1-2.4 2-3.7 8.8.5 9.3 4.3.5 3.7-7 1.4-9-2.1-1.8-4.5 2.2-4.5 4.4 0 1.9 2.6 2.5 3 .4.6-2.8-1.8-6.4-4.5-6.2-2 .2-3 2.9-3.7 4.7-.7 1.7-1.5 3.8-.3 5.4 2.2 2.9 5.6 1 7.2-1.7 1.6-2.7 1.4-4.7-1.5-5.5-2.6-.7-7.7 1.6-7.4 5.2.2 1.8 1.9 3.1 3 4.2 1.2 1.1 3 2.5 4.6 2.6 2.5.1 5-4.2 5.5-6.7.4-2 .5-4.5-.1-6.4-.9-2.7-2.1-2.1-3.7-.2-3.1 3.7-4.8 8.8-.9 12.5 2.3 2.2 4.9 3.3 8 3.2 3.6-.2 8.4-2.3 9.9-6.3.9-2.3-.1-7.7-3.2-6.1-2 1-3.9 3.5-5 5.5-.8 1.4-1.3 2.3.4 2.6 3.7.7 11.2-1.6 11.3-6.8 0-1.8-1-3.3-2.5-4-2.6-1.2-4.7 1.3-6.4 3.3-1.1 1.3-3.9 5.2-.3 4.7 3.1-.4 5.1-6.8 3.5-9.6-2.3-4.1-7.5 2.6-8.5 5-1.7 4.3 6.8 6.1 9.1 6.2 3.8.2 9.8-2.2 8.1-7.9-.4-1.5-1.9-2.5-3.2-2.9-2.1-.6-3.5 1.1-4.4 3.1-.8 1.8-1.6 5.1-.8 7.1s3.2 2.8 4.9 3.1c3.9.6 9.8-3.8 9-8.8-.6-3.8-5.9-1.6-7.6-.3-.9.7-2.7 2.4-2.3 4 .5 1.8 3.8 2.2 5.1 2.3 3.7.2 7.4-3.3 6.1-7.7-.9-3.1-4.1-3.9-6.4-1.9-3.5 3.1.4 7.6 2.9 9.7 3 2.5 6.4-1.3 5.9-5-.6-4.9-6.2-7.9-10.2-7.1-2.6.5-4.6 3-6 5.3-1.3 1.9-2.4 4.2-1 6.5 2.2 3.4 5.2 4.3 8.1 1.4 1.5-1.5 2.3-3.8 1.8-6.1-.8-3.2-3.7-5.2-6.3-6.4C31 26.6 22.3 28 20 35c-.5 1.6-.7 3.7.3 5.1.4.6 1.5 1.8 2.3 1.5 1.4-.5 1.5-5 1.5-6.1.1-3.3-.6-6.8-2.6-9.3-3.5-4.6-7 1.5-8.8 4.9-1.1 2.3-2.5 5.1-.1 6.7.6.4 1.6.9 2.3.9 2.1 0 4.3-3.6 5-5.6.6-2 0-3.8-2.1-3.1-2.2.7-4.2 2.8-5.6 4.6-1 1.3-2.8 3.6-2.3 5.5.7 2.5 3.6 2.9 5.4 2 3.2-1.6 3.4-7.2 1.9-10.3-4.3-8.5-11.2 5.3-7.5 6.9 2.8 1.2 5.4-1.5 6.5-4.1.7-1.7 2.1-4.7.1-5.7-3.2-1.5-7.1 1.4-9 4.1-2.5 4 1.4 7 4.2 8.8 4.3 2.7 7.7 2.7 12.2.4 2.7-1.3 5.3-2.8 7.9-4.3.9-.5 2.1-1.1 2.6-2.3.4-1.2 0-3.1-1-3.7-1-.6-2.3.7-3 1.4-2.1 2.4-2.7 5.9-.7 8.5 2.4 3.2 6.6 4.6 10.2 4.6 3.8.1 6-2 7-6.1.3-1.3.5-2.9-.3-4.1"/><defs><path id="a" d="M4.4 24.5h48.3v22.2H4.4z"/></defs><clipPath id="b"><use xlink:href="#a" overflow="visible"/></clipPath><path clip-path="url(#b)" fill="none" stroke="#DFAE57" stroke-width=".301" stroke-miterlimit="10" d="M38.2 42.7c2.1-2 5.3-2.7 7-5.3 1.2-1.8.8-4.8-1-6-3.6-2.3-6.5 5.1-3.2 5.6 2.7.5 2-3.7 1.1-5.2-1.7-2.9-5.2-1.3-7.3.1-1.3.9-2.4 1.6-2.7 3.3-.3 1.7.1 3.3 1.3 4.3 2.5 2.2 5.3-1.4 2.6-3.6-1.9-1.5-9.6 0-8.4 3.8.4 1.3 1.6 1.6 2.6 1.1 2.7-1.3 2.5-4.4.7-6.6-2.6-3.1-5.9-3.9-9.4-2.3-2.4 1.1-3.5 3.7-1.8 6.2 1.2 1.9 3.7 2.8 5.1.7 1.5-2.2-.1-4.4-2.2-4.6-2-.2-3.9.6-5.7 1.6-.5.3-1.8.6-1.9 1.4 0 .8 1.4 1.4 2 1.1 2.1-1-.7-4.1-1.4-4.7-1.9-1.5-6.1-3.2-7.9-.6-1.1 1.5-.2 4.2.9 5.3 1.7 1.8 5.5 1.2 6.5-1.3 1.7-4.1-6.6-8.7-8.9-5.6-1.1 1.5-2.2 4-1.2 6 .7 1.5 2.6 2.4 4 2.5 1.8.2 4.2.5 5.9 0 2.4-.7 4.4-3.6 4.9-6.2.4-2.3-.4-6.4-3-3.9-2.8 2.6-.6 7.1 2.3 8.4 2.2 1 6.1-.9 7.1-3.4 1-2.6-1.1-1.9-2.3-.7-.9.8-2.4 2.4-2.2 3.8.1 1.3 1.8 1.7 2.8 1.9 3 .7 12 1.4 12.3-3.9.2-3.5-4.9-6.3-7.6-5-1.4.7-2.7 2.8-2.8 4.5-.1 2 1.6 3.7 3.1 4.4 3.9 1.8 8.8-1.5 10.1-5.7 1.3-4.2-4.1-2.1-5.7-1-.8.5-2.3 1.3-2.5 2.4 1.8.6 4.3.4 6.2.2 2.6-.2 5.7-1.1 8.1-2.4 4.4-2.4-2.4-4.1-4.4-3.3-1.1.4-3.3 1.3-3.7 2.7-.4 1.5.9 2.4 1.8 3.2 2.3 2.1 8.5 7.5 10.2 1.4.4-1.4.5-4.5-1-5.2-2-.9-6.5 4.2-6.3 6.4.2 2.8 5.6 3.4 7.3 2.8 3.7-1.1 3.6-6.1 1.6-8.9-2-2.8-4.7-3.2-7-.6-1.3 1.5-2 3.2.3 3.8.7.2 1.2.1 1.6-.6.7-1.6-.7-3.2-1.7-4.1-3.4-3.1-9.5-4.2-11.2 1.8-.7 2.6 2.3 5.6 4.5 5.7 2.1 0 2.1-3.8 1.2-5.2-1.4-2.3-3.9-3.5-6.3-3.5-2.7 0-5.2 1.7-7 4-.9 1.2-2 2.8-.5 4 3.2 2.7 10.6 1.2 11.2-3.8.7-5.5-6.6-6.9-9.9-5.8-3.1 1-6.5 3.9-8.1 7-1 2-.3 3.4 1.2 4.7.6.5 1.4 1.2 2.3 1 1.6-.5 2.5-3.1 2.6-4.7.2-3.4-3.1-8.9-6.5-6.1-2.4 2-3.7 8.8.5 9.3 4.3.5 3.7-7 1.4-9-2.1-1.8-4.5 2.2-4.5 4.4 0 1.9 2.6 2.5 3 .4.6-2.8-1.8-6.4-4.5-6.2-2 .2-3 2.9-3.7 4.7-.7 1.7-1.5 3.8-.3 5.4 2.2 2.9 5.6 1 7.2-1.7 1.6-2.7 1.4-4.7-1.5-5.5-2.6-.7-7.7 1.6-7.4 5.2.2 1.8 1.9 3.1 3 4.2 1.2 1.1 3 2.5 4.6 2.6 2.5.1 5-4.2 5.5-6.7.4-2 .5-4.5-.1-6.4-.9-2.7-2.1-2.1-3.7-.2-3.1 3.7-4.8 8.8-.9 12.5 2.3 2.2 4.9 3.3 8 3.2 3.6-.2 8.4-2.3 9.9-6.3.9-2.3-.1-7.7-3.2-6.1-2 1-3.9 3.5-5 5.5-.8 1.4-1.3 2.3.4 2.6 3.7.7 11.2-1.6 11.3-6.8 0-1.8-1-3.3-2.5-4-2.6-1.2-4.7 1.3-6.4 3.3-1.1 1.3-3.9 5.2-.3 4.7 3.1-.4 5.1-6.8 3.5-9.6-2.3-4.1-7.5 2.6-8.5 5-1.7 4.3 6.8 6.1 9.1 6.2 3.8.2 9.8-2.2 8.1-7.9-.4-1.5-1.9-2.5-3.2-2.9-2.1-.6-3.5 1.1-4.4 3.1-.8 1.8-1.6 5.1-.8 7.1s3.2 2.8 4.9 3.1c3.9.6 9.8-3.8 9-8.8-.6-3.8-5.9-1.6-7.6-.3-.9.7-2.7 2.4-2.3 4 .5 1.8 3.8 2.2 5.1 2.3 3.7.2 7.4-3.3 6.1-7.7-.9-3.1-4.1-3.9-6.4-1.9-3.5 3.1.4 7.6 2.9 9.7 3 2.5 6.4-1.3 5.9-5-.6-4.9-6.2-7.9-10.2-7.1-2.6.5-4.6 3-6 5.3-1.3 1.9-2.4 4.2-1 6.5 2.2 3.4 5.2 4.3 8.1 1.4 1.5-1.5 2.3-3.8 1.8-6.1-.8-3.2-3.7-5.2-6.3-6.4C31 26.6 22.3 28 20 35c-.5 1.6-.7 3.7.3 5.1.4.6 1.5 1.8 2.3 1.5 1.4-.5 1.5-5 1.5-6.1.1-3.3-.6-6.8-2.6-9.3-3.5-4.6-7 1.5-8.8 4.9-1.1 2.3-2.5 5.1-.1 6.7.6.4 1.6.9 2.3.9 2.1 0 4.3-3.6 5-5.6.6-2 0-3.8-2.1-3.1-2.2.7-4.2 2.8-5.6 4.6-1 1.3-2.8 3.6-2.3 5.5.7 2.5 3.6 2.9 5.4 2 3.2-1.6 3.4-7.2 1.9-10.3-4.3-8.5-11.2 5.3-7.5 6.9 2.8 1.2 5.4-1.5 6.5-4.1.7-1.7 2.1-4.7.1-5.7-3.2-1.5-7.1 1.4-9 4.1-2.5 4 1.4 7 4.2 8.8 4.3 2.7 7.7 2.7 12.2.4 2.7-1.3 5.3-2.8 7.9-4.3.9-.5 2.1-1.1 2.6-2.3.4-1.2 0-3.1-1-3.7-1-.6-2.3.7-3 1.4-2.1 2.4-2.7 5.9-.7 8.5 2.4 3.2 6.6 4.6 10.2 4.6 3.8.1 6-2 7-6.1.3-1.3.5-2.9-.3-4.1"/><path fill="#9A645F" d="M41.3.5l2-.5 1.6 1.3-2.3 1.8"/><path fill="#8B4D47" d="M42.8 2.1l-8.6 39.1L44.9 1.3"/><path fill="#B48B87" d="M42.8 2.1l-8.6 39.1L41.3.5"/><path fill="#9A645F" d="M54.1 4.6l2 .2 1.1 1.7-2.8 1"/><path fill="#8B4D47" d="M55 6.6L34.2 40.8l23-34.3"/><path fill="#B48B87" d="M55 6.6L34.2 40.8 54.1 4.6"/><path fill="#A82526" d="M36.1 62H21l-4.5 8.8h24.2"/><path fill="none" stroke="#DFAE57" stroke-width="2.273" stroke-miterlimit="10" d="M18.8 32.7c-2.1 2-5.3 2.7-7 5.3-1.2 1.8-.8 4.8 1 6 3.6 2.3 6.5-5.1 3.2-5.6-2.7-.5-2 3.7-1.1 5.2 1.7 2.9 5.2 1.3 7.3-.1 1.3-.9 2.4-1.6 2.7-3.3.3-1.7-.1-3.3-1.3-4.3-2.5-2.2-5.3 1.4-2.6 3.6 1.9 1.5 9.6 0 8.4-3.8-.4-1.3-1.6-1.6-2.6-1.1-2.7 1.3-2.5 4.4-.7 6.6 2.6 3.1 5.9 3.9 9.4 2.3 2.4-1.1 3.5-3.7 1.8-6.2-1.2-1.9-3.7-2.8-5.1-.7-1.5 2.2.1 4.4 2.2 4.6 2 .2 3.9-.6 5.7-1.6.5-.3 1.8-.6 1.9-1.4 0-.8-1.4-1.4-2-1.1-2.1 1 .7 4.1 1.4 4.7 1.9 1.5 6.1 3.2 7.9.6 1.1-1.5.2-4.2-.9-5.3-1.7-1.8-5.5-1.2-6.5 1.3-1.7 4.1 6.6 8.7 8.9 5.6 1.1-1.5 2.2-4 1.2-6-.7-1.5-2.6-2.4-4-2.5-1.8-.2-4.2-.5-5.9 0-2.4.7-4.4 3.6-4.9 6.2-.4 2.3.4 6.4 3 3.9 2.8-2.6.6-7.1-2.3-8.4-2.2-1-6.1.9-7.1 3.4-1 2.6 1.1 1.9 2.3.7.9-.8 2.4-2.4 2.2-3.8-.1-1.3-1.8-1.7-2.8-1.9-3-.7-12-1.4-12.3 3.9-.2 3.5 4.9 6.3 7.6 5 1.4-.7 2.7-2.8 2.8-4.5.1-2-1.6-3.7-3.1-4.4-3.9-1.8-8.8 1.5-10.1 5.7-1.3 4.2 4.1 2.1 5.7 1 .8-.5 2.3-1.3 2.5-2.4-1.8-.6-4.3-.4-6.2-.2-2.6.2-5.7 1.1-8.1 2.4-4.4 2.4 2.4 4.1 4.4 3.3 1.1-.4 3.3-1.3 3.7-2.7.4-1.5-.9-2.4-1.8-3.2-2.3-2.1-8.5-7.5-10.2-1.4-.4 1.4-.5 4.5 1 5.2 2 .9 6.5-4.2 6.3-6.4-.2-2.8-5.6-3.4-7.4-2.8-3.7 1.1-3.6 6.1-1.6 8.9 2 2.8 4.7 3.2 7 .6 1.3-1.5 2-3.2-.3-3.8-.7-.2-1.2-.1-1.6.6-.7 1.6.7 3.2 1.7 4.1 3.4 3.1 9.5 4.2 11.2-1.8.7-2.6-2.3-5.6-4.5-5.7-2.1 0-2.1 3.8-1.2 5.2 1.4 2.3 3.9 3.5 6.3 3.5 2.7 0 5.2-1.7 7-4 .9-1.2 2-2.8.5-4-3.2-2.7-10.6-1.2-11.2 3.8-.7 5.5 6.6 6.9 9.9 5.8 3.1-1 6.5-3.9 8.1-7 1-2 .3-3.4-1.2-4.7-.6-.5-1.4-1.2-2.3-1-1.6.5-2.5 3.1-2.6 4.7-.2 3.4 3.1 8.9 6.5 6.1 2.4-2 3.7-8.8-.5-9.3-4.3-.5-3.7 7-1.4 9 2.1 1.8 4.5-2.2 4.5-4.4 0-1.9-2.6-2.5-3-.4-.6 2.8 1.8 6.4 4.5 6.2 2-.2 3-2.9 3.7-4.7.7-1.7 1.5-3.8.3-5.4-2.2-2.9-5.6-1-7.2 1.7-1.6 2.7-1.4 4.7 1.5 5.5 2.6.7 7.7-1.6 7.4-5.2-.2-1.8-1.9-3.1-3-4.2-1.2-1.1-3-2.5-4.6-2.6-2.5-.1-5 4.2-5.5 6.7-.4 2-.5 4.5.1 6.4.9 2.7 2.1 2.1 3.7.2 3.1-3.7 4.8-8.8.9-12.5-2.3-2.2-4.9-3.3-8-3.2-3.6.2-8.4 2.3-9.9 6.3-.9 2.3.1 7.7 3.2 6.1 2-1 3.9-3.5 5-5.5.8-1.4 1.3-2.3-.4-2.6-3.7-.7-11.2 1.6-11.3 6.8 0 1.8 1 3.3 2.5 4 2.6 1.2 4.7-1.3 6.4-3.2 1.1-1.3 3.9-5.2.3-4.7-3.1.4-5.1 6.8-3.5 9.6 2.3 4.1 7.5-2.6 8.5-5 1.7-4.3-6.8-6.1-9.1-6.2-3.8-.2-9.8 2.2-8.1 7.9.4 1.5 1.9 2.5 3.2 2.9 2.1.6 3.5-1.1 4.4-3.1.8-1.8 1.6-5.1.8-7.1s-3.2-2.8-4.9-3.1c-3.9-.6-9.8 3.8-9 8.8.6 3.8 5.9 1.6 7.6.3.9-.7 2.7-2.4 2.3-4-.5-1.8-3.8-2.2-5.1-2.3-3.7-.2-7.4 3.3-6.1 7.7.9 3.1 4.1 3.9 6.4 1.9 3.5-3.1-.4-7.5-2.9-9.7-3-2.5-6.4 1.3-5.9 5 .6 4.9 6.2 7.9 10.2 7.1 2.6-.5 4.6-3 6-5.3 1.3-1.9 2.4-4.2 1-6.5-2.2-3.4-5.2-4.3-8.1-1.4-1.5 1.5-2.3 3.8-1.8 6.1.8 3.2 3.7 5.2 6.3 6.4 5.5 2.5 14.2 1.1 16.5-5.9.5-1.6.7-3.7-.3-5.1-.4-.6-1.5-1.8-2.3-1.5-1.4.5-1.5 5-1.5 6.1-.1 3.3.6 6.8 2.6 9.3 3.5 4.6 7-1.5 8.8-4.9 1.1-2.3 2.5-5.1.1-6.7-.6-.4-1.6-.9-2.3-.9-2.1 0-4.3 3.6-5 5.6-.6 2 0 3.8 2.1 3.1 2.2-.7 4.2-2.8 5.6-4.6 1-1.3 2.8-3.6 2.3-5.5-.7-2.5-3.6-2.9-5.4-2-3.2 1.6-3.4 7.2-1.9 10.3 4.3 8.5 11.2-5.3 7.5-6.9-2.8-1.2-5.4 1.5-6.5 4.1-.7 1.7-2.1 4.7-.1 5.7 3.2 1.5 7.1-1.4 9-4.1 2.5-3.8-1.4-6.8-4.2-8.6-4.3-2.7-7.7-2.7-12.2-.4-2.7 1.3-5.3 2.8-7.9 4.3-.9.5-2.1 1.1-2.6 2.3-.4 1.2 0 3.1 1 3.7 1 .6 2.3-.7 3-1.4 2.1-2.4 2.7-5.9.7-8.5-2.4-3.2-6.6-4.6-10.2-4.6-3.8-.1-6 2-7 6.1-.3 1.3-.5 2.9.3 4.1"/><defs><path id="c" d="M4.2 28.7h48.3v22.2H4.2z"/></defs><clipPath id="d"><use xlink:href="#c" overflow="visible"/></clipPath><path clip-path="url(#d)" fill="none" stroke="#DFAE57" stroke-width=".301" stroke-miterlimit="10" d="M18.8 32.7c-2.1 2-5.3 2.7-7 5.3-1.2 1.8-.8 4.8 1 6 3.6 2.3 6.5-5.1 3.2-5.6-2.7-.5-2 3.7-1.1 5.2 1.7 2.9 5.2 1.3 7.3-.1 1.3-.9 2.4-1.6 2.7-3.3.3-1.7-.1-3.3-1.3-4.3-2.5-2.2-5.3 1.4-2.6 3.6 1.9 1.5 9.6 0 8.4-3.8-.4-1.3-1.6-1.6-2.6-1.1-2.7 1.3-2.5 4.4-.7 6.6 2.6 3.1 5.9 3.9 9.4 2.3 2.4-1.1 3.5-3.7 1.8-6.2-1.2-1.9-3.7-2.8-5.1-.7-1.5 2.2.1 4.4 2.2 4.6 2 .2 3.9-.6 5.7-1.6.5-.3 1.8-.6 1.9-1.4 0-.8-1.4-1.4-2-1.1-2.1 1 .7 4.1 1.4 4.7 1.9 1.5 6.1 3.2 7.9.6 1.1-1.5.2-4.2-.9-5.3-1.7-1.8-5.5-1.2-6.5 1.3-1.7 4.1 6.6 8.7 8.9 5.6 1.1-1.5 2.2-4 1.2-6-.7-1.5-2.6-2.4-4-2.5-1.8-.2-4.2-.5-5.9 0-2.4.7-4.4 3.6-4.9 6.2-.4 2.3.4 6.4 3 3.9 2.8-2.6.6-7.1-2.3-8.4-2.2-1-6.1.9-7.1 3.4-1 2.6 1.1 1.9 2.3.7.9-.8 2.4-2.4 2.2-3.8-.1-1.3-1.8-1.7-2.8-1.9-3-.7-12-1.4-12.3 3.9-.2 3.5 4.9 6.3 7.6 5 1.4-.7 2.7-2.8 2.8-4.5.1-2-1.6-3.7-3.1-4.4-3.9-1.8-8.8 1.5-10.1 5.7-1.3 4.2 4.1 2.1 5.7 1 .8-.5 2.3-1.3 2.5-2.4-1.8-.6-4.3-.4-6.2-.2-2.6.2-5.7 1.1-8.1 2.4-4.4 2.4 2.4 4.1 4.4 3.3 1.1-.4 3.3-1.3 3.7-2.7.4-1.5-.9-2.4-1.8-3.2-2.3-2.1-8.5-7.5-10.2-1.4-.4 1.4-.5 4.5 1 5.2 2 .9 6.5-4.2 6.3-6.4-.2-2.8-5.6-3.4-7.4-2.8-3.7 1.1-3.6 6.1-1.6 8.9 2 2.8 4.7 3.2 7 .6 1.3-1.5 2-3.2-.3-3.8-.7-.2-1.2-.1-1.6.6-.7 1.6.7 3.2 1.7 4.1 3.4 3.1 9.5 4.2 11.2-1.8.7-2.6-2.3-5.6-4.5-5.7-2.1 0-2.1 3.8-1.2 5.2 1.4 2.3 3.9 3.5 6.3 3.5 2.7 0 5.2-1.7 7-4 .9-1.2 2-2.8.5-4-3.2-2.7-10.6-1.2-11.2 3.8-.7 5.5 6.6 6.9 9.9 5.8 3.1-1 6.5-3.9 8.1-7 1-2 .3-3.4-1.2-4.7-.6-.5-1.4-1.2-2.3-1-1.6.5-2.5 3.1-2.6 4.7-.2 3.4 3.1 8.9 6.5 6.1 2.4-2 3.7-8.8-.5-9.3-4.3-.5-3.7 7-1.4 9 2.1 1.8 4.5-2.2 4.5-4.4 0-1.9-2.6-2.5-3-.4-.6 2.8 1.8 6.4 4.5 6.2 2-.2 3-2.9 3.7-4.7.7-1.7 1.5-3.8.3-5.4-2.2-2.9-5.6-1-7.2 1.7-1.6 2.7-1.4 4.7 1.5 5.5 2.6.7 7.7-1.6 7.4-5.2-.2-1.8-1.9-3.1-3-4.2-1.2-1.1-3-2.5-4.6-2.6-2.5-.1-5 4.2-5.5 6.7-.4 2-.5 4.5.1 6.4.9 2.7 2.1 2.1 3.7.2 3.1-3.7 4.8-8.8.9-12.5-2.3-2.2-4.9-3.3-8-3.2-3.6.2-8.4 2.3-9.9 6.3-.9 2.3.1 7.7 3.2 6.1 2-1 3.9-3.5 5-5.5.8-1.4 1.3-2.3-.4-2.6-3.7-.7-11.2 1.6-11.3 6.8 0 1.8 1 3.3 2.5 4 2.6 1.2 4.7-1.3 6.4-3.2 1.1-1.3 3.9-5.2.3-4.7-3.1.4-5.1 6.8-3.5 9.6 2.3 4.1 7.5-2.6 8.5-5 1.7-4.3-6.8-6.1-9.1-6.2-3.8-.2-9.8 2.2-8.1 7.9.4 1.5 1.9 2.5 3.2 2.9 2.1.6 3.5-1.1 4.4-3.1.8-1.8 1.6-5.1.8-7.1s-3.2-2.8-4.9-3.1c-3.9-.6-9.8 3.8-9 8.8.6 3.8 5.9 1.6 7.6.3.9-.7 2.7-2.4 2.3-4-.5-1.8-3.8-2.2-5.1-2.3-3.7-.2-7.4 3.3-6.1 7.7.9 3.1 4.1 3.9 6.4 1.9 3.5-3.1-.4-7.5-2.9-9.7-3-2.5-6.4 1.3-5.9 5 .6 4.9 6.2 7.9 10.2 7.1 2.6-.5 4.6-3 6-5.3 1.3-1.9 2.4-4.2 1-6.5-2.2-3.4-5.2-4.3-8.1-1.4-1.5 1.5-2.3 3.8-1.8 6.1.8 3.2 3.7 5.2 6.3 6.4 5.5 2.5 14.2 1.1 16.5-5.9.5-1.6.7-3.7-.3-5.1-.4-.6-1.5-1.8-2.3-1.5-1.4.5-1.5 5-1.5 6.1-.1 3.3.6 6.8 2.6 9.3 3.5 4.6 7-1.5 8.8-4.9 1.1-2.3 2.5-5.1.1-6.7-.6-.4-1.6-.9-2.3-.9-2.1 0-4.3 3.6-5 5.6-.6 2 0 3.8 2.1 3.1 2.2-.7 4.2-2.8 5.6-4.6 1-1.3 2.8-3.6 2.3-5.5-.7-2.5-3.6-2.9-5.4-2-3.2 1.6-3.4 7.2-1.9 10.3 4.3 8.5 11.2-5.3 7.5-6.9-2.8-1.2-5.4 1.5-6.5 4.1-.7 1.7-2.1 4.7-.1 5.7 3.2 1.5 7.1-1.4 9-4.1 2.5-3.8-1.4-6.8-4.2-8.6-4.3-2.7-7.7-2.7-12.2-.4-2.7 1.3-5.3 2.8-7.9 4.3-.9.5-2.1 1.1-2.6 2.3-.4 1.2 0 3.1 1 3.7 1 .6 2.3-.7 3-1.4 2.1-2.4 2.7-5.9.7-8.5-2.4-3.2-6.6-4.6-10.2-4.6-3.8-.1-6 2-7 6.1-.3 1.3-.5 2.9.3 4.1"/><g opacity=".3"><defs><path id="e" d="M18.7 61.5h19.8v6.8H18.7z"/></defs><clipPath id="f"><use xlink:href="#e" overflow="visible"/></clipPath><path clip-path="url(#f)" fill="#A82526" d="M20.7 61.5l-2.1 3.9c3.4 1.8 7.2 2.8 11.2 2.8 3 0 5.9-.6 8.6-1.6l-2.7-5.1h-15z"/></g><path fill="#A82526" d="M55.5 36.8c0 17-12 30.8-26.9 30.8-14.8 0-26.9-13.8-26.9-30.8h53.8z"/><g opacity=".3"><defs><path id="g" d="M9.4 36.8h16v34h-16z"/></defs><clipPath id="h"><use xlink:href="#g" overflow="visible"/></clipPath><path clip-path="url(#h)" fill="#A82526" d="M12.2 36.8H9.4c0 13.2 5.5 24.5 13.2 28.9l-2 5.1h2.8l2-5.1C17.7 61.2 12.2 50 12.2 36.8"/></g><g opacity=".5"><defs><path id="i" d="M1.7 36.8h53.8v34H1.7z"/></defs><clipPath id="j"><use xlink:href="#i" overflow="visible"/></clipPath><path clip-path="url(#j)" fill="#A82526" d="M6.2 36.8H1.7C1.7 50 9 61.2 19.2 65.6l-2.7 5.1h2l2.2-5.1C12.2 61.2 6.2 50 6.2 36.8M55.5 36.8H51v.7H7l43.9 2.4c-.9 11.8-6.6 21.7-14.5 25.7l2.2 5.1h2L38 65.6C48.2 61.2 55.5 50 55.5 36.8"/></g><path fill="#A82526" d="M57.2 36.1c0 .7-.6 1.4-1.4 1.4H1.4c-.7 0-1.4-.6-1.4-1.4 0-.7.6-1.4 1.4-1.4h54.5c.7 0 1.3.6 1.3 1.4"/><g opacity=".3"><defs><path id="k" d="M8.2 34.7h4.1v2.7H8.2z"/></defs><clipPath id="l"><use xlink:href="#k" overflow="visible"/></clipPath><path clip-path="url(#l)" fill="#A82526" d="M11.4 36.1c0-.7.4-1.4 1-1.4H9.2c-.5 0-1 .6-1 1.4 0 .7.4 1.4 1 1.4h3.1c-.5-.1-.9-.7-.9-1.4"/></g><g opacity=".3"><defs><path id="m" d="M0 34.7h57.2v2.7H0z"/></defs><clipPath id="n"><use xlink:href="#m" overflow="visible"/></clipPath><path clip-path="url(#n)" fill="#A82526" d="M4.2 36.1c0-.7.5-1.4 1.2-1.4h-4c-.7 0-1.4.6-1.4 1.4 0 .7.6 1.4 1.4 1.4h4c-.7-.1-1.2-.7-1.2-1.4M55.8 34.7h-4c.6 0 1.2.6 1.2 1.4s-.5 1.4-1.2 1.4h4c.7 0 1.4-.6 1.4-1.4s-.6-1.4-1.4-1.4"/></g></svg>