<svg xmlns="http://www.w3.org/2000/svg" xmlns:xlink="http://www.w3.org/1999/xlink" width="47.9" height="68.3" viewBox="0 0 47.9 68.3"><path fill="#72C1DB" d="M.1 5.6h44.2c1.8 0 3.3 1.3 3.3 3V64c0 1.7-1.5 3-3.3 3H.1V5.6z"/><path fill="#E8E5D1" d="M1 4.6h43.4c1.8 0 3.2 1.3 3.2 3V63c0 1.7-1.4 3-3.2 3H1V4.6z"/><path fill="#A1D6E7" d="M.1.4h44.2c1.8 0 3.3 1.3 3.3 3v55.4c0 1.7-1.5 3-3.3 3H.1V.4z"/><path fill="#D5ECF4" d="M4.8 60.8c0 .3-.6.5-1.2.5-.7 0-1.2-.2-1.2-.5V1.3c0-.3.5-.5 1.2-.5s1.2.2 1.2.5v59.5z"/><defs><path id="a" d="M2 .9h.7v60.4H2z"/></defs><clipPath id="b"><use xlink:href="#a" overflow="visible"/></clipPath><path clip-path="url(#b)" fill="#D5ECF4" d="M2.7 60.9c0 .3-.2.5-.4.5s-.4-.2-.4-.5V1.3c0-.3.2-.5.4-.5s.4.2.4.5v59.6z"/><path fill="#EBD467" d="M0 21.2h47.7v22.1H0z"/><defs><path id="c" d="M1 61.5h46.6v3.3H1z"/></defs><clipPath id="d"><use xlink:href="#c" overflow="visible"/></clipPath><path clip-path="url(#d)" fill="#E8E5D1" d="M44.4 64.5H1v.3h43.4c1.8 0 3.2-1.3 3.2-3v-.3c0 1.7-1.4 3-3.2 3"/><defs><path id="e" d="M1 60.6h46.6v3.3H1z"/></defs><clipPath id="f"><use xlink:href="#e" overflow="visible"/></clipPath><path clip-path="url(#f)" fill="#E8E5D1" d="M44.4 63.6H1v.3h43.4c1.8 0 3.2-1.3 3.2-3v-.3c0 1.7-1.4 3-3.2 3"/><defs><path id="g" d="M1 59.7h46.6V63H1z"/></defs><clipPath id="h"><use xlink:href="#g" overflow="visible"/></clipPath><path clip-path="url(#h)" fill="#E8E5D1" d="M44.4 62.7H1v.3h43.4c1.8 0 3.2-1.3 3.2-3v-.3c0 1.7-1.4 3-3.2 3"/><path fill="#CE3868" d="M7.1 67.4l1 .9v-4.7h-2v4.7"/><path fill="#00587E" d="M37.6 61.8h4.3V67h-4.3z"/><g><defs><path id="i" d="M37.6 61.5h4.3v.3h-4.3z"/></defs><clipPath id="j"><use xlink:href="#i" overflow="visible"/></clipPath><path clip-path="url(#j)" fill="#2CA2C9" d="M37.6 61.5h4.3v.3h-4.3z"/></g><g><defs><path id="k" d="M.1 58.1h47.8v3.7H.1z"/></defs><clipPath id="l"><use xlink:href="#k" overflow="visible"/></clipPath><path clip-path="url(#l)" fill="#E8F5F9" d="M44.6 61.1H.1v.7h44.5c1.8 0 3.3-1.3 3.3-3v-.7c0 1.6-1.4 3-3.3 3"/></g><path fill="#9E7E64" d="M.1 43.3h47.5v.3H.1z"/><path fill="#2CA2C9" d="M37.6 0h4.3v61.9h-4.3z"/><path fill="#EBD467" d="M47.6 43.3h.1v8.2h-.1zM0 43.3h.1v8.2H0z"/><g><defs><path id="m" d="M41.9 21.2h.8v22.1h-.8z"/></defs><clipPath id="n"><use xlink:href="#m" overflow="visible"/></clipPath><path clip-path="url(#n)" fill="#EBD467" d="M41.9 21.2l.7 22.1h-.7"/></g><g><defs><path id="o" d="M41.9 43.3h.8V61h-.8z"/></defs><clipPath id="p"><use xlink:href="#o" overflow="visible"/></clipPath><path clip-path="url(#p)" fill="#E8F5F9" d="M41.9 61l.7-17.7h-.7"/></g></svg>