<svg xmlns="http://www.w3.org/2000/svg" xmlns:xlink="http://www.w3.org/1999/xlink" width="65.6" height="44.2" viewBox="0 0 65.6 44.2"><path fill="#231F20" d="M65.2 12.7s.1-1.4-.5-1.9l-.3-1.1s-.1-4.3-3.5-5.3c-3.3-1-3.2-.9-3.8-1.6-.6-.7-3.3-1.9-4.8-1.9-1.6 0-4-.3-5.5-.4C45.2.4 36.2 0 33.1 0h-.6c-3.1 0-12.2.4-13.6.5-1.6.1-4 .4-5.5.4-1.6 0-4.2 1.2-4.8 1.9-.7.7-.6.6-3.9 1.6S1.2 9.7 1.2 9.7l-.3 1.1c-.7.5-.5 1.9-.5 1.9-.2 0-.4.5-.4.5l.8 4.4c1.2 2.5 8.6 2.2 8.6 2.2 10.9-.4 9.7-6.1 9.7-6.1s.1.3 0-2.3c-.1-2.6-2.7-3.7-2.7-3.7.8.2 13.3.3 16 .3h.6c2.7 0 15.2-.1 16-.3 0 0-2.6 1.1-2.7 3.7-.1 2.6 0 2.3 0 2.3s-1.2 5.7 9.7 6.1c0 0 7.4.3 8.6-2.2l.8-4.4c.2 0 0-.5-.2-.5"/><defs><path id="a" d="M.2 13.2h9.5v2.1H.2z"/></defs><clipPath id="b"><use xlink:href="#a" overflow="visible"/></clipPath><path clip-path="url(#b)" fill="#231F20" d="M.2 13.2c.6.6 1.4.9 2.2 1.2.8.3 1.6.4 2.4.6 1.6.2 3.3.2 5 .2-1.6.3-3.3.3-5 .1-.8-.1-1.7-.3-2.4-.6-.9-.4-1.7-.8-2.2-1.5"/><defs><path id="c" d="M11.3 3.6h4.1v3.5h-4.1z"/></defs><clipPath id="d"><use xlink:href="#c" overflow="visible"/></clipPath><path clip-path="url(#d)" fill="#656263" d="M15.4 7c-.1-.5-.3-.9-.5-1.3-.3-.4-.6-.6-1.1-.7-.5-.1-1-.2-1.5-.4-.4-.2-.9-.6-1-1.1.3.5.7.7 1.2.9.4.2.9.3 1.4.3.5 0 1.1.4 1.3.9.2.4.3 1 .2 1.4"/><defs><path id="e" d="M9.7 1.8h23.1v1.4H9.7z"/></defs><clipPath id="f"><use xlink:href="#e" overflow="visible"/></clipPath><path clip-path="url(#f)" fill="#636B62" d="M32.8 3.2c-3.9-.2-7.7-.3-11.6-.3l-5.8-.1c-1.9 0-3.9 0-5.8.1 1.9-.3 3.8-.4 5.8-.5l5.8-.3c3.9-.2 7.7-.3 11.6-.4v1.5z"/><defs><path id="g" d="M4.9 5.6h3.8V12H4.9z"/></defs><clipPath id="h"><use xlink:href="#g" overflow="visible"/></clipPath><path clip-path="url(#h)" fill="#656263" d="M4.9 5.6c.7.1 1.4.4 2 .7.3.1.6.3.9.5.4.2.7.6.7 1 .1.7.2 1.4.2 2.1V12c-.1-.7-.2-1.4-.2-2.1-.1-.7-.2-1.4-.3-2-.1-.6-.8-1-1.4-1.3-.6-.4-1.2-.7-1.9-1"/><defs><path id="i" d="M1.2 9.9h16.5v2.6H1.2z"/></defs><clipPath id="j"><use xlink:href="#i" overflow="visible"/></clipPath><path clip-path="url(#j)" fill="#231F20" d="M1.2 10.9c.6.4 1.3.7 2 .9.7.2 1.4.3 2.1.4 1.4.2 2.9.1 4.3 0s2.9-.3 4.3-.6c.7-.2 1.4-.3 2.1-.6.7-.3 1.3-.6 1.8-1.1-.4.6-1.1 1-1.8 1.3-.7.3-1.4.5-2.1.6-1.4.3-2.8.5-4.3.7-1.4.1-2.9.1-4.3-.1-1.5-.2-3-.6-4.1-1.5"/><defs><path id="k" d="M56.1 13.2h9.5v2.1h-9.5z"/></defs><clipPath id="l"><use xlink:href="#k" overflow="visible"/></clipPath><path clip-path="url(#l)" fill="#231F20" d="M65.6 13.2c-.6.6-1.3 1-2.1 1.3-.8.3-1.6.5-2.4.6-1.7.2-3.4.2-5-.1 1.7.1 3.3.1 5-.2.8-.1 1.6-.3 2.4-.6.7-.1 1.5-.4 2.1-1"/><defs><path id="m" d="M50.3 3.6h4.1v3.5h-4.1z"/></defs><clipPath id="n"><use xlink:href="#m" overflow="visible"/></clipPath><path clip-path="url(#n)" fill="#231F20" d="M50.3 7c0-.5.1-1 .3-1.5.2-.5.7-.8 1.3-.8.5 0 .9-.1 1.4-.3.4-.2.9-.4 1.1-.9-.2.5-.6.8-1 1-.4.2-1 .3-1.5.4-.5 0-.9.3-1.1.7-.2.5-.4 1-.5 1.4"/><defs><path id="o" d="M33 1.8h23.1v1.4H33z"/></defs><clipPath id="p"><use xlink:href="#o" overflow="visible"/></clipPath><path clip-path="url(#p)" fill="#636B62" d="M33 1.8c3.9.1 7.7.2 11.6.4l5.8.3c1.8.1 3.7.2 5.6.5-1.9-.2-3.8-.1-5.8-.1l-5.8.1c-3.7-.1-7.6 0-11.4.2V1.8z"/><defs><path id="q" d="M57 5.6h3.8V12H57z"/></defs><clipPath id="r"><use xlink:href="#q" overflow="visible"/></clipPath><path clip-path="url(#r)" fill="#231F20" d="M60.8 5.6c-.7.3-1.3.5-1.9.9-.6.3-1.3.7-1.4 1.3-.2.7-.2 1.4-.3 2.1L57 12V9.9c0-.7.1-1.4.2-2.1.1-.4.3-.7.6-.9.3-.2.6-.4.9-.5.8-.4 1.4-.6 2.1-.8"/><defs><path id="s" d="M48.1 9.9h16.5v2.6H48.1z"/></defs><clipPath id="t"><use xlink:href="#s" overflow="visible"/></clipPath><path clip-path="url(#t)" fill="#231F20" d="M64.6 10.9c-1.1.9-2.6 1.3-4 1.5-1.4.2-2.9.2-4.3.1s-2.9-.3-4.3-.7l-2.1-.6c-.7-.3-1.3-.7-1.8-1.3.5.6 1.1.9 1.8 1.1.7.3 1.4.4 2.1.6 1.4.3 2.8.5 4.3.6 1.4.1 2.9.2 4.3 0 .7-.1 1.4-.2 2.1-.4.6-.2 1.3-.5 1.9-.9"/><path fill="#636B62" d="M12.7 41.7h40.2v2.5H12.7z"/><defs><path id="u" d="M12.7 43.4h40.2v.3H12.7z"/></defs><clipPath id="v"><use xlink:href="#u" overflow="visible"/></clipPath><path clip-path="url(#v)" fill="#252A26" d="M12.7 43.4h40.2v.3H12.7z"/><path fill="#231F20" d="M55.2 29.4v13.5c0 .3-.2.5-.5.5H10.9c-.3 0-.5-.2-.5-.5V29.4h44.8z"/><defs><path id="w" d="M18.7 4.9h7.2v3h-7.2z"/></defs><clipPath id="x"><use xlink:href="#w" overflow="visible"/></clipPath><path clip-path="url(#x)" fill="#231F20" d="M18.7 7.9V5.3c0-.2.3-.4.6-.4h6c.3 0 .6.2.6.4v2.6"/><defs><path id="y" d="M39.8 4.9H47v3h-7.2z"/></defs><clipPath id="z"><use xlink:href="#y" overflow="visible"/></clipPath><path clip-path="url(#z)" fill="#231F20" d="M39.8 7.9V5.3c0-.2.3-.4.6-.4h6c.3 0 .6.2.6.4v2.6"/><path fill="#2E2A2B" d="M46.5 11.6H19.1s-1.9 15.3-8.7 17.8h44.8c-6.9-2.5-8.7-17.8-8.7-17.8"/><path fill="#2E2A2B" d="M25.3 16.3c0 .3-.2.5-.5.5h-5.3c-.3 0-.5-.2-.5-.5V5.9c0-.3.2-.5.5-.5h5.3c.3 0 .5.2.5.5v10.4zM46.5 16.3c0 .3-.2.5-.5.5h-5.3c-.3 0-.5-.2-.5-.5V5.9c0-.3.2-.5.5-.5H46c.3 0 .5.2.5.5v10.4z"/><path fill="#2E2A2B" d="M39.8 11.1h-14c-.3 0-.5-.2-.5-.5v1.7h14.9v-1.7c0 .3-.2.5-.4.5"/><path fill="#A1A6A1" d="M40.3 8.9l.1 1.2v.6c0 .2-.2.5-.4.5-.9.1-1.6 0-2.4.1l-4.7.1-4.7-.1c-.8 0-1.6 0-2.4-.1-.2-.1-.4-.3-.4-.5v-.6l.1-1.2V10.7c0 .2.2.4.3.4H40c.2 0 .3-.2.3-.4V8.9z"/><path fill="#636B62" d="M10.4 29.4h44.8v.1l-5.6.3-5.6.1c-3.7.1-7.5.1-11.2.1-3.7 0-7.5 0-11.2-.1l-5.6-.2-5.6-.3z"/><path fill="#CCBA8C" d="M44.4 18.4c0-4.1-5.2-7.4-11.7-7.4S21 14.3 21 18.4v1.3c0 4.1 5.2 7.4 11.7 7.4s11.7-3.3 11.7-7.4v-1.3z"/><path fill="#E2D7BD" d="M44.4 18c0 4.1-5.2 7.4-11.7 7.4S21.1 22.1 21.1 18c0-4.1 5.2-7.4 11.7-7.4s11.6 3.3 11.6 7.4"/><path fill="#676A67" d="M38.8 17.7c0-2.1-2.7-3.8-6-3.8s-6 1.7-6 3.8v.3c0 2.1 2.7 3.8 6 3.8s6-1.7 6-3.8v-.3z"/><path fill="#F8F5EF" d="M38.8 17.5c0 2.1-2.7 3.8-6 3.8s-6-1.7-6-3.8c0-2.1 2.7-3.8 6-3.8 3.4 0 6 1.7 6 3.8"/><path fill="#CCBA8C" d="M31.2 23.5c0 .7.8 1.2 1.8 1.2s1.8-.5 1.8-1.2-.8-1.2-1.8-1.2-1.8.5-1.8 1.2M27.1 22.2c-.5.6-.2 1.3.7 1.6s2 .1 2.5-.4c.5-.6.2-1.3-.7-1.6s-2-.2-2.5.4M24.6 19.7c-.9.3-1.2 1.1-.7 1.6.5.6 1.6.8 2.5.4.9-.3 1.2-1.1.7-1.6s-1.7-.7-2.5-.4M24.3 16.8c-1 0-1.8.5-1.8 1.2s.8 1.2 1.8 1.2 1.8-.5 1.8-1.2-.8-1.2-1.8-1.2M26.3 14.1c-.9-.3-2-.1-2.5.4-.5.6-.2 1.3.7 1.6.9.3 2 .1 2.5-.4.4-.6.1-1.3-.7-1.6M30 12.4c-.5-.6-1.6-.8-2.5-.4-.9.3-1.2 1.1-.7 1.6.5.6 1.6.8 2.5.4s1.3-1 .7-1.6M34.6 12.2c0-.7-.8-1.2-1.8-1.2s-1.8.5-1.8 1.2.8 1.2 1.8 1.2 1.8-.5 1.8-1.2M38.7 13.5c.5-.6.2-1.3-.7-1.6-.9-.3-2-.1-2.5.4-.5.6-.2 1.3.7 1.6.8.4 2 .2 2.5-.4M41.2 16c.9-.3 1.2-1.1.7-1.6-.5-.6-1.6-.8-2.5-.4-.9.3-1.2 1.1-.7 1.6s1.6.7 2.5.4M41.5 19c1 0 1.8-.5 1.8-1.2s-.8-1.2-1.8-1.2-1.8.5-1.8 1.2c0 .6.8 1.2 1.8 1.2"/><g><defs><path id="A" d="M31.2 22.3h3.6v1.8h-3.6z"/></defs><clipPath id="B"><use xlink:href="#A" overflow="visible"/></clipPath><path clip-path="url(#B)" fill="#CCBA8C" d="M33 22.3c.8 0 1.5.3 1.7.8-.3-.4-.9-.6-1.6-.6-1 0-1.8.5-1.8 1.2 0 .1 0 .3.1.4-.2-.2-.2-.4-.2-.6 0-.7.8-1.2 1.8-1.2"/></g><g><defs><path id="C" d="M26.9 21.6h3.6v1.8h-3.6z"/></defs><clipPath id="D"><use xlink:href="#C" overflow="visible"/></clipPath><path clip-path="url(#D)" fill="#CCBA8C" d="M27.1 22.2c.5-.6 1.6-.8 2.5-.4.4.1.7.4.8.6-.2-.2-.4-.3-.7-.4-.9-.3-2-.1-2.5.4-.3.3-.3.7-.1 1-.3-.4-.3-.8 0-1.2"/></g><g><defs><path id="E" d="M23.6 19.6h3.6v1.8h-3.6z"/></defs><clipPath id="F"><use xlink:href="#E" overflow="visible"/></clipPath><path clip-path="url(#F)" fill="#CCBA8C" d="M24.6 19.7c.9-.3 2-.1 2.5.4.1.1.1.1.1.2-.5-.6-1.6-.8-2.5-.4-.8.3-1.1.9-.8 1.4-.5-.5-.2-1.2.7-1.6"/></g><g><defs><path id="G" d="M22.4 16.8H26v1.8h-3.6z"/></defs><clipPath id="H"><use xlink:href="#G" overflow="visible"/></clipPath><path clip-path="url(#H)" fill="#CCBA8C" d="M24.4 17c-1 0-1.8.5-1.8 1.2 0 .1 0 .3.1.4-.2-.2-.2-.4-.2-.6 0-.7.8-1.2 1.8-1.2.8 0 1.5.3 1.7.8-.3-.4-.9-.6-1.6-.6"/></g><g><defs><path id="I" d="M23.5 13.9h3.6v1.8h-3.6z"/></defs><clipPath id="J"><use xlink:href="#I" overflow="visible"/></clipPath><path clip-path="url(#J)" fill="#CCBA8C" d="M27.1 14.7c-.2-.2-.4-.3-.7-.4-.9-.3-2-.1-2.5.4-.3.3-.3.7-.1 1-.3-.4-.3-.8 0-1.2.5-.6 1.6-.8 2.5-.4.4.1.6.4.8.6"/></g><g><defs><path id="K" d="M26.6 11.8h3.6v1.8h-3.6z"/></defs><clipPath id="L"><use xlink:href="#K" overflow="visible"/></clipPath><path clip-path="url(#L)" fill="#CCBA8C" d="M27.7 12.2c-.8.3-1.1.9-.8 1.4-.5-.6-.2-1.3.7-1.6.9-.3 2-.1 2.5.4.1.1.1.1.1.2-.5-.5-1.7-.7-2.5-.4"/></g><g><defs><path id="M" d="M30.9 11h3.6v1.8h-3.6z"/></defs><clipPath id="N"><use xlink:href="#M" overflow="visible"/></clipPath><path clip-path="url(#N)" fill="#CCBA8C" d="M32.7 11c.8 0 1.5.3 1.7.8-.3-.4-.9-.6-1.6-.6-1 0-1.8.5-1.8 1.2 0 .1 0 .3.1.4-.2-.2-.2-.4-.2-.6 0-.6.8-1.2 1.8-1.2"/></g><g><defs><path id="O" d="M35.2 11.7h3.6v1.8h-3.6z"/></defs><clipPath id="P"><use xlink:href="#O" overflow="visible"/></clipPath><path clip-path="url(#P)" fill="#CCBA8C" d="M35.5 12.3c.5-.6 1.6-.8 2.5-.4.4.1.7.4.8.6-.2-.2-.4-.3-.7-.4-.9-.3-2-.1-2.5.4-.3.3-.3.7-.1 1-.3-.3-.4-.8 0-1.2"/></g><g><defs><path id="Q" d="M38.5 13.8h3.6v1.8h-3.6z"/></defs><clipPath id="R"><use xlink:href="#Q" overflow="visible"/></clipPath><path clip-path="url(#R)" fill="#CCBA8C" d="M39.4 13.9c.9-.3 2-.1 2.5.4.1.1.1.1.1.2-.5-.6-1.6-.8-2.5-.4-.8.3-1.1.9-.8 1.4-.5-.5-.2-1.2.7-1.6"/></g><g><defs><path id="S" d="M39.7 16.6h3.6v1.8h-3.6z"/></defs><clipPath id="T"><use xlink:href="#S" overflow="visible"/></clipPath><path clip-path="url(#T)" fill="#CCBA8C" d="M41.5 16.6c.8 0 1.5.3 1.7.8-.3-.4-.9-.6-1.6-.6-1 0-1.8.5-1.8 1.2 0 .1 0 .3.1.4-.2-.2-.3-.4-.3-.6.1-.7.9-1.2 1.9-1.2"/></g></svg>