<svg xmlns="http://www.w3.org/2000/svg" xmlns:xlink="http://www.w3.org/1999/xlink" width="73.1" height="24.8" viewBox="0 0 73.1 24.8"><path fill="#A7A5A6" d="M61.8 22.7v-1.1h1.7v-2.5h-1.1v1.2h-1.3v-3.9h2.4v-2.2h-1.6v-1.4h-2.7v11.7h4.3v-1.8M70.6 12.8h-2.5v1.4h-1.7v2.2h2.4v3.9h-1.4v-1.2h-1v2.5h1.7v1.1h-1.7v1.8h4.2"/><path fill="#DEDDDE" d="M59.2 12.8h2.6v1.4h1.6l.1-.3h-1.3V12.5h-3.4v12.3h.1l.3-.8M68.7 16.4h-2.3v-2.2h1.7v-1.4h2.5v.8l.4-.9v-.2h-3.3V13.9H66v2.8H68.4V19l.3-.9"/><path fill="#A7A5A6" d="M70.9 24.8h.1v-4"/><path fill="#DEDDDE" d="M66.4 21.6v-2.5h1v1.2h.5l.1-.3h-.2v-1.2H66V21.9H67.2l.1-.3M66.4 22.4H66v2.4l.4-.9v-1.2h.4l.2-.3"/><path fill="#656263" d="M63.4 14.2h.1v2.2h-2.4v3.9h1.3v-1.2h1.1v2.5h-1.8v1.1h1.8v1.8h-4.3V24l-.3.8H63.8v-2.4h-1.7v-.5h1.7V18.8H62V20h-.6v-3.3h2.4v-2.8h-.3M68.4 19v1H68l-.1.3h.8v-2.2"/><path fill="#656263" d="M70.6 13.6v10.9h-4.2v-.6l-.4.9h4.9l.1-4v-8.1"/><path fill="#656263" d="M68.1 21.6h-.8l-.1.3h.5v.5H67l-.2.3h1.3"/><path fill="#A7A5A6" d="M53.4 8c-.2.1-.4.3-.4.5 0 0 0 .1-.1.1s-.1-.1-.1-.1c0-.3-.3-.5-.5-.6-3.2-.2-6.3-.2-9.5 0s-2.6.4-5.8.6l-9.5.4-9.5.5c-.4 0-.8 0-1.1.1C16.1 2.6 13.5 0 9 0 4.1 0 .1 4.9.1 10.9s4 10.9 8.8 10.9c4.6 0 7.1-2.6 7.7-9.5.4 0 .8 0 1.1.1l9.5.5 9.5.4c3.2.1 2.6.4 5.8.6 3.2.2 6.3.2 9.5 0 .3-.1.5-.3.5-.6 0 0 0-.1.1-.1s.1.1.1.1c0 .2.2.4.4.5 1.5-.1 3-.2 4.5-.4v-5c-1.2-.2-2.7-.3-4.2-.4m-41.2 5.5c0 1.9-1.5 3.4-3.4 3.4s-3.4-1.5-3.4-3.4c0-1.1.5-2 1.3-2.7-.8-.6-1.3-1.6-1.3-2.7 0-1.9 1.5-3.4 3.4-3.4s3.4 1.5 3.4 3.4c0 1.1-.5 2-1.3 2.7.8.7 1.3 1.7 1.3 2.7"/><path fill="#918F90" d="M52.9 8.6c-.2 0-.2-.1-.2-.1v4.7s0-.1.1-.1.1.1.1.1V8.5c.1 0 .1.1 0 .1"/><path fill="#4F4C4D" d="M52.8 8.6c-.1 0-.1-.1-.1-.1v4.7s0-.1.1-.1V8.6z"/><path fill="#BDBCBC" d="M16.7 10h36v1.8h-36z"/><path fill="#DEDDDE" d="M16.7 10.6h36v.5h-36z"/><path fill="#BDBCBC" d="M53 10h4.9v1.8H53z"/><path fill="#DEDDDE" d="M53 10.6h4.9v.5H53z"/><path fill="#656263" d="M16.7 9.5c.4 0 .7.6.7 1.4 0 .8-.3 1.4-.7 1.4V9.5z"/><path fill="#F2F1F2" d="M53.1 8.5c.1.4.2.8.2 1.2 0 .4 0 .8.1 1.2 0 .4 0 .8-.1 1.2 0 .4-.1.8-.2 1.2-.1-1.6-.1-3.2 0-4.8z"/><path fill="#A7A5A6" d="M57.9 8.9h13.9v3.9H57.9zM71.9 9.3h.3v3.2h-.3z"/><path fill="#5C595A" d="M71.9 9.3h.1v3.2h-.1z"/><path fill="#A7A5A6" d="M72.1 9c.5 0 1 .4 1 .9v2c0 .5-.4.9-1 .9V9z"/><path fill="#BDBCBC" d="M57.9 10.2h13.9v1.3H57.9z"/><path fill="#DEDDDE" d="M57.9 10.7h13.9v.4H57.9z"/><path fill="#4F4C4D" d="M58 8.9c.1.3.2.6.2 1 0 .3 0 .6.1 1 0 .3 0 .6-.1 1 0 .3-.1.6-.2 1-.1-1.4-.1-2.7 0-4z"/><path fill="#6E6B6C" d="M3.1 18.5l-.3.3c1.6 1.8 3.7 2.9 6 2.9h.4c-2.4 0-4.6-1.3-6.1-3.2"/><path fill="#D3D2D2" d="M1.1 14.7c-.4-1.2-.6-2.5-.6-3.8 0-1.4.2-2.8.7-4.1C2.5 2.9 5.6.1 9.2 0h-.4C4 0 0 4.9 0 10.9c0 3.1 1.1 5.9 2.8 7.9l.3-.3c-.9-1.1-1.5-2.4-2-3.8"/><path fill="#D3D2D2" d="M3.1 18.5c-.8-1.1-1.5-2.3-1.9-3.7.4 1.3 1 2.6 1.9 3.7"/><path fill="#7B7979" d="M5.4 13.5c0-1.1.5-2 1.3-2.7-.8-.6-1.3-1.6-1.3-2.7 0-1.9 1.5-3.4 3.4-3.4 1.2 0 2.2.6 2.8 1.5l.4-.6c-.8-1-1.9-1.6-3.2-1.6-2.3 0-4.2 1.9-4.2 4.2 0 1 .3 1.9.9 2.7-.6.7-.9 1.7-.9 2.7 0 1 .4 1.9.9 2.6l.5-.8c-.4-.5-.6-1.2-.6-1.9"/><path fill="#E9E9E9" d="M11.6 6.3c.4.5.6 1.2.6 1.9 0 1.1-.5 2-1.3 2.7.8.6 1.3 1.6 1.3 2.7 0 1.9-1.5 3.4-3.4 3.4-1.2 0-2.2-.6-2.8-1.5l-.4.7c.8.9 1.9 1.5 3.2 1.5 2.3 0 4.2-1.9 4.2-4.2 0-1-.3-1.9-.9-2.7.6-.7.9-1.7.9-2.7 0-1-.4-1.9-.9-2.6l-.5.8z"/><defs><path id="a" d="M58.8 12.8h3.4v.3h-3.4z"/></defs><clipPath id="b"><use xlink:href="#a" overflow="visible"/></clipPath><path clip-path="url(#b)" fill="#5A5758" d="M58.8 12.8h3.4v.3h-3.4z"/><g><defs><path id="c" d="M67.7 12.8H71v.3h-3.3z"/></defs><clipPath id="d"><use xlink:href="#c" overflow="visible"/></clipPath><path clip-path="url(#d)" fill="#5A5758" d="M67.7 12.8H71v.3h-3.3z"/></g></svg>