<svg xmlns="http://www.w3.org/2000/svg" xmlns:xlink="http://www.w3.org/1999/xlink" width="73" height="58.9" viewBox="0 0 73 58.9"><path fill="#2E2A2B" d="M32.5 33.6v23.9s.8 1.4 2.5 1.4h6.3s2.5-.3 2.5-2V39.7s.4-3.8 4-3.8h7.6s1.2-.2 1.2-2.4v-2.1h-24v2.2zM31.3 29.8H27c-.2 0-.4.2-.4.4v.2h.2c.2 0 .4.2.4.4v2.4c0 .2-.2.4-.4.4h-.2v.4c0 .2.2.4.4.4h4.3c.2 0 .4-.2.4-.4v-3.9c.1-.1-.1-.3-.4-.3"/><path fill="#444142" d="M56.9 33.1c0 .2-.2.4-.4.4H30c-.2 0-.4-.2-.4-.4v-5.2c0-.2.2-.4.4-.4h26.5c.2 0 .4.2.4.4v5.2z"/><path fill="#2E2A2B" d="M29.6 28.4H57v1.9H29.6z"/><path fill="#231F20" d="M32.5 33.6h24v.5h-24z"/><path fill="#444142" d="M65 2.5h1.9V8H65zM66.9 2.2h1.9v6h-1.9z"/><path fill="#444142" d="M68.8 1.8h1.7v6.7h-1.7z"/><path fill="#444142" d="M70.4 1.6v7.2s.9 1.1 2.5 1.1V.5c-1.6 0-2.5 1.1-2.5 1.1"/><path fill="#2E2A2B" d="M70.4 3.7v1.6s.9.2 2.5.2V3.4c-1.6 0-2.5.3-2.5.3"/><path fill="#7B7979" d="M70.4 2.4V4h2.5V2.1c-1.6.1-2.5.3-2.5.3M66.9 2.9h1.9v.9h-1.9z"/><path fill="#7B7979" d="M68.8 2.7h1.7v1.2h-1.7zM65 3h1.9v.8H65z"/><path fill="#2E2A2B" d="M66.9 3.9h1.9V5h-1.9z"/><path fill="#2E2A2B" d="M68.8 3.8h1.7v1.3h-1.7zM65 3.9h1.9V5H65z"/><path fill="none" stroke="#E9E9E9" stroke-width=".121" stroke-miterlimit="10" d="M67.2 7.9h.6M67.2 7.5h.6M67.2 6.8h.6M67.2 6h.6M67.2 5.2h.6M67.2 2.5h.6M67.2 2.9h.6M67.2 3.6h.6M67.2 4.3h.6"/><defs><path id="a" d="M66.6 2.5h.3V8h-.3z"/></defs><clipPath id="b"><use xlink:href="#a" overflow="visible"/></clipPath><path clip-path="url(#b)" fill="#918F90" d="M66.9 2.5V8c-.1-.5-.2-.9-.2-1.4 0-.5 0-.9-.1-1.4 0-.5 0-.9.1-1.4 0-.4.1-.9.2-1.3z"/><defs><path id="c" d="M68.5 2.2h.3v6h-.3z"/></defs><clipPath id="d"><use xlink:href="#c" overflow="visible"/></clipPath><path clip-path="url(#d)" fill="#918F90" d="M68.8 2.2v6c-.1-.5-.2-1-.2-1.5s0-1-.1-1.5c0-.5 0-1 .1-1.5 0-.5 0-1 .2-1.5z"/><defs><path id="e" d="M70.1 1.8h.3v6.7h-.3z"/></defs><clipPath id="f"><use xlink:href="#e" overflow="visible"/></clipPath><path clip-path="url(#f)" fill="#918F90" d="M70.5 1.8v6.7c-.1-.6-.2-1.1-.2-1.7 0-.6 0-1.1-.1-1.7 0-.6 0-1.1.1-1.7 0-.4 0-1 .2-1.6z"/><path fill="#E9E9E9" d="M26.7 6.8c0 .3-.2.5-.5.5s-.5-.2-.5-.5V4.6c0-.3.2-.5.5-.5s.5.2.5.5v2.2z"/><path fill="#D3D2D2" d="M62.9 0H26.3v29.8h36.6c1.4 0 2.6-1.2 2.6-2.6V2.6C65.4 1.2 64.3 0 62.9 0"/><path fill="#5A5758" d="M22.5 11.7h3.7v12.1h-3.7zM18.9 11.5h3.6v12.6h-3.6zM8.7 11h10.2v13.6H8.7z"/><defs><path id="g" d="M8.7 15.7h10.2V20H8.7z"/></defs><clipPath id="h"><use xlink:href="#g" overflow="visible"/></clipPath><path clip-path="url(#h)" fill="#D3D2D2" d="M8.7 15.7h10.2V20H8.7z"/><defs><path id="i" d="M18.9 16.1h3.6v3.4h-3.6z"/></defs><clipPath id="j"><use xlink:href="#i" overflow="visible"/></clipPath><path clip-path="url(#j)" fill="#D3D2D2" d="M18.9 16.1h3.6v3.4h-3.6z"/><defs><path id="k" d="M22.5 16.6h3.8v2.5h-3.8z"/></defs><clipPath id="l"><use xlink:href="#k" overflow="visible"/></clipPath><path clip-path="url(#l)" fill="#D3D2D2" d="M22.5 16.6h3.7v2.5h-3.7z"/><path fill="#231F20" d="M11.5 10.8h2.8v14h-2.8z"/><path fill="#D3D2D2" d="M11.8 17.8H14v.8h-2.2zM11.8 18.7H14v.7h-2.2zM11.8 19.6H14v.6h-2.2zM11.8 20.3H14v.5h-2.2zM11.8 21H14v.5h-2.2zM11.8 21.6H14v.4h-2.2zM11.8 22.1H14v.4h-2.2zM11.8 22.6H14v.3h-2.2zM11.8 23H14v.3h-2.2zM11.8 23.4H14v.2h-2.2zM11.8 23.8H14v.2h-2.2zM11.8 24.1H14v.2h-2.2zM11.8 24.4H14v.1h-2.2zM11.8 24.7H14v.1h-2.2zM11.8 16.9H14v.8h-2.2zM11.8 16.1H14v.7h-2.2zM11.8 15.3H14v.6h-2.2zM11.8 14.6H14v.5h-2.2zM11.8 14H14v.5h-2.2zM11.8 13.5H14v.4h-2.2zM11.8 13H14v.4h-2.2zM11.8 12.6H14v.3h-2.2zM11.8 12.2H14v.3h-2.2zM11.8 11.8H14v.2h-2.2zM11.8 11.5H14v.2h-2.2zM11.8 11.2H14v.2h-2.2zM11.8 10.9H14v.1h-2.2zM11.8 10.7H14v.1h-2.2z"/><path fill="#EFDD85" d="M18 18.5h.4v.6H18zM18 20h.4v.5H18zM18 21.2h.4v.4H18zM18 22.1h.4v.3H18zM18 22.9h.4v.2H18zM18 23.5h.4v.1H18zM18 24h.4v.1H18zM18 16.8h.4v.7H18zM18 15.3h.4v.6H18zM18 14.2h.4v.4H18zM18 13.2h.4v.3H18zM18 12.4h.4v.2H18zM18 11.8h.4v.2H18zM18 11.3h.4v.1H18z"/><path fill="#231F20" d="M.2 7.8c-.1 0-.2 0-.2.1v19.7c0 .1.1.2.2.2 0 0 5.4-.1 8.6-2.5v-15C5.6 7.9.2 7.8.2 7.8"/><defs><path id="m" d="M0 13.2h8.7v9.2H0z"/></defs><clipPath id="n"><use xlink:href="#m" overflow="visible"/></clipPath><path clip-path="url(#n)" fill="#231F20" d="M.2 13.2c-.1 0-.2 0-.2.1v9.1s.1.1.2.1c0 0 5.4 0 8.6-1.1v-7C5.6 13.2.2 13.2.2 13.2"/><defs><path id="o" d="M8.7 11h.4v13.6h-.4z"/></defs><clipPath id="p"><use xlink:href="#o" overflow="visible"/></clipPath><path clip-path="url(#p)" fill="#A7A5A6" d="M8.8 11c.1 1.1.2 2.2.2 3.3.1 1.1.1 2.3.1 3.4s0 2.3-.1 3.4-.1 2.3-.3 3.4c0-4.5 0-9 .1-13.5z"/><defs><path id="q" d="M18.9 11.5h.4v12.6h-.4z"/></defs><clipPath id="r"><use xlink:href="#q" overflow="visible"/></clipPath><path clip-path="url(#r)" fill="#656263" d="M19 11.5c.1 1 .2 2.1.3 3.1.1 1 .1 2.1.1 3.1s0 2.1-.1 3.1-.1 2.1-.3 3.1c-.1-4.1-.1-8.3 0-12.4z"/><defs><path id="s" d="M22.5 11.7h.4v12.1h-.4z"/></defs><clipPath id="t"><use xlink:href="#s" overflow="visible"/></clipPath><path clip-path="url(#t)" fill="#656263" d="M22.5 11.7l.3 3c.1 1 .1 2 .1 3s0 2-.1 3-.1 2-.3 3v-12z"/><path fill="none" stroke="#FFF" stroke-width=".121" stroke-miterlimit="10" d="M17.7 13.8h.9M17.7 16.4h.9"/><path fill="#5A5758" d="M8 10.3c.1 1.2.1 2.5.1 3.7v7.4c0 1.2 0 2.5-.1 3.7-.1-1.2-.1-2.5-.1-3.7V14c0-1.2 0-2.4.1-3.7"/><path fill="#A7A5A6" d="M62.9 28.6H27.5V1.2h.3L26.3 0v29.8h36.6c.7 0 1.3-.2 1.7-.7l-1-.8c-.2.2-.5.3-.7.3"/><path fill="#E9E9E9" d="M65.4 27.3V2.6c0-1.4-1.1-2.6-2.6-2.6H26.3l1.5 1.2h35.1c.7 0 1.4.6 1.4 1.4v24.7c0 .5-.3.9-.7 1.2l1 .8c.5-.6.8-1.3.8-2"/><path fill="none" stroke="#E9E9E9" stroke-width=".428" stroke-miterlimit="10" d="M31.1 0v29.8"/><path fill="none" stroke="#656263" stroke-width=".428" stroke-miterlimit="10" d="M31.3 0v29.8"/><defs><path id="u" d="M36 5.4h4.2v4.9H36z"/></defs><clipPath id="v"><use xlink:href="#u" overflow="visible"/></clipPath><path clip-path="url(#v)" fill="#E9E9E9" d="M40.1 8.4c-.3 1.3-1.5 2.2-2.6 1.9-1.1-.3-1.8-1.6-1.4-2.9.3-1.3 1.5-2.2 2.6-1.9 1.1.2 1.7 1.5 1.4 2.9"/><path fill="#E9E9E9" d="M40.3 7.3c0 1.1-.9 2.1-2.1 2.1-1.1 0-2.1-.9-2.1-2.1 0-1.1.9-2.1 2.1-2.1 1.1.1 2.1 1 2.1 2.1"/><g opacity=".3"><defs><path id="w" d="M36.1 5.3h4.1v4.1h-4.1z"/></defs><clipPath id="x"><use xlink:href="#w" overflow="visible"/></clipPath><path clip-path="url(#x)" fill="#E9E9E9" d="M36.8 5.8c-.4.4-.6.9-.6 1.5 0 1.1.9 2.1 2.1 2.1V7.3l-1.5-1.5z"/><path clip-path="url(#x)" fill="#E9E9E9" d="M40.3 7.3h-2.1l1.4 1.5c.4-.3.7-.9.7-1.5"/><path clip-path="url(#x)" fill="#FFF" d="M38.2 5.3v2.1h2.1c0-1.2-1-2.1-2.1-2.1"/><path clip-path="url(#x)" fill="#918F90" d="M38.2 9.4c.6 0 1.1-.2 1.4-.6l-1.4-1.5v2.1zM38.2 5.3c-.6 0-1.1.2-1.4.6l1.4 1.5V5.3z"/></g><path fill="#A82526" d="M36.4 7h.3v.5h-.3z"/><path fill="#BDBCBC" d="M32.1 5.8h2.2v.5h-2.2zM32.1 7h2.2v.5h-2.2zM32.1 8.1h2.2v.5h-2.2z"/><path fill="none" stroke="#918F90" stroke-width=".121" stroke-miterlimit="10" d="M34.7 6.1h1.2M34.7 8.4h1.2M34.7 7.2h1"/><path fill="#918F90" d="M32.8 2.2h1.3V3h-1.3z"/><path fill="#F4F4F4" d="M32.8 2.9h1.3V3h-1.3z"/><path fill="#918F90" d="M32.8 26.6h1.3v.8h-1.3z"/><path fill="#F4F4F4" d="M32.8 27.3h1.3v.1h-1.3z"/><path fill="#918F90" d="M62 20h1.3v.7H62z"/><path fill="#F4F4F4" d="M62 20.7h1.3v.1H62z"/><path fill="#918F90" d="M62 9.9h1.3v.8H62z"/><path fill="#F4F4F4" d="M62 10.7h1.3v.1H62z"/><path fill="#444142" d="M52.9 8.1h7.9v.7h-7.9z"/><path fill="#F4F4F4" d="M52.9 8.8h7.9v.1h-7.9z"/><defs><path id="y" d="M34.1 21.4h4.2v4.4h-4.2z"/></defs><clipPath id="z"><use xlink:href="#y" overflow="visible"/></clipPath><path clip-path="url(#z)" fill="#918F90" d="M38.2 23.6c0 1.2-.9 2.2-2.1 2.2-1.1 0-2.1-1-2.1-2.2s.9-2.2 2.1-2.2c1.2 0 2.1 1 2.1 2.2"/><path fill="#E9E9E9" d="M34.7 22c-.4.4-.6.9-.6 1.5 0 1.1.9 2.1 2.1 2.1v-2.1L34.7 22z"/><path fill="#E9E9E9" d="M38.2 23.5h-2.1l1.4 1.5c.5-.4.7-.9.7-1.5"/><path fill="#FFF" d="M36.1 21.4v2.1h2.1c0-1.2-.9-2.1-2.1-2.1"/><path fill="#918F90" d="M36.1 25.5c.6 0 1.1-.2 1.4-.6l-1.4-1.5v2.1zM36.1 21.4c-.6 0-1.1.2-1.4.6l1.4 1.5v-2.1z"/><path fill="#D1D0D0" d="M37.6 23.5c0 .8-.7 1.5-1.5 1.5s-1.5-.7-1.5-1.5.7-1.5 1.5-1.5 1.5.7 1.5 1.5"/><path fill="#918F90" d="M36.1 22.4c.7 0 1.2.5 1.3 1.2v-.1c0-.7-.6-1.3-1.3-1.3-.7 0-1.3.6-1.3 1.3v.1c.1-.7.7-1.2 1.3-1.2"/><path fill="#F2F1F2" d="M36.1 24.5c-.7 0-1.2-.5-1.3-1.2v.1c0 .7.6 1.3 1.3 1.3.7 0 1.3-.6 1.3-1.3v-.1c-.1.7-.6 1.2-1.3 1.2"/><path fill="#A82526" d="M37.438 22.16l.186.235-.157.124-.186-.236z"/><defs><path id="A" d="M41.3 21.3h4.2v4.4h-4.2z"/></defs><clipPath id="B"><use xlink:href="#A" overflow="visible"/></clipPath><path clip-path="url(#B)" fill="#918F90" d="M45.4 23.5c0 1.2-.9 2.2-2.1 2.2s-2.1-1-2.1-2.2c0-1.2.9-2.2 2.1-2.2s2.1 1 2.1 2.2"/><path fill="#E9E9E9" d="M41.9 21.9c-.4.4-.6.9-.6 1.5 0 1.1.9 2.1 2.1 2.1v-2.1l-1.5-1.5z"/><path fill="#E9E9E9" d="M45.4 23.4h-2.1l1.4 1.5c.5-.4.7-1 .7-1.5"/><path fill="#FFF" d="M43.3 21.3v2.1h2.1c0-1.2-.9-2.1-2.1-2.1"/><path fill="#918F90" d="M43.3 25.4c.6 0 1.1-.2 1.4-.6l-1.4-1.5v2.1zM43.3 21.3c-.6 0-1.1.2-1.4.6l1.4 1.5v-2.1z"/><path fill="#D1D0D0" d="M44.8 23.4c0 .8-.7 1.5-1.5 1.5s-1.5-.7-1.5-1.5.7-1.5 1.5-1.5 1.5.6 1.5 1.5"/><path fill="#918F90" d="M43.3 22.3c.7 0 1.2.5 1.3 1.2v-.1c0-.7-.6-1.3-1.3-1.3-.7 0-1.3.6-1.3 1.3v.1c.1-.7.7-1.2 1.3-1.2"/><path fill="#F2F1F2" d="M43.3 24.4c-.7 0-1.2-.5-1.3-1.2v.1c0 .7.6 1.3 1.3 1.3.7 0 1.3-.6 1.3-1.3v-.1c-.1.7-.6 1.2-1.3 1.2"/><path fill="#A82526" d="M44.626 22.042l.187.234-.157.125-.187-.234z"/><path fill="#918F90" d="M34.1 20.4h.6v.6h-.6zM37.9 20.6h.6v.3h-.6zM41.1 20.4h.6v.6h-.6zM44.9 20.6h.6v.3h-.6z"/><path fill="#A82526" d="M59.2 25.4c0 .2-.2.4-.4.4h-5c-.2 0-.4-.2-.4-.4v-.9c0-.2.2-.4.4-.4h5c.2 0 .4.2.4.4v.9z"/><path fill="#C8C7C7" d="M52.8 24.5h.4v.7h-.4zM59.2 24.5h.4v.7h-.4z"/><path fill="#7B7979" d="M53.3 24.5c0-.2.2-.4.4-.4h5c.2 0 .4.2.4.4v.1h.4v-.1c0-.5-.4-.9-.9-.9h-5c-.5 0-.9.4-.9.9v.1l.6-.1z"/><path fill="#F0EFEF" d="M53.7 26.3h5c.5 0 .9-.4.9-.9v-.2h-.4v.2c0 .2-.2.4-.4.4h-5c-.2 0-.4-.2-.4-.4v-.2H53v.2c-.2.5.2.9.7.9"/><path fill="#393536" d="M55.2 25.6c0 .2-.2.4-.4.4h-1.2c-.2 0-.4-.2-.4-.4v-1.3c0-.2.2-.4.4-.4h1.2c.2 0 .4.2.4.4v1.3z"/><path fill="#EDD876" d="M54.1 23.9h.2v.9h-.2z"/><path fill="#BDBCBC" d="M54 21.7h.4V23H54zM56 21.7h.4V23H56zM58 21.7h.4V23H58z"/><g><defs><path id="C" d="M43.2 35.5h4.6v4.9h-4.6z"/></defs><clipPath id="D"><use xlink:href="#C" overflow="visible"/></clipPath><path clip-path="url(#D)" fill="#231F20" d="M47.8 35.6c-.3.1-.6.1-.9.2-.3.1-.6.1-.9.2-.6.2-1.1.6-1.5 1-.4.4-.7 1-.8 1.6-.1.3-.1.6-.2.9-.1.3-.1.6-.2.9-.1-.3-.1-.6-.1-.9 0-.3.1-.6.2-.9.2-.6.5-1.2.9-1.7s1-.8 1.6-1.1l.9-.3c.4 0 .7 0 1 .1"/></g><g><defs><path id="E" d="M33 34.1h.3v23H33z"/></defs><clipPath id="F"><use xlink:href="#E" overflow="visible"/></clipPath><path clip-path="url(#F)" fill="#231F20" d="M33.1 34.1l.2 2.8v17.2l-.2 2.9-.1-2.9V36.9"/></g><path fill="#231F20" d="M33.1 57.3c.4.6 1.1.7 1.8.8.7 0 1.4-.1 2.1 0h4.2c.7-.1 1.5-.4 1.9-.9.2-.3.2-.6.2-1V45.6c-.1-1.6.1-3.1.2-4.7.1 1.6.3 3.1.2 4.7v11.2c0 .2-.1.4-.2.6-.5.8-1.4 1-2.2 1.1H37c-.7 0-1.4 0-2.1-.1-.7-.2-1.5-.5-1.8-1.1"/></svg>