<svg xmlns="http://www.w3.org/2000/svg" xmlns:xlink="http://www.w3.org/1999/xlink" width="53.8" height="63.4" viewBox="0 0 53.8 63.4"><path fill="#E9E9E9" d="M20.5 18.2H0s2.1 41.5 2.4 43.4c.4 1.9 1.3 1.8 1.3 1.8H32.7s1 .1 1.3-1.8c.4-1.9 2.4-43.4 2.4-43.4H20.5z"/><defs><path id="a" d="M19.8 0v34.9h13.4l1.5-16.7h1.9l-.9 16.7h18.1V0z"/></defs><clipPath id="b"><use xlink:href="#a" overflow="visible"/></clipPath><path clip-path="url(#b)" fill="#E9E9E9" d="M41.6 27c-.1 0-.1 0 0 0M23.2 27"/><path clip-path="url(#b)" fill="#EFBC7B" d="M50.8 20.8c-.1 0-.1 0 0 0M30.2 20.8"/><path clip-path="url(#b)" fill="#FAECD9" d="M51.1 18c0 8.1-6.5 14.6-14.6 14.6S22 26.1 22 18 28.5 3.5 36.6 3.5 51.1 10 51.1 18"/><circle clip-path="url(#b)" fill="none" stroke="#E5952E" stroke-width="1.616" stroke-miterlimit="10" cx="36.6" cy="18" r="14.6"/><path clip-path="url(#b)" fill="#E5952E" d="M41.8 7.2C40.2 6.4 38.4 6 36.5 6s-3.7.4-5.3 1.2l5.3 10 5.3-10zM29.7 8c-3 2-5.1 5.4-5.3 9.2l11.3.4-6-9.6zM24.4 18.9c.3 3.8 2.3 7.2 5.3 9.2l6-9.6-11.3.4zM31.2 28.9c1.6.8 3.4 1.2 5.3 1.2s3.7-.4 5.3-1.2l-5.3-10-5.3 10zM48.5 18.9l-11.3-.4 6 9.6c3-2.1 5.1-5.4 5.3-9.2M48.5 17.2c-.3-3.8-2.3-7.2-5.3-9.2l-6 9.6 11.3-.4z"/><g opacity=".6"><defs><path id="c" d="M0 18.2h36.5v45.2H0z"/></defs><clipPath id="d"><use xlink:href="#c" overflow="visible"/></clipPath><path clip-path="url(#d)" fill="#E9E9E9" d="M20.5 18.2H0s2.1 41.5 2.4 43.4c.4 1.9 1.3 1.8 1.3 1.8H32.7s1 .1 1.3-1.8c.4-1.9 2.4-43.4 2.4-43.4H20.5z"/></g><path fill="#EFBC7B" d="M20.3 22.8H1.7s1.9 27.8 2.2 29.1c.3 1.3 1.2 1.2 1.2 1.2h26.2s.9.1 1.2-1.2c.3-1.3 2.2-29.1 2.2-29.1H20.3z"/><g opacity=".3"><defs><path id="e" d="M0 18.2h7.2v45.2H0z"/></defs><clipPath id="f"><use xlink:href="#e" overflow="visible"/></clipPath><path clip-path="url(#f)" fill="#DCDBDB" d="M6.2 61.6C6 59.7 4.4 18.2 4.4 18.2H0s2.1 41.5 2.4 43.4c.4 1.9 1.3 1.8 1.3 1.8h3.5c-.1 0-.7-.2-1-1.8"/></g><g opacity=".3"><defs><path id="g" d="M29.3 18.2h7.2v45.2h-7.2z"/></defs><clipPath id="h"><use xlink:href="#g" overflow="visible"/></clipPath><path clip-path="url(#h)" fill="#DCDBDB" d="M32.2 18.2s-1.6 41.5-1.8 43.4c-.2 1.6-.8 1.8-1 1.8h3.5s1 .1 1.3-1.8c.4-1.9 2.4-43.4 2.4-43.4h-4.4z"/></g><g opacity=".3"><defs><path id="i" d="M4.4 18.2h4.7v45.2H4.4z"/></defs><clipPath id="j"><use xlink:href="#i" overflow="visible"/></clipPath><path clip-path="url(#j)" fill="#F8F8F8" d="M8.3 61.6C8 59.7 6.7 18.2 6.7 18.2H4.4S6 59.7 6.2 61.6c.2 1.6.8 1.8 1 1.8H9s-.5-.2-.7-1.8"/></g><g opacity=".1"><defs><path id="k" d="M0 18.2h36.5v45.2H0z"/></defs><clipPath id="l"><use xlink:href="#k" overflow="visible"/></clipPath><path clip-path="url(#l)" fill="#4F4C4D" d="M3 61.6C2.7 59.7.7 18.2.7 18.2H0s2.1 41.5 2.4 43.4c.4 1.9 1.3 1.8 1.3 1.8h.5c-.1 0-.9-.2-1.2-1.8M35.9 18.2s-2 41.5-2.3 43.4c-.3 1.6-1.1 1.8-1.3 1.8h.5s1 .1 1.3-1.8 2.4-43.4 2.4-43.4h-.6z"/></g><g opacity=".8"><defs><path id="m" d="M1.7 22.8h33.1v30.3H1.7z"/></defs><clipPath id="n"><use xlink:href="#m" overflow="visible"/></clipPath><g clip-path="url(#n)"><defs><path id="o" d="M1.7 22.8h4.8v30.3H1.7z"/></defs><clipPath id="p"><use xlink:href="#o" overflow="visible"/></clipPath><path clip-path="url(#p)" fill="#E8A043" d="M5.5 51.9c-.3-1.3-2-29.1-2-29.1H1.7s1.9 27.8 2.2 29.1c.3 1.3 1.2 1.2 1.2 1.2h1.4c-.1 0-.8-.1-1-1.2"/></g><g clip-path="url(#n)"><defs><path id="q" d="M30 22.8h4.8v30.3H30z"/></defs><clipPath id="r"><use xlink:href="#q" overflow="visible"/></clipPath><path clip-path="url(#r)" fill="#E8A043" d="M33 22.8s-1.7 27.8-2 29.1c-.3 1.1-.9 1.2-1.1 1.2h1.4s.9.1 1.2-1.2c.3-1.3 2.2-29.1 2.2-29.1H33z"/></g><g clip-path="url(#n)"><defs><path id="s" d="M27.2 22.8h5.9v30.3h-5.9z"/></defs><clipPath id="t"><use xlink:href="#s" overflow="visible"/></clipPath><path clip-path="url(#t)" fill="#ECAF62" d="M31.1 51.9c.3-1.3 2-29.1 2-29.1h-3.6S28.2 50.6 28 51.9c-.2 1.1-.7 1.2-.8 1.2H30c.2 0 .8-.1 1.1-1.2"/></g><g clip-path="url(#n)"><defs><path id="u" d="M3.5 22.8h5.9v30.3H3.5z"/></defs><clipPath id="v"><use xlink:href="#u" overflow="visible"/></clipPath><path clip-path="url(#v)" fill="#ECAF62" d="M8.6 51.9c-.2-1.3-1.5-29.1-1.5-29.1H3.5s1.7 27.8 2 29.1c.3 1.1.9 1.2 1.1 1.2h2.8c-.1 0-.6-.1-.8-1.2"/></g><g clip-path="url(#n)"><defs><path id="w" d="M7.1 22.8h22.3v30.3H7.1z"/></defs><clipPath id="x"><use xlink:href="#w" overflow="visible"/></clipPath><path clip-path="url(#x)" fill="#EFBC7B" d="M28 51.9c.2-1.3 1.5-29.1 1.5-29.1H7.1s1.3 27.8 1.5 29.1c.2 1.1.7 1.2.8 1.2H27.1c.2 0 .7-.1.9-1.2"/></g></g><g opacity=".3"><defs><path id="y" d="M5.1 57.1h26.3v4.8H5.1z"/></defs><clipPath id="z"><use xlink:href="#y" overflow="visible"/></clipPath><path clip-path="url(#z)" fill="#FEFAF5" d="M5.1 61.9c0-2.7 5.9-4.8 13.1-4.8 7.3 0 13.1 2.2 13.1 4.8"/></g><g opacity=".3"><defs><path id="A" d="M21 20.8h7.7v36.1H21z"/></defs><clipPath id="B"><use xlink:href="#A" overflow="visible"/></clipPath><path clip-path="url(#B)" fill="#FEFAF5" d="M27.1 53.1c-.1 2.1-1.6 3.8-3.3 3.7-1.7-.1-2.9-1.9-2.8-4.1l1.6-28.3c.1-2.1 1.6-3.8 3.3-3.7 1.7.1 2.9 1.9 2.8 4.1l-1.6 28.3z"/></g></svg>