<svg xmlns="http://www.w3.org/2000/svg" xmlns:xlink="http://www.w3.org/1999/xlink" width="94.5" height="74.2" viewBox="0 0 94.5 74.2"><path fill="#72583C" d="M50.6 12.4c-25.4 0-35.1 12.1-35.1 16.5s7.2 7.5 12 9.6c4.8 2.1 4 4.2 4 4.2 0 2.5-2.6 2-9.7 1.2s-5.2 4.4-5.2 4.4c7 13.2 25.6 13.8 34 13.8 8.4 0 35.2-1.7 35.2-26 0-24.2-35.2-23.7-35.2-23.7M36.1 32c-2.4.6-4.7-.1-5.1-1.6-.4-1.5 1.2-3.3 3.6-3.9 2.4-.6 4.7.1 5.1 1.6.4 1.5-1.2 3.2-3.6 3.9"/><path fill="#AC9D8C" d="M50.6 11.8c-25.4 0-35.1 12.1-35.1 16.5s7.2 7.5 12 9.6c4.8 2.1 4 4.1 4 4.1 0 2.5-2.6 2-9.7 1.2s-5.2 4.4-5.2 4.4c7 13.2 25.6 13.8 34 13.8 8.4 0 35.2-1.7 35.2-26 0-24.2-35.2-23.6-35.2-23.6M36.1 31.4c-2.4.6-4.7-.1-5.1-1.6-.4-1.5 1.2-3.3 3.6-3.9 2.4-.7 4.7.1 5.1 1.6.4 1.4-1.2 3.2-3.6 3.9"/><g opacity=".5"><defs><path id="a" d="M19.4 19.7h63.8v34.8H19.4z"/></defs><clipPath id="b"><use xlink:href="#a" overflow="visible"/></clipPath><path clip-path="url(#b)" fill="#D2B48C" d="M78.9 25.2h-1.1c-.2 0-.5-.1-.9-.1-.6-.1-1.4-.4-2.2-.6-.8-.3-1.8-.7-2.8-.8-1-.1-2.1.3-3.4.6-.3.1-.6.1-1 .2-.3 0-.7.1-1 0-.7 0-1.3-.2-1.8.1-.1.1-.3.1-.4.2l-.2.1-.2.1-.4.3-.3.4c-.2.2-.4.5-.6.8-.1.1-.1.3-.2.4l-.1.2v.1c0-.1 0 0 0 0v.1c-.3 1.2.3 2.5 1.1 3.6.9 1.1 1.9 2 3.1 2.9 1.2.9 2.2 1.8 3.3 2.6 1.1.8 2.2 1.5 3.3 1.8.6.2 1.1.3 1.7.3h.8c.3-.1.6-.1.8-.2.6-.1 1-.3 1.4-.5l.3-.1.3-.2c.2-.1.3-.3.5-.4.2-.2.4-.3.6-.4.2-.1.4-.2.6-.2.4-.1.8-.1 1.1-.1.6.1 1.1.2 1.5.2.3 0 .5.1.5.1h-.5c-.3 0-.8-.1-1.5-.1-.3 0-.7 0-1 .1-.2 0-.4.2-.5.2-.1.1-.3.2-.5.4-.6.7-1.7 1.1-2.7 1.4-.3.1-.5.1-.8.2-.3.1-.6.1-.9.1-.6 0-1.3-.1-1.9-.2-1.3-.3-2.5-1-3.6-1.8s-2.2-1.8-3.3-2.6c-1.2-.8-2.3-1.8-3.3-3-.5-.6-.9-1.3-1.1-2-.1-.4-.2-.8-.2-1.2 0-.4 0-.9.1-1.2.3-.8.7-1.4 1.2-2l.4-.4.4-.3.2-.2c.1-.1.2-.1.3-.2.2-.1.3-.2.5-.3.4-.2.8-.3 1.2-.2.4 0 .7.1 1 .1h.9c.3 0 .6-.1.9-.1 1.2-.2 2.4-.6 3.6-.4 1.1.2 2 .7 2.8 1 .8.3 1.5.6 2.1.8.6.2 1.1.3 1.4.3.3.1.5.1.5.1M81.1 40.7c-1.2.4-2.5.7-3.7 1.1-1.2.4-2.5.7-3.7 1.1l-.1-.5h.2c.2.9-.2.4 0 .5h-.5c-.2 0-.4.1-.6.1-.5.1-.9.1-1.4.2-.5 0-.9 0-1.4-.1-.4-.1-.9-.1-1.3-.3-.9-.2-1.7-.5-2.6-.7-.9-.3-1.7-.6-2.6-.9-.8-.3-1.7-.7-2.5-.9l-2.6-.8-2.7-.5-.6-.1-.6-.1-1.4-.2c-.9-.2-1.8-.1-2.6-.1-.9 0-1.8.1-2.6.2-.9 0-1.8.2-2.6.4-.9.1-1.8.3-2.6.5-1.7.4-3.5.8-5.3 1.1-.9.1-1.8.3-2.7.4-.9.1-1.8.1-2.7.1.9-.1 1.8-.1 2.7-.3.9-.1 1.8-.3 2.6-.5 1.7-.4 3.5-.9 5.2-1.4.9-.2 1.8-.4 2.6-.6.9-.2 1.8-.4 2.7-.4.9-.1 1.8-.2 2.7-.2.9 0 1.9-.1 2.7.1l1.3.1.7.1.7.1 2.7.6 2.6.8c.9.3 1.7.6 2.5 1 .8.3 1.7.6 2.5.9l2.6.8c.4.1.8.2 1.3.3.4.1.8.1 1.3.1s.9 0 1.3-.1c.2 0 .4-.1.7-.1h.5c.2.2-.3-.4 0 .5.1 0 0 0 0 0h-.1l-2.5.1 2.4-.6c1.2-.3 2.5-.6 3.8-.8 1.2-.4 2.5-.7 3.7-1M24.9 54.5l.6-.3c.4-.2.9-.4 1.5-.8.7-.4 1.4-.9 2.4-1.4 1-.5 2.1-.9 3.4-1.3 1.2-.5 2.6-.8 4.1-1.1.7-.2 1.5-.4 2.3-.4l2.4-.3c.4-.1.8 0 1.3 0h1.3c.9.1 1.7.2 2.6.3.9.1 1.7.2 2.6.4l.7.1c.3 0 .4.1.7.2.4.1.8.2 1.3.4 1.6.6 3.3 1.1 5 1.4.8.2 1.6.2 2.5.3.8 0 1.7.1 2.5.1 1.6 0 3.2 0 4.5-.5 1.4-.5 2.6-1.1 3.9-1.6 1.2-.5 2.5-.7 3.5-.9 1.1-.2 2-.3 2.7-.4.7-.1 1.3-.2 1.7-.4.4-.1.6-.2.6-.2l-.6.3c-.4.2-.9.4-1.7.5-.8.2-1.7.3-2.7.5-1 .3-2.2.5-3.4 1-1.2.5-2.5 1.2-3.8 1.8-1.4.6-3.1.7-4.8.7-.8 0-1.7-.1-2.5-.1-.8-.1-1.7-.1-2.6-.3-1.7-.3-3.4-.8-5-1.4-.4-.1-.8-.3-1.2-.4-.2-.1-.4-.1-.6-.2H49c-.9-.1-1.7-.3-2.5-.4-.8-.1-1.7-.2-2.5-.4-.4-.1-.8 0-1.2-.1h-1.2c-.8.1-1.6.1-2.4.2-.8.1-1.5.2-2.3.4-1.5.3-2.8.5-4.1.9-1.3.4-2.4.7-3.4 1.1-1 .4-1.8.9-2.5 1.2-.7.4-1.2.6-1.6.7-.2.3-.4.4-.4.4M70.7 20.8h-.6c-.4 0-1 0-1.7-.1s-1.6-.2-2.6-.3c-.5-.1-1-.1-1.6-.1-.6 0-1.1-.1-1.7 0-1.2.1-2.4.5-3.7 1.1-.6.3-1.3.6-2 .9-.7.3-1.4.6-2.2.7-1.5.5-3.1.7-4.8.8-1.6 0-3.4-.3-4.9-.5-1.6-.2-3.3-.5-4.9-.8-1.6-.2-3.2-.5-4.7-.5-.8-.1-1.5.1-2.2.1-.4 0-.7.1-1.1.1l-.5.1-.5.1c-.7.2-1.4.3-2 .5l-1.8.6c-1.1.4-2.2.9-3.1 1.3-.9.4-1.7.7-2.5.9-.4.1-.7.1-1 .1H19.3 20.6c.3 0 .6 0 .9-.2.7-.2 1.5-.6 2.4-1 .9-.4 1.9-1 3.1-1.4.6-.3 1.2-.5 1.8-.7.6-.3 1.3-.4 2-.6l.5-.1.6-.1c.4-.1.7-.1 1.1-.2.8-.1 1.5-.2 2.3-.1 1.6 0 3.2.2 4.8.4 1.6.2 3.2.5 4.9.7 1.7.2 3.2.6 4.8.6 1.6-.1 3.1-.3 4.6-.7.7-.2 1.4-.5 2.1-.7.7-.2 1.3-.5 2-.8 1.3-.5 2.7-.9 4-1 .6 0 1.2 0 1.8.1.6 0 1.1.1 1.6.2 1 .2 1.8.3 2.6.5s1.3.2 1.7.3c.3-.2.5-.2.5-.2"/></g><path fill="#386B95" d="M49.6 22.7c-1.7.7-4 .9-5.5-.2-2.5-1.8-1.1-4.5.7-6.1 2.3-2.1 4.6-.4 6.2 1.6 1 1.2 1.4 2.1.5 3.5-.3.4-1.3.8-1.9 1.2"/><g opacity=".5"><defs><path id="c" d="M42.8 19.9H52v3.3h-9.2z"/></defs><clipPath id="d"><use xlink:href="#c" overflow="visible"/></clipPath><path clip-path="url(#d)" fill="#386B95" d="M51.5 21c-.3.4-1.4.7-1.9 1-1.7.5-4 .7-5.6-.2-.7-.4-1-.8-1.2-1.2.1.7.5 1.3 1.3 1.9 1.6 1.1 3.8.9 5.5.2.6-.3 1.6-.7 1.9-1.2.3-.6.5-1 .4-1.5 0 .2-.1.6-.4 1"/></g><defs><path id="e" d="M43.1 15.3h8.8v4h-8.8z"/></defs><clipPath id="f"><use xlink:href="#e" overflow="visible"/></clipPath><path clip-path="url(#f)" fill="#386B95" d="M44.7 16.9c2.4-1.6 4.7-.3 6.3 1.3.4.4.7.7.9 1.1-.2-.5-.5-.9-.9-1.4-1.6-2-3.9-3.7-6.2-1.6-.7.6-1.3 1.4-1.7 2.3.3-.6.9-1.2 1.6-1.7"/><defs><path id="g" d="M44.9 20.4h4.6v1.5h-4.6z"/></defs><clipPath id="h"><use xlink:href="#g" overflow="visible"/></clipPath><path clip-path="url(#h)" fill="#386B95" d="M49.5 20.8l-.2.2-.4.4-.3.3c-.1.1-.3.2-.5.2h-.5c-.2 0-.4 0-.5-.1-.2 0-.3-.1-.5-.1s-.3-.1-.5-.2c-.3-.1-.5-.3-.7-.4-.2-.1-.3-.3-.4-.4-.1-.1-.1-.2-.1-.2s.1.1.2.1c.1.1.3.2.5.3.2.1.5.2.7.3.1 0 .3.1.4.1.1 0 .3.1.5.1l.4.1h.5c.1 0 .2-.1.4-.1.1-.1.2-.1.3-.2.4-.3.7-.4.7-.4"/><defs><path id="i" d="M46.1 16.6h2.7v.7h-2.7z"/></defs><clipPath id="j"><use xlink:href="#i" overflow="visible"/></clipPath><path clip-path="url(#j)" fill="#386B95" d="M46.1 17l.4-.2c.1 0 .3-.1.4-.2.2 0 .3-.1.5-.1h.3c.1 0 .2 0 .2.1.2.1.3.2.4.2.2.2.3.4.3.4l-.1-.1c-.1 0-.2-.1-.3-.1-.1-.1-.3 0-.4-.1h-1.5c-.1.1-.2.1-.2.1"/><g opacity=".4"><defs><path id="k" d="M44.3 17.6H46v1.1h-1.7z"/></defs><clipPath id="l"><use xlink:href="#k" overflow="visible"/></clipPath><path clip-path="url(#l)" fill="#5681A5" d="M46 18.2c-1-.6-2.7-1.1-1 .6"/></g><path fill="#386B95" d="M42.8 22.4c0 .4-.3.7-.7.7-.4 0-.7-.3-.7-.7s.3-.7.7-.7c.4 0 .7.3.7.7M44 23.1c0 .2-.2.4-.4.4s-.4-.2-.4-.4.2-.4.4-.4c.3 0 .4.1.4.4"/><path fill="#C82257" d="M58.3 22.1c-.3-1.6.1-3.5 1.8-4.3 2.7-1.2 5.5.9 6.8 3 1.7 2.7-.9 3.8-3.6 4.2-1.6.3-2.8.2-4.2-1-.4-.3-.5-1.3-.8-1.9"/><g opacity=".5"><defs><path id="m" d="M58.3 17.5h4.5v7.6h-4.5z"/></defs><clipPath id="n"><use xlink:href="#m" overflow="visible"/></clipPath><path clip-path="url(#n)" fill="#C82257" d="M59.8 24.3c-.4-.4-.4-1.4-.6-1.9-.1-1.6.3-3.4 1.8-4.3.6-.4 1.2-.5 1.7-.5-.8-.2-1.7-.1-2.5.3-1.7.8-2.1 2.6-1.8 4.3.2.6.4 1.6.9 2 .5.5 1.1.8 1.6 1-.4-.3-.8-.5-1.1-.9"/></g><defs><path id="o" d="M61.6 18.6h6v6.7h-6z"/></defs><clipPath id="p"><use xlink:href="#o" overflow="visible"/></clipPath><path clip-path="url(#p)" fill="#C82257" d="M66.3 20.6c1.2 2.5-1 3.8-3.2 4.4-.6.2-1 .3-1.5.2.6.1 1.2 0 1.8-.1 2.7-.5 5.3-1.5 3.6-4.2-.5-.8-1.3-1.6-2.1-2.3.5.6 1 1.3 1.4 2"/><defs><path id="q" d="M59.8 19.3h2.5v3.5h-2.5z"/></defs><clipPath id="r"><use xlink:href="#q" overflow="visible"/></clipPath><path clip-path="url(#r)" fill="#386B95" d="M60.5 22.8s0-.1-.1-.2-.2-.3-.3-.4c-.1-.2-.3-.4-.3-.8v-.2l.1-.3c.1-.2.2-.3.3-.4.4-.5.9-.9 1.4-1 .2-.1.4-.1.6-.1h.2s-.1 0-.2.1c-.1 0-.3.1-.5.2s-.4.3-.6.5l-.6.6c-.1.1-.2.2-.2.3l-.1.1v.5c0 .1.1.2.1.3.2.5.2.8.2.8"/><defs><path id="s" d="M64.7 21.6h1.2v2h-1.2z"/></defs><clipPath id="t"><use xlink:href="#s" overflow="visible"/></clipPath><path clip-path="url(#t)" fill="#386B95" d="M65.8 21.6s.1.2.1.4c0 .1.1.2 0 .4 0 .2 0 .3-.1.5v.2l-.2.2c-.1.1-.3.2-.4.2-.1.1-.2 0-.3 0h-.1s.2-.1.3-.2c.1-.1.2-.2.2-.3 0 0 .1-.1.1-.2v-.1c0-.1.1-.1.1-.2v-.2c0-.1.1-.3.1-.4.1-.1.2-.3.2-.3"/><g opacity=".4"><defs><path id="u" d="M64.1 19.9h1.5v1.2h-1.5z"/></defs><clipPath id="v"><use xlink:href="#u" overflow="visible"/></clipPath><path clip-path="url(#v)" fill="#D04370" d="M64.5 21.1c1-.5 2-1.7-.4-1"/></g><path fill="#C82257" d="M58.3 24.1c0 .4-.3.7-.7.7-.4 0-.7-.3-.7-.7 0-.4.3-.7.7-.7.4 0 .7.3.7.7M66 25.1c0 .1-.1.2-.2.2s-.2-.1-.2-.2.1-.2.2-.2.2.1.2.2M68 19.7c0 .2-.2.4-.4.4s-.4-.2-.4-.4.2-.4.4-.4.4.2.4.4"/><path fill="#E8E8E8" d="M43.4 55.3c-1.4-.9-2.5-2.4-1.9-4.2.9-2.8 4.4-3.4 6.9-3 3.2.6 2.2 3.2.7 5.5-.9 1.4-1.8 2.2-3.6 2.4-.7 0-1.5-.5-2.1-.7"/><g opacity=".5"><defs><path id="w" d="M41.3 49h5.9v7h-5.9z"/></defs><clipPath id="x"><use xlink:href="#w" overflow="visible"/></clipPath><path clip-path="url(#x)" fill="#E8E8E8" d="M46 55.7c-.6 0-1.3-.6-1.8-.9-1.2-1-2.3-2.6-2-4.2.1-.7.4-1.2.8-1.6-.7.5-1.2 1.1-1.5 2-.6 1.8.5 3.4 1.9 4.2.6.2 1.4.8 2.1.7.7-.1 1.3-.2 1.8-.5-.4.2-.8.3-1.3.3"/></g><defs><path id="y" d="M45.2 47.9h5.2V55h-5.2z"/></defs><clipPath id="z"><use xlink:href="#y" overflow="visible"/></clipPath><path clip-path="url(#z)" fill="#E8E8E8" d="M47.6 48.4c2.7.8 2.1 3.3 1.1 5.4-.3.5-.5.9-.8 1.3.4-.4.8-.8 1.2-1.4 1.5-2.3 2.5-5-.7-5.5-1-.2-2.1-.2-3.1 0 .7-.2 1.6 0 2.3.2"/><defs><path id="A" d="M43.3 50.5h2v3.6h-2z"/></defs><clipPath id="B"><use xlink:href="#A" overflow="visible"/></clipPath><path clip-path="url(#B)" fill="#E9E9E9" d="M45.3 54.1h-.2c-.1 0-.3 0-.5-.1-.2 0-.5-.1-.8-.3l-.1-.2-.1-.2c-.1-.2-.1-.3-.1-.5-.1-.6 0-1.3.2-1.7.1-.2.2-.4.3-.5.1-.1.1-.2.1-.2s0 .1-.1.2-.1.3-.1.5c-.1.2 0 .5 0 .7 0 .3 0 .6.1.8 0 .1 0 .3.1.4l.1.2.1.2c.1 0 .2.1.3.2.1 0 .2.1.3.1l.4.4"/><defs><path id="C" d="M48.1 49.4h1.1v2.1h-1.1z"/></defs><clipPath id="D"><use xlink:href="#C" overflow="visible"/></clipPath><path clip-path="url(#D)" fill="#E9E9E9" d="M48.1 49.4l.4.2c.1.1.2.1.3.2.1.1.2.2.3.4 0 .1.1.2.1.3v.2c0 .2-.1.3-.1.4 0 .1-.1.2-.2.3l-.1.1s.1-.2 0-.4v-.3-.2s-.1-.1-.1-.2 0-.1-.1-.2l-.1-.2c-.1-.1-.2-.2-.2-.3-.2-.1-.2-.3-.2-.3"/><g opacity=".4"><defs><path id="E" d="M45.8 48.5h1.1V50h-1.1z"/></defs><clipPath id="F"><use xlink:href="#E" overflow="visible"/></clipPath><path clip-path="url(#F)" fill="#EBEBEB" d="M46.8 50c.3-1.1.1-2.7-1-.4"/></g><path fill="#E8E8E8" d="M44.8 56.6c.3.3.3.7 0 1-.3.3-.7.3-1 0-.3-.3-.3-.7 0-1 .3-.2.8-.3 1 0M50.8 51.6c.1.1.1.2 0 .3-.1.1-.2.1-.3 0-.1-.1-.1-.2 0-.3.1-.1.2-.1.3 0M48.1 46.6c.2.2.2.4 0 .6-.2.2-.4.2-.6 0s-.2-.4 0-.6c.2-.2.5-.2.6 0"/><path fill="#2A2A2A" d="M58.6 50.2c-.3-1.6.1-3.5 1.8-4.3 2.7-1.2 5.5.9 6.8 3 1.7 2.7-.9 3.8-3.6 4.2-1.6.3-2.8.2-4.2-1-.4-.3-.6-1.3-.8-1.9"/><g opacity=".5"><defs><path id="G" d="M58.5 45.6H63v7.6h-4.5z"/></defs><clipPath id="H"><use xlink:href="#G" overflow="visible"/></clipPath><path clip-path="url(#H)" fill="#2A2A2A" d="M60 52.4c-.4-.4-.4-1.4-.6-1.9-.1-1.6.3-3.4 1.8-4.3.6-.4 1.2-.5 1.7-.5-.8-.2-1.7-.1-2.5.3-1.7.8-2.1 2.6-1.8 4.3.2.6.4 1.6.9 2 .5.5 1.1.8 1.6 1-.4-.3-.7-.5-1.1-.9"/></g><defs><path id="I" d="M61.8 46.7h6v6.7h-6z"/></defs><clipPath id="J"><use xlink:href="#I" overflow="visible"/></clipPath><path clip-path="url(#J)" fill="#2A2A2A" d="M66.5 48.7c1.2 2.5-1 3.8-3.2 4.4-.6.2-1 .3-1.5.2.6.1 1.2 0 1.8-.1 2.7-.5 5.3-1.5 3.6-4.2-.5-.8-1.3-1.6-2.1-2.3.6.6 1.1 1.3 1.4 2"/><defs><path id="K" d="M60 47.4h2.5v3.5H60z"/></defs><clipPath id="L"><use xlink:href="#K" overflow="visible"/></clipPath><path clip-path="url(#L)" fill="#323232" d="M60.7 50.9s0-.1-.1-.2-.2-.3-.3-.4c-.1-.2-.3-.4-.3-.8v-.2l.1-.3c.1-.2.2-.3.3-.4.4-.5.9-.9 1.4-1 .2-.1.4-.1.6-.1h.2s-.1 0-.2.1c-.1 0-.3.1-.5.2s-.4.3-.6.5l-.6.6c-.1.1-.2.2-.2.3l-.1.1v.5c0 .1.1.2.1.3.2.5.2.8.2.8"/><defs><path id="M" d="M65 49.7h1.2v2H65z"/></defs><clipPath id="N"><use xlink:href="#M" overflow="visible"/></clipPath><path clip-path="url(#N)" fill="#323232" d="M66.1 49.7s.1.2.1.4c0 .1.1.2 0 .4 0 .2 0 .3-.1.5l-.1.1v.1l-.2.2c-.1.1-.3.2-.4.2-.1.1-.2 0-.3 0H65s.2-.1.3-.2c.1-.1.2-.2.2-.3 0 0 .1-.1.1-.2v-.1c0-.1.1-.1.1-.2v-.2c0-.1.1-.3.1-.4.2-.1.3-.3.3-.3"/><g opacity=".4"><defs><path id="O" d="M64.4 48h1.5v1.2h-1.5z"/></defs><clipPath id="P"><use xlink:href="#O" overflow="visible"/></clipPath><path clip-path="url(#P)" fill="#4A4A4A" d="M64.7 49.2c1-.5 2-1.7-.4-1"/></g><path fill="#2A2A2A" d="M58.6 52.2c0 .4-.3.7-.7.7s-.7-.3-.7-.7.3-.7.7-.7.7.3.7.7M66.3 53.2c0 .1-.1.2-.2.2s-.2-.1-.2-.2.1-.2.2-.2.2 0 .2.2M68.2 47.8c0 .2-.2.4-.4.4s-.4-.2-.4-.4.2-.4.4-.4.4.2.4.4"/><path fill="#597F5C" d="M72.4 33c-1.2-1.7-2.2-4-1.5-5.6 1.1-2.4 4.3-1 6.6.9 2.9 2.4 1.8 4.7.3 6.2-.9.9-1.8 1.3-3.5.5-.7-.3-1.4-1.4-1.9-2"/><g opacity=".5"><defs><path id="Q" d="M70.7 26.2H76v9.3h-5.3z"/></defs><clipPath id="R"><use xlink:href="#Q" overflow="visible"/></clipPath><path clip-path="url(#R)" fill="#597F5C" d="M74.8 35c-.5-.3-1.2-1.4-1.6-2-1.1-1.7-2-4-1.5-5.6.2-.6.5-1 .9-1.2-.7.1-1.2.5-1.6 1.3-.7 1.5.2 3.8 1.5 5.6.5.6 1.3 1.7 1.9 2 .7.3 1.2.5 1.7.5-.5-.2-.9-.3-1.3-.6"/></g><defs><path id="S" d="M74.6 26.5h4.7v8.8h-4.7z"/></defs><clipPath id="T"><use xlink:href="#S" overflow="visible"/></clipPath><path clip-path="url(#T)" fill="#597F5C" d="M76.8 28.2c2.4 2.4 1.7 4.7.6 6.3-.3.4-.5.7-.9.8.4-.1.8-.4 1.2-.8 1.6-1.6 2.7-3.8-.3-6.2-.9-.7-1.9-1.4-2.9-1.8.8.4 1.6 1 2.3 1.7"/><defs><path id="U" d="M72.5 28.3h1.8v4.6h-1.8z"/></defs><clipPath id="V"><use xlink:href="#U" overflow="visible"/></clipPath><path clip-path="url(#V)" fill="#597F5C" d="M74.3 32.9s-.1 0-.2-.1-.3-.2-.5-.4-.4-.3-.6-.6l-.2-.2-.1-.2c-.1-.2-.1-.3-.1-.5s-.1-.4 0-.5v-.5c0-.3.1-.6.2-.9.1-.2.2-.4.3-.5.1-.1.2-.1.2-.1s0 .1-.1.2-.1.3-.2.5v1.3c0 .2 0 .3.1.4 0 .1.1.3.1.5l.1.2s.1.1.1.2c.1.2.3.5.5.6.2.4.4.6.4.6"/><defs><path id="W" d="M77.2 29.6h.9v2.7h-.9z"/></defs><clipPath id="X"><use xlink:href="#W" overflow="visible"/></clipPath><path clip-path="url(#X)" fill="#597F5C" d="M77.2 29.6s.1.1.3.4c.1.1.2.2.3.4.1.2.2.3.3.5 0 .2.1.4.1.6 0 .2-.1.4-.1.5 0 .1-.1.2-.2.3l-.1.1s.1-.2.1-.4v-.4c0-.2-.1-.3-.1-.5-.1-.2-.1-.3-.2-.5s-.1-.3-.2-.4c-.2-.4-.2-.6-.2-.6"/><g opacity=".4"><defs><path id="Y" d="M75 27.8h1.1v1.7H75z"/></defs><clipPath id="Z"><use xlink:href="#Y" overflow="visible"/></clipPath><path clip-path="url(#Z)" fill="#729275" d="M75.9 29.5c.4-1 .3-2.7-.9-1"/></g><path fill="#597F5C" d="M81.4 31.6c0 .4-.3.7-.7.7-.4 0-.7-.3-.7-.7s.3-.7.7-.7c.4 0 .7.3.7.7M77.8 27.3c0 .1-.1.2-.2.2s-.2-.1-.2-.2.1-.2.2-.2.2.1.2.2M78.9 27.8c0 .2-.2.4-.4.4s-.4-.2-.4-.4.2-.4.4-.4c.3 0 .4.1.4.4"/><path fill="#EBD467" d="M72.9 45.8c-2.5-.8-5-2.1-5.3-3.7-.5-2.5 3.9-2.9 7.6-2.6 4.7.5 5 2.8 4.4 4.8-.4 1.2-1 1.9-3.4 2.1-.9.1-2.3-.4-3.3-.6"/><g opacity=".5"><defs><path id="aa" d="M67.6 40.3h10.8v6.1H67.6z"/></defs><clipPath id="ab"><use xlink:href="#aa" overflow="visible"/></clipPath><path clip-path="url(#ab)" fill="#EBD467" d="M76.7 46.2c-.8 0-2.2-.5-3-.8-2.3-.8-4.8-2.2-5.4-3.7-.2-.6-.2-1 .1-1.4-.6.4-1 1-.8 1.8.3 1.6 2.8 2.9 5.3 3.7 1 .2 2.4.7 3.3.6 1-.1 1.6-.2 2.1-.5-.3.2-.9.3-1.6.3"/></g><g><defs><path id="ac" d="M71 39.4h8.9v6.1H71z"/></defs><clipPath id="ad"><use xlink:href="#ac" overflow="visible"/></clipPath><path clip-path="url(#ad)" fill="#EBD467" d="M74.4 39.8c4.2.7 5 2.9 4.9 4.6 0 .4-.1.8-.4 1.1.3-.3.6-.7.7-1.2.6-2 .3-4.3-4.4-4.8-1.4-.1-3-.2-4.3 0 1.1 0 2.4.1 3.5.3"/></g><g><defs><path id="ae" d="M70.6 41.7h4.3v3.2h-4.3z"/></defs><clipPath id="af"><use xlink:href="#ae" overflow="visible"/></clipPath><path clip-path="url(#af)" fill="#597F5C" d="M74.9 44.8h-1.4c-.2 0-.3 0-.5-.1s-.3-.1-.6-.2c-.2-.1-.3-.2-.5-.3-.2-.1-.3-.3-.4-.4-.2-.1-.2-.3-.4-.4-.2-.3-.4-.6-.5-.8-.1-.3-.1-.5-.1-.7l.1-.2v.2c0 .2.1.4.2.6.1.2.3.5.6.7.1.1.2.3.4.4.1.1.2.2.4.3l.5.3c.1.1.3.1.4.2.3.1.6.2.9.2.5.1.9.2.9.2"/></g><g><defs><path id="ag" d="M75.7 40.7h2.4v1.8h-2.4z"/></defs><clipPath id="ah"><use xlink:href="#ag" overflow="visible"/></clipPath><path clip-path="url(#ah)" fill="#597F5C" d="M75.7 40.7s.2 0 .5.1c.1 0 .3.1.5.1.2.1.4.2.6.2.1 0 .2.1.3.2.1.1.2.1.3.2.1.1.1.2.2.2 0 .1.1.2.1.2.1.2.1.3.1.4 0 .1-.1.1-.1.1v-.1c0-.1-.1-.2-.2-.3l-.3-.3c-.1-.1-.3-.2-.5-.3-.2-.1-.3-.2-.5-.3-.2-.1-.3-.2-.4-.3-.4.1-.6-.1-.6-.1"/></g><g opacity=".4"><defs><path id="ai" d="M72.8 39.9h1.6v1.3h-1.6z"/></defs><clipPath id="aj"><use xlink:href="#ai" overflow="visible"/></clipPath><path clip-path="url(#aj)" fill="#EEDB7E" d="M74.3 41.3c-.3-.9-1.5-2.3-1.6-.3"/></g><path fill="#EBD467" d="M65 41.3c0-.2.1-.3.3-.3.2 0 .3.1.3.3 0 .2-.1.3-.3.3-.2 0-.3-.2-.3-.3M66 41.3c0-.3.3-.5.6-.5s.5.3.5.6-.3.5-.6.5c-.2-.1-.5-.3-.5-.6"/><g opacity=".3"><defs><path id="ak" d="M24.4 16.9h9v10.8h-9z"/></defs><clipPath id="al"><use xlink:href="#ak" overflow="visible"/></clipPath><path clip-path="url(#al)" fill="#72583C" d="M32.2 27.7l-.1-.5-7.7-9.3 1.8-1 7.1 9.7"/></g><path fill="#BDBCBC" d="M22.7 4.6l-1.4.6 6 11.2 1.1-.6 1-.5L24 3.9"/><path fill="#BDBCBC" d="M29.8 15.6c.1.3 0 .6-.3.8l-1.4.6c-.3.1-.6 0-.8-.3-.1-.3 0-.6.3-.8l1.4-.7c.3 0 .6.1.8.4"/><path fill="#D3D2D2" d="M27.7 16.1l1.4-.7c.3-.1.6-.1.7.1-.1-.3-.5-.4-.8-.3l-1.4.8c-.3.1-.4.5-.3.8-.1-.2.1-.5.4-.7"/><path fill="#BDBCBC" d="M30.2 16.5c.1.3 0 .6-.3.8l-1.4.7c-.3.1-.6 0-.8-.3-.1-.3 0-.6.3-.8l1.4-.7c.3-.1.7 0 .8.3"/><path fill="#D3D2D2" d="M28.1 17.1l1.4-.7c.3-.1.6-.1.7.1-.1-.3-.5-.4-.8-.3l-1.4.7c-.3.1-.4.5-.3.8 0-.2.2-.5.4-.6"/><path fill="#888687" d="M29.9 17.1l-1.4.7c-.3.1-.6.1-.7-.1.1.3.5.4.8.3l1.4-.7c.3-.1.4-.5.3-.8 0 .2-.1.5-.4.6M29.4 16.2l-1.4.7c-.3.1-.6.1-.7-.1.1.3.5.4.8.3l1.4-.7c.3-.1.4-.5.3-.8.1.2-.1.4-.4.6"/><path fill="#DEDDDE" d="M29.8 16.4v.1l-1.6.8h-.1v-.1l1.6-.8h.1M29.3 15.5v.1l-1.6.8h-.1v-.1l1.6-.8h.1"/><path fill="#8B4D47" d="M31.4 18.8L30.2 17l-1 .5-1 .5.8 2c2 5 6.3 12.9 6.3 12.9s20.3 38.6 20.8 39.6 1.2.7 1.2.7.7-.4.2-1.4C57 70.8 38 31.5 38 31.5s-3.7-8.2-6.6-12.7"/><g opacity=".5"><defs><path id="am" d="M21.3 5h6.4v11.4h-6.4z"/></defs><clipPath id="an"><use xlink:href="#am" overflow="visible"/></clipPath><path clip-path="url(#an)" fill="#BDBCBC" d="M27.7 16.2L21.8 5l-.5.2 6 11.2"/></g><g opacity=".3"><defs><path id="ao" d="M23.6 3.9h5.9v11.6h-5.9z"/></defs><clipPath id="ap"><use xlink:href="#ao" overflow="visible"/></clipPath><path clip-path="url(#ap)" fill="#BDBCBC" d="M29.4 15.3L24 3.9l-.4.2 5.5 11.4"/></g><g opacity=".5"><defs><path id="aq" d="M28.2 17.8h29.2v55.4H28.2z"/></defs><clipPath id="ar"><use xlink:href="#aq" overflow="visible"/></clipPath><path clip-path="url(#ar)" fill="#8B4D47" d="M56.4 72.4c-.5-1-20.6-39.7-20.6-39.7s-4.3-7.9-6.4-12.9l-.8-2-.4.2.8 2c2 5 6.3 12.9 6.3 12.9s20.3 38.6 20.8 39.6 1.2.7 1.2.7-.4.2-.9-.8"/></g><g opacity=".3"><defs><path id="as" d="M29.9 17h27.9v56.2H29.9z"/></defs><clipPath id="at"><use xlink:href="#as" overflow="visible"/></clipPath><path clip-path="url(#at)" fill="#8B4D47" d="M31.4 18.8L30.2 17l-.4.2L31 19c2.7 4.6 6.6 12.8 6.6 12.8s19.2 39.1 19.7 40.1.1 1.3.1 1.3.7-.4.2-1.4C57 70.8 38 31.5 38 31.5s-3.7-8.2-6.6-12.7"/></g><path fill="#F8F4F4" d="M21.8.1l-.2.2h-.1l-.1.1c-.1.1-.2.1-.2.1h-.1-.1s-.1 0-.1.1h-.1c-.1 0-.1 0-.1.1-.1.1-.1.1-.2.1s-.3.1-.4.1c-.1.1-.1.2-.2.2h-.2c0 .1-.1.2-.1.2v.2c0 .1.1.2.1.4.1.3.2.6.3 1 .3.8.7 1.7 1.3 2.4l1.3-.7 1.4-.7C23.7 2.4 21.9 0 21.8.1z"/><path fill="#E2E2E2" d="M20.8.8s-.9.4-1.2.6v.1c0 .1 0 .2.1.2.3-.1 1.3-.6 1.3-.6l1.3-.6c-.2-.1-.3-.2-.3-.3l-1.2.6z"/><path fill="#CAC9C9" d="M21.8.1l-.2.2h-.1l-.1.1c-.1.1-.2.1-.2.1h-.1-.1s-.1 0-.1.1h-.1c-.1 0-.1 0-.1.1-.1.1-.1.1-.2.1s-.3.1-.4.1c-.1 0-.1.1-.2.1h-.2c0 .1-.1.2-.1.2v.1c.3-.2 1.2-.6 1.2-.6L22 .2c-.1-.1-.1-.2-.2-.1z"/><path fill="none" d="M29.8 15.6c0-.1-.1-.2-.2-.2 5.3-2.1 12.2-3.6 21.1-3.6 0 0 35.2-.5 35.2 23.7 0 21-20.1 25.1-30.9 25.8.4.3.5.6-.3.7-2.1.2-5.1.1-5.1.1l-.4-.6c-8.9-.1-25.8-1.4-32.4-13.8 0 0-1.9-5.2 5.2-4.4 7.1.8 9.7 1.3 9.7-1.2 0 0 .8-2.1-4-4.2s-12-5.2-12-9.6c0-2.6 3.5-8 11.8-12v.4c.1.2.3.3.5.3-.1.2-.2.4-.1.6.1.2.2.3.4.3l.8 2c.8 2.1 2.1 4.7 3.2 7 .9 1.8 1.8 3.5 2.4 4.5.5 0 1-.1 1.5-.2.6-.2 1.1-.4 1.5-.6-.5-1-1.4-2.9-2.5-5-1.2-2.4-2.6-5-3.8-6.9L30.2 17c.1-.2.1-.3 0-.5s-.3-.3-.5-.3c.1-.2.2-.4.1-.6M0 74.2h94.5"/><g opacity=".5"><defs><path id="au" d="M34.3 30h3.3v1.6h-3.3z"/></defs><clipPath id="av"><use xlink:href="#au" overflow="visible"/></clipPath><path clip-path="url(#av)" fill="#72583C" d="M34.3 31l.3.6c.5 0 1-.1 1.6-.2.6-.2 1.1-.4 1.5-.6l-.4-.8c-.7 1.4-3 1-3 1"/></g><g opacity=".4"><defs><path id="aw" d="M50.7 62.1H53v.7h-2.3z"/></defs><clipPath id="ax"><use xlink:href="#aw" overflow="visible"/></clipPath><path clip-path="url(#ax)" fill="#72583C" d="M51 62.7l1.9-.4-.1-.3s-1.8.1-2.1 0l.3.7z"/></g></svg>