<svg xmlns="http://www.w3.org/2000/svg" width="83.3" height="21.1" viewBox="0 0 83.3 21.1"><path fill="none" stroke="#8F8D8D" stroke-width="2.712" stroke-miterlimit="10" d="M55.2 19.8H10.3c-4.9 0-8.9-4.4-8.9-9.3s4-9.1 8.9-9.1H73s8.9 0 8.9 8.3c0 4.9-4 7.1-8.9 7.1H31s-8.6.4-8.6-6.8c0 0-.6-5.6 8.8-5.6h24.2"/><path fill="none" stroke="#B0AEAF" stroke-width="1.937" stroke-miterlimit="10" d="M55.2 19.8H10.3c-4.9 0-8.9-4.4-8.9-9.3s4-9.1 8.9-9.1H73s8.9 0 8.9 8.3c0 4.9-4 7.1-8.9 7.1H31s-8.6.4-8.6-6.8c0 0-.6-5.6 8.8-5.6h24.2"/><path fill="#E4E4E4" d="M55.2 19.8c-9 .1-18.1.1-27.1.2H9.4c-.6-.1-1.2-.2-1.7-.4-2.2-.7-4.1-2.3-5.3-4.3-1.2-2-1.6-4.5-1.1-6.7.5-2.3 1.8-4.3 3.7-5.7.9-.7 2-1.2 3.1-1.5 1.1-.3 2.3-.3 3.4-.3h6.8c9 0 18.1.1 27.1.1l27.1-.1c2.3 0 4.6.6 6.5 1.9.9.7 1.7 1.6 2.2 2.6.2.5.5 1.1.6 1.6.2.5.3.8.3 1l.1.9c0 .3.1.6 0 .9 0 .3 0 .6-.1.9-.1.6-.2 1.2-.5 1.7-.4 1.1-1.2 2-2.2 2.7-1.9 1.4-4.3 1.8-6.6 1.8H32.1c-2.2.1-4.7-.1-6.7-1.3-1-.6-1.9-1.4-2.5-2.4-.6-1-.8-2.2-.8-3.4 0-.8.2-1.6.5-2.3.4-.6 1-1.2 1.6-1.7.6-.4 1.3-.8 2-1.1.4-.1.7-.3 1.1-.3.4-.1.7-.2 1.1-.2l1.1-.1h7.9l18 .1v.1l-18 .1H29.6l-1.1.1c-.4 0-.7.1-1.1.2-.4.1-.7.2-1.1.3-.7.2-1.3.6-1.9 1-.6.5-1 1-1.4 1.6-.3.6-.5 1.4-.4 2 .1 1.1.2 2.2.8 3.1.5.9 1.4 1.7 2.3 2.2 1 .5 2 .8 3.1 1 1.1.2 2.2.1 3.3.1h40.7c2.2 0 4.5-.4 6.3-1.7.9-.6 1.6-1.5 2-2.5.2-.5.3-1 .4-1.6.1-.3.1-.6.1-.8v-.8l-.1-.8c0-.3-.1-.5-.2-.8-.1-.5-.3-1-.5-1.6-.5-1-1.2-1.8-2.1-2.5-1.8-1.3-4-1.9-6.3-1.9l-26.9.3c-9-.1-18.1 0-27.1.1h-6.8c-1.1 0-2.2 0-3.3.3-1.1.3-2.1.8-3 1.4-1.8 1.2-3.1 3.2-3.5 5.4-.4 2.2 0 4.5 1.1 6.4 1.1 1.9 2.9 3.4 5 4.1.5.2 1.1.3 1.6.3.6 0 1.1.1 1.7.1h17c8.9 0 18 .1 27 .2z"/></svg>