<svg xmlns="http://www.w3.org/2000/svg" xmlns:xlink="http://www.w3.org/1999/xlink" width="22.9" height="62.9" viewBox="0 0 22.9 62.9"><path fill="#C16E7D" d="M.7 7.2c0 1.7 1.3 3 2.9 3h15.5c1.6 0 2.9-1.3 2.9-3V3c0-1.7-1.3-3-2.9-3H3.7C2 0 .7 1.3.7 3v4.2z"/><path fill="#B14A5D" d="M3.5 7.2V3c0-1.7 1.3-3 2.9-3H3.7C2 0 .7 1.3.7 3v4.2c0 1.7 1.3 3 2.9 3h2.8c-1.6 0-2.9-1.3-2.9-3"/><path fill="#D3D4D4" d="M.6 6.4h21.8V13H.6z"/><path fill="#D3D4D4" d="M22.9 8.6c0-.3-.2-.5-.5-.5H.5c-.3 0-.5.2-.5.5s.2.5.5.5h21.8c.3 0 .6-.2.6-.5M22.9 9.7c0-.3-.2-.5-.5-.5H.5c-.3-.1-.5.2-.5.5s.2.5.5.5h21.8c.3 0 .6-.2.6-.5M22.9 10.7c0-.3-.2-.5-.5-.5H.5c-.3 0-.5.2-.5.5s.2.5.5.5h21.8c.3.1.6-.2.6-.5"/><path fill="#F0F0F0" d="M22.3 10.5H.5c-.2 0-.4.2-.5.4v-.1c0-.3.2-.5.5-.5h21.8c.3 0 .5.2.5.5v.1c0-.2-.2-.4-.5-.4M22.3 9.4H.5c-.2 0-.4.2-.5.4v-.1c0-.3.2-.5.5-.5h21.8c.3 0 .5.2.5.5v.1c0-.2-.2-.4-.5-.4M22.3 8.4H.5c-.2 0-.4.1-.5.4v-.1c0-.3.2-.5.5-.5h21.8c.3 0 .5.2.5.5v.1c0-.3-.2-.4-.5-.4"/><path fill="#A8AAA8" d="M.5 8.9h21.8c.2 0 .4-.2.5-.4v.1c0 .3-.2.5-.5.5H.5c-.3 0-.5-.2-.5-.5v-.1c.1.2.3.4.5.4M.5 9.9h21.8c.2 0 .4-.2.5-.4v.1c0 .3-.2.5-.5.5H.5c-.3.1-.5-.1-.5-.4v-.1c.1.2.3.3.5.3M.5 11h21.8c.2 0 .4-.2.5-.4v.1c0 .3-.2.5-.5.5H.5c-.3.1-.5-.2-.5-.5v-.1c.1.2.3.4.5.4"/><g opacity=".24"><defs><path id="a" d="M7.1 6.4h8.7v6.5H7.1z"/></defs><clipPath id="b"><use xlink:href="#a" overflow="visible"/></clipPath><path clip-path="url(#b)" fill="#FFF" d="M7.1 6.4h8.7v6.5H7.1z"/></g><g opacity=".24"><defs><path id="c" d="M8.9 6.5H14V13H8.9z"/></defs><clipPath id="d"><use xlink:href="#c" overflow="visible"/></clipPath><path clip-path="url(#d)" fill="#FFF" d="M8.9 6.5H14V13H8.9z"/></g><g opacity=".24"><defs><path id="e" d="M10.3 6.5h2.3V13h-2.3z"/></defs><clipPath id="f"><use xlink:href="#e" overflow="visible"/></clipPath><path clip-path="url(#f)" fill="#FFF" d="M10.3 6.5h2.3V13h-2.3z"/></g><path fill="#FCF5AD" d="M15.1 12.9h7.3v31.7h-7.3z"/><path fill="#988B3A" d="M.6 12.9h7.3v31.7H.6z"/><path fill="#EBD467" d="M6.6 12.9h9.8v31.7H6.6z"/><path fill="#EDE6D8" d="M22.3 44.6l-6-6.7-4.9 6.7-4.8-6.7-6 6.7 10.8 18.3"/><g opacity=".4"><defs><path id="g" d="M11.4 37.9h10.9v25H11.4z"/></defs><clipPath id="h"><use xlink:href="#g" overflow="visible"/></clipPath><path clip-path="url(#h)" fill="#EDE6D8" d="M16.3 37.9l2.4 7.2-7.3 17.8 10.9-18.3"/></g><g opacity=".4"><defs><path id="i" d="M.6 37.9h10.9v25H.6z"/></defs><clipPath id="j"><use xlink:href="#i" overflow="visible"/></clipPath><path clip-path="url(#j)" fill="#EDE6D8" d="M6.6 37.9l-2.4 7.2 7.2 17.8L.6 44.6"/></g><path fill="#252A26" d="M14.1 58.5l-1.9-2.2-1.3-.3-2.4 2 2.9 4.9"/></svg>