<svg xmlns="http://www.w3.org/2000/svg" xmlns:xlink="http://www.w3.org/1999/xlink" width="62.2" height="59.7" viewBox="0 0 62.2 59.7"><path fill="#393536" d="M30.5 14.9h-1.6c0-1.9-.4-3.7-.8-5.6-.1-.6-.3-1.2-.4-1.8-.4-2.2-.1-5.3 2.4-6.6 1.2-.7 2.4-.8 3.4-.5.9.3 1.6.9 2.1 1.9.8 1.6 1 3.4 1 4.7H35c0-1.6-.3-2.9-.8-3.9-.2-.8-.6-1.1-1.1-1.3-.6-.2-1.4 0-2.2.4-1.7.9-1.9 3.2-1.6 4.9.1.6.2 1.2.4 1.8.4 1.9.8 3.9.8 6"/><path fill="#DEDDDE" d="M48.3 29.6c0 .3-.3.6-.6.6H46c-.3 0-.6-.2-.6-.6v-7.1c0-.3.3-.6.6-.6h1.7c.3 0 .6.3.6.6v7.1z"/><path fill="#EBD467" d="M20.1 10.7h5v2.1h-5z"/><path fill="#EBD467" d="M20.4 10.3h4.3v.4h-4.3z"/><path fill="#E5952E" d="M20.4 10.6h4.3v.1h-4.3z"/><path fill="#F9F2D1" d="M20.1 10.7h5c-.8.1-1.7.1-2.5.1-.9 0-1.7.1-2.5-.1z"/><path fill="#208BB5" d="M15.8 12h28v47.8h-28z"/><path fill="#C8C7C7" d="M38.8 12h7.6v47.8h-7.6z"/><circle fill="none" stroke="#7B7979" stroke-width=".277" stroke-miterlimit="10" cx="40.6" cy="47.7" r=".9"/><defs><path id="a" d="M15.8 12h30.6v.3H15.8z"/></defs><clipPath id="b"><use xlink:href="#a" overflow="visible"/></clipPath><path clip-path="url(#b)" fill="#DCDBDB" d="M15.8 12h30.6l-3.8.1h-3.9l-7.6.1-7.7-.1h-3.8l-3.8-.1"/><path fill="#231F20" d="M31.7 51.8c0 .5-.4.8-.8.8h-8.2c-.5 0-.8-.4-.8-.8V27.5c0-.5.4-.8.8-.8h8.2c.5 0 .8.4.8.8v24.3z"/><path fill="#D3D2D2" d="M31.3 51.5c0 .3-.2.7-.6.8-.4.1-.7 0-1.1 0H22.8c-.2 0-.3-.1-.5-.3-.3-.3-.2-.7-.2-1V27.8c0-.4.2-.7.6-.8.4-.1.7 0 1.1 0H30.6c.2 0 .3.1.5.3.3.3.2.7.2 1v23.2zm0 0V28.3c0-.3.1-.7-.2-1-.1-.1-.3-.2-.4-.3H22.9c-.3.1-.6.4-.6.8V51c0 .3-.1.7.2 1 .1.1.3.2.4.3h7.9c.2-.1.5-.5.5-.8"/><defs><path id="c" d="M22.2 27h8.9v25h-8.9z"/></defs><clipPath id="d"><use xlink:href="#c" overflow="visible"/></clipPath><path clip-path="url(#d)" fill="#231F20" d="M23.2 52.1c-.4 0-.7-.3-.8-.7v-1.1l-.1-2.1-.1-4.2-.1-8.5v-7.4c0-.4.3-.9.8-1 1.5 0 2.9 0 4.3.1l2.1.1h1.1c.4.1.6.5.6.8 0-.4-.3-.7-.6-.7h-1.1l-2.1.1-4.2.1c-.2.1-.4.3-.4.6v7.4l.1 8.4-.1 4.2-.1 2.1v1.1c0 .3.3.7.7.7"/><path fill="#656263" d="M26.6 32.6l-1.7-1.7c-.4.4-.7 1-.7 1.7 0 1.3 1.1 2.4 2.4 2.4 1.3 0 2.4-1.1 2.4-2.4 0-.7-.3-1.3-.7-1.7l-1.7 1.7z"/><path fill="#868484" d="M28.3 30.9c-.4-.4-1-.7-1.7-.7s-1.3.3-1.7.7l1.7 1.7 1.7-1.7z"/><path fill="#4F4C4D" d="M27.8 32.6c0 .7-.5 1.2-1.2 1.2s-1.2-.5-1.2-1.2.5-1.2 1.2-1.2c.7-.1 1.2.5 1.2 1.2"/><path fill="none" stroke="#FFF" stroke-width=".215" stroke-miterlimit="10" d="M26.6 31.8v.5M25.9 33l.5-.3M27.3 33l-.5-.3"/><path fill="#4F4C4D" d="M29.5 33.2l-1.2-.2v-.7l1.2-.2M25.8 29.8l.4 1.1-.6.4-.7-1M24.7 34.7l.7-1 .7.4-.5 1.1"/><path fill="#656263" d="M26.8 46.4V44c-.6 0-1.2.2-1.7.7-.9.9-.9 2.4 0 3.4.9.9 2.4.9 3.4 0 .5-.5.7-1.1.7-1.7h-2.4z"/><path fill="#868484" d="M29.2 46.4c0-.6-.2-1.2-.7-1.7-.5-.5-1.1-.7-1.7-.7v2.4h2.4z"/><path fill="#4F4C4D" d="M27.7 47.2c-.5.5-1.3.5-1.7 0-.5-.5-.5-1.3 0-1.7.5-.5 1.3-.5 1.7 0 .5.5.5 1.2 0 1.7"/><path fill="none" stroke="#FFF" stroke-width=".215" stroke-miterlimit="10" d="M27.4 45.8l-.4.4M26.1 46.2l.5.1M27 47.1l-.1-.5"/><path fill="#4F4C4D" d="M28.4 48.8l-.7-1 .5-.5 1 .8M28.2 43.8l-.5 1.1-.7-.2.2-1.2M24 46.5l1.2-.1.2.7-1.2.4"/><path fill="#BDBCBC" d="M29 41.1c0 .5-.4.8-.8.8h-2.6c-.5 0-.8-.4-.8-.8v-3.6c0-.5.4-.8.8-.8h2.6c.5 0 .8.4.8.8v3.6z"/><defs><path id="e" d="M15.8 20.7h23v.2h-23z"/></defs><clipPath id="f"><use xlink:href="#e" overflow="visible"/></clipPath><path clip-path="url(#f)" fill="none" stroke="#BDBCBC" stroke-width=".24" stroke-miterlimit="10" d="M15.8 20.8h23"/><defs><path id="g" d="M15.8 20.6h23v.2h-23z"/></defs><clipPath id="h"><use xlink:href="#g" overflow="visible"/></clipPath><path clip-path="url(#h)" fill="none" stroke="#231F20" stroke-width=".24" stroke-miterlimit="10" d="M15.8 20.7h23"/><defs><path id="i" d="M33.1 36.1h3.8v6.4h-3.8z"/></defs><clipPath id="j"><use xlink:href="#i" overflow="visible"/></clipPath><path clip-path="url(#j)" fill="none" stroke="#BDBCBC" stroke-width=".201" stroke-miterlimit="10" d="M36.7 39.3l-1.8-3-1.7 3h1.2v3.1h1.1v-3.1z"/><path fill="none" stroke="#BDBCBC" stroke-width=".201" stroke-miterlimit="10" d="M36.7 39.2l-1.8-3-1.7 3h1.2v3.1h1.1v-3.1z"/><path fill="#A7A5A6" d="M46.4 22h.3v8.2h-.3z"/><path fill="#231F20" d="M34.8 7.2h2.4V12h-2.4z"/><path fill="#444142" d="M35.6 7.2h.6V12h-.6zM36.8 6.9H35.1l-.3.3h2.3"/><path fill="#B4B3B3" d="M34.8 7.2h2.3l-1.2.1-1.1-.1"/><defs><path id="k" d="M32.9 1.4h2.6v5h-2.6z"/></defs><clipPath id="l"><use xlink:href="#k" overflow="visible"/></clipPath><path clip-path="url(#l)" fill="#393536" d="M35.4 6.4c-.1-.5-.1-1-.2-1.5s-.2-1-.4-1.4c-.3-.9-.9-1.8-1.9-2.1.5.1 1 .3 1.4.7.4.4.6.8.8 1.3.3.9.4 2 .3 3"/><path fill="none" stroke="#C8C7C7" stroke-width=".419" stroke-miterlimit="10" d="M57.7 58.3c2.7-5.7 4.3-12.4 4.3-19.6C62 17.4 48.2.2 31.1.2 14.1.2.3 17.4.3 38.7c0 7.1 1.6 13.8 4.3 19.6"/><path fill="none" stroke="#393536" stroke-width="1.964" stroke-miterlimit="10" d="M56.1 56.5c2.6-5.4 4-11.6 4-18.3 0-5.4-.9-10.4-2.6-15M4.8 23.2c-1.7 4.6-2.6 9.7-2.6 15 0 6.7 1.5 13 4 18.3"/><path fill="#393536" d="M5.6 23.5l-3.5-1.2S0 27.4-.1 29.7c0 0 .1.7.3 1.1.3.4 2 2.5 2 2.5l2.3-8.1 1.1-1.7zM56.5 23.5l3.5-1.2s2.1 5.1 2.2 7.4c0 0-.1.7-.3 1.1-.3.4-2 2.5-2 2.5l-2.3-8.1-1.1-1.7zM3.724 57.928l1.227-.674.675 1.227-1.227.675zM57.871 59.23l-1.225-.674.674-1.227 1.226.673zM4.2 49.21l3-.78 1.913 7.355-3 .78z"/><path fill="#4F4C4D" d="M4.648 51.032l3-.778.603 2.323-3 .778z"/><path fill="#706D6E" d="M4.805 51.5l3-.777.277 1.064-3 .78z"/><path fill="#706D6E" d="M16 57c.1.5-.2 1.1-.7 1.2l-4.5 1.2c-.5.1-1.1-.2-1.2-.7l-3.4-13c-.1-.5.2-1.1.7-1.2l4.5-1.2c.5-.1 1.1.2 1.2.7L16 57z"/><g><defs><path id="m" d="M6.5 48.5h2.3v7.4H6.5z"/></defs><clipPath id="n"><use xlink:href="#m" overflow="visible"/></clipPath><path transform="rotate(-14.76 7.64 52.223)" clip-path="url(#n)" fill="#706D6E" d="M7.4 48.4h.5V56h-.5z"/></g><path fill="#393536" d="M56.052 56.54l-3-.782 1.914-7.355 3 .78z"/><path fill="#4F4C4D" d="M56.85 53.377l-3-.778.6-2.324 3.002.777z"/><path fill="#706D6E" d="M57.08 52.637l-3-.78.275-1.064 3 .78z"/><path fill="#706D6E" d="M46.1 57c-.1.5.2 1.1.7 1.2l4.5 1.2c.5.1 1.1-.2 1.2-.7l3.4-13c.1-.5-.2-1.1-.7-1.2l-4.5-1.2c-.5-.1-1.1.2-1.2.7l-3.4 13z"/><g><defs><path id="o" d="M53.3 48.5h2.3v7.4h-2.3z"/></defs><clipPath id="p"><use xlink:href="#o" overflow="visible"/></clipPath><path transform="rotate(-165.24 54.482 52.223)" clip-path="url(#p)" fill="#706D6E" d="M54.2 48.4h.5V56h-.5z"/></g></svg>