<svg xmlns="http://www.w3.org/2000/svg" xmlns:xlink="http://www.w3.org/1999/xlink" width="50.6" height="70.1" viewBox="0 0 50.6 70.1"><path fill="#8B765F" d="M0 0h50.6v70.1H0z"/><path fill="#72583C" d="M2 2.3h46.4v65.9H2z"/><defs><path id="a" d="M1.9 1.9h46.4v65.9H1.9z"/></defs><clipPath id="b"><use xlink:href="#a" overflow="visible"/></clipPath><path clip-path="url(#b)" fill="#72583C" d="M1.9 67.8h46.4V1.9"/><defs><path id="c" d="M1.9 1.9h46.4v65.9H1.9z"/></defs><clipPath id="d"><use xlink:href="#c" overflow="visible"/></clipPath><path clip-path="url(#d)" fill="#72583C" d="M48.3 1.9H1.9v65.9"/><path fill="#F3EFD9" d="M4.7 64.2V5.7L25 35"/><path fill="#F8F5E8" d="M4.7 5.7h40.7L25 35"/><path fill="#FAF9F0" d="M45.4 5.7v58.5L25 35"/><path fill="#F8F5E8" d="M25 35l20.4 29.2H4.7"/><defs><path id="e" d="M4.7 5.7h20.4v58.5H4.7z"/></defs><clipPath id="f"><use xlink:href="#e" overflow="visible"/></clipPath><path clip-path="url(#f)" fill="#F3EFD9" d="M4.7 64.2V5.7L25 35"/><defs><path id="g" d="M4.7 5.7h40.8V35H4.7z"/></defs><clipPath id="h"><use xlink:href="#g" overflow="visible"/></clipPath><path clip-path="url(#h)" fill="#F8F5E8" d="M4.7 5.7h40.7L25 35"/><defs><path id="i" d="M25 5.7h20.4v58.5H25z"/></defs><clipPath id="j"><use xlink:href="#i" overflow="visible"/></clipPath><path clip-path="url(#j)" fill="#FAF9F0" d="M45.4 5.7v58.5L25 35"/><g><defs><path id="k" d="M4.7 35h40.8v29.2H4.7z"/></defs><clipPath id="l"><use xlink:href="#k" overflow="visible"/></clipPath><path clip-path="url(#l)" fill="#F8F5E8" d="M25 35l20.4 29.2H4.7"/></g><path fill="#FFF" d="M40.7 12.9c0-.2-.2-.4-.4-.4H9.9c-.2 0-.4.2-.4.4v44.3c0 .2.2.4.4.4h30.3c.2 0 .4-.2.4-.4V12.9z"/><path fill="#B69C5B" d="M40.2 57.2H9.9v-.4l-.7 1c.2.2.4.3.7.3h30.3c.5 0 .9-.4.9-.9V12.9c0-.2-.1-.4-.2-.6l-.7 1v43.9z"/><path fill="#72583C" d="M9 12.9v44.3c0 .2.1.4.2.6l.7-1V12.9h30.3v.4l.7-1c-.2-.2-.4-.3-.7-.3H9.9c-.5 0-.9.4-.9.9"/><path fill="#DBCEAD" d="M40.2 12.5l-18.8.1H10.2c-.2 0-.4 0-.5.1-.1.1-.1.2-.1.4v6.5c0 12.5 0 25.1-.1 37.6-.1-12.6-.1-25.1-.2-37.7V13c0-.2 0-.5.2-.6.2-.2.5-.1.6-.1h11.2l18.9.2z"/><path fill="#8B765F" d="M9.9 57.6l18.8-.1h11.2c.2 0 .4 0 .5-.1.1-.1.1-.2.1-.4v-6.5c0-12.5 0-25.1.1-37.6.1 12.5.1 25.1.1 37.6V57c0 .2 0 .5-.2.6-.2.2-.4.1-.6.1H28.7l-18.8-.1z"/><g><defs><path id="m" d="M12.9 16.7h24.5v37.2H12.9z"/></defs><clipPath id="n"><use xlink:href="#m" overflow="visible"/></clipPath><path clip-path="url(#n)" fill="#E5952E" d="M8.6 10.5h32.7v43.8H8.6z"/><path clip-path="url(#n)" fill="#756F8B" d="M28.5 42.9l.2-1.8s2.6-1.7 2.7-4.1c0 0 1.1-.3 1.1-1.7S32 33 31.4 33c0 0 .1-6.9-6.2-6.9C19 26.1 19 33 19 33c-.6 0-1.2.8-1.2 2.3S19 37 19 37c.1 2.4 2.7 4.1 2.7 4.1l.2 1.8c-9.2 0-10.5 11.5-10.5 11.5H39c0-.1-1.3-11.5-10.5-11.5"/><path clip-path="url(#n)" fill="none" stroke="#473F65" stroke-width="1.052" stroke-miterlimit="10" d="M28.5 42.9l.2-1.8s2.6-1.7 2.7-4.1c0 0 1.1-.3 1.1-1.7S32 33 31.4 33c0 0 .1-6.9-6.2-6.9C19 26.1 19 33 19 33c-.6 0-1.2.8-1.2 2.3S19 37 19 37c.1 2.4 2.7 4.1 2.7 4.1l.2 1.8c-9.2 0-10.5 11.5-10.5 11.5H39c0-.1-1.3-11.5-10.5-11.5z"/></g><path fill="#D0D3D0" d="M37.5 16.7v37.2H12.9V16.7h24.6zm-.3 36.9V17h-24v36.6h24z"/><g><defs><path id="o" d="M12.9 16.7h24.5v37.2H12.9z"/></defs><clipPath id="p"><use xlink:href="#o" overflow="visible"/></clipPath><path clip-path="url(#p)" fill="#D0D3D0" d="M37.2 17h-24v36.6l-.3.3V16.7h24.6"/></g></svg>