<svg xmlns="http://www.w3.org/2000/svg" xmlns:xlink="http://www.w3.org/1999/xlink" width="31.5" height="57.2" viewBox="0 0 31.5 57.2"><path fill="#E5952E" d="M31.4 11.6c-.3-1.9-.4-3.2-.4-4.3V1.7H.5v5.6c0 1.1 0 2.4-.4 4.3-.3 1.9.2 5.6.5 6.2.4.6 1.2 3.8 1.2 3.8s2 29.4 2.1 30.3c.1.9 0 1.3.9 3.1s11 2.3 11 2.3 10.1-.5 11-2.3c.9-1.8.8-2.2.9-3.1s2.1-30.3 2.1-30.3.8-3.2 1.2-3.8c.2-.6.7-4.3.4-6.2"/><g opacity=".4"><defs><path id="a" d="M0 1.7h31.5v55.5H0z"/></defs><clipPath id="b"><use xlink:href="#a" overflow="visible"/></clipPath><g clip-path="url(#b)"><defs><path id="c" d="M0 1.7h31.5v55.5H0z"/></defs><clipPath id="d"><use xlink:href="#c" overflow="visible"/></clipPath><path clip-path="url(#d)" fill="#E5952E" d="M31.4 11.6c-.3-1.9-.4-3.2-.4-4.3V1.7H.5v5.6c0 1.1 0 2.4-.4 4.3-.3 1.9.2 5.6.5 6.2.4.6 1.2 3.8 1.2 3.8s2 29.4 2.1 30.3c.1.9 0 1.3.9 3.1s11 2.3 11 2.3 10.1-.5 11-2.3c.9-1.8.8-2.2.9-3.1s2.1-30.3 2.1-30.3.8-3.2 1.2-3.8c.2-.6.7-4.3.4-6.2"/></g><g clip-path="url(#b)"><defs><path id="e" d="M1 1.8h29.5v55.5H1z"/></defs><clipPath id="f"><use xlink:href="#e" overflow="visible"/></clipPath><path clip-path="url(#f)" fill="#E7A142" d="M1.5 1.8v5.6c0 1.1 0 2.4-.4 4.3-.3 1.9.2 5.6.5 6.2.4.6 1.2 3.8 1.2 3.8s2 29.4 2.1 30.3c.1.9 0 1.2.9 3.1.8 1.7 9.3 2.2 10 2.2.7-.1 9.2-.6 10-2.2.9-1.8.8-2.2.9-3.1.1-.9 2.1-30.3 2.1-30.3s.8-3.2 1.2-3.8c.4-.6.9-4.3.5-6.2-.4-1.9-.5-3.3-.5-4.3V1.8H1.5z"/></g><g clip-path="url(#b)"><defs><path id="g" d="M2 1.8h27.4v55.4H2z"/></defs><clipPath id="h"><use xlink:href="#g" overflow="visible"/></clipPath><path clip-path="url(#h)" fill="#E8AD55" d="M2.5 1.8v5.6c0 1.1 0 2.4-.3 4.3s.2 5.6.5 6.2c.3.6 1.1 3.8 1.1 3.8s2 29.4 2 30.3c.1.9 0 1.2.8 3.1.7 1.5 7.6 2 9.1 2.2 1.4-.2 8.4-.7 9.1-2.2.8-1.8.7-2.2.8-3.1.1-.9 2-30.3 2-30.3s.8-3.2 1.1-3.8c.3-.6.8-4.3.5-6.2-.1-1.9-.2-3.2-.2-4.3V1.8H2.5z"/></g><g clip-path="url(#b)"><defs><path id="i" d="M3.1 1.8h25.4v55.3H3.1z"/></defs><clipPath id="j"><use xlink:href="#i" overflow="visible"/></clipPath><path clip-path="url(#j)" fill="#EAB969" d="M3.5 1.8v5.6c0 1.1 0 2.4-.3 4.3s.2 5.6.5 6.2c.3.6 1.1 3.8 1.1 3.8s1.9 29.4 2 30.3c.1.9 0 1.3.8 3.1.6 1.3 6 1.9 8.1 2.1 2.1-.2 7.5-.8 8.1-2.1.8-1.8.7-2.2.8-3.1s2-30.3 2-30.3.8-3.2 1.1-3.8c.3-.6.8-4.3.5-6.2-.2-1.9-.2-3.2-.2-4.3V1.8H3.5z"/></g><g clip-path="url(#b)"><defs><path id="k" d="M4.1 1.8h23.3v55.3H4.1z"/></defs><clipPath id="l"><use xlink:href="#k" overflow="visible"/></clipPath><path clip-path="url(#l)" fill="#ECC57C" d="M4.2 11.7c-.3 1.9.2 5.6.5 6.2.3.6 1.1 3.8 1.1 3.8s1.9 29.4 2 30.3c.1.9 0 1.2.8 3.1.5 1.1 4.3 1.7 7.2 2.1 2.8-.3 6.7-.9 7.2-2.1.8-1.8.7-2.2.8-3.1.1-.9 2-30.3 2-30.3s.8-3.2 1.1-3.8c.3-.6.8-4.3.5-6.2S27 8.5 27 7.5V1.8H4.5v5.6c0 1.1 0 2.5-.3 4.3"/></g></g><path fill="#F8F8F8" d="M26.7 52.2c-.9 1.8-11 2.3-11 2.3s-10.1-.5-11-2.3c0-.1-.7-.2-.8-.3.1.9 0 1.3.9 3.1s11 2.3 11 2.3 10.1-.5 11-2.3c.9-1.8.8-2.2.9-3.1-.2.1-.9.2-1 .3"/><path fill="#D3D2D2" d="M15.8 56.9s-5.5-.2-9.3-1c3.1 1 9.3 1.3 9.3 1.3s6.2-.3 9.3-1.3c-3.8.8-9.3 1-9.3 1"/><defs><path id="m" d="M3.9 51.3H16v3.9H3.9z"/></defs><clipPath id="n"><use xlink:href="#m" overflow="visible"/></clipPath><path clip-path="url(#n)" fill="#A7A5A6" d="M16 54.5c-2.1.1-4.1.1-6.2-.2-1-.1-2.1-.3-3.1-.6-.5-.2-1-.3-1.5-.7l-.2-.2c0-.1-.1-.1-.1-.2 0 .1 0 0 0 0h-.1c-.1 0-.2-.1-.3-.1l-.2-.1c-.1-.1-.1 0-.3-.2l.4-.1c0 .6 0 1.1.2 1.6.1.5.3 1 .5 1.5-.3-.5-.5-.9-.7-1.5-.2-.5-.3-1.1-.3-1.6l-.1-.8.4.7c-.1-.1 0 0 .1 0h.2c.1 0 .2.1.4.1 0 0 .1 0 .1.1 0 0 .1 0 .1.1l.1.1s0 .1.1.1l.2.2c.3.2.8.4 1.3.5l3 .6c2 .3 4 .5 6 .7"/><defs><path id="o" d="M22.8 51.7h4.8v3.2h-4.8z"/></defs><clipPath id="p"><use xlink:href="#o" overflow="visible"/></clipPath><path clip-path="url(#p)" fill="#A7A5A6" d="M22.8 53.7c.8-.2 1.7-.4 2.5-.7.4-.1.8-.3 1.1-.6l.2-.2c.1-.2.2-.1.3-.2.2-.1.5-.1.5-.2l.2-.1v.2c-.1.5-.1 1.1-.3 1.6-.2.5-.4 1-.7 1.5.2-.5.4-1 .5-1.5.2-.5.2-1 .2-1.6h.2c-.1.2-.2.1-.3.2l-.3.1c-.1 0-.2.1-.2.1-.1.1-.1.2-.2.3-.3.3-.8.5-1.2.6-.8.3-1.6.4-2.5.5"/><path fill="#CDCBCC" d="M10.1 55.6c.9.2 1.8.2 2.7.3.9.1 1.8.1 2.7.1.9 0 1.8 0 2.7-.1.9-.1 1.8-.1 2.7-.3-1.8.5-3.6.6-5.4.6-1.8 0-3.6-.1-5.4-.6"/><defs><path id="q" d="M5 50.7h21.4v2.2H5z"/></defs><clipPath id="r"><use xlink:href="#q" overflow="visible"/></clipPath><path clip-path="url(#r)" fill="#5A5758" d="M5 51.1c1.8.5 3.5.8 5.3 1 1.8.2 3.6.3 5.4.3 1.8 0 3.6-.2 5.4-.4 1.8-.3 3.5-.7 5.3-1.1-1.7.7-3.4 1.2-5.2 1.6-1.8.4-3.6.5-5.5.6-1.8 0-3.7-.1-5.5-.4-1.7-.5-3.5-.9-5.2-1.6"/><defs><path id="s" d="M9.2 52.6h13.1v1H9.2z"/></defs><clipPath id="t"><use xlink:href="#s" overflow="visible"/></clipPath><path clip-path="url(#t)" fill="#E9A391" d="M9.2 52.7c2.2.2 4.4.3 6.6.3 2.2 0 4.4-.2 6.6-.4-2.1.7-4.3 1-6.6 1s-4.5-.2-6.6-.9"/><path fill="#F4DCB0" d="M17.3 48.2c0 .3.2.5.5.5s.5-.2.5-.5-.2-.5-.5-.5-.5.2-.5.5M20.1 42c0 .3.2.5.5.5s.5-.2.5-.5-.2-.5-.5-.5c-.2 0-.5.3-.5.5M12 39.1c0 .3.2.5.5.5s.5-.2.5-.5-.2-.5-.5-.5-.5.2-.5.5M14.5 43.9c0 .3.2.5.5.5s.5-.2.5-.5-.2-.5-.5-.5-.5.2-.5.5M15.1 50.5c0 .3.2.5.5.5s.5-.2.5-.5-.2-.5-.5-.5c-.3-.1-.5.2-.5.5M20.1 32.6c0 .1.1.2.2.2s.2-.1.2-.2-.1-.2-.2-.2-.2.1-.2.2M14.9 40.9c0 .1.1.2.2.2s.2-.1.2-.2-.1-.2-.2-.2-.2.1-.2.2M18.2 45.5c0 .1.1.2.2.2s.2-.1.2-.2-.1-.2-.2-.2c-.2 0-.2.1-.2.2M15.1 48.2c0 .1.1.2.2.2s.2-.1.2-.2-.1-.2-.2-.2c-.2 0-.2.1-.2.2M11.8 43.6c0 .1.1.2.2.2s.2-.1.2-.2-.1-.2-.2-.2-.2 0-.2.2M13 30.2c0 .1.1.2.2.2s.2-.1.2-.2-.1-.2-.2-.2-.2 0-.2.2M16 36.7c0 .1.1.2.2.2s.2-.1.2-.2-.1-.2-.2-.2-.2.1-.2.2"/><path fill="#FDFAF3" d="M.5 6.5V.9c0-.5.4-.9.9-.9h28.8c.5 0 .9.4.9.9v5.5H.5z"/><defs><path id="u" d="M30.8 1.7h.3v5.8h-.3z"/></defs><clipPath id="v"><use xlink:href="#u" overflow="visible"/></clipPath><path clip-path="url(#v)" fill="#A7A5A6" d="M31.1 1.7v5.8c-.1-.5-.2-1-.2-1.5s0-1-.1-1.5c0-.5 0-1 .1-1.5 0-.3 0-.8.2-1.3z"/><g><defs><path id="w" d="M.5 6.4h30.6V7H.5z"/></defs><clipPath id="x"><use xlink:href="#w" overflow="visible"/></clipPath><path clip-path="url(#x)" fill="#C7BCB1" d="M.5 6.4h30.6v.1l-3.8.3-3.8.1c-2.6.1-5.2.1-7.7.1s-5.1 0-7.6-.1l-3.9-.2-3.8-.3z"/></g><g opacity=".2"><defs><path id="y" d="M1 0h29.6v.6H1z"/></defs><clipPath id="z"><use xlink:href="#y" overflow="visible"/></clipPath><path clip-path="url(#z)" fill="#A7A5A6" d="M1 0h29.6v.1l-3.7.2-3.7.1c-2.5.1-4.9.1-7.4.1S10.9.5 8.4.4L4.7.3 1 0z"/></g><path fill="#C7BCB1" d="M18.6 5.5c0-.4.4-.8.8-.8.1 0 .2 0 .3.1-.1-.2-.4-.3-.7-.3-.4 0-.8.4-.8.8 0 .3.2.6.5.7-.1-.2-.1-.4-.1-.5M24.1 3.7c0-.4.4-.8.8-.8.1 0 .2 0 .3.1-.1-.2-.4-.3-.7-.3-.4 0-.8.4-.8.8 0 .3.2.6.5.7-.1-.2-.1-.3-.1-.5M6.2 3c0-.4.4-.8.8-.8.1 0 .2 0 .3.1-.1-.2-.3-.3-.6-.3-.5 0-.8.3-.8.7 0 .3.2.6.5.7-.1-.1-.2-.2-.2-.4M13.1 3.4c0-.3.2-.5.5-.5.1 0 .1 0 .2.1-.1-.1-.2-.2-.4-.2-.3 0-.5.2-.5.5 0 .2.1.4.3.4 0-.1-.1-.2-.1-.3M22.2 5.3c0-.3.2-.5.5-.5.1 0 .1 0 .2.1-.1-.1-.2-.2-.4-.2-.3 0-.5.2-.5.5 0 .2.1.4.3.4 0-.1-.1-.2-.1-.3M4.2 5.1c0-.3.2-.5.5-.5.1 0 .1 0 .2.1-.1-.2-.2-.3-.4-.3-.3 0-.5.2-.5.5 0 .2.1.4.3.4-.1 0-.1-.1-.1-.2M28.5 3.8c0-.1.1-.3.3-.3h.1c0-.1-.1-.1-.2-.1s-.3.1-.3.3c0 .1.1.2.2.2-.1 0-.1-.1-.1-.1"/></svg>