<svg xmlns="http://www.w3.org/2000/svg" xmlns:xlink="http://www.w3.org/1999/xlink" width="67.1" height="38.4" viewBox="0 0 67.1 38.4"><path fill="#C78962" d="M31 13.1l-2.1 2.1c-2.3 2.4-4 5-7.9 3.1-2.6-1.3-1.2-6.1-2.9-7.7h-15c-2.4 7.5-6 18.6 1.1 24.6 7.8 6.6 17.1 1.7 23.1-4.6 3.2-3.7 6.4-7.6 9.6-11.3-.6-1.2-2-2.5-3.5-4.2-1-1.2-1.9-1.7-2.4-2"/><path fill="#231F20" d="M46.2 9.3c2.7-2.6 5.6-4.9 9.3-6.1 2.2-.7 9.7.2 11.1-1.2C69.2-.6 62 0 61 0c-3.7 0-7.4-.2-11.1.9C42.6 3 36.3 7.9 31 13.1c.6.2 1.4.8 2.4 2 1.5 1.7 2.9 3 3.5 4.2 3-3.4 6-6.8 9.3-10"/><defs><path id="a" d="M16.6 10.6h16.6v11H16.6z"/></defs><clipPath id="b"><use xlink:href="#a" overflow="visible"/></clipPath><path clip-path="url(#b)" fill="#C78962" d="M31.1 13.1L29 15.2c-2.3 2.4-4 5-7.9 3.1-2.6-1.3-1.2-6.1-2.9-7.7h-1.7c.8.9 1.4 2 1.5 3.1 0 .9 0 1.9.1 2.9v.1c0 .5.4 3.4 4.3 4.7 2.4.5 6 0 10.8-6.7-.9-.9-1.6-1.3-2.1-1.6"/><g opacity=".3"><defs><path id="c" d="M0 10.6h23.5v27.8H0z"/></defs><clipPath id="d"><use xlink:href="#c" overflow="visible"/></clipPath><path clip-path="url(#d)" fill="#C78962" d="M5.8 28.3c-1.7-4.6.8-13 2.5-17.7H3.1c-2.4 7.5-6 18.6 1.1 24.6 6.3 5.4 13.7 3.2 19.4-1.2-8.1 3.9-15.3 1-17.8-5.7"/></g><path fill="#72583C" d="M18.2 10.6c0 .7-3.4 1.3-7.5 1.3s-7.5-.6-7.5-1.3c0-.7 3.4-1.3 7.5-1.3s7.5.6 7.5 1.3"/><defs><path id="e" d="M4.6 9.7h12.5v1.5H4.6z"/></defs><clipPath id="f"><use xlink:href="#e" overflow="visible"/></clipPath><path clip-path="url(#f)" fill="#72583C" d="M17.1 10.4c0 .4-2.8.8-6.3.8s-6.3-.3-6.3-.8 2.8-.8 6.3-.8c3.5.1 6.3.4 6.3.8"/><path fill="#231F20" d="M17.1 10.6c0 .4-2.8.8-6.3.8s-6.3-.3-6.3-.8c0-.4 2.8-.8 6.3-.8s6.3.4 6.3.8"/><g opacity=".3"><defs><path id="g" d="M30.9 1.2h32.4v18H30.9z"/></defs><clipPath id="h"><use xlink:href="#g" overflow="visible"/></clipPath><path clip-path="url(#h)" fill="#676465" d="M30.9 19.1c1.8-2.7 3.9-5.2 6.2-7.5 1.1-1.2 2.3-2.2 3.5-3.3 1.2-1.1 2.4-2.1 3.8-3 1.4-.9 2.9-1.5 4.5-2.1 1.6-.6 3.1-1.2 4.7-1.5 1.6-.3 3.2-.5 4.9-.5 1.6 0 3.3.1 4.9.4v.1c-1.6.3-3.2.4-4.8.6l-4.7.5c-1.6.1-3.2.3-4.7.8s-2.9 1.3-4.1 2.3l-6.8 6.8c-2.3 2.2-4.7 4.4-7.2 6.5l-.2-.1z"/></g><g><defs><path id="i" d="M2.2 15.2h28.7v21H2.2z"/></defs><clipPath id="j"><use xlink:href="#i" overflow="visible"/></clipPath><path clip-path="url(#j)" fill="#D8AE93" d="M15.6 16.3c-.3-.5-.9-.6-1.4-.4-.5.1-1 .4-1.4.7-.9.6-1.7 1.3-2.2 2.2-.5.9-.7 2-.9 3-.1 1-.2 2.1-.3 3.2-.1 2.1 0 4.2.7 6.2s2.8 3.1 3.8 5c-.6-.9-1.4-1.6-2.1-2.3-.8-.7-1.5-1.6-1.9-2.6-.7-2-.9-4.2-.8-6.3.1-1.1.2-2.1.3-3.2.2-1.1.4-2.1.9-3.1s1.3-1.7 2.2-2.3c.5-.3.9-.5 1.5-.6.8-.1 1.4 0 1.6.5M9.1 16.9c-.8.8-1.5 1.8-1.9 2.9-.4 1.1-.7 2.2-.7 3.3 0 1.1.1 2.3.2 3.4l.5 3.4c-.5-2.3-1.1-4.5-1-6.9 0-1.2.3-2.3.8-3.4.4-1 1.2-2 2.1-2.7M3.7 15.2c-.5 1.7-.8 3.5-1 5.3-.2 1.8-.3 3.6-.2 5.4.1 1.8.3 3.6.9 5.3.6 1.6 1.8 3.2 3.6 3.7-.9-.2-1.7-.7-2.3-1.4-.6-.7-1.1-1.5-1.4-2.3-.7-1.7-.9-3.5-1-5.3-.1-1.8.1-3.6.3-5.4.1-1.8.5-3.6 1.1-5.3M16.8 22.3c-.4.1-.8.4-.9.9-.1.4 0 .9.2 1.3.3.8.8 1.5 1.5 2.1.7.5 1.6.7 2.4.6.9-.1 1.7-.3 2.5-.5 1.7-.5 3.1-1.5 4.4-2.6 1.3-1.2 2.5-2.4 3.9-3.5-1.4 1.1-2.5 2.4-3.8 3.6-1.3 1.2-2.8 2.2-4.5 2.8-.9.2-1.7.4-2.6.5-.9.1-1.8-.1-2.5-.7s-1.2-1.3-1.5-2.2c-.1-.4-.2-.9-.1-1.3.2-.6.6-.9 1-1"/><path clip-path="url(#j)" fill="#D8AE93" d="M29.1 25.4c-1.3 1.4-2.5 2.8-4 4-1.5 1.2-3.2 2.2-5.1 2.5-1.9.2-3.9-.3-5.4-1.5-.7-.6-1.3-1.4-1.7-2.3-.4-.9-.5-1.9-.3-2.8-.2 1.9.7 3.8 2.2 4.9 1.5 1.2 3.4 1.7 5.2 1.4 1.9-.2 3.5-1.2 5-2.4 1.4-1.1 2.7-2.5 4.1-3.8M15.7 19.1c-.3.1-.6.2-.8.3-.3.2-.5.3-.7.5l-.6.6c-.2.2-.4.5-.5.8.1-.6.5-1.2 1-1.6.2-.2.5-.4.8-.5.2 0 .5-.1.8-.1M19.5 23.9c.4.2.9.2 1.3.2s.9-.1 1.3-.2.9-.2 1.3-.4.8-.4 1.1-.7c-.5.8-1.4 1.2-2.3 1.4-.5.1-.9.2-1.4.1-.4 0-.9-.2-1.3-.4"/></g><path fill="#D8AE93" d="M18.7 20.4c.4.6 1 .9 1.6 1.3.3.2.6.4.8.5.1.1.3.2.4.2l.2.1.2.1c.5.2 1.2.3 1.8.3.7 0 1.3 0 2.1-.1-.5.6-1.2 1-2 1.2-.8.2-1.6.2-2.4 0l-.3-.1-.2-.1c-.2-.1-.4-.2-.6-.4-.3-.3-.6-.5-.8-.8-.2-.3-.5-.6-.6-1-.2-.4-.3-.9-.2-1.2"/></svg>