<svg xmlns="http://www.w3.org/2000/svg" xmlns:xlink="http://www.w3.org/1999/xlink" width="52.5" height="76.3" viewBox="0 0 52.5 76.3"><path fill="#E9E9E9" d="M12.9 41.3v5.9l7.9 27.7s.4 1.4 1.5 1.4c.7 0 1.3-1 1.7-1.9h-.5l-1.4-20.3h2.3V41.3H12.9z"/><path fill="#A82526" d="M23.5 74.4h.5c.2-.4.3-.7.3-.9l.1-2.8V54.1h-2.3l1.4 20.3zM12.4 40.9s.2.5.6.5c.3 0 5.2.9 10.4 1.2 0 0 1.2.2 1.2-.5 0 0 .5-1.1 1.5-1.1s-2-1.1-2-1.1l-11.7 1z"/><path fill="#E9E9E9" d="M12.9 35v-5.9l7.9-27.7S21.2 0 22.3 0c.7 0 1.3 1 1.7 1.9h-.5l-1.4 20.3h2.3V35H12.9z"/><path fill="#A82526" d="M23.5 1.9h.5c.2.4.3.7.3.9l.1 2.8v16.6h-2.3l1.4-20.3zM12.4 35.4s.2-.5.6-.5c.3 0 5.2-.9 10.4-1.2 0 0 1.2-.2 1.2.5 0 0 .5 1.1 1.5 1.1s-2 1.1-2 1.1l-11.7-1z"/><path fill="#E9E9E9" d="M1.6 36.6C.3 37.3 0 37.7 0 38v.4c0 .2.3.7 1.6 1.3 2 1 9.4 1.5 9.4 1.5h16.3c4.1 0 7.8 0 11.1-.8s10.8-1.3 12.5-1.5c1.6-.2 1.7-.7 1.7-.7s-.1-.6-1.7-.7c-1.6-.2-9.1-.7-12.5-1.5-3.3-.8-7-.8-11.1-.8H11c0-.1-7.4.4-9.4 1.4"/><path fill="#E9E9E9" d="M47.9 47.6s.6 1 1.9 1.1v-8.8c0-.4.4-.4.4-.4h1.2c-.1-.2-.1-.4-.1-.6v-.7l-7.4 1.1 4 8.3z"/><path fill="#A82526" d="M49.8 39.9v8.8h.1c1.5 0 2.2-1.4 2.2-1.8v-6s0-.2-.1-.4c0-.1-.1-.2-.2-.2-.2-.2-.5-.4-.6-.8H50c.1 0-.2 0-.2.4"/><path fill="#E9E9E9" d="M47.9 28.7s.6-1 1.9-1.1v8.8c0 .4.4.4.4.4h1.2c-.1.2-.1.4-.1.6v.7L43.8 37l4.1-8.3z"/><path fill="#A82526" d="M49.8 36.4v-8.8h.1c1.5 0 2.2 1.4 2.2 1.8v6s0 .2-.1.4c0 .1-.1.2-.2.2-.2.2-.5.4-.6.8H50c.1 0-.2 0-.2-.4M32.2 38.3c.4 0 14.3.1 14.3.1l4.4-.2s.3-.1.3-.2H31.7c0 .2.2.3.5.3"/><path fill="#A82526" d="M32.2 38c-.4 0-.5.2-.5.2h19.5c.1-.2-.2-.2-.2-.2l-4.4-.2s-14 .1-14.4.2"/><path fill="#918F90" d="M8.6 43.6s-.7 0-.7.8v1.8c0 .8.7.8.7.8s.2 0 1.2.1v-3.6c-1 .1-1.2.1-1.2.1M13.5 43.4c-1.2 0-2.2.1-2.9.1v3.7c.7 0 1.6.1 2.9.1 4.3.2 5.6-1.9 5.6-1.9s-1.3-2.1-5.6-2"/><g opacity=".3"><defs><path id="a" d="M7.9 43.6h2V45h-2z"/></defs><clipPath id="b"><use xlink:href="#a" overflow="visible"/></clipPath><path clip-path="url(#b)" fill="#918F90" d="M8.6 44.7h1.2v-1.1c-1.1 0-1.2.1-1.2.1s-.7 0-.7.8v.5c0-.3.7-.3.7-.3"/></g><g opacity=".3"><defs><path id="c" d="M7.9 45.7h2v1.4h-2z"/></defs><clipPath id="d"><use xlink:href="#c" overflow="visible"/></clipPath><path clip-path="url(#d)" fill="#918F90" d="M9.9 46.1H8.7s-.7 0-.7-.3v.6c0 .8.7.8.7.8s.2 0 1.2.1v-1.2z"/></g><g opacity=".3"><defs><path id="e" d="M10.6 43.4H19v1.9h-8.4z"/></defs><clipPath id="f"><use xlink:href="#e" overflow="visible"/></clipPath><path clip-path="url(#f)" fill="#918F90" d="M13.5 43.4c-1.2 0-2.2.1-2.9.1v1.1h2.9c4.3-.1 5.6.7 5.6.7s-1.3-2-5.6-1.9"/></g><g opacity=".3"><defs><path id="g" d="M10.6 45.4H19v1.9h-8.4z"/></defs><clipPath id="h"><use xlink:href="#g" overflow="visible"/></clipPath><path clip-path="url(#h)" fill="#918F90" d="M13.5 46.1h-2.9v1.1c.7 0 1.6.1 2.9.1 4.3.2 5.6-1.9 5.6-1.9s-1.3.8-5.6.7"/></g><path fill="#231F20" d="M9.9 43.7v3.4h.7v-3.4h-.7"/><path fill="#DEDDDE" d="M10.3 45.7s1.7 0 1.7-.4h-1.8c0 .1 0 .2.1.4"/><path fill="#706D6E" d="M10.3 45s1.7 0 1.7.4h-1.8s0-.1.1-.4"/><path fill="#656263" d="M6.9 45.2V45.5c0 .3.3.3.3.3h.7v-.9h-.6s-.4.1-.4.3"/><path fill="#918F90" d="M8.8 29.2s-.7 0-.7.8v1.8c0 .8.7.8.7.8s.2 0 1.2.1v-3.6c-1 .1-1.2.1-1.2.1M13.7 29c-1.2 0-2.2.1-2.9.1v3.7c.7 0 1.6.1 2.9.1 4.3.2 5.6-1.9 5.6-1.9s-1.3-2.2-5.6-2"/><defs><path id="i" d="M7.9 46.1h2v1.1h-2z"/></defs><clipPath id="j"><use xlink:href="#i" overflow="visible"/></clipPath><path clip-path="url(#j)" fill="#918F90" d="M7.9 46.1v.2c0 .8.7.8.7.8s.2 0 1.2.1v-.4H8.6s-.7 0-.7-.7"/><defs><path id="k" d="M7.9 43.6h2v1.1h-2z"/></defs><clipPath id="l"><use xlink:href="#k" overflow="visible"/></clipPath><path clip-path="url(#l)" fill="#918F90" d="M8.6 43.6s-.7 0-.7.8v.2c0-.6.7-.6.7-.6h1.2v-.4H8.6"/><defs><path id="m" d="M10.6 45.4H19v1.9h-8.4z"/></defs><clipPath id="n"><use xlink:href="#m" overflow="visible"/></clipPath><path clip-path="url(#n)" fill="#918F90" d="M13.5 46.8c-1.2 0-2.2-.1-2.9-.1v.5c.7 0 1.6.1 2.9.1 4.3.2 5.6-1.9 5.6-1.9s-1.3 1.5-5.6 1.4"/><defs><path id="o" d="M10.6 43.4H19v1.9h-8.4z"/></defs><clipPath id="p"><use xlink:href="#o" overflow="visible"/></clipPath><path clip-path="url(#p)" fill="#918F90" d="M13.5 43.4c-1.2 0-2.2.1-2.9.1v.5c.7 0 1.6 0 2.9-.1 4.3-.1 5.6 1.4 5.6 1.4s-1.3-2-5.6-1.9"/><defs><path id="q" d="M8.1 31.7h2v1.1h-2z"/></defs><clipPath id="r"><use xlink:href="#q" overflow="visible"/></clipPath><path clip-path="url(#r)" fill="#918F90" d="M8.1 31.7v.2c0 .8.7.8.7.8s.2 0 1.2.1v-.4H8.8s-.7-.1-.7-.7"/><defs><path id="s" d="M8.1 29.1h2v1.1h-2z"/></defs><clipPath id="t"><use xlink:href="#s" overflow="visible"/></clipPath><path clip-path="url(#t)" fill="#918F90" d="M8.8 29.2s-.7 0-.7.8v.2c0-.6.7-.6.7-.6H10v-.4H8.8"/><defs><path id="u" d="M10.8 30.9h8.4v1.9h-8.4z"/></defs><clipPath id="v"><use xlink:href="#u" overflow="visible"/></clipPath><path clip-path="url(#v)" fill="#918F90" d="M13.7 32.3c-1.2 0-2.2-.1-2.9-.1v.5c.7 0 1.6.1 2.9.1 4.3.2 5.6-1.9 5.6-1.9s-1.3 1.5-5.6 1.4"/><defs><path id="w" d="M10.8 29h8.4v1.9h-8.4z"/></defs><clipPath id="x"><use xlink:href="#w" overflow="visible"/></clipPath><path clip-path="url(#x)" fill="#918F90" d="M13.7 29c-1.2 0-2.2.1-2.9.1v.5c.7 0 1.6 0 2.9-.1 4.3-.1 5.6 1.4 5.6 1.4S18 28.8 13.7 29"/><path fill="#231F20" d="M10.1 29.2v3.4h.7v-3.4h-.7"/><path fill="#DEDDDE" d="M10.5 31.3s1.7 0 1.7-.4h-1.8s0 .1.1.4"/><path fill="#706D6E" d="M10.5 30.6s1.7 0 1.7.4h-1.8c0-.1 0-.2.1-.4"/><path fill="#656263" d="M7.1 30.8V31.1c0 .3.3.3.3.3h.7v-.9h-.6s-.4 0-.4.3"/><path fill="#E9EAE9" d="M6.9 41.9c.1 0 .2 1.6.2 3.5s-.1 3.5-.2 3.5-.2-1.6-.2-3.5c.1-2 .1-3.5.2-3.5M7.1 27.4c.1 0 .2 1.6.2 3.5s-.1 3.5-.2 3.5-.2-1.6-.2-3.5.1-3.5.2-3.5"/><path fill="#B52126" d="M6.5 45.3v.1c0 .1.1.1.1.1h.3v-.4h-.2c0 .1-.2.1-.2.2M6.7 30.9v.1c0 .1.1.1.1.1h.3v-.4h-.2s-.2.1-.2.2"/><g opacity=".5"><defs><path id="y" d="M6.7 30.5h1.4v.9H6.7z"/></defs><clipPath id="z"><use xlink:href="#y" overflow="visible"/></clipPath><g clip-path="url(#z)"><defs><path id="A" d="M7.1 31.1h1v.3h-1z"/></defs><clipPath id="B"><use xlink:href="#A" overflow="visible"/></clipPath><path clip-path="url(#B)" fill="#656263" d="M7.1 31.1c0 .3.3.3.3.3h.7v-.1h-.6s-.4 0-.4-.2"/></g><g clip-path="url(#z)"><defs><path id="C" d="M7.1 30.5h1v.3h-1z"/></defs><clipPath id="D"><use xlink:href="#C" overflow="visible"/></clipPath><path clip-path="url(#D)" fill="#656263" d="M7.1 30.8c0-.2.3-.2.3-.2h.7v-.1h-.6s-.4 0-.4.3"/></g><g clip-path="url(#z)"><defs><path id="E" d="M6.7 31h.4v.1h-.4z"/></defs><clipPath id="F"><use xlink:href="#E" overflow="visible"/></clipPath><path clip-path="url(#F)" fill="#B52126" d="M6.9 31.1s-.1 0-.1-.1c-.1.1.1.1.1.1h.3-.3z"/></g><g clip-path="url(#z)"><defs><path id="G" d="M6.7 30.7h.4v.1h-.4z"/></defs><clipPath id="H"><use xlink:href="#G" overflow="visible"/></clipPath><path clip-path="url(#H)" fill="#B52126" d="M6.9 30.8h.3-.3s-.1 0-.1.1c-.1-.1.1-.1.1-.1"/></g><g opacity=".5" clip-path="url(#z)"><defs><path id="I" d="M7.1 30.5h1v.3h-1z"/></defs><clipPath id="J"><use xlink:href="#I" overflow="visible"/></clipPath><path clip-path="url(#J)" fill="#656263" d="M7.1 30.8c0-.1.3-.1.3-.1h.7v-.1h-.6c0-.1-.4 0-.4.2"/></g><g opacity=".5" clip-path="url(#z)"><defs><path id="K" d="M7.1 31h1v.3h-1z"/></defs><clipPath id="L"><use xlink:href="#K" overflow="visible"/></clipPath><path clip-path="url(#L)" fill="#656263" d="M7.1 31c0 .3.3.3.3.3h.7v-.1h-.6s-.4-.1-.4-.2"/></g><g opacity=".5" clip-path="url(#z)"><defs><path id="M" d="M6.7 30.8h.4v.1h-.4z"/></defs><clipPath id="N"><use xlink:href="#M" overflow="visible"/></clipPath><path clip-path="url(#N)" fill="#B52126" d="M6.9 30.8h.3-.3c0-.1-.1 0-.1 0h.1"/></g><g opacity=".5" clip-path="url(#z)"><defs><path id="O" d="M6.7 31h.4v.1h-.4z"/></defs><clipPath id="P"><use xlink:href="#O" overflow="visible"/></clipPath><path clip-path="url(#P)" fill="#B52126" d="M6.9 31.1h.3-.3c0-.1-.2-.1-.2-.1 0 .1.2.1.2.1"/></g></g><g opacity=".5"><defs><path id="Q" d="M6.5 44.9h1.4v.9H6.5z"/></defs><clipPath id="R"><use xlink:href="#Q" overflow="visible"/></clipPath><g clip-path="url(#R)"><defs><path id="S" d="M6.9 45.5h1v.3h-1z"/></defs><clipPath id="T"><use xlink:href="#S" overflow="visible"/></clipPath><path clip-path="url(#T)" fill="#656263" d="M6.9 45.5c0 .3.3.3.3.3h.7v-.1h-.6c0 .1-.4 0-.4-.2"/></g><g clip-path="url(#R)"><defs><path id="U" d="M6.9 44.9h1v.3h-1z"/></defs><clipPath id="V"><use xlink:href="#U" overflow="visible"/></clipPath><path clip-path="url(#V)" fill="#656263" d="M6.9 45.2c0-.2.4-.2.4-.2H8v-.1h-.7s-.4.1-.4.3"/></g><g clip-path="url(#R)"><defs><path id="W" d="M6.5 45.4h.4v.1h-.4z"/></defs><clipPath id="X"><use xlink:href="#W" overflow="visible"/></clipPath><path clip-path="url(#X)" fill="#B52126" d="M6.7 45.5s-.1 0-.1-.1c-.1.1.1.2.1.1H7h-.3z"/></g><g clip-path="url(#R)"><defs><path id="Y" d="M6.5 45.2h.4v.1h-.4z"/></defs><clipPath id="Z"><use xlink:href="#Y" overflow="visible"/></clipPath><path clip-path="url(#Z)" fill="#B52126" d="M6.7 45.2H7h-.3s-.1 0-.1.1c-.1-.1.1-.1.1-.1"/></g><g opacity=".5" clip-path="url(#R)"><defs><path id="aa" d="M6.9 45h1v.3h-1z"/></defs><clipPath id="ab"><use xlink:href="#aa" overflow="visible"/></clipPath><path clip-path="url(#ab)" fill="#656263" d="M6.9 45.2c0-.1.3-.1.3-.1h.7V45h-.6s-.4 0-.4.2"/></g><g opacity=".5" clip-path="url(#R)"><defs><path id="ac" d="M6.9 45.5h1v.3h-1z"/></defs><clipPath id="ad"><use xlink:href="#ac" overflow="visible"/></clipPath><path clip-path="url(#ad)" fill="#656263" d="M6.9 45.5c0 .3.3.3.3.3h.7v-.1h-.6c0-.1-.4-.1-.4-.2"/></g><g opacity=".5" clip-path="url(#R)"><defs><path id="ae" d="M6.5 45.2h.4v.1h-.4z"/></defs><clipPath id="af"><use xlink:href="#ae" overflow="visible"/></clipPath><path clip-path="url(#af)" fill="#B52126" d="M6.7 45.3H7h-.3c0-.1-.1 0-.1 0h.1"/></g><g opacity=".5" clip-path="url(#R)"><defs><path id="ag" d="M6.5 45.4h.4v.1h-.4z"/></defs><clipPath id="ah"><use xlink:href="#ag" overflow="visible"/></clipPath><path clip-path="url(#ah)" fill="#B52126" d="M6.7 45.5H7h-.3c0-.1-.1-.1-.1-.1-.1.1.1.1.1.1"/></g></g><path fill="#B52126" d="M2.2 36.4c-.2.1-.5.2-.6.3-1.3.6-1.6 1-1.6 1.3v.4c0 .2.3.7 1.6 1.3l.6.3v-3.6z"/><defs><path id="ai" d="M0 38.2h52.5v3H0z"/></defs><clipPath id="aj"><use xlink:href="#ai" overflow="visible"/></clipPath><path clip-path="url(#aj)" fill="#D3D2D2" d="M50.8 38.7c-1.6.1-9.1.5-12.5 1.1-3.3.6-7 .6-11.1.6H11s-7.4-.4-9.4-1.1c-1.3-.5-1.6-.8-1.6-1v.1c0 .2.3.7 1.6 1.3 2 1 9.4 1.5 9.4 1.5h16.3c4.1 0 7.8 0 11.1-.8s10.8-1.3 12.5-1.5c1.6-.2 1.7-.7 1.7-.7s-.2.4-1.8.5"/><g><defs><path id="ak" d="M0 35.1h52.5v3H0z"/></defs><clipPath id="al"><use xlink:href="#ak" overflow="visible"/></clipPath><path clip-path="url(#al)" fill="#D3D2D2" d="M1.6 36.6C.3 37.3 0 37.7 0 38v.1c0-.2.3-.5 1.6-1 2-.8 9.4-1.1 9.4-1.1h16.3c4.1 0 7.8 0 11.1.6s10.8 1 12.5 1.1c1.6.1 1.7.6 1.7.6s-.1-.6-1.7-.7c-1.6-.2-9.1-.7-12.5-1.5-3.3-.8-7-.8-11.1-.8H11c0-.2-7.4.3-9.4 1.3"/></g><path fill="#608DA2" d="M3.5 38.3H4l.8.7-.3.3M4.6 39.4l.3-.2.6.5-.3.3M5.4 40.1l.2-.2h.8l.2.2-.2.2M3.5 38H4l.8-.7-.3-.3M4.6 36.9l.3.2.6-.5-.3-.3M5.4 36.2l.2.2h.8l.2-.2-.2-.2"/><g opacity=".3"><defs><path id="am" d="M3.9 38.3h.9v.9h-.9z"/></defs><clipPath id="an"><use xlink:href="#am" overflow="visible"/></clipPath><path clip-path="url(#an)" fill="#231F20" d="M4.8 39l-.8-.7h-.1l.8.8"/></g><g opacity=".3"><defs><path id="ao" d="M5 39.3h.5v.5H5z"/></defs><clipPath id="ap"><use xlink:href="#ao" overflow="visible"/></clipPath><path clip-path="url(#ap)" fill="#231F20" d="M5.3 39.8l.2-.1-.4-.4-.1.1"/></g><g opacity=".3"><defs><path id="aq" d="M5.7 39.9h.8v.4h-.8z"/></defs><clipPath id="ar"><use xlink:href="#aq" overflow="visible"/></clipPath><path clip-path="url(#ar)" fill="#231F20" d="M6.5 40.2l.1-.1-.2-.2h-.5l-.2.2"/></g><g opacity=".3"><defs><path id="as" d="M3.9 37.2h.9v.9h-.9z"/></defs><clipPath id="at"><use xlink:href="#as" overflow="visible"/></clipPath><path clip-path="url(#at)" fill="#231F20" d="M4.7 37.2l-.8.8H4l.8-.7"/></g><g opacity=".3"><defs><path id="au" d="M5 36.5h.5v.5H5z"/></defs><clipPath id="av"><use xlink:href="#au" overflow="visible"/></clipPath><path clip-path="url(#av)" fill="#231F20" d="M5.3 36.5l-.3.4.1.1.4-.4"/></g><g opacity=".3"><defs><path id="aw" d="M5.7 36.1h.8v.4h-.8z"/></defs><clipPath id="ax"><use xlink:href="#aw" overflow="visible"/></clipPath><path clip-path="url(#ax)" fill="#231F20" d="M6.5 36.1l-.8.1.2.2h.5l.2-.2"/></g><g opacity=".3"><defs><path id="ay" d="M8.1 29.1h2v1.4h-2z"/></defs><clipPath id="az"><use xlink:href="#ay" overflow="visible"/></clipPath><path clip-path="url(#az)" fill="#918F90" d="M8.8 30.3H10v-1.1c-1.1 0-1.2.1-1.2.1s-.7 0-.7.8v.6c0-.5.7-.4.7-.4"/></g><g opacity=".3"><defs><path id="aA" d="M8.1 31.3h2v1.4h-2z"/></defs><clipPath id="aB"><use xlink:href="#aA" overflow="visible"/></clipPath><path clip-path="url(#aB)" fill="#918F90" d="M10.1 31.6H8.9s-.7 0-.7-.3v.6c0 .8.7.8.7.8s.2 0 1.2.1v-1.2z"/></g><g opacity=".3"><defs><path id="aC" d="M10.8 29h8.4v1.9h-8.4z"/></defs><clipPath id="aD"><use xlink:href="#aC" overflow="visible"/></clipPath><path clip-path="url(#aD)" fill="#918F90" d="M13.7 29c-1.2 0-2.2.1-2.9.1v1.1h2.9c4.3-.1 5.6.7 5.6.7S18 28.8 13.7 29"/></g><g opacity=".3"><defs><path id="aE" d="M10.8 30.9h8.4v1.9h-8.4z"/></defs><clipPath id="aF"><use xlink:href="#aE" overflow="visible"/></clipPath><path clip-path="url(#aF)" fill="#918F90" d="M13.7 31.7h-2.9v1.1c.7 0 1.6.1 2.9.1 4.3.2 5.6-1.9 5.6-1.9s-1.3.7-5.6.7"/></g></svg>