<svg xmlns="http://www.w3.org/2000/svg" xmlns:xlink="http://www.w3.org/1999/xlink" width="40.8" height="64" viewBox="0 0 40.8 64"><path fill="#EBD467" d="M3.33 33.552l3.932.742-.408 2.162-3.93-.742z"/><defs><path id="a" d="M2.9 35.1h3.9v1.2H2.9z"/></defs><clipPath id="b"><use xlink:href="#a" overflow="visible"/></clipPath><path clip-path="url(#b)" fill="#EBD467" d="M6.8 36.1c-.5-.4-1.2-.8-1.9-.9-.7-.1-1.3-.1-2 .1v.3l3.9.7v-.2z"/><path fill="#872237" d="M11.8 19.2s-.3-.3-1.3-.3-1.6.2-2.4 1.2-3.6 4.6-4.2 6.5c-.6 2-1.4 5.3-1.5 6.4-.2 1.2 0 1.3 0 1.3l5.8.9S9 30 9.3 29.1c.3-.9 1.1-3.2 1.1-3.2l1.4-6.7z"/><path fill="#EBD467" d="M28.4 13.9c0 1.4-1.2 2.6-2.6 2.6H15.1c-1.4 0-2.6-1.2-2.6-2.6V5.7c0-1.4 1.2-2.6 2.6-2.6h10.7c1.4 0 2.6 1.2 2.6 2.6v8.2zM16.6 0h7.6v3.1h-7.6z"/><path fill="#231F20" d="M19.2 9.6c0 .5-.4.8-.8.8s-.8-.4-.8-.8.4-.8.8-.8.8.3.8.8M23.3 9.6c0 .5-.4.8-.8.8s-.8-.4-.8-.8.4-.8.8-.8.8.3.8.8"/><path fill="none" stroke="#231F20" stroke-width=".926" stroke-linecap="round" stroke-miterlimit="10" d="M18.4 12.1s1.9 1.7 4.1 0"/><path fill="#EBD467" d="M15.4 16.5h10.1v1.7H15.4z"/><defs><path id="c" d="M15.4 16.5h10.1v.4H15.4z"/></defs><clipPath id="d"><use xlink:href="#c" overflow="visible"/></clipPath><path clip-path="url(#d)" fill="#EBD467" d="M15.4 16.5h10.1c-.8.1-1.7.2-2.5.2-.8.1-1.7 0-2.5.1-.8 0-1.7 0-2.5-.1-.9 0-1.8-.1-2.6-.2z"/><defs><path id="e" d="M16.6 2.8h7.6v.4h-7.6z"/></defs><clipPath id="f"><use xlink:href="#e" overflow="visible"/></clipPath><path clip-path="url(#f)" fill="#EBD467" d="M16.6 3.1c.6-.1 1.3-.2 1.9-.2.6 0 1.3 0 1.9-.1.6 0 1.3 0 1.9.1.6.1 1.3.1 1.9.2h-7.6z"/><path fill="#872237" d="M31.5 31.6c-.6-2-2.1-11.8-2.1-11.8s-.8-1.6-2.4-1.6H13.8c-1.6 0-2.4 1.6-2.4 1.6s-1.6 9.9-2.1 11.8c-.6 2-.9 6.1-.9 6.1h24s-.3-4.2-.9-6.1"/><defs><path id="g" d="M9.8 19.2h2v8.7h-2z"/></defs><clipPath id="h"><use xlink:href="#g" overflow="visible"/></clipPath><path clip-path="url(#h)" fill="#872237" d="M10.4 26.1l1.4-6.8s-.1-.1-.2-.1c-.3.3-.4.6-.4.6s-.7 4.5-1.4 8.1l.6-1.8"/><defs><path id="i" d="M13.8 18.1h13.1v.4H13.8z"/></defs><clipPath id="j"><use xlink:href="#i" overflow="visible"/></clipPath><path clip-path="url(#j)" fill="#872237" d="M13.8 18.1h13.1c-1.1.1-2.2.2-3.3.2-1.1.1-2.2 0-3.3.1-1.1 0-2.2 0-3.3-.1-1 .1-2.1 0-3.2-.2z"/><path fill="#EBD467" d="M4.9 35.4c-2.2-.4-4.4 1-4.9 3.1-.3 1.3.2 2.5 1 3.4v-.3l.6-2.8c.3-1.4 1.6-2.3 3-2 1.4.3 2.3 1.6 2 3L6 42.6c0 .1-.1.2-.1.3 1.1-.5 2-1.5 2.2-2.8.5-2.2-.9-4.3-3.2-4.7M37.906 35.638l-3.93.74-.41-2.16 3.932-.742z"/><defs><path id="k" d="M34 35.1h3.9v1.2H34z"/></defs><clipPath id="l"><use xlink:href="#k" overflow="visible"/></clipPath><path clip-path="url(#l)" fill="#EBD467" d="M34 36.1c.5-.4 1.2-.8 1.9-.9.7-.1 1.3-.1 2 .1v.3l-3.9.6v-.1z"/><path fill="#872237" d="M29 19.2s.3-.3 1.3-.3 1.6.2 2.4 1.2 3.6 4.6 4.2 6.5c.6 2 1.4 5.3 1.5 6.4.2 1.2 0 1.3 0 1.3l-5.8.9s-.8-5.2-1.1-6.1c-.3-.9-1.1-3.2-1.1-3.2L29 19.2z"/><defs><path id="m" d="M29 19.2h2v8.7h-2z"/></defs><clipPath id="n"><use xlink:href="#m" overflow="visible"/></clipPath><path clip-path="url(#n)" fill="#872237" d="M30.4 26.1L29 19.4s.1-.1.2-.1c.3.3.4.6.4.6s.7 4.5 1.4 8.1c-.3-1-.6-1.9-.6-1.9"/><path fill="#EBD467" d="M35.9 35.4c2.2-.4 4.4 1 4.9 3.1.3 1.3-.2 2.5-1 3.4v-.3l-.6-2.8c-.3-1.4-1.6-2.3-3-2-1.4.3-2.3 1.6-2 3l.6 2.8c0 .1.1.2.1.3-1.1-.5-2-1.5-2.2-2.8-.6-2.2.9-4.3 3.2-4.7"/><path fill="#00587E" d="M9.3 37.7h22.1v3.8H9.3z"/><path fill="#00587E" d="M21.6 48.8c0 .7-.5 1.2-1.2 1.2s-1.2-.5-1.2-1.2v-7.6c0-.7.5-1.2 1.2-1.2s1.2.5 1.2 1.2v7.6z"/><g><defs><path id="o" d="M19.2 41.4h2.4v.4h-2.4z"/></defs><clipPath id="p"><use xlink:href="#o" overflow="visible"/></clipPath><path clip-path="url(#p)" fill="#00587E" d="M19.2 41.4h2.4v.4h-2.4z"/></g><path fill="#00587E" d="M9.3 41.4h9.9v8.8H9.3z"/><g><defs><path id="q" d="M9.3 41.3h9.9v.2H9.3z"/></defs><clipPath id="r"><use xlink:href="#q" overflow="visible"/></clipPath><path clip-path="url(#r)" fill="#00587E" d="M9.3 41.3h9.9v.2H9.3z"/></g><path fill="#00587E" d="M21.6 41.4h9.9v8.8h-9.9z"/><g><defs><path id="s" d="M21.6 41.3h9.9v.2h-9.9z"/></defs><clipPath id="t"><use xlink:href="#s" overflow="visible"/></clipPath><path clip-path="url(#t)" fill="#00587E" d="M21.6 41.3h9.9v.2h-9.9z"/></g><g><defs><path id="u" d="M19.2 41.9h.2V49h-.2z"/></defs><clipPath id="v"><use xlink:href="#u" overflow="visible"/></clipPath><path clip-path="url(#v)" fill="#00587E" d="M19.2 41.9h.2V49h-.2z"/></g><path fill="#00587E" d="M9 50.3h10.7v8.5H9zM8.4 58.8h11.8V64H8.4z"/><g><defs><path id="w" d="M9 50.3h10.7v.2H9z"/></defs><clipPath id="x"><use xlink:href="#w" overflow="visible"/></clipPath><path clip-path="url(#x)" fill="#00587E" d="M9 50.3h10.7v.2H9z"/></g><g><defs><path id="y" d="M8.4 58.8h11.8v.2H8.4z"/></defs><clipPath id="z"><use xlink:href="#y" overflow="visible"/></clipPath><path clip-path="url(#z)" fill="#00587E" d="M8.4 58.8h11.8v.2H8.4z"/></g><path fill="#00587E" d="M21.3 50.3H32v8.5H21.3zM20.7 58.8h11.8V64H20.7z"/><g><defs><path id="A" d="M21.2 50.3h10.7v.2H21.2z"/></defs><clipPath id="B"><use xlink:href="#A" overflow="visible"/></clipPath><path clip-path="url(#B)" fill="#00587E" d="M21.3 50.3H32v.2H21.3z"/></g><g><defs><path id="C" d="M20.7 58.8h11.8v.2H20.7z"/></defs><clipPath id="D"><use xlink:href="#C" overflow="visible"/></clipPath><path clip-path="url(#D)" fill="#00587E" d="M20.7 58.8h11.8v.2H20.7z"/></g></svg>