<svg xmlns="http://www.w3.org/2000/svg" xmlns:xlink="http://www.w3.org/1999/xlink" width="63.3" height="41.4" viewBox="0 0 63.3 41.4"><path fill="#EBD467" d="M49.4 20.7c0 9.9-8 17.9-17.9 17.9-9.9 0-17.9-8-17.9-17.9 0-9.9 8-17.9 17.9-17.9 9.8 0 17.9 8 17.9 17.9"/><path fill="#DFAE57" d="M50.7 20.5c0 10.6-8.6 19.2-19.2 19.2s-19.2-8.6-19.2-19.2S20.9 1.3 31.5 1.3s19.2 8.6 19.2 19.2"/><defs><path id="a" d="M13.2 2h36.7v36.9H13.2z"/></defs><clipPath id="b"><use xlink:href="#a" overflow="visible"/></clipPath><path clip-path="url(#b)" fill="#EBD467" d="M44.3 33.4c-3.3 3.4-8 5.4-12.9 5.5-4.8.1-9.7-1.9-13.1-5.3-1.7-1.7-3-3.8-3.9-6-.9-2.2-1.3-4.6-1.3-7 0-4.8 1.9-9.5 5.3-13 3.3-3.5 8.1-5.5 13-5.5C36.3 2 41.1 4 44.5 7.5c3.5 3.4 5.4 8.3 5.3 13.1 0 4.8-2.1 9.4-5.5 12.8m0-.1c1.7-1.7 3-3.7 3.9-5.9.9-2.2 1.3-4.6 1.2-6.9-.1-4.7-2-9.3-5.3-12.5-3.3-3.3-7.9-5.2-12.5-5.2-4.7 0-9.3 1.8-12.7 5.1-3.4 3.3-5.4 7.9-5.3 12.7 0 4.7 2.1 9.4 5.4 12.6 3.3 3.3 7.9 5.2 12.6 5.3 2.3.1 4.7-.4 6.9-1.2 2.1-1 4.1-2.3 5.8-4"/><path fill="#231F20" d="M21.7 32.3"/><path fill="#444142" d="M21.8 32.3c-.1 0-.1 0 0 0-.1 0-.1 0 0 0z"/><path fill="#EBD467" d="M48.5 20.7c0 9.4-7.6 17-17 17s-17-7.6-17-17 7.6-17 17-17 17 7.6 17 17"/><defs><path id="c" d="M14.5 3.7h34v17h-34z"/></defs><clipPath id="d"><use xlink:href="#c" overflow="visible"/></clipPath><path clip-path="url(#d)" fill="#E5952E" d="M31.5 3.7c-9.4 0-17 7.6-17 17h34c0-9.4-7.7-17-17-17"/><path fill="#F4F4F4" d="M47.6 20.7c0 8.9-7.2 16.1-16.1 16.1-8.9 0-16.1-7.2-16.1-16.1 0-8.9 7.2-16.1 16.1-16.1 8.9 0 16.1 7.2 16.1 16.1"/><path fill="#EEB975" d="M14.8 20.7c.1 4.4 1.9 8.6 5 11.6s7.3 4.8 11.6 4.8S40 35.4 43 32.3c3.1-3 4.9-7.3 5-11.6 0 2.2-.4 4.4-1.2 6.4-.8 2-2 3.9-3.6 5.5-3.1 3.2-7.5 5-11.9 5s-8.8-1.8-11.9-5c-1.5-1.6-2.8-3.4-3.6-5.5-.6-2-1-4.2-1-6.4"/><path fill="#F9F2D1" d="M31.5 36c-8.4 0-15.2-6.8-15.2-15.2h-.8c0 8.9 7.2 16.1 16.1 16.1 8.9 0 16.1-7.2 16.1-16.1h-.8c-.2 8.3-7 15.2-15.4 15.2"/><path fill="#E9E9E9" d="M31.5 4.6c-8.9 0-16.1 7.2-16.1 16.1h.8c0-8.4 6.8-15.2 15.2-15.2 8.4 0 15.2 6.8 15.2 15.2h.8c.2-8.9-7-16.1-15.9-16.1"/><path fill="#231F20" d="M31.7 6h.3v.7h-.3zM24.364 7.912l.26-.15.348.61-.26.148zM18.907 13.193l.147-.26.61.343-.148.26zM16.8 20.2h.7v.3h-.7zM18.657 27.845l-.15-.26.605-.35.15.26zM23.947 33.28l-.26-.147.345-.608.26.148zM30.9 34.7h.3v.7h-.3zM38.52 33.536l-.26.15-.35-.604.26-.15zM44.027 28.218l-.15.26-.606-.352.152-.26zM45.4 21h.7v.3h-.7zM44.318 13.556l.15.26-.607.35-.15-.26zM38.974 8.16l.26.15-.35.605-.26-.15z"/><path fill="none" stroke="#231F20" stroke-width=".101" stroke-miterlimit="10" d="M31.9 6v.6M30.3 6.1l.1.5M28.8 6.3l.1.5M27.3 6.6l.2.6M25.9 7.2l.2.5M24.5 7.8l.3.5M23.2 8.6l.3.5M22 9.5l.3.5M20.9 10.6l.4.4M19.9 11.8l.4.3M19 13l.5.3M18.3 14.4l.5.2M17.7 15.8l.5.2M17.2 17.3l.6.1M17 18.8h.5M16.8 20.3h.6M16.9 21.8h.5M17.1 23.3l.5-.1M17.4 24.8l.6-.1M17.9 26.3l.6-.3M18.6 27.7l.5-.3M19.4 29l.5-.4M20.3 30.2l.5-.4M21.4 31.3l.4-.4M22.5 32.3l.4-.5M23.8 33.2l.3-.5M25.2 33.9l.2-.5M26.6 34.5l.1-.6M28 34.9l.2-.6M29.5 35.2l.1-.6M31.1 35.3v-.6M32.6 35.3l-.1-.6M34.1 35.1l-.1-.6M35.6 34.7l-.2-.5M37.1 34.2l-.3-.5M38.4 33.5l-.2-.5M39.7 32.7l-.3-.4M41 31.8l-.4-.4M42.1 30.8l-.4-.4M43.1 29.6l-.5-.3M43.9 28.3l-.5-.3M44.7 27l-.5-.2M45.3 25.6l-.6-.2M45.7 24.1l-.6-.1M46 22.6l-.6-.1M46.1 21.1h-.6M46.1 19.5l-.6.1M45.9 18l-.6.1M45.5 16.5l-.5.2M45 15.1l-.5.2M44.3 13.7l-.5.3M43.5 12.4l-.4.3M42.6 11.2l-.4.4M41.5 10.1l-.3.4M40.4 9.1l-.4.4M39.1 8.2l-.3.5M37.8 7.5l-.3.5M36.4 6.9l-.2.5M34.9 6.4l-.1.6M33.4 6.2l-.1.5"/><path fill="#231F20" d="M32.8 11.1H32v-.5h-.5v.5h-.9v1h.4v.7h1.5v-.7h.3M29.3 13.3h4.9v1.2h-4.9zM32.2 20.6c0 .4-.3.7-.7.7-.4 0-.7-.3-.7-.7 0-.4.3-.7.7-.7.4 0 .7.3.7.7"/><path fill="none" stroke="#231F20" stroke-width=".15" stroke-miterlimit="10" d="M33.1 19L22.8 29.5"/><path fill="#231F20" d="M33.3 18.1l-.3 1 1-.3"/><path fill="none" stroke="#231F20" stroke-width=".424" stroke-miterlimit="10" d="M31.5 20.6l-6.1-4.4"/><path fill="#231F20" d="M27.1 17l-3.7-2.1 3.3 2.7"/><path fill="#777475" d="M31.3 20.6c0 .1.1.3.3.3s.3-.1.3-.3c0-.1-.1-.3-.3-.3s-.3.2-.3.3"/><path fill="none" stroke="#231F20" stroke-width=".318" stroke-miterlimit="10" d="M31.8 20.5l8.5-5.8"/><path fill="#231F20" d="M38.5 16.6l4.4-3.7-5.1 2.9M29.3 27.8h4.5v.8h-4.5z"/><path fill="#656263" d="M31 7.1h1.3v2.3H31zM24.32 9.082l1.125-.65 1.152 1.99-1.125.65zM19.514 14.272l.65-1.126 1.99 1.15-.65 1.126zM17.9 19.7h2.3v1.4h-2.3zM19.932 27.776l-.652-1.124 1.99-1.153.652 1.123zM24.99 32.6l-1.124-.652 1.152-1.99 1.125.65zM30.5 31.9h1.4v2.3h-1.4zM38.595 32.157l-1.126.65-1.15-1.992 1.125-.65zM43.464 27.028l-.7 1.21-1.992-1.15.7-1.212zM42.8 20.2h2.3v1.4h-2.3zM43.003 13.497l.65 1.126-1.994 1.15-.65-1.127zM37.882 8.61l1.213.7-1.148 1.992-1.213-.7z"/><g opacity=".5"><defs><path id="e" d="M13.6 2.5h35.8v35.8H13.6z"/></defs><clipPath id="f"><use xlink:href="#e" overflow="visible"/></clipPath><path clip-path="url(#f)" fill="#E5952E" d="M44.1 33.1c-3.3 3.3-7.9 5.3-12.6 5.3-2.3 0-4.7-.4-6.9-1.3s-4.2-2.2-5.8-3.9c-3.3-3.3-5.2-8-5.2-12.7 0-4.7 1.9-9.3 5.2-12.7 3.3-3.3 7.9-5.3 12.7-5.3 4.7 0 9.4 1.9 12.7 5.2 3.4 3.3 5.3 8 5.2 12.7 0 4.7-2 9.4-5.3 12.7M44 33c3.3-3.3 5.2-7.9 5.1-12.6 0-4.6-2-9.2-5.2-12.5-3.3-3.3-7.8-5.2-12.5-5.2-4.6 0-9.2 1.8-12.5 5.1-3.3 3.3-5.3 7.9-5.2 12.5 0 4.7 1.9 9.3 5.2 12.5 3.3 3.3 7.9 5.2 12.5 5.2 4.7.2 9.3-1.7 12.6-5"/></g><defs><path id="g" d="M18.5 2.3h31.4v31.3H18.5z"/></defs><clipPath id="h"><use xlink:href="#g" overflow="visible"/></clipPath><path clip-path="url(#h)" fill="#5E411A" d="M18.5 7.9c3.2-3.6 8-5.7 12.9-5.6 4.9.2 9.5 2.2 13 5.5s5.6 8.1 5.6 13-2.1 9.7-5.7 12.9l-.1-.1c3.2-3.5 5-8.2 4.9-12.8 0-2.3-.4-4.6-1.3-6.8s-2.1-4.2-3.7-5.9c-1.6-1.7-3.6-3.1-5.8-4-2.2-.9-4.6-1.2-6.9-1.2-4.7.1-9.3 1.9-12.9 5z"/><defs><path id="i" d="M19 3.2h29.7v29.7H19z"/></defs><clipPath id="j"><use xlink:href="#i" overflow="visible"/></clipPath><path clip-path="url(#j)" fill="#5E411A" d="M19 8.4c3.1-3.3 7.7-5.2 12.3-5.2 4.6 0 9.1 1.9 12.3 5.1 3.3 3.2 5.2 7.7 5.2 12.3 0 4.6-1.9 9.1-5.2 12.3 1.6-1.6 2.8-3.6 3.7-5.6.8-2.1 1.3-4.3 1.3-6.6 0-4.5-1.8-9-5-12.2C42 6.9 40.1 5.6 38 4.7c-2.1-.8-4.4-1.3-6.6-1.3-2.2 0-4.5.5-6.6 1.3-2.2.9-4.1 2.2-5.8 3.7z"/><defs><path id="k" d="M47.9 19.1h1.4v3.5h-1.4z"/></defs><clipPath id="l"><use xlink:href="#k" overflow="visible"/></clipPath><path clip-path="url(#l)" fill="#A5957F" d="M49.3 22.4c0 .1-.1.1-.1.1h-1.1c-.1 0-.2-.1-.2-.1v-3.2c0-.1.1-.1.2-.1h1.1c.1 0 .1.1.1.1v3.2z"/><defs><path id="m" d="M47.8 19h1.6v3.7h-1.6z"/></defs><clipPath id="n"><use xlink:href="#m" overflow="visible"/></clipPath><path clip-path="url(#n)" fill="#EBD467" d="M49.3 22.4c0 .1 0 .1-.1.2h-1c-.1 0-.3 0-.4-.2v-1.7V19c.1-.2.3-.2.4-.2h1c.1 0 .1.1.1.2 0-.2-.1-.2-.3-.2h-.4c-.3 0-.6-.1-.7.1v3.4c0 .1.2.1.3.1h.8c.2.2.3.2.3 0"/><path fill="#EBD467" d="M50.6 22.2c0 .1-.1.2-.2.2h-2.2c-.1 0-.2-.1-.2-.2v-2.7c0-.1.1-.1.2-.1h2.2c.1 0 .2.1.2.1v2.7z"/><path fill="#5E411A" d="M50.6 22.1v-2.5c-.2.3-.3.7-.3 1.3 0 .5.1.9.3 1.2"/><path fill="#EBD467" d="M53.2 19.2s-.1-.4-.4-.4c0 0-.3 0-.3.3 0 0-.2-.3-.9-.3 0 0-1.1.1-1.1 2s1.1 2 1.1 2c.7 0 .9-.3.9-.3 0 .3.3.3.3.3.3 0 .4-.4.4-.4.2.1.5.1.5.1v-3.4s-.3 0-.5.1"/><defs><path id="o" d="M52.4 19.5h.2V22h-.2z"/></defs><clipPath id="p"><use xlink:href="#o" overflow="visible"/></clipPath><path clip-path="url(#p)" fill="#5E411A" d="M52.4 19.5c.1.4 0 .8.1 1.3 0 .4 0 .8-.1 1.3-.1-.4 0-.8-.1-1.3.1-.4.1-.8.1-1.3"/><defs><path id="q" d="M52.3 19.5h.2V22h-.2z"/></defs><clipPath id="r"><use xlink:href="#q" overflow="visible"/></clipPath><path clip-path="url(#r)" fill="#5E411A" d="M52.4 19.5c.1.4 0 .8.1 1.3 0 .4 0 .8-.1 1.3-.1-.4 0-.8-.1-1.3 0-.4 0-.8.1-1.3"/><defs><path id="s" d="M51 19.2h.7v3.1H51z"/></defs><clipPath id="t"><use xlink:href="#s" overflow="visible"/></clipPath><path clip-path="url(#t)" fill="#5E411A" d="M51.6 19.2v3.2c-.4-.4-.7-1-.7-1.6.1-.6.3-1.2.7-1.6"/><defs><path id="u" d="M51.1 19.2h.7v3.1h-.7z"/></defs><clipPath id="v"><use xlink:href="#u" overflow="visible"/></clipPath><path clip-path="url(#v)" fill="#5E411A" d="M51.8 19.2v3.2c-.4-.4-.7-1-.7-1.6 0-.6.2-1.2.7-1.6"/><path fill="#5E411A" d="M49.5 21.1c0 .1-.1.1-.1.1h-.9c-.1 0-.1-.1-.1-.1v-.4c0-.1.1-.1.1-.1h.9c.1 0 .1.1.1.1v.4z"/><path fill="#DFAE57" d="M58.4 28.5c-2.4 0-3.5-1.9-3.8-2.9-.1-.5.1-.9.6-1 .4-.1.9.1 1 .6.1.2.5 1.6 2.2 1.6s3.2-2.9 3.2-5.9c0-3-1.6-5.9-3.2-5.9s-2.1 1.5-2.2 1.6c-.1.4-.6.7-1 .6-.4-.1-.7-.6-.6-1 .3-1 1.4-2.9 3.8-2.9 2.9 0 4.9 3.9 4.9 7.6 0 3.6-2 7.6-4.9 7.6"/><path fill="#DFAE57" d="M56.2 25.2c0 .1-.1.2-.2.2h-1.2c-.1 0-.2-.1-.2-.2v-8.8c0-.1.1-.1.2-.1H56c.1 0 .2.1.2.1v8.8z"/><defs><path id="w" d="M55.4 16.3h.3v9.1h-.3z"/></defs><clipPath id="x"><use xlink:href="#w" overflow="visible"/></clipPath><path clip-path="url(#x)" fill="#DFAE57" d="M55.7 25.2v.2h-.2v-9-.1h.2v8.9z"/><path fill="#EBD467" d="M56.4 17.1c-.2-.4-.6-.4-.6-.4h-.7c-.5 0-.4.1-.9.3-.5.3-.9 2.1-.9 2.1V22.5s.4 1.8.9 2.1c.5.3.4.3.9.3h.7s.4 0 .6-.4c.2-.4.4-.5.4-.6v-6.2s-.1-.2-.4-.6"/><g><defs><path id="y" d="M54.7 17.5h.9v6.7h-.9z"/></defs><clipPath id="z"><use xlink:href="#y" overflow="visible"/></clipPath><path clip-path="url(#z)" fill="#EBD467" d="M55.6 17.5c0 1.2-.1 2.3-.1 3.4s.1 2.2.1 3.4c-.7-1-.9-2.2-.9-3.4 0-.6.1-1.2.2-1.8.1-.6.3-1.2.7-1.6"/></g><g><defs><path id="A" d="M53.9 17.5h1.6v6.7h-1.6z"/></defs><clipPath id="B"><use xlink:href="#A" overflow="visible"/></clipPath><path clip-path="url(#B)" fill="#EBD467" d="M55.6 17.5c-.3 1.2-.4 2.3-.4 3.4s.2 2.1.4 3.4c-1-.8-1.6-2.1-1.6-3.4 0-.7.1-1.3.4-1.9.2-.7.6-1.2 1.2-1.5"/></g><g><defs><path id="C" d="M55 17.6h1v6.7h-1z"/></defs><clipPath id="D"><use xlink:href="#C" overflow="visible"/></clipPath><path clip-path="url(#D)" fill="#DFAE57" d="M56 17.6c-.3 1.1-.4 2.2-.4 3.4 0 1.1.2 2.2.4 3.4-.7-1-1-2.2-1-3.4 0-1.2.3-2.5 1-3.4"/></g><g><defs><path id="E" d="M55.4 13.8h7.3v14.1h-7.3z"/></defs><clipPath id="F"><use xlink:href="#E" overflow="visible"/></clipPath><path clip-path="url(#F)" fill="#DFAE57" d="M55.4 25.3c.4.9 1.2 1.7 2.2 1.9 1 .3 1.9-.1 2.6-.8 1.5-1.4 2.2-3.6 2-5.6-.1-2-.8-4.1-2.1-5.6-.7-.7-1.6-1.1-2.6-.8-.9.2-1.8 1-2.2 1.9h-.1c.2-1 1-2 2.1-2.4.5-.2 1.1-.2 1.7-.1.6.1 1.1.5 1.5.9.8.8 1.3 1.8 1.6 2.9.3 1 .4 2.1.4 3.2-.1 1.1-.3 2.1-.6 3.1s-.7 2-1.5 2.9c-.4.4-.9.8-1.4.9-.6.2-1.2.1-1.7 0-.9-.3-1.7-1.3-1.9-2.4z"/></g><g><defs><path id="G" d="M55.3 14.1h1.5v2.1h-1.5z"/></defs><clipPath id="H"><use xlink:href="#G" overflow="visible"/></clipPath><path clip-path="url(#H)" fill="#DFAE57" d="M55.3 16.2c0-.5.1-.9.4-1.4.1-.2.3-.4.5-.5.2-.1.4-.2.7-.2-.4.3-.6.6-.8 1-.4.3-.5.7-.8 1.1"/></g><g><defs><path id="I" d="M54.7 16.3h1.4v.2h-1.4z"/></defs><clipPath id="J"><use xlink:href="#I" overflow="visible"/></clipPath><path clip-path="url(#J)" fill="#DFAE57" d="M56.1 16.4s0 .1 0 0l-1.3.1s-.1 0-.1-.1c0 0 0-.1.1-.1l1.3.1c0-.1 0-.1 0 0"/></g><g><defs><path id="K" d="M54.7 25.2h1.4v.2h-1.4z"/></defs><clipPath id="L"><use xlink:href="#K" overflow="visible"/></clipPath><path clip-path="url(#L)" fill="#DFAE57" d="M56.1 25.3s0 .1 0 0l-1.3.1s-.1 0-.1-.1 0-.1.1-.1l1.3.1c0-.1 0-.1 0 0"/></g><g><defs><path id="M" d="M60.2 20.8h2.7v6.3h-2.7z"/></defs><clipPath id="N"><use xlink:href="#M" overflow="visible"/></clipPath><path clip-path="url(#N)" fill="#DFAE57" d="M62.9 20.8c.1 1.2-.1 2.4-.5 3.6-.2.6-.4 1.1-.8 1.6-.3.5-.8.9-1.4 1.1 1-.7 1.5-1.8 1.9-2.9.4-1 .6-2.2.8-3.4"/></g><g><defs><path id="O" d="M55.4 21.2h7.2v7h-7.2z"/></defs><clipPath id="P"><use xlink:href="#O" overflow="visible"/></clipPath><path clip-path="url(#P)" fill="#5E411A" d="M55.4 25.7c.5.9 1.3 1.6 2.2 1.9.4.2 1 .3 1.5.2.5-.1.9-.5 1.2-.9.6-.8 1-1.7 1.3-2.7.3-1 .6-2 .8-3h.1c.2 1.1.1 2.2-.2 3.2-.3 1-.9 2-1.7 2.7-.8.7-1.9 1.2-3.1 1-1.2-.2-2-1.3-2.1-2.4z"/></g><path fill="#A77C39" d="M7.2 41.4c3.3 0 3.7-9.3 3.7-20.7C10.9 9.3 10.5 0 7.2 0H6C2.7 0 0 9.3 0 20.7c0 11.4 2.7 20.7 6 20.7h1.2z"/><path fill="#ECC57C" d="M3.2 20.7c0 11.4 2 20.7 4.5 20.7s4.5-9.3 4.5-20.7S10.2 0 7.7 0 3.2 9.3 3.2 20.7"/><g><defs><path id="Q" d="M3.2 20.7h9.1v20.7H3.2z"/></defs><clipPath id="R"><use xlink:href="#Q" overflow="visible"/></clipPath><path clip-path="url(#R)" fill="#ECC57C" d="M7.7 41.4c2.5 0 4.5-9.3 4.5-20.7h-9c0 11.4 2 20.7 4.5 20.7"/></g><g><defs><path id="S" d="M3.2 0h9.1v20.7H3.2z"/></defs><clipPath id="T"><use xlink:href="#S" overflow="visible"/></clipPath><path clip-path="url(#T)" fill="#EBD467" d="M7.7 0C5.2 0 3.2 9.3 3.2 20.7h9.1C12.3 9.3 10.2 0 7.7 0"/></g><path fill="#DFAE57" d="M3.2 20.7c0 10.8 1.7 19.6 3.9 19.6S11 31.5 11 20.7 9.3 1.1 7.1 1.1 3.2 9.9 3.2 20.7"/><path fill="#B69C5B" d="M12.9 23.8c0 .1-.1.1-.2.1h-.8c-.1 0-.1-.1-.1-.1v-6.1c0-.1.1-.1.1-.1h.8c.1 0 .2.1.2.1v6.1z"/><path fill="#EBD467" d="M13.1 22.9c0 .1-.1.1-.2.1h-1.3c-.1 0-.1-.1-.1-.1v-.6c0-.1.1-.1.1-.1h1.3c.1 0 .2.1.2.1v.6zM13.1 21c0 .1-.1.1-.2.1h-1.3c-.1 0-.1-.1-.1-.1v-.6c0-.1.1-.1.1-.1h1.3c.1 0 .2.1.2.1v.6zM13.1 19.1c0 .1-.1.1-.1.1h-1.3c-.1 0-.2-.1-.2-.1v-.6c0-.1.1-.2.2-.2H13c.1 0 .1.1.1.2v.6z"/><g><defs><path id="U" d="M12.3 22.1h.5v.9h-.5z"/></defs><clipPath id="V"><use xlink:href="#U" overflow="visible"/></clipPath><path clip-path="url(#V)" fill="#EBD467" d="M12.8 22.9v.1h-.4v-.7-.1h.4v.7z"/></g><g><defs><path id="W" d="M12.3 20.3h.5v.9h-.5z"/></defs><clipPath id="X"><use xlink:href="#W" overflow="visible"/></clipPath><path clip-path="url(#X)" fill="#EBD467" d="M12.8 21v.1h-.4v-.7-.1h.4v.7z"/></g><g><defs><path id="Y" d="M12.3 18.4h.5v.9h-.5z"/></defs><clipPath id="Z"><use xlink:href="#Y" overflow="visible"/></clipPath><path clip-path="url(#Z)" fill="#EBD467" d="M12.8 19.2v.2h-.4v-.8-.1h.4v.7z"/></g></svg>