<svg xmlns="http://www.w3.org/2000/svg" xmlns:xlink="http://www.w3.org/1999/xlink" width="25.7" height="69.9" viewBox="0 0 25.7 69.9"><path fill="#9A1C1F" d="M23.9 7.5c0 1.6-4.9 3-11 3s-11-1.3-11-3h22z"/><path fill="#A82526" d="M3.9 11.6h17.9v46.9H3.9z"/><path fill="#231F20" d="M3.7 58.5H22v1H3.7z"/><path fill="#231F20" d="M3.5 59.4h18.6v10.4H3.5z"/><path fill="#A82526" d="M22.5 10.4c0 .2-.2.5-.4.5H3.6c-.2 0-.4-.2-.4-.5 0-.2.2-.4.4-.4H22c.3 0 .5.2.5.4"/><path fill="#A82526" d="M22 10.1c0 .2-.2.4-.4.4H4.1c-.2 0-.4-.2-.4-.4s.2-.4.4-.4h17.5c.2 0 .4.2.4.4"/><path fill="#A82526" d="M21.5 9.9c0 .2-.2.4-.4.4H4.6c-.2 0-.4-.2-.4-.4s.2-.4.4-.4h16.5c.2 0 .4.1.4.4"/><path fill="#9A1C1F" d="M12.9 10.9H3.6s.2.2.2.8h18c0-.5.2-.8.2-.8h-9.1z"/><path fill="#A82526" d="M.5 7h24.6v.5H.5zM0 4.9h25.7v.7H0z"/><path fill="#A82526" d="M12.9 5.6H0L.5 7H25.2l.5-1.4"/><path fill="#C26767" d="M.5 6.9l3.1-.2 3.1-.1c2.1-.1 4.1 0 6.2-.1 2.1 0 4.1 0 6.2.1l3.1.1 3.1.2H.5z"/><path fill="#9A1C1F" d="M12.9 5.6H0l.1.4h25.5l.1-.4"/><path fill="none" stroke="#B13B3C" stroke-width=".783" stroke-linecap="round" stroke-miterlimit="10" d="M1.3 6.8V6M22.8 6v.8M24.4 6.8V6M21.1 6.8V6M19.5 6v.8M4.6 6.8V6M2.9 6v.8M9.5 6.8V6M6.2 6v.8M17.8 6.8V6M16.2 6v.8M14.5 6.8V6M12.9 6v.8M11.2 6.8V6M7.9 6v.8"/><path fill="#B13B3C" d="M0 4.9c0-2 5.7-3.7 12.8-3.7 7.1 0 12.8 1.7 12.8 3.7"/><path fill="#A82526" d="M13.6.7c0 .4-.3.7-.7.7-.4 0-.7-.3-.7-.7s.2-.7.6-.7c.4 0 .8.3.8.7"/><g opacity=".5"><defs><path id="a" d="M0 0h12.8v69.9H0z"/></defs><clipPath id="b"><use xlink:href="#a" overflow="visible"/></clipPath><path clip-path="url(#b)" fill="#9A1C1F" d="M5 59.4v-1h.1V11.6c0-.5-.2-.8-.2-.8-.2 0-.4-.2-.4-.5s.2-.3.4-.3H5c0-.2.2-.3.3-.3h.1c.1-.1.2-.2.3-.2h.1c-1.5-.5-2.5-1.2-2.5-2H2.2v-.6l-.4-1.3v-.7c0-2 4.7-3.6 10.6-3.7-.1-.1-.1-.3-.1-.5 0-.4.3-.7.6-.7-.4 0-.7.3-.7.7 0 .2.1.3.2.5C5.5 1.3 0 2.9 0 4.9v.7L.5 7v.5h1.3c0 .8 1.1 1.5 2.9 2h-.1c-.2 0-.3.1-.4.2h-.1c-.2 0-.3.1-.4.3h-.1c-.2 0-.4.2-.4.4s.2.5.4.5c0 0 .2.2.2.8v46.9h-.1v1h-.2V70h1.3V59.4H5z"/></g><path fill="#656263" d="M3.5 59.4h18.6l-2.3.2-2.3.1c-1.6.1-3.1 0-4.7.1-1.6 0-3.1 0-4.7-.1l-2.3-.1-2.3-.2z"/><g opacity=".5"><defs><path id="c" d="M12.8 0h12.8v58.5H12.8z"/></defs><clipPath id="d"><use xlink:href="#c" overflow="visible"/></clipPath><path clip-path="url(#d)" fill="#B52126" d="M22 58.5h-.2V11.6c0-.5.2-.8.2-.8.2 0 .5-.2.5-.4s-.2-.5-.5-.5c-.1-.2-.2-.3-.4-.3h-.1c-.1-.1-.2-.2-.4-.2H21c1.8-.5 2.9-1.2 2.9-2h1.3v-.5l.5-1.4v-.6c0-2-5.5-3.6-12.3-3.7.1-.1.2-.3.2-.5 0-.4-.3-.7-.7-.7.3 0 .6.3.6.7 0 .2-.1.3-.1.5C19.3 1.3 24 2.9 24 4.9v.7L23.5 7v.5h-1.1c0 .8-.9 1.5-2.5 2h.1c.1 0 .3.1.3.2h.1c.2 0 .3.1.3.3h.1c.2 0 .4.2.4.5 0 .2-.2.4-.4.4 0 0-.2.2-.2.8v46.9h.2l1.2-.1z"/></g><defs><path id="e" d="M20.7 58.5h1.4v11.4h-1.4z"/></defs><clipPath id="f"><use xlink:href="#e" overflow="visible"/></clipPath><path clip-path="url(#f)" fill="#231F20" d="M22 59.4v-.9h-1.3v.9h.2v10.5h1.2V59.4"/><g opacity=".35"><defs><path id="g" d="M0 0h12.9v69.9H0z"/></defs><clipPath id="h"><use xlink:href="#g" overflow="visible"/></clipPath><g clip-path="url(#h)"><defs><path id="i" d="M11.5 1.2h.9v.1h-.9z"/></defs><clipPath id="j"><use xlink:href="#i" overflow="visible"/></clipPath><path clip-path="url(#j)" fill="#9A1C1F" d="M11.5 1.2h.9-.9"/></g><g clip-path="url(#h)"><clipPath id="l"><use xlink:href="#k" overflow="visible"/></clipPath><path clip-path="url(#l)" fill="#9A1C1F" d="M12.8 0h-.1-.1.2"/></g><g clip-path="url(#h)"><defs><path id="m" d="M12.9 0z"/></defs></g><g clip-path="url(#h)"><defs><path id="n" d="M0 0h12.8v69.9H0z"/></defs><clipPath id="o"><use xlink:href="#n" overflow="visible"/></clipPath><path clip-path="url(#o)" fill="#9A1C1F" d="M6.4 59.4h.1v-.9h.1V11.6c0-.5-.2-.7-.2-.7-.2 0-.3-.2-.3-.5v-.2c0-.2.2-.3.3-.3h.1c0-.1.1-.2.3-.2h.1c0-.1.1-.2.3-.2-1.2-.5-2-1.2-2-2h-.9V7l-.4-1.4v-.7-.3c.3-1.8 3.5-3.2 7.6-3.4h-.6c.4 0 .9 0 1.4-.1h.2c-.1-.1-.1-.3-.1-.4V.5c0-.3.2-.5.4-.5h-.1.1c-.3 0-.6.2-.7.6v.2c0 .2.1.3.2.4C5.7 1.2.4 2.7 0 4.6v1L.5 7v.5h1.3c0 .8 1.1 1.5 2.8 2-.2 0-.3.1-.4.2h-.1c-.1 0-.3.1-.3.2h-.2c-.2 0-.4.1-.4.3v.2c0 .2.2.5.4.5 0 0 .2.2.2.7v46.8h-.1v.9h-.2v10.4h2.8l.1-10.3z"/></g><g clip-path="url(#h)"><defs><path id="p" d="M12.8 0z"/></defs><clipPath id="q"><use xlink:href="#p" overflow="visible"/></clipPath></g><g clip-path="url(#h)"><clipPath id="s"><use xlink:href="#r" overflow="visible"/></clipPath><path clip-path="url(#s)" fill="#9A1C1F" d="M12.8 0"/></g></g><g opacity=".2"><defs><path id="t" d="M12.8 0h12.8v58.5H12.8z"/></defs><clipPath id="u"><use xlink:href="#t" overflow="visible"/></clipPath><path clip-path="url(#u)" fill="#B52126" d="M25.7 4.9c0-2-5.5-3.6-12.3-3.7.1-.1.1-.2.1-.3V.8c0-.4-.3-.7-.7-.7.1 0 .2 0 .2.1h-.1c.2.1.4.4.4.7V1c0 .1 0 .2-.1.3h.2c.5 0 .9 0 1.4.1h-.6c4.3.3 7.6 1.8 7.6 3.7v.7l-.1.2-.3 1v.5h-.9c0 .8-.7 1.5-2 2 .1 0 .1 0 .2.1 0 0 0 .1.1.1h.1c.1 0 .1 0 .2.1 0 0 .1.1.1.2h.1c.1 0 .2.1.2.1.1.1.1.2.1.3 0 .2-.1.4-.3.4 0 0-.2.2-.2.7v46.8H22h-.2V11.6c0-.5.2-.7.2-.7.2 0 .4-.2.4-.4 0-.1-.1-.2-.1-.3 0-.2-.1-.2-.3-.2 0-.1-.1-.1-.1-.2-.1-.1-.2-.1-.3-.1h-.1l-.1-.1c-.1-.1-.2-.1-.3-.1 1.8-.5 2.8-1.2 2.8-2h1.3V7l.4-1 .1-.4v-.7z"/></g><defs><path id="v" d="M19.2 58.5h3v11.4h-3z"/></defs><clipPath id="w"><use xlink:href="#v" overflow="visible"/></clipPath><path clip-path="url(#w)" fill="#231F20" d="M19.2 59.4h.1v10.5h2.9V59.4H22v-.9h-2.8"/><path fill="#AC3031" d="M5 10.9h15.7v1.2H5z"/><path fill="#AC3031" d="M20.9 11.8c0 .2-.1.3-.3.3H5.1c-.2 0-.3-.1-.3-.3 0-.2.1-.3.3-.3h15.5c.2 0 .3.1.3.3"/><defs><path id="x" d="M5.1 11.4h15.6v.1H5.1z"/></defs><clipPath id="y"><use xlink:href="#x" overflow="visible"/></clipPath><path clip-path="url(#y)" fill="#A82526" d="M5.1 11.5l7.8-.1 7.8.1H5.1"/><defs><path id="z" d="M5.1 12.1h15.6v.8H5.1z"/></defs><clipPath id="A"><use xlink:href="#z" overflow="visible"/></clipPath><path clip-path="url(#A)" fill="#A82526" d="M20.7 12.1c0 .4-3.5.8-7.8.8s-7.8-.3-7.8-.8"/><path fill="#D3D2D2" d="M11.7 12.2H14v2.3h-2.3z"/><path fill="none" stroke="#231F20" stroke-width=".107" stroke-miterlimit="10" d="M11.7 12.2H14v2.3h-2.3z"/><defs><path id="B" d="M7.7 16h10.4v3.3H7.7z"/></defs><clipPath id="C"><use xlink:href="#B" overflow="visible"/></clipPath><path clip-path="url(#C)" fill="#9A1C1F" d="M12.9 16H7.7v3.3s1-1.5 2.2-1.5h5.8c1.2 0 2.2 1.5 2.2 1.5V16h-5z"/><defs><path id="D" d="M7.7 16h10.4v2.2H7.7z"/></defs><clipPath id="E"><use xlink:href="#D" overflow="visible"/></clipPath><path clip-path="url(#E)" fill="#9A1C1F" d="M12.9 16H7.7v2.2s1-1 2.2-1h5.8c1.2 0 2.2 1 2.2 1V16h-5z"/><defs><path id="F" d="M7.7 16h10.4v1.2H7.7z"/></defs><clipPath id="G"><use xlink:href="#F" overflow="visible"/></clipPath><path clip-path="url(#G)" fill="#9A1C1F" d="M12.9 16H7.7v1.2s1-.5 2.2-.5h5.8c1.2 0 2.2.5 2.2.5V16h-5z"/><path fill="none" stroke="#A93E41" stroke-width=".379" stroke-miterlimit="10" d="M7.6 15.5h10.6v4H7.6z"/><path fill="#B13B3C" d="M7 15.2h11.6v.6H7z"/><g><defs><path id="H" d="M7.6 19.7h10.5v.3H7.6z"/></defs><clipPath id="I"><use xlink:href="#H" overflow="visible"/></clipPath><path clip-path="url(#I)" fill="#9A1C1F" d="M18 19.7c0 .2-2.3.3-5.2.3-2.9 0-5.2-.2-5.2-.3"/></g><path fill="#9A1C1F" d="M7 15.8h11.6v.2H7z"/><path fill="#A43335" d="M8.7 21.7v12.2l4.1-6.1"/><g><defs><path id="J" d="M8.7 21.7h8.2v6.1H8.7z"/></defs><clipPath id="K"><use xlink:href="#J" overflow="visible"/></clipPath><path clip-path="url(#K)" fill="#9A1C1F" d="M16.9 21.7H8.7l4.1 6.1"/></g><g><defs><path id="L" d="M8.7 27.8h8.2v6.1H8.7z"/></defs><clipPath id="M"><use xlink:href="#L" overflow="visible"/></clipPath><path clip-path="url(#M)" fill="#9A1C1F" d="M8.7 33.9h8.2l-4.1-6.1"/></g><path fill="#A43335" d="M12.8 27.8l4.1 6.1V21.7"/><path fill="#FBFAF3" d="M9 22.3h7.5v11H9z"/><path fill="#9E2528" d="M21 39.4l-2.3.4v-3.5l2.3-.4"/><g><defs><path id="N" d="M19 36.1h1.8v.3H19z"/></defs><clipPath id="O"><use xlink:href="#N" overflow="visible"/></clipPath><path clip-path="url(#O)" fill="#9A1C1F" d="M19 36.5c.3-.1.6-.2.9-.2.3 0 .6-.1.9-.1l-1.8.3z"/></g><path fill="#231F20" d="M20 37.4c0-.3-.2-.5-.4-.5s-.4.2-.4.5c0 .2.1.4.2.5v.7c0 .1 0 .1.1.1s.1 0 .1-.1V38c.3-.2.4-.4.4-.6"/><g><defs><path id="P" d="M18.7 39.4H21v.4h-2.3z"/></defs><clipPath id="Q"><use xlink:href="#P" overflow="visible"/></clipPath><path clip-path="url(#Q)" fill="#9A1C1F" d="M21 39.4c0 .1-.5.3-1.1.4-.6.1-1.2.1-1.2 0"/></g><g><defs><path id="R" d="M19.3 36.7h1V39h-1z"/></defs><clipPath id="S"><use xlink:href="#R" overflow="visible"/></clipPath><path clip-path="url(#S)" fill="#9A1C1F" d="M20.2 37.4c0-.4-.2-.7-.5-.7s-.5.3-.5.7c0 .3.1.5.2.6v.9c0 .1.1.1.2.1s.1-.1.1-.1V38c.4-.1.5-.3.5-.6"/></g><g><defs><path id="T" d="M19.7 36.7h.6V39h-.6z"/></defs><clipPath id="U"><use xlink:href="#T" overflow="visible"/></clipPath><path clip-path="url(#U)" fill="#9A1C1F" d="M19.8 36.7c.2 0 .4.3.4.7 0 .3-.2.6-.4.6v.8c0 .1 0 .1-.1.1.1 0 .1-.1.1-.1V38c.2-.1.4-.3.4-.6.1-.4-.1-.7-.4-.7"/></g><g><defs><path id="V" d="M18.8 36.7h.1v2.9h-.1z"/></defs><clipPath id="W"><use xlink:href="#V" overflow="visible"/></clipPath><path clip-path="url(#W)" fill="none" stroke="#9A1C1F" stroke-width=".107" stroke-miterlimit="10" d="M18.9 36.7v2.8"/></g></svg>