<svg xmlns="http://www.w3.org/2000/svg" xmlns:xlink="http://www.w3.org/1999/xlink" width="62.5" height="53.5" viewBox="0 0 62.5 53.5"><path fill="#C78962" d="M0 .5h62.5v47.9H0z"/><path fill="#8B4D47" d="M0 48.4h62.5v5.1H0z"/><path fill="#DEDDDE" d="M3 0h56.4v43.2H3z"/><path fill="#BDBCBC" d="M3 42.8h56.4v3.5H3z"/><path fill="#7B7979" d="M3 43.5h56.4v2.2H3z"/><path fill="#444142" d="M3 43.3h56.4v.4H3z"/><path fill="#E9E9E9" d="M5.2 44.1h3.7V46H5.2z"/><path fill="#F4F4F4" d="M5.2 44.1h3.7v.7H5.2z"/><path fill="#E9E9E9" d="M40.4 44.1h3.7V46h-3.7z"/><path fill="#F4F4F4" d="M40.4 44.1h3.7v.7h-3.7z"/><path fill="#E9E9E9" d="M44.7 44.1h3.7V46h-3.7z"/><path fill="#F4F4F4" d="M44.7 44.1h3.7v.7h-3.7z"/><path fill="#E9E9E9" d="M49.4 44.1h3.7V46h-3.7z"/><path fill="#F4F4F4" d="M49.4 44.1h3.7v.7h-3.7z"/><path fill="#E9E9E9" d="M53.5 44.1h3.7V46h-3.7z"/><path fill="#F4F4F4" d="M53.5 44.1h3.7v.7h-3.7z"/><path fill="#DEDDDE" d="M25.1 45.3h-4.3v-1.2"/><path fill="#868484" d="M20.8 44.1h4.3v1.2"/><path fill="#444142" d="M21.5 44.1h3v.8h-3z"/><path fill="#706D6E" d="M43.7 21.1c0 10.3-8.4 18.7-18.7 18.7-10.3 0-18.7-8.4-18.7-18.7S14.7 2.4 25 2.4c10.4 0 18.7 8.3 18.7 18.7"/><path fill="#2E2A2B" d="M42.9 19.9c0 9.9-8 17.9-17.9 17.9s-17.9-8-17.9-17.9S15.1 2 25 2s17.9 8.1 17.9 17.9"/><g opacity=".4"><defs><path id="a" d="M10.3 5.2h29.3v29.5H10.3z"/></defs><clipPath id="b"><use xlink:href="#a" overflow="visible"/></clipPath><path clip-path="url(#b)" fill="#7B7979" d="M39.7 19.9v1c0 .3-.1.8-.1 1.2-.1.5-.2 1-.3 1.6-.3 1.2-.9 2.7-1.8 4.1-1 1.5-2.3 3-4.1 4.2-1.8 1.2-4 2.1-6.5 2.4-2.5.3-5.1-.1-7.6-1.2-1.2-.5-2.4-1.3-3.5-2.2-1.1-.9-2-2-2.8-3.1-.8-1.2-1.4-2.5-1.8-3.9-.4-1.4-.6-2.8-.6-4.3 0-1.4.2-2.9.6-4.3.4-1.4 1-2.7 1.8-3.9.8-1.2 1.7-2.2 2.8-3.1 1.1-.9 2.2-1.6 3.5-2.2 2.5-1.1 5.2-1.5 7.6-1.2 2.5.3 4.7 1.2 6.5 2.4 1.8 1.2 3.1 2.7 4.1 4.2 1 1.5 1.5 2.9 1.8 4.1.2.6.3 1.2.3 1.6.1.5.1.9.1 1.2v1.4m-.1 0s0-.4-.1-1c0-.3-.1-.7-.1-1.2-.1-.5-.2-1-.4-1.6-.3-1.2-.9-2.6-1.9-4.1-1-1.4-2.3-2.9-4.1-4.1-1.8-1.2-4-2-6.4-2.3-2.4-.3-5.1.1-7.5 1.1-1.2.5-2.4 1.3-3.4 2.1-1.1.9-2 1.9-2.8 3.1-.8 1.2-1.4 2.5-1.8 3.8-.4 1.4-.6 2.8-.6 4.2 0 1.4.2 2.9.6 4.2.4 1.4 1 2.7 1.8 3.8.8 1.2 1.7 2.2 2.8 3.1 1.1.9 2.2 1.6 3.5 2.1 2.4 1.1 5.1 1.4 7.5 1.1 2.4-.3 4.6-1.2 6.4-2.3 1.8-1.2 3.1-2.7 4.1-4.1 1-1.4 1.5-2.9 1.9-4.1.2-.6.3-1.1.4-1.6.1-.5.1-.9.1-1.2v-1"/><path clip-path="url(#b)" fill="#7B7979" d="M25 7.4h.9c.3 0 .6 0 1.1.1.4 0 .9.2 1.4.3 1 .3 2.3.7 3.5 1.6 1.3.8 2.6 2 3.6 3.5s1.8 3.5 2.1 5.6c.2 2.1-.1 4.4-1 6.5-.5 1.1-1.1 2.1-1.9 3-.8.9-1.7 1.7-2.7 2.4-1 .7-2.1 1.2-3.3 1.6-1.2.4-2.4.5-3.6.6-1.2 0-2.5-.2-3.7-.5-1.2-.4-2.3-.9-3.3-1.5-1-.7-1.9-1.5-2.7-2.4-.8-.9-1.4-1.9-1.9-3-.9-2.1-1.2-4.4-1-6.6.2-2.1 1-4 2.1-5.6 1-1.5 2.3-2.7 3.6-3.5 1.3-.8 2.5-1.3 3.5-1.6.5-.1 1-.2 1.4-.3.4-.1.8-.1 1.1-.1.5-.1.8-.1.8-.1m0 0s-.3 0-.9.1c-.3 0-.6.1-1.1.1-.4 0-.9.2-1.4.3-1 .3-2.3.8-3.5 1.6-1.2.8-2.5 2-3.5 3.5s-1.7 3.4-2 5.5c-.2 2.1.1 4.3 1 6.4.5 1 1.1 2 1.8 2.9.8.9 1.7 1.7 2.6 2.4 1 .7 2.1 1.2 3.3 1.6 1.2.4 2.4.5 3.6.6 1.2 0 2.4-.2 3.6-.5 1.2-.4 2.3-.9 3.3-1.5 1-.7 1.9-1.5 2.7-2.4.7-.9 1.4-1.9 1.8-3 .9-2.1 1.2-4.4 1-6.5-.3-2.1-1-4-2-5.5s-2.3-2.7-3.5-3.5c-1.2-.8-2.5-1.3-3.5-1.6-.5-.1-1-.3-1.4-.3-.4-.1-.8-.1-1.1-.1-.5-.1-.8-.1-.8-.1"/><path clip-path="url(#b)" fill="#7B7979" d="M17.7 27.3l-.5-.5c-.2-.2-.3-.4-.6-.7-.2-.3-.4-.6-.7-1-.4-.8-.9-1.8-1.2-3-.3-1.2-.3-2.7-.1-4.2.3-1.5 1-3.1 2.1-4.5s2.6-2.5 4.5-3.2c.9-.4 1.9-.5 2.9-.6 1-.1 2 0 3 .2s2 .6 2.9 1c.9.5 1.7 1.1 2.5 1.8.7.7 1.4 1.6 1.9 2.5.5.9.8 1.9 1.1 2.9.2 1 .3 2 .2 3-.1 1-.3 2-.7 2.9-.7 1.8-1.9 3.4-3.3 4.5s-3 1.8-4.5 2.1c-1.5.3-3 .2-4.2-.1-1.2-.3-2.2-.7-3-1.2-.4-.2-.7-.4-1-.7-.3-.2-.5-.4-.7-.6-.5-.4-.6-.6-.6-.6m0 0l.5.5c.2.2.4.3.7.5.3.2.6.4 1 .6.8.4 1.8.9 3 1.1 1.2.2 2.6.3 4.1 0 1.5-.3 3-1 4.4-2.1 1.4-1.1 2.5-2.6 3.2-4.4.4-.9.5-1.8.7-2.8.1-1 0-2-.2-2.9-.2-1-.5-1.9-1-2.8-.5-.9-1.1-1.7-1.8-2.4s-1.5-1.3-2.4-1.8c-.9-.5-1.9-.8-2.8-1-2-.4-4-.2-5.8.5-1.8.7-3.3 1.9-4.3 3.2-1.1 1.4-1.7 2.9-2.1 4.4-.3 1.5-.3 2.9 0 4.1.2 1.2.7 2.2 1.1 3 .2.4.4.7.6 1 .2.3.4.5.5.7l.6.6"/></g><path fill="#696767" d="M31.9 19.9c0 3.8-3.1 6.9-6.9 6.9-3.8 0-6.9-3.1-6.9-6.9 0-3.8 3.1-6.9 6.9-6.9 3.9 0 6.9 3.1 6.9 6.9"/><path fill="#EBAC9B" d="M31 19.9c0 3.3-2.7 5.9-5.9 5.9-3.3 0-5.9-2.7-5.9-5.9 0-3.3 2.7-5.9 5.9-5.9s5.9 2.7 5.9 5.9"/><path fill="#6B6E6B" d="M25.1 19H25c-.3 0-.5.2-.5.5v.7c0 .1.3.2.6.2s.6-.1.6-.2v-.7c-.1-.3-.3-.5-.6-.5"/><path fill="#827F80" d="M9.3 3.6c0-.1 0-.2-.1-.3-.3-.9-1.1-1.5-2.1-1.5-.8 0-1.6.5-1.9 1.2-.1.1-.1.3-.2.4v1.1c0 .2.1.3.2.5.4.7 1.1 1.2 1.9 1.2 1 0 1.8-.7 2.1-1.6 0-.1 0-.2.1-.3V4v-.4"/><path fill="#B2B1B1" d="M7.1 3.6l2.1-.7c-.3-.8-1.1-1.5-2.1-1.5-.8 0-1.6.5-1.9 1.2l1.9 1z"/><path fill="#B2B1B1" d="M5.2 4.6c.4.7 1.1 1.2 1.9 1.2 1 0 1.8-.7 2.1-1.6l-2.1-.6-1.9 1zM7.1 3.6"/><path fill="#7B7979" d="M9.3 3.3c0-.1 0-.2-.1-.3l-2 .7 2.1-.4z"/><path fill="#CDCBCC" d="M7.1 3.6l-1.9-1c-.1.2-.1.3-.2.5l2.1.5z"/><path fill="#939192" d="M7.1 3.6L5 4.1c0 .2.1.3.2.5l1.9-1z"/><path fill="#D3D2D2" d="M7.1 3.6l2.1.6c0-.1 0-.2.1-.3l-2.2-.3z"/><path fill="#B2B1B1" d="M7.1 3.6h.1"/><path fill="#DCDBDB" d="M5 3.1v1l2.1-.5L5 3.1zM7.1 3.6l2.1.3v-.3-.3l-2.1.3z"/><path fill="#7B7979" d="M44.2 2.9h13.2v14.5H44.2z"/><path fill="#C8C7C7" d="M44.8 2.9h12.6v13.8H44.8z"/><path fill="none" stroke="#F0EFEF" stroke-width=".866" stroke-miterlimit="10" d="M50.3 11.6l-4.4 12.6s-.6 2.6-5.1 5-7.9 4.3-7.9 4.3"/><path fill="#F0EFEF" d="M32.5 33.7l.8 1.4 3.3-1.9.2-.8 4.1-2.2v-1.1l-7.7 4.3"/><path fill="#F0EFEF" d="M32.5 33.8l-.7-1.4 3.3-1.8.8.3 4-2.3 1 .5-7.7 4.3"/><path fill="#676465" d="M33.1 32.6c0 .2-.2.3-.3.3-.2 0-.3-.2-.3-.3 0-.2.2-.3.3-.3.1 0 .3.1.3.3M33.9 34.1c0 .2-.2.3-.3.3-.2 0-.3-.2-.3-.3 0-.2.2-.3.3-.3.1 0 .3.1.3.3M48.6 9.2l2.9 4.4 1.7-.9v-2.6l-1.4-1.7-2-.3-1.4.8M55 12.1c0 .7.6 1.3 1.3 1.3.7 0 1.3-.6 1.3-1.3s-.6-1.3-1.3-1.3c-.7 0-1.3.6-1.3 1.3"/><path fill="none" stroke="#676465" stroke-width=".866" stroke-miterlimit="10" d="M46.1 11.1s.6 3.1 1.5 3.7"/></svg>