<svg xmlns="http://www.w3.org/2000/svg" xmlns:xlink="http://www.w3.org/1999/xlink" width="58.4" height="52.5" viewBox="0 0 58.4 52.5"><path fill="#C8C7C7" d="M5.8 33.4h4.3v12.5H5.8z"/><path fill="#C8C7C7" d="M5.4 35.8h5.1c.1 0 .2.1.3.1v-.1c0-.2-.1-.3-.3-.3H5.4c-.2 0-.3.1-.3.3v.1c.1 0 .2-.1.3-.1M10.4 36.4c.1 0 .2.1.2.1l.1-.1s0-.1-.1-.1c0 .1-.1.1-.2.1M10.5 37c.1 0 .2.1.2.1s.1-.1.1-.2 0-.1-.1-.1c-.1.1-.1.2-.2.2M5.4 36.1h5.1c.1 0 .2-.1.3-.1-.1-.1-.1-.1-.3-.1H5.4c-.1 0-.2.1-.3.1.1.1.2.1.3.1"/><path fill="#656263" d="M10.5 36.1H5.4c-.1 0-.2.1-.2.2.1.1.1.1.2.1h5.1c.1 0 .2-.1.2-.1-.1-.1-.1-.2-.2-.2"/><path fill="#C8C7C7" d="M10.5 36.4H5.4c-.1 0-.2.1-.2.1 0 .1.1.1.2.1h5.1c.1 0 .2-.1.2-.1-.1 0-.1-.1-.2-.1"/><path fill="#656263" d="M10.5 36.7H5.4c-.1 0-.2.1-.2.2s.1.1.2.1h5.1c.1 0 .2-.1.2-.1-.1-.1-.1-.2-.2-.2"/><path fill="#C8C7C7" d="M10.5 37H5.4c-.1 0-.2.1-.2.1 0 .1.1.1.2.1h5.1c.1 0 .2-.1.2-.1-.1 0-.1-.1-.2-.1"/><path fill="#9C9A9B" d="M18.7 33.7l-4 11.2-5.1.3V33.1"/><defs><path id="a" d="M9.6 32.1h.9v12.5h-.9z"/></defs><clipPath id="b"><use xlink:href="#a" overflow="visible"/></clipPath><path clip-path="url(#b)" fill="#918F90" d="M9.6 32.1h.9v12.5h-.9z"/><path fill="#C8C7C7" d="M37.2 32.8h4.3v12.5h-4.3z"/><path fill="#C8C7C7" d="M36.8 35.2h5.1c.1 0 .2.1.3.1v-.1c0-.2-.1-.3-.3-.3h-5.1c-.2 0-.3.1-.3.3v.1c.1 0 .2-.1.3-.1M41.9 35.8c.1 0 .2.1.2.1s.1-.1.1-.2c0 0 0-.1-.1-.1 0 .1-.1.2-.2.2M41.9 36.4c.1 0 .2.1.2.1l.1-.1c0-.1 0-.1-.1-.1 0 0-.1.1-.2.1"/><path fill="#C8C7C7" d="M36.8 35.5h5.1c.1 0 .2-.1.3-.1-.1-.1-.1-.1-.3-.1h-5.1c-.1 0-.2.1-.3.1.1 0 .2.1.3.1"/><path fill="#656263" d="M41.9 35.5h-5.1c-.1 0-.2.1-.2.2.1.1.1.1.2.1h5.1c.1 0 .2-.1.2-.1 0-.1-.1-.2-.2-.2"/><path fill="#C8C7C7" d="M41.9 35.8h-5.1c-.1 0-.2.1-.2.1.1.1.1.1.2.1h5.1c.1 0 .2-.1.2-.1s-.1-.1-.2-.1"/><path fill="#656263" d="M41.9 36.1h-5.1c-.1 0-.2.1-.2.1 0 .1.1.1.2.1h5.1c.1 0 .2-.1.2-.1 0-.1-.1-.1-.2-.1"/><path fill="#C8C7C7" d="M41.9 36.4h-5.1c-.1 0-.2.1-.2.1.1.1.1.1.2.1h5.1c.1 0 .2-.1.2-.1 0-.1-.1-.1-.2-.1"/><path fill="#9C9A9B" d="M50.1 33.1l-4 11.2-5 .2V32.4"/><defs><path id="c" d="M41.1 31.5h.9V44h-.9z"/></defs><clipPath id="d"><use xlink:href="#c" overflow="visible"/></clipPath><path clip-path="url(#d)" fill="#918F90" d="M41.1 31.5h.9V44h-.9z"/><path fill="#252A26" d="M.8 30s-1.4 2.8-.6 4.4c.8 1.6 2.1 1.3 3.5 1.3H54s.4-1.5 0-2C53.7 33.2 2.2 29 2.2 29L.8 30z"/><path fill="#00587E" d="M56.6 28.4c-1.8-3.1-5.7-8.4-16.1-6.6 0 0-5.9.5-9.8-5.2C26.8 10.9 21 .9 21.2.9H6.5L1.8 13.2s-1.5 1.7-1.4 3c0 .4-.1 1.9-.2 3.7 0 0 11.6-1.1 11.9 11.9 8.6.7 22.7 1.9 25.2 1.9H54c.1 0 4.5-2.2 2.6-5.3"/><path fill="#473F65" d="M.2 20c-.2 4-.5 9.7.9 10.3 2.1.8 2.6 1.1 4.5 1.1.6 0 3.1.2 6.5.5C11.8 18.8.2 20 .2 20"/><path fill="#EBD467" d="M18.7.9c0 .5-.4.9-.9.9H2.3c-.5 0-.9-.4-.9-.9.1-.5.5-.9.9-.9h15.4c.6 0 1 .4 1 .9M25.4 14.1L21 6.8l-.7 17.7-5.6 7.5c1.6.1 3.3.3 5.1.4l5.3-7.9.3-10.4zM33.7 19.2c-.9-.7-1.7-1.6-2.4-2.7-.3-.4-.6-.9-.9-1.4l-1.1-.3-.6 11.4-4.8 6.4c1.7.1 3.4.3 5 .4l4.6-6.8.2-7z"/><path fill="#EBD467" d="M3 .9S1.3 2.6 1.5 4c.1 1.4 0 9.2 0 9.2S8.2 16 14.7.9H3z"/><path fill="#473F65" d="M45 25.6c-.9 1.9-5.8 4.1-10 4.1 0 0-.7 0-.9.6-.2.6-.6 3.1-.6 3.1 1.8.1 3.2.2 3.9.2h16.7s4.4-2.2 2.6-5.3c-1.8-3.1-5.7-8.4-16.1-6.6-.1.1 5.3 2 4.4 3.9"/><path fill="#473F65" d="M38.5 20.6s-2-.6-3.5-.9C33.2 19.4 21.2.8 21.2.8c-.3-.5-1.1-.4-1.1-.4s-1.7-.1-2.3.1c-.6.1-.4.5-.4.5 5.7 15.6 15.1 21.5 16.2 22.4 1.1.9 6.6.3 6.5-1.5-.2-1.9-1.6-1.3-1.6-1.3"/><path fill="#A77C39" d="M14.3 1.8c0 .2-.1.4-.2.4H2.4c-.1 0-.2-.2-.2-.4"/><defs><path id="e" d="M.7 20.5h10.8V31H.7z"/></defs><clipPath id="f"><use xlink:href="#e" overflow="visible"/></clipPath><path clip-path="url(#f)" fill="none" stroke="#473F65" stroke-width=".312" stroke-miterlimit="10" stroke-dasharray="0.624,0.624" d="M.7 20.6s10-.9 10.6 10.4"/><defs><path id="g" d="M17.8.9h21.8v22.3H17.8z"/></defs><clipPath id="h"><use xlink:href="#g" overflow="visible"/></clipPath><path clip-path="url(#h)" fill="none" stroke="#473F65" stroke-width=".312" stroke-miterlimit="10" stroke-dasharray="0.624,0.624" d="M18 .9s3.6 9.7 8.8 15c5.2 5.3 6.7 6.7 7.4 6.9.7.2 4.3.5 5.3-1.3"/><defs><path id="i" d="M34.1 21.8h11.5v11.3H34.1z"/></defs><clipPath id="j"><use xlink:href="#i" overflow="visible"/></clipPath><path clip-path="url(#j)" fill="none" stroke="#473F65" stroke-width=".312" stroke-miterlimit="10" stroke-dasharray="0.624,0.624" d="M42.2 22s3.6 1.2 3.3 3.1c-.4 1.9-.8 2.6-3.1 3.6-2.3 1.1-6.3 1.6-6.3 1.6s-1.5 0-1.6.8c-.1.7-.2 2.1-.2 2.1"/><path fill="none" stroke="#A77C39" stroke-width=".312" stroke-miterlimit="10" stroke-dasharray="0.624,0.624" d="M2 12.7s6.1 1.1 11.1-10.1"/><path fill="#231F20" d="M21.1 2.2c0 .4-.3.7-.7.7s-.7-.3-.7-.7c0-.4.3-.7.7-.7s.7.3.7.7"/><circle fill="none" stroke="#F3EFD9" stroke-width=".312" stroke-miterlimit="10" cx="20.5" cy="2.2" r=".7"/><path fill="#231F20" d="M22.5 4.9c0 .4-.3.7-.7.7-.4 0-.7-.3-.7-.7s.3-.7.7-.7c.4.1.7.4.7.7"/><circle fill="none" stroke="#F3EFD9" stroke-width=".312" stroke-miterlimit="10" cx="21.8" cy="4.9" r=".7"/><path fill="#231F20" d="M24.2 7.7c0 .4-.3.7-.7.7-.4 0-.7-.3-.7-.7 0-.4.3-.7.7-.7.4 0 .7.3.7.7"/><circle fill="none" stroke="#F3EFD9" stroke-width=".312" stroke-miterlimit="10" cx="23.5" cy="7.7" r=".7"/><path fill="#231F20" d="M25.9 10.4c0 .4-.3.7-.7.7-.4 0-.7-.3-.7-.7 0-.4.3-.7.7-.7.4.1.7.4.7.7"/><circle fill="none" stroke="#F3EFD9" stroke-width=".312" stroke-miterlimit="10" cx="25.2" cy="10.4" r=".7"/><path fill="#231F20" d="M27.8 13c0 .4-.3.7-.7.7-.4 0-.7-.3-.7-.7 0-.4.3-.7.7-.7.4.1.7.4.7.7"/><circle fill="none" stroke="#F3EFD9" stroke-width=".312" stroke-miterlimit="10" cx="27.1" cy="13" r=".7"/><path fill="#231F20" d="M29.7 15.6c0 .4-.3.7-.7.7-.4 0-.7-.3-.7-.7 0-.4.3-.7.7-.7.4 0 .7.3.7.7"/><circle fill="none" stroke="#F3EFD9" stroke-width=".312" stroke-miterlimit="10" cx="29" cy="15.6" r=".7"/><path fill="#231F20" d="M32 18c0 .4-.3.7-.7.7-.4 0-.7-.3-.7-.7 0-.4.3-.7.7-.7.4 0 .7.3.7.7"/><circle fill="none" stroke="#F3EFD9" stroke-width=".312" stroke-miterlimit="10" cx="31.3" cy="18" r=".7"/><path fill="none" stroke="#EBD467" stroke-width=".936" stroke-linecap="round" stroke-miterlimit="10" d="M20.4 2.3c-4-.4 1.5 12.9-3 15.4M21.4 5.2c.1-.2.5-.5.7-.6.3-.2.5-.4.8-.5.2-.1.7-.3.7.1M23.5 7.7c.1-.3.4-.5.6-.7.2-.2.5-.4.8-.5.1-.1.4-.2.6-.2.1 0 .1.2.1.3M25.2 10.4c.5-.4.9-1.1 1.5-1.5.1-.1.5-.3.6-.3.2 0 .1.3.1.4M27.1 13c0-.2.3-.4.5-.5.2-.2.5-.3.7-.5.3-.1.5-.3.7-.4.3-.2.6.2.4.5M28.9 15.6c.3-.2.5-.5.8-.8.2-.2.5-.3.7-.5.1-.1.4-.2.6-.2.2 0 .2.2.2.3M31.3 18c.1 0 .1-.2.2-.3.1-.1.2-.2.4-.3.2-.1.3-.3.5-.4.1-.1.3-.2.5-.2s.2.1.2.3"/><path fill="#EBD467" d="M16.9 17.7l.2.4-1.8.9s-.3 0-.1-.2c.2-.3 1.7-1.1 1.7-1.1"/><path fill="#A77C39" d="M17.3 18h-.1l-.2-.4v-.1h.1l.2.3v.2"/><path fill="#D3D2D2" d="M45.7 35.8l3.6 5.9 5.2-3.3-.8-2.6"/><path fill="#EBD467" d="M58 39.3l-3-2.4c-.4-.3-1.2-.2-1.8.2l-.7.5c-.6.4-1.2.8-1.3.9-.1.1-.7.5-1.3.9l-.7.5c-.6.4-1 1.1-.8 1.6l1.1 3.7c.1.3.2.5.4.6l8.5-5.7c-.1-.4-.2-.6-.4-.8"/><path fill="#A77C39" d="M52 44.8l1.1-.8c.6-.4 1.2-.8 1.3-.9.1-.1.7-.5 1.3-.9l1.1-.8c.6-.4 1.2-.9 1.4-1.2.1-.1.1-.3.1-.5l-8.5 5.7c.1.1.3.2.4.1.5.1 1.2-.3 1.8-.7"/><path fill="#EBD467" d="M15.9 45.2c0 3.9-3.1 7-7 7s-7-3.1-7-7 3.1-7 7-7c3.8-.1 7 3.1 7 7"/><defs><path id="k" d="M5.5 42.1h6.7v6.7H5.5z"/></defs><clipPath id="l"><use xlink:href="#k" overflow="visible"/></clipPath><path clip-path="url(#l)" fill="#EBD467" d="M12.2 45.5c0 1.9-1.5 3.4-3.4 3.4s-3.4-1.5-3.4-3.4 1.5-3.4 3.4-3.4 3.4 1.5 3.4 3.4"/><path fill="#A77C39" d="M12.2 45.2c0 1.9-1.5 3.4-3.4 3.4s-3.4-1.5-3.4-3.4 1.5-3.4 3.4-3.4 3.4 1.5 3.4 3.4"/><g opacity=".5"><defs><path id="m" d="M6.5 42.1h2.4v3.1H6.5z"/></defs><clipPath id="n"><use xlink:href="#m" overflow="visible"/></clipPath><path clip-path="url(#n)" fill="#A77C39" d="M7.5 42.1c-.4.2-.7.4-1 .7l2.4 2.4-1.4-3.1z"/></g><g opacity=".5"><defs><path id="o" d="M8.9 42.1h2.4v3.1H8.9z"/></defs><clipPath id="p"><use xlink:href="#o" overflow="visible"/></clipPath><path clip-path="url(#p)" fill="#A77C39" d="M8.9 45.2l2.4-2.4c-.3-.3-.6-.5-1-.7l-1.4 3.1z"/></g><defs><path id="q" d="M7.5 41.8h2.8v3.4H7.5z"/></defs><clipPath id="r"><use xlink:href="#q" overflow="visible"/></clipPath><path clip-path="url(#r)" fill="#A77C39" d="M8.9 41.8c-.5 0-1 .1-1.4.3l1.4 3.1 1.4-3.1c-.5-.2-.9-.3-1.4-.3"/><path fill="#C8C7C7" d="M11 45.2c0 1.2-1 2.2-2.2 2.2-1.2 0-2.2-1-2.2-2.2 0-1.2 1-2.2 2.2-2.2 1.3 0 2.2 1 2.2 2.2"/><path fill="#A7A5A6" d="M8.1 46.4l-.7-1.2.7-1.3h1.5l.7 1.3-.7 1.2"/><path fill="#706D6E" d="M9.6 45.2c0 .4-.3.7-.7.7-.4 0-.7-.3-.7-.7 0-.4.3-.7.7-.7.4-.1.7.3.7.7"/><path fill="#C8C7C7" d="M9.4 45.2c0 .3-.2.5-.5.5s-.5-.2-.5-.5.2-.5.5-.5.5.2.5.5"/><path fill="#A77C39" d="M8.9 51.8c-3.7 0-6.7-3-6.7-6.7h-.7c0 4.1 3.3 7.4 7.4 7.4 4.1 0 7.4-3.3 7.4-7.4h-.7c-.1 3.7-3.1 6.7-6.7 6.7"/><g><defs><path id="s" d="M1.5 37.8h14.7v7.4H1.5z"/></defs><clipPath id="t"><use xlink:href="#s" overflow="visible"/></clipPath><path clip-path="url(#t)" fill="#EBD467" d="M8.9 37.8c-4.1 0-7.4 3.3-7.4 7.4h.7c0-3.7 3-6.7 6.7-6.7s6.7 3 6.7 6.7h.7c-.1-4.1-3.4-7.4-7.4-7.4"/></g><path fill="#EBD467" d="M47.5 44.6c0 3.9-3.1 7-7 7s-7-3.1-7-7 3.1-7 7-7c3.8 0 7 3.1 7 7"/><g><defs><path id="u" d="M37.1 41.5h6.7v6.7h-6.7z"/></defs><clipPath id="v"><use xlink:href="#u" overflow="visible"/></clipPath><path clip-path="url(#v)" fill="#EBD467" d="M43.8 44.9c0 1.9-1.5 3.4-3.4 3.4S37 46.8 37 44.9s1.5-3.4 3.4-3.4 3.4 1.6 3.4 3.4"/></g><path fill="#A77C39" d="M43.8 44.6c0 1.9-1.5 3.4-3.4 3.4S37 46.5 37 44.6s1.5-3.4 3.4-3.4 3.4 1.6 3.4 3.4"/><g opacity=".5"><defs><path id="w" d="M38.1 41.5h2.4v3.1h-2.4z"/></defs><clipPath id="x"><use xlink:href="#w" overflow="visible"/></clipPath><path clip-path="url(#x)" fill="#A77C39" d="M39.1 41.5c-.4.2-.7.4-1 .7l2.4 2.4-1.4-3.1z"/></g><g opacity=".5"><defs><path id="y" d="M40.5 41.5h2.4v3.1h-2.4z"/></defs><clipPath id="z"><use xlink:href="#y" overflow="visible"/></clipPath><path clip-path="url(#z)" fill="#A77C39" d="M40.5 44.6l2.4-2.4c-.3-.3-.6-.5-1-.7l-1.4 3.1z"/></g><g><defs><path id="A" d="M39.1 41.2h2.8v3.4h-2.8z"/></defs><clipPath id="B"><use xlink:href="#A" overflow="visible"/></clipPath><path clip-path="url(#B)" fill="#A77C39" d="M40.5 41.2c-.5 0-1 .1-1.4.3l1.4 3.1 1.4-3.1c-.5-.1-.9-.3-1.4-.3"/></g><path fill="#C8C7C7" d="M42.6 44.6c0 1.2-1 2.2-2.2 2.2-1.2 0-2.2-1-2.2-2.2 0-1.2 1-2.2 2.2-2.2 1.3.1 2.2 1 2.2 2.2"/><path fill="#A7A5A6" d="M39.7 45.9l-.7-1.3.7-1.2h1.5l.7 1.2-.7 1.3"/><path fill="#706D6E" d="M41.2 44.6c0 .4-.3.7-.7.7-.4 0-.7-.3-.7-.7s.3-.7.7-.7c.4 0 .7.3.7.7"/><path fill="#C8C7C7" d="M41 44.6c0 .3-.2.5-.5.5s-.5-.2-.5-.5.2-.5.5-.5.5.2.5.5"/><path fill="#A77C39" d="M40.5 51.3c-3.7 0-6.7-3-6.7-6.7h-.7c0 4.1 3.3 7.4 7.4 7.4 4.1 0 7.4-3.3 7.4-7.4h-.7c-.1 3.7-3.1 6.7-6.7 6.7"/><g><defs><path id="C" d="M33.1 37.3h14.7v7.4H33.1z"/></defs><clipPath id="D"><use xlink:href="#C" overflow="visible"/></clipPath><path clip-path="url(#D)" fill="#EBD467" d="M40.5 37.3c-4.1 0-7.4 3.3-7.4 7.4h.7c0-3.7 3-6.7 6.7-6.7s6.7 3 6.7 6.7h.7c-.1-4.1-3.4-7.4-7.4-7.4"/></g></svg>