<svg xmlns="http://www.w3.org/2000/svg" xmlns:xlink="http://www.w3.org/1999/xlink" width="59.2" height="54.8" viewBox="0 0 59.2 54.8"><path fill="#EBD467" d="M34.6 17L32 21.3l7.8-1.3s3.6-.1 6.2-3c2.6-2.8 3.9-3.2 4.5-3.2s8.7 3.1 8.7 17.4c0 14.4-9 20.7-18.1 22.1-9.1 1.4-29.4 5-37.1-9.7 0 0-5-7.7 1.5-16.5 0 0 3.4-2.9 4.6-3.6 1.1-.6 1.3-.6 1-1.5-.3-.9-4.4-9.4-2-13.5C11.5 4.6 34.6 17 34.6 17"/><path fill="#ECC57C" d="M34.6 20.9c0 3.1-5.9 5-5.9 5l3.4-4.7 2.5-.3zM5.2 33.1c0-2.1.2-4.1.6-6-.2.2-.4.3-.4.3C-1.1 36.2 4 43.9 4 43.9c2 3.8 4.9 6.4 8.2 8.1-4.3-4.9-7-11.6-7-18.9M50.4 14c-.2 0-.4 0-.8.2 4.3 4.9 6.9 11.6 6.9 18.9 0 5.9-1.7 11.4-4.6 15.8 4.3-3.5 7.3-9.2 7.3-17.5C59.2 17 50.9 14 50.4 14"/><path fill="#EBD467" d="M35.6 12.4c0 6.8-6.1 12.4-13.5 12.4S8.5 19.2 8.5 12.4C8.5 5.5 14.5 0 22 0s13.6 5.5 13.6 12.4"/><path fill="#ECC57C" d="M35.6 12.4c0-2.9-1.1-5.6-3-7.7 1.2 2.2 1.9 4.9 1.9 7.7s-.7 5.5-1.9 7.7c1.8-2.1 3-4.8 3-7.7M9.5 12.4c0-2.8.7-5.5 1.9-7.7-1.9 2.1-3 4.8-3 7.7 0 2.9 1.1 5.6 3 7.7-1.2-2.3-1.9-4.9-1.9-7.7"/><path fill="#D6543B" d="M10.1 20.6s3.6.6 2.5-1.8-3.2-6.6-3.2-7.9c0-1.3-.5-1.9-1.3-1.3-.8.6-3.4 2-6 1.7C-.4 11-.3 13.2.6 14.5c.9 1.2 4.4 5.9 9.5 6.1"/><path fill="#F4F4F4" d="M18.4 13.8c0 1.4 1.2 2.6 2.6 2.6 1.4 0 2.6-1.2 2.6-2.6 0-1.4-1.2-2.6-2.6-2.6-1.4 0-2.6 1.2-2.6 2.6"/><defs><path id="a" d="M21 11.2h2.7v5.2H21z"/></defs><clipPath id="b"><use xlink:href="#a" overflow="visible"/></clipPath><path clip-path="url(#b)" fill="#FEFDF7" d="M21 16.4h.3c.1 0 .2 0 .4-.1.1 0 .3-.1.5-.2s.3-.2.5-.4c.2-.1.3-.3.4-.5.1-.2.2-.4.3-.7.1-.2.1-.5.1-.7 0-.3 0-.5-.1-.7-.1-.2-.2-.4-.3-.7-.1-.2-.3-.4-.4-.5-.2-.1-.3-.3-.5-.4-.2-.1-.3-.2-.5-.2-.1-.1-.3-.1-.4-.1H21h.4c.1 0 .2 0 .4.1.2 0 .3.1.5.2s.3.2.5.4c.2.1.3.3.5.5.1.2.3.4.3.7.1.2.1.5.1.8 0 .3 0 .5-.1.8-.1.3-.2.5-.3.7-.2.2-.3.4-.5.5-.2.1-.3.3-.5.4-.2.1-.3.2-.5.2s-.3.1-.4.1c-.3-.2-.4-.2-.4-.2"/><path fill="#231F20" d="M18.8 14c0 .9.7 1.7 1.7 1.7s1.7-.7 1.7-1.7c0-.9-.8-1.7-1.7-1.7s-1.7.8-1.7 1.7"/><path fill="#F4F4F4" d="M20.5 13.4c0 .3-.2.6-.6.6s-.6-.2-.6-.6c0-.3.2-.6.6-.6s.6.3.6.6"/><path fill="#C8AC82" d="M26.3 50.8s-.2-.1-.4-.4c-.3-.3-.6-.6-1-1.2s-.8-1.3-1-2.3c-.2-.9-.2-2.1.3-3.2.2-.5.6-1.1 1-1.6s.9-.9 1.5-1.4c1.1-.8 2.4-1.5 3.8-1.9.4-.1.7-.2 1.1-.3.4-.1.8-.2 1.1-.2.7-.2 1.5-.3 2.2-.5 1.5-.3 3-.7 4.4-1.1 1.5-.4 2.9-.9 4.2-1.6 1.5-.8 3.3-.8 4.7.1.3.2.6.5.9.9.2.4.3.8.3 1.2-.1.4-.1.7-.2 1.1-.1.3-.2.7-.4 1-.2.3-.3.6-.5.9-.2.3-.4.5-.6.8-.2.3-.4.5-.7.7-.2.2-.5.4-.7.6-.4.4-.9.7-1.4 1-.4.3-.9.5-1.3.7-.9.4-1.6.8-2.2 1-1.3.4-2 .7-2 .7s.7-.3 1.9-.8c.6-.2 1.3-.6 2.2-1.1.4-.2.8-.5 1.3-.8.4-.3.9-.6 1.3-1l.6-.6c.2-.2.4-.4.6-.7.2-.2.4-.5.5-.7.1-.3.3-.6.4-.8.2-.3.2-.6.3-.9.1-.3.1-.7.2-1 0-.3-.1-.5-.2-.8l-.6-.6c-1.1-.7-2.7-.7-3.8 0-1.3.8-2.9 1.3-4.4 1.7-1.5.4-3 .8-4.5 1.1-.7.1-1.5.3-2.2.4-.4.1-.7.1-1.1.2-.3.1-.7.2-1 .3-1.3.5-2.6 1-3.7 1.7S25.3 43 24.8 44s-.6 2-.4 2.9c.1.9.5 1.7.8 2.2.5 1.2 1.1 1.7 1.1 1.7M48.1 40.7s.1.2.2.5.2.7.1 1.3c0 .3 0 .6-.1.9l-.3.9c-.3.6-.8 1.2-1.3 1.7-.3.3-.6.5-.9.7-.3.2-.6.3-.9.5-.6.3-1.2.5-1.6.7-1 .4-1.7.5-1.7.5s.6-.4 1.4-1c.4-.3 1-.6 1.5-.9.5-.3 1.1-.7 1.6-1.1.3-.2.5-.4.7-.7.2-.3.4-.5.5-.8.2-.3.3-.5.4-.8.1-.3.2-.5.2-.8.3-.9.2-1.6.2-1.6M47 45.8s.1.5-.2 1.2c0 .2-.1.3-.2.5l-.3.6c-.1.2-.3.4-.4.6-.1.2-.3.3-.5.5s-.4.3-.5.5l-.6.3-.6.3c-.2.1-.4.1-.5.2-.7.2-1.1.2-1.1.2s.4-.3.9-.7c.1-.1.3-.2.4-.3.1-.1.3-.3.5-.4.2-.1.3-.3.5-.4l.5-.4c.2-.1.3-.3.5-.4.1-.2.3-.3.4-.5l.4-.4c.1-.2.2-.3.3-.4l.5-1"/></svg>