<svg xmlns="http://www.w3.org/2000/svg" xmlns:xlink="http://www.w3.org/1999/xlink" width="39.9" height="66.6" viewBox="0 0 39.9 66.6"><path fill="#B07959" d="M1.5 2.3h1.4v62.1H1.5z"/><path fill="#5E411A" d="M2.8 2.3h.7v62.1h-.7z"/><path fill="#B07959" d="M36.5 2.3h1.4v62.1h-1.4z"/><path fill="#5E411A" d="M37.9 2.3h.7v62.1h-.7z"/><path fill="#FFF" d="M25.2 38.6c-1.6-1.6-2.6-3.4-2.6-5.3s1-3.8 2.6-5.3c.5-.5 1-.9 1.7-1.3.8-.5 1.6-1 2.6-1.4 4-2.4 6.2-6 6.2-12.1V2.3H4.3v10.8c0 6.2 2.2 9.7 6.2 12.1.9.4 1.8.9 2.6 1.4.7.4 1.2.9 1.7 1.3 1.6 1.6 2.6 3.4 2.6 5.3s-1 3.8-2.6 5.3c-.5.5-1 .9-1.7 1.3-.8.5-1.6 1-2.6 1.4-4 2.4-6.2 6-6.2 12.1v10.8h31.4V53.5c0-6.2-2.2-9.7-6.2-12.1-.9-.4-1.8-.9-2.6-1.4-.7-.4-1.3-.9-1.7-1.4"/><path fill="#FFF" d="M12.1 40.5c-.6.3-1.1.6-1.6.9.9-.4 1.8-.9 2.6-1.4-.3.2-.6.3-1 .5M13.1 26.6c-.8-.5-1.6-1-2.6-1.4.5.3 1 .6 1.6.9.4.2.7.3 1 .5M27.8 26.1c.6-.3 1.1-.6 1.6-.9-.9.4-1.8.9-2.6 1.4.4-.2.7-.3 1-.5M26.8 40c.8.5 1.6 1 2.6 1.4-.5-.3-1-.6-1.6-.9-.3-.2-.6-.3-1-.5"/><path fill="#B07959" d="M39.9 1.1c0 .6-.5 1.1-1.1 1.1H1.1C.5 2.3 0 1.8 0 1.1S.5 0 1.1 0h37.7c.6 0 1.1.5 1.1 1.1"/><g opacity=".4"><defs><path id="a" d="M0 .8h39.9v1.5H0z"/></defs><clipPath id="b"><use xlink:href="#a" overflow="visible"/></clipPath><path clip-path="url(#b)" fill="#AB6865" d="M38.8 1.6H1.1C.6 1.6.2 1.3 0 .8v.3c0 .6.5 1.1 1.1 1.1h37.7c.6 0 1.1-.5 1.1-1.1 0-.1 0-.2-.1-.3-.1.5-.5.8-1 .8"/></g><path fill="#B07959" d="M39.9 65.5c0 .6-.5 1.1-1.1 1.1H1.1c-.6 0-1.1-.5-1.1-1.1s.5-1.1 1.1-1.1h37.7c.6-.1 1.1.4 1.1 1.1"/><path fill="#B69C5B" d="M6.7 12c.1 5.9 2.8 9.3 6.1 11.7.8.4 1.5.9 2.2 1.4.6.4 1 .9 1.4 1.3 1.4 1.6 3.1 3.4 3.1 5.3h.8c0-2 1.7-3.8 3.1-5.3.4-.5.9-.9 1.4-1.3.7-.5 1.4-1 2.2-1.4 3.4-2.4 6.1-6 6.1-12.1V7.3L6.7 12z"/><path fill="#ECC57C" d="M33.2 7.2c.2 1.2-5.6 3.2-12.9 4.4-7.3 1.3-13.4 1.6-13.6.4-.2-1.2 5.6-3.4 12.9-4.6 7.3-1.3 13.4-1.3 13.6-.2"/><path fill="#B69C5B" d="M19.5 31.8h.8v30.5h-.8z"/><path fill="#B69C5B" d="M20 62.3H6.7S8.5 55.5 20 49.9v12.4zM20 62.3h13.3S31.5 55.5 20 49.9v12.4z"/><g opacity=".7"><defs><path id="c" d="M4.3 2.3h14v62.1h-14z"/></defs><clipPath id="d"><use xlink:href="#c" overflow="visible"/></clipPath><path clip-path="url(#d)" fill="#D3D2D2" d="M9.7 64.3V53.5c0-6.2 1.4-9.7 4.1-12.1.6-.4 1.2-.9 1.7-1.4.4-.4.8-.9 1.1-1.3 1.1-1.6 1.7-3.4 1.7-5.3 0-2-.6-3.8-1.7-5.3-.3-.5-.7-.9-1.1-1.3-.5-.5-1.1-1-1.7-1.4-2.6-2.4-4.1-6-4.1-12.1v-11H4.3v10.8c0 6.2 2.2 9.7 6.2 12.1.9.4 1.8.9 2.6 1.4.7.4 1.2.9 1.7 1.3 1.6 1.6 2.6 3.4 2.6 5.3s-1 3.8-2.6 5.3c-.5.5-1 .9-1.7 1.3-.8.5-1.6 1-2.6 1.4-4 2.4-6.2 6-6.2 12.1v10.8h13.1-7.7z"/></g><g opacity=".7"><defs><path id="e" d="M21.7 2.3h14v62.1h-14z"/></defs><clipPath id="f"><use xlink:href="#e" overflow="visible"/></clipPath><path clip-path="url(#f)" fill="#FFF" d="M26.8 26.6c.8-.5 1.6-1 2.6-1.4 4-2.4 6.2-6 6.2-12.1V2.3h-5.4v10.8c0 6.2-1.4 9.7-4.1 12.1-.6.4-1.2.9-1.7 1.4-.4.4-.7.9-1 1.4-1.1 1.6-1.7 3.4-1.7 5.3s.6 3.8 1.7 5.3c.3.5.7.9 1.1 1.3.5.5 1.1 1 1.7 1.4 2.6 2.4 4.1 6 4.1 12.1v10.8h-7.7 13.1V53.5c0-6.2-2.2-9.7-6.2-12.1-.9-.4-1.8-.9-2.6-1.4-.7-.4-1.2-.9-1.7-1.3-1.6-1.6-2.6-3.4-2.6-5.3s1-3.8 2.6-5.3c.4-.6 1-1.1 1.6-1.5"/></g><g opacity=".3"><defs><path id="g" d="M20.4 2.3h9.8v62.1h-9.8z"/></defs><clipPath id="h"><use xlink:href="#g" overflow="visible"/></clipPath><path clip-path="url(#h)" fill="#FFF" d="M22.5 13.1c0 6.2-.4 9.7-1 12.1-.2.4-.3.9-.4 1.4-.1.4-.2.9-.3 1.4-.3 1.6-.4 3.4-.4 5.3s.2 3.8.4 5.3c.1.5.2.9.3 1.3.1.5.3 1 .4 1.4.7 2.4 1 6 1 12.1v10.8h7.7V53.5c0-6.2-1.4-9.7-4.1-12.1-.6-.4-1.1-.9-1.6-1.4-.4-.4-.8-.9-1.1-1.3-1.1-1.6-1.7-3.4-1.7-5.3s.6-3.8 1.7-5.3c.3-.5.7-.9 1.1-1.3.5-.5 1.1-1 1.7-1.4 2.6-2.4 4.1-6 4.1-12.1v-11h-7.7v10.8z"/></g><g opacity=".3"><defs><path id="i" d="M9.7 2.3h9.8v62.1H9.7z"/></defs><clipPath id="j"><use xlink:href="#i" overflow="visible"/></clipPath><path clip-path="url(#j)" fill="#D3D2D2" d="M13.8 25.2c.6.4 1.2.9 1.7 1.4.4.4.8.9 1.1 1.3 1.1 1.6 1.7 3.4 1.7 5.3 0 2-.6 3.8-1.7 5.3-.3.5-.7.9-1.1 1.3-.5.5-1.1 1-1.7 1.4-2.6 2.4-4.1 6-4.1 12.1v10.8h7.7V53.5c0-6.2.4-9.7 1-12.1.2-.4.3-.9.4-1.4.1-.4.2-.9.3-1.3.3-1.6.4-3.4.4-5.3s-.2-3.8-.4-5.3c-.1-.6-.1-1.1-.3-1.5-.1-.5-.3-1-.4-1.4-.7-2.4-1-6-1-12.1V2.3H9.7v10.8c0 6.2 1.4 9.7 4.1 12.1"/></g><g opacity=".4"><defs><path id="k" d="M4.3 2.2h31.3v.9H4.3z"/></defs><clipPath id="l"><use xlink:href="#k" overflow="visible"/></clipPath><path clip-path="url(#l)" fill="#252A26" d="M4.3 2.2h31.4v.1s-.5.1-1.3.1c-.9.1-2.1.2-3.5.3-1.5.1-3.2.2-5 .2-2 .1-4 .1-5.9.2-2-.1-3.9-.1-5.8-.1-1.8 0-3.5-.2-5-.2-1.5-.1-2.7-.3-3.5-.3-.9-.1-1.4-.2-1.4-.3z"/></g><g opacity=".4"><defs><path id="m" d="M4.3 63.6h31.3v.9H4.3z"/></defs><clipPath id="n"><use xlink:href="#m" overflow="visible"/></clipPath><path clip-path="url(#n)" fill="#252A26" d="M4.3 64.3s.5-.1 1.3-.1c.9-.1 2.1-.2 3.5-.3 1.5-.1 3.2-.2 5-.2 1.8 0 3.8-.1 5.7-.1 2 0 3.9.1 5.8.1 1.8 0 3.5.2 5 .2 1.5.1 2.7.2 3.5.3.9.1 1.3.1 1.3.1v.1H19.7l-15.4-.1z"/></g></svg>