<svg xmlns="http://www.w3.org/2000/svg" xmlns:xlink="http://www.w3.org/1999/xlink" width="71.5" height="64.8" viewBox="0 0 71.5 64.8"><path fill="#5E411A" d="M59.66 18.294l-6.967 8.383-14.69-12.207 6.966-8.383z"/><path fill="#00587E" d="M47.905 32.367l-4.218 5.076-14.69-12.207 4.218-5.076z"/><path fill="#E8E5D1" d="M43.745 37.467l-4.218 5.076-14.69-12.207 4.218-5.076z"/><path fill="#EBD467" d="M39.47 42.563l-7.35 8.845L17.43 39.2l7.35-8.844z"/><path fill="#5E411A" d="M32.1 51.383l-6.007 7.23-14.69-12.205 6.005-7.23z"/><path fill="#D6543B" d="M52.69 26.7l-1.854 2.23-14.69-12.205 1.852-2.23z"/><path fill="#1498C3" d="M50.806 28.92l-2.876 3.46-14.69-12.205 2.876-3.46z"/><path fill="none" stroke="#1498C3" stroke-width=".619" stroke-linecap="round" stroke-miterlimit="10" d="M.3 16.3c.8-.2 1.6-.5 2.5-.7.5-.1 1.1-.2 1.6-.3"/><path fill="none" stroke="#5E411A" stroke-width=".619" stroke-linecap="round" stroke-miterlimit="10" d="M4.6 15.6c-1.3.4-2.7.8-4 1.2"/><path fill="none" stroke="#EBD467" stroke-width=".619" stroke-linecap="round" stroke-miterlimit="10" d="M.6 18.5c.4 0 .8-.2 1.2-.3 1.1-.4 2.1-1.2 3.2-1.5"/><path fill="none" stroke="#D6543B" stroke-width=".619" stroke-linecap="round" stroke-miterlimit="10" d="M5.3 17.9c-1.3.9-2.8 1.5-4.3 1.9"/><path fill="none" stroke="#5E411A" stroke-width=".619" stroke-linecap="round" stroke-miterlimit="10" d="M7.5 25.2c-1.3.9-2.8 1.5-4.3 1.9M5.4 19.2s.1 0 0 0c-1.1.1-2.2.5-3.4.9-.3.1-.8.2-.8.5"/><path fill="none" stroke="#D6543B" stroke-width=".619" stroke-linecap="round" stroke-miterlimit="10" d="M5.9 20c-1.5.8-3.3 1.1-4.9 1.6M5.7 19.5c-1.5.8-3.3 1.1-4.9 1.6"/><path fill="none" stroke="#5E411A" stroke-width=".619" stroke-linecap="round" stroke-miterlimit="10" d="M6.3 21c-1.6.5-3.1.9-4.7 1.4M6.4 22c-1.5.4-3 .9-4.5 1.3M6.6 22.6c-1.5.4-3 .9-4.5 1.3M5.2 17.7c-1.5.4-3 .9-4.5 1.3"/><path fill="none" stroke="#1498C3" stroke-width=".619" stroke-linecap="round" stroke-miterlimit="10" d="M6.8 23.3c-1.5.4-3 .9-4.5 1.3"/><path fill="none" stroke="#5E411A" stroke-width=".619" stroke-linecap="round" stroke-miterlimit="10" d="M7 24c-1.5.4-3 .9-4.5 1.3"/><path fill="none" stroke="#E8E5D1" stroke-width=".619" stroke-linecap="round" stroke-miterlimit="10" d="M7.2 24.6c-1.5.4-3 .9-4.5 1.3M7.4 25.3c-1.5.4-3 .9-4.5 1.3M7.6 25.9c-1.5.4-3 .9-4.5 1.3"/><path fill="none" stroke="#D6543B" stroke-width=".619" stroke-linecap="round" stroke-miterlimit="10" d="M7.8 26.6c-1.5.4-3 .9-4.5 1.3"/><path fill="none" stroke="#5E411A" stroke-width=".619" stroke-linecap="round" stroke-miterlimit="10" d="M8 27.3c-1.5.4-3 .9-4.5 1.3"/><path fill="none" stroke="#EBD467" stroke-width=".619" stroke-linecap="round" stroke-miterlimit="10" d="M8.2 27.9c-1.5.4-3 .9-4.5 1.3"/><path fill="none" stroke="#D6543B" stroke-width=".619" stroke-linecap="round" stroke-miterlimit="10" d="M4.8 16.4c-1.5.4-3 .9-4.5 1.3"/><path fill="none" stroke="#5E411A" stroke-width=".619" stroke-linecap="round" stroke-miterlimit="10" d="M8.4 28.6c-1.5.4-3 .9-4.5 1.3"/><path fill="none" stroke="#E8E5D1" stroke-width=".619" stroke-linecap="round" stroke-miterlimit="10" d="M8.6 29.2c-1.5.4-3 .9-4.5 1.3M8.8 29.9c-1.5.4-3 .9-4.5 1.3"/><path fill="none" stroke="#D6543B" stroke-width=".619" stroke-linecap="round" stroke-miterlimit="10" d="M9 30.6c-1.5.4-3 .9-4.5 1.3"/><path fill="none" stroke="#E8E5D1" stroke-width=".619" stroke-linecap="round" stroke-miterlimit="10" d="M9.2 31.2c-1.5.4-3 .9-4.5 1.3"/><path fill="none" stroke="#1498C3" stroke-width=".619" stroke-linecap="round" stroke-miterlimit="10" d="M9.4 31.9c-1.5.4-3 .9-4.5 1.3"/><path fill="none" stroke="#5E411A" stroke-width=".619" stroke-linecap="round" stroke-miterlimit="10" d="M9.6 32.6c-1.5.4-3 .9-4.5 1.3"/><path fill="none" stroke="#1498C3" stroke-width=".619" stroke-linecap="round" stroke-miterlimit="10" d="M9.8 33.1c-1.4.4-3 1.5-3.5 2.9"/><path fill="#5E411A" d="M3.863 15.195l10.433-3.154 5.528 18.283L9.39 33.478zM21.464 9.86l6.317-1.91 5.53 18.282-6.32 1.91z"/><path fill="#EBD467" d="M27.765 7.958l6.318-1.91 5.53 18.282-6.32 1.91z"/><path fill="#00587E" d="M34.078 6.073l11.007-3.328 5.528 18.283-11.008 3.328z"/><path fill="#E8E5D1" d="M45.143 2.763L54.14.043l5.53 18.282-8.998 2.72z"/><path fill="#D6543B" d="M14.29 12.042l2.777-.84 5.53 18.283-2.776.84z"/><path fill="#1498C3" d="M17.118 11.165l4.308-1.303 5.53 18.282-4.306 1.303z"/><path fill="none" stroke="#1498C3" stroke-width=".619" stroke-linecap="round" stroke-miterlimit="10" d="M71.2 48.4c-.8.2-1.6.5-2.5.7-.5.1-1.1.2-1.6.3"/><path fill="none" stroke="#5E411A" stroke-width=".619" stroke-linecap="round" stroke-miterlimit="10" d="M66.8 49c1.3-.4 2.7-.8 4-1.2"/><path fill="none" stroke="#EBD467" stroke-width=".619" stroke-linecap="round" stroke-miterlimit="10" d="M70.9 46.2c-.4 0-.8.2-1.2.3-1.1.3-2.1 1.1-3.2 1.4"/><path fill="none" stroke="#D6543B" stroke-width=".619" stroke-linecap="round" stroke-miterlimit="10" d="M66.2 46.8c1.3-.9 2.8-1.5 4.3-1.9"/><path fill="none" stroke="#5E411A" stroke-width=".619" stroke-linecap="round" stroke-miterlimit="10" d="M64 39.5c1.3-.9 2.8-1.5 4.3-1.9M66.1 45.5c-.1 0-.1 0 0 0 1.1-.1 2.2-.5 3.4-.9.3-.1.8-.2.8-.5"/><path fill="none" stroke="#D6543B" stroke-width=".619" stroke-linecap="round" stroke-miterlimit="10" d="M65.6 44.6c1.5-.8 3.3-1.1 4.9-1.6M65.8 45.2c1.5-.8 3.3-1.1 4.9-1.6"/><path fill="none" stroke="#5E411A" stroke-width=".619" stroke-linecap="round" stroke-miterlimit="10" d="M65.2 43.7c1.6-.5 3.1-.9 4.7-1.4M65.1 42.7c1.5-.4 3-.9 4.5-1.3M64.9 42c1.5-.4 3-.9 4.5-1.3M66.3 46.9c1.5-.4 3-.9 4.5-1.3"/><path fill="none" stroke="#1498C3" stroke-width=".619" stroke-linecap="round" stroke-miterlimit="10" d="M64.7 41.4c1.5-.4 3-.9 4.5-1.3"/><path fill="none" stroke="#5E411A" stroke-width=".619" stroke-linecap="round" stroke-miterlimit="10" d="M64.5 40.7c1.5-.4 3-.9 4.5-1.3"/><path fill="none" stroke="#E8E5D1" stroke-width=".619" stroke-linecap="round" stroke-miterlimit="10" d="M64.3 40c1.5-.4 3-.9 4.5-1.3M64.1 39.4c1.5-.4 3-.9 4.5-1.3M63.9 38.7c1.5-.4 3-.9 4.5-1.3"/><path fill="none" stroke="#D6543B" stroke-width=".619" stroke-linecap="round" stroke-miterlimit="10" d="M63.7 38.1c1.5-.4 3-.9 4.5-1.3"/><path fill="none" stroke="#5E411A" stroke-width=".619" stroke-linecap="round" stroke-miterlimit="10" d="M63.5 37.4c1.5-.4 3-.9 4.5-1.3"/><path fill="none" stroke="#EBD467" stroke-width=".619" stroke-linecap="round" stroke-miterlimit="10" d="M63.3 36.7c1.5-.4 3-.9 4.5-1.3"/><path fill="none" stroke="#D6543B" stroke-width=".619" stroke-linecap="round" stroke-miterlimit="10" d="M66.6 48.3c1.5-.4 3-.9 4.5-1.3"/><path fill="none" stroke="#5E411A" stroke-width=".619" stroke-linecap="round" stroke-miterlimit="10" d="M63.1 36.1c1.5-.4 3-.9 4.5-1.3"/><path fill="none" stroke="#E8E5D1" stroke-width=".619" stroke-linecap="round" stroke-miterlimit="10" d="M62.9 35.4c1.5-.4 3-.9 4.5-1.3M62.7 34.8c1.5-.4 3-.9 4.5-1.3"/><path fill="none" stroke="#D6543B" stroke-width=".619" stroke-linecap="round" stroke-miterlimit="10" d="M62.5 34.1c1.5-.4 3-.9 4.5-1.3"/><path fill="none" stroke="#E8E5D1" stroke-width=".619" stroke-linecap="round" stroke-miterlimit="10" d="M62.3 33.4c1.5-.4 3-.9 4.5-1.3"/><path fill="none" stroke="#1498C3" stroke-width=".619" stroke-linecap="round" stroke-miterlimit="10" d="M62.1 32.8c1.5-.4 3-.9 4.5-1.3"/><path fill="none" stroke="#5E411A" stroke-width=".619" stroke-linecap="round" stroke-miterlimit="10" d="M61.9 32.1c1.5-.4 3-.9 4.5-1.3"/><path fill="none" stroke="#1498C3" stroke-width=".619" stroke-linecap="round" stroke-miterlimit="10" d="M61.6 31.5c1.4-.4 3-1.5 3.5-2.9"/><path fill="#00587E" d="M11.35 46.387l10.433-3.155 5.527 18.283-10.433 3.154z"/><path fill="#5E411A" d="M28.885 41.175l6.317-1.91 5.53 18.282-6.318 1.91z"/><path fill="#E8E5D1" d="M35.188 39.273l6.317-1.91 5.53 18.28-6.316 1.912z"/><path fill="#EBD467" d="M41.47 37.29l11.008-3.328 5.53 18.282L47 55.574z"/><path fill="#D6543B" d="M52.533 33.986l8.998-2.72 5.528 18.282-8.998 2.72zM21.776 43.23l2.775-.84 5.533 18.282-2.776.84z"/><path fill="#1498C3" d="M24.632 42.45l4.307-1.303 5.53 18.28-4.307 1.304z"/><g opacity=".4"><defs><path id="a" d="M23.4 18.3h36.3v13.6H23.4z"/></defs><clipPath id="b"><use xlink:href="#a" overflow="visible"/></clipPath><path clip-path="url(#b)" fill="#465761" d="M59.7 18.3L23.4 32l2.9-3.6"/></g></svg>