<svg xmlns="http://www.w3.org/2000/svg" xmlns:xlink="http://www.w3.org/1999/xlink" width="78.3" height="52.9" viewBox="0 0 78.3 52.9"><path fill="#C8C7C7" d="M69.2 42.8c-2.2-2.5-5.3-5.3-5.3-5.3s-.6-.8-2.5-.6c-1.9.2-6.9-.6-9.5-4.9-2.6-4.3-3.1-7.6-3.5-10.4 0 0-.2-.5-1.4-1-1.1-.4-40.5-16.3-47-14 0 0 28.3 14.6 44.6 21.1 0 0 3.9 6.8 7.4 9.2 0 0 2.5 1.7 1.4 4.7-1.1 3.1-.7 4.9 1.3 7.5 1.9 2.6 9.1 5.7 13.5 2.4 4.3-3.3 3.2-6.2 1-8.7M66.4 48c-.7 1.5-4.1 3.6-8.2 1.2s-2.6-5.7-2.6-5.7 2.2-4.7 7.1-2.2c4.8 2.4 4.4 5.2 3.7 6.7"/><g opacity=".5"><defs><path id="a" d="M36.8 23.8h31.6v28.8H36.8z"/></defs><clipPath id="b"><use xlink:href="#a" overflow="visible"/></clipPath><path clip-path="url(#b)" fill="#A7A5A6" d="M36.8 23.8l8.1 3.3c.4.7.9 1.4 1.3 2.1.5.7.9 1.4 1.4 2.1.5.7 1 1.3 1.5 2s1.1 1.2 1.7 1.9c.6.6 1.3 1 1.9 1.6.6.6 1.1 1.3 1.2 2.2.2.8 0 1.7-.3 2.5-.1.4-.3.8-.3 1.2l-.1.6v.6c0 .4.1.8.1 1.2.1.4.2.8.4 1.2.3.8.8 1.5 1.3 2.1.5.7 1.1 1.2 1.8 1.7s1.4.8 2.2 1.2c.8.3 1.5.6 2.4.8.8.2 1.6.3 2.5.3.8 0 1.7 0 2.5-.3.8-.2 1.6-.6 2.3-1-.7.5-1.4.9-2.2 1.1-.8.3-1.7.3-2.5.3s-1.7-.1-2.5-.3c-.8-.2-1.6-.4-2.4-.8-.8-.3-1.5-.7-2.2-1.2-.7-.5-1.4-1-1.9-1.7s-1-1.4-1.3-2.2c-.3-.8-.5-1.6-.5-2.5v-.6l.1-.6.3-1.2c.3-.8.5-1.6.3-2.4-.1-.8-.6-1.6-1.1-2.1l-1.9-1.6c-.6-.6-1.2-1.2-1.7-1.8-.5-.6-1.1-1.3-1.5-2-.5-.7-1-1.4-1.4-2.1-.5-.7-.9-1.4-1.3-2.1h.1c-3-1.2-5.6-2.3-8.3-3.5z"/></g><path fill="#D3D2D2" d="M65.9 47.3c-.4.8-1.9 2-4 2-1.1 0-2.3-.3-3.5-1-3.6-2.1-2.5-4.9-2.4-5 0 0 .1-.2.3-.5l-1-.4c-.2.3-.2.4-.3.5 0 0-1.6 3.8 2.8 6.4 1.3.8 2.7 1.1 4 1.1 2.4 0 4.4-1.3 5-2.6 0-.1.1-.1.1-.2l-1-.4v.1"/><path fill="#A7A5A6" d="M62.8 40.4c-1-.5-2-.8-3-.8-2.6 0-4 1.9-4.6 2.8l1 .4c.5-.8 1.7-2.2 3.6-2.2.8 0 1.6.2 2.5.7 3.3 1.6 4.5 3.7 3.6 5.8l1 .4c.7-1.6.9-4.6-4.1-7.1"/><g opacity=".5"><defs><path id="c" d="M41.2 18.7h29.7v33.6H41.2z"/></defs><clipPath id="d"><use xlink:href="#c" overflow="visible"/></clipPath><path clip-path="url(#d)" fill="#A7A5A6" d="M41.2 18.7l3.5 1.3 1.8.7.9.3c.3.1.6.3.8.5.2 1 .3 2.1.6 3.1.1.5.3 1 .4 1.5.2.5.3 1 .5 1.5s.4 1 .6 1.4l.7 1.4.8 1.4c.3.4.6.9.9 1.3.1.2.3.4.5.6l.6.5c.3.4.8.6 1.2 1 .4.3.9.5 1.4.8.5.3 1 .4 1.4.6.5.2 1 .3 1.5.4.5.1 1 .2 1.5.2.5.1 1 0 1.6-.1.3 0 .5 0 .8.1l.4.1c.1.1.3.1.3.2v.1l2 1.8 1.9 1.9c.6.7 1.3 1.3 1.8 2 .3.4.5.7.8 1.1.2.4.4.8.5 1.3.1.4.1.9.1 1.4-.1.4-.2.9-.4 1.3s-.5.8-.8 1.1c-.3.3-.6.7-1 .9-.3.3-.7.6-1.1.8l-.6.3-.6.2c-.5.3-1 .3-1.4.5-.4.1-.9.1-1.3.1.4 0 .9-.1 1.3-.1.4-.1.9-.2 1.3-.4l.6-.2.6-.3c.4-.2.7-.5 1.1-.8l.9-.9c.3-.3.5-.7.7-1.1.2-.4.3-.8.4-1.2 0-.4 0-.9-.1-1.3s-.3-.8-.5-1.2c-.2-.4-.5-.7-.7-1.1-.6-.7-1.2-1.3-1.8-2l-1.9-1.9-2-1.8v-.1c-.2-.2-.4-.2-.7-.3-.2 0-.5-.1-.8-.1-.5 0-1 .1-1.6 0-.5 0-1-.1-1.6-.2-.5-.1-1-.3-1.5-.4-.5-.2-1-.3-1.4-.6-.5-.3-.9-.5-1.4-.8-.4-.3-.9-.6-1.2-1l-.5-.7c-.2-.2-.4-.4-.5-.6-.3-.4-.6-.8-.9-1.3l-.8-1.4-.7-1.4-.6-1.5c-.2-.5-.3-1-.5-1.5-.1-.5-.3-1-.4-1.5-.2-1-.4-2.1-.5-3.1-.2-.2-.4-.4-.7-.5-.3-.1-.6-.2-.9-.4l-1.8-.7-3.5-1.2z"/></g><defs><path id="e" d="M1.1 7H34v15.9H1.1z"/></defs><clipPath id="f"><use xlink:href="#e" overflow="visible"/></clipPath><path clip-path="url(#f)" fill="#A7A5A6" d="M1.1 7c1.4.6 2.7 1.3 4.1 2 1.3.7 2.7 1.3 4 2 2.7 1.4 5.4 2.7 8.1 4 2.7 1.3 5.4 2.5 8.2 3.8 1.4.6 2.7 1.3 4.1 2l4 2 .5-.3-.5.4-4.2-1.9c-1.4-.6-2.7-1.3-4.1-1.9-2.7-1.3-5.4-2.6-8.1-4-1.4-.7-2.7-1.3-4.1-2-1.4-.6-2.7-1.3-4.1-2-1.4-.7-2.7-1.4-4-2C3.8 8.4 2.4 7.7 1.1 7z"/><g opacity=".4"><defs><path id="g" d="M2.8 7.3h37.5v11.1H2.8z"/></defs><clipPath id="h"><use xlink:href="#g" overflow="visible"/></clipPath><path clip-path="url(#h)" fill="#A7A5A6" d="M2.8 7.3c.8.1 1.6.1 2.4.2l2.4.4c.8.1 1.6.3 2.4.5.8.2 1.6.4 2.3.6 1.5.5 3.1.9 4.6 1.4 1.5.5 3.1.9 4.6 1.4l4.6 1.5c1.5.5 3 1.1 4.6 1.6l2.3.8 2.3.9 4.5 1.8.6-.3-.6.4c-3-1.1-6.1-2.2-9.1-3.2-1.5-.5-3-1.1-4.5-1.6l-4.6-1.6c-.8-.3-1.5-.5-2.3-.7-.8-.3-1.5-.5-2.3-.7-1.5-.5-3.1-.9-4.6-1.3-.8-.2-1.6-.4-2.3-.6-.9-.4-1.7-.6-2.5-.8l-2.4-.4-2.4-.3z"/></g><defs><path id="i" d="M2.8 7.3H34v15.2H2.8z"/></defs><clipPath id="j"><use xlink:href="#i" overflow="visible"/></clipPath><path clip-path="url(#j)" fill="#A7A5A6" d="M34 22.5s-.5-.2-1.4-.6c-.9-.4-2.1-1-3.6-1.6-1.5-.7-3.2-1.5-5-2.4-1.8-.9-3.8-1.8-5.7-2.7-1-.5-2-.9-2.9-1.4-1-.5-1.9-.9-2.8-1.4-1.8-.9-3.5-1.7-5-2.5-2.9-1.6-4.8-2.6-4.8-2.6s2 .9 4.9 2.3c2.9 1.4 6.8 3.4 10.7 5.3 1.9 1 3.9 1.9 5.7 2.7 1.8.9 3.6 1.6 5 2.4 1.5.7 2.7 1.3 3.5 1.7.9.5 1.4.8 1.4.8z"/><defs><path id="k" d="M2.8 7.3z"/></defs><path fill="#D3D2D2" d="M77.4 2.7c-2.9-4.8-12.9-2.3-17.7 0-4.8 2.3-8 9.4-8.4 10.2-.3.8-1.1 1-1.1 1s-1.2.3-2.8.2c-1.6-.1-2.5.6-2.5.6l-11.2 6.7c.1 1-1.7 1.7-1.7 1.7-4 1.4-28.4 19.2-28.4 19.2-.3 1.2 2.3 0 2.3 0 3.1-1 6.2-2.2 9.3-3.6C22.6 35 30.2 30 33 28.4c4.7-2.6 2.5-6.9 2.5-6.9l9.3-5.5c2.2-1.2 3.7.6 4.4 1.6l3.9.3c5 .6 7.3-.3 7.3-.3S70 13 75.3 10.2c5.1-3 2.1-7.5 2.1-7.5m-3.5 5.2S63 13.2 59.1 15.4c-3.8 2.3-4.7.1-4.8-2.4-.1-2.5 6.6-7.5 6.6-7.5 6-2.6 9.8-3.9 13.3-1.8 3.6 2.1-.3 4.2-.3 4.2"/><defs><path id="l" d="M5.9 22.3h28.8v19.5H5.9z"/></defs><clipPath id="m"><use xlink:href="#l" overflow="visible"/></clipPath><path clip-path="url(#m)" fill="#A7A5A6" d="M34.7 22.4s-.5.3-1.3.7c-.4.2-.9.5-1.5.9s-1.2.8-1.9 1.2c-1.4.9-3 1.9-4.7 3-1.7 1.1-3.5 2.3-5.3 3.6-1.8 1.3-3.5 2.5-5.2 3.7-1.7 1.2-3.2 2.3-4.5 3.2l-4.5 3.1s1.7-1.3 4.4-3.3c1.3-1 2.9-2.1 4.5-3.3 1.7-1.2 3.5-2.4 5.3-3.6 1.8-1.2 3.6-2.4 5.3-3.6 1.7-1.2 3.2-2.2 4.6-3.1 1.4-.9 2.6-1.5 3.4-2 .9-.3 1.4-.6 1.4-.5z"/><path fill="#E9E9E9" d="M44.7 16l-9.3 5.5s2.2 4.3-2.5 6.9C30.2 30 22.6 35 15.3 38.8c16.9-7.2 32.2-17.3 32.2-17.3l1.6-4h.1c-.7-.9-2.3-2.7-4.5-1.5"/><path fill="#E9E9E9" d="M40.3 25.1c-1.5 0-2.7-1.2-2.7-2.7 0-1.5 1.2-2.7 2.7-2.7 1.5 0 2.7 1.2 2.7 2.7 0 1.4-1.2 2.7-2.7 2.7"/><path fill="#A7A5A6" d="M40.3 19.7c1.5 0 2.6 1.2 2.6 2.6S41.7 25 40.3 25c-1.5 0-2.6-1.2-2.6-2.6s1.1-2.7 2.6-2.7m0-.1c-1.5 0-2.8 1.2-2.8 2.8 0 1.5 1.2 2.8 2.8 2.8 1.5 0 2.8-1.2 2.8-2.8-.1-1.6-1.3-2.8-2.8-2.8"/><path fill="#AEACAC" d="M40.3 21.7c.5 0 1 .3 1 .7 0-.5-.4-1-1-1s-1 .4-1 1c0-.4.4-.7 1-.7"/><path fill="#F4F4F4" d="M40.3 23c-.5 0-1-.3-1-.7 0 .5.4 1 1 1s1-.4 1-1c-.1.4-.5.7-1 .7"/><path fill="#FFF" d="M41.2 20.5c0-.2-.4-.4-1-.4s-1 .2-1 .4.4.4 1 .4 1-.2 1-.4"/><g><defs><path id="n" d="M37.6 22.1h5.3V25h-5.3z"/></defs><clipPath id="o"><use xlink:href="#n" overflow="visible"/></clipPath><path clip-path="url(#o)" fill="#E9E9E9" d="M40.3 24.4c-1.4 0-2.5-1-2.6-2.4v.3c0 1.5 1.2 2.6 2.6 2.6 1.5 0 2.6-1.2 2.6-2.6V22c-.1 1.4-1.3 2.4-2.6 2.4"/></g><path fill="#E7E6E7" d="M58.9 15c-1 .6-1.8.9-2.4.9-.7 0-1.5-.3-1.6-2.9-.1-1.2 2.1-3.5 4.3-5.4l-1.1-.5c-2 1.7-4.4 4.2-4.3 5.9.1 2.6 1 3.9 2.6 3.9.8 0 1.8-.3 3-1 1.8-1.1 5.3-2.8 8.4-4.4l-1.2-.5c-2.9 1.4-6 3-7.7 4"/><path fill="#A7A5A6" d="M76.3 5.7c0-.9-.6-1.7-1.8-2.4-1.3-.7-2.6-1.1-4.1-1.1-2.8 0-6 1.3-9.7 2.9h-.1c-.3.2-1.3 1-2.5 2l1.1.5c.7-.6 1.4-1.2 2-1.6 4.2-1.8 6.9-2.8 9.2-2.8 1.3 0 2.5.3 3.6 1 .6.3 1.3.9 1.2 1.5 0 .8-1.2 1.6-1.5 1.8-.1 0-3.5 1.7-7.1 3.5l1.2.5c3.3-1.7 6.3-3.1 6.4-3.1.2-.1 2-1.2 2.1-2.7"/><g opacity=".5"><defs><path id="p" d="M50.3 4.9H78v12.8H50.3z"/></defs><clipPath id="q"><use xlink:href="#p" overflow="visible"/></clipPath><path clip-path="url(#q)" fill="#A7A5A6" d="M77.9 4.9c.1.5.1.9.1 1.4 0 .5-.2.9-.4 1.4-.5.8-1.2 1.5-2 2-.4.3-.8.5-1.3.7l-1.3.5-2.5 1.2c-1.7.8-3.3 1.7-5 2.6-1.7.8-3.4 1.7-5.1 2.5-.2.1-.4.1-.6.2-.2 0-.4.1-.6.1-.4 0-.8.1-1.3.1l-1.3.1h-1.2c-1.7-.1-3.3-.3-5-.4 1.7.1 3.4.2 5 .2h1.2l1.3-.1c.4 0 .8-.1 1.2-.1.2 0 .4-.1.6-.1.2 0 .4-.1.6-.2l5.1-2.4c.9-.4 1.7-.8 2.5-1.2.8-.4 1.7-.9 2.5-1.3l2.5-1.3 1.3-.7c.4-.2.8-.4 1.2-.7.8-.5 1.5-1.1 2-1.9.2-.4.4-.8.5-1.3V4.9z"/></g><g opacity=".5"><defs><path id="r" d="M44.4.3h33.3v15.2H44.4z"/></defs><clipPath id="s"><use xlink:href="#r" overflow="visible"/></clipPath><path clip-path="url(#s)" fill="#A7A5A6" d="M46.3 14.9c-.2 0-.5.1-.7.1l-.7.3-.4.2.4-.2.5-.3c.7-.5 1.6-.5 2.4-.5H49c.4 0 .8 0 1.2-.1.8-.1 1.4-.6 1.8-1.3.3-.7.7-1.5 1.1-2.2.8-1.4 1.7-2.8 2.7-4 .5-.6 1-1.2 1.6-1.8.6-.6 1.2-1.1 1.9-1.5.7-.4 1.4-.8 2.2-1.1.7-.3 1.5-.6 2.3-.8.5-.3 1.2-.6 2-.7.8-.2 1.6-.3 2.4-.5.8-.1 1.6-.2 2.4-.2.8 0 1.6 0 2.4.1.8.2 1.6.3 2.3.8.7.4 1.3 1 1.7 1.7.2.3.3.6.4.9l.3.9c-.1-.3-.1-.6-.3-.9-.1-.3-.3-.6-.4-.8-.4-.7-1-1.2-1.7-1.6-.7-.4-1.5-.6-2.3-.7-.8-.1-1.6-.1-2.4-.1-.8 0-1.6.1-2.4.2-.8.1-1.6.3-2.4.5-.8.2-1.5.4-2.3.6-.8.2-1.5.5-2.3.8-.7.3-1.5.6-2.2 1-.7.4-1.3.9-1.9 1.5-.6.6-1.1 1.1-1.6 1.8-1 1.3-1.8 2.6-2.6 4-.4.7-.7 1.4-1.1 2.2-.3.8-1.1 1.4-1.9 1.4-.4.1-.8.1-1.2.1h-2.4l-.6.1c-.2.1-.4.1-.5.2l-.5.3v-.1l.7-.2c.4 0 .6-.1.9-.1z"/></g></svg>