<svg xmlns="http://www.w3.org/2000/svg" xmlns:xlink="http://www.w3.org/1999/xlink" width="58.2" height="36.8" viewBox="0 0 58.2 36.8"><path fill="#B2B1B1" d="M55.4 0h-13c-.3.2-.8.2-1.1 0h-.2c.1.4-.1.9-.4 1.1-.5.3-1 .1-1.3-.4l-.1-.2.1.2c.2.5 0 1-.5 1.3-.5.2-1 0-1.3-.5l-.1-.2.1.3c.2.5-.1 1-.6 1.2-.5.2-1-.1-1.2-.6l-.1-.2.1.3c.1.5-.2 1-.7 1.2-.5.1-1-.2-1.2-.7l-.1-.3v.3c.1.5-.3 1-.8 1.1-.5.1-1-.3-1.1-.8v-.3.3c0 .5-.3 1-.9 1-.5 0-1-.3-1-.9V3v.3c0 .5-.4 1-1 1-.5 0-1-.4-1-1V3v.2c0 .5-.5.9-1 .9s-.9-.5-.9-1v-.2.2c-.1.5-.6.9-1.1.8-.5-.1-.9-.6-.8-1.1v-.3l-.1.2c-.1.5-.7.8-1.2.7-.5-.1-.8-.7-.7-1.2l.3-.2-.1.2c-.2.5-.7.8-1.2.6-.5-.2-.8-.7-.6-1.2l.1-.2-.1.2c-.3.4-.8.6-1.3.4-.5-.2-.7-.8-.5-1.3l.1-.2-.1.2c-.3.5-.8.6-1.3.4-.4-.2-.5-.7-.4-1.1h-.2c-.3.2-.8.2-1.1 0h-13C1.2 0 0 1.2 0 2.8V34c0 1.5 1.2 2.8 2.8 2.8h13c.3-.2.8-.2 1.1 0h.2c-.1-.4.1-.9.4-1.1.5-.3 1-.1 1.3.4l.1.2-.1-.2c-.2-.5 0-1 .5-1.3.5-.2 1 0 1.3.5l.1.2-.1-.2c-.2-.5.1-1 .6-1.2.5-.2 1 .1 1.2.6l.1.2-.1-.2c-.1-.5.2-1 .7-1.2.5-.1 1 .2 1.2.7l.1.2v-.2c-.1-.5.3-1 .8-1.1.5-.1 1 .3 1.1.8v.2-.2c0-.5.3-1 .9-1s1 .3 1 .9v.2-.2c0-.5.4-1 1-1 .5 0 1 .4 1 1v.2-.2c0-.5.5-.9 1-.9s.9.5.9 1v.2-.2c.1-.5.6-.9 1.1-.8.5.1.9.6.8 1.1v.2l.1-.2c.1-.5.7-.8 1.2-.7.5.1.8.7.7 1.2l-.1.2.1-.2c.2-.5.7-.8 1.2-.6.5.2.8.7.6 1.2l-.1.2.1-.2c.2-.5.8-.7 1.3-.5.5.2.7.8.5 1.3l-.1.2.1-.2c.3-.5.8-.6 1.3-.4.4.2.6.7.4 1.1h.2c.3-.2.8-.2 1.1 0h13c1.5 0 2.8-1.2 2.8-2.8V2.8c-.2-1.6-1.5-2.8-3-2.8"/><g opacity=".24"><defs><path id="a" d="M0 0h58.1v36.8H0z"/></defs><clipPath id="b"><use xlink:href="#a" overflow="visible"/></clipPath><g clip-path="url(#b)"><defs><path id="c" d="M0 .6h57.1v36.2H0z"/></defs><clipPath id="d"><use xlink:href="#c" overflow="visible"/></clipPath><path clip-path="url(#d)" fill="#B2B1B1" d="M55.4 36.3H42.5c-.2-.1-.5-.2-.7-.2h-.2c-.1-.3-.3-.7-.7-.9-.2-.1-.5-.2-.8-.2h-.3c-.1-.3-.4-.6-.8-.8-.2-.1-.4-.1-.6-.1-.2 0-.3 0-.5.1-.2-.3-.5-.6-.8-.7-.2-.1-.3-.1-.5-.1s-.4 0-.6.1c-.2-.3-.5-.5-.9-.6h-.4c-.2 0-.5.1-.7.2-.2-.3-.5-.5-.9-.6h-.3c-.3 0-.6.1-.8.2-.3-.3-.6-.4-1-.5h-.1c-.3 0-.7.1-.9.3-.3-.2-.6-.4-1-.4s-.7.1-1 .4c-.3-.2-.6-.3-.9-.3H27c-.4 0-.7.2-1 .5-.2-.1-.5-.2-.8-.2h-.3c-.4.1-.7.3-.9.6-.2-.1-.4-.2-.7-.2-.1 0-.3 0-.4.1-.4.1-.7.3-.9.6-.2-.1-.4-.1-.6-.1-.2 0-.4 0-.5.1-.4.1-.7.4-.8.7-.1 0-.3-.1-.4-.1-.2 0-.4 0-.6.1-.4.2-.6.5-.8.8H18c-.3 0-.5.1-.8.2-.3.2-.6.5-.7.9h-.2c-.2 0-.5.1-.7.2H2.8c-1.2 0-2.2-1-2.2-2.2V2.8c0-.8.4-1.4 1-1.8L1 .6c-.6.6-1 1.3-1 2.2V34c0 1.5 1.2 2.8 2.8 2.8h13c.2-.1.4-.2.5-.2.2 0 .4.1.6.2h.2c-.1-.4.1-.9.4-1.1.2-.1.3-.1.5-.1.3 0 .7.2.8.5l.1.2-.1-.2c-.2-.5 0-1 .5-1.3.1-.1.3-.1.4-.1.4 0 .7.2.9.6l.1.2-.1-.2c-.2-.5.1-1 .6-1.2.1 0 .2-.1.3-.1.4 0 .8.2.9.6l.1.2-.1-.2c-.1-.5.2-1 .7-1.2h.2c.4 0 .8.3.9.7l.1.2v-.2c-.1-.5.3-1 .8-1.1h.2c.5 0 .9.3.9.8v.2-.2c0-.5.3-1 .9-1h.1c.5 0 .9.4 1 .9v.2-.2c0-.5.4-1 1-1 .5 0 1 .4 1 1v.2-.2c0-.5.5-.9 1-.9h.1c.5 0 .9.5.9 1v.2-.2c.1-.5.5-.8.9-.8h.2c.5.1.9.6.8 1.1v.2l.1-.2c.1-.4.5-.7.9-.7h.2c.5.1.8.7.7 1.2l-.1.2.1-.2c.1-.4.5-.6.9-.6.1 0 .2 0 .3.1.5.2.8.7.6 1.2l-.1.2.1-.2c.2-.3.5-.6.9-.6.1 0 .3 0 .4.1.5.2.7.8.5 1.3l-.1.2.1-.2c.2-.3.5-.5.8-.5.2 0 .3 0 .5.1.4.2.6.7.4 1.1h.2c.2-.1.4-.2.6-.2.2 0 .4.1.5.2h13c.7 0 1.3-.2 1.8-.6l-.5-.3c-.6.2-1.1.4-1.5.4"/></g><g clip-path="url(#b)"><defs><path id="e" d="M1 0h57.1v36.2H1z"/></defs><clipPath id="f"><use xlink:href="#e" overflow="visible"/></clipPath><path clip-path="url(#f)" fill="#EBEBEB" d="M58.2 34V2.8C58.2 1.3 57 0 55.4 0h-13c-.2.1-.4.2-.5.2-.2 0-.4-.1-.6-.2h-.2c.1.4-.1.9-.4 1.1-.2.1-.3.1-.5.1-.3 0-.7-.2-.8-.5l-.1-.2.1.2c.2.5 0 1-.5 1.3-.1.1-.3.1-.4.1-.4 0-.7-.2-.9-.6l-.1-.2.1.3c.2.5-.1 1-.6 1.2-.1 0-.2.1-.3.1-.4 0-.8-.2-.9-.6l-.1-.3.1.3c.1.5-.2 1-.7 1.2h-.2c-.4 0-.8-.3-.9-.7l-.1-.3v.3c.1.5-.3 1-.8 1.1h-.2c-.5 0-.9-.3-.9-.8v-.3.3c0 .5-.3 1-.9 1H31c-.5 0-.9-.4-1-.9V3v.3c0 .5-.4 1-1 1s-1-.4-1-1V3v.2c0 .5-.5.9-1 .9h-.1c-.5 0-.9-.5-.9-1v-.2.2c-.1.5-.5.8-.9.8h-.2c-.5-.1-.9-.6-.8-1.1v-.3l-.1.2c-.1.4-.5.7-.9.7h-.2c-.5-.1-.8-.7-.7-1.2l.3-.2-.1.2c-.1.4-.5.6-.9.6-.1 0-.2 0-.3-.1-.5-.2-.8-.7-.6-1.2l.1-.2-.1.2c-.2.3-.5.6-.9.6-.1 0-.3 0-.4-.1-.5-.2-.7-.8-.5-1.3l.1-.2-.1.2c-.2.3-.5.5-.8.5-.2 0-.3 0-.5-.1-.4-.2-.5-.7-.4-1.1h-.2c-.2.1-.4.2-.5.2-.2 0-.4-.1-.5-.2h-13C2.1 0 1.5.2 1 .6l.5.4c.4-.3.8-.4 1.3-.4h12.9c.2.1.5.2.7.2h.2c.1.3.4.7.7.9.2.1.5.2.8.2h.3c.1.3.4.6.8.8.2.1.4.1.6.1.2 0 .3 0 .4-.1.2.3.5.6.8.7.2.1.3.1.5.1s.4 0 .6-.1c.2.3.5.5.9.6h.3c.2 0 .5-.1.7-.2.2.3.6.5.9.6h.3c.3 0 .6-.1.8-.2.3.3.6.4 1 .5h.1c.3 0 .7-.1.9-.3.3.2.6.4 1 .4s.7-.1 1-.4c.3.2.6.3.9.3h.1c.4 0 .7-.2 1-.5.2.1.5.2.8.2h.3c.4-.1.7-.3.9-.6.3.1.6.2.8.2.1 0 .3 0 .4-.1.4-.1.7-.3.9-.6.2.1.4.1.6.1.2 0 .3 0 .5-.1.4-.1.7-.4.8-.7.1 0 .3.1.5.1s.4 0 .6-.1c.4-.2.6-.5.8-.8h.3c.3 0 .5-.1.8-.2.3-.2.6-.5.7-.9h.2c.2 0 .5-.1.7-.2h12.9c1.2 0 2.2 1 2.2 2.2V34c0 .8-.4 1.4-1 1.8l.5.3c.6-.4 1-1.2 1-2.1"/></g></g><path fill="#D3D2D2" d="M16.9 0h-1.1c.3.2.8.2 1.1 0M42.3 0h-1.1c.4.2.8.2 1.1 0M41.3 36.8h1.1c-.4-.2-.8-.2-1.1 0"/><path fill="#656263" d="M12.6 23.5H0v5h12.6c1.4 0 2.5-1.1 2.5-2.5s-1.1-2.5-2.5-2.5"/><path fill="#D3D2D2" d="M15.8 36.8h1.1c-.3-.2-.8-.2-1.1 0M48.6 18.1c0-4.6-3.7-8.3-8.3-8.3H0v11.9h48c.3-.9.5-1.9.5-2.9v-.7z"/><path fill="#E9E9E9" d="M0 27.1h40.2c3.6 0 6.7-2.3 7.8-5.5H0v5.5z"/><defs><path id="g" d="M40 9.7h9.1v17.4H40z"/></defs><clipPath id="h"><use xlink:href="#g" overflow="visible"/></clipPath><path clip-path="url(#h)" fill="#E9E9E9" d="M40.8 9.7H40c4.6 0 8.3 3.7 8.3 8.3v.7c0 1-.2 2-.5 2.9-1.2 3.2-4.2 5.5-7.8 5.5h.7c3.6 0 6.7-2.3 7.8-5.5.3-.9.5-1.9.5-2.9V18c.1-4.5-3.6-8.3-8.2-8.3"/><g opacity=".43"><defs><path id="i" d="M.1 9.7h48.4v11.9H.1z"/></defs><clipPath id="j"><use xlink:href="#i" overflow="visible"/></clipPath><g clip-path="url(#j)"><defs><path id="k" d="M3.1 9.7h13.1v2.4H3.1z"/></defs><clipPath id="l"><use xlink:href="#k" overflow="visible"/></clipPath><path clip-path="url(#l)" fill="#B2B1B1" d="M13.8 12.1l2.4-2.4H5.4L3 12.1"/></g><g clip-path="url(#j)"><defs><path id="m" d="M20.2 9.7h6.2v2.4h-6.2z"/></defs><clipPath id="n"><use xlink:href="#m" overflow="visible"/></clipPath><path clip-path="url(#n)" fill="#B2B1B1" d="M24 12.1l2.4-2.4h-3.8l-2.4 2.4"/></g><g clip-path="url(#j)"><defs><path id="o" d="M16.4 9.7h3.4v2.4h-3.4z"/></defs><clipPath id="p"><use xlink:href="#o" overflow="visible"/></clipPath><path clip-path="url(#p)" fill="#B2B1B1" d="M17.5 12.1l2.4-2.4h-1.1l-2.4 2.4"/></g><g clip-path="url(#j)"><defs><path id="q" d="M45.1 11.6h1.1v.5h-1.1z"/></defs><clipPath id="r"><use xlink:href="#q" overflow="visible"/></clipPath><path clip-path="url(#r)" fill="#B2B1B1" d="M45.6 11.6l-.5.5h1.1c-.3-.2-.4-.3-.6-.5"/></g><g clip-path="url(#j)"><defs><path id="s" d="M.7 12.1h13.1v2.4H.7z"/></defs><clipPath id="t"><use xlink:href="#s" overflow="visible"/></clipPath><path clip-path="url(#t)" fill="#D3D2D2" d="M3 12.1L.7 14.5h10.7l2.4-2.4"/></g><g clip-path="url(#j)"><defs><path id="u" d="M17.9 12.1h6.2v2.4h-6.2z"/></defs><clipPath id="v"><use xlink:href="#u" overflow="visible"/></clipPath><path clip-path="url(#v)" fill="#D3D2D2" d="M17.8 14.5h3.9l2.3-2.4h-3.8"/></g><g clip-path="url(#j)"><defs><path id="w" d="M14 12.1h3.4v2.4H14z"/></defs><clipPath id="x"><use xlink:href="#w" overflow="visible"/></clipPath><path clip-path="url(#x)" fill="#D3D2D2" d="M15.1 14.5l2.4-2.4h-1.1L14 14.5"/></g><g clip-path="url(#j)"><defs><path id="y" d="M42.7 12.1h4.1v2.4h-4.1z"/></defs><clipPath id="z"><use xlink:href="#y" overflow="visible"/></clipPath><path clip-path="url(#z)" fill="#D3D2D2" d="M45.1 14.5l1.7-1.7c-.2-.2-.4-.5-.7-.7H45l-2.4 2.4h2.5z"/></g><g clip-path="url(#j)"><defs><path id="A" d="M.1 14.5h11.3v2.4H.1z"/></defs><clipPath id="B"><use xlink:href="#A" overflow="visible"/></clipPath><path clip-path="url(#B)" fill="#E7E6E7" d="M11.4 14.5H.7l-.6.6v1.8H9"/></g><g clip-path="url(#j)"><defs><path id="C" d="M15.5 14.5h6.2v2.4h-6.2z"/></defs><clipPath id="D"><use xlink:href="#C" overflow="visible"/></clipPath><path clip-path="url(#D)" fill="#E7E6E7" d="M19.3 16.9l2.4-2.4h-3.9l-2.3 2.4"/></g><g clip-path="url(#j)"><defs><path id="E" d="M11.7 14.5h3.4v2.4h-3.4z"/></defs><clipPath id="F"><use xlink:href="#E" overflow="visible"/></clipPath><path clip-path="url(#F)" fill="#E7E6E7" d="M14 14.5l-2.3 2.4h1l2.4-2.4"/></g><g clip-path="url(#j)"><defs><path id="G" d="M40.3 14.5h4.8v2.4h-4.8z"/></defs><clipPath id="H"><use xlink:href="#G" overflow="visible"/></clipPath><path clip-path="url(#H)" fill="#E7E6E7" d="M40.3 16.9h2.4l2.4-2.4h-2.4"/></g><g clip-path="url(#j)"><defs><path id="I" d="M45.5 14.5h2.9v2.3h-2.9z"/></defs><clipPath id="J"><use xlink:href="#I" overflow="visible"/></clipPath><path clip-path="url(#J)" fill="#E7E6E7" d="M45.5 16.9H48l.5-.5c-.1-.6-.3-1.2-.6-1.8l-2.4 2.3z"/></g><g clip-path="url(#j)"><defs><path id="K" d="M.1 16.9H9v2.4H.1z"/></defs><clipPath id="L"><use xlink:href="#K" overflow="visible"/></clipPath><path clip-path="url(#L)" fill="#EDEDED" d="M9 16.9H.1v2.3h6.6"/></g><g clip-path="url(#j)"><defs><path id="M" d="M13.1 16.9h6.2v2.4h-6.2z"/></defs><clipPath id="N"><use xlink:href="#M" overflow="visible"/></clipPath><path clip-path="url(#N)" fill="#EDEDED" d="M15.5 16.9l-2.4 2.3h3.8l2.4-2.3"/></g><g clip-path="url(#j)"><defs><path id="O" d="M9.3 16.9h3.4v2.4H9.3z"/></defs><clipPath id="P"><use xlink:href="#O" overflow="visible"/></clipPath><path clip-path="url(#P)" fill="#EDEDED" d="M11.7 16.9l-2.4 2.3h1l2.4-2.3"/></g><g clip-path="url(#j)"><defs><path id="Q" d="M37.9 16.9h4.8v2.4h-4.8z"/></defs><clipPath id="R"><use xlink:href="#Q" overflow="visible"/></clipPath><path clip-path="url(#R)" fill="#EDEDED" d="M37.9 19.2h2.4l2.4-2.3h-2.4"/></g><g clip-path="url(#j)"><defs><path id="S" d="M43.2 16.9H48v2.4h-4.8z"/></defs><clipPath id="T"><use xlink:href="#S" overflow="visible"/></clipPath><path clip-path="url(#T)" fill="#EDEDED" d="M45.6 19.2l2.4-2.3h-2.5l-2.3 2.3"/></g><g clip-path="url(#j)"><defs><path id="U" d="M.1 19.2h6.6v2.4H.1z"/></defs><clipPath id="V"><use xlink:href="#U" overflow="visible"/></clipPath><path clip-path="url(#V)" fill="#FFF" d="M.1 19.2v2.4h4.2l2.4-2.4"/></g><g clip-path="url(#j)"><defs><path id="W" d="M10.7 19.2h6.2v2.4h-6.2z"/></defs><clipPath id="X"><use xlink:href="#W" overflow="visible"/></clipPath><path clip-path="url(#X)" fill="#FFF" d="M13.1 19.2l-2.4 2.4h3.8l2.4-2.4"/></g><g clip-path="url(#j)"><defs><path id="Y" d="M6.9 19.2h3.4v2.4H6.9z"/></defs><clipPath id="Z"><use xlink:href="#Y" overflow="visible"/></clipPath><path clip-path="url(#Z)" fill="#FFF" d="M9.3 19.2l-2.4 2.4h1l2.4-2.4"/></g><g clip-path="url(#j)"><defs><path id="aa" d="M35.5 19.2h4.8v2.4h-4.8z"/></defs><clipPath id="ab"><use xlink:href="#aa" overflow="visible"/></clipPath><path clip-path="url(#ab)" fill="#FFF" d="M37.9 19.2l-2.4 2.4h2.4l2.4-2.4"/></g><g clip-path="url(#j)"><defs><path id="ac" d="M40.8 19.2h4.8v2.4h-4.8z"/></defs><clipPath id="ad"><use xlink:href="#ac" overflow="visible"/></clipPath><path clip-path="url(#ad)" fill="#FFF" d="M43.2 19.2l-2.4 2.4h2.4l2.4-2.4"/></g></g><defs><path id="ae" d="M18.6 12.7h8.3V21h-8.3z"/></defs><clipPath id="af"><use xlink:href="#ae" overflow="visible"/></clipPath><path clip-path="url(#af)" fill="#B2B1B1" d="M26.9 16.9c0 2.3-1.9 4.1-4.1 4.1-2.3 0-4.1-1.9-4.1-4.1 0-2.3 1.9-4.1 4.1-4.1 2.3-.1 4.1 1.8 4.1 4.1"/><path fill="#C4C3C3" d="M28.2 16.8c-.6 2.3-3 3.7-5.4 3.1-2.3-.6-3.7-3-3.1-5.4s3-3.7 5.4-3.1c2.4.7 3.8 3.1 3.1 5.4"/><path fill="#D2D2D2" d="M27.9 16.4c-.5 1.9-2.5 3.1-4.5 2.6-1.9-.5-3.1-2.5-2.6-4.5.5-1.9 2.5-3.1 4.5-2.6s3.1 2.5 2.6 4.5"/><path fill="#E1E1E1" d="M27.6 15.9c-.4 1.6-2 2.5-3.6 2-1.6-.4-2.5-2-2.1-3.6.4-1.6 2-2.5 3.6-2 1.6.4 2.5 2 2.1 3.6"/><path fill="#F0F0F0" d="M27.2 15.4c-.3 1.2-1.5 1.9-2.7 1.5-1.2-.3-1.9-1.5-1.5-2.7.3-1.2 1.5-1.9 2.7-1.5 1.1.3 1.8 1.5 1.5 2.7"/><path fill="#FFF" d="M26.9 14.9c-.2.8-1 1.2-1.8 1-.8-.2-1.2-1-1-1.8.2-.8 1-1.2 1.8-1s1.2 1.1 1 1.8"/><path fill="#231F20" d="M24.5 17.7c-.1.3-.4.5-.7.4l-.8-.2c-.3-.1-.5-.4-.4-.7l1-3.6c.1-.3.4-.5.7-.4l.8.2c.3.1.5.4.4.7l-1 3.6z"/><path fill="#231F20" d="M22 16.1c-.3-.1-.5-.4-.4-.7l.2-.8c.1-.3.4-.5.7-.4l3.6 1c.3.1.5.4.4.7l-.2.8c-.1.3-.4.5-.7.4l-3.6-1z"/></svg>