<svg xmlns="http://www.w3.org/2000/svg" xmlns:xlink="http://www.w3.org/1999/xlink" width="79.3" height="39.4" viewBox="0 0 79.3 39.4"><path fill="#EBD467" d="M11.9 37.9c0 .6-.5 1.1-1.1 1.1-.6 0-1.1-.5-1.1-1.1s.5-1.1 1.1-1.1c.6.1 1.1.5 1.1 1.1"/><path fill="#B69C5B" d="M10.8 37.5c-.2 0-.4.2-.4.4s.2.4.4.4.4-.2.4-.4-.2-.4-.4-.4"/><path fill="#B69C5B" d="M10.8 39c-.6 0-1.1-.5-1.1-1.1h-.2c0 .7.6 1.3 1.3 1.3s1.3-.6 1.3-1.3h-.2c0 .6-.5 1.1-1.1 1.1"/><path fill="#F1E195" d="M10.8 39c.6 0 1.1-.5 1.1-1.1h-.2c0 .5-.4.9-.9.9s-.9-.4-.9-.9h-.2c0 .6.5 1.1 1.1 1.1M10.8 36.6c-.7 0-1.3.6-1.3 1.3h.2c0-.6.5-1.1 1.1-1.1.6 0 1.1.5 1.1 1.1h.2c0-.7-.6-1.3-1.3-1.3"/><path fill="#B69C5B" d="M9.9 37.9c0-.5.4-.9.9-.9s.9.4.9.9h.2c0-.6-.5-1.1-1.1-1.1-.6 0-1.1.5-1.1 1.1h.2z"/><path fill="#EBD467" d="M12.2 35.3H11l.5 2 .7.2.7-.2.4-2"/><defs><path id="a" d="M11.4 35.3h1.5v2.2h-1.5z"/></defs><clipPath id="b"><use xlink:href="#a" overflow="visible"/></clipPath><path clip-path="url(#b)" fill="#EBD467" d="M12.2 35.3h-.8l.3 2.1.5.1.4-.1.3-2.1"/><defs><path id="c" d="M11.4 36.7H13v.8h-1.6z"/></defs><clipPath id="d"><use xlink:href="#c" overflow="visible"/></clipPath><path clip-path="url(#d)" fill="#EBD467" d="M12.7 36.8c-.3-.2-.6-.1-.9 0-.1 0-.3.1-.4.2l.1.4.7.2.7-.2.1-.3-.3-.3"/><path fill="#EBD467" d="M13.1 37.9c-.1.2-.4.2-.5.2h-.3c-.2.1-.3-.1-.5-.1h-.5c-.2 0-.4 0-.6.1l-.1-.1c.1-.2.3-.4.5-.6.2-.2.5-.3.7-.4.3-.1.6-.2.9 0 .2.1.2.2.3.4 0 .1 0 .2.1.4v.1z"/><path fill="#5E411A" d="M14 32.4c0 .4-.3.7-.7.7H11c-.4 0-.7-.3-.7-.7 0-.4.3-.7.7-.7h2.4c.3 0 .6.3.6.7"/><path fill="#5E411A" d="M14.3 32.9c0 .2-.1.3-.3.3h-3.6c-.2 0-.3-.1-.3-.3s.1-.3.3-.3H14c.1 0 .3.2.3.3"/><path fill="#5E411A" d="M13.8 32.7v1.7c0 .9-.7 1.2-1.6 1.2-.9 0-1.6-.3-1.6-1.2v-1.7"/><g opacity=".25"><defs><path id="e" d="M10.8 31.7h2.7v3.9h-2.7z"/></defs><clipPath id="f"><use xlink:href="#e" overflow="visible"/></clipPath><path clip-path="url(#f)" fill="#5E411A" d="M13.4 32.4c0 .4-.2.7-.4.7h-1.6c-.2 0-.4-.3-.4-.7s.2-.7.4-.7H13c.2 0 .4.3.4.7"/><path clip-path="url(#f)" fill="#5E411A" d="M13.5 33c0 .2-.1.3-.2.3H11c-.1 0-.2-.1-.2-.3s.1-.3.2-.3h2.3c.1 0 .2.1.2.3"/><path clip-path="url(#f)" fill="#5E411A" d="M13.2 32.7v1.7c0 .9-.5 1.2-1 1.2-.6 0-1-.3-1-1.2v-1.7"/></g><defs><path id="g" d="M12.9 31.7h.6v2.7h-.6z"/></defs><clipPath id="h"><use xlink:href="#g" overflow="visible"/></clipPath><path clip-path="url(#h)" fill="#5E411A" d="M13.2 34.5c0-.4 0-.8-.1-1.2H13.4s.1-.1.1-.2 0-.3-.1-.3c0-.2.1-.4 0-.6-.1-.2-.2-.4-.4-.4.2 0 .4.2.4.4.1.2.1.4 0 .6v-.1c.2.1.2.3.2.4 0 .1-.1.2-.1.2-.1.1-.2 0-.2 0l.1-.1c-.2.5-.2.9-.2 1.3"/><defs><path id="i" d="M10.5 33.2h3.2v.1h-3.2z"/></defs><clipPath id="j"><use xlink:href="#i" overflow="visible"/></clipPath><path clip-path="url(#j)" fill="#5E411A" d="M10.5 33.2h3.2v.1h-3.2z"/><g opacity=".3"><defs><path id="k" d="M10.4 32.5h3.5v.1h-3.5z"/></defs><clipPath id="l"><use xlink:href="#k" overflow="visible"/></clipPath><path clip-path="url(#l)" fill="#F3EFD9" d="M10.4 32.6c.6-.1 1.2-.1 1.8-.1.6 0 1.2 0 1.8.1h-3.6z"/></g><path fill="#EBD467" d="M66.6 38.1c0 .6-.5 1.1-1.1 1.1-.6 0-1.1-.5-1.1-1.1S65 37 65.6 37s1 .5 1 1.1"/><path fill="#B69C5B" d="M65.6 37.7c-.2 0-.4.2-.4.4s.2.4.4.4.4-.2.4-.4c0-.3-.2-.4-.4-.4"/><path fill="#B69C5B" d="M65.6 39.1c-.6 0-1.1-.5-1.1-1.1h-.2c0 .7.6 1.3 1.3 1.3s1.3-.6 1.3-1.3h-.2c-.1.7-.5 1.1-1.1 1.1"/><path fill="#F1E195" d="M65.6 39.1c.6 0 1.1-.5 1.1-1.1h-.2c0 .5-.4.9-.9.9s-.9-.4-.9-.9h-.2c0 .7.5 1.1 1.1 1.1"/><path fill="#F1E195" d="M65.6 36.8c-.7 0-1.3.6-1.3 1.3h.2c0-.6.5-1.1 1.1-1.1s1.1.5 1.1 1.1h.2c-.1-.7-.6-1.3-1.3-1.3"/><path fill="#B69C5B" d="M64.7 38.1c0-.5.4-.9.9-.9s.9.4.9.9h.2c0-.6-.5-1.1-1.1-1.1-.6 0-1.1.5-1.1 1.1h.2z"/><path fill="#EBD467" d="M66.9 35.4h-1.1l.4 2.1.7.1.7-.1.5-2.1"/><defs><path id="m" d="M66.2 35.4h1.5v2.2h-1.5z"/></defs><clipPath id="n"><use xlink:href="#m" overflow="visible"/></clipPath><path clip-path="url(#n)" fill="#EBD467" d="M66.9 35.4h-.7l.3 2.1.4.2.5-.2.3-2.1"/><defs><path id="o" d="M66.1 36.8h1.6v.8h-1.6z"/></defs><clipPath id="p"><use xlink:href="#o" overflow="visible"/></clipPath><path clip-path="url(#p)" fill="#EBD467" d="M67.5 37c-.3-.2-.6-.1-.9 0-.1 0-.3.1-.4.2l.1.4.7.2.7-.2.1-.3c-.1-.2-.2-.3-.3-.3"/><path fill="#EBD467" d="M67.8 38c-.1.2-.4.2-.5.2H67c-.1.1-.2-.1-.4-.2h-.5c-.2 0-.4 0-.6.1l-.1-.1c.1-.2.3-.4.5-.6.2-.2.5-.3.7-.4.3-.1.6-.2.9 0 .2.1.2.2.3.4 0 .1 0 .2.1.4l-.1.2z"/><path fill="#5E411A" d="M68.8 32.5c0 .4-.3.7-.7.7h-2.4c-.4 0-.7-.3-.7-.7 0-.4.3-.7.7-.7h2.4c.4 0 .7.3.7.7"/><path fill="#5E411A" d="M69 33.1c0 .2-.1.3-.3.3h-3.6c-.2 0-.3-.1-.3-.3s.1-.3.3-.3h3.6c.2 0 .3.1.3.3"/><path fill="#5E411A" d="M68.5 32.8v1.7c0 .9-.7 1.2-1.6 1.2-.9 0-1.6-.3-1.6-1.2v-1.7"/><g opacity=".25"><defs><path id="q" d="M65.6 31.9h2.7v3.9h-2.7z"/></defs><clipPath id="r"><use xlink:href="#q" overflow="visible"/></clipPath><path clip-path="url(#r)" fill="#5E411A" d="M68.2 32.5c0 .4-.2.7-.4.7h-1.6c-.2 0-.4-.3-.4-.7 0-.4.2-.7.4-.7h1.6c.2.1.4.4.4.7"/><path clip-path="url(#r)" fill="#5E411A" d="M68.3 33.1c0 .2-.1.3-.2.3h-2.3c-.1 0-.2-.1-.2-.3s.1-.3.2-.3h2.3c.1 0 .2.1.2.3"/><path clip-path="url(#r)" fill="#5E411A" d="M68 32.9v1.7c0 .9-.5 1.2-1 1.2-.6 0-1-.3-1-1.2v-1.7"/></g><defs><path id="s" d="M67.7 31.9h.6v2.7h-.6z"/></defs><clipPath id="t"><use xlink:href="#s" overflow="visible"/></clipPath><path clip-path="url(#t)" fill="#5E411A" d="M68 34.6c0-.4 0-.8-.1-1.2H68.2s.1-.1.1-.2 0-.3-.1-.3c.1-.2.1-.4 0-.6-.1-.2-.2-.4-.4-.4.2 0 .4.2.4.4.1.2.1.4 0 .6v-.1c.2.1.2.3.2.4 0 .1 0 .2-.1.2-.1.1-.2 0-.2 0l.1-.1c-.2.5-.2.9-.2 1.3"/><defs><path id="u" d="M65.3 33.4h3.2v.1h-3.2z"/></defs><clipPath id="v"><use xlink:href="#u" overflow="visible"/></clipPath><path clip-path="url(#v)" fill="#5E411A" d="M65.3 33.4h3.2v.1h-3.2z"/><g opacity=".3"><defs><path id="w" d="M65.1 32.7h3.5v.1h-3.5z"/></defs><clipPath id="x"><use xlink:href="#w" overflow="visible"/></clipPath><path clip-path="url(#x)" fill="#F3EFD9" d="M65.1 32.8c.6-.1 1.2-.1 1.8-.1.6 0 1.2 0 1.8.1h-3.6z"/></g><path fill="#C78962" d="M70.1 14.1c0 2.9-2.3 5.2-5.2 5.2H14.5c-2.9 0-5.2-2.3-5.2-5.2V5.2c0-2.9 2.3-5.2 5.2-5.2h50.3C67.7 0 70 2.3 70 5.2v8.9z"/><path fill="#CA906C" d="M69 10.8c0 2.3-1.9 4.2-4.2 4.2H14.5c-2.3 0-4.2-1.9-4.2-4.2V4.2c0-2.3 1.9-4.2 4.2-4.2h50.3C67.1 0 69 1.9 69 4.2v6.6z"/><path fill="#CE9876" d="M67.9 7.6c0 1.7-1.4 3.1-3.1 3.1H14.5c-1.7 0-3.1-1.4-3.1-3.1V3.1c0-1.7 1.4-3.1 3.1-3.1h50.3c1.7 0 3.1 1.4 3.1 3.1v4.5z"/><path fill="#D29F80" d="M66.9 4.3c0 1.1-.9 2.1-2.1 2.1H14.5c-1.1 0-2.1-.9-2.1-2.1V2.1c.1-1.1 1-2.1 2.1-2.1h50.3c1.1 0 2.1.9 2.1 2.1v2.2z"/><path fill="#D5A789" d="M65.8 1.1c0 .6-.5 1-1 1H14.5c-.6 0-1-.5-1-1s.5-1 1-1h50.3c.6 0 1 .4 1 1"/><path fill="#C78962" d="M10.9 19.6h58.3v5.5H10.9z"/><path fill="#C78962" d="M70.1 26.9c0 .7-.6 1.3-1.3 1.3H10.6c-.7 0-1.3-.6-1.3-1.3v-2.6c0-.7.6-1.3 1.3-1.3h58.2c.7 0 1.3.6 1.3 1.3v2.6z"/><path fill="#C78962" d="M70.1 31.4c0 .6-.6 1.1-1.3 1.1H10.6c-.7 0-1.3-.5-1.3-1.1v-2.1c0-.6.6-1.1 1.3-1.1h58.2c.7 0 1.3.5 1.3 1.1v2.1z"/><defs><path id="y" d="M9.3 9.7h5.8v10H9.3z"/></defs><clipPath id="z"><use xlink:href="#y" overflow="visible"/></clipPath><path clip-path="url(#z)" fill="#C78962" d="M9.3 9.7l5.7 5.1-1.4 4.3-2.7.5"/><defs><path id="A" d="M64.3 9.7h5.8v10h-5.8z"/></defs><clipPath id="B"><use xlink:href="#A" overflow="visible"/></clipPath><path clip-path="url(#B)" fill="#C78962" d="M70.1 9.7l-5.8 5.1 1.4 4.3 2.7.5"/><defs><path id="C" d="M13.2 20.5h52.9v5.1H13.2z"/></defs><clipPath id="D"><use xlink:href="#C" overflow="visible"/></clipPath><path clip-path="url(#D)" fill="#C78962" d="M39.7 20.5V23v-2.5L13.2 22v3.6s1.1-1.8 4.4-1.8h20.7s1.2-.4 1.4-.6c.2.3 1.4.6 1.4.6h20.7c3.3 0 4.4 1.8 4.4 1.8V22l-26.5-1.5z"/><defs><path id="E" d="M13.2 22h52.9v2.1H13.2z"/></defs><clipPath id="F"><use xlink:href="#E" overflow="visible"/></clipPath><path clip-path="url(#F)" fill="#C78962" d="M39.7 22v1-1l-26.5.6v1.5s1.1-.7 4.4-.7h20.7s1.2-.1 1.4-.3c.2.1 1.4.3 1.4.3h20.7c3.3 0 4.4.7 4.4.7v-1.5L39.7 22z"/><path fill="#C78962" d="M10 32.5c-2 0-3.7.7-3.7-1.3v-2.7c0-3.1.1-7.2-.2-9.5-.1-1.1-.5-2.3-.9-2.9-.4-.5-1.8-1.8-2.5-2.2-1.8-.5-3-2.3-2.7-4.2.3-2 2.2-3.4 4.3-3.1 2.9.5 6.5 4.4 7.2 5.6 1.3 2.1 1.8 4.8 1.9 5.8.4 2.8.3 7.1.3 10.6v2.6c0 2-1.7 1.3-3.7 1.3"/><defs><path id="G" d="M1.6 8.3h10.5V31H1.6z"/></defs><clipPath id="H"><use xlink:href="#G" overflow="visible"/></clipPath><path clip-path="url(#H)" fill="none" stroke="#C78962" stroke-width=".433" stroke-linecap="round" stroke-miterlimit="10" d="M11.8 30.8v-2.1c0-3.4.1-7.6-.3-10.3-.1-.7-.5-3.2-1.6-5.1-.6-1.2-3.8-4.5-5.9-4.8h-.3c-.9 0-1.7.6-1.8 1.5-.2.9.4 1.8 1.3 2.1l.2.1.2.1c.9.5 2.5 2 3.1 2.7l.1.2c.6 1 .9 2.5 1.1 3.6.3 2.4.3 6.7.2 9.8v2.2"/><defs><path id="I" d="M1.5 8.2h10.6v22.9H1.5z"/></defs><clipPath id="J"><use xlink:href="#I" overflow="visible"/></clipPath><path clip-path="url(#J)" fill="none" stroke="#ECC57C" stroke-width=".618" stroke-linecap="round" stroke-miterlimit="10" d="M11.8 30.8"/><path clip-path="url(#J)" fill="none" stroke="#ECC57C" stroke-width=".618" stroke-linecap="round" stroke-miterlimit="10" stroke-dasharray="0,1.231" d="M11.8 29.5v-.9c0-3.4.1-7.6-.3-10.3-.1-.7-.5-3.2-1.6-5.1-.6-1-3.8-4.3-5.9-4.7h-.3c-.9 0-1.7.7-1.8 1.6-.2.9.4 1.8 1.3 2.1l.2.1.2.1c.9.5 2.5 2 3 2.7l.1.2c.6 1 .9 2.5 1.1 3.6.3 2.4.3 6.7.2 9.8v1.6"/><path clip-path="url(#J)" fill="none" stroke="#ECC57C" stroke-width=".618" stroke-linecap="round" stroke-miterlimit="10" d="M8.1 30.8"/><path fill="#C78962" d="M35.8 14.5H17.1c-2.1 0-3.8.8-3.8 3.1V22c0 .6.4 1 1 1h24.5c.5 0 1-.5 1-1v-4.4c-.1-2.3-1.9-3.1-4-3.1M69.3 32.5c2 0 3.7.7 3.7-1.3v-2.7c0-3.1-.1-7.2.2-9.5.1-1.1.5-2.3.9-2.9.4-.5 1.8-1.8 2.5-2.2 1.8-.5 3-2.3 2.7-4.2-.3-2-2.2-3.4-4.3-3.1-2.9.5-6.5 4.4-7.2 5.6-1.3 2.2-1.8 4.8-1.9 5.8-.4 2.8-.3 7.1-.3 10.6v2.6c0 2 1.7 1.3 3.7 1.3"/><path fill="#C78962" d="M43.5 14.5h18.7c2.1 0 3.8.8 3.8 3.1V22c0 .6-.4 1-1 1H40.6c-.5 0-1-.5-1-1v-4.4c.1-2.3 1.8-3.1 3.9-3.1"/><g><defs><path id="K" d="M13.2 14.4h26.5v3.8H13.2z"/></defs><clipPath id="L"><use xlink:href="#K" overflow="visible"/></clipPath><path clip-path="url(#L)" fill="#C78962" d="M39.6 18.3c-.1-.7-.1-1.3-.4-1.8-.3-.5-.7-.9-1.3-1.1-1.1-.4-2.3-.2-3.7-.2-2.6.1-5.2.1-7.8.2-2.6-.1-5.2-.1-7.8-.2-1.3-.1-2.6-.3-3.7.2-.5.2-1 .6-1.3 1.1-.3.5-.3 1.2-.4 1.8h-.1c0-.6 0-1.3.2-1.9.2-.6.7-1.1 1.3-1.4 1.2-.6 2.6-.4 3.9-.5h15.6c1.3 0 2.7-.1 3.9.5.6.3 1.1.8 1.3 1.4.4.5.4 1.2.3 1.9z"/></g><g><defs><path id="M" d="M39.6 14.4h26.5v3.8H39.6z"/></defs><clipPath id="N"><use xlink:href="#M" overflow="visible"/></clipPath><path clip-path="url(#N)" fill="#C78962" d="M39.6 18.3c0-.6 0-1.3.2-1.9.2-.6.7-1.1 1.3-1.4 1.2-.6 2.6-.4 3.9-.5h15.6c1.3 0 2.7-.1 3.9.5.6.3 1.1.8 1.3 1.4.3.6.2 1.3.2 1.9-.1-.7-.1-1.3-.4-1.8-.3-.5-.7-.9-1.3-1.1-1.1-.4-2.3-.2-3.7-.2-2.6.1-5.2.1-7.8.2-2.6-.1-5.2-.1-7.8-.2-1.3-.1-2.6-.3-3.7.2-.5.2-1 .6-1.3 1.1-.2.4-.2 1.1-.4 1.8z"/></g><g><defs><path id="O" d="M13.7 17.3h25.9v.3H13.7z"/></defs><clipPath id="P"><use xlink:href="#O" overflow="visible"/></clipPath><path clip-path="url(#P)" fill="#C78962" d="M13.7 17.3h26v.1l-3.3.1h-3.2l-6.5.1-6.5-.1H17l-3.3-.1"/></g><g><defs><path id="Q" d="M39.7 17.3h25.9v.3H39.7z"/></defs><clipPath id="R"><use xlink:href="#Q" overflow="visible"/></clipPath><path clip-path="url(#R)" fill="#C78962" d="M39.7 17.3h25.9v.1l-3.3.1h-3.2l-6.5.1-6.5-.1h-3.2l-3.2-.1"/></g><g><defs><path id="S" d="M35.6 17.4h3.9v1h-3.9z"/></defs><clipPath id="T"><use xlink:href="#S" overflow="visible"/></clipPath><path clip-path="url(#T)" fill="#C78962" d="M35.6 18.2c.7-.1 1.4-.1 2-.2.7-.1 1.3-.3 1.9-.7-.4.6-1.1.9-1.8 1-.7.1-1.4.1-2.1-.1"/></g><g><defs><path id="U" d="M37.1 17.4h2.4v2.9h-2.4z"/></defs><clipPath id="V"><use xlink:href="#U" overflow="visible"/></clipPath><path clip-path="url(#V)" fill="#C78962" d="M39.5 17.4c0 .3-.3.6-.4.9-.1.3-.3.6-.5.9-.4.5-.9 1-1.6 1.1.6-.2 1.1-.7 1.5-1.2.2-.2.4-.5.5-.8.2-.4.5-.6.5-.9"/></g><g><defs><path id="W" d="M37 17.4h2.2v.4H37z"/></defs><clipPath id="X"><use xlink:href="#W" overflow="visible"/></clipPath><path clip-path="url(#X)" fill="#C78962" d="M39.2 17.4c-.3.2-.7.2-1.1.3-.4 0-.8.1-1.1 0 .4-.1.8-.1 1.1-.2.4.1.8 0 1.1-.1"/></g><g><defs><path id="Y" d="M39.7 17.4h3.9v1h-3.9z"/></defs><clipPath id="Z"><use xlink:href="#Y" overflow="visible"/></clipPath><path clip-path="url(#Z)" fill="#C78962" d="M43.5 18.2c-.7.1-1.4.2-2.1.1-.7-.1-1.4-.4-1.8-1 .6.4 1.2.6 1.9.7.7.1 1.4.1 2 .2"/></g><g><defs><path id="aa" d="M39.7 17.4h2.4v2.9h-2.4z"/></defs><clipPath id="ab"><use xlink:href="#aa" overflow="visible"/></clipPath><path clip-path="url(#ab)" fill="#C78962" d="M39.7 17.4c0 .3.3.6.4.9.1.3.3.6.5.8.4.5.9 1 1.5 1.2-.7-.1-1.2-.6-1.6-1.1-.2-.3-.3-.6-.5-.9-.1-.3-.3-.6-.3-.9"/></g><g><defs><path id="ac" d="M39.9 17.4h2.2v.4h-2.2z"/></defs><clipPath id="ad"><use xlink:href="#ac" overflow="visible"/></clipPath><path clip-path="url(#ad)" fill="#C78962" d="M39.9 17.4c.4.1.7.2 1.1.2.4.1.7.1 1.1.2-.4.1-.8 0-1.1 0-.3-.1-.7-.2-1.1-.4"/></g><g><defs><path id="ae" d="M13.5 28h52.3v.4H13.5z"/></defs><clipPath id="af"><use xlink:href="#ae" overflow="visible"/></clipPath><path clip-path="url(#af)" fill="none" stroke="#C78962" stroke-width=".433" stroke-linecap="round" stroke-miterlimit="10" d="M13.7 28.3"/><path clip-path="url(#af)" fill="none" stroke="#C78962" stroke-width=".433" stroke-linecap="round" stroke-miterlimit="10" stroke-dasharray="0,1.853" d="M15.6 28.3h49.1"/><path clip-path="url(#af)" fill="none" stroke="#C78962" stroke-width=".433" stroke-linecap="round" stroke-miterlimit="10" d="M65.6 28.3"/></g><g><defs><path id="ag" d="M13.2 18.5h.7v4.2h-.7z"/></defs><clipPath id="ah"><use xlink:href="#ag" overflow="visible"/></clipPath><path clip-path="url(#ah)" fill="#C78962" d="M13.3 18.5c.2.3.3.6.4 1 .1.3.2.7.2 1.1v1c0 .4 0 .7-.2 1.1 0-.7-.2-1.4-.2-2.1 0-.7-.2-1.4-.2-2.1z"/></g><g><defs><path id="ai" d="M65.6 18.5h.6v4.2h-.6z"/></defs><clipPath id="aj"><use xlink:href="#ai" overflow="visible"/></clipPath><path clip-path="url(#aj)" fill="#C78962" d="M66 18.5c.1.4.1.7.1 1.1v1c0 .4-.1.8-.2 1.1-.1.3-.2.7-.4 1 0-.7.2-1.4.2-2.1 0-.7.2-1.4.3-2.1z"/></g><g><defs><path id="ak" d="M67.2 8.3h10.5V31H67.2z"/></defs><clipPath id="al"><use xlink:href="#ak" overflow="visible"/></clipPath><path clip-path="url(#al)" fill="none" stroke="#C78962" stroke-width=".433" stroke-linecap="round" stroke-miterlimit="10" d="M67.5 30.8v-2.1c0-3.4-.1-7.6.3-10.3.1-.7.5-3.2 1.6-5.1.6-1.1 3.9-4.4 5.9-4.7h.3c.9 0 1.7.7 1.8 1.6.2.9-.4 1.8-1.3 2.1l-.2.1-.2.1c-.9.5-2.5 2-3.1 2.7l-.1.2c-.6 1-.9 2.5-1.1 3.6-.3 2.4-.3 6.7-.2 9.8V31"/></g><g><defs><path id="am" d="M67.1 8.2h10.6v22.9H67.1z"/></defs><clipPath id="an"><use xlink:href="#am" overflow="visible"/></clipPath><path clip-path="url(#an)" fill="none" stroke="#ECC57C" stroke-width=".618" stroke-linecap="round" stroke-miterlimit="10" d="M67.5 30.8"/><path clip-path="url(#an)" fill="none" stroke="#ECC57C" stroke-width=".618" stroke-linecap="round" stroke-miterlimit="10" stroke-dasharray="0,1.231" d="M67.5 29.5v-.9c0-3.4-.1-7.6.3-10.3.1-.7.5-3.2 1.6-5.1.6-1.1 3.9-4.4 5.9-4.7h.3c.9 0 1.7.7 1.8 1.6.2.9-.4 1.8-1.3 2.1l-.2.1-.2.1c-.9.5-2.5 2-3 2.7l-.1.2c-.6 1-.9 2.5-1.1 3.6-.3 2.4-.3 6.7-.2 9.8v1.6"/><path clip-path="url(#an)" fill="none" stroke="#ECC57C" stroke-width=".618" stroke-linecap="round" stroke-miterlimit="10" d="M71.2 30.8"/></g><g><defs><path id="ao" d="M.5 10.3h1.3v.3H.5z"/></defs><clipPath id="ap"><use xlink:href="#ao" overflow="visible"/></clipPath><path clip-path="url(#ap)" fill="#C78962" d="M1.8 10.5c-.2.1-.4.1-.7.1-.2 0-.5-.1-.6-.3.2.1.4.2.6.2h.7"/></g><g><defs><path id="aq" d="M1.2 8.3h1v1h-1z"/></defs><clipPath id="ar"><use xlink:href="#aq" overflow="visible"/></clipPath><path clip-path="url(#ar)" fill="#C78962" d="M2.2 9.3c-.1 0-.3 0-.4-.1l-.3-.3-.3-.6c.2.2.3.4.4.6.2.1.3.3.6.4"/></g><g><defs><path id="as" d="M4.3 7.5h.3v1h-.3z"/></defs><clipPath id="at"><use xlink:href="#as" overflow="visible"/></clipPath><path clip-path="url(#at)" fill="#C78962" d="M4.3 8.5c.1-.1.2-.3.2-.5s0-.3.1-.5c.1.2 0 .4 0 .5 0 .1 0 .2-.1.3 0 .1-.1.2-.2.2"/></g><g><defs><path id="au" d="M5.6 8.3h.7v.8h-.7z"/></defs><clipPath id="av"><use xlink:href="#au" overflow="visible"/></clipPath><path clip-path="url(#av)" fill="#C78962" d="M6.4 8.3c0 .1 0 .2-.1.3 0 .1-.1.2-.2.2-.1.1-.3.2-.5.3l.4-.4c.2-.1.3-.3.4-.4"/></g><g><defs><path id="aw" d="M77.5 10.3h1.3v.3h-1.3z"/></defs><clipPath id="ax"><use xlink:href="#aw" overflow="visible"/></clipPath><path clip-path="url(#ax)" fill="#C78962" d="M77.5 10.5c.2-.1.4 0 .7 0 .2 0 .4 0 .6-.2-.1.2-.4.3-.6.3-.3 0-.5 0-.7-.1"/></g><g><defs><path id="ay" d="M77.1 8.3h1v1h-1z"/></defs><clipPath id="az"><use xlink:href="#ay" overflow="visible"/></clipPath><path clip-path="url(#az)" fill="#C78962" d="M77.1 9.3c.2 0 .4-.2.5-.4.2-.2.3-.4.4-.6-.1.2-.2.4-.3.7l-.3.3h-.3"/></g><g><defs><path id="aA" d="M74.7 7.5h.3v1h-.3z"/></defs><clipPath id="aB"><use xlink:href="#aA" overflow="visible"/></clipPath><path clip-path="url(#aB)" fill="#C78962" d="M75 8.5c-.1 0-.2-.1-.2-.2s-.1-.2-.1-.3v-.5c.1.2 0 .4.1.5 0 .2.1.4.2.5"/></g><g><defs><path id="aC" d="M72.9 8.3h.7v.8h-.7z"/></defs><clipPath id="aD"><use xlink:href="#aC" overflow="visible"/></clipPath><path clip-path="url(#aD)" fill="#C78962" d="M72.9 8.3c.1.2.2.3.3.4.1.1.3.2.4.4-.2-.1-.3-.2-.5-.3 0-.1-.1-.2-.1-.3-.1 0-.1-.1-.1-.2"/></g><path fill="none" stroke="#C78962" stroke-width=".433" stroke-miterlimit="10" d="M27.7.2c.5.1.8 1.8.9 2.3.2 1.2.4 2.4.4 3.7v8.1M51.3.2c-.5.1-.8 1.8-.9 2.3-.2 1.2-.4 2.5-.4 3.7v8.1"/></svg>