<svg xmlns="http://www.w3.org/2000/svg" xmlns:xlink="http://www.w3.org/1999/xlink" width="21.1" height="75.5" viewBox="0 0 21.1 75.5"><path fill="#C8CBC8" d="M1.6 53.7h17.9v21.9H1.6z"/><defs><path id="a" d="M6.4 53.7h7v21.9h-7z"/></defs><clipPath id="b"><use xlink:href="#a" overflow="visible"/></clipPath><path clip-path="url(#b)" fill="#465761" d="M6.4 53.7h7v21.9h-7z"/><defs><path id="c" d="M7.6 53.7h3v21.9h-3z"/></defs><clipPath id="d"><use xlink:href="#c" overflow="visible"/></clipPath><path clip-path="url(#d)" fill="#465761" d="M7.6 53.7h3v21.9h-3z"/><defs><path id="e" d="M8.1 53.7H13v8.4H8.1z"/></defs><clipPath id="f"><use xlink:href="#e" overflow="visible"/></clipPath><path clip-path="url(#f)" fill="#C8CBC8" d="M13 53.7c0 4.6-1.1 8.4-2.4 8.4-1.4 0-2.4-3.8-2.4-8.4"/><path fill="#C8CBC8" d="M12.4 56.5c0 .5-.4.9-.9.9h-2c-.5 0-.9-.4-.9-.9V20c0-.5.4-.9.9-.9h2.1c.5 0 .9.4.9.9v36.5z"/><path fill="#A0A96A" d="M21.1 3.6c0 .5-.4.9-.9.9H.9c-.5 0-.9-.4-.9-.9V.9C0 .4.4 0 .9 0h19.4c.5 0 .9.4.9.9v2.7z"/><defs><path id="g" d="M0 1.1h21.1v.8H0z"/></defs><clipPath id="h"><use xlink:href="#g" overflow="visible"/></clipPath><path clip-path="url(#h)" fill="#A0A96A" d="M0 1.1h21.1v.8H0z"/><g><defs><path id="i" d="M0 3h21.1v1.5H0z"/></defs><clipPath id="j"><use xlink:href="#i" overflow="visible"/></clipPath><path clip-path="url(#j)" fill="#D0D4B5" d="M0 3.6c0 .5.4.9.9.9h19.4c.5 0 .9-.4.9-.9V3H0v.6z"/></g><g><defs><path id="k" d="M8.2 3.3H13v1.1H8.2z"/></defs><clipPath id="l"><use xlink:href="#k" overflow="visible"/></clipPath><path clip-path="url(#l)" fill="#A0A96A" d="M12.1 3.3H9c-.5 0-.9.4-.9.9v.3H13v-.3c0-.5-.4-.9-.9-.9"/></g><path fill="#918F90" d="M8.7 20.4h3.8v.1c-.6.6-1.3.7-1.9.7-.7 0-1.3-.2-1.9-.8z"/><path fill="#A0A96A" d="M12.9 19.7c0 .5-.4.9-.9.9H9.1c-.5 0-.9-.4-.9-.9V4.4c0-.5.4-.9.9-.9H12c.5 0 .9.4.9.9v15.3z"/><g><defs><path id="m" d="M9.4 3.5h1.1v17H9.4z"/></defs><clipPath id="n"><use xlink:href="#m" overflow="visible"/></clipPath><path clip-path="url(#n)" fill="#A0A96A" d="M9.4 3.5h1.1v17H9.4z"/></g><path fill="#C8CBC8" d="M12.4 56.5c0 2-.8 3.7-1.9 3.7-1 0-1.9-1.7-1.9-3.7s.8-3.7 1.9-3.7c1.1 0 1.9 1.7 1.9 3.7"/><g><defs><path id="o" d="M9.4 20.5h1.1v35.1H9.4z"/></defs><clipPath id="p"><use xlink:href="#o" overflow="visible"/></clipPath><path clip-path="url(#p)" fill="#465761" d="M9.4 20.5h1.1v35.1H9.4z"/></g><g><defs><path id="q" d="M9.4 55.6h1.1v2.3H9.4z"/></defs><clipPath id="r"><use xlink:href="#q" overflow="visible"/></clipPath><path clip-path="url(#r)" fill="#465761" d="M10.6 55.6c0 1.3-.3 2.3-.6 2.3s-.6-1-.6-2.3"/></g></svg>