<svg xmlns="http://www.w3.org/2000/svg" xmlns:xlink="http://www.w3.org/1999/xlink" width="41.1" height="59.2" viewBox="0 0 41.1 59.2"><path fill="#C78962" d="M0 0h41.1v59.2H0z"/><path fill="#231F20" d="M35.1 39.7c0 8.3-6.5 15-14.5 15S6.1 48 6.1 39.7s6.5-15 14.5-15c8-.1 14.5 6.7 14.5 15"/><ellipse fill="none" stroke="#D3D2D2" stroke-width="1.675" stroke-miterlimit="10" cx="20.6" cy="39.7" rx="14.5" ry="15"/><defs><path id="a" d="M9.1 42H30v12.7H9.1z"/></defs><clipPath id="b"><use xlink:href="#a" overflow="visible"/></clipPath><path clip-path="url(#b)" fill="#231F20" d="M18.1 42l-9 6.9c2.7 3.5 6.8 5.8 11.5 5.8 3.6 0 6.9-1.4 9.4-3.6L18.1 42z"/><path fill="#231F20" d="M20.6 28.7c6.2 0 11.3 4.9 11.3 10.9s-5.1 10.9-11.3 10.9c-6.2 0-11.3-4.9-11.3-10.9s5-10.9 11.3-10.9"/><path fill="#D3D2D2" d="M20.6 28.7c2.9 0 5.8 1.1 8 3.1s3.5 4.9 3.5 7.8c.1 3-1.2 5.9-3.3 8-2.2 2.1-5.1 3.3-8.1 3.3s-6-1.2-8.1-3.3c-2.2-2.1-3.4-5-3.3-8 0-3 1.4-5.8 3.5-7.8 1.9-2 4.9-3.1 7.8-3.1m0 0c-2.9 0-5.8 1.2-7.9 3.2-2.1 2-3.3 4.9-3.2 7.8 0 2.9 1.3 5.7 3.4 7.6 2.1 2 4.9 3 7.7 3s5.7-1.1 7.7-3c2.1-1.9 3.4-4.7 3.4-7.6.1-2.9-1.2-5.7-3.2-7.8-2.1-2-5-3.2-7.9-3.2"/><path fill="#231F20" d="M24.2 39.7c0 2.1-1.6 3.7-3.6 3.7S17 41.7 17 39.7c0-2.1 1.6-3.7 3.6-3.7 2-.1 3.6 1.6 3.6 3.7"/><ellipse fill="none" stroke="#D3D2D2" stroke-width=".335" stroke-miterlimit="10" cx="20.6" cy="39.7" rx="3.6" ry="3.7"/><path fill="#231F20" d="M24.2 39.7c0 2.1-1.6 3.7-3.6 3.7S17 41.7 17 39.7c0-2.1 1.6-3.7 3.6-3.7 2-.1 3.6 1.6 3.6 3.7"/><ellipse fill="none" stroke="#D3D2D2" stroke-width=".335" stroke-miterlimit="10" cx="20.6" cy="39.7" rx="3.6" ry="3.7"/><path fill="#4F4C4D" d="M23.7 39c0 1.6-1.4 3-3.1 3-1.7 0-3.1-1.3-3.1-3s1.4-3 3.1-3c1.7 0 3.1 1.4 3.1 3"/><path fill="#7B7979" d="M23.2 38.3c0 1.2-1.2 2.2-2.6 2.2-1.4 0-2.6-1-2.6-2.2 0-1.2 1.2-2.2 2.6-2.2 1.4 0 2.6 1 2.6 2.2"/><path fill="#A7A5A6" d="M22.7 37.7c0 .8-.9 1.4-2.1 1.4s-2.1-.6-2.1-1.4c0-.8.9-1.4 2.1-1.4s2.1.6 2.1 1.4"/><path fill="#D3D2D2" d="M22.2 37c0 .4-.7.7-1.6.7-.9 0-1.6-.3-1.6-.7s.7-.7 1.6-.7c.9 0 1.6.3 1.6.7M3 2c0 .4-.3.7-.7.7s-.7-.3-.7-.7c0-.4.3-.7.7-.7s.7.3.7.7"/><circle fill="none" stroke="#868484" stroke-width=".167" stroke-miterlimit="10" cx="2.3" cy="2" r=".7"/><path fill="none" stroke="#868484" stroke-width=".167" stroke-miterlimit="10" d="M1.9 1.5l.9 1"/><path fill="#D3D2D2" d="M39.5 2c0 .4-.3.7-.7.7s-.7-.3-.7-.7c0-.4.3-.7.7-.7s.7.3.7.7"/><circle fill="none" stroke="#868484" stroke-width=".167" stroke-miterlimit="10" cx="38.8" cy="2" r=".7"/><path fill="none" stroke="#868484" stroke-width=".167" stroke-miterlimit="10" d="M38.4 1.5l.9 1"/><path fill="#D3D2D2" d="M3 56.9c0 .4-.3.7-.7.7s-.7-.3-.7-.7c0-.4.3-.7.7-.7s.7.3.7.7"/><circle fill="none" stroke="#868484" stroke-width=".167" stroke-miterlimit="10" cx="2.3" cy="56.9" r=".7"/><path fill="none" stroke="#868484" stroke-width=".167" stroke-miterlimit="10" d="M1.9 56.4l.9 1"/><path fill="#D3D2D2" d="M39.5 56.9c0 .4-.3.7-.7.7s-.7-.3-.7-.7c0-.4.3-.7.7-.7s.7.3.7.7"/><circle fill="none" stroke="#868484" stroke-width=".167" stroke-miterlimit="10" cx="38.8" cy="56.9" r=".7"/><path fill="none" stroke="#868484" stroke-width=".167" stroke-miterlimit="10" d="M38.4 56.4l.9 1"/><path fill="#231F20" d="M21 24.6c0 .2-.2.4-.4.4s-.4-.2-.4-.4.2-.4.4-.4.4.2.4.4M7.9 46.9c.2-.1.4 0 .6.2.1.2 0 .4-.1.6-.2.1-.4 0-.6-.1-.2-.3-.1-.5.1-.7M33.3 47.1c-.2-.1-.3-.4-.2-.6.1-.2.4-.3.6-.2.2.1.3.4.2.6-.1.2-.4.3-.6.2M27.1 11.5c0 3.8-2.9 6.8-6.6 6.8-3.6 0-6.6-3-6.6-6.8s2.9-6.8 6.6-6.8c3.7 0 6.6 3 6.6 6.8"/><ellipse fill="none" stroke="#D3D2D2" stroke-width="1.675" stroke-miterlimit="10" cx="20.6" cy="11.5" rx="6.6" ry="6.8"/><defs><path id="c" d="M15.4 12.6h9.4v5.7h-9.4z"/></defs><clipPath id="d"><use xlink:href="#c" overflow="visible"/></clipPath><path clip-path="url(#d)" fill="#231F20" d="M19.4 12.6l-4.1 3.1c1.2 1.6 3.1 2.6 5.2 2.6 1.6 0 3.1-.6 4.2-1.6l-5.3-4.1z"/><path fill="#231F20" d="M20.6 6.6c2.8 0 5.1 2.2 5.1 4.9s-2.3 4.9-5.1 4.9-5.1-2.2-5.1-4.9 2.3-4.9 5.1-4.9"/><path fill="#D3D2D2" d="M20.6 6.6c1.3 0 2.6.5 3.6 1.4 1 .9 1.6 2.2 1.6 3.5 0 1.3-.6 2.7-1.5 3.6-1 .9-2.3 1.5-3.7 1.5-1.3 0-2.7-.5-3.6-1.5-1-.9-1.5-2.3-1.5-3.6 0-1.3.6-2.6 1.6-3.5.8-1 2.2-1.5 3.5-1.4m0 0c-1.3 0-2.6.5-3.6 1.4-.9.9-1.5 2.2-1.5 3.5 0 1.3.6 2.6 1.5 3.4.9.9 2.2 1.4 3.5 1.4 1.3 0 2.6-.5 3.5-1.4.9-.9 1.5-2.1 1.5-3.4 0-1.3-.5-2.6-1.5-3.5-.8-.9-2.1-1.4-3.4-1.4"/><path fill="#231F20" d="M22.2 11.5c0 .9-.7 1.7-1.6 1.7-.9 0-1.6-.8-1.6-1.7 0-.9.7-1.7 1.6-1.7.9 0 1.6.8 1.6 1.7"/><ellipse fill="none" stroke="#D3D2D2" stroke-width=".151" stroke-miterlimit="10" cx="20.6" cy="11.5" rx="1.6" ry="1.7"/><path fill="#231F20" d="M22.2 11.5c0 .9-.7 1.7-1.6 1.7-.9 0-1.6-.8-1.6-1.7 0-.9.7-1.7 1.6-1.7.9 0 1.6.8 1.6 1.7"/><ellipse fill="none" stroke="#D3D2D2" stroke-width=".151" stroke-miterlimit="10" cx="20.6" cy="11.5" rx="1.6" ry="1.7"/><path fill="#4F4C4D" d="M22 11.2c0 .7-.6 1.3-1.4 1.3-.8 0-1.4-.6-1.4-1.3 0-.7.6-1.3 1.4-1.3.7 0 1.4.6 1.4 1.3"/><path fill="#7B7979" d="M21.7 10.9c0 .5-.5 1-1.2 1s-1.2-.4-1.2-1c0-.5.5-1 1.2-1s1.2.5 1.2 1"/><path fill="#A7A5A6" d="M21.5 10.6c0 .4-.4.6-.9.6s-.9-.3-.9-.6.3-.6.9-.6c.5 0 .9.2.9.6"/><path fill="#D3D2D2" d="M21.3 10.3c0 .2-.3.3-.7.3-.4 0-.7-.1-.7-.3 0-.2.3-.3.7-.3.4 0 .7.1.7.3"/><path fill="#231F20" d="M21 4.7c0 .2-.2.4-.4.4s-.4-.2-.4-.4.2-.4.4-.4.4.2.4.4M14.5 14.3c.2-.1.4 0 .6.1.1.2 0 .4-.2.6-.2.1-.4 0-.6-.1 0-.3 0-.5.2-.6M26.2 15c-.2-.1-.3-.4-.1-.6.1-.2.4-.3.6-.1.2.1.3.4.1.6-.1.1-.4.2-.6.1"/></svg>