<svg xmlns="http://www.w3.org/2000/svg" xmlns:xlink="http://www.w3.org/1999/xlink" width="58.8" height="37.3" viewBox="0 0 58.8 37.3"><path fill="#A77C39" d="M58.8 24v-5.7-.9c0 .5 0 .9.1 1 0-.9-.2-4.5-.1-1.5-.3-4.6-.7-10.3-6.4-13.1-9.2-4.5-16 3.6-25.2 2.1-4.4-.7-7.8-2.9-12-3.5-4.2-.5-8.7.8-11.3 3.2-3.2 3-4 7.6-3.9 11.7V23.5c0 1 .1 2 .2 3 .6 4.3 3.1 9.8 9.7 10.7 3.7.5 7.2-.6 10.4-1.9 3.2-1.3 7.3-3.9 10.9-2.8 6.4 1.9 13.6 7.1 20.9 3.8 5-2.3 6.6-7.6 6.6-11.8V24v.6c.1-.1.1-.4.1-.6M58.8 24.6c0 .1 0 .1 0 0 0 .1 0 .1 0 0M58.8 24.7s0 .1 0 0c0 .1 0 0 0 0M58.8 18.5s0 .1 0 0c0 .1 0 0 0 0M58.8 18.4c0 .1 0 .1 0 0 0 .1 0 .1 0 0"/><path fill="#EBD467" d="M58.8 16.2c-.3-5.1-.5-11.4-6.5-14.5-9.2-4.8-16 3.9-25.2 2.2C22.9 3.1 19.4.8 15.2.2 11-.5 6.5 1 3.9 3.6c-4 4-4.3 10.8-3.6 15.7C.9 24 3.4 29.8 10 30.8c3.7.5 7.2-.6 10.4-2s7.3-4.2 10.9-3c6.4 2 13.6 7.6 20.9 4.1 5.4-2.8 6.8-9.1 6.6-13.7-.3-5.8.2 4.9 0 0"/><defs><path id="a" d="M8.6 20.4H13v4.4H8.6z"/></defs><clipPath id="b"><use xlink:href="#a" overflow="visible"/></clipPath><path clip-path="url(#b)" fill="#EBD467" d="M10.8 20.4h-.2c.9.1 1.5.8 1.5 1.7 0 1-.8 1.7-1.7 1.7-.9 0-1.6-.7-1.7-1.5v.2c0 1.2 1 2.2 2.2 2.2s2.2-1 2.2-2.2-1.1-2.1-2.3-2.1"/><defs><path id="c" d="M34.1 7.7h4.4v4.4h-4.4z"/></defs><clipPath id="d"><use xlink:href="#c" overflow="visible"/></clipPath><path clip-path="url(#d)" fill="#EBD467" d="M36.2 7.7H36c.9.1 1.5.8 1.5 1.7 0 1-.8 1.7-1.7 1.7-.9 0-1.6-.7-1.7-1.5v.2c0 1.2 1 2.2 2.2 2.2s2.2-1 2.2-2.2-1-2.1-2.3-2.1"/><defs><path id="e" d="M34.1 28.7h4.4v4.4h-4.4z"/></defs><clipPath id="f"><use xlink:href="#e" overflow="visible"/></clipPath><path clip-path="url(#f)" fill="#EBD467" d="M36.2 28.7H36c.9.1 1.5.8 1.5 1.7 0 1-.8 1.7-1.7 1.7-.9 0-1.6-.7-1.7-1.5v.2c0 1.2 1 2.2 2.2 2.2s2.2-1 2.2-2.2-1-2.1-2.3-2.1"/><defs><path id="g" d="M43.1 17.6h4.4V22h-4.4z"/></defs><clipPath id="h"><use xlink:href="#g" overflow="visible"/></clipPath><path clip-path="url(#h)" fill="#EBD467" d="M45.3 17.6h-.2c.9.1 1.5.8 1.5 1.7 0 1-.8 1.7-1.7 1.7-.9 0-1.6-.7-1.7-1.5v.2c0 1.2 1 2.2 2.2 2.2s2.2-1 2.2-2.2-1-2.1-2.3-2.1"/><defs><path id="i" d="M16.5 17.1h3v3h-3z"/></defs><clipPath id="j"><use xlink:href="#i" overflow="visible"/></clipPath><path clip-path="url(#j)" fill="#EBD467" d="M18 17.1h-.2c.6.1 1 .6 1 1.2 0 .7-.5 1.2-1.2 1.2-.6 0-1.1-.5-1.2-1v.2c0 .8.7 1.5 1.5 1.5s1.5-.7 1.5-1.5c0-.9-.6-1.6-1.4-1.6"/><g><defs><path id="k" d="M20.4 30.2h3v3h-3z"/></defs><clipPath id="l"><use xlink:href="#k" overflow="visible"/></clipPath><path clip-path="url(#l)" fill="#EBD467" d="M21.9 30.2h-.2c.6.1 1 .6 1 1.2 0 .7-.5 1.2-1.2 1.2-.6 0-1.1-.5-1.2-1v.2c0 .8.7 1.5 1.5 1.5s1.5-.7 1.5-1.5c.1-.9-.6-1.6-1.4-1.6"/></g><g><defs><path id="m" d="M11.5 4.7h3v3h-3z"/></defs><clipPath id="n"><use xlink:href="#m" overflow="visible"/></clipPath><path clip-path="url(#n)" fill="#EBD467" d="M13 4.7h-.2c.6.1 1 .6 1 1.2 0 .7-.5 1.2-1.2 1.2-.6 0-1.1-.5-1.2-1v.2c0 .8.7 1.5 1.5 1.5s1.5-.7 1.5-1.5-.6-1.6-1.4-1.6"/></g><g><defs><path id="o" d="M38.1 14.6h3v3h-3z"/></defs><clipPath id="p"><use xlink:href="#o" overflow="visible"/></clipPath><path clip-path="url(#p)" fill="#EBD467" d="M39.5 14.6h-.2c.6.1 1 .6 1 1.2 0 .7-.5 1.2-1.2 1.2-.6 0-1.1-.5-1.2-1v.2c0 .8.7 1.5 1.5 1.5s1.5-.7 1.5-1.5-.5-1.6-1.4-1.6"/></g><g><defs><path id="q" d="M18.5 10.1h1.9V12h-1.9z"/></defs><clipPath id="r"><use xlink:href="#q" overflow="visible"/></clipPath><path clip-path="url(#r)" fill="#EBD467" d="M19.4 10.1h-.1c.4 0 .7.4.7.8s-.3.8-.8.8c-.4 0-.7-.3-.8-.7v.1c0 .5.4 1 1 1 .5 0 1-.4 1-1s-.4-1-1-1"/></g><g><defs><path id="s" d="M32.4 20.1h1.9V22h-1.9z"/></defs><clipPath id="t"><use xlink:href="#s" overflow="visible"/></clipPath><path clip-path="url(#t)" fill="#EBD467" d="M33.4 20.1h-.1c.4 0 .7.4.7.8s-.3.8-.8.8c-.4 0-.7-.3-.8-.7v.1c0 .5.4 1 1 1 .5 0 1-.4 1-1s-.5-1-1-1"/></g><g><defs><path id="u" d="M49.4 31.3h1.9v1.9h-1.9z"/></defs><clipPath id="v"><use xlink:href="#u" overflow="visible"/></clipPath><path clip-path="url(#v)" fill="#EBD467" d="M50.4 31.3h-.1c.4 0 .7.4.7.8s-.3.8-.8.8c-.4 0-.7-.3-.8-.7v.1c0 .5.4 1 1 1 .5 0 1-.4 1-1s-.5-1-1-1"/></g><g><defs><path id="w" d="M45.9 4.3h1.9v1.9h-1.9z"/></defs><clipPath id="x"><use xlink:href="#w" overflow="visible"/></clipPath><path clip-path="url(#x)" fill="#EBD467" d="M46.9 4.3h-.1c.4 0 .7.4.7.8s-.3.8-.8.8c-.4 0-.7-.3-.8-.7v.1c0 .5.4 1 1 1 .5 0 1-.4 1-1s-.5-1-1-1"/></g><g><defs><path id="y" d="M3.2 29.9h1.9v1.9H3.2z"/></defs><clipPath id="z"><use xlink:href="#y" overflow="visible"/></clipPath><path clip-path="url(#z)" fill="#EBD467" d="M4.1 29.9H4c.4 0 .7.4.7.8s-.3.8-.8.8c-.4 0-.7-.3-.8-.7v.1c0 .5.4 1 1 1 .5 0 1-.4 1-1 0-.5-.4-1-1-1"/></g><g><defs><path id="A" d="M50.4 9.1h3v3h-3z"/></defs><clipPath id="B"><use xlink:href="#A" overflow="visible"/></clipPath><path clip-path="url(#B)" fill="#EBD467" d="M51.9 9.1h-.2c.6.1 1 .6 1 1.2 0 .7-.5 1.2-1.2 1.2-.6 0-1.1-.5-1.2-1v.2c0 .8.7 1.5 1.5 1.5s1.5-.7 1.5-1.5c0-.9-.6-1.6-1.4-1.6"/></g></svg>