<svg xmlns="http://www.w3.org/2000/svg" xmlns:xlink="http://www.w3.org/1999/xlink" width="83.2" height="21.1" viewBox="0 0 83.2 21.1"><path fill="#918F90" d="M61.3 14.7s1.3.6 1.3 2.3h-3.3s.1-2.3 2-2.3"/><path fill="#464344" d="M59.3 17h3.4v.6h-3.4z"/><path fill="#F6F6F6" d="M83.2 3.1c0 .9-.7 1.6-1.6 1.6s-1.5-.7-1.5-1.6c0-.9.7-1.6 1.6-1.6s1.5.8 1.5 1.6"/><path fill="#E4E4E4" d="M82.4 1.7c.3.3.5.7.5 1.1 0 .9-.7 1.6-1.6 1.6-.2 0-.5-.1-.7-.2.3.3.7.4 1.1.4.9 0 1.6-.7 1.6-1.6-.1-.5-.4-1-.9-1.3"/><path fill="#EAAA58" d="M42.6 3.1c0 .5-.2 1.1-.5 1.4-.4.4-.9.6-1.5.6-1.1 0-2.1-.9-2.1-2s1-2.1 2.1-2c.5 0 1.1.2 1.5.6.4.4.5.9.5 1.4m0 0c0-.5-.3-1-.7-1.3-.4-.3-.8-.5-1.3-.5-1 0-1.9.8-1.9 1.8s.9 1.8 1.9 1.8c.5 0 1-.2 1.3-.5.4-.3.7-.7.7-1.3"/><path fill="#EFDD85" d="M42.6 3.1c0 1.1-.9 1.9-2 1.9s-2-.9-2-1.9c0-1.1.9-1.9 2-1.9s2 .9 2 1.9"/><path fill="#EAAA58" d="M40.6 2.2c.4 0 .8 0 1.2.1l.6.3c.2.1.3.3.3.6h-.2c0-.4-.3-.8-.7-1-.4-.2-.8-.3-1.3-.4-.4 0-.9.1-1.3.4-.4.2-.7.6-.7 1h-.2c0-.3.2-.5.3-.6l.6-.3c.6-.1 1-.1 1.4-.1m0 0c-.4 0-.8.1-1.2.3-.2.1-.4.1-.5.3-.1.1-.3.3-.3.4h-.2c0-.5.3-1 .7-1.2.4-.3.9-.4 1.4-.4.5 0 1 .1 1.4.4.4.3.7.7.7 1.2h-.2c0-.2-.1-.3-.3-.4-.1-.1-.3-.2-.5-.3-.2-.2-.6-.3-1-.3"/><path fill="#EAAA58" d="M40.6 4.1c-.4 0-.8 0-1.2-.1l-.6-.3c-.2-.1-.3-.3-.3-.6h.2c0 .4.3.8.7 1 .4.2.8.3 1.3.3s.9-.1 1.3-.3c.4-.2.7-.6.7-1h.2c0 .3-.2.5-.3.6-.4.1-.6.2-.8.3-.4.1-.8.1-1.2.1m0 0c.4 0 .8-.1 1.2-.3.2-.1.4-.1.5-.3.1-.1.3-.3.3-.4h.2c0 .5-.3 1-.7 1.2-.4.3-.9.4-1.4.4-.5 0-1-.1-1.4-.4-.4-.3-.7-.7-.7-1.2h.2c0 .2.1.3.3.4.1.1.3.2.5.3.2.2.6.3 1 .3"/><path fill="#EAAA58" d="M40.6 2.7h1.1c.2 0 .4.1.5.1.1 0 .2 0 .3.1.1 0 .2.1.2.3h-.2c0-.3-.4-.6-.8-.7-.4-.1-.8-.2-1.2-.2-.4 0-.8.1-1.1.2-.3.1-.8.3-.8.7h-.2c0-.2.2-.2.2-.3.1 0 .2-.1.3-.1.2 0 .4-.1.5-.1h1.2m0 0c-.4 0-.7.1-1 .2-.2 0-.3.1-.5.1-.1 0-.4.1-.4.2l-.2-.6v.6c0-.3.2-.5.3-.6l.6-.3c.4-.1.8-.2 1.2-.2.4 0 .8.1 1.2.2l.6.3c.2.1.3.3.3.6v-.6l-.2.6-.4-.2c-.2 0-.3-.1-.5-.1-.3-.1-.6-.2-1-.2"/><path fill="#EAAA58" d="M40.6 4.1c.4 0 .8-.1 1.1-.3.3-.1.8-.3.8-.7h.2c0 .2-.2.2-.2.3-.1 0-.2.1-.3.1-.2 0-.4.1-.5.1-.4 0-.7.1-1.1.1-.4 0-.7 0-1.1-.1-.2 0-.4-.1-.5-.1-.1 0-.2 0-.3-.1-.1 0-.2-.1-.2-.3h.2c0 .3.4.6.8.7.3.2.7.3 1.1.3m0 0c-.4 0-.8 0-1.2-.1l-.6-.3c-.2-.1-.3-.3-.3-.6v.6l.2-.6.4.2c.2 0 .3.1.5.1.3 0 .7.1 1 .1.4 0 .7 0 1-.1.2 0 .3 0 .5-.1.1 0 .4-.1.4-.2l.2.6v-.6c0 .3-.2.5-.3.6l-.6.3c-.4.1-.8.1-1.2.1"/><path fill="#EAAA58" d="M40.6 3.5c.4 0 .7-.1 1-.2.2 0 .3 0 .5-.1.1 0 .4-.1.4-.2l-.4-.2c-.2 0-.3-.1-.5-.1-.3 0-.7-.1-1-.1-.4 0-.7 0-1 .1-.2 0-.3 0-.5.1-.1 0-.4.1-.4.2l.4.2c.2 0 .3.1.5.1.3.2.7.2 1 .2m0 0c-.7 0-1.5.3-2.1-.4 0-.2.2-.2.2-.3.1 0 .2-.1.3-.1.2 0 .4-.1.5-.1.4 0 .7-.1 1.1-.1.4 0 .7 0 1.1.1.2 0 .4.1.5.1.1 0 .2 0 .3.1.1 0 .2.1.2.3-.6.7-1.4.4-2.1.4"/><path fill="#E7E6E7" d="M24.5 6.1h-.7l.5 1.1 8.7 5.4h.7L25 7.2"/><path fill="#918F90" d="M35 6.5l-4.4-.2 4 .2 7 6.1h.7"/><path fill="#7B7979" d="M24.5 6.1l6.1.2"/><path fill="#D3D2D2" d="M30.6 6.3l-6.1-.2.5 1.1 8.7 5.4h7.9l-7-6.1"/><path fill="#DEDDDE" d="M20 2.9c0 .1-.1.2-.2.2h-.6c-.1 0-.2-.1-.2-.2V1.7c0-.1.1-.2.2-.2h.6c.1 0 .2.1.2.2v1.2z"/><path fill="#706D6E" d="M19.5 1.7H19v1.2c0 .1.1.2.2.2h.4V2c.1-.2 0-.3-.1-.3"/><path fill="#231F20" d="M19.6 3.1V2c0-.1-.1-.2-.2-.2H19v1.1c0 .1.1.2.2.2h.4z"/><path fill="#D0EAF3" d="M16.4 1.3H19c-.3-.3-.8-.5-1.3-.5s-.9.2-1.3.5"/><path fill="#D3D4D4" d="M15.9 2.6c0 1 .8 1.8 1.8 1.8s1.8-.8 1.8-1.8c0-.2 0-.4-.1-.5H16c-.1.1-.1.3-.1.5"/><path fill="#BDBCBC" d="M16.4 1.3c-.2.2-.4.5-.5.8h3.5c-.1-.3-.2-.6-.5-.8h-2.5z"/><path fill="#E9E9E9" d="M16.4 1.3c-.2.2-.4.5-.5.8h.4c.1-.3.2-.6.4-.8h-.3z"/><path fill="#696767" d="M19 1.3h-.3c.2.2.3.5.4.8h.4c-.1-.3-.2-.6-.5-.8"/><path fill="#848282" d="M18.2 1.3c.1.2.1.5.2.8h.8c-.1-.3-.2-.6-.4-.8h-.6z"/><path fill="#D3D2D2" d="M16.7 1.3c-.2.2-.3.5-.4.8h.8c0-.3.1-.6.2-.8h-.6z"/><path fill="#A7A5A6" d="M17.3 1.3c-.1.2-.1.5-.2.8h1.2c0-.3-.1-.6-.2-.8h-.8z"/><path fill="#E0E1E1" d="M13.3 4.2s.5-1.6 2.4-1.6h6.6s2.8.1 2.8 1.7c0 1.6-10.9.1-10.9.1l-.9-.2z"/><path fill="#C8CAC9" d="M4.1 5.3s6.1-1.4 12-1.4h7.6s5.7.4 8.4 1.4c2.7.9-18 .8-18 .8l-10-.5v-.3z"/><path fill="#E9EAE9" d="M0 5.3l.9 2h34.4l.8-2"/><g opacity=".6"><defs><path id="a" d="M0 5.3h36.1v2H0z"/></defs><clipPath id="b"><use xlink:href="#a" overflow="visible"/></clipPath><g opacity=".8" clip-path="url(#b)"><defs><path id="c" d="M0 5.3h2.2v2H0z"/></defs><clipPath id="d"><use xlink:href="#c" overflow="visible"/></clipPath><path clip-path="url(#d)" fill="#E9EAE9" d="M0 5.3l.9 2h1.3l-.8-2"/></g><g opacity=".8" clip-path="url(#b)"><defs><path id="e" d="M33.9 5.3h2.2v2h-2.2z"/></defs><clipPath id="f"><use xlink:href="#e" overflow="visible"/></clipPath><path clip-path="url(#f)" fill="#A8AAA8" d="M34.7 5.3l-.8 2h1.4l.8-2"/></g><g opacity=".5" clip-path="url(#b)"><defs><path id="g" d="M30.5 5.3h4.1v2h-4.1z"/></defs><clipPath id="h"><use xlink:href="#g" overflow="visible"/></clipPath><path clip-path="url(#h)" fill="#A8AAA8" d="M31.1 5.3l-.6 2h3.4l.8-2"/></g><g opacity=".5" clip-path="url(#b)"><defs><path id="i" d="M1.4 5.3h4.2v2H1.4z"/></defs><clipPath id="j"><use xlink:href="#i" overflow="visible"/></clipPath><path clip-path="url(#j)" fill="#E9EAE9" d="M1.4 5.3l.8 2h3.4l-.6-2"/></g><g opacity=".2" clip-path="url(#b)"><defs><path id="k" d="M24.6 5.3h6.6v2h-6.6z"/></defs><clipPath id="l"><use xlink:href="#k" overflow="visible"/></clipPath><path clip-path="url(#l)" fill="#A8AAA8" d="M24.9 5.3l-.3 2h5.9l.6-2"/></g><g opacity=".2" clip-path="url(#b)"><defs><path id="m" d="M5 5.3h6.6v2H5z"/></defs><clipPath id="n"><use xlink:href="#m" overflow="visible"/></clipPath><path clip-path="url(#n)" fill="#E9EAE9" d="M5 5.3l.6 2h6l-.3-2"/></g><g opacity=".05" clip-path="url(#b)"><defs><path id="o" d="M11.3 5.3h13.6v2H11.3z"/></defs><clipPath id="p"><use xlink:href="#o" overflow="visible"/></clipPath><path clip-path="url(#p)" fill="#E9EAE9" d="M11.3 5.3l.3 2h13l.3-2"/></g></g><path fill="#EFF4F6" d="M6 6c0 .1 0 .1-.1.1h-.4c-.1 0-.2 0-.2-.1s.1-.2.2-.2h.4c.1 0 .1.1.1.2"/><path fill="none" stroke="#515551" stroke-width=".03" stroke-miterlimit="10" d="M6 6c0 .1 0 .1-.1.1h-.4c-.1 0-.2 0-.2-.1s.1-.2.2-.2h.4c.1 0 .1.1.1.2z"/><path fill="#515551" d="M5.4 6c0-.1.1-.2.2-.2h-.1c-.1 0-.2.1-.2.2s.1.2.2.2h.1c-.1-.1-.2-.1-.2-.2"/><path fill="#EFF4F6" d="M7.2 6c0 .1-.1.2-.2.2h-.4c-.1-.1-.2-.1-.2-.2s.1-.2.2-.2H7c.1 0 .2.1.2.2"/><path fill="none" stroke="#515551" stroke-width=".03" stroke-miterlimit="10" d="M7.2 6c0 .1-.1.2-.2.2h-.4c-.1-.1-.2-.1-.2-.2s.1-.2.2-.2H7c.1 0 .2.1.2.2z"/><path fill="#515551" d="M6.5 6c0-.1.1-.2.2-.2h-.1c-.1 0-.2.1-.2.2s.1.2.2.2h.1c-.1-.1-.2-.1-.2-.2"/><path fill="#EFF4F6" d="M28.2 6c0 .1-.1.2-.2.2h-.4c-.1 0-.2-.1-.2-.2s.1-.2.2-.2h.4c.1 0 .2.1.2.2"/><path fill="none" stroke="#515551" stroke-width=".03" stroke-miterlimit="10" d="M28.2 6c0 .1-.1.2-.2.2h-.4c-.1 0-.2-.1-.2-.2s.1-.2.2-.2h.4c.1 0 .2.1.2.2z"/><path fill="#515551" d="M27.5 6c0-.1.1-.2.2-.2h-.1c-.1 0-.2.1-.2.2s.1.2.2.2h.1c-.1-.1-.2-.1-.2-.2"/><path fill="#EFF4F6" d="M29.3 6c0 .1-.1.2-.2.2h-.4c-.1 0-.2-.1-.2-.2s.1-.2.2-.2h.4c.1 0 .2.1.2.2"/><path fill="none" stroke="#515551" stroke-width=".03" stroke-miterlimit="10" d="M29.3 6c0 .1-.1.2-.2.2h-.4c-.1 0-.2-.1-.2-.2s.1-.2.2-.2h.4c.1 0 .2.1.2.2z"/><path fill="#515551" d="M28.6 6c0-.1.1-.2.2-.2h-.1c-.1 0-.2.1-.2.2s.1.2.2.2h.1c-.1-.1-.2-.1-.2-.2"/><path fill="#EFF4F6" d="M26.9 6.8c0 .1-.1.2-.2.2h-.4c-.1 0-.2-.1-.2-.2s.1-.2.2-.2h.4c.1 0 .2.1.2.2"/><path fill="none" stroke="#515551" stroke-width=".03" stroke-miterlimit="10" d="M26.9 6.8c0 .1-.1.2-.2.2h-.4c-.1 0-.2-.1-.2-.2s.1-.2.2-.2h.4c.1 0 .2.1.2.2z"/><path fill="#515551" d="M26.2 6.8c0-.1.1-.2.2-.2h-.1c-.1 0-.2.1-.2.2s.1.2.2.2h.1c-.1 0-.2-.1-.2-.2"/><path fill="#EFF4F6" d="M30.5 6c0 .1-.1.2-.2.2h-.4c-.1 0-.2-.1-.2-.2s.1-.2.2-.2h.4c.1 0 .2.1.2.2"/><path fill="none" stroke="#515551" stroke-width=".03" stroke-miterlimit="10" d="M30.5 6c0 .1-.1.2-.2.2h-.4c-.1 0-.2-.1-.2-.2s.1-.2.2-.2h.4c.1 0 .2.1.2.2z"/><path fill="#515551" d="M29.8 6c0-.1.1-.2.2-.2h-.1c-.1 0-.2.1-.2.2s.1.2.2.2h.1c-.1-.1-.2-.1-.2-.2"/><path fill="#EFF4F6" d="M31.6 6c0 .1-.1.2-.2.2H31c-.1 0-.2-.1-.2-.2s.1-.2.2-.2h.4c.1 0 .2.1.2.2"/><path fill="none" stroke="#515551" stroke-width=".03" stroke-miterlimit="10" d="M31.6 6c0 .1-.1.2-.2.2H31c-.1 0-.2-.1-.2-.2s.1-.2.2-.2h.4c.1 0 .2.1.2.2z"/><path fill="#515551" d="M30.9 6c0-.1.1-.2.2-.2H31c-.1 0-.2.1-.2.2s.1.2.2.2h.1c-.1-.1-.2-.1-.2-.2"/><path fill="#EFF4F6" d="M4.4 6.8c0 .1 0 .2-.2.2h-.3c-.1 0-.2-.1-.2-.2s.1-.2.2-.2h.4c.1 0 .1.1.1.2"/><path fill="none" stroke="#515551" stroke-width=".03" stroke-miterlimit="10" d="M4.4 6.8c0 .1 0 .2-.2.2h-.3c-.1 0-.2-.1-.2-.2s.1-.2.2-.2h.4c.1 0 .1.1.1.2z"/><path fill="#515551" d="M3.8 6.8c0-.1.1-.2.2-.2h-.1c-.1 0-.2.1-.2.2s.1.2.2.2H4c-.1 0-.2-.1-.2-.2"/><path fill="#EFF4F6" d="M5.5 6.8c0 .1 0 .2-.1.2H5c-.1 0-.2-.1-.2-.2s.1-.2.2-.2h.4c.1 0 .1.1.1.2"/><path fill="none" stroke="#515551" stroke-width=".03" stroke-miterlimit="10" d="M5.5 6.8c0 .1 0 .2-.1.2H5c-.1 0-.2-.1-.2-.2s.1-.2.2-.2h.4c.1 0 .1.1.1.2z"/><path fill="#515551" d="M4.9 6.8c0-.1.1-.2.2-.2H5c-.1 0-.2.1-.2.2s.1.2.2.2h.1c-.1 0-.2-.1-.2-.2"/><path fill="#4A4E4B" d="M17.4 4.7c0-.1.1-.3.3-.3.1 0 .3.1.3.3h-.6zM18.3 4.7c0-.1.1-.3.3-.3.1 0 .3.1.3.3h-.6z"/><defs><path id="q" d="M4.1 5.2h28v.1h-28z"/></defs><clipPath id="r"><use xlink:href="#q" overflow="visible"/></clipPath><path clip-path="url(#r)" fill="#BFBEBE" d="M32 5.3H4c4.7-.1 9.3-.1 14-.1 4.7 0 9.3 0 14 .1z"/><path fill="#C8CAC9" d="M18.8 7.3h-8s1.2.1 2.3.7c1.1.5 2.4 1.5 4 1.5h3.6c1.5 0 2.9-1 4-1.5s2.3-.7 2.3-.7h-8.2z"/><path fill="#929493" d="M17.1 9.5h3.5v.4h-3.5z"/><path fill="#F8F9F8" d="M19.9 9.9c0 .4-.5.6-1.1.6-.6 0-1.1-.3-1.1-.6h2.2z"/><path fill="#D6E1E7" d="M19.7 9.9c0 .4-.4.6-.9.6.6 0 1.1-.3 1.1-.6h-.2z"/><path fill="#E6EDF0" d="M19.7 9.9h-.1c0 .4-.3.6-.8.6.5 0 .9-.2.9-.6"/><defs><path id="s" d="M13.7 8.4h10.1v.1H13.7z"/></defs><clipPath id="t"><use xlink:href="#s" overflow="visible"/></clipPath><path clip-path="url(#t)" fill="#7B7979" d="M23.8 8.4H13.7s.1 0 .1.1h9.9c0-.1.1-.1.1-.1"/><path fill="#7B7979" d="M23.8 8.4h-10s.1 0 .1.1h9.8c0-.1 0-.1.1-.1"/><path fill="#D3D2D2" d="M29.9 13.4v5.8c.5.7 2.2.6 2.2.6v-7c-.1 0-1.8-.1-2.2.6"/><path fill="#9E7E64" d="M31.7 12.8c.1 0 .1 0 0 0l.1 3.5v3.5h-.1.3v-7h-.3"/><path fill="#D3D2D2" d="M32 12.5V20s3.8 1.1 7.8 1.1 6.3-.7 8.5-1c2.2-.2 4.4-.5 5.7-.5 0 0 1.9-2 5.6-2 0 0-.1-1.3.3-1.8s1.6-1.4 1.6-1.4-12-1.2-14.9-1.5-9.8-1.1-14.6-.4"/><g opacity=".5"><defs><path id="u" d="M29.9 18.3h2.2v1.4h-2.2z"/></defs><clipPath id="v"><use xlink:href="#u" overflow="visible"/></clipPath><path clip-path="url(#v)" fill="#D3D2D2" d="M29.9 18.3v.9c.5.7 2.2.6 2.2.6v-1c-.1 0-1.8 0-2.2-.5"/></g><g opacity=".5"><defs><path id="w" d="M29.9 12.8h2.2v1.4h-2.2z"/></defs><clipPath id="x"><use xlink:href="#w" overflow="visible"/></clipPath><path clip-path="url(#x)" fill="#D3D2D2" d="M29.9 13.4v.9c.5-.5 2.2-.4 2.2-.4v-1c-.1-.1-1.8-.2-2.2.5"/></g><g opacity=".3"><defs><path id="y" d="M29.9 17.1h2.2v1.7h-2.2z"/></defs><clipPath id="z"><use xlink:href="#y" overflow="visible"/></clipPath><path clip-path="url(#z)" fill="#D3D2D2" d="M29.9 17.1v1.2c.5.5 2.2.4 2.2.4v-1.5c-.1.1-1.8.1-2.2-.1"/></g><g opacity=".3"><defs><path id="A" d="M29.9 13.8h2.2v1.7h-2.2z"/></defs><clipPath id="B"><use xlink:href="#A" overflow="visible"/></clipPath><path clip-path="url(#B)" fill="#D3D2D2" d="M29.9 14.2v1.2c.5-.2 2.2-.2 2.2-.2v-1.5c-.1.1-1.8.1-2.2.5"/></g><path fill="#918F90" d="M54.1 19.4c-1.3 0-3.4.2-5.7.5-2.2.2-4.5.9-8.5.9s-7.8-1-7.8-1v.2s3.8 1.1 7.8 1.1 6.3-.7 8.5-1c2.2-.2 4.4-.5 5.7-.5 0 0 1.9-2 5.6-2v-.1c-3.8.1-5.6 1.9-5.6 1.9"/><g opacity=".35"><defs><path id="C" d="M32 12.2h29.5v2.4H32z"/></defs><clipPath id="D"><use xlink:href="#C" overflow="visible"/></clipPath><path clip-path="url(#D)" fill="#D3D2D2" d="M46.7 13.4c2.7.3 12.9 1.2 14.6 1.3.2-.1.3-.2.3-.2s-12-1.2-14.9-1.5c-2.9-.3-9.8-1.2-14.6-.5v.4c4.7-.6 11.7.2 14.6.5"/></g><path fill="#72583C" d="M28.7 14h-.3v4.5h.3c.5 0 .8-1 .8-2.3 0-1.2-.3-2.2-.8-2.2"/><path fill="#72583C" d="M27.6 16.3l1 .2v-.4"/><g opacity=".8"><defs><path id="E" d="M28.7 16.3h.8v2h-.8z"/></defs><clipPath id="F"><use xlink:href="#E" overflow="visible"/></clipPath><path clip-path="url(#F)" fill="#72583C" d="M28.7 17.6v.7c.5 0 .8-.9.8-2 0 .7-.3 1.3-.8 1.3"/></g><g opacity=".8"><defs><path id="G" d="M28.7 14.2h.8v2h-.8z"/></defs><clipPath id="H"><use xlink:href="#G" overflow="visible"/></clipPath><path clip-path="url(#H)" fill="#72583C" d="M29.5 16.3c0-1.1-.4-2-.8-2v.7c.5-.1.8.5.8 1.3"/></g><g opacity=".8"><defs><path id="I" d="M28.4 14.2h.3v.7h-.3z"/></defs><clipPath id="J"><use xlink:href="#I" overflow="visible"/></clipPath><path clip-path="url(#J)" fill="#72583C" d="M28.4 14.2h.3v.7h-.3z"/></g><g opacity=".8"><defs><path id="K" d="M28.4 17.6h.3v.7h-.3z"/></defs><clipPath id="L"><use xlink:href="#K" overflow="visible"/></clipPath><path clip-path="url(#L)" fill="#72583C" d="M28.4 17.6h.3v.7h-.3z"/></g><g opacity=".8"><defs><path id="M" d="M27.6 16.1h.8v.1h-.8z"/></defs><clipPath id="N"><use xlink:href="#M" overflow="visible"/></clipPath><path clip-path="url(#N)" fill="#72583C" d="M28.4 16.1l-.8.2.8-.1"/></g><g opacity=".8"><defs><path id="O" d="M27.6 16.3h.8v.1h-.8z"/></defs><clipPath id="P"><use xlink:href="#O" overflow="visible"/></clipPath><path clip-path="url(#P)" fill="#72583C" d="M27.6 16.3l.8.1"/></g><g opacity=".5"><defs><path id="Q" d="M28.7 14.9h.8v1.4h-.8z"/></defs><clipPath id="R"><use xlink:href="#Q" overflow="visible"/></clipPath><path clip-path="url(#R)" fill="#72583C" d="M28.7 14.9v.9c.5 0 .8.2.8.5 0-.8-.3-1.4-.8-1.4"/></g><g opacity=".5"><defs><path id="S" d="M28.7 16.3h.8v1.4h-.8z"/></defs><clipPath id="T"><use xlink:href="#S" overflow="visible"/></clipPath><path clip-path="url(#T)" fill="#72583C" d="M28.7 16.7v.9c.5 0 .8-.6.8-1.4 0 .3-.3.5-.8.5"/></g><g opacity=".5"><defs><path id="U" d="M28.4 14.9h.3v.9h-.3z"/></defs><clipPath id="V"><use xlink:href="#U" overflow="visible"/></clipPath><path clip-path="url(#V)" fill="#72583C" d="M28.4 14.9h.3v.9h-.3z"/></g><g opacity=".5"><defs><path id="W" d="M28.4 16.7h.3v.9h-.3z"/></defs><clipPath id="X"><use xlink:href="#W" overflow="visible"/></clipPath><path clip-path="url(#X)" fill="#72583C" d="M28.4 16.7h.3v.9h-.3z"/></g><g opacity=".5"><defs><path id="Y" d="M27.6 16.2h.8v.1h-.8z"/></defs><clipPath id="Z"><use xlink:href="#Y" overflow="visible"/></clipPath><path clip-path="url(#Z)" fill="#72583C" d="M28.4 16.2l-.8.1h.8"/></g><g opacity=".5"><defs><path id="aa" d="M27.6 16.3h.8v.1h-.8z"/></defs><clipPath id="ab"><use xlink:href="#aa" overflow="visible"/></clipPath><path clip-path="url(#ab)" fill="#72583C" d="M28.4 16.3h-.8l.8.1"/></g><g opacity=".1"><defs><path id="ac" d="M28.7 15.8h.8v.9h-.8z"/></defs><clipPath id="ad"><use xlink:href="#ac" overflow="visible"/></clipPath><path clip-path="url(#ad)" fill="#72583C" d="M28.7 15.8v.9c.5 0 .8-.2.8-.5s-.3-.4-.8-.4"/></g><g opacity=".1"><defs><path id="ae" d="M27.6 16.3h.8v.1h-.8z"/></defs><clipPath id="af"><use xlink:href="#ae" overflow="visible"/></clipPath><path clip-path="url(#af)" fill="#72583C" d="M28.4 16.3h-.8.8"/></g><g opacity=".1"><defs><path id="ag" d="M28.4 15.8h.3v.9h-.3z"/></defs><clipPath id="ah"><use xlink:href="#ag" overflow="visible"/></clipPath><path clip-path="url(#ah)" fill="#72583C" d="M28.4 15.8V16.7h.3v-.9"/></g><path fill="#72583C" d="M29.7 15.4h.1v1.8h-.1zM29.5 16.1h.2v.4h-.2z"/><g opacity=".6"><defs><path id="ai" d="M32.2 13.8h26.4v1.8H32.2z"/></defs><clipPath id="aj"><use xlink:href="#ai" overflow="visible"/></clipPath><path clip-path="url(#aj)" fill="#D3D2D2" d="M32.2 15.1c2.1-.9 4.3-1.1 6.5-1.2 2.2-.1 4.5.2 6.6.4l6.6.6c2.2.2 4.4.4 6.6.7-2.2.1-4.4 0-6.6 0-2.2-.1-4.4-.2-6.6-.4-2.2-.2-4.4-.5-6.6-.6-1.1 0-2.2 0-3.3.1-1 0-2.1.1-3.2.4"/></g><path fill="#DFE8EC" d="M31.6 9.5h.7v.3h-.7zM32.6 9.5h.7v.3h-.7zM33.6 9.5h.7v.3h-.7zM34.5 9.5h.7v.3h-.7zM34.5 8.8h.7v.3h-.7zM34.5 8.2h.7v.3h-.7z"/><path fill="#F9F7F2" d="M31.3 15.7H33v.1h-1.7z"/><path fill="#E0D4B8" d="M31.3 16.8H33v.1h-1.7z"/><path fill="#F0EBDE" d="M31.3 15.8H33v.9h-1.7z"/><defs><path id="ak" d="M31.3 15.8h.3v1h-.3z"/></defs><clipPath id="al"><use xlink:href="#ak" overflow="visible"/></clipPath><path clip-path="url(#al)" fill="#72583C" d="M31.3 15.8c.2 0 .3.2.3.5s-.2.5-.3.5"/><path fill="#B69C5B" d="M31.6 16.3c0 .2-.1.4-.3.4s-.3-.2-.3-.4.1-.4.3-.4.3.2.3.4"/><path fill="#D3D2D2" d="M48.3 5.1h3.6v9.7h-3.6z"/><path fill="#E9E9E9" d="M48.3 5.1h.1v9.7h-.1z"/><path fill="#AEACAC" d="M51.8 5.1h.1v9.7h-.1z"/><path fill="#939192" d="M48.3 14.7h3.6c-.6.1-1.2.1-1.8.1-.6 0-1.2 0-1.8-.1z"/><path fill="#D3D2D2" d="M41.9.8s-1.3 0-1.3.4v4c0 .4 1.3.4 1.3.4l38.5-.4v-4L41.9.8z"/><path fill="#EBEBEB" d="M41.9.8s-1.3 0-1.3.4v.6c0-.3 1.3-.3 1.3-.3l38.5.3v-.6L41.9.8z"/><path fill="#B2B1B1" d="M40.6 4.5v.6c0 .4 1.3.4 1.3.4l38.5-.4v-.6l-38.5.3s-1.3 0-1.3-.3"/><path fill="#DCDBDB" d="M40.6 1.7v.7c0-.1 1.3-.1 1.3-.1l38.5.1v-.6l-38.5-.3s-1.3 0-1.3.2"/><path fill="#C6C5C5" d="M40.6 3.8v.7c0 .3 1.3.3 1.3.3l38.5-.3v-.7L41.9 4s-1.3 0-1.3-.2"/><path fill="#DFE8EC" d="M39.3 16.8h.8v.3h-.8zM40.4 16.8h.8v.3h-.8zM41.5 16.8h.8v.3h-.8zM42.6 16.8h.8v.3h-.8zM45.1 16.8h.8v.3h-.8zM46.1 16.8h.8v.3h-.8zM47.1 16.8h.8v.3h-.8zM38.8 14.7h.8v.3h-.8zM39.7 14.7h.8v.3h-.8zM38.1 18.7h.8v.3h-.8zM51 16.1h.8v.3H51zM52.4 16.1h.8v.3h-.8zM54 16.1h.8v.3H54zM53.2 15.2h.8v.3h-.8zM42.4 14.7h.8v.3h-.8zM43.5 14.7h.8v.3h-.8z"/><path fill="#4F4C4D" d="M42.4.8h1.1v4.7h-1.1z"/><path fill="#353132" d="M42.4.8h.3v4.7h-.3zM80.4 5.1h.6s0-.8.4-1.5c.5-.8 1.2-1.7 1.2-1.7s.4-.4.4-.7h-2.6v3.9z"/><path fill="#AEACAC" d="M75.7 2.4H79v1.5h-3.3z"/><path fill="#918F90" d="M75.8 2.5H79v-.1h-3.3v1.5h.1"/><path fill="#AEACAC" d="M69.8 1.3h8.7L77.4.2h-6.3"/><path fill="#CAC9C9" d="M69.4 1.1l1.1-.9s.4-.2 1-.2h5.6s.5 0 .8.3l1 1s-.2.3-.4.2c-.3-.1-.9-.9-.9-.9s-.1-.2-.5-.2h-5.6s-.6.1-.8.4-.8.7-.8.7-.6 0-.5-.4"/><path fill="#B52126" d="M46.8 2.6l.3 1.1h2.1l-.3-1.1"/><path fill="#EBD467" d="M47.9 2.5l-.4.7.2.5h.4l-.1-.6.4-.6"/><path fill="#B52126" d="M49.2 2.6l.3 1.1h7.9v-.9M67.6 3v.7h5.7l-.2-.5"/><path fill="#C8C7C7" d="M41.8 3.8h3.4v1.3h-3.4z"/><g><defs><path id="am" d="M41.9 3.9h3v.5h-3z"/></defs><clipPath id="an"><use xlink:href="#am" overflow="visible"/></clipPath><path clip-path="url(#an)" fill="#C8C7C7" d="M41.9 3.9c.1.1.3.2.4.3h-.1 2c.2 0 .4 0 .7.1-.2 0-.4.1-.7.1h-2c-.2-.2-.2-.4-.3-.5"/></g><path fill="#231F20" d="M45.1 3.9l-.3.3V5h.3"/><path fill="#C8C7C7" d="M45.1 5.5v-.1h-3.3v.1l.3.4h2.8l.2-.4"/><path fill="#B52126" d="M33.7 15.8l.2.6h1.9l-.2-.6M35.9 15.8l.1.6h5.8v-.1h-5.2l-.1-.1h10.7V16H36.5l-.1-.1h5.4v-.1"/></svg>