<svg xmlns="http://www.w3.org/2000/svg" xmlns:xlink="http://www.w3.org/1999/xlink" width="69.5" height="53.1" viewBox="0 0 69.5 53.1"><path fill="none" stroke="#EBD467" stroke-width=".805" stroke-miterlimit="10" d="M7.4 7.9c-.2-1-.7-1.7-1.1-2.6-.3-.8-.5-1.6-.8-2.3C5 2 4.3 1 3.3.6 2.1.1.9.6.5 1.9 0 3.3 1.6 4.6 2.6 5.2c.9.5 1.8.8 2.7 1.3.6.4 1.3 1.1 1.9 1.3"/><path fill="#393536" d="M28.8 6.3s.1-.9-.6-.7c-.7.2-20 1.7-20 1.7s-1.1.3-1 .8c0 .2.1.6.2 1.2l21.5-2c-.1-.6-.1-1-.1-1"/><path fill="#444142" d="M68.4 45.2s-.5-2-1.2-1.9h-.5c-2.5.4-6.6 1-10.7 1.5-6.3.8-15.2-.2-15.2-.2l-2.5-.1-13.8-1.1H6.6c-1.1 0-.9 1.8-.9 1.8v.2h18.8l13.8 1.1 2.5.1s8.9 1 15.2.2c4.1-.5 8.2-1.1 10.7-1.5h1.1l.6-.1z"/><defs><path id="a" d="M6.6 43.2h60.5v2.1H6.6z"/></defs><clipPath id="b"><use xlink:href="#a" overflow="visible"/></clipPath><path clip-path="url(#b)" fill="#444142" d="M67.2 43.4h-.5c-3.5.6-7 1.2-10.5 1.6-3.5.4-7.1.4-10.6.2-1.8-.1-3.5-.2-5.3-.4-1.8-.1-3.5-.2-5.3-.4l-10.6-.9h-8.9l-8.9-.1 8.9-.1h8.9l10.7.7c1.8.1 3.5.3 5.3.4 1.8.2 3.5.3 5.3.4 3.5.2 7.1.3 10.6-.1s7-.9 10.5-1.4l.4.1z"/><path fill="#B69C5B" d="M57.4 51.6l.7-.2.4.4c5.6-1.5 10.9-3.2 10.9-3.2l-1.1-3.3h-1.4c-2.5.4-6.6 1-10.7 1.5-6.3.7-15.2-.3-15.2-.3l-2.5-.1-13.8-1.1h-19V51.9s.1 1.2 1 1.2h1l.4-.7h1.1l.4.7h2.5l.4-.7h1.1l.4.7h2.5l.4-.7H18l.4.7h1l2.9-3.9 17.9 1 .8 1.7s.6.1 1.7.3l.4-.5.8.1.3.6c.7.1 1.4.2 2.2.3l.3-.4h.8l.2.5c.8.1 1.6.1 2.4.1l.3-.5h.8l.3.5c.8 0 1.6-.1 2.4-.1l.2-.4.8-.1.3.3c.5-.1.9-.2 1.3-.3.4-.1.7-.2 1.1-.3l-.2-.4z"/><defs><path id="c" d="M7.4 6.2h21.2v2.4H7.4z"/></defs><clipPath id="d"><use xlink:href="#c" overflow="visible"/></clipPath><path clip-path="url(#d)" fill="none" stroke="#706D6E" stroke-width=".379" stroke-linecap="round" stroke-miterlimit="10" d="M7.6 8.3h.3"/><path clip-path="url(#d)" fill="none" stroke="#706D6E" stroke-width=".379" stroke-linecap="round" stroke-miterlimit="10" stroke-dasharray="0.524,0.785" d="M8.7 8.2l19.1-1.8"/><path clip-path="url(#d)" fill="none" stroke="#706D6E" stroke-width=".379" stroke-linecap="round" stroke-miterlimit="10" d="M28.2 6.4h.3"/><path fill="#231F20" d="M6.7 44.3c0 .2-.1.3-.3.3-.2 0-.3-.1-.3-.3 0-.2.1-.3.3-.3.2 0 .3.2.3.3M8.9 44.3c0 .2-.1.3-.3.3s-.3-.1-.3-.3c0-.2.1-.3.3-.3s.3.2.3.3M10 44.3c0 .2-.1.3-.3.3s-.3-.1-.3-.3c0-.2.1-.3.3-.3s.3.2.3.3M12.1 44.3c0 .2-.1.3-.3.3s-.3-.1-.3-.3.1-.3.3-.3.3.2.3.3M13.2 44.3c0 .2-.1.3-.3.3s-.3-.1-.3-.3.1-.3.3-.3.3.2.3.3M15.3 44.3c0 .2-.1.3-.3.3s-.3-.1-.3-.3c0-.2.1-.3.3-.3s.3.2.3.3M16.4 44.3c0 .2-.1.3-.3.3-.2 0-.3-.1-.3-.3 0-.2.1-.3.3-.3.2 0 .3.2.3.3M18.6 44.3c0 .2-.1.3-.3.3s-.3-.1-.3-.3.1-.3.3-.3.3.2.3.3M19.6 44.3c0 .2-.1.3-.3.3s-.3-.1-.3-.3.1-.3.3-.3.3.2.3.3M21.8 44.3c0 .2-.1.3-.3.3-.2 0-.3-.1-.3-.3 0-.2.1-.3.3-.3.1 0 .3.2.3.3M22.9 44.3c0 .2-.1.3-.3.3s-.3-.1-.3-.3c0-.2.1-.3.3-.3s.3.2.3.3M25 44.3c0 .2-.1.3-.3.3s-.3-.1-.3-.3.1-.3.3-.3.3.2.3.3M26.1 44.4c0 .2-.1.3-.3.3s-.3-.1-.3-.3.1-.3.3-.3.3.1.3.3M28.2 44.6c0 .2-.1.3-.3.3s-.3-.1-.3-.3.1-.3.3-.3.3.1.3.3M29.3 44.6c0 .2-.1.3-.3.3s-.3-.1-.3-.3.1-.3.3-.3.3.2.3.3M31.5 44.9c0 .2-.1.3-.3.3s-.3-.1-.3-.3.1-.3.3-.3.3.1.3.3M32.5 45c0 .2-.1.3-.3.3-.2 0-.3-.1-.3-.3 0-.2.1-.3.3-.3.2-.1.3.1.3.3M34.6 45.1c0 .2-.1.3-.3.3s-.3-.1-.3-.3.1-.3.3-.3.3.1.3.3M35.7 45.2c0 .2-.1.3-.3.3s-.3-.1-.3-.3.1-.3.3-.3.3.1.3.3M37.9 45.3c0 .2-.1.3-.3.3s-.3-.1-.3-.3.1-.3.3-.3.3.2.3.3M38.9 45.5c0 .2-.1.3-.3.3-.2 0-.3-.1-.3-.3s.1-.3.3-.3c.1 0 .3.1.3.3M41.1 45.6c0 .2-.1.3-.3.3s-.3-.1-.3-.3c0-.2.1-.3.3-.3s.3.1.3.3M42.1 45.7c0 .2-.1.3-.3.3s-.3-.1-.3-.3c0-.2.1-.3.3-.3s.3.1.3.3M44.3 45.9c0 .2-.1.3-.3.3-.2 0-.3-.1-.3-.3s.1-.3.3-.3c.1 0 .3.1.3.3M45.3 46c0 .2-.1.3-.3.3s-.3-.1-.3-.3.1-.3.3-.3.3.1.3.3M47.5 46.1c0 .2-.1.3-.3.3s-.3-.1-.3-.3.1-.3.3-.3.3.1.3.3M48.6 46.1c0 .2-.1.3-.3.3s-.3-.1-.3-.3.1-.3.3-.3.3.1.3.3M50.7 46.2c0 .2-.1.3-.3.3s-.3-.1-.3-.3.1-.3.3-.3.3.1.3.3M51.8 46.2c0 .2-.1.3-.3.3s-.3-.1-.3-.3.1-.3.3-.3.3.1.3.3M53.9 46.1c0 .2-.1.3-.3.3s-.3-.1-.3-.3.1-.3.3-.3.3.1.3.3M55 46c0 .2-.1.3-.3.3s-.3-.1-.3-.3c0-.2.1-.3.3-.3s.3.2.3.3M57.2 45.8c0 .2-.1.3-.3.3-.2 0-.3-.1-.3-.3s.1-.3.3-.3c.1 0 .3.2.3.3M58.2 45.7c0 .2-.1.3-.3.3s-.3-.1-.3-.3.1-.3.3-.3.3.2.3.3M60.3 45.4c0 .2-.1.3-.3.3s-.3-.1-.3-.3.1-.3.3-.3.3.2.3.3M61.4 45.3c0 .2-.1.3-.3.3s-.3-.1-.3-.3.1-.3.3-.3.3.1.3.3M63.5 44.9c0 .2-.1.3-.3.3s-.3-.1-.3-.3.1-.3.3-.3.3.2.3.3M64.6 44.8c0 .2-.1.3-.3.3s-.3-.1-.3-.3.1-.3.3-.3.3.1.3.3M66.7 44.5c0 .2-.1.3-.3.3s-.3-.1-.3-.3.1-.3.3-.3.3.1.3.3"/><path fill="none" stroke="#231F20" stroke-width=".379" stroke-linecap="round" stroke-miterlimit="10" d="M7.6 8.5l.2-.1"/><path fill="none" stroke="#231F20" stroke-width=".379" stroke-linecap="round" stroke-miterlimit="10" stroke-dasharray="0.524,0.785" d="M8.6 8.4l19.2-1.9"/><path fill="none" stroke="#231F20" stroke-width=".379" stroke-linecap="round" stroke-miterlimit="10" d="M28.2 6.5h.2"/><path fill="#444142" d="M60.3 34.3c-7.2.3-12.1-.3-12.8-.4-5.2 0-13.6-3.1-18-5.4-4.4-2.3-4.7-8.1-4.7-8.1l-.5-12.7-17 1.6c.2 1.3.5 3.3.5 3.3s2 10.1.9 16.3c-.9 5.1-2 11-2 14.6h17.6L38 44.6l2.5.1s8.9 1 15.2.2c4.1-.5 8.2-1.1 10.7-1.5h.7c-.2-3.2-1.5-9.3-6.8-9.1"/><path fill="#484546" d="M29.5 28.5c4.4 2.3 12.8 5.4 18 5.4-.7-.1-.3-2.8-2.8-3.3s-9-4.1-9-4.1-6-1.3-6.3-6.4c-.4-4.1-.5-10.5-.5-12.8l-4.5.4.4 12.7s.3 5.8 4.7 8.1"/><path fill="none" stroke="#231F20" stroke-width=".379" stroke-linecap="round" stroke-miterlimit="10" stroke-dasharray="0.537,0.805" d="M24 8l.4 12.7s.4 5.8 4.7 8.1c4.4 2.3 12.8 5.4 18 5.4"/><path fill="none" stroke="#EBD467" stroke-width=".429" stroke-linecap="round" stroke-miterlimit="10" stroke-dasharray="2.147,1.073" d="M6.5 44.3h18.7L39 45.4l2.5.1s8.9 1 15.2.2c4.1-.5 8.2-1.1 10.7-1.5"/><path fill="none" stroke="#231F20" stroke-width=".379" stroke-linecap="round" stroke-miterlimit="10" stroke-dasharray="0.537,0.805" d="M8.9 31.4s10.9 2.8 12.3 10.9M46.9 34.8s-13.7 1.3-13.4 8.5"/><circle fill="none" stroke="#231F20" stroke-width=".365" stroke-linecap="round" stroke-miterlimit="10" cx="26.7" cy="9.9" r=".9"/><path fill="#C6C5C5" d="M27.6 9.9c0 .5-.4 1-.9.9-.5 0-.9-.4-.9-.9s.4-1 .9-1c.5.1 1 .6.9 1m0 0c0-.5-.4-.9-.9-.9s-.9.4-.9.9.4.9.9.9.9-.4.9-.9"/><circle fill="none" stroke="#231F20" stroke-width=".365" stroke-linecap="round" stroke-miterlimit="10" cx="26.7" cy="13.7" r=".9"/><path fill="#C6C5C5" d="M27.6 13.7c0 .5-.4 1-.9.9-.5 0-.9-.4-.9-.9s.4-1 .9-1 1 .5.9 1m0 0c0-.5-.4-.9-.9-.9s-.9.4-.9.9.4.9.9.9.9-.4.9-.9"/><circle fill="none" stroke="#231F20" stroke-width=".365" stroke-linecap="round" stroke-miterlimit="10" cx="26.9" cy="17.3" r=".9"/><path fill="#C6C5C5" d="M27.8 17.3c0 .5-.4 1-.9.9-.5 0-.9-.4-.9-.9s.4-1 .9-.9c.5 0 1 .5.9.9m0 0c0-.5-.4-.9-.9-.9s-.9.4-.9.9.4.9.9.9.9-.4.9-.9"/><circle fill="none" stroke="#231F20" stroke-width=".365" stroke-linecap="round" stroke-miterlimit="10" cx="27.3" cy="21.1" r=".9"/><path fill="#C6C5C5" d="M28.2 21.1c0 .5-.4 1-.9.9-.5 0-.9-.4-.9-.9s.4-1 .9-1 1 .5.9 1m0 0c0-.5-.4-.9-.9-.9s-.9.4-.9.9.4.9.9.9.9-.4.9-.9"/><circle fill="none" stroke="#231F20" stroke-width=".365" stroke-linecap="round" stroke-miterlimit="10" cx="28.9" cy="24.7" r=".9"/><path fill="#C6C5C5" d="M29.8 24.7c0 .5-.4 1-.9.9-.5 0-.9-.4-.9-.9s.4-1 .9-1 .9.5.9 1m0 0c0-.5-.4-.9-.9-.9s-.9.4-.9.9.4.9.9.9c.4 0 .9-.4.9-.9"/><circle fill="none" stroke="#231F20" stroke-width=".365" stroke-linecap="round" stroke-miterlimit="10" cx="31.8" cy="27.2" r=".9"/><path fill="#C6C5C5" d="M32.8 27.2c0 .5-.4 1-.9.9-.5 0-.9-.4-.9-.9s.4-1 .9-.9c.4-.1.9.4.9.9m-.1 0c0-.5-.4-.9-.9-.9s-.9.4-.9.9.4.9.9.9.9-.4.9-.9"/><circle fill="none" stroke="#231F20" stroke-width=".365" stroke-linecap="round" stroke-miterlimit="10" cx="35.3" cy="28.8" r=".9"/><path fill="#C6C5C5" d="M36.2 28.8c0 .5-.4 1-.9.9-.5 0-.9-.4-.9-.9s.4-1 .9-1 .9.5.9 1m0 0c0-.5-.4-.9-.9-.9s-.9.4-.9.9.4.9.9.9c.4 0 .9-.4.9-.9"/><circle fill="none" stroke="#231F20" stroke-width=".365" stroke-linecap="round" stroke-miterlimit="10" cx="38.6" cy="30.2" r=".9"/><path fill="#C6C5C5" d="M39.5 30.2c0 .5-.4 1-.9.9-.5 0-.9-.4-.9-.9s.4-1 .9-1c.5.1 1 .6.9 1m0 0c0-.5-.4-.9-.9-.9s-.9.4-.9.9.4.9.9.9.9-.4.9-.9"/><circle fill="none" stroke="#231F20" stroke-width=".365" stroke-linecap="round" stroke-miterlimit="10" cx="42.2" cy="31.6" r=".9"/><path fill="#C6C5C5" d="M43.1 31.6c0 .5-.4 1-.9.9-.5 0-.9-.4-.9-.9s.4-1 .9-1 .9.5.9 1m0 0c0-.5-.4-.9-.9-.9s-.9.4-.9.9.4.9.9.9c.5-.1.9-.4.9-.9"/><g opacity=".5"><defs><path id="e" d="M20.5 9.8h17.9v25.4H20.5z"/></defs><clipPath id="f"><use xlink:href="#e" overflow="visible"/></clipPath><path clip-path="url(#f)" fill="#C6C5C5" d="M22.4 10c.2 1.5.3 2.9.4 4.3.1 1.4.2 2.8.1 4.1-.1 1.4-.3 2.8 0 4.2.3 1.4.9 2.7 1.8 3.7.9 1.1 1.8 2 2.8 2.9 1 .9 2.1 1.5 3.2 2.2 2.2 1.3 4.8 2.2 7.5 3.3.1 0 .1.1.1.2l-.1.1c-2.9.7-6.1.3-8.9-1.1-1.4-.7-2.6-1.7-3.7-2.9-1.1-1.1-1.8-2.5-2.3-4-.5-1.4-.9-2.8-1.3-4.2-.5-1.4-1.1-2.8-1.4-4.2-.3-1.5-.2-3 0-4.4.3-1.5.6-2.9 1.4-4.2 0-.1.1-.1.2 0 .2-.1.2-.1.2 0z"/></g><g opacity=".5"><defs><path id="g" d="M45.3 41.1h18.6v3.5H45.3z"/></defs><clipPath id="h"><use xlink:href="#g" overflow="visible"/></clipPath><path clip-path="url(#h)" fill="#C6C5C5" d="M63.9 41.2c-1.4.9-2.9 1.4-4.4 1.9-1.5.5-3.1.8-4.6 1.1-1.6.2-3.2.4-4.8.3-.8 0-1.6-.1-2.4-.3-.8-.2-1.7-.4-2.3-.9.8 0 1.6-.2 2.3-.4l2.3-.5c1.5-.3 3-.6 4.6-.8 1.5-.2 3.1-.4 4.7-.5 1.4-.1 3-.1 4.6.1"/></g><g opacity=".5"><defs><path id="i" d="M8.9 34.4H17v4.5H8.9z"/></defs><clipPath id="j"><use xlink:href="#i" overflow="visible"/></clipPath><path clip-path="url(#j)" fill="#C6C5C5" d="M8.9 34.7c.9-.3 1.7-.3 2.6-.2.8.1 1.6.3 2.3.6.7.3 1.4.8 2.1 1.4.3.3.6.6.8 1.1.1.2.2.4.3.7.1.2.1.5-.1.7-.3-.3-.7-.3-1.1-.4l-1.1-.3c-.7-.2-1.4-.4-2.1-.7-.7-.3-1.3-.7-2-1.1-.5-.5-1.1-1-1.7-1.8"/></g><g opacity=".42"><defs><path id="k" d="M8.9 12.2h5v19h-5z"/></defs><clipPath id="l"><use xlink:href="#k" overflow="visible"/></clipPath><path clip-path="url(#l)" fill="#807D7E" d="M8.9 12.2s3.4 16.9 4.8 18.4-3.5 0-3.5 0 .3-13.6-1.3-18.4"/></g><path fill="none" stroke="#231F20" stroke-width="1.342" stroke-linecap="round" stroke-miterlimit="10" d="M26.7 9.9c.2 0 .3-.1.4-.1h.6c.4 0 .8-.1 1.1 0 .4.1.9.1 1 .6 0 .3-.3.4-.5.4M26.6 13.7c.6-.2 1.1-.3 1.7-.4.3-.1.6-.2 1-.2.6.1.8 1.1 0 1.1M26.8 17.3c.4-.3.9-.2 1.3-.4s.8-.3 1.3-.3c.3 0 .7.1.7.5 0 .3-.5.5-.8.5M27.3 21.1c.3-.4 1.1-.4 1.5-.5.4-.1.7-.3 1.2-.3.3 0 .5.1.5.4.1.4 0 .6-.4.6M28.9 24.8c.2-.5.8-.8 1.2-1.1.3-.2.5-.4.8-.7.2-.2.5-.4.7-.2.2.2.1.7-.3.6M31.9 27.2c.1-.4.4-.8.5-1.2.1-.2.2-.5.3-.7.2-.3.4-.6.7-.9M35.2 28.8c.2-.6.4-1.1.7-1.7.1-.2.1-.4.3-.5.1-.1.2-.2.3-.4M38.6 30.3c0-.7.3-1.3.7-2 .1-.2.2-.5.4-.6M42.2 31.5c.1-.6.6-1.2.7-1.9.1-.3.1-.5.2-.7"/></svg>