<svg xmlns="http://www.w3.org/2000/svg" xmlns:xlink="http://www.w3.org/1999/xlink" width="20.3" height="73.8" viewBox="0 0 20.3 73.8"><path fill="#9FBDBE" d="M10.1 73.6c-4.3 0-7.2-.8-8.7-2.4-1.3-1.4-1.3-3-1.2-4v-.4c0-1.7.3-3.7 1.1-6.3.8-2.8.1-7.5 0-8.1-.2-.5-1.1-9.8-1.1-11 0-1 0-4 .1-6.6.1-2.6 1.2-6.7 1.2-6.8v-.1l-.1-.1c-.1 0-.2-.4-.1-.7 0-.9 1-3.7 2-6.6.4-1.2.9-2.5 1.3-3.7C5.9 12.9 6.3 6.7 6.3 6.7v-.1l-.1-.1c-.3-.2-.4-.8-.3-1.2.1-.3.7-3 .8-3.5.8-.6 2.9-.7 3.3-.7h.2c.4 0 2.5 0 3.3.7.1.4.7 3.1.8 3.5.1.4 0 1-.3 1.2v.2c0 .1.4 6.2 1.7 10.2.4 1.2.8 2.4 1.3 3.7 1 2.9 2 5.7 2 6.6 0 .3 0 .7-.1.8l-.1.1v.1s1.1 4.1 1.2 6.8c.1 2.7.1 5.7.1 6.6 0 1.1-.9 10.5-1.1 11-.2.5-.9 5.2 0 8.1.7 2.6 1.1 4.6 1.1 6.3v.4c0 1 .1 2.7-1.2 4-1.6 1.5-4.5 2.2-8.8 2.2"/><path fill="#3E7B7D" d="M10.3 1.3c1.1 0 2.6.2 3.2.6.1.6.7 3.1.8 3.5.1.3 0 .8-.3 1l-.2.1v.2c0 .3.4 6.3 1.7 10.2.4 1.2.8 2.4 1.3 3.7 1 2.8 2 5.6 2 6.6v.6l-.3.1.1.3s1.1 4.1 1.2 6.7c.1 2.7.1 5.7.1 6.6 0 1.1-.9 10.4-1 10.9-.2.6-.9 5.3 0 8.2.7 2.5 1.1 4.5 1.1 6.3v.4c0 1 .1 2.6-1.2 3.9-1.5 1.5-4.4 2.3-8.6 2.3s-7.2-.8-8.7-2.3C.2 69.9.3 68.2.3 67.3v-.4c0-1.7.3-3.7 1.1-6.3.9-2.9.1-7.6 0-8.2-.2-.5-1-9.8-1-10.9 0-1 0-4 .1-6.6.1-2.6 1.2-6.7 1.2-6.7l.1-.3-.3-.1c-.1-.1-.1-.4-.1-.6 0-.9 1-3.8 2-6.5.4-1.2.9-2.5 1.3-3.7C6 13 6.5 6.9 6.5 6.7v-.2l-.2-.1c-.2-.2-.3-.7-.2-1 .1-.4.6-2.9.7-3.5.7-.4 2.1-.6 3.2-.6H10.3m0-.3h-.1-.1c-.6 0-2.8 0-3.6.7 0 0-.7 3.2-.8 3.6s0 1.1.4 1.4c0 0-.4 6.2-1.7 10.1-1.3 4-3.3 9-3.3 10.3 0 0-.1.8.2.9 0 0-1.1 4.1-1.2 6.8-.1 2.7-.1 5.7-.1 6.7s.9 10.5 1.1 11 .9 5.2 0 8C.3 63.3 0 65.3 0 66.8s-1 7 10.1 7 10.1-5.4 10.1-7-.3-3.5-1.1-6.3-.1-7.4 0-8c.2-.6 1.1-10 1.1-11s0-4-.1-6.6c-.1-2.7-1.2-6.9-1.2-6.9.3-.1.2-.9.2-.9-.1-1.4-2-6.4-3.3-10.3-1.3-4-1.7-10.1-1.7-10.1.4-.3.5-1 .4-1.4-.1-.4-.8-3.6-.8-3.6-.8-.7-2.9-.7-3.4-.7"/><defs><path id="a" d="M3.2 7H8v20.7H3.2z"/></defs><clipPath id="b"><use xlink:href="#a" overflow="visible"/></clipPath><path clip-path="url(#b)" fill="#3E7B7D" d="M7.9 7c-.1 1.8-.3 3.6-.5 5.3-.3 1.8-.6 3.5-1.1 5.3-.3.9-.5 1.7-1 2.5s-.8 1.6-1.1 2.4c-.6 1.7-.9 3.4-1.1 5.2 0-1.8.2-3.6.7-5.3.2-.9.6-1.7 1.1-2.5.4-.8.7-1.6.9-2.5.6-1.7.9-3.4 1.2-5.2.3-1.7.6-3.5.9-5.2"/><defs><path id="c" d="M2.1 42.7h1.7v21.4H2.1z"/></defs><clipPath id="d"><use xlink:href="#c" overflow="visible"/></clipPath><path clip-path="url(#d)" fill="#3E7B7D" d="M2.4 42.7c.5 3.6.9 7.2 1.3 10.8.1.9.2 1.8.1 2.7-.1.9-.2 1.8-.4 2.7l-.6 2.7c-.1.2-.1.4-.3.6l-.3.6c-.1.4-.1.9-.2 1.3 0-.5 0-.9.1-1.4 0-.2.1-.5.2-.6.1-.2.1-.4.2-.6.2-.9.4-1.8.5-2.7l.3-2.7c.1-.9 0-1.8-.1-2.7L2.7 48c-.1-1.7-.2-3.5-.3-5.3"/><defs><path id="e" d="M6.4 6h2.1v.5H6.4z"/></defs><clipPath id="f"><use xlink:href="#e" overflow="visible"/></clipPath><path clip-path="url(#f)" fill="#3E7B7D" d="M6.4 6.5c.1-.2.3-.3.5-.3.2-.1.4-.1.6-.2h.6c.2 0 .4.1.5.2-.4.2-.7.2-1 .3h-.5c-.3.1-.5 0-.7 0"/><defs><path id="g" d="M12.9 5.8h5v21.9h-5z"/></defs><clipPath id="h"><use xlink:href="#g" overflow="visible"/></clipPath><path clip-path="url(#h)" fill="#D8E4E5" d="M13.6 5.8v.5c0 .2-.1.4-.3.5l.1-.1c.1 1.8.1 3.6.3 5.3.3 1.8.9 3.5 1.5 5.2l1.8 5.1c.5 1.7 1 3.5.9 5.4h-.1c-.3-1.8-1-3.4-1.6-5.1-.6-1.7-1-3.4-1.5-5.2-.4-1.8-.9-3.5-1.6-5.2-.3-.9-.3-1.8-.3-2.7 0-.9.1-1.8.2-2.7v-.1h.1c.1 0 .2-.2.3-.3.1-.3.1-.4.2-.6z"/><defs><path id="i" d="M11.6 2.7h.3V5h-.3z"/></defs><clipPath id="j"><use xlink:href="#i" overflow="visible"/></clipPath><path clip-path="url(#j)" fill="#D8E4E5" d="M11.8 2.7c.1.4.2.8.2 1.2 0 .4 0 .8-.2 1.2-.1-.4-.2-.8-.2-1.2 0-.4.1-.8.2-1.2"/><defs><path id="k" d="M11.7 6.2h.7v4.9h-.7z"/></defs><clipPath id="l"><use xlink:href="#k" overflow="visible"/></clipPath><path clip-path="url(#l)" fill="#D8E4E5" d="M12.4 6.2l-.3 4.9-.4-4.9"/><defs><path id="m" d="M8 7h.8v5.4H8z"/></defs><clipPath id="n"><use xlink:href="#m" overflow="visible"/></clipPath><path clip-path="url(#n)" fill="#D8E4E5" d="M8 12.2c.3-1.7.6-3.5.7-5.2.1 1.8.1 3.6 0 5.4l-.7-.2z"/><defs><path id="o" d="M12.3 43.9h1.5v21.6h-1.5z"/></defs><clipPath id="p"><use xlink:href="#o" overflow="visible"/></clipPath><path clip-path="url(#p)" fill="#D8E4E5" d="M13.3 43.9c.2 1.8.4 3.6.4 5.4.1 1.8.1 3.6.1 5.4 0 1.8-.1 3.6-.2 5.4-.1 1.8-.2 3.6-.4 5.4-.5-1.8-.6-3.6-.8-5.4-.1-1.8-.2-3.6-.2-5.4 0-1.8.1-3.6.2-5.4.3-1.8.5-3.6.9-5.4"/><defs><path id="q" d="M15.8 42.7h1.7v8.9h-1.7z"/></defs><clipPath id="r"><use xlink:href="#q" overflow="visible"/></clipPath><path clip-path="url(#r)" fill="#D8E4E5" d="M17.2 42.7c.2.8.2 1.5.2 2.3 0 .8 0 1.5-.1 2.2-.2 1.5-.5 2.9-1.2 4.4-.3-.8-.3-1.5-.4-2.3 0-.8 0-1.5.1-2.3.1-.7.3-1.5.5-2.2.3-.7.5-1.4.9-2.1"/><defs><path id="s" d="M17 42.7h1.6v23.1H17z"/></defs><clipPath id="t"><use xlink:href="#s" overflow="visible"/></clipPath><path clip-path="url(#t)" fill="#D8E4E5" d="M18.5 42.7c-.1 2-.2 3.9-.5 5.8l-.4 2.9c-.1.5-.2 1-.3 1.4-.1.5-.1 1-.1 1.4 0 1.9.1 3.9.4 5.8.1 1 .4 1.9.7 2.8.2 1 .4 2 .1 2.9.1-1-.1-1.9-.4-2.9-.1-.5-.3-.9-.4-1.4-.1-.5-.2-1-.3-1.4-.3-1.9-.4-3.9-.3-5.9 0-.5.1-1 .2-1.5s.2-.9.3-1.4c.1-1 .2-1.9.3-2.9.1-1.7.4-3.7.7-5.6z"/><defs><path id="u" d="M.5 69.3h19.2v2.4H.5z"/></defs><clipPath id="v"><use xlink:href="#u" overflow="visible"/></clipPath><path clip-path="url(#v)" fill="#D8E4E5" d="M.6 69.3c1.7.3 3.3.5 4.9.7 1.6.2 3.1.3 4.7.3s3.1-.1 4.7-.2c1.6-.2 3.2-.5 4.9-.7l.1.1c-3 1.5-6.3 2.3-9.6 2.3-1.7 0-3.3-.2-4.9-.6-1.6-.4-3.2-.9-4.7-1.6l-.1-.3z"/><defs><path id="w" d="M.1 16.7h20.1v57.1H.1z"/></defs><clipPath id="x"><use xlink:href="#w" overflow="visible"/></clipPath><path clip-path="url(#x)" fill="#5E411A" d="M20.2 41.5c0-1 0-4-.1-6.6-.1-2.7-1.2-6.9-1.2-6.9.3-.1.2-.9.2-.9-.1-1.3-2-6.3-3.3-10.2-.4-.1-.8-.2-1.2-.2h-9c-.5 0-.9.1-1.3.2-1.3 4-3.2 8.9-3.3 10.2 0 0-.1.8.2.9 0 0-1.1 4.1-1.2 6.8V43c.2 3 .8 9.1 1 9.5.2.6.9 5.2 0 8-.6 1.9-.9 3.4-1 4.7v1.6c0 2 .6 3.8 1.6 5.1 1.4 1.1 3.9 2 8.4 2 4.8 0 7.4-1 8.7-2.3.8-1.2 1.4-2.7 1.4-4.4v-.3c0-1.6-.3-3.5-1.1-6.3s-.1-7.4 0-8c.3-.6 1.2-10.1 1.2-11.1"/><g><defs><path id="y" d="M.9 16.7h19.3v57.1H.9z"/></defs><clipPath id="z"><use xlink:href="#y" overflow="visible"/></clipPath><path clip-path="url(#z)" fill="#5E411A" d="M20.2 66.8c0-1.6-.3-3.5-1.1-6.3s-.1-7.4 0-8c.2-.6 1.1-10 1.1-11s0-4-.1-6.6c-.1-2.7-1.2-6.9-1.2-6.9.3-.1.2-.9.2-.9-.1-1.3-2-6.3-3.3-10.2-.4-.1-.8-.2-1.2-.2H8.3c-1.4 3.9-3.7 11.5-3.5 18.5.3 9.9-.5 7.5-.5 7.5s1.2 10.1 2.5 12.6c1.3 2.4-1.4 10.6-1.4 10.6s-1.7 3.9 1.4 4.6c2.3.5-2.3 1-5.9 0 .2.5.5.9.8 1.3 1.4 1.1 3.9 2 8.4 2 4.8 0 7.4-1 8.7-2.3.8-1.2 1.4-2.7 1.4-4.4v-.3"/></g><g><defs><path id="A" d="M.1 16.7h8.2V71H.1z"/></defs><clipPath id="B"><use xlink:href="#A" overflow="visible"/></clipPath><path clip-path="url(#B)" fill="#E1856C" d="M6.8 70.5c-3.2-.7-1.4-4.6-1.4-4.6s2.8-8.2 1.4-10.6c-1.3-2.4-2.5-12.5-2.5-12.5s.8 2.4.5-7.5c-.2-7 2.1-14.6 3.5-18.5H5.6c-.5 0-.9.1-1.3.2C3 20.9 1.1 25.8 1 27.1c0 0-.1.8.2.9 0 0-1.1 4.1-1.2 6.8V43c.2 3 .8 9.1 1 9.5.2.6.9 5.2 0 8-.6 1.9-.9 3.4-1 4.7v1.5c0 1.4.3 2.7.8 3.8 3.7.9 8.3.5 6 0"/></g><g opacity=".3"><defs><path id="C" d="M3.2 7.2H8v20.7H3.2z"/></defs><clipPath id="D"><use xlink:href="#C" overflow="visible"/></clipPath><path clip-path="url(#D)" fill="#3E7B7D" d="M7.9 7.2c-.1 1.8-.3 3.6-.6 5.3-.3 1.8-.6 3.5-1.1 5.3-.3.9-.5 1.7-.9 2.5-.5.8-.8 1.6-1.1 2.4-.6 1.7-.9 3.4-1 5.2 0-1.8.3-3.6.8-5.3.3-.9.6-1.7 1.1-2.5.4-.8.7-1.6.9-2.5.5-1.7.8-3.5 1.1-5.2.3-1.7.6-3.4.8-5.2"/></g><g><defs><path id="E" d="M6.4 6.3h2.1v.5H6.4z"/></defs><clipPath id="F"><use xlink:href="#E" overflow="visible"/></clipPath><path clip-path="url(#F)" fill="#3E7B7D" d="M6.4 6.8c.1-.2.3-.3.5-.3.2-.1.4-.1.5-.1H8c.2 0 .4.1.5.2-.4.2-.7.2-1 .3H7c-.2-.1-.4-.1-.6-.1"/></g><g><defs><path id="G" d="M12.9 6h5v21.9h-5z"/></defs><clipPath id="H"><use xlink:href="#G" overflow="visible"/></clipPath><path clip-path="url(#H)" fill="#D8E4E5" d="M13.6 6v.5c0 .2-.1.4-.3.5h.1c.1 1.8.1 3.6.3 5.3.3 1.8.9 3.5 1.5 5.2l1.8 5.1c.5 1.7 1 3.5.9 5.4h-.1c-.3-1.8-1-3.4-1.6-5.1-.6-1.7-1-3.4-1.5-5.2-.4-1.8-.9-3.5-1.6-5.2-.3-.9-.3-1.8-.3-2.7 0-.9.1-1.8.2-2.7V7h.1c.1 0 .2-.2.3-.3.1-.3.1-.5.2-.7z"/></g><g><defs><path id="I" d="M11.6 3h.3v2.3h-.3z"/></defs><clipPath id="J"><use xlink:href="#I" overflow="visible"/></clipPath><path clip-path="url(#J)" fill="#D8E4E5" d="M11.8 3c.1.4.2.8.2 1.2 0 .4 0 .8-.2 1.2-.1-.4-.2-.8-.2-1.2 0-.4.1-.8.2-1.2"/></g><g><defs><path id="K" d="M11.7 6.5h.7v4.9h-.7z"/></defs><clipPath id="L"><use xlink:href="#K" overflow="visible"/></clipPath><path clip-path="url(#L)" fill="#D8E4E5" d="M12.4 6.5l-.3 4.9-.4-4.9"/></g><g><defs><path id="M" d="M8 7.2h.8v5.4H8z"/></defs><clipPath id="N"><use xlink:href="#M" overflow="visible"/></clipPath><path clip-path="url(#N)" fill="#D8E4E5" d="M8 12.5c.3-1.8.6-3.5.7-5.3.1 1.8.1 3.6 0 5.4l-.7-.1z"/></g><g><defs><path id="O" d="M12.3 44.2h1.5v21.6h-1.5z"/></defs><clipPath id="P"><use xlink:href="#O" overflow="visible"/></clipPath><path clip-path="url(#P)" fill="#D8E4E5" d="M13.3 44.2c.2 1.8.4 3.6.4 5.4.1 1.8.1 3.6.1 5.4 0 1.8-.1 3.6-.2 5.4-.1 1.8-.2 3.6-.4 5.4-.5-1.8-.6-3.6-.8-5.4-.1-1.8-.2-3.6-.2-5.4 0-1.8.1-3.6.2-5.4.3-1.8.5-3.6.9-5.4"/></g><g><defs><path id="Q" d="M15.8 43h1.7v8.9h-1.7z"/></defs><clipPath id="R"><use xlink:href="#Q" overflow="visible"/></clipPath><path clip-path="url(#R)" fill="#D8E4E5" d="M17.2 43c.2.8.2 1.5.2 2.3 0 .8 0 1.5-.1 2.2-.2 1.5-.5 2.9-1.2 4.4-.3-.8-.3-1.5-.4-2.3 0-.8 0-1.5.1-2.3.1-.7.3-1.5.5-2.2.3-.7.5-1.4.9-2.1"/></g><g><defs><path id="S" d="M17 43h1.6v23.1H17z"/></defs><clipPath id="T"><use xlink:href="#S" overflow="visible"/></clipPath><path clip-path="url(#T)" fill="#D8E4E5" d="M18.5 43c-.1 1.9-.2 3.9-.5 5.8l-.4 2.9c-.1.5-.2 1-.3 1.4-.1.5-.1 1-.1 1.4 0 1.9.1 3.9.4 5.8.1 1 .4 1.9.7 2.8.2 1 .4 2 .1 2.9.1-1-.1-1.9-.4-2.9-.1-.5-.3-.9-.4-1.4-.1-.5-.2-1-.3-1.4-.3-1.9-.4-3.9-.3-5.9 0-.5.1-1 .2-1.5s.2-.9.3-1.4c.1-1 .2-1.9.3-2.9.1-1.8.4-3.7.7-5.6z"/></g><g><defs><path id="U" d="M.5 69.6h19.2V72H.5z"/></defs><clipPath id="V"><use xlink:href="#U" overflow="visible"/></clipPath><path clip-path="url(#V)" fill="#D8E4E5" d="M.6 69.6c1.7.3 3.3.5 4.9.7 1.6.2 3.1.3 4.7.3s3.1-.1 4.7-.2c1.6-.2 3.2-.4 4.9-.7l.1.1c-3 1.5-6.3 2.3-9.6 2.3-1.7 0-3.3-.2-4.9-.6C3.6 71 2 70.4.5 69.7l.1-.1z"/></g><g><defs><path id="W" d="M6.4.8h7.5v1.8H6.4z"/></defs><clipPath id="X"><use xlink:href="#W" overflow="visible"/></clipPath><path clip-path="url(#X)" fill="#76909F" d="M13.9 1.7c0 .5-1.7.9-3.8.9-2.1 0-3.8-.4-3.8-.9S8 .8 10.1.8c2.1 0 3.8.4 3.8.9"/></g><path fill="#B52126" d="M13.8.9c-.2-.3-.7-.6-1.1-.7-.4-.1-2-.2-2.6-.2-.6 0-2.2.1-2.6.2-.3.2-.8.5-1 .7-.3.3-.2 2.1-.2 2.1l.2-.2c0-.1-.1-.2-.1-.3 0-.2.2-.5.5-.5.1 0 .2.1.3.3 0 0 .1 0 .1-.1 0-.3.2-.5.5-.5.2 0 .4.1.4.3h.1c0-.3.3-.5.6-.5s.5.2.6.4c.1-.2.3-.4.6-.4s.6.2.6.4c0-.2.3-.4.6-.4s.6.2.6.5h.1c.1-.2.3-.3.4-.3.3 0 .5.2.5.5 0 0 .1 0 .1.1.1-.2.3-.3.4-.3.2 0 .4.2.4.5 0 .1 0 .2-.1.3.2.1.3.2.3.2s0-1.8-.2-2.1"/><g><defs><path id="Y" d="M11.6.4h.3v.9h-.3z"/></defs><clipPath id="Z"><use xlink:href="#Y" overflow="visible"/></clipPath><path clip-path="url(#Z)" fill="#B52126" d="M11.8.4c.1.1.2.3.2.4 0 .1 0 .3-.2.4-.1-.1-.2-.3-.2-.4 0-.1.1-.3.2-.4"/></g><path fill="#B52126" d="M0 41.4c2 .2 5.4.3 10.1.3 4.7 0 8.1-.1 10.1-.3 0-1 0-4-.1-6.6-.1-2-.7-4.7-1-6h-18c-.3 1.3-.9 4.1-1 6-.1 2.6-.1 5.6-.1 6.6"/><path fill="#FFF" d="M10.1 42.1c-4.6 0-8-.1-10.1-.3v.4c2.3.2 5.9.3 10.1.3s7.8-.1 10.1-.3v-.4c-2 .2-5.5.3-10.1.3M1.2 28.3H19c-.1-.3-.1-.4-.1-.4H1.3s0 .2-.1.4"/><path fill="#FFF" d="M10.1 41.7c-4.7 0-8.1-.1-10.1-.3v.4c2.1.2 5.5.3 10.1.3s8-.1 10.1-.3v-.4c-1.9.2-5.4.3-10.1.3M1.1 28.7h18c0-.1-.1-.3-.1-.4H1.2c0 .1 0 .3-.1.4"/><g opacity=".49"><defs><path id="aa" d="M14.2 28.5H16v8.4h-1.8z"/></defs><clipPath id="ab"><use xlink:href="#aa" overflow="visible"/></clipPath><path clip-path="url(#ab)" fill="#DA9093" d="M14.3 28.5c.5.6.8 1.2 1.1 1.9.3.7.4 1.4.5 2.1.1.8.1 1.5.1 2.2-.1.7-.2 1.4-.5 2.2-.3-.7-.5-1.4-.6-2.1-.2-.7-.3-1.4-.4-2-.2-1.4-.3-2.8-.2-4.3"/></g><g opacity=".49"><defs><path id="ac" d="M.3 29.5h2.1v11.2H.3z"/></defs><clipPath id="ad"><use xlink:href="#ac" overflow="visible"/></clipPath><path clip-path="url(#ad)" fill="#DA9093" d="M2.1 29.5c.1.5.3 1 .4 1.5-.1.4-.2.9-.3 1.4l-.3 2.7c-.1.9-.1 1.9-.1 2.8v1.4c-.2.5-.4.9-.7 1.4-.3-.5-.6-.9-.8-1.4v-1.4c0-1 0-1.9.1-2.9s.2-1.9.3-2.9c.1-.5.2-1 .3-1.4.3-.4.6-.8 1.1-1.2"/></g></svg>