<svg xmlns="http://www.w3.org/2000/svg" xmlns:xlink="http://www.w3.org/1999/xlink" width="65.3" height="25.3" viewBox="0 0 65.3 25.3"><path fill="#C8CAC9" d="M28.9 9.3s-2.1 3.1-1.8 3.8c.2.6 1.2.1 1.5-.4s3-3.9.3-3.4"/><path fill="#767976" d="M29.3 9.2c1.8 0-.6 3-.9 3.4-.2.3-.7.6-1.1.7.4 0 .9-.3 1.2-.7.4-.4 2.8-3.4.8-3.4"/><path fill="#A77C39" d="M27.9 10.3s-.5-.2-.6.1c-.2.3-.3.6-.3.6s-.2.1-.4.1-.3.1-.3.2-.1.6-.1.6.1.2.3.2c.2 0 .8.1.8.1l.6-1.9z"/><path fill="#C8CAC9" d="M36.4 9.3s2.1 3.1 1.8 3.8c-.2.6-1.2.1-1.5-.4s-3-3.9-.3-3.4"/><path fill="#767976" d="M36 9.2c-1.8 0 .6 3 .9 3.4.2.3.7.6 1.1.7-.4 0-1-.3-1.2-.7-.3-.4-2.8-3.4-.8-3.4"/><path fill="#A77C39" d="M37.4 10.3s.5-.2.6.1c.2.3.3.6.3.6s.2.1.4.1.3.1.3.2.1.6.1.6-.1.2-.3.2c-.2 0-.8.1-.8.1l-.6-1.9z"/><path fill="#444142" d="M16.9 16.9c-.9-.5-1.7-1.1-2.4-1.8-.8-.6-1.4-1.4-2-2.2l-.9-1.1c-.2-.2-.3-.4-.4-.5l-.6-.3c-.8-.3-1.8-.5-2.8-.5H5.5s-.1 0-.1-.1c0 0 0-.1.1-.1l2.3-.4c1 0 2 0 3 .3.3.1.5.2.8.3.3.2.5.4.6.6l1.1 1c.7.6 1.4 1.3 2.1 2.1.5.9 1.1 1.7 1.5 2.7.1 0 .1 0 0 0"/><path fill="none" stroke="#B49057" stroke-width=".527" stroke-miterlimit="10" d="M.3 11.7s6.5-1.6 8.4-1.4"/><path fill="#A77C39" d="M2.1 11h.6v1.5h-.6z"/><g opacity=".75"><defs><path id="a" d="M2.1.3h26.7V25H2.1z"/></defs><clipPath id="b"><use xlink:href="#a" overflow="visible"/></clipPath><path clip-path="url(#b)" fill="#252A26" d="M2.1 11.2S1.4.3 15.5.3c0 0 13.3-.4 13.3 6.7 0 7.1-9.9 18-16.2 18-6.2.1-10.1-5.2-10.5-13.8"/></g><path fill="none" stroke="#A77C39" stroke-width=".608" stroke-miterlimit="10" d="M2.1 11.2S1.4.3 15.5.3c0 0 13.3-.4 13.3 6.7 0 7.1-9.9 18-16.2 18-6.2.1-10.1-5.2-10.5-13.8z"/><defs><path id="c" d="M2.2.4h26.5v24.5H2.2z"/></defs><clipPath id="d"><use xlink:href="#c" overflow="visible"/></clipPath><path clip-path="url(#d)" fill="#A77C39" d="M15.9.7c1.9 0 8.3.2 11.1 3.1.9.9 1.3 2 1.3 3.3 0 6.9-9.6 17.6-15.8 17.6h-.1c-5.9 0-9.6-5-10-13.5 0 0-.2-3.9 2.6-6.9C7.2 1.9 10.7.7 15.4.7h.5m0-.3h-.4C1.5.4 2.2 11.2 2.2 11.2c.4 8.5 4.2 13.7 10.3 13.7h.1c6.2 0 16-10.8 16-17.9C28.7.7 18.2.4 15.9.4"/><path fill="#B99661" d="M0 11h2.1v1.5H0z"/><path fill="#DCCBB0" d="M0 11.4h.7v.5H0z"/><path fill="#A77C39" d="M0 11.5h.7v.5H0z"/><path fill="#C6AA7E" d="M29.1 6.5s.4-.1.4-.3v-.6H29s-.1 0-.1.2c0 .1.1.8.1.8l.1-.1"/><path fill="#444142" d="M48.4 16.8c.5-.9 1.1-1.7 1.7-2.5.6-.8 1.3-1.5 2-2.1l1.1-1c.2-.1.4-.4.6-.6.3-.2.5-.3.8-.3 1-.3 2-.3 3-.3l2.3.4s.1 0 0 .1c0 0 0 .1-.1.1h-2.3c-.9.1-1.9.2-2.8.5l-.6.3c-.1.1-.2.2-.4.5l-.8 1.1c-.6.8-1.3 1.5-2 2.2-.8.6-1.6 1.2-2.5 1.6 0 .2 0 .1 0 0 0 .1 0 .1 0 0"/><path fill="none" stroke="#B49057" stroke-width=".527" stroke-miterlimit="10" d="M65.1 11.7s-6.5-1.6-8.4-1.4"/><path fill="#A77C39" d="M62.6 11h.6v1.5h-.6z"/><g opacity=".75"><defs><path id="e" d="M36.6.3h26.7V25H36.6z"/></defs><clipPath id="f"><use xlink:href="#e" overflow="visible"/></clipPath><path clip-path="url(#f)" fill="#252A26" d="M63.2 11.2S63.9.3 49.8.3c0 0-13.3-.4-13.3 6.7 0 7.1 9.9 18 16.2 18 6.3.1 10.1-5.2 10.5-13.8"/></g><path fill="none" stroke="#A77C39" stroke-width=".608" stroke-miterlimit="10" d="M63.2 11.2S63.9.3 49.8.3c0 0-13.3-.4-13.3 6.7 0 7.1 9.9 18 16.2 18 6.3.1 10.1-5.2 10.5-13.8z"/><defs><path id="g" d="M36.7.4h26.5v24.5H36.7z"/></defs><clipPath id="h"><use xlink:href="#g" overflow="visible"/></clipPath><path clip-path="url(#h)" fill="#A77C39" d="M49.4.7h.4c4.7 0 8.2 1.2 10.4 3.6 2.8 3 2.6 6.9 2.6 6.9-.4 8.4-4.2 13.5-10 13.5h-.1C46.6 24.6 37 13.9 36.9 7c0-1.3.4-2.4 1.3-3.3 2.9-2.8 9.3-3 11.2-3m0-.3C47.1.4 36.6.7 36.7 7c0 7.1 9.8 17.8 16 17.9h.1c6.2 0 9.9-5.2 10.3-13.7 0 0 .7-10.8-13.3-10.8h-.4"/><path fill="#B99661" d="M63.2 11h2.1v1.5h-2.1z"/><path fill="#DCCBB0" d="M64.6 11.4h.7v.5h-.7z"/><path fill="#A77C39" d="M64.6 11.5h.7v.5h-.7z"/><path fill="none" stroke="#A77C39" stroke-width=".286" stroke-miterlimit="10" d="M42.7.8s-9.1.4-10 .4c-.9 0-10-.4-10-.4"/><path fill="none" stroke="#C6AA7E" stroke-width=".286" stroke-miterlimit="10" d="M42.7.9s-9.1.4-10 .4c-.9 0-10-.4-10-.4"/><path fill="none" stroke="#B0894D" stroke-width=".286" stroke-miterlimit="10" d="M36.1 6.1V4.4s-.2-.9-.8-1c-.6-.1-2.6-.3-2.6-.3s-2 .1-2.6.3c-.6.1-.8 1-.8 1v1.7"/><path fill="none" stroke="#C6AA7E" stroke-width=".286" stroke-miterlimit="10" d="M36.1 6.2V4.5s-.2-.9-.8-1c-.6-.1-2.6-.3-2.6-.3s-2 .1-2.6.3c-.6.1-.8 1-.8 1v1.7"/><path fill="#C6AA7E" d="M36.3 6.5s-.4-.1-.4-.3v-.6h.5s.1 0 .1.2c0 .1-.1.8-.1.8s-.1 0-.1-.1"/></svg>