<svg xmlns="http://www.w3.org/2000/svg" xmlns:xlink="http://www.w3.org/1999/xlink" width="69.2" height="35.7" viewBox="0 0 69.2 35.7"><path fill="#EDEDED" d="M43.9 16.4c0 .1.1.2.1.3.1.1.1.2.2.3.1.2.3.4.5.5.3.3.7.7 1.1 1l1.2.9.6.5.6.4-.2-.1c.3.1.8.2 1.3.1s1-.2 1.6-.5c.5-.2 1-.5 1.4-.8.2-.2.4-.3.5-.5.2-.2.3-.3.3-.4l.8-1.4 1.2.8c.7.5 1.4 1 2.1 1.4.7.4 1.4.8 2.2 1 .4.1.8.2 1.2.2h.6c.2 0 .4-.1.6-.1.8-.2 1.6-.6 2.2-1.2.6-.6 1.1-1.3 1.5-2 .2-.4.3-.8.5-1.2l.3-1.2c.2-.8.3-1.7.3-2.5s0-1.7-.1-2.5-.2-1.6-.5-2.3c-.3-.7-.6-1.3-1.1-1.8-.4-.5-.9-.9-1.5-1.1-.6-.3-1.2-.4-1.9-.4-.8 0-1.6 0-2.3.2-.7.1-1.3.4-1.8.8-.3.2-.6.6-.9.8l-.5.5c-.2.2-.4.4-.9.6-.3.1-.6.1-.8.1-.2 0-.4-.1-.5-.1-.3-.1-.5-.2-.7-.3l-1.2-.6H51.2c-.3 0-.5 0-.7.1-.3.1-.5.2-.6.3-.2.2-.3.4-.3.7h-.3c-.1-.3 0-.7.1-1 .2-.3.4-.6.7-.8.3-.2.6-.3 1-.4.2 0 .3-.1.5-.1h.7c.5.1.9.1 1.4.2.2 0 .4.1.6.1h0c-.1 0 0-.1.1-.2l.4-.5c.3-.4.5-.7.9-1.1.7-.9 1.8-1.5 2.8-1.8 1.1-.4 2.1-.5 3.1-.5 1-.1 2.3.1 3.3.6 1.1.5 2 1.3 2.7 2.2.7.9 1.1 1.9 1.4 2.9.3 1 .4 2 .4 3s-.2 2-.4 2.9c-.2.9-.6 1.8-1 2.7-.4.9-.9 1.7-1.4 2.5-.5.8-1.2 1.5-1.9 2.1-.7.6-1.6 1.1-2.5 1.5-.2.1-.5.2-.7.2-.2.1-.5.1-.7.2-.5.1-1 .1-1.5.2-1 .1-2.1-.1-3-.4-1-.3-1.8-.8-2.6-1.3l2-.6c-.2.5-.5.9-.8 1.2-.3.3-.6.6-1 .8-.7.5-1.4.8-2.1 1.1-.7.3-1.5.4-2.3.4-.4 0-.8 0-1.3-.1-.4-.1-.9-.3-1.3-.5l-.1-.1c-.2-.2-.4-.4-.5-.6-.2-.2-.3-.4-.5-.6-.3-.4-.6-.9-.9-1.3-.3-.5-.6-.9-.8-1.4-.1-.3-.2-.5-.3-.8 0-.1-.1-.3-.1-.4v-.4l.2-.4z"/><path fill="#D3D2D2" d="M60.5 20.1h-.6.6M61.3 20.1zM59.8 20.1h-.1c0-.1.1-.1.1 0M66.2 14.4l-.3 1.2c-.1.4-.3.8-.5 1.2-.4.8-.9 1.5-1.5 2-.5.4-1 .7-1.6 1 3.2-1.1 5-5.1 5-9.2 0-4.8-1.9-7.9-5.9-7.9-2.4 0-4 1.5-4.9 2.8.3-.3.5-.5.8-.7.5-.4 1.1-.7 1.8-.8.7-.1 1.4-.2 2.3-.2.8 0 1.4.2 1.9.4.6.3 1.1.6 1.5 1.1.4.5.8 1.1 1.1 1.8.3.7.4 1.5.5 2.3.1.8.1 1.6.1 2.5 0 .8-.1 1.7-.3 2.5M61.9 19.9c.1 0 .2-.1.3-.1-.1.1-.2.1-.3.1"/><path fill="#E0E0E0" d="M47.9 20.3l-.4-.3-.6-.5-1.2-.9c-.4-.3-.7-.7-1.1-1-.2-.2-.3-.4-.5-.5l-.3 1.2c.2.5.5.9.7 1.4.3.5.6.9.9 1.3.2.2.3.4.5.6.2.2.3.4.5.6l.1.1c.1.1.2.1.3.2l1.5-2c.1-.1-.2-.2-.4-.2M52.2 4.5h-.7c-.2 0-.3.1-.5.1-.3.1-.7.2-1 .4-.3.2-.6.5-.7.8-.2.3-.2.7-.1 1h.3c.1-.3.2-.5.3-.7.2 0 .4-.1.7-.2.2-.1.5-.1.7-.1h.8-.1c.4.2.7.3 1.1.5l.3-1.7c-.4 0-.8 0-1.1-.1"/><path fill="#EDEDED" d="M54.7 0H10.5s-.4.2-.4.5.4.4.4.4 1.7.5 2.2 2c.4 1.5.9 16.8 9.9 22.6 0 0 3 2.5 3 6.1.1.8-1.2 1.4-1.2 1.4H41s-1.3-.6-1.2-1.4c0-3.6 3-6.1 3-6.1 9.1-5.8 9.5-21.1 9.9-22.6.4-1.5 2.2-2 2.2-2s.4-.1.4-.4-.6-.5-.6-.5"/><defs><path id="a" d="M25.8 29h13.6v1H25.8z"/></defs><clipPath id="b"><use xlink:href="#a" overflow="visible"/></clipPath><path clip-path="url(#b)" fill="#C4C4C4" d="M25.8 29s3.4 0 6.8-.1c3.4 0 6.8.1 6.8.1v.1s-.9.3-2.1.5c-.6.1-1.4.2-2.2.3-.4 0-.8.1-1.2.1h-2.6c-.4 0-.8-.1-1.2-.1-.8-.1-1.5-.2-2.2-.3-1.3-.2-2.1-.5-2.1-.5V29z"/><defs><path id="c" d="M12.1 2.2h41v6h-41z"/></defs><clipPath id="d"><use xlink:href="#c" overflow="visible"/></clipPath><path clip-path="url(#d)" fill="#1498C3" d="M13.4 8.2h38.5c.4-2.6.6-4.5.7-5 .1-.4.3-.7.6-1h-41c.2.3.5.6.6 1 0 .5.1 2.4.6 5"/><defs><path id="e" d="M13.4 8.2h38.5v1.5H13.4z"/></defs><clipPath id="f"><use xlink:href="#e" overflow="visible"/></clipPath><path clip-path="url(#f)" fill="#B69C5B" d="M51.8 8.2H13.4l.3 1.5h37.9c.1-.5.2-1 .2-1.5"/><g><defs><path id="g" d="M14 11.3h37.2v.6H14z"/></defs><clipPath id="h"><use xlink:href="#g" overflow="visible"/></clipPath><path clip-path="url(#h)" fill="#B69C5B" d="M14.1 11.9H51c0-.2.1-.4.1-.6H14c0 .2.1.4.1.6"/></g><path fill="#B69C5B" d="M51.2 3H12.6c0 .1 0 .1.1.2 0 .1.1.2.1.5h1.8l.1.1-.7.8h-1.1v.3l.4.4-.3.2c0 .1 0 .3.1.4h.9l.7.8-.1.1h-1.4c0 .2.1.4.1.6H52c0-.2.1-.4.1-.6h-1.4l-.1-.1.7-.8h.9v-.4l-.3-.3.4-.4v-.3h-1.1l-.7-.8.1-.1h1.8c0-.2.1-.4.1-.5 0-.1 0-.1.1-.2h-1.4zm-1 1.2l.3.3H50l.2-.3zm-5 0l.3.3H45l.2-.3zm.8.9l.1.1-.1.1h-1.6l-.1-.1.1-.1H46zm-5.8-.9l.3.3H40l.2-.3zm.8.9l.1.1-.1.1h-1.6l-.1-.1.1-.1H41zm-5.9-.9l.3.3h-.5l.2-.3zm.8.9l.1.1-.1.1h-1.6l-.1-.1.1-.1h1.6zm-5.8-.9l.3.3h-.5l.2-.3zm.8.9l.1.1-.1.1h-1.6l-.1-.1.1-.1h1.6zm-5.8-.9l.3.3h-.5l.2-.3zm.8.9l.1.1-.1.1h-1.6l-.1-.1.1-.1h1.6zM20 4.2l.3.3h-.5l.2-.3zm.8.9l.1.1-.1.1h-1.6l-.1-.1.1-.1h1.6zM15 4.2l.3.3h-.5l.2-.3zm-.8 1.1l-.1-.1.1-.1h1.6l.1.1-.1.1h-1.6zm.8.9l-.3-.3h.5l-.2.3zm4.6.5h-4.1l-.1-.1.7-.8h1.3l-.6-.7.6-.7h-1.3l-.7-.8.1-.1h4.1l.1.1-.7.8h-1.3l.6.7-.6.7H19l.6.9zm.4-.5l-.3-.3h.5l-.2.3zm4.6.5h-4.1l-.1-.1.7-.8h1.3l-.6-.7.6-.7h-1.3l-.7-.8.1-.1h4.1l.1.1-.7.9h-1.3l.6.7-.6.7H24l.6.8zm.5-.5l-.3-.3h.5l-.2.3zm4.5.5h-4.1l-.1-.1.7-.8h1.3l-.6-.7.6-.7h-1.3l-.7-.8.1-.1h4.1l.1.1-.7.9h-1.3l.6.7-.6.7H29l.6.8zm.5-.5l-.3-.3h.5l-.2.3zm4.6.5h-4.1l-.1-.1.7-.8h1.3l-.6-.7.6-.7h-1.3l-.7-.8.1-.1h4.1l.1.1-.8.9h-1.3l.6.7-.6.7H34l.7.8zm.4-.5l-.3-.3h.5l-.2.3zm4.6.5h-4.1l-.1-.1.7-.8h1.3l-.6-.7.6-.7h-1.3l-.7-.8.1-.1h4.1l.1.1-.7.8h-1.3l.6.7-.6.7h1.3l.6.9zm.5-.5l-.3-.3h.5l-.2.3zm4.5.5h-4.1l-.1-.1.7-.8h1.3l-.6-.7.6-.7h-1.3l-.7-.8.1-.1h4.1l.1.1-.7.8h-1.3l.6.7-.6.7h1.3l.6.9zm.5-.5l-.3-.3h.5l-.2.3zm4.5.5h-4.1l-.1-.1.7-.8h1.3l-.6-.7.6-.7h-1.3l-.7-.8.1-.1h4.1l.1.1-.7.8h-1.3l.6.7-.6.7h1.3l.6.9zm.5-.5l-.2-.3h.5l-.3.3zm.8-1.1l.1.1-.1.1h-1.6l-.1-.1.1-.1H51z"/><g opacity=".4"><defs><path id="i" d="M10.1 0H55v33.1H10.1z"/></defs><clipPath id="j"><use xlink:href="#i" overflow="visible"/></clipPath><path clip-path="url(#j)" fill="#CECECE" d="M26.8 31.6c0-3.6-2.5-6.1-2.5-6.1-7.5-5.8-7.9-21.1-8.3-22.6-.3-1.5-1.8-2-1.8-2S14 .7 14 .5s.3-.5.3-.5h-3.7s-.4.2-.4.5.4.4.4.4 1.7.5 2.2 2c.4 1.5.9 16.8 9.9 22.6 0 0 3 2.5 3 6.1 0 .8-1.2 1.4-1.2 1.4h1.4c-.2.1.9-.6.9-1.4"/><path clip-path="url(#j)" fill="#EDEDED" d="M54.7 0H51s.3.2.3.5-.3.4-.3.4-1.4.5-1.8 2c-.3 1.5-.7 16.8-8.3 22.6 0 0-2.5 2.5-2.5 6.1 0 .8 1 1.4 1 1.4h1.4s-1.3-.6-1.2-1.4c0-3.6 3-6.1 3-6.1 9.1-5.8 9.5-21.1 9.9-22.6.4-1.5 2.2-2 2.2-2s.4-.1.4-.4-.4-.5-.4-.5"/><path clip-path="url(#j)" fill="#E2E2E2" d="M28.5 31.6c0-3.6-1.7-6.1-1.7-6.1-5.3-5.8-5.6-21.1-5.8-22.6-.2-1.5-1.3-2-1.3-2s-.2-.1-.2-.4.2-.5.2-.5h-5.4s-.3.2-.3.5.3.4.3.4 1.4.5 1.8 2c.3 1.5.7 16.8 8.3 22.6 0 0 2.5 2.5 2.5 6.1 0 .8-1 1.4-1 1.4h2c-.1.1.6-.6.6-1.4M38.4 31.6c0-3.6 2.5-6.1 2.5-6.1 7.5-5.8 7.9-21.1 8.3-22.6.3-1.5 1.8-2 1.8-2s.3-.1.3-.4-.4-.5-.4-.5h-5.4s.2.2.2.5-.2.4-.2.4-1 .5-1.3 2c-.2 1.5-.5 16.8-5.8 22.6 0 0-1.7 2.5-1.7 6.1 0 .8.7 1.4.7 1.4h2c.1.1-1-.6-1-1.4"/></g><path fill="#EDEDED" d="M33.1 31.9H0s17.1 1.5 18.3 2.4c1.1.9 3.9 1.4 3.9 1.4h21s2.7-.5 3.9-1.4c1.1-.9 18.3-2.4 18.3-2.4H33.1z"/><path fill="#DEDDDE" d="M18.7 33.8h28v.1s-.4 0-1.2.1c-.8 0-1.9.1-3.2.2-1.3 0-2.8.1-4.5.1-1.6 0-3.4 0-5.1.1-1.8 0-3.5 0-5.1-.1-1.6 0-3.2-.1-4.5-.1-1.3 0-2.4-.1-3.2-.2-.7-.1-1.2-.1-1.2-.2z"/></svg>