<svg xmlns="http://www.w3.org/2000/svg" xmlns:xlink="http://www.w3.org/1999/xlink" width="68.8" height="48.2" viewBox="0 0 68.8 48.2"><path fill="#BC373C" d="M18.6 32.1c-2 2.6-5.7 3.2-8.7 2.1C6.3 33 4.6 30 4 26.5c-.4-2.2-.8-4.3-.9-6.5-.1-2.4.4-7-2.1-8.2-3.3-1.7 2.6-2.2 3.9-1.3 2.3 1.7 3.7 5.4 4.9 7.8.7 1.3 1.3 2.7 2.2 3.9.8 1.1 2.4 1.8 2.9 3.1.5 1.6 1.3 2.9 2.4 4.2.5.6 2 1.7 1.3 2.6-.2.2.2-.3 0 0"/><path fill="#872237" d="M4.2 10.4c0 .1-.8.3-1.9.3-1 0-1.9 0-1.9-.2 0-.1.8-.3 1.9-.3 1 0 1.9 0 1.9.2"/><path fill="#DA9093" d="M4.7 11.2c.8 1 1.6 2 2.3 3.1.7 1.1 1.2 2.3 1.8 3.4.6 1.2 1.1 2.3 1.8 3.4.3.6.7 1.1 1 1.6.4.5.8 1 1.3 1.4-1.1-.6-1.8-1.8-2.5-2.9-.7-1.1-1.3-2.2-1.9-3.4-.6-1.2-1-2.4-1.7-3.4-.6-1.1-1.3-2.2-2.1-3.2"/><defs><path id="a" d="M4.7 26.8h12.9v7.1H4.7z"/></defs><clipPath id="b"><use xlink:href="#a" overflow="visible"/></clipPath><path clip-path="url(#b)" fill="#BC373C" d="M4.7 26.8c.5 1.3 1.1 2.6 1.9 3.7.8 1.1 1.8 2.1 3.1 2.6 1.3.6 2.7.6 4 .3 1.3-.3 2.6-1 3.8-1.7-1.1.8-2.4 1.6-3.7 1.9-1.4.4-2.9.3-4.2-.2-1.3-.6-2.4-1.6-3.2-2.8-.7-1.1-1.3-2.4-1.7-3.8"/><path fill="#B52126" d="M51.2 40.2c0 4.4-7.3 8-16.3 8s-16.3-3.6-16.3-8 7.3-8 16.3-8c9 .1 16.3 3.6 16.3 8"/><path fill="#872237" d="M51.2 39.2c0 4.4-7.3 8-16.3 8s-16.3-3.6-16.3-8 7.3-8 16.3-8 16.3 3.6 16.3 8"/><path fill="#B52126" d="M57 28.7c0 12.5-9.9 17.5-22.1 17.5-12.2 0-22.1-5-22.1-17.5S22.7 6 34.9 6C47.1 6 57 16.2 57 28.7"/><path fill="#B52126" d="M24 7.4c0-1.7 4.9-3.1 10.9-3.1s10.9 1.4 10.9 3.1v1.4c0 1.7-4.9 3.1-10.9 3.1S24 10.5 24 8.8V7.4z"/><path fill="#872237" d="M44.2 6.6c0 1.1-4.2 2-9.3 2-5.2 0-9.3-.9-9.3-2s4.2-2 9.3-2c5.1 0 9.3.9 9.3 2"/><defs><path id="c" d="M25.6 4.6h18.6v3.9H25.6z"/></defs><clipPath id="d"><use xlink:href="#c" overflow="visible"/></clipPath><path clip-path="url(#d)" fill="#E7D3D7" d="M44 7c.1-.1.2-.3.2-.4 0-1.1-4.2-2-9.3-2-5.2 0-9.3.9-9.3 2 0 .1.1.3.2.4.9-.9 4.6-1.5 9.1-1.5 4.4 0 8.2.7 9.1 1.5"/><path clip-path="url(#d)" fill="#A7A5A6" d="M34.9 6.3c3.8 0 7 .5 8.5 1.1.2-.1.5-.2.6-.4-.9-.9-4.6-1.5-9.1-1.5s-8.2.7-9.1 1.5c.1.1.4.3.6.4 1.5-.7 4.7-1.1 8.5-1.1"/><path clip-path="url(#d)" fill="#7B7979" d="M26.4 7.4c.4.2 1 .4 1.6.5 1.7-.4 4.1-.6 6.8-.6s5.1.2 6.8.6c.7-.2 1.2-.3 1.6-.5-1.5-.7-4.7-1.1-8.5-1.1-3.6 0-6.8.4-8.3 1.1"/><path clip-path="url(#d)" fill="#231F20" d="M28.1 7.9c1.7.4 4.1.6 6.8.6s5.1-.2 6.8-.6c-1.7-.4-4.1-.6-6.8-.6s-5.1.3-6.8.6"/><path fill="#DCA8A8" d="M34.9 9.6c-5.6 0-10.2-.9-10.4-2.1v.1c0 1.2 4.7 2.2 10.4 2.2 5.8 0 10.4-1 10.4-2.2v-.1c-.2 1.2-4.8 2.1-10.4 2.1"/><path fill="#DA9093" d="M40.2 9.3c.1.7.1 1.5.1 2.2l-.1-.1c1.5 1 2.8 2.2 3.9 3.6s2.1 2.9 2.8 4.6c.7 1.6 1.3 3.3 1.6 5.1.3 1.7.5 3.5.4 5.3-.2-1.8-.4-3.5-.8-5.2-.4-1.7-1-3.4-1.7-4.9-.7-1.6-1.6-3.1-2.7-4.5s-2.2-2.7-3.6-3.8H40v-.1c.1-.7.2-1.4.2-2.2"/><defs><path id="e" d="M47.5 12H52v4.8h-4.5z"/></defs><clipPath id="f"><use xlink:href="#e" overflow="visible"/></clipPath><path clip-path="url(#f)" fill="#C44E51" d="M52.1 14.4c0 1.3-1 2.4-2.3 2.4-1.3 0-2.3-1.1-2.3-2.4 0-1.3 1-2.4 2.3-2.4 1.3 0 2.3 1 2.3 2.4"/><defs><path id="g" d="M50.8 32h4.5v4.8h-4.5z"/></defs><clipPath id="h"><use xlink:href="#g" overflow="visible"/></clipPath><path clip-path="url(#h)" fill="#C44E51" d="M55.3 34.4c0 1.3-1 2.4-2.3 2.4-1.3 0-2.3-1.1-2.3-2.4s1-2.4 2.3-2.4c1.3 0 2.3 1.1 2.3 2.4"/><path fill="none" stroke="#BC373C" stroke-width="4.405" stroke-linecap="round" stroke-miterlimit="10" d="M49.9 14.2c3.4-5.6 15.2-9.1 16.6.1.7 5-1.6 10.6-5.8 13.4-1.5 1-9.6 4.4-6.7 7.9"/><g><defs><path id="i" d="M50.8 7.1h15.8v3.8H50.8z"/></defs><clipPath id="j"><use xlink:href="#i" overflow="visible"/></clipPath><path clip-path="url(#j)" fill="#C44E51" d="M50.8 10.9c1.2-1 2.4-1.8 3.8-2.4 1.4-.6 2.8-1.1 4.3-1.3 1.5-.2 3.1 0 4.4.7 1.4.7 2.5 1.8 3.3 3-.9-1.2-2-2.2-3.4-2.8-1.3-.6-2.8-.8-4.3-.6-1.5.2-2.9.6-4.2 1.2-1.4.6-2.7 1.4-3.9 2.2"/></g><g><defs><path id="k" d="M57.8 14H65v13.7h-7.2z"/></defs><clipPath id="l"><use xlink:href="#k" overflow="visible"/></clipPath><path clip-path="url(#l)" fill="#BC373C" d="M64.6 14c.4 1.3.5 2.7.4 4.1-.1 1.4-.6 2.7-1.2 4-1.3 2.5-3.5 4.4-6 5.6 2.3-1.5 4.4-3.4 5.6-5.8.6-1.2 1-2.5 1.3-3.8.2-1.4.2-2.8-.1-4.1"/></g><path fill="#A82526" d="M42.4 4c0-.9-3.4-1.6-7.5-1.6s-7.5.7-7.5 1.6l-1.3 2.6c0 .1.1.3.2.4.1.1.3.3.6.4.4.2.9.3 1.5.5 1.6.4 3.9.6 6.4.6s4.8-.2 6.4-.6c.6-.1 1.2-.3 1.5-.5.3-.1.5-.2.6-.4.1-.1.2-.3.2-.4L42.4 4z"/><path fill="#A82526" d="M36.8 1.9c0 1-.8 1.3-1.9 1.3-1 0-1.9-.2-1.9-1.3S33.9 0 34.9 0c1 0 1.9.8 1.9 1.9"/><g><defs><path id="m" d="M27.9 3.9h13.9v1H27.9z"/></defs><clipPath id="n"><use xlink:href="#m" overflow="visible"/></clipPath><path clip-path="url(#n)" fill="#A82526" d="M41.8 3.9c-.1.3-.5.3-.8.4-.3.1-.6.1-.9.2-.6.1-1.2.2-1.8.2-1.2.1-2.4.1-3.6.2-1.2 0-2.4 0-3.6-.2-.6-.1-1.2-.1-1.8-.2-.3-.1-.6-.1-.9-.2-.3-.1-.6-.1-.8-.4 0 .1.2.2.3.2.1 0 .3.1.4.1.3.1.6.1.9.1.6.1 1.2.1 1.8.1 1.2.1 2.4.1 3.5.1 1.2 0 2.4 0 3.5-.1.6 0 1.2-.1 1.8-.1.3 0 .6-.1.9-.1.1 0 .3-.1.4-.1.5 0 .7 0 .7-.2"/></g><g><defs><path id="o" d="M33.2 3h3.3v.4h-3.3z"/></defs><clipPath id="p"><use xlink:href="#o" overflow="visible"/></clipPath><path clip-path="url(#p)" fill="#A82526" d="M36.5 3c-.2.2-.5.3-.8.3-.3 0-.6.1-.9.1-.3 0-.6 0-.9-.1-.3-.1-.6-.1-.8-.3.1.1.3.1.4.1h2.4c.4 0 .6 0 .6-.1"/></g><g><defs><path id="q" d="M33.6 2.9h2.7v.4h-2.7z"/></defs><clipPath id="r"><use xlink:href="#q" overflow="visible"/></clipPath><path clip-path="url(#r)" fill="#A82526" d="M36.2 2.9c-.1.2-.4.3-.6.3-.2 0-.5.1-.7.1-.2 0-.5 0-.7-.1-.2-.1-.5-.1-.6-.3 0 .1.2.1.3.1h2c.1 0 .3 0 .3-.1"/></g><g><defs><path id="s" d="M35.2.2h4.5v7.5h-4.5z"/></defs><clipPath id="t"><use xlink:href="#s" overflow="visible"/></clipPath><path clip-path="url(#t)" fill="#DA9093" d="M39.7 7.7c-.3-.9-.6-1.8-.9-2.8V5c-1-.5-2.1-1.1-3.1-1.6l-.1-.1.1-.1c.2-.4.3-1 .2-1.5-.1-.5-.4-1-.7-1.5.4.4.7.9.8 1.4.2.5.2 1.2-.1 1.7l-.1-.2c1 .5 2.1 1.1 3.1 1.6h.1v.1c.2 1 .5 1.9.7 2.9"/></g></svg>