<svg xmlns="http://www.w3.org/2000/svg" xmlns:xlink="http://www.w3.org/1999/xlink" width="46.9" height="46.9" viewBox="0 0 46.9 46.9"><path fill="#B3BA88" d="M33.9 2.4C28.2-.4 21.4-.9 15 1.6 8.7 4 4 8.9 1.7 14.8c4.5 2.7 8.3 7.2 10.5 13 2.2 5.7 2.4 11.6.9 16.7 5.7 2.8 12.4 3.3 18.8.9S43 38 45.3 32.1c-4.5-2.7-8.3-7.2-10.5-13-2.3-5.7-2.4-11.6-.9-16.7"/><g opacity=".5"><defs><path id="a" d="M1.7 0h43.6v46.9H1.7z"/></defs><clipPath id="b"><use xlink:href="#a" overflow="visible"/></clipPath><path clip-path="url(#b)" fill="#EFDD85" d="M33.9 2.4C28.2-.4 21.4-.9 15 1.6 8.7 4 4 8.9 1.7 14.8c4.5 2.7 8.3 7.2 10.5 13 2.2 5.7 2.4 11.6.9 16.7 5.7 2.8 12.4 3.3 18.8.9S43 38 45.3 32.1c-4.5-2.7-8.3-7.2-10.5-13-2.3-5.7-2.4-11.6-.9-16.7"/></g><path fill="#B3BA88" d="M1.7 14.8c-2.1 5.3-2.3 11.3-.1 17C3.8 37.6 7.9 41.9 13 44.4c1.5-5 1.3-10.9-.9-16.7-2.2-5.6-6-10.1-10.4-12.9"/><g opacity=".5"><defs><path id="c" d="M0 14.8h14v29.6H0z"/></defs><clipPath id="d"><use xlink:href="#c" overflow="visible"/></clipPath><path clip-path="url(#d)" fill="#EFDD85" d="M1.7 14.8c-2.1 5.3-2.3 11.3-.1 17C3.8 37.6 7.9 41.9 13 44.4c1.5-5 1.3-10.9-.9-16.7-2.2-5.6-6-10.1-10.4-12.9"/></g><path fill="#B3BA88" d="M33.9 2.4c-1.5 5-1.3 10.9.9 16.7 2.2 5.7 6 10.2 10.5 13 2.1-5.3 2.3-11.3.1-17C43.1 9.3 38.9 5 33.9 2.4"/><g opacity=".5"><defs><path id="e" d="M32.9 2.4h14V32h-14z"/></defs><clipPath id="f"><use xlink:href="#e" overflow="visible"/></clipPath><path clip-path="url(#f)" fill="#EFDD85" d="M33.9 2.4c-1.5 5-1.3 10.9.9 16.7 2.2 5.7 6 10.2 10.5 13 2.1-5.3 2.3-11.3.1-17C43.1 9.3 38.9 5 33.9 2.4"/></g><g opacity=".5"><defs><path id="g" d="M0 0h46.9v46.9H0z"/></defs><clipPath id="h"><use xlink:href="#g" overflow="visible"/></clipPath><g opacity=".8" clip-path="url(#h)"><defs><path id="i" d="M0 0h39.3v40.6H0z"/></defs><clipPath id="j"><use xlink:href="#i" overflow="visible"/></clipPath><path clip-path="url(#j)" fill="#EFDD85" d="M1.5 26.7c-.1-6 2.2-12.2 6.8-17.2C13 4.5 19 1.7 24.9 1.3c5.3-.3 10.5 1.3 14.5 4.9C34.9 2.1 29.2 0 23.5 0 17.2 0 10.9 2.5 6.2 7.5 1.6 12.5-.5 19 .1 25.3.5 31 3 36.5 7.5 40.7c-3.9-3.7-5.9-8.7-6-14"/></g><g opacity=".8" clip-path="url(#h)"><defs><path id="k" d="M7.5 6.2h39.3v40.6H7.5z"/></defs><clipPath id="l"><use xlink:href="#k" overflow="visible"/></clipPath><path clip-path="url(#l)" fill="#EFDD85" d="M45.4 20.2c.1 5.9-2.2 12.2-6.8 17.2S27.9 45.2 22 45.6c-5.3.3-10.5-1.3-14.4-4.9 4.5 4.2 10.2 6.2 15.9 6.2 6.3 0 12.6-2.5 17.3-7.5 4.6-5 6.7-11.5 6.1-17.8-.5-5.7-3-11.2-7.4-15.3 3.8 3.6 5.8 8.6 5.9 13.9"/></g><g opacity=".5" clip-path="url(#h)"><defs><path id="m" d="M1.5 1.3h37.8v39.4H1.5z"/></defs><clipPath id="n"><use xlink:href="#m" overflow="visible"/></clipPath><path clip-path="url(#n)" fill="#EFDD85" d="M3.9 28.9c.6-5.3 3.3-11.1 8-16.1 4.6-5 10.2-8.2 15.5-9.2 4.7-.9 9-.1 12.1 2.7-4.1-3.7-9.3-5.3-14.6-5C19 1.7 13 4.5 8.3 9.5c-4.6 5-6.9 11.3-6.8 17.2.1 5.3 2.1 10.3 6 14-3-2.8-4.2-7.1-3.6-11.8"/></g><g opacity=".5" clip-path="url(#h)"><defs><path id="o" d="M7.5 6.2h37.8v39.4H7.5z"/></defs><clipPath id="p"><use xlink:href="#o" overflow="visible"/></clipPath><path clip-path="url(#p)" fill="#EFDD85" d="M22 45.6c5.9-.4 12-3.1 16.6-8.2 4.6-5 6.9-11.3 6.8-17.2-.1-5.3-2.1-10.3-6-14 3 2.8 4.2 7.1 3.6 11.8-.6 5.3-3.3 11.1-8 16.1-4.6 5-10.2 8.2-15.5 9.2-4.7.9-9 .1-12.1-2.7 4.1 3.7 9.3 5.3 14.6 5"/></g></g><path fill="#FFF" d="M13.2 27.4c-2.2-5.7-6.1-10.5-11-13.5l-.1-.1c-.2.3-.3.7-.4 1-.1.4-.3.7-.4 1.1 4.3 2.7 7.8 7.1 9.8 12.3 2 5.2 2.3 10.8.9 15.7.3.2.7.4 1 .5.3.2.7.3 1 .5 0-.1 0-.1.1-.2 1.6-5.4 1.3-11.6-.9-17.3M45.6 31c-4.3-2.7-7.8-7.1-9.8-12.3-2-5.2-2.3-10.8-.9-15.7-.3-.2-.7-.4-1-.5-.3-.2-.7-.3-1-.5 0 0 0 .1-.1.2-1.6 5.5-1.3 11.6.9 17.4 2.2 5.7 6.1 10.5 11 13.5 0 0 .1 0 .2.1.2-.3.3-.7.4-1 .1-.5.2-.8.3-1.2"/><g opacity=".6"><defs><path id="q" d="M.1.1h46.7v46.7H.1z"/></defs><clipPath id="r"><use xlink:href="#q" overflow="visible"/></clipPath><g clip-path="url(#r)"><defs><path id="s" d="M.1.1h46.7v46.7H.1z"/></defs><clipPath id="t"><use xlink:href="#s" overflow="visible"/></clipPath><path clip-path="url(#t)" fill="#7B7979" d="M44.8 32.9C39.5 44.7 25.7 50 14 44.8 2.2 39.5-3.1 25.7 2.1 14 7.4 2.2 21.2-3.1 32.9 2.1S50 21.2 44.8 32.9"/></g><g clip-path="url(#r)"><defs><path id="u" d="M2.6 1.5h39.3v39.3H2.6z"/></defs><clipPath id="v"><use xlink:href="#u" overflow="visible"/></clipPath><path clip-path="url(#v)" fill="#959394" d="M40.2 29.1c-4.4 9.9-16 14.4-26 10-9.9-4.4-14.4-16-10-26 4.4-9.9 16-14.4 26-10 10 4.5 14.4 16.1 10 26"/></g><g clip-path="url(#r)"><defs><path id="w" d="M5 2.9h32v32H5z"/></defs><clipPath id="x"><use xlink:href="#w" overflow="visible"/></clipPath><path clip-path="url(#x)" fill="#B0AEAF" d="M35.6 25.3c-3.6 8.1-13 11.7-21.1 8.1-8.1-3.6-11.7-13-8.1-21.1C10 4.2 19.4.6 27.5 4.2c8.1 3.6 11.7 13.1 8.1 21.1"/></g><g clip-path="url(#r)"><defs><path id="y" d="M7.5 4.2h24.6v24.6H7.5z"/></defs><clipPath id="z"><use xlink:href="#y" overflow="visible"/></clipPath><path clip-path="url(#z)" fill="#CAC9C9" d="M31.1 21.6c-2.8 6.2-10 9-16.3 6.2-6.2-2.8-9-10-6.2-16.3 2.8-6.2 10-9 16.3-6.2 6.1 2.8 8.9 10 6.2 16.3"/></g><g clip-path="url(#r)"><defs><path id="A" d="M10 5.6h17.3v17.3H10z"/></defs><clipPath id="B"><use xlink:href="#A" overflow="visible"/></clipPath><path clip-path="url(#B)" fill="#E5E4E4" d="M26.5 17.8c-1.9 4.4-7 6.3-11.4 4.4s-6.3-7-4.4-11.4c1.9-4.4 7-6.3 11.4-4.4 4.4 1.9 6.3 7 4.4 11.4"/></g><g clip-path="url(#r)"><defs><path id="C" d="M12.4 7h9.9v9.9h-9.9z"/></defs><clipPath id="D"><use xlink:href="#C" overflow="visible"/></clipPath><path clip-path="url(#D)" fill="#FFF" d="M21.9 14c-1.1 2.5-4 3.6-6.5 2.5s-3.6-4-2.5-6.5 4-3.6 6.5-2.5 3.6 4 2.5 6.5"/></g></g></svg>