<svg xmlns="http://www.w3.org/2000/svg" xmlns:xlink="http://www.w3.org/1999/xlink" width="19.8" height="75" viewBox="0 0 19.8 75"><path fill="#9E7E64" d="M0 75V3.2C0 1.5 1.5 0 3.2 0h13.3c1.8 0 3.2 1.5 3.2 3.2V75H0z"/><path fill="#9E7E64" d="M16.6.8c1.4 0 2.5 1.1 2.5 2.5v71H.8v-71C.8 1.9 1.9.8 3.3.8h13.3m0-.8H3.2C1.5 0 0 1.5 0 3.2V75h19.8V3.2c0-1.7-1.4-3.2-3.2-3.2"/><g opacity=".7"><defs><path id="a" d="M0 1.6h19.8V75H0z"/></defs><clipPath id="b"><use xlink:href="#a" overflow="visible"/></clipPath><path clip-path="url(#b)" fill="#A88B74" d="M18.4 5.4v68.3h-17L0 75h19.8V3.2c0-.6-.2-1.1-.4-1.6l-1 3.8z"/></g><g opacity=".3"><defs><path id="c" d="M0 1.6h19.8V75H0z"/></defs><clipPath id="d"><use xlink:href="#c" overflow="visible"/></clipPath><path clip-path="url(#d)" fill="#9E7E64" d="M19.1 3.2v71.1H.7v-2L0 75h19.8V3.2c0-.6-.2-1.1-.4-1.6l-.3 1.2v.4"/></g><path fill="#DFE8EC" d="M11.2 66.7c0 .7-.6 1.3-1.3 1.3-.7 0-1.3-.6-1.3-1.3V5.3c0-.8.6-1.3 1.3-1.3.7 0 1.3.6 1.3 1.3v61.4z"/><path fill="#DFE8EC" d="M12.9 67.2c0 1.7-1.3 3-3 3s-3-1.3-3-3 1.3-3 3-3 3 1.3 3 3"/><path fill="#C5B1A2" d="M1.4 3.2c0-1 .8-1.8 1.8-1.8h13.3c1 0 1.8.8 1.8 1.8v2.1l1-3.7C18.7.6 17.7 0 16.5 0H3.2C1.5 0 0 1.5 0 3.2V75l1.4-1.5V3.2z"/><path fill="#C5B1A2" d="M16.6 0H3.2C1.5 0 0 1.5 0 3.2V75l.7-.7V3.2C.7 1.8 1.8.7 3.2.7h13.3c1.3 0 2.3.9 2.5 2.1l.3-1.2C18.8.7 17.8 0 16.6 0"/><defs><path id="e" d="M9.9 4h1.3v64.1H9.9z"/></defs><clipPath id="f"><use xlink:href="#e" overflow="visible"/></clipPath><path clip-path="url(#f)" fill="#DFE8EC" d="M9.9 4c.4 0 .8.6.8 1.3v61.5c0 .7-.4 1.3-.8 1.3.7 0 1.3-.6 1.3-1.3V5.3c0-.8-.6-1.3-1.3-1.3"/><defs><path id="g" d="M8.6 4h1.3v64.1H8.6z"/></defs><clipPath id="h"><use xlink:href="#g" overflow="visible"/></clipPath><path clip-path="url(#h)" fill="#DFE8EC" d="M9.1 66.7V5.3c0-.8.4-1.3.8-1.3-.7 0-1.3.5-1.3 1.3v61.5c0 .7.6 1.3 1.3 1.3-.4-.1-.8-.6-.8-1.4"/><path fill="#AB2E2F" d="M10.7 65.2V33.8c0-.4-.4-.8-.8-.8s-.8.3-.8.8v31.4c-.8.3-1.4 1.1-1.4 2 0 1.2 1 2.2 2.2 2.2 1.2 0 2.2-1 2.2-2.2 0-.9-.6-1.7-1.4-2"/><path fill="#DFE8EC" d="M9.9 70.2zM9.9 64.2zM9.9 64.2zM9.9 70.2z"/><g opacity=".5"><defs><path id="i" d="M9.1 4h.8v61.2h-.8z"/></defs><clipPath id="j"><use xlink:href="#i" overflow="visible"/></clipPath><path clip-path="url(#j)" fill="#DFE8EC" d="M9.6 65V5.3c0-.8.2-1.3.3-1.3-.4 0-.8.5-.8 1.3v59.9c.2-.1.3-.1.5-.2"/></g><g opacity=".5"><defs><path id="k" d="M9.9 4h.8v61.2h-.8z"/></defs><clipPath id="l"><use xlink:href="#k" overflow="visible"/></clipPath><path clip-path="url(#l)" fill="#DFE8EC" d="M10.2 5.3V65c.2 0 .3.1.5.1V5.3c0-.7-.4-1.3-.8-1.3.2 0 .3.5.3 1.3"/></g><g opacity=".5"><defs><path id="m" d="M7.6 64.4h2.3v5.8H7.6z"/></defs><clipPath id="n"><use xlink:href="#m" overflow="visible"/></clipPath><path clip-path="url(#n)" fill="#DFE8EC" d="M8.6 67.2c0-1 .2-1.8.5-2.4v-.4c-.9.4-1.5 1.5-1.5 2.8 0 1.7 1 3 2.3 3-.7 0-1.3-1.4-1.3-3"/></g><g opacity=".5"><defs><path id="o" d="M9.9 64.4h2.3v5.8H9.9z"/></defs><clipPath id="p"><use xlink:href="#o" overflow="visible"/></clipPath><path clip-path="url(#p)" fill="#DFE8EC" d="M10.7 64.4v.4c.3.5.5 1.4.5 2.4 0 1.7-.6 3-1.3 3 1.3 0 2.3-1.3 2.3-3 0-1.3-.6-2.4-1.5-2.8"/></g><defs><path id="q" d="M6.9 64.3h3v5.9h-3z"/></defs><clipPath id="r"><use xlink:href="#q" overflow="visible"/></clipPath><path clip-path="url(#r)" fill="#DFE8EC" d="M7.6 67.2c0-1.3.6-2.4 1.5-2.8v-.1c-1.3.3-2.2 1.5-2.2 2.9 0 1.7 1.3 3 3 3-1.3 0-2.3-1.4-2.3-3"/><defs><path id="s" d="M9.9 64.3h3v5.9h-3z"/></defs><clipPath id="t"><use xlink:href="#s" overflow="visible"/></clipPath><path clip-path="url(#t)" fill="#DFE8EC" d="M10.7 64.3c.9.5 1.5 1.6 1.5 2.9 0 1.7-1 3-2.3 3 1.7 0 3-1.3 3-3 0-1.4-.9-2.6-2.2-2.9"/><path fill="none" stroke="#BCA66D" stroke-width=".25" stroke-miterlimit="10" d="M2.7 8.6h4.2"/><path fill="none" stroke="#252A26" stroke-width=".25" stroke-miterlimit="10" d="M2.7 8.7h4.2"/><path fill="none" stroke="#BCA66D" stroke-width=".177" stroke-miterlimit="10" d="M2.7 10.9h2.1"/><path fill="none" stroke="#252A26" stroke-width=".177" stroke-miterlimit="10" d="M2.7 11h2.1"/><path fill="none" stroke="#BCA66D" stroke-width=".25" stroke-miterlimit="10" d="M2.7 13.1h4.2"/><path fill="none" stroke="#252A26" stroke-width=".25" stroke-miterlimit="10" d="M2.7 13.2h4.2"/><path fill="none" stroke="#BCA66D" stroke-width=".177" stroke-miterlimit="10" d="M2.7 15.4h2.1"/><path fill="none" stroke="#252A26" stroke-width=".177" stroke-miterlimit="10" d="M2.7 15.5h2.1"/><path fill="none" stroke="#BCA66D" stroke-width=".25" stroke-miterlimit="10" d="M2.7 17.6h4.2"/><path fill="none" stroke="#252A26" stroke-width=".25" stroke-miterlimit="10" d="M2.7 17.7h4.2"/><path fill="none" stroke="#BCA66D" stroke-width=".177" stroke-miterlimit="10" d="M2.7 19.8h2.1"/><path fill="none" stroke="#252A26" stroke-width=".177" stroke-miterlimit="10" d="M2.7 19.9h2.1"/><path fill="none" stroke="#BCA66D" stroke-width=".25" stroke-miterlimit="10" d="M2.7 22.1h4.2"/><path fill="none" stroke="#252A26" stroke-width=".25" stroke-miterlimit="10" d="M2.7 22.2h4.2"/><path fill="none" stroke="#BCA66D" stroke-width=".177" stroke-miterlimit="10" d="M2.7 24.3h2.1"/><path fill="none" stroke="#252A26" stroke-width=".177" stroke-miterlimit="10" d="M2.7 24.4h2.1"/><path fill="none" stroke="#BCA66D" stroke-width=".25" stroke-miterlimit="10" d="M2.7 26.5h4.2"/><path fill="none" stroke="#252A26" stroke-width=".25" stroke-miterlimit="10" d="M2.7 26.7h4.2"/><path fill="none" stroke="#BCA66D" stroke-width=".177" stroke-miterlimit="10" d="M2.7 28.8h2.1"/><path fill="none" stroke="#252A26" stroke-width=".177" stroke-miterlimit="10" d="M2.7 28.9h2.1"/><path fill="none" stroke="#BCA66D" stroke-width=".25" stroke-miterlimit="10" d="M2.7 31h4.2"/><path fill="none" stroke="#252A26" stroke-width=".25" stroke-miterlimit="10" d="M2.7 31.1h4.2"/><path fill="none" stroke="#BCA66D" stroke-width=".177" stroke-miterlimit="10" d="M2.7 33.3h2.1"/><path fill="none" stroke="#252A26" stroke-width=".177" stroke-miterlimit="10" d="M2.7 33.4h2.1"/><path fill="none" stroke="#BCA66D" stroke-width=".25" stroke-miterlimit="10" d="M2.7 35.5h4.2"/><path fill="none" stroke="#252A26" stroke-width=".25" stroke-miterlimit="10" d="M2.7 35.6h4.2"/><path fill="none" stroke="#BCA66D" stroke-width=".177" stroke-miterlimit="10" d="M2.7 37.7h2.1"/><path fill="none" stroke="#252A26" stroke-width=".177" stroke-miterlimit="10" d="M2.7 37.8h2.1"/><path fill="none" stroke="#BCA66D" stroke-width=".25" stroke-miterlimit="10" d="M2.7 40h4.2"/><path fill="none" stroke="#252A26" stroke-width=".25" stroke-miterlimit="10" d="M2.7 40.1h4.2"/><path fill="none" stroke="#BCA66D" stroke-width=".177" stroke-miterlimit="10" d="M2.7 42.2h2.1"/><path fill="none" stroke="#252A26" stroke-width=".177" stroke-miterlimit="10" d="M2.7 42.3h2.1"/><path fill="none" stroke="#BCA66D" stroke-width=".25" stroke-miterlimit="10" d="M2.7 44.5h4.2"/><path fill="none" stroke="#252A26" stroke-width=".25" stroke-miterlimit="10" d="M2.7 44.6h4.2"/><path fill="none" stroke="#BCA66D" stroke-width=".177" stroke-miterlimit="10" d="M2.7 46.7h2.1"/><path fill="none" stroke="#252A26" stroke-width=".177" stroke-miterlimit="10" d="M2.7 46.8h2.1"/><path fill="none" stroke="#BCA66D" stroke-width=".25" stroke-miterlimit="10" d="M2.7 48.9h4.2"/><path fill="none" stroke="#252A26" stroke-width=".25" stroke-miterlimit="10" d="M2.7 49h4.2"/><path fill="none" stroke="#BCA66D" stroke-width=".177" stroke-miterlimit="10" d="M2.7 51.2h2.1"/><path fill="none" stroke="#252A26" stroke-width=".177" stroke-miterlimit="10" d="M2.7 51.3h2.1"/><path fill="none" stroke="#BCA66D" stroke-width=".25" stroke-miterlimit="10" d="M2.7 53.4h4.2"/><path fill="none" stroke="#252A26" stroke-width=".25" stroke-miterlimit="10" d="M2.7 53.5h4.2"/><path fill="none" stroke="#BCA66D" stroke-width=".177" stroke-miterlimit="10" d="M2.7 55.6h2.1"/><path fill="none" stroke="#252A26" stroke-width=".177" stroke-miterlimit="10" d="M2.7 55.8h2.1"/><path fill="none" stroke="#BCA66D" stroke-width=".25" stroke-miterlimit="10" d="M2.7 57.9h4.2"/><path fill="none" stroke="#252A26" stroke-width=".25" stroke-miterlimit="10" d="M2.7 58h4.2"/><path fill="none" stroke="#BCA66D" stroke-width=".177" stroke-miterlimit="10" d="M2.7 60.1h2.1"/><path fill="none" stroke="#252A26" stroke-width=".177" stroke-miterlimit="10" d="M2.7 60.2h2.1"/><path fill="none" stroke="#BCA66D" stroke-width=".25" stroke-miterlimit="10" d="M2.7 62.4h4.2"/><path fill="none" stroke="#252A26" stroke-width=".25" stroke-miterlimit="10" d="M2.7 62.5h4.2"/><path fill="none" stroke="#BCA66D" stroke-width=".25" stroke-miterlimit="10" d="M17.2 8.6h-4.3"/><path fill="none" stroke="#252A26" stroke-width=".25" stroke-miterlimit="10" d="M17.2 8.7h-4.3"/><path fill="none" stroke="#BCA66D" stroke-width=".177" stroke-miterlimit="10" d="M17.2 10.9H15"/><path fill="none" stroke="#252A26" stroke-width=".177" stroke-miterlimit="10" d="M17.2 11H15"/><path fill="none" stroke="#BCA66D" stroke-width=".25" stroke-miterlimit="10" d="M17.2 13.1h-4.3"/><path fill="none" stroke="#252A26" stroke-width=".25" stroke-miterlimit="10" d="M17.2 13.2h-4.3"/><path fill="none" stroke="#BCA66D" stroke-width=".177" stroke-miterlimit="10" d="M17.2 15.4H15"/><path fill="none" stroke="#252A26" stroke-width=".177" stroke-miterlimit="10" d="M17.2 15.5H15"/><path fill="none" stroke="#BCA66D" stroke-width=".25" stroke-miterlimit="10" d="M17.2 17.6h-4.3"/><path fill="none" stroke="#252A26" stroke-width=".25" stroke-miterlimit="10" d="M17.2 17.7h-4.3"/><path fill="none" stroke="#BCA66D" stroke-width=".177" stroke-miterlimit="10" d="M17.2 19.8H15"/><path fill="none" stroke="#252A26" stroke-width=".177" stroke-miterlimit="10" d="M17.2 19.9H15"/><path fill="none" stroke="#BCA66D" stroke-width=".25" stroke-miterlimit="10" d="M17.2 22.1h-4.3"/><path fill="none" stroke="#252A26" stroke-width=".25" stroke-miterlimit="10" d="M17.2 22.2h-4.3"/><path fill="none" stroke="#BCA66D" stroke-width=".177" stroke-miterlimit="10" d="M17.2 24.3H15"/><path fill="none" stroke="#252A26" stroke-width=".177" stroke-miterlimit="10" d="M17.2 24.4H15"/><path fill="none" stroke="#BCA66D" stroke-width=".25" stroke-miterlimit="10" d="M17.2 26.5h-4.3"/><path fill="none" stroke="#252A26" stroke-width=".25" stroke-miterlimit="10" d="M17.2 26.7h-4.3"/><path fill="none" stroke="#BCA66D" stroke-width=".177" stroke-miterlimit="10" d="M17.2 28.8H15"/><path fill="none" stroke="#252A26" stroke-width=".177" stroke-miterlimit="10" d="M17.2 28.9H15"/><path fill="none" stroke="#BCA66D" stroke-width=".25" stroke-miterlimit="10" d="M17.2 31h-4.3"/><path fill="none" stroke="#252A26" stroke-width=".25" stroke-miterlimit="10" d="M17.2 31.1h-4.3"/><path fill="none" stroke="#BCA66D" stroke-width=".177" stroke-miterlimit="10" d="M17.2 33.3H15"/><path fill="none" stroke="#252A26" stroke-width=".177" stroke-miterlimit="10" d="M17.2 33.4H15"/><path fill="none" stroke="#BCA66D" stroke-width=".25" stroke-miterlimit="10" d="M17.2 35.5h-4.3"/><path fill="none" stroke="#252A26" stroke-width=".25" stroke-miterlimit="10" d="M17.2 35.6h-4.3"/><path fill="none" stroke="#BCA66D" stroke-width=".177" stroke-miterlimit="10" d="M17.2 37.7H15"/><path fill="none" stroke="#252A26" stroke-width=".177" stroke-miterlimit="10" d="M17.2 37.8H15"/><path fill="none" stroke="#BCA66D" stroke-width=".25" stroke-miterlimit="10" d="M17.2 40h-4.3"/><path fill="none" stroke="#252A26" stroke-width=".25" stroke-miterlimit="10" d="M17.2 40.1h-4.3"/><path fill="none" stroke="#BCA66D" stroke-width=".177" stroke-miterlimit="10" d="M17.2 42.2H15"/><path fill="none" stroke="#252A26" stroke-width=".177" stroke-miterlimit="10" d="M17.2 42.3H15"/><path fill="none" stroke="#BCA66D" stroke-width=".25" stroke-miterlimit="10" d="M17.2 44.5h-4.3"/><path fill="none" stroke="#252A26" stroke-width=".25" stroke-miterlimit="10" d="M17.2 44.6h-4.3"/><path fill="none" stroke="#BCA66D" stroke-width=".177" stroke-miterlimit="10" d="M17.2 46.7H15"/><path fill="none" stroke="#252A26" stroke-width=".177" stroke-miterlimit="10" d="M17.2 46.8H15"/><path fill="none" stroke="#BCA66D" stroke-width=".25" stroke-miterlimit="10" d="M17.2 48.9h-4.3"/><path fill="none" stroke="#252A26" stroke-width=".25" stroke-miterlimit="10" d="M17.2 49h-4.3"/><path fill="none" stroke="#BCA66D" stroke-width=".177" stroke-miterlimit="10" d="M17.2 51.2H15"/><path fill="none" stroke="#252A26" stroke-width=".177" stroke-miterlimit="10" d="M17.2 51.3H15"/><path fill="none" stroke="#BCA66D" stroke-width=".25" stroke-miterlimit="10" d="M17.2 53.4h-4.3"/><path fill="none" stroke="#252A26" stroke-width=".25" stroke-miterlimit="10" d="M17.2 53.5h-4.3"/><path fill="none" stroke="#BCA66D" stroke-width=".177" stroke-miterlimit="10" d="M17.2 55.6H15"/><path fill="none" stroke="#252A26" stroke-width=".177" stroke-miterlimit="10" d="M17.2 55.8H15"/><path fill="none" stroke="#BCA66D" stroke-width=".25" stroke-miterlimit="10" d="M17.2 57.9h-4.3"/><path fill="none" stroke="#252A26" stroke-width=".25" stroke-miterlimit="10" d="M17.2 58h-4.3"/><path fill="none" stroke="#BCA66D" stroke-width=".177" stroke-miterlimit="10" d="M17.2 60.1H15"/><path fill="none" stroke="#252A26" stroke-width=".177" stroke-miterlimit="10" d="M17.2 60.2H15"/><path fill="none" stroke="#BCA66D" stroke-width=".25" stroke-miterlimit="10" d="M17.2 62.4h-4.3"/><path fill="none" stroke="#252A26" stroke-width=".25" stroke-miterlimit="10" d="M17.2 62.5h-4.3"/></svg>