<svg xmlns="http://www.w3.org/2000/svg" xmlns:xlink="http://www.w3.org/1999/xlink" width="19.1" height="79.9" viewBox="0 0 19.1 79.9"><path fill="#EEC19C" d="M14.9 14.8c0 3.1-2.4 5.6-5.3 5.6s-5.3-2.5-5.3-5.6 2.4-5.6 5.3-5.6 5.3 2.5 5.3 5.6"/><path fill="#302C2D" d="M14.9 2.6C13.9 1.6 12 0 9.6 0 7.1 0 5.2 1.6 4.2 2.6s-.6 2.5-.6 2.5l1.4 7c1.3-1 4.6-1 4.6-1s3.3 0 4.6 1l1.4-7c-.1 0 .2-1.5-.7-2.5"/><path fill="#231F20" d="M9.6 74.9v3l3.2 1.9s1.6.3 2.3.1c.7-.2.8-.7.8-1.4s-.4-.9-.8-1.4c-.4-.5-2.2-1.7-2.5-2.8-.5-1.2-3-.8-3 .6M9.6 74.9v3l-3.2 1.9s-1.6.3-2.3.1c-.7-.2-.8-.7-.8-1.4s.4-.9.8-1.4c.4-.5 2.2-1.7 2.5-2.8.4-1.2 3-.8 3 .6"/><path fill="#252A26" d="M9.6 49.8v24.9s-1.8-.9-3-.4L4 50.4s2.3-2 5.6-.6M9.6 49.8v24.9s1.8-.9 3-.4l2.6-24c-.1.1-2.4-1.9-5.6-.5"/><g opacity=".6"><defs><path id="a" d="M4 50.2h11.2v1.5H4z"/></defs><clipPath id="b"><use xlink:href="#a" overflow="visible"/></clipPath><path clip-path="url(#b)" fill="#252A26" d="M15.2 50.2s-.1.2-.4.3c-.1.1-.4.2-.6.3-.2.2-.4.2-.7.3-.3.1-.6.2-.9.2-.3.1-.6.1-1 .1-.3 0-.7.1-1 .1-.4 0-.7 0-1.1.1-.4 0-.7 0-1.1-.1-.3 0-.7-.1-1-.1-.3 0-.6-.1-.9-.1-.3-.1-.6-.2-.9-.2-.3-.1-.5-.2-.7-.3-.2-.1-.4-.2-.5-.3-.1-.1-.2-.2-.3-.2-.1 0-.1-.1-.1-.1l.1-.1s.1.1.4.1c.1 0 .3.1.5.1s.5 0 .7.1c.3 0 .5.1.8.1h6c.3 0 .6-.1.8-.1.3 0 .5-.1.7-.1.2 0 .4-.1.5-.1.1 0 .3-.1.3-.1.2.1.3.1.4.1z"/></g><defs><path id="c" d="M9 50.7h1v24H9z"/></defs><clipPath id="d"><use xlink:href="#c" overflow="visible"/></clipPath><path clip-path="url(#d)" fill="#252A26" d="M9.6 50.7s0 .4.1 1c0 .7.1 1.6.2 2.7.1 2.2.2 5.2.2 8.2 0 3-.1 6-.2 8.2-.1 1.2-.2 2.2-.2 2.8-.1.7-.1 1-.1 1s0-.4-.1-1c0-.7-.1-1.6-.2-2.7-.2-2.2-.3-5.2-.3-8.2 0-3 .1-6 .2-8.2.1-1.1.2-2.1.2-2.7.1-.8.2-1.1.2-1.1"/><path fill="#A82526" d="M18 20.8h-5.9v-.9H7v.9H1.1S-.1 24.4.3 31.3c.4 6.9.6 11.6.6 11.6h2.4l.7-9.1s.6 1.6.6 2v2s-1.1 2.5-1.2 6.6c-.1 4.2.5 6 .5 6s2.3.3 5.6.3c3.4 0 5.6-.3 5.6-.3s.6-1.8.5-6c-.1-4.2-1.2-6.6-1.2-6.6v-2c0-.4.6-2 .6-2l.7 9.2h2.4s.2-4.7.6-11.6c.5-7-.7-10.6-.7-10.6"/><path fill="#231F20" d="M9.6 17.9c-2.8 0-5-1.3-5.4-3.1v.4c0 1.9 2.4 3.5 5.4 3.5 3 0 5.4-1.6 5.4-3.5v-.4c-.4 1.8-2.7 3.1-5.4 3.1"/><path fill="#4F4C4D" d="M9.6 17.6c-2.7 0-5-1.2-5.3-2.7v.1c.3 1.7 2.6 3.1 5.4 3.1 2.8 0 5-1.3 5.4-3.1v-.1c-.6 1.5-2.8 2.7-5.5 2.7"/><path fill="#EBEBEB" d="M12.1 19.8c-.3-.4-2.5-.4-2.5-.4s-2.2 0-2.5.4v.2h2.1l.4.6.4-.6h2.1v-.2z"/><path fill="#F4F4F4" d="M14.1 25.9c0 .5-.4.9-.9.9H5.9c-.5 0-.9-.4-.9-.9s.4-.9.9-.9h7.3c.5 0 .9.4.9.9"/><path fill="none" stroke="#68111E" stroke-width=".175" stroke-miterlimit="10" d="M14.1 25.9c0 .5-.4.9-.9.9H5.9c-.5 0-.9-.4-.9-.9s.4-.9.9-.9h7.3c.5 0 .9.4.9.9z"/><path fill="#B69C5B" d="M6.3 25.9c0 .2-.2.4-.4.4s-.4-.2-.4-.4.2-.4.4-.4.4.2.4.4"/><path fill="#E2D7BD" d="M5.9 25.8c0 .1-.1.1-.1.1-.1 0-.1-.1-.1-.1l.1-.1c.1 0 .1 0 .1.1"/><path fill="#B69C5B" d="M13.6 25.9c0 .2-.2.4-.4.4s-.4-.2-.4-.4.2-.4.4-.4.4.2.4.4"/><path fill="#E2D7BD" d="M13.2 25.8c0 .1-.1.1-.1.1l-.1-.1.1-.1s.1 0 .1.1"/><path fill="#F4F4F4" d="M14.1 29.4c0 .5-.4.9-.9.9H5.9c-.5 0-.9-.4-.9-.9s.4-.9.9-.9h7.3c.5 0 .9.4.9.9"/><path fill="none" stroke="#68111E" stroke-width=".175" stroke-miterlimit="10" d="M14.1 29.4c0 .5-.4.9-.9.9H5.9c-.5 0-.9-.4-.9-.9s.4-.9.9-.9h7.3c.5 0 .9.4.9.9z"/><path fill="#B69C5B" d="M6.3 29.4c0 .2-.2.4-.4.4s-.4-.2-.4-.4.2-.4.4-.4.4.2.4.4"/><path fill="#E2D7BD" d="M5.9 29.3c0 .1-.1.1-.1.1-.1 0-.1-.1-.1-.1l.1-.1c.1-.1.1 0 .1.1"/><path fill="#B69C5B" d="M13.6 29.4c0 .2-.2.4-.4.4s-.4-.2-.4-.4.2-.4.4-.4.4.2.4.4"/><path fill="#E2D7BD" d="M13.2 29.3c0 .1-.1.1-.1.1l-.1-.1.1-.1s.1 0 .1.1"/><path fill="#F4F4F4" d="M14.1 32.9c0 .5-.4.9-.9.9H5.9c-.5 0-.9-.4-.9-.9s.4-.9.9-.9h7.3c.5 0 .9.4.9.9"/><path fill="none" stroke="#68111E" stroke-width=".175" stroke-miterlimit="10" d="M14.1 32.9c0 .5-.4.9-.9.9H5.9c-.5 0-.9-.4-.9-.9s.4-.9.9-.9h7.3c.5 0 .9.4.9.9z"/><path fill="#B69C5B" d="M6.3 32.9c0 .2-.2.4-.4.4s-.4-.2-.4-.4.2-.4.4-.4.4.2.4.4"/><path fill="#E2D7BD" d="M5.9 32.8c0 .1-.1.1-.1.1-.1 0-.1-.1-.1-.1 0-.1.1-.1.1-.1.1-.1.1 0 .1.1"/><path fill="#B69C5B" d="M13.6 32.9c0 .2-.2.4-.4.4s-.4-.2-.4-.4.2-.4.4-.4.4.2.4.4"/><path fill="#E2D7BD" d="M13.2 32.8c0 .1-.1.1-.1.1l-.1-.1c0-.1.1-.1.1-.1s.1 0 .1.1"/><path fill="none" stroke="#393536" stroke-width=".088" stroke-miterlimit="10" d="M7 19.9h2.1l.5.7.4-.7h2.1"/><path fill="#F4F4F4" d="M4.7 37.1v-1.3c0-.2-.1-.5-.3-1L12.6 21h1.6l.6.4-9.4 16.1-.7-.4z"/><path fill="#68111E" d="M14.2 21.1l.5.3-9.3 16-.5-.3v-1.2c0-.2-.1-.5-.2-.9l8.1-13.8h1.4m0-.3h-1.7l-8.2 14c.1.4.2.8.2 1v1.3l.8.5 9.5-16.3-.6-.5z"/><path fill="#F4F4F4" d="M4.4 21.4l.7-.4h1.6l8.1 13.9c-.2.4-.3.8-.3.9v1.3l-.7.3-9.4-16z"/><path fill="#68111E" d="M6.6 21.1l8.1 13.8c-.2.7-.2.9-.2.9V37l-.5.3-9.3-16 .5-.3h1.4m.1-.1H5l-.7.4 9.5 16.3.8-.5v-1.3c0-.2.1-.6.2-1L6.7 20.9z"/><path fill="#EEC19C" d="M.8 20.8h6s-.1 4.5-6.9 4.5c.1-.1.4-3.4.9-4.5"/><defs><path id="e" d="M.8 20.8c-.5 1.1-.8 4.4-.8 4.4 6.8 0 6.9-4.5 6.9-4.5H.8z"/></defs><clipPath id="f"><use xlink:href="#e" overflow="visible"/></clipPath><path clip-path="url(#f)" fill="#B69C5B" d="M6.8 19.5H7V26h-.2zM.1 19.5h.2V26H.1z"/><path clip-path="url(#f)" fill="#9E7E64" d="M.3 19.5h.4V26H.3z"/><path clip-path="url(#f)" fill="#B69C5B" d="M.7 19.5h.2V26H.7z"/><path clip-path="url(#f)" fill="#9E7E64" d="M1 19.5h.4V26H1z"/><path clip-path="url(#f)" fill="#B69C5B" d="M1.4 19.5h.2V26h-.2z"/><path clip-path="url(#f)" fill="#9E7E64" d="M1.7 19.5h.4V26h-.4z"/><path clip-path="url(#f)" fill="#B69C5B" d="M2.1 19.5h.2V26h-.2z"/><path clip-path="url(#f)" fill="#9E7E64" d="M2.3 19.5h.4V26h-.4z"/><path clip-path="url(#f)" fill="#B69C5B" d="M2.8 19.5h.3V26h-.3z"/><path clip-path="url(#f)" fill="#9E7E64" d="M3 19.5h.4V26H3z"/><path clip-path="url(#f)" fill="#B69C5B" d="M3.4 19.5h.2V26h-.2z"/><path clip-path="url(#f)" fill="#9E7E64" d="M3.7 19.5h.4V26h-.4z"/><path clip-path="url(#f)" fill="#B69C5B" d="M4.1 19.5h.2V26h-.2z"/><path clip-path="url(#f)" fill="#9E7E64" d="M4.4 19.5h.4V26h-.4z"/><path clip-path="url(#f)" fill="#B69C5B" d="M4.8 19.5H5V26h-.2z"/><path clip-path="url(#f)" fill="#9E7E64" d="M5 19.5h.4V26H5z"/><path clip-path="url(#f)" fill="#B69C5B" d="M5.5 19.5h.2V26h-.2z"/><path clip-path="url(#f)" fill="#9E7E64" d="M5.7 19.5h.4V26h-.4z"/><path clip-path="url(#f)" fill="#B69C5B" d="M6.1 19.5h.2V26h-.2z"/><path clip-path="url(#f)" fill="#9E7E64" d="M6.4 19.5h.4V26h-.4z"/><g clip-path="url(#f)"><defs><path id="g" d="M6.3 19.5h.2V26h-.2z"/></defs><clipPath id="h"><use xlink:href="#g" overflow="visible"/></clipPath><path clip-path="url(#h)" fill="#B69C5B" d="M6.3 19.5h.2V26h-.2z"/></g><g clip-path="url(#f)"><defs><path id="i" d="M.3 19.5h.3V26H.3z"/></defs><clipPath id="j"><use xlink:href="#i" overflow="visible"/></clipPath><path clip-path="url(#j)" fill="#B69C5B" d="M.3 19.5h.2V26H.3z"/></g><g clip-path="url(#f)"><defs><path id="k" d="M1 19.5h.3V26H1z"/></defs><clipPath id="l"><use xlink:href="#k" overflow="visible"/></clipPath><path clip-path="url(#l)" fill="#B69C5B" d="M1 19.5h.2V26H1z"/></g><g clip-path="url(#f)"><defs><path id="m" d="M1.6 19.5h.2V26h-.2z"/></defs><clipPath id="n"><use xlink:href="#m" overflow="visible"/></clipPath><path clip-path="url(#n)" fill="#B69C5B" d="M1.6 19.5h.2V26h-.2z"/></g><g clip-path="url(#f)"><defs><path id="o" d="M2.3 19.5h.3V26h-.3z"/></defs><clipPath id="p"><use xlink:href="#o" overflow="visible"/></clipPath><path clip-path="url(#p)" fill="#B69C5B" d="M2.3 19.5h.2V26h-.2z"/></g><g clip-path="url(#f)"><defs><path id="q" d="M3 19.5h.3V26H3z"/></defs><clipPath id="r"><use xlink:href="#q" overflow="visible"/></clipPath><path clip-path="url(#r)" fill="#B69C5B" d="M3 19.5h.2V26H3z"/></g><g clip-path="url(#f)"><defs><path id="s" d="M3.7 19.5h.2V26h-.2z"/></defs><clipPath id="t"><use xlink:href="#s" overflow="visible"/></clipPath><path clip-path="url(#t)" fill="#B69C5B" d="M3.6 19.5h.2V26h-.2z"/></g><g clip-path="url(#f)"><defs><path id="u" d="M4.3 19.5h.3V26h-.3z"/></defs><clipPath id="v"><use xlink:href="#u" overflow="visible"/></clipPath><path clip-path="url(#v)" fill="#B69C5B" d="M4.3 19.5h.2V26h-.2z"/></g><g clip-path="url(#f)"><defs><path id="w" d="M5 19.5h.3V26H5z"/></defs><clipPath id="x"><use xlink:href="#w" overflow="visible"/></clipPath><path clip-path="url(#x)" fill="#B69C5B" d="M5 19.5h.2V26H5z"/></g><g clip-path="url(#f)"><defs><path id="y" d="M5.7 19.5H6V26h-.3z"/></defs><clipPath id="z"><use xlink:href="#y" overflow="visible"/></clipPath><path clip-path="url(#z)" fill="#B69C5B" d="M5.7 19.5h.2V26h-.2z"/></g><path fill="#231F20" d="M6.9 20.8H.8s-.5 1.6-.6 2.7c-.1-.1 5-.2 6.7-2.7"/><defs><path id="A" d="M12.2 20.8s.1 4.5 6.9 4.5c0 0-.3-3.3-.8-4.5h-6.1z"/></defs><clipPath id="B"><use xlink:href="#A" overflow="visible"/></clipPath><path clip-path="url(#B)" fill="#B69C5B" d="M12 19.5h.2V26H12zM18.8 19.5h.2V26h-.2z"/><path clip-path="url(#B)" fill="#9E7E64" d="M18.3 19.5h.4V26h-.4z"/><path clip-path="url(#B)" fill="#B69C5B" d="M18.1 19.5h.2V26h-.2z"/><path clip-path="url(#B)" fill="#9E7E64" d="M17.7 19.5h.4V26h-.4z"/><path clip-path="url(#B)" fill="#B69C5B" d="M17.4 19.5h.2V26h-.2z"/><path clip-path="url(#B)" fill="#9E7E64" d="M17 19.5h.4V26H17z"/><path clip-path="url(#B)" fill="#B69C5B" d="M16.7 19.5h.2V26h-.2z"/><path clip-path="url(#B)" fill="#9E7E64" d="M16.3 19.5h.4V26h-.4z"/><path clip-path="url(#B)" fill="#B69C5B" d="M16.1 19.5h.2V26h-.2z"/><path clip-path="url(#B)" fill="#9E7E64" d="M15.6 19.5h.4V26h-.4z"/><path clip-path="url(#B)" fill="#B69C5B" d="M15.4 19.5h.2V26h-.2z"/><path clip-path="url(#B)" fill="#9E7E64" d="M15 19.5h.4V26H15z"/><path clip-path="url(#B)" fill="#B69C5B" d="M14.7 19.5h.2V26h-.2z"/><path clip-path="url(#B)" fill="#9E7E64" d="M14.3 19.5h.4V26h-.4z"/><path clip-path="url(#B)" fill="#B69C5B" d="M14 19.5h.2V26H14z"/><path clip-path="url(#B)" fill="#9E7E64" d="M13.6 19.5h.4V26h-.4z"/><path clip-path="url(#B)" fill="#B69C5B" d="M13.4 19.5h.2V26h-.2z"/><path clip-path="url(#B)" fill="#9E7E64" d="M13 19.5h.4V26H13z"/><path clip-path="url(#B)" fill="#B69C5B" d="M12.7 19.5h.2V26h-.2z"/><path clip-path="url(#B)" fill="#9E7E64" d="M12.3 19.5h.4V26h-.4z"/><g clip-path="url(#B)"><defs><path id="C" d="M12.5 19.5h.3V26h-.3z"/></defs><clipPath id="D"><use xlink:href="#C" overflow="visible"/></clipPath><path clip-path="url(#D)" fill="#B69C5B" d="M12.5 19.5h.2V26h-.2z"/></g><g clip-path="url(#B)"><defs><path id="E" d="M18.5 19.5h.3V26h-.3z"/></defs><clipPath id="F"><use xlink:href="#E" overflow="visible"/></clipPath><path clip-path="url(#F)" fill="#B69C5B" d="M18.5 19.5h.2V26h-.2z"/></g><g clip-path="url(#B)"><defs><path id="G" d="M17.9 19.5h.3V26h-.3z"/></defs><clipPath id="H"><use xlink:href="#G" overflow="visible"/></clipPath><path clip-path="url(#H)" fill="#B69C5B" d="M17.9 19.5h.2V26h-.2z"/></g><g clip-path="url(#B)"><defs><path id="I" d="M17.2 19.5h.3V26h-.3z"/></defs><clipPath id="J"><use xlink:href="#I" overflow="visible"/></clipPath><path clip-path="url(#J)" fill="#B69C5B" d="M17.2 19.5h.2V26h-.2z"/></g><g clip-path="url(#B)"><defs><path id="K" d="M16.5 19.5h.2V26h-.2z"/></defs><clipPath id="L"><use xlink:href="#K" overflow="visible"/></clipPath><path clip-path="url(#L)" fill="#B69C5B" d="M16.5 19.5h.2V26h-.2z"/></g><g clip-path="url(#B)"><defs><path id="M" d="M15.9 19.5h.3V26h-.3z"/></defs><clipPath id="N"><use xlink:href="#M" overflow="visible"/></clipPath><path clip-path="url(#N)" fill="#B69C5B" d="M15.9 19.5h.2V26h-.2z"/></g><g clip-path="url(#B)"><defs><path id="O" d="M15.2 19.5h.3V26h-.3z"/></defs><clipPath id="P"><use xlink:href="#O" overflow="visible"/></clipPath><path clip-path="url(#P)" fill="#B69C5B" d="M15.2 19.5h.2V26h-.2z"/></g><g clip-path="url(#B)"><defs><path id="Q" d="M14.5 19.5h.3V26h-.3z"/></defs><clipPath id="R"><use xlink:href="#Q" overflow="visible"/></clipPath><path clip-path="url(#R)" fill="#B69C5B" d="M14.5 19.5h.3V26h-.3z"/></g><g clip-path="url(#B)"><defs><path id="S" d="M13.8 19.5h.3V26h-.3z"/></defs><clipPath id="T"><use xlink:href="#S" overflow="visible"/></clipPath><path clip-path="url(#T)" fill="#B69C5B" d="M13.8 19.5h.2V26h-.2z"/></g><g clip-path="url(#B)"><defs><path id="U" d="M13.2 19.5h.3V26h-.3z"/></defs><clipPath id="V"><use xlink:href="#U" overflow="visible"/></clipPath><path clip-path="url(#V)" fill="#B69C5B" d="M13.2 19.5h.2V26h-.2z"/></g><path fill="#231F20" d="M12.2 20.8h6.1s.5 1.6.6 2.7c0-.1-5-.2-6.7-2.7"/><path fill="#F4F4F4" d="M4.5 34.9h10.2v2.7H4.5z"/><path fill="none" stroke="#68111E" stroke-width=".161" stroke-miterlimit="10" d="M4.5 34.9h10.2v2.7H4.5z"/><g><defs><path id="W" d="M3.3 24.8h1v9h-1z"/></defs><clipPath id="X"><use xlink:href="#W" overflow="visible"/></clipPath><path clip-path="url(#X)" fill="#A82526" d="M4 33.8s-.2-.5-.4-1.4c-.2-.8-.3-2-.3-3.1v-.9c0-.3.1-.6.1-.8.1-.5.2-1 .3-1.4.3-.8.5-1.3.5-1.3s0 .6-.1 1.4c-.1.4 0 .9-.1 1.4v6.1"/></g><g><defs><path id="Y" d="M14.9 24.8h1v9h-1z"/></defs><clipPath id="Z"><use xlink:href="#Y" overflow="visible"/></clipPath><path clip-path="url(#Z)" fill="#A82526" d="M15.1 33.8v-1.4V31v-1.6c0-.6 0-1.1-.1-1.6s0-1-.1-1.4c-.1-.8-.1-1.4-.1-1.4s.2.5.5 1.3c.2.4.2.9.3 1.4 0 .3.1.5.1.8v.9c0 1.2-.1 2.3-.3 3.1-.1.8-.3 1.3-.3 1.3"/></g><path fill="#C04247" d="M8.6 38.3c-.8.1-1.5.1-2.3.1l.1-.1-.4 1.4c-.1.5-.3.9-.4 1.4-.1.5-.2.9-.2 1.4 0 .5-.1.9-.1 1.4v1.4c0 .5 0 .9.1 1.4v.7l.1.7c.1.5.1.9.1 1.4-.1-.5-.2-.9-.3-1.4l-.1-.7-.1-.7V46v-.7l.1-1.4c0-.5.1-.9.2-1.4.1-.5.2-.9.2-1.4.1-.5.1-.9.2-1.4.1-.5.2-.9.4-1.4v-.1h.1c.8 0 1.5 0 2.3.1zM1.7 25.8V31c0 1 0 2 .1 3v3c0 .5.1.9.1 1.4 0 .4.1.9.1 1.2.1 1.5.1 2.6.1 2.6s-.1-1-.3-2.6c0-.4-.1-.8-.1-1.2 0-.4-.1-.9-.1-1.4 0-1-.1-2-.1-3v-3c0-1 .1-1.9.1-2.6 0-.8.1-1.4.1-1.9v-.7M17.1 25.9s0 .3.1.7c0 .4.1 1.1.2 1.8 0 .8.1 1.6.1 2.6 0 .9 0 2 .1 3v3c-.1.9-.1 1.8-.2 2.6l-.2 2.5v-2.5c0-.8 0-1.6.1-2.6v-1.5V34v-3-2.6c-.2-1.5-.2-2.5-.2-2.5M12.1 20.8s0 .1-.2.1c-.1.1-.3.1-.6.1-.5.1-1.1.1-1.8.1S8.2 21 7.7 21c-.2 0-.4-.1-.6-.1-.1 0-.1-.1-.1-.1s0 .1.2.1c.1.1.3.1.6.1.5.1 1.1.1 1.8.1s1.3 0 1.8-.1c.2 0 .4-.1.6-.1.1 0 .1-.1.1-.1"/><path fill="#464A47" d="M5.7 52.3s.2 1.3.4 3.4c.2 2 .5 4.7.8 7.4.2 2.7.5 5.4.6 7.4.1 2 .2 3.4.2 3.4s-.2-1.3-.4-3.4c-.2-2-.5-4.7-.8-7.4-.2-2.7-.5-5.4-.6-7.4-.1-2.1-.2-3.4-.2-3.4"/><path fill="#252A26" d="M.6 42.6h2.9l-.1 3.1H1.1"/><path fill="#EEC19C" d="M1.7 45.7s.3 1.6.4 2.1c.1.5 1.4 4.3 1.4 4.3l.7-.1-.3-1.1.3-.1-.8-5H1.7z"/><path fill="#252A26" d="M18.6 42.6h-3l.1 3.1h2.4"/><path fill="#EEC19C" d="M17.4 45.7s-.3 1.6-.4 2.1c-.1.5-1.4 4.3-1.4 4.3l-.7-.1.3-1.1-.3-.1.8-5h1.7z"/><path fill="#5E411A" d="M7.1 12.8s.6-.5 1.6-.4v-.5s-1.2.2-1.6.5v.4z"/><path fill="#FEFBF8" d="M8.8 13.6c0 .4-.3.8-.7.8-.4 0-.7-.4-.7-.8s.3-.8.7-.8c.4 0 .7.4.7.8"/><path fill="#429CC0" d="M8.6 13.9c0 .3-.2.5-.5.5s-.5-.2-.5-.5.2-.5.5-.5.5.2.5.5"/><path fill="#231F20" d="M8.3 14c0 .2-.1.3-.3.3-.2 0-.3-.1-.3-.3 0-.2.1-.3.3-.3.2 0 .3.1.3.3"/><path fill="#FEFBF8" d="M8.1 13.9c0 .1-.1.1 0 0-.1.1-.2.1-.2 0s0-.1.1-.1c0 0 .1 0 .1.1"/><path fill="#9E7E64" d="M7.1 12.7s.6-.5 1.6-.4v-.5s-1.2.2-1.6.5v.4z"/><path fill="#5E411A" d="M11.9 12.8s-.6-.5-1.6-.4v-.5s1.2.2 1.6.5v.4z"/><path fill="#FEFBF8" d="M10.2 13.6c0 .4.3.8.7.8s.7-.4.7-.8-.3-.8-.7-.8-.7.4-.7.8"/><path fill="#429CC0" d="M10.4 13.9c0 .3.2.5.5.5s.5-.2.5-.5-.2-.5-.5-.5c-.2-.1-.5.2-.5.5"/><path fill="#231F20" d="M10.6 14c0 .2.1.3.3.3s.3-.1.3-.3c0-.2-.1-.3-.3-.3s-.3.1-.3.3"/><path fill="#FEFBF8" d="M10.9 13.9c0 .1.1.1 0 0 .1.1.2.1.2 0s0-.1-.1-.1c0 0-.1 0-.1.1"/><path fill="#9E7E64" d="M11.9 12.7s-.6-.5-1.6-.4v-.5s1.2.2 1.6.5v.4z"/><g opacity=".3"><defs><path id="aa" d="M8.6 14h1.9v1.9H8.6z"/></defs><clipPath id="ab"><use xlink:href="#aa" overflow="visible"/></clipPath><path clip-path="url(#ab)" fill="#F0CAAB" d="M10.5 14.9c0 .5-.4 1-.9 1s-.9-.4-.9-1c0-.5.4-1 .9-1 .5.1.9.5.9 1"/></g><path fill="#F0CAAB" d="M10.5 14.8c0 .5-.4.8-.9.8s-.9-.4-.9-.8c-.1-.5.3-.8.9-.8.5 0 .9.3.9.8"/><g opacity=".4"><defs><path id="ac" d="M8.9 14.2h.7v.6h-.7z"/></defs><clipPath id="ad"><use xlink:href="#ac" overflow="visible"/></clipPath><path clip-path="url(#ad)" fill="#F0CAAB" d="M9.6 14.5l-.1-.3c-.2 0-.4.1-.6.2l.1.4c.1-.2.3-.3.6-.3"/></g><path fill="#231F20" d="M11.7 15.7v.2c-.1.1-.2.3-.4.5-.2.1-.5.3-.8.3-.3.1-.6.1-1 .1-.3 0-.6 0-.9-.1-.3-.1-.6-.2-.8-.3-.2-.1-.3-.3-.4-.5v-.2s0 .1.1.2.2.2.4.3c.2.1.5.2.7.2.3.1.6.1.9.1.3 0 .6 0 .9-.1.3-.1.5-.1.7-.2.2-.1.3-.2.4-.3l.2-.2"/><path fill="#D6543B" d="M7.1 15.1c0 .3-.3.6-.6.6s-.5-.3-.5-.6.3-.6.6-.6.5.2.5.6M13.1 15.1c0 .3-.3.6-.6.6s-.6-.3-.6-.6.3-.6.6-.6c.4 0 .6.2.6.6"/><path fill="#231F20" d="M9.6 10.5s-3.8.5-4.7 1.7c0 0 1.3-.8 4.7-.8 3.4 0 4.7.8 4.7.8-1-1.3-4.7-1.7-4.7-1.7"/><g><defs><path id="ae" d="M4.9 10.8h9.3v1.3H4.9z"/></defs><clipPath id="af"><use xlink:href="#ae" overflow="visible"/></clipPath><path clip-path="url(#af)" fill="#7B7979" d="M14.2 12.2L14 12c-.1-.1-.2-.1-.3-.2l-.6-.2-1.2-.3c-.8-.2-1.6-.3-2.4-.4-.8.1-1.6.2-2.4.4l-1.2.3-.6.2c-.1 0-.2.1-.3.2l-.3.2.4-.2c.1-.1.2-.1.3-.2l.6-.2 1.2-.3c.8-.2 1.6-.3 2.4-.4.8.1 1.6.2 2.4.4l1.2.3.6.2c.1 0 .2.1.3.2l.1.2z"/></g><path fill="#FEFCFA" d="M9.6 7.9c-2.6 0-4.7 1.2-4.7 2.6v1.6C4.8 11 6.9 10 9.6 10c2.6 0 4.8 1 4.8 2.2v-1.6c-.1-1.5-2.2-2.7-4.8-2.7"/><path fill="#B69C5B" d="M10.5 4.1c0 .5-.4 1-1 1s-1-.4-1-1c0-.5.4-1 1-1s1 .4 1 1"/><path fill="#D3C49D" d="M9.6 3.7c0 .2-.2.4-.4.4s-.4-.2-.4-.4.2-.4.4-.4.4.2.4.4"/></svg>