<svg xmlns="http://www.w3.org/2000/svg" xmlns:xlink="http://www.w3.org/1999/xlink" width="65" height="50" viewBox="0 0 65 50"><path fill="#2E2A2B" d="M7.1 29.1c-15.6 5.6-.6 14.4-.6 14.4 9 6.3 26 6.6 26 6.6V28.7c-6.7-4.2-25.4.4-25.4.4M57.9 29.1s-18.7-4.6-25.4-.4V50s17-.3 26-6.6c0 .1 15-8.7-.6-14.3"/><path fill="#BDBCBC" d="M5.8 42.1s.2.1.5.3c.4.2.9.5 1.5.9.7.3 1.5.8 2.5 1.1.5.2 1 .4 1.6.6l1.8.6c2.5.8 5.5 1.5 8.7 2 3.2.5 6.7.8 10.1.9 3.5-.1 6.9-.4 10.2-.9 3.2-.5 6.2-1.2 8.7-2l1.8-.6c.6-.2 1.1-.4 1.6-.6 1-.4 1.8-.8 2.5-1.1.7-.3 1.2-.7 1.5-.9.3-.2.5-.3.5-.3s-.2.1-.5.3c-.4.2-.8.6-1.5.9-.7.3-1.5.8-2.5 1.2-.5.2-1 .4-1.6.6l-1.8.6c-2.5.8-5.5 1.5-8.7 2-3.2.5-6.7.9-10.2 1-3.5-.1-7-.5-10.2-1-3.2-.5-6.2-1.2-8.7-2l-1.8-.6c-.6-.2-1.1-.4-1.6-.6-1-.4-1.8-.9-2.5-1.2-.7-.4-1.2-.7-1.5-.9-.2-.2-.4-.3-.4-.3"/><path fill="#2E2A2B" d="M32.5 3.1l-23.9.6C12.8 16.2 12.8 26 12.8 34s19.6 8.6 19.6 8.6S52 41.9 52 34c0-8 0-17.8 4.2-30.3l-23.7-.6z"/><path fill="#BDBCBC" d="M52.1 26.9c0 7-19.6 7.6-19.6 7.6s-19.6-.6-19.6-7.6V34c0 8 19.6 8.6 19.6 8.6s19.6-.7 19.6-8.6v-7.1z"/><g opacity=".5"><defs><path id="a" d="M8.6 3.9h15.8v38H8.6z"/></defs><clipPath id="b"><use xlink:href="#a" overflow="visible"/></clipPath><path clip-path="url(#b)" fill="#2E2A2B" d="M24.4 41.4c-3.7-1.2-7.4-3.3-7.4-7.2 0-8 0-17.8-3.3-30.3H8.6c4.2 12.5 4.2 22.3 4.2 30.3 0 4.5 6.2 6.6 11.6 7.7v-.5z"/></g><g opacity=".5"><defs><path id="c" d="M40.6 3.9h15.8v38H40.6z"/></defs><clipPath id="d"><use xlink:href="#c" overflow="visible"/></clipPath><path clip-path="url(#d)" fill="#2E2A2B" d="M51.2 3.9c-3.3 12.5-3.3 22.3-3.3 30.3 0 3.9-3.6 6-7.4 7.2v.5c5.4-1 11.6-3.2 11.6-7.7 0-8 0-17.8 4.2-30.3h-5.1z"/></g><path fill="#4F4C4D" d="M56.4 3.7c0 2.1-10.7 3.7-23.9 3.7-13.2.1-23.9-1.6-23.9-3.7 0-2 10.7-3.7 23.9-3.7s23.9 1.7 23.9 3.7"/><path fill="#D3D2D2" d="M56.4 3.7s0 .2-.2.5-.7.6-1.3.8c-1.2.5-3.1 1-5.4 1.4-4.6.7-10.8 1.1-16.9 1.2-6.2 0-12.4-.4-16.9-1.2-2.3-.4-4.2-.8-5.4-1.4-.8-.2-1.2-.5-1.5-.8-.2-.2-.2-.5-.2-.5s0 .2.2.5c.3.3.7.6 1.4.8 1.3.5 3.1.9 5.4 1.3 4.6.7 10.7 1.1 16.9 1 6.2 0 12.3-.3 16.9-1 2.3-.4 4.2-.8 5.4-1.3.6-.2 1.1-.5 1.3-.8.3-.2.3-.5.3-.5"/></svg>