<svg xmlns="http://www.w3.org/2000/svg" xmlns:xlink="http://www.w3.org/1999/xlink" width="71" height="41.6" viewBox="0 0 71 41.6"><path fill="#F3E5A4" d="M71 33c0 1.5-1.3 2.8-2.8 2.8H2.8C1.3 35.8 0 34.6 0 33V11.9c0-1.5 1.3-2.8 2.8-2.8h65.4c1.5 0 2.8 1.3 2.8 2.8V33z"/><defs><path id="a" d="M0 31.3h71v4.5H0z"/></defs><clipPath id="b"><use xlink:href="#a" overflow="visible"/></clipPath><path clip-path="url(#b)" fill="#F3E5A4" d="M68.2 34.1H2.8c-1.6 0-2.8-1.3-2.8-2.8V33c0 1.5 1.3 2.8 2.8 2.8h65.4c1.5 0 2.8-1.3 2.8-2.8v-1.7c0 1.6-1.2 2.8-2.8 2.8"/><path fill="#C82257" d="M69.4 38.8c0 1.5-1.3 2.8-2.8 2.8H4.3c-1.6 0-2.8-1.3-2.8-2.8V4.7c0-1.6 1.3-2.8 2.8-2.8h62.3c1.5 0 2.8 1.3 2.8 2.8v34.1z"/><defs><path id="c" d="M1.5 37.1h67.9v4.5H1.5z"/></defs><clipPath id="d"><use xlink:href="#c" overflow="visible"/></clipPath><path clip-path="url(#d)" fill="#C82257" d="M66.6 39.9H4.3c-1.5 0-2.8-1.3-2.8-2.8v1.7c0 1.5 1.3 2.8 2.8 2.8h62.3c1.5 0 2.8-1.3 2.8-2.8v-1.7c0 1.6-1.2 2.8-2.8 2.8"/><path fill="#F4F4F4" d="M5.2 16.5h6v25.1h-6zM11.3 16.5h6v25.1h-6zM17.3 16.5h6v25.1h-6zM23.4 16.5h6v25.1h-6zM29.4 16.5h6v25.1h-6zM35.5 16.5h6v25.1h-6zM41.5 16.5h6v25.1h-6zM47.5 16.5h6v25.1h-6zM53.6 16.5h6v25.1h-6z"/><path fill="#F4F4F4" d="M59.6 16.5h6v25.1h-6z"/><path fill="#918F90" d="M10.9 16.5h.4v25.1h-.4zM16.9 16.5h.4v25.1h-.4zM22.9 16.5h.4v25.1h-.4zM29 16.5h.4v25.1H29zM35 16.5h.4v25.1H35zM41.1 16.5h.4v25.1h-.4zM47.1 16.5h.4v25.1h-.4zM53.2 16.5h.4v25.1h-.4zM59.2 16.5h.4v25.1h-.4zM65.2 16.5h.4v25.1h-.4z"/><path fill="#2E2A2B" d="M12.9 16.5V28c0 1-.8 1.9-1.9 1.9-1 0-1.9-.8-1.9-1.9V16.5h3.8z"/><path fill="#484546" d="M12.5 16.5v11.3c0 .8-.7 1.4-1.5 1.4s-1.5-.6-1.5-1.4V16.5h3z"/><path fill="#2E2A2B" d="M19 16.5V28c0 1-.8 1.9-1.9 1.9-1 0-1.9-.8-1.9-1.9V16.5H19z"/><path fill="#484546" d="M18.6 16.5v11.3c0 .8-.7 1.4-1.5 1.4s-1.5-.6-1.5-1.4V16.5h3z"/><path fill="#2E2A2B" d="M25 16.5V28c0 1-.8 1.9-1.9 1.9-1 0-1.9-.8-1.9-1.9V16.5H25z"/><path fill="#484546" d="M24.6 16.5v11.3c0 .8-.7 1.4-1.5 1.4s-1.5-.6-1.5-1.4V16.5h3z"/><path fill="#2E2A2B" d="M37.1 16.5V28c0 1-.8 1.9-1.9 1.9-1 0-1.9-.8-1.9-1.9V16.5h3.8z"/><path fill="#484546" d="M36.7 16.5v11.3c0 .8-.7 1.4-1.5 1.4s-1.5-.6-1.5-1.4V16.5h3z"/><path fill="#2E2A2B" d="M43.2 16.5V28c0 1-.8 1.9-1.9 1.9-1 0-1.9-.8-1.9-1.9V16.5h3.8z"/><path fill="#484546" d="M42.7 16.5v11.3c0 .8-.7 1.4-1.5 1.4s-1.5-.6-1.5-1.4V16.5h3z"/><path fill="#2E2A2B" d="M55.2 16.5V28c0 1-.8 1.9-1.9 1.9-1 0-1.9-.8-1.9-1.9V16.5h3.8z"/><path fill="#484546" d="M54.8 16.5v11.3c0 .8-.7 1.4-1.5 1.4s-1.5-.6-1.5-1.4V16.5h3z"/><path fill="#2E2A2B" d="M61.3 16.5V28c0 1-.8 1.9-1.9 1.9-1 0-1.9-.8-1.9-1.9V16.5h3.8z"/><path fill="#484546" d="M60.9 16.5v11.3c0 .8-.7 1.4-1.5 1.4s-1.5-.6-1.5-1.4V16.5h3z"/><g opacity=".3"><defs><path id="e" d="M5.2 39.9h60.4v1.7H5.2z"/></defs><clipPath id="f"><use xlink:href="#e" overflow="visible"/></clipPath><path clip-path="url(#f)" fill="#2E2A2B" d="M5.2 39.9h60.4v1.7H5.2z"/></g><g opacity=".3"><defs><path id="g" d="M5.3 39.9h60.4v.8H5.3z"/></defs><clipPath id="h"><use xlink:href="#g" overflow="visible"/></clipPath><path clip-path="url(#h)" fill="#2E2A2B" d="M5.3 39.9h60.4v.8H5.3z"/></g><g opacity=".3"><defs><path id="i" d="M5.2 16.5h60.4v3.8H5.2z"/></defs><clipPath id="j"><use xlink:href="#i" overflow="visible"/></clipPath><path clip-path="url(#j)" fill="#918F90" d="M5.2 16.5l60.5 3.9v-3.9"/></g><g opacity=".5"><defs><path id="k" d="M5.2 16.5h60.2v1H5.2z"/></defs><clipPath id="l"><use xlink:href="#k" overflow="visible"/></clipPath><path clip-path="url(#l)" fill="#918F90" d="M5.2 16.5h60.2v1H5.2z"/></g><path fill="#DE7A9A" d="M5.2 15.5h60.4v1H5.2z"/><path fill="#B55365" d="M11.9 8.8c0 .6-.5 1.1-1.1 1.1-.6 0-1.1-.5-1.1-1.1s.5-1.1 1.1-1.1c.6-.1 1.1.5 1.1 1.1"/><defs><path id="m" d="M9.6 8.6h2.2v1.3H9.6z"/></defs><clipPath id="n"><use xlink:href="#m" overflow="visible"/></clipPath><path clip-path="url(#n)" fill="#CB2D5F" d="M10.7 9.5c-.6 0-1-.4-1.1-.9v.2c0 .6.5 1.1 1.1 1.1s1.1-.5 1.1-1.1v-.2c0 .5-.5.9-1.1.9"/><path fill="#DE7A9A" d="M11.3 8.3c0 .2-.3.4-.6.4s-.6-.2-.6-.4.3-.4.6-.4c.4 0 .6.2.6.4"/><path fill="#B55365" d="M10.7 13.8c-2.7 0-4.9-2.1-5-4.7h-.6c.1 3 2.6 5.3 5.6 5.3s5.5-2.4 5.6-5.3h-.6c-.1 2.6-2.3 4.7-5 4.7M10.7 3.8c2.7 0 4.9 2.1 5 4.7h.6c-.1-3-2.6-5.3-5.6-5.3-3 0-5.5 2.4-5.6 5.3h.6c.2-2.6 2.4-4.7 5-4.7"/><path fill="#B55365" d="M10.7 4.8c2.1 0 3.8 1.6 3.9 3.6h.6c-.1-2.3-2.1-4.2-4.5-4.2S6.4 6.1 6.2 8.4h.6c.2-1.9 1.9-3.6 3.9-3.6M10.7 12.7c-2.1 0-3.8-1.6-3.9-3.6h-.5c.1 2.3 2.1 4.2 4.5 4.2s4.3-1.9 4.5-4.2h-.6c-.2 2-1.9 3.6-4 3.6"/><path fill="#B55365" d="M10.7 11.7c-1.5 0-2.7-1.1-2.9-2.6h-.4c.1 1.7 1.6 3.1 3.4 3.1s3.2-1.4 3.4-3.1h-.5c-.3 1.4-1.5 2.6-3 2.6M10.7 5.9c1.5 0 2.7 1.1 2.9 2.6h.5c-.1-1.7-1.6-3.1-3.4-3.1-1.7 0-3.2 1.4-3.3 3.1h.5C8 7 9.2 5.9 10.7 5.9"/><path fill="#B55365" d="M10.7 7.1c.8 0 1.5.6 1.7 1.4h.6c-.1-1.1-1.1-2-2.2-2s-2.1.9-2.2 2h.6c0-.8.7-1.4 1.5-1.4M10.7 10.5c-.8 0-1.5-.6-1.7-1.4h-.5c.1 1.1 1.1 2 2.2 2s2.1-.9 2.2-2h-.6c0 .7-.7 1.4-1.6 1.4"/><defs><path id="o" d="M5.1 3.2h11.2V14H5.1z"/></defs><clipPath id="p"><use xlink:href="#o" overflow="visible"/></clipPath><path clip-path="url(#p)" fill="#CB2D5F" d="M5.7 9.3v-.2h-.6v.2h.6zM15.7 9.1v.2h.6v-.2h-.6zM10.7 3.4c2.9 0 5.3 2.3 5.6 5.1-.1-3-2.6-5.3-5.6-5.3-3 0-5.5 2.4-5.6 5.3.3-2.9 2.7-5.1 5.6-5.1M14.6 9.3h.5v-.2h-.6c.1 0 .1.1.1.2zM6.8 9.3v-.2h-.5v.2h.5zM13.6 9.3h.4v-.2h-.5c.1 0 .1.1.1.2zM7.9 9.3v-.2h-.5v.2h.5zM9.1 9.3c.1.8.8 1.4 1.7 1.4.8 0 1.5-.6 1.7-1.4h.5v-.2h-.6c-.1.8-.8 1.4-1.7 1.4-.8 0-1.5-.6-1.7-1.4h-.5v.2h.6z"/><path clip-path="url(#p)" fill="#CB2D5F" d="M10.7 6.5c-1.1 0-2.1.9-2.2 2 .2-1 1.1-1.8 2.2-1.8s1.9.8 2.2 1.8c-.1-1.1-1-2-2.2-2"/><path clip-path="url(#p)" fill="#CB2D5F" d="M10.7 5.4C9 5.4 7.5 6.8 7.4 8.5c.3-1.6 1.6-2.9 3.3-2.9 1.7 0 3.1 1.3 3.3 2.9-.1-1.7-1.5-3.1-3.3-3.1M10.7 12.9c2.1 0 3.8-1.6 3.9-3.6-.2 1.9-1.9 3.4-3.9 3.4s-3.6-1.5-3.9-3.4c.2 2 1.9 3.6 3.9 3.6"/><path clip-path="url(#p)" fill="#CB2D5F" d="M10.7 11.9c1.5 0 2.7-1.1 2.9-2.6-.2 1.4-1.4 2.4-2.8 2.4s-2.6-1-2.8-2.4c0 1.4 1.2 2.6 2.7 2.6"/><path clip-path="url(#p)" fill="#CB2D5F" d="M10.7 13.8c-2.6 0-4.7-2-5-4.5.1 2.6 2.3 4.7 5 4.7s4.9-2.1 5-4.7c-.2 2.5-2.4 4.5-5 4.5M10.7 4.3c-2.4 0-4.3 1.9-4.5 4.2.2-2.2 2.1-4 4.5-4s4.2 1.8 4.5 4c-.1-2.3-2.1-4.2-4.5-4.2"/><path fill="#B55365" d="M61.2 8.8c0 .6-.5 1.1-1.1 1.1-.6 0-1.1-.5-1.1-1.1s.5-1.1 1.1-1.1c.6-.1 1.1.5 1.1 1.1"/><defs><path id="q" d="M59 8.6h2.2v1.3H59z"/></defs><clipPath id="r"><use xlink:href="#q" overflow="visible"/></clipPath><path clip-path="url(#r)" fill="#CB2D5F" d="M60.1 9.5c-.6 0-1-.4-1.1-.9v.2c0 .6.5 1.1 1.1 1.1s1.1-.5 1.1-1.1v-.2c-.1.5-.6.9-1.1.9"/><path fill="#DE7A9A" d="M60.7 8.3c0 .2-.3.4-.6.4s-.6-.2-.6-.4.3-.4.6-.4.6.2.6.4"/><path fill="#B55365" d="M60.1 13.8c-2.7 0-4.9-2.1-5-4.7h-.6c.1 3 2.6 5.3 5.6 5.3s5.5-2.4 5.6-5.3h-.6c-.2 2.6-2.3 4.7-5 4.7M60.1 3.8c2.7 0 4.9 2.1 5 4.7h.6c-.1-3-2.6-5.3-5.6-5.3-3 0-5.5 2.4-5.6 5.3h.6c.1-2.6 2.3-4.7 5-4.7"/><path fill="#B55365" d="M60.1 4.8c2.1 0 3.8 1.6 3.9 3.6h.6c-.1-2.3-2.1-4.2-4.5-4.2s-4.3 1.9-4.5 4.2h.6c.1-1.9 1.8-3.6 3.9-3.6M60.1 12.7c-2.1 0-3.8-1.6-3.9-3.6h-.6c.1 2.3 2.1 4.2 4.5 4.2s4.3-1.9 4.5-4.2H64c-.2 2-1.9 3.6-3.9 3.6"/><path fill="#B55365" d="M60.1 11.7c-1.5 0-2.7-1.1-2.9-2.6h-.5c.1 1.7 1.6 3.1 3.4 3.1s3.2-1.4 3.4-3.1H63c-.2 1.4-1.4 2.6-2.9 2.6M60.1 5.9c1.5 0 2.7 1.1 2.9 2.6h.5c-.1-1.7-1.6-3.1-3.4-3.1s-3.2 1.4-3.4 3.1h.5c.2-1.5 1.4-2.6 2.9-2.6"/><path fill="#B55365" d="M60.1 7.1c.8 0 1.5.6 1.7 1.4h.6c-.1-1.1-1.1-2-2.2-2s-2.1.9-2.2 2h.6c0-.8.6-1.4 1.5-1.4M60.1 10.5c-.8 0-1.5-.6-1.7-1.4h-.6c.1 1.1 1.1 2 2.2 2s2.1-.9 2.2-2h-.6c0 .7-.7 1.4-1.5 1.4"/><defs><path id="s" d="M54.5 3.2h11.2V14H54.5z"/></defs><clipPath id="t"><use xlink:href="#s" overflow="visible"/></clipPath><path clip-path="url(#t)" fill="#CB2D5F" d="M55.1 9.3v-.2h-.6v.2h.6zM65.1 9.1v.2h.6v-.2h-.6zM60.1 3.4c2.9 0 5.3 2.3 5.6 5.1-.1-3-2.6-5.3-5.6-5.3-3 0-5.5 2.4-5.6 5.3.2-2.9 2.6-5.1 5.6-5.1M64 9.3h.5v-.2H64v.2zM56.2 9.3v-.2h-.6v.2h.6zM62.9 9.3h.5v-.2h-.5v.2zM57.2 9.3v-.2h-.5v.2h.5zM58.4 9.3c.1.8.8 1.4 1.7 1.4.8 0 1.5-.6 1.7-1.4h.5v-.2h-.6c-.1.8-.8 1.4-1.7 1.4-.8 0-1.5-.6-1.7-1.4h-.6v.2h.7z"/><path clip-path="url(#t)" fill="#CB2D5F" d="M60.1 6.5c-1.1 0-2.1.9-2.2 2 .2-1 1.1-1.8 2.2-1.8s1.9.8 2.2 1.8c-.1-1.1-1.1-2-2.2-2"/><path clip-path="url(#t)" fill="#CB2D5F" d="M60.1 5.4c-1.8 0-3.2 1.4-3.4 3.1.2-1.6 1.6-2.9 3.3-2.9s3.1 1.3 3.3 2.9c0-1.7-1.5-3.1-3.2-3.1M60.1 12.9c2.1 0 3.8-1.6 3.9-3.6-.2 1.9-1.9 3.4-3.9 3.4s-3.6-1.5-3.9-3.4c.1 2 1.8 3.6 3.9 3.6"/><path clip-path="url(#t)" fill="#CB2D5F" d="M60.1 11.9c1.5 0 2.7-1.1 2.9-2.6-.2 1.4-1.4 2.4-2.8 2.4s-2.6-1-2.8-2.4c0 1.4 1.2 2.6 2.7 2.6"/><path clip-path="url(#t)" fill="#CB2D5F" d="M60.1 13.8c-2.6 0-4.7-2-5-4.5.1 2.6 2.3 4.7 5 4.7s4.9-2.1 5-4.7c-.3 2.5-2.4 4.5-5 4.5M60.1 4.3c-2.4 0-4.3 1.9-4.5 4.2.2-2.2 2.1-4 4.5-4s4.2 1.8 4.5 4c-.2-2.3-2.1-4.2-4.5-4.2"/><path fill="#F3E5A4" d="M17.6 13.9V2.8c0-1.5 1.3-2.8 2.8-2.8h29.9c1.5 0 2.8 1.3 2.8 2.8v11.1H17.6z"/><defs><path id="u" d="M17.6 12.9h35.5v1H17.6z"/></defs><clipPath id="v"><use xlink:href="#u" overflow="visible"/></clipPath><path clip-path="url(#v)" fill="#F3E5A4" d="M17.6 12.9h35.5v1H17.6z"/><path fill="#F3E5A4" d="M21.7 11.1c-1 0-1.8-.8-1.8-1.8V4.7c0-1 .8-1.8 1.8-1.8s1.8.8 1.8 1.8v4.6c0 .9-.8 1.8-1.8 1.8"/><path fill="#68111E" d="M21.7 3c.9 0 1.7.8 1.7 1.7v4.6c0 .9-.8 1.7-1.7 1.7S20 10.2 20 9.2V4.7c0-1 .8-1.7 1.7-1.7m0-.3c-1.1 0-2 .9-2 2v4.6c0 1.1.9 2 2 2s2-.9 2-2V4.7c0-1.1-.9-2-2-2"/><g><defs><path id="w" d="M20.1 3h3.3v7.7h-3.3z"/></defs><clipPath id="x"><use xlink:href="#w" overflow="visible"/></clipPath><path clip-path="url(#x)" fill="#F3E5A4" d="M21.7 3c-.7 0-1.4.5-1.6 1.1.3-.2.6-.3.9-.3.9 0 1.7.8 1.7 1.7v4.6c0 .2 0 .4-.1.6.5-.3.8-.8.8-1.4V4.7c0-1-.8-1.7-1.7-1.7"/></g><g><defs><path id="y" d="M20 3h3.4v5.1H20z"/></defs><clipPath id="z"><use xlink:href="#y" overflow="visible"/></clipPath><path clip-path="url(#z)" fill="#F3E5A4" d="M21.7 3c-.9 0-1.7.7-1.7 1.7v.1l3.4 3.4V4.7c0-1-.8-1.7-1.7-1.7"/></g><path fill="#DFCDD0" d="M21.7 10.2c-.5 0-.9-.4-.9-.9 0-.2.1-.4.2-.6l-.3-.3c-.2.2-.4.5-.4.9 0 .7.6 1.3 1.3 1.3.3 0 .7-.1.9-.4l-.2-.2c-.1.1-.3.2-.6.2"/><path fill="#A47078" d="M21.7 10.2c.2 0 .4-.1.6-.2L21 8.7c-.1.2-.2.4-.2.6 0 .5.4.9.9.9"/><path fill="#8F4F58" d="M23.1 9.3c0-.7-.6-1.3-1.3-1.3-.4 0-.7.2-1 .4l.3.3c.2-.2.4-.3.7-.3.5 0 .9.4.9.9 0 .3-.1.5-.3.7l.3.3c.2-.3.4-.6.4-1"/><path fill="#A47078" d="M22.7 9.3c0-.5-.4-.9-.9-.9-.3 0-.5.1-.7.3l1.3 1.3c.1-.2.3-.4.3-.7"/><path fill="#F3E5A4" d="M27.1 11.1c-1 0-1.8-.8-1.8-1.8V4.7c0-1 .8-1.8 1.8-1.8s1.8.8 1.8 1.8v4.6c0 1-.8 1.8-1.8 1.8"/><path fill="#68111E" d="M27.1 3c.9 0 1.7.8 1.7 1.7v4.6c0 .9-.8 1.7-1.7 1.7-.9 0-1.7-.8-1.7-1.7V4.7c0-1 .7-1.7 1.7-1.7m0-.3c-1.1 0-2 .9-2 2v4.6c0 1.1.9 2 2 2s2-.9 2-2V4.7c-.1-1.1-.9-2-2-2"/><g><defs><path id="A" d="M25.5 3h3.3v7.7h-3.3z"/></defs><clipPath id="B"><use xlink:href="#A" overflow="visible"/></clipPath><path clip-path="url(#B)" fill="#F3E5A4" d="M27.1 3c-.7 0-1.4.5-1.6 1.1.3-.2.6-.3.9-.3.9 0 1.7.8 1.7 1.7v4.6c0 .2 0 .4-.1.5.5-.3.8-.8.8-1.4V4.7c0-1-.8-1.7-1.7-1.7"/></g><g><defs><path id="C" d="M25.4 3h3.4v5.1h-3.4z"/></defs><clipPath id="D"><use xlink:href="#C" overflow="visible"/></clipPath><path clip-path="url(#D)" fill="#F3E5A4" d="M27.1 3c-.9 0-1.7.8-1.7 1.7v.1l3.4 3.4V4.7c0-1-.8-1.7-1.7-1.7"/></g><path fill="#DFCDD0" d="M27.1 10.2c-.5 0-.9-.4-.9-.9 0-.2.1-.4.2-.6l-.3-.3c-.2.2-.4.5-.4.9 0 .7.6 1.3 1.3 1.3.3 0 .7-.1.9-.4l-.2-.2c-.1.1-.3.2-.6.2"/><path fill="#A47078" d="M27.1 10.2c.2 0 .4-.1.6-.2l-1.3-1.3c-.1.2-.2.4-.2.6 0 .5.4.9.9.9"/><path fill="#8F4F58" d="M28.4 9.3c0-.7-.6-1.3-1.3-1.3-.4 0-.7.2-1 .4l.3.3c.2-.2.4-.3.7-.3.5 0 .9.4.9.9 0 .3-.1.5-.3.7l.3.3c.3-.3.4-.6.4-1"/><path fill="#A47078" d="M28 9.3c0-.5-.4-.9-.9-.9-.3 0-.5.1-.7.3l1.3 1.3c.2-.2.3-.4.3-.7"/><path fill="#F3E5A4" d="M32.5 11.1c-1 0-1.8-.8-1.8-1.8V4.7c0-1 .8-1.8 1.8-1.8s1.8.8 1.8 1.8v4.6c0 1-.8 1.8-1.8 1.8"/><path fill="#68111E" d="M32.5 3c.9 0 1.7.8 1.7 1.7v4.6c0 .9-.8 1.7-1.7 1.7s-1.7-.8-1.7-1.7V4.7c0-.9.7-1.7 1.7-1.7m0-.3c-1.1 0-2 .9-2 2v4.6c0 1.1.9 2 2 2s2-.9 2-2V4.7c-.1-1.1-1-2-2-2"/><g><defs><path id="E" d="M30.9 3h3.3v7.7h-3.3z"/></defs><clipPath id="F"><use xlink:href="#E" overflow="visible"/></clipPath><path clip-path="url(#F)" fill="#F3E5A4" d="M32.5 3c-.7 0-1.4.5-1.6 1.1.3-.2.6-.3.9-.3.9 0 1.7.8 1.7 1.7v4.6c0 .2 0 .4-.1.6.5-.3.8-.8.8-1.4V4.7c-.1-.9-.8-1.7-1.7-1.7"/></g><g><defs><path id="G" d="M30.8 3h3.4v5.1h-3.4z"/></defs><clipPath id="H"><use xlink:href="#G" overflow="visible"/></clipPath><path clip-path="url(#H)" fill="#F3E5A4" d="M32.5 3c-.9 0-1.7.8-1.7 1.7v.1l3.4 3.4V4.7c-.1-.9-.8-1.7-1.7-1.7"/></g><path fill="#DFCDD0" d="M32.5 10.2c-.5 0-.9-.4-.9-.9 0-.2.1-.4.2-.6l-.3-.3c-.2.2-.4.5-.4.9 0 .7.6 1.3 1.3 1.3.3 0 .7-.1.9-.4l-.2-.2c-.2.2-.4.2-.6.2"/><path fill="#A47078" d="M32.5 10.2c.2 0 .4-.1.6-.2l-1.3-1.3c-.1.2-.2.4-.2.6 0 .5.4.9.9.9"/><path fill="#8F4F58" d="M33.8 9.3c0-.7-.6-1.3-1.3-1.3-.4 0-.7.2-1 .4l.3.3c.2-.2.4-.3.7-.3.5 0 .9.4.9.9 0 .3-.1.5-.3.7l.3.3c.3-.2.4-.6.4-1"/><path fill="#A47078" d="M33.4 9.3c0-.5-.4-.9-.9-.9-.3 0-.5.1-.7.3l1.3 1.3c.2-.2.3-.4.3-.7"/><path fill="#9BB29D" d="M41.6 4.8c0 1.2-1 2.2-2.2 2.2s-2.2-1-2.2-2.2c0-1.2 1-2.2 2.2-2.2s2.2 1 2.2 2.2"/><circle fill="none" stroke="#465761" stroke-width=".281" stroke-miterlimit="10" cx="39.4" cy="4.8" r="2.2"/><g><defs><path id="I" d="M37.8 3h3.3v1.8h-3.3z"/></defs><clipPath id="J"><use xlink:href="#I" overflow="visible"/></clipPath><path clip-path="url(#J)" fill="#465761" d="M37.8 4.8v-.2c0-.1 0-.4.1-.6 0-.1.1-.2.2-.4l.3-.3c.1-.1.3-.2.5-.2.2-.1.3-.1.5-.1s.3 0 .5.1c.2 0 .3.1.5.2.1.1.3.2.3.3.1.1.2.2.2.4.1.2.1.4.1.6v0c0-.1-.1-.3-.2-.5-.1-.1-.1-.2-.2-.3l-.3-.3c-.1-.1-.3-.1-.4-.2-.1-.1-.3 0-.5-.1-.1 0-.3 0-.4.1-.1 0-.3.1-.4.2l-.3.3-.3.3c-.1.2-.2.4-.2.5v.2"/></g><path fill="#7E7993" d="M39.2 10.2c-.6.7-1.3.9-1.8.6-.4-.3-.3-1.2.3-1.8.6-.7 1.3-.9 1.8-.6.4.3.3 1.1-.3 1.8"/><ellipse transform="rotate(39.83 38.5 9.556)" fill="none" stroke="#473F65" stroke-width=".195" stroke-miterlimit="10" cx="38.5" cy="9.6" rx="1" ry="1.6"/><g><defs><path id="K" d="M38 8.3h1.6v1.6H38z"/></defs><clipPath id="L"><use xlink:href="#K" overflow="visible"/></clipPath><path clip-path="url(#L)" fill="#473F65" d="M38 9s.1-.2.3-.4c.1-.1.3-.2.5-.2h.3c.1 0 .2 0 .3.1.1.1.1.2.2.3v.3c0 .2-.1.4-.2.5-.1.1-.2.2-.2.3l-.1.1.2-.4c.1-.1.1-.3.1-.5v-.3c0-.1-.1-.1-.1-.2-.1 0-.1-.1-.2-.1h-.3c-.2 0-.3.1-.4.2-.3.1-.4.3-.4.3"/></g><path fill="#7E7993" d="M42.7 10.2c-.6.7-1.3.9-1.8.6-.4-.3-.3-1.2.3-1.8.6-.7 1.4-1 1.8-.7s.3 1.2-.3 1.9"/><ellipse transform="rotate(39.83 42.012 9.556)" fill="none" stroke="#473F65" stroke-width=".195" stroke-miterlimit="10" cx="42" cy="9.6" rx="1" ry="1.6"/><g><defs><path id="M" d="M41.5 8.3h1.6v1.6h-1.6z"/></defs><clipPath id="N"><use xlink:href="#M" overflow="visible"/></clipPath><path clip-path="url(#N)" fill="#473F65" d="M41.5 9s.1-.2.3-.4c.1-.1.3-.2.5-.2h.3c.1 0 .2 0 .3.1.1.1.1.2.2.3v.3c0 .2-.1.4-.2.5-.1.1-.2.2-.2.3l-.1.1.2-.4c.1-.2.2-.4.2-.6v-.3c0-.1-.1-.1-.1-.2 0 0-.1-.1-.2-.1h-.3c-.2 0-.3.1-.4.2-.3.2-.5.4-.5.4"/></g><path fill="#7E7993" d="M46.3 10.2c-.6.7-1.3.9-1.8.6-.4-.3-.3-1.2.3-1.8.6-.7 1.4-.9 1.8-.6.3.3.2 1.1-.3 1.8"/><ellipse transform="rotate(39.83 45.523 9.556)" fill="none" stroke="#473F65" stroke-width=".195" stroke-miterlimit="10" cx="45.5" cy="9.6" rx="1" ry="1.6"/><g><defs><path id="O" d="M45 8.3h1.6v1.6H45z"/></defs><clipPath id="P"><use xlink:href="#O" overflow="visible"/></clipPath><path clip-path="url(#P)" fill="#473F65" d="M45 9s.1-.2.3-.4c.1-.1.3-.2.5-.2h.3c.1 0 .2 0 .3.1.1.1.1.2.2.3v.3c0 .2-.1.4-.2.5-.1.1-.2.2-.2.3l-.1.1.2-.4c.1-.1.1-.3.1-.5v-.3c0-.1-.1-.1-.1-.2 0 0-.1-.1-.2-.1h-.3c-.2 0-.3.1-.4.2-.2.1-.4.3-.4.3"/></g><path fill="#7E7993" d="M49.8 10.2c-.6.7-1.3.9-1.8.6-.4-.3-.3-1.2.3-1.8.6-.7 1.4-.9 1.8-.6s.2 1.1-.3 1.8"/><ellipse transform="rotate(39.83 49.035 9.556)" fill="none" stroke="#473F65" stroke-width=".195" stroke-miterlimit="10" cx="49" cy="9.6" rx="1" ry="1.6"/><g><defs><path id="Q" d="M48.5 8.3h1.6v1.6h-1.6z"/></defs><clipPath id="R"><use xlink:href="#Q" overflow="visible"/></clipPath><path clip-path="url(#R)" fill="#473F65" d="M48.5 9s.1-.2.3-.4c.1-.1.3-.2.5-.2h.3c.1 0 .2 0 .3.1.1.1.1.2.2.3v.3c0 .2-.1.4-.2.5-.1.1-.2.2-.2.3l-.1.1.2-.4c.2-.2.2-.4.2-.6v-.3c0-.1-.1-.1-.1-.2 0 0-.1-.1-.2-.1h-.3c-.2 0-.3.1-.4.2-.3.2-.5.4-.5.4"/></g><path fill="#231F20" d="M43.1 2.7h7v4.2h-7z"/><g><defs><path id="S" d="M43.1 2.7h7v4.2h-7z"/></defs><clipPath id="T"><use xlink:href="#S" overflow="visible"/></clipPath><path clip-path="url(#T)" fill="#231F20" d="M43.1 2.7h7v4.1"/></g><path fill="#929493" d="M49.5 6.3h-5.9v-3h5.9v3zm.6-3.6h-7v4.2h7V2.7z"/></svg>