<svg xmlns="http://www.w3.org/2000/svg" xmlns:xlink="http://www.w3.org/1999/xlink" width="45.7" height="82.2" viewBox="0 0 45.7 82.2"><path fill="#636B62" d="M14.7 32H31v2.6H14.7z"/><path fill="#929791" d="M18.4 32h4.4v2.6h-4.4z"/><path fill="none" stroke="#BDBCBC" stroke-width="1.396" stroke-miterlimit="10" d="M22.8 9.4V2.3"/><path fill="#B52126" d="M20.4 11.9c0-1.8 1.1-3.2 2.4-3.2-1.9 0-3.4 1.5-3.4 3.2 0 1.8 1.5 3.2 3.4 3.2-1.3.1-2.4-1.4-2.4-3.2M22.8 8.7c1.3 0 2.4 1.5 2.4 3.2 0 1.8-1.1 3.2-2.4 3.2 1.9 0 3.4-1.5 3.4-3.2 0-1.8-1.5-3.2-3.4-3.2"/><path fill="#C14549" d="M25.3 11.9c0-1.8-1.1-3.2-2.4-3.2-1.3 0-2.4 1.5-2.4 3.2 0 1.8 1.1 3.2 2.4 3.2 1.3.1 2.4-1.4 2.4-3.2"/><path fill="#DE9DA0" d="M21.4 11.9c0-1.7.6-3.1 1.4-3.2h-.1c-1 0-1.8 1.5-1.8 3.2 0 1.8.8 3.2 1.8 3.2h.1c-.7 0-1.4-1.4-1.4-3.2"/><path fill="#727A72" d="M15.6 12.5c0-1.2 3.3-2.1 7.3-2.1-5.6 0-10.1 1-10.1 2.1 0 1.2 4.5 2.1 10.1 2.1-4.1 0-7.3-.9-7.3-2.1"/><path fill="#727A72" d="M22.8 10.4c4 0 7.3 1 7.3 2.1 0 1.2-3.3 2.1-7.3 2.1 5.6 0 10.1-1 10.1-2.1 0-1.2-4.5-2.1-10.1-2.1"/><path fill="#8A9089" d="M30.1 12.5c0-1.2-3.3-2.1-7.3-2.1s-7.3 1-7.3 2.1c0 1.2 3.3 2.1 7.3 2.1 4.1 0 7.3-.9 7.3-2.1"/><path fill="#C1C4C0" d="M18.7 12.5c0-1.1 1.9-2 4.2-2.1h-.4c-3 0-5.4 1-5.4 2.1 0 1.2 2.4 2.1 5.4 2.1h.4c-2.4-.1-4.2-1-4.2-2.1"/><path fill="#636B62" d="M10.3 12.2h25.1v19.7H10.3z"/><path fill="#A82526" d="M10.3 24.5l-3.7-1v-4.3l3.7-1M35.4 24.5l3.6-1v-4.3l-3.6-1"/><path fill="#929791" d="M13.5 25.7h18.7v4.2H13.5z"/><path fill="#303531" d="M14.7 26.6h1.6V29h-1.6zM17.1 26.6h1.6V29h-1.6zM19.6 26.6h1.6V29h-1.6zM22 26.6h1.6V29H22zM24.5 26.6h1.6V29h-1.6zM26.9 26.6h1.6V29h-1.6zM29.4 26.6H31V29h-1.6z"/><g opacity=".3"><defs><path id="a" d="M20.7 20.4h2.1v4.1h-2.1z"/></defs><clipPath id="b"><use xlink:href="#a" overflow="visible"/></clipPath><path clip-path="url(#b)" fill="#636B62" d="M22.8 20.4v4.1l-2.1-1.1.5-1.6"/></g><g opacity=".3"><defs><path id="c" d="M22.8 20.4h2.1v4.1h-2.1z"/></defs><clipPath id="d"><use xlink:href="#c" overflow="visible"/></clipPath><path clip-path="url(#d)" fill="#636B62" d="M22.8 20.4v4.1l2.2-1.1-.5-1.6"/></g><circle fill="none" stroke="#231F20" stroke-width="1.117" stroke-miterlimit="10" cx="16.8" cy="19.2" r="2.7"/><path fill="#C8C7C7" d="M18.8 19.2c0 1.1-.9 1.9-1.9 1.9s-1.9-.9-1.9-1.9c0-1.1.9-1.9 1.9-1.9s1.9.9 1.9 1.9"/><defs><path id="e" d="M14.1 19h5.5v3h-5.5z"/></defs><clipPath id="f"><use xlink:href="#e" overflow="visible"/></clipPath><path clip-path="url(#f)" fill="#231F20" d="M16.8 21.4c-1.2 0-2.1-.9-2.2-2.1-.2-.1-.4-.3-.6-.4v.3c0 1.5 1.2 2.7 2.7 2.7 1.5 0 2.7-1.2 2.7-2.7V19c-.2.1-.3.3-.6.4.1 1.1-.8 2-2 2"/><defs><path id="g" d="M14.1 16.5h5.5v2.9h-5.5z"/></defs><clipPath id="h"><use xlink:href="#g" overflow="visible"/></clipPath><path clip-path="url(#h)" fill="#231F20" d="M16.8 16.5c-1.4 0-2.6 1.1-2.7 2.5.2.1.3.3.6.4v-.1c0-1.2 1-2.2 2.2-2.2 1.2 0 2.2 1 2.2 2.2v.2c.2-.1.4-.2.6-.4-.2-1.5-1.4-2.6-2.9-2.6"/><circle fill="none" stroke="#231F20" stroke-width="1.117" stroke-miterlimit="10" cx="28.8" cy="19.2" r="2.7"/><path fill="#C8C7C7" d="M30.8 19.2c0 1.1-.9 1.9-1.9 1.9s-1.9-.9-1.9-1.9c0-1.1.9-1.9 1.9-1.9s1.9.9 1.9 1.9"/><defs><path id="i" d="M26.1 19h5.5v3h-5.5z"/></defs><clipPath id="j"><use xlink:href="#i" overflow="visible"/></clipPath><path clip-path="url(#j)" fill="#231F20" d="M28.8 21.4c-1.2 0-2.1-.9-2.2-2.1-.2-.1-.4-.3-.6-.4v.3c0 1.5 1.2 2.7 2.7 2.7 1.5 0 2.7-1.2 2.7-2.7V19c-.2.1-.3.3-.6.4.1 1.1-.8 2-2 2"/><defs><path id="k" d="M26.1 16.5h5.5v2.9h-5.5z"/></defs><clipPath id="l"><use xlink:href="#k" overflow="visible"/></clipPath><path clip-path="url(#l)" fill="#231F20" d="M28.8 16.5c-1.4 0-2.6 1.1-2.7 2.5.2.1.3.3.6.4v-.1c0-1.2 1-2.2 2.2-2.2s2.2 1 2.2 2.2v.2c.2-.1.4-.2.6-.4-.2-1.5-1.4-2.6-2.9-2.6"/><path fill="#B52126" d="M24.2 1.4c0 .8-.6 1.4-1.4 1.4s-1.4-.6-1.4-1.4c0-.8.6-1.4 1.4-1.4s1.4.6 1.4 1.4"/><path fill="#DE9DA0" d="M22.8.9c0 .3-.2.5-.5.5s-.5-.2-.5-.5.2-.5.5-.5c.3.1.5.3.5.5"/><defs><path id="m" d="M14.7 31.9H31v.6H14.7z"/></defs><clipPath id="n"><use xlink:href="#m" overflow="visible"/></clipPath><path clip-path="url(#n)" fill="#747B73" d="M14.7 31.9h16.2v.1s-.3 0-.7.1c-.4 0-1.1.1-1.8.2-.8 0-1.7.1-2.6.1-1 0-2 0-3 .1-1 0-2 0-3-.1-1 0-1.8-.1-2.6-.1s-1.4-.1-1.8-.2c-.5-.1-.7-.1-.7-.2z"/><path fill="#636B62" d="M8.5 34.3h28.8v23H8.5z"/><path fill="#D0D3D0" d="M8.5 34.2h28.8v.1s-.4 0-1.2.1c-.8 0-1.9.1-3.3.2-1.3 0-2.9.1-4.6.1-1.7 0-3.5 0-5.3.1-1.8 0-3.6 0-5.3-.1-1.7 0-3.3-.1-4.6-.1-1.3 0-2.5-.1-3.3-.2-.8-.1-1.2-.1-1.2-.2z"/><g opacity=".3"><defs><path id="o" d="M11.1 37.1h10.4v17.4H11.1z"/></defs><clipPath id="p"><use xlink:href="#o" overflow="visible"/></clipPath><path clip-path="url(#p)" fill="#636B62" d="M21.5 54.4H11.1l10.4-17.3"/></g><g opacity=".3"><defs><path id="q" d="M11.1 37.1h10.4v17.4H11.1z"/></defs><clipPath id="r"><use xlink:href="#q" overflow="visible"/></clipPath><path clip-path="url(#r)" fill="#636B62" d="M11.1 37.1h10.4L11.1 54.4"/></g><path fill="#636B62" d="M12.4 38.1h8.4v14.1h-8.4z"/><circle fill="none" stroke="#231F20" stroke-width=".464" stroke-miterlimit="10" cx="14.9" cy="41.1" r="1.1"/><defs><path id="s" d="M13.7 41H16v1.2h-2.3z"/></defs><clipPath id="t"><use xlink:href="#s" overflow="visible"/></clipPath><path clip-path="url(#t)" fill="#231F20" d="M14.9 42c-.5 0-.9-.4-.9-.9-.1 0-.2-.1-.2-.2v.1c0 .6.5 1.1 1.1 1.1.6 0 1.1-.5 1.1-1.1v-.1l-.2.2c-.1.5-.5.9-.9.9"/><defs><path id="u" d="M13.7 39.9H16v1.2h-2.3z"/></defs><clipPath id="v"><use xlink:href="#u" overflow="visible"/></clipPath><path clip-path="url(#v)" fill="#231F20" d="M14.9 39.9c-.6 0-1.1.5-1.1 1l.2.2V41c0-.5.4-.9.9-.9s.9.4.9.9v.1c.1 0 .2-.1.2-.2-.1-.5-.5-1-1.1-1"/><path fill="#73A3B8" d="M15.8 41.1c0 .5-.4.9-.9.9s-.9-.4-.9-.9.4-.9.9-.9.9.4.9.9"/><circle fill="none" stroke="#231F20" stroke-width=".464" stroke-miterlimit="10" cx="18.4" cy="41.1" r="1.1"/><defs><path id="w" d="M17.3 41h2.3v1.2h-2.3z"/></defs><clipPath id="x"><use xlink:href="#w" overflow="visible"/></clipPath><path clip-path="url(#x)" fill="#231F20" d="M18.4 42c-.5 0-.9-.4-.9-.9-.1 0-.2-.1-.2-.2v.1c0 .6.5 1.1 1.1 1.1.6 0 1.1-.5 1.1-1.1v-.1l-.2.2c0 .5-.4.9-.9.9"/><defs><path id="y" d="M17.3 39.9h2.3v1.2h-2.3z"/></defs><clipPath id="z"><use xlink:href="#y" overflow="visible"/></clipPath><path clip-path="url(#z)" fill="#231F20" d="M18.4 39.9c-.6 0-1.1.5-1.1 1l.2.2V41c0-.5.4-.9.9-.9s.9.4.9.9v.1c.1 0 .2-.1.2-.2 0-.5-.5-1-1.1-1"/><path fill="#9A95AA" d="M19.4 41.1c0 .5-.4.9-.9.9s-.9-.4-.9-.9.4-.9.9-.9.9.4.9.9"/><path fill="#E4E4E4" d="M13.2 49.5c0-1.9 1.6-3.5 3.5-3.5s3.5 1.6 3.5 3.5h-7z"/><path fill="none" stroke="#B2B1B1" stroke-width=".279" stroke-miterlimit="10" d="M13.2 49.5c0-1.9 1.6-3.5 3.5-3.5s3.5 1.6 3.5 3.5h-7z"/><path fill="none" stroke="#4F4C4D" stroke-width=".125" stroke-miterlimit="10" d="M19.6 49H19M19.5 48.5l-.5.1M19.3 48l-.5.2M19 47.5l-.4.3M18.6 47.1l-.3.3M18.1 46.7l-.2.5M17.6 46.5l-.2.5M17 46.4l-.1.5M16.4 46.4v.5M15.8 46.5l.1.4M15.2 46.7l.3.4M14.7 47l.3.4M14.3 47.4l.4.3M14 47.9l.4.2M13.8 48.4l.5.1M13.7 49h.5"/><path fill="#4F4C4D" d="M16.9 49.2c0 .2-.2.4-.4.4s-.4-.2-.4-.4.2-.4.4-.4c.3.1.4.2.4.4"/><path fill="none" stroke="#A82526" stroke-width=".279" stroke-miterlimit="10" d="M16.6 49.2l1.3-2.2"/><path fill="#918F90" d="M16.8 49.2c0 .1-.1.2-.2.2s-.2-.1-.2-.2.1-.2.2-.2.2.1.2.2"/><g opacity=".3"><defs><path id="A" d="M24.2 37.1h10.4v17.4H24.2z"/></defs><clipPath id="B"><use xlink:href="#A" overflow="visible"/></clipPath><path clip-path="url(#B)" fill="#636B62" d="M24.2 54.4h10.4L24.2 37.1"/></g><g opacity=".3"><defs><path id="C" d="M24.2 37.1h10.4v17.4H24.2z"/></defs><clipPath id="D"><use xlink:href="#C" overflow="visible"/></clipPath><path clip-path="url(#D)" fill="#636B62" d="M34.6 37.1H24.2l10.4 17.3"/></g><path fill="#636B62" d="M24.8 38.1h8.4v14.1h-8.4z"/><circle fill="none" stroke="#231F20" stroke-width=".464" stroke-miterlimit="10" cx="30.8" cy="41.1" r="1.1"/><defs><path id="E" d="M29.7 41H32v1.2h-2.3z"/></defs><clipPath id="F"><use xlink:href="#E" overflow="visible"/></clipPath><path clip-path="url(#F)" fill="#231F20" d="M30.8 42c.5 0 .9-.4.9-.9.1 0 .2-.1.2-.2v.1c0 .6-.5 1.1-1.1 1.1-.6 0-1.1-.5-1.1-1.1v-.1l.2.2c.1.5.4.9.9.9"/><defs><path id="G" d="M29.7 39.9H32v1.2h-2.3z"/></defs><clipPath id="H"><use xlink:href="#G" overflow="visible"/></clipPath><path clip-path="url(#H)" fill="#231F20" d="M30.8 39.9c.6 0 1.1.5 1.1 1l-.2.2V41c0-.5-.4-.9-.9-.9s-.9.4-.9.9v.1c-.1 0-.2-.1-.2-.2 0-.5.5-1 1.1-1"/><path fill="#73A3B8" d="M29.9 41.1c0 .5.4.9.9.9s.9-.4.9-.9-.4-.9-.9-.9c-.5-.1-.9.4-.9.9"/><circle fill="none" stroke="#231F20" stroke-width=".464" stroke-miterlimit="10" cx="27.3" cy="41.1" r="1.1"/><defs><path id="I" d="M26.1 41h2.3v1.2h-2.3z"/></defs><clipPath id="J"><use xlink:href="#I" overflow="visible"/></clipPath><path clip-path="url(#J)" fill="#231F20" d="M27.3 42c.5 0 .9-.4.9-.9.1 0 .2-.1.2-.2v.1c0 .6-.5 1.1-1.1 1.1-.6 0-1.1-.5-1.1-1.1v-.1l.2.2c0 .5.4.9.9.9"/><defs><path id="K" d="M26.1 39.9h2.3v1.2h-2.3z"/></defs><clipPath id="L"><use xlink:href="#K" overflow="visible"/></clipPath><path clip-path="url(#L)" fill="#231F20" d="M27.3 39.9c.6 0 1.1.5 1.1 1l-.2.2V41c0-.5-.4-.9-.9-.9s-.9.4-.9.9v.1c-.1 0-.2-.1-.2-.2 0-.5.5-1 1.1-1"/><path fill="#9A95AA" d="M26.3 41.1c0 .5.4.9.9.9s.9-.4.9-.9-.4-.9-.9-.9-.9.4-.9.9"/><path fill="#E4E4E4" d="M32.5 49.5c0-1.9-1.6-3.5-3.5-3.5s-3.5 1.6-3.5 3.5h7z"/><path fill="none" stroke="#B2B1B1" stroke-width=".279" stroke-miterlimit="10" d="M32.5 49.5c0-1.9-1.6-3.5-3.5-3.5s-3.5 1.6-3.5 3.5h7z"/><path fill="none" stroke="#4F4C4D" stroke-width=".125" stroke-miterlimit="10" d="M26.1 49h.5M26.2 48.5l.5.1M26.4 48l.4.2M26.7 47.5l.4.3M27.1 47.1l.3.3M27.6 46.7l.2.5M28.1 46.5l.2.5M28.7 46.4l.1.5M29.3 46.4v.5M29.9 46.5l-.1.4M30.5 46.7l-.3.4M31 47l-.4.4M31.4 47.4l-.4.3M31.7 47.9l-.5.2M31.9 48.4l-.5.1M32 49h-.6"/><path fill="#4F4C4D" d="M28.7 49.2c0 .2.2.4.4.4s.4-.2.4-.4-.2-.4-.4-.4-.4.2-.4.4"/><path fill="none" stroke="#A82526" stroke-width=".279" stroke-miterlimit="10" d="M29.1 49.2L27.8 47"/><path fill="#918F90" d="M28.8 49.2c0 .1.1.2.2.2s.2-.1.2-.2-.1-.2-.2-.2-.2.1-.2.2"/><path fill="#A82526" d="M11.1 57.2h23.5v2H11.1z"/><path fill="#C26767" d="M16.4 57.2h6.4v2h-6.4z"/><defs><path id="M" d="M11.1 57.2h23.5v.6H11.1z"/></defs><clipPath id="N"><use xlink:href="#M" overflow="visible"/></clipPath><path clip-path="url(#N)" fill="#747B73" d="M11.1 57.2h23.4v.1s-.4 0-1 .1c-.6 0-1.6.1-2.7.2-1.1 0-2.4.1-3.8.2-1.4 0-2.8 0-4.3.1-1.5 0-2.9 0-4.3-.1-1.4 0-2.7-.1-3.8-.2-1.1 0-2-.1-2.7-.2-.4-.1-.8-.1-.8-.2z"/><path fill="#636B62" d="M11.5 59.2H22v19H11.5z"/><path fill="#636B62" d="M11.1 66.1h11.3v3.5H11.1z"/><defs><path id="O" d="M11.6 65.9H22v.3H11.6z"/></defs><clipPath id="P"><use xlink:href="#O" overflow="visible"/></clipPath><path clip-path="url(#P)" fill="#636B62" d="M11.6 66.1s.6-.1 1.6-.1c.5 0 1.1-.1 1.7-.1h3.8c.6 0 1.2.1 1.7.1 1 .1 1.6.1 1.6.1H11.6z"/><g opacity=".4"><defs><path id="Q" d="M11.6 69.5H22v.8H11.6z"/></defs><clipPath id="R"><use xlink:href="#Q" overflow="visible"/></clipPath><path clip-path="url(#R)" fill="#636B62" d="M11.6 69.6H22v.1s-.2.1-.4.1c-.3.1-.7.2-1.2.3-.5.1-1.1.2-1.7.2-.6.1-1.3.1-1.9.1-.6 0-1.3 0-1.9-.1-.6 0-1.2-.1-1.7-.2s-.9-.2-1.2-.3c-.2-.1-.4-.1-.4-.2z"/></g><defs><path id="S" d="M16.6 59.2h.3v19h-.3z"/></defs><clipPath id="T"><use xlink:href="#S" overflow="visible"/></clipPath><path clip-path="url(#T)" fill="none" stroke="#636B62" stroke-width=".279" stroke-miterlimit="10" d="M16.8 59.2v19"/><g opacity=".4"><defs><path id="U" d="M11.6 66.9h10.2v.7H11.6z"/></defs><clipPath id="V"><use xlink:href="#U" overflow="visible"/></clipPath><path clip-path="url(#V)" fill="#636B62" d="M21.8 67.3c0 .2-.2.4-.4.4H12c-.2 0-.4-.2-.4-.4s.2-.4.4-.4h9.5c.2 0 .3.2.3.4"/></g><path fill="#636B62" d="M23.6 59.2h10.5v19H23.6z"/><path fill="#636B62" d="M23.2 66.1h11.3v3.5H23.2z"/><defs><path id="W" d="M23.7 65.9h10.4v.3H23.7z"/></defs><clipPath id="X"><use xlink:href="#W" overflow="visible"/></clipPath><path clip-path="url(#X)" fill="#636B62" d="M23.7 66.1s.6-.1 1.6-.1c.5 0 1.1-.1 1.7-.1h3.8c.6 0 1.2.1 1.7.1 1 .1 1.6.1 1.6.1H23.7z"/><g opacity=".4"><defs><path id="Y" d="M23.7 69.5h10.4v.8H23.7z"/></defs><clipPath id="Z"><use xlink:href="#Y" overflow="visible"/></clipPath><path clip-path="url(#Z)" fill="#636B62" d="M23.7 69.6h10.4v.1s-.2.1-.4.1c-.3.1-.7.2-1.2.3-.5.1-1.1.2-1.7.2-.6.1-1.3.1-1.9.1-.6 0-1.3 0-1.9-.1-.6 0-1.2-.1-1.7-.2s-.9-.2-1.2-.3c-.2-.1-.4-.1-.4-.2z"/></g><g><defs><path id="aa" d="M28.7 59.2h.3v19h-.3z"/></defs><clipPath id="ab"><use xlink:href="#aa" overflow="visible"/></clipPath><path clip-path="url(#ab)" fill="none" stroke="#636B62" stroke-width=".279" stroke-miterlimit="10" d="M28.9 59.2v19"/></g><g opacity=".4"><defs><path id="ac" d="M23.7 66.9h10.2v.7H23.7z"/></defs><clipPath id="ad"><use xlink:href="#ac" overflow="visible"/></clipPath><path clip-path="url(#ad)" fill="#636B62" d="M33.9 67.3c0 .2-.2.4-.4.4H24c-.2 0-.4-.2-.4-.4s.2-.4.4-.4h9.5c.3 0 .4.2.4.4"/></g><path fill="#A82526" d="M22.4 81.9c0 .2-.1.3-.3.3H11.4c-.2 0-.3-.1-.3-.3v-3.5c0-.2.1-.3.3-.3h10.8c.2 0 .3.1.3.3v3.5z"/><path fill="#B54647" d="M21.9 81.8c0 .1-.1.1-.3.1h-9.9c-.1 0-.3 0-.3-.1v-1.3c0-.1.1-.1.3-.1h9.9c.1 0 .3 0 .3.1v1.3z"/><path fill="#A82526" d="M34.5 81.9c0 .2-.1.3-.3.3H23.5c-.2 0-.3-.1-.3-.3v-3.5c0-.2.1-.3.3-.3h10.8c.2 0 .3.1.3.3v3.5z"/><path fill="#B54647" d="M34.1 81.8c0 .1-.1.1-.3.1h-9.9c-.1 0-.3 0-.3-.1v-1.3c0-.1.1-.1.3-.1h9.9c.1 0 .3 0 .3.1v1.3z"/><path fill="#A82526" d="M2.4 39.1c0 .2-.1.3-.3.3h-.6c-.2 0-.3-.1-.3-.3v-2.5c0-.2.1-.3.3-.3h.6c.2 0 .3.1.3.3v2.5zM2.4 40h5.5v8.7H2.4zM2.4 49.7h5.5v5.2H2.4z"/><path fill="#A82526" d="M1.8 35.7h6.7v4.4H1.8z"/><g opacity=".4"><defs><path id="ae" d="M2.5 40h5.3v.6H2.5z"/></defs><clipPath id="af"><use xlink:href="#ae" overflow="visible"/></clipPath><path clip-path="url(#af)" fill="#636B62" d="M2.5 40h5.2v.1s-.1 0-.2.1c-.1 0-.4.1-.6.2-.2 0-.5.1-.8.2-.3 0-.6.1-1 .1-.3 0-.7 0-1-.1-.3 0-.6-.1-.8-.2-.2 0-.5-.1-.6-.2-.1-.1-.2-.1-.2-.2z"/></g><g opacity=".4"><defs><path id="ag" d="M2.1 36.7h6v.9h-6z"/></defs><clipPath id="ah"><use xlink:href="#ag" overflow="visible"/></clipPath><path clip-path="url(#ah)" fill="#636B62" d="M8.1 37.2c0 .2-.1.5-.2.5H2.3c-.1 0-.2-.2-.2-.5s.1-.5.2-.5h5.6c.1 0 .2.2.2.5"/></g><path fill="#A82526" d="M1.8 47.8h6.7v1.9H1.8z"/><g opacity=".4"><defs><path id="ai" d="M2.2 48.2h6v.4h-6z"/></defs><clipPath id="aj"><use xlink:href="#ai" overflow="visible"/></clipPath><path clip-path="url(#aj)" fill="#636B62" d="M8.2 48.4c0 .1-.1.2-.2.2H2.4c-.1 0-.2-.1-.2-.2s.1-.2.2-.2H8c.1 0 .2.1.2.2"/></g><g opacity=".4"><defs><path id="ak" d="M1.6 36.4h.3v3h-.3z"/></defs><clipPath id="al"><use xlink:href="#ak" overflow="visible"/></clipPath><path clip-path="url(#al)" fill="#A82526" d="M1.8 36.4v3s-.1-.2-.1-.5c0-.1-.1-.3-.1-.5v-.6-.6c0-.2.1-.3.1-.5s.1-.3.1-.3z"/></g><path fill="#444142" d="M3.2 56.7h3.9v1.7H3.2z"/><path fill="#7B7979" d="M10.3 60.3H7v-2.9c0-.3-.3-.6-.6-.6H3.9c-.3 0-.6.3-.6.6v2.9H0v-2.9c0-2.2 1.8-3.9 3.9-3.9h2.5c2.2 0 3.9 1.8 3.9 3.9v2.9z"/><path fill="#585555" d="M6.1 55.3H4.3c-1.6 0-2.8 1.3-2.8 2.8v2.1h1.9v-2.9c0-.3.3-.6.6-.6h2.5c.2.1.5.3.5.6v2.9h1.9v-2.1c0-1.5-1.3-2.8-2.8-2.8"/><path fill="#444142" d="M0 60.3h3.4V62H0zM7 60.3h3.4V62H7z"/><path fill="#A82526" d="M43.3 39.1c0 .2.1.3.3.3h.6c.2 0 .3-.1.3-.3v-2.5c0-.2-.1-.3-.3-.3h-.6c-.2 0-.3.1-.3.3v2.5zM37.8 40h5.5v8.7h-5.5zM37.7 49.7h5.5v5.2h-5.5z"/><path fill="#A82526" d="M37.2 35.7h6.7v4.4h-6.7z"/><g opacity=".4"><defs><path id="am" d="M37.9 39.5h5.3v.6h-5.3z"/></defs><clipPath id="an"><use xlink:href="#am" overflow="visible"/></clipPath><path clip-path="url(#an)" fill="#636B62" d="M43.1 40.1h-5.2V40s.1 0 .2-.1c.1 0 .4-.1.6-.2.2 0 .5-.1.8-.2.3 0 .6-.1 1-.1.3 0 .7 0 1 .1.3 0 .6.1.8.2.2 0 .5.1.6.2.2.1.2.1.2.2z"/></g><g opacity=".4"><defs><path id="ao" d="M37.6 36.7h6v.9h-6z"/></defs><clipPath id="ap"><use xlink:href="#ao" overflow="visible"/></clipPath><path clip-path="url(#ap)" fill="#636B62" d="M37.6 37.2c0 .2.1.5.2.5h5.6c.1 0 .2-.2.2-.5s-.1-.5-.2-.5h-5.6c-.1 0-.2.2-.2.5"/></g><path fill="#A82526" d="M37.2 47.8h6.7v1.9h-6.7z"/><g opacity=".4"><defs><path id="aq" d="M37.5 48.2h6v.4h-6z"/></defs><clipPath id="ar"><use xlink:href="#aq" overflow="visible"/></clipPath><path clip-path="url(#ar)" fill="#636B62" d="M37.5 48.4c0 .1.1.2.2.2h5.6c.1 0 .2-.1.2-.2s-.1-.2-.2-.2h-5.6c-.1 0-.2.1-.2.2"/></g><g opacity=".4"><defs><path id="as" d="M43.6 36.4h.3v3h-.3z"/></defs><clipPath id="at"><use xlink:href="#as" overflow="visible"/></clipPath><path clip-path="url(#at)" fill="#A82526" d="M43.9 36.4v3s-.1-.2-.1-.5c0-.1-.1-.3-.1-.5v-.6-.6c0-.2.1-.3.1-.5s.1-.3.1-.3z"/></g><path fill="#444142" d="M38.6 56.7h3.9v1.7h-3.9z"/><path fill="#7B7979" d="M35.3 60.3h3.3v-2.9c0-.3.3-.6.6-.6h2.5c.3 0 .6.3.6.6v2.9h3.4v-2.9c0-2.2-1.8-3.9-3.9-3.9h-2.5c-2.2 0-3.9 1.8-3.9 3.9v2.9z"/><path fill="#585555" d="M39.6 55.3h1.8c1.6 0 2.8 1.3 2.8 2.8v2.1h-1.9v-2.9c0-.3-.3-.6-.6-.6h-2.5c-.3 0-.6.3-.6.6v2.9h-1.9v-2.1c.1-1.5 1.3-2.8 2.9-2.8"/><path fill="#444142" d="M42.3 60.3h3.4V62h-3.4zM35.3 60.3h3.4V62h-3.4z"/></svg>