<svg xmlns="http://www.w3.org/2000/svg" xmlns:xlink="http://www.w3.org/1999/xlink" width="42.8" height="72.4" viewBox="0 0 42.8 72.4"><path fill="#231F20" d="M19.5 53.5H24v18.9h-4.5z"/><path fill="#656263" d="M20.8 53.5h2v18.9h-2z"/><path fill="#231F20" d="M16.6 49.3H27v4.2H16.6z"/><path fill="#656263" d="M20.8 53.5h2.6v-4.2h-3.2v4.2"/><path fill="#231F20" d="M4.8 15.5s2.7 1.1 2.7 3.6h2V10H.4c.6 2 1.8 4.5 4.4 5.5"/><path fill="#656263" d="M.1 8h9.5v-.5H0c0 .1 0 .3.1.5"/><path fill="#A7A5A6" d="M9.5 7.5v-.4H0v.3h9.5z"/><path fill="#4F4C4D" d="M.1 8c.1.5.2 1.2.4 2h9.1V8H.1z"/><path fill="#231F20" d="M4.8 28.8s2.7 1.1 2.7 3.6h2v-9.1H.4c.6 2 1.8 4.4 4.4 5.5"/><path fill="#656263" d="M.1 21.2h9.5v-.5H0c0 .2 0 .3.1.5"/><path fill="#A7A5A6" d="M9.5 20.7v-.3H0v.3h9.5z"/><path fill="#4F4C4D" d="M.1 21.2c.1.5.2 1.2.4 2h9.1v-2H.1z"/><path fill="#231F20" d="M4.8 42s2.7 1.1 2.7 3.6h2v-9.1H.4C1 38.6 2.2 41 4.8 42"/><path fill="#656263" d="M.1 34.5h9.5V34H0c0 .1 0 .3.1.5"/><path fill="#A7A5A6" d="M9.5 34v-.3H0v.3h9.5z"/><path fill="#4F4C4D" d="M.1 34.5c.1.5.2 1.2.4 2h9.1v-2H.1z"/><path fill="#231F20" d="M38 15.5s-2.7 1.1-2.7 3.6h-2V10h9.1c-.5 2-1.7 4.5-4.4 5.5"/><path fill="#656263" d="M42.8 8h-9.5v-.5h9.5V8"/><path fill="#A7A5A6" d="M33.3 7.5v-.4h9.5v.3h-9.5z"/><path fill="#4F4C4D" d="M42.8 8c-.1.5-.2 1.2-.4 2h-9.1V8h9.5z"/><path fill="#231F20" d="M38 28.8s-2.7 1.1-2.7 3.6h-2v-9.1h9.1c-.5 2-1.7 4.4-4.4 5.5"/><path fill="#656263" d="M42.8 21.2h-9.5v-.5h9.5v.5"/><path fill="#A7A5A6" d="M33.3 20.7v-.3h9.5v.3h-9.5z"/><path fill="#4F4C4D" d="M42.8 21.2c-.1.5-.2 1.2-.4 2h-9.1v-2h9.5z"/><path fill="#231F20" d="M38 42s-2.7 1.1-2.7 3.6h-2v-9.1h9.1c-.5 2.1-1.7 4.5-4.4 5.5"/><path fill="#656263" d="M42.8 34.5h-9.5V34h9.5v.5"/><path fill="#A7A5A6" d="M33.3 34v-.3h9.5v.3h-9.5z"/><path fill="#4F4C4D" d="M42.8 34.5c-.1.5-.2 1.2-.4 2h-9.1v-2h9.5z"/><path fill="#7B7979" d="M21.5 0c2.7 0 4.9 1.5 4.9 3.4s-2.2 3.4-4.9 3.4c3.9 0 7.1-1.5 7.1-3.4S25.4 0 21.5 0"/><path fill="#231F20" d="M16.6 3.4c0-1.9 2.2-3.4 4.9-3.4-3.9 0-7.1 1.5-7.1 3.4s3.2 3.4 7.1 3.4c-2.7 0-4.9-1.5-4.9-3.4"/><path fill="#444142" d="M26.3 3.4c0-1.9-2.2-3.4-4.9-3.4s-4.9 1.5-4.9 3.4 2.2 3.4 4.9 3.4 4.9-1.5 4.9-3.4"/><path fill="#231F20" d="M13.2 50.2c-1.7 0-3.1-1.4-3.1-3.1V6.5c0-1.7 1.4-3.1 3.1-3.1h16.6c1.7 0 3.1 1.4 3.1 3.1v40.6c0 1.7-1.4 3.1-3.1 3.1H13.2z"/><path fill="#DEDDDE" d="M29.8 4.2c1.2 0 2.2 1 2.2 2.2V47c0 1.2-1 2.2-2.2 2.2H13.2c-1.2 0-2.2-1-2.2-2.2V6.5c0-1.2 1-2.2 2.2-2.2h16.6m0-1.8H13.2c-2.2 0-3.9 1.8-3.9 3.9V47c0 2.2 1.8 3.9 3.9 3.9h16.6c2.2 0 3.9-1.8 3.9-3.9V6.5c0-2.2-1.8-4-3.9-4"/><g opacity=".4"><defs><path id="a" d="M10.9 4.2H32v21.1H10.9z"/></defs><clipPath id="b"><use xlink:href="#a" overflow="visible"/></clipPath><path clip-path="url(#b)" fill="#DEDDDE" d="M11.5 6.5c0-.9.8-1.7 1.7-1.7h16.6c.9 0 1.7.8 1.7 1.7v18.9h.5V6.5c0-1.2-1-2.2-2.2-2.2H13.2c-1.2 0-2.2 1-2.2 2.2v18.9h.6V6.5z"/></g><defs><path id="c" d="M10.9 25.3H32v24H10.9z"/></defs><clipPath id="d"><use xlink:href="#c" overflow="visible"/></clipPath><path clip-path="url(#d)" fill="#231F20" d="M13.2 49.3h16.6c1.2 0 2.2-1 2.2-2.2V25.3h-.6V47c0 .9-.8 1.7-1.7 1.7H13.2c-.9 0-1.7-.8-1.7-1.7V25.3h-.6V47c0 1.3 1 2.3 2.3 2.3"/><path fill="#A82526" d="M21.5 18.3c-2.9 0-5.2-2.3-5.2-5.2 0-2.9 2.3-5.2 5.2-5.2s5.2 2.3 5.2 5.2c0 2.8-2.4 5.2-5.2 5.2"/><path fill="#918F90" d="M21.5 8.3c2.6 0 4.7 2.1 4.7 4.7s-2.1 4.7-4.7 4.7-4.7-2.1-4.7-4.7c-.1-2.5 2.1-4.7 4.7-4.7m0-.9c-3.1 0-5.7 2.5-5.7 5.7 0 3.1 2.5 5.7 5.7 5.7s5.7-2.5 5.7-5.7c-.1-3.2-2.6-5.7-5.7-5.7"/><g opacity=".3"><defs><path id="e" d="M17 10.3h9.2v7.5H17z"/></defs><clipPath id="f"><use xlink:href="#e" overflow="visible"/></clipPath><path clip-path="url(#f)" fill="#A82526" d="M25.3 10.3c.2.5.3 1 .3 1.6 0 2.6-2.1 4.7-4.7 4.7-1.6 0-2.9-.8-3.8-1.9.6 1.8 2.4 3.2 4.5 3.2 2.6 0 4.7-2.1 4.7-4.7-.1-1.2-.5-2.2-1-2.9"/></g><defs><path id="g" d="M18.7 9.8h2.4v2.4h-2.4z"/></defs><clipPath id="h"><use xlink:href="#g" overflow="visible"/></clipPath><path clip-path="url(#h)" fill="#A82526" d="M21 11c0 .7-.5 1.2-1.2 1.2s-1.2-.5-1.2-1.2.5-1.2 1.2-1.2 1.2.5 1.2 1.2"/><g opacity=".5"><defs><path id="i" d="M15.8 7.4h11.3v11.3H15.8z"/></defs><clipPath id="j"><use xlink:href="#i" overflow="visible"/></clipPath><path clip-path="url(#j)" fill="#918F90" d="M21.5 7.9c2.9 0 5.2 2.3 5.2 5.2h.5c0-3.1-2.5-5.7-5.7-5.7s-5.7 2.5-5.7 5.7h.5c0-2.9 2.3-5.2 5.2-5.2"/><path clip-path="url(#j)" fill="#231F20" d="M21.5 7.9c-2.9 0-5.2 2.3-5.2 5.2h.5c0-2.6 2.1-4.7 4.7-4.7s4.7 2.1 4.7 4.7h.5c0-2.9-2.4-5.2-5.2-5.2"/><path clip-path="url(#j)" fill="#231F20" d="M21.5 18.7c3.1 0 5.7-2.5 5.7-5.7h-.5c0 2.9-2.3 5.2-5.2 5.2s-5.2-2.3-5.2-5.2h-.5c0 3.2 2.5 5.7 5.7 5.7"/><path clip-path="url(#j)" fill="#A7A5A6" d="M21.5 17.8c-2.6 0-4.7-2.1-4.7-4.7h-.5c0 2.9 2.3 5.2 5.2 5.2s5.2-2.3 5.2-5.2h-.5c0 2.6-2.1 4.7-4.7 4.7"/></g><defs><path id="k" d="M15.9 6.8H27v6H15.9z"/></defs><clipPath id="l"><use xlink:href="#k" overflow="visible"/></clipPath><path clip-path="url(#l)" fill="#444142" d="M21.5 7.7c2.9 0 5.3 2.2 5.5 5.1v-.5c0-3.1-2.5-5.5-5.5-5.5-3.1 0-5.5 2.5-5.5 5.5v.5c.2-2.8 2.6-5.1 5.5-5.1"/><path fill="#EBD467" d="M21.6 31.8c-2.9 0-5.2-2.3-5.2-5.2s2.3-5.2 5.2-5.2c2.9 0 5.2 2.3 5.2 5.2s-2.3 5.2-5.2 5.2"/><path fill="#918F90" d="M21.6 21.9c2.6 0 4.7 2.1 4.7 4.7s-2.1 4.7-4.7 4.7-4.7-2.1-4.7-4.7 2.1-4.7 4.7-4.7m0-.9c-3.1 0-5.7 2.5-5.7 5.7 0 3.1 2.5 5.7 5.7 5.7s5.7-2.5 5.7-5.7-2.6-5.7-5.7-5.7"/><g opacity=".3"><defs><path id="m" d="M17.1 23.8h9.2v7.5h-9.2z"/></defs><clipPath id="n"><use xlink:href="#m" overflow="visible"/></clipPath><path clip-path="url(#n)" fill="#A82526" d="M25.4 23.8c.2.5.3 1 .3 1.6 0 2.6-2.1 4.7-4.7 4.7-1.6 0-2.9-.8-3.8-1.9.6 1.8 2.4 3.2 4.5 3.2 2.6 0 4.7-2.1 4.7-4.7-.1-1.1-.4-2.1-1-2.9"/></g><defs><path id="o" d="M18.8 23.4h2.4v2.4h-2.4z"/></defs><clipPath id="p"><use xlink:href="#o" overflow="visible"/></clipPath><path clip-path="url(#p)" fill="#EBD467" d="M21.2 24.6c0 .7-.5 1.2-1.2 1.2s-1.2-.5-1.2-1.2.5-1.2 1.2-1.2 1.2.5 1.2 1.2"/><g opacity=".5"><defs><path id="q" d="M15.9 21h11.3v11.3H15.9z"/></defs><clipPath id="r"><use xlink:href="#q" overflow="visible"/></clipPath><path clip-path="url(#r)" fill="#918F90" d="M21.6 21.5c2.9 0 5.2 2.3 5.2 5.2h.5c0-3.1-2.5-5.7-5.7-5.7s-5.7 2.5-5.7 5.7h.5c0-2.9 2.3-5.2 5.2-5.2"/><path clip-path="url(#r)" fill="#231F20" d="M21.6 21.5c-2.9 0-5.2 2.3-5.2 5.2h.5c0-2.6 2.1-4.7 4.7-4.7s4.7 2.1 4.7 4.7h.5c0-2.9-2.3-5.2-5.2-5.2"/><path clip-path="url(#r)" fill="#231F20" d="M21.6 32.3c3.1 0 5.7-2.5 5.7-5.7h-.5c0 2.9-2.3 5.2-5.2 5.2-2.9 0-5.2-2.3-5.2-5.2h-.5c0 3.2 2.6 5.7 5.7 5.7"/><path clip-path="url(#r)" fill="#A7A5A6" d="M21.6 31.4c-2.6 0-4.7-2.1-4.7-4.7h-.5c0 2.9 2.3 5.2 5.2 5.2 2.9 0 5.2-2.3 5.2-5.2h-.5c0 2.6-2.1 4.7-4.7 4.7"/></g><g><defs><path id="s" d="M16.1 20.4h11.1v6H16.1z"/></defs><clipPath id="t"><use xlink:href="#s" overflow="visible"/></clipPath><path clip-path="url(#t)" fill="#444142" d="M21.6 21.3c2.9 0 5.3 2.2 5.5 5.1v-.5c0-3.1-2.5-5.5-5.5-5.5-3.1 0-5.5 2.5-5.5 5.5v.5c.2-2.9 2.6-5.1 5.5-5.1"/></g><path fill="#597F5C" d="M21.7 45.3c-2.9 0-5.2-2.3-5.2-5.2s2.3-5.2 5.2-5.2 5.2 2.3 5.2 5.2-2.3 5.2-5.2 5.2"/><path fill="#918F90" d="M21.7 35.4c2.6 0 4.7 2.1 4.7 4.7s-2.1 4.7-4.7 4.7-4.7-2.1-4.7-4.7 2.1-4.7 4.7-4.7m0-1c-3.1 0-5.7 2.5-5.7 5.7s2.5 5.7 5.7 5.7 5.7-2.5 5.7-5.7-2.5-5.7-5.7-5.7"/><g opacity=".3"><defs><path id="u" d="M17.3 37.3h9.2v7.5h-9.2z"/></defs><clipPath id="v"><use xlink:href="#u" overflow="visible"/></clipPath><path clip-path="url(#v)" fill="#A82526" d="M25.5 37.3c.2.5.3 1 .3 1.6 0 2.6-2.1 4.7-4.7 4.7-1.6 0-2.9-.8-3.8-1.9.6 1.8 2.4 3.2 4.5 3.2 2.6 0 4.7-2.1 4.7-4.7 0-1.2-.4-2.1-1-2.9"/></g><g><defs><path id="w" d="M18.9 36.8h2.4v2.4h-2.4z"/></defs><clipPath id="x"><use xlink:href="#w" overflow="visible"/></clipPath><path clip-path="url(#x)" fill="#597F5C" d="M21.3 38c0 .7-.5 1.2-1.2 1.2s-1.2-.5-1.2-1.2.5-1.2 1.2-1.2 1.2.6 1.2 1.2"/></g><g opacity=".5"><defs><path id="y" d="M16.1 34.4h11.3v11.3H16.1z"/></defs><clipPath id="z"><use xlink:href="#y" overflow="visible"/></clipPath><path clip-path="url(#z)" fill="#918F90" d="M21.7 34.9c2.9 0 5.2 2.3 5.2 5.2h.5c0-3.1-2.5-5.7-5.7-5.7S16 36.9 16 40.1h.5c0-2.9 2.4-5.2 5.2-5.2"/><path clip-path="url(#z)" fill="#231F20" d="M21.7 34.9c-2.9 0-5.2 2.3-5.2 5.2h.5c0-2.6 2.1-4.7 4.7-4.7s4.7 2.1 4.7 4.7h.5c0-2.9-2.3-5.2-5.2-5.2"/><path clip-path="url(#z)" fill="#231F20" d="M21.7 45.7c3.1 0 5.7-2.5 5.7-5.7h-.5c0 2.9-2.3 5.2-5.2 5.2s-5.2-2.3-5.2-5.2H16c.1 3.2 2.6 5.7 5.7 5.7"/><path clip-path="url(#z)" fill="#A7A5A6" d="M21.7 44.8c-2.6 0-4.7-2.1-4.7-4.7h-.5c0 2.9 2.3 5.2 5.2 5.2s5.2-2.3 5.2-5.2h-.5c.1 2.6-2.1 4.7-4.7 4.7"/></g><g><defs><path id="A" d="M16.2 33.8h11.1v6H16.2z"/></defs><clipPath id="B"><use xlink:href="#A" overflow="visible"/></clipPath><path clip-path="url(#B)" fill="#444142" d="M21.7 34.7c2.9 0 5.3 2.2 5.5 5.1v-.5c0-3.1-2.5-5.5-5.5-5.5s-5.5 2.5-5.5 5.5v.5c.2-2.8 2.6-5.1 5.5-5.1"/></g><g><defs><path id="C" d="M19.5 53.4H24v1.1h-4.5z"/></defs><clipPath id="D"><use xlink:href="#C" overflow="visible"/></clipPath><path clip-path="url(#D)" fill="#6C696A" d="M19.5 53.5l2.3-.1 2.3.1v.1s-.3.3-.7.5c-.2.1-.5.2-.7.3-.1 0-.3.1-.4.1h-.8c-.1 0-.3-.1-.4-.1-.3-.1-.5-.2-.7-.3-.4-.2-.7-.5-.7-.5v-.1z"/></g></svg>