<svg xmlns="http://www.w3.org/2000/svg" xmlns:xlink="http://www.w3.org/1999/xlink" width="81.9" height="26.1" viewBox="0 0 81.9 26.1"><path fill="none" stroke="#D5BD8A" stroke-width="1.601" stroke-linecap="round" stroke-miterlimit="10" d="M26.2 20.8H12.9s-4.3-.3-4.3-4.6 1.4-5.1 5-5.1 61.5-1.5 61.5-1.5"/><path fill="none" stroke="#D5BD8A" stroke-width="1.601" stroke-linecap="round" stroke-miterlimit="10" d="M41 17.6h15.6s3.1 0 3.1 1.8-3.2 1.4-3.2 1.4H19.7"/><defs><path id="a" d="M8.2 9.3h67.1v11.8H8.2z"/></defs><clipPath id="b"><use xlink:href="#a" overflow="visible"/></clipPath><path clip-path="url(#b)" fill="none" stroke="#D5BD8A" stroke-width=".64" stroke-linecap="round" stroke-miterlimit="10" d="M26 20.8H12.8s-4.3-.3-4.3-4.6 1.4-5.1 5-5.1S75 9.6 75 9.6"/><defs><path id="c" d="M19.3 17.3h40.6v3.8H19.3z"/></defs><clipPath id="d"><use xlink:href="#c" overflow="visible"/></clipPath><path clip-path="url(#d)" fill="none" stroke="#D5BD8A" stroke-width=".64" stroke-linecap="round" stroke-miterlimit="10" d="M40.9 17.6h15.6s3 0 3 1.8-3.2 1.4-3.2 1.4H19.6"/><defs><path id="e" d="M8.4 9.5h66.8v11.4H8.4z"/></defs><clipPath id="f"><use xlink:href="#e" overflow="visible"/></clipPath><path clip-path="url(#f)" fill="none" stroke="#D5BD8A" stroke-width=".32" stroke-linecap="round" stroke-miterlimit="10" d="M26 20.8H12.8s-4.3-.3-4.3-4.6 1.4-5.1 5-5.1S75 9.6 75 9.6"/><defs><path id="g" d="M19.5 17.4h40.3v3.5H19.5z"/></defs><clipPath id="h"><use xlink:href="#g" overflow="visible"/></clipPath><path clip-path="url(#h)" fill="none" stroke="#D5BD8A" stroke-width=".32" stroke-linecap="round" stroke-miterlimit="10" d="M40.9 17.6h15.6s3 0 3 1.8-3.2 1.4-3.2 1.4H19.6"/><path fill="#D5BD8A" d="M80.9.7C80 7.2 58.8 8 58.8 8L24.1 9.7v2.1l34.7.6s21.4.2 22.4 6.7c0 0 .7 1.7.7-.4 0-1.8-.1-6.7-.1-8.1V9.3c0-1.4-.1-6.3-.1-8.1-.1-2.3-.8-.5-.8-.5"/><defs><path id="i" d="M24.2 11.2h57.7v6H24.2z"/></defs><clipPath id="j"><use xlink:href="#i" overflow="visible"/></clipPath><path clip-path="url(#j)" fill="#D5BD8A" d="M81.2 14c-.9-2.9-22.3-2.8-22.3-2.8H24.2v.3l34.7.3s21.4.1 22.3 4.9c0 0 .7 1.3.7-.3v-2.6c-.1.9-.7.2-.7.2"/><defs><path id="k" d="M24.1 2.5h57.6v7.8H24.1z"/></defs><clipPath id="l"><use xlink:href="#k" overflow="visible"/></clipPath><path clip-path="url(#l)" fill="#D5BD8A" d="M81 3c-1 4.9-22.2 5.6-22.2 5.6L24.1 9.9v.3l34.7-1S80 8.6 81 5.7c0 0 .7-.8.7.2V3.3C81.6 1.7 81 3 81 3"/><defs><path id="m" d="M24.1 5.4h57.7v8.9H24.1z"/></defs><clipPath id="n"><use xlink:href="#m" overflow="visible"/></clipPath><path clip-path="url(#n)" fill="#D5BD8A" d="M81 5.7c-1 2.9-22.2 3.5-22.2 3.5l-34.7 1v1h34.7s21.4-.1 22.3 2.8c0 0 .7.8.7-.2 0-.8 0-3-.1-3.7v-.6c0-.6 0-2.8-.1-3.7.1-.9-.6-.1-.6-.1"/><g opacity=".2"><defs><path id="o" d="M24.5 11.5h57v5.2h-57z"/></defs><clipPath id="p"><use xlink:href="#o" overflow="visible"/></clipPath><path clip-path="url(#p)" fill="#D5BD8A" d="M24.5 11.5l29.2.2c2.4 0 4.9 0 7.3.1 2.4.1 4.9.2 7.3.4 2.4.2 4.8.5 7.2 1.1 1.2.3 2.4.6 3.5 1.1.6.2 1.1.5 1.6.9s.9.8 1 1.5c-.1-.6-.6-1.1-1-1.4-.5-.4-1-.6-1.6-.9-1.1-.5-2.3-.8-3.5-1-2.4-.5-4.8-.8-7.2-1-2.4-.2-4.8-.3-7.3-.4-2.4 0-4.9 0-7.3-.1l-29.2-.5z"/></g><defs><path id="q" d="M24.5 3h56.9v7H24.5z"/></defs><clipPath id="r"><use xlink:href="#q" overflow="visible"/></clipPath><path clip-path="url(#r)" fill="#D5BD8A" d="M81.3 3c-.1.6-.5 1.1-1 1.5-.5.4-1 .7-1.6 1-1.1.5-2.3.9-3.5 1.2-2.4.6-4.8 1-7.2 1.3-4.8.6-9.7.7-14.5.9-4.7.2-9.6.4-14.5.6-4.9.2-9.7.3-14.6.4 4.8-.3 9.7-.5 14.6-.7 4.9-.2 9.7-.4 14.6-.5 2.4-.1 4.9-.1 7.3-.3 2.4-.2 4.8-.4 7.2-.7 2.4-.3 4.8-.7 7.2-1.3 1.2-.3 2.3-.6 3.4-1.1.5-.3 1.1-.5 1.6-.9.4-.4.9-.8 1-1.4z"/><path fill="none" stroke="#D5BD8A" stroke-width=".961" stroke-linecap="round" stroke-miterlimit="10" d="M33.4 14.8H38"/><path fill="#D5BD8A" d="M30.6 8.3h3v17.9h-3zM31.2 7.8h1.9v.4h-1.9zM31.7 6h.8v1.8h-.8zM30.8 5.4h2.7V6h-2.7z"/><defs><path id="s" d="M31 5.4h2.1v20.7H31z"/></defs><clipPath id="t"><use xlink:href="#s" overflow="visible"/></clipPath><path clip-path="url(#t)" fill="#D5BD8A" d="M32.8 8.3v-.5h-.4V6h.7v-.6h-2V6h.7v1.8h-.4v.5h-.3v17.8h2.1V8.3"/><defs><path id="u" d="M31.7 5.4h.8v20.7h-.8z"/></defs><clipPath id="v"><use xlink:href="#u" overflow="visible"/></clipPath><path clip-path="url(#v)" fill="#D5BD8A" d="M32.4 8.3v-.5h-.2V6h.3v-.6h-.7V6h.2v1.8h-.1v.5h-.2v17.8h.8V8.3"/><defs><path id="w" d="M30.6 8.3h3v.1h-3z"/></defs><clipPath id="x"><use xlink:href="#w" overflow="visible"/></clipPath><path clip-path="url(#x)" fill="#D5BD8A" d="M30.6 8.3h3-3"/><defs><path id="y" d="M31.2 7.8h1.9v.1h-1.9z"/></defs><clipPath id="z"><use xlink:href="#y" overflow="visible"/></clipPath><path clip-path="url(#z)" fill="#D5BD8A" d="M31.2 7.8h1.9l-1 .1-.9-.1"/><defs><path id="A" d="M30.8 5.4h2.7v.1h-2.7z"/></defs><clipPath id="B"><use xlink:href="#A" overflow="visible"/></clipPath><path clip-path="url(#B)" fill="#D5BD8A" d="M30.8 5.4h2.7l-1.4.1-1.3-.1"/><defs><path id="C" d="M31.7 6h.8v.2h-.8z"/></defs><clipPath id="D"><use xlink:href="#C" overflow="visible"/></clipPath><path clip-path="url(#D)" fill="#D5BD8A" d="M31.7 6h.8c-.1.1-.1.1-.2.1h-.4c-.1 0-.1 0-.2-.1z"/><path fill="#D5BD8A" d="M30.5 25.4h3.1v.7h-3.1z"/><g opacity=".5"><defs><path id="E" d="M30.5 25.4h3.1v.7h-3.1z"/></defs><clipPath id="F"><use xlink:href="#E" overflow="visible"/></clipPath><g clip-path="url(#F)"><defs><path id="G" d="M30.5 25.4h.3v.7h-.3z"/></defs><clipPath id="H"><use xlink:href="#G" overflow="visible"/></clipPath><path clip-path="url(#H)" fill="#D5BD8A" d="M30.5 25.4h.3v.7h-.3z"/></g><g clip-path="url(#F)"><defs><path id="I" d="M33.3 25.4h.3v.7h-.3z"/></defs><clipPath id="J"><use xlink:href="#I" overflow="visible"/></clipPath><path clip-path="url(#J)" fill="#D5BD8A" d="M33.4 25.4h.3v.7h-.3z"/></g><g opacity=".5" clip-path="url(#F)"><defs><path id="K" d="M30.9 25.4h.7v.7h-.7z"/></defs><clipPath id="L"><use xlink:href="#K" overflow="visible"/></clipPath><path clip-path="url(#L)" fill="#D5BD8A" d="M30.9 25.4h.7v.7h-.7z"/></g><g opacity=".5" clip-path="url(#F)"><defs><path id="M" d="M32.7 25.4h.7v.7h-.7z"/></defs><clipPath id="N"><use xlink:href="#M" overflow="visible"/></clipPath><path clip-path="url(#N)" fill="#D5BD8A" d="M32.7 25.4h.7v.7h-.7z"/></g><path clip-path="url(#F)" fill="#D5BD8A" d="M31.6 25.4h1.1v.7h-1.1z"/></g><path fill="#D5BD8A" d="M34.3 8.3h3v17.9h-3zM34.8 7.8h1.9v.4h-1.9zM35.3 6h.8v1.8h-.8zM34.4 5.4h2.7V6h-2.7z"/><defs><path id="O" d="M34.7 5.4h2.1v20.7h-2.1z"/></defs><clipPath id="P"><use xlink:href="#O" overflow="visible"/></clipPath><path clip-path="url(#P)" fill="#D5BD8A" d="M36.4 8.3v-.5H36V6h.7v-.6h-1.9V6h.7v1.8h-.4v.5h-.4v17.8h2.1V8.3"/><defs><path id="Q" d="M35.3 5.4h.8v20.7h-.8z"/></defs><clipPath id="R"><use xlink:href="#Q" overflow="visible"/></clipPath><path clip-path="url(#R)" fill="#D5BD8A" d="M36 8.3v-.5h-.1V6h.2v-.6h-.7V6h.2v1.8h-.1v.5h-.2v17.8h.9V8.3"/><defs><path id="S" d="M34.3 8.3h3v.1h-3z"/></defs><clipPath id="T"><use xlink:href="#S" overflow="visible"/></clipPath><path clip-path="url(#T)" fill="#D5BD8A" d="M34.3 8.3h2.9-2.9"/><defs><path id="U" d="M34.8 7.8h1.9v.1h-1.9z"/></defs><clipPath id="V"><use xlink:href="#U" overflow="visible"/></clipPath><path clip-path="url(#V)" fill="#D5BD8A" d="M34.8 7.8h1.9l-.9.1-1-.1"/><defs><path id="W" d="M34.4 5.4h2.7v.1h-2.7z"/></defs><clipPath id="X"><use xlink:href="#W" overflow="visible"/></clipPath><path clip-path="url(#X)" fill="#D5BD8A" d="M34.4 5.4h2.7l-1.3.1-1.4-.1"/><defs><path id="Y" d="M35.3 6h.8v.2h-.8z"/></defs><clipPath id="Z"><use xlink:href="#Y" overflow="visible"/></clipPath><path clip-path="url(#Z)" fill="#D5BD8A" d="M35.3 6h.8c0 .1-.1.1-.1.2h-.4c-.1-.1-.2-.1-.3-.2z"/><path fill="#D5BD8A" d="M34.2 25.4h3.1v.7h-3.1z"/><g opacity=".5"><defs><path id="aa" d="M34.2 25.4h3.2v.7h-3.2z"/></defs><clipPath id="ab"><use xlink:href="#aa" overflow="visible"/></clipPath><g clip-path="url(#ab)"><defs><path id="ac" d="M34.2 25.4h.3v.7h-.3z"/></defs><clipPath id="ad"><use xlink:href="#ac" overflow="visible"/></clipPath><path clip-path="url(#ad)" fill="#D5BD8A" d="M34.2 25.4h.3v.7h-.3z"/></g><g clip-path="url(#ab)"><defs><path id="ae" d="M37 25.4h.3v.7H37z"/></defs><clipPath id="af"><use xlink:href="#ae" overflow="visible"/></clipPath><path clip-path="url(#af)" fill="#D5BD8A" d="M37 25.4h.3v.7H37z"/></g><g opacity=".5" clip-path="url(#ab)"><defs><path id="ag" d="M34.5 25.4h.7v.7h-.7z"/></defs><clipPath id="ah"><use xlink:href="#ag" overflow="visible"/></clipPath><path clip-path="url(#ah)" fill="#D5BD8A" d="M34.5 25.4h.7v.7h-.7z"/></g><g opacity=".5" clip-path="url(#ab)"><defs><path id="ai" d="M36.3 25.4h.7v.7h-.7z"/></defs><clipPath id="aj"><use xlink:href="#ai" overflow="visible"/></clipPath><path clip-path="url(#aj)" fill="#D5BD8A" d="M36.3 25.4h.7v.7h-.7z"/></g><path clip-path="url(#ab)" fill="#D5BD8A" d="M35.2 25.4h1.1v.7h-1.1z"/></g><path fill="#D5BD8A" d="M37.9 8.3h3v17.9h-3zM38.4 7.8h1.9v.4h-1.9zM39 6h.8v1.8H39zM38 5.4h2.7V6H38z"/><defs><path id="ak" d="M38.3 5.4h2.1v20.7h-2.1z"/></defs><clipPath id="al"><use xlink:href="#ak" overflow="visible"/></clipPath><path clip-path="url(#al)" fill="#D5BD8A" d="M40.1 8.3v-.5h-.4V6h.7v-.6h-2V6h.7v1.8h-.4v.5h-.4v17.8h2.2V8.3"/><g><defs><path id="am" d="M39 5.4h.8v20.7H39z"/></defs><clipPath id="an"><use xlink:href="#am" overflow="visible"/></clipPath><path clip-path="url(#an)" fill="#D5BD8A" d="M39.6 8.3v-.5h-.1V6h.3v-.6H39V6h.3v1.8h-.2v.5H39v17.8h.8V8.3"/></g><g><defs><path id="ao" d="M37.9 8.3h3v.1h-3z"/></defs><clipPath id="ap"><use xlink:href="#ao" overflow="visible"/></clipPath><path clip-path="url(#ap)" fill="#D5BD8A" d="M37.9 8.3h3-3"/></g><g><defs><path id="aq" d="M38.5 7.8h1.9v.1h-1.9z"/></defs><clipPath id="ar"><use xlink:href="#aq" overflow="visible"/></clipPath><path clip-path="url(#ar)" fill="#D5BD8A" d="M38.4 7.8h1.9l-.9.1-1-.1"/></g><g><defs><path id="as" d="M38 5.4h2.7v.1H38z"/></defs><clipPath id="at"><use xlink:href="#as" overflow="visible"/></clipPath><path clip-path="url(#at)" fill="#D5BD8A" d="M38 5.4h2.7l-1.3.1-1.4-.1"/></g><g><defs><path id="au" d="M39 6h.8v.2H39z"/></defs><clipPath id="av"><use xlink:href="#au" overflow="visible"/></clipPath><path clip-path="url(#av)" fill="#D5BD8A" d="M39 6h.8c-.1.1-.1.1-.2.1h-.4c-.1 0-.2 0-.2-.1z"/></g><path fill="#D5BD8A" d="M37.8 25.4h3.1v.7h-3.1z"/><g opacity=".5"><defs><path id="aw" d="M37.8 25.4H41v.7h-3.2z"/></defs><clipPath id="ax"><use xlink:href="#aw" overflow="visible"/></clipPath><g clip-path="url(#ax)"><defs><path id="ay" d="M37.8 25.4h.3v.7h-.3z"/></defs><clipPath id="az"><use xlink:href="#ay" overflow="visible"/></clipPath><path clip-path="url(#az)" fill="#D5BD8A" d="M37.8 25.4h.3v.7h-.3z"/></g><g clip-path="url(#ax)"><defs><path id="aA" d="M40.6 25.4h.3v.7h-.3z"/></defs><clipPath id="aB"><use xlink:href="#aA" overflow="visible"/></clipPath><path clip-path="url(#aB)" fill="#D5BD8A" d="M40.6 25.4h.3v.7h-.3z"/></g><g opacity=".5" clip-path="url(#ax)"><defs><path id="aC" d="M38.1 25.4h.7v.7h-.7z"/></defs><clipPath id="aD"><use xlink:href="#aC" overflow="visible"/></clipPath><path clip-path="url(#aD)" fill="#D5BD8A" d="M38.2 25.4h.7v.7h-.7z"/></g><g opacity=".5" clip-path="url(#ax)"><defs><path id="aE" d="M40 25.4h.7v.7H40z"/></defs><clipPath id="aF"><use xlink:href="#aE" overflow="visible"/></clipPath><path clip-path="url(#aF)" fill="#D5BD8A" d="M40 25.4h.7v.7H40z"/></g><path clip-path="url(#ax)" fill="#D5BD8A" d="M38.8 25.4h1.1v.7h-1.1z"/></g><path fill="none" stroke="#D5BD8A" stroke-width="1.601" stroke-linecap="round" stroke-miterlimit="10" d="M31.3 18.2h-8.5s-1.5.2-1.5 1.6 1.6 1.4 1.6 1.4h9.5"/><path fill="none" stroke="#D5BD8A" stroke-width="1.601" stroke-linecap="round" stroke-miterlimit="10" d="M36.2 20.5c0 .4-.3.7-.7.7h-2.7c-.4 0-.7-.3-.7-.7v-1.7c0-.4.3-.7.7-.7h2.7c.4 0 .7.3.7.7v1.7zM28 21.2h4.5M42.2 19.7h-2"/><g opacity=".5"><defs><path id="aG" d="M30.5 25.4h3.1v.7h-3.1z"/></defs><clipPath id="aH"><use xlink:href="#aG" overflow="visible"/></clipPath><g clip-path="url(#aH)"><defs><path id="aI" d="M30.5 25.4h.3v.7h-.3z"/></defs><clipPath id="aJ"><use xlink:href="#aI" overflow="visible"/></clipPath><path clip-path="url(#aJ)" fill="#D5BD8A" d="M30.5 25.4h.3v.7h-.3z"/></g><g clip-path="url(#aH)"><defs><path id="aK" d="M33.3 25.4h.3v.7h-.3z"/></defs><clipPath id="aL"><use xlink:href="#aK" overflow="visible"/></clipPath><path clip-path="url(#aL)" fill="#D5BD8A" d="M33.4 25.4h.3v.7h-.3z"/></g><g opacity=".5" clip-path="url(#aH)"><defs><path id="aM" d="M30.9 25.4h.7v.7h-.7z"/></defs><clipPath id="aN"><use xlink:href="#aM" overflow="visible"/></clipPath><path clip-path="url(#aN)" fill="#D5BD8A" d="M30.9 25.4h.7v.7h-.7z"/></g><g opacity=".5" clip-path="url(#aH)"><defs><path id="aO" d="M32.7 25.4h.7v.7h-.7z"/></defs><clipPath id="aP"><use xlink:href="#aO" overflow="visible"/></clipPath><path clip-path="url(#aP)" fill="#D5BD8A" d="M32.7 25.4h.7v.7h-.7z"/></g><path clip-path="url(#aH)" fill="#D5BD8A" d="M31.6 25.4h1.1v.7h-1.1z"/></g><g><defs><path id="aQ" d="M8.2 9.6h.3v1.6h-.3z"/></defs><clipPath id="aR"><use xlink:href="#aQ" overflow="visible"/></clipPath><path clip-path="url(#aR)" fill="#D5BD8A" d="M8.2 9.6h.3v1.6h-.3z"/></g><circle fill="none" stroke="#D5BD8A" stroke-width=".48" stroke-miterlimit="10" cx="48" cy="17.4" r="1.6"/><path fill="#D5BD8A" d="M55.3 10.3h1v1.9h-1zM55.3 17.4h1v1.9h-1z"/><path fill="#D5BD8A" d="M55.5 12.2h.7v5.2h-.7z"/><g><defs><path id="aS" d="M55.5 10.3h.7v9h-.7z"/></defs><clipPath id="aT"><use xlink:href="#aS" overflow="visible"/></clipPath><path clip-path="url(#aT)" fill="#D5BD8A" d="M55.5 10.3h.7v1.9h-.7zM55.5 17.4h.7v1.9h-.7z"/><path clip-path="url(#aT)" fill="#D5BD8A" d="M55.6 12.2h.5v5.2h-.5z"/></g><g><defs><path id="aU" d="M55.6 10.3h.4v9h-.4z"/></defs><clipPath id="aV"><use xlink:href="#aU" overflow="visible"/></clipPath><path clip-path="url(#aV)" fill="#D5BD8A" d="M55.6 10.3h.4v1.9h-.4zM55.6 17.4h.4v1.9h-.4z"/><path clip-path="url(#aV)" fill="#D5BD8A" d="M55.7 12.2h.3v5.2h-.3z"/></g><g><defs><path id="aW" d="M55.5 12.2h.7v.2h-.7z"/></defs><clipPath id="aX"><use xlink:href="#aW" overflow="visible"/></clipPath><path clip-path="url(#aX)" fill="#D5BD8A" d="M55.5 12.2h.7c-.1.1-.2.1-.4.1-.1 0-.2.1-.3-.1z"/></g><path fill="#D5BD8A" d="M55.3 17.4l.5-.1.5.1h-1M59.7 10.3h1v1.9h-1zM59.7 17.4h1v1.9h-1z"/><path fill="#D5BD8A" d="M59.8 12.2h.7v5.2h-.7z"/><g><defs><path id="aY" d="M59.8 10.3h.7v9h-.7z"/></defs><clipPath id="aZ"><use xlink:href="#aY" overflow="visible"/></clipPath><path clip-path="url(#aZ)" fill="#D5BD8A" d="M59.8 10.3h.7v1.9h-.7zM59.8 17.4h.7v1.9h-.7z"/><path clip-path="url(#aZ)" fill="#D5BD8A" d="M59.9 12.2h.5v5.2h-.5z"/></g><g><defs><path id="ba" d="M60 10.3h.3v9H60z"/></defs><clipPath id="bb"><use xlink:href="#ba" overflow="visible"/></clipPath><path clip-path="url(#bb)" fill="#D5BD8A" d="M60 10.3h.4v1.9H60zM60 17.4h.4v1.9H60z"/><path clip-path="url(#bb)" fill="#D5BD8A" d="M60 12.2h.3v5.2H60z"/></g><g><defs><path id="bc" d="M59.8 12.2h.7v.2h-.7z"/></defs><clipPath id="bd"><use xlink:href="#bc" overflow="visible"/></clipPath><path clip-path="url(#bd)" fill="#D5BD8A" d="M59.8 12.2h.7c-.1.1-.2.1-.4.1 0 0-.2.1-.3-.1z"/></g><path fill="#D5BD8A" d="M59.7 17.4l.5-.1.5.1h-1"/><g><defs><path id="be" d="M16.3 23.5h21v-8.2h-21v8.2zm20.9-12h.7V8.4h-.7v3.1zm-3.6.2h.7V8.3h-.7v3.4zm-27.7 1h24.7v-7H5.9v7zm35 12.7h25.7V4H40.9v21.4z"/></defs><clipPath id="bf"><use xlink:href="#be" overflow="visible"/></clipPath><path clip-path="url(#bf)" fill="none" stroke="#D5BD8A" stroke-width="1.601" stroke-linecap="round" stroke-miterlimit="10" d="M7.6 10.4l53.8-.5s3.5.1 3.5 2.7v4.3s-.3 2.8-3.2 2.8H39.5"/><g clip-path="url(#bf)"><defs><path id="bg" d="M7.3 9.6h57.9v11.9H7.3z"/></defs><clipPath id="bh"><use xlink:href="#bg" overflow="visible"/></clipPath><path clip-path="url(#bh)" fill="none" stroke="#D5BD8A" stroke-width=".64" stroke-linecap="round" stroke-miterlimit="10" d="M7.6 10.4l53.8-.5s3.5.1 3.5 2.7v4.3s-.3 2.8-3.2 2.8H39.5M31.3 18.2h-8.5s-1.5.2-1.5 1.6 1.6 1.4 1.6 1.4h9.5"/><path clip-path="url(#bh)" fill="none" stroke="#D5BD8A" stroke-width=".64" stroke-linecap="round" stroke-miterlimit="10" d="M36.2 20.5c0 .4-.3.7-.7.7h-2.7c-.4 0-.7-.3-.7-.7v-1.7c0-.4.3-.7.7-.7h2.7c.4 0 .7.3.7.7v1.7zM28 21.2h4.5M42.2 19.7h-2"/></g><g clip-path="url(#bf)"><defs><path id="bi" d="M7.4 9.8H65v11.6H7.4z"/></defs><clipPath id="bj"><use xlink:href="#bi" overflow="visible"/></clipPath><path clip-path="url(#bj)" fill="none" stroke="#D5BD8A" stroke-width=".32" stroke-linecap="round" stroke-miterlimit="10" d="M7.6 10.4l53.8-.5s3.5.1 3.5 2.7v4.3s-.3 2.8-3.2 2.8H39.5M31.3 18.2h-8.5s-1.5.2-1.5 1.6 1.6 1.4 1.6 1.4h9.5"/><path clip-path="url(#bj)" fill="none" stroke="#D5BD8A" stroke-width=".32" stroke-linecap="round" stroke-miterlimit="10" d="M36.2 20.5c0 .4-.3.7-.7.7h-2.7c-.4 0-.7-.3-.7-.7v-1.7c0-.4.3-.7.7-.7h2.7c.4 0 .7.3.7.7v1.7zM28 21.2h4.5M42.2 19.7h-2"/></g></g><path fill="#D5BD8A" d="M2.7 9.3h5.2v2.1H2.7z"/><g opacity=".5"><defs><path id="bk" d="M2.8 9.3H8v2.1H2.8z"/></defs><clipPath id="bl"><use xlink:href="#bk" overflow="visible"/></clipPath><g clip-path="url(#bl)"><defs><path id="bm" d="M2.8 9.3H8v.2H2.8z"/></defs><clipPath id="bn"><use xlink:href="#bm" overflow="visible"/></clipPath><path clip-path="url(#bn)" fill="#D5BD8A" d="M2.7 9.3h5.2v.2H2.7z"/></g><g clip-path="url(#bl)"><defs><path id="bo" d="M2.8 11.2H8v.2H2.8z"/></defs><clipPath id="bp"><use xlink:href="#bo" overflow="visible"/></clipPath><path clip-path="url(#bp)" fill="#D5BD8A" d="M2.7 11.2h5.2v.2H2.7z"/></g><g opacity=".5" clip-path="url(#bl)"><defs><path id="bq" d="M2.8 9.6H8v.5H2.8z"/></defs><clipPath id="br"><use xlink:href="#bq" overflow="visible"/></clipPath><path clip-path="url(#br)" fill="#D5BD8A" d="M2.7 9.6h5.2v.5H2.7z"/></g><g opacity=".5" clip-path="url(#bl)"><defs><path id="bs" d="M2.8 10.8H8v.5H2.8z"/></defs><clipPath id="bt"><use xlink:href="#bs" overflow="visible"/></clipPath><path clip-path="url(#bt)" fill="#D5BD8A" d="M2.7 10.8h5.2v.5H2.7z"/></g><path clip-path="url(#bl)" fill="#D5BD8A" d="M2.7 10h5.2v.8H2.7z"/></g><path fill="#EEE4D0" d="M2.4 8.9H1.1v.3h1.3c.4 0 .7.3.7.6v-.1c0-.5-.3-.8-.7-.8"/><path fill="#D5BD8A" d="M2.4 11.6H1.1v.3h1.3c.4 0 .7-.3.7-.7V11c0 .3-.3.6-.7.6"/><path fill="#D5BD8A" d="M2.4 11.2H1.1v.4h1.3c.4 0 .7-.3.7-.6v-.2c0 .2-.3.4-.7.4"/><g opacity=".5"><defs><path id="bu" d="M1.1 11h2v.9h-2z"/></defs><clipPath id="bv"><use xlink:href="#bu" overflow="visible"/></clipPath><path clip-path="url(#bv)" fill="#D5BD8A" d="M2.4 11.6H1.1v.3h1.3c.4 0 .7-.3.7-.7V11c0 .3-.3.6-.7.6"/></g><g opacity=".3"><defs><path id="bw" d="M1.1 10.8h2v.8h-2z"/></defs><clipPath id="bx"><use xlink:href="#bw" overflow="visible"/></clipPath><path clip-path="url(#bx)" fill="#D5BD8A" d="M2.4 11.2H1.1v.4h1.3c.4 0 .7-.3.7-.6v-.2c0 .2-.3.4-.7.4"/></g><path fill="#DDCAA1" d="M2.4 9.2H1.1v.4h1.3c.4 0 .7.2.7.4v-.2c0-.3-.3-.6-.7-.6"/><path fill="#D5BD8A" d="M2.4 9.6H1.1v1.6h1.3c.4 0 .7-.2.7-.4V10c0-.2-.3-.4-.7-.4"/><path fill="#D5BD8A" d="M0 8.5h1.3v3.8H0z"/><g opacity=".5"><defs><path id="by" d="M0 8.5h1.3v3.8H0z"/></defs><clipPath id="bz"><use xlink:href="#by" overflow="visible"/></clipPath><g clip-path="url(#bz)"><defs><path id="bA" d="M0 8.5h1.3v.4H0z"/></defs><clipPath id="bB"><use xlink:href="#bA" overflow="visible"/></clipPath><path clip-path="url(#bB)" fill="#D5BD8A" d="M0 8.5h1.3v.4H0z"/></g><g clip-path="url(#bz)"><defs><path id="bC" d="M0 11.9h1.3v.4H0z"/></defs><clipPath id="bD"><use xlink:href="#bC" overflow="visible"/></clipPath><path clip-path="url(#bD)" fill="#D5BD8A" d="M0 11.9h1.3v.4H0z"/></g><g opacity=".5" clip-path="url(#bz)"><defs><path id="bE" d="M0 8.9h1.3v.8H0z"/></defs><clipPath id="bF"><use xlink:href="#bE" overflow="visible"/></clipPath><path clip-path="url(#bF)" fill="#D5BD8A" d="M0 8.9h1.3v.8H0z"/></g><g opacity=".5" clip-path="url(#bz)"><defs><path id="bG" d="M0 11.1h1.3v.8H0z"/></defs><clipPath id="bH"><use xlink:href="#bG" overflow="visible"/></clipPath><path clip-path="url(#bH)" fill="#D5BD8A" d="M0 11.1h1.3v.8H0z"/></g><path clip-path="url(#bz)" fill="#D5BD8A" d="M0 9.7h1.3V11H0z"/></g></svg>