<svg xmlns="http://www.w3.org/2000/svg" xmlns:xlink="http://www.w3.org/1999/xlink" width="79.8" height="31.9" viewBox="0 0 79.8 31.9"><path fill="#5E411A" d="M21.5 30.7l3.2-4.7-3.6-.8-1.3 1.6"/><path fill="#231F20" d="M3.1 3.8S21.5 11 31.3 1.4l-.2 11.2-17.3-.4-8-2.6-2.7-5.8z"/><path fill="#B07959" d="M78.3 21.1c-1 0-76.6.3-76.6.3s-.8.6-.8 1.1v4.6c.6.8 2 2.1 5.1 2.1 3.7 0 13.1.4 15.6.6v-2.6s.2-1.6 2.9-.8c2.7.8 14.8 4.3 14.8 4.3s3.8 1.9 11.6 1c7.7-.8 25.7-5.2 27.8-6.6 0 0 1.1-.4 1.1-2.3V22s-.5-.9-1.5-.9"/><path fill="#8B4D47" d="M.9 27.1v1.2s.2 1.8 5.7 2.2c5.4.4 15 .2 15 .2v-.9c-2.6-.2-11.9-.6-15.7-.6-3 0-4.4-1.3-5-2.1"/><defs><path id="a" d="M1.3 20.8h78.3v8.6H1.3z"/></defs><clipPath id="b"><use xlink:href="#a" overflow="visible"/></clipPath><path clip-path="url(#b)" fill="#9E7E64" d="M67.1 27s11.8-2.4 12.4-5.3c-.1-.2-.6-.9-1.5-.9-1 0-76.2.3-76.2.3s-.4.3-.6.6c.1.3.3.5.5.6 1.3 1 3.5 1.4 5 1.4h11.4s2.2.1 5.5.8c1.9.4 4.1.9 6.6 1.6.8.2 1.6.5 2.5.8 7.1 2.1 17.5 4.5 34.4.1"/><path fill="#F3EDE4" d="M59 18.8c3.4-.2 2.8-1.9 2.1-2.8-1.2-.1-2.4-.3-3.4-.7-4.8-1.6-6.4-3.1-7-3.7C50 11 37.7 1.3 33.6.7c0 0-1-.6-2.2.6-1.2 1.2-5.8 12.9-26.7 3.2-.4 1-.8 2.2-1.2 3.7-1.2 4.6 1.6 5 11.3 6.6 7.3 1.2 8.7 6.7 9 9.3 1.9.4 4.2.9 6.6 1.6.8.2 1.6.5 2.5.8 3.7-8.3 21.6-7.4 26.1-7.7"/><path fill="#5E411A" d="M67.3 26.5s12.5-2.6 12.5-5.5-2.1-5.2-6.5-5.2c-3.4 0-8.1.6-12.2.2.7 1 1.3 2.6-2.1 2.8-4.5.3-22.4-.6-26.1 7.7 6.9 2 17.4 4.4 34.4 0M14.7 14.8C5 13.2 2.2 12.8 3.4 8.2c.4-1.5.8-2.7 1.2-3.7-.5-.2-1-.5-1.5-.7C3.1 3.8 0 11 0 14c0 3 .3 6.8 1.6 7.9 1.3 1 3.6 1.4 5.1 1.4h11.5s2.2.1 5.5.8c-.3-2.6-1.7-8.1-9-9.3"/><path fill="#5F431C" d="M61.6 17.4c-.1-.1-.3-.2-.4-.3.1-.1.2-.3.2-.4-.2-.1-.3-.1-.5-.1.1-.3.1-.4.1-.6.3.4.6.9.6 1.4"/><path fill="#5F431C" d="M60.8 18.5c.1-.2.1-.3.1-.5.2 0 .3.1.5 0 0-.2-.1-.3-.2-.4.1 0 .3-.1.4-.3 0 .3-.1.5-.2.7-.2.3-.4.4-.6.5"/><path fill="#5F431C" d="M60.8 18.5c.2-.1.4-.3.6-.5.2-.2.2-.5.2-.7h.2c0 .3-.1.6-.3.9-.2.2-.4.4-.7.5v-.2zM59.3 18.9c.1-.1.2-.3.3-.4.1.1.3.2.4.3.1-.1.2-.3.2-.4.1.1.3.2.5.2-.4.1-.9.2-1.4.3"/><path fill="#5F431C" d="M59.3 18.9c.5-.1 1-.1 1.4-.4l.1.2c-.5.2-1 .3-1.5.4v-.2zM57.9 19l.3-.4.4.4c.1-.1.2-.3.3-.4.1.1.3.2.4.3-.4 0-.9.1-1.4.1"/><path fill="#5F431C" d="M57.9 19c.5 0 1 0 1.4-.1v.2c-.5.1-1 .1-1.5.1l.1-.2zM56.5 19l.3-.4.4.4.3-.4.4.4"/><path fill="#5F431C" d="M57.86 19.21l-1.4.035-.004-.2 1.4-.035zM55 19l.4-.3.3.3.4-.4.4.4"/><path fill="#5F431C" d="M56.476 19.28l-1.4.033-.004-.2 1.4-.032zM53.6 19.1l.3-.4.4.4.3-.4.4.3"/><path fill="#5F431C" d="M54.992 19.255l-1.4.043-.006-.2 1.4-.043z"/><path fill="#5F431C" d="M52.1 19.1l.4-.3.3.3.4-.4.4.4M53.615 19.35l-1.4.06-.008-.2 1.4-.06zM50.7 19.2l.3-.4.4.3.3-.4.4.3c-.4.2-.9.2-1.4.2"/><path fill="#5F431C" d="M50.7 19.2c.5 0 1-.1 1.4-.1v.2c-.5 0-1 .1-1.4.1v-.2zM49.3 19.3l.3-.4.4.3.3-.4.4.3c-.5.2-1 .2-1.4.2"/><path fill="#5F431C" d="M49.3 19.3c.5 0 1-.1 1.4-.1v.2c-.5 0-1 .1-1.4.1v-.2zM47.8 19.5l.3-.4.4.3.3-.4.4.3c-.4.1-.9.1-1.4.2"/><path fill="#5F431C" d="M47.8 19.5c.5-.1 1-.1 1.4-.1v.2c-.5 0-1 .1-1.4.1v-.2zM46.4 19.7l.3-.4.4.3.3-.4.4.3c-.5 0-.9.1-1.4.2"/><path fill="#5F431C" d="M46.4 19.7c.5-.1 1-.1 1.4-.2v.2c-.5.1-1 .1-1.4.2v-.2zM45 19.9l.3-.4.4.3.3-.4.4.3c-.5 0-1 .1-1.4.2"/><path fill="#5F431C" d="M45 19.9c.5-.1.9-.2 1.4-.2v.2c-.5.1-.9.1-1.4.2v-.2zM43.5 20.1l.3-.4.4.3.3-.4.4.3c-.4.1-.9.1-1.4.2"/><path fill="#5F431C" d="M43.5 20.1c.5-.1 1-.1 1.5-.2v.2c-.5.1-.9.2-1.4.3l-.1-.3zM42.1 20.5l.3-.4.4.3.3-.4.4.3c-.4-.1-.9 0-1.4.2"/><path fill="#5F431C" d="M42.1 20.5c.5-.1.9-.2 1.4-.3v.2c-.5.1-.9.2-1.4.3v-.2zM40.8 20.8l.2-.5.4.3.3-.5.4.3c-.4.2-.9.3-1.3.4"/><path fill="#5F431C" d="M40.8 20.8c.5-.1.9-.3 1.4-.4l.1.2c-.5.1-.9.2-1.4.4l-.1-.2zM39.4 21.3l.2-.5.5.2.2-.5.5.2c-.5.3-1 .4-1.4.6"/><path fill="#5F431C" d="M39.4 21.3c.4-.2.9-.3 1.4-.5l.1.2c-.5.1-.9.3-1.3.5l-.2-.2z"/><path fill="#5F431C" d="M38.1 21.9c.1-.2.1-.3.2-.5.2.1.3.1.5.2l.2-.5.5.2c-.6.2-1 .4-1.4.6"/><path fill="#5F431C" d="M38.1 21.9c.4-.2.9-.4 1.3-.5l.1.2c-.4.2-.9.3-1.3.5l-.1-.2zM36.8 22.5c0-.2.1-.3.1-.5.2 0 .3.1.5.2 0-.2.1-.3.2-.5.2.1.3.1.5.2-.5.2-.9.4-1.3.6"/><path fill="#5F431C" d="M36.8 22.5c.4-.2.8-.5 1.3-.7l.1.2c-.4.2-.8.4-1.3.6l-.1-.1z"/><path fill="#5F431C" d="M35.6 23.3c0-.2.1-.3.1-.5.2 0 .3.1.5.1 0-.2.1-.3.1-.5.2 0 .3.1.5.1-.4.3-.8.5-1.2.8"/><path fill="#5F431C" d="M35.6 23.3c.4-.3.8-.5 1.2-.8l.1.2c-.4.2-.8.5-1.2.8l-.1-.2zM34.5 24.2v-.5h.5v-.5c.2 0 .3 0 .5.1-.3.3-.7.6-1 .9"/><path fill="#5F431C" d="M34.5 24.2c.3-.3.7-.6 1.1-.9l.1.2c-.4.3-.7.6-1.1.9l-.1-.2zM33.6 25.3c0-.2-.1-.3-.1-.5.2 0 .3 0 .5-.1v-.5h.5c-.3.4-.7.7-.9 1.1"/><path fill="#5F431C" d="M33.6 25.3c.3-.4.6-.8.9-1.1l.2.2c-.3.3-.6.7-.9 1.1l-.2-.2zM32.9 26.6c-.1-.2-.1-.3-.2-.5.2-.1.3-.1.5-.1 0-.2-.1-.3-.1-.5.2 0 .3-.1.5-.1-.3.3-.5.7-.7 1.2"/><path fill="#5F431C" d="M32.9 26.6c.2-.4.4-.8.7-1.2l.2.1c-.3.4-.5.8-.7 1.2l-.2-.1z"/><path fill="none" stroke="#FBFAF4" stroke-width=".24" stroke-miterlimit="10" d="M4 6.4s18.8 9.7 27.6-.7c0 0 8.3 3.2 11.8 8.8"/><path fill="#5F431C" d="M23.4 22.7l.4.3-.3.4.4.3-.3.4s0-.4-.1-.7c0-.4-.1-.7-.1-.7"/><path fill="#5F431C" d="M23.4 22.7s.1.4.1.7c.1.4.1.7.1.7h-.2s0-.4-.1-.7c-.1-.4-.1-.7-.1-.7h.2zM22.9 21.2l.5.2-.1.2c-.1.1-.1.2-.1.2l.5.3-.3.5s-.1-.4-.2-.7c-.1-.3-.3-.7-.3-.7"/><path fill="#5F431C" d="M22.9 21.2s.1.3.2.7c.1.4.2.7.2.7l-.2.1s-.1-.4-.2-.7c-.1-.4-.2-.7-.2-.7l.2-.1z"/><path fill="#5F431C" d="M22.3 19.9l.5.2s0 .1-.1.3c0 .1-.1.3-.1.3l.5.2s0 .1-.1.2-.1.2-.1.2-.1-.3-.3-.7c-.1-.4-.3-.7-.3-.7"/><path fill="#5F431C" d="M22.3 19.9s.2.3.3.7c.2.3.3.7.3.7l-.2.1s-.1-.3-.3-.7c-.1-.3-.3-.7-.3-.7l.2-.1zM21.5 18.6l.5.1-.1.5.5.1s0 .1-.1.3c0 .1-.1.3-.1.3.2-.1-.7-1.3-.7-1.3"/><path fill="#5F431C" d="M21.5 18.6s.9 1.2.8 1.2l-.2.2-.8-1.2.2-.2zM20.5 17.5h.6v.5h.5l-.1.5c0 .1-1-1-1-1"/><path fill="#5F431C" d="M20.5 17.5l1 1.1-.2.1s-.9-1.1-1-1.1l.2-.1zM19.3 16.6l.5-.1.1.5h.5v.5s-.3-.2-.6-.5c-.2-.2-.5-.4-.5-.4"/><path fill="#5F431C" d="M19.3 16.6l.6.4c.3.2.6.5.6.5l-.2.2s-.3-.2-.5-.5l-.6-.4.1-.2zM18 15.9l.3-.1.3-.1.2.5.5-.1.1.5s-.1-.1-.2-.1c-.1-.1-.3-.2-.4-.3-.2-.1-.3-.2-.5-.2-.2-.1-.3-.1-.3-.1"/><path fill="#5F431C" d="M18 15.9s.1 0 .2.1.3.2.5.2c.2.1.3.2.4.3.1.1.2.1.2.1l-.1.2s-.1-.1-.2-.1c-.1-.1-.3-.2-.4-.2-.2-.1-.3-.2-.4-.2-.1-.1-.2-.1-.2-.1v-.3zM16.6 15.3l.5-.2s.1.1.1.2c.1.1.1.2.1.2l.5-.2.2.5-.7-.3c-.2-.1-.4-.1-.5-.2-.1.1-.2 0-.2 0"/><path fill="#5F431C" d="M16.6 15.3s.1 0 .2.1c.1 0 .3.1.5.2l.7.3-.1.2-.7-.3c-.2-.1-.3-.1-.5-.2-.1 0-.2-.1-.2-.1l.1-.2zM15.2 15l.4-.3.3.4.5-.3.3.5s-.4-.1-.7-.2c-.5 0-.8-.1-.8-.1"/><path fill="#5F431C" d="M15.2 15s.4.1.7.2c.4.1.7.2.7.2l-.1.2s-.3-.1-.7-.2l-.7-.1.1-.3zM13.7 14.7l.4-.3.3.4.4-.3.3.4s-.4-.1-.7-.1c-.3 0-.7-.1-.7-.1"/><path fill="#5F431C" d="M13.7 14.7s.4.1.7.1c.4.1.7.1.7.1v.2s-.4-.1-.7-.1h-.7v-.3z"/><path fill="#5F431C" d="M12.2 14.5l.4-.3.4.4.4-.3.3.4M13.635 14.943l-1.48-.242.032-.196 1.48.242zM10.7 14.2l.5-.3.3.4.4-.3.3.5"/><path fill="#5F431C" d="M12.156 14.753l-1.478-.252.033-.196 1.48.25zM9.2 13.9l.4-.3.3.4.4-.3.3.4s-.4-.1-.7-.1c-.3 0-.7-.1-.7-.1"/><path fill="#5F431C" d="M9.2 13.9s.4.1.7.1c.4.1.7.1.7.1v.2s-.4-.1-.7-.1l-.7-.1v-.2zM7.8 13.6l.4-.3.3.4.4-.3.3.4s-.4-.1-.7-.1c-.4 0-.7-.1-.7-.1"/><path fill="#5F431C" d="M7.8 13.6s.4.1.7.2c.4.1.7.1.7.1v.2s-.4-.1-.7-.1c-.4-.1-.7-.2-.7-.2v-.2zM6.3 13.2l.5-.2.2.5.5-.3.3.4s-.4-.1-.7-.2c-.4 0-.8-.2-.8-.2"/><path fill="#5F431C" d="M6.3 13.2s.4.1.7.2c.4.1.7.2.7.2l-.1.2s-.4-.1-.7-.2c-.4-.1-.7-.2-.7-.2l.1-.2zM4.9 12.7l.5-.2.2.5s.1 0 .2-.1.2-.1.2-.1l.2.5s-.4-.1-.7-.2c-.2-.3-.6-.4-.6-.4"/><path fill="#5F431C" d="M4.9 12.7s.3.2.7.3c.4.1.7.2.7.2l-.1.2s-.4-.1-.7-.3c-.4-.2-.7-.3-.7-.3l.1-.1zM3.7 11.8h.5v.5h.3c.1 0 .3-.1.3-.1s0 .1.1.2c0 .1.1.3.1.3s-.1 0-.2-.1-.3-.2-.4-.3c-.3-.1-.4-.2-.5-.3-.1-.2-.2-.2-.2-.2"/><path fill="#5F431C" d="M3.7 11.8s.1.1.1.2c.1.1.3.2.4.3.1.1.3.2.4.3.1.1.2.1.2.1l-.1.2s-.1 0-.2-.1-.3-.2-.5-.3c-.2-.1-.3-.3-.4-.4l-.2-.2.3-.1z"/><path fill="#5F431C" d="M3.1 10.4l.4.3s-.3.4-.3.5l.5.2-.1.5-.2-.2c-.1-.1-.2-.3-.2-.5-.1-.2-.1-.4-.1-.5v-.3"/><path fill="#5F431C" d="M3.1 10.4v.2c0 .1.1.3.1.5.1.2.2.4.2.5l.2.2-.2.2-.2-.2c-.1-.1-.2-.3-.3-.5.1-.3.1-.5 0-.7v-.3l.2.1z"/><path fill="#5F431C" d="M3.2 8.9l.3.4-.2.2c-.1 0-.2.1-.2.1s.3.4.4.4l-.2.2-.2.2v-.2-.5c0-.2 0-.4.1-.5v-.3"/><path fill="#5F431C" d="M3.2 8.9v.2c0 .1 0 .3-.1.5v.7h-.2V10v-.6c0-.2 0-.4.1-.5v-.2l.2.2z"/><path fill="#5F431C" d="M3.6 7.4l.3.5-.5.2s.3.4.3.5l-.5.3s.1-.4.2-.7l.2-.8z"/><path fill="#5F431C" d="M3.6 7.4l-.2.7c-.1.4-.2.7-.2.8L3 8.8l.2-.8.2-.7.2.1z"/><path fill="#5F431C" d="M4.1 5.9l.2.5-.5.3.2.5-.4.2s.1-.4.2-.7c.1-.4.3-.8.3-.8"/><path fill="#5F431C" d="M4.1 5.9s-.1.4-.2.7c-.2.4-.3.8-.3.8l-.2-.1.2-.7c.1-.4.2-.7.2-.7h.3zM4.6 4.5l.2.5-.5.2.2.5-.4.2"/><path fill="#5F431C" d="M4.6 4.5l-.5 1.4h-.3l.5-1.5"/><path fill="none" stroke="#FBFAF4" stroke-width=".24" stroke-miterlimit="10" d="M49.2 10.4s-1.5 4.5-10.2 4.5c-8.6 0-9.8-.1-11.5 3.4-1.7 3.5-2.6 6-2.6 6"/><path fill="#BCA66D" d="M34 3.2c-.6 0-1.2.5-1.2 1 0 .6.5 1 1.2 1 .6 0 1.2-.5 1.2-1s-.5-1-1.2-1m.1 1.6c-.5 0-.8-.3-.8-.7s.4-.7.8-.7.9.3.9.7-.4.7-.9.7M37.7 5.4c-.6 0-1.2.5-1.2 1 0 .6.5 1 1.2 1 .6 0 1.2-.5 1.2-1s-.5-1-1.2-1m.1 1.6c-.5 0-.8-.3-.8-.7 0-.4.4-.7.8-.7s.8.3.8.7c0 .4-.3.7-.8.7M41.3 7.3c-.6 0-1.2.5-1.2 1s.5 1 1.2 1c.6 0 1.2-.5 1.2-1s-.5-1-1.2-1m.1 1.6c-.5 0-.8-.3-.8-.7s.4-.7.8-.7c.5 0 .8.3.8.7s-.3.7-.8.7M44.9 9.6c-.6 0-1.2.5-1.2 1s.5 1 1.2 1c.6 0 1.2-.5 1.2-1s-.5-1-1.2-1m.1 1.5c-.5 0-.8-.3-.8-.7s.4-.7.8-.7c.5 0 .8.3.8.7s-.3.7-.8.7"/><g opacity=".5"><defs><path id="c" d="M44.9 22.4h28.2v4.5H44.9z"/></defs><clipPath id="d"><use xlink:href="#c" overflow="visible"/></clipPath><path clip-path="url(#d)" fill="#5E411A" d="M44.9 26c2.4-.4 4.7-.7 7.1-1l7-.8 7-.8 7.1-1c-2.1 1.3-4.4 2.1-6.7 2.8-2.3.7-4.7 1.1-7.1 1.4-2.4.3-4.8.4-7.2.3-2.4-.1-4.8-.3-7.2-.9"/></g><g opacity=".5"><defs><path id="e" d="M3.7 14.7h15v5.5h-15z"/></defs><clipPath id="f"><use xlink:href="#e" overflow="visible"/></clipPath><path clip-path="url(#f)" fill="#5E411A" d="M3.7 14.7c1.4.2 2.7.5 4 .9 1.3.4 2.5.8 3.7 1.3l3.6 1.5c1.2.5 2.4 1.1 3.6 1.7-1.4.2-2.8.1-4.1-.2-1.3-.3-2.6-.6-3.9-1.1-1.3-.5-2.5-1.1-3.6-1.7-1.1-.7-2.2-1.5-3.3-2.4"/></g><defs><path id="g" d="M33.4.1h3.1v4.7h-3.1z"/></defs><clipPath id="h"><use xlink:href="#g" overflow="visible"/></clipPath><path clip-path="url(#h)" fill="none" stroke="#E7E2DD" stroke-width="1.359" stroke-linecap="round" stroke-linejoin="round" stroke-miterlimit="10" d="M34 4.2c.1-.3.5-.7.7-1 .2-.3.4-.6.5-.9.2-.4.5-1 .5-1.4-.3-.1-.5.1-.6.3"/><defs><path id="i" d="M37 2h3.3v5.1H37z"/></defs><clipPath id="j"><use xlink:href="#i" overflow="visible"/></clipPath><path clip-path="url(#j)" fill="none" stroke="#E7E2DD" stroke-width="1.359" stroke-linecap="round" stroke-linejoin="round" stroke-miterlimit="10" d="M37.7 6.4c.7-.4 1-1.3 1.4-1.9.3-.5.6-1.2.5-1.8-.2 0-.4.1-.5.2"/><defs><path id="k" d="M40.6 4.6h3.7v4.5h-3.7z"/></defs><clipPath id="l"><use xlink:href="#k" overflow="visible"/></clipPath><path clip-path="url(#l)" fill="none" stroke="#E7E2DD" stroke-width="1.359" stroke-linecap="round" stroke-linejoin="round" stroke-miterlimit="10" d="M41.3 8.4c.3-.4.9-.7 1.3-1.1.3-.3.5-.7.7-1.1.1-.1.4-.7.3-.8-.1-.2-.6.1-.7.2"/><defs><path id="m" d="M44.2 7.2h3.6v4.1h-3.6z"/></defs><clipPath id="n"><use xlink:href="#m" overflow="visible"/></clipPath><path clip-path="url(#n)" fill="none" stroke="#E7E2DD" stroke-width="1.359" stroke-linecap="round" stroke-linejoin="round" stroke-miterlimit="10" d="M44.9 10.6c.5-.4.9-.8 1.4-1.3.3-.3 1.1-1.1.8-1.5 0 .1-.1.2-.2.2"/><path fill="none" stroke="#FDFDF9" stroke-width="1.359" stroke-linecap="round" stroke-miterlimit="10" d="M34.2 4c.1-.3.5-.7.7-1 .2-.3.3-.6.5-.9.2-.4.5-1 .5-1.4-.3-.1-.5.1-.6.3M37.8 6.3c.7-.4 1-1.3 1.4-1.9.3-.5.6-1.2.5-1.8-.2 0-.4.1-.5.2M41.4 8.3c.3-.4.9-.7 1.3-1.1.3-.3.5-.7.7-1.1.1-.1.4-.7.3-.8-.1-.2-.6.1-.7.2"/><path fill="none" stroke="#FDFDF9" stroke-width="1.359" stroke-linecap="round" stroke-linejoin="round" stroke-miterlimit="10" d="M45 10.4c.5-.4.9-.8 1.4-1.3.3-.3 1.1-1.1.8-1.5 0 .1-.1.1-.2.2"/><path fill="#5F431C" d="M61.4 16h-.3c.3.4.5.8.5 1.4h.2c0-.3-.1-.6-.2-.8 0-.2-.1-.4-.2-.6"/><defs><path id="o" d="M1.3 6.9h20v16.7h-20z"/></defs><clipPath id="p"><use xlink:href="#o" overflow="visible"/></clipPath><path clip-path="url(#p)" fill="none" stroke="#AEA08D" stroke-width=".239" stroke-miterlimit="10" d="M2 7s-3 7.2 4.5 8.1c7.4 1 14.5 2 14.7 8.5"/><defs><path id="q" d="M35 16.1h29.4v10.6H35z"/></defs><clipPath id="r"><use xlink:href="#q" overflow="visible"/></clipPath><path clip-path="url(#r)" fill="none" stroke="#AEA08D" stroke-width=".239" stroke-miterlimit="10" d="M35.1 26.7S37 21.3 50.4 21c13.4-.4 14.9-.4 13.5-4.8"/><path fill="#F3EDE4" d="M34.7 25.8c0 .2-.2.3-.3.3s-.4-.1-.4-.3c0-.2.2-.3.3-.3s.4.1.4.3M22.6 22.5c0 .2-.2.3-.3.3s-.3-.2-.3-.3.2-.3.3-.3.3.1.3.3M21.5 19.6c0 .2-.2.3-.3.3-.2 0-.3-.1-.3-.3 0-.2.2-.3.3-.3.1 0 .3.1.3.3M19.4 17.4c0 .2-.2.3-.3.3s-.3-.2-.3-.3.2-.3.3-.3.3.1.3.3M16.5 16.1c0 .2-.2.3-.3.3-.2 0-.3-.2-.3-.3 0-.2.2-.3.3-.3.2 0 .3.1.3.3M13.8 15.5c0 .2-.2.3-.3.3-.2 0-.3-.2-.3-.3 0-.2.2-.3.3-.3.1-.1.3.1.3.3M10.6 14.8c0 .2-.2.3-.3.3s-.3-.1-.3-.3c0-.2.2-.3.3-.3s.3.1.3.3M7.4 14.3c0 .2-.2.3-.3.3-.2 0-.3-.1-.3-.3 0-.2.2-.3.3-.3.1 0 .3.2.3.3M4.6 13.3c0 .2-.2.3-.3.3s-.3-.1-.3-.3c0-.1.1-.3.3-.3s.3.2.3.3M2.7 10.8c0 .2-.2.3-.3.3S2 11 2 10.8c0-.2.2-.3.3-.3s.4.1.4.3M3 7.7c0 .1-.1.3-.3.3-.2 0-.3-.2-.3-.3 0-.2.2-.3.3-.3.2-.1.3.1.3.3M3.8 5.1c0 .2-.2.3-.3.3-.2 0-.3-.2-.3-.3 0-.2.2-.3.3-.3.2 0 .3.1.3.3"/><defs><path id="s" d="M5.5 5.8h.7v.7h-.7z"/></defs><clipPath id="t"><use xlink:href="#s" overflow="visible"/></clipPath><path clip-path="url(#t)" fill="#F3EDE4" d="M6.2 6.1c0 .2-.2.3-.3.3-.2 0-.3-.2-.3-.3 0-.2.2-.3.3-.3.1 0 .3.2.3.3"/><defs><path id="u" d="M5.5 5.8h.7v.6h-.7z"/></defs><clipPath id="v"><use xlink:href="#u" overflow="visible"/></clipPath><path clip-path="url(#v)" fill="#F3EDE4" d="M5.8 5.9c.2 0 .3.2.3.3v.1c.1-.1.1-.1.1-.2s-.2-.3-.4-.3c-.1 0-.2.1-.3.2.1 0 .2-.1.3-.1"/><defs><path id="w" d="M7.9 6.7h.7v.7h-.7z"/></defs><clipPath id="x"><use xlink:href="#w" overflow="visible"/></clipPath><path clip-path="url(#x)" fill="#F3EDE4" d="M8.6 7.1c0 .2-.2.3-.3.3s-.4-.1-.4-.3c0-.2.2-.3.3-.3s.4.1.4.3"/><defs><path id="y" d="M7.9 6.7h.6v.6h-.6z"/></defs><clipPath id="z"><use xlink:href="#y" overflow="visible"/></clipPath><path clip-path="url(#z)" fill="#F3EDE4" d="M8.2 6.9c.2 0 .3.2.3.3v.1c.1-.1.1-.1.1-.2 0-.2-.2-.3-.3-.3-.2-.1-.3 0-.4.2.1-.1.2-.1.3-.1"/><defs><path id="A" d="M10.3 7.6h.7v.7h-.7z"/></defs><clipPath id="B"><use xlink:href="#A" overflow="visible"/></clipPath><path clip-path="url(#B)" fill="#F3EDE4" d="M11 7.9c0 .2-.2.3-.3.3-.2 0-.3-.2-.3-.3 0-.2.2-.3.3-.3.1 0 .3.1.3.3"/><defs><path id="C" d="M10.3 7.6h.7v.6h-.7z"/></defs><clipPath id="D"><use xlink:href="#C" overflow="visible"/></clipPath><path clip-path="url(#D)" fill="#F3EDE4" d="M10.5 7.7c.2 0 .3.2.3.3v.1c.1 0 .2-.1.2-.2 0-.2-.2-.3-.3-.3-.1 0-.3.1-.3.2l.1-.1"/><defs><path id="E" d="M12.7 8.3h.7V9h-.7z"/></defs><clipPath id="F"><use xlink:href="#E" overflow="visible"/></clipPath><path clip-path="url(#F)" fill="#F3EDE4" d="M13.4 8.6c0 .2-.2.3-.3.3s-.3-.2-.3-.3c0-.2.2-.3.3-.3s.3.1.3.3"/><defs><path id="G" d="M12.8 8.3h.7v.6h-.7z"/></defs><clipPath id="H"><use xlink:href="#G" overflow="visible"/></clipPath><path clip-path="url(#H)" fill="#F3EDE4" d="M13 8.4c.2 0 .3.2.3.3v.1c.1-.1.1-.1.1-.2 0-.2-.1-.3-.3-.3-.1 0-.3.1-.3.2 0-.1.1-.1.2-.1"/><defs><path id="I" d="M15.2 8.8h.7v.7h-.7z"/></defs><clipPath id="J"><use xlink:href="#I" overflow="visible"/></clipPath><path clip-path="url(#J)" fill="#F3EDE4" d="M15.9 9.1c0 .2-.2.3-.3.3s-.3-.1-.3-.3c0-.2.2-.3.3-.3s.3.1.3.3"/><defs><path id="K" d="M15.2 8.8h.7v.6h-.7z"/></defs><clipPath id="L"><use xlink:href="#K" overflow="visible"/></clipPath><path clip-path="url(#L)" fill="#F3EDE4" d="M15.5 8.9c.2 0 .3.2.3.3v.1c.1-.1.1-.1.1-.2 0-.2-.2-.3-.3-.3-.1 0-.3.1-.3.2 0-.1.1-.1.2-.1"/><defs><path id="M" d="M18 9.1h.7v.7H18z"/></defs><clipPath id="N"><use xlink:href="#M" overflow="visible"/></clipPath><path clip-path="url(#N)" fill="#F3EDE4" d="M18.7 9.4c0 .2-.2.3-.3.3-.2 0-.3-.2-.3-.3 0-.2.2-.3.3-.3.1 0 .3.1.3.3"/><defs><path id="O" d="M18 9.1h.7v.6H18z"/></defs><clipPath id="P"><use xlink:href="#O" overflow="visible"/></clipPath><path clip-path="url(#P)" fill="#F3EDE4" d="M18.3 9.2c.2 0 .3.2.3.3v.1c.1-.1.1-.1.1-.2 0-.2-.2-.3-.3-.3-.1 0-.3.1-.3.2 0-.1.1-.1.2-.1"/><defs><path id="Q" d="M20.8 9h.7v.7h-.7z"/></defs><clipPath id="R"><use xlink:href="#Q" overflow="visible"/></clipPath><path clip-path="url(#R)" fill="#F3EDE4" d="M21.5 9.3c0 .2-.2.3-.3.3-.2 0-.3-.2-.3-.3 0-.2.2-.3.3-.3.1 0 .3.2.3.3"/><defs><path id="S" d="M20.8 9h.7v.6h-.7z"/></defs><clipPath id="T"><use xlink:href="#S" overflow="visible"/></clipPath><path clip-path="url(#T)" fill="#F3EDE4" d="M21 9.1c.2 0 .3.2.3.3v.1c.1-.1.1-.1.1-.2 0-.2-.2-.3-.3-.3-.1 0-.3.1-.3.2.1 0 .1-.1.2-.1"/><defs><path id="U" d="M23.8 8.4h.7v.7h-.7z"/></defs><clipPath id="V"><use xlink:href="#U" overflow="visible"/></clipPath><path clip-path="url(#V)" fill="#F3EDE4" d="M24.5 8.8c0 .2-.2.3-.3.3-.2 0-.3-.2-.3-.3 0-.2.2-.3.3-.3.2-.1.3.1.3.3"/><g><defs><path id="W" d="M23.9 8.4h.7V9h-.7z"/></defs><clipPath id="X"><use xlink:href="#W" overflow="visible"/></clipPath><path clip-path="url(#X)" fill="#F3EDE4" d="M24.1 8.6c.2 0 .3.2.3.3V9c.1-.1.1-.1.1-.2 0-.2-.2-.3-.3-.3-.1 0-.3.1-.3.2 0-.1.1-.1.2-.1"/></g><g><defs><path id="Y" d="M26.6 7.3h.7V8h-.7z"/></defs><clipPath id="Z"><use xlink:href="#Y" overflow="visible"/></clipPath><path clip-path="url(#Z)" fill="#F3EDE4" d="M27.3 7.7c0 .1-.1.3-.3.3s-.3-.2-.3-.3c0-.2.2-.3.3-.3s.3.1.3.3"/></g><g><defs><path id="aa" d="M26.6 7.3h.7v.6h-.7z"/></defs><clipPath id="ab"><use xlink:href="#aa" overflow="visible"/></clipPath><path clip-path="url(#ab)" fill="#F3EDE4" d="M26.9 7.4c.2 0 .3.2.3.3v.1c.1-.1.1-.1.1-.2 0-.2-.2-.3-.3-.3-.1 0-.3.1-.3.2 0 0 .1-.1.2-.1"/></g><g><defs><path id="ac" d="M28.9 5.7h.7v.7h-.7z"/></defs><clipPath id="ad"><use xlink:href="#ac" overflow="visible"/></clipPath><path clip-path="url(#ad)" fill="#F3EDE4" d="M29.6 6c0 .2-.2.3-.3.3-.2 0-.3-.2-.3-.3s.2-.3.3-.3c.1 0 .3.2.3.3"/></g><g><defs><path id="ae" d="M28.9 5.7h.7v.6h-.7z"/></defs><clipPath id="af"><use xlink:href="#ae" overflow="visible"/></clipPath><path clip-path="url(#af)" fill="#F3EDE4" d="M29.2 5.8c.2 0 .3.2.3.3v.1c.1-.1.1-.1.1-.2 0-.2-.2-.3-.3-.3-.1 0-.3.1-.3.2 0 0 .1-.1.2-.1"/></g><g><defs><path id="ag" d="M26 23.4h.7v.7H26z"/></defs><clipPath id="ah"><use xlink:href="#ag" overflow="visible"/></clipPath><path clip-path="url(#ah)" fill="#F3EDE4" d="M26.6 23.7c0 .2-.2.3-.3.3s-.3-.1-.3-.3c0-.2.2-.3.3-.3s.3.1.3.3"/></g><g><defs><path id="ai" d="M26 23.4h.7v.6H26z"/></defs><clipPath id="aj"><use xlink:href="#ai" overflow="visible"/></clipPath><path clip-path="url(#aj)" fill="#F3EDE4" d="M26.2 23.5c.2 0 .3.2.3.3v.1c.1-.1.1-.1.1-.2 0-.2-.1-.3-.3-.3-.1 0-.3.1-.3.2 0 0 .1-.1.2-.1"/></g><g><defs><path id="ak" d="M27 21h.7v.7H27z"/></defs><clipPath id="al"><use xlink:href="#ak" overflow="visible"/></clipPath><path clip-path="url(#al)" fill="#F3EDE4" d="M27.6 21.3c0 .2-.2.3-.3.3s-.3-.1-.3-.3c0-.2.2-.3.3-.3s.3.1.3.3"/></g><g><defs><path id="am" d="M27 21h.7v.6H27z"/></defs><clipPath id="an"><use xlink:href="#am" overflow="visible"/></clipPath><path clip-path="url(#an)" fill="#F3EDE4" d="M27.2 21.1c.2 0 .3.2.3.3v.1c.1-.1.1-.1.1-.2 0-.2-.2-.3-.3-.3-.1 0-.3.1-.3.2 0-.1.1-.1.2-.1"/></g><g><defs><path id="ao" d="M28.1 18.8h.7v.7h-.7z"/></defs><clipPath id="ap"><use xlink:href="#ao" overflow="visible"/></clipPath><path clip-path="url(#ap)" fill="#F3EDE4" d="M28.7 19.1c0 .2-.2.3-.3.3-.2 0-.3-.2-.3-.3s.2-.3.3-.3c.2 0 .3.1.3.3"/></g><g><defs><path id="aq" d="M28.1 18.8h.6v.6h-.6z"/></defs><clipPath id="ar"><use xlink:href="#aq" overflow="visible"/></clipPath><path clip-path="url(#ar)" fill="#F3EDE4" d="M28.3 18.9c.2 0 .3.2.3.3v.1c.1-.1.1-.1.1-.2 0-.2-.2-.3-.3-.3-.1 0-.3.1-.3.2 0-.1.1-.1.2-.1"/></g><g><defs><path id="as" d="M29.6 16.7h.7v.7h-.7z"/></defs><clipPath id="at"><use xlink:href="#as" overflow="visible"/></clipPath><path clip-path="url(#at)" fill="#F3EDE4" d="M30.2 17.1c0 .2-.2.3-.3.3-.2 0-.3-.2-.3-.3s.2-.3.3-.3c.2-.1.3.1.3.3"/></g><g><defs><path id="au" d="M29.6 16.7h.7v.6h-.7z"/></defs><clipPath id="av"><use xlink:href="#au" overflow="visible"/></clipPath><path clip-path="url(#av)" fill="#F3EDE4" d="M29.8 16.8c.2 0 .3.2.3.3v.1c.1-.1.1-.1.1-.2 0-.2-.2-.3-.3-.3-.1 0-.3.1-.3.2 0 0 .1-.1.2-.1"/></g><g><defs><path id="aw" d="M32 16h.7v.7H32z"/></defs><clipPath id="ax"><use xlink:href="#aw" overflow="visible"/></clipPath><path clip-path="url(#ax)" fill="#F3EDE4" d="M32.7 16.3c0 .2-.2.3-.3.3-.2 0-.3-.2-.3-.3 0-.2.2-.3.3-.3.2 0 .3.2.3.3"/></g><g><defs><path id="ay" d="M32 16h.7v.6H32z"/></defs><clipPath id="az"><use xlink:href="#ay" overflow="visible"/></clipPath><path clip-path="url(#az)" fill="#F3EDE4" d="M32.3 16.1c.2 0 .3.2.3.3v.1c.1-.1.1-.1.1-.2 0-.2-.2-.3-.3-.3-.1 0-.3.1-.3.2 0 0 .1-.1.2-.1"/></g><g><defs><path id="aA" d="M34.7 16h.7v.7h-.7z"/></defs><clipPath id="aB"><use xlink:href="#aA" overflow="visible"/></clipPath><path clip-path="url(#aB)" fill="#F3EDE4" d="M35.4 16.3c0 .2-.2.3-.3.3-.2 0-.3-.2-.3-.3 0-.2.2-.3.3-.3.1 0 .3.1.3.3"/></g><g><defs><path id="aC" d="M34.7 16h.6v.6h-.6z"/></defs><clipPath id="aD"><use xlink:href="#aC" overflow="visible"/></clipPath><path clip-path="url(#aD)" fill="#F3EDE4" d="M34.9 16.1c.2 0 .3.2.3.3v.1c.1-.1.1-.1.1-.2 0-.2-.2-.3-.3-.3-.1 0-.3.1-.3.2.1-.1.1-.1.2-.1"/></g><g><defs><path id="aE" d="M37.1 15.8h.7v.7h-.7z"/></defs><clipPath id="aF"><use xlink:href="#aE" overflow="visible"/></clipPath><path clip-path="url(#aF)" fill="#F3EDE4" d="M37.8 16.1c0 .2-.2.3-.3.3-.2 0-.3-.2-.3-.3 0-.2.2-.3.3-.3.2 0 .3.1.3.3"/></g><g><defs><path id="aG" d="M37.1 15.8h.6v.6h-.6z"/></defs><clipPath id="aH"><use xlink:href="#aG" overflow="visible"/></clipPath><path clip-path="url(#aH)" fill="#F3EDE4" d="M37.4 15.9c.2 0 .3.2.3.3v.1c.1-.1.1-.1.1-.2 0-.2-.2-.3-.3-.3-.1 0-.3.1-.3.2 0 0 .1-.1.2-.1"/></g><g><defs><path id="aI" d="M39.7 15.6h.7v.7h-.7z"/></defs><clipPath id="aJ"><use xlink:href="#aI" overflow="visible"/></clipPath><path clip-path="url(#aJ)" fill="#F3EDE4" d="M40.4 16c0 .2-.2.3-.3.3-.2 0-.3-.2-.3-.3 0-.2.2-.3.3-.3.2-.1.3.1.3.3"/></g><g><defs><path id="aK" d="M39.7 15.6h.7v.6h-.7z"/></defs><clipPath id="aL"><use xlink:href="#aK" overflow="visible"/></clipPath><path clip-path="url(#aL)" fill="#F3EDE4" d="M40 15.7c.2 0 .3.2.3.3v.1c.1-.1.1-.1.1-.2 0-.2-.2-.3-.3-.3-.1 0-.3.1-.3.2 0 0 .1-.1.2-.1"/></g><g><defs><path id="aM" d="M42.2 15.3h.7v.7h-.7z"/></defs><clipPath id="aN"><use xlink:href="#aM" overflow="visible"/></clipPath><path clip-path="url(#aN)" fill="#F3EDE4" d="M42.8 15.6c0 .2-.2.3-.3.3-.2 0-.3-.1-.3-.3s.2-.3.3-.3c.2 0 .3.1.3.3"/></g><g><defs><path id="aO" d="M42.2 15.3h.7v.6h-.7z"/></defs><clipPath id="aP"><use xlink:href="#aO" overflow="visible"/></clipPath><path clip-path="url(#aP)" fill="#F3EDE4" d="M42.4 15.4c.2 0 .3.2.3.3v.1c.1-.1.1-.1.1-.2 0-.2-.2-.3-.3-.3-.1 0-.3.1-.3.2 0-.1.1-.1.2-.1"/></g><g><defs><path id="aQ" d="M44.3 14.9h.7v.7h-.7z"/></defs><clipPath id="aR"><use xlink:href="#aQ" overflow="visible"/></clipPath><path clip-path="url(#aR)" fill="#F3EDE4" d="M45 15.2c0 .2-.2.3-.3.3-.2 0-.3-.1-.3-.3 0-.2.2-.3.3-.3.2 0 .3.1.3.3"/></g><g><defs><path id="aS" d="M44.4 14.9h.7v.6h-.7z"/></defs><clipPath id="aT"><use xlink:href="#aS" overflow="visible"/></clipPath><path clip-path="url(#aT)" fill="#F3EDE4" d="M44.6 15c.2 0 .3.2.3.3v.1c.1-.1.1-.1.1-.2 0-.2-.2-.3-.3-.3-.1 0-.3.1-.3.2 0 0 .1-.1.2-.1"/></g><g><defs><path id="aU" d="M46.4 14h.7v.7h-.7z"/></defs><clipPath id="aV"><use xlink:href="#aU" overflow="visible"/></clipPath><path clip-path="url(#aV)" fill="#F3EDE4" d="M47.1 14.3c0 .2-.2.3-.3.3-.2 0-.3-.1-.3-.3 0-.2.2-.3.3-.3.1 0 .3.2.3.3"/></g><g><defs><path id="aW" d="M46.4 14h.7v.6h-.7z"/></defs><clipPath id="aX"><use xlink:href="#aW" overflow="visible"/></clipPath><path clip-path="url(#aX)" fill="#F3EDE4" d="M46.7 14.1c.2 0 .3.2.3.3v.1c.1-.1.1-.1.1-.2 0-.2-.2-.3-.3-.3-.1 0-.3.1-.3.2 0 0 .1-.1.2-.1"/></g><g><defs><path id="aY" d="M48 12.9h.6v.6H48z"/></defs><clipPath id="aZ"><use xlink:href="#aY" overflow="visible"/></clipPath><path clip-path="url(#aZ)" fill="#F3EDE4" d="M48.6 13.4c-.1.1-.3.1-.4 0-.2-.1-.3-.3-.2-.4.1-.1.3-.1.4 0 .2.1.3.3.2.4"/></g><g><defs><path id="ba" d="M48.1 12.9h.5v.6h-.5z"/></defs><clipPath id="bb"><use xlink:href="#ba" overflow="visible"/></clipPath><path clip-path="url(#bb)" fill="#F3EDE4" d="M48.3 13c.2.1.2.3.1.4l-.1.1c.1 0 .1 0 .2-.1s0-.3-.1-.4c-.1-.1-.3-.1-.4 0 .2-.1.2 0 .3 0"/></g><g><defs><path id="bc" d="M48.8 12.1h.6v.5h-.6z"/></defs><clipPath id="bd"><use xlink:href="#bc" overflow="visible"/></clipPath><path clip-path="url(#bd)" fill="#F3EDE4" d="M49.4 12.5c-.1.1-.2.1-.4 0s-.2-.3-.2-.4c.1-.1.2-.1.4 0s.3.3.2.4"/></g><g><defs><path id="be" d="M48.9 12.1h.5v.5h-.5z"/></defs><clipPath id="bf"><use xlink:href="#be" overflow="visible"/></clipPath><path clip-path="url(#bf)" fill="#F3EDE4" d="M49.2 12.2c.2.1.2.3.2.4h-.1c.1 0 .1 0 .2-.1s0-.3-.2-.4c-.2-.1-.3-.1-.4 0 .1 0 .2 0 .3.1"/></g><g><defs><path id="bg" d="M49.4 11.3h.6v.4h-.6z"/></defs><clipPath id="bh"><use xlink:href="#bg" overflow="visible"/></clipPath><path clip-path="url(#bh)" fill="#F3EDE4" d="M50 11.7c0 .1-.2 0-.4-.1s-.3-.2-.2-.3c0-.1.2 0 .4.1.1.1.2.2.2.3"/></g><g><defs><path id="bi" d="M49.4 11.3h.5v.4h-.5z"/></defs><clipPath id="bj"><use xlink:href="#bi" overflow="visible"/></clipPath><path clip-path="url(#bj)" fill="#F3EDE4" d="M49.7 11.4c.2.1.3.2.2.3h.1c0-.1-.1-.2-.3-.3 0-.1-.2-.1-.2-.1s.1 0 .2.1"/></g><path fill="#F3EDE4" d="M36.9 23.6c0 .2-.2.3-.3.3-.2 0-.3-.2-.3-.3 0-.2.2-.3.3-.3.2-.1.3.1.3.3M39.8 22.1c0 .2-.2.3-.3.3-.2 0-.3-.2-.3-.3 0-.2.2-.3.3-.3.2-.1.3.1.3.3M42.9 21.1c0 .2-.2.3-.3.3-.2 0-.3-.2-.3-.3s.2-.3.3-.3c.1-.1.3.1.3.3M46 20.5c0 .2-.2.3-.3.3-.2 0-.3-.2-.3-.3s.2-.3.3-.3c.2-.1.3.1.3.3M49.2 20.1c0 .2-.2.3-.3.3-.2 0-.3-.2-.3-.3s.2-.3.3-.3c.1 0 .3.2.3.3M52.3 20c0 .2-.2.3-.3.3-.2 0-.3-.1-.3-.3 0-.2.2-.3.3-.3.2 0 .3.1.3.3M55.3 19.9c0 .2-.2.3-.3.3s-.3-.1-.3-.3c0-.2.2-.3.3-.3s.3.1.3.3M58.4 19.7c0 .2-.2.3-.3.3s-.3-.2-.3-.3.2-.3.3-.3.3.1.3.3M61.3 19.4c0 .2-.2.3-.3.3-.2 0-.3-.2-.3-.3 0-.2.2-.3.3-.3.1 0 .3.1.3.3M63.1 18.1c0 .1-.2.2-.3.2s-.3-.1-.3-.2.1-.2.3-.2.3 0 .3.2M63 16.7c0 .1-.2.1-.3.1-.2 0-.3-.1-.3-.1 0-.1.2-.1.3-.1.2 0 .3 0 .3.1"/></svg>