<svg xmlns="http://www.w3.org/2000/svg" xmlns:xlink="http://www.w3.org/1999/xlink" width="62.4" height="49.7" viewBox="0 0 62.4 49.7"><path fill="#8B4D47" d="M29.5 49.7c-.9 0-1.7-.5-2.1-1.2-.4-.7-.3-1.6.2-2.2.1-.2.4-.2.6-.1.2.1.2.4.1.6-.3.4-.4.9-.1 1.4.2.5.7.8 1.4.8 1.1 0 1.3-1.1 1.3-1.3v-3.5c0-.2.2-.4.4-.4s.4.2.4.4v3.5c-.1.6-.6 2-2.2 2"/><path fill="#DEDDDE" d="M30.8 44.1c0 .1.2.1.4.1s.4 0 .4-.1v-.7c0-.1-.2-.1-.4-.1s-.4 0-.4.1v.7z"/><path fill="#BDBCBC" d="M31.2 43.3c-.2 0-.4 0-.4.1v.3h.8v-.3c.1-.1-.1-.1-.4-.1"/><g opacity=".5"><defs><path id="a" d="M31.2 43.2h.3v1h-.3z"/></defs><clipPath id="b"><use xlink:href="#a" overflow="visible"/></clipPath><path clip-path="url(#b)" fill="#F4F4F4" d="M31.2 44.2h.3v-.9h-.3v.9z"/></g><path fill="#DEDDDE" d="M30.6 43.5c0 .1.3.1.6.1s.6-.1.6-.1v-.3c0-.1-.3-.1-.6-.1s-.6.1-.6.1v.3z"/><defs><path id="c" d="M28 47.7h2V49h-2z"/></defs><clipPath id="d"><use xlink:href="#c" overflow="visible"/></clipPath><path clip-path="url(#d)" fill="#8B4D47" d="M29.9 48.9c-.2.1-.4.2-.7.2-.2 0-.5 0-.7-.2-.2-.1-.4-.3-.5-.5v-.7l.3.6c.1.2.3.3.4.4.2.1.4.2.6.2h.6"/><defs><path id="e" d="M29.1 48.3H31v1h-1.9z"/></defs><clipPath id="f"><use xlink:href="#e" overflow="visible"/></clipPath><path clip-path="url(#f)" fill="#DCCAC8" d="M31 48.3c-.1.4-.4.7-.8.9-.2.1-.4.1-.6.2-.2 0-.4 0-.6-.1.4 0 .8 0 1.1-.2.2-.1.3-.2.5-.3.1-.2.3-.3.4-.5"/><g opacity=".5"><defs><path id="g" d="M31.3 43h.3v.6h-.3z"/></defs><clipPath id="h"><use xlink:href="#g" overflow="visible"/></clipPath><path clip-path="url(#h)" fill="#F4F4F4" d="M31.3 43.6h.3v-.5h-.3v.5z"/></g><path fill="#9C9A9B" d="M31.8 43.2c0 .1-.3.1-.6.1s-.6-.1-.6-.1.3-.1.6-.1c.4-.1.6 0 .6.1"/><path fill="#DCCAC8" d="M31.3 44.4V44.4"/><path fill="#6C696A" d="M31.6 31.8v.9s.5 0 .4-.3l-.4-.6"/><path fill="#C8C7C7" d="M3.4 22.3L.1 25c-.1 0-.1.2 0 .3.1.1.3.1.4 0l3.3-2.7"/><path fill="#E9E9E9" d="M3.2 22.7l-3 2.4c-.1.1-.2.2-.1.2 0 0 .2 0 .3-.1l3-2.4"/><path fill="#C8C7C7" d="M62.1 25.4l-3.3-2.7M59.1 22.3l3.3 2.7"/><path fill="#E9E9E9" d="M62.2 25.2l-3-2.4M59.3 22.7l3 2.4"/><path fill="#C8C7C7" d="M18.9 24.9l-1.5 4c-.1.1-.3.1-.4.1-.1-.1-.2-.2-.2-.4l1.5-4"/><path fill="#E9E9E9" d="M18.5 25.2l-1.4 3.6c0 .1-.1.2-.2.2 0 0-.1-.1 0-.3l1.4-3.6"/><path fill="#C8C7C7" d="M43.6 24.9l1.5 4c.1.1.2.2.4.2.1-.1.2-.2.2-.4l-1.5-4"/><path fill="#E9E9E9" d="M43.9 25.2l1.4 3.6c0 .1.1.2.2.2s.1-.1 0-.3l-1.4-3.6"/><path fill="#C8C7C7" d="M31.6 43.1c0 .1-.1.1-.3.1-.2 0-.3 0-.3-.1V22.8c0-.2.1-.3.3-.3.2 0 .3.1.3.3v20.3z"/><path fill="#E9E9E9" d="M31.4 42.6c0 .2 0 .3-.1.3s-.1-.1-.1-.3V22.8c0-.2.1-.3.1-.3.1 0 .1.1.1.3v19.8z"/><path fill="#473F65" d="M62.1 24.6s-1.7-2.6-4.2-5.7M57.9 18.9C55 15.3 51 11 47.2 9.2c-7.1-3.4-12.1-2.8-12.1-2.8s-2.4-.1-3.3-.8c-.1 0-.4.1-.5.1s-.4 0-.5-.1c-1 .6-3.3.8-3.3.8s-5-.6-12.1 2.8c-3.8 1.8-7.8 6.1-10.7 9.7C2.2 22 .5 24.6.5 24.6c9-1.4 15.3 2.5 16.6 3.4.2.1.2.2.2.2 1.5-.5 3.5-.9 5.5-1.1 4.2-.6 8.5-.6 8.5-.6s4.3.1 8.5.6c2 .3 4 .6 5.5 1.1l.2-.2c1.3-.9 7.6-4.8 16.6-3.4"/><path fill="#C8C7C7" d="M31.6 5.2c0 .2-.1.3-.3.3-.2 0-.3-.1-.3-.3V.3c0-.2.1-.3.3-.3.2 0 .3.1.3.3v4.9z"/><path fill="#E9E9E9" d="M31.4 4.8c0 .2 0 .3-.1.3s-.1-.1-.1-.3V.3c0-.2.1-.3.1-.3.1 0 .1.1.1.3v4.5z"/><path fill="#7D7B7B" d="M31.6 5v-.2c-.1.1-.2.1-.3.1s-.2 0-.3-.1V5c0 .2.1.3.3.3.1.1.3-.1.3-.3"/><path fill="#C8C7C7" d="M31.6 5c-.1.1-.2.1-.3.1s-.3 0-.4-.1c-.1.7-.5.9-.5.9l.8.1.8-.1s-.4-.2-.4-.9"/><path fill="#473F65" d="M13.7 11.1c2.8-2.6 12.1-4.3 13.8-4.5 1.7-.3 3-.8 3-.8l-.3.8c.5-.2.7-.8.7-.8h.6s.2.5.7.8l-.2-.8s1.3.5 3 .8c1.7.3 11 1.9 13.8 4.5 2 1.8 5.6 4.1 9.1 7.8C55 15.3 51 11 47.2 9.2c-7.1-3.4-12.1-2.8-12.1-2.8s-2.4-.1-3.3-.8c-.1 0-.4.1-.5.1s-.4 0-.5-.1c-1 .6-3.3.8-3.3.8s-5-.6-12.1 2.8c-3.8 1.8-7.8 6.1-10.7 9.7 3.4-3.7 7-5.9 9-7.8"/><path fill="#473F65" d="M62.1 24.6s-1.7-2.6-4.2-5.7c-3.5-3.7-7.2-5.9-9.1-7.8"/><path fill="#473F65" d="M48.8 11.1C46 8.5 36.7 6.9 35 6.6c-1.7-.3-3-.8-3-.8l.3.8h.1c.6.2 4.5 2.3 6.2 5.2 1.7 2.9 4.5 8.6 6.8 16v.1c1.3-.9 7.6-4.8 16.6-3.4"/><path fill="none" d="M62.1 5.8H32V28h30.1"/><g><defs><path id="i" d="M.4 5.8h30.1V28H.4z"/></defs><clipPath id="j"><use xlink:href="#i" overflow="visible"/></clipPath><path clip-path="url(#j)" fill="#473F65" d="M17 28s0-.1 0 0c2.4-7.5 5.1-13.2 6.8-16.1 1.7-2.9 5.6-5 6.2-5.2h.1l.3-.8s-1.3.5-3 .8c-1.7.3-11 1.9-13.8 4.5-2 1.8-5.6 4.1-9.1 7.8C2 22.1.3 24.7.3 24.7 9.4 23.2 15.7 27.1 17 28"/></g><path fill="#473F65" d="M45.4 27.9c-2.3-7.4-5-13.1-6.8-16-1.7-2.9-5.6-5-6.2-5.2h-.1c-.5-.2-.7-.8-.7-.8H31s-.2.5-.7.8h-.1c-.6.2-4.5 2.3-6.2 5.2-1.7 2.9-4.5 8.6-6.8 16v.1c.2.1.2.2.2.2 1.5-.5 3.5-.9 5.5-1.1 4.2-.6 8.5-.6 8.5-.6s4.3.1 8.5.6c2 .3 4 .6 5.5 1.1-.2 0-.1-.1 0-.3.1.1 0 0 0 0"/></svg>