<svg xmlns="http://www.w3.org/2000/svg" xmlns:xlink="http://www.w3.org/1999/xlink" width="41.4" height="70.5" viewBox="0 0 41.4 70.5"><path fill="#3D3A3B" d="M6 4.3c1.2 1.5 6.6 3.9 6.6 3.9s2.2.7 5.5 1.7 6.6 1.1 8.2 1.2 2.3-1 2.3-1c3.2-.7 5.9-3.1 7-4.4.5-.6.7-1.4.7-1.9-1.7-.4-6 1.8-6 1.8s-.4.1-2.8 1.6-7.3 1.2-8 .9c-.7-.2-5.4-1.5-5.8-2-.4-.5-2.8-1.4-2.8-1.4S7.3 3.2 6.4 2.8c-.4-.2-.8-.1-1.2 0 0 .4-.3.2.8 1.5"/><path fill="#231F20" d="M30.2 5.6s-.4.1-2.8 1.6-7.3 1.2-8 .9c-.7-.2-5.4-1.5-5.8-2-.4-.5-2.8-1.4-2.8-1.4s-.1 0-.2-.1c0 .1 0 .2.5.8.8 1 4.3 2.5 4.3 2.5s1.4.5 3.5 1.1c2.1.6 4.2.7 5.3.7 1.1 0 1.4-.6 1.4-.6 2-.5 3.8-2 4.5-2.8.3-.3.4-.7.4-1-.1.2-.3.3-.3.3"/><path fill="#C1C0C1" d="M20.7 31.4c10.2 0 18.4 8.3 18.4 18.4s-8.3 18.4-18.4 18.4C10.6 68.2 2.3 60 2.3 49.8s8.3-18.4 18.4-18.4m0-2.3C9.3 29.1 0 38.4 0 49.8c0 11.4 9.3 20.7 20.7 20.7 11.4 0 20.7-9.3 20.7-20.7 0-11.4-9.2-20.7-20.7-20.7"/><path fill="#393536" d="M20.7 30c10.9 0 19.8 8.9 19.8 19.8s-8.9 19.8-19.8 19.8S.9 60.7.9 49.8 9.8 30 20.7 30m0-.9C9.3 29.1 0 38.4 0 49.8c0 11.4 9.3 20.7 20.7 20.7 11.4 0 20.7-9.3 20.7-20.7 0-11.4-9.2-20.7-20.7-20.7"/><path fill="none" stroke="#B2B1B1" stroke-width=".225" stroke-miterlimit="10" d="M19 30.9l3.4 37.7M22.4 30.9L19 68.6M8.3 35.5L33.2 64M11 33.5L30.4 66M2.3 45.5l36.9 8.4M3.3 42.3l34.8 14.9M3.3 57.2l34.8-14.9M2.3 53.9l36.9-8.4M11 66l19.4-32.5M8.3 64l24.9-28.5"/><g opacity=".3"><defs><path id="a" d="M0 29.1h41.4v41.4H0z"/></defs><clipPath id="b"><use xlink:href="#a" overflow="visible"/></clipPath><g clip-path="url(#b)"><defs><path id="c" d="M.8 49.8h39.7v19.8H.8z"/></defs><clipPath id="d"><use xlink:href="#c" overflow="visible"/></clipPath><path clip-path="url(#d)" fill="#C1C0C1" d="M20.7 69.6c10.9 0 19.8-8.9 19.8-19.8h-1.4c0 10.2-8.3 18.4-18.4 18.4-10.2 0-18.4-8.2-18.4-18.4H.8c0 10.9 8.9 19.8 19.9 19.8"/></g><g clip-path="url(#b)"><defs><path id="e" d="M0 49.8h41.4v20.7H0z"/></defs><clipPath id="f"><use xlink:href="#e" overflow="visible"/></clipPath><path clip-path="url(#f)" fill="#393536" d="M20.7 69.6C9.8 69.6.9 60.7.9 49.8H0c0 11.4 9.3 20.7 20.7 20.7 11.4 0 20.7-9.3 20.7-20.7h-.8c-.1 10.9-9 19.8-19.9 19.8"/></g><g clip-path="url(#b)"><defs><path id="g" d="M.8 30h39.7v19.8H.8z"/></defs><clipPath id="h"><use xlink:href="#g" overflow="visible"/></clipPath><path clip-path="url(#h)" fill="#C1C0C1" d="M2.3 49.8c0-10.2 8.3-18.4 18.4-18.4 10.2 0 18.4 8.3 18.4 18.4h1.4c0-10.9-8.9-19.8-19.8-19.8C9.7 30 .8 38.9.8 49.8h1.5z"/></g><g clip-path="url(#b)"><defs><path id="i" d="M0 29.1h41.4v20.7H0z"/></defs><clipPath id="j"><use xlink:href="#i" overflow="visible"/></clipPath><path clip-path="url(#j)" fill="#393536" d="M20.7 29.1C9.3 29.1 0 38.4 0 49.8h.9C.8 38.9 9.7 30 20.7 30s19.8 8.9 19.8 19.8h.8c.1-11.4-9.2-20.7-20.6-20.7"/></g></g><defs><path id="k" d="M1.3 49.4h38.9v19.7H1.3z"/></defs><clipPath id="l"><use xlink:href="#k" overflow="visible"/></clipPath><path clip-path="url(#l)" fill="#BDBCBC" d="M40.2 49.4v.7c0 .4 0 1.1-.1 1.9-.1.4-.1.9-.2 1.4-.1.5-.2 1-.4 1.6-.1.6-.4 1.1-.6 1.8-.2.6-.6 1.2-.9 1.9-.4.6-.7 1.3-1.2 1.9-.5.6-.9 1.3-1.5 1.9-1.1 1.3-2.4 2.4-3.9 3.4s-3.2 1.8-5 2.4c-1.8.6-3.7.8-5.7.9-1.9-.1-3.9-.3-5.7-.9-1.8-.6-3.5-1.4-5-2.4s-2.8-2.1-3.9-3.4c-.6-.6-1-1.3-1.5-1.9-.4-.6-.8-1.3-1.2-1.9-.3-.7-.6-1.3-.9-1.9-.1-.7-.3-1.2-.5-1.8-.1-.6-.3-1.1-.4-1.6-.1-.5-.1-1-.2-1.4-.1-.8-.1-1.5-.1-1.9v-.7.7c.1.4 0 1.1.2 1.9.1.4.1.9.2 1.4.1.5.3 1 .4 1.6.2.6.4 1.1.6 1.7.2.6.6 1.2.9 1.8.4.6.7 1.3 1.2 1.9.5.6.9 1.3 1.5 1.8 1.1 1.2 2.4 2.3 3.9 3.3s3.2 1.7 4.9 2.3c1.8.5 3.7.8 5.6.8 1.9 0 3.8-.3 5.6-.8 1.8-.6 3.5-1.3 4.9-2.3 1.5-1 2.8-2.1 3.9-3.3.6-.6 1-1.2 1.5-1.8.4-.6.8-1.3 1.2-1.9l.9-1.8c.2-.6.5-1.2.6-1.7.2-.6.3-1.1.4-1.6.1-.5.2-.9.2-1.4.2-.8.1-1.5.2-1.9.1-.4.1-.7.1-.7"/><defs><path id="m" d="M1.2 30.3h38.9V50H1.2z"/></defs><clipPath id="n"><use xlink:href="#m" overflow="visible"/></clipPath><path clip-path="url(#n)" fill="#BDBCBC" d="M1.2 49.9v-.7c0-.4 0-1.1.1-1.9.1-.4.1-.9.2-1.4.1-.5.2-1 .4-1.6.1-.6.4-1.1.6-1.8.2-.6.6-1.2.9-1.9.4-.6.7-1.3 1.2-1.9.5-.6.9-1.3 1.5-1.9 1.1-1.3 2.4-2.4 3.9-3.4s3.2-1.8 5-2.4c1.8-.6 3.7-.8 5.7-.9 1.9.1 3.9.3 5.7.9 1.8.6 3.5 1.4 5 2.4s2.8 2.1 3.9 3.4c.6.6 1 1.3 1.5 1.9.4.6.8 1.3 1.2 1.9.3.7.6 1.3.9 1.9l.6 1.8c.1.6.3 1.1.4 1.6.1.5.1 1 .2 1.4.2.8.1 1.5.1 1.9v0c-.1-.4 0-1.1-.2-1.9-.1-.4-.1-.9-.2-1.4-.1-.5-.3-1-.4-1.6-.2-.6-.4-1.1-.6-1.7-.2-.6-.6-1.2-.9-1.8-.4-.6-.7-1.3-1.2-1.9-.5-.6-.9-1.3-1.5-1.8-1.1-1.2-2.4-2.3-3.9-3.3s-3.2-1.7-4.9-2.3c-1.8-.5-3.7-.8-5.6-.8-1.9 0-3.8.3-5.6.8-1.8.6-3.5 1.3-4.9 2.3-1.5 1-2.8 2.1-3.9 3.3-.6.6-1 1.2-1.5 1.8-.4.6-.8 1.3-1.2 1.9l-.9 1.8c-.2.6-.5 1.2-.6 1.7-.2.6-.3 1.1-.4 1.6-.1.5-.2.9-.2 1.4-.2.8-.1 1.5-.2 1.9-.2.5-.2.7-.2.7"/><path fill="#393536" d="M19.7 8.1h2v19.8h-2z"/><path fill="#393536" d="M19.4 26.8H22v1.1h-2.6z"/><defs><path id="o" d="M19.7 26.7h2v.2h-2z"/></defs><clipPath id="p"><use xlink:href="#o" overflow="visible"/></clipPath><path clip-path="url(#p)" fill="#252A26" d="M19.7 26.8s.1-.1.3-.1c.2 0 .4-.1.7-.1.2 0 .5.1.7.1.2 0 .3.1.3.1h-1c-.5.1-1 .1-1 0z"/><defs><path id="q" d="M20.5 8.1h.5v18.7h-.5z"/></defs><clipPath id="r"><use xlink:href="#q" overflow="visible"/></clipPath><path clip-path="url(#r)" fill="#252A26" d="M20.5 8.1h.5v18.7h-.5z"/><defs><path id="s" d="M20.4 26.9h.7V28h-.7z"/></defs><clipPath id="t"><use xlink:href="#s" overflow="visible"/></clipPath><path clip-path="url(#t)" fill="#252A26" d="M20.4 26.8h.7v1.1h-.7z"/><path fill="#00587E" d="M19 27.9h3.5v20.6H19z"/><g opacity=".4"><defs><path id="u" d="M19 27.9h3.5v20.6H19z"/></defs><clipPath id="v"><use xlink:href="#u" overflow="visible"/></clipPath><path clip-path="url(#v)" fill="#00587E" d="M19 27.9h.4v20.6H19zM22.1 27.9h.4v20.6h-.4z"/></g><defs><path id="w" d="M20.1 27.9h1.1v20.6h-1.1z"/></defs><clipPath id="x"><use xlink:href="#w" overflow="visible"/></clipPath><path clip-path="url(#x)" fill="#00587E" d="M20.1 27.9h1.1v20.6h-1.1z"/><path fill="#00587E" d="M23.1 49.8c0 1.3-1.1 2.4-2.4 2.4-1.3 0-2.4-1.1-2.4-2.4s1.1-2.4 2.4-2.4c1.4 0 2.4 1.1 2.4 2.4"/><path fill="#393536" d="M22.2 49.8c0 .8-.7 1.5-1.5 1.5s-1.5-.7-1.5-1.5.7-1.5 1.5-1.5 1.5.7 1.5 1.5"/><path fill="#B0AEAF" d="M20.2 50.7l-.5-.9.5-.9h1l.6.9-.6.9"/><circle fill="none" stroke="#E4E4E4" stroke-width=".214" stroke-miterlimit="10" cx="20.7" cy="49.8" r=".5"/><path fill="#989696" d="M19.6 13.3h2.3v2h-2.3z"/><path fill="#989696" d="M21.8 13.6h1.4c.2 0 .4.2.4.4v.5c0 .2-.2.4-.4.4h-1.4v-1.3z"/><path fill="#D1D0D0" d="M23.5 14.3c0 .3-.2.5-.5.5s-.5-.2-.5-.5.2-.5.5-.5.5.2.5.5"/><path fill="#EBEBEB" d="M23 14.1c0 .1-.1.2-.2.2s-.2-.1-.2-.2.1-.2.2-.2.2.1.2.2"/><path fill="#B9B7B8" d="M20.7 13.3h.5v2h-.5z"/><path fill="#636061" d="M6.4 2.8c.9.4 4.5 1.9 4.5 1.9s2.4.9 2.8 1.4c.4.5 5.1 1.7 5.8 2 .7.2 5.5.6 8-.9s2.8-1.6 2.8-1.6 4.3-2.2 6-1.8c0-.6-.1-1-.1-1l-.2-.7c-.7-3.6-4.7-1.5-9.3-.1-4.6 1.4-8.9.5-8.9.5S13 1.3 9.9.3c-3.1-1-3.8.4-3.8.4l-.9 1.9v.2c.4-.1.8-.2 1.2 0"/></svg>