<svg xmlns="http://www.w3.org/2000/svg" xmlns:xlink="http://www.w3.org/1999/xlink" width="30" height="60.6" viewBox="0 0 30 60.6"><path fill="#E9E9E9" d="M4.9 27.4c0 .2-.2.4-.4.4H1.4c-.2 0-.4-.2-.4-.4v-4.2c0-.2.2-.4.4-.4h3.1c.2 0 .4.2.4.4v4.2z"/><path fill="#E9E9E9" d="M1.9 26.1c0 .2-.2.4-.4.4H.4c-.2 0-.4-.2-.4-.4v-1c0-.2.2-.4.4-.4h1.1c.2 0 .4.2.4.4v1zM4.9 37.8c0 .2-.2.4-.4.4H1.4c-.2 0-.4-.2-.4-.4v-4.3c0-.2.2-.4.4-.4h3.1c.2 0 .4.2.4.4v4.3z"/><path fill="#E9E9E9" d="M1.7 36c0 .2-.2.4-.4.4H.4c-.2 0-.4-.2-.4-.4v-1c0-.2.2-.4.4-.4h.9c.2 0 .4.2.4.4v1zM29 27.1c0 .2-.2.4-.4.4h-1.9c-.2 0-.4-.2-.4-.4V23c0-.2.2-.4.4-.4h1.9c.2 0 .4.2.4.4v4.1zM29 36.9c0 .2-.2.4-.4.4h-1.1c-.2 0-.4-.2-.4-.4v-3.6c0-.2.2-.4.4-.4h1.1c.2 0 .4.2.4.4v3.6z"/><path fill="#E9E9E9" d="M30 35.3c0 .2-.2.4-.4.4h-1.2c-.2 0-.4-.2-.4-.4v-1.1c0-.2.2-.4.4-.4h1.2c.2 0 .4.2.4.4v1.1z"/><path fill="#E9E9E9" d="M25.7 19.2c-.8-1.2-1.5-4.9-1.5-4.9H5.8S5 18 4.3 19.2c-.8 1.2-2.8 5.1-2.8 5.9v10.6c0 .7 2 4.6 2.8 5.9.8 1.2 1.5 4.9 1.5 4.9h18.4s.8-3.7 1.5-4.9c.8-1.2 2.8-5.1 2.8-5.9V25c.1-.7-2-4.6-2.8-5.8"/><defs><path id="a" d="M2.4 16.6h25.1v27.6H2.4z"/></defs><clipPath id="b"><use xlink:href="#a" overflow="visible"/></clipPath><path clip-path="url(#b)" fill="#DEDDDE" d="M5 18.9c-.7 1.2-2.6 5.3-2.6 6v11c0 .7 1.9 4.8 2.6 6 .3.5.6 1.4.8 2.3h18.3c.2-.9.5-1.8.8-2.3.7-1.2 2.6-5.3 2.6-6v-11c0-.7-1.9-4.8-2.6-6-.3-.5-.6-1.5-.8-2.4H5.9c-.3 1-.6 1.9-.9 2.4"/><path fill="#DEDDDE" d="M5 19.2c-.7 1.2-2.6 5.1-2.6 5.9v10.6c0 .7 1.9 4.6 2.6 5.9.3.5.6 1.3.8 2.2h18.3c.2-.9.5-1.7.8-2.2.7-1.2 2.6-5.1 2.6-5.9V25c0-.7-1.9-4.6-2.6-5.9-.3-.5-.6-1.4-.8-2.3H5.9c-.3 1-.6 1.9-.9 2.4"/><path fill="#393536" d="M5.4 19.6c-.7 1.2-2.5 5-2.5 5.7v10.3c0 .7 1.8 4.5 2.5 5.7.1.2.3.6.4 1h18.3c.1-.4.3-.8.4-1 .7-1.2 2.5-5 2.5-5.7V25.3c0-.7-1.8-4.5-2.5-5.7-.2-.3-.4-.8-.5-1.3H5.9c-.1.5-.3 1-.5 1.3"/><defs><path id="c" d="M6.8 26.5h16.4V35H6.8z"/></defs><clipPath id="d"><use xlink:href="#c" overflow="visible"/></clipPath><path clip-path="url(#d)" fill="#7098AB" d="M23.2 34.6c0 .2-.2.4-.4.4H7.2c-.2 0-.4-.2-.4-.4v-7.7c0-.2.2-.4.4-.4h15.6c.2 0 .4.2.4.4v7.7z"/><path fill="#7098AB" d="M23.2 34.2c0 .2-.2.4-.4.4H7.2c-.2 0-.4-.2-.4-.4v-7.7c0-.2.2-.4.4-.4h15.6c.2 0 .4.2.4.4v7.7z"/><path fill="none" stroke="#FFF" stroke-width=".108" stroke-miterlimit="10" d="M22.6 21.4H7.4c-2.5 0-2.9 5.6-2.9 5.6v6.5s.4 5.6 2.9 5.6h15.2c2.5 0 2.9-5.6 2.9-5.6V27c0 .1-.4-5.6-2.9-5.6z"/><path fill="none" stroke="#FFF" stroke-width=".108" stroke-miterlimit="10" d="M23.2 20.3H6.8c-2.7 0-3.2 6.3-3.2 6.3v7.1S4 40 6.8 40h16.4c2.7 0 3.1-6.3 3.1-6.3v-7.1s-.4-6.3-3.1-6.3z"/><defs><path id="e" d="M.8 24.7H1v1.8H.8z"/></defs><clipPath id="f"><use xlink:href="#e" overflow="visible"/></clipPath><path clip-path="url(#f)" fill="#E9E9E9" d="M.8 24.7H1v1.8H.8z"/><defs><path id="g" d="M.8 34.6H1v1.8H.8z"/></defs><clipPath id="h"><use xlink:href="#g" overflow="visible"/></clipPath><path clip-path="url(#h)" fill="#E9E9E9" d="M.8 34.6H1v1.8H.8z"/><defs><path id="i" d="M28.9 33.7h.2v1.8h-.2z"/></defs><clipPath id="j"><use xlink:href="#i" overflow="visible"/></clipPath><path clip-path="url(#j)" fill="#E9E9E9" d="M28.9 33.7h.2v1.8h-.2z"/><path d="M10.6 32.4h-2c-.2 0-.2-.1-.3-.3l.6-.1h1.6l.1.4zM8.4 32l.2-1.5.1-.1.3.3-.1 1.1-.5.2zm2.2-3.4H9.2l-.5-.2c.1-.2.2-.3.3-.3h1.8l-.2.5zm0 1.5l.2.2-.3.2H9l-.2-.2.3-.2h1.5zm0-.2l.1-1.2.2-.5c.2 0 .2.1.3.3l-.2 1.7-.4-.3zM13.5 32.4h-1.8c-.2 0-.2-.1-.3-.3l.6-.1h1.4l.1.4zm-2-.4l.2-1.5.1-.1.3.4-.1 1-.5.2zm.8-3.2l-.1 1.1-.4.4-.1-.1.2-1.5.4.1zm1.4-.2h-1.4l-.5-.2c.1-.2.2-.3.3-.3H14l-.3.5zm.3 1.8l.1.1-.1 1.6c-.1.2-.2.3-.3.3l-.2-.4.1-1.2.4-.4zm-.3-.5l.1-1.2.2-.5c.2 0 .2.1.3.3l-.2 1.7H14l-.3-.3zM15.1 31.5h-.5V31h.5v.5zm.2-1.9h-.5v-.5h.5v.5zM16.5 28.6l-.1 1.3-.4.4-.1-.1.2-1.7.4.1zm1.4 1.5l.2.2-.3.2h-1.5l-.2-.2.3-.2h1.5zm.3.3l.1.1-.2 1.7c-.1.2-.2.3-.3.3l-.1-.5.1-1.2.4-.4zm-.3-.5l.1-1.2.2-.5c.2 0 .2.1.3.3l-.2 1.7-.1.1-.3-.4zM19.5 28.8l-.1 1.1-.4.3-.1-.1.2-1.5.4.2zm1.5-.2h-1.4l-.5-.2c.1-.2.2-.3.3-.3h1.8l-.2.5zm.3 1.8l.1.1-.2 1.7c-.1.2-.2.3-.3.3l-.1-.5.1-1.2.4-.4zm-.3-.5l.1-1.2.2-.5c.2 0 .2.1.3.3l-.2 1.7-.1.1-.3-.4z"/><path fill="#F3EFD9" d="M7.9 22.9h6.7v1.8H7.9zM15.6 23.5h2.3v1.1h-2.3zM18.5 23.5H22v1.1h-3.5z"/><path fill="#E9E9E9" d="M11.6 11.3h6.8v1.8h-6.8z"/><path fill="#D3D2D2" d="M11.3 8h7.3v3.4h-7.3z"/><path fill="#656263" d="M11.3 7.4h7.3V8h-7.3z"/><path fill="#D3D2D2" d="M11.3 5.1h7.3v2.3h-7.3z"/><path fill="#CDCBCC" d="M11.3 2.6h7.3V5h-7.3z"/><path fill="#C8C7C7" d="M11.3 1h7.3v1.6h-7.3z"/><path fill="#BDBCBC" d="M11.3 0h7.3v1h-7.3z"/><path fill="#D3D2D2" d="M6.1 11.9V12.8h5.2V9.5H6.9c-.3.9-.5 1.8-.8 2.4"/><path fill="#656263" d="M6.9 9.5h4.5V9H7c0 .1-.1.3-.1.5"/><path fill="#D3D2D2" d="M7 9h4.3V6.4H7.6c-.2.9-.4 1.8-.6 2.6"/><path fill="#656263" d="M7.6 6.4h3.8v-.5H7.7c0 .2-.1.3-.1.5"/><path fill="#D3D2D2" d="M7.7 5.9h3.6V3.6H8.2c-.2.7-.3 1.5-.5 2.3"/><path fill="#656263" d="M8.2 3.6h3.2v-.5H8.2v.5"/><path fill="#CDCBCC" d="M8.2 3.1h3.1V1.7H8.5c-.1.4-.2.9-.3 1.4"/><path fill="#656263" d="M8.5 1.7h2.8v-.5H8.6c0 .2-.1.3-.1.5"/><path fill="#C8C7C7" d="M8.6 1.2h2.7V.6H8.7c0 .1 0 .4-.1.6"/><path fill="#BDBCBC" d="M8.8.2s0 .1-.1.4h2.6V.2H8.8z"/><path fill="#D3D2D2" d="M23.8 11.9V12.8h-5.2V9.5h4.5c.3.9.5 1.8.7 2.4"/><path fill="#656263" d="M23.1 9.5h-4.5V9H23c0 .1.1.3.1.5"/><path fill="#D3D2D2" d="M23 9h-4.3V6.4h3.8c.1.9.3 1.8.5 2.6"/><path fill="#656263" d="M22.4 6.4h-3.8v-.5h3.6c.1.2.2.3.2.5"/><path fill="#D3D2D2" d="M22.3 5.9h-3.6V3.6h3.2c.1.7.2 1.5.4 2.3"/><path fill="#656263" d="M21.8 3.6h-3.2v-.5h3.1c.1.2.1.3.1.5"/><path fill="#CDCBCC" d="M21.7 3.1h-3.1V1.7h2.8c.1.4.2.9.3 1.4"/><path fill="#656263" d="M21.5 1.7h-2.8v-.5h2.7c0 .2 0 .3.1.5"/><path fill="#C8C7C7" d="M21.4 1.2h-2.7V.6h2.6c0 .1 0 .4.1.6"/><path fill="#BDBCBC" d="M21.2.2s0 .1.1.4h-2.6V.2h2.5z"/><path fill="#E9E9E9" d="M23.9 14.4c0 .2-.2.4-.4.4H6.6c-.2 0-.4-.2-.4-.4v-1.3c0-.2.2-.4.4-.4h16.8c.2 0 .4.2.4.4v1.3z"/><path fill="#656263" d="M11.3 4.9h7.3v.2h-7.3zM11.3 2.5h7.3v.2h-7.3zM11.3 1h7.3v.1h-7.3z"/><path fill="#E9E9E9" d="M11.6 47.4h6.8v1.8h-6.8z"/><path fill="#D3D2D2" d="M11.3 49.2h7.3v3.4h-7.3z"/><path fill="#656263" d="M11.3 52.6h7.3v.6h-7.3z"/><path fill="#D3D2D2" d="M11.3 53.2h7.3v2.3h-7.3z"/><path fill="#CDCBCC" d="M11.3 55.5h7.3v2.4h-7.3z"/><path fill="#C8C7C7" d="M11.3 58h7.3v1.6h-7.3z"/><path fill="#BDBCBC" d="M11.3 59.5h7.3v1h-7.3z"/><path fill="#D3D2D2" d="M6.1 48.7V47.8h5.2v3.3H6.9c-.3-1-.5-1.8-.8-2.4"/><path fill="#656263" d="M6.9 51.1h4.5v.5H7c0-.2-.1-.3-.1-.5"/><path fill="#D3D2D2" d="M7 51.6h4.3v2.5H7.6c-.2-.8-.4-1.7-.6-2.5"/><path fill="#656263" d="M7.6 54.2h3.8v.5H7.7c0-.2-.1-.4-.1-.5"/><path fill="#D3D2D2" d="M7.7 54.7h3.6V57H8.2c-.2-.7-.3-1.5-.5-2.3"/><path fill="#656263" d="M8.2 57h3.2v.4H8.2V57"/><path fill="#CDCBCC" d="M8.2 57.4h3.1v1.5H8.5c-.1-.4-.2-.9-.3-1.5"/><path fill="#656263" d="M8.5 58.9h2.8v.5H8.6c0-.2-.1-.3-.1-.5"/><path fill="#C8C7C7" d="M8.6 59.4h2.7v.6H8.7c0-.2 0-.4-.1-.6"/><path fill="#BDBCBC" d="M8.8 60.4s0-.1-.1-.4h2.6v.4H8.8z"/><path fill="#D3D2D2" d="M23.8 48.7V47.8h-5.2v3.3h4.5c.3-1 .5-1.8.7-2.4"/><path fill="#656263" d="M23.1 51.1h-4.5v.5H23c0-.2.1-.3.1-.5"/><path fill="#D3D2D2" d="M23 51.6h-4.3v2.5h3.8c.1-.8.3-1.7.5-2.5"/><path fill="#656263" d="M22.4 54.2h-3.8v.5h3.6c.1-.2.2-.4.2-.5"/><path fill="#D3D2D2" d="M22.3 54.7h-3.6V57h3.2c.1-.7.2-1.5.4-2.3"/><path fill="#656263" d="M21.8 57h-3.2v.4h3.1c.1-.1.1-.3.1-.4"/><path fill="#CDCBCC" d="M21.7 57.4h-3.1v1.5h2.8c.1-.4.2-.9.3-1.5"/><path fill="#656263" d="M21.5 58.9h-2.8v.5h2.7c0-.2 0-.3.1-.5"/><path fill="#C8C7C7" d="M21.4 59.4h-2.7v.6h2.6c0-.2 0-.4.1-.6"/><path fill="#BDBCBC" d="M21.2 60.4s0-.1.1-.4h-2.6v.4h2.5z"/><path fill="#E9E9E9" d="M23.9 46.1c0-.2-.2-.4-.4-.4H6.6c-.2 0-.4.2-.4.4v1.3c0 .2.2.4.4.4h16.8c.2 0 .4-.2.4-.4v-1.3z"/><path fill="#656263" d="M11.3 55.5h7.3v.2h-7.3zM11.3 57.9h7.3v.2h-7.3zM11.3 59.5h7.3v.1h-7.3z"/><g><defs><path id="k" d="M6.1 14h17.7v.2H6.1z"/></defs><clipPath id="l"><use xlink:href="#k" overflow="visible"/></clipPath><path clip-path="url(#l)" fill="#E9E9E9" d="M6.1 14h17.7v.2H6.1z"/></g></svg>