<svg xmlns="http://www.w3.org/2000/svg" xmlns:xlink="http://www.w3.org/1999/xlink" width="26.2" height="66.8" viewBox="0 0 26.2 66.8"><g opacity=".9"><defs><path id="a" d="M0 0h26.2v66.7H0z"/></defs><clipPath id="b"><use xlink:href="#a" overflow="visible"/></clipPath><path clip-path="url(#b)" fill="#E8E9E8" d="M25.7 64c-.7 0-11.3-1.6-11.3-8.9v-12s-.1-4.7 1.9-5.3c2-.6 9.8-9.3 9.7-17.6C25.8 11.8 22.9.4 22.9.3c-.1-.3-9.8-.3-9.8-.3S3.4 0 3.3.2C3.3.4.4 11.8.2 20.1c-.2 8.4 7.6 17 9.7 17.6 2 .6 1.9 5.3 1.9 5.3v12c0 7.3-10.6 8.9-11.3 8.9-.7.1-.5.7-.5.7.6 2.3 13.1 2.1 13.1 2.1s12.5.2 13.1-2.1c0 0 .2-.6-.5-.6"/></g><defs><path id="c" d="M13.9 37.6h2.4v17.3h-2.4z"/></defs><clipPath id="d"><use xlink:href="#c" overflow="visible"/></clipPath><path clip-path="url(#d)" fill="#E8E9E8" d="M14.4 54.9c-.2-1.5-.3-3-.3-4.5-.1-1.5-.1-3-.1-4.5v-2.2c0-.7 0-1.5.1-2.3.1-.8.3-1.5.6-2.2.3-.7.8-1.4 1.6-1.6v.1c-.7.2-1.1 1-1.4 1.6-.2.7-.4 1.4-.4 2.2-.1.7-.1 1.5-.1 2.2v11.2z"/><defs><path id="e" d="M9.8 37.6h2.4v17.3H9.8z"/></defs><clipPath id="f"><use xlink:href="#e" overflow="visible"/></clipPath><path clip-path="url(#f)" fill="#E8E9E8" d="M9.8 37.6c.8.2 1.3.9 1.6 1.6.3.7.5 1.5.6 2.2.1.8.1 1.5.1 2.3v2.2c0 1.5 0 3-.1 4.5l-.3 4.5h-.1V43.7c0-.7 0-1.5-.1-2.2-.1-.7-.2-1.5-.4-2.2-.2-.7-.6-1.4-1.3-1.7z"/><defs><path id="g" d="M.1 0h9.8v37.6H.1z"/></defs><clipPath id="h"><use xlink:href="#g" overflow="visible"/></clipPath><path clip-path="url(#h)" fill="#E8E9E8" d="M3.4 0c-.3 1.7-.6 3.4-.8 5.1-.3 1.7-.6 3.4-.8 5-.4 3.4-.9 6.8-.9 10.1s1.2 6.5 2.7 9.4c.8 1.5 1.7 2.9 2.7 4.3.5.7 1 1.3 1.6 2 .6.6 1.2 1.3 1.9 1.6v.1c-.8-.3-1.4-.9-2.1-1.5-.6-.6-1.2-1.2-1.7-1.9-1-1.3-2-2.7-2.9-4.2-1.7-3-3-6.3-3-9.7.1-3.4.5-6.8 1.1-10.2C1.8 6.7 2.5 3.3 3.4 0z"/><defs><path id="i" d="M16.3 0h9.8v37.6h-9.8z"/></defs><clipPath id="j"><use xlink:href="#i" overflow="visible"/></clipPath><path clip-path="url(#j)" fill="#E8E9E8" d="M16.3 37.5c.8-.4 1.3-1 1.9-1.6.6-.6 1.1-1.3 1.6-2 1-1.3 1.9-2.8 2.7-4.3 1.6-2.9 2.8-6.2 2.7-9.4 0-3.3-.5-6.7-.9-10.1-.2-1.7-.5-3.4-.8-5.1-.2-1.7-.5-3.4-.8-5.1h.1c.8 3.3 1.5 6.7 2.1 10 .6 3.4 1 6.8 1.1 10.2 0 3.5-1.3 6.8-3 9.7-.9 1.5-1.8 2.9-2.9 4.2-.5.7-1.1 1.3-1.7 1.9-.6.8-1.3 1.4-2.1 1.6z"/><defs><path id="k" d="M3.7.6h18.8V1H3.7z"/></defs><clipPath id="l"><use xlink:href="#k" overflow="visible"/></clipPath><path clip-path="url(#l)" fill="#B1B5B0" d="M3.7.6h18.8l-2.3.2-2.3.1c-1.6.1-3.1 0-4.7.1-1.6 0-3.1 0-4.7-.1L6.1.7 3.7.6z"/><defs><path id="m" d="M3.7.7h18.8v.4H3.7z"/></defs><clipPath id="n"><use xlink:href="#m" overflow="visible"/></clipPath><path clip-path="url(#n)" fill="#B1B5B0" d="M3.7.7h18.8l-2.3.2-2.4.1H8.4L6.1.9 3.7.7z"/><g><defs><path id="o" d="M10.1 37.1h5.8v.5h-5.8z"/></defs><clipPath id="p"><use xlink:href="#o" overflow="visible"/></clipPath><path clip-path="url(#p)" fill="#E8E9E8" d="M10.1 37.6c.9-.3 1.9-.4 2.9-.5.5 0 1 0 1.5.1s1 .2 1.4.4c-.5-.1-1-.1-1.4-.1h-1.4c-1 0-2 .1-3 .1"/></g><g><defs><path id="q" d="M10.3 36.1h5.8v1.2h-5.8z"/></defs><clipPath id="r"><use xlink:href="#q" overflow="visible"/></clipPath><path clip-path="url(#r)" fill="#E8E9E8" d="M10.3 37.2c.8-.7 1.9-1 2.9-1.2.5 0 1.1 0 1.6.2s1 .5 1.3 1c-.9-.6-1.8-.6-2.8-.5-1 .1-2 .4-3 .5"/></g><g><defs><path id="s" d="M11.6 38.3h3.1v.4h-3.1z"/></defs><clipPath id="t"><use xlink:href="#s" overflow="visible"/></clipPath><path clip-path="url(#t)" fill="#E8E9E8" d="M11.6 38.5c.5-.2 1-.2 1.5-.2s1 0 1.5.2c-.5.2-1 .2-1.5.2s-1 0-1.5-.2"/></g><g><defs><path id="u" d="M11.9 38.8h2.5v.4h-2.5z"/></defs><clipPath id="v"><use xlink:href="#u" overflow="visible"/></clipPath><path clip-path="url(#v)" fill="#E8E9E8" d="M11.9 39c.4-.2.8-.2 1.2-.2.4 0 .8 0 1.2.2-.4.2-.8.2-1.2.2-.4 0-.8 0-1.2-.2"/></g><g><defs><path id="w" d="M8.1 61.8h10v1.4h-10z"/></defs><clipPath id="x"><use xlink:href="#w" overflow="visible"/></clipPath><path clip-path="url(#x)" fill="#E8E9E8" d="M18.2 62.5c-.1.2-.2.2-.3.3-.1 0-.2.1-.3.1-.2.1-.4.1-.6.1-.4.1-.8.1-1.3.1-.8.1-1.7.1-2.5.1s-1.7 0-2.5-.1c-.4 0-.8-.1-1.3-.1-.2 0-.4-.1-.6-.1-.1 0-.2-.1-.3-.1-.1-.1-.2-.1-.3-.3 0-.2.2-.2.3-.3.1 0 .2-.1.3-.1.2-.1.4-.1.6-.1.4-.1.8-.1 1.3-.1.8-.1 1.7-.1 2.5-.1s1.7 0 2.5.1c.4 0 .8.1 1.3.1.2 0 .4.1.6.1.2.1.4.1.5.3l.1.1zm-.2 0c-.1-.2-.3-.2-.5-.3-.2 0-.4-.1-.6-.1-.4-.1-.9-.1-1.3-.1-.8-.1-1.7-.1-2.5-.1s-1.7 0-2.5.1c-.4 0-.8.1-1.2.1-.2 0-.4.1-.6.1-.2 0-.4.1-.5.2 0 .1.3.2.5.2.2.1.4.1.6.1.4.1.8.1 1.2.1.8.1 1.7.1 2.5.1s1.7 0 2.5-.1c.4 0 .8-.1 1.2-.1.2 0 .4-.1.6-.1.2 0 .4-.2.4-.2l.2.1z"/></g><g><defs><path id="y" d="M4.7 62.7h17.1v2.1H4.7z"/></defs><clipPath id="z"><use xlink:href="#y" overflow="visible"/></clipPath><path clip-path="url(#z)" fill="#E8E9E8" d="M21.8 63.8v.1l-.1.1-.1.1c-.1.1-.1.1-.2.1-.1.1-.2.1-.3.1-.2.1-.4.1-.6.1-.4.1-.7.1-1.1.2-.7.1-1.4.1-2.1.2-1.4.1-2.8.1-4.2.1-1.4 0-2.8-.1-4.2-.2-.7-.1-1.4-.1-2.1-.2-.4 0-.7-.1-1.1-.2-.2 0-.4-.1-.5-.1-.1 0-.2-.1-.3-.1 0 0-.1 0-.1-.1s-.1-.1-.1-.3v-.1c0-.1.1-.1.1-.1.1 0 .1-.1.1-.1.1 0 .2-.1.3-.1.2-.1.4-.1.5-.1.4-.1.8-.2 1.1-.2.7-.1 1.4-.1 2.1-.2 1.4-.1 2.8-.1 4.2-.1 1.4 0 2.8.1 4.2.2.7.1 1.4.1 2.1.2.3 0 .7.1 1 .2.2 0 .3.1.5.1.2.1.4.1.4.3l.5.1zm-.3-.1c-.1-.2-.3-.2-.4-.3-.2-.1-.3-.1-.5-.1-.3-.1-.7-.1-1-.2-.7-.1-1.4-.1-2.1-.2-1.4-.1-2.8-.1-4.2-.1-1.4 0-2.8.1-4.2.2-.7.1-1.4.1-2.1.2-.3 0-.7.1-1 .2-.2 0-.3.1-.5.1-.1 0-.3.2-.3.1v-.1h.1c.1 0 .1.1.2.1.2 0 .3.1.5.1.3.1.7.1 1 .1.7.1 1.4.1 2.1.2 1.4.1 2.8.1 4.2.1 1.4 0 2.8-.1 4.2-.2.7-.1 1.4-.1 2.1-.2.3 0 .7-.1 1-.2.2 0 .3-.1.5-.1.1 0 .1-.1.2-.1v.1c0 .1 0 0 0 0l.2.3z"/></g><g><defs><path id="A" d="M.8 64.7h24.8v2.1H.8z"/></defs><clipPath id="B"><use xlink:href="#A" overflow="visible"/></clipPath><path clip-path="url(#B)" fill="#E8E9E8" d="M25.5 64.7c0 .3-.3.5-.5.6-.2.1-.5.2-.7.3-.5.2-1 .4-1.5.5-1.1.2-2.1.3-3.2.4-2.1.2-4.3.2-6.4.2-2.1 0-4.3-.1-6.4-.2-1.1-.1-2.1-.2-3.2-.4-.5-.1-1-.3-1.5-.5-.3-.1-.5-.2-.7-.3-.2-.1-.5-.3-.5-.6-.1.3.2.3.5.4.2.1.5.1.8.2.5.1 1 .1 1.6.1 1 .2 2.1.3 3.1.4 2 .1 4.1.2 6.2.2 2.1 0 4.2-.1 6.3-.2 1-.1 2.1-.2 3.1-.4.5 0 1-.1 1.6-.1.3 0 .5-.1.8-.2.2-.1.5-.1.6-.4"/></g><g><defs><path id="C" d="M13.3 40.5h.5v15.1h-.5z"/></defs><clipPath id="D"><use xlink:href="#C" overflow="visible"/></clipPath><path clip-path="url(#D)" fill="#E8E9E8" d="M13.5 40.5c.2 2.5.2 5 .3 7.5 0 1.3 0 2.5-.1 3.8s-.1 2.5-.2 3.8c-.1-1.3-.2-2.5-.2-3.8s0-2.5-.1-3.8c.1-2.5.1-5 .3-7.5"/></g><path fill="#68111E" d="M1.2 19.5c-.2 8.4 7.1 17 9 17.6.3.1.6.3.8.6h4.4c.2-.3.5-.5.8-.6 1.9-.6 9.2-9.3 9-17.6 0-2.2-.3-4.6-.6-7H1.7c-.3 2.4-.5 4.8-.5 7"/><g opacity=".5"><defs><path id="E" d="M1.2 12.5h24v25.3h-24z"/></defs><clipPath id="F"><use xlink:href="#E" overflow="visible"/></clipPath><path clip-path="url(#F)" fill="#68111E" d="M10.8 37.1c-1.5-.6-7.4-9.3-7.2-17.6 0-2.2.2-4.6.5-7H1.8c-.3 2.4-.5 4.8-.6 7-.2 8.4 7.1 17 9 17.6.3.1.6.3.8.6h.4l-.6-.6M24.6 12.5h-2.2c.2 2.4.4 4.8.5 7 .1 8.4-5.7 17-7.2 17.6-.3.1-.5.3-.6.6h.4c.2-.3.5-.5.8-.6 1.9-.6 9.2-9.3 9-17.6-.2-2.2-.4-4.6-.7-7"/></g><g opacity=".25"><defs><path id="G" d="M14.9 3.1h5.7v31.4h-5.7z"/></defs><clipPath id="H"><use xlink:href="#G" overflow="visible"/></clipPath><path clip-path="url(#H)" fill="#E9E9E9" d="M17.5 3.1c1.2 2.5 1.9 5.2 2.4 7.9s.7 5.4.7 8.2c-.1 2.8-.4 5.5-1.3 8.2-.8 2.7-2.2 5.3-4.4 7.1.9-2.6 1.3-5.1 1.6-7.7.3-2.6.4-5.1.4-7.7l.1-7.9c.2-2.7.2-5.3.5-8.1"/></g></svg>