<svg xmlns="http://www.w3.org/2000/svg" xmlns:xlink="http://www.w3.org/1999/xlink" width="50.6" height="57.4" viewBox="0 0 50.6 57.4"><path fill="#465761" d="M1.2 53.1l2-22c0-11.3 9-20.4 21-20.4h1.7c11.9 0 21 9.1 21 20.4l2 22H1.2z"/><g opacity=".3"><defs><path id="a" d="M1.5 10.7h47.1v42.4H1.5z"/></defs><clipPath id="b"><use xlink:href="#a" overflow="visible"/></clipPath><g clip-path="url(#b)"><defs><path id="c" d="M1.5 10.7h22.4v42.4H1.5z"/></defs><clipPath id="d"><use xlink:href="#c" overflow="visible"/></clipPath><path clip-path="url(#d)" fill="#465761" d="M16.7 12.2c2.2-1 4.6-1.5 7.2-1.5h-.1c-11.7 0-20.5 9.1-20.5 20.4l-1.9 22h.7l1.9-22c.1-8.6 5.2-15.9 12.7-18.9"/></g><g clip-path="url(#b)"><defs><path id="e" d="M3.3 10.9h18v42.2h-18z"/></defs><clipPath id="f"><use xlink:href="#e" overflow="visible"/></clipPath><path clip-path="url(#f)" fill="#465761" d="M18.4 11.7c.9-.4 1.9-.7 2.9-.8-1.6.2-3.2.7-4.6 1.3-6.9 3-11.6 10.3-11.6 18.9l-1.8 22H4l1.8-22c0-9 5.1-16.6 12.6-19.4"/></g><g clip-path="url(#b)"><defs><path id="g" d="M26.2 10.7h22.4v42.4H26.2z"/></defs><clipPath id="h"><use xlink:href="#g" overflow="visible"/></clipPath><path clip-path="url(#h)" fill="#465761" d="M46.7 31.1c0-11.3-8.8-20.4-20.5-20.4h-.1c2.6 0 5 .5 7.2 1.5 7.6 3 12.6 10.3 12.6 18.9l1.9 22h.7l-1.8-22z"/></g><g clip-path="url(#b)"><defs><path id="i" d="M5.5 10.8h17.1v42.3H5.5z"/></defs><clipPath id="j"><use xlink:href="#i" overflow="visible"/></clipPath><path clip-path="url(#j)" fill="#465761" d="M21.1 11.1c.5-.1 1-.3 1.5-.3-1.4.2-2.8.5-4.1 1-6.8 2.7-11.4 10.3-11.4 19.3l-1.6 22h.7l1.6-22c0-9.8 5.5-18 13.3-20"/></g><g clip-path="url(#b)"><defs><path id="k" d="M28.7 10.9h18v42.2h-18z"/></defs><clipPath id="l"><use xlink:href="#k" overflow="visible"/></clipPath><path clip-path="url(#l)" fill="#465761" d="M33.4 12.2c-1.5-.6-3-1-4.6-1.3 1 .2 2 .5 2.9.8C39.2 14.4 44.4 22 44.4 31l1.8 22h.7l-1.8-22c-.1-8.5-4.8-15.8-11.7-18.8"/></g><g clip-path="url(#b)"><defs><path id="m" d="M8.6 10.7h14.8v42.4H8.6z"/></defs><clipPath id="n"><use xlink:href="#m" overflow="visible"/></clipPath><path clip-path="url(#n)" fill="#465761" d="M22.4 10.9c.3-.1.7-.2 1-.2-.8.1-1.6.2-2.4.4-6.5 2-11.2 10.1-11.2 19.9L8.5 53h.7l1.3-22c.1-10.1 5-18.4 11.9-20.1"/></g><g clip-path="url(#b)"><defs><path id="o" d="M27.5 10.8h17.1v42.3H27.5z"/></defs><clipPath id="p"><use xlink:href="#o" overflow="visible"/></clipPath><path clip-path="url(#p)" fill="#465761" d="M31.6 11.7c-1.3-.5-2.7-.8-4.1-1l1.5.3c7.8 2 13.3 10.1 13.3 19.9l1.6 22h.7l-1.6-22c0-8.8-4.6-16.4-11.4-19.2"/></g><g clip-path="url(#b)"><defs><path id="q" d="M26.6 10.7h14.8v42.4H26.6z"/></defs><clipPath id="r"><use xlink:href="#q" overflow="visible"/></clipPath><path clip-path="url(#r)" fill="#465761" d="M29 11.1c-.8-.2-1.6-.3-2.4-.4.4 0 .7.1 1 .2 6.9 1.6 11.8 10 11.8 20.1l1.3 22h.7l-1.3-22c.1-9.7-4.6-17.9-11.1-19.9"/></g><g clip-path="url(#b)"><defs><path id="s" d="M12.3 10.7H24v42.4H12.3z"/></defs><clipPath id="t"><use xlink:href="#s" overflow="visible"/></clipPath><path clip-path="url(#t)" fill="#465761" d="M23.4 10.9c.2-.1.4-.1.6-.2-.6 0-1.1.1-1.6.3-5.3 1.6-9 10-9 20.1l-1 22h.6l1-22c0-10.4 4-18.9 9.4-20.2"/></g><g clip-path="url(#b)"><defs><path id="u" d="M16.8 10.7h7.6v42.4h-7.6z"/></defs><clipPath id="v"><use xlink:href="#u" overflow="visible"/></clipPath><path clip-path="url(#v)" fill="#465761" d="M24 10.9c.1-.1.2-.2.4-.2-.3 0-.6.1-.9.2-3.5 1.3-6 9.9-6 20.2l-.7 22h.7l.7-22c-.1-10.2 2.4-18.7 5.8-20.2"/></g><g clip-path="url(#b)"><defs><path id="w" d="M26.1 10.7h11.7v42.4H26.1z"/></defs><clipPath id="x"><use xlink:href="#w" overflow="visible"/></clipPath><path clip-path="url(#x)" fill="#465761" d="M27.7 10.9c-.5-.1-1.1-.2-1.6-.3.2 0 .4.1.6.2 5.4 1.3 9.4 9.9 9.4 20.2l1 22h.7l-1-22c-.1-10.1-3.9-18.4-9.1-20.1"/></g><g clip-path="url(#b)"><defs><path id="y" d="M20.7 10.7h3.9v42.4h-3.9z"/></defs><clipPath id="z"><use xlink:href="#y" overflow="visible"/></clipPath><path clip-path="url(#z)" fill="#465761" d="M24.6 11v-.3c-.2 0-.4.1-.7.2-1.7 1.5-2.9 10-2.9 20.2l-.3 22h.7l.3-22c.1-10.1 1.2-18.5 2.9-20.1"/></g><g clip-path="url(#b)"><defs><path id="A" d="M25.7 10.7h7.6v42.4h-7.6z"/></defs><clipPath id="B"><use xlink:href="#A" overflow="visible"/></clipPath><path clip-path="url(#B)" fill="#465761" d="M26.6 10.9c-.3-.1-.6-.1-.9-.2.1 0 .2.1.4.2 3.4 1.5 5.9 10 5.9 20.2l.7 22h.7l-.7-22c-.1-10.4-2.6-18.9-6.1-20.2"/></g><g clip-path="url(#b)"><defs><path id="C" d="M25.4 10.7h3.9v42.4h-3.9z"/></defs><clipPath id="D"><use xlink:href="#C" overflow="visible"/></clipPath><path clip-path="url(#D)" fill="#465761" d="M26.1 10.9c-.2-.1-.4-.2-.7-.2v.3c1.7 1.7 2.9 10 2.9 20.1l.3 22h.7l-.3-22c0-10.2-1.2-18.7-2.9-20.2"/></g><g clip-path="url(#b)"><defs><path id="E" d="M24.7 10.7h.6v42.4h-.6z"/></defs><clipPath id="F"><use xlink:href="#E" overflow="visible"/></clipPath><path clip-path="url(#F)" fill="#465761" d="M25.3 10.9c-.1-.1-.2-.1-.3-.2-.1 0-.2.1-.3.2.1 1.4.2 9.9.2 20.2v22h.1v-22c.1-10.3.2-18.8.3-20.2"/></g><g clip-path="url(#b)"><defs><path id="G" d="M24.4 10.9h.6v42.2h-.6z"/></defs><clipPath id="H"><use xlink:href="#G" overflow="visible"/></clipPath><path clip-path="url(#H)" fill="#465761" d="M24.7 10.9l-.1.1c-.1 1.7-.2 10-.2 20.1v22h.6v-22c0-10.3-.1-18.8-.3-20.2"/></g><g clip-path="url(#b)"><defs><path id="I" d="M25.1 10.9h.6v42.2h-.6z"/></defs><clipPath id="J"><use xlink:href="#I" overflow="visible"/></clipPath><path clip-path="url(#J)" fill="#465761" d="M25.4 11l-.1-.1c-.1 1.4-.2 9.9-.2 20.2v22h.6v-22c0-10.1-.1-18.5-.3-20.1"/></g></g><path fill="none" stroke="#D6543B" stroke-width="1.363" stroke-linecap="round" stroke-miterlimit="10" d="M25 9.2V.7M25 9.2L23.5.8M25 9.2l-2.9-8M25 9.2l-4.2-7.4M25 9.2l-5.5-6.5M25 9.2l-6.5-5.5M25 9.2l-7.4-4.3M25 9.2l-8-2.9M25 9.2l-8.4-1.5M25 9.2h-8.5M25 9.2l-8.4 1.5M25 9.2l-8 2.9M25 9.2l-7.4 4.3M25 9.2l-6.5 5.5M25 9.2l-5.5 6.6M25 9.2l-4.2 7.4M25 9.2l-2.9 8M25 9.2l-1.5 8.4M25 9.2v8.5M25 9.2l1.5 8.4M25 9.2l2.9 8M25 9.2l4.3 7.4M25 9.2l5.5 6.6M25 9.2l6.6 5.5M25 9.2l7.4 4.3M25 9.2l8 2.9M25 9.2l8.4 1.5M25 9.2h8.6M25 9.2l8.4-1.5M25 9.2l8-2.9M25 9.2l7.4-4.3M25 9.2l6.6-5.5M25 9.2l5.5-6.5M25 9.2l4.3-7.4M25 9.2l2.9-8M25 9.2L26.5.8"/><path fill="#465761" d="M49.1 44.6H1.5c-.8 0-1.4.6-1.4 1.3V55.2c0 1.1 1 2 2.2 2h46.2c1.2 0 2.2-.9 2.2-2v-9.4c-.1-.6-.8-1.2-1.6-1.2"/><path fill="#465761" d="M1.1 56.4c0 .6-.3 1-.6 1s-.6-.5-.6-1V45.3c0-.6.3-1 .6-1s.6.5.6 1v11.1zm4.2-11.1c0-.6-.5-1-1.1-1-.6 0-1.1.5-1.1 1v11.1c0 .6.5 1 1.1 1 .6 0 1.1-.5 1.1-1V45.3zm4.7 0c0-.6-.5-1-1.1-1-.6 0-1.1.5-1.1 1v11.1c0 .6.5 1 1.1 1 .6 0 1.1-.5 1.1-1V45.3zm4.7 0c0-.6-.5-1-1.1-1-.6 0-1.1.5-1.1 1v11.1c0 .6.5 1 1.1 1 .6 0 1.1-.5 1.1-1V45.3zm4.7 0c0-.6-.5-1-1.1-1-.6 0-1.1.5-1.1 1v11.1c0 .6.5 1 1.1 1 .6 0 1.1-.5 1.1-1V45.3zm4.7 0c0-.6-.5-1-1.1-1-.6 0-1.1.5-1.1 1v11.1c0 .6.5 1 1.1 1 .6 0 1.1-.5 1.1-1V45.3zm4.7 0c0-.6-.5-1-1.1-1-.6 0-1.1.5-1.1 1v11.1c0 .6.5 1 1.1 1 .6 0 1.1-.5 1.1-1V45.3zm4.7 0c0-.6-.5-1-1.1-1-.6 0-1.1.5-1.1 1v11.1c0 .6.5 1 1.1 1 .6 0 1.1-.5 1.1-1V45.3zm4.7 0c0-.6-.5-1-1.1-1-.6 0-1.1.5-1.1 1v11.1c0 .6.5 1 1.1 1 .6 0 1.1-.5 1.1-1V45.3zm4.7 0c0-.6-.5-1-1.1-1-.6 0-1.1.5-1.1 1v11.1c0 .6.5 1 1.1 1 .6 0 1.1-.5 1.1-1V45.3zm4.7 0c0-.6-.5-1-1.1-1-.6 0-1.1.5-1.1 1v11.1c0 .6.5 1 1.1 1 .6 0 1.1-.5 1.1-1V45.3zm3 0c0-.6-.3-1-.6-1s-.6.5-.6 1v11.1c0 .6.3 1 .6 1s.6-.5.6-1V45.3z"/><g opacity=".5"><defs><path id="K" d="M0 44.3h50.3v13.1H0z"/></defs><clipPath id="L"><use xlink:href="#K" overflow="visible"/></clipPath><path clip-path="url(#L)" fill="#465761" d="M8.3 56.4V45.3c0-.5.4-.9.8-1h-.3c-.6 0-1.1.5-1.1 1v11.1c0 .6.5 1 1.1 1h.3c-.5-.1-.8-.5-.8-1M17.7 56.4V45.3c0-.5.4-.9.8-1h-.3c-.6 0-1.1.5-1.1 1v11.1c0 .6.5 1 1.1 1h.3c-.5-.1-.8-.5-.8-1M3.6 56.4V45.3c0-.5.4-.9.8-1h-.3c-.6 0-1.1.5-1.1 1v11.1c0 .6.5 1 1.1 1h.3c-.5-.1-.8-.5-.8-1M.6 56.4V45.3c0-.4.1-.7.3-.9-.1-.1-.2-.1-.3-.1-.3 0-.6.5-.6 1v11.1c0 .6.3 1 .6 1 .1 0 .2-.1.3-.1-.2-.2-.3-.5-.3-.9M22.4 56.4V45.3c0-.5.4-.9.8-1h-.3c-.6 0-1.1.5-1.1 1v11.1c0 .6.5 1 1.1 1h.3c-.5-.1-.8-.5-.8-1M13 56.4V45.3c0-.5.4-.9.8-1h-.3c-.6 0-1.1.5-1.1 1v11.1c0 .6.5 1 1.1 1h.3c-.5-.1-.8-.5-.8-1M27.1 56.4V45.3c0-.5.4-.9.8-1h-.3c-.6 0-1.1.5-1.1 1v11.1c0 .6.5 1 1.1 1h.3c-.5-.1-.8-.5-.8-1M41.2 56.4V45.3c0-.5.4-.9.8-1h-.3c-.6 0-1.1.5-1.1 1v11.1c0 .6.5 1 1.1 1h.3c-.4-.1-.8-.5-.8-1M50 56.4V45.3c0-.4.1-.7.3-.9-.1-.1-.2-.1-.3-.1-.3 0-.6.5-.6 1v11.1c0 .6.3 1 .6 1 .1 0 .2-.1.3-.1-.2-.2-.3-.5-.3-.9M45.9 56.4V45.3c0-.5.4-.9.8-1h-.3c-.6 0-1.1.5-1.1 1v11.1c0 .6.5 1 1.1 1h.3c-.4-.1-.8-.5-.8-1M36.5 56.4V45.3c0-.5.4-.9.8-1H37c-.6 0-1.1.5-1.1 1v11.1c0 .6.5 1 1.1 1h.3c-.4-.1-.8-.5-.8-1M31.8 56.4V45.3c0-.5.4-.9.8-1h-.3c-.6 0-1.1.5-1.1 1v11.1c0 .6.5 1 1.1 1h.3c-.5-.1-.8-.5-.8-1"/></g><defs><path id="M" d="M1.5 44.5h47.6v.7H1.5z"/></defs><clipPath id="N"><use xlink:href="#M" overflow="visible"/></clipPath><path clip-path="url(#N)" fill="#465761" d="M1.5 44.5h47.6v.1l-6 .3-5.9.2c-4 .1-7.9.1-11.9.1s-7.9 0-11.9-.1l-6-.2-5.9-.4z"/></svg>