<svg xmlns="http://www.w3.org/2000/svg" xmlns:xlink="http://www.w3.org/1999/xlink" width="30.2" height="57.8" viewBox="0 0 30.2 57.8"><path fill="#D3D2D2" d="M18.7 4.4c0 1.2-1.5 2.1-2.1 2.1h-3.4c-.6 0-2.1-1-2.1-2.1V2.1C11.1 1 12.6 0 13.2 0h3.4c.6 0 2.1 1 2.1 2.1v2.3z"/><path fill="#868484" d="M11.1 1.8h7.6v2h-7.6z"/><path fill="#231F20" d="M0 21.6h30.2v35.8H0z"/><path fill="#D3D2D2" d="M26.6 3.2c0 .6-.4 1-1 1h-21c-.6 0-1-.4-1-1s.4-1 1-1h20.9c.6 0 1.1.5 1.1 1"/><path fill="#9E7E64" d="M0 3.2h30.2v18.3H0z"/><defs><path id="a" d="M0 3.2h6.4v18.3H0z"/></defs><clipPath id="b"><use xlink:href="#a" overflow="visible"/></clipPath><path clip-path="url(#b)" fill="#EDE5D7" d="M0 3.2h6.4v18.3H0z"/><defs><path id="c" d="M23.9 3.2h6.4v18.3h-6.4z"/></defs><clipPath id="d"><use xlink:href="#c" overflow="visible"/></clipPath><path clip-path="url(#d)" fill="#EDE5D7" d="M23.9 3.2h6.4v18.3h-6.4z"/><g opacity=".3"><defs><path id="e" d="M14.7 3.2h4.9v18.3h-4.9z"/></defs><clipPath id="f"><use xlink:href="#e" overflow="visible"/></clipPath><path clip-path="url(#f)" fill="#EDE5D7" d="M14.7 3.2h4.9v18.3h-4.9z"/></g><g opacity=".83"><defs><path id="g" d="M14.7 21.6h4.9v35.8h-4.9z"/></defs><clipPath id="h"><use xlink:href="#g" overflow="visible"/></clipPath><path clip-path="url(#h)" fill="#D3D2D2" d="M14.7 21.6h4.9v35.8h-4.9z"/></g><g opacity=".5"><defs><path id="i" d="M0 21.6h6.4v35.8H0z"/></defs><clipPath id="j"><use xlink:href="#i" overflow="visible"/></clipPath><path clip-path="url(#j)" fill="#D3D2D2" d="M0 21.6h6.4v35.8H0z"/></g><g opacity=".5"><defs><path id="k" d="M23.9 21.6h6.4v35.8h-6.4z"/></defs><clipPath id="l"><use xlink:href="#k" overflow="visible"/></clipPath><path clip-path="url(#l)" fill="#D3D2D2" d="M23.9 21.6h6.4v35.8h-6.4z"/></g><defs><path id="m" d="M0 3.2h30.2v.4H0z"/></defs><clipPath id="n"><use xlink:href="#m" overflow="visible"/></clipPath><path clip-path="url(#n)" fill="#FAF5DC" d="M0 3.2h30.2l-3.8.2-3.8.1c-2.5.1-5 .1-7.6.1-2.5 0-5 0-7.6-.1l-3.6-.1L0 3.2z"/><g><defs><path id="o" d="M0 21.6h30.2v.4H0z"/></defs><clipPath id="p"><use xlink:href="#o" overflow="visible"/></clipPath><path clip-path="url(#p)" fill="#FAF5DC" d="M0 21.6h30.2l-3.8.2-3.8.1c-2.5.1-5 .1-7.6.1-2.5 0-5 0-7.6-.1l-3.8-.1-3.6-.2z"/></g><path fill="#231F20" d="M0 57.4h30.2l-3.8.2-3.8.1c-2.5.1-5 .1-7.6.1-2.5 0-5 0-7.6-.1l-3.8-.1-3.6-.2z"/><path fill="#FFF" d="M15.9 24h4.8v25.1h-4.8z"/><path fill="#A77C39" d="M10.2 24H15v7.6h-4.8z"/><path fill="#231F20" d="M14.2 10.3H16v5.1h-1.8z"/><path fill="#231F20" d="M12.6 12h5.1v1.8h-5.1z"/></svg>