<svg xmlns="http://www.w3.org/2000/svg" xmlns:xlink="http://www.w3.org/1999/xlink" width="53.9" height="57.2" viewBox="0 0 53.9 57.2"><path fill="#ECC57C" d="M32.3 51.8c0 3-2.4 5.4-5.4 5.4s-5.4-2.4-5.4-5.4c0-3 2.4-5.4 5.4-5.4s5.4 2.5 5.4 5.4"/><defs><path id="a" d="M21.6 46.5h10.7v7.2H21.6z"/></defs><clipPath id="b"><use xlink:href="#a" overflow="visible"/></clipPath><path clip-path="url(#b)" fill="#ECC57C" d="M27 50.1c2.3 0 4.3 1.5 5 3.5.2-.6.3-1.2.3-1.8 0-3-2.4-5.4-5.4-5.4s-5.4 2.4-5.4 5.4c0 .6.1 1.3.3 1.8.9-2 2.8-3.5 5.2-3.5"/><g opacity=".4"><defs><path id="c" d="M21.6 46.5H27v10.7h-5.4z"/></defs><clipPath id="d"><use xlink:href="#c" overflow="visible"/></clipPath><path clip-path="url(#d)" fill="#ECC57C" d="M23 51.8c0-3 1.8-5.4 3.9-5.4-3 0-5.4 2.4-5.4 5.4 0 3 2.4 5.4 5.4 5.4-2.1 0-3.9-2.4-3.9-5.4"/></g><g opacity=".4"><defs><path id="e" d="M27 46.5h5.4v10.7H27z"/></defs><clipPath id="f"><use xlink:href="#e" overflow="visible"/></clipPath><path clip-path="url(#f)" fill="#ECC57C" d="M27 46.5c2.2 0 3.9 2.4 3.9 5.4s-1.8 5.4-3.9 5.4c3 0 5.4-2.4 5.4-5.4s-2.5-5.4-5.4-5.4"/></g><g opacity=".2"><defs><path id="g" d="M23.1 46.5H27v10.7h-3.9z"/></defs><clipPath id="h"><use xlink:href="#g" overflow="visible"/></clipPath><path clip-path="url(#h)" fill="#ECC57C" d="M24.7 51.8c0-3 1-5.4 2.2-5.4-2.2 0-3.9 2.4-3.9 5.4 0 3 1.8 5.4 3.9 5.4-1.2 0-2.2-2.4-2.2-5.4"/></g><g opacity=".2"><defs><path id="i" d="M27 46.5h3.9v10.7H27z"/></defs><clipPath id="j"><use xlink:href="#i" overflow="visible"/></clipPath><path clip-path="url(#j)" fill="#ECC57C" d="M30.9 51.8c0-3-1.8-5.4-3.9-5.4 1.2 0 2.2 2.4 2.2 5.4 0 3-1 5.4-2.2 5.4 2.1 0 3.9-2.4 3.9-5.4"/></g><defs><path id="k" d="M22.7 49.1h3.2v3.2h-3.2z"/></defs><clipPath id="l"><use xlink:href="#k" overflow="visible"/></clipPath><path clip-path="url(#l)" fill="#ECC57C" d="M25.9 50.8c0 .9-.7 1.6-1.6 1.6-.9 0-1.6-.7-1.6-1.6s.7-1.6 1.6-1.6c.9-.1 1.6.7 1.6 1.6"/><path fill="#ECC57C" d="M50.8 43.9s-3.9-3.4-5-5.4c0 0-.5-1.2-1.3-1.2L40.4 17s-2-9.1-9.9-9.1h-7.1c-8.4 0-9.9 9.1-9.9 9.1L9.3 37.4c-.8 0-1.3 1.2-1.3 1.2C7 40.5 3 44 3 44c-2.6 1.1-3 6.7-3 6.7h53.9s-.4-5.6-3.1-6.8"/><defs><path id="m" d="M0 7.9h53.9v42.7H0z"/></defs><clipPath id="n"><use xlink:href="#m" overflow="visible"/></clipPath><g opacity=".5" clip-path="url(#n)"><defs><path id="o" d="M0 7.9h23.7v42.7H0z"/></defs><clipPath id="p"><use xlink:href="#o" overflow="visible"/></clipPath><path clip-path="url(#p)" fill="#ECC57C" d="M5.5 43.9S9 40.5 10 38.5c0 0 .5-1.2 1.2-1.2L14.8 17s1.4-9.1 8.9-9.1h-.4c-8.4 0-9.9 9.1-9.9 9.1L9.3 37.4c-.8 0-1.3 1.2-1.3 1.2C7 40.5 3 44 3 44c-2.6 1.1-3 6.7-3 6.7h2.7s.4-5.6 2.8-6.8"/></g><g opacity=".5" clip-path="url(#n)"><defs><path id="q" d="M30.2 7.9h23.7v42.7H30.2z"/></defs><clipPath id="r"><use xlink:href="#q" overflow="visible"/></clipPath><path clip-path="url(#r)" fill="#ECC57C" d="M50.8 43.9s-3.9-3.4-5-5.4c0 0-.5-1.2-1.3-1.2L40.4 17s-2-9.1-9.9-9.1h-.4C37.2 7.9 39 17 39 17l3.7 20.4c.7 0 1.2 1.2 1.2 1.2.9 1.9 4.5 5.4 4.5 5.4 2.4 1.2 2.8 6.8 2.8 6.8h2.7c0-.1-.4-5.7-3.1-6.9"/></g><g opacity=".3" clip-path="url(#n)"><defs><path id="s" d="M29.5 7.9h21.7v42.7H29.5z"/></defs><clipPath id="t"><use xlink:href="#s" overflow="visible"/></clipPath><path clip-path="url(#t)" fill="#ECC57C" d="M48.4 43.9s-3.5-3.4-4.5-5.4c0 0-.5-1.2-1.2-1.2L39.1 17s-1.8-9.1-8.9-9.1h-.7c5.6 0 7 9.1 7 9.1l2.9 20.4c.5 0 .9 1.2.9 1.2.7 1.9 3.5 5.4 3.5 5.4 1.9 1.2 2.2 6.8 2.2 6.8h5.3c-.1-.1-.4-5.7-2.9-6.9"/></g><g opacity=".3" clip-path="url(#n)"><defs><path id="u" d="M2.7 7.9h21.7v42.7H2.7z"/></defs><clipPath id="v"><use xlink:href="#u" overflow="visible"/></clipPath><path clip-path="url(#v)" fill="#ECC57C" d="M10.2 43.9s2.8-3.4 3.5-5.4c0 0 .4-1.2.9-1.2L17.5 17s1.1-9.1 7-9.1h-.7c-7.5 0-8.9 9.1-8.9 9.1l-3.7 20.4c-.7 0-1.2 1.2-1.2 1.2-.9 1.9-4.5 5.4-4.5 5.4-2.4 1.2-2.8 6.8-2.8 6.8H8c0-.1.3-5.7 2.2-6.9"/></g><circle fill="none" stroke="#ECC57C" stroke-width="1.096" stroke-miterlimit="10" cx="27" cy="4.2" r="3.6"/><g><defs><path id="w" d="M23.3 4.2h7.3v3.6h-7.3z"/></defs><clipPath id="x"><use xlink:href="#w" overflow="visible"/></clipPath><path clip-path="url(#x)" fill="#ECC57C" d="M27 7.3c-1.7 0-3.1-1.4-3.1-3.1h-.5c0 2 1.6 3.6 3.6 3.6s3.6-1.6 3.6-3.6H30c0 1.7-1.3 3.1-3 3.1"/></g><g><defs><path id="y" d="M23.3.5h7.3v3.6h-7.3z"/></defs><clipPath id="z"><use xlink:href="#y" overflow="visible"/></clipPath><path clip-path="url(#z)" fill="#ECC57C" d="M27 .5c-2 0-3.6 1.6-3.6 3.6h.5C23.9 2.4 25.3 1 27 1s3 1.5 3 3.2h.5c.1-2-1.5-3.7-3.5-3.7"/></g><g><defs><path id="A" d="M9.3 37.2h35.2v1.6H9.3z"/></defs><clipPath id="B"><use xlink:href="#A" overflow="visible"/></clipPath><path clip-path="url(#B)" fill="#ECC57C" d="M9.3 37.3l17.7-.1 17.6.1v.2c-2.9.5-5.9.9-8.8 1-2.9.2-5.9.3-8.8.3l-4.4-.1c-1.5-.1-2.9-.1-4.4-.2-2.9-.2-5.9-.5-8.8-1.1v-.1z"/></g><g><defs><path id="C" d="M3 44.3h47.9v1.1H3z"/></defs><clipPath id="D"><use xlink:href="#C" overflow="visible"/></clipPath><path clip-path="url(#D)" fill="#ECC57C" d="M3 44.3l24-.1 24 .1v.1c-2 .2-4 .3-6 .5l-6 .3c-4 .2-8 .1-12 .2-4-.1-8-.1-12-.2l-6-.3c-2-.2-4-.2-6-.5v-.1z"/></g><g><defs><path id="E" d="M0 50.4h53.9v.3H0z"/></defs><clipPath id="F"><use xlink:href="#E" overflow="visible"/></clipPath><path clip-path="url(#F)" fill="#ECC57C" d="M0 50.7l6.7-.2h6.8l13.5-.1 13.4.1h6.8l6.7.2H0"/></g><g><defs><path id="G" d="M9.9 9.4h13.4v41.3H9.9z"/></defs><clipPath id="H"><use xlink:href="#G" overflow="visible"/></clipPath><path clip-path="url(#H)" fill="#ECC57C" d="M23.3 9.4c-1.1.7-1.7 1.7-2.3 2.8-.5 1.1-.8 2.2-1.1 3.4-.2 1.2-.4 2.3-.5 3.6l-.4 3.6c-.6 4.9-1.4 9.9-2.4 14.8v.1c0 .2-.1.4-.2.5-.4.5-.7 1-1.1 1.5-.4.5-.7 1-1 1.5-.3.5-.6 1-.8 1.6-.2.5-.4 1.1-.5 1.5l-.5.9c.1-.1-.1 0-.1.1l-.2.2c-.1.2-.3.3-.4.6-.3.4-.5.9-.7 1.4-.4 1-.6 2.1-.8 3.2-.2-1.1-.3-2.3-.2-3.5.1-.6.2-1.2.4-1.8.1-.3.2-.6.4-.9.1-.1.2-.3.3-.4.1-.2.2-.3.5-.5l-.5.9c-.1-.9.1-1.6.2-2.3.2-.7.4-1.3.7-2l.9-1.8c.3-.6.6-1.2 1-1.8l-.3.6c.5-5 1.3-9.9 2.4-14.8.3-1.2.5-2.5.9-3.7.3-1.2.7-2.5 1.2-3.7.5-1.2 1.2-2.4 2-3.4.7-1.1 1.8-2 3.1-2.2"/></g><g opacity=".4"><defs><path id="I" d="M30.1 9.4h14.1v41.3H30.1z"/></defs><clipPath id="J"><use xlink:href="#I" overflow="visible"/></clipPath><path clip-path="url(#J)" fill="#ECC57C" d="M30.1 9.4c1.4-.1 2.8.7 3.9 1.7s2 2.2 2.6 3.4c.3.6.7 1.3.9 1.9.3.7.5 1.3.7 1.9.4 1.2.8 2.4 1.1 3.6 1.3 4.9 2.1 9.8 2.4 14.9l-.6-1.5c.4.7.7 1.3 1 2 .3.7.6 1.3.8 2 .2.7.4 1.5.6 2.3.1.8.3 1.7.1 2.8l-1.2-2c.3.2.3.2.4.3l.2.2.3.3c.2.2.3.4.4.6.2.4.3.8.4 1.1.2.7.2 1.4.2 2.1 0 .7-.1 1.3-.3 1.9l-.6 1.8c-.5-1.1-1-2.2-1.6-3.1-.3-.4-.6-.8-.9-1.1-.1-.1-.3-.2-.4-.3h-.2l.2.1c.1.1.3 0 .3-.1.1-.1 0-.2 0-.3l-1.5-1.6c-.1-.2-.3-.6-.6-1s-.6-.9-.9-1.3c-.3-.5-.7-.9-1.1-1.3-.4-.4-.8-.9-1.1-1.3-.2-.2-.3-.5-.4-.7l-.2-.8c-1.2-4.8-2-9.8-2.4-14.7-.1-1.2-.2-2.5-.2-3.7v-1.8c0-.6 0-1.1-.1-1.7-.1-1.1-.2-2.2-.5-3.4-.4-1.1-.7-2.3-1.7-3.2"/></g></svg>