<svg xmlns="http://www.w3.org/2000/svg" xmlns:xlink="http://www.w3.org/1999/xlink" width="52" height="47.8" viewBox="0 0 52 47.8"><path fill="#EDE6D8" d="M52 42.1c0 3.2-11.6 5.8-26 5.8S0 45.3 0 42.1s11.6-5.8 26-5.8 26 2.6 26 5.8"/><path fill="#DDBF9A" d="M2 39.9c0 2.9 10.8 5.3 24 5.3 13.3 0 24-2.4 24-5.3V19.1c0-2.9-10.8-5.3-24-5.3-13.3 0-24 2.4-24 5.3v20.8z"/><path fill="#B69C5B" d="M50 18.8c0 3.4-10.8 6.1-24 6.1S2 22.2 2 18.8s10.8-6.1 24-6.1 24 2.7 24 6.1"/><path fill="#9A1C1F" d="M26 35.8c-10.1 0-20.3-1.3-24-3.9v1.2C5.7 35.7 15.9 37 26 37s20.3-1.3 24-3.9v-1.2c-3.7 2.5-13.9 3.9-24 3.9"/><path fill="#E8E5D1" d="M26 35.5c14.6 0 23.7-2.6 24-4.5v-1.2c-.3 1.9-9.4 4.5-24 4.5S2.3 31.7 2 29.8V31c.3 1.9 9.4 4.5 24 4.5"/><path fill="#E8E5D1" d="M26 35.5c-14.6 0-23.7-2.6-24-4.5v.8c3.7 2.6 13.9 3.9 24 3.9s20.3-1.3 24-3.9V31c-.3 1.9-9.3 4.5-24 4.5"/><path fill="#EDE6D8" d="M12.3 23.9v5.3c0 .7.6 1.3 1.3 1.3.7 0 1.3-.6 1.3-1.3v-1.9c.1.1.3.2.5.2s.4-.1.6-.3v9.2c0 .4.3.7.7.7.4 0 .7-.3.7-.7V24.5c-1.9-.2-3.6-.4-5.1-.6"/><path fill="#EDE6D8" d="M48.1 18.6c0 3.7-10 6.6-22.4 6.6-12.4 0-22.4-3-22.4-6.6 0-3.7 10-6.6 22.4-6.6 12.4-.1 22.4 2.9 22.4 6.6"/><defs><path id="a" d="M8.9 18.9h1.4v1.6H8.9z"/></defs><clipPath id="b"><use xlink:href="#a" overflow="visible"/></clipPath><path clip-path="url(#b)" fill="#EDE6D8" d="M10.3 19.7c0 .4-.3.8-.7.8-.4 0-.7-.4-.7-.8s.3-.8.7-.8c.4 0 .7.4.7.8"/><defs><path id="c" d="M13.6 15.3H15v1.6h-1.4z"/></defs><clipPath id="d"><use xlink:href="#c" overflow="visible"/></clipPath><path clip-path="url(#d)" fill="#EDE6D8" d="M15 16.1c0 .4-.3.8-.7.8-.4 0-.7-.4-.7-.8s.3-.8.7-.8c.4 0 .7.3.7.8"/><defs><path id="e" d="M15.5 16.9h1.4v1.6h-1.4z"/></defs><clipPath id="f"><use xlink:href="#e" overflow="visible"/></clipPath><path clip-path="url(#f)" fill="#EDE6D8" d="M16.9 17.7c0 .4-.3.8-.7.8-.4 0-.7-.4-.7-.8s.3-.8.7-.8c.4 0 .7.3.7.8"/><defs><path id="g" d="M28.3 15.1h1.4v1.6h-1.4z"/></defs><clipPath id="h"><use xlink:href="#g" overflow="visible"/></clipPath><path clip-path="url(#h)" fill="#EDE6D8" d="M29.7 15.9c0 .4-.3.8-.7.8-.4 0-.7-.4-.7-.8s.3-.8.7-.8c.4 0 .7.3.7.8"/><defs><path id="i" d="M32.6 18.9H34v1.6h-1.4z"/></defs><clipPath id="j"><use xlink:href="#i" overflow="visible"/></clipPath><path clip-path="url(#j)" fill="#EDE6D8" d="M34 19.7c0 .4-.3.8-.7.8-.4 0-.7-.4-.7-.8s.3-.8.7-.8c.4 0 .7.4.7.8"/><defs><path id="k" d="M35.6 15.5H37v1.6h-1.4z"/></defs><clipPath id="l"><use xlink:href="#k" overflow="visible"/></clipPath><path clip-path="url(#l)" fill="#EDE6D8" d="M37 16.3c0 .4-.3.8-.7.8s-.7-.4-.7-.8.3-.8.7-.8.7.4.7.8"/><defs><path id="m" d="M40.3 18.1h1.4v1.6h-1.4z"/></defs><clipPath id="n"><use xlink:href="#m" overflow="visible"/></clipPath><path clip-path="url(#n)" fill="#EDE6D8" d="M41.7 18.9c0 .4-.3.8-.7.8-.4 0-.7-.4-.7-.8s.3-.8.7-.8c.4 0 .7.4.7.8"/><defs><path id="o" d="M25.7 22.3h.7v.9h-.7z"/></defs><clipPath id="p"><use xlink:href="#o" overflow="visible"/></clipPath><path clip-path="url(#p)" fill="#EDE6D8" d="M26.4 22.8c0 .2-.2.4-.4.4s-.4-.2-.4-.4.2-.4.4-.4c.3-.1.4.1.4.4"/><defs><path id="q" d="M13.3 19.1h.8v.9h-.8z"/></defs><clipPath id="r"><use xlink:href="#q" overflow="visible"/></clipPath><path clip-path="url(#r)" fill="#EDE6D8" d="M14 19.6c0 .2-.2.4-.4.4s-.4-.2-.4-.4.2-.4.4-.4c.2-.1.4.1.4.4"/><defs><path id="s" d="M21.3 16.7h.7v.9h-.7z"/></defs><clipPath id="t"><use xlink:href="#s" overflow="visible"/></clipPath><path clip-path="url(#t)" fill="#EDE6D8" d="M22 17.1c0 .2-.2.4-.4.4s-.4-.2-.4-.4.2-.4.4-.4.4.2.4.4"/><defs><path id="u" d="M39.7 14.4h.7v.9h-.7z"/></defs><clipPath id="v"><use xlink:href="#u" overflow="visible"/></clipPath><path clip-path="url(#v)" fill="#EDE6D8" d="M40.5 14.8c0 .2-.2.4-.4.4s-.4-.2-.4-.4.2-.4.4-.4.4.2.4.4"/><defs><path id="w" d="M43.9 17.2h.8v.9h-.8z"/></defs><clipPath id="x"><use xlink:href="#w" overflow="visible"/></clipPath><path clip-path="url(#x)" fill="#EDE6D8" d="M44.7 17.7c0 .2-.2.4-.4.4s-.4-.2-.4-.4.2-.4.4-.4c.2-.1.4.1.4.4"/><defs><path id="y" d="M37.4 21.1h.7v.9h-.7z"/></defs><clipPath id="z"><use xlink:href="#y" overflow="visible"/></clipPath><path clip-path="url(#z)" fill="#EDE6D8" d="M38.2 21.5c0 .2-.2.4-.4.4s-.4-.2-.4-.4.2-.4.4-.4.4.2.4.4"/><defs><path id="A" d="M36.8 18.6h.5v.6h-.5z"/></defs><clipPath id="B"><use xlink:href="#A" overflow="visible"/></clipPath><path clip-path="url(#B)" fill="#EDE6D8" d="M37.3 18.9c0 .2-.1.3-.3.3-.1 0-.3-.1-.3-.3s.1-.3.3-.3c.2 0 .3.2.3.3"/><defs><path id="C" d="M18.1 16.9h.5v.6h-.5z"/></defs><clipPath id="D"><use xlink:href="#C" overflow="visible"/></clipPath><path clip-path="url(#D)" fill="#EDE6D8" d="M18.6 17.2c0 .2-.1.3-.3.3s-.3-.1-.3-.3.1-.3.3-.3.3.2.3.3"/><defs><path id="E" d="M16.6 30.1h.5v.6h-.5z"/></defs><clipPath id="F"><use xlink:href="#E" overflow="visible"/></clipPath><path clip-path="url(#F)" fill="#EDE6D8" d="M17.1 30.4c0 .2-.1.3-.3.3s-.3-.1-.3-.3c0-.2.1-.3.3-.3s.3.1.3.3"/><defs><path id="G" d="M7 17.8h.5v.6H7z"/></defs><clipPath id="H"><use xlink:href="#G" overflow="visible"/></clipPath><path clip-path="url(#H)" fill="#EDE6D8" d="M7.5 18.1c0 .2-.1.3-.3.3s-.2-.1-.2-.3.1-.3.3-.3.2.2.2.3"/><defs><path id="I" d="M44.9 18.6h.5v.6h-.5z"/></defs><clipPath id="J"><use xlink:href="#I" overflow="visible"/></clipPath><path clip-path="url(#J)" fill="#EDE6D8" d="M45.5 18.9c0 .2-.1.3-.3.3s-.3-.1-.3-.3.1-.3.3-.3.3.2.3.3"/><defs><path id="K" d="M30.8 16.2h.8v.9h-.8z"/></defs><clipPath id="L"><use xlink:href="#K" overflow="visible"/></clipPath><path clip-path="url(#L)" fill="#EDE6D8" d="M31.6 16.7c0 .2-.2.4-.4.4s-.4-.2-.4-.4.2-.4.4-.4c.2-.1.4.1.4.4"/><defs><path id="M" d="M12.6 25.7h.6v.9h-.6z"/></defs><clipPath id="N"><use xlink:href="#M" overflow="visible"/></clipPath><path clip-path="url(#N)" fill="#EDE6D8" d="M13.3 26.1c0 .3-.1.5-.3.5-.2 0-.3-.2-.3-.5s.1-.5.3-.5c.1.1.3.3.3.5"/><defs><path id="O" d="M16.6 27.5h.6v.9h-.6z"/></defs><clipPath id="P"><use xlink:href="#O" overflow="visible"/></clipPath><path clip-path="url(#P)" fill="#EDE6D8" d="M17.2 28c0 .3-.1.5-.3.5-.2 0-.3-.2-.3-.5s.1-.5.3-.5c.1 0 .3.3.3.5"/><defs><path id="Q" d="M14.5 25.2h.6v.9h-.6z"/></defs><clipPath id="R"><use xlink:href="#Q" overflow="visible"/></clipPath><path clip-path="url(#R)" fill="#EDE6D8" d="M15.1 25.7c0 .3-.1.5-.3.5-.2 0-.3-.2-.3-.5s.1-.5.3-.5c.2 0 .3.2.3.5"/><path fill="#E9BBBD" d="M14.8 8.1h-3v1l3 1.7M11.8 15.1l3 1.7v-1l-3-1.6M14.8 11.8l-3-1.6v.9l3 1.7M11.8 12.2v.9l3 1.7v-1M11.8 18.1h3v-.3l-3-1.6"/><path fill="#C65F6F" d="M14.8 10.8l-3-1.7v1.1l3 1.6M14.8 12.8l-3-1.7v1.1l3 1.6M11.8 14.2l3 1.6v-1l-3-1.7M11.8 16.2l3 1.6v-1l-3-1.7"/><path fill="#DD9FA9" d="M14.8 8.1c0 .2-.7.4-1.5.4s-1.5-.2-1.5-.4.7-.4 1.5-.4 1.5.2 1.5.4"/><path fill="#E9BBBD" d="M14.8 18.1c0 .2-.7.4-1.5.4s-1.5-.2-1.5-.4.7-.4 1.5-.4 1.5.2 1.5.4"/><path fill="none" stroke="#231F20" stroke-width=".283" stroke-linecap="round" stroke-miterlimit="10" d="M13.3 8c.2-.1.1-.6.1-.8 0-.3-.2-.6-.2-.8"/><path fill="#EBD467" d="M13 6.2c-1.1-.4-1.1-1.1-.9-1.6.1-.3.3-.6.6-.9.3-.3.6-.7.7-1.1v-.3c.2.2.3.4.5.7.4.6.5 1.3.4 2.2 0 .5-.5 1-1 1H13z"/><path fill="#E5952E" d="M13.5 3.2s.1 0 0 0c.4.6.5 1.2.5 2 0 .3-.3.7-.7.7h-.1c-.9-.4-.8-.9-.7-1.2.1-.2.3-.5.5-.7.1-.3.4-.5.5-.8m-.8-1.9c.3.3.4.8.3 1.2-.2.8-1 1.2-1.2 2-.3 1 .3 1.7 1.2 2.1H13.3c.7 0 1.3-.7 1.4-1.3.1-.9-.1-1.6-.5-2.4-.2-.3-.4-.7-.7-.9-.1-.1-.3-.2-.4-.3-.1-.2-.3-.3-.4-.4"/><path fill="#E9BBBD" d="M39.7 8.1h-3v1l3 1.7M36.7 15.1l3 1.7v-1l-3-1.6M39.7 11.8l-3-1.6v.9l3 1.7M36.7 12.2v.9l3 1.7v-1M36.7 18.1h3v-.3l-3-1.6"/><path fill="#C65F6F" d="M39.7 10.8l-3-1.7v1.1l3 1.6M39.7 12.8l-3-1.7v1.1l3 1.6M36.7 14.2l3 1.6v-1l-3-1.7M36.7 16.2l3 1.6v-1l-3-1.7"/><path fill="#DD9FA9" d="M39.7 8.1c0 .2-.7.4-1.5.4s-1.5-.2-1.5-.4.7-.4 1.5-.4c.9.1 1.5.2 1.5.4"/><path fill="#E9BBBD" d="M39.7 18.1c0 .2-.7.4-1.5.4s-1.5-.2-1.5-.4.7-.4 1.5-.4c.9.1 1.5.2 1.5.4"/><path fill="none" stroke="#231F20" stroke-width=".283" stroke-linecap="round" stroke-miterlimit="10" d="M38.2 8c.2-.1.1-.6.1-.8 0-.3-.2-.6-.2-.8"/><path fill="#EBD467" d="M37.9 6.2c-1.1-.4-1.1-1.1-.9-1.6.1-.3.3-.6.6-.9.3-.3.6-.7.7-1.1v-.3c.2.2.3.4.5.7.4.6.5 1.3.4 2.2 0 .5-.5 1-1 1h-.3z"/><path fill="#E5952E" d="M38.4 3.2c.1 0 .1 0 0 0 .4.7.5 1.3.4 2.1 0 .3-.3.7-.7.7H38c-.9-.4-.8-.9-.7-1.2.1-.2.3-.5.5-.7.3-.4.5-.6.6-.9m-.8-1.9c.3.3.4.8.3 1.2-.2.8-1 1.2-1.2 2-.3 1 .3 1.7 1.2 2.1H38.2c.7 0 1.3-.7 1.4-1.3.1-.9-.1-1.6-.5-2.4-.2-.3-.4-.7-.7-.9-.1-.1-.3-.2-.4-.3-.1-.2-.3-.3-.4-.4"/><path fill="#E9BBBD" d="M25.1 11.8h-3v1l3 1.7M22.1 18.8l3 1.7v-1l-3-1.6M25.1 15.5l-3-1.6v.9l3 1.7M22.1 15.9v.9l3 1.7v-1M22.1 21.8h3v-.3l-3-1.6"/><path fill="#C65F6F" d="M25.1 14.5l-3-1.7v1.1l3 1.6M25.1 16.5l-3-1.7v1.1l3 1.6M22.1 17.9l3 1.6v-1l-3-1.7M22.1 19.9l3 1.6v-1l-3-1.7"/><path fill="#DD9FA9" d="M25.1 11.8c0 .2-.7.4-1.5.4s-1.5-.2-1.5-.4.7-.4 1.5-.4 1.5.2 1.5.4"/><path fill="#E9BBBD" d="M25.1 21.8c0 .2-.7.4-1.5.4s-1.5-.2-1.5-.4.7-.4 1.5-.4 1.5.2 1.5.4"/><path fill="none" stroke="#231F20" stroke-width=".283" stroke-linecap="round" stroke-miterlimit="10" d="M23.6 11.7c.2-.1.1-.6.1-.8 0-.3-.2-.6-.2-.8"/><path fill="#EBD467" d="M23.3 9.9c-1.1-.4-1.1-1.1-.9-1.6.1-.3.3-.5.6-.8.3-.3.6-.7.7-1.1v-.3c.2.2.3.4.5.7.4.6.5 1.3.4 2.2 0 .5-.5 1-1 1l-.3-.1z"/><path fill="#E5952E" d="M23.8 6.9s.1 0 0 0c.4.7.5 1.3.4 2.1 0 .3-.3.7-.7.7h-.1c-.9-.4-.8-.9-.7-1.2.1-.3.3-.5.6-.8.2-.2.4-.5.5-.8M23 5c.3.3.4.8.3 1.2-.2.8-1 1.2-1.2 2-.3 1 .3 1.7 1.2 2.1H23.6c.7 0 1.3-.7 1.4-1.3.1-.9-.1-1.6-.5-2.4-.2-.3-.4-.7-.7-.9-.1-.1-.3-.2-.4-.3L23 5"/><path fill="#E9BBBD" d="M28.4 6h-2.6v.9l2.6 1.4M25.8 12.2l2.6 1.4v-.8l-2.6-1.5M28.4 9.2l-2.6-1.4v.8l2.6 1.5M25.8 9.5v.9l2.6 1.4V11M25.8 14.8h2.6v-.3l-2.6-1.4"/><path fill="#C65F6F" d="M28.4 8.3l-2.6-1.4v.9l2.6 1.4M28.4 10.1l-2.6-1.5v.9l2.6 1.5M25.8 11.3l2.6 1.5v-1l-2.6-1.4M25.8 13.1l2.6 1.4v-.9l-2.6-1.4"/><path fill="#DD9FA9" d="M28.4 6c0 .2-.6.3-1.3.3s-1.3-.1-1.3-.3.6-.3 1.3-.3 1.3.1 1.3.3"/><path fill="#E9BBBD" d="M28.4 14.8c0 .2-.6.3-1.3.3s-1.3-.1-1.3-.3.6-.3 1.3-.3 1.3.1 1.3.3"/><path fill="none" stroke="#231F20" stroke-width=".249" stroke-linecap="round" stroke-miterlimit="10" d="M27.1 5.9c.2 0 .1-.6.1-.7-.1-.2-.2-.5-.2-.7"/><path fill="#EBD467" d="M26.9 4.3c-1-.4-.9-1-.8-1.4.1-.3.3-.5.5-.8.2-.3.5-.6.6-1V.9c.1.2.3.4.4.6.3.6.4 1.2.4 2 0 .4-.5.9-.9.9l-.2-.1z"/><path fill="#E5952E" d="M27.3 1.6c0 .1 0 .1 0 0 .3.6.4 1.1.4 1.8 0 .3-.3.6-.6.6H27c-.8-.3-.7-.8-.6-1 .1-.2.2-.4.4-.7.2-.2.4-.4.5-.7M26.6 0c.3.3.4.7.3 1.1-.2.7-.9 1.1-1.1 1.7-.3.9.2 1.5 1.1 1.8H27.2c.6 0 1.2-.6 1.2-1.2 0-.8-.1-1.4-.4-2.1-.2-.3-.4-.6-.6-.8-.1-.1-.2-.2-.4-.3-.2 0-.3-.2-.4-.2"/></svg>