<svg xmlns="http://www.w3.org/2000/svg" xmlns:xlink="http://www.w3.org/1999/xlink" width="81.1" height="34.3" viewBox="0 0 81.1 34.3"><path fill="#D3D2D2" d="M1.8 21.2V22.5c.4.4.4.3.4.3V21s0-.2-.4.2"/><path fill="#D6543B" d="M1.8 21.9v-.5c-.3.1-.6.3-.6.5s.2.4.6.5v-.5z"/><path fill="#A7A5A6" d="M.5 22.6v3s.2 1.8.6 1.9c.5 0 .9-1.2.9-2.3s-.7-3.1-.8-3.1c-.2 0-.6-.4-.7.5"/><path fill="#231F20" d="M2.5 25.8l1.2 1.5s.3-.3.5 0 .3.7.3.7H5s.4-1 1-.6 2.8.6 2.8.6l-3.4-5.4-2.9 3.2z"/><path fill="#231F20" d="M3.7 24.8s13.9 5 17.9 5H57l1.2-.8s.9 2.6 5.4 2.6 11.1-3.4 11.1-3.4l3.9-.5v-1l-2.9.2.5-4.7-4.2-5.4H8l-4.3 8z"/><path fill="#B52126" d="M75.3 13.5s-.9-1-2.2-2.4c-.4-.1-.9-.3-1.3-.7-.9-.9-4.3-6.3-4.3-6.3s-.1-.3.2-.5c-.1-.1-.1-.2-.2-.4 0 0-1.3-3.2-12-3.2S30.7-.6 27.3 1.5l-.9 1.2h1.5s1.1 0 .5.9-4.4 6.7-4.4 6.7-.9 1.2-2.2.5c-.4-.2-.9-.4-1.3-.5l-.5.6s-.4.7-2.9.9c-2.5.1-13.1.9-14.9 2.6v9.9l2 1.1H5c.5-3.4 3.8-6 7.8-6s7.3 2.6 7.8 6c0 0 .7 2.2 2.9 2.2h33.2s2.5.2 3.8-2.2c.5-3.4 3.6-6 7.5-6 3.8 0 7 2.6 7.5 6l1.3-.6 1.8-.8c-.1 0 1-5.1-3.3-10.5"/><path fill="none" stroke="#656263" stroke-width=".593" stroke-miterlimit="10" d="M5.2 25.4c.5-3.4 3.8-6 7.8-6s7.3 2.6 7.8 6c0 0 .7 2.2 2.9 2.2h33.2s2.5.2 3.8-2.2c.5-3.4 3.6-6 7.5-6 3.8 0 7 2.6 7.5 6"/><path fill="none" stroke="#D3D2D2" stroke-width=".445" stroke-miterlimit="10" d="M5.2 25.4c.5-3.4 3.8-6 7.8-6s7.3 2.6 7.8 6c0 0 .7 2.2 2.9 2.2h33.2s2.5.2 3.8-2.2c.5-3.4 3.6-6 7.5-6 3.8 0 7 2.6 7.5 6"/><path fill="#DCEFF6" d="M23.9 10.3s3.9-5.8 4.4-6.7-.5-.9-.5-.9h-1.5l-6 7.7c.4.1.8.3 1.3.5 1.4.6 2.3-.6 2.3-.6"/><path fill="none" stroke="#68111E" stroke-width=".296" stroke-linecap="round" stroke-miterlimit="10" d="M20.4 10.3c.4.1.8.3 1.3.5 1.3.7 2.2-.5 2.2-.5s3.9-5.8 4.4-6.7c.6-.9-.5-.9-.5-.9h-1.5"/><path fill="#DCEFF6" d="M67.6 4.1s3.5 5.3 4.3 6.3c.4.4.9.6 1.3.7-1.9-2.1-4.4-5.3-5.4-7.4-.3.2-.2.4-.2.4"/><path fill="none" stroke="#68111E" stroke-width=".296" stroke-linecap="round" stroke-miterlimit="10" d="M67.8 3.7c-.3.2-.2.5-.2.5s3.5 5.3 4.3 6.3c.4.4.9.6 1.3.7"/><path fill="#4F4C4D" d="M19.5 28.1c0 3.7-3 5.9-6.7 5.9s-6.7-2.3-6.7-5.9 3-6.7 6.7-6.7 6.7 3 6.7 6.7"/><g opacity=".4"><defs><path id="a" d="M8 28h9.6v4.6H8z"/></defs><clipPath id="b"><use xlink:href="#a" overflow="visible"/></clipPath><path clip-path="url(#b)" fill="#959394" d="M8 28.2c.2 2.5 2.3 4.5 4.8 4.5 2.6 0 4.7-2.1 4.8-4.6-1.1.9-2.9 1.5-4.9 1.5-1.9-.1-3.6-.6-4.7-1.4"/></g><g opacity=".4"><defs><path id="c" d="M7.9 23h9.7v6.5H7.9z"/></defs><clipPath id="d"><use xlink:href="#c" overflow="visible"/></clipPath><path clip-path="url(#d)" fill="#615E5E" d="M12.8 23C10.1 23 8 25.2 8 27.9v.3c1.1.8 2.8 1.3 4.7 1.3 2 0 3.8-.6 4.9-1.5v-.2c0-2.6-2.2-4.8-4.8-4.8"/></g><path fill="#F4F4F4" d="M8.8 28c0-2.2 1.8-4 4-4s4 1.8 4 4-1.8 4-4 4-4-1.8-4-4"/><path fill="#DEDDDE" d="M15.5 28.1c0 1.5-1.2 2.7-2.7 2.7-1.5 0-2.7-1.2-2.7-2.7-.1-.1-.2-.1-.2-.1v.1c0 1.6 1.3 2.9 2.9 2.9 1.6 0 2.9-1.3 2.9-2.9V28c-.1 0-.2 0-.2.1z"/><path fill="#BDBCBC" d="M12.8 24.6c-1.8 0-3.3 1.5-3.4 3.3.1 0 .2.1.3.1 0-1.7 1.4-3.1 3.1-3.1 1.7 0 3.1 1.4 3.1 3.1.1 0 .2-.1.3-.1-.1-1.9-1.6-3.3-3.4-3.3"/><path fill="#DEDDDE" d="M10.1 28.1c0-1.5 1.2-2.6 2.6-2.6 1.5 0 2.6 1.2 2.6 2.6 0 1.5-1.2 2.6-2.6 2.6-1.4 0-2.6-1.1-2.6-2.6"/><circle fill="none" stroke="#656263" stroke-width=".07" stroke-miterlimit="10" cx="12.8" cy="28.1" r="2.6"/><path fill="#F2F1F2" d="M11 27.9c0-1 .8-1.8 1.8-1.8s1.8.8 1.8 1.8c.1 0 .1 0 .2.1v-.1c0-1.1-.9-2-2-2s-2 .9-2 2v.1c0-.1.1-.1.2-.1"/><path fill="#BDBCBC" d="M12.8 30.3c1.3 0 2.3-1 2.3-2.2-.1 0-.1 0-.2-.1 0 1.2-1 2.1-2.1 2.1-1.2 0-2.1-1-2.1-2.1-.1 0-.1 0-.2.1 0 1.2 1 2.2 2.3 2.2"/><path fill="#EBEBEB" d="M11.3 27.8v.3c0 .8.7 1.5 1.5 1.5s1.5-.7 1.5-1.5v-.3c-.3.3-.9.4-1.5.4-.6.1-1.1-.1-1.5-.4"/><path fill="#918F90" d="M12.8 26.6c-.7 0-1.3.5-1.5 1.2.3.3.9.4 1.5.4s1.1-.2 1.5-.4c-.2-.7-.8-1.2-1.5-1.2"/><path fill="#322F30" d="M12.8 25.7s0 .1 0 0c-.1.1-.2.1-.2 0 .1-.1.1-.1.2 0 0-.1 0-.1 0 0M10.7 26.8s.1.1 0 .1c0 0-.1.1-.1 0 0 0-.1-.1 0-.1h.1M10.6 29.2h.1v.1h-.1v-.1M12.7 30.5s0-.1 0 0c.1-.1.2-.1.2 0s-.1.1-.2 0c0 .1 0 .1 0 0M14.8 29.4s-.1-.1 0-.1c0 0 .1-.1.1 0 0 0 .1.1 0 .1h-.1M14.9 27h-.1v-.1h.1c.1 0 0 .1 0 .1"/><path fill="#4F4C4D" d="M74.7 28.4c0 3.7-3 5.9-6.7 5.9s-6.7-2.3-6.7-5.9c0-3.7 3-6.7 6.7-6.7s6.7 3 6.7 6.7"/><g opacity=".4"><defs><path id="e" d="M63.2 28.4h9.6V33h-9.6z"/></defs><clipPath id="f"><use xlink:href="#e" overflow="visible"/></clipPath><path clip-path="url(#f)" fill="#959394" d="M63.2 28.5C63.3 31 65.4 33 68 33c2.6 0 4.7-2.1 4.8-4.6-1.1.9-2.9 1.5-4.9 1.5-1.9-.1-3.6-.6-4.7-1.4"/></g><g opacity=".4"><defs><path id="g" d="M63.1 23.4h9.7v6.5h-9.7z"/></defs><clipPath id="h"><use xlink:href="#g" overflow="visible"/></clipPath><path clip-path="url(#h)" fill="#615E5E" d="M68 23.4c-2.7 0-4.8 2.2-4.8 4.8v.3c1.1.8 2.8 1.3 4.7 1.3 2 0 3.8-.6 4.9-1.5v-.2c0-2.6-2.2-4.7-4.8-4.7"/></g><path fill="#F4F4F4" d="M64 28.4c0-2.2 1.8-4 4-4s4 1.8 4 4-1.8 4-4 4-4-1.8-4-4"/><path fill="#DEDDDE" d="M70.7 28.4c0 1.5-1.2 2.7-2.7 2.7-1.5 0-2.7-1.2-2.7-2.7-.1 0-.2-.1-.3-.1v.1c0 1.6 1.3 2.9 2.9 2.9 1.6 0 2.9-1.3 2.9-2.9v-.1c0 .1-.1.1-.1.1"/><path fill="#BDBCBC" d="M68 24.9c-1.8 0-3.3 1.5-3.4 3.3.1 0 .2.1.3.1 0-1.7 1.4-3.1 3.1-3.1 1.7 0 3.1 1.4 3.1 3.1.1 0 .2-.1.3-.1-.1-1.8-1.6-3.3-3.4-3.3"/><path fill="#DEDDDE" d="M65.3 28.5c0-1.5 1.2-2.6 2.6-2.6 1.5 0 2.6 1.2 2.6 2.6 0 1.5-1.2 2.6-2.6 2.6-1.4 0-2.6-1.2-2.6-2.6"/><circle fill="none" stroke="#656263" stroke-width=".07" stroke-miterlimit="10" cx="68" cy="28.5" r="2.6"/><path fill="#F2F1F2" d="M66.2 28.2c0-1 .8-1.8 1.8-1.8s1.8.8 1.8 1.8c.1 0 .1 0 .2.1v-.1c0-1.1-.9-2-2-2s-2 .9-2 2v.1s.1 0 .2-.1"/><path fill="#BDBCBC" d="M68 30.7c1.3 0 2.3-1 2.3-2.2-.1 0-.1 0-.2-.1 0 1.2-1 2.1-2.1 2.1-1.2 0-2.1-1-2.1-2.1-.1 0-.1 0-.2.1 0 1.1 1 2.2 2.3 2.2"/><path fill="#EBEBEB" d="M66.5 28.2v.3c0 .8.7 1.5 1.5 1.5s1.5-.7 1.5-1.5v-.3c-.3.3-.9.4-1.5.4s-1.1-.2-1.5-.4"/><path fill="#918F90" d="M68 27c-.7 0-1.3.5-1.5 1.2.3.3.9.4 1.5.4s1.1-.2 1.5-.4c-.2-.7-.8-1.2-1.5-1.2"/><path fill="#322F30" d="M68 26c0 .1 0 .1 0 0-.1.1-.2.1-.2 0s.1-.1.2 0c0-.1 0 0 0 0M65.9 27.2s.1.1 0 .1-.1.1-.1 0c0 0-.1-.1 0-.1 0-.1.1-.1.1 0M65.8 29.6h.1v.1h-.1v-.1M67.9 30.9c0-.1 0-.1 0 0 .1-.1.2-.1.2 0s-.1.1-.2 0c0 .1 0 0 0 0M70 29.7s-.1-.1 0-.1c0 0 .1-.1.1 0 0 0 .1.1 0 .1 0 .1-.1.1-.1 0M70.1 27.3H70v-.1h.1c.1 0 0 .1 0 .1"/><defs><path id="i" d="M4.3 13.8h68.5v2.5H4.3z"/></defs><clipPath id="j"><use xlink:href="#i" overflow="visible"/></clipPath><path clip-path="url(#j)" fill="#D3D2D2" d="M4.3 16.3c1.5-.3 2.9-.5 4.4-.7 1.5-.2 3-.3 4.5-.5l2.2-.2c.7-.1 1.5-.1 2.2-.1h2.2l2.2.1c4.2-.1 8.4-.1 12.7-.3l12.7-.4 12.7-.2c4.2-.1 8.4-.2 12.7-.2-4.2.2-8.4.3-12.6.4l-12.7.3-12.7.2c-4.2.1-8.4.2-12.7.4l-2.2-.1h-2.2c-.7 0-1.5 0-2.2.1l-2.2.1c-1.5.1-3 .3-4.5.4-1.5.4-3 .5-4.5.7z"/><path fill="#D3D2D2" d="M2.2 14.4v5.4s-.9-.1-.9-.8v-3.4c-.1-.1-.2-.4.9-1.2"/><path fill="#F0EFEF" d="M1.2 15.6h.9v.9h-.9z"/><path fill="#D3D2D2" d="M4.3 24.5v1s.1.4-2.2.4c0 0-2.2 0-2.2-.7 0-.8 1.5-1.3 2.9-1.3 1.4.1 1.5.6 1.5.6"/><path fill="#A7A5A6" d="M80.6 22.4v3s-.2 1.8-.6 1.9c-.4.1-.8-1.1-.8-2.2s.7-3.1.8-3.1c.1-.1.5-.6.6.4"/><path fill="#D3D2D2" d="M75.5 24.2v1s-.1.4 2.8.4c0 0 2.8 0 2.8-.7 0-.8-2-1.3-3.8-1.3-1.7.2-1.8.6-1.8.6"/><path fill="#DCEFF6" d="M25.2 12.2h21.4l-.3-7.4s0-1.8-1.7-1.8H32.4s-1.4-.1-3.3 3-3.9 6.2-3.9 6.2M48 4.9v5.8s0 1.4 2.4 1.4h15.3s2-.3.6-2.7c-1.4-2.4-2.5-4.1-2.5-4.1s-.6-1.8-3-1.9C58.3 3.3 50 3 50 3s-2-.1-2 1.9"/><path fill="#918F90" d="M32.3 3.1h12.3c1.5 0 1.6 1.6 1.6 1.7l.3 7.2h-21c.5-.8 2.2-3.3 3.7-6 1.7-2.8 3-2.9 3.1-2.9m0-.1c-.2 0-1.5.1-3.2 3-1.9 3.1-3.9 6.2-3.9 6.2h21.4l-.3-7.4s0-1.8-1.7-1.8H32.3c.1 0 0 0 0 0M49.9 3.1c.1 0 8.4.3 10.8.4 2.3.1 2.9 1.7 2.9 1.8 0 0 1.1 1.7 2.5 4.1.5.8.6 1.5.4 1.9-.2.5-.8.6-.8.6H50.4c-.9 0-1.6-.2-2-.6-.3-.3-.3-.7-.3-.7V4.9c0-1.7 1.4-1.8 1.8-1.8m0-.1c-.3 0-1.9.1-1.9 1.9v5.8s0 1.4 2.4 1.4h15.3s2-.3.6-2.7c-1.4-2.4-2.5-4.1-2.5-4.1s-.6-1.8-3-1.9C58.3 3.3 50 3 49.9 3c.1 0 0 0 0 0"/><defs><path id="k" d="M30.1 2.2h36.7v.3H30.1z"/></defs><clipPath id="l"><use xlink:href="#k" overflow="visible"/></clipPath><path clip-path="url(#l)" fill="none" stroke="#4F4C4D" stroke-width=".291" stroke-linecap="round" stroke-miterlimit="10" d="M30.3 2.4h36.4"/><defs><path id="m" d="M17.8 1.8h12.4v19H17.8z"/></defs><clipPath id="n"><use xlink:href="#m" overflow="visible"/></clipPath><path clip-path="url(#n)" fill="none" stroke="#4F4C4D" stroke-width=".291" stroke-linecap="round" stroke-miterlimit="10" d="M26.9 2s3.1 0 3.1.5c0 .6-12.1 18.2-12.1 18.2"/><path fill="none" stroke="#D3D2D2" stroke-width=".148" stroke-linecap="round" stroke-miterlimit="10" d="M26.8 1.9s3.5-.1 3.4.5-12.3 18.5-12.3 18.5"/><defs><path id="o" d="M23.3 2.2h25.8v25.3H23.3z"/></defs><clipPath id="p"><use xlink:href="#o" overflow="visible"/></clipPath><path clip-path="url(#p)" fill="none" stroke="#656263" stroke-width=".295" stroke-linecap="round" stroke-miterlimit="10" d="M43.2 2.4H45s2.2.2 2.2 2.6v7.2l1.5 2.4s.3.5.3 1.1v8.7s.3 2.8-2.4 2.8c-2.7 0-22.8.3-22.8.3l-.3-11s-.1-2.5 1-4C25.5 10.9 30 4 30 4s.7-1.6 3.2-1.6h10z"/><g opacity=".5"><defs><path id="q" d="M27.6 3h18.7v9.2H27.6z"/></defs><clipPath id="r"><use xlink:href="#q" overflow="visible"/></clipPath><path clip-path="url(#r)" fill="#282324" d="M44.6 3H32.4s-1.4-.1-3.3 3c-.5.8-1 1.7-1.5 2.4l.2-.1S29.2 5 32 5h9.5S44 4.8 44 7.5v4.6h1.3V7.2s.1-1.2 1.1-1.8v-.6c-.1 0-.1-1.8-1.8-1.8"/></g><g opacity=".5"><defs><path id="s" d="M48 3h18.8v9.2H48z"/></defs><clipPath id="t"><use xlink:href="#s" overflow="visible"/></clipPath><path clip-path="url(#t)" fill="#282324" d="M66.3 9.4c-1.4-2.4-2.5-4.2-2.5-4.2s-.6-1.8-3-1.9C58.3 3.3 50 3 50 3s-2-.1-2 1.9v.2c2.4 0 6.2.3 6.2.3s5-.3 6.3 2.9c1 2.4 1.4 3.5 1.5 3.9h3.7s2-.3.6-2.8"/></g><path fill="#89273B" d="M77.6 20.9c0 .8.1 2 .1 2s0 .4.4.4h.8s.3-1.4-.1-3.2h-1.3c0 .4.1.6.1.8"/><path fill="#D7573F" d="M76.9 17.6s-.4 0-.1.7c.2.5.5 1.3.7 2h1.3c-.2-.8-.5-1.8-1-2.6h-.9z"/><path fill="none" stroke="#D3D2D2" stroke-width=".148" stroke-linecap="round" stroke-miterlimit="10" d="M77.7 17.6h-.8s-.4 0-.1.7c.2.5.5 1.3.7 2 .1.3.1.5.1.8 0 .8.1 2 .1 2s.1.4.4.4h.8"/><path fill="#D3D2D2" d="M42.8 16.3s.6-.4 2.4-.4h2.3s1 .2.1.7c-.9.5-1.6-.3-1.6-.3s-2.4-.2-3.2.2v-.2z"/><g><defs><path id="u" d="M64.7 2.2h12.5v21.2H64.7z"/></defs><clipPath id="v"><use xlink:href="#u" overflow="visible"/></clipPath><path clip-path="url(#v)" fill="none" stroke="#656263" stroke-width=".295" stroke-linecap="round" stroke-miterlimit="10" d="M64.8 2.4s.9.2 1.6 1.6c.6 1.4 4.4 7.7 4.4 7.7s5.5 4.8 6.2 11.7"/></g><path fill="none" stroke="#D3D2D2" stroke-width=".148" stroke-linecap="round" stroke-miterlimit="10" d="M30.3 2.2h36.4"/></svg>