<svg xmlns="http://www.w3.org/2000/svg" xmlns:xlink="http://www.w3.org/1999/xlink" width="51.2" height="73.4" viewBox="0 0 51.2 73.4"><path fill="#918F90" d="M18.1 51.5v1.8c0 .6-.5 1.1-1.1 1.1h-1.5c-.6 0-1.1-.5-1.1-1.1v-1.8h3.7z"/><path fill="#676465" d="M16.9 51.5v1.8c0 .6-.1 1.1-.3 1.1h-.5c-.2 0-.3-.5-.3-1.1v-1.8h1.1z"/><path fill="#918F90" d="M14.5 51v-1.8c0-.6.5-1.1 1.1-1.1h1.5c.6 0 1.1.5 1.1 1.1V51h-3.7z"/><path fill="#676465" d="M15.7 51v-1.8c0-.6.1-1.1.3-1.1h.5c.2 0 .3.5.3 1.1V51h-1.1zM28.1 51c0 1.5-1.3 2.8-2.8 2.8H7.4c-1.5 0-2.8-1.3-2.8-2.8h23.5z"/><path fill="#DCDBDB" d="M15.8 21.5h1v27.1h-1z"/><path fill="#989696" d="M16.2 21.5h.2v27.1h-.2z"/><path fill="#DCDBDB" d="M18.1 14.1c0 .5-.4 1-1 1h-1.6c-.5 0-1-.4-1-1s.4-1 1-1h1.6c.6 0 1 .4 1 1"/><defs><path id="a" d="M14.6 13.1h3.6V15h-3.6z"/></defs><clipPath id="b"><use xlink:href="#a" overflow="visible"/></clipPath><g opacity=".6" clip-path="url(#b)"><defs><path id="c" d="M17.1 13.1h1.1V15h-1.1z"/></defs><clipPath id="d"><use xlink:href="#c" overflow="visible"/></clipPath><path clip-path="url(#d)" fill="#DCDBDB" d="M17.2 13.1h-.1c.5 0 .8.4.8 1s-.4 1-.8 1h.1c.5 0 1-.4 1-1s-.5-1-1-1"/></g><g opacity=".6" clip-path="url(#b)"><defs><path id="e" d="M14.6 13.1h1.1V15h-1.1z"/></defs><clipPath id="f"><use xlink:href="#e" overflow="visible"/></clipPath><path clip-path="url(#f)" fill="#DCDBDB" d="M14.8 14.1c0-.5.4-1 .8-1h-.1c-.5 0-1 .4-1 1s.4 1 1 1h.1c-.4-.1-.8-.5-.8-1"/></g><g opacity=".3" clip-path="url(#b)"><defs><path id="g" d="M14.8 13.1h1V15h-1z"/></defs><clipPath id="h"><use xlink:href="#g" overflow="visible"/></clipPath><path clip-path="url(#h)" fill="#DCDBDB" d="M15.3 14.1c0-.5.3-1 .6-1h-.2c-.5 0-.8.4-.8 1s.4 1 .8 1h.2c-.4-.1-.6-.5-.6-1"/></g><g opacity=".3" clip-path="url(#b)"><defs><path id="i" d="M16.9 13.1h1V15h-1z"/></defs><clipPath id="j"><use xlink:href="#i" overflow="visible"/></clipPath><path clip-path="url(#j)" fill="#DCDBDB" d="M17.9 14.1c0-.5-.4-1-.8-1h-.2c.3 0 .6.4.6 1s-.3 1-.6 1h.2c.4-.1.8-.5.8-1"/></g><path fill="#DCDBDB" d="M15.8 6.1h1v7h-1z"/><path fill="#989696" d="M16.2 6.1h.2v7h-.2zM16.6 14.1c0 .5-.1 1-.1 1h-.2c-.1 0-.1-.4-.1-1s.1-1 .1-1h.2c.1 0 .1.4.1 1"/><path fill="#B4B3B3" d="M22.6 13.8H10c-2.8 0-5 2.3-5 5h22.6c.1-2.7-2.2-5-5-5"/><defs><path id="k" d="M14.8 13.8h3.1v5h-3.1z"/></defs><clipPath id="l"><use xlink:href="#k" overflow="visible"/></clipPath><path clip-path="url(#l)" fill="#656263" d="M14.8 13.8h3.1v5h-3.1z"/><path fill="#706D6E" d="M2.6 21.5v-.7c0-1 .8-1.9 1.9-1.9h24.1c1 0 1.9.8 1.9 1.9v.7H2.6z"/><path fill="#B4B3B3" d="M3.7 21.5v-.6c0-.8.8-1.4 1.7-1.4h22.2c.9 0 1.7.6 1.7 1.4v.6H3.7z"/><g opacity=".6"><defs><path id="m" d="M2.6 18.9h2.7v2.6H2.6z"/></defs><clipPath id="n"><use xlink:href="#m" overflow="visible"/></clipPath><path clip-path="url(#n)" fill="#706D6E" d="M5.4 18.9h-.9c-1 0-1.9.8-1.9 1.9v.7h1v-.7c0-1.1.8-1.9 1.8-1.9"/></g><g opacity=".6"><defs><path id="o" d="M27.7 18.9h2.7v2.6h-2.7z"/></defs><clipPath id="p"><use xlink:href="#o" overflow="visible"/></clipPath><path clip-path="url(#p)" fill="#706D6E" d="M28.6 18.9h-.9c.9 0 1.7.8 1.7 1.9v.7h1v-.7c0-1.1-.8-1.9-1.8-1.9"/></g><g opacity=".4"><defs><path id="q" d="M3.6 18.9h3.5v2.6H3.6z"/></defs><clipPath id="r"><use xlink:href="#q" overflow="visible"/></clipPath><path clip-path="url(#r)" fill="#706D6E" d="M7.1 18.9H5.4c-.9 0-1.7.8-1.7 1.9v.7h2v-.7c-.1-1.1.6-1.9 1.4-1.9"/></g><g opacity=".4"><defs><path id="s" d="M25.9 18.9h3.5v2.6h-3.5z"/></defs><clipPath id="t"><use xlink:href="#s" overflow="visible"/></clipPath><path clip-path="url(#t)" fill="#706D6E" d="M27.7 18.9H26c.8 0 1.4.8 1.4 1.9v.7h2v-.7c0-1.1-.8-1.9-1.7-1.9"/></g><g opacity=".6"><defs><path id="u" d="M5 13.8h5.7v5H5z"/></defs><clipPath id="v"><use xlink:href="#u" overflow="visible"/></clipPath><path clip-path="url(#v)" fill="#706D6E" d="M10.7 13.8h-.6c-2.8 0-5 2.3-5 5h1.1c-.1-2.7 2-5 4.5-5"/></g><g opacity=".6"><defs><path id="w" d="M22 13.8h5.7v5H22z"/></defs><clipPath id="x"><use xlink:href="#w" overflow="visible"/></clipPath><path clip-path="url(#x)" fill="#706D6E" d="M22.6 13.8H22c2.5 0 4.5 2.3 4.5 5h1.1c.1-2.7-2.2-5-5-5"/></g><g opacity=".4"><defs><path id="y" d="M6.1 13.8h5.7v5H6.1z"/></defs><clipPath id="z"><use xlink:href="#y" overflow="visible"/></clipPath><path clip-path="url(#z)" fill="#706D6E" d="M11.8 13.8h-1.2c-2.5 0-4.5 2.3-4.5 5h2.1c0-2.7 1.6-5 3.6-5"/></g><g opacity=".4"><defs><path id="A" d="M20.9 13.8h5.7v5h-5.7z"/></defs><clipPath id="B"><use xlink:href="#A" overflow="visible"/></clipPath><path clip-path="url(#B)" fill="#706D6E" d="M22 13.8h-1.2c2 0 3.6 2.3 3.6 5h2.1c.1-2.7-2-5-4.5-5"/></g><defs><path id="C" d="M14.6 18.9h3.6v2.6h-3.6z"/></defs><clipPath id="D"><use xlink:href="#C" overflow="visible"/></clipPath><path clip-path="url(#D)" fill="#656263" d="M14.6 18.9h3.6v2.6h-3.6z"/><path fill="#231F20" d="M16.5 69.4s-4.2 0-6.6 2.9c-.1.1-.6 1.1-1.7 1.1h-2c1.1 0 1.7-1 1.7-1.1 0 0 1.7-3.3 8.7-3.3"/><path fill="#4B4748" d="M16.5 69.4s-4.6 0-7 2.9c-.1.1-.6 1.1-1.7 1.1h-2c1.1 0 1.7-1 1.7-1.1 0 0 2-3.3 9-3.3"/><path fill="#231F20" d="M16.5 69.4s4.2 0 6.6 2.9c.1.1.6 1.1 1.7 1.1h2c-1.1 0-1.7-1-1.7-1.1 0 0-1.7-3.3-8.7-3.3"/><path fill="#4B4748" d="M16.5 69.4s4.6 0 7 2.9c.1.1.6 1.1 1.7 1.1h2c-1.1 0-1.7-1-1.7-1.1 0 0-2-3.3-9-3.3"/><g opacity=".5"><defs><path id="E" d="M9.3 33.3h1.6v34.6H9.3z"/></defs><clipPath id="F"><use xlink:href="#E" overflow="visible"/></clipPath><path clip-path="url(#F)" fill="#5A5758" d="M9.3 33.3h1.6v34.6H9.3z"/></g><g opacity=".5"><defs><path id="G" d="M22.1 33.3h1.6v34.6h-1.6z"/></defs><clipPath id="H"><use xlink:href="#G" overflow="visible"/></clipPath><path clip-path="url(#H)" fill="#5A5758" d="M22.1 33.3h1.6v34.6h-1.6z"/></g><g opacity=".3"><defs><path id="I" d="M4.4 21.2h24.3V69H4.4z"/></defs><clipPath id="J"><use xlink:href="#I" overflow="visible"/></clipPath><path clip-path="url(#J)" fill="#F2F1F2" d="M4.4 21.2v45.6c0 1.2 1 2.2 2.2 2.2h19.9c1.2 0 2.2-1 2.2-2.2V21.2H4.4z"/></g><path fill="#7B7979" d="M8 33.3h2v34.6H8z"/><path fill="#918F90" d="M3.7 28.9h3.8v4.4H3.7z"/><path fill="#D3D2D2" d="M25.5 28.9h3.8v4.4h-3.8zM27.4 57h1.9v4.4h-1.9z"/><path fill="#BDBCBC" d="M7.5 28.9h4.9v4.4H7.5zM16.5 28.9h9v4.4h-9z"/><path fill="#656263" d="M12.5 28.9h4.1v4.4h-4.1z"/><path fill="#918F90" d="M29.3 32.7h3.2v.7h-3.2z"/><path fill="#D3D2D2" d="M29.3 28.9h3.2v.7h-3.2z"/><path fill="#BDBCBC" d="M29.3 31.8h3.2v.9h-3.2zM29.3 29.5h3.2v1.6h-3.2z"/><path fill="#656263" d="M29.3 31.1h3.2v.7h-3.2z"/><path fill="#918F90" d="M29.3 60.7h3.2v.7h-3.2z"/><path fill="#D3D2D2" d="M29.3 57h3.2v.7h-3.2z"/><path fill="#BDBCBC" d="M29.3 59.9h3.2v.9h-3.2zM29.3 57.6h3.2v1.6h-3.2z"/><path fill="#656263" d="M29.3 59.2h3.2v.7h-3.2z"/><path fill="none" stroke="#231F20" stroke-width="4.239" stroke-miterlimit="10" d="M32.5 31.1h2.6c7.8 0 14 6.3 14 14 0 7.8-6.3 14-14 14h-2.6"/><path fill="#231F20" d="M32.5 28.7H35c1.3 0 2.4 1.1 2.4 2.4 0 1.3-1.1 2.4-2.4 2.4h-2.5v-4.8z"/><path fill="#7B7979" d="M35 28.7h-.4c1.3 0 2.4 1.1 2.4 2.4 0 1.3-1.1 2.4-2.4 2.4h.4c1.3 0 2.4-1.1 2.4-2.4 0-1.3-1.1-2.4-2.4-2.4"/><path fill="#7B7979" d="M36 31.1c0 .8-.6 1.4-1.4 1.4-.8 0-1.4-.6-1.4-1.4 0-.8.6-1.4 1.4-1.4.8 0 1.4.6 1.4 1.4"/><path fill="#A5A3A3" d="M34.7 29.7h-.1c.7.1 1.2.7 1.2 1.4s-.5 1.3-1.2 1.4h.1c.8 0 1.4-.6 1.4-1.4-.1-.8-.7-1.4-1.4-1.4"/><path fill="#BDBCBC" d="M7.5 32.5h2v35.4h-2z"/><path fill="#7B7979" d="M23 33.3h2v34.6h-2z"/><path fill="#BDBCBC" d="M23.5 32.5h2v35.4h-2z"/><path fill="#7B7979" d="M8.4 73.4c-1.1 0-1.2-1.1-1.2-1.3 0-.2 0-1 1.1-1.4s1.6-2.8 1.6-2.8H8s-.5 2.4-1.6 2.8c-1.1.4-1.1 1.3-1.1 1.4 0 .2 0 1.3 1.2 1.3h1.9z"/><path fill="#BDBCBC" d="M8 73.4c-1.1 0-1.2-1.1-1.2-1.3 0-.2 0-1 1.1-1.4 1.1-.4 1.6-2.8 1.6-2.8h-2s-.5 2.4-1.6 2.8-1.2 1.3-1.2 1.4c0 .2 0 1.3 1.2 1.3H8z"/><path fill="#7B7979" d="M24.6 73.4c1.1 0 1.2-1.1 1.2-1.3 0-.2 0-1-1.1-1.4S23 67.9 23 67.9h2s.5 2.4 1.6 2.8c1.1.4 1.1 1.3 1.1 1.4 0 .2 0 1.3-1.2 1.3h-1.9z"/><path fill="#BDBCBC" d="M25.1 73.4c1.1 0 1.2-1.1 1.2-1.3 0-.2 0-1-1.1-1.4-1.1-.4-1.6-2.8-1.6-2.8h2s.5 2.4 1.6 2.8 1.1 1.3 1.1 1.4c0 .2 0 1.3-1.2 1.3h-2z"/><g opacity=".3"><defs><path id="K" d="M0 21.9h4.4v6.2H0z"/></defs><clipPath id="L"><use xlink:href="#K" overflow="visible"/></clipPath><path clip-path="url(#L)" fill="#F2F1F2" d="M4.4 21.9s-3.9 2-4.2 2.7c-.3.7 0 .9.4.9s3.9.7 3.9 2.6v-6.2z"/></g><g opacity=".3"><defs><path id="M" d="M.6 22.2h3.7v5.7H.6z"/></defs><clipPath id="N"><use xlink:href="#M" overflow="visible"/></clipPath><path clip-path="url(#N)" fill="#F2F1F2" d="M4.4 22.2S1 24 .8 24.7c-.3.6 0 .8.3.8s3.3.6 3.3 2.4v-5.7z"/></g><path fill="#5A5758" d="M20.3 3c0 1.7-1.8 3.2-3.9 3.2-2.2 0-3.9-1.4-3.9-3.2v-.8C12.5.5 14.3 0 16.4 0c2.2 0 3.9.5 3.9 2.2V3z"/><path fill="#302C2D" d="M13 3v-.8C13 .5 14.5 0 16.4 0c-2.2 0-3.9.5-3.9 2.2V3c0 1.7 1.8 3.2 3.9 3.2C14.5 6.1 13 4.7 13 3M16.4 0c1.8 0 3.3.5 3.3 2.2V3c0 1.7-1.5 3.2-3.3 3.2 2.2 0 3.9-1.4 3.9-3.2v-.8C20.3.5 18.5 0 16.4 0"/><path fill="#423E3F" d="M14.4 3v-.8c0-1.7.9-2.2 2-2.2-1.9 0-3.4.5-3.4 2.2V3c0 1.7 1.5 3.2 3.3 3.2-1-.1-1.9-1.5-1.9-3.2M19.7 3v-.8C19.7.5 18.2 0 16.4 0c1.1 0 2 .5 2 2.2V3c0 1.7-.9 3.2-2 3.2 1.8-.1 3.3-1.5 3.3-3.2"/></svg>