<svg xmlns="http://www.w3.org/2000/svg" xmlns:xlink="http://www.w3.org/1999/xlink" width="50.8" height="64.4" viewBox="0 0 50.8 64.4"><path fill="#C82257" d="M37.8 34.1s13-1.5 12.9 10.3c0 11.7-6.8 15.3-11.7 15.3-4.9 0-11.9-5.6-11.8-11.2.1-5.6.5-15 10.6-14.4"/><defs><path id="a" d="M27.3 39.7h23.4v20H27.3z"/></defs><clipPath id="b"><use xlink:href="#a" overflow="visible"/></clipPath><path clip-path="url(#b)" fill="#C82257" d="M49.9 39.7c.2.8.3 1.8.3 2.8-.2 11.8-6.9 15.4-11.8 15.4-3.9 0-9.2-3.6-11.1-7.9 1 5.1 7.2 9.7 11.6 9.7 4.9 0 11.7-3.5 11.8-15.3 0-1.9-.3-3.4-.8-4.7"/><defs><path id="c" d="M31.5 36.8h11.4v3.1H31.5z"/></defs><clipPath id="d"><use xlink:href="#c" overflow="visible"/></clipPath><path clip-path="url(#d)" fill="#C82257" d="M42.9 38.4s-3.1-.4-4.7.1-6.8 1.3-6.8 1.3 5.3-5.8 11.5-1.4"/><defs><path id="e" d="M44.3 40.4h2.8v4h-2.8z"/></defs><clipPath id="f"><use xlink:href="#e" overflow="visible"/></clipPath><path clip-path="url(#f)" fill="#C82257" d="M46.9 41.9c.4 1.1.2 2.2-.5 2.4-.7.3-1.5-.4-1.9-1.5-.4-1.1-.2-2.2.5-2.4.6-.2 1.5.4 1.9 1.5"/><path fill="none" stroke="#A0A96A" stroke-width=".915" stroke-miterlimit="10" d="M22.8 5.2S27.7 19.4 30 23c2.3 3.7 7.2 12.8 7.3 15.7"/><path fill="#C82257" d="M10.6 38.8s13-1.5 12.9 10.3c-.1 11.8-6.9 15.3-11.8 15.3C6.9 64.4-.1 58.8 0 53.2c.1-5.6.5-15 10.6-14.4"/><g><defs><path id="g" d="M.1 44.4h23.4v20H.1z"/></defs><clipPath id="h"><use xlink:href="#g" overflow="visible"/></clipPath><path clip-path="url(#h)" fill="#C82257" d="M22.7 44.4c.2.8.3 1.8.3 2.8-.2 11.8-6.9 15.3-11.9 15.3-3.9 0-9.2-3.6-11.1-7.9 1 5.1 7.2 9.7 11.6 9.7 4.9 0 11.7-3.5 11.8-15.3.1-1.8-.2-3.4-.7-4.6"/></g><g><defs><path id="i" d="M4.7 41.1h10.6v5H4.7z"/></defs><clipPath id="j"><use xlink:href="#i" overflow="visible"/></clipPath><path clip-path="url(#j)" fill="#C82257" d="M15.4 41.6s-3.1.5-4.5 1.4c-1.4.9-6.2 3.1-6.2 3.1s3.5-7.1 10.7-4.5"/></g><g><defs><path id="k" d="M11.8 46.1h3.7v4h-3.7z"/></defs><clipPath id="l"><use xlink:href="#k" overflow="visible"/></clipPath><path clip-path="url(#l)" fill="#C82257" d="M15 49c-.6 1-1.8 1.3-2.6.8s-.9-1.7-.3-2.7c.6-1 1.8-1.3 2.6-.8.9.6 1 1.8.3 2.7"/></g><path fill="#A0A96A" d="M9.7 43.6s.4-.6 1.1-1.6c.4-.5.8-1.2 1.3-1.9s1-1.6 1.6-2.4c2.5-3.5 5.6-8.3 7.7-13.6.3-.7.5-1.3.7-2 .2-.7.5-1.3.6-2 .2-.7.4-1.3.5-2 .1-.7.2-1.3.3-2 .1-1.3.1-2.6 0-3.8-.1-1.2-.2-2.4-.4-3.4-.1-.5-.2-1-.2-1.5s-.1-.9-.2-1.4c-.1-.9-.3-1.6-.6-2.1-.2-.6-.6-.9-.9-1-.3-.1-.5.1-.5.1s.1-.2.5-.2.9.3 1.2.9c.4.5.7 1.3 1 2.1.3.8.6 1.8.7 2.9.2 1.1.3 2.3.4 3.5.1 1.2.1 2.6 0 4l-.3 2.1c-.1.7-.3 1.4-.5 2.1l-.6 2.1c-.2.7-.5 1.4-.8 2-2.2 5.4-5.3 10.3-7.9 13.8-.3.4-.6.9-.9 1.3-.3.4-.6.7-.9 1.1-.6.7-1.1 1.2-1.5 1.7-.9.7-1.4 1.2-1.4 1.2"/><path fill="#5E411A" d="M18.1 2.2s0-2.9 2.2-2.1C22.4 1 23.6 6 23.6 6s-1.5.2-5.5-3.8"/></svg>