<svg xmlns="http://www.w3.org/2000/svg" xmlns:xlink="http://www.w3.org/1999/xlink" width="39.5" height="79.3" viewBox="0 0 39.5 79.3"><path fill="#DEDDDE" d="M37.9 73.8h-.5s-.6.1-.6-.6.2-.8.6-1.4c.3-.6.6-1.2.6-1.7s-.5-1.9-1.5-2.6c-1-.8-4.2-3.3-4.2-3.3s-2-1.3-2-2.9c0 0 0-.8.5-1.3 0 0 .1-.3.1-.6v-.9H8.6v.9c0 .3.1.6.1.6.5.5.5 1.3.5 1.3 0 1.5-2 2.9-2 2.9S4 66.6 3 67.3c-1 .8-1.5 2.1-1.5 2.6s.3 1.1.6 1.7c.3.6.6.7.6 1.4s-.6.6-.6.6h-.5C0 73.8 0 75.2 0 75.2v4.1h39.6v-4.1c-.1 0-.1-1.4-1.7-1.4"/><defs><path id="a" d="M0 58.5h11.8v20.8H0z"/></defs><clipPath id="b"><use xlink:href="#a" overflow="visible"/></clipPath><path clip-path="url(#b)" fill="#DEDDDE" d="M6 73.8h.4s.4.1.4-.6-.2-.8-.4-1.4c-.2-.7-.4-1.3-.4-1.8s.4-1.9 1.1-2.6c.7-.8 3.2-3.3 3.2-3.3s1.5-1.3 1.5-2.9c0 0 0-.8-.4-1.3 0 0-.1-.3-.1-.6v-.9H8.6v.9c0 .3.1.6.1.6.5.5.5 1.3.5 1.3 0 1.5-2 2.9-2 2.9S4 66.6 3 67.3c-1 .8-1.5 2.1-1.5 2.6s.3 1.1.6 1.7c.3.6.6.7.6 1.4s-.6.6-.6.6h-.5C0 73.8 0 75.2 0 75.2v4.1h4.8v-4.1s0-1.4 1.2-1.4"/><defs><path id="c" d="M27.7 58.5h11.8v20.8H27.7z"/></defs><clipPath id="d"><use xlink:href="#c" overflow="visible"/></clipPath><path clip-path="url(#d)" fill="#DEDDDE" d="M37.9 73.8h-.5s-.6.1-.6-.6.2-.8.6-1.4c.3-.6.6-1.2.6-1.7s-.5-1.9-1.5-2.6c-1-.8-4.2-3.3-4.2-3.3s-2-1.3-2-2.9c0 0 0-.8.5-1.3 0 0 .1-.3.1-.6v-.9h-2.7v.9c0 .3-.1.6-.1.6-.4.5-.4 1.3-.4 1.3 0 1.5 1.5 2.9 1.5 2.9s2.5 2.5 3.2 3.3c.7.8 1.1 2.1 1.1 2.6s-.2 1.1-.5 1.7c-.2.6-.4.7-.4 1.4s.4.6.4.6h.4c1.2 0 1.2 1.4 1.2 1.4v4.1h4.8v-4.1c.1 0 .1-1.4-1.5-1.4"/><defs><path id="e" d="M10 59h19.6v1.7H10z"/></defs><clipPath id="f"><use xlink:href="#e" overflow="visible"/></clipPath><path clip-path="url(#f)" fill="#918F90" d="M10 59.1l9.8-.1c4.9 0 9.8.1 9.8.1v.2s-1.2.5-3.1.8c-.5.1-1 .2-1.5.2-.5.1-1.1.2-1.7.2-.6 0-1.2.1-1.8.1h-3.6c-.6 0-1.2-.1-1.8-.1-1.1-.1-2.1-.2-3.1-.4-1.8-.3-3.1-.8-3.1-.8v-.2z"/><defs><path id="g" d="M4.2 70.3h31.4v.7H4.2z"/></defs><clipPath id="h"><use xlink:href="#g" overflow="visible"/></clipPath><path clip-path="url(#h)" fill="#918F90" d="M4.2 70.9s.5-.1 1.3-.1c.9 0 2.1-.2 3.6-.2s3.2-.2 5-.2c1.8 0 3.8 0 5.8-.1 2 0 3.9.1 5.8.1 1.8 0 3.6.1 5 .2 1.5.1 2.7.2 3.6.2.9.1 1.4.1 1.4.1v.1H20c-8 0-15.8 0-15.8-.1z"/><defs><path id="i" d="M4.8 73.1h30.3v.3H4.8z"/></defs><clipPath id="j"><use xlink:href="#i" overflow="visible"/></clipPath><path clip-path="url(#j)" fill="#918F90" d="M4.8 73.4h1.3c.8 0 2-.1 3.4-.1 2.8 0 6.6-.1 10.4-.1 3.8 0 7.6.1 10.4.1 1.4 0 2.6.1 3.4.1H35 4.8z"/><path fill="#F2F1F2" d="M35.7 72.2c0 .2-.2.4-.4.4H4.2c-.2 0-.4-.2-.4-.4s.2-.4.4-.4h31.1c.2.1.4.2.4.4"/><path fill="#DEDDDE" d="M19.8 59.2H8.7s-6.2-.5-6.2-7.7c0 0 .1-4.3 3.1-8 2.9-3.6 11.7-13.8 11.7-13.8s1.2-1.4 1.2-2.7c0 0 0-.5-.9-.5l-5.5 1.6s-1.4.4-2.3 1.8c-.9 1.4-1.3 1.9-1.3 1.9S7.6 33 6.7 33s-1.8-.9-1.8-1.7l.1-.8-1.3.1s-.9.1-1.3-.8c-.5-.8-1.1-1.8-.9-3.3.1-1.5.4-3.1.4-3.7 0-.6 0-1.8 1.4-2.3s2.6-1.1 4-2.5S20.7 5.4 20.7 5.4l.7-.6s.4-.3.4-1.2V1.9S21.9 0 23.5 0C25 0 38.1.8 38.1 13.3c0 12.6-.6 13.5-2.6 20.5-1.9 7-2.6 9.3 1.4 16 0 0 4.1 9.3-7.5 9.3h-9.6z"/><path fill="#A7A5A6" d="M14.5 15.4s-.5-2 .7-2.5 2.8-.2 3.7.3c.9.5 4.1 1.3 4.1 1.3s-2.3.4-4.5-.8c-2.2-1.2-3.4.5-3.4 1.5l-.6.2z"/><defs><path id="k" d="M15.2 14.5h8.1v1.8h-8.1z"/></defs><clipPath id="l"><use xlink:href="#k" overflow="visible"/></clipPath><path clip-path="url(#l)" fill="#A7A5A6" d="M15.2 15.4c.1.1.2.3.3.4.1.1.3.2.4.2.1 0 .2.1.2.1h.7c.1 0 .2 0 .2-.1l.2-.1c.2 0 .3-.1.5-.1l.4-.2c.1 0 .1-.1.2-.1s.1-.1.2-.1c.1-.2.3-.3.5-.4l.6-.3c.1 0 .2-.1.3-.1H20.8l2.4.3h-3.3c-.1 0-.2 0-.3.1-.3.1-.7.3-.9.6l-.2.2-.2.2-.3.1c-.2.1-.3.1-.5.1H16.1c-.1 0-.2-.1-.3-.1-.2-.1-.3-.2-.4-.3 0-.1-.1-.2-.2-.4"/><path fill="#A7A5A6" d="M24.4 8.3s1.6-4.6 4.4-5.5L27 7.3c-.1 0-1.5 0-2.6 1"/><path fill="#EBEBEB" d="M27.7 9.9s2.3-4.5 1-7.1l-2.1 4.5c.1 0 1 1.1 1.1 2.6M29.8 52.7c-1.8-2.8-5.4-7-3.5-13.2 1.9-6.2 4.6-11 4.6-11s3.4-6.8 1.8-9.8c-.3-.6-.7-1-1-1.3-.2.8-1.6 6.4-10.3 8.8l-.1.2.2.4s1.1 1 0 2.4C20.3 30.5 9.7 42.3 8.8 47.6c-.9 5.3 3.3 8.9 6.6 9.3 3.3.4 19.7 0 19.7 0s-3.5-1.3-5.3-4.2"/><path fill="#A7A5A6" d="M23.6 7.3c.4-.5.8-1 1.1-1.5.2-.3.3-.5.5-.8l.2-.4c.1-.1.2-.3.3-.4.2-.3.4-.5.6-.8l.7-.7c.2-.2.5-.4.8-.6.2 0 .3-.1.5-.2.1-.1.3-.1.5-.2h.2l.2.2c.1.1.1.2.2.2.1.2.2.3.2.5.1.3.2.7.2 1 0 .3.1.7 0 1 0 .3 0 .7-.1 1l-.2 1c-.1.3-.1.7-.2 1-.2.6-.3 1.3-.5 1.9l-.1-.1c.5.3.9.7 1.2 1.1.4.4.7.8 1 1.3.3.5.5 1 .7 1.5.1.3.2.5.2.8.1.3.1.5.1.8.1.5 0 1.1 0 1.6l.1 1c0 .3-.1.6-.2.8-.2.5-.4 1-.7 1.5-.3.5-.5 1-.9 1.4-.3.5-.7.8-1.1 1.2-.4.4-.8.8-1.2 1.1-.4.3-.9.7-1.4.9-.5.3-1 .5-1.5.7l-1.5.6-.8.3-.8.2c-.5.1-1 .3-1.6.3l-1.6.2v-.1l1.5-.4c.5-.1 1-.3 1.5-.5l.8-.3.7-.3c.5-.2 1-.4 1.4-.7.5-.2.9-.5 1.4-.8.4-.3.9-.6 1.3-.9.4-.3.8-.7 1.2-1 .3-.4.7-.8 1-1.2.3-.4.6-.8.9-1.3.3-.4.5-.9.7-1.4.1-.2.2-.5.2-.7l.1-.8c.1-.5.1-1 .1-1.6 0-.3 0-.5-.1-.8 0-.3-.1-.5-.1-.8-.1-.5-.3-1-.5-1.5-.5-.9-1.2-1.8-2.1-2.3h-.1v-.1c.3-.2.4-.8.6-1.5.1-.3.1-.7.1-1l.1-1v-1-.5l-.1-.5c0-.2 0-.3-.1-.5l-.1-.4c0-.2-.1-.3-.2-.4 0-.1-.2-.2-.2-.3h.2c-.5.1-1 .5-1.5.9-.2.2-.5.4-.7.6l-.6.6c-.1.1-.2.3-.3.4l-.3.4c-.2.5-.3.7-.5 1-.5.5-.9.9-1.4 1.3zM10 27.2c-.1-.3-.2-.7-.4-.8-.2-.1-.5 0-.7.2l-.9.6-.8.6c-.5.4-1.1.8-1.7 1.2-.3.1-.6.4-1 .4-.2 0-.3.1-.5.1h-.8s-.1.1-.1.2 0 .2.1.3l.1.3-.2-.2c-.1-.1-.1-.2-.2-.3 0-.1-.1-.3 0-.4.1-.1.2-.2.3-.2H4c.1 0 .3-.1.4-.2.3-.1.5-.3.8-.5.3-.2.5-.4.8-.6l.8-.6c.3-.2.5-.4.8-.6.3-.2.5-.4.9-.5.2-.1.4-.2.6-.2.2 0 .5 0 .6.2.3.3.3.7.3 1"/><path fill="#BDBCBC" d="M5 30.4s.3-.2.7-.5c.4-.3 1.1-.6 1.7-.9.3-.2.6-.3.9-.5.3-.2.5-.3.7-.5l.4-.4.2-.2s0 .1-.1.2-.1.4-.3.5c-.2.2-.4.4-.7.6l-.9.6c-.3.2-.6.3-.9.4-.3.1-.6.2-.8.4l-.6.3H5"/><path fill="#EBEBEB" d="M16.3 68.1c0 .7-1.6 1.2-3.7 1.2-2 0-3.7-.6-3.7-1.2s1.6-1.2 3.7-1.2 3.7.5 3.7 1.2"/><path fill="#C4C3C3" d="M13.9 25.2s3.3-4.2 5.8-2.8c-.1-.1 3.8 1.2-5.8 2.8"/><g><defs><path id="m" d="M9.7 44.6h11.9v9.6H9.7z"/></defs><clipPath id="n"><use xlink:href="#m" overflow="visible"/></clipPath><path clip-path="url(#n)" fill="#C4C3C3" d="M11.2 44.6s-.1.4-.1 1c-.1.6-.2 1.6-.2 2.7 0 .5 0 1.1.1 1.7.1.6.3 1.1.6 1.6.3.4.7.7 1.2.8.5.1 1.2.1 1.8 0 .3-.1.8-.1 1.1-.2l.9-.3c.6-.3 1.1-.6 1.6-1 .2-.2.5-.4.7-.7.2-.2.4-.5.6-.7.2-.2.3-.5.5-.7.2-.2.3-.5.4-.7.2-.5.4-.9.6-1.4.2-.4.3-.8.4-1.1.2-.6.3-1 .3-1s.1.4.1 1c0 .3 0 .7-.1 1.2s-.1 1-.3 1.6c-.2.6-.4 1.2-.7 1.8-.1.3-.3.6-.6.9-.2.3-.5.6-.7.9-.5.6-1.2 1.1-1.9 1.4-.4.2-.8.3-1.2.5-.4.1-.7.2-1.1.3-.9.1-1.7.1-2.6-.1-.9-.2-1.7-.9-2.1-1.7-.4-.8-.5-1.6-.6-2.2 0-.7.1-1.3.2-1.9.2-1.1.6-2 .8-2.6.1-.8.3-1.1.3-1.1"/></g><path fill="#D3D2D2" d="M9.2 52.1c-.3-.7-.5-1.4-.6-2.2v-.4c0-.6 0-1.2.1-1.9.9-5.3 11.5-17.2 12.6-18.5 1.2-1.4 0-2.4 0-2.4l-.2-.4.1-.2c.8-.2 1.5-.5 2.2-.7L18 26.5c.3.2.3.4.3.4 0 1.3-1.2 2.7-1.2 2.7S8.4 40 5.4 43.6c-2.9 3.6-3.1 8-3.1 8 0 7.1 6.2 7.7 6.2 7.7H15c-3.5-2.1-5.1-5.1-5.8-7.2"/></svg>