<svg xmlns="http://www.w3.org/2000/svg" width="40.3" height="60.4" viewBox="0 0 40.3 60.4"><path fill="#BDBCBC" d="M40.3 11.1C40.3 5 37.1 0 33.2 0c-3.9 0-7 5-7 11.1 0 3.2.8 5.6 2.2 7.3.4.5.8.9 1.3 1.2l.6.6c1.5 1.6 1.6 2.3 1.6 2.3 1.4 8-1.3 24.8-2.2 31.3-.8 6.5 3.5 6.6 3.5 6.6s4.4-.1 3.5-6.6c-.8-6.5-3.5-23.3-2.2-31.3 0 0 .1-.8 1.6-2.3l.6-.6c.5-.3.9-.7 1.3-1.2 1.5-1.7 2.3-4.1 2.3-7.3M21.5 53.8c-.9-6.5-3.6-20.8-2.2-28.8 0 0 1.4-.7 1.5-2.2v-.4l-.2-.3.3-.2-.2-.3.3-.2-.2-.3.3-.2-.2-.3.3-.2-.2-.3.3-.2-.2-.3.3-.2-.2-.3.3-.2-.2-.3.3-.2-.2-.3.3-.2-.2-.3.3-.2-.2-.3.3-.2-.2-.2.2-.2-.2-.2.2-.2-.3-.2.2-.2-.3-.2.2-.3-.3-.2.2-.3-.3-.2.2-.3-.3-.2.2-.3-.3-.2.2-.3-.3-.2.2-.3-.3-.2.1-.5-.3-.2.2-.3-.3-.2.2-.3-.3-.2.2-.3-.3-.2.2-.3-.3-.2.2-.3-.3-.2.2-.3-.3-.2.2-.3-.3-.2.2-.3-.3-.2.2-.3-.3-.2.2-.3v-.1l.2-.3-.3-.2.1-.2-.3-.2.2-.3-.3-.2.2-.3-.4-.2.2-.3-.3-.1.1-.3-.3-.1.1-.3-.3-.1.1-.3-.3-.1.1-.3C18 1.4 17.3.6 17 .6c-.9 0-.8 1.5-.8 1.5l.2 21c0 1.5.1 2.2.1 2.2 1.4 8-1.3 22.3-2.2 28.8-.8 6.5 3.5 6.6 3.5 6.6s4.5-.4 3.7-6.9M7.8 53.8C7 47.3 4.3 30.5 5.6 22.5c0 0 .4-2.2 1.8-2.2 1 0 1.1-1.9 1.1-1.9S8.6.4 8 .4h-.2S7.3 6.7 7.3 18c0 0-.1.6-.5.6s-.5-.6-.5-.6S6.1.4 5.5.4h-.2S4.9 6.3 4.9 18c0 .4-.3.7-.6.7s-.6-.3-.6-.7C3.7 6.3 3.3.4 3.3.4H3C2.5.4 2.2 18 2.2 18s-.1.6-.5.6-.5-.6-.5-.6C1.2 6.7.8.4.8.4H.5c-.6 0-.5 18-.5 18s.1 1.9 1.1 1.9c1.5 0 1.8 2.2 1.8 2.2 1.4 8-1.3 24.8-2.2 31.3-.8 6.5 3.5 6.6 3.5 6.6s4.4-.1 3.6-6.6"/><path fill="#EDEDED" d="M3.3 21.8c.5 3.1.8 6.2.9 9.3.1 3.1 0 6.2-.4 9.3-.2 1.5-.5 3.1-.8 4.6-.3 1.5-.5 3.1-.7 4.6-.2 1.5-.3 3.1-.1 4.6.1.8.2 1.5.4 2.3.2.7.8 1.4 1.6 1.4-.4 0-.8-.1-1.1-.4-.3-.3-.5-.6-.6-1-.3-.7-.4-1.5-.5-2.3-.1-1.6 0-3.1.1-4.7.1-1.5.4-3.1.6-4.6.3-1.5.6-3 .8-4.6.4-3.1.6-6.2.5-9.3-.1-3.1-.3-6.2-.7-9.2"/><path fill="#827F80" d="M5.2 21.8c-.4 3.1-.6 6.2-.7 9.3-.1 3.1.1 6.2.5 9.3.2 1.5.5 3 .8 4.6.3 1.5.5 3.1.6 4.6.1 1.5.2 3.1.1 4.7-.1.8-.2 1.6-.5 2.3-.2.4-.4.7-.6 1-.3.3-.7.4-1.1.4.8 0 1.4-.7 1.6-1.4.3-.7.4-1.5.4-2.3.1-1.5 0-3.1-.1-4.6-.2-1.5-.4-3.1-.7-4.6-.3-1.5-.6-3-.8-4.6-.4-3.1-.5-6.2-.4-9.3.1-3.3.4-6.4.9-9.4"/><path fill="#EDEDED" d="M32.3 21.8c.5 3.1.8 6.2.9 9.3.1 3.1 0 6.2-.4 9.3-.2 1.5-.5 3.1-.8 4.6-.3 1.5-.5 3.1-.7 4.6-.2 1.5-.3 3.1-.1 4.6.1.8.2 1.5.4 2.3.2.7.8 1.4 1.6 1.4-.4 0-.8-.1-1.1-.4-.3-.3-.5-.6-.6-1-.3-.7-.4-1.5-.5-2.3-.1-1.6 0-3.1.1-4.7.1-1.5.4-3.1.6-4.6.3-1.5.6-3 .8-4.6.4-3.1.5-6.2.5-9.3-.1-3.1-.3-6.2-.7-9.2"/><path fill="#827F80" d="M34.2 21.8c-.4 3.1-.6 6.2-.7 9.3-.1 3.1.1 6.2.5 9.3.2 1.5.5 3 .8 4.6.3 1.5.5 3.1.6 4.6.1 1.5.2 3.1.1 4.7-.1.8-.2 1.6-.5 2.3-.2.4-.4.7-.6 1-.3.3-.7.4-1.1.4.8 0 1.4-.7 1.6-1.4.3-.7.4-1.5.4-2.3.1-1.5 0-3.1-.1-4.6-.2-1.5-.4-3.1-.7-4.6-.3-1.5-.6-3-.8-4.6-.4-3.1-.5-6.2-.4-9.3.1-3.3.4-6.4.9-9.4"/><path fill="#EDEDED" d="M17 24.2c.5 2.9.8 5.7.9 8.6.1 2.9-.1 5.8-.6 8.7-.5 2.8-1.1 5.7-1.3 8.6-.1 1.4-.2 2.9-.1 4.3.1.7.2 1.4.5 2.1.3.7.8 1.3 1.6 1.2-.8 0-1.4-.6-1.6-1.2-.3-.7-.4-1.4-.5-2.1-.2-1.4-.1-2.9 0-4.3.2-2.9.8-5.8 1.3-8.6s.7-5.7.6-8.6c-.2-2.9-.5-5.8-.8-8.7"/><path fill="#827F80" d="M18.9 24.2c-.3 2.9-.6 5.8-.7 8.6-.1 2.9.2 5.8.6 8.6.5 2.8 1 5.7 1.3 8.6.1 1.4.2 2.9 0 4.3-.1.7-.2 1.4-.5 2.1-.3.7-.9 1.3-1.6 1.2.8 0 1.3-.6 1.6-1.2.3-.7.4-1.4.5-2.1.1-1.4.1-2.9-.1-4.3-.2-2.9-.8-5.7-1.3-8.6-.5-2.9-.6-5.8-.6-8.7 0-2.7.3-5.6.8-8.5"/><path fill="#B0AEAF" d="M38.9 10.5c0 5.2-2.5 9.5-5.6 9.5-3.1 0-5.6-4.2-5.6-9.5S30.2 1 33.3 1c3.1.1 5.6 4.3 5.6 9.5"/><path fill="#BCBBBB" d="M37.5 9.5c0 4.4-2.1 7.9-4.7 7.9s-4.7-3.5-4.7-7.9 2.1-7.9 4.7-7.9 4.7 3.6 4.7 7.9"/><path fill="#C8C7C7" d="M36.1 8.5c0 3.5-1.7 6.3-3.8 6.3s-3.8-2.8-3.8-6.3 1.7-6.3 3.8-6.3 3.8 2.8 3.8 6.3"/><path fill="#D4D3D3" d="M34.7 7.5c0 2.6-1.3 4.8-2.8 4.8-1.6 0-2.8-2.1-2.8-4.8 0-2.6 1.3-4.8 2.8-4.8 1.5 0 2.8 2.2 2.8 4.8"/><path fill="#E0E0E0" d="M33.2 6.5c0 1.8-.9 3.2-1.9 3.2-1.1 0-1.9-1.4-1.9-3.2s.9-3.2 1.9-3.2c1.1 0 1.9 1.4 1.9 3.2"/><path fill="#A5A3A3" d="M38.6 10.3c0 5.3-2.6 9.6-5.9 9.6-.8 0-1.5-.3-2.2-.7.9.8 1.9 1.3 3 1.3 3.2 0 5.9-4.3 5.9-9.6 0-4-1.5-7.5-3.7-8.9 1.8 1.7 2.9 4.8 2.9 8.3"/><path fill="#D3D2D2" d="M29.2 18.3c-.6-1.5-1-3.4-1-5.3 0-5.5 2.7-9.9 6.1-9.9 1.6 0 3 .9 4.1 2.5-1.1-2.7-3-4.6-5.2-4.6-3.4 0-6.1 4.4-6.1 9.9 0 2.9.8 5.5 2.1 7.4"/><path fill="#E9E9E9" d="M29.4 16.5c-.7-1.5-1.1-3.2-1.1-5 0-1.7.2-3.5.8-5.1.3-.8.7-1.6 1.3-2.3.6-.7 1.3-1.3 2.2-1.6.9-.3 1.9-.1 2.6.5.7.5 1.3 1.2 1.6 2-.5-.7-1.1-1.3-1.8-1.6-.7-.4-1.5-.4-2.2-.2-.7.3-1.3.8-1.8 1.4-.5.6-.9 1.3-1.1 2.1-.6 1.5-.9 3.1-1 4.8 0 1.7.1 3.4.5 5"/></svg>