<svg xmlns="http://www.w3.org/2000/svg" xmlns:xlink="http://www.w3.org/1999/xlink" width="39" height="54.5" viewBox="0 0 39 54.5"><path fill="#00587E" d="M.9 1.2h37.2v52.1H.9z"/><defs><path id="a" d="M.9 1.2h37.2v52.1H.9z"/></defs><clipPath id="b"><use xlink:href="#a" overflow="visible"/></clipPath><path clip-path="url(#b)" fill="#597F5C" d="M.9 1.2h37.2v52.1H.9z"/><defs><path id="c" d="M.9 1.2h37.2v52.1H.9z"/></defs><clipPath id="d"><use xlink:href="#c" overflow="visible"/></clipPath><g clip-path="url(#d)"><defs><path id="e" d="M.9 1.2h18.6v52.1H.9z"/></defs><clipPath id="f"><use xlink:href="#e" overflow="visible"/></clipPath><g clip-path="url(#f)"><defs><path id="g" d="M.9 1.2h4v52.1h-4z"/></defs><clipPath id="h"><use xlink:href="#g" overflow="visible"/></clipPath><path clip-path="url(#h)" fill="#4F4C4D" d="M.9 1.2h4v52.1h-4z"/></g><g clip-path="url(#f)"><defs><path id="i" d="M1.9 1.2h6.7v52.1H1.9z"/></defs><clipPath id="j"><use xlink:href="#i" overflow="visible"/></clipPath><path clip-path="url(#j)" fill="#605D5D" d="M1.9 1.2h6.7v52.1H1.9z"/></g><g clip-path="url(#f)"><defs><path id="k" d="M2.9 1.2h9.3v52.1H2.9z"/></defs><clipPath id="l"><use xlink:href="#k" overflow="visible"/></clipPath><path clip-path="url(#l)" fill="#706D6E" d="M2.9 1.2h9.3v52.1H2.9z"/></g><g clip-path="url(#f)"><defs><path id="m" d="M3.9 1.2h11.9v52.1H3.9z"/></defs><clipPath id="n"><use xlink:href="#m" overflow="visible"/></clipPath><path clip-path="url(#n)" fill="#817E7F" d="M3.9 1.2h11.9v52.1H3.9z"/></g><g clip-path="url(#f)"><defs><path id="o" d="M4.9 1.2h14.5v52.1H4.9z"/></defs><clipPath id="p"><use xlink:href="#o" overflow="visible"/></clipPath><path clip-path="url(#p)" fill="#918F90" d="M4.9 1.2h14.5v52.1H4.9z"/></g></g><g clip-path="url(#d)"><defs><path id="q" d="M19.5 1.2h18.6v52.1H19.5z"/></defs><clipPath id="r"><use xlink:href="#q" overflow="visible"/></clipPath><g clip-path="url(#r)"><defs><path id="s" d="M34 1.2h4v52.1h-4z"/></defs><clipPath id="t"><use xlink:href="#s" overflow="visible"/></clipPath><path clip-path="url(#t)" fill="#E9E9E9" d="M34 1.2h4v52.1h-4z"/></g><g clip-path="url(#r)"><defs><path id="u" d="M30.4 1.2h6.7v52.1h-6.7z"/></defs><clipPath id="v"><use xlink:href="#u" overflow="visible"/></clipPath><path clip-path="url(#v)" fill="#D3D2D2" d="M30.4 1.2h6.7v52.1h-6.7z"/></g><g clip-path="url(#r)"><defs><path id="w" d="M26.8 1.2h9.3v52.1h-9.3z"/></defs><clipPath id="x"><use xlink:href="#w" overflow="visible"/></clipPath><path clip-path="url(#x)" fill="#BDBCBC" d="M26.7 1.2H36v52.1h-9.3z"/></g><g clip-path="url(#r)"><defs><path id="y" d="M23.1 1.2H35v52.1H23.1z"/></defs><clipPath id="z"><use xlink:href="#y" overflow="visible"/></clipPath><path clip-path="url(#z)" fill="#A7A5A6" d="M23.1 1.2H35v52.1H23.1z"/></g><g clip-path="url(#r)"><defs><path id="A" d="M19.5 1.2H34v52.1H19.5z"/></defs><clipPath id="B"><use xlink:href="#A" overflow="visible"/></clipPath><path clip-path="url(#B)" fill="#918F90" d="M19.5 1.2H34v52.1H19.5z"/></g></g><path fill="#B0AEAF" d="M38.9.8c0 .2-.2.3-.4.3H.4C.2 1.2 0 1 0 .8V.3C0 .2.2 0 .4 0h38.2c.2 0 .4.2.4.3v.5z"/><defs><path id="C" d="M0 0h39v1.2H0z"/></defs><clipPath id="D"><use xlink:href="#C" overflow="visible"/></clipPath><path clip-path="url(#D)" fill="#B0AEAF" d="M38.9.8c0 .2-.2.3-.4.3H.4C.2 1.2 0 1 0 .8V.3C0 .2.2 0 .4 0h38.2c.2 0 .4.2.4.3v.5z"/><path clip-path="url(#D)" fill="#B5B4B4" d="M38.6.8c0 .2-.2.3-.4.3H.8C.5 1.2.4 1 .4.8V.3C.4.2.5 0 .8 0h37.4c.2 0 .4.2.4.3v.5z"/><path clip-path="url(#D)" fill="#BBBABA" d="M38.2.8c0 .2-.2.3-.4.3H1.1C.9 1.2.7 1 .7.8V.3c0-.1.2-.3.4-.3h36.7c.2 0 .4.2.4.3v.5z"/><path clip-path="url(#D)" fill="#C0BFC0" d="M37.8.8c0 .2-.2.3-.4.3h-36c-.1.1-.3-.1-.3-.3V.3c0-.1.2-.3.4-.3h36c.2 0 .4.2.4.3v.5z"/><path clip-path="url(#D)" fill="#C6C5C5" d="M37.5.8c0 .2-.2.3-.4.3H1.8c-.2.1-.3-.1-.3-.3V.3c0-.1.1-.3.3-.3h35.3c.2 0 .4.2.4.3v.5z"/><path clip-path="url(#D)" fill="#C9C8C8" d="M35.4.8c0 .2-.1.3-.3.3H3.8c-.1.1-.3-.1-.3-.3V.3c0-.1.2-.3.3-.3h31.3c.2 0 .3.2.3.3v.5z"/><path clip-path="url(#D)" fill="#CDCBCC" d="M33.4.8c0 .2-.1.3-.3.3H5.8c-.1.1-.3-.1-.3-.3V.3c0-.1.2-.3.3-.3h27.3c.2 0 .3.2.3.3v.5z"/><path clip-path="url(#D)" fill="#D0CFCF" d="M31.4.8c0 .2-.1.3-.2.3H7.8c-.1.1-.2-.1-.2-.3V.3c0-.1.1-.3.2-.3h23.3c.1 0 .2.2.2.3v.5z"/><path clip-path="url(#D)" fill="#D3D2D2" d="M29.3.8c0 .2-.1.3-.2.3H9.8c-.1.1-.2-.1-.2-.3V.3c0-.1.1-.3.2-.3h19.3c.1 0 .2.2.2.3v.5z"/><g><defs><path id="E" d="M.1.9h38.8v.2H.1z"/></defs><clipPath id="F"><use xlink:href="#E" overflow="visible"/></clipPath><path clip-path="url(#F)" fill="#7B7979" d="M.4.9C.3.9.2.9.1 1c.1.1.2.1.3.1h38.2c.1 0 .2 0 .3-.1-.1-.1-.2-.1-.3-.1H.4z"/></g><path fill="#B0AEAF" d="M38.9 54.2c0 .2-.2.3-.4.3H.4c-.2 0-.4-.2-.4-.3v-.5c0-.2.2-.3.4-.3h38.2c.2 0 .4.2.4.3v.5z"/><g><defs><path id="G" d="M0 53.3h39v1.2H0z"/></defs><clipPath id="H"><use xlink:href="#G" overflow="visible"/></clipPath><path clip-path="url(#H)" fill="#B0AEAF" d="M38.9 54.2c0 .2-.2.3-.4.3H.4c-.2 0-.4-.2-.4-.3v-.5c0-.2.2-.3.4-.3h38.2c.2 0 .4.2.4.3v.5z"/><path clip-path="url(#H)" fill="#B5B4B4" d="M38.6 54.2c0 .2-.2.3-.4.3H.8c-.2 0-.4-.2-.4-.3v-.5c0-.2.2-.3.4-.3h37.4c.2 0 .4.2.4.3v.5z"/><path clip-path="url(#H)" fill="#BBBABA" d="M38.2 54.2c0 .2-.2.3-.4.3H1.1c-.2 0-.4-.2-.4-.3v-.5c0-.2.2-.3.4-.3h36.7c.2 0 .4.2.4.3v.5z"/><path clip-path="url(#H)" fill="#C0BFC0" d="M37.8 54.2c0 .2-.2.3-.4.3h-36c-.2 0-.4-.2-.4-.3v-.5c0-.2.2-.3.4-.3h36c.2 0 .4.2.4.3v.5z"/><path clip-path="url(#H)" fill="#C6C5C5" d="M37.5 54.2c0 .2-.2.3-.4.3H1.8c-.2 0-.4-.2-.4-.3v-.5c0-.2.2-.3.4-.3h35.3c.2 0 .4.2.4.3v.5z"/><path clip-path="url(#H)" fill="#C9C8C8" d="M35.4 54.2c0 .2-.1.3-.3.3H3.8c-.2 0-.3-.2-.3-.3v-.5c0-.2.1-.3.3-.3h31.3c.2 0 .3.2.3.3v.5z"/><path clip-path="url(#H)" fill="#CDCBCC" d="M33.4 54.2c0 .2-.1.3-.3.3H5.8c-.2 0-.3-.2-.3-.3v-.5c0-.2.1-.3.3-.3h27.3c.2 0 .3.2.3.3v.5z"/><path clip-path="url(#H)" fill="#D0CFCF" d="M31.4 54.2c0 .2-.1.3-.2.3H7.8c-.1 0-.2-.2-.2-.3v-.5c0-.2.1-.3.2-.3h23.3c.1 0 .2.2.2.3v.5z"/><path clip-path="url(#H)" fill="#D3D2D2" d="M29.3 54.2c0 .2-.1.3-.2.3H9.8c-.1 0-.2-.2-.2-.3v-.5c0-.2.1-.3.2-.3h19.3c.1 0 .2.2.2.3v.5z"/></g><g><defs><path id="I" d="M.1 54.3h38.8v.2H.1z"/></defs><clipPath id="J"><use xlink:href="#I" overflow="visible"/></clipPath><path clip-path="url(#J)" fill="#7B7979" d="M.4 54.3c-.1 0-.2.1-.3.1.1.1.2.1.3.1h38.2c.1 0 .2 0 .3-.1-.1-.1-.2-.1-.3-.1H.4z"/></g><path fill="#2E2A2B" d="M31.3 14.7c0-.2 1.4-7.1 1.4-7.1s-4.6-2.1-13.2-2.1S6.3 7.6 6.3 7.6s1.4 6.9 1.4 7.1c0 .2-4.5 1.2-4.5 1.2s4.2 25.6 4.8 26c.7.5 11.5.5 11.5.5s10.8 0 11.5-.5 4.8-26 4.8-26-4.4-1.1-4.5-1.2"/><g><defs><path id="K" d="M14.8 46.2h9.4v5h-9.4z"/></defs><clipPath id="L"><use xlink:href="#K" overflow="visible"/></clipPath><path clip-path="url(#L)" fill="#BFAA74" d="M16.9 46.2h2.3v3.1h-2.3zM19.7 46.2H22v3.1h-2.3zM14.8 50.1h9.4v1.1h-9.4z"/></g><g><defs><path id="M" d="M6.3 7.6s1.4 6.9 1.4 7.1c0 .2-4.5 1.2-4.5 1.2s4.2 25.6 4.8 26c.7.5 11.5.5 11.5.5s10.8 0 11.5-.5c.7-.5 4.8-26 4.8-26s-4.4-1.1-4.5-1.2c0-.2 1.4-7.1 1.4-7.1s-4.6-2.1-13.2-2.1c-8.7 0-13.2 2.1-13.2 2.1"/></defs><clipPath id="N"><use xlink:href="#M" overflow="visible"/></clipPath><path clip-path="url(#N)" fill="#E69A38" d="M32.2 36.5c-.5-.6-1.4-1-2.5-1-.3 0-.5 0-.7.1v-.1c0-1.2-1-2.3-2.3-2.3-1.1 0-2.1.8-2.3 1.9-.3-.2-.6-.2-1-.3 0-.2.1-.3.1-.5 0-1.2-1-2.2-2.3-2.2-.7 0-1.3.3-1.7.8-.3-.8-1.2-1.4-2.2-1.4-1.3 0-2.4.9-2.4 2.1v.1c-.2-.1-.5-.1-.8-.1-1.3 0-2.4.7-2.7 1.6-.3-.5-.8-.9-1.4-.9-.9 0-1.6.8-1.7 1.9-1 .1-1.7.8-1.7 1.7 0 .5.3 1 .7 1.3v3.5c0 .3.2.5.5.5H32c.2 0 .5-.2.5-.5V37c0-.3-.2-.5-.3-.5"/><g clip-path="url(#N)"><defs><path id="O" d="M6.5 31.5h26V38h-26z"/></defs><clipPath id="P"><use xlink:href="#O" overflow="visible"/></clipPath><path clip-path="url(#P)" fill="#E69A38" d="M32.2 36.5c-.5-.6-1.4-1-2.5-1-.3 0-.5 0-.7.1v-.1c0-1.2-1-2.3-2.3-2.3-1.1 0-2.1.8-2.3 1.9l-.9-.3c0 .1 0 .2-.1.3.4 0 .7.1 1 .3.2-1.1 1.1-1.9 2.3-1.9 1.3 0 2.3 1 2.3 2.3v.1c.2 0 .5-.1.7-.1 1.1 0 2 .4 2.5 1 .2.1.3.3.3.5V37c0-.3-.2-.5-.3-.5M8.2 36.5c.1-1 .8-1.9 1.7-1.9.6 0 1.1.4 1.4.9.3-.9 1.4-1.6 2.7-1.6.3 0 .5 0 .8.1v-.1c0-1.2 1.1-2.1 2.4-2.1 1 0 1.9.6 2.2 1.4.4-.5 1-.8 1.7-.8 1.2 0 2.2.9 2.3 2v-.2c0-1.2-1-2.2-2.3-2.2-.7 0-1.3.3-1.7.8-.3-.8-1.2-1.4-2.2-1.4-1.3 0-2.4.9-2.4 2.1v.1c-.2-.1-.5-.1-.8-.1-1.3 0-2.4.7-2.7 1.6-.3-.5-.8-.9-1.4-.9-.9 0-1.6.8-1.7 1.9-1 .1-1.7.8-1.7 1.7v.2c.1-.8.8-1.4 1.7-1.5"/></g></g><path fill="#FFF" d="M19.5 6.2c6.2 0 10.3 1.2 11.9 1.7-1.2 6.2-1.2 6.3-1.2 6.6.2.7.2.9 4.3 1.8-1.4 8.7-3.6 21.6-4.4 24.2-1.5.2-6.3.3-10.7.3-4.3 0-9.2-.1-10.7-.3-.7-2.6-3-15.5-4.4-24.2 4.1-1 4.1-1.1 4.3-1.8.1-.3.1-.4-1.2-6.6 1.8-.5 5.8-1.7 12.1-1.7m0-1.1c-8.7 0-13.2 2.1-13.2 2.1s1.4 6.9 1.4 7.1c0 .2-4.5 1.2-4.5 1.2s4.2 25.6 4.8 26 11.5.5 11.5.5 10.8 0 11.5-.5 4.8-26 4.8-26-4.4-1.1-4.5-1.2c0-.2 1.4-7.1 1.4-7.1s-4.6-2.1-13.2-2.1"/><path fill="none" stroke="#231F20" stroke-width="1.685" stroke-linecap="round" stroke-linejoin="round" stroke-miterlimit="10" d="M31.3 14.3c0-.2 1.4-7.1 1.4-7.1s-4.6-2.1-13.2-2.1S6.3 7.3 6.3 7.3s1.4 6.9 1.4 7.1c0 .2-4.5 1.2-4.5 1.2s4.2 25.6 4.8 26c.7.5 11.5.5 11.5.5s10.8 0 11.5-.5 4.8-26 4.8-26-4.4-1.1-4.5-1.3z"/><path fill="none" stroke="#BCA66D" stroke-width="1.124" stroke-linecap="round" stroke-linejoin="round" stroke-miterlimit="10" d="M31.3 14.3c0-.2 1.4-7.1 1.4-7.1s-4.6-2.1-13.2-2.1S6.3 7.3 6.3 7.3s1.4 6.9 1.4 7.1c0 .2-4.5 1.2-4.5 1.2s4.2 25.6 4.8 26c.7.5 11.5.5 11.5.5s10.8 0 11.5-.5 4.8-26 4.8-26-4.4-1.1-4.5-1.3z"/></svg>