<svg xmlns="http://www.w3.org/2000/svg" xmlns:xlink="http://www.w3.org/1999/xlink" width="71.3" height="36.2" viewBox="0 0 71.3 36.2"><path fill="#B52126" d="M5.4 5.5L57 15.2s4 .4 5.7 4.7 4.2 13.6 4.2 13.6.6 3-1.2 2.7c-1.8-.3-1.8-4-1.8-4s-2.9-12-3.7-13-1.7-1.8-3.3-2.1c-1.6-.3-52.6-9.8-52.6-9.8l1.1-1.8z"/><defs><path id="a" d="M32.9 11.4h8.5v2.1h-8.5z"/></defs><clipPath id="b"><use xlink:href="#a" overflow="visible"/></clipPath><path clip-path="url(#b)" fill="#B52126" d="M32.9 12.6c1.5.3 3 .6 4.5.8l4-1.2-4.8-.9-3.7 1.3z"/><defs><path id="c" d="M4.5 5.6h3.3v2.2H4.5z"/></defs><clipPath id="d"><use xlink:href="#c" overflow="visible"/></clipPath><path clip-path="url(#d)" fill="#B52126" d="M5.6 5.6L4.5 7.3s.9.2 2.6.5c.1-.6.4-1.2.7-1.8l-2.2-.4z"/><path fill="#B52126" d="M65.9 5.5l-51.6 9.7s-4 .4-5.7 4.7c-1.7 4.4-4.2 13.6-4.2 13.6s-.6 3 1.2 2.7c1.8-.3 1.8-4 1.8-4s2.9-12 3.7-13 1.7-1.8 3.3-2.1C15.9 16.8 67 7.3 67 7.3l-1.1-1.8z"/><path fill="#736357" d="M17.4 22.1c-7.2 0-11.5-5.6-11.9-13.9v-.1.8c.4 8.2 4.7 13.9 11.9 13.9s12-5.8 12-11.9v-.3c-.2 5.9-4.9 11.5-12 11.5M65.8 8.2c-.4 8.2-4.7 13.9-11.9 13.9-7.1 0-11.8-5.6-12-11.6v.3c0 6.1 4.8 11.9 12 11.9s11.5-5.6 11.9-13.9v-.6"/><path fill="#ED1C24" d="M70.6 3.7c-.6 0-3.3-.2-4.8-1C64.4 2 60.5 0 54.6 0c-6 0-11 2.3-13.7 5.4 0 0-.5.2-.9-.5s-1.1-1.5-1.6-1.5h-5.6c-.5 0-1.2.8-1.6 1.5-.4.7-.9.5-.9.5C27.7 2.3 22.6 0 16.7 0c-6 0-9.8 2-11.3 2.8-1.5.8-4.2 1-4.8 1-.5-.1-.6.5-.6.5v2.1c0 .5.7.6.7.6 3 .3 3.4 3.9 3.4 3.9.7 6.8 5.3 13.3 13.2 13.3 7.9 0 11.8-6 13-9.2 1.2-3.2 2.5-5.1 2.5-5.1-.6-.5-.6-1.8-.6-1.8 0-2.1 3.4-2.4 3.4-2.4S39 6 39 8.2c0 0 .1 1.3-.6 1.8 0 0 1.4 1.9 2.5 5.1 1.2 3.2 5.1 9.2 13 9.2S66.4 17.8 67.1 11c0 0 .5-3.6 3.4-3.9 0 0 .7-.1.7-.6V4.3c.1 0 0-.6-.6-.6M17.4 22.8C10.2 22.8 5.9 17.2 5.5 9 5.1.7 17.4 1.6 17.4 1.6c7.1.3 12 3.3 12 9.3s-4.8 11.9-12 11.9M65.8 9c-.4 8.2-4.7 13.9-11.9 13.9s-12-5.8-12-11.9 4.9-9 12-9.3c0-.1 12.3-1 11.9 7.3"/><g opacity=".5"><defs><path id="e" d="M5.5 1.5h23.9v21.3H5.5z"/></defs><clipPath id="f"><use xlink:href="#e" overflow="visible"/></clipPath><path clip-path="url(#f)" fill="#E6E6E6" d="M17.4 1.5S5.1.7 5.5 8.9c.4 8.2 4.7 13.9 11.9 13.9s12-5.8 12-11.9c0-6.1-4.9-9-12-9.4"/></g><g opacity=".5"><defs><path id="g" d="M41.9 1.5h23.9v21.3H41.9z"/></defs><clipPath id="h"><use xlink:href="#g" overflow="visible"/></clipPath><path clip-path="url(#h)" fill="#E6E6E6" d="M53.9 1.5S66.2.7 65.8 8.9c-.4 8.2-4.7 13.9-11.9 13.9s-12-5.8-12-11.9c0-6.1 4.8-9 12-9.4"/></g><g opacity=".3"><defs><path id="i" d="M5.5 1.5h23.7V13H5.5z"/></defs><clipPath id="j"><use xlink:href="#i" overflow="visible"/></clipPath><path clip-path="url(#j)" fill="#E6E6E6" d="M17.4 1.5S5.1.7 5.5 8.9c.1 1.5.3 2.8.6 4.1 5.9-2.3 14-3.9 23.1-4.4-1.1-4.5-5.6-6.8-11.8-7.1"/></g><g opacity=".3"><defs><path id="k" d="M42.1 1.5h23.7v11.8H42.1z"/></defs><clipPath id="l"><use xlink:href="#k" overflow="visible"/></clipPath><path clip-path="url(#l)" fill="#E6E6E6" d="M65.8 8.9c.4-8.2-11.9-7.4-11.9-7.4-6.2.3-10.7 2.5-11.8 7.1 9.2.6 17.2 2.3 23 4.7.4-1.4.6-2.8.7-4.4"/></g><path fill="#603813" d="M4.5 5.5l-1-1-.7.7-.8-.7-1 1 1 1 .8-.7.7.7"/><path fill="#8B4D47" d="M2.074 4.817l.707.707-.705.707-.708-.705z"/><defs><path id="m" d="M1.4 4.8h.8v.8h-.8z"/></defs><clipPath id="n"><use xlink:href="#m" overflow="visible"/></clipPath><path clip-path="url(#n)" fill="#8B4D47" d="M2.2 5v-.1l-.1-.1-.7.7.1.1.6-.6"/><defs><path id="o" d="M1.5 5h.7v1.2h-.7z"/></defs><clipPath id="p"><use xlink:href="#o" overflow="visible"/></clipPath><path clip-path="url(#p)" fill="#8B4D47" d="M2.1 6.1l-.5-.6.6-.5h-.1l-.6.6.6.6"/><path fill="#8B4D47" d="M3.473 4.82l.708.706-.706.707-.708-.706z"/><defs><path id="q" d="M2.8 4.8h.8v.8h-.8z"/></defs><clipPath id="r"><use xlink:href="#q" overflow="visible"/></clipPath><path clip-path="url(#r)" fill="#8B4D47" d="M3.6 5v-.1l-.1-.1-.7.7.1.1.6-.6"/><g><defs><path id="s" d="M2.9 5h.7v1.2h-.7z"/></defs><clipPath id="t"><use xlink:href="#s" overflow="visible"/></clipPath><path clip-path="url(#t)" fill="#8B4D47" d="M3.5 6.1L3 5.5l.6-.5h-.1l-.6.6.6.6"/></g><path fill="#603813" d="M70.1 5.5l-1-1-.7.7-.7-.7-1 1 1 1 .7-.7.7.7"/><path fill="#8B4D47" d="M67.69 4.776l.708.707-.708.708-.707-.707z"/><g><defs><path id="u" d="M67 4.8h.8v.8H67z"/></defs><clipPath id="v"><use xlink:href="#u" overflow="visible"/></clipPath><path clip-path="url(#v)" fill="#8B4D47" d="M67.8 5v-.1l-.1-.1-.7.7.1.1.7-.6"/></g><g><defs><path id="w" d="M67.1 5h.7v1.2h-.7z"/></defs><clipPath id="x"><use xlink:href="#w" overflow="visible"/></clipPath><path clip-path="url(#x)" fill="#8B4D47" d="M67.8 6.1l-.6-.6.6-.5-.7.6.6.6"/></g><path fill="#8B4D47" d="M69.09 4.778l.707.706-.706.708-.707-.707z"/><g><defs><path id="y" d="M68.4 4.8h.8v.8h-.8z"/></defs><clipPath id="z"><use xlink:href="#y" overflow="visible"/></clipPath><path clip-path="url(#z)" fill="#8B4D47" d="M69.2 5v-.1l-.1-.1-.7.7.1.1.7-.6"/></g><g><defs><path id="A" d="M68.5 5h.7v1.2h-.7z"/></defs><clipPath id="B"><use xlink:href="#A" overflow="visible"/></clipPath><path clip-path="url(#B)" fill="#8B4D47" d="M69.2 6.1l-.6-.6.6-.5-.7.6.6.6"/></g></svg>