<svg xmlns="http://www.w3.org/2000/svg" xmlns:xlink="http://www.w3.org/1999/xlink" width="28.3" height="68.9" viewBox="0 0 28.3 68.9"><path fill="#386B95" d="M7 67.7c.6.7 3.5 1.2 7 1.2s6.5-.5 7-1.2c-1.6.3-4.2.5-7 .5-2.8.1-5.4-.2-7-.5"/><path fill="#386B95" d="M25.4 55.7c0-2.6-1.2-6.5-4.6-9.5s.6-9.4.6-9.4c.1-.4.3-.8.5-1.2 0 0 1-1.4-7.7-1.7-8.7.3-7.7 1.7-7.7 1.7 2.5 5.5-.3 9.1-2 10.3C2.8 47.1 0 51 0 56.1S2.2 64 5 66.5s9.1 2.4 9.1 2.4h1.5c10.2-2.2 9.8-10.7 9.8-13.2"/><path fill="#386B95" d="M28.3 56.1c0-5.1-2.8-9-4.5-10.2-1.5-1.1-4.1-4.3-2.4-9.1 0 0-4.1 6.4-.6 9.4s4.6 7 4.6 9.5c0 2.6.4 11-9.8 13.2 2-.1 5.7-.6 7.7-2.4 2.8-2.5 5-5.3 5-10.4"/><g opacity=".3"><defs><path id="a" d="M15.6 36.7h12.7v32.1H15.6z"/></defs><clipPath id="b"><use xlink:href="#a" overflow="visible"/></clipPath><path clip-path="url(#b)" fill="#386B95" d="M28.3 56.1c0-5.1-2.8-9-4.5-10.2-1.5-1.1-4.1-4.3-2.4-9.1 0 0-4.1 6.4-.6 9.4s4.6 7 4.6 9.5c0 2.6.4 11-9.8 13.2 2-.1 5.7-.6 7.7-2.4 2.8-2.5 5-5.3 5-10.4"/></g><g opacity=".3"><defs><path id="c" d="M.1 36.7h12.7v32.1H.1z"/></defs><clipPath id="d"><use xlink:href="#c" overflow="visible"/></clipPath><path clip-path="url(#d)" fill="#386B95" d="M.1 56.1c0-5.1 2.8-9 4.5-10.2 1.4-1.2 4-4.3 2.4-9.2 0 0 4.1 6.4.6 9.4-3.4 3-4.6 7-4.6 9.5 0 2.6-.4 11 9.8 13.2-2-.1-5.7-.6-7.7-2.4-2.8-2.4-5-5.2-5-10.3"/></g><path fill="#386B95" d="M21 35.2c0 .6-3.1 1.2-6.8 1.2-3.8 0-6.8-.5-6.8-1.2s3.1-1.2 6.8-1.2c3.7.1 6.8.6 6.8 1.2"/><path fill="#386B95" d="M14.2 36.4c3.8 0 6.8-.5 6.8-1.2S17.9 34 14.2 34s-6.8.5-6.8 1.2 3 1.2 6.8 1.2"/><path fill="#386B95" d="M14.2 34.1c-1.1 0-2.2 0-3.1.1-1 .1-1.9.2-2.6.4-.7.2-1.1.4-1.1.6s.4.5 1.1.6c.6.2 1.5.4 2.5.5.9.1 2 .1 3.1.1 3.8 0 6.8-.5 6.8-1.2s-3-1.1-6.7-1.1"/><g opacity=".4"><defs><path id="e" d="M8.2 35.5h10.3v.8H8.2z"/></defs><clipPath id="f"><use xlink:href="#e" overflow="visible"/></clipPath><path clip-path="url(#f)" fill="#386B95" d="M8.2 35.8c1.2.4 3.4.6 5.9.6 1.6 0 3.1-.1 4.3-.3-1.2-.4-3.4-.6-5.9-.6-1.7 0-3.2.1-4.3.3"/></g><defs><path id="g" d="M7.3 34.1h6.8v2.3H7.3z"/></defs><clipPath id="h"><use xlink:href="#g" overflow="visible"/></clipPath><g opacity=".2" clip-path="url(#h)"><defs><path id="i" d="M11 34.1h3.1v2.3H11z"/></defs><clipPath id="j"><use xlink:href="#i" overflow="visible"/></clipPath><path clip-path="url(#j)" fill="#231F20" d="M11 34.2v2.1c.9.1 2 .1 3.1.1v-2.3c-1.1 0-2.1 0-3.1.1"/></g><g opacity=".7" clip-path="url(#h)"><defs><path id="k" d="M7.3 34.6h1.1v1.3H7.3z"/></defs><clipPath id="l"><use xlink:href="#k" overflow="visible"/></clipPath><path clip-path="url(#l)" fill="#231F20" d="M8.5 35.9v-1.3c-.7.2-1.1.4-1.1.6s.3.5 1.1.7"/></g><g opacity=".4" clip-path="url(#h)"><defs><path id="m" d="M8.5 34.2h2.6v2.1H8.5z"/></defs><clipPath id="n"><use xlink:href="#m" overflow="visible"/></clipPath><path clip-path="url(#n)" fill="#231F20" d="M8.5 35.9c.6.1 1.5.3 2.5.4v-2.1c-1 .1-1.9.2-2.6.4v1.3z"/></g><defs><path id="o" d="M7 67.7h14.1v1.2H7z"/></defs><clipPath id="p"><use xlink:href="#o" overflow="visible"/></clipPath><path clip-path="url(#p)" fill="#386B95" d="M7 67.7c.6.7 3.5 1.2 7 1.2s6.5-.5 7-1.2c-1.6.3-4.2.5-7 .5-2.8.1-5.4-.2-7-.5"/><path fill="#597F5C" d="M13.1 36.6c-.1-2.9.3-9.8 1.5-16.3C16.1 12 18.4 7.2 21.3 6l.5 1.1c-5.8 2.5-7.7 23.4-7.5 29.4l-1.2.1z"/><path fill="#7497B5" d="M7.6 36.3c.7.2 1.7.4 2.9.6 1.1.1 2.3.2 3.6.2 3.7 0 6.9-.6 7.6-1.3 0-.1.1-.1.1-.2 0 0 1-1.4-7.7-1.7-8.7.3-7.7 1.7-7.7 1.7 0 .1.1.1.1.2.2.2.6.3 1.1.5m6.6-2.2c3.8 0 6.8.5 6.8 1.2s-3.1 1.2-6.8 1.2-6.8-.5-6.8-1.2 3-1.2 6.8-1.2"/><path fill="#597F5C" d="M14.2 34.1h.2v-.2h-1.2v.2h1"/><path fill="#A82526" d="M22.4 6.8c.9 3.8 1.2 7 .6 7.2s-1.8-2.9-2.7-6.7c-.9-3.8-1.2-7-.6-7.2.6-.2 1.8 2.8 2.7 6.7"/><path fill="#A82526" d="M22.3 6.3c1.9 3.4 3 6.4 2.5 6.8s-2.4-2-4.3-5.4-3-6.4-2.5-6.8 2.4 2 4.3 5.4"/><path fill="#A82526" d="M22 5.9c2.6 2.5 4.4 5 4.1 5.6-.3.6-2.7-.9-5.3-3.4-2.6-2.5-4.4-5-4.1-5.6.3-.6 2.7.9 5.3 3.4"/><path fill="#A82526" d="M21.6 5.7c3 1.3 5.3 3 5.2 3.7-.1.7-2.7.3-5.7-1.1-3-1.3-5.3-3-5.2-3.7.2-.7 2.7-.2 5.7 1.1"/><path fill="#A82526" d="M21.2 5.6c3.1 0 5.6.6 5.7 1.3.1.8-2.4 1.4-5.4 1.4-3.1 0-5.6-.6-5.7-1.3s2.4-1.4 5.4-1.4"/><path fill="#A82526" d="M20.9 5.7c2.8-1.4 5.2-1.9 5.5-1.2.3.7-1.7 2.4-4.5 3.8s-5.2 1.9-5.5 1.2c-.3-.8 1.7-2.4 4.5-3.8"/><path fill="#A82526" d="M20.6 5.9c2.1-2.5 4.2-4.1 4.6-3.5.4.6-.9 3.1-3 5.6-2.1 2.5-4.2 4.1-4.6 3.5-.5-.5.9-3 3-5.6"/><path fill="#A82526" d="M20.4 6.3C21.6 2.9 23 .5 23.6.9c.6.4 0 3.4-1.2 6.8s-2.6 5.8-3.2 5.4c-.6-.3 0-3.4 1.2-6.8"/><path fill="#A82526" d="M20.3 6.8c.2-3.8.8-6.8 1.4-6.7.6.1 1 3.3.8 7.2-.2 3.8-.8 6.8-1.4 6.7-.6-.2-1-3.4-.8-7.2"/><defs><path id="q" d="M15.8 0h11.3v14H15.8z"/></defs><clipPath id="r"><use xlink:href="#q" overflow="visible"/></clipPath><path clip-path="url(#r)" fill="#A82526" d="M20.8 1.7c-.1-.3-.3-.6-.5-.9-.1-.1-.2-.3-.3-.4-.1-.1-.2-.3-.4-.2-.1 0-.1.1-.1.1 0 .1-.1.1-.1.2V2v-.1c.4.5.8 1 1.1 1.5h-.2c.3-.5.4-1.1.5-1.7m.1 0c0 .6-.1 1.2-.2 1.8v.3l-.2-.2c-.4-.5-.7-1-1.1-1.5v-1c0-.2 0-.3.1-.5 0-.1 0-.2.1-.3.1-.1.1-.2.2-.2.2 0 .3.2.5.3.1.1.2.3.3.4 0 .2.1.6.3.9zM21.9 12.3c.1.3.3.6.5.9.1.1.2.3.3.4 0 .1.1.1.2.2.1 0 .1.1.2.1s.1-.1.1-.2.1-.1.1-.2V13v-1 .1c-.4-.5-.8-1-1.1-1.5h.2c-.2.5-.3 1.1-.5 1.7m0 0c0-.6.1-1.2.2-1.8v-.3l.2.2c.4.5.7 1 1.1 1.5v1c0 .2 0 .3-.1.5 0 .1-.1.2-.1.3-.1.1-.1.2-.2.2s-.2 0-.3-.1l-.2-.2c-.1-.1-.2-.3-.3-.4 0-.2-.2-.5-.3-.9z"/><path clip-path="url(#r)" fill="#A82526" d="M23.3 12c.2.2.4.5.7.7.1.1.3.2.4.3.1 0 .1.1.2.1s.1 0 .2-.1v-.4c0-.2-.1-.3-.1-.5l-.3-.9c-.5-.3-.9-.6-1.4-1l.2-.1c0 .6.1 1.3.1 1.9m0 0c-.1-.6-.2-1.3-.3-1.9v-.3l.2.1c.5.3.9.6 1.4 1 .1.3.2.6.3 1 0 .2.1.3.1.5s0 .3-.1.5c0 .1-.2.2-.2.1-.1 0-.2-.1-.3-.1-.1-.1-.3-.2-.4-.3-.3-.1-.5-.3-.7-.6zM19.4 2c-.2-.2-.4-.5-.7-.7-.1-.1-.3-.2-.4-.3-.1 0-.1-.1-.2-.1L18 1v.5c0 .1 0 .3.1.5l.3.9c.5.3.9.6 1.4 1l-.2.1c-.1-.7-.1-1.4-.2-2m.1 0c.1.6.2 1.3.3 1.9v.3l-.2-.2c-.5-.3-.9-.6-1.4-1-.1-.3-.2-.6-.3-1 0-.2-.1-.3-.1-.5s0-.3.1-.5c0-.1.2-.2.2-.1.1 0 .2.1.3.1.1.1.3.2.4.3.2.2.5.4.7.7z"/><path clip-path="url(#r)" fill="#A82526" d="M20.5 3.5l-1.2-1.4.2-.1c.1.6.2 1.3.1 1.9-.2-.6-.3-1.3-.3-1.9v-.3l.2.3 1 1.5zM22.2 10.5l1.2 1.4-.2.1c-.1-.6-.2-1.3-.1-1.9.2.6.3 1.3.3 1.9v.3l-.2-.2-1-1.6zM18.3 2.9c-.3-.2-.6-.3-.9-.4-.1 0-.3-.1-.5-.1-.1 0-.1 0-.2.1 0 0-.1.1-.1.2 0 .3.2.6.3.8.2.3.3.5.5.8h-.1l1.5.3-.1.1c0-.5-.3-1.1-.4-1.8m0 0c.3.6.5 1.2.8 1.7l.1.2H19c-.5-.1-1-.2-1.5-.4-.2-.3-.4-.5-.5-.8-.1-.1-.1-.3-.2-.4-.1-.2-.1-.3-.1-.5 0-.1 0-.2.1-.2.1-.1.2-.1.3-.1.2 0 .3.1.5.1.1.1.4.3.7.4zM24.5 11.1c.3.2.6.3.9.4.1 0 .3.1.5.1.1 0 .1 0 .2-.1 0 0 .1-.1.1-.2 0-.3-.2-.6-.3-.8-.2-.3-.3-.5-.5-.8h.1L24 9.4l.1-.1c0 .5.2 1.1.4 1.8m0 0c-.3-.6-.5-1.2-.8-1.7l-.1-.2.2.1c.5.1 1 .2 1.5.4.2.3.4.5.5.8.1.1.1.3.2.4.1.2.1.3.1.5 0 .1 0 .2-.1.2-.1.1-.2.1-.3.1-.2 0-.3-.1-.5-.1-.2-.2-.4-.4-.7-.5z"/><path clip-path="url(#r)" fill="#A82526" d="M23.1 10.1l1.4.9-.1.1c-.3-.6-.5-1.2-.7-1.8.3.6.6 1.2.8 1.8l.1.3-.2-.2-1.3-1.1zM19.7 3.9L18.2 3l.1-.1c.3.6.5 1.2.7 1.8-.3-.6-.6-1.1-.8-1.8l-.1-.3.2.2 1.4 1.1zM24.2 8.2l1.2 1.4c.3 0 .6.1.9 0 .1 0 .3 0 .4-.1.1 0 .1-.1.1-.1v-.2c0-.1-.1-.2-.2-.3l-.3-.3c-.3-.3-.5-.4-.7-.6h.1c-.5.1-1 .2-1.5.2m0 0c.5-.2 1-.3 1.4-.4.3.2.5.4.7.6.1.1.2.2.3.4.1.1.2.3.2.5v.3c0 .1-.1.2-.2.2-.2.1-.3.1-.5.1-.3 0-.6 0-.9-.1l-1-1.6zM18.6 5.8l-1.2-1.4c-.3 0-.6-.1-.9 0-.1 0-.3 0-.4.1-.1 0-.1.1-.1.1v.2c0 .1.1.2.2.3l.3.3c.2.3.5.4.7.6h-.1c.5-.1 1-.2 1.5-.2m0 0c-.5.2-1 .3-1.4.4-.3-.2-.5-.4-.7-.6-.1-.1-.2-.2-.3-.4-.2-.1-.3-.2-.4-.4v-.3c0-.1.1-.2.2-.2.2-.1.3-.1.5-.1.3 0 .6 0 .9.1l1.2 1.5z"/><path clip-path="url(#r)" fill="#A82526" d="M19 4.7l-1.5-.3.1-.1c.2.2.4.5.6.7.1.1.2.3.3.4.1.1.2.3.2.4l-.3-.3s-.3-.2-.4-.3c-.2-.2-.4-.5-.5-.7l-.1-.2.2.1 1.4.3zM23.8 9.3l1.5.3-.1.1c-.2-.2-.4-.5-.6-.7-.1-.1-.2-.3-.3-.4-.1-.1-.2-.3-.2-.4l.3.3.3.3c.2.2.4.5.5.7l.1.2-.2-.1-1.3-.3zM25.4 6.1l-1.2 1V7l1.4.9h-.1c.3-.1.6-.2.8-.3.2-.1.5-.3.4-.5 0-.1-.1-.2-.2-.3-.1-.1-.2-.2-.4-.2-.1-.3-.4-.4-.7-.5m0-.1c.3.1.6.1.9.2.1.1.3.1.4.2.1 0 .1.1.2.2s.1.2.1.3V7c.1 0 0 0 0 0v.1c0 .1-.1.2-.1.2-.1.1-.2.2-.4.3l-.9.3-1.4-.9h-.1.1l1.2-1zM17.1 6.1c-.3.1-.6.2-.8.3-.2.1-.5.4-.4.6 0 .1.1.2.2.3.1.1.2.1.4.2.3.1.5.2.8.3h-.1l1.2-1V7l-1.3-.9zm0 0l1.5.8.1.1-.1.1-1.2.9c-.4 0-.7-.1-.9-.3-.1-.1-.3-.1-.4-.2-.1-.1-.3-.2-.3-.4v-.2c0-.1.1-.1.1-.2.1-.1.2-.2.4-.3.3-.1.6-.2.8-.3z"/><path clip-path="url(#r)" fill="#A82526" d="M24.2 8.2l1.4-.4v.1c-.5-.3-1-.6-1.4-1 .5.2 1 .5 1.5.9l.2.1h-.2l-1.5.3zM18.6 5.8l-1.4.4v-.1c.5.3 1 .6 1.4 1-.5-.2-1-.5-1.5-.9l-.2-.1h.2l1.5-.3zM17.3 8l-.6.6c-.1.1-.2.2-.2.4-.1.1-.1.3-.1.4 0 .1.1.1.1.2 0 0 .1.1.2.1s.3.1.4.1c.3 0 .6 0 .9-.1h-.1c.3-.5.6-1 .8-1.5l.1.2c-.5-.2-1-.3-1.5-.4m0 0c.5 0 1 .1 1.5.2h.1l-.1.1c-.3.5-.6 1-.9 1.4-.3 0-.6.1-.9.1-.2 0-.3 0-.5-.1-.1 0-.1-.1-.2-.1 0-.1-.1-.1-.1-.2 0-.2 0-.3.1-.5.1-.1.2-.3.3-.4.3-.1.5-.3.7-.5zM25.4 6l.6-.6c.1-.1.2-.2.2-.4.1-.1.1-.3.1-.4 0-.1-.1-.1-.1-.2 0 0-.1-.1-.2-.1s-.3-.1-.4-.1c-.3 0-.6 0-.9.1h.1c-.3.5-.5 1-.8 1.5l-.1-.2c.5.2 1 .3 1.5.4m0 .1c-.5 0-1-.1-1.5-.2h-.1l.1-.1c.3-.5.6-1 .9-1.4.3 0 .6-.1.9-.1.2 0 .3 0 .5.1.1 0 .1.1.2.1 0 .1.1.1.1.2 0 .2 0 .3-.1.5-.1.1-.2.3-.3.4-.2.1-.4.3-.7.5z"/><path clip-path="url(#r)" fill="#A82526" d="M24.2 7l1.2-1v.2c-.5 0-1-.2-1.5-.4.5 0 1 .1 1.5.2h.2l-.1.1-1.3.9zM18.6 7l-1.2 1v-.2c.5 0 1 .2 1.5.4-.5 0-1-.1-1.5-.2h-.3l.1-.1 1.4-.9zM24.8 4.3c.1-.3.2-.6.3-.8.1-.3.2-.6.1-.9 0-.1 0-.1-.1-.2h-.2c-.1 0-.3.1-.4.1-.3.1-.5.3-.8.5v-.1c-.1.6-.2 1.2-.4 1.8l-.1-.1c.6-.1 1.1-.2 1.6-.3m0 0c-.5.2-.9.3-1.4.5h-.2v-.2c.1-.6.2-1.2.4-1.8.3-.2.5-.3.8-.5.1-.1.3-.1.5-.1.1 0 .2 0 .3.1.1 0 .1.1.1.2V3c0 .2-.1.3-.1.4-.1.4-.3.6-.4.9zM18 9.7c-.1.3-.3.6-.3.8-.1.3-.2.6-.1.9 0 .1 0 .1.1.2h.2c.1 0 .3-.1.4-.1.3-.1.5-.3.8-.5v.1c.1-.6.2-1.2.4-1.8l.1.1c-.6.1-1.1.2-1.6.3m0 0c.5-.2.9-.3 1.4-.5h.2v.2c-.1.6-.2 1.2-.4 1.8-.3.2-.5.3-.8.5-.1.1-.3.1-.5.1-.1 0-.2 0-.3-.1-.1 0-.1-.1-.1-.2V11c0-.2.1-.3.1-.4.1-.4.3-.6.4-.9z"/><path clip-path="url(#r)" fill="#A82526" d="M18.9 8.3l-.8 1.5-.1-.2c.5-.2.9-.3 1.5-.3-.5.2-1 .4-1.5.5h-.2l.1-.2 1-1.3zM23.9 5.8l.8-1.5.1.1c-.5.2-.9.3-1.5.3.5-.2.9-.4 1.4-.5h.2l-.1.2-.9 1.4zM23.7 2.9c0-.3.1-.6.1-.9 0-.3 0-.6-.1-.9-.1-.1-.1-.1-.2-.1h-.2c-.1 0-.3.1-.4.2-.2.2-.4.5-.5.8v-.1c.1.6.1 1.3.2 1.9l-.2-.1c.4-.2.8-.5 1.3-.8m0 0c-.4.4-.8.7-1.1 1.1l-.1.1v-.2c-.1-.6-.1-1.3-.2-1.9.2-.3.4-.5.6-.8.1-.2.2-.3.3-.4.1 0 .2-.1.3 0 .1 0 .2.1.2.2.1.3.1.7.1 1 0 .3-.1.6-.1.9zM19.1 11.1c0 .3-.1.6-.1.9 0 .3 0 .6.1.9l.1.1h.2l.3-.3c.2-.2.4-.5.5-.8v.1c-.1-.6-.1-1.3-.2-1.9l.2.1c-.3.3-.7.6-1.1.9m0 0c.4-.4.8-.7 1.1-1.1l.1-.1v.2c.1.6.1 1.3.2 1.9-.2.3-.4.5-.6.8-.1.1-.2.2-.4.3-.1 0-.2.1-.3 0-.1 0-.2-.1-.2-.2-.1-.3-.1-.7-.1-1 .1-.2.1-.5.2-.8z"/><path clip-path="url(#r)" fill="#A82526" d="M23.3 4.7l.3-1.8.1.1c-.4.4-.8.7-1.2.9.3-.4.7-.8 1.2-1.1l.2-.1-.1.2-.5 1.8zM19.5 9.3l-.3 1.8-.2-.1c.4-.4.8-.7 1.2-.9-.3.4-.7.8-1.2 1.1l-.2.1.1-.2.6-1.8zM20.4 12c.1.3.1.7.2 1 0 .2.1.3.2.5s.1.3.2.4h.2s.1-.1.1-.2c.1-.1.1-.3.2-.4.1-.3.2-.6.3-1v.1c-.2-.6-.5-1.2-.7-1.8h.2c-.3.5-.5 1-.9 1.4m0 0c.2-.5.5-1 .7-1.5l.1-.2.1.2c.2.6.4 1.2.7 1.8-.1.3-.2.6-.3 1-.1.2-.1.3-.2.5l-.2.2H21c-.1-.1-.2-.3-.3-.4-.1-.2-.1-.3-.1-.5-.1-.4-.1-.7-.2-1.1zM22.3 2c-.1-.3-.1-.7-.2-1 0-.2-.1-.3-.2-.5s-.1-.3-.2-.4h-.1-.1s-.1.1-.1.2c-.1.1-.1.3-.2.4-.1.3-.2.6-.3 1v-.1c.2.6.5 1.2.7 1.8h-.2c.3-.5.6-1 .9-1.4m0 0c-.2.5-.5 1-.7 1.5l-.1.2-.1-.2c-.2-.6-.4-1.2-.7-1.8.1-.3.2-.6.3-1 .1-.2.1-.3.2-.5l.2-.2h.1c.1 0 .1 0 .1.1.1.1.2.3.3.4.1.2.1.3.1.5.3.3.3.6.3 1z"/><path clip-path="url(#r)" fill="#A82526" d="M21.5 3.5l-.7-1.8h.2c-.1.6-.2 1.2-.4 1.8 0-.6.1-1.2.2-1.8l.1-.3.1.3.5 1.8zM21.2 10.5l.7 1.8h-.2c.1-.6.2-1.2.4-1.8 0 .6-.1 1.2-.2 1.8l-.1.3-.1-.3-.5-1.8z"/><path clip-path="url(#r)" fill="#A82526" d="M22.5 3.9L22.2 2h.2c-.2.5-.5 1-.9 1.5.2-.5.4-1.1.7-1.5l.2-.2v.3l.1 1.8zM20.3 10.1l.2 1.9h-.2c.2-.5.5-1 .9-1.5-.2.5-.4 1.1-.7 1.5l-.2.2v-2.1z"/><path fill="#9A1C1F" d="M24.4 6.3c.5 2.2-.4 4.3-2.1 4.7-1.7.4-3.5-1-4-3.2s.4-4.3 2.1-4.7c1.7-.4 3.5 1 4 3.2"/><ellipse transform="rotate(-13.344 21.383 7.002)" fill="none" stroke="#68111E" stroke-width=".25" stroke-miterlimit="10" cx="21.4" cy="7" rx="3.1" ry="4.1"/><g><defs><path id="s" d="M18.6 4.2h4.5v5.7h-4.5z"/></defs><clipPath id="t"><use xlink:href="#s" overflow="visible"/></clipPath><path clip-path="url(#t)" fill="#9A1C1F" d="M23 6.5c.4 1.5-.3 3-1.5 3.3-1.2.3-2.5-.7-2.8-2.3-.4-1.5.3-3 1.5-3.3s2.5.8 2.8 2.3"/></g><path fill="#597F5C" d="M15.1 36.4c-.2-2.3-1.2-7.9-2.8-13-2-6.6-4.3-10.3-6.8-11l-.3 1c4.9 1.5 8.4 18.2 8.8 23.1l1.1-.1z"/><path fill="#FBB03B" d="M4.8 13c-.4 3.2-.3 5.8.2 5.9s1.2-2.5 1.6-5.7c.4-3.1.3-5.8-.2-5.8-.5-.1-1.2 2.5-1.6 5.6"/><path fill="#FBB03B" d="M4.9 12.7c-1.2 2.9-1.8 5.5-1.4 5.7.4.3 1.8-1.9 3-4.7C7.7 10.8 8.3 8.2 7.9 8c-.4-.4-1.7 1.8-3 4.7"/><path fill="#FBB03B" d="M5.1 12.3c-1.9 2.2-3.1 4.4-2.8 4.9.3.4 2.1-1 4-3.3C8.2 11.7 9.4 9.5 9.1 9c-.3-.4-2.1 1.1-4 3.3"/><path fill="#FBB03B" d="M5.4 12.1c-2.3 1.3-4.1 2.9-3.9 3.5s2.2 0 4.5-1.4c2.3-1.3 4.1-2.9 3.9-3.5-.1-.5-2.2.1-4.5 1.4"/><path fill="#FBB03B" d="M5.7 12c-2.5.3-4.5 1-4.5 1.6 0 .6 2 .9 4.5.7 2.5-.3 4.5-1 4.5-1.6s-2-.9-4.5-.7"/><path fill="#FBB03B" d="M6 12c-2.4-.8-4.4-1-4.6-.4-.2.6 1.6 1.8 4 2.6s4.4 1 4.6.4c.2-.5-1.6-1.7-4-2.6"/><path fill="#FBB03B" d="M6.3 12.2c-1.9-1.9-3.8-2.9-4.1-2.4s1 2.4 2.9 4.3 3.8 2.9 4.1 2.4c.3-.5-1-2.4-2.9-4.3"/><path fill="#FBB03B" d="M6.5 12.5C5.2 9.9 3.8 8 3.4 8.4c-.4.3.3 2.8 1.6 5.4 1.3 2.6 2.7 4.5 3.1 4.1.4-.3-.3-2.8-1.6-5.4"/><path fill="#FBB03B" d="M6.6 12.9c-.5-3.1-1.3-5.5-1.7-5.4-.5.2-.5 2.8 0 5.9s1.3 5.5 1.7 5.3c.5-.1.5-2.7 0-5.8"/><g><defs><path id="u" d="M1.1 7.3h9.1v11.6H1.1z"/></defs><clipPath id="v"><use xlink:href="#u" overflow="visible"/></clipPath><path clip-path="url(#v)" fill="#FBB03B" d="M5.7 8.8c0-.3.1-.6.2-.8.1-.1.1-.3.2-.4.1-.1.1-.3.3-.3.2 0 .2.2.3.3 0 .1.1.3.1.4.1.3.1.5.1.8-.2.4-.5.9-.7 1.3l-.1.2v-.2c-.2-.3-.3-.8-.4-1.3zm0 0c.2.4.3.9.5 1.4H6c.2-.4.5-.9.8-1.3 0-.3 0-.5-.1-.8 0-.1 0-.3-.1-.4 0-.1 0-.1-.1-.2l-.1-.1c-.1 0-.2.1-.3.2 0 .2-.1.3-.1.4-.2.3-.2.5-.3.8M5.8 17.5c-.1.3-.2.5-.3.8-.1.1-.1.3-.2.4 0 .1-.1.3-.3.3-.1 0-.1-.1-.2-.1 0-.1-.1-.1-.1-.2s-.1-.3-.1-.4c-.1-.3-.1-.6-.1-.8.3-.6.5-1 .8-1.5l.1-.2v.2c.2.5.3 1 .4 1.5zm0 0c-.2-.5-.3-.9-.5-1.4h.2c-.2.4-.5.9-.8 1.3 0 .3 0 .5.1.8 0 .1 0 .3.1.4.1.1.1.2.2.3 0 0 .1 0 .1-.1 0 0 .1-.1.1-.2.1-.1.1-.2.2-.4s.2-.4.3-.7"/><path clip-path="url(#v)" fill="#FBB03B" d="M4.6 17.4c-.1.2-.3.5-.5.7l-.3.3c-.1 0-.1.1-.2.1s-.2 0-.2-.1c-.1-.1-.1-.3-.1-.4v-.4c0-.3.1-.5.1-.8.3-.3.7-.6 1-.9l.2-.1v.2c.1.3.1.9 0 1.4zm0 0c-.1-.5-.1-1-.1-1.6l.1.1c-.3.3-.7.6-1.1.9-.1.3-.1.5-.2.8v.4c0 .1 0 .3.1.4 0 .1.1.1.1.1.1 0 .1 0 .2-.1l.4-.4c.2-.2.4-.4.5-.6M6.8 8.9c.2-.2.3-.4.5-.7.1-.1.2-.2.3-.2.1 0 .1-.1.2-.1s.2 0 .2.1c.1.1.1.3.1.4v.4c0 .3-.1.5-.1.8-.3.3-.7.6-1 .9l-.2.1v-.2-1.5zm0 0c.1.5.1 1 .1 1.6l-.1-.1c.3-.3.7-.6 1.1-.9 0-.2 0-.5.1-.7v-.4c0-.2 0-.3-.1-.4 0-.1-.1-.1-.1-.1-.1 0-.1.1-.2.1l-.3.3c-.1.2-.3.4-.5.6"/><path clip-path="url(#v)" fill="#FBB03B" d="M6.1 10.2l.7-1.3.1-.2v.2c0 .5 0 1.1-.1 1.6-.1-.5-.1-1-.1-1.6h.1l-.7 1.3zM5.4 16.1l-.7 1.3-.1.2v-.2c0-.5 0-1.1.1-1.6.1.5.1 1 .1 1.6h-.1l.7-1.3zM7.9 9.6c.2-.2.4-.3.6-.5.1 0 .2-.1.4-.1.1-.1.3 0 .3.2 0 .3-.1.5-.2.8-.1.2-.2.5-.3.7-.4.2-.8.3-1.2.4l-.2.1.1-.2c.1-.4.3-.9.5-1.4zm0 0l-.3 1.5-.2-.1c.4-.1.8-.3 1.2-.4.1-.2.3-.5.4-.7 0-.2.1-.5.1-.7 0-.1 0-.1-.1-.1C9 9 9 9 8.9 9s-.2.1-.4.1c-.2.2-.4.3-.6.5M3.6 16.7c-.2.2-.4.3-.6.5-.1.1-.2.1-.4.1-.1.1-.3-.1-.3-.2 0-.3.1-.5.2-.8.1-.2.2-.5.3-.7.4-.2.8-.3 1.2-.4l.2-.1-.1.2c-.2.4-.3.9-.5 1.4zm0 0l.3-1.5.1.1c-.4.1-.8.3-1.2.4-.1.2-.3.5-.4.7-.1.2-.2.5-.2.7 0 .1.1.2.2.2s.2-.1.4-.1c.3-.2.6-.3.8-.5"/><path clip-path="url(#v)" fill="#FBB03B" d="M4.6 15.8l-1 1-.2.1v-.2c.1-.5.3-1 .5-1.5-.1.5-.2 1-.4 1.5l-.1-.1 1.2-.8zM6.8 10.5l1-1 .2-.1v.2c-.1.5-.3 1-.5 1.5.1-.5.2-1 .4-1.5l.1.1-1.2.8zM3.6 14.4l-.8 1.3c-.2.1-.5.1-.7.1h-.4c-.1 0-.1-.1-.2-.1-.1-.1-.1-.2-.1-.2 0-.2.1-.3.1-.4.1-.1.1-.2.2-.3.2-.2.3-.4.5-.5.6-.1 1 0 1.4.1zm0 0H2.4h.1c-.2.2-.4.3-.5.5-.1.1-.2.1-.3.2-.1.1-.1.2-.1.3v.1l.1.1H2c.2 0 .5-.1.7-.1l.9-1.1zM7.9 11.9l.8-1.3c.2-.1.5-.1.7-.1h.4c.1 0 .1.1.2.1.1.1.1.2.1.2 0 .2-.1.3-.1.4-.1.1-.1.2-.2.3-.2.2-.3.4-.5.5-.6.1-1 0-1.4-.1zm0 0h1.2L9 12c.2-.2.4-.3.5-.5.1-.1.2-.2.2-.3.1-.1.1-.2.1-.3v-.1l-.1-.1h-.3c-.2 0-.5.1-.7.1l-.8 1.1z"/><path clip-path="url(#v)" fill="#FBB03B" d="M7.5 11.1l1.2-.5.2-.1-.1.2c-.2.4-.5.9-.8 1.2 0-.5.3-.9.6-1.3l.1.1-1.2.4zM4 15.2l-1.2.5-.2.1.1-.2c.2-.4.5-.9.8-1.2-.2.5-.4.9-.7 1.3l-.1-.1 1.3-.4zM2.4 12.7l1.1.6-1 .9c-.2 0-.5-.1-.7-.2-.1 0-.2-.1-.3-.2-.1 0-.1-.1-.1-.2 0 0-.1-.2 0-.2 0-.1.1-.3.2-.3.1-.1.2-.2.3-.2 0 0 .2-.1.5-.2zm0 .1l-.6.3c-.1.1-.2.1-.3.2-.1.1-.1.1-.1.3 0 .2.2.3.4.4.2.1.4.2.7.2h-.1l1.1-.9v.1l-1.1-.6zM9.1 12c.2 0 .5.1.7.2.1 0 .2.1.3.2.1 0 .1.1.1.1s.1.1 0 .2c0 .1-.1.3-.2.3-.1.1-.2.2-.3.2-.2.1-.4.2-.7.3L8 13l-.1-.1.1-.1 1.1-.8zm0 .1l-1 .9v-.1l1.1.7h-.1c.2-.1.4-.2.7-.3.1-.1.2-.1.3-.2.1-.1.2-.2.2-.3 0-.2-.2-.4-.4-.5-.3-.1-.6-.2-.8-.2"/><path clip-path="url(#v)" fill="#FBB03B" d="M3.6 14.4l-1.2-.1h-.2l.1-.1c.3-.3.7-.6 1.1-.8-.3.4-.6.7-1 .9v-.1l1.2.2zM7.9 11.9l1.2.1h.2l-.1.1c-.3.3-.7.6-1.1.8.3-.4.6-.7 1-.9v.1l-1.2-.2zM9.1 13.6c.2.1.4.3.6.4.1.1.2.2.2.3.1.1.1.2.1.4 0 .1-.1.3-.2.3s-.2 0-.3.1h-.7c-.3-.4-.6-.7-.8-1.1l-.1-.1H8c.3-.1.7-.3 1.1-.3zm0 0c-.4.2-.8.3-1.2.4v-.1c.3.4.6.7.8 1.1h-.1.7c.1 0 .2 0 .3-.1.1 0 .1-.1.1-.1l.1-.1c0-.2-.2-.4-.3-.6 0-.2-.2-.4-.4-.5M2.3 12.7c-.2-.1-.4-.3-.6-.4-.1-.1-.2-.2-.2-.3-.1-.1-.1-.2-.1-.4 0-.1.1-.3.2-.3.1-.1.2-.1.4-.1h.7c.3.4.6.7.8 1.1l.1.1h-.1c-.3.2-.7.3-1.2.3zm.1 0c.4-.2.8-.3 1.2-.4v.1c-.3-.4-.6-.7-.8-1.1h.1-.7c-.1 0-.2 0-.3.1-.1 0-.1.1-.1.1l-.1.1c0 .2.2.4.3.6 0 .2.2.4.4.5"/><path clip-path="url(#v)" fill="#FBB03B" d="M3.4 13.4l-1.1-.6-.1-.1.1-.1c.4-.2.8-.3 1.2-.3-.4.2-.8.3-1.2.4v-.1l1.1.8zM8 12.9l1.1.6.1.1-.1.1c-.4.2-.8.3-1.2.3.4-.2.8-.3 1.2-.4v.1L8 12.9zM2.7 11.3c-.1-.2-.3-.4-.4-.6-.1-.2-.2-.5-.2-.7 0-.1 0-.2.1-.2 0 0 .1-.1.2-.1h.4c.3 0 .5.2.7.3.2.5.3.9.5 1.4v.1h-.1c-.4-.1-.8-.1-1.2-.2zm0 0c.4 0 .8.1 1.2.1l-.1.1c-.2-.5-.3-1-.5-1.4-.1-.1-.3-.2-.5-.3-.1 0-.2-.1-.3-.1-.1 0-.1 0-.1.1-.1 0-.1.1-.1.1 0 .2.1.5.2.7 0 .2.1.4.2.7M8.7 15c.1.2.3.4.4.6.1.2.2.5.2.7 0 .1 0 .2-.1.2 0 0-.1.1-.2.1h-.4c-.2-.1-.5-.2-.7-.3-.2-.5-.3-.9-.5-1.4v-.1h.1c.4.1.8.1 1.2.2zm0 0c-.4 0-.8-.1-1.2-.1l.1-.1c.2.5.3 1 .5 1.4.2.1.4.2.7.3.1 0 .2.1.3.1.1 0 .1 0 .1-.1.1 0 .1-.1.1-.1 0-.2-.1-.5-.2-.7-.1-.2-.3-.4-.4-.7"/><path clip-path="url(#v)" fill="#FBB03B" d="M7.9 13.9l.9 1.1.1.1h-.2c-.4 0-.8-.1-1.2-.2.4 0 .8 0 1.2.1l-.1.1-.7-1.2zM3.6 12.4l-.9-1.1-.1-.1h.2c.4 0 .8.1 1.2.2-.4 0-.8 0-1.2-.1l.1-.1.7 1.2zM3.5 10c-.1-.2-.2-.5-.2-.7 0-.3-.1-.5 0-.8 0-.1.1-.1.1-.2h.2c.1 0 .2.1.3.2.2.2.4.4.5.6 0 .5.1 1 .1 1.6v.2l-.1-.1c-.2-.3-.6-.5-.9-.8zm0 0c.4.2.7.4 1.1.6l-.1.1V9.1c-.2-.1-.4-.3-.6-.5-.1-.1-.2-.1-.3-.2h-.1c-.1 0-.1.1-.1.1-.1.2-.1.5-.1.8.1.2.1.5.2.7M8 16.3c0 .2.1.5.2.7 0 .3.1.5 0 .8-.1.1-.1.2-.2.2h-.2c-.1 0-.2-.1-.3-.2-.2-.2-.4-.4-.5-.6 0-.5-.1-1-.1-1.6v-.2l.1.1c.3.3.6.5 1 .8zm0 0c-.4-.2-.7-.4-1.1-.6l.1-.1v1.6c.2.2.3.4.5.6.1.1.2.2.3.2h.1c.1 0 .1-.1.1-.1.1-.2.1-.5 0-.8.1-.3 0-.6 0-.8"/><path clip-path="url(#v)" fill="#FBB03B" d="M3.9 11.5l-.5-1.4-.1-.2.2.1c.4.2.7.5 1 .8-.4-.2-.8-.4-1.1-.6l.2-.2.3 1.5zM7.5 14.9l.5 1.4.1.2-.2-.1c-.4-.2-.7-.5-1-.8.4.2.8.4 1.1.6l-.1.1-.4-1.4zM7 17.1v.8c0 .1 0 .3-.1.4 0 .1-.1.3-.2.4-.1.1-.2.1-.2 0-.1 0-.1-.1-.2-.1-.1-.1-.2-.2-.2-.4-.1-.2-.2-.5-.3-.8.1-.5.2-1 .4-1.5v-.2.3c.3.3.5.7.8 1.1zm-.1 0c-.3-.4-.6-.7-.8-1.1h.1c-.1.5-.2 1-.4 1.5.1.3.2.5.4.7.1.1.1.2.2.3l.1.1h.2c.1-.1.1-.2.2-.3 0-.1.1-.3.1-.4-.1-.2-.1-.5-.1-.8M4.5 9.2v-.8c0-.1 0-.3.1-.4 0-.1.1-.3.2-.4.1-.1.2-.1.2 0 .1 0 .1.1.2.1.1.1.1.2.2.3.1.2.2.5.3.8-.1.5-.2 1-.4 1.5l-.1.2-.1-.2c-.1-.3-.4-.7-.6-1.1zm0 0c.3.4.6.7.8 1.1h-.1c.1-.5.2-1 .4-1.5-.1-.3-.2-.5-.3-.7-.1-.2-.1-.3-.2-.4L5 7.6h-.1-.1c-.1.1-.1.2-.1.4 0 .1-.1.3-.1.4-.1.2-.1.5-.1.8"/><path clip-path="url(#v)" fill="#FBB03B" d="M5.3 10.3l.3-1.5v-.2l.1.2c.2.5.3 1 .4 1.5-.2-.5-.4-1-.5-1.5h.1l-.4 1.5zM6.2 16l-.3 1.5v.2l-.1-.2c-.2-.5-.3-1-.4-1.5.2.5.4.9.5 1.4h-.1l.4-1.4zM4.5 10.7l-.1-1.5V9l.1.2c.3.4.5.8.7 1.2-.2-.4-.5-.8-.8-1.2h.1v1.5zM6.9 15.6l.1 1.5v.2l-.1-.2c-.3-.4-.5-.8-.7-1.2.3.3.6.7.8 1.1h-.1v-1.4z"/></g><path fill="#E5952E" d="M3.2 12.8c-.2 1.8.7 3.4 2.1 3.6 1.4.2 2.7-1.2 2.9-3 .2-1.8-.7-3.4-2.1-3.6-1.4-.1-2.7 1.2-2.9 3"/><ellipse transform="rotate(-173.073 5.728 13.15)" fill="none" stroke="#A77C39" stroke-width=".204" stroke-miterlimit="10" cx="5.7" cy="13.2" rx="2.6" ry="3.3"/><g><defs><path id="w" d="M4.3 10.8h3.6v4.7H4.3z"/></defs><clipPath id="x"><use xlink:href="#w" overflow="visible"/></clipPath><path clip-path="url(#x)" fill="#E5952E" d="M4.4 12.9c-.2 1.3.5 2.4 1.5 2.5 1 .1 1.9-.8 2.1-2.1.2-1.3-.5-2.4-1.5-2.5-1.1-.1-2 .8-2.1 2.1"/></g></svg>