<svg xmlns="http://www.w3.org/2000/svg" xmlns:xlink="http://www.w3.org/1999/xlink" width="62.7" height="42.4" viewBox="0 0 62.7 42.4"><defs><path id="a" d="M1.2 1.8h60v40.7h-60z"/></defs><clipPath id="b"><use xlink:href="#a" overflow="visible"/></clipPath><path clip-path="url(#b)" fill="#C8C7C7" d="M1.2 1.8l.6 37.3 13.9 3.3 15.6-3.5L47 42.1l14.2-2.2V6.7L13.5 12"/><path fill="#208BB5" d="M61.6 35.7c-1.9.7-3.6 1.3-5.3 2-1.7.6-3.4 1.2-5 1.8-1.6.6-3.2 1.9-4.7 1.4l-4.5-1.5c-1.5-.5-2.9-.9-4.4-1.4-1.4-.5-2.8-.9-4.3-1.4s-2.8-.5-4.2 0c-1.4.5-2.8.9-4.3 1.4-1.4.5-2.9.9-4.4 1.4L16 40.9c-1.5.5-3.1-.8-4.7-1.4-1.6-.6-3.3-1.2-5-1.8-1.7-.6-3.5-1.3-5.3-2v-5.5-4.9-4.5-4.4-4.5V7 1.5c1.9.6 3.7 1.3 5.4 1.9 1.7.6 3.4 1.2 5 1.7 1.6.6 3.2 1.8 4.7 1.3l4.5-1.5c1.5-.5 2.9-1 4.3-1.5l4.2-1.5c1.4-.5 2.8-.5 4.2 0l4.2 1.5c1.4.5 2.9 1 4.3 1.5l4.5 1.5c1.5.5 3.1-.7 4.7-1.3 1.6-.6 3.3-1.1 5-1.7 1.7-.6 3.5-1.2 5.4-1.9V30.2c.2 1.7.2 3.5.2 5.5"/><path fill="#ACBFAD" d="M36.6 12.9v-.3h.1c-.1-.1-.3-.1-.5-.1.1.2.1.3.2.4.1-.1.1-.1.2 0M45 13.9c-.5.2-1 .7-1.4 1 .5.1 1 .3 1.5.5.1 0 .2 0 .3.1-.1 0-.2-.1-.3-.1-.3 0-.5.3-.8.7.4-.1.8 0 1.3.1 0-.4-.1-.9 0-1.1.1-.3.7-.4.9-.3v-.5c-.6-.4-1.1-.6-1.5-.4"/><path fill="#ACBFAD" d="M38.8 13.3c-.1 0-.2-.1-.3 0-.2.2-.1.6-.3.8-.2.3-.8.1-1.1 0v-.2l-.1-.1-.5-.5-.4.2c-.2-.1-.2-.1-.4-.1l-.2-.4c0-.1.1-.1.1-.2.1-.2.1-.2.1-.4-.2 0-.4 0-.6.1-.2.1-.3.3-.5.3-.1 0-.3.1-.5 0 0 .1 0 .2.1.3.1.3.2.4.3.7l.2.4c0-.1 0-.2.1-.3 0-.2-.1-.4-.1-.6.1-.1.2-.1.3-.2l.2.2c.1.2.1.3.2.5s.1.3.2.5c.1.1.2.1.3.2v-.1c.3-.2.5-.4.9-.3.5 0 1 .3 1.4.2.2-.1.4-.2.7-.3 0-.3-.1-.4-.1-.6-.1-.1 0-.1 0-.1M30.7 13.1c0-.1.1-.2.1-.3h.1v-.2c-.2.2-.3.4-.5.6.2-.1.2-.1.3-.1M31.8 11.4c0 .1 0 .1 0 0 0 .2.1.2.1.3.1 0 .2 0 .3-.1-.1-.1-.2-.1-.4-.2M33.3 12.5c.1.1.1.2.2.3h.3l-.1-.1c-.2 0-.3-.1-.4-.2M50.4 16.4c.1 0 .1 0 0 0 .1-.1.1-.1.1-.2 0 .1 0 .1-.1.2M47.3 15.5v.8c.6 0 1.1-.5 1.6-.8-.3-.1-.6-.3-1-.3-.1 0-.3.2-.6.3M50.4 15.4c-.2.1-.3.1-.5.1.1 0 .1.1.2.1h.2c.1 0 .1 0 .1-.2 0 .1 0 .1 0 0M41.6 15.5v-.2c-.3 0-.6.1-.4.8.5-.3.6.8 1 1.1.4.4.8-.3 1-.6l.1-.1c-.6.1-1.5.1-1.7-1M35.5 20.8c-.6-.4-1-.4-1.5-1-.4-.5-.9-1.1-1.4-1-.6.2-.6.7-1.3.4-.5-.2-.8-.4-1.3-.4-.3 0-1 .4-1.6.7v.3c.3.4.5.6.8 1 .2.2.4.3.6.5.3-.2.4-.3.7-.5.1.1.2.1.3.2.3-.4.5-.6.8-.8.2.3.2.5.4.8.2.1.3.1.5.2 0 .1.1.2.1.3 1.1-.5 3 .5 3.9 1.9.3.5.7 1 1 1.5 0-.1.1-.2.1-.4.1-.1.1-.1.2-.1-.5-.4-.9-.9-1.2-1.6-.4-.8-.7-1.6-1.1-2M39.1 13.4c0 .1 0 .1 0 0v.3c.1 0 .2-.1.3-.1 0 0-.1 0-.1-.1 0 0-.1 0-.2-.1"/><path fill="#ACBFAD" d="M50.4 16.8l-.3.3v-.3H50v-.2l.2-.2c.1-.2.2-.2.3-.4 0-.2 0-.3-.1-.5 0 0-.1 0-.1.1-.3.3-.6.7-1 .9-.2.2-.5.2-.8.4-.3.2-.6.7-.3 1 .2.3.7-.1 1 0 .3.1.5.6.7 1-.5.2-1 .3-1.4.5-.2.7.1 1.3.4 1.5-.1.1-.2.2-.4.2v.2c-.1.1-.1.2-.1.3v.3c.1-.1.1-.1.2-.1.1-.3.1-.5.2-.8.3-.3.4-.4.7-.6.2-.4.3-.5.6-.9v-.2c.1-.2.2-.3.3-.4.1-.2.1-.3.2-.6h-.2c0-.1.1-.2.1-.3l-.2-.2c-.1-.1-.1-.2-.2-.3.2-.3.3-.4.4-.7l.1-.1v-.1c-.1.2-.2.2-.2.2M35.7 27.1c-.1-.3 0-.7 0-1-.1-.7-.5-1.3-.7-2-.2-.9-.3-1.2-1-1.4.1.7-.4 1-.7 1.3-.1.1-.2.1-.3.1.1.3.1.5.2.8-.1.5-.2.7-.3 1.1v.5c.2.5.3.7.5 1.1 0 .4.1.6.1 1.1.1.3.2.5.3.8 0 .3.1.5.1.8l.3.6c.2 0 .2-.1.4-.1.4 0 .6 0 1 .1.3-.4.4-.6.6-.9 0-.2 0-.4.1-.6.2-.1.3-.1.5-.2-.1-.4-.1-.6-.1-1l.2-.2-.2-.2c-.3-.2-.9-.4-1-.7M42.5 14.8c0 .1 0 .2-.1.3.1.1.2.1.3.1 0-.1-.1-.3-.2-.4M43.9 20.9c-.3-.5-.8-.6-1.2-.6v.9c.2.5.2.7.4 1.2.1.5.2.8.3 1.3.2-.2.3-.3.4-.5l.1-1.2.2-.2c0-.2 0-.5-.2-.9M30.3 13.7l.1-.1c-.1.1-.2.1-.3.1-.2.3-.4.5-.6.9v.3c.1-.1.2-.1.4-.4.2-.2.3-.6.4-.8M32.2 13.3s.1 0 .2-.1c-.2 0-.3 0-.6-.1s-.5-.1-.8 0c0 .1-.1.1-.1.1.4-.1.9.2 1.3.1M41.7 13.7h-.3c.2.2.5.3.7.5l.3.3c-.1-.3-.3-.6-.7-.8"/><path fill="#ACBFAD" d="M45.5 20.3c-.2.4-.6.6-.8.9-.1.1-.1.3-.1.4.1-.1.1-.1.2-.1s.1 0 .1.1v-.4c.2 0 .3.1.5.1.1 0 .2-.1.3-.1.1.2.1.3.2.5.1.3.2.4.3.7 0 .2 0 .3-.1.5.1 0 .2 0 .4.1 0-.1.1-.2.1-.3.1.5.1.7.2 1.2V25c.1.3.2.4.3.6 0 .2 0 .3.1.6l.6.3c-.1-.3-.1-.5-.2-.8-.2-.2-.2-.3-.4-.5-.1-.1-.1-.2-.2-.3 0-.2 0-.3.1-.5 0-.3 0-.4.1-.7l.6.6c.1.2.1.3.2.5.1-.2.2-.3.3-.6.1-.2.2-.3.3-.5 0-.4-.1-.5-.1-.9-.2-.2-.2-.3-.4-.5V22c.1-.2.2-.3.3-.6-.6 0-1.1-.5-1.8-1-.6-.4-.8-.6-1.1-.1M51.8 17.9c.1-.1 0-.1 0-.1v.1zM51.9 18.5c-.1 0-.1 0-.1.1-.1.1-.1.2-.2.3-.1.1-.1.2-.2.3-.1 0-.1 0-.2.1l.1.1.2-.2.2-.3c.1-.2.1-.3.2-.4M50.6 20.2V19.6c-.1.1-.1.2-.2.4 0 .1-.1.2-.1.3 0 .1 0 .1.1.2 0 0 .1 0 .1.1 0-.2 0-.3.1-.4M50.2 22.3c.1.1.1.2.2.3.1-.1.2-.1.3-.2.1.1.1.2.1.3v.1c.1.1.1.2.1.3.1-.2.1-.3.2-.5-.1-.1-.2-.2-.3-.4-.1-.1-.2-.1-.3-.2h-.2l.2-.4c0-.2-.1-.3-.1-.5l-.1-.1c-.1.2-.1.3-.2.6.1.4.1.5.1.7"/><path fill="#ACBFAD" d="M50.6 22.8v.3c0 .1 0 .2.1.3.1-.1.2-.1.3-.2v-.4h-.4M50.9 23.7c0 .1.1.2.1.3l.1-.1.2-.2v-.3c0-.1 0-.1-.1-.2-.1.1-.2.3-.3.5M50 23.4c-.1.2-.1.3-.2.4.1 0 .1 0 .1-.1.1-.1.1-.2.2-.3 0-.1.1-.2.1-.3h-.1c0 .2 0 .2-.1.3M49.7 24.5l-.2.4c-.1.1-.1.2-.2.3l-.2.4c-.2.2-.3.2-.6.4v.4c0 .2.1.3.1.4l.2.2h.6c.1-.1.1-.2.2-.3.1-.2.1-.3.2-.5 0-.2.1-.3.1-.4.1-.1.1-.2.1-.3 0-.1-.1-.2-.1-.3 0-.1-.1-.2-.1-.3.1-.2.2-.3.3-.4 0-.1-.1-.1-.1-.2-.1 0-.1-.1-.2-.1 0 .2-.1.2-.1.3M50.1 26.1c0 .2-.1.4-.1.6v.5c.1 0 .2-.1.3-.1 0-.1 0-.1-.1-.2v-.4c.1 0 .1 0 .2-.1l.2.4.2.2v-.3c0-.1-.1-.2-.1-.3 0-.1 0-.2-.1-.4.1-.2.2-.3.3-.4-.1.1-.2.1-.3.2-.1 0-.1.1-.2.1 0-.1 0-.2.1-.3.1 0 .1 0 .2-.1.2-.1.3-.1.4-.2.1-.4.1-.5.2-.9-.1.2-.2.3-.3.5-.3.1-.4.2-.6.3-.2.5-.2.6-.3.9"/><path fill="#ACBFAD" d="M48.4 28.2h.7c.3 0 .5-.1.8-.1.2-.1.3-.1.6-.2.3-.2.4-.3.7-.5-.3.1-.4.1-.7.2-.2.1-.3.1-.6.2-.2.1-.2.1-.4.1H49c-.1 0-.1 0-.2.1-.2 0-.3-.1-.4-.1-.1 0-.2 0-.3-.1v-.4c.1 0 .2-.1.3-.1 0-.1 0-.1-.1-.1-.1-.1-.1-.2-.2-.3-.1.1-.1.2-.2.3-.1-.1-.1-.2-.2-.3 0-.2-.1-.3-.1-.5h-.4l-.4-.4c0-.2 0-.3-.1-.4-.1 0-.1 0-.2-.1s-.1-.1-.1-.2h-.1c.1.3.1.4.2.7.1.2.1.3.1.5.1.2.2.3.3.5.1.3.1.4.2.6.2 0 .2 0 .4.1.1.2.2.3.3.5h.6"/><path fill="#ACBFAD" d="M50.9 27.8c-.1.1-.1.2-.2.4.1 0 .1 0 .2-.1.1-.2.2-.3.3-.5.1-.2.2-.3.3-.5-.2.1-.3.2-.5.3 0 .2 0 .3-.1.4M51.7 25.1v-.4l-.2.1c-.1.2-.1.4-.1.6 0 .1 0 .2-.1.3.1 0 .2-.1.3-.1 0-.2 0-.3.1-.5M52.3 25c-.1.1-.2.1-.4.1v.2l.2.2c.1.2.1.3.2.5.1 0 .2-.1.3-.1.1.1.2.1.3.2.1 0 .2 0 .3.1-.1.2-.1.3-.2.5.2-.1.2-.1.4-.1.1.1.2.1.3.2.1 0 .2-.1.3-.1l.2-.4c.1.1.2.1.3.2.2.1.3.1.4.1h.7c-.1 0-.1-.1-.1-.1-.1 0-.1 0-.2-.1s-.1-.1-.2-.1-.2 0-.3-.1c-.1-.1-.2-.1-.3-.2.1 0 .1 0 .2-.1.2-.1.3-.2.4-.3l.5-.5v-.3c-.1-.2-.2-.3-.3-.4-.1.1-.2.2-.4.3.1 0 .2 0 .3.1 0 .2 0 .2-.1.4-.1.1-.1.2-.2.3l-.3.3c-.1 0-.1 0-.2.1 0-.1 0-.2-.1-.3-.1-.1-.2-.1-.3-.2-.1 0-.1 0-.2.1-.3-.1-.5-.1-.8-.2l-.2.2c0 .1-.1.2-.1.4l-.2-.2v-.3c0-.3-.1-.4-.2-.4M54.3 32.1v.5c.2.1.4.2.5.4.1-.1.1-.1.2-.1.1-.3.1-.4.2-.7-.2-.1-.3-.1-.5-.1h-.4M51.8 29.3c.2.3.5.6.8.6.3-.1.9-.6 1.3-.9-.1-.6-.1-.7.4-1v-.1c-.1 0-.1 0-.1-.1l-.2-.2c-.1-.2-.1-.4-.2-.6-.1.4-.1.6-.1.9v.6c-.1 0-.2.1-.3.1h-.3l-.4-.4c0-.1 0-.2.1-.4 0-.1.1-.1.1-.2-.1-.1-.1-.1-.1-.2-.1 0-.1 0-.2.1-.2.1-.2.1-.4.1-.1.1-.2.1-.3.2 0 .1 0 .2-.1.3l-.2.4-.2-.2c-.1 0-.1 0-.2.1.3.3.5.8.6.9M52.6 32.5c-.7-.7-1.6 1.3-2.2.3-.3-.6-.4-.7-1-.8h-.2v.3c.1.2.1.4.2.6.1.3.1.5.2.9-.1 0-.1.1-.2.1v.3h.5c.1-.1.2-.2.3-.4.2-.1.3-.1.5-.2.1-.2.2-.3.3-.4.3-.2.5-.4.9-.6.3-.1.4-.1.7-.1 0 0 0 .1.1.1.1.1.1.2.2.3v-.1l-.3-.3M58.4 32.7c-.1.2-.2.2-.3.4-.2.3-.2.4-.4.7.1 0 .2.1.3.1.1 0 .2-.1.3-.1v-.4l.4-.4c.1-.2.1-.3.2-.5v-.2h-.3l-.2.4M58.8 30.7c-.1 0-.1 0-.2.1.1.1.1.2.2.3l.2.4c-.1.2-.1.3-.2.5h.2v.2c0 .1 0 .2.1.3.1-.1.1-.2.2-.4s.1-.3.2-.5.1-.2.1-.4c-.1 0-.2.1-.3.1-.2-.2-.3-.4-.5-.6M19.4 7.3c.2 0 .3 0 .4-.1-.1-.1-.3-.1-.4.1M16.4 21.6c.1.1.3.2.4.1 0-.1-.1-.2-.1-.2-.1 0-.1 0-.3.1M20.9 14c-.1 0-.2 0-.3-.1.1.1.2.2.4.2.1 0 .2.1.4.1.1-.1.1-.1.2-.1-.3-.1-.4-.1-.7-.1M20.4 8.4s0-.1 0 0c-.1 0-.1 0-.1-.1.1 0 .1 0 .1.1M7.5 7.5c.1.1.3.1.5.2 0 0-.1 0-.1-.1-.1 0-.3 0-.4-.1M20.5 13.6c.1 0 .1-.1.2-.1-.1-.1-.2-.1-.2.1 0-.1 0-.1 0 0M24 27.5c0-.8.3-.7.5-1.3.2-.4 0-1-.3-1.4-.4.9-1 1.3-.9 2.5 0 .7.4 1.8.5 2.7.1-.1.2-.1.3-.2.2-.2.3-.4.5-.6 0-.1 0-.1-.1-.2-.3-.6-.5-.8-.5-1.5M21.8 30.4c-.3-.2-.6-.2-.8-.5 0 .2-.1.4-.1.6-.1.4.1 1.7-.1 1.8-.1.7.5.8.4 1.5-.2.1-.7.2-.9.4-.2.2-.1.7-.2.9-.3.5-.5.1-.7-.5-.1.2-.1.3-.1.5 0 .7-.1 1.1-.1 1.8v1c.1.2.2.2.4.4l.6.3c.3-.1.4-.1.7-.2-.3-.4-.4-.5-.7-.9.1-.4.2-.6.3-1-.1-.2-.1-.3-.1-.5.2-.3.3-.4.6-.7v-.7c.1 0 .2 0 .3-.1.2-.2.3-.4.5-.6.1-.2.2-.2.4-.4v-.6c.2-.1.3-.1.5-.2.2-.4.3-.7.5-1.1l.3-.6c-.3.1-.6-.1-.7-.2-.7 0-.8-.2-1-.4M15.6 22.2c-.1-.3-.2-.5-.3-.9.1-.4.1-.6.2-1 0-.1-.1-.2-.1-.3-.2-.4-.3-1.2-.2-1.5.2-.3.7-.2.8-.8.2-1.2-.7-2.2-1.2-2.9-.2-.2-.3-.4-.5-.5-.1.5-.1 1.1 0 1.6.1.6.4 1.2.5 1.7 0 .3-.1.4-.1.6 0 .4.1 1 .2 1.4.1.5.6 1.6.1 1.8-.4.2-.7-.8-.9-1.2-.2-.4-.5-.7-.7-1 0 .1 0 .1.1.2.3.5.4.8.7 1.4v.8l.9.9v-.2c.1-.2.3-.1.5-.1"/><path fill="#ACBFAD" d="M12.2 17.6c-.2-.8.3-.5.6-.6.2-.1.6-.5.7-.7.1-.4-.1-1.1-.2-1.6-.1-.6-.5-.9-.5-1.4 0-.2 0-.3.1-.4-.3-.2-.5-.4-.8-.6.2-.2.5-.2.8-.1 0-.1-.1-.2-.2-.3-.4-.4-.8-.5-1.3-.8-.4-.2-.8-.7-1.2-.8-.5-.1-.8.4-1.3-.1-.3-.5-.4-1.3-.8-1.7-.4-.4-1-.5-1.4-.7-.5-.2-1-.4-1.6-.6h-.4c-.2.2-.3.2-.4.4.4.1.6.2 1.1.4-.4 0-.5 0-.8.1-.1.1-.2.2-.3.4.5.5.8.7 1.4 1.1l-.7.5H3.7c-.4 0-.6 0-1 .1.1.2.1.2.1.4h2.9c.3-.3.4-.5.7-.8.4-.1.5-.1.9-.2.3.1.4.1.7.2l1 .5c.4.7.6 1 1 1.7.3.5.5.8.8 1.3.2.3.3.5.5.8-.1.4-.1.5-.2.9v.8c.4.8.6 1.2.9 2 .2.4.3.6.5.9.4.8.6 1.2 1 1.9v-.4c-.3-.7-.4-1.1-.7-1.8-.3-.2-.6-.6-.6-.8M14.6 13.3c.5.4.9.8 1.4.8.8 0 1.6 1.5 2.5.9.2-.1.3-.4.4-.7-.3-.2-.4-.8-.6-1v.5c-.1 0-.1 0-.2.1-.1-.3-.2-.5-.3-.8-.5 0-.8 0-1.3-.1h-.3c-.2-.1-.3-.2-.4-.3-.4.2-.8.1-1.2.6M19.9 29.5c.1 0 .3-.2.4-.3-.1-.1-.3-.1-.5-.1-1.1 0-1.3-1.6-1.5-3-.1.3-.2.5-.3.6v.1c0 .4-.1.6-.1 1l.4.2c.2.4.3.6.4 1v.3c.1.1.3.3.4.3.3 0 .5 0 .8-.1M38.3 27.6c-.1.5-.2.8-.4 1.3-.1.4-.1.6-.1 1 .3 0 .4.1.7.1.1-.1.1-.2.2-.3.2-.5.3-.7.5-1.2-.1-.4-.1-.6-.2-.9-.3-.1-.4 0-.7 0M43.7 24.1c.1.1.2.2.3.4.1-.1.2-.1.3-.2-.1-.3-.2-.4-.3-.7-.1.2-.1.3-.3.5"/><path fill="#D1C39C" d="M22.4 13c-.1-.3-.2-.5-.3-.8 0 .3 0 .4.1.6.1.1.1.2.2.2M20.2 11.4l.1.1c0-.1.1-.1.1-.1-.1-.1-.1 0-.2 0M21 11.3l.1.1c.3.2.5.3.8.4l-.3-.6c-.1 0-.3 0-.6.1M12.6 18.3c0 .1.1.2.1.3.1.2.3.3.4.4l.3.3c-.2-.4-.2-.6-.4-.9-.2-.1-.2-.1-.4-.1M3.9 7.5c-.3-.1-.4-.2-.7-.3-.4-.1-.6-.2-1-.3v-.8c-.1 0-.1-.1-.2-.1-.5.9.6 3 1.2 3.8.1-.2.1-.3.1-.5-.1-.8.5-1.9 1-2.1-.1-.1-.3-.2-.5-.2l.1.5zM10.6 8c-.4-.1-.5-.1-.9-.2H9c-.3 0-.7-.1-1-.1.2.1.3.2.5.3.8.2 1.1.2 1.9.4.4.1.6.2 1 .4.7.4 1.1.7 1.8 1.1v-.3c-.3-.2-.4-.3-.6-.5-.3-.2-.5-.4-.8-.6-.2-.3-.2-.4-.4-.7h-.6c-.1.1-.2.1-.2.2M21.1 11.2c-.1 0-.1 0 0 0-.1.1-.1.1 0 0-.1.1-.1.1 0 0M19.1 8.5c.3-.1.4-.1.7-.2.2 0 .3.1.5.1-.1 0-.1-.1-.2-.1-.3-.2-.5-.4-.8-.3h-.1c-.1.1-.1.3-.1.5"/><path fill="#D1C39C" d="M14.6 13.3c.3-.5.8-.4 1.3-.5.2-.3.2-.5.4-.8.2-.2.3-.3.5-.4.3-.1.4-.1.7-.2.2-.1.3-.1.5-.2.3-.2.4-.4.7-.6.3 0 .5 0 .8.1.4 0 .5 0 .9-.1.2-.3.3-.5.5-.8l.1-.1c-.2-.5-.3-.8-.6-1.3 0 0-.1 0-.1-.1-.2 0-.3-.1-.5-.1-.3.1-.4.1-.7.2.1.3.3.6.3 1 .1 1-.5 1-.9.9-.5-.1-.5-.4-1.1-.1-.3.1-.7.3-.9.3-.3 0-.5-.5-.7-.5-.3 0-.6.2-.9.1-.5-.3-.8-1.1-.7-1.8-.5.1-1.2-.3-1.7-.4-.4-.1-.8-.1-1.2-.1.2.3.2.4.4.7.3.2.5.4.8.6.3.2.4.3.6.5v.3c-.7-.4-1.1-.7-1.8-1.1-.4-.1-.6-.2-1-.4-.7-.2-1-.2-1.8-.4-.2-.1-.3-.2-.5-.3-.2 0-.4-.1-.5-.1-.8-.2-1.6-.3-2.4-.4.5.2 1 .4 1.6.6.4.1 1 .3 1.4.7.4.4.5 1.2.9 1.6.5.5.8 0 1.3.1.4.1.8.6 1.2.8.4.3.9.4 1.3.8.1.1.2.2.2.3.5.2 1 .6 1.3.8.1.2.2.3.3.4M15 21.4c.5-.2 0-1.3-.1-1.8-.1-.4-.2-1-.2-1.4 0-.3.1-.4.1-.6 0-.5-.4-1.2-.5-1.7-.1-.5-.1-1.1 0-1.6-.3-.3-.5-.6-.8-.9l-.6-.6c0 .1-.1.2-.1.4 0 .5.3.7.5 1.4.1.4.3 1.2.2 1.6-.1.2-.6.6-.7.7-.3.2-.8-.2-.6.6.1.3.3.6.6.9 0-.1-.1-.2-.1-.3.1 0 .2 0 .3.1.2.4.2.6.4.9.2.3.5.5.7 1 .2.5.5 1.5.9 1.3"/><path fill="#D1C39C" d="M9.7 7.8c.4.1.5.1.9.2 0-.1.1-.1.1-.2h-1M19 14.3c.2-.4.4-1 .7-1.1.3-.2.5.1.7.2v.1h.2c.1-.1.2-.1.3-.2.3-.3.5-.4.8-.6-.1.3-.1.5-.2.8h1v-.3c0-.1 0-.1-.1-.2s-.1-.1-.2-.1c0-.3 0-.4-.1-.6-.1-.2-.1-.3-.2-.5-.3-.2-.5-.3-.8-.4l-.1-.1c-.2.2-.4.3-.5.3l-.1-.1c-.1 0-.2.1-.3.1-.1-.2-.1-.4-.1-.6h-.7c-.2 0-.3.1-.6.1 0 .2-.1.3-.1.4 0 .2 0 .3.1.5.2.2.2.3.4.4-.3.2-.4.2-.6.4v.4c.1.3.2.9.5 1.1"/><path fill="#D1C39C" d="M20.4 11.6c.1 0 .3-.1.5-.3-.2 0-.4 0-.6.1 0 .1-.1.1-.1.1.1 0 .2 0 .2.1M2.2 6.1v.7c.4.1.6.2 1 .3.3.1.5.2.8.3L3.8 7c-.6-.2-1.1-.5-1.6-.9M20.7 10.9c-.1.2-.2.3-.3.4.2 0 .4-.1.6-.1-.2-.1-.2-.2-.3-.3M30.9 13.3c-.1.1-.3.2-.4.3.1 0 .1 0 .2-.1l.2-.2M48.4 21.2s0 .1-.1.1c.1 0 .2 0 .3-.1v-.1c-.1.1-.1.1-.2.1M34.2 12.8v.2c0 .1 0 .1.1.1-.1-.1-.1-.2-.1-.3M50.3 15.6c.1 0 .1 0 0 0 .1-.1.1-.1 0 0 .1 0 .1 0 0 0"/><path fill="#D1C39C" d="M48.9 21.1c-.3-.2-.6-.9-.4-1.5.5-.2 1-.3 1.5-.5-.1-.4-.4-.9-.7-1-.3-.1-.8.2-1 0-.3-.4 0-.8.3-1 .2-.2.5-.2.8-.4.3-.2.7-.6 1-.9h-.2c-.1 0-.2 0-.2-.1-.3 0-.5.1-.8 0H49c-.5.3-1 .8-1.6.8v-.8c-.3.2-.6.1-.8-.2-.1-.1-.1-.4-.1-.7-.3 0-.8 0-.9.3-.1.3 0 .7 0 1.1-.6-.2-1-.3-1.4-.2-.3.4-.5.9-.6 1.2v-.8h-.3l-.1.1c-.2.3-.6 1-1 .6-.3-.3-.5-1.5-1-1.1-.1-.7.1-.8.4-.8 0-.5.4-.4.8-.2.1-.1.1-.2.1-.3 0-.1-.1-.1-.1-.2-.1-.1-.1-.2-.3-.3-.2-.2-.5-.4-.7-.5-.2 0-.5.2-.7.2-.4.1-.9-.1-1.3-.3-.1 0-.2.1-.3.1 0 .1.1.2.1.3.1.2.1.3.2.6l-.1.1c.1.2.1.3.2.5 0 .2.1.3.1.5-.2-.1-.3-.1-.5-.2-.1-.2-.2-.2-.4-.4.1-.2.1-.3.1-.6-.1-.2-.1-.4-.2-.6-.2.1-.5.2-.7.3-.4.2-.9-.1-1.4-.2-.4 0-.6.2-.9.3v.1c.1 0 .2-.1.3-.1.1.1.1.2.1.3.1 0 .1.1.2.1h.3c.1.1.1.1.1.2-.1.1-.1.2-.1.3 0 .2 0 .4-.1.6-.1 0-.2 0-.4.1l-.2-.2h-.4l-.6-.3c-.1-.1-.2-.2-.3-.4-.2-.1-.3-.1-.5-.1 0 .1-.1.2-.1.3 0 .1 0 .1-.1.2-.2-.2-.3-.3-.6-.5-.1-.1-.1-.2-.2-.4-.3-.2-.4-.4-.7-.6l.1-.1c-.1-.2-.1-.3-.1-.4 0-.1-.1-.1-.1-.2h-.1c-.1 0-.2.1-.2.1-.4.1-.9-.2-1.3 0l-.2.2c-.1 0-.1 0-.2.1l-.1.1-.4.8c-.2.3-.3.3-.4.4v.3l-.2.4c-.3.4-.4.6-.6 1.1-.2.4-.2.6-.4 1 .1.3.1.4.2.7-.1.4-.1.5-.2.9v.3c.6-.3 1.3-.7 1.6-.7.5 0 .9.2 1.3.4.7.3.7-.2 1.3-.4.5-.1 1 .5 1.4 1 .6.6 1 .6 1.5 1 .5.3.8 1.2 1.1 1.8.4.6.7 1.2 1.2 1.6l.7-.7c.3-.5.4-.7.7-1.2 0-.3.1-.4.1-.7-.4 0-.6 0-1-.1l-.2-.3V21c-.3-.4-.4-.6-.6-1-.1-.2-.1-.4-.1-.6-.1-.1-.1-.2-.2-.3 0-.3 0-.4-.1-.7l-.2-.2c-.1-.5-.2-.7-.3-1.2h.2c.1.4.2.6.4 1l.2.2c0 .3 0 .4.1.7.1.1.1.2.2.3.2.7.3 1 .5 1.6h1.4v-.3h.5c.2-.3.3-.4.5-.7.1-.1.1-.2.1-.4l-.5-.5c0-.2 0-.3-.1-.5-.1.1-.2.2-.4.3-.1 0-.2-.1-.3-.1 0-.2 0-.3-.1-.4-.1-.2-.2-.3-.3-.6-.1-.2-.1-.3-.2-.5.1-.1.2-.1.3-.1.1.3.2.4.3.7.2.2.3.3.4.5l.4-.2c0 .2 0 .3.1.4.6.3.9.4 1.5.6.3.6.4.9.7 1.4.1-.1.2-.1.3-.2v.1c.4-.1.9 0 1.2.6.2.4.2.7.2 1 .2-.2.3-.2.5-.4 0-.1 0-.3.1-.4.2-.3.5-.5.8-.9.3-.5.5-.3 1 0 .7.5 1.2 1 1.8 1 0 0 0-.1.1-.1h.2v.1c.3.1.4 0 .5-.1"/><path fill="#D1C39C" d="M33.3 12.5c-.1-.1-.2-.1-.3-.2.2.2.3.3.5.6v.3h-.2c-.1 0-.2-.1-.3-.1 0 .1 0 .1-.1.2.2.1.2.2.4.3l.1.1c0-.1.1-.2.1-.3l.1-.1V13c.1.1.2.1.3.1l-.3-.3h-.3c.1-.1 0-.2 0-.3M24.9 26.9c.2-.5.3-.8.5-1.3v-.8H25c-.3 0-.5 0-.8-.1.3.4.5 1 .3 1.4-.2.5-.5.5-.5 1.3 0 .7.2 1 .4 1.5 0 .1 0 .1.1.2.2-.9.2-1.3.4-2.2M20 35.1c.1-.2 0-.7.2-.9.2-.2.7-.2.9-.4.1-.7-.5-.8-.4-1.5.2-.2 0-1.4.1-1.8 0-.1.1-.4.1-.6-.3-.3-.4-.5-.6-.7-.2.1-.3.3-.4.3-.3.1-.5.2-.7 0-.1-.1-.3-.2-.4-.3v.3c.4.1.6.1 1 .3-.1.7-.1 1.1-.2 1.9-.1.5-.1.7-.2 1.2 0 .3.1.5.1.8-.1.4-.2.6-.3 1 .3.6.5.9.8.4M54.3 32.6v-.5c-.3 0-.7 0-.9-.4-.2-.5-.1-.9.1-1.4.4-.7.5-.6.4-1.2-.4.3-.9.8-1.3.9-.3.1-.6-.3-.8-.6-.1-.2-.3-.6-.5-.7-.1.2-.2.2-.3.4-.1.2-.1.3-.1.6 0-.1 0-.1-.1-.1l-.2.2v.2c-.1.2-.1.3-.2.4-.2.2-.3.2-.6.4-.2.3-.3.4-.6.6 0 .1 0 .2-.1.3v.3h.2c.6.2.7.3 1 .8.6 1 1.5-1.1 2.2-.3l.3.3.2-.2.3.3c0 .1 0 .2.1.3 0 .1.1.2.1.3.1.1.2.1.3.2.1-.1.2-.1.3-.2.2-.1.3-.1.4-.2.1-.1.2-.1.3-.2-.2-.3-.4-.4-.5-.5M54.2 33.8c0 .1 0 .1-.1.2.1.1.1.2.2.3 0 .1 0 .2.1.3.1-.2.2-.2.3-.4 0-.2.1-.3.1-.6 0 .1-.1.1-.1.2-.1 0-.1 0-.2.1-.1-.1-.2-.1-.3-.1"/><path fill="#7EA885" d="M50.6 16h-.1v.2c0-.1.1-.1.1-.2M55.4 7.4c.1-.1.2-.1.4-.2-.3 0-.6.1-.8.1.1 0 .2 0 .4.1M20.5 13.9h.1c-.1-.1-.1-.2-.1-.4-.2.1-.3.2-.5.3.1 0 .3.1.5.1M32.8 12.1c-.1-.2-.1-.3-.1-.4-.1 0-.1-.1-.2-.1s-.1 0-.2.1l.7.7c-.1-.2-.2-.2-.2-.3M45 15.3c.1 0 .2.1.3.1-.1 0-.2-.1-.3-.1M50.6 16.8s0 .1 0 0"/><path fill="#7EA885" d="M32.7 11.7c.1.2.1.3.1.4l.2.2c.1 0 .1.1.2.1s.1.1.2.1c.1.1.3.1.4.2-.1-.1-.2-.2-.3-.4l-.2-.4c-.1-.2-.1-.3-.2-.5h.2c.1.2.2.3.3.6.3.3.4.4.6.7v.1h.5c.2-.1.3-.2.5-.3.2-.1.4-.1.6-.1 0-.1 0-.1.1-.2.2 0 .2.1.4.1v.1c.2 0 .3 0 .5.1.2-.1.3-.1.6-.2v.5c-.1.1-.1.1-.2.1.3.3.4.5.6.8v.3c-.2-.1-.3-.1-.6-.2v.2c.3.2.9.3 1.1 0 .1-.2.1-.6.3-.8.1-.1.2-.1.3 0 .1 0 .2-.1.4-.1.1 0 .1 0 .2.1l-.2.2c.1 0 .1.1.2.1 0 0 .1 0 .1.1.2-.1.3-.2.5-.2.5-.2 1 0 1.5.3h.3c.3.1.5.5.7.8.1.1.1.1.1.2.1.2.2.3.2.4-.1 0-.2-.1-.3-.1-.1.1-.4.2-.6.2h-.2v.2c.1 1.1 1.1 1.1 1.6 1.1.3-.3.6-.5.9-.5.2-.4.5-.6.8-.7-.5-.2-1-.3-1.5-.5.4-.3 1-.8 1.4-1 .4-.2 1 .1 1.4.2v.5h.1c.6.1.8.3.8.9.3-.1.5-.3.7-.3.4 0 .6.1 1 .3.1-.1.3-.1.4-.2.3-.1.4.1.5.2.2 0 .3-.1.5-.1v.1c.1-.1.2-.2.4-.3-.1.1-.2.2-.4.3 0 .2 0 .3.1.5h.1c0 .1-.1.1-.1.2v.1c.2-.1.3-.1.5-.2v.3c.1 0 .2 0 .3.1v.3c0 .2-.1.3-.1.5l.3-.3c.1-.1.2-.2.3-.4-.1-.2-.1-.3-.2-.4-.1-.1-.1-.2-.1-.3l.4-.4v-.2c.1-.2.2-.3.3-.5.1 0 .2.1.3.1.3-.4.4-.5.6-.9.2-.4.3-.6.4-.9v-.4c.1-.1.1-.2.2-.4-.1-.2-.1-.3-.2-.5-.1 0-.2.1-.3.1h-.4c.4-.6.7-.9 1.1-1.5.4-.1.6-.2 1-.3h.5c.1-.1.2-.2.4-.3.2-.3.3-.4.4-.7.1 0 .2 0 .4-.1v.3l.7-.7c0 .1 0 .2-.1.3-.4.5-.6.8-1.1 1.3-.1.2-.1.3-.2.6.1.4.1.6.2 1 .2-.3.3-.4.4-.7.1-.1.1-.2.1-.4.1-.1.2-.1.3-.1 0-.2.1-.3.1-.5v-.4c.1-.2.2-.2.3-.4.2-.1.3-.2.5-.3.7-.5 1.1-.8 1.8-1.3v-.4c.1-.2.1-.3.2-.5V6c-.1 0-.1 0-.2.1 0 .2-.1.3-.1.5-.7.3-1.3.4-2 .4-.6 0-1.2 0-1.8.1-.1.1-.2.1-.4.2-.2 0-.3 0-.5-.1-.2 0-.4.1-.6.1-.1.1-.1.1-.2.1h-.4l-.5.5c-.4.1-.5.1-.9.2-.3.1-.4.2-.6.3l-.3-.3c.1-.1.2-.1.3-.2-.6.2-.8.3-1.4.5H49c-.2-.2-.4-.2-.6-.4-.4.1-.7.1-1.1.2-.2.3-.3.4-.5.5l-.3-.3c0-.1-.1-.1-.1-.2-.2 0-.2 0-.4.1-.2 0-.2 0-.4.1-.3-.1-.4-.1-.7-.2-.1.1-.1.2-.2.3-.3-.1-.4-.1-.7-.1-.1 0-.1.1-.2.1-.1.1-.2.1-.3.2-.1-.1-.2-.1-.4-.1 0-.1-.1-.1-.1-.2-.3-.2-.5-.3-.8-.5-.1 0-.1.1-.2.1l-.2.3c-.1 0-.1 0-.2-.1.2.4.3.5.4.8-.4-.3-.6-.4-1-.7-.2 0-.2-.1-.4-.1v.3c-.5-.2-.7-.2-1.2-.4-.2.1-.3.1-.6.1-.2-.1-.3-.1-.4-.2-.2 0-.2 0-.4-.1l-.3-.3c-.5-.2-.7-.3-1.1-.6-.2-.1-.3-.2-.4-.3h-.1c-.5 0-.9-.3-1.3.2-.4 0-.8.3-1.2.3 0 .8-.7.6-1.1.4-.1.3-.2.5-.3.5 0 0 .1 0 .1.1.2-.1.3-.1.4-.1.1.1.1.2.2.3.1.2.1.2.1.4l-.2.2c.2 0 .3 0 .5.1.2-.1.2-.1.4-.1 0-.2-.1-.3-.1-.4.2 0 .2-.1.4-.1-.1-.1-.1-.2-.2-.4 0-.1 0-.2.1-.4.1 0 .2-.1.3-.1.1-.1.2-.1.3-.2 0-.1.1-.1.1-.2h.4c0 .1 0 .1.1.2-.2.1-.3.2-.5.3 0 0-.1 0-.1.1v.4c0 .1.1.2.1.3.2.1.3.1.5.2s.3.1.5.2c.1.1.1.1.1.2-.2-.1-.3-.1-.5-.1s-.3-.1-.6-.1c0 .1-.1.1-.1.2.2.2.2.3.4.5h-.2l-.3-.3c-.1 0-.1.1-.2.1 0 .2.1.2.1.4h-.2c0 .1 0 .1-.1.2l-.2-.2h-.5c0 .1-.1.1-.1.2 0-.1-.1-.2-.1-.4-.2 0-.2 0-.4-.1 0-.1-.1-.1-.1-.2v-.6c-.1 0-.2 0-.3.1v.5c0 .1-.1.1-.1.2h-.6l-.2.2c-.1.1-.2.1-.3.2-.2.2-.3.3-.4.5 0 .1 0 .1-.1.2-.2.1-.2.1-.4.1 0 .1 0 .1-.1.2h.4c.1.1.1.2.2.3 0 .2-.1.3-.1.5-.1.1-.1.1-.1.2-.3 0-.5.1-.8.1h-.2c-.1.1-.1.2-.1.3.1.1.1.2.2.4 0 .2-.1.3-.1.5v.3c.1 0 .1.1.2.1h.3c0 .1 0 .1.1.2.1-.1.2-.2.3-.4h.1c.2-.2.3-.4.5-.6 0-.2 0-.2-.1-.4.2-.2.3-.3.5-.4.1-.1.1-.1.1-.2v-.2h.2v-.1c.2 0 .3.1.4.2.1 0 .1 0 .2-.1.2 0 .3 0 .4.1"/><path fill="#7EA885" d="M30.3 8.8c.1.1.1.1.2.1.1.1.1.1.1.2l-.1.1h-.1c0 .1 0 .1.1.2 0 .1-.1.1-.1.2H30.7c0 .1-.1.1-.1.2l-.3.3.2-.2s0 .1.1.1c.1-.1.2-.1.3-.2.2-.2.3-.2.4-.4.1-.1.1-.2.2-.3-.1 0-.1-.1-.2-.1-.3 0-.3 0-.4-.1-.1 0-.1 0-.2-.1v-.1c-.1-.1-.1-.1-.2-.1.1-.1.1-.1.1-.2s0-.1.1-.2c-.2.1-.2.1-.4.1.1-.1.1-.2.1-.3-.1 0-.1 0-.2.1l-.1.1-.2.2c0 .1 0 .2-.1.3l.1.1h.4"/><path fill="#7EA885" d="M29.8 9.8c.1-.1.1-.1.2-.1 0-.1 0-.2.1-.4 0 0 0-.1.1-.1v-.1L30 9c-.1 0-.1 0-.2.1 0 .1-.1.2-.1.3h-.1c-.1.1-.1.1-.1.2h.1c0 .1-.1.2-.1.3v.2h.1c0-.1.1-.2.2-.3M28.4 6.9c-.1.1-.2.1-.3.2-.2.1-.2.1-.4.1-.2.2-.3.3-.5.4h.1c.1.1.1.1.1.2.1 0 .1 0 .2.1.1 0 .2-.1.4-.1.2-.1.3-.2.4-.4l.3-.3c0-.1 0-.1-.1-.2h-.2M40.7 6c.2 0 .3-.1.5-.1-.2-.1-.4-.1-.5-.2-.2-.1-.4 0-.6 0 .3.1.4.2.6.3M40.7 6.6c-.2 0-.3.1-.5.1l-1 .5c.1.1.1.2.2.3.3.2.5.3.8.4v-.1l-.3-.3.4-.2c.2-.2.3-.3.5-.3.5.1.8.1 1.3.2V7c-.3-.1-.4-.1-.7-.2-.2-.1-.4-.2-.7-.2M53.7 13.4v.3c.1-.1.1-.2.2-.3 0-.1-.1-.2-.1-.3 0-.1.1-.2.1-.3.1 0 .1 0 .2-.1 0-.1-.1-.2-.1-.3 0-.2-.1-.3-.1-.5h-.2c0 .2 0 .3.1.5v.5c-.1.2-.1.3-.1.5M53.8 13.9c-.1 0-.2-.1-.3-.1 0 .1 0 .2.1.4-.1.1-.1.2-.2.3v.4c.1 0 .2-.1.3-.1.1-.1.1-.2.2-.3.2-.1.2-.1.4-.1V14c-.1 0-.1 0-.2.1-.1-.1-.1-.1-.3-.2"/><path fill="#7EA885" d="M53.4 15.2c-.1.2-.1.3-.2.4 0 .1 0 .2-.1.4-.1.1-.1.2-.1.3v-.1l-.1-.1c-.1.2-.1.3-.2.5-.2.1-.3.1-.5.1l-.2.4c.1.1.1.1.2.1s.2-.1.3-.1c.1-.1.1-.2.2-.3 0 .1 0 .1.1.2l.3-.3c.2-.1.2-.1.4-.1 0-.1.1-.2.1-.3V16v-.5c0-.1.1-.2.1-.4v-.3c-.1 0-.2.1-.3.1v.3zM52.1 17.5v-.3H52l-.2.2V17.7s.1 0 .1.1l.1-.1s.1-.1.1-.2M12.9 12.1c-.3-.1-.6-.1-.8.1.2.2.5.4.8.6.1-.2.2-.4 0-.7M23 9.7c0-.1-.1-.2-.1-.4 0 .1.1.2.1.4M28 4.4v-.2c0 .2 0 .3-.1.5.1-.1.1-.2.1-.3M20.6 13.9H20c.2-.1.3-.2.5-.3v-.1c-.1 0-.3.1-.5.2-.3.2-.7.8-.9.7-.1.3-.3.5-.4.7-.9.6-1.7-.8-2.5-.9-.5 0-1-.5-1.4-.8-.1.2-.2.3-.2.6 0 .1-.1.3-.1.4.2.2.3.4.5.5.5.6 1.4 1.7 1.2 2.9-.1.6-.6.5-.8.8-.2.3 0 1.1.2 1.5 0 .1.1.2.1.3v-.2c.2-.1.3-.2.4-.3.3-.1.4-.2.7-.3.3-.1.5-.2.8-.3.1 0 .2.1.3.1 0 .2 0 .3.1.5l.3.3h.2c-.1-.5-.2-.7-.3-1.2.2-.3.3-.4.4-.7.2-.3.2-.4.4-.7.1-.3.2-.5.3-.8.1-.3.2-.5.4-.8.3-.4.4-.6.7-1l.4-.4c-.1.3-.1.4-.2.7.4-.3.6-.5.9-.8-.1 0-.3 0-.4-.1l-.5-.5M24.2 24.8c-.2 0-.3 0-.5-.1-.3-.2-.5-.3-.8-.5-.1-.4-.2-.5-.3-.9-.4-.1-.6-.1-.9-.2-.2-.2-.3-.2-.5-.4-.4 0-.7 0-1.1.1-.2 0-.4 0-.6-.1-.3.4-.4.6-.7 1h-1l-.2-.4c0-.2.1-.3.1-.5-.3 0-.4 0-.7-.1.1-.6.1-.9.2-1.4-.1 0-.2.1-.3.1 0 .1.1.1.1.2-.2.1-.3 0-.4-.1 0 .3-.1.4-.1.7-.3 0-.4.1-.7.1 0-.1 0-.1-.1-.2-.2 0-.4 0-.5.1v.2l.3.3c.3.1.4.1.6 0 .2.3.4.4.6.7.3.2.5.3.8.4.2.1.3.2.5.3.2-.1.4-.1.6-.2 0 .2.1.3.1.6v.8c-.2.2-.3.4-.5.6 0 .2 0 .3-.1.5.1-.1.2-.3.3-.6.1 1.4.4 3 1.5 3 .2 0 .4.1.5.1.2-.1.3-.2.4-.2.3.1.3.5.2.9.2.3.5.3.8.5.3.2.4.4.6.7.2.2.5.3.7.2 0-.1 0-.1.1-.1.1-.4.2-.6.3-1 .1-.1.2-.1.3-.2-.1-.9-.5-2-.5-2.7-.1-.9.5-1.3.9-2.2M22.5 13.1c0-.1-.1-.1 0 0v.1-.1z"/><path fill="#7EA885" d="M19.7 13.2c-.3.2-.5.7-.7 1.1.2.1.6-.5.9-.7.2-.1.3-.1.5-.2v-.1c-.2 0-.4-.3-.7-.1M14.6 13.3c-.1-.1-.3-.2-.4-.3-.3-.3-.8-.7-1.3-.8.2.3.1.5 0 .7l.6.6c.3.3.5.6.8.9 0-.2.1-.3.1-.4.1-.4.1-.6.2-.7M32.9 12.3c.1 0 .1 0 0 0 .1 0 .1 0 0 0M43.6 16.5v.8c.1-.3.3-.8.6-1.2-.3.1-.7.2-.9.5.1-.1.2-.1.3-.1M33.3 12.5c0-.1-.1-.1-.2-.1s-.1-.1-.2-.1v.1c.2 0 .3.1.4.1M34.2 12.7c0 .1 0 .1 0 0 0 .1 0 0 0 0M40 13.4c-.2.1-.3.2-.5.2.4.2.9.4 1.3.3.2 0 .5-.2.7-.2-.5-.3-1.1-.5-1.5-.3M48.9 15.5h.2c.3.1.5.1.8 0-.2-.1-.3-.3-.5-.2-.2.1-.3.1-.5.2M42.4 14.6c0 .1.1.1.1.2 0-.1 0-.2-.1-.2M50.4 15.5c.1-.1.3-.2.4-.3-.1.1-.3.2-.4.3M46.5 14.6v.7c.1.3.5.3.8.2 0-.5-.2-.8-.8-.9M42.4 15c-.4-.2-.8-.3-.8.2h.2c.3 0 .5-.1.6-.2M20.9 29.9c.1-.4.1-.8-.2-.9-.1 0-.2.1-.4.2.2.1.4.4.6.7M55.5 30.7V30c-.1-.1-.1-.1-.1-.2-.1-.1-.1-.1-.1-.2s-.1-.2-.1-.3H55c0-.1 0-.2-.1-.3l-.2-.2h-.2v-.4c-.1 0-.1-.1-.1-.1v-.2c-.5.3-.5.4-.4 1 .2.3.1.9.1 1.3s.1.4.2.7c.2.5.1.8 0 1.2h.3c.2 0 .4 0 .5.1.1-.2.1-.3.2-.6.1-.6.1-.7.2-1.1"/><path fill="#7EA885" d="M53.6 30.3c-.3.5-.3.9-.1 1.4.2.5.5.5.9.4.1-.4.2-.7 0-1.2-.1-.3-.2-.2-.2-.7 0-.4.1-1-.1-1.3-.1.8-.2.7-.5 1.4M32.5 21.3c0 .1.1.2.1.3-.1.4-.1.5-.2.9l.5 1c.1.3.1.4.1.6.1 0 .2-.1.3-.1.3-.2.8-.5.7-1.3.7.2.7.5 1 1.4.2.7.6 1.2.7 2 0 .4-.1.7 0 1 .1.3.7.5.9.7l.2.2.3-.3c.1-.1.2-.1.4-.1.1-.1.1-.2.1-.4-.1-.8-.2-1.2-.3-2 .1-.3.1-.4.2-.6-.4-.5-.7-1-1-1.5-1-1.4-2.9-2.4-4-1.8"/><path fill="#ACBFAD" d="M19.8 7.2c.1 0 .1.1.2.1v-.1h-.2M4.7 6.5c.1 0 .1.1.2.1 0-.1 0-.1-.2-.1.1 0 .1 0 0 0M4.7 7.1h-.3c.1.1.2.1.3 0 0 .1 0 .1 0 0M18.4 8h.2c.2 0 .3-.1.5-.1v-.2c.1-.2.1-.4.2-.5h-.2c-.2.4-.3.5-.7.8M11.1 7.3c-.1.1-.1.2-.2.3.1 0 .2 0 .4-.1-.2 0-.2-.1-.2-.2M9.3 7.8h.3-.2c-.7-.2-1.1-.2-1.8-.4.1.1.2.1.3.2.1 0 .3 0 .4.1.3.1.7.1 1 .1M2.2 5.8"/><path fill="#F3F6F4" d="M7.5 7.5c.1 0 .3.1.4.1-.1-.1-.2-.1-.3-.2.7.1 1.1.2 1.8.3h.2c.4 0 .8-.1 1.2-.1.1-.1.1-.2.2-.3.1.1.1.2.1.3h.1c1-.2 2.2.6 3.2.6.7 0 1.6-.6 2.2-.7.6-.1 1.1.5 1.7.5.3-.3.5-.4.8-.7h.2c.1-.2.3-.1.4-.1h.1c-.2-.4-.3-.7-.5-1.1-1.3.6-2 .9-3.5 1.5-1.8 1-2.7-.2-4.4-.4-.4.2-.6.3-1 .4C8.8 7.4 8 7.2 6.3 7c-.7-.4-1.1-.6-1.8-1-.2 0-.3.1-.6.1.3.1.6.2.8.4h.1c.1 0 .1.1.1.1.2.1.3.1.4.2.7.2 1.5.5 2.2.7"/><path fill="#ACBFAD" d="M5.1 7.2c-.1 0-.2 0-.4-.1l-.1.1h.5"/><path fill="#ACBFAD" d="M4.7 7.1c.2-.1.3-.2.4-.3 0-.1-.1-.1-.2-.2-.1 0-.1-.1-.2-.1-.4.1-.6.2-1 .3 0 .1 0 .1.1.2.2.1.4.1.6.2.1-.1.2-.1.3-.1M2.2 5.8s-.1.1 0 0c-.1.1-.1.2-.2.2 0 0 .1.1.2.1v-.3zM18.4 8l-.3.3c-.7.4-1 .7-1.7 1.1.7-.2 1-.3 1.7-.6.4-.1.6-.2 1-.3 0-.2-.1-.3 0-.6-.2 0-.3.1-.5.1h-.2M10.8 7.7c0 .1-.1.1-.1.2h.6c0-.1-.1-.1-.1-.2-.1-.1-.3-.1-.4 0M3.9 6.1c-.6-.2-1.3-.5-1.7-.3.5.2.8.3 1.3.5.2-.1.3-.1.4-.2M9.7 7.8s-.1 0 0 0h-.4.4"/><path fill="#ACBFAD" d="M3.5 6.3c-.5-.2-.8-.3-1.3-.5v.3c.5.4 1 .7 1.6.8 0-.1 0-.1-.1-.2.4-.1.6-.2 1-.3-.2 0-.5-.1-.8-.3-.1.1-.2.1-.4.2M10.6 7.8h.1c0-.1.1-.1.1-.2-.4.1-.8.2-1.2.2h1M5.4 6.8c-.1 0-.2-.1-.4-.2 0 .1.1.1.1.2-.1.1-.2.2-.4.3.1 0 .3.1.4.1.8.1 1.6.1 2.3.3-.6-.2-1.4-.5-2-.7"/><path fill="#F3F6F4" d="M16.4 9.4c.7-.4 1-.7 1.7-1.1l.3-.3c-.6-.1-1.1-.7-1.7-.5-.7.2-1.6.7-2.2.7-1 0-2.2-.8-3.2-.6h-.1c0 .1.1.1.1.2.4 0 .8 0 1.2.1.5.1 1.2.5 1.7.4-.1.7.2 1.5.7 1.8.3.2.6-.1.9-.1.2 0 .4.5.7.5.3 0 .6-.2.9-.3.6-.2.6 0 1.1.1.5.1 1 .1.9-.9 0-.4-.2-.7-.3-1-.4.1-.6.2-1 .3-.6.3-1 .4-1.7.7M25.4 7.9c-.3.2-.5.4-.8.6-.2.5-.3.8-.5 1.3-.2 0-.3.1-.6.1-.2-.1-.3-.2-.5-.3.1.2.2.4.2.6.9.1 1.5-1 2.1-2.1.4-.7.5-.9 1.1-1.2.3-.2.5-.3.8-.5l-1 .5c-.4.5-.5.6-.8 1"/><path fill="#ACBFAD" d="M27.2 6.5c.1-.2.3-.4.4-.6.2-.4.2-.8.3-1.2-.2.5-.2.7-.4 1.2-.1.2-.2.3-.3.6M22 7.3c-.4 0-.5-.1-.9-.1H20h-.1v.1c.1 0 .2.1.2.1.5.1.9-.3 1.3 0 .3.3.5.7.8 1 .2.2.4.5.5.8-.1-.4-.2-.6-.3-.9 0-.4-.2-.6-.4-1M56.2 6.9c-.2.1-.3.2-.5.3.6-.1 1.2-.2 1.8-.2.7 0 1.3-.1 2-.4 0-.2.1-.3.1-.5l-2 .7c-.5 0-.8.1-1.4.1M54.3 7.4c.2 0 .4-.1.6-.1-.2 0-.2 0-.4-.1l-.2.2"/><path fill="#F3F6F4" d="M34.5 6h-.8l-.3.3c-.2.1-.3.2-.4.3l-.4.2c-.1.1-.2.1-.3.2H32c-.1 0-.1 0-.2.1v.2c0 .1 0 .2.1.3.1.2.1.3.2.4.1 0 .1 0 .1.1.1 0 .2-.2.3-.5.4.1 1.1.4 1.1-.4.4-.1.8-.4 1.2-.3.4-.5.8-.2 1.3-.2h.1c-.2-.1-.3-.2-.5-.3-.5-.2-.7-.2-1.2-.4"/><path fill="#ACBFAD" d="M47.3 8.4zM33.6 3.5c-.3-.1-.5-.2-.8-.4v.3c.1 0 .2.1.3.1.3.3.4.4.6.7l.3-.3c0 .1 0 .2.2.2.1 0 .1 0 .2.1l.2.2c.1 0 .2.1.3.1 0-.1 0-.1.1-.2-.1 0-.2-.1-.3-.1-.2-.2-.2-.3-.4-.4h.1c.2.2.3.2.6.3h.4V4l-1-.5h-.8M38.3 4.9c.2.1.3.2.5.3.2.1.2.1.4.1v-.1c-.1-.1-.1-.2-.2-.3h-.7M41.2 5.9h.2c-.3-.1-.4-.2-.7-.3-.4-.1-.6-.2-.9-.3-.1 0-.2.1-.3.1l.5.5c.2-.1.4-.1.6 0 .3-.1.5-.1.6 0M46.2 7.4c-.2.1-.3.1-.5.2 0 .1 0 .1.1.1.2.1.3.1.5.2.2.2.4.3.6.4 0-.1.1-.1.1-.2-.1-.1-.1-.2-.2-.4l-.6-.3"/><path fill="#F3F6F4" d="M26.7 3.5l-3 1c-1.3.4-1.9.6-3.2 1.1-.4.2-.6.3-1.1.4.2.4.3.7.5 1.1H21.1c.4 0 .5.1.9.1.2.4.3.7.6 1.1.1.4.2.5.3.9 0 .2.1.3.1.5.2.1.3.2.5.3.2 0 .3-.1.6-.1.2-.5.3-.8.5-1.3.3-.2.5-.4.8-.6.3-.4.5-.5.8-.9l1-.5c.1-.3.2-.4.3-.7.2-.5.2-.7.4-1.2.1-.2.1-.4.1-.5v-.6c-.5 0-.8 0-1.3-.1"/><defs><path id="c" d="M1.1 1.5h60.5V41H1.1z"/></defs><clipPath id="d"><use xlink:href="#c" overflow="visible"/></clipPath><path clip-path="url(#d)" fill="#A6D1E1" d="M61.2 2v33.5c-1.8.7-3.6 1.3-5.3 1.9-1.7.6-3.3 1.2-4.9 1.8-1.6.6-3.1 1.8-4.6 1.3-1.5-.5-3-1-4.5-1.4-1.5-.5-2.9-.9-4.3-1.4s-2.8-.9-4.2-1.4-2.8-.5-4.2 0c-1.4.4-2.8.9-4.2 1.4s-2.8.9-4.3 1.4-2.9 1-4.5 1.4c-1.5.5-3.1-.7-4.6-1.3-1.6-.6-3.2-1.2-4.9-1.9-1.7-.6-3.5-1.3-5.3-1.9V30v-4.8-4.4-4.3-4.4-4.8-5.4c1.9.7 3.6 1.3 5.3 1.9 1.7.6 3.4 1.2 5 1.7 1.6.6 3.2 1.6 4.7 1.1s3-1 4.4-1.5c1.4-.5 2.9-1 4.3-1.5s2.8-1 4.2-1.4c1.4-.5 2.8-.5 4.1 0 1.4.5 2.8 1 4.2 1.4 1.4.5 2.8 1 4.3 1.5s2.9 1 4.4 1.5c1.5.5 3.1-.6 4.7-1.1 1.6-.6 3.3-1.1 5-1.7 1.6-.6 3.4-1.2 5.2-1.8M10.3 7.2c-1.6-.2-2.4-.3-4-.6-.7-.4-1-.6-1.8-1-.1 0-.1 0-.1-.1h-.1c-.2.2-.3.2-.5.2-.1 0-.2-.1-.4-.1-.6-.2-1-.3-1.3-.2-.1 0-.2 0-.3-.1v.2l-.1.1c-.6 1.1.5 3.1 1.1 4h-.6c.1.4.1.4.1.6.1.2.1.2.1.4.1.1.1.2.1.4h3.3l.1-.1c.3-.3.4-.4.6-.7.3-.1.4-.1.7-.2.2.1.3.1.5.2.3.2.5.3.8.4.4.6.6.9.9 1.6.3.5.5.8.8 1.3.2.3.2.4.4.7-.1.3-.1.4-.2.7v1l1 2c.2.4.3.5.5.9.4.8.6 1.2 1 1.9.3.5.4.8.7 1.3V20.6v1l.2.2.9.9.3.3.1.1h.1c.2.1.3.1.4.1.2.2.3.3.5.6.3.2.5.3.8.4.2.1.3.2.5.3 0 0 .1 0 .1.1h.1c.1 0 .2-.1.3-.1 0 .1 0 .2.1.3v.6c-.2.2-.2.3-.4.5 0 .1-.1.1-.1.1V26.8c0 .4-.1.6-.1 1v.2c.1 0 .1.1.1.1.1.1.2.1.3.2.2.3.2.5.4.9v.8h.2c.3.1.5.1.8.2-.1.6-.1 1-.1 1.6-.1.5-.1.7-.2 1.2 0 .3 0 .4.1.7-.1.4-.1.6-.2.9-.1.2-.1.3-.1.5 0 .7-.1 1.1-.1 1.9v1.1l.1.1c.1.2.2.2.4.4l.6.3s.1 0 .1.1h.1c.3-.1.4-.1.7-.2.3-.1.4-.1.7-.2-.1-.2-.2-.3-.4-.5-.2-.3-.4-.5-.6-.8.1-.3.1-.5.2-.8v-.1-.1c0-.1-.1-.2-.1-.3.2-.2.2-.3.4-.5.1-.1.1-.1.1-.2v-.2-.2h.1c0-.1.1-.1.1-.2.2-.2.3-.3.5-.6.1-.1.2-.2.3-.4l.2-.2v-.4c.1 0 .1 0 .2-.1.1 0 .1 0 .2-.1 0-.1.1-.1.1-.2.2-.4.3-.6.5-1.1l.3-.6c0-.1 0-.1.1-.1.1-.3.1-.5.2-.8.1 0 .1-.1.1-.1.1-.1.2-.1.3-.2l.1-.1.1-.1c.2-.3.3-.4.5-.6 0 0 0-.1.1-.1v-.1c.1-.8.2-1.3.4-2.1.2-.5.3-.7.4-1.2v-.2-.8-.3h-.5c-.3 0-.4 0-.7-.1-.1-.2-.2-.3-.3-.4l-.2.4h-.2c-.3-.2-.4-.3-.7-.5-.1-.3-.2-.5-.3-.8v-.1h-.1c-.3-.1-.5-.1-.9-.2-.2-.2-.3-.2-.4-.4l-.1-.1h-.1c-.4 0-.6 0-1.1.1-.2 0-.3 0-.6-.1h-.2l-.2.2c-.2.3-.3.5-.5.8h-.7c0-.1 0-.1-.1-.1 0-.1 0-.2.1-.3 0-.1 0-.2.1-.3h-.8c.1-.5.1-.7.1-1.1 0-.2 0-.3.1-.4-.2.1-.2.1-.4.1-.1 0-.2.1-.3.1-.1 0-.2.1-.3.1-.1 0-.2.1-.3.1v.6H16c-.1-.2-.1-.3-.2-.6.1-.4.1-.6.1-.9v-.1l.2-.2c.2-.1.3-.1.6-.2s.4-.2.7-.3v.4l.1.1.3.3.1.1h.8c0-.2-.1-.3-.1-.5-.1-.4-.1-.6-.2-1.1.1-.2.2-.3.3-.6.2-.3.2-.4.4-.7v-.1-.1c.1-.3.2-.5.3-.8.1-.3.2-.4.3-.7.1-.1.1-.1.1-.2 0 .1 0 .2-.1.3.3-.3.5-.4.8-.7.3-.3.5-.4.8-.7h.6c.4 0 .6 0 1-.1-.3-.3-.4-.4-.6-.7h.6v-.5V12.6c-.1 0-.1 0-.1-.1-.1-.3-.2-.4-.3-.7l-.2-.4-.3-.4-.2-.4c-.1-.1-.1-.2-.2-.4l-.4.4-.2.2-.2-.2c0-.1-.1-.1-.1-.1.1-.2.2-.3.3-.5l.2-.2c0-.1-.1-.1-.1-.2-.2-.5-.3-.8-.6-1.3 0-.1-.1-.2-.1-.3h.1c.3-.1.4-.1.5 0 .1.1.3.3.4.5.1.2.3.3.4.5.2.2.3.4.4.7 0 .1.1.2.1.4 0 0 0 .1.1.1.1.2.1.3.2.5 0 0 0 .1.1.1h.1c.2 0 .4 0 .6-.1.8-.3 1.3-1.2 1.8-2.1.6-.2 1-.3 1.6-.5h.1c.1 0 .1 0 .2.1h.2c.1 0 .2-.1.4-.1h.1l.1-.1c.2-.1.3-.2.5-.4l.3-.3c.2-.1.2-.2.4-.3-.1-.1-.1-.2-.2-.3.1 0 .1-.1 0-.1l-.1-.1h-.4c-.1 0-.1.1-.1.1l-.2.2c-.1 0-.2.1-.3.1h-.1l-.1.1c-.2.2-.3.3-.5.4-.6.5-.9.7-1.5 1.2 0-.1.1-.1.1-.1.4-.7.4-.7.8-1 0 0 .1 0 .1-.1.2-.1.5-.3.7-.5 0 0 .1 0 .1-.1 0 0 0-.1.1-.1.2-.2.3-.4.4-.7.2-.4.3-.8.3-1.3 0-.1 0-.1.1-.2v-.1-1.2h-.2c-.5 0-.8 0-1.3-.1h-.1-.1l-3 1c-1.3.4-1.9.7-3.2 1.1-.4.2-.6.3-1.1.4-1.4.6-2.2.9-3.6 1.5-1.8 1-2.7-.2-4.4-.4h-.1-.1c-.3.3-.5.4-.8.5m28.5-1.6c.2.1.3.1.5.2.1 0 .2.1.4.1v-.2l.3.3.1.1h.1c.1 0 .2.1.3.1-.1 0-.2 0-.3.1l-1 .5c-.3.1-.4.2-.5.2.1.2.2.2.3.4.1.1.1.2.2.3l.1.1h-.1-.1c-.2 0-.3.1-.5.1-.1-.1-.2-.1-.3-.1H38l-.2-.2c-.4-.3-.6-.4-1-.7-.2-.1-.3-.2-.4-.3-.2-.1-.3-.2-.5-.3h-.1-.1c-.5-.2-.7-.2-1.2-.4h-.1-.9-.1l-.1.1-.3.3-.4.2-.4.2-.2.2h-.2c-.1 0-.1 0-.2.1 0 0-.1 0-.1.1v.6c0 .1 0 .2.1.3v.2c.1.2.1.3.2.4 0 .1.1.1.1.2.1 0 .1 0 .2.1v.4h-.5-.1l-.1-.1c0-.1-.1-.1-.1-.1h-.1V9l-.1-.1c0-.1 0-.1.1-.2.1-.2.1-.4.2-.6-.1 0-.2.1-.3.1.1-.1.1-.2.1-.3-.3.1-.4.1-.7.2-.1 0-.1 0-.2.1h-.1l-.1.1c0-.4-.1-.4-.1-.3l-.2.2-.1.1v.2c0 .1 0 .2-.1.3h-.1c0 .1-.1.1-.1.2s-.1.1-.1.1c-.1.1-.1.1-.1.2-.2.2-.2.3-.4.5.1 0 .1.1.2.1V10.6c.1 0 .2-.1.4-.1h.2l.1-.1c.1-.1.2-.1.3-.2h.1c0 .1-.1.1-.1.2s0 .1-.1.2c-.1.2-.1.3-.2.4h.7s0 .1.1.1v.1c-.2 0-.3 0-.5.1h-.4c-.1.1-.1.2-.2.3-.1.1-.1.2-.1.3 0 .1-.1.1-.1.2s0 .1.1.2c0 .1.1.2.1.3 0 .2 0 .3-.1.4v.6s.1 0 .1.1c.1 0 .1.1.2.1h.1c-.2.3-.3.4-.5.7 0 .1-.1.1-.1.1v.5c-.1.1-.1.2-.1.3-.3.4-.4.6-.6 1.1-.2.4-.2.6-.4 1 0 .1 0 .1-.1.1v.1c.1.2.1.4.2.6-.1.3-.1.5-.2.8v.7l.1.1c.3.4.5.6.8 1 .2.2.4.3.6.5.1 0 .1.1.2.1l.2-.2c.2-.2.3-.2.5-.4.1 0 .1.1.2.1s.1.1.2.1l.2-.2c.2-.2.3-.4.5-.5l.2.4c0 .1.1.1.1.2.1 0 .1 0 .2.1.1 0 .2.1.3.1 0 .1 0 .1.1.2-.1.3-.1.5-.2.8v.1c0 .1 0 .1.1.2.2.4.3.6.4.9.1.2.1.4.1.6.1.3.1.4.2.7-.1.4-.2.6-.3 1.1v.7c.2.4.3.6.4 1.1 0 .4.1.6.1 1v.2c.1.3.2.4.3.7 0 .3.1.4.1.8v.2l.3.6c.1.1.1.2.2.3.1 0 .2 0 .3-.1.1 0 .2-.1.4-.1.4 0 .6 0 1 .1h.1s0-.1.1-.1c.3-.4.4-.6.6-.9v-.1-.1c0-.2 0-.3.1-.4.1 0 .2-.1.3-.1.1 0 .1 0 .2-.1v-.3c0-.3-.1-.5-.1-.9l.1-.1c.1-.1.2-.1.3-.2.1-.1.2-.1.3-.1h.1v-.1c0-.1.1-.1.1-.2-.1.4-.2.7-.3 1.1-.1.4-.1.6-.1 1 0 .2 0 .3-.1.5.2 0 .3 0 .5.1.3 0 .4.1.7.1h.2l.1-.1c.1-.1.1-.2.2-.3.2-.5.3-.7.5-1.2v-.1-.1c-.1-.4-.1-.6-.2-.9 0-.2-.1-.3-.1-.5-.2 0-.3.1-.4.1-.3.1-.5.1-.8.2H38v-.1c-.1-.7-.2-1.1-.3-1.9.1-.2.1-.3.2-.6 0-.1 0-.2.1-.3l.1-.1.7-.7c.3-.5.4-.7.7-1.2v-.1c0-.3.1-.4.1-.7 0-.2.1-.3.1-.5h-.3.4V21H40.1s0-.1.1-.1c.2-.3.3-.4.5-.7.1-.1.1-.2.1-.4 0-.1.1-.1.1-.2l-.2-.2-.2-.2c.4.2.5.2.9.4.2.5.3.7.6 1.2.1.2.1.3.2.5V21.6c.2.5.2.7.4 1.1.1.5.2.8.3 1.3.1.3.1.5.2.9l.3-.3c.1.1.2.2.3.4l.2.2c.1 0 .1-.1.2-.1.1-.1.2-.1.3-.2.1 0 .1-.1.2-.1-.1-.1-.1-.2-.2-.3-.1-.3-.2-.4-.3-.7l-.2-.4c0-.3 0-.5.1-.8.1 0 .1-.1.1-.1.2-.2.3-.2.5-.4h.1c.1 0 .2.1.3.1v-.5h.2v.1c.1.2.1.3.2.5v.4c0 .2 0 .3-.1.5.2 0 .3 0 .5.1h.2c0 .2.1.3.1.5V25s0 .1.1.1h-.1-.1c-.2-.1-.3-.1-.5-.2.1.2.1.3.2.6l.2.7c.1.2.1.3.1.5v.2c.1.2.2.3.3.5.1.3.1.4.2.6v.2c.1 0 .1.1.1.1.1.1.2 0 .3.1.1.2.2.3.3.4 0 0 0 .1.1.1H48.6c.3 0 .5-.1.8-.1.2-.1.3-.1.5-.2-.1.2-.1.3-.2.5.2-.1.4-.1.6-.2.1 0 .1 0 .2-.1.1 0 .1 0 .2-.1 0-.1.1-.1.1-.1.1-.2.2-.3.3-.5.1-.2.2-.3.3-.5.1-.1.2-.2.3-.4l.7-.6c0 .1 0 .1-.1.2-.1.2-.1.4-.2.6.2-.1.3-.1.6-.2.1 0 .1 0 .2-.1.1 0 .1.1.1.1h.1c0 .2 0 .3-.1.5 0-.1-.1-.1-.1-.2-.1-.1-.1-.1-.1-.2s-.1-.1-.1-.2c-.1 0-.1 0-.2.1-.1 0-.1 0-.2.1-.2.1-.2.1-.4.1h-.1c-.1.1-.2.1-.3.2-.1.1-.1.1-.2.1 0 .1 0 .1-.1.2v.2h-.1c-.1 0-.1 0-.2.1h-.1l-.1.1c-.1.2-.2.2-.3.4l-.1.1v.2l-.1.1-.2.2c-.1.1-.1.1-.1.2v.4c0 .1 0 .1-.1.2-.2.1-.2.2-.4.3h-.1l-.1.1c-.2.3-.3.4-.6.6l-.1.1v.1c0 .1 0 .2-.1.3v.8c.1.2.1.4.2.6 0 .2.1.3.1.6-.1 0-.1.1-.1.1V34.6H49.5c.1-.1.1-.1.1-.2l.2-.2c.1-.1.2-.1.3-.1.1 0 .1 0 .2-.1 0-.1.1-.1.1-.2.1-.1.1-.2.2-.3.3-.2.4-.3.7-.5.2 0 .3 0 .4-.1l.1.1c.1.1.1.2.1.3l.7 1.4v-.8h.1c.1.1.2.1.3.2.1 0 .1 0 .1.1 0 0 .1 0 .1-.1 0 .1 0 .1-.1.2l.1.1.2.2c0 .1 0 .1.1.2l.2.6c.2-.2.3-.4.4-.6.1-.2.2-.2.3-.4 0 0 0-.1.1-.1v-.1c0-.2.1-.3.1-.6 0-.2 0-.3.1-.5v-.2c.1-.3.1-.4.2-.6l.2-.6c.1-.4.1-.6.2-.9V30v-.1l-.2-.2-.1-.1c0-.1 0-.2-.1-.3 0-.1 0-.2-.1-.3h-.1v-.1l-.1-.1-.2-.2h-.1V28s-.1 0-.1-.1v-.1-.2c-.1 0-.1 0-.2-.1 0 0-.1 0-.1-.1l-.1-.1c-.1-.2-.1-.3-.2-.5v-.1c.2.1.3.1.4.1h2.2c-.5-.3-.7-.4-1.2-.7-.1 0-.1-.1-.1-.1h-.2c-.1 0-.1-.1-.2-.1l.1-.1.5-.5c.1-.1.1-.1.1-.2v-.6-.1c-.1-.2-.2-.3-.3-.4-.1-.1-.1-.1-.1-.2-.1.1-.2.1-.3.2-.1.1-.2.2-.4.3-.3.2-.4.3-.7.5h-.1-.1c-.3-.1-.5-.1-.8-.2h-.2l-.2.2h-.1c-.1 0-.1-.1-.2-.1 0 0-.1 0-.1-.1h-.1c-.1 0-.2.1-.3.1.2-.3.3-.4.5-.7-.2.2-.3.2-.5.4v-.2c-.1 0-.2.1-.4.1h-.1c.2-.7.2-1 .4-1.7-.1.2-.2.4-.4.6V23v-.1c0-.1 0-.1-.1-.2v-.1c0-.1.1-.1.1-.2s-.1-.1-.1-.1c-.1-.1-.2-.2-.3-.4-.1-.1-.1-.1-.2-.1 0-.1 0-.1.1-.2v-.1c0-.2-.1-.3-.1-.5v-.1l-.1-.1-.1-.1c0-.1 0-.1.1-.2l.2-.4V20 19.4l.1.1.2.2c.1-.1.2-.1.3-.2l.2-.2h.1v-.1c.1-.1.1-.2.2-.3v-.1-.1c.1-.2.1-.2.1-.4.1-.2.1-.4.2-.6-.1 0-.1 0-.2.1 0 0 0-.1.1-.1 0-.1.1-.2.1-.3v-.1c0 .1 0 .1.1.2l.4-.4.2-.2c.1 0 .2-.1.3-.1.1 0 .1 0 .2-.1 0-.1.1-.1.1-.2s.1-.2.1-.3c0 0 0-.1.1-.1V16v-.7c0-.1.1-.2.1-.3v-.5s0-.1.1-.1.2-.1.3-.1c.1-.1.2-.1.4-.1v-1c-.1.1-.2.1-.4.1 0 0-.1 0-.1-.1v-.1c0-.1.1-.1.1-.2s0-.1-.1-.2v-.1c.2-.1.3-.1.4-.2-.1-.2-.1-.3-.2-.4 0-.1-.1-.1-.1-.2 0-.2-.1-.3-.1-.4v-.2h-.4-.1v-.1c-.1 0-.2.1-.3.1.2-.3.3-.4.5-.7.3-.1.5-.2.8-.3h.5c.1 0 .1-.1.1-.1.1-.1.2-.2.4-.3-.1.2-.1.3-.2.5v.2c.1.4.1.6.2 1 0 .3.1.5.1.8.2-.3.3-.5.5-.8.2-.3.3-.4.4-.7v-.1-.1c0-.1 0-.1.1-.2h.1l.2-.1c0-.1 0-.2.1-.3 0-.2.1-.3.1-.5v-.1-.1-.2l.1-.1.4-.2c1.5-.1 1.9-.3 2.6-.8l.2-.2v-.6c.1-.1.1-.2.2-.3 0 0 0-.1.1-.1V5.5c-.1 0-.2.1-.4.1-.1 0-.1 0-.2.1-.8.3-1.1.4-1.9.7-.5 0-.8.1-1.4.1h-.1-.1c-.2.1-.3.1-.5.2-.2 0-.5.1-.7.1h-.3-.1c-.1 0-.1.1-.1.1l-.2.2s-.1 0-.1.1h-.4l-.1.1c-.2.1-.2.2-.4.4-.2.1-.3.1-.6.2.3-.3.4-.4.7-.6-.6.2-1 .3-1.6.6-.5.2-.8.3-1.4.5h-1.1c-.2-.4-.3-.4-.5-.6h-.1-.1c-.4.1-.6.1-1 .2l-.2-.2-.2-.2-.1-.1s-.1 0-.1-.1c-.3-.2-.4-.2-.6-.4-.1 0-.1-.1-.2-.1H46c-.2.1-.3.1-.5.2-.1 0-.2.1-.3.1l.2.4c0 .1 0 .1.1.1 0 .1.1.1.1.2.1 0 .1 0 .2.1h.1c-.1 0-.2 0-.3.1-.3-.1-.4-.1-.6-.2-.1 0-.1 0-.2-.1 0 .1-.1.1-.1.2s-.1.1-.1.2c-.2 0-.3-.1-.5-.1H44h-.1c-.1 0-.1.1-.2.1s-.1.1-.2.1h-.1s0-.1-.1-.1c0 0-.1 0-.1-.1-.3-.2-.5-.3-.8-.5-.1 0-.1-.1-.2-.1s-.1 0-.1.1c-.1 0-.1.1-.2.1h-.1v.1s0 .1-.1.1c-.2-.1-.4-.1-.6-.2l.2.4c-.1 0-.1-.1-.1-.1h-.1-.1c-.1 0-.2-.1-.4-.1v-.2l-.1-.1c.2-.1.3-.1.5-.2.5.1.7.1 1.2.2h.3v-.5-.4c-.1 0-.2-.1-.4-.1-.3-.1-.4-.1-.7-.2-.1 0-.1 0-.2-.1h.4c.4-.1.6-.1 1-.2-.4-.2-.7-.3-1.1-.5-.3-.1-.4-.2-.7-.3-.4-.1-.6-.2-.9-.3h-.1-.1c-.1 0-.1 0-.2.1 0 0 0-.1-.1-.1-.1-.1-.1-.1-.1-.2H38.4c-.5 0-.7 0-1.2-.1.5.3.7.5 1.2.8 0-.2.1-.1.4.1m-5.3-2.5c-.3-.1-.5-.2-.8-.3l-.4-.2v1.1c.1 0 .2.1.4.1h.1c.2.2.3.4.5.6l.3.3.2-.2c.2 0 .2 0 .3-.1h.2l.1.1c0 .1.1.1.1.1h.1c.1 0 .2.1.3.1.1 0 .1 0 .2.1 0-.1.1-.1.1-.2s0-.1.1-.2c0 0 0-.1.1-.1h.4v-.5c-.1-.1-.2-.1-.3-.1l-1-.5h-.1-.1c-.4-.1-.5-.1-.8-.1m25.1 28.3c0 .1.1.1.1.2s-.1.2-.1.3c-.1.1-.1.2-.2.3l-.2.4c-.1.2-.2.2-.3.4-.2.3-.2.4-.4.7l-.2.4c.1 0 .2.1.3.1.1 0 .2.1.3.1h.2c.1 0 .2-.1.3-.1.1-.1.2-.1.4-.1v-.4-.2l.2-.2h.1c0 .1 0 .2.1.3.2-.4.3-.6.4-1.1l.2-.4c.1-.2.1-.3.2-.5s.1-.2.1-.4c.1-.2.1-.4.2-.6-.2.1-.3.1-.6.2h-.1c-.1-.2-.2-.3-.3-.5 0-.1-.1-.1-.1-.1-.1 0-.1 0-.2.1-.1 0-.1 0-.2.1-.3.1-.4.1-.6.2.1.2.2.3.3.4-.1.2 0 .2.1.4m-40.4-20v.4c0 .2 0 .3.1.5v.1l.1.1.1.1c-.1 0-.1.1-.1.1s-.1 0-.1.1c-.6-.3-1.2-.4-1.7-.4 0-.1 0-.1.1-.2s.2-.2.4-.3c.2-.1.3-.1.6-.2.2-.1.3-.1.5-.2-.1-.1-.1-.1 0-.1M3.8 8.6c.1.1.2.1.3.2.4.3.6.4.9.7l-.2.2H3.6c0-.1 0-.1.1-.2v-.1-.1c0-.2 0-.5.1-.7m49.3 5.9v.7c-.1.1-.1.2-.1.3l-.1-.1c-.1.2-.1.3-.2.5 0 .1-.1.1-.1.2-.1 0-.2 0-.3.1-.1 0-.1 0-.2.1-.1-.1-.1-.2-.2-.3l.1-.1.2-.2V15.4c.1 0 .1 0 .2.1.1-.1.1-.2.2-.3.2-.3.3-.4.5-.7M32.2 12l.2.2.3.3h.1l.1.1h-.1c0 .1 0 .1-.1.2h-.2-.1c-.2 0-.3 0-.5-.1-.2 0-.3-.1-.4-.1v-.1-.2-.1c.1-.1.2-.1.3-.1h.1V12l.1-.1s0 .1.1.1.2 0 .3-.1c-.3.2-.2.2-.2.1m1.8 1.6c0 .6-.1.6-.1.6-.1 0-.2.1-.3.1-.1-.1-.2-.2-.4-.3 0-.1 0-.1-.1-.2.1 0 .1.1.2.1l.1.1c.1.1.2.1.3.2 0-.1.1-.2.1-.3.1-.1.1-.1.2-.3-.1 0 0 0 0 0M50.9 17c0 .2 0 .3-.1.4 0 .2 0 .2-.1.4l-.2-.2c0-.1-.1-.1-.1-.1.1-.1.1-.2.2-.4.2 0 .2 0 .3-.1m-14.7-1.9c.1 0 .1 0 .1.1v.4h-.1v-.5m15.2 2.5v.7c-.1.1-.1.2-.2.3l-.1.1c-.1 0-.2.1-.3.1v-.2c0-.1.1-.2.1-.3.1-.2.1-.3.2-.5h-.2c.2.1.3 0 .5-.2m-1.5 3c0 .1.1.1 0 0v.2h.1s.1 0 .1.1h.1c0 .1 0 .1-.1.2-.1.2-.1.3-.2.6V22.6c.1.1.1.2.2.3l-.1.1c-.1.1-.1.1-.1.2l-.1.1v.1c-.1.2-.1.3-.2.4-.1.3-.2.4-.3.7.1 0 .1 0 .2-.1-.1.1-.1.2-.2.4-.1.1-.1.2-.2.3v.1c0 .1-.1.1-.1.2-.2.1-.3.2-.4.3l-.2.2v.4s0-.1-.1-.1c-.1-.3-.1-.5-.2-.8v-.1c.1-.2.2-.3.3-.5.1-.2.2-.3.3-.5.1-.2.2-.2.3-.4.1-.1.1-.1.1-.2v-.2c0-.4-.1-.5-.1-.9v-.1-.1s.1 0 .1-.1c.1 0 .1-.1.2-.1 0-.1 0-.1.1-.2.1-.2.1-.4.2-.6.2-.2.4-.3.6-.5l.1-.1c-.4 0-.4-.1-.4-.2 0 .1 0 .1 0 0m.4 3.2v.2c.1 0 .1-.1.2-.1 0 .1.1.2.1.3l.1.4c0 .1-.1.1-.1.2-.2.1-.3.1-.4.2v-.1l.2-.2c.1-.1.1-.2.2-.3-.1-.1-.1-.1-.1-.2s-.1-.1-.1-.2v-.1h-.1-.1s0-.1.1-.1c0 .1 0 0 0 0m4 1c.2.1.3.1.6.2 0 0 0 .1-.1.1 0 0-.1 0-.1.1v-.1h-.1c-.1-.2-.2-.2-.3-.3m-2.5 1l.2.4c0 .1 0 .1.1.2-.2.2-.3.3-.6.4-.2.1-.2.1-.4.1v-.1-.4-.1c0-.1-.1-.1-.1-.2V26c.1 0 .2-.1.3-.1.1 0 .2-.1.3-.1.1.1.1.1.2 0m-3 1.6h.7l.2-.2.1-.1V27.4c-.1 0-.1 0-.2.1h-.4-.1-.1-.1c-.1 0-.1 0-.2-.1 0 .1 0 0 .1 0m4.6.2c0 .2 0 .2-.1.4v.1l-.2-.2v-.1s0-.1.1-.1c.1.1.1 0 .2-.1m8.2-26.1c-1.9.6-3.7 1.3-5.4 1.9-1.7.6-3.4 1.2-5 1.7-1.6.6-3.2 1.8-4.7 1.3L42 4.9c-1.5-.5-2.9-1-4.3-1.5l-4.2-1.5c-1.4-.5-2.8-.5-4.2 0l-4.2 1.5c-1.4.5-2.9 1-4.3 1.5l-4.5 1.5c-1.5.5-3.1-.7-4.7-1.3-1.6-.6-3.3-1.1-5-1.7-1.9-.7-3.7-1.3-5.5-1.9v34.2c1.9.7 3.6 1.3 5.3 2 1.7.6 3.4 1.2 5 1.8 1.6.6 3.2 1.9 4.7 1.4l4.5-1.5c1.5-.5 2.9-.9 4.4-1.4 1.4-.5 2.8-.9 4.3-1.4 1.4-.5 2.8-.5 4.2 0 1.4.5 2.8.9 4.3 1.4 1.4.5 2.9.9 4.4 1.4l4.5 1.5c1.5.5 3.1-.8 4.7-1.4 1.6-.6 3.3-1.2 5-1.8 1.7-.6 3.5-1.3 5.3-2v-5.5-4.9-8.9-4.5V7c-.1-1.8-.1-3.6-.1-5.5M6.3 7c1.7.2 2.5.4 4.1.6.4-.2.6-.3 1-.4 1.8.2 2.7 1.4 4.4.4 1.5-.6 2.2-.9 3.7-1.5.4-.2.6-.3 1.1-.4 1.3-.4 1.9-.7 3.2-1.1l3-1c.5 0 .8 0 1.3.1V4.6c0 .1 0 .1-.1.2-.1.4-.1.8-.3 1.2-.1.3-.3.5-.4.6-.3.1-.6.3-.9.4-.6.3-.7.5-1.1 1.2-.5.9-1 1.8-1.6 2-.1 0-.3.1-.5 0-.1-.2-.2-.4-.2-.6 0-.1-.1-.2-.1-.4-.1-.3-.3-.6-.5-.8-.3-.3-.5-.7-.8-1-.4-.4-.9.1-1.3 0-.1 0-.2-.1-.2-.1.2.4.3.6.4 1 .2.5.3.8.6 1.3l-.1.1c-.2.3-.3.5-.5.8-.4 0-.5 0-.9.1-.3 0-.5 0-.8-.1-.3.2-.4.4-.7.6-.2.1-.3.1-.5.2-.3.1-.4.1-.7.2-.2.2-.3.3-.5.4-.2.3-.2.5-.4.8.8-.2 1.8.2 2.4.4 0 0 .1 0 .1.1v-.4c.3-.2.4-.2.6-.4-.2-.2-.2-.3-.4-.4 0-.2 0-.3-.1-.5 0-.2.1-.3.1-.4.2 0 .3-.1.6-.1h.7c.1.2.1.4.1.6.1 0 .2-.1.3-.1l-.1-.1h.2c.1-.2.2-.3.3-.4.1.1.2.2.3.4h.1c.1-.1.3-.2.4-.4l.2.4.3.6.2.4c.1.3.2.5.3.8h.1v.4h-1c.1-.3.1-.5.2-.8-.3.3-.5.4-.8.6-.1.1-.2.1-.3.2.5 0 1 .4 1.4.8h-.7c-.4.3-.6.5-.9.8.1-.3.1-.4.2-.7l-.4.4c-.3.4-.4.6-.7 1-.1.3-.2.5-.4.8-.1.3-.2.5-.3.8-.2.3-.2.4-.4.7-.2.3-.3.4-.4.7.1.5.2.7.3 1.2h-.2l-.3-.3c0-.2 0-.3-.1-.5-.1 0-.2-.1-.3-.1-.3.1-.5.2-.8.3-.3.1-.4.2-.7.3-.2.2-.3.3-.4.3v.2c-.1.4-.1.6-.2 1 .1.3.2.5.3.9 0 .1 0 .1.1.2.3 0 .4 0 .7-.1 0-.3.1-.4.1-.7.1 0 .2-.1.3-.1.1 0 .2-.1.3-.1-.1.6-.1.9-.2 1.4.3 0 .4 0 .7.1 0 .2-.1.3-.1.5l.2.4h1c.3-.4.4-.6.7-1 .2 0 .4 0 .6.1.4 0 .7 0 1.1-.1.2.2.3.2.5.4.4.1.6.1.9.2.1.4.2.5.3.9.3.2.5.3.8.5.2 0 .3 0 .5.1.3 0 .5 0 .8.1h.4v.8c-.2.5-.3.8-.5 1.3-.1.9-.2 1.3-.4 2.2-.2.3-.3.4-.5.6-.1.1-.2.1-.3.2-.1.1-.2.1-.3.2-.1.4-.2.6-.3 1 0 .1 0 .1-.1.1l-.3.6c-.2.4-.3.7-.5 1.1-.2.1-.3.1-.5.2v.6c-.1.2-.2.2-.4.4s-.3.4-.5.6c-.1 0-.2 0-.3.1v.7c-.2.3-.3.4-.6.7.1.2.1.3.1.5-.1.4-.2.6-.3 1 .3.4.4.5.7.9-.3.1-.4.1-.7.2l-.6-.3c-.1-.2-.2-.2-.4-.4v-1c.1-.7.1-1.1.1-1.8.1-.2.1-.3.1-.5.1-.4.2-.6.3-1 0-.3-.1-.5-.1-.8.1-.5.1-.7.2-1.2.1-.7.1-1.1.2-1.9-.4-.1-.6-.1-1-.3v-.3-.3c-.2-.4-.3-.6-.4-1l-.4-.2c0-.4.1-.6.1-1v-.1-.5c.2-.2.3-.4.5-.6V25c0-.2-.1-.3-.1-.6-.2.1-.4.1-.6.2-.2-.1-.3-.2-.5-.3-.3-.2-.5-.3-.8-.4-.2-.3-.4-.4-.6-.7-.3.1-.4.1-.6 0l-.3-.3-.9-.9v-.8c-.3-.5-.4-.8-.7-1.4 0-.1 0-.1-.1-.2l-.3-.3c-.1-.1-.2-.3-.4-.4.3.7.4 1.1.7 1.8v.4c-.4-.8-.6-1.2-1-1.9-.2-.4-.3-.6-.5-.9-.4-.8-.6-1.2-.9-2v-.8c.1-.4.1-.5.2-.9-.2-.3-.3-.5-.5-.8-.3-.5-.5-.8-.8-1.3-.4-.7-.6-1-1-1.7l-1-.5c0-.5-.2-.6-.4-.7-.4.1-.6.1-.9.2-.3.3-.4.5-.7.8H2.8l-.1-.4c.4 0 .6 0 1-.1H5c.3-.2.4-.3.7-.5-.6-.4-.9-.6-1.4-1.1.1-.2.2-.3.3-.5.3 0 .4 0 .7-.1-.4-.1-.6-.2-1-.3.2-.1.3-.2.4-.4-.1 0-.2 0-.3-.1-.6.2-1.1 1.3-1 2.1-.1.3-.2.4-.2.6C2.6 9 1.5 6.9 2 6c0 0 0-.1.1-.1l.1-.1c.2-.1.7 0 1.2.1.2.1.4.2.5.2.3 0 .4-.1.6-.1.7.4 1.1.6 1.8 1m39.4.7c0-.1 0-.1-.1-.1.2-.1.3-.1.5-.2.3.2.4.2.6.4.2.1.2.2.3.3l-.2.2c-.2-.2-.4-.3-.6-.4-.2-.1-.3-.1-.5-.2m-5.6-1.9c0-.1 0-.1 0 0l-.5-.5c.1 0 .2-.1.3-.1.4.1.6.2.9.3.3.1.4.2.7.3h-.2c-.2 0-.3.1-.5.1-.3 0-.4-.1-.7-.1m-1.2-.6c-.2-.1-.3-.2-.5-.3h.7c.1.1.1.2.2.3v.2c-.2-.1-.3-.1-.4-.2m-5.3-1.7h.7l1 .5v.1h-.4c-.2-.1-.3-.1-.5-.2h-.1c.2.2.2.3.4.4.1 0 .2.1.3.1 0 .1 0 .1-.1.2-.1 0-.2-.1-.3-.1l-.2-.2c-.1 0-.1 0-.2-.1-.2-.1-.2-.2-.3-.2l-.3.3c-.2-.3-.4-.5-.6-.7-.1 0-.2-.1-.3-.1v-.4c.4.2.5.3.9.4m13.2 5.4c.2-.1.3-.3.5-.5.4-.1.7-.1 1.1-.2.2.2.4.2.6.4h1.2c.6-.2.8-.3 1.4-.5-.1.1-.2.1-.3.2.1.1.2.1.3.3.3-.1.4-.2.6-.3.4-.1.5-.1.9-.2l.5-.5h.4c.1-.1.1-.1.2-.1.1-.1.1-.1.2-.1.2 0 .2 0 .4.1.3 0 .6-.1.8-.1.3-.3.4-.4.6-.5.6 0 .8-.1 1.4-.1l2-.7c.1 0 .1 0 .2-.1v.7c-.1.2-.1.3-.2.5v.4c-.7.5-1.1.8-1.8 1.3-.2.1-.3.2-.5.3-.1.2-.2.2-.3.4 0 .2.1.2.1.4s-.1.3-.1.5c-.1.1-.2.1-.3.1-.1.1-.1.2-.1.4-.2.3-.3.4-.4.7-.1-.4-.1-.6-.1-1 .1-.2.1-.3.2-.6.4-.5.6-.8 1.1-1.3 0-.1 0-.2.1-.3l-.7.7v-.3c-.4.1-.5.1-.7.2-.2.3-.3.4-.4.7-.1.1-.2.2-.4.3h-.5c-.4.1-.6.2-1 .3-.4.6-.7.9-1.1 1.5h.4c.1 0 .2-.1.3-.1.1.2.1.3.2.5-.1.1-.1.2-.2.4v.4c-.2.4-.3.6-.4.9-.3.4-.4.5-.6.9-.1 0-.2-.1-.3-.1-.1.2-.2.3-.3.5v.2l-.4.4c.1.1.1.2.1.3.1.2.1.3.2.4-.1.1-.2.2-.3.4l-.3.3c0-.2.1-.3.1-.5v-.3c-.1 0-.2 0-.3-.1v-.3c-.2.1-.3.1-.5.2 0 .2 0 .3.1.5h.1l-.1.1-.1.1c-.2.3-.3.4-.4.7.1.1.1.2.2.3l.2.2c0 .1-.1.2-.1.3h.2c-.1.2-.1.3-.2.6-.1.2-.2.3-.3.4v.2c-.2.4-.3.5-.6.9-.3.3-.4.4-.7.6-.1.3-.1.5-.2.8-.1.1-.1.1-.2.1v-.3c.1-.1.1-.2.1-.3v-.2h-.2c-.1.2-.2.3-.3.6v.3c.2.2.2.3.4.5 0 .4.1.5.1.9-.1.2-.2.3-.3.5-.1.2-.2.3-.3.6-.1-.2-.1-.3-.2-.5l-.6-.6c0 .3 0 .4-.1.7 0 .2 0 .3-.1.5.1.1.1.2.2.3.2.2.2.3.4.5.1.3.1.5.2.8l-.6-.3c0-.2 0-.3-.1-.6l-.3-.6v-1.1c-.1-.5-.1-.7-.2-1.2 0 .1-.1.2-.1.2-.1 0-.2 0-.4-.1 0-.2 0-.3.1-.5-.1-.3-.2-.4-.3-.7-.1-.2-.1-.3-.2-.5-.1 0-.2.1-.3.1-.2 0-.3-.1-.5-.1v.4c-.1 0-.1 0-.1-.1-.1.1-.1.1-.2.1-.2.2-.3.2-.5.4l-.2.2-.1 1.2c-.2.2-.3.3-.4.5-.1-.5-.2-.8-.3-1.3-.2-.5-.2-.7-.4-1.2v-.9-.1c-.1.1-.2.1-.3.2-.3-.6-.4-.9-.7-1.4-.6-.3-.9-.4-1.5-.6 0-.2 0-.3-.1-.4l-.4.2c-.2-.2-.3-.3-.4-.5-.1-.3-.2-.4-.3-.7-.1.1-.2.1-.3.1.1.2.1.3.2.5s.2.3.3.6c0 .2 0 .3.1.4.1 0 .2.1.3.1.2-.1.2-.2.4-.3 0 .2 0 .3.1.5l.5.5c-.1.1-.1.2-.1.4-.2.3-.3.4-.5.7h-.5v.3h-1.4c-.2-.7-.3-1-.5-1.6-.1-.1-.1-.2-.2-.3 0-.3 0-.4-.1-.7l-.2-.2c-.1-.4-.2-.6-.4-1h-.2c.1.5.2.7.3 1.2l.2.2c0 .3 0 .4.1.7.1.1.1.2.2.3.1.2.1.4.1.6.3.4.4.6.6 1v.3l.2.3c.4 0 .6 0 1 .1 0 .3-.1.4-.1.7-.3.5-.4.7-.7 1.2l-.7.7c-.1.1-.1.1-.2.1 0 .1-.1.2-.1.4-.1.3-.1.4-.2.6.1.8.2 1.2.3 2-.1.1-.1.2-.1.4-.1.1-.2.1-.4.1l-.3.3-.2.2c.1.4.1.6.1 1-.2.1-.3.1-.5.2 0 .2 0 .4-.1.6-.3.4-.4.6-.6.9-.4 0-.6 0-1-.1-.2 0-.2.1-.4.1l-.3-.6c0-.3-.1-.5-.1-.8-.1-.3-.2-.5-.3-.8 0-.4-.1-.6-.1-1.1-.2-.5-.3-.7-.5-1.1v-.5c.1-.5.2-.7.3-1.1-.1-.3-.1-.5-.2-.8-.1-.3-.1-.4-.1-.6l-.5-1c.1-.4.1-.5.2-.9 0-.1-.1-.2-.1-.3 0-.1-.1-.2-.1-.3-.2-.1-.3-.1-.5-.2-.2-.3-.2-.5-.4-.8-.3.2-.5.4-.8.8-.1-.1-.2-.1-.3-.2-.3.2-.4.3-.7.5-.2-.2-.4-.3-.6-.5-.3-.4-.5-.6-.8-1v-.6c.1-.4.1-.5.2-.9-.1-.3-.1-.4-.2-.7.2-.4.2-.6.4-1 .3-.4.4-.6.6-1.1l.2-.4v-.6c.2-.3.4-.5.6-.9.1-.1.2-.1.3-.1.1-.1.3-.2.4-.3 0-.1.1-.1.1-.1.3-.1.5-.1.8 0 .2 0 .3 0 .6.1h.1c0 .1.1.1.1.2.1.2.1.3.1.5l-.1.1c.3.2.4.4.7.6.1.1.1.2.2.4.2.2.3.3.6.5 0-.1 0-.1.1-.2 0-.1.1-.2.1-.3.2.1.3.1.5.1.1.1.2.2.3.4l.6.3h.4l.2.2c.1 0 .2 0 .4-.1 0-.2 0-.4.1-.6.1-.1.1-.2.1-.3-.1-.1-.1-.1-.1-.2H36c-.1 0-.1-.1-.2-.1-.1-.1-.1-.2-.1-.3-.1 0-.2.1-.3.1.1.3.1.7.1 1.1-.3-.1-.5-.5-.8-.6-.1 0-.2-.1-.3-.1-.2-.1-.3-.1-.5-.1-.1 0-.1 0-.2-.1.4-.1.3-.9.2-1.5 0-.1 0-.1-.1-.1v-.2-.1c-.3-.3-.4-.4-.6-.7-.1-.2-.2-.3-.3-.6h-.2c.1.2.1.3.2.5l.2.4c.1.1.2.2.3.4.1 0 .2 0 .3.1h-.2l.3.3c.1-.2 0-.2-.1-.2v.3l-.1.1c0 .1-.1.2-.1.3l-.1-.1c-.2-.1-.2-.2-.4-.3 0-.1 0-.1.1-.2.1 0 .2.1.3.1h.2v-.3c-.2-.2-.3-.3-.5-.6l-.1-.1-.7-.7c-.1 0-.2 0-.3.1 0-.1-.1-.1-.1-.2h-.2v.2c-.1.1-.1.1-.1.2-.2 0-.3.2-.5.4 0 .2 0 .2.1.4v.2h-.1c0 .1-.1.2-.1.3-.1 0-.1 0-.2.1h-.1c-.1.1-.2.2-.3.4 0-.1 0-.1-.1-.2H30c-.1 0-.1-.1-.2-.1V13c0-.2.1-.3.1-.5-.1-.1-.1-.2-.2-.4.1-.1.1-.2.1-.3h.2c.3 0 .5-.1.8-.1.1-.1.1-.1.1-.2 0-.2.1-.3.1-.5-.1-.1-.1-.2-.2-.3h-.4c0-.1 0-.1.1-.2.2-.1.2-.1.4-.1 0-.1 0-.1.1-.2.2-.2.3-.3.4-.5.1-.1.2-.2.3-.2l.2-.2h.6c0-.1.1-.1.1-.2v-.5c.1 0 .2 0 .3-.1v.6c0 .1.1.1.1.2.2 0 .2 0 .4.1 0 .1.1.2.1.4 0-.1.1-.1.1-.2h.5l.2.2c0-.1 0-.1.1-.2h.2c0-.2-.1-.2-.1-.4.1 0 .1-.1.2-.1l.3.3h.2c-.2-.2-.2-.3-.4-.5 0-.1.1-.1.1-.2.2 0 .3.1.6.1.2.1.3.1.5.1-.1-.1-.1-.1-.1-.2-.2-.1-.3-.1-.5-.2s-.3-.1-.5-.2c0-.1-.1-.2-.1-.3v-.4s.1 0 .1-.1c.2-.1.3-.2.5-.3-.4.1-.4.1-.5 0h-.4c0 .1-.1.1-.1.2-.1.1-.2.1-.3.2-.1 0-.2.1-.3.1 0 .1 0 .2-.1.4.1.1.1.2.2.4-.2 0-.2.1-.4.1 0 .2.1.3.1.4-.2 0-.2.1-.4.1-.1-.1-.2-.1-.4-.1l.2-.2c0-.2-.1-.2-.1-.4-.1-.1-.1-.2-.2-.3-.2.1-.3.1-.4.1 0 0-.1 0-.1-.1-.1 0-.1 0-.1-.1-.1-.2-.1-.3-.2-.4 0-.1 0-.2-.1-.3v-.2c.1 0 .1 0 .2-.1.1 0 .2 0 .3-.1.1-.1.2-.1.3-.2l.4-.1c.2-.1.3-.2.4-.3l.3-.3h.8c.5.2.7.2 1.2.4.2.1.3.2.5.3.2.1.3.2.4.3.4.3.6.4.9.7l.3.3c.2 0 .2 0 .4.1s.3.1.4.2c.2-.1.3-.1.6-.1.5.2.7.2 1.2.4v-.3c.2 0 .2.1.4.1.4.3.6.4 1 .7-.1-.3-.2-.4-.3-.7.1 0 .1 0 .2.1l.3-.4c.1 0 .1-.1.2-.1.3.2.5.3.8.5 0 .1.1.1.1.2.1.1.2.1.4.1.1-.1.2-.1.3-.2.1 0 .1-.1.2-.1.3.1.4.1.7.1.1-.1.1-.2.2-.3.3.1.4.1.7.2.2 0 .2 0 .4-.1.2 0 .2 0 .4-.1 0 .1.1.1.1.2.2.2.2.3.3.4m-6.6-1c-.3-.2-.5-.3-.8-.4-.1-.1-.1-.2-.2-.3l1-.5c.2 0 .3-.1.5-.1.3.1.4.1.7.2.3.1.4.1.7.2v.2c-.5-.1-.8-.2-1.3-.2-.2.1-.3.1-.6.2l-.4.2.3.3v.2zm-13-.3c.2-.2.3-.3.5-.4.2-.1.2-.1.4-.1.1-.1.2-.1.3-.2h.2l.2.2-.3.3c-.2.1-.3.2-.4.4-.1 0-.2.1-.4.1-.1 0-.1 0-.2-.1s-.1-.1-.1-.2h-.2m3.2 1.7l.1-.1c0-.1 0-.2-.1-.2-.1-.1-.1-.1-.2-.1H30l-.1-.1c0-.1 0-.2.1-.3l.2-.2.1-.1c.1 0 .1 0 .2-.1-.1.1-.1.2-.1.3.2-.1.2-.1.4-.1l-.1.2c-.1.1-.1.1-.1.2l.2.2V9c.1 0 .1 0 .2.1 0-.1 0-.1.1 0 .1 0 .1.1.2.1-.1.1-.1.2-.2.3-.2.2-.3.2-.4.4-.1.1-.2.1-.3.2 0 0 0-.1-.1-.1l-.2.2.3-.3c0-.1.1-.1.1-.2H30.2c0-.1.1-.1.1-.2s0-.1-.1-.2h.2m-1 .8v-.2c0-.1.1-.2.1-.3h-.1c.1-.1.1-.1.1-.2h.1c0-.1.1-.2.1-.3.1-.1.2-.1.3-.1l.1.1v.1s0 .1-.1.1c0 .1 0 .2-.1.4-.1.1-.1.1-.2.1-.1.1-.2.1-.3.2.1 0 0 .1 0 .1m24.4 3.6v-.3-.5-.5c0-.2 0-.3-.1-.5h.2c0 .2.1.3.1.5 0 .1.1.2.1.3-.1 0-.1 0-.2.1 0 .1-.1.2-.1.3 0 .1.1.2.1.3 0 .1-.1.2-.1.3m-.4 1.1v-.4c.1-.1.1-.2.2-.3 0-.1 0-.2-.1-.4.1 0 .2.1.3.1.2.2.2.2.4.3.1 0 .1 0 .2-.1v.2c-.2.1-.2.1-.4.1-.1.1-.1.2-.2.3-.2.1-.3.2-.4.2m-.4 1.4c.1-.1.1-.2.1-.3 0-.1 0-.2.1-.4s.1-.3.2-.4V15c.1 0 .2-.1.3-.1v.3c0 .1-.1.2-.1.4v.8c0 .1-.1.2-.1.3-.2.1-.3.1-.4.1l-.3.3c0-.1 0-.1-.1-.2-.1.1-.1.2-.2.3-.1 0-.2.1-.3.1-.1 0-.1-.1-.2-.1l.2-.4c.2-.1.3-.1.5-.1.1-.2.1-.3.2-.5.1-.1.1-.1.1 0m-1.2 1.7v-.4l.2-.2h.1v.3c0 .1-.1.2-.1.3-.1-.1-.1-.1-.2 0m-.5 1.4l-.1-.1c.1 0 .1 0 .2-.1s.1-.2.2-.3c.1-.1.1-.2.2-.3.1 0 .1 0 .1-.1-.1.1-.1.2-.1.4l-.2.3c-.1.1-.2.1-.3.2m-.9 1.2s-.1 0 0 0c-.1-.1-.1-.2-.2-.3 0-.1.1-.2.1-.3.1-.1.1-.2.2-.4V20.1c0 .2 0 .3-.1.4m0 2.1c-.1-.1-.1-.2-.2-.3v-.5c.1-.2.1-.3.2-.6l.1.1c0 .2.1.3.1.5l-.2.4h.2c.1.1.2.1.3.2.1.1.2.2.3.4-.1.2-.1.3-.2.5-.1-.1-.1-.2-.1-.3v.4c-.1.1-.2.1-.3.2 0-.1 0-.2-.1-.3V23c.1 0 .2.1.3.1V23c-.1-.1-.1-.2-.1-.3-.1-.2-.2-.2-.3-.1m-.6 1.2c.1-.2.1-.3.2-.4.1-.1.1-.1.1-.2h.1c0 .1-.1.2-.1.3-.1.1-.1.2-.2.3h-.1m1.2.2c0-.1-.1-.2-.1-.3.1-.2.2-.3.3-.6 0 .1 0 .1.1.2v.3l-.2.2c-.1.1-.1.2-.1.2m-6.9.4c-.1-.1-.2-.2-.3-.4.1-.2.2-.3.3-.4.1.3.2.4.3.7-.2.1-.2.1-.3.1m5.3 2.6h-.6l-.2-.2c0-.2-.1-.3-.1-.4V26c.2-.2.3-.2.6-.4l.2-.4c.1-.1.1-.2.2-.3l.2-.4c.1-.1.1-.1.2-.1s.1.1.2.1c0 .1.1.1.1.2-.2.1-.2.1-.4.3 0 .1.1.2.1.3 0 .1.1.2.1.3-.1.1-.1.2-.1.3 0 .2-.1.3-.1.4-.1.2-.1.3-.2.5-.1 0-.1.1-.2.2m.4 1.1c-.3 0-.5.1-.8.1h-1.2c-.1-.2-.2-.3-.3-.5-.2 0-.2 0-.4-.1-.1-.2-.1-.3-.2-.6-.1-.2-.2-.3-.3-.5-.1-.2-.1-.3-.1-.5-.1-.3-.1-.4-.2-.7h.1c.1.1.1.1.1.2.1 0 .1 0 .2.1 0 .2 0 .3.1.4.1.2.2.3.4.4h.4c0 .2.1.3.1.5.1.1.1.2.2.3.1-.1.1-.2.2-.3.1.1.1.2.2.3 0 .1 0 .1.1.1-.1 0-.2.1-.3.1v.4c.1 0 .2 0 .3.1.2 0 .3.1.4.1.1 0 .1 0 .2-.1h.5c.2-.1.2-.1.4-.1.2-.1.3-.1.6-.2s.4-.1.7-.2c-.3.2-.4.3-.7.5-.3 0-.4.1-.7.2m.2-.9v-.5c0-.2.1-.4.1-.6 0-.3.1-.4.1-.6.3-.1.4-.2.6-.3.1-.2.2-.3.3-.5-.1.4-.1.5-.2.9-.2.1-.3.1-.4.2-.1 0-.1 0-.2.1 0 .1 0 .2-.1.3.1 0 .1-.1.2-.1.1-.1.2-.1.3-.2-.1.2-.2.3-.3.4 0 .1 0 .2.1.4 0 .1.1.2.1.3v.3l-.2-.2-.2-.4c-.1 0-.1 0-.2.1v.4c0 .1 0 .1.1.2.1-.2.1-.2-.1-.2m1.3-1.5c0-.1 0-.2.1-.3.1-.2.1-.4.1-.6l.2-.1v.4c-.1.2-.1.3-.1.5-.2 0-.2 0-.3.1m1 .3c-.1-.2-.1-.3-.2-.5l-.2-.2v-.2c.1-.1.2-.1.4-.1.1 0 .1.1.2.1v.3l.2.2c.1-.1.1-.2.1-.4l.2-.2c.3.1.5.1.8.2.1 0 .1 0 .2-.1.1.1.2.1.3.2 0 .1 0 .2.1.3.1 0 .1 0 .2-.1l.3-.3c.1-.1.1-.2.2-.3 0-.2 0-.2.1-.4-.1 0-.2 0-.3-.1.1-.1.2-.2.4-.3.1.2.2.3.3.4v.3l-.5.5c-.2.1-.3.2-.4.3-.1 0-.1 0-.2.1.1.1.2.1.3.2.1 0 .2 0 .3.1.1.1.1.1.2.1s.1 0 .2.1c.1 0 .1 0 .1.1h-.7c-.2-.1-.3-.1-.4-.1-.1-.1-.2-.1-.3-.2l-.2.4c-.1 0-.2.1-.3.1-.1-.1-.2-.1-.3-.2-.2.1-.2.1-.4.1.1-.2.1-.3.2-.5-.1 0-.2 0-.3-.1-.1-.1-.2-.1-.3-.2-.1.3-.2.3-.3.4m-1.6 2.2c.1-.1.1-.2.2-.4.1-.1.1-.2.2-.3.2-.1.3-.2.5-.3-.1.2-.2.3-.3.5-.1.2-.2.3-.3.5-.2-.1-.2-.1-.3 0m2.7.5c.1 0 .2-.1.3-.1V28c.1-.4.1-.6.1-.9.1.2.1.4.2.6l.2.2c.1 0 .1 0 .1.1V28.3c.1 0 .1.1.1.1v.4c.1 0 .1 0 .2.1l.2.2c0 .1 0 .2.1.3l.2-.1c0 .1.1.2.1.3.1.1.1.1.1.2.1.1.1.1.1.2v.7c-.1.4-.1.6-.2.9-.1.2-.1.3-.2.6s-.1.4-.2.7c-.1.1-.1.1-.2.1-.1.1-.2.1-.3.2l-.4.2c-.1.1-.2.1-.3.2-.1-.1-.2-.1-.3-.2 0-.1-.1-.2-.1-.3 0-.1 0-.2-.1-.3l-.3-.3-.2.2v.1c-.1-.1-.1-.2-.2-.3l-.2-.2c-.3 0-.4 0-.6.1-.4.2-.5.4-.9.6-.1.2-.2.3-.3.4-.2.1-.3.1-.5.2-.1.1-.2.2-.3.4h-.5v-.3c.1 0 .1-.1.2-.1-.1-.3-.1-.5-.2-.9-.1-.2-.1-.4-.2-.6v-.3-.3c0-.1 0-.2.1-.3.2-.3.3-.4.6-.6.2-.2.3-.2.6-.4.1-.2.1-.3.2-.4v-.2l.2-.2c0 .1 0 .1.1.1.1-.2.1-.3.1-.6.1-.2.2-.2.3-.4.1 0 .1 0 .2-.1l.2.2.2-.4c0-.1 0-.2.1-.3.1-.1.2-.1.3-.2.2-.1.2-.1.4-.1.1 0 .1 0 .2-.1.1.1.1.1.1.2-.1.1-.1.1-.1.2s0 .2-.1.4l.4.4h.4m-15.6 1.2c.1-.4.1-.6.1-1 .1-.5.2-.8.4-1.3.3-.1.5-.1.8-.2.1.4.1.6.2.9-.2.5-.3.7-.5 1.2-.1.1-.1.2-.2.3-.4.2-.5.1-.8.1m21.3 2.5c0-.1 0-.2-.1-.3v-.2h-.2c.1-.2.1-.3.2-.5l-.2-.4c-.1-.1-.1-.2-.2-.3.1 0 .1 0 .2-.1.2.2.3.4.4.6.1 0 .2-.1.3-.1-.1.2-.1.2-.1.4-.1.2-.1.3-.2.5 0 .2 0 .3-.1.4m-4.6 1.5c.1 0 .1 0 .2-.1 0-.1.1-.1.1-.2 0 .2-.1.3-.1.6-.1.2-.2.2-.3.4 0-.1 0-.2-.1-.3-.1-.1-.1-.2-.2-.3 0-.1 0-.1.1-.2.1 0 .2 0 .3.1m3.5 0c-.1 0-.2-.1-.3-.1.2-.3.2-.4.4-.7.1-.2.2-.2.3-.4l.2-.4h.3v.2c-.1.2-.1.3-.2.5l-.4.4v.4c-.1 0-.2 0-.3.1"/><path fill="#FFF" d="M61.6 1.5v34.2c-1.9.7-3.6 1.3-5.3 2-1.7.6-3.4 1.2-5 1.8-1.6.6-3.2 1.9-4.7 1.4l-4.5-1.5c-1.5-.5-2.9-.9-4.4-1.4-1.4-.5-2.8-.9-4.3-1.4s-2.8-.5-4.2 0c-1.4.5-2.8.9-4.3 1.4-1.4.5-2.9.9-4.4 1.4L16 40.9c-1.5.5-3.1-.8-4.7-1.4-1.6-.6-3.3-1.2-5-1.8-1.7-.6-3.5-1.3-5.3-2v-5.5-4.9-4.5-4.4-4.5V7 1.5c1.9.6 3.7 1.3 5.4 1.9 1.7.6 3.4 1.2 5 1.7 1.6.6 3.2 1.8 4.7 1.3l4.5-1.5c1.5-.5 2.9-1 4.3-1.5l4.2-1.5c1.4-.5 2.8-.5 4.2 0l4.2 1.5c1.4.5 2.9 1 4.3 1.5l4.5 1.5c1.5.5 3.1-.7 4.7-1.3 1.6-.6 3.3-1.1 5-1.7 2-.7 3.7-1.3 5.6-1.9M62.7 0c-.4.1-.6.2-1.1.4-1.9.6-3.6 1.2-5.4 1.8-1.7.6-3.4 1.2-5 1.7-1.6.6-3.2 1.8-4.7 1.3L42 3.7c-1.5-.5-2.9-1-4.3-1.5L33.5.7c-1.4-.5-2.8-.5-4.2 0l-4.2 1.5c-1.4.5-2.9 1-4.3 1.5l-4.5 1.5c-1.5.5-3.1-.7-4.7-1.3-1.6-.6-3.3-1.1-5-1.7C4.7 1.6 2.9 1 1.1.4.6.2.4.1 0 0v36.4c.4.2.6.2 1.1.4 1.8.7 3.6 1.3 5.3 2 1.7.6 3.4 1.2 5 1.8 1.6.6 3.2 1.9 4.7 1.4l4.5-1.5c1.5-.5 2.9-.9 4.4-1.4 1.4-.5 2.8-.9 4.3-1.4 1.4-.5 2.8-.5 4.2 0 1.4.5 2.8.9 4.3 1.4 1.4.5 2.9.9 4.4 1.4l4.5 1.5c1.5.5 3.1-.8 4.7-1.4 1.6-.6 3.3-1.2 5-1.8 1.7-.6 3.5-1.3 5.3-2 .4-.2.6-.2 1.1-.4v-1.1V0z"/><g opacity=".4"><defs><path id="e" d="M.9.9h60.9v40.2H.9z"/></defs><clipPath id="f"><use xlink:href="#e" overflow="visible"/></clipPath><path clip-path="url(#f)" fill="none" stroke="#D1D3D4" stroke-width=".337" stroke-miterlimit="10" d="M1.1 1.5l3 1 3 1v5.8c-1.2-.4-2.1-.8-3-1.1-.9-.3-1.8-.6-3-1.1V4.3 1.5zM7.1 3.6l3 1 3 1v5.8c-1.2-.4-2.1-.7-3-1.1-.9-.3-1.8-.6-3-1.1V6.3 3.6zM13.2 5.7c1.2.4 2.1 1 3 .7l3-1v5.8l-3 1c-.9.3-1.8-.3-3-.7V8.6 5.7zM19.2 5.3l3-1 3-1v5.8l-3 1-3 1V8.2 5.3zM25.3 3.2l3-1c.9-.3 1.8-1.5 3-1V6.9c-1.2-.4-2.1.7-3 1l-3 1V6 3.2z"/><path clip-path="url(#f)" fill="none" stroke="#D1D3D4" stroke-width=".337" stroke-miterlimit="10" d="M31.3 1.1l3 1 3 1v5.8l-3-1-3-1V1.1zM37.4 3.2l3 1 3 1V11l-3-1-3-1V6.1 3.2zM43.4 5.3l3 1c.9.3 1.8-.3 3-.7v5.8c-1.2.4-2.1 1-3 .7l-3-1V8.2c.1-.9 0-1.8 0-2.9zM49.5 5.7l3-1 3-1v5.8c-1.2.4-2.1.7-3 1.1-.9.3-1.8.6-3 1.1V8.8 5.7zM55.6 3.6l3-1 3-1v5.6c-1.2.4-2.1.7-3 1.1-.9.3-1.8.6-3 1.1V6.5 3.6zM1.1 7.2c1.2.4 2.1.7 3 1.1.9.3 1.8.6 3 1.1v5.8c-1.2-.4-2.1-.7-3-1.1-.9-.3-1.8-.6-3-1.1V7.2zM7.1 9.3c1.2.4 2.1.7 3 1.1.9.3 1.8.6 3 1.1v5.8c-1.2-.4-2.1-.7-3-1.1-.9-.3-1.8-.6-3-1.1v-2.9-2.9zM13.2 11.4c1.2.4 2.1 1 3 .7l3-1v5.8l-3 1c-.9.3-1.8-.3-3-.7v-2.9-2.9zM19.2 11.1l3-1 3-1v5.8l-3 1-3 1V14v-2.9zM25.3 9l3-1c.9-.3 1.8-1.4 3-1v5.8c-1.2-.4-2.1.7-3 1l-3 1v-2.9V9z"/><path clip-path="url(#f)" fill="none" stroke="#D1D3D4" stroke-width=".337" stroke-miterlimit="10" d="M31.3 6.9l3 1 3 1v5.8l-3-1-3-1V6.9zM37.4 9l3 1 3 1v5.8l-3-1-3-1v-2.9V9zM43.5 11.1l3 1c.9.3 1.8-.3 3-.7v5.8c-1.2.4-2.1 1-3 .7l-3-1V14v-2.9zM49.5 11.4c1.2-.4 2.1-.7 3-1.1.9-.3 1.8-.6 3-1.1V15c-1.2.4-2.1.7-3 1.1-.9.3-1.8.6-3 1.1v-2.9-2.9zM55.6 9.3c1.2-.4 2.1-.7 3-1.1.9-.3 1.8-.6 3-1.1V12.8c-1.2.4-2.1.7-3 1.1-.9.3-1.8.6-3 1.1v-2.9-2.8zM1.1 12.9c1.2.4 2.1.7 3 1.1.9.3 1.8.6 3 1.1v5.8c-1.2-.4-2.1-.8-3-1.1-.9-.3-1.8-.6-3-1.1v-2.8-3zM7.1 15c1.2.4 2.1.7 3 1.1.9.3 1.8.6 3 1.1V23c-1.2-.4-2.1-.8-3-1.1-.9-.3-1.8-.6-3-1.1v-2.9V15zM13.1 17.1c1.2.4 2.1 1 3 .7l3-1v5.8l-3 1c-.9.3-1.8-.3-3-.7V20v-2.9zM19.2 16.8l3-1 3-1v5.8l-3 1-3 1v-2.9-2.9zM25.3 14.8l3-1c.9-.3 1.8-1.4 3-1v5.8c-1.2-.4-2.1.7-3 1l-3 1v-2.9-2.9z"/><path clip-path="url(#f)" fill="none" stroke="#D1D3D4" stroke-width=".337" stroke-miterlimit="10" d="M31.3 12.7l3 1 3 1v5.8l-3-1-3-1v-5.8zM37.4 14.8l3 1 3 1v5.8l-3-1-3-1v-2.9-2.9zM43.5 16.8l3 1c.9.3 1.8-.3 3-.7v5.8c-1.2.4-2.1 1-3 .7l-3-1v-2.9-2.9zM49.5 17.1c1.2-.4 2.1-.7 3-1.1.9-.3 1.8-.6 3-1.1v5.8c-1.2.4-2.1.7-3 1.1-.9.3-1.8.6-3 1.1V20v-2.9zM55.6 15c1.2-.4 2.1-.7 3-1.1.9-.3 1.8-.6 3-1.1v5.6c-1.2.4-2.1.8-3 1.1-.9.3-1.8.6-3 1.1v-2.9V15zM1.1 18.6c1.2.4 2.1.7 3 1.1.9.3 1.8.6 3 1.1v5.8c-1.2-.4-2.1-.8-3-1.1-.9-.3-1.8-.6-3-1.1v-5.8zM7.1 20.7c1.2.4 2.1.7 3 1.1.9.3 1.8.6 3 1.1v5.8c-1.2-.4-2.1-.8-3-1.1-.9-.3-1.8-.6-3-1.1v-2.9-2.9zM13.1 22.9c1.2.4 2.1 1 3 .7l3-1v5.8l-3 1c-.9.3-1.8-.3-3-.8v-2.9-2.8zM19.2 22.6l3-1 3-1v5.8l-3 1-3 1v-2.9-2.9zM25.3 20.6l3-1c.9-.3 1.8-1.4 3-1v5.8c-1.2-.4-2.1.7-3 1l-3 1v-2.9-2.9z"/><path clip-path="url(#f)" fill="none" stroke="#D1D3D4" stroke-width=".337" stroke-miterlimit="10" d="M31.3 18.5l3 1 3 1v5.8l-3-1-3-1v-2.9-2.9zM37.4 20.6l3 1 3 1v5.8l-3-1-3-1v-2.9-2.9zM43.5 22.6l3 1c.9.3 1.8-.3 3-.7v5.8c-1.2.4-2.1 1.1-3 .8l-3-1v-2.9-3zM49.5 22.9c1.2-.4 2.1-.8 3-1.1.9-.3 1.8-.6 3-1.1v5.8c-1.2.4-2.1.8-3 1.1-.9.3-1.8.6-3 1.1v-2.9-2.9zM55.6 20.7c1.2-.4 2.1-.8 3-1.1.9-.3 1.8-.6 3-1.1v5.6c-1.2.4-2.1.8-3 1.1-.9.3-1.8.6-3 1.1v-2.9-2.7zM1.1 24.3c1.2.4 2.1.8 3 1.1.9.3 1.8.6 3 1.1v5.8c-1.2-.4-2.1-.8-3-1.1-.9-.3-1.8-.7-3-1.1v-2.8-3zM7.1 26.4c1.2.4 2.1.8 3 1.1.9.3 1.8.6 3 1.1v5.8c-1.2-.4-2.1-.8-3-1.1-.9-.3-1.8-.7-3-1.1v-2.9-2.9zM13.1 28.6c1.2.4 2.1 1.1 3 .8l3-1v5.8l-3 1c-.9.3-1.8-.3-3-.8v-2.9-2.9zM19.2 28.3l3-1 3-1v5.8l-3 1-3 1v-2.9-2.9z"/><path clip-path="url(#f)" fill="none" stroke="#D1D3D4" stroke-width=".337" stroke-miterlimit="10" d="M25.3 26.3l3-1c.9-.3 1.8-1.4 3-1v5.8c-1.2-.4-2.1.7-3 1l-3 1v-2.9-2.9z"/><path clip-path="url(#f)" fill="none" stroke="#D1D3D4" stroke-width=".337" stroke-miterlimit="10" d="M31.3 24.3l3 1 3 1v5.8l-3-1-3-1v-2.9-2.9zM37.4 26.3l3 1 3 1v5.8l-3-1-3-1v-2.9-2.9zM43.5 28.3l3 1c.9.3 1.8-.3 3-.8v5.8c-1.2.4-2.1 1.1-3 .8l-3-1v-2.9-2.9zM49.6 28.6c1.2-.4 2.1-.8 3-1.1.9-.3 1.8-.6 3-1.1v5.8c-1.2.4-2.1.8-3 1.1-.9.3-1.8.7-3 1.1v-2.9-2.9zM55.6 26.4c1.2-.4 2.1-.8 3-1.1.9-.3 1.8-.6 3-1.1V29.9c-1.2.4-2.1.8-3 1.1-.9.3-1.8.7-3 1.1v-2.9-2.8zM1.1 30c1.2.4 2.1.8 3 1.1.9.3 1.8.7 3 1.1V38c-1.2-.4-2.1-.8-3-1.1-.9-.3-1.8-.7-3-1.1V30zM7.1 32.1c1.2.4 2.1.8 3 1.1.9.3 1.8.7 3 1.1v5.8c-1.2-.4-2.1-.8-3-1.1-.9-.3-1.8-.7-3-1.1V35v-2.9zM13.1 34.3c1.2.4 2.1 1.1 3 .8l3-1v5.8l-3 1c-.9.3-1.8-.4-3-.8v-2.9-2.9zM19.2 34.1l3-1 3-1v5.8l-3 1-3 1V37v-2.9z"/><path clip-path="url(#f)" fill="none" stroke="#D1D3D4" stroke-width=".337" stroke-miterlimit="10" d="M25.3 32.1l3-1c.9-.3 1.8-1.4 3-1v5.8c-1.2-.4-2.1.7-3 1l-3 1V35c-.1-.9 0-1.7 0-2.9z"/><path clip-path="url(#f)" fill="none" stroke="#D1D3D4" stroke-width=".337" stroke-miterlimit="10" d="M31.3 30.1l3 1 3 1v5.8l-3-1-3-1v-5.8zM37.4 32.1l3 1 3 1v5.8l-3-1-3-1V35v-2.9zM43.5 34.1l3 1c.9.3 1.8-.3 3-.8v5.8c-1.2.4-2.1 1.1-3 .8l-3-1V37v-2.9zM49.6 34.3c1.2-.4 2.1-.8 3-1.1.9-.3 1.8-.7 3-1.1v5.8c-1.2.4-2.1.8-3 1.1-.9.3-1.8.7-3 1.1v-2.9-2.9zM55.6 32.1c1.2-.4 2.1-.8 3-1.1.9-.3 1.8-.7 3-1.1v5.6c-1.2.4-2.1.8-3 1.1-.9.3-1.8.7-3 1.1v-2.9-2.7z"/></g><g><defs><path id="g" d="M31.3 0H47v42.1H31.3z"/></defs><clipPath id="h"><use xlink:href="#g" overflow="visible"/></clipPath><path clip-path="url(#h)" fill="#D1D3D4" d="M47 5.4v36.7l-15.7-5V0"/></g><g><defs><path id="i" d="M0 0h15.7v42.1H0z"/></defs><clipPath id="j"><use xlink:href="#i" overflow="visible"/></clipPath><path clip-path="url(#j)" fill="#D1D3D4" d="M15.7 5.4v36.7L0 36.4V0"/></g></svg>