<svg xmlns="http://www.w3.org/2000/svg" xmlns:xlink="http://www.w3.org/1999/xlink" width="69.2" height="35.5" viewBox="0 0 69.2 35.5"><path fill="#E9E9E9" d="M69.2 34c0 .8-.7 1.5-1.5 1.5H1.5C.7 35.5 0 34.9 0 34V1.5C0 .7-.1 0 .8 0h67.7c.8 0 .8.7.8 1.5V34z"/><g opacity=".5"><defs><path id="a" d="M0 .5h69.2v1.2H0z"/></defs><clipPath id="b"><use xlink:href="#a" overflow="visible"/></clipPath><path clip-path="url(#b)" fill="#BDBCBC" d="M69.1.5H.1c-.1.3-.1.6-.1 1v.2h69.2v-.2c0-.4 0-.7-.1-1"/></g><g opacity=".5"><defs><path id="c" d="M.1 0h69.1v.5H.1z"/></defs><clipPath id="d"><use xlink:href="#c" overflow="visible"/></clipPath><path clip-path="url(#d)" fill="#918F90" d="M.1.5h69.1c-.1-.3-.3-.5-.8-.5H.8C.3 0 .1.2.1.5"/></g><path fill="#F4F4F4" d="M0 1.7h68.9v1.1H0zM5.7 10.7c0 .1-.1.3-.3.3H1.8c-.1 0-.3-.1-.3-.3v-2c0-.1.1-.3.3-.3h3.6c.1 0 .3.1.3.3v2z"/><path fill="none" stroke="#676A67" stroke-width=".118" stroke-miterlimit="10" d="M5.7 10.7c0 .1-.1.3-.3.3H1.8c-.1 0-.3-.1-.3-.3v-2c0-.1.1-.3.3-.3h3.6c.1 0 .3.1.3.3v2z"/><path fill="#F4F4F4" d="M10.5 10.7c0 .1-.1.3-.3.3H6.6c-.1 0-.3-.1-.3-.3v-2c0-.1.1-.3.3-.3h3.6c.1 0 .3.1.3.3v2z"/><path fill="none" stroke="#676A67" stroke-width=".118" stroke-miterlimit="10" d="M10.5 10.7c0 .1-.1.3-.3.3H6.6c-.1 0-.3-.1-.3-.3v-2c0-.1.1-.3.3-.3h3.6c.1 0 .3.1.3.3v2z"/><path fill="#F4F4F4" d="M15.2 10.7c0 .1-.1.3-.3.3h-3.6c-.1 0-.3-.1-.3-.3v-2c0-.1.1-.3.3-.3H15c.1 0 .3.1.3.3v2z"/><path fill="none" stroke="#676A67" stroke-width=".118" stroke-miterlimit="10" d="M15.2 10.7c0 .1-.1.3-.3.3h-3.6c-.1 0-.3-.1-.3-.3v-2c0-.1.1-.3.3-.3H15c.1 0 .3.1.3.3v2z"/><path fill="#F4F4F4" d="M20 10.7c0 .1-.1.3-.3.3h-3.6c-.1 0-.3-.1-.3-.3v-2c0-.1.1-.3.3-.3h3.6c.1 0 .3.1.3.3v2z"/><path fill="none" stroke="#676A67" stroke-width=".118" stroke-miterlimit="10" d="M20 10.7c0 .1-.1.3-.3.3h-3.6c-.1 0-.3-.1-.3-.3v-2c0-.1.1-.3.3-.3h3.6c.1 0 .3.1.3.3v2z"/><path fill="#F4F4F4" d="M24.8 10.7c0 .1-.1.3-.3.3h-3.6c-.1 0-.3-.1-.3-.3v-2c0-.1.1-.3.3-.3h3.6c.1 0 .3.1.3.3v2z"/><path fill="none" stroke="#676A67" stroke-width=".118" stroke-miterlimit="10" d="M24.8 10.7c0 .1-.1.3-.3.3h-3.6c-.1 0-.3-.1-.3-.3v-2c0-.1.1-.3.3-.3h3.6c.1 0 .3.1.3.3v2z"/><path fill="#F4F4F4" d="M29.6 10.7c0 .1-.1.3-.3.3h-3.6c-.1 0-.3-.1-.3-.3v-2c0-.1.1-.3.3-.3h3.6c.1 0 .3.1.3.3v2z"/><path fill="none" stroke="#676A67" stroke-width=".118" stroke-miterlimit="10" d="M29.6 10.7c0 .1-.1.3-.3.3h-3.6c-.1 0-.3-.1-.3-.3v-2c0-.1.1-.3.3-.3h3.6c.1 0 .3.1.3.3v2z"/><path fill="#F4F4F4" d="M34.3 10.7c0 .1-.1.3-.3.3h-3.6c-.1 0-.3-.1-.3-.3v-2c0-.1.1-.3.3-.3H34c.1 0 .3.1.3.3v2z"/><path fill="none" stroke="#676A67" stroke-width=".118" stroke-miterlimit="10" d="M34.3 10.7c0 .1-.1.3-.3.3h-3.6c-.1 0-.3-.1-.3-.3v-2c0-.1.1-.3.3-.3H34c.1 0 .3.1.3.3v2z"/><path fill="#F4F4F4" d="M39.1 10.7c0 .1-.1.3-.3.3h-3.6c-.1 0-.2-.1-.2-.3v-2c0-.1.1-.3.2-.3h3.6c.1 0 .3.1.3.3v2z"/><path fill="none" stroke="#676A67" stroke-width=".118" stroke-miterlimit="10" d="M39.1 10.7c0 .1-.1.3-.3.3h-3.6c-.1 0-.2-.1-.2-.3v-2c0-.1.1-.3.2-.3h3.6c.1 0 .3.1.3.3v2z"/><path fill="#F4F4F4" d="M43.9 10.7c0 .1-.1.3-.3.3H40c-.1 0-.3-.1-.3-.3v-2c0-.1.1-.3.3-.3h3.6c.1 0 .3.1.3.3v2z"/><path fill="none" stroke="#676A67" stroke-width=".118" stroke-miterlimit="10" d="M43.9 10.7c0 .1-.1.3-.3.3H40c-.1 0-.3-.1-.3-.3v-2c0-.1.1-.3.3-.3h3.6c.1 0 .3.1.3.3v2z"/><path fill="#F4F4F4" d="M48.6 10.7c0 .1-.1.3-.3.3h-3.6c-.1 0-.3-.1-.3-.3v-2c0-.1.1-.3.3-.3h3.6c.1 0 .3.1.3.3v2z"/><path fill="none" stroke="#676A67" stroke-width=".118" stroke-miterlimit="10" d="M48.6 10.7c0 .1-.1.3-.3.3h-3.6c-.1 0-.3-.1-.3-.3v-2c0-.1.1-.3.3-.3h3.6c.1 0 .3.1.3.3v2z"/><path fill="#F4F4F4" d="M53.4 10.7c0 .1-.1.3-.3.3h-3.6c-.1 0-.3-.1-.3-.3v-2c0-.1.1-.3.3-.3h3.6c.1 0 .3.1.3.3v2z"/><path fill="none" stroke="#676A67" stroke-width=".118" stroke-miterlimit="10" d="M53.4 10.7c0 .1-.1.3-.3.3h-3.6c-.1 0-.3-.1-.3-.3v-2c0-.1.1-.3.3-.3h3.6c.1 0 .3.1.3.3v2z"/><path fill="#F4F4F4" d="M58.2 10.7c0 .1-.1.3-.3.3h-3.6c-.1 0-.3-.1-.3-.3v-2c0-.1.1-.3.3-.3h3.6c.1 0 .3.1.3.3v2z"/><path fill="none" stroke="#676A67" stroke-width=".118" stroke-miterlimit="10" d="M58.2 10.7c0 .1-.1.3-.3.3h-3.6c-.1 0-.3-.1-.3-.3v-2c0-.1.1-.3.3-.3h3.6c.1 0 .3.1.3.3v2z"/><path fill="#F4F4F4" d="M63 10.7c0 .1-.1.3-.3.3h-3.6c-.1 0-.3-.1-.3-.3v-2c0-.1.1-.3.3-.3h3.6c.1 0 .3.1.3.3v2z"/><path fill="none" stroke="#676A67" stroke-width=".118" stroke-miterlimit="10" d="M63 10.7c0 .1-.1.3-.3.3h-3.6c-.1 0-.3-.1-.3-.3v-2c0-.1.1-.3.3-.3h3.6c.1 0 .3.1.3.3v2z"/><path fill="#F4F4F4" d="M67.7 10.7c0 .1-.1.3-.3.3h-3.6c-.1 0-.3-.1-.3-.3v-2c0-.1.1-.3.3-.3h3.6c.1 0 .3.1.3.3v2z"/><path fill="none" stroke="#676A67" stroke-width=".118" stroke-miterlimit="10" d="M67.7 10.7c0 .1-.1.3-.3.3h-3.6c-.1 0-.3-.1-.3-.3v-2c0-.1.1-.3.3-.3h3.6c.1 0 .3.1.3.3v2z"/><path fill="#F4F4F4" d="M5.4 15.2c0 .1-.1.3-.3.3H1.8c-.1 0-.3-.1-.3-.3v-3.4c0-.1.1-.3.3-.3h3.4c.1 0 .3.1.3.3v3.4z"/><path fill="none" stroke="#676A67" stroke-width=".118" stroke-miterlimit="10" d="M5.4 15.2c0 .1-.1.3-.3.3H1.8c-.1 0-.3-.1-.3-.3v-3.4c0-.1.1-.3.3-.3h3.4c.1 0 .3.1.3.3v3.4z"/><path fill="#F4F4F4" d="M12.3 19.7c0 .1-.1.3-.3.3H8.7c-.1 0-.3-.1-.3-.3v-3.4c0-.1.1-.3.3-.3H12c.1 0 .3.1.3.3v3.4z"/><path fill="none" stroke="#676A67" stroke-width=".118" stroke-miterlimit="10" d="M12.3 19.7c0 .1-.1.3-.3.3H8.7c-.1 0-.3-.1-.3-.3v-3.4c0-.1.1-.3.3-.3H12c.1 0 .3.1.3.3v3.4z"/><path fill="#F4F4F4" d="M16.9 19.7c0 .1-.1.3-.3.3h-3.4c-.1 0-.3-.1-.3-.3v-3.4c0-.1.1-.3.3-.3h3.4c.1 0 .3.1.3.3v3.4z"/><path fill="none" stroke="#676A67" stroke-width=".118" stroke-miterlimit="10" d="M16.9 19.7c0 .1-.1.3-.3.3h-3.4c-.1 0-.3-.1-.3-.3v-3.4c0-.1.1-.3.3-.3h3.4c.1 0 .3.1.3.3v3.4z"/><path fill="#F4F4F4" d="M21.5 19.7c0 .1-.1.3-.3.3h-3.4c-.1 0-.3-.1-.3-.3v-3.4c0-.1.1-.3.3-.3h3.4c.1 0 .3.1.3.3v3.4z"/><path fill="none" stroke="#676A67" stroke-width=".118" stroke-miterlimit="10" d="M21.5 19.7c0 .1-.1.3-.3.3h-3.4c-.1 0-.3-.1-.3-.3v-3.4c0-.1.1-.3.3-.3h3.4c.1 0 .3.1.3.3v3.4z"/><path fill="#F4F4F4" d="M26.1 19.7c0 .1-.1.3-.3.3h-3.4c-.1 0-.3-.1-.3-.3v-3.4c0-.1.1-.3.3-.3h3.4c.1 0 .3.1.3.3v3.4z"/><path fill="none" stroke="#676A67" stroke-width=".118" stroke-miterlimit="10" d="M26.1 19.7c0 .1-.1.3-.3.3h-3.4c-.1 0-.3-.1-.3-.3v-3.4c0-.1.1-.3.3-.3h3.4c.1 0 .3.1.3.3v3.4z"/><path fill="#F4F4F4" d="M30.8 19.7c0 .1-.1.3-.3.3h-3.4c-.1 0-.2-.1-.2-.3v-3.4c0-.1.1-.3.2-.3h3.4c.1 0 .3.1.3.3v3.4z"/><path fill="none" stroke="#676A67" stroke-width=".118" stroke-miterlimit="10" d="M30.8 19.7c0 .1-.1.3-.3.3h-3.4c-.1 0-.2-.1-.2-.3v-3.4c0-.1.1-.3.2-.3h3.4c.1 0 .3.1.3.3v3.4z"/><path fill="#F4F4F4" d="M35.4 19.7c0 .1-.1.3-.3.3h-3.4c-.1 0-.3-.1-.3-.3v-3.4c0-.1.1-.3.3-.3h3.4c.1 0 .3.1.3.3v3.4z"/><path fill="none" stroke="#676A67" stroke-width=".118" stroke-miterlimit="10" d="M35.4 19.7c0 .1-.1.3-.3.3h-3.4c-.1 0-.3-.1-.3-.3v-3.4c0-.1.1-.3.3-.3h3.4c.1 0 .3.1.3.3v3.4z"/><path fill="#F4F4F4" d="M40 19.7c0 .1-.1.3-.3.3h-3.4c-.1 0-.3-.1-.3-.3v-3.4c0-.1.1-.3.3-.3h3.4c.1 0 .3.1.3.3v3.4z"/><path fill="none" stroke="#676A67" stroke-width=".118" stroke-miterlimit="10" d="M40 19.7c0 .1-.1.3-.3.3h-3.4c-.1 0-.3-.1-.3-.3v-3.4c0-.1.1-.3.3-.3h3.4c.1 0 .3.1.3.3v3.4z"/><path fill="#F4F4F4" d="M44.6 19.7c0 .1-.1.3-.3.3H41c-.1 0-.3-.1-.3-.3v-3.4c0-.1.1-.3.3-.3h3.4c.1 0 .3.1.3.3v3.4z"/><path fill="none" stroke="#676A67" stroke-width=".118" stroke-miterlimit="10" d="M44.6 19.7c0 .1-.1.3-.3.3H41c-.1 0-.3-.1-.3-.3v-3.4c0-.1.1-.3.3-.3h3.4c.1 0 .3.1.3.3v3.4z"/><path fill="#F4F4F4" d="M49.2 19.7c0 .1-.1.3-.3.3h-3.4c-.1 0-.3-.1-.3-.3v-3.4c0-.1.1-.3.3-.3H49c.1 0 .3.1.3.3v3.4z"/><path fill="none" stroke="#676A67" stroke-width=".118" stroke-miterlimit="10" d="M49.2 19.7c0 .1-.1.3-.3.3h-3.4c-.1 0-.3-.1-.3-.3v-3.4c0-.1.1-.3.3-.3H49c.1 0 .3.1.3.3v3.4z"/><path fill="#F4F4F4" d="M53.9 19.7c0 .1-.1.3-.3.3h-3.4c-.1 0-.3-.1-.3-.3v-3.4c0-.1.1-.3.3-.3h3.4c.1 0 .3.1.3.3v3.4z"/><path fill="none" stroke="#676A67" stroke-width=".118" stroke-miterlimit="10" d="M53.9 19.7c0 .1-.1.3-.3.3h-3.4c-.1 0-.3-.1-.3-.3v-3.4c0-.1.1-.3.3-.3h3.4c.1 0 .3.1.3.3v3.4z"/><path fill="#F4F4F4" d="M58.5 19.7c0 .1-.1.3-.3.3h-3.4c-.1 0-.3-.1-.3-.3v-3.4c0-.1.1-.3.3-.3h3.4c.1 0 .3.1.3.3v3.4z"/><path fill="none" stroke="#676A67" stroke-width=".118" stroke-miterlimit="10" d="M58.5 19.7c0 .1-.1.3-.3.3h-3.4c-.1 0-.3-.1-.3-.3v-3.4c0-.1.1-.3.3-.3h3.4c.1 0 .3.1.3.3v3.4z"/><path fill="#F4F4F4" d="M13.6 24.1c0 .1-.1.3-.3.3H9.9c-.1 0-.3-.1-.3-.3v-3.4c0-.1.1-.3.3-.3h3.4c.1 0 .3.1.3.3v3.4z"/><path fill="none" stroke="#676A67" stroke-width=".118" stroke-miterlimit="10" d="M13.6 24.1c0 .1-.1.3-.3.3H9.9c-.1 0-.3-.1-.3-.3v-3.4c0-.1.1-.3.3-.3h3.4c.1 0 .3.1.3.3v3.4z"/><path fill="#F4F4F4" d="M18.2 24.1c0 .1-.1.3-.3.3h-3.4c-.1 0-.3-.1-.3-.3v-3.4c0-.1.1-.3.3-.3h3.4c.1 0 .3.1.3.3v3.4z"/><path fill="none" stroke="#676A67" stroke-width=".118" stroke-miterlimit="10" d="M18.2 24.1c0 .1-.1.3-.3.3h-3.4c-.1 0-.3-.1-.3-.3v-3.4c0-.1.1-.3.3-.3h3.4c.1 0 .3.1.3.3v3.4z"/><path fill="#F4F4F4" d="M22.8 24.1c0 .1-.1.3-.3.3h-3.4c-.1 0-.3-.1-.3-.3v-3.4c0-.1.1-.3.3-.3h3.4c.1 0 .3.1.3.3v3.4z"/><path fill="none" stroke="#676A67" stroke-width=".118" stroke-miterlimit="10" d="M22.8 24.1c0 .1-.1.3-.3.3h-3.4c-.1 0-.3-.1-.3-.3v-3.4c0-.1.1-.3.3-.3h3.4c.1 0 .3.1.3.3v3.4z"/><path fill="#F4F4F4" d="M27.4 24.1c0 .1-.1.3-.3.3h-3.4c-.1 0-.3-.1-.3-.3v-3.4c0-.1.1-.3.3-.3h3.4c.1 0 .3.1.3.3v3.4z"/><path fill="none" stroke="#676A67" stroke-width=".118" stroke-miterlimit="10" d="M27.4 24.1c0 .1-.1.3-.3.3h-3.4c-.1 0-.3-.1-.3-.3v-3.4c0-.1.1-.3.3-.3h3.4c.1 0 .3.1.3.3v3.4z"/><path fill="#F4F4F4" d="M32 24.1c0 .1-.1.3-.3.3h-3.4c-.1 0-.3-.1-.3-.3v-3.4c0-.1.1-.3.3-.3h3.4c.1 0 .3.1.3.3v3.4z"/><path fill="none" stroke="#676A67" stroke-width=".118" stroke-miterlimit="10" d="M32 24.1c0 .1-.1.3-.3.3h-3.4c-.1 0-.3-.1-.3-.3v-3.4c0-.1.1-.3.3-.3h3.4c.1 0 .3.1.3.3v3.4z"/><path fill="#F4F4F4" d="M36.7 24.1c0 .1-.1.3-.3.3H33c-.1 0-.3-.1-.3-.3v-3.4c0-.1.1-.3.3-.3h3.4c.1 0 .3.1.3.3v3.4z"/><path fill="none" stroke="#676A67" stroke-width=".118" stroke-miterlimit="10" d="M36.7 24.1c0 .1-.1.3-.3.3H33c-.1 0-.3-.1-.3-.3v-3.4c0-.1.1-.3.3-.3h3.4c.1 0 .3.1.3.3v3.4z"/><path fill="#F4F4F4" d="M41.3 24.1c0 .1-.1.3-.3.3h-3.4c-.1 0-.3-.1-.3-.3v-3.4c0-.1.1-.3.3-.3H41c.1 0 .3.1.3.3v3.4z"/><path fill="none" stroke="#676A67" stroke-width=".118" stroke-miterlimit="10" d="M41.3 24.1c0 .1-.1.3-.3.3h-3.4c-.1 0-.3-.1-.3-.3v-3.4c0-.1.1-.3.3-.3H41c.1 0 .3.1.3.3v3.4z"/><path fill="#F4F4F4" d="M45.9 24.1c0 .1-.1.3-.3.3h-3.4c-.1 0-.3-.1-.3-.3v-3.4c0-.1.1-.3.3-.3h3.4c.1 0 .3.1.3.3v3.4z"/><path fill="none" stroke="#676A67" stroke-width=".118" stroke-miterlimit="10" d="M45.9 24.1c0 .1-.1.3-.3.3h-3.4c-.1 0-.3-.1-.3-.3v-3.4c0-.1.1-.3.3-.3h3.4c.1 0 .3.1.3.3v3.4z"/><path fill="#F4F4F4" d="M50.5 24.1c0 .1-.1.3-.3.3h-3.4c-.1 0-.3-.1-.3-.3v-3.4c0-.1.1-.3.3-.3h3.4c.1 0 .3.1.3.3v3.4z"/><path fill="none" stroke="#676A67" stroke-width=".118" stroke-miterlimit="10" d="M50.5 24.1c0 .1-.1.3-.3.3h-3.4c-.1 0-.3-.1-.3-.3v-3.4c0-.1.1-.3.3-.3h3.4c.1 0 .3.1.3.3v3.4z"/><path fill="#F4F4F4" d="M55.1 24.1c0 .1-.1.3-.3.3h-3.4c-.1 0-.3-.1-.3-.3v-3.4c0-.1.1-.3.3-.3h3.4c.1 0 .3.1.3.3v3.4z"/><path fill="none" stroke="#676A67" stroke-width=".118" stroke-miterlimit="10" d="M55.1 24.1c0 .1-.1.3-.3.3h-3.4c-.1 0-.3-.1-.3-.3v-3.4c0-.1.1-.3.3-.3h3.4c.1 0 .3.1.3.3v3.4z"/><path fill="#F4F4F4" d="M15.7 28.7c0 .1-.1.3-.3.3H12c-.1 0-.3-.1-.3-.3v-3.4c0-.1.1-.3.3-.3h3.4c.1 0 .3.1.3.3v3.4z"/><path fill="none" stroke="#676A67" stroke-width=".118" stroke-miterlimit="10" d="M15.7 28.7c0 .1-.1.3-.3.3H12c-.1 0-.3-.1-.3-.3v-3.4c0-.1.1-.3.3-.3h3.4c.1 0 .3.1.3.3v3.4z"/><path fill="#F4F4F4" d="M20.3 28.7c0 .1-.1.3-.3.3h-3.4c-.1 0-.3-.1-.3-.3v-3.4c0-.1.1-.3.3-.3H20c.1 0 .3.1.3.3v3.4z"/><path fill="none" stroke="#676A67" stroke-width=".118" stroke-miterlimit="10" d="M20.3 28.7c0 .1-.1.3-.3.3h-3.4c-.1 0-.3-.1-.3-.3v-3.4c0-.1.1-.3.3-.3H20c.1 0 .3.1.3.3v3.4z"/><path fill="#F4F4F4" d="M24.9 28.7c0 .1-.1.3-.3.3h-3.4c-.1 0-.3-.1-.3-.3v-3.4c0-.1.1-.3.3-.3h3.4c.1 0 .3.1.3.3v3.4z"/><path fill="none" stroke="#676A67" stroke-width=".118" stroke-miterlimit="10" d="M24.9 28.7c0 .1-.1.3-.3.3h-3.4c-.1 0-.3-.1-.3-.3v-3.4c0-.1.1-.3.3-.3h3.4c.1 0 .3.1.3.3v3.4z"/><path fill="#F4F4F4" d="M29.6 28.7c0 .1-.1.3-.3.3H26c-.1 0-.3-.1-.3-.3v-3.4c0-.1.1-.3.3-.3h3.4c.1 0 .3.1.3.3v3.4z"/><path fill="none" stroke="#676A67" stroke-width=".118" stroke-miterlimit="10" d="M29.6 28.7c0 .1-.1.3-.3.3H26c-.1 0-.3-.1-.3-.3v-3.4c0-.1.1-.3.3-.3h3.4c.1 0 .3.1.3.3v3.4z"/><path fill="#F4F4F4" d="M34.2 28.7c0 .1-.1.3-.3.3h-3.4c-.1 0-.3-.1-.3-.3v-3.4c0-.1.1-.3.3-.3h3.4c.1 0 .3.1.3.3v3.4z"/><path fill="none" stroke="#676A67" stroke-width=".118" stroke-miterlimit="10" d="M34.2 28.7c0 .1-.1.3-.3.3h-3.4c-.1 0-.3-.1-.3-.3v-3.4c0-.1.1-.3.3-.3h3.4c.1 0 .3.1.3.3v3.4z"/><path fill="#F4F4F4" d="M38.8 28.7c0 .1-.1.3-.3.3h-3.4c-.1 0-.3-.1-.3-.3v-3.4c0-.1.1-.3.3-.3h3.4c.1 0 .3.1.3.3v3.4z"/><path fill="none" stroke="#676A67" stroke-width=".118" stroke-miterlimit="10" d="M38.8 28.7c0 .1-.1.3-.3.3h-3.4c-.1 0-.3-.1-.3-.3v-3.4c0-.1.1-.3.3-.3h3.4c.1 0 .3.1.3.3v3.4z"/><path fill="#F4F4F4" d="M43.4 28.7c0 .1-.1.3-.3.3h-3.4c-.1 0-.3-.1-.3-.3v-3.4c0-.1.1-.3.3-.3h3.4c.1 0 .3.1.3.3v3.4z"/><path fill="none" stroke="#676A67" stroke-width=".118" stroke-miterlimit="10" d="M43.4 28.7c0 .1-.1.3-.3.3h-3.4c-.1 0-.3-.1-.3-.3v-3.4c0-.1.1-.3.3-.3h3.4c.1 0 .3.1.3.3v3.4z"/><path fill="#F4F4F4" d="M48 28.7c0 .1-.1.3-.3.3h-3.4c-.1 0-.2-.1-.2-.3v-3.4c0-.1.1-.3.2-.3h3.4c.1 0 .3.1.3.3v3.4z"/><path fill="none" stroke="#676A67" stroke-width=".118" stroke-miterlimit="10" d="M48 28.7c0 .1-.1.3-.3.3h-3.4c-.1 0-.2-.1-.2-.3v-3.4c0-.1.1-.3.2-.3h3.4c.1 0 .3.1.3.3v3.4z"/><path fill="#F4F4F4" d="M52.7 28.7c0 .1-.1.3-.3.3H49c-.1 0-.3-.1-.3-.3v-3.4c0-.1.1-.3.3-.3h3.4c.1 0 .3.1.3.3v3.4z"/><path fill="none" stroke="#676A67" stroke-width=".118" stroke-miterlimit="10" d="M52.7 28.7c0 .1-.1.3-.3.3H49c-.1 0-.3-.1-.3-.3v-3.4c0-.1.1-.3.3-.3h3.4c.1 0 .3.1.3.3v3.4z"/><path fill="#F4F4F4" d="M57.3 28.7c0 .1-.1.3-.3.3h-3.4c-.1 0-.3-.1-.3-.3v-3.4c0-.1.1-.3.3-.3H57c.1 0 .3.1.3.3v3.4z"/><path fill="none" stroke="#676A67" stroke-width=".118" stroke-miterlimit="10" d="M57.3 28.7c0 .1-.1.3-.3.3h-3.4c-.1 0-.3-.1-.3-.3v-3.4c0-.1.1-.3.3-.3H57c.1 0 .3.1.3.3v3.4z"/><path fill="#F4F4F4" d="M59.8 24.1c0 .1-.1.3-.3.3h-3.4c-.1 0-.3-.1-.3-.3v-3.4c0-.1.1-.3.3-.3h3.4c.1 0 .3.1.3.3v3.4z"/><path fill="none" stroke="#676A67" stroke-width=".118" stroke-miterlimit="10" d="M59.8 24.1c0 .1-.1.3-.3.3h-3.4c-.1 0-.3-.1-.3-.3v-3.4c0-.1.1-.3.3-.3h3.4c.1 0 .3.1.3.3v3.4z"/><path fill="#F4F4F4" d="M63.1 19.7c0 .1-.1.3-.3.3h-3.4c-.1 0-.3-.1-.3-.3v-3.4c0-.1.1-.3.3-.3h3.4c.1 0 .3.1.3.3v3.4z"/><path fill="none" stroke="#676A67" stroke-width=".118" stroke-miterlimit="10" d="M63.1 19.7c0 .1-.1.3-.3.3h-3.4c-.1 0-.3-.1-.3-.3v-3.4c0-.1.1-.3.3-.3h3.4c.1 0 .3.1.3.3v3.4z"/><path fill="#F4F4F4" d="M67.7 19.7c0 .1-.1.3-.3.3H64c-.1 0-.3-.1-.3-.3v-3.4c0-.1.1-.3.3-.3h3.4c.1 0 .3.1.3.3v3.4z"/><path fill="none" stroke="#676A67" stroke-width=".118" stroke-miterlimit="10" d="M67.7 19.7c0 .1-.1.3-.3.3H64c-.1 0-.3-.1-.3-.3v-3.4c0-.1.1-.3.3-.3h3.4c.1 0 .3.1.3.3v3.4z"/><path fill="#F4F4F4" d="M7.8 19.7c0 .1-.1.3-.3.3H1.8c-.1 0-.3-.1-.3-.3v-3.4c0-.1.1-.3.3-.3h5.8c.1 0 .3.1.3.3v3.4z"/><path fill="none" stroke="#676A67" stroke-width=".118" stroke-miterlimit="10" d="M7.8 19.7c0 .1-.1.3-.3.3H1.8c-.1 0-.3-.1-.3-.3v-3.4c0-.1.1-.3.3-.3h5.8c.1 0 .3.1.3.3v3.4z"/><path fill="#F4F4F4" d="M9 24.1c0 .1-.1.3-.3.3H1.8c-.1 0-.3-.1-.3-.3v-3.4c0-.1.1-.3.3-.3h6.9c.1 0 .3.1.3.3v3.4z"/><path fill="none" stroke="#676A67" stroke-width=".118" stroke-miterlimit="10" d="M9 24.1c0 .1-.1.3-.3.3H1.8c-.1 0-.3-.1-.3-.3v-3.4c0-.1.1-.3.3-.3h6.9c.1 0 .3.1.3.3v3.4z"/><path fill="#F4F4F4" d="M43.6 33.8c0 .1-.1.3-.3.3h-22c-.1 0-.3-.1-.3-.3v-4c0-.1.1-.3.3-.3h22c.1 0 .3.1.3.3v4z"/><path fill="none" stroke="#676A67" stroke-width=".118" stroke-miterlimit="10" d="M43.6 33.8c0 .1-.1.3-.3.3h-22c-.1 0-.3-.1-.3-.3v-4c0-.1.1-.3.3-.3h22c.1 0 .3.1.3.3v4z"/><path fill="#F4F4F4" d="M20.6 33.8c0 .1-.1.3-.3.3h-4.7c-.1 0-.3-.1-.3-.3v-4c0-.1.1-.3.3-.3h4.7c.1 0 .3.1.3.3v4z"/><path fill="none" stroke="#676A67" stroke-width=".118" stroke-miterlimit="10" d="M20.6 33.8c0 .1-.1.3-.3.3h-4.7c-.1 0-.3-.1-.3-.3v-4c0-.1.1-.3.3-.3h4.7c.1 0 .3.1.3.3v4z"/><path fill="#F4F4F4" d="M49.3 33.8c0 .1-.1.3-.3.3h-4.7c-.1 0-.3-.1-.3-.3v-4c0-.1.1-.3.3-.3H49c.1 0 .3.1.3.3v4z"/><path fill="none" stroke="#676A67" stroke-width=".118" stroke-miterlimit="10" d="M49.3 33.8c0 .1-.1.3-.3.3h-4.7c-.1 0-.3-.1-.3-.3v-4c0-.1.1-.3.3-.3H49c.1 0 .3.1.3.3v4z"/><path fill="#F4F4F4" d="M14.7 33.8c0 .1-.1.3-.3.3H11c-.1 0-.3-.1-.3-.3v-4c0-.1.1-.3.3-.3h3.5c.1 0 .3.1.3.3v4z"/><path fill="none" stroke="#676A67" stroke-width=".118" stroke-miterlimit="10" d="M14.7 33.8c0 .1-.1.3-.3.3H11c-.1 0-.3-.1-.3-.3v-4c0-.1.1-.3.3-.3h3.5c.1 0 .3.1.3.3v4z"/><path fill="#F4F4F4" d="M53.9 33.8c0 .1-.1.3-.3.3h-3.5c-.1 0-.3-.1-.3-.3v-4c0-.1.1-.3.3-.3h3.5c.1 0 .3.1.3.3v4z"/><path fill="none" stroke="#676A67" stroke-width=".118" stroke-miterlimit="10" d="M53.9 33.8c0 .1-.1.3-.3.3h-3.5c-.1 0-.3-.1-.3-.3v-4c0-.1.1-.3.3-.3h3.5c.1 0 .3.1.3.3v4z"/><path fill="#F4F4F4" d="M10.1 33.8c0 .1-.1.3-.3.3H6.4c-.1 0-.3-.1-.3-.3v-4c0-.1.1-.3.3-.3h3.5c.1 0 .3.1.3.3v4z"/><path fill="none" stroke="#676A67" stroke-width=".118" stroke-miterlimit="10" d="M10.1 33.8c0 .1-.1.3-.3.3H6.4c-.1 0-.3-.1-.3-.3v-4c0-.1.1-.3.3-.3h3.5c.1 0 .3.1.3.3v4z"/><path fill="#F4F4F4" d="M5.6 33.8c0 .1-.1.3-.3.3H1.8c-.1 0-.3-.1-.3-.3v-4c0-.1.1-.3.3-.3h3.5c.1 0 .3.1.3.3v4z"/><path fill="none" stroke="#676A67" stroke-width=".118" stroke-miterlimit="10" d="M5.6 33.8c0 .1-.1.3-.3.3H1.8c-.1 0-.3-.1-.3-.3v-4c0-.1.1-.3.3-.3h3.5c.1 0 .3.1.3.3v4z"/><path fill="#F4F4F4" d="M63.2 33.8c0 .1-.1.3-.3.3h-3.6c-.1 0-.3-.1-.3-.3v-4c0-.1.1-.3.3-.3h3.6c.1 0 .3.1.3.3v4z"/><path fill="none" stroke="#676A67" stroke-width=".118" stroke-miterlimit="10" d="M63.2 33.8c0 .1-.1.3-.3.3h-3.6c-.1 0-.3-.1-.3-.3v-4c0-.1.1-.3.3-.3h3.6c.1 0 .3.1.3.3v4z"/><path fill="#F4F4F4" d="M67.7 33.8c0 .1-.1.3-.3.3h-3.6c-.1 0-.3-.1-.3-.3v-1.9c0-.1.1-.3.3-.3h3.6c.1 0 .3.1.3.3v1.9z"/><path fill="none" stroke="#676A67" stroke-width=".118" stroke-miterlimit="10" d="M67.7 33.8c0 .1-.1.3-.3.3h-3.6c-.1 0-.3-.1-.3-.3v-1.9c0-.1.1-.3.3-.3h3.6c.1 0 .3.1.3.3v1.9z"/><path fill="#F4F4F4" d="M58.6 33.8c0 .1-.1.3-.3.3h-3.6c-.1 0-.3-.1-.3-.3v-1.9c0-.1.1-.3.3-.3h3.6c.1 0 .3.1.3.3v1.9z"/><path fill="none" stroke="#676A67" stroke-width=".118" stroke-miterlimit="10" d="M58.6 33.8c0 .1-.1.3-.3.3h-3.6c-.1 0-.3-.1-.3-.3v-1.9c0-.1.1-.3.3-.3h3.6c.1 0 .3.1.3.3v1.9z"/><path fill="#F4F4F4" d="M67.7 28.7c0 .1-.1.3-.3.3h-9.2c-.1 0-.3-.1-.3-.3v-3.4c0-.1.1-.3.3-.3h9.2c.1 0 .3.1.3.3v3.4z"/><path fill="none" stroke="#676A67" stroke-width=".118" stroke-miterlimit="10" d="M67.7 28.7c0 .1-.1.3-.3.3h-9.2c-.1 0-.3-.1-.3-.3v-3.4c0-.1.1-.3.3-.3h9.2c.1 0 .3.1.3.3v3.4z"/><path fill="#F4F4F4" d="M11.2 28.7c0 .1-.1.3-.3.3H1.7c-.1 0-.3-.1-.3-.3v-3.4c0-.1.1-.3.3-.3h9.2c.1 0 .3.1.3.3v3.4z"/><path fill="none" stroke="#676A67" stroke-width=".118" stroke-miterlimit="10" d="M11.2 28.7c0 .1-.1.3-.3.3H1.7c-.1 0-.3-.1-.3-.3v-3.4c0-.1.1-.3.3-.3h9.2c.1 0 .3.1.3.3v3.4z"/><path fill="#F4F4F4" d="M67.7 24.1c0 .1-.1.3-.3.3h-6.9c-.1 0-.3-.1-.3-.3v-3.4c0-.1.1-.3.3-.3h6.9c.1 0 .3.1.3.3v3.4z"/><path fill="none" stroke="#676A67" stroke-width=".118" stroke-miterlimit="10" d="M67.7 24.1c0 .1-.1.3-.3.3h-6.9c-.1 0-.3-.1-.3-.3v-3.4c0-.1.1-.3.3-.3h6.9c.1 0 .3.1.3.3v3.4z"/><path fill="#F4F4F4" d="M10 15.2c0 .1-.1.3-.3.3H6.4c-.1 0-.3-.1-.3-.3v-3.4c0-.1.1-.3.3-.3h3.4c.1 0 .3.1.3.3v3.4z"/><path fill="none" stroke="#676A67" stroke-width=".118" stroke-miterlimit="10" d="M10 15.2c0 .1-.1.3-.3.3H6.4c-.1 0-.3-.1-.3-.3v-3.4c0-.1.1-.3.3-.3h3.4c.1 0 .3.1.3.3v3.4z"/><path fill="#F4F4F4" d="M14.7 15.2c0 .1-.1.3-.3.3H11c-.1 0-.3-.1-.3-.3v-3.4c0-.1.1-.3.3-.3h3.4c.1 0 .3.1.3.3v3.4z"/><path fill="none" stroke="#676A67" stroke-width=".118" stroke-miterlimit="10" d="M14.7 15.2c0 .1-.1.3-.3.3H11c-.1 0-.3-.1-.3-.3v-3.4c0-.1.1-.3.3-.3h3.4c.1 0 .3.1.3.3v3.4z"/><path fill="#F4F4F4" d="M19.3 15.2c0 .1-.1.3-.3.3h-3.4c-.1 0-.3-.1-.3-.3v-3.4c0-.1.1-.3.3-.3H19c.1 0 .3.1.3.3v3.4z"/><path fill="none" stroke="#676A67" stroke-width=".118" stroke-miterlimit="10" d="M19.3 15.2c0 .1-.1.3-.3.3h-3.4c-.1 0-.3-.1-.3-.3v-3.4c0-.1.1-.3.3-.3H19c.1 0 .3.1.3.3v3.4z"/><path fill="#F4F4F4" d="M23.9 15.2c0 .1-.1.3-.3.3h-3.4c-.1 0-.3-.1-.3-.3v-3.4c0-.1.1-.3.3-.3h3.4c.1 0 .3.1.3.3v3.4z"/><path fill="none" stroke="#676A67" stroke-width=".118" stroke-miterlimit="10" d="M23.9 15.2c0 .1-.1.3-.3.3h-3.4c-.1 0-.3-.1-.3-.3v-3.4c0-.1.1-.3.3-.3h3.4c.1 0 .3.1.3.3v3.4z"/><path fill="#F4F4F4" d="M28.5 15.2c0 .1-.1.3-.3.3h-3.4c-.1 0-.3-.1-.3-.3v-3.4c0-.1.1-.3.3-.3h3.4c.1 0 .3.1.3.3v3.4z"/><path fill="none" stroke="#676A67" stroke-width=".118" stroke-miterlimit="10" d="M28.5 15.2c0 .1-.1.3-.3.3h-3.4c-.1 0-.3-.1-.3-.3v-3.4c0-.1.1-.3.3-.3h3.4c.1 0 .3.1.3.3v3.4z"/><path fill="#F4F4F4" d="M33.2 15.2c0 .1-.1.3-.3.3h-3.4c-.1 0-.3-.1-.3-.3v-3.4c0-.1.1-.3.3-.3h3.4c.1 0 .3.1.3.3v3.4z"/><path fill="none" stroke="#676A67" stroke-width=".118" stroke-miterlimit="10" d="M33.2 15.2c0 .1-.1.3-.3.3h-3.4c-.1 0-.3-.1-.3-.3v-3.4c0-.1.1-.3.3-.3h3.4c.1 0 .3.1.3.3v3.4z"/><path fill="#F4F4F4" d="M37.8 15.2c0 .1-.1.3-.3.3h-3.4c-.1 0-.3-.1-.3-.3v-3.4c0-.1.1-.3.3-.3h3.4c.1 0 .3.1.3.3v3.4z"/><path fill="none" stroke="#676A67" stroke-width=".118" stroke-miterlimit="10" d="M37.8 15.2c0 .1-.1.3-.3.3h-3.4c-.1 0-.3-.1-.3-.3v-3.4c0-.1.1-.3.3-.3h3.4c.1 0 .3.1.3.3v3.4z"/><path fill="#F4F4F4" d="M42.4 15.2c0 .1-.1.3-.3.3h-3.4c-.1 0-.3-.1-.3-.3v-3.4c0-.1.1-.3.3-.3h3.4c.1 0 .3.1.3.3v3.4z"/><path fill="none" stroke="#676A67" stroke-width=".118" stroke-miterlimit="10" d="M42.4 15.2c0 .1-.1.3-.3.3h-3.4c-.1 0-.3-.1-.3-.3v-3.4c0-.1.1-.3.3-.3h3.4c.1 0 .3.1.3.3v3.4z"/><path fill="#F4F4F4" d="M47 15.2c0 .1-.1.3-.3.3h-3.4c-.1 0-.3-.1-.3-.3v-3.4c0-.1.1-.3.3-.3h3.4c.1 0 .3.1.3.3v3.4z"/><path fill="none" stroke="#676A67" stroke-width=".118" stroke-miterlimit="10" d="M47 15.2c0 .1-.1.3-.3.3h-3.4c-.1 0-.3-.1-.3-.3v-3.4c0-.1.1-.3.3-.3h3.4c.1 0 .3.1.3.3v3.4z"/><path fill="#F4F4F4" d="M51.7 15.2c0 .1-.1.3-.3.3H48c-.1 0-.3-.1-.3-.3v-3.4c0-.1.1-.3.3-.3h3.4c.1 0 .3.1.3.3v3.4z"/><path fill="none" stroke="#676A67" stroke-width=".118" stroke-miterlimit="10" d="M51.7 15.2c0 .1-.1.3-.3.3H48c-.1 0-.3-.1-.3-.3v-3.4c0-.1.1-.3.3-.3h3.4c.1 0 .3.1.3.3v3.4z"/><path fill="#F4F4F4" d="M56.3 15.2c0 .1-.1.3-.3.3h-3.4c-.1 0-.3-.1-.3-.3v-3.4c0-.1.1-.3.3-.3H56c.1 0 .3.1.3.3v3.4z"/><path fill="none" stroke="#676A67" stroke-width=".118" stroke-miterlimit="10" d="M56.3 15.2c0 .1-.1.3-.3.3h-3.4c-.1 0-.3-.1-.3-.3v-3.4c0-.1.1-.3.3-.3H56c.1 0 .3.1.3.3v3.4z"/><path fill="#F4F4F4" d="M60.9 15.2c0 .1-.1.3-.3.3h-3.4c-.1 0-.3-.1-.3-.3v-3.4c0-.1.1-.3.3-.3h3.4c.1 0 .3.1.3.3v3.4z"/><path fill="none" stroke="#676A67" stroke-width=".118" stroke-miterlimit="10" d="M60.9 15.2c0 .1-.1.3-.3.3h-3.4c-.1 0-.3-.1-.3-.3v-3.4c0-.1.1-.3.3-.3h3.4c.1 0 .3.1.3.3v3.4z"/><path fill="#F4F4F4" d="M67.7 15.2c0 .1-.1.3-.3.3h-5.6c-.1 0-.3-.1-.3-.3v-3.4c0-.1.1-.3.3-.3h5.6c.1 0 .3.1.3.3v3.4z"/><path fill="none" stroke="#676A67" stroke-width=".118" stroke-miterlimit="10" d="M67.7 15.2c0 .1-.1.3-.3.3h-5.6c-.1 0-.3-.1-.3-.3v-3.4c0-.1.1-.3.3-.3h5.6c.1 0 .3.1.3.3v3.4z"/><path fill="#7EA885" d="M2.6 21.3c0 .1-.1.2-.2.2s-.2-.1-.2-.2.1-.2.2-.2.2.1.2.2"/><path fill="none" stroke="#676A67" stroke-width=".118" stroke-miterlimit="10" d="M59.1 31.8h4.1"/><path fill="#A8AAA8" d="M49.3 19.8v-3.4-.1 3.3c0 .2-.1.3-.3.3h-3.4c-.1 0-.3-.1-.3-.3v.1c0 .2.1.3.3.3H49c.2.1.3-.1.3-.2M43.5 28.6c0 .2-.1.3-.3.3h-3.4c-.2 0-.3-.1-.3-.3v.1c0 .2.1.3.3.3h3.4c.2 0 .3-.1.3-.3v-3.4-.1 3.4zM44.4 29.1h3.4c.2 0 .3-.1.3-.3v-3.4-.1 3.3c0 .2-.1.3-.3.3h-3.4c-.1 0-.3-.1-.3-.3v.1c0 .3.2.4.3.4M35.2 29.1h3.4c.2 0 .3-.1.3-.3v-3.4-.1 3.3c0 .2-.1.3-.3.3h-3.4c-.1 0-.3-.1-.3-.3v.1c0 .3.1.4.3.4M50.6 24.3v-3.4-.1 3.3c0 .2-.1.3-.3.3h-3.4c-.2 0-.3-.1-.3-.3v.1c0 .2.1.3.3.3h3.4c.1.1.3-.1.3-.2M35.4 19.6c0 .2-.1.3-.3.3h-3.4c-.1 0-.3-.1-.3-.3v.1c0 .2.1.3.3.3h3.4c.2 0 .3-.1.3-.3v-3.4-.1 3.4zM21.3 29.1h3.4c.2 0 .3-.1.3-.3v-3.4-.1 3.3c0 .2-.1.3-.3.3h-3.4c-.1 0-.3-.1-.3-.3v.1c0 .3.2.4.3.4M40 19.6c0 .2-.1.3-.3.3h-3.4c-.2 0-.3-.1-.3-.3v.1c0 .2.1.3.3.3h3.4c.2 0 .3-.1.3-.3v-3.4-.1 3.4zM30.8 19.6c0 .2-.1.3-.3.3h-3.4c-.1 0-.3-.1-.3-.3v.1c0 .2.1.3.3.3h3.4c.2 0 .3-.1.3-.3v-3.4-.1 3.4zM58.5 19.8v-3.4-.1 3.3c0 .2-.1.3-.3.3h-3.4c-.1 0-.3-.1-.3-.3v.1c0 .2.1.3.3.3h3.4c.2.1.3-.1.3-.2M42.5 15.2c0 .2-.1.3-.3.3h-3.4c-.2 0-.3-.1-.3-.3v.1c0 .2.1.3.3.3h3.4c.2 0 .3-.1.3-.3V12v-.1 3.3zM47.1 15.2c0 .2-.1.3-.3.3h-3.4c-.2 0-.3-.1-.3-.3v.1c0 .2.1.3.3.3h3.4c.2 0 .3-.1.3-.3V12v-.1 3.3zM51.7 15.2c0 .2-.1.3-.3.3H48c-.1 0-.3-.1-.3-.3v.1c0 .2.1.3.3.3h3.4c.2 0 .3-.1.3-.3V12v-.1 3.3zM37.8 15.2c0 .2-.1.3-.3.3h-3.4c-.1 0-.3-.1-.3-.3v.1c0 .2.1.3.3.3h3.4c.2 0 .3-.1.3-.3V12v-.1 3.3zM55.2 24.3v-3.4-.1 3.3c0 .2-.1.3-.3.3h-3.4c-.2 0-.3-.1-.3-.3v.1c0 .2.1.3.3.3h3.4c.2.1.3-.1.3-.2M56.3 15.2c0 .2-.1.3-.3.3h-3.4c-.1 0-.3-.1-.3-.3v.1c0 .2.1.3.3.3H56c.2 0 .3-.1.3-.3V12v-.1 3.3zM59.8 24.3v-3.4-.1 3.3c0 .2-.1.3-.3.3h-3.4c-.2 0-.3-.1-.3-.3v.1c0 .2.1.3.3.3h3.4c.2.1.3-.1.3-.2M53.9 19.6c0 .2-.1.3-.3.3h-3.4c-.1 0-.3-.1-.3-.3v.1c0 .2.1.3.3.3h3.4c.2 0 .3-.1.3-.3v-3.4-.1 3.4zM61 15.3V12v-.1 3.3c0 .2-.1.3-.3.3h-3.4c-.1 0-.3-.1-.3-.3v.1c0 .2.1.3.3.3h3.4c.1.1.3-.1.3-.3M33.2 15.2c0 .2-.1.3-.3.3h-3.4c-.1 0-.3-.1-.3-.3v.1c0 .2.1.3.3.3h3.4c.2 0 .3-.1.3-.3V12v-.1 3.3zM12.3 19.8v-3.4-.1 3.3c0 .2-.1.3-.3.3H8.7c-.1 0-.3-.1-.3-.3v.1c0 .2.1.3.3.3H12c.2.1.3-.1.3-.2M18.2 24.3v-3.4-.1 3.3c0 .2-.1.3-.3.3h-3.4c-.1 0-.3-.1-.3-.3v.1c0 .2.1.3.3.3h3.4c.2.1.3-.1.3-.2M21.6 19.6c0 .2-.1.3-.3.3h-3.4c-.1 0-.3-.1-.3-.3v.1c0 .2.1.3.3.3h3.4c.2 0 .3-.1.3-.3v-3.4-.1 3.4zM15.7 15.7H19c.2 0 .3-.1.3-.3V12v-.1 3.3c0 .2-.1.3-.3.3h-3.4c-.2 0-.3-.1-.3-.3v.1c.1.2.2.4.4.4M17 19.8v-3.4-.1 3.3c0 .2-.1.3-.3.3h-3.4c-.1 0-.3-.1-.3-.3v.1c0 .2.1.3.3.3h3.4c.1.1.3-.1.3-.2M36.7 24.3v-3.4-.1 3.3c0 .2-.1.3-.3.3H33c-.1 0-.3-.1-.3-.3v.1c0 .2.1.3.3.3h3.4c.2.1.3-.1.3-.2M1.8 20.1h5.8c.2 0 .3-.1.3-.3v-3.4-.1 3.3c0 .2-.1.3-.3.3H1.8c-.1 0-.3-.1-.3-.3v.1c0 .2.1.4.3.4M11.1 15.7h3.4c.2 0 .3-.1.3-.3V12v-.1 3.3c0 .2-.1.3-.3.3H11c-.1 0-.3-.1-.3-.3v.1c.1.2.2.4.4.4M6.4 15.7h3.4c.2 0 .3-.1.3-.3V12v-.1 3.3c0 .2-.1.3-.3.3H6.4c-.1 0-.3-.1-.3-.3v.1c0 .2.2.4.3.4M1.8 15.7h3.4c.2 0 .3-.1.3-.3V12v-.1 3.3c0 .2-.1.3-.3.3H1.8c-.1 0-.3-.1-.3-.3v.1c0 .2.1.4.3.4M32.1 24.3v-3.4-.1 3.3c0 .2-.1.3-.3.3h-3.4c-.1 0-.3-.1-.3-.3v.1c0 .2.1.3.3.3h3.4c.2.1.3-.1.3-.2M27.5 24.3v-3.4-.1 3.3c0 .2-.1.3-.3.3h-3.4c-.1 0-.3-.1-.3-.3v.1c0 .2.1.3.3.3h3.4c.1.1.3-.1.3-.2M26 29.1h3.4c.2 0 .3-.1.3-.3v-3.4-.1 3.3c0 .2-.1.3-.3.3H26c-.1 0-.3-.1-.3-.3v.1c-.1.3.1.4.3.4M30.6 29.1H34c.2 0 .3-.1.3-.3v-3.4-.1 3.3c0 .2-.1.3-.3.3h-3.4c-.1 0-.3-.1-.3-.3v.1c0 .3.1.4.3.4M26.2 19.8v-3.4-.1 3.3c0 .2-.1.3-.3.3h-3.4c-.1 0-.3-.1-.3-.3v.1c0 .2.1.3.3.3h3.4c.2.1.3-.1.3-.2M41.3 24.3v-3.4-.1 3.3c0 .2-.1.3-.3.3h-3.4c-.1 0-.3-.1-.3-.3v.1c0 .2.1.3.3.3H41c.2.1.3-.1.3-.2M20.4 28.6c0 .2-.1.3-.3.3h-3.4c-.1 0-.3-.1-.3-.3v.1c0 .2.1.3.3.3h3.4c.2 0 .3-.1.3-.3v-3.4-.1 3.4zM44.7 19.6c0 .2-.1.3-.3.3H41c-.1 0-.3-.1-.3-.3v.1c0 .2.1.3.3.3h3.4c.2 0 .3-.1.3-.3v-3.4-.1 3.4zM67.8 28.6c0 .2-.1.3-.3.3h-9.2c-.1 0-.3-.1-.3-.3v.1c0 .2.1.3.3.3h9.2c.2 0 .3-.1.3-.3v-3.4-.1 3.4zM10.2 33.7c0 .2-.1.3-.3.3H6.4c-.2 0-.3-.1-.3-.3v.1c0 .2.1.3.3.3h3.5c.2 0 .3-.1.3-.3v-4-.1 4zM14.8 33.7c0 .2-.1.3-.3.3H11c-.2 0-.3-.1-.3-.3v.1c0 .2.1.3.3.3h3.5c.2 0 .3-.1.3-.3v-4-.1 4zM20.6 33.7c0 .2-.1.3-.3.3h-4.7c-.2 0-.3-.1-.3-.3v.1c0 .2.1.3.3.3h4.7c.2 0 .3-.1.3-.3v-4-.1 4zM5.6 33.7c0 .2-.1.3-.3.3H1.8c-.2 0-.3-.1-.3-.3v.1c0 .2.1.3.3.3h3.5c.2 0 .3-.1.3-.3v-4-.1 4zM5.7 10.7c0 .2-.1.3-.3.3H1.8c-.2 0-.3-.1-.3-.3v.1c0 .2.1.3.3.3h3.6c.2 0 .3-.1.3-.3v-2-.1 2zM20.1 10.7c0 .2-.1.3-.3.3h-3.6c-.1 0-.3-.1-.3-.3v.1c0 .2.1.3.3.3h3.6c.2 0 .3-.1.3-.3v-2-.1 2zM15.3 10.7c0 .2-.1.3-.3.3h-3.6c-.2 0-.3-.1-.3-.3v.1c0 .2.1.3.3.3H15c.2 0 .3-.1.3-.3v-2-.1 2zM1.7 29.1h9.2c.2 0 .3-.1.3-.3v-3.4-.1 3.3c0 .2-.1.3-.3.3H1.7c-.1 0-.3-.1-.3-.3v.1c0 .3.2.4.3.4M43.6 33.7c0 .2-.1.3-.3.3h-22c-.1 0-.3-.1-.3-.3v.1c0 .2.1.3.3.3h22c.2 0 .3-.1.3-.3v-4-.1 4zM10.5 10.7c0 .2-.1.3-.3.3H6.6c-.2 0-.3-.1-.3-.3v.1c0 .2.1.3.3.3h3.6c.2 0 .3-.1.3-.3v-2-.1 2zM67.8 15.2c0 .2-.1.3-.3.3h-5.6c-.2 0-.3-.1-.3-.3v.1c0 .2.1.3.3.3h5.6c.2 0 .3-.1.3-.3V12v-.1 3.3zM67.8 19.6c0 .2-.1.3-.3.3h-3.4c-.2 0-.3-.1-.3-.3v.1c0 .2.1.3.3.3h3.4c.2 0 .3-.1.3-.3v-3.4-.1 3.4zM67.8 24.1c0 .2-.1.3-.3.3h-6.9c-.2 0-.3-.1-.3-.3v.1c0 .2.1.3.3.3h6.9c.2 0 .3-.1.3-.3v-3.4-.1 3.4zM67.8 8.8v1.9c0 .2-.1.3-.3.3h-3.6c-.2 0-.3-.1-.3-.3v.1c0 .2.1.3.3.3h3.6c.2 0 .3-.1.3-.3v-2M58.6 33.7c0 .2-.1.3-.3.3h-3.6c-.2 0-.3-.1-.3-.3v.1c0 .2.1.3.3.3h3.6c.2 0 .3-.1.3-.3V32v-.1 1.8zM67.7 33.7c0 .2-.1.3-.3.3h-3.6c-.2 0-.3-.1-.3-.3v.1c0 .2.1.3.3.3h3.6c.2 0 .3-.1.3-.3V32v-.1 1.8zM54 33.7c0 .2-.1.3-.3.3h-3.5c-.2 0-.3-.1-.3-.3v.1c0 .2.1.3.3.3h3.5c.2 0 .3-.1.3-.3v-4-.1 4zM49.3 33.7c0 .2-.1.3-.3.3h-4.7c-.2 0-.3-.1-.3-.3v.1c0 .2.1.3.3.3H49c.2 0 .3-.1.3-.3v-4-.1 4zM63.2 33.7c0 .2-.1.3-.3.3h-3.6c-.2 0-.3-.1-.3-.3v.1c0 .2.1.3.3.3h3.6c.2 0 .3-.1.3-.3v-4-.1 4zM63.1 19.6c0 .2-.1.3-.3.3h-3.4c-.1 0-.3-.1-.3-.3v.1c0 .2.1.3.3.3h3.4c.2 0 .3-.1.3-.3v-3.4-.1 3.4zM24.8 10.7c0 .2-.1.3-.3.3h-3.6c-.2 0-.3-.1-.3-.3v.1c0 .2.1.3.3.3h3.6c.2 0 .3-.1.3-.3v-2-.1 2zM46 24.3v-3.4-.1 3.3c0 .2-.1.3-.3.3h-3.4c-.1 0-.3-.1-.3-.3v.1c0 .2.1.3.3.3h3.4c.1.1.3-.1.3-.2M57.3 28.8v-3.4-.1 3.3c0 .2-.1.3-.3.3h-3.4c-.2 0-.3-.1-.3-.3v.1c0 .2.1.3.3.3H57c.2.1.3 0 .3-.2M22.9 24.3v-3.4-.1 3.3c0 .2-.1.3-.3.3h-3.4c-.1 0-.3-.1-.3-.3v.1c0 .2.1.3.3.3h3.4c.1.1.3-.1.3-.2M24 15.2c0 .2-.1.3-.3.3h-3.4c-.1 0-.3-.1-.3-.3v.1c0 .2.1.3.3.3h3.4c.2 0 .3-.1.3-.3V12v-.1 3.3zM28.6 15.2c0 .2-.1.3-.3.3h-3.4c-.1 0-.3-.1-.3-.3v.1c0 .2.1.3.3.3h3.4c.2 0 .3-.1.3-.3V12v-.1 3.3zM1.8 24.6h6.9c.2 0 .3-.1.3-.3v-3.4-.1 3.3c0 .2-.1.3-.3.3H1.8c-.1 0-.3-.1-.3-.3v.1c0 .2.1.4.3.4M13.6 24.3v-3.4-.1 3.3c0 .2-.1.3-.3.3H9.9c-.1 0-.3-.1-.3-.3v.1c0 .2.1.3.3.3h3.4c.2.1.3-.1.3-.2M15.8 28.8v-3.4-.1 3.3c0 .2-.1.3-.3.3h-3.4c-.1 0-.3-.1-.3-.3v.1c0 .2.1.3.3.3h3.4c.1.1.3 0 .3-.2M52.7 28.8v-3.4-.1 3.3c0 .2-.1.3-.3.3H49c-.2 0-.3-.1-.3-.3v.1c0 .2.1.3.3.3h3.4c.2.1.3 0 .3-.2M39.1 10.7c0 .2-.1.3-.3.3h-3.6c-.2 0-.3-.1-.3-.3v.1c0 .2.1.3.3.3h3.6c.2 0 .3-.1.3-.3v-2-.1 2zM34.4 10.7c0 .2-.1.3-.3.3h-3.6c-.2 0-.3-.1-.3-.3v.1c0 .2.1.3.3.3h3.6c.2 0 .3-.1.3-.3v-2-.1 2zM29.6 10.7c0 .2-.1.3-.3.3h-3.6c-.2 0-.3-.1-.3-.3v.1c0 .2.1.3.3.3h3.6c.2 0 .3-.1.3-.3v-2-.1 2zM43.9 10.7c0 .2-.1.3-.3.3H40c-.2 0-.3-.1-.3-.3v.1c0 .2.1.3.3.3h3.6c.2 0 .3-.1.3-.3v-2-.1 2zM58.2 10.7c0 .2-.1.3-.3.3h-3.6c-.2 0-.3-.1-.3-.3v.1c0 .2.1.3.3.3h3.6c.2 0 .3-.1.3-.3v-2-.1 2zM63 10.7c0 .2-.1.3-.3.3h-3.6c-.1 0-.3-.1-.3-.3v.1c0 .2.1.3.3.3h3.6c.2 0 .3-.1.3-.3v-2-.1 2zM53.5 10.7c0 .2-.1.3-.3.3h-3.6c-.2 0-.3-.1-.3-.3v.1c0 .2.1.3.3.3h3.6c.2 0 .3-.1.3-.3v-2-.1 2zM48.7 10.7c0 .2-.1.3-.3.3h-3.6c-.2 0-.3-.1-.3-.3v.1c0 .2.1.3.3.3h3.6c.2 0 .3-.1.3-.3v-2-.1 2z"/></svg>