<svg xmlns="http://www.w3.org/2000/svg" xmlns:xlink="http://www.w3.org/1999/xlink" width="82.4" height="34.7" viewBox="0 0 82.4 34.7"><path fill="#848282" d="M8.9 3.6v-1S11.2.2 15.6.1c4.4-.1 9.8 0 9.8 0s1.2.1 1.2 1.2c0 1.1-10.3 2.3-10.3 2.3H8.9zM73.3 3.6v-1S71 .2 66.6.1c-4.4-.1-9.8 0-9.8 0s-1.2.1-1.2 1.2c0 1.1 10.3 2.3 10.3 2.3h7.4z"/><path fill="#E8E5D1" d="M16.8 1.1h48.7v28.3H16.8z"/><path fill="#E8E5D1" d="M0 17.9c0 9.3 7.5 16.8 16.8 16.8s16.8-7.5 16.8-16.8S26.1 1.1 16.8 1.1 0 8.7 0 17.9M33.2 29.5H29l-2.1 1.8s4-1.8 6.3-1.8M82.4 17.9c0 9.3-7.5 16.8-16.8 16.8s-16.8-7.5-16.8-16.8S56.3 1.1 65.5 1.1c9.3 0 16.9 7.6 16.9 16.8M49.1 29.5h4.3l2.1 1.8c-.1 0-4-1.8-6.4-1.8"/><path fill="#848282" d="M80 17.9c0-8-6.5-14.4-14.4-14.4S51.1 10 51.1 17.9c0 8 6.5 14.4 14.4 14.4S80 25.9 80 17.9"/><path fill="#393536" d="M65.5 3.9c7.9 0 14.3 6.3 14.4 14.2v-.2c0-8-6.5-14.4-14.4-14.4S51.1 10 51.1 17.9v.2c.1-7.8 6.5-14.2 14.4-14.2"/><path fill="#E8E5D1" d="M58.2 21.5c-1.1 0-2.1-.5-2.7-1.3-.5-.7-.8-1.6-.6-2.5.1-.9.6-1.7 1.3-2.2L64 9.6c.6-.4 1.3-.7 2-.7 1.1 0 2.1.5 2.7 1.3.5.7.8 1.6.6 2.5s-.6 1.7-1.3 2.2l-7.9 5.9c-.5.5-1.2.7-1.9.7"/><path fill="#5A5758" d="M66 8.9c1 0 2 .5 2.6 1.3 1.1 1.5.8 3.5-.7 4.6L60 20.7c-.6.4-1.3.7-2 .7-1 0-2-.5-2.6-1.3-1.1-1.5-.8-3.5.6-4.6l7.9-5.9c.7-.4 1.4-.7 2.1-.7m0-.1c-.8 0-1.5.2-2.1.7L56 15.4c-.7.6-1.2 1.4-1.3 2.3-.1.9.1 1.8.7 2.5.7.9 1.7 1.4 2.7 1.4.8 0 1.5-.2 2.1-.7l7.9-5.9c.7-.6 1.2-1.4 1.3-2.3.1-.9-.1-1.8-.7-2.5-.6-.9-1.6-1.4-2.7-1.4"/><path fill="#E8E5D1" d="M65 27c-1.1 0-2-.5-2.7-1.3-1.1-1.5-.8-3.6.7-4.7l7.9-5.9c.6-.4 1.3-.7 2-.7 1.1 0 2.1.5 2.7 1.3.5.7.8 1.6.6 2.5s-.6 1.7-1.3 2.2L67 26.3c-.5.5-1.2.7-2 .7"/><path fill="#5A5758" d="M72.9 14.4c1 0 2 .5 2.6 1.3 1.1 1.5.8 3.5-.7 4.6l-7.8 6c-.6.4-1.3.7-2 .7-1 0-2-.5-2.6-1.3-1.1-1.5-.8-3.5.6-4.6l7.9-5.9c.6-.6 1.3-.8 2-.8m0-.1c-.8 0-1.5.2-2.1.7L63 20.9c-1.5 1.1-1.8 3.3-.7 4.8.7.9 1.7 1.4 2.7 1.4.8 0 1.5-.2 2.1-.7l7.9-5.9c.7-.6 1.2-1.4 1.3-2.3.1-.9-.1-1.8-.7-2.5-.6-.9-1.6-1.4-2.7-1.4"/><path fill="#386B95" d="M68.8 12.3c0 1.5-1.2 2.8-2.8 2.8s-2.8-1.2-2.8-2.8 1.2-2.8 2.8-2.8 2.8 1.2 2.8 2.8"/><path fill="#597F5C" d="M60.9 18.3c0 1.5-1.2 2.8-2.8 2.8s-2.8-1.2-2.8-2.8 1.2-2.8 2.8-2.8 2.8 1.2 2.8 2.8"/><path fill="#B52126" d="M75.7 17.7c0 1.5-1.2 2.8-2.8 2.8s-2.8-1.2-2.8-2.8c0-1.5 1.2-2.8 2.8-2.8s2.8 1.2 2.8 2.8"/><path fill="#E5952E" d="M67.9 23.7c0 1.5-1.2 2.8-2.8 2.8-1.5 0-2.8-1.2-2.8-2.8s1.2-2.8 2.8-2.8c1.6 0 2.8 1.2 2.8 2.8"/><g opacity=".4"><defs><path id="a" d="M63.5 9.7h5.1v2.8h-5.1z"/></defs><clipPath id="b"><use xlink:href="#a" overflow="visible"/></clipPath><path clip-path="url(#b)" fill="#386B95" d="M66 9.7c-1.4 0-2.5 1.2-2.5 2.6v.1c.1-1.4 1.2-2.5 2.5-2.5s2.4 1.1 2.5 2.5v-.1c0-1.4-1.1-2.6-2.5-2.6"/></g><g opacity=".4"><clipPath id="d"><use xlink:href="#c" overflow="visible"/></clipPath><path clip-path="url(#d)" fill="#597F5C" d="M60.9 18.7v-.1-.1.2"/></g><g opacity=".4"><defs><path id="e" d="M55.6 15.7h5.2v2.8h-5.2z"/></defs><clipPath id="f"><use xlink:href="#e" overflow="visible"/></clipPath><path clip-path="url(#f)" fill="#597F5C" d="M58.1 15.7c-1.4 0-2.5 1.2-2.6 2.6v.1c.1-1.4 1.2-2.5 2.6-2.5 1.3 0 2.4 1.1 2.6 2.5v-.1c0-1.4-1.2-2.6-2.6-2.6"/></g><g opacity=".4"><clipPath id="h"><use xlink:href="#g" overflow="visible"/></clipPath><path clip-path="url(#h)" fill="#B52126" d="M70.1 17.8v0"/></g><g opacity=".4"><defs><path id="i" d="M70.4 15.2h4.9V18h-4.9z"/></defs><clipPath id="j"><use xlink:href="#i" overflow="visible"/></clipPath><path clip-path="url(#j)" fill="#B52126" d="M72.9 15.4c1.3 0 2.3 1.1 2.5 2.5v-.1c-.1-1.5-1.1-2.6-2.5-2.6s-2.4 1.2-2.5 2.6v.1c.2-1.4 1.2-2.5 2.5-2.5"/></g><g opacity=".4"><clipPath id="l"><use xlink:href="#k" overflow="visible"/></clipPath><path clip-path="url(#l)" fill="#E5952E" d="M67.9 24.1V24v-.1.2"/></g><g opacity=".4"><clipPath id="n"><use xlink:href="#m" overflow="visible"/></clipPath><path clip-path="url(#n)" fill="#E5952E" d="M62.3 23.8v0"/></g><g opacity=".4"><defs><path id="o" d="M62.7 21.2h4.9V24h-4.9z"/></defs><clipPath id="p"><use xlink:href="#o" overflow="visible"/></clipPath><path clip-path="url(#p)" fill="#E5952E" d="M65.1 21.2c-1.3 0-2.4 1.2-2.5 2.6v.1c.1-1.4 1.2-2.5 2.5-2.5s2.3 1.1 2.5 2.5v-.1c-.1-1.5-1.2-2.6-2.5-2.6"/></g><defs><path id="q" d="M7.7 9h18.1v9.1H7.7z"/></defs><clipPath id="r"><use xlink:href="#q" overflow="visible"/></clipPath><path clip-path="url(#r)" fill="#E8E5D1" d="M16.8 9.4c5 0 9.1 3.9 9.1 8.7 0-5-4.1-9.1-9.1-9.1s-9.1 4.1-9.1 9.1c0-4.8 4.1-8.7 9.1-8.7"/><defs><path id="s" d="M7.7 18.1h18.1v9.1H7.7z"/></defs><clipPath id="t"><use xlink:href="#s" overflow="visible"/></clipPath><path clip-path="url(#t)" fill="#E8E5D1" d="M16.8 26.8c-5 0-9.1-3.9-9.1-8.7 0 5 4.1 9.1 9.1 9.1s9.1-4.1 9.1-9.1c0 4.8-4.1 8.7-9.1 8.7"/><path fill="#231F20" d="M22.8 15.9h-3.6v-3.6c0-.4-.3-.6-.6-.6h-3.5c-.4 0-.6.3-.6.6v3.6h-3.6c-.4 0-.6.3-.6.6V20c0 .4.3.6.6.6h3.6v3.6c0 .4.3.6.6.6h3.5c.4 0 .6-.3.6-.6v-3.6h3.6c.4 0 .6-.3.6-.6v-3.5c0-.3-.3-.6-.6-.6"/><path fill="#656263" d="M22.6 16.2h-3.7v-3.7c0-.4-.3-.6-.6-.6h-2.9c-.4 0-.6.3-.6.6v3.7h-3.6c-.4 0-.6.3-.6.6v2.9c0 .4.3.6.6.6h3.6V24c0 .4.3.6.6.6h2.9c.4 0 .6-.3.6-.6v-3.7h3.7c.4 0 .6-.3.6-.6v-2.9c0-.3-.3-.6-.6-.6"/><defs><path id="u" d="M10.8 12.2h11.9v4.7H10.8z"/></defs><clipPath id="v"><use xlink:href="#u" overflow="visible"/></clipPath><path clip-path="url(#v)" fill="#656263" d="M22.8 16.9c0-.1 0-.2-.1-.3-.1-.1-.1-.2-.2-.2-.1-.1-.3-.1-.5-.1H18.7v-2.9-.7c-.1-.2-.2-.4-.5-.4h-2.8c-.3 0-.4.2-.5.4-.1.2 0 .5 0 .7v2.9H11.6c-.2 0-.4 0-.5.1-.1 0-.1.1-.2.2 0 .1 0 .2-.1.3 0-.1 0-.2.1-.3.1-.1.1-.2.2-.2.1-.1.3-.1.5-.1H14.9v-2.9-.7c0-.2.3-.5.5-.5h2.8c.3 0 .5.2.5.5.1.3 0 .5 0 .7v2.9H22c.2 0 .4 0 .5.1.1 0 .1.1.2.2s.1.2.1.3"/><path fill="#464344" d="M16.9 18.3c-.5 0-1 .3-1.2.7.2.4.7.7 1.2.7s1-.3 1.2-.7c-.2-.4-.6-.7-1.2-.7"/><path fill="#888687" d="M13.8 19.4c0 .1-.1.2-.2.1l-2.1-1.1c-.1-.1-.1-.2 0-.2l2.1-1.1c.1-.1.2 0 .2.1v2.2zM17.9 21.5c.1 0 .2.1.1.2l-1.1 2.1c-.1.1-.2.1-.2 0l-1.1-2.1c-.1-.1 0-.2.1-.2h2.2zM19.9 17.2c0-.1.1-.2.2-.1l2.1 1.1c.1.1.1.2 0 .2l-2.1 1.1c-.1.1-.2 0-.2-.1v-2.2zM15.7 15.2c-.1 0-.2-.1-.1-.2l1.1-2.1c.1-.1.2-.1.2 0L18 15c.1.1 0 .2-.1.2h-2.2z"/><defs><path id="w" d="M15.4 16.7h3v1.6h-3z"/></defs><clipPath id="x"><use xlink:href="#w" overflow="visible"/></clipPath><path clip-path="url(#x)" fill="#656263" d="M18.5 18.3v-.2c0-.1-.1-.3-.2-.5 0-.1-.1-.2-.2-.3l-.3-.3c-.2-.1-.5-.2-.8-.2-.1 0-.3 0-.4.1-.1 0-.3.1-.4.2l-.3.3c-.1.1-.2.2-.2.3-.1.2-.2.4-.2.5v0c0-.1 0-.3.1-.5 0-.1.1-.2.2-.3l.3-.3c.1-.1.2-.2.4-.2.2-.1.3-.1.4-.1.3 0 .6.1.9.3l.3.3c.1.1.2.2.2.3.1.2.1.4.1.5.1 0 .1.1.1.1"/><g opacity=".3"><defs><path id="y" d="M39.6 1.1h3.2v.7h-3.2z"/></defs><clipPath id="z"><use xlink:href="#y" overflow="visible"/></clipPath><path clip-path="url(#z)" fill="#656263" d="M39.6 1.1h3.2v.7h-3.2z"/></g><path fill="#231F20" d="M37.7 21.3c.2.3.1.7-.2.9l-4.3 2.7c-.3.2-.7.1-.9-.2l-.5-.8c-.2-.3-.1-.7.2-.9l4.3-2.7c.3-.2.7-.1.9.2l.5.8z"/><path fill="#656263" d="M37.7 21.3c.2.3.1.7-.2.9l-4 2.5c-.3.2-.7.1-.9-.2l-.2-.3c-.2-.3-.1-.7.2-.9l4-2.5c.3-.2.7-.1.9.2l.2.3z"/><path fill="#4F4C4D" d="M37 21.1c.1.1 0 .2-.1.3L32.8 24c-.1.1-.2 0-.3-.1-.1-.1 0-.2.1-.3l4.1-2.6c.2 0 .3 0 .3.1"/><path fill="#231F20" d="M46.1 21.1c.2.3.1.7-.2.9l-4.3 2.7c-.3.2-.7.1-.9-.2l-.5-.8c-.2-.3-.1-.7.2-.9l4.3-2.7c.3-.2.7-.1.9.2l.5.8z"/><path fill="#656263" d="M46.1 21.1c.2.3.1.7-.2.9l-4 2.5c-.3.2-.7.1-.9-.2l-.2-.3c-.2-.3-.1-.7.2-.9l4-2.5c.3-.2.7-.1.9.2l.2.3z"/><path fill="#4F4C4D" d="M45.5 20.9c.1.1 0 .2-.1.3l-4.1 2.6c-.1.1-.2 0-.3-.1-.1-.1 0-.2.1-.3l4.1-2.6c.1 0 .3 0 .3.1"/><g opacity=".5"><defs><path id="A" d="M31.5 6.3h7.8v3.3h-7.8z"/></defs><clipPath id="B"><use xlink:href="#A" overflow="visible"/></clipPath><path clip-path="url(#B)" fill="#4F4C4D" d="M38.8 9.6h-7.3l.5-3.3h7.3"/></g><g opacity=".5"><defs><path id="C" d="M39.3 6.3h10.6v3.3H39.3z"/></defs><clipPath id="D"><use xlink:href="#C" overflow="visible"/></clipPath><path clip-path="url(#D)" fill="#4F4C4D" d="M49.4 9.6H39.3l.6-3.3H50"/></g><g opacity=".5"><defs><path id="E" d="M31.5 10.3h18v.9h-18z"/></defs><clipPath id="F"><use xlink:href="#E" overflow="visible"/></clipPath><path clip-path="url(#F)" fill="#4F4C4D" d="M31.5 10.3h18v.9h-18z"/></g><g opacity=".5"><defs><path id="G" d="M32.3 26.3h6v1.2h-6z"/></defs><clipPath id="H"><use xlink:href="#G" overflow="visible"/></clipPath><path clip-path="url(#H)" fill="#4F4C4D" d="M37.8 27.5h-5.5l.5-1.2h5.5"/></g><g opacity=".5"><defs><path id="I" d="M40.6 26.3h5.2v1.2h-5.2z"/></defs><clipPath id="J"><use xlink:href="#I" overflow="visible"/></clipPath><path clip-path="url(#J)" fill="#4F4C4D" d="M45.3 27.5h-4.7l.5-1.2h4.7"/></g></svg>