<svg xmlns="http://www.w3.org/2000/svg" xmlns:xlink="http://www.w3.org/1999/xlink" width="81.4" height="32.3" viewBox="0 0 81.4 32.3"><path fill="#AFC6D1" d="M11.9 8.8s5.7-5 8.5-5.2c2.7-.2-7 6.7-7 6.7l-2.4.2.9-1.7z"/><path fill="#231F20" d="M3.2 25.7h3.9s.4 1.1 1.3 1.1h11.4l2.6 1.6s1.3 0 2.4-2.3c1.1-2.4 28.3-2.4 28.3-2.4l6.5 2.4s.1 2.4 5.5 2.4 10.3-3.4 10.3-3.4l3.3-.3s1.7-.5-.4-3.7c-2-3.2-4.4-5.2-4.4-5.2S66.8 14 66.5 14c-.2 0-33.9-2.2-33.9-2.2l-20.8 2.4-8.6 11.5z"/><path fill="#A1D6E7" d="M79.6 23.6l-.7-2.4s-.8-2.9-1.1-4.1c-.3-1.2-1.8-2.1-2.3-2.2-.2 0 .6.8 1.1 1.3-.3-.3-.9-.9-1.9-1.8-4.9-4.7-13.8-5-13.8-5s-5.4-.5-6.1-.5c-.7 0-.9-.3-.9-.3S50.4 3.1 50 2.5c-.4-.6-.8-.8-.8-.8S43.8 0 34.4 0C25.1 0 19 3.7 19 3.7c-.3.9-1.6 1.8-1.6 1.8s-4.2 3.5-4.9 4c-.7.5-.6-.8-.6-.8s-3.7 3.6-4.6 4.6c-.9 1-2 2.6-2 2.6L5 17.5s-1.1 2-1.7 3.3c-.6 1.3.4 1.6.4 1.6h2.9c.7-3.3 4.3-5.7 8.7-5.7 4.9 0 8.9 3 8.9 6.8 0 .8-.2 1.6-.5 2.3l2.4 1s31.1.3 32.9.3 2-2 2-2c.6-3.7 2.9-8.6 8.2-8.6s8.7 6.5 9.1 6.9.1 1.1.7 1.1.6-.9.6-.9"/><g opacity=".3"><defs><path id="a" d="M9.4 2h41.5v13.2H9.4z"/></defs><clipPath id="b"><use xlink:href="#a" overflow="visible"/></clipPath><path clip-path="url(#b)" fill="#209DC6" d="M9.4 15.1c1-1.7 2.2-3.2 3.5-4.7 1.4-1.4 2.9-2.6 4.6-3.7 3.3-2.2 7-3.7 10.9-4.3 3.9-.7 7.8-.3 11.7-.3l2.9.2c1 .1 1.9.1 2.9.3.9.3 1.9.6 2.8 1 .9.4 1.7 1 2.2 1.9-.6-.8-1.5-1.3-2.3-1.7-.9-.4-1.8-.6-2.8-.8-.9-.2-1.9-.2-2.9-.3L40 2.6c-3.9-.1-7.8-.5-11.6.2S21 5 17.7 7.1c-1.6 1.1-3.1 2.3-4.5 3.7-1.4 1.3-2.7 2.7-3.8 4.3"/></g><path fill="#E9EAE9" d="M15.1 21c-2.4 0-4.4 2-4.4 4.4h8.8c0-2.5-2-4.4-4.4-4.4"/><path fill="#393536" d="M18.9 19.6c-.3-.2-.6-.3-.9-.5-.3-.1-.6-.3-.9-.4-.6-.2-1.3-.3-2-.3s-1.4.1-2 .3c-.3.1-.6.2-.9.4-.3.1-.6.3-.9.5h7.6z"/><path fill="#373435" d="M12.7 18.9c-.4.2-.8.4-1.1.7-.2.1-.3.3-.5.4-.1.2-.3.3-.4.5h8.7c-.1-.2-.2-.3-.4-.5-.1-.2-.3-.3-.5-.4-.3-.3-.7-.5-1.1-.7-.5-.2-1.7-.3-2.3-.3s-1.8.2-2.4.3"/><path fill="#353232" d="M12.4 19.1c-.5.3-1 .6-1.4 1.1-.2.2-.4.4-.5.7-.1.2-.3.5-.4.8h9.6c-.1-.3-.2-.5-.4-.8-.1-.2-.3-.5-.5-.7-.4-.4-.8-.8-1.4-1.1-.4-.1-2.2-.2-2.6-.2-.2 0-1.9 0-2.4.2"/><path fill="#343031" d="M12.2 19.2c-.6.4-1.2.8-1.6 1.4-.2.3-.4.6-.5.9s-.3.7-.3 1h10.8c-.1-.3-.2-.7-.3-1-.1-.3-.3-.6-.5-.9-.4-.6-1-1-1.6-1.4-.3-.1-2.6-.2-2.9-.2-.6.1-2.8.1-3.1.2"/><path fill="#322E2F" d="M11.9 19.3c-.7.4-1.3 1-1.8 1.7-.2.3-.4.7-.6 1.1l-.3 1.2h11.7c0-.4-.1-.8-.3-1.2-.1-.4-.3-.8-.6-1.1-.5-.7-1.1-1.3-1.8-1.7-.2-.1-3-.1-3.2-.1-.2 0-2.9.1-3.1.1"/><path fill="#302C2D" d="M11.6 19.5c-.8.5-1.5 1.2-2 2.1-.3.4-.5.8-.6 1.3l-.3 1.5h12.8c0-.5-.1-1-.3-1.5-.1-.5-.3-.9-.6-1.3-.5-.8-1.2-1.6-2-2.1-.1 0-3.4-.1-3.5-.1s-3.4.1-3.5.1"/><path fill="#2E2A2B" d="M8.2 25.4H22c0-.6-.1-1.2-.2-1.7s-.4-1.1-.6-1.6c-.5-1-1.3-1.8-2.2-2.4h-7.6c-.9.6-1.7 1.5-2.2 2.4-.3.5-.5 1-.6 1.6-.3.5-.4 1.1-.4 1.7"/><path fill="#2C2829" d="M10.7 20.6c-.7.7-1.3 1.5-1.7 2.5-.2.5-.3 1-.4 1.5-.1.5-.1 1.1 0 1.6.2.2 6.2.3 6.5.3.3 0 6.3-.1 6.5-.3.1-.5 0-1.1 0-1.6-.1-.5-.2-1-.4-1.5-.4-1-1-1.8-1.8-2.5h-8.7z"/><path fill="#2A2728" d="M10.2 21.5c-.6.7-1.1 1.6-1.3 2.5-.1.5-.2.9-.2 1.4 0 .5 0 1 .1 1.5.4.4 5.6.7 6.2.7.6 0 5.8-.3 6.2-.7.1-.5.2-1 .1-1.5 0-.5-.1-1-.2-1.4-.2-.9-.7-1.8-1.3-2.5h-9.6z"/><path fill="#292525" d="M9.7 22.5c-.4.8-.7 1.6-.8 2.5 0 .4-.1.9 0 1.4.1.5.2.9.3 1.4.6.6 4.9 1 5.9 1 .9 0 5.3-.4 5.9-1 .2-.5.3-.9.3-1.4.1-.5 0-.9 0-1.4-.1-.9-.4-1.8-.8-2.6H9.7z"/><path fill="#272324" d="M9.2 23.4c-.3.8-.4 1.7-.4 2.6 0 .4.1.9.2 1.3s.3.9.5 1.3c.8.8 4.3 1.3 5.5 1.3 1.3 0 4.7-.5 5.5-1.3.2-.4.4-.8.5-1.3.1-.4.2-.9.2-1.3.1-.9-.1-1.8-.4-2.6H9.2z"/><path fill="#252122" d="M8.7 24.4c-.2.9-.1 1.8.1 2.6.1.4.2.8.4 1.2.2.4.4.8.7 1.2 1 1 3.6 1.7 5.2 1.7s4.2-.6 5.2-1.7c.3-.4.5-.7.7-1.2.2-.4.3-.8.4-1.2.2-.8.2-1.7.1-2.6H8.7z"/><path fill="#231F20" d="M22 25.4H8.2c0 .9.2 1.9.5 2.7.3.8.9 1.6 1.5 2.2 1.2 1.2 3 2 4.9 2 1.9 0 3.6-.8 4.9-2 .6-.6 1.1-1.4 1.5-2.2.3-.9.5-1.8.5-2.7"/><defs><path id="c" d="M8.2 18.5H22v13.8H8.2z"/></defs><clipPath id="d"><use xlink:href="#c" overflow="visible"/></clipPath><path clip-path="url(#d)" fill="#4F4C4D" d="M15.1 18.9c3.5 0 6.4 2.9 6.4 6.4 0 3.5-2.9 6.4-6.4 6.4s-6.4-2.9-6.4-6.4c0-3.5 2.8-6.4 6.4-6.4m0-.4c-3.8 0-6.9 3.1-6.9 6.9s3.1 6.9 6.9 6.9c3.8 0 6.9-3.1 6.9-6.9s-3.1-6.9-6.9-6.9"/><path clip-path="url(#d)" fill="#484445" d="M15.1 18.9c3.6 0 6.5 2.9 6.5 6.5s-2.9 6.5-6.5 6.5-6.5-2.9-6.5-6.5 2.9-6.5 6.5-6.5m0-.4c-3.8 0-6.9 3.1-6.9 6.9s3.1 6.9 6.9 6.9c3.8 0 6.9-3.1 6.9-6.9s-3.1-6.9-6.9-6.9"/><path clip-path="url(#d)" fill="#403D3E" d="M15.1 18.8c3.6 0 6.5 2.9 6.5 6.5s-2.9 6.5-6.5 6.5-6.5-2.9-6.5-6.5c0-3.5 2.9-6.5 6.5-6.5m0-.3c-3.8 0-6.9 3.1-6.9 6.9s3.1 6.9 6.9 6.9c3.8 0 6.9-3.1 6.9-6.9s-3.1-6.9-6.9-6.9"/><path clip-path="url(#d)" fill="#393536" d="M15.1 18.8c3.6 0 6.6 2.9 6.6 6.6S18.8 32 15.1 32c-3.6 0-6.6-2.9-6.6-6.6s3-6.6 6.6-6.6m0-.3c-3.8 0-6.9 3.1-6.9 6.9s3.1 6.9 6.9 6.9c3.8 0 6.9-3.1 6.9-6.9s-3.1-6.9-6.9-6.9"/><path clip-path="url(#d)" fill="#322E2F" d="M15.1 18.7c3.7 0 6.6 3 6.6 6.6s-3 6.6-6.6 6.6c-3.7 0-6.6-3-6.6-6.6s2.9-6.6 6.6-6.6m0-.2c-3.8 0-6.9 3.1-6.9 6.9s3.1 6.9 6.9 6.9c3.8 0 6.9-3.1 6.9-6.9s-3.1-6.9-6.9-6.9"/><path clip-path="url(#d)" fill="#2A2728" d="M15.1 18.7c3.7 0 6.7 3 6.7 6.7s-3 6.7-6.7 6.7-6.7-3-6.7-6.7 3-6.7 6.7-6.7m0-.2c-3.8 0-6.9 3.1-6.9 6.9s3.1 6.9 6.9 6.9 6.9-3.1 6.9-6.9-3.1-6.9-6.9-6.9"/><path clip-path="url(#d)" fill="#231F20" d="M15.1 18.6c3.7 0 6.7 3 6.7 6.7s-3 6.7-6.7 6.7-6.7-3-6.7-6.7 3-6.7 6.7-6.7m0-.1c-3.8 0-6.9 3.1-6.9 6.9s3.1 6.9 6.9 6.9c3.8 0 6.9-3.1 6.9-6.9s-3.1-6.9-6.9-6.9"/><path fill="#F6F7F6" d="M20.8 25.4c0 3.1-2.6 5.7-5.7 5.7s-5.7-2.6-5.7-5.7 2.6-5.7 5.7-5.7 5.7 2.5 5.7 5.7"/><path fill="#F0F0F0" d="M15.1 20.5c-2.7 0-4.8 2.2-4.8 4.8s2.2 4.8 4.8 4.8 4.8-2.2 4.8-4.8-2.2-4.8-4.8-4.8m0 9.3c-2.5 0-4.5-2-4.5-4.5s2-4.5 4.5-4.5 4.5 2 4.5 4.5-2.1 4.5-4.5 4.5"/><defs><path id="e" d="M10.6 20.8h8.9v8.9h-8.9z"/></defs><clipPath id="f"><use xlink:href="#e" overflow="visible"/></clipPath><path clip-path="url(#f)" fill="#D3D4D4" d="M15.1 29.8c-1.2 0-2.3-.5-3.1-1.3-.8-.8-1.3-2-1.3-3.1 0-1.2.5-2.3 1.3-3.2.8-.8 2-1.3 3.2-1.3 1.2 0 2.3.5 3.2 1.3.8.8 1.3 2 1.3 3.2 0 1.2-.5 2.3-1.3 3.1-1 .8-2.2 1.3-3.3 1.3m0 0c1.2 0 2.3-.5 3.1-1.3.8-.8 1.3-2 1.3-3.1s-.5-2.3-1.3-3.1c-.8-.8-1.9-1.3-3.1-1.2-1.1 0-2.3.4-3.1 1.2-.8.8-1.3 1.9-1.3 3.1 0 1.1.4 2.3 1.3 3.1.8.8 1.9 1.3 3.1 1.3"/><defs><path id="g" d="M11.1 21.3h8v8h-8z"/></defs><clipPath id="h"><use xlink:href="#g" overflow="visible"/></clipPath><path clip-path="url(#h)" fill="#D3D4D4" d="M15.1 29.3c-1 0-2.1-.4-2.8-1.1-.8-.7-1.2-1.8-1.2-2.8 0-1.1.4-2.1 1.2-2.9.7-.8 1.8-1.2 2.9-1.2 1.1 0 2.1.5 2.9 1.2.7.8 1.2 1.8 1.2 2.9 0 1.1-.4 2.1-1.2 2.8-.9.7-2 1.1-3 1.1m0 0c1 0 2.1-.4 2.8-1.2.7-.7 1.1-1.8 1.1-2.8 0-1-.4-2-1.2-2.7-.7-.7-1.7-1.1-2.7-1.1-1 0-2 .4-2.7 1.1-.7.7-1.2 1.7-1.2 2.7 0 1 .4 2.1 1.1 2.8.7.8 1.7 1.2 2.8 1.2"/><path fill="#BEBFBE" d="M15.1 28.5c-1.7 0-3.1-1.4-3.1-3.1h-.2c0 1.8 1.5 3.3 3.3 3.3 1.8 0 3.3-1.5 3.3-3.3h-.2c0 1.7-1.4 3.1-3.1 3.1"/><path fill="#929493" d="M15.1 22.1c-1.8 0-3.3 1.5-3.3 3.3h.2c0-1.7 1.4-3.1 3.1-3.1s3.1 1.4 3.1 3.1h.2c0-1.9-1.5-3.3-3.3-3.3"/><path fill="#DEDFDE" d="M18.3 25.4c0 1.8-1.4 3.2-3.2 3.2-1.8 0-3.2-1.4-3.2-3.2 0-1.8 1.4-3.2 3.2-3.2 1.7 0 3.2 1.5 3.2 3.2"/><path fill="#3B3F3C" d="M15.5 22.8c0 .1-.1.2-.2.2h-.5c-.1 0-.2-.1-.2-.2s.1-.2.2-.2h.5c.1 0 .2.1.2.2M13.5 23.3c.1.1.1.2 0 .2l-.4.4c-.1.1-.2.1-.2 0-.1-.1-.1-.2 0-.2l.4-.4c.1-.1.2-.1.2 0M12.5 25c.1 0 .2.1.2.2v.5c0 .1-.1.2-.2.2s-.2-.1-.2-.2v-.5c0-.1.1-.2.2-.2M12.9 27c.1-.1.2-.1.2 0l.4.4c.1.1.1.2 0 .2-.1.1-.2.1-.2 0l-.4-.4V27M14.6 28c0-.1.1-.2.2-.2h.5c.1 0 .2.1.2.2s-.1.2-.2.2h-.5c-.1 0-.2-.1-.2-.2M16.6 27.6c-.1-.1-.1-.2 0-.2l.4-.4c.1-.1.2-.1.2 0 .1.1.1.2 0 .2l-.4.4c0 .1-.1.1-.2 0M17.7 25.9c-.1 0-.2-.1-.2-.2v-.5c0-.1.1-.2.2-.2s.2.1.2.2v.5c0 .1-.1.2-.2.2M17.2 23.9c-.1.1-.2.1-.2 0l-.4-.4c-.1-.1-.1-.2 0-.2.1-.1.2-.1.2 0l.4.4c.1 0 .1.1 0 .2"/><path fill="#A8AAA8" d="M17.2 25.4c0 1.2-.9 2.1-2.1 2.1-1.2 0-2.1-.9-2.1-2.1s.9-2.1 2.1-2.1c1.1 0 2.1 1 2.1 2.1"/><path fill="#A8AAA8" d="M15.8 25.4c0 .4-.3.7-.7.7-.4 0-.7-.3-.7-.7 0-.4.3-.7.7-.7.4 0 .7.4.7.7"/><defs><path id="i" d="M14.3 25.4h1.6v.8h-1.6z"/></defs><clipPath id="j"><use xlink:href="#i" overflow="visible"/></clipPath><path clip-path="url(#j)" fill="#A8AAA8" d="M15.1 26c-.3 0-.6-.3-.6-.6h-.2c0 .4.4.8.8.8s.8-.4.8-.8h-.2c0 .4-.3.6-.6.6"/><defs><path id="k" d="M14.3 24.6h1.6v.8h-1.6z"/></defs><clipPath id="l"><use xlink:href="#k" overflow="visible"/></clipPath><path clip-path="url(#l)" fill="#A8AAA8" d="M15.1 24.6c-.4 0-.8.4-.8.8h.2c0-.3.3-.6.6-.6s.6.3.6.6h.2c0-.4-.4-.8-.8-.8"/><g opacity=".3"><defs><path id="m" d="M13.2 24H17v1.4h-3.8z"/></defs><clipPath id="n"><use xlink:href="#m" overflow="visible"/></clipPath><g clip-path="url(#n)"><defs><path id="o" d="M13.2 25.1h.9v.3h-.9z"/></defs><clipPath id="p"><use xlink:href="#o" overflow="visible"/></clipPath><path clip-path="url(#p)" fill="#676A67" d="M13.2 25.2c.3-.2.7-.1.9.2-.3 0-.6-.1-.9-.2"/></g><path clip-path="url(#n)" fill="#E9EAE9" d="M13.7 24.9c0-.3.2-.5.5-.7.3-.1.6-.2.9-.2-.3.1-.6.1-.8.3l-.6.6"/><g clip-path="url(#n)"><defs><path id="q" d="M16 25.1h.9v.3H16z"/></defs><clipPath id="r"><use xlink:href="#q" overflow="visible"/></clipPath><path clip-path="url(#r)" fill="#676A67" d="M17 25.2c-.3.1-.6.2-.9.2.2-.3.6-.3.9-.2"/></g><path clip-path="url(#n)" fill="#E9EAE9" d="M16.4 24.9c-.1-.2-.3-.5-.5-.6-.2-.2-.5-.2-.8-.3.3-.1.6 0 .9.2.2.2.4.4.4.7"/></g><path fill="#E9EAE9" d="M69.3 21c-2.4 0-4.4 2-4.4 4.4h8.8c0-2.4-1.9-4.4-4.4-4.4"/><path fill="#393536" d="M73.1 19.7c-.3-.2-.6-.3-.9-.5-.3-.1-.6-.3-.9-.4-.6-.2-1.3-.3-2-.3s-1.4.1-2 .3c-.3.1-.6.2-.9.4-.3.1-.6.3-.9.5h7.6z"/><path fill="#373435" d="M67 19c-.4.2-.8.4-1.1.7-.2.1-.3.3-.5.4-.1.2-.3.3-.4.5h8.7c-.1-.2-.2-.3-.4-.5-.1-.2-.3-.3-.5-.5-.3-.3-.7-.5-1.1-.7-.5-.2-1.7-.3-2.3-.3-.7.1-1.9.2-2.4.4"/><path fill="#353232" d="M66.7 19.1c-.5.3-1 .6-1.4 1.1-.2.2-.4.4-.5.7-.1.2-.3.5-.4.8H74c-.1-.3-.2-.5-.4-.8-.1-.2-.3-.5-.5-.7-.4-.4-.8-.8-1.4-1.1-.4-.1-2.2-.2-2.6-.2s-2 .1-2.4.2"/><path fill="#343031" d="M66.4 19.3c-.6.4-1.2.8-1.6 1.4-.2.3-.4.6-.5.9-.1.3-.3.7-.3 1h10.8c-.1-.3-.2-.7-.3-1-.1-.3-.3-.6-.5-.9-.4-.6-1-1-1.6-1.4-.3-.1-2.6-.2-2.9-.2-.5 0-2.8.1-3.1.2"/><path fill="#322E2F" d="M66.1 19.4c-.7.4-1.3 1-1.8 1.7-.2.3-.4.7-.6 1.1l-.3 1.2h11.7c0-.4-.1-.8-.3-1.2-.1-.4-.3-.8-.6-1.1-.5-.7-1.1-1.3-1.8-1.7-.2-.1-3-.1-3.2-.1-.1 0-2.9.1-3.1.1"/><path fill="#302C2D" d="M65.8 19.6c-.8.5-1.5 1.2-2 2.1-.2.4-.4.9-.6 1.3l-.3 1.5h12.8c0-.5-.1-1-.3-1.5-.1-.5-.3-.9-.6-1.3-.5-.8-1.2-1.6-2-2.1-.1 0-3.4-.1-3.5-.1-.1 0-3.4 0-3.5.1"/><path fill="#2E2A2B" d="M62.4 25.4h13.8c0-.6-.1-1.2-.2-1.7-.1-.6-.4-1.1-.6-1.6-.5-1-1.3-1.8-2.2-2.4h-7.6c-.9.6-1.7 1.5-2.2 2.4-.3.5-.5 1-.6 1.6-.3.6-.4 1.1-.4 1.7"/><path fill="#2C2829" d="M65 20.7c-.8.7-1.4 1.5-1.8 2.5-.2.5-.3 1-.4 1.5-.1.5-.1 1.1 0 1.6.2.2 6.2.3 6.5.3s6.3-.1 6.5-.3c.1-.6 0-1.1 0-1.6-.1-.5-.2-1-.4-1.5-.4-1-1-1.8-1.8-2.5H65z"/><path fill="#2A2728" d="M64.5 21.6c-.6.7-1.1 1.6-1.3 2.5-.1.5-.2.9-.2 1.4 0 .5 0 1 .1 1.5.4.4 5.6.7 6.2.7s5.8-.3 6.2-.7c.1-.5.2-1 .1-1.5 0-.5-.1-1-.2-1.4-.2-.9-.7-1.8-1.3-2.5h-9.6z"/><path fill="#292525" d="M64 22.6c-.5.8-.7 1.7-.8 2.6 0 .4-.1.9 0 1.4.1.5.2.9.3 1.4.6.6 4.9 1 5.9 1 .9 0 5.2-.4 5.9-1 .2-.5.3-.9.3-1.4.1-.5 0-.9 0-1.4-.1-.9-.4-1.8-.8-2.6H64z"/><path fill="#272324" d="M63.5 23.5c-.3.8-.4 1.7-.4 2.6 0 .4.1.9.2 1.3s.3.9.5 1.3c.8.8 4.3 1.3 5.5 1.3 1.3 0 4.7-.5 5.5-1.3.2-.4.4-.8.5-1.3.1-.4.2-.9.2-1.3.1-.9-.1-1.8-.4-2.6H63.5z"/><path fill="#252122" d="M63 24.5c-.2.9-.1 1.8.1 2.6.1.4.2.8.4 1.2.2.4.4.8.7 1.2 1 1 3.6 1.7 5.2 1.7s4.2-.6 5.2-1.7c.3-.4.5-.7.7-1.2.2-.4.3-.8.4-1.2.2-.8.2-1.7.1-2.6H63z"/><path fill="#231F20" d="M76.2 25.4H62.4c0 1 .2 1.9.5 2.7s.9 1.6 1.5 2.2c1.2 1.2 3 2 4.9 2 1.9 0 3.6-.8 4.9-2 .6-.6 1.1-1.4 1.5-2.2s.5-1.7.5-2.7"/><defs><path id="s" d="M62.4 18.6h13.8v13.8H62.4z"/></defs><clipPath id="t"><use xlink:href="#s" overflow="visible"/></clipPath><path clip-path="url(#t)" fill="#4F4C4D" d="M69.3 19c3.5 0 6.4 2.9 6.4 6.4s-2.9 6.4-6.4 6.4-6.4-2.9-6.4-6.4 2.9-6.4 6.4-6.4m0-.4c-3.8 0-6.9 3.1-6.9 6.9s3.1 6.9 6.9 6.9c3.8 0 6.9-3.1 6.9-6.9s-3.1-6.9-6.9-6.9"/><path clip-path="url(#t)" fill="#484445" d="M69.3 19c3.6 0 6.5 2.9 6.5 6.5S72.9 32 69.3 32s-6.5-2.9-6.5-6.5 3-6.5 6.5-6.5m0-.4c-3.8 0-6.9 3.1-6.9 6.9s3.1 6.9 6.9 6.9c3.8 0 6.9-3.1 6.9-6.9s-3.1-6.9-6.9-6.9"/><path clip-path="url(#t)" fill="#403D3E" d="M69.3 18.9c3.6 0 6.5 2.9 6.5 6.5S72.9 32 69.3 32s-6.5-2.9-6.5-6.5 2.9-6.6 6.5-6.6m0-.3c-3.8 0-6.9 3.1-6.9 6.9s3.1 6.9 6.9 6.9 6.9-3.1 6.9-6.9-3.1-6.9-6.9-6.9"/><path clip-path="url(#t)" fill="#393536" d="M69.3 18.9c3.6 0 6.6 2.9 6.6 6.6S73 32 69.3 32c-3.6 0-6.6-2.9-6.6-6.6s3-6.5 6.6-6.5m0-.3c-3.8 0-6.9 3.1-6.9 6.9 0 3.8 3.1 6.9 6.9 6.9 3.8 0 6.9-3.1 6.9-6.9 0-3.9-3.1-6.9-6.9-6.9"/><path clip-path="url(#t)" fill="#322E2F" d="M69.3 18.8c3.7 0 6.6 3 6.6 6.6s-3 6.6-6.6 6.6-6.6-3-6.6-6.6 3-6.6 6.6-6.6m0-.2c-3.8 0-6.9 3.1-6.9 6.9s3.1 6.9 6.9 6.9 6.9-3.1 6.9-6.9-3.1-6.9-6.9-6.9"/><path clip-path="url(#t)" fill="#2A2728" d="M69.3 18.8c3.7 0 6.7 3 6.7 6.7s-3 6.7-6.7 6.7-6.7-3-6.7-6.7 3-6.7 6.7-6.7m0-.2c-3.8 0-6.9 3.1-6.9 6.9s3.1 6.9 6.9 6.9c3.8 0 6.9-3.1 6.9-6.9s-3.1-6.9-6.9-6.9"/><path clip-path="url(#t)" fill="#231F20" d="M69.3 18.7c3.7 0 6.7 3 6.7 6.7s-3 6.7-6.7 6.7-6.7-3-6.7-6.7 3-6.7 6.7-6.7m0-.1c-3.8 0-6.9 3.1-6.9 6.9s3.1 6.9 6.9 6.9c3.8 0 6.9-3.1 6.9-6.9s-3.1-6.9-6.9-6.9"/><path fill="#F6F7F6" d="M75 25.4c0 3.1-2.6 5.7-5.7 5.7s-5.7-2.6-5.7-5.7 2.6-5.7 5.7-5.7c3.2 0 5.7 2.6 5.7 5.7"/><path fill="#F0F0F0" d="M69.3 20.6c-2.7 0-4.8 2.2-4.8 4.8s2.2 4.8 4.8 4.8 4.8-2.2 4.8-4.8-2.1-4.8-4.8-4.8m0 9.3c-2.5 0-4.5-2-4.5-4.5s2-4.5 4.5-4.5 4.5 2 4.5 4.5-2 4.5-4.5 4.5"/><defs><path id="u" d="M64.9 20.9h8.9v8.9h-8.9z"/></defs><clipPath id="v"><use xlink:href="#u" overflow="visible"/></clipPath><path clip-path="url(#v)" fill="#D3D4D4" d="M69.3 29.8c-1.2 0-2.3-.5-3.1-1.3-.8-.8-1.3-2-1.3-3.1 0-1.2.5-2.3 1.3-3.2.8-.8 2-1.3 3.2-1.3 1.2 0 2.4.5 3.2 1.3.8.8 1.3 2 1.3 3.2 0 1.2-.5 2.3-1.3 3.1-1 .9-2.1 1.3-3.3 1.3m0 0c1.2 0 2.3-.5 3.1-1.3.8-.8 1.3-2 1.3-3.1s-.5-2.3-1.3-3.1c-.8-.8-1.9-1.3-3.1-1.2-1.1 0-2.3.4-3.1 1.2-.8.8-1.3 1.9-1.3 3.1 0 1.1.4 2.3 1.3 3.1.8.8 2 1.3 3.1 1.3"/><defs><path id="w" d="M65.3 21.4h8v8h-8z"/></defs><clipPath id="x"><use xlink:href="#w" overflow="visible"/></clipPath><path clip-path="url(#x)" fill="#D3D4D4" d="M69.3 29.4c-1 0-2.1-.4-2.8-1.1-.8-.7-1.2-1.8-1.2-2.8 0-1.1.4-2.1 1.2-2.9.7-.8 1.8-1.2 2.9-1.2 1.1 0 2.1.5 2.9 1.2.7.8 1.2 1.8 1.2 2.9 0 1.1-.4 2.1-1.2 2.8-.9.7-1.9 1.1-3 1.1m0 0c1 0 2.1-.4 2.8-1.2.7-.7 1.1-1.8 1.1-2.8 0-1-.4-2-1.2-2.7-.7-.7-1.7-1.1-2.7-1.1-1 0-2 .4-2.7 1.1-.7.7-1.2 1.7-1.2 2.7 0 1 .4 2.1 1.1 2.8.8.8 1.8 1.2 2.8 1.2"/><path fill="#BEBFBE" d="M69.3 28.6c-1.7 0-3.1-1.4-3.1-3.1H66c0 1.8 1.5 3.3 3.3 3.3s3.3-1.5 3.3-3.3h-.2c.1 1.7-1.3 3.1-3.1 3.1"/><path fill="#929493" d="M69.3 22.2c-1.8 0-3.3 1.5-3.3 3.3h.2c0-1.7 1.4-3.1 3.1-3.1s3.1 1.4 3.1 3.1h.2c0-1.9-1.5-3.3-3.3-3.3"/><path fill="#DEDFDE" d="M72.5 25.5c0 1.8-1.4 3.2-3.2 3.2-1.8 0-3.2-1.4-3.2-3.2s1.4-3.2 3.2-3.2c1.8 0 3.2 1.4 3.2 3.2"/><path fill="#3B3F3C" d="M69.8 22.9c0 .1-.1.2-.2.2h-.5c-.1 0-.2-.1-.2-.2s.1-.2.2-.2h.5c.1 0 .2.1.2.2M67.8 23.4c.1.1.1.2 0 .2l-.4.4c-.1.1-.2.1-.2 0-.1-.1-.1-.2 0-.2l.4-.4c0-.1.1-.1.2 0M66.7 25.1c.1 0 .2.1.2.2v.5c0 .1-.1.2-.2.2s-.2-.1-.2-.2v-.5c0-.1.1-.2.2-.2M67.2 27.1c.1-.1.2-.1.2 0l.4.4c.1.1.1.2 0 .2-.1.1-.2.1-.2 0l-.4-.4c-.1-.1-.1-.2 0-.2M68.9 28.1c0-.1.1-.2.2-.2h.5c.1 0 .2.1.2.2s-.1.2-.2.2h-.5c-.1 0-.2-.1-.2-.2M70.9 27.7c-.1-.1-.1-.2 0-.2l.4-.4c.1-.1.2-.1.2 0s.1.2 0 .2l-.4.4h-.2M71.9 25.9c-.1 0-.2-.1-.2-.2v-.5c0-.1.1-.2.2-.2s.2.1.2.2v.5c0 .2-.1.2-.2.2M71.5 24c-.1.1-.2.1-.2 0l-.4-.4c-.1-.1-.1-.2 0-.2.1-.1.2-.1.2 0l.4.4c.1 0 .1.1 0 .2"/><path fill="#A8AAA8" d="M71.4 25.5c0 1.2-.9 2.1-2.1 2.1-1.2 0-2.1-.9-2.1-2.1 0-1.2.9-2.1 2.1-2.1 1.2 0 2.1 1 2.1 2.1"/><path fill="#A8AAA8" d="M70 25.5c0 .4-.3.7-.7.7-.4 0-.7-.3-.7-.7s.3-.7.7-.7c.4 0 .7.3.7.7"/><defs><path id="y" d="M68.5 25.5h1.6v.8h-1.6z"/></defs><clipPath id="z"><use xlink:href="#y" overflow="visible"/></clipPath><path clip-path="url(#z)" fill="#A8AAA8" d="M69.3 26.1c-.3 0-.6-.3-.6-.6h-.2c0 .4.4.8.8.8s.8-.4.8-.8h-.2c0 .3-.2.6-.6.6"/><defs><path id="A" d="M68.5 24.7h1.6v.8h-1.6z"/></defs><clipPath id="B"><use xlink:href="#A" overflow="visible"/></clipPath><path clip-path="url(#B)" fill="#A8AAA8" d="M69.3 24.7c-.4 0-.8.4-.8.8h.2c0-.3.3-.6.6-.6s.6.3.6.6h.2c0-.4-.3-.8-.8-.8"/><g opacity=".3"><defs><path id="C" d="M67.4 24.1h3.8v1.4h-3.8z"/></defs><clipPath id="D"><use xlink:href="#C" overflow="visible"/></clipPath><g clip-path="url(#D)"><defs><path id="E" d="M67.4 25.2h.9v.3h-.9z"/></defs><clipPath id="F"><use xlink:href="#E" overflow="visible"/></clipPath><path clip-path="url(#F)" fill="#676A67" d="M67.4 25.3c.3-.2.7-.1.9.2-.3 0-.5-.1-.9-.2"/></g><path clip-path="url(#D)" fill="#E9EAE9" d="M68 25c0-.3.2-.5.5-.7.3-.1.6-.2.9-.2-.3.1-.6.1-.8.3-.3.1-.5.4-.6.6"/><g clip-path="url(#D)"><defs><path id="G" d="M70.3 25.2h.9v.3h-.9z"/></defs><clipPath id="H"><use xlink:href="#G" overflow="visible"/></clipPath><path clip-path="url(#H)" fill="#676A67" d="M71.2 25.3c-.3.1-.6.2-.9.2.2-.3.6-.4.9-.2"/></g><path clip-path="url(#D)" fill="#E9EAE9" d="M70.7 25c-.1-.3-.3-.5-.5-.6-.2-.2-.5-.2-.8-.3.3-.1.6 0 .9.2.1.2.3.4.4.7"/></g><path fill="#5BB7D5" d="M56.2 25.3s1 0 1 1.8h2.3s1.4.1 1.6-1.1c.2-1.2 1.3-9.5 8.5-9.4 0 0 3.7-.1 7.1 4.3l1.9 2.9s0 .6.4.9c0 0 1.1-.1.5-1.7-.6-1.5-1.7-6-1.7-6s-.3-1.5-2.3-2c-2-.5-7.9-2.9-13.1.4-5.2 3.1-6.2 9.9-6.2 9.9"/><path fill="none" stroke="#80ACBE" stroke-width=".154" stroke-miterlimit="10" d="M34.1 2.2v23L55 25V12s-.1-.4-.6-1.1C54 10.3 51.2 6 51.2 6s-1.5-3.1-6.3-3.4-10.8-.4-10.8-.4z"/><path fill="#A1D6E7" d="M55.2 23.3c0 .1-.1.2-.2.2h-.3c-.1 0-.2-.1-.2-.2v-1.1c0-.1.1-.2.2-.2h.3c.1 0 .2.1.2.2v1.1z"/><path fill="#89CBE1" d="M55.3 23.3c0 .1-.1.2-.2.2h-.3c-.1 0-.2-.1-.2-.2v-1.1c0-.1.1-.2.2-.2h.3c.1 0 .2.1.2.2v1.1z"/><path fill="none" stroke="#80ACBE" stroke-width=".154" stroke-miterlimit="10" d="M55.3 23.3c0 .1-.1.2-.2.2h-.3c-.1 0-.2-.1-.2-.2v-1.1c0-.1.1-.2.2-.2h.3c.1 0 .2.1.2.2v1.1z"/><path fill="#89CBE1" d="M55.3 14.5c0 .1-.1.2-.2.2h-.3c-.1 0-.2-.1-.2-.2v-1.1c0-.1.1-.2.2-.2h.3c.1 0 .2.1.2.2v1.1z"/><path fill="none" stroke="#80ACBE" stroke-width=".154" stroke-miterlimit="10" d="M55.3 14.5c0 .1-.1.2-.2.2h-.3c-.1 0-.2-.1-.2-.2v-1.1c0-.1.1-.2.2-.2h.3c.1 0 .2.1.2.2v1.1z"/><path fill="none" stroke="#D0EAF3" stroke-width=".154" stroke-miterlimit="10" d="M16.1 13.5s9.3-1.3 12.7-1.3h5M34.4 12.3h19.5M55.4 12.3s9.6.3 11.9 1.3"/><path fill="#E5952E" d="M7.3 17l-.5-.2H5s-.4-.1-.7.5c-.1.2-.1.4-.2.7h2.4l.8-1z"/><path fill="#B52126" d="M4 19.8c.1.2.3.1.3.1H5L6.5 18H4.1c-.1.7-.2 1.6-.1 1.8"/><path fill="#5BB7D5" d="M.9 25.7s3.7.7 5.7-2 3.4-6.1 8.4-6.1 7.8 4.8 8 7.9c0 0 0 2 1.5 2 0 0 1 .1 1.2-.2 0 0 1-13.1-10.8-13.4 0 0-5.1.1-7.8 2.1 0 0-1.8 2.5-2.9 4.4-1 1.7-3.3 5.3-3.3 5.3"/><path fill="#D3D2D2" d="M25.7 25.5s-.5.2-.5 1.2 32.2.4 32.2.4.3-2-1.8-2c-2 0-29.9.4-29.9.4"/><g><defs><path id="I" d="M26.1 25.7h30.1v.5H26.1z"/></defs><clipPath id="J"><use xlink:href="#I" overflow="visible"/></clipPath><path clip-path="url(#J)" fill="#D3D2D2" d="M26.1 26.1c2.5-.2 5-.2 7.5-.2 2.5.1 5 .1 7.5 0 5-.2 10-.2 15.1 0-5 .3-10 .3-15.1.2-2.5-.1-5 0-7.5.1s-5 .1-7.5-.1z"/></g><path fill="#4F4C4D" d="M4.7 23.2c.2-.4.3-.9.4-1.1H.2.1v1.2h4.6z"/><g><defs><path id="K" d="M.1 21.9H5v.3H.1z"/></defs><clipPath id="L"><use xlink:href="#K" overflow="visible"/></clipPath><path clip-path="url(#L)" fill="#D3D2D2" d="M5 22.2l.1-.1c-.1-.1-.1-.2-.2-.2H.3c-.1 0-.2.1-.2.3H5z"/></g><path fill="#D3D2D2" d="M.4 23.5c-.1 0-.2-.1-.2-.3-.1 0-.1.1-.1.2s.1.3.2.3H4c.2 0 .4-.1.5-.3H.4z"/><path fill="#D3D2D2" d="M.4 23.5h4.1c.1-.1.1-.2.2-.3H.2.1c0 .2.1.3.3.3M4.9 21.5H.2c-.1 0-.2.1-.2.3 0 .1.1.2.1.2H5.1v-.1-.1c0-.2-.1-.3-.2-.3"/><g><defs><path id="M" d="M.2 23.2h4.4v.2H.2z"/></defs><clipPath id="N"><use xlink:href="#M" overflow="visible"/></clipPath><path clip-path="url(#N)" fill="#D3D2D2" d="M.2 23.2h4.4c-.7.1-1.5.1-2.2.1-.7 0-1.5 0-2.2-.1z"/></g><path fill="#4F4C4D" d="M78.8 23.5c-.2-.4-.3-.9-.4-1.1H81.3v1.2h-2.5z"/><g><defs><path id="O" d="M78.4 22.2h2.8v.3h-2.8z"/></defs><clipPath id="P"><use xlink:href="#O" overflow="visible"/></clipPath><path clip-path="url(#P)" fill="#D3D2D2" d="M78.5 22.5s0-.1 0 0l-.1-.1c0-.1.1-.1.2-.1H81c.1 0 .2.1.2.3h-2.7z"/></g><path fill="#D3D2D2" d="M81 23.7c.1 0 .2-.1.2-.3.1 0 .1.1.1.2s-.1.3-.2.3h-1.6c-.2 0-.4-.1-.5-.3h2z"/><path fill="#D3D2D2" d="M81 23.7h-2c-.1-.1-.1-.2-.2-.3h2.4c0 .2-.1.3-.2.3M78.6 21.8h2.5c.1 0 .2.1.2.3 0 .1-.1.2-.1.2H78.4h-.1v-.1-.1c.1-.2.2-.3.3-.3"/><g><defs><path id="Q" d="M78.9 23.4h2.2v.2h-2.2z"/></defs><clipPath id="R"><use xlink:href="#Q" overflow="visible"/></clipPath><path clip-path="url(#R)" fill="#D3D2D2" d="M81.1 23.5c-.4.1-.7.1-1.1.1-.4-.1-.7 0-1.1-.1.7-.1 1.5-.1 2.2 0z"/></g><path fill="#E5952E" d="M81.1 23c0 .1-.1.2-.2.2h-.8c-.1 0-.2-.1-.2-.2v-.2c0-.1.1-.2.2-.2h.8c.1 0 .2.1.2.2v.2z"/><path fill="#5BB7D5" d="M37.6 13H37c-.4 0-.6.3-.7.6.1-.2.3-.3.5-.3h.6c.4 0 .7.3.7.7v.4c.1-.1.1-.2.1-.4v-.4c0-.3-.3-.6-.6-.6"/><g><defs><path id="S" d="M36.3 14.1h1.9v.8h-1.9z"/></defs><clipPath id="T"><use xlink:href="#S" overflow="visible"/></clipPath><path clip-path="url(#T)" fill="#A1D6E7" d="M37.6 14.8H37c-.4 0-.7-.3-.7-.7v.1c0 .4.3.7.7.7h.6c.4 0 .7-.3.7-.7v-.1c-.1.4-.4.7-.7.7"/></g><path fill="#C1C4C0" d="M34.7 13.6v.4s.1.1.3.1c.2 0 1.1.1 1.3-.1 0 0 .7-.2 2-.1v.1s.8 0 .8-.2-.8-.3-1.2-.3h-2.8c0 .1-.4.1-.4.1"/><g><defs><path id="U" d="M35.7 13.6h3.1v.1h-3.1z"/></defs><clipPath id="V"><use xlink:href="#U" overflow="visible"/></clipPath><path clip-path="url(#V)" fill="#C1C4C0" d="M38.7 13.7h-3c1-.1 2 0 3 0"/></g><path fill="#AFC6D1" d="M33.5 4.5v5.4s0 1.3-1.3 1.3H20.6s-2.2.1-2-2c.2-2.1 4.7-3.9 4.7-3.9s4-1.8 9-1.8c.1 0 1.2.2 1.2 1"/><path fill="none" stroke="#7B7979" stroke-width=".463" stroke-miterlimit="10" d="M33.5 4.5v5.4s0 1.3-1.3 1.3H20.6s-2.2.1-2-2c.2-2.1 4.7-3.9 4.7-3.9s4-1.8 9-1.8c.1 0 1.2.2 1.2 1z"/><path fill="#AFC6D1" d="M35.1 4.7s.2-1 1.1-1c1 0 6.7.1 8.4.3 1.7.2 4.3.7 5.4 2 1.1 1.4 2.3 3.7 2.3 3.7s.5 1.4-.9 1.4H36.6s-1.4 0-1.4-1V4.7z"/><path fill="none" stroke="#7B7979" stroke-width=".463" stroke-miterlimit="10" d="M35.1 4.7s.2-1 1.1-1c1 0 6.7.1 8.4.3 1.7.2 4.3.7 5.4 2 1.1 1.4 2.3 3.7 2.3 3.7s.5 1.4-.9 1.4H36.6s-1.4 0-1.4-1V4.7zM45.5 4.1l1.5 7"/><path fill="#D3D2D2" d="M53.6 11.2c0 .2-.1.3-.3.3-.2 0-.3-.1-.3-.3 0-.2.1-.3.3-.3.1-.1.3.1.3.3"/><circle fill="none" stroke="#7B7979" stroke-width=".062" stroke-miterlimit="10" cx="53.2" cy="11.2" r=".3"/><path fill="none" stroke="#D3D2D2" stroke-width=".309" stroke-miterlimit="10" d="M53.4 11.1s.1-.9-.7-.9"/><path fill="#D3D2D2" d="M51.7 9v1.4s.1.6.5.7h.3s.2-.1.2-.4V9.5s0-.2-.2-.3l-.6-.3s-.2 0-.2.1"/><path fill="none" stroke="#7098AB" stroke-width=".062" stroke-miterlimit="10" d="M58.2 13.7V15s.1.7.5.7c.4-.1 2.5-.6 2.5-.6s.2-.1.2-.4v-1s0-.3-.3-.4c-.3-.1-2.4-.2-2.4-.2s-.5.1-.5.6zM55.8 9l-.2.9s0 .5.2.8l.7.7s.6.2 1 .2 2.7.1 2.7.1 8.1.7 10.1 1.9"/></svg>