<svg xmlns="http://www.w3.org/2000/svg" xmlns:xlink="http://www.w3.org/1999/xlink" width="51" height="75.6" viewBox="0 0 51 75.6"><g opacity=".5"><defs><path id="a" d="M19.4 68.1h11.9v6.7H19.4z"/></defs><clipPath id="b"><use xlink:href="#a" overflow="visible"/></clipPath><path clip-path="url(#b)" fill="#9E7E64" d="M31 72.8l-.9-.3-1 .3-.9-.3-.9.3-1-.3-.9.3-.9-.3-1 .3-.9-.3-.9.3-1-.3-.9.3-.4-.1v.2l.4.1.9-.3 1 .3.9-.3.9.3 1-.3.9.3.9-.3 1 .3.9-.3.9.3 1-.3.9.3.3-.1v-.2"/><path clip-path="url(#b)" fill="#9E7E64" d="M31 72.4l-.9-.3-1 .3-.9-.3-.9.3-1-.3-.9.3-.9-.3-1 .3-.9-.3-.9.3-1-.3-.9.3-.4-.1v.2l.4.1.9-.3 1 .3.9-.3.9.3 1-.3.9.3.9-.3 1 .3.9-.3.9.3 1-.3.9.3.3-.1v-.2M31 73.3l-.9-.3-1 .3-.9-.3-.9.3-1-.3-.9.3-.9-.3-1 .3-.9-.3-.9.3-1-.3-.9.3-.4-.1v.1l.4.2.9-.4 1 .4.9-.4.9.4 1-.4.9.4.9-.4 1 .4.9-.4.9.4 1-.4.9.4.3-.2v-.1M31 72l-.9-.4-1 .4-.9-.4-.9.4-1-.4-.9.4-.9-.4-1 .4-.9-.4-.9.4-1-.4-.9.4-.4-.2v.2l.4.1.9-.3 1 .3.9-.3.9.3 1-.3.9.3.9-.3 1 .3.9-.3.9.3 1-.3.9.3.3-.1v-.1M31.3 74.7v-.2l-.3.1-.9-.3-1 .3-.9-.3-.9.3-1-.3-.9.3-.9-.3-1 .3-.9-.3-.9.3-1-.3-.9.3-.4-.1v.2l.4.1.9-.3 1 .3.9-.3.9.3 1-.3.9.3.9-.3 1 .3.9-.3.9.3 1-.3.9.3M31 74.2l-.9-.3-1 .3-.9-.3-.9.3-1-.3-.9.3-.9-.3-1 .3-.9-.3-.9.3-1-.3-.9.3-.4-.1v.1l.4.1.9-.3 1 .3.9-.3.9.3 1-.3.9.3.9-.3 1 .3.9-.3.9.3 1-.3.9.3.3-.1v-.1"/><path clip-path="url(#b)" fill="#9E7E64" d="M31 73.7l-.9-.3-1 .3-.9-.3-.9.3-1-.3-.9.3-.9-.3-1 .3-.9-.3-.9.3-1-.3-.9.3-.4-.1v.2l.4.1.9-.3 1 .3.9-.3.9.3 1-.3.9.3.9-.3 1 .3.9-.3.9.3 1-.3.9.3.3-.1v-.2M31 68.4l-.9-.3-1 .3-.9-.3-.9.3-1-.3-.9.3-.9-.3-1 .3-.9-.3-.9.3-1-.3-.9.3-.4-.1v.2l.4.1.9-.3 1 .3.9-.3.9.3 1-.3.9.3.9-.3 1 .3.9-.3.9.3 1-.3.9.3.3-.1v-.2M31 69.7l-.9-.3-1 .3-.9-.3-.9.3-1-.3-.9.3-.9-.3-1 .3-.9-.3-.9.3-1-.3-.9.3-.4-.1v.2l.4.1.9-.3 1 .3.9-.3.9.3 1-.3.9.3.9-.3 1 .3.9-.3.9.3 1-.3.9.3.3-.1v-.2"/><path clip-path="url(#b)" fill="#9E7E64" d="M31 69.3l-.9-.3-1 .3-.9-.3-.9.3-1-.3-.9.3-.9-.3-1 .3-.9-.3-.9.3-1-.3-.9.3-.4-.1v.2l.4.1.9-.3 1 .3.9-.3.9.3 1-.3.9.3.9-.3 1 .3.9-.3.9.3 1-.3.9.3.3-.1v-.2M31 68.9l-.9-.4-1 .4-.9-.4-.9.4-1-.4-.9.4-.9-.4-1 .4-.9-.4-.9.4-1-.4-.9.4-.4-.2v.2l.4.1.9-.3 1 .3.9-.3.9.3 1-.3.9.3.9-.3 1 .3.9-.3.9.3 1-.3.9.3.3-.1v-.1M31 71.1l-.9-.3-1 .3-.9-.3-.9.3-1-.3-.9.3-.9-.3-1 .3-.9-.3-.9.3-1-.3-.9.3-.4-.1v.1l.4.1.9-.3 1 .3.9-.3.9.3 1-.3.9.3.9-.3 1 .3.9-.3.9.3 1-.3.9.3.3-.1V71M31 71.5l-.9-.3-1 .3-.9-.3-.9.3-1-.3-.9.3-.9-.3-1 .3-.9-.3-.9.3-1-.3-.9.3-.4-.1v.2l.4.1.9-.3 1 .3.9-.3.9.3 1-.3.9.3.9-.3 1 .3.9-.3.9.3 1-.3.9.3.3-.1v-.2M31 70.6l-.9-.3-1 .3-.9-.3-.9.3-1-.3-.9.3-.9-.3-1 .3-.9-.3-.9.3-1-.3-.9.3-.4-.1v.2l.4.1.9-.3 1 .3.9-.3.9.3 1-.3.9.3.9-.3 1 .3.9-.3.9.3 1-.3.9.3.3-.1v-.2"/><path clip-path="url(#b)" fill="#9E7E64" d="M31 70.2l-.9-.3-1 .3-.9-.3-.9.3-1-.3-.9.3-.9-.3-1 .3-.9-.3-.9.3-1-.3-.9.3-.4-.1v.1l.4.2.9-.4 1 .4.9-.4.9.4 1-.4.9.4.9-.4 1 .4.9-.4.9.4 1-.4.9.4.3-.2v-.1"/></g><path fill="none" stroke="#D3D2D2" stroke-width=".224" stroke-miterlimit="10" d="M18.1 55l2.5 6.5M19.6 55l1.5 6.5M21.1 61.5l-.9 6.1M20.6 61.5l-.9 6.1M32.8 55l-2.5 6.5M31.4 55l-1.6 6.5M29.8 61.5l1 6.1M30.3 61.5l1 6.1"/><path fill="#DDBF9A" d="M31.3 67.8v7.3c0 .3-.2.5-.5.5H19.9c-.3 0-.5-.2-.5-.5v-7.3h11.9z"/><defs><path id="c" d="M19.5 67.8h1.7v7.8h-1.7z"/></defs><clipPath id="d"><use xlink:href="#c" overflow="visible"/></clipPath><path clip-path="url(#d)" fill="#DDBF9A" d="M20.7 75.1v-7.3h-1.2v7.3c0 .3.2.5.5.5h1.2c-.3 0-.5-.2-.5-.5"/><path fill="#636B62" d="M31.8 67.6c0 .1-.1.2-.2.2H19.2c-.1 0-.2-.1-.2-.2s.1-.2.2-.2h12.3c.2-.1.3 0 .3.2"/><path fill="#D3D2D2" d="M20.2 61.1h10.4v.7H20.2zM22.6 59.2l.2 1.9h2.1l.2-1.9M25.5 59.2l.3 1.9h2.1l.2-1.9"/><path fill="#A7A5A6" d="M22.6 59.2l.2 1.9h.3l-.2-1.9M25.5 59.2l.3 1.9h.3l-.3-1.9"/><path fill="#444142" d="M22.9 61.8H25v1.4h-2.1z"/><path fill="#444142" d="M23 61.8h1.8v1.4H23z"/><defs><path id="e" d="M23.3 61.8h1v1.4h-1z"/></defs><clipPath id="f"><use xlink:href="#e" overflow="visible"/></clipPath><path clip-path="url(#f)" fill="#444142" d="M23.3 61.8h1v1.4h-1z"/><defs><path id="g" d="M23.6 61.8h.3v1.4h-.3z"/></defs><clipPath id="h"><use xlink:href="#g" overflow="visible"/></clipPath><path clip-path="url(#h)" fill="#444142" d="M23.6 61.8h.4v1.4h-.4z"/><path fill="#444142" d="M25.8 61.8h2.1v1.4h-2.1z"/><path fill="#444142" d="M25.9 61.8h1.9v1.4h-1.9z"/><defs><path id="i" d="M26.3 61.8h1v1.4h-1z"/></defs><clipPath id="j"><use xlink:href="#i" overflow="visible"/></clipPath><path clip-path="url(#j)" fill="#444142" d="M26.3 61.8h1v1.4h-1z"/><defs><path id="k" d="M26.5 61.8h.3v1.4h-.3z"/></defs><clipPath id="l"><use xlink:href="#k" overflow="visible"/></clipPath><path clip-path="url(#l)" fill="#444142" d="M26.5 61.8h.4v1.4h-.4z"/><path fill="#A82526" d="M18.3 53.3l-2.4-4.2c-2.4-4.3-4.8-8.8-6.9-13.4-2.7-5.7-5.9-12.3-4.6-19C6 8.3 11.7 2.6 18.6.8c2.1-.5 4.3-.8 6.5-.8-2.6 0-5.2.3-7.8.8C9 2.6 2.2 8.3.3 16.7c-1.5 6.7 2.3 13.3 5.5 19 2.5 4.6 5.3 9 8.2 13.4 1 1.4 1.9 2.8 2.9 4.2.2.3.7 1.3 1.1 1.3h1.2c-.3.1-.7-1-.9-1.3"/><defs><path id="m" d="M3.3 0H25v54.7H3.3z"/></defs><clipPath id="n"><use xlink:href="#m" overflow="visible"/></clipPath><path clip-path="url(#n)" fill="#A82526" d="M18.6.8c2.1-.5 4.3-.8 6.5-.8-1.4 0-2.8.1-4.2.2-1 .1-2 .3-3 .6-7 1.8-12.7 7.5-14.3 15.9-1.3 6.7 1.9 13.3 4.6 19 2.1 4.6 4.5 9 6.9 13.4l2.4 4.2c.2.3.6 1.3.9 1.3h.7c-.3 0-.7-1.1-.9-1.3l-2.4-4.2c-2.4-4.3-4.8-8.8-6.9-13.4C6.2 30 3 23.4 4.3 16.7 6 8.3 11.7 2.6 18.6.8"/><path fill="#C26767" d="M17.4 53.3L15 49.1c-.1-.2-.2-.3-.3-.5-2.8-4.2-5.5-8.5-7.9-12.9-3.2-5.7-7-12.3-5.5-19C3 9.5 8.2 4.3 14.8 1.8c1-.4 1.9-.8 3-1.1.3-.1.6-.1.9-.2-.3.1-.7.1-1 .2C9.3 2.6 2.5 8.3.6 16.7c-1.5 6.7 2.3 13.3 5.5 19 2.5 4.6 5.3 9 8.2 13.4 1 1.4 1.9 2.8 2.9 4.2.2.3.7 1.3 1.1 1.3-.3.1-.7-1-.9-1.3"/><path fill="#A82526" d="M50.6 16.7C48.7 8.3 41.9 2.6 33.7.8 31.1.3 28.5 0 25.9 0c2.2 0 4.4.3 6.5.8C39.3 2.6 45 8.3 46.6 16.7c1.3 6.7-1.9 13.3-4.6 19-2.1 4.6-4.5 9-6.9 13.4l-2.4 4.2c-.2.3-.6 1.3-.9 1.3H33c.4 0 .9-1.1 1.1-1.3 1-1.4 1.9-2.8 2.9-4.2 2.9-4.3 5.7-8.8 8.2-13.4 3.1-5.7 6.9-12.2 5.4-19"/><path fill="#ECC57C" d="M20.1 53.3l-1.8-4.2c-1.8-4.3-3.6-8.8-5.2-13.4-2-5.7-4.4-12.3-3.4-19C10.9 8.3 15.2 2.6 20.4.8c1.5-.5 3.1-.8 4.7-.8-2.2 0-4.4.3-6.5.8C11.7 2.6 6 8.3 4.4 16.7 3.1 23.5 6.3 30 9 35.7c2.1 4.6 4.5 9 6.9 13.4l2.4 4.2c.2.3.6 1.3.9 1.3h1.6c-.3.1-.6-1-.7-1.3"/><defs><path id="o" d="M8.9 0h16.2v54.7H8.9z"/></defs><clipPath id="p"><use xlink:href="#o" overflow="visible"/></clipPath><path clip-path="url(#p)" fill="#ECC57C" d="M20.3.8c1.6-.5 3.2-.8 4.8-.8-.6 0-1.2 0-1.8.1-1.2.1-2.4.3-3.5.8-5.2 1.8-9.5 7.5-10.7 15.9-1 6.7 1.5 13.3 3.5 19 1.6 4.6 3.4 9 5.2 13.4l1.8 4.2c.1.3.4 1.3.7 1.3h.5c-.3 0-.6-1.1-.7-1.3l-1.8-4.2c-1.8-4.3-3.6-8.8-5.2-13.4-2-5.7-4.4-12.3-3.4-19 1.1-8.5 5.4-14.2 10.6-16"/><path fill="#F2D6A3" d="M19.7 53.3l-2.4-4.2c-2.4-4.3-4.8-8.8-6.9-13.4-2.7-5.7-5.9-12.3-4.6-19C7.3 8.3 13.1 2.6 20 .8c1.3-.3 2.6-.6 3.9-.7-1.6.1-3.3.3-4.9.8C12.1 2.6 6.4 8.3 4.8 16.7c-1.3 6.7 1.9 13.3 4.6 19 2.1 4.6 4.5 9 6.9 13.4l2.4 4.2c.2.3.6 1.3.9 1.3h1.6s-.1 0-.1-.1h-.5c-.3.1-.7-.9-.9-1.2"/><path fill="#ECC57C" d="M32.6 53.3l2.4-4.2c2.4-4.3 4.8-8.8 6.9-13.4 2.7-5.7 5.9-12.3 4.6-19C45 8.3 39.3 2.6 32.4.8 30.2.3 28.1 0 25.9 0c1.6 0 3.2.3 4.8.8 5.2 1.8 9.5 7.5 10.7 15.9 1 6.7-1.5 13.3-3.5 19-1.6 4.6-3.4 9-5.2 13.4l-1.8 4.2c-.1.3-.4 1.3-.7 1.3h1.6c.3.1.7-1 .8-1.3"/><path fill="#A82526" d="M30.9 53.3l1.8-4.2c1.8-4.3 3.6-8.8 5.2-13.4 2-5.7 4.4-12.3 3.5-19C40.1 8.3 35.8 2.6 30.7.8 29.1.3 27.5 0 25.9 0c1 .1 2 .3 2.9.8 3.4 1.8 6.1 7.5 6.9 15.9.6 6.7-.9 13.3-2.2 19-1 4.6-2.2 9-3.4 13.4l-1.2 4.2c-.1.3-.3 1.3-.4 1.3h1.7c.2.1.5-1 .7-1.3M22 53.3l-1.2-4.2c-1.2-4.3-2.3-8.8-3.4-13.4-1.3-5.7-2.9-12.3-2.2-19C16 8.3 18.8 2.6 22.1.8 23.1.3 24 0 25 0c-1.6 0-3.2.3-4.8.8C15 2.6 10.7 8.3 9.5 16.7c-1 6.7 1.4 13.3 3.5 19 1.6 4.6 3.4 9 5.2 13.4l1.8 4.2c.1.3.4 1.3.7 1.3h1.6c0 .1-.2-1-.3-1.3"/><defs><path id="q" d="M14.7 0h10.4v54.7H14.7z"/></defs><clipPath id="r"><use xlink:href="#q" overflow="visible"/></clipPath><path clip-path="url(#r)" fill="#A82526" d="M22.1.8C23.1.3 24 0 25 0h-.8c-.8.1-1.7.3-2.5.8-3.4 1.8-6.1 7.5-6.9 15.9-.6 6.7.9 13.3 2.2 19 1 4.6 2.2 9 3.4 13.4l1.2 4.2c.1.3.3 1.3.4 1.3h.4c-.2 0-.4-1.1-.4-1.3l-1.2-4.2c-1.2-4.3-2.3-8.8-3.4-13.4-1.3-5.7-2.9-12.3-2.2-19C16 8.3 18.8 2.6 22.1.8"/><path fill="#B95151" d="M21.6 53.3c-.1-.5-.3-.9-.4-1.4-.4-1-.8-1.9-1.2-2.9-1.8-4.3-3.6-8.8-5.2-13.4-2-5.7-4.4-12.3-3.5-19 1.1-7.9 5-13.5 9.9-15.6.2-.1.3-.2.5-.3.5-.3 1.1-.5 1.6-.6-.8.1-1.7.3-2.5.6-5.2 1.8-9.5 7.5-10.7 15.9-1 6.7 1.5 13.3 3.5 19 1.6 4.6 3.4 9 5.2 13.4l1.8 4.2c.1.3.4 1.3.7 1.3h.7c-.1.2-.3-.9-.4-1.2"/><path fill="#ECC57C" d="M29 53.3l1.2-4.2c1.2-4.3 2.3-8.8 3.4-13.4 1.3-5.7 2.9-12.3 2.2-19-.8-8.4-3.6-14.1-7-15.9-1-.5-1.9-.8-2.9-.8.3.1.6.3.9.7 1.3 1.8 2.4 7.5 2.6 15.9.2 6.7-.4 13.3-.9 19-.4 4.6-.8 9-1.3 13.4-.1 1.4-.3 2.8-.5 4.2 0 .3-.1 1.3-.2 1.3h-2.4c-.1 0-.1-1.1-.2-1.3-.2-1.4-.3-2.8-.5-4.2-.5-4.3-.9-8.8-1.3-13.4-.5-5.7-1.1-12.3-.9-19 .3-8.4 1.4-14.1 2.6-15.9.3-.4.6-.6.9-.7-1 .1-2 .3-2.9.8-3.4 1.8-6.1 7.5-6.9 15.9-.6 6.7.9 13.3 2.2 19 1 4.6 2.2 9 3.4 13.4l1.2 4.2c.1.3.3 1.3.4 1.3h6.4c.2.1.4-1 .5-1.3"/><path fill="#F2D6A3" d="M24.2 54.7l-.2-.1c-.1 0-.1-1.1-.2-1.3v-.2c-.4-1.3-.7-2.6-1.1-3.9-1.2-4.3-2.3-8.8-3.4-13.4-1.3-5.7-2.9-12.3-2.2-19C17.8 8.6 20.5 3 23.7 1c.1-.1.1-.2.2-.2.2-.2.3-.4.5-.5-.6.1-1.2.3-1.8.7-3.4 1.8-6.1 7.5-6.9 15.9-.6 6.7.9 13.3 2.2 19 1 4.6 2.2 9 3.4 13.4l1.2 4.2c.1.2.2 1 .4 1.3h1.3z"/><path fill="#A82526" d="M25.5 0h-.4.4M25.9 0h-.4.4M25.1 0h.4-.4M25.9 0h-.4.4M25.1 0h.4-.4M25.9 0h-.4.4M25.1 0c-.3.1-.6.3-.9.7-1.3 1.8-2.4 7.5-2.6 15.9-.2 6.7.4 13.3.9 19 .4 4.6.8 9 1.3 13.4.1 1.4.3 2.8.5 4.2 0 .3.1 1.3.2 1.3h2.4c.1 0 .1-1.1.2-1.3.2-1.4.3-2.8.5-4.2.5-4.3.9-8.8 1.3-13.4.5-5.7 1.1-12.3.9-19-.3-8.4-1.4-14.1-2.6-15.9-.3-.4-.6-.6-.9-.7H25.1"/><path fill="#B95151" d="M24.7 49c-.5-4.3-.9-8.8-1.3-13.4-.5-5.7-1.1-12.3-.9-19 .3-8.4 1.4-14.1 2.6-15.9.2-.3.4-.5.6-.6-.1-.1-.2-.1-.2-.1-.3.1-.5.3-.8.7-1.3 1.8-2.4 7.5-2.6 15.9-.2 6.7.4 13.3.9 19 .4 4.6.8 9 1.3 13.4.1 1.4.3 2.8.5 4.2 0 .3.1 1.3.2 1.3h.5c-.1 0-.1-1.1-.2-1.3-.3-1.3-.5-2.8-.6-4.2"/><defs><path id="s" d="M25.8 0h3.7v54.6h-3.7z"/></defs><clipPath id="t"><use xlink:href="#s" overflow="visible"/></clipPath><path clip-path="url(#t)" fill="#B95151" d="M26.8 49c.5-4.3.9-8.8 1.3-13.4.5-5.7 1.1-12.3.9-19-.3-8.4-1.4-14.1-2.6-15.9-.2-.3-.4-.5-.6-.6 0 0 .1 0 .2-.1.3.1.5.3.8.7 1.3 1.8 2.4 7.5 2.6 15.9.2 6.7-.4 13.3-.9 19-.4 4.6-.8 9-1.3 13.4-.1 1.4-.3 2.8-.5 4.2 0 .3-.1 1.3-.2 1.3H26c.1 0 .1-1.1.2-1.3.3-1.3.5-2.8.6-4.2"/><path fill="#A82526" d="M33.3 54.9c0 .2-.2.4-.4.4H18.1c-.2 0-.4-.2-.4-.4s.2-.4.4-.4h14.8c.2 0 .4.2.4.4"/><path fill="#AF3637" d="M32.4 54.9c0 .2-.2.4-.4.4H19c-.2 0-.4-.2-.4-.4s.2-.4.4-.4h13c.2 0 .4.2.4.4"/><path fill="#BE5C5C" d="M28.9 54.9c0 .2-.1.4-.3.4h-8.5c-.1 0-.3-.2-.3-.4s.1-.4.3-.4h8.5c.2 0 .3.2.3.4"/><path fill="#D39293" d="M25.2 54.9c0 .2 0 .4-.1.4h-3.6c-.1 0-.1-.2-.1-.4s0-.4.1-.4h3.6c.1 0 .1.2.1.4"/><g><defs><path id="u" d="M17.6 54.5h15.7v.5H17.6z"/></defs><clipPath id="v"><use xlink:href="#u" overflow="visible"/></clipPath><path clip-path="url(#v)" fill="#A82526" d="M18.1 54.7h14.8c.2 0 .4.2.4.4V55c0-.2-.2-.4-.4-.4H18.1c-.2 0-.4.2-.4.4v.1c0-.3.2-.4.4-.4"/></g><path fill="#9E7E64" d="M31 72.9l-.9-.3-1 .3-.9-.3-.9.3-1-.3-.9.3-.9-.3-1 .3-.9-.3-.9.3-1-.3-.9.3-.4-.1v.1l.4.2.9-.4 1 .4.9-.4.9.4 1-.4.9.4.9-.4 1 .4.9-.4.9.4 1-.4.9.4.3-.2v-.1M31 72.4l-.9-.3-1 .3-.9-.3-.9.3-1-.3-.9.3-.9-.3-1 .3-.9-.3-.9.3-1-.3-.9.3-.4-.1v.2l.4.1.9-.3 1 .3.9-.3.9.3 1-.3.9.3.9-.3 1 .3.9-.3.9.3 1-.3.9.3.3-.1v-.2"/><path fill="#9E7E64" d="M31 73.3l-.9-.3-1 .3-.9-.3-.9.3-1-.3-.9.3-.9-.3-1 .3-.9-.3-.9.3-1-.3-.9.3-.4-.1v.2l.4.1.9-.3 1 .3.9-.3.9.3 1-.3.9.3.9-.3 1 .3.9-.3.9.3 1-.3.9.3.3-.1v-.2M31 72l-.9-.3-1 .3-.9-.3-.9.3-1-.3-.9.3-.9-.3-1 .3-.9-.3-.9.3-1-.3-.9.3-.4-.1v.2l.4.1.9-.3 1 .3.9-.3.9.3 1-.3.9.3.9-.3 1 .3.9-.3.9.3 1-.3.9.3.3-.1v-.2M31.3 74.7v-.2l-.3.2-.9-.4-1 .4-.9-.4-.9.4-1-.4-.9.4-.9-.4-1 .4-.9-.4-.9.4-1-.4-.9.4-.4-.2v.2l.4.1.9-.3 1 .3.9-.3.9.3 1-.3.9.3.9-.3 1 .3.9-.3.9.3 1-.3.9.3"/><path fill="#9E7E64" d="M31 74.2l-.9-.3-1 .3-.9-.3-.9.3-1-.3-.9.3-.9-.3-1 .3-.9-.3-.9.3-1-.3-.9.3-.4-.1v.2l.4.1.9-.3 1 .3.9-.3.9.3 1-.3.9.3.9-.3 1 .3.9-.3.9.3 1-.3.9.3.3-.1v-.2M31 73.8l-.9-.3-1 .3-.9-.3-.9.3-1-.3-.9.3-.9-.3-1 .3-.9-.3-.9.3-1-.3-.9.3-.4-.1v.1l.4.1.9-.3 1 .3.9-.3.9.3 1-.3.9.3.9-.3 1 .3.9-.3.9.3 1-.3.9.3.3-.1v-.1M31 68.5l-.9-.4-1 .4-.9-.4-.9.4-1-.4-.9.4-.9-.4-1 .4-.9-.4-.9.4-1-.4-.9.4-.4-.2v.2l.4.1.9-.3 1 .3.9-.3.9.3 1-.3.9.3.9-.3 1 .3.9-.3.9.3 1-.3.9.3.3-.1v-.2M31 69.8l-.9-.3-1 .3-.9-.3-.9.3-1-.3-.9.3-.9-.3-1 .3-.9-.3-.9.3-1-.3-.9.3-.4-.1v.1l.4.2.9-.4 1 .4.9-.4.9.4 1-.4.9.4.9-.4 1 .4.9-.4.9.4 1-.4.9.4.3-.2v-.1M31 69.3l-.9-.3-1 .3-.9-.3-.9.3-1-.3-.9.3-.9-.3-1 .3-.9-.3-.9.3-1-.3-.9.3-.4-.1v.2l.4.1.9-.3 1 .3.9-.3.9.3 1-.3.9.3.9-.3 1 .3.9-.3.9.3 1-.3.9.3.3-.1v-.2"/><path fill="#9E7E64" d="M31 68.9l-.9-.3-1 .3-.9-.3-.9.3-1-.3-.9.3-.9-.3-1 .3-.9-.3-.9.3-1-.3-.9.3-.4-.1v.2l.4.1.9-.3 1 .3.9-.3.9.3 1-.3.9.3.9-.3 1 .3.9-.3.9.3 1-.3.9.3.3-.1v-.2M31 71.1l-.9-.3-1 .3-.9-.3-.9.3-1-.3-.9.3-.9-.3-1 .3-.9-.3-.9.3-1-.3-.9.3-.4-.1v.2l.4.1.9-.3 1 .3.9-.3.9.3 1-.3.9.3.9-.3 1 .3.9-.3.9.3 1-.3.9.3.3-.1V71"/><path fill="#9E7E64" d="M31 71.6l-.9-.4-1 .4-.9-.4-.9.4-1-.4-.9.4-.9-.4-1 .4-.9-.4-.9.4-1-.4-.9.4-.4-.2v.2l.4.1.9-.3 1 .3.9-.3.9.3 1-.3.9.3.9-.3 1 .3.9-.3.9.3 1-.3.9.3.3-.1v-.2M31 70.7l-.9-.3-1 .3-.9-.3-.9.3-1-.3-.9.3-.9-.3-1 .3-.9-.3-.9.3-1-.3-.9.3-.4-.1v.1l.4.1.9-.3 1 .3.9-.3.9.3 1-.3.9.3.9-.3 1 .3.9-.3.9.3 1-.3.9.3.3-.1v-.1M31 70.2l-.9-.3-1 .3-.9-.3-.9.3-1-.3-.9.3-.9-.3-1 .3-.9-.3-.9.3-1-.3-.9.3-.4-.1v.2l.4.1.9-.3 1 .3.9-.3.9.3 1-.3.9.3.9-.3 1 .3.9-.3.9.3 1-.3.9.3.3-.1v-.2"/><g opacity=".5"><defs><path id="w" d="M20.1 75.2h10.7v.3H20.1z"/></defs><clipPath id="x"><use xlink:href="#w" overflow="visible"/></clipPath><path clip-path="url(#x)" fill="#9E7E64" d="M20.1 75.5c.9-.1 1.8-.2 2.7-.2.9 0 1.8 0 2.7-.1.9 0 1.8 0 2.7.1.9 0 1.8.1 2.7.2-3.7.1-7.3.1-10.8 0z"/></g></svg>