<svg xmlns="http://www.w3.org/2000/svg" xmlns:xlink="http://www.w3.org/1999/xlink" width="35.1" height="59.4" viewBox="0 0 35.1 59.4"><path fill="#B69C5B" d="M25.3 53.2v-7.3c-1-2.4-7.7-2.1-7.7-2.1s-6.8-.3-7.7 2.1v7.3S9.8 54.6 12 56s2.3 2.1 2.3 2.1.3 1.2 3.3 1.2 3.3-1.2 3.3-1.2.1-.8 2.3-2.1c2.2-1.3 2.1-2.8 2.1-2.8"/><path fill="#252A26" d="M20.9 57.5s-.3.8-3.3.8-3.3-.8-3.3-.8-.1-.4-1.9-1.2c1.8 1.2 1.9 1.8 1.9 1.8s.3 1.2 3.3 1.2 3.3-1.2 3.3-1.2.1-.6 1.9-1.8c-1.8.8-1.9 1.2-1.9 1.2"/><defs><path id="a" d="M9.9 43.8h15.5v15.6H9.9z"/></defs><clipPath id="b"><use xlink:href="#a" overflow="visible"/></clipPath><path clip-path="url(#b)" fill="#B69C5B" d="M14.8 58.2s-.1-.8-2-2.1c-1.9-1.4-1.8-2.8-1.8-2.8V46c.7-1.9 4.5-2.1 5.9-2.2-1.7 0-6.4.2-7.2 2.2v7.3s-.1 1.4 2.1 2.8 2.3 2.1 2.3 2.1.3 1.2 3.3 1.2c-2.3 0-2.6-1.2-2.6-1.2M25.3 53.2v-7.3c-.8-2-5.5-2.2-7.2-2.2 1.5 0 5.3.2 5.9 2.2v7.3s.1 1.4-1.8 2.8c-1.9 1.4-2 2.1-2 2.1s-.2 1.2-2.8 1.2c3 0 3.3-1.2 3.3-1.2s.1-.8 2.3-2.1c2.4-1.3 2.3-2.8 2.3-2.8"/><g opacity=".9"><defs><path id="c" d="M.2.1h34.9v47.4H.2z"/></defs><clipPath id="d"><use xlink:href="#c" overflow="visible"/></clipPath><path clip-path="url(#d)" fill="#E8E9E8" d="M34.7 20.9c.2-1 .3-2 .3-3.1v-.3C35 7.9 27.2.1 17.6.1S.2 7.9.2 17.5v.3c0 1.1.1 2.1.3 3.1.5 2.7 1.5 6.6 4.1 10.3C8.6 36.8 8 43.7 8 43.7s-.2 3.7 9.6 3.7c9.8 0 9.6-3.7 9.6-3.7s-.6-6.9 3.4-12.6c2.6-3.6 3.7-7.5 4.1-10.2"/></g><g opacity=".3"><defs><path id="e" d="M.1 0h35v47.5H.1z"/></defs><clipPath id="f"><use xlink:href="#e" overflow="visible"/></clipPath><path clip-path="url(#f)" fill="#828981" d="M34.7 20.9c.5-2.7.4-5.5-.4-8.2-.8-2.7-2.2-5.1-4.1-7.1-1.9-2-4.3-3.6-6.9-4.5-2.6-.9-5.4-1.2-8.1-.8C9.8 1 4.8 4.5 2.3 9.4c-1.3 2.4-2 5.2-2 7.9 0 1.4.1 2.7.4 4.1.3 1.3.6 2.7 1.1 4 .5 1.3 1 2.6 1.7 3.8.6 1.2 1.5 2.3 2.2 3.5C7 35 7.8 37.8 8 40.5c.1.7.1 1.4.1 2.1v1c0 .3.1.7.3.9.7 1.2 2.1 1.8 3.4 2.1 2.7.7 5.5.7 8.2.6 1.4-.1 2.7-.3 4.1-.7.7-.2 1.3-.5 1.8-.9.6-.4 1-.9 1.2-1.6.1-.3 0-.7 0-1v-1c0-.7.1-1.4.2-2.1.2-1.4.5-2.7.9-4s1-2.6 1.7-3.8c.4-.6.8-1.2 1.1-1.7.4-.6.7-1.2 1.1-1.8 1.3-2.3 2.2-5 2.6-7.7m0 0c-.5 2.7-1.3 5.4-2.6 7.8-.3.6-.7 1.2-1 1.8-.4.6-.8 1.1-1.1 1.7-.7 1.2-1.3 2.5-1.7 3.8-.4 1.3-.7 2.7-.9 4-.1.7-.1 1.4-.2 2.1v1c0 .3.1.7 0 1-.2.7-.7 1.2-1.3 1.6-.6.4-1.2.7-1.9.9-1.3.4-2.7.6-4.1.7-2.8.2-5.6.1-8.3-.6-1.3-.4-2.7-1-3.5-2.2-.2-.3-.3-.7-.3-1v-1c0-.7 0-1.4-.1-2.1-.3-2.7-1-5.4-2.4-7.8-.7-1.2-1.5-2.3-2.2-3.5-.5-1.1-1.1-2.4-1.5-3.7-.5-1.3-.8-2.6-1.1-4-.3-1.4-.4-2.7-.4-4.1 0-2.8.7-5.5 2.1-8C4.8 4.4 9.8.8 15.4.2c2.6-.4 5.5-.1 8.1.8 2.6.9 5 2.5 6.9 4.5 1.9 2 3.3 4.5 4.1 7.1.7 2.7.8 5.6.2 8.3"/></g><g opacity=".5"><defs><path id="g" d="M0 .1h34.9v47.4H0z"/></defs><clipPath id="h"><use xlink:href="#g" overflow="visible"/></clipPath><g opacity=".9" clip-path="url(#h)"><defs><path id="i" d="M0 .1h17.4v47.4H0z"/></defs><clipPath id="j"><use xlink:href="#i" overflow="visible"/></clipPath><path clip-path="url(#j)" fill="#D8DAD8" d="M8.8 43.7s.5-6.9-3-12.6c-2.3-3.7-3.3-7.6-3.7-10.3-.2-1-.3-2-.3-3.1v-.3C1.8 7.8 8.8 0 17.5 0 7.8.1 0 7.9 0 17.5v.3c0 1.1.1 2.1.3 3.1.5 2.7 1.5 6.6 4.1 10.3 4 5.7 3.4 12.6 3.4 12.6s-.2 3.7 9.6 3.7c-8.8 0-8.6-3.8-8.6-3.8"/></g><g opacity=".9" clip-path="url(#h)"><defs><path id="k" d="M17.4.1h17.5v47.4H17.4z"/></defs><clipPath id="l"><use xlink:href="#k" overflow="visible"/></clipPath><path clip-path="url(#l)" fill="#D8DAD8" d="M34.9 17.5C34.9 7.9 27.1.1 17.5.1c8.7 0 15.7 7.8 15.7 17.4v.3c0 1.1-.1 2.1-.3 3.1-.4 2.7-1.4 6.6-3.7 10.3-3.6 5.7-3 12.6-3 12.6s.2 3.7-8.6 3.7c9.8 0 9.6-3.7 9.6-3.7s-.6-6.9 3.4-12.6c2.6-3.7 3.7-7.6 4.1-10.3.2-1 .3-2 .3-3.1-.1-.2-.1-.3-.1-.3"/></g><g opacity=".9" clip-path="url(#h)"><defs><path id="m" d="M17.4.1h15.7v47.4H17.4z"/></defs><clipPath id="n"><use xlink:href="#m" overflow="visible"/></clipPath><path clip-path="url(#n)" fill="#E8E9E8" d="M26 43.7s-.5-6.9 3-12.6c2.3-3.7 3.3-7.6 3.7-10.3.2-1 .3-2 .3-3.1v-.3C33 7.8 26 0 17.3 0c8.2 0 14.9 7.8 14.9 17.4v.3c0 1.1-.1 2.1-.3 3.1-.4 2.7-1.3 6.6-3.5 10.3-3.4 5.7-2.9 12.6-2.9 12.6s.2 3.7-8.2 3.7c8.9.1 8.7-3.7 8.7-3.7"/></g><g opacity=".9" clip-path="url(#h)"><defs><path id="o" d="M17.4.1h15.7v47.4H17.4z"/></defs><clipPath id="p"><use xlink:href="#o" overflow="visible"/></clipPath><path clip-path="url(#p)" fill="#F7F8F7" d="M26 43.7s-.5-6.9 3-12.6c2.3-3.7 3.3-7.6 3.7-10.3.2-1 .3-2 .3-3.1v-.3C33 7.8 26 0 17.3 0c8.2 0 14.9 7.8 14.9 17.4v.3c0 1.1-.1 2.1-.3 3.1-.4 2.7-1.3 6.6-3.5 10.3-3.4 5.7-2.9 12.6-2.9 12.6s.2 3.7-8.2 3.7c8.9.1 8.7-3.7 8.7-3.7"/></g><g opacity=".9" clip-path="url(#h)"><defs><path id="q" d="M1.8.1h15.7v47.4H1.8z"/></defs><clipPath id="r"><use xlink:href="#q" overflow="visible"/></clipPath><path clip-path="url(#r)" fill="#E8E9E8" d="M9.3 43.7s.5-6.9-2.9-12.6c-2.2-3.7-3.1-7.6-3.5-10.3-.2-1-.3-2-.3-3.1v-.3C2.6 7.8 9.3 0 17.5 0 8.8.1 1.8 7.9 1.8 17.5v.3c0 1.1.1 2.1.3 3.1.4 2.7 1.4 6.6 3.7 10.3 3.6 5.7 3 12.6 3 12.6s-.2 3.7 8.6 3.7c-8.3 0-8.1-3.8-8.1-3.8"/></g><g opacity=".9" clip-path="url(#h)"><defs><path id="s" d="M1.8.1h15.7v47.4H1.8z"/></defs><clipPath id="t"><use xlink:href="#s" overflow="visible"/></clipPath><path clip-path="url(#t)" fill="#F7F8F7" d="M9.3 43.7s.5-6.9-2.9-12.6c-2.2-3.7-3.1-7.6-3.5-10.3-.2-1-.3-2-.3-3.1v-.3C2.6 7.8 9.3 0 17.5 0 8.8.1 1.8 7.9 1.8 17.5v.3c0 1.1.1 2.1.3 3.1.4 2.7 1.4 6.6 3.7 10.3 3.6 5.7 3 12.6 3 12.6s-.2 3.7 8.6 3.7c-8.3 0-8.1-3.8-8.1-3.8"/></g></g><path fill="#72583C" d="M25.2 47.5c0 .4-.2.7-.4.9-.2.3-.5.5-.8.7-.6.4-1.2.7-1.9.9-1.3.5-2.7.7-4.1.8-1.4 0-2.7 0-4.1-.1-.7-.1-1.4-.2-2-.3-.3-.1-.7-.2-1-.4-.3-.1-.7-.4-.6-.8.1.4.4.5.7.6.3.1.6.1 1 .1h6.1c1.3 0 2.6-.2 3.9-.5.6-.2 1.3-.4 1.9-.6.3-.1.6-.3.9-.5.1-.3.4-.5.4-.8"/><path fill="#72583C" d="M25 49.8c0 .4-.2.7-.4.9-.2.3-.5.5-.8.7-.6.4-1.2.7-1.9.9-1.3.5-2.7.7-4.1.8-1.4 0-2.7 0-4.1-.1-.7-.1-1.4-.2-2-.3-.3-.1-.7-.2-1-.4-.3-.1-.7-.4-.6-.8.1.4.4.5.7.6.3.1.6.1 1 .1h6.1c1.3 0 2.6-.2 3.9-.5.6-.2 1.3-.4 1.9-.6.3-.1.6-.3.9-.5.1-.2.4-.4.4-.8"/><path fill="#72583C" d="M25 52.2c0 .4-.2.7-.4.9-.2.3-.5.5-.8.7-.6.4-1.2.7-1.9.9-1.3.5-2.7.7-4.1.8-1.4 0-2.7 0-4.1-.1-.7-.1-1.4-.2-2-.3-.3-.1-.7-.2-1-.4-.3-.1-.7-.4-.6-.8.1.4.4.5.7.6.3.1.6.1 1 .1h6.1c1.3 0 2.6-.2 3.9-.5.6-.2 1.3-.4 1.9-.6.3-.1.6-.3.9-.5.1-.3.4-.5.4-.8"/><defs><path id="u" d="M10.2 47.5h15v2.6h-15z"/></defs><clipPath id="v"><use xlink:href="#u" overflow="visible"/></clipPath><path clip-path="url(#v)" fill="#72583C" d="M25.2 47.5c0 .3-.3.6-.5.8-.3.2-.6.4-.9.5-.6.3-1.3.5-1.9.7-1.3.3-2.7.5-4 .5h-4c-.7 0-1.3 0-2-.1-.3 0-.7-.1-1-.2-.3-.1-.7-.3-.7-.7 0 .4.4.5.7.5.3.1.7.1 1 .1.7 0 1.3 0 2-.1 1.3-.1 2.7-.1 4-.1 1.3 0 2.6-.1 3.9-.4.6-.1 1.3-.3 1.9-.5.3-.1.6-.3.9-.4.3-.1.6-.3.6-.6"/><defs><path id="w" d="M10 49.8h15v2.6H10z"/></defs><clipPath id="x"><use xlink:href="#w" overflow="visible"/></clipPath><path clip-path="url(#x)" fill="#72583C" d="M25 49.8c0 .3-.3.6-.5.8-.3.2-.6.4-.9.5-.6.3-1.3.5-1.9.7-1.3.3-2.7.5-4 .5h-4c-.7 0-1.3 0-2-.1-.3 0-.7-.1-1-.2-.3-.1-.7-.3-.7-.7 0 .4.4.5.7.5.3.1.7.1 1 .1.7 0 1.3 0 2-.1 1.3-.1 2.7-.1 4-.1 1.3 0 2.6-.1 3.9-.4.6-.1 1.3-.3 1.9-.5.3-.1.6-.3.9-.4.3 0 .6-.2.6-.6"/><defs><path id="y" d="M10 52.2h15v2.6H10z"/></defs><clipPath id="z"><use xlink:href="#y" overflow="visible"/></clipPath><path clip-path="url(#z)" fill="#72583C" d="M25 52.2c0 .3-.3.6-.5.8-.3.2-.6.4-.9.5-.6.3-1.3.5-1.9.7-1.3.3-2.7.5-4 .5h-4c-.7 0-1.3 0-2-.1-.3 0-.7-.1-1-.2-.3-.1-.7-.3-.7-.7 0 .4.4.5.7.5.3.1.7.1 1 .1.7 0 1.3 0 2-.1 1.3-.1 2.7-.1 4-.1 1.3 0 2.6-.1 3.9-.4.6-.1 1.3-.3 1.9-.5.3-.1.6-.3.9-.4.3-.1.6-.3.6-.6"/><path fill="#D3D4D4" d="M19.6 39.1s-.5-1 .5-2.2c1-1.2.1-4.9-2.6-5-2.8 0-3.6 3.8-2.6 5 1 1.2.5 2.2.5 2.2l-1 1.7v5.9l.4.1V41l.9-1.7s.4-1-.4-2.2c-.8-1.2-.1-4.9 2.3-5 2.4 0 3.1 3.8 2.3 5-.8 1.2-.4 2.2-.4 2.2l.9 1.7v5.8l.4-.1v-5.9l-1.2-1.7z"/><path fill="#E7E8E7" d="M19.4 39.1s-.4-1 .4-2.2c.9-1.2.1-4.9-2.4-5-2.5 0-3.3 3.8-2.4 5 .9 1.2.4 2.2.4 2.2l-.9 1.7v5.9l.4.1V41l.8-1.7s.4-1-.4-2.2c-.8-1.2-.1-4.9 2.1-5 2.2 0 2.8 3.8 2.1 5-.8 1.2-.4 2.2-.4 2.2l.8 1.7v5.8l.4-.1v-5.9l-.9-1.7z"/><path fill="none" stroke="#5C5F5C" stroke-width=".111" stroke-miterlimit="10" d="M15.2 46.8s1.2-5.5.8-7.9c-.4-2.4-.7-5.3-.6-5.6s-2-10.7-2-10.7"/><path fill="#5C5F5C" d="M13.6 22.7c0 .1 0 .2-.1.2s-.2 0-.2-.1l-.5-2.2c0-.1 0-.2.1-.2s.2 0 .2.1l.5 2.2z"/><path fill="none" stroke="#5C5F5C" stroke-width=".237" stroke-miterlimit="10" d="M12.2 20.9l.8-.2"/><path fill="none" stroke="#5C5F5C" stroke-width=".111" stroke-miterlimit="10" d="M19.7 46.8s-1.2-5.5-.8-7.9c.4-2.4.7-5.3.6-5.6s2-10.7 2-10.7"/><path fill="#5C5F5C" d="M21.3 22.7c0 .1 0 .2.1.2s.2 0 .2-.1l.5-2.2c0-.1 0-.2-.1-.2s-.2 0-.2.1l-.5 2.2z"/><path fill="none" stroke="#5C5F5C" stroke-width=".237" stroke-miterlimit="10" d="M22.7 20.9l-.8-.2"/><path fill="none" stroke="#EFDD85" stroke-width=".101" stroke-miterlimit="10" d="M13 20.7l.3.4.3-.4.3.4.3-.4.3.4.3-.4.3.4.3-.4.3.4.3-.4.3.4.3-.4.2.4.3-.4.3.4.3-.4.3.4.3-.4.3.4.3-.4.3.4.3-.4.3.4.3-.4.3.4.3-.4.3.4.3-.4.3.4.3-.4"/><g><defs><path id="A" d="M3 5.7h28.9v29H3z"/></defs><clipPath id="B"><use xlink:href="#A" overflow="visible"/></clipPath><g opacity=".2" clip-path="url(#B)"><defs><path id="E" d="M5.1 7.9h24.7v24.7H5.1z"/></defs><clipPath id="F"><use xlink:href="#E" overflow="visible"/></clipPath><path clip-path="url(#F)" fill="#F8EFC8" d="M29.8 20.2c0 6.8-5.5 12.3-12.3 12.3S5.1 27 5.1 20.2c0-6.8 5.5-12.3 12.3-12.3s12.4 5.5 12.4 12.3"/></g><g opacity=".4" clip-path="url(#B)"><defs><path id="G" d="M7.2 10h20.4v20.4H7.2z"/></defs><clipPath id="H"><use xlink:href="#G" overflow="visible"/></clipPath><path clip-path="url(#H)" fill="#F5E9B0" d="M27.6 20.2c0 5.6-4.6 10.2-10.2 10.2S7.2 25.9 7.2 20.2 11.8 10 17.4 10s10.2 4.6 10.2 10.2"/></g><g opacity=".6" clip-path="url(#B)"><defs><path id="I" d="M9.4 12.2h16.1v16.1H9.4z"/></defs><clipPath id="J"><use xlink:href="#I" overflow="visible"/></clipPath><path clip-path="url(#J)" fill="#F1E298" d="M25.5 20.2c0 4.5-3.6 8.1-8.1 8.1s-8.1-3.6-8.1-8.1 3.6-8.1 8.1-8.1 8.1 3.7 8.1 8.1"/></g><g opacity=".8" clip-path="url(#B)"><defs><path id="K" d="M11.5 14.3h11.8v11.8H11.5z"/></defs><clipPath id="L"><use xlink:href="#K" overflow="visible"/></clipPath><path clip-path="url(#L)" fill="#EEDB7F" d="M23.4 20.2c0 3.3-2.7 5.9-5.9 5.9s-5.9-2.7-5.9-5.9 2.7-5.9 5.9-5.9 5.9 2.6 5.9 5.9"/></g><g clip-path="url(#B)"><defs><path id="M" d="M13.7 16.4h7.6V24h-7.6z"/></defs><clipPath id="N"><use xlink:href="#M" overflow="visible"/></clipPath><path clip-path="url(#N)" fill="#EBD467" d="M21.2 20.2c0 2.1-1.7 3.8-3.8 3.8s-3.8-1.7-3.8-3.8 1.7-3.8 3.8-3.8 3.8 1.7 3.8 3.8"/></g></g><g><defs><path id="O" d="M6.6 9.9h21.6v21.6H6.6z"/></defs><clipPath id="P"><use xlink:href="#O" overflow="visible"/></clipPath><g opacity=".2" clip-path="url(#P)"><defs><path id="S" d="M8.2 11.5h18.4v18.4H8.2z"/></defs><clipPath id="T"><use xlink:href="#S" overflow="visible"/></clipPath><path clip-path="url(#T)" fill="#F8EFC8" d="M26.7 20.7c0 5.1-4.1 9.2-9.2 9.2s-9.2-4.1-9.2-9.2 4.1-9.2 9.2-9.2c5 0 9.2 4.1 9.2 9.2"/></g><g opacity=".4" clip-path="url(#P)"><defs><path id="U" d="M9.8 13.1H25v15.2H9.8z"/></defs><clipPath id="V"><use xlink:href="#U" overflow="visible"/></clipPath><path clip-path="url(#V)" fill="#F5E9B0" d="M25.1 20.7c0 4.2-3.4 7.6-7.6 7.6s-7.6-3.4-7.6-7.6 3.4-7.6 7.6-7.6 7.6 3.4 7.6 7.6"/></g><g opacity=".6" clip-path="url(#P)"><defs><path id="W" d="M11.4 14.7h12v12h-12z"/></defs><clipPath id="X"><use xlink:href="#W" overflow="visible"/></clipPath><path clip-path="url(#X)" fill="#F1E298" d="M23.5 20.7c0 3.3-2.7 6-6 6s-6-2.7-6-6 2.7-6 6-6 6 2.6 6 6"/></g><g opacity=".8" clip-path="url(#P)"><defs><path id="Y" d="M13 16.2h8.8V25H13z"/></defs><clipPath id="Z"><use xlink:href="#Y" overflow="visible"/></clipPath><path clip-path="url(#Z)" fill="#EEDB7F" d="M21.9 20.7c0 2.4-2 4.4-4.4 4.4s-4.4-2-4.4-4.4 2-4.4 4.4-4.4 4.4 1.9 4.4 4.4"/></g><g clip-path="url(#P)"><defs><path id="aa" d="M14.6 17.8h5.7v5.6h-5.7z"/></defs><clipPath id="ab"><use xlink:href="#aa" overflow="visible"/></clipPath><path clip-path="url(#ab)" fill="#EBD467" d="M20.3 20.7c0 1.6-1.3 2.8-2.8 2.8s-2.8-1.3-2.8-2.8 1.3-2.8 2.8-2.8 2.8 1.2 2.8 2.8"/></g></g></svg>