<svg xmlns="http://www.w3.org/2000/svg" xmlns:xlink="http://www.w3.org/1999/xlink" width="71.6" height="73.5" viewBox="0 0 71.6 73.5"><path fill="#A7A5A6" d="M27.7 67.9c-.2-.5-.7-1.5-.7-2l-.9-2.3c-.2.1-.5.3-.7.5-1.3 1.3-.4 3.2.3 4.8.3.6.8 1.9.7 2.2l.8 2.2c.3-.1.5-.3.7-.5.7-.7.8-1.6.6-2.5l-.8-2.4M21.2 71.9l1.6 1.6c.2-.2.3-.2.6-.2l-.8-2.1c-.5 0-1 .2-1.4.7M31.8 62.7c.2.5.8 1.7.8 2.2l.8 2.2c.3-.1.5-.3.7-.5 1.3-1.3.4-3.2-.3-4.8-.3-.6-.9-1.9-.7-2.3l-.8-2.1c-.3.1-.5.3-.8.5-.8.8-.8 1.9-.5 3l.4 1.1c.1.2.3.5.4.7M40.1 60.5c1.3-1.3.4-3.2-.3-4.8-.3-.6-.9-2-.7-2.3l-1.6-1.6c-.6.6-.7 1.4-.6 2.2l2.6 6.9c.2 0 .4-.2.6-.4"/><path fill="#797677" d="M33.1 59.5c.3-.2 1.7.5 2.3.7 1.3.6 2.9 1.3 4.2.7L36.9 54c.1.9.5 1.8.9 2.6.3.6.9 2 .7 2.3-.3.2-1.7-.5-2.3-.7-1.3-.6-2.8-1.3-4-.8l.9 2.1M27 65.6c.3-.2 1.7.5 2.3.7 1.3.6 2.8 1.3 4.1.8l-.8-2.2v.1c-.3.2-1.7-.5-2.3-.7-1.3-.6-2.9-1.3-4.1-.8l.9 2.3c-.1-.1-.1-.2-.1-.2"/><path fill="#EBEBEB" d="M31 60.9c.1.4.3.7.4 1.1l-.4-1.1zM28.6 70.1c-.2-.8-.5-1.6-.8-2.3l.8 2.3z"/><path fill="#797677" d="M26.4 71.1c-.3.3-.6.3-1.6.1-.6-.1-1.4-.3-2.2-.1l.8 2.1c.2 0 .6.1 1 .1.8.2 1.9.4 2.9-.1l-.9-2.1c0-.1 0 0 0 0"/><path fill="#A7A5A6" d="M50 47.9L44 54s-.9 0-1.3-.4l-.7-.7s-.7-.7-1.3-.2L39.4 54l-2.1-2.1 8.4-8.4 4.3 4.4zM9.9 11.8l2.9.5s1 .2.7 1.1c-.4.9-1.8 4.6-1.8 4.6s-.4.7-1.3 1.7c-.9 1.1-1.9 3-2 5.3-.1 2.2 1.1 5.2 2.2 5.5 1.1.3 2.6.1 2.8-.8.3-.9-.1-1.5-.1-1.5s0-1.3.9-.6c.9.7 1.3 1.7 1.2 2.7-.1 1-.3 2.4-.3 2.4s-.2.8-1.1.6l-.8-.2s-.5.3-.5.6.3.7.6.8c.3.1.8.2.8.2s.8.2.6 1.1-8.8 3.6-8.8 3.6L4.1 39s-.4-1.1-.3-1.9c0-.8-.3-11.1.1-13.8.4-2.7 2.1-7 4.1-9.2l1.9-2.3z"/><g opacity=".4"><defs><path id="a" d="M7.9 12.7h7v22.9h-7z"/></defs><clipPath id="b"><use xlink:href="#a" overflow="visible"/></clipPath><path clip-path="url(#b)" fill="#EBEBEB" d="M13.2 35h.4c.1 0 .3 0 .4.1.1.1.2.1.2.2s.1.1 0 .2v.2c0-.1 0-.2-.1-.3 0-.1-.1-.1-.2-.1s-.3-.1-.4-.1c-.1-.1-.2-.2-.3-.2M14.6 32.5c0 .1-.1.3-.3.3-.2.1-.3 0-.4 0-.3 0-.5-.1-.8-.2l-.2.1.1-.1h.4c.1 0 .3 0 .4.1.1 0 .3.1.4.1.1 0 .1 0 .2-.1s.2-.1.2-.2M8.6 28.7c.3.7.7 1.3 1.2 1.8.1.1.3.2.4.3.2.1.3.1.5.2.2 0 .4.1.5.1h.5c.2 0 .4 0 .5-.1.2 0 .3-.1.5-.1.2-.1.3-.2.5-.3.1-.1.3-.2.4-.4.1-.1.2-.3.2-.5s.1-.4.1-.5v-.5c0-.2-.1-.4-.1-.5l.1-.2v-.1h.1c.1.1.2.1.3.2l.2.2c.2.2.3.4.4.6.2.4.2.9.2 1.3 0-.4-.1-.9-.2-1.3-.1-.2-.2-.4-.4-.6-.1-.1-.1-.2-.2-.2-.1-.1-.2-.1-.3-.2h.1v.2c.1.2.1.4.1.5v.6c0 .2-.1.4-.1.5 0 .2-.1.4-.2.5-.1.2-.2.3-.4.4-.2.1-.3.2-.5.3-.2.1-.4.1-.5.1-.2 0-.4.1-.6.1h-.6c-.2 0-.4-.1-.5-.1-.2 0-.4-.1-.5-.2-.2-.1-.3-.2-.4-.3-.8-.5-1.1-1.2-1.3-1.8M12.8 12.7c.1 0 .2.1.3.2.1.1.1.2 0 .3l-.2.7-.5 1.3-1 2.6c-.4.5-.8 1.1-1.2 1.6-.4.5-.8 1.1-1.1 1.7-.1.3-.3.6-.4.9-.1.3-.2.6-.3 1-.1.3-.2.7-.2 1-.1.3-.1.7-.1 1 0-.3 0-.7.1-1 .1-.3.1-.7.2-1 .1-.3.2-.7.3-1 .1-.3.3-.6.4-.9.3-.6.7-1.2 1.1-1.7.4-.5.8-1.1 1.2-1.6l1.1-2.6.5-1.3.3-.6c0-.1.1-.2 0-.3-.3-.2-.4-.3-.5-.3"/></g><path fill="#A7A5A6" d="M24.8 0s9.6 1.6 17 9.5 22.8 24.6 22.8 24.6 4.9 4.6 4 5.5l-4.9 4.9-31.2-31.3S25.6 7 24.8 0"/><path fill="#CDCBCC" d="M24.8 0c.7 7 7.6 13.2 7.6 13.2l31.3 31.3.5-.5L33 12.7S26.3 6.2 24.8 0"/><path fill="#464344" d="M36.1 5.5s7.3 6.1 8.9 8.9c0 0-6-3.1-8.9-8.9"/><path fill="#EBEBEB" d="M36.6 5.9c-.3-.3-.5-.4-.5-.4 3 5.8 8.9 8.9 8.9 8.9-.1-.1-.2-.3-.3-.5-1.4-.8-5.6-3.6-8.1-8"/><path fill="#676465" d="M61.6 32l-2 2-2 2s.2-.3.5-.7c.2-.2.4-.5.6-.7.2-.2.5-.5.7-.8.3-.2.5-.5.8-.7.2-.2.5-.4.7-.6.3-.3.6-.5.7-.5z"/><path fill="#A7A5A6" d="M4.9 46.2c-.6-.6-1.7-.6-2.3 0L.4 48.4c-.6.6-.6 1.7 0 2.3.6.6 1.7.6 2.3 0l2.2-2.2c.7-.6.7-1.6 0-2.3M1 50.1c-.3-.3-.3-.7 0-1 .3-.3.7-.3 1 0 .3.3.3.7 0 1-.3.3-.7.3-1 0"/><g opacity=".3"><defs><path id="c" d="M1.4 45.6h4.2v4.2H1.4z"/></defs><clipPath id="d"><use xlink:href="#c" overflow="visible"/></clipPath><path clip-path="url(#d)" fill="#A7A5A6" d="M2.8 46.1l-1.4 1.4c.6.9 1.4 1.7 2.3 2.3l1.4-1.4c.6-.6.6-1.7 0-2.3-.6-.7-1.6-.7-2.3 0"/></g><path fill="#B52126" d="M71.6 43.1c0 4.2-3.4 7.6-7.6 7.6H8.6c-4.2 0-7.6-3.4-7.6-7.6 0-4.2 3.4-7.6 7.6-7.6H64c4.2 0 7.6 3.4 7.6 7.6"/><g opacity=".4"><defs><path id="e" d="M5 35.5h66.6v14.4H5z"/></defs><clipPath id="f"><use xlink:href="#e" overflow="visible"/></clipPath><path clip-path="url(#f)" fill="#B52126" d="M64 37.7c3 0 5.4 2.4 5.4 5.4 0 3-2.4 5.4-5.4 5.4h-2.7l6.2 1.3c2.4-1.3 4.1-3.8 4.1-6.7 0-4.2-3.4-7.6-7.6-7.6H8.6c-1.3 0-2.5.3-3.5.9l6.2 1.3H64z"/></g><g opacity=".5"><defs><path id="g" d="M1 36.3h66.6v14.4H1z"/></defs><clipPath id="h"><use xlink:href="#g" overflow="visible"/></clipPath><path clip-path="url(#h)" fill="#B52126" d="M8.6 50.7H64c1.3 0 2.5-.3 3.5-.9l-6.2-1.3H8.6c-3 0-5.4-2.4-5.4-5.4 0-3 2.4-5.4 5.4-5.4h2.7L5 36.3c-2.4 1.3-4 3.8-4 6.8 0 4.2 3.4 7.6 7.6 7.6"/></g><g opacity=".8"><defs><path id="i" d="M11.3 37.4h58.1V43H11.3z"/></defs><clipPath id="j"><use xlink:href="#i" overflow="visible"/></clipPath><path clip-path="url(#j)" fill="#E1A6A8" d="M11.3 37.7s3.8-.1 9.6-.1c2.9 0 6.2 0 9.8-.1h22.4c3.6 0 6.9.1 9.8.1H64c.4 0 .7.1 1 .1.6.2 1.3.4 1.8.7 1 .6 1.7 1.4 2.1 2.2.2.4.3.7.4 1 0 .2.1.3.1.4v.4c0 .4.1.7.1.7s0-.2-.1-.7V42c0-.1-.1-.3-.1-.4-.1-.3-.2-.7-.4-1-.4-.7-1.1-1.5-2.1-2.1-.5-.3-1.1-.5-1.7-.6-.3 0-.7-.1-1-.1H63c-2.9 0-6.2 0-9.8.1H30.8c-3.6 0-6.9-.1-9.8-.1-5.9-.1-9.7-.1-9.7-.1"/></g><defs><path id="k" d="M45.9 39.7h8.9V47h-8.9z"/></defs><clipPath id="l"><use xlink:href="#k" overflow="visible"/></clipPath><path clip-path="url(#l)" fill="#DEDDDE" d="M45.9 47h8.9v-7.3h-8.9V47zm1.2-6h3.7v4.8h-3.7V41zm6.4 4.7H52V41h1.5v4.7z"/><g opacity=".5"><defs><path id="m" d="M3.4 43.1h58.1v5.7H3.4z"/></defs><clipPath id="n"><use xlink:href="#m" overflow="visible"/></clipPath><path clip-path="url(#n)" fill="#B52126" d="M61.5 48.5s-3.8.1-9.6.2c-2.9 0-6.2.1-9.8.1H19.7c-3.6 0-6.9-.1-9.8-.1H8.8c-.4 0-.7-.1-1-.1-.7-.2-1.3-.4-1.8-.7-1-.6-1.7-1.4-2.1-2.2-.2-.4-.3-.7-.4-1 0-.2-.1-.3-.1-.4v-.4c0-.4-.1-.7-.1-.7s0 .2.1.7v.4c0 .1.1.3.1.4.1.3.2.7.4 1 .4.7 1.1 1.5 2.1 2.1.5.3 1.1.5 1.7.6.3 0 .6.1 1 .1h1.1c2.9 0 6.2-.1 9.8-.1H42c3.6 0 6.9.1 9.8.1 5.9-.1 9.7 0 9.7 0"/></g><path fill="#DEDDDE" d="M55.1 46.7h-8.9v-7.3h8.9v7.3zm-7.7-1.2h6.4v-4.8h-6.4v4.8z"/><path fill="#DEDDDE" d="M51.1 40.1h1.3v6h-1.3z"/><path fill="#68111E" d="M3.8 42.2V45h.7v-3.3H1.1c-.1.2-.1.3-.1.5h2.8z"/><path fill="#DEDDDE" d="M3.8 42.2H1c0 .3-.1.6-.1 1 0 .6.1 1.3.2 1.8h2.7v-2.8z"/></svg>