<svg xmlns="http://www.w3.org/2000/svg" xmlns:xlink="http://www.w3.org/1999/xlink" width="66.4" height="57.3" viewBox="0 0 66.4 57.3"><path fill="#8B4D47" d="M8.3 39.7l1.5 11.2h1l.8-11.2"/><defs><path id="a" d="M10.1 39.7h1.5v11.1h-1.5z"/></defs><clipPath id="b"><use xlink:href="#a" overflow="visible"/></clipPath><path clip-path="url(#b)" fill="#8B4D47" d="M10.1 39.7l.7 11.2.8-11.2"/><path fill="#8B4D47" d="M58.1 39.7l-1.5 11.2h-1l-.8-11.2"/><defs><path id="c" d="M54.8 39.7h1.5v11.1h-1.5z"/></defs><clipPath id="d"><use xlink:href="#c" overflow="visible"/></clipPath><path clip-path="url(#d)" fill="#8B4D47" d="M56.3 39.7l-.7 11.2-.8-11.2"/><path fill="#8B4D47" d="M2.7 44.9l1.7 12.4h1.1l.9-12.4"/><defs><path id="e" d="M4.8 44.9h1.7v12.5H4.8z"/></defs><clipPath id="f"><use xlink:href="#e" overflow="visible"/></clipPath><path clip-path="url(#f)" fill="#8B4D47" d="M4.8 44.9l.7 12.4.9-12.4"/><path fill="#8B4D47" d="M63.7 44.9L62 57.3h-1.1L60 44.9"/><defs><path id="g" d="M60 44.9h1.7v12.5H60z"/></defs><clipPath id="h"><use xlink:href="#g" overflow="visible"/></clipPath><path clip-path="url(#h)" fill="#8B4D47" d="M61.7 44.9l-.8 12.4-.9-12.4"/><path fill="#393536" d="M50.3 1.4h14.6v41.9H50.3z"/><path fill="#4F4C4D" d="M.7.7h51.6v43.4H.7z"/><path fill="none" stroke="#8B4D47" stroke-width="1.496" stroke-miterlimit="10" d="M.7.7h64.9v43.4H.7z"/><g opacity=".5"><defs><path id="i" d="M.7.7h64.9v43.4H.7z"/></defs><clipPath id="j"><use xlink:href="#i" overflow="visible"/></clipPath><path clip-path="url(#j)" fill="#8B4D47" d="M1.4 43.4v-42h63.2l1.1-.7H.7v43.4l1.1-.7"/></g><g opacity=".5"><defs><path id="k" d="M.7.7h64.9v43.4H.7z"/></defs><clipPath id="l"><use xlink:href="#k" overflow="visible"/></clipPath><path clip-path="url(#l)" fill="#8B4D47" d="M64.6 1.4h.4v42H1.8l-1.1.7h65V.7"/></g><path fill="#D3D2D2" d="M51.6 1.1h3v42.6h-3z"/><path fill="#393536" d="M51.2 1.4h.4v41.9h-.4z"/><path fill="#423E3F" d="M52.1 9.9h2v.9h-2z"/><path fill="#4F4C4D" d="M52.3 10.1h1.6v.6h-1.6z"/><path fill="#C8C7C7" d="M52.3 10.1h1.6c-.3.1-.5.1-.8.1-.3 0-.5 0-.8-.1z"/><path fill="#423E3F" d="M52.1 11.6h2v.9h-2z"/><path fill="#4F4C4D" d="M52.3 11.8h1.6v.6h-1.6z"/><path fill="#C8C7C7" d="M52.3 11.8h1.6c-.3.1-.5.1-.8.1-.3 0-.5 0-.8-.1z"/><path fill="#423E3F" d="M52.1 30.3h2v.9h-2z"/><path fill="#4F4C4D" d="M52.3 30.5h1.6v.6h-1.6z"/><path fill="#C8C7C7" d="M52.3 30.5h1.6c-.3.1-.5.1-.8.1-.3 0-.5 0-.8-.1z"/><defs><path id="m" d="M52.1 15.2h1.8v1.3h-1.8z"/></defs><clipPath id="n"><use xlink:href="#m" overflow="visible"/></clipPath><path clip-path="url(#n)" fill="#D3D2D2" d="M53.9 15.9c0 .4-.4.7-.9.7s-.9-.3-.9-.7.4-.7.9-.7.9.3.9.7"/><circle fill="none" stroke="#4F4C4D" stroke-width=".139" stroke-miterlimit="10" cx="53.2" cy="15.9" r=".7"/><path fill="#A7A5A6" d="M53.7 15.6c-.1-.2-.3-.3-.5-.3-.3 0-.6.3-.6.6s.3.6.6.6c.2 0 .4-.1.5-.3l-.5-.3.5-.3z"/><path fill="#D3D2D2" d="M53.7 15.6l-.5.3.5.3c0-.1.1-.2.1-.3 0-.1 0-.2-.1-.3"/><defs><path id="o" d="M52.1 17.8h1.8v1.3h-1.8z"/></defs><clipPath id="p"><use xlink:href="#o" overflow="visible"/></clipPath><path clip-path="url(#p)" fill="#D3D2D2" d="M53.9 18.4c0 .4-.4.7-.9.7s-.9-.3-.9-.7.4-.7.9-.7.9.4.9.7"/><circle fill="none" stroke="#4F4C4D" stroke-width=".139" stroke-miterlimit="10" cx="53.2" cy="18.4" r=".7"/><path fill="#A7A5A6" d="M53.7 18.2c-.1-.2-.3-.3-.5-.3-.3 0-.6.3-.6.6s.3.6.6.6c.2 0 .4-.1.5-.3l-.5-.3.5-.3z"/><path fill="#D3D2D2" d="M53.7 18.2l-.5.3.5.3c0-.1.1-.2.1-.3s0-.3-.1-.3"/><defs><path id="q" d="M52.1 20.3h1.8v1.3h-1.8z"/></defs><clipPath id="r"><use xlink:href="#q" overflow="visible"/></clipPath><path clip-path="url(#r)" fill="#D3D2D2" d="M53.9 21c0 .4-.4.7-.9.7s-.9-.3-.9-.7.4-.7.9-.7.9.3.9.7"/><circle fill="none" stroke="#4F4C4D" stroke-width=".139" stroke-miterlimit="10" cx="53.2" cy="21" r=".7"/><path fill="#A7A5A6" d="M53.7 20.7c-.1-.2-.3-.3-.5-.3-.3 0-.6.3-.6.6s.3.6.6.6c.2 0 .4-.1.5-.3l-.5-.3.5-.3z"/><path fill="#D3D2D2" d="M53.7 20.7l-.5.3.5.3c0-.1.1-.2.1-.3 0-.1 0-.2-.1-.3"/><defs><path id="s" d="M52.1 22.9h1.8v1.3h-1.8z"/></defs><clipPath id="t"><use xlink:href="#s" overflow="visible"/></clipPath><path clip-path="url(#t)" fill="#D3D2D2" d="M53.9 23.6c0 .4-.4.7-.9.7s-.9-.3-.9-.7c0-.4.4-.7.9-.7s.9.3.9.7"/><circle fill="none" stroke="#4F4C4D" stroke-width=".139" stroke-miterlimit="10" cx="53.2" cy="23.6" r=".7"/><path fill="#A7A5A6" d="M53.7 23.3c-.1-.2-.3-.3-.5-.3-.3 0-.6.3-.6.6s.3.6.6.6c.2 0 .4-.1.5-.3l-.5-.3.5-.3z"/><path fill="#D3D2D2" d="M53.7 23.3l-.5.3.5.3c0-.1.1-.2.1-.3 0-.1 0-.2-.1-.3"/><defs><path id="u" d="M52 39.3h1.8v1.3H52z"/></defs><clipPath id="v"><use xlink:href="#u" overflow="visible"/></clipPath><path clip-path="url(#v)" fill="#D3D2D2" d="M53.8 40c0 .4-.4.7-.9.7s-.9-.3-.9-.7c0-.4.4-.7.9-.7s.9.3.9.7"/><circle fill="none" stroke="#4F4C4D" stroke-width=".139" stroke-miterlimit="10" cx="53.1" cy="40" r=".7"/><path fill="#A7A5A6" d="M53.7 39.7c-.1-.2-.3-.3-.5-.3-.3 0-.6.3-.6.6s.3.6.6.6c.2 0 .4-.1.5-.3l-.6-.3.6-.3z"/><path fill="#D3D2D2" d="M53.7 39.7l-.6.3.5.3c0-.1.1-.2.1-.3v-.3"/><path fill="#C8C7C7" d="M52.4 35l-.2-.5c0 .1-.1.2-.1.2v1.7c0 .1 0 .2.1.2l.2-.6v-1z"/><path fill="#B2B1B1" d="M53.8 35l.2-.5c-.1-.1-.2-.3-.4-.3h-.9c-.2 0-.3.1-.4.3l.2.5h1.3z"/><path fill="#E9E9E9" d="M52.4 36l-.2.6c.1.2.2.3.4.3h.9c.2 0 .3-.1.4-.3l-.1-.6h-1.4z"/><path fill="#C8C7C7" d="M53.8 35v1l.2.6c0-.1.1-.1.1-.2v-1.7c0-.1 0-.2-.1-.2l-.2.5z"/><path fill="#F9EFDD" d="M52.4 35h1.5v1h-1.5z"/><path fill="#F4F4F4" d="M53.5 36.9h-.9c-.2 0-.3-.1-.4-.3 0-.1-.1-.1-.1-.2v.1c0 .1 0 .2.1.2.1.2.2.3.4.3l.9-.1c.2.1.3-.1.4-.2 0-.1.1-.1.1-.2v-.1c0 .1 0 .2-.1.2 0 .2-.2.3-.4.3"/><g opacity=".5"><defs><path id="w" d="M54.6 1.4h.5v42.1h-.5z"/></defs><clipPath id="x"><use xlink:href="#w" overflow="visible"/></clipPath><path clip-path="url(#x)" fill="none" stroke="#231F20" stroke-width=".502" stroke-miterlimit="10" d="M54.8 1.4v42.1"/></g><g opacity=".5"><defs><path id="y" d="M55 1.4h.1v42.1H55z"/></defs><clipPath id="z"><use xlink:href="#y" overflow="visible"/></clipPath><path clip-path="url(#z)" fill="none" stroke="#DEDDDE" stroke-width=".142" stroke-miterlimit="10" d="M55.1 1.4v42.1"/></g><g opacity=".5"><defs><path id="A" d="M55.2 1.4h.5v42.1h-.5z"/></defs><clipPath id="B"><use xlink:href="#A" overflow="visible"/></clipPath><path clip-path="url(#B)" fill="none" stroke="#231F20" stroke-width=".502" stroke-miterlimit="10" d="M55.4 1.4v42.1"/></g><g opacity=".5"><defs><path id="C" d="M55.6 1.4h.1v42.1h-.1z"/></defs><clipPath id="D"><use xlink:href="#C" overflow="visible"/></clipPath><path clip-path="url(#D)" fill="none" stroke="#DEDDDE" stroke-width=".142" stroke-miterlimit="10" d="M55.7 1.4v42.1"/></g><g opacity=".5"><defs><path id="E" d="M55.8 1.4h.5v42.1h-.5z"/></defs><clipPath id="F"><use xlink:href="#E" overflow="visible"/></clipPath><path clip-path="url(#F)" fill="none" stroke="#231F20" stroke-width=".502" stroke-miterlimit="10" d="M56.1 1.4v42.1"/></g><g opacity=".5"><defs><path id="G" d="M56.3 1.4h.1v42.1h-.1z"/></defs><clipPath id="H"><use xlink:href="#G" overflow="visible"/></clipPath><path clip-path="url(#H)" fill="none" stroke="#DEDDDE" stroke-width=".142" stroke-miterlimit="10" d="M56.3 1.4v42.1"/></g><g opacity=".5"><defs><path id="I" d="M56.5 1.4h.5v42.1h-.5z"/></defs><clipPath id="J"><use xlink:href="#I" overflow="visible"/></clipPath><path clip-path="url(#J)" fill="none" stroke="#231F20" stroke-width=".502" stroke-miterlimit="10" d="M56.7 1.4v42.1"/></g><g opacity=".5"><defs><path id="K" d="M56.9 1.4h.1v42.1h-.1z"/></defs><clipPath id="L"><use xlink:href="#K" overflow="visible"/></clipPath><path clip-path="url(#L)" fill="none" stroke="#DEDDDE" stroke-width=".142" stroke-miterlimit="10" d="M57 1.4v42.1"/></g><g opacity=".5"><defs><path id="M" d="M57.1 1.4h.5v42.1h-.5z"/></defs><clipPath id="N"><use xlink:href="#M" overflow="visible"/></clipPath><path clip-path="url(#N)" fill="none" stroke="#231F20" stroke-width=".502" stroke-miterlimit="10" d="M57.4 1.4v42.1"/></g><g opacity=".5"><defs><path id="O" d="M57.5 1.4h.1v42.1h-.1z"/></defs><clipPath id="P"><use xlink:href="#O" overflow="visible"/></clipPath><path clip-path="url(#P)" fill="none" stroke="#DEDDDE" stroke-width=".142" stroke-miterlimit="10" d="M57.6 1.4v42.1"/></g><g opacity=".5"><defs><path id="Q" d="M57.7 1.4h.5v42.1h-.5z"/></defs><clipPath id="R"><use xlink:href="#Q" overflow="visible"/></clipPath><path clip-path="url(#R)" fill="none" stroke="#231F20" stroke-width=".502" stroke-miterlimit="10" d="M58 1.4v42.1"/></g><g opacity=".5"><defs><path id="S" d="M58.2 1.4h.1v42.1h-.1z"/></defs><clipPath id="T"><use xlink:href="#S" overflow="visible"/></clipPath><path clip-path="url(#T)" fill="none" stroke="#DEDDDE" stroke-width=".142" stroke-miterlimit="10" d="M58.2 1.4v42.1"/></g><g opacity=".5"><defs><path id="U" d="M58.4 1.4h.5v42.1h-.5z"/></defs><clipPath id="V"><use xlink:href="#U" overflow="visible"/></clipPath><path clip-path="url(#V)" fill="none" stroke="#231F20" stroke-width=".502" stroke-miterlimit="10" d="M58.6 1.4v42.1"/></g><g opacity=".5"><defs><path id="W" d="M58.8 1.4h.1v42.1h-.1z"/></defs><clipPath id="X"><use xlink:href="#W" overflow="visible"/></clipPath><path clip-path="url(#X)" fill="none" stroke="#DEDDDE" stroke-width=".142" stroke-miterlimit="10" d="M58.9 1.4v42.1"/></g><g opacity=".5"><defs><path id="Y" d="M59 1.4h.5v42.1H59z"/></defs><clipPath id="Z"><use xlink:href="#Y" overflow="visible"/></clipPath><path clip-path="url(#Z)" fill="none" stroke="#231F20" stroke-width=".502" stroke-miterlimit="10" d="M59.3 1.4v42.1"/></g><g opacity=".5"><defs><path id="aa" d="M59.4 1.4h.1v42.1h-.1z"/></defs><clipPath id="ab"><use xlink:href="#aa" overflow="visible"/></clipPath><path clip-path="url(#ab)" fill="none" stroke="#DEDDDE" stroke-width=".142" stroke-miterlimit="10" d="M59.5 1.4v42.1"/></g><g opacity=".5"><defs><path id="ac" d="M59.7 1.4h.5v42.1h-.5z"/></defs><clipPath id="ad"><use xlink:href="#ac" overflow="visible"/></clipPath><path clip-path="url(#ad)" fill="none" stroke="#231F20" stroke-width=".502" stroke-miterlimit="10" d="M59.9 1.4v42.1"/></g><g opacity=".5"><defs><path id="ae" d="M60.1 1.4h.1v42.1h-.1z"/></defs><clipPath id="af"><use xlink:href="#ae" overflow="visible"/></clipPath><path clip-path="url(#af)" fill="none" stroke="#DEDDDE" stroke-width=".142" stroke-miterlimit="10" d="M60.2 1.4v42.1"/></g><g opacity=".5"><defs><path id="ag" d="M60.3 1.4h.5v42.1h-.5z"/></defs><clipPath id="ah"><use xlink:href="#ag" overflow="visible"/></clipPath><path clip-path="url(#ah)" fill="none" stroke="#231F20" stroke-width=".502" stroke-miterlimit="10" d="M60.5 1.4v42.1"/></g><g opacity=".5"><defs><path id="ai" d="M60.7 1.4h.1v42.1h-.1z"/></defs><clipPath id="aj"><use xlink:href="#ai" overflow="visible"/></clipPath><path clip-path="url(#aj)" fill="none" stroke="#DEDDDE" stroke-width=".142" stroke-miterlimit="10" d="M60.8 1.4v42.1"/></g><g opacity=".5"><defs><path id="ak" d="M60.9 1.4h.5v42.1h-.5z"/></defs><clipPath id="al"><use xlink:href="#ak" overflow="visible"/></clipPath><path clip-path="url(#al)" fill="none" stroke="#231F20" stroke-width=".502" stroke-miterlimit="10" d="M61.2 1.4v42.1"/></g><g opacity=".5"><defs><path id="am" d="M61.4 1.4h.1v42.1h-.1z"/></defs><clipPath id="an"><use xlink:href="#am" overflow="visible"/></clipPath><path clip-path="url(#an)" fill="none" stroke="#DEDDDE" stroke-width=".142" stroke-miterlimit="10" d="M61.4 1.4v42.1"/></g><g opacity=".5"><defs><path id="ao" d="M61.6 1.4h.5v42.1h-.5z"/></defs><clipPath id="ap"><use xlink:href="#ao" overflow="visible"/></clipPath><path clip-path="url(#ap)" fill="none" stroke="#231F20" stroke-width=".502" stroke-miterlimit="10" d="M61.8 1.4v42.1"/></g><g opacity=".5"><defs><path id="aq" d="M62 1.4h.1v42.1H62z"/></defs><clipPath id="ar"><use xlink:href="#aq" overflow="visible"/></clipPath><path clip-path="url(#ar)" fill="none" stroke="#DEDDDE" stroke-width=".142" stroke-miterlimit="10" d="M62.1 1.4v42.1"/></g><g opacity=".5"><defs><path id="as" d="M62.2 1.4h.5v42.1h-.5z"/></defs><clipPath id="at"><use xlink:href="#as" overflow="visible"/></clipPath><path clip-path="url(#at)" fill="none" stroke="#231F20" stroke-width=".502" stroke-miterlimit="10" d="M62.5 1.4v42.1"/></g><g opacity=".5"><defs><path id="au" d="M62.6 1.4h.1v42.1h-.1z"/></defs><clipPath id="av"><use xlink:href="#au" overflow="visible"/></clipPath><path clip-path="url(#av)" fill="none" stroke="#DEDDDE" stroke-width=".142" stroke-miterlimit="10" d="M62.7 1.4v42.1"/></g><g opacity=".5"><defs><path id="aw" d="M62.8 1.4h.5v42.1h-.5z"/></defs><clipPath id="ax"><use xlink:href="#aw" overflow="visible"/></clipPath><path clip-path="url(#ax)" fill="none" stroke="#231F20" stroke-width=".502" stroke-miterlimit="10" d="M63.1 1.4v42.1"/></g><g opacity=".5"><defs><path id="ay" d="M63.3 1.4h.1v42.1h-.1z"/></defs><clipPath id="az"><use xlink:href="#ay" overflow="visible"/></clipPath><path clip-path="url(#az)" fill="none" stroke="#DEDDDE" stroke-width=".142" stroke-miterlimit="10" d="M63.3 1.4v42.1"/></g><g opacity=".5"><defs><path id="aA" d="M63.5 1.4h.5v42.1h-.5z"/></defs><clipPath id="aB"><use xlink:href="#aA" overflow="visible"/></clipPath><path clip-path="url(#aB)" fill="none" stroke="#231F20" stroke-width=".502" stroke-miterlimit="10" d="M63.7 1.4v42.1"/></g><g opacity=".5"><defs><path id="aC" d="M63.9 1.4h.1v42.1h-.1z"/></defs><clipPath id="aD"><use xlink:href="#aC" overflow="visible"/></clipPath><path clip-path="url(#aD)" fill="none" stroke="#DEDDDE" stroke-width=".142" stroke-miterlimit="10" d="M64 1.4v42.1"/></g><g opacity=".5"><defs><path id="aE" d="M64.1 1.4h.5v42.1h-.5z"/></defs><clipPath id="aF"><use xlink:href="#aE" overflow="visible"/></clipPath><path clip-path="url(#aF)" fill="none" stroke="#231F20" stroke-width=".502" stroke-miterlimit="10" d="M64.4 1.4v42.1"/></g><g opacity=".5"><defs><path id="aG" d="M64.5 1.4h.1v42.1h-.1z"/></defs><clipPath id="aH"><use xlink:href="#aG" overflow="visible"/></clipPath><path clip-path="url(#aH)" fill="none" stroke="#DEDDDE" stroke-width=".142" stroke-miterlimit="10" d="M64.6 1.4v42.1"/></g><path fill="#DEDDDE" d="M55.9 41.2H64v1.2h-8.1z"/><g><defs><path id="aI" d="M55.9 42.3H64v.2h-8.1z"/></defs><clipPath id="aJ"><use xlink:href="#aI" overflow="visible"/></clipPath><path clip-path="url(#aJ)" fill="#444142" d="M55.9 42.3H64v.2h-8.1z"/></g><path fill="#B52126" d="M56.1 41.3h.4v.8h-.4z"/><path fill="#A0A96A" d="M56.5 41.3h.4v.8h-.4z"/><path fill="#1498C3" d="M56.9 41.3h.4v.8h-.4z"/><path fill="#BDBCBC" d="M3 2.8h46.8v38.9H3z"/><path fill="none" stroke="#DCDBDB" stroke-width=".492" stroke-miterlimit="10" d="M3 2.8h46.8v38.9H3z"/><g opacity=".75"><defs><path id="aK" d="M3.4 34.3h6.4v6.9H3.4z"/></defs><clipPath id="aL"><use xlink:href="#aK" overflow="visible"/></clipPath><path clip-path="url(#aL)" fill="#A7A5A6" d="M8.1 34.3l-4.7 6.9 6.4-5.6"/></g><g opacity=".75"><defs><path id="aM" d="M42.8 34.3h6.4v6.9h-6.4z"/></defs><clipPath id="aN"><use xlink:href="#aM" overflow="visible"/></clipPath><path clip-path="url(#aN)" fill="#A7A5A6" d="M44.5 34.3l4.7 6.9-6.4-5.6"/></g><g opacity=".75"><defs><path id="aO" d="M3.4 3.5h6.4v6.9H3.4z"/></defs><clipPath id="aP"><use xlink:href="#aO" overflow="visible"/></clipPath><path clip-path="url(#aP)" fill="#676465" d="M8.1 10.4L3.4 3.5l6.4 5.6"/></g><g opacity=".75"><defs><path id="aQ" d="M42.8 3.5h6.4v6.9h-6.4z"/></defs><clipPath id="aR"><use xlink:href="#aQ" overflow="visible"/></clipPath><path clip-path="url(#aR)" fill="#676465" d="M44.5 10.4l4.7-6.9-6.4 5.6"/></g><path fill="#C0D1DA" d="M47 22.3c0-2.2-1.1-9.5-1.6-11.2-.5-1.7 0-1.9-2.9-3.3S26.3 5.7 26.3 5.7s-13.2.6-16.1 2.1c-2.9 1.5-2.4 1.7-2.9 3.3-.5 1.7-1.6 9-1.6 11.2 0 2.2 1.1 9.5 1.6 11.2.5 1.7 0 1.9 2.9 3.3 2.9 1.5 16.2 2.1 16.2 2.1s13.3-.6 16.2-2.1c2.9-1.5 2.4-1.7 2.9-3.3.4-1.7 1.5-9 1.5-11.2z"/><g opacity=".15"><defs><path id="aS" d="M6.9 7.1h39v31.3h-39z"/></defs><clipPath id="aT"><use xlink:href="#aS" overflow="visible"/></clipPath><path clip-path="url(#aT)" fill="#C0D1DA" d="M45.9 22.7c0-2.1-1.1-9-1.5-10.6-.4-1.6 0-1.8-2.7-3.1C39 7.6 26.4 7 26.4 7s-12.6.6-15.3 2c-2.7 1.4-2.3 1.6-2.7 3.1-.4 1.6-1.5 8.5-1.5 10.6s1.1 9 1.5 10.6c.4 1.6 0 1.8 2.7 3.1 2.7 1.4 15.3 2 15.3 2s12.5-.6 15.3-2c2.7-1.4 2.3-1.6 2.7-3.1.4-1.6 1.5-8.5 1.5-10.6"/></g><g><defs><path id="aU" d="M5.7 5.7H47v17H5.7z"/></defs><clipPath id="aV"><use xlink:href="#aU" overflow="visible"/></clipPath><path clip-path="url(#aV)" fill="#C0D1DA" d="M45.4 11.1c-.5-1.7 0-1.9-2.9-3.3-2.9-1.5-16.2-2.1-16.2-2.1s-13.2.6-16.1 2.1c-2.9 1.5-2.4 1.7-2.9 3.3-.5 1.7-1.6 9-1.6 11.2v.4c.1-2.6 1.1-9.2 1.6-10.8.5-1.7 0-1.9 2.9-3.3s16.2-2.1 16.2-2.1 13.3.6 16.2 2.1c2.9 1.5 2.4 1.7 2.9 3.3.4 1.6 1.4 8.2 1.6 10.8v-.4c-.1-2.2-1.2-9.5-1.7-11.2"/></g><g opacity=".3"><defs><path id="aW" d="M29.7 14.6h9.4v9.5h-9.4z"/></defs><clipPath id="aX"><use xlink:href="#aW" overflow="visible"/></clipPath><path clip-path="url(#aX)" fill="#C0D1DA" d="M35 14.6l2 2.1 2.1 2.1-1.4 2.6-1.4 2.6-2.9-.6-2.9-.4-.3-2.9-.5-2.9 2.7-1.3"/></g><g opacity=".3"><defs><path id="aY" d="M28.7 14.6h6.1v6.3h-6.1z"/></defs><clipPath id="aZ"><use xlink:href="#aY" overflow="visible"/></clipPath><path clip-path="url(#aZ)" fill="#C0D1DA" d="M30.8 14.6l1.9.5 1.9.5.1 1.9.1 2-1.8.7-1.8.7-1.2-1.5-1.3-1.5 1.1-1.6"/></g></svg>