<svg xmlns="http://www.w3.org/2000/svg" width="45.4" height="61.9" viewBox="0 0 45.4 61.9"><path fill="none" stroke="#D7D7D7" stroke-width="6.225" stroke-miterlimit="10" d="M7.1 31.3V18.7c0-8.6 7-15.6 15.6-15.6s15.6 7 15.6 15.6v12.6"/><path fill="#F0EFEF" d="M8.4 29.7c-.3-2.8-.4-5.5-.3-8.3.2-2.7.2-5.6 1.1-8.2.9-2.7 2.7-5 5.1-6.6 2.4-1.6 5.3-2.3 8-2v.1c-2.7.3-5.3 1.2-7.4 2.7-2.2 1.5-4 3.6-5.1 6-.6 1.2-.9 2.6-1 3.9-.1.7 0 1.4 0 2.1l.1 2.1c0 2.7-.1 5.5-.5 8.2zM36.8 29.7c0-1.4-.1-2.8-.1-4.1v-4.1c0-1.4.1-2.8 0-4.1-.1-1.4-.4-2.7-1-4-1.1-2.5-2.9-4.7-5.1-6.3-2.3-1.5-5-2.4-7.7-2.5 2.8-.1 5.6.7 7.8 2.3 2.3 1.6 4.1 3.8 5.1 6.4.5 1.3.8 2.6.9 4 .1 1.4.1 2.8.1 4.1v4.1c.1 1.5.1 2.9 0 4.2z"/><path fill="#F0EFEF" d="M38.9 30.3c-.4-3.1-.6-6.2-.5-9.3l.2-2.3c.1-.8.1-1.5.1-2.3-.1-1.5-.5-3-1.2-4.4-1.4-2.7-3.4-5-5.8-6.7-2.4-1.7-5.3-2.8-8.4-3.2V2c3.1-.4 6.4.4 9.1 2.2 2.7 1.8 4.8 4.5 5.7 7.6 1 3 1.1 6.2 1.3 9.3.1 3.1 0 6.2-.5 9.3z"/><path fill="#807D7E" d="M39.2 30.2c0-1.5-.1-3.1-.1-4.6V21c0-1.5.1-3.1 0-4.6-.1-1.5-.5-3-1.1-4.5-1.2-2.8-3.2-5.3-5.7-7-2.5-1.7-5.6-2.7-8.7-2.8 3.1-.1 6.2.8 8.8 2.6C35 6.4 37 9 38.1 11.9c.6 1.4.9 3 1.1 4.5.1 1.5.1 3.1.1 4.6v4.6c0 1.6 0 3.1-.1 4.6z"/><path fill="#807D7E" d="M35.9 29c-.2-2.6-.3-5.1-.3-7.7 0-1.3.2-2.6.1-3.8-.1-1.3-.4-2.5-1-3.7-1-2.3-2.7-4.3-4.7-5.7-2-1.4-4.5-2.3-7-2.5v-.1c2.6-.2 5.3.5 7.5 1.9 2.2 1.5 3.9 3.7 4.7 6.1.4 1.2.7 2.5.8 3.8.1 1.3.2 2.6.2 3.9.1 2.6 0 5.2-.3 7.8z"/><path fill="#DFAE57" d="M0 27.3h45.4v34.6H0z"/><path fill="#DFAE57" d="M0 27.3h45.4v34.6H0z"/><path fill="#E2B668" d="M1.8 27.3h41.9v34.6H1.8z"/><path fill="#E6BE79" d="M5.6 27.3h34.3v34.6H5.6z"/><path fill="#D0C199" d="M1.5 27.4l21.2-.1 21.2.1v.2c-3.5.9-7.1 1.3-10.6 1.6-1.8.2-3.5.2-5.3.4-1.8.1-3.5.1-5.3.1-1.8 0-3.5-.1-5.3-.1-1.8-.1-3.5-.2-5.3-.4-3.6-.2-7.1-.6-10.6-1.5v-.3z"/></svg>