<svg xmlns="http://www.w3.org/2000/svg" xmlns:xlink="http://www.w3.org/1999/xlink" width="21" height="68.1" viewBox="0 0 21 68.1"><path fill="#9A1C1F" d="M.9 66.3l9.5-.1 9.5.1v.2c-1.6.7-3.2 1-4.8 1.3l-2.4.3c-.8.1-1.6.1-2.4.1-.8 0-1.6 0-2.4-.1-.8-.1-1.6-.1-2.4-.3-1.6-.2-3.2-.6-4.8-1.3v-.2z"/><path fill="#B52126" d="M21 63.3V38.4s-.2-2.6-.5-3.8c-.3-1.2-4-13.8-4-13.8s-.8-3.5-.8-5.6c0-2-.5-9-.5-9s.5-.2.5-.6c0-.4-1.2-.8-1.2-.8v-.6H6.4v.7s-1.2.4-1.2.8.5.6.5.6-.5 7-.5 9-.8 5.6-.8 5.6S.7 33.5.4 34.7c-.2 1.2-.4 3.7-.4 3.7v24.9s-.2 2.1.6 3.3c.8 1.1 9.9.8 9.9.8s9.1.3 9.9-.8c.8-1.2.6-3.3.6-3.3"/><defs><path id="a" d="M.9 66.7H20v.9H.9z"/></defs><clipPath id="b"><use xlink:href="#a" overflow="visible"/></clipPath><path clip-path="url(#b)" fill="#9A1C1F" d="M.9 66.7h19v.1c-.8.2-1.6.3-2.4.4l-2.4.2c-1.6.1-3.2.2-4.8.2-1.6 0-3.2 0-4.8-.2l-2.4-.2c-.6-.1-1.4-.2-2.2-.5z"/><g opacity=".5"><defs><path id="c" d="M10.3 4.2h10.8v35.2H10.3z"/></defs><clipPath id="d"><use xlink:href="#c" overflow="visible"/></clipPath><path clip-path="url(#d)" fill="#9A1C1F" d="M16.6 20.9s-.8-3.5-.8-5.6c0-2-.5-9-.5-9s.5-.2.5-.6c0-.4-1.2-.8-1.2-.8v-.7H10.2l.3.8v25s-.1 6.4 1.5 7.1c0 0 3.7.9 3.7 2.3 0 0 .2-1.9 3-1.9s1.9 1.9 1.9 1.9l.4-.4v-.6s-.2-2.6-.5-3.8c-.2-1.1-3.9-13.7-3.9-13.7"/></g><path fill="#A5A3A3" d="M15.2 1h-10V3.9c0 .3.2.5.4.5h9.8c.2 0 .4-.2.4-.5V1h-.6z"/><path fill="#FFF" d="M15.6.4c0-.2-.7-.4-1-.4H6.4c-.3 0-1 .2-1 .4l-.2.5h10.7l-.3-.5z"/><path fill="#E9E9E9" d="M15.2.9h-10V3.8c0 .3.2.5.4.5h9.8c.2 0 .4-.2.4-.5V.9h-.6z"/><defs><path id="e" d="M6.4 4.4h8.1v.4H6.4z"/></defs><clipPath id="f"><use xlink:href="#e" overflow="visible"/></clipPath><path clip-path="url(#f)" fill="#9A1C1F" d="M6.4 4.4h8.1c-.7.2-1.4.2-2 .3-.7.1-1.4.1-2 .1-.7 0-1.4 0-2-.1-.7-.1-1.4-.1-2.1-.3z"/><path fill="#FFF" d="M5.1 61.1L2.6 46.2H2.9c.5 0 .9-.2 1.2-.6.3-.4.4-1 .3-1.8l-.3-1.3s.1-.1.2-.1l.2-.1c1.1-.6 2.6-1.4 6.2-1.4 3.7 0 5.2.8 6.2 1.4l.2.1c.1 0 .1.1.2.1l-.3 1.3c-.2.7-.1 1.3.3 1.8.3.4.7.6 1.2.6H18.8l-2.5 14.9H5.1z"/><path fill="#597F5C" d="M10.7 42c3.1 0 4.5.6 5.4 1.1l-.1.6c-.3 1.3.1 2.2.5 2.6.3.4.7.7 1.2.8l-2.2 13H6l-2.2-13c.5-.1.9-.4 1.2-.8.4-.5.8-1.3.5-2.6l-.1-.6c.9-.5 2.2-1.1 5.3-1.1m0-2.1c-4.2 0-5.8 1.1-7 1.7-1.1.6-.6 1.3-.6 1.3l.3 1.2c.2.9-.3 1-.5 1H2.1c-.7 0-.6.6-.6.6l2.7 16.4h13L20 45.8s.1-.6-.6-.6h-.7-.1c-.2 0-.7-.1-.5-1l.3-1.2s.5-.7-.6-1.3c-1.2-.8-2.8-1.8-7.1-1.8"/><path fill="#FFF" d="M10.7 41.8c3.3 0 4.7.7 5.7 1.2l-.2.7c-.3 1.2.1 2 .4 2.5.3.4.7.7 1.2.8l-2.2 13.3H5.8L3.6 47c.5-.1.9-.4 1.2-.8.4-.4.7-1.2.4-2.5l-.1-.7c1-.5 2.4-1.2 5.6-1.2m0-1.9c-4.2 0-5.8 1.1-7 1.7-1.1.6-.6 1.3-.6 1.3l.3 1.2c.2.9-.3 1-.5 1H2.1c-.7 0-.6.6-.6.6l2.7 16.4h13L20 45.8s.1-.6-.6-.6h-.7-.1c-.2 0-.7-.1-.5-1l.3-1.2s.5-.7-.6-1.3c-1.2-.8-2.8-1.8-7.1-1.8"/><path fill="#B69C5B" d="M10.7 41.4c3.5 0 5 .8 6 1.4l-.2.9c-.3 1.1.1 1.8.4 2.2.3.4.8.7 1.3.8l-2.3 13.9H5.6L3.2 46.7c.5-.1 1-.3 1.3-.8.3-.4.6-1.1.4-2.2l-.2-.9c1.1-.6 2.5-1.4 6-1.4m0-1.5c-4.2 0-5.8 1.1-7 1.7-1.1.6-.6 1.3-.6 1.3l.3 1.2c.2.9-.3 1-.5 1H2.1c-.7 0-.6.6-.6.6l2.7 16.4h13L20 45.8s.1-.6-.6-.6h-.7-.1c-.2 0-.7-.1-.5-1l.3-1.2s.5-.7-.6-1.3c-1.2-.8-2.8-1.8-7.1-1.8"/><path fill="#FFF" d="M10.7 40.8c3.7 0 5.2.8 6.3 1.5l.2.1c.1.1.2.1.2.1v.2l-.3 1.2c-.2.7-.1 1.3.2 1.7.3.3.7.5 1.2.5h.5l-2.5 15.1H5L2.5 46.1h.4c.5 0 .9-.2 1.2-.5.3-.4.4-1 .2-1.7L4 42.7v-.2s.1-.1.2-.1l.2-.1c1.1-.6 2.6-1.5 6.3-1.5m0-.9c-4.2 0-5.8 1.1-7 1.7-1.1.6-.6 1.3-.6 1.3l.3 1.2c.2.9-.3 1-.5 1H2.1c-.7 0-.6.6-.6.6l2.7 16.4h13L20 45.8s.1-.6-.6-.6h-.7-.1c-.2 0-.7-.1-.5-1l.3-1.2s.5-.7-.6-1.3c-1.2-.8-2.8-1.8-7.1-1.8"/><g><defs><path id="g" d="M10.5 4.2H6.4v.7s-1.2.4-1.2.8.5.6.5.6-.5 7-.5 9-.8 5.6-.8 5.6S.7 33.5.4 34.7c-.2 1.2-.4 3.7-.4 3.7v24.9s-.2 2.1.6 3.3c.8 1.1 9.9.8 9.9.8s9.1.3 9.9-.8c.8-1.1.6-3.3.6-3.3V38.4s-.2-2.6-.5-3.8c-.3-1.2-4-13.8-4-13.8s-.8-3.5-.8-5.6c0-2-.5-9-.5-9s.5-.2.5-.6c0-.4-1.2-.8-1.2-.8v-.6h-4z"/></defs><clipPath id="h"><use xlink:href="#g" overflow="visible"/></clipPath><path clip-path="url(#h)" fill="#FFF" d="M2.6 7.8h15.8v7.6H2.6z"/><path clip-path="url(#h)" fill="#597F5C" d="M2.6 8.8h15.8v.5H2.6z"/><path clip-path="url(#h)" fill="#BCA66D" d="M2.6 8.1h15.8v.5H2.6z"/><path clip-path="url(#h)" fill="#597F5C" d="M2.6 14h15.8v.5H2.6z"/><path clip-path="url(#h)" fill="#BCA66D" d="M2.6 14.7h15.8v.5H2.6z"/><path clip-path="url(#h)" fill="#FFF" d="M14.8 11.9c0 2.3-1.9 4.1-4.3 4.1s-4.3-1.8-4.3-4.1 1.9-4.1 4.3-4.1 4.3 1.9 4.3 4.1"/><path clip-path="url(#h)" fill="#BCA66D" d="M10.5 8.8c1.8 0 3.4 1.4 3.4 3.2 0 1.7-1.5 3.2-3.4 3.2S7.1 13.8 7.1 12c.1-1.8 1.6-3.2 3.4-3.2m0-.5c-2.1 0-3.8 1.6-3.8 3.6s1.7 3.6 3.8 3.6c2.1 0 3.8-1.6 3.8-3.6 0-1.9-1.7-3.6-3.8-3.6"/><path clip-path="url(#h)" fill="#597F5C" d="M10.5 9.6c1.4 0 2.5 1 2.5 2.3s-1.1 2.3-2.5 2.3-2.5-1-2.5-2.3 1.2-2.3 2.5-2.3m0-.3c-1.5 0-2.8 1.2-2.8 2.6s1.2 2.6 2.8 2.6c1.5 0 2.8-1.2 2.8-2.6S12 9.3 10.5 9.3"/></g></svg>