<svg xmlns="http://www.w3.org/2000/svg" xmlns:xlink="http://www.w3.org/1999/xlink" width="64.6" height="52.3" viewBox="0 0 64.6 52.3"><path fill="#B52126" d="M64.6 50.9c0 .2-.2.4-.4.4H.4c-.2 0-.4-.2-.4-.4V1.6C0 1.4.2 0 .4 0h63.8c.2 0 .4 1.4.4 1.6v49.3z"/><defs><path id="a" d="M.2 0h64.3v.5H.2z"/></defs><clipPath id="b"><use xlink:href="#a" overflow="visible"/></clipPath><path clip-path="url(#b)" fill="#9A1C1F" d="M.2.5h64.3c-.1-.3-.2-.5-.3-.5H.4C.3 0 .2.2.2.5"/><path fill="#DA9093" d="M1.6 3.6c.2 1.9.4 3.7.6 5.6v33.4c-.2 1.9-.3 3.7-.6 5.6-.2-1.9-.4-3.7-.6-5.6V9.2c.2-1.9.3-3.7.6-5.6M63 3.5l-39.1-.4L63 2.7"/><path fill="#DEDDDE" d="M56.4 41.1c0 .7-.5 1.2-1.2 1.2H9.3c-.7 0-1.2-.5-1.2-1.2V10.2c0-.6.5-1.2 1.2-1.2h45.9c.6 0 1.2.5 1.2 1.2v30.9z"/><g opacity=".3"><defs><path id="c" d="M9 10.2h48.2v32.9H9z"/></defs><clipPath id="d"><use xlink:href="#c" overflow="visible"/></clipPath><path clip-path="url(#d)" fill="#DEDDDE" d="M57.1 10.2c.1 3.3.1 6.7.1 10s.1 6.7 0 10l-.1 10v1.3c0 .4-.1.9-.5 1.2-.4.3-.8.3-1.2.3H19.1c-3.3 0-6.7-.1-10-.1 3.3-.1 6.7-.1 10-.1s6.7-.1 10 0c6.7 0 13.4 0 20.1.1h6.3c.4 0 .8 0 1.2-.2.3-.2.5-.6.4-1.1v-1.3l-.1-10v-10c-.1-3.4 0-6.8.1-10.1z"/></g><defs><path id="e" d="M8 8.9h48.6v33.5H8z"/></defs><clipPath id="f"><use xlink:href="#e" overflow="visible"/></clipPath><path clip-path="url(#f)" fill="none" stroke="#9F4E5F" stroke-width=".278" stroke-miterlimit="10" d="M56.4 41.1c0 .7-.5 1.2-1.2 1.2H9.3c-.7 0-1.2-.5-1.2-1.2V10.2c0-.6.5-1.2 1.2-1.2h45.9c.6 0 1.2.5 1.2 1.2v30.9z"/><defs><path id="g" d="M2 50.2h61v1.1H2z"/></defs><clipPath id="h"><use xlink:href="#g" overflow="visible"/></clipPath><path clip-path="url(#h)" fill="#9F4E5F" d="M2 51.1c2.5-.2 5.1-.3 7.6-.5l7.6-.3c5.1-.2 10.2-.1 15.3-.2 5.1.1 10.2.1 15.3.2l7.6.3c2.5.2 5.1.2 7.6.5v.1l-30.5.1L2 51.2v-.1z"/><path fill="#F4F4F4" d="M62.6 48.5c0 2-1.6 3.6-3.6 3.6s-3.6-1.6-3.6-3.6 1.6-3.6 3.6-3.6 3.6 1.6 3.6 3.6"/><path fill="#E9E9E9" d="M59 48.5c1.1 0 2.1-.2 2.9-.5-.4-1.2-1.5-2.1-2.9-2.1s-2.5.9-2.9 2.1c.8.3 1.8.5 2.9.5"/><path fill="#DEDDDE" d="M59 47.2c1.1 0 2.1.3 2.8.7-.4-1.2-1.5-2-2.8-2-1.3 0-2.4.8-2.8 2 .8-.4 1.7-.7 2.8-.7"/><path fill="#BDBCBC" d="M59 51.9c-1.5 0-2.7-.9-3.2-2.3h-.4c.5 1.5 1.9 2.6 3.6 2.6s3.1-1.1 3.6-2.6h-.4c-.4 1.4-1.7 2.3-3.2 2.3"/><path fill="#E9E9E9" d="M59 44.7c-2.1 0-3.8 1.7-3.8 3.8 0 .4.1.8.2 1.2h.4c-.1-.4-.2-.7-.2-1.2 0-1.9 1.5-3.4 3.4-3.4s3.4 1.5 3.4 3.4c0 .4-.1.8-.2 1.2h.4c.1-.4.2-.8.2-1.2 0-2.1-1.7-3.8-3.8-3.8"/><path fill="#F4F4F4" d="M9.2 48.5c0 2-1.6 3.6-3.6 3.6S2 50.5 2 48.5s1.6-3.6 3.6-3.6 3.6 1.6 3.6 3.6"/><path fill="#E9E9E9" d="M5.6 48.5c1.1 0 2.1-.2 2.9-.5-.4-1.2-1.5-2.1-2.9-2.1s-2.5.9-2.9 2.1c.8.3 1.8.5 2.9.5"/><path fill="#DEDDDE" d="M5.6 47.2c1.1 0 2.1.3 2.8.7-.4-1.2-1.5-2-2.8-2-1.3 0-2.4.8-2.8 2 .7-.4 1.7-.7 2.8-.7"/><path fill="#BDBCBC" d="M5.6 51.9c-1.5 0-2.7-.9-3.2-2.3H2c.5 1.5 1.9 2.6 3.6 2.6s3.1-1.1 3.6-2.6h-.4c-.5 1.4-1.7 2.3-3.2 2.3"/><path fill="#E9E9E9" d="M5.6 44.7c-2.1 0-3.8 1.7-3.8 3.8 0 .4.1.8.2 1.2h.4c-.1-.4-.2-.7-.2-1.2 0-1.9 1.5-3.4 3.4-3.4S9 46.6 9 48.5c0 .4-.1.8-.2 1.2h.4c.1-.4.2-.8.2-1.2 0-2.1-1.7-3.8-3.8-3.8"/><path fill="#F0D196" d="M10.6 8.2H5.5V3.1h5.1v5.1zm-4.7-.4h4.4V3.4H5.9v4.4z"/><path fill="#F0D196" d="M10.1 5.6c0 1.1-.9 1.9-1.9 1.9-1.1 0-1.9-.9-1.9-1.9 0-1.1.9-1.9 1.9-1.9 1 0 1.9.9 1.9 1.9"/></svg>