<svg xmlns="http://www.w3.org/2000/svg" xmlns:xlink="http://www.w3.org/1999/xlink" width="66.3" height="24.1" viewBox="0 0 66.3 24.1"><path fill="#D3D2D2" d="M57.6 8.4v5.8h-32l-.9-4"/><path fill="#E0E0E0" d="M57.6 14.2l-1.9-1.4V8.1l1.9-.1"/><path fill="#AEACAC" d="M55.8 12.8V8.1l1.8-.1-1.9.1v4.7l1.9 1.4v-.1"/><path fill="#9A9898" d="M27.4 12.3l.2 1.9h-1.4l-1.7-2 2-.9"/><path fill="#B52126" d="M2.8 9.1s1.1-3.9 7.9-4.9C17.6 3.2 51.4 0 51.4 0s8.8-.7 12.2 9.1L4.3 14.3 2.8 9.1z"/><defs><path id="a" d="M2.8 6.1h23.9v8.2H2.8z"/></defs><clipPath id="b"><use xlink:href="#a" overflow="visible"/></clipPath><path clip-path="url(#b)" fill="#A82526" d="M4.3 14.3l22.3-2c-.2-1.8-.4-3.4-.4-3.4s-.7-2.8-3.8-2.8H6.5s-.8.1-1.8.4c-1.6 1.3-2 2.6-2 2.6l1.6 5.2z"/><path fill="#B52126" d="M1.8 9.3L0 21.9s.4.9 1.1.9h65.2s-1-4.4-5.4-4.4H28.8s-2.1-.4-2.3-1.9c-.2-1.5-.9-7.4-.9-7.4s-.7-2.8-3.8-2.8H5.9s-3.8.4-4.1 3"/><path fill="#231F20" d="M2.4 22.8v.7c0 .3.3.6.6.6h62.8c.3 0 .6-.3.6-.6v-.7h-64z"/><defs><path id="c" d="M1.7 6.3h23.9v3.1H1.7z"/></defs><clipPath id="d"><use xlink:href="#c" overflow="visible"/></clipPath><path clip-path="url(#d)" fill="#B52126" d="M25.6 9.2c-.3-.8-.8-1.5-1.5-2s-1.5-.6-2.4-.6c-1.8.1-3.5.1-5.3.1h-5.3c-1.8 0-3.5 0-5.3-.1-.7 0-1.6.3-2.4.7-.4.2-.8.5-1.1.8-.2.4-.4.8-.5 1.2 0-.4.2-.9.5-1.2.3-.4.6-.7 1-.9.8-.5 1.7-.8 2.6-.9h15.8c.9 0 1.8.2 2.5.7.7.5 1.2 1.3 1.4 2.2z"/><defs><path id="e" d="M23.1 18.5h38.5v.6H23.1z"/></defs><clipPath id="f"><use xlink:href="#e" overflow="visible"/></clipPath><path clip-path="url(#f)" fill="#B52126" d="M23.1 18.6h38.4v.1l-4.8.3H52c-3.2.1-6.4.1-9.6.1-3.2 0-6.4 0-9.6-.1l-4.8-.1-4.9-.3z"/><path fill="#A82526" d="M10.8 12.2c0 1.1-.9 2.1-2.1 2.1-1.1 0-2.1-.9-2.1-2.1 0-1.1.9-2.1 2.1-2.1 1.1.1 2.1 1 2.1 2.1"/><g><defs><path id="g" d="M7.2 10.8h3.6v3.5H7.2z"/></defs><clipPath id="h"><use xlink:href="#g" overflow="visible"/></clipPath><path clip-path="url(#h)" fill="#A82526" d="M10.1 10.8l-.2.2c.3.3.5.8.5 1.3 0 1-.8 1.8-1.8 1.8-.5 0-1-.2-1.3-.6l-.2.2c.4.4.9.7 1.6.7 1.1 0 2.1-.9 2.1-2.1 0-.6-.3-1.2-.7-1.5"/></g><g><defs><path id="i" d="M6.6 10.2h3.5v3.4H6.6z"/></defs><clipPath id="j"><use xlink:href="#i" overflow="visible"/></clipPath><path clip-path="url(#j)" fill="#A82526" d="M6.9 12.2c0-1 .8-1.8 1.8-1.8.5 0 .9.2 1.2.5l.2-.2c-.4-.4-.9-.6-1.4-.6-1.1 0-2.1.9-2.1 2.1 0 .5.2 1 .5 1.4l.2-.2c-.2-.3-.4-.7-.4-1.2"/></g><path fill="#AEACAC" d="M53.8 12.2c0 .3-.3.6-.6.6h-3.3c-.3 0-.6-.3-.6-.6v-.3c0-.3.3-.6.6-.6h3.3c.3 0 .6.3.6.6v.3z"/><g><defs><path id="k" d="M49.9 11.3c-.3 0-.6.3-.6.6v.3c0 .3.3.6.6.6h3.3c.3 0 .6-.3.6-.6v-.3c0-.3-.3-.6-.6-.6h-3.3z"/></defs><clipPath id="l"><use xlink:href="#k" overflow="visible"/></clipPath><path clip-path="url(#l)" fill="#B69C5B" d="M48.9 11.2h.3v1.6h-.3z"/><path clip-path="url(#l)" fill="#72583C" d="M49.2 11.2h.1v1.6h-.1z"/><path clip-path="url(#l)" fill="#B69C5B" d="M49.2 11.2h.3v1.6h-.3z"/><path clip-path="url(#l)" fill="#72583C" d="M49.5 11.2h.1v1.6h-.1z"/><path clip-path="url(#l)" fill="#B69C5B" d="M49.5 11.2h.3v1.6h-.3z"/><path clip-path="url(#l)" fill="#72583C" d="M49.7 11.2h.1v1.6h-.1z"/><path clip-path="url(#l)" fill="#B69C5B" d="M49.8 11.2h.3v1.6h-.3z"/><path clip-path="url(#l)" fill="#72583C" d="M50 11.2h.1v1.6H50z"/><path clip-path="url(#l)" fill="#B69C5B" d="M50.1 11.2h.3v1.6h-.3z"/><path clip-path="url(#l)" fill="#72583C" d="M50.3 11.2h.1v1.6h-.1z"/><path clip-path="url(#l)" fill="#B69C5B" d="M50.4 11.2h.3v1.6h-.3z"/><path clip-path="url(#l)" fill="#72583C" d="M50.6 11.2h.1v1.6h-.1z"/><path clip-path="url(#l)" fill="#B69C5B" d="M50.7 11.2h.3v1.6h-.3z"/><path clip-path="url(#l)" fill="#72583C" d="M50.9 11.2h.1v1.6h-.1z"/><path clip-path="url(#l)" fill="#B69C5B" d="M51 11.2h.3v1.6H51z"/><path clip-path="url(#l)" fill="#72583C" d="M51.2 11.2h.1v1.6h-.1z"/><path clip-path="url(#l)" fill="#B69C5B" d="M51.3 11.2h.3v1.6h-.3z"/><path clip-path="url(#l)" fill="#72583C" d="M51.5 11.2h.1v1.6h-.1z"/><path clip-path="url(#l)" fill="#B69C5B" d="M51.6 11.2h.3v1.6h-.3z"/><path clip-path="url(#l)" fill="#72583C" d="M51.8 11.2h.1v1.6h-.1z"/><path clip-path="url(#l)" fill="#B69C5B" d="M51.9 11.2h.3v1.6h-.3z"/><path clip-path="url(#l)" fill="#72583C" d="M52.1 11.2h.1v1.6h-.1z"/><path clip-path="url(#l)" fill="#B69C5B" d="M52.2 11.2h.3v1.6h-.3z"/><path clip-path="url(#l)" fill="#72583C" d="M52.4 11.2h.1v1.6h-.1z"/><path clip-path="url(#l)" fill="#B69C5B" d="M52.5 11.2h.3v1.6h-.3z"/><path clip-path="url(#l)" fill="#72583C" d="M52.7 11.2h.1v1.6h-.1z"/><path clip-path="url(#l)" fill="#B69C5B" d="M52.7 11.2h.3v1.6h-.3z"/><path clip-path="url(#l)" fill="#72583C" d="M53 11.2h.1v1.6H53z"/><path clip-path="url(#l)" fill="#B69C5B" d="M53 11.2h.3v1.6H53z"/><path clip-path="url(#l)" fill="#72583C" d="M53.3 11.2h.1v1.6h-.1z"/><path clip-path="url(#l)" fill="#B69C5B" d="M53.3 11.2h.3v1.6h-.3z"/><path clip-path="url(#l)" fill="#72583C" d="M53.6 11.2h.1v1.6h-.1z"/><path clip-path="url(#l)" fill="#B69C5B" d="M53.6 11.2h.3v1.6h-.3z"/><path clip-path="url(#l)" fill="#72583C" d="M53.9 11.2h.1v1.6h-.1z"/><path clip-path="url(#l)" fill="#B69C5B" d="M53.9 11.2h.3v1.6h-.3z"/><path clip-path="url(#l)" fill="#72583C" d="M54.2 11.2h.1v1.6h-.1z"/></g><g><defs><path id="m" d="M49.4 11.3h4.4v1.4h-4.4z"/></defs><clipPath id="n"><use xlink:href="#m" overflow="visible"/></clipPath><path clip-path="url(#n)" fill="#797677" d="M53.2 11.3h-3.3c-.2 0-.3.1-.5.2.1-.1.2-.1.3-.1H53c.3 0 .6.3.6.6v.3c0 .1-.1.3-.1.4.2-.1.3-.3.3-.5v-.3c0-.4-.3-.6-.6-.6"/></g></svg>