<svg xmlns="http://www.w3.org/2000/svg" xmlns:xlink="http://www.w3.org/1999/xlink" width="80.4" height="47.5" viewBox="0 0 80.4 47.5"><path fill="#D6543B" d="M10 12.9s.1 0 0 0M4.6 15.9s-2-.9-1.8-1.2h-.1v-1.9s.1-.1.8-.5c.7-.4 1.8 0 1.8 0l3.6.7.4.1c0-.1.1-.2.4-.4.2-.2.3-.2.4-.3l-.7-.2s-6.1-2.1-8.2.3l-.9 1.2s-.2.3-.2.9V16s.1 1 1.4 1.7c1.3.7 9.1 3.4 9.1 3.4s1.4.4 1.4 1v-3.8l-7.4-2.4z"/><path fill="#AB6865" d="M5.3 12.3s-1.1-.4-1.8 0-.8.5-.8.5v1.9h.1c.3-.3 1.4 0 1.4 0L9.3 16v-2.7-.2l-.4-.1-3.6-.7z"/><path fill="#D6543B" d="M75.9 15.9s2-.9 1.8-1.2h.1v-1.9s-.1-.1-.8-.5c-.7-.4-1.8 0-1.8 0l-3.7.7-.4.1c0-.1-.1-.2-.4-.4-.2-.2-.3-.2-.4-.3l.7-.2s6.1-2.1 8.2.3l.9 1.2s.2.3.2.9V16s-.1 1-1.4 1.7c-1.3.7-9.1 3.4-9.1 3.4s-1.4.4-1.4 1v-3.8l7.5-2.4z"/><path fill="#AB6865" d="M75.1 12.3s1.1-.4 1.8 0 .8.5.8.5v1.9h-.1c-.3-.3-1.4 0-1.4 0L71.1 16v-2.7-.2l.4-.1 3.6-.7z"/><path fill="#D6543B" d="M40.4 8S13 7.5 8.8 14.5L11.4 32s.7 9.7 10.1 12.6c9.3 2.9 16.9 2.8 18.9 2.8s9.6.1 18.9-2.8C68.6 41.7 69.4 32 69.4 32L72 14.5C67.8 7.5 40.4 8 40.4 8"/><defs><path id="a" d="M9.1 3.9h62.6v18.4H9.1z"/></defs><clipPath id="b"><use xlink:href="#a" overflow="visible"/></clipPath><path clip-path="url(#b)" fill="#D6543B" d="M71.7 12.4c0-4.7-14-8.5-31.3-8.5S9.1 7.7 9.1 12.4v1.4c0 4.7 14 8.5 31.3 8.5s31.3-3.8 31.3-8.5v-1.4z"/><path fill="#D6543B" d="M71.7 12.5c0 4.7-14 8.5-31.3 8.5S9.1 17.2 9.1 12.5 23.1 4 40.4 4s31.3 3.8 31.3 8.5"/><defs><path id="c" d="M9.1 12.5h62.6v8.8H9.1z"/></defs><clipPath id="d"><use xlink:href="#c" overflow="visible"/></clipPath><path clip-path="url(#d)" fill="#D6543B" d="M71.7 12.5c0 .7-.3 1.4-.8 1.9s-1 1-1.6 1.4c-1.2.8-2.5 1.4-3.8 1.9-2.7 1-5.4 1.6-8.2 2.2-5.6 1-11.2 1.4-16.9 1.4-5.7 0-11.3-.4-16.9-1.4-2.8-.5-5.6-1.2-8.2-2.2-1.3-.5-2.6-1.1-3.8-1.9-.6-.4-1.1-.8-1.6-1.4-.5-.5-.8-1.2-.8-1.9 0 .7.4 1.4.8 1.9.5.5 1 1 1.6 1.3 1.2.7 2.5 1.3 3.8 1.7 2.7.9 5.4 1.5 8.2 2 5.6.9 11.2 1.3 16.8 1.3 5.6 0 11.3-.4 16.8-1.3 2.8-.5 5.5-1.1 8.2-2 1.3-.5 2.6-1 3.8-1.7.6-.4 1.2-.8 1.6-1.3.6-.5 1-1.2 1-1.9"/><defs><path id="e" d="M9.1 13.8h62.6v8.8H9.1z"/></defs><clipPath id="f"><use xlink:href="#e" overflow="visible"/></clipPath><path clip-path="url(#f)" fill="#5E411A" d="M71.7 13.8c0 .7-.3 1.4-.8 1.9s-1 1-1.6 1.4c-1.2.8-2.5 1.4-3.8 1.9-2.7 1-5.4 1.6-8.2 2.2-5.6 1-11.2 1.4-16.9 1.4-5.7 0-11.3-.4-16.9-1.4-2.8-.5-5.6-1.2-8.2-2.2-1.3-.5-2.6-1.1-3.8-1.9-.6-.4-1.1-.8-1.6-1.4-.5-.5-.8-1.2-.8-1.9 0 .7.4 1.4.8 1.9.5.5 1 1 1.6 1.3 1.2.7 2.5 1.3 3.8 1.7 2.7.9 5.4 1.5 8.2 2 5.6.9 11.2 1.3 16.8 1.3 5.6 0 11.3-.4 16.8-1.3 2.8-.5 5.5-1.1 8.2-2 1.3-.5 2.6-1 3.8-1.7.6-.4 1.2-.8 1.6-1.3.6-.5 1-1.2 1-1.9"/><path fill="#D6543B" d="M71.7 12.5c0 4.7-14 8.5-31.3 8.5S9.1 17.2 9.1 12.5 23.1 4 40.4 4s31.3 3.8 31.3 8.5"/><path fill="#D96047" d="M38.9 4.3c14.5 0 26.4 3 28.1 6.8.2.3.2.8.2 1.1 0 4.3-12.7 7.7-28.3 7.7s-28.3-3.4-28.3-7.7c0-.3.1-.8.2-1.1 1.7-3.9 13.6-6.8 28.1-6.8"/><path fill="#DC6D54" d="M37.4 4.5c13.2 0 24.1 2.8 25.2 6.3.1.2.2.8.2 1 0 3.8-11.3 6.9-25.3 6.9s-25.3-3.1-25.3-6.9c0-.2.1-.8.2-1 .9-3.5 11.8-6.3 25-6.3"/><path fill="#DE7960" d="M35.9 4.8c12 0 21.7 2.6 22.3 5.8.1.1.1.8.1.9 0 3.4-10 6.1-22.3 6.1s-22.3-2.7-22.3-6.1c0-.1 0-.8.1-.9.4-3.3 10.2-5.8 22.1-5.8"/><path fill="#E1856C" d="M53.8 10.3c0-2.9-8.7-5.3-19.3-5.3-10.7 0-19.3 2.4-19.3 5.3v.8c0 2.9 8.7 5.3 19.3 5.3 10.7 0 19.3-2.4 19.3-5.3v-.8z"/><defs><path id="g" d="M24.4 4.6h31.8v8.6H24.4z"/></defs><clipPath id="h"><use xlink:href="#g" overflow="visible"/></clipPath><path clip-path="url(#h)" fill="#D6543B" d="M56.2 8.9c0 .7-.7 1.3-1.2 1.6-.6.4-1.3.7-1.9.9-1.3.5-2.7.8-4.1 1-2.8.5-5.7.7-8.5.7s-5.7-.2-8.5-.6c-1.4-.2-2.8-.5-4.2-1-.7-.2-1.3-.5-2-.9-.6-.4-1.3-.9-1.3-1.8 0-.4.2-.8.5-1.1.3-.3.6-.5.9-.7.6-.4 1.3-.7 2-.9 1.4-.5 2.8-.8 4.2-1 2.8-.5 5.7-.6 8.5-.6s5.7.2 8.5.7c1.4.3 2.8.6 4.1 1 .7.2 1.3.5 1.9.9.4.5 1.1 1 1.1 1.8m0 0c0-.7-.7-1.3-1.2-1.6-.6-.4-1.3-.6-1.9-.9-1.3-.5-2.7-.8-4.1-1-2.8-.5-5.6-.6-8.5-.6-2.8 0-5.7.2-8.5.7-1.4.2-2.8.6-4.1 1-.7.2-1.3.5-1.9.9-.6.4-1.1.9-1.1 1.5s.6 1.1 1.1 1.5c.6.4 1.2.6 1.9.9 1.3.5 2.7.8 4.1 1 2.8.5 5.6.7 8.5.7 2.8 0 5.7-.2 8.5-.6 1.4-.2 2.8-.5 4.1-1 .7-.2 1.3-.5 1.9-.9.5-.4 1.2-.9 1.2-1.6"/><defs><path id="i" d="M19.5 4.6h41.3v10.2H19.5z"/></defs><clipPath id="j"><use xlink:href="#i" overflow="visible"/></clipPath><path clip-path="url(#j)" fill="#D6543B" d="M60.8 9.7c0 .5-.3.9-.6 1.2-.3.3-.7.6-1.1.8-.8.4-1.7.8-2.5 1.1-1.7.6-3.5.9-5.4 1.2-3.6.6-7.3.8-11 .8s-7.3-.2-11-.7c-1.8-.3-3.6-.6-5.4-1.2-.9-.3-1.8-.6-2.6-1.1-.4-.2-.8-.5-1.2-.8-.3-.3-.7-.8-.7-1.3s.3-1 .7-1.3c.3-.3.7-.6 1.2-.8.8-.5 1.7-.8 2.6-1.1 1.8-.5 3.6-.9 5.4-1.2 3.6-.5 7.3-.7 11-.7s7.3.3 11 .8c1.8.3 3.6.7 5.4 1.2.9.3 1.7.6 2.5 1.1.4.2.8.5 1.1.8.3.3.6.7.6 1.2m0 0c0-.5-.3-.9-.6-1.2-.3-.3-.7-.6-1.1-.8-.8-.4-1.7-.8-2.5-1-1.7-.5-3.5-.9-5.4-1.2-3.7-.5-7.3-.7-11-.7s-7.3.3-10.9.8c-1.8.3-3.6.7-5.3 1.2-.9.3-1.7.6-2.5 1-.7.4-1.6 1-1.6 1.9 0 .4.2.8.5 1.1.3.3.7.6 1.1.8.8.4 1.6.8 2.5 1 1.7.6 3.5.9 5.3 1.2 3.6.6 7.3.8 10.9.8 3.7 0 7.3-.2 10.9-.7 1.8-.3 3.6-.6 5.4-1.2.9-.3 1.7-.6 2.5-1 .4-.2.8-.5 1.1-.8.4-.3.7-.7.7-1.2"/><g><defs><path id="k" d="M15.5 4.6h49.6v12.3H15.5z"/></defs><clipPath id="l"><use xlink:href="#k" overflow="visible"/></clipPath><path clip-path="url(#l)" fill="#D6543B" d="M65.1 10.7c0 .6-.3 1.1-.7 1.5-.4.4-.9.7-1.3 1-1 .5-2 .9-3 1.3-2.1.7-4.3 1.1-6.4 1.5-4.4.7-8.8 1-13.2 1-4.4 0-8.8-.2-13.2-.9-2.2-.3-4.4-.8-6.5-1.4-1.1-.3-2.1-.7-3.1-1.3-.5-.3-1-.6-1.4-1-.4-.4-.8-.9-.8-1.6 0-.6.4-1.2.8-1.6.4-.4.9-.7 1.4-1 1-.5 2-.9 3.1-1.3 2.1-.7 4.3-1.1 6.5-1.4 4.4-.7 8.8-.9 13.2-.9 4.4 0 8.8.3 13.2 1 2 .3 4.2.8 6.3 1.4 1 .3 2.1.7 3 1.3.5.3.9.6 1.3 1 .5.4.8.9.8 1.4m0 0c0-.6-.3-1.1-.7-1.4-.4-.4-.9-.7-1.3-1-1-.5-2-.9-3-1.3-2.1-.7-4.3-1.1-6.4-1.4-4.5-.6-8.9-.8-13.3-.8s-8.8.3-13.2 1c-2.2.3-4.3.8-6.4 1.5-1 .3-2.1.7-3 1.3-.5.3-.9.6-1.3.9-.4.4-.6.8-.6 1.3s.3.9.6 1.3c.4.4.8.7 1.3.9.9.5 2 .9 3 1.3 2.1.7 4.2 1.1 6.4 1.5 4.3.7 8.8 1 13.2 1 4.4 0 8.8-.2 13.2-.9 2.2-.3 4.3-.8 6.4-1.4 1-.3 2.1-.7 3-1.3.5-.3.9-.6 1.3-1 .5-.4.8-.9.8-1.5"/></g><g><defs><path id="m" d="M24.4 4.6h31.7v8.5H24.4z"/></defs><clipPath id="n"><use xlink:href="#m" overflow="visible"/></clipPath><path clip-path="url(#n)" fill="#D6543B" d="M24.4 8.9c0 .7.7 1.3 1.2 1.6.6.4 1.3.7 1.9.9 1.3.5 2.7.8 4.1 1 2.8.5 5.7.6 8.5.6s5.7-.2 8.5-.7c1.4-.2 2.8-.6 4.1-1 .7-.2 1.3-.5 1.9-.9.6-.4 1.2-.9 1.2-1.6 0-.7-.6-1.2-1.2-1.6-.6-.4-1.3-.7-1.9-.9-1.3-.5-2.7-.8-4.1-1-2.8-.5-5.6-.7-8.5-.7-2.8 0-5.7.2-8.5.6-1.4.2-2.8.5-4.1 1-.7.2-1.3.5-1.9.9-.5.5-1.2 1-1.2 1.8m0 0c0-.7.7-1.3 1.2-1.6.6-.4 1.3-.7 1.9-.9 1.3-.5 2.7-.8 4.1-1 2.8-.5 5.7-.7 8.5-.7s5.7.2 8.5.6c1.4.2 2.8.5 4.1 1 .7.2 1.3.5 1.9.9.6.4 1.2.9 1.3 1.7 0 .8-.7 1.3-1.3 1.7-.6.4-1.3.7-1.9.9-1.3.5-2.7.8-4.1 1-2.8.5-5.7.6-8.5.6s-5.7-.2-8.5-.7c-1.4-.2-2.8-.6-4.1-1-.7-.2-1.3-.5-1.9-.9-.5-.3-1.2-.9-1.2-1.6"/></g><g><defs><path id="o" d="M19.7 4.6h41.1v10.1H19.7z"/></defs><clipPath id="p"><use xlink:href="#o" overflow="visible"/></clipPath><path clip-path="url(#p)" fill="#D6543B" d="M19.7 9.7c0 .5.3.9.6 1.2.3.3.7.6 1.1.8.8.4 1.7.8 2.5 1 1.7.5 3.5.9 5.4 1.2 3.6.5 7.3.8 10.9.8 3.7 0 7.3-.2 10.9-.8 1.8-.3 3.6-.6 5.3-1.2.9-.3 1.7-.6 2.5-1 .4-.2.8-.5 1.1-.8.3-.3.6-.7.6-1.1 0-.4-.3-.8-.6-1.2-.2-.4-.6-.6-1-.8-.8-.4-1.7-.8-2.5-1-1.7-.6-3.5-.9-5.3-1.2-3.6-.6-7.3-.8-10.9-.8-3.7 0-7.3.2-10.9.8-1.8.3-3.6.6-5.4 1.2-.9.3-1.7.6-2.5 1-.4.2-.8.5-1.1.8-.4.2-.7.6-.7 1.1m0 0c0-.5.3-.9.6-1.2.3-.3.7-.6 1.1-.8.8-.4 1.7-.8 2.5-1.1 1.7-.6 3.5-.9 5.4-1.2 3.6-.6 7.3-.8 10.9-.8 3.7 0 7.3.2 11 .8 1.8.3 3.6.6 5.3 1.2.9.3 1.7.6 2.5 1.1.4.2.8.5 1.1.8.3.3.6.8.6 1.2 0 .5-.3.9-.6 1.3-.3.3-.7.6-1.1.8-.8.4-1.7.8-2.5 1-1.8.5-3.6.9-5.4 1.2-3.6.5-7.3.8-11 .8s-7.3-.2-10.9-.8c-1.8-.3-3.6-.7-5.4-1.2-.9-.3-1.7-.6-2.5-1.1-.4-.2-.8-.5-1.1-.8-.2-.3-.5-.7-.5-1.2"/></g><g><defs><path id="q" d="M15.5 4.6H65v12.2H15.5z"/></defs><clipPath id="r"><use xlink:href="#q" overflow="visible"/></clipPath><path clip-path="url(#r)" fill="#D6543B" d="M15.5 10.7c0 .6.3 1.1.7 1.4.4.4.9.7 1.3 1 1 .5 2 .9 3 1.3 2.1.7 4.3 1.1 6.4 1.4 4.4.7 8.8.9 13.2.9 4.4 0 8.8-.3 13.2-1 2.2-.3 4.3-.8 6.4-1.5 1-.3 2.1-.7 3-1.3.5-.3.9-.6 1.3-1s.7-.9.7-1.4c0-.5-.3-1-.7-1.4-.4-.4-.8-.7-1.3-1-1-.5-2-.9-3-1.3-2.1-.7-4.3-1.1-6.4-1.5-4.3-.3-8.7-.6-13.1-.6s-8.8.3-13.2.9c-2.2.3-4.3.8-6.4 1.4-1 .3-2.1.7-3 1.3-.5.3-.9.6-1.3 1-.5.4-.8.9-.8 1.4m0 0c0-.6.3-1.1.7-1.4.4-.4.9-.7 1.3-1 1-.5 2-.9 3-1.3 2.1-.7 4.3-1.1 6.4-1.5 4.4-.7 8.8-.9 13.2-1 4.4 0 8.8.3 13.2.9 2.2.3 4.3.8 6.5 1.4 1.1.3 2.1.7 3.1 1.3.5.3.9.6 1.3 1s.7.9.7 1.5-.3 1.1-.7 1.5c-.4.4-.9.7-1.3 1-1 .5-2 .9-3.1 1.3-2.1.7-4.3 1.1-6.5 1.4-4.4.7-8.8.9-13.2.9-4.4 0-8.8-.3-13.2-1-2.2-.3-4.3-.8-6.4-1.5-1-.3-2.1-.7-3-1.3-.5-.3-.9-.6-1.3-1-.4-.1-.7-.6-.7-1.2"/></g><path fill="#231F20" d="M33.7 1.6c0 1.2 1.6 1.6 2 1.8.4.3 1.9.9 1.9 3.6 0 0 .1 1.1 2.7 1.1V.3c-.1 0-6.6 0-6.6 1.3"/><path fill="#231F20" d="M40.2.3V8c2.6 0 2.7-1 2.7-1 0-2.7 1.5-3.3 1.9-3.6.4-.3 2-.6 2-1.8S40.2.3 40.2.3"/><path fill="#252A26" d="M46.8 1.4c0 .8-2.9 1.4-6.5 1.4s-6.5-.6-6.5-1.4S36.6 0 40.2 0s6.6.6 6.6 1.4"/><g><defs><path id="s" d="M33.7 1.4h13.1v1.7H33.7z"/></defs><clipPath id="t"><use xlink:href="#s" overflow="visible"/></clipPath><path clip-path="url(#t)" fill="#252A26" d="M46.8 1.4c0 .3-.3.5-.5.7-.3.1-.5.3-.8.4-.6.2-1.1.3-1.7.4-1.2.2-2.3.3-3.5.3-1.2 0-2.3-.1-3.5-.3-.6-.1-1.1-.2-1.7-.4-.3-.1-.6-.2-.8-.4-.3-.1-.6-.3-.6-.7 0 .3.3.5.6.6.3.1.5.2.8.2.6.1 1.1.2 1.7.3 1.1.1 2.3.2 3.4.2s2.3 0 3.4-.2c.6-.1 1.1-.1 1.7-.3.3-.1.6-.1.8-.2.3-.1.6-.3.7-.6"/></g></svg>