<svg xmlns="http://www.w3.org/2000/svg" xmlns:xlink="http://www.w3.org/1999/xlink" width="66.4" height="50.9" viewBox="0 0 66.4 50.9"><path fill="#5E411A" d="M46.4 9.3c0 .6-.5 1.2-1.2 1.2H23c-.6 0-1.2-.5-1.2-1.2s.5-1.2 1.2-1.2h22.2c.6.1 1.2.6 1.2 1.2"/><path fill="#C78962" d="M66.4 48c0 1.5-1.3 2.8-2.8 2.8H2.9C1.4 50.8.1 49.5.1 48V11.6c0-1.5 1.3-2.8 2.8-2.8h60.7c1.5 0 2.8 1.3 2.8 2.8V48z"/><path fill="#8B4D47" d="M7.7 8.8H2.8C1.3 8.8 0 10.1 0 11.6v4.9c4.2 0 7.7-3.5 7.7-7.7M66.3 16.5v-4.9c0-1.5-1.3-2.8-2.8-2.8h-4.9c0 4.2 3.5 7.7 7.7 7.7M0 43.2V48c0 1.5 1.3 2.8 2.8 2.8h4.9c0-4.2-3.5-7.6-7.7-7.6M66.3 48v-4.9c-4.2 0-7.7 3.4-7.7 7.7h4.9c1.6 0 2.8-1.2 2.8-2.8"/><path fill="none" stroke="#8B4D47" stroke-width="2.648" stroke-miterlimit="10" d="M25.9 8.8V3.5c0-1 .8-1.9 1.9-1.9h12.5c1 0 1.9.8 1.9 1.9v5.3"/><defs><path id="a" d="M2.9 8.8h61v1.3h-61z"/></defs><clipPath id="b"><use xlink:href="#a" overflow="visible"/></clipPath><path clip-path="url(#b)" fill="#8B4D47" d="M2.9 8.8l30.5-.1 30.5.1V9c-2.5.3-5.1.4-7.6.5l-7.6.3c-5.1.2-10.2.2-15.3.3-5.1-.1-10.1-.1-15.2-.3l-7.6-.3C8 9.3 5.5 9.2 2.9 9v-.2z"/><g opacity=".4"><defs><path id="c" d="M2.8 48.9h61v2h-61z"/></defs><clipPath id="d"><use xlink:href="#c" overflow="visible"/></clipPath><path clip-path="url(#d)" fill="#8B4D47" d="M63.8 50.8l-30.5.1-30.5-.1v-.2c2.5-.4 5.1-.5 7.6-.8 2.5-.2 5.1-.4 7.6-.5 2.5-.2 5.1-.2 7.6-.3l7.6-.1 7.8.1c2.5.1 5.1.1 7.6.3 2.5.1 5.1.3 7.6.5 2.5.3 5.1.4 7.6.8v.2z"/></g><path fill="#ECC57C" d="M51.4 8.8V24.4c0 4.6 2.7 5.4 2.7 5.4s2.7-.8 2.7-5.4V8.8h-5.4zm2.7 17.4c-.2 0-.4-.2-.4-.4s.2-.4.4-.4.4.2.4.4c.1.2-.1.4-.4.4m0-2.4c-.2 0-.4-.2-.4-.4s.2-.4.4-.4.4.2.4.4c.1.2-.1.4-.4.4m0-2.3c-.2 0-.4-.2-.4-.4s.2-.4.4-.4.4.2.4.4-.1.4-.4.4m0-2.4c-.2 0-.4-.2-.4-.4s.2-.4.4-.4.4.2.4.4c.1.2-.1.4-.4.4m0-2.4c-.2 0-.4-.2-.4-.4s.2-.4.4-.4.4.2.4.4c.1.2-.1.4-.4.4m0-2.4c-.2 0-.4-.2-.4-.4s.2-.4.4-.4.4.2.4.4-.1.4-.4.4m0-2.3c-.2 0-.4-.2-.4-.4s.2-.4.4-.4.4.2.4.4c.1.2-.1.4-.4.4"/><path fill="#DCDBDB" d="M56.3 23.5H52c-.5 0-.9.4-.9.9V30c0 .5.4.9.9.9h4.3c.5 0 .9-.4.9-.9v-5.6c0-.5-.4-.9-.9-.9m.5 6.1c0 .5-.2.9-.8.9h-3.9c-.5 0-.8-.4-.8-.9v-4.7c0-.5.2-.9.8-.9H56c.5 0 .8.4.8.9v4.7z"/><path fill="#ECC57C" d="M54.1 29.8s-2.7-.8-2.7-5.4v26.4h5.4V24.4c0 4.6-2.7 5.4-2.7 5.4"/><defs><path id="e" d="M51.4 24.6h5.4v5.7h-5.4z"/></defs><clipPath id="f"><use xlink:href="#e" overflow="visible"/></clipPath><path clip-path="url(#f)" fill="#ECC57C" d="M54.1 29.7s-2.7-.5-2.7-5.1v.3c0 4.6 2.7 5.4 2.7 5.4s2.7-.8 2.7-5.4v-.3c0 4.6-2.7 5.1-2.7 5.1"/><path fill="#C8C7C7" d="M54.1 26.3c-.1-.1-.2-.3-.3-.4V23.6c.1-.1.2-.3.3-.4.1.1.2.3.3.4V26l-.3.3"/><path fill="#ECC57C" d="M9.7 8.8V24.4c0 4.6 2.7 5.4 2.7 5.4s2.7-.8 2.7-5.4V8.8H9.7zm2.7 17.4c-.2 0-.4-.2-.4-.4s.2-.4.4-.4.4.2.4.4-.2.4-.4.4m0-2.4c-.2 0-.4-.2-.4-.4s.2-.4.4-.4.4.2.4.4-.2.4-.4.4m0-2.3c-.2 0-.4-.2-.4-.4s.2-.4.4-.4.4.2.4.4-.2.4-.4.4m0-2.4c-.2 0-.4-.2-.4-.4s.2-.4.4-.4.4.2.4.4-.2.4-.4.4m0-2.4c-.2 0-.4-.2-.4-.4s.2-.4.4-.4.4.2.4.4-.2.4-.4.4m0-2.4c-.2 0-.4-.2-.4-.4s.2-.4.4-.4.4.2.4.4-.2.4-.4.4m0-2.3c-.2 0-.4-.2-.4-.4s.2-.4.4-.4.4.2.4.4-.2.4-.4.4"/><path fill="#DCDBDB" d="M14.6 23.5h-4.3c-.5 0-.9.4-.9.9V30c0 .5.4.9.9.9h4.3c.5 0 .9-.4.9-.9v-5.6c0-.5-.4-.9-.9-.9m.5 6.1c0 .5-.2.9-.8.9h-3.9c-.5 0-.8-.4-.8-.9v-4.7c0-.5.2-.9.8-.9h3.9c.5 0 .8.4.8.9v4.7z"/><path fill="#ECC57C" d="M12.4 29.8s-2.7-.8-2.7-5.4v26.4h5.4V24.4c0 4.6-2.7 5.4-2.7 5.4"/><defs><path id="g" d="M9.7 24.6h5.4v5.7H9.7z"/></defs><clipPath id="h"><use xlink:href="#g" overflow="visible"/></clipPath><path clip-path="url(#h)" fill="#ECC57C" d="M12.4 29.7s-2.7-.5-2.7-5.1v.3c0 4.6 2.7 5.4 2.7 5.4s2.7-.8 2.7-5.4v-.3c0 4.6-2.7 5.1-2.7 5.1"/><path fill="#C8C7C7" d="M12.4 26.3c-.1-.1-.2-.3-.3-.4V23.6c.1-.1.2-.3.3-.4.1.1.2.3.3.4V26c-.1 0-.2.1-.3.3"/><path fill="#8B4D47" d="M29.8 2.3c0 .6-.4 1-1 1s-1-.4-1-1V1c0-.6.4-1 1-1s1 .4 1 1v1.3z"/><path fill="#8B4D47" d="M31.4 2.3c0 .6-.4 1-1 1s-1-.4-1-1V1c0-.6.4-1 1-1s1 .4 1 1v1.3z"/><path fill="#8B4D47" d="M32.9 2.3c0 .6-.4 1-1 1s-1-.4-1-1V1c0-.6.4-1 1-1s1 .4 1 1v1.3z"/><path fill="#8B4D47" d="M34.4 2.3c0 .6-.4 1-1 1s-1-.4-1-1V1c0-.6.4-1 1-1s1 .4 1 1v1.3z"/><path fill="#8B4D47" d="M36 2.3c0 .6-.4 1-1 1s-1-.4-1-1V1c0-.6.4-1 1-1s1 .4 1 1v1.3z"/><path fill="#8B4D47" d="M37.5 2.3c0 .6-.4 1-1 1s-1-.4-1-1V1c0-.6.4-1 1-1s1 .4 1 1v1.3z"/><path fill="#8B4D47" d="M39 2.3c0 .6-.4 1-1 1s-1-.4-1-1V1c0-.6.4-1 1-1s1 .4 1 1v1.3z"/><path fill="#8B4D47" d="M40.6 2.3c0 .6-.4 1-1 1s-1-.4-1-1V1c0-.6.4-1 1-1s1 .4 1 1v1.3z"/><g opacity=".7"><defs><path id="i" d="M27.8 0h12.8v1.3H27.8z"/></defs><clipPath id="j"><use xlink:href="#i" overflow="visible"/></clipPath><path clip-path="url(#j)" fill="#8B4D47" d="M38.9.5c.2-.2.4-.3.7-.3.6 0 1 .4 1 1V1c0-.6-.4-1-1-1-.3 0-.6.2-.8.4-.2-.2-.4-.4-.8-.4-.3 0-.6.2-.8.4-.1-.2-.4-.4-.7-.4-.3 0-.6.2-.8.4-.2-.2-.4-.4-.7-.4-.3 0-.6.2-.8.4-.2-.2-.5-.4-.8-.4-.3 0-.6.2-.8.4-.1-.2-.4-.4-.7-.4-.3 0-.6.2-.8.4-.2-.2-.4-.4-.7-.4-.3 0-.6.2-.8.4-.2-.2-.5-.4-.8-.4-.6 0-1 .4-1 1v.3c0-.6.4-1 1-1 .3 0 .5.1.7.3h.2c.2-.2.4-.3.7-.3.3 0 .5.1.7.3h.2c.2-.2.4-.3.7-.3.3 0 .5.1.7.3h.2c.2-.2.4-.3.7-.3.3 0 .5.1.7.3h.2c.2-.2.4-.3.7-.3.3 0 .5.1.7.3h.2c.2-.2.4-.3.7-.3.3 0 .5.1.7.3h.2c.2-.2.4-.3.7-.3.3 0 .5.1.7.3h-.2z"/></g><defs><path id="k" d="M38.6.4h.5v2.5h-.5z"/></defs><clipPath id="l"><use xlink:href="#k" overflow="visible"/></clipPath><path clip-path="url(#l)" fill="#8B4D47" d="M38.6 1v1.3c0 .2.1.4.2.6.1-.1.2-.4.2-.6V1c0-.2-.1-.4-.2-.6-.1.2-.2.4-.2.6"/><defs><path id="m" d="M40.1.4h.5v2.5h-.5z"/></defs><clipPath id="n"><use xlink:href="#m" overflow="visible"/></clipPath><path clip-path="url(#n)" fill="#8B4D47" d="M40.1 1v1.3c0 .2.1.4.2.6.1-.2.2-.4.2-.6V1c0-.2-.1-.4-.2-.6-.1.2-.2.4-.2.6"/><defs><path id="o" d="M37 .4h.5v2.5H37z"/></defs><clipPath id="p"><use xlink:href="#o" overflow="visible"/></clipPath><path clip-path="url(#p)" fill="#8B4D47" d="M37 1v1.3c0 .2.1.4.2.6.1-.2.2-.4.2-.6V1c0-.2-.1-.4-.2-.6-.1.2-.2.4-.2.6"/><defs><path id="q" d="M35.5.4h.5v2.5h-.5z"/></defs><clipPath id="r"><use xlink:href="#q" overflow="visible"/></clipPath><path clip-path="url(#r)" fill="#8B4D47" d="M35.5 1v1.3c0 .2.1.4.2.6.2-.1.3-.4.3-.6V1c0-.2-.1-.4-.2-.6-.2.2-.3.4-.3.6"/><g><defs><path id="s" d="M34 .4h.5v2.5H34z"/></defs><clipPath id="t"><use xlink:href="#s" overflow="visible"/></clipPath><path clip-path="url(#t)" fill="#8B4D47" d="M34 1v1.3c0 .2.1.4.2.6.1-.2.2-.4.2-.6V1c0-.2-.1-.4-.2-.6-.1.2-.2.4-.2.6"/></g><g><defs><path id="u" d="M32.4.4h.5v2.5h-.5z"/></defs><clipPath id="v"><use xlink:href="#u" overflow="visible"/></clipPath><path clip-path="url(#v)" fill="#8B4D47" d="M32.4 1v1.3c0 .2.1.4.2.6.1-.2.2-.4.2-.6V1c0-.2-.1-.4-.2-.6-.1.2-.2.4-.2.6"/></g><g><defs><path id="w" d="M30.9.4h.5v2.5h-.5z"/></defs><clipPath id="x"><use xlink:href="#w" overflow="visible"/></clipPath><path clip-path="url(#x)" fill="#8B4D47" d="M30.9 1v1.3c0 .2.1.4.2.6.1-.2.2-.4.2-.6V1c0-.2-.1-.4-.2-.6-.1.2-.2.4-.2.6"/></g><g><defs><path id="y" d="M29.3.4h.5v2.5h-.5z"/></defs><clipPath id="z"><use xlink:href="#y" overflow="visible"/></clipPath><path clip-path="url(#z)" fill="#8B4D47" d="M29.3 1v1.3c0 .2.1.4.2.6.1-.2.2-.4.2-.6V1c0-.2-.1-.4-.2-.6-.1.2-.2.4-.2.6"/></g><g><defs><path id="A" d="M27.8.4h.5v2.5h-.5z"/></defs><clipPath id="B"><use xlink:href="#A" overflow="visible"/></clipPath><path clip-path="url(#B)" fill="#8B4D47" d="M27.8 1v1.3c0 .2.1.4.2.6.1-.2.2-.4.2-.6V1c0-.2-.1-.4-.2-.6-.1.2-.2.4-.2.6"/></g><g><defs><path id="C" d="M26.7 2.6h1.1v5.2h-1.1z"/></defs><clipPath id="D"><use xlink:href="#C" overflow="visible"/></clipPath><path clip-path="url(#D)" fill="#8B4D47" d="M27.8 2.6c-.5.1-.8.5-.8.9v1.4c0 .9 0 1.9-.1 2.8-.1-.9-.1-1.9-.1-2.8V3.5c0-.2.2-.5.3-.7.2-.1.5-.2.7-.2"/></g><g><defs><path id="E" d="M40.6 2.6h1.1v5.2h-1.1z"/></defs><clipPath id="F"><use xlink:href="#E" overflow="visible"/></clipPath><path clip-path="url(#F)" fill="#8B4D47" d="M40.6 2.6c.2 0 .5.1.7.2.2.2.3.4.3.7.1.5 0 1 0 1.4 0 .9 0 1.9-.1 2.8-.1-.9-.1-1.9-.1-2.8V3.5c0-.4-.3-.8-.8-.9"/></g><path fill="#B52126" d="M49.4 40.9c0 2.9-2.4 5.3-5.3 5.3s-5.3-2.4-5.3-5.3 2.4-5.3 5.3-5.3c3 0 5.3 2.4 5.3 5.3"/><path fill="#FFF" d="M47.8 40.9c0 2.1-1.7 3.7-3.7 3.7s-3.7-1.7-3.7-3.7c0-2.1 1.7-3.7 3.7-3.7s3.7 1.6 3.7 3.7"/><path fill="#1498C3" d="M46.3 40.9c0 1.2-1 2.2-2.2 2.2s-2.2-1-2.2-2.2c0-1.2 1-2.2 2.2-2.2s2.2 1 2.2 2.2"/><path fill="#BCA66D" d="M9.7 50.2h5.4v.6H9.7zM51.4 50.2h5.4v.6h-5.4z"/><g><defs><path id="G" d="M9.7 8.8h5.4v.6H9.7z"/></defs><clipPath id="H"><use xlink:href="#G" overflow="visible"/></clipPath><path clip-path="url(#H)" fill="#BCA66D" d="M9.7 8.8h5.4v.6H9.7z"/></g><g><defs><path id="I" d="M51.4 8.8h5.4v.6h-5.4z"/></defs><clipPath id="J"><use xlink:href="#I" overflow="visible"/></clipPath><path clip-path="url(#J)" fill="#BCA66D" d="M51.4 8.8h5.4v.6h-5.4z"/></g></svg>