<svg xmlns="http://www.w3.org/2000/svg" xmlns:xlink="http://www.w3.org/1999/xlink" width="64" height="64" viewBox="0 0 64 64"><path fill="#E9E9E9" d="M63 32c0 17.1-13.9 31-31 31S1.1 49.1 1.1 32 14.9 1.1 32 1.1c17.1 0 31 13.8 31 30.9"/><circle fill="none" stroke="#918F90" stroke-width="2.183" stroke-miterlimit="10" cx="32" cy="32" r="30.9"/><defs><path id="a" d="M1.1 29H63v33.9H1.1z"/></defs><clipPath id="b"><use xlink:href="#a" overflow="visible"/></clipPath><path clip-path="url(#b)" fill="#918F90" d="M61.9 32c0 16.5-13.4 29.8-29.8 29.8S2.2 48.5 2.2 32c0-.8 0-1.6.1-2.4-.4-.2-.7-.4-1-.6-.1 1-.1 2-.1 3C1.1 49.1 14.9 63 32 63s31-13.9 31-31c0-1-.1-2-.1-3-.3.2-.7.4-1 .6-.1.8 0 1.6 0 2.4"/><defs><path id="c" d="M1.2 1.1h61.6v28.6H1.2z"/></defs><clipPath id="d"><use xlink:href="#c" overflow="visible"/></clipPath><path clip-path="url(#d)" fill="#918F90" d="M32 1.1C16 1.1 2.7 13.3 1.2 29c.3.2.7.4 1 .6C3.5 14.3 16.4 2.2 32 2.2s28.5 12.1 29.7 27.5c.4-.2.7-.4 1-.6-1.4-15.8-14.6-28-30.7-28"/><path fill="#231F20" d="M31.8 3.8h.5v2.9h-.5zM29.61 6.843l-.498.052-.304-2.884.497-.05zM27.034 7.264l-.49.104-.606-2.836.49-.104zM24.476 7.944L24 8.1l-.896-2.76.476-.154zM21.993 8.873l-.457.203-1.18-2.65.458-.202zM19.617 10.02l-.433.25-1.45-2.514.434-.25zM17.362 11.483l-.405.294-1.704-2.347.405-.294zM15.29 13.08l-.372.336-1.943-2.153.37-.335zM13.398 14.903l-.334.372-2.156-1.94.335-.372zM11.657 16.976l-.294.405-2.35-1.7.295-.405zM10.274 19.144l-.25.434-2.514-1.445.25-.433zM9.01 21.552l-.2.457-2.653-1.175.202-.457zM8.053 24.02l-.154.476-2.76-.89.152-.475zM7.365 26.495l-.102.49-2.84-.596.104-.49zM6.884 29.137l-.052.498-2.884-.298.05-.498zM3.8 31.8h2.9v.5H3.8zM6.9 34.9v-.5l-2.9.3v.5M7.4 37.5l-.2-.5-2.8.6.1.5M7.945 39.627l.157.475-2.754.91-.157-.475zM9 42.5l-.2-.4-2.6 1.2.2.4M10.3 44.9l-.3-.4-2.5 1.4.2.4M11.7 47.1l-.3-.4-2.3 1.7.3.4M13.4 49.1l-.3-.3-2.2 1.9.3.4M14.955 50.623l.372.334-1.936 2.16-.37-.335zM16.99 52.352l.404.293-1.7 2.35-.404-.293zM19.17 53.767l.433.25-1.442 2.514-.433-.247zM21.503 55.022l.458.202-1.17 2.653-.458-.202zM23.96 55.99l.475.154-.89 2.76-.477-.153zM26.51 56.676l.49.103-.6 2.837-.488-.103zM29.148 57.185l.497.052-.3 2.885-.496-.052zM31.8 57.3h.5v2.9h-.5zM34.454 57.233l.497-.053.306 2.884-.497.053zM37 56.79l.49-.105.605 2.836-.49.105zM39.564 56.16l.476-.153.896 2.758-.476.155zM42.13 55.202l.457-.203 1.18 2.647-.456.204zM44.4 54.04l.432-.25 1.45 2.51-.432.25zM46.692 52.612l.405-.293 1.698 2.35-.405.293zM48.76 50.92l.37-.333 1.94 2.156-.37.334zM50.65 49.18l.336-.37 2.15 1.945-.336.37zM52.34 47.094l.294-.404 2.343 1.708-.294.404zM54 44.5l-.2.4 2.5 1.4.3-.4M54.977 42.506l.204-.457 2.648 1.185-.205.456zM55.96 40.057l.156-.475 2.755.905-.155.475zM56.665 37.54l.106-.49 2.835.613-.106.49zM57.18 34.872l.054-.497 2.883.316-.055.498zM57.3 31.8h2.9v.5h-2.9zM57.208 29.586l-.05-.497 2.885-.293.05.497zM56.795 27.035l-.102-.49 2.838-.595.103.49zM56.13 24.45l-.152-.477 2.763-.882.153.477zM55.22 21.965l-.2-.457 2.65-1.174.203.457zM54.05 19.62l-.25-.433 2.52-1.437.247.434zM52.657 17.344l-.292-.405 2.35-1.7.293.406zM51.017 15.31l-.333-.374 2.164-1.93.333.373zM49.093 13.38l-.37-.337 1.946-2.15.37.336zM47.045 11.745l-.404-.295 1.713-2.34.404.294zM44.5 10l.4.3 1.4-2.6-.4-.2M42.465 9.054l-.456-.205 1.186-2.647.456.204zM40.09 8.113l-.474-.156.903-2.756.474.157zM37.554 7.378l-.488-.105.605-2.836.49.105zM34.886 6.887l-.497-.053.308-2.884.497.054z"/><path fill="#231F20" d="M31.2 3.8h1.7V9h-1.7zM17.227 8.07l1.472-.85 2.598 4.504-1.472.85zM7.17 18.682l.85-1.472 4.503 2.6-.85 1.473zM3.8 31.2H9v1.7H3.8zM8.064 46.85l-.85-1.473 4.503-2.6.85 1.47zM18.612 56.874l-1.472-.85 2.6-4.503 1.473.85zM31.2 55h1.7v5.2h-1.7zM46.856 55.954l-1.472.85-2.598-4.506 1.473-.85zM56.86 45.39l-.852 1.47-4.502-2.6.85-1.472zM55 31.2h5.2v1.7H55zM56.034 17.17l.85 1.473-4.504 2.598-.85-1.47zM45.402 7.237l1.472.85-2.6 4.503-1.472-.85z"/><path fill="#D3D2D2" d="M34.3 32c0 1.3-1 2.3-2.3 2.3-1.3 0-2.3-1-2.3-2.3s1-2.3 2.3-2.3c1.3 0 2.3 1 2.3 2.3"/><path fill="none" stroke="#231F20" stroke-width="2.183" stroke-miterlimit="10" d="M48.2 15.8L32 32"/><path fill="none" stroke="#231F20" stroke-width=".728" stroke-miterlimit="10" d="M32 32H9.9"/><path fill="#A82526" d="M31.8 30.5l-9.9-17.2c.7-.7.8-1.7.3-2.6-.6-1-1.9-1.4-2.9-.8s-1.4 1.9-.8 2.9c.5.9 1.5 1.2 2.4 1L30.8 31c-.4.5-.5 1.2-.2 1.8.3.6 1 .9 1.6.8l2.7 4.7.9-.5-2.6-4.8c.4-.5.5-1.2.2-1.8s-1-.9-1.6-.7"/><path fill="#918F90" d="M33 32c0 .5-.4 1-1 1-.5 0-1-.4-1-1s.4-1 1-1c.5.1 1 .5 1 1"/><g><defs><path id="e" d="M30.8 31.7h2.4v1.5h-2.4z"/></defs><clipPath id="f"><use xlink:href="#e" overflow="visible"/></clipPath><path clip-path="url(#f)" fill="#918F90" d="M32.7 32c0 .4-.3.7-.7.7-.4 0-.7-.3-.7-.7v-.1c-.2 0-.3-.1-.5-.2v.2c0 .7.5 1.2 1.2 1.2s1.2-.5 1.2-1.2c0-.1 0-.2-.1-.3-.1.2-.2.3-.4.4"/></g><g><defs><path id="g" d="M30.8 30.8h2.3v1.1h-2.3z"/></defs><clipPath id="h"><use xlink:href="#g" overflow="visible"/></clipPath><path clip-path="url(#h)" fill="#918F90" d="M32 30.8c-.6 0-1.1.4-1.2 1 .1.1.3.1.5.2 0-.4.3-.6.7-.6.4 0 .6.3.7.6.2 0 .3-.1.5-.2-.2-.6-.6-1-1.2-1"/></g></svg>