<svg xmlns="http://www.w3.org/2000/svg" xmlns:xlink="http://www.w3.org/1999/xlink" width="59.6" height="56.9" viewBox="0 0 59.6 56.9"><path fill="#D6543B" d="M35.6 0H25.1L12.6 54.2h35.5"/><path fill="#FEFAF9" d="M20.1 21.7h20.5l-2.5-10.9H22.6M15.1 43.4h30.5l-2.5-10.9H17.6"/><g opacity=".8"><defs><path id="a" d="M34.7 0h13.4v54.2H34.7z"/></defs><clipPath id="b"><use xlink:href="#a" overflow="visible"/></clipPath><path clip-path="url(#b)" fill="#D6543B" d="M35.6 0h-.9L45 54.2h3.1"/></g><g opacity=".8"><defs><path id="c" d="M12.6 0H26v54.2H12.6z"/></defs><clipPath id="d"><use xlink:href="#c" overflow="visible"/></clipPath><path clip-path="url(#d)" fill="#D6543B" d="M25.1 0L12.6 54.2h3.1L26 0"/></g><g opacity=".5"><defs><path id="e" d="M15.7 0h11.4v54.2H15.7z"/></defs><clipPath id="f"><use xlink:href="#e" overflow="visible"/></clipPath><path clip-path="url(#f)" fill="#D6543B" d="M26 0L15.7 54.2h4.7L27.1 0"/></g><g opacity=".5"><defs><path id="g" d="M32.7 0H45v54.2H32.7z"/></defs><clipPath id="h"><use xlink:href="#g" overflow="visible"/></clipPath><path clip-path="url(#h)" fill="#D6543B" d="M32.7 0l6.7 54.2H45L34.7 0"/></g><g opacity=".65"><defs><path id="i" d="M22.5.5h7.8v51.1h-7.8z"/></defs><clipPath id="j"><use xlink:href="#i" overflow="visible"/></clipPath><path clip-path="url(#j)" fill="#F9E5E2" d="M30.4.6h-2.1c-.5.2-.6.8-.7 1.4l-.2 1.6-.3 3.2-.6 6.4L25.3 26c-.9 8.6-1.8 17.1-2.7 25.7.7-8.6 1.6-17.1 2.4-25.7l1.3-12.8.7-6.5.4-3.2.2-1.6c.1-.5.2-1.1.8-1.4l2 .1z"/></g><g opacity=".65"><defs><path id="k" d="M21.4.5h8.5v52.7h-8.5z"/></defs><clipPath id="l"><use xlink:href="#k" overflow="visible"/></clipPath><path clip-path="url(#l)" fill="#F9E5E2" d="M29.9.6h-2.1c-.5.2-.6.9-.7 1.4L27 3.6 26.7 7l-.7 6.6-1.4 13.2c-1 8.8-2 17.6-3.1 26.4.9-8.8 1.9-17.6 2.8-26.5l1.5-13.2.8-6.6.4-3.3.1-1.6c.1-.5.2-1.2.8-1.4h2z"/></g><path fill="#D6543B" d="M59.6 55.8c0 .6-.5 1.1-1.1 1.1H1.1c-.6 0-1.1-.5-1.1-1.1v-.5c0-.6.5-1.1 1.1-1.1h57.3c.6 0 1.1.5 1.1 1.1v.5z"/><g opacity=".8"><defs><path id="m" d="M50.2 54.2h9.4v2.7h-9.4z"/></defs><clipPath id="n"><use xlink:href="#m" overflow="visible"/></clipPath><path clip-path="url(#n)" fill="#D6543B" d="M58.4 54.2h-8.3c.6 0 .5.5.5 1.1v.5c0 .6.1 1.1-.5 1.1h8.3c.6 0 1.1-.5 1.1-1.1v-.5c.1-.6-.4-1.1-1.1-1.1"/></g><defs><path id="o" d="M8.9 53.5h43v.8h-43z"/></defs><clipPath id="p"><use xlink:href="#o" overflow="visible"/></clipPath><path clip-path="url(#p)" fill="#D6543B" d="M8.9 54.2l5.4-.3 5.4-.2c3.6-.1 7.2-.1 10.7-.1 3.6.1 7.2 0 10.7.1l5.4.2 5.4.3v.1H30.4l-21.5-.1z"/><g><defs><path id="q" d="M50.5 54.6h.4v2h-.4z"/></defs><clipPath id="r"><use xlink:href="#q" overflow="visible"/></clipPath><path clip-path="url(#r)" fill="#D6543B" d="M50.7 54.6c.2.3.2.7.2 1 0 .3 0 .7-.2 1-.2-.3-.2-.7-.2-1 0-.4 0-.7.2-1"/></g></svg>