<svg xmlns="http://www.w3.org/2000/svg" xmlns:xlink="http://www.w3.org/1999/xlink" width="76.7" height="41.9" viewBox="0 0 76.7 41.9"><path fill="#231F20" d="M75.8 10.7V4.1H.9v6.7H0v28.9C0 41.6 1.6 42 1.6 42H75s1.6-.4 1.6-2.3v-29h-.8z"/><path fill="#231F20" d="M.1 8.3c0 1.7.9 2.3.9 2.3V4.3h37.4V0H.1v8.3zM38.4 0v4.3h37.4v6.3s.9-.6.9-2.3V0H38.4z"/><defs><path id="a" d="M1 3.6h74.6v.7H1z"/></defs><clipPath id="b"><use xlink:href="#a" overflow="visible"/></clipPath><path clip-path="url(#b)" fill="#231F20" d="M1 3.6h74.6v.7H1z"/><path d="M1 3.6v7.2s-.1-.5-.1-1.1C.9 9 .8 8.1.8 7.2c0-.9.1-1.8.1-2.5 0-.6.1-1.1.1-1.1zM75.6 3.6v7.2s-.1-.5-.1-1.1c0-.7-.1-1.6-.1-2.5 0-.9.1-1.8.1-2.5 0-.6.1-1.1.1-1.1z"/><defs><path id="c" d="M.5 5h74.8v36.5H.5z"/></defs><clipPath id="d"><use xlink:href="#c" overflow="visible"/></clipPath><path clip-path="url(#d)" fill="#5A5758" d="M74.6 41.1H1.9c-.2-.1-1.1-.5-1.1-1.6v-28H1.7V5.1L1.5 5v6.2h-1v28.4c0 1.4 1.1 1.9 1.4 1.9h72.8c.1 0 .4-.1.6-.4L75 41c-.1.1-.3.1-.4.1"/><g opacity=".5"><defs><path id="e" d="M1.5 4.5h74.6v36.6H1.5z"/></defs><clipPath id="f"><use xlink:href="#e" overflow="visible"/></clipPath><path clip-path="url(#f)" fill="#231F20" d="M76 39.5V11.2h-.9V4.5H1.5V5l.3.2v-.4h73v6.6H75.7v28c0 .8-.4 1.2-.7 1.4l.3.2c.4-.2.7-.7.7-1.5"/></g><path fill="#D3D2D2" d="M5.5 12.8c-2 3.1-3.1 6.4-3.1 10 0 3.6 1.1 6.9 3.1 10h14.2v-20H5.5zM56.9 32.8H71c2-3.1 3.1-6.4 3.1-10 0-3.6-1.1-6.9-3.1-10H56.9v20z"/><g opacity=".8"><defs><path id="g" d="M2 12h72.5v10.4H2z"/></defs><clipPath id="h"><use xlink:href="#g" overflow="visible"/></clipPath><path clip-path="url(#h)" fill="#D3D2D2" d="M5.3 12.5h65.9l.1.2c2.1 3.1 3.2 6.4 3.2 9.7 0-3.6-1.1-7-3.2-10.2l-.1-.2H5.3l-.1.2C3.1 15.4 2 18.8 2 22.4c0-3.4 1.1-6.7 3.2-9.7l.1-.2z"/></g><g opacity=".5"><defs><path id="i" d="M2 23.5h72.5v10.4H2z"/></defs><clipPath id="j"><use xlink:href="#i" overflow="visible"/></clipPath><path clip-path="url(#j)" fill="#D3D2D2" d="M71.4 33.2l-.1.2h-66l-.1-.2C3.1 30.1 2 26.8 2 23.5c0 3.6 1.1 7 3.2 10.2l.1.2h65.9l.1-.2c2.1-3.2 3.2-6.7 3.2-10.2 0 3.3-1 6.6-3.1 9.7"/></g><defs><path id="k" d="M2.1 16.4h18v16.8h-18z"/></defs><clipPath id="l"><use xlink:href="#k" overflow="visible"/></clipPath><path clip-path="url(#l)" fill="#5A5758" d="M5.6 32.8c-2-3.1-3.1-6.4-3.1-10 0-2.1.4-4.1 1.1-6l-.3-.3c-.8 2.1-1.2 4.2-1.2 6.4 0 3.6 1.1 7 3.2 10.2l.1.2H20l-.4-.4h-14z"/><defs><path id="m" d="M56.6 18.5h14.7v14.7H56.6z"/></defs><clipPath id="n"><use xlink:href="#m" overflow="visible"/></clipPath><path clip-path="url(#n)" fill="#5A5758" d="M57 32.8V18.9l-.4-.4V33.2h14.7l-.4-.4"/><defs><path id="o" d="M3.3 12.4h17v20.8h-17z"/></defs><clipPath id="p"><use xlink:href="#o" overflow="visible"/></clipPath><path clip-path="url(#p)" fill="#231F20" d="M20.3 32.8V12.4H5.4l-.1.2c-.8 1.3-1.5 2.5-2 3.8l.3.3c.5-1.4 1.2-2.7 2-3.9h14.2v20h-.2l.4.4h.2v-.4z"/><g><defs><path id="q" d="M56.6 12.4h18v20.8h-18z"/></defs><clipPath id="r"><use xlink:href="#q" overflow="visible"/></clipPath><path clip-path="url(#r)" fill="#231F20" d="M74.6 22.8c0-3.6-1.1-7-3.2-10.2l-.1-.2H56.6V18.5l.4.4v-6.1h14.1c2 3.1 3.1 6.4 3.1 10 0 3.6-1.1 6.9-3.1 10h-.2l.4.4.1-.2c2.1-3.2 3.2-6.6 3.2-10.2"/></g><path fill="#444142" d="M54.7 31.8c0 .6-.5 1.1-1.1 1.1H22.9c-.6 0-1.1-.5-1.1-1.1V14.3c0-.6.5-1.1 1.1-1.1h30.7c.6 0 1.1.5 1.1 1.1v17.5z"/><g><defs><path id="s" d="M21.8 13.2h32.9v1.4H21.8z"/></defs><clipPath id="t"><use xlink:href="#s" overflow="visible"/></clipPath><path clip-path="url(#t)" fill="#444142" d="M53.7 13.2H22.9c-.6 0-1.1.5-1.1 1.1v.4c0-.6.5-1 1.1-1h30.7c.6 0 1.1.5 1.1 1v-.4c0-.6-.5-1.1-1-1.1"/></g><g><defs><path id="u" d="M21.8 31.4h32.9v1.4H21.8z"/></defs><clipPath id="v"><use xlink:href="#u" overflow="visible"/></clipPath><path clip-path="url(#v)" fill="#444142" d="M53.7 32.4H22.9c-.6 0-1.1-.5-1.1-1v.4c0 .6.5 1.1 1.1 1.1h30.7c.6 0 1.1-.5 1.1-1.1v-.4c0 .6-.5 1-1 1"/></g><g><defs><path id="w" d="M5.6 12.8c-2 3.1-3.1 6.4-3.1 10 0 3.6 1.1 6.9 3.1 10h14.2v-20H5.6zm51.4 0v20h14.1c2-3.1 3.1-6.4 3.1-10 0-3.6-1.1-6.9-3.1-10H57z"/></defs><clipPath id="x"><use xlink:href="#w" overflow="visible"/></clipPath><path clip-path="url(#x)" fill="#464A47" d="M32.8 22.8c0 7.1-5.8 12.9-12.9 12.9C12.8 35.7 7 29.9 7 22.8 7.1 15.7 12.9 10 20 10s12.8 5.7 12.8 12.8"/><path clip-path="url(#x)" fill="#E2E2E2" d="M25.2 22.8c0 2.9-2.4 5.3-5.3 5.3s-5.3-2.4-5.3-5.3 2.4-5.3 5.3-5.3c3 .1 5.3 2.4 5.3 5.3"/><path clip-path="url(#x)" fill="#C1C0C1" d="M22.3 22.8c0 1.3-1.1 2.3-2.3 2.3-1.3 0-2.3-1.1-2.3-2.3 0-1.3 1.1-2.3 2.3-2.3 1.3 0 2.3 1 2.3 2.3"/><path clip-path="url(#x)" fill="#464A47" d="M69.7 22.8c0 7.1-5.8 12.9-12.9 12.9-7.1 0-12.9-5.8-12.9-12.9 0-7.1 5.8-12.9 12.9-12.9 7.1.1 12.9 5.8 12.9 12.9"/><path clip-path="url(#x)" fill="#E2E2E2" d="M62.1 22.8c0 2.9-2.4 5.3-5.3 5.3s-5.3-2.4-5.3-5.3 2.4-5.3 5.3-5.3c2.9.1 5.3 2.4 5.3 5.3"/><path clip-path="url(#x)" fill="#C1C0C1" d="M59.2 22.8c0 1.3-1.1 2.3-2.3 2.3-1.3 0-2.3-1.1-2.3-2.3 0-1.3 1.1-2.3 2.3-2.3 1.2 0 2.3 1 2.3 2.3"/></g><g><defs><path id="y" d="M4.6 12.8h15.3v20H4.6z"/></defs><clipPath id="z"><use xlink:href="#y" overflow="visible"/></clipPath><path clip-path="url(#z)" fill="#D3D2D2" d="M5.7 12.8c-.4.6-.8 1.2-1.1 1.8h13.3v18.1h2v-20H5.7z"/></g><g><defs><path id="A" d="M56.9 12.8h17.2v20H56.9z"/></defs><clipPath id="B"><use xlink:href="#A" overflow="visible"/></clipPath><path clip-path="url(#B)" fill="#D3D2D2" d="M71 12.8H56.9v1.5h12.6c2 3.1 3.1 6.4 3.1 10 0 3-.8 5.9-2.2 8.5h.6c2-3.1 3.1-6.4 3.1-10s-1.1-6.9-3.1-10"/></g><g opacity=".5"><defs><path id="C" d="M2.7 13.4h16.5v19H2.7z"/></defs><clipPath id="D"><use xlink:href="#C" overflow="visible"/></clipPath><path clip-path="url(#D)" fill="#D3D2D2" d="M19.2 13.6c-2.2.1-4.5.1-6.7.2-1.1 0-2.2 0-3.3-.1s-2.2 0-3.3-.1H6l-.6 1.1-.6 1.1-.5 1.1-.4 1.2-.3 1.2-.2 1.2-.1 1.2v2.4l.1 1.2.2 1.2.3 1.2.4 1.3.5 1.1.5 1.1.6 1.1-.7-1-.6-1.1-.6-1.1-.5-1.1-.4-1.2-.3-1.2-.2-1.3.1-1.3.1-1.3.2-1.3.3-1.2.3-1.2.4-1.2.5-1.1.6-1.1.7-1.1c1.1 0 2.2 0 3.3-.1s2.2-.1 3.3-.1c2.4.1 4.6.1 6.8.3z"/></g><g opacity=".5"><defs><path id="E" d="M57.3 13.1h13.1v18.5H57.3z"/></defs><clipPath id="F"><use xlink:href="#E" overflow="visible"/></clipPath><path clip-path="url(#F)" fill="#D3D2D2" d="M70.4 13.3c-2.1.1-4.3.1-6.4.2-2.1 0-4.3-.1-6.4-.1l.1-.1c0 1.5.1 3 .1 4.6 0 1.5 0 3 .1 4.6v4.6c0 1.5-.1 3-.1 4.6-.1-1.5-.1-3-.1-4.6v-4.6c0-1.5 0-3 .1-4.6 0-1.5.1-3 .1-4.6v-.1h.1c2.1 0 4.3-.1 6.4-.1 1.7 0 3.8 0 6 .2z"/></g></svg>