<svg xmlns="http://www.w3.org/2000/svg" xmlns:xlink="http://www.w3.org/1999/xlink" width="61.1" height="64" viewBox="0 0 61.1 64"><path fill="#C82257" d="M18.7 20.3l-2.7-4 4.8.6"/><path fill="#76909F" d="M16.6 23.9l-2.8-4 4.9.6"/><path fill="#E5952E" d="M14.4 27.6l-2.8-4 4.8.6"/><path fill="#D3D2D2" d="M30.8.3c0-.1.2-.3.3-.3.2 0 .3.1.3.3v48.5c0 .2-.1.3-.3.3-.2 0-.3-.1-.3-.3V.3z"/><path fill="#72583C" d="M10 60c0 .1-.7.2-1.5.2S7 60.1 7 60s.7-.2 1.5-.2 1.5.1 1.5.2M8 59.3c0 .3-.1.5-.2.5s-.2-.2-.2-.5.1-.5.2-.5c.1-.1.2.2.2.5M8 60.7c0 .3-.1.5-.2.5s-.2-.2-.2-.5.1-.5.2-.5.2.2.2.5"/><path fill="#00587E" d="M6.7 57.6v.9h.6c.4 0 1.2.2 1.2.7 0 .6-.2.7-.2.7v.4s.5-.1.5.8-.9 1-.9 1H7v1.7c0 .3.9.2.9.2s4.5-.1 15.5-.1c11-.1 22.4-4.5 25.9-6 .5-.2.9-.5 1.2-.8H5.2l1.5.5z"/><path fill="#F3EFD9" d="M54 51.2H.1c.1 0 .2 0 .4.1 2.9.5 2 4.7 2 4.7v.1l2.7 1h45.2C53 55 54 51.2 54 51.2"/><defs><path id="a" d="M2.5 56h49.1v1.1H2.5z"/></defs><clipPath id="b"><use xlink:href="#a" overflow="visible"/></clipPath><path clip-path="url(#b)" fill="#F3EFD9" d="M51.6 56h-49v.1l2.7 1h45.2c.4-.3.7-.7 1.1-1.1"/><g opacity=".6"><defs><path id="c" d="M6.4 57.1H38v4.2H6.4z"/></defs><clipPath id="d"><use xlink:href="#c" overflow="visible"/></clipPath><path clip-path="url(#d)" fill="#00587E" d="M38 58.6c-15.6 1.3-24.4-.8-27-1.5H6.4C21.6 65.6 38 58.6 38 58.6"/></g><defs><path id="e" d="M2.5 53.6h22v2.5h-22z"/></defs><clipPath id="f"><use xlink:href="#e" overflow="visible"/></clipPath><path clip-path="url(#f)" fill="#F3EFD9" d="M2.5 56.1V56M2.5 53.6c.2 1.2 0 2.5 0 2.5h22c-7.8 0-16.5-1.5-22-2.5"/><path fill="#F3EFD9" d="M.4 51.2c-.1 0-.3 0-.4-.1l1.1 2.2L2.5 56s.9-4.2-2.1-4.8"/><defs><path id="g" d="M.1 51.2h2.6v4.9H.1z"/></defs><clipPath id="h"><use xlink:href="#g" overflow="visible"/></clipPath><path clip-path="url(#h)" fill="#F3EFD9" d="M2.5 56c.1-.5.1-1 .1-1.5s-.1-1-.3-1.5c-.2-.5-.4-.9-.8-1.2-.4-.3-.9-.5-1.4-.6.5 0 1 .1 1.5.5.4.3.7.8.9 1.3.3.9.3 2 0 3z"/><path fill="#00587E" d="M6.4 57.7l.5 5.7s-.4.2-.4.6H4.2s-.5.1-.5-.6v-5.9s.2-.5.8-.4c.5.1 1.9.6 1.9.6"/><path fill="#00587E" d="M7.6 63.8c0 .1-.1.2-.2.2h-.7c-.1 0-.2-.1-.2-.2s.1-.2.2-.2h.7c.1.1.2.1.2.2M7.2 57.7c0 .1-.1.2-.2.2h-.7c-.1 0-.2-.1-.2-.2s.1-.2.2-.2H7l.2.2M51.6 51.2H10.1c.1.4.5.6.8.6h39.8c.4 0 .7-.3.9-.6"/><path fill="#DDBF9A" d="M41.3 51.2l-1.7-3.4H19.9l-.9.9h.7l-1.3 1.8h-6l-.3.7"/><path fill="#9E7E64" d="M39.9 47.6c0 .1-.1.2-.2.2H20c-.1 0-.2-.1-.2-.2s.1-.2.2-.2h19.7c.1-.1.2.1.2.2"/><path fill="#C4D5DD" d="M24.4 49.4c0 .4-.4.8-.8.8s-.8-.4-.8-.8.4-.8.8-.8.8.3.8.8"/><circle fill="none" stroke="#9E7E64" stroke-width=".303" stroke-miterlimit="10" cx="23.6" cy="49.4" r=".8"/><defs><path id="i" d="M23 48.8h1.1v.8H23z"/></defs><clipPath id="j"><use xlink:href="#i" overflow="visible"/></clipPath><path clip-path="url(#j)" fill="#1498C3" d="M23.6 49.1c.3 0 .5.2.5.4v-.2c0-.3-.3-.6-.6-.6s-.6.3-.6.6v.2c.2-.2.4-.4.7-.4"/><path fill="#C4D5DD" d="M29.6 49.4c0 .4-.4.8-.8.8s-.8-.4-.8-.8.4-.8.8-.8c.5 0 .8.3.8.8"/><circle fill="none" stroke="#9E7E64" stroke-width=".303" stroke-miterlimit="10" cx="28.9" cy="49.4" r=".8"/><defs><path id="k" d="M28.3 48.8h1.2v.8h-1.2z"/></defs><clipPath id="l"><use xlink:href="#k" overflow="visible"/></clipPath><path clip-path="url(#l)" fill="#1498C3" d="M28.9 49.1c.3 0 .5.2.5.4v-.2c0-.3-.3-.6-.6-.6s-.6.3-.6.6v.2c.2-.2.4-.4.7-.4"/><path fill="#C4D5DD" d="M34.9 49.4c0 .4-.4.8-.8.8s-.8-.4-.8-.8.4-.8.8-.8c.5 0 .8.3.8.8"/><circle fill="none" stroke="#9E7E64" stroke-width=".303" stroke-miterlimit="10" cx="34.1" cy="49.4" r=".8"/><g><defs><path id="m" d="M33.5 48.8h1.1v.8h-1.1z"/></defs><clipPath id="n"><use xlink:href="#m" overflow="visible"/></clipPath><path clip-path="url(#n)" fill="#1498C3" d="M34.1 49.1c.3 0 .5.2.5.4v-.2c0-.3-.3-.6-.6-.6s-.6.3-.6.6v.2c.3-.2.5-.4.7-.4"/></g><path fill="#9E7E64" d="M61.1 51.3c0 .1-.1.2-.2.2h-8c-.1 0-.2-.1-.2-.2s.1-.2.2-.2h8c.1.1.2.1.2.2"/><path fill="none" stroke="#252A26" stroke-width=".155" stroke-miterlimit="10" d="M60.9 51.5L51.6 56"/><path fill="#E9E9E9" d="M30.8 0v43.4H9.4M31.4 11.9v33l15.3 2.4"/><path fill="#E9E9E9" d="M31.4 0l22.7 46-9.3-3-13.4-31.1"/><path fill="none" stroke="#252A26" stroke-width=".155" stroke-miterlimit="10" d="M31.1 0L.1 51.2"/><path fill="#D3D2D2" d="M30.8 43.9c0 .3-.2.5-.5.5H9c-.3 0-.5-.2-.5-.5s.2-.5.5-.5h21.4c.2 0 .4.2.4.5"/><path fill="none" stroke="#252A26" stroke-width=".155" stroke-miterlimit="10" d="M54.1 46l2.8 5.3"/></svg>